<?xml version="1.0" encoding="UTF-8" standalone="no"?>
<!DOCTYPE svg PUBLIC "-//W3C//DTD SVG 1.1//EN" "http://www.w3.org/Graphics/SVG/1.1/DTD/svg11.dtd">
<svg width="100%" height="100%" viewBox="0 0 60 380" version="1.1" xmlns="http://www.w3.org/2000/svg" xmlns:xlink="http://www.w3.org/1999/xlink" xml:space="preserve" xmlns:serif="http://www.serif.com/" style="fill-rule:evenodd;clip-rule:evenodd;stroke-linecap:round;stroke-linejoin:round;stroke-miterlimit:1.5;">
    <g transform="matrix(0.359397,0,0,1.48634,-9.69795,-44.3619)">
        <rect x="26.984" y="29.846" width="166.946" height="255.662" style="fill:rgb(242,242,242);"/>
    </g>
    <g id="Label" transform="matrix(1,0,0,1,-27.2261,11.8096)">
        <g transform="matrix(1,0,0,1,58.164,339.27)">
            <g transform="matrix(0.8973,0,0,0.884326,9.28968,12.4373)">
                <circle cx="3.434" cy="5.159" r="2.172" style="stroke:black;stroke-width:0.94px;"/>
            </g>
            <g transform="matrix(0.8973,0,0,0.884326,4.54775,12.4373)">
                <circle cx="3.434" cy="5.159" r="2.172" style="fill:white;stroke:black;stroke-width:0.94px;"/>
            </g>
            <g transform="matrix(0.8973,0,0,0.884326,-0.194181,12.4373)">
                <circle cx="3.434" cy="5.159" r="2.172" style="stroke:black;stroke-width:0.94px;"/>
            </g>
            <g transform="matrix(0.8973,0,0,0.884326,14.0316,12.4373)">
                <circle cx="3.434" cy="5.159" r="2.172" style="stroke:black;stroke-width:0.94px;"/>
            </g>
            <g transform="matrix(0.8973,0,0,0.884326,9.28968,6.70878)">
                <circle cx="3.434" cy="5.159" r="2.172" style="fill:white;stroke:black;stroke-width:0.94px;"/>
            </g>
            <g transform="matrix(0.8973,0,0,0.884326,4.54775,6.70878)">
                <circle cx="3.434" cy="5.159" r="2.172" style="stroke:black;stroke-width:0.94px;"/>
            </g>
            <g transform="matrix(0.8973,0,0,0.884326,-0.194181,6.70878)">
                <circle cx="3.434" cy="5.159" r="2.172" style="stroke:black;stroke-width:0.94px;"/>
            </g>
            <g transform="matrix(0.8973,0,0,0.884326,14.0316,6.70878)">
                <circle cx="3.434" cy="5.159" r="2.172" style="fill:white;stroke:black;stroke-width:0.94px;"/>
            </g>
            <g transform="matrix(0.8973,0,0,0.884326,9.28968,0.980236)">
                <circle cx="3.434" cy="5.159" r="2.172" style="fill:white;stroke:black;stroke-width:0.94px;"/>
            </g>
            <g transform="matrix(0.8973,0,0,0.884326,4.54775,0.980236)">
                <circle cx="3.434" cy="5.159" r="2.172" style="fill:white;stroke:black;stroke-width:0.94px;"/>
            </g>
            <g transform="matrix(0.8973,0,0,0.884326,-0.194181,0.980236)">
                <circle cx="3.434" cy="5.159" r="2.172" style="stroke:black;stroke-width:0.94px;"/>
            </g>
            <g transform="matrix(0.8973,0,0,0.884326,14.0316,0.980236)">
                <circle cx="3.434" cy="5.159" r="2.172" style="stroke:black;stroke-width:0.94px;"/>
            </g>
        </g>
        <g transform="matrix(0.0195312,0,0,0.0221547,34.9714,337.813)">
            <g transform="matrix(1,0,0,1,-143.343,98.6554)">
                <ellipse cx="360.896" cy="293.762" rx="136.961" ry="230.443" style="fill:rgb(235,235,235);stroke:black;stroke-width:58.45px;"/>
            </g>
            <g transform="matrix(1,0,0,1,445.551,98.6554)">
                <ellipse cx="360.896" cy="293.762" rx="136.961" ry="230.443" style="fill:rgb(235,235,235);stroke:black;stroke-width:58.45px;"/>
            </g>
            <g transform="matrix(1,0,0,1,-34.3236,-20.6488)">
                <ellipse cx="546.324" cy="643.509" rx="431.408" ry="296.899" style="fill:rgb(235,235,235);stroke:black;stroke-width:58.45px;"/>
            </g>
            <circle cx="406.664" cy="569.758" r="105.336" style="fill:rgb(235,235,235);stroke:black;stroke-width:58.45px;"/>
            <g transform="matrix(1,0,0,1,210.672,0)">
                <circle cx="406.664" cy="569.758" r="105.336" style="fill:rgb(235,235,235);stroke:black;stroke-width:58.45px;"/>
            </g>
            <g transform="matrix(1,0,0,1,-53.1856,50.0357)">
                <ellipse cx="565.186" cy="671.455" rx="210.672" ry="98.631" style="fill:rgb(235,235,235);stroke:black;stroke-width:58.45px;"/>
            </g>
            <g transform="matrix(51.2,0,0,45.1371,0.670978,88.9676)">
                <path d="M12.057,13.791C12.057,13.668 11.958,13.568 11.835,13.568L8.139,13.568C8.016,13.568 7.916,13.668 7.916,13.791L7.916,14.236C7.916,14.359 8.016,14.458 8.139,14.458L11.835,14.458C11.958,14.458 12.057,14.359 12.057,14.236L12.057,13.791Z"/>
            </g>
        </g>
    </g>
    <g transform="matrix(1,0,0,1,-88.8763,137.758)">
        <g transform="matrix(0.3556,0,0,72.8139,83.9261,-21717.6)">
            <rect x="13.921" y="296.737" width="168.729" height="3.935" style="fill:rgb(191,191,191);"/>
        </g>
        <g transform="matrix(0.298037,0,0,0.695794,40.3936,112.334)">
            <rect x="161.957" y="57.989" width="36.327" height="2.261"/>
        </g>
        <g transform="matrix(0.298037,0,0,0.695794,40.3936,78.6945)">
            <rect x="161.957" y="57.989" width="36.327" height="2.261"/>
        </g>
        <g transform="matrix(0.298037,0,0,0.695794,40.3936,43.3266)">
            <rect x="161.957" y="57.989" width="36.327" height="2.261"/>
        </g>
        <g transform="matrix(0.298037,0,0,0.695794,40.3936,8.01938)">
            <rect x="161.957" y="57.989" width="36.327" height="2.261"/>
        </g>
        <g transform="matrix(0.298037,0,0,0.695794,40.3936,-25.4274)">
            <rect x="161.957" y="57.989" width="36.327" height="2.261"/>
        </g>
        <g transform="matrix(0.319692,0,0,0.695794,36.0998,-60.2029)">
            <rect x="161.957" y="57.989" width="36.327" height="2.261"/>
        </g>
        <g transform="matrix(0.319692,0,0,0.695794,36.0998,-94.5002)">
            <rect x="161.957" y="57.989" width="36.327" height="2.261"/>
        </g>
        <g transform="matrix(0.319692,0,0,0.695794,36.0998,-130.158)">
            <rect x="161.957" y="57.989" width="36.327" height="2.261"/>
        </g>
        <g transform="matrix(0.320796,0,0,0.707593,47.2674,-9.5962)">
            <rect x="161.957" y="57.989" width="36.327" height="2.261"/>
        </g>
        <g transform="matrix(4.08741e-16,6.67525,-0.695794,4.26051e-17,140.184,-1169.88)">
            <rect x="161.957" y="57.989" width="36.327" height="2.261"/>
        </g>
        <g id="CVOut-output" serif:id="CVOut#output" transform="matrix(0.175002,0,0,0.175002,101.09,-0.660999)">
            <rect x="53.94" y="106.916" width="161.978" height="161.978" style="fill:rgb(77,77,77);"/>
        </g>
    </g>
    <g id="BusIn-light" serif:id="BusIn#light" transform="matrix(1,0,0,1,-27.8135,10.8256)">
        <circle cx="42.167" cy="335.861" r="3.82" style="fill:rgb(230,230,230);"/>
    </g>
    <g>
        <g transform="matrix(1,0,0,1,47.3095,-3.99815)">
            <path d="M-32.868,23.656C-32.948,23.656 -33.056,23.66 -33.192,23.668C-33.328,23.676 -33.474,23.682 -33.63,23.686C-33.786,23.69 -33.946,23.696 -34.11,23.704C-34.274,23.712 -34.424,23.716 -34.56,23.716C-35.096,23.716 -35.62,23.634 -36.132,23.47C-36.644,23.306 -37.098,23.05 -37.494,22.702C-37.89,22.354 -38.21,21.906 -38.454,21.358C-38.698,20.81 -38.82,20.152 -38.82,19.384C-38.82,18.68 -38.686,18.056 -38.418,17.512C-38.15,16.968 -37.796,16.512 -37.356,16.144C-36.916,15.776 -36.42,15.496 -35.868,15.304C-35.316,15.112 -34.752,15.016 -34.176,15.016C-34.048,15.016 -33.874,15.024 -33.654,15.04C-33.434,15.056 -33.214,15.076 -32.994,15.1C-32.774,15.124 -32.578,15.15 -32.406,15.178C-32.234,15.206 -32.124,15.232 -32.076,15.256C-31.972,14.976 -31.856,14.728 -31.728,14.512C-31.6,14.296 -31.424,14.132 -31.2,14.02C-31.136,13.996 -31.064,13.992 -30.984,14.008C-30.904,14.024 -30.864,14.064 -30.864,14.128C-30.904,14.2 -30.934,14.244 -30.954,14.26C-30.974,14.276 -31,14.284 -31.032,14.284C-31.128,14.284 -31.222,14.328 -31.314,14.416C-31.406,14.504 -31.492,14.618 -31.572,14.758C-31.652,14.898 -31.722,15.058 -31.782,15.238C-31.842,15.418 -31.888,15.6 -31.92,15.784C-31.936,15.872 -31.954,15.974 -31.974,16.09C-31.994,16.206 -32.012,16.32 -32.028,16.432C-32.044,16.544 -32.056,16.652 -32.064,16.756C-32.072,16.86 -32.076,16.948 -32.076,17.02C-32.076,17.06 -32.092,17.094 -32.124,17.122C-32.156,17.15 -32.188,17.164 -32.22,17.164C-32.268,17.164 -32.324,17.14 -32.388,17.092C-32.42,16.892 -32.486,16.692 -32.586,16.492C-32.686,16.292 -32.826,16.112 -33.006,15.952C-33.186,15.792 -33.41,15.664 -33.678,15.568C-33.946,15.472 -34.264,15.424 -34.632,15.424C-35.024,15.424 -35.374,15.516 -35.682,15.7C-35.99,15.884 -36.25,16.136 -36.462,16.456C-36.674,16.776 -36.836,17.156 -36.948,17.596C-37.06,18.036 -37.116,18.508 -37.116,19.012C-37.116,19.708 -37.046,20.326 -36.906,20.866C-36.766,21.406 -36.572,21.864 -36.324,22.24C-36.076,22.616 -35.78,22.902 -35.436,23.098C-35.092,23.294 -34.716,23.392 -34.308,23.392C-34.036,23.392 -33.77,23.348 -33.51,23.26C-33.25,23.172 -33.01,23.052 -32.79,22.9C-32.57,22.748 -32.374,22.572 -32.202,22.372C-32.03,22.172 -31.896,21.96 -31.8,21.736C-31.784,21.704 -31.742,21.68 -31.674,21.664C-31.606,21.648 -31.572,21.656 -31.572,21.688C-31.572,21.792 -31.606,21.934 -31.674,22.114C-31.742,22.294 -31.82,22.474 -31.908,22.654C-31.996,22.834 -32.084,22.998 -32.172,23.146C-32.26,23.294 -32.32,23.392 -32.352,23.44C-32.376,23.496 -32.406,23.57 -32.442,23.662C-32.478,23.754 -32.51,23.858 -32.538,23.974C-32.566,24.09 -32.592,24.21 -32.616,24.334C-32.64,24.458 -32.652,24.58 -32.652,24.7C-32.652,24.828 -32.668,24.908 -32.7,24.94C-32.732,24.972 -32.8,24.988 -32.904,24.988C-32.992,24.988 -33.032,24.926 -33.024,24.802C-33.016,24.678 -32.996,24.536 -32.964,24.376C-32.932,24.216 -32.9,24.066 -32.868,23.926C-32.836,23.786 -32.836,23.696 -32.868,23.656Z" style="fill-rule:nonzero;"/>
            <path d="M-22.848,15.04C-22.752,15.04 -22.644,15.038 -22.524,15.034C-22.404,15.03 -22.29,15.026 -22.182,15.022C-22.074,15.018 -21.982,15.014 -21.906,15.01C-21.83,15.006 -21.78,15.004 -21.756,15.004C-21.62,15.004 -21.552,15.044 -21.552,15.124C-21.552,15.196 -21.58,15.248 -21.636,15.28C-21.692,15.312 -21.758,15.336 -21.834,15.352C-21.91,15.368 -21.988,15.378 -22.068,15.382C-22.148,15.386 -22.212,15.4 -22.26,15.424C-22.628,16.128 -22.986,16.826 -23.334,17.518C-23.682,18.21 -24.016,18.87 -24.336,19.498C-24.656,20.126 -24.958,20.706 -25.242,21.238C-25.526,21.77 -25.782,22.232 -26.01,22.624C-26.238,23.016 -26.436,23.324 -26.604,23.548C-26.772,23.772 -26.9,23.884 -26.988,23.884C-27.028,23.86 -27.068,23.822 -27.108,23.77C-27.148,23.718 -27.188,23.648 -27.228,23.56C-27.348,23.312 -27.484,23.012 -27.636,22.66C-27.788,22.308 -27.948,21.928 -28.116,21.52C-28.284,21.112 -28.46,20.69 -28.644,20.254C-28.828,19.818 -29.012,19.384 -29.196,18.952L-29.448,18.352C-29.584,18.016 -29.716,17.684 -29.844,17.356C-29.972,17.028 -30.09,16.726 -30.198,16.45C-30.306,16.174 -30.402,15.94 -30.486,15.748C-30.57,15.556 -30.64,15.428 -30.696,15.364C-30.896,15.364 -31.052,15.36 -31.164,15.352C-31.276,15.344 -31.36,15.334 -31.416,15.322C-31.472,15.31 -31.508,15.294 -31.524,15.274C-31.54,15.254 -31.548,15.232 -31.548,15.208C-31.548,15.152 -31.532,15.104 -31.5,15.064C-31.468,15.024 -31.436,15.004 -31.404,15.004C-31.38,15.004 -31.318,15.006 -31.218,15.01C-31.118,15.014 -30.994,15.018 -30.846,15.022C-30.698,15.026 -30.532,15.032 -30.348,15.04C-30.164,15.048 -29.98,15.052 -29.796,15.052C-29.1,15.052 -28.596,15.038 -28.284,15.01C-27.972,14.982 -27.784,14.968 -27.72,14.968C-27.568,14.968 -27.492,15.008 -27.492,15.088C-27.492,15.104 -27.496,15.126 -27.504,15.154C-27.512,15.182 -27.534,15.212 -27.57,15.244C-27.606,15.276 -27.666,15.304 -27.75,15.328C-27.834,15.352 -27.948,15.364 -28.092,15.364C-28.196,15.364 -28.298,15.362 -28.398,15.358C-28.498,15.354 -28.576,15.348 -28.632,15.34C-28.632,15.396 -28.588,15.568 -28.5,15.856C-28.412,16.144 -28.298,16.496 -28.158,16.912C-28.018,17.328 -27.858,17.78 -27.678,18.268C-27.498,18.756 -27.318,19.23 -27.138,19.69C-26.958,20.15 -26.786,20.57 -26.622,20.95C-26.458,21.33 -26.316,21.62 -26.196,21.82C-26.132,21.732 -26.032,21.556 -25.896,21.292C-25.76,21.028 -25.608,20.712 -25.44,20.344C-25.272,19.976 -25.098,19.576 -24.918,19.144C-24.738,18.712 -24.574,18.286 -24.426,17.866C-24.278,17.446 -24.156,17.05 -24.06,16.678C-23.964,16.306 -23.916,16 -23.916,15.76C-23.916,15.68 -23.922,15.596 -23.934,15.508C-23.946,15.42 -23.984,15.368 -24.048,15.352C-24.256,15.352 -24.426,15.348 -24.558,15.34C-24.69,15.332 -24.796,15.322 -24.876,15.31C-24.956,15.298 -25.02,15.282 -25.068,15.262C-25.116,15.242 -25.16,15.224 -25.2,15.208C-25.224,15.176 -25.236,15.128 -25.236,15.064C-25.236,15 -25.212,14.968 -25.164,14.968L-25.008,14.968C-24.92,14.976 -24.772,14.986 -24.564,14.998C-24.356,15.01 -24.048,15.024 -23.64,15.04L-22.848,15.04Z" style="fill-rule:nonzero;"/>
            <path d="M-14.436,23.32C-13.996,23.32 -13.608,23.21 -13.272,22.99C-12.936,22.77 -12.654,22.478 -12.426,22.114C-12.198,21.75 -12.028,21.33 -11.916,20.854C-11.804,20.378 -11.748,19.88 -11.748,19.36C-11.748,18.728 -11.824,18.158 -11.976,17.65C-12.128,17.142 -12.334,16.712 -12.594,16.36C-12.854,16.008 -13.158,15.738 -13.506,15.55C-13.854,15.362 -14.22,15.268 -14.604,15.268C-15.044,15.268 -15.438,15.366 -15.786,15.562C-16.134,15.758 -16.43,16.028 -16.674,16.372C-16.918,16.716 -17.104,17.126 -17.232,17.602C-17.36,18.078 -17.424,18.596 -17.424,19.156C-17.424,19.868 -17.34,20.486 -17.172,21.01C-17.004,21.534 -16.782,21.966 -16.506,22.306C-16.23,22.646 -15.912,22.9 -15.552,23.068C-15.192,23.236 -14.82,23.32 -14.436,23.32ZM-14.76,23.764C-15.384,23.764 -15.966,23.672 -16.506,23.488C-17.046,23.304 -17.516,23.034 -17.916,22.678C-18.316,22.322 -18.632,21.888 -18.864,21.376C-19.096,20.864 -19.212,20.28 -19.212,19.624C-19.212,18.904 -19.076,18.252 -18.804,17.668C-18.532,17.084 -18.172,16.584 -17.724,16.168C-17.276,15.752 -16.764,15.43 -16.188,15.202C-15.612,14.974 -15.016,14.86 -14.4,14.86C-13.816,14.86 -13.256,14.946 -12.72,15.118C-12.184,15.29 -11.712,15.542 -11.304,15.874C-10.896,16.206 -10.572,16.618 -10.332,17.11C-10.092,17.602 -9.972,18.164 -9.972,18.796C-9.972,19.396 -10.092,19.992 -10.332,20.584C-10.572,21.176 -10.904,21.708 -11.328,22.18C-11.752,22.652 -12.256,23.034 -12.84,23.326C-13.424,23.618 -14.064,23.764 -14.76,23.764Z" style="fill-rule:nonzero;"/>
            <path d="M-9.48,18.64C-9.544,18.624 -9.574,18.592 -9.57,18.544C-9.566,18.496 -9.536,18.468 -9.48,18.46C-9.456,18.452 -9.38,18.424 -9.252,18.376C-9.124,18.328 -8.97,18.272 -8.79,18.208C-8.61,18.144 -8.422,18.076 -8.226,18.004C-8.03,17.932 -7.856,17.872 -7.704,17.824C-7.608,17.792 -7.542,17.77 -7.506,17.758C-7.47,17.746 -7.44,17.74 -7.416,17.74C-7.392,17.74 -7.364,17.75 -7.332,17.77C-7.3,17.79 -7.292,17.82 -7.308,17.86C-7.332,17.924 -7.358,18.076 -7.386,18.316C-7.414,18.556 -7.44,18.822 -7.464,19.114C-7.488,19.406 -7.51,19.696 -7.53,19.984C-7.55,20.272 -7.56,20.5 -7.56,20.668C-7.56,21.308 -7.424,21.802 -7.152,22.15C-6.88,22.498 -6.456,22.672 -5.88,22.672C-5.584,22.672 -5.338,22.612 -5.142,22.492C-4.946,22.372 -4.796,22.232 -4.692,22.072C-4.62,21.968 -4.572,21.74 -4.548,21.388C-4.548,21.324 -4.546,21.24 -4.542,21.136C-4.538,21.032 -4.534,20.922 -4.53,20.806C-4.526,20.69 -4.522,20.578 -4.518,20.47C-4.514,20.362 -4.512,20.272 -4.512,20.2C-4.504,19.832 -4.514,19.49 -4.542,19.174C-4.57,18.858 -4.612,18.624 -4.668,18.472C-4.692,18.376 -4.74,18.328 -4.812,18.328C-4.86,18.328 -4.906,18.33 -4.95,18.334C-4.994,18.338 -5.02,18.304 -5.028,18.232C-5.028,18.208 -5.004,18.182 -4.956,18.154C-4.908,18.126 -4.816,18.084 -4.68,18.028C-4.552,17.98 -4.41,17.932 -4.254,17.884C-4.098,17.836 -3.944,17.796 -3.792,17.764C-3.64,17.732 -3.504,17.71 -3.384,17.698C-3.264,17.686 -3.176,17.692 -3.12,17.716C-3.12,17.724 -3.114,17.734 -3.102,17.746C-3.09,17.758 -3.08,17.784 -3.072,17.824C-3.056,17.872 -3.066,18.022 -3.102,18.274C-3.138,18.526 -3.176,18.936 -3.216,19.504C-3.248,19.896 -3.276,20.276 -3.3,20.644C-3.324,21.012 -3.336,21.292 -3.336,21.484C-3.336,21.86 -3.266,22.158 -3.126,22.378C-2.986,22.598 -2.812,22.708 -2.604,22.708C-2.468,22.708 -2.338,22.68 -2.214,22.624C-2.09,22.568 -2,22.52 -1.944,22.48C-1.88,22.48 -1.846,22.508 -1.842,22.564C-1.838,22.62 -1.852,22.656 -1.884,22.672C-2.004,22.752 -2.17,22.852 -2.382,22.972C-2.594,23.092 -2.814,23.206 -3.042,23.314C-3.27,23.422 -3.488,23.514 -3.696,23.59C-3.904,23.666 -4.072,23.704 -4.2,23.704C-4.264,23.704 -4.322,23.662 -4.374,23.578C-4.426,23.494 -4.468,23.392 -4.5,23.272C-4.532,23.152 -4.556,23.028 -4.572,22.9C-4.588,22.772 -4.596,22.66 -4.596,22.564C-4.764,22.684 -4.956,22.81 -5.172,22.942C-5.388,23.074 -5.612,23.198 -5.844,23.314C-6.076,23.43 -6.306,23.524 -6.534,23.596C-6.762,23.668 -6.972,23.704 -7.164,23.704C-7.652,23.704 -8.052,23.574 -8.364,23.314C-8.676,23.054 -8.832,22.716 -8.832,22.3C-8.832,22.212 -8.824,22.08 -8.808,21.904C-8.792,21.728 -8.772,21.528 -8.748,21.304C-8.724,21.08 -8.704,20.84 -8.688,20.584C-8.672,20.328 -8.664,20.08 -8.664,19.84C-8.664,19.472 -8.722,19.19 -8.838,18.994C-8.954,18.798 -9.104,18.688 -9.288,18.664L-9.48,18.64Z" style="fill-rule:nonzero;"/>
            <path d="M3.732,21.928C3.748,21.912 3.762,21.914 3.774,21.934C3.786,21.954 3.794,21.982 3.798,22.018C3.802,22.054 3.8,22.092 3.792,22.132C3.784,22.172 3.768,22.204 3.744,22.228C3.584,22.38 3.384,22.54 3.144,22.708C2.904,22.876 2.656,23.032 2.4,23.176C2.328,23.216 2.228,23.268 2.1,23.332C1.972,23.396 1.83,23.458 1.674,23.518C1.518,23.578 1.358,23.63 1.194,23.674C1.03,23.718 0.876,23.74 0.732,23.74C0.444,23.74 0.172,23.684 -0.084,23.572C-0.34,23.46 -0.564,23.306 -0.756,23.11C-0.948,22.914 -1.098,22.68 -1.206,22.408C-1.314,22.136 -1.368,21.84 -1.368,21.52C-1.368,21.176 -1.32,20.852 -1.224,20.548C-1.128,20.244 -1.018,19.972 -0.894,19.732C-0.77,19.492 -0.652,19.29 -0.54,19.126C-0.428,18.962 -0.352,18.84 -0.312,18.76C-0.464,18.752 -0.602,18.746 -0.726,18.742C-0.85,18.738 -0.968,18.736 -1.08,18.736C-1.336,18.736 -1.552,18.738 -1.728,18.742C-1.904,18.746 -2.06,18.764 -2.196,18.796C-2.26,18.812 -2.32,18.844 -2.376,18.892C-2.432,18.94 -2.48,18.976 -2.52,19C-2.536,18.984 -2.558,18.962 -2.586,18.934C-2.614,18.906 -2.628,18.876 -2.628,18.844C-2.628,18.828 -2.624,18.816 -2.616,18.808C-2.616,18.8 -2.564,18.754 -2.46,18.67C-2.356,18.586 -2.226,18.486 -2.07,18.37C-1.914,18.254 -1.742,18.126 -1.554,17.986C-1.366,17.846 -1.186,17.716 -1.014,17.596C-0.842,17.476 -0.694,17.374 -0.57,17.29C-0.446,17.206 -0.364,17.156 -0.324,17.14C-0.276,17.124 -0.228,17.132 -0.18,17.164C-0.132,17.196 -0.116,17.22 -0.132,17.236C-0.156,17.252 -0.192,17.282 -0.24,17.326C-0.288,17.37 -0.304,17.408 -0.288,17.44C-0.2,17.512 -0.048,17.576 0.168,17.632C0.384,17.688 0.628,17.734 0.9,17.77C1.172,17.806 1.452,17.834 1.74,17.854C2.028,17.874 2.288,17.884 2.52,17.884C2.864,17.884 3.14,17.874 3.348,17.854C3.556,17.834 3.728,17.808 3.864,17.776C3.992,17.744 4.076,17.72 4.116,17.704C4.124,17.704 4.14,17.716 4.164,17.74C4.188,17.764 4.2,17.792 4.2,17.824C4.2,17.84 4.142,17.88 4.026,17.944C3.91,18.008 3.792,18.076 3.672,18.148C3.6,18.188 3.514,18.24 3.414,18.304C3.314,18.368 3.206,18.43 3.09,18.49C2.974,18.55 2.852,18.604 2.724,18.652C2.596,18.7 2.472,18.728 2.352,18.736C2.232,18.752 2.092,18.764 1.932,18.772C1.772,18.78 1.604,18.786 1.428,18.79C1.252,18.794 1.074,18.798 0.894,18.802C0.714,18.806 0.548,18.808 0.396,18.808C0.372,18.848 0.334,18.914 0.282,19.006C0.23,19.098 0.18,19.216 0.132,19.36C0.084,19.504 0.04,19.668 0,19.852C-0.04,20.036 -0.06,20.236 -0.06,20.452C-0.06,20.78 -0.01,21.082 0.09,21.358C0.19,21.634 0.33,21.872 0.51,22.072C0.69,22.272 0.904,22.428 1.152,22.54C1.4,22.652 1.668,22.708 1.956,22.708C2.124,22.708 2.286,22.688 2.442,22.648C2.598,22.608 2.746,22.556 2.886,22.492C3.026,22.428 3.156,22.358 3.276,22.282C3.396,22.206 3.5,22.132 3.588,22.06L3.732,21.928Z" style="fill-rule:nonzero;"/>
        </g>
        <g transform="matrix(1,0,0,1,47.3095,-3.99815)">
            <text x="-39.144px" y="23.596px" style="font-family:'Luminari-Regular', 'Luminari';font-size:12px;">CV Out</text>
        </g>
    </g>
</svg>
