<?xml version="1.0" encoding="UTF-8" standalone="no"?>
<!DOCTYPE svg PUBLIC "-//W3C//DTD SVG 1.1//EN" "http://www.w3.org/Graphics/SVG/1.1/DTD/svg11.dtd">
<svg width="100%" height="100%" viewBox="0 0 60 380" version="1.1" xmlns="http://www.w3.org/2000/svg" xmlns:xlink="http://www.w3.org/1999/xlink" xml:space="preserve" xmlns:serif="http://www.serif.com/" style="fill-rule:evenodd;clip-rule:evenodd;stroke-linecap:round;stroke-linejoin:round;stroke-miterlimit:1.5;">
    <g transform="matrix(0.359397,0,0,1.48634,-9.69795,-44.3619)">
        <rect x="26.984" y="29.846" width="166.946" height="255.662" style="fill:rgb(242,242,242);"/>
    </g>
    <g id="Label" transform="matrix(1,0,0,1,-27.2261,11.8096)">
        <g transform="matrix(1,0,0,1,58.164,339.27)">
            <g transform="matrix(0.8973,0,0,0.884326,9.28968,12.4373)">
                <circle cx="3.434" cy="5.159" r="2.172" style="stroke:black;stroke-width:0.94px;"/>
            </g>
            <g transform="matrix(0.8973,0,0,0.884326,4.54775,12.4373)">
                <circle cx="3.434" cy="5.159" r="2.172" style="fill:white;stroke:black;stroke-width:0.94px;"/>
            </g>
            <g transform="matrix(0.8973,0,0,0.884326,-0.194181,12.4373)">
                <circle cx="3.434" cy="5.159" r="2.172" style="stroke:black;stroke-width:0.94px;"/>
            </g>
            <g transform="matrix(0.8973,0,0,0.884326,14.0316,12.4373)">
                <circle cx="3.434" cy="5.159" r="2.172" style="stroke:black;stroke-width:0.94px;"/>
            </g>
            <g transform="matrix(0.8973,0,0,0.884326,9.28968,6.70878)">
                <circle cx="3.434" cy="5.159" r="2.172" style="fill:white;stroke:black;stroke-width:0.94px;"/>
            </g>
            <g transform="matrix(0.8973,0,0,0.884326,4.54775,6.70878)">
                <circle cx="3.434" cy="5.159" r="2.172" style="stroke:black;stroke-width:0.94px;"/>
            </g>
            <g transform="matrix(0.8973,0,0,0.884326,-0.194181,6.70878)">
                <circle cx="3.434" cy="5.159" r="2.172" style="stroke:black;stroke-width:0.94px;"/>
            </g>
            <g transform="matrix(0.8973,0,0,0.884326,14.0316,6.70878)">
                <circle cx="3.434" cy="5.159" r="2.172" style="fill:white;stroke:black;stroke-width:0.94px;"/>
            </g>
            <g transform="matrix(0.8973,0,0,0.884326,9.28968,0.980236)">
                <circle cx="3.434" cy="5.159" r="2.172" style="fill:white;stroke:black;stroke-width:0.94px;"/>
            </g>
            <g transform="matrix(0.8973,0,0,0.884326,4.54775,0.980236)">
                <circle cx="3.434" cy="5.159" r="2.172" style="fill:white;stroke:black;stroke-width:0.94px;"/>
            </g>
            <g transform="matrix(0.8973,0,0,0.884326,-0.194181,0.980236)">
                <circle cx="3.434" cy="5.159" r="2.172" style="stroke:black;stroke-width:0.94px;"/>
            </g>
            <g transform="matrix(0.8973,0,0,0.884326,14.0316,0.980236)">
                <circle cx="3.434" cy="5.159" r="2.172" style="stroke:black;stroke-width:0.94px;"/>
            </g>
        </g>
        <g transform="matrix(0.0195312,0,0,0.0221547,34.9714,337.813)">
            <g transform="matrix(1,0,0,1,-143.343,98.6554)">
                <ellipse cx="360.896" cy="293.762" rx="136.961" ry="230.443" style="fill:rgb(235,235,235);stroke:black;stroke-width:58.45px;"/>
            </g>
            <g transform="matrix(1,0,0,1,445.551,98.6554)">
                <ellipse cx="360.896" cy="293.762" rx="136.961" ry="230.443" style="fill:rgb(235,235,235);stroke:black;stroke-width:58.45px;"/>
            </g>
            <g transform="matrix(1,0,0,1,-34.3236,-20.6488)">
                <ellipse cx="546.324" cy="643.509" rx="431.408" ry="296.899" style="fill:rgb(235,235,235);stroke:black;stroke-width:58.45px;"/>
            </g>
            <circle cx="406.664" cy="569.758" r="105.336" style="fill:rgb(235,235,235);stroke:black;stroke-width:58.45px;"/>
            <g transform="matrix(1,0,0,1,210.672,0)">
                <circle cx="406.664" cy="569.758" r="105.336" style="fill:rgb(235,235,235);stroke:black;stroke-width:58.45px;"/>
            </g>
            <g transform="matrix(1,0,0,1,-53.1856,50.0357)">
                <ellipse cx="565.186" cy="671.455" rx="210.672" ry="98.631" style="fill:rgb(235,235,235);stroke:black;stroke-width:58.45px;"/>
            </g>
            <g transform="matrix(51.2,0,0,45.1371,0.670978,88.9676)">
                <path d="M12.057,13.791C12.057,13.668 11.958,13.568 11.835,13.568L8.139,13.568C8.016,13.568 7.916,13.668 7.916,13.791L7.916,14.236C7.916,14.359 8.016,14.458 8.139,14.458L11.835,14.458C11.958,14.458 12.057,14.359 12.057,14.236L12.057,13.791Z"/>
            </g>
        </g>
    </g>
    <g transform="matrix(1,0,0,1,-88.8763,137.758)">
        <g transform="matrix(0.3556,0,0,72.8139,83.9261,-21717.6)">
            <rect x="13.921" y="296.737" width="168.729" height="3.935" style="fill:rgb(191,191,191);"/>
        </g>
        <g transform="matrix(0.596074,0,0,0.695794,-7.95615,112.334)">
            <rect x="161.957" y="57.989" width="36.327" height="2.261"/>
        </g>
        <g transform="matrix(0.596074,0,0,0.695794,-7.95615,78.6945)">
            <rect x="161.957" y="57.989" width="36.327" height="2.261"/>
        </g>
        <g transform="matrix(0.596074,0,0,0.695794,-7.95615,43.3266)">
            <rect x="161.957" y="57.989" width="36.327" height="2.261"/>
        </g>
        <g transform="matrix(0.596074,0,0,0.695794,-7.95615,8.01938)">
            <rect x="161.957" y="57.989" width="36.327" height="2.261"/>
        </g>
        <g transform="matrix(0.596074,0,0,0.695794,-7.95615,-25.4274)">
            <rect x="161.957" y="57.989" width="36.327" height="2.261"/>
        </g>
        <g transform="matrix(0.596074,0,0,0.695794,-7.95615,-60.2029)">
            <rect x="161.957" y="57.989" width="36.327" height="2.261"/>
        </g>
        <g transform="matrix(0.596074,0,0,0.695794,-7.95615,-94.5002)">
            <rect x="161.957" y="57.989" width="36.327" height="2.261"/>
        </g>
        <g transform="matrix(0.596074,0,0,0.695794,-7.95615,-130.158)">
            <rect x="161.957" y="57.989" width="36.327" height="2.261"/>
        </g>
        <g id="BitOut8-ouput" serif:id="BitOut8#ouput" transform="matrix(0.175002,0,0,0.175002,101.09,120.969)">
            <rect x="53.94" y="106.916" width="161.978" height="161.978" style="fill:rgb(77,77,77);"/>
        </g>
        <g id="BitOut7-ouput" serif:id="BitOut7#ouput" transform="matrix(0.175002,0,0,0.175002,101.09,86.2175)">
            <rect x="53.94" y="106.916" width="161.978" height="161.978" style="fill:rgb(77,77,77);"/>
        </g>
        <g id="BitOut6-ouput" serif:id="BitOut6#ouput" transform="matrix(0.175002,0,0,0.175002,101.09,16.7147)">
            <rect x="53.94" y="106.916" width="161.978" height="161.978" style="fill:rgb(77,77,77);"/>
        </g>
        <g id="BitOut5-ouput" serif:id="BitOut5#ouput" transform="matrix(0.175002,0,0,0.175002,101.09,51.4661)">
            <rect x="53.94" y="106.916" width="161.978" height="161.978" style="fill:rgb(77,77,77);"/>
        </g>
        <g id="BitOut4-ouput" serif:id="BitOut4#ouput" transform="matrix(0.175002,0,0,0.175002,101.09,-18.0367)">
            <rect x="53.94" y="106.916" width="161.978" height="161.978" style="fill:rgb(77,77,77);"/>
        </g>
        <g id="BitOut3-ouput" serif:id="BitOut3#ouput" transform="matrix(0.175002,0,0,0.175002,101.09,-52.7881)">
            <rect x="53.94" y="106.916" width="161.978" height="161.978" style="fill:rgb(77,77,77);"/>
        </g>
        <g id="BitOut2-ouput" serif:id="BitOut2#ouput" transform="matrix(0.175002,0,0,0.175002,101.09,-87.5395)">
            <rect x="53.94" y="106.916" width="161.978" height="161.978" style="fill:rgb(77,77,77);"/>
        </g>
        <g id="BitOut1-ouput" serif:id="BitOut1#ouput" transform="matrix(0.175002,0,0,0.175002,101.09,-122.291)">
            <rect x="53.94" y="106.916" width="161.978" height="161.978" style="fill:rgb(77,77,77);"/>
        </g>
    </g>
    <g id="BusIn-light" serif:id="BusIn#light" transform="matrix(1,0,0,1,-27.8135,10.8256)">
        <circle cx="42.167" cy="335.861" r="3.82" style="fill:rgb(230,230,230);"/>
    </g>
    <g>
        <g transform="matrix(1,0,0,1,39.7355,-2.72712)">
            <path d="M-36.376,23.26C-36.621,23.398 -36.93,23.542 -37.304,23.692C-37.677,23.841 -38.066,23.916 -38.472,23.916C-38.717,23.916 -38.893,23.894 -39,23.852C-39.106,23.809 -39.16,23.724 -39.16,23.596C-39.16,23.553 -39.152,23.505 -39.136,23.452C-39.12,23.398 -39.101,23.353 -39.08,23.316C-39.058,23.278 -39.032,23.252 -39,23.236C-38.968,23.22 -38.936,23.233 -38.904,23.276C-38.84,23.361 -38.744,23.409 -38.616,23.42C-38.488,23.43 -38.349,23.436 -38.2,23.436C-37.976,23.425 -37.773,23.348 -37.592,23.204C-37.41,23.06 -37.277,22.865 -37.192,22.62C-37.149,22.47 -37.106,22.236 -37.064,21.916C-37.021,21.596 -36.986,21.212 -36.96,20.764C-36.933,20.316 -36.912,19.817 -36.896,19.268C-36.88,18.718 -36.872,18.14 -36.872,17.532C-36.872,16.145 -36.909,15.065 -36.984,14.292C-37.058,13.518 -37.154,13.073 -37.272,12.956C-37.357,12.892 -37.464,12.841 -37.592,12.804C-37.72,12.766 -37.85,12.742 -37.984,12.732C-38.117,12.721 -38.248,12.716 -38.376,12.716C-38.504,12.716 -38.605,12.721 -38.68,12.732C-38.754,12.742 -38.813,12.721 -38.856,12.668C-38.898,12.614 -38.92,12.561 -38.92,12.508C-38.92,12.316 -38.85,12.22 -38.712,12.22C-38.637,12.22 -38.504,12.228 -38.312,12.244C-38.12,12.26 -37.898,12.276 -37.648,12.292C-37.397,12.308 -37.133,12.321 -36.856,12.332C-36.578,12.342 -36.328,12.348 -36.104,12.348C-35.826,12.348 -35.568,12.305 -35.328,12.22C-35.088,12.134 -34.84,12.038 -34.584,11.932C-34.328,11.825 -34.048,11.729 -33.744,11.644C-33.44,11.558 -33.085,11.516 -32.68,11.516C-32.178,11.516 -31.709,11.558 -31.272,11.644C-30.834,11.729 -30.456,11.86 -30.136,12.036C-29.816,12.212 -29.562,12.438 -29.376,12.716C-29.189,12.993 -29.096,13.318 -29.096,13.692C-29.096,14.118 -29.186,14.505 -29.368,14.852C-29.549,15.198 -29.776,15.505 -30.048,15.772C-30.32,16.038 -30.608,16.265 -30.912,16.452C-31.216,16.638 -31.49,16.78 -31.736,16.876C-31.341,16.908 -30.909,16.974 -30.44,17.076C-29.97,17.177 -29.533,17.332 -29.128,17.54C-28.722,17.748 -28.384,18.022 -28.112,18.364C-27.84,18.705 -27.704,19.132 -27.704,19.644C-27.704,20.049 -27.786,20.436 -27.952,20.804C-28.117,21.172 -28.338,21.513 -28.616,21.828C-28.893,22.142 -29.21,22.43 -29.568,22.692C-29.925,22.953 -30.298,23.174 -30.688,23.356C-31.077,23.537 -31.472,23.678 -31.872,23.78C-32.272,23.881 -32.642,23.932 -32.984,23.932C-33.186,23.932 -33.44,23.913 -33.744,23.876C-34.048,23.838 -34.36,23.788 -34.68,23.724C-35,23.66 -35.312,23.588 -35.616,23.508C-35.92,23.428 -36.173,23.345 -36.376,23.26ZM-35,19.996C-34.989,20.55 -34.973,20.95 -34.952,21.196C-34.93,21.441 -34.909,21.628 -34.888,21.756C-34.856,21.937 -34.778,22.116 -34.656,22.292C-34.533,22.468 -34.373,22.63 -34.176,22.78C-33.978,22.929 -33.749,23.049 -33.488,23.14C-33.226,23.23 -32.936,23.276 -32.616,23.276C-32.274,23.276 -31.954,23.217 -31.656,23.1C-31.357,22.982 -31.098,22.798 -30.88,22.548C-30.661,22.297 -30.488,21.974 -30.36,21.58C-30.232,21.185 -30.168,20.71 -30.168,20.156C-30.168,19.654 -30.248,19.228 -30.408,18.876C-30.568,18.524 -30.794,18.238 -31.088,18.02C-31.381,17.801 -31.736,17.644 -32.152,17.548C-32.568,17.452 -33.032,17.404 -33.544,17.404C-33.842,17.404 -34.125,17.406 -34.392,17.412C-34.658,17.417 -34.856,17.425 -34.984,17.436C-34.994,17.553 -35,17.676 -35,17.804L-35,19.996ZM-34.776,13.052C-34.797,13.19 -34.818,13.382 -34.84,13.628C-34.861,13.873 -34.882,14.158 -34.904,14.484C-34.925,14.809 -34.944,15.161 -34.96,15.54C-34.976,15.918 -34.989,16.31 -35,16.716C-34.989,16.748 -34.93,16.772 -34.824,16.788C-34.717,16.804 -34.592,16.817 -34.448,16.828C-34.304,16.838 -34.152,16.846 -33.992,16.852C-33.832,16.857 -33.688,16.86 -33.56,16.86C-33.357,16.86 -33.181,16.852 -33.032,16.836C-32.882,16.82 -32.752,16.793 -32.64,16.756C-32.528,16.718 -32.424,16.673 -32.328,16.62C-32.232,16.566 -32.136,16.497 -32.04,16.412C-31.858,16.273 -31.69,16.049 -31.536,15.74C-31.381,15.43 -31.304,15.004 -31.304,14.46C-31.304,14.076 -31.357,13.737 -31.464,13.444C-31.57,13.15 -31.709,12.905 -31.88,12.708C-32.05,12.51 -32.245,12.364 -32.464,12.268C-32.682,12.172 -32.909,12.124 -33.144,12.124C-33.261,12.124 -33.405,12.14 -33.576,12.172C-33.746,12.204 -33.912,12.254 -34.072,12.324C-34.232,12.393 -34.378,12.489 -34.512,12.612C-34.645,12.734 -34.733,12.881 -34.776,13.052Z" style="fill-rule:nonzero;"/>
            <path d="M-24.392,20.812C-24.392,21.036 -24.386,21.252 -24.376,21.46C-24.365,21.668 -24.328,21.846 -24.264,21.996C-24.2,22.145 -24.104,22.265 -23.976,22.356C-23.848,22.446 -23.666,22.492 -23.432,22.492C-23.314,22.492 -23.181,22.478 -23.032,22.452C-22.882,22.425 -22.741,22.39 -22.608,22.348C-22.474,22.305 -22.357,22.262 -22.256,22.22C-22.154,22.177 -22.093,22.145 -22.072,22.124C-22.04,22.092 -22.018,22.092 -22.008,22.124C-21.997,22.156 -21.994,22.196 -22,22.244C-22.005,22.292 -22.018,22.34 -22.04,22.388C-22.061,22.436 -22.088,22.47 -22.12,22.492C-22.226,22.545 -22.413,22.641 -22.68,22.78C-22.946,22.918 -23.261,23.062 -23.624,23.212C-23.965,23.361 -24.298,23.486 -24.624,23.588C-24.949,23.689 -25.218,23.74 -25.432,23.74C-25.677,23.74 -25.869,23.665 -26.008,23.516C-26.146,23.366 -26.216,23.18 -26.216,22.956C-26.216,22.881 -26.213,22.817 -26.208,22.764C-26.202,22.71 -26.194,22.641 -26.184,22.556C-26.173,22.449 -26.154,22.254 -26.128,21.972C-26.101,21.689 -26.074,21.372 -26.048,21.02C-26.021,20.668 -25.997,20.313 -25.976,19.956C-25.954,19.598 -25.944,19.292 -25.944,19.036L-25.944,18.476C-25.944,18.198 -25.96,17.953 -25.992,17.74C-26.024,17.526 -26.077,17.361 -26.152,17.244C-26.205,17.169 -26.272,17.108 -26.352,17.06C-26.432,17.012 -26.53,16.988 -26.648,16.988C-26.712,16.988 -26.776,17.001 -26.84,17.028C-26.904,17.054 -26.952,17.068 -26.984,17.068C-27.005,17.068 -27.04,17.036 -27.088,16.972C-27.136,16.908 -27.133,16.86 -27.08,16.828C-27.005,16.774 -26.85,16.689 -26.616,16.572C-26.381,16.454 -26.125,16.326 -25.848,16.188C-25.549,16.038 -25.261,15.908 -24.984,15.796C-24.706,15.684 -24.509,15.628 -24.392,15.628C-24.274,15.628 -24.194,15.662 -24.152,15.732C-24.109,15.801 -24.088,15.878 -24.088,15.964L-24.088,16.028C-24.088,16.134 -24.104,16.305 -24.136,16.54C-24.168,16.774 -24.202,17.062 -24.24,17.404C-24.277,17.745 -24.312,18.14 -24.344,18.588C-24.376,19.036 -24.392,19.521 -24.392,20.044L-24.392,20.812ZM-25.032,12.492C-24.978,12.502 -24.89,12.561 -24.768,12.668C-24.645,12.774 -24.52,12.897 -24.392,13.036C-24.264,13.174 -24.152,13.308 -24.056,13.436C-23.96,13.564 -23.912,13.649 -23.912,13.692C-23.912,13.745 -23.976,13.825 -24.104,13.932C-24.232,14.038 -24.378,14.148 -24.544,14.26C-24.709,14.372 -24.869,14.47 -25.024,14.556C-25.178,14.641 -25.288,14.684 -25.352,14.684C-25.384,14.684 -25.461,14.633 -25.584,14.532C-25.706,14.43 -25.832,14.316 -25.96,14.188C-26.088,14.06 -26.202,13.934 -26.304,13.812C-26.405,13.689 -26.456,13.606 -26.456,13.564C-26.456,13.51 -26.386,13.428 -26.248,13.316C-26.109,13.204 -25.957,13.086 -25.792,12.964C-25.626,12.841 -25.466,12.734 -25.312,12.644C-25.157,12.553 -25.064,12.502 -25.032,12.492Z" style="fill-rule:nonzero;"/>
            <path d="M-14.984,21.372C-14.962,21.35 -14.944,21.353 -14.928,21.38C-14.912,21.406 -14.901,21.444 -14.896,21.492C-14.89,21.54 -14.893,21.59 -14.904,21.644C-14.914,21.697 -14.936,21.74 -14.968,21.772C-15.181,21.974 -15.448,22.188 -15.768,22.412C-16.088,22.636 -16.418,22.844 -16.76,23.036C-16.856,23.089 -16.989,23.158 -17.16,23.244C-17.33,23.329 -17.52,23.412 -17.728,23.492C-17.936,23.572 -18.149,23.641 -18.368,23.7C-18.586,23.758 -18.792,23.788 -18.984,23.788C-19.368,23.788 -19.73,23.713 -20.072,23.564C-20.413,23.414 -20.712,23.209 -20.968,22.948C-21.224,22.686 -21.424,22.374 -21.568,22.012C-21.712,21.649 -21.784,21.254 -21.784,20.828C-21.784,20.369 -21.72,19.937 -21.592,19.532C-21.464,19.126 -21.317,18.764 -21.152,18.444C-20.986,18.124 -20.829,17.854 -20.68,17.636C-20.53,17.417 -20.429,17.254 -20.376,17.148C-20.578,17.137 -20.762,17.129 -20.928,17.124C-21.093,17.118 -21.25,17.116 -21.4,17.116C-21.741,17.116 -22.029,17.118 -22.264,17.124C-22.498,17.129 -22.706,17.153 -22.888,17.196C-22.973,17.217 -23.053,17.26 -23.128,17.324C-23.202,17.388 -23.266,17.436 -23.32,17.468C-23.341,17.446 -23.37,17.417 -23.408,17.38C-23.445,17.342 -23.464,17.302 -23.464,17.26C-23.464,17.238 -23.458,17.222 -23.448,17.212C-23.448,17.201 -23.378,17.14 -23.24,17.028C-23.101,16.916 -22.928,16.782 -22.72,16.628C-22.512,16.473 -22.282,16.302 -22.032,16.116C-21.781,15.929 -21.541,15.756 -21.312,15.596C-21.082,15.436 -20.885,15.3 -20.72,15.188C-20.554,15.076 -20.445,15.009 -20.392,14.988C-20.328,14.966 -20.264,14.977 -20.2,15.02C-20.136,15.062 -20.114,15.094 -20.136,15.116C-20.168,15.137 -20.216,15.177 -20.28,15.236C-20.344,15.294 -20.365,15.345 -20.344,15.388C-20.226,15.484 -20.024,15.569 -19.736,15.644C-19.448,15.718 -19.122,15.78 -18.76,15.828C-18.397,15.876 -18.024,15.913 -17.64,15.94C-17.256,15.966 -16.909,15.98 -16.6,15.98C-16.141,15.98 -15.773,15.966 -15.496,15.94C-15.218,15.913 -14.989,15.878 -14.808,15.836C-14.637,15.793 -14.525,15.761 -14.472,15.74C-14.461,15.74 -14.44,15.756 -14.408,15.788C-14.376,15.82 -14.36,15.857 -14.36,15.9C-14.36,15.921 -14.437,15.974 -14.592,16.06C-14.746,16.145 -14.904,16.236 -15.064,16.332C-15.16,16.385 -15.274,16.454 -15.408,16.54C-15.541,16.625 -15.685,16.708 -15.84,16.788C-15.994,16.868 -16.157,16.94 -16.328,17.004C-16.498,17.068 -16.664,17.105 -16.824,17.116C-16.984,17.137 -17.17,17.153 -17.384,17.164C-17.597,17.174 -17.821,17.182 -18.056,17.188C-18.29,17.193 -18.528,17.198 -18.768,17.204C-19.008,17.209 -19.229,17.212 -19.432,17.212C-19.464,17.265 -19.514,17.353 -19.584,17.476C-19.653,17.598 -19.72,17.756 -19.784,17.948C-19.848,18.14 -19.906,18.358 -19.96,18.604C-20.013,18.849 -20.04,19.116 -20.04,19.404C-20.04,19.841 -19.973,20.244 -19.84,20.612C-19.706,20.98 -19.52,21.297 -19.28,21.564C-19.04,21.83 -18.754,22.038 -18.424,22.188C-18.093,22.337 -17.736,22.412 -17.352,22.412C-17.128,22.412 -16.912,22.385 -16.704,22.332C-16.496,22.278 -16.298,22.209 -16.112,22.124C-15.925,22.038 -15.752,21.945 -15.592,21.844C-15.432,21.742 -15.293,21.644 -15.176,21.548L-14.984,21.372Z" style="fill-rule:nonzero;"/>
            <path d="M-5.16,23.228C-4.573,23.228 -4.056,23.081 -3.608,22.788C-3.16,22.494 -2.784,22.105 -2.48,21.62C-2.176,21.134 -1.949,20.574 -1.8,19.94C-1.65,19.305 -1.576,18.641 -1.576,17.948C-1.576,17.105 -1.677,16.345 -1.88,15.668C-2.082,14.99 -2.357,14.417 -2.704,13.948C-3.05,13.478 -3.456,13.118 -3.92,12.868C-4.384,12.617 -4.872,12.492 -5.384,12.492C-5.97,12.492 -6.496,12.622 -6.96,12.884C-7.424,13.145 -7.818,13.505 -8.144,13.964C-8.469,14.422 -8.717,14.969 -8.888,15.604C-9.058,16.238 -9.144,16.929 -9.144,17.676C-9.144,18.625 -9.032,19.449 -8.808,20.148C-8.584,20.846 -8.288,21.422 -7.92,21.876C-7.552,22.329 -7.128,22.668 -6.648,22.892C-6.168,23.116 -5.672,23.228 -5.16,23.228ZM-5.592,23.82C-6.424,23.82 -7.2,23.697 -7.92,23.452C-8.64,23.206 -9.266,22.846 -9.8,22.372C-10.333,21.897 -10.754,21.318 -11.064,20.636C-11.373,19.953 -11.528,19.174 -11.528,18.3C-11.528,17.34 -11.346,16.47 -10.984,15.692C-10.621,14.913 -10.141,14.246 -9.544,13.692C-8.946,13.137 -8.264,12.708 -7.496,12.404C-6.728,12.1 -5.933,11.948 -5.112,11.948C-4.333,11.948 -3.586,12.062 -2.872,12.292C-2.157,12.521 -1.528,12.857 -0.984,13.3C-0.44,13.742 -0.008,14.292 0.312,14.948C0.632,15.604 0.792,16.353 0.792,17.196C0.792,17.996 0.632,18.79 0.312,19.58C-0.008,20.369 -0.45,21.078 -1.016,21.708C-1.581,22.337 -2.253,22.846 -3.032,23.236C-3.81,23.625 -4.664,23.82 -5.592,23.82Z" style="fill-rule:nonzero;"/>
            <path d="M1.448,16.988C1.363,16.966 1.323,16.924 1.328,16.86C1.334,16.796 1.374,16.758 1.448,16.748C1.48,16.737 1.582,16.7 1.752,16.636C1.923,16.572 2.128,16.497 2.368,16.412C2.608,16.326 2.859,16.236 3.12,16.14C3.382,16.044 3.614,15.964 3.816,15.9C3.944,15.857 4.032,15.828 4.08,15.812C4.128,15.796 4.168,15.788 4.2,15.788C4.232,15.788 4.27,15.801 4.312,15.828C4.355,15.854 4.366,15.894 4.344,15.948C4.312,16.033 4.278,16.236 4.24,16.556C4.203,16.876 4.168,17.23 4.136,17.62C4.104,18.009 4.075,18.396 4.048,18.78C4.022,19.164 4.008,19.468 4.008,19.692C4.008,20.545 4.19,21.204 4.552,21.668C4.915,22.132 5.48,22.364 6.248,22.364C6.643,22.364 6.971,22.284 7.232,22.124C7.494,21.964 7.694,21.777 7.832,21.564C7.928,21.425 7.992,21.121 8.024,20.652C8.024,20.566 8.027,20.454 8.032,20.316C8.038,20.177 8.043,20.03 8.048,19.876C8.054,19.721 8.059,19.572 8.064,19.428C8.07,19.284 8.072,19.164 8.072,19.068C8.083,18.577 8.07,18.121 8.032,17.7C7.995,17.278 7.939,16.966 7.864,16.764C7.832,16.636 7.768,16.572 7.672,16.572C7.608,16.572 7.547,16.574 7.488,16.58C7.43,16.585 7.395,16.54 7.384,16.444C7.384,16.412 7.416,16.377 7.48,16.34C7.544,16.302 7.667,16.246 7.848,16.172C8.019,16.108 8.208,16.044 8.416,15.98C8.624,15.916 8.83,15.862 9.032,15.82C9.235,15.777 9.416,15.748 9.576,15.732C9.736,15.716 9.854,15.724 9.928,15.756C9.928,15.766 9.936,15.78 9.952,15.796C9.968,15.812 9.982,15.846 9.992,15.9C10.014,15.964 10,16.164 9.952,16.5C9.904,16.836 9.854,17.382 9.8,18.14C9.758,18.662 9.72,19.169 9.688,19.66C9.656,20.15 9.64,20.524 9.64,20.78C9.64,21.281 9.734,21.678 9.92,21.972C10.107,22.265 10.339,22.412 10.616,22.412C10.798,22.412 10.971,22.374 11.136,22.3C11.302,22.225 11.422,22.161 11.496,22.108C11.582,22.108 11.627,22.145 11.632,22.22C11.638,22.294 11.619,22.342 11.576,22.364C11.416,22.47 11.195,22.604 10.912,22.764C10.63,22.924 10.336,23.076 10.032,23.22C9.728,23.364 9.438,23.486 9.16,23.588C8.883,23.689 8.659,23.74 8.488,23.74C8.403,23.74 8.326,23.684 8.256,23.572C8.187,23.46 8.131,23.324 8.088,23.164C8.046,23.004 8.014,22.838 7.992,22.668C7.971,22.497 7.96,22.348 7.96,22.22C7.736,22.38 7.48,22.548 7.192,22.724C6.904,22.9 6.606,23.065 6.296,23.22C5.987,23.374 5.68,23.5 5.376,23.596C5.072,23.692 4.792,23.74 4.536,23.74C3.886,23.74 3.352,23.566 2.936,23.22C2.52,22.873 2.312,22.422 2.312,21.868C2.312,21.75 2.323,21.574 2.344,21.34C2.366,21.105 2.392,20.838 2.424,20.54C2.456,20.241 2.483,19.921 2.504,19.58C2.526,19.238 2.536,18.908 2.536,18.588C2.536,18.097 2.459,17.721 2.304,17.46C2.15,17.198 1.95,17.052 1.704,17.02L1.448,16.988Z" style="fill-rule:nonzero;"/>
            <path d="M19.064,21.372C19.086,21.35 19.104,21.353 19.12,21.38C19.136,21.406 19.147,21.444 19.152,21.492C19.158,21.54 19.155,21.59 19.144,21.644C19.134,21.697 19.112,21.74 19.08,21.772C18.867,21.974 18.6,22.188 18.28,22.412C17.96,22.636 17.63,22.844 17.288,23.036C17.192,23.089 17.059,23.158 16.888,23.244C16.718,23.329 16.528,23.412 16.32,23.492C16.112,23.572 15.899,23.641 15.68,23.7C15.462,23.758 15.256,23.788 15.064,23.788C14.68,23.788 14.318,23.713 13.976,23.564C13.635,23.414 13.336,23.209 13.08,22.948C12.824,22.686 12.624,22.374 12.48,22.012C12.336,21.649 12.264,21.254 12.264,20.828C12.264,20.369 12.328,19.937 12.456,19.532C12.584,19.126 12.731,18.764 12.896,18.444C13.062,18.124 13.219,17.854 13.368,17.636C13.518,17.417 13.619,17.254 13.672,17.148C13.47,17.137 13.286,17.129 13.12,17.124C12.955,17.118 12.798,17.116 12.648,17.116C12.307,17.116 12.019,17.118 11.784,17.124C11.55,17.129 11.342,17.153 11.16,17.196C11.075,17.217 10.995,17.26 10.92,17.324C10.846,17.388 10.782,17.436 10.728,17.468C10.707,17.446 10.678,17.417 10.64,17.38C10.603,17.342 10.584,17.302 10.584,17.26C10.584,17.238 10.59,17.222 10.6,17.212C10.6,17.201 10.67,17.14 10.808,17.028C10.947,16.916 11.12,16.782 11.328,16.628C11.536,16.473 11.766,16.302 12.016,16.116C12.267,15.929 12.507,15.756 12.736,15.596C12.966,15.436 13.163,15.3 13.328,15.188C13.494,15.076 13.603,15.009 13.656,14.988C13.72,14.966 13.784,14.977 13.848,15.02C13.912,15.062 13.934,15.094 13.912,15.116C13.88,15.137 13.832,15.177 13.768,15.236C13.704,15.294 13.683,15.345 13.704,15.388C13.822,15.484 14.024,15.569 14.312,15.644C14.6,15.718 14.926,15.78 15.288,15.828C15.651,15.876 16.024,15.913 16.408,15.94C16.792,15.966 17.139,15.98 17.448,15.98C17.907,15.98 18.275,15.966 18.552,15.94C18.83,15.913 19.059,15.878 19.24,15.836C19.411,15.793 19.523,15.761 19.576,15.74C19.587,15.74 19.608,15.756 19.64,15.788C19.672,15.82 19.688,15.857 19.688,15.9C19.688,15.921 19.611,15.974 19.456,16.06C19.302,16.145 19.144,16.236 18.984,16.332C18.888,16.385 18.774,16.454 18.64,16.54C18.507,16.625 18.363,16.708 18.208,16.788C18.054,16.868 17.891,16.94 17.72,17.004C17.55,17.068 17.384,17.105 17.224,17.116C17.064,17.137 16.878,17.153 16.664,17.164C16.451,17.174 16.227,17.182 15.992,17.188C15.758,17.193 15.52,17.198 15.28,17.204C15.04,17.209 14.819,17.212 14.616,17.212C14.584,17.265 14.534,17.353 14.464,17.476C14.395,17.598 14.328,17.756 14.264,17.948C14.2,18.14 14.142,18.358 14.088,18.604C14.035,18.849 14.008,19.116 14.008,19.404C14.008,19.841 14.075,20.244 14.208,20.612C14.342,20.98 14.528,21.297 14.768,21.564C15.008,21.83 15.294,22.038 15.624,22.188C15.955,22.337 16.312,22.412 16.696,22.412C16.92,22.412 17.136,22.385 17.344,22.332C17.552,22.278 17.75,22.209 17.936,22.124C18.123,22.038 18.296,21.945 18.456,21.844C18.616,21.742 18.755,21.644 18.872,21.548L19.064,21.372Z" style="fill-rule:nonzero;"/>
        </g>
        <g transform="matrix(1,0,0,1,39.7355,-2.72712)">
            <text x="-39.144px" y="23.596px" style="font-family:'Luminari-Regular', 'Luminari';font-size:16px;">Bit Out</text>
        </g>
    </g>
</svg>
