<?xml version="1.0" encoding="UTF-8" standalone="no"?>
<!DOCTYPE svg PUBLIC "-//W3C//DTD SVG 1.1//EN" "http://www.w3.org/Graphics/SVG/1.1/DTD/svg11.dtd">
<svg width="100%" height="100%" viewBox="0 0 120 380" version="1.1" xmlns="http://www.w3.org/2000/svg" xmlns:xlink="http://www.w3.org/1999/xlink" xml:space="preserve" xmlns:serif="http://www.serif.com/" style="fill-rule:evenodd;clip-rule:evenodd;stroke-linecap:round;stroke-linejoin:round;stroke-miterlimit:1.5;">
    <g transform="matrix(0.718794,0,0,1.48634,-19.3959,-44.3619)">
        <rect x="26.984" y="29.846" width="166.946" height="255.662" style="fill:rgb(242,242,242);"/>
    </g>
    <g id="Label" transform="matrix(1,0,0,1,-12.2261,11.8096)">
        <g transform="matrix(1,0,0,1,58.164,339.27)">
            <g transform="matrix(0.8973,0,0,0.884326,9.28968,12.4373)">
                <circle cx="3.434" cy="5.159" r="2.172" style="stroke:black;stroke-width:0.94px;"/>
            </g>
            <g transform="matrix(0.8973,0,0,0.884326,4.54775,12.4373)">
                <circle cx="3.434" cy="5.159" r="2.172" style="fill:white;stroke:black;stroke-width:0.94px;"/>
            </g>
            <g transform="matrix(0.8973,0,0,0.884326,-0.194181,12.4373)">
                <circle cx="3.434" cy="5.159" r="2.172" style="stroke:black;stroke-width:0.94px;"/>
            </g>
            <g transform="matrix(0.8973,0,0,0.884326,14.0316,12.4373)">
                <circle cx="3.434" cy="5.159" r="2.172" style="stroke:black;stroke-width:0.94px;"/>
            </g>
            <g transform="matrix(0.8973,0,0,0.884326,9.28968,6.70878)">
                <circle cx="3.434" cy="5.159" r="2.172" style="fill:white;stroke:black;stroke-width:0.94px;"/>
            </g>
            <g transform="matrix(0.8973,0,0,0.884326,4.54775,6.70878)">
                <circle cx="3.434" cy="5.159" r="2.172" style="stroke:black;stroke-width:0.94px;"/>
            </g>
            <g transform="matrix(0.8973,0,0,0.884326,-0.194181,6.70878)">
                <circle cx="3.434" cy="5.159" r="2.172" style="stroke:black;stroke-width:0.94px;"/>
            </g>
            <g transform="matrix(0.8973,0,0,0.884326,14.0316,6.70878)">
                <circle cx="3.434" cy="5.159" r="2.172" style="fill:white;stroke:black;stroke-width:0.94px;"/>
            </g>
            <g transform="matrix(0.8973,0,0,0.884326,9.28968,0.980236)">
                <circle cx="3.434" cy="5.159" r="2.172" style="fill:white;stroke:black;stroke-width:0.94px;"/>
            </g>
            <g transform="matrix(0.8973,0,0,0.884326,4.54775,0.980236)">
                <circle cx="3.434" cy="5.159" r="2.172" style="fill:white;stroke:black;stroke-width:0.94px;"/>
            </g>
            <g transform="matrix(0.8973,0,0,0.884326,-0.194181,0.980236)">
                <circle cx="3.434" cy="5.159" r="2.172" style="stroke:black;stroke-width:0.94px;"/>
            </g>
            <g transform="matrix(0.8973,0,0,0.884326,14.0316,0.980236)">
                <circle cx="3.434" cy="5.159" r="2.172" style="stroke:black;stroke-width:0.94px;"/>
            </g>
        </g>
        <g transform="matrix(0.0195312,0,0,0.0221547,34.9714,337.813)">
            <g transform="matrix(1,0,0,1,-143.343,98.6554)">
                <ellipse cx="360.896" cy="293.762" rx="136.961" ry="230.443" style="fill:rgb(235,235,235);stroke:black;stroke-width:58.45px;"/>
            </g>
            <g transform="matrix(1,0,0,1,445.551,98.6554)">
                <ellipse cx="360.896" cy="293.762" rx="136.961" ry="230.443" style="fill:rgb(235,235,235);stroke:black;stroke-width:58.45px;"/>
            </g>
            <g transform="matrix(1,0,0,1,-34.3236,-20.6488)">
                <ellipse cx="546.324" cy="643.509" rx="431.408" ry="296.899" style="fill:rgb(235,235,235);stroke:black;stroke-width:58.45px;"/>
            </g>
            <circle cx="406.664" cy="569.758" r="105.336" style="fill:rgb(235,235,235);stroke:black;stroke-width:58.45px;"/>
            <g transform="matrix(1,0,0,1,210.672,0)">
                <circle cx="406.664" cy="569.758" r="105.336" style="fill:rgb(235,235,235);stroke:black;stroke-width:58.45px;"/>
            </g>
            <g transform="matrix(1,0,0,1,-53.1856,50.0357)">
                <ellipse cx="565.186" cy="671.455" rx="210.672" ry="98.631" style="fill:rgb(235,235,235);stroke:black;stroke-width:58.45px;"/>
            </g>
            <g transform="matrix(51.2,0,0,45.1371,0.670978,88.9676)">
                <path d="M12.057,13.791C12.057,13.668 11.958,13.568 11.835,13.568L8.139,13.568C8.016,13.568 7.916,13.668 7.916,13.791L7.916,14.236C7.916,14.359 8.016,14.458 8.139,14.458L11.835,14.458C11.958,14.458 12.057,14.359 12.057,14.236L12.057,13.791Z"/>
            </g>
        </g>
    </g>
    <g transform="matrix(0.75,0,0,1,-44.1572,137.758)">
        <g transform="matrix(0.948266,0,0,72.8139,45.6759,-21717.6)">
            <rect x="13.921" y="296.737" width="168.729" height="3.935" style="fill:rgb(191,191,191);"/>
        </g>
        <g transform="matrix(4.40445,0,0,0.695794,-654.457,112.334)">
            <rect x="161.957" y="57.989" width="36.327" height="2.261"/>
        </g>
        <g transform="matrix(4.40445,0,0,0.695794,-654.457,78.6945)">
            <rect x="161.957" y="57.989" width="36.327" height="2.261"/>
        </g>
        <g transform="matrix(4.40445,0,0,0.695794,-654.457,43.3266)">
            <rect x="161.957" y="57.989" width="36.327" height="2.261"/>
        </g>
        <g transform="matrix(4.40445,0,0,0.695794,-654.457,8.01938)">
            <rect x="161.957" y="57.989" width="36.327" height="2.261"/>
        </g>
        <g transform="matrix(4.40445,0,0,0.695794,-654.457,-25.4274)">
            <rect x="161.957" y="57.989" width="36.327" height="2.261"/>
        </g>
        <g transform="matrix(4.40445,0,0,0.695794,-654.457,-60.2029)">
            <rect x="161.957" y="57.989" width="36.327" height="2.261"/>
        </g>
        <g transform="matrix(4.40445,0,0,0.695794,-654.457,-94.5002)">
            <rect x="161.957" y="57.989" width="36.327" height="2.261"/>
        </g>
        <g transform="matrix(4.40445,0,0,0.695794,-654.457,-130.158)">
            <rect x="161.957" y="57.989" width="36.327" height="2.261"/>
        </g>
        <g id="Bit8" transform="matrix(1,0,0,1,-2.13163e-14,242.491)">
            <g id="Status5-light" serif:id="Status5#light" transform="matrix(1.33333,0,0,1,71.284,-424.884)">
                <circle cx="42.167" cy="335.861" r="3.82" style="fill:rgb(230,230,230);"/>
            </g>
            <g id="Status4-light" serif:id="Status4#light" transform="matrix(1.33333,0,0,1,58.7333,-424.884)">
                <circle cx="42.167" cy="335.861" r="3.82" style="fill:rgb(230,230,230);"/>
            </g>
            <g id="Status3-light" serif:id="Status3#light" transform="matrix(1.33333,0,0,1,46.1825,-424.884)">
                <circle cx="42.167" cy="335.861" r="3.82" style="fill:rgb(230,230,230);"/>
            </g>
            <g id="Status2-light" serif:id="Status2#light" transform="matrix(1.33333,0,0,1,33.6318,-424.884)">
                <circle cx="42.167" cy="335.861" r="3.82" style="fill:rgb(230,230,230);"/>
            </g>
            <g id="Status1-light" serif:id="Status1#light" transform="matrix(1.33333,0,0,1,21.081,-424.884)">
                <circle cx="42.167" cy="335.861" r="3.82" style="fill:rgb(230,230,230);"/>
            </g>
        </g>
        <g id="Bit7" transform="matrix(1,0,0,1,-0.00210626,208.852)">
            <g id="Status5-light1" serif:id="Status5#light" transform="matrix(1.33333,0,0,1,71.284,-424.884)">
                <circle cx="42.167" cy="335.861" r="3.82" style="fill:rgb(230,230,230);"/>
            </g>
            <g id="Status4-light1" serif:id="Status4#light" transform="matrix(1.33333,0,0,1,58.7333,-424.884)">
                <circle cx="42.167" cy="335.861" r="3.82" style="fill:rgb(230,230,230);"/>
            </g>
            <g id="Status3-light1" serif:id="Status3#light" transform="matrix(1.33333,0,0,1,46.1825,-424.884)">
                <circle cx="42.167" cy="335.861" r="3.82" style="fill:rgb(230,230,230);"/>
            </g>
            <g id="Status2-light1" serif:id="Status2#light" transform="matrix(1.33333,0,0,1,33.6318,-424.884)">
                <circle cx="42.167" cy="335.861" r="3.82" style="fill:rgb(230,230,230);"/>
            </g>
            <g id="Status1-light1" serif:id="Status1#light" transform="matrix(1.33333,0,0,1,21.081,-424.884)">
                <circle cx="42.167" cy="335.861" r="3.82" style="fill:rgb(230,230,230);"/>
            </g>
        </g>
        <g id="Bit6" transform="matrix(1,0,0,1,-0.00210626,173.484)">
            <g id="Status5-light2" serif:id="Status5#light" transform="matrix(1.33333,0,0,1,71.284,-424.884)">
                <circle cx="42.167" cy="335.861" r="3.82" style="fill:rgb(230,230,230);"/>
            </g>
            <g id="Status4-light2" serif:id="Status4#light" transform="matrix(1.33333,0,0,1,58.7333,-424.884)">
                <circle cx="42.167" cy="335.861" r="3.82" style="fill:rgb(230,230,230);"/>
            </g>
            <g id="Status3-light2" serif:id="Status3#light" transform="matrix(1.33333,0,0,1,46.1825,-424.884)">
                <circle cx="42.167" cy="335.861" r="3.82" style="fill:rgb(230,230,230);"/>
            </g>
            <g id="Status2-light2" serif:id="Status2#light" transform="matrix(1.33333,0,0,1,33.6318,-424.884)">
                <circle cx="42.167" cy="335.861" r="3.82" style="fill:rgb(230,230,230);"/>
            </g>
            <g id="Status1-light2" serif:id="Status1#light" transform="matrix(1.33333,0,0,1,21.081,-424.884)">
                <circle cx="42.167" cy="335.861" r="3.82" style="fill:rgb(230,230,230);"/>
            </g>
        </g>
        <g id="Bit5" transform="matrix(0.999958,0.0068834,-0.0122371,0.999958,-1.08613,137.468)">
            <g id="Status5-light3" serif:id="Status5#light" transform="matrix(1.33333,0,0,1,71.284,-424.884)">
                <circle cx="42.167" cy="335.861" r="3.82" style="fill:rgb(230,230,230);"/>
            </g>
            <g id="Status4-light3" serif:id="Status4#light" transform="matrix(1.33333,0,0,1,58.7333,-424.884)">
                <circle cx="42.167" cy="335.861" r="3.82" style="fill:rgb(230,230,230);"/>
            </g>
            <g id="Status3-light3" serif:id="Status3#light" transform="matrix(1.33333,0,0,1,46.1825,-424.884)">
                <circle cx="42.167" cy="335.861" r="3.82" style="fill:rgb(230,230,230);"/>
            </g>
            <g id="Status2-light3" serif:id="Status2#light" transform="matrix(1.33333,0,0,1,33.6318,-424.884)">
                <circle cx="42.167" cy="335.861" r="3.82" style="fill:rgb(230,230,230);"/>
            </g>
            <g id="Status1-light3" serif:id="Status1#light" transform="matrix(1.33333,0,0,1,21.081,-424.884)">
                <circle cx="42.167" cy="335.861" r="3.82" style="fill:rgb(230,230,230);"/>
            </g>
        </g>
        <g id="Bit4" transform="matrix(1,0,0,1,-5.68434e-14,104.73)">
            <g id="Status5-light4" serif:id="Status5#light" transform="matrix(1.33333,0,0,1,71.284,-424.884)">
                <circle cx="42.167" cy="335.861" r="3.82" style="fill:rgb(230,230,230);"/>
            </g>
            <g id="Status4-light4" serif:id="Status4#light" transform="matrix(1.33333,0,0,1,58.7333,-424.884)">
                <circle cx="42.167" cy="335.861" r="3.82" style="fill:rgb(230,230,230);"/>
            </g>
            <g id="Status3-light4" serif:id="Status3#light" transform="matrix(1.33333,0,0,1,46.1825,-424.884)">
                <circle cx="42.167" cy="335.861" r="3.82" style="fill:rgb(230,230,230);"/>
            </g>
            <g id="Status2-light4" serif:id="Status2#light" transform="matrix(1.33333,0,0,1,33.6318,-424.884)">
                <circle cx="42.167" cy="335.861" r="3.82" style="fill:rgb(230,230,230);"/>
            </g>
            <g id="Status1-light4" serif:id="Status1#light" transform="matrix(1.33333,0,0,1,21.081,-424.884)">
                <circle cx="42.167" cy="335.861" r="3.82" style="fill:rgb(230,230,230);"/>
            </g>
        </g>
        <g id="Bit3" transform="matrix(1,0,0,1,-3.55271e-14,69.9547)">
            <g id="Status5-light5" serif:id="Status5#light" transform="matrix(1.33333,0,0,1,71.284,-424.884)">
                <circle cx="42.167" cy="335.861" r="3.82" style="fill:rgb(230,230,230);"/>
            </g>
            <g id="Status4-light5" serif:id="Status4#light" transform="matrix(1.33333,0,0,1,58.7333,-424.884)">
                <circle cx="42.167" cy="335.861" r="3.82" style="fill:rgb(230,230,230);"/>
            </g>
            <g id="Status3-light5" serif:id="Status3#light" transform="matrix(1.33333,0,0,1,46.1825,-424.884)">
                <circle cx="42.167" cy="335.861" r="3.82" style="fill:rgb(230,230,230);"/>
            </g>
            <g id="Status2-light5" serif:id="Status2#light" transform="matrix(1.33333,0,0,1,33.6318,-424.884)">
                <circle cx="42.167" cy="335.861" r="3.82" style="fill:rgb(230,230,230);"/>
            </g>
            <g id="Status1-light5" serif:id="Status1#light" transform="matrix(1.33333,0,0,1,21.081,-424.884)">
                <circle cx="42.167" cy="335.861" r="3.82" style="fill:rgb(230,230,230);"/>
            </g>
        </g>
        <g id="Bit2" transform="matrix(1,0,0,1,-2.13163e-14,35.6575)">
            <g id="Status5-light6" serif:id="Status5#light" transform="matrix(1.33333,0,0,1,71.284,-424.884)">
                <circle cx="42.167" cy="335.861" r="3.82" style="fill:rgb(230,230,230);"/>
            </g>
            <g id="Status4-light6" serif:id="Status4#light" transform="matrix(1.33333,0,0,1,58.7333,-424.884)">
                <circle cx="42.167" cy="335.861" r="3.82" style="fill:rgb(230,230,230);"/>
            </g>
            <g id="Status3-light6" serif:id="Status3#light" transform="matrix(1.33333,0,0,1,46.1825,-424.884)">
                <circle cx="42.167" cy="335.861" r="3.82" style="fill:rgb(230,230,230);"/>
            </g>
            <g id="Status2-light6" serif:id="Status2#light" transform="matrix(1.33333,0,0,1,33.6318,-424.884)">
                <circle cx="42.167" cy="335.861" r="3.82" style="fill:rgb(230,230,230);"/>
            </g>
            <g id="Status1-light6" serif:id="Status1#light" transform="matrix(1.33333,0,0,1,21.081,-424.884)">
                <circle cx="42.167" cy="335.861" r="3.82" style="fill:rgb(230,230,230);"/>
            </g>
        </g>
        <g id="Bit1">
            <g id="Status5-light7" serif:id="Status5#light" transform="matrix(1.33333,0,0,1,71.284,-424.884)">
                <circle cx="42.167" cy="335.861" r="3.82" style="fill:rgb(230,230,230);"/>
            </g>
            <g id="Status4-light7" serif:id="Status4#light" transform="matrix(1.33333,0,0,1,58.7333,-424.884)">
                <circle cx="42.167" cy="335.861" r="3.82" style="fill:rgb(230,230,230);"/>
            </g>
            <g id="Status3-light7" serif:id="Status3#light" transform="matrix(1.33333,0,0,1,46.1825,-424.884)">
                <circle cx="42.167" cy="335.861" r="3.82" style="fill:rgb(230,230,230);"/>
            </g>
            <g id="Status2-light7" serif:id="Status2#light" transform="matrix(1.33333,0,0,1,33.6318,-424.884)">
                <circle cx="42.167" cy="335.861" r="3.82" style="fill:rgb(230,230,230);"/>
            </g>
            <g id="Status1-light7" serif:id="Status1#light" transform="matrix(1.33333,0,0,1,21.081,-424.884)">
                <circle cx="42.167" cy="335.861" r="3.82" style="fill:rgb(230,230,230);"/>
            </g>
        </g>
    </g>
    <g id="BusIn-light" serif:id="BusIn#light" transform="matrix(1,0,0,1,-27.8135,10.8256)">
        <circle cx="42.167" cy="335.861" r="3.82" style="fill:rgb(230,230,230);"/>
    </g>
    <g id="BusOut-light" serif:id="BusOut#light" transform="matrix(1,0,0,1,33.1865,10.8256)">
        <circle cx="42.167" cy="335.861" r="3.82" style="fill:rgb(230,230,230);"/>
    </g>
    <g transform="matrix(1,0,0,1,4.42195,26.5989)">
        <g transform="matrix(0.237749,0,0,50.0423,62.1533,-14804.5)">
            <rect x="13.921" y="296.737" width="168.729" height="3.935" style="fill:rgb(242,242,242);"/>
        </g>
        <g transform="matrix(1,0,0,1,0.520487,98.7519)">
            <g id="FlipSample-latch" serif:id="FlipSample#latch" transform="matrix(0.174892,0,0,0.175002,61.402,86.7121)">
                <rect x="53.94" y="106.916" width="161.978" height="161.978" style="fill:rgb(242,242,242);"/>
            </g>
            <g id="GateSample-input" serif:id="GateSample#input" transform="matrix(0.174892,0,0,0.175002,61.402,50.9114)">
                <rect x="53.94" y="106.916" width="161.978" height="161.978" style="fill:rgb(217,217,217);"/>
            </g>
            <g transform="matrix(1,0,0,1,87.6198,-82.714)">
                <path d="M-9.859,139.177L-10.879,139.177L-10.879,138.947C-10.879,138.714 -10.934,138.512 -11.044,138.342C-11.154,138.172 -11.339,138.087 -11.599,138.087C-11.739,138.087 -11.853,138.114 -11.939,138.167C-12.026,138.22 -12.096,138.287 -12.149,138.367C-12.203,138.454 -12.239,138.552 -12.259,138.662C-12.279,138.772 -12.289,138.887 -12.289,139.007C-12.289,139.147 -12.284,139.264 -12.274,139.357C-12.264,139.45 -12.239,139.534 -12.199,139.607C-12.159,139.68 -12.101,139.744 -12.024,139.797C-11.948,139.85 -11.843,139.904 -11.709,139.957L-10.929,140.267C-10.703,140.354 -10.519,140.455 -10.379,140.572C-10.239,140.689 -10.129,140.824 -10.049,140.977C-9.976,141.137 -9.926,141.319 -9.899,141.522C-9.873,141.725 -9.859,141.957 -9.859,142.217C-9.859,142.517 -9.889,142.795 -9.949,143.052C-10.009,143.309 -10.106,143.527 -10.239,143.707C-10.379,143.894 -10.563,144.04 -10.789,144.147C-11.016,144.254 -11.293,144.307 -11.619,144.307C-11.866,144.307 -12.096,144.264 -12.309,144.177C-12.523,144.09 -12.706,143.97 -12.859,143.817C-13.013,143.664 -13.134,143.485 -13.224,143.282C-13.314,143.079 -13.359,142.857 -13.359,142.617L-13.359,142.237L-12.339,142.237L-12.339,142.557C-12.339,142.744 -12.284,142.912 -12.174,143.062C-12.064,143.212 -11.879,143.287 -11.619,143.287C-11.446,143.287 -11.311,143.262 -11.214,143.212C-11.118,143.162 -11.043,143.09 -10.989,142.997C-10.936,142.904 -10.904,142.792 -10.894,142.662C-10.884,142.532 -10.879,142.387 -10.879,142.227C-10.879,142.04 -10.886,141.887 -10.899,141.767C-10.913,141.647 -10.939,141.55 -10.979,141.477C-11.026,141.404 -11.088,141.344 -11.164,141.297C-11.241,141.25 -11.343,141.2 -11.469,141.147L-12.199,140.847C-12.639,140.667 -12.934,140.429 -13.084,140.132C-13.234,139.835 -13.309,139.464 -13.309,139.017C-13.309,138.75 -13.273,138.497 -13.199,138.257C-13.126,138.017 -13.016,137.81 -12.869,137.637C-12.729,137.464 -12.551,137.325 -12.334,137.222C-12.118,137.119 -11.859,137.067 -11.559,137.067C-11.306,137.067 -11.074,137.114 -10.864,137.207C-10.654,137.3 -10.473,137.424 -10.319,137.577C-10.013,137.897 -9.859,138.264 -9.859,138.677L-9.859,139.177Z" style="fill-rule:nonzero;"/>
                <path d="M-7.229,144.247L-7.229,143.727L-7.249,143.727C-7.383,143.914 -7.518,144.057 -7.654,144.157C-7.791,144.257 -7.983,144.307 -8.229,144.307C-8.349,144.307 -8.471,144.289 -8.594,144.252C-8.718,144.215 -8.836,144.147 -8.949,144.047C-9.063,143.954 -9.154,143.819 -9.224,143.642C-9.294,143.465 -9.329,143.237 -9.329,142.957C-9.329,142.67 -9.306,142.419 -9.259,142.202C-9.213,141.985 -9.126,141.804 -8.999,141.657C-8.879,141.517 -8.716,141.412 -8.509,141.342C-8.303,141.272 -8.039,141.237 -7.719,141.237L-7.609,141.237C-7.569,141.237 -7.533,141.24 -7.499,141.247C-7.466,141.254 -7.426,141.257 -7.379,141.257C-7.333,141.257 -7.283,141.26 -7.229,141.267L-7.229,140.737C-7.229,140.564 -7.266,140.42 -7.339,140.307C-7.413,140.194 -7.546,140.137 -7.739,140.137C-7.873,140.137 -7.994,140.18 -8.104,140.267C-8.214,140.354 -8.286,140.48 -8.319,140.647L-9.309,140.647C-9.283,140.194 -9.129,139.827 -8.849,139.547C-8.716,139.414 -8.556,139.309 -8.369,139.232C-8.183,139.155 -7.973,139.117 -7.739,139.117C-7.526,139.117 -7.326,139.15 -7.139,139.217C-6.953,139.284 -6.789,139.384 -6.649,139.517C-6.516,139.65 -6.409,139.817 -6.329,140.017C-6.249,140.217 -6.209,140.45 -6.209,140.717L-6.209,144.247L-7.229,144.247ZM-7.229,142.067C-7.343,142.047 -7.436,142.037 -7.509,142.037C-7.729,142.037 -7.918,142.089 -8.074,142.192C-8.231,142.295 -8.309,142.484 -8.309,142.757C-8.309,142.95 -8.263,143.107 -8.169,143.227C-8.076,143.347 -7.946,143.407 -7.779,143.407C-7.606,143.407 -7.471,143.35 -7.374,143.237C-7.278,143.124 -7.229,142.964 -7.229,142.757L-7.229,142.067Z" style="fill-rule:nonzero;"/>
                <path d="M-5.459,144.247L-5.459,139.177L-4.439,139.177L-4.439,139.667L-4.419,139.667C-4.313,139.507 -4.184,139.375 -4.034,139.272C-3.884,139.169 -3.693,139.117 -3.459,139.117C-3.239,139.117 -3.056,139.17 -2.909,139.277C-2.763,139.384 -2.643,139.5 -2.549,139.627C-2.423,139.487 -2.283,139.367 -2.129,139.267C-1.976,139.167 -1.763,139.117 -1.489,139.117C-1.363,139.117 -1.233,139.139 -1.099,139.182C-0.966,139.225 -0.846,139.297 -0.739,139.397C-0.633,139.497 -0.546,139.625 -0.479,139.782C-0.413,139.939 -0.379,140.13 -0.379,140.357L-0.379,144.247L-1.399,144.247L-1.399,140.737C-1.399,140.55 -1.443,140.404 -1.529,140.297C-1.616,140.19 -1.739,140.137 -1.899,140.137C-2.093,140.137 -2.226,140.197 -2.299,140.317C-2.373,140.437 -2.409,140.61 -2.409,140.837L-2.409,144.247L-3.429,144.247L-3.429,140.737C-3.429,140.55 -3.473,140.404 -3.559,140.297C-3.646,140.19 -3.769,140.137 -3.929,140.137C-4.123,140.137 -4.256,140.197 -4.329,140.317C-4.403,140.437 -4.439,140.61 -4.439,140.837L-4.439,144.247L-5.459,144.247Z" style="fill-rule:nonzero;"/>
                <path d="M0.461,146.297L0.461,139.177L1.481,139.177L1.481,139.637C1.607,139.49 1.737,139.367 1.871,139.267C2.004,139.167 2.197,139.117 2.451,139.117C2.871,139.117 3.167,139.277 3.341,139.597C3.401,139.71 3.444,139.85 3.471,140.017C3.497,140.184 3.511,140.407 3.511,140.687L3.511,142.617C3.511,142.99 3.501,143.26 3.481,143.427C3.441,143.76 3.287,144.01 3.021,144.177C2.887,144.264 2.694,144.307 2.441,144.307C2.241,144.307 2.062,144.262 1.906,144.172C1.749,144.082 1.614,143.954 1.501,143.787L1.481,143.787L1.481,146.297L0.461,146.297ZM2.491,140.827C2.491,140.62 2.451,140.454 2.371,140.327C2.291,140.2 2.164,140.137 1.991,140.137C1.837,140.137 1.714,140.195 1.621,140.312C1.527,140.429 1.481,140.58 1.481,140.767L1.481,142.737C1.481,142.897 1.529,143.029 1.626,143.132C1.722,143.235 1.844,143.287 1.991,143.287C2.184,143.287 2.316,143.227 2.386,143.107C2.456,142.987 2.491,142.847 2.491,142.687L2.491,140.827Z" style="fill-rule:nonzero;"/>
                <path d="M4.291,137.127L5.311,137.127L5.311,142.817C5.311,143.01 5.346,143.142 5.416,143.212C5.486,143.282 5.617,143.327 5.811,143.347L5.811,144.307C5.577,144.307 5.367,144.289 5.181,144.252C4.994,144.215 4.834,144.144 4.701,144.037C4.567,143.937 4.466,143.795 4.396,143.612C4.326,143.429 4.291,143.187 4.291,142.887L4.291,137.127Z" style="fill-rule:nonzero;"/>
                <path d="M9.161,142.097L7.141,142.097L7.141,142.787C7.141,142.947 7.186,143.07 7.276,143.157C7.366,143.244 7.487,143.287 7.641,143.287C7.834,143.287 7.962,143.23 8.026,143.117C8.089,143.004 8.127,142.89 8.141,142.777L9.161,142.777C9.161,143.224 9.024,143.584 8.751,143.857C8.617,143.997 8.457,144.107 8.271,144.187C8.084,144.267 7.874,144.307 7.641,144.307C7.321,144.307 7.049,144.24 6.826,144.107C6.602,143.974 6.431,143.797 6.311,143.577C6.237,143.444 6.187,143.29 6.161,143.117C6.134,142.944 6.121,142.754 6.121,142.547L6.121,140.877C6.121,140.67 6.134,140.48 6.161,140.307C6.187,140.134 6.237,139.98 6.311,139.847C6.431,139.627 6.602,139.45 6.826,139.317C7.049,139.184 7.321,139.117 7.641,139.117C7.874,139.117 8.086,139.157 8.276,139.237C8.466,139.317 8.627,139.427 8.761,139.567C9.027,139.867 9.161,140.244 9.161,140.697L9.161,142.097ZM7.141,141.297L8.141,141.297L8.141,140.717C8.141,140.524 8.096,140.379 8.006,140.282C7.916,140.185 7.794,140.137 7.641,140.137C7.487,140.137 7.366,140.185 7.276,140.282C7.186,140.379 7.141,140.524 7.141,140.717L7.141,141.297Z" style="fill-rule:nonzero;"/>
            </g>
            <g transform="matrix(1,0,0,1,87.6198,-82.714)">
                <text x="-13.639px" y="144.247px" style="font-family:'DINCondensed-Bold', 'DIN Condensed';font-weight:700;font-stretch:condensed;font-size:10px;">Sample</text>
            </g>
        </g>
        <g transform="matrix(1,0,0,1,0.520487,0)">
            <g id="FlipFreeze-latch" serif:id="FlipFreeze#latch" transform="matrix(0.174892,0,0,0.175002,61.402,86.4739)">
                <rect x="53.94" y="106.916" width="161.978" height="161.978" style="fill:white;"/>
            </g>
            <g id="GateFreeze-input" serif:id="GateFreeze#input" transform="matrix(0.174892,0,0,0.175002,61.402,50.9114)">
                <rect x="53.94" y="106.916" width="161.978" height="161.978" style="fill:rgb(217,217,217);"/>
            </g>
            <g transform="matrix(1,0,0,1,88.3194,-82.7856)">
                <path d="M-13.159,144.247L-13.159,137.127L-10.119,137.127L-10.119,138.087L-12.139,138.087L-12.139,140.247L-10.379,140.247L-10.379,141.207L-12.139,141.207L-12.139,144.247L-13.159,144.247Z" style="fill-rule:nonzero;"/>
                <path d="M-9.699,144.247L-9.699,139.177L-8.679,139.177L-8.679,139.717C-8.473,139.53 -8.269,139.384 -8.069,139.277C-7.869,139.17 -7.623,139.117 -7.329,139.117L-7.329,140.197C-7.429,140.157 -7.533,140.137 -7.639,140.137C-7.746,140.137 -7.861,140.155 -7.984,140.192C-8.108,140.229 -8.219,140.29 -8.319,140.377C-8.426,140.464 -8.513,140.577 -8.579,140.717C-8.646,140.857 -8.679,141.03 -8.679,141.237L-8.679,144.247L-9.699,144.247Z" style="fill-rule:nonzero;"/>
                <path d="M-3.969,142.097L-5.989,142.097L-5.989,142.787C-5.989,142.947 -5.944,143.07 -5.854,143.157C-5.764,143.244 -5.643,143.287 -5.489,143.287C-5.296,143.287 -5.168,143.23 -5.104,143.117C-5.041,143.004 -5.003,142.89 -4.989,142.777L-3.969,142.777C-3.969,143.224 -4.106,143.584 -4.379,143.857C-4.513,143.997 -4.673,144.107 -4.859,144.187C-5.046,144.267 -5.256,144.307 -5.489,144.307C-5.809,144.307 -6.081,144.24 -6.304,144.107C-6.528,143.974 -6.699,143.797 -6.819,143.577C-6.893,143.444 -6.943,143.29 -6.969,143.117C-6.996,142.944 -7.009,142.754 -7.009,142.547L-7.009,140.877C-7.009,140.67 -6.996,140.48 -6.969,140.307C-6.943,140.134 -6.893,139.98 -6.819,139.847C-6.699,139.627 -6.528,139.45 -6.304,139.317C-6.081,139.184 -5.809,139.117 -5.489,139.117C-5.256,139.117 -5.044,139.157 -4.854,139.237C-4.664,139.317 -4.503,139.427 -4.369,139.567C-4.103,139.867 -3.969,140.244 -3.969,140.697L-3.969,142.097ZM-5.989,141.297L-4.989,141.297L-4.989,140.717C-4.989,140.524 -5.034,140.379 -5.124,140.282C-5.214,140.185 -5.336,140.137 -5.489,140.137C-5.643,140.137 -5.764,140.185 -5.854,140.282C-5.944,140.379 -5.989,140.524 -5.989,140.717L-5.989,141.297Z" style="fill-rule:nonzero;"/>
                <path d="M-0.269,142.097L-2.289,142.097L-2.289,142.787C-2.289,142.947 -2.244,143.07 -2.154,143.157C-2.064,143.244 -1.943,143.287 -1.789,143.287C-1.596,143.287 -1.468,143.23 -1.404,143.117C-1.341,143.004 -1.303,142.89 -1.289,142.777L-0.269,142.777C-0.269,143.224 -0.406,143.584 -0.679,143.857C-0.813,143.997 -0.973,144.107 -1.159,144.187C-1.346,144.267 -1.556,144.307 -1.789,144.307C-2.109,144.307 -2.381,144.24 -2.604,144.107C-2.828,143.974 -2.999,143.797 -3.119,143.577C-3.193,143.444 -3.243,143.29 -3.269,143.117C-3.296,142.944 -3.309,142.754 -3.309,142.547L-3.309,140.877C-3.309,140.67 -3.296,140.48 -3.269,140.307C-3.243,140.134 -3.193,139.98 -3.119,139.847C-2.999,139.627 -2.828,139.45 -2.604,139.317C-2.381,139.184 -2.109,139.117 -1.789,139.117C-1.556,139.117 -1.344,139.157 -1.154,139.237C-0.964,139.317 -0.803,139.427 -0.669,139.567C-0.403,139.867 -0.269,140.244 -0.269,140.697L-0.269,142.097ZM-2.289,141.297L-1.289,141.297L-1.289,140.717C-1.289,140.524 -1.334,140.379 -1.424,140.282C-1.514,140.185 -1.636,140.137 -1.789,140.137C-1.943,140.137 -2.064,140.185 -2.154,140.282C-2.244,140.379 -2.289,140.524 -2.289,140.717L-2.289,141.297Z" style="fill-rule:nonzero;"/>
                <path d="M0.231,144.247L0.231,143.437L1.881,140.077L0.361,140.077L0.361,139.177L3.041,139.177L3.041,139.987L1.391,143.287L3.041,143.287L3.041,144.247L0.231,144.247Z" style="fill-rule:nonzero;"/>
                <path d="M6.521,142.097L4.501,142.097L4.501,142.787C4.501,142.947 4.546,143.07 4.636,143.157C4.726,143.244 4.847,143.287 5.001,143.287C5.194,143.287 5.322,143.23 5.386,143.117C5.449,143.004 5.487,142.89 5.501,142.777L6.521,142.777C6.521,143.224 6.384,143.584 6.111,143.857C5.977,143.997 5.817,144.107 5.631,144.187C5.444,144.267 5.234,144.307 5.001,144.307C4.681,144.307 4.409,144.24 4.186,144.107C3.962,143.974 3.791,143.797 3.671,143.577C3.597,143.444 3.547,143.29 3.521,143.117C3.494,142.944 3.481,142.754 3.481,142.547L3.481,140.877C3.481,140.67 3.494,140.48 3.521,140.307C3.547,140.134 3.597,139.98 3.671,139.847C3.791,139.627 3.962,139.45 4.186,139.317C4.409,139.184 4.681,139.117 5.001,139.117C5.234,139.117 5.446,139.157 5.636,139.237C5.826,139.317 5.987,139.427 6.121,139.567C6.387,139.867 6.521,140.244 6.521,140.697L6.521,142.097ZM4.501,141.297L5.501,141.297L5.501,140.717C5.501,140.524 5.456,140.379 5.366,140.282C5.276,140.185 5.154,140.137 5.001,140.137C4.847,140.137 4.726,140.185 4.636,140.282C4.546,140.379 4.501,140.524 4.501,140.717L4.501,141.297Z" style="fill-rule:nonzero;"/>
            </g>
            <g transform="matrix(1,0,0,1,88.3194,-82.7856)">
                <text x="-13.639px" y="144.247px" style="font-family:'DINCondensed-Bold', 'DIN Condensed';font-weight:700;font-stretch:condensed;font-size:10px;">F<tspan x="-10.119px -7.339px " y="144.247px 144.247px ">re</tspan>eze</text>
            </g>
        </g>
    </g>
    <g transform="matrix(1,0,0,1,8.934,0.576)">
        <g transform="matrix(1,0,0,1,47.6875,-4.53575)">
            <path d="M-31.704,23.008C-31.656,23.2 -31.488,23.32 -31.2,23.368C-31.128,23.376 -31.092,23.416 -31.092,23.488C-31.092,23.528 -31.112,23.564 -31.152,23.596C-31.192,23.628 -31.244,23.644 -31.308,23.644C-31.428,23.644 -31.588,23.636 -31.788,23.62C-31.988,23.604 -32.272,23.596 -32.64,23.596C-32.936,23.596 -33.196,23.606 -33.42,23.626C-33.644,23.646 -33.78,23.66 -33.828,23.668C-33.868,23.668 -33.896,23.656 -33.912,23.632C-33.928,23.608 -33.936,23.58 -33.936,23.548C-33.936,23.516 -33.93,23.484 -33.918,23.452C-33.906,23.42 -33.888,23.404 -33.864,23.404C-33.808,23.396 -33.752,23.38 -33.696,23.356C-33.64,23.332 -33.588,23.3 -33.54,23.26C-33.516,23.236 -33.486,23.108 -33.45,22.876C-33.414,22.644 -33.382,22.338 -33.354,21.958C-33.326,21.578 -33.302,21.14 -33.282,20.644C-33.262,20.148 -33.252,19.624 -33.252,19.072L-33.252,17.776C-33.252,17.376 -33.272,17.052 -33.312,16.804C-33.384,16.276 -33.552,15.87 -33.816,15.586C-34.08,15.302 -34.388,15.16 -34.74,15.16C-35.052,15.16 -35.36,15.246 -35.664,15.418C-35.968,15.59 -36.24,15.842 -36.48,16.174C-36.72,16.506 -36.914,16.918 -37.062,17.41C-37.21,17.902 -37.284,18.464 -37.284,19.096C-37.284,19.792 -37.206,20.398 -37.05,20.914C-36.894,21.43 -36.688,21.862 -36.432,22.21C-36.176,22.558 -35.882,22.818 -35.55,22.99C-35.218,23.162 -34.872,23.248 -34.512,23.248L-34.446,23.248C-34.418,23.248 -34.396,23.244 -34.38,23.236C-34.348,23.22 -34.328,23.22 -34.32,23.236C-34.312,23.252 -34.312,23.274 -34.32,23.302C-34.328,23.33 -34.338,23.358 -34.35,23.386C-34.362,23.414 -34.376,23.432 -34.392,23.44C-34.472,23.496 -34.584,23.546 -34.728,23.59C-34.872,23.634 -35.072,23.656 -35.328,23.656C-35.752,23.656 -36.174,23.558 -36.594,23.362C-37.014,23.166 -37.39,22.892 -37.722,22.54C-38.054,22.188 -38.322,21.762 -38.526,21.262C-38.73,20.762 -38.832,20.212 -38.832,19.612C-38.832,18.756 -38.708,18.024 -38.46,17.416C-38.212,16.808 -37.874,16.312 -37.446,15.928C-37.018,15.544 -36.522,15.262 -35.958,15.082C-35.394,14.902 -34.792,14.812 -34.152,14.812C-33.92,14.812 -33.708,14.836 -33.516,14.884C-33.324,14.932 -33.156,14.99 -33.012,15.058C-32.868,15.126 -32.75,15.192 -32.658,15.256C-32.566,15.32 -32.504,15.368 -32.472,15.4C-32.408,15.352 -32.278,15.294 -32.082,15.226C-31.886,15.158 -31.662,15.094 -31.41,15.034C-31.158,14.974 -30.896,14.922 -30.624,14.878C-30.352,14.834 -30.104,14.812 -29.88,14.812C-29.272,14.828 -28.738,14.928 -28.278,15.112C-27.818,15.296 -27.434,15.542 -27.126,15.85C-26.818,16.158 -26.586,16.514 -26.43,16.918C-26.274,17.322 -26.196,17.752 -26.196,18.208C-26.196,19.064 -26.31,19.826 -26.538,20.494C-26.766,21.162 -27.072,21.728 -27.456,22.192C-27.84,22.656 -28.284,23.01 -28.788,23.254C-29.292,23.498 -29.82,23.62 -30.372,23.62C-30.42,23.62 -30.452,23.602 -30.468,23.566C-30.484,23.53 -30.49,23.492 -30.486,23.452C-30.482,23.412 -30.468,23.378 -30.444,23.35C-30.42,23.322 -30.396,23.312 -30.372,23.32C-30.332,23.336 -30.3,23.344 -30.276,23.344L-30.18,23.344C-29.852,23.344 -29.544,23.232 -29.256,23.008C-28.968,22.784 -28.716,22.474 -28.5,22.078C-28.284,21.682 -28.114,21.214 -27.99,20.674C-27.866,20.134 -27.804,19.544 -27.804,18.904C-27.804,17.712 -27.986,16.784 -28.35,16.12C-28.714,15.456 -29.276,15.124 -30.036,15.124C-30.268,15.124 -30.484,15.172 -30.684,15.268C-30.884,15.364 -31.058,15.49 -31.206,15.646C-31.354,15.802 -31.474,15.98 -31.566,16.18C-31.658,16.38 -31.716,16.584 -31.74,16.792C-31.78,17.072 -31.804,17.52 -31.812,18.136C-31.82,18.752 -31.828,19.496 -31.836,20.368C-31.844,21.008 -31.838,21.566 -31.818,22.042C-31.798,22.518 -31.76,22.84 -31.704,23.008Z" style="fill-rule:nonzero;"/>
            <path d="M-20.004,22.192C-20.092,22.288 -20.228,22.42 -20.412,22.588C-20.596,22.756 -20.818,22.924 -21.078,23.092C-21.338,23.26 -21.628,23.404 -21.948,23.524C-22.268,23.644 -22.608,23.704 -22.968,23.704C-23.296,23.704 -23.616,23.654 -23.928,23.554C-24.24,23.454 -24.52,23.302 -24.768,23.098C-25.016,22.894 -25.214,22.634 -25.362,22.318C-25.51,22.002 -25.584,21.624 -25.584,21.184C-25.584,20.824 -25.56,20.514 -25.512,20.254C-25.464,19.994 -25.4,19.766 -25.32,19.57C-25.24,19.374 -25.15,19.206 -25.05,19.066C-24.95,18.926 -24.848,18.8 -24.744,18.688C-24.616,18.544 -24.46,18.408 -24.276,18.28C-24.092,18.152 -23.894,18.036 -23.682,17.932C-23.47,17.828 -23.246,17.746 -23.01,17.686C-22.774,17.626 -22.536,17.596 -22.296,17.596C-21.864,17.596 -21.526,17.668 -21.282,17.812C-21.038,17.956 -20.916,18.156 -20.916,18.412C-20.916,18.572 -20.964,18.72 -21.06,18.856C-20.98,18.832 -20.878,18.792 -20.754,18.736C-20.63,18.68 -20.504,18.622 -20.376,18.562C-20.248,18.502 -20.134,18.448 -20.034,18.4C-19.934,18.352 -19.868,18.316 -19.836,18.292C-19.82,18.276 -19.802,18.27 -19.782,18.274C-19.762,18.278 -19.752,18.292 -19.752,18.316C-19.752,18.42 -19.772,18.506 -19.812,18.574C-19.852,18.642 -19.9,18.696 -19.956,18.736C-20.084,18.816 -20.268,18.916 -20.508,19.036C-20.748,19.156 -21.014,19.282 -21.306,19.414C-21.598,19.546 -21.9,19.678 -22.212,19.81C-22.524,19.942 -22.818,20.068 -23.094,20.188C-23.37,20.308 -23.61,20.414 -23.814,20.506C-24.018,20.598 -24.156,20.664 -24.228,20.704C-24.228,20.976 -24.174,21.23 -24.066,21.466C-23.958,21.702 -23.808,21.908 -23.616,22.084C-23.424,22.26 -23.194,22.398 -22.926,22.498C-22.658,22.598 -22.364,22.648 -22.044,22.648C-21.756,22.648 -21.496,22.618 -21.264,22.558C-21.032,22.498 -20.836,22.43 -20.676,22.354C-20.516,22.278 -20.39,22.21 -20.298,22.15C-20.206,22.09 -20.156,22.06 -20.148,22.06C-20.116,22.06 -20.084,22.074 -20.052,22.102C-20.02,22.13 -20.004,22.16 -20.004,22.192ZM-24.228,20.356C-24.092,20.308 -23.938,20.25 -23.766,20.182C-23.594,20.114 -23.426,20.04 -23.262,19.96C-23.098,19.88 -22.948,19.804 -22.812,19.732C-22.676,19.66 -22.572,19.596 -22.5,19.54C-22.356,19.436 -22.284,19.26 -22.284,19.012C-22.284,18.916 -22.302,18.816 -22.338,18.712C-22.374,18.608 -22.428,18.514 -22.5,18.43C-22.572,18.346 -22.66,18.278 -22.764,18.226C-22.868,18.174 -22.984,18.148 -23.112,18.148C-23.224,18.148 -23.344,18.186 -23.472,18.262C-23.6,18.338 -23.72,18.462 -23.832,18.634C-23.944,18.806 -24.038,19.034 -24.114,19.318C-24.19,19.602 -24.228,19.948 -24.228,20.356Z" style="fill-rule:nonzero;"/>
            <path d="M-14.34,21.928C-14.324,21.912 -14.31,21.914 -14.298,21.934C-14.286,21.954 -14.278,21.982 -14.274,22.018C-14.27,22.054 -14.272,22.092 -14.28,22.132C-14.288,22.172 -14.304,22.204 -14.328,22.228C-14.488,22.38 -14.688,22.54 -14.928,22.708C-15.168,22.876 -15.416,23.032 -15.672,23.176C-15.744,23.216 -15.844,23.268 -15.972,23.332C-16.1,23.396 -16.242,23.458 -16.398,23.518C-16.554,23.578 -16.714,23.63 -16.878,23.674C-17.042,23.718 -17.196,23.74 -17.34,23.74C-17.628,23.74 -17.9,23.684 -18.156,23.572C-18.412,23.46 -18.636,23.306 -18.828,23.11C-19.02,22.914 -19.17,22.68 -19.278,22.408C-19.386,22.136 -19.44,21.84 -19.44,21.52C-19.44,21.176 -19.392,20.852 -19.296,20.548C-19.2,20.244 -19.09,19.972 -18.966,19.732C-18.842,19.492 -18.724,19.29 -18.612,19.126C-18.5,18.962 -18.424,18.84 -18.384,18.76C-18.536,18.752 -18.674,18.746 -18.798,18.742C-18.922,18.738 -19.04,18.736 -19.152,18.736C-19.408,18.736 -19.624,18.738 -19.8,18.742C-19.976,18.746 -20.132,18.764 -20.268,18.796C-20.332,18.812 -20.392,18.844 -20.448,18.892C-20.504,18.94 -20.552,18.976 -20.592,19C-20.608,18.984 -20.63,18.962 -20.658,18.934C-20.686,18.906 -20.7,18.876 -20.7,18.844C-20.7,18.828 -20.696,18.816 -20.688,18.808C-20.688,18.8 -20.636,18.754 -20.532,18.67C-20.428,18.586 -20.298,18.486 -20.142,18.37C-19.986,18.254 -19.814,18.126 -19.626,17.986C-19.438,17.846 -19.258,17.716 -19.086,17.596C-18.914,17.476 -18.766,17.374 -18.642,17.29C-18.518,17.206 -18.436,17.156 -18.396,17.14C-18.348,17.124 -18.3,17.132 -18.252,17.164C-18.204,17.196 -18.188,17.22 -18.204,17.236C-18.228,17.252 -18.264,17.282 -18.312,17.326C-18.36,17.37 -18.376,17.408 -18.36,17.44C-18.272,17.512 -18.12,17.576 -17.904,17.632C-17.688,17.688 -17.444,17.734 -17.172,17.77C-16.9,17.806 -16.62,17.834 -16.332,17.854C-16.044,17.874 -15.784,17.884 -15.552,17.884C-15.208,17.884 -14.932,17.874 -14.724,17.854C-14.516,17.834 -14.344,17.808 -14.208,17.776C-14.08,17.744 -13.996,17.72 -13.956,17.704C-13.948,17.704 -13.932,17.716 -13.908,17.74C-13.884,17.764 -13.872,17.792 -13.872,17.824C-13.872,17.84 -13.93,17.88 -14.046,17.944C-14.162,18.008 -14.28,18.076 -14.4,18.148C-14.472,18.188 -14.558,18.24 -14.658,18.304C-14.758,18.368 -14.866,18.43 -14.982,18.49C-15.098,18.55 -15.22,18.604 -15.348,18.652C-15.476,18.7 -15.6,18.728 -15.72,18.736C-15.84,18.752 -15.98,18.764 -16.14,18.772C-16.3,18.78 -16.468,18.786 -16.644,18.79C-16.82,18.794 -16.998,18.798 -17.178,18.802C-17.358,18.806 -17.524,18.808 -17.676,18.808C-17.7,18.848 -17.738,18.914 -17.79,19.006C-17.842,19.098 -17.892,19.216 -17.94,19.36C-17.988,19.504 -18.032,19.668 -18.072,19.852C-18.112,20.036 -18.132,20.236 -18.132,20.452C-18.132,20.78 -18.082,21.082 -17.982,21.358C-17.882,21.634 -17.742,21.872 -17.562,22.072C-17.382,22.272 -17.168,22.428 -16.92,22.54C-16.672,22.652 -16.404,22.708 -16.116,22.708C-15.948,22.708 -15.786,22.688 -15.63,22.648C-15.474,22.608 -15.326,22.556 -15.186,22.492C-15.046,22.428 -14.916,22.358 -14.796,22.282C-14.676,22.206 -14.572,22.132 -14.484,22.06L-14.34,21.928Z" style="fill-rule:nonzero;"/>
            <path d="M-8.808,22.192C-8.896,22.288 -9.032,22.42 -9.216,22.588C-9.4,22.756 -9.622,22.924 -9.882,23.092C-10.142,23.26 -10.432,23.404 -10.752,23.524C-11.072,23.644 -11.412,23.704 -11.772,23.704C-12.1,23.704 -12.42,23.654 -12.732,23.554C-13.044,23.454 -13.324,23.302 -13.572,23.098C-13.82,22.894 -14.018,22.634 -14.166,22.318C-14.314,22.002 -14.388,21.624 -14.388,21.184C-14.388,20.824 -14.364,20.514 -14.316,20.254C-14.268,19.994 -14.204,19.766 -14.124,19.57C-14.044,19.374 -13.954,19.206 -13.854,19.066C-13.754,18.926 -13.652,18.8 -13.548,18.688C-13.42,18.544 -13.264,18.408 -13.08,18.28C-12.896,18.152 -12.698,18.036 -12.486,17.932C-12.274,17.828 -12.05,17.746 -11.814,17.686C-11.578,17.626 -11.34,17.596 -11.1,17.596C-10.668,17.596 -10.33,17.668 -10.086,17.812C-9.842,17.956 -9.72,18.156 -9.72,18.412C-9.72,18.572 -9.768,18.72 -9.864,18.856C-9.784,18.832 -9.682,18.792 -9.558,18.736C-9.434,18.68 -9.308,18.622 -9.18,18.562C-9.052,18.502 -8.938,18.448 -8.838,18.4C-8.738,18.352 -8.672,18.316 -8.64,18.292C-8.624,18.276 -8.606,18.27 -8.586,18.274C-8.566,18.278 -8.556,18.292 -8.556,18.316C-8.556,18.42 -8.576,18.506 -8.616,18.574C-8.656,18.642 -8.704,18.696 -8.76,18.736C-8.888,18.816 -9.072,18.916 -9.312,19.036C-9.552,19.156 -9.818,19.282 -10.11,19.414C-10.402,19.546 -10.704,19.678 -11.016,19.81C-11.328,19.942 -11.622,20.068 -11.898,20.188C-12.174,20.308 -12.414,20.414 -12.618,20.506C-12.822,20.598 -12.96,20.664 -13.032,20.704C-13.032,20.976 -12.978,21.23 -12.87,21.466C-12.762,21.702 -12.612,21.908 -12.42,22.084C-12.228,22.26 -11.998,22.398 -11.73,22.498C-11.462,22.598 -11.168,22.648 -10.848,22.648C-10.56,22.648 -10.3,22.618 -10.068,22.558C-9.836,22.498 -9.64,22.43 -9.48,22.354C-9.32,22.278 -9.194,22.21 -9.102,22.15C-9.01,22.09 -8.96,22.06 -8.952,22.06C-8.92,22.06 -8.888,22.074 -8.856,22.102C-8.824,22.13 -8.808,22.16 -8.808,22.192ZM-13.032,20.356C-12.896,20.308 -12.742,20.25 -12.57,20.182C-12.398,20.114 -12.23,20.04 -12.066,19.96C-11.902,19.88 -11.752,19.804 -11.616,19.732C-11.48,19.66 -11.376,19.596 -11.304,19.54C-11.16,19.436 -11.088,19.26 -11.088,19.012C-11.088,18.916 -11.106,18.816 -11.142,18.712C-11.178,18.608 -11.232,18.514 -11.304,18.43C-11.376,18.346 -11.464,18.278 -11.568,18.226C-11.672,18.174 -11.788,18.148 -11.916,18.148C-12.028,18.148 -12.148,18.186 -12.276,18.262C-12.404,18.338 -12.524,18.462 -12.636,18.634C-12.748,18.806 -12.842,19.034 -12.918,19.318C-12.994,19.602 -13.032,19.948 -13.032,20.356Z" style="fill-rule:nonzero;"/>
            <path d="M-3.24,18.496C-3.328,18.568 -3.432,18.658 -3.552,18.766C-3.672,18.874 -3.798,18.978 -3.93,19.078C-4.062,19.178 -4.196,19.264 -4.332,19.336C-4.468,19.408 -4.6,19.444 -4.728,19.444C-4.84,19.444 -4.94,19.418 -5.028,19.366C-5.116,19.314 -5.198,19.258 -5.274,19.198C-5.35,19.138 -5.424,19.082 -5.496,19.03C-5.568,18.978 -5.644,18.952 -5.724,18.952C-5.94,18.952 -6.122,19.04 -6.27,19.216C-6.418,19.392 -6.538,19.616 -6.63,19.888C-6.722,20.16 -6.79,20.456 -6.834,20.776C-6.878,21.096 -6.9,21.404 -6.9,21.7C-6.9,21.948 -6.89,22.15 -6.87,22.306C-6.85,22.462 -6.82,22.586 -6.78,22.678C-6.74,22.77 -6.686,22.832 -6.618,22.864C-6.55,22.896 -6.468,22.912 -6.372,22.912C-6.268,22.912 -6.156,22.896 -6.036,22.864C-6.012,22.856 -5.994,22.872 -5.982,22.912C-5.97,22.952 -5.964,22.984 -5.964,23.008C-5.964,23.024 -5.976,23.042 -6,23.062C-6.024,23.082 -6.04,23.092 -6.048,23.092C-6.224,23.164 -6.404,23.242 -6.588,23.326C-6.772,23.41 -6.924,23.48 -7.044,23.536C-7.156,23.584 -7.29,23.636 -7.446,23.692C-7.602,23.748 -7.736,23.776 -7.848,23.776C-7.976,23.776 -8.082,23.756 -8.166,23.716C-8.25,23.676 -8.292,23.636 -8.292,23.596C-8.292,23.556 -8.282,23.52 -8.262,23.488C-8.242,23.456 -8.224,23.396 -8.208,23.308C-8.192,23.188 -8.174,23.046 -8.154,22.882C-8.134,22.718 -8.114,22.54 -8.094,22.348C-8.074,22.156 -8.058,21.958 -8.046,21.754C-8.034,21.55 -8.028,21.348 -8.028,21.148C-8.028,20.7 -8.042,20.32 -8.07,20.008C-8.098,19.696 -8.148,19.444 -8.22,19.252C-8.292,19.06 -8.39,18.922 -8.514,18.838C-8.638,18.754 -8.796,18.712 -8.988,18.712L-9.096,18.712C-9.128,18.712 -9.16,18.716 -9.192,18.724C-9.24,18.724 -9.264,18.7 -9.264,18.652C-9.264,18.604 -9.24,18.568 -9.192,18.544C-9.104,18.488 -8.968,18.406 -8.784,18.298C-8.6,18.19 -8.41,18.086 -8.214,17.986C-8.018,17.886 -7.828,17.796 -7.644,17.716C-7.46,17.636 -7.324,17.596 -7.236,17.596C-7.132,17.596 -7.044,17.63 -6.972,17.698C-6.9,17.766 -6.846,17.852 -6.81,17.956C-6.774,18.06 -6.748,18.178 -6.732,18.31C-6.716,18.442 -6.708,18.572 -6.708,18.7C-6.708,18.796 -6.71,18.896 -6.714,19C-6.718,19.104 -6.72,19.216 -6.72,19.336C-6.36,18.808 -6.036,18.398 -5.748,18.106C-5.46,17.814 -5.188,17.668 -4.932,17.668C-4.836,17.668 -4.742,17.708 -4.65,17.788C-4.558,17.868 -4.46,17.958 -4.356,18.058C-4.252,18.158 -4.144,18.248 -4.032,18.328C-3.92,18.408 -3.804,18.448 -3.684,18.448C-3.58,18.448 -3.504,18.436 -3.456,18.412C-3.408,18.388 -3.368,18.368 -3.336,18.352C-3.272,18.352 -3.24,18.396 -3.24,18.484L-3.24,18.496Z" style="fill-rule:nonzero;"/>
            <path d="M0.876,19.972C0.876,20.492 0.966,20.93 1.146,21.286C1.326,21.642 1.554,21.932 1.83,22.156C2.106,22.38 2.408,22.54 2.736,22.636C3.064,22.732 3.376,22.78 3.672,22.78C4.064,22.78 4.424,22.716 4.752,22.588C5.08,22.46 5.364,22.272 5.604,22.024C5.844,21.776 6.03,21.472 6.162,21.112C6.294,20.752 6.36,20.34 6.36,19.876C6.36,19.548 6.342,19.276 6.306,19.06C6.27,18.844 6.224,18.674 6.168,18.55C6.112,18.426 6.048,18.34 5.976,18.292C5.904,18.244 5.832,18.22 5.76,18.22C5.776,18.22 5.702,18.246 5.538,18.298C5.374,18.35 5.156,18.418 4.884,18.502C4.612,18.586 4.3,18.686 3.948,18.802C3.596,18.918 3.238,19.04 2.874,19.168C2.51,19.296 2.152,19.43 1.8,19.57C1.448,19.71 1.14,19.844 0.876,19.972ZM7.14,17.656C7.156,17.792 7.172,17.944 7.188,18.112C7.204,18.28 7.212,18.456 7.212,18.64C7.212,19.208 7.11,19.794 6.906,20.398C6.702,21.002 6.406,21.554 6.018,22.054C5.63,22.554 5.156,22.966 4.596,23.29C4.036,23.614 3.404,23.776 2.7,23.776C2.516,23.776 2.308,23.756 2.076,23.716C1.844,23.676 1.606,23.61 1.362,23.518C1.118,23.426 0.882,23.302 0.654,23.146C0.426,22.99 0.222,22.792 0.042,22.552C-0.138,22.312 -0.282,22.028 -0.39,21.7C-0.498,21.372 -0.552,20.988 -0.552,20.548C-0.552,19.668 -0.422,18.924 -0.162,18.316C0.098,17.708 0.418,17.216 0.798,16.84C1.178,16.464 1.578,16.192 1.998,16.024C2.418,15.856 2.788,15.772 3.108,15.772C3.78,15.772 4.274,15.898 4.59,16.15C4.906,16.402 5.064,16.776 5.064,17.272C5.064,17.376 5.044,17.476 5.004,17.572C4.964,17.668 4.916,17.754 4.86,17.83C4.804,17.906 4.744,17.976 4.68,18.04C4.616,18.104 4.564,18.16 4.524,18.208C4.572,18.184 4.678,18.142 4.842,18.082C5.006,18.022 5.182,17.96 5.37,17.896C5.558,17.832 5.734,17.77 5.898,17.71C6.062,17.65 6.168,17.612 6.216,17.596C6.36,17.548 6.542,17.48 6.762,17.392C6.982,17.304 7.216,17.206 7.464,17.098C7.712,16.99 7.964,16.874 8.22,16.75C8.476,16.626 8.712,16.504 8.928,16.384C8.92,16.6 8.872,16.768 8.784,16.888C8.696,17.008 8.574,17.11 8.418,17.194C8.262,17.278 8.076,17.352 7.86,17.416C7.644,17.48 7.404,17.56 7.14,17.656ZM3.384,18.52C3.464,18.448 3.53,18.344 3.582,18.208C3.634,18.072 3.66,17.952 3.66,17.848C3.66,17.568 3.62,17.334 3.54,17.146C3.46,16.958 3.354,16.806 3.222,16.69C3.09,16.574 2.94,16.492 2.772,16.444C2.604,16.396 2.432,16.372 2.256,16.372C2.136,16.372 1.996,16.434 1.836,16.558C1.676,16.682 1.524,16.874 1.38,17.134C1.236,17.394 1.114,17.728 1.014,18.136C0.914,18.544 0.864,19.032 0.864,19.6C1.064,19.552 1.284,19.486 1.524,19.402C1.764,19.318 2.002,19.228 2.238,19.132C2.474,19.036 2.694,18.934 2.898,18.826C3.102,18.718 3.264,18.616 3.384,18.52Z" style="fill-rule:nonzero;"/>
            <path d="M16.524,21.196C16.412,21.172 16.288,21.152 16.152,21.136C16.016,21.12 15.872,21.108 15.72,21.1C15.568,21.092 15.418,21.086 15.27,21.082C15.122,21.078 14.984,21.076 14.856,21.076L14.484,21.076C14.428,21.076 14.38,21.08 14.34,21.088C14.3,21.096 14.28,21.108 14.28,21.124C14.28,21.332 14.282,21.574 14.286,21.85C14.29,22.126 14.298,22.402 14.31,22.678C14.322,22.954 14.336,23.208 14.352,23.44C14.368,23.672 14.392,23.84 14.424,23.944C14.44,24.008 14.508,24.054 14.628,24.082C14.748,24.11 14.884,24.124 15.036,24.124C15.1,24.124 15.166,24.122 15.234,24.118C15.302,24.114 15.38,24.112 15.468,24.112C15.556,24.112 15.624,24.132 15.672,24.172C15.72,24.212 15.744,24.26 15.744,24.316C15.744,24.38 15.738,24.436 15.726,24.484C15.714,24.532 15.628,24.556 15.468,24.556C15.404,24.556 15.302,24.552 15.162,24.544C15.022,24.536 14.87,24.528 14.706,24.52C14.542,24.512 14.372,24.512 14.196,24.52C14.02,24.528 13.864,24.544 13.728,24.568C13.408,24.632 13.108,24.706 12.828,24.79C12.548,24.874 12.296,24.96 12.072,25.048C11.848,25.136 11.66,25.222 11.508,25.306C11.356,25.39 11.248,25.468 11.184,25.54C11.152,25.58 11.128,25.6 11.112,25.6L11.052,25.6C11.036,25.6 10.996,25.578 10.932,25.534C10.868,25.49 10.836,25.432 10.836,25.36C10.836,25.32 10.902,25.262 11.034,25.186C11.166,25.11 11.324,25.03 11.508,24.946C11.692,24.862 11.884,24.782 12.084,24.706C12.284,24.63 12.456,24.572 12.6,24.532C12.64,24.476 12.674,24.318 12.702,24.058C12.73,23.798 12.754,23.418 12.774,22.918C12.794,22.418 12.81,21.792 12.822,21.04C12.834,20.288 12.844,19.388 12.852,18.34C12.852,18.052 12.848,17.758 12.84,17.458C12.832,17.158 12.82,16.878 12.804,16.618C12.788,16.358 12.764,16.132 12.732,15.94C12.7,15.748 12.66,15.612 12.612,15.532C12.572,15.476 12.498,15.438 12.39,15.418C12.282,15.398 12.156,15.388 12.012,15.388L11.394,15.388C11.342,15.388 11.288,15.382 11.232,15.37C11.176,15.358 11.13,15.34 11.094,15.316C11.058,15.292 11.04,15.26 11.04,15.22C11.04,15.132 11.052,15.07 11.076,15.034C11.1,14.998 11.208,14.98 11.4,14.98C11.48,14.98 11.58,14.984 11.7,14.992C11.82,15 11.942,15.006 12.066,15.01C12.19,15.014 12.314,15.02 12.438,15.028C12.562,15.036 12.672,15.04 12.768,15.04C13.024,15.04 13.342,15.016 13.722,14.968C14.102,14.92 14.492,14.888 14.892,14.872C15.188,14.864 15.49,14.858 15.798,14.854C16.106,14.85 16.394,14.846 16.662,14.842C16.93,14.838 17.162,14.834 17.358,14.83C17.554,14.826 17.688,14.816 17.76,14.8C17.832,14.576 17.912,14.382 18,14.218C18.088,14.054 18.18,13.968 18.276,13.96C18.316,13.96 18.37,13.974 18.438,14.002C18.506,14.03 18.54,14.068 18.54,14.116C18.516,14.14 18.496,14.164 18.48,14.188C18.448,14.236 18.432,14.272 18.432,14.296C18.336,14.464 18.25,14.68 18.174,14.944C18.098,15.208 18.034,15.48 17.982,15.76C17.93,16.04 17.892,16.312 17.868,16.576C17.844,16.84 17.844,17.06 17.868,17.236C17.844,17.356 17.796,17.416 17.724,17.416C17.596,17.416 17.518,17.394 17.49,17.35C17.462,17.306 17.456,17.26 17.472,17.212C17.488,17.148 17.5,17.066 17.508,16.966C17.516,16.866 17.52,16.784 17.52,16.72C17.52,16.528 17.456,16.362 17.328,16.222C17.2,16.082 17.028,15.966 16.812,15.874C16.596,15.782 16.342,15.712 16.05,15.664C15.758,15.616 15.448,15.592 15.12,15.592C15.032,15.592 14.914,15.594 14.766,15.598C14.618,15.602 14.508,15.636 14.436,15.7C14.42,15.764 14.404,15.9 14.388,16.108C14.372,16.316 14.358,16.562 14.346,16.846C14.334,17.13 14.324,17.434 14.316,17.758C14.308,18.082 14.302,18.396 14.298,18.7C14.294,19.004 14.29,19.28 14.286,19.528C14.282,19.776 14.28,19.96 14.28,20.08C14.44,20.088 14.594,20.092 14.742,20.092L15.18,20.092C15.66,20.1 16.082,20.09 16.446,20.062C16.81,20.034 17.052,20 17.172,19.96C17.244,19.936 17.302,19.902 17.346,19.858C17.39,19.814 17.426,19.768 17.454,19.72C17.482,19.672 17.51,19.63 17.538,19.594C17.566,19.558 17.596,19.54 17.628,19.54C17.668,19.54 17.708,19.56 17.748,19.6C17.788,19.64 17.8,19.676 17.784,19.708C17.736,19.796 17.692,19.918 17.652,20.074C17.612,20.23 17.578,20.402 17.55,20.59C17.522,20.778 17.498,20.972 17.478,21.172C17.458,21.372 17.448,21.56 17.448,21.736C17.448,21.768 17.45,21.8 17.454,21.832C17.458,21.864 17.46,21.9 17.46,21.94C17.46,21.964 17.442,21.982 17.406,21.994C17.37,22.006 17.334,22.012 17.298,22.012C17.262,22.012 17.228,22.008 17.196,22C17.164,21.992 17.148,21.976 17.148,21.952C17.148,21.904 17.144,21.846 17.136,21.778C17.128,21.71 17.11,21.644 17.082,21.58C17.054,21.516 17.01,21.454 16.95,21.394C16.89,21.334 16.808,21.284 16.704,21.244L16.524,21.196Z" style="fill-rule:nonzero;"/>
            <path d="M24.252,18.496C24.164,18.568 24.06,18.658 23.94,18.766C23.82,18.874 23.694,18.978 23.562,19.078C23.43,19.178 23.296,19.264 23.16,19.336C23.024,19.408 22.892,19.444 22.764,19.444C22.652,19.444 22.552,19.418 22.464,19.366C22.376,19.314 22.294,19.258 22.218,19.198C22.142,19.138 22.068,19.082 21.996,19.03C21.924,18.978 21.848,18.952 21.768,18.952C21.552,18.952 21.37,19.04 21.222,19.216C21.074,19.392 20.954,19.616 20.862,19.888C20.77,20.16 20.702,20.456 20.658,20.776C20.614,21.096 20.592,21.404 20.592,21.7C20.592,21.948 20.602,22.15 20.622,22.306C20.642,22.462 20.672,22.586 20.712,22.678C20.752,22.77 20.806,22.832 20.874,22.864C20.942,22.896 21.024,22.912 21.12,22.912C21.224,22.912 21.336,22.896 21.456,22.864C21.48,22.856 21.498,22.872 21.51,22.912C21.522,22.952 21.528,22.984 21.528,23.008C21.528,23.024 21.516,23.042 21.492,23.062C21.468,23.082 21.452,23.092 21.444,23.092C21.268,23.164 21.088,23.242 20.904,23.326C20.72,23.41 20.568,23.48 20.448,23.536C20.336,23.584 20.202,23.636 20.046,23.692C19.89,23.748 19.756,23.776 19.644,23.776C19.516,23.776 19.41,23.756 19.326,23.716C19.242,23.676 19.2,23.636 19.2,23.596C19.2,23.556 19.21,23.52 19.23,23.488C19.25,23.456 19.268,23.396 19.284,23.308C19.3,23.188 19.318,23.046 19.338,22.882C19.358,22.718 19.378,22.54 19.398,22.348C19.418,22.156 19.434,21.958 19.446,21.754C19.458,21.55 19.464,21.348 19.464,21.148C19.464,20.7 19.45,20.32 19.422,20.008C19.394,19.696 19.344,19.444 19.272,19.252C19.2,19.06 19.102,18.922 18.978,18.838C18.854,18.754 18.696,18.712 18.504,18.712L18.396,18.712C18.364,18.712 18.332,18.716 18.3,18.724C18.252,18.724 18.228,18.7 18.228,18.652C18.228,18.604 18.252,18.568 18.3,18.544C18.388,18.488 18.524,18.406 18.708,18.298C18.892,18.19 19.082,18.086 19.278,17.986C19.474,17.886 19.664,17.796 19.848,17.716C20.032,17.636 20.168,17.596 20.256,17.596C20.36,17.596 20.448,17.63 20.52,17.698C20.592,17.766 20.646,17.852 20.682,17.956C20.718,18.06 20.744,18.178 20.76,18.31C20.776,18.442 20.784,18.572 20.784,18.7C20.784,18.796 20.782,18.896 20.778,19C20.774,19.104 20.772,19.216 20.772,19.336C21.132,18.808 21.456,18.398 21.744,18.106C22.032,17.814 22.304,17.668 22.56,17.668C22.656,17.668 22.75,17.708 22.842,17.788C22.934,17.868 23.032,17.958 23.136,18.058C23.24,18.158 23.348,18.248 23.46,18.328C23.572,18.408 23.688,18.448 23.808,18.448C23.912,18.448 23.988,18.436 24.036,18.412C24.084,18.388 24.124,18.368 24.156,18.352C24.22,18.352 24.252,18.396 24.252,18.484L24.252,18.496Z" style="fill-rule:nonzero;"/>
            <path d="M29.124,22.192C29.036,22.288 28.9,22.42 28.716,22.588C28.532,22.756 28.31,22.924 28.05,23.092C27.79,23.26 27.5,23.404 27.18,23.524C26.86,23.644 26.52,23.704 26.16,23.704C25.832,23.704 25.512,23.654 25.2,23.554C24.888,23.454 24.608,23.302 24.36,23.098C24.112,22.894 23.914,22.634 23.766,22.318C23.618,22.002 23.544,21.624 23.544,21.184C23.544,20.824 23.568,20.514 23.616,20.254C23.664,19.994 23.728,19.766 23.808,19.57C23.888,19.374 23.978,19.206 24.078,19.066C24.178,18.926 24.28,18.8 24.384,18.688C24.512,18.544 24.668,18.408 24.852,18.28C25.036,18.152 25.234,18.036 25.446,17.932C25.658,17.828 25.882,17.746 26.118,17.686C26.354,17.626 26.592,17.596 26.832,17.596C27.264,17.596 27.602,17.668 27.846,17.812C28.09,17.956 28.212,18.156 28.212,18.412C28.212,18.572 28.164,18.72 28.068,18.856C28.148,18.832 28.25,18.792 28.374,18.736C28.498,18.68 28.624,18.622 28.752,18.562C28.88,18.502 28.994,18.448 29.094,18.4C29.194,18.352 29.26,18.316 29.292,18.292C29.308,18.276 29.326,18.27 29.346,18.274C29.366,18.278 29.376,18.292 29.376,18.316C29.376,18.42 29.356,18.506 29.316,18.574C29.276,18.642 29.228,18.696 29.172,18.736C29.044,18.816 28.86,18.916 28.62,19.036C28.38,19.156 28.114,19.282 27.822,19.414C27.53,19.546 27.228,19.678 26.916,19.81C26.604,19.942 26.31,20.068 26.034,20.188C25.758,20.308 25.518,20.414 25.314,20.506C25.11,20.598 24.972,20.664 24.9,20.704C24.9,20.976 24.954,21.23 25.062,21.466C25.17,21.702 25.32,21.908 25.512,22.084C25.704,22.26 25.934,22.398 26.202,22.498C26.47,22.598 26.764,22.648 27.084,22.648C27.372,22.648 27.632,22.618 27.864,22.558C28.096,22.498 28.292,22.43 28.452,22.354C28.612,22.278 28.738,22.21 28.83,22.15C28.922,22.09 28.972,22.06 28.98,22.06C29.012,22.06 29.044,22.074 29.076,22.102C29.108,22.13 29.124,22.16 29.124,22.192ZM24.9,20.356C25.036,20.308 25.19,20.25 25.362,20.182C25.534,20.114 25.702,20.04 25.866,19.96C26.03,19.88 26.18,19.804 26.316,19.732C26.452,19.66 26.556,19.596 26.628,19.54C26.772,19.436 26.844,19.26 26.844,19.012C26.844,18.916 26.826,18.816 26.79,18.712C26.754,18.608 26.7,18.514 26.628,18.43C26.556,18.346 26.468,18.278 26.364,18.226C26.26,18.174 26.144,18.148 26.016,18.148C25.904,18.148 25.784,18.186 25.656,18.262C25.528,18.338 25.408,18.462 25.296,18.634C25.184,18.806 25.09,19.034 25.014,19.318C24.938,19.602 24.9,19.948 24.9,20.356Z" style="fill-rule:nonzero;"/>
            <path d="M34.692,22.192C34.604,22.288 34.468,22.42 34.284,22.588C34.1,22.756 33.878,22.924 33.618,23.092C33.358,23.26 33.068,23.404 32.748,23.524C32.428,23.644 32.088,23.704 31.728,23.704C31.4,23.704 31.08,23.654 30.768,23.554C30.456,23.454 30.176,23.302 29.928,23.098C29.68,22.894 29.482,22.634 29.334,22.318C29.186,22.002 29.112,21.624 29.112,21.184C29.112,20.824 29.136,20.514 29.184,20.254C29.232,19.994 29.296,19.766 29.376,19.57C29.456,19.374 29.546,19.206 29.646,19.066C29.746,18.926 29.848,18.8 29.952,18.688C30.08,18.544 30.236,18.408 30.42,18.28C30.604,18.152 30.802,18.036 31.014,17.932C31.226,17.828 31.45,17.746 31.686,17.686C31.922,17.626 32.16,17.596 32.4,17.596C32.832,17.596 33.17,17.668 33.414,17.812C33.658,17.956 33.78,18.156 33.78,18.412C33.78,18.572 33.732,18.72 33.636,18.856C33.716,18.832 33.818,18.792 33.942,18.736C34.066,18.68 34.192,18.622 34.32,18.562C34.448,18.502 34.562,18.448 34.662,18.4C34.762,18.352 34.828,18.316 34.86,18.292C34.876,18.276 34.894,18.27 34.914,18.274C34.934,18.278 34.944,18.292 34.944,18.316C34.944,18.42 34.924,18.506 34.884,18.574C34.844,18.642 34.796,18.696 34.74,18.736C34.612,18.816 34.428,18.916 34.188,19.036C33.948,19.156 33.682,19.282 33.39,19.414C33.098,19.546 32.796,19.678 32.484,19.81C32.172,19.942 31.878,20.068 31.602,20.188C31.326,20.308 31.086,20.414 30.882,20.506C30.678,20.598 30.54,20.664 30.468,20.704C30.468,20.976 30.522,21.23 30.63,21.466C30.738,21.702 30.888,21.908 31.08,22.084C31.272,22.26 31.502,22.398 31.77,22.498C32.038,22.598 32.332,22.648 32.652,22.648C32.94,22.648 33.2,22.618 33.432,22.558C33.664,22.498 33.86,22.43 34.02,22.354C34.18,22.278 34.306,22.21 34.398,22.15C34.49,22.09 34.54,22.06 34.548,22.06C34.58,22.06 34.612,22.074 34.644,22.102C34.676,22.13 34.692,22.16 34.692,22.192ZM30.468,20.356C30.604,20.308 30.758,20.25 30.93,20.182C31.102,20.114 31.27,20.04 31.434,19.96C31.598,19.88 31.748,19.804 31.884,19.732C32.02,19.66 32.124,19.596 32.196,19.54C32.34,19.436 32.412,19.26 32.412,19.012C32.412,18.916 32.394,18.816 32.358,18.712C32.322,18.608 32.268,18.514 32.196,18.43C32.124,18.346 32.036,18.278 31.932,18.226C31.828,18.174 31.712,18.148 31.584,18.148C31.472,18.148 31.352,18.186 31.224,18.262C31.096,18.338 30.976,18.462 30.864,18.634C30.752,18.806 30.658,19.034 30.582,19.318C30.506,19.602 30.468,19.948 30.468,20.356Z" style="fill-rule:nonzero;"/>
            <path d="M33.984,23.44C34.16,23.336 34.336,23.192 34.512,23.008C34.688,22.824 34.864,22.618 35.04,22.39C35.216,22.162 35.394,21.92 35.574,21.664C35.754,21.408 35.932,21.152 36.108,20.896C36.404,20.464 36.682,20.052 36.942,19.66C37.202,19.268 37.408,18.948 37.56,18.7L37.368,18.7C37.072,18.7 36.75,18.688 36.402,18.664C36.054,18.64 35.74,18.628 35.46,18.628C35.204,18.628 35.02,18.648 34.908,18.688C34.796,18.728 34.696,18.792 34.608,18.88C34.584,18.88 34.55,18.87 34.506,18.85C34.462,18.83 34.44,18.8 34.44,18.76C34.44,18.736 34.444,18.72 34.452,18.712C34.548,18.648 34.676,18.54 34.836,18.388C34.996,18.236 35.156,18.084 35.316,17.932C35.476,17.78 35.616,17.646 35.736,17.53C35.856,17.414 35.928,17.356 35.952,17.356C36.008,17.356 36.048,17.366 36.072,17.386C36.096,17.406 36.116,17.428 36.132,17.452C36.148,17.476 36.168,17.502 36.192,17.53C36.216,17.558 36.256,17.584 36.312,17.608C36.408,17.648 36.54,17.688 36.708,17.728C36.876,17.768 37.064,17.802 37.272,17.83C37.48,17.858 37.704,17.882 37.944,17.902C38.184,17.922 38.424,17.932 38.664,17.932C38.816,17.932 38.972,17.922 39.132,17.902C39.292,17.882 39.432,17.856 39.552,17.824C39.56,17.824 39.572,17.84 39.588,17.872C39.604,17.904 39.612,17.932 39.612,17.956C39.612,17.972 39.608,17.986 39.6,17.998C39.592,18.01 39.588,18.02 39.588,18.028C39.364,18.196 39.114,18.476 38.838,18.868C38.562,19.26 38.188,19.752 37.716,20.344C37.676,20.384 37.646,20.424 37.626,20.464C37.606,20.504 37.58,20.544 37.548,20.584C37.196,21.032 36.888,21.414 36.624,21.73C36.36,22.046 36.124,22.316 35.916,22.54C36.036,22.556 36.178,22.584 36.342,22.624C36.506,22.664 36.69,22.704 36.894,22.744C37.098,22.784 37.322,22.82 37.566,22.852C37.81,22.884 38.072,22.9 38.352,22.9C38.648,22.9 38.89,22.874 39.078,22.822C39.266,22.77 39.44,22.668 39.6,22.516C39.656,22.46 39.682,22.436 39.678,22.444C39.674,22.452 39.688,22.456 39.72,22.456C39.76,22.456 39.778,22.478 39.774,22.522C39.77,22.566 39.768,22.596 39.768,22.612C39.768,22.708 39.712,22.824 39.6,22.96C39.488,23.096 39.332,23.226 39.132,23.35C38.932,23.474 38.694,23.58 38.418,23.668C38.142,23.756 37.836,23.8 37.5,23.8C37.292,23.8 37.066,23.788 36.822,23.764C36.578,23.74 36.328,23.712 36.072,23.68C35.816,23.648 35.56,23.62 35.304,23.596C35.048,23.572 34.808,23.56 34.584,23.56C34.448,23.56 34.334,23.574 34.242,23.602C34.15,23.63 34.044,23.66 33.924,23.692C33.884,23.692 33.864,23.668 33.864,23.62C33.864,23.612 33.872,23.576 33.888,23.512L33.984,23.44Z" style="fill-rule:nonzero;"/>
            <path d="M45.336,22.192C45.248,22.288 45.112,22.42 44.928,22.588C44.744,22.756 44.522,22.924 44.262,23.092C44.002,23.26 43.712,23.404 43.392,23.524C43.072,23.644 42.732,23.704 42.372,23.704C42.044,23.704 41.724,23.654 41.412,23.554C41.1,23.454 40.82,23.302 40.572,23.098C40.324,22.894 40.126,22.634 39.978,22.318C39.83,22.002 39.756,21.624 39.756,21.184C39.756,20.824 39.78,20.514 39.828,20.254C39.876,19.994 39.94,19.766 40.02,19.57C40.1,19.374 40.19,19.206 40.29,19.066C40.39,18.926 40.492,18.8 40.596,18.688C40.724,18.544 40.88,18.408 41.064,18.28C41.248,18.152 41.446,18.036 41.658,17.932C41.87,17.828 42.094,17.746 42.33,17.686C42.566,17.626 42.804,17.596 43.044,17.596C43.476,17.596 43.814,17.668 44.058,17.812C44.302,17.956 44.424,18.156 44.424,18.412C44.424,18.572 44.376,18.72 44.28,18.856C44.36,18.832 44.462,18.792 44.586,18.736C44.71,18.68 44.836,18.622 44.964,18.562C45.092,18.502 45.206,18.448 45.306,18.4C45.406,18.352 45.472,18.316 45.504,18.292C45.52,18.276 45.538,18.27 45.558,18.274C45.578,18.278 45.588,18.292 45.588,18.316C45.588,18.42 45.568,18.506 45.528,18.574C45.488,18.642 45.44,18.696 45.384,18.736C45.256,18.816 45.072,18.916 44.832,19.036C44.592,19.156 44.326,19.282 44.034,19.414C43.742,19.546 43.44,19.678 43.128,19.81C42.816,19.942 42.522,20.068 42.246,20.188C41.97,20.308 41.73,20.414 41.526,20.506C41.322,20.598 41.184,20.664 41.112,20.704C41.112,20.976 41.166,21.23 41.274,21.466C41.382,21.702 41.532,21.908 41.724,22.084C41.916,22.26 42.146,22.398 42.414,22.498C42.682,22.598 42.976,22.648 43.296,22.648C43.584,22.648 43.844,22.618 44.076,22.558C44.308,22.498 44.504,22.43 44.664,22.354C44.824,22.278 44.95,22.21 45.042,22.15C45.134,22.09 45.184,22.06 45.192,22.06C45.224,22.06 45.256,22.074 45.288,22.102C45.32,22.13 45.336,22.16 45.336,22.192ZM41.112,20.356C41.248,20.308 41.402,20.25 41.574,20.182C41.746,20.114 41.914,20.04 42.078,19.96C42.242,19.88 42.392,19.804 42.528,19.732C42.664,19.66 42.768,19.596 42.84,19.54C42.984,19.436 43.056,19.26 43.056,19.012C43.056,18.916 43.038,18.816 43.002,18.712C42.966,18.608 42.912,18.514 42.84,18.43C42.768,18.346 42.68,18.278 42.576,18.226C42.472,18.174 42.356,18.148 42.228,18.148C42.116,18.148 41.996,18.186 41.868,18.262C41.74,18.338 41.62,18.462 41.508,18.634C41.396,18.806 41.302,19.034 41.226,19.318C41.15,19.602 41.112,19.948 41.112,20.356Z" style="fill-rule:nonzero;"/>
        </g>
        <g transform="matrix(1,0,0,1,47.6875,-4.53575)">
            <text x="-39.144px" y="23.596px" style="font-family:'Luminari-Regular', 'Luminari';font-size:12px;">Meter &amp; Fr<tspan x="23.196px 28.764px " y="23.596px 23.596px ">ee</tspan>ze</text>
        </g>
    </g>
</svg>
