<?xml version="1.0" encoding="UTF-8" standalone="no"?>
<!DOCTYPE svg PUBLIC "-//W3C//DTD SVG 1.1//EN" "http://www.w3.org/Graphics/SVG/1.1/DTD/svg11.dtd">
<svg width="100%" height="100%" viewBox="0 0 60 380" version="1.1" xmlns="http://www.w3.org/2000/svg" xmlns:xlink="http://www.w3.org/1999/xlink" xml:space="preserve" xmlns:serif="http://www.serif.com/" style="fill-rule:evenodd;clip-rule:evenodd;stroke-linecap:round;stroke-linejoin:round;stroke-miterlimit:1.5;">
    <g transform="matrix(0.359397,0,0,1.48634,-9.69795,-44.3619)">
        <rect x="26.984" y="29.846" width="166.946" height="255.662" style="fill:rgb(242,242,242);"/>
    </g>
    <g id="Label" transform="matrix(1,0,0,1,-27.2261,11.8096)">
        <g transform="matrix(1,0,0,1,58.164,339.27)">
            <g transform="matrix(0.8973,0,0,0.884326,9.28968,12.4373)">
                <circle cx="3.434" cy="5.159" r="2.172" style="stroke:black;stroke-width:0.94px;"/>
            </g>
            <g transform="matrix(0.8973,0,0,0.884326,4.54775,12.4373)">
                <circle cx="3.434" cy="5.159" r="2.172" style="fill:white;stroke:black;stroke-width:0.94px;"/>
            </g>
            <g transform="matrix(0.8973,0,0,0.884326,-0.194181,12.4373)">
                <circle cx="3.434" cy="5.159" r="2.172" style="stroke:black;stroke-width:0.94px;"/>
            </g>
            <g transform="matrix(0.8973,0,0,0.884326,14.0316,12.4373)">
                <circle cx="3.434" cy="5.159" r="2.172" style="stroke:black;stroke-width:0.94px;"/>
            </g>
            <g transform="matrix(0.8973,0,0,0.884326,9.28968,6.70878)">
                <circle cx="3.434" cy="5.159" r="2.172" style="fill:white;stroke:black;stroke-width:0.94px;"/>
            </g>
            <g transform="matrix(0.8973,0,0,0.884326,4.54775,6.70878)">
                <circle cx="3.434" cy="5.159" r="2.172" style="stroke:black;stroke-width:0.94px;"/>
            </g>
            <g transform="matrix(0.8973,0,0,0.884326,-0.194181,6.70878)">
                <circle cx="3.434" cy="5.159" r="2.172" style="stroke:black;stroke-width:0.94px;"/>
            </g>
            <g transform="matrix(0.8973,0,0,0.884326,14.0316,6.70878)">
                <circle cx="3.434" cy="5.159" r="2.172" style="fill:white;stroke:black;stroke-width:0.94px;"/>
            </g>
            <g transform="matrix(0.8973,0,0,0.884326,9.28968,0.980236)">
                <circle cx="3.434" cy="5.159" r="2.172" style="fill:white;stroke:black;stroke-width:0.94px;"/>
            </g>
            <g transform="matrix(0.8973,0,0,0.884326,4.54775,0.980236)">
                <circle cx="3.434" cy="5.159" r="2.172" style="fill:white;stroke:black;stroke-width:0.94px;"/>
            </g>
            <g transform="matrix(0.8973,0,0,0.884326,-0.194181,0.980236)">
                <circle cx="3.434" cy="5.159" r="2.172" style="stroke:black;stroke-width:0.94px;"/>
            </g>
            <g transform="matrix(0.8973,0,0,0.884326,14.0316,0.980236)">
                <circle cx="3.434" cy="5.159" r="2.172" style="stroke:black;stroke-width:0.94px;"/>
            </g>
        </g>
        <g transform="matrix(0.0195312,0,0,0.0221547,34.9714,337.813)">
            <g transform="matrix(1,0,0,1,-143.343,98.6554)">
                <ellipse cx="360.896" cy="293.762" rx="136.961" ry="230.443" style="fill:rgb(235,235,235);stroke:black;stroke-width:58.45px;"/>
            </g>
            <g transform="matrix(1,0,0,1,445.551,98.6554)">
                <ellipse cx="360.896" cy="293.762" rx="136.961" ry="230.443" style="fill:rgb(235,235,235);stroke:black;stroke-width:58.45px;"/>
            </g>
            <g transform="matrix(1,0,0,1,-34.3236,-20.6488)">
                <ellipse cx="546.324" cy="643.509" rx="431.408" ry="296.899" style="fill:rgb(235,235,235);stroke:black;stroke-width:58.45px;"/>
            </g>
            <circle cx="406.664" cy="569.758" r="105.336" style="fill:rgb(235,235,235);stroke:black;stroke-width:58.45px;"/>
            <g transform="matrix(1,0,0,1,210.672,0)">
                <circle cx="406.664" cy="569.758" r="105.336" style="fill:rgb(235,235,235);stroke:black;stroke-width:58.45px;"/>
            </g>
            <g transform="matrix(1,0,0,1,-53.1856,50.0357)">
                <ellipse cx="565.186" cy="671.455" rx="210.672" ry="98.631" style="fill:rgb(235,235,235);stroke:black;stroke-width:58.45px;"/>
            </g>
            <g transform="matrix(51.2,0,0,45.1371,0.670978,88.9676)">
                <path d="M12.057,13.791C12.057,13.668 11.958,13.568 11.835,13.568L8.139,13.568C8.016,13.568 7.916,13.668 7.916,13.791L7.916,14.236C7.916,14.359 8.016,14.458 8.139,14.458L11.835,14.458C11.958,14.458 12.057,14.359 12.057,14.236L12.057,13.791Z"/>
            </g>
        </g>
    </g>
    <g transform="matrix(1,0,0,1,-88.8763,137.758)">
        <g transform="matrix(0.3556,0,0,72.8139,83.9261,-21717.6)">
            <rect x="13.921" y="296.737" width="168.729" height="3.935" style="fill:rgb(191,191,191);"/>
        </g>
        <g transform="matrix(0.596074,0,0,0.695794,30.6841,111.795)">
            <rect x="161.957" y="57.989" width="36.327" height="2.261"/>
        </g>
        <g transform="matrix(0.596074,0,0,0.695794,30.6841,78.1562)">
            <rect x="161.957" y="57.989" width="36.327" height="2.261"/>
        </g>
        <g transform="matrix(0.596074,0,0,0.695794,30.6841,42.7882)">
            <rect x="161.957" y="57.989" width="36.327" height="2.261"/>
        </g>
        <g transform="matrix(0.596074,0,0,0.695794,30.6841,7.48107)">
            <rect x="161.957" y="57.989" width="36.327" height="2.261"/>
        </g>
        <g transform="matrix(0.596074,0,0,0.695794,30.6841,-25.9657)">
            <rect x="161.957" y="57.989" width="36.327" height="2.261"/>
        </g>
        <g transform="matrix(0.596074,0,0,0.695794,30.6841,-60.7413)">
            <rect x="161.957" y="57.989" width="36.327" height="2.261"/>
        </g>
        <g transform="matrix(0.596074,0,0,0.695794,30.6841,-95.0385)">
            <rect x="161.957" y="57.989" width="36.327" height="2.261"/>
        </g>
        <g transform="matrix(0.596074,0,0,0.695794,30.6841,-130.696)">
            <rect x="161.957" y="57.989" width="36.327" height="2.261"/>
        </g>
        <g id="BitIn8-input" serif:id="BitIn8#input" transform="matrix(0.175002,0,0,0.175002,89.4367,120.413)">
            <rect x="53.94" y="106.916" width="161.978" height="161.978" style="fill:rgb(230,230,230);"/>
        </g>
        <g id="BitIn7-input" serif:id="BitIn7#input" transform="matrix(0.175002,0,0,0.175002,89.4367,85.6614)">
            <rect x="53.94" y="106.916" width="161.978" height="161.978" style="fill:rgb(230,230,230);"/>
        </g>
        <g id="BitIn6-input" serif:id="BitIn6#input" transform="matrix(0.175002,0,0,0.175002,89.4367,16.1586)">
            <rect x="53.94" y="106.916" width="161.978" height="161.978" style="fill:rgb(230,230,230);"/>
        </g>
        <g id="BitIn5-input" serif:id="BitIn5#input" transform="matrix(0.175002,0,0,0.175002,89.4367,50.91)">
            <rect x="53.94" y="106.916" width="161.978" height="161.978" style="fill:rgb(230,230,230);"/>
        </g>
        <g id="BitIn4-input" serif:id="BitIn4#input" transform="matrix(0.175002,0,0,0.175002,89.4367,-18.5928)">
            <rect x="53.94" y="106.916" width="161.978" height="161.978" style="fill:rgb(230,230,230);"/>
        </g>
        <g id="BitIn3-input" serif:id="BitIn3#input" transform="matrix(0.175002,0,0,0.175002,89.4367,-53.3442)">
            <rect x="53.94" y="106.916" width="161.978" height="161.978" style="fill:rgb(230,230,230);"/>
        </g>
        <g id="BitIn2-input" serif:id="BitIn2#input" transform="matrix(0.175002,0,0,0.175002,89.4367,-88.0956)">
            <rect x="53.94" y="106.916" width="161.978" height="161.978" style="fill:rgb(230,230,230);"/>
        </g>
        <g id="BitIn1-input" serif:id="BitIn1#input" transform="matrix(0.175002,0,0,0.175002,89.4367,-122.847)">
            <rect x="53.94" y="106.916" width="161.978" height="161.978" style="fill:rgb(230,230,230);"/>
        </g>
    </g>
    <g id="BusOut-light" serif:id="BusOut#light" transform="matrix(1,0,0,1,3.18651,10.8256)">
        <circle cx="42.167" cy="335.861" r="3.82" style="fill:rgb(230,230,230);"/>
    </g>
    <g>
        <g transform="matrix(1,0,0,1,47.0022,-2.72712)">
            <path d="M-36.376,23.26C-36.621,23.398 -36.93,23.542 -37.304,23.692C-37.677,23.841 -38.066,23.916 -38.472,23.916C-38.717,23.916 -38.893,23.894 -39,23.852C-39.106,23.809 -39.16,23.724 -39.16,23.596C-39.16,23.553 -39.152,23.505 -39.136,23.452C-39.12,23.398 -39.101,23.353 -39.08,23.316C-39.058,23.278 -39.032,23.252 -39,23.236C-38.968,23.22 -38.936,23.233 -38.904,23.276C-38.84,23.361 -38.744,23.409 -38.616,23.42C-38.488,23.43 -38.349,23.436 -38.2,23.436C-37.976,23.425 -37.773,23.348 -37.592,23.204C-37.41,23.06 -37.277,22.865 -37.192,22.62C-37.149,22.47 -37.106,22.236 -37.064,21.916C-37.021,21.596 -36.986,21.212 -36.96,20.764C-36.933,20.316 -36.912,19.817 -36.896,19.268C-36.88,18.718 -36.872,18.14 -36.872,17.532C-36.872,16.145 -36.909,15.065 -36.984,14.292C-37.058,13.518 -37.154,13.073 -37.272,12.956C-37.357,12.892 -37.464,12.841 -37.592,12.804C-37.72,12.766 -37.85,12.742 -37.984,12.732C-38.117,12.721 -38.248,12.716 -38.376,12.716C-38.504,12.716 -38.605,12.721 -38.68,12.732C-38.754,12.742 -38.813,12.721 -38.856,12.668C-38.898,12.614 -38.92,12.561 -38.92,12.508C-38.92,12.316 -38.85,12.22 -38.712,12.22C-38.637,12.22 -38.504,12.228 -38.312,12.244C-38.12,12.26 -37.898,12.276 -37.648,12.292C-37.397,12.308 -37.133,12.321 -36.856,12.332C-36.578,12.342 -36.328,12.348 -36.104,12.348C-35.826,12.348 -35.568,12.305 -35.328,12.22C-35.088,12.134 -34.84,12.038 -34.584,11.932C-34.328,11.825 -34.048,11.729 -33.744,11.644C-33.44,11.558 -33.085,11.516 -32.68,11.516C-32.178,11.516 -31.709,11.558 -31.272,11.644C-30.834,11.729 -30.456,11.86 -30.136,12.036C-29.816,12.212 -29.562,12.438 -29.376,12.716C-29.189,12.993 -29.096,13.318 -29.096,13.692C-29.096,14.118 -29.186,14.505 -29.368,14.852C-29.549,15.198 -29.776,15.505 -30.048,15.772C-30.32,16.038 -30.608,16.265 -30.912,16.452C-31.216,16.638 -31.49,16.78 -31.736,16.876C-31.341,16.908 -30.909,16.974 -30.44,17.076C-29.97,17.177 -29.533,17.332 -29.128,17.54C-28.722,17.748 -28.384,18.022 -28.112,18.364C-27.84,18.705 -27.704,19.132 -27.704,19.644C-27.704,20.049 -27.786,20.436 -27.952,20.804C-28.117,21.172 -28.338,21.513 -28.616,21.828C-28.893,22.142 -29.21,22.43 -29.568,22.692C-29.925,22.953 -30.298,23.174 -30.688,23.356C-31.077,23.537 -31.472,23.678 -31.872,23.78C-32.272,23.881 -32.642,23.932 -32.984,23.932C-33.186,23.932 -33.44,23.913 -33.744,23.876C-34.048,23.838 -34.36,23.788 -34.68,23.724C-35,23.66 -35.312,23.588 -35.616,23.508C-35.92,23.428 -36.173,23.345 -36.376,23.26ZM-35,19.996C-34.989,20.55 -34.973,20.95 -34.952,21.196C-34.93,21.441 -34.909,21.628 -34.888,21.756C-34.856,21.937 -34.778,22.116 -34.656,22.292C-34.533,22.468 -34.373,22.63 -34.176,22.78C-33.978,22.929 -33.749,23.049 -33.488,23.14C-33.226,23.23 -32.936,23.276 -32.616,23.276C-32.274,23.276 -31.954,23.217 -31.656,23.1C-31.357,22.982 -31.098,22.798 -30.88,22.548C-30.661,22.297 -30.488,21.974 -30.36,21.58C-30.232,21.185 -30.168,20.71 -30.168,20.156C-30.168,19.654 -30.248,19.228 -30.408,18.876C-30.568,18.524 -30.794,18.238 -31.088,18.02C-31.381,17.801 -31.736,17.644 -32.152,17.548C-32.568,17.452 -33.032,17.404 -33.544,17.404C-33.842,17.404 -34.125,17.406 -34.392,17.412C-34.658,17.417 -34.856,17.425 -34.984,17.436C-34.994,17.553 -35,17.676 -35,17.804L-35,19.996ZM-34.776,13.052C-34.797,13.19 -34.818,13.382 -34.84,13.628C-34.861,13.873 -34.882,14.158 -34.904,14.484C-34.925,14.809 -34.944,15.161 -34.96,15.54C-34.976,15.918 -34.989,16.31 -35,16.716C-34.989,16.748 -34.93,16.772 -34.824,16.788C-34.717,16.804 -34.592,16.817 -34.448,16.828C-34.304,16.838 -34.152,16.846 -33.992,16.852C-33.832,16.857 -33.688,16.86 -33.56,16.86C-33.357,16.86 -33.181,16.852 -33.032,16.836C-32.882,16.82 -32.752,16.793 -32.64,16.756C-32.528,16.718 -32.424,16.673 -32.328,16.62C-32.232,16.566 -32.136,16.497 -32.04,16.412C-31.858,16.273 -31.69,16.049 -31.536,15.74C-31.381,15.43 -31.304,15.004 -31.304,14.46C-31.304,14.076 -31.357,13.737 -31.464,13.444C-31.57,13.15 -31.709,12.905 -31.88,12.708C-32.05,12.51 -32.245,12.364 -32.464,12.268C-32.682,12.172 -32.909,12.124 -33.144,12.124C-33.261,12.124 -33.405,12.14 -33.576,12.172C-33.746,12.204 -33.912,12.254 -34.072,12.324C-34.232,12.393 -34.378,12.489 -34.512,12.612C-34.645,12.734 -34.733,12.881 -34.776,13.052Z" style="fill-rule:nonzero;"/>
            <path d="M-24.392,20.812C-24.392,21.036 -24.386,21.252 -24.376,21.46C-24.365,21.668 -24.328,21.846 -24.264,21.996C-24.2,22.145 -24.104,22.265 -23.976,22.356C-23.848,22.446 -23.666,22.492 -23.432,22.492C-23.314,22.492 -23.181,22.478 -23.032,22.452C-22.882,22.425 -22.741,22.39 -22.608,22.348C-22.474,22.305 -22.357,22.262 -22.256,22.22C-22.154,22.177 -22.093,22.145 -22.072,22.124C-22.04,22.092 -22.018,22.092 -22.008,22.124C-21.997,22.156 -21.994,22.196 -22,22.244C-22.005,22.292 -22.018,22.34 -22.04,22.388C-22.061,22.436 -22.088,22.47 -22.12,22.492C-22.226,22.545 -22.413,22.641 -22.68,22.78C-22.946,22.918 -23.261,23.062 -23.624,23.212C-23.965,23.361 -24.298,23.486 -24.624,23.588C-24.949,23.689 -25.218,23.74 -25.432,23.74C-25.677,23.74 -25.869,23.665 -26.008,23.516C-26.146,23.366 -26.216,23.18 -26.216,22.956C-26.216,22.881 -26.213,22.817 -26.208,22.764C-26.202,22.71 -26.194,22.641 -26.184,22.556C-26.173,22.449 -26.154,22.254 -26.128,21.972C-26.101,21.689 -26.074,21.372 -26.048,21.02C-26.021,20.668 -25.997,20.313 -25.976,19.956C-25.954,19.598 -25.944,19.292 -25.944,19.036L-25.944,18.476C-25.944,18.198 -25.96,17.953 -25.992,17.74C-26.024,17.526 -26.077,17.361 -26.152,17.244C-26.205,17.169 -26.272,17.108 -26.352,17.06C-26.432,17.012 -26.53,16.988 -26.648,16.988C-26.712,16.988 -26.776,17.001 -26.84,17.028C-26.904,17.054 -26.952,17.068 -26.984,17.068C-27.005,17.068 -27.04,17.036 -27.088,16.972C-27.136,16.908 -27.133,16.86 -27.08,16.828C-27.005,16.774 -26.85,16.689 -26.616,16.572C-26.381,16.454 -26.125,16.326 -25.848,16.188C-25.549,16.038 -25.261,15.908 -24.984,15.796C-24.706,15.684 -24.509,15.628 -24.392,15.628C-24.274,15.628 -24.194,15.662 -24.152,15.732C-24.109,15.801 -24.088,15.878 -24.088,15.964L-24.088,16.028C-24.088,16.134 -24.104,16.305 -24.136,16.54C-24.168,16.774 -24.202,17.062 -24.24,17.404C-24.277,17.745 -24.312,18.14 -24.344,18.588C-24.376,19.036 -24.392,19.521 -24.392,20.044L-24.392,20.812ZM-25.032,12.492C-24.978,12.502 -24.89,12.561 -24.768,12.668C-24.645,12.774 -24.52,12.897 -24.392,13.036C-24.264,13.174 -24.152,13.308 -24.056,13.436C-23.96,13.564 -23.912,13.649 -23.912,13.692C-23.912,13.745 -23.976,13.825 -24.104,13.932C-24.232,14.038 -24.378,14.148 -24.544,14.26C-24.709,14.372 -24.869,14.47 -25.024,14.556C-25.178,14.641 -25.288,14.684 -25.352,14.684C-25.384,14.684 -25.461,14.633 -25.584,14.532C-25.706,14.43 -25.832,14.316 -25.96,14.188C-26.088,14.06 -26.202,13.934 -26.304,13.812C-26.405,13.689 -26.456,13.606 -26.456,13.564C-26.456,13.51 -26.386,13.428 -26.248,13.316C-26.109,13.204 -25.957,13.086 -25.792,12.964C-25.626,12.841 -25.466,12.734 -25.312,12.644C-25.157,12.553 -25.064,12.502 -25.032,12.492Z" style="fill-rule:nonzero;"/>
            <path d="M-14.984,21.372C-14.962,21.35 -14.944,21.353 -14.928,21.38C-14.912,21.406 -14.901,21.444 -14.896,21.492C-14.89,21.54 -14.893,21.59 -14.904,21.644C-14.914,21.697 -14.936,21.74 -14.968,21.772C-15.181,21.974 -15.448,22.188 -15.768,22.412C-16.088,22.636 -16.418,22.844 -16.76,23.036C-16.856,23.089 -16.989,23.158 -17.16,23.244C-17.33,23.329 -17.52,23.412 -17.728,23.492C-17.936,23.572 -18.149,23.641 -18.368,23.7C-18.586,23.758 -18.792,23.788 -18.984,23.788C-19.368,23.788 -19.73,23.713 -20.072,23.564C-20.413,23.414 -20.712,23.209 -20.968,22.948C-21.224,22.686 -21.424,22.374 -21.568,22.012C-21.712,21.649 -21.784,21.254 -21.784,20.828C-21.784,20.369 -21.72,19.937 -21.592,19.532C-21.464,19.126 -21.317,18.764 -21.152,18.444C-20.986,18.124 -20.829,17.854 -20.68,17.636C-20.53,17.417 -20.429,17.254 -20.376,17.148C-20.578,17.137 -20.762,17.129 -20.928,17.124C-21.093,17.118 -21.25,17.116 -21.4,17.116C-21.741,17.116 -22.029,17.118 -22.264,17.124C-22.498,17.129 -22.706,17.153 -22.888,17.196C-22.973,17.217 -23.053,17.26 -23.128,17.324C-23.202,17.388 -23.266,17.436 -23.32,17.468C-23.341,17.446 -23.37,17.417 -23.408,17.38C-23.445,17.342 -23.464,17.302 -23.464,17.26C-23.464,17.238 -23.458,17.222 -23.448,17.212C-23.448,17.201 -23.378,17.14 -23.24,17.028C-23.101,16.916 -22.928,16.782 -22.72,16.628C-22.512,16.473 -22.282,16.302 -22.032,16.116C-21.781,15.929 -21.541,15.756 -21.312,15.596C-21.082,15.436 -20.885,15.3 -20.72,15.188C-20.554,15.076 -20.445,15.009 -20.392,14.988C-20.328,14.966 -20.264,14.977 -20.2,15.02C-20.136,15.062 -20.114,15.094 -20.136,15.116C-20.168,15.137 -20.216,15.177 -20.28,15.236C-20.344,15.294 -20.365,15.345 -20.344,15.388C-20.226,15.484 -20.024,15.569 -19.736,15.644C-19.448,15.718 -19.122,15.78 -18.76,15.828C-18.397,15.876 -18.024,15.913 -17.64,15.94C-17.256,15.966 -16.909,15.98 -16.6,15.98C-16.141,15.98 -15.773,15.966 -15.496,15.94C-15.218,15.913 -14.989,15.878 -14.808,15.836C-14.637,15.793 -14.525,15.761 -14.472,15.74C-14.461,15.74 -14.44,15.756 -14.408,15.788C-14.376,15.82 -14.36,15.857 -14.36,15.9C-14.36,15.921 -14.437,15.974 -14.592,16.06C-14.746,16.145 -14.904,16.236 -15.064,16.332C-15.16,16.385 -15.274,16.454 -15.408,16.54C-15.541,16.625 -15.685,16.708 -15.84,16.788C-15.994,16.868 -16.157,16.94 -16.328,17.004C-16.498,17.068 -16.664,17.105 -16.824,17.116C-16.984,17.137 -17.17,17.153 -17.384,17.164C-17.597,17.174 -17.821,17.182 -18.056,17.188C-18.29,17.193 -18.528,17.198 -18.768,17.204C-19.008,17.209 -19.229,17.212 -19.432,17.212C-19.464,17.265 -19.514,17.353 -19.584,17.476C-19.653,17.598 -19.72,17.756 -19.784,17.948C-19.848,18.14 -19.906,18.358 -19.96,18.604C-20.013,18.849 -20.04,19.116 -20.04,19.404C-20.04,19.841 -19.973,20.244 -19.84,20.612C-19.706,20.98 -19.52,21.297 -19.28,21.564C-19.04,21.83 -18.754,22.038 -18.424,22.188C-18.093,22.337 -17.736,22.412 -17.352,22.412C-17.128,22.412 -16.912,22.385 -16.704,22.332C-16.496,22.278 -16.298,22.209 -16.112,22.124C-15.925,22.038 -15.752,21.945 -15.592,21.844C-15.432,21.742 -15.293,21.644 -15.176,21.548L-14.984,21.372Z" style="fill-rule:nonzero;"/>
            <path d="M-9.096,23.596C-9.288,23.596 -9.501,23.598 -9.736,23.604C-9.97,23.609 -10.2,23.614 -10.424,23.62C-10.648,23.625 -10.858,23.636 -11.056,23.652C-11.253,23.668 -11.405,23.681 -11.512,23.692L-11.768,23.724C-11.821,23.724 -11.866,23.694 -11.904,23.636C-11.941,23.577 -11.96,23.521 -11.96,23.468C-11.96,23.425 -11.938,23.38 -11.896,23.332C-11.853,23.284 -11.794,23.26 -11.72,23.26C-11.272,23.26 -10.914,23.233 -10.648,23.18C-10.381,23.126 -10.221,23.057 -10.168,22.972C-10.104,22.844 -10.037,22.558 -9.968,22.116C-9.898,21.673 -9.837,21.156 -9.784,20.564C-9.73,19.972 -9.688,19.35 -9.656,18.7C-9.624,18.049 -9.608,17.446 -9.608,16.892C-9.608,16.284 -9.61,15.774 -9.616,15.364C-9.621,14.953 -9.626,14.614 -9.632,14.348C-9.637,14.081 -9.642,13.876 -9.648,13.732C-9.653,13.588 -9.656,13.484 -9.656,13.42C-9.666,13.078 -9.714,12.852 -9.8,12.74C-9.885,12.628 -10.04,12.561 -10.264,12.54C-10.424,12.518 -10.61,12.513 -10.824,12.524C-11.037,12.534 -11.192,12.534 -11.288,12.524C-11.362,12.513 -11.426,12.5 -11.48,12.484C-11.533,12.468 -11.56,12.412 -11.56,12.316C-11.56,12.209 -11.533,12.137 -11.48,12.1C-11.426,12.062 -11.368,12.044 -11.304,12.044C-11.218,12.044 -10.944,12.062 -10.48,12.1C-10.016,12.137 -9.352,12.156 -8.488,12.156C-7.922,12.156 -7.44,12.142 -7.04,12.116C-6.64,12.089 -6.365,12.065 -6.216,12.044C-6.141,12.044 -6.069,12.052 -6,12.068C-5.93,12.084 -5.896,12.134 -5.896,12.22C-5.896,12.401 -6.018,12.502 -6.264,12.524C-6.349,12.524 -6.445,12.529 -6.552,12.54C-6.658,12.55 -6.762,12.561 -6.864,12.572C-6.965,12.582 -7.058,12.598 -7.144,12.62C-7.229,12.641 -7.293,12.657 -7.336,12.668C-7.389,12.689 -7.44,12.884 -7.488,13.252C-7.536,13.62 -7.578,14.076 -7.616,14.62C-7.653,15.164 -7.688,15.75 -7.72,16.38C-7.752,17.009 -7.773,17.59 -7.784,18.124C-7.794,18.529 -7.802,19.001 -7.808,19.54C-7.813,20.078 -7.808,20.596 -7.792,21.092C-7.776,21.588 -7.752,22.017 -7.72,22.38C-7.688,22.742 -7.64,22.95 -7.576,23.004C-7.533,23.036 -7.453,23.065 -7.336,23.092C-7.218,23.118 -7.08,23.145 -6.92,23.172C-6.76,23.198 -6.597,23.217 -6.432,23.228C-6.266,23.238 -6.114,23.244 -5.976,23.244C-5.858,23.244 -5.784,23.254 -5.752,23.276C-5.72,23.297 -5.704,23.35 -5.704,23.436C-5.704,23.532 -5.744,23.601 -5.824,23.644C-5.904,23.686 -5.986,23.708 -6.072,23.708C-6.136,23.708 -6.232,23.702 -6.36,23.692C-6.488,23.681 -6.664,23.668 -6.888,23.652C-7.112,23.636 -7.394,23.622 -7.736,23.612C-8.077,23.601 -8.498,23.596 -9,23.596L-9.096,23.596Z" style="fill-rule:nonzero;"/>
            <path d="M-2.536,19.372C-2.546,19.468 -2.557,19.553 -2.568,19.628C-2.578,19.702 -2.586,19.788 -2.592,19.884C-2.597,19.98 -2.602,20.1 -2.608,20.244C-2.613,20.388 -2.616,20.577 -2.616,20.812C-2.616,21.196 -2.602,21.51 -2.576,21.756C-2.549,22.001 -2.509,22.196 -2.456,22.34C-2.402,22.484 -2.336,22.582 -2.256,22.636C-2.176,22.689 -2.077,22.716 -1.96,22.716C-1.885,22.716 -1.805,22.705 -1.72,22.684C-1.698,22.684 -1.68,22.713 -1.664,22.772C-1.648,22.83 -1.65,22.87 -1.672,22.892C-1.736,22.945 -1.861,23.022 -2.048,23.124C-2.234,23.225 -2.445,23.324 -2.68,23.42C-2.914,23.516 -3.157,23.601 -3.408,23.676C-3.658,23.75 -3.869,23.788 -4.04,23.788C-4.189,23.788 -4.306,23.769 -4.392,23.732C-4.477,23.694 -4.52,23.649 -4.52,23.596C-4.52,23.542 -4.514,23.51 -4.504,23.5C-4.493,23.489 -4.477,23.462 -4.456,23.42C-4.434,23.366 -4.418,23.3 -4.408,23.22C-4.397,23.14 -4.381,23.046 -4.36,22.94C-4.338,22.79 -4.317,22.601 -4.296,22.372C-4.274,22.142 -4.253,21.892 -4.232,21.62C-4.21,21.348 -4.192,21.065 -4.176,20.772C-4.16,20.478 -4.152,20.193 -4.152,19.916C-4.152,19.798 -4.154,19.652 -4.16,19.476C-4.165,19.3 -4.173,19.073 -4.184,18.796C-4.194,18.486 -4.229,18.222 -4.288,18.004C-4.346,17.785 -4.421,17.609 -4.512,17.476C-4.602,17.342 -4.704,17.244 -4.816,17.18C-4.928,17.116 -5.037,17.084 -5.144,17.084L-5.304,17.084C-5.357,17.084 -5.41,17.089 -5.464,17.1C-5.506,17.1 -5.528,17.052 -5.528,16.956C-5.528,16.934 -5.52,16.916 -5.504,16.9C-5.488,16.884 -5.437,16.849 -5.352,16.796C-5.213,16.7 -5.026,16.582 -4.792,16.444C-4.557,16.305 -4.317,16.177 -4.072,16.06C-3.826,15.942 -3.594,15.841 -3.376,15.756C-3.157,15.67 -2.989,15.628 -2.872,15.628C-2.562,15.628 -2.408,15.804 -2.408,16.156C-2.408,16.209 -2.413,16.305 -2.424,16.444C-2.434,16.582 -2.442,16.724 -2.448,16.868C-2.453,17.012 -2.461,17.148 -2.472,17.276C-2.482,17.404 -2.488,17.489 -2.488,17.532C-2.264,17.318 -2.024,17.1 -1.768,16.876C-1.512,16.652 -1.234,16.446 -0.936,16.26C-0.637,16.073 -0.322,15.921 0.008,15.804C0.339,15.686 0.68,15.628 1.032,15.628C1.672,15.628 2.198,15.812 2.608,16.18C3.019,16.548 3.224,17.132 3.224,17.932C3.224,18.145 3.211,18.396 3.184,18.684C3.158,18.972 3.128,19.27 3.096,19.58C3.064,19.889 3.035,20.193 3.008,20.492C2.982,20.79 2.968,21.057 2.968,21.292C2.968,22.145 3.246,22.572 3.8,22.572C3.907,22.572 4.027,22.553 4.16,22.516C4.294,22.478 4.422,22.436 4.544,22.388C4.667,22.34 4.776,22.292 4.872,22.244C4.968,22.196 5.032,22.156 5.064,22.124C5.075,22.113 5.088,22.121 5.104,22.148C5.12,22.174 5.134,22.209 5.144,22.252C5.155,22.294 5.158,22.332 5.152,22.364C5.147,22.396 5.139,22.417 5.128,22.428C5.043,22.481 4.859,22.582 4.576,22.732C4.294,22.881 3.979,23.033 3.632,23.188C3.286,23.342 2.942,23.481 2.6,23.604C2.259,23.726 1.987,23.788 1.784,23.788C1.539,23.788 1.371,23.729 1.28,23.612C1.19,23.494 1.144,23.372 1.144,23.244C1.144,23.158 1.158,23.052 1.184,22.924C1.211,22.796 1.246,22.588 1.288,22.3C1.331,21.99 1.371,21.628 1.408,21.212C1.446,20.796 1.464,20.348 1.464,19.868C1.464,18.929 1.291,18.217 0.944,17.732C0.598,17.246 0.163,17.004 -0.36,17.004C-0.69,17.004 -0.984,17.068 -1.24,17.196C-1.496,17.324 -1.714,17.497 -1.896,17.716C-2.077,17.934 -2.221,18.185 -2.328,18.468C-2.434,18.75 -2.504,19.052 -2.536,19.372Z" style="fill-rule:nonzero;"/>
        </g>
        <g transform="matrix(1,0,0,1,47.0022,-2.72712)">
            <text x="-39.144px" y="23.596px" style="font-family:'Luminari-Regular', 'Luminari';font-size:16px;">Bit In</text>
        </g>
    </g>
</svg>
