<?xml version="1.0" encoding="UTF-8" standalone="no"?>
<!DOCTYPE svg PUBLIC "-//W3C//DTD SVG 1.1//EN" "http://www.w3.org/Graphics/SVG/1.1/DTD/svg11.dtd">
<svg width="100%" height="100%" viewBox="0 0 75 380" version="1.1" xmlns="http://www.w3.org/2000/svg" xmlns:xlink="http://www.w3.org/1999/xlink" xml:space="preserve" xmlns:serif="http://www.serif.com/" style="fill-rule:evenodd;clip-rule:evenodd;stroke-linecap:round;stroke-linejoin:round;stroke-miterlimit:1.5;">
    <g transform="matrix(0.449246,0,0,1.48634,-12.1224,-44.3619)">
        <rect x="26.984" y="29.846" width="166.946" height="255.662" style="fill:rgb(242,242,242);"/>
    </g>
    <g id="Label" transform="matrix(1,0,0,1,-19.3858,11.8096)">
        <g transform="matrix(1,0,0,1,58.164,339.27)">
            <g transform="matrix(0.8973,0,0,0.884326,9.28968,12.4373)">
                <circle cx="3.434" cy="5.159" r="2.172" style="stroke:black;stroke-width:0.94px;"/>
            </g>
            <g transform="matrix(0.8973,0,0,0.884326,4.54775,12.4373)">
                <circle cx="3.434" cy="5.159" r="2.172" style="fill:white;stroke:black;stroke-width:0.94px;"/>
            </g>
            <g transform="matrix(0.8973,0,0,0.884326,-0.194181,12.4373)">
                <circle cx="3.434" cy="5.159" r="2.172" style="stroke:black;stroke-width:0.94px;"/>
            </g>
            <g transform="matrix(0.8973,0,0,0.884326,14.0316,12.4373)">
                <circle cx="3.434" cy="5.159" r="2.172" style="stroke:black;stroke-width:0.94px;"/>
            </g>
            <g transform="matrix(0.8973,0,0,0.884326,9.28968,6.70878)">
                <circle cx="3.434" cy="5.159" r="2.172" style="fill:white;stroke:black;stroke-width:0.94px;"/>
            </g>
            <g transform="matrix(0.8973,0,0,0.884326,4.54775,6.70878)">
                <circle cx="3.434" cy="5.159" r="2.172" style="stroke:black;stroke-width:0.94px;"/>
            </g>
            <g transform="matrix(0.8973,0,0,0.884326,-0.194181,6.70878)">
                <circle cx="3.434" cy="5.159" r="2.172" style="stroke:black;stroke-width:0.94px;"/>
            </g>
            <g transform="matrix(0.8973,0,0,0.884326,14.0316,6.70878)">
                <circle cx="3.434" cy="5.159" r="2.172" style="fill:white;stroke:black;stroke-width:0.94px;"/>
            </g>
            <g transform="matrix(0.8973,0,0,0.884326,9.28968,0.980236)">
                <circle cx="3.434" cy="5.159" r="2.172" style="fill:white;stroke:black;stroke-width:0.94px;"/>
            </g>
            <g transform="matrix(0.8973,0,0,0.884326,4.54775,0.980236)">
                <circle cx="3.434" cy="5.159" r="2.172" style="fill:white;stroke:black;stroke-width:0.94px;"/>
            </g>
            <g transform="matrix(0.8973,0,0,0.884326,-0.194181,0.980236)">
                <circle cx="3.434" cy="5.159" r="2.172" style="stroke:black;stroke-width:0.94px;"/>
            </g>
            <g transform="matrix(0.8973,0,0,0.884326,14.0316,0.980236)">
                <circle cx="3.434" cy="5.159" r="2.172" style="stroke:black;stroke-width:0.94px;"/>
            </g>
        </g>
        <g transform="matrix(0.0195312,0,0,0.0221547,34.9714,337.813)">
            <g transform="matrix(1,0,0,1,-143.343,98.6554)">
                <ellipse cx="360.896" cy="293.762" rx="136.961" ry="230.443" style="fill:rgb(235,235,235);stroke:black;stroke-width:58.45px;"/>
            </g>
            <g transform="matrix(1,0,0,1,445.551,98.6554)">
                <ellipse cx="360.896" cy="293.762" rx="136.961" ry="230.443" style="fill:rgb(235,235,235);stroke:black;stroke-width:58.45px;"/>
            </g>
            <g transform="matrix(1,0,0,1,-34.3236,-20.6488)">
                <ellipse cx="546.324" cy="643.509" rx="431.408" ry="296.899" style="fill:rgb(235,235,235);stroke:black;stroke-width:58.45px;"/>
            </g>
            <circle cx="406.664" cy="569.758" r="105.336" style="fill:rgb(235,235,235);stroke:black;stroke-width:58.45px;"/>
            <g transform="matrix(1,0,0,1,210.672,0)">
                <circle cx="406.664" cy="569.758" r="105.336" style="fill:rgb(235,235,235);stroke:black;stroke-width:58.45px;"/>
            </g>
            <g transform="matrix(1,0,0,1,-53.1856,50.0357)">
                <ellipse cx="565.186" cy="671.455" rx="210.672" ry="98.631" style="fill:rgb(235,235,235);stroke:black;stroke-width:58.45px;"/>
            </g>
            <g transform="matrix(51.2,0,0,45.1371,0.670978,88.9676)">
                <path d="M12.057,13.791C12.057,13.668 11.958,13.568 11.835,13.568L8.139,13.568C8.016,13.568 7.916,13.668 7.916,13.791L7.916,14.236C7.916,14.359 8.016,14.458 8.139,14.458L11.835,14.458C11.958,14.458 12.057,14.359 12.057,14.236L12.057,13.791Z"/>
            </g>
        </g>
    </g>
    <g transform="matrix(0.75,0,0,1,-44.1572,137.758)">
        <g transform="matrix(0.592666,0,0,72.8139,50.626,-21717.6)">
            <rect x="13.921" y="296.737" width="168.729" height="3.935" style="fill:rgb(191,191,191);"/>
        </g>
        <g transform="matrix(2.75278,0,0,0.695794,-386.957,112.334)">
            <rect x="161.957" y="57.989" width="36.327" height="2.261"/>
        </g>
        <g transform="matrix(2.75278,0,0,0.695794,-386.957,78.6945)">
            <rect x="161.957" y="57.989" width="36.327" height="2.261"/>
        </g>
        <g transform="matrix(2.75278,0,0,0.695794,-386.957,43.3266)">
            <rect x="161.957" y="57.989" width="36.327" height="2.261"/>
        </g>
        <g transform="matrix(2.75278,0,0,0.695794,-386.957,8.01938)">
            <rect x="161.957" y="57.989" width="36.327" height="2.261"/>
        </g>
        <g transform="matrix(2.75278,0,0,0.695794,-386.957,-25.4274)">
            <rect x="161.957" y="57.989" width="36.327" height="2.261"/>
        </g>
        <g transform="matrix(2.75278,0,0,0.695794,-386.957,-60.2029)">
            <rect x="161.957" y="57.989" width="36.327" height="2.261"/>
        </g>
        <g transform="matrix(2.75278,0,0,0.695794,-386.957,-94.5002)">
            <rect x="161.957" y="57.989" width="36.327" height="2.261"/>
        </g>
        <g transform="matrix(2.75278,0,0,0.695794,-386.957,-130.158)">
            <rect x="161.957" y="57.989" width="36.327" height="2.261"/>
        </g>
        <g transform="matrix(1.33333,0,0,1,21.081,-182.392)">
            <g id="Bit8">
                <circle id="Status1-light" serif:id="Status1#light" cx="42.167" cy="335.861" r="3.82" style="fill:rgb(230,230,230);"/>
            </g>
        </g>
        <g transform="matrix(1.33333,0,0,1,21.0789,-216.032)">
            <g id="Bit7">
                <circle id="Status1-light1" serif:id="Status1#light" cx="42.167" cy="335.861" r="3.82" style="fill:rgb(230,230,230);"/>
            </g>
        </g>
        <g transform="matrix(1.33333,0,0,1,21.0789,-251.4)">
            <g id="Bit6">
                <circle id="Status1-light2" serif:id="Status1#light" cx="42.167" cy="335.861" r="3.82" style="fill:rgb(230,230,230);"/>
            </g>
        </g>
        <g transform="matrix(1.33328,0.00917786,-0.0122371,0.999958,25.1934,-287.252)">
            <g id="Bit5">
                <circle id="Status1-light3" serif:id="Status1#light" cx="42.167" cy="335.861" r="3.82" style="fill:rgb(230,230,230);"/>
            </g>
        </g>
        <g transform="matrix(1.33333,0,0,1,21.081,-320.153)">
            <g id="Bit4">
                <circle id="Status1-light4" serif:id="Status1#light" cx="42.167" cy="335.861" r="3.82" style="fill:rgb(230,230,230);"/>
            </g>
        </g>
        <g transform="matrix(1.33333,0,0,1,21.081,-354.929)">
            <g id="Bit3">
                <circle id="Status1-light5" serif:id="Status1#light" cx="42.167" cy="335.861" r="3.82" style="fill:rgb(230,230,230);"/>
            </g>
        </g>
        <g transform="matrix(1.33333,0,0,1,21.081,-389.226)">
            <g id="Bit2">
                <circle id="Status1-light6" serif:id="Status1#light" cx="42.167" cy="335.861" r="3.82" style="fill:rgb(230,230,230);"/>
            </g>
        </g>
        <g transform="matrix(1.33333,0,0,1,21.081,-424.884)">
            <g id="Bit1">
                <circle id="Status1-light7" serif:id="Status1#light" cx="42.167" cy="335.861" r="3.82" style="fill:rgb(230,230,230);"/>
            </g>
        </g>
    </g>
    <g id="BusIn-light" serif:id="BusIn#light" transform="matrix(1,0,0,1,-27.8135,10.8256)">
        <circle cx="42.167" cy="335.861" r="3.82" style="fill:rgb(230,230,230);"/>
    </g>
    <g id="BusOut-light" serif:id="BusOut#light" transform="matrix(1,0,0,1,18.1865,10.8256)">
        <circle cx="42.167" cy="335.861" r="3.82" style="fill:rgb(230,230,230);"/>
    </g>
    <g transform="matrix(1,0,0,1,-40.578,26.5989)">
        <g transform="matrix(0.237749,0,0,50.0423,62.1533,-14804.5)">
            <rect x="13.921" y="296.737" width="168.729" height="3.935" style="fill:rgb(242,242,242);"/>
        </g>
        <g transform="matrix(1,0,0,1,0.520487,98.7519)">
            <g id="FlipSample-ledbutton" serif:id="FlipSample#ledbutton" transform="matrix(0.174892,0,0,0.175002,61.402,86.7121)">
                <rect x="53.94" y="106.916" width="161.978" height="161.978" style="fill:rgb(242,242,242);"/>
            </g>
            <g id="GateSample-input" serif:id="GateSample#input" transform="matrix(0.174892,0,0,0.175002,61.402,50.9114)">
                <rect x="53.94" y="106.916" width="161.978" height="161.978" style="fill:rgb(217,217,217);"/>
            </g>
            <g transform="matrix(1,0,0,1,87.6198,-82.714)">
                <path d="M-9.859,139.177L-10.879,139.177L-10.879,138.947C-10.879,138.714 -10.934,138.512 -11.044,138.342C-11.154,138.172 -11.339,138.087 -11.599,138.087C-11.739,138.087 -11.853,138.114 -11.939,138.167C-12.026,138.22 -12.096,138.287 -12.149,138.367C-12.203,138.454 -12.239,138.552 -12.259,138.662C-12.279,138.772 -12.289,138.887 -12.289,139.007C-12.289,139.147 -12.284,139.264 -12.274,139.357C-12.264,139.45 -12.239,139.534 -12.199,139.607C-12.159,139.68 -12.101,139.744 -12.024,139.797C-11.948,139.85 -11.843,139.904 -11.709,139.957L-10.929,140.267C-10.703,140.354 -10.519,140.455 -10.379,140.572C-10.239,140.689 -10.129,140.824 -10.049,140.977C-9.976,141.137 -9.926,141.319 -9.899,141.522C-9.873,141.725 -9.859,141.957 -9.859,142.217C-9.859,142.517 -9.889,142.795 -9.949,143.052C-10.009,143.309 -10.106,143.527 -10.239,143.707C-10.379,143.894 -10.563,144.04 -10.789,144.147C-11.016,144.254 -11.293,144.307 -11.619,144.307C-11.866,144.307 -12.096,144.264 -12.309,144.177C-12.523,144.09 -12.706,143.97 -12.859,143.817C-13.013,143.664 -13.134,143.485 -13.224,143.282C-13.314,143.079 -13.359,142.857 -13.359,142.617L-13.359,142.237L-12.339,142.237L-12.339,142.557C-12.339,142.744 -12.284,142.912 -12.174,143.062C-12.064,143.212 -11.879,143.287 -11.619,143.287C-11.446,143.287 -11.311,143.262 -11.214,143.212C-11.118,143.162 -11.043,143.09 -10.989,142.997C-10.936,142.904 -10.904,142.792 -10.894,142.662C-10.884,142.532 -10.879,142.387 -10.879,142.227C-10.879,142.04 -10.886,141.887 -10.899,141.767C-10.913,141.647 -10.939,141.55 -10.979,141.477C-11.026,141.404 -11.088,141.344 -11.164,141.297C-11.241,141.25 -11.343,141.2 -11.469,141.147L-12.199,140.847C-12.639,140.667 -12.934,140.429 -13.084,140.132C-13.234,139.835 -13.309,139.464 -13.309,139.017C-13.309,138.75 -13.273,138.497 -13.199,138.257C-13.126,138.017 -13.016,137.81 -12.869,137.637C-12.729,137.464 -12.551,137.325 -12.334,137.222C-12.118,137.119 -11.859,137.067 -11.559,137.067C-11.306,137.067 -11.074,137.114 -10.864,137.207C-10.654,137.3 -10.473,137.424 -10.319,137.577C-10.013,137.897 -9.859,138.264 -9.859,138.677L-9.859,139.177Z" style="fill-rule:nonzero;"/>
                <path d="M-7.229,144.247L-7.229,143.727L-7.249,143.727C-7.383,143.914 -7.518,144.057 -7.654,144.157C-7.791,144.257 -7.983,144.307 -8.229,144.307C-8.349,144.307 -8.471,144.289 -8.594,144.252C-8.718,144.215 -8.836,144.147 -8.949,144.047C-9.063,143.954 -9.154,143.819 -9.224,143.642C-9.294,143.465 -9.329,143.237 -9.329,142.957C-9.329,142.67 -9.306,142.419 -9.259,142.202C-9.213,141.985 -9.126,141.804 -8.999,141.657C-8.879,141.517 -8.716,141.412 -8.509,141.342C-8.303,141.272 -8.039,141.237 -7.719,141.237L-7.609,141.237C-7.569,141.237 -7.533,141.24 -7.499,141.247C-7.466,141.254 -7.426,141.257 -7.379,141.257C-7.333,141.257 -7.283,141.26 -7.229,141.267L-7.229,140.737C-7.229,140.564 -7.266,140.42 -7.339,140.307C-7.413,140.194 -7.546,140.137 -7.739,140.137C-7.873,140.137 -7.994,140.18 -8.104,140.267C-8.214,140.354 -8.286,140.48 -8.319,140.647L-9.309,140.647C-9.283,140.194 -9.129,139.827 -8.849,139.547C-8.716,139.414 -8.556,139.309 -8.369,139.232C-8.183,139.155 -7.973,139.117 -7.739,139.117C-7.526,139.117 -7.326,139.15 -7.139,139.217C-6.953,139.284 -6.789,139.384 -6.649,139.517C-6.516,139.65 -6.409,139.817 -6.329,140.017C-6.249,140.217 -6.209,140.45 -6.209,140.717L-6.209,144.247L-7.229,144.247ZM-7.229,142.067C-7.343,142.047 -7.436,142.037 -7.509,142.037C-7.729,142.037 -7.918,142.089 -8.074,142.192C-8.231,142.295 -8.309,142.484 -8.309,142.757C-8.309,142.95 -8.263,143.107 -8.169,143.227C-8.076,143.347 -7.946,143.407 -7.779,143.407C-7.606,143.407 -7.471,143.35 -7.374,143.237C-7.278,143.124 -7.229,142.964 -7.229,142.757L-7.229,142.067Z" style="fill-rule:nonzero;"/>
                <path d="M-5.459,144.247L-5.459,139.177L-4.439,139.177L-4.439,139.667L-4.419,139.667C-4.313,139.507 -4.184,139.375 -4.034,139.272C-3.884,139.169 -3.693,139.117 -3.459,139.117C-3.239,139.117 -3.056,139.17 -2.909,139.277C-2.763,139.384 -2.643,139.5 -2.549,139.627C-2.423,139.487 -2.283,139.367 -2.129,139.267C-1.976,139.167 -1.763,139.117 -1.489,139.117C-1.363,139.117 -1.233,139.139 -1.099,139.182C-0.966,139.225 -0.846,139.297 -0.739,139.397C-0.633,139.497 -0.546,139.625 -0.479,139.782C-0.413,139.939 -0.379,140.13 -0.379,140.357L-0.379,144.247L-1.399,144.247L-1.399,140.737C-1.399,140.55 -1.443,140.404 -1.529,140.297C-1.616,140.19 -1.739,140.137 -1.899,140.137C-2.093,140.137 -2.226,140.197 -2.299,140.317C-2.373,140.437 -2.409,140.61 -2.409,140.837L-2.409,144.247L-3.429,144.247L-3.429,140.737C-3.429,140.55 -3.473,140.404 -3.559,140.297C-3.646,140.19 -3.769,140.137 -3.929,140.137C-4.123,140.137 -4.256,140.197 -4.329,140.317C-4.403,140.437 -4.439,140.61 -4.439,140.837L-4.439,144.247L-5.459,144.247Z" style="fill-rule:nonzero;"/>
                <path d="M0.461,146.297L0.461,139.177L1.481,139.177L1.481,139.637C1.607,139.49 1.737,139.367 1.871,139.267C2.004,139.167 2.197,139.117 2.451,139.117C2.871,139.117 3.167,139.277 3.341,139.597C3.401,139.71 3.444,139.85 3.471,140.017C3.497,140.184 3.511,140.407 3.511,140.687L3.511,142.617C3.511,142.99 3.501,143.26 3.481,143.427C3.441,143.76 3.287,144.01 3.021,144.177C2.887,144.264 2.694,144.307 2.441,144.307C2.241,144.307 2.062,144.262 1.906,144.172C1.749,144.082 1.614,143.954 1.501,143.787L1.481,143.787L1.481,146.297L0.461,146.297ZM2.491,140.827C2.491,140.62 2.451,140.454 2.371,140.327C2.291,140.2 2.164,140.137 1.991,140.137C1.837,140.137 1.714,140.195 1.621,140.312C1.527,140.429 1.481,140.58 1.481,140.767L1.481,142.737C1.481,142.897 1.529,143.029 1.626,143.132C1.722,143.235 1.844,143.287 1.991,143.287C2.184,143.287 2.316,143.227 2.386,143.107C2.456,142.987 2.491,142.847 2.491,142.687L2.491,140.827Z" style="fill-rule:nonzero;"/>
                <path d="M4.291,137.127L5.311,137.127L5.311,142.817C5.311,143.01 5.346,143.142 5.416,143.212C5.486,143.282 5.617,143.327 5.811,143.347L5.811,144.307C5.577,144.307 5.367,144.289 5.181,144.252C4.994,144.215 4.834,144.144 4.701,144.037C4.567,143.937 4.466,143.795 4.396,143.612C4.326,143.429 4.291,143.187 4.291,142.887L4.291,137.127Z" style="fill-rule:nonzero;"/>
                <path d="M9.161,142.097L7.141,142.097L7.141,142.787C7.141,142.947 7.186,143.07 7.276,143.157C7.366,143.244 7.487,143.287 7.641,143.287C7.834,143.287 7.962,143.23 8.026,143.117C8.089,143.004 8.127,142.89 8.141,142.777L9.161,142.777C9.161,143.224 9.024,143.584 8.751,143.857C8.617,143.997 8.457,144.107 8.271,144.187C8.084,144.267 7.874,144.307 7.641,144.307C7.321,144.307 7.049,144.24 6.826,144.107C6.602,143.974 6.431,143.797 6.311,143.577C6.237,143.444 6.187,143.29 6.161,143.117C6.134,142.944 6.121,142.754 6.121,142.547L6.121,140.877C6.121,140.67 6.134,140.48 6.161,140.307C6.187,140.134 6.237,139.98 6.311,139.847C6.431,139.627 6.602,139.45 6.826,139.317C7.049,139.184 7.321,139.117 7.641,139.117C7.874,139.117 8.086,139.157 8.276,139.237C8.466,139.317 8.627,139.427 8.761,139.567C9.027,139.867 9.161,140.244 9.161,140.697L9.161,142.097ZM7.141,141.297L8.141,141.297L8.141,140.717C8.141,140.524 8.096,140.379 8.006,140.282C7.916,140.185 7.794,140.137 7.641,140.137C7.487,140.137 7.366,140.185 7.276,140.282C7.186,140.379 7.141,140.524 7.141,140.717L7.141,141.297Z" style="fill-rule:nonzero;"/>
            </g>
            <g transform="matrix(1,0,0,1,87.6198,-82.714)">
                <text x="-13.639px" y="144.247px" style="font-family:'DINCondensed-Bold', 'DIN Condensed';font-weight:700;font-stretch:condensed;font-size:10px;">Sample</text>
            </g>
        </g>
        <g transform="matrix(1,0,0,1,0.520487,0)">
            <g id="FlipFreeze-ledbutton" serif:id="FlipFreeze#ledbutton" transform="matrix(0.174892,0,0,0.175002,61.402,86.4739)">
                <rect x="53.94" y="106.916" width="161.978" height="161.978" style="fill:white;"/>
            </g>
            <g id="GateFreeze-input" serif:id="GateFreeze#input" transform="matrix(0.174892,0,0,0.175002,61.402,50.9114)">
                <rect x="53.94" y="106.916" width="161.978" height="161.978" style="fill:rgb(217,217,217);"/>
            </g>
            <g transform="matrix(1,0,0,1,88.3194,-82.7856)">
                <path d="M-13.159,144.247L-13.159,137.127L-10.119,137.127L-10.119,138.087L-12.139,138.087L-12.139,140.247L-10.379,140.247L-10.379,141.207L-12.139,141.207L-12.139,144.247L-13.159,144.247Z" style="fill-rule:nonzero;"/>
                <path d="M-9.699,144.247L-9.699,139.177L-8.679,139.177L-8.679,139.717C-8.473,139.53 -8.269,139.384 -8.069,139.277C-7.869,139.17 -7.623,139.117 -7.329,139.117L-7.329,140.197C-7.429,140.157 -7.533,140.137 -7.639,140.137C-7.746,140.137 -7.861,140.155 -7.984,140.192C-8.108,140.229 -8.219,140.29 -8.319,140.377C-8.426,140.464 -8.513,140.577 -8.579,140.717C-8.646,140.857 -8.679,141.03 -8.679,141.237L-8.679,144.247L-9.699,144.247Z" style="fill-rule:nonzero;"/>
                <path d="M-3.969,142.097L-5.989,142.097L-5.989,142.787C-5.989,142.947 -5.944,143.07 -5.854,143.157C-5.764,143.244 -5.643,143.287 -5.489,143.287C-5.296,143.287 -5.168,143.23 -5.104,143.117C-5.041,143.004 -5.003,142.89 -4.989,142.777L-3.969,142.777C-3.969,143.224 -4.106,143.584 -4.379,143.857C-4.513,143.997 -4.673,144.107 -4.859,144.187C-5.046,144.267 -5.256,144.307 -5.489,144.307C-5.809,144.307 -6.081,144.24 -6.304,144.107C-6.528,143.974 -6.699,143.797 -6.819,143.577C-6.893,143.444 -6.943,143.29 -6.969,143.117C-6.996,142.944 -7.009,142.754 -7.009,142.547L-7.009,140.877C-7.009,140.67 -6.996,140.48 -6.969,140.307C-6.943,140.134 -6.893,139.98 -6.819,139.847C-6.699,139.627 -6.528,139.45 -6.304,139.317C-6.081,139.184 -5.809,139.117 -5.489,139.117C-5.256,139.117 -5.044,139.157 -4.854,139.237C-4.664,139.317 -4.503,139.427 -4.369,139.567C-4.103,139.867 -3.969,140.244 -3.969,140.697L-3.969,142.097ZM-5.989,141.297L-4.989,141.297L-4.989,140.717C-4.989,140.524 -5.034,140.379 -5.124,140.282C-5.214,140.185 -5.336,140.137 -5.489,140.137C-5.643,140.137 -5.764,140.185 -5.854,140.282C-5.944,140.379 -5.989,140.524 -5.989,140.717L-5.989,141.297Z" style="fill-rule:nonzero;"/>
                <path d="M-0.269,142.097L-2.289,142.097L-2.289,142.787C-2.289,142.947 -2.244,143.07 -2.154,143.157C-2.064,143.244 -1.943,143.287 -1.789,143.287C-1.596,143.287 -1.468,143.23 -1.404,143.117C-1.341,143.004 -1.303,142.89 -1.289,142.777L-0.269,142.777C-0.269,143.224 -0.406,143.584 -0.679,143.857C-0.813,143.997 -0.973,144.107 -1.159,144.187C-1.346,144.267 -1.556,144.307 -1.789,144.307C-2.109,144.307 -2.381,144.24 -2.604,144.107C-2.828,143.974 -2.999,143.797 -3.119,143.577C-3.193,143.444 -3.243,143.29 -3.269,143.117C-3.296,142.944 -3.309,142.754 -3.309,142.547L-3.309,140.877C-3.309,140.67 -3.296,140.48 -3.269,140.307C-3.243,140.134 -3.193,139.98 -3.119,139.847C-2.999,139.627 -2.828,139.45 -2.604,139.317C-2.381,139.184 -2.109,139.117 -1.789,139.117C-1.556,139.117 -1.344,139.157 -1.154,139.237C-0.964,139.317 -0.803,139.427 -0.669,139.567C-0.403,139.867 -0.269,140.244 -0.269,140.697L-0.269,142.097ZM-2.289,141.297L-1.289,141.297L-1.289,140.717C-1.289,140.524 -1.334,140.379 -1.424,140.282C-1.514,140.185 -1.636,140.137 -1.789,140.137C-1.943,140.137 -2.064,140.185 -2.154,140.282C-2.244,140.379 -2.289,140.524 -2.289,140.717L-2.289,141.297Z" style="fill-rule:nonzero;"/>
                <path d="M0.231,144.247L0.231,143.437L1.881,140.077L0.361,140.077L0.361,139.177L3.041,139.177L3.041,139.987L1.391,143.287L3.041,143.287L3.041,144.247L0.231,144.247Z" style="fill-rule:nonzero;"/>
                <path d="M6.521,142.097L4.501,142.097L4.501,142.787C4.501,142.947 4.546,143.07 4.636,143.157C4.726,143.244 4.847,143.287 5.001,143.287C5.194,143.287 5.322,143.23 5.386,143.117C5.449,143.004 5.487,142.89 5.501,142.777L6.521,142.777C6.521,143.224 6.384,143.584 6.111,143.857C5.977,143.997 5.817,144.107 5.631,144.187C5.444,144.267 5.234,144.307 5.001,144.307C4.681,144.307 4.409,144.24 4.186,144.107C3.962,143.974 3.791,143.797 3.671,143.577C3.597,143.444 3.547,143.29 3.521,143.117C3.494,142.944 3.481,142.754 3.481,142.547L3.481,140.877C3.481,140.67 3.494,140.48 3.521,140.307C3.547,140.134 3.597,139.98 3.671,139.847C3.791,139.627 3.962,139.45 4.186,139.317C4.409,139.184 4.681,139.117 5.001,139.117C5.234,139.117 5.446,139.157 5.636,139.237C5.826,139.317 5.987,139.427 6.121,139.567C6.387,139.867 6.521,140.244 6.521,140.697L6.521,142.097ZM4.501,141.297L5.501,141.297L5.501,140.717C5.501,140.524 5.456,140.379 5.366,140.282C5.276,140.185 5.154,140.137 5.001,140.137C4.847,140.137 4.726,140.185 4.636,140.282C4.546,140.379 4.501,140.524 4.501,140.717L4.501,141.297Z" style="fill-rule:nonzero;"/>
            </g>
            <g transform="matrix(1,0,0,1,88.3194,-82.7856)">
                <text x="-13.639px" y="144.247px" style="font-family:'DINCondensed-Bold', 'DIN Condensed';font-weight:700;font-stretch:condensed;font-size:10px;">F<tspan x="-10.119px -7.339px " y="144.247px 144.247px ">re</tspan>eze</text>
            </g>
        </g>
    </g>
    <g transform="matrix(1,0,0,1,56.6215,-3.95975)">
        <text x="-39.144px" y="23.596px" style="font-family:'Luminari-Regular', 'Luminari';font-size:12px;">Fr<tspan x="-26.976px -21.408px " y="23.596px 23.596px ">ee</tspan>ze</text>
    </g>
</svg>
