<?xml version="1.0" encoding="UTF-8" standalone="no"?>
<!DOCTYPE svg PUBLIC "-//W3C//DTD SVG 1.1//EN" "http://www.w3.org/Graphics/SVG/1.1/DTD/svg11.dtd">
<svg width="100%" height="100%" viewBox="0 0 90 380" version="1.1" xmlns="http://www.w3.org/2000/svg" xmlns:xlink="http://www.w3.org/1999/xlink" xml:space="preserve" xmlns:serif="http://www.serif.com/" style="fill-rule:evenodd;clip-rule:evenodd;stroke-linecap:round;stroke-linejoin:round;stroke-miterlimit:1.5;">
    <g transform="matrix(0.539096,0,0,1.48634,-14.5469,-44.3619)">
        <rect x="26.984" y="29.846" width="166.946" height="255.662" style="fill:rgb(242,242,242);"/>
    </g>
    <g id="Label" transform="matrix(1,0,0,1,-12.2261,11.8096)">
        <g transform="matrix(1,0,0,1,58.164,339.27)">
            <g transform="matrix(0.8973,0,0,0.884326,9.28968,12.4373)">
                <circle cx="3.434" cy="5.159" r="2.172" style="stroke:black;stroke-width:0.94px;"/>
            </g>
            <g transform="matrix(0.8973,0,0,0.884326,4.54775,12.4373)">
                <circle cx="3.434" cy="5.159" r="2.172" style="fill:white;stroke:black;stroke-width:0.94px;"/>
            </g>
            <g transform="matrix(0.8973,0,0,0.884326,-0.194181,12.4373)">
                <circle cx="3.434" cy="5.159" r="2.172" style="stroke:black;stroke-width:0.94px;"/>
            </g>
            <g transform="matrix(0.8973,0,0,0.884326,14.0316,12.4373)">
                <circle cx="3.434" cy="5.159" r="2.172" style="stroke:black;stroke-width:0.94px;"/>
            </g>
            <g transform="matrix(0.8973,0,0,0.884326,9.28968,6.70878)">
                <circle cx="3.434" cy="5.159" r="2.172" style="fill:white;stroke:black;stroke-width:0.94px;"/>
            </g>
            <g transform="matrix(0.8973,0,0,0.884326,4.54775,6.70878)">
                <circle cx="3.434" cy="5.159" r="2.172" style="stroke:black;stroke-width:0.94px;"/>
            </g>
            <g transform="matrix(0.8973,0,0,0.884326,-0.194181,6.70878)">
                <circle cx="3.434" cy="5.159" r="2.172" style="stroke:black;stroke-width:0.94px;"/>
            </g>
            <g transform="matrix(0.8973,0,0,0.884326,14.0316,6.70878)">
                <circle cx="3.434" cy="5.159" r="2.172" style="fill:white;stroke:black;stroke-width:0.94px;"/>
            </g>
            <g transform="matrix(0.8973,0,0,0.884326,9.28968,0.980236)">
                <circle cx="3.434" cy="5.159" r="2.172" style="fill:white;stroke:black;stroke-width:0.94px;"/>
            </g>
            <g transform="matrix(0.8973,0,0,0.884326,4.54775,0.980236)">
                <circle cx="3.434" cy="5.159" r="2.172" style="fill:white;stroke:black;stroke-width:0.94px;"/>
            </g>
            <g transform="matrix(0.8973,0,0,0.884326,-0.194181,0.980236)">
                <circle cx="3.434" cy="5.159" r="2.172" style="stroke:black;stroke-width:0.94px;"/>
            </g>
            <g transform="matrix(0.8973,0,0,0.884326,14.0316,0.980236)">
                <circle cx="3.434" cy="5.159" r="2.172" style="stroke:black;stroke-width:0.94px;"/>
            </g>
        </g>
        <g transform="matrix(0.0195312,0,0,0.0221547,34.9714,337.813)">
            <g transform="matrix(1,0,0,1,-143.343,98.6554)">
                <ellipse cx="360.896" cy="293.762" rx="136.961" ry="230.443" style="fill:rgb(235,235,235);stroke:black;stroke-width:58.45px;"/>
            </g>
            <g transform="matrix(1,0,0,1,445.551,98.6554)">
                <ellipse cx="360.896" cy="293.762" rx="136.961" ry="230.443" style="fill:rgb(235,235,235);stroke:black;stroke-width:58.45px;"/>
            </g>
            <g transform="matrix(1,0,0,1,-34.3236,-20.6488)">
                <ellipse cx="546.324" cy="643.509" rx="431.408" ry="296.899" style="fill:rgb(235,235,235);stroke:black;stroke-width:58.45px;"/>
            </g>
            <circle cx="406.664" cy="569.758" r="105.336" style="fill:rgb(235,235,235);stroke:black;stroke-width:58.45px;"/>
            <g transform="matrix(1,0,0,1,210.672,0)">
                <circle cx="406.664" cy="569.758" r="105.336" style="fill:rgb(235,235,235);stroke:black;stroke-width:58.45px;"/>
            </g>
            <g transform="matrix(1,0,0,1,-53.1856,50.0357)">
                <ellipse cx="565.186" cy="671.455" rx="210.672" ry="98.631" style="fill:rgb(235,235,235);stroke:black;stroke-width:58.45px;"/>
            </g>
            <g transform="matrix(51.2,0,0,45.1371,0.670978,88.9676)">
                <path d="M12.057,13.791C12.057,13.668 11.958,13.568 11.835,13.568L8.139,13.568C8.016,13.568 7.916,13.668 7.916,13.791L7.916,14.236C7.916,14.359 8.016,14.458 8.139,14.458L11.835,14.458C11.958,14.458 12.057,14.359 12.057,14.236L12.057,13.791Z"/>
            </g>
        </g>
    </g>
    <g transform="matrix(0.75,0,0,1,-44.1572,137.758)">
        <g transform="matrix(0.7112,0,0,72.8139,48.976,-21717.6)">
            <rect x="13.921" y="296.737" width="168.729" height="3.935" style="fill:rgb(191,191,191);"/>
        </g>
        <g id="Latch8-latch" serif:id="Latch8#latch" transform="matrix(0.23319,0,0,0.175002,66.387,120.54)">
            <rect x="53.94" y="106.916" width="161.978" height="161.978" style="fill:rgb(191,191,191);"/>
        </g>
        <g transform="matrix(3.30333,0,0,0.695794,-476.123,112.334)">
            <rect x="161.957" y="57.989" width="36.327" height="2.261"/>
        </g>
        <g id="GateIn8-input" serif:id="GateIn8#input" transform="matrix(0.23319,0,0,0.175002,108.438,120.854)">
            <rect x="53.94" y="106.916" width="161.978" height="161.978" style="fill:rgb(235,235,235);"/>
        </g>
        <g id="Latch7-latch" serif:id="Latch7#latch" transform="matrix(0.23319,0,0,0.175002,66.387,86.7884)">
            <rect x="53.94" y="106.916" width="161.978" height="161.978" style="fill:rgb(191,191,191);"/>
        </g>
        <g transform="matrix(3.30333,0,0,0.695794,-476.123,78.6945)">
            <rect x="161.957" y="57.989" width="36.327" height="2.261"/>
        </g>
        <g id="GateIn7-input" serif:id="GateIn7#input" transform="matrix(0.23319,0,0,0.175002,108.438,87.1026)">
            <rect x="53.94" y="106.916" width="161.978" height="161.978" style="fill:rgb(235,235,235);"/>
        </g>
        <g id="Latch6-latch" serif:id="Latch6#latch" transform="matrix(0.23319,0,0,0.175002,66.387,51.5037)">
            <rect x="53.94" y="106.916" width="161.978" height="161.978" style="fill:rgb(191,191,191);"/>
        </g>
        <g transform="matrix(3.30333,0,0,0.695794,-476.123,43.3266)">
            <rect x="161.957" y="57.989" width="36.327" height="2.261"/>
        </g>
        <g id="GateIn6-input" serif:id="GateIn6#input" transform="matrix(0.23319,0,0,0.175002,108.438,51.8179)">
            <rect x="53.94" y="106.916" width="161.978" height="161.978" style="fill:rgb(235,235,235);"/>
        </g>
        <g id="Latch5-latch" serif:id="Latch5#latch" transform="matrix(0.23319,0,0,0.175002,66.387,16.0181)">
            <rect x="53.94" y="106.916" width="161.978" height="161.978" style="fill:rgb(191,191,191);"/>
        </g>
        <g transform="matrix(3.30333,0,0,0.695794,-476.123,8.01938)">
            <rect x="161.957" y="57.989" width="36.327" height="2.261"/>
        </g>
        <g id="GateIn5-input" serif:id="GateIn5#input" transform="matrix(0.23319,0,0,0.175002,108.438,16.3323)">
            <rect x="53.94" y="106.916" width="161.978" height="161.978" style="fill:rgb(235,235,235);"/>
        </g>
        <g id="Latch4-latch" serif:id="Latch4#latch" transform="matrix(0.23319,0,0,0.175002,66.387,-17.3335)">
            <rect x="53.94" y="106.916" width="161.978" height="161.978" style="fill:rgb(191,191,191);"/>
        </g>
        <g transform="matrix(3.30333,0,0,0.695794,-476.123,-25.4274)">
            <rect x="161.957" y="57.989" width="36.327" height="2.261"/>
        </g>
        <g id="GateIn4-input" serif:id="GateIn4#input" transform="matrix(0.23319,0,0,0.175002,108.438,-17.0193)">
            <rect x="53.94" y="106.916" width="161.978" height="161.978" style="fill:rgb(235,235,235);"/>
        </g>
        <g id="Latch3-latch" serif:id="Latch3#latch" transform="matrix(0.23319,0,0,0.175002,66.387,-52.1091)">
            <rect x="53.94" y="106.916" width="161.978" height="161.978" style="fill:rgb(191,191,191);"/>
        </g>
        <g transform="matrix(3.30333,0,0,0.695794,-476.123,-60.2029)">
            <rect x="161.957" y="57.989" width="36.327" height="2.261"/>
        </g>
        <g id="GateIn3-input" serif:id="GateIn3#input" transform="matrix(0.23319,0,0,0.175002,108.438,-51.7948)">
            <rect x="53.94" y="106.916" width="161.978" height="161.978" style="fill:rgb(235,235,235);"/>
        </g>
        <g id="Latch2-latch" serif:id="Latch2#latch" transform="matrix(0.23319,0,0,0.175002,66.387,-86.47)">
            <rect x="53.94" y="106.916" width="161.978" height="161.978" style="fill:rgb(191,191,191);"/>
        </g>
        <g transform="matrix(3.30333,0,0,0.695794,-476.123,-94.5002)">
            <rect x="161.957" y="57.989" width="36.327" height="2.261"/>
        </g>
        <g id="GateIn2-input" serif:id="GateIn2#input" transform="matrix(0.23319,0,0,0.175002,108.438,-86.1558)">
            <rect x="53.94" y="106.916" width="161.978" height="161.978" style="fill:rgb(235,235,235);"/>
        </g>
        <g id="Latch1-latch" serif:id="Latch1#latch" transform="matrix(0.23319,0,0,0.175002,66.387,-122.208)">
            <rect x="53.94" y="106.916" width="161.978" height="161.978" style="fill:rgb(191,191,191);"/>
        </g>
        <g transform="matrix(3.30333,0,0,0.695794,-476.123,-130.158)">
            <rect x="161.957" y="57.989" width="36.327" height="2.261"/>
        </g>
        <g id="GateIn1-input" serif:id="GateIn1#input" transform="matrix(0.23319,0,0,0.175002,108.438,-121.893)">
            <rect x="53.94" y="106.916" width="161.978" height="161.978" style="fill:rgb(235,235,235);"/>
        </g>
    </g>
    <g id="BusIn-light" serif:id="BusIn#light" transform="matrix(1,0,0,1,-27.8135,10.8256)">
        <circle cx="42.167" cy="335.861" r="3.82" style="fill:rgb(230,230,230);"/>
    </g>
    <g id="BusOut-light" serif:id="BusOut#light" transform="matrix(1,0,0,1,33.1865,10.8256)">
        <circle cx="42.167" cy="335.861" r="3.82" style="fill:rgb(230,230,230);"/>
    </g>
    <g transform="matrix(1,0,0,1,15,0)">
        <g transform="matrix(1,0,0,1,49.0135,-4.53575)">
            <path d="M-38.784,23.344C-38.696,23.344 -38.604,23.342 -38.508,23.338C-38.412,23.334 -38.336,23.324 -38.28,23.308C-38.224,23.292 -38.176,23.262 -38.136,23.218C-38.096,23.174 -38.06,23.094 -38.028,22.978C-37.996,22.862 -37.968,22.698 -37.944,22.486C-37.92,22.274 -37.902,21.992 -37.89,21.64C-37.878,21.288 -37.868,20.852 -37.86,20.332C-37.852,19.812 -37.848,19.184 -37.848,18.448C-37.848,17.848 -37.856,17.348 -37.872,16.948C-37.888,16.548 -37.912,16.226 -37.944,15.982C-37.976,15.738 -38.018,15.564 -38.07,15.46C-38.122,15.356 -38.188,15.304 -38.268,15.304C-38.308,15.304 -38.362,15.306 -38.43,15.31C-38.498,15.314 -38.568,15.316 -38.64,15.316C-38.712,15.316 -38.778,15.318 -38.838,15.322C-38.898,15.326 -38.936,15.328 -38.952,15.328C-38.968,15.328 -38.98,15.312 -38.988,15.28C-38.996,15.248 -39,15.216 -39,15.184C-39,15.152 -38.996,15.112 -38.988,15.064C-38.98,15.016 -38.952,14.992 -38.904,14.992L-37.836,14.992C-37.492,14.992 -37.208,14.984 -36.984,14.968C-36.76,14.952 -36.548,14.924 -36.348,14.884C-36.228,14.86 -36.176,14.9 -36.192,15.004C-36.2,15.052 -36.208,15.132 -36.216,15.244C-36.224,15.356 -36.234,15.476 -36.246,15.604C-36.258,15.732 -36.268,15.854 -36.276,15.97C-36.284,16.086 -36.288,16.172 -36.288,16.228C-36.192,16.116 -36.034,15.98 -35.814,15.82C-35.594,15.66 -35.336,15.508 -35.04,15.364C-34.744,15.22 -34.42,15.096 -34.068,14.992C-33.716,14.888 -33.36,14.836 -33,14.836C-32.52,14.836 -32.076,14.898 -31.668,15.022C-31.26,15.146 -30.91,15.33 -30.618,15.574C-30.326,15.818 -30.098,16.126 -29.934,16.498C-29.77,16.87 -29.688,17.308 -29.688,17.812C-29.688,18.14 -29.72,18.478 -29.784,18.826C-29.848,19.174 -29.928,19.52 -30.024,19.864C-30.12,20.208 -30.224,20.542 -30.336,20.866C-30.448,21.19 -30.552,21.49 -30.648,21.766C-30.744,22.042 -30.824,22.288 -30.888,22.504C-30.952,22.72 -30.984,22.888 -30.984,23.008C-30.984,23.096 -30.942,23.166 -30.858,23.218C-30.774,23.27 -30.628,23.296 -30.42,23.296C-30.308,23.296 -30.214,23.292 -30.138,23.284C-30.062,23.276 -29.996,23.252 -29.94,23.212C-29.908,23.196 -29.876,23.212 -29.844,23.26C-29.828,23.284 -29.82,23.312 -29.82,23.344C-29.82,23.384 -29.842,23.44 -29.886,23.512C-29.93,23.584 -29.98,23.62 -30.036,23.62L-30.456,23.62C-30.672,23.62 -30.906,23.622 -31.158,23.626C-31.41,23.63 -31.658,23.632 -31.902,23.632L-32.46,23.632C-32.58,23.632 -32.64,23.592 -32.64,23.512C-32.64,23.464 -32.636,23.434 -32.628,23.422C-32.62,23.41 -32.606,23.402 -32.586,23.398C-32.566,23.394 -32.542,23.386 -32.514,23.374C-32.486,23.362 -32.448,23.332 -32.4,23.284C-32.312,23.148 -32.22,22.922 -32.124,22.606C-32.028,22.29 -31.942,21.92 -31.866,21.496C-31.79,21.072 -31.726,20.612 -31.674,20.116C-31.622,19.62 -31.596,19.124 -31.596,18.628C-31.596,18.108 -31.656,17.652 -31.776,17.26C-31.896,16.868 -32.06,16.54 -32.268,16.276C-32.476,16.012 -32.716,15.814 -32.988,15.682C-33.26,15.55 -33.548,15.484 -33.852,15.484C-34.116,15.484 -34.386,15.534 -34.662,15.634C-34.938,15.734 -35.192,15.87 -35.424,16.042C-35.656,16.214 -35.858,16.414 -36.03,16.642C-36.202,16.87 -36.312,17.108 -36.36,17.356C-36.384,17.468 -36.404,17.664 -36.42,17.944C-36.436,18.224 -36.448,18.548 -36.456,18.916C-36.464,19.284 -36.47,19.672 -36.474,20.08C-36.478,20.488 -36.48,20.876 -36.48,21.244C-36.48,21.476 -36.476,21.698 -36.468,21.91C-36.46,22.122 -36.448,22.314 -36.432,22.486C-36.416,22.658 -36.4,22.804 -36.384,22.924C-36.368,23.044 -36.352,23.12 -36.336,23.152C-36.304,23.224 -36.268,23.274 -36.228,23.302C-36.188,23.33 -36.076,23.344 -35.892,23.344C-35.812,23.344 -35.75,23.34 -35.706,23.332C-35.662,23.324 -35.608,23.32 -35.544,23.32C-35.488,23.32 -35.452,23.342 -35.436,23.386C-35.42,23.43 -35.412,23.468 -35.412,23.5C-35.412,23.516 -35.426,23.54 -35.454,23.572C-35.482,23.604 -35.516,23.62 -35.556,23.62C-35.604,23.62 -35.686,23.618 -35.802,23.614C-35.918,23.61 -36.048,23.608 -36.192,23.608C-36.336,23.608 -36.478,23.606 -36.618,23.602C-36.758,23.598 -36.868,23.596 -36.948,23.596C-37.156,23.596 -37.37,23.598 -37.59,23.602C-37.81,23.606 -38.016,23.61 -38.208,23.614C-38.4,23.618 -38.57,23.624 -38.718,23.632C-38.866,23.64 -38.964,23.648 -39.012,23.656C-39.06,23.656 -39.084,23.624 -39.084,23.56C-39.084,23.52 -39.07,23.474 -39.042,23.422C-39.014,23.37 -38.98,23.344 -38.94,23.344L-38.784,23.344Z" style="fill-rule:nonzero;"/>
            <path d="M-23.46,22.192C-23.548,22.288 -23.684,22.42 -23.868,22.588C-24.052,22.756 -24.274,22.924 -24.534,23.092C-24.794,23.26 -25.084,23.404 -25.404,23.524C-25.724,23.644 -26.064,23.704 -26.424,23.704C-26.752,23.704 -27.072,23.654 -27.384,23.554C-27.696,23.454 -27.976,23.302 -28.224,23.098C-28.472,22.894 -28.67,22.634 -28.818,22.318C-28.966,22.002 -29.04,21.624 -29.04,21.184C-29.04,20.824 -29.016,20.514 -28.968,20.254C-28.92,19.994 -28.856,19.766 -28.776,19.57C-28.696,19.374 -28.606,19.206 -28.506,19.066C-28.406,18.926 -28.304,18.8 -28.2,18.688C-28.072,18.544 -27.916,18.408 -27.732,18.28C-27.548,18.152 -27.35,18.036 -27.138,17.932C-26.926,17.828 -26.702,17.746 -26.466,17.686C-26.23,17.626 -25.992,17.596 -25.752,17.596C-25.32,17.596 -24.982,17.668 -24.738,17.812C-24.494,17.956 -24.372,18.156 -24.372,18.412C-24.372,18.572 -24.42,18.72 -24.516,18.856C-24.436,18.832 -24.334,18.792 -24.21,18.736C-24.086,18.68 -23.96,18.622 -23.832,18.562C-23.704,18.502 -23.59,18.448 -23.49,18.4C-23.39,18.352 -23.324,18.316 -23.292,18.292C-23.276,18.276 -23.258,18.27 -23.238,18.274C-23.218,18.278 -23.208,18.292 -23.208,18.316C-23.208,18.42 -23.228,18.506 -23.268,18.574C-23.308,18.642 -23.356,18.696 -23.412,18.736C-23.54,18.816 -23.724,18.916 -23.964,19.036C-24.204,19.156 -24.47,19.282 -24.762,19.414C-25.054,19.546 -25.356,19.678 -25.668,19.81C-25.98,19.942 -26.274,20.068 -26.55,20.188C-26.826,20.308 -27.066,20.414 -27.27,20.506C-27.474,20.598 -27.612,20.664 -27.684,20.704C-27.684,20.976 -27.63,21.23 -27.522,21.466C-27.414,21.702 -27.264,21.908 -27.072,22.084C-26.88,22.26 -26.65,22.398 -26.382,22.498C-26.114,22.598 -25.82,22.648 -25.5,22.648C-25.212,22.648 -24.952,22.618 -24.72,22.558C-24.488,22.498 -24.292,22.43 -24.132,22.354C-23.972,22.278 -23.846,22.21 -23.754,22.15C-23.662,22.09 -23.612,22.06 -23.604,22.06C-23.572,22.06 -23.54,22.074 -23.508,22.102C-23.476,22.13 -23.46,22.16 -23.46,22.192ZM-27.684,20.356C-27.548,20.308 -27.394,20.25 -27.222,20.182C-27.05,20.114 -26.882,20.04 -26.718,19.96C-26.554,19.88 -26.404,19.804 -26.268,19.732C-26.132,19.66 -26.028,19.596 -25.956,19.54C-25.812,19.436 -25.74,19.26 -25.74,19.012C-25.74,18.916 -25.758,18.816 -25.794,18.712C-25.83,18.608 -25.884,18.514 -25.956,18.43C-26.028,18.346 -26.116,18.278 -26.22,18.226C-26.324,18.174 -26.44,18.148 -26.568,18.148C-26.68,18.148 -26.8,18.186 -26.928,18.262C-27.056,18.338 -27.176,18.462 -27.288,18.634C-27.4,18.806 -27.494,19.034 -27.57,19.318C-27.646,19.602 -27.684,19.948 -27.684,20.356Z" style="fill-rule:nonzero;"/>
            <path d="M-15.792,18.34C-15.952,18.46 -16.218,18.566 -16.59,18.658C-16.962,18.75 -17.392,18.796 -17.88,18.796C-17.976,18.796 -18.082,18.798 -18.198,18.802C-18.314,18.806 -18.404,18.808 -18.468,18.808C-18.436,19.112 -18.474,19.424 -18.582,19.744C-18.69,20.064 -18.814,20.366 -18.954,20.65C-19.094,20.934 -19.224,21.184 -19.344,21.4C-19.464,21.616 -19.524,21.772 -19.524,21.868C-19.524,21.996 -19.468,22.12 -19.356,22.24C-19.244,22.36 -19.104,22.48 -18.936,22.6C-18.768,22.72 -18.588,22.842 -18.396,22.966C-18.204,23.09 -18.024,23.222 -17.856,23.362C-17.688,23.502 -17.548,23.656 -17.436,23.824C-17.324,23.992 -17.268,24.176 -17.268,24.376C-17.268,24.664 -17.378,24.98 -17.598,25.324C-17.818,25.668 -18.116,25.99 -18.492,26.29C-18.868,26.59 -19.308,26.84 -19.812,27.04C-20.316,27.24 -20.852,27.34 -21.42,27.34C-21.684,27.34 -21.97,27.312 -22.278,27.256C-22.586,27.2 -22.87,27.116 -23.13,27.004C-23.39,26.892 -23.606,26.754 -23.778,26.59C-23.95,26.426 -24.036,26.232 -24.036,26.008C-24.036,25.88 -23.938,25.712 -23.742,25.504C-23.546,25.296 -23.32,25.084 -23.064,24.868C-22.808,24.652 -22.556,24.444 -22.308,24.244C-22.06,24.044 -21.884,23.884 -21.78,23.764C-21.756,23.764 -21.726,23.78 -21.69,23.812C-21.654,23.844 -21.636,23.88 -21.636,23.92C-21.636,23.928 -21.638,23.934 -21.642,23.938C-21.646,23.942 -21.648,23.948 -21.648,23.956C-21.728,24.02 -21.826,24.1 -21.942,24.196C-22.058,24.292 -22.172,24.396 -22.284,24.508C-22.396,24.62 -22.492,24.742 -22.572,24.874C-22.652,25.006 -22.692,25.136 -22.692,25.264C-22.692,25.432 -22.626,25.598 -22.494,25.762C-22.362,25.926 -22.19,26.072 -21.978,26.2C-21.766,26.328 -21.524,26.432 -21.252,26.512C-20.98,26.592 -20.704,26.632 -20.424,26.632C-19.848,26.632 -19.41,26.506 -19.11,26.254C-18.81,26.002 -18.66,25.648 -18.66,25.192C-18.66,25 -18.714,24.816 -18.822,24.64C-18.93,24.464 -19.062,24.3 -19.218,24.148C-19.374,23.996 -19.546,23.854 -19.734,23.722C-19.922,23.59 -20.094,23.468 -20.25,23.356C-20.406,23.244 -20.538,23.14 -20.646,23.044C-20.754,22.948 -20.808,22.86 -20.808,22.78C-20.808,22.708 -20.786,22.626 -20.742,22.534C-20.698,22.442 -20.648,22.35 -20.592,22.258C-20.536,22.166 -20.486,22.082 -20.442,22.006C-20.398,21.93 -20.376,21.872 -20.376,21.832C-20.376,21.84 -20.384,21.828 -20.4,21.796C-20.456,21.852 -20.536,21.908 -20.64,21.964C-20.744,22.02 -20.866,22.072 -21.006,22.12C-21.146,22.168 -21.294,22.208 -21.45,22.24C-21.606,22.272 -21.764,22.288 -21.924,22.288C-22.228,22.288 -22.496,22.238 -22.728,22.138C-22.96,22.038 -23.154,21.904 -23.31,21.736C-23.466,21.568 -23.584,21.374 -23.664,21.154C-23.744,20.934 -23.784,20.7 -23.784,20.452C-23.784,20.084 -23.73,19.768 -23.622,19.504C-23.514,19.24 -23.378,19.016 -23.214,18.832C-23.05,18.648 -22.876,18.498 -22.692,18.382C-22.508,18.266 -22.34,18.168 -22.188,18.088C-22.092,18.04 -21.978,17.994 -21.846,17.95C-21.714,17.906 -21.572,17.866 -21.42,17.83C-21.268,17.794 -21.112,17.764 -20.952,17.74C-20.792,17.716 -20.64,17.704 -20.496,17.704C-19.992,17.704 -19.584,17.76 -19.272,17.872C-18.96,17.984 -18.756,18.084 -18.66,18.172C-18.564,18.188 -18.392,18.2 -18.144,18.208C-17.896,18.216 -17.632,18.22 -17.352,18.22L-15.9,18.22C-15.86,18.22 -15.82,18.216 -15.78,18.208C-15.74,18.216 -15.724,18.236 -15.732,18.268C-15.74,18.3 -15.76,18.324 -15.792,18.34ZM-20.736,21.58C-20.624,21.58 -20.512,21.556 -20.4,21.508C-20.288,21.46 -20.186,21.378 -20.094,21.262C-20.002,21.146 -19.926,20.99 -19.866,20.794C-19.806,20.598 -19.776,20.352 -19.776,20.056C-19.776,19.784 -19.806,19.532 -19.866,19.3C-19.926,19.068 -20.016,18.868 -20.136,18.7C-20.256,18.532 -20.404,18.402 -20.58,18.31C-20.756,18.218 -20.964,18.172 -21.204,18.172C-21.548,18.172 -21.84,18.302 -22.08,18.562C-22.32,18.822 -22.44,19.192 -22.44,19.672C-22.44,19.936 -22.392,20.184 -22.296,20.416C-22.2,20.648 -22.074,20.85 -21.918,21.022C-21.762,21.194 -21.58,21.33 -21.372,21.43C-21.164,21.53 -20.952,21.58 -20.736,21.58Z" style="fill-rule:nonzero;"/>
            <path d="M-13.044,21.724C-13.068,21.588 -13.092,21.44 -13.116,21.28C-13.14,21.12 -13.164,20.968 -13.188,20.824C-13.212,20.68 -13.234,20.556 -13.254,20.452C-13.274,20.348 -13.288,20.28 -13.296,20.248C-13.424,20.296 -13.568,20.352 -13.728,20.416C-13.888,20.48 -14.048,20.55 -14.208,20.626C-14.368,20.702 -14.52,20.778 -14.664,20.854C-14.808,20.93 -14.928,21 -15.024,21.064C-15.208,21.184 -15.348,21.304 -15.444,21.424C-15.54,21.544 -15.588,21.688 -15.588,21.856C-15.588,22.088 -15.52,22.292 -15.384,22.468C-15.248,22.644 -15.036,22.732 -14.748,22.732C-14.596,22.732 -14.438,22.704 -14.274,22.648C-14.11,22.592 -13.958,22.528 -13.818,22.456C-13.678,22.384 -13.556,22.312 -13.452,22.24C-13.348,22.168 -13.276,22.112 -13.236,22.072C-13.172,22.008 -13.122,21.954 -13.086,21.91C-13.05,21.866 -13.036,21.804 -13.044,21.724ZM-13.392,19.864C-13.44,19.616 -13.496,19.394 -13.56,19.198C-13.624,19.002 -13.704,18.838 -13.8,18.706C-13.896,18.574 -14.012,18.474 -14.148,18.406C-14.284,18.338 -14.452,18.304 -14.652,18.304C-14.828,18.304 -14.99,18.336 -15.138,18.4C-15.286,18.464 -15.414,18.54 -15.522,18.628C-15.63,18.716 -15.714,18.804 -15.774,18.892C-15.834,18.98 -15.868,19.048 -15.876,19.096C-15.884,19.16 -15.92,19.192 -15.984,19.192C-16.096,19.192 -16.2,19.152 -16.296,19.072C-16.392,18.992 -16.44,18.896 -16.44,18.784C-16.44,18.72 -16.432,18.672 -16.416,18.64C-16.232,18.536 -16.008,18.424 -15.744,18.304C-15.48,18.184 -15.206,18.072 -14.922,17.968C-14.638,17.864 -14.356,17.778 -14.076,17.71C-13.796,17.642 -13.544,17.608 -13.32,17.608C-12.984,17.608 -12.726,17.656 -12.546,17.752C-12.366,17.848 -12.232,17.984 -12.144,18.16C-12.056,18.336 -12.002,18.542 -11.982,18.778C-11.962,19.014 -11.944,19.268 -11.928,19.54C-11.904,19.948 -11.872,20.342 -11.832,20.722C-11.792,21.102 -11.732,21.438 -11.652,21.73C-11.572,22.022 -11.47,22.258 -11.346,22.438C-11.222,22.618 -11.068,22.708 -10.884,22.708C-10.796,22.708 -10.7,22.692 -10.596,22.66C-10.492,22.628 -10.392,22.59 -10.296,22.546C-10.2,22.502 -10.114,22.458 -10.038,22.414C-9.962,22.37 -9.912,22.34 -9.888,22.324C-9.816,22.324 -9.772,22.36 -9.756,22.432C-9.756,22.472 -9.764,22.508 -9.78,22.54C-9.796,22.556 -9.856,22.596 -9.96,22.66C-10.064,22.724 -10.192,22.8 -10.344,22.888C-10.496,22.976 -10.664,23.07 -10.848,23.17C-11.032,23.27 -11.214,23.364 -11.394,23.452C-11.574,23.54 -11.74,23.612 -11.892,23.668C-12.044,23.724 -12.164,23.752 -12.252,23.752C-12.356,23.752 -12.446,23.71 -12.522,23.626C-12.598,23.542 -12.664,23.43 -12.72,23.29C-12.776,23.15 -12.824,22.988 -12.864,22.804C-12.904,22.62 -12.94,22.428 -12.972,22.228C-13.116,22.348 -13.3,22.49 -13.524,22.654C-13.748,22.818 -13.992,22.972 -14.256,23.116C-14.52,23.26 -14.79,23.382 -15.066,23.482C-15.342,23.582 -15.608,23.632 -15.864,23.632C-16.08,23.632 -16.268,23.598 -16.428,23.53C-16.588,23.462 -16.722,23.372 -16.83,23.26C-16.938,23.148 -17.018,23.018 -17.07,22.87C-17.122,22.722 -17.148,22.568 -17.148,22.408C-17.148,22.152 -17.07,21.942 -16.914,21.778C-16.758,21.614 -16.516,21.444 -16.188,21.268C-16.036,21.188 -15.824,21.082 -15.552,20.95C-15.28,20.818 -15.002,20.684 -14.718,20.548C-14.434,20.412 -14.17,20.282 -13.926,20.158C-13.682,20.034 -13.504,19.936 -13.392,19.864Z" style="fill-rule:nonzero;"/>
            <path d="M-4.728,21.928C-4.712,21.912 -4.698,21.914 -4.686,21.934C-4.674,21.954 -4.666,21.982 -4.662,22.018C-4.658,22.054 -4.66,22.092 -4.668,22.132C-4.676,22.172 -4.692,22.204 -4.716,22.228C-4.876,22.38 -5.076,22.54 -5.316,22.708C-5.556,22.876 -5.804,23.032 -6.06,23.176C-6.132,23.216 -6.232,23.268 -6.36,23.332C-6.488,23.396 -6.63,23.458 -6.786,23.518C-6.942,23.578 -7.102,23.63 -7.266,23.674C-7.43,23.718 -7.584,23.74 -7.728,23.74C-8.016,23.74 -8.288,23.684 -8.544,23.572C-8.8,23.46 -9.024,23.306 -9.216,23.11C-9.408,22.914 -9.558,22.68 -9.666,22.408C-9.774,22.136 -9.828,21.84 -9.828,21.52C-9.828,21.176 -9.78,20.852 -9.684,20.548C-9.588,20.244 -9.478,19.972 -9.354,19.732C-9.23,19.492 -9.112,19.29 -9,19.126C-8.888,18.962 -8.812,18.84 -8.772,18.76C-8.924,18.752 -9.062,18.746 -9.186,18.742C-9.31,18.738 -9.428,18.736 -9.54,18.736C-9.796,18.736 -10.012,18.738 -10.188,18.742C-10.364,18.746 -10.52,18.764 -10.656,18.796C-10.72,18.812 -10.78,18.844 -10.836,18.892C-10.892,18.94 -10.94,18.976 -10.98,19C-10.996,18.984 -11.018,18.962 -11.046,18.934C-11.074,18.906 -11.088,18.876 -11.088,18.844C-11.088,18.828 -11.084,18.816 -11.076,18.808C-11.076,18.8 -11.024,18.754 -10.92,18.67C-10.816,18.586 -10.686,18.486 -10.53,18.37C-10.374,18.254 -10.202,18.126 -10.014,17.986C-9.826,17.846 -9.646,17.716 -9.474,17.596C-9.302,17.476 -9.154,17.374 -9.03,17.29C-8.906,17.206 -8.824,17.156 -8.784,17.14C-8.736,17.124 -8.688,17.132 -8.64,17.164C-8.592,17.196 -8.576,17.22 -8.592,17.236C-8.616,17.252 -8.652,17.282 -8.7,17.326C-8.748,17.37 -8.764,17.408 -8.748,17.44C-8.66,17.512 -8.508,17.576 -8.292,17.632C-8.076,17.688 -7.832,17.734 -7.56,17.77C-7.288,17.806 -7.008,17.834 -6.72,17.854C-6.432,17.874 -6.172,17.884 -5.94,17.884C-5.596,17.884 -5.32,17.874 -5.112,17.854C-4.904,17.834 -4.732,17.808 -4.596,17.776C-4.468,17.744 -4.384,17.72 -4.344,17.704C-4.336,17.704 -4.32,17.716 -4.296,17.74C-4.272,17.764 -4.26,17.792 -4.26,17.824C-4.26,17.84 -4.318,17.88 -4.434,17.944C-4.55,18.008 -4.668,18.076 -4.788,18.148C-4.86,18.188 -4.946,18.24 -5.046,18.304C-5.146,18.368 -5.254,18.43 -5.37,18.49C-5.486,18.55 -5.608,18.604 -5.736,18.652C-5.864,18.7 -5.988,18.728 -6.108,18.736C-6.228,18.752 -6.368,18.764 -6.528,18.772C-6.688,18.78 -6.856,18.786 -7.032,18.79C-7.208,18.794 -7.386,18.798 -7.566,18.802C-7.746,18.806 -7.912,18.808 -8.064,18.808C-8.088,18.848 -8.126,18.914 -8.178,19.006C-8.23,19.098 -8.28,19.216 -8.328,19.36C-8.376,19.504 -8.42,19.668 -8.46,19.852C-8.5,20.036 -8.52,20.236 -8.52,20.452C-8.52,20.78 -8.47,21.082 -8.37,21.358C-8.27,21.634 -8.13,21.872 -7.95,22.072C-7.77,22.272 -7.556,22.428 -7.308,22.54C-7.06,22.652 -6.792,22.708 -6.504,22.708C-6.336,22.708 -6.174,22.688 -6.018,22.648C-5.862,22.608 -5.714,22.556 -5.574,22.492C-5.434,22.428 -5.304,22.358 -5.184,22.282C-5.064,22.206 -4.96,22.132 -4.872,22.06L-4.728,21.928Z" style="fill-rule:nonzero;"/>
            <path d="M0.804,22.192C0.716,22.288 0.58,22.42 0.396,22.588C0.212,22.756 -0.01,22.924 -0.27,23.092C-0.53,23.26 -0.82,23.404 -1.14,23.524C-1.46,23.644 -1.8,23.704 -2.16,23.704C-2.488,23.704 -2.808,23.654 -3.12,23.554C-3.432,23.454 -3.712,23.302 -3.96,23.098C-4.208,22.894 -4.406,22.634 -4.554,22.318C-4.702,22.002 -4.776,21.624 -4.776,21.184C-4.776,20.824 -4.752,20.514 -4.704,20.254C-4.656,19.994 -4.592,19.766 -4.512,19.57C-4.432,19.374 -4.342,19.206 -4.242,19.066C-4.142,18.926 -4.04,18.8 -3.936,18.688C-3.808,18.544 -3.652,18.408 -3.468,18.28C-3.284,18.152 -3.086,18.036 -2.874,17.932C-2.662,17.828 -2.438,17.746 -2.202,17.686C-1.966,17.626 -1.728,17.596 -1.488,17.596C-1.056,17.596 -0.718,17.668 -0.474,17.812C-0.23,17.956 -0.108,18.156 -0.108,18.412C-0.108,18.572 -0.156,18.72 -0.252,18.856C-0.172,18.832 -0.07,18.792 0.054,18.736C0.178,18.68 0.304,18.622 0.432,18.562C0.56,18.502 0.674,18.448 0.774,18.4C0.874,18.352 0.94,18.316 0.972,18.292C0.988,18.276 1.006,18.27 1.026,18.274C1.046,18.278 1.056,18.292 1.056,18.316C1.056,18.42 1.036,18.506 0.996,18.574C0.956,18.642 0.908,18.696 0.852,18.736C0.724,18.816 0.54,18.916 0.3,19.036C0.06,19.156 -0.206,19.282 -0.498,19.414C-0.79,19.546 -1.092,19.678 -1.404,19.81C-1.716,19.942 -2.01,20.068 -2.286,20.188C-2.562,20.308 -2.802,20.414 -3.006,20.506C-3.21,20.598 -3.348,20.664 -3.42,20.704C-3.42,20.976 -3.366,21.23 -3.258,21.466C-3.15,21.702 -3,21.908 -2.808,22.084C-2.616,22.26 -2.386,22.398 -2.118,22.498C-1.85,22.598 -1.556,22.648 -1.236,22.648C-0.948,22.648 -0.688,22.618 -0.456,22.558C-0.224,22.498 -0.028,22.43 0.132,22.354C0.292,22.278 0.418,22.21 0.51,22.15C0.602,22.09 0.652,22.06 0.66,22.06C0.692,22.06 0.724,22.074 0.756,22.102C0.788,22.13 0.804,22.16 0.804,22.192ZM-3.42,20.356C-3.284,20.308 -3.13,20.25 -2.958,20.182C-2.786,20.114 -2.618,20.04 -2.454,19.96C-2.29,19.88 -2.14,19.804 -2.004,19.732C-1.868,19.66 -1.764,19.596 -1.692,19.54C-1.548,19.436 -1.476,19.26 -1.476,19.012C-1.476,18.916 -1.494,18.816 -1.53,18.712C-1.566,18.608 -1.62,18.514 -1.692,18.43C-1.764,18.346 -1.852,18.278 -1.956,18.226C-2.06,18.174 -2.176,18.148 -2.304,18.148C-2.416,18.148 -2.536,18.186 -2.664,18.262C-2.792,18.338 -2.912,18.462 -3.024,18.634C-3.136,18.806 -3.23,19.034 -3.306,19.318C-3.382,19.602 -3.42,19.948 -3.42,20.356Z" style="fill-rule:nonzero;"/>
        </g>
        <g transform="matrix(1,0,0,1,49.0135,-4.53575)">
            <text x="-39.144px" y="23.596px" style="font-family:'Luminari-Regular', 'Luminari';font-size:12px;">Ne<tspan x="-24.108px -17.352px " y="23.596px 23.596px ">ga</tspan>te</text>
        </g>
    </g>
</svg>
