<?xml version="1.0" encoding="UTF-8" standalone="no"?>
<!DOCTYPE svg PUBLIC "-//W3C//DTD SVG 1.1//EN" "http://www.w3.org/Graphics/SVG/1.1/DTD/svg11.dtd">
<svg width="100%" height="100%" viewBox="0 0 75 380" version="1.1" xmlns="http://www.w3.org/2000/svg" xmlns:xlink="http://www.w3.org/1999/xlink" xml:space="preserve" xmlns:serif="http://www.serif.com/" style="fill-rule:evenodd;clip-rule:evenodd;stroke-linecap:round;stroke-linejoin:round;stroke-miterlimit:1.5;">
    <g transform="matrix(0.449246,0,0,1.48634,-12.1224,-44.3619)">
        <rect x="26.984" y="29.846" width="166.946" height="255.662" style="fill:rgb(242,242,242);"/>
    </g>
    <g id="Label" transform="matrix(1,0,0,1,-19.3858,11.8096)">
        <g transform="matrix(1,0,0,1,58.164,339.27)">
            <g transform="matrix(0.8973,0,0,0.884326,9.28968,12.4373)">
                <circle cx="3.434" cy="5.159" r="2.172" style="stroke:black;stroke-width:0.94px;"/>
            </g>
            <g transform="matrix(0.8973,0,0,0.884326,4.54775,12.4373)">
                <circle cx="3.434" cy="5.159" r="2.172" style="fill:white;stroke:black;stroke-width:0.94px;"/>
            </g>
            <g transform="matrix(0.8973,0,0,0.884326,-0.194181,12.4373)">
                <circle cx="3.434" cy="5.159" r="2.172" style="stroke:black;stroke-width:0.94px;"/>
            </g>
            <g transform="matrix(0.8973,0,0,0.884326,14.0316,12.4373)">
                <circle cx="3.434" cy="5.159" r="2.172" style="stroke:black;stroke-width:0.94px;"/>
            </g>
            <g transform="matrix(0.8973,0,0,0.884326,9.28968,6.70878)">
                <circle cx="3.434" cy="5.159" r="2.172" style="fill:white;stroke:black;stroke-width:0.94px;"/>
            </g>
            <g transform="matrix(0.8973,0,0,0.884326,4.54775,6.70878)">
                <circle cx="3.434" cy="5.159" r="2.172" style="stroke:black;stroke-width:0.94px;"/>
            </g>
            <g transform="matrix(0.8973,0,0,0.884326,-0.194181,6.70878)">
                <circle cx="3.434" cy="5.159" r="2.172" style="stroke:black;stroke-width:0.94px;"/>
            </g>
            <g transform="matrix(0.8973,0,0,0.884326,14.0316,6.70878)">
                <circle cx="3.434" cy="5.159" r="2.172" style="fill:white;stroke:black;stroke-width:0.94px;"/>
            </g>
            <g transform="matrix(0.8973,0,0,0.884326,9.28968,0.980236)">
                <circle cx="3.434" cy="5.159" r="2.172" style="fill:white;stroke:black;stroke-width:0.94px;"/>
            </g>
            <g transform="matrix(0.8973,0,0,0.884326,4.54775,0.980236)">
                <circle cx="3.434" cy="5.159" r="2.172" style="fill:white;stroke:black;stroke-width:0.94px;"/>
            </g>
            <g transform="matrix(0.8973,0,0,0.884326,-0.194181,0.980236)">
                <circle cx="3.434" cy="5.159" r="2.172" style="stroke:black;stroke-width:0.94px;"/>
            </g>
            <g transform="matrix(0.8973,0,0,0.884326,14.0316,0.980236)">
                <circle cx="3.434" cy="5.159" r="2.172" style="stroke:black;stroke-width:0.94px;"/>
            </g>
        </g>
        <g transform="matrix(0.0195312,0,0,0.0221547,34.9714,337.813)">
            <g transform="matrix(1,0,0,1,-143.343,98.6554)">
                <ellipse cx="360.896" cy="293.762" rx="136.961" ry="230.443" style="fill:rgb(235,235,235);stroke:black;stroke-width:58.45px;"/>
            </g>
            <g transform="matrix(1,0,0,1,445.551,98.6554)">
                <ellipse cx="360.896" cy="293.762" rx="136.961" ry="230.443" style="fill:rgb(235,235,235);stroke:black;stroke-width:58.45px;"/>
            </g>
            <g transform="matrix(1,0,0,1,-34.3236,-20.6488)">
                <ellipse cx="546.324" cy="643.509" rx="431.408" ry="296.899" style="fill:rgb(235,235,235);stroke:black;stroke-width:58.45px;"/>
            </g>
            <circle cx="406.664" cy="569.758" r="105.336" style="fill:rgb(235,235,235);stroke:black;stroke-width:58.45px;"/>
            <g transform="matrix(1,0,0,1,210.672,0)">
                <circle cx="406.664" cy="569.758" r="105.336" style="fill:rgb(235,235,235);stroke:black;stroke-width:58.45px;"/>
            </g>
            <g transform="matrix(1,0,0,1,-53.1856,50.0357)">
                <ellipse cx="565.186" cy="671.455" rx="210.672" ry="98.631" style="fill:rgb(235,235,235);stroke:black;stroke-width:58.45px;"/>
            </g>
            <g transform="matrix(51.2,0,0,45.1371,0.670978,88.9676)">
                <path d="M12.057,13.791C12.057,13.668 11.958,13.568 11.835,13.568L8.139,13.568C8.016,13.568 7.916,13.668 7.916,13.791L7.916,14.236C7.916,14.359 8.016,14.458 8.139,14.458L11.835,14.458C11.958,14.458 12.057,14.359 12.057,14.236L12.057,13.791Z"/>
            </g>
        </g>
    </g>
    <g transform="matrix(0.75,0,0,1,-44.1572,137.758)">
        <g transform="matrix(0.592666,0,0,72.8139,50.626,-21717.6)">
            <rect x="13.921" y="296.737" width="168.729" height="3.935" style="fill:rgb(191,191,191);"/>
        </g>
        <g transform="matrix(2.75278,0,0,0.695794,-386.957,112.334)">
            <rect x="161.957" y="57.989" width="36.327" height="2.261"/>
        </g>
        <g transform="matrix(2.75278,0,0,0.695794,-386.957,78.6945)">
            <rect x="161.957" y="57.989" width="36.327" height="2.261"/>
        </g>
        <g transform="matrix(2.75278,0,0,0.695794,-386.957,43.3266)">
            <rect x="161.957" y="57.989" width="36.327" height="2.261"/>
        </g>
        <g transform="matrix(2.75278,0,0,0.695794,-386.957,8.01938)">
            <rect x="161.957" y="57.989" width="36.327" height="2.261"/>
        </g>
        <g transform="matrix(2.75278,0,0,0.695794,-386.957,-25.4274)">
            <rect x="161.957" y="57.989" width="36.327" height="2.261"/>
        </g>
        <g transform="matrix(2.75278,0,0,0.695794,-386.957,-60.2029)">
            <rect x="161.957" y="57.989" width="36.327" height="2.261"/>
        </g>
        <g transform="matrix(2.75278,0,0,0.695794,-386.957,-94.5002)">
            <rect x="161.957" y="57.989" width="36.327" height="2.261"/>
        </g>
        <g transform="matrix(2.75278,0,0,0.695794,-386.957,-130.158)">
            <rect x="161.957" y="57.989" width="36.327" height="2.261"/>
        </g>
        <g transform="matrix(1.33333,0,0,1,21.081,-182.392)">
            <g id="Bit8">
                <circle id="Status1-led" serif:id="Status1#led" cx="42.167" cy="335.861" r="3.82" style="fill:rgb(230,230,230);"/>
            </g>
        </g>
        <g transform="matrix(1.33333,0,0,1,21.0789,-216.032)">
            <g id="Bit7">
                <circle id="Status1-led1" serif:id="Status1#led" cx="42.167" cy="335.861" r="3.82" style="fill:rgb(230,230,230);"/>
            </g>
        </g>
        <g transform="matrix(1.33333,0,0,1,21.0789,-251.4)">
            <g id="Bit6">
                <circle id="Status1-led2" serif:id="Status1#led" cx="42.167" cy="335.861" r="3.82" style="fill:rgb(230,230,230);"/>
            </g>
        </g>
        <g transform="matrix(1.33328,0.00917786,-0.0122371,0.999958,25.1934,-287.252)">
            <g id="Bit5">
                <circle id="Status1-led3" serif:id="Status1#led" cx="42.167" cy="335.861" r="3.82" style="fill:rgb(230,230,230);"/>
            </g>
        </g>
        <g transform="matrix(1.33333,0,0,1,21.081,-320.153)">
            <g id="Bit4">
                <circle id="Status1-led4" serif:id="Status1#led" cx="42.167" cy="335.861" r="3.82" style="fill:rgb(230,230,230);"/>
            </g>
        </g>
        <g transform="matrix(1.33333,0,0,1,21.081,-354.929)">
            <g id="Bit3">
                <circle id="Status1-led5" serif:id="Status1#led" cx="42.167" cy="335.861" r="3.82" style="fill:rgb(230,230,230);"/>
            </g>
        </g>
        <g transform="matrix(1.33333,0,0,1,21.081,-389.226)">
            <g id="Bit2">
                <circle id="Status1-led6" serif:id="Status1#led" cx="42.167" cy="335.861" r="3.82" style="fill:rgb(230,230,230);"/>
            </g>
        </g>
        <g transform="matrix(1.33333,0,0,1,21.081,-424.884)">
            <g id="Bit1">
                <circle id="Status1-led7" serif:id="Status1#led" cx="42.167" cy="335.861" r="3.82" style="fill:rgb(230,230,230);"/>
            </g>
        </g>
    </g>
    <g id="BusIn-led" serif:id="BusIn#led" transform="matrix(1,0,0,1,-27.8135,10.8256)">
        <circle cx="42.167" cy="335.861" r="3.82" style="fill:rgb(230,230,230);"/>
    </g>
    <g id="BusOut-led" serif:id="BusOut#led" transform="matrix(1,0,0,1,18.1865,10.8256)">
        <circle cx="42.167" cy="335.861" r="3.82" style="fill:rgb(230,230,230);"/>
    </g>
    <g transform="matrix(1,0,0,1,-40.578,26.5989)">
        <g transform="matrix(0.237749,0,0,50.0423,62.1533,-14804.5)">
            <rect x="13.921" y="296.737" width="168.729" height="3.935" style="fill:rgb(242,242,242);"/>
        </g>
        <g transform="matrix(1,0,0,1,0.520487,98.7519)">
            <g id="FlipSample-ledbutton" serif:id="FlipSample#ledbutton" transform="matrix(0.174892,0,0,0.175002,61.402,86.7121)">
                <rect x="53.94" y="106.916" width="161.978" height="161.978" style="fill:rgb(242,242,242);"/>
            </g>
            <g id="GateSample-input" serif:id="GateSample#input" transform="matrix(0.174892,0,0,0.175002,61.402,50.9114)">
                <rect x="53.94" y="106.916" width="161.978" height="161.978" style="fill:rgb(217,217,217);"/>
            </g>
            <g transform="matrix(1,0,0,1,87.6198,-82.714)">
                <path d="M-9.859,139.177L-10.879,139.177L-10.879,138.947C-10.879,138.714 -10.934,138.512 -11.044,138.342C-11.154,138.172 -11.339,138.087 -11.599,138.087C-11.739,138.087 -11.853,138.114 -11.939,138.167C-12.026,138.22 -12.096,138.287 -12.149,138.367C-12.203,138.454 -12.239,138.552 -12.259,138.662C-12.279,138.772 -12.289,138.887 -12.289,139.007C-12.289,139.147 -12.284,139.264 -12.274,139.357C-12.264,139.45 -12.239,139.534 -12.199,139.607C-12.159,139.68 -12.101,139.744 -12.024,139.797C-11.948,139.85 -11.843,139.904 -11.709,139.957L-10.929,140.267C-10.703,140.354 -10.519,140.455 -10.379,140.572C-10.239,140.689 -10.129,140.824 -10.049,140.977C-9.976,141.137 -9.926,141.319 -9.899,141.522C-9.873,141.725 -9.859,141.957 -9.859,142.217C-9.859,142.517 -9.889,142.795 -9.949,143.052C-10.009,143.309 -10.106,143.527 -10.239,143.707C-10.379,143.894 -10.563,144.04 -10.789,144.147C-11.016,144.254 -11.293,144.307 -11.619,144.307C-11.866,144.307 -12.096,144.264 -12.309,144.177C-12.523,144.09 -12.706,143.97 -12.859,143.817C-13.013,143.664 -13.134,143.485 -13.224,143.282C-13.314,143.079 -13.359,142.857 -13.359,142.617L-13.359,142.237L-12.339,142.237L-12.339,142.557C-12.339,142.744 -12.284,142.912 -12.174,143.062C-12.064,143.212 -11.879,143.287 -11.619,143.287C-11.446,143.287 -11.311,143.262 -11.214,143.212C-11.118,143.162 -11.043,143.09 -10.989,142.997C-10.936,142.904 -10.904,142.792 -10.894,142.662C-10.884,142.532 -10.879,142.387 -10.879,142.227C-10.879,142.04 -10.886,141.887 -10.899,141.767C-10.913,141.647 -10.939,141.55 -10.979,141.477C-11.026,141.404 -11.088,141.344 -11.164,141.297C-11.241,141.25 -11.343,141.2 -11.469,141.147L-12.199,140.847C-12.639,140.667 -12.934,140.429 -13.084,140.132C-13.234,139.835 -13.309,139.464 -13.309,139.017C-13.309,138.75 -13.273,138.497 -13.199,138.257C-13.126,138.017 -13.016,137.81 -12.869,137.637C-12.729,137.464 -12.551,137.325 -12.334,137.222C-12.118,137.119 -11.859,137.067 -11.559,137.067C-11.306,137.067 -11.074,137.114 -10.864,137.207C-10.654,137.3 -10.473,137.424 -10.319,137.577C-10.013,137.897 -9.859,138.264 -9.859,138.677L-9.859,139.177Z" style="fill-rule:nonzero;"/>
                <path d="M-7.229,144.247L-7.229,143.727L-7.249,143.727C-7.383,143.914 -7.518,144.057 -7.654,144.157C-7.791,144.257 -7.983,144.307 -8.229,144.307C-8.349,144.307 -8.471,144.289 -8.594,144.252C-8.718,144.215 -8.836,144.147 -8.949,144.047C-9.063,143.954 -9.154,143.819 -9.224,143.642C-9.294,143.465 -9.329,143.237 -9.329,142.957C-9.329,142.67 -9.306,142.419 -9.259,142.202C-9.213,141.985 -9.126,141.804 -8.999,141.657C-8.879,141.517 -8.716,141.412 -8.509,141.342C-8.303,141.272 -8.039,141.237 -7.719,141.237L-7.609,141.237C-7.569,141.237 -7.533,141.24 -7.499,141.247C-7.466,141.254 -7.426,141.257 -7.379,141.257C-7.333,141.257 -7.283,141.26 -7.229,141.267L-7.229,140.737C-7.229,140.564 -7.266,140.42 -7.339,140.307C-7.413,140.194 -7.546,140.137 -7.739,140.137C-7.873,140.137 -7.994,140.18 -8.104,140.267C-8.214,140.354 -8.286,140.48 -8.319,140.647L-9.309,140.647C-9.283,140.194 -9.129,139.827 -8.849,139.547C-8.716,139.414 -8.556,139.309 -8.369,139.232C-8.183,139.155 -7.973,139.117 -7.739,139.117C-7.526,139.117 -7.326,139.15 -7.139,139.217C-6.953,139.284 -6.789,139.384 -6.649,139.517C-6.516,139.65 -6.409,139.817 -6.329,140.017C-6.249,140.217 -6.209,140.45 -6.209,140.717L-6.209,144.247L-7.229,144.247ZM-7.229,142.067C-7.343,142.047 -7.436,142.037 -7.509,142.037C-7.729,142.037 -7.918,142.089 -8.074,142.192C-8.231,142.295 -8.309,142.484 -8.309,142.757C-8.309,142.95 -8.263,143.107 -8.169,143.227C-8.076,143.347 -7.946,143.407 -7.779,143.407C-7.606,143.407 -7.471,143.35 -7.374,143.237C-7.278,143.124 -7.229,142.964 -7.229,142.757L-7.229,142.067Z" style="fill-rule:nonzero;"/>
                <path d="M-5.459,144.247L-5.459,139.177L-4.439,139.177L-4.439,139.667L-4.419,139.667C-4.313,139.507 -4.184,139.375 -4.034,139.272C-3.884,139.169 -3.693,139.117 -3.459,139.117C-3.239,139.117 -3.056,139.17 -2.909,139.277C-2.763,139.384 -2.643,139.5 -2.549,139.627C-2.423,139.487 -2.283,139.367 -2.129,139.267C-1.976,139.167 -1.763,139.117 -1.489,139.117C-1.363,139.117 -1.233,139.139 -1.099,139.182C-0.966,139.225 -0.846,139.297 -0.739,139.397C-0.633,139.497 -0.546,139.625 -0.479,139.782C-0.413,139.939 -0.379,140.13 -0.379,140.357L-0.379,144.247L-1.399,144.247L-1.399,140.737C-1.399,140.55 -1.443,140.404 -1.529,140.297C-1.616,140.19 -1.739,140.137 -1.899,140.137C-2.093,140.137 -2.226,140.197 -2.299,140.317C-2.373,140.437 -2.409,140.61 -2.409,140.837L-2.409,144.247L-3.429,144.247L-3.429,140.737C-3.429,140.55 -3.473,140.404 -3.559,140.297C-3.646,140.19 -3.769,140.137 -3.929,140.137C-4.123,140.137 -4.256,140.197 -4.329,140.317C-4.403,140.437 -4.439,140.61 -4.439,140.837L-4.439,144.247L-5.459,144.247Z" style="fill-rule:nonzero;"/>
                <path d="M0.461,146.297L0.461,139.177L1.481,139.177L1.481,139.637C1.607,139.49 1.737,139.367 1.871,139.267C2.004,139.167 2.197,139.117 2.451,139.117C2.871,139.117 3.167,139.277 3.341,139.597C3.401,139.71 3.444,139.85 3.471,140.017C3.497,140.184 3.511,140.407 3.511,140.687L3.511,142.617C3.511,142.99 3.501,143.26 3.481,143.427C3.441,143.76 3.287,144.01 3.021,144.177C2.887,144.264 2.694,144.307 2.441,144.307C2.241,144.307 2.062,144.262 1.906,144.172C1.749,144.082 1.614,143.954 1.501,143.787L1.481,143.787L1.481,146.297L0.461,146.297ZM2.491,140.827C2.491,140.62 2.451,140.454 2.371,140.327C2.291,140.2 2.164,140.137 1.991,140.137C1.837,140.137 1.714,140.195 1.621,140.312C1.527,140.429 1.481,140.58 1.481,140.767L1.481,142.737C1.481,142.897 1.529,143.029 1.626,143.132C1.722,143.235 1.844,143.287 1.991,143.287C2.184,143.287 2.316,143.227 2.386,143.107C2.456,142.987 2.491,142.847 2.491,142.687L2.491,140.827Z" style="fill-rule:nonzero;"/>
                <path d="M4.291,137.127L5.311,137.127L5.311,142.817C5.311,143.01 5.346,143.142 5.416,143.212C5.486,143.282 5.617,143.327 5.811,143.347L5.811,144.307C5.577,144.307 5.367,144.289 5.181,144.252C4.994,144.215 4.834,144.144 4.701,144.037C4.567,143.937 4.466,143.795 4.396,143.612C4.326,143.429 4.291,143.187 4.291,142.887L4.291,137.127Z" style="fill-rule:nonzero;"/>
                <path d="M9.161,142.097L7.141,142.097L7.141,142.787C7.141,142.947 7.186,143.07 7.276,143.157C7.366,143.244 7.487,143.287 7.641,143.287C7.834,143.287 7.962,143.23 8.026,143.117C8.089,143.004 8.127,142.89 8.141,142.777L9.161,142.777C9.161,143.224 9.024,143.584 8.751,143.857C8.617,143.997 8.457,144.107 8.271,144.187C8.084,144.267 7.874,144.307 7.641,144.307C7.321,144.307 7.049,144.24 6.826,144.107C6.602,143.974 6.431,143.797 6.311,143.577C6.237,143.444 6.187,143.29 6.161,143.117C6.134,142.944 6.121,142.754 6.121,142.547L6.121,140.877C6.121,140.67 6.134,140.48 6.161,140.307C6.187,140.134 6.237,139.98 6.311,139.847C6.431,139.627 6.602,139.45 6.826,139.317C7.049,139.184 7.321,139.117 7.641,139.117C7.874,139.117 8.086,139.157 8.276,139.237C8.466,139.317 8.627,139.427 8.761,139.567C9.027,139.867 9.161,140.244 9.161,140.697L9.161,142.097ZM7.141,141.297L8.141,141.297L8.141,140.717C8.141,140.524 8.096,140.379 8.006,140.282C7.916,140.185 7.794,140.137 7.641,140.137C7.487,140.137 7.366,140.185 7.276,140.282C7.186,140.379 7.141,140.524 7.141,140.717L7.141,141.297Z" style="fill-rule:nonzero;"/>
            </g>
            <g transform="matrix(1,0,0,1,87.6198,-82.714)">
                <text x="-13.639px" y="144.247px" style="font-family:'DINCondensed-Bold', 'DIN Condensed';font-weight:700;font-stretch:condensed;font-size:10px;">Sample</text>
            </g>
        </g>
        <g transform="matrix(1,0,0,1,0.520487,0)">
            <g id="FlipFreeze-ledbutton" serif:id="FlipFreeze#ledbutton" transform="matrix(0.174892,0,0,0.175002,61.402,86.4739)">
                <rect x="53.94" y="106.916" width="161.978" height="161.978" style="fill:white;"/>
            </g>
            <g id="GateFreeze-input" serif:id="GateFreeze#input" transform="matrix(0.174892,0,0,0.175002,61.402,50.9114)">
                <rect x="53.94" y="106.916" width="161.978" height="161.978" style="fill:rgb(217,217,217);"/>
            </g>
            <g transform="matrix(1,0,0,1,88.3194,-82.7856)">
                <path d="M-13.159,144.247L-13.159,137.127L-10.119,137.127L-10.119,138.087L-12.139,138.087L-12.139,140.247L-10.379,140.247L-10.379,141.207L-12.139,141.207L-12.139,144.247L-13.159,144.247Z" style="fill-rule:nonzero;"/>
                <path d="M-9.699,144.247L-9.699,139.177L-8.679,139.177L-8.679,139.717C-8.473,139.53 -8.269,139.384 -8.069,139.277C-7.869,139.17 -7.623,139.117 -7.329,139.117L-7.329,140.197C-7.429,140.157 -7.533,140.137 -7.639,140.137C-7.746,140.137 -7.861,140.155 -7.984,140.192C-8.108,140.229 -8.219,140.29 -8.319,140.377C-8.426,140.464 -8.513,140.577 -8.579,140.717C-8.646,140.857 -8.679,141.03 -8.679,141.237L-8.679,144.247L-9.699,144.247Z" style="fill-rule:nonzero;"/>
                <path d="M-3.969,142.097L-5.989,142.097L-5.989,142.787C-5.989,142.947 -5.944,143.07 -5.854,143.157C-5.764,143.244 -5.643,143.287 -5.489,143.287C-5.296,143.287 -5.168,143.23 -5.104,143.117C-5.041,143.004 -5.003,142.89 -4.989,142.777L-3.969,142.777C-3.969,143.224 -4.106,143.584 -4.379,143.857C-4.513,143.997 -4.673,144.107 -4.859,144.187C-5.046,144.267 -5.256,144.307 -5.489,144.307C-5.809,144.307 -6.081,144.24 -6.304,144.107C-6.528,143.974 -6.699,143.797 -6.819,143.577C-6.893,143.444 -6.943,143.29 -6.969,143.117C-6.996,142.944 -7.009,142.754 -7.009,142.547L-7.009,140.877C-7.009,140.67 -6.996,140.48 -6.969,140.307C-6.943,140.134 -6.893,139.98 -6.819,139.847C-6.699,139.627 -6.528,139.45 -6.304,139.317C-6.081,139.184 -5.809,139.117 -5.489,139.117C-5.256,139.117 -5.044,139.157 -4.854,139.237C-4.664,139.317 -4.503,139.427 -4.369,139.567C-4.103,139.867 -3.969,140.244 -3.969,140.697L-3.969,142.097ZM-5.989,141.297L-4.989,141.297L-4.989,140.717C-4.989,140.524 -5.034,140.379 -5.124,140.282C-5.214,140.185 -5.336,140.137 -5.489,140.137C-5.643,140.137 -5.764,140.185 -5.854,140.282C-5.944,140.379 -5.989,140.524 -5.989,140.717L-5.989,141.297Z" style="fill-rule:nonzero;"/>
                <path d="M-0.269,142.097L-2.289,142.097L-2.289,142.787C-2.289,142.947 -2.244,143.07 -2.154,143.157C-2.064,143.244 -1.943,143.287 -1.789,143.287C-1.596,143.287 -1.468,143.23 -1.404,143.117C-1.341,143.004 -1.303,142.89 -1.289,142.777L-0.269,142.777C-0.269,143.224 -0.406,143.584 -0.679,143.857C-0.813,143.997 -0.973,144.107 -1.159,144.187C-1.346,144.267 -1.556,144.307 -1.789,144.307C-2.109,144.307 -2.381,144.24 -2.604,144.107C-2.828,143.974 -2.999,143.797 -3.119,143.577C-3.193,143.444 -3.243,143.29 -3.269,143.117C-3.296,142.944 -3.309,142.754 -3.309,142.547L-3.309,140.877C-3.309,140.67 -3.296,140.48 -3.269,140.307C-3.243,140.134 -3.193,139.98 -3.119,139.847C-2.999,139.627 -2.828,139.45 -2.604,139.317C-2.381,139.184 -2.109,139.117 -1.789,139.117C-1.556,139.117 -1.344,139.157 -1.154,139.237C-0.964,139.317 -0.803,139.427 -0.669,139.567C-0.403,139.867 -0.269,140.244 -0.269,140.697L-0.269,142.097ZM-2.289,141.297L-1.289,141.297L-1.289,140.717C-1.289,140.524 -1.334,140.379 -1.424,140.282C-1.514,140.185 -1.636,140.137 -1.789,140.137C-1.943,140.137 -2.064,140.185 -2.154,140.282C-2.244,140.379 -2.289,140.524 -2.289,140.717L-2.289,141.297Z" style="fill-rule:nonzero;"/>
                <path d="M0.231,144.247L0.231,143.437L1.881,140.077L0.361,140.077L0.361,139.177L3.041,139.177L3.041,139.987L1.391,143.287L3.041,143.287L3.041,144.247L0.231,144.247Z" style="fill-rule:nonzero;"/>
                <path d="M6.521,142.097L4.501,142.097L4.501,142.787C4.501,142.947 4.546,143.07 4.636,143.157C4.726,143.244 4.847,143.287 5.001,143.287C5.194,143.287 5.322,143.23 5.386,143.117C5.449,143.004 5.487,142.89 5.501,142.777L6.521,142.777C6.521,143.224 6.384,143.584 6.111,143.857C5.977,143.997 5.817,144.107 5.631,144.187C5.444,144.267 5.234,144.307 5.001,144.307C4.681,144.307 4.409,144.24 4.186,144.107C3.962,143.974 3.791,143.797 3.671,143.577C3.597,143.444 3.547,143.29 3.521,143.117C3.494,142.944 3.481,142.754 3.481,142.547L3.481,140.877C3.481,140.67 3.494,140.48 3.521,140.307C3.547,140.134 3.597,139.98 3.671,139.847C3.791,139.627 3.962,139.45 4.186,139.317C4.409,139.184 4.681,139.117 5.001,139.117C5.234,139.117 5.446,139.157 5.636,139.237C5.826,139.317 5.987,139.427 6.121,139.567C6.387,139.867 6.521,140.244 6.521,140.697L6.521,142.097ZM4.501,141.297L5.501,141.297L5.501,140.717C5.501,140.524 5.456,140.379 5.366,140.282C5.276,140.185 5.154,140.137 5.001,140.137C4.847,140.137 4.726,140.185 4.636,140.282C4.546,140.379 4.501,140.524 4.501,140.717L4.501,141.297Z" style="fill-rule:nonzero;"/>
            </g>
            <g transform="matrix(1,0,0,1,88.3194,-82.7856)">
                <text x="-13.639px" y="144.247px" style="font-family:'DINCondensed-Bold', 'DIN Condensed';font-weight:700;font-stretch:condensed;font-size:10px;">F<tspan x="-10.119px -7.339px " y="144.247px 144.247px ">re</tspan>eze</text>
            </g>
        </g>
    </g>
    <g transform="matrix(1,0,0,1,8.934,0.576)">
        <g transform="matrix(1,0,0,1,47.6875,-4.53575)">
            <path d="M-33.648,21.196C-33.76,21.172 -33.884,21.152 -34.02,21.136C-34.156,21.12 -34.3,21.108 -34.452,21.1C-34.604,21.092 -34.754,21.086 -34.902,21.082C-35.05,21.078 -35.188,21.076 -35.316,21.076L-35.688,21.076C-35.744,21.076 -35.792,21.08 -35.832,21.088C-35.872,21.096 -35.892,21.108 -35.892,21.124C-35.892,21.332 -35.89,21.574 -35.886,21.85C-35.882,22.126 -35.874,22.402 -35.862,22.678C-35.85,22.954 -35.836,23.208 -35.82,23.44C-35.804,23.672 -35.78,23.84 -35.748,23.944C-35.732,24.008 -35.664,24.054 -35.544,24.082C-35.424,24.11 -35.288,24.124 -35.136,24.124C-35.072,24.124 -35.006,24.122 -34.938,24.118C-34.87,24.114 -34.792,24.112 -34.704,24.112C-34.616,24.112 -34.548,24.132 -34.5,24.172C-34.452,24.212 -34.428,24.26 -34.428,24.316C-34.428,24.38 -34.434,24.436 -34.446,24.484C-34.458,24.532 -34.544,24.556 -34.704,24.556C-34.768,24.556 -34.87,24.552 -35.01,24.544C-35.15,24.536 -35.302,24.528 -35.466,24.52C-35.63,24.512 -35.8,24.512 -35.976,24.52C-36.152,24.528 -36.308,24.544 -36.444,24.568C-36.764,24.632 -37.064,24.706 -37.344,24.79C-37.624,24.874 -37.876,24.96 -38.1,25.048C-38.324,25.136 -38.512,25.222 -38.664,25.306C-38.816,25.39 -38.924,25.468 -38.988,25.54C-39.02,25.58 -39.044,25.6 -39.06,25.6L-39.12,25.6C-39.136,25.6 -39.176,25.578 -39.24,25.534C-39.304,25.49 -39.336,25.432 -39.336,25.36C-39.336,25.32 -39.27,25.262 -39.138,25.186C-39.006,25.11 -38.848,25.03 -38.664,24.946C-38.48,24.862 -38.288,24.782 -38.088,24.706C-37.888,24.63 -37.716,24.572 -37.572,24.532C-37.532,24.476 -37.498,24.318 -37.47,24.058C-37.442,23.798 -37.418,23.418 -37.398,22.918C-37.378,22.418 -37.362,21.792 -37.35,21.04C-37.338,20.288 -37.328,19.388 -37.32,18.34C-37.32,18.052 -37.324,17.758 -37.332,17.458C-37.34,17.158 -37.352,16.878 -37.368,16.618C-37.384,16.358 -37.408,16.132 -37.44,15.94C-37.472,15.748 -37.512,15.612 -37.56,15.532C-37.6,15.476 -37.674,15.438 -37.782,15.418C-37.89,15.398 -38.016,15.388 -38.16,15.388L-38.778,15.388C-38.83,15.388 -38.884,15.382 -38.94,15.37C-38.996,15.358 -39.042,15.34 -39.078,15.316C-39.114,15.292 -39.132,15.26 -39.132,15.22C-39.132,15.132 -39.12,15.07 -39.096,15.034C-39.072,14.998 -38.964,14.98 -38.772,14.98C-38.692,14.98 -38.592,14.984 -38.472,14.992C-38.352,15 -38.23,15.006 -38.106,15.01C-37.982,15.014 -37.858,15.02 -37.734,15.028C-37.61,15.036 -37.5,15.04 -37.404,15.04C-37.148,15.04 -36.83,15.016 -36.45,14.968C-36.07,14.92 -35.68,14.888 -35.28,14.872C-34.984,14.864 -34.682,14.858 -34.374,14.854C-34.066,14.85 -33.778,14.846 -33.51,14.842C-33.242,14.838 -33.01,14.834 -32.814,14.83C-32.618,14.826 -32.484,14.816 -32.412,14.8C-32.34,14.576 -32.26,14.382 -32.172,14.218C-32.084,14.054 -31.992,13.968 -31.896,13.96C-31.856,13.96 -31.802,13.974 -31.734,14.002C-31.666,14.03 -31.632,14.068 -31.632,14.116C-31.656,14.14 -31.676,14.164 -31.692,14.188C-31.724,14.236 -31.74,14.272 -31.74,14.296C-31.836,14.464 -31.922,14.68 -31.998,14.944C-32.074,15.208 -32.138,15.48 -32.19,15.76C-32.242,16.04 -32.28,16.312 -32.304,16.576C-32.328,16.84 -32.328,17.06 -32.304,17.236C-32.328,17.356 -32.376,17.416 -32.448,17.416C-32.576,17.416 -32.654,17.394 -32.682,17.35C-32.71,17.306 -32.716,17.26 -32.7,17.212C-32.684,17.148 -32.672,17.066 -32.664,16.966C-32.656,16.866 -32.652,16.784 -32.652,16.72C-32.652,16.528 -32.716,16.362 -32.844,16.222C-32.972,16.082 -33.144,15.966 -33.36,15.874C-33.576,15.782 -33.83,15.712 -34.122,15.664C-34.414,15.616 -34.724,15.592 -35.052,15.592C-35.14,15.592 -35.258,15.594 -35.406,15.598C-35.554,15.602 -35.664,15.636 -35.736,15.7C-35.752,15.764 -35.768,15.9 -35.784,16.108C-35.8,16.316 -35.814,16.562 -35.826,16.846C-35.838,17.13 -35.848,17.434 -35.856,17.758C-35.864,18.082 -35.87,18.396 -35.874,18.7C-35.878,19.004 -35.882,19.28 -35.886,19.528C-35.89,19.776 -35.892,19.96 -35.892,20.08C-35.732,20.088 -35.578,20.092 -35.43,20.092L-34.992,20.092C-34.512,20.1 -34.09,20.09 -33.726,20.062C-33.362,20.034 -33.12,20 -33,19.96C-32.928,19.936 -32.87,19.902 -32.826,19.858C-32.782,19.814 -32.746,19.768 -32.718,19.72C-32.69,19.672 -32.662,19.63 -32.634,19.594C-32.606,19.558 -32.576,19.54 -32.544,19.54C-32.504,19.54 -32.464,19.56 -32.424,19.6C-32.384,19.64 -32.372,19.676 -32.388,19.708C-32.436,19.796 -32.48,19.918 -32.52,20.074C-32.56,20.23 -32.594,20.402 -32.622,20.59C-32.65,20.778 -32.674,20.972 -32.694,21.172C-32.714,21.372 -32.724,21.56 -32.724,21.736C-32.724,21.768 -32.722,21.8 -32.718,21.832C-32.714,21.864 -32.712,21.9 -32.712,21.94C-32.712,21.964 -32.73,21.982 -32.766,21.994C-32.802,22.006 -32.838,22.012 -32.874,22.012C-32.91,22.012 -32.944,22.008 -32.976,22C-33.008,21.992 -33.024,21.976 -33.024,21.952C-33.024,21.904 -33.028,21.846 -33.036,21.778C-33.044,21.71 -33.062,21.644 -33.09,21.58C-33.118,21.516 -33.162,21.454 -33.222,21.394C-33.282,21.334 -33.364,21.284 -33.468,21.244L-33.648,21.196Z" style="fill-rule:nonzero;"/>
            <path d="M-25.92,18.496C-26.008,18.568 -26.112,18.658 -26.232,18.766C-26.352,18.874 -26.478,18.978 -26.61,19.078C-26.742,19.178 -26.876,19.264 -27.012,19.336C-27.148,19.408 -27.28,19.444 -27.408,19.444C-27.52,19.444 -27.62,19.418 -27.708,19.366C-27.796,19.314 -27.878,19.258 -27.954,19.198C-28.03,19.138 -28.104,19.082 -28.176,19.03C-28.248,18.978 -28.324,18.952 -28.404,18.952C-28.62,18.952 -28.802,19.04 -28.95,19.216C-29.098,19.392 -29.218,19.616 -29.31,19.888C-29.402,20.16 -29.47,20.456 -29.514,20.776C-29.558,21.096 -29.58,21.404 -29.58,21.7C-29.58,21.948 -29.57,22.15 -29.55,22.306C-29.53,22.462 -29.5,22.586 -29.46,22.678C-29.42,22.77 -29.366,22.832 -29.298,22.864C-29.23,22.896 -29.148,22.912 -29.052,22.912C-28.948,22.912 -28.836,22.896 -28.716,22.864C-28.692,22.856 -28.674,22.872 -28.662,22.912C-28.65,22.952 -28.644,22.984 -28.644,23.008C-28.644,23.024 -28.656,23.042 -28.68,23.062C-28.704,23.082 -28.72,23.092 -28.728,23.092C-28.904,23.164 -29.084,23.242 -29.268,23.326C-29.452,23.41 -29.604,23.48 -29.724,23.536C-29.836,23.584 -29.97,23.636 -30.126,23.692C-30.282,23.748 -30.416,23.776 -30.528,23.776C-30.656,23.776 -30.762,23.756 -30.846,23.716C-30.93,23.676 -30.972,23.636 -30.972,23.596C-30.972,23.556 -30.962,23.52 -30.942,23.488C-30.922,23.456 -30.904,23.396 -30.888,23.308C-30.872,23.188 -30.854,23.046 -30.834,22.882C-30.814,22.718 -30.794,22.54 -30.774,22.348C-30.754,22.156 -30.738,21.958 -30.726,21.754C-30.714,21.55 -30.708,21.348 -30.708,21.148C-30.708,20.7 -30.722,20.32 -30.75,20.008C-30.778,19.696 -30.828,19.444 -30.9,19.252C-30.972,19.06 -31.07,18.922 -31.194,18.838C-31.318,18.754 -31.476,18.712 -31.668,18.712L-31.776,18.712C-31.808,18.712 -31.84,18.716 -31.872,18.724C-31.92,18.724 -31.944,18.7 -31.944,18.652C-31.944,18.604 -31.92,18.568 -31.872,18.544C-31.784,18.488 -31.648,18.406 -31.464,18.298C-31.28,18.19 -31.09,18.086 -30.894,17.986C-30.698,17.886 -30.508,17.796 -30.324,17.716C-30.14,17.636 -30.004,17.596 -29.916,17.596C-29.812,17.596 -29.724,17.63 -29.652,17.698C-29.58,17.766 -29.526,17.852 -29.49,17.956C-29.454,18.06 -29.428,18.178 -29.412,18.31C-29.396,18.442 -29.388,18.572 -29.388,18.7C-29.388,18.796 -29.39,18.896 -29.394,19C-29.398,19.104 -29.4,19.216 -29.4,19.336C-29.04,18.808 -28.716,18.398 -28.428,18.106C-28.14,17.814 -27.868,17.668 -27.612,17.668C-27.516,17.668 -27.422,17.708 -27.33,17.788C-27.238,17.868 -27.14,17.958 -27.036,18.058C-26.932,18.158 -26.824,18.248 -26.712,18.328C-26.6,18.408 -26.484,18.448 -26.364,18.448C-26.26,18.448 -26.184,18.436 -26.136,18.412C-26.088,18.388 -26.048,18.368 -26.016,18.352C-25.952,18.352 -25.92,18.396 -25.92,18.484L-25.92,18.496Z" style="fill-rule:nonzero;"/>
            <path d="M-21.048,22.192C-21.136,22.288 -21.272,22.42 -21.456,22.588C-21.64,22.756 -21.862,22.924 -22.122,23.092C-22.382,23.26 -22.672,23.404 -22.992,23.524C-23.312,23.644 -23.652,23.704 -24.012,23.704C-24.34,23.704 -24.66,23.654 -24.972,23.554C-25.284,23.454 -25.564,23.302 -25.812,23.098C-26.06,22.894 -26.258,22.634 -26.406,22.318C-26.554,22.002 -26.628,21.624 -26.628,21.184C-26.628,20.824 -26.604,20.514 -26.556,20.254C-26.508,19.994 -26.444,19.766 -26.364,19.57C-26.284,19.374 -26.194,19.206 -26.094,19.066C-25.994,18.926 -25.892,18.8 -25.788,18.688C-25.66,18.544 -25.504,18.408 -25.32,18.28C-25.136,18.152 -24.938,18.036 -24.726,17.932C-24.514,17.828 -24.29,17.746 -24.054,17.686C-23.818,17.626 -23.58,17.596 -23.34,17.596C-22.908,17.596 -22.57,17.668 -22.326,17.812C-22.082,17.956 -21.96,18.156 -21.96,18.412C-21.96,18.572 -22.008,18.72 -22.104,18.856C-22.024,18.832 -21.922,18.792 -21.798,18.736C-21.674,18.68 -21.548,18.622 -21.42,18.562C-21.292,18.502 -21.178,18.448 -21.078,18.4C-20.978,18.352 -20.912,18.316 -20.88,18.292C-20.864,18.276 -20.846,18.27 -20.826,18.274C-20.806,18.278 -20.796,18.292 -20.796,18.316C-20.796,18.42 -20.816,18.506 -20.856,18.574C-20.896,18.642 -20.944,18.696 -21,18.736C-21.128,18.816 -21.312,18.916 -21.552,19.036C-21.792,19.156 -22.058,19.282 -22.35,19.414C-22.642,19.546 -22.944,19.678 -23.256,19.81C-23.568,19.942 -23.862,20.068 -24.138,20.188C-24.414,20.308 -24.654,20.414 -24.858,20.506C-25.062,20.598 -25.2,20.664 -25.272,20.704C-25.272,20.976 -25.218,21.23 -25.11,21.466C-25.002,21.702 -24.852,21.908 -24.66,22.084C-24.468,22.26 -24.238,22.398 -23.97,22.498C-23.702,22.598 -23.408,22.648 -23.088,22.648C-22.8,22.648 -22.54,22.618 -22.308,22.558C-22.076,22.498 -21.88,22.43 -21.72,22.354C-21.56,22.278 -21.434,22.21 -21.342,22.15C-21.25,22.09 -21.2,22.06 -21.192,22.06C-21.16,22.06 -21.128,22.074 -21.096,22.102C-21.064,22.13 -21.048,22.16 -21.048,22.192ZM-25.272,20.356C-25.136,20.308 -24.982,20.25 -24.81,20.182C-24.638,20.114 -24.47,20.04 -24.306,19.96C-24.142,19.88 -23.992,19.804 -23.856,19.732C-23.72,19.66 -23.616,19.596 -23.544,19.54C-23.4,19.436 -23.328,19.26 -23.328,19.012C-23.328,18.916 -23.346,18.816 -23.382,18.712C-23.418,18.608 -23.472,18.514 -23.544,18.43C-23.616,18.346 -23.704,18.278 -23.808,18.226C-23.912,18.174 -24.028,18.148 -24.156,18.148C-24.268,18.148 -24.388,18.186 -24.516,18.262C-24.644,18.338 -24.764,18.462 -24.876,18.634C-24.988,18.806 -25.082,19.034 -25.158,19.318C-25.234,19.602 -25.272,19.948 -25.272,20.356Z" style="fill-rule:nonzero;"/>
            <path d="M-15.48,22.192C-15.568,22.288 -15.704,22.42 -15.888,22.588C-16.072,22.756 -16.294,22.924 -16.554,23.092C-16.814,23.26 -17.104,23.404 -17.424,23.524C-17.744,23.644 -18.084,23.704 -18.444,23.704C-18.772,23.704 -19.092,23.654 -19.404,23.554C-19.716,23.454 -19.996,23.302 -20.244,23.098C-20.492,22.894 -20.69,22.634 -20.838,22.318C-20.986,22.002 -21.06,21.624 -21.06,21.184C-21.06,20.824 -21.036,20.514 -20.988,20.254C-20.94,19.994 -20.876,19.766 -20.796,19.57C-20.716,19.374 -20.626,19.206 -20.526,19.066C-20.426,18.926 -20.324,18.8 -20.22,18.688C-20.092,18.544 -19.936,18.408 -19.752,18.28C-19.568,18.152 -19.37,18.036 -19.158,17.932C-18.946,17.828 -18.722,17.746 -18.486,17.686C-18.25,17.626 -18.012,17.596 -17.772,17.596C-17.34,17.596 -17.002,17.668 -16.758,17.812C-16.514,17.956 -16.392,18.156 -16.392,18.412C-16.392,18.572 -16.44,18.72 -16.536,18.856C-16.456,18.832 -16.354,18.792 -16.23,18.736C-16.106,18.68 -15.98,18.622 -15.852,18.562C-15.724,18.502 -15.61,18.448 -15.51,18.4C-15.41,18.352 -15.344,18.316 -15.312,18.292C-15.296,18.276 -15.278,18.27 -15.258,18.274C-15.238,18.278 -15.228,18.292 -15.228,18.316C-15.228,18.42 -15.248,18.506 -15.288,18.574C-15.328,18.642 -15.376,18.696 -15.432,18.736C-15.56,18.816 -15.744,18.916 -15.984,19.036C-16.224,19.156 -16.49,19.282 -16.782,19.414C-17.074,19.546 -17.376,19.678 -17.688,19.81C-18,19.942 -18.294,20.068 -18.57,20.188C-18.846,20.308 -19.086,20.414 -19.29,20.506C-19.494,20.598 -19.632,20.664 -19.704,20.704C-19.704,20.976 -19.65,21.23 -19.542,21.466C-19.434,21.702 -19.284,21.908 -19.092,22.084C-18.9,22.26 -18.67,22.398 -18.402,22.498C-18.134,22.598 -17.84,22.648 -17.52,22.648C-17.232,22.648 -16.972,22.618 -16.74,22.558C-16.508,22.498 -16.312,22.43 -16.152,22.354C-15.992,22.278 -15.866,22.21 -15.774,22.15C-15.682,22.09 -15.632,22.06 -15.624,22.06C-15.592,22.06 -15.56,22.074 -15.528,22.102C-15.496,22.13 -15.48,22.16 -15.48,22.192ZM-19.704,20.356C-19.568,20.308 -19.414,20.25 -19.242,20.182C-19.07,20.114 -18.902,20.04 -18.738,19.96C-18.574,19.88 -18.424,19.804 -18.288,19.732C-18.152,19.66 -18.048,19.596 -17.976,19.54C-17.832,19.436 -17.76,19.26 -17.76,19.012C-17.76,18.916 -17.778,18.816 -17.814,18.712C-17.85,18.608 -17.904,18.514 -17.976,18.43C-18.048,18.346 -18.136,18.278 -18.24,18.226C-18.344,18.174 -18.46,18.148 -18.588,18.148C-18.7,18.148 -18.82,18.186 -18.948,18.262C-19.076,18.338 -19.196,18.462 -19.308,18.634C-19.42,18.806 -19.514,19.034 -19.59,19.318C-19.666,19.602 -19.704,19.948 -19.704,20.356Z" style="fill-rule:nonzero;"/>
            <path d="M-16.188,23.44C-16.012,23.336 -15.836,23.192 -15.66,23.008C-15.484,22.824 -15.308,22.618 -15.132,22.39C-14.956,22.162 -14.778,21.92 -14.598,21.664C-14.418,21.408 -14.24,21.152 -14.064,20.896C-13.768,20.464 -13.49,20.052 -13.23,19.66C-12.97,19.268 -12.764,18.948 -12.612,18.7L-12.804,18.7C-13.1,18.7 -13.422,18.688 -13.77,18.664C-14.118,18.64 -14.432,18.628 -14.712,18.628C-14.968,18.628 -15.152,18.648 -15.264,18.688C-15.376,18.728 -15.476,18.792 -15.564,18.88C-15.588,18.88 -15.622,18.87 -15.666,18.85C-15.71,18.83 -15.732,18.8 -15.732,18.76C-15.732,18.736 -15.728,18.72 -15.72,18.712C-15.624,18.648 -15.496,18.54 -15.336,18.388C-15.176,18.236 -15.016,18.084 -14.856,17.932C-14.696,17.78 -14.556,17.646 -14.436,17.53C-14.316,17.414 -14.244,17.356 -14.22,17.356C-14.164,17.356 -14.124,17.366 -14.1,17.386C-14.076,17.406 -14.056,17.428 -14.04,17.452C-14.024,17.476 -14.004,17.502 -13.98,17.53C-13.956,17.558 -13.916,17.584 -13.86,17.608C-13.764,17.648 -13.632,17.688 -13.464,17.728C-13.296,17.768 -13.108,17.802 -12.9,17.83C-12.692,17.858 -12.468,17.882 -12.228,17.902C-11.988,17.922 -11.748,17.932 -11.508,17.932C-11.356,17.932 -11.2,17.922 -11.04,17.902C-10.88,17.882 -10.74,17.856 -10.62,17.824C-10.612,17.824 -10.6,17.84 -10.584,17.872C-10.568,17.904 -10.56,17.932 -10.56,17.956C-10.56,17.972 -10.564,17.986 -10.572,17.998C-10.58,18.01 -10.584,18.02 -10.584,18.028C-10.808,18.196 -11.058,18.476 -11.334,18.868C-11.61,19.26 -11.984,19.752 -12.456,20.344C-12.496,20.384 -12.526,20.424 -12.546,20.464C-12.566,20.504 -12.592,20.544 -12.624,20.584C-12.976,21.032 -13.284,21.414 -13.548,21.73C-13.812,22.046 -14.048,22.316 -14.256,22.54C-14.136,22.556 -13.994,22.584 -13.83,22.624C-13.666,22.664 -13.482,22.704 -13.278,22.744C-13.074,22.784 -12.85,22.82 -12.606,22.852C-12.362,22.884 -12.1,22.9 -11.82,22.9C-11.524,22.9 -11.282,22.874 -11.094,22.822C-10.906,22.77 -10.732,22.668 -10.572,22.516C-10.516,22.46 -10.49,22.436 -10.494,22.444C-10.498,22.452 -10.484,22.456 -10.452,22.456C-10.412,22.456 -10.394,22.478 -10.398,22.522C-10.402,22.566 -10.404,22.596 -10.404,22.612C-10.404,22.708 -10.46,22.824 -10.572,22.96C-10.684,23.096 -10.84,23.226 -11.04,23.35C-11.24,23.474 -11.478,23.58 -11.754,23.668C-12.03,23.756 -12.336,23.8 -12.672,23.8C-12.88,23.8 -13.106,23.788 -13.35,23.764C-13.594,23.74 -13.844,23.712 -14.1,23.68C-14.356,23.648 -14.612,23.62 -14.868,23.596C-15.124,23.572 -15.364,23.56 -15.588,23.56C-15.724,23.56 -15.838,23.574 -15.93,23.602C-16.022,23.63 -16.128,23.66 -16.248,23.692C-16.288,23.692 -16.308,23.668 -16.308,23.62C-16.308,23.612 -16.3,23.576 -16.284,23.512L-16.188,23.44Z" style="fill-rule:nonzero;"/>
            <path d="M-4.836,22.192C-4.924,22.288 -5.06,22.42 -5.244,22.588C-5.428,22.756 -5.65,22.924 -5.91,23.092C-6.17,23.26 -6.46,23.404 -6.78,23.524C-7.1,23.644 -7.44,23.704 -7.8,23.704C-8.128,23.704 -8.448,23.654 -8.76,23.554C-9.072,23.454 -9.352,23.302 -9.6,23.098C-9.848,22.894 -10.046,22.634 -10.194,22.318C-10.342,22.002 -10.416,21.624 -10.416,21.184C-10.416,20.824 -10.392,20.514 -10.344,20.254C-10.296,19.994 -10.232,19.766 -10.152,19.57C-10.072,19.374 -9.982,19.206 -9.882,19.066C-9.782,18.926 -9.68,18.8 -9.576,18.688C-9.448,18.544 -9.292,18.408 -9.108,18.28C-8.924,18.152 -8.726,18.036 -8.514,17.932C-8.302,17.828 -8.078,17.746 -7.842,17.686C-7.606,17.626 -7.368,17.596 -7.128,17.596C-6.696,17.596 -6.358,17.668 -6.114,17.812C-5.87,17.956 -5.748,18.156 -5.748,18.412C-5.748,18.572 -5.796,18.72 -5.892,18.856C-5.812,18.832 -5.71,18.792 -5.586,18.736C-5.462,18.68 -5.336,18.622 -5.208,18.562C-5.08,18.502 -4.966,18.448 -4.866,18.4C-4.766,18.352 -4.7,18.316 -4.668,18.292C-4.652,18.276 -4.634,18.27 -4.614,18.274C-4.594,18.278 -4.584,18.292 -4.584,18.316C-4.584,18.42 -4.604,18.506 -4.644,18.574C-4.684,18.642 -4.732,18.696 -4.788,18.736C-4.916,18.816 -5.1,18.916 -5.34,19.036C-5.58,19.156 -5.846,19.282 -6.138,19.414C-6.43,19.546 -6.732,19.678 -7.044,19.81C-7.356,19.942 -7.65,20.068 -7.926,20.188C-8.202,20.308 -8.442,20.414 -8.646,20.506C-8.85,20.598 -8.988,20.664 -9.06,20.704C-9.06,20.976 -9.006,21.23 -8.898,21.466C-8.79,21.702 -8.64,21.908 -8.448,22.084C-8.256,22.26 -8.026,22.398 -7.758,22.498C-7.49,22.598 -7.196,22.648 -6.876,22.648C-6.588,22.648 -6.328,22.618 -6.096,22.558C-5.864,22.498 -5.668,22.43 -5.508,22.354C-5.348,22.278 -5.222,22.21 -5.13,22.15C-5.038,22.09 -4.988,22.06 -4.98,22.06C-4.948,22.06 -4.916,22.074 -4.884,22.102C-4.852,22.13 -4.836,22.16 -4.836,22.192ZM-9.06,20.356C-8.924,20.308 -8.77,20.25 -8.598,20.182C-8.426,20.114 -8.258,20.04 -8.094,19.96C-7.93,19.88 -7.78,19.804 -7.644,19.732C-7.508,19.66 -7.404,19.596 -7.332,19.54C-7.188,19.436 -7.116,19.26 -7.116,19.012C-7.116,18.916 -7.134,18.816 -7.17,18.712C-7.206,18.608 -7.26,18.514 -7.332,18.43C-7.404,18.346 -7.492,18.278 -7.596,18.226C-7.7,18.174 -7.816,18.148 -7.944,18.148C-8.056,18.148 -8.176,18.186 -8.304,18.262C-8.432,18.338 -8.552,18.462 -8.664,18.634C-8.776,18.806 -8.87,19.034 -8.946,19.318C-9.022,19.602 -9.06,19.948 -9.06,20.356Z" style="fill-rule:nonzero;"/>
        </g>
        <g transform="matrix(1,0,0,1,47.6875,-4.53575)">
            <text x="-39.144px" y="23.596px" style="font-family:'Luminari-Regular', 'Luminari';font-size:12px;">Fr<tspan x="-26.976px -21.408px " y="23.596px 23.596px ">ee</tspan>ze</text>
        </g>
    </g>
</svg>
