<?xml version="1.0" encoding="UTF-8" standalone="no"?>
<!DOCTYPE svg PUBLIC "-//W3C//DTD SVG 1.1//EN" "http://www.w3.org/Graphics/SVG/1.1/DTD/svg11.dtd">
<svg width="100%" height="100%" viewBox="0 0 60 380" version="1.1" xmlns="http://www.w3.org/2000/svg" xmlns:xlink="http://www.w3.org/1999/xlink" xml:space="preserve" xmlns:serif="http://www.serif.com/" style="fill-rule:evenodd;clip-rule:evenodd;stroke-linecap:round;stroke-linejoin:round;stroke-miterlimit:1.5;">
    <g transform="matrix(0.359397,0,0,1.48634,-9.69795,-44.3619)">
        <rect x="26.984" y="29.846" width="166.946" height="255.662" style="fill:rgb(242,242,242);"/>
    </g>
    <g id="Label" transform="matrix(1,0,0,1,-27.2261,11.8096)">
        <g transform="matrix(1,0,0,1,58.164,339.27)">
            <g transform="matrix(0.8973,0,0,0.884326,9.28968,12.4373)">
                <circle cx="3.434" cy="5.159" r="2.172" style="stroke:black;stroke-width:0.94px;"/>
            </g>
            <g transform="matrix(0.8973,0,0,0.884326,4.54775,12.4373)">
                <circle cx="3.434" cy="5.159" r="2.172" style="fill:white;stroke:black;stroke-width:0.94px;"/>
            </g>
            <g transform="matrix(0.8973,0,0,0.884326,-0.194181,12.4373)">
                <circle cx="3.434" cy="5.159" r="2.172" style="stroke:black;stroke-width:0.94px;"/>
            </g>
            <g transform="matrix(0.8973,0,0,0.884326,14.0316,12.4373)">
                <circle cx="3.434" cy="5.159" r="2.172" style="stroke:black;stroke-width:0.94px;"/>
            </g>
            <g transform="matrix(0.8973,0,0,0.884326,9.28968,6.70878)">
                <circle cx="3.434" cy="5.159" r="2.172" style="fill:white;stroke:black;stroke-width:0.94px;"/>
            </g>
            <g transform="matrix(0.8973,0,0,0.884326,4.54775,6.70878)">
                <circle cx="3.434" cy="5.159" r="2.172" style="stroke:black;stroke-width:0.94px;"/>
            </g>
            <g transform="matrix(0.8973,0,0,0.884326,-0.194181,6.70878)">
                <circle cx="3.434" cy="5.159" r="2.172" style="stroke:black;stroke-width:0.94px;"/>
            </g>
            <g transform="matrix(0.8973,0,0,0.884326,14.0316,6.70878)">
                <circle cx="3.434" cy="5.159" r="2.172" style="fill:white;stroke:black;stroke-width:0.94px;"/>
            </g>
            <g transform="matrix(0.8973,0,0,0.884326,9.28968,0.980236)">
                <circle cx="3.434" cy="5.159" r="2.172" style="fill:white;stroke:black;stroke-width:0.94px;"/>
            </g>
            <g transform="matrix(0.8973,0,0,0.884326,4.54775,0.980236)">
                <circle cx="3.434" cy="5.159" r="2.172" style="fill:white;stroke:black;stroke-width:0.94px;"/>
            </g>
            <g transform="matrix(0.8973,0,0,0.884326,-0.194181,0.980236)">
                <circle cx="3.434" cy="5.159" r="2.172" style="stroke:black;stroke-width:0.94px;"/>
            </g>
            <g transform="matrix(0.8973,0,0,0.884326,14.0316,0.980236)">
                <circle cx="3.434" cy="5.159" r="2.172" style="stroke:black;stroke-width:0.94px;"/>
            </g>
        </g>
        <g transform="matrix(0.0195312,0,0,0.0221547,34.9714,337.813)">
            <g transform="matrix(1,0,0,1,-143.343,98.6554)">
                <ellipse cx="360.896" cy="293.762" rx="136.961" ry="230.443" style="fill:rgb(235,235,235);stroke:black;stroke-width:58.45px;"/>
            </g>
            <g transform="matrix(1,0,0,1,445.551,98.6554)">
                <ellipse cx="360.896" cy="293.762" rx="136.961" ry="230.443" style="fill:rgb(235,235,235);stroke:black;stroke-width:58.45px;"/>
            </g>
            <g transform="matrix(1,0,0,1,-34.3236,-20.6488)">
                <ellipse cx="546.324" cy="643.509" rx="431.408" ry="296.899" style="fill:rgb(235,235,235);stroke:black;stroke-width:58.45px;"/>
            </g>
            <circle cx="406.664" cy="569.758" r="105.336" style="fill:rgb(235,235,235);stroke:black;stroke-width:58.45px;"/>
            <g transform="matrix(1,0,0,1,210.672,0)">
                <circle cx="406.664" cy="569.758" r="105.336" style="fill:rgb(235,235,235);stroke:black;stroke-width:58.45px;"/>
            </g>
            <g transform="matrix(1,0,0,1,-53.1856,50.0357)">
                <ellipse cx="565.186" cy="671.455" rx="210.672" ry="98.631" style="fill:rgb(235,235,235);stroke:black;stroke-width:58.45px;"/>
            </g>
            <g transform="matrix(51.2,0,0,45.1371,0.670978,88.9676)">
                <path d="M12.057,13.791C12.057,13.668 11.958,13.568 11.835,13.568L8.139,13.568C8.016,13.568 7.916,13.668 7.916,13.791L7.916,14.236C7.916,14.359 8.016,14.458 8.139,14.458L11.835,14.458C11.958,14.458 12.057,14.359 12.057,14.236L12.057,13.791Z"/>
            </g>
        </g>
    </g>
    <g transform="matrix(1,0,0,1,-88.8763,137.758)">
        <g transform="matrix(0.3556,0,0,72.8139,83.9261,-21717.6)">
            <rect x="13.921" y="296.737" width="168.729" height="3.935" style="fill:rgb(191,191,191);"/>
        </g>
        <g transform="matrix(0.578856,0,0,0.695794,-4.34591,112.334)">
            <rect x="161.957" y="57.989" width="36.327" height="2.261"/>
        </g>
        <g transform="matrix(0.578856,0,0,0.695794,-4.34591,78.6945)">
            <rect x="161.957" y="57.989" width="36.327" height="2.261"/>
        </g>
        <g transform="matrix(0.578856,0,0,0.695794,-4.34591,43.3266)">
            <rect x="161.957" y="57.989" width="36.327" height="2.261"/>
        </g>
        <g transform="matrix(0.578856,0,0,0.695794,-4.34591,8.01938)">
            <rect x="161.957" y="57.989" width="36.327" height="2.261"/>
        </g>
        <g transform="matrix(0.578856,0,0,0.695794,-4.34591,-25.4274)">
            <rect x="161.957" y="57.989" width="36.327" height="2.261"/>
        </g>
        <g transform="matrix(0.620915,0,0,0.695794,-11.6856,-60.2029)">
            <rect x="161.957" y="57.989" width="36.327" height="2.261"/>
        </g>
        <g transform="matrix(0.620915,0,0,0.695794,-11.6856,-94.5002)">
            <rect x="161.957" y="57.989" width="36.327" height="2.261"/>
        </g>
        <g transform="matrix(0.620915,0,0,0.695794,-11.6856,-130.158)">
            <rect x="161.957" y="57.989" width="36.327" height="2.261"/>
        </g>
        <g id="BitOut8-output" serif:id="BitOut8#output" transform="matrix(0.175002,0,0,0.175002,101.09,120.969)">
            <rect x="53.94" y="106.916" width="161.978" height="161.978" style="fill:rgb(77,77,77);"/>
        </g>
        <g id="BitOut7-output" serif:id="BitOut7#output" transform="matrix(0.175002,0,0,0.175002,101.09,86.2175)">
            <rect x="53.94" y="106.916" width="161.978" height="161.978" style="fill:rgb(77,77,77);"/>
        </g>
        <g id="BitOut6-output" serif:id="BitOut6#output" transform="matrix(0.175002,0,0,0.175002,101.09,16.7147)">
            <rect x="53.94" y="106.916" width="161.978" height="161.978" style="fill:rgb(77,77,77);"/>
        </g>
        <g id="BitOut5-output" serif:id="BitOut5#output" transform="matrix(0.175002,0,0,0.175002,101.09,51.4661)">
            <rect x="53.94" y="106.916" width="161.978" height="161.978" style="fill:rgb(77,77,77);"/>
        </g>
        <g id="BitOut4-output" serif:id="BitOut4#output" transform="matrix(0.175002,0,0,0.175002,101.09,-18.0367)">
            <rect x="53.94" y="106.916" width="161.978" height="161.978" style="fill:rgb(77,77,77);"/>
        </g>
        <g id="BitOut3-output" serif:id="BitOut3#output" transform="matrix(0.175002,0,0,0.175002,101.09,-52.7881)">
            <rect x="53.94" y="106.916" width="161.978" height="161.978" style="fill:rgb(77,77,77);"/>
        </g>
        <g id="BitOut2-output" serif:id="BitOut2#output" transform="matrix(0.175002,0,0,0.175002,101.09,-87.5395)">
            <rect x="53.94" y="106.916" width="161.978" height="161.978" style="fill:rgb(77,77,77);"/>
        </g>
        <g id="BitOut1-output" serif:id="BitOut1#output" transform="matrix(0.175002,0,0,0.175002,101.09,-122.291)">
            <rect x="53.94" y="106.916" width="161.978" height="161.978" style="fill:rgb(77,77,77);"/>
        </g>
    </g>
    <g id="BusIn-light" serif:id="BusIn#light" transform="matrix(1,0,0,1,-27.8135,10.8256)">
        <circle cx="42.167" cy="335.861" r="3.82" style="fill:rgb(230,230,230);"/>
    </g>
    <g>
        <g transform="matrix(1,0,0,1,47.0875,-4.53575)">
            <path d="M-37.068,23.344C-37.252,23.448 -37.484,23.556 -37.764,23.668C-38.044,23.78 -38.336,23.836 -38.64,23.836C-38.824,23.836 -38.956,23.82 -39.036,23.788C-39.116,23.756 -39.156,23.692 -39.156,23.596C-39.156,23.564 -39.15,23.528 -39.138,23.488C-39.126,23.448 -39.112,23.414 -39.096,23.386C-39.08,23.358 -39.06,23.338 -39.036,23.326C-39.012,23.314 -38.988,23.324 -38.964,23.356C-38.916,23.42 -38.844,23.456 -38.748,23.464C-38.652,23.472 -38.548,23.476 -38.436,23.476C-38.268,23.468 -38.116,23.41 -37.98,23.302C-37.844,23.194 -37.744,23.048 -37.68,22.864C-37.648,22.752 -37.616,22.576 -37.584,22.336C-37.552,22.096 -37.526,21.808 -37.506,21.472C-37.486,21.136 -37.47,20.762 -37.458,20.35C-37.446,19.938 -37.44,19.504 -37.44,19.048C-37.44,18.008 -37.468,17.198 -37.524,16.618C-37.58,16.038 -37.652,15.704 -37.74,15.616C-37.804,15.568 -37.884,15.53 -37.98,15.502C-38.076,15.474 -38.174,15.456 -38.274,15.448C-38.374,15.44 -38.472,15.436 -38.568,15.436C-38.664,15.436 -38.74,15.44 -38.796,15.448C-38.852,15.456 -38.896,15.44 -38.928,15.4C-38.96,15.36 -38.976,15.32 -38.976,15.28C-38.976,15.136 -38.924,15.064 -38.82,15.064C-38.764,15.064 -38.664,15.07 -38.52,15.082C-38.376,15.094 -38.21,15.106 -38.022,15.118C-37.834,15.13 -37.636,15.14 -37.428,15.148C-37.22,15.156 -37.032,15.16 -36.864,15.16C-36.656,15.16 -36.462,15.128 -36.282,15.064C-36.102,15 -35.916,14.928 -35.724,14.848C-35.532,14.768 -35.322,14.696 -35.094,14.632C-34.866,14.568 -34.6,14.536 -34.296,14.536C-33.92,14.536 -33.568,14.568 -33.24,14.632C-32.912,14.696 -32.628,14.794 -32.388,14.926C-32.148,15.058 -31.958,15.228 -31.818,15.436C-31.678,15.644 -31.608,15.888 -31.608,16.168C-31.608,16.488 -31.676,16.778 -31.812,17.038C-31.948,17.298 -32.118,17.528 -32.322,17.728C-32.526,17.928 -32.742,18.098 -32.97,18.238C-33.198,18.378 -33.404,18.484 -33.588,18.556C-33.292,18.58 -32.968,18.63 -32.616,18.706C-32.264,18.782 -31.936,18.898 -31.632,19.054C-31.328,19.21 -31.074,19.416 -30.87,19.672C-30.666,19.928 -30.564,20.248 -30.564,20.632C-30.564,20.936 -30.626,21.226 -30.75,21.502C-30.874,21.778 -31.04,22.034 -31.248,22.27C-31.456,22.506 -31.694,22.722 -31.962,22.918C-32.23,23.114 -32.51,23.28 -32.802,23.416C-33.094,23.552 -33.39,23.658 -33.69,23.734C-33.99,23.81 -34.268,23.848 -34.524,23.848C-34.676,23.848 -34.866,23.834 -35.094,23.806C-35.322,23.778 -35.556,23.74 -35.796,23.692C-36.036,23.644 -36.27,23.59 -36.498,23.53C-36.726,23.47 -36.916,23.408 -37.068,23.344ZM-36.036,20.896C-36.028,21.312 -36.016,21.612 -36,21.796C-35.984,21.98 -35.968,22.12 -35.952,22.216C-35.928,22.352 -35.87,22.486 -35.778,22.618C-35.686,22.75 -35.566,22.872 -35.418,22.984C-35.27,23.096 -35.098,23.186 -34.902,23.254C-34.706,23.322 -34.488,23.356 -34.248,23.356C-33.992,23.356 -33.752,23.312 -33.528,23.224C-33.304,23.136 -33.11,22.998 -32.946,22.81C-32.782,22.622 -32.652,22.38 -32.556,22.084C-32.46,21.788 -32.412,21.432 -32.412,21.016C-32.412,20.64 -32.472,20.32 -32.592,20.056C-32.712,19.792 -32.882,19.578 -33.102,19.414C-33.322,19.25 -33.588,19.132 -33.9,19.06C-34.212,18.988 -34.56,18.952 -34.944,18.952C-35.168,18.952 -35.38,18.954 -35.58,18.958C-35.78,18.962 -35.928,18.968 -36.024,18.976C-36.032,19.064 -36.036,19.156 -36.036,19.252L-36.036,20.896ZM-35.868,15.688C-35.884,15.792 -35.9,15.936 -35.916,16.12C-35.932,16.304 -35.948,16.518 -35.964,16.762C-35.98,17.006 -35.994,17.27 -36.006,17.554C-36.018,17.838 -36.028,18.132 -36.036,18.436C-36.028,18.46 -35.984,18.478 -35.904,18.49C-35.824,18.502 -35.73,18.512 -35.622,18.52C-35.514,18.528 -35.4,18.534 -35.28,18.538C-35.16,18.542 -35.052,18.544 -34.956,18.544C-34.804,18.544 -34.672,18.538 -34.56,18.526C-34.448,18.514 -34.35,18.494 -34.266,18.466C-34.182,18.438 -34.104,18.404 -34.032,18.364C-33.96,18.324 -33.888,18.272 -33.816,18.208C-33.68,18.104 -33.554,17.936 -33.438,17.704C-33.322,17.472 -33.264,17.152 -33.264,16.744C-33.264,16.456 -33.304,16.202 -33.384,15.982C-33.464,15.762 -33.568,15.578 -33.696,15.43C-33.824,15.282 -33.97,15.172 -34.134,15.1C-34.298,15.028 -34.468,14.992 -34.644,14.992C-34.732,14.992 -34.84,15.004 -34.968,15.028C-35.096,15.052 -35.22,15.09 -35.34,15.142C-35.46,15.194 -35.57,15.266 -35.67,15.358C-35.77,15.45 -35.836,15.56 -35.868,15.688Z" style="fill-rule:nonzero;"/>
            <path d="M-28.08,21.508C-28.08,21.676 -28.076,21.838 -28.068,21.994C-28.06,22.15 -28.032,22.284 -27.984,22.396C-27.936,22.508 -27.864,22.598 -27.768,22.666C-27.672,22.734 -27.536,22.768 -27.36,22.768C-27.272,22.768 -27.172,22.758 -27.06,22.738C-26.948,22.718 -26.842,22.692 -26.742,22.66C-26.642,22.628 -26.554,22.596 -26.478,22.564C-26.402,22.532 -26.356,22.508 -26.34,22.492C-26.316,22.468 -26.3,22.468 -26.292,22.492C-26.284,22.516 -26.282,22.546 -26.286,22.582C-26.29,22.618 -26.3,22.654 -26.316,22.69C-26.332,22.726 -26.352,22.752 -26.376,22.768C-26.456,22.808 -26.596,22.88 -26.796,22.984C-26.996,23.088 -27.232,23.196 -27.504,23.308C-27.76,23.42 -28.01,23.514 -28.254,23.59C-28.498,23.666 -28.7,23.704 -28.86,23.704C-29.044,23.704 -29.188,23.648 -29.292,23.536C-29.396,23.424 -29.448,23.284 -29.448,23.116C-29.448,23.06 -29.446,23.012 -29.442,22.972C-29.438,22.932 -29.432,22.88 -29.424,22.816C-29.416,22.736 -29.402,22.59 -29.382,22.378C-29.362,22.166 -29.342,21.928 -29.322,21.664C-29.302,21.4 -29.284,21.134 -29.268,20.866C-29.252,20.598 -29.244,20.368 -29.244,20.176L-29.244,19.756C-29.244,19.548 -29.256,19.364 -29.28,19.204C-29.304,19.044 -29.344,18.92 -29.4,18.832C-29.44,18.776 -29.49,18.73 -29.55,18.694C-29.61,18.658 -29.684,18.64 -29.772,18.64C-29.82,18.64 -29.868,18.65 -29.916,18.67C-29.964,18.69 -30,18.7 -30.024,18.7C-30.04,18.7 -30.066,18.676 -30.102,18.628C-30.138,18.58 -30.136,18.544 -30.096,18.52C-30.04,18.48 -29.924,18.416 -29.748,18.328C-29.572,18.24 -29.38,18.144 -29.172,18.04C-28.948,17.928 -28.732,17.83 -28.524,17.746C-28.316,17.662 -28.168,17.62 -28.08,17.62C-27.992,17.62 -27.932,17.646 -27.9,17.698C-27.868,17.75 -27.852,17.808 -27.852,17.872L-27.852,17.92C-27.852,18 -27.864,18.128 -27.888,18.304C-27.912,18.48 -27.938,18.696 -27.966,18.952C-27.994,19.208 -28.02,19.504 -28.044,19.84C-28.068,20.176 -28.08,20.54 -28.08,20.932L-28.08,21.508ZM-28.56,15.268C-28.52,15.276 -28.454,15.32 -28.362,15.4C-28.27,15.48 -28.176,15.572 -28.08,15.676C-27.984,15.78 -27.9,15.88 -27.828,15.976C-27.756,16.072 -27.72,16.136 -27.72,16.168C-27.72,16.208 -27.768,16.268 -27.864,16.348C-27.96,16.428 -28.07,16.51 -28.194,16.594C-28.318,16.678 -28.438,16.752 -28.554,16.816C-28.67,16.88 -28.752,16.912 -28.8,16.912C-28.824,16.912 -28.882,16.874 -28.974,16.798C-29.066,16.722 -29.16,16.636 -29.256,16.54C-29.352,16.444 -29.438,16.35 -29.514,16.258C-29.59,16.166 -29.628,16.104 -29.628,16.072C-29.628,16.032 -29.576,15.97 -29.472,15.886C-29.368,15.802 -29.254,15.714 -29.13,15.622C-29.006,15.53 -28.886,15.45 -28.77,15.382C-28.654,15.314 -28.584,15.276 -28.56,15.268Z" style="fill-rule:nonzero;"/>
            <path d="M-21.024,21.928C-21.008,21.912 -20.994,21.914 -20.982,21.934C-20.97,21.954 -20.962,21.982 -20.958,22.018C-20.954,22.054 -20.956,22.092 -20.964,22.132C-20.972,22.172 -20.988,22.204 -21.012,22.228C-21.172,22.38 -21.372,22.54 -21.612,22.708C-21.852,22.876 -22.1,23.032 -22.356,23.176C-22.428,23.216 -22.528,23.268 -22.656,23.332C-22.784,23.396 -22.926,23.458 -23.082,23.518C-23.238,23.578 -23.398,23.63 -23.562,23.674C-23.726,23.718 -23.88,23.74 -24.024,23.74C-24.312,23.74 -24.584,23.684 -24.84,23.572C-25.096,23.46 -25.32,23.306 -25.512,23.11C-25.704,22.914 -25.854,22.68 -25.962,22.408C-26.07,22.136 -26.124,21.84 -26.124,21.52C-26.124,21.176 -26.076,20.852 -25.98,20.548C-25.884,20.244 -25.774,19.972 -25.65,19.732C-25.526,19.492 -25.408,19.29 -25.296,19.126C-25.184,18.962 -25.108,18.84 -25.068,18.76C-25.22,18.752 -25.358,18.746 -25.482,18.742C-25.606,18.738 -25.724,18.736 -25.836,18.736C-26.092,18.736 -26.308,18.738 -26.484,18.742C-26.66,18.746 -26.816,18.764 -26.952,18.796C-27.016,18.812 -27.076,18.844 -27.132,18.892C-27.188,18.94 -27.236,18.976 -27.276,19C-27.292,18.984 -27.314,18.962 -27.342,18.934C-27.37,18.906 -27.384,18.876 -27.384,18.844C-27.384,18.828 -27.38,18.816 -27.372,18.808C-27.372,18.8 -27.32,18.754 -27.216,18.67C-27.112,18.586 -26.982,18.486 -26.826,18.37C-26.67,18.254 -26.498,18.126 -26.31,17.986C-26.122,17.846 -25.942,17.716 -25.77,17.596C-25.598,17.476 -25.45,17.374 -25.326,17.29C-25.202,17.206 -25.12,17.156 -25.08,17.14C-25.032,17.124 -24.984,17.132 -24.936,17.164C-24.888,17.196 -24.872,17.22 -24.888,17.236C-24.912,17.252 -24.948,17.282 -24.996,17.326C-25.044,17.37 -25.06,17.408 -25.044,17.44C-24.956,17.512 -24.804,17.576 -24.588,17.632C-24.372,17.688 -24.128,17.734 -23.856,17.77C-23.584,17.806 -23.304,17.834 -23.016,17.854C-22.728,17.874 -22.468,17.884 -22.236,17.884C-21.892,17.884 -21.616,17.874 -21.408,17.854C-21.2,17.834 -21.028,17.808 -20.892,17.776C-20.764,17.744 -20.68,17.72 -20.64,17.704C-20.632,17.704 -20.616,17.716 -20.592,17.74C-20.568,17.764 -20.556,17.792 -20.556,17.824C-20.556,17.84 -20.614,17.88 -20.73,17.944C-20.846,18.008 -20.964,18.076 -21.084,18.148C-21.156,18.188 -21.242,18.24 -21.342,18.304C-21.442,18.368 -21.55,18.43 -21.666,18.49C-21.782,18.55 -21.904,18.604 -22.032,18.652C-22.16,18.7 -22.284,18.728 -22.404,18.736C-22.524,18.752 -22.664,18.764 -22.824,18.772C-22.984,18.78 -23.152,18.786 -23.328,18.79C-23.504,18.794 -23.682,18.798 -23.862,18.802C-24.042,18.806 -24.208,18.808 -24.36,18.808C-24.384,18.848 -24.422,18.914 -24.474,19.006C-24.526,19.098 -24.576,19.216 -24.624,19.36C-24.672,19.504 -24.716,19.668 -24.756,19.852C-24.796,20.036 -24.816,20.236 -24.816,20.452C-24.816,20.78 -24.766,21.082 -24.666,21.358C-24.566,21.634 -24.426,21.872 -24.246,22.072C-24.066,22.272 -23.852,22.428 -23.604,22.54C-23.356,22.652 -23.088,22.708 -22.8,22.708C-22.632,22.708 -22.47,22.688 -22.314,22.648C-22.158,22.608 -22.01,22.556 -21.87,22.492C-21.73,22.428 -21.6,22.358 -21.48,22.282C-21.36,22.206 -21.256,22.132 -21.168,22.06L-21.024,21.928Z" style="fill-rule:nonzero;"/>
            <path d="M-13.656,23.32C-13.216,23.32 -12.828,23.21 -12.492,22.99C-12.156,22.77 -11.874,22.478 -11.646,22.114C-11.418,21.75 -11.248,21.33 -11.136,20.854C-11.024,20.378 -10.968,19.88 -10.968,19.36C-10.968,18.728 -11.044,18.158 -11.196,17.65C-11.348,17.142 -11.554,16.712 -11.814,16.36C-12.074,16.008 -12.378,15.738 -12.726,15.55C-13.074,15.362 -13.44,15.268 -13.824,15.268C-14.264,15.268 -14.658,15.366 -15.006,15.562C-15.354,15.758 -15.65,16.028 -15.894,16.372C-16.138,16.716 -16.324,17.126 -16.452,17.602C-16.58,18.078 -16.644,18.596 -16.644,19.156C-16.644,19.868 -16.56,20.486 -16.392,21.01C-16.224,21.534 -16.002,21.966 -15.726,22.306C-15.45,22.646 -15.132,22.9 -14.772,23.068C-14.412,23.236 -14.04,23.32 -13.656,23.32ZM-13.98,23.764C-14.604,23.764 -15.186,23.672 -15.726,23.488C-16.266,23.304 -16.736,23.034 -17.136,22.678C-17.536,22.322 -17.852,21.888 -18.084,21.376C-18.316,20.864 -18.432,20.28 -18.432,19.624C-18.432,18.904 -18.296,18.252 -18.024,17.668C-17.752,17.084 -17.392,16.584 -16.944,16.168C-16.496,15.752 -15.984,15.43 -15.408,15.202C-14.832,14.974 -14.236,14.86 -13.62,14.86C-13.036,14.86 -12.476,14.946 -11.94,15.118C-11.404,15.29 -10.932,15.542 -10.524,15.874C-10.116,16.206 -9.792,16.618 -9.552,17.11C-9.312,17.602 -9.192,18.164 -9.192,18.796C-9.192,19.396 -9.312,19.992 -9.552,20.584C-9.792,21.176 -10.124,21.708 -10.548,22.18C-10.972,22.652 -11.476,23.034 -12.06,23.326C-12.644,23.618 -13.284,23.764 -13.98,23.764Z" style="fill-rule:nonzero;"/>
            <path d="M-8.7,18.64C-8.764,18.624 -8.794,18.592 -8.79,18.544C-8.786,18.496 -8.756,18.468 -8.7,18.46C-8.676,18.452 -8.6,18.424 -8.472,18.376C-8.344,18.328 -8.19,18.272 -8.01,18.208C-7.83,18.144 -7.642,18.076 -7.446,18.004C-7.25,17.932 -7.076,17.872 -6.924,17.824C-6.828,17.792 -6.762,17.77 -6.726,17.758C-6.69,17.746 -6.66,17.74 -6.636,17.74C-6.612,17.74 -6.584,17.75 -6.552,17.77C-6.52,17.79 -6.512,17.82 -6.528,17.86C-6.552,17.924 -6.578,18.076 -6.606,18.316C-6.634,18.556 -6.66,18.822 -6.684,19.114C-6.708,19.406 -6.73,19.696 -6.75,19.984C-6.77,20.272 -6.78,20.5 -6.78,20.668C-6.78,21.308 -6.644,21.802 -6.372,22.15C-6.1,22.498 -5.676,22.672 -5.1,22.672C-4.804,22.672 -4.558,22.612 -4.362,22.492C-4.166,22.372 -4.016,22.232 -3.912,22.072C-3.84,21.968 -3.792,21.74 -3.768,21.388C-3.768,21.324 -3.766,21.24 -3.762,21.136C-3.758,21.032 -3.754,20.922 -3.75,20.806C-3.746,20.69 -3.742,20.578 -3.738,20.47C-3.734,20.362 -3.732,20.272 -3.732,20.2C-3.724,19.832 -3.734,19.49 -3.762,19.174C-3.79,18.858 -3.832,18.624 -3.888,18.472C-3.912,18.376 -3.96,18.328 -4.032,18.328C-4.08,18.328 -4.126,18.33 -4.17,18.334C-4.214,18.338 -4.24,18.304 -4.248,18.232C-4.248,18.208 -4.224,18.182 -4.176,18.154C-4.128,18.126 -4.036,18.084 -3.9,18.028C-3.772,17.98 -3.63,17.932 -3.474,17.884C-3.318,17.836 -3.164,17.796 -3.012,17.764C-2.86,17.732 -2.724,17.71 -2.604,17.698C-2.484,17.686 -2.396,17.692 -2.34,17.716C-2.34,17.724 -2.334,17.734 -2.322,17.746C-2.31,17.758 -2.3,17.784 -2.292,17.824C-2.276,17.872 -2.286,18.022 -2.322,18.274C-2.358,18.526 -2.396,18.936 -2.436,19.504C-2.468,19.896 -2.496,20.276 -2.52,20.644C-2.544,21.012 -2.556,21.292 -2.556,21.484C-2.556,21.86 -2.486,22.158 -2.346,22.378C-2.206,22.598 -2.032,22.708 -1.824,22.708C-1.688,22.708 -1.558,22.68 -1.434,22.624C-1.31,22.568 -1.22,22.52 -1.164,22.48C-1.1,22.48 -1.066,22.508 -1.062,22.564C-1.058,22.62 -1.072,22.656 -1.104,22.672C-1.224,22.752 -1.39,22.852 -1.602,22.972C-1.814,23.092 -2.034,23.206 -2.262,23.314C-2.49,23.422 -2.708,23.514 -2.916,23.59C-3.124,23.666 -3.292,23.704 -3.42,23.704C-3.484,23.704 -3.542,23.662 -3.594,23.578C-3.646,23.494 -3.688,23.392 -3.72,23.272C-3.752,23.152 -3.776,23.028 -3.792,22.9C-3.808,22.772 -3.816,22.66 -3.816,22.564C-3.984,22.684 -4.176,22.81 -4.392,22.942C-4.608,23.074 -4.832,23.198 -5.064,23.314C-5.296,23.43 -5.526,23.524 -5.754,23.596C-5.982,23.668 -6.192,23.704 -6.384,23.704C-6.872,23.704 -7.272,23.574 -7.584,23.314C-7.896,23.054 -8.052,22.716 -8.052,22.3C-8.052,22.212 -8.044,22.08 -8.028,21.904C-8.012,21.728 -7.992,21.528 -7.968,21.304C-7.944,21.08 -7.924,20.84 -7.908,20.584C-7.892,20.328 -7.884,20.08 -7.884,19.84C-7.884,19.472 -7.942,19.19 -8.058,18.994C-8.174,18.798 -8.324,18.688 -8.508,18.664L-8.7,18.64Z" style="fill-rule:nonzero;"/>
            <path d="M4.512,21.928C4.528,21.912 4.542,21.914 4.554,21.934C4.566,21.954 4.574,21.982 4.578,22.018C4.582,22.054 4.58,22.092 4.572,22.132C4.564,22.172 4.548,22.204 4.524,22.228C4.364,22.38 4.164,22.54 3.924,22.708C3.684,22.876 3.436,23.032 3.18,23.176C3.108,23.216 3.008,23.268 2.88,23.332C2.752,23.396 2.61,23.458 2.454,23.518C2.298,23.578 2.138,23.63 1.974,23.674C1.81,23.718 1.656,23.74 1.512,23.74C1.224,23.74 0.952,23.684 0.696,23.572C0.44,23.46 0.216,23.306 0.024,23.11C-0.168,22.914 -0.318,22.68 -0.426,22.408C-0.534,22.136 -0.588,21.84 -0.588,21.52C-0.588,21.176 -0.54,20.852 -0.444,20.548C-0.348,20.244 -0.238,19.972 -0.114,19.732C0.01,19.492 0.128,19.29 0.24,19.126C0.352,18.962 0.428,18.84 0.468,18.76C0.316,18.752 0.178,18.746 0.054,18.742C-0.07,18.738 -0.188,18.736 -0.3,18.736C-0.556,18.736 -0.772,18.738 -0.948,18.742C-1.124,18.746 -1.28,18.764 -1.416,18.796C-1.48,18.812 -1.54,18.844 -1.596,18.892C-1.652,18.94 -1.7,18.976 -1.74,19C-1.756,18.984 -1.778,18.962 -1.806,18.934C-1.834,18.906 -1.848,18.876 -1.848,18.844C-1.848,18.828 -1.844,18.816 -1.836,18.808C-1.836,18.8 -1.784,18.754 -1.68,18.67C-1.576,18.586 -1.446,18.486 -1.29,18.37C-1.134,18.254 -0.962,18.126 -0.774,17.986C-0.586,17.846 -0.406,17.716 -0.234,17.596C-0.062,17.476 0.086,17.374 0.21,17.29C0.334,17.206 0.416,17.156 0.456,17.14C0.504,17.124 0.552,17.132 0.6,17.164C0.648,17.196 0.664,17.22 0.648,17.236C0.624,17.252 0.588,17.282 0.54,17.326C0.492,17.37 0.476,17.408 0.492,17.44C0.58,17.512 0.732,17.576 0.948,17.632C1.164,17.688 1.408,17.734 1.68,17.77C1.952,17.806 2.232,17.834 2.52,17.854C2.808,17.874 3.068,17.884 3.3,17.884C3.644,17.884 3.92,17.874 4.128,17.854C4.336,17.834 4.508,17.808 4.644,17.776C4.772,17.744 4.856,17.72 4.896,17.704C4.904,17.704 4.92,17.716 4.944,17.74C4.968,17.764 4.98,17.792 4.98,17.824C4.98,17.84 4.922,17.88 4.806,17.944C4.69,18.008 4.572,18.076 4.452,18.148C4.38,18.188 4.294,18.24 4.194,18.304C4.094,18.368 3.986,18.43 3.87,18.49C3.754,18.55 3.632,18.604 3.504,18.652C3.376,18.7 3.252,18.728 3.132,18.736C3.012,18.752 2.872,18.764 2.712,18.772C2.552,18.78 2.384,18.786 2.208,18.79C2.032,18.794 1.854,18.798 1.674,18.802C1.494,18.806 1.328,18.808 1.176,18.808C1.152,18.848 1.114,18.914 1.062,19.006C1.01,19.098 0.96,19.216 0.912,19.36C0.864,19.504 0.82,19.668 0.78,19.852C0.74,20.036 0.72,20.236 0.72,20.452C0.72,20.78 0.77,21.082 0.87,21.358C0.97,21.634 1.11,21.872 1.29,22.072C1.47,22.272 1.684,22.428 1.932,22.54C2.18,22.652 2.448,22.708 2.736,22.708C2.904,22.708 3.066,22.688 3.222,22.648C3.378,22.608 3.526,22.556 3.666,22.492C3.806,22.428 3.936,22.358 4.056,22.282C4.176,22.206 4.28,22.132 4.368,22.06L4.512,21.928Z" style="fill-rule:nonzero;"/>
        </g>
        <g transform="matrix(1,0,0,1,47.0875,-4.53575)">
            <text x="-39.144px" y="23.596px" style="font-family:'Luminari-Regular', 'Luminari';font-size:12px;">Bit Out</text>
        </g>
    </g>
</svg>
