<?xml version="1.0" encoding="UTF-8" standalone="no"?>
<!DOCTYPE svg PUBLIC "-//W3C//DTD SVG 1.1//EN" "http://www.w3.org/Graphics/SVG/1.1/DTD/svg11.dtd">
<svg width="100%" height="100%" viewBox="0 0 60 380" version="1.1" xmlns="http://www.w3.org/2000/svg" xmlns:xlink="http://www.w3.org/1999/xlink" xml:space="preserve" xmlns:serif="http://www.serif.com/" style="fill-rule:evenodd;clip-rule:evenodd;stroke-linecap:round;stroke-linejoin:round;stroke-miterlimit:1.5;">
    <g transform="matrix(0.359397,0,0,1.48634,-9.69795,-44.3619)">
        <rect x="26.984" y="29.846" width="166.946" height="255.662" style="fill:rgb(242,242,242);"/>
    </g>
    <g id="Label" transform="matrix(1,0,0,1,-27.2261,11.8096)">
        <g transform="matrix(1,0,0,1,58.164,339.27)">
            <g transform="matrix(0.8973,0,0,0.884326,9.28968,12.4373)">
                <circle cx="3.434" cy="5.159" r="2.172" style="stroke:black;stroke-width:0.94px;"/>
            </g>
            <g transform="matrix(0.8973,0,0,0.884326,4.54775,12.4373)">
                <circle cx="3.434" cy="5.159" r="2.172" style="fill:white;stroke:black;stroke-width:0.94px;"/>
            </g>
            <g transform="matrix(0.8973,0,0,0.884326,-0.194181,12.4373)">
                <circle cx="3.434" cy="5.159" r="2.172" style="stroke:black;stroke-width:0.94px;"/>
            </g>
            <g transform="matrix(0.8973,0,0,0.884326,14.0316,12.4373)">
                <circle cx="3.434" cy="5.159" r="2.172" style="stroke:black;stroke-width:0.94px;"/>
            </g>
            <g transform="matrix(0.8973,0,0,0.884326,9.28968,6.70878)">
                <circle cx="3.434" cy="5.159" r="2.172" style="fill:white;stroke:black;stroke-width:0.94px;"/>
            </g>
            <g transform="matrix(0.8973,0,0,0.884326,4.54775,6.70878)">
                <circle cx="3.434" cy="5.159" r="2.172" style="stroke:black;stroke-width:0.94px;"/>
            </g>
            <g transform="matrix(0.8973,0,0,0.884326,-0.194181,6.70878)">
                <circle cx="3.434" cy="5.159" r="2.172" style="stroke:black;stroke-width:0.94px;"/>
            </g>
            <g transform="matrix(0.8973,0,0,0.884326,14.0316,6.70878)">
                <circle cx="3.434" cy="5.159" r="2.172" style="fill:white;stroke:black;stroke-width:0.94px;"/>
            </g>
            <g transform="matrix(0.8973,0,0,0.884326,9.28968,0.980236)">
                <circle cx="3.434" cy="5.159" r="2.172" style="fill:white;stroke:black;stroke-width:0.94px;"/>
            </g>
            <g transform="matrix(0.8973,0,0,0.884326,4.54775,0.980236)">
                <circle cx="3.434" cy="5.159" r="2.172" style="fill:white;stroke:black;stroke-width:0.94px;"/>
            </g>
            <g transform="matrix(0.8973,0,0,0.884326,-0.194181,0.980236)">
                <circle cx="3.434" cy="5.159" r="2.172" style="stroke:black;stroke-width:0.94px;"/>
            </g>
            <g transform="matrix(0.8973,0,0,0.884326,14.0316,0.980236)">
                <circle cx="3.434" cy="5.159" r="2.172" style="stroke:black;stroke-width:0.94px;"/>
            </g>
        </g>
        <g transform="matrix(0.0195312,0,0,0.0221547,34.9714,337.813)">
            <g transform="matrix(1,0,0,1,-143.343,98.6554)">
                <ellipse cx="360.896" cy="293.762" rx="136.961" ry="230.443" style="fill:rgb(235,235,235);stroke:black;stroke-width:58.45px;"/>
            </g>
            <g transform="matrix(1,0,0,1,445.551,98.6554)">
                <ellipse cx="360.896" cy="293.762" rx="136.961" ry="230.443" style="fill:rgb(235,235,235);stroke:black;stroke-width:58.45px;"/>
            </g>
            <g transform="matrix(1,0,0,1,-34.3236,-20.6488)">
                <ellipse cx="546.324" cy="643.509" rx="431.408" ry="296.899" style="fill:rgb(235,235,235);stroke:black;stroke-width:58.45px;"/>
            </g>
            <circle cx="406.664" cy="569.758" r="105.336" style="fill:rgb(235,235,235);stroke:black;stroke-width:58.45px;"/>
            <g transform="matrix(1,0,0,1,210.672,0)">
                <circle cx="406.664" cy="569.758" r="105.336" style="fill:rgb(235,235,235);stroke:black;stroke-width:58.45px;"/>
            </g>
            <g transform="matrix(1,0,0,1,-53.1856,50.0357)">
                <ellipse cx="565.186" cy="671.455" rx="210.672" ry="98.631" style="fill:rgb(235,235,235);stroke:black;stroke-width:58.45px;"/>
            </g>
            <g transform="matrix(51.2,0,0,45.1371,0.670978,88.9676)">
                <path d="M12.057,13.791C12.057,13.668 11.958,13.568 11.835,13.568L8.139,13.568C8.016,13.568 7.916,13.668 7.916,13.791L7.916,14.236C7.916,14.359 8.016,14.458 8.139,14.458L11.835,14.458C11.958,14.458 12.057,14.359 12.057,14.236L12.057,13.791Z"/>
            </g>
        </g>
    </g>
    <g transform="matrix(1,0,0,1,-88.8763,137.758)">
        <g transform="matrix(0.3556,0,0,72.8139,83.9261,-21717.6)">
            <rect x="13.921" y="296.737" width="168.729" height="3.935" style="fill:rgb(191,191,191);"/>
        </g>
        <g transform="matrix(0.298037,0,0,0.695794,40.7401,111.795)">
            <rect x="161.957" y="57.989" width="36.327" height="2.261"/>
        </g>
        <g transform="matrix(0.298037,0,0,0.695794,40.7401,78.1562)">
            <rect x="161.957" y="57.989" width="36.327" height="2.261"/>
        </g>
        <g transform="matrix(0.298037,0,0,0.695794,40.7401,42.7882)">
            <rect x="161.957" y="57.989" width="36.327" height="2.261"/>
        </g>
        <g transform="matrix(0.298037,0,0,0.695794,40.7401,7.48107)">
            <rect x="161.957" y="57.989" width="36.327" height="2.261"/>
        </g>
        <g transform="matrix(0.298037,0,0,0.695794,40.7401,-25.9657)">
            <rect x="161.957" y="57.989" width="36.327" height="2.261"/>
        </g>
        <g transform="matrix(0.319692,0,0,0.695794,36.4462,-60.7413)">
            <rect x="161.957" y="57.989" width="36.327" height="2.261"/>
        </g>
        <g transform="matrix(0.319692,0,0,0.695794,36.4462,-95.0385)">
            <rect x="161.957" y="57.989" width="36.327" height="2.261"/>
        </g>
        <g transform="matrix(0.319692,0,0,0.695794,36.4462,-130.696)">
            <rect x="161.957" y="57.989" width="36.327" height="2.261"/>
        </g>
        <g transform="matrix(0.320796,0,0,0.707593,47.2674,-9.5962)">
            <rect x="161.957" y="57.989" width="36.327" height="2.261"/>
        </g>
        <g transform="matrix(4.08741e-16,6.67525,-0.695794,4.26051e-17,140.184,-1169.88)">
            <rect x="161.957" y="57.989" width="36.327" height="2.261"/>
        </g>
        <g id="CVOut-output" serif:id="CVOut#output" transform="matrix(0.175002,0,0,0.175002,101.09,-0.660999)">
            <rect x="53.94" y="106.916" width="161.978" height="161.978" style="fill:rgb(77,77,77);"/>
        </g>
    </g>
    <g id="BusIn-light" serif:id="BusIn#light" transform="matrix(1,0,0,1,-27.8135,10.8256)">
        <circle cx="42.167" cy="335.861" r="3.82" style="fill:rgb(230,230,230);"/>
    </g>
    <g>
        <g transform="matrix(1,0,0,1,40.0315,-2.72712)">
            <path d="M-30.776,23.676C-30.882,23.676 -31.026,23.681 -31.208,23.692C-31.389,23.702 -31.584,23.71 -31.792,23.716C-32,23.721 -32.213,23.729 -32.432,23.74C-32.65,23.75 -32.85,23.756 -33.032,23.756C-33.746,23.756 -34.445,23.646 -35.128,23.428C-35.81,23.209 -36.416,22.868 -36.944,22.404C-37.472,21.94 -37.898,21.342 -38.224,20.612C-38.549,19.881 -38.712,19.004 -38.712,17.98C-38.712,17.041 -38.533,16.209 -38.176,15.484C-37.818,14.758 -37.346,14.15 -36.76,13.66C-36.173,13.169 -35.512,12.796 -34.776,12.54C-34.04,12.284 -33.288,12.156 -32.52,12.156C-32.349,12.156 -32.117,12.166 -31.824,12.188C-31.53,12.209 -31.237,12.236 -30.944,12.268C-30.65,12.3 -30.389,12.334 -30.16,12.372C-29.93,12.409 -29.784,12.444 -29.72,12.476C-29.581,12.102 -29.426,11.772 -29.256,11.484C-29.085,11.196 -28.85,10.977 -28.552,10.828C-28.466,10.796 -28.37,10.79 -28.264,10.812C-28.157,10.833 -28.104,10.886 -28.104,10.972C-28.157,11.068 -28.197,11.126 -28.224,11.148C-28.25,11.169 -28.285,11.18 -28.328,11.18C-28.456,11.18 -28.581,11.238 -28.704,11.356C-28.826,11.473 -28.941,11.625 -29.048,11.812C-29.154,11.998 -29.248,12.212 -29.328,12.452C-29.408,12.692 -29.469,12.934 -29.512,13.18C-29.533,13.297 -29.557,13.433 -29.584,13.588C-29.61,13.742 -29.634,13.894 -29.656,14.044C-29.677,14.193 -29.693,14.337 -29.704,14.476C-29.714,14.614 -29.72,14.732 -29.72,14.828C-29.72,14.881 -29.741,14.926 -29.784,14.964C-29.826,15.001 -29.869,15.02 -29.912,15.02C-29.976,15.02 -30.05,14.988 -30.136,14.924C-30.178,14.657 -30.266,14.39 -30.4,14.124C-30.533,13.857 -30.72,13.617 -30.96,13.404C-31.2,13.19 -31.498,13.02 -31.856,12.892C-32.213,12.764 -32.637,12.7 -33.128,12.7C-33.65,12.7 -34.117,12.822 -34.528,13.068C-34.938,13.313 -35.285,13.649 -35.568,14.076C-35.85,14.502 -36.066,15.009 -36.216,15.596C-36.365,16.182 -36.44,16.812 -36.44,17.484C-36.44,18.412 -36.346,19.236 -36.16,19.956C-35.973,20.676 -35.714,21.286 -35.384,21.788C-35.053,22.289 -34.658,22.67 -34.2,22.932C-33.741,23.193 -33.24,23.324 -32.696,23.324C-32.333,23.324 -31.978,23.265 -31.632,23.148C-31.285,23.03 -30.965,22.87 -30.672,22.668C-30.378,22.465 -30.117,22.23 -29.888,21.964C-29.658,21.697 -29.48,21.414 -29.352,21.116C-29.33,21.073 -29.274,21.041 -29.184,21.02C-29.093,20.998 -29.048,21.009 -29.048,21.052C-29.048,21.19 -29.093,21.38 -29.184,21.62C-29.274,21.86 -29.378,22.1 -29.496,22.34C-29.613,22.58 -29.73,22.798 -29.848,22.996C-29.965,23.193 -30.045,23.324 -30.088,23.388C-30.12,23.462 -30.16,23.561 -30.208,23.684C-30.256,23.806 -30.298,23.945 -30.336,24.1C-30.373,24.254 -30.408,24.414 -30.44,24.58C-30.472,24.745 -30.488,24.908 -30.488,25.068C-30.488,25.238 -30.509,25.345 -30.552,25.388C-30.594,25.43 -30.685,25.452 -30.824,25.452C-30.941,25.452 -30.994,25.369 -30.984,25.204C-30.973,25.038 -30.946,24.849 -30.904,24.636C-30.861,24.422 -30.818,24.222 -30.776,24.036C-30.733,23.849 -30.733,23.729 -30.776,23.676Z" style="fill-rule:nonzero;"/>
            <path d="M-17.416,12.188C-17.288,12.188 -17.144,12.185 -16.984,12.18C-16.824,12.174 -16.672,12.169 -16.528,12.164C-16.384,12.158 -16.261,12.153 -16.16,12.148C-16.058,12.142 -15.992,12.14 -15.96,12.14C-15.778,12.14 -15.688,12.193 -15.688,12.3C-15.688,12.396 -15.725,12.465 -15.8,12.508C-15.874,12.55 -15.962,12.582 -16.064,12.604C-16.165,12.625 -16.269,12.638 -16.376,12.644C-16.482,12.649 -16.568,12.668 -16.632,12.7C-17.122,13.638 -17.6,14.569 -18.064,15.492C-18.528,16.414 -18.973,17.294 -19.4,18.132C-19.826,18.969 -20.229,19.742 -20.608,20.452C-20.986,21.161 -21.328,21.777 -21.632,22.3C-21.936,22.822 -22.2,23.233 -22.424,23.532C-22.648,23.83 -22.818,23.98 -22.936,23.98C-22.989,23.948 -23.042,23.897 -23.096,23.828C-23.149,23.758 -23.202,23.665 -23.256,23.548C-23.416,23.217 -23.597,22.817 -23.8,22.348C-24.002,21.878 -24.216,21.372 -24.44,20.828C-24.664,20.284 -24.898,19.721 -25.144,19.14C-25.389,18.558 -25.634,17.98 -25.88,17.404L-26.216,16.604C-26.397,16.156 -26.573,15.713 -26.744,15.276C-26.914,14.838 -27.072,14.436 -27.216,14.068C-27.36,13.7 -27.488,13.388 -27.6,13.132C-27.712,12.876 -27.805,12.705 -27.88,12.62C-28.146,12.62 -28.354,12.614 -28.504,12.604C-28.653,12.593 -28.765,12.58 -28.84,12.564C-28.914,12.548 -28.962,12.526 -28.984,12.5C-29.005,12.473 -29.016,12.444 -29.016,12.412C-29.016,12.337 -28.994,12.273 -28.952,12.22C-28.909,12.166 -28.866,12.14 -28.824,12.14C-28.792,12.14 -28.709,12.142 -28.576,12.148C-28.442,12.153 -28.277,12.158 -28.08,12.164C-27.882,12.169 -27.661,12.177 -27.416,12.188C-27.17,12.198 -26.925,12.204 -26.68,12.204C-25.752,12.204 -25.08,12.185 -24.664,12.148C-24.248,12.11 -23.997,12.092 -23.912,12.092C-23.709,12.092 -23.608,12.145 -23.608,12.252C-23.608,12.273 -23.613,12.302 -23.624,12.34C-23.634,12.377 -23.664,12.417 -23.712,12.46C-23.76,12.502 -23.84,12.54 -23.952,12.572C-24.064,12.604 -24.216,12.62 -24.408,12.62C-24.546,12.62 -24.682,12.617 -24.816,12.612C-24.949,12.606 -25.053,12.598 -25.128,12.588C-25.128,12.662 -25.069,12.892 -24.952,13.276C-24.834,13.66 -24.682,14.129 -24.496,14.684C-24.309,15.238 -24.096,15.841 -23.856,16.492C-23.616,17.142 -23.376,17.774 -23.136,18.388C-22.896,19.001 -22.666,19.561 -22.448,20.068C-22.229,20.574 -22.04,20.961 -21.88,21.228C-21.794,21.11 -21.661,20.876 -21.48,20.524C-21.298,20.172 -21.096,19.75 -20.872,19.26C-20.648,18.769 -20.416,18.236 -20.176,17.66C-19.936,17.084 -19.717,16.516 -19.52,15.956C-19.322,15.396 -19.16,14.868 -19.032,14.372C-18.904,13.876 -18.84,13.468 -18.84,13.148C-18.84,13.041 -18.848,12.929 -18.864,12.812C-18.88,12.694 -18.93,12.625 -19.016,12.604C-19.293,12.604 -19.52,12.598 -19.696,12.588C-19.872,12.577 -20.013,12.564 -20.12,12.548C-20.226,12.532 -20.312,12.51 -20.376,12.484C-20.44,12.457 -20.498,12.433 -20.552,12.412C-20.584,12.369 -20.6,12.305 -20.6,12.22C-20.6,12.134 -20.568,12.092 -20.504,12.092L-20.296,12.092C-20.178,12.102 -19.981,12.116 -19.704,12.132C-19.426,12.148 -19.016,12.166 -18.472,12.188L-17.416,12.188Z" style="fill-rule:nonzero;"/>
            <path d="M-6.2,23.228C-5.613,23.228 -5.096,23.081 -4.648,22.788C-4.2,22.494 -3.824,22.105 -3.52,21.62C-3.216,21.134 -2.989,20.574 -2.84,19.94C-2.69,19.305 -2.616,18.641 -2.616,17.948C-2.616,17.105 -2.717,16.345 -2.92,15.668C-3.122,14.99 -3.397,14.417 -3.744,13.948C-4.09,13.478 -4.496,13.118 -4.96,12.868C-5.424,12.617 -5.912,12.492 -6.424,12.492C-7.01,12.492 -7.536,12.622 -8,12.884C-8.464,13.145 -8.858,13.505 -9.184,13.964C-9.509,14.422 -9.757,14.969 -9.928,15.604C-10.098,16.238 -10.184,16.929 -10.184,17.676C-10.184,18.625 -10.072,19.449 -9.848,20.148C-9.624,20.846 -9.328,21.422 -8.96,21.876C-8.592,22.329 -8.168,22.668 -7.688,22.892C-7.208,23.116 -6.712,23.228 -6.2,23.228ZM-6.632,23.82C-7.464,23.82 -8.24,23.697 -8.96,23.452C-9.68,23.206 -10.306,22.846 -10.84,22.372C-11.373,21.897 -11.794,21.318 -12.104,20.636C-12.413,19.953 -12.568,19.174 -12.568,18.3C-12.568,17.34 -12.386,16.47 -12.024,15.692C-11.661,14.913 -11.181,14.246 -10.584,13.692C-9.986,13.137 -9.304,12.708 -8.536,12.404C-7.768,12.1 -6.973,11.948 -6.152,11.948C-5.373,11.948 -4.626,12.062 -3.912,12.292C-3.197,12.521 -2.568,12.857 -2.024,13.3C-1.48,13.742 -1.048,14.292 -0.728,14.948C-0.408,15.604 -0.248,16.353 -0.248,17.196C-0.248,17.996 -0.408,18.79 -0.728,19.58C-1.048,20.369 -1.49,21.078 -2.056,21.708C-2.621,22.337 -3.293,22.846 -4.072,23.236C-4.85,23.625 -5.704,23.82 -6.632,23.82Z" style="fill-rule:nonzero;"/>
            <path d="M0.408,16.988C0.323,16.966 0.283,16.924 0.288,16.86C0.294,16.796 0.334,16.758 0.408,16.748C0.44,16.737 0.542,16.7 0.712,16.636C0.883,16.572 1.088,16.497 1.328,16.412C1.568,16.326 1.819,16.236 2.08,16.14C2.342,16.044 2.574,15.964 2.776,15.9C2.904,15.857 2.992,15.828 3.04,15.812C3.088,15.796 3.128,15.788 3.16,15.788C3.192,15.788 3.23,15.801 3.272,15.828C3.315,15.854 3.326,15.894 3.304,15.948C3.272,16.033 3.238,16.236 3.2,16.556C3.163,16.876 3.128,17.23 3.096,17.62C3.064,18.009 3.035,18.396 3.008,18.78C2.982,19.164 2.968,19.468 2.968,19.692C2.968,20.545 3.15,21.204 3.512,21.668C3.875,22.132 4.44,22.364 5.208,22.364C5.603,22.364 5.931,22.284 6.192,22.124C6.454,21.964 6.654,21.777 6.792,21.564C6.888,21.425 6.952,21.121 6.984,20.652C6.984,20.566 6.987,20.454 6.992,20.316C6.998,20.177 7.003,20.03 7.008,19.876C7.014,19.721 7.019,19.572 7.024,19.428C7.03,19.284 7.032,19.164 7.032,19.068C7.043,18.577 7.03,18.121 6.992,17.7C6.955,17.278 6.899,16.966 6.824,16.764C6.792,16.636 6.728,16.572 6.632,16.572C6.568,16.572 6.507,16.574 6.448,16.58C6.39,16.585 6.355,16.54 6.344,16.444C6.344,16.412 6.376,16.377 6.44,16.34C6.504,16.302 6.627,16.246 6.808,16.172C6.979,16.108 7.168,16.044 7.376,15.98C7.584,15.916 7.79,15.862 7.992,15.82C8.195,15.777 8.376,15.748 8.536,15.732C8.696,15.716 8.814,15.724 8.888,15.756C8.888,15.766 8.896,15.78 8.912,15.796C8.928,15.812 8.942,15.846 8.952,15.9C8.974,15.964 8.96,16.164 8.912,16.5C8.864,16.836 8.814,17.382 8.76,18.14C8.718,18.662 8.68,19.169 8.648,19.66C8.616,20.15 8.6,20.524 8.6,20.78C8.6,21.281 8.694,21.678 8.88,21.972C9.067,22.265 9.299,22.412 9.576,22.412C9.758,22.412 9.931,22.374 10.096,22.3C10.262,22.225 10.382,22.161 10.456,22.108C10.542,22.108 10.587,22.145 10.592,22.22C10.598,22.294 10.579,22.342 10.536,22.364C10.376,22.47 10.155,22.604 9.872,22.764C9.59,22.924 9.296,23.076 8.992,23.22C8.688,23.364 8.398,23.486 8.12,23.588C7.843,23.689 7.619,23.74 7.448,23.74C7.363,23.74 7.286,23.684 7.216,23.572C7.147,23.46 7.091,23.324 7.048,23.164C7.006,23.004 6.974,22.838 6.952,22.668C6.931,22.497 6.92,22.348 6.92,22.22C6.696,22.38 6.44,22.548 6.152,22.724C5.864,22.9 5.566,23.065 5.256,23.22C4.947,23.374 4.64,23.5 4.336,23.596C4.032,23.692 3.752,23.74 3.496,23.74C2.846,23.74 2.312,23.566 1.896,23.22C1.48,22.873 1.272,22.422 1.272,21.868C1.272,21.75 1.283,21.574 1.304,21.34C1.326,21.105 1.352,20.838 1.384,20.54C1.416,20.241 1.443,19.921 1.464,19.58C1.486,19.238 1.496,18.908 1.496,18.588C1.496,18.097 1.419,17.721 1.264,17.46C1.11,17.198 0.91,17.052 0.664,17.02L0.408,16.988Z" style="fill-rule:nonzero;"/>
            <path d="M18.024,21.372C18.046,21.35 18.064,21.353 18.08,21.38C18.096,21.406 18.107,21.444 18.112,21.492C18.118,21.54 18.115,21.59 18.104,21.644C18.094,21.697 18.072,21.74 18.04,21.772C17.827,21.974 17.56,22.188 17.24,22.412C16.92,22.636 16.59,22.844 16.248,23.036C16.152,23.089 16.019,23.158 15.848,23.244C15.678,23.329 15.488,23.412 15.28,23.492C15.072,23.572 14.859,23.641 14.64,23.7C14.422,23.758 14.216,23.788 14.024,23.788C13.64,23.788 13.278,23.713 12.936,23.564C12.595,23.414 12.296,23.209 12.04,22.948C11.784,22.686 11.584,22.374 11.44,22.012C11.296,21.649 11.224,21.254 11.224,20.828C11.224,20.369 11.288,19.937 11.416,19.532C11.544,19.126 11.691,18.764 11.856,18.444C12.022,18.124 12.179,17.854 12.328,17.636C12.478,17.417 12.579,17.254 12.632,17.148C12.43,17.137 12.246,17.129 12.08,17.124C11.915,17.118 11.758,17.116 11.608,17.116C11.267,17.116 10.979,17.118 10.744,17.124C10.51,17.129 10.302,17.153 10.12,17.196C10.035,17.217 9.955,17.26 9.88,17.324C9.806,17.388 9.742,17.436 9.688,17.468C9.667,17.446 9.638,17.417 9.6,17.38C9.563,17.342 9.544,17.302 9.544,17.26C9.544,17.238 9.55,17.222 9.56,17.212C9.56,17.201 9.63,17.14 9.768,17.028C9.907,16.916 10.08,16.782 10.288,16.628C10.496,16.473 10.726,16.302 10.976,16.116C11.227,15.929 11.467,15.756 11.696,15.596C11.926,15.436 12.123,15.3 12.288,15.188C12.454,15.076 12.563,15.009 12.616,14.988C12.68,14.966 12.744,14.977 12.808,15.02C12.872,15.062 12.894,15.094 12.872,15.116C12.84,15.137 12.792,15.177 12.728,15.236C12.664,15.294 12.643,15.345 12.664,15.388C12.782,15.484 12.984,15.569 13.272,15.644C13.56,15.718 13.886,15.78 14.248,15.828C14.611,15.876 14.984,15.913 15.368,15.94C15.752,15.966 16.099,15.98 16.408,15.98C16.867,15.98 17.235,15.966 17.512,15.94C17.79,15.913 18.019,15.878 18.2,15.836C18.371,15.793 18.483,15.761 18.536,15.74C18.547,15.74 18.568,15.756 18.6,15.788C18.632,15.82 18.648,15.857 18.648,15.9C18.648,15.921 18.571,15.974 18.416,16.06C18.262,16.145 18.104,16.236 17.944,16.332C17.848,16.385 17.734,16.454 17.6,16.54C17.467,16.625 17.323,16.708 17.168,16.788C17.014,16.868 16.851,16.94 16.68,17.004C16.51,17.068 16.344,17.105 16.184,17.116C16.024,17.137 15.838,17.153 15.624,17.164C15.411,17.174 15.187,17.182 14.952,17.188C14.718,17.193 14.48,17.198 14.24,17.204C14,17.209 13.779,17.212 13.576,17.212C13.544,17.265 13.494,17.353 13.424,17.476C13.355,17.598 13.288,17.756 13.224,17.948C13.16,18.14 13.102,18.358 13.048,18.604C12.995,18.849 12.968,19.116 12.968,19.404C12.968,19.841 13.035,20.244 13.168,20.612C13.302,20.98 13.488,21.297 13.728,21.564C13.968,21.83 14.254,22.038 14.584,22.188C14.915,22.337 15.272,22.412 15.656,22.412C15.88,22.412 16.096,22.385 16.304,22.332C16.512,22.278 16.71,22.209 16.896,22.124C17.083,22.038 17.256,21.945 17.416,21.844C17.576,21.742 17.715,21.644 17.832,21.548L18.024,21.372Z" style="fill-rule:nonzero;"/>
        </g>
        <g transform="matrix(1,0,0,1,40.0315,-2.72712)">
            <text x="-39.144px" y="23.596px" style="font-family:'Luminari-Regular', 'Luminari';font-size:16px;">CV Out</text>
        </g>
    </g>
</svg>
