<?xml version="1.0" encoding="UTF-8" standalone="no"?>
<!DOCTYPE svg PUBLIC "-//W3C//DTD SVG 1.1//EN" "http://www.w3.org/Graphics/SVG/1.1/DTD/svg11.dtd">
<svg width="100%" height="100%" viewBox="0 0 60 380" version="1.1" xmlns="http://www.w3.org/2000/svg" xmlns:xlink="http://www.w3.org/1999/xlink" xml:space="preserve" xmlns:serif="http://www.serif.com/" style="fill-rule:evenodd;clip-rule:evenodd;stroke-linecap:round;stroke-linejoin:round;stroke-miterlimit:1.5;">
    <g transform="matrix(0.359397,0,0,1.48634,-9.69795,-44.3619)">
        <rect x="26.984" y="29.846" width="166.946" height="255.662" style="fill:rgb(242,242,242);"/>
    </g>
    <g id="Label" transform="matrix(1,0,0,1,-27.2261,11.8096)">
        <g transform="matrix(1,0,0,1,58.164,339.27)">
            <g transform="matrix(0.8973,0,0,0.884326,9.28968,12.4373)">
                <circle cx="3.434" cy="5.159" r="2.172" style="stroke:black;stroke-width:0.94px;"/>
            </g>
            <g transform="matrix(0.8973,0,0,0.884326,4.54775,12.4373)">
                <circle cx="3.434" cy="5.159" r="2.172" style="fill:white;stroke:black;stroke-width:0.94px;"/>
            </g>
            <g transform="matrix(0.8973,0,0,0.884326,-0.194181,12.4373)">
                <circle cx="3.434" cy="5.159" r="2.172" style="stroke:black;stroke-width:0.94px;"/>
            </g>
            <g transform="matrix(0.8973,0,0,0.884326,14.0316,12.4373)">
                <circle cx="3.434" cy="5.159" r="2.172" style="stroke:black;stroke-width:0.94px;"/>
            </g>
            <g transform="matrix(0.8973,0,0,0.884326,9.28968,6.70878)">
                <circle cx="3.434" cy="5.159" r="2.172" style="fill:white;stroke:black;stroke-width:0.94px;"/>
            </g>
            <g transform="matrix(0.8973,0,0,0.884326,4.54775,6.70878)">
                <circle cx="3.434" cy="5.159" r="2.172" style="stroke:black;stroke-width:0.94px;"/>
            </g>
            <g transform="matrix(0.8973,0,0,0.884326,-0.194181,6.70878)">
                <circle cx="3.434" cy="5.159" r="2.172" style="stroke:black;stroke-width:0.94px;"/>
            </g>
            <g transform="matrix(0.8973,0,0,0.884326,14.0316,6.70878)">
                <circle cx="3.434" cy="5.159" r="2.172" style="fill:white;stroke:black;stroke-width:0.94px;"/>
            </g>
            <g transform="matrix(0.8973,0,0,0.884326,9.28968,0.980236)">
                <circle cx="3.434" cy="5.159" r="2.172" style="fill:white;stroke:black;stroke-width:0.94px;"/>
            </g>
            <g transform="matrix(0.8973,0,0,0.884326,4.54775,0.980236)">
                <circle cx="3.434" cy="5.159" r="2.172" style="fill:white;stroke:black;stroke-width:0.94px;"/>
            </g>
            <g transform="matrix(0.8973,0,0,0.884326,-0.194181,0.980236)">
                <circle cx="3.434" cy="5.159" r="2.172" style="stroke:black;stroke-width:0.94px;"/>
            </g>
            <g transform="matrix(0.8973,0,0,0.884326,14.0316,0.980236)">
                <circle cx="3.434" cy="5.159" r="2.172" style="stroke:black;stroke-width:0.94px;"/>
            </g>
        </g>
        <g transform="matrix(0.0195312,0,0,0.0221547,34.9714,337.813)">
            <g transform="matrix(1,0,0,1,-143.343,98.6554)">
                <ellipse cx="360.896" cy="293.762" rx="136.961" ry="230.443" style="fill:rgb(235,235,235);stroke:black;stroke-width:58.45px;"/>
            </g>
            <g transform="matrix(1,0,0,1,445.551,98.6554)">
                <ellipse cx="360.896" cy="293.762" rx="136.961" ry="230.443" style="fill:rgb(235,235,235);stroke:black;stroke-width:58.45px;"/>
            </g>
            <g transform="matrix(1,0,0,1,-34.3236,-20.6488)">
                <ellipse cx="546.324" cy="643.509" rx="431.408" ry="296.899" style="fill:rgb(235,235,235);stroke:black;stroke-width:58.45px;"/>
            </g>
            <circle cx="406.664" cy="569.758" r="105.336" style="fill:rgb(235,235,235);stroke:black;stroke-width:58.45px;"/>
            <g transform="matrix(1,0,0,1,210.672,0)">
                <circle cx="406.664" cy="569.758" r="105.336" style="fill:rgb(235,235,235);stroke:black;stroke-width:58.45px;"/>
            </g>
            <g transform="matrix(1,0,0,1,-53.1856,50.0357)">
                <ellipse cx="565.186" cy="671.455" rx="210.672" ry="98.631" style="fill:rgb(235,235,235);stroke:black;stroke-width:58.45px;"/>
            </g>
            <g transform="matrix(51.2,0,0,45.1371,0.670978,88.9676)">
                <path d="M12.057,13.791C12.057,13.668 11.958,13.568 11.835,13.568L8.139,13.568C8.016,13.568 7.916,13.668 7.916,13.791L7.916,14.236C7.916,14.359 8.016,14.458 8.139,14.458L11.835,14.458C11.958,14.458 12.057,14.359 12.057,14.236L12.057,13.791Z"/>
            </g>
        </g>
    </g>
    <g transform="matrix(1,0,0,1,-88.8763,137.758)">
        <g transform="matrix(0.3556,0,0,72.8139,83.9261,-21717.6)">
            <rect x="13.921" y="296.737" width="168.729" height="3.935" style="fill:rgb(191,191,191);"/>
        </g>
        <g transform="matrix(0.298037,0,0,0.695794,89.7802,111.795)">
            <rect x="161.957" y="57.989" width="36.327" height="2.261"/>
        </g>
        <g transform="matrix(0.298037,0,0,0.695794,89.7802,78.1562)">
            <rect x="161.957" y="57.989" width="36.327" height="2.261"/>
        </g>
        <g transform="matrix(0.298037,0,0,0.695794,89.7802,42.7882)">
            <rect x="161.957" y="57.989" width="36.327" height="2.261"/>
        </g>
        <g transform="matrix(0.298037,0,0,0.695794,89.7802,7.48107)">
            <rect x="161.957" y="57.989" width="36.327" height="2.261"/>
        </g>
        <g transform="matrix(0.298037,0,0,0.695794,89.7802,-25.9657)">
            <rect x="161.957" y="57.989" width="36.327" height="2.261"/>
        </g>
        <g transform="matrix(0.319692,0,0,0.695794,85.4864,-60.7413)">
            <rect x="161.957" y="57.989" width="36.327" height="2.261"/>
        </g>
        <g transform="matrix(0.319692,0,0,0.695794,85.4864,-95.0385)">
            <rect x="161.957" y="57.989" width="36.327" height="2.261"/>
        </g>
        <g transform="matrix(0.319692,0,0,0.695794,85.4864,-130.696)">
            <rect x="161.957" y="57.989" width="36.327" height="2.261"/>
        </g>
        <g transform="matrix(0.320796,0,0,0.707593,75.2674,-9.5962)">
            <rect x="161.957" y="57.989" width="36.327" height="2.261"/>
        </g>
        <g transform="matrix(4.08741e-16,6.67525,-0.695794,4.26051e-17,179.184,-1169.88)">
            <rect x="161.957" y="57.989" width="36.327" height="2.261"/>
        </g>
        <g id="CVIn-input" serif:id="CVIn#input" transform="matrix(0.175002,0,0,0.175002,89.4367,-0.660999)">
            <rect x="53.94" y="106.916" width="161.978" height="161.978" style="fill:rgb(230,230,230);"/>
        </g>
    </g>
    <g id="BusOut-light" serif:id="BusOut#light" transform="matrix(1,0,0,1,3.18651,10.8256)">
        <circle cx="42.167" cy="335.861" r="3.82" style="fill:rgb(230,230,230);"/>
    </g>
    <g>
        <g transform="matrix(1,0,0,1,47.2982,-2.72712)">
            <path d="M-30.776,23.676C-30.882,23.676 -31.026,23.681 -31.208,23.692C-31.389,23.702 -31.584,23.71 -31.792,23.716C-32,23.721 -32.213,23.729 -32.432,23.74C-32.65,23.75 -32.85,23.756 -33.032,23.756C-33.746,23.756 -34.445,23.646 -35.128,23.428C-35.81,23.209 -36.416,22.868 -36.944,22.404C-37.472,21.94 -37.898,21.342 -38.224,20.612C-38.549,19.881 -38.712,19.004 -38.712,17.98C-38.712,17.041 -38.533,16.209 -38.176,15.484C-37.818,14.758 -37.346,14.15 -36.76,13.66C-36.173,13.169 -35.512,12.796 -34.776,12.54C-34.04,12.284 -33.288,12.156 -32.52,12.156C-32.349,12.156 -32.117,12.166 -31.824,12.188C-31.53,12.209 -31.237,12.236 -30.944,12.268C-30.65,12.3 -30.389,12.334 -30.16,12.372C-29.93,12.409 -29.784,12.444 -29.72,12.476C-29.581,12.102 -29.426,11.772 -29.256,11.484C-29.085,11.196 -28.85,10.977 -28.552,10.828C-28.466,10.796 -28.37,10.79 -28.264,10.812C-28.157,10.833 -28.104,10.886 -28.104,10.972C-28.157,11.068 -28.197,11.126 -28.224,11.148C-28.25,11.169 -28.285,11.18 -28.328,11.18C-28.456,11.18 -28.581,11.238 -28.704,11.356C-28.826,11.473 -28.941,11.625 -29.048,11.812C-29.154,11.998 -29.248,12.212 -29.328,12.452C-29.408,12.692 -29.469,12.934 -29.512,13.18C-29.533,13.297 -29.557,13.433 -29.584,13.588C-29.61,13.742 -29.634,13.894 -29.656,14.044C-29.677,14.193 -29.693,14.337 -29.704,14.476C-29.714,14.614 -29.72,14.732 -29.72,14.828C-29.72,14.881 -29.741,14.926 -29.784,14.964C-29.826,15.001 -29.869,15.02 -29.912,15.02C-29.976,15.02 -30.05,14.988 -30.136,14.924C-30.178,14.657 -30.266,14.39 -30.4,14.124C-30.533,13.857 -30.72,13.617 -30.96,13.404C-31.2,13.19 -31.498,13.02 -31.856,12.892C-32.213,12.764 -32.637,12.7 -33.128,12.7C-33.65,12.7 -34.117,12.822 -34.528,13.068C-34.938,13.313 -35.285,13.649 -35.568,14.076C-35.85,14.502 -36.066,15.009 -36.216,15.596C-36.365,16.182 -36.44,16.812 -36.44,17.484C-36.44,18.412 -36.346,19.236 -36.16,19.956C-35.973,20.676 -35.714,21.286 -35.384,21.788C-35.053,22.289 -34.658,22.67 -34.2,22.932C-33.741,23.193 -33.24,23.324 -32.696,23.324C-32.333,23.324 -31.978,23.265 -31.632,23.148C-31.285,23.03 -30.965,22.87 -30.672,22.668C-30.378,22.465 -30.117,22.23 -29.888,21.964C-29.658,21.697 -29.48,21.414 -29.352,21.116C-29.33,21.073 -29.274,21.041 -29.184,21.02C-29.093,20.998 -29.048,21.009 -29.048,21.052C-29.048,21.19 -29.093,21.38 -29.184,21.62C-29.274,21.86 -29.378,22.1 -29.496,22.34C-29.613,22.58 -29.73,22.798 -29.848,22.996C-29.965,23.193 -30.045,23.324 -30.088,23.388C-30.12,23.462 -30.16,23.561 -30.208,23.684C-30.256,23.806 -30.298,23.945 -30.336,24.1C-30.373,24.254 -30.408,24.414 -30.44,24.58C-30.472,24.745 -30.488,24.908 -30.488,25.068C-30.488,25.238 -30.509,25.345 -30.552,25.388C-30.594,25.43 -30.685,25.452 -30.824,25.452C-30.941,25.452 -30.994,25.369 -30.984,25.204C-30.973,25.038 -30.946,24.849 -30.904,24.636C-30.861,24.422 -30.818,24.222 -30.776,24.036C-30.733,23.849 -30.733,23.729 -30.776,23.676Z" style="fill-rule:nonzero;"/>
            <path d="M-17.416,12.188C-17.288,12.188 -17.144,12.185 -16.984,12.18C-16.824,12.174 -16.672,12.169 -16.528,12.164C-16.384,12.158 -16.261,12.153 -16.16,12.148C-16.058,12.142 -15.992,12.14 -15.96,12.14C-15.778,12.14 -15.688,12.193 -15.688,12.3C-15.688,12.396 -15.725,12.465 -15.8,12.508C-15.874,12.55 -15.962,12.582 -16.064,12.604C-16.165,12.625 -16.269,12.638 -16.376,12.644C-16.482,12.649 -16.568,12.668 -16.632,12.7C-17.122,13.638 -17.6,14.569 -18.064,15.492C-18.528,16.414 -18.973,17.294 -19.4,18.132C-19.826,18.969 -20.229,19.742 -20.608,20.452C-20.986,21.161 -21.328,21.777 -21.632,22.3C-21.936,22.822 -22.2,23.233 -22.424,23.532C-22.648,23.83 -22.818,23.98 -22.936,23.98C-22.989,23.948 -23.042,23.897 -23.096,23.828C-23.149,23.758 -23.202,23.665 -23.256,23.548C-23.416,23.217 -23.597,22.817 -23.8,22.348C-24.002,21.878 -24.216,21.372 -24.44,20.828C-24.664,20.284 -24.898,19.721 -25.144,19.14C-25.389,18.558 -25.634,17.98 -25.88,17.404L-26.216,16.604C-26.397,16.156 -26.573,15.713 -26.744,15.276C-26.914,14.838 -27.072,14.436 -27.216,14.068C-27.36,13.7 -27.488,13.388 -27.6,13.132C-27.712,12.876 -27.805,12.705 -27.88,12.62C-28.146,12.62 -28.354,12.614 -28.504,12.604C-28.653,12.593 -28.765,12.58 -28.84,12.564C-28.914,12.548 -28.962,12.526 -28.984,12.5C-29.005,12.473 -29.016,12.444 -29.016,12.412C-29.016,12.337 -28.994,12.273 -28.952,12.22C-28.909,12.166 -28.866,12.14 -28.824,12.14C-28.792,12.14 -28.709,12.142 -28.576,12.148C-28.442,12.153 -28.277,12.158 -28.08,12.164C-27.882,12.169 -27.661,12.177 -27.416,12.188C-27.17,12.198 -26.925,12.204 -26.68,12.204C-25.752,12.204 -25.08,12.185 -24.664,12.148C-24.248,12.11 -23.997,12.092 -23.912,12.092C-23.709,12.092 -23.608,12.145 -23.608,12.252C-23.608,12.273 -23.613,12.302 -23.624,12.34C-23.634,12.377 -23.664,12.417 -23.712,12.46C-23.76,12.502 -23.84,12.54 -23.952,12.572C-24.064,12.604 -24.216,12.62 -24.408,12.62C-24.546,12.62 -24.682,12.617 -24.816,12.612C-24.949,12.606 -25.053,12.598 -25.128,12.588C-25.128,12.662 -25.069,12.892 -24.952,13.276C-24.834,13.66 -24.682,14.129 -24.496,14.684C-24.309,15.238 -24.096,15.841 -23.856,16.492C-23.616,17.142 -23.376,17.774 -23.136,18.388C-22.896,19.001 -22.666,19.561 -22.448,20.068C-22.229,20.574 -22.04,20.961 -21.88,21.228C-21.794,21.11 -21.661,20.876 -21.48,20.524C-21.298,20.172 -21.096,19.75 -20.872,19.26C-20.648,18.769 -20.416,18.236 -20.176,17.66C-19.936,17.084 -19.717,16.516 -19.52,15.956C-19.322,15.396 -19.16,14.868 -19.032,14.372C-18.904,13.876 -18.84,13.468 -18.84,13.148C-18.84,13.041 -18.848,12.929 -18.864,12.812C-18.88,12.694 -18.93,12.625 -19.016,12.604C-19.293,12.604 -19.52,12.598 -19.696,12.588C-19.872,12.577 -20.013,12.564 -20.12,12.548C-20.226,12.532 -20.312,12.51 -20.376,12.484C-20.44,12.457 -20.498,12.433 -20.552,12.412C-20.584,12.369 -20.6,12.305 -20.6,12.22C-20.6,12.134 -20.568,12.092 -20.504,12.092L-20.296,12.092C-20.178,12.102 -19.981,12.116 -19.704,12.132C-19.426,12.148 -19.016,12.166 -18.472,12.188L-17.416,12.188Z" style="fill-rule:nonzero;"/>
            <path d="M-10.136,23.596C-10.328,23.596 -10.541,23.598 -10.776,23.604C-11.01,23.609 -11.24,23.614 -11.464,23.62C-11.688,23.625 -11.898,23.636 -12.096,23.652C-12.293,23.668 -12.445,23.681 -12.552,23.692L-12.808,23.724C-12.861,23.724 -12.906,23.694 -12.944,23.636C-12.981,23.577 -13,23.521 -13,23.468C-13,23.425 -12.978,23.38 -12.936,23.332C-12.893,23.284 -12.834,23.26 -12.76,23.26C-12.312,23.26 -11.954,23.233 -11.688,23.18C-11.421,23.126 -11.261,23.057 -11.208,22.972C-11.144,22.844 -11.077,22.558 -11.008,22.116C-10.938,21.673 -10.877,21.156 -10.824,20.564C-10.77,19.972 -10.728,19.35 -10.696,18.7C-10.664,18.049 -10.648,17.446 -10.648,16.892C-10.648,16.284 -10.65,15.774 -10.656,15.364C-10.661,14.953 -10.666,14.614 -10.672,14.348C-10.677,14.081 -10.682,13.876 -10.688,13.732C-10.693,13.588 -10.696,13.484 -10.696,13.42C-10.706,13.078 -10.754,12.852 -10.84,12.74C-10.925,12.628 -11.08,12.561 -11.304,12.54C-11.464,12.518 -11.65,12.513 -11.864,12.524C-12.077,12.534 -12.232,12.534 -12.328,12.524C-12.402,12.513 -12.466,12.5 -12.52,12.484C-12.573,12.468 -12.6,12.412 -12.6,12.316C-12.6,12.209 -12.573,12.137 -12.52,12.1C-12.466,12.062 -12.408,12.044 -12.344,12.044C-12.258,12.044 -11.984,12.062 -11.52,12.1C-11.056,12.137 -10.392,12.156 -9.528,12.156C-8.962,12.156 -8.48,12.142 -8.08,12.116C-7.68,12.089 -7.405,12.065 -7.256,12.044C-7.181,12.044 -7.109,12.052 -7.04,12.068C-6.97,12.084 -6.936,12.134 -6.936,12.22C-6.936,12.401 -7.058,12.502 -7.304,12.524C-7.389,12.524 -7.485,12.529 -7.592,12.54C-7.698,12.55 -7.802,12.561 -7.904,12.572C-8.005,12.582 -8.098,12.598 -8.184,12.62C-8.269,12.641 -8.333,12.657 -8.376,12.668C-8.429,12.689 -8.48,12.884 -8.528,13.252C-8.576,13.62 -8.618,14.076 -8.656,14.62C-8.693,15.164 -8.728,15.75 -8.76,16.38C-8.792,17.009 -8.813,17.59 -8.824,18.124C-8.834,18.529 -8.842,19.001 -8.848,19.54C-8.853,20.078 -8.848,20.596 -8.832,21.092C-8.816,21.588 -8.792,22.017 -8.76,22.38C-8.728,22.742 -8.68,22.95 -8.616,23.004C-8.573,23.036 -8.493,23.065 -8.376,23.092C-8.258,23.118 -8.12,23.145 -7.96,23.172C-7.8,23.198 -7.637,23.217 -7.472,23.228C-7.306,23.238 -7.154,23.244 -7.016,23.244C-6.898,23.244 -6.824,23.254 -6.792,23.276C-6.76,23.297 -6.744,23.35 -6.744,23.436C-6.744,23.532 -6.784,23.601 -6.864,23.644C-6.944,23.686 -7.026,23.708 -7.112,23.708C-7.176,23.708 -7.272,23.702 -7.4,23.692C-7.528,23.681 -7.704,23.668 -7.928,23.652C-8.152,23.636 -8.434,23.622 -8.776,23.612C-9.117,23.601 -9.538,23.596 -10.04,23.596L-10.136,23.596Z" style="fill-rule:nonzero;"/>
            <path d="M-3.576,19.372C-3.586,19.468 -3.597,19.553 -3.608,19.628C-3.618,19.702 -3.626,19.788 -3.632,19.884C-3.637,19.98 -3.642,20.1 -3.648,20.244C-3.653,20.388 -3.656,20.577 -3.656,20.812C-3.656,21.196 -3.642,21.51 -3.616,21.756C-3.589,22.001 -3.549,22.196 -3.496,22.34C-3.442,22.484 -3.376,22.582 -3.296,22.636C-3.216,22.689 -3.117,22.716 -3,22.716C-2.925,22.716 -2.845,22.705 -2.76,22.684C-2.738,22.684 -2.72,22.713 -2.704,22.772C-2.688,22.83 -2.69,22.87 -2.712,22.892C-2.776,22.945 -2.901,23.022 -3.088,23.124C-3.274,23.225 -3.485,23.324 -3.72,23.42C-3.954,23.516 -4.197,23.601 -4.448,23.676C-4.698,23.75 -4.909,23.788 -5.08,23.788C-5.229,23.788 -5.346,23.769 -5.432,23.732C-5.517,23.694 -5.56,23.649 -5.56,23.596C-5.56,23.542 -5.554,23.51 -5.544,23.5C-5.533,23.489 -5.517,23.462 -5.496,23.42C-5.474,23.366 -5.458,23.3 -5.448,23.22C-5.437,23.14 -5.421,23.046 -5.4,22.94C-5.378,22.79 -5.357,22.601 -5.336,22.372C-5.314,22.142 -5.293,21.892 -5.272,21.62C-5.25,21.348 -5.232,21.065 -5.216,20.772C-5.2,20.478 -5.192,20.193 -5.192,19.916C-5.192,19.798 -5.194,19.652 -5.2,19.476C-5.205,19.3 -5.213,19.073 -5.224,18.796C-5.234,18.486 -5.269,18.222 -5.328,18.004C-5.386,17.785 -5.461,17.609 -5.552,17.476C-5.642,17.342 -5.744,17.244 -5.856,17.18C-5.968,17.116 -6.077,17.084 -6.184,17.084L-6.344,17.084C-6.397,17.084 -6.45,17.089 -6.504,17.1C-6.546,17.1 -6.568,17.052 -6.568,16.956C-6.568,16.934 -6.56,16.916 -6.544,16.9C-6.528,16.884 -6.477,16.849 -6.392,16.796C-6.253,16.7 -6.066,16.582 -5.832,16.444C-5.597,16.305 -5.357,16.177 -5.112,16.06C-4.866,15.942 -4.634,15.841 -4.416,15.756C-4.197,15.67 -4.029,15.628 -3.912,15.628C-3.602,15.628 -3.448,15.804 -3.448,16.156C-3.448,16.209 -3.453,16.305 -3.464,16.444C-3.474,16.582 -3.482,16.724 -3.488,16.868C-3.493,17.012 -3.501,17.148 -3.512,17.276C-3.522,17.404 -3.528,17.489 -3.528,17.532C-3.304,17.318 -3.064,17.1 -2.808,16.876C-2.552,16.652 -2.274,16.446 -1.976,16.26C-1.677,16.073 -1.362,15.921 -1.032,15.804C-0.701,15.686 -0.36,15.628 -0.008,15.628C0.632,15.628 1.158,15.812 1.568,16.18C1.979,16.548 2.184,17.132 2.184,17.932C2.184,18.145 2.171,18.396 2.144,18.684C2.118,18.972 2.088,19.27 2.056,19.58C2.024,19.889 1.995,20.193 1.968,20.492C1.942,20.79 1.928,21.057 1.928,21.292C1.928,22.145 2.206,22.572 2.76,22.572C2.867,22.572 2.987,22.553 3.12,22.516C3.254,22.478 3.382,22.436 3.504,22.388C3.627,22.34 3.736,22.292 3.832,22.244C3.928,22.196 3.992,22.156 4.024,22.124C4.035,22.113 4.048,22.121 4.064,22.148C4.08,22.174 4.094,22.209 4.104,22.252C4.115,22.294 4.118,22.332 4.112,22.364C4.107,22.396 4.099,22.417 4.088,22.428C4.003,22.481 3.819,22.582 3.536,22.732C3.254,22.881 2.939,23.033 2.592,23.188C2.246,23.342 1.902,23.481 1.56,23.604C1.219,23.726 0.947,23.788 0.744,23.788C0.499,23.788 0.331,23.729 0.24,23.612C0.15,23.494 0.104,23.372 0.104,23.244C0.104,23.158 0.118,23.052 0.144,22.924C0.171,22.796 0.206,22.588 0.248,22.3C0.291,21.99 0.331,21.628 0.368,21.212C0.406,20.796 0.424,20.348 0.424,19.868C0.424,18.929 0.251,18.217 -0.096,17.732C-0.442,17.246 -0.877,17.004 -1.4,17.004C-1.73,17.004 -2.024,17.068 -2.28,17.196C-2.536,17.324 -2.754,17.497 -2.936,17.716C-3.117,17.934 -3.261,18.185 -3.368,18.468C-3.474,18.75 -3.544,19.052 -3.576,19.372Z" style="fill-rule:nonzero;"/>
        </g>
        <g transform="matrix(1,0,0,1,47.2982,-2.72712)">
            <text x="-39.144px" y="23.596px" style="font-family:'Luminari-Regular', 'Luminari';font-size:16px;">CV In</text>
        </g>
    </g>
</svg>
