<?xml version="1.0" encoding="UTF-8" standalone="no"?>
<!DOCTYPE svg PUBLIC "-//W3C//DTD SVG 1.1//EN" "http://www.w3.org/Graphics/SVG/1.1/DTD/svg11.dtd">
<svg width="100%" height="100%" viewBox="0 0 90 380" version="1.1" xmlns="http://www.w3.org/2000/svg" xmlns:xlink="http://www.w3.org/1999/xlink" xml:space="preserve" xmlns:serif="http://www.serif.com/" style="fill-rule:evenodd;clip-rule:evenodd;stroke-linecap:round;stroke-linejoin:round;stroke-miterlimit:1.5;">
    <g transform="matrix(0.539096,0,0,1.48634,-14.5469,-44.3619)">
        <rect x="26.984" y="29.846" width="166.946" height="255.662" style="fill:rgb(242,242,242);"/>
    </g>
    <g id="Label" transform="matrix(1,0,0,1,-12.2261,11.8096)">
        <g transform="matrix(1,0,0,1,58.164,339.27)">
            <g transform="matrix(0.8973,0,0,0.884326,9.28968,12.4373)">
                <circle cx="3.434" cy="5.159" r="2.172" style="stroke:black;stroke-width:0.94px;"/>
            </g>
            <g transform="matrix(0.8973,0,0,0.884326,4.54775,12.4373)">
                <circle cx="3.434" cy="5.159" r="2.172" style="fill:white;stroke:black;stroke-width:0.94px;"/>
            </g>
            <g transform="matrix(0.8973,0,0,0.884326,-0.194181,12.4373)">
                <circle cx="3.434" cy="5.159" r="2.172" style="stroke:black;stroke-width:0.94px;"/>
            </g>
            <g transform="matrix(0.8973,0,0,0.884326,14.0316,12.4373)">
                <circle cx="3.434" cy="5.159" r="2.172" style="stroke:black;stroke-width:0.94px;"/>
            </g>
            <g transform="matrix(0.8973,0,0,0.884326,9.28968,6.70878)">
                <circle cx="3.434" cy="5.159" r="2.172" style="fill:white;stroke:black;stroke-width:0.94px;"/>
            </g>
            <g transform="matrix(0.8973,0,0,0.884326,4.54775,6.70878)">
                <circle cx="3.434" cy="5.159" r="2.172" style="stroke:black;stroke-width:0.94px;"/>
            </g>
            <g transform="matrix(0.8973,0,0,0.884326,-0.194181,6.70878)">
                <circle cx="3.434" cy="5.159" r="2.172" style="stroke:black;stroke-width:0.94px;"/>
            </g>
            <g transform="matrix(0.8973,0,0,0.884326,14.0316,6.70878)">
                <circle cx="3.434" cy="5.159" r="2.172" style="fill:white;stroke:black;stroke-width:0.94px;"/>
            </g>
            <g transform="matrix(0.8973,0,0,0.884326,9.28968,0.980236)">
                <circle cx="3.434" cy="5.159" r="2.172" style="fill:white;stroke:black;stroke-width:0.94px;"/>
            </g>
            <g transform="matrix(0.8973,0,0,0.884326,4.54775,0.980236)">
                <circle cx="3.434" cy="5.159" r="2.172" style="fill:white;stroke:black;stroke-width:0.94px;"/>
            </g>
            <g transform="matrix(0.8973,0,0,0.884326,-0.194181,0.980236)">
                <circle cx="3.434" cy="5.159" r="2.172" style="stroke:black;stroke-width:0.94px;"/>
            </g>
            <g transform="matrix(0.8973,0,0,0.884326,14.0316,0.980236)">
                <circle cx="3.434" cy="5.159" r="2.172" style="stroke:black;stroke-width:0.94px;"/>
            </g>
        </g>
        <g transform="matrix(0.0195312,0,0,0.0221547,34.9714,337.813)">
            <g transform="matrix(1,0,0,1,-143.343,98.6554)">
                <ellipse cx="360.896" cy="293.762" rx="136.961" ry="230.443" style="fill:rgb(235,235,235);stroke:black;stroke-width:58.45px;"/>
            </g>
            <g transform="matrix(1,0,0,1,445.551,98.6554)">
                <ellipse cx="360.896" cy="293.762" rx="136.961" ry="230.443" style="fill:rgb(235,235,235);stroke:black;stroke-width:58.45px;"/>
            </g>
            <g transform="matrix(1,0,0,1,-34.3236,-20.6488)">
                <ellipse cx="546.324" cy="643.509" rx="431.408" ry="296.899" style="fill:rgb(235,235,235);stroke:black;stroke-width:58.45px;"/>
            </g>
            <circle cx="406.664" cy="569.758" r="105.336" style="fill:rgb(235,235,235);stroke:black;stroke-width:58.45px;"/>
            <g transform="matrix(1,0,0,1,210.672,0)">
                <circle cx="406.664" cy="569.758" r="105.336" style="fill:rgb(235,235,235);stroke:black;stroke-width:58.45px;"/>
            </g>
            <g transform="matrix(1,0,0,1,-53.1856,50.0357)">
                <ellipse cx="565.186" cy="671.455" rx="210.672" ry="98.631" style="fill:rgb(235,235,235);stroke:black;stroke-width:58.45px;"/>
            </g>
            <g transform="matrix(51.2,0,0,45.1371,0.670978,88.9676)">
                <path d="M12.057,13.791C12.057,13.668 11.958,13.568 11.835,13.568L8.139,13.568C8.016,13.568 7.916,13.668 7.916,13.791L7.916,14.236C7.916,14.359 8.016,14.458 8.139,14.458L11.835,14.458C11.958,14.458 12.057,14.359 12.057,14.236L12.057,13.791Z"/>
            </g>
        </g>
    </g>
    <g transform="matrix(0.75,0,0,1,-44.1572,137.758)">
        <g transform="matrix(0.7112,0,0,72.8139,48.976,-21717.6)">
            <rect x="13.921" y="296.737" width="168.729" height="3.935" style="fill:rgb(191,191,191);"/>
        </g>
        <g transform="matrix(3.30333,0,0,0.695794,-476.123,112.334)">
            <rect x="161.957" y="57.989" width="36.327" height="2.261"/>
        </g>
        <g transform="matrix(3.30333,0,0,0.695794,-476.123,78.6945)">
            <rect x="161.957" y="57.989" width="36.327" height="2.261"/>
        </g>
        <g transform="matrix(3.30333,0,0,0.695794,-476.123,43.3266)">
            <rect x="161.957" y="57.989" width="36.327" height="2.261"/>
        </g>
        <g transform="matrix(3.30333,0,0,0.695794,-476.123,8.01938)">
            <rect x="161.957" y="57.989" width="36.327" height="2.261"/>
        </g>
        <g transform="matrix(3.30333,0,0,0.695794,-476.123,-25.4274)">
            <rect x="161.957" y="57.989" width="36.327" height="2.261"/>
        </g>
        <g transform="matrix(3.30333,0,0,0.695794,-476.123,-60.2029)">
            <rect x="161.957" y="57.989" width="36.327" height="2.261"/>
        </g>
        <g transform="matrix(3.30333,0,0,0.695794,-476.123,-94.5002)">
            <rect x="161.957" y="57.989" width="36.327" height="2.261"/>
        </g>
        <g transform="matrix(3.30333,0,0,0.695794,-476.123,-130.158)">
            <rect x="161.957" y="57.989" width="36.327" height="2.261"/>
        </g>
        <g transform="matrix(1,0,0,1,11,0)">
            <g id="Bit8-light" serif:id="Bit8#light" transform="matrix(1,0,0,1,30.5298,-182.392)">
                <circle cx="42.167" cy="335.861" r="3.82" style="fill:rgb(191,191,191);"/>
            </g>
            <g id="Bit7-light" serif:id="Bit7#light" transform="matrix(1,0,0,1,30.5298,-216.032)">
                <circle cx="42.167" cy="335.861" r="3.82" style="fill:rgb(191,191,191);"/>
            </g>
            <g id="Bit6-light" serif:id="Bit6#light" transform="matrix(1,0,0,1,30.5298,-251.4)">
                <circle cx="42.167" cy="335.861" r="3.82" style="fill:rgb(191,191,191);"/>
            </g>
            <g id="Bit5-light" serif:id="Bit5#light" transform="matrix(1,0,0,1,30.5298,-286.707)">
                <circle cx="42.167" cy="335.861" r="3.82" style="fill:rgb(191,191,191);"/>
            </g>
            <g id="Bit4-light" serif:id="Bit4#light" transform="matrix(1,0,0,1,30.5298,-320.153)">
                <circle cx="42.167" cy="335.861" r="3.82" style="fill:rgb(191,191,191);"/>
            </g>
            <g id="Bit3-light" serif:id="Bit3#light" transform="matrix(1,0,0,1,30.5298,-354.929)">
                <circle cx="42.167" cy="335.861" r="3.82" style="fill:rgb(191,191,191);"/>
            </g>
            <g id="Bit2-light" serif:id="Bit2#light" transform="matrix(1,0,0,1,30.5298,-389.226)">
                <circle cx="42.167" cy="335.861" r="3.82" style="fill:rgb(191,191,191);"/>
            </g>
            <g id="Bit1-light" serif:id="Bit1#light" transform="matrix(1,0,0,1,30.5298,-424.884)">
                <circle cx="42.167" cy="335.861" r="3.82" style="fill:rgb(191,191,191);"/>
            </g>
        </g>
    </g>
    <g id="BusIn-light" serif:id="BusIn#light" transform="matrix(1,0,0,1,-27.8135,10.8256)">
        <circle cx="42.167" cy="335.861" r="3.82" style="fill:rgb(230,230,230);"/>
    </g>
    <g id="BusOut-light" serif:id="BusOut#light" transform="matrix(1,0,0,1,33.1865,10.8256)">
        <circle cx="42.167" cy="335.861" r="3.82" style="fill:rgb(230,230,230);"/>
    </g>
    <g transform="matrix(1,0,0,1,-29.7155,26.5989)">
        <g transform="matrix(0.237749,0,0,50.0423,62.1533,-14804.5)">
            <rect x="13.921" y="296.737" width="168.729" height="3.935" style="fill:rgb(242,242,242);"/>
        </g>
        <g transform="matrix(1,0,0,1,0.520487,98.7519)">
            <g id="FlipSample-latch" serif:id="FlipSample#latch" transform="matrix(0.174892,0,0,0.175002,61.402,86.7121)">
                <rect x="53.94" y="106.916" width="161.978" height="161.978" style="fill:rgb(242,242,242);"/>
            </g>
            <g id="GateSample-input" serif:id="GateSample#input" transform="matrix(0.174892,0,0,0.175002,61.402,50.9114)">
                <rect x="53.94" y="106.916" width="161.978" height="161.978" style="fill:rgb(217,217,217);"/>
            </g>
            <g transform="matrix(1,0,0,1,87.6198,-82.714)">
                <path d="M-9.859,139.177L-10.879,139.177L-10.879,138.947C-10.879,138.714 -10.934,138.512 -11.044,138.342C-11.154,138.172 -11.339,138.087 -11.599,138.087C-11.739,138.087 -11.853,138.114 -11.939,138.167C-12.026,138.22 -12.096,138.287 -12.149,138.367C-12.203,138.454 -12.239,138.552 -12.259,138.662C-12.279,138.772 -12.289,138.887 -12.289,139.007C-12.289,139.147 -12.284,139.264 -12.274,139.357C-12.264,139.45 -12.239,139.534 -12.199,139.607C-12.159,139.68 -12.101,139.744 -12.024,139.797C-11.948,139.85 -11.843,139.904 -11.709,139.957L-10.929,140.267C-10.703,140.354 -10.519,140.455 -10.379,140.572C-10.239,140.689 -10.129,140.824 -10.049,140.977C-9.976,141.137 -9.926,141.319 -9.899,141.522C-9.873,141.725 -9.859,141.957 -9.859,142.217C-9.859,142.517 -9.889,142.795 -9.949,143.052C-10.009,143.309 -10.106,143.527 -10.239,143.707C-10.379,143.894 -10.563,144.04 -10.789,144.147C-11.016,144.254 -11.293,144.307 -11.619,144.307C-11.866,144.307 -12.096,144.264 -12.309,144.177C-12.523,144.09 -12.706,143.97 -12.859,143.817C-13.013,143.664 -13.134,143.485 -13.224,143.282C-13.314,143.079 -13.359,142.857 -13.359,142.617L-13.359,142.237L-12.339,142.237L-12.339,142.557C-12.339,142.744 -12.284,142.912 -12.174,143.062C-12.064,143.212 -11.879,143.287 -11.619,143.287C-11.446,143.287 -11.311,143.262 -11.214,143.212C-11.118,143.162 -11.043,143.09 -10.989,142.997C-10.936,142.904 -10.904,142.792 -10.894,142.662C-10.884,142.532 -10.879,142.387 -10.879,142.227C-10.879,142.04 -10.886,141.887 -10.899,141.767C-10.913,141.647 -10.939,141.55 -10.979,141.477C-11.026,141.404 -11.088,141.344 -11.164,141.297C-11.241,141.25 -11.343,141.2 -11.469,141.147L-12.199,140.847C-12.639,140.667 -12.934,140.429 -13.084,140.132C-13.234,139.835 -13.309,139.464 -13.309,139.017C-13.309,138.75 -13.273,138.497 -13.199,138.257C-13.126,138.017 -13.016,137.81 -12.869,137.637C-12.729,137.464 -12.551,137.325 -12.334,137.222C-12.118,137.119 -11.859,137.067 -11.559,137.067C-11.306,137.067 -11.074,137.114 -10.864,137.207C-10.654,137.3 -10.473,137.424 -10.319,137.577C-10.013,137.897 -9.859,138.264 -9.859,138.677L-9.859,139.177Z" style="fill-rule:nonzero;"/>
                <path d="M-7.229,144.247L-7.229,143.727L-7.249,143.727C-7.383,143.914 -7.518,144.057 -7.654,144.157C-7.791,144.257 -7.983,144.307 -8.229,144.307C-8.349,144.307 -8.471,144.289 -8.594,144.252C-8.718,144.215 -8.836,144.147 -8.949,144.047C-9.063,143.954 -9.154,143.819 -9.224,143.642C-9.294,143.465 -9.329,143.237 -9.329,142.957C-9.329,142.67 -9.306,142.419 -9.259,142.202C-9.213,141.985 -9.126,141.804 -8.999,141.657C-8.879,141.517 -8.716,141.412 -8.509,141.342C-8.303,141.272 -8.039,141.237 -7.719,141.237L-7.609,141.237C-7.569,141.237 -7.533,141.24 -7.499,141.247C-7.466,141.254 -7.426,141.257 -7.379,141.257C-7.333,141.257 -7.283,141.26 -7.229,141.267L-7.229,140.737C-7.229,140.564 -7.266,140.42 -7.339,140.307C-7.413,140.194 -7.546,140.137 -7.739,140.137C-7.873,140.137 -7.994,140.18 -8.104,140.267C-8.214,140.354 -8.286,140.48 -8.319,140.647L-9.309,140.647C-9.283,140.194 -9.129,139.827 -8.849,139.547C-8.716,139.414 -8.556,139.309 -8.369,139.232C-8.183,139.155 -7.973,139.117 -7.739,139.117C-7.526,139.117 -7.326,139.15 -7.139,139.217C-6.953,139.284 -6.789,139.384 -6.649,139.517C-6.516,139.65 -6.409,139.817 -6.329,140.017C-6.249,140.217 -6.209,140.45 -6.209,140.717L-6.209,144.247L-7.229,144.247ZM-7.229,142.067C-7.343,142.047 -7.436,142.037 -7.509,142.037C-7.729,142.037 -7.918,142.089 -8.074,142.192C-8.231,142.295 -8.309,142.484 -8.309,142.757C-8.309,142.95 -8.263,143.107 -8.169,143.227C-8.076,143.347 -7.946,143.407 -7.779,143.407C-7.606,143.407 -7.471,143.35 -7.374,143.237C-7.278,143.124 -7.229,142.964 -7.229,142.757L-7.229,142.067Z" style="fill-rule:nonzero;"/>
                <path d="M-5.459,144.247L-5.459,139.177L-4.439,139.177L-4.439,139.667L-4.419,139.667C-4.313,139.507 -4.184,139.375 -4.034,139.272C-3.884,139.169 -3.693,139.117 -3.459,139.117C-3.239,139.117 -3.056,139.17 -2.909,139.277C-2.763,139.384 -2.643,139.5 -2.549,139.627C-2.423,139.487 -2.283,139.367 -2.129,139.267C-1.976,139.167 -1.763,139.117 -1.489,139.117C-1.363,139.117 -1.233,139.139 -1.099,139.182C-0.966,139.225 -0.846,139.297 -0.739,139.397C-0.633,139.497 -0.546,139.625 -0.479,139.782C-0.413,139.939 -0.379,140.13 -0.379,140.357L-0.379,144.247L-1.399,144.247L-1.399,140.737C-1.399,140.55 -1.443,140.404 -1.529,140.297C-1.616,140.19 -1.739,140.137 -1.899,140.137C-2.093,140.137 -2.226,140.197 -2.299,140.317C-2.373,140.437 -2.409,140.61 -2.409,140.837L-2.409,144.247L-3.429,144.247L-3.429,140.737C-3.429,140.55 -3.473,140.404 -3.559,140.297C-3.646,140.19 -3.769,140.137 -3.929,140.137C-4.123,140.137 -4.256,140.197 -4.329,140.317C-4.403,140.437 -4.439,140.61 -4.439,140.837L-4.439,144.247L-5.459,144.247Z" style="fill-rule:nonzero;"/>
                <path d="M0.461,146.297L0.461,139.177L1.481,139.177L1.481,139.637C1.607,139.49 1.737,139.367 1.871,139.267C2.004,139.167 2.197,139.117 2.451,139.117C2.871,139.117 3.167,139.277 3.341,139.597C3.401,139.71 3.444,139.85 3.471,140.017C3.497,140.184 3.511,140.407 3.511,140.687L3.511,142.617C3.511,142.99 3.501,143.26 3.481,143.427C3.441,143.76 3.287,144.01 3.021,144.177C2.887,144.264 2.694,144.307 2.441,144.307C2.241,144.307 2.062,144.262 1.906,144.172C1.749,144.082 1.614,143.954 1.501,143.787L1.481,143.787L1.481,146.297L0.461,146.297ZM2.491,140.827C2.491,140.62 2.451,140.454 2.371,140.327C2.291,140.2 2.164,140.137 1.991,140.137C1.837,140.137 1.714,140.195 1.621,140.312C1.527,140.429 1.481,140.58 1.481,140.767L1.481,142.737C1.481,142.897 1.529,143.029 1.626,143.132C1.722,143.235 1.844,143.287 1.991,143.287C2.184,143.287 2.316,143.227 2.386,143.107C2.456,142.987 2.491,142.847 2.491,142.687L2.491,140.827Z" style="fill-rule:nonzero;"/>
                <path d="M4.291,137.127L5.311,137.127L5.311,142.817C5.311,143.01 5.346,143.142 5.416,143.212C5.486,143.282 5.617,143.327 5.811,143.347L5.811,144.307C5.577,144.307 5.367,144.289 5.181,144.252C4.994,144.215 4.834,144.144 4.701,144.037C4.567,143.937 4.466,143.795 4.396,143.612C4.326,143.429 4.291,143.187 4.291,142.887L4.291,137.127Z" style="fill-rule:nonzero;"/>
                <path d="M9.161,142.097L7.141,142.097L7.141,142.787C7.141,142.947 7.186,143.07 7.276,143.157C7.366,143.244 7.487,143.287 7.641,143.287C7.834,143.287 7.962,143.23 8.026,143.117C8.089,143.004 8.127,142.89 8.141,142.777L9.161,142.777C9.161,143.224 9.024,143.584 8.751,143.857C8.617,143.997 8.457,144.107 8.271,144.187C8.084,144.267 7.874,144.307 7.641,144.307C7.321,144.307 7.049,144.24 6.826,144.107C6.602,143.974 6.431,143.797 6.311,143.577C6.237,143.444 6.187,143.29 6.161,143.117C6.134,142.944 6.121,142.754 6.121,142.547L6.121,140.877C6.121,140.67 6.134,140.48 6.161,140.307C6.187,140.134 6.237,139.98 6.311,139.847C6.431,139.627 6.602,139.45 6.826,139.317C7.049,139.184 7.321,139.117 7.641,139.117C7.874,139.117 8.086,139.157 8.276,139.237C8.466,139.317 8.627,139.427 8.761,139.567C9.027,139.867 9.161,140.244 9.161,140.697L9.161,142.097ZM7.141,141.297L8.141,141.297L8.141,140.717C8.141,140.524 8.096,140.379 8.006,140.282C7.916,140.185 7.794,140.137 7.641,140.137C7.487,140.137 7.366,140.185 7.276,140.282C7.186,140.379 7.141,140.524 7.141,140.717L7.141,141.297Z" style="fill-rule:nonzero;"/>
            </g>
            <g transform="matrix(1,0,0,1,87.6198,-82.714)">
                <text x="-13.639px" y="144.247px" style="font-family:'DINCondensed-Bold', 'DIN Condensed';font-weight:700;font-stretch:condensed;font-size:10px;">Sample</text>
            </g>
        </g>
        <g transform="matrix(1,0,0,1,0.520487,0)">
            <g id="FlipFreeze-latch" serif:id="FlipFreeze#latch" transform="matrix(0.174892,0,0,0.175002,61.402,86.4739)">
                <rect x="53.94" y="106.916" width="161.978" height="161.978" style="fill:white;"/>
            </g>
            <g id="GateFreeze-input" serif:id="GateFreeze#input" transform="matrix(0.174892,0,0,0.175002,61.402,50.9114)">
                <rect x="53.94" y="106.916" width="161.978" height="161.978" style="fill:rgb(217,217,217);"/>
            </g>
            <g transform="matrix(1,0,0,1,88.3194,-82.7856)">
                <path d="M-13.159,144.247L-13.159,137.127L-10.119,137.127L-10.119,138.087L-12.139,138.087L-12.139,140.247L-10.379,140.247L-10.379,141.207L-12.139,141.207L-12.139,144.247L-13.159,144.247Z" style="fill-rule:nonzero;"/>
                <path d="M-9.699,144.247L-9.699,139.177L-8.679,139.177L-8.679,139.717C-8.473,139.53 -8.269,139.384 -8.069,139.277C-7.869,139.17 -7.623,139.117 -7.329,139.117L-7.329,140.197C-7.429,140.157 -7.533,140.137 -7.639,140.137C-7.746,140.137 -7.861,140.155 -7.984,140.192C-8.108,140.229 -8.219,140.29 -8.319,140.377C-8.426,140.464 -8.513,140.577 -8.579,140.717C-8.646,140.857 -8.679,141.03 -8.679,141.237L-8.679,144.247L-9.699,144.247Z" style="fill-rule:nonzero;"/>
                <path d="M-3.969,142.097L-5.989,142.097L-5.989,142.787C-5.989,142.947 -5.944,143.07 -5.854,143.157C-5.764,143.244 -5.643,143.287 -5.489,143.287C-5.296,143.287 -5.168,143.23 -5.104,143.117C-5.041,143.004 -5.003,142.89 -4.989,142.777L-3.969,142.777C-3.969,143.224 -4.106,143.584 -4.379,143.857C-4.513,143.997 -4.673,144.107 -4.859,144.187C-5.046,144.267 -5.256,144.307 -5.489,144.307C-5.809,144.307 -6.081,144.24 -6.304,144.107C-6.528,143.974 -6.699,143.797 -6.819,143.577C-6.893,143.444 -6.943,143.29 -6.969,143.117C-6.996,142.944 -7.009,142.754 -7.009,142.547L-7.009,140.877C-7.009,140.67 -6.996,140.48 -6.969,140.307C-6.943,140.134 -6.893,139.98 -6.819,139.847C-6.699,139.627 -6.528,139.45 -6.304,139.317C-6.081,139.184 -5.809,139.117 -5.489,139.117C-5.256,139.117 -5.044,139.157 -4.854,139.237C-4.664,139.317 -4.503,139.427 -4.369,139.567C-4.103,139.867 -3.969,140.244 -3.969,140.697L-3.969,142.097ZM-5.989,141.297L-4.989,141.297L-4.989,140.717C-4.989,140.524 -5.034,140.379 -5.124,140.282C-5.214,140.185 -5.336,140.137 -5.489,140.137C-5.643,140.137 -5.764,140.185 -5.854,140.282C-5.944,140.379 -5.989,140.524 -5.989,140.717L-5.989,141.297Z" style="fill-rule:nonzero;"/>
                <path d="M-0.269,142.097L-2.289,142.097L-2.289,142.787C-2.289,142.947 -2.244,143.07 -2.154,143.157C-2.064,143.244 -1.943,143.287 -1.789,143.287C-1.596,143.287 -1.468,143.23 -1.404,143.117C-1.341,143.004 -1.303,142.89 -1.289,142.777L-0.269,142.777C-0.269,143.224 -0.406,143.584 -0.679,143.857C-0.813,143.997 -0.973,144.107 -1.159,144.187C-1.346,144.267 -1.556,144.307 -1.789,144.307C-2.109,144.307 -2.381,144.24 -2.604,144.107C-2.828,143.974 -2.999,143.797 -3.119,143.577C-3.193,143.444 -3.243,143.29 -3.269,143.117C-3.296,142.944 -3.309,142.754 -3.309,142.547L-3.309,140.877C-3.309,140.67 -3.296,140.48 -3.269,140.307C-3.243,140.134 -3.193,139.98 -3.119,139.847C-2.999,139.627 -2.828,139.45 -2.604,139.317C-2.381,139.184 -2.109,139.117 -1.789,139.117C-1.556,139.117 -1.344,139.157 -1.154,139.237C-0.964,139.317 -0.803,139.427 -0.669,139.567C-0.403,139.867 -0.269,140.244 -0.269,140.697L-0.269,142.097ZM-2.289,141.297L-1.289,141.297L-1.289,140.717C-1.289,140.524 -1.334,140.379 -1.424,140.282C-1.514,140.185 -1.636,140.137 -1.789,140.137C-1.943,140.137 -2.064,140.185 -2.154,140.282C-2.244,140.379 -2.289,140.524 -2.289,140.717L-2.289,141.297Z" style="fill-rule:nonzero;"/>
                <path d="M0.231,144.247L0.231,143.437L1.881,140.077L0.361,140.077L0.361,139.177L3.041,139.177L3.041,139.987L1.391,143.287L3.041,143.287L3.041,144.247L0.231,144.247Z" style="fill-rule:nonzero;"/>
                <path d="M6.521,142.097L4.501,142.097L4.501,142.787C4.501,142.947 4.546,143.07 4.636,143.157C4.726,143.244 4.847,143.287 5.001,143.287C5.194,143.287 5.322,143.23 5.386,143.117C5.449,143.004 5.487,142.89 5.501,142.777L6.521,142.777C6.521,143.224 6.384,143.584 6.111,143.857C5.977,143.997 5.817,144.107 5.631,144.187C5.444,144.267 5.234,144.307 5.001,144.307C4.681,144.307 4.409,144.24 4.186,144.107C3.962,143.974 3.791,143.797 3.671,143.577C3.597,143.444 3.547,143.29 3.521,143.117C3.494,142.944 3.481,142.754 3.481,142.547L3.481,140.877C3.481,140.67 3.494,140.48 3.521,140.307C3.547,140.134 3.597,139.98 3.671,139.847C3.791,139.627 3.962,139.45 4.186,139.317C4.409,139.184 4.681,139.117 5.001,139.117C5.234,139.117 5.446,139.157 5.636,139.237C5.826,139.317 5.987,139.427 6.121,139.567C6.387,139.867 6.521,140.244 6.521,140.697L6.521,142.097ZM4.501,141.297L5.501,141.297L5.501,140.717C5.501,140.524 5.456,140.379 5.366,140.282C5.276,140.185 5.154,140.137 5.001,140.137C4.847,140.137 4.726,140.185 4.636,140.282C4.546,140.379 4.501,140.524 4.501,140.717L4.501,141.297Z" style="fill-rule:nonzero;"/>
            </g>
            <g transform="matrix(1,0,0,1,88.3194,-82.7856)">
                <text x="-13.639px" y="144.247px" style="font-family:'DINCondensed-Bold', 'DIN Condensed';font-weight:700;font-stretch:condensed;font-size:10px;">F<tspan x="-10.119px -7.339px " y="144.247px 144.247px ">re</tspan>eze</text>
            </g>
        </g>
    </g>
    <g transform="matrix(1,0,0,1,15,0)">
        <g transform="matrix(1,0,0,1,32.6875,-4.53575)">
            <path d="M-31.704,23.008C-31.656,23.2 -31.488,23.32 -31.2,23.368C-31.128,23.376 -31.092,23.416 -31.092,23.488C-31.092,23.528 -31.112,23.564 -31.152,23.596C-31.192,23.628 -31.244,23.644 -31.308,23.644C-31.428,23.644 -31.588,23.636 -31.788,23.62C-31.988,23.604 -32.272,23.596 -32.64,23.596C-32.936,23.596 -33.196,23.606 -33.42,23.626C-33.644,23.646 -33.78,23.66 -33.828,23.668C-33.868,23.668 -33.896,23.656 -33.912,23.632C-33.928,23.608 -33.936,23.58 -33.936,23.548C-33.936,23.516 -33.93,23.484 -33.918,23.452C-33.906,23.42 -33.888,23.404 -33.864,23.404C-33.808,23.396 -33.752,23.38 -33.696,23.356C-33.64,23.332 -33.588,23.3 -33.54,23.26C-33.516,23.236 -33.486,23.108 -33.45,22.876C-33.414,22.644 -33.382,22.338 -33.354,21.958C-33.326,21.578 -33.302,21.14 -33.282,20.644C-33.262,20.148 -33.252,19.624 -33.252,19.072L-33.252,17.776C-33.252,17.376 -33.272,17.052 -33.312,16.804C-33.384,16.276 -33.552,15.87 -33.816,15.586C-34.08,15.302 -34.388,15.16 -34.74,15.16C-35.052,15.16 -35.36,15.246 -35.664,15.418C-35.968,15.59 -36.24,15.842 -36.48,16.174C-36.72,16.506 -36.914,16.918 -37.062,17.41C-37.21,17.902 -37.284,18.464 -37.284,19.096C-37.284,19.792 -37.206,20.398 -37.05,20.914C-36.894,21.43 -36.688,21.862 -36.432,22.21C-36.176,22.558 -35.882,22.818 -35.55,22.99C-35.218,23.162 -34.872,23.248 -34.512,23.248L-34.446,23.248C-34.418,23.248 -34.396,23.244 -34.38,23.236C-34.348,23.22 -34.328,23.22 -34.32,23.236C-34.312,23.252 -34.312,23.274 -34.32,23.302C-34.328,23.33 -34.338,23.358 -34.35,23.386C-34.362,23.414 -34.376,23.432 -34.392,23.44C-34.472,23.496 -34.584,23.546 -34.728,23.59C-34.872,23.634 -35.072,23.656 -35.328,23.656C-35.752,23.656 -36.174,23.558 -36.594,23.362C-37.014,23.166 -37.39,22.892 -37.722,22.54C-38.054,22.188 -38.322,21.762 -38.526,21.262C-38.73,20.762 -38.832,20.212 -38.832,19.612C-38.832,18.756 -38.708,18.024 -38.46,17.416C-38.212,16.808 -37.874,16.312 -37.446,15.928C-37.018,15.544 -36.522,15.262 -35.958,15.082C-35.394,14.902 -34.792,14.812 -34.152,14.812C-33.92,14.812 -33.708,14.836 -33.516,14.884C-33.324,14.932 -33.156,14.99 -33.012,15.058C-32.868,15.126 -32.75,15.192 -32.658,15.256C-32.566,15.32 -32.504,15.368 -32.472,15.4C-32.408,15.352 -32.278,15.294 -32.082,15.226C-31.886,15.158 -31.662,15.094 -31.41,15.034C-31.158,14.974 -30.896,14.922 -30.624,14.878C-30.352,14.834 -30.104,14.812 -29.88,14.812C-29.272,14.828 -28.738,14.928 -28.278,15.112C-27.818,15.296 -27.434,15.542 -27.126,15.85C-26.818,16.158 -26.586,16.514 -26.43,16.918C-26.274,17.322 -26.196,17.752 -26.196,18.208C-26.196,19.064 -26.31,19.826 -26.538,20.494C-26.766,21.162 -27.072,21.728 -27.456,22.192C-27.84,22.656 -28.284,23.01 -28.788,23.254C-29.292,23.498 -29.82,23.62 -30.372,23.62C-30.42,23.62 -30.452,23.602 -30.468,23.566C-30.484,23.53 -30.49,23.492 -30.486,23.452C-30.482,23.412 -30.468,23.378 -30.444,23.35C-30.42,23.322 -30.396,23.312 -30.372,23.32C-30.332,23.336 -30.3,23.344 -30.276,23.344L-30.18,23.344C-29.852,23.344 -29.544,23.232 -29.256,23.008C-28.968,22.784 -28.716,22.474 -28.5,22.078C-28.284,21.682 -28.114,21.214 -27.99,20.674C-27.866,20.134 -27.804,19.544 -27.804,18.904C-27.804,17.712 -27.986,16.784 -28.35,16.12C-28.714,15.456 -29.276,15.124 -30.036,15.124C-30.268,15.124 -30.484,15.172 -30.684,15.268C-30.884,15.364 -31.058,15.49 -31.206,15.646C-31.354,15.802 -31.474,15.98 -31.566,16.18C-31.658,16.38 -31.716,16.584 -31.74,16.792C-31.78,17.072 -31.804,17.52 -31.812,18.136C-31.82,18.752 -31.828,19.496 -31.836,20.368C-31.844,21.008 -31.838,21.566 -31.818,22.042C-31.798,22.518 -31.76,22.84 -31.704,23.008Z" style="fill-rule:nonzero;"/>
            <path d="M-20.004,22.192C-20.092,22.288 -20.228,22.42 -20.412,22.588C-20.596,22.756 -20.818,22.924 -21.078,23.092C-21.338,23.26 -21.628,23.404 -21.948,23.524C-22.268,23.644 -22.608,23.704 -22.968,23.704C-23.296,23.704 -23.616,23.654 -23.928,23.554C-24.24,23.454 -24.52,23.302 -24.768,23.098C-25.016,22.894 -25.214,22.634 -25.362,22.318C-25.51,22.002 -25.584,21.624 -25.584,21.184C-25.584,20.824 -25.56,20.514 -25.512,20.254C-25.464,19.994 -25.4,19.766 -25.32,19.57C-25.24,19.374 -25.15,19.206 -25.05,19.066C-24.95,18.926 -24.848,18.8 -24.744,18.688C-24.616,18.544 -24.46,18.408 -24.276,18.28C-24.092,18.152 -23.894,18.036 -23.682,17.932C-23.47,17.828 -23.246,17.746 -23.01,17.686C-22.774,17.626 -22.536,17.596 -22.296,17.596C-21.864,17.596 -21.526,17.668 -21.282,17.812C-21.038,17.956 -20.916,18.156 -20.916,18.412C-20.916,18.572 -20.964,18.72 -21.06,18.856C-20.98,18.832 -20.878,18.792 -20.754,18.736C-20.63,18.68 -20.504,18.622 -20.376,18.562C-20.248,18.502 -20.134,18.448 -20.034,18.4C-19.934,18.352 -19.868,18.316 -19.836,18.292C-19.82,18.276 -19.802,18.27 -19.782,18.274C-19.762,18.278 -19.752,18.292 -19.752,18.316C-19.752,18.42 -19.772,18.506 -19.812,18.574C-19.852,18.642 -19.9,18.696 -19.956,18.736C-20.084,18.816 -20.268,18.916 -20.508,19.036C-20.748,19.156 -21.014,19.282 -21.306,19.414C-21.598,19.546 -21.9,19.678 -22.212,19.81C-22.524,19.942 -22.818,20.068 -23.094,20.188C-23.37,20.308 -23.61,20.414 -23.814,20.506C-24.018,20.598 -24.156,20.664 -24.228,20.704C-24.228,20.976 -24.174,21.23 -24.066,21.466C-23.958,21.702 -23.808,21.908 -23.616,22.084C-23.424,22.26 -23.194,22.398 -22.926,22.498C-22.658,22.598 -22.364,22.648 -22.044,22.648C-21.756,22.648 -21.496,22.618 -21.264,22.558C-21.032,22.498 -20.836,22.43 -20.676,22.354C-20.516,22.278 -20.39,22.21 -20.298,22.15C-20.206,22.09 -20.156,22.06 -20.148,22.06C-20.116,22.06 -20.084,22.074 -20.052,22.102C-20.02,22.13 -20.004,22.16 -20.004,22.192ZM-24.228,20.356C-24.092,20.308 -23.938,20.25 -23.766,20.182C-23.594,20.114 -23.426,20.04 -23.262,19.96C-23.098,19.88 -22.948,19.804 -22.812,19.732C-22.676,19.66 -22.572,19.596 -22.5,19.54C-22.356,19.436 -22.284,19.26 -22.284,19.012C-22.284,18.916 -22.302,18.816 -22.338,18.712C-22.374,18.608 -22.428,18.514 -22.5,18.43C-22.572,18.346 -22.66,18.278 -22.764,18.226C-22.868,18.174 -22.984,18.148 -23.112,18.148C-23.224,18.148 -23.344,18.186 -23.472,18.262C-23.6,18.338 -23.72,18.462 -23.832,18.634C-23.944,18.806 -24.038,19.034 -24.114,19.318C-24.19,19.602 -24.228,19.948 -24.228,20.356Z" style="fill-rule:nonzero;"/>
            <path d="M-14.34,21.928C-14.324,21.912 -14.31,21.914 -14.298,21.934C-14.286,21.954 -14.278,21.982 -14.274,22.018C-14.27,22.054 -14.272,22.092 -14.28,22.132C-14.288,22.172 -14.304,22.204 -14.328,22.228C-14.488,22.38 -14.688,22.54 -14.928,22.708C-15.168,22.876 -15.416,23.032 -15.672,23.176C-15.744,23.216 -15.844,23.268 -15.972,23.332C-16.1,23.396 -16.242,23.458 -16.398,23.518C-16.554,23.578 -16.714,23.63 -16.878,23.674C-17.042,23.718 -17.196,23.74 -17.34,23.74C-17.628,23.74 -17.9,23.684 -18.156,23.572C-18.412,23.46 -18.636,23.306 -18.828,23.11C-19.02,22.914 -19.17,22.68 -19.278,22.408C-19.386,22.136 -19.44,21.84 -19.44,21.52C-19.44,21.176 -19.392,20.852 -19.296,20.548C-19.2,20.244 -19.09,19.972 -18.966,19.732C-18.842,19.492 -18.724,19.29 -18.612,19.126C-18.5,18.962 -18.424,18.84 -18.384,18.76C-18.536,18.752 -18.674,18.746 -18.798,18.742C-18.922,18.738 -19.04,18.736 -19.152,18.736C-19.408,18.736 -19.624,18.738 -19.8,18.742C-19.976,18.746 -20.132,18.764 -20.268,18.796C-20.332,18.812 -20.392,18.844 -20.448,18.892C-20.504,18.94 -20.552,18.976 -20.592,19C-20.608,18.984 -20.63,18.962 -20.658,18.934C-20.686,18.906 -20.7,18.876 -20.7,18.844C-20.7,18.828 -20.696,18.816 -20.688,18.808C-20.688,18.8 -20.636,18.754 -20.532,18.67C-20.428,18.586 -20.298,18.486 -20.142,18.37C-19.986,18.254 -19.814,18.126 -19.626,17.986C-19.438,17.846 -19.258,17.716 -19.086,17.596C-18.914,17.476 -18.766,17.374 -18.642,17.29C-18.518,17.206 -18.436,17.156 -18.396,17.14C-18.348,17.124 -18.3,17.132 -18.252,17.164C-18.204,17.196 -18.188,17.22 -18.204,17.236C-18.228,17.252 -18.264,17.282 -18.312,17.326C-18.36,17.37 -18.376,17.408 -18.36,17.44C-18.272,17.512 -18.12,17.576 -17.904,17.632C-17.688,17.688 -17.444,17.734 -17.172,17.77C-16.9,17.806 -16.62,17.834 -16.332,17.854C-16.044,17.874 -15.784,17.884 -15.552,17.884C-15.208,17.884 -14.932,17.874 -14.724,17.854C-14.516,17.834 -14.344,17.808 -14.208,17.776C-14.08,17.744 -13.996,17.72 -13.956,17.704C-13.948,17.704 -13.932,17.716 -13.908,17.74C-13.884,17.764 -13.872,17.792 -13.872,17.824C-13.872,17.84 -13.93,17.88 -14.046,17.944C-14.162,18.008 -14.28,18.076 -14.4,18.148C-14.472,18.188 -14.558,18.24 -14.658,18.304C-14.758,18.368 -14.866,18.43 -14.982,18.49C-15.098,18.55 -15.22,18.604 -15.348,18.652C-15.476,18.7 -15.6,18.728 -15.72,18.736C-15.84,18.752 -15.98,18.764 -16.14,18.772C-16.3,18.78 -16.468,18.786 -16.644,18.79C-16.82,18.794 -16.998,18.798 -17.178,18.802C-17.358,18.806 -17.524,18.808 -17.676,18.808C-17.7,18.848 -17.738,18.914 -17.79,19.006C-17.842,19.098 -17.892,19.216 -17.94,19.36C-17.988,19.504 -18.032,19.668 -18.072,19.852C-18.112,20.036 -18.132,20.236 -18.132,20.452C-18.132,20.78 -18.082,21.082 -17.982,21.358C-17.882,21.634 -17.742,21.872 -17.562,22.072C-17.382,22.272 -17.168,22.428 -16.92,22.54C-16.672,22.652 -16.404,22.708 -16.116,22.708C-15.948,22.708 -15.786,22.688 -15.63,22.648C-15.474,22.608 -15.326,22.556 -15.186,22.492C-15.046,22.428 -14.916,22.358 -14.796,22.282C-14.676,22.206 -14.572,22.132 -14.484,22.06L-14.34,21.928Z" style="fill-rule:nonzero;"/>
            <path d="M-8.808,22.192C-8.896,22.288 -9.032,22.42 -9.216,22.588C-9.4,22.756 -9.622,22.924 -9.882,23.092C-10.142,23.26 -10.432,23.404 -10.752,23.524C-11.072,23.644 -11.412,23.704 -11.772,23.704C-12.1,23.704 -12.42,23.654 -12.732,23.554C-13.044,23.454 -13.324,23.302 -13.572,23.098C-13.82,22.894 -14.018,22.634 -14.166,22.318C-14.314,22.002 -14.388,21.624 -14.388,21.184C-14.388,20.824 -14.364,20.514 -14.316,20.254C-14.268,19.994 -14.204,19.766 -14.124,19.57C-14.044,19.374 -13.954,19.206 -13.854,19.066C-13.754,18.926 -13.652,18.8 -13.548,18.688C-13.42,18.544 -13.264,18.408 -13.08,18.28C-12.896,18.152 -12.698,18.036 -12.486,17.932C-12.274,17.828 -12.05,17.746 -11.814,17.686C-11.578,17.626 -11.34,17.596 -11.1,17.596C-10.668,17.596 -10.33,17.668 -10.086,17.812C-9.842,17.956 -9.72,18.156 -9.72,18.412C-9.72,18.572 -9.768,18.72 -9.864,18.856C-9.784,18.832 -9.682,18.792 -9.558,18.736C-9.434,18.68 -9.308,18.622 -9.18,18.562C-9.052,18.502 -8.938,18.448 -8.838,18.4C-8.738,18.352 -8.672,18.316 -8.64,18.292C-8.624,18.276 -8.606,18.27 -8.586,18.274C-8.566,18.278 -8.556,18.292 -8.556,18.316C-8.556,18.42 -8.576,18.506 -8.616,18.574C-8.656,18.642 -8.704,18.696 -8.76,18.736C-8.888,18.816 -9.072,18.916 -9.312,19.036C-9.552,19.156 -9.818,19.282 -10.11,19.414C-10.402,19.546 -10.704,19.678 -11.016,19.81C-11.328,19.942 -11.622,20.068 -11.898,20.188C-12.174,20.308 -12.414,20.414 -12.618,20.506C-12.822,20.598 -12.96,20.664 -13.032,20.704C-13.032,20.976 -12.978,21.23 -12.87,21.466C-12.762,21.702 -12.612,21.908 -12.42,22.084C-12.228,22.26 -11.998,22.398 -11.73,22.498C-11.462,22.598 -11.168,22.648 -10.848,22.648C-10.56,22.648 -10.3,22.618 -10.068,22.558C-9.836,22.498 -9.64,22.43 -9.48,22.354C-9.32,22.278 -9.194,22.21 -9.102,22.15C-9.01,22.09 -8.96,22.06 -8.952,22.06C-8.92,22.06 -8.888,22.074 -8.856,22.102C-8.824,22.13 -8.808,22.16 -8.808,22.192ZM-13.032,20.356C-12.896,20.308 -12.742,20.25 -12.57,20.182C-12.398,20.114 -12.23,20.04 -12.066,19.96C-11.902,19.88 -11.752,19.804 -11.616,19.732C-11.48,19.66 -11.376,19.596 -11.304,19.54C-11.16,19.436 -11.088,19.26 -11.088,19.012C-11.088,18.916 -11.106,18.816 -11.142,18.712C-11.178,18.608 -11.232,18.514 -11.304,18.43C-11.376,18.346 -11.464,18.278 -11.568,18.226C-11.672,18.174 -11.788,18.148 -11.916,18.148C-12.028,18.148 -12.148,18.186 -12.276,18.262C-12.404,18.338 -12.524,18.462 -12.636,18.634C-12.748,18.806 -12.842,19.034 -12.918,19.318C-12.994,19.602 -13.032,19.948 -13.032,20.356Z" style="fill-rule:nonzero;"/>
            <path d="M-3.24,18.496C-3.328,18.568 -3.432,18.658 -3.552,18.766C-3.672,18.874 -3.798,18.978 -3.93,19.078C-4.062,19.178 -4.196,19.264 -4.332,19.336C-4.468,19.408 -4.6,19.444 -4.728,19.444C-4.84,19.444 -4.94,19.418 -5.028,19.366C-5.116,19.314 -5.198,19.258 -5.274,19.198C-5.35,19.138 -5.424,19.082 -5.496,19.03C-5.568,18.978 -5.644,18.952 -5.724,18.952C-5.94,18.952 -6.122,19.04 -6.27,19.216C-6.418,19.392 -6.538,19.616 -6.63,19.888C-6.722,20.16 -6.79,20.456 -6.834,20.776C-6.878,21.096 -6.9,21.404 -6.9,21.7C-6.9,21.948 -6.89,22.15 -6.87,22.306C-6.85,22.462 -6.82,22.586 -6.78,22.678C-6.74,22.77 -6.686,22.832 -6.618,22.864C-6.55,22.896 -6.468,22.912 -6.372,22.912C-6.268,22.912 -6.156,22.896 -6.036,22.864C-6.012,22.856 -5.994,22.872 -5.982,22.912C-5.97,22.952 -5.964,22.984 -5.964,23.008C-5.964,23.024 -5.976,23.042 -6,23.062C-6.024,23.082 -6.04,23.092 -6.048,23.092C-6.224,23.164 -6.404,23.242 -6.588,23.326C-6.772,23.41 -6.924,23.48 -7.044,23.536C-7.156,23.584 -7.29,23.636 -7.446,23.692C-7.602,23.748 -7.736,23.776 -7.848,23.776C-7.976,23.776 -8.082,23.756 -8.166,23.716C-8.25,23.676 -8.292,23.636 -8.292,23.596C-8.292,23.556 -8.282,23.52 -8.262,23.488C-8.242,23.456 -8.224,23.396 -8.208,23.308C-8.192,23.188 -8.174,23.046 -8.154,22.882C-8.134,22.718 -8.114,22.54 -8.094,22.348C-8.074,22.156 -8.058,21.958 -8.046,21.754C-8.034,21.55 -8.028,21.348 -8.028,21.148C-8.028,20.7 -8.042,20.32 -8.07,20.008C-8.098,19.696 -8.148,19.444 -8.22,19.252C-8.292,19.06 -8.39,18.922 -8.514,18.838C-8.638,18.754 -8.796,18.712 -8.988,18.712L-9.096,18.712C-9.128,18.712 -9.16,18.716 -9.192,18.724C-9.24,18.724 -9.264,18.7 -9.264,18.652C-9.264,18.604 -9.24,18.568 -9.192,18.544C-9.104,18.488 -8.968,18.406 -8.784,18.298C-8.6,18.19 -8.41,18.086 -8.214,17.986C-8.018,17.886 -7.828,17.796 -7.644,17.716C-7.46,17.636 -7.324,17.596 -7.236,17.596C-7.132,17.596 -7.044,17.63 -6.972,17.698C-6.9,17.766 -6.846,17.852 -6.81,17.956C-6.774,18.06 -6.748,18.178 -6.732,18.31C-6.716,18.442 -6.708,18.572 -6.708,18.7C-6.708,18.796 -6.71,18.896 -6.714,19C-6.718,19.104 -6.72,19.216 -6.72,19.336C-6.36,18.808 -6.036,18.398 -5.748,18.106C-5.46,17.814 -5.188,17.668 -4.932,17.668C-4.836,17.668 -4.742,17.708 -4.65,17.788C-4.558,17.868 -4.46,17.958 -4.356,18.058C-4.252,18.158 -4.144,18.248 -4.032,18.328C-3.92,18.408 -3.804,18.448 -3.684,18.448C-3.58,18.448 -3.504,18.436 -3.456,18.412C-3.408,18.388 -3.368,18.368 -3.336,18.352C-3.272,18.352 -3.24,18.396 -3.24,18.484L-3.24,18.496Z" style="fill-rule:nonzero;"/>
            <path d="M4.392,21.196C4.28,21.172 4.156,21.152 4.02,21.136C3.884,21.12 3.74,21.108 3.588,21.1C3.436,21.092 3.286,21.086 3.138,21.082C2.99,21.078 2.852,21.076 2.724,21.076L2.352,21.076C2.296,21.076 2.248,21.08 2.208,21.088C2.168,21.096 2.148,21.108 2.148,21.124C2.148,21.332 2.15,21.574 2.154,21.85C2.158,22.126 2.166,22.402 2.178,22.678C2.19,22.954 2.204,23.208 2.22,23.44C2.236,23.672 2.26,23.84 2.292,23.944C2.308,24.008 2.376,24.054 2.496,24.082C2.616,24.11 2.752,24.124 2.904,24.124C2.968,24.124 3.034,24.122 3.102,24.118C3.17,24.114 3.248,24.112 3.336,24.112C3.424,24.112 3.492,24.132 3.54,24.172C3.588,24.212 3.612,24.26 3.612,24.316C3.612,24.38 3.606,24.436 3.594,24.484C3.582,24.532 3.496,24.556 3.336,24.556C3.272,24.556 3.17,24.552 3.03,24.544C2.89,24.536 2.738,24.528 2.574,24.52C2.41,24.512 2.24,24.512 2.064,24.52C1.888,24.528 1.732,24.544 1.596,24.568C1.276,24.632 0.976,24.706 0.696,24.79C0.416,24.874 0.164,24.96 -0.06,25.048C-0.284,25.136 -0.472,25.222 -0.624,25.306C-0.776,25.39 -0.884,25.468 -0.948,25.54C-0.98,25.58 -1.004,25.6 -1.02,25.6L-1.08,25.6C-1.096,25.6 -1.136,25.578 -1.2,25.534C-1.264,25.49 -1.296,25.432 -1.296,25.36C-1.296,25.32 -1.23,25.262 -1.098,25.186C-0.966,25.11 -0.808,25.03 -0.624,24.946C-0.44,24.862 -0.248,24.782 -0.048,24.706C0.152,24.63 0.324,24.572 0.468,24.532C0.508,24.476 0.542,24.318 0.57,24.058C0.598,23.798 0.622,23.418 0.642,22.918C0.662,22.418 0.678,21.792 0.69,21.04C0.702,20.288 0.712,19.388 0.72,18.34C0.72,18.052 0.716,17.758 0.708,17.458C0.7,17.158 0.688,16.878 0.672,16.618C0.656,16.358 0.632,16.132 0.6,15.94C0.568,15.748 0.528,15.612 0.48,15.532C0.44,15.476 0.366,15.438 0.258,15.418C0.15,15.398 0.024,15.388 -0.12,15.388L-0.738,15.388C-0.79,15.388 -0.844,15.382 -0.9,15.37C-0.956,15.358 -1.002,15.34 -1.038,15.316C-1.074,15.292 -1.092,15.26 -1.092,15.22C-1.092,15.132 -1.08,15.07 -1.056,15.034C-1.032,14.998 -0.924,14.98 -0.732,14.98C-0.652,14.98 -0.552,14.984 -0.432,14.992C-0.312,15 -0.19,15.006 -0.066,15.01C0.058,15.014 0.182,15.02 0.306,15.028C0.43,15.036 0.54,15.04 0.636,15.04C0.892,15.04 1.21,15.016 1.59,14.968C1.97,14.92 2.36,14.888 2.76,14.872C3.056,14.864 3.358,14.858 3.666,14.854C3.974,14.85 4.262,14.846 4.53,14.842C4.798,14.838 5.03,14.834 5.226,14.83C5.422,14.826 5.556,14.816 5.628,14.8C5.7,14.576 5.78,14.382 5.868,14.218C5.956,14.054 6.048,13.968 6.144,13.96C6.184,13.96 6.238,13.974 6.306,14.002C6.374,14.03 6.408,14.068 6.408,14.116C6.384,14.14 6.364,14.164 6.348,14.188C6.316,14.236 6.3,14.272 6.3,14.296C6.204,14.464 6.118,14.68 6.042,14.944C5.966,15.208 5.902,15.48 5.85,15.76C5.798,16.04 5.76,16.312 5.736,16.576C5.712,16.84 5.712,17.06 5.736,17.236C5.712,17.356 5.664,17.416 5.592,17.416C5.464,17.416 5.386,17.394 5.358,17.35C5.33,17.306 5.324,17.26 5.34,17.212C5.356,17.148 5.368,17.066 5.376,16.966C5.384,16.866 5.388,16.784 5.388,16.72C5.388,16.528 5.324,16.362 5.196,16.222C5.068,16.082 4.896,15.966 4.68,15.874C4.464,15.782 4.21,15.712 3.918,15.664C3.626,15.616 3.316,15.592 2.988,15.592C2.9,15.592 2.782,15.594 2.634,15.598C2.486,15.602 2.376,15.636 2.304,15.7C2.288,15.764 2.272,15.9 2.256,16.108C2.24,16.316 2.226,16.562 2.214,16.846C2.202,17.13 2.192,17.434 2.184,17.758C2.176,18.082 2.17,18.396 2.166,18.7C2.162,19.004 2.158,19.28 2.154,19.528C2.15,19.776 2.148,19.96 2.148,20.08C2.308,20.088 2.462,20.092 2.61,20.092L3.048,20.092C3.528,20.1 3.95,20.09 4.314,20.062C4.678,20.034 4.92,20 5.04,19.96C5.112,19.936 5.17,19.902 5.214,19.858C5.258,19.814 5.294,19.768 5.322,19.72C5.35,19.672 5.378,19.63 5.406,19.594C5.434,19.558 5.464,19.54 5.496,19.54C5.536,19.54 5.576,19.56 5.616,19.6C5.656,19.64 5.668,19.676 5.652,19.708C5.604,19.796 5.56,19.918 5.52,20.074C5.48,20.23 5.446,20.402 5.418,20.59C5.39,20.778 5.366,20.972 5.346,21.172C5.326,21.372 5.316,21.56 5.316,21.736C5.316,21.768 5.318,21.8 5.322,21.832C5.326,21.864 5.328,21.9 5.328,21.94C5.328,21.964 5.31,21.982 5.274,21.994C5.238,22.006 5.202,22.012 5.166,22.012C5.13,22.012 5.096,22.008 5.064,22C5.032,21.992 5.016,21.976 5.016,21.952C5.016,21.904 5.012,21.846 5.004,21.778C4.996,21.71 4.978,21.644 4.95,21.58C4.922,21.516 4.878,21.454 4.818,21.394C4.758,21.334 4.676,21.284 4.572,21.244L4.392,21.196Z" style="fill-rule:nonzero;"/>
            <path d="M12.12,18.496C12.032,18.568 11.928,18.658 11.808,18.766C11.688,18.874 11.562,18.978 11.43,19.078C11.298,19.178 11.164,19.264 11.028,19.336C10.892,19.408 10.76,19.444 10.632,19.444C10.52,19.444 10.42,19.418 10.332,19.366C10.244,19.314 10.162,19.258 10.086,19.198C10.01,19.138 9.936,19.082 9.864,19.03C9.792,18.978 9.716,18.952 9.636,18.952C9.42,18.952 9.238,19.04 9.09,19.216C8.942,19.392 8.822,19.616 8.73,19.888C8.638,20.16 8.57,20.456 8.526,20.776C8.482,21.096 8.46,21.404 8.46,21.7C8.46,21.948 8.47,22.15 8.49,22.306C8.51,22.462 8.54,22.586 8.58,22.678C8.62,22.77 8.674,22.832 8.742,22.864C8.81,22.896 8.892,22.912 8.988,22.912C9.092,22.912 9.204,22.896 9.324,22.864C9.348,22.856 9.366,22.872 9.378,22.912C9.39,22.952 9.396,22.984 9.396,23.008C9.396,23.024 9.384,23.042 9.36,23.062C9.336,23.082 9.32,23.092 9.312,23.092C9.136,23.164 8.956,23.242 8.772,23.326C8.588,23.41 8.436,23.48 8.316,23.536C8.204,23.584 8.07,23.636 7.914,23.692C7.758,23.748 7.624,23.776 7.512,23.776C7.384,23.776 7.278,23.756 7.194,23.716C7.11,23.676 7.068,23.636 7.068,23.596C7.068,23.556 7.078,23.52 7.098,23.488C7.118,23.456 7.136,23.396 7.152,23.308C7.168,23.188 7.186,23.046 7.206,22.882C7.226,22.718 7.246,22.54 7.266,22.348C7.286,22.156 7.302,21.958 7.314,21.754C7.326,21.55 7.332,21.348 7.332,21.148C7.332,20.7 7.318,20.32 7.29,20.008C7.262,19.696 7.212,19.444 7.14,19.252C7.068,19.06 6.97,18.922 6.846,18.838C6.722,18.754 6.564,18.712 6.372,18.712L6.264,18.712C6.232,18.712 6.2,18.716 6.168,18.724C6.12,18.724 6.096,18.7 6.096,18.652C6.096,18.604 6.12,18.568 6.168,18.544C6.256,18.488 6.392,18.406 6.576,18.298C6.76,18.19 6.95,18.086 7.146,17.986C7.342,17.886 7.532,17.796 7.716,17.716C7.9,17.636 8.036,17.596 8.124,17.596C8.228,17.596 8.316,17.63 8.388,17.698C8.46,17.766 8.514,17.852 8.55,17.956C8.586,18.06 8.612,18.178 8.628,18.31C8.644,18.442 8.652,18.572 8.652,18.7C8.652,18.796 8.65,18.896 8.646,19C8.642,19.104 8.64,19.216 8.64,19.336C9,18.808 9.324,18.398 9.612,18.106C9.9,17.814 10.172,17.668 10.428,17.668C10.524,17.668 10.618,17.708 10.71,17.788C10.802,17.868 10.9,17.958 11.004,18.058C11.108,18.158 11.216,18.248 11.328,18.328C11.44,18.408 11.556,18.448 11.676,18.448C11.78,18.448 11.856,18.436 11.904,18.412C11.952,18.388 11.992,18.368 12.024,18.352C12.088,18.352 12.12,18.396 12.12,18.484L12.12,18.496Z" style="fill-rule:nonzero;"/>
            <path d="M16.992,22.192C16.904,22.288 16.768,22.42 16.584,22.588C16.4,22.756 16.178,22.924 15.918,23.092C15.658,23.26 15.368,23.404 15.048,23.524C14.728,23.644 14.388,23.704 14.028,23.704C13.7,23.704 13.38,23.654 13.068,23.554C12.756,23.454 12.476,23.302 12.228,23.098C11.98,22.894 11.782,22.634 11.634,22.318C11.486,22.002 11.412,21.624 11.412,21.184C11.412,20.824 11.436,20.514 11.484,20.254C11.532,19.994 11.596,19.766 11.676,19.57C11.756,19.374 11.846,19.206 11.946,19.066C12.046,18.926 12.148,18.8 12.252,18.688C12.38,18.544 12.536,18.408 12.72,18.28C12.904,18.152 13.102,18.036 13.314,17.932C13.526,17.828 13.75,17.746 13.986,17.686C14.222,17.626 14.46,17.596 14.7,17.596C15.132,17.596 15.47,17.668 15.714,17.812C15.958,17.956 16.08,18.156 16.08,18.412C16.08,18.572 16.032,18.72 15.936,18.856C16.016,18.832 16.118,18.792 16.242,18.736C16.366,18.68 16.492,18.622 16.62,18.562C16.748,18.502 16.862,18.448 16.962,18.4C17.062,18.352 17.128,18.316 17.16,18.292C17.176,18.276 17.194,18.27 17.214,18.274C17.234,18.278 17.244,18.292 17.244,18.316C17.244,18.42 17.224,18.506 17.184,18.574C17.144,18.642 17.096,18.696 17.04,18.736C16.912,18.816 16.728,18.916 16.488,19.036C16.248,19.156 15.982,19.282 15.69,19.414C15.398,19.546 15.096,19.678 14.784,19.81C14.472,19.942 14.178,20.068 13.902,20.188C13.626,20.308 13.386,20.414 13.182,20.506C12.978,20.598 12.84,20.664 12.768,20.704C12.768,20.976 12.822,21.23 12.93,21.466C13.038,21.702 13.188,21.908 13.38,22.084C13.572,22.26 13.802,22.398 14.07,22.498C14.338,22.598 14.632,22.648 14.952,22.648C15.24,22.648 15.5,22.618 15.732,22.558C15.964,22.498 16.16,22.43 16.32,22.354C16.48,22.278 16.606,22.21 16.698,22.15C16.79,22.09 16.84,22.06 16.848,22.06C16.88,22.06 16.912,22.074 16.944,22.102C16.976,22.13 16.992,22.16 16.992,22.192ZM12.768,20.356C12.904,20.308 13.058,20.25 13.23,20.182C13.402,20.114 13.57,20.04 13.734,19.96C13.898,19.88 14.048,19.804 14.184,19.732C14.32,19.66 14.424,19.596 14.496,19.54C14.64,19.436 14.712,19.26 14.712,19.012C14.712,18.916 14.694,18.816 14.658,18.712C14.622,18.608 14.568,18.514 14.496,18.43C14.424,18.346 14.336,18.278 14.232,18.226C14.128,18.174 14.012,18.148 13.884,18.148C13.772,18.148 13.652,18.186 13.524,18.262C13.396,18.338 13.276,18.462 13.164,18.634C13.052,18.806 12.958,19.034 12.882,19.318C12.806,19.602 12.768,19.948 12.768,20.356Z" style="fill-rule:nonzero;"/>
            <path d="M22.56,22.192C22.472,22.288 22.336,22.42 22.152,22.588C21.968,22.756 21.746,22.924 21.486,23.092C21.226,23.26 20.936,23.404 20.616,23.524C20.296,23.644 19.956,23.704 19.596,23.704C19.268,23.704 18.948,23.654 18.636,23.554C18.324,23.454 18.044,23.302 17.796,23.098C17.548,22.894 17.35,22.634 17.202,22.318C17.054,22.002 16.98,21.624 16.98,21.184C16.98,20.824 17.004,20.514 17.052,20.254C17.1,19.994 17.164,19.766 17.244,19.57C17.324,19.374 17.414,19.206 17.514,19.066C17.614,18.926 17.716,18.8 17.82,18.688C17.948,18.544 18.104,18.408 18.288,18.28C18.472,18.152 18.67,18.036 18.882,17.932C19.094,17.828 19.318,17.746 19.554,17.686C19.79,17.626 20.028,17.596 20.268,17.596C20.7,17.596 21.038,17.668 21.282,17.812C21.526,17.956 21.648,18.156 21.648,18.412C21.648,18.572 21.6,18.72 21.504,18.856C21.584,18.832 21.686,18.792 21.81,18.736C21.934,18.68 22.06,18.622 22.188,18.562C22.316,18.502 22.43,18.448 22.53,18.4C22.63,18.352 22.696,18.316 22.728,18.292C22.744,18.276 22.762,18.27 22.782,18.274C22.802,18.278 22.812,18.292 22.812,18.316C22.812,18.42 22.792,18.506 22.752,18.574C22.712,18.642 22.664,18.696 22.608,18.736C22.48,18.816 22.296,18.916 22.056,19.036C21.816,19.156 21.55,19.282 21.258,19.414C20.966,19.546 20.664,19.678 20.352,19.81C20.04,19.942 19.746,20.068 19.47,20.188C19.194,20.308 18.954,20.414 18.75,20.506C18.546,20.598 18.408,20.664 18.336,20.704C18.336,20.976 18.39,21.23 18.498,21.466C18.606,21.702 18.756,21.908 18.948,22.084C19.14,22.26 19.37,22.398 19.638,22.498C19.906,22.598 20.2,22.648 20.52,22.648C20.808,22.648 21.068,22.618 21.3,22.558C21.532,22.498 21.728,22.43 21.888,22.354C22.048,22.278 22.174,22.21 22.266,22.15C22.358,22.09 22.408,22.06 22.416,22.06C22.448,22.06 22.48,22.074 22.512,22.102C22.544,22.13 22.56,22.16 22.56,22.192ZM18.336,20.356C18.472,20.308 18.626,20.25 18.798,20.182C18.97,20.114 19.138,20.04 19.302,19.96C19.466,19.88 19.616,19.804 19.752,19.732C19.888,19.66 19.992,19.596 20.064,19.54C20.208,19.436 20.28,19.26 20.28,19.012C20.28,18.916 20.262,18.816 20.226,18.712C20.19,18.608 20.136,18.514 20.064,18.43C19.992,18.346 19.904,18.278 19.8,18.226C19.696,18.174 19.58,18.148 19.452,18.148C19.34,18.148 19.22,18.186 19.092,18.262C18.964,18.338 18.844,18.462 18.732,18.634C18.62,18.806 18.526,19.034 18.45,19.318C18.374,19.602 18.336,19.948 18.336,20.356Z" style="fill-rule:nonzero;"/>
            <path d="M21.852,23.44C22.028,23.336 22.204,23.192 22.38,23.008C22.556,22.824 22.732,22.618 22.908,22.39C23.084,22.162 23.262,21.92 23.442,21.664C23.622,21.408 23.8,21.152 23.976,20.896C24.272,20.464 24.55,20.052 24.81,19.66C25.07,19.268 25.276,18.948 25.428,18.7L25.236,18.7C24.94,18.7 24.618,18.688 24.27,18.664C23.922,18.64 23.608,18.628 23.328,18.628C23.072,18.628 22.888,18.648 22.776,18.688C22.664,18.728 22.564,18.792 22.476,18.88C22.452,18.88 22.418,18.87 22.374,18.85C22.33,18.83 22.308,18.8 22.308,18.76C22.308,18.736 22.312,18.72 22.32,18.712C22.416,18.648 22.544,18.54 22.704,18.388C22.864,18.236 23.024,18.084 23.184,17.932C23.344,17.78 23.484,17.646 23.604,17.53C23.724,17.414 23.796,17.356 23.82,17.356C23.876,17.356 23.916,17.366 23.94,17.386C23.964,17.406 23.984,17.428 24,17.452C24.016,17.476 24.036,17.502 24.06,17.53C24.084,17.558 24.124,17.584 24.18,17.608C24.276,17.648 24.408,17.688 24.576,17.728C24.744,17.768 24.932,17.802 25.14,17.83C25.348,17.858 25.572,17.882 25.812,17.902C26.052,17.922 26.292,17.932 26.532,17.932C26.684,17.932 26.84,17.922 27,17.902C27.16,17.882 27.3,17.856 27.42,17.824C27.428,17.824 27.44,17.84 27.456,17.872C27.472,17.904 27.48,17.932 27.48,17.956C27.48,17.972 27.476,17.986 27.468,17.998C27.46,18.01 27.456,18.02 27.456,18.028C27.232,18.196 26.982,18.476 26.706,18.868C26.43,19.26 26.056,19.752 25.584,20.344C25.544,20.384 25.514,20.424 25.494,20.464C25.474,20.504 25.448,20.544 25.416,20.584C25.064,21.032 24.756,21.414 24.492,21.73C24.228,22.046 23.992,22.316 23.784,22.54C23.904,22.556 24.046,22.584 24.21,22.624C24.374,22.664 24.558,22.704 24.762,22.744C24.966,22.784 25.19,22.82 25.434,22.852C25.678,22.884 25.94,22.9 26.22,22.9C26.516,22.9 26.758,22.874 26.946,22.822C27.134,22.77 27.308,22.668 27.468,22.516C27.524,22.46 27.55,22.436 27.546,22.444C27.542,22.452 27.556,22.456 27.588,22.456C27.628,22.456 27.646,22.478 27.642,22.522C27.638,22.566 27.636,22.596 27.636,22.612C27.636,22.708 27.58,22.824 27.468,22.96C27.356,23.096 27.2,23.226 27,23.35C26.8,23.474 26.562,23.58 26.286,23.668C26.01,23.756 25.704,23.8 25.368,23.8C25.16,23.8 24.934,23.788 24.69,23.764C24.446,23.74 24.196,23.712 23.94,23.68C23.684,23.648 23.428,23.62 23.172,23.596C22.916,23.572 22.676,23.56 22.452,23.56C22.316,23.56 22.202,23.574 22.11,23.602C22.018,23.63 21.912,23.66 21.792,23.692C21.752,23.692 21.732,23.668 21.732,23.62C21.732,23.612 21.74,23.576 21.756,23.512L21.852,23.44Z" style="fill-rule:nonzero;"/>
            <path d="M33.204,22.192C33.116,22.288 32.98,22.42 32.796,22.588C32.612,22.756 32.39,22.924 32.13,23.092C31.87,23.26 31.58,23.404 31.26,23.524C30.94,23.644 30.6,23.704 30.24,23.704C29.912,23.704 29.592,23.654 29.28,23.554C28.968,23.454 28.688,23.302 28.44,23.098C28.192,22.894 27.994,22.634 27.846,22.318C27.698,22.002 27.624,21.624 27.624,21.184C27.624,20.824 27.648,20.514 27.696,20.254C27.744,19.994 27.808,19.766 27.888,19.57C27.968,19.374 28.058,19.206 28.158,19.066C28.258,18.926 28.36,18.8 28.464,18.688C28.592,18.544 28.748,18.408 28.932,18.28C29.116,18.152 29.314,18.036 29.526,17.932C29.738,17.828 29.962,17.746 30.198,17.686C30.434,17.626 30.672,17.596 30.912,17.596C31.344,17.596 31.682,17.668 31.926,17.812C32.17,17.956 32.292,18.156 32.292,18.412C32.292,18.572 32.244,18.72 32.148,18.856C32.228,18.832 32.33,18.792 32.454,18.736C32.578,18.68 32.704,18.622 32.832,18.562C32.96,18.502 33.074,18.448 33.174,18.4C33.274,18.352 33.34,18.316 33.372,18.292C33.388,18.276 33.406,18.27 33.426,18.274C33.446,18.278 33.456,18.292 33.456,18.316C33.456,18.42 33.436,18.506 33.396,18.574C33.356,18.642 33.308,18.696 33.252,18.736C33.124,18.816 32.94,18.916 32.7,19.036C32.46,19.156 32.194,19.282 31.902,19.414C31.61,19.546 31.308,19.678 30.996,19.81C30.684,19.942 30.39,20.068 30.114,20.188C29.838,20.308 29.598,20.414 29.394,20.506C29.19,20.598 29.052,20.664 28.98,20.704C28.98,20.976 29.034,21.23 29.142,21.466C29.25,21.702 29.4,21.908 29.592,22.084C29.784,22.26 30.014,22.398 30.282,22.498C30.55,22.598 30.844,22.648 31.164,22.648C31.452,22.648 31.712,22.618 31.944,22.558C32.176,22.498 32.372,22.43 32.532,22.354C32.692,22.278 32.818,22.21 32.91,22.15C33.002,22.09 33.052,22.06 33.06,22.06C33.092,22.06 33.124,22.074 33.156,22.102C33.188,22.13 33.204,22.16 33.204,22.192ZM28.98,20.356C29.116,20.308 29.27,20.25 29.442,20.182C29.614,20.114 29.782,20.04 29.946,19.96C30.11,19.88 30.26,19.804 30.396,19.732C30.532,19.66 30.636,19.596 30.708,19.54C30.852,19.436 30.924,19.26 30.924,19.012C30.924,18.916 30.906,18.816 30.87,18.712C30.834,18.608 30.78,18.514 30.708,18.43C30.636,18.346 30.548,18.278 30.444,18.226C30.34,18.174 30.224,18.148 30.096,18.148C29.984,18.148 29.864,18.186 29.736,18.262C29.608,18.338 29.488,18.462 29.376,18.634C29.264,18.806 29.17,19.034 29.094,19.318C29.018,19.602 28.98,19.948 28.98,20.356Z" style="fill-rule:nonzero;"/>
        </g>
        <g transform="matrix(1,0,0,1,32.6875,-4.53575)">
            <text x="-39.144px" y="23.596px" style="font-family:'Luminari-Regular', 'Luminari';font-size:12px;">Meter Fr<tspan x="11.064px 16.632px " y="23.596px 23.596px ">ee</tspan>ze</text>
        </g>
    </g>
</svg>
