<?xml version="1.0" encoding="UTF-8" standalone="no"?>
<!DOCTYPE svg PUBLIC "-//W3C//DTD SVG 1.1//EN" "http://www.w3.org/Graphics/SVG/1.1/DTD/svg11.dtd">
<svg width="100%" height="100%" viewBox="0 0 91 380" version="1.1" xmlns="http://www.w3.org/2000/svg" xmlns:xlink="http://www.w3.org/1999/xlink" xml:space="preserve" xmlns:serif="http://www.serif.com/" style="fill-rule:evenodd;clip-rule:evenodd;stroke-linecap:round;stroke-linejoin:round;stroke-miterlimit:1.5;">
    <g id="Text" transform="matrix(1,0,0,1,1.8677,-469.764)">
        <g id="rect420" transform="matrix(1.04323,0,0,1.04323,-1.86771,-28.5242)">
            <rect x="0" y="477.638" width="86.4" height="364.252" style="fill:rgb(230,230,230);"/>
        </g>
        <g transform="matrix(1,0,0,1,-2.7032,25.4155)">
            <g transform="matrix(0.669868,0,0,0.50211,35.4324,619.816)">
                <rect x="24.068" y="279.831" width="44.785" height="59.748" style="fill:rgb(38,38,38);"/>
            </g>
            <g transform="matrix(0.669868,0,0,0.50211,-5.87019,619.816)">
                <rect x="24.068" y="279.831" width="44.785" height="59.748" style="fill:rgb(191,191,191);"/>
            </g>
        </g>
        <g transform="matrix(1,0,0,1,-2.7032,-14.5845)">
            <g transform="matrix(0.669868,0,0,0.50211,35.4324,619.816)">
                <rect x="24.068" y="279.831" width="44.785" height="59.748" style="fill:rgb(38,38,38);"/>
            </g>
            <g transform="matrix(0.669868,0,0,0.50211,-5.87019,619.816)">
                <rect x="24.068" y="279.831" width="44.785" height="59.748" style="fill:rgb(191,191,191);"/>
            </g>
        </g>
        <g transform="matrix(1,0,0,1,-2.7032,-54.5845)">
            <g transform="matrix(0.669868,0,0,0.50211,35.4324,619.816)">
                <rect x="24.068" y="279.831" width="44.785" height="59.748" style="fill:rgb(38,38,38);"/>
            </g>
            <g transform="matrix(0.669868,0,0,0.50211,-5.87019,619.816)">
                <rect x="24.068" y="279.831" width="44.785" height="59.748" style="fill:rgb(191,191,191);"/>
            </g>
        </g>
        <g transform="matrix(1,0,0,1,-2.7032,-94.5845)">
            <g transform="matrix(0.669868,0,0,0.50211,35.4324,619.816)">
                <rect x="24.068" y="279.831" width="44.785" height="59.748" style="fill:rgb(38,38,38);"/>
            </g>
            <g transform="matrix(0.669868,0,0,0.50211,-5.87019,619.816)">
                <rect x="24.068" y="279.831" width="44.785" height="59.748" style="fill:rgb(191,191,191);"/>
            </g>
        </g>
        <g transform="matrix(1,0,0,1,-2.7032,-136.532)">
            <g transform="matrix(0.669868,0,0,0.50211,35.4324,619.816)">
                <rect x="24.068" y="279.831" width="44.785" height="59.748" style="fill:rgb(38,38,38);"/>
            </g>
            <g transform="matrix(0.669868,0,0,0.50211,-5.87019,619.816)">
                <rect x="24.068" y="279.831" width="44.785" height="59.748" style="fill:rgb(191,191,191);"/>
            </g>
        </g>
        <g transform="matrix(1,0,0,1,-2.7032,-176.532)">
            <g transform="matrix(0.669868,0,0,0.50211,35.4324,619.816)">
                <rect x="24.068" y="279.831" width="44.785" height="59.748" style="fill:rgb(38,38,38);"/>
            </g>
            <g transform="matrix(0.669868,0,0,0.50211,-5.87019,619.816)">
                <rect x="24.068" y="279.831" width="44.785" height="59.748" style="fill:rgb(191,191,191);"/>
            </g>
        </g>
        <g transform="matrix(1,0,0,1,-2.7032,-216.532)">
            <g transform="matrix(0.669868,0,0,0.50211,35.4324,619.816)">
                <rect x="24.068" y="279.831" width="44.785" height="59.748" style="fill:rgb(38,38,38);"/>
            </g>
            <g transform="matrix(0.669868,0,0,0.50211,-5.87019,619.816)">
                <rect x="24.068" y="279.831" width="44.785" height="59.748" style="fill:rgb(191,191,191);"/>
            </g>
        </g>
        <g transform="matrix(1,0,0,1,-2.7032,-256.532)">
            <g transform="matrix(0.669868,0,0,0.50211,35.4324,619.816)">
                <rect x="24.068" y="279.831" width="44.785" height="59.748" style="fill:rgb(38,38,38);"/>
            </g>
            <g transform="matrix(0.669868,0,0,0.50211,-5.87019,619.816)">
                <rect x="24.068" y="279.831" width="44.785" height="59.748" style="fill:rgb(191,191,191);"/>
            </g>
        </g>
        <g id="schwein" transform="matrix(0.444933,0,0,0.444933,14.4846,800.661)">
            <path d="M2.263,47.519C2.229,47.623 2.211,47.805 2.211,48.065C2.211,48.238 2.372,48.433 2.692,48.65C3.013,48.867 3.429,49.07 3.94,49.261C4.452,49.452 5.037,49.612 5.696,49.742C6.354,49.872 7.022,49.937 7.698,49.937C8.998,49.937 9.951,49.785 10.558,49.482C11.165,49.179 11.468,48.741 11.468,48.169C11.468,47.857 11.204,47.636 10.675,47.506C10.146,47.376 9.483,47.272 8.686,47.194C7.888,47.116 7.03,47.029 6.112,46.934C5.193,46.838 4.335,46.665 3.537,46.414C2.74,46.162 2.077,45.798 1.548,45.322C1.019,44.845 0.755,44.191 0.755,43.358C0.755,42.7 0.907,42.102 1.21,41.564C1.514,41.027 1.938,40.568 2.484,40.186C3.03,39.805 3.693,39.506 4.473,39.289C5.254,39.072 6.12,38.964 7.074,38.964C7.958,38.964 8.781,39.02 9.544,39.133C10.307,39.246 10.983,39.371 11.572,39.51C12.161,39.649 12.655,39.775 13.054,39.887C13.453,40 13.739,40.056 13.912,40.056C14.086,40.056 14.224,40.017 14.328,39.939C14.432,39.861 14.528,39.77 14.614,39.666L14.9,39.77L13.106,43.384L12.794,43.228L12.794,42.942C12.794,42.786 12.625,42.626 12.287,42.461C11.949,42.297 11.52,42.149 11,42.019C10.48,41.889 9.899,41.781 9.258,41.694C8.616,41.608 7.992,41.564 7.386,41.564C6.259,41.564 5.47,41.694 5.019,41.954C4.569,42.214 4.343,42.492 4.343,42.786C4.343,43.081 4.499,43.302 4.811,43.449C5.124,43.597 5.531,43.705 6.034,43.775C6.536,43.844 7.108,43.9 7.75,43.944C8.391,43.987 9.05,44.052 9.726,44.139C10.402,44.225 11.061,44.347 11.702,44.503C12.343,44.659 12.916,44.888 13.418,45.192C13.921,45.495 14.328,45.894 14.64,46.388C14.952,46.882 15.108,47.502 15.108,48.247C15.108,48.819 14.991,49.382 14.757,49.937C14.523,50.492 14.125,50.99 13.561,51.432C12.998,51.874 12.244,52.225 11.299,52.485C10.354,52.745 9.18,52.875 7.776,52.875C6.684,52.875 5.743,52.823 4.954,52.719C4.166,52.615 3.494,52.49 2.939,52.342C2.385,52.195 1.947,52.061 1.626,51.939C1.306,51.818 1.067,51.757 0.911,51.757C0.807,51.757 0.716,51.792 0.638,51.861C0.56,51.931 0.478,52.009 0.391,52.095L0.079,52.017L2.003,47.389L2.263,47.519Z" style="fill-rule:nonzero;"/>
            <path d="M28.786,45.751L28.421,45.569C28.439,45.499 28.46,45.43 28.487,45.361C28.513,45.291 28.526,45.213 28.526,45.127C28.526,45.023 28.417,44.901 28.2,44.763C27.984,44.624 27.706,44.498 27.368,44.386C27.03,44.273 26.649,44.173 26.224,44.087C25.8,44 25.371,43.957 24.937,43.957C24.452,43.957 23.958,44.017 23.455,44.139C22.952,44.26 22.502,44.446 22.103,44.698C21.704,44.949 21.375,45.27 21.115,45.66C20.855,46.05 20.725,46.522 20.725,47.077C20.725,47.614 20.855,48.082 21.115,48.481C21.375,48.88 21.704,49.205 22.103,49.456C22.502,49.707 22.952,49.894 23.455,50.015C23.958,50.136 24.452,50.197 24.937,50.197C25.457,50.197 25.947,50.132 26.406,50.002C26.866,49.872 27.273,49.716 27.628,49.534C27.984,49.352 28.261,49.17 28.46,48.988C28.66,48.806 28.76,48.672 28.76,48.585L28.76,48.351C28.76,48.247 28.751,48.169 28.734,48.117L29.02,47.935L31.49,51.497L31.178,51.679C31.022,51.489 30.883,51.393 30.762,51.393C30.692,51.393 30.506,51.471 30.203,51.627C29.899,51.783 29.496,51.961 28.994,52.16C28.491,52.36 27.897,52.529 27.212,52.667C26.528,52.806 25.769,52.875 24.937,52.875C23.984,52.875 23.052,52.78 22.142,52.589C21.232,52.399 20.421,52.074 19.711,51.614C19,51.155 18.428,50.552 17.995,49.807C17.561,49.062 17.345,48.152 17.345,47.077C17.345,46.019 17.561,45.118 17.995,44.373C18.428,43.627 19,43.02 19.711,42.552C20.421,42.084 21.232,41.742 22.142,41.525C23.052,41.309 23.984,41.2 24.937,41.2C25.509,41.2 26.064,41.248 26.601,41.343C27.139,41.439 27.633,41.538 28.083,41.642C28.534,41.746 28.924,41.846 29.254,41.941C29.583,42.037 29.817,42.084 29.956,42.084C30.042,42.084 30.12,42.058 30.19,42.006C30.259,41.954 30.311,41.902 30.346,41.85L30.658,41.954L28.786,45.751Z" style="fill-rule:nonzero;"/>
            <path d="M38.042,52.017C38.042,52.208 38.112,52.329 38.25,52.381C38.389,52.433 38.562,52.468 38.77,52.485L38.77,52.797L33.83,52.797L33.83,52.485C34.038,52.468 34.211,52.433 34.35,52.381C34.489,52.329 34.558,52.208 34.558,52.017L34.558,42.136C34.558,41.946 34.489,41.824 34.35,41.772C34.211,41.72 34.038,41.686 33.83,41.668L33.83,41.356L38.77,41.356L38.77,41.668C38.562,41.686 38.389,41.72 38.25,41.772C38.112,41.824 38.042,41.946 38.042,42.136L38.042,45.413L43.789,45.413L43.789,42.136C43.789,41.946 43.719,41.824 43.581,41.772C43.442,41.72 43.269,41.686 43.061,41.668L43.061,41.356L48.001,41.356L48.001,41.668C47.793,41.686 47.62,41.72 47.481,41.772C47.342,41.824 47.273,41.946 47.273,42.136L47.273,52.017C47.273,52.208 47.342,52.329 47.481,52.381C47.62,52.433 47.793,52.468 48.001,52.485L48.001,52.797L43.061,52.797L43.061,52.485C43.269,52.468 43.442,52.433 43.581,52.381C43.719,52.329 43.789,52.208 43.789,52.017L43.789,48.065L38.042,48.065L38.042,52.017Z" style="fill-rule:nonzero;"/>
            <path d="M54.866,41.668C54.71,41.668 54.554,41.699 54.398,41.759C54.242,41.82 54.164,41.946 54.164,42.136C54.164,42.206 54.207,42.396 54.294,42.708C54.38,43.02 54.493,43.389 54.632,43.814C54.77,44.238 54.918,44.698 55.074,45.192C55.23,45.686 55.381,46.162 55.529,46.622C55.676,47.081 55.806,47.497 55.919,47.87C56.032,48.243 56.105,48.516 56.14,48.689L56.192,48.689C56.227,48.498 56.309,48.221 56.439,47.857C56.569,47.493 56.721,47.085 56.894,46.635C57.067,46.184 57.249,45.712 57.44,45.218C57.631,44.724 57.808,44.269 57.973,43.853C58.138,43.436 58.272,43.072 58.376,42.76C58.48,42.448 58.532,42.24 58.532,42.136C58.532,41.946 58.454,41.82 58.298,41.759C58.142,41.699 57.986,41.668 57.83,41.668L57.83,41.356L63.108,41.356L63.108,41.668C62.935,41.668 62.77,41.699 62.614,41.759C62.458,41.82 62.38,41.946 62.38,42.136C62.38,42.188 62.437,42.37 62.549,42.682C62.662,42.994 62.801,43.371 62.965,43.814C63.13,44.256 63.308,44.737 63.498,45.257C63.689,45.777 63.876,46.271 64.058,46.739C64.24,47.207 64.396,47.619 64.526,47.974C64.656,48.329 64.738,48.568 64.773,48.689L64.825,48.689C64.859,48.498 64.933,48.217 65.046,47.844C65.158,47.471 65.288,47.059 65.436,46.609C65.583,46.158 65.735,45.694 65.891,45.218C66.047,44.741 66.194,44.29 66.333,43.866C66.471,43.441 66.584,43.072 66.671,42.76C66.757,42.448 66.801,42.24 66.801,42.136C66.801,41.946 66.723,41.82 66.567,41.759C66.411,41.699 66.246,41.668 66.073,41.668L66.073,41.356L70.389,41.356L70.389,41.668C70.146,41.703 69.99,41.781 69.921,41.902C69.852,42.024 69.782,42.18 69.713,42.37C69.661,42.544 69.548,42.899 69.375,43.436C69.202,43.974 68.994,44.598 68.751,45.309C68.508,46.019 68.261,46.765 68.01,47.545C67.759,48.325 67.52,49.049 67.295,49.716C67.069,50.383 66.887,50.942 66.749,51.393C66.61,51.844 66.541,52.095 66.541,52.147C66.541,52.321 66.783,52.433 67.269,52.485L67.269,52.797L61.782,52.797L61.782,52.485C62.285,52.433 62.536,52.321 62.536,52.147C62.536,52.061 62.484,51.861 62.38,51.549C62.276,51.237 62.146,50.864 61.99,50.431C61.834,49.998 61.665,49.53 61.483,49.027C61.301,48.524 61.124,48.048 60.95,47.597C60.777,47.146 60.63,46.747 60.508,46.401C60.387,46.054 60.309,45.811 60.274,45.673L60.222,45.673C60.188,45.811 60.11,46.054 59.988,46.401C59.867,46.747 59.72,47.146 59.546,47.597C59.373,48.048 59.195,48.524 59.013,49.027C58.831,49.53 58.662,49.998 58.506,50.431C58.35,50.864 58.22,51.237 58.116,51.549C58.012,51.861 57.96,52.061 57.96,52.147C57.96,52.251 58.025,52.325 58.155,52.368C58.285,52.412 58.445,52.451 58.636,52.485L58.636,52.797L53.254,52.797L53.254,52.485C53.722,52.433 53.956,52.321 53.956,52.147C53.956,52.078 53.878,51.792 53.722,51.289C53.566,50.786 53.371,50.175 53.137,49.456C52.903,48.737 52.647,47.957 52.37,47.116C52.092,46.275 51.832,45.491 51.589,44.763C51.347,44.035 51.143,43.415 50.978,42.903C50.814,42.392 50.723,42.093 50.705,42.006C50.671,41.868 50.614,41.777 50.536,41.733C50.458,41.69 50.376,41.668 50.289,41.668L50.289,41.356L54.866,41.356L54.866,41.668Z" style="fill-rule:nonzero;"/>
            <path d="M84.43,50.509C84.777,50.509 85.002,50.292 85.106,49.859L85.418,49.859L85.418,53.265L85.158,53.265C85.072,53.023 84.981,52.884 84.885,52.849C84.79,52.815 84.638,52.797 84.43,52.797L72.833,52.797L72.833,52.485C73.024,52.468 73.193,52.433 73.34,52.381C73.488,52.329 73.561,52.208 73.561,52.017L73.561,42.136C73.561,41.946 73.488,41.824 73.34,41.772C73.193,41.72 73.024,41.686 72.833,41.668L72.833,41.356L84.638,41.356C84.742,41.356 84.846,41.322 84.95,41.252C85.054,41.183 85.106,41.027 85.106,40.784L85.418,40.784L85.418,44.269L85.106,44.269C85.106,44.009 85.054,43.84 84.95,43.762C84.846,43.684 84.742,43.645 84.638,43.645L77.046,43.645L77.046,45.751L81.934,45.751C82.038,45.751 82.142,45.712 82.246,45.634C82.35,45.556 82.402,45.395 82.402,45.153L82.714,45.153L82.714,48.533L82.402,48.533C82.402,48.29 82.35,48.13 82.246,48.052C82.142,47.974 82.038,47.935 81.934,47.935L77.046,47.935L77.046,50.509L84.43,50.509Z" style="fill-rule:nonzero;"/>
            <path d="M94.051,41.668C93.791,41.686 93.587,41.72 93.44,41.772C93.293,41.824 93.219,41.946 93.219,42.136L93.219,52.017C93.219,52.208 93.293,52.329 93.44,52.381C93.587,52.433 93.791,52.468 94.051,52.485L94.051,52.797L88.903,52.797L88.903,52.485C89.163,52.468 89.366,52.433 89.514,52.381C89.661,52.329 89.735,52.208 89.735,52.017L89.735,42.136C89.735,41.946 89.661,41.824 89.514,41.772C89.366,41.72 89.163,41.686 88.903,41.668L88.903,41.356L94.051,41.356L94.051,41.668Z" style="fill-rule:nonzero;"/>
            <path d="M110.849,52.017C110.849,52.208 110.918,52.329 111.057,52.381C111.195,52.433 111.369,52.468 111.577,52.485L111.577,52.797L106.766,52.797L106.766,52.485C106.905,52.485 107.065,52.468 107.247,52.433C107.429,52.399 107.52,52.303 107.52,52.147C107.52,51.991 107.33,51.701 106.948,51.276C106.567,50.851 106.077,50.327 105.479,49.703C104.881,49.079 104.209,48.381 103.464,47.61C102.719,46.838 101.982,46.019 101.254,45.153L101.202,45.205L101.202,52.017C101.202,52.208 101.267,52.329 101.397,52.381C101.527,52.433 101.687,52.468 101.878,52.485L101.878,52.797L97.431,52.797L97.431,52.485C97.605,52.468 97.756,52.433 97.886,52.381C98.016,52.329 98.081,52.208 98.081,52.017L98.081,42.136C98.081,41.946 98.012,41.824 97.873,41.772C97.735,41.72 97.57,41.686 97.379,41.668L97.379,41.356L103.568,41.356L103.568,41.668C103.447,41.686 103.325,41.72 103.204,41.772C103.083,41.824 103.022,41.946 103.022,42.136C103.022,42.171 103.165,42.349 103.451,42.669C103.737,42.99 104.105,43.393 104.556,43.879C105.007,44.364 105.509,44.901 106.064,45.491C106.619,46.08 107.174,46.669 107.728,47.259L107.728,42.136C107.728,41.946 107.659,41.824 107.52,41.772C107.382,41.72 107.208,41.686 107,41.668L107,41.356L111.577,41.356L111.577,41.668C111.369,41.686 111.195,41.72 111.057,41.772C110.918,41.824 110.849,41.946 110.849,42.136L110.849,52.017Z" style="fill-rule:nonzero;"/>
            <path d="M125.488,47.805C125.453,47.632 125.379,47.489 125.267,47.376C125.154,47.263 124.968,47.207 124.708,47.207L119.871,47.207L119.871,49.625L128.218,49.625C128.357,49.625 128.461,49.577 128.53,49.482C128.599,49.387 128.651,49.174 128.686,48.845L128.998,48.845L128.998,53.291L128.686,53.291C128.651,53.066 128.599,52.927 128.53,52.875C128.461,52.823 128.357,52.797 128.218,52.797L115.243,52.797L115.243,52.485C115.572,52.451 115.776,52.394 115.854,52.316C115.932,52.238 115.971,52.139 115.971,52.017L115.971,39.9C115.971,39.779 115.932,39.679 115.854,39.601C115.776,39.523 115.572,39.467 115.243,39.432L115.243,39.12L128.218,39.12C128.357,39.12 128.461,39.072 128.53,38.977C128.599,38.882 128.651,38.687 128.686,38.392L128.998,38.392L128.998,42.916L128.686,42.916C128.651,42.622 128.599,42.427 128.53,42.331C128.461,42.236 128.357,42.188 128.218,42.188L119.871,42.188L119.871,44.347L124.708,44.347C124.968,44.347 125.154,44.29 125.267,44.178C125.379,44.065 125.453,43.922 125.488,43.749L125.8,43.749L125.8,47.805L125.488,47.805Z" style="fill-rule:nonzero;"/>
            <path d="M18.151,74.041C18.116,74.145 18.099,74.327 18.099,74.587C18.099,74.761 18.259,74.956 18.58,75.172C18.9,75.389 19.316,75.593 19.828,75.783C20.339,75.974 20.924,76.134 21.583,76.264C22.242,76.394 22.909,76.459 23.585,76.459C24.885,76.459 25.839,76.308 26.445,76.004C27.052,75.701 27.355,75.263 27.355,74.691C27.355,74.379 27.091,74.158 26.562,74.028C26.034,73.898 25.371,73.794 24.573,73.716C23.776,73.638 22.918,73.551 21.999,73.456C21.08,73.361 20.222,73.187 19.425,72.936C18.627,72.685 17.964,72.321 17.436,71.844C16.907,71.367 16.642,70.713 16.642,69.881C16.642,69.222 16.794,68.624 17.098,68.087C17.401,67.549 17.826,67.09 18.372,66.708C18.918,66.327 19.581,66.028 20.361,65.811C21.141,65.595 22.008,65.486 22.961,65.486C23.845,65.486 24.669,65.543 25.431,65.655C26.194,65.768 26.87,65.894 27.459,66.032C28.049,66.171 28.543,66.297 28.942,66.409C29.34,66.522 29.626,66.578 29.8,66.578C29.973,66.578 30.112,66.539 30.216,66.461C30.32,66.383 30.415,66.292 30.502,66.188L30.788,66.292L28.994,69.907L28.682,69.751L28.682,69.465C28.682,69.309 28.513,69.148 28.174,68.984C27.836,68.819 27.407,68.672 26.887,68.542C26.367,68.412 25.787,68.303 25.145,68.217C24.504,68.13 23.88,68.087 23.273,68.087C22.146,68.087 21.358,68.217 20.907,68.477C20.456,68.737 20.231,69.014 20.231,69.309C20.231,69.603 20.387,69.824 20.699,69.972C21.011,70.119 21.418,70.227 21.921,70.297C22.424,70.366 22.996,70.422 23.637,70.466C24.278,70.509 24.937,70.574 25.613,70.661C26.289,70.748 26.948,70.869 27.589,71.025C28.231,71.181 28.803,71.411 29.306,71.714C29.808,72.017 30.216,72.416 30.528,72.91C30.84,73.404 30.996,74.024 30.996,74.769C30.996,75.341 30.879,75.905 30.645,76.459C30.411,77.014 30.012,77.512 29.449,77.954C28.885,78.396 28.131,78.748 27.186,79.008C26.242,79.268 25.067,79.398 23.663,79.398C22.571,79.398 21.631,79.346 20.842,79.242C20.053,79.138 19.381,79.012 18.827,78.865C18.272,78.717 17.834,78.583 17.514,78.461C17.193,78.34 16.955,78.279 16.799,78.279C16.694,78.279 16.603,78.314 16.525,78.383C16.447,78.453 16.365,78.531 16.278,78.618L15.966,78.54L17.891,73.911L18.151,74.041Z" style="fill-rule:nonzero;"/>
            <path d="M42.047,78.54C42.047,78.73 42.107,78.852 42.229,78.904C42.35,78.956 42.471,78.99 42.593,79.008L42.593,79.32L38.016,79.32L38.016,79.008C38.138,78.99 38.259,78.956 38.38,78.904C38.502,78.852 38.562,78.73 38.562,78.54L38.562,75.185L33.596,68.451C33.527,68.347 33.41,68.277 33.245,68.243C33.08,68.208 32.946,68.191 32.842,68.191L32.842,67.879L38.432,67.879L38.432,68.191C38.328,68.191 38.203,68.204 38.055,68.23C37.908,68.256 37.834,68.338 37.834,68.477C37.834,68.563 37.917,68.724 38.081,68.958C38.246,69.192 38.45,69.473 38.692,69.803C38.935,70.132 39.204,70.483 39.498,70.856C39.793,71.229 40.07,71.588 40.331,71.935C40.4,71.796 40.556,71.554 40.799,71.207C41.041,70.86 41.297,70.496 41.566,70.115C41.834,69.733 42.073,69.387 42.281,69.075C42.489,68.763 42.593,68.563 42.593,68.477C42.593,68.338 42.523,68.256 42.385,68.23C42.246,68.204 42.133,68.191 42.047,68.191L42.047,67.879L47.195,67.879L47.195,68.191C47.108,68.191 46.987,68.208 46.831,68.243C46.675,68.277 46.562,68.347 46.493,68.451L42.047,75.081L42.047,78.54Z" style="fill-rule:nonzero;"/>
            <path d="M50.523,75.497C50.523,75.532 50.519,75.571 50.51,75.614C50.502,75.658 50.497,75.714 50.497,75.783C50.497,75.957 50.662,76.121 50.991,76.277C51.321,76.433 51.741,76.576 52.253,76.706C52.764,76.836 53.319,76.94 53.917,77.018C54.515,77.096 55.074,77.135 55.594,77.135C55.75,77.135 55.962,77.127 56.231,77.109C56.5,77.092 56.764,77.044 57.024,76.966C57.284,76.888 57.505,76.776 57.687,76.628C57.869,76.481 57.96,76.277 57.96,76.017C57.96,75.671 57.752,75.424 57.336,75.276C56.92,75.129 56.396,75.016 55.763,74.938C55.13,74.86 54.445,74.778 53.709,74.691C52.972,74.604 52.287,74.453 51.654,74.236C51.022,74.019 50.497,73.707 50.081,73.3C49.665,72.893 49.457,72.325 49.457,71.597C49.457,71.198 49.561,70.769 49.769,70.31C49.977,69.85 50.307,69.43 50.757,69.049C51.208,68.667 51.802,68.351 52.539,68.1C53.275,67.848 54.172,67.723 55.23,67.723C55.854,67.723 56.448,67.757 57.011,67.827C57.574,67.896 58.086,67.974 58.545,68.061C59.004,68.147 59.394,68.225 59.715,68.295C60.036,68.364 60.266,68.399 60.404,68.399C60.543,68.399 60.656,68.36 60.742,68.282C60.829,68.204 60.907,68.139 60.976,68.087L61.262,68.191L59.702,71.467L59.364,71.311C59.364,71.276 59.368,71.233 59.377,71.181C59.386,71.129 59.39,71.077 59.39,71.025C59.39,70.956 59.286,70.869 59.078,70.765C58.87,70.661 58.597,70.557 58.259,70.453C57.921,70.349 57.54,70.258 57.115,70.18C56.69,70.102 56.253,70.063 55.802,70.063C55.646,70.063 55.403,70.067 55.074,70.076C54.744,70.084 54.415,70.128 54.086,70.206C53.756,70.284 53.466,70.396 53.215,70.544C52.963,70.691 52.838,70.912 52.838,71.207C52.838,71.519 53.046,71.74 53.462,71.87C53.878,72 54.402,72.104 55.035,72.182C55.667,72.26 56.352,72.347 57.089,72.442C57.826,72.537 58.51,72.698 59.143,72.923C59.776,73.148 60.3,73.473 60.716,73.898C61.132,74.323 61.34,74.917 61.34,75.679C61.34,76.182 61.228,76.663 61.002,77.122C60.777,77.582 60.43,77.985 59.962,78.331C59.494,78.678 58.9,78.943 58.181,79.125C57.462,79.307 56.608,79.398 55.62,79.398C54.996,79.398 54.363,79.359 53.722,79.281C53.08,79.203 52.491,79.107 51.954,78.995C51.416,78.882 50.97,78.778 50.614,78.683C50.259,78.587 50.055,78.54 50.003,78.54C49.882,78.54 49.774,78.579 49.678,78.657C49.583,78.735 49.492,78.817 49.405,78.904L49.119,78.826L50.185,75.341L50.523,75.497Z" style="fill-rule:nonzero;"/>
            <path d="M75.278,67.879C75.382,67.879 75.486,67.844 75.59,67.775C75.694,67.705 75.746,67.549 75.746,67.307L76.058,67.307L76.058,71.103L75.746,71.103C75.746,70.86 75.694,70.704 75.59,70.635C75.486,70.565 75.382,70.531 75.278,70.531L71.559,70.531L71.559,78.54C71.559,78.73 71.624,78.852 71.754,78.904C71.884,78.956 72.019,78.99 72.157,79.008L72.157,79.32L67.477,79.32L67.477,79.008C67.616,78.99 67.75,78.956 67.88,78.904C68.01,78.852 68.075,78.73 68.075,78.54L68.075,70.531L64.357,70.531C64.253,70.531 64.149,70.565 64.045,70.635C63.941,70.704 63.889,70.86 63.889,71.103L63.577,71.103L63.577,67.307L63.889,67.307C63.889,67.549 63.941,67.705 64.045,67.775C64.149,67.844 64.253,67.879 64.357,67.879L75.278,67.879Z" style="fill-rule:nonzero;"/>
            <path d="M90.229,77.031C90.575,77.031 90.801,76.815 90.905,76.381L91.217,76.381L91.217,79.788L90.957,79.788C90.87,79.545 90.779,79.406 90.684,79.372C90.588,79.337 90.437,79.32 90.229,79.32L78.632,79.32L78.632,79.008C78.822,78.99 78.991,78.956 79.139,78.904C79.286,78.852 79.36,78.73 79.36,78.54L79.36,68.659C79.36,68.468 79.286,68.347 79.139,68.295C78.991,68.243 78.822,68.208 78.632,68.191L78.632,67.879L90.437,67.879C90.541,67.879 90.645,67.844 90.749,67.775C90.853,67.705 90.905,67.549 90.905,67.307L91.217,67.307L91.217,70.791L90.905,70.791C90.905,70.531 90.853,70.362 90.749,70.284C90.645,70.206 90.541,70.167 90.437,70.167L82.844,70.167L82.844,72.273L87.733,72.273C87.837,72.273 87.941,72.234 88.045,72.156C88.149,72.078 88.201,71.918 88.201,71.675L88.513,71.675L88.513,75.055L88.201,75.055C88.201,74.813 88.149,74.652 88.045,74.574C87.941,74.496 87.837,74.457 87.733,74.457L82.844,74.457L82.844,77.031L90.229,77.031Z" style="fill-rule:nonzero;"/>
            <path d="M107.364,79.008C107.694,78.973 107.897,78.917 107.975,78.839C108.053,78.761 108.092,78.661 108.092,78.54L108.092,68.971L108.04,68.919L103.412,79.008L98.836,68.815L98.784,68.815L98.784,78.54C98.784,78.661 98.823,78.761 98.901,78.839C98.979,78.917 99.182,78.973 99.512,79.008L99.512,79.32L94.935,79.32L94.935,79.008C95.265,78.973 95.468,78.917 95.546,78.839C95.624,78.761 95.663,78.661 95.663,78.54L95.663,66.422C95.663,66.301 95.624,66.201 95.546,66.123C95.468,66.045 95.265,65.989 94.935,65.954L94.935,65.642L101.722,65.642L101.722,65.954C101.306,65.972 101.098,66.128 101.098,66.422C101.098,66.44 101.15,66.578 101.254,66.838C101.358,67.099 101.492,67.419 101.657,67.801C101.821,68.182 102.003,68.594 102.203,69.036C102.402,69.478 102.593,69.902 102.775,70.31C102.957,70.717 103.117,71.077 103.256,71.389C103.395,71.701 103.49,71.909 103.542,72.013C103.837,71.354 104.14,70.713 104.452,70.089C104.764,69.465 105.046,68.893 105.297,68.373C105.548,67.853 105.752,67.419 105.908,67.073C106.064,66.726 106.142,66.509 106.142,66.422C106.142,66.128 105.934,65.972 105.518,65.954L105.518,65.642L112.565,65.642L112.565,65.954C112.235,65.989 112.032,66.045 111.954,66.123C111.876,66.201 111.837,66.301 111.837,66.422L111.837,78.54C111.837,78.661 111.876,78.761 111.954,78.839C112.032,78.917 112.235,78.973 112.565,79.008L112.565,79.32L107.364,79.32L107.364,79.008Z" style="fill-rule:nonzero;"/>
        </g>
        <g id="Bridge" transform="matrix(1,0,0,1,2.92002,3.93369)">
            <g transform="matrix(1,0,0,1,-1.8677,469.764)">
                <rect x="16.388" y="7.213" width="4.074" height="21.351" style="stroke:black;stroke-width:1px;"/>
            </g>
            <g transform="matrix(1,0,0,1,45.579,469.764)">
                <rect x="16.388" y="7.213" width="4.074" height="21.351" style="stroke:black;stroke-width:1px;"/>
            </g>
            <g transform="matrix(1,0,0,1,-4.78773,469.764)">
                <rect x="9.416" y="17.888" width="71.303" height="2.635" style="stroke:black;stroke-width:1px;"/>
            </g>
        </g>
    </g>
</svg>
