<?xml version="1.0" encoding="UTF-8" standalone="no"?>
<!DOCTYPE svg PUBLIC "-//W3C//DTD SVG 1.1//EN" "http://www.w3.org/Graphics/SVG/1.1/DTD/svg11.dtd">
<svg width="100%" height="100%" viewBox="0 0 105 380" version="1.1" xmlns="http://www.w3.org/2000/svg" xmlns:xlink="http://www.w3.org/1999/xlink" xml:space="preserve" xmlns:serif="http://www.serif.com/" style="fill-rule:evenodd;clip-rule:evenodd;stroke-linecap:round;stroke-linejoin:round;stroke-miterlimit:1.5;">
    <g transform="matrix(2.08317,0,0,1.07627,-30.4691,-16.622)">
        <rect x="14.626" y="15.444" width="50.404" height="353.07" style="fill:rgb(242,242,242);"/>
    </g>
    <g transform="matrix(1.02321,0,0,0.465316,0,139.996)">
        <rect x="0" y="164.093" width="102.618" height="118.719" style="fill:rgb(134,166,89);"/>
    </g>
    <g transform="matrix(1.02321,0,0,1.10732,-1.42109e-14,-154.865)">
        <rect x="0" y="164.093" width="102.618" height="118.719" style="fill:rgb(134,166,89);"/>
    </g>
    <g transform="matrix(1,0,0,1,-8.71532,33.8631)">
        <g id="AudioOutput-output" serif:id="AudioOutput#output" transform="matrix(0.175002,0,0,0.175002,65.9293,289.08)">
            <rect x="53.94" y="106.916" width="161.978" height="161.978" style="fill:rgb(77,77,77);"/>
        </g>
        <g transform="matrix(1,0,0,1,-5.00057,185.103)">
            <path d="M89.528,114.936C89.528,114.73 89.541,114.54 89.568,114.366C89.595,114.193 89.645,114.04 89.718,113.906C89.838,113.686 90.01,113.51 90.233,113.376C90.456,113.243 90.728,113.176 91.048,113.176C91.368,113.176 91.64,113.243 91.863,113.376C92.086,113.51 92.258,113.686 92.378,113.906C92.451,114.04 92.501,114.193 92.528,114.366C92.555,114.54 92.568,114.73 92.568,114.936L92.568,116.606C92.568,116.813 92.555,117.003 92.528,117.176C92.501,117.35 92.451,117.503 92.378,117.636C92.258,117.856 92.086,118.033 91.863,118.166C91.64,118.3 91.368,118.366 91.048,118.366C90.728,118.366 90.456,118.3 90.233,118.166C90.01,118.033 89.838,117.856 89.718,117.636C89.645,117.503 89.595,117.35 89.568,117.176C89.541,117.003 89.528,116.813 89.528,116.606L89.528,114.936ZM90.548,116.766C90.548,116.96 90.593,117.105 90.683,117.201C90.773,117.298 90.895,117.346 91.048,117.346C91.201,117.346 91.323,117.298 91.413,117.201C91.503,117.105 91.548,116.96 91.548,116.766L91.548,114.776C91.548,114.583 91.503,114.438 91.413,114.341C91.323,114.245 91.201,114.196 91.048,114.196C90.895,114.196 90.773,114.245 90.683,114.341C90.593,114.438 90.548,114.583 90.548,114.776L90.548,116.766Z" style="fill-rule:nonzero;"/>
            <path d="M96.368,113.236L96.368,118.306L95.348,118.306L95.348,117.816L95.328,117.816C95.221,117.976 95.093,118.108 94.943,118.211C94.793,118.315 94.601,118.366 94.368,118.366C94.241,118.366 94.115,118.345 93.988,118.301C93.861,118.258 93.748,118.186 93.648,118.086C93.548,117.986 93.468,117.858 93.408,117.701C93.348,117.545 93.318,117.353 93.318,117.126L93.318,113.236L94.338,113.236L94.338,116.746C94.338,116.933 94.381,117.08 94.468,117.186C94.555,117.293 94.678,117.346 94.838,117.346C95.031,117.346 95.165,117.286 95.238,117.166C95.311,117.046 95.348,116.873 95.348,116.646L95.348,113.236L96.368,113.236Z" style="fill-rule:nonzero;"/>
            <path d="M97.208,113.236L97.208,111.696L98.228,111.696L98.228,113.236L98.858,113.236L98.858,114.036L98.228,114.036L98.228,116.846C98.228,116.966 98.24,117.06 98.263,117.126C98.286,117.193 98.325,117.243 98.378,117.276C98.431,117.31 98.496,117.33 98.573,117.336C98.65,117.343 98.745,117.346 98.858,117.346L98.858,118.306L98.438,118.306C98.205,118.306 98.01,118.27 97.853,118.196C97.696,118.123 97.571,118.03 97.478,117.916C97.385,117.803 97.316,117.675 97.273,117.531C97.23,117.388 97.208,117.25 97.208,117.116L97.208,114.036L96.698,114.036L96.698,113.236L97.208,113.236Z" style="fill-rule:nonzero;"/>
        </g>
        <g transform="matrix(1,0,0,1,-5.00057,185.103)">
            <text x="89.198px" y="118.306px" style="font-family:'DINCondensed-Bold', 'DIN Condensed';font-weight:700;font-stretch:condensed;font-size:10px;">out</text>
        </g>
        <g id="AudioInput-input" serif:id="AudioInput#input" transform="matrix(0.175002,0,0,0.175002,9.27572,289.08)">
            <rect x="53.94" y="106.916" width="161.978" height="161.978" style="fill:rgb(217,217,217);"/>
        </g>
        <g transform="matrix(1,0,0,1,-58.5052,185.163)">
            <path d="M89.618,118.306L89.618,113.236L90.638,113.236L90.638,118.306L89.618,118.306ZM89.618,112.206L89.618,111.186L90.638,111.186L90.638,112.206L89.618,112.206Z" style="fill-rule:nonzero;"/>
            <path d="M91.478,118.306L91.478,113.236L92.498,113.236L92.498,113.726L92.518,113.726C92.625,113.566 92.753,113.435 92.903,113.331C93.053,113.228 93.245,113.176 93.478,113.176C93.605,113.176 93.731,113.198 93.858,113.241C93.985,113.285 94.098,113.356 94.198,113.456C94.298,113.556 94.378,113.685 94.438,113.841C94.498,113.998 94.528,114.19 94.528,114.416L94.528,118.306L93.508,118.306L93.508,114.796C93.508,114.61 93.465,114.463 93.378,114.356C93.291,114.25 93.168,114.196 93.008,114.196C92.815,114.196 92.681,114.256 92.608,114.376C92.535,114.496 92.498,114.67 92.498,114.896L92.498,118.306L91.478,118.306Z" style="fill-rule:nonzero;"/>
        </g>
        <g transform="matrix(1,0,0,1,-58.5052,185.163)">
            <text x="89.198px" y="118.306px" style="font-family:'DINCondensed-Bold', 'DIN Condensed';font-weight:700;font-stretch:condensed;font-size:10px;">in</text>
        </g>
    </g>
    <g transform="matrix(1,0,0,1,-8.71532,29.8631)">
        <g id="Freqeuncy-input" serif:id="Freqeuncy#input" transform="matrix(0.175002,0,0,0.175002,9.27572,245.968)">
            <rect x="53.94" y="106.916" width="161.978" height="161.978" style="fill:rgb(204,204,204);"/>
        </g>
        <g id="Amount-input" serif:id="Amount#input" transform="matrix(0.175002,0,0,0.175002,37.6025,245.968)">
            <rect x="53.94" y="106.916" width="161.978" height="161.978" style="fill:rgb(204,204,204);"/>
        </g>
        <g id="Smooth-input" serif:id="Smooth#input" transform="matrix(0.175002,0,0,0.175002,65.9293,245.968)">
            <rect x="53.94" y="106.916" width="161.978" height="161.978" style="fill:rgb(204,204,204);"/>
        </g>
        <g transform="matrix(1,0,0,1,-0.485575,140.578)">
            <path d="M92.978,113.236L91.958,113.236L91.958,113.006C91.958,112.773 91.903,112.571 91.793,112.401C91.683,112.231 91.498,112.146 91.238,112.146C91.098,112.146 90.985,112.173 90.898,112.226C90.811,112.28 90.741,112.346 90.688,112.426C90.635,112.513 90.598,112.611 90.578,112.721C90.558,112.831 90.548,112.946 90.548,113.066C90.548,113.206 90.553,113.323 90.563,113.416C90.573,113.51 90.598,113.593 90.638,113.666C90.678,113.74 90.736,113.803 90.813,113.856C90.89,113.91 90.995,113.963 91.128,114.016L91.908,114.326C92.135,114.413 92.318,114.515 92.458,114.631C92.598,114.748 92.708,114.883 92.788,115.036C92.861,115.196 92.911,115.378 92.938,115.581C92.965,115.785 92.978,116.016 92.978,116.276C92.978,116.576 92.948,116.855 92.888,117.111C92.828,117.368 92.731,117.586 92.598,117.766C92.458,117.953 92.275,118.1 92.048,118.206C91.821,118.313 91.545,118.366 91.218,118.366C90.971,118.366 90.741,118.323 90.528,118.236C90.315,118.15 90.131,118.03 89.978,117.876C89.825,117.723 89.703,117.545 89.613,117.341C89.523,117.138 89.478,116.916 89.478,116.676L89.478,116.296L90.498,116.296L90.498,116.616C90.498,116.803 90.553,116.971 90.663,117.121C90.773,117.271 90.958,117.346 91.218,117.346C91.391,117.346 91.526,117.321 91.623,117.271C91.72,117.221 91.795,117.15 91.848,117.056C91.901,116.963 91.933,116.851 91.943,116.721C91.953,116.591 91.958,116.446 91.958,116.286C91.958,116.1 91.951,115.946 91.938,115.826C91.925,115.706 91.898,115.61 91.858,115.536C91.811,115.463 91.75,115.403 91.673,115.356C91.596,115.31 91.495,115.26 91.368,115.206L90.638,114.906C90.198,114.726 89.903,114.488 89.753,114.191C89.603,113.895 89.528,113.523 89.528,113.076C89.528,112.81 89.565,112.556 89.638,112.316C89.711,112.076 89.821,111.87 89.968,111.696C90.108,111.523 90.286,111.385 90.503,111.281C90.72,111.178 90.978,111.126 91.278,111.126C91.531,111.126 91.763,111.173 91.973,111.266C92.183,111.36 92.365,111.483 92.518,111.636C92.825,111.956 92.978,112.323 92.978,112.736L92.978,113.236Z" style="fill-rule:nonzero;"/>
        </g>
        <g transform="matrix(1,0,0,1,-0.485575,140.578)">
            <text x="89.198px" y="118.306px" style="font-family:'DINCondensed-Bold', 'DIN Condensed';font-weight:700;font-stretch:condensed;font-size:10px;">S</text>
        </g>
        <g transform="matrix(1,0,0,1,-29.9825,140.578)">
            <path d="M91.738,115.816L91.238,113.236L91.218,113.236L90.718,115.816L91.738,115.816ZM89.218,118.306L90.808,111.186L91.658,111.186L93.248,118.306L92.228,118.306L91.928,116.776L90.538,116.776L90.238,118.306L89.218,118.306Z" style="fill-rule:nonzero;"/>
        </g>
        <g transform="matrix(1,0,0,1,-29.9825,140.578)">
            <text x="89.198px" y="118.306px" style="font-family:'DINCondensed-Bold', 'DIN Condensed';font-weight:700;font-stretch:condensed;font-size:10px;">A</text>
        </g>
        <g transform="matrix(1,0,0,1,-63.0802,140.578)">
            <path d="M89.678,118.306L89.678,111.186L92.718,111.186L92.718,112.146L90.698,112.146L90.698,114.306L92.458,114.306L92.458,115.266L90.698,115.266L90.698,118.306L89.678,118.306Z" style="fill-rule:nonzero;"/>
        </g>
        <g transform="matrix(1,0,0,1,-63.0802,140.578)">
            <text x="89.198px" y="118.306px" style="font-family:'DINCondensed-Bold', 'DIN Condensed';font-weight:700;font-stretch:condensed;font-size:10px;">F</text>
        </g>
    </g>
    <g id="Smooth" transform="matrix(1,0,0,1,-18.2294,184.355)">
        <g id="Value-knob-2" serif:id="Value#knob$2" transform="matrix(0.175002,0,0,0.175002,35.8479,26.9272)">
            <rect x="53.94" y="106.916" width="161.978" height="161.978" style="fill:rgb(204,204,204);"/>
        </g>
        <g transform="matrix(1,0,0,1,4.02142,-52.5366)">
            <path d="M92.47,110.194L90.838,110.194L90.838,109.826C90.838,109.453 90.75,109.13 90.574,108.858C90.398,108.586 90.102,108.45 89.686,108.45C89.462,108.45 89.281,108.493 89.142,108.578C89.003,108.664 88.891,108.77 88.806,108.898C88.721,109.037 88.662,109.194 88.63,109.37C88.598,109.546 88.582,109.73 88.582,109.922C88.582,110.146 88.59,110.333 88.606,110.482C88.622,110.632 88.662,110.765 88.726,110.882C88.79,111 88.883,111.101 89.006,111.186C89.129,111.272 89.297,111.357 89.51,111.442L90.758,111.938C91.121,112.077 91.414,112.24 91.638,112.426C91.862,112.613 92.038,112.829 92.166,113.074C92.283,113.33 92.363,113.621 92.406,113.946C92.449,114.272 92.47,114.642 92.47,115.058C92.47,115.538 92.422,115.984 92.326,116.394C92.23,116.805 92.075,117.154 91.862,117.442C91.638,117.741 91.345,117.976 90.982,118.146C90.619,118.317 90.177,118.402 89.654,118.402C89.259,118.402 88.891,118.333 88.55,118.194C88.209,118.056 87.915,117.864 87.67,117.618C87.425,117.373 87.23,117.088 87.086,116.762C86.942,116.437 86.87,116.082 86.87,115.698L86.87,115.09L88.502,115.09L88.502,115.602C88.502,115.901 88.59,116.17 88.766,116.41C88.942,116.65 89.238,116.77 89.654,116.77C89.931,116.77 90.147,116.73 90.302,116.65C90.457,116.57 90.577,116.456 90.662,116.306C90.747,116.157 90.798,115.978 90.814,115.77C90.83,115.562 90.838,115.33 90.838,115.074C90.838,114.776 90.827,114.53 90.806,114.338C90.785,114.146 90.742,113.992 90.678,113.874C90.603,113.757 90.505,113.661 90.382,113.586C90.259,113.512 90.097,113.432 89.894,113.346L88.726,112.866C88.022,112.578 87.55,112.197 87.31,111.722C87.07,111.248 86.95,110.653 86.95,109.938C86.95,109.512 87.009,109.106 87.126,108.722C87.243,108.338 87.419,108.008 87.654,107.73C87.878,107.453 88.163,107.232 88.51,107.066C88.857,106.901 89.27,106.818 89.75,106.818C90.155,106.818 90.526,106.893 90.862,107.042C91.198,107.192 91.489,107.389 91.734,107.634C92.225,108.146 92.47,108.733 92.47,109.394L92.47,110.194Z" style="fill-rule:nonzero;"/>
        </g>
        <g transform="matrix(1,0,0,1,4.02142,-52.5366)">
            <text x="86.422px" y="118.306px" style="font-family:'DINCondensed-Bold', 'DIN Condensed';font-weight:700;font-stretch:condensed;font-size:16px;">S</text>
        </g>
    </g>
    <g id="Amount" transform="matrix(1,0,0,1,4.05878,127.817)">
        <g id="Value-knob-21" serif:id="Value#knob$2" transform="matrix(0.175002,0,0,0.175002,35.8479,27.1936)">
            <rect x="53.94" y="106.916" width="161.978" height="161.978" style="fill:rgb(204,204,204);"/>
        </g>
        <g transform="matrix(1,0,0,1,-63.5253,-52.8293)">
            <path d="M90.47,114.322L89.67,110.194L89.638,110.194L88.838,114.322L90.47,114.322ZM86.438,118.306L88.982,106.914L90.342,106.914L92.886,118.306L91.254,118.306L90.774,115.858L88.55,115.858L88.07,118.306L86.438,118.306Z" style="fill-rule:nonzero;"/>
        </g>
        <g transform="matrix(1,0,0,1,-63.5253,-52.8293)">
            <text x="86.406px" y="118.306px" style="font-family:'DINCondensed-Bold', 'DIN Condensed';font-weight:700;font-stretch:condensed;font-size:16px;">A</text>
        </g>
    </g>
    <g id="Frequency">
        <g id="Value-knob-3" serif:id="Value#knob$3" transform="matrix(0.175002,0,0,0.175002,28.8852,84.7318)">
            <rect x="53.94" y="106.916" width="161.978" height="161.978" style="fill:rgb(204,204,204);"/>
        </g>
        <g transform="matrix(1,0,0,1,0,-1)">
            <g id="Quantize-ledbutton" serif:id="Quantize#ledbutton" transform="matrix(0.174892,0,0,0.175002,50.2376,11.4307)">
                <rect x="53.94" y="106.916" width="161.978" height="161.978" style="fill:rgb(134,166,89);"/>
            </g>
            <g transform="matrix(1,0,0,1,-48.7078,-69.2959)">
                <path d="M71.158,118.306L71.158,106.914L76.022,106.914L76.022,108.45L72.79,108.45L72.79,111.906L75.606,111.906L75.606,113.442L72.79,113.442L72.79,118.306L71.158,118.306Z" style="fill-rule:nonzero;"/>
                <path d="M79.366,118.402L81.478,106.818L82.758,106.818L80.646,118.402L79.366,118.402Z" style="fill-rule:nonzero;"/>
                <path d="M86.518,118.306L86.518,106.914L88.086,106.914L90.55,113.778L90.582,113.778L90.582,106.914L92.214,106.914L92.214,118.306L90.678,118.306L88.182,111.458L88.15,111.458L88.15,118.306L86.518,118.306Z" style="fill-rule:nonzero;"/>
            </g>
            <g transform="matrix(1,0,0,1,-48.7078,-69.2959)">
                <text x="70.39px" y="118.306px" style="font-family:'DINCondensed-Bold', 'DIN Condensed';font-weight:700;font-stretch:condensed;font-size:16px;">F / N</text>
            </g>
        </g>
        <g id="Display-display-5" serif:id="Display#display$5" transform="matrix(1.70848,0,0,1.02078,-137.371,-13.9869)">
            <rect x="87.136" y="70.02" width="47.996" height="23.511" style="fill:rgb(19,19,19);"/>
        </g>
    </g>
    <g transform="matrix(1,0,0,1,26.197,0.576)">
        <g transform="matrix(0.0161581,0,0,0.0183285,-9.47612,4.3465)">
            <g transform="matrix(1,0,0,1,-143.343,98.6554)">
                <ellipse cx="360.896" cy="293.762" rx="136.961" ry="230.443" style="fill:rgb(235,235,235);stroke:black;stroke-width:70.65px;"/>
            </g>
            <g transform="matrix(1,0,0,1,445.551,98.6554)">
                <ellipse cx="360.896" cy="293.762" rx="136.961" ry="230.443" style="fill:rgb(235,235,235);stroke:black;stroke-width:70.65px;"/>
            </g>
            <g transform="matrix(1,0,0,1,-34.3236,-20.6488)">
                <ellipse cx="546.324" cy="643.509" rx="431.408" ry="296.899" style="fill:rgb(235,235,235);stroke:black;stroke-width:70.65px;"/>
            </g>
            <circle cx="406.664" cy="569.758" r="105.336" style="fill:rgb(235,235,235);stroke:black;stroke-width:70.65px;"/>
            <g transform="matrix(1,0,0,1,210.672,0)">
                <circle cx="406.664" cy="569.758" r="105.336" style="fill:rgb(235,235,235);stroke:black;stroke-width:70.65px;"/>
            </g>
            <g transform="matrix(1,0,0,1,-53.1856,50.0357)">
                <ellipse cx="565.186" cy="671.455" rx="210.672" ry="98.631" style="fill:rgb(235,235,235);stroke:black;stroke-width:70.65px;"/>
            </g>
            <g transform="matrix(51.2,0,0,45.1371,0.670978,88.9676)">
                <path d="M12.057,13.791C12.057,13.668 11.958,13.568 11.835,13.568L8.139,13.568C8.016,13.568 7.916,13.668 7.916,13.791L7.916,14.236C7.916,14.359 8.016,14.458 8.139,14.458L11.835,14.458C11.958,14.458 12.057,14.359 12.057,14.236L12.057,13.791Z"/>
            </g>
        </g>
        <g transform="matrix(1,0,0,1,47.6875,-4.53575)">
            <path d="M-31.728,24.124C-31.744,24.012 -31.774,23.894 -31.818,23.77C-31.862,23.646 -31.956,23.584 -32.1,23.584C-32.22,23.584 -32.382,23.59 -32.586,23.602C-32.79,23.614 -33.008,23.63 -33.24,23.65C-33.472,23.67 -33.704,23.686 -33.936,23.698C-34.168,23.71 -34.372,23.716 -34.548,23.716C-35.244,23.716 -35.86,23.616 -36.396,23.416C-36.932,23.216 -37.384,22.94 -37.752,22.588C-38.12,22.236 -38.4,21.814 -38.592,21.322C-38.784,20.83 -38.88,20.288 -38.88,19.696C-38.88,18.872 -38.748,18.162 -38.484,17.566C-38.22,16.97 -37.864,16.48 -37.416,16.096C-36.968,15.712 -36.452,15.43 -35.868,15.25C-35.284,15.07 -34.672,14.98 -34.032,14.98C-33.84,14.98 -33.632,14.986 -33.408,14.998C-33.184,15.01 -32.972,15.026 -32.772,15.046C-32.572,15.066 -32.396,15.086 -32.244,15.106C-32.092,15.126 -31.984,15.144 -31.92,15.16C-31.88,15.168 -31.84,15.1 -31.8,14.956C-31.76,14.812 -31.71,14.654 -31.65,14.482C-31.59,14.31 -31.52,14.15 -31.44,14.002C-31.36,13.854 -31.264,13.78 -31.152,13.78C-31.016,13.82 -30.92,13.864 -30.864,13.912C-30.808,13.96 -30.836,14.024 -30.948,14.104C-31.132,14.248 -31.286,14.442 -31.41,14.686C-31.534,14.93 -31.644,15.224 -31.74,15.568C-31.78,15.672 -31.822,15.82 -31.866,16.012C-31.91,16.204 -31.948,16.42 -31.98,16.66C-31.996,16.724 -32.046,16.754 -32.13,16.75C-32.214,16.746 -32.272,16.688 -32.304,16.576C-32.344,16.464 -32.42,16.338 -32.532,16.198C-32.644,16.058 -32.792,15.924 -32.976,15.796C-33.16,15.668 -33.38,15.562 -33.636,15.478C-33.892,15.394 -34.18,15.352 -34.5,15.352C-34.86,15.352 -35.188,15.446 -35.484,15.634C-35.78,15.822 -36.036,16.07 -36.252,16.378C-36.468,16.686 -36.64,17.038 -36.768,17.434C-36.896,17.83 -36.972,18.24 -36.996,18.664C-36.932,18.68 -36.798,18.696 -36.594,18.712C-36.39,18.728 -36.168,18.74 -35.928,18.748C-35.688,18.756 -35.456,18.762 -35.232,18.766C-35.008,18.77 -34.84,18.768 -34.728,18.76C-34.472,18.76 -34.22,18.748 -33.972,18.724C-33.724,18.7 -33.496,18.666 -33.288,18.622C-33.08,18.578 -32.9,18.528 -32.748,18.472C-32.596,18.416 -32.488,18.356 -32.424,18.292C-32.392,18.244 -32.346,18.224 -32.286,18.232C-32.226,18.24 -32.184,18.26 -32.16,18.292C-32.176,18.364 -32.204,18.458 -32.244,18.574C-32.284,18.69 -32.328,18.824 -32.376,18.976C-32.424,19.128 -32.464,19.296 -32.496,19.48C-32.528,19.664 -32.544,19.856 -32.544,20.056C-32.56,20.136 -32.606,20.16 -32.682,20.128C-32.758,20.096 -32.804,20.052 -32.82,19.996C-32.852,19.868 -32.93,19.768 -33.054,19.696C-33.178,19.624 -33.338,19.57 -33.534,19.534C-33.73,19.498 -33.952,19.476 -34.2,19.468C-34.448,19.46 -34.716,19.456 -35.004,19.456C-35.548,19.456 -35.986,19.46 -36.318,19.468C-36.65,19.476 -36.884,19.484 -37.02,19.492C-37.02,19.732 -37.002,19.992 -36.966,20.272C-36.93,20.552 -36.868,20.832 -36.78,21.112C-36.692,21.392 -36.576,21.662 -36.432,21.922C-36.288,22.182 -36.108,22.414 -35.892,22.618C-35.676,22.822 -35.418,22.984 -35.118,23.104C-34.818,23.224 -34.472,23.284 -34.08,23.284C-33.704,23.284 -33.372,23.238 -33.084,23.146C-32.796,23.054 -32.552,22.942 -32.352,22.81C-32.152,22.678 -31.99,22.54 -31.866,22.396C-31.742,22.252 -31.656,22.124 -31.608,22.012C-31.584,21.988 -31.568,21.976 -31.56,21.976C-31.528,21.976 -31.49,21.988 -31.446,22.012C-31.402,22.036 -31.38,22.068 -31.38,22.108C-31.404,22.196 -31.428,22.292 -31.452,22.396C-31.492,22.596 -31.512,22.824 -31.512,23.08C-31.512,23.288 -31.504,23.492 -31.488,23.692C-31.472,23.892 -31.444,24.06 -31.404,24.196C-31.484,24.228 -31.554,24.242 -31.614,24.238C-31.674,24.234 -31.712,24.196 -31.728,24.124Z" style="fill-rule:nonzero;"/>
            <path d="M-23.952,26.176C-24.104,26.2 -24.296,26.254 -24.528,26.338C-24.76,26.422 -24.998,26.512 -25.242,26.608C-25.486,26.704 -25.718,26.798 -25.938,26.89C-26.158,26.982 -26.332,27.056 -26.46,27.112C-26.524,27.104 -26.584,27.078 -26.64,27.034C-26.696,26.99 -26.724,26.924 -26.724,26.836C-26.684,26.828 -26.638,26.8 -26.586,26.752C-26.534,26.704 -26.508,26.66 -26.508,26.62C-26.484,26.476 -26.458,26.244 -26.43,25.924C-26.402,25.604 -26.378,25.25 -26.358,24.862C-26.338,24.474 -26.32,24.082 -26.304,23.686C-26.288,23.29 -26.28,22.944 -26.28,22.648C-26.408,22.76 -26.56,22.876 -26.736,22.996C-26.912,23.116 -27.104,23.23 -27.312,23.338C-27.52,23.446 -27.74,23.534 -27.972,23.602C-28.204,23.67 -28.436,23.704 -28.668,23.704C-28.94,23.704 -29.208,23.644 -29.472,23.524C-29.736,23.404 -29.972,23.232 -30.18,23.008C-30.388,22.784 -30.556,22.512 -30.684,22.192C-30.812,21.872 -30.876,21.508 -30.876,21.1C-30.876,20.668 -30.808,20.282 -30.672,19.942C-30.536,19.602 -30.358,19.304 -30.138,19.048C-29.918,18.792 -29.672,18.572 -29.4,18.388C-29.128,18.204 -28.854,18.054 -28.578,17.938C-28.302,17.822 -28.038,17.738 -27.786,17.686C-27.534,17.634 -27.32,17.608 -27.144,17.608C-26.992,17.608 -26.832,17.62 -26.664,17.644C-26.496,17.668 -26.336,17.698 -26.184,17.734C-26.032,17.77 -25.892,17.804 -25.764,17.836C-25.636,17.868 -25.532,17.896 -25.452,17.92C-25.3,17.888 -25.16,17.84 -25.032,17.776C-24.904,17.712 -24.788,17.68 -24.684,17.68C-24.652,17.68 -24.624,17.7 -24.6,17.74C-24.576,17.78 -24.576,17.816 -24.6,17.848C-24.624,17.88 -24.662,17.946 -24.714,18.046C-24.766,18.146 -24.8,18.264 -24.816,18.4C-24.88,18.736 -24.932,19.142 -24.972,19.618C-25.012,20.094 -25.044,20.584 -25.068,21.088C-25.092,21.592 -25.11,22.08 -25.122,22.552C-25.134,23.024 -25.14,23.424 -25.14,23.752C-25.14,24.376 -25.128,24.846 -25.104,25.162C-25.08,25.478 -25.044,25.702 -24.996,25.834C-24.948,25.966 -24.89,26.034 -24.822,26.038C-24.754,26.042 -24.676,26.044 -24.588,26.044C-24.484,26.044 -24.378,26.03 -24.27,26.002C-24.162,25.974 -24.072,25.952 -24,25.936C-23.952,25.936 -23.928,25.988 -23.928,26.092C-23.928,26.132 -23.936,26.16 -23.952,26.176ZM-26.28,21.952C-26.28,21.808 -26.278,21.62 -26.274,21.388C-26.27,21.156 -26.266,20.916 -26.262,20.668C-26.258,20.42 -26.254,20.182 -26.25,19.954C-26.246,19.726 -26.244,19.544 -26.244,19.408C-26.244,19.288 -26.284,19.158 -26.364,19.018C-26.444,18.878 -26.56,18.746 -26.712,18.622C-26.864,18.498 -27.05,18.396 -27.27,18.316C-27.49,18.236 -27.74,18.196 -28.02,18.196C-28.204,18.196 -28.384,18.236 -28.56,18.316C-28.736,18.396 -28.894,18.52 -29.034,18.688C-29.174,18.856 -29.288,19.068 -29.376,19.324C-29.464,19.58 -29.508,19.884 -29.508,20.236C-29.508,20.636 -29.456,20.992 -29.352,21.304C-29.248,21.616 -29.104,21.878 -28.92,22.09C-28.736,22.302 -28.522,22.464 -28.278,22.576C-28.034,22.688 -27.768,22.744 -27.48,22.744C-27.168,22.744 -26.9,22.67 -26.676,22.522C-26.452,22.374 -26.32,22.184 -26.28,21.952Z" style="fill-rule:nonzero;"/>
            <path d="M-23.844,18.64C-23.908,18.624 -23.938,18.592 -23.934,18.544C-23.93,18.496 -23.9,18.468 -23.844,18.46C-23.82,18.452 -23.744,18.424 -23.616,18.376C-23.488,18.328 -23.334,18.272 -23.154,18.208C-22.974,18.144 -22.786,18.076 -22.59,18.004C-22.394,17.932 -22.22,17.872 -22.068,17.824C-21.972,17.792 -21.906,17.77 -21.87,17.758C-21.834,17.746 -21.804,17.74 -21.78,17.74C-21.756,17.74 -21.728,17.75 -21.696,17.77C-21.664,17.79 -21.656,17.82 -21.672,17.86C-21.696,17.924 -21.722,18.076 -21.75,18.316C-21.778,18.556 -21.804,18.822 -21.828,19.114C-21.852,19.406 -21.874,19.696 -21.894,19.984C-21.914,20.272 -21.924,20.5 -21.924,20.668C-21.924,21.308 -21.788,21.802 -21.516,22.15C-21.244,22.498 -20.82,22.672 -20.244,22.672C-19.948,22.672 -19.702,22.612 -19.506,22.492C-19.31,22.372 -19.16,22.232 -19.056,22.072C-18.984,21.968 -18.936,21.74 -18.912,21.388C-18.912,21.324 -18.91,21.24 -18.906,21.136C-18.902,21.032 -18.898,20.922 -18.894,20.806C-18.89,20.69 -18.886,20.578 -18.882,20.47C-18.878,20.362 -18.876,20.272 -18.876,20.2C-18.868,19.832 -18.878,19.49 -18.906,19.174C-18.934,18.858 -18.976,18.624 -19.032,18.472C-19.056,18.376 -19.104,18.328 -19.176,18.328C-19.224,18.328 -19.27,18.33 -19.314,18.334C-19.358,18.338 -19.384,18.304 -19.392,18.232C-19.392,18.208 -19.368,18.182 -19.32,18.154C-19.272,18.126 -19.18,18.084 -19.044,18.028C-18.916,17.98 -18.774,17.932 -18.618,17.884C-18.462,17.836 -18.308,17.796 -18.156,17.764C-18.004,17.732 -17.868,17.71 -17.748,17.698C-17.628,17.686 -17.54,17.692 -17.484,17.716C-17.484,17.724 -17.478,17.734 -17.466,17.746C-17.454,17.758 -17.444,17.784 -17.436,17.824C-17.42,17.872 -17.43,18.022 -17.466,18.274C-17.502,18.526 -17.54,18.936 -17.58,19.504C-17.612,19.896 -17.64,20.276 -17.664,20.644C-17.688,21.012 -17.7,21.292 -17.7,21.484C-17.7,21.86 -17.63,22.158 -17.49,22.378C-17.35,22.598 -17.176,22.708 -16.968,22.708C-16.832,22.708 -16.702,22.68 -16.578,22.624C-16.454,22.568 -16.364,22.52 -16.308,22.48C-16.244,22.48 -16.21,22.508 -16.206,22.564C-16.202,22.62 -16.216,22.656 -16.248,22.672C-16.368,22.752 -16.534,22.852 -16.746,22.972C-16.958,23.092 -17.178,23.206 -17.406,23.314C-17.634,23.422 -17.852,23.514 -18.06,23.59C-18.268,23.666 -18.436,23.704 -18.564,23.704C-18.628,23.704 -18.686,23.662 -18.738,23.578C-18.79,23.494 -18.832,23.392 -18.864,23.272C-18.896,23.152 -18.92,23.028 -18.936,22.9C-18.952,22.772 -18.96,22.66 -18.96,22.564C-19.128,22.684 -19.32,22.81 -19.536,22.942C-19.752,23.074 -19.976,23.198 -20.208,23.314C-20.44,23.43 -20.67,23.524 -20.898,23.596C-21.126,23.668 -21.336,23.704 -21.528,23.704C-22.016,23.704 -22.416,23.574 -22.728,23.314C-23.04,23.054 -23.196,22.716 -23.196,22.3C-23.196,22.212 -23.188,22.08 -23.172,21.904C-23.156,21.728 -23.136,21.528 -23.112,21.304C-23.088,21.08 -23.068,20.84 -23.052,20.584C-23.036,20.328 -23.028,20.08 -23.028,19.84C-23.028,19.472 -23.086,19.19 -23.202,18.994C-23.318,18.798 -23.468,18.688 -23.652,18.664L-23.844,18.64Z" style="fill-rule:nonzero;"/>
            <path d="M-12.348,21.724C-12.372,21.588 -12.396,21.44 -12.42,21.28C-12.444,21.12 -12.468,20.968 -12.492,20.824C-12.516,20.68 -12.538,20.556 -12.558,20.452C-12.578,20.348 -12.592,20.28 -12.6,20.248C-12.728,20.296 -12.872,20.352 -13.032,20.416C-13.192,20.48 -13.352,20.55 -13.512,20.626C-13.672,20.702 -13.824,20.778 -13.968,20.854C-14.112,20.93 -14.232,21 -14.328,21.064C-14.512,21.184 -14.652,21.304 -14.748,21.424C-14.844,21.544 -14.892,21.688 -14.892,21.856C-14.892,22.088 -14.824,22.292 -14.688,22.468C-14.552,22.644 -14.34,22.732 -14.052,22.732C-13.9,22.732 -13.742,22.704 -13.578,22.648C-13.414,22.592 -13.262,22.528 -13.122,22.456C-12.982,22.384 -12.86,22.312 -12.756,22.24C-12.652,22.168 -12.58,22.112 -12.54,22.072C-12.476,22.008 -12.426,21.954 -12.39,21.91C-12.354,21.866 -12.34,21.804 -12.348,21.724ZM-12.696,19.864C-12.744,19.616 -12.8,19.394 -12.864,19.198C-12.928,19.002 -13.008,18.838 -13.104,18.706C-13.2,18.574 -13.316,18.474 -13.452,18.406C-13.588,18.338 -13.756,18.304 -13.956,18.304C-14.132,18.304 -14.294,18.336 -14.442,18.4C-14.59,18.464 -14.718,18.54 -14.826,18.628C-14.934,18.716 -15.018,18.804 -15.078,18.892C-15.138,18.98 -15.172,19.048 -15.18,19.096C-15.188,19.16 -15.224,19.192 -15.288,19.192C-15.4,19.192 -15.504,19.152 -15.6,19.072C-15.696,18.992 -15.744,18.896 -15.744,18.784C-15.744,18.72 -15.736,18.672 -15.72,18.64C-15.536,18.536 -15.312,18.424 -15.048,18.304C-14.784,18.184 -14.51,18.072 -14.226,17.968C-13.942,17.864 -13.66,17.778 -13.38,17.71C-13.1,17.642 -12.848,17.608 -12.624,17.608C-12.288,17.608 -12.03,17.656 -11.85,17.752C-11.67,17.848 -11.536,17.984 -11.448,18.16C-11.36,18.336 -11.306,18.542 -11.286,18.778C-11.266,19.014 -11.248,19.268 -11.232,19.54C-11.208,19.948 -11.176,20.342 -11.136,20.722C-11.096,21.102 -11.036,21.438 -10.956,21.73C-10.876,22.022 -10.774,22.258 -10.65,22.438C-10.526,22.618 -10.372,22.708 -10.188,22.708C-10.1,22.708 -10.004,22.692 -9.9,22.66C-9.796,22.628 -9.696,22.59 -9.6,22.546C-9.504,22.502 -9.418,22.458 -9.342,22.414C-9.266,22.37 -9.216,22.34 -9.192,22.324C-9.12,22.324 -9.076,22.36 -9.06,22.432C-9.06,22.472 -9.068,22.508 -9.084,22.54C-9.1,22.556 -9.16,22.596 -9.264,22.66C-9.368,22.724 -9.496,22.8 -9.648,22.888C-9.8,22.976 -9.968,23.07 -10.152,23.17C-10.336,23.27 -10.518,23.364 -10.698,23.452C-10.878,23.54 -11.044,23.612 -11.196,23.668C-11.348,23.724 -11.468,23.752 -11.556,23.752C-11.66,23.752 -11.75,23.71 -11.826,23.626C-11.902,23.542 -11.968,23.43 -12.024,23.29C-12.08,23.15 -12.128,22.988 -12.168,22.804C-12.208,22.62 -12.244,22.428 -12.276,22.228C-12.42,22.348 -12.604,22.49 -12.828,22.654C-13.052,22.818 -13.296,22.972 -13.56,23.116C-13.824,23.26 -14.094,23.382 -14.37,23.482C-14.646,23.582 -14.912,23.632 -15.168,23.632C-15.384,23.632 -15.572,23.598 -15.732,23.53C-15.892,23.462 -16.026,23.372 -16.134,23.26C-16.242,23.148 -16.322,23.018 -16.374,22.87C-16.426,22.722 -16.452,22.568 -16.452,22.408C-16.452,22.152 -16.374,21.942 -16.218,21.778C-16.062,21.614 -15.82,21.444 -15.492,21.268C-15.34,21.188 -15.128,21.082 -14.856,20.95C-14.584,20.818 -14.306,20.684 -14.022,20.548C-13.738,20.412 -13.474,20.282 -13.23,20.158C-12.986,20.034 -12.808,19.936 -12.696,19.864Z" style="fill-rule:nonzero;"/>
            <path d="M-5.64,22.372C-5.592,22.404 -5.568,22.444 -5.568,22.492C-5.568,22.556 -5.66,22.64 -5.844,22.744C-6.036,22.856 -6.29,22.988 -6.606,23.14C-6.922,23.292 -7.236,23.424 -7.548,23.536C-7.7,23.592 -7.836,23.64 -7.956,23.68C-8.076,23.72 -8.184,23.74 -8.28,23.74C-8.392,23.74 -8.53,23.714 -8.694,23.662C-8.858,23.61 -9,23.548 -9.12,23.476C-9.216,23.412 -9.292,23.362 -9.348,23.326C-9.404,23.29 -9.432,23.252 -9.432,23.212C-9.432,23.18 -9.422,23.15 -9.402,23.122C-9.382,23.094 -9.364,23.06 -9.348,23.02C-9.34,22.996 -9.332,22.964 -9.324,22.924C-9.316,22.884 -9.312,22.844 -9.312,22.804C-9.288,22.604 -9.262,22.314 -9.234,21.934C-9.206,21.554 -9.184,21.134 -9.168,20.674C-9.152,20.214 -9.138,19.738 -9.126,19.246C-9.114,18.754 -9.108,18.296 -9.108,17.872C-9.108,17.352 -9.11,16.932 -9.114,16.612C-9.118,16.292 -9.128,16.036 -9.144,15.844C-9.168,15.58 -9.2,15.406 -9.24,15.322C-9.28,15.238 -9.324,15.176 -9.372,15.136C-9.428,15.088 -9.482,15.058 -9.534,15.046C-9.586,15.034 -9.634,15.026 -9.678,15.022C-9.722,15.018 -9.758,15.016 -9.786,15.016C-9.814,15.016 -9.828,15.008 -9.828,14.992C-9.828,14.728 -9.716,14.596 -9.492,14.596C-9.324,14.596 -9.126,14.598 -8.898,14.602C-8.67,14.606 -8.48,14.608 -8.328,14.608C-8.232,14.608 -8.13,14.602 -8.022,14.59C-7.914,14.578 -7.808,14.566 -7.704,14.554C-7.6,14.542 -7.504,14.528 -7.416,14.512C-7.328,14.496 -7.264,14.48 -7.224,14.464C-7.192,14.456 -7.166,14.468 -7.146,14.5C-7.126,14.532 -7.114,14.572 -7.11,14.62C-7.106,14.668 -7.114,14.712 -7.134,14.752C-7.154,14.792 -7.18,14.816 -7.212,14.824C-7.26,14.832 -7.302,14.836 -7.338,14.836C-7.374,14.836 -7.436,14.852 -7.524,14.884C-7.564,14.9 -7.6,14.95 -7.632,15.034C-7.664,15.118 -7.692,15.25 -7.716,15.43C-7.74,15.61 -7.764,15.846 -7.788,16.138C-7.812,16.43 -7.836,16.796 -7.86,17.236C-7.884,17.588 -7.902,17.946 -7.914,18.31C-7.926,18.674 -7.938,19.028 -7.95,19.372C-7.962,19.716 -7.97,20.036 -7.974,20.332C-7.978,20.628 -7.98,20.88 -7.98,21.088C-7.98,21.32 -7.978,21.554 -7.974,21.79C-7.97,22.026 -7.948,22.212 -7.908,22.348C-7.868,22.476 -7.764,22.596 -7.596,22.708C-7.428,22.82 -7.252,22.876 -7.068,22.876C-6.924,22.876 -6.776,22.856 -6.624,22.816C-6.472,22.776 -6.332,22.728 -6.204,22.672C-6.076,22.616 -5.962,22.56 -5.862,22.504C-5.762,22.448 -5.688,22.404 -5.64,22.372Z" style="fill-rule:nonzero;"/>
            <path d="M-4.512,21.508C-4.512,21.676 -4.508,21.838 -4.5,21.994C-4.492,22.15 -4.464,22.284 -4.416,22.396C-4.368,22.508 -4.296,22.598 -4.2,22.666C-4.104,22.734 -3.968,22.768 -3.792,22.768C-3.704,22.768 -3.604,22.758 -3.492,22.738C-3.38,22.718 -3.274,22.692 -3.174,22.66C-3.074,22.628 -2.986,22.596 -2.91,22.564C-2.834,22.532 -2.788,22.508 -2.772,22.492C-2.748,22.468 -2.732,22.468 -2.724,22.492C-2.716,22.516 -2.714,22.546 -2.718,22.582C-2.722,22.618 -2.732,22.654 -2.748,22.69C-2.764,22.726 -2.784,22.752 -2.808,22.768C-2.888,22.808 -3.028,22.88 -3.228,22.984C-3.428,23.088 -3.664,23.196 -3.936,23.308C-4.192,23.42 -4.442,23.514 -4.686,23.59C-4.93,23.666 -5.132,23.704 -5.292,23.704C-5.476,23.704 -5.62,23.648 -5.724,23.536C-5.828,23.424 -5.88,23.284 -5.88,23.116C-5.88,23.06 -5.878,23.012 -5.874,22.972C-5.87,22.932 -5.864,22.88 -5.856,22.816C-5.848,22.736 -5.834,22.59 -5.814,22.378C-5.794,22.166 -5.774,21.928 -5.754,21.664C-5.734,21.4 -5.716,21.134 -5.7,20.866C-5.684,20.598 -5.676,20.368 -5.676,20.176L-5.676,19.756C-5.676,19.548 -5.688,19.364 -5.712,19.204C-5.736,19.044 -5.776,18.92 -5.832,18.832C-5.872,18.776 -5.922,18.73 -5.982,18.694C-6.042,18.658 -6.116,18.64 -6.204,18.64C-6.252,18.64 -6.3,18.65 -6.348,18.67C-6.396,18.69 -6.432,18.7 -6.456,18.7C-6.472,18.7 -6.498,18.676 -6.534,18.628C-6.57,18.58 -6.568,18.544 -6.528,18.52C-6.472,18.48 -6.356,18.416 -6.18,18.328C-6.004,18.24 -5.812,18.144 -5.604,18.04C-5.38,17.928 -5.164,17.83 -4.956,17.746C-4.748,17.662 -4.6,17.62 -4.512,17.62C-4.424,17.62 -4.364,17.646 -4.332,17.698C-4.3,17.75 -4.284,17.808 -4.284,17.872L-4.284,17.92C-4.284,18 -4.296,18.128 -4.32,18.304C-4.344,18.48 -4.37,18.696 -4.398,18.952C-4.426,19.208 -4.452,19.504 -4.476,19.84C-4.5,20.176 -4.512,20.54 -4.512,20.932L-4.512,21.508ZM-4.992,15.268C-4.952,15.276 -4.886,15.32 -4.794,15.4C-4.702,15.48 -4.608,15.572 -4.512,15.676C-4.416,15.78 -4.332,15.88 -4.26,15.976C-4.188,16.072 -4.152,16.136 -4.152,16.168C-4.152,16.208 -4.2,16.268 -4.296,16.348C-4.392,16.428 -4.502,16.51 -4.626,16.594C-4.75,16.678 -4.87,16.752 -4.986,16.816C-5.102,16.88 -5.184,16.912 -5.232,16.912C-5.256,16.912 -5.314,16.874 -5.406,16.798C-5.498,16.722 -5.592,16.636 -5.688,16.54C-5.784,16.444 -5.87,16.35 -5.946,16.258C-6.022,16.166 -6.06,16.104 -6.06,16.072C-6.06,16.032 -6.008,15.97 -5.904,15.886C-5.8,15.802 -5.686,15.714 -5.562,15.622C-5.438,15.53 -5.318,15.45 -5.202,15.382C-5.086,15.314 -5.016,15.276 -4.992,15.268Z" style="fill-rule:nonzero;"/>
            <path d="M-3.828,23.44C-3.652,23.336 -3.476,23.192 -3.3,23.008C-3.124,22.824 -2.948,22.618 -2.772,22.39C-2.596,22.162 -2.418,21.92 -2.238,21.664C-2.058,21.408 -1.88,21.152 -1.704,20.896C-1.408,20.464 -1.13,20.052 -0.87,19.66C-0.61,19.268 -0.404,18.948 -0.252,18.7L-0.444,18.7C-0.74,18.7 -1.062,18.688 -1.41,18.664C-1.758,18.64 -2.072,18.628 -2.352,18.628C-2.608,18.628 -2.792,18.648 -2.904,18.688C-3.016,18.728 -3.116,18.792 -3.204,18.88C-3.228,18.88 -3.262,18.87 -3.306,18.85C-3.35,18.83 -3.372,18.8 -3.372,18.76C-3.372,18.736 -3.368,18.72 -3.36,18.712C-3.264,18.648 -3.136,18.54 -2.976,18.388C-2.816,18.236 -2.656,18.084 -2.496,17.932C-2.336,17.78 -2.196,17.646 -2.076,17.53C-1.956,17.414 -1.884,17.356 -1.86,17.356C-1.804,17.356 -1.764,17.366 -1.74,17.386C-1.716,17.406 -1.696,17.428 -1.68,17.452C-1.664,17.476 -1.644,17.502 -1.62,17.53C-1.596,17.558 -1.556,17.584 -1.5,17.608C-1.404,17.648 -1.272,17.688 -1.104,17.728C-0.936,17.768 -0.748,17.802 -0.54,17.83C-0.332,17.858 -0.108,17.882 0.132,17.902C0.372,17.922 0.612,17.932 0.852,17.932C1.004,17.932 1.16,17.922 1.32,17.902C1.48,17.882 1.62,17.856 1.74,17.824C1.748,17.824 1.76,17.84 1.776,17.872C1.792,17.904 1.8,17.932 1.8,17.956C1.8,17.972 1.796,17.986 1.788,17.998C1.78,18.01 1.776,18.02 1.776,18.028C1.552,18.196 1.302,18.476 1.026,18.868C0.75,19.26 0.376,19.752 -0.096,20.344C-0.136,20.384 -0.166,20.424 -0.186,20.464C-0.206,20.504 -0.232,20.544 -0.264,20.584C-0.616,21.032 -0.924,21.414 -1.188,21.73C-1.452,22.046 -1.688,22.316 -1.896,22.54C-1.776,22.556 -1.634,22.584 -1.47,22.624C-1.306,22.664 -1.122,22.704 -0.918,22.744C-0.714,22.784 -0.49,22.82 -0.246,22.852C-0.002,22.884 0.26,22.9 0.54,22.9C0.836,22.9 1.078,22.874 1.266,22.822C1.454,22.77 1.628,22.668 1.788,22.516C1.844,22.46 1.87,22.436 1.866,22.444C1.862,22.452 1.876,22.456 1.908,22.456C1.948,22.456 1.966,22.478 1.962,22.522C1.958,22.566 1.956,22.596 1.956,22.612C1.956,22.708 1.9,22.824 1.788,22.96C1.676,23.096 1.52,23.226 1.32,23.35C1.12,23.474 0.882,23.58 0.606,23.668C0.33,23.756 0.024,23.8 -0.312,23.8C-0.52,23.8 -0.746,23.788 -0.99,23.764C-1.234,23.74 -1.484,23.712 -1.74,23.68C-1.996,23.648 -2.252,23.62 -2.508,23.596C-2.764,23.572 -3.004,23.56 -3.228,23.56C-3.364,23.56 -3.478,23.574 -3.57,23.602C-3.662,23.63 -3.768,23.66 -3.888,23.692C-3.928,23.692 -3.948,23.668 -3.948,23.62C-3.948,23.612 -3.94,23.576 -3.924,23.512L-3.828,23.44Z" style="fill-rule:nonzero;"/>
            <path d="M7.524,22.192C7.436,22.288 7.3,22.42 7.116,22.588C6.932,22.756 6.71,22.924 6.45,23.092C6.19,23.26 5.9,23.404 5.58,23.524C5.26,23.644 4.92,23.704 4.56,23.704C4.232,23.704 3.912,23.654 3.6,23.554C3.288,23.454 3.008,23.302 2.76,23.098C2.512,22.894 2.314,22.634 2.166,22.318C2.018,22.002 1.944,21.624 1.944,21.184C1.944,20.824 1.968,20.514 2.016,20.254C2.064,19.994 2.128,19.766 2.208,19.57C2.288,19.374 2.378,19.206 2.478,19.066C2.578,18.926 2.68,18.8 2.784,18.688C2.912,18.544 3.068,18.408 3.252,18.28C3.436,18.152 3.634,18.036 3.846,17.932C4.058,17.828 4.282,17.746 4.518,17.686C4.754,17.626 4.992,17.596 5.232,17.596C5.664,17.596 6.002,17.668 6.246,17.812C6.49,17.956 6.612,18.156 6.612,18.412C6.612,18.572 6.564,18.72 6.468,18.856C6.548,18.832 6.65,18.792 6.774,18.736C6.898,18.68 7.024,18.622 7.152,18.562C7.28,18.502 7.394,18.448 7.494,18.4C7.594,18.352 7.66,18.316 7.692,18.292C7.708,18.276 7.726,18.27 7.746,18.274C7.766,18.278 7.776,18.292 7.776,18.316C7.776,18.42 7.756,18.506 7.716,18.574C7.676,18.642 7.628,18.696 7.572,18.736C7.444,18.816 7.26,18.916 7.02,19.036C6.78,19.156 6.514,19.282 6.222,19.414C5.93,19.546 5.628,19.678 5.316,19.81C5.004,19.942 4.71,20.068 4.434,20.188C4.158,20.308 3.918,20.414 3.714,20.506C3.51,20.598 3.372,20.664 3.3,20.704C3.3,20.976 3.354,21.23 3.462,21.466C3.57,21.702 3.72,21.908 3.912,22.084C4.104,22.26 4.334,22.398 4.602,22.498C4.87,22.598 5.164,22.648 5.484,22.648C5.772,22.648 6.032,22.618 6.264,22.558C6.496,22.498 6.692,22.43 6.852,22.354C7.012,22.278 7.138,22.21 7.23,22.15C7.322,22.09 7.372,22.06 7.38,22.06C7.412,22.06 7.444,22.074 7.476,22.102C7.508,22.13 7.524,22.16 7.524,22.192ZM3.3,20.356C3.436,20.308 3.59,20.25 3.762,20.182C3.934,20.114 4.102,20.04 4.266,19.96C4.43,19.88 4.58,19.804 4.716,19.732C4.852,19.66 4.956,19.596 5.028,19.54C5.172,19.436 5.244,19.26 5.244,19.012C5.244,18.916 5.226,18.816 5.19,18.712C5.154,18.608 5.1,18.514 5.028,18.43C4.956,18.346 4.868,18.278 4.764,18.226C4.66,18.174 4.544,18.148 4.416,18.148C4.304,18.148 4.184,18.186 4.056,18.262C3.928,18.338 3.808,18.462 3.696,18.634C3.584,18.806 3.49,19.034 3.414,19.318C3.338,19.602 3.3,19.948 3.3,20.356Z" style="fill-rule:nonzero;"/>
            <path d="M13.092,18.496C13.004,18.568 12.9,18.658 12.78,18.766C12.66,18.874 12.534,18.978 12.402,19.078C12.27,19.178 12.136,19.264 12,19.336C11.864,19.408 11.732,19.444 11.604,19.444C11.492,19.444 11.392,19.418 11.304,19.366C11.216,19.314 11.134,19.258 11.058,19.198C10.982,19.138 10.908,19.082 10.836,19.03C10.764,18.978 10.688,18.952 10.608,18.952C10.392,18.952 10.21,19.04 10.062,19.216C9.914,19.392 9.794,19.616 9.702,19.888C9.61,20.16 9.542,20.456 9.498,20.776C9.454,21.096 9.432,21.404 9.432,21.7C9.432,21.948 9.442,22.15 9.462,22.306C9.482,22.462 9.512,22.586 9.552,22.678C9.592,22.77 9.646,22.832 9.714,22.864C9.782,22.896 9.864,22.912 9.96,22.912C10.064,22.912 10.176,22.896 10.296,22.864C10.32,22.856 10.338,22.872 10.35,22.912C10.362,22.952 10.368,22.984 10.368,23.008C10.368,23.024 10.356,23.042 10.332,23.062C10.308,23.082 10.292,23.092 10.284,23.092C10.108,23.164 9.928,23.242 9.744,23.326C9.56,23.41 9.408,23.48 9.288,23.536C9.176,23.584 9.042,23.636 8.886,23.692C8.73,23.748 8.596,23.776 8.484,23.776C8.356,23.776 8.25,23.756 8.166,23.716C8.082,23.676 8.04,23.636 8.04,23.596C8.04,23.556 8.05,23.52 8.07,23.488C8.09,23.456 8.108,23.396 8.124,23.308C8.14,23.188 8.158,23.046 8.178,22.882C8.198,22.718 8.218,22.54 8.238,22.348C8.258,22.156 8.274,21.958 8.286,21.754C8.298,21.55 8.304,21.348 8.304,21.148C8.304,20.7 8.29,20.32 8.262,20.008C8.234,19.696 8.184,19.444 8.112,19.252C8.04,19.06 7.942,18.922 7.818,18.838C7.694,18.754 7.536,18.712 7.344,18.712L7.236,18.712C7.204,18.712 7.172,18.716 7.14,18.724C7.092,18.724 7.068,18.7 7.068,18.652C7.068,18.604 7.092,18.568 7.14,18.544C7.228,18.488 7.364,18.406 7.548,18.298C7.732,18.19 7.922,18.086 8.118,17.986C8.314,17.886 8.504,17.796 8.688,17.716C8.872,17.636 9.008,17.596 9.096,17.596C9.2,17.596 9.288,17.63 9.36,17.698C9.432,17.766 9.486,17.852 9.522,17.956C9.558,18.06 9.584,18.178 9.6,18.31C9.616,18.442 9.624,18.572 9.624,18.7C9.624,18.796 9.622,18.896 9.618,19C9.614,19.104 9.612,19.216 9.612,19.336C9.972,18.808 10.296,18.398 10.584,18.106C10.872,17.814 11.144,17.668 11.4,17.668C11.496,17.668 11.59,17.708 11.682,17.788C11.774,17.868 11.872,17.958 11.976,18.058C12.08,18.158 12.188,18.248 12.3,18.328C12.412,18.408 12.528,18.448 12.648,18.448C12.752,18.448 12.828,18.436 12.876,18.412C12.924,18.388 12.964,18.368 12.996,18.352C13.06,18.352 13.092,18.396 13.092,18.484L13.092,18.496Z" style="fill-rule:nonzero;"/>
        </g>
        <g transform="matrix(1,0,0,1,47.6875,-4.53575)">
            <text x="-39.144px" y="23.596px" style="font-family:'Luminari-Regular', 'Luminari';font-size:12px;">Equalizer</text>
        </g>
    </g>
</svg>
