<?xml version="1.0" encoding="UTF-8" standalone="no"?>
<!DOCTYPE svg PUBLIC "-//W3C//DTD SVG 1.1//EN" "http://www.w3.org/Graphics/SVG/1.1/DTD/svg11.dtd">
<svg width="100%" height="100%" viewBox="0 0 90 380" version="1.1" xmlns="http://www.w3.org/2000/svg" xmlns:xlink="http://www.w3.org/1999/xlink" xml:space="preserve" xmlns:serif="http://www.serif.com/" style="fill-rule:evenodd;clip-rule:evenodd;stroke-linecap:round;stroke-linejoin:round;stroke-miterlimit:1.5;">
    <g transform="matrix(1.62646,0,0,3.82264,-5.23902,-309.338)">
        <rect x="3.221" y="80.923" width="55.335" height="99.408" style="fill:rgb(235,235,235);"/>
    </g>
    <g transform="matrix(1,0,0,1,-118.395,13.3388)">
        <g id="Connect-ledbutton" serif:id="Connect#ledbutton" transform="matrix(0.174892,0,0,0.175002,152.564,313.265)">
            <rect x="53.94" y="106.916" width="161.978" height="161.978" style="fill:rgb(235,235,235);"/>
        </g>
        <g transform="matrix(1,0,0,1,46.7861,231.117)">
            <path d="M90.698,116.846C90.698,117.006 90.743,117.13 90.833,117.216C90.923,117.303 91.045,117.346 91.198,117.346C91.391,117.346 91.52,117.29 91.583,117.176C91.646,117.063 91.685,116.95 91.698,116.836L92.718,116.836C92.718,117.283 92.581,117.643 92.308,117.916C92.175,118.056 92.015,118.166 91.828,118.246C91.641,118.326 91.431,118.366 91.198,118.366C90.878,118.366 90.606,118.3 90.383,118.166C90.16,118.033 89.988,117.856 89.868,117.636C89.795,117.503 89.745,117.35 89.718,117.176C89.691,117.003 89.678,116.813 89.678,116.606L89.678,114.936C89.678,114.73 89.691,114.54 89.718,114.366C89.745,114.193 89.795,114.04 89.868,113.906C89.988,113.686 90.16,113.51 90.383,113.376C90.606,113.243 90.878,113.176 91.198,113.176C91.431,113.176 91.643,113.216 91.833,113.296C92.023,113.376 92.185,113.486 92.318,113.626C92.585,113.926 92.718,114.316 92.718,114.796L91.698,114.796C91.698,114.59 91.653,114.438 91.563,114.341C91.473,114.245 91.351,114.196 91.198,114.196C91.045,114.196 90.923,114.245 90.833,114.341C90.743,114.438 90.698,114.583 90.698,114.776L90.698,116.846Z" style="fill:rgb(5,5,5);fill-rule:nonzero;"/>
            <path d="M93.228,114.936C93.228,114.73 93.241,114.54 93.268,114.366C93.295,114.193 93.345,114.04 93.418,113.906C93.538,113.686 93.71,113.51 93.933,113.376C94.156,113.243 94.428,113.176 94.748,113.176C95.068,113.176 95.34,113.243 95.563,113.376C95.786,113.51 95.958,113.686 96.078,113.906C96.151,114.04 96.201,114.193 96.228,114.366C96.255,114.54 96.268,114.73 96.268,114.936L96.268,116.606C96.268,116.813 96.255,117.003 96.228,117.176C96.201,117.35 96.151,117.503 96.078,117.636C95.958,117.856 95.786,118.033 95.563,118.166C95.34,118.3 95.068,118.366 94.748,118.366C94.428,118.366 94.156,118.3 93.933,118.166C93.71,118.033 93.538,117.856 93.418,117.636C93.345,117.503 93.295,117.35 93.268,117.176C93.241,117.003 93.228,116.813 93.228,116.606L93.228,114.936ZM94.248,116.766C94.248,116.96 94.293,117.105 94.383,117.201C94.473,117.298 94.595,117.346 94.748,117.346C94.901,117.346 95.023,117.298 95.113,117.201C95.203,117.105 95.248,116.96 95.248,116.766L95.248,114.776C95.248,114.583 95.203,114.438 95.113,114.341C95.023,114.245 94.901,114.196 94.748,114.196C94.595,114.196 94.473,114.245 94.383,114.341C94.293,114.438 94.248,114.583 94.248,114.776L94.248,116.766Z" style="fill:rgb(5,5,5);fill-rule:nonzero;"/>
            <path d="M97.018,118.306L97.018,113.236L98.038,113.236L98.038,113.726L98.058,113.726C98.165,113.566 98.293,113.435 98.443,113.331C98.593,113.228 98.785,113.176 99.018,113.176C99.145,113.176 99.271,113.198 99.398,113.241C99.525,113.285 99.638,113.356 99.738,113.456C99.838,113.556 99.918,113.685 99.978,113.841C100.038,113.998 100.068,114.19 100.068,114.416L100.068,118.306L99.048,118.306L99.048,114.796C99.048,114.61 99.005,114.463 98.918,114.356C98.831,114.25 98.708,114.196 98.548,114.196C98.355,114.196 98.221,114.256 98.148,114.376C98.075,114.496 98.038,114.67 98.038,114.896L98.038,118.306L97.018,118.306Z" style="fill:rgb(5,5,5);fill-rule:nonzero;"/>
            <path d="M100.908,118.306L100.908,113.236L101.928,113.236L101.928,113.726L101.948,113.726C102.055,113.566 102.183,113.435 102.333,113.331C102.483,113.228 102.675,113.176 102.908,113.176C103.035,113.176 103.161,113.198 103.288,113.241C103.415,113.285 103.528,113.356 103.628,113.456C103.728,113.556 103.808,113.685 103.868,113.841C103.928,113.998 103.958,114.19 103.958,114.416L103.958,118.306L102.938,118.306L102.938,114.796C102.938,114.61 102.895,114.463 102.808,114.356C102.721,114.25 102.598,114.196 102.438,114.196C102.245,114.196 102.111,114.256 102.038,114.376C101.965,114.496 101.928,114.67 101.928,114.896L101.928,118.306L100.908,118.306Z" style="fill:rgb(5,5,5);fill-rule:nonzero;"/>
            <path d="M107.748,116.156L105.728,116.156L105.728,116.846C105.728,117.006 105.773,117.13 105.863,117.216C105.953,117.303 106.075,117.346 106.228,117.346C106.421,117.346 106.55,117.29 106.613,117.176C106.676,117.063 106.715,116.95 106.728,116.836L107.748,116.836C107.748,117.283 107.611,117.643 107.338,117.916C107.205,118.056 107.045,118.166 106.858,118.246C106.671,118.326 106.461,118.366 106.228,118.366C105.908,118.366 105.636,118.3 105.413,118.166C105.19,118.033 105.018,117.856 104.898,117.636C104.825,117.503 104.775,117.35 104.748,117.176C104.721,117.003 104.708,116.813 104.708,116.606L104.708,114.936C104.708,114.73 104.721,114.54 104.748,114.366C104.775,114.193 104.825,114.04 104.898,113.906C105.018,113.686 105.19,113.51 105.413,113.376C105.636,113.243 105.908,113.176 106.228,113.176C106.461,113.176 106.673,113.216 106.863,113.296C107.053,113.376 107.215,113.486 107.348,113.626C107.615,113.926 107.748,114.303 107.748,114.756L107.748,116.156ZM105.728,115.356L106.728,115.356L106.728,114.776C106.728,114.583 106.683,114.438 106.593,114.341C106.503,114.245 106.381,114.196 106.228,114.196C106.075,114.196 105.953,114.245 105.863,114.341C105.773,114.438 105.728,114.583 105.728,114.776L105.728,115.356Z" style="fill:rgb(5,5,5);fill-rule:nonzero;"/>
            <path d="M109.578,116.846C109.578,117.006 109.623,117.13 109.713,117.216C109.803,117.303 109.925,117.346 110.078,117.346C110.271,117.346 110.4,117.29 110.463,117.176C110.526,117.063 110.565,116.95 110.578,116.836L111.598,116.836C111.598,117.283 111.461,117.643 111.188,117.916C111.055,118.056 110.895,118.166 110.708,118.246C110.521,118.326 110.311,118.366 110.078,118.366C109.758,118.366 109.486,118.3 109.263,118.166C109.04,118.033 108.868,117.856 108.748,117.636C108.675,117.503 108.625,117.35 108.598,117.176C108.571,117.003 108.558,116.813 108.558,116.606L108.558,114.936C108.558,114.73 108.571,114.54 108.598,114.366C108.625,114.193 108.675,114.04 108.748,113.906C108.868,113.686 109.04,113.51 109.263,113.376C109.486,113.243 109.758,113.176 110.078,113.176C110.311,113.176 110.523,113.216 110.713,113.296C110.903,113.376 111.065,113.486 111.198,113.626C111.465,113.926 111.598,114.316 111.598,114.796L110.578,114.796C110.578,114.59 110.533,114.438 110.443,114.341C110.353,114.245 110.231,114.196 110.078,114.196C109.925,114.196 109.803,114.245 109.713,114.341C109.623,114.438 109.578,114.583 109.578,114.776L109.578,116.846Z" style="fill:rgb(5,5,5);fill-rule:nonzero;"/>
            <path d="M112.198,113.236L112.198,111.696L113.218,111.696L113.218,113.236L113.848,113.236L113.848,114.036L113.218,114.036L113.218,116.846C113.218,116.966 113.23,117.06 113.253,117.126C113.276,117.193 113.315,117.243 113.368,117.276C113.421,117.31 113.486,117.33 113.563,117.336C113.64,117.343 113.735,117.346 113.848,117.346L113.848,118.306L113.428,118.306C113.195,118.306 113,118.27 112.843,118.196C112.686,118.123 112.561,118.03 112.468,117.916C112.375,117.803 112.306,117.675 112.263,117.531C112.22,117.388 112.198,117.25 112.198,117.116L112.198,114.036L111.688,114.036L111.688,113.236L112.198,113.236Z" style="fill:rgb(5,5,5);fill-rule:nonzero;"/>
        </g>
        <g transform="matrix(1,0,0,1,46.7861,231.117)">
            <text x="89.198px" y="118.306px" style="font-family:'DINCondensed-Bold', 'DIN Condensed';font-weight:700;font-stretch:condensed;font-size:10px;fill:rgb(5,5,5);">connect</text>
        </g>
    </g>
    <g id="Row8" transform="matrix(1,0,0,1,-97.8599,-16.7347)">
        <g transform="matrix(0.86,0,0,0.845522,136.26,183.215)">
            <rect x="10" y="171.552" width="50" height="38.756" style="fill:rgb(204,51,51);"/>
        </g>
        <g id="InB-input" serif:id="InB#input" transform="matrix(0.175002,0,0,0.175002,138.074,311.804)">
            <rect x="53.94" y="106.916" width="161.978" height="161.978" style="fill:rgb(217,217,217);"/>
        </g>
        <g transform="matrix(1,0,0,1,88.322,229.897)">
            <path d="M90.748,118.306L90.748,112.266L89.728,113.016L89.728,111.936L90.748,111.186L91.768,111.186L91.768,118.306L90.748,118.306Z" style="fill:rgb(5,5,5);fill-rule:nonzero;"/>
            <path d="M95.928,111.186L94.768,114.176L94.788,114.196C94.821,114.17 94.873,114.148 94.943,114.131C95.013,114.115 95.105,114.106 95.218,114.106C95.398,114.106 95.565,114.15 95.718,114.236C95.871,114.323 95.991,114.433 96.078,114.566C96.125,114.64 96.161,114.713 96.188,114.786C96.215,114.86 96.238,114.956 96.258,115.076C96.271,115.196 96.281,115.348 96.288,115.531C96.295,115.715 96.298,115.946 96.298,116.226C96.298,116.46 96.295,116.651 96.288,116.801C96.281,116.951 96.271,117.076 96.258,117.176C96.238,117.283 96.213,117.373 96.183,117.446C96.153,117.52 96.115,117.596 96.068,117.676C95.935,117.896 95.756,118.066 95.533,118.186C95.31,118.306 95.058,118.366 94.778,118.366C94.498,118.366 94.248,118.305 94.028,118.181C93.808,118.058 93.631,117.89 93.498,117.676C93.445,117.596 93.403,117.52 93.373,117.446C93.343,117.373 93.321,117.283 93.308,117.176C93.288,117.076 93.275,116.951 93.268,116.801C93.261,116.651 93.258,116.46 93.258,116.226C93.258,116.006 93.261,115.825 93.268,115.681C93.275,115.538 93.285,115.413 93.298,115.306C93.311,115.206 93.331,115.115 93.358,115.031C93.385,114.948 93.415,114.86 93.448,114.766L94.788,111.186L95.928,111.186ZM95.278,115.516C95.278,115.363 95.228,115.24 95.128,115.146C95.028,115.053 94.911,115.006 94.778,115.006C94.645,115.006 94.528,115.053 94.428,115.146C94.328,115.24 94.278,115.363 94.278,115.516L94.278,116.836C94.278,116.99 94.328,117.113 94.428,117.206C94.528,117.3 94.645,117.346 94.778,117.346C94.911,117.346 95.028,117.3 95.128,117.206C95.228,117.113 95.278,116.99 95.278,116.836L95.278,115.516Z" style="fill:rgb(5,5,5);fill-rule:nonzero;"/>
        </g>
        <g transform="matrix(1,0,0,1,88.322,229.897)">
            <text x="89.198px" y="118.306px" style="font-family:'DINCondensed-Bold', 'DIN Condensed';font-weight:700;font-stretch:condensed;font-size:10px;fill:rgb(5,5,5);">16</text>
        </g>
        <g transform="matrix(0.86,0,0,0.845522,89.2599,183.215)">
            <rect x="10" y="171.552" width="50" height="38.756" style="fill:rgb(204,51,51);"/>
        </g>
        <g id="InA-input" serif:id="InA#input" transform="matrix(0.175002,0,0,0.175002,100.42,311.73)">
            <rect x="53.94" y="106.916" width="161.978" height="161.978" style="fill:rgb(217,217,217);"/>
        </g>
        <g transform="matrix(1,0,0,1,15.282,229.904)">
            <path d="M91.558,112.646C91.558,112.506 91.508,112.388 91.408,112.291C91.308,112.195 91.191,112.146 91.058,112.146C90.925,112.146 90.808,112.195 90.708,112.291C90.608,112.388 90.558,112.506 90.558,112.646L90.558,113.686C90.558,113.826 90.608,113.945 90.708,114.041C90.808,114.138 90.925,114.186 91.058,114.186C91.191,114.186 91.308,114.138 91.408,114.041C91.508,113.945 91.558,113.826 91.558,113.686L91.558,112.646ZM89.538,113.046C89.538,112.853 89.545,112.688 89.558,112.551C89.571,112.415 89.595,112.296 89.628,112.196C89.661,112.096 89.7,112.006 89.743,111.926C89.786,111.846 89.841,111.763 89.908,111.676C90.041,111.503 90.208,111.368 90.408,111.271C90.608,111.175 90.825,111.126 91.058,111.126C91.291,111.126 91.508,111.175 91.708,111.271C91.908,111.368 92.075,111.503 92.208,111.676C92.275,111.763 92.331,111.846 92.378,111.926C92.425,112.006 92.465,112.096 92.498,112.196C92.531,112.296 92.553,112.415 92.563,112.551C92.573,112.688 92.578,112.853 92.578,113.046C92.578,113.26 92.575,113.44 92.568,113.586C92.561,113.733 92.541,113.863 92.508,113.976C92.475,114.09 92.423,114.191 92.353,114.281C92.283,114.371 92.188,114.466 92.068,114.566C92.188,114.66 92.283,114.753 92.353,114.846C92.423,114.94 92.475,115.05 92.508,115.176C92.541,115.303 92.561,115.458 92.568,115.641C92.575,115.825 92.578,116.05 92.578,116.316C92.578,116.536 92.573,116.718 92.563,116.861C92.553,117.005 92.538,117.13 92.518,117.236C92.498,117.343 92.47,117.433 92.433,117.506C92.396,117.58 92.351,117.656 92.298,117.736C92.185,117.91 92.025,118.058 91.818,118.181C91.611,118.305 91.358,118.366 91.058,118.366C90.758,118.366 90.505,118.305 90.298,118.181C90.091,118.058 89.931,117.91 89.818,117.736C89.765,117.656 89.72,117.58 89.683,117.506C89.646,117.433 89.618,117.343 89.598,117.236C89.578,117.13 89.563,117.005 89.553,116.861C89.543,116.718 89.538,116.536 89.538,116.316C89.538,116.05 89.541,115.825 89.548,115.641C89.555,115.458 89.575,115.303 89.608,115.176C89.641,115.05 89.693,114.94 89.763,114.846C89.833,114.753 89.928,114.66 90.048,114.566C89.928,114.466 89.833,114.371 89.763,114.281C89.693,114.191 89.641,114.09 89.608,113.976C89.575,113.863 89.555,113.733 89.548,113.586C89.541,113.44 89.538,113.26 89.538,113.046ZM91.558,115.446C91.558,115.306 91.508,115.188 91.408,115.091C91.308,114.995 91.191,114.946 91.058,114.946C90.925,114.946 90.808,114.995 90.708,115.091C90.608,115.188 90.558,115.306 90.558,115.446L90.558,116.846C90.558,116.986 90.608,117.105 90.708,117.201C90.808,117.298 90.925,117.346 91.058,117.346C91.191,117.346 91.308,117.298 91.408,117.201C91.508,117.105 91.558,116.986 91.558,116.846L91.558,115.446Z" style="fill:rgb(5,5,5);fill-rule:nonzero;"/>
        </g>
        <g transform="matrix(1,0,0,1,15.282,229.904)">
            <text x="89.198px" y="118.306px" style="font-family:'DINCondensed-Bold', 'DIN Condensed';font-weight:700;font-stretch:condensed;font-size:10px;fill:rgb(5,5,5);">8</text>
        </g>
    </g>
    <g id="Row7" transform="matrix(1,0,0,1,-97.8599,-54.0304)">
        <g transform="matrix(0.86,0,0,0.845522,136.26,183.215)">
            <rect x="10" y="171.552" width="50" height="38.756" style="fill:rgb(204,51,51);"/>
        </g>
        <g id="InB-input1" serif:id="InB#input" transform="matrix(0.175002,0,0,0.175002,138.074,311.804)">
            <rect x="53.94" y="106.916" width="161.978" height="161.978" style="fill:rgb(217,217,217);"/>
        </g>
        <g transform="matrix(1,0,0,1,88.322,229.897)">
            <path d="M90.748,118.306L90.748,112.266L89.728,113.016L89.728,111.936L90.748,111.186L91.768,111.186L91.768,118.306L90.748,118.306Z" style="fill:rgb(5,5,5);fill-rule:nonzero;"/>
            <path d="M96.298,111.186L96.298,112.146L94.278,112.146L94.278,114.066C94.371,113.973 94.491,113.895 94.638,113.831C94.785,113.768 94.948,113.736 95.128,113.736C95.475,113.736 95.756,113.841 95.973,114.051C96.19,114.261 96.298,114.576 96.298,114.996L96.298,116.836C96.298,117.076 96.256,117.29 96.173,117.476C96.09,117.663 95.978,117.823 95.838,117.956C95.698,118.09 95.536,118.191 95.353,118.261C95.17,118.331 94.978,118.366 94.778,118.366C94.578,118.366 94.386,118.331 94.203,118.261C94.02,118.191 93.858,118.09 93.718,117.956C93.578,117.823 93.466,117.663 93.383,117.476C93.3,117.29 93.258,117.076 93.258,116.836L93.258,116.536L94.278,116.536L94.278,116.796C94.278,116.97 94.326,117.105 94.423,117.201C94.52,117.298 94.645,117.346 94.798,117.346C94.951,117.346 95.07,117.3 95.153,117.206C95.236,117.113 95.278,116.983 95.278,116.816L95.278,115.146C95.278,115.006 95.233,114.886 95.143,114.786C95.053,114.686 94.938,114.636 94.798,114.636C94.711,114.636 94.638,114.651 94.578,114.681C94.518,114.711 94.468,114.746 94.428,114.786C94.388,114.826 94.358,114.87 94.338,114.916C94.305,114.976 94.285,115.013 94.278,115.026L93.378,115.026L93.378,111.186L96.298,111.186Z" style="fill:rgb(5,5,5);fill-rule:nonzero;"/>
        </g>
        <g transform="matrix(1,0,0,1,88.322,229.897)">
            <text x="89.198px" y="118.306px" style="font-family:'DINCondensed-Bold', 'DIN Condensed';font-weight:700;font-stretch:condensed;font-size:10px;fill:rgb(5,5,5);">15</text>
        </g>
        <g transform="matrix(0.86,0,0,0.845522,89.2599,183.215)">
            <rect x="10" y="171.552" width="50" height="38.756" style="fill:rgb(204,51,51);"/>
        </g>
        <g id="InA-input1" serif:id="InA#input" transform="matrix(0.175002,0,0,0.175002,100.42,311.73)">
            <rect x="53.94" y="106.916" width="161.978" height="161.978" style="fill:rgb(217,217,217);"/>
        </g>
        <g transform="matrix(1,0,0,1,15.282,229.904)">
            <path d="M89.768,118.306L91.558,112.146L90.438,112.146L90.438,112.966L89.538,112.966L89.538,111.186L92.578,111.186L92.578,112.206L90.848,118.306L89.768,118.306Z" style="fill:rgb(5,5,5);fill-rule:nonzero;"/>
        </g>
        <g transform="matrix(1,0,0,1,15.282,229.904)">
            <text x="89.198px" y="118.306px" style="font-family:'DINCondensed-Bold', 'DIN Condensed';font-weight:700;font-stretch:condensed;font-size:10px;fill:rgb(5,5,5);">7</text>
        </g>
    </g>
    <g id="Row6" transform="matrix(1,0,0,1,-97.8599,-91.3261)">
        <g transform="matrix(0.86,0,0,0.845522,136.26,183.215)">
            <rect x="10" y="171.552" width="50" height="38.756" style="fill:rgb(204,51,51);"/>
        </g>
        <g id="InB-input2" serif:id="InB#input" transform="matrix(0.175002,0,0,0.175002,138.074,311.804)">
            <rect x="53.94" y="106.916" width="161.978" height="161.978" style="fill:rgb(217,217,217);"/>
        </g>
        <g transform="matrix(1,0,0,1,88.322,229.897)">
            <path d="M90.748,118.306L90.748,112.266L89.728,113.016L89.728,111.936L90.748,111.186L91.768,111.186L91.768,118.306L90.748,118.306Z" style="fill:rgb(5,5,5);fill-rule:nonzero;"/>
            <path d="M95.038,118.306L95.038,117.246L93.008,117.246L93.008,116.286L94.478,111.186L95.558,111.186L94.028,116.286L95.038,116.286L95.038,114.256L96.058,114.256L96.058,116.286L96.548,116.286L96.548,117.246L96.058,117.246L96.058,118.306L95.038,118.306Z" style="fill:rgb(5,5,5);fill-rule:nonzero;"/>
        </g>
        <g transform="matrix(1,0,0,1,88.322,229.897)">
            <text x="89.198px" y="118.306px" style="font-family:'DINCondensed-Bold', 'DIN Condensed';font-weight:700;font-stretch:condensed;font-size:10px;fill:rgb(5,5,5);">14</text>
        </g>
        <g transform="matrix(0.86,0,0,0.845522,89.2599,183.215)">
            <rect x="10" y="171.552" width="50" height="38.756" style="fill:rgb(204,51,51);"/>
        </g>
        <g id="InA-input2" serif:id="InA#input" transform="matrix(0.175002,0,0,0.175002,100.42,311.73)">
            <rect x="53.94" y="106.916" width="161.978" height="161.978" style="fill:rgb(217,217,217);"/>
        </g>
        <g transform="matrix(1,0,0,1,15.282,229.874)">
            <path d="M92.208,111.186L91.048,114.176L91.068,114.196C91.101,114.17 91.153,114.148 91.223,114.131C91.293,114.115 91.385,114.106 91.498,114.106C91.678,114.106 91.845,114.15 91.998,114.236C92.151,114.323 92.271,114.433 92.358,114.566C92.405,114.64 92.441,114.713 92.468,114.786C92.495,114.86 92.518,114.956 92.538,115.076C92.551,115.196 92.561,115.348 92.568,115.531C92.575,115.715 92.578,115.946 92.578,116.226C92.578,116.46 92.575,116.651 92.568,116.801C92.561,116.951 92.551,117.076 92.538,117.176C92.518,117.283 92.493,117.373 92.463,117.446C92.433,117.52 92.395,117.596 92.348,117.676C92.215,117.896 92.036,118.066 91.813,118.186C91.59,118.306 91.338,118.366 91.058,118.366C90.778,118.366 90.528,118.305 90.308,118.181C90.088,118.058 89.911,117.89 89.778,117.676C89.725,117.596 89.683,117.52 89.653,117.446C89.623,117.373 89.601,117.283 89.588,117.176C89.568,117.076 89.555,116.951 89.548,116.801C89.541,116.651 89.538,116.46 89.538,116.226C89.538,116.006 89.541,115.825 89.548,115.681C89.555,115.538 89.565,115.413 89.578,115.306C89.591,115.206 89.611,115.115 89.638,115.031C89.665,114.948 89.695,114.86 89.728,114.766L91.068,111.186L92.208,111.186ZM91.558,115.516C91.558,115.363 91.508,115.24 91.408,115.146C91.308,115.053 91.191,115.006 91.058,115.006C90.925,115.006 90.808,115.053 90.708,115.146C90.608,115.24 90.558,115.363 90.558,115.516L90.558,116.836C90.558,116.99 90.608,117.113 90.708,117.206C90.808,117.3 90.925,117.346 91.058,117.346C91.191,117.346 91.308,117.3 91.408,117.206C91.508,117.113 91.558,116.99 91.558,116.836L91.558,115.516Z" style="fill:rgb(5,5,5);fill-rule:nonzero;"/>
        </g>
        <g transform="matrix(1,0,0,1,15.282,229.874)">
            <text x="89.198px" y="118.306px" style="font-family:'DINCondensed-Bold', 'DIN Condensed';font-weight:700;font-stretch:condensed;font-size:10px;fill:rgb(5,5,5);">6</text>
        </g>
    </g>
    <g id="Row5" transform="matrix(1,0,0,1,-97.8599,-128.622)">
        <g transform="matrix(0.86,0,0,0.845522,136.26,183.215)">
            <rect x="10" y="171.552" width="50" height="38.756" style="fill:rgb(204,51,51);"/>
        </g>
        <g id="InB-input3" serif:id="InB#input" transform="matrix(0.175002,0,0,0.175002,138.074,311.804)">
            <rect x="53.94" y="106.916" width="161.978" height="161.978" style="fill:rgb(217,217,217);"/>
        </g>
        <g transform="matrix(1,0,0,1,88.322,229.897)">
            <path d="M90.748,118.306L90.748,112.266L89.728,113.016L89.728,111.936L90.748,111.186L91.768,111.186L91.768,118.306L90.748,118.306Z" style="fill:rgb(5,5,5);fill-rule:nonzero;"/>
            <path d="M94.468,114.186C94.775,114.186 94.986,114.15 95.103,114.076C95.22,114.003 95.278,113.833 95.278,113.566L95.278,112.646C95.278,112.5 95.233,112.38 95.143,112.286C95.053,112.193 94.931,112.146 94.778,112.146C94.598,112.146 94.47,112.203 94.393,112.316C94.316,112.43 94.278,112.54 94.278,112.646L94.278,113.226L93.258,113.226L93.258,112.636C93.258,112.43 93.298,112.233 93.378,112.046C93.458,111.86 93.568,111.7 93.708,111.566C93.848,111.433 94.011,111.326 94.198,111.246C94.385,111.166 94.585,111.126 94.798,111.126C95.078,111.126 95.31,111.181 95.493,111.291C95.676,111.401 95.815,111.513 95.908,111.626C95.975,111.706 96.033,111.786 96.083,111.866C96.133,111.946 96.175,112.043 96.208,112.156C96.268,112.376 96.298,112.703 96.298,113.136C96.298,113.383 96.293,113.583 96.283,113.736C96.273,113.89 96.248,114.016 96.208,114.116C96.161,114.223 96.096,114.313 96.013,114.386C95.93,114.46 95.815,114.54 95.668,114.626C95.828,114.726 95.95,114.82 96.033,114.906C96.116,114.993 96.178,115.093 96.218,115.206C96.258,115.326 96.281,115.468 96.288,115.631C96.295,115.795 96.298,116.003 96.298,116.256C96.298,116.49 96.293,116.683 96.283,116.836C96.273,116.99 96.258,117.116 96.238,117.216C96.218,117.323 96.191,117.413 96.158,117.486C96.125,117.56 96.081,117.636 96.028,117.716C95.901,117.903 95.74,118.058 95.543,118.181C95.346,118.305 95.088,118.366 94.768,118.366C94.608,118.366 94.438,118.34 94.258,118.286C94.078,118.233 93.915,118.146 93.768,118.026C93.621,117.906 93.5,117.75 93.403,117.556C93.306,117.363 93.258,117.126 93.258,116.846L93.258,116.266L94.278,116.266L94.278,116.796C94.278,116.956 94.323,117.088 94.413,117.191C94.503,117.295 94.625,117.346 94.778,117.346C94.931,117.346 95.053,117.295 95.143,117.191C95.233,117.088 95.278,116.95 95.278,116.776L95.278,115.756C95.278,115.476 95.225,115.293 95.118,115.206C95.058,115.153 94.976,115.12 94.873,115.106C94.77,115.093 94.635,115.086 94.468,115.086L94.468,114.186Z" style="fill:rgb(5,5,5);fill-rule:nonzero;"/>
        </g>
        <g transform="matrix(1,0,0,1,88.322,229.897)">
            <text x="89.198px" y="118.306px" style="font-family:'DINCondensed-Bold', 'DIN Condensed';font-weight:700;font-stretch:condensed;font-size:10px;fill:rgb(5,5,5);">13</text>
        </g>
        <g transform="matrix(0.86,0,0,0.845522,89.2599,183.215)">
            <rect x="10" y="171.552" width="50" height="38.756" style="fill:rgb(204,51,51);"/>
        </g>
        <g id="InA-input3" serif:id="InA#input" transform="matrix(0.175002,0,0,0.175002,100.42,311.73)">
            <rect x="53.94" y="106.916" width="161.978" height="161.978" style="fill:rgb(217,217,217);"/>
        </g>
        <g transform="matrix(1,0,0,1,15.282,229.874)">
            <path d="M92.578,111.186L92.578,112.146L90.558,112.146L90.558,114.066C90.651,113.973 90.771,113.895 90.918,113.831C91.065,113.768 91.228,113.736 91.408,113.736C91.755,113.736 92.036,113.841 92.253,114.051C92.47,114.261 92.578,114.576 92.578,114.996L92.578,116.836C92.578,117.076 92.536,117.29 92.453,117.476C92.37,117.663 92.258,117.823 92.118,117.956C91.978,118.09 91.816,118.191 91.633,118.261C91.45,118.331 91.258,118.366 91.058,118.366C90.858,118.366 90.666,118.331 90.483,118.261C90.3,118.191 90.138,118.09 89.998,117.956C89.858,117.823 89.746,117.663 89.663,117.476C89.58,117.29 89.538,117.076 89.538,116.836L89.538,116.536L90.558,116.536L90.558,116.796C90.558,116.97 90.606,117.105 90.703,117.201C90.8,117.298 90.925,117.346 91.078,117.346C91.231,117.346 91.35,117.3 91.433,117.206C91.516,117.113 91.558,116.983 91.558,116.816L91.558,115.146C91.558,115.006 91.513,114.886 91.423,114.786C91.333,114.686 91.218,114.636 91.078,114.636C90.991,114.636 90.918,114.651 90.858,114.681C90.798,114.711 90.748,114.746 90.708,114.786C90.668,114.826 90.638,114.87 90.618,114.916C90.585,114.976 90.565,115.013 90.558,115.026L89.658,115.026L89.658,111.186L92.578,111.186Z" style="fill:rgb(5,5,5);fill-rule:nonzero;"/>
        </g>
        <g transform="matrix(1,0,0,1,15.282,229.874)">
            <text x="89.198px" y="118.306px" style="font-family:'DINCondensed-Bold', 'DIN Condensed';font-weight:700;font-stretch:condensed;font-size:10px;fill:rgb(5,5,5);">5</text>
        </g>
    </g>
    <g id="Row4" transform="matrix(1,0,0,1,-97.8599,-165.918)">
        <g transform="matrix(0.86,0,0,0.845522,136.26,183.215)">
            <rect x="10" y="171.552" width="50" height="38.756" style="fill:rgb(204,51,51);"/>
        </g>
        <g id="InB-input4" serif:id="InB#input" transform="matrix(0.175002,0,0,0.175002,138.074,311.804)">
            <rect x="53.94" y="106.916" width="161.978" height="161.978" style="fill:rgb(217,217,217);"/>
        </g>
        <g transform="matrix(1,0,0,1,88.322,229.897)">
            <path d="M90.748,118.306L90.748,112.266L89.728,113.016L89.728,111.936L90.748,111.186L91.768,111.186L91.768,118.306L90.748,118.306Z" style="fill:rgb(5,5,5);fill-rule:nonzero;"/>
            <path d="M93.258,118.306L93.258,117.346L95.098,113.876C95.191,113.703 95.245,113.551 95.258,113.421C95.271,113.291 95.278,113.13 95.278,112.936C95.278,112.85 95.276,112.758 95.273,112.661C95.27,112.565 95.251,112.48 95.218,112.406C95.185,112.333 95.135,112.271 95.068,112.221C95.001,112.171 94.905,112.146 94.778,112.146C94.625,112.146 94.503,112.19 94.413,112.276C94.323,112.363 94.278,112.49 94.278,112.656L94.278,113.236L93.258,113.236L93.258,112.676C93.258,112.463 93.298,112.263 93.378,112.076C93.458,111.89 93.568,111.726 93.708,111.586C93.841,111.446 94.001,111.335 94.188,111.251C94.375,111.168 94.575,111.126 94.788,111.126C95.055,111.126 95.283,111.175 95.473,111.271C95.663,111.368 95.821,111.5 95.948,111.666C96.068,111.833 96.156,112.023 96.213,112.236C96.27,112.45 96.298,112.676 96.298,112.916C96.298,113.09 96.295,113.235 96.288,113.351C96.281,113.468 96.268,113.58 96.248,113.686C96.228,113.793 96.195,113.9 96.148,114.006C96.101,114.113 96.038,114.243 95.958,114.396L94.458,117.286L96.298,117.286L96.298,118.306L93.258,118.306Z" style="fill:rgb(5,5,5);fill-rule:nonzero;"/>
        </g>
        <g transform="matrix(1,0,0,1,88.322,229.897)">
            <text x="89.198px" y="118.306px" style="font-family:'DINCondensed-Bold', 'DIN Condensed';font-weight:700;font-stretch:condensed;font-size:10px;fill:rgb(5,5,5);">12</text>
        </g>
        <g transform="matrix(0.86,0,0,0.845522,89.2599,183.215)">
            <rect x="10" y="171.552" width="50" height="38.756" style="fill:rgb(204,51,51);"/>
        </g>
        <g id="InA-input4" serif:id="InA#input" transform="matrix(0.175002,0,0,0.175002,100.42,311.73)">
            <rect x="53.94" y="106.916" width="161.978" height="161.978" style="fill:rgb(217,217,217);"/>
        </g>
        <g transform="matrix(1,0,0,1,15.032,229.904)">
            <path d="M91.318,118.306L91.318,117.246L89.288,117.246L89.288,116.286L90.758,111.186L91.838,111.186L90.308,116.286L91.318,116.286L91.318,114.256L92.338,114.256L92.338,116.286L92.828,116.286L92.828,117.246L92.338,117.246L92.338,118.306L91.318,118.306Z" style="fill:rgb(5,5,5);fill-rule:nonzero;"/>
        </g>
        <g transform="matrix(1,0,0,1,15.032,229.904)">
            <text x="89.198px" y="118.306px" style="font-family:'DINCondensed-Bold', 'DIN Condensed';font-weight:700;font-stretch:condensed;font-size:10px;fill:rgb(5,5,5);">4</text>
        </g>
    </g>
    <g id="Row3" transform="matrix(1,0,0,1,-97.8599,-203.213)">
        <g transform="matrix(0.86,0,0,0.845522,136.26,183.215)">
            <rect x="10" y="171.552" width="50" height="38.756" style="fill:rgb(204,51,51);"/>
        </g>
        <g id="InB-input5" serif:id="InB#input" transform="matrix(0.175002,0,0,0.175002,138.074,311.804)">
            <rect x="53.94" y="106.916" width="161.978" height="161.978" style="fill:rgb(217,217,217);"/>
        </g>
        <g transform="matrix(1,0,0,1,88.322,229.897)">
            <path d="M90.748,118.306L90.748,112.266L89.728,113.016L89.728,111.936L90.748,111.186L91.768,111.186L91.768,118.306L90.748,118.306Z" style="fill:rgb(5,5,5);fill-rule:nonzero;"/>
            <path d="M94.468,118.306L94.468,112.266L93.448,113.016L93.448,111.936L94.468,111.186L95.488,111.186L95.488,118.306L94.468,118.306Z" style="fill:rgb(5,5,5);fill-rule:nonzero;"/>
        </g>
        <g transform="matrix(1,0,0,1,88.322,229.897)">
            <text x="89.198px" y="118.306px" style="font-family:'DINCondensed-Bold', 'DIN Condensed';font-weight:700;font-stretch:condensed;font-size:10px;fill:rgb(5,5,5);">11</text>
        </g>
        <g transform="matrix(0.86,0,0,0.845522,89.2599,183.215)">
            <rect x="10" y="171.552" width="50" height="38.756" style="fill:rgb(204,51,51);"/>
        </g>
        <g id="InA-input5" serif:id="InA#input" transform="matrix(0.175002,0,0,0.175002,100.42,311.73)">
            <rect x="53.94" y="106.916" width="161.978" height="161.978" style="fill:rgb(217,217,217);"/>
        </g>
        <g transform="matrix(1,0,0,1,15.282,229.904)">
            <path d="M90.748,114.186C91.055,114.186 91.266,114.15 91.383,114.076C91.5,114.003 91.558,113.833 91.558,113.566L91.558,112.646C91.558,112.5 91.513,112.38 91.423,112.286C91.333,112.193 91.211,112.146 91.058,112.146C90.878,112.146 90.75,112.203 90.673,112.316C90.596,112.43 90.558,112.54 90.558,112.646L90.558,113.226L89.538,113.226L89.538,112.636C89.538,112.43 89.578,112.233 89.658,112.046C89.738,111.86 89.848,111.7 89.988,111.566C90.128,111.433 90.291,111.326 90.478,111.246C90.665,111.166 90.865,111.126 91.078,111.126C91.358,111.126 91.59,111.181 91.773,111.291C91.956,111.401 92.095,111.513 92.188,111.626C92.255,111.706 92.313,111.786 92.363,111.866C92.413,111.946 92.455,112.043 92.488,112.156C92.548,112.376 92.578,112.703 92.578,113.136C92.578,113.383 92.573,113.583 92.563,113.736C92.553,113.89 92.528,114.016 92.488,114.116C92.441,114.223 92.376,114.313 92.293,114.386C92.21,114.46 92.095,114.54 91.948,114.626C92.108,114.726 92.23,114.82 92.313,114.906C92.396,114.993 92.458,115.093 92.498,115.206C92.538,115.326 92.561,115.468 92.568,115.631C92.575,115.795 92.578,116.003 92.578,116.256C92.578,116.49 92.573,116.683 92.563,116.836C92.553,116.99 92.538,117.116 92.518,117.216C92.498,117.323 92.471,117.413 92.438,117.486C92.405,117.56 92.361,117.636 92.308,117.716C92.181,117.903 92.02,118.058 91.823,118.181C91.626,118.305 91.368,118.366 91.048,118.366C90.888,118.366 90.718,118.34 90.538,118.286C90.358,118.233 90.195,118.146 90.048,118.026C89.901,117.906 89.78,117.75 89.683,117.556C89.586,117.363 89.538,117.126 89.538,116.846L89.538,116.266L90.558,116.266L90.558,116.796C90.558,116.956 90.603,117.088 90.693,117.191C90.783,117.295 90.905,117.346 91.058,117.346C91.211,117.346 91.333,117.295 91.423,117.191C91.513,117.088 91.558,116.95 91.558,116.776L91.558,115.756C91.558,115.476 91.505,115.293 91.398,115.206C91.338,115.153 91.256,115.12 91.153,115.106C91.05,115.093 90.915,115.086 90.748,115.086L90.748,114.186Z" style="fill:rgb(5,5,5);fill-rule:nonzero;"/>
        </g>
        <g transform="matrix(1,0,0,1,15.282,229.904)">
            <text x="89.198px" y="118.306px" style="font-family:'DINCondensed-Bold', 'DIN Condensed';font-weight:700;font-stretch:condensed;font-size:10px;fill:rgb(5,5,5);">3</text>
        </g>
    </g>
    <g id="Row2" transform="matrix(1,0,0,1,-97.8599,-240.509)">
        <g transform="matrix(0.86,0,0,0.845522,136.26,183.215)">
            <rect x="10" y="171.552" width="50" height="38.756" style="fill:rgb(204,51,51);"/>
        </g>
        <g id="InB-input6" serif:id="InB#input" transform="matrix(0.175002,0,0,0.175002,138.074,311.804)">
            <rect x="53.94" y="106.916" width="161.978" height="161.978" style="fill:rgb(217,217,217);"/>
        </g>
        <g transform="matrix(1,0,0,1,88.322,229.897)">
            <path d="M90.748,118.306L90.748,112.266L89.728,113.016L89.728,111.936L90.748,111.186L91.768,111.186L91.768,118.306L90.748,118.306Z" style="fill:rgb(5,5,5);fill-rule:nonzero;"/>
            <path d="M93.258,112.656C93.258,112.416 93.3,112.203 93.383,112.016C93.466,111.83 93.578,111.67 93.718,111.536C93.858,111.403 94.02,111.301 94.203,111.231C94.386,111.161 94.578,111.126 94.778,111.126C94.978,111.126 95.17,111.161 95.353,111.231C95.536,111.301 95.698,111.403 95.838,111.536C95.978,111.67 96.09,111.83 96.173,112.016C96.256,112.203 96.298,112.416 96.298,112.656L96.298,116.836C96.298,117.076 96.256,117.29 96.173,117.476C96.09,117.663 95.978,117.823 95.838,117.956C95.698,118.09 95.536,118.191 95.353,118.261C95.17,118.331 94.978,118.366 94.778,118.366C94.578,118.366 94.386,118.331 94.203,118.261C94.02,118.191 93.858,118.09 93.718,117.956C93.578,117.823 93.466,117.663 93.383,117.476C93.3,117.29 93.258,117.076 93.258,116.836L93.258,112.656ZM94.278,116.836C94.278,116.983 94.325,117.105 94.418,117.201C94.511,117.298 94.631,117.346 94.778,117.346C94.925,117.346 95.045,117.298 95.138,117.201C95.231,117.105 95.278,116.983 95.278,116.836L95.278,112.656C95.278,112.51 95.231,112.388 95.138,112.291C95.045,112.195 94.925,112.146 94.778,112.146C94.631,112.146 94.511,112.195 94.418,112.291C94.325,112.388 94.278,112.51 94.278,112.656L94.278,116.836Z" style="fill:rgb(5,5,5);fill-rule:nonzero;"/>
        </g>
        <g transform="matrix(1,0,0,1,88.322,229.897)">
            <text x="89.198px" y="118.306px" style="font-family:'DINCondensed-Bold', 'DIN Condensed';font-weight:700;font-stretch:condensed;font-size:10px;fill:rgb(5,5,5);">10</text>
        </g>
        <g transform="matrix(0.86,0,0,0.845522,89.2599,183.215)">
            <rect x="10" y="171.552" width="50" height="38.756" style="fill:rgb(204,51,51);"/>
        </g>
        <g id="InA-input6" serif:id="InA#input" transform="matrix(0.175002,0,0,0.175002,100.42,311.73)">
            <rect x="53.94" y="106.916" width="161.978" height="161.978" style="fill:rgb(217,217,217);"/>
        </g>
        <g transform="matrix(1,0,0,1,15.282,229.934)">
            <path d="M89.538,118.306L89.538,117.346L91.378,113.876C91.471,113.703 91.525,113.551 91.538,113.421C91.551,113.291 91.558,113.13 91.558,112.936C91.558,112.85 91.556,112.758 91.553,112.661C91.55,112.565 91.531,112.48 91.498,112.406C91.465,112.333 91.415,112.271 91.348,112.221C91.281,112.171 91.185,112.146 91.058,112.146C90.905,112.146 90.783,112.19 90.693,112.276C90.603,112.363 90.558,112.49 90.558,112.656L90.558,113.236L89.538,113.236L89.538,112.676C89.538,112.463 89.578,112.263 89.658,112.076C89.738,111.89 89.848,111.726 89.988,111.586C90.121,111.446 90.281,111.335 90.468,111.251C90.655,111.168 90.855,111.126 91.068,111.126C91.335,111.126 91.563,111.175 91.753,111.271C91.943,111.368 92.101,111.5 92.228,111.666C92.348,111.833 92.436,112.023 92.493,112.236C92.55,112.45 92.578,112.676 92.578,112.916C92.578,113.09 92.575,113.235 92.568,113.351C92.561,113.468 92.548,113.58 92.528,113.686C92.508,113.793 92.475,113.9 92.428,114.006C92.381,114.113 92.318,114.243 92.238,114.396L90.738,117.286L92.578,117.286L92.578,118.306L89.538,118.306Z" style="fill:rgb(5,5,5);fill-rule:nonzero;"/>
        </g>
        <g transform="matrix(1,0,0,1,15.282,229.934)">
            <text x="89.198px" y="118.306px" style="font-family:'DINCondensed-Bold', 'DIN Condensed';font-weight:700;font-stretch:condensed;font-size:10px;fill:rgb(5,5,5);">2</text>
        </g>
    </g>
    <g id="Row1" transform="matrix(1,0,0,1,-97.8599,-277.805)">
        <g transform="matrix(0.86,0,0,0.845522,136.26,183.215)">
            <rect x="10" y="171.552" width="50" height="38.756" style="fill:rgb(204,51,51);"/>
        </g>
        <g id="InB-input7" serif:id="InB#input" transform="matrix(0.175002,0,0,0.175002,138.074,311.804)">
            <rect x="53.94" y="106.916" width="161.978" height="161.978" style="fill:rgb(217,217,217);"/>
        </g>
        <g transform="matrix(1,0,0,1,88.322,229.897)">
            <path d="M89.908,118.306L91.068,115.316L91.048,115.296C91.015,115.323 90.963,115.345 90.893,115.361C90.823,115.378 90.731,115.386 90.618,115.386C90.438,115.386 90.271,115.343 90.118,115.256C89.965,115.17 89.845,115.06 89.758,114.926C89.711,114.86 89.675,114.788 89.648,114.711C89.621,114.635 89.601,114.536 89.588,114.416C89.568,114.296 89.555,114.145 89.548,113.961C89.541,113.778 89.538,113.546 89.538,113.266C89.538,113.033 89.541,112.841 89.548,112.691C89.555,112.541 89.568,112.413 89.588,112.306C89.601,112.206 89.623,112.12 89.653,112.046C89.683,111.973 89.721,111.896 89.768,111.816C89.901,111.596 90.08,111.426 90.303,111.306C90.526,111.186 90.778,111.126 91.058,111.126C91.338,111.126 91.588,111.188 91.808,111.311C92.028,111.435 92.205,111.603 92.338,111.816C92.385,111.896 92.425,111.973 92.458,112.046C92.491,112.12 92.518,112.206 92.538,112.306C92.551,112.413 92.561,112.541 92.568,112.691C92.575,112.841 92.578,113.033 92.578,113.266C92.578,113.486 92.575,113.668 92.568,113.811C92.561,113.955 92.551,114.076 92.538,114.176C92.518,114.283 92.496,114.378 92.473,114.461C92.45,114.545 92.421,114.633 92.388,114.726L91.048,118.306L89.908,118.306ZM90.558,113.976C90.558,114.13 90.608,114.253 90.708,114.346C90.808,114.44 90.925,114.486 91.058,114.486C91.191,114.486 91.308,114.44 91.408,114.346C91.508,114.253 91.558,114.13 91.558,113.976L91.558,112.656C91.558,112.503 91.508,112.38 91.408,112.286C91.308,112.193 91.191,112.146 91.058,112.146C90.925,112.146 90.808,112.193 90.708,112.286C90.608,112.38 90.558,112.503 90.558,112.656L90.558,113.976Z" style="fill:rgb(5,5,5);fill-rule:nonzero;"/>
        </g>
        <g transform="matrix(1,0,0,1,88.322,229.897)">
            <text x="89.198px" y="118.306px" style="font-family:'DINCondensed-Bold', 'DIN Condensed';font-weight:700;font-stretch:condensed;font-size:10px;fill:rgb(5,5,5);">9</text>
        </g>
        <g transform="matrix(0.86,0,0,0.845522,89.2599,183.215)">
            <rect x="10" y="171.552" width="50" height="38.756" style="fill:rgb(204,51,51);"/>
        </g>
        <g id="InA-input7" serif:id="InA#input" transform="matrix(0.175002,0,0,0.175002,100.42,311.73)">
            <rect x="53.94" y="106.916" width="161.978" height="161.978" style="fill:rgb(217,217,217);"/>
        </g>
        <g transform="matrix(1,0,0,1,16.092,229.941)">
            <path d="M90.748,118.306L90.748,112.266L89.728,113.016L89.728,111.936L90.748,111.186L91.768,111.186L91.768,118.306L90.748,118.306Z" style="fill:rgb(5,5,5);fill-rule:nonzero;"/>
        </g>
        <g transform="matrix(1,0,0,1,16.092,229.941)">
            <text x="89.198px" y="118.306px" style="font-family:'DINCondensed-Bold', 'DIN Condensed';font-weight:700;font-stretch:condensed;font-size:10px;fill:rgb(5,5,5);">1</text>
        </g>
    </g>
    <g transform="matrix(1,0,0,1,26.1168,0)">
        <g transform="matrix(1,0,0,1,45.1227,-3.95975)">
            <path d="M-33.648,21.196C-33.76,21.172 -33.884,21.152 -34.02,21.136C-34.156,21.12 -34.3,21.108 -34.452,21.1C-34.604,21.092 -34.754,21.086 -34.902,21.082C-35.05,21.078 -35.188,21.076 -35.316,21.076L-35.688,21.076C-35.744,21.076 -35.792,21.08 -35.832,21.088C-35.872,21.096 -35.892,21.108 -35.892,21.124C-35.892,21.332 -35.89,21.574 -35.886,21.85C-35.882,22.126 -35.874,22.402 -35.862,22.678C-35.85,22.954 -35.836,23.208 -35.82,23.44C-35.804,23.672 -35.78,23.84 -35.748,23.944C-35.732,24.008 -35.664,24.054 -35.544,24.082C-35.424,24.11 -35.288,24.124 -35.136,24.124C-35.072,24.124 -35.006,24.122 -34.938,24.118C-34.87,24.114 -34.792,24.112 -34.704,24.112C-34.616,24.112 -34.548,24.132 -34.5,24.172C-34.452,24.212 -34.428,24.26 -34.428,24.316C-34.428,24.38 -34.434,24.436 -34.446,24.484C-34.458,24.532 -34.544,24.556 -34.704,24.556C-34.768,24.556 -34.87,24.552 -35.01,24.544C-35.15,24.536 -35.302,24.528 -35.466,24.52C-35.63,24.512 -35.8,24.512 -35.976,24.52C-36.152,24.528 -36.308,24.544 -36.444,24.568C-36.764,24.632 -37.064,24.706 -37.344,24.79C-37.624,24.874 -37.876,24.96 -38.1,25.048C-38.324,25.136 -38.512,25.222 -38.664,25.306C-38.816,25.39 -38.924,25.468 -38.988,25.54C-39.02,25.58 -39.044,25.6 -39.06,25.6L-39.12,25.6C-39.136,25.6 -39.176,25.578 -39.24,25.534C-39.304,25.49 -39.336,25.432 -39.336,25.36C-39.336,25.32 -39.27,25.262 -39.138,25.186C-39.006,25.11 -38.848,25.03 -38.664,24.946C-38.48,24.862 -38.288,24.782 -38.088,24.706C-37.888,24.63 -37.716,24.572 -37.572,24.532C-37.532,24.476 -37.498,24.318 -37.47,24.058C-37.442,23.798 -37.418,23.418 -37.398,22.918C-37.378,22.418 -37.362,21.792 -37.35,21.04C-37.338,20.288 -37.328,19.388 -37.32,18.34C-37.32,18.052 -37.324,17.758 -37.332,17.458C-37.34,17.158 -37.352,16.878 -37.368,16.618C-37.384,16.358 -37.408,16.132 -37.44,15.94C-37.472,15.748 -37.512,15.612 -37.56,15.532C-37.6,15.476 -37.674,15.438 -37.782,15.418C-37.89,15.398 -38.016,15.388 -38.16,15.388L-38.778,15.388C-38.83,15.388 -38.884,15.382 -38.94,15.37C-38.996,15.358 -39.042,15.34 -39.078,15.316C-39.114,15.292 -39.132,15.26 -39.132,15.22C-39.132,15.132 -39.12,15.07 -39.096,15.034C-39.072,14.998 -38.964,14.98 -38.772,14.98C-38.692,14.98 -38.592,14.984 -38.472,14.992C-38.352,15 -38.23,15.006 -38.106,15.01C-37.982,15.014 -37.858,15.02 -37.734,15.028C-37.61,15.036 -37.5,15.04 -37.404,15.04C-37.148,15.04 -36.83,15.016 -36.45,14.968C-36.07,14.92 -35.68,14.888 -35.28,14.872C-34.984,14.864 -34.682,14.858 -34.374,14.854C-34.066,14.85 -33.778,14.846 -33.51,14.842C-33.242,14.838 -33.01,14.834 -32.814,14.83C-32.618,14.826 -32.484,14.816 -32.412,14.8C-32.34,14.576 -32.26,14.382 -32.172,14.218C-32.084,14.054 -31.992,13.968 -31.896,13.96C-31.856,13.96 -31.802,13.974 -31.734,14.002C-31.666,14.03 -31.632,14.068 -31.632,14.116C-31.656,14.14 -31.676,14.164 -31.692,14.188C-31.724,14.236 -31.74,14.272 -31.74,14.296C-31.836,14.464 -31.922,14.68 -31.998,14.944C-32.074,15.208 -32.138,15.48 -32.19,15.76C-32.242,16.04 -32.28,16.312 -32.304,16.576C-32.328,16.84 -32.328,17.06 -32.304,17.236C-32.328,17.356 -32.376,17.416 -32.448,17.416C-32.576,17.416 -32.654,17.394 -32.682,17.35C-32.71,17.306 -32.716,17.26 -32.7,17.212C-32.684,17.148 -32.672,17.066 -32.664,16.966C-32.656,16.866 -32.652,16.784 -32.652,16.72C-32.652,16.528 -32.716,16.362 -32.844,16.222C-32.972,16.082 -33.144,15.966 -33.36,15.874C-33.576,15.782 -33.83,15.712 -34.122,15.664C-34.414,15.616 -34.724,15.592 -35.052,15.592C-35.14,15.592 -35.258,15.594 -35.406,15.598C-35.554,15.602 -35.664,15.636 -35.736,15.7C-35.752,15.764 -35.768,15.9 -35.784,16.108C-35.8,16.316 -35.814,16.562 -35.826,16.846C-35.838,17.13 -35.848,17.434 -35.856,17.758C-35.864,18.082 -35.87,18.396 -35.874,18.7C-35.878,19.004 -35.882,19.28 -35.886,19.528C-35.89,19.776 -35.892,19.96 -35.892,20.08C-35.732,20.088 -35.578,20.092 -35.43,20.092L-34.992,20.092C-34.512,20.1 -34.09,20.09 -33.726,20.062C-33.362,20.034 -33.12,20 -33,19.96C-32.928,19.936 -32.87,19.902 -32.826,19.858C-32.782,19.814 -32.746,19.768 -32.718,19.72C-32.69,19.672 -32.662,19.63 -32.634,19.594C-32.606,19.558 -32.576,19.54 -32.544,19.54C-32.504,19.54 -32.464,19.56 -32.424,19.6C-32.384,19.64 -32.372,19.676 -32.388,19.708C-32.436,19.796 -32.48,19.918 -32.52,20.074C-32.56,20.23 -32.594,20.402 -32.622,20.59C-32.65,20.778 -32.674,20.972 -32.694,21.172C-32.714,21.372 -32.724,21.56 -32.724,21.736C-32.724,21.768 -32.722,21.8 -32.718,21.832C-32.714,21.864 -32.712,21.9 -32.712,21.94C-32.712,21.964 -32.73,21.982 -32.766,21.994C-32.802,22.006 -32.838,22.012 -32.874,22.012C-32.91,22.012 -32.944,22.008 -32.976,22C-33.008,21.992 -33.024,21.976 -33.024,21.952C-33.024,21.904 -33.028,21.846 -33.036,21.778C-33.044,21.71 -33.062,21.644 -33.09,21.58C-33.118,21.516 -33.162,21.454 -33.222,21.394C-33.282,21.334 -33.364,21.284 -33.468,21.244L-33.648,21.196Z" style="fill-rule:nonzero;"/>
            <path d="M-27.432,22.372C-27.384,22.404 -27.36,22.444 -27.36,22.492C-27.36,22.556 -27.452,22.64 -27.636,22.744C-27.828,22.856 -28.082,22.988 -28.398,23.14C-28.714,23.292 -29.028,23.424 -29.34,23.536C-29.492,23.592 -29.628,23.64 -29.748,23.68C-29.868,23.72 -29.976,23.74 -30.072,23.74C-30.184,23.74 -30.322,23.714 -30.486,23.662C-30.65,23.61 -30.792,23.548 -30.912,23.476C-31.008,23.412 -31.084,23.362 -31.14,23.326C-31.196,23.29 -31.224,23.252 -31.224,23.212C-31.224,23.18 -31.214,23.15 -31.194,23.122C-31.174,23.094 -31.156,23.06 -31.14,23.02C-31.132,22.996 -31.124,22.964 -31.116,22.924C-31.108,22.884 -31.104,22.844 -31.104,22.804C-31.08,22.604 -31.054,22.314 -31.026,21.934C-30.998,21.554 -30.976,21.134 -30.96,20.674C-30.944,20.214 -30.93,19.738 -30.918,19.246C-30.906,18.754 -30.9,18.296 -30.9,17.872C-30.9,17.352 -30.902,16.932 -30.906,16.612C-30.91,16.292 -30.92,16.036 -30.936,15.844C-30.96,15.58 -30.992,15.406 -31.032,15.322C-31.072,15.238 -31.116,15.176 -31.164,15.136C-31.22,15.088 -31.274,15.058 -31.326,15.046C-31.378,15.034 -31.426,15.026 -31.47,15.022C-31.514,15.018 -31.55,15.016 -31.578,15.016C-31.606,15.016 -31.62,15.008 -31.62,14.992C-31.62,14.728 -31.508,14.596 -31.284,14.596C-31.116,14.596 -30.918,14.598 -30.69,14.602C-30.462,14.606 -30.272,14.608 -30.12,14.608C-30.024,14.608 -29.922,14.602 -29.814,14.59C-29.706,14.578 -29.6,14.566 -29.496,14.554C-29.392,14.542 -29.296,14.528 -29.208,14.512C-29.12,14.496 -29.056,14.48 -29.016,14.464C-28.984,14.456 -28.958,14.468 -28.938,14.5C-28.918,14.532 -28.906,14.572 -28.902,14.62C-28.898,14.668 -28.906,14.712 -28.926,14.752C-28.946,14.792 -28.972,14.816 -29.004,14.824C-29.052,14.832 -29.094,14.836 -29.13,14.836C-29.166,14.836 -29.228,14.852 -29.316,14.884C-29.356,14.9 -29.392,14.95 -29.424,15.034C-29.456,15.118 -29.484,15.25 -29.508,15.43C-29.532,15.61 -29.556,15.846 -29.58,16.138C-29.604,16.43 -29.628,16.796 -29.652,17.236C-29.676,17.588 -29.694,17.946 -29.706,18.31C-29.718,18.674 -29.73,19.028 -29.742,19.372C-29.754,19.716 -29.762,20.036 -29.766,20.332C-29.77,20.628 -29.772,20.88 -29.772,21.088C-29.772,21.32 -29.77,21.554 -29.766,21.79C-29.762,22.026 -29.74,22.212 -29.7,22.348C-29.66,22.476 -29.556,22.596 -29.388,22.708C-29.22,22.82 -29.044,22.876 -28.86,22.876C-28.716,22.876 -28.568,22.856 -28.416,22.816C-28.264,22.776 -28.124,22.728 -27.996,22.672C-27.868,22.616 -27.754,22.56 -27.654,22.504C-27.554,22.448 -27.48,22.404 -27.432,22.372Z" style="fill-rule:nonzero;"/>
            <path d="M-24.24,21.724C-24.264,21.588 -24.288,21.44 -24.312,21.28C-24.336,21.12 -24.36,20.968 -24.384,20.824C-24.408,20.68 -24.43,20.556 -24.45,20.452C-24.47,20.348 -24.484,20.28 -24.492,20.248C-24.62,20.296 -24.764,20.352 -24.924,20.416C-25.084,20.48 -25.244,20.55 -25.404,20.626C-25.564,20.702 -25.716,20.778 -25.86,20.854C-26.004,20.93 -26.124,21 -26.22,21.064C-26.404,21.184 -26.544,21.304 -26.64,21.424C-26.736,21.544 -26.784,21.688 -26.784,21.856C-26.784,22.088 -26.716,22.292 -26.58,22.468C-26.444,22.644 -26.232,22.732 -25.944,22.732C-25.792,22.732 -25.634,22.704 -25.47,22.648C-25.306,22.592 -25.154,22.528 -25.014,22.456C-24.874,22.384 -24.752,22.312 -24.648,22.24C-24.544,22.168 -24.472,22.112 -24.432,22.072C-24.368,22.008 -24.318,21.954 -24.282,21.91C-24.246,21.866 -24.232,21.804 -24.24,21.724ZM-24.588,19.864C-24.636,19.616 -24.692,19.394 -24.756,19.198C-24.82,19.002 -24.9,18.838 -24.996,18.706C-25.092,18.574 -25.208,18.474 -25.344,18.406C-25.48,18.338 -25.648,18.304 -25.848,18.304C-26.024,18.304 -26.186,18.336 -26.334,18.4C-26.482,18.464 -26.61,18.54 -26.718,18.628C-26.826,18.716 -26.91,18.804 -26.97,18.892C-27.03,18.98 -27.064,19.048 -27.072,19.096C-27.08,19.16 -27.116,19.192 -27.18,19.192C-27.292,19.192 -27.396,19.152 -27.492,19.072C-27.588,18.992 -27.636,18.896 -27.636,18.784C-27.636,18.72 -27.628,18.672 -27.612,18.64C-27.428,18.536 -27.204,18.424 -26.94,18.304C-26.676,18.184 -26.402,18.072 -26.118,17.968C-25.834,17.864 -25.552,17.778 -25.272,17.71C-24.992,17.642 -24.74,17.608 -24.516,17.608C-24.18,17.608 -23.922,17.656 -23.742,17.752C-23.562,17.848 -23.428,17.984 -23.34,18.16C-23.252,18.336 -23.198,18.542 -23.178,18.778C-23.158,19.014 -23.14,19.268 -23.124,19.54C-23.1,19.948 -23.068,20.342 -23.028,20.722C-22.988,21.102 -22.928,21.438 -22.848,21.73C-22.768,22.022 -22.666,22.258 -22.542,22.438C-22.418,22.618 -22.264,22.708 -22.08,22.708C-21.992,22.708 -21.896,22.692 -21.792,22.66C-21.688,22.628 -21.588,22.59 -21.492,22.546C-21.396,22.502 -21.31,22.458 -21.234,22.414C-21.158,22.37 -21.108,22.34 -21.084,22.324C-21.012,22.324 -20.968,22.36 -20.952,22.432C-20.952,22.472 -20.96,22.508 -20.976,22.54C-20.992,22.556 -21.052,22.596 -21.156,22.66C-21.26,22.724 -21.388,22.8 -21.54,22.888C-21.692,22.976 -21.86,23.07 -22.044,23.17C-22.228,23.27 -22.41,23.364 -22.59,23.452C-22.77,23.54 -22.936,23.612 -23.088,23.668C-23.24,23.724 -23.36,23.752 -23.448,23.752C-23.552,23.752 -23.642,23.71 -23.718,23.626C-23.794,23.542 -23.86,23.43 -23.916,23.29C-23.972,23.15 -24.02,22.988 -24.06,22.804C-24.1,22.62 -24.136,22.428 -24.168,22.228C-24.312,22.348 -24.496,22.49 -24.72,22.654C-24.944,22.818 -25.188,22.972 -25.452,23.116C-25.716,23.26 -25.986,23.382 -26.262,23.482C-26.538,23.582 -26.804,23.632 -27.06,23.632C-27.276,23.632 -27.464,23.598 -27.624,23.53C-27.784,23.462 -27.918,23.372 -28.026,23.26C-28.134,23.148 -28.214,23.018 -28.266,22.87C-28.318,22.722 -28.344,22.568 -28.344,22.408C-28.344,22.152 -28.266,21.942 -28.11,21.778C-27.954,21.614 -27.712,21.444 -27.384,21.268C-27.232,21.188 -27.02,21.082 -26.748,20.95C-26.476,20.818 -26.198,20.684 -25.914,20.548C-25.63,20.412 -25.366,20.282 -25.122,20.158C-24.878,20.034 -24.7,19.936 -24.588,19.864Z" style="fill-rule:nonzero;"/>
            <path d="M-10.356,22.552C-10.332,22.552 -10.316,22.566 -10.308,22.594C-10.3,22.622 -10.296,22.656 -10.296,22.696C-10.296,22.736 -10.304,22.762 -10.32,22.774C-10.336,22.786 -10.352,22.8 -10.368,22.816C-10.424,22.848 -10.558,22.916 -10.77,23.02C-10.982,23.124 -11.218,23.23 -11.478,23.338C-11.738,23.446 -11.994,23.542 -12.246,23.626C-12.498,23.71 -12.688,23.752 -12.816,23.752C-12.928,23.752 -13.034,23.728 -13.134,23.68C-13.234,23.632 -13.276,23.556 -13.26,23.452C-13.244,23.388 -13.226,23.292 -13.206,23.164C-13.186,23.036 -13.168,22.88 -13.152,22.696C-13.136,22.464 -13.118,22.196 -13.098,21.892C-13.078,21.588 -13.068,21.252 -13.068,20.884C-13.068,20.452 -13.096,20.094 -13.152,19.81C-13.208,19.526 -13.288,19.3 -13.392,19.132C-13.496,18.964 -13.624,18.846 -13.776,18.778C-13.928,18.71 -14.104,18.676 -14.304,18.676C-14.488,18.676 -14.644,18.706 -14.772,18.766C-14.9,18.826 -15.012,18.892 -15.108,18.964C-15.284,19.1 -15.422,19.274 -15.522,19.486C-15.622,19.698 -15.684,19.976 -15.708,20.32C-15.716,20.408 -15.722,20.496 -15.726,20.584C-15.73,20.672 -15.734,20.768 -15.738,20.872C-15.742,20.976 -15.746,21.092 -15.75,21.22C-15.754,21.348 -15.756,21.5 -15.756,21.676C-15.756,22.148 -15.718,22.476 -15.642,22.66C-15.566,22.844 -15.436,22.936 -15.252,22.936C-15.188,22.936 -15.148,22.934 -15.132,22.93C-15.116,22.926 -15.084,22.92 -15.036,22.912C-15.02,22.928 -15.004,22.948 -14.988,22.972C-14.964,23.012 -14.968,23.056 -15,23.104C-15.04,23.152 -15.136,23.214 -15.288,23.29C-15.44,23.366 -15.608,23.436 -15.792,23.5C-15.976,23.564 -16.156,23.62 -16.332,23.668C-16.508,23.716 -16.64,23.74 -16.728,23.74C-16.84,23.74 -16.942,23.726 -17.034,23.698C-17.126,23.67 -17.172,23.636 -17.172,23.596C-17.172,23.548 -17.156,23.492 -17.124,23.428C-17.1,23.388 -17.076,23.292 -17.052,23.14C-17.028,22.988 -17.006,22.792 -16.986,22.552C-16.966,22.312 -16.948,22.034 -16.932,21.718C-16.916,21.402 -16.908,21.06 -16.908,20.692C-16.908,20.5 -16.918,20.288 -16.938,20.056C-16.958,19.824 -17.008,19.606 -17.088,19.402C-17.168,19.198 -17.286,19.026 -17.442,18.886C-17.598,18.746 -17.812,18.676 -18.084,18.676C-18.244,18.676 -18.388,18.698 -18.516,18.742C-18.644,18.786 -18.752,18.84 -18.84,18.904C-19.016,19.04 -19.166,19.208 -19.29,19.408C-19.414,19.608 -19.496,19.892 -19.536,20.26C-19.552,20.428 -19.568,20.602 -19.584,20.782C-19.6,20.962 -19.608,21.168 -19.608,21.4C-19.608,21.704 -19.6,21.956 -19.584,22.156C-19.568,22.356 -19.54,22.514 -19.5,22.63C-19.46,22.746 -19.412,22.826 -19.356,22.87C-19.3,22.914 -19.228,22.936 -19.14,22.936C-19.052,22.936 -18.992,22.928 -18.96,22.912C-18.92,22.896 -18.892,22.92 -18.876,22.984C-18.86,23.048 -18.864,23.088 -18.888,23.104C-18.92,23.136 -19.004,23.186 -19.14,23.254C-19.276,23.322 -19.432,23.392 -19.608,23.464C-19.784,23.536 -19.964,23.6 -20.148,23.656C-20.332,23.712 -20.488,23.74 -20.616,23.74C-20.752,23.74 -20.858,23.724 -20.934,23.692C-21.01,23.66 -21.048,23.624 -21.048,23.584C-21.048,23.576 -21.04,23.55 -21.024,23.506C-21.008,23.462 -20.996,23.424 -20.988,23.392C-20.956,23.144 -20.926,22.914 -20.898,22.702C-20.87,22.49 -20.85,22.26 -20.838,22.012C-20.826,21.764 -20.816,21.48 -20.808,21.16C-20.8,20.84 -20.796,20.452 -20.796,19.996C-20.796,19.556 -20.866,19.232 -21.006,19.024C-21.146,18.816 -21.292,18.712 -21.444,18.712C-21.508,18.712 -21.562,18.718 -21.606,18.73C-21.65,18.742 -21.692,18.752 -21.732,18.76C-21.78,18.768 -21.804,18.744 -21.804,18.688L-21.804,18.604C-21.796,18.596 -21.716,18.54 -21.564,18.436C-21.412,18.332 -21.232,18.22 -21.024,18.1C-20.816,17.98 -20.6,17.87 -20.376,17.77C-20.152,17.67 -19.968,17.62 -19.824,17.62C-19.728,17.62 -19.646,17.648 -19.578,17.704C-19.51,17.76 -19.476,17.864 -19.476,18.016C-19.476,18.088 -19.478,18.168 -19.482,18.256C-19.486,18.344 -19.49,18.436 -19.494,18.532C-19.498,18.628 -19.504,18.722 -19.512,18.814C-19.52,18.906 -19.524,18.984 -19.524,19.048C-19.412,18.944 -19.27,18.808 -19.098,18.64C-18.926,18.472 -18.732,18.312 -18.516,18.16C-18.3,18.008 -18.066,17.876 -17.814,17.764C-17.562,17.652 -17.296,17.596 -17.016,17.596C-16.648,17.596 -16.348,17.704 -16.116,17.92C-15.884,18.136 -15.76,18.512 -15.744,19.048C-15.616,18.928 -15.46,18.784 -15.276,18.616C-15.092,18.448 -14.886,18.288 -14.658,18.136C-14.43,17.984 -14.188,17.856 -13.932,17.752C-13.676,17.648 -13.416,17.596 -13.152,17.596C-12.224,17.596 -11.76,18.088 -11.76,19.072C-11.76,19.232 -11.768,19.416 -11.784,19.624C-11.8,19.832 -11.82,20.05 -11.844,20.278C-11.868,20.506 -11.888,20.732 -11.904,20.956C-11.92,21.18 -11.928,21.384 -11.928,21.568C-11.928,22.4 -11.708,22.816 -11.268,22.816C-11.196,22.816 -11.116,22.806 -11.028,22.786C-10.94,22.766 -10.852,22.742 -10.764,22.714C-10.676,22.686 -10.596,22.658 -10.524,22.63C-10.452,22.602 -10.4,22.576 -10.368,22.552L-10.356,22.552Z" style="fill-rule:nonzero;"/>
            <path d="M-4.872,22.192C-4.96,22.288 -5.096,22.42 -5.28,22.588C-5.464,22.756 -5.686,22.924 -5.946,23.092C-6.206,23.26 -6.496,23.404 -6.816,23.524C-7.136,23.644 -7.476,23.704 -7.836,23.704C-8.164,23.704 -8.484,23.654 -8.796,23.554C-9.108,23.454 -9.388,23.302 -9.636,23.098C-9.884,22.894 -10.082,22.634 -10.23,22.318C-10.378,22.002 -10.452,21.624 -10.452,21.184C-10.452,20.824 -10.428,20.514 -10.38,20.254C-10.332,19.994 -10.268,19.766 -10.188,19.57C-10.108,19.374 -10.018,19.206 -9.918,19.066C-9.818,18.926 -9.716,18.8 -9.612,18.688C-9.484,18.544 -9.328,18.408 -9.144,18.28C-8.96,18.152 -8.762,18.036 -8.55,17.932C-8.338,17.828 -8.114,17.746 -7.878,17.686C-7.642,17.626 -7.404,17.596 -7.164,17.596C-6.732,17.596 -6.394,17.668 -6.15,17.812C-5.906,17.956 -5.784,18.156 -5.784,18.412C-5.784,18.572 -5.832,18.72 -5.928,18.856C-5.848,18.832 -5.746,18.792 -5.622,18.736C-5.498,18.68 -5.372,18.622 -5.244,18.562C-5.116,18.502 -5.002,18.448 -4.902,18.4C-4.802,18.352 -4.736,18.316 -4.704,18.292C-4.688,18.276 -4.67,18.27 -4.65,18.274C-4.63,18.278 -4.62,18.292 -4.62,18.316C-4.62,18.42 -4.64,18.506 -4.68,18.574C-4.72,18.642 -4.768,18.696 -4.824,18.736C-4.952,18.816 -5.136,18.916 -5.376,19.036C-5.616,19.156 -5.882,19.282 -6.174,19.414C-6.466,19.546 -6.768,19.678 -7.08,19.81C-7.392,19.942 -7.686,20.068 -7.962,20.188C-8.238,20.308 -8.478,20.414 -8.682,20.506C-8.886,20.598 -9.024,20.664 -9.096,20.704C-9.096,20.976 -9.042,21.23 -8.934,21.466C-8.826,21.702 -8.676,21.908 -8.484,22.084C-8.292,22.26 -8.062,22.398 -7.794,22.498C-7.526,22.598 -7.232,22.648 -6.912,22.648C-6.624,22.648 -6.364,22.618 -6.132,22.558C-5.9,22.498 -5.704,22.43 -5.544,22.354C-5.384,22.278 -5.258,22.21 -5.166,22.15C-5.074,22.09 -5.024,22.06 -5.016,22.06C-4.984,22.06 -4.952,22.074 -4.92,22.102C-4.888,22.13 -4.872,22.16 -4.872,22.192ZM-9.096,20.356C-8.96,20.308 -8.806,20.25 -8.634,20.182C-8.462,20.114 -8.294,20.04 -8.13,19.96C-7.966,19.88 -7.816,19.804 -7.68,19.732C-7.544,19.66 -7.44,19.596 -7.368,19.54C-7.224,19.436 -7.152,19.26 -7.152,19.012C-7.152,18.916 -7.17,18.816 -7.206,18.712C-7.242,18.608 -7.296,18.514 -7.368,18.43C-7.44,18.346 -7.528,18.278 -7.632,18.226C-7.736,18.174 -7.852,18.148 -7.98,18.148C-8.092,18.148 -8.212,18.186 -8.34,18.262C-8.468,18.338 -8.588,18.462 -8.7,18.634C-8.812,18.806 -8.906,19.034 -8.982,19.318C-9.058,19.602 -9.096,19.948 -9.096,20.356Z" style="fill-rule:nonzero;"/>
            <path d="M-38.916,30.64C-38.98,30.624 -39.01,30.592 -39.006,30.544C-39.002,30.496 -38.972,30.468 -38.916,30.46C-38.892,30.452 -38.816,30.424 -38.688,30.376C-38.56,30.328 -38.406,30.272 -38.226,30.208C-38.046,30.144 -37.858,30.076 -37.662,30.004C-37.466,29.932 -37.292,29.872 -37.14,29.824C-37.044,29.792 -36.978,29.77 -36.942,29.758C-36.906,29.746 -36.876,29.74 -36.852,29.74C-36.828,29.74 -36.8,29.75 -36.768,29.77C-36.736,29.79 -36.728,29.82 -36.744,29.86C-36.768,29.924 -36.794,30.076 -36.822,30.316C-36.85,30.556 -36.876,30.822 -36.9,31.114C-36.924,31.406 -36.946,31.696 -36.966,31.984C-36.986,32.272 -36.996,32.5 -36.996,32.668C-36.996,33.308 -36.86,33.802 -36.588,34.15C-36.316,34.498 -35.892,34.672 -35.316,34.672C-35.02,34.672 -34.774,34.612 -34.578,34.492C-34.382,34.372 -34.232,34.232 -34.128,34.072C-34.056,33.968 -34.008,33.74 -33.984,33.388C-33.984,33.324 -33.982,33.24 -33.978,33.136C-33.974,33.032 -33.97,32.922 -33.966,32.806C-33.962,32.69 -33.958,32.578 -33.954,32.47C-33.95,32.362 -33.948,32.272 -33.948,32.2C-33.94,31.832 -33.95,31.49 -33.978,31.174C-34.006,30.858 -34.048,30.624 -34.104,30.472C-34.128,30.376 -34.176,30.328 -34.248,30.328C-34.296,30.328 -34.342,30.33 -34.386,30.334C-34.43,30.338 -34.456,30.304 -34.464,30.232C-34.464,30.208 -34.44,30.182 -34.392,30.154C-34.344,30.126 -34.252,30.084 -34.116,30.028C-33.988,29.98 -33.846,29.932 -33.69,29.884C-33.534,29.836 -33.38,29.796 -33.228,29.764C-33.076,29.732 -32.94,29.71 -32.82,29.698C-32.7,29.686 -32.612,29.692 -32.556,29.716C-32.556,29.724 -32.55,29.734 -32.538,29.746C-32.526,29.758 -32.516,29.784 -32.508,29.824C-32.492,29.872 -32.502,30.022 -32.538,30.274C-32.574,30.526 -32.612,30.936 -32.652,31.504C-32.684,31.896 -32.712,32.276 -32.736,32.644C-32.76,33.012 -32.772,33.292 -32.772,33.484C-32.772,33.86 -32.702,34.158 -32.562,34.378C-32.422,34.598 -32.248,34.708 -32.04,34.708C-31.904,34.708 -31.774,34.68 -31.65,34.624C-31.526,34.568 -31.436,34.52 -31.38,34.48C-31.316,34.48 -31.282,34.508 -31.278,34.564C-31.274,34.62 -31.288,34.656 -31.32,34.672C-31.44,34.752 -31.606,34.852 -31.818,34.972C-32.03,35.092 -32.25,35.206 -32.478,35.314C-32.706,35.422 -32.924,35.514 -33.132,35.59C-33.34,35.666 -33.508,35.704 -33.636,35.704C-33.7,35.704 -33.758,35.662 -33.81,35.578C-33.862,35.494 -33.904,35.392 -33.936,35.272C-33.968,35.152 -33.992,35.028 -34.008,34.9C-34.024,34.772 -34.032,34.66 -34.032,34.564C-34.2,34.684 -34.392,34.81 -34.608,34.942C-34.824,35.074 -35.048,35.198 -35.28,35.314C-35.512,35.43 -35.742,35.524 -35.97,35.596C-36.198,35.668 -36.408,35.704 -36.6,35.704C-37.088,35.704 -37.488,35.574 -37.8,35.314C-38.112,35.054 -38.268,34.716 -38.268,34.3C-38.268,34.212 -38.26,34.08 -38.244,33.904C-38.228,33.728 -38.208,33.528 -38.184,33.304C-38.16,33.08 -38.14,32.84 -38.124,32.584C-38.108,32.328 -38.1,32.08 -38.1,31.84C-38.1,31.472 -38.158,31.19 -38.274,30.994C-38.39,30.798 -38.54,30.688 -38.724,30.664L-38.916,30.64Z" style="fill-rule:nonzero;"/>
            <path d="M-30.156,35.224C-30.124,35.096 -30.09,34.862 -30.054,34.522C-30.018,34.182 -29.986,33.776 -29.958,33.304C-29.93,32.832 -29.908,32.316 -29.892,31.756C-29.876,31.196 -29.868,30.632 -29.868,30.064C-29.868,29.736 -29.876,29.45 -29.892,29.206C-29.908,28.962 -29.94,28.784 -29.988,28.672C-30.084,28.712 -30.222,28.77 -30.402,28.846C-30.582,28.922 -30.736,28.992 -30.864,29.056C-30.896,29.056 -30.93,29.03 -30.966,28.978C-31.002,28.926 -31.02,28.872 -31.02,28.816C-31.02,28.792 -31.016,28.768 -31.008,28.744C-30.856,28.696 -30.656,28.634 -30.408,28.558C-30.16,28.482 -29.904,28.398 -29.64,28.306C-29.376,28.214 -29.122,28.12 -28.878,28.024C-28.634,27.928 -28.44,27.832 -28.296,27.736C-28.296,27.752 -28.29,27.762 -28.278,27.766C-28.266,27.77 -28.26,27.788 -28.26,27.82C-28.3,27.884 -28.34,28.02 -28.38,28.228C-28.42,28.436 -28.454,28.684 -28.482,28.972C-28.51,29.26 -28.534,29.576 -28.554,29.92C-28.574,30.264 -28.59,30.606 -28.602,30.946C-28.614,31.286 -28.624,31.608 -28.632,31.912C-28.64,32.216 -28.644,32.476 -28.644,32.692C-28.644,32.94 -28.642,33.18 -28.638,33.412C-28.634,33.644 -28.626,33.86 -28.614,34.06C-28.602,34.26 -28.584,34.442 -28.56,34.606C-28.536,34.77 -28.504,34.904 -28.464,35.008C-28.448,35.064 -28.408,35.114 -28.344,35.158C-28.28,35.202 -28.206,35.242 -28.122,35.278C-28.038,35.314 -27.948,35.342 -27.852,35.362C-27.756,35.382 -27.672,35.392 -27.6,35.392C-27.568,35.392 -27.544,35.406 -27.528,35.434C-27.512,35.462 -27.504,35.484 -27.504,35.5C-27.504,35.572 -27.532,35.608 -27.588,35.608C-27.772,35.616 -27.962,35.62 -28.158,35.62C-28.354,35.62 -28.546,35.618 -28.734,35.614C-28.922,35.61 -29.094,35.606 -29.25,35.602C-29.406,35.598 -29.536,35.596 -29.64,35.596C-29.864,35.596 -30.09,35.602 -30.318,35.614C-30.546,35.626 -30.708,35.64 -30.804,35.656C-30.876,35.656 -30.912,35.624 -30.912,35.56C-30.912,35.512 -30.9,35.48 -30.876,35.464C-30.852,35.448 -30.82,35.436 -30.78,35.428C-30.652,35.412 -30.518,35.386 -30.378,35.35C-30.238,35.314 -30.164,35.272 -30.156,35.224Z" style="fill-rule:nonzero;"/>
            <path d="M-25.512,31.456C-25.36,31.296 -25.188,31.132 -24.996,30.964C-24.804,30.796 -24.598,30.646 -24.378,30.514C-24.158,30.382 -23.93,30.274 -23.694,30.19C-23.458,30.106 -23.224,30.064 -22.992,30.064C-22.32,30.064 -21.784,30.25 -21.384,30.622C-20.984,30.994 -20.784,31.496 -20.784,32.128C-20.784,32.392 -20.81,32.632 -20.862,32.848C-20.914,33.064 -20.984,33.26 -21.072,33.436C-21.16,33.612 -21.264,33.774 -21.384,33.922C-21.504,34.07 -21.632,34.216 -21.768,34.36C-21.944,34.544 -22.14,34.716 -22.356,34.876C-22.572,35.036 -22.792,35.176 -23.016,35.296C-23.24,35.416 -23.46,35.512 -23.676,35.584C-23.892,35.656 -24.084,35.692 -24.252,35.692C-24.628,35.692 -24.972,35.618 -25.284,35.47C-25.596,35.322 -25.866,35.112 -26.094,34.84C-26.322,34.568 -26.5,34.246 -26.628,33.874C-26.756,33.502 -26.82,33.088 -26.82,32.632C-26.82,32.248 -26.788,31.9 -26.724,31.588C-26.66,31.276 -26.574,30.996 -26.466,30.748C-26.358,30.5 -26.236,30.276 -26.1,30.076C-25.964,29.876 -25.824,29.692 -25.68,29.524C-25.472,29.284 -25.218,29.044 -24.918,28.804C-24.618,28.564 -24.314,28.334 -24.006,28.114C-23.698,27.894 -23.408,27.692 -23.136,27.508C-22.864,27.324 -22.648,27.168 -22.488,27.04C-22.376,27.04 -22.308,27.086 -22.284,27.178C-22.26,27.27 -22.248,27.372 -22.248,27.484C-22.248,27.596 -22.26,27.684 -22.284,27.748C-22.308,27.812 -22.356,27.864 -22.428,27.904C-22.852,27.968 -23.244,28.094 -23.604,28.282C-23.964,28.47 -24.278,28.716 -24.546,29.02C-24.814,29.324 -25.032,29.68 -25.2,30.088C-25.368,30.496 -25.472,30.952 -25.512,31.456ZM-23.58,35.044C-23.196,35.044 -22.868,34.84 -22.596,34.432C-22.324,34.024 -22.184,33.452 -22.176,32.716C-22.176,32.46 -22.216,32.22 -22.296,31.996C-22.376,31.772 -22.486,31.576 -22.626,31.408C-22.766,31.24 -22.93,31.108 -23.118,31.012C-23.306,30.916 -23.508,30.868 -23.724,30.868C-23.932,30.868 -24.144,30.908 -24.36,30.988C-24.576,31.068 -24.772,31.18 -24.948,31.324C-25.124,31.468 -25.27,31.638 -25.386,31.834C-25.502,32.03 -25.56,32.244 -25.56,32.476C-25.56,32.9 -25.506,33.272 -25.398,33.592C-25.29,33.912 -25.146,34.18 -24.966,34.396C-24.786,34.612 -24.576,34.774 -24.336,34.882C-24.096,34.99 -23.844,35.044 -23.58,35.044Z" style="fill-rule:nonzero;"/>
            <path d="M-13.044,35.008C-12.996,35.2 -12.828,35.32 -12.54,35.368C-12.468,35.376 -12.432,35.416 -12.432,35.488C-12.432,35.528 -12.452,35.564 -12.492,35.596C-12.532,35.628 -12.584,35.644 -12.648,35.644C-12.768,35.644 -12.928,35.636 -13.128,35.62C-13.328,35.604 -13.612,35.596 -13.98,35.596C-14.276,35.596 -14.536,35.606 -14.76,35.626C-14.984,35.646 -15.12,35.66 -15.168,35.668C-15.208,35.668 -15.236,35.656 -15.252,35.632C-15.268,35.608 -15.276,35.58 -15.276,35.548C-15.276,35.516 -15.27,35.484 -15.258,35.452C-15.246,35.42 -15.228,35.404 -15.204,35.404C-15.148,35.396 -15.092,35.38 -15.036,35.356C-14.98,35.332 -14.928,35.3 -14.88,35.26C-14.856,35.236 -14.826,35.108 -14.79,34.876C-14.754,34.644 -14.722,34.338 -14.694,33.958C-14.666,33.578 -14.642,33.14 -14.622,32.644C-14.602,32.148 -14.592,31.624 -14.592,31.072L-14.592,29.776C-14.592,29.376 -14.612,29.052 -14.652,28.804C-14.724,28.276 -14.892,27.87 -15.156,27.586C-15.42,27.302 -15.728,27.16 -16.08,27.16C-16.392,27.16 -16.7,27.246 -17.004,27.418C-17.308,27.59 -17.58,27.842 -17.82,28.174C-18.06,28.506 -18.254,28.918 -18.402,29.41C-18.55,29.902 -18.624,30.464 -18.624,31.096C-18.624,31.792 -18.546,32.398 -18.39,32.914C-18.234,33.43 -18.028,33.862 -17.772,34.21C-17.516,34.558 -17.222,34.818 -16.89,34.99C-16.558,35.162 -16.212,35.248 -15.852,35.248L-15.786,35.248C-15.758,35.248 -15.736,35.244 -15.72,35.236C-15.688,35.22 -15.668,35.22 -15.66,35.236C-15.652,35.252 -15.652,35.274 -15.66,35.302C-15.668,35.33 -15.678,35.358 -15.69,35.386C-15.702,35.414 -15.716,35.432 -15.732,35.44C-15.812,35.496 -15.924,35.546 -16.068,35.59C-16.212,35.634 -16.412,35.656 -16.668,35.656C-17.092,35.656 -17.514,35.558 -17.934,35.362C-18.354,35.166 -18.73,34.892 -19.062,34.54C-19.394,34.188 -19.662,33.762 -19.866,33.262C-20.07,32.762 -20.172,32.212 -20.172,31.612C-20.172,30.756 -20.048,30.024 -19.8,29.416C-19.552,28.808 -19.214,28.312 -18.786,27.928C-18.358,27.544 -17.862,27.262 -17.298,27.082C-16.734,26.902 -16.132,26.812 -15.492,26.812C-15.26,26.812 -15.048,26.836 -14.856,26.884C-14.664,26.932 -14.496,26.99 -14.352,27.058C-14.208,27.126 -14.09,27.192 -13.998,27.256C-13.906,27.32 -13.844,27.368 -13.812,27.4C-13.748,27.352 -13.618,27.294 -13.422,27.226C-13.226,27.158 -13.002,27.094 -12.75,27.034C-12.498,26.974 -12.236,26.922 -11.964,26.878C-11.692,26.834 -11.444,26.812 -11.22,26.812C-10.612,26.828 -10.078,26.928 -9.618,27.112C-9.158,27.296 -8.774,27.542 -8.466,27.85C-8.158,28.158 -7.926,28.514 -7.77,28.918C-7.614,29.322 -7.536,29.752 -7.536,30.208C-7.536,31.064 -7.65,31.826 -7.878,32.494C-8.106,33.162 -8.412,33.728 -8.796,34.192C-9.18,34.656 -9.624,35.01 -10.128,35.254C-10.632,35.498 -11.16,35.62 -11.712,35.62C-11.76,35.62 -11.792,35.602 -11.808,35.566C-11.824,35.53 -11.83,35.492 -11.826,35.452C-11.822,35.412 -11.808,35.378 -11.784,35.35C-11.76,35.322 -11.736,35.312 -11.712,35.32C-11.672,35.336 -11.64,35.344 -11.616,35.344L-11.52,35.344C-11.192,35.344 -10.884,35.232 -10.596,35.008C-10.308,34.784 -10.056,34.474 -9.84,34.078C-9.624,33.682 -9.454,33.214 -9.33,32.674C-9.206,32.134 -9.144,31.544 -9.144,30.904C-9.144,29.712 -9.326,28.784 -9.69,28.12C-10.054,27.456 -10.616,27.124 -11.376,27.124C-11.608,27.124 -11.824,27.172 -12.024,27.268C-12.224,27.364 -12.398,27.49 -12.546,27.646C-12.694,27.802 -12.814,27.98 -12.906,28.18C-12.998,28.38 -13.056,28.584 -13.08,28.792C-13.12,29.072 -13.144,29.52 -13.152,30.136C-13.16,30.752 -13.168,31.496 -13.176,32.368C-13.184,33.008 -13.178,33.566 -13.158,34.042C-13.138,34.518 -13.1,34.84 -13.044,35.008Z" style="fill-rule:nonzero;"/>
            <path d="M-0.996,35.656C-1.076,35.656 -1.184,35.66 -1.32,35.668C-1.456,35.676 -1.602,35.682 -1.758,35.686C-1.914,35.69 -2.074,35.696 -2.238,35.704C-2.402,35.712 -2.552,35.716 -2.688,35.716C-3.224,35.716 -3.748,35.634 -4.26,35.47C-4.772,35.306 -5.226,35.05 -5.622,34.702C-6.018,34.354 -6.338,33.906 -6.582,33.358C-6.826,32.81 -6.948,32.152 -6.948,31.384C-6.948,30.68 -6.814,30.056 -6.546,29.512C-6.278,28.968 -5.924,28.512 -5.484,28.144C-5.044,27.776 -4.548,27.496 -3.996,27.304C-3.444,27.112 -2.88,27.016 -2.304,27.016C-2.176,27.016 -2.002,27.024 -1.782,27.04C-1.562,27.056 -1.342,27.076 -1.122,27.1C-0.902,27.124 -0.706,27.15 -0.534,27.178C-0.362,27.206 -0.252,27.232 -0.204,27.256C-0.1,26.976 0.016,26.728 0.144,26.512C0.272,26.296 0.448,26.132 0.672,26.02C0.736,25.996 0.808,25.992 0.888,26.008C0.968,26.024 1.008,26.064 1.008,26.128C0.968,26.2 0.938,26.244 0.918,26.26C0.898,26.276 0.872,26.284 0.84,26.284C0.744,26.284 0.65,26.328 0.558,26.416C0.466,26.504 0.38,26.618 0.3,26.758C0.22,26.898 0.15,27.058 0.09,27.238C0.03,27.418 -0.016,27.6 -0.048,27.784C-0.064,27.872 -0.082,27.974 -0.102,28.09C-0.122,28.206 -0.14,28.32 -0.156,28.432C-0.172,28.544 -0.184,28.652 -0.192,28.756C-0.2,28.86 -0.204,28.948 -0.204,29.02C-0.204,29.06 -0.22,29.094 -0.252,29.122C-0.284,29.15 -0.316,29.164 -0.348,29.164C-0.396,29.164 -0.452,29.14 -0.516,29.092C-0.548,28.892 -0.614,28.692 -0.714,28.492C-0.814,28.292 -0.954,28.112 -1.134,27.952C-1.314,27.792 -1.538,27.664 -1.806,27.568C-2.074,27.472 -2.392,27.424 -2.76,27.424C-3.152,27.424 -3.502,27.516 -3.81,27.7C-4.118,27.884 -4.378,28.136 -4.59,28.456C-4.802,28.776 -4.964,29.156 -5.076,29.596C-5.188,30.036 -5.244,30.508 -5.244,31.012C-5.244,31.708 -5.174,32.326 -5.034,32.866C-4.894,33.406 -4.7,33.864 -4.452,34.24C-4.204,34.616 -3.908,34.902 -3.564,35.098C-3.22,35.294 -2.844,35.392 -2.436,35.392C-2.164,35.392 -1.898,35.348 -1.638,35.26C-1.378,35.172 -1.138,35.052 -0.918,34.9C-0.698,34.748 -0.502,34.572 -0.33,34.372C-0.158,34.172 -0.024,33.96 0.072,33.736C0.088,33.704 0.13,33.68 0.198,33.664C0.266,33.648 0.3,33.656 0.3,33.688C0.3,33.792 0.266,33.934 0.198,34.114C0.13,34.294 0.052,34.474 -0.036,34.654C-0.124,34.834 -0.212,34.998 -0.3,35.146C-0.388,35.294 -0.448,35.392 -0.48,35.44C-0.504,35.496 -0.534,35.57 -0.57,35.662C-0.606,35.754 -0.638,35.858 -0.666,35.974C-0.694,36.09 -0.72,36.21 -0.744,36.334C-0.768,36.458 -0.78,36.58 -0.78,36.7C-0.78,36.828 -0.796,36.908 -0.828,36.94C-0.86,36.972 -0.928,36.988 -1.032,36.988C-1.12,36.988 -1.16,36.926 -1.152,36.802C-1.144,36.678 -1.124,36.536 -1.092,36.376C-1.06,36.216 -1.028,36.066 -0.996,35.926C-0.964,35.786 -0.964,35.696 -0.996,35.656Z" style="fill-rule:nonzero;"/>
            <path d="M6.756,35.656C6.676,35.656 6.568,35.66 6.432,35.668C6.296,35.676 6.15,35.682 5.994,35.686C5.838,35.69 5.678,35.696 5.514,35.704C5.35,35.712 5.2,35.716 5.064,35.716C4.528,35.716 4.004,35.634 3.492,35.47C2.98,35.306 2.526,35.05 2.13,34.702C1.734,34.354 1.414,33.906 1.17,33.358C0.926,32.81 0.804,32.152 0.804,31.384C0.804,30.68 0.938,30.056 1.206,29.512C1.474,28.968 1.828,28.512 2.268,28.144C2.708,27.776 3.204,27.496 3.756,27.304C4.308,27.112 4.872,27.016 5.448,27.016C5.576,27.016 5.75,27.024 5.97,27.04C6.19,27.056 6.41,27.076 6.63,27.1C6.85,27.124 7.046,27.15 7.218,27.178C7.39,27.206 7.5,27.232 7.548,27.256C7.652,26.976 7.768,26.728 7.896,26.512C8.024,26.296 8.2,26.132 8.424,26.02C8.488,25.996 8.56,25.992 8.64,26.008C8.72,26.024 8.76,26.064 8.76,26.128C8.72,26.2 8.69,26.244 8.67,26.26C8.65,26.276 8.624,26.284 8.592,26.284C8.496,26.284 8.402,26.328 8.31,26.416C8.218,26.504 8.132,26.618 8.052,26.758C7.972,26.898 7.902,27.058 7.842,27.238C7.782,27.418 7.736,27.6 7.704,27.784C7.688,27.872 7.67,27.974 7.65,28.09C7.63,28.206 7.612,28.32 7.596,28.432C7.58,28.544 7.568,28.652 7.56,28.756C7.552,28.86 7.548,28.948 7.548,29.02C7.548,29.06 7.532,29.094 7.5,29.122C7.468,29.15 7.436,29.164 7.404,29.164C7.356,29.164 7.3,29.14 7.236,29.092C7.204,28.892 7.138,28.692 7.038,28.492C6.938,28.292 6.798,28.112 6.618,27.952C6.438,27.792 6.214,27.664 5.946,27.568C5.678,27.472 5.36,27.424 4.992,27.424C4.6,27.424 4.25,27.516 3.942,27.7C3.634,27.884 3.374,28.136 3.162,28.456C2.95,28.776 2.788,29.156 2.676,29.596C2.564,30.036 2.508,30.508 2.508,31.012C2.508,31.708 2.578,32.326 2.718,32.866C2.858,33.406 3.052,33.864 3.3,34.24C3.548,34.616 3.844,34.902 4.188,35.098C4.532,35.294 4.908,35.392 5.316,35.392C5.588,35.392 5.854,35.348 6.114,35.26C6.374,35.172 6.614,35.052 6.834,34.9C7.054,34.748 7.25,34.572 7.422,34.372C7.594,34.172 7.728,33.96 7.824,33.736C7.84,33.704 7.882,33.68 7.95,33.664C8.018,33.648 8.052,33.656 8.052,33.688C8.052,33.792 8.018,33.934 7.95,34.114C7.882,34.294 7.804,34.474 7.716,34.654C7.628,34.834 7.54,34.998 7.452,35.146C7.364,35.294 7.304,35.392 7.272,35.44C7.248,35.496 7.218,35.57 7.182,35.662C7.146,35.754 7.114,35.858 7.086,35.974C7.058,36.09 7.032,36.21 7.008,36.334C6.984,36.458 6.972,36.58 6.972,36.7C6.972,36.828 6.956,36.908 6.924,36.94C6.892,36.972 6.824,36.988 6.72,36.988C6.632,36.988 6.592,36.926 6.6,36.802C6.608,36.678 6.628,36.536 6.66,36.376C6.692,36.216 6.724,36.066 6.756,35.926C6.788,35.786 6.788,35.696 6.756,35.656Z" style="fill-rule:nonzero;"/>
            <path d="M-38.964,44.62C-38.98,44.62 -38.996,44.618 -39.012,44.614C-39.028,44.61 -39.04,44.596 -39.048,44.572C-39.048,44.564 -39.038,44.536 -39.018,44.488C-38.998,44.44 -38.964,44.388 -38.916,44.332C-38.868,44.276 -38.808,44.226 -38.736,44.182C-38.664,44.138 -38.576,44.116 -38.472,44.116C-38.344,44.116 -38.24,44.15 -38.16,44.218C-38.08,44.286 -38.016,44.38 -37.968,44.5C-37.92,44.62 -37.888,44.758 -37.872,44.914C-37.856,45.07 -37.848,45.236 -37.848,45.412C-37.824,45.604 -37.734,45.8 -37.578,46C-37.422,46.2 -37.23,46.38 -37.002,46.54C-36.774,46.7 -36.524,46.832 -36.252,46.936C-35.98,47.04 -35.716,47.096 -35.46,47.104C-34.852,47.12 -34.408,46.99 -34.128,46.714C-33.848,46.438 -33.708,46.084 -33.708,45.652C-33.708,45.292 -33.776,45 -33.912,44.776C-34.048,44.552 -34.23,44.372 -34.458,44.236C-34.686,44.1 -34.944,43.99 -35.232,43.906C-35.52,43.822 -35.814,43.744 -36.114,43.672C-36.414,43.6 -36.708,43.52 -36.996,43.432C-37.284,43.344 -37.542,43.224 -37.77,43.072C-37.998,42.92 -38.18,42.722 -38.316,42.478C-38.452,42.234 -38.52,41.92 -38.52,41.536C-38.52,41.168 -38.438,40.818 -38.274,40.486C-38.11,40.154 -37.876,39.862 -37.572,39.61C-37.268,39.358 -36.898,39.158 -36.462,39.01C-36.026,38.862 -35.532,38.788 -34.98,38.788C-34.452,38.788 -34,38.84 -33.624,38.944C-33.248,39.048 -32.96,39.128 -32.76,39.184C-32.72,39.12 -32.676,39.046 -32.628,38.962C-32.58,38.878 -32.526,38.8 -32.466,38.728C-32.406,38.656 -32.34,38.594 -32.268,38.542C-32.196,38.49 -32.112,38.464 -32.016,38.464C-31.944,38.464 -31.886,38.486 -31.842,38.53C-31.798,38.574 -31.776,38.616 -31.776,38.656C-31.792,38.696 -31.824,38.728 -31.872,38.752C-31.92,38.776 -31.964,38.8 -32.004,38.824C-32.252,38.952 -32.458,39.25 -32.622,39.718C-32.786,40.186 -32.88,40.76 -32.904,41.44C-32.912,41.456 -32.932,41.468 -32.964,41.476C-32.996,41.484 -33.032,41.488 -33.072,41.488C-33.136,41.488 -33.18,41.484 -33.204,41.476C-33.228,41.236 -33.3,40.992 -33.42,40.744C-33.54,40.496 -33.706,40.27 -33.918,40.066C-34.13,39.862 -34.39,39.696 -34.698,39.568C-35.006,39.44 -35.356,39.376 -35.748,39.376C-35.988,39.376 -36.204,39.41 -36.396,39.478C-36.588,39.546 -36.75,39.638 -36.882,39.754C-37.014,39.87 -37.114,40 -37.182,40.144C-37.25,40.288 -37.284,40.432 -37.284,40.576C-37.284,40.912 -37.148,41.218 -36.876,41.494C-36.604,41.77 -36.192,41.976 -35.64,42.112C-35.296,42.2 -34.938,42.298 -34.566,42.406C-34.194,42.514 -33.856,42.66 -33.552,42.844C-33.248,43.028 -32.996,43.26 -32.796,43.54C-32.596,43.82 -32.496,44.176 -32.496,44.608C-32.496,45.032 -32.594,45.438 -32.79,45.826C-32.986,46.214 -33.244,46.556 -33.564,46.852C-33.884,47.148 -34.248,47.384 -34.656,47.56C-35.064,47.736 -35.48,47.824 -35.904,47.824C-36.232,47.824 -36.552,47.802 -36.864,47.758C-37.176,47.714 -37.464,47.662 -37.728,47.602C-37.992,47.542 -38.224,47.478 -38.424,47.41C-38.624,47.342 -38.772,47.284 -38.868,47.236C-38.796,47.108 -38.722,46.972 -38.646,46.828C-38.57,46.684 -38.498,46.532 -38.43,46.372C-38.362,46.212 -38.306,46.046 -38.262,45.874C-38.218,45.702 -38.196,45.52 -38.196,45.328C-38.196,45.048 -38.238,44.836 -38.322,44.692C-38.406,44.548 -38.504,44.476 -38.616,44.476C-38.696,44.476 -38.752,44.492 -38.784,44.524C-38.816,44.556 -38.856,44.604 -38.904,44.668L-38.964,44.62Z" style="fill-rule:nonzero;"/>
            <path d="M-26.184,46.192C-26.272,46.288 -26.408,46.42 -26.592,46.588C-26.776,46.756 -26.998,46.924 -27.258,47.092C-27.518,47.26 -27.808,47.404 -28.128,47.524C-28.448,47.644 -28.788,47.704 -29.148,47.704C-29.476,47.704 -29.796,47.654 -30.108,47.554C-30.42,47.454 -30.7,47.302 -30.948,47.098C-31.196,46.894 -31.394,46.634 -31.542,46.318C-31.69,46.002 -31.764,45.624 -31.764,45.184C-31.764,44.824 -31.74,44.514 -31.692,44.254C-31.644,43.994 -31.58,43.766 -31.5,43.57C-31.42,43.374 -31.33,43.206 -31.23,43.066C-31.13,42.926 -31.028,42.8 -30.924,42.688C-30.796,42.544 -30.64,42.408 -30.456,42.28C-30.272,42.152 -30.074,42.036 -29.862,41.932C-29.65,41.828 -29.426,41.746 -29.19,41.686C-28.954,41.626 -28.716,41.596 -28.476,41.596C-28.044,41.596 -27.706,41.668 -27.462,41.812C-27.218,41.956 -27.096,42.156 -27.096,42.412C-27.096,42.572 -27.144,42.72 -27.24,42.856C-27.16,42.832 -27.058,42.792 -26.934,42.736C-26.81,42.68 -26.684,42.622 -26.556,42.562C-26.428,42.502 -26.314,42.448 -26.214,42.4C-26.114,42.352 -26.048,42.316 -26.016,42.292C-26,42.276 -25.982,42.27 -25.962,42.274C-25.942,42.278 -25.932,42.292 -25.932,42.316C-25.932,42.42 -25.952,42.506 -25.992,42.574C-26.032,42.642 -26.08,42.696 -26.136,42.736C-26.264,42.816 -26.448,42.916 -26.688,43.036C-26.928,43.156 -27.194,43.282 -27.486,43.414C-27.778,43.546 -28.08,43.678 -28.392,43.81C-28.704,43.942 -28.998,44.068 -29.274,44.188C-29.55,44.308 -29.79,44.414 -29.994,44.506C-30.198,44.598 -30.336,44.664 -30.408,44.704C-30.408,44.976 -30.354,45.23 -30.246,45.466C-30.138,45.702 -29.988,45.908 -29.796,46.084C-29.604,46.26 -29.374,46.398 -29.106,46.498C-28.838,46.598 -28.544,46.648 -28.224,46.648C-27.936,46.648 -27.676,46.618 -27.444,46.558C-27.212,46.498 -27.016,46.43 -26.856,46.354C-26.696,46.278 -26.57,46.21 -26.478,46.15C-26.386,46.09 -26.336,46.06 -26.328,46.06C-26.296,46.06 -26.264,46.074 -26.232,46.102C-26.2,46.13 -26.184,46.16 -26.184,46.192ZM-30.408,44.356C-30.272,44.308 -30.118,44.25 -29.946,44.182C-29.774,44.114 -29.606,44.04 -29.442,43.96C-29.278,43.88 -29.128,43.804 -28.992,43.732C-28.856,43.66 -28.752,43.596 -28.68,43.54C-28.536,43.436 -28.464,43.26 -28.464,43.012C-28.464,42.916 -28.482,42.816 -28.518,42.712C-28.554,42.608 -28.608,42.514 -28.68,42.43C-28.752,42.346 -28.84,42.278 -28.944,42.226C-29.048,42.174 -29.164,42.148 -29.292,42.148C-29.404,42.148 -29.524,42.186 -29.652,42.262C-29.78,42.338 -29.9,42.462 -30.012,42.634C-30.124,42.806 -30.218,43.034 -30.294,43.318C-30.37,43.602 -30.408,43.948 -30.408,44.356Z" style="fill-rule:nonzero;"/>
            <path d="M-24.228,44.428C-24.236,44.5 -24.244,44.564 -24.252,44.62C-24.26,44.676 -24.266,44.74 -24.27,44.812C-24.274,44.884 -24.278,44.974 -24.282,45.082C-24.286,45.19 -24.288,45.332 -24.288,45.508C-24.288,45.796 -24.278,46.032 -24.258,46.216C-24.238,46.4 -24.208,46.546 -24.168,46.654C-24.128,46.762 -24.078,46.836 -24.018,46.876C-23.958,46.916 -23.884,46.936 -23.796,46.936C-23.74,46.936 -23.68,46.928 -23.616,46.912C-23.6,46.912 -23.586,46.934 -23.574,46.978C-23.562,47.022 -23.564,47.052 -23.58,47.068C-23.628,47.108 -23.722,47.166 -23.862,47.242C-24.002,47.318 -24.16,47.392 -24.336,47.464C-24.512,47.536 -24.694,47.6 -24.882,47.656C-25.07,47.712 -25.228,47.74 -25.356,47.74C-25.468,47.74 -25.556,47.726 -25.62,47.698C-25.684,47.67 -25.716,47.636 -25.716,47.596C-25.716,47.556 -25.712,47.532 -25.704,47.524C-25.696,47.516 -25.684,47.496 -25.668,47.464C-25.652,47.424 -25.64,47.374 -25.632,47.314C-25.624,47.254 -25.612,47.184 -25.596,47.104C-25.58,46.992 -25.564,46.85 -25.548,46.678C-25.532,46.506 -25.516,46.318 -25.5,46.114C-25.484,45.91 -25.47,45.698 -25.458,45.478C-25.446,45.258 -25.44,45.044 -25.44,44.836C-25.44,44.748 -25.442,44.638 -25.446,44.506C-25.45,44.374 -25.456,44.204 -25.464,43.996C-25.472,43.764 -25.498,43.566 -25.542,43.402C-25.586,43.238 -25.642,43.106 -25.71,43.006C-25.778,42.906 -25.854,42.832 -25.938,42.784C-26.022,42.736 -26.104,42.712 -26.184,42.712L-26.304,42.712C-26.344,42.712 -26.384,42.716 -26.424,42.724C-26.456,42.724 -26.472,42.688 -26.472,42.616C-26.472,42.6 -26.466,42.586 -26.454,42.574C-26.442,42.562 -26.404,42.536 -26.34,42.496C-26.236,42.424 -26.096,42.336 -25.92,42.232C-25.744,42.128 -25.564,42.032 -25.38,41.944C-25.196,41.856 -25.022,41.78 -24.858,41.716C-24.694,41.652 -24.568,41.62 -24.48,41.62C-24.248,41.62 -24.132,41.752 -24.132,42.016C-24.132,42.056 -24.136,42.128 -24.144,42.232C-24.152,42.336 -24.158,42.442 -24.162,42.55C-24.166,42.658 -24.172,42.76 -24.18,42.856C-24.188,42.952 -24.192,43.016 -24.192,43.048C-24.024,42.888 -23.844,42.724 -23.652,42.556C-23.46,42.388 -23.252,42.234 -23.028,42.094C-22.804,41.954 -22.568,41.84 -22.32,41.752C-22.072,41.664 -21.816,41.62 -21.552,41.62C-21.072,41.62 -20.678,41.758 -20.37,42.034C-20.062,42.31 -19.908,42.748 -19.908,43.348C-19.908,43.508 -19.918,43.696 -19.938,43.912C-19.958,44.128 -19.98,44.352 -20.004,44.584C-20.028,44.816 -20.05,45.044 -20.07,45.268C-20.09,45.492 -20.1,45.692 -20.1,45.868C-20.1,46.508 -19.892,46.828 -19.476,46.828C-19.396,46.828 -19.306,46.814 -19.206,46.786C-19.106,46.758 -19.01,46.726 -18.918,46.69C-18.826,46.654 -18.744,46.618 -18.672,46.582C-18.6,46.546 -18.552,46.516 -18.528,46.492C-18.52,46.484 -18.51,46.49 -18.498,46.51C-18.486,46.53 -18.476,46.556 -18.468,46.588C-18.46,46.62 -18.458,46.648 -18.462,46.672C-18.466,46.696 -18.472,46.712 -18.48,46.72C-18.544,46.76 -18.682,46.836 -18.894,46.948C-19.106,47.06 -19.342,47.174 -19.602,47.29C-19.862,47.406 -20.12,47.51 -20.376,47.602C-20.632,47.694 -20.836,47.74 -20.988,47.74C-21.172,47.74 -21.298,47.696 -21.366,47.608C-21.434,47.52 -21.468,47.428 -21.468,47.332C-21.468,47.268 -21.458,47.188 -21.438,47.092C-21.418,46.996 -21.392,46.84 -21.36,46.624C-21.328,46.392 -21.298,46.12 -21.27,45.808C-21.242,45.496 -21.228,45.16 -21.228,44.8C-21.228,44.096 -21.358,43.562 -21.618,43.198C-21.878,42.834 -22.204,42.652 -22.596,42.652C-22.844,42.652 -23.064,42.7 -23.256,42.796C-23.448,42.892 -23.612,43.022 -23.748,43.186C-23.884,43.35 -23.992,43.538 -24.072,43.75C-24.152,43.962 -24.204,44.188 -24.228,44.428Z" style="fill-rule:nonzero;"/>
            <path d="M-14.112,46.636C-14.184,46.708 -14.3,46.804 -14.46,46.924C-14.62,47.044 -14.808,47.162 -15.024,47.278C-15.24,47.394 -15.474,47.494 -15.726,47.578C-15.978,47.662 -16.232,47.704 -16.488,47.704C-16.752,47.704 -17.016,47.644 -17.28,47.524C-17.544,47.404 -17.782,47.23 -17.994,47.002C-18.206,46.774 -18.376,46.5 -18.504,46.18C-18.632,45.86 -18.696,45.5 -18.696,45.1C-18.696,44.58 -18.606,44.108 -18.426,43.684C-18.246,43.26 -17.982,42.9 -17.634,42.604C-17.286,42.308 -16.862,42.08 -16.362,41.92C-15.862,41.76 -15.288,41.68 -14.64,41.68L-14.316,41.68C-14.212,41.68 -14.116,41.684 -14.028,41.692L-14.028,41.302C-14.028,41.114 -14.03,40.92 -14.034,40.72C-14.038,40.52 -14.042,40.336 -14.046,40.168C-14.05,40 -14.052,39.896 -14.052,39.856C-14.084,39.536 -14.138,39.312 -14.214,39.184C-14.29,39.056 -14.444,38.992 -14.676,38.992C-14.708,38.992 -14.726,38.956 -14.73,38.884C-14.734,38.812 -14.708,38.756 -14.652,38.716C-14.588,38.676 -14.516,38.646 -14.436,38.626C-14.356,38.606 -14.236,38.596 -14.076,38.596C-13.772,38.596 -13.518,38.594 -13.314,38.59C-13.11,38.586 -12.942,38.578 -12.81,38.566C-12.678,38.554 -12.572,38.538 -12.492,38.518C-12.412,38.498 -12.344,38.476 -12.288,38.452C-12.248,38.444 -12.214,38.454 -12.186,38.482C-12.158,38.51 -12.138,38.546 -12.126,38.59C-12.114,38.634 -12.112,38.676 -12.12,38.716C-12.128,38.756 -12.152,38.78 -12.192,38.788C-12.28,38.804 -12.346,38.822 -12.39,38.842C-12.434,38.862 -12.476,38.9 -12.516,38.956C-12.556,39.012 -12.592,39.16 -12.624,39.4C-12.656,39.64 -12.688,39.936 -12.72,40.288C-12.752,40.64 -12.78,41.03 -12.804,41.458C-12.828,41.886 -12.848,42.316 -12.864,42.748C-12.88,43.18 -12.894,43.6 -12.906,44.008C-12.918,44.416 -12.924,44.772 -12.924,45.076C-12.924,45.66 -12.86,46.09 -12.732,46.366C-12.604,46.642 -12.408,46.78 -12.144,46.78C-12.048,46.78 -11.942,46.764 -11.826,46.732C-11.71,46.7 -11.602,46.662 -11.502,46.618C-11.402,46.574 -11.31,46.53 -11.226,46.486C-11.142,46.442 -11.08,46.404 -11.04,46.372C-11,46.34 -10.964,46.36 -10.932,46.432C-10.9,46.504 -10.904,46.552 -10.944,46.576C-11.04,46.632 -11.19,46.714 -11.394,46.822C-11.598,46.93 -11.824,47.044 -12.072,47.164C-12.376,47.316 -12.684,47.452 -12.996,47.572C-13.308,47.692 -13.56,47.752 -13.752,47.752C-13.896,47.752 -13.994,47.728 -14.046,47.68C-14.098,47.632 -14.124,47.556 -14.124,47.452L-14.124,47.29C-14.124,47.214 -14.122,47.134 -14.118,47.05C-14.114,46.966 -14.112,46.886 -14.112,46.81L-14.112,46.636ZM-14.268,46.228C-14.204,46.14 -14.156,46.038 -14.124,45.922C-14.092,45.806 -14.068,45.648 -14.052,45.448C-14.036,45.28 -14.028,45.074 -14.028,44.83L-14.028,44.188C-14.028,44.004 -14.03,43.808 -14.034,43.6C-14.038,43.392 -14.044,43.248 -14.052,43.168C-14.068,43.032 -14.124,42.904 -14.22,42.784C-14.316,42.664 -14.44,42.56 -14.592,42.472C-14.744,42.384 -14.922,42.314 -15.126,42.262C-15.33,42.21 -15.544,42.184 -15.768,42.184C-15.984,42.184 -16.188,42.22 -16.38,42.292C-16.572,42.364 -16.738,42.48 -16.878,42.64C-17.018,42.8 -17.128,43.006 -17.208,43.258C-17.288,43.51 -17.328,43.82 -17.328,44.188C-17.328,44.564 -17.276,44.906 -17.172,45.214C-17.068,45.522 -16.924,45.788 -16.74,46.012C-16.556,46.236 -16.336,46.41 -16.08,46.534C-15.824,46.658 -15.544,46.72 -15.24,46.72C-15.12,46.72 -15.008,46.702 -14.904,46.666C-14.8,46.63 -14.706,46.586 -14.622,46.534C-14.538,46.482 -14.464,46.428 -14.4,46.372C-14.336,46.316 -14.292,46.268 -14.268,46.228Z" style="fill-rule:nonzero;"/>
            <path d="M-6.012,46.192C-6.1,46.288 -6.236,46.42 -6.42,46.588C-6.604,46.756 -6.826,46.924 -7.086,47.092C-7.346,47.26 -7.636,47.404 -7.956,47.524C-8.276,47.644 -8.616,47.704 -8.976,47.704C-9.304,47.704 -9.624,47.654 -9.936,47.554C-10.248,47.454 -10.528,47.302 -10.776,47.098C-11.024,46.894 -11.222,46.634 -11.37,46.318C-11.518,46.002 -11.592,45.624 -11.592,45.184C-11.592,44.824 -11.568,44.514 -11.52,44.254C-11.472,43.994 -11.408,43.766 -11.328,43.57C-11.248,43.374 -11.158,43.206 -11.058,43.066C-10.958,42.926 -10.856,42.8 -10.752,42.688C-10.624,42.544 -10.468,42.408 -10.284,42.28C-10.1,42.152 -9.902,42.036 -9.69,41.932C-9.478,41.828 -9.254,41.746 -9.018,41.686C-8.782,41.626 -8.544,41.596 -8.304,41.596C-7.872,41.596 -7.534,41.668 -7.29,41.812C-7.046,41.956 -6.924,42.156 -6.924,42.412C-6.924,42.572 -6.972,42.72 -7.068,42.856C-6.988,42.832 -6.886,42.792 -6.762,42.736C-6.638,42.68 -6.512,42.622 -6.384,42.562C-6.256,42.502 -6.142,42.448 -6.042,42.4C-5.942,42.352 -5.876,42.316 -5.844,42.292C-5.828,42.276 -5.81,42.27 -5.79,42.274C-5.77,42.278 -5.76,42.292 -5.76,42.316C-5.76,42.42 -5.78,42.506 -5.82,42.574C-5.86,42.642 -5.908,42.696 -5.964,42.736C-6.092,42.816 -6.276,42.916 -6.516,43.036C-6.756,43.156 -7.022,43.282 -7.314,43.414C-7.606,43.546 -7.908,43.678 -8.22,43.81C-8.532,43.942 -8.826,44.068 -9.102,44.188C-9.378,44.308 -9.618,44.414 -9.822,44.506C-10.026,44.598 -10.164,44.664 -10.236,44.704C-10.236,44.976 -10.182,45.23 -10.074,45.466C-9.966,45.702 -9.816,45.908 -9.624,46.084C-9.432,46.26 -9.202,46.398 -8.934,46.498C-8.666,46.598 -8.372,46.648 -8.052,46.648C-7.764,46.648 -7.504,46.618 -7.272,46.558C-7.04,46.498 -6.844,46.43 -6.684,46.354C-6.524,46.278 -6.398,46.21 -6.306,46.15C-6.214,46.09 -6.164,46.06 -6.156,46.06C-6.124,46.06 -6.092,46.074 -6.06,46.102C-6.028,46.13 -6.012,46.16 -6.012,46.192ZM-10.236,44.356C-10.1,44.308 -9.946,44.25 -9.774,44.182C-9.602,44.114 -9.434,44.04 -9.27,43.96C-9.106,43.88 -8.956,43.804 -8.82,43.732C-8.684,43.66 -8.58,43.596 -8.508,43.54C-8.364,43.436 -8.292,43.26 -8.292,43.012C-8.292,42.916 -8.31,42.816 -8.346,42.712C-8.382,42.608 -8.436,42.514 -8.508,42.43C-8.58,42.346 -8.668,42.278 -8.772,42.226C-8.876,42.174 -8.992,42.148 -9.12,42.148C-9.232,42.148 -9.352,42.186 -9.48,42.262C-9.608,42.338 -9.728,42.462 -9.84,42.634C-9.952,42.806 -10.046,43.034 -10.122,43.318C-10.198,43.602 -10.236,43.948 -10.236,44.356Z" style="fill-rule:nonzero;"/>
            <path d="M-0.444,42.496C-0.532,42.568 -0.636,42.658 -0.756,42.766C-0.876,42.874 -1.002,42.978 -1.134,43.078C-1.266,43.178 -1.4,43.264 -1.536,43.336C-1.672,43.408 -1.804,43.444 -1.932,43.444C-2.044,43.444 -2.144,43.418 -2.232,43.366C-2.32,43.314 -2.402,43.258 -2.478,43.198C-2.554,43.138 -2.628,43.082 -2.7,43.03C-2.772,42.978 -2.848,42.952 -2.928,42.952C-3.144,42.952 -3.326,43.04 -3.474,43.216C-3.622,43.392 -3.742,43.616 -3.834,43.888C-3.926,44.16 -3.994,44.456 -4.038,44.776C-4.082,45.096 -4.104,45.404 -4.104,45.7C-4.104,45.948 -4.094,46.15 -4.074,46.306C-4.054,46.462 -4.024,46.586 -3.984,46.678C-3.944,46.77 -3.89,46.832 -3.822,46.864C-3.754,46.896 -3.672,46.912 -3.576,46.912C-3.472,46.912 -3.36,46.896 -3.24,46.864C-3.216,46.856 -3.198,46.872 -3.186,46.912C-3.174,46.952 -3.168,46.984 -3.168,47.008C-3.168,47.024 -3.18,47.042 -3.204,47.062C-3.228,47.082 -3.244,47.092 -3.252,47.092C-3.428,47.164 -3.608,47.242 -3.792,47.326C-3.976,47.41 -4.128,47.48 -4.248,47.536C-4.36,47.584 -4.494,47.636 -4.65,47.692C-4.806,47.748 -4.94,47.776 -5.052,47.776C-5.18,47.776 -5.286,47.756 -5.37,47.716C-5.454,47.676 -5.496,47.636 -5.496,47.596C-5.496,47.556 -5.486,47.52 -5.466,47.488C-5.446,47.456 -5.428,47.396 -5.412,47.308C-5.396,47.188 -5.378,47.046 -5.358,46.882C-5.338,46.718 -5.318,46.54 -5.298,46.348C-5.278,46.156 -5.262,45.958 -5.25,45.754C-5.238,45.55 -5.232,45.348 -5.232,45.148C-5.232,44.7 -5.246,44.32 -5.274,44.008C-5.302,43.696 -5.352,43.444 -5.424,43.252C-5.496,43.06 -5.594,42.922 -5.718,42.838C-5.842,42.754 -6,42.712 -6.192,42.712L-6.3,42.712C-6.332,42.712 -6.364,42.716 -6.396,42.724C-6.444,42.724 -6.468,42.7 -6.468,42.652C-6.468,42.604 -6.444,42.568 -6.396,42.544C-6.308,42.488 -6.172,42.406 -5.988,42.298C-5.804,42.19 -5.614,42.086 -5.418,41.986C-5.222,41.886 -5.032,41.796 -4.848,41.716C-4.664,41.636 -4.528,41.596 -4.44,41.596C-4.336,41.596 -4.248,41.63 -4.176,41.698C-4.104,41.766 -4.05,41.852 -4.014,41.956C-3.978,42.06 -3.952,42.178 -3.936,42.31C-3.92,42.442 -3.912,42.572 -3.912,42.7C-3.912,42.796 -3.914,42.896 -3.918,43C-3.922,43.104 -3.924,43.216 -3.924,43.336C-3.564,42.808 -3.24,42.398 -2.952,42.106C-2.664,41.814 -2.392,41.668 -2.136,41.668C-2.04,41.668 -1.946,41.708 -1.854,41.788C-1.762,41.868 -1.664,41.958 -1.56,42.058C-1.456,42.158 -1.348,42.248 -1.236,42.328C-1.124,42.408 -1.008,42.448 -0.888,42.448C-0.784,42.448 -0.708,42.436 -0.66,42.412C-0.612,42.388 -0.572,42.368 -0.54,42.352C-0.476,42.352 -0.444,42.396 -0.444,42.484L-0.444,42.496Z" style="fill-rule:nonzero;"/>
        </g>
        <g transform="matrix(1,0,0,1,45.1227,-3.95975)">
            <text x="-39.144px" y="23.596px" style="font-family:'Luminari-Regular', 'Luminari';font-size:12px;">Flame</text>
            <text x="-39.144px" y="35.596px" style="font-family:'Luminari-Regular', 'Luminari';font-size:12px;">u16MCC</text>
            <text x="-39.144px" y="47.596px" style="font-family:'Luminari-Regular', 'Luminari';font-size:12px;">Sender</text>
        </g>
        <g transform="matrix(0.0196522,0,0,0.0222919,-17.7006,14.875)">
            <g transform="matrix(1,0,0,1,-143.343,98.6554)">
                <ellipse cx="360.896" cy="293.762" rx="136.961" ry="230.443" style="fill:rgb(235,235,235);stroke:black;stroke-width:58.09px;"/>
            </g>
            <g transform="matrix(1,0,0,1,445.551,98.6554)">
                <ellipse cx="360.896" cy="293.762" rx="136.961" ry="230.443" style="fill:rgb(235,235,235);stroke:black;stroke-width:58.09px;"/>
            </g>
            <g transform="matrix(1,0,0,1,-34.3236,-20.6488)">
                <ellipse cx="546.324" cy="643.509" rx="431.408" ry="296.899" style="fill:rgb(235,235,235);stroke:black;stroke-width:58.09px;"/>
            </g>
            <circle cx="406.664" cy="569.758" r="105.336" style="fill:rgb(235,235,235);stroke:black;stroke-width:58.09px;"/>
            <g transform="matrix(1,0,0,1,210.672,0)">
                <circle cx="406.664" cy="569.758" r="105.336" style="fill:rgb(235,235,235);stroke:black;stroke-width:58.09px;"/>
            </g>
            <g transform="matrix(1,0,0,1,-53.1856,50.0357)">
                <ellipse cx="565.186" cy="671.455" rx="210.672" ry="98.631" style="fill:rgb(235,235,235);stroke:black;stroke-width:58.09px;"/>
            </g>
            <g transform="matrix(51.2,0,0,45.1371,0.670978,88.9676)">
                <path d="M12.057,13.791C12.057,13.668 11.958,13.568 11.835,13.568L8.139,13.568C8.016,13.568 7.916,13.668 7.916,13.791L7.916,14.236C7.916,14.359 8.016,14.458 8.139,14.458L11.835,14.458C11.958,14.458 12.057,14.359 12.057,14.236L12.057,13.791Z"/>
            </g>
        </g>
    </g>
</svg>
