<?xml version="1.0" encoding="UTF-8" standalone="no"?>
<!DOCTYPE svg PUBLIC "-//W3C//DTD SVG 1.1//EN" "http://www.w3.org/Graphics/SVG/1.1/DTD/svg11.dtd">
<svg width="100%" height="100%" viewBox="0 0 75 380" version="1.1" xmlns="http://www.w3.org/2000/svg" xmlns:xlink="http://www.w3.org/1999/xlink" xml:space="preserve" xmlns:serif="http://www.serif.com/" style="fill-rule:evenodd;clip-rule:evenodd;stroke-linecap:round;stroke-linejoin:round;stroke-miterlimit:1.5;">
    <g transform="matrix(1.35538,0,0,3.82264,-4.36585,-309.338)">
        <rect x="3.221" y="80.923" width="55.335" height="99.408" style="fill:rgb(235,235,235);"/>
    </g>
    <g id="Row8" transform="matrix(1,0,0,1,-97.8599,-16.7658)">
        <g transform="matrix(1.49606,0,0,0.845522,83.0965,183.288)">
            <rect x="10" y="171.552" width="50" height="38.756" style="fill:rgb(128,128,128);"/>
        </g>
        <g id="Out-output" serif:id="Out#output" transform="matrix(0.175002,0,0,0.175002,128.212,311.785)">
            <rect x="53.94" y="106.916" width="161.978" height="161.978" style="fill:rgb(77,77,77);"/>
        </g>
        <g id="In-input" serif:id="In#input" transform="matrix(0.175002,0,0,0.175002,95.2817,311.748)">
            <rect x="53.94" y="106.916" width="161.978" height="161.978" style="fill:rgb(217,217,217);"/>
        </g>
    </g>
    <g id="Row7" transform="matrix(1,0,0,1,-97.8599,-54.057)">
        <g transform="matrix(1.49606,0,0,0.845522,83.0965,183.288)">
            <rect x="10" y="171.552" width="50" height="38.756" style="fill:rgb(128,128,128);"/>
        </g>
        <g id="Out-output1" serif:id="Out#output" transform="matrix(0.175002,0,0,0.175002,128.212,311.785)">
            <rect x="53.94" y="106.916" width="161.978" height="161.978" style="fill:rgb(77,77,77);"/>
        </g>
        <g id="In-input1" serif:id="In#input" transform="matrix(0.175002,0,0,0.175002,95.2817,311.748)">
            <rect x="53.94" y="106.916" width="161.978" height="161.978" style="fill:rgb(217,217,217);"/>
        </g>
    </g>
    <g id="Row6" transform="matrix(1,0,0,1,-97.8599,-91.3483)">
        <g transform="matrix(1.49606,0,0,0.845522,83.0965,183.288)">
            <rect x="10" y="171.552" width="50" height="38.756" style="fill:rgb(128,128,128);"/>
        </g>
        <g id="Out-output2" serif:id="Out#output" transform="matrix(0.175002,0,0,0.175002,128.212,311.785)">
            <rect x="53.94" y="106.916" width="161.978" height="161.978" style="fill:rgb(77,77,77);"/>
        </g>
        <g id="In-input2" serif:id="In#input" transform="matrix(0.175002,0,0,0.175002,95.2817,311.748)">
            <rect x="53.94" y="106.916" width="161.978" height="161.978" style="fill:rgb(217,217,217);"/>
        </g>
    </g>
    <g id="Row5" transform="matrix(1,0,0,1,-97.8599,-128.64)">
        <g transform="matrix(1.49606,0,0,0.845522,83.0965,183.288)">
            <rect x="10" y="171.552" width="50" height="38.756" style="fill:rgb(128,128,128);"/>
        </g>
        <g id="Out-output3" serif:id="Out#output" transform="matrix(0.175002,0,0,0.175002,128.212,311.785)">
            <rect x="53.94" y="106.916" width="161.978" height="161.978" style="fill:rgb(77,77,77);"/>
        </g>
        <g id="In-input3" serif:id="In#input" transform="matrix(0.175002,0,0,0.175002,95.2817,311.748)">
            <rect x="53.94" y="106.916" width="161.978" height="161.978" style="fill:rgb(217,217,217);"/>
        </g>
    </g>
    <g id="Row4" transform="matrix(1,0,0,1,-97.8599,-165.931)">
        <g transform="matrix(1.49606,0,0,0.845522,83.0965,183.288)">
            <rect x="10" y="171.552" width="50" height="38.756" style="fill:rgb(128,128,128);"/>
        </g>
        <g id="Out-output4" serif:id="Out#output" transform="matrix(0.175002,0,0,0.175002,128.212,311.785)">
            <rect x="53.94" y="106.916" width="161.978" height="161.978" style="fill:rgb(77,77,77);"/>
        </g>
        <g id="In-input4" serif:id="In#input" transform="matrix(0.175002,0,0,0.175002,95.2817,311.748)">
            <rect x="53.94" y="106.916" width="161.978" height="161.978" style="fill:rgb(217,217,217);"/>
        </g>
    </g>
    <g id="Row3" transform="matrix(1,0,0,1,-97.8599,-203.222)">
        <g transform="matrix(1.49606,0,0,0.845522,83.0965,183.288)">
            <rect x="10" y="171.552" width="50" height="38.756" style="fill:rgb(128,128,128);"/>
        </g>
        <g id="Out-output5" serif:id="Out#output" transform="matrix(0.175002,0,0,0.175002,128.212,311.785)">
            <rect x="53.94" y="106.916" width="161.978" height="161.978" style="fill:rgb(77,77,77);"/>
        </g>
        <g id="In-input5" serif:id="In#input" transform="matrix(0.175002,0,0,0.175002,95.2817,311.748)">
            <rect x="53.94" y="106.916" width="161.978" height="161.978" style="fill:rgb(217,217,217);"/>
        </g>
    </g>
    <g id="Row2" transform="matrix(1,0,0,1,-97.8599,-240.513)">
        <g transform="matrix(1.49606,0,0,0.845522,83.0965,183.288)">
            <rect x="10" y="171.552" width="50" height="38.756" style="fill:rgb(128,128,128);"/>
        </g>
        <g id="Out-output6" serif:id="Out#output" transform="matrix(0.175002,0,0,0.175002,128.212,311.785)">
            <rect x="53.94" y="106.916" width="161.978" height="161.978" style="fill:rgb(77,77,77);"/>
        </g>
        <g id="In-input6" serif:id="In#input" transform="matrix(0.175002,0,0,0.175002,95.2817,311.748)">
            <rect x="53.94" y="106.916" width="161.978" height="161.978" style="fill:rgb(217,217,217);"/>
        </g>
    </g>
    <g id="Row1" transform="matrix(1,0,0,1,-97.8599,-277.805)">
        <g transform="matrix(1.49606,0,0,0.845522,83.0965,183.288)">
            <rect x="10" y="171.552" width="50" height="38.756" style="fill:rgb(128,128,128);"/>
        </g>
        <g id="Out-output7" serif:id="Out#output" transform="matrix(0.175002,0,0,0.175002,128.212,311.785)">
            <rect x="53.94" y="106.916" width="161.978" height="161.978" style="fill:rgb(77,77,77);"/>
        </g>
        <g id="In-input7" serif:id="In#input" transform="matrix(0.175002,0,0,0.175002,95.2817,311.748)">
            <rect x="53.94" y="106.916" width="161.978" height="161.978" style="fill:rgb(217,217,217);"/>
        </g>
    </g>
    <g>
        <g transform="matrix(1,0,0,1,-43.1853,-71.3908)">
            <path d="M92.088,118.306L92.088,111.186L93.108,111.186L93.108,113.726L93.128,113.726C93.235,113.566 93.363,113.435 93.513,113.331C93.663,113.228 93.855,113.176 94.088,113.176C94.215,113.176 94.341,113.198 94.468,113.241C94.595,113.285 94.708,113.356 94.808,113.456C94.908,113.556 94.988,113.685 95.048,113.841C95.108,113.998 95.138,114.19 95.138,114.416L95.138,118.306L94.118,118.306L94.118,114.796C94.118,114.61 94.075,114.463 93.988,114.356C93.901,114.25 93.778,114.196 93.618,114.196C93.425,114.196 93.291,114.256 93.218,114.376C93.145,114.496 93.108,114.67 93.108,114.896L93.108,118.306L92.088,118.306Z" style="fill:rgb(5,5,5);fill-rule:nonzero;"/>
            <path d="M97.908,118.306L97.908,117.786L97.888,117.786C97.755,117.973 97.62,118.116 97.483,118.216C97.346,118.316 97.155,118.366 96.908,118.366C96.788,118.366 96.666,118.348 96.543,118.311C96.42,118.275 96.301,118.206 96.188,118.106C96.075,118.013 95.983,117.878 95.913,117.701C95.843,117.525 95.808,117.296 95.808,117.016C95.808,116.73 95.831,116.478 95.878,116.261C95.925,116.045 96.011,115.863 96.138,115.716C96.258,115.576 96.421,115.471 96.628,115.401C96.835,115.331 97.098,115.296 97.418,115.296L97.528,115.296C97.568,115.296 97.605,115.3 97.638,115.306C97.671,115.313 97.711,115.316 97.758,115.316C97.805,115.316 97.855,115.32 97.908,115.326L97.908,114.796C97.908,114.623 97.871,114.48 97.798,114.366C97.725,114.253 97.591,114.196 97.398,114.196C97.265,114.196 97.143,114.24 97.033,114.326C96.923,114.413 96.851,114.54 96.818,114.706L95.828,114.706C95.855,114.253 96.008,113.886 96.288,113.606C96.421,113.473 96.581,113.368 96.768,113.291C96.955,113.215 97.165,113.176 97.398,113.176C97.611,113.176 97.811,113.21 97.998,113.276C98.185,113.343 98.348,113.443 98.488,113.576C98.621,113.71 98.728,113.876 98.808,114.076C98.888,114.276 98.928,114.51 98.928,114.776L98.928,118.306L97.908,118.306ZM97.908,116.126C97.795,116.106 97.701,116.096 97.628,116.096C97.408,116.096 97.22,116.148 97.063,116.251C96.906,116.355 96.828,116.543 96.828,116.816C96.828,117.01 96.875,117.166 96.968,117.286C97.061,117.406 97.191,117.466 97.358,117.466C97.531,117.466 97.666,117.41 97.763,117.296C97.86,117.183 97.908,117.023 97.908,116.816L97.908,116.126Z" style="fill:rgb(5,5,5);fill-rule:nonzero;"/>
            <path d="M99.618,111.186L100.638,111.186L100.638,116.876C100.638,117.07 100.673,117.201 100.743,117.271C100.813,117.341 100.945,117.386 101.138,117.406L101.138,118.366C100.905,118.366 100.695,118.348 100.508,118.311C100.321,118.275 100.161,118.203 100.028,118.096C99.895,117.996 99.793,117.855 99.723,117.671C99.653,117.488 99.618,117.246 99.618,116.946L99.618,111.186Z" style="fill:rgb(5,5,5);fill-rule:nonzero;"/>
            <path d="M101.668,118.306L101.668,114.036L101.168,114.036L101.168,113.236L101.668,113.236L101.668,112.546C101.668,112.3 101.705,112.091 101.778,111.921C101.851,111.751 101.951,111.61 102.078,111.496C102.198,111.383 102.336,111.303 102.493,111.256C102.65,111.21 102.811,111.186 102.978,111.186L103.448,111.186L103.448,112.146L102.988,112.146C102.788,112.146 102.688,112.263 102.688,112.496L102.688,113.236L103.448,113.236L103.448,114.036L102.688,114.036L102.688,118.306L101.668,118.306Z" style="fill:rgb(5,5,5);fill-rule:nonzero;"/>
        </g>
        <g transform="matrix(1,0,0,1,-43.1853,-71.3908)">
            <text x="91.668px" y="118.306px" style="font-family:'DINCondensed-Bold', 'DIN Condensed';font-weight:700;font-stretch:condensed;font-size:10px;fill:rgb(5,5,5);">half</text>
        </g>
        <g transform="matrix(1,0,0,1,-77.6625,-71.3908)">
            <path d="M93.138,118.306L93.138,114.036L92.638,114.036L92.638,113.236L93.138,113.236L93.138,112.546C93.138,112.3 93.175,112.091 93.248,111.921C93.321,111.751 93.421,111.61 93.548,111.496C93.668,111.383 93.806,111.303 93.963,111.256C94.12,111.21 94.281,111.186 94.448,111.186L94.918,111.186L94.918,112.146L94.458,112.146C94.258,112.146 94.158,112.263 94.158,112.496L94.158,113.236L94.918,113.236L94.918,114.036L94.158,114.036L94.158,118.306L93.138,118.306Z" style="fill:rgb(5,5,5);fill-rule:nonzero;"/>
            <path d="M98.278,113.236L98.278,118.306L97.258,118.306L97.258,117.816L97.238,117.816C97.131,117.976 97.003,118.108 96.853,118.211C96.703,118.315 96.511,118.366 96.278,118.366C96.151,118.366 96.025,118.345 95.898,118.301C95.771,118.258 95.658,118.186 95.558,118.086C95.458,117.986 95.378,117.858 95.318,117.701C95.258,117.545 95.228,117.353 95.228,117.126L95.228,113.236L96.248,113.236L96.248,116.746C96.248,116.933 96.291,117.08 96.378,117.186C96.465,117.293 96.588,117.346 96.748,117.346C96.941,117.346 97.075,117.286 97.148,117.166C97.221,117.046 97.258,116.873 97.258,116.646L97.258,113.236L98.278,113.236Z" style="fill:rgb(5,5,5);fill-rule:nonzero;"/>
            <path d="M99.058,111.186L100.078,111.186L100.078,116.876C100.078,117.07 100.113,117.201 100.183,117.271C100.253,117.341 100.385,117.386 100.578,117.406L100.578,118.366C100.345,118.366 100.135,118.348 99.948,118.311C99.761,118.275 99.601,118.203 99.468,118.096C99.335,117.996 99.233,117.855 99.163,117.671C99.093,117.488 99.058,117.246 99.058,116.946L99.058,111.186Z" style="fill:rgb(5,5,5);fill-rule:nonzero;"/>
            <path d="M100.918,111.186L101.938,111.186L101.938,116.876C101.938,117.07 101.973,117.201 102.043,117.271C102.113,117.341 102.245,117.386 102.438,117.406L102.438,118.366C102.205,118.366 101.995,118.348 101.808,118.311C101.621,118.275 101.461,118.203 101.328,118.096C101.195,117.996 101.093,117.855 101.023,117.671C100.953,117.488 100.918,117.246 100.918,116.946L100.918,111.186Z" style="fill:rgb(5,5,5);fill-rule:nonzero;"/>
        </g>
        <g transform="matrix(1,0,0,1,-77.6625,-71.3908)">
            <text x="92.588px" y="118.306px" style="font-family:'DINCondensed-Bold', 'DIN Condensed';font-weight:700;font-stretch:condensed;font-size:10px;fill:rgb(5,5,5);">full</text>
        </g>
    </g>
    <g transform="matrix(1,0,0,1,26.1168,0)">
        <g transform="matrix(1,0,0,1,45.1227,-3.95975)">
            <path d="M-31.668,24.28C-31.652,24.28 -31.636,24.304 -31.62,24.352C-31.604,24.4 -31.604,24.44 -31.62,24.472C-31.652,24.544 -31.71,24.624 -31.794,24.712C-31.878,24.8 -31.986,24.884 -32.118,24.964C-32.25,25.044 -32.402,25.112 -32.574,25.168C-32.746,25.224 -32.928,25.252 -33.12,25.252C-33.28,25.252 -33.412,25.224 -33.516,25.168C-33.62,25.112 -33.706,25.046 -33.774,24.97C-33.842,24.894 -33.89,24.814 -33.918,24.73C-33.946,24.646 -33.96,24.576 -33.96,24.52C-33.96,24.408 -33.918,24.294 -33.834,24.178C-33.75,24.062 -33.642,23.926 -33.51,23.77C-33.378,23.614 -33.238,23.428 -33.09,23.212C-32.942,22.996 -32.802,22.734 -32.67,22.426C-32.538,22.118 -32.43,21.754 -32.346,21.334C-32.262,20.914 -32.22,20.416 -32.22,19.84C-32.22,18.936 -32.42,18.244 -32.82,17.764C-33.22,17.284 -33.736,17.044 -34.368,17.044C-34.536,17.044 -34.74,17.09 -34.98,17.182C-35.22,17.274 -35.45,17.402 -35.67,17.566C-35.89,17.73 -36.08,17.926 -36.24,18.154C-36.4,18.382 -36.484,18.632 -36.492,18.904C-36.5,19.048 -36.506,19.216 -36.51,19.408C-36.514,19.6 -36.516,19.804 -36.516,20.02L-36.516,21.34C-36.508,21.772 -36.492,22.156 -36.468,22.492C-36.444,22.828 -36.408,23.04 -36.36,23.128C-36.296,23.224 -36.186,23.28 -36.03,23.296C-35.874,23.312 -35.728,23.32 -35.592,23.32C-35.52,23.32 -35.484,23.372 -35.484,23.476C-35.484,23.572 -35.532,23.62 -35.628,23.62C-35.676,23.62 -35.758,23.618 -35.874,23.614C-35.99,23.61 -36.118,23.608 -36.258,23.608C-36.398,23.608 -36.538,23.606 -36.678,23.602C-36.818,23.598 -36.932,23.596 -37.02,23.596C-37.228,23.596 -37.448,23.598 -37.68,23.602C-37.912,23.606 -38.132,23.61 -38.34,23.614C-38.548,23.618 -38.73,23.624 -38.886,23.632C-39.042,23.64 -39.144,23.648 -39.192,23.656C-39.216,23.656 -39.232,23.64 -39.24,23.608C-39.248,23.576 -39.248,23.54 -39.24,23.5C-39.232,23.46 -39.216,23.424 -39.192,23.392C-39.168,23.36 -39.144,23.344 -39.12,23.344C-38.96,23.344 -38.798,23.33 -38.634,23.302C-38.47,23.274 -38.368,23.244 -38.328,23.212C-38.264,23.164 -38.206,23.008 -38.154,22.744C-38.102,22.48 -38.056,22.152 -38.016,21.76C-37.976,21.368 -37.944,20.938 -37.92,20.47C-37.896,20.002 -37.884,19.544 -37.884,19.096C-37.884,18.192 -37.888,17.484 -37.896,16.972C-37.904,16.46 -37.926,16.078 -37.962,15.826C-37.998,15.574 -38.05,15.42 -38.118,15.364C-38.186,15.308 -38.276,15.28 -38.388,15.28C-38.42,15.28 -38.466,15.282 -38.526,15.286C-38.586,15.29 -38.648,15.296 -38.712,15.304C-38.776,15.312 -38.834,15.318 -38.886,15.322C-38.938,15.326 -38.972,15.328 -38.988,15.328C-39.004,15.328 -39.014,15.312 -39.018,15.28C-39.022,15.248 -39.024,15.216 -39.024,15.184C-39.024,15.152 -39.02,15.108 -39.012,15.052C-39.004,14.996 -38.98,14.968 -38.94,14.968L-38.784,14.968C-38.72,14.968 -38.62,14.97 -38.484,14.974C-38.348,14.978 -38.166,14.982 -37.938,14.986C-37.71,14.99 -37.412,14.992 -37.044,14.992C-35.82,14.992 -34.746,14.936 -33.822,14.824C-32.898,14.712 -32.092,14.552 -31.404,14.344C-31.332,14.32 -31.286,14.318 -31.266,14.338C-31.246,14.358 -31.236,14.392 -31.236,14.44C-31.236,14.496 -31.27,14.57 -31.338,14.662C-31.406,14.754 -31.49,14.846 -31.59,14.938C-31.69,15.03 -31.798,15.108 -31.914,15.172C-32.03,15.236 -32.14,15.268 -32.244,15.268C-32.38,15.268 -32.548,15.264 -32.748,15.256C-32.948,15.248 -33.164,15.24 -33.396,15.232C-33.628,15.224 -33.872,15.218 -34.128,15.214C-34.384,15.21 -34.636,15.208 -34.884,15.208C-35.284,15.208 -35.61,15.238 -35.862,15.298C-36.114,15.358 -36.26,15.448 -36.3,15.568C-36.372,15.736 -36.416,15.986 -36.432,16.318C-36.448,16.65 -36.456,17.136 -36.456,17.776C-36.376,17.696 -36.226,17.568 -36.006,17.392C-35.786,17.216 -35.526,17.038 -35.226,16.858C-34.926,16.678 -34.6,16.518 -34.248,16.378C-33.896,16.238 -33.544,16.168 -33.192,16.168C-32.856,16.168 -32.532,16.23 -32.22,16.354C-31.908,16.478 -31.632,16.648 -31.392,16.864C-31.152,17.08 -30.96,17.334 -30.816,17.626C-30.672,17.918 -30.6,18.232 -30.6,18.568C-30.6,18.936 -30.652,19.288 -30.756,19.624C-30.86,19.96 -30.992,20.282 -31.152,20.59C-31.312,20.898 -31.484,21.196 -31.668,21.484C-31.852,21.772 -32.024,22.052 -32.184,22.324C-32.344,22.596 -32.476,22.862 -32.58,23.122C-32.684,23.382 -32.736,23.636 -32.736,23.884C-32.736,24.044 -32.686,24.178 -32.586,24.286C-32.486,24.394 -32.328,24.448 -32.112,24.448C-32.008,24.448 -31.916,24.43 -31.836,24.394C-31.756,24.358 -31.704,24.32 -31.68,24.28L-31.668,24.28Z" style="fill-rule:nonzero;"/>
            <path d="M-26.028,21.724C-26.052,21.588 -26.076,21.44 -26.1,21.28C-26.124,21.12 -26.148,20.968 -26.172,20.824C-26.196,20.68 -26.218,20.556 -26.238,20.452C-26.258,20.348 -26.272,20.28 -26.28,20.248C-26.408,20.296 -26.552,20.352 -26.712,20.416C-26.872,20.48 -27.032,20.55 -27.192,20.626C-27.352,20.702 -27.504,20.778 -27.648,20.854C-27.792,20.93 -27.912,21 -28.008,21.064C-28.192,21.184 -28.332,21.304 -28.428,21.424C-28.524,21.544 -28.572,21.688 -28.572,21.856C-28.572,22.088 -28.504,22.292 -28.368,22.468C-28.232,22.644 -28.02,22.732 -27.732,22.732C-27.58,22.732 -27.422,22.704 -27.258,22.648C-27.094,22.592 -26.942,22.528 -26.802,22.456C-26.662,22.384 -26.54,22.312 -26.436,22.24C-26.332,22.168 -26.26,22.112 -26.22,22.072C-26.156,22.008 -26.106,21.954 -26.07,21.91C-26.034,21.866 -26.02,21.804 -26.028,21.724ZM-26.376,19.864C-26.424,19.616 -26.48,19.394 -26.544,19.198C-26.608,19.002 -26.688,18.838 -26.784,18.706C-26.88,18.574 -26.996,18.474 -27.132,18.406C-27.268,18.338 -27.436,18.304 -27.636,18.304C-27.812,18.304 -27.974,18.336 -28.122,18.4C-28.27,18.464 -28.398,18.54 -28.506,18.628C-28.614,18.716 -28.698,18.804 -28.758,18.892C-28.818,18.98 -28.852,19.048 -28.86,19.096C-28.868,19.16 -28.904,19.192 -28.968,19.192C-29.08,19.192 -29.184,19.152 -29.28,19.072C-29.376,18.992 -29.424,18.896 -29.424,18.784C-29.424,18.72 -29.416,18.672 -29.4,18.64C-29.216,18.536 -28.992,18.424 -28.728,18.304C-28.464,18.184 -28.19,18.072 -27.906,17.968C-27.622,17.864 -27.34,17.778 -27.06,17.71C-26.78,17.642 -26.528,17.608 -26.304,17.608C-25.968,17.608 -25.71,17.656 -25.53,17.752C-25.35,17.848 -25.216,17.984 -25.128,18.16C-25.04,18.336 -24.986,18.542 -24.966,18.778C-24.946,19.014 -24.928,19.268 -24.912,19.54C-24.888,19.948 -24.856,20.342 -24.816,20.722C-24.776,21.102 -24.716,21.438 -24.636,21.73C-24.556,22.022 -24.454,22.258 -24.33,22.438C-24.206,22.618 -24.052,22.708 -23.868,22.708C-23.78,22.708 -23.684,22.692 -23.58,22.66C-23.476,22.628 -23.376,22.59 -23.28,22.546C-23.184,22.502 -23.098,22.458 -23.022,22.414C-22.946,22.37 -22.896,22.34 -22.872,22.324C-22.8,22.324 -22.756,22.36 -22.74,22.432C-22.74,22.472 -22.748,22.508 -22.764,22.54C-22.78,22.556 -22.84,22.596 -22.944,22.66C-23.048,22.724 -23.176,22.8 -23.328,22.888C-23.48,22.976 -23.648,23.07 -23.832,23.17C-24.016,23.27 -24.198,23.364 -24.378,23.452C-24.558,23.54 -24.724,23.612 -24.876,23.668C-25.028,23.724 -25.148,23.752 -25.236,23.752C-25.34,23.752 -25.43,23.71 -25.506,23.626C-25.582,23.542 -25.648,23.43 -25.704,23.29C-25.76,23.15 -25.808,22.988 -25.848,22.804C-25.888,22.62 -25.924,22.428 -25.956,22.228C-26.1,22.348 -26.284,22.49 -26.508,22.654C-26.732,22.818 -26.976,22.972 -27.24,23.116C-27.504,23.26 -27.774,23.382 -28.05,23.482C-28.326,23.582 -28.592,23.632 -28.848,23.632C-29.064,23.632 -29.252,23.598 -29.412,23.53C-29.572,23.462 -29.706,23.372 -29.814,23.26C-29.922,23.148 -30.002,23.018 -30.054,22.87C-30.106,22.722 -30.132,22.568 -30.132,22.408C-30.132,22.152 -30.054,21.942 -29.898,21.778C-29.742,21.614 -29.5,21.444 -29.172,21.268C-29.02,21.188 -28.808,21.082 -28.536,20.95C-28.264,20.818 -27.986,20.684 -27.702,20.548C-27.418,20.412 -27.154,20.282 -26.91,20.158C-26.666,20.034 -26.488,19.936 -26.376,19.864Z" style="fill-rule:nonzero;"/>
            <path d="M-19.32,22.372C-19.272,22.404 -19.248,22.444 -19.248,22.492C-19.248,22.556 -19.34,22.64 -19.524,22.744C-19.716,22.856 -19.97,22.988 -20.286,23.14C-20.602,23.292 -20.916,23.424 -21.228,23.536C-21.38,23.592 -21.516,23.64 -21.636,23.68C-21.756,23.72 -21.864,23.74 -21.96,23.74C-22.072,23.74 -22.21,23.714 -22.374,23.662C-22.538,23.61 -22.68,23.548 -22.8,23.476C-22.896,23.412 -22.972,23.362 -23.028,23.326C-23.084,23.29 -23.112,23.252 -23.112,23.212C-23.112,23.18 -23.102,23.15 -23.082,23.122C-23.062,23.094 -23.044,23.06 -23.028,23.02C-23.02,22.996 -23.012,22.964 -23.004,22.924C-22.996,22.884 -22.992,22.844 -22.992,22.804C-22.968,22.604 -22.942,22.314 -22.914,21.934C-22.886,21.554 -22.864,21.134 -22.848,20.674C-22.832,20.214 -22.818,19.738 -22.806,19.246C-22.794,18.754 -22.788,18.296 -22.788,17.872C-22.788,17.352 -22.79,16.932 -22.794,16.612C-22.798,16.292 -22.808,16.036 -22.824,15.844C-22.848,15.58 -22.88,15.406 -22.92,15.322C-22.96,15.238 -23.004,15.176 -23.052,15.136C-23.108,15.088 -23.162,15.058 -23.214,15.046C-23.266,15.034 -23.314,15.026 -23.358,15.022C-23.402,15.018 -23.438,15.016 -23.466,15.016C-23.494,15.016 -23.508,15.008 -23.508,14.992C-23.508,14.728 -23.396,14.596 -23.172,14.596C-23.004,14.596 -22.806,14.598 -22.578,14.602C-22.35,14.606 -22.16,14.608 -22.008,14.608C-21.912,14.608 -21.81,14.602 -21.702,14.59C-21.594,14.578 -21.488,14.566 -21.384,14.554C-21.28,14.542 -21.184,14.528 -21.096,14.512C-21.008,14.496 -20.944,14.48 -20.904,14.464C-20.872,14.456 -20.846,14.468 -20.826,14.5C-20.806,14.532 -20.794,14.572 -20.79,14.62C-20.786,14.668 -20.794,14.712 -20.814,14.752C-20.834,14.792 -20.86,14.816 -20.892,14.824C-20.94,14.832 -20.982,14.836 -21.018,14.836C-21.054,14.836 -21.116,14.852 -21.204,14.884C-21.244,14.9 -21.28,14.95 -21.312,15.034C-21.344,15.118 -21.372,15.25 -21.396,15.43C-21.42,15.61 -21.444,15.846 -21.468,16.138C-21.492,16.43 -21.516,16.796 -21.54,17.236C-21.564,17.588 -21.582,17.946 -21.594,18.31C-21.606,18.674 -21.618,19.028 -21.63,19.372C-21.642,19.716 -21.65,20.036 -21.654,20.332C-21.658,20.628 -21.66,20.88 -21.66,21.088C-21.66,21.32 -21.658,21.554 -21.654,21.79C-21.65,22.026 -21.628,22.212 -21.588,22.348C-21.548,22.476 -21.444,22.596 -21.276,22.708C-21.108,22.82 -20.932,22.876 -20.748,22.876C-20.604,22.876 -20.456,22.856 -20.304,22.816C-20.152,22.776 -20.012,22.728 -19.884,22.672C-19.756,22.616 -19.642,22.56 -19.542,22.504C-19.442,22.448 -19.368,22.404 -19.32,22.372Z" style="fill-rule:nonzero;"/>
            <path d="M-18.084,23.536C-18.068,23.536 -18.038,23.53 -17.994,23.518C-17.95,23.506 -17.92,23.5 -17.904,23.5C-17.856,23.5 -17.826,23.532 -17.814,23.596C-17.802,23.66 -17.812,23.704 -17.844,23.728C-17.908,23.776 -17.988,23.832 -18.084,23.896C-18.18,23.96 -18.286,24.026 -18.402,24.094C-18.518,24.162 -18.632,24.228 -18.744,24.292C-18.856,24.356 -18.952,24.412 -19.032,24.46C-19.08,24.484 -19.15,24.522 -19.242,24.574C-19.334,24.626 -19.426,24.678 -19.518,24.73C-19.61,24.782 -19.696,24.826 -19.776,24.862C-19.856,24.898 -19.908,24.916 -19.932,24.916C-19.972,24.916 -20.01,24.896 -20.046,24.856C-20.082,24.816 -20.1,24.78 -20.1,24.748C-20.1,24.708 -20.096,24.686 -20.088,24.682C-20.08,24.678 -20.064,24.668 -20.04,24.652C-19.992,24.62 -19.926,24.58 -19.842,24.532C-19.758,24.484 -19.696,24.38 -19.656,24.22C-19.624,24.084 -19.592,23.876 -19.56,23.596C-19.528,23.316 -19.5,22.99 -19.476,22.618C-19.452,22.246 -19.432,21.838 -19.416,21.394C-19.4,20.95 -19.392,20.492 -19.392,20.02L-19.392,19.51C-19.392,19.346 -19.396,19.2 -19.404,19.072C-19.42,19.072 -19.482,19.066 -19.59,19.054C-19.698,19.042 -19.812,19.028 -19.932,19.012C-20.052,18.996 -20.162,18.978 -20.262,18.958C-20.362,18.938 -20.412,18.912 -20.412,18.88C-20.412,18.864 -20.414,18.84 -20.418,18.808C-20.422,18.776 -20.392,18.728 -20.328,18.664C-20.264,18.6 -20.186,18.528 -20.094,18.448C-20.002,18.368 -19.912,18.288 -19.824,18.208C-19.736,18.128 -19.654,18.056 -19.578,17.992C-19.502,17.928 -19.444,17.876 -19.404,17.836C-19.396,17.596 -19.39,17.378 -19.386,17.182C-19.382,16.986 -19.372,16.808 -19.356,16.648C-19.34,16.448 -19.308,16.29 -19.26,16.174C-19.212,16.058 -19.144,15.948 -19.056,15.844C-18.96,15.732 -18.772,15.59 -18.492,15.418C-18.212,15.246 -17.88,15.068 -17.496,14.884C-17.36,14.82 -17.242,14.764 -17.142,14.716C-17.042,14.668 -16.944,14.63 -16.848,14.602C-16.752,14.574 -16.652,14.552 -16.548,14.536C-16.444,14.52 -16.324,14.512 -16.188,14.512C-15.836,14.512 -15.534,14.55 -15.282,14.626C-15.03,14.702 -14.836,14.8 -14.7,14.92C-14.7,14.952 -14.752,15.02 -14.856,15.124C-14.96,15.228 -15.08,15.346 -15.216,15.478C-15.352,15.61 -15.488,15.744 -15.624,15.88C-15.76,16.016 -15.86,16.132 -15.924,16.228C-15.948,16.268 -15.984,16.28 -16.032,16.264C-16.08,16.248 -16.096,16.224 -16.08,16.192C-16.064,16.16 -16.05,16.128 -16.038,16.096C-16.026,16.064 -16.02,16.024 -16.02,15.976C-16.02,15.76 -16.128,15.572 -16.344,15.412C-16.56,15.252 -16.836,15.172 -17.172,15.172C-17.364,15.172 -17.524,15.23 -17.652,15.346C-17.78,15.462 -17.88,15.656 -17.952,15.928C-18.016,16.184 -18.062,16.482 -18.09,16.822C-18.118,17.162 -18.14,17.596 -18.156,18.124C-18.044,18.148 -17.898,18.166 -17.718,18.178C-17.538,18.19 -17.344,18.196 -17.136,18.196L-16.686,18.196C-16.522,18.196 -16.362,18.192 -16.206,18.184C-16.05,18.176 -15.902,18.166 -15.762,18.154C-15.622,18.142 -15.508,18.124 -15.42,18.1C-15.388,18.132 -15.372,18.168 -15.372,18.208C-15.484,18.376 -15.66,18.514 -15.9,18.622C-16.14,18.73 -16.398,18.818 -16.674,18.886C-16.95,18.954 -17.226,19 -17.502,19.024C-17.778,19.048 -18.004,19.06 -18.18,19.06C-18.18,19.196 -18.184,19.386 -18.192,19.63C-18.2,19.874 -18.208,20.136 -18.216,20.416C-18.224,20.696 -18.23,20.978 -18.234,21.262C-18.238,21.546 -18.24,21.8 -18.24,22.024C-18.24,22.208 -18.238,22.388 -18.234,22.564C-18.23,22.74 -18.224,22.896 -18.216,23.032C-18.208,23.168 -18.194,23.282 -18.174,23.374C-18.154,23.466 -18.124,23.52 -18.084,23.536Z" style="fill-rule:nonzero;"/>
            <path d="M-30.6,27.04C-30.504,27.04 -30.396,27.038 -30.276,27.034C-30.156,27.03 -30.042,27.026 -29.934,27.022C-29.826,27.018 -29.734,27.014 -29.658,27.01C-29.582,27.006 -29.532,27.004 -29.508,27.004C-29.372,27.004 -29.304,27.044 -29.304,27.124C-29.304,27.196 -29.332,27.248 -29.388,27.28C-29.444,27.312 -29.51,27.336 -29.586,27.352C-29.662,27.368 -29.74,27.378 -29.82,27.382C-29.9,27.386 -29.964,27.4 -30.012,27.424C-30.38,28.128 -30.738,28.826 -31.086,29.518C-31.434,30.21 -31.768,30.87 -32.088,31.498C-32.408,32.126 -32.71,32.706 -32.994,33.238C-33.278,33.77 -33.534,34.232 -33.762,34.624C-33.99,35.016 -34.188,35.324 -34.356,35.548C-34.524,35.772 -34.652,35.884 -34.74,35.884C-34.78,35.86 -34.82,35.822 -34.86,35.77C-34.9,35.718 -34.94,35.648 -34.98,35.56C-35.1,35.312 -35.236,35.012 -35.388,34.66C-35.54,34.308 -35.7,33.928 -35.868,33.52C-36.036,33.112 -36.212,32.69 -36.396,32.254C-36.58,31.818 -36.764,31.384 -36.948,30.952L-37.2,30.352C-37.336,30.016 -37.468,29.684 -37.596,29.356C-37.724,29.028 -37.842,28.726 -37.95,28.45C-38.058,28.174 -38.154,27.94 -38.238,27.748C-38.322,27.556 -38.392,27.428 -38.448,27.364C-38.648,27.364 -38.804,27.36 -38.916,27.352C-39.028,27.344 -39.112,27.334 -39.168,27.322C-39.224,27.31 -39.26,27.294 -39.276,27.274C-39.292,27.254 -39.3,27.232 -39.3,27.208C-39.3,27.152 -39.284,27.104 -39.252,27.064C-39.22,27.024 -39.188,27.004 -39.156,27.004C-39.132,27.004 -39.07,27.006 -38.97,27.01C-38.87,27.014 -38.746,27.018 -38.598,27.022C-38.45,27.026 -38.284,27.032 -38.1,27.04C-37.916,27.048 -37.732,27.052 -37.548,27.052C-36.852,27.052 -36.348,27.038 -36.036,27.01C-35.724,26.982 -35.536,26.968 -35.472,26.968C-35.32,26.968 -35.244,27.008 -35.244,27.088C-35.244,27.104 -35.248,27.126 -35.256,27.154C-35.264,27.182 -35.286,27.212 -35.322,27.244C-35.358,27.276 -35.418,27.304 -35.502,27.328C-35.586,27.352 -35.7,27.364 -35.844,27.364C-35.948,27.364 -36.05,27.362 -36.15,27.358C-36.25,27.354 -36.328,27.348 -36.384,27.34C-36.384,27.396 -36.34,27.568 -36.252,27.856C-36.164,28.144 -36.05,28.496 -35.91,28.912C-35.77,29.328 -35.61,29.78 -35.43,30.268C-35.25,30.756 -35.07,31.23 -34.89,31.69C-34.71,32.15 -34.538,32.57 -34.374,32.95C-34.21,33.33 -34.068,33.62 -33.948,33.82C-33.884,33.732 -33.784,33.556 -33.648,33.292C-33.512,33.028 -33.36,32.712 -33.192,32.344C-33.024,31.976 -32.85,31.576 -32.67,31.144C-32.49,30.712 -32.326,30.286 -32.178,29.866C-32.03,29.446 -31.908,29.05 -31.812,28.678C-31.716,28.306 -31.668,28 -31.668,27.76C-31.668,27.68 -31.674,27.596 -31.686,27.508C-31.698,27.42 -31.736,27.368 -31.8,27.352C-32.008,27.352 -32.178,27.348 -32.31,27.34C-32.442,27.332 -32.548,27.322 -32.628,27.31C-32.708,27.298 -32.772,27.282 -32.82,27.262C-32.868,27.242 -32.912,27.224 -32.952,27.208C-32.976,27.176 -32.988,27.128 -32.988,27.064C-32.988,27 -32.964,26.968 -32.916,26.968L-32.76,26.968C-32.672,26.976 -32.524,26.986 -32.316,26.998C-32.108,27.01 -31.8,27.024 -31.392,27.04L-30.6,27.04Z" style="fill-rule:nonzero;"/>
            <path d="M-25.68,34.636C-25.768,34.708 -25.888,34.804 -26.04,34.924C-26.192,35.044 -26.368,35.164 -26.568,35.284C-26.768,35.404 -26.988,35.506 -27.228,35.59C-27.468,35.674 -27.72,35.716 -27.984,35.716C-28.384,35.716 -28.74,35.646 -29.052,35.506C-29.364,35.366 -29.626,35.178 -29.838,34.942C-30.05,34.706 -30.21,34.428 -30.318,34.108C-30.426,33.788 -30.48,33.448 -30.48,33.088C-30.48,32.664 -30.416,32.288 -30.288,31.96C-30.16,31.632 -30.002,31.346 -29.814,31.102C-29.626,30.858 -29.424,30.654 -29.208,30.49C-28.992,30.326 -28.796,30.196 -28.62,30.1C-28.54,30.052 -28.438,30 -28.314,29.944C-28.19,29.888 -28.054,29.836 -27.906,29.788C-27.758,29.74 -27.598,29.698 -27.426,29.662C-27.254,29.626 -27.076,29.608 -26.892,29.608C-26.548,29.608 -26.214,29.652 -25.89,29.74C-25.566,29.828 -25.28,29.966 -25.032,30.154C-24.784,30.342 -24.584,30.584 -24.432,30.88C-24.28,31.176 -24.204,31.532 -24.204,31.948C-24.204,32.284 -24.266,32.6 -24.39,32.896C-24.514,33.192 -24.66,33.456 -24.828,33.688C-24.996,33.92 -25.162,34.118 -25.326,34.282C-25.49,34.446 -25.608,34.564 -25.68,34.636ZM-27.036,34.828C-26.58,34.828 -26.23,34.656 -25.986,34.312C-25.742,33.968 -25.62,33.44 -25.62,32.728C-25.62,32.368 -25.67,32.034 -25.77,31.726C-25.87,31.418 -26.01,31.148 -26.19,30.916C-26.37,30.684 -26.58,30.502 -26.82,30.37C-27.06,30.238 -27.32,30.172 -27.6,30.172C-27.8,30.172 -27.99,30.224 -28.17,30.328C-28.35,30.432 -28.508,30.582 -28.644,30.778C-28.78,30.974 -28.888,31.212 -28.968,31.492C-29.048,31.772 -29.088,32.088 -29.088,32.44C-29.088,32.816 -29.03,33.152 -28.914,33.448C-28.798,33.744 -28.644,33.994 -28.452,34.198C-28.26,34.402 -28.042,34.558 -27.798,34.666C-27.554,34.774 -27.3,34.828 -27.036,34.828Z" style="fill-rule:nonzero;"/>
            <path d="M-19.512,34.372C-19.464,34.404 -19.44,34.444 -19.44,34.492C-19.44,34.556 -19.532,34.64 -19.716,34.744C-19.908,34.856 -20.162,34.988 -20.478,35.14C-20.794,35.292 -21.108,35.424 -21.42,35.536C-21.572,35.592 -21.708,35.64 -21.828,35.68C-21.948,35.72 -22.056,35.74 -22.152,35.74C-22.264,35.74 -22.402,35.714 -22.566,35.662C-22.73,35.61 -22.872,35.548 -22.992,35.476C-23.088,35.412 -23.164,35.362 -23.22,35.326C-23.276,35.29 -23.304,35.252 -23.304,35.212C-23.304,35.18 -23.294,35.15 -23.274,35.122C-23.254,35.094 -23.236,35.06 -23.22,35.02C-23.212,34.996 -23.204,34.964 -23.196,34.924C-23.188,34.884 -23.184,34.844 -23.184,34.804C-23.16,34.604 -23.134,34.314 -23.106,33.934C-23.078,33.554 -23.056,33.134 -23.04,32.674C-23.024,32.214 -23.01,31.738 -22.998,31.246C-22.986,30.754 -22.98,30.296 -22.98,29.872C-22.98,29.352 -22.982,28.932 -22.986,28.612C-22.99,28.292 -23,28.036 -23.016,27.844C-23.04,27.58 -23.072,27.406 -23.112,27.322C-23.152,27.238 -23.196,27.176 -23.244,27.136C-23.3,27.088 -23.354,27.058 -23.406,27.046C-23.458,27.034 -23.506,27.026 -23.55,27.022C-23.594,27.018 -23.63,27.016 -23.658,27.016C-23.686,27.016 -23.7,27.008 -23.7,26.992C-23.7,26.728 -23.588,26.596 -23.364,26.596C-23.196,26.596 -22.998,26.598 -22.77,26.602C-22.542,26.606 -22.352,26.608 -22.2,26.608C-22.104,26.608 -22.002,26.602 -21.894,26.59C-21.786,26.578 -21.68,26.566 -21.576,26.554C-21.472,26.542 -21.376,26.528 -21.288,26.512C-21.2,26.496 -21.136,26.48 -21.096,26.464C-21.064,26.456 -21.038,26.468 -21.018,26.5C-20.998,26.532 -20.986,26.572 -20.982,26.62C-20.978,26.668 -20.986,26.712 -21.006,26.752C-21.026,26.792 -21.052,26.816 -21.084,26.824C-21.132,26.832 -21.174,26.836 -21.21,26.836C-21.246,26.836 -21.308,26.852 -21.396,26.884C-21.436,26.9 -21.472,26.95 -21.504,27.034C-21.536,27.118 -21.564,27.25 -21.588,27.43C-21.612,27.61 -21.636,27.846 -21.66,28.138C-21.684,28.43 -21.708,28.796 -21.732,29.236C-21.756,29.588 -21.774,29.946 -21.786,30.31C-21.798,30.674 -21.81,31.028 -21.822,31.372C-21.834,31.716 -21.842,32.036 -21.846,32.332C-21.85,32.628 -21.852,32.88 -21.852,33.088C-21.852,33.32 -21.85,33.554 -21.846,33.79C-21.842,34.026 -21.82,34.212 -21.78,34.348C-21.74,34.476 -21.636,34.596 -21.468,34.708C-21.3,34.82 -21.124,34.876 -20.94,34.876C-20.796,34.876 -20.648,34.856 -20.496,34.816C-20.344,34.776 -20.204,34.728 -20.076,34.672C-19.948,34.616 -19.834,34.56 -19.734,34.504C-19.634,34.448 -19.56,34.404 -19.512,34.372Z" style="fill-rule:nonzero;"/>
            <path d="M-14.604,33.928C-14.588,33.912 -14.574,33.914 -14.562,33.934C-14.55,33.954 -14.542,33.982 -14.538,34.018C-14.534,34.054 -14.536,34.092 -14.544,34.132C-14.552,34.172 -14.568,34.204 -14.592,34.228C-14.752,34.38 -14.952,34.54 -15.192,34.708C-15.432,34.876 -15.68,35.032 -15.936,35.176C-16.008,35.216 -16.108,35.268 -16.236,35.332C-16.364,35.396 -16.506,35.458 -16.662,35.518C-16.818,35.578 -16.978,35.63 -17.142,35.674C-17.306,35.718 -17.46,35.74 -17.604,35.74C-17.892,35.74 -18.164,35.684 -18.42,35.572C-18.676,35.46 -18.9,35.306 -19.092,35.11C-19.284,34.914 -19.434,34.68 -19.542,34.408C-19.65,34.136 -19.704,33.84 -19.704,33.52C-19.704,33.176 -19.656,32.852 -19.56,32.548C-19.464,32.244 -19.354,31.972 -19.23,31.732C-19.106,31.492 -18.988,31.29 -18.876,31.126C-18.764,30.962 -18.688,30.84 -18.648,30.76C-18.8,30.752 -18.938,30.746 -19.062,30.742C-19.186,30.738 -19.304,30.736 -19.416,30.736C-19.672,30.736 -19.888,30.738 -20.064,30.742C-20.24,30.746 -20.396,30.764 -20.532,30.796C-20.596,30.812 -20.656,30.844 -20.712,30.892C-20.768,30.94 -20.816,30.976 -20.856,31C-20.872,30.984 -20.894,30.962 -20.922,30.934C-20.95,30.906 -20.964,30.876 -20.964,30.844C-20.964,30.828 -20.96,30.816 -20.952,30.808C-20.952,30.8 -20.9,30.754 -20.796,30.67C-20.692,30.586 -20.562,30.486 -20.406,30.37C-20.25,30.254 -20.078,30.126 -19.89,29.986C-19.702,29.846 -19.522,29.716 -19.35,29.596C-19.178,29.476 -19.03,29.374 -18.906,29.29C-18.782,29.206 -18.7,29.156 -18.66,29.14C-18.612,29.124 -18.564,29.132 -18.516,29.164C-18.468,29.196 -18.452,29.22 -18.468,29.236C-18.492,29.252 -18.528,29.282 -18.576,29.326C-18.624,29.37 -18.64,29.408 -18.624,29.44C-18.536,29.512 -18.384,29.576 -18.168,29.632C-17.952,29.688 -17.708,29.734 -17.436,29.77C-17.164,29.806 -16.884,29.834 -16.596,29.854C-16.308,29.874 -16.048,29.884 -15.816,29.884C-15.472,29.884 -15.196,29.874 -14.988,29.854C-14.78,29.834 -14.608,29.808 -14.472,29.776C-14.344,29.744 -14.26,29.72 -14.22,29.704C-14.212,29.704 -14.196,29.716 -14.172,29.74C-14.148,29.764 -14.136,29.792 -14.136,29.824C-14.136,29.84 -14.194,29.88 -14.31,29.944C-14.426,30.008 -14.544,30.076 -14.664,30.148C-14.736,30.188 -14.822,30.24 -14.922,30.304C-15.022,30.368 -15.13,30.43 -15.246,30.49C-15.362,30.55 -15.484,30.604 -15.612,30.652C-15.74,30.7 -15.864,30.728 -15.984,30.736C-16.104,30.752 -16.244,30.764 -16.404,30.772C-16.564,30.78 -16.732,30.786 -16.908,30.79C-17.084,30.794 -17.262,30.798 -17.442,30.802C-17.622,30.806 -17.788,30.808 -17.94,30.808C-17.964,30.848 -18.002,30.914 -18.054,31.006C-18.106,31.098 -18.156,31.216 -18.204,31.36C-18.252,31.504 -18.296,31.668 -18.336,31.852C-18.376,32.036 -18.396,32.236 -18.396,32.452C-18.396,32.78 -18.346,33.082 -18.246,33.358C-18.146,33.634 -18.006,33.872 -17.826,34.072C-17.646,34.272 -17.432,34.428 -17.184,34.54C-16.936,34.652 -16.668,34.708 -16.38,34.708C-16.212,34.708 -16.05,34.688 -15.894,34.648C-15.738,34.608 -15.59,34.556 -15.45,34.492C-15.31,34.428 -15.18,34.358 -15.06,34.282C-14.94,34.206 -14.836,34.132 -14.748,34.06L-14.604,33.928Z" style="fill-rule:nonzero;"/>
        </g>
        <g transform="matrix(1,0,0,1,45.1227,-3.95975)">
            <text x="-39.144px" y="23.596px" style="font-family:'Luminari-Regular', 'Luminari';font-size:12px;">Half</text>
            <text x="-39.144px" y="35.596px" style="font-family:'Luminari-Regular', 'Luminari';font-size:12px;">V<tspan x="-30.828px -23.928px " y="35.596px 35.596px ">ol</tspan>t</text>
        </g>
        <g transform="matrix(0.0196522,0,0,0.0222919,-17.7006,9.08722)">
            <g transform="matrix(1,0,0,1,-143.343,98.6554)">
                <ellipse cx="360.896" cy="293.762" rx="136.961" ry="230.443" style="fill:rgb(235,235,235);stroke:black;stroke-width:58.09px;"/>
            </g>
            <g transform="matrix(1,0,0,1,445.551,98.6554)">
                <ellipse cx="360.896" cy="293.762" rx="136.961" ry="230.443" style="fill:rgb(235,235,235);stroke:black;stroke-width:58.09px;"/>
            </g>
            <g transform="matrix(1,0,0,1,-34.3236,-20.6488)">
                <ellipse cx="546.324" cy="643.509" rx="431.408" ry="296.899" style="fill:rgb(235,235,235);stroke:black;stroke-width:58.09px;"/>
            </g>
            <circle cx="406.664" cy="569.758" r="105.336" style="fill:rgb(235,235,235);stroke:black;stroke-width:58.09px;"/>
            <g transform="matrix(1,0,0,1,210.672,0)">
                <circle cx="406.664" cy="569.758" r="105.336" style="fill:rgb(235,235,235);stroke:black;stroke-width:58.09px;"/>
            </g>
            <g transform="matrix(1,0,0,1,-53.1856,50.0357)">
                <ellipse cx="565.186" cy="671.455" rx="210.672" ry="98.631" style="fill:rgb(235,235,235);stroke:black;stroke-width:58.09px;"/>
            </g>
            <g transform="matrix(51.2,0,0,45.1371,0.670978,88.9676)">
                <path d="M12.057,13.791C12.057,13.668 11.958,13.568 11.835,13.568L8.139,13.568C8.016,13.568 7.916,13.668 7.916,13.791L7.916,14.236C7.916,14.359 8.016,14.458 8.139,14.458L11.835,14.458C11.958,14.458 12.057,14.359 12.057,14.236L12.057,13.791Z"/>
            </g>
        </g>
    </g>
</svg>
