<?xml version="1.0" encoding="UTF-8" standalone="no"?>
<!DOCTYPE svg PUBLIC "-//W3C//DTD SVG 1.1//EN" "http://www.w3.org/Graphics/SVG/1.1/DTD/svg11.dtd">
<svg width="100%" height="100%" viewBox="0 0 90 380" version="1.1" xmlns="http://www.w3.org/2000/svg" xmlns:xlink="http://www.w3.org/1999/xlink" xml:space="preserve" xmlns:serif="http://www.serif.com/" style="fill-rule:evenodd;clip-rule:evenodd;stroke-linecap:round;stroke-linejoin:round;stroke-miterlimit:1.5;">
    <g transform="matrix(0.911869,0,0,2.17398,-19.9082,-103.912)">
        <rect x="21.832" y="47.798" width="98.698" height="174.795" style="fill:rgb(235,235,235);"/>
    </g>
    <g transform="matrix(1,0,0,1,-4.24779,0)">
        <g id="Connect-ledbutton" serif:id="Connect#ledbutton" transform="matrix(1,0,0,1,-37.2235,45.1877)">
            <circle cx="101.308" cy="310.24" r="9.898" style="fill:rgb(115,115,115);"/>
        </g>
        <g transform="matrix(1,0,0,1,-64.2447,240.505)">
            <path d="M89.778,116.846C89.778,117.006 89.823,117.13 89.913,117.216C90.003,117.303 90.125,117.346 90.278,117.346C90.471,117.346 90.6,117.29 90.663,117.176C90.726,117.063 90.765,116.95 90.778,116.836L91.798,116.836C91.798,117.283 91.661,117.643 91.388,117.916C91.255,118.056 91.095,118.166 90.908,118.246C90.721,118.326 90.511,118.366 90.278,118.366C89.958,118.366 89.686,118.3 89.463,118.166C89.24,118.033 89.068,117.856 88.948,117.636C88.875,117.503 88.825,117.35 88.798,117.176C88.771,117.003 88.758,116.813 88.758,116.606L88.758,114.936C88.758,114.73 88.771,114.54 88.798,114.366C88.825,114.193 88.875,114.04 88.948,113.906C89.068,113.686 89.24,113.51 89.463,113.376C89.686,113.243 89.958,113.176 90.278,113.176C90.511,113.176 90.723,113.216 90.913,113.296C91.103,113.376 91.265,113.486 91.398,113.626C91.665,113.926 91.798,114.316 91.798,114.796L90.778,114.796C90.778,114.59 90.733,114.438 90.643,114.341C90.553,114.245 90.431,114.196 90.278,114.196C90.125,114.196 90.003,114.245 89.913,114.341C89.823,114.438 89.778,114.583 89.778,114.776L89.778,116.846Z" style="fill-rule:nonzero;"/>
            <path d="M92.308,114.936C92.308,114.73 92.321,114.54 92.348,114.366C92.375,114.193 92.425,114.04 92.498,113.906C92.618,113.686 92.79,113.51 93.013,113.376C93.236,113.243 93.508,113.176 93.828,113.176C94.148,113.176 94.42,113.243 94.643,113.376C94.866,113.51 95.038,113.686 95.158,113.906C95.231,114.04 95.281,114.193 95.308,114.366C95.335,114.54 95.348,114.73 95.348,114.936L95.348,116.606C95.348,116.813 95.335,117.003 95.308,117.176C95.281,117.35 95.231,117.503 95.158,117.636C95.038,117.856 94.866,118.033 94.643,118.166C94.42,118.3 94.148,118.366 93.828,118.366C93.508,118.366 93.236,118.3 93.013,118.166C92.79,118.033 92.618,117.856 92.498,117.636C92.425,117.503 92.375,117.35 92.348,117.176C92.321,117.003 92.308,116.813 92.308,116.606L92.308,114.936ZM93.328,116.766C93.328,116.96 93.373,117.105 93.463,117.201C93.553,117.298 93.675,117.346 93.828,117.346C93.981,117.346 94.103,117.298 94.193,117.201C94.283,117.105 94.328,116.96 94.328,116.766L94.328,114.776C94.328,114.583 94.283,114.438 94.193,114.341C94.103,114.245 93.981,114.196 93.828,114.196C93.675,114.196 93.553,114.245 93.463,114.341C93.373,114.438 93.328,114.583 93.328,114.776L93.328,116.766Z" style="fill-rule:nonzero;"/>
            <path d="M96.098,118.306L96.098,113.236L97.118,113.236L97.118,113.726L97.138,113.726C97.245,113.566 97.373,113.435 97.523,113.331C97.673,113.228 97.865,113.176 98.098,113.176C98.225,113.176 98.351,113.198 98.478,113.241C98.605,113.285 98.718,113.356 98.818,113.456C98.918,113.556 98.998,113.685 99.058,113.841C99.118,113.998 99.148,114.19 99.148,114.416L99.148,118.306L98.128,118.306L98.128,114.796C98.128,114.61 98.085,114.463 97.998,114.356C97.911,114.25 97.788,114.196 97.628,114.196C97.435,114.196 97.301,114.256 97.228,114.376C97.155,114.496 97.118,114.67 97.118,114.896L97.118,118.306L96.098,118.306Z" style="fill-rule:nonzero;"/>
            <path d="M99.988,118.306L99.988,113.236L101.008,113.236L101.008,113.726L101.028,113.726C101.135,113.566 101.263,113.435 101.413,113.331C101.563,113.228 101.755,113.176 101.988,113.176C102.115,113.176 102.241,113.198 102.368,113.241C102.495,113.285 102.608,113.356 102.708,113.456C102.808,113.556 102.888,113.685 102.948,113.841C103.008,113.998 103.038,114.19 103.038,114.416L103.038,118.306L102.018,118.306L102.018,114.796C102.018,114.61 101.975,114.463 101.888,114.356C101.801,114.25 101.678,114.196 101.518,114.196C101.325,114.196 101.191,114.256 101.118,114.376C101.045,114.496 101.008,114.67 101.008,114.896L101.008,118.306L99.988,118.306Z" style="fill-rule:nonzero;"/>
            <path d="M106.828,116.156L104.808,116.156L104.808,116.846C104.808,117.006 104.853,117.13 104.943,117.216C105.033,117.303 105.155,117.346 105.308,117.346C105.501,117.346 105.63,117.29 105.693,117.176C105.756,117.063 105.795,116.95 105.808,116.836L106.828,116.836C106.828,117.283 106.691,117.643 106.418,117.916C106.285,118.056 106.125,118.166 105.938,118.246C105.751,118.326 105.541,118.366 105.308,118.366C104.988,118.366 104.716,118.3 104.493,118.166C104.27,118.033 104.098,117.856 103.978,117.636C103.905,117.503 103.855,117.35 103.828,117.176C103.801,117.003 103.788,116.813 103.788,116.606L103.788,114.936C103.788,114.73 103.801,114.54 103.828,114.366C103.855,114.193 103.905,114.04 103.978,113.906C104.098,113.686 104.27,113.51 104.493,113.376C104.716,113.243 104.988,113.176 105.308,113.176C105.541,113.176 105.753,113.216 105.943,113.296C106.133,113.376 106.295,113.486 106.428,113.626C106.695,113.926 106.828,114.303 106.828,114.756L106.828,116.156ZM104.808,115.356L105.808,115.356L105.808,114.776C105.808,114.583 105.763,114.438 105.673,114.341C105.583,114.245 105.461,114.196 105.308,114.196C105.155,114.196 105.033,114.245 104.943,114.341C104.853,114.438 104.808,114.583 104.808,114.776L104.808,115.356Z" style="fill-rule:nonzero;"/>
            <path d="M108.658,116.846C108.658,117.006 108.703,117.13 108.793,117.216C108.883,117.303 109.005,117.346 109.158,117.346C109.351,117.346 109.48,117.29 109.543,117.176C109.606,117.063 109.645,116.95 109.658,116.836L110.678,116.836C110.678,117.283 110.541,117.643 110.268,117.916C110.135,118.056 109.975,118.166 109.788,118.246C109.601,118.326 109.391,118.366 109.158,118.366C108.838,118.366 108.566,118.3 108.343,118.166C108.12,118.033 107.948,117.856 107.828,117.636C107.755,117.503 107.705,117.35 107.678,117.176C107.651,117.003 107.638,116.813 107.638,116.606L107.638,114.936C107.638,114.73 107.651,114.54 107.678,114.366C107.705,114.193 107.755,114.04 107.828,113.906C107.948,113.686 108.12,113.51 108.343,113.376C108.566,113.243 108.838,113.176 109.158,113.176C109.391,113.176 109.603,113.216 109.793,113.296C109.983,113.376 110.145,113.486 110.278,113.626C110.545,113.926 110.678,114.316 110.678,114.796L109.658,114.796C109.658,114.59 109.613,114.438 109.523,114.341C109.433,114.245 109.311,114.196 109.158,114.196C109.005,114.196 108.883,114.245 108.793,114.341C108.703,114.438 108.658,114.583 108.658,114.776L108.658,116.846Z" style="fill-rule:nonzero;"/>
            <path d="M111.278,113.236L111.278,111.696L112.298,111.696L112.298,113.236L112.928,113.236L112.928,114.036L112.298,114.036L112.298,116.846C112.298,116.966 112.31,117.06 112.333,117.126C112.356,117.193 112.395,117.243 112.448,117.276C112.501,117.31 112.566,117.33 112.643,117.336C112.72,117.343 112.815,117.346 112.928,117.346L112.928,118.306L112.508,118.306C112.275,118.306 112.08,118.27 111.923,118.196C111.766,118.123 111.641,118.03 111.548,117.916C111.455,117.803 111.386,117.675 111.343,117.531C111.3,117.388 111.278,117.25 111.278,117.116L111.278,114.036L110.768,114.036L110.768,113.236L111.278,113.236Z" style="fill-rule:nonzero;"/>
        </g>
        <g transform="matrix(1,0,0,1,-64.2447,240.505)">
            <text x="88.278px" y="118.306px" style="font-family:'DINCondensed-Bold', 'DIN Condensed';font-weight:700;font-stretch:condensed;font-size:10px;">connect</text>
        </g>
    </g>
    <g id="Channel4" transform="matrix(1,0,0,1,-31.3344,195.386)">
        <g transform="matrix(1.14286,0,0,0.851364,24.9058,-28.7907)">
            <rect x="10" y="121.987" width="70" height="77.941" style="fill:rgb(204,51,51);"/>
        </g>
        <g id="Up-button" serif:id="Up#button" transform="matrix(0.758898,0,0,0.758898,63.0759,-109.774)">
            <circle cx="55.661" cy="308.513" r="7.929"/>
        </g>
        <g id="Pattern-display-2" serif:id="Pattern#display$2" transform="matrix(0.53008,0,0,0.846667,-31.1135,-134.209)">
            <rect x="173.071" y="291.218" width="64.141" height="28.346" style="fill:rgb(13,13,13);"/>
        </g>
        <g id="Down-button" serif:id="Down#button" transform="matrix(0.758898,0,0,0.758898,5.11106,-109.774)">
            <circle cx="55.661" cy="308.513" r="7.929"/>
        </g>
        <g id="Select-input" serif:id="Select#input" transform="matrix(0.175002,0,0,0.175002,54.0153,61.4191)">
            <rect x="53.94" y="106.916" width="161.978" height="161.978" style="fill:rgb(204,204,204);"/>
        </g>
        <g transform="matrix(1,0,0,1,-40.1578,-18.3075)">
            <path d="M90.358,118.306L90.358,116.61L87.11,116.61L87.11,115.074L89.462,106.914L91.19,106.914L88.742,115.074L90.358,115.074L90.358,111.826L91.99,111.826L91.99,115.074L92.774,115.074L92.774,116.61L91.99,116.61L91.99,118.306L90.358,118.306Z" style="fill-rule:nonzero;"/>
        </g>
        <g transform="matrix(1,0,0,1,-40.1578,-18.3075)">
            <text x="86.966px" y="118.306px" style="font-family:'DINCondensed-Bold', 'DIN Condensed';font-weight:700;font-stretch:condensed;font-size:16px;">4</text>
        </g>
    </g>
    <g id="Channel3" transform="matrix(1,0,0,1,-31.3344,118.968)">
        <g transform="matrix(1.14286,0,0,0.851364,24.9058,-28.7907)">
            <rect x="10" y="121.987" width="70" height="77.941" style="fill:rgb(195,204,51);"/>
        </g>
        <g id="Up-button1" serif:id="Up#button" transform="matrix(0.758898,0,0,0.758898,63.0759,-109.774)">
            <circle cx="55.661" cy="308.513" r="7.929"/>
        </g>
        <g id="Pattern-display-21" serif:id="Pattern#display$2" transform="matrix(0.53008,0,0,0.846667,-31.1135,-134.209)">
            <rect x="173.071" y="291.218" width="64.141" height="28.346" style="fill:rgb(13,13,13);"/>
        </g>
        <g id="Down-button1" serif:id="Down#button" transform="matrix(0.758898,0,0,0.758898,5.11106,-109.774)">
            <circle cx="55.661" cy="308.513" r="7.929"/>
        </g>
        <g id="Select-input1" serif:id="Select#input" transform="matrix(0.175002,0,0,0.175002,54.0153,61.4191)">
            <rect x="53.94" y="106.916" width="161.978" height="161.978" style="fill:rgb(204,204,204);"/>
        </g>
        <g transform="matrix(1,0,0,1,-40.1578,-18.3075)">
            <path d="M89.446,111.714C89.937,111.714 90.275,111.656 90.462,111.538C90.649,111.421 90.742,111.149 90.742,110.722L90.742,109.25C90.742,109.016 90.67,108.824 90.526,108.674C90.382,108.525 90.187,108.45 89.942,108.45C89.654,108.45 89.449,108.541 89.326,108.722C89.203,108.904 89.142,109.08 89.142,109.25L89.142,110.178L87.51,110.178L87.51,109.234C87.51,108.904 87.574,108.589 87.702,108.29C87.83,107.992 88.006,107.736 88.23,107.522C88.454,107.309 88.715,107.138 89.014,107.01C89.313,106.882 89.633,106.818 89.974,106.818C90.422,106.818 90.793,106.906 91.086,107.082C91.379,107.258 91.601,107.437 91.75,107.618C91.857,107.746 91.95,107.874 92.03,108.002C92.11,108.13 92.177,108.285 92.23,108.466C92.326,108.818 92.374,109.341 92.374,110.034C92.374,110.429 92.366,110.749 92.35,110.994C92.334,111.24 92.294,111.442 92.23,111.602C92.155,111.773 92.051,111.917 91.918,112.034C91.785,112.152 91.601,112.28 91.366,112.418C91.622,112.578 91.817,112.728 91.95,112.866C92.083,113.005 92.182,113.165 92.246,113.346C92.31,113.538 92.347,113.765 92.358,114.026C92.369,114.288 92.374,114.621 92.374,115.026C92.374,115.4 92.366,115.709 92.35,115.954C92.334,116.2 92.31,116.402 92.278,116.562C92.246,116.733 92.203,116.877 92.15,116.994C92.097,117.112 92.027,117.234 91.942,117.362C91.739,117.661 91.481,117.909 91.166,118.106C90.851,118.304 90.438,118.402 89.926,118.402C89.67,118.402 89.398,118.36 89.11,118.274C88.822,118.189 88.561,118.05 88.326,117.858C88.091,117.666 87.897,117.416 87.742,117.106C87.587,116.797 87.51,116.418 87.51,115.97L87.51,115.042L89.142,115.042L89.142,115.89C89.142,116.146 89.214,116.357 89.358,116.522C89.502,116.688 89.697,116.77 89.942,116.77C90.187,116.77 90.382,116.688 90.526,116.522C90.67,116.357 90.742,116.136 90.742,115.858L90.742,114.226C90.742,113.778 90.657,113.485 90.486,113.346C90.39,113.261 90.259,113.208 90.094,113.186C89.929,113.165 89.713,113.154 89.446,113.154L89.446,111.714Z" style="fill-rule:nonzero;"/>
        </g>
        <g transform="matrix(1,0,0,1,-40.1578,-18.3075)">
            <text x="86.966px" y="118.306px" style="font-family:'DINCondensed-Bold', 'DIN Condensed';font-weight:700;font-stretch:condensed;font-size:16px;">3</text>
        </g>
    </g>
    <g id="Channel2" transform="matrix(1,0,0,1,-31.3344,42.55)">
        <g transform="matrix(1.14286,0,0,0.851364,24.9058,-28.7907)">
            <rect x="10" y="121.987" width="70" height="77.941" style="fill:rgb(204,105,51);"/>
        </g>
        <g id="Up-button2" serif:id="Up#button" transform="matrix(0.758898,0,0,0.758898,63.0759,-109.774)">
            <circle cx="55.661" cy="308.513" r="7.929"/>
        </g>
        <g id="Pattern-display-22" serif:id="Pattern#display$2" transform="matrix(0.53008,0,0,0.846667,-31.1135,-134.209)">
            <rect x="173.071" y="291.218" width="64.141" height="28.346" style="fill:rgb(13,13,13);"/>
        </g>
        <g id="Down-button2" serif:id="Down#button" transform="matrix(0.758898,0,0,0.758898,5.11106,-109.774)">
            <circle cx="55.661" cy="308.513" r="7.929"/>
        </g>
        <g id="Select-input2" serif:id="Select#input" transform="matrix(0.175002,0,0,0.175002,54.0153,61.4191)">
            <rect x="53.94" y="106.916" width="161.978" height="161.978" style="fill:rgb(204,204,204);"/>
        </g>
        <g transform="matrix(1,0,0,1,-40.1578,-18.3075)">
            <path d="M87.51,118.306L87.51,116.77L90.454,111.218C90.603,110.941 90.689,110.698 90.71,110.49C90.731,110.282 90.742,110.024 90.742,109.714C90.742,109.576 90.739,109.429 90.734,109.274C90.729,109.12 90.699,108.984 90.646,108.866C90.593,108.749 90.513,108.65 90.406,108.57C90.299,108.49 90.145,108.45 89.942,108.45C89.697,108.45 89.502,108.52 89.358,108.658C89.214,108.797 89.142,109 89.142,109.266L89.142,110.194L87.51,110.194L87.51,109.298C87.51,108.957 87.574,108.637 87.702,108.338C87.83,108.04 88.006,107.778 88.23,107.554C88.443,107.33 88.699,107.152 88.998,107.018C89.297,106.885 89.617,106.818 89.958,106.818C90.385,106.818 90.75,106.896 91.054,107.05C91.358,107.205 91.611,107.416 91.814,107.682C92.006,107.949 92.147,108.253 92.238,108.594C92.329,108.936 92.374,109.298 92.374,109.682C92.374,109.96 92.369,110.192 92.358,110.378C92.347,110.565 92.326,110.744 92.294,110.914C92.262,111.085 92.209,111.256 92.134,111.426C92.059,111.597 91.958,111.805 91.83,112.05L89.43,116.674L92.374,116.674L92.374,118.306L87.51,118.306Z" style="fill-rule:nonzero;"/>
        </g>
        <g transform="matrix(1,0,0,1,-40.1578,-18.3075)">
            <text x="86.966px" y="118.306px" style="font-family:'DINCondensed-Bold', 'DIN Condensed';font-weight:700;font-stretch:condensed;font-size:16px;">2</text>
        </g>
    </g>
    <g id="Channel1" transform="matrix(1,0,0,1,-31.3344,-33.8682)">
        <g transform="matrix(1.14286,0,0,0.851364,24.9058,-28.7907)">
            <rect x="10" y="121.987" width="70" height="77.941" style="fill:rgb(51,204,69);"/>
        </g>
        <g id="Up-button3" serif:id="Up#button" transform="matrix(0.758898,0,0,0.758898,63.0759,-109.774)">
            <circle cx="55.661" cy="308.513" r="7.929"/>
        </g>
        <g id="Pattern-display-23" serif:id="Pattern#display$2" transform="matrix(0.53008,0,0,0.846667,-31.1135,-134.209)">
            <rect x="173.071" y="291.218" width="64.141" height="28.346" style="fill:rgb(13,13,13);"/>
        </g>
        <g id="Down-button3" serif:id="Down#button" transform="matrix(0.758898,0,0,0.758898,5.11106,-109.774)">
            <circle cx="55.661" cy="308.513" r="7.929"/>
        </g>
        <g id="Select-input3" serif:id="Select#input" transform="matrix(0.175002,0,0,0.175002,54.0153,61.4191)">
            <rect x="53.94" y="106.916" width="161.978" height="161.978" style="fill:rgb(204,204,204);"/>
        </g>
        <g transform="matrix(1,0,0,1,-40.1578,-18.3075)">
            <path d="M89.446,118.306L89.446,108.642L87.814,109.842L87.814,108.114L89.446,106.914L91.078,106.914L91.078,118.306L89.446,118.306Z" style="fill-rule:nonzero;"/>
        </g>
        <g transform="matrix(1,0,0,1,-40.1578,-18.3075)">
            <text x="86.966px" y="118.306px" style="font-family:'DINCondensed-Bold', 'DIN Condensed';font-weight:700;font-stretch:condensed;font-size:16px;">1</text>
        </g>
    </g>
    <g transform="matrix(1,0,0,1,-3.04559,0)">
        <g transform="matrix(0.816456,0,0,0.816456,-23.4344,-271.482)">
            <path d="M79.434,354.823C79.658,354.823 79.77,354.883 79.77,355.003C79.77,355.115 79.678,355.171 79.494,355.171C79.446,355.171 79.354,355.167 79.218,355.159C79.082,355.151 78.932,355.143 78.768,355.135C78.604,355.127 78.44,355.119 78.276,355.111C78.112,355.103 77.982,355.099 77.886,355.099C77.366,355.099 76.936,355.115 76.596,355.147C76.256,355.179 75.978,355.213 75.762,355.249C75.546,355.285 75.378,355.317 75.258,355.345C75.138,355.373 75.038,355.387 74.958,355.387C74.934,355.387 74.902,355.377 74.862,355.357C74.822,355.337 74.802,355.315 74.802,355.291C74.802,355.235 74.808,355.167 74.82,355.087C74.832,355.007 74.87,354.967 74.934,354.967C75.014,354.967 75.132,354.961 75.288,354.949C75.444,354.937 75.604,354.919 75.768,354.895C75.932,354.871 76.082,354.839 76.218,354.799C76.354,354.759 76.446,354.711 76.494,354.655C76.518,354.583 76.544,354.423 76.572,354.175C76.6,353.927 76.626,353.611 76.65,353.227C76.674,352.843 76.694,352.401 76.71,351.901C76.726,351.401 76.734,350.863 76.734,350.287L76.734,348.853C76.734,348.457 76.728,348.127 76.716,347.863C76.704,347.599 76.686,347.395 76.662,347.251C76.638,347.107 76.606,347.003 76.566,346.939C76.206,346.915 75.928,346.879 75.732,346.831C75.536,346.783 75.438,346.735 75.438,346.687C75.414,346.663 75.402,346.631 75.402,346.591C75.402,346.503 75.498,346.459 75.69,346.459C75.786,346.459 76.01,346.475 76.362,346.507C76.714,346.539 77.126,346.555 77.598,346.555C77.95,346.555 78.236,346.549 78.456,346.537C78.676,346.525 78.856,346.511 78.996,346.495C79.136,346.479 79.248,346.463 79.332,346.447C79.416,346.431 79.494,346.423 79.566,346.423C79.678,346.423 79.734,346.471 79.734,346.567C79.734,346.631 79.7,346.681 79.632,346.717C79.564,346.753 79.48,346.779 79.38,346.795C79.28,346.811 79.172,346.823 79.056,346.831C78.94,346.839 78.834,346.847 78.738,346.855C78.674,346.863 78.61,346.873 78.546,346.885C78.482,346.897 78.43,346.911 78.39,346.927C78.35,346.943 78.314,347.087 78.282,347.359C78.25,347.631 78.222,347.967 78.198,348.367C78.174,348.767 78.156,349.195 78.144,349.651C78.132,350.107 78.126,350.527 78.126,350.911C78.502,350.703 78.866,350.459 79.218,350.179C79.57,349.899 79.926,349.555 80.286,349.147C80.422,348.995 80.564,348.837 80.712,348.673C80.86,348.509 80.998,348.337 81.126,348.157C81.254,347.977 81.358,347.791 81.438,347.599C81.518,347.407 81.558,347.215 81.558,347.023C81.558,346.967 81.542,346.915 81.51,346.867C81.414,346.867 81.314,346.873 81.21,346.885C81.106,346.897 81.008,346.913 80.916,346.933C80.824,346.953 80.744,346.969 80.676,346.981C80.608,346.993 80.562,346.999 80.538,346.999C80.418,346.999 80.358,346.939 80.358,346.819C80.358,346.731 80.38,346.649 80.424,346.573C80.468,346.497 80.534,346.459 80.622,346.459C80.71,346.443 80.862,346.447 81.078,346.471C81.294,346.495 81.578,346.507 81.93,346.507L82.95,346.507C83.03,346.507 83.108,346.505 83.184,346.501C83.26,346.497 83.33,346.491 83.394,346.483C83.466,346.475 83.534,346.471 83.598,346.471C83.734,346.471 83.802,346.511 83.802,346.591C83.802,346.615 83.798,346.631 83.79,346.639C83.686,346.759 83.532,346.919 83.328,347.119C83.124,347.319 82.894,347.533 82.638,347.761C82.382,347.989 82.11,348.229 81.822,348.481C81.534,348.733 81.256,348.973 80.988,349.201C80.72,349.429 80.47,349.639 80.238,349.831C80.006,350.023 79.818,350.179 79.674,350.299C79.874,350.259 80.03,350.239 80.142,350.239C80.55,350.239 80.91,350.317 81.222,350.473C81.534,350.629 81.798,350.831 82.014,351.079C82.23,351.327 82.392,351.607 82.5,351.919C82.608,352.231 82.662,352.543 82.662,352.855C82.662,352.927 82.656,353.003 82.644,353.083C82.632,353.163 82.606,353.235 82.566,353.299C82.686,353.555 82.816,353.843 82.956,354.163C83.096,354.483 83.256,354.785 83.436,355.069C83.616,355.353 83.824,355.599 84.06,355.807C84.296,356.015 84.57,356.135 84.882,356.167C84.97,356.167 85.074,356.145 85.194,356.101C85.314,356.057 85.426,356.011 85.53,355.963C85.554,355.963 85.58,355.989 85.608,356.041C85.636,356.093 85.65,356.139 85.65,356.179C85.65,356.299 85.598,356.399 85.494,356.479C85.39,356.559 85.278,356.599 85.158,356.599C84.942,356.599 84.69,356.545 84.402,356.437C84.114,356.329 83.826,356.177 83.538,355.981C83.25,355.785 82.974,355.553 82.71,355.285C82.446,355.017 82.226,354.719 82.05,354.391C82.018,354.335 81.962,354.219 81.882,354.043C81.802,353.867 81.696,353.661 81.564,353.425C81.432,353.189 81.282,352.935 81.114,352.663C80.946,352.391 80.756,352.137 80.544,351.901C80.332,351.665 80.106,351.457 79.866,351.277C79.626,351.097 79.37,350.979 79.098,350.923C78.938,350.931 78.776,350.991 78.612,351.103C78.448,351.215 78.286,351.363 78.126,351.547L78.126,352.075C78.126,352.355 78.13,352.635 78.138,352.915C78.146,353.195 78.156,353.453 78.168,353.689C78.18,353.925 78.198,354.129 78.222,354.301C78.246,354.473 78.278,354.583 78.318,354.631C78.39,354.711 78.52,354.763 78.708,354.787C78.896,354.811 79.082,354.823 79.266,354.823L79.434,354.823Z" style="fill-rule:nonzero;"/>
            <path d="M89.766,353.695C89.678,353.791 89.542,353.923 89.358,354.091C89.174,354.259 88.952,354.427 88.692,354.595C88.432,354.763 88.142,354.907 87.822,355.027C87.502,355.147 87.162,355.207 86.802,355.207C86.474,355.207 86.154,355.157 85.842,355.057C85.53,354.957 85.25,354.805 85.002,354.601C84.754,354.397 84.556,354.137 84.408,353.821C84.26,353.505 84.186,353.127 84.186,352.687C84.186,352.327 84.21,352.017 84.258,351.757C84.306,351.497 84.37,351.269 84.45,351.073C84.53,350.877 84.62,350.709 84.72,350.569C84.82,350.429 84.922,350.303 85.026,350.191C85.154,350.047 85.31,349.911 85.494,349.783C85.678,349.655 85.876,349.539 86.088,349.435C86.3,349.331 86.524,349.249 86.76,349.189C86.996,349.129 87.234,349.099 87.474,349.099C87.906,349.099 88.244,349.171 88.488,349.315C88.732,349.459 88.854,349.659 88.854,349.915C88.854,350.075 88.806,350.223 88.71,350.359C88.79,350.335 88.892,350.295 89.016,350.239C89.14,350.183 89.266,350.125 89.394,350.065C89.522,350.005 89.636,349.951 89.736,349.903C89.836,349.855 89.902,349.819 89.934,349.795C89.95,349.779 89.968,349.773 89.988,349.777C90.008,349.781 90.018,349.795 90.018,349.819C90.018,349.923 89.998,350.009 89.958,350.077C89.918,350.145 89.87,350.199 89.814,350.239C89.686,350.319 89.502,350.419 89.262,350.539C89.022,350.659 88.756,350.785 88.464,350.917C88.172,351.049 87.87,351.181 87.558,351.313C87.246,351.445 86.952,351.571 86.676,351.691C86.4,351.811 86.16,351.917 85.956,352.009C85.752,352.101 85.614,352.167 85.542,352.207C85.542,352.479 85.596,352.733 85.704,352.969C85.812,353.205 85.962,353.411 86.154,353.587C86.346,353.763 86.576,353.901 86.844,354.001C87.112,354.101 87.406,354.151 87.726,354.151C88.014,354.151 88.274,354.121 88.506,354.061C88.738,354.001 88.934,353.933 89.094,353.857C89.254,353.781 89.38,353.713 89.472,353.653C89.564,353.593 89.614,353.563 89.622,353.563C89.654,353.563 89.686,353.577 89.718,353.605C89.75,353.633 89.766,353.663 89.766,353.695ZM85.542,351.859C85.678,351.811 85.832,351.753 86.004,351.685C86.176,351.617 86.344,351.543 86.508,351.463C86.672,351.383 86.822,351.307 86.958,351.235C87.094,351.163 87.198,351.099 87.27,351.043C87.414,350.939 87.486,350.763 87.486,350.515C87.486,350.419 87.468,350.319 87.432,350.215C87.396,350.111 87.342,350.017 87.27,349.933C87.198,349.849 87.11,349.781 87.006,349.729C86.902,349.677 86.786,349.651 86.658,349.651C86.546,349.651 86.426,349.689 86.298,349.765C86.17,349.841 86.05,349.965 85.938,350.137C85.826,350.309 85.732,350.537 85.656,350.821C85.58,351.105 85.542,351.451 85.542,351.859Z" style="fill-rule:nonzero;"/>
            <path d="M89.742,358.663C89.814,358.583 89.922,358.451 90.066,358.267C90.21,358.083 90.368,357.875 90.54,357.643C90.712,357.411 90.888,357.163 91.068,356.899C91.248,356.635 91.418,356.385 91.578,356.149C91.738,355.913 91.876,355.697 91.992,355.501C92.108,355.305 92.182,355.159 92.214,355.063C92.086,354.727 91.95,354.371 91.806,353.995C91.662,353.619 91.512,353.247 91.356,352.879C91.2,352.511 91.044,352.159 90.888,351.823C90.732,351.487 90.578,351.193 90.426,350.941C90.274,350.689 90.128,350.487 89.988,350.335C89.848,350.183 89.722,350.107 89.61,350.107C89.578,350.107 89.542,350.117 89.502,350.137C89.462,350.157 89.426,350.175 89.394,350.191C89.37,350.207 89.342,350.187 89.31,350.131C89.278,350.075 89.278,350.039 89.31,350.023C89.342,349.999 89.436,349.939 89.592,349.843C89.748,349.747 89.922,349.645 90.114,349.537C90.306,349.429 90.492,349.331 90.672,349.243C90.852,349.155 90.982,349.111 91.062,349.111C91.142,349.111 91.236,349.183 91.344,349.327C91.452,349.471 91.564,349.665 91.68,349.909C91.796,350.153 91.918,350.431 92.046,350.743C92.174,351.055 92.302,351.381 92.43,351.721C92.558,352.061 92.684,352.403 92.808,352.747C92.932,353.091 93.05,353.411 93.162,353.707C93.266,353.547 93.4,353.319 93.564,353.023C93.728,352.727 93.886,352.411 94.038,352.075C94.19,351.739 94.32,351.407 94.428,351.079C94.536,350.751 94.59,350.475 94.59,350.251C94.59,350.019 94.534,349.853 94.422,349.753C94.31,349.653 94.186,349.603 94.05,349.603C93.946,349.603 93.864,349.605 93.804,349.609C93.744,349.613 93.678,349.623 93.606,349.639C93.59,349.639 93.566,349.629 93.534,349.609C93.502,349.589 93.486,349.559 93.486,349.519C93.486,349.479 93.574,349.435 93.75,349.387C93.926,349.339 94.13,349.295 94.362,349.255C94.594,349.215 94.822,349.181 95.046,349.153C95.27,349.125 95.426,349.111 95.514,349.111C95.698,349.111 95.834,349.147 95.922,349.219C96.01,349.291 96.054,349.375 96.054,349.471C96.006,349.663 95.904,349.913 95.748,350.221C95.592,350.529 95.406,350.865 95.19,351.229C94.974,351.593 94.744,351.969 94.5,352.357C94.256,352.745 94.022,353.111 93.798,353.455C93.574,353.799 93.372,354.107 93.192,354.379C93.012,354.651 92.882,354.851 92.802,354.979C92.642,355.227 92.49,355.485 92.346,355.753C92.202,356.021 92.07,356.289 91.95,356.557C91.83,356.825 91.724,357.081 91.632,357.325C91.54,357.569 91.474,357.791 91.434,357.991C91.41,358.111 91.432,358.189 91.5,358.225C91.568,358.261 91.656,358.269 91.764,358.249C91.872,358.229 91.99,358.191 92.118,358.135C92.246,358.079 92.354,358.015 92.442,357.943C92.482,357.911 92.508,357.905 92.52,357.925C92.532,357.945 92.538,357.975 92.538,358.015C92.538,358.055 92.53,358.097 92.514,358.141C92.498,358.185 92.478,358.215 92.454,358.231C92.446,358.231 92.354,358.267 92.178,358.339C92.002,358.411 91.79,358.489 91.542,358.573C91.294,358.657 91.032,358.735 90.756,358.807C90.48,358.879 90.238,358.915 90.03,358.915C89.83,358.915 89.73,358.851 89.73,358.723C89.73,358.707 89.732,358.695 89.736,358.687C89.74,358.679 89.742,358.671 89.742,358.663Z" style="fill-rule:nonzero;"/>
            <path d="M98.73,352.123C98.714,352.123 98.698,352.121 98.682,352.117C98.666,352.113 98.654,352.099 98.646,352.075C98.646,352.067 98.656,352.039 98.676,351.991C98.696,351.943 98.73,351.891 98.778,351.835C98.826,351.779 98.886,351.729 98.958,351.685C99.03,351.641 99.118,351.619 99.222,351.619C99.35,351.619 99.454,351.653 99.534,351.721C99.614,351.789 99.678,351.883 99.726,352.003C99.774,352.123 99.806,352.261 99.822,352.417C99.838,352.573 99.846,352.739 99.846,352.915C99.87,353.107 99.96,353.303 100.116,353.503C100.272,353.703 100.464,353.883 100.692,354.043C100.92,354.203 101.17,354.335 101.442,354.439C101.714,354.543 101.978,354.599 102.234,354.607C102.842,354.623 103.286,354.493 103.566,354.217C103.846,353.941 103.986,353.587 103.986,353.155C103.986,352.795 103.918,352.503 103.782,352.279C103.646,352.055 103.464,351.875 103.236,351.739C103.008,351.603 102.75,351.493 102.462,351.409C102.174,351.325 101.88,351.247 101.58,351.175C101.28,351.103 100.986,351.023 100.698,350.935C100.41,350.847 100.152,350.727 99.924,350.575C99.696,350.423 99.514,350.225 99.378,349.981C99.242,349.737 99.174,349.423 99.174,349.039C99.174,348.671 99.256,348.321 99.42,347.989C99.584,347.657 99.818,347.365 100.122,347.113C100.426,346.861 100.796,346.661 101.232,346.513C101.668,346.365 102.162,346.291 102.714,346.291C103.242,346.291 103.694,346.343 104.07,346.447C104.446,346.551 104.734,346.631 104.934,346.687C104.974,346.623 105.018,346.549 105.066,346.465C105.114,346.381 105.168,346.303 105.228,346.231C105.288,346.159 105.354,346.097 105.426,346.045C105.498,345.993 105.582,345.967 105.678,345.967C105.75,345.967 105.808,345.989 105.852,346.033C105.896,346.077 105.918,346.119 105.918,346.159C105.902,346.199 105.87,346.231 105.822,346.255C105.774,346.279 105.73,346.303 105.69,346.327C105.442,346.455 105.236,346.753 105.072,347.221C104.908,347.689 104.814,348.263 104.79,348.943C104.782,348.959 104.762,348.971 104.73,348.979C104.698,348.987 104.662,348.991 104.622,348.991C104.558,348.991 104.514,348.987 104.49,348.979C104.466,348.739 104.394,348.495 104.274,348.247C104.154,347.999 103.988,347.773 103.776,347.569C103.564,347.365 103.304,347.199 102.996,347.071C102.688,346.943 102.338,346.879 101.946,346.879C101.706,346.879 101.49,346.913 101.298,346.981C101.106,347.049 100.944,347.141 100.812,347.257C100.68,347.373 100.58,347.503 100.512,347.647C100.444,347.791 100.41,347.935 100.41,348.079C100.41,348.415 100.546,348.721 100.818,348.997C101.09,349.273 101.502,349.479 102.054,349.615C102.398,349.703 102.756,349.801 103.128,349.909C103.5,350.017 103.838,350.163 104.142,350.347C104.446,350.531 104.698,350.763 104.898,351.043C105.098,351.323 105.198,351.679 105.198,352.111C105.198,352.535 105.1,352.941 104.904,353.329C104.708,353.717 104.45,354.059 104.13,354.355C103.81,354.651 103.446,354.887 103.038,355.063C102.63,355.239 102.214,355.327 101.79,355.327C101.462,355.327 101.142,355.305 100.83,355.261C100.518,355.217 100.23,355.165 99.966,355.105C99.702,355.045 99.47,354.981 99.27,354.913C99.07,354.845 98.922,354.787 98.826,354.739C98.898,354.611 98.972,354.475 99.048,354.331C99.124,354.187 99.196,354.035 99.264,353.875C99.332,353.715 99.388,353.549 99.432,353.377C99.476,353.205 99.498,353.023 99.498,352.831C99.498,352.551 99.456,352.339 99.372,352.195C99.288,352.051 99.19,351.979 99.078,351.979C98.998,351.979 98.942,351.995 98.91,352.027C98.878,352.059 98.838,352.107 98.79,352.171L98.73,352.123Z" style="fill-rule:nonzero;"/>
            <path d="M111.606,353.431C111.622,353.415 111.636,353.417 111.648,353.437C111.66,353.457 111.668,353.485 111.672,353.521C111.676,353.557 111.674,353.595 111.666,353.635C111.658,353.675 111.642,353.707 111.618,353.731C111.458,353.883 111.258,354.043 111.018,354.211C110.778,354.379 110.53,354.535 110.274,354.679C110.202,354.719 110.102,354.771 109.974,354.835C109.846,354.899 109.704,354.961 109.548,355.021C109.392,355.081 109.232,355.133 109.068,355.177C108.904,355.221 108.75,355.243 108.606,355.243C108.318,355.243 108.046,355.187 107.79,355.075C107.534,354.963 107.31,354.809 107.118,354.613C106.926,354.417 106.776,354.183 106.668,353.911C106.56,353.639 106.506,353.343 106.506,353.023C106.506,352.679 106.554,352.355 106.65,352.051C106.746,351.747 106.856,351.475 106.98,351.235C107.104,350.995 107.222,350.793 107.334,350.629C107.446,350.465 107.522,350.343 107.562,350.263C107.41,350.255 107.272,350.249 107.148,350.245C107.024,350.241 106.906,350.239 106.794,350.239C106.538,350.239 106.322,350.241 106.146,350.245C105.97,350.249 105.814,350.267 105.678,350.299C105.614,350.315 105.554,350.347 105.498,350.395C105.442,350.443 105.394,350.479 105.354,350.503C105.338,350.487 105.316,350.465 105.288,350.437C105.26,350.409 105.246,350.379 105.246,350.347C105.246,350.331 105.25,350.319 105.258,350.311C105.258,350.303 105.31,350.257 105.414,350.173C105.518,350.089 105.648,349.989 105.804,349.873C105.96,349.757 106.132,349.629 106.32,349.489C106.508,349.349 106.688,349.219 106.86,349.099C107.032,348.979 107.18,348.877 107.304,348.793C107.428,348.709 107.51,348.659 107.55,348.643C107.598,348.627 107.646,348.635 107.694,348.667C107.742,348.699 107.758,348.723 107.742,348.739C107.718,348.755 107.682,348.785 107.634,348.829C107.586,348.873 107.57,348.911 107.586,348.943C107.674,349.015 107.826,349.079 108.042,349.135C108.258,349.191 108.502,349.237 108.774,349.273C109.046,349.309 109.326,349.337 109.614,349.357C109.902,349.377 110.162,349.387 110.394,349.387C110.738,349.387 111.014,349.377 111.222,349.357C111.43,349.337 111.602,349.311 111.738,349.279C111.866,349.247 111.95,349.223 111.99,349.207C111.998,349.207 112.014,349.219 112.038,349.243C112.062,349.267 112.074,349.295 112.074,349.327C112.074,349.343 112.016,349.383 111.9,349.447C111.784,349.511 111.666,349.579 111.546,349.651C111.474,349.691 111.388,349.743 111.288,349.807C111.188,349.871 111.08,349.933 110.964,349.993C110.848,350.053 110.726,350.107 110.598,350.155C110.47,350.203 110.346,350.231 110.226,350.239C110.106,350.255 109.966,350.267 109.806,350.275C109.646,350.283 109.478,350.289 109.302,350.293C109.126,350.297 108.948,350.301 108.768,350.305C108.588,350.309 108.422,350.311 108.27,350.311C108.246,350.351 108.208,350.417 108.156,350.509C108.104,350.601 108.054,350.719 108.006,350.863C107.958,351.007 107.914,351.171 107.874,351.355C107.834,351.539 107.814,351.739 107.814,351.955C107.814,352.283 107.864,352.585 107.964,352.861C108.064,353.137 108.204,353.375 108.384,353.575C108.564,353.775 108.778,353.931 109.026,354.043C109.274,354.155 109.542,354.211 109.83,354.211C109.998,354.211 110.16,354.191 110.316,354.151C110.472,354.111 110.62,354.059 110.76,353.995C110.9,353.931 111.03,353.861 111.15,353.785C111.27,353.709 111.374,353.635 111.462,353.563L111.606,353.431Z" style="fill-rule:nonzero;"/>
            <path d="M117.138,353.695C117.05,353.791 116.914,353.923 116.73,354.091C116.546,354.259 116.324,354.427 116.064,354.595C115.804,354.763 115.514,354.907 115.194,355.027C114.874,355.147 114.534,355.207 114.174,355.207C113.846,355.207 113.526,355.157 113.214,355.057C112.902,354.957 112.622,354.805 112.374,354.601C112.126,354.397 111.928,354.137 111.78,353.821C111.632,353.505 111.558,353.127 111.558,352.687C111.558,352.327 111.582,352.017 111.63,351.757C111.678,351.497 111.742,351.269 111.822,351.073C111.902,350.877 111.992,350.709 112.092,350.569C112.192,350.429 112.294,350.303 112.398,350.191C112.526,350.047 112.682,349.911 112.866,349.783C113.05,349.655 113.248,349.539 113.46,349.435C113.672,349.331 113.896,349.249 114.132,349.189C114.368,349.129 114.606,349.099 114.846,349.099C115.278,349.099 115.616,349.171 115.86,349.315C116.104,349.459 116.226,349.659 116.226,349.915C116.226,350.075 116.178,350.223 116.082,350.359C116.162,350.335 116.264,350.295 116.388,350.239C116.512,350.183 116.638,350.125 116.766,350.065C116.894,350.005 117.008,349.951 117.108,349.903C117.208,349.855 117.274,349.819 117.306,349.795C117.322,349.779 117.34,349.773 117.36,349.777C117.38,349.781 117.39,349.795 117.39,349.819C117.39,349.923 117.37,350.009 117.33,350.077C117.29,350.145 117.242,350.199 117.186,350.239C117.058,350.319 116.874,350.419 116.634,350.539C116.394,350.659 116.128,350.785 115.836,350.917C115.544,351.049 115.242,351.181 114.93,351.313C114.618,351.445 114.324,351.571 114.048,351.691C113.772,351.811 113.532,351.917 113.328,352.009C113.124,352.101 112.986,352.167 112.914,352.207C112.914,352.479 112.968,352.733 113.076,352.969C113.184,353.205 113.334,353.411 113.526,353.587C113.718,353.763 113.948,353.901 114.216,354.001C114.484,354.101 114.778,354.151 115.098,354.151C115.386,354.151 115.646,354.121 115.878,354.061C116.11,354.001 116.306,353.933 116.466,353.857C116.626,353.781 116.752,353.713 116.844,353.653C116.936,353.593 116.986,353.563 116.994,353.563C117.026,353.563 117.058,353.577 117.09,353.605C117.122,353.633 117.138,353.663 117.138,353.695ZM112.914,351.859C113.05,351.811 113.204,351.753 113.376,351.685C113.548,351.617 113.716,351.543 113.88,351.463C114.044,351.383 114.194,351.307 114.33,351.235C114.466,351.163 114.57,351.099 114.642,351.043C114.786,350.939 114.858,350.763 114.858,350.515C114.858,350.419 114.84,350.319 114.804,350.215C114.768,350.111 114.714,350.017 114.642,349.933C114.57,349.849 114.482,349.781 114.378,349.729C114.274,349.677 114.158,349.651 114.03,349.651C113.918,349.651 113.798,349.689 113.67,349.765C113.542,349.841 113.422,349.965 113.31,350.137C113.198,350.309 113.104,350.537 113.028,350.821C112.952,351.105 112.914,351.451 112.914,351.859Z" style="fill-rule:nonzero;"/>
            <path d="M121.71,354.547C121.454,354.707 121.138,354.851 120.762,354.979C120.386,355.107 120.022,355.171 119.67,355.171C119.558,355.171 119.432,355.163 119.292,355.147C119.152,355.131 119.038,355.115 118.95,355.099C118.942,355.251 118.936,355.407 118.932,355.567C118.928,355.727 118.924,355.881 118.92,356.029C118.916,356.177 118.912,356.315 118.908,356.443C118.904,356.571 118.902,356.679 118.902,356.767C118.902,357.175 118.936,357.451 119.004,357.595C119.072,357.739 119.178,357.811 119.322,357.811C119.394,357.811 119.492,357.801 119.616,357.781C119.74,357.761 119.85,357.727 119.946,357.679C119.962,357.663 119.98,357.679 120,357.727C120.02,357.775 120.03,357.819 120.03,357.859C120.03,357.867 119.974,357.889 119.862,357.925C119.75,357.961 119.608,358.005 119.436,358.057C119.264,358.109 119.078,358.165 118.878,358.225C118.678,358.285 118.486,358.341 118.302,358.393C118.118,358.445 117.96,358.487 117.828,358.519C117.696,358.551 117.614,358.567 117.582,358.567C117.534,358.567 117.49,358.563 117.45,358.555C117.41,358.547 117.39,358.511 117.39,358.447C117.39,358.407 117.404,358.381 117.432,358.369C117.46,358.357 117.482,358.339 117.498,358.315C117.538,358.267 117.562,358.177 117.57,358.045C117.578,357.913 117.59,357.783 117.606,357.655C117.63,357.343 117.656,356.973 117.684,356.545C117.712,356.117 117.738,355.669 117.762,355.201C117.786,354.733 117.808,354.265 117.828,353.797C117.848,353.329 117.858,352.903 117.858,352.519C117.858,351.975 117.836,351.549 117.792,351.241C117.748,350.933 117.686,350.705 117.606,350.557C117.526,350.409 117.436,350.317 117.336,350.281C117.236,350.245 117.13,350.227 117.018,350.227C116.994,350.227 116.96,350.229 116.916,350.233C116.872,350.237 116.83,350.239 116.79,350.239C116.758,350.239 116.742,350.211 116.742,350.155C116.742,350.115 116.744,350.089 116.748,350.077C116.752,350.065 116.77,350.051 116.802,350.035C116.842,350.011 116.916,349.971 117.024,349.915C117.132,349.859 117.256,349.797 117.396,349.729C117.536,349.661 117.686,349.589 117.846,349.513C118.006,349.437 118.156,349.369 118.296,349.309C118.436,349.249 118.558,349.199 118.662,349.159C118.766,349.119 118.838,349.099 118.878,349.099C118.998,349.099 119.08,349.151 119.124,349.255C119.168,349.359 119.194,349.499 119.202,349.675C119.202,349.747 119.2,349.861 119.196,350.017C119.192,350.173 119.186,350.351 119.178,350.551C119.282,350.439 119.424,350.301 119.604,350.137C119.784,349.973 119.988,349.815 120.216,349.663C120.444,349.511 120.684,349.381 120.936,349.273C121.188,349.165 121.434,349.111 121.674,349.111C122.018,349.111 122.324,349.173 122.592,349.297C122.86,349.421 123.082,349.585 123.258,349.789C123.434,349.993 123.568,350.225 123.66,350.485C123.752,350.745 123.798,351.011 123.798,351.283C123.798,351.667 123.74,352.021 123.624,352.345C123.508,352.669 123.366,352.957 123.198,353.209C123.03,353.461 122.846,353.679 122.646,353.863C122.446,354.047 122.262,354.191 122.094,354.295L121.71,354.547ZM119.01,353.623C119.034,353.711 119.098,353.801 119.202,353.893C119.306,353.985 119.44,354.069 119.604,354.145C119.768,354.221 119.956,354.285 120.168,354.337C120.38,354.389 120.606,354.415 120.846,354.415C121.062,354.415 121.268,354.373 121.464,354.289C121.66,354.205 121.83,354.073 121.974,353.893C122.118,353.713 122.232,353.479 122.316,353.191C122.4,352.903 122.442,352.555 122.442,352.147C122.442,351.859 122.402,351.587 122.322,351.331C122.242,351.075 122.126,350.851 121.974,350.659C121.822,350.467 121.642,350.317 121.434,350.209C121.226,350.101 120.998,350.047 120.75,350.047C120.622,350.047 120.48,350.075 120.324,350.131C120.168,350.187 120.018,350.263 119.874,350.359C119.73,350.455 119.596,350.567 119.472,350.695C119.348,350.823 119.258,350.959 119.202,351.103C119.162,351.199 119.128,351.349 119.1,351.553C119.072,351.757 119.052,351.981 119.04,352.225C119.028,352.469 119.02,352.715 119.016,352.963C119.012,353.211 119.01,353.431 119.01,353.623Z" style="fill-rule:nonzero;"/>
            <path d="M75.162,364.123C75.146,364.123 75.13,364.121 75.114,364.117C75.098,364.113 75.086,364.099 75.078,364.075C75.078,364.067 75.088,364.039 75.108,363.991C75.128,363.943 75.162,363.891 75.21,363.835C75.258,363.779 75.318,363.729 75.39,363.685C75.462,363.641 75.55,363.619 75.654,363.619C75.782,363.619 75.886,363.653 75.966,363.721C76.046,363.789 76.11,363.883 76.158,364.003C76.206,364.123 76.238,364.261 76.254,364.417C76.27,364.573 76.278,364.739 76.278,364.915C76.302,365.107 76.392,365.303 76.548,365.503C76.704,365.703 76.896,365.883 77.124,366.043C77.352,366.203 77.602,366.335 77.874,366.439C78.146,366.543 78.41,366.599 78.666,366.607C79.274,366.623 79.718,366.493 79.998,366.217C80.278,365.941 80.418,365.587 80.418,365.155C80.418,364.795 80.35,364.503 80.214,364.279C80.078,364.055 79.896,363.875 79.668,363.739C79.44,363.603 79.182,363.493 78.894,363.409C78.606,363.325 78.312,363.247 78.012,363.175C77.712,363.103 77.418,363.023 77.13,362.935C76.842,362.847 76.584,362.727 76.356,362.575C76.128,362.423 75.946,362.225 75.81,361.981C75.674,361.737 75.606,361.423 75.606,361.039C75.606,360.671 75.688,360.321 75.852,359.989C76.016,359.657 76.25,359.365 76.554,359.113C76.858,358.861 77.228,358.661 77.664,358.513C78.1,358.365 78.594,358.291 79.146,358.291C79.674,358.291 80.126,358.343 80.502,358.447C80.878,358.551 81.166,358.631 81.366,358.687C81.406,358.623 81.45,358.549 81.498,358.465C81.546,358.381 81.6,358.303 81.66,358.231C81.72,358.159 81.786,358.097 81.858,358.045C81.93,357.993 82.014,357.967 82.11,357.967C82.182,357.967 82.24,357.989 82.284,358.033C82.328,358.077 82.35,358.119 82.35,358.159C82.334,358.199 82.302,358.231 82.254,358.255C82.206,358.279 82.162,358.303 82.122,358.327C81.874,358.455 81.668,358.753 81.504,359.221C81.34,359.689 81.246,360.263 81.222,360.943C81.214,360.959 81.194,360.971 81.162,360.979C81.13,360.987 81.094,360.991 81.054,360.991C80.99,360.991 80.946,360.987 80.922,360.979C80.898,360.739 80.826,360.495 80.706,360.247C80.586,359.999 80.42,359.773 80.208,359.569C79.996,359.365 79.736,359.199 79.428,359.071C79.12,358.943 78.77,358.879 78.378,358.879C78.138,358.879 77.922,358.913 77.73,358.981C77.538,359.049 77.376,359.141 77.244,359.257C77.112,359.373 77.012,359.503 76.944,359.647C76.876,359.791 76.842,359.935 76.842,360.079C76.842,360.415 76.978,360.721 77.25,360.997C77.522,361.273 77.934,361.479 78.486,361.615C78.83,361.703 79.188,361.801 79.56,361.909C79.932,362.017 80.27,362.163 80.574,362.347C80.878,362.531 81.13,362.763 81.33,363.043C81.53,363.323 81.63,363.679 81.63,364.111C81.63,364.535 81.532,364.941 81.336,365.329C81.14,365.717 80.882,366.059 80.562,366.355C80.242,366.651 79.878,366.887 79.47,367.063C79.062,367.239 78.646,367.327 78.222,367.327C77.894,367.327 77.574,367.305 77.262,367.261C76.95,367.217 76.662,367.165 76.398,367.105C76.134,367.045 75.902,366.981 75.702,366.913C75.502,366.845 75.354,366.787 75.258,366.739C75.33,366.611 75.404,366.475 75.48,366.331C75.556,366.187 75.628,366.035 75.696,365.875C75.764,365.715 75.82,365.549 75.864,365.377C75.908,365.205 75.93,365.023 75.93,364.831C75.93,364.551 75.888,364.339 75.804,364.195C75.72,364.051 75.622,363.979 75.51,363.979C75.43,363.979 75.374,363.995 75.342,364.027C75.31,364.059 75.27,364.107 75.222,364.171L75.162,364.123Z" style="fill-rule:nonzero;"/>
            <path d="M87.942,365.695C87.854,365.791 87.718,365.923 87.534,366.091C87.35,366.259 87.128,366.427 86.868,366.595C86.608,366.763 86.318,366.907 85.998,367.027C85.678,367.147 85.338,367.207 84.978,367.207C84.65,367.207 84.33,367.157 84.018,367.057C83.706,366.957 83.426,366.805 83.178,366.601C82.93,366.397 82.732,366.137 82.584,365.821C82.436,365.505 82.362,365.127 82.362,364.687C82.362,364.327 82.386,364.017 82.434,363.757C82.482,363.497 82.546,363.269 82.626,363.073C82.706,362.877 82.796,362.709 82.896,362.569C82.996,362.429 83.098,362.303 83.202,362.191C83.33,362.047 83.486,361.911 83.67,361.783C83.854,361.655 84.052,361.539 84.264,361.435C84.476,361.331 84.7,361.249 84.936,361.189C85.172,361.129 85.41,361.099 85.65,361.099C86.082,361.099 86.42,361.171 86.664,361.315C86.908,361.459 87.03,361.659 87.03,361.915C87.03,362.075 86.982,362.223 86.886,362.359C86.966,362.335 87.068,362.295 87.192,362.239C87.316,362.183 87.442,362.125 87.57,362.065C87.698,362.005 87.812,361.951 87.912,361.903C88.012,361.855 88.078,361.819 88.11,361.795C88.126,361.779 88.144,361.773 88.164,361.777C88.184,361.781 88.194,361.795 88.194,361.819C88.194,361.923 88.174,362.009 88.134,362.077C88.094,362.145 88.046,362.199 87.99,362.239C87.862,362.319 87.678,362.419 87.438,362.539C87.198,362.659 86.932,362.785 86.64,362.917C86.348,363.049 86.046,363.181 85.734,363.313C85.422,363.445 85.128,363.571 84.852,363.691C84.576,363.811 84.336,363.917 84.132,364.009C83.928,364.101 83.79,364.167 83.718,364.207C83.718,364.479 83.772,364.733 83.88,364.969C83.988,365.205 84.138,365.411 84.33,365.587C84.522,365.763 84.752,365.901 85.02,366.001C85.288,366.101 85.582,366.151 85.902,366.151C86.19,366.151 86.45,366.121 86.682,366.061C86.914,366.001 87.11,365.933 87.27,365.857C87.43,365.781 87.556,365.713 87.648,365.653C87.74,365.593 87.79,365.563 87.798,365.563C87.83,365.563 87.862,365.577 87.894,365.605C87.926,365.633 87.942,365.663 87.942,365.695ZM83.718,363.859C83.854,363.811 84.008,363.753 84.18,363.685C84.352,363.617 84.52,363.543 84.684,363.463C84.848,363.383 84.998,363.307 85.134,363.235C85.27,363.163 85.374,363.099 85.446,363.043C85.59,362.939 85.662,362.763 85.662,362.515C85.662,362.419 85.644,362.319 85.608,362.215C85.572,362.111 85.518,362.017 85.446,361.933C85.374,361.849 85.286,361.781 85.182,361.729C85.078,361.677 84.962,361.651 84.834,361.651C84.722,361.651 84.602,361.689 84.474,361.765C84.346,361.841 84.226,361.965 84.114,362.137C84.002,362.309 83.908,362.537 83.832,362.821C83.756,363.105 83.718,363.451 83.718,363.859Z" style="fill-rule:nonzero;"/>
            <path d="M89.898,363.931C89.89,364.003 89.882,364.067 89.874,364.123C89.866,364.179 89.86,364.243 89.856,364.315C89.852,364.387 89.848,364.477 89.844,364.585C89.84,364.693 89.838,364.835 89.838,365.011C89.838,365.299 89.848,365.535 89.868,365.719C89.888,365.903 89.918,366.049 89.958,366.157C89.998,366.265 90.048,366.339 90.108,366.379C90.168,366.419 90.242,366.439 90.33,366.439C90.386,366.439 90.446,366.431 90.51,366.415C90.526,366.415 90.54,366.437 90.552,366.481C90.564,366.525 90.562,366.555 90.546,366.571C90.498,366.611 90.404,366.669 90.264,366.745C90.124,366.821 89.966,366.895 89.79,366.967C89.614,367.039 89.432,367.103 89.244,367.159C89.056,367.215 88.898,367.243 88.77,367.243C88.658,367.243 88.57,367.229 88.506,367.201C88.442,367.173 88.41,367.139 88.41,367.099C88.41,367.059 88.414,367.035 88.422,367.027C88.43,367.019 88.442,366.999 88.458,366.967C88.474,366.927 88.486,366.877 88.494,366.817C88.502,366.757 88.514,366.687 88.53,366.607C88.546,366.495 88.562,366.353 88.578,366.181C88.594,366.009 88.61,365.821 88.626,365.617C88.642,365.413 88.656,365.201 88.668,364.981C88.68,364.761 88.686,364.547 88.686,364.339C88.686,364.251 88.684,364.141 88.68,364.009C88.676,363.877 88.67,363.707 88.662,363.499C88.654,363.267 88.628,363.069 88.584,362.905C88.54,362.741 88.484,362.609 88.416,362.509C88.348,362.409 88.272,362.335 88.188,362.287C88.104,362.239 88.022,362.215 87.942,362.215L87.822,362.215C87.782,362.215 87.742,362.219 87.702,362.227C87.67,362.227 87.654,362.191 87.654,362.119C87.654,362.103 87.66,362.089 87.672,362.077C87.684,362.065 87.722,362.039 87.786,361.999C87.89,361.927 88.03,361.839 88.206,361.735C88.382,361.631 88.562,361.535 88.746,361.447C88.93,361.359 89.104,361.283 89.268,361.219C89.432,361.155 89.558,361.123 89.646,361.123C89.878,361.123 89.994,361.255 89.994,361.519C89.994,361.559 89.99,361.631 89.982,361.735C89.974,361.839 89.968,361.945 89.964,362.053C89.96,362.161 89.954,362.263 89.946,362.359C89.938,362.455 89.934,362.519 89.934,362.551C90.102,362.391 90.282,362.227 90.474,362.059C90.666,361.891 90.874,361.737 91.098,361.597C91.322,361.457 91.558,361.343 91.806,361.255C92.054,361.167 92.31,361.123 92.574,361.123C93.054,361.123 93.448,361.261 93.756,361.537C94.064,361.813 94.218,362.251 94.218,362.851C94.218,363.011 94.208,363.199 94.188,363.415C94.168,363.631 94.146,363.855 94.122,364.087C94.098,364.319 94.076,364.547 94.056,364.771C94.036,364.995 94.026,365.195 94.026,365.371C94.026,366.011 94.234,366.331 94.65,366.331C94.73,366.331 94.82,366.317 94.92,366.289C95.02,366.261 95.116,366.229 95.208,366.193C95.3,366.157 95.382,366.121 95.454,366.085C95.526,366.049 95.574,366.019 95.598,365.995C95.606,365.987 95.616,365.993 95.628,366.013C95.64,366.033 95.65,366.059 95.658,366.091C95.666,366.123 95.668,366.151 95.664,366.175C95.66,366.199 95.654,366.215 95.646,366.223C95.582,366.263 95.444,366.339 95.232,366.451C95.02,366.563 94.784,366.677 94.524,366.793C94.264,366.909 94.006,367.013 93.75,367.105C93.494,367.197 93.29,367.243 93.138,367.243C92.954,367.243 92.828,367.199 92.76,367.111C92.692,367.023 92.658,366.931 92.658,366.835C92.658,366.771 92.668,366.691 92.688,366.595C92.708,366.499 92.734,366.343 92.766,366.127C92.798,365.895 92.828,365.623 92.856,365.311C92.884,364.999 92.898,364.663 92.898,364.303C92.898,363.599 92.768,363.065 92.508,362.701C92.248,362.337 91.922,362.155 91.53,362.155C91.282,362.155 91.062,362.203 90.87,362.299C90.678,362.395 90.514,362.525 90.378,362.689C90.242,362.853 90.134,363.041 90.054,363.253C89.974,363.465 89.922,363.691 89.898,363.931Z" style="fill-rule:nonzero;"/>
            <path d="M100.014,366.139C99.942,366.211 99.826,366.307 99.666,366.427C99.506,366.547 99.318,366.665 99.102,366.781C98.886,366.897 98.652,366.997 98.4,367.081C98.148,367.165 97.894,367.207 97.638,367.207C97.374,367.207 97.11,367.147 96.846,367.027C96.582,366.907 96.344,366.733 96.132,366.505C95.92,366.277 95.75,366.003 95.622,365.683C95.494,365.363 95.43,365.003 95.43,364.603C95.43,364.083 95.52,363.611 95.7,363.187C95.88,362.763 96.144,362.403 96.492,362.107C96.84,361.811 97.264,361.583 97.764,361.423C98.264,361.263 98.838,361.183 99.486,361.183L99.81,361.183C99.914,361.183 100.01,361.187 100.098,361.195L100.098,360.805C100.098,360.617 100.096,360.423 100.092,360.223C100.088,360.023 100.084,359.839 100.08,359.671C100.076,359.503 100.074,359.399 100.074,359.359C100.042,359.039 99.988,358.815 99.912,358.687C99.836,358.559 99.682,358.495 99.45,358.495C99.418,358.495 99.4,358.459 99.396,358.387C99.392,358.315 99.418,358.259 99.474,358.219C99.538,358.179 99.61,358.149 99.69,358.129C99.77,358.109 99.89,358.099 100.05,358.099C100.354,358.099 100.608,358.097 100.812,358.093C101.016,358.089 101.184,358.081 101.316,358.069C101.448,358.057 101.554,358.041 101.634,358.021C101.714,358.001 101.782,357.979 101.838,357.955C101.878,357.947 101.912,357.957 101.94,357.985C101.968,358.013 101.988,358.049 102,358.093C102.012,358.137 102.014,358.179 102.006,358.219C101.998,358.259 101.974,358.283 101.934,358.291C101.846,358.307 101.78,358.325 101.736,358.345C101.692,358.365 101.65,358.403 101.61,358.459C101.57,358.515 101.534,358.663 101.502,358.903C101.47,359.143 101.438,359.439 101.406,359.791C101.374,360.143 101.346,360.533 101.322,360.961C101.298,361.389 101.278,361.819 101.262,362.251C101.246,362.683 101.232,363.103 101.22,363.511C101.208,363.919 101.202,364.275 101.202,364.579C101.202,365.163 101.266,365.593 101.394,365.869C101.522,366.145 101.718,366.283 101.982,366.283C102.078,366.283 102.184,366.267 102.3,366.235C102.416,366.203 102.524,366.165 102.624,366.121C102.724,366.077 102.816,366.033 102.9,365.989C102.984,365.945 103.046,365.907 103.086,365.875C103.126,365.843 103.162,365.863 103.194,365.935C103.226,366.007 103.222,366.055 103.182,366.079C103.086,366.135 102.936,366.217 102.732,366.325C102.528,366.433 102.302,366.547 102.054,366.667C101.75,366.819 101.442,366.955 101.13,367.075C100.818,367.195 100.566,367.255 100.374,367.255C100.23,367.255 100.132,367.231 100.08,367.183C100.028,367.135 100.002,367.059 100.002,366.955L100.002,366.793C100.002,366.717 100.004,366.637 100.008,366.553C100.012,366.469 100.014,366.389 100.014,366.313L100.014,366.139ZM99.858,365.731C99.922,365.643 99.97,365.541 100.002,365.425C100.034,365.309 100.058,365.151 100.074,364.951C100.09,364.783 100.098,364.577 100.098,364.333L100.098,363.691C100.098,363.507 100.096,363.311 100.092,363.103C100.088,362.895 100.082,362.751 100.074,362.671C100.058,362.535 100.002,362.407 99.906,362.287C99.81,362.167 99.686,362.063 99.534,361.975C99.382,361.887 99.204,361.817 99,361.765C98.796,361.713 98.582,361.687 98.358,361.687C98.142,361.687 97.938,361.723 97.746,361.795C97.554,361.867 97.388,361.983 97.248,362.143C97.108,362.303 96.998,362.509 96.918,362.761C96.838,363.013 96.798,363.323 96.798,363.691C96.798,364.067 96.85,364.409 96.954,364.717C97.058,365.025 97.202,365.291 97.386,365.515C97.57,365.739 97.79,365.913 98.046,366.037C98.302,366.161 98.582,366.223 98.886,366.223C99.006,366.223 99.118,366.205 99.222,366.169C99.326,366.133 99.42,366.089 99.504,366.037C99.588,365.985 99.662,365.931 99.726,365.875C99.79,365.819 99.834,365.771 99.858,365.731Z" style="fill-rule:nonzero;"/>
            <path d="M108.114,365.695C108.026,365.791 107.89,365.923 107.706,366.091C107.522,366.259 107.3,366.427 107.04,366.595C106.78,366.763 106.49,366.907 106.17,367.027C105.85,367.147 105.51,367.207 105.15,367.207C104.822,367.207 104.502,367.157 104.19,367.057C103.878,366.957 103.598,366.805 103.35,366.601C103.102,366.397 102.904,366.137 102.756,365.821C102.608,365.505 102.534,365.127 102.534,364.687C102.534,364.327 102.558,364.017 102.606,363.757C102.654,363.497 102.718,363.269 102.798,363.073C102.878,362.877 102.968,362.709 103.068,362.569C103.168,362.429 103.27,362.303 103.374,362.191C103.502,362.047 103.658,361.911 103.842,361.783C104.026,361.655 104.224,361.539 104.436,361.435C104.648,361.331 104.872,361.249 105.108,361.189C105.344,361.129 105.582,361.099 105.822,361.099C106.254,361.099 106.592,361.171 106.836,361.315C107.08,361.459 107.202,361.659 107.202,361.915C107.202,362.075 107.154,362.223 107.058,362.359C107.138,362.335 107.24,362.295 107.364,362.239C107.488,362.183 107.614,362.125 107.742,362.065C107.87,362.005 107.984,361.951 108.084,361.903C108.184,361.855 108.25,361.819 108.282,361.795C108.298,361.779 108.316,361.773 108.336,361.777C108.356,361.781 108.366,361.795 108.366,361.819C108.366,361.923 108.346,362.009 108.306,362.077C108.266,362.145 108.218,362.199 108.162,362.239C108.034,362.319 107.85,362.419 107.61,362.539C107.37,362.659 107.104,362.785 106.812,362.917C106.52,363.049 106.218,363.181 105.906,363.313C105.594,363.445 105.3,363.571 105.024,363.691C104.748,363.811 104.508,363.917 104.304,364.009C104.1,364.101 103.962,364.167 103.89,364.207C103.89,364.479 103.944,364.733 104.052,364.969C104.16,365.205 104.31,365.411 104.502,365.587C104.694,365.763 104.924,365.901 105.192,366.001C105.46,366.101 105.754,366.151 106.074,366.151C106.362,366.151 106.622,366.121 106.854,366.061C107.086,366.001 107.282,365.933 107.442,365.857C107.602,365.781 107.728,365.713 107.82,365.653C107.912,365.593 107.962,365.563 107.97,365.563C108.002,365.563 108.034,365.577 108.066,365.605C108.098,365.633 108.114,365.663 108.114,365.695ZM103.89,363.859C104.026,363.811 104.18,363.753 104.352,363.685C104.524,363.617 104.692,363.543 104.856,363.463C105.02,363.383 105.17,363.307 105.306,363.235C105.442,363.163 105.546,363.099 105.618,363.043C105.762,362.939 105.834,362.763 105.834,362.515C105.834,362.419 105.816,362.319 105.78,362.215C105.744,362.111 105.69,362.017 105.618,361.933C105.546,361.849 105.458,361.781 105.354,361.729C105.25,361.677 105.134,361.651 105.006,361.651C104.894,361.651 104.774,361.689 104.646,361.765C104.518,361.841 104.398,361.965 104.286,362.137C104.174,362.309 104.08,362.537 104.004,362.821C103.928,363.105 103.89,363.451 103.89,363.859Z" style="fill-rule:nonzero;"/>
            <path d="M113.682,361.999C113.594,362.071 113.49,362.161 113.37,362.269C113.25,362.377 113.124,362.481 112.992,362.581C112.86,362.681 112.726,362.767 112.59,362.839C112.454,362.911 112.322,362.947 112.194,362.947C112.082,362.947 111.982,362.921 111.894,362.869C111.806,362.817 111.724,362.761 111.648,362.701C111.572,362.641 111.498,362.585 111.426,362.533C111.354,362.481 111.278,362.455 111.198,362.455C110.982,362.455 110.8,362.543 110.652,362.719C110.504,362.895 110.384,363.119 110.292,363.391C110.2,363.663 110.132,363.959 110.088,364.279C110.044,364.599 110.022,364.907 110.022,365.203C110.022,365.451 110.032,365.653 110.052,365.809C110.072,365.965 110.102,366.089 110.142,366.181C110.182,366.273 110.236,366.335 110.304,366.367C110.372,366.399 110.454,366.415 110.55,366.415C110.654,366.415 110.766,366.399 110.886,366.367C110.91,366.359 110.928,366.375 110.94,366.415C110.952,366.455 110.958,366.487 110.958,366.511C110.958,366.527 110.946,366.545 110.922,366.565C110.898,366.585 110.882,366.595 110.874,366.595C110.698,366.667 110.518,366.745 110.334,366.829C110.15,366.913 109.998,366.983 109.878,367.039C109.766,367.087 109.632,367.139 109.476,367.195C109.32,367.251 109.186,367.279 109.074,367.279C108.946,367.279 108.84,367.259 108.756,367.219C108.672,367.179 108.63,367.139 108.63,367.099C108.63,367.059 108.64,367.023 108.66,366.991C108.68,366.959 108.698,366.899 108.714,366.811C108.73,366.691 108.748,366.549 108.768,366.385C108.788,366.221 108.808,366.043 108.828,365.851C108.848,365.659 108.864,365.461 108.876,365.257C108.888,365.053 108.894,364.851 108.894,364.651C108.894,364.203 108.88,363.823 108.852,363.511C108.824,363.199 108.774,362.947 108.702,362.755C108.63,362.563 108.532,362.425 108.408,362.341C108.284,362.257 108.126,362.215 107.934,362.215L107.826,362.215C107.794,362.215 107.762,362.219 107.73,362.227C107.682,362.227 107.658,362.203 107.658,362.155C107.658,362.107 107.682,362.071 107.73,362.047C107.818,361.991 107.954,361.909 108.138,361.801C108.322,361.693 108.512,361.589 108.708,361.489C108.904,361.389 109.094,361.299 109.278,361.219C109.462,361.139 109.598,361.099 109.686,361.099C109.79,361.099 109.878,361.133 109.95,361.201C110.022,361.269 110.076,361.355 110.112,361.459C110.148,361.563 110.174,361.681 110.19,361.813C110.206,361.945 110.214,362.075 110.214,362.203C110.214,362.299 110.212,362.399 110.208,362.503C110.204,362.607 110.202,362.719 110.202,362.839C110.562,362.311 110.886,361.901 111.174,361.609C111.462,361.317 111.734,361.171 111.99,361.171C112.086,361.171 112.18,361.211 112.272,361.291C112.364,361.371 112.462,361.461 112.566,361.561C112.67,361.661 112.778,361.751 112.89,361.831C113.002,361.911 113.118,361.951 113.238,361.951C113.342,361.951 113.418,361.939 113.466,361.915C113.514,361.891 113.554,361.871 113.586,361.855C113.65,361.855 113.682,361.899 113.682,361.987L113.682,361.999Z" style="fill-rule:nonzero;"/>
        </g>
        <g transform="matrix(0.816456,0,0,0.816456,-23.4344,-271.482)">
            <text x="74.982px" y="355.099px" style="font-family:'Luminari-Regular', 'Luminari';font-size:12px;">Key Step</text>
            <text x="74.982px" y="367.099px" style="font-family:'Luminari-Regular', 'Luminari';font-size:12px;">Sender</text>
        </g>
        <g transform="matrix(0.0170879,0,0,0.0193831,17.0725,9.22119)">
            <g transform="matrix(1,0,0,1,-143.343,98.6554)">
                <ellipse cx="360.896" cy="293.762" rx="136.961" ry="230.443" style="fill:rgb(242,242,242);stroke:black;stroke-width:66.81px;"/>
            </g>
            <g transform="matrix(1,0,0,1,445.551,98.6554)">
                <ellipse cx="360.896" cy="293.762" rx="136.961" ry="230.443" style="fill:rgb(242,242,242);stroke:black;stroke-width:66.81px;"/>
            </g>
            <g transform="matrix(1,0,0,1,-34.3236,-20.6488)">
                <ellipse cx="546.324" cy="643.509" rx="431.408" ry="296.899" style="fill:rgb(242,242,242);stroke:black;stroke-width:66.81px;"/>
            </g>
            <circle cx="406.664" cy="569.758" r="105.336" style="fill:rgb(242,242,242);stroke:black;stroke-width:66.81px;"/>
            <g transform="matrix(1,0,0,1,210.672,0)">
                <circle cx="406.664" cy="569.758" r="105.336" style="fill:rgb(242,242,242);stroke:black;stroke-width:66.81px;"/>
            </g>
            <g transform="matrix(1,0,0,1,-53.1856,50.0357)">
                <ellipse cx="565.186" cy="671.455" rx="210.672" ry="98.631" style="fill:rgb(242,242,242);stroke:black;stroke-width:66.81px;"/>
            </g>
            <g transform="matrix(51.2,0,0,45.1371,0.670978,88.9676)">
                <path d="M12.057,13.791C12.057,13.668 11.958,13.568 11.835,13.568L8.139,13.568C8.016,13.568 7.916,13.668 7.916,13.791L7.916,14.236C7.916,14.359 8.016,14.458 8.139,14.458L11.835,14.458C11.958,14.458 12.057,14.359 12.057,14.236L12.057,13.791Z"/>
            </g>
        </g>
    </g>
</svg>
