<?xml version="1.0" encoding="UTF-8" standalone="no"?>
<!DOCTYPE svg PUBLIC "-//W3C//DTD SVG 1.1//EN" "http://www.w3.org/Graphics/SVG/1.1/DTD/svg11.dtd">
<svg width="100%" height="100%" viewBox="0 0 91 380" version="1.1" xmlns="http://www.w3.org/2000/svg" xmlns:xlink="http://www.w3.org/1999/xlink" xml:space="preserve" xmlns:serif="http://www.serif.com/" style="fill-rule:evenodd;clip-rule:evenodd;stroke-linecap:round;stroke-linejoin:round;stroke-miterlimit:1.5;">
    <g id="Text" transform="matrix(1,0,0,1,1.8677,-469.764)">
        <g id="rect420" transform="matrix(1.04323,0,0,1.04323,-1.86771,-28.5242)">
            <rect x="0" y="477.638" width="86.4" height="364.252" style="fill:rgb(230,230,230);"/>
        </g>
        <g transform="matrix(0.669868,0,0,0.50211,12.0779,619.816)">
            <rect x="24.068" y="279.831" width="44.785" height="59.748" style="fill:rgb(38,38,38);"/>
        </g>
        <g transform="matrix(1,0,0,1,-5.95169,475.145)">
            <circle cx="49.026" cy="95.754" r="18.958" style="fill:rgb(204,204,204);stroke:black;stroke-width:1px;"/>
        </g>
        <g id="rand" transform="matrix(0.505961,0,0,0.505961,9.07401,447.593)">
            <path d="M9.94,104.685L9.94,94.035L11.565,94.035L11.565,95.649C11.979,94.894 12.362,94.396 12.713,94.155C13.064,93.915 13.45,93.794 13.871,93.794C14.48,93.794 15.098,93.988 15.727,94.376L15.105,96.051C14.664,95.79 14.222,95.66 13.781,95.66C13.387,95.66 13.032,95.778 12.718,96.016C12.404,96.253 12.18,96.582 12.046,97.003C11.846,97.645 11.745,98.347 11.745,99.109L11.745,104.685L9.94,104.685Z" style="fill-rule:nonzero;"/>
            <path d="M23.749,103.371C23.081,103.94 22.437,104.341 21.819,104.575C21.2,104.809 20.537,104.926 19.828,104.926C18.658,104.926 17.759,104.64 17.131,104.068C16.502,103.497 16.188,102.766 16.188,101.877C16.188,101.356 16.307,100.879 16.544,100.448C16.781,100.017 17.092,99.671 17.477,99.41C17.861,99.149 18.294,98.952 18.775,98.818C19.13,98.725 19.664,98.635 20.38,98.548C21.837,98.374 22.91,98.167 23.599,97.926C23.606,97.679 23.609,97.521 23.609,97.455C23.609,96.719 23.438,96.201 23.097,95.9C22.636,95.492 21.951,95.288 21.042,95.288C20.193,95.288 19.566,95.437 19.161,95.735C18.757,96.032 18.458,96.559 18.264,97.314L16.499,97.074C16.659,96.318 16.923,95.708 17.291,95.243C17.659,94.779 18.19,94.421 18.886,94.17C19.581,93.92 20.386,93.794 21.302,93.794C22.212,93.794 22.95,93.901 23.519,94.115C24.087,94.329 24.505,94.598 24.772,94.922C25.04,95.247 25.227,95.656 25.334,96.151C25.394,96.458 25.424,97.013 25.424,97.816L25.424,100.222C25.424,101.9 25.462,102.962 25.539,103.406C25.616,103.851 25.768,104.277 25.996,104.685L24.11,104.685C23.923,104.311 23.803,103.873 23.749,103.371ZM23.599,99.34C22.944,99.607 21.961,99.835 20.651,100.022C19.908,100.129 19.384,100.249 19.076,100.383C18.769,100.517 18.531,100.712 18.364,100.97C18.197,101.227 18.113,101.513 18.113,101.827C18.113,102.308 18.296,102.709 18.66,103.03C19.024,103.351 19.557,103.512 20.259,103.512C20.955,103.512 21.573,103.36 22.115,103.055C22.656,102.751 23.054,102.335 23.308,101.807C23.502,101.399 23.599,100.797 23.599,100.002L23.599,99.34Z" style="fill-rule:nonzero;"/>
            <path d="M28.222,104.685L28.222,94.035L29.847,94.035L29.847,95.549C30.629,94.379 31.759,93.794 33.236,93.794C33.878,93.794 34.468,93.91 35.006,94.14C35.544,94.371 35.947,94.673 36.215,95.048C36.482,95.422 36.669,95.867 36.776,96.382C36.843,96.716 36.876,97.301 36.876,98.137L36.876,104.685L35.071,104.685L35.071,98.207C35.071,97.471 35.001,96.921 34.861,96.557C34.72,96.193 34.471,95.902 34.114,95.685C33.756,95.467 33.336,95.359 32.855,95.359C32.086,95.359 31.423,95.603 30.864,96.091C30.306,96.579 30.027,97.505 30.027,98.869L30.027,104.685L28.222,104.685Z" style="fill-rule:nonzero;"/>
            <path d="M46.554,104.685L46.554,103.341C45.879,104.398 44.886,104.926 43.575,104.926C42.726,104.926 41.946,104.692 41.234,104.224C40.522,103.756 39.97,103.102 39.579,102.263C39.188,101.424 38.992,100.46 38.992,99.37C38.992,98.307 39.17,97.343 39.524,96.477C39.878,95.611 40.41,94.947 41.118,94.486C41.827,94.025 42.619,93.794 43.495,93.794C44.137,93.794 44.709,93.93 45.21,94.2C45.711,94.471 46.119,94.824 46.433,95.258L46.433,89.983L48.229,89.983L48.229,104.685L46.554,104.685ZM40.848,99.37C40.848,100.734 41.135,101.753 41.71,102.429C42.285,103.104 42.964,103.442 43.746,103.442C44.535,103.442 45.205,103.119 45.757,102.474C46.308,101.829 46.584,100.844 46.584,99.52C46.584,98.063 46.303,96.993 45.741,96.311C45.18,95.629 44.488,95.288 43.666,95.288C42.863,95.288 42.193,95.616 41.655,96.271C41.117,96.926 40.848,97.959 40.848,99.37Z" style="fill-rule:nonzero;"/>
            <path d="M50.395,99.36C50.395,97.388 50.943,95.927 52.039,94.978C52.955,94.189 54.072,93.794 55.389,93.794C56.853,93.794 58.05,94.274 58.979,95.233C59.908,96.193 60.373,97.518 60.373,99.21C60.373,100.58 60.167,101.658 59.756,102.444C59.345,103.229 58.747,103.839 57.961,104.274C57.176,104.708 56.318,104.926 55.389,104.926C53.898,104.926 52.693,104.448 51.774,103.492C50.854,102.536 50.395,101.158 50.395,99.36ZM52.25,99.36C52.25,100.724 52.547,101.745 53.142,102.424C53.737,103.102 54.486,103.442 55.389,103.442C56.285,103.442 57.03,103.101 57.625,102.419C58.22,101.737 58.518,100.697 58.518,99.3C58.518,97.983 58.218,96.985 57.62,96.306C57.022,95.628 56.278,95.288 55.389,95.288C54.486,95.288 53.737,95.626 53.142,96.301C52.547,96.977 52.25,97.996 52.25,99.36Z" style="fill-rule:nonzero;"/>
            <path d="M62.489,104.685L62.489,94.035L64.103,94.035L64.103,95.529C64.438,95.008 64.882,94.588 65.437,94.271C65.992,93.953 66.624,93.794 67.333,93.794C68.121,93.794 68.768,93.958 69.273,94.286C69.778,94.613 70.134,95.071 70.341,95.66C71.183,94.416 72.28,93.794 73.63,93.794C74.687,93.794 75.499,94.087 76.067,94.672C76.636,95.257 76.92,96.158 76.92,97.374L76.92,104.685L75.125,104.685L75.125,97.976C75.125,97.254 75.066,96.734 74.949,96.417C74.832,96.099 74.62,95.843 74.312,95.649C74.005,95.456 73.644,95.359 73.229,95.359C72.48,95.359 71.859,95.608 71.364,96.106C70.869,96.604 70.622,97.401 70.622,98.498L70.622,104.685L68.817,104.685L68.817,97.765C68.817,96.963 68.67,96.361 68.376,95.96C68.081,95.559 67.6,95.359 66.931,95.359C66.423,95.359 65.954,95.492 65.522,95.76C65.091,96.027 64.779,96.418 64.585,96.933C64.391,97.448 64.294,98.19 64.294,99.159L64.294,104.685L62.489,104.685Z" style="fill-rule:nonzero;"/>
            <path d="M87.269,104.685L84.01,94.035L85.875,94.035L87.57,100.182L88.202,102.469C88.228,102.355 88.412,101.623 88.753,100.273L90.448,94.035L92.303,94.035L93.898,100.212L94.429,102.248L95.041,100.192L96.866,94.035L98.621,94.035L95.292,104.685L93.416,104.685L91.722,98.307L91.31,96.492L89.154,104.685L87.269,104.685Z" style="fill-rule:nonzero;"/>
            <path d="M107.085,103.371C106.416,103.94 105.773,104.341 105.155,104.575C104.536,104.809 103.873,104.926 103.164,104.926C101.994,104.926 101.095,104.64 100.466,104.068C99.838,103.497 99.524,102.766 99.524,101.877C99.524,101.356 99.642,100.879 99.88,100.448C100.117,100.017 100.428,99.671 100.812,99.41C101.197,99.149 101.63,98.952 102.111,98.818C102.465,98.725 103,98.635 103.715,98.548C105.173,98.374 106.246,98.167 106.935,97.926C106.941,97.679 106.945,97.521 106.945,97.455C106.945,96.719 106.774,96.201 106.433,95.9C105.972,95.492 105.287,95.288 104.377,95.288C103.528,95.288 102.902,95.437 102.497,95.735C102.093,96.032 101.793,96.559 101.6,97.314L99.835,97.074C99.995,96.318 100.259,95.708 100.627,95.243C100.994,94.779 101.526,94.421 102.221,94.17C102.917,93.92 103.722,93.794 104.638,93.794C105.547,93.794 106.286,93.901 106.854,94.115C107.423,94.329 107.841,94.598 108.108,94.922C108.375,95.247 108.563,95.656 108.67,96.151C108.73,96.458 108.76,97.013 108.76,97.816L108.76,100.222C108.76,101.9 108.798,102.962 108.875,103.406C108.952,103.851 109.104,104.277 109.331,104.685L107.446,104.685C107.259,104.311 107.139,103.873 107.085,103.371ZM106.935,99.34C106.279,99.607 105.297,99.835 103.986,100.022C103.244,100.129 102.719,100.249 102.412,100.383C102.104,100.517 101.867,100.712 101.7,100.97C101.533,101.227 101.449,101.513 101.449,101.827C101.449,102.308 101.631,102.709 101.996,103.03C102.36,103.351 102.893,103.512 103.595,103.512C104.29,103.512 104.909,103.36 105.45,103.055C105.992,102.751 106.39,102.335 106.644,101.807C106.838,101.399 106.935,100.797 106.935,100.002L106.935,99.34Z" style="fill-rule:nonzero;"/>
            <rect x="111.518" y="89.983" width="1.805" height="14.702" style="fill-rule:nonzero;"/>
            <path d="M116.131,104.685L116.131,89.983L117.936,89.983L117.936,98.367L122.208,94.035L124.544,94.035L120.473,97.986L124.956,104.685L122.729,104.685L119.209,99.24L117.936,100.463L117.936,104.685L116.131,104.685Z" style="fill-rule:nonzero;"/>
        </g>
        <g id="schwein" transform="matrix(0.444933,0,0,0.444933,14.4846,790.943)">
            <path d="M2.263,47.519C2.229,47.623 2.211,47.805 2.211,48.065C2.211,48.238 2.372,48.433 2.692,48.65C3.013,48.867 3.429,49.07 3.94,49.261C4.452,49.452 5.037,49.612 5.696,49.742C6.354,49.872 7.022,49.937 7.698,49.937C8.998,49.937 9.951,49.785 10.558,49.482C11.165,49.179 11.468,48.741 11.468,48.169C11.468,47.857 11.204,47.636 10.675,47.506C10.146,47.376 9.483,47.272 8.686,47.194C7.888,47.116 7.03,47.029 6.112,46.934C5.193,46.838 4.335,46.665 3.537,46.414C2.74,46.162 2.077,45.798 1.548,45.322C1.019,44.845 0.755,44.191 0.755,43.358C0.755,42.7 0.907,42.102 1.21,41.564C1.514,41.027 1.938,40.568 2.484,40.186C3.03,39.805 3.693,39.506 4.473,39.289C5.254,39.072 6.12,38.964 7.074,38.964C7.958,38.964 8.781,39.02 9.544,39.133C10.307,39.246 10.983,39.371 11.572,39.51C12.161,39.649 12.655,39.775 13.054,39.887C13.453,40 13.739,40.056 13.912,40.056C14.086,40.056 14.224,40.017 14.328,39.939C14.432,39.861 14.528,39.77 14.614,39.666L14.9,39.77L13.106,43.384L12.794,43.228L12.794,42.942C12.794,42.786 12.625,42.626 12.287,42.461C11.949,42.297 11.52,42.149 11,42.019C10.48,41.889 9.899,41.781 9.258,41.694C8.616,41.608 7.992,41.564 7.386,41.564C6.259,41.564 5.47,41.694 5.019,41.954C4.569,42.214 4.343,42.492 4.343,42.786C4.343,43.081 4.499,43.302 4.811,43.449C5.124,43.597 5.531,43.705 6.034,43.775C6.536,43.844 7.108,43.9 7.75,43.944C8.391,43.987 9.05,44.052 9.726,44.139C10.402,44.225 11.061,44.347 11.702,44.503C12.343,44.659 12.916,44.888 13.418,45.192C13.921,45.495 14.328,45.894 14.64,46.388C14.952,46.882 15.108,47.502 15.108,48.247C15.108,48.819 14.991,49.382 14.757,49.937C14.523,50.492 14.125,50.99 13.561,51.432C12.998,51.874 12.244,52.225 11.299,52.485C10.354,52.745 9.18,52.875 7.776,52.875C6.684,52.875 5.743,52.823 4.954,52.719C4.166,52.615 3.494,52.49 2.939,52.342C2.385,52.195 1.947,52.061 1.626,51.939C1.306,51.818 1.067,51.757 0.911,51.757C0.807,51.757 0.716,51.792 0.638,51.861C0.56,51.931 0.478,52.009 0.391,52.095L0.079,52.017L2.003,47.389L2.263,47.519Z" style="fill-rule:nonzero;"/>
            <path d="M28.786,45.751L28.421,45.569C28.439,45.499 28.46,45.43 28.487,45.361C28.513,45.291 28.526,45.213 28.526,45.127C28.526,45.023 28.417,44.901 28.2,44.763C27.984,44.624 27.706,44.498 27.368,44.386C27.03,44.273 26.649,44.173 26.224,44.087C25.8,44 25.371,43.957 24.937,43.957C24.452,43.957 23.958,44.017 23.455,44.139C22.952,44.26 22.502,44.446 22.103,44.698C21.704,44.949 21.375,45.27 21.115,45.66C20.855,46.05 20.725,46.522 20.725,47.077C20.725,47.614 20.855,48.082 21.115,48.481C21.375,48.88 21.704,49.205 22.103,49.456C22.502,49.707 22.952,49.894 23.455,50.015C23.958,50.136 24.452,50.197 24.937,50.197C25.457,50.197 25.947,50.132 26.406,50.002C26.866,49.872 27.273,49.716 27.628,49.534C27.984,49.352 28.261,49.17 28.46,48.988C28.66,48.806 28.76,48.672 28.76,48.585L28.76,48.351C28.76,48.247 28.751,48.169 28.734,48.117L29.02,47.935L31.49,51.497L31.178,51.679C31.022,51.489 30.883,51.393 30.762,51.393C30.692,51.393 30.506,51.471 30.203,51.627C29.899,51.783 29.496,51.961 28.994,52.16C28.491,52.36 27.897,52.529 27.212,52.667C26.528,52.806 25.769,52.875 24.937,52.875C23.984,52.875 23.052,52.78 22.142,52.589C21.232,52.399 20.421,52.074 19.711,51.614C19,51.155 18.428,50.552 17.995,49.807C17.561,49.062 17.345,48.152 17.345,47.077C17.345,46.019 17.561,45.118 17.995,44.373C18.428,43.627 19,43.02 19.711,42.552C20.421,42.084 21.232,41.742 22.142,41.525C23.052,41.309 23.984,41.2 24.937,41.2C25.509,41.2 26.064,41.248 26.601,41.343C27.139,41.439 27.633,41.538 28.083,41.642C28.534,41.746 28.924,41.846 29.254,41.941C29.583,42.037 29.817,42.084 29.956,42.084C30.042,42.084 30.12,42.058 30.19,42.006C30.259,41.954 30.311,41.902 30.346,41.85L30.658,41.954L28.786,45.751Z" style="fill-rule:nonzero;"/>
            <path d="M38.042,52.017C38.042,52.208 38.112,52.329 38.25,52.381C38.389,52.433 38.562,52.468 38.77,52.485L38.77,52.797L33.83,52.797L33.83,52.485C34.038,52.468 34.211,52.433 34.35,52.381C34.489,52.329 34.558,52.208 34.558,52.017L34.558,42.136C34.558,41.946 34.489,41.824 34.35,41.772C34.211,41.72 34.038,41.686 33.83,41.668L33.83,41.356L38.77,41.356L38.77,41.668C38.562,41.686 38.389,41.72 38.25,41.772C38.112,41.824 38.042,41.946 38.042,42.136L38.042,45.413L43.789,45.413L43.789,42.136C43.789,41.946 43.719,41.824 43.581,41.772C43.442,41.72 43.269,41.686 43.061,41.668L43.061,41.356L48.001,41.356L48.001,41.668C47.793,41.686 47.62,41.72 47.481,41.772C47.342,41.824 47.273,41.946 47.273,42.136L47.273,52.017C47.273,52.208 47.342,52.329 47.481,52.381C47.62,52.433 47.793,52.468 48.001,52.485L48.001,52.797L43.061,52.797L43.061,52.485C43.269,52.468 43.442,52.433 43.581,52.381C43.719,52.329 43.789,52.208 43.789,52.017L43.789,48.065L38.042,48.065L38.042,52.017Z" style="fill-rule:nonzero;"/>
            <path d="M54.866,41.668C54.71,41.668 54.554,41.699 54.398,41.759C54.242,41.82 54.164,41.946 54.164,42.136C54.164,42.206 54.207,42.396 54.294,42.708C54.38,43.02 54.493,43.389 54.632,43.814C54.77,44.238 54.918,44.698 55.074,45.192C55.23,45.686 55.381,46.162 55.529,46.622C55.676,47.081 55.806,47.497 55.919,47.87C56.032,48.243 56.105,48.516 56.14,48.689L56.192,48.689C56.227,48.498 56.309,48.221 56.439,47.857C56.569,47.493 56.721,47.085 56.894,46.635C57.067,46.184 57.249,45.712 57.44,45.218C57.631,44.724 57.808,44.269 57.973,43.853C58.138,43.436 58.272,43.072 58.376,42.76C58.48,42.448 58.532,42.24 58.532,42.136C58.532,41.946 58.454,41.82 58.298,41.759C58.142,41.699 57.986,41.668 57.83,41.668L57.83,41.356L63.108,41.356L63.108,41.668C62.935,41.668 62.77,41.699 62.614,41.759C62.458,41.82 62.38,41.946 62.38,42.136C62.38,42.188 62.437,42.37 62.549,42.682C62.662,42.994 62.801,43.371 62.965,43.814C63.13,44.256 63.308,44.737 63.498,45.257C63.689,45.777 63.876,46.271 64.058,46.739C64.24,47.207 64.396,47.619 64.526,47.974C64.656,48.329 64.738,48.568 64.773,48.689L64.825,48.689C64.859,48.498 64.933,48.217 65.046,47.844C65.158,47.471 65.288,47.059 65.436,46.609C65.583,46.158 65.735,45.694 65.891,45.218C66.047,44.741 66.194,44.29 66.333,43.866C66.471,43.441 66.584,43.072 66.671,42.76C66.757,42.448 66.801,42.24 66.801,42.136C66.801,41.946 66.723,41.82 66.567,41.759C66.411,41.699 66.246,41.668 66.073,41.668L66.073,41.356L70.389,41.356L70.389,41.668C70.146,41.703 69.99,41.781 69.921,41.902C69.852,42.024 69.782,42.18 69.713,42.37C69.661,42.544 69.548,42.899 69.375,43.436C69.202,43.974 68.994,44.598 68.751,45.309C68.508,46.019 68.261,46.765 68.01,47.545C67.759,48.325 67.52,49.049 67.295,49.716C67.069,50.383 66.887,50.942 66.749,51.393C66.61,51.844 66.541,52.095 66.541,52.147C66.541,52.321 66.783,52.433 67.269,52.485L67.269,52.797L61.782,52.797L61.782,52.485C62.285,52.433 62.536,52.321 62.536,52.147C62.536,52.061 62.484,51.861 62.38,51.549C62.276,51.237 62.146,50.864 61.99,50.431C61.834,49.998 61.665,49.53 61.483,49.027C61.301,48.524 61.124,48.048 60.95,47.597C60.777,47.146 60.63,46.747 60.508,46.401C60.387,46.054 60.309,45.811 60.274,45.673L60.222,45.673C60.188,45.811 60.11,46.054 59.988,46.401C59.867,46.747 59.72,47.146 59.546,47.597C59.373,48.048 59.195,48.524 59.013,49.027C58.831,49.53 58.662,49.998 58.506,50.431C58.35,50.864 58.22,51.237 58.116,51.549C58.012,51.861 57.96,52.061 57.96,52.147C57.96,52.251 58.025,52.325 58.155,52.368C58.285,52.412 58.445,52.451 58.636,52.485L58.636,52.797L53.254,52.797L53.254,52.485C53.722,52.433 53.956,52.321 53.956,52.147C53.956,52.078 53.878,51.792 53.722,51.289C53.566,50.786 53.371,50.175 53.137,49.456C52.903,48.737 52.647,47.957 52.37,47.116C52.092,46.275 51.832,45.491 51.589,44.763C51.347,44.035 51.143,43.415 50.978,42.903C50.814,42.392 50.723,42.093 50.705,42.006C50.671,41.868 50.614,41.777 50.536,41.733C50.458,41.69 50.376,41.668 50.289,41.668L50.289,41.356L54.866,41.356L54.866,41.668Z" style="fill-rule:nonzero;"/>
            <path d="M84.43,50.509C84.777,50.509 85.002,50.292 85.106,49.859L85.418,49.859L85.418,53.265L85.158,53.265C85.072,53.023 84.981,52.884 84.885,52.849C84.79,52.815 84.638,52.797 84.43,52.797L72.833,52.797L72.833,52.485C73.024,52.468 73.193,52.433 73.34,52.381C73.488,52.329 73.561,52.208 73.561,52.017L73.561,42.136C73.561,41.946 73.488,41.824 73.34,41.772C73.193,41.72 73.024,41.686 72.833,41.668L72.833,41.356L84.638,41.356C84.742,41.356 84.846,41.322 84.95,41.252C85.054,41.183 85.106,41.027 85.106,40.784L85.418,40.784L85.418,44.269L85.106,44.269C85.106,44.009 85.054,43.84 84.95,43.762C84.846,43.684 84.742,43.645 84.638,43.645L77.046,43.645L77.046,45.751L81.934,45.751C82.038,45.751 82.142,45.712 82.246,45.634C82.35,45.556 82.402,45.395 82.402,45.153L82.714,45.153L82.714,48.533L82.402,48.533C82.402,48.29 82.35,48.13 82.246,48.052C82.142,47.974 82.038,47.935 81.934,47.935L77.046,47.935L77.046,50.509L84.43,50.509Z" style="fill-rule:nonzero;"/>
            <path d="M94.051,41.668C93.791,41.686 93.587,41.72 93.44,41.772C93.293,41.824 93.219,41.946 93.219,42.136L93.219,52.017C93.219,52.208 93.293,52.329 93.44,52.381C93.587,52.433 93.791,52.468 94.051,52.485L94.051,52.797L88.903,52.797L88.903,52.485C89.163,52.468 89.366,52.433 89.514,52.381C89.661,52.329 89.735,52.208 89.735,52.017L89.735,42.136C89.735,41.946 89.661,41.824 89.514,41.772C89.366,41.72 89.163,41.686 88.903,41.668L88.903,41.356L94.051,41.356L94.051,41.668Z" style="fill-rule:nonzero;"/>
            <path d="M110.849,52.017C110.849,52.208 110.918,52.329 111.057,52.381C111.195,52.433 111.369,52.468 111.577,52.485L111.577,52.797L106.766,52.797L106.766,52.485C106.905,52.485 107.065,52.468 107.247,52.433C107.429,52.399 107.52,52.303 107.52,52.147C107.52,51.991 107.33,51.701 106.948,51.276C106.567,50.851 106.077,50.327 105.479,49.703C104.881,49.079 104.209,48.381 103.464,47.61C102.719,46.838 101.982,46.019 101.254,45.153L101.202,45.205L101.202,52.017C101.202,52.208 101.267,52.329 101.397,52.381C101.527,52.433 101.687,52.468 101.878,52.485L101.878,52.797L97.431,52.797L97.431,52.485C97.605,52.468 97.756,52.433 97.886,52.381C98.016,52.329 98.081,52.208 98.081,52.017L98.081,42.136C98.081,41.946 98.012,41.824 97.873,41.772C97.735,41.72 97.57,41.686 97.379,41.668L97.379,41.356L103.568,41.356L103.568,41.668C103.447,41.686 103.325,41.72 103.204,41.772C103.083,41.824 103.022,41.946 103.022,42.136C103.022,42.171 103.165,42.349 103.451,42.669C103.737,42.99 104.105,43.393 104.556,43.879C105.007,44.364 105.509,44.901 106.064,45.491C106.619,46.08 107.174,46.669 107.728,47.259L107.728,42.136C107.728,41.946 107.659,41.824 107.52,41.772C107.382,41.72 107.208,41.686 107,41.668L107,41.356L111.577,41.356L111.577,41.668C111.369,41.686 111.195,41.72 111.057,41.772C110.918,41.824 110.849,41.946 110.849,42.136L110.849,52.017Z" style="fill-rule:nonzero;"/>
            <path d="M125.488,47.805C125.453,47.632 125.379,47.489 125.267,47.376C125.154,47.263 124.968,47.207 124.708,47.207L119.871,47.207L119.871,49.625L128.218,49.625C128.357,49.625 128.461,49.577 128.53,49.482C128.599,49.387 128.651,49.174 128.686,48.845L128.998,48.845L128.998,53.291L128.686,53.291C128.651,53.066 128.599,52.927 128.53,52.875C128.461,52.823 128.357,52.797 128.218,52.797L115.243,52.797L115.243,52.485C115.572,52.451 115.776,52.394 115.854,52.316C115.932,52.238 115.971,52.139 115.971,52.017L115.971,39.9C115.971,39.779 115.932,39.679 115.854,39.601C115.776,39.523 115.572,39.467 115.243,39.432L115.243,39.12L128.218,39.12C128.357,39.12 128.461,39.072 128.53,38.977C128.599,38.882 128.651,38.687 128.686,38.392L128.998,38.392L128.998,42.916L128.686,42.916C128.651,42.622 128.599,42.427 128.53,42.331C128.461,42.236 128.357,42.188 128.218,42.188L119.871,42.188L119.871,44.347L124.708,44.347C124.968,44.347 125.154,44.29 125.267,44.178C125.379,44.065 125.453,43.922 125.488,43.749L125.8,43.749L125.8,47.805L125.488,47.805Z" style="fill-rule:nonzero;"/>
            <path d="M18.151,74.041C18.116,74.145 18.099,74.327 18.099,74.587C18.099,74.761 18.259,74.956 18.58,75.172C18.9,75.389 19.316,75.593 19.828,75.783C20.339,75.974 20.924,76.134 21.583,76.264C22.242,76.394 22.909,76.459 23.585,76.459C24.885,76.459 25.839,76.308 26.445,76.004C27.052,75.701 27.355,75.263 27.355,74.691C27.355,74.379 27.091,74.158 26.562,74.028C26.034,73.898 25.371,73.794 24.573,73.716C23.776,73.638 22.918,73.551 21.999,73.456C21.08,73.361 20.222,73.187 19.425,72.936C18.627,72.685 17.964,72.321 17.436,71.844C16.907,71.367 16.642,70.713 16.642,69.881C16.642,69.222 16.794,68.624 17.098,68.087C17.401,67.549 17.826,67.09 18.372,66.708C18.918,66.327 19.581,66.028 20.361,65.811C21.141,65.595 22.008,65.486 22.961,65.486C23.845,65.486 24.669,65.543 25.431,65.655C26.194,65.768 26.87,65.894 27.459,66.032C28.049,66.171 28.543,66.297 28.942,66.409C29.34,66.522 29.626,66.578 29.8,66.578C29.973,66.578 30.112,66.539 30.216,66.461C30.32,66.383 30.415,66.292 30.502,66.188L30.788,66.292L28.994,69.907L28.682,69.751L28.682,69.465C28.682,69.309 28.513,69.148 28.174,68.984C27.836,68.819 27.407,68.672 26.887,68.542C26.367,68.412 25.787,68.303 25.145,68.217C24.504,68.13 23.88,68.087 23.273,68.087C22.146,68.087 21.358,68.217 20.907,68.477C20.456,68.737 20.231,69.014 20.231,69.309C20.231,69.603 20.387,69.824 20.699,69.972C21.011,70.119 21.418,70.227 21.921,70.297C22.424,70.366 22.996,70.422 23.637,70.466C24.278,70.509 24.937,70.574 25.613,70.661C26.289,70.748 26.948,70.869 27.589,71.025C28.231,71.181 28.803,71.411 29.306,71.714C29.808,72.017 30.216,72.416 30.528,72.91C30.84,73.404 30.996,74.024 30.996,74.769C30.996,75.341 30.879,75.905 30.645,76.459C30.411,77.014 30.012,77.512 29.449,77.954C28.885,78.396 28.131,78.748 27.186,79.008C26.242,79.268 25.067,79.398 23.663,79.398C22.571,79.398 21.631,79.346 20.842,79.242C20.053,79.138 19.381,79.012 18.827,78.865C18.272,78.717 17.834,78.583 17.514,78.461C17.193,78.34 16.955,78.279 16.799,78.279C16.694,78.279 16.603,78.314 16.525,78.383C16.447,78.453 16.365,78.531 16.278,78.618L15.966,78.54L17.891,73.911L18.151,74.041Z" style="fill-rule:nonzero;"/>
            <path d="M42.047,78.54C42.047,78.73 42.107,78.852 42.229,78.904C42.35,78.956 42.471,78.99 42.593,79.008L42.593,79.32L38.016,79.32L38.016,79.008C38.138,78.99 38.259,78.956 38.38,78.904C38.502,78.852 38.562,78.73 38.562,78.54L38.562,75.185L33.596,68.451C33.527,68.347 33.41,68.277 33.245,68.243C33.08,68.208 32.946,68.191 32.842,68.191L32.842,67.879L38.432,67.879L38.432,68.191C38.328,68.191 38.203,68.204 38.055,68.23C37.908,68.256 37.834,68.338 37.834,68.477C37.834,68.563 37.917,68.724 38.081,68.958C38.246,69.192 38.45,69.473 38.692,69.803C38.935,70.132 39.204,70.483 39.498,70.856C39.793,71.229 40.07,71.588 40.331,71.935C40.4,71.796 40.556,71.554 40.799,71.207C41.041,70.86 41.297,70.496 41.566,70.115C41.834,69.733 42.073,69.387 42.281,69.075C42.489,68.763 42.593,68.563 42.593,68.477C42.593,68.338 42.523,68.256 42.385,68.23C42.246,68.204 42.133,68.191 42.047,68.191L42.047,67.879L47.195,67.879L47.195,68.191C47.108,68.191 46.987,68.208 46.831,68.243C46.675,68.277 46.562,68.347 46.493,68.451L42.047,75.081L42.047,78.54Z" style="fill-rule:nonzero;"/>
            <path d="M50.523,75.497C50.523,75.532 50.519,75.571 50.51,75.614C50.502,75.658 50.497,75.714 50.497,75.783C50.497,75.957 50.662,76.121 50.991,76.277C51.321,76.433 51.741,76.576 52.253,76.706C52.764,76.836 53.319,76.94 53.917,77.018C54.515,77.096 55.074,77.135 55.594,77.135C55.75,77.135 55.962,77.127 56.231,77.109C56.5,77.092 56.764,77.044 57.024,76.966C57.284,76.888 57.505,76.776 57.687,76.628C57.869,76.481 57.96,76.277 57.96,76.017C57.96,75.671 57.752,75.424 57.336,75.276C56.92,75.129 56.396,75.016 55.763,74.938C55.13,74.86 54.445,74.778 53.709,74.691C52.972,74.604 52.287,74.453 51.654,74.236C51.022,74.019 50.497,73.707 50.081,73.3C49.665,72.893 49.457,72.325 49.457,71.597C49.457,71.198 49.561,70.769 49.769,70.31C49.977,69.85 50.307,69.43 50.757,69.049C51.208,68.667 51.802,68.351 52.539,68.1C53.275,67.848 54.172,67.723 55.23,67.723C55.854,67.723 56.448,67.757 57.011,67.827C57.574,67.896 58.086,67.974 58.545,68.061C59.004,68.147 59.394,68.225 59.715,68.295C60.036,68.364 60.266,68.399 60.404,68.399C60.543,68.399 60.656,68.36 60.742,68.282C60.829,68.204 60.907,68.139 60.976,68.087L61.262,68.191L59.702,71.467L59.364,71.311C59.364,71.276 59.368,71.233 59.377,71.181C59.386,71.129 59.39,71.077 59.39,71.025C59.39,70.956 59.286,70.869 59.078,70.765C58.87,70.661 58.597,70.557 58.259,70.453C57.921,70.349 57.54,70.258 57.115,70.18C56.69,70.102 56.253,70.063 55.802,70.063C55.646,70.063 55.403,70.067 55.074,70.076C54.744,70.084 54.415,70.128 54.086,70.206C53.756,70.284 53.466,70.396 53.215,70.544C52.963,70.691 52.838,70.912 52.838,71.207C52.838,71.519 53.046,71.74 53.462,71.87C53.878,72 54.402,72.104 55.035,72.182C55.667,72.26 56.352,72.347 57.089,72.442C57.826,72.537 58.51,72.698 59.143,72.923C59.776,73.148 60.3,73.473 60.716,73.898C61.132,74.323 61.34,74.917 61.34,75.679C61.34,76.182 61.228,76.663 61.002,77.122C60.777,77.582 60.43,77.985 59.962,78.331C59.494,78.678 58.9,78.943 58.181,79.125C57.462,79.307 56.608,79.398 55.62,79.398C54.996,79.398 54.363,79.359 53.722,79.281C53.08,79.203 52.491,79.107 51.954,78.995C51.416,78.882 50.97,78.778 50.614,78.683C50.259,78.587 50.055,78.54 50.003,78.54C49.882,78.54 49.774,78.579 49.678,78.657C49.583,78.735 49.492,78.817 49.405,78.904L49.119,78.826L50.185,75.341L50.523,75.497Z" style="fill-rule:nonzero;"/>
            <path d="M75.278,67.879C75.382,67.879 75.486,67.844 75.59,67.775C75.694,67.705 75.746,67.549 75.746,67.307L76.058,67.307L76.058,71.103L75.746,71.103C75.746,70.86 75.694,70.704 75.59,70.635C75.486,70.565 75.382,70.531 75.278,70.531L71.559,70.531L71.559,78.54C71.559,78.73 71.624,78.852 71.754,78.904C71.884,78.956 72.019,78.99 72.157,79.008L72.157,79.32L67.477,79.32L67.477,79.008C67.616,78.99 67.75,78.956 67.88,78.904C68.01,78.852 68.075,78.73 68.075,78.54L68.075,70.531L64.357,70.531C64.253,70.531 64.149,70.565 64.045,70.635C63.941,70.704 63.889,70.86 63.889,71.103L63.577,71.103L63.577,67.307L63.889,67.307C63.889,67.549 63.941,67.705 64.045,67.775C64.149,67.844 64.253,67.879 64.357,67.879L75.278,67.879Z" style="fill-rule:nonzero;"/>
            <path d="M90.229,77.031C90.575,77.031 90.801,76.815 90.905,76.381L91.217,76.381L91.217,79.788L90.957,79.788C90.87,79.545 90.779,79.406 90.684,79.372C90.588,79.337 90.437,79.32 90.229,79.32L78.632,79.32L78.632,79.008C78.822,78.99 78.991,78.956 79.139,78.904C79.286,78.852 79.36,78.73 79.36,78.54L79.36,68.659C79.36,68.468 79.286,68.347 79.139,68.295C78.991,68.243 78.822,68.208 78.632,68.191L78.632,67.879L90.437,67.879C90.541,67.879 90.645,67.844 90.749,67.775C90.853,67.705 90.905,67.549 90.905,67.307L91.217,67.307L91.217,70.791L90.905,70.791C90.905,70.531 90.853,70.362 90.749,70.284C90.645,70.206 90.541,70.167 90.437,70.167L82.844,70.167L82.844,72.273L87.733,72.273C87.837,72.273 87.941,72.234 88.045,72.156C88.149,72.078 88.201,71.918 88.201,71.675L88.513,71.675L88.513,75.055L88.201,75.055C88.201,74.813 88.149,74.652 88.045,74.574C87.941,74.496 87.837,74.457 87.733,74.457L82.844,74.457L82.844,77.031L90.229,77.031Z" style="fill-rule:nonzero;"/>
            <path d="M107.364,79.008C107.694,78.973 107.897,78.917 107.975,78.839C108.053,78.761 108.092,78.661 108.092,78.54L108.092,68.971L108.04,68.919L103.412,79.008L98.836,68.815L98.784,68.815L98.784,78.54C98.784,78.661 98.823,78.761 98.901,78.839C98.979,78.917 99.182,78.973 99.512,79.008L99.512,79.32L94.935,79.32L94.935,79.008C95.265,78.973 95.468,78.917 95.546,78.839C95.624,78.761 95.663,78.661 95.663,78.54L95.663,66.422C95.663,66.301 95.624,66.201 95.546,66.123C95.468,66.045 95.265,65.989 94.935,65.954L94.935,65.642L101.722,65.642L101.722,65.954C101.306,65.972 101.098,66.128 101.098,66.422C101.098,66.44 101.15,66.578 101.254,66.838C101.358,67.099 101.492,67.419 101.657,67.801C101.821,68.182 102.003,68.594 102.203,69.036C102.402,69.478 102.593,69.902 102.775,70.31C102.957,70.717 103.117,71.077 103.256,71.389C103.395,71.701 103.49,71.909 103.542,72.013C103.837,71.354 104.14,70.713 104.452,70.089C104.764,69.465 105.046,68.893 105.297,68.373C105.548,67.853 105.752,67.419 105.908,67.073C106.064,66.726 106.142,66.509 106.142,66.422C106.142,66.128 105.934,65.972 105.518,65.954L105.518,65.642L112.565,65.642L112.565,65.954C112.235,65.989 112.032,66.045 111.954,66.123C111.876,66.201 111.837,66.301 111.837,66.422L111.837,78.54C111.837,78.661 111.876,78.761 111.954,78.839C112.032,78.917 112.235,78.973 112.565,79.008L112.565,79.32L107.364,79.32L107.364,79.008Z" style="fill-rule:nonzero;"/>
        </g>
        <g transform="matrix(1,0,0,1,1.41264,459.229)">
            <path d="M29.532,291.143C29.532,289.717 29.915,288.601 30.681,287.794C31.447,286.988 32.435,286.584 33.646,286.584C34.439,286.584 35.154,286.774 35.79,287.153C36.427,287.532 36.912,288.06 37.246,288.738C37.58,289.415 37.747,290.184 37.747,291.043C37.747,291.914 37.572,292.694 37.22,293.381C36.868,294.069 36.37,294.589 35.726,294.943C35.081,295.296 34.386,295.473 33.64,295.473C32.831,295.473 32.109,295.278 31.472,294.887C30.835,294.496 30.353,293.963 30.025,293.288C29.697,292.612 29.532,291.897 29.532,291.143ZM30.704,291.161C30.704,292.196 30.983,293.011 31.539,293.607C32.096,294.203 32.794,294.5 33.634,294.5C34.49,294.5 35.194,294.2 35.746,293.598C36.299,292.996 36.575,292.143 36.575,291.038C36.575,290.338 36.457,289.728 36.221,289.206C35.985,288.685 35.639,288.281 35.184,287.994C34.729,287.706 34.218,287.563 33.652,287.563C32.847,287.563 32.155,287.839 31.574,288.392C30.994,288.945 30.704,289.868 30.704,291.161Z" style="fill-rule:nonzero;"/>
            <path d="M44.849,286.737L45.986,286.737L45.986,291.7C45.986,292.563 45.888,293.248 45.693,293.756C45.497,294.264 45.145,294.677 44.635,294.996C44.125,295.314 43.456,295.473 42.628,295.473C41.823,295.473 41.165,295.334 40.654,295.057C40.142,294.78 39.777,294.378 39.558,293.853C39.339,293.328 39.23,292.61 39.23,291.7L39.23,286.737L40.366,286.737L40.366,291.694C40.366,292.44 40.436,292.99 40.574,293.343C40.713,293.697 40.951,293.969 41.289,294.161C41.627,294.352 42.04,294.448 42.529,294.448C43.365,294.448 43.96,294.258 44.316,293.879C44.671,293.5 44.849,292.772 44.849,291.694L44.849,286.737Z" style="fill-rule:nonzero;"/>
            <path d="M50.064,295.327L50.064,287.75L47.234,287.75L47.234,286.737L54.042,286.737L54.042,287.75L51.2,287.75L51.2,295.327L50.064,295.327Z" style="fill-rule:nonzero;"/>
        </g>
        <g transform="matrix(1,0,0,1,-2.53256,469.764)">
            <path d="M26.649,71.479L27.721,71.385C27.772,71.814 27.89,72.167 28.075,72.442C28.261,72.718 28.549,72.94 28.94,73.11C29.33,73.28 29.77,73.365 30.258,73.365C30.692,73.365 31.074,73.301 31.406,73.172C31.738,73.043 31.985,72.866 32.148,72.642C32.31,72.417 32.391,72.172 32.391,71.906C32.391,71.637 32.313,71.401 32.156,71.2C32,70.999 31.742,70.83 31.383,70.693C31.152,70.604 30.643,70.464 29.854,70.274C29.065,70.085 28.512,69.906 28.195,69.738C27.785,69.523 27.48,69.257 27.278,68.939C27.077,68.62 26.977,68.264 26.977,67.869C26.977,67.436 27.1,67.03 27.346,66.653C27.592,66.276 27.951,65.99 28.424,65.795C28.897,65.6 29.422,65.502 30,65.502C30.637,65.502 31.198,65.605 31.685,65.81C32.171,66.015 32.545,66.316 32.807,66.715C33.069,67.113 33.209,67.564 33.229,68.068L32.139,68.15C32.08,67.607 31.882,67.197 31.544,66.92C31.206,66.643 30.707,66.504 30.047,66.504C29.36,66.504 28.859,66.63 28.544,66.882C28.23,67.134 28.072,67.438 28.072,67.793C28.072,68.102 28.184,68.355 28.406,68.555C28.625,68.754 29.196,68.958 30.12,69.167C31.044,69.376 31.678,69.559 32.022,69.715C32.522,69.945 32.891,70.237 33.129,70.591C33.367,70.944 33.486,71.352 33.486,71.813C33.486,72.27 33.356,72.7 33.094,73.105C32.832,73.509 32.456,73.823 31.966,74.048C31.476,74.272 30.924,74.385 30.311,74.385C29.533,74.385 28.882,74.272 28.357,74.045C27.831,73.818 27.419,73.478 27.12,73.022C26.821,72.567 26.664,72.053 26.649,71.479Z" style="fill-rule:nonzero;"/>
            <path d="M41.168,71.227L42.305,71.514C42.067,72.447 41.638,73.159 41.019,73.649C40.4,74.14 39.643,74.385 38.748,74.385C37.822,74.385 37.069,74.196 36.489,73.819C35.909,73.442 35.468,72.897 35.165,72.182C34.862,71.467 34.711,70.699 34.711,69.879C34.711,68.984 34.882,68.204 35.224,67.538C35.566,66.872 36.052,66.366 36.683,66.021C37.314,65.675 38.008,65.502 38.766,65.502C39.625,65.502 40.348,65.721 40.934,66.158C41.52,66.596 41.928,67.211 42.158,68.004L41.039,68.268C40.84,67.643 40.551,67.188 40.172,66.902C39.793,66.617 39.317,66.475 38.742,66.475C38.082,66.475 37.53,66.633 37.087,66.949C36.644,67.266 36.332,67.69 36.152,68.224C35.973,68.757 35.883,69.307 35.883,69.873C35.883,70.604 35.989,71.241 36.202,71.786C36.415,72.331 36.746,72.738 37.195,73.008C37.645,73.277 38.131,73.412 38.654,73.412C39.291,73.412 39.83,73.229 40.272,72.861C40.713,72.494 41.012,71.949 41.168,71.227Z" style="fill-rule:nonzero;"/>
            <path d="M42.762,74.238L46.061,65.648L47.285,65.648L50.801,74.238L49.506,74.238L48.504,71.637L44.912,71.637L43.969,74.238L42.762,74.238ZM45.24,70.711L48.152,70.711L47.256,68.332C46.983,67.609 46.779,67.016 46.647,66.551C46.537,67.102 46.383,67.648 46.184,68.191L45.24,70.711Z" style="fill-rule:nonzero;"/>
            <path d="M51.662,74.238L51.662,65.648L52.799,65.648L52.799,73.225L57.029,73.225L57.029,74.238L51.662,74.238Z" style="fill-rule:nonzero;"/>
            <path d="M58.406,74.238L58.406,65.648L64.617,65.648L64.617,66.662L59.543,66.662L59.543,69.293L64.295,69.293L64.295,70.301L59.543,70.301L59.543,73.225L64.817,73.225L64.817,74.238L58.406,74.238Z" style="fill-rule:nonzero;"/>
        </g>
        <g id="Cut-Neagtive" serif:id="Cut Neagtive" transform="matrix(1,0,0,1,-17.6439,567.053)">
            <path d="M33.164,71.227L34.301,71.514C34.063,72.447 33.634,73.159 33.015,73.649C32.396,74.14 31.639,74.385 30.744,74.385C29.819,74.385 29.066,74.196 28.485,73.819C27.905,73.442 27.464,72.897 27.161,72.182C26.859,71.467 26.707,70.699 26.707,69.879C26.707,68.984 26.878,68.204 27.22,67.538C27.562,66.872 28.048,66.366 28.679,66.021C29.31,65.675 30.004,65.502 30.762,65.502C31.621,65.502 32.344,65.721 32.93,66.158C33.516,66.596 33.924,67.211 34.154,68.004L33.035,68.268C32.836,67.643 32.547,67.188 32.168,66.902C31.789,66.617 31.313,66.475 30.738,66.475C30.078,66.475 29.527,66.633 29.083,66.949C28.64,67.266 28.328,67.69 28.149,68.224C27.969,68.757 27.879,69.307 27.879,69.873C27.879,70.604 27.985,71.241 28.198,71.786C28.411,72.331 28.742,72.738 29.192,73.008C29.641,73.277 30.127,73.412 30.651,73.412C31.287,73.412 31.826,73.229 32.268,72.861C32.709,72.494 33.008,71.949 33.164,71.227Z" style="fill-rule:nonzero;"/>
            <path d="M39.645,74.238L39.645,73.324C39.16,74.027 38.502,74.379 37.67,74.379C37.303,74.379 36.96,74.309 36.642,74.168C36.323,74.027 36.087,73.851 35.933,73.638C35.778,73.425 35.67,73.164 35.608,72.855C35.565,72.648 35.543,72.32 35.543,71.871L35.543,68.016L36.598,68.016L36.598,71.467C36.598,72.018 36.619,72.389 36.662,72.58C36.729,72.857 36.869,73.075 37.084,73.233C37.299,73.392 37.565,73.471 37.881,73.471C38.197,73.471 38.494,73.39 38.772,73.228C39.049,73.065 39.245,72.845 39.36,72.565C39.476,72.286 39.533,71.881 39.533,71.35L39.533,68.016L40.588,68.016L40.588,74.238L39.645,74.238Z" style="fill-rule:nonzero;"/>
            <path d="M44.543,73.295L44.695,74.227C44.399,74.289 44.133,74.32 43.899,74.32C43.516,74.32 43.219,74.26 43.008,74.139C42.797,74.018 42.649,73.858 42.563,73.661C42.477,73.464 42.434,73.049 42.434,72.416L42.434,68.836L41.66,68.836L41.66,68.016L42.434,68.016L42.434,66.475L43.483,65.842L43.483,68.016L44.543,68.016L44.543,68.836L43.483,68.836L43.483,72.475C43.483,72.775 43.501,72.969 43.538,73.055C43.575,73.141 43.636,73.209 43.72,73.26C43.804,73.311 43.924,73.336 44.08,73.336C44.197,73.336 44.352,73.322 44.543,73.295Z" style="fill-rule:nonzero;"/>
            <path d="M49.031,74.238L49.031,65.648L50.197,65.648L54.709,72.393L54.709,65.648L55.799,65.648L55.799,74.238L54.633,74.238L50.121,67.488L50.121,74.238L49.031,74.238Z" style="fill-rule:nonzero;"/>
            <path d="M61.834,72.234L62.924,72.369C62.752,73.006 62.434,73.5 61.969,73.852C61.504,74.203 60.91,74.379 60.188,74.379C59.277,74.379 58.556,74.099 58.023,73.538C57.489,72.978 57.223,72.191 57.223,71.18C57.223,70.133 57.492,69.32 58.031,68.742C58.57,68.164 59.27,67.875 60.129,67.875C60.961,67.875 61.641,68.158 62.168,68.725C62.695,69.291 62.959,70.088 62.959,71.115C62.959,71.178 62.957,71.272 62.953,71.397L58.313,71.397C58.352,72.08 58.545,72.604 58.893,72.967C59.24,73.33 59.674,73.512 60.194,73.512C60.58,73.512 60.91,73.41 61.184,73.207C61.457,73.004 61.674,72.68 61.834,72.234ZM58.371,70.529L61.846,70.529C61.799,70.006 61.666,69.613 61.447,69.352C61.111,68.945 60.676,68.742 60.141,68.742C59.656,68.742 59.249,68.904 58.919,69.229C58.589,69.553 58.406,69.986 58.371,70.529Z" style="fill-rule:nonzero;"/>
            <path d="M64.055,74.754L65.08,74.906C65.123,75.223 65.242,75.453 65.438,75.598C65.699,75.793 66.057,75.891 66.51,75.891C66.998,75.891 67.375,75.793 67.641,75.598C67.906,75.402 68.086,75.129 68.18,74.777C68.235,74.563 68.26,74.111 68.256,73.424C67.795,73.967 67.221,74.238 66.533,74.238C65.678,74.238 65.016,73.93 64.547,73.313C64.078,72.695 63.844,71.955 63.844,71.092C63.844,70.498 63.951,69.95 64.166,69.448C64.381,68.946 64.693,68.559 65.101,68.285C65.509,68.012 65.988,67.875 66.539,67.875C67.274,67.875 67.879,68.172 68.356,68.766L68.356,68.016L69.328,68.016L69.328,73.395C69.328,74.363 69.23,75.05 69.032,75.454C68.835,75.858 68.523,76.178 68.095,76.412C67.667,76.647 67.141,76.764 66.516,76.764C65.774,76.764 65.174,76.597 64.717,76.263C64.26,75.929 64.039,75.426 64.055,74.754ZM64.928,71.016C64.928,71.832 65.09,72.428 65.414,72.803C65.738,73.178 66.145,73.365 66.633,73.365C67.117,73.365 67.524,73.179 67.852,72.806C68.18,72.433 68.344,71.848 68.344,71.051C68.344,70.289 68.175,69.715 67.837,69.328C67.499,68.941 67.092,68.748 66.615,68.748C66.147,68.748 65.748,68.939 65.42,69.319C65.092,69.7 64.928,70.266 64.928,71.016Z" style="fill-rule:nonzero;"/>
            <path d="M74.983,73.471C74.592,73.803 74.216,74.037 73.855,74.174C73.493,74.311 73.106,74.379 72.692,74.379C72.008,74.379 71.483,74.212 71.115,73.878C70.748,73.544 70.565,73.117 70.565,72.598C70.565,72.293 70.634,72.015 70.773,71.763C70.911,71.511 71.093,71.309 71.318,71.156C71.542,71.004 71.795,70.889 72.076,70.811C72.283,70.756 72.596,70.703 73.014,70.652C73.865,70.551 74.492,70.43 74.895,70.289C74.899,70.145 74.901,70.053 74.901,70.014C74.901,69.584 74.801,69.281 74.602,69.105C74.332,68.867 73.932,68.748 73.401,68.748C72.904,68.748 72.538,68.835 72.302,69.009C72.066,69.183 71.891,69.49 71.777,69.932L70.746,69.791C70.84,69.35 70.994,68.993 71.209,68.722C71.424,68.45 71.735,68.241 72.141,68.095C72.547,67.948 73.018,67.875 73.553,67.875C74.084,67.875 74.516,67.938 74.848,68.063C75.18,68.188 75.424,68.345 75.58,68.534C75.736,68.724 75.846,68.963 75.908,69.252C75.944,69.432 75.961,69.756 75.961,70.225L75.961,71.631C75.961,72.611 75.984,73.231 76.028,73.491C76.073,73.751 76.162,74 76.295,74.238L75.194,74.238C75.084,74.02 75.014,73.764 74.983,73.471ZM74.895,71.115C74.512,71.272 73.938,71.404 73.172,71.514C72.738,71.576 72.432,71.647 72.252,71.725C72.072,71.803 71.934,71.917 71.836,72.067C71.738,72.218 71.69,72.385 71.69,72.568C71.69,72.85 71.796,73.084 72.009,73.272C72.222,73.459 72.533,73.553 72.944,73.553C73.35,73.553 73.711,73.464 74.027,73.286C74.344,73.108 74.576,72.865 74.725,72.557C74.838,72.318 74.895,71.967 74.895,71.502L74.895,71.115Z" style="fill-rule:nonzero;"/>
            <path d="M79.899,73.295L80.051,74.227C79.754,74.289 79.488,74.32 79.254,74.32C78.871,74.32 78.574,74.26 78.363,74.139C78.152,74.018 78.004,73.858 77.918,73.661C77.832,73.464 77.789,73.049 77.789,72.416L77.789,68.836L77.016,68.836L77.016,68.016L77.789,68.016L77.789,66.475L78.838,65.842L78.838,68.016L79.899,68.016L79.899,68.836L78.838,68.836L78.838,72.475C78.838,72.775 78.857,72.969 78.894,73.055C78.931,73.141 78.991,73.209 79.075,73.26C79.159,73.311 79.279,73.336 79.436,73.336C79.553,73.336 79.707,73.322 79.899,73.295Z" style="fill-rule:nonzero;"/>
            <path d="M80.936,66.861L80.936,65.648L81.99,65.648L81.99,66.861L80.936,66.861ZM80.936,74.238L80.936,68.016L81.99,68.016L81.99,74.238L80.936,74.238Z" style="fill-rule:nonzero;"/>
            <path d="M85.324,74.238L82.957,68.016L84.07,68.016L85.406,71.742C85.551,72.145 85.684,72.563 85.805,72.996C85.899,72.668 86.029,72.273 86.197,71.813L87.58,68.016L88.664,68.016L86.309,74.238L85.324,74.238Z" style="fill-rule:nonzero;"/>
            <path d="M93.856,72.234L94.945,72.369C94.774,73.006 94.455,73.5 93.99,73.852C93.526,74.203 92.932,74.379 92.209,74.379C91.299,74.379 90.577,74.099 90.044,73.538C89.511,72.978 89.244,72.191 89.244,71.18C89.244,70.133 89.514,69.32 90.053,68.742C90.592,68.164 91.291,67.875 92.151,67.875C92.983,67.875 93.662,68.158 94.19,68.725C94.717,69.291 94.981,70.088 94.981,71.115C94.981,71.178 94.979,71.272 94.975,71.397L90.334,71.397C90.373,72.08 90.567,72.604 90.914,72.967C91.262,73.33 91.695,73.512 92.215,73.512C92.602,73.512 92.932,73.41 93.205,73.207C93.479,73.004 93.695,72.68 93.856,72.234ZM90.393,70.529L93.867,70.529C93.82,70.006 93.688,69.613 93.469,69.352C93.133,68.945 92.697,68.742 92.162,68.742C91.678,68.742 91.271,68.904 90.941,69.229C90.61,69.553 90.428,69.986 90.393,70.529Z" style="fill-rule:nonzero;"/>
        </g>
    </g>
</svg>
