<?xml version="1.0" encoding="UTF-8" standalone="no"?>
<!DOCTYPE svg PUBLIC "-//W3C//DTD SVG 1.1//EN" "http://www.w3.org/Graphics/SVG/1.1/DTD/svg11.dtd">
<svg width="100%" height="100%" viewBox="0 0 75 380" version="1.1" xmlns="http://www.w3.org/2000/svg" xmlns:xlink="http://www.w3.org/1999/xlink" xml:space="preserve" xmlns:serif="http://www.serif.com/" style="fill-rule:evenodd;clip-rule:evenodd;stroke-linecap:round;stroke-linejoin:round;stroke-miterlimit:1.5;">
    <g transform="matrix(1.48798,0,0,1.07627,-21.7636,-16.622)">
        <rect x="14.626" y="15.444" width="50.404" height="353.07" style="fill:rgb(230,230,230);"/>
    </g>
    <g transform="matrix(0.833333,0,0,3.06089,0,81.9351)">
        <rect x="0" y="32.024" width="90" height="48.209" style="fill:rgb(134,166,89);"/>
    </g>
    <g transform="matrix(0.833333,0,0,1.14362,0,-11.1443)">
        <rect x="0" y="32.024" width="90" height="48.209" style="fill:rgb(134,166,89);"/>
    </g>
    <g transform="matrix(1,0,0,1,-15,0)">
        <g id="Output-output" serif:id="Output#output" transform="matrix(0.175002,0,0,0.175002,42.2139,322.943)">
            <rect x="53.94" y="106.916" width="161.978" height="161.978" style="fill:rgb(77,77,77);"/>
        </g>
        <g transform="matrix(1,0,0,1,-45.8022,241.05)">
            <path d="M76.668,114.656C76.661,114.483 76.606,114.353 76.503,114.266C76.4,114.18 76.281,114.136 76.148,114.136C75.988,114.136 75.865,114.188 75.778,114.291C75.691,114.395 75.648,114.513 75.648,114.646C75.648,114.74 75.671,114.831 75.718,114.921C75.765,115.011 75.885,115.093 76.078,115.166L76.678,115.406C77.058,115.553 77.32,115.753 77.463,116.006C77.606,116.26 77.678,116.536 77.678,116.836C77.678,117.05 77.64,117.248 77.563,117.431C77.486,117.615 77.381,117.776 77.248,117.916C77.115,118.056 76.955,118.166 76.768,118.246C76.581,118.326 76.378,118.366 76.158,118.366C75.745,118.366 75.398,118.236 75.118,117.976C74.978,117.85 74.865,117.691 74.778,117.501C74.691,117.311 74.645,117.09 74.638,116.836L75.598,116.836C75.618,116.976 75.666,117.106 75.743,117.226C75.82,117.346 75.955,117.406 76.148,117.406C76.295,117.406 76.426,117.358 76.543,117.261C76.66,117.165 76.718,117.03 76.718,116.856C76.718,116.716 76.681,116.596 76.608,116.496C76.535,116.396 76.401,116.31 76.208,116.236L75.718,116.056C75.398,115.936 75.146,115.758 74.963,115.521C74.78,115.285 74.688,114.996 74.688,114.656C74.688,114.443 74.728,114.245 74.808,114.061C74.888,113.878 74.998,113.72 75.138,113.586C75.271,113.453 75.428,113.351 75.608,113.281C75.788,113.211 75.981,113.176 76.188,113.176C76.395,113.176 76.586,113.213 76.763,113.286C76.94,113.36 77.091,113.463 77.218,113.596C77.345,113.73 77.445,113.888 77.518,114.071C77.591,114.255 77.628,114.45 77.628,114.656L76.668,114.656Z" style="fill-rule:nonzero;"/>
            <path d="M81.288,116.156L79.268,116.156L79.268,116.846C79.268,117.006 79.313,117.13 79.403,117.216C79.493,117.303 79.615,117.346 79.768,117.346C79.961,117.346 80.09,117.29 80.153,117.176C80.216,117.063 80.255,116.95 80.268,116.836L81.288,116.836C81.288,117.283 81.151,117.643 80.878,117.916C80.745,118.056 80.585,118.166 80.398,118.246C80.211,118.326 80.001,118.366 79.768,118.366C79.448,118.366 79.176,118.3 78.953,118.166C78.73,118.033 78.558,117.856 78.438,117.636C78.365,117.503 78.315,117.35 78.288,117.176C78.261,117.003 78.248,116.813 78.248,116.606L78.248,114.936C78.248,114.73 78.261,114.54 78.288,114.366C78.315,114.193 78.365,114.04 78.438,113.906C78.558,113.686 78.73,113.51 78.953,113.376C79.176,113.243 79.448,113.176 79.768,113.176C80.001,113.176 80.213,113.216 80.403,113.296C80.593,113.376 80.755,113.486 80.888,113.626C81.155,113.926 81.288,114.303 81.288,114.756L81.288,116.156ZM79.268,115.356L80.268,115.356L80.268,114.776C80.268,114.583 80.223,114.438 80.133,114.341C80.043,114.245 79.921,114.196 79.768,114.196C79.615,114.196 79.493,114.245 79.403,114.341C79.313,114.438 79.268,114.583 79.268,114.776L79.268,115.356Z" style="fill-rule:nonzero;"/>
            <path d="M81.978,111.186L82.998,111.186L82.998,116.876C82.998,117.07 83.033,117.201 83.103,117.271C83.173,117.341 83.305,117.386 83.498,117.406L83.498,118.366C83.265,118.366 83.055,118.348 82.868,118.311C82.681,118.275 82.521,118.203 82.388,118.096C82.255,117.996 82.153,117.855 82.083,117.671C82.013,117.488 81.978,117.246 81.978,116.946L81.978,111.186Z" style="fill-rule:nonzero;"/>
            <path d="M86.848,116.156L84.828,116.156L84.828,116.846C84.828,117.006 84.873,117.13 84.963,117.216C85.053,117.303 85.175,117.346 85.328,117.346C85.521,117.346 85.65,117.29 85.713,117.176C85.776,117.063 85.815,116.95 85.828,116.836L86.848,116.836C86.848,117.283 86.711,117.643 86.438,117.916C86.305,118.056 86.145,118.166 85.958,118.246C85.771,118.326 85.561,118.366 85.328,118.366C85.008,118.366 84.736,118.3 84.513,118.166C84.29,118.033 84.118,117.856 83.998,117.636C83.925,117.503 83.875,117.35 83.848,117.176C83.821,117.003 83.808,116.813 83.808,116.606L83.808,114.936C83.808,114.73 83.821,114.54 83.848,114.366C83.875,114.193 83.925,114.04 83.998,113.906C84.118,113.686 84.29,113.51 84.513,113.376C84.736,113.243 85.008,113.176 85.328,113.176C85.561,113.176 85.773,113.216 85.963,113.296C86.153,113.376 86.315,113.486 86.448,113.626C86.715,113.926 86.848,114.303 86.848,114.756L86.848,116.156ZM84.828,115.356L85.828,115.356L85.828,114.776C85.828,114.583 85.783,114.438 85.693,114.341C85.603,114.245 85.481,114.196 85.328,114.196C85.175,114.196 85.053,114.245 84.963,114.341C84.873,114.438 84.828,114.583 84.828,114.776L84.828,115.356Z" style="fill-rule:nonzero;"/>
            <path d="M88.678,116.846C88.678,117.006 88.723,117.13 88.813,117.216C88.903,117.303 89.025,117.346 89.178,117.346C89.371,117.346 89.5,117.29 89.563,117.176C89.626,117.063 89.665,116.95 89.678,116.836L90.698,116.836C90.698,117.283 90.561,117.643 90.288,117.916C90.155,118.056 89.995,118.166 89.808,118.246C89.621,118.326 89.411,118.366 89.178,118.366C88.858,118.366 88.586,118.3 88.363,118.166C88.14,118.033 87.968,117.856 87.848,117.636C87.775,117.503 87.725,117.35 87.698,117.176C87.671,117.003 87.658,116.813 87.658,116.606L87.658,114.936C87.658,114.73 87.671,114.54 87.698,114.366C87.725,114.193 87.775,114.04 87.848,113.906C87.968,113.686 88.14,113.51 88.363,113.376C88.586,113.243 88.858,113.176 89.178,113.176C89.411,113.176 89.623,113.216 89.813,113.296C90.003,113.376 90.165,113.486 90.298,113.626C90.565,113.926 90.698,114.316 90.698,114.796L89.678,114.796C89.678,114.59 89.633,114.438 89.543,114.341C89.453,114.245 89.331,114.196 89.178,114.196C89.025,114.196 88.903,114.245 88.813,114.341C88.723,114.438 88.678,114.583 88.678,114.776L88.678,116.846Z" style="fill-rule:nonzero;"/>
            <path d="M91.298,113.236L91.298,111.696L92.318,111.696L92.318,113.236L92.948,113.236L92.948,114.036L92.318,114.036L92.318,116.846C92.318,116.966 92.33,117.06 92.353,117.126C92.376,117.193 92.415,117.243 92.468,117.276C92.521,117.31 92.586,117.33 92.663,117.336C92.74,117.343 92.835,117.346 92.948,117.346L92.948,118.306L92.528,118.306C92.295,118.306 92.1,118.27 91.943,118.196C91.786,118.123 91.661,118.03 91.568,117.916C91.475,117.803 91.406,117.675 91.363,117.531C91.32,117.388 91.298,117.25 91.298,117.116L91.298,114.036L90.788,114.036L90.788,113.236L91.298,113.236Z" style="fill-rule:nonzero;"/>
        </g>
        <g transform="matrix(1,0,0,1,-45.8022,241.05)">
            <text x="74.398px" y="118.306px" style="font-family:'DINCondensed-Bold', 'DIN Condensed';font-weight:700;font-stretch:condensed;font-size:10px;">select</text>
        </g>
    </g>
    <g id="Reset" transform="matrix(1,0,0,1,1.46474,54.0728)">
        <g id="Button-button" serif:id="Button#button" transform="matrix(0.174892,0,0,0.175002,-4.47325,219.424)">
            <rect x="53.94" y="106.916" width="161.978" height="161.978" style="fill:rgb(134,166,89);"/>
        </g>
        <g id="Gate-input" serif:id="Gate#input" transform="matrix(0.175002,0,0,0.175002,25.324,219.424)">
            <rect x="53.94" y="106.916" width="161.978" height="161.978" style="fill:rgb(204,204,204);"/>
        </g>
        <g transform="matrix(1,0,0,1,-49.2376,116.304)">
            <path d="M77.598,118.306L77.598,113.236L78.618,113.236L78.618,113.776C78.825,113.59 79.028,113.443 79.228,113.336C79.428,113.23 79.675,113.176 79.968,113.176L79.968,114.256C79.868,114.216 79.765,114.196 79.658,114.196C79.551,114.196 79.436,114.215 79.313,114.251C79.19,114.288 79.078,114.35 78.978,114.436C78.871,114.523 78.785,114.636 78.718,114.776C78.651,114.916 78.618,115.09 78.618,115.296L78.618,118.306L77.598,118.306Z" style="fill-rule:nonzero;"/>
            <path d="M83.328,116.156L81.308,116.156L81.308,116.846C81.308,117.006 81.353,117.13 81.443,117.216C81.533,117.303 81.655,117.346 81.808,117.346C82.001,117.346 82.13,117.29 82.193,117.176C82.256,117.063 82.295,116.95 82.308,116.836L83.328,116.836C83.328,117.283 83.191,117.643 82.918,117.916C82.785,118.056 82.625,118.166 82.438,118.246C82.251,118.326 82.041,118.366 81.808,118.366C81.488,118.366 81.216,118.3 80.993,118.166C80.77,118.033 80.598,117.856 80.478,117.636C80.405,117.503 80.355,117.35 80.328,117.176C80.301,117.003 80.288,116.813 80.288,116.606L80.288,114.936C80.288,114.73 80.301,114.54 80.328,114.366C80.355,114.193 80.405,114.04 80.478,113.906C80.598,113.686 80.77,113.51 80.993,113.376C81.216,113.243 81.488,113.176 81.808,113.176C82.041,113.176 82.253,113.216 82.443,113.296C82.633,113.376 82.795,113.486 82.928,113.626C83.195,113.926 83.328,114.303 83.328,114.756L83.328,116.156ZM81.308,115.356L82.308,115.356L82.308,114.776C82.308,114.583 82.263,114.438 82.173,114.341C82.083,114.245 81.961,114.196 81.808,114.196C81.655,114.196 81.533,114.245 81.443,114.341C81.353,114.438 81.308,114.583 81.308,114.776L81.308,115.356Z" style="fill-rule:nonzero;"/>
            <path d="M85.928,114.656C85.921,114.483 85.866,114.353 85.763,114.266C85.66,114.18 85.541,114.136 85.408,114.136C85.248,114.136 85.125,114.188 85.038,114.291C84.951,114.395 84.908,114.513 84.908,114.646C84.908,114.74 84.931,114.831 84.978,114.921C85.025,115.011 85.145,115.093 85.338,115.166L85.938,115.406C86.318,115.553 86.58,115.753 86.723,116.006C86.866,116.26 86.938,116.536 86.938,116.836C86.938,117.05 86.9,117.248 86.823,117.431C86.746,117.615 86.641,117.776 86.508,117.916C86.375,118.056 86.215,118.166 86.028,118.246C85.841,118.326 85.638,118.366 85.418,118.366C85.005,118.366 84.658,118.236 84.378,117.976C84.238,117.85 84.125,117.691 84.038,117.501C83.951,117.311 83.905,117.09 83.898,116.836L84.858,116.836C84.878,116.976 84.926,117.106 85.003,117.226C85.08,117.346 85.215,117.406 85.408,117.406C85.555,117.406 85.686,117.358 85.803,117.261C85.92,117.165 85.978,117.03 85.978,116.856C85.978,116.716 85.941,116.596 85.868,116.496C85.795,116.396 85.661,116.31 85.468,116.236L84.978,116.056C84.658,115.936 84.406,115.758 84.223,115.521C84.04,115.285 83.948,114.996 83.948,114.656C83.948,114.443 83.988,114.245 84.068,114.061C84.148,113.878 84.258,113.72 84.398,113.586C84.531,113.453 84.688,113.351 84.868,113.281C85.048,113.211 85.241,113.176 85.448,113.176C85.655,113.176 85.846,113.213 86.023,113.286C86.2,113.36 86.351,113.463 86.478,113.596C86.605,113.73 86.705,113.888 86.778,114.071C86.851,114.255 86.888,114.45 86.888,114.656L85.928,114.656Z" style="fill-rule:nonzero;"/>
            <path d="M90.548,116.156L88.528,116.156L88.528,116.846C88.528,117.006 88.573,117.13 88.663,117.216C88.753,117.303 88.875,117.346 89.028,117.346C89.221,117.346 89.35,117.29 89.413,117.176C89.476,117.063 89.515,116.95 89.528,116.836L90.548,116.836C90.548,117.283 90.411,117.643 90.138,117.916C90.005,118.056 89.845,118.166 89.658,118.246C89.471,118.326 89.261,118.366 89.028,118.366C88.708,118.366 88.436,118.3 88.213,118.166C87.99,118.033 87.818,117.856 87.698,117.636C87.625,117.503 87.575,117.35 87.548,117.176C87.521,117.003 87.508,116.813 87.508,116.606L87.508,114.936C87.508,114.73 87.521,114.54 87.548,114.366C87.575,114.193 87.625,114.04 87.698,113.906C87.818,113.686 87.99,113.51 88.213,113.376C88.436,113.243 88.708,113.176 89.028,113.176C89.261,113.176 89.473,113.216 89.663,113.296C89.853,113.376 90.015,113.486 90.148,113.626C90.415,113.926 90.548,114.303 90.548,114.756L90.548,116.156ZM88.528,115.356L89.528,115.356L89.528,114.776C89.528,114.583 89.483,114.438 89.393,114.341C89.303,114.245 89.181,114.196 89.028,114.196C88.875,114.196 88.753,114.245 88.663,114.341C88.573,114.438 88.528,114.583 88.528,114.776L88.528,115.356Z" style="fill-rule:nonzero;"/>
            <path d="M91.298,113.236L91.298,111.696L92.318,111.696L92.318,113.236L92.948,113.236L92.948,114.036L92.318,114.036L92.318,116.846C92.318,116.966 92.33,117.06 92.353,117.126C92.376,117.193 92.415,117.243 92.468,117.276C92.521,117.31 92.586,117.33 92.663,117.336C92.74,117.343 92.835,117.346 92.948,117.346L92.948,118.306L92.528,118.306C92.295,118.306 92.1,118.27 91.943,118.196C91.786,118.123 91.661,118.03 91.568,117.916C91.475,117.803 91.406,117.675 91.363,117.531C91.32,117.388 91.298,117.25 91.298,117.116L91.298,114.036L90.788,114.036L90.788,113.236L91.298,113.236Z" style="fill-rule:nonzero;"/>
        </g>
        <g transform="matrix(1,0,0,1,-49.2376,116.304)">
            <text x="77.178px" y="118.306px" style="font-family:'DINCondensed-Bold', 'DIN Condensed';font-weight:700;font-stretch:condensed;font-size:10px;">reset</text>
        </g>
    </g>
    <g id="Next" transform="matrix(1,0,0,1,1.46474,6.07283)">
        <g id="Button-button1" serif:id="Button#button" transform="matrix(0.174892,0,0,0.175002,-4.47325,219.424)">
            <rect x="53.94" y="106.916" width="161.978" height="161.978" style="fill:rgb(134,166,89);"/>
        </g>
        <g id="Gate-input1" serif:id="Gate#input" transform="matrix(0.175002,0,0,0.175002,25.324,219.424)">
            <rect x="53.94" y="106.916" width="161.978" height="161.978" style="fill:rgb(204,204,204);"/>
        </g>
        <g transform="matrix(1,0,0,1,-50.6326,116.304)">
            <path d="M80.388,118.306L80.388,113.236L81.408,113.236L81.408,113.726L81.428,113.726C81.535,113.566 81.663,113.435 81.813,113.331C81.963,113.228 82.155,113.176 82.388,113.176C82.515,113.176 82.641,113.198 82.768,113.241C82.895,113.285 83.008,113.356 83.108,113.456C83.208,113.556 83.288,113.685 83.348,113.841C83.408,113.998 83.438,114.19 83.438,114.416L83.438,118.306L82.418,118.306L82.418,114.796C82.418,114.61 82.375,114.463 82.288,114.356C82.201,114.25 82.078,114.196 81.918,114.196C81.725,114.196 81.591,114.256 81.518,114.376C81.445,114.496 81.408,114.67 81.408,114.896L81.408,118.306L80.388,118.306Z" style="fill-rule:nonzero;"/>
            <path d="M87.228,116.156L85.208,116.156L85.208,116.846C85.208,117.006 85.253,117.13 85.343,117.216C85.433,117.303 85.555,117.346 85.708,117.346C85.901,117.346 86.03,117.29 86.093,117.176C86.156,117.063 86.195,116.95 86.208,116.836L87.228,116.836C87.228,117.283 87.091,117.643 86.818,117.916C86.685,118.056 86.525,118.166 86.338,118.246C86.151,118.326 85.941,118.366 85.708,118.366C85.388,118.366 85.116,118.3 84.893,118.166C84.67,118.033 84.498,117.856 84.378,117.636C84.305,117.503 84.255,117.35 84.228,117.176C84.201,117.003 84.188,116.813 84.188,116.606L84.188,114.936C84.188,114.73 84.201,114.54 84.228,114.366C84.255,114.193 84.305,114.04 84.378,113.906C84.498,113.686 84.67,113.51 84.893,113.376C85.116,113.243 85.388,113.176 85.708,113.176C85.941,113.176 86.153,113.216 86.343,113.296C86.533,113.376 86.695,113.486 86.828,113.626C87.095,113.926 87.228,114.303 87.228,114.756L87.228,116.156ZM85.208,115.356L86.208,115.356L86.208,114.776C86.208,114.583 86.163,114.438 86.073,114.341C85.983,114.245 85.861,114.196 85.708,114.196C85.555,114.196 85.433,114.245 85.343,114.341C85.253,114.438 85.208,114.583 85.208,114.776L85.208,115.356Z" style="fill-rule:nonzero;"/>
            <path d="M87.448,118.306L88.698,115.716L87.508,113.236L88.588,113.236L89.218,114.676L89.848,113.236L90.928,113.236L89.718,115.716L90.988,118.306L89.908,118.306L89.218,116.756L88.528,118.306L87.448,118.306Z" style="fill-rule:nonzero;"/>
            <path d="M91.298,113.236L91.298,111.696L92.318,111.696L92.318,113.236L92.948,113.236L92.948,114.036L92.318,114.036L92.318,116.846C92.318,116.966 92.33,117.06 92.353,117.126C92.376,117.193 92.415,117.243 92.468,117.276C92.521,117.31 92.586,117.33 92.663,117.336C92.74,117.343 92.835,117.346 92.948,117.346L92.948,118.306L92.528,118.306C92.295,118.306 92.1,118.27 91.943,118.196C91.786,118.123 91.661,118.03 91.568,117.916C91.475,117.803 91.406,117.675 91.363,117.531C91.32,117.388 91.298,117.25 91.298,117.116L91.298,114.036L90.788,114.036L90.788,113.236L91.298,113.236Z" style="fill-rule:nonzero;"/>
        </g>
        <g transform="matrix(1,0,0,1,-50.6326,116.304)">
            <text x="79.968px" y="118.306px" style="font-family:'DINCondensed-Bold', 'DIN Condensed';font-weight:700;font-stretch:condensed;font-size:10px;">next</text>
        </g>
    </g>
    <g id="Current" transform="matrix(1,0,0,1,-25.1187,151.572)">
        <g id="Display-display-2" serif:id="Display#display$2" transform="matrix(0.708395,0,0,1.02078,-16.1081,-21.57)">
            <rect x="87.136" y="70.02" width="47.996" height="23.511" style="fill:rgb(19,19,19);"/>
        </g>
        <g transform="matrix(1,0,0,1,-18.9831,-73.9515)">
            <path d="M71.638,116.846C71.638,117.006 71.683,117.13 71.773,117.216C71.863,117.303 71.985,117.346 72.138,117.346C72.331,117.346 72.46,117.29 72.523,117.176C72.586,117.063 72.625,116.95 72.638,116.836L73.658,116.836C73.658,117.283 73.521,117.643 73.248,117.916C73.115,118.056 72.955,118.166 72.768,118.246C72.581,118.326 72.371,118.366 72.138,118.366C71.818,118.366 71.546,118.3 71.323,118.166C71.1,118.033 70.928,117.856 70.808,117.636C70.735,117.503 70.685,117.35 70.658,117.176C70.631,117.003 70.618,116.813 70.618,116.606L70.618,114.936C70.618,114.73 70.631,114.54 70.658,114.366C70.685,114.193 70.735,114.04 70.808,113.906C70.928,113.686 71.1,113.51 71.323,113.376C71.546,113.243 71.818,113.176 72.138,113.176C72.371,113.176 72.583,113.216 72.773,113.296C72.963,113.376 73.125,113.486 73.258,113.626C73.525,113.926 73.658,114.316 73.658,114.796L72.638,114.796C72.638,114.59 72.593,114.438 72.503,114.341C72.413,114.245 72.291,114.196 72.138,114.196C71.985,114.196 71.863,114.245 71.773,114.341C71.683,114.438 71.638,114.583 71.638,114.776L71.638,116.846Z" style="fill-rule:nonzero;"/>
            <path d="M77.308,113.236L77.308,118.306L76.288,118.306L76.288,117.816L76.268,117.816C76.161,117.976 76.033,118.108 75.883,118.211C75.733,118.315 75.541,118.366 75.308,118.366C75.181,118.366 75.055,118.345 74.928,118.301C74.801,118.258 74.688,118.186 74.588,118.086C74.488,117.986 74.408,117.858 74.348,117.701C74.288,117.545 74.258,117.353 74.258,117.126L74.258,113.236L75.278,113.236L75.278,116.746C75.278,116.933 75.321,117.08 75.408,117.186C75.495,117.293 75.618,117.346 75.778,117.346C75.971,117.346 76.105,117.286 76.178,117.166C76.251,117.046 76.288,116.873 76.288,116.646L76.288,113.236L77.308,113.236Z" style="fill-rule:nonzero;"/>
            <path d="M78.148,118.306L78.148,113.236L79.168,113.236L79.168,113.776C79.375,113.59 79.578,113.443 79.778,113.336C79.978,113.23 80.225,113.176 80.518,113.176L80.518,114.256C80.418,114.216 80.315,114.196 80.208,114.196C80.101,114.196 79.986,114.215 79.863,114.251C79.74,114.288 79.628,114.35 79.528,114.436C79.421,114.523 79.335,114.636 79.268,114.776C79.201,114.916 79.168,115.09 79.168,115.296L79.168,118.306L78.148,118.306Z" style="fill-rule:nonzero;"/>
            <path d="M80.928,118.306L80.928,113.236L81.948,113.236L81.948,113.776C82.155,113.59 82.358,113.443 82.558,113.336C82.758,113.23 83.005,113.176 83.298,113.176L83.298,114.256C83.198,114.216 83.095,114.196 82.988,114.196C82.881,114.196 82.766,114.215 82.643,114.251C82.52,114.288 82.408,114.35 82.308,114.436C82.201,114.523 82.115,114.636 82.048,114.776C81.981,114.916 81.948,115.09 81.948,115.296L81.948,118.306L80.928,118.306Z" style="fill-rule:nonzero;"/>
            <path d="M86.658,116.156L84.638,116.156L84.638,116.846C84.638,117.006 84.683,117.13 84.773,117.216C84.863,117.303 84.985,117.346 85.138,117.346C85.331,117.346 85.46,117.29 85.523,117.176C85.586,117.063 85.625,116.95 85.638,116.836L86.658,116.836C86.658,117.283 86.521,117.643 86.248,117.916C86.115,118.056 85.955,118.166 85.768,118.246C85.581,118.326 85.371,118.366 85.138,118.366C84.818,118.366 84.546,118.3 84.323,118.166C84.1,118.033 83.928,117.856 83.808,117.636C83.735,117.503 83.685,117.35 83.658,117.176C83.631,117.003 83.618,116.813 83.618,116.606L83.618,114.936C83.618,114.73 83.631,114.54 83.658,114.366C83.685,114.193 83.735,114.04 83.808,113.906C83.928,113.686 84.1,113.51 84.323,113.376C84.546,113.243 84.818,113.176 85.138,113.176C85.371,113.176 85.583,113.216 85.773,113.296C85.963,113.376 86.125,113.486 86.258,113.626C86.525,113.926 86.658,114.303 86.658,114.756L86.658,116.156ZM84.638,115.356L85.638,115.356L85.638,114.776C85.638,114.583 85.593,114.438 85.503,114.341C85.413,114.245 85.291,114.196 85.138,114.196C84.985,114.196 84.863,114.245 84.773,114.341C84.683,114.438 84.638,114.583 84.638,114.776L84.638,115.356Z" style="fill-rule:nonzero;"/>
            <path d="M87.408,118.306L87.408,113.236L88.428,113.236L88.428,113.726L88.448,113.726C88.555,113.566 88.683,113.435 88.833,113.331C88.983,113.228 89.175,113.176 89.408,113.176C89.535,113.176 89.661,113.198 89.788,113.241C89.915,113.285 90.028,113.356 90.128,113.456C90.228,113.556 90.308,113.685 90.368,113.841C90.428,113.998 90.458,114.19 90.458,114.416L90.458,118.306L89.438,118.306L89.438,114.796C89.438,114.61 89.395,114.463 89.308,114.356C89.221,114.25 89.098,114.196 88.938,114.196C88.745,114.196 88.611,114.256 88.538,114.376C88.465,114.496 88.428,114.67 88.428,114.896L88.428,118.306L87.408,118.306Z" style="fill-rule:nonzero;"/>
            <path d="M91.298,113.236L91.298,111.696L92.318,111.696L92.318,113.236L92.948,113.236L92.948,114.036L92.318,114.036L92.318,116.846C92.318,116.966 92.33,117.06 92.353,117.126C92.376,117.193 92.415,117.243 92.468,117.276C92.521,117.31 92.586,117.33 92.663,117.336C92.74,117.343 92.835,117.346 92.948,117.346L92.948,118.306L92.528,118.306C92.295,118.306 92.1,118.27 91.943,118.196C91.786,118.123 91.661,118.03 91.568,117.916C91.475,117.803 91.406,117.675 91.363,117.531C91.32,117.388 91.298,117.25 91.298,117.116L91.298,114.036L90.788,114.036L90.788,113.236L91.298,113.236Z" style="fill-rule:nonzero;"/>
        </g>
        <g transform="matrix(1,0,0,1,-18.9831,-73.9515)">
            <text x="70.138px" y="118.306px" style="font-family:'DINCondensed-Bold', 'DIN Condensed';font-weight:700;font-stretch:condensed;font-size:10px;">curren</text>
            <text x="90.878px" y="118.306px" style="font-family:'DINCondensed-Bold', 'DIN Condensed';font-weight:700;font-stretch:condensed;font-size:10px;">t</text>
        </g>
    </g>
    <g id="Max" transform="matrix(1,0,0,1,-12.8224,93.5514)">
        <g id="Button-button2" serif:id="Button#button" transform="matrix(0.174892,0,0,0.175002,9.59235,29.0208)">
            <rect x="53.94" y="106.916" width="161.978" height="161.978" style="fill:rgb(230,230,230);"/>
        </g>
        <g id="Display-display-21" serif:id="Display#display$2" transform="matrix(0.708395,0,0,1.02078,-18.1081,-21.57)">
            <rect x="87.136" y="70.02" width="47.996" height="23.511" style="fill:rgb(19,19,19);"/>
        </g>
        <g transform="matrix(1,0,0,1,-36.3905,-74.7236)">
            <path d="M80.398,118.306L80.398,113.236L81.418,113.236L81.418,113.726L81.438,113.726C81.545,113.566 81.673,113.435 81.823,113.331C81.973,113.228 82.165,113.176 82.398,113.176C82.618,113.176 82.801,113.23 82.948,113.336C83.095,113.443 83.215,113.56 83.308,113.686C83.435,113.546 83.575,113.426 83.728,113.326C83.881,113.226 84.095,113.176 84.368,113.176C84.495,113.176 84.625,113.198 84.758,113.241C84.891,113.285 85.011,113.356 85.118,113.456C85.225,113.556 85.311,113.685 85.378,113.841C85.445,113.998 85.478,114.19 85.478,114.416L85.478,118.306L84.458,118.306L84.458,114.796C84.458,114.61 84.415,114.463 84.328,114.356C84.241,114.25 84.118,114.196 83.958,114.196C83.765,114.196 83.631,114.256 83.558,114.376C83.485,114.496 83.448,114.67 83.448,114.896L83.448,118.306L82.428,118.306L82.428,114.796C82.428,114.61 82.385,114.463 82.298,114.356C82.211,114.25 82.088,114.196 81.928,114.196C81.735,114.196 81.601,114.256 81.528,114.376C81.455,114.496 81.418,114.67 81.418,114.896L81.418,118.306L80.398,118.306Z" style="fill-rule:nonzero;"/>
            <path d="M88.248,118.306L88.248,117.786L88.228,117.786C88.095,117.973 87.96,118.116 87.823,118.216C87.686,118.316 87.495,118.366 87.248,118.366C87.128,118.366 87.006,118.348 86.883,118.311C86.76,118.275 86.641,118.206 86.528,118.106C86.415,118.013 86.323,117.878 86.253,117.701C86.183,117.525 86.148,117.296 86.148,117.016C86.148,116.73 86.171,116.478 86.218,116.261C86.265,116.045 86.351,115.863 86.478,115.716C86.598,115.576 86.761,115.471 86.968,115.401C87.175,115.331 87.438,115.296 87.758,115.296L87.868,115.296C87.908,115.296 87.945,115.3 87.978,115.306C88.011,115.313 88.051,115.316 88.098,115.316C88.145,115.316 88.195,115.32 88.248,115.326L88.248,114.796C88.248,114.623 88.211,114.48 88.138,114.366C88.065,114.253 87.931,114.196 87.738,114.196C87.605,114.196 87.483,114.24 87.373,114.326C87.263,114.413 87.191,114.54 87.158,114.706L86.168,114.706C86.195,114.253 86.348,113.886 86.628,113.606C86.761,113.473 86.921,113.368 87.108,113.291C87.295,113.215 87.505,113.176 87.738,113.176C87.951,113.176 88.151,113.21 88.338,113.276C88.525,113.343 88.688,113.443 88.828,113.576C88.961,113.71 89.068,113.876 89.148,114.076C89.228,114.276 89.268,114.51 89.268,114.776L89.268,118.306L88.248,118.306ZM88.248,116.126C88.135,116.106 88.041,116.096 87.968,116.096C87.748,116.096 87.56,116.148 87.403,116.251C87.246,116.355 87.168,116.543 87.168,116.816C87.168,117.01 87.215,117.166 87.308,117.286C87.401,117.406 87.531,117.466 87.698,117.466C87.871,117.466 88.006,117.41 88.103,117.296C88.2,117.183 88.248,117.023 88.248,116.816L88.248,116.126Z" style="fill-rule:nonzero;"/>
            <path d="M89.488,118.306L90.738,115.716L89.548,113.236L90.628,113.236L91.258,114.676L91.888,113.236L92.968,113.236L91.758,115.716L93.028,118.306L91.948,118.306L91.258,116.756L90.568,118.306L89.488,118.306Z" style="fill-rule:nonzero;"/>
        </g>
        <g transform="matrix(1,0,0,1,-36.3905,-74.7236)">
            <text x="79.978px" y="118.306px" style="font-family:'DINCondensed-Bold', 'DIN Condensed';font-weight:700;font-stretch:condensed;font-size:10px;">max</text>
        </g>
    </g>
    <g id="Min" transform="matrix(1,0,0,1,-12.8224,50.7182)">
        <g id="Button-button3" serif:id="Button#button" transform="matrix(0.174892,0,0,0.175002,9.59235,29.0208)">
            <rect x="53.94" y="106.916" width="161.978" height="161.978" style="fill:rgb(230,230,230);"/>
        </g>
        <g id="Display-display-22" serif:id="Display#display$2" transform="matrix(0.708395,0,0,1.02078,-18.1081,-21.57)">
            <rect x="87.136" y="70.02" width="47.996" height="23.511" style="fill:rgb(19,19,19);"/>
        </g>
        <g transform="matrix(1,0,0,1,-35.8905,-74.7236)">
            <path d="M81.668,118.306L81.668,113.236L82.688,113.236L82.688,113.726L82.708,113.726C82.815,113.566 82.943,113.435 83.093,113.331C83.243,113.228 83.435,113.176 83.668,113.176C83.888,113.176 84.071,113.23 84.218,113.336C84.365,113.443 84.485,113.56 84.578,113.686C84.705,113.546 84.845,113.426 84.998,113.326C85.151,113.226 85.365,113.176 85.638,113.176C85.765,113.176 85.895,113.198 86.028,113.241C86.161,113.285 86.281,113.356 86.388,113.456C86.495,113.556 86.581,113.685 86.648,113.841C86.715,113.998 86.748,114.19 86.748,114.416L86.748,118.306L85.728,118.306L85.728,114.796C85.728,114.61 85.685,114.463 85.598,114.356C85.511,114.25 85.388,114.196 85.228,114.196C85.035,114.196 84.901,114.256 84.828,114.376C84.755,114.496 84.718,114.67 84.718,114.896L84.718,118.306L83.698,118.306L83.698,114.796C83.698,114.61 83.655,114.463 83.568,114.356C83.481,114.25 83.358,114.196 83.198,114.196C83.005,114.196 82.871,114.256 82.798,114.376C82.725,114.496 82.688,114.67 82.688,114.896L82.688,118.306L81.668,118.306Z" style="fill-rule:nonzero;"/>
            <path d="M87.588,118.306L87.588,113.236L88.608,113.236L88.608,118.306L87.588,118.306ZM87.588,112.206L87.588,111.186L88.608,111.186L88.608,112.206L87.588,112.206Z" style="fill-rule:nonzero;"/>
            <path d="M89.448,118.306L89.448,113.236L90.468,113.236L90.468,113.726L90.488,113.726C90.595,113.566 90.723,113.435 90.873,113.331C91.023,113.228 91.215,113.176 91.448,113.176C91.575,113.176 91.701,113.198 91.828,113.241C91.955,113.285 92.068,113.356 92.168,113.456C92.268,113.556 92.348,113.685 92.408,113.841C92.468,113.998 92.498,114.19 92.498,114.416L92.498,118.306L91.478,118.306L91.478,114.796C91.478,114.61 91.435,114.463 91.348,114.356C91.261,114.25 91.138,114.196 90.978,114.196C90.785,114.196 90.651,114.256 90.578,114.376C90.505,114.496 90.468,114.67 90.468,114.896L90.468,118.306L89.448,118.306Z" style="fill-rule:nonzero;"/>
        </g>
        <g transform="matrix(1,0,0,1,-35.8905,-74.7236)">
            <text x="81.248px" y="118.306px" style="font-family:'DINCondensed-Bold', 'DIN Condensed';font-weight:700;font-stretch:condensed;font-size:10px;">min</text>
        </g>
    </g>
    <g id="Total" transform="matrix(1,0,0,1,-12.8224,-3.22468)">
        <g id="Button-button4" serif:id="Button#button" transform="matrix(0.174892,0,0,0.175002,9.59235,29.0208)">
            <rect x="53.94" y="106.916" width="161.978" height="161.978" style="fill:rgb(134,166,89);"/>
        </g>
        <g id="Display-display-23" serif:id="Display#display$2" transform="matrix(0.708395,0,0,1.02078,-18.1081,-21.57)">
            <rect x="87.136" y="70.02" width="47.996" height="23.511" style="fill:rgb(19,19,19);"/>
        </g>
        <g transform="matrix(1,0,0,1,-35.8905,-74.7236)">
            <path d="M79.998,113.236L79.998,111.696L81.018,111.696L81.018,113.236L81.648,113.236L81.648,114.036L81.018,114.036L81.018,116.846C81.018,116.966 81.03,117.06 81.053,117.126C81.076,117.193 81.115,117.243 81.168,117.276C81.221,117.31 81.286,117.33 81.363,117.336C81.44,117.343 81.535,117.346 81.648,117.346L81.648,118.306L81.228,118.306C80.995,118.306 80.8,118.27 80.643,118.196C80.486,118.123 80.361,118.03 80.268,117.916C80.175,117.803 80.106,117.675 80.063,117.531C80.02,117.388 79.998,117.25 79.998,117.116L79.998,114.036L79.488,114.036L79.488,113.236L79.998,113.236Z" style="fill-rule:nonzero;"/>
            <path d="M81.948,114.936C81.948,114.73 81.961,114.54 81.988,114.366C82.015,114.193 82.065,114.04 82.138,113.906C82.258,113.686 82.43,113.51 82.653,113.376C82.876,113.243 83.148,113.176 83.468,113.176C83.788,113.176 84.06,113.243 84.283,113.376C84.506,113.51 84.678,113.686 84.798,113.906C84.871,114.04 84.921,114.193 84.948,114.366C84.975,114.54 84.988,114.73 84.988,114.936L84.988,116.606C84.988,116.813 84.975,117.003 84.948,117.176C84.921,117.35 84.871,117.503 84.798,117.636C84.678,117.856 84.506,118.033 84.283,118.166C84.06,118.3 83.788,118.366 83.468,118.366C83.148,118.366 82.876,118.3 82.653,118.166C82.43,118.033 82.258,117.856 82.138,117.636C82.065,117.503 82.015,117.35 81.988,117.176C81.961,117.003 81.948,116.813 81.948,116.606L81.948,114.936ZM82.968,116.766C82.968,116.96 83.013,117.105 83.103,117.201C83.193,117.298 83.315,117.346 83.468,117.346C83.621,117.346 83.743,117.298 83.833,117.201C83.923,117.105 83.968,116.96 83.968,116.766L83.968,114.776C83.968,114.583 83.923,114.438 83.833,114.341C83.743,114.245 83.621,114.196 83.468,114.196C83.315,114.196 83.193,114.245 83.103,114.341C83.013,114.438 82.968,114.583 82.968,114.776L82.968,116.766Z" style="fill-rule:nonzero;"/>
            <path d="M85.738,113.236L85.738,111.696L86.758,111.696L86.758,113.236L87.388,113.236L87.388,114.036L86.758,114.036L86.758,116.846C86.758,116.966 86.77,117.06 86.793,117.126C86.816,117.193 86.855,117.243 86.908,117.276C86.961,117.31 87.026,117.33 87.103,117.336C87.18,117.343 87.275,117.346 87.388,117.346L87.388,118.306L86.968,118.306C86.735,118.306 86.54,118.27 86.383,118.196C86.226,118.123 86.101,118.03 86.008,117.916C85.915,117.803 85.846,117.675 85.803,117.531C85.76,117.388 85.738,117.25 85.738,117.116L85.738,114.036L85.228,114.036L85.228,113.236L85.738,113.236Z" style="fill-rule:nonzero;"/>
            <path d="M89.708,118.306L89.708,117.786L89.688,117.786C89.555,117.973 89.42,118.116 89.283,118.216C89.146,118.316 88.955,118.366 88.708,118.366C88.588,118.366 88.466,118.348 88.343,118.311C88.22,118.275 88.101,118.206 87.988,118.106C87.875,118.013 87.783,117.878 87.713,117.701C87.643,117.525 87.608,117.296 87.608,117.016C87.608,116.73 87.631,116.478 87.678,116.261C87.725,116.045 87.811,115.863 87.938,115.716C88.058,115.576 88.221,115.471 88.428,115.401C88.635,115.331 88.898,115.296 89.218,115.296L89.328,115.296C89.368,115.296 89.405,115.3 89.438,115.306C89.471,115.313 89.511,115.316 89.558,115.316C89.605,115.316 89.655,115.32 89.708,115.326L89.708,114.796C89.708,114.623 89.671,114.48 89.598,114.366C89.525,114.253 89.391,114.196 89.198,114.196C89.065,114.196 88.943,114.24 88.833,114.326C88.723,114.413 88.651,114.54 88.618,114.706L87.628,114.706C87.655,114.253 87.808,113.886 88.088,113.606C88.221,113.473 88.381,113.368 88.568,113.291C88.755,113.215 88.965,113.176 89.198,113.176C89.411,113.176 89.611,113.21 89.798,113.276C89.985,113.343 90.148,113.443 90.288,113.576C90.421,113.71 90.528,113.876 90.608,114.076C90.688,114.276 90.728,114.51 90.728,114.776L90.728,118.306L89.708,118.306ZM89.708,116.126C89.595,116.106 89.501,116.096 89.428,116.096C89.208,116.096 89.02,116.148 88.863,116.251C88.706,116.355 88.628,116.543 88.628,116.816C88.628,117.01 88.675,117.166 88.768,117.286C88.861,117.406 88.991,117.466 89.158,117.466C89.331,117.466 89.466,117.41 89.563,117.296C89.66,117.183 89.708,117.023 89.708,116.816L89.708,116.126Z" style="fill-rule:nonzero;"/>
            <path d="M91.418,111.186L92.438,111.186L92.438,116.876C92.438,117.07 92.473,117.201 92.543,117.271C92.613,117.341 92.745,117.386 92.938,117.406L92.938,118.366C92.705,118.366 92.495,118.348 92.308,118.311C92.121,118.275 91.961,118.203 91.828,118.096C91.695,117.996 91.593,117.855 91.523,117.671C91.453,117.488 91.418,117.246 91.418,116.946L91.418,111.186Z" style="fill-rule:nonzero;"/>
        </g>
        <g transform="matrix(1,0,0,1,-35.8905,-74.7236)">
            <text x="79.578px" y="118.306px" style="font-family:'DINCondensed-Bold', 'DIN Condensed';font-weight:700;font-stretch:condensed;font-size:10px;">total</text>
        </g>
    </g>
    <g transform="matrix(1,0,0,1,22.219,0.576)">
        <g transform="matrix(0.0161581,0,0,0.0183285,-9.47612,4.3465)">
            <g transform="matrix(1,0,0,1,-143.343,98.6554)">
                <ellipse cx="360.896" cy="293.762" rx="136.961" ry="230.443" style="fill:rgb(235,235,235);stroke:black;stroke-width:70.65px;"/>
            </g>
            <g transform="matrix(1,0,0,1,445.551,98.6554)">
                <ellipse cx="360.896" cy="293.762" rx="136.961" ry="230.443" style="fill:rgb(235,235,235);stroke:black;stroke-width:70.65px;"/>
            </g>
            <g transform="matrix(1,0,0,1,-34.3236,-20.6488)">
                <ellipse cx="546.324" cy="643.509" rx="431.408" ry="296.899" style="fill:rgb(235,235,235);stroke:black;stroke-width:70.65px;"/>
            </g>
            <circle cx="406.664" cy="569.758" r="105.336" style="fill:rgb(235,235,235);stroke:black;stroke-width:70.65px;"/>
            <g transform="matrix(1,0,0,1,210.672,0)">
                <circle cx="406.664" cy="569.758" r="105.336" style="fill:rgb(235,235,235);stroke:black;stroke-width:70.65px;"/>
            </g>
            <g transform="matrix(1,0,0,1,-53.1856,50.0357)">
                <ellipse cx="565.186" cy="671.455" rx="210.672" ry="98.631" style="fill:rgb(235,235,235);stroke:black;stroke-width:70.65px;"/>
            </g>
            <g transform="matrix(51.2,0,0,45.1371,0.670978,88.9676)">
                <path d="M12.057,13.791C12.057,13.668 11.958,13.568 11.835,13.568L8.139,13.568C8.016,13.568 7.916,13.668 7.916,13.791L7.916,14.236C7.916,14.359 8.016,14.458 8.139,14.458L11.835,14.458C11.958,14.458 12.057,14.359 12.057,14.236L12.057,13.791Z"/>
            </g>
        </g>
        <g transform="matrix(1,0,0,1,47.6875,-4.53575)">
            <path d="M-38.964,20.62C-38.98,20.62 -38.996,20.618 -39.012,20.614C-39.028,20.61 -39.04,20.596 -39.048,20.572C-39.048,20.564 -39.038,20.536 -39.018,20.488C-38.998,20.44 -38.964,20.388 -38.916,20.332C-38.868,20.276 -38.808,20.226 -38.736,20.182C-38.664,20.138 -38.576,20.116 -38.472,20.116C-38.344,20.116 -38.24,20.15 -38.16,20.218C-38.08,20.286 -38.016,20.38 -37.968,20.5C-37.92,20.62 -37.888,20.758 -37.872,20.914C-37.856,21.07 -37.848,21.236 -37.848,21.412C-37.824,21.604 -37.734,21.8 -37.578,22C-37.422,22.2 -37.23,22.38 -37.002,22.54C-36.774,22.7 -36.524,22.832 -36.252,22.936C-35.98,23.04 -35.716,23.096 -35.46,23.104C-34.852,23.12 -34.408,22.99 -34.128,22.714C-33.848,22.438 -33.708,22.084 -33.708,21.652C-33.708,21.292 -33.776,21 -33.912,20.776C-34.048,20.552 -34.23,20.372 -34.458,20.236C-34.686,20.1 -34.944,19.99 -35.232,19.906C-35.52,19.822 -35.814,19.744 -36.114,19.672C-36.414,19.6 -36.708,19.52 -36.996,19.432C-37.284,19.344 -37.542,19.224 -37.77,19.072C-37.998,18.92 -38.18,18.722 -38.316,18.478C-38.452,18.234 -38.52,17.92 -38.52,17.536C-38.52,17.168 -38.438,16.818 -38.274,16.486C-38.11,16.154 -37.876,15.862 -37.572,15.61C-37.268,15.358 -36.898,15.158 -36.462,15.01C-36.026,14.862 -35.532,14.788 -34.98,14.788C-34.452,14.788 -34,14.84 -33.624,14.944C-33.248,15.048 -32.96,15.128 -32.76,15.184C-32.72,15.12 -32.676,15.046 -32.628,14.962C-32.58,14.878 -32.526,14.8 -32.466,14.728C-32.406,14.656 -32.34,14.594 -32.268,14.542C-32.196,14.49 -32.112,14.464 -32.016,14.464C-31.944,14.464 -31.886,14.486 -31.842,14.53C-31.798,14.574 -31.776,14.616 -31.776,14.656C-31.792,14.696 -31.824,14.728 -31.872,14.752C-31.92,14.776 -31.964,14.8 -32.004,14.824C-32.252,14.952 -32.458,15.25 -32.622,15.718C-32.786,16.186 -32.88,16.76 -32.904,17.44C-32.912,17.456 -32.932,17.468 -32.964,17.476C-32.996,17.484 -33.032,17.488 -33.072,17.488C-33.136,17.488 -33.18,17.484 -33.204,17.476C-33.228,17.236 -33.3,16.992 -33.42,16.744C-33.54,16.496 -33.706,16.27 -33.918,16.066C-34.13,15.862 -34.39,15.696 -34.698,15.568C-35.006,15.44 -35.356,15.376 -35.748,15.376C-35.988,15.376 -36.204,15.41 -36.396,15.478C-36.588,15.546 -36.75,15.638 -36.882,15.754C-37.014,15.87 -37.114,16 -37.182,16.144C-37.25,16.288 -37.284,16.432 -37.284,16.576C-37.284,16.912 -37.148,17.218 -36.876,17.494C-36.604,17.77 -36.192,17.976 -35.64,18.112C-35.296,18.2 -34.938,18.298 -34.566,18.406C-34.194,18.514 -33.856,18.66 -33.552,18.844C-33.248,19.028 -32.996,19.26 -32.796,19.54C-32.596,19.82 -32.496,20.176 -32.496,20.608C-32.496,21.032 -32.594,21.438 -32.79,21.826C-32.986,22.214 -33.244,22.556 -33.564,22.852C-33.884,23.148 -34.248,23.384 -34.656,23.56C-35.064,23.736 -35.48,23.824 -35.904,23.824C-36.232,23.824 -36.552,23.802 -36.864,23.758C-37.176,23.714 -37.464,23.662 -37.728,23.602C-37.992,23.542 -38.224,23.478 -38.424,23.41C-38.624,23.342 -38.772,23.284 -38.868,23.236C-38.796,23.108 -38.722,22.972 -38.646,22.828C-38.57,22.684 -38.498,22.532 -38.43,22.372C-38.362,22.212 -38.306,22.046 -38.262,21.874C-38.218,21.702 -38.196,21.52 -38.196,21.328C-38.196,21.048 -38.238,20.836 -38.322,20.692C-38.406,20.548 -38.504,20.476 -38.616,20.476C-38.696,20.476 -38.752,20.492 -38.784,20.524C-38.816,20.556 -38.856,20.604 -38.904,20.668L-38.964,20.62Z" style="fill-rule:nonzero;"/>
            <path d="M-26.184,22.192C-26.272,22.288 -26.408,22.42 -26.592,22.588C-26.776,22.756 -26.998,22.924 -27.258,23.092C-27.518,23.26 -27.808,23.404 -28.128,23.524C-28.448,23.644 -28.788,23.704 -29.148,23.704C-29.476,23.704 -29.796,23.654 -30.108,23.554C-30.42,23.454 -30.7,23.302 -30.948,23.098C-31.196,22.894 -31.394,22.634 -31.542,22.318C-31.69,22.002 -31.764,21.624 -31.764,21.184C-31.764,20.824 -31.74,20.514 -31.692,20.254C-31.644,19.994 -31.58,19.766 -31.5,19.57C-31.42,19.374 -31.33,19.206 -31.23,19.066C-31.13,18.926 -31.028,18.8 -30.924,18.688C-30.796,18.544 -30.64,18.408 -30.456,18.28C-30.272,18.152 -30.074,18.036 -29.862,17.932C-29.65,17.828 -29.426,17.746 -29.19,17.686C-28.954,17.626 -28.716,17.596 -28.476,17.596C-28.044,17.596 -27.706,17.668 -27.462,17.812C-27.218,17.956 -27.096,18.156 -27.096,18.412C-27.096,18.572 -27.144,18.72 -27.24,18.856C-27.16,18.832 -27.058,18.792 -26.934,18.736C-26.81,18.68 -26.684,18.622 -26.556,18.562C-26.428,18.502 -26.314,18.448 -26.214,18.4C-26.114,18.352 -26.048,18.316 -26.016,18.292C-26,18.276 -25.982,18.27 -25.962,18.274C-25.942,18.278 -25.932,18.292 -25.932,18.316C-25.932,18.42 -25.952,18.506 -25.992,18.574C-26.032,18.642 -26.08,18.696 -26.136,18.736C-26.264,18.816 -26.448,18.916 -26.688,19.036C-26.928,19.156 -27.194,19.282 -27.486,19.414C-27.778,19.546 -28.08,19.678 -28.392,19.81C-28.704,19.942 -28.998,20.068 -29.274,20.188C-29.55,20.308 -29.79,20.414 -29.994,20.506C-30.198,20.598 -30.336,20.664 -30.408,20.704C-30.408,20.976 -30.354,21.23 -30.246,21.466C-30.138,21.702 -29.988,21.908 -29.796,22.084C-29.604,22.26 -29.374,22.398 -29.106,22.498C-28.838,22.598 -28.544,22.648 -28.224,22.648C-27.936,22.648 -27.676,22.618 -27.444,22.558C-27.212,22.498 -27.016,22.43 -26.856,22.354C-26.696,22.278 -26.57,22.21 -26.478,22.15C-26.386,22.09 -26.336,22.06 -26.328,22.06C-26.296,22.06 -26.264,22.074 -26.232,22.102C-26.2,22.13 -26.184,22.16 -26.184,22.192ZM-30.408,20.356C-30.272,20.308 -30.118,20.25 -29.946,20.182C-29.774,20.114 -29.606,20.04 -29.442,19.96C-29.278,19.88 -29.128,19.804 -28.992,19.732C-28.856,19.66 -28.752,19.596 -28.68,19.54C-28.536,19.436 -28.464,19.26 -28.464,19.012C-28.464,18.916 -28.482,18.816 -28.518,18.712C-28.554,18.608 -28.608,18.514 -28.68,18.43C-28.752,18.346 -28.84,18.278 -28.944,18.226C-29.048,18.174 -29.164,18.148 -29.292,18.148C-29.404,18.148 -29.524,18.186 -29.652,18.262C-29.78,18.338 -29.9,18.462 -30.012,18.634C-30.124,18.806 -30.218,19.034 -30.294,19.318C-30.37,19.602 -30.408,19.948 -30.408,20.356Z" style="fill-rule:nonzero;"/>
            <path d="M-22.128,22.372C-22.08,22.404 -22.056,22.444 -22.056,22.492C-22.056,22.556 -22.148,22.64 -22.332,22.744C-22.524,22.856 -22.778,22.988 -23.094,23.14C-23.41,23.292 -23.724,23.424 -24.036,23.536C-24.188,23.592 -24.324,23.64 -24.444,23.68C-24.564,23.72 -24.672,23.74 -24.768,23.74C-24.88,23.74 -25.018,23.714 -25.182,23.662C-25.346,23.61 -25.488,23.548 -25.608,23.476C-25.704,23.412 -25.78,23.362 -25.836,23.326C-25.892,23.29 -25.92,23.252 -25.92,23.212C-25.92,23.18 -25.91,23.15 -25.89,23.122C-25.87,23.094 -25.852,23.06 -25.836,23.02C-25.828,22.996 -25.82,22.964 -25.812,22.924C-25.804,22.884 -25.8,22.844 -25.8,22.804C-25.776,22.604 -25.75,22.314 -25.722,21.934C-25.694,21.554 -25.672,21.134 -25.656,20.674C-25.64,20.214 -25.626,19.738 -25.614,19.246C-25.602,18.754 -25.596,18.296 -25.596,17.872C-25.596,17.352 -25.598,16.932 -25.602,16.612C-25.606,16.292 -25.616,16.036 -25.632,15.844C-25.656,15.58 -25.688,15.406 -25.728,15.322C-25.768,15.238 -25.812,15.176 -25.86,15.136C-25.916,15.088 -25.97,15.058 -26.022,15.046C-26.074,15.034 -26.122,15.026 -26.166,15.022C-26.21,15.018 -26.246,15.016 -26.274,15.016C-26.302,15.016 -26.316,15.008 -26.316,14.992C-26.316,14.728 -26.204,14.596 -25.98,14.596C-25.812,14.596 -25.614,14.598 -25.386,14.602C-25.158,14.606 -24.968,14.608 -24.816,14.608C-24.72,14.608 -24.618,14.602 -24.51,14.59C-24.402,14.578 -24.296,14.566 -24.192,14.554C-24.088,14.542 -23.992,14.528 -23.904,14.512C-23.816,14.496 -23.752,14.48 -23.712,14.464C-23.68,14.456 -23.654,14.468 -23.634,14.5C-23.614,14.532 -23.602,14.572 -23.598,14.62C-23.594,14.668 -23.602,14.712 -23.622,14.752C-23.642,14.792 -23.668,14.816 -23.7,14.824C-23.748,14.832 -23.79,14.836 -23.826,14.836C-23.862,14.836 -23.924,14.852 -24.012,14.884C-24.052,14.9 -24.088,14.95 -24.12,15.034C-24.152,15.118 -24.18,15.25 -24.204,15.43C-24.228,15.61 -24.252,15.846 -24.276,16.138C-24.3,16.43 -24.324,16.796 -24.348,17.236C-24.372,17.588 -24.39,17.946 -24.402,18.31C-24.414,18.674 -24.426,19.028 -24.438,19.372C-24.45,19.716 -24.458,20.036 -24.462,20.332C-24.466,20.628 -24.468,20.88 -24.468,21.088C-24.468,21.32 -24.466,21.554 -24.462,21.79C-24.458,22.026 -24.436,22.212 -24.396,22.348C-24.356,22.476 -24.252,22.596 -24.084,22.708C-23.916,22.82 -23.74,22.876 -23.556,22.876C-23.412,22.876 -23.264,22.856 -23.112,22.816C-22.96,22.776 -22.82,22.728 -22.692,22.672C-22.564,22.616 -22.45,22.56 -22.35,22.504C-22.25,22.448 -22.176,22.404 -22.128,22.372Z" style="fill-rule:nonzero;"/>
            <path d="M-17.316,22.192C-17.404,22.288 -17.54,22.42 -17.724,22.588C-17.908,22.756 -18.13,22.924 -18.39,23.092C-18.65,23.26 -18.94,23.404 -19.26,23.524C-19.58,23.644 -19.92,23.704 -20.28,23.704C-20.608,23.704 -20.928,23.654 -21.24,23.554C-21.552,23.454 -21.832,23.302 -22.08,23.098C-22.328,22.894 -22.526,22.634 -22.674,22.318C-22.822,22.002 -22.896,21.624 -22.896,21.184C-22.896,20.824 -22.872,20.514 -22.824,20.254C-22.776,19.994 -22.712,19.766 -22.632,19.57C-22.552,19.374 -22.462,19.206 -22.362,19.066C-22.262,18.926 -22.16,18.8 -22.056,18.688C-21.928,18.544 -21.772,18.408 -21.588,18.28C-21.404,18.152 -21.206,18.036 -20.994,17.932C-20.782,17.828 -20.558,17.746 -20.322,17.686C-20.086,17.626 -19.848,17.596 -19.608,17.596C-19.176,17.596 -18.838,17.668 -18.594,17.812C-18.35,17.956 -18.228,18.156 -18.228,18.412C-18.228,18.572 -18.276,18.72 -18.372,18.856C-18.292,18.832 -18.19,18.792 -18.066,18.736C-17.942,18.68 -17.816,18.622 -17.688,18.562C-17.56,18.502 -17.446,18.448 -17.346,18.4C-17.246,18.352 -17.18,18.316 -17.148,18.292C-17.132,18.276 -17.114,18.27 -17.094,18.274C-17.074,18.278 -17.064,18.292 -17.064,18.316C-17.064,18.42 -17.084,18.506 -17.124,18.574C-17.164,18.642 -17.212,18.696 -17.268,18.736C-17.396,18.816 -17.58,18.916 -17.82,19.036C-18.06,19.156 -18.326,19.282 -18.618,19.414C-18.91,19.546 -19.212,19.678 -19.524,19.81C-19.836,19.942 -20.13,20.068 -20.406,20.188C-20.682,20.308 -20.922,20.414 -21.126,20.506C-21.33,20.598 -21.468,20.664 -21.54,20.704C-21.54,20.976 -21.486,21.23 -21.378,21.466C-21.27,21.702 -21.12,21.908 -20.928,22.084C-20.736,22.26 -20.506,22.398 -20.238,22.498C-19.97,22.598 -19.676,22.648 -19.356,22.648C-19.068,22.648 -18.808,22.618 -18.576,22.558C-18.344,22.498 -18.148,22.43 -17.988,22.354C-17.828,22.278 -17.702,22.21 -17.61,22.15C-17.518,22.09 -17.468,22.06 -17.46,22.06C-17.428,22.06 -17.396,22.074 -17.364,22.102C-17.332,22.13 -17.316,22.16 -17.316,22.192ZM-21.54,20.356C-21.404,20.308 -21.25,20.25 -21.078,20.182C-20.906,20.114 -20.738,20.04 -20.574,19.96C-20.41,19.88 -20.26,19.804 -20.124,19.732C-19.988,19.66 -19.884,19.596 -19.812,19.54C-19.668,19.436 -19.596,19.26 -19.596,19.012C-19.596,18.916 -19.614,18.816 -19.65,18.712C-19.686,18.608 -19.74,18.514 -19.812,18.43C-19.884,18.346 -19.972,18.278 -20.076,18.226C-20.18,18.174 -20.296,18.148 -20.424,18.148C-20.536,18.148 -20.656,18.186 -20.784,18.262C-20.912,18.338 -21.032,18.462 -21.144,18.634C-21.256,18.806 -21.35,19.034 -21.426,19.318C-21.502,19.602 -21.54,19.948 -21.54,20.356Z" style="fill-rule:nonzero;"/>
            <path d="M-12.36,18.148C-12.376,18.196 -12.422,18.27 -12.498,18.37C-12.574,18.47 -12.664,18.574 -12.768,18.682C-12.872,18.79 -12.982,18.894 -13.098,18.994C-13.214,19.094 -13.316,19.168 -13.404,19.216C-13.46,19.24 -13.494,19.232 -13.506,19.192C-13.518,19.152 -13.524,19.112 -13.524,19.072C-13.524,19.008 -13.558,18.928 -13.626,18.832C-13.694,18.736 -13.79,18.642 -13.914,18.55C-14.038,18.458 -14.184,18.38 -14.352,18.316C-14.52,18.252 -14.704,18.22 -14.904,18.22C-15.248,18.22 -15.528,18.406 -15.744,18.778C-15.96,19.15 -16.068,19.644 -16.068,20.26C-16.068,20.636 -16.01,20.974 -15.894,21.274C-15.778,21.574 -15.618,21.826 -15.414,22.03C-15.21,22.234 -14.964,22.39 -14.676,22.498C-14.388,22.606 -14.076,22.66 -13.74,22.66C-13.284,22.66 -12.92,22.602 -12.648,22.486C-12.376,22.37 -12.152,22.236 -11.976,22.084C-11.968,22.084 -11.962,22.08 -11.958,22.072C-11.954,22.064 -11.948,22.06 -11.94,22.06C-11.9,22.06 -11.872,22.074 -11.856,22.102C-11.84,22.13 -11.832,22.164 -11.832,22.204C-11.832,22.236 -11.84,22.26 -11.856,22.276C-11.976,22.372 -12.142,22.5 -12.354,22.66C-12.566,22.82 -12.808,22.978 -13.08,23.134C-13.352,23.29 -13.636,23.424 -13.932,23.536C-14.228,23.648 -14.52,23.704 -14.808,23.704C-15.632,23.704 -16.274,23.464 -16.734,22.984C-17.194,22.504 -17.424,21.848 -17.424,21.016C-17.424,20.384 -17.302,19.852 -17.058,19.42C-16.814,18.988 -16.514,18.642 -16.158,18.382C-15.802,18.122 -15.424,17.936 -15.024,17.824C-14.624,17.712 -14.272,17.656 -13.968,17.656C-13.72,17.656 -13.498,17.674 -13.302,17.71C-13.106,17.746 -12.938,17.79 -12.798,17.842C-12.658,17.894 -12.55,17.948 -12.474,18.004C-12.398,18.06 -12.36,18.108 -12.36,18.148Z" style="fill-rule:nonzero;"/>
            <path d="M-6.384,21.928C-6.368,21.912 -6.354,21.914 -6.342,21.934C-6.33,21.954 -6.322,21.982 -6.318,22.018C-6.314,22.054 -6.316,22.092 -6.324,22.132C-6.332,22.172 -6.348,22.204 -6.372,22.228C-6.532,22.38 -6.732,22.54 -6.972,22.708C-7.212,22.876 -7.46,23.032 -7.716,23.176C-7.788,23.216 -7.888,23.268 -8.016,23.332C-8.144,23.396 -8.286,23.458 -8.442,23.518C-8.598,23.578 -8.758,23.63 -8.922,23.674C-9.086,23.718 -9.24,23.74 -9.384,23.74C-9.672,23.74 -9.944,23.684 -10.2,23.572C-10.456,23.46 -10.68,23.306 -10.872,23.11C-11.064,22.914 -11.214,22.68 -11.322,22.408C-11.43,22.136 -11.484,21.84 -11.484,21.52C-11.484,21.176 -11.436,20.852 -11.34,20.548C-11.244,20.244 -11.134,19.972 -11.01,19.732C-10.886,19.492 -10.768,19.29 -10.656,19.126C-10.544,18.962 -10.468,18.84 -10.428,18.76C-10.58,18.752 -10.718,18.746 -10.842,18.742C-10.966,18.738 -11.084,18.736 -11.196,18.736C-11.452,18.736 -11.668,18.738 -11.844,18.742C-12.02,18.746 -12.176,18.764 -12.312,18.796C-12.376,18.812 -12.436,18.844 -12.492,18.892C-12.548,18.94 -12.596,18.976 -12.636,19C-12.652,18.984 -12.674,18.962 -12.702,18.934C-12.73,18.906 -12.744,18.876 -12.744,18.844C-12.744,18.828 -12.74,18.816 -12.732,18.808C-12.732,18.8 -12.68,18.754 -12.576,18.67C-12.472,18.586 -12.342,18.486 -12.186,18.37C-12.03,18.254 -11.858,18.126 -11.67,17.986C-11.482,17.846 -11.302,17.716 -11.13,17.596C-10.958,17.476 -10.81,17.374 -10.686,17.29C-10.562,17.206 -10.48,17.156 -10.44,17.14C-10.392,17.124 -10.344,17.132 -10.296,17.164C-10.248,17.196 -10.232,17.22 -10.248,17.236C-10.272,17.252 -10.308,17.282 -10.356,17.326C-10.404,17.37 -10.42,17.408 -10.404,17.44C-10.316,17.512 -10.164,17.576 -9.948,17.632C-9.732,17.688 -9.488,17.734 -9.216,17.77C-8.944,17.806 -8.664,17.834 -8.376,17.854C-8.088,17.874 -7.828,17.884 -7.596,17.884C-7.252,17.884 -6.976,17.874 -6.768,17.854C-6.56,17.834 -6.388,17.808 -6.252,17.776C-6.124,17.744 -6.04,17.72 -6,17.704C-5.992,17.704 -5.976,17.716 -5.952,17.74C-5.928,17.764 -5.916,17.792 -5.916,17.824C-5.916,17.84 -5.974,17.88 -6.09,17.944C-6.206,18.008 -6.324,18.076 -6.444,18.148C-6.516,18.188 -6.602,18.24 -6.702,18.304C-6.802,18.368 -6.91,18.43 -7.026,18.49C-7.142,18.55 -7.264,18.604 -7.392,18.652C-7.52,18.7 -7.644,18.728 -7.764,18.736C-7.884,18.752 -8.024,18.764 -8.184,18.772C-8.344,18.78 -8.512,18.786 -8.688,18.79C-8.864,18.794 -9.042,18.798 -9.222,18.802C-9.402,18.806 -9.568,18.808 -9.72,18.808C-9.744,18.848 -9.782,18.914 -9.834,19.006C-9.886,19.098 -9.936,19.216 -9.984,19.36C-10.032,19.504 -10.076,19.668 -10.116,19.852C-10.156,20.036 -10.176,20.236 -10.176,20.452C-10.176,20.78 -10.126,21.082 -10.026,21.358C-9.926,21.634 -9.786,21.872 -9.606,22.072C-9.426,22.272 -9.212,22.428 -8.964,22.54C-8.716,22.652 -8.448,22.708 -8.16,22.708C-7.992,22.708 -7.83,22.688 -7.674,22.648C-7.518,22.608 -7.37,22.556 -7.23,22.492C-7.09,22.428 -6.96,22.358 -6.84,22.282C-6.72,22.206 -6.616,22.132 -6.528,22.06L-6.384,21.928Z" style="fill-rule:nonzero;"/>
        </g>
        <g transform="matrix(1,0,0,1,47.6875,-4.53575)">
            <text x="-39.144px" y="23.596px" style="font-family:'Luminari-Regular', 'Luminari';font-size:12px;">Select</text>
        </g>
    </g>
</svg>
