<?xml version="1.0" encoding="UTF-8" standalone="no"?>
<!DOCTYPE svg PUBLIC "-//W3C//DTD SVG 1.1//EN" "http://www.w3.org/Graphics/SVG/1.1/DTD/svg11.dtd">
<svg width="100%" height="100%" viewBox="0 0 240 370" version="1.1" xmlns="http://www.w3.org/2000/svg" xmlns:xlink="http://www.w3.org/1999/xlink" xml:space="preserve" xmlns:serif="http://www.serif.com/" style="fill-rule:evenodd;clip-rule:evenodd;stroke-linecap:round;stroke-linejoin:round;stroke-miterlimit:1.5;">
    <g transform="matrix(1,0,0,1,0,-5)">
        <g transform="matrix(1.15336,0,0,1.96284,-60.6163,-112.618)">
            <rect x="52.556" y="59.922" width="208.087" height="188.503" style="fill:rgb(102,126,153);"/>
        </g>
        <g transform="matrix(1,0,0,1,118.656,199.996)">
            <g transform="matrix(2.91857,0,0,2.91857,-148.538,-153.931)">
                <circle cx="77.421" cy="80.232" r="19.592" style="fill:none;stroke:rgb(230,230,230);stroke-width:0.34px;"/>
            </g>
            <g transform="matrix(2.1373,0,0,2.1373,-88.0512,-91.248)">
                <circle cx="77.421" cy="80.232" r="19.592" style="fill:none;stroke:rgb(218,218,218);stroke-width:0.47px;"/>
            </g>
            <g transform="matrix(1.45026,0,0,1.45026,-34.8599,-36.1255)">
                <circle cx="77.421" cy="80.232" r="19.592" style="fill:none;stroke:rgb(205,205,205);stroke-width:0.69px;"/>
            </g>
            <circle cx="77.421" cy="80.232" r="19.592" style="fill:none;stroke:rgb(193,193,193);stroke-width:1px;"/>
        </g>
        <g transform="matrix(1,0,0,1,4.29717,-3.07184)">
            <g transform="matrix(2.91857,0,0,2.91857,-148.538,-153.931)">
                <circle cx="77.421" cy="80.232" r="19.592" style="fill:none;stroke:rgb(230,230,230);stroke-width:0.34px;"/>
            </g>
            <g transform="matrix(2.1373,0,0,2.1373,-88.0512,-91.248)">
                <circle cx="77.421" cy="80.232" r="19.592" style="fill:none;stroke:rgb(218,218,218);stroke-width:0.47px;"/>
            </g>
            <g transform="matrix(1.45026,0,0,1.45026,-34.8599,-36.1255)">
                <circle cx="77.421" cy="80.232" r="19.592" style="fill:none;stroke:rgb(205,205,205);stroke-width:0.69px;"/>
            </g>
            <circle cx="77.421" cy="80.232" r="19.592" style="fill:none;stroke:rgb(193,193,193);stroke-width:1px;"/>
        </g>
        <g transform="matrix(1,0,0,1,-33.4989,137.108)">
            <g transform="matrix(2.91857,0,0,2.91857,-148.538,-153.931)">
                <circle cx="77.421" cy="80.232" r="19.592" style="fill:none;stroke:rgb(230,230,230);stroke-width:0.34px;"/>
            </g>
            <g transform="matrix(2.1373,0,0,2.1373,-88.0512,-91.248)">
                <circle cx="77.421" cy="80.232" r="19.592" style="fill:none;stroke:rgb(218,218,218);stroke-width:0.47px;"/>
            </g>
            <g transform="matrix(1.45026,0,0,1.45026,-34.8599,-36.1255)">
                <circle cx="77.421" cy="80.232" r="19.592" style="fill:none;stroke:rgb(205,205,205);stroke-width:0.69px;"/>
            </g>
            <circle cx="77.421" cy="80.232" r="19.592" style="fill:none;stroke:rgb(193,193,193);stroke-width:1px;"/>
        </g>
        <g transform="matrix(1,0,0,1,33.9224,234.949)">
            <g transform="matrix(2.91857,0,0,2.91857,-148.538,-153.931)">
                <circle cx="77.421" cy="80.232" r="19.592" style="fill:none;stroke:rgb(230,230,230);stroke-width:0.34px;"/>
            </g>
            <g transform="matrix(2.1373,0,0,2.1373,-88.0512,-91.248)">
                <circle cx="77.421" cy="80.232" r="19.592" style="fill:none;stroke:rgb(218,218,218);stroke-width:0.47px;"/>
            </g>
            <g transform="matrix(1.45026,0,0,1.45026,-34.8599,-36.1255)">
                <circle cx="77.421" cy="80.232" r="19.592" style="fill:none;stroke:rgb(205,205,205);stroke-width:0.69px;"/>
            </g>
            <circle cx="77.421" cy="80.232" r="19.592" style="fill:none;stroke:rgb(193,193,193);stroke-width:1px;"/>
        </g>
        <g transform="matrix(1,0,0,1,72.746,120.589)">
            <g transform="matrix(2.91857,0,0,2.91857,-148.538,-153.931)">
                <circle cx="77.421" cy="80.232" r="19.592" style="fill:none;stroke:rgb(230,230,230);stroke-width:0.34px;"/>
            </g>
            <g transform="matrix(2.1373,0,0,2.1373,-88.0512,-91.248)">
                <circle cx="77.421" cy="80.232" r="19.592" style="fill:none;stroke:rgb(218,218,218);stroke-width:0.47px;"/>
            </g>
            <g transform="matrix(1.45026,0,0,1.45026,-34.8599,-36.1255)">
                <circle cx="77.421" cy="80.232" r="19.592" style="fill:none;stroke:rgb(205,205,205);stroke-width:0.69px;"/>
            </g>
            <circle cx="77.421" cy="80.232" r="19.592" style="fill:none;stroke:rgb(193,193,193);stroke-width:1px;"/>
        </g>
        <g transform="matrix(1,0,0,1,113.158,18.3473)">
            <g transform="matrix(2.91857,0,0,2.91857,-148.538,-153.931)">
                <circle cx="77.421" cy="80.232" r="19.592" style="fill:none;stroke:rgb(230,230,230);stroke-width:0.34px;"/>
            </g>
            <g transform="matrix(2.1373,0,0,2.1373,-88.0512,-91.248)">
                <circle cx="77.421" cy="80.232" r="19.592" style="fill:none;stroke:rgb(218,218,218);stroke-width:0.47px;"/>
            </g>
            <g transform="matrix(1.45026,0,0,1.45026,-34.8599,-36.1255)">
                <circle cx="77.421" cy="80.232" r="19.592" style="fill:none;stroke:rgb(205,205,205);stroke-width:0.69px;"/>
            </g>
            <circle cx="77.421" cy="80.232" r="19.592" style="fill:none;stroke:rgb(193,193,193);stroke-width:1px;"/>
        </g>
    </g>
    <g transform="matrix(1,0,0,1,85.0165,-10.1933)">
        <g id="Upload-input" serif:id="Upload#input" transform="matrix(0.175002,0,0,0.175002,51.0093,323.136)">
            <rect x="53.94" y="106.916" width="161.978" height="161.978" style="fill:rgb(204,204,204);"/>
        </g>
        <g transform="matrix(1,0,0,1,-25.0407,217.754)">
            <path d="M92.668,113.236L92.668,118.306L91.648,118.306L91.648,117.816L91.628,117.816C91.521,117.976 91.393,118.108 91.243,118.211C91.093,118.315 90.901,118.366 90.668,118.366C90.541,118.366 90.415,118.345 90.288,118.301C90.161,118.258 90.048,118.186 89.948,118.086C89.848,117.986 89.768,117.858 89.708,117.701C89.648,117.545 89.618,117.353 89.618,117.126L89.618,113.236L90.638,113.236L90.638,116.746C90.638,116.933 90.681,117.08 90.768,117.186C90.855,117.293 90.978,117.346 91.138,117.346C91.331,117.346 91.465,117.286 91.538,117.166C91.611,117.046 91.648,116.873 91.648,116.646L91.648,113.236L92.668,113.236Z" style="fill-rule:nonzero;"/>
            <path d="M93.508,120.356L93.508,113.236L94.528,113.236L94.528,113.696C94.655,113.55 94.785,113.426 94.918,113.326C95.051,113.226 95.245,113.176 95.498,113.176C95.918,113.176 96.215,113.336 96.388,113.656C96.448,113.77 96.491,113.91 96.518,114.076C96.545,114.243 96.558,114.466 96.558,114.746L96.558,116.676C96.558,117.05 96.548,117.32 96.528,117.486C96.488,117.82 96.335,118.07 96.068,118.236C95.935,118.323 95.741,118.366 95.488,118.366C95.288,118.366 95.11,118.321 94.953,118.231C94.796,118.141 94.661,118.013 94.548,117.846L94.528,117.846L94.528,120.356L93.508,120.356ZM95.538,114.886C95.538,114.68 95.498,114.513 95.418,114.386C95.338,114.26 95.211,114.196 95.038,114.196C94.885,114.196 94.761,114.255 94.668,114.371C94.575,114.488 94.528,114.64 94.528,114.826L94.528,116.796C94.528,116.956 94.576,117.088 94.673,117.191C94.77,117.295 94.891,117.346 95.038,117.346C95.231,117.346 95.363,117.286 95.433,117.166C95.503,117.046 95.538,116.906 95.538,116.746L95.538,114.886Z" style="fill-rule:nonzero;"/>
            <path d="M97.338,111.186L98.358,111.186L98.358,116.876C98.358,117.07 98.393,117.201 98.463,117.271C98.533,117.341 98.665,117.386 98.858,117.406L98.858,118.366C98.625,118.366 98.415,118.348 98.228,118.311C98.041,118.275 97.881,118.203 97.748,118.096C97.615,117.996 97.513,117.855 97.443,117.671C97.373,117.488 97.338,117.246 97.338,116.946L97.338,111.186Z" style="fill-rule:nonzero;"/>
            <path d="M99.168,114.936C99.168,114.73 99.181,114.54 99.208,114.366C99.235,114.193 99.285,114.04 99.358,113.906C99.478,113.686 99.65,113.51 99.873,113.376C100.096,113.243 100.368,113.176 100.688,113.176C101.008,113.176 101.28,113.243 101.503,113.376C101.726,113.51 101.898,113.686 102.018,113.906C102.091,114.04 102.141,114.193 102.168,114.366C102.195,114.54 102.208,114.73 102.208,114.936L102.208,116.606C102.208,116.813 102.195,117.003 102.168,117.176C102.141,117.35 102.091,117.503 102.018,117.636C101.898,117.856 101.726,118.033 101.503,118.166C101.28,118.3 101.008,118.366 100.688,118.366C100.368,118.366 100.096,118.3 99.873,118.166C99.65,118.033 99.478,117.856 99.358,117.636C99.285,117.503 99.235,117.35 99.208,117.176C99.181,117.003 99.168,116.813 99.168,116.606L99.168,114.936ZM100.188,116.766C100.188,116.96 100.233,117.105 100.323,117.201C100.413,117.298 100.535,117.346 100.688,117.346C100.841,117.346 100.963,117.298 101.053,117.201C101.143,117.105 101.188,116.96 101.188,116.766L101.188,114.776C101.188,114.583 101.143,114.438 101.053,114.341C100.963,114.245 100.841,114.196 100.688,114.196C100.535,114.196 100.413,114.245 100.323,114.341C100.233,114.438 100.188,114.583 100.188,114.776L100.188,116.766Z" style="fill-rule:nonzero;"/>
            <path d="M104.888,118.306L104.888,117.786L104.868,117.786C104.735,117.973 104.6,118.116 104.463,118.216C104.326,118.316 104.135,118.366 103.888,118.366C103.768,118.366 103.646,118.348 103.523,118.311C103.4,118.275 103.281,118.206 103.168,118.106C103.055,118.013 102.963,117.878 102.893,117.701C102.823,117.525 102.788,117.296 102.788,117.016C102.788,116.73 102.811,116.478 102.858,116.261C102.905,116.045 102.991,115.863 103.118,115.716C103.238,115.576 103.401,115.471 103.608,115.401C103.815,115.331 104.078,115.296 104.398,115.296L104.508,115.296C104.548,115.296 104.585,115.3 104.618,115.306C104.651,115.313 104.691,115.316 104.738,115.316C104.785,115.316 104.835,115.32 104.888,115.326L104.888,114.796C104.888,114.623 104.851,114.48 104.778,114.366C104.705,114.253 104.571,114.196 104.378,114.196C104.245,114.196 104.123,114.24 104.013,114.326C103.903,114.413 103.831,114.54 103.798,114.706L102.808,114.706C102.835,114.253 102.988,113.886 103.268,113.606C103.401,113.473 103.561,113.368 103.748,113.291C103.935,113.215 104.145,113.176 104.378,113.176C104.591,113.176 104.791,113.21 104.978,113.276C105.165,113.343 105.328,113.443 105.468,113.576C105.601,113.71 105.708,113.876 105.788,114.076C105.868,114.276 105.908,114.51 105.908,114.776L105.908,118.306L104.888,118.306ZM104.888,116.126C104.775,116.106 104.681,116.096 104.608,116.096C104.388,116.096 104.2,116.148 104.043,116.251C103.886,116.355 103.808,116.543 103.808,116.816C103.808,117.01 103.855,117.166 103.948,117.286C104.041,117.406 104.171,117.466 104.338,117.466C104.511,117.466 104.646,117.41 104.743,117.296C104.84,117.183 104.888,117.023 104.888,116.816L104.888,116.126Z" style="fill-rule:nonzero;"/>
            <path d="M107.678,116.656C107.678,116.863 107.718,117.03 107.798,117.156C107.878,117.283 108.005,117.346 108.178,117.346C108.331,117.346 108.455,117.288 108.548,117.171C108.641,117.055 108.688,116.903 108.688,116.716L108.688,114.746C108.688,114.586 108.64,114.455 108.543,114.351C108.446,114.248 108.325,114.196 108.178,114.196C107.985,114.196 107.853,114.256 107.783,114.376C107.713,114.496 107.678,114.636 107.678,114.796L107.678,116.656ZM108.688,118.306L108.688,117.846C108.621,117.92 108.558,117.988 108.498,118.051C108.438,118.115 108.371,118.17 108.298,118.216C108.225,118.263 108.141,118.3 108.048,118.326C107.955,118.353 107.845,118.366 107.718,118.366C107.291,118.366 106.995,118.206 106.828,117.886C106.768,117.773 106.725,117.633 106.698,117.466C106.671,117.3 106.658,117.076 106.658,116.796L106.658,114.866C106.658,114.5 106.668,114.23 106.688,114.056C106.728,113.723 106.885,113.473 107.158,113.306C107.285,113.22 107.475,113.176 107.728,113.176C107.928,113.176 108.106,113.221 108.263,113.311C108.42,113.401 108.555,113.53 108.668,113.696L108.688,113.696L108.688,111.186L109.708,111.186L109.708,118.306L108.688,118.306Z" style="fill-rule:nonzero;"/>
        </g>
        <g transform="matrix(1,0,0,1,-25.0407,217.754)">
            <text x="89.198px" y="118.306px" style="font-family:'DINCondensed-Bold', 'DIN Condensed';font-weight:700;font-stretch:condensed;font-size:10px;">upload</text>
        </g>
    </g>
    <g transform="matrix(1,0,0,1,41.6765,-10.1933)">
        <g id="Pass-input" serif:id="Pass#input" transform="matrix(0.175002,0,0,0.175002,51.0093,323.136)">
            <rect x="53.94" y="106.916" width="161.978" height="161.978" style="fill:rgb(204,204,204);"/>
        </g>
        <g transform="matrix(1,0,0,1,-22.6707,217.823)">
            <path d="M89.618,120.356L89.618,113.236L90.638,113.236L90.638,113.696C90.765,113.55 90.895,113.426 91.028,113.326C91.161,113.226 91.355,113.176 91.608,113.176C92.028,113.176 92.325,113.336 92.498,113.656C92.558,113.77 92.601,113.91 92.628,114.076C92.655,114.243 92.668,114.466 92.668,114.746L92.668,116.676C92.668,117.05 92.658,117.32 92.638,117.486C92.598,117.82 92.445,118.07 92.178,118.236C92.045,118.323 91.851,118.366 91.598,118.366C91.398,118.366 91.22,118.321 91.063,118.231C90.906,118.141 90.771,118.013 90.658,117.846L90.638,117.846L90.638,120.356L89.618,120.356ZM91.648,114.886C91.648,114.68 91.608,114.513 91.528,114.386C91.448,114.26 91.321,114.196 91.148,114.196C90.995,114.196 90.871,114.255 90.778,114.371C90.685,114.488 90.638,114.64 90.638,114.826L90.638,116.796C90.638,116.956 90.686,117.088 90.783,117.191C90.88,117.295 91.001,117.346 91.148,117.346C91.341,117.346 91.473,117.286 91.543,117.166C91.613,117.046 91.648,116.906 91.648,116.746L91.648,114.886Z" style="fill-rule:nonzero;"/>
            <path d="M95.438,118.306L95.438,117.786L95.418,117.786C95.285,117.973 95.15,118.116 95.013,118.216C94.876,118.316 94.685,118.366 94.438,118.366C94.318,118.366 94.196,118.348 94.073,118.311C93.95,118.275 93.831,118.206 93.718,118.106C93.605,118.013 93.513,117.878 93.443,117.701C93.373,117.525 93.338,117.296 93.338,117.016C93.338,116.73 93.361,116.478 93.408,116.261C93.455,116.045 93.541,115.863 93.668,115.716C93.788,115.576 93.951,115.471 94.158,115.401C94.365,115.331 94.628,115.296 94.948,115.296L95.058,115.296C95.098,115.296 95.135,115.3 95.168,115.306C95.201,115.313 95.241,115.316 95.288,115.316C95.335,115.316 95.385,115.32 95.438,115.326L95.438,114.796C95.438,114.623 95.401,114.48 95.328,114.366C95.255,114.253 95.121,114.196 94.928,114.196C94.795,114.196 94.673,114.24 94.563,114.326C94.453,114.413 94.381,114.54 94.348,114.706L93.358,114.706C93.385,114.253 93.538,113.886 93.818,113.606C93.951,113.473 94.111,113.368 94.298,113.291C94.485,113.215 94.695,113.176 94.928,113.176C95.141,113.176 95.341,113.21 95.528,113.276C95.715,113.343 95.878,113.443 96.018,113.576C96.151,113.71 96.258,113.876 96.338,114.076C96.418,114.276 96.458,114.51 96.458,114.776L96.458,118.306L95.438,118.306ZM95.438,116.126C95.325,116.106 95.231,116.096 95.158,116.096C94.938,116.096 94.75,116.148 94.593,116.251C94.436,116.355 94.358,116.543 94.358,116.816C94.358,117.01 94.405,117.166 94.498,117.286C94.591,117.406 94.721,117.466 94.888,117.466C95.061,117.466 95.196,117.41 95.293,117.296C95.39,117.183 95.438,117.023 95.438,116.816L95.438,116.126Z" style="fill-rule:nonzero;"/>
            <path d="M99.058,114.656C99.051,114.483 98.996,114.353 98.893,114.266C98.79,114.18 98.671,114.136 98.538,114.136C98.378,114.136 98.255,114.188 98.168,114.291C98.081,114.395 98.038,114.513 98.038,114.646C98.038,114.74 98.061,114.831 98.108,114.921C98.155,115.011 98.275,115.093 98.468,115.166L99.068,115.406C99.448,115.553 99.71,115.753 99.853,116.006C99.996,116.26 100.068,116.536 100.068,116.836C100.068,117.05 100.03,117.248 99.953,117.431C99.876,117.615 99.771,117.776 99.638,117.916C99.505,118.056 99.345,118.166 99.158,118.246C98.971,118.326 98.768,118.366 98.548,118.366C98.135,118.366 97.788,118.236 97.508,117.976C97.368,117.85 97.255,117.691 97.168,117.501C97.081,117.311 97.035,117.09 97.028,116.836L97.988,116.836C98.008,116.976 98.056,117.106 98.133,117.226C98.21,117.346 98.345,117.406 98.538,117.406C98.685,117.406 98.816,117.358 98.933,117.261C99.05,117.165 99.108,117.03 99.108,116.856C99.108,116.716 99.071,116.596 98.998,116.496C98.925,116.396 98.791,116.31 98.598,116.236L98.108,116.056C97.788,115.936 97.536,115.758 97.353,115.521C97.17,115.285 97.078,114.996 97.078,114.656C97.078,114.443 97.118,114.245 97.198,114.061C97.278,113.878 97.388,113.72 97.528,113.586C97.661,113.453 97.818,113.351 97.998,113.281C98.178,113.211 98.371,113.176 98.578,113.176C98.785,113.176 98.976,113.213 99.153,113.286C99.33,113.36 99.481,113.463 99.608,113.596C99.735,113.73 99.835,113.888 99.908,114.071C99.981,114.255 100.018,114.45 100.018,114.656L99.058,114.656Z" style="fill-rule:nonzero;"/>
            <path d="M102.578,114.656C102.571,114.483 102.516,114.353 102.413,114.266C102.31,114.18 102.191,114.136 102.058,114.136C101.898,114.136 101.775,114.188 101.688,114.291C101.601,114.395 101.558,114.513 101.558,114.646C101.558,114.74 101.581,114.831 101.628,114.921C101.675,115.011 101.795,115.093 101.988,115.166L102.588,115.406C102.968,115.553 103.23,115.753 103.373,116.006C103.516,116.26 103.588,116.536 103.588,116.836C103.588,117.05 103.55,117.248 103.473,117.431C103.396,117.615 103.291,117.776 103.158,117.916C103.025,118.056 102.865,118.166 102.678,118.246C102.491,118.326 102.288,118.366 102.068,118.366C101.655,118.366 101.308,118.236 101.028,117.976C100.888,117.85 100.775,117.691 100.688,117.501C100.601,117.311 100.555,117.09 100.548,116.836L101.508,116.836C101.528,116.976 101.576,117.106 101.653,117.226C101.73,117.346 101.865,117.406 102.058,117.406C102.205,117.406 102.336,117.358 102.453,117.261C102.57,117.165 102.628,117.03 102.628,116.856C102.628,116.716 102.591,116.596 102.518,116.496C102.445,116.396 102.311,116.31 102.118,116.236L101.628,116.056C101.308,115.936 101.056,115.758 100.873,115.521C100.69,115.285 100.598,114.996 100.598,114.656C100.598,114.443 100.638,114.245 100.718,114.061C100.798,113.878 100.908,113.72 101.048,113.586C101.181,113.453 101.338,113.351 101.518,113.281C101.698,113.211 101.891,113.176 102.098,113.176C102.305,113.176 102.496,113.213 102.673,113.286C102.85,113.36 103.001,113.463 103.128,113.596C103.255,113.73 103.355,113.888 103.428,114.071C103.501,114.255 103.538,114.45 103.538,114.656L102.578,114.656Z" style="fill-rule:nonzero;"/>
        </g>
        <g transform="matrix(1,0,0,1,-22.6707,217.823)">
            <text x="89.198px" y="118.306px" style="font-family:'DINCondensed-Bold', 'DIN Condensed';font-weight:700;font-stretch:condensed;font-size:10px;">pass</text>
        </g>
    </g>
    <g transform="matrix(1,0,0,1,-111.224,-38.0745)">
        <g transform="matrix(1,0,0,1,102.239,-43.3726)">
            <g id="Reset-input" serif:id="Reset#input" transform="matrix(0.175002,0,0,0.175002,51.0093,323.136)">
                <rect x="53.94" y="106.916" width="161.978" height="161.978" style="fill:rgb(204,204,204);"/>
            </g>
            <g transform="matrix(1,0,0,1,-22.6707,217.823)">
                <path d="M89.618,118.306L89.618,113.236L90.638,113.236L90.638,113.776C90.845,113.59 91.048,113.443 91.248,113.336C91.448,113.23 91.695,113.176 91.988,113.176L91.988,114.256C91.888,114.216 91.785,114.196 91.678,114.196C91.571,114.196 91.456,114.215 91.333,114.251C91.21,114.288 91.098,114.35 90.998,114.436C90.891,114.523 90.805,114.636 90.738,114.776C90.671,114.916 90.638,115.09 90.638,115.296L90.638,118.306L89.618,118.306Z" style="fill-rule:nonzero;"/>
                <path d="M95.348,116.156L93.328,116.156L93.328,116.846C93.328,117.006 93.373,117.13 93.463,117.216C93.553,117.303 93.675,117.346 93.828,117.346C94.021,117.346 94.15,117.29 94.213,117.176C94.276,117.063 94.315,116.95 94.328,116.836L95.348,116.836C95.348,117.283 95.211,117.643 94.938,117.916C94.805,118.056 94.645,118.166 94.458,118.246C94.271,118.326 94.061,118.366 93.828,118.366C93.508,118.366 93.236,118.3 93.013,118.166C92.79,118.033 92.618,117.856 92.498,117.636C92.425,117.503 92.375,117.35 92.348,117.176C92.321,117.003 92.308,116.813 92.308,116.606L92.308,114.936C92.308,114.73 92.321,114.54 92.348,114.366C92.375,114.193 92.425,114.04 92.498,113.906C92.618,113.686 92.79,113.51 93.013,113.376C93.236,113.243 93.508,113.176 93.828,113.176C94.061,113.176 94.273,113.216 94.463,113.296C94.653,113.376 94.815,113.486 94.948,113.626C95.215,113.926 95.348,114.303 95.348,114.756L95.348,116.156ZM93.328,115.356L94.328,115.356L94.328,114.776C94.328,114.583 94.283,114.438 94.193,114.341C94.103,114.245 93.981,114.196 93.828,114.196C93.675,114.196 93.553,114.245 93.463,114.341C93.373,114.438 93.328,114.583 93.328,114.776L93.328,115.356Z" style="fill-rule:nonzero;"/>
                <path d="M97.948,114.656C97.941,114.483 97.886,114.353 97.783,114.266C97.68,114.18 97.561,114.136 97.428,114.136C97.268,114.136 97.145,114.188 97.058,114.291C96.971,114.395 96.928,114.513 96.928,114.646C96.928,114.74 96.951,114.831 96.998,114.921C97.045,115.011 97.165,115.093 97.358,115.166L97.958,115.406C98.338,115.553 98.6,115.753 98.743,116.006C98.886,116.26 98.958,116.536 98.958,116.836C98.958,117.05 98.92,117.248 98.843,117.431C98.766,117.615 98.661,117.776 98.528,117.916C98.395,118.056 98.235,118.166 98.048,118.246C97.861,118.326 97.658,118.366 97.438,118.366C97.025,118.366 96.678,118.236 96.398,117.976C96.258,117.85 96.145,117.691 96.058,117.501C95.971,117.311 95.925,117.09 95.918,116.836L96.878,116.836C96.898,116.976 96.946,117.106 97.023,117.226C97.1,117.346 97.235,117.406 97.428,117.406C97.575,117.406 97.706,117.358 97.823,117.261C97.94,117.165 97.998,117.03 97.998,116.856C97.998,116.716 97.961,116.596 97.888,116.496C97.815,116.396 97.681,116.31 97.488,116.236L96.998,116.056C96.678,115.936 96.426,115.758 96.243,115.521C96.06,115.285 95.968,114.996 95.968,114.656C95.968,114.443 96.008,114.245 96.088,114.061C96.168,113.878 96.278,113.72 96.418,113.586C96.551,113.453 96.708,113.351 96.888,113.281C97.068,113.211 97.261,113.176 97.468,113.176C97.675,113.176 97.866,113.213 98.043,113.286C98.22,113.36 98.371,113.463 98.498,113.596C98.625,113.73 98.725,113.888 98.798,114.071C98.871,114.255 98.908,114.45 98.908,114.656L97.948,114.656Z" style="fill-rule:nonzero;"/>
                <path d="M102.568,116.156L100.548,116.156L100.548,116.846C100.548,117.006 100.593,117.13 100.683,117.216C100.773,117.303 100.895,117.346 101.048,117.346C101.241,117.346 101.37,117.29 101.433,117.176C101.496,117.063 101.535,116.95 101.548,116.836L102.568,116.836C102.568,117.283 102.431,117.643 102.158,117.916C102.025,118.056 101.865,118.166 101.678,118.246C101.491,118.326 101.281,118.366 101.048,118.366C100.728,118.366 100.456,118.3 100.233,118.166C100.01,118.033 99.838,117.856 99.718,117.636C99.645,117.503 99.595,117.35 99.568,117.176C99.541,117.003 99.528,116.813 99.528,116.606L99.528,114.936C99.528,114.73 99.541,114.54 99.568,114.366C99.595,114.193 99.645,114.04 99.718,113.906C99.838,113.686 100.01,113.51 100.233,113.376C100.456,113.243 100.728,113.176 101.048,113.176C101.281,113.176 101.493,113.216 101.683,113.296C101.873,113.376 102.035,113.486 102.168,113.626C102.435,113.926 102.568,114.303 102.568,114.756L102.568,116.156ZM100.548,115.356L101.548,115.356L101.548,114.776C101.548,114.583 101.503,114.438 101.413,114.341C101.323,114.245 101.201,114.196 101.048,114.196C100.895,114.196 100.773,114.245 100.683,114.341C100.593,114.438 100.548,114.583 100.548,114.776L100.548,115.356Z" style="fill-rule:nonzero;"/>
                <path d="M103.318,113.236L103.318,111.696L104.338,111.696L104.338,113.236L104.968,113.236L104.968,114.036L104.338,114.036L104.338,116.846C104.338,116.966 104.35,117.06 104.373,117.126C104.396,117.193 104.435,117.243 104.488,117.276C104.541,117.31 104.606,117.33 104.683,117.336C104.76,117.343 104.855,117.346 104.968,117.346L104.968,118.306L104.548,118.306C104.315,118.306 104.12,118.27 103.963,118.196C103.806,118.123 103.681,118.03 103.588,117.916C103.495,117.803 103.426,117.675 103.383,117.531C103.34,117.388 103.318,117.25 103.318,117.116L103.318,114.036L102.808,114.036L102.808,113.236L103.318,113.236Z" style="fill-rule:nonzero;"/>
            </g>
            <g transform="matrix(1,0,0,1,-22.6707,217.823)">
                <text x="89.198px" y="118.306px" style="font-family:'DINCondensed-Bold', 'DIN Condensed';font-weight:700;font-stretch:condensed;font-size:10px;">reset</text>
            </g>
        </g>
        <g transform="matrix(1,0,0,1,6.45208,28.2452)">
            <g id="Clock-input" serif:id="Clock#input" transform="matrix(0.175002,0,0,0.175002,112.598,251.167)">
                <rect x="53.94" y="106.916" width="161.978" height="161.978" style="fill:rgb(204,204,204);"/>
            </g>
            <g transform="matrix(1,0,0,1,38.4329,145.854)">
                <path d="M90.698,116.846C90.698,117.006 90.743,117.13 90.833,117.216C90.923,117.303 91.045,117.346 91.198,117.346C91.391,117.346 91.52,117.29 91.583,117.176C91.646,117.063 91.685,116.95 91.698,116.836L92.718,116.836C92.718,117.283 92.581,117.643 92.308,117.916C92.175,118.056 92.015,118.166 91.828,118.246C91.641,118.326 91.431,118.366 91.198,118.366C90.878,118.366 90.606,118.3 90.383,118.166C90.16,118.033 89.988,117.856 89.868,117.636C89.795,117.503 89.745,117.35 89.718,117.176C89.691,117.003 89.678,116.813 89.678,116.606L89.678,114.936C89.678,114.73 89.691,114.54 89.718,114.366C89.745,114.193 89.795,114.04 89.868,113.906C89.988,113.686 90.16,113.51 90.383,113.376C90.606,113.243 90.878,113.176 91.198,113.176C91.431,113.176 91.643,113.216 91.833,113.296C92.023,113.376 92.185,113.486 92.318,113.626C92.585,113.926 92.718,114.316 92.718,114.796L91.698,114.796C91.698,114.59 91.653,114.438 91.563,114.341C91.473,114.245 91.351,114.196 91.198,114.196C91.045,114.196 90.923,114.245 90.833,114.341C90.743,114.438 90.698,114.583 90.698,114.776L90.698,116.846Z" style="fill-rule:nonzero;"/>
                <path d="M93.138,111.186L94.158,111.186L94.158,116.876C94.158,117.07 94.193,117.201 94.263,117.271C94.333,117.341 94.465,117.386 94.658,117.406L94.658,118.366C94.425,118.366 94.215,118.348 94.028,118.311C93.841,118.275 93.681,118.203 93.548,118.096C93.415,117.996 93.313,117.855 93.243,117.671C93.173,117.488 93.138,117.246 93.138,116.946L93.138,111.186Z" style="fill-rule:nonzero;"/>
                <path d="M94.968,114.936C94.968,114.73 94.981,114.54 95.008,114.366C95.035,114.193 95.085,114.04 95.158,113.906C95.278,113.686 95.45,113.51 95.673,113.376C95.896,113.243 96.168,113.176 96.488,113.176C96.808,113.176 97.08,113.243 97.303,113.376C97.526,113.51 97.698,113.686 97.818,113.906C97.891,114.04 97.941,114.193 97.968,114.366C97.995,114.54 98.008,114.73 98.008,114.936L98.008,116.606C98.008,116.813 97.995,117.003 97.968,117.176C97.941,117.35 97.891,117.503 97.818,117.636C97.698,117.856 97.526,118.033 97.303,118.166C97.08,118.3 96.808,118.366 96.488,118.366C96.168,118.366 95.896,118.3 95.673,118.166C95.45,118.033 95.278,117.856 95.158,117.636C95.085,117.503 95.035,117.35 95.008,117.176C94.981,117.003 94.968,116.813 94.968,116.606L94.968,114.936ZM95.988,116.766C95.988,116.96 96.033,117.105 96.123,117.201C96.213,117.298 96.335,117.346 96.488,117.346C96.641,117.346 96.763,117.298 96.853,117.201C96.943,117.105 96.988,116.96 96.988,116.766L96.988,114.776C96.988,114.583 96.943,114.438 96.853,114.341C96.763,114.245 96.641,114.196 96.488,114.196C96.335,114.196 96.213,114.245 96.123,114.341C96.033,114.438 95.988,114.583 95.988,114.776L95.988,116.766Z" style="fill-rule:nonzero;"/>
                <path d="M99.838,116.846C99.838,117.006 99.883,117.13 99.973,117.216C100.063,117.303 100.185,117.346 100.338,117.346C100.531,117.346 100.66,117.29 100.723,117.176C100.786,117.063 100.825,116.95 100.838,116.836L101.858,116.836C101.858,117.283 101.721,117.643 101.448,117.916C101.315,118.056 101.155,118.166 100.968,118.246C100.781,118.326 100.571,118.366 100.338,118.366C100.018,118.366 99.746,118.3 99.523,118.166C99.3,118.033 99.128,117.856 99.008,117.636C98.935,117.503 98.885,117.35 98.858,117.176C98.831,117.003 98.818,116.813 98.818,116.606L98.818,114.936C98.818,114.73 98.831,114.54 98.858,114.366C98.885,114.193 98.935,114.04 99.008,113.906C99.128,113.686 99.3,113.51 99.523,113.376C99.746,113.243 100.018,113.176 100.338,113.176C100.571,113.176 100.783,113.216 100.973,113.296C101.163,113.376 101.325,113.486 101.458,113.626C101.725,113.926 101.858,114.316 101.858,114.796L100.838,114.796C100.838,114.59 100.793,114.438 100.703,114.341C100.613,114.245 100.491,114.196 100.338,114.196C100.185,114.196 100.063,114.245 99.973,114.341C99.883,114.438 99.838,114.583 99.838,114.776L99.838,116.846Z" style="fill-rule:nonzero;"/>
                <path d="M102.338,118.306L102.338,111.186L103.358,111.186L103.358,115.446L103.378,115.446L104.608,113.236L105.628,113.236L104.418,115.296L105.878,118.306L104.768,118.306L103.848,116.116L103.358,116.886L103.358,118.306L102.338,118.306Z" style="fill-rule:nonzero;"/>
            </g>
            <g transform="matrix(1,0,0,1,38.4329,145.854)">
                <text x="89.198px" y="118.306px" style="font-family:'DINCondensed-Bold', 'DIN Condensed';font-weight:700;font-stretch:condensed;font-size:10px;">c<tspan x="92.778px 94.638px 98.338px 101.918px " y="118.306px 118.306px 118.306px 118.306px ">lock</tspan></text>
            </g>
        </g>
    </g>
    <g transform="matrix(1,0,0,1,-4.46634,-34.9979)">
        <g transform="matrix(1,0,0,1,124.118,-37.8167)">
            <g transform="matrix(1,0,0,1,-192.117,172.658)">
                <path d="M93.323,118.306L93.323,111.186L94.343,111.186L94.343,113.696L94.363,113.696C94.476,113.53 94.611,113.401 94.768,113.311C94.925,113.221 95.103,113.176 95.303,113.176C95.55,113.176 95.741,113.22 95.878,113.306C96.015,113.393 96.126,113.503 96.213,113.636C96.28,113.743 96.323,113.883 96.343,114.056C96.363,114.23 96.373,114.5 96.373,114.866L96.373,116.796C96.373,117.076 96.36,117.3 96.333,117.466C96.306,117.633 96.263,117.773 96.203,117.886C96.03,118.206 95.733,118.366 95.313,118.366C95.06,118.366 94.866,118.316 94.733,118.216C94.6,118.116 94.47,117.993 94.343,117.846L94.343,118.306L93.323,118.306ZM95.353,114.796C95.353,114.636 95.318,114.496 95.248,114.376C95.178,114.256 95.046,114.196 94.853,114.196C94.706,114.196 94.585,114.248 94.488,114.351C94.391,114.455 94.343,114.586 94.343,114.746L94.343,116.716C94.343,116.903 94.39,117.055 94.483,117.171C94.576,117.288 94.7,117.346 94.853,117.346C95.026,117.346 95.153,117.283 95.233,117.156C95.313,117.03 95.353,116.863 95.353,116.656L95.353,114.796Z" style="fill-rule:nonzero;"/>
                <path d="M99.143,118.306L99.143,117.786L99.123,117.786C98.99,117.973 98.855,118.116 98.718,118.216C98.581,118.316 98.39,118.366 98.143,118.366C98.023,118.366 97.901,118.348 97.778,118.311C97.655,118.275 97.536,118.206 97.423,118.106C97.31,118.013 97.218,117.878 97.148,117.701C97.078,117.525 97.043,117.296 97.043,117.016C97.043,116.73 97.066,116.478 97.113,116.261C97.16,116.045 97.246,115.863 97.373,115.716C97.493,115.576 97.656,115.471 97.863,115.401C98.07,115.331 98.333,115.296 98.653,115.296L98.763,115.296C98.803,115.296 98.84,115.3 98.873,115.306C98.906,115.313 98.946,115.316 98.993,115.316C99.04,115.316 99.09,115.32 99.143,115.326L99.143,114.796C99.143,114.623 99.106,114.48 99.033,114.366C98.96,114.253 98.826,114.196 98.633,114.196C98.5,114.196 98.378,114.24 98.268,114.326C98.158,114.413 98.086,114.54 98.053,114.706L97.063,114.706C97.09,114.253 97.243,113.886 97.523,113.606C97.656,113.473 97.816,113.368 98.003,113.291C98.19,113.215 98.4,113.176 98.633,113.176C98.846,113.176 99.046,113.21 99.233,113.276C99.42,113.343 99.583,113.443 99.723,113.576C99.856,113.71 99.963,113.876 100.043,114.076C100.123,114.276 100.163,114.51 100.163,114.776L100.163,118.306L99.143,118.306ZM99.143,116.126C99.03,116.106 98.936,116.096 98.863,116.096C98.643,116.096 98.455,116.148 98.298,116.251C98.141,116.355 98.063,116.543 98.063,116.816C98.063,117.01 98.11,117.166 98.203,117.286C98.296,117.406 98.426,117.466 98.593,117.466C98.766,117.466 98.901,117.41 98.998,117.296C99.095,117.183 99.143,117.023 99.143,116.816L99.143,116.126Z" style="fill-rule:nonzero;"/>
                <path d="M100.913,118.306L100.913,113.236L101.933,113.236L101.933,113.726L101.953,113.726C102.06,113.566 102.188,113.435 102.338,113.331C102.488,113.228 102.68,113.176 102.913,113.176C103.04,113.176 103.166,113.198 103.293,113.241C103.42,113.285 103.533,113.356 103.633,113.456C103.733,113.556 103.813,113.685 103.873,113.841C103.933,113.998 103.963,114.19 103.963,114.416L103.963,118.306L102.943,118.306L102.943,114.796C102.943,114.61 102.9,114.463 102.813,114.356C102.726,114.25 102.603,114.196 102.443,114.196C102.25,114.196 102.116,114.256 102.043,114.376C101.97,114.496 101.933,114.67 101.933,114.896L101.933,118.306L100.913,118.306Z" style="fill-rule:nonzero;"/>
                <path d="M104.803,118.306L104.803,111.186L105.823,111.186L105.823,115.446L105.843,115.446L107.073,113.236L108.093,113.236L106.883,115.296L108.343,118.306L107.233,118.306L106.313,116.116L105.823,116.886L105.823,118.306L104.803,118.306Z" style="fill-rule:nonzero;"/>
            </g>
            <g transform="matrix(1,0,0,1,-192.117,172.658)">
                <text x="92.903px" y="118.306px" style="font-family:'DINCondensed-Bold', 'DIN Condensed';font-weight:700;font-stretch:condensed;font-size:10px;">bank</text>
            </g>
        </g>
        <g id="BankUp-button" serif:id="BankUp#button" transform="matrix(0.758898,0,0,0.758898,10.9163,15.4874)">
            <circle cx="55.661" cy="308.513" r="7.929"/>
        </g>
        <g id="Bank-lcd-1" serif:id="Bank#lcd$1" transform="matrix(0.311812,0,0,0.846667,10.6473,-8.9468)">
            <rect x="173.071" y="291.218" width="64.141" height="28.346" style="fill:rgb(13,13,13);"/>
        </g>
    </g>
    <g transform="matrix(1,0,0,1,-142.238,302.269)">
        <g transform="matrix(0.0416031,0,0,0.0471913,150.365,14.326)">
            <g transform="matrix(1,0,0,1,-143.343,98.6554)">
                <ellipse cx="360.896" cy="293.762" rx="136.961" ry="230.443" style="fill:rgb(102,126,153);stroke:black;stroke-width:27.44px;"/>
            </g>
            <g transform="matrix(1,0,0,1,445.551,98.6554)">
                <ellipse cx="360.896" cy="293.762" rx="136.961" ry="230.443" style="fill:rgb(102,126,153);stroke:black;stroke-width:27.44px;"/>
            </g>
            <g transform="matrix(1,0,0,1,-34.3236,-20.6488)">
                <ellipse cx="546.324" cy="643.509" rx="431.408" ry="296.899" style="fill:rgb(102,126,153);stroke:black;stroke-width:27.44px;"/>
            </g>
            <circle cx="406.664" cy="569.758" r="105.336" style="fill:rgb(102,126,153);stroke:black;stroke-width:27.44px;"/>
            <g transform="matrix(1,0,0,1,210.672,0)">
                <circle cx="406.664" cy="569.758" r="105.336" style="fill:rgb(102,126,153);stroke:black;stroke-width:27.44px;"/>
            </g>
            <g transform="matrix(1,0,0,1,-53.1856,50.0357)">
                <ellipse cx="565.186" cy="671.455" rx="210.672" ry="98.631" style="fill:rgb(102,126,153);stroke:black;stroke-width:27.44px;"/>
            </g>
            <g transform="matrix(51.2,0,0,45.1371,0.670978,88.9676)">
                <path d="M12.057,13.791C12.057,13.668 11.958,13.568 11.835,13.568L8.139,13.568C8.016,13.568 7.916,13.668 7.916,13.791L7.916,14.236C7.916,14.359 8.016,14.458 8.139,14.458L11.835,14.458C11.958,14.458 12.057,14.359 12.057,14.236L12.057,13.791Z"/>
            </g>
        </g>
        <g transform="matrix(0.816456,0,0,0.816456,132.219,-250.661)">
            <path d="M81.965,344.752C82.964,344.752 83.755,344.728 84.338,344.679C84.921,344.63 85.372,344.566 85.69,344.487C86.009,344.409 86.222,344.321 86.33,344.223C86.438,344.125 86.511,344.027 86.55,343.929C86.57,343.88 86.619,343.855 86.697,343.855C86.795,343.855 86.844,343.88 86.844,343.929C86.825,343.949 86.793,344.022 86.749,344.149C86.705,344.277 86.651,344.431 86.587,344.612C86.523,344.794 86.457,344.99 86.389,345.2C86.32,345.411 86.256,345.612 86.197,345.803C86.139,345.994 86.09,346.163 86.051,346.31C86.011,346.457 85.992,346.555 85.992,346.604C85.972,346.604 85.948,346.606 85.918,346.611C85.889,346.616 85.859,346.619 85.83,346.619C85.742,346.619 85.698,346.589 85.698,346.53C85.698,346.481 85.703,346.423 85.712,346.354C85.722,346.285 85.727,346.227 85.727,346.178C85.727,346.129 85.722,346.094 85.712,346.075C85.663,345.977 85.499,345.903 85.22,345.854C84.941,345.805 84.617,345.771 84.25,345.751C83.883,345.732 83.508,345.72 83.126,345.715C82.744,345.71 82.43,345.707 82.185,345.707C81.813,345.707 81.443,345.813 81.075,346.023C80.708,346.234 80.38,346.535 80.091,346.927C79.802,347.319 79.566,347.802 79.385,348.375C79.204,348.948 79.113,349.597 79.113,350.322C79.113,350.959 79.184,351.547 79.326,352.086C79.468,352.625 79.672,353.095 79.936,353.497C80.201,353.899 80.524,354.212 80.906,354.438C81.288,354.663 81.72,354.776 82.2,354.776C82.66,354.776 83.064,354.69 83.412,354.519C83.76,354.347 84.052,354.124 84.287,353.85C84.522,353.576 84.701,353.262 84.823,352.909C84.946,352.556 85.007,352.194 85.007,351.822C85.007,351.557 84.975,351.302 84.911,351.057C84.848,350.812 84.752,350.594 84.625,350.403C84.497,350.212 84.333,350.06 84.132,349.948C83.932,349.835 83.699,349.779 83.434,349.779C83.023,349.779 82.734,349.869 82.567,350.051C82.401,350.232 82.317,350.425 82.317,350.631C82.317,350.817 82.371,350.981 82.479,351.123C82.587,351.266 82.729,351.337 82.905,351.337C83.013,351.337 83.067,351.376 83.067,351.454C83.067,351.484 83.052,351.513 83.023,351.542C82.974,351.611 82.837,351.68 82.611,351.748C82.386,351.817 82.116,351.851 81.803,351.851C81.421,351.851 81.107,351.751 80.862,351.55C80.617,351.349 80.495,351.106 80.495,350.822C80.495,350.636 80.583,350.455 80.759,350.278C80.936,350.102 81.178,349.943 81.487,349.801C81.796,349.659 82.165,349.546 82.597,349.463C83.028,349.379 83.493,349.338 83.993,349.338C84.434,349.338 84.84,349.382 85.213,349.47C85.585,349.558 85.906,349.683 86.175,349.845C86.445,350.006 86.658,350.202 86.815,350.433C86.972,350.663 87.05,350.92 87.05,351.204C87.05,351.635 86.913,352.094 86.638,352.579C86.364,353.064 85.987,353.509 85.507,353.916C85.027,354.323 84.461,354.658 83.809,354.923C83.158,355.187 82.459,355.32 81.715,355.32C80.95,355.32 80.272,355.209 79.679,354.989C79.086,354.768 78.587,354.46 78.18,354.063C77.773,353.666 77.462,353.196 77.247,352.652C77.031,352.108 76.923,351.513 76.923,350.866C76.923,350.376 76.997,349.916 77.144,349.485C77.291,349.054 77.482,348.652 77.717,348.279C77.952,347.907 78.212,347.569 78.496,347.265C78.78,346.962 79.057,346.699 79.326,346.479C79.596,346.259 79.843,346.085 80.069,345.957C80.294,345.83 80.461,345.751 80.568,345.722C80.235,345.732 79.88,345.747 79.503,345.766C79.125,345.786 78.765,345.813 78.422,345.847C78.079,345.881 77.776,345.925 77.511,345.979C77.247,346.033 77.065,346.099 76.967,346.178C76.86,346.256 76.771,346.359 76.703,346.486C76.634,346.614 76.575,346.746 76.526,346.883C76.448,346.883 76.384,346.871 76.335,346.846C76.286,346.822 76.247,346.766 76.218,346.677C76.306,346.56 76.402,346.374 76.504,346.119C76.607,345.864 76.71,345.597 76.813,345.318C76.916,345.039 77.004,344.781 77.078,344.546C77.151,344.311 77.203,344.159 77.232,344.091C77.271,344.071 77.315,344.061 77.364,344.061C77.403,344.061 77.443,344.071 77.482,344.091C77.452,344.208 77.438,344.301 77.438,344.37C77.438,344.468 77.487,344.532 77.585,344.561C77.869,344.639 78.224,344.691 78.65,344.715C79.076,344.74 79.569,344.752 80.127,344.752L81.965,344.752Z" style="fill:rgb(13,13,13);fill-rule:nonzero;"/>
            <path d="M89.872,352.542C89.872,352.748 89.877,352.946 89.887,353.137C89.896,353.328 89.931,353.492 89.989,353.629C90.048,353.767 90.136,353.877 90.254,353.96C90.372,354.043 90.538,354.085 90.754,354.085C90.862,354.085 90.984,354.073 91.121,354.048C91.258,354.024 91.388,353.992 91.511,353.953C91.633,353.914 91.741,353.874 91.834,353.835C91.927,353.796 91.983,353.767 92.003,353.747C92.032,353.718 92.052,353.718 92.062,353.747C92.072,353.776 92.074,353.813 92.069,353.857C92.064,353.901 92.052,353.945 92.032,353.99C92.013,354.034 91.988,354.065 91.959,354.085C91.861,354.134 91.69,354.222 91.445,354.35C91.2,354.477 90.911,354.609 90.577,354.746C90.264,354.884 89.958,354.999 89.659,355.092C89.36,355.185 89.113,355.231 88.917,355.231C88.691,355.231 88.515,355.163 88.387,355.026C88.26,354.889 88.196,354.717 88.196,354.511C88.196,354.443 88.199,354.384 88.204,354.335C88.209,354.286 88.216,354.222 88.226,354.144C88.236,354.046 88.253,353.867 88.277,353.607C88.302,353.348 88.326,353.056 88.351,352.733C88.375,352.41 88.397,352.084 88.417,351.755C88.436,351.427 88.446,351.146 88.446,350.91L88.446,350.396C88.446,350.141 88.432,349.916 88.402,349.72C88.373,349.524 88.324,349.372 88.255,349.264C88.206,349.196 88.145,349.139 88.071,349.095C87.998,349.051 87.907,349.029 87.8,349.029C87.741,349.029 87.682,349.041 87.623,349.066C87.564,349.09 87.52,349.103 87.491,349.103C87.471,349.103 87.439,349.073 87.395,349.014C87.351,348.956 87.354,348.911 87.403,348.882C87.471,348.833 87.613,348.755 87.829,348.647C88.044,348.539 88.28,348.422 88.534,348.294C88.809,348.157 89.073,348.037 89.328,347.934C89.583,347.831 89.764,347.78 89.872,347.78C89.98,347.78 90.053,347.812 90.092,347.875C90.132,347.939 90.151,348.01 90.151,348.088L90.151,348.147C90.151,348.245 90.136,348.402 90.107,348.618C90.078,348.833 90.046,349.098 90.012,349.411C89.977,349.725 89.945,350.087 89.916,350.499C89.887,350.91 89.872,351.356 89.872,351.836L89.872,352.542ZM89.284,344.899C89.333,344.909 89.414,344.963 89.527,345.061C89.639,345.159 89.754,345.271 89.872,345.399C89.989,345.526 90.092,345.649 90.181,345.766C90.269,345.884 90.313,345.962 90.313,346.001C90.313,346.05 90.254,346.124 90.136,346.222C90.019,346.32 89.884,346.42 89.732,346.523C89.58,346.626 89.433,346.717 89.291,346.795C89.149,346.873 89.049,346.913 88.99,346.913C88.961,346.913 88.89,346.866 88.777,346.773C88.664,346.68 88.549,346.575 88.432,346.457C88.314,346.339 88.209,346.224 88.116,346.112C88.022,345.999 87.976,345.923 87.976,345.884C87.976,345.835 88.04,345.759 88.167,345.656C88.294,345.553 88.434,345.445 88.586,345.333C88.738,345.22 88.885,345.122 89.027,345.039C89.169,344.955 89.255,344.909 89.284,344.899Z" style="fill:rgb(13,13,13);fill-rule:nonzero;"/>
            <path d="M105.334,353.82C105.363,353.82 105.383,353.838 105.393,353.872C105.402,353.906 105.407,353.948 105.407,353.997C105.407,354.046 105.398,354.078 105.378,354.092C105.358,354.107 105.339,354.124 105.319,354.144C105.251,354.183 105.086,354.266 104.827,354.394C104.567,354.521 104.278,354.651 103.96,354.783C103.641,354.915 103.328,355.033 103.019,355.136C102.71,355.239 102.478,355.29 102.321,355.29C102.184,355.29 102.054,355.261 101.931,355.202C101.809,355.143 101.757,355.05 101.777,354.923C101.797,354.844 101.819,354.727 101.843,354.57C101.868,354.413 101.89,354.222 101.909,353.997C101.929,353.713 101.951,353.384 101.975,353.012C102,352.64 102.012,352.228 102.012,351.778C102.012,351.248 101.978,350.81 101.909,350.462C101.841,350.114 101.743,349.837 101.615,349.632C101.488,349.426 101.331,349.281 101.145,349.198C100.959,349.115 100.743,349.073 100.498,349.073C100.273,349.073 100.082,349.11 99.925,349.183C99.768,349.257 99.631,349.338 99.514,349.426C99.298,349.592 99.129,349.806 99.007,350.065C98.884,350.325 98.808,350.665 98.779,351.087C98.769,351.195 98.762,351.302 98.757,351.41C98.752,351.518 98.747,351.635 98.742,351.763C98.737,351.89 98.732,352.032 98.727,352.189C98.722,352.346 98.72,352.532 98.72,352.748C98.72,353.326 98.766,353.727 98.86,353.953C98.953,354.178 99.112,354.291 99.337,354.291C99.416,354.291 99.465,354.288 99.484,354.283C99.504,354.279 99.543,354.271 99.602,354.261C99.621,354.281 99.641,354.306 99.661,354.335C99.69,354.384 99.685,354.438 99.646,354.497C99.597,354.555 99.479,354.631 99.293,354.724C99.107,354.817 98.901,354.903 98.676,354.982C98.45,355.06 98.23,355.129 98.014,355.187C97.799,355.246 97.637,355.276 97.529,355.276C97.392,355.276 97.267,355.258 97.155,355.224C97.042,355.19 96.986,355.148 96.986,355.099C96.986,355.04 97.005,354.972 97.044,354.893C97.074,354.844 97.103,354.727 97.133,354.541C97.162,354.355 97.189,354.114 97.213,353.82C97.238,353.527 97.26,353.186 97.28,352.799C97.299,352.412 97.309,351.993 97.309,351.542C97.309,351.307 97.297,351.048 97.272,350.763C97.248,350.479 97.186,350.212 97.088,349.962C96.99,349.712 96.846,349.502 96.655,349.33C96.464,349.159 96.202,349.073 95.869,349.073C95.673,349.073 95.496,349.1 95.339,349.154C95.183,349.208 95.05,349.274 94.943,349.352C94.727,349.519 94.543,349.725 94.391,349.97C94.24,350.215 94.139,350.563 94.09,351.013C94.071,351.219 94.051,351.432 94.031,351.653C94.012,351.873 94.002,352.125 94.002,352.41C94.002,352.782 94.012,353.091 94.031,353.335C94.051,353.58 94.085,353.774 94.134,353.916C94.183,354.058 94.242,354.156 94.311,354.21C94.379,354.264 94.467,354.291 94.575,354.291C94.683,354.291 94.756,354.281 94.796,354.261C94.845,354.242 94.879,354.271 94.899,354.35C94.918,354.428 94.913,354.477 94.884,354.497C94.845,354.536 94.742,354.597 94.575,354.68C94.409,354.764 94.218,354.849 94.002,354.938C93.786,355.026 93.566,355.104 93.341,355.173C93.115,355.241 92.924,355.276 92.767,355.276C92.601,355.276 92.471,355.256 92.378,355.217C92.285,355.178 92.238,355.133 92.238,355.084C92.238,355.075 92.248,355.043 92.268,354.989C92.287,354.935 92.302,354.889 92.312,354.849C92.351,354.546 92.388,354.264 92.422,354.004C92.456,353.745 92.481,353.463 92.495,353.159C92.51,352.855 92.522,352.507 92.532,352.116C92.542,351.724 92.547,351.248 92.547,350.69C92.547,350.151 92.461,349.754 92.29,349.499C92.118,349.245 91.939,349.117 91.753,349.117C91.675,349.117 91.609,349.125 91.555,349.139C91.501,349.154 91.449,349.166 91.4,349.176C91.342,349.186 91.312,349.156 91.312,349.088L91.312,348.985C91.322,348.975 91.42,348.907 91.606,348.779C91.792,348.652 92.013,348.515 92.268,348.368C92.522,348.221 92.787,348.086 93.061,347.963C93.336,347.841 93.561,347.78 93.737,347.78C93.855,347.78 93.955,347.814 94.039,347.883C94.122,347.951 94.164,348.079 94.164,348.265C94.164,348.353 94.161,348.451 94.156,348.559C94.151,348.667 94.146,348.779 94.142,348.897C94.137,349.014 94.129,349.129 94.12,349.242C94.11,349.355 94.105,349.45 94.105,349.529C94.242,349.401 94.416,349.235 94.627,349.029C94.837,348.823 95.075,348.627 95.339,348.441C95.604,348.255 95.891,348.093 96.199,347.956C96.508,347.819 96.834,347.75 97.177,347.75C97.627,347.75 97.995,347.883 98.279,348.147C98.563,348.412 98.715,348.872 98.735,349.529C98.891,349.382 99.082,349.205 99.308,349C99.533,348.794 99.785,348.598 100.065,348.412C100.344,348.226 100.64,348.069 100.954,347.941C101.267,347.814 101.586,347.75 101.909,347.75C103.046,347.75 103.614,348.353 103.614,349.558C103.614,349.754 103.604,349.979 103.585,350.234C103.565,350.489 103.541,350.756 103.511,351.035C103.482,351.315 103.457,351.591 103.438,351.866C103.418,352.14 103.408,352.39 103.408,352.615C103.408,353.634 103.678,354.144 104.217,354.144C104.305,354.144 104.403,354.132 104.511,354.107C104.619,354.083 104.726,354.053 104.834,354.019C104.942,353.985 105.04,353.95 105.128,353.916C105.216,353.882 105.28,353.85 105.319,353.82L105.334,353.82Z" style="fill:rgb(13,13,13);fill-rule:nonzero;"/>
            <path d="M112.051,353.38C111.943,353.497 111.776,353.659 111.551,353.865C111.326,354.07 111.054,354.276 110.735,354.482C110.417,354.688 110.062,354.864 109.67,355.011C109.278,355.158 108.861,355.231 108.42,355.231C108.019,355.231 107.627,355.17 107.245,355.048C106.862,354.925 106.519,354.739 106.216,354.489C105.912,354.239 105.669,353.921 105.488,353.534C105.307,353.147 105.216,352.684 105.216,352.145C105.216,351.704 105.246,351.324 105.304,351.006C105.363,350.687 105.442,350.408 105.54,350.168C105.638,349.928 105.748,349.722 105.87,349.551C105.993,349.379 106.118,349.225 106.245,349.088C106.402,348.911 106.593,348.745 106.818,348.588C107.044,348.431 107.286,348.289 107.546,348.162C107.806,348.035 108.08,347.934 108.369,347.861C108.658,347.787 108.949,347.75 109.243,347.75C109.773,347.75 110.187,347.839 110.485,348.015C110.784,348.191 110.934,348.436 110.934,348.75C110.934,348.946 110.875,349.127 110.757,349.294C110.855,349.264 110.98,349.215 111.132,349.147C111.284,349.078 111.438,349.007 111.595,348.934C111.752,348.86 111.891,348.794 112.014,348.735C112.136,348.676 112.217,348.632 112.256,348.603C112.276,348.583 112.298,348.576 112.323,348.581C112.347,348.586 112.359,348.603 112.359,348.632C112.359,348.76 112.335,348.865 112.286,348.948C112.237,349.031 112.178,349.098 112.109,349.147C111.953,349.245 111.727,349.367 111.433,349.514C111.139,349.661 110.814,349.815 110.456,349.977C110.098,350.139 109.728,350.3 109.346,350.462C108.964,350.624 108.604,350.778 108.266,350.925C107.928,351.072 107.634,351.202 107.384,351.315C107.134,351.427 106.965,351.508 106.877,351.557C106.877,351.89 106.943,352.201 107.076,352.49C107.208,352.779 107.392,353.032 107.627,353.247C107.862,353.463 108.144,353.632 108.472,353.754C108.8,353.877 109.16,353.938 109.552,353.938C109.905,353.938 110.223,353.901 110.507,353.828C110.792,353.754 111.032,353.671 111.228,353.578C111.424,353.485 111.578,353.402 111.691,353.328C111.803,353.255 111.865,353.218 111.874,353.218C111.914,353.218 111.953,353.235 111.992,353.269C112.031,353.304 112.051,353.34 112.051,353.38ZM106.877,351.131C107.044,351.072 107.232,351.001 107.443,350.918C107.654,350.834 107.859,350.744 108.06,350.646C108.261,350.548 108.445,350.455 108.611,350.367C108.778,350.278 108.905,350.2 108.994,350.131C109.17,350.004 109.258,349.788 109.258,349.485C109.258,349.367 109.236,349.245 109.192,349.117C109.148,348.99 109.082,348.875 108.994,348.772C108.905,348.669 108.798,348.586 108.67,348.522C108.543,348.458 108.401,348.426 108.244,348.426C108.107,348.426 107.96,348.473 107.803,348.566C107.646,348.659 107.499,348.811 107.362,349.022C107.225,349.232 107.11,349.512 107.017,349.859C106.924,350.207 106.877,350.631 106.877,351.131Z" style="fill:rgb(13,13,13);fill-rule:nonzero;"/>
            <path d="M77.144,359.714C76.889,359.704 76.73,359.678 76.666,359.633C76.602,359.589 76.571,359.543 76.571,359.494C76.571,359.425 76.58,359.364 76.6,359.31C76.62,359.256 76.673,359.224 76.762,359.215C76.869,359.224 77.033,359.241 77.254,359.266C77.474,359.29 77.771,359.313 78.143,359.332L79.025,359.332C79.456,359.322 79.858,359.298 80.23,359.259C80.603,359.219 80.936,359.175 81.23,359.126C81.524,359.077 81.769,359.028 81.965,358.979C82.161,358.93 82.298,358.886 82.376,358.847L82.391,358.847C82.401,358.847 82.408,358.845 82.413,358.84C82.418,358.835 82.425,358.832 82.435,358.832C82.533,358.832 82.582,358.935 82.582,359.141C82.582,359.229 82.491,359.303 82.31,359.362C82.129,359.42 81.92,359.472 81.685,359.516C81.45,359.56 81.22,359.602 80.995,359.641C80.769,359.68 80.617,359.724 80.539,359.773C80.48,359.871 80.429,360.138 80.385,360.574C80.34,361.01 80.306,361.525 80.282,362.117C80.257,362.71 80.238,363.34 80.223,364.006C80.208,364.672 80.201,365.285 80.201,365.843C80.201,366.745 80.213,367.475 80.238,368.033C80.262,368.592 80.309,368.905 80.377,368.974C80.407,368.984 80.461,368.988 80.539,368.988C80.627,368.988 80.732,368.981 80.855,368.966C80.977,368.952 81.102,368.937 81.23,368.922C81.357,368.908 81.482,368.89 81.604,368.871C81.727,368.851 81.832,368.837 81.92,368.827C82.146,368.797 82.388,368.761 82.648,368.717C82.908,368.672 83.165,368.619 83.42,368.555C83.674,368.491 83.912,368.41 84.132,368.312C84.353,368.214 84.542,368.092 84.698,367.945C84.708,367.925 84.715,367.918 84.72,367.923C84.725,367.928 84.733,367.925 84.742,367.916C84.782,367.876 84.826,367.862 84.875,367.871C84.924,367.881 84.965,367.908 85,367.952C85.034,367.996 85.056,368.045 85.066,368.099C85.076,368.153 85.061,368.195 85.022,368.224C84.933,368.293 84.848,368.396 84.764,368.533C84.681,368.67 84.605,368.817 84.537,368.974C84.468,369.131 84.409,369.28 84.36,369.422C84.311,369.564 84.282,369.669 84.272,369.738C84.35,369.787 84.436,369.856 84.529,369.944C84.622,370.032 84.669,370.14 84.669,370.267C84.669,370.306 84.657,370.358 84.632,370.421C84.608,370.485 84.556,370.517 84.478,370.517C84.458,370.517 84.424,370.512 84.375,370.502C84.326,370.493 84.301,370.448 84.301,370.37C84.301,370.282 84.341,370.218 84.419,370.179C84.38,370.159 84.326,370.125 84.257,370.076C84.189,370.027 84.12,369.993 84.052,369.973C83.875,369.944 83.694,369.914 83.508,369.885C83.322,369.856 83.118,369.834 82.898,369.819C82.677,369.804 82.43,369.792 82.156,369.782C81.881,369.772 81.573,369.767 81.23,369.767C80.436,369.767 79.762,369.789 79.209,369.834C78.655,369.878 78.187,369.924 77.805,369.973C77.423,370.022 77.109,370.069 76.864,370.113C76.62,370.157 76.419,370.179 76.262,370.179C76.125,370.179 76.056,370.12 76.056,370.003C76.056,369.934 76.071,369.861 76.1,369.782C76.13,369.704 76.198,369.669 76.306,369.679C76.424,369.689 76.578,369.684 76.769,369.665C76.96,369.645 77.151,369.616 77.342,369.576C77.533,369.537 77.7,369.496 77.842,369.451C77.984,369.407 78.07,369.366 78.099,369.327C78.138,369.248 78.18,369.062 78.224,368.768C78.268,368.474 78.305,368.104 78.334,367.658C78.364,367.213 78.388,366.705 78.408,366.137C78.427,365.569 78.437,364.966 78.437,364.329C78.437,363.467 78.43,362.757 78.415,362.198C78.4,361.64 78.383,361.194 78.364,360.861C78.344,360.528 78.32,360.283 78.29,360.126C78.261,359.969 78.231,359.851 78.202,359.773L77.144,359.714Z" style="fill:rgb(13,13,13);fill-rule:nonzero;"/>
            <path d="M91.209,368.621C91.102,368.709 90.955,368.827 90.768,368.974C90.582,369.121 90.367,369.268 90.122,369.415C89.877,369.562 89.607,369.687 89.313,369.789C89.019,369.892 88.711,369.944 88.387,369.944C87.898,369.944 87.461,369.858 87.079,369.687C86.697,369.515 86.376,369.285 86.117,368.996C85.857,368.707 85.661,368.366 85.529,367.974C85.396,367.582 85.33,367.166 85.33,366.725C85.33,366.206 85.409,365.745 85.565,365.343C85.722,364.942 85.916,364.591 86.146,364.293C86.376,363.994 86.624,363.744 86.888,363.543C87.153,363.342 87.393,363.183 87.608,363.065C87.706,363.007 87.831,362.943 87.983,362.874C88.135,362.806 88.302,362.742 88.483,362.683C88.664,362.624 88.86,362.573 89.071,362.529C89.282,362.485 89.5,362.463 89.725,362.463C90.146,362.463 90.555,362.517 90.952,362.624C91.349,362.732 91.699,362.901 92.003,363.131C92.307,363.362 92.552,363.658 92.738,364.021C92.924,364.383 93.017,364.819 93.017,365.329C93.017,365.74 92.941,366.127 92.789,366.49C92.638,366.852 92.459,367.176 92.253,367.46C92.047,367.744 91.844,367.987 91.643,368.187C91.442,368.388 91.298,368.533 91.209,368.621ZM89.549,368.856C90.107,368.856 90.536,368.646 90.835,368.224C91.133,367.803 91.283,367.156 91.283,366.284C91.283,365.843 91.222,365.434 91.099,365.057C90.977,364.68 90.805,364.349 90.585,364.065C90.364,363.781 90.107,363.558 89.813,363.396C89.519,363.234 89.201,363.154 88.858,363.154C88.613,363.154 88.38,363.217 88.16,363.345C87.939,363.472 87.746,363.656 87.579,363.896C87.412,364.136 87.28,364.427 87.182,364.77C87.084,365.113 87.035,365.5 87.035,365.931C87.035,366.392 87.106,366.803 87.248,367.166C87.39,367.529 87.579,367.835 87.814,368.085C88.049,368.334 88.316,368.525 88.615,368.658C88.914,368.79 89.225,368.856 89.549,368.856Z" style="fill:rgb(13,13,13);fill-rule:nonzero;"/>
            <path d="M100.616,363.55C100.508,363.639 100.381,363.749 100.234,363.881C100.087,364.013 99.932,364.141 99.771,364.263C99.609,364.386 99.445,364.491 99.278,364.579C99.112,364.667 98.95,364.711 98.793,364.711C98.656,364.711 98.534,364.68 98.426,364.616C98.318,364.552 98.218,364.484 98.125,364.41C98.032,364.337 97.941,364.268 97.853,364.204C97.765,364.141 97.671,364.109 97.573,364.109C97.309,364.109 97.086,364.217 96.905,364.432C96.723,364.648 96.576,364.922 96.464,365.255C96.351,365.588 96.268,365.951 96.214,366.343C96.16,366.735 96.133,367.112 96.133,367.475C96.133,367.778 96.145,368.026 96.17,368.217C96.194,368.408 96.231,368.56 96.28,368.672C96.329,368.785 96.395,368.861 96.479,368.9C96.562,368.939 96.662,368.959 96.78,368.959C96.907,368.959 97.044,368.939 97.191,368.9C97.221,368.89 97.243,368.91 97.257,368.959C97.272,369.008 97.28,369.047 97.28,369.077C97.28,369.096 97.265,369.118 97.235,369.143C97.206,369.167 97.186,369.18 97.177,369.18C96.961,369.268 96.741,369.363 96.515,369.466C96.29,369.569 96.104,369.655 95.957,369.723C95.82,369.782 95.655,369.846 95.464,369.914C95.273,369.983 95.109,370.017 94.972,370.017C94.815,370.017 94.685,369.993 94.583,369.944C94.48,369.895 94.428,369.846 94.428,369.797C94.428,369.748 94.44,369.704 94.465,369.665C94.489,369.625 94.511,369.552 94.531,369.444C94.551,369.297 94.573,369.123 94.597,368.922C94.622,368.721 94.646,368.503 94.671,368.268C94.695,368.033 94.715,367.791 94.729,367.541C94.744,367.291 94.752,367.043 94.752,366.799C94.752,366.25 94.734,365.784 94.7,365.402C94.666,365.02 94.605,364.711 94.516,364.476C94.428,364.241 94.308,364.072 94.156,363.969C94.004,363.866 93.811,363.815 93.576,363.815L93.443,363.815C93.404,363.815 93.365,363.82 93.326,363.83C93.267,363.83 93.238,363.8 93.238,363.741C93.238,363.683 93.267,363.639 93.326,363.609C93.434,363.541 93.6,363.44 93.826,363.308C94.051,363.176 94.284,363.048 94.524,362.926C94.764,362.803 94.996,362.693 95.222,362.595C95.447,362.497 95.614,362.448 95.722,362.448C95.849,362.448 95.957,362.49 96.045,362.573C96.133,362.656 96.199,362.762 96.243,362.889C96.287,363.016 96.319,363.161 96.339,363.323C96.358,363.484 96.368,363.643 96.368,363.8C96.368,363.918 96.366,364.04 96.361,364.168C96.356,364.295 96.354,364.432 96.354,364.579C96.795,363.932 97.191,363.43 97.544,363.073C97.897,362.715 98.23,362.536 98.544,362.536C98.661,362.536 98.776,362.585 98.889,362.683C99.002,362.781 99.122,362.891 99.249,363.014C99.376,363.136 99.509,363.247 99.646,363.345C99.783,363.443 99.925,363.492 100.072,363.492C100.199,363.492 100.293,363.477 100.351,363.447C100.41,363.418 100.459,363.394 100.498,363.374C100.577,363.374 100.616,363.428 100.616,363.536L100.616,363.55Z" style="fill:rgb(13,13,13);fill-rule:nonzero;"/>
            <path d="M105.363,368.621C105.275,368.709 105.133,368.827 104.937,368.974C104.741,369.121 104.511,369.265 104.246,369.407C103.982,369.549 103.695,369.672 103.386,369.775C103.078,369.878 102.767,369.929 102.453,369.929C102.13,369.929 101.806,369.856 101.483,369.709C101.16,369.562 100.868,369.349 100.609,369.069C100.349,368.79 100.141,368.454 99.984,368.063C99.827,367.671 99.749,367.23 99.749,366.74C99.749,366.103 99.859,365.525 100.079,365.005C100.3,364.486 100.623,364.045 101.049,363.683C101.476,363.32 101.995,363.041 102.607,362.845C103.22,362.649 103.923,362.551 104.717,362.551L105.113,362.551C105.241,362.551 105.358,362.556 105.466,362.566L105.466,362.088C105.466,361.858 105.464,361.62 105.459,361.375C105.454,361.13 105.449,360.905 105.444,360.699C105.439,360.493 105.437,360.366 105.437,360.317C105.398,359.925 105.331,359.651 105.238,359.494C105.145,359.337 104.957,359.259 104.672,359.259C104.633,359.259 104.611,359.215 104.606,359.126C104.601,359.038 104.633,358.97 104.702,358.921C104.78,358.872 104.868,358.835 104.966,358.81C105.064,358.786 105.211,358.774 105.407,358.774C105.78,358.774 106.091,358.771 106.341,358.766C106.59,358.761 106.796,358.752 106.958,358.737C107.12,358.722 107.249,358.703 107.347,358.678C107.445,358.654 107.529,358.627 107.597,358.597C107.646,358.587 107.688,358.6 107.722,358.634C107.757,358.668 107.781,358.712 107.796,358.766C107.81,358.82 107.813,358.872 107.803,358.921C107.793,358.97 107.764,358.999 107.715,359.009C107.607,359.028 107.526,359.05 107.472,359.075C107.418,359.099 107.367,359.146 107.318,359.215C107.269,359.283 107.225,359.464 107.186,359.758C107.147,360.052 107.107,360.415 107.068,360.846C107.029,361.277 106.995,361.755 106.965,362.279C106.936,362.803 106.911,363.33 106.892,363.859C106.872,364.388 106.855,364.903 106.84,365.402C106.826,365.902 106.818,366.338 106.818,366.71C106.818,367.426 106.897,367.952 107.053,368.29C107.21,368.628 107.45,368.797 107.774,368.797C107.891,368.797 108.021,368.778 108.163,368.739C108.305,368.699 108.438,368.653 108.56,368.599C108.682,368.545 108.795,368.491 108.898,368.437C109.001,368.383 109.077,368.337 109.126,368.298C109.175,368.258 109.219,368.283 109.258,368.371C109.297,368.459 109.292,368.518 109.243,368.548C109.126,368.616 108.942,368.717 108.692,368.849C108.442,368.981 108.166,369.121 107.862,369.268C107.49,369.454 107.112,369.62 106.73,369.767C106.348,369.914 106.039,369.988 105.804,369.988C105.628,369.988 105.508,369.959 105.444,369.9C105.38,369.841 105.349,369.748 105.349,369.62L105.349,369.422C105.349,369.329 105.351,369.231 105.356,369.128C105.361,369.025 105.363,368.927 105.363,368.834L105.363,368.621ZM105.172,368.121C105.251,368.014 105.309,367.889 105.349,367.747C105.388,367.604 105.417,367.411 105.437,367.166C105.456,366.96 105.466,366.708 105.466,366.409L105.466,365.623C105.466,365.397 105.464,365.157 105.459,364.903C105.454,364.648 105.447,364.471 105.437,364.373C105.417,364.207 105.349,364.05 105.231,363.903C105.113,363.756 104.962,363.629 104.775,363.521C104.589,363.413 104.371,363.327 104.121,363.264C103.871,363.2 103.609,363.168 103.335,363.168C103.07,363.168 102.821,363.212 102.585,363.3C102.35,363.389 102.147,363.531 101.975,363.727C101.804,363.923 101.669,364.175 101.571,364.484C101.473,364.792 101.424,365.172 101.424,365.623C101.424,366.083 101.488,366.502 101.615,366.879C101.743,367.257 101.919,367.582 102.144,367.857C102.37,368.131 102.639,368.344 102.953,368.496C103.266,368.648 103.609,368.724 103.982,368.724C104.129,368.724 104.266,368.702 104.393,368.658C104.521,368.614 104.636,368.56 104.739,368.496C104.841,368.432 104.932,368.366 105.011,368.298C105.089,368.229 105.143,368.17 105.172,368.121Z" style="fill:rgb(13,13,13);fill-rule:nonzero;"/>
        </g>
        <g transform="matrix(0.816456,0,0,0.816456,132.219,-250.661)">
            <text x="76.188px" y="355.099px" style="font-family:'Luminari-Regular', 'Luminari';font-size:14.698px;fill:rgb(13,13,13);">T<tspan x="87.123px 91.136px " y="355.099px 355.099px ">im</tspan>e</text>
            <text x="76.188px" y="369.797px" style="font-family:'Luminari-Regular', 'Luminari';font-size:14.698px;fill:rgb(13,13,13);">Lor<tspan x="99.323px " y="369.797px ">d</tspan></text>
        </g>
    </g>
    <g transform="matrix(1,0,0,1,125.605,64.226)">
        <g transform="matrix(1,0,0,1,50.1291,-138.098)">
            <g id="Mode-button" serif:id="Mode#button" transform="matrix(0.758898,0,0,0.758898,-156.632,5.57189)">
                <circle cx="55.661" cy="308.513" r="7.929"/>
            </g>
            <g transform="matrix(1,0,0,1,-234.494,124.926)">
                <path d="M92.403,118.306L92.403,113.236L93.423,113.236L93.423,113.726L93.443,113.726C93.55,113.566 93.678,113.435 93.828,113.331C93.978,113.228 94.17,113.176 94.403,113.176C94.623,113.176 94.806,113.23 94.953,113.336C95.1,113.443 95.22,113.56 95.313,113.686C95.44,113.546 95.58,113.426 95.733,113.326C95.886,113.226 96.1,113.176 96.373,113.176C96.5,113.176 96.63,113.198 96.763,113.241C96.896,113.285 97.016,113.356 97.123,113.456C97.23,113.556 97.316,113.685 97.383,113.841C97.45,113.998 97.483,114.19 97.483,114.416L97.483,118.306L96.463,118.306L96.463,114.796C96.463,114.61 96.42,114.463 96.333,114.356C96.246,114.25 96.123,114.196 95.963,114.196C95.77,114.196 95.636,114.256 95.563,114.376C95.49,114.496 95.453,114.67 95.453,114.896L95.453,118.306L94.433,118.306L94.433,114.796C94.433,114.61 94.39,114.463 94.303,114.356C94.216,114.25 94.093,114.196 93.933,114.196C93.74,114.196 93.606,114.256 93.533,114.376C93.46,114.496 93.423,114.67 93.423,114.896L93.423,118.306L92.403,118.306Z" style="fill-rule:nonzero;"/>
                <path d="M98.233,114.936C98.233,114.73 98.246,114.54 98.273,114.366C98.3,114.193 98.35,114.04 98.423,113.906C98.543,113.686 98.715,113.51 98.938,113.376C99.161,113.243 99.433,113.176 99.753,113.176C100.073,113.176 100.345,113.243 100.568,113.376C100.791,113.51 100.963,113.686 101.083,113.906C101.156,114.04 101.206,114.193 101.233,114.366C101.26,114.54 101.273,114.73 101.273,114.936L101.273,116.606C101.273,116.813 101.26,117.003 101.233,117.176C101.206,117.35 101.156,117.503 101.083,117.636C100.963,117.856 100.791,118.033 100.568,118.166C100.345,118.3 100.073,118.366 99.753,118.366C99.433,118.366 99.161,118.3 98.938,118.166C98.715,118.033 98.543,117.856 98.423,117.636C98.35,117.503 98.3,117.35 98.273,117.176C98.246,117.003 98.233,116.813 98.233,116.606L98.233,114.936ZM99.253,116.766C99.253,116.96 99.298,117.105 99.388,117.201C99.478,117.298 99.6,117.346 99.753,117.346C99.906,117.346 100.028,117.298 100.118,117.201C100.208,117.105 100.253,116.96 100.253,116.766L100.253,114.776C100.253,114.583 100.208,114.438 100.118,114.341C100.028,114.245 99.906,114.196 99.753,114.196C99.6,114.196 99.478,114.245 99.388,114.341C99.298,114.438 99.253,114.583 99.253,114.776L99.253,116.766Z" style="fill-rule:nonzero;"/>
                <path d="M103.043,116.656C103.043,116.863 103.083,117.03 103.163,117.156C103.243,117.283 103.37,117.346 103.543,117.346C103.696,117.346 103.82,117.288 103.913,117.171C104.006,117.055 104.053,116.903 104.053,116.716L104.053,114.746C104.053,114.586 104.005,114.455 103.908,114.351C103.811,114.248 103.69,114.196 103.543,114.196C103.35,114.196 103.218,114.256 103.148,114.376C103.078,114.496 103.043,114.636 103.043,114.796L103.043,116.656ZM104.053,118.306L104.053,117.846C103.986,117.92 103.923,117.988 103.863,118.051C103.803,118.115 103.736,118.17 103.663,118.216C103.59,118.263 103.506,118.3 103.413,118.326C103.32,118.353 103.21,118.366 103.083,118.366C102.656,118.366 102.36,118.206 102.193,117.886C102.133,117.773 102.09,117.633 102.063,117.466C102.036,117.3 102.023,117.076 102.023,116.796L102.023,114.866C102.023,114.5 102.033,114.23 102.053,114.056C102.093,113.723 102.25,113.473 102.523,113.306C102.65,113.22 102.84,113.176 103.093,113.176C103.293,113.176 103.471,113.221 103.628,113.311C103.785,113.401 103.92,113.53 104.033,113.696L104.053,113.696L104.053,111.186L105.073,111.186L105.073,118.306L104.053,118.306Z" style="fill-rule:nonzero;"/>
                <path d="M108.863,116.156L106.843,116.156L106.843,116.846C106.843,117.006 106.888,117.13 106.978,117.216C107.068,117.303 107.19,117.346 107.343,117.346C107.536,117.346 107.665,117.29 107.728,117.176C107.791,117.063 107.83,116.95 107.843,116.836L108.863,116.836C108.863,117.283 108.726,117.643 108.453,117.916C108.32,118.056 108.16,118.166 107.973,118.246C107.786,118.326 107.576,118.366 107.343,118.366C107.023,118.366 106.751,118.3 106.528,118.166C106.305,118.033 106.133,117.856 106.013,117.636C105.94,117.503 105.89,117.35 105.863,117.176C105.836,117.003 105.823,116.813 105.823,116.606L105.823,114.936C105.823,114.73 105.836,114.54 105.863,114.366C105.89,114.193 105.94,114.04 106.013,113.906C106.133,113.686 106.305,113.51 106.528,113.376C106.751,113.243 107.023,113.176 107.343,113.176C107.576,113.176 107.788,113.216 107.978,113.296C108.168,113.376 108.33,113.486 108.463,113.626C108.73,113.926 108.863,114.303 108.863,114.756L108.863,116.156ZM106.843,115.356L107.843,115.356L107.843,114.776C107.843,114.583 107.798,114.438 107.708,114.341C107.618,114.245 107.496,114.196 107.343,114.196C107.19,114.196 107.068,114.245 106.978,114.341C106.888,114.438 106.843,114.583 106.843,114.776L106.843,115.356Z" style="fill-rule:nonzero;"/>
            </g>
            <g transform="matrix(1,0,0,1,-234.494,124.926)">
                <text x="91.983px" y="118.306px" style="font-family:'DINCondensed-Bold', 'DIN Condensed';font-weight:700;font-stretch:condensed;font-size:10px;">mode</text>
            </g>
        </g>
        <g id="Display-oled-80x120" serif:id="Display#oled$80x120" transform="matrix(1.66681,0,0,5.1039,-260.845,-391.742)">
            <rect x="87.136" y="70.02" width="47.996" height="23.511" style="fill:rgb(19,19,19);"/>
        </g>
    </g>
    <g id="Channel8" transform="matrix(1,0,0,1,25.7061,-56.0112)">
        <g id="Strip-meter-5" serif:id="Strip#meter$5" transform="matrix(0.0370421,0,0,0.160516,192.205,321.363)">
            <rect x="53.94" y="106.916" width="161.978" height="161.978" style="fill:rgb(102,126,153);"/>
        </g>
        <g id="Output-output" serif:id="Output#output" transform="matrix(0.175002,0,0,0.175002,154.654,318.641)">
            <rect x="53.94" y="106.916" width="161.978" height="161.978" style="fill:rgb(77,77,77);"/>
        </g>
        <g id="Value-lcd-3" serif:id="Value#lcd$3" transform="matrix(0.779107,0,0,0.846667,-27.4695,92.9601)">
            <rect x="173.071" y="291.218" width="64.141" height="28.346" style="fill:rgb(13,13,13);"/>
        </g>
        <g id="Pass-input1" serif:id="Pass#input" transform="matrix(0.175002,0,0,0.175002,67.3496,318.641)">
            <rect x="53.94" y="106.916" width="161.978" height="161.978" style="fill:rgb(204,204,204);"/>
        </g>
        <g transform="matrix(1,0,0,1,-18.4974,238.914)">
            <path d="M90.742,109.25C90.742,109.026 90.662,108.837 90.502,108.682C90.342,108.528 90.155,108.45 89.942,108.45C89.729,108.45 89.542,108.528 89.382,108.682C89.222,108.837 89.142,109.026 89.142,109.25L89.142,110.914C89.142,111.138 89.222,111.328 89.382,111.482C89.542,111.637 89.729,111.714 89.942,111.714C90.155,111.714 90.342,111.637 90.502,111.482C90.662,111.328 90.742,111.138 90.742,110.914L90.742,109.25ZM87.51,109.89C87.51,109.581 87.521,109.317 87.542,109.098C87.563,108.88 87.601,108.69 87.654,108.53C87.707,108.37 87.769,108.226 87.838,108.098C87.907,107.97 87.995,107.837 88.102,107.698C88.315,107.421 88.582,107.205 88.902,107.05C89.222,106.896 89.569,106.818 89.942,106.818C90.315,106.818 90.662,106.896 90.982,107.05C91.302,107.205 91.569,107.421 91.782,107.698C91.889,107.837 91.979,107.97 92.054,108.098C92.129,108.226 92.193,108.37 92.246,108.53C92.299,108.69 92.334,108.88 92.35,109.098C92.366,109.317 92.374,109.581 92.374,109.89C92.374,110.232 92.369,110.52 92.358,110.754C92.347,110.989 92.315,111.197 92.262,111.378C92.209,111.56 92.126,111.722 92.014,111.866C91.902,112.01 91.75,112.162 91.558,112.322C91.75,112.472 91.902,112.621 92.014,112.77C92.126,112.92 92.209,113.096 92.262,113.298C92.315,113.501 92.347,113.749 92.358,114.042C92.369,114.336 92.374,114.696 92.374,115.122C92.374,115.474 92.366,115.765 92.35,115.994C92.334,116.224 92.31,116.424 92.278,116.594C92.246,116.765 92.201,116.909 92.142,117.026C92.083,117.144 92.011,117.266 91.926,117.394C91.745,117.672 91.489,117.909 91.158,118.106C90.827,118.304 90.422,118.402 89.942,118.402C89.462,118.402 89.057,118.304 88.726,118.106C88.395,117.909 88.139,117.672 87.958,117.394C87.873,117.266 87.801,117.144 87.742,117.026C87.683,116.909 87.638,116.765 87.606,116.594C87.574,116.424 87.55,116.224 87.534,115.994C87.518,115.765 87.51,115.474 87.51,115.122C87.51,114.696 87.515,114.336 87.526,114.042C87.537,113.749 87.569,113.501 87.622,113.298C87.675,113.096 87.758,112.92 87.87,112.77C87.982,112.621 88.134,112.472 88.326,112.322C88.134,112.162 87.982,112.01 87.87,111.866C87.758,111.722 87.675,111.56 87.622,111.378C87.569,111.197 87.537,110.989 87.526,110.754C87.515,110.52 87.51,110.232 87.51,109.89ZM90.742,113.73C90.742,113.506 90.662,113.317 90.502,113.162C90.342,113.008 90.155,112.93 89.942,112.93C89.729,112.93 89.542,113.008 89.382,113.162C89.222,113.317 89.142,113.506 89.142,113.73L89.142,115.97C89.142,116.194 89.222,116.384 89.382,116.538C89.542,116.693 89.729,116.77 89.942,116.77C90.155,116.77 90.342,116.693 90.502,116.538C90.662,116.384 90.742,116.194 90.742,115.97L90.742,113.73Z" style="fill-rule:nonzero;"/>
        </g>
        <g transform="matrix(1,0,0,1,-18.4974,238.914)">
            <text x="86.966px" y="118.306px" style="font-family:'DINCondensed-Bold', 'DIN Condensed';font-weight:700;font-stretch:condensed;font-size:16px;">8</text>
        </g>
    </g>
    <g id="Channel7" transform="matrix(1,0,0,1,26.1061,-91.9372)">
        <g id="Strip-meter-51" serif:id="Strip#meter$5" transform="matrix(0.0370421,0,0,0.160516,192.205,321.363)">
            <rect x="53.94" y="106.916" width="161.978" height="161.978" style="fill:rgb(102,126,153);"/>
        </g>
        <g id="Output-output1" serif:id="Output#output" transform="matrix(0.175002,0,0,0.175002,154.654,318.641)">
            <rect x="53.94" y="106.916" width="161.978" height="161.978" style="fill:rgb(77,77,77);"/>
        </g>
        <g id="Value-lcd-31" serif:id="Value#lcd$3" transform="matrix(0.779107,0,0,0.846667,-27.4695,92.9601)">
            <rect x="173.071" y="291.218" width="64.141" height="28.346" style="fill:rgb(13,13,13);"/>
        </g>
        <g id="Pass-input2" serif:id="Pass#input" transform="matrix(0.175002,0,0,0.175002,67.3496,318.641)">
            <rect x="53.94" y="106.916" width="161.978" height="161.978" style="fill:rgb(204,204,204);"/>
        </g>
        <g transform="matrix(1,0,0,1,-18.4974,238.914)">
            <path d="M87.878,118.306L90.742,108.45L88.95,108.45L88.95,109.762L87.51,109.762L87.51,106.914L92.374,106.914L92.374,108.546L89.606,118.306L87.878,118.306Z" style="fill-rule:nonzero;"/>
        </g>
        <g transform="matrix(1,0,0,1,-18.4974,238.914)">
            <text x="86.966px" y="118.306px" style="font-family:'DINCondensed-Bold', 'DIN Condensed';font-weight:700;font-stretch:condensed;font-size:16px;">7</text>
        </g>
    </g>
    <g id="Channel6" transform="matrix(1,0,0,1,26.1061,-127.863)">
        <g id="Strip-meter-52" serif:id="Strip#meter$5" transform="matrix(0.0370421,0,0,0.160516,192.205,321.363)">
            <rect x="53.94" y="106.916" width="161.978" height="161.978" style="fill:rgb(102,126,153);"/>
        </g>
        <g id="Output-output2" serif:id="Output#output" transform="matrix(0.175002,0,0,0.175002,154.654,318.641)">
            <rect x="53.94" y="106.916" width="161.978" height="161.978" style="fill:rgb(77,77,77);"/>
        </g>
        <g id="Value-lcd-32" serif:id="Value#lcd$3" transform="matrix(0.779107,0,0,0.846667,-27.4695,92.9601)">
            <rect x="173.071" y="291.218" width="64.141" height="28.346" style="fill:rgb(13,13,13);"/>
        </g>
        <g id="Pass-input3" serif:id="Pass#input" transform="matrix(0.175002,0,0,0.175002,67.3496,318.641)">
            <rect x="53.94" y="106.916" width="161.978" height="161.978" style="fill:rgb(204,204,204);"/>
        </g>
        <g transform="matrix(1,0,0,1,-18.4974,238.914)">
            <path d="M91.782,106.914L89.926,111.698L89.958,111.73C90.011,111.688 90.094,111.653 90.206,111.626C90.318,111.6 90.465,111.586 90.646,111.586C90.934,111.586 91.201,111.656 91.446,111.794C91.691,111.933 91.883,112.109 92.022,112.322C92.097,112.44 92.155,112.557 92.198,112.674C92.241,112.792 92.278,112.946 92.31,113.138C92.331,113.33 92.347,113.573 92.358,113.866C92.369,114.16 92.374,114.53 92.374,114.978C92.374,115.352 92.369,115.658 92.358,115.898C92.347,116.138 92.331,116.338 92.31,116.498C92.278,116.669 92.238,116.813 92.19,116.93C92.142,117.048 92.081,117.17 92.006,117.298C91.793,117.65 91.507,117.922 91.15,118.114C90.793,118.306 90.39,118.402 89.942,118.402C89.494,118.402 89.094,118.304 88.742,118.106C88.39,117.909 88.107,117.64 87.894,117.298C87.809,117.17 87.742,117.048 87.694,116.93C87.646,116.813 87.611,116.669 87.59,116.498C87.558,116.338 87.537,116.138 87.526,115.898C87.515,115.658 87.51,115.352 87.51,114.978C87.51,114.626 87.515,114.336 87.526,114.106C87.537,113.877 87.553,113.677 87.574,113.506C87.595,113.346 87.627,113.2 87.67,113.066C87.713,112.933 87.761,112.792 87.814,112.642L89.958,106.914L91.782,106.914ZM90.742,113.842C90.742,113.597 90.662,113.4 90.502,113.25C90.342,113.101 90.155,113.026 89.942,113.026C89.729,113.026 89.542,113.101 89.382,113.25C89.222,113.4 89.142,113.597 89.142,113.842L89.142,115.954C89.142,116.2 89.222,116.397 89.382,116.546C89.542,116.696 89.729,116.77 89.942,116.77C90.155,116.77 90.342,116.696 90.502,116.546C90.662,116.397 90.742,116.2 90.742,115.954L90.742,113.842Z" style="fill-rule:nonzero;"/>
        </g>
        <g transform="matrix(1,0,0,1,-18.4974,238.914)">
            <text x="86.966px" y="118.306px" style="font-family:'DINCondensed-Bold', 'DIN Condensed';font-weight:700;font-stretch:condensed;font-size:16px;">6</text>
        </g>
    </g>
    <g id="Channel5" transform="matrix(1,0,0,1,26.1061,-163.789)">
        <g id="Strip-meter-53" serif:id="Strip#meter$5" transform="matrix(0.0370421,0,0,0.160516,192.205,321.363)">
            <rect x="53.94" y="106.916" width="161.978" height="161.978" style="fill:rgb(102,126,153);"/>
        </g>
        <g id="Output-output3" serif:id="Output#output" transform="matrix(0.175002,0,0,0.175002,154.654,318.641)">
            <rect x="53.94" y="106.916" width="161.978" height="161.978" style="fill:rgb(77,77,77);"/>
        </g>
        <g id="Value-lcd-33" serif:id="Value#lcd$3" transform="matrix(0.779107,0,0,0.846667,-27.4695,92.9601)">
            <rect x="173.071" y="291.218" width="64.141" height="28.346" style="fill:rgb(13,13,13);"/>
        </g>
        <g id="Pass-input4" serif:id="Pass#input" transform="matrix(0.175002,0,0,0.175002,67.3496,318.641)">
            <rect x="53.94" y="106.916" width="161.978" height="161.978" style="fill:rgb(204,204,204);"/>
        </g>
        <g transform="matrix(1,0,0,1,-18.4974,238.914)">
            <path d="M92.374,106.914L92.374,108.45L89.142,108.45L89.142,111.522C89.291,111.373 89.483,111.248 89.718,111.146C89.953,111.045 90.214,110.994 90.502,110.994C91.057,110.994 91.507,111.162 91.854,111.498C92.201,111.834 92.374,112.338 92.374,113.01L92.374,115.954C92.374,116.338 92.307,116.68 92.174,116.978C92.041,117.277 91.862,117.533 91.638,117.746C91.414,117.96 91.155,118.122 90.862,118.234C90.569,118.346 90.262,118.402 89.942,118.402C89.622,118.402 89.315,118.346 89.022,118.234C88.729,118.122 88.47,117.96 88.246,117.746C88.022,117.533 87.843,117.277 87.71,116.978C87.577,116.68 87.51,116.338 87.51,115.954L87.51,115.474L89.142,115.474L89.142,115.89C89.142,116.168 89.219,116.384 89.374,116.538C89.529,116.693 89.729,116.77 89.974,116.77C90.219,116.77 90.409,116.696 90.542,116.546C90.675,116.397 90.742,116.189 90.742,115.922L90.742,113.25C90.742,113.026 90.67,112.834 90.526,112.674C90.382,112.514 90.198,112.434 89.974,112.434C89.835,112.434 89.718,112.458 89.622,112.506C89.526,112.554 89.446,112.61 89.382,112.674C89.318,112.738 89.27,112.808 89.238,112.882C89.185,112.978 89.153,113.037 89.142,113.058L87.702,113.058L87.702,106.914L92.374,106.914Z" style="fill-rule:nonzero;"/>
        </g>
        <g transform="matrix(1,0,0,1,-18.4974,238.914)">
            <text x="86.966px" y="118.306px" style="font-family:'DINCondensed-Bold', 'DIN Condensed';font-weight:700;font-stretch:condensed;font-size:16px;">5</text>
        </g>
    </g>
    <g id="Channel4" transform="matrix(1,0,0,1,26.1061,-199.715)">
        <g id="Strip-meter-54" serif:id="Strip#meter$5" transform="matrix(0.0370421,0,0,0.160516,192.205,321.363)">
            <rect x="53.94" y="106.916" width="161.978" height="161.978" style="fill:rgb(102,126,153);"/>
        </g>
        <g id="Output-output4" serif:id="Output#output" transform="matrix(0.175002,0,0,0.175002,154.654,318.641)">
            <rect x="53.94" y="106.916" width="161.978" height="161.978" style="fill:rgb(77,77,77);"/>
        </g>
        <g id="Value-lcd-34" serif:id="Value#lcd$3" transform="matrix(0.779107,0,0,0.846667,-27.4695,92.9601)">
            <rect x="173.071" y="291.218" width="64.141" height="28.346" style="fill:rgb(13,13,13);"/>
        </g>
        <g id="Pass-input5" serif:id="Pass#input" transform="matrix(0.175002,0,0,0.175002,67.3496,318.641)">
            <rect x="53.94" y="106.916" width="161.978" height="161.978" style="fill:rgb(204,204,204);"/>
        </g>
        <g transform="matrix(1,0,0,1,-18.4974,238.914)">
            <path d="M90.358,118.306L90.358,116.61L87.11,116.61L87.11,115.074L89.462,106.914L91.19,106.914L88.742,115.074L90.358,115.074L90.358,111.826L91.99,111.826L91.99,115.074L92.774,115.074L92.774,116.61L91.99,116.61L91.99,118.306L90.358,118.306Z" style="fill-rule:nonzero;"/>
        </g>
        <g transform="matrix(1,0,0,1,-18.4974,238.914)">
            <text x="86.966px" y="118.306px" style="font-family:'DINCondensed-Bold', 'DIN Condensed';font-weight:700;font-stretch:condensed;font-size:16px;">4</text>
        </g>
    </g>
    <g id="Channel3" transform="matrix(1,0,0,1,26.1061,-235.642)">
        <g id="Strip-meter-55" serif:id="Strip#meter$5" transform="matrix(0.0370421,0,0,0.160516,192.205,321.363)">
            <rect x="53.94" y="106.916" width="161.978" height="161.978" style="fill:rgb(102,126,153);"/>
        </g>
        <g id="Output-output5" serif:id="Output#output" transform="matrix(0.175002,0,0,0.175002,154.654,318.641)">
            <rect x="53.94" y="106.916" width="161.978" height="161.978" style="fill:rgb(77,77,77);"/>
        </g>
        <g id="Value-lcd-35" serif:id="Value#lcd$3" transform="matrix(0.779107,0,0,0.846667,-27.4695,92.9601)">
            <rect x="173.071" y="291.218" width="64.141" height="28.346" style="fill:rgb(13,13,13);"/>
        </g>
        <g id="Pass-input6" serif:id="Pass#input" transform="matrix(0.175002,0,0,0.175002,67.3496,318.641)">
            <rect x="53.94" y="106.916" width="161.978" height="161.978" style="fill:rgb(204,204,204);"/>
        </g>
        <g transform="matrix(1,0,0,1,-18.4974,238.914)">
            <path d="M89.446,111.714C89.937,111.714 90.275,111.656 90.462,111.538C90.649,111.421 90.742,111.149 90.742,110.722L90.742,109.25C90.742,109.016 90.67,108.824 90.526,108.674C90.382,108.525 90.187,108.45 89.942,108.45C89.654,108.45 89.449,108.541 89.326,108.722C89.203,108.904 89.142,109.08 89.142,109.25L89.142,110.178L87.51,110.178L87.51,109.234C87.51,108.904 87.574,108.589 87.702,108.29C87.83,107.992 88.006,107.736 88.23,107.522C88.454,107.309 88.715,107.138 89.014,107.01C89.313,106.882 89.633,106.818 89.974,106.818C90.422,106.818 90.793,106.906 91.086,107.082C91.379,107.258 91.601,107.437 91.75,107.618C91.857,107.746 91.95,107.874 92.03,108.002C92.11,108.13 92.177,108.285 92.23,108.466C92.326,108.818 92.374,109.341 92.374,110.034C92.374,110.429 92.366,110.749 92.35,110.994C92.334,111.24 92.294,111.442 92.23,111.602C92.155,111.773 92.051,111.917 91.918,112.034C91.785,112.152 91.601,112.28 91.366,112.418C91.622,112.578 91.817,112.728 91.95,112.866C92.083,113.005 92.182,113.165 92.246,113.346C92.31,113.538 92.347,113.765 92.358,114.026C92.369,114.288 92.374,114.621 92.374,115.026C92.374,115.4 92.366,115.709 92.35,115.954C92.334,116.2 92.31,116.402 92.278,116.562C92.246,116.733 92.203,116.877 92.15,116.994C92.097,117.112 92.027,117.234 91.942,117.362C91.739,117.661 91.481,117.909 91.166,118.106C90.851,118.304 90.438,118.402 89.926,118.402C89.67,118.402 89.398,118.36 89.11,118.274C88.822,118.189 88.561,118.05 88.326,117.858C88.091,117.666 87.897,117.416 87.742,117.106C87.587,116.797 87.51,116.418 87.51,115.97L87.51,115.042L89.142,115.042L89.142,115.89C89.142,116.146 89.214,116.357 89.358,116.522C89.502,116.688 89.697,116.77 89.942,116.77C90.187,116.77 90.382,116.688 90.526,116.522C90.67,116.357 90.742,116.136 90.742,115.858L90.742,114.226C90.742,113.778 90.657,113.485 90.486,113.346C90.39,113.261 90.259,113.208 90.094,113.186C89.929,113.165 89.713,113.154 89.446,113.154L89.446,111.714Z" style="fill-rule:nonzero;"/>
        </g>
        <g transform="matrix(1,0,0,1,-18.4974,238.914)">
            <text x="86.966px" y="118.306px" style="font-family:'DINCondensed-Bold', 'DIN Condensed';font-weight:700;font-stretch:condensed;font-size:16px;">3</text>
        </g>
    </g>
    <g id="Channel2" transform="matrix(1,0,0,1,26.1061,-271.568)">
        <g id="Strip-meter-56" serif:id="Strip#meter$5" transform="matrix(0.0370421,0,0,0.160516,192.205,321.363)">
            <rect x="53.94" y="106.916" width="161.978" height="161.978" style="fill:rgb(102,126,153);"/>
        </g>
        <g id="Output-output6" serif:id="Output#output" transform="matrix(0.175002,0,0,0.175002,154.654,318.641)">
            <rect x="53.94" y="106.916" width="161.978" height="161.978" style="fill:rgb(77,77,77);"/>
        </g>
        <g id="Value-lcd-36" serif:id="Value#lcd$3" transform="matrix(0.779107,0,0,0.846667,-27.4695,92.9601)">
            <rect x="173.071" y="291.218" width="64.141" height="28.346" style="fill:rgb(13,13,13);"/>
        </g>
        <g id="Pass-input7" serif:id="Pass#input" transform="matrix(0.175002,0,0,0.175002,67.3496,318.641)">
            <rect x="53.94" y="106.916" width="161.978" height="161.978" style="fill:rgb(204,204,204);"/>
        </g>
        <g transform="matrix(1,0,0,1,-18.4974,238.914)">
            <path d="M87.51,118.306L87.51,116.77L90.454,111.218C90.603,110.941 90.689,110.698 90.71,110.49C90.731,110.282 90.742,110.024 90.742,109.714C90.742,109.576 90.739,109.429 90.734,109.274C90.729,109.12 90.699,108.984 90.646,108.866C90.593,108.749 90.513,108.65 90.406,108.57C90.299,108.49 90.145,108.45 89.942,108.45C89.697,108.45 89.502,108.52 89.358,108.658C89.214,108.797 89.142,109 89.142,109.266L89.142,110.194L87.51,110.194L87.51,109.298C87.51,108.957 87.574,108.637 87.702,108.338C87.83,108.04 88.006,107.778 88.23,107.554C88.443,107.33 88.699,107.152 88.998,107.018C89.297,106.885 89.617,106.818 89.958,106.818C90.385,106.818 90.75,106.896 91.054,107.05C91.358,107.205 91.611,107.416 91.814,107.682C92.006,107.949 92.147,108.253 92.238,108.594C92.329,108.936 92.374,109.298 92.374,109.682C92.374,109.96 92.369,110.192 92.358,110.378C92.347,110.565 92.326,110.744 92.294,110.914C92.262,111.085 92.209,111.256 92.134,111.426C92.059,111.597 91.958,111.805 91.83,112.05L89.43,116.674L92.374,116.674L92.374,118.306L87.51,118.306Z" style="fill-rule:nonzero;"/>
        </g>
        <g transform="matrix(1,0,0,1,-18.4974,238.914)">
            <text x="86.966px" y="118.306px" style="font-family:'DINCondensed-Bold', 'DIN Condensed';font-weight:700;font-stretch:condensed;font-size:16px;">2</text>
        </g>
    </g>
    <g id="Channel1" transform="matrix(1,0,0,1,26.1061,-307.494)">
        <g id="Strip-meter-57" serif:id="Strip#meter$5" transform="matrix(0.0370421,0,0,0.160516,192.205,321.363)">
            <rect x="53.94" y="106.916" width="161.978" height="161.978" style="fill:rgb(102,126,153);"/>
        </g>
        <g id="Output-output7" serif:id="Output#output" transform="matrix(0.175002,0,0,0.175002,154.654,318.641)">
            <rect x="53.94" y="106.916" width="161.978" height="161.978" style="fill:rgb(77,77,77);"/>
        </g>
        <g id="Value-lcd-37" serif:id="Value#lcd$3" transform="matrix(0.780229,0,0,0.846667,-27.6636,92.9601)">
            <rect x="173.071" y="291.218" width="64.141" height="28.346" style="fill:rgb(13,13,13);"/>
        </g>
        <g id="Pass-input8" serif:id="Pass#input" transform="matrix(0.175002,0,0,0.175002,67.3496,318.641)">
            <rect x="53.94" y="106.916" width="161.978" height="161.978" style="fill:rgb(204,204,204);"/>
        </g>
        <g transform="matrix(1,0,0,1,-18.4974,238.914)">
            <path d="M89.446,118.306L89.446,108.642L87.814,109.842L87.814,108.114L89.446,106.914L91.078,106.914L91.078,118.306L89.446,118.306Z" style="fill-rule:nonzero;"/>
        </g>
        <g transform="matrix(1,0,0,1,-18.4974,238.914)">
            <text x="86.966px" y="118.306px" style="font-family:'DINCondensed-Bold', 'DIN Condensed';font-weight:700;font-stretch:condensed;font-size:16px;">1</text>
        </g>
    </g>
</svg>
