<?xml version="1.0" encoding="UTF-8" standalone="no"?>
<!DOCTYPE svg PUBLIC "-//W3C//DTD SVG 1.1//EN" "http://www.w3.org/Graphics/SVG/1.1/DTD/svg11.dtd">
<svg width="100%" height="100%" viewBox="0 0 120 380" version="1.1" xmlns="http://www.w3.org/2000/svg" xmlns:xlink="http://www.w3.org/1999/xlink" xml:space="preserve" xmlns:serif="http://www.serif.com/" style="fill-rule:evenodd;clip-rule:evenodd;stroke-linecap:round;stroke-linejoin:round;stroke-miterlimit:1.5;">
    <g>
        <g transform="matrix(0.576681,0,0,2.01589,-30.3082,-120.797)">
            <rect x="52.556" y="59.922" width="208.087" height="188.503" style="fill:rgb(102,126,153);"/>
        </g>
        <g transform="matrix(1,0,0,1,51.1686,177.489)">
            <g transform="matrix(2.91857,0,0,2.91857,-148.538,-153.931)">
                <circle cx="77.421" cy="80.232" r="19.592" style="fill:none;stroke:rgb(230,230,230);stroke-width:0.34px;"/>
            </g>
            <g transform="matrix(2.1373,0,0,2.1373,-88.0512,-91.248)">
                <circle cx="77.421" cy="80.232" r="19.592" style="fill:none;stroke:rgb(218,218,218);stroke-width:0.47px;"/>
            </g>
            <g transform="matrix(1.45026,0,0,1.45026,-34.8599,-36.1255)">
                <circle cx="77.421" cy="80.232" r="19.592" style="fill:none;stroke:rgb(205,205,205);stroke-width:0.69px;"/>
            </g>
            <circle cx="77.421" cy="80.232" r="19.592" style="fill:none;stroke:rgb(193,193,193);stroke-width:1px;"/>
        </g>
        <g transform="matrix(1,0,0,1,-48.215,-9.24226)">
            <g transform="matrix(2.91857,0,0,2.91857,-148.538,-153.931)">
                <circle cx="77.421" cy="80.232" r="19.592" style="fill:none;stroke:rgb(230,230,230);stroke-width:0.34px;"/>
            </g>
            <g transform="matrix(2.1373,0,0,2.1373,-88.0512,-91.248)">
                <circle cx="77.421" cy="80.232" r="19.592" style="fill:none;stroke:rgb(218,218,218);stroke-width:0.47px;"/>
            </g>
            <g transform="matrix(1.45026,0,0,1.45026,-34.8599,-36.1255)">
                <circle cx="77.421" cy="80.232" r="19.592" style="fill:none;stroke:rgb(205,205,205);stroke-width:0.69px;"/>
            </g>
            <circle cx="77.421" cy="80.232" r="19.592" style="fill:none;stroke:rgb(193,193,193);stroke-width:1px;"/>
        </g>
        <g transform="matrix(1,0,0,1,-86.011,130.938)">
            <g transform="matrix(2.91857,0,0,2.91857,-148.538,-153.931)">
                <circle cx="77.421" cy="80.232" r="19.592" style="fill:none;stroke:rgb(230,230,230);stroke-width:0.34px;"/>
            </g>
            <g transform="matrix(2.1373,0,0,2.1373,-88.0512,-91.248)">
                <circle cx="77.421" cy="80.232" r="19.592" style="fill:none;stroke:rgb(218,218,218);stroke-width:0.47px;"/>
            </g>
            <g transform="matrix(1.45026,0,0,1.45026,-34.8599,-36.1255)">
                <circle cx="77.421" cy="80.232" r="19.592" style="fill:none;stroke:rgb(205,205,205);stroke-width:0.69px;"/>
            </g>
            <circle cx="77.421" cy="80.232" r="19.592" style="fill:none;stroke:rgb(193,193,193);stroke-width:1px;"/>
        </g>
        <g transform="matrix(1,0,0,1,-18.5898,228.778)">
            <g transform="matrix(2.91857,0,0,2.91857,-148.538,-153.931)">
                <circle cx="77.421" cy="80.232" r="19.592" style="fill:none;stroke:rgb(230,230,230);stroke-width:0.34px;"/>
            </g>
            <g transform="matrix(2.1373,0,0,2.1373,-88.0512,-91.248)">
                <circle cx="77.421" cy="80.232" r="19.592" style="fill:none;stroke:rgb(218,218,218);stroke-width:0.47px;"/>
            </g>
            <g transform="matrix(1.45026,0,0,1.45026,-34.8599,-36.1255)">
                <circle cx="77.421" cy="80.232" r="19.592" style="fill:none;stroke:rgb(205,205,205);stroke-width:0.69px;"/>
            </g>
            <circle cx="77.421" cy="80.232" r="19.592" style="fill:none;stroke:rgb(193,193,193);stroke-width:1px;"/>
        </g>
        <g transform="matrix(1,0,0,1,20.2339,114.419)">
            <g transform="matrix(2.91857,0,0,2.91857,-148.538,-153.931)">
                <circle cx="77.421" cy="80.232" r="19.592" style="fill:none;stroke:rgb(230,230,230);stroke-width:0.34px;"/>
            </g>
            <g transform="matrix(2.1373,0,0,2.1373,-88.0512,-91.248)">
                <circle cx="77.421" cy="80.232" r="19.592" style="fill:none;stroke:rgb(218,218,218);stroke-width:0.47px;"/>
            </g>
            <g transform="matrix(1.45026,0,0,1.45026,-34.8599,-36.1255)">
                <circle cx="77.421" cy="80.232" r="19.592" style="fill:none;stroke:rgb(205,205,205);stroke-width:0.69px;"/>
            </g>
            <circle cx="77.421" cy="80.232" r="19.592" style="fill:none;stroke:rgb(193,193,193);stroke-width:1px;"/>
        </g>
        <g transform="matrix(1,0,0,1,26.8093,26.5589)">
            <g transform="matrix(2.91857,0,0,2.91857,-148.538,-153.931)">
                <circle cx="77.421" cy="80.232" r="19.592" style="fill:none;stroke:rgb(230,230,230);stroke-width:0.34px;"/>
            </g>
            <g transform="matrix(2.1373,0,0,2.1373,-88.0512,-91.248)">
                <circle cx="77.421" cy="80.232" r="19.592" style="fill:none;stroke:rgb(218,218,218);stroke-width:0.47px;"/>
            </g>
            <g transform="matrix(1.45026,0,0,1.45026,-34.8599,-36.1255)">
                <circle cx="77.421" cy="80.232" r="19.592" style="fill:none;stroke:rgb(205,205,205);stroke-width:0.69px;"/>
            </g>
            <circle cx="77.421" cy="80.232" r="19.592" style="fill:none;stroke:rgb(193,193,193);stroke-width:1px;"/>
        </g>
    </g>
    <g id="Channel8" transform="matrix(1,0,0,1,-53.1007,-26.1145)">
        <g id="Strip-meter-5" serif:id="Strip#meter$5" transform="matrix(0.0370421,0,0,0.160516,102.409,324.319)">
            <rect x="53.94" y="106.916" width="161.978" height="161.978" style="fill:rgb(102,126,153);"/>
        </g>
        <g id="Input-input" serif:id="Input#input" transform="matrix(0.175002,0,0,0.175002,64.5688,321.597)">
            <rect x="53.94" y="106.916" width="161.978" height="161.978" style="fill:rgb(204,204,204);"/>
        </g>
        <g id="Display-display-3" serif:id="Display#display$3" transform="matrix(1.04176,0,0,1.02078,22.3259,271.006)">
            <rect x="87.136" y="70.02" width="47.996" height="23.511" style="fill:rgb(19,19,19);"/>
        </g>
        <g transform="matrix(1,0,0,1,-21.8663,241.871)">
            <path d="M90.742,109.25C90.742,109.026 90.662,108.837 90.502,108.682C90.342,108.528 90.155,108.45 89.942,108.45C89.729,108.45 89.542,108.528 89.382,108.682C89.222,108.837 89.142,109.026 89.142,109.25L89.142,110.914C89.142,111.138 89.222,111.328 89.382,111.482C89.542,111.637 89.729,111.714 89.942,111.714C90.155,111.714 90.342,111.637 90.502,111.482C90.662,111.328 90.742,111.138 90.742,110.914L90.742,109.25ZM87.51,109.89C87.51,109.581 87.521,109.317 87.542,109.098C87.563,108.88 87.601,108.69 87.654,108.53C87.707,108.37 87.769,108.226 87.838,108.098C87.907,107.97 87.995,107.837 88.102,107.698C88.315,107.421 88.582,107.205 88.902,107.05C89.222,106.896 89.569,106.818 89.942,106.818C90.315,106.818 90.662,106.896 90.982,107.05C91.302,107.205 91.569,107.421 91.782,107.698C91.889,107.837 91.979,107.97 92.054,108.098C92.129,108.226 92.193,108.37 92.246,108.53C92.299,108.69 92.334,108.88 92.35,109.098C92.366,109.317 92.374,109.581 92.374,109.89C92.374,110.232 92.369,110.52 92.358,110.754C92.347,110.989 92.315,111.197 92.262,111.378C92.209,111.56 92.126,111.722 92.014,111.866C91.902,112.01 91.75,112.162 91.558,112.322C91.75,112.472 91.902,112.621 92.014,112.77C92.126,112.92 92.209,113.096 92.262,113.298C92.315,113.501 92.347,113.749 92.358,114.042C92.369,114.336 92.374,114.696 92.374,115.122C92.374,115.474 92.366,115.765 92.35,115.994C92.334,116.224 92.31,116.424 92.278,116.594C92.246,116.765 92.201,116.909 92.142,117.026C92.083,117.144 92.011,117.266 91.926,117.394C91.745,117.672 91.489,117.909 91.158,118.106C90.827,118.304 90.422,118.402 89.942,118.402C89.462,118.402 89.057,118.304 88.726,118.106C88.395,117.909 88.139,117.672 87.958,117.394C87.873,117.266 87.801,117.144 87.742,117.026C87.683,116.909 87.638,116.765 87.606,116.594C87.574,116.424 87.55,116.224 87.534,115.994C87.518,115.765 87.51,115.474 87.51,115.122C87.51,114.696 87.515,114.336 87.526,114.042C87.537,113.749 87.569,113.501 87.622,113.298C87.675,113.096 87.758,112.92 87.87,112.77C87.982,112.621 88.134,112.472 88.326,112.322C88.134,112.162 87.982,112.01 87.87,111.866C87.758,111.722 87.675,111.56 87.622,111.378C87.569,111.197 87.537,110.989 87.526,110.754C87.515,110.52 87.51,110.232 87.51,109.89ZM90.742,113.73C90.742,113.506 90.662,113.317 90.502,113.162C90.342,113.008 90.155,112.93 89.942,112.93C89.729,112.93 89.542,113.008 89.382,113.162C89.222,113.317 89.142,113.506 89.142,113.73L89.142,115.97C89.142,116.194 89.222,116.384 89.382,116.538C89.542,116.693 89.729,116.77 89.942,116.77C90.155,116.77 90.342,116.693 90.502,116.538C90.662,116.384 90.742,116.194 90.742,115.97L90.742,113.73Z" style="fill-rule:nonzero;"/>
        </g>
        <g transform="matrix(1,0,0,1,-21.8663,241.871)">
            <text x="86.966px" y="118.306px" style="font-family:'DINCondensed-Bold', 'DIN Condensed';font-weight:700;font-stretch:condensed;font-size:16px;">8</text>
        </g>
    </g>
    <g id="Channel7" transform="matrix(1,0,0,1,-53.1007,-62.5917)">
        <g id="Strip-meter-51" serif:id="Strip#meter$5" transform="matrix(0.0370421,0,0,0.160516,102.409,324.319)">
            <rect x="53.94" y="106.916" width="161.978" height="161.978" style="fill:rgb(102,126,153);"/>
        </g>
        <g id="Input-input1" serif:id="Input#input" transform="matrix(0.175002,0,0,0.175002,64.5688,321.597)">
            <rect x="53.94" y="106.916" width="161.978" height="161.978" style="fill:rgb(204,204,204);"/>
        </g>
        <g id="Display-display-31" serif:id="Display#display$3" transform="matrix(1.04176,0,0,1.02078,22.3259,271.006)">
            <rect x="87.136" y="70.02" width="47.996" height="23.511" style="fill:rgb(19,19,19);"/>
        </g>
        <g transform="matrix(1,0,0,1,-21.8663,241.871)">
            <path d="M87.878,118.306L90.742,108.45L88.95,108.45L88.95,109.762L87.51,109.762L87.51,106.914L92.374,106.914L92.374,108.546L89.606,118.306L87.878,118.306Z" style="fill-rule:nonzero;"/>
        </g>
        <g transform="matrix(1,0,0,1,-21.8663,241.871)">
            <text x="86.966px" y="118.306px" style="font-family:'DINCondensed-Bold', 'DIN Condensed';font-weight:700;font-stretch:condensed;font-size:16px;">7</text>
        </g>
    </g>
    <g id="Channel6" transform="matrix(1,0,0,1,-53.1007,-99.0689)">
        <g id="Strip-meter-52" serif:id="Strip#meter$5" transform="matrix(0.0370421,0,0,0.160516,102.409,324.319)">
            <rect x="53.94" y="106.916" width="161.978" height="161.978" style="fill:rgb(102,126,153);"/>
        </g>
        <g id="Input-input2" serif:id="Input#input" transform="matrix(0.175002,0,0,0.175002,64.5688,321.597)">
            <rect x="53.94" y="106.916" width="161.978" height="161.978" style="fill:rgb(204,204,204);"/>
        </g>
        <g id="Display-display-32" serif:id="Display#display$3" transform="matrix(1.04176,0,0,1.02078,22.3259,271.006)">
            <rect x="87.136" y="70.02" width="47.996" height="23.511" style="fill:rgb(19,19,19);"/>
        </g>
        <g transform="matrix(1,0,0,1,-21.8663,241.871)">
            <path d="M91.782,106.914L89.926,111.698L89.958,111.73C90.011,111.688 90.094,111.653 90.206,111.626C90.318,111.6 90.465,111.586 90.646,111.586C90.934,111.586 91.201,111.656 91.446,111.794C91.691,111.933 91.883,112.109 92.022,112.322C92.097,112.44 92.155,112.557 92.198,112.674C92.241,112.792 92.278,112.946 92.31,113.138C92.331,113.33 92.347,113.573 92.358,113.866C92.369,114.16 92.374,114.53 92.374,114.978C92.374,115.352 92.369,115.658 92.358,115.898C92.347,116.138 92.331,116.338 92.31,116.498C92.278,116.669 92.238,116.813 92.19,116.93C92.142,117.048 92.081,117.17 92.006,117.298C91.793,117.65 91.507,117.922 91.15,118.114C90.793,118.306 90.39,118.402 89.942,118.402C89.494,118.402 89.094,118.304 88.742,118.106C88.39,117.909 88.107,117.64 87.894,117.298C87.809,117.17 87.742,117.048 87.694,116.93C87.646,116.813 87.611,116.669 87.59,116.498C87.558,116.338 87.537,116.138 87.526,115.898C87.515,115.658 87.51,115.352 87.51,114.978C87.51,114.626 87.515,114.336 87.526,114.106C87.537,113.877 87.553,113.677 87.574,113.506C87.595,113.346 87.627,113.2 87.67,113.066C87.713,112.933 87.761,112.792 87.814,112.642L89.958,106.914L91.782,106.914ZM90.742,113.842C90.742,113.597 90.662,113.4 90.502,113.25C90.342,113.101 90.155,113.026 89.942,113.026C89.729,113.026 89.542,113.101 89.382,113.25C89.222,113.4 89.142,113.597 89.142,113.842L89.142,115.954C89.142,116.2 89.222,116.397 89.382,116.546C89.542,116.696 89.729,116.77 89.942,116.77C90.155,116.77 90.342,116.696 90.502,116.546C90.662,116.397 90.742,116.2 90.742,115.954L90.742,113.842Z" style="fill-rule:nonzero;"/>
        </g>
        <g transform="matrix(1,0,0,1,-21.8663,241.871)">
            <text x="86.966px" y="118.306px" style="font-family:'DINCondensed-Bold', 'DIN Condensed';font-weight:700;font-stretch:condensed;font-size:16px;">6</text>
        </g>
    </g>
    <g id="Channel5" transform="matrix(1,0,0,1,-53.1007,-135.546)">
        <g id="Strip-meter-53" serif:id="Strip#meter$5" transform="matrix(0.0370421,0,0,0.160516,102.409,324.319)">
            <rect x="53.94" y="106.916" width="161.978" height="161.978" style="fill:rgb(102,126,153);"/>
        </g>
        <g id="Input-input3" serif:id="Input#input" transform="matrix(0.175002,0,0,0.175002,64.5688,321.597)">
            <rect x="53.94" y="106.916" width="161.978" height="161.978" style="fill:rgb(204,204,204);"/>
        </g>
        <g id="Display-display-33" serif:id="Display#display$3" transform="matrix(1.04176,0,0,1.02078,22.3259,271.006)">
            <rect x="87.136" y="70.02" width="47.996" height="23.511" style="fill:rgb(19,19,19);"/>
        </g>
        <g transform="matrix(1,0,0,1,-21.8663,241.871)">
            <path d="M92.374,106.914L92.374,108.45L89.142,108.45L89.142,111.522C89.291,111.373 89.483,111.248 89.718,111.146C89.953,111.045 90.214,110.994 90.502,110.994C91.057,110.994 91.507,111.162 91.854,111.498C92.201,111.834 92.374,112.338 92.374,113.01L92.374,115.954C92.374,116.338 92.307,116.68 92.174,116.978C92.041,117.277 91.862,117.533 91.638,117.746C91.414,117.96 91.155,118.122 90.862,118.234C90.569,118.346 90.262,118.402 89.942,118.402C89.622,118.402 89.315,118.346 89.022,118.234C88.729,118.122 88.47,117.96 88.246,117.746C88.022,117.533 87.843,117.277 87.71,116.978C87.577,116.68 87.51,116.338 87.51,115.954L87.51,115.474L89.142,115.474L89.142,115.89C89.142,116.168 89.219,116.384 89.374,116.538C89.529,116.693 89.729,116.77 89.974,116.77C90.219,116.77 90.409,116.696 90.542,116.546C90.675,116.397 90.742,116.189 90.742,115.922L90.742,113.25C90.742,113.026 90.67,112.834 90.526,112.674C90.382,112.514 90.198,112.434 89.974,112.434C89.835,112.434 89.718,112.458 89.622,112.506C89.526,112.554 89.446,112.61 89.382,112.674C89.318,112.738 89.27,112.808 89.238,112.882C89.185,112.978 89.153,113.037 89.142,113.058L87.702,113.058L87.702,106.914L92.374,106.914Z" style="fill-rule:nonzero;"/>
        </g>
        <g transform="matrix(1,0,0,1,-21.8663,241.871)">
            <text x="86.966px" y="118.306px" style="font-family:'DINCondensed-Bold', 'DIN Condensed';font-weight:700;font-stretch:condensed;font-size:16px;">5</text>
        </g>
    </g>
    <g id="Channel4" transform="matrix(1,0,0,1,-53.1007,-172.023)">
        <g id="Strip-meter-54" serif:id="Strip#meter$5" transform="matrix(0.0370421,0,0,0.160516,102.409,324.319)">
            <rect x="53.94" y="106.916" width="161.978" height="161.978" style="fill:rgb(102,126,153);"/>
        </g>
        <g id="Input-input4" serif:id="Input#input" transform="matrix(0.175002,0,0,0.175002,64.5688,321.597)">
            <rect x="53.94" y="106.916" width="161.978" height="161.978" style="fill:rgb(204,204,204);"/>
        </g>
        <g id="Display-display-34" serif:id="Display#display$3" transform="matrix(1.04176,0,0,1.02078,22.3259,271.006)">
            <rect x="87.136" y="70.02" width="47.996" height="23.511" style="fill:rgb(19,19,19);"/>
        </g>
        <g transform="matrix(1,0,0,1,-21.8663,241.871)">
            <path d="M90.358,118.306L90.358,116.61L87.11,116.61L87.11,115.074L89.462,106.914L91.19,106.914L88.742,115.074L90.358,115.074L90.358,111.826L91.99,111.826L91.99,115.074L92.774,115.074L92.774,116.61L91.99,116.61L91.99,118.306L90.358,118.306Z" style="fill-rule:nonzero;"/>
        </g>
        <g transform="matrix(1,0,0,1,-21.8663,241.871)">
            <text x="86.966px" y="118.306px" style="font-family:'DINCondensed-Bold', 'DIN Condensed';font-weight:700;font-stretch:condensed;font-size:16px;">4</text>
        </g>
    </g>
    <g id="Channel3" transform="matrix(1,0,0,1,-53.1007,-208.5)">
        <g id="Strip-meter-55" serif:id="Strip#meter$5" transform="matrix(0.0370421,0,0,0.160516,102.409,324.319)">
            <rect x="53.94" y="106.916" width="161.978" height="161.978" style="fill:rgb(102,126,153);"/>
        </g>
        <g id="Input-input5" serif:id="Input#input" transform="matrix(0.175002,0,0,0.175002,64.5688,321.597)">
            <rect x="53.94" y="106.916" width="161.978" height="161.978" style="fill:rgb(204,204,204);"/>
        </g>
        <g id="Display-display-35" serif:id="Display#display$3" transform="matrix(1.04176,0,0,1.02078,22.3259,271.006)">
            <rect x="87.136" y="70.02" width="47.996" height="23.511" style="fill:rgb(19,19,19);"/>
        </g>
        <g transform="matrix(1,0,0,1,-21.8663,241.871)">
            <path d="M89.446,111.714C89.937,111.714 90.275,111.656 90.462,111.538C90.649,111.421 90.742,111.149 90.742,110.722L90.742,109.25C90.742,109.016 90.67,108.824 90.526,108.674C90.382,108.525 90.187,108.45 89.942,108.45C89.654,108.45 89.449,108.541 89.326,108.722C89.203,108.904 89.142,109.08 89.142,109.25L89.142,110.178L87.51,110.178L87.51,109.234C87.51,108.904 87.574,108.589 87.702,108.29C87.83,107.992 88.006,107.736 88.23,107.522C88.454,107.309 88.715,107.138 89.014,107.01C89.313,106.882 89.633,106.818 89.974,106.818C90.422,106.818 90.793,106.906 91.086,107.082C91.379,107.258 91.601,107.437 91.75,107.618C91.857,107.746 91.95,107.874 92.03,108.002C92.11,108.13 92.177,108.285 92.23,108.466C92.326,108.818 92.374,109.341 92.374,110.034C92.374,110.429 92.366,110.749 92.35,110.994C92.334,111.24 92.294,111.442 92.23,111.602C92.155,111.773 92.051,111.917 91.918,112.034C91.785,112.152 91.601,112.28 91.366,112.418C91.622,112.578 91.817,112.728 91.95,112.866C92.083,113.005 92.182,113.165 92.246,113.346C92.31,113.538 92.347,113.765 92.358,114.026C92.369,114.288 92.374,114.621 92.374,115.026C92.374,115.4 92.366,115.709 92.35,115.954C92.334,116.2 92.31,116.402 92.278,116.562C92.246,116.733 92.203,116.877 92.15,116.994C92.097,117.112 92.027,117.234 91.942,117.362C91.739,117.661 91.481,117.909 91.166,118.106C90.851,118.304 90.438,118.402 89.926,118.402C89.67,118.402 89.398,118.36 89.11,118.274C88.822,118.189 88.561,118.05 88.326,117.858C88.091,117.666 87.897,117.416 87.742,117.106C87.587,116.797 87.51,116.418 87.51,115.97L87.51,115.042L89.142,115.042L89.142,115.89C89.142,116.146 89.214,116.357 89.358,116.522C89.502,116.688 89.697,116.77 89.942,116.77C90.187,116.77 90.382,116.688 90.526,116.522C90.67,116.357 90.742,116.136 90.742,115.858L90.742,114.226C90.742,113.778 90.657,113.485 90.486,113.346C90.39,113.261 90.259,113.208 90.094,113.186C89.929,113.165 89.713,113.154 89.446,113.154L89.446,111.714Z" style="fill-rule:nonzero;"/>
        </g>
        <g transform="matrix(1,0,0,1,-21.8663,241.871)">
            <text x="86.966px" y="118.306px" style="font-family:'DINCondensed-Bold', 'DIN Condensed';font-weight:700;font-stretch:condensed;font-size:16px;">3</text>
        </g>
    </g>
    <g id="Channel2" transform="matrix(1,0,0,1,-53.1007,-244.978)">
        <g id="Strip-meter-56" serif:id="Strip#meter$5" transform="matrix(0.0370421,0,0,0.160516,102.409,324.319)">
            <rect x="53.94" y="106.916" width="161.978" height="161.978" style="fill:rgb(102,126,153);"/>
        </g>
        <g id="Input-input6" serif:id="Input#input" transform="matrix(0.175002,0,0,0.175002,64.5688,321.597)">
            <rect x="53.94" y="106.916" width="161.978" height="161.978" style="fill:rgb(204,204,204);"/>
        </g>
        <g id="Display-display-36" serif:id="Display#display$3" transform="matrix(1.04176,0,0,1.02078,22.3259,271.006)">
            <rect x="87.136" y="70.02" width="47.996" height="23.511" style="fill:rgb(19,19,19);"/>
        </g>
        <g transform="matrix(1,0,0,1,-21.8663,241.871)">
            <path d="M87.51,118.306L87.51,116.77L90.454,111.218C90.603,110.941 90.689,110.698 90.71,110.49C90.731,110.282 90.742,110.024 90.742,109.714C90.742,109.576 90.739,109.429 90.734,109.274C90.729,109.12 90.699,108.984 90.646,108.866C90.593,108.749 90.513,108.65 90.406,108.57C90.299,108.49 90.145,108.45 89.942,108.45C89.697,108.45 89.502,108.52 89.358,108.658C89.214,108.797 89.142,109 89.142,109.266L89.142,110.194L87.51,110.194L87.51,109.298C87.51,108.957 87.574,108.637 87.702,108.338C87.83,108.04 88.006,107.778 88.23,107.554C88.443,107.33 88.699,107.152 88.998,107.018C89.297,106.885 89.617,106.818 89.958,106.818C90.385,106.818 90.75,106.896 91.054,107.05C91.358,107.205 91.611,107.416 91.814,107.682C92.006,107.949 92.147,108.253 92.238,108.594C92.329,108.936 92.374,109.298 92.374,109.682C92.374,109.96 92.369,110.192 92.358,110.378C92.347,110.565 92.326,110.744 92.294,110.914C92.262,111.085 92.209,111.256 92.134,111.426C92.059,111.597 91.958,111.805 91.83,112.05L89.43,116.674L92.374,116.674L92.374,118.306L87.51,118.306Z" style="fill-rule:nonzero;"/>
        </g>
        <g transform="matrix(1,0,0,1,-21.8663,241.871)">
            <text x="86.966px" y="118.306px" style="font-family:'DINCondensed-Bold', 'DIN Condensed';font-weight:700;font-stretch:condensed;font-size:16px;">2</text>
        </g>
    </g>
    <g id="Channel1" transform="matrix(1,0,0,1,-53.1007,-281.455)">
        <g id="Strip-meter-57" serif:id="Strip#meter$5" transform="matrix(0.0370421,0,0,0.160516,102.409,324.319)">
            <rect x="53.94" y="106.916" width="161.978" height="161.978" style="fill:rgb(102,126,153);"/>
        </g>
        <g id="Input-input7" serif:id="Input#input" transform="matrix(0.175002,0,0,0.175002,64.5688,321.597)">
            <rect x="53.94" y="106.916" width="161.978" height="161.978" style="fill:rgb(204,204,204);"/>
        </g>
        <g id="Display-display-37" serif:id="Display#display$3" transform="matrix(1.04176,0,0,1.02078,22.3259,271.006)">
            <rect x="87.136" y="70.02" width="47.996" height="23.511" style="fill:rgb(19,19,19);"/>
        </g>
        <g transform="matrix(1,0,0,1,-21.8663,241.871)">
            <path d="M89.446,118.306L89.446,108.642L87.814,109.842L87.814,108.114L89.446,106.914L91.078,106.914L91.078,118.306L89.446,118.306Z" style="fill-rule:nonzero;"/>
        </g>
        <g transform="matrix(1,0,0,1,-21.8663,241.871)">
            <text x="86.966px" y="118.306px" style="font-family:'DINCondensed-Bold', 'DIN Condensed';font-weight:700;font-stretch:condensed;font-size:16px;">1</text>
        </g>
    </g>
    <g transform="matrix(1,0,0,1,30.7588,-33.1034)">
        <g transform="matrix(1,0,0,1,55.6783,28.6877)">
            <path d="M-41.616,15.148C-40.8,15.148 -40.154,15.128 -39.678,15.088C-39.202,15.048 -38.834,14.996 -38.574,14.932C-38.314,14.868 -38.14,14.796 -38.052,14.716C-37.964,14.636 -37.904,14.556 -37.872,14.476C-37.856,14.436 -37.816,14.416 -37.752,14.416C-37.672,14.416 -37.632,14.436 -37.632,14.476C-37.648,14.492 -37.674,14.552 -37.71,14.656C-37.746,14.76 -37.79,14.886 -37.842,15.034C-37.894,15.182 -37.948,15.342 -38.004,15.514C-38.06,15.686 -38.112,15.85 -38.16,16.006C-38.208,16.162 -38.248,16.3 -38.28,16.42C-38.312,16.54 -38.328,16.62 -38.328,16.66C-38.344,16.66 -38.364,16.662 -38.388,16.666C-38.412,16.67 -38.436,16.672 -38.46,16.672C-38.532,16.672 -38.568,16.648 -38.568,16.6C-38.568,16.56 -38.564,16.512 -38.556,16.456C-38.548,16.4 -38.544,16.352 -38.544,16.312C-38.544,16.272 -38.548,16.244 -38.556,16.228C-38.596,16.148 -38.73,16.088 -38.958,16.048C-39.186,16.008 -39.45,15.98 -39.75,15.964C-40.05,15.948 -40.356,15.938 -40.668,15.934C-40.98,15.93 -41.236,15.928 -41.436,15.928C-41.74,15.928 -42.042,16.014 -42.342,16.186C-42.642,16.358 -42.91,16.604 -43.146,16.924C-43.382,17.244 -43.574,17.638 -43.722,18.106C-43.87,18.574 -43.944,19.104 -43.944,19.696C-43.944,20.216 -43.886,20.696 -43.77,21.136C-43.654,21.576 -43.488,21.96 -43.272,22.288C-43.056,22.616 -42.792,22.872 -42.48,23.056C-42.168,23.24 -41.816,23.332 -41.424,23.332C-41.048,23.332 -40.718,23.262 -40.434,23.122C-40.15,22.982 -39.912,22.8 -39.72,22.576C-39.528,22.352 -39.382,22.096 -39.282,21.808C-39.182,21.52 -39.132,21.224 -39.132,20.92C-39.132,20.704 -39.158,20.496 -39.21,20.296C-39.262,20.096 -39.34,19.918 -39.444,19.762C-39.548,19.606 -39.682,19.482 -39.846,19.39C-40.01,19.298 -40.2,19.252 -40.416,19.252C-40.752,19.252 -40.988,19.326 -41.124,19.474C-41.26,19.622 -41.328,19.78 -41.328,19.948C-41.328,20.1 -41.284,20.234 -41.196,20.35C-41.108,20.466 -40.992,20.524 -40.848,20.524C-40.76,20.524 -40.716,20.556 -40.716,20.62C-40.716,20.644 -40.728,20.668 -40.752,20.692C-40.792,20.748 -40.904,20.804 -41.088,20.86C-41.272,20.916 -41.492,20.944 -41.748,20.944C-42.06,20.944 -42.316,20.862 -42.516,20.698C-42.716,20.534 -42.816,20.336 -42.816,20.104C-42.816,19.952 -42.744,19.804 -42.6,19.66C-42.456,19.516 -42.258,19.386 -42.006,19.27C-41.754,19.154 -41.452,19.062 -41.1,18.994C-40.748,18.926 -40.368,18.892 -39.96,18.892C-39.6,18.892 -39.268,18.928 -38.964,19C-38.66,19.072 -38.398,19.174 -38.178,19.306C-37.958,19.438 -37.784,19.598 -37.656,19.786C-37.528,19.974 -37.464,20.184 -37.464,20.416C-37.464,20.768 -37.576,21.142 -37.8,21.538C-38.024,21.934 -38.332,22.298 -38.724,22.63C-39.116,22.962 -39.578,23.236 -40.11,23.452C-40.642,23.668 -41.212,23.776 -41.82,23.776C-42.444,23.776 -42.998,23.686 -43.482,23.506C-43.966,23.326 -44.374,23.074 -44.706,22.75C-45.038,22.426 -45.292,22.042 -45.468,21.598C-45.644,21.154 -45.732,20.668 -45.732,20.14C-45.732,19.74 -45.672,19.364 -45.552,19.012C-45.432,18.66 -45.276,18.332 -45.084,18.028C-44.892,17.724 -44.68,17.448 -44.448,17.2C-44.216,16.952 -43.99,16.738 -43.77,16.558C-43.55,16.378 -43.348,16.236 -43.164,16.132C-42.98,16.028 -42.844,15.964 -42.756,15.94C-43.028,15.948 -43.318,15.96 -43.626,15.976C-43.934,15.992 -44.228,16.014 -44.508,16.042C-44.788,16.07 -45.036,16.106 -45.252,16.15C-45.468,16.194 -45.616,16.248 -45.696,16.312C-45.784,16.376 -45.856,16.46 -45.912,16.564C-45.968,16.668 -46.016,16.776 -46.056,16.888C-46.12,16.888 -46.172,16.878 -46.212,16.858C-46.252,16.838 -46.284,16.792 -46.308,16.72C-46.236,16.624 -46.158,16.472 -46.074,16.264C-45.99,16.056 -45.906,15.838 -45.822,15.61C-45.738,15.382 -45.666,15.172 -45.606,14.98C-45.546,14.788 -45.504,14.664 -45.48,14.608C-45.448,14.592 -45.412,14.584 -45.372,14.584C-45.34,14.584 -45.308,14.592 -45.276,14.608C-45.3,14.704 -45.312,14.78 -45.312,14.836C-45.312,14.916 -45.272,14.968 -45.192,14.992C-44.96,15.056 -44.67,15.098 -44.322,15.118C-43.974,15.138 -43.572,15.148 -43.116,15.148L-41.616,15.148Z" style="fill-rule:nonzero;"/>
            <path d="M-35.16,21.508C-35.16,21.676 -35.156,21.838 -35.148,21.994C-35.14,22.15 -35.112,22.284 -35.064,22.396C-35.016,22.508 -34.944,22.598 -34.848,22.666C-34.752,22.734 -34.616,22.768 -34.44,22.768C-34.352,22.768 -34.252,22.758 -34.14,22.738C-34.028,22.718 -33.922,22.692 -33.822,22.66C-33.722,22.628 -33.634,22.596 -33.558,22.564C-33.482,22.532 -33.436,22.508 -33.42,22.492C-33.396,22.468 -33.38,22.468 -33.372,22.492C-33.364,22.516 -33.362,22.546 -33.366,22.582C-33.37,22.618 -33.38,22.654 -33.396,22.69C-33.412,22.726 -33.432,22.752 -33.456,22.768C-33.536,22.808 -33.676,22.88 -33.876,22.984C-34.076,23.088 -34.312,23.196 -34.584,23.308C-34.84,23.42 -35.09,23.514 -35.334,23.59C-35.578,23.666 -35.78,23.704 -35.94,23.704C-36.124,23.704 -36.268,23.648 -36.372,23.536C-36.476,23.424 -36.528,23.284 -36.528,23.116C-36.528,23.06 -36.526,23.012 -36.522,22.972C-36.518,22.932 -36.512,22.88 -36.504,22.816C-36.496,22.736 -36.482,22.59 -36.462,22.378C-36.442,22.166 -36.422,21.928 -36.402,21.664C-36.382,21.4 -36.364,21.134 -36.348,20.866C-36.332,20.598 -36.324,20.368 -36.324,20.176L-36.324,19.756C-36.324,19.548 -36.336,19.364 -36.36,19.204C-36.384,19.044 -36.424,18.92 -36.48,18.832C-36.52,18.776 -36.57,18.73 -36.63,18.694C-36.69,18.658 -36.764,18.64 -36.852,18.64C-36.9,18.64 -36.948,18.65 -36.996,18.67C-37.044,18.69 -37.08,18.7 -37.104,18.7C-37.12,18.7 -37.146,18.676 -37.182,18.628C-37.218,18.58 -37.216,18.544 -37.176,18.52C-37.12,18.48 -37.004,18.416 -36.828,18.328C-36.652,18.24 -36.46,18.144 -36.252,18.04C-36.028,17.928 -35.812,17.83 -35.604,17.746C-35.396,17.662 -35.248,17.62 -35.16,17.62C-35.072,17.62 -35.012,17.646 -34.98,17.698C-34.948,17.75 -34.932,17.808 -34.932,17.872L-34.932,17.92C-34.932,18 -34.944,18.128 -34.968,18.304C-34.992,18.48 -35.018,18.696 -35.046,18.952C-35.074,19.208 -35.1,19.504 -35.124,19.84C-35.148,20.176 -35.16,20.54 -35.16,20.932L-35.16,21.508ZM-35.64,15.268C-35.6,15.276 -35.534,15.32 -35.442,15.4C-35.35,15.48 -35.256,15.572 -35.16,15.676C-35.064,15.78 -34.98,15.88 -34.908,15.976C-34.836,16.072 -34.8,16.136 -34.8,16.168C-34.8,16.208 -34.848,16.268 -34.944,16.348C-35.04,16.428 -35.15,16.51 -35.274,16.594C-35.398,16.678 -35.518,16.752 -35.634,16.816C-35.75,16.88 -35.832,16.912 -35.88,16.912C-35.904,16.912 -35.962,16.874 -36.054,16.798C-36.146,16.722 -36.24,16.636 -36.336,16.54C-36.432,16.444 -36.518,16.35 -36.594,16.258C-36.67,16.166 -36.708,16.104 -36.708,16.072C-36.708,16.032 -36.656,15.97 -36.552,15.886C-36.448,15.802 -36.334,15.714 -36.21,15.622C-36.086,15.53 -35.966,15.45 -35.85,15.382C-35.734,15.314 -35.664,15.276 -35.64,15.268Z" style="fill-rule:nonzero;"/>
            <path d="M-22.536,22.552C-22.512,22.552 -22.496,22.566 -22.488,22.594C-22.48,22.622 -22.476,22.656 -22.476,22.696C-22.476,22.736 -22.484,22.762 -22.5,22.774C-22.516,22.786 -22.532,22.8 -22.548,22.816C-22.604,22.848 -22.738,22.916 -22.95,23.02C-23.162,23.124 -23.398,23.23 -23.658,23.338C-23.918,23.446 -24.174,23.542 -24.426,23.626C-24.678,23.71 -24.868,23.752 -24.996,23.752C-25.108,23.752 -25.214,23.728 -25.314,23.68C-25.414,23.632 -25.456,23.556 -25.44,23.452C-25.424,23.388 -25.406,23.292 -25.386,23.164C-25.366,23.036 -25.348,22.88 -25.332,22.696C-25.316,22.464 -25.298,22.196 -25.278,21.892C-25.258,21.588 -25.248,21.252 -25.248,20.884C-25.248,20.452 -25.276,20.094 -25.332,19.81C-25.388,19.526 -25.468,19.3 -25.572,19.132C-25.676,18.964 -25.804,18.846 -25.956,18.778C-26.108,18.71 -26.284,18.676 -26.484,18.676C-26.668,18.676 -26.824,18.706 -26.952,18.766C-27.08,18.826 -27.192,18.892 -27.288,18.964C-27.464,19.1 -27.602,19.274 -27.702,19.486C-27.802,19.698 -27.864,19.976 -27.888,20.32C-27.896,20.408 -27.902,20.496 -27.906,20.584C-27.91,20.672 -27.914,20.768 -27.918,20.872C-27.922,20.976 -27.926,21.092 -27.93,21.22C-27.934,21.348 -27.936,21.5 -27.936,21.676C-27.936,22.148 -27.898,22.476 -27.822,22.66C-27.746,22.844 -27.616,22.936 -27.432,22.936C-27.368,22.936 -27.328,22.934 -27.312,22.93C-27.296,22.926 -27.264,22.92 -27.216,22.912C-27.2,22.928 -27.184,22.948 -27.168,22.972C-27.144,23.012 -27.148,23.056 -27.18,23.104C-27.22,23.152 -27.316,23.214 -27.468,23.29C-27.62,23.366 -27.788,23.436 -27.972,23.5C-28.156,23.564 -28.336,23.62 -28.512,23.668C-28.688,23.716 -28.82,23.74 -28.908,23.74C-29.02,23.74 -29.122,23.726 -29.214,23.698C-29.306,23.67 -29.352,23.636 -29.352,23.596C-29.352,23.548 -29.336,23.492 -29.304,23.428C-29.28,23.388 -29.256,23.292 -29.232,23.14C-29.208,22.988 -29.186,22.792 -29.166,22.552C-29.146,22.312 -29.128,22.034 -29.112,21.718C-29.096,21.402 -29.088,21.06 -29.088,20.692C-29.088,20.5 -29.098,20.288 -29.118,20.056C-29.138,19.824 -29.188,19.606 -29.268,19.402C-29.348,19.198 -29.466,19.026 -29.622,18.886C-29.778,18.746 -29.992,18.676 -30.264,18.676C-30.424,18.676 -30.568,18.698 -30.696,18.742C-30.824,18.786 -30.932,18.84 -31.02,18.904C-31.196,19.04 -31.346,19.208 -31.47,19.408C-31.594,19.608 -31.676,19.892 -31.716,20.26C-31.732,20.428 -31.748,20.602 -31.764,20.782C-31.78,20.962 -31.788,21.168 -31.788,21.4C-31.788,21.704 -31.78,21.956 -31.764,22.156C-31.748,22.356 -31.72,22.514 -31.68,22.63C-31.64,22.746 -31.592,22.826 -31.536,22.87C-31.48,22.914 -31.408,22.936 -31.32,22.936C-31.232,22.936 -31.172,22.928 -31.14,22.912C-31.1,22.896 -31.072,22.92 -31.056,22.984C-31.04,23.048 -31.044,23.088 -31.068,23.104C-31.1,23.136 -31.184,23.186 -31.32,23.254C-31.456,23.322 -31.612,23.392 -31.788,23.464C-31.964,23.536 -32.144,23.6 -32.328,23.656C-32.512,23.712 -32.668,23.74 -32.796,23.74C-32.932,23.74 -33.038,23.724 -33.114,23.692C-33.19,23.66 -33.228,23.624 -33.228,23.584C-33.228,23.576 -33.22,23.55 -33.204,23.506C-33.188,23.462 -33.176,23.424 -33.168,23.392C-33.136,23.144 -33.106,22.914 -33.078,22.702C-33.05,22.49 -33.03,22.26 -33.018,22.012C-33.006,21.764 -32.996,21.48 -32.988,21.16C-32.98,20.84 -32.976,20.452 -32.976,19.996C-32.976,19.556 -33.046,19.232 -33.186,19.024C-33.326,18.816 -33.472,18.712 -33.624,18.712C-33.688,18.712 -33.742,18.718 -33.786,18.73C-33.83,18.742 -33.872,18.752 -33.912,18.76C-33.96,18.768 -33.984,18.744 -33.984,18.688L-33.984,18.604C-33.976,18.596 -33.896,18.54 -33.744,18.436C-33.592,18.332 -33.412,18.22 -33.204,18.1C-32.996,17.98 -32.78,17.87 -32.556,17.77C-32.332,17.67 -32.148,17.62 -32.004,17.62C-31.908,17.62 -31.826,17.648 -31.758,17.704C-31.69,17.76 -31.656,17.864 -31.656,18.016C-31.656,18.088 -31.658,18.168 -31.662,18.256C-31.666,18.344 -31.67,18.436 -31.674,18.532C-31.678,18.628 -31.684,18.722 -31.692,18.814C-31.7,18.906 -31.704,18.984 -31.704,19.048C-31.592,18.944 -31.45,18.808 -31.278,18.64C-31.106,18.472 -30.912,18.312 -30.696,18.16C-30.48,18.008 -30.246,17.876 -29.994,17.764C-29.742,17.652 -29.476,17.596 -29.196,17.596C-28.828,17.596 -28.528,17.704 -28.296,17.92C-28.064,18.136 -27.94,18.512 -27.924,19.048C-27.796,18.928 -27.64,18.784 -27.456,18.616C-27.272,18.448 -27.066,18.288 -26.838,18.136C-26.61,17.984 -26.368,17.856 -26.112,17.752C-25.856,17.648 -25.596,17.596 -25.332,17.596C-24.404,17.596 -23.94,18.088 -23.94,19.072C-23.94,19.232 -23.948,19.416 -23.964,19.624C-23.98,19.832 -24,20.05 -24.024,20.278C-24.048,20.506 -24.068,20.732 -24.084,20.956C-24.1,21.18 -24.108,21.384 -24.108,21.568C-24.108,22.4 -23.888,22.816 -23.448,22.816C-23.376,22.816 -23.296,22.806 -23.208,22.786C-23.12,22.766 -23.032,22.742 -22.944,22.714C-22.856,22.686 -22.776,22.658 -22.704,22.63C-22.632,22.602 -22.58,22.576 -22.548,22.552L-22.536,22.552Z" style="fill-rule:nonzero;"/>
            <path d="M-17.052,22.192C-17.14,22.288 -17.276,22.42 -17.46,22.588C-17.644,22.756 -17.866,22.924 -18.126,23.092C-18.386,23.26 -18.676,23.404 -18.996,23.524C-19.316,23.644 -19.656,23.704 -20.016,23.704C-20.344,23.704 -20.664,23.654 -20.976,23.554C-21.288,23.454 -21.568,23.302 -21.816,23.098C-22.064,22.894 -22.262,22.634 -22.41,22.318C-22.558,22.002 -22.632,21.624 -22.632,21.184C-22.632,20.824 -22.608,20.514 -22.56,20.254C-22.512,19.994 -22.448,19.766 -22.368,19.57C-22.288,19.374 -22.198,19.206 -22.098,19.066C-21.998,18.926 -21.896,18.8 -21.792,18.688C-21.664,18.544 -21.508,18.408 -21.324,18.28C-21.14,18.152 -20.942,18.036 -20.73,17.932C-20.518,17.828 -20.294,17.746 -20.058,17.686C-19.822,17.626 -19.584,17.596 -19.344,17.596C-18.912,17.596 -18.574,17.668 -18.33,17.812C-18.086,17.956 -17.964,18.156 -17.964,18.412C-17.964,18.572 -18.012,18.72 -18.108,18.856C-18.028,18.832 -17.926,18.792 -17.802,18.736C-17.678,18.68 -17.552,18.622 -17.424,18.562C-17.296,18.502 -17.182,18.448 -17.082,18.4C-16.982,18.352 -16.916,18.316 -16.884,18.292C-16.868,18.276 -16.85,18.27 -16.83,18.274C-16.81,18.278 -16.8,18.292 -16.8,18.316C-16.8,18.42 -16.82,18.506 -16.86,18.574C-16.9,18.642 -16.948,18.696 -17.004,18.736C-17.132,18.816 -17.316,18.916 -17.556,19.036C-17.796,19.156 -18.062,19.282 -18.354,19.414C-18.646,19.546 -18.948,19.678 -19.26,19.81C-19.572,19.942 -19.866,20.068 -20.142,20.188C-20.418,20.308 -20.658,20.414 -20.862,20.506C-21.066,20.598 -21.204,20.664 -21.276,20.704C-21.276,20.976 -21.222,21.23 -21.114,21.466C-21.006,21.702 -20.856,21.908 -20.664,22.084C-20.472,22.26 -20.242,22.398 -19.974,22.498C-19.706,22.598 -19.412,22.648 -19.092,22.648C-18.804,22.648 -18.544,22.618 -18.312,22.558C-18.08,22.498 -17.884,22.43 -17.724,22.354C-17.564,22.278 -17.438,22.21 -17.346,22.15C-17.254,22.09 -17.204,22.06 -17.196,22.06C-17.164,22.06 -17.132,22.074 -17.1,22.102C-17.068,22.13 -17.052,22.16 -17.052,22.192ZM-21.276,20.356C-21.14,20.308 -20.986,20.25 -20.814,20.182C-20.642,20.114 -20.474,20.04 -20.31,19.96C-20.146,19.88 -19.996,19.804 -19.86,19.732C-19.724,19.66 -19.62,19.596 -19.548,19.54C-19.404,19.436 -19.332,19.26 -19.332,19.012C-19.332,18.916 -19.35,18.816 -19.386,18.712C-19.422,18.608 -19.476,18.514 -19.548,18.43C-19.62,18.346 -19.708,18.278 -19.812,18.226C-19.916,18.174 -20.032,18.148 -20.16,18.148C-20.272,18.148 -20.392,18.186 -20.52,18.262C-20.648,18.338 -20.768,18.462 -20.88,18.634C-20.992,18.806 -21.086,19.034 -21.162,19.318C-21.238,19.602 -21.276,19.948 -21.276,20.356Z" style="fill-rule:nonzero;"/>
            <path d="M-13.908,15.364C-14.116,15.356 -14.246,15.334 -14.298,15.298C-14.35,15.262 -14.376,15.224 -14.376,15.184C-14.376,15.128 -14.368,15.078 -14.352,15.034C-14.336,14.99 -14.292,14.964 -14.22,14.956C-14.132,14.964 -13.998,14.978 -13.818,14.998C-13.638,15.018 -13.396,15.036 -13.092,15.052L-12.372,15.052C-12.02,15.044 -11.692,15.024 -11.388,14.992C-11.084,14.96 -10.812,14.924 -10.572,14.884C-10.332,14.844 -10.132,14.804 -9.972,14.764C-9.812,14.724 -9.7,14.688 -9.636,14.656L-9.624,14.656C-9.616,14.656 -9.61,14.654 -9.606,14.65C-9.602,14.646 -9.596,14.644 -9.588,14.644C-9.508,14.644 -9.468,14.728 -9.468,14.896C-9.468,14.968 -9.542,15.028 -9.69,15.076C-9.838,15.124 -10.008,15.166 -10.2,15.202C-10.392,15.238 -10.58,15.272 -10.764,15.304C-10.948,15.336 -11.072,15.372 -11.136,15.412C-11.184,15.492 -11.226,15.71 -11.262,16.066C-11.298,16.422 -11.326,16.842 -11.346,17.326C-11.366,17.81 -11.382,18.324 -11.394,18.868C-11.406,19.412 -11.412,19.912 -11.412,20.368C-11.412,21.104 -11.402,21.7 -11.382,22.156C-11.362,22.612 -11.324,22.868 -11.268,22.924C-11.244,22.932 -11.2,22.936 -11.136,22.936C-11.064,22.936 -10.978,22.93 -10.878,22.918C-10.778,22.906 -10.676,22.894 -10.572,22.882C-10.468,22.87 -10.366,22.856 -10.266,22.84C-10.166,22.824 -10.08,22.812 -10.008,22.804C-9.824,22.78 -9.626,22.75 -9.414,22.714C-9.202,22.678 -8.992,22.634 -8.784,22.582C-8.576,22.53 -8.382,22.464 -8.202,22.384C-8.022,22.304 -7.868,22.204 -7.74,22.084C-7.732,22.068 -7.726,22.062 -7.722,22.066C-7.718,22.07 -7.712,22.068 -7.704,22.06C-7.672,22.028 -7.636,22.016 -7.596,22.024C-7.556,22.032 -7.522,22.054 -7.494,22.09C-7.466,22.126 -7.448,22.166 -7.44,22.21C-7.432,22.254 -7.444,22.288 -7.476,22.312C-7.548,22.368 -7.618,22.452 -7.686,22.564C-7.754,22.676 -7.816,22.796 -7.872,22.924C-7.928,23.052 -7.976,23.174 -8.016,23.29C-8.056,23.406 -8.08,23.492 -8.088,23.548C-8.024,23.588 -7.954,23.644 -7.878,23.716C-7.802,23.788 -7.764,23.876 -7.764,23.98C-7.764,24.012 -7.774,24.054 -7.794,24.106C-7.814,24.158 -7.856,24.184 -7.92,24.184C-7.936,24.184 -7.964,24.18 -8.004,24.172C-8.044,24.164 -8.064,24.128 -8.064,24.064C-8.064,23.992 -8.032,23.94 -7.968,23.908C-8,23.892 -8.044,23.864 -8.1,23.824C-8.156,23.784 -8.212,23.756 -8.268,23.74C-8.412,23.716 -8.56,23.692 -8.712,23.668C-8.864,23.644 -9.03,23.626 -9.21,23.614C-9.39,23.602 -9.592,23.592 -9.816,23.584C-10.04,23.576 -10.292,23.572 -10.572,23.572C-11.22,23.572 -11.77,23.59 -12.222,23.626C-12.674,23.662 -13.056,23.7 -13.368,23.74C-13.68,23.78 -13.936,23.818 -14.136,23.854C-14.336,23.89 -14.5,23.908 -14.628,23.908C-14.74,23.908 -14.796,23.86 -14.796,23.764C-14.796,23.708 -14.784,23.648 -14.76,23.584C-14.736,23.52 -14.68,23.492 -14.592,23.5C-14.496,23.508 -14.37,23.504 -14.214,23.488C-14.058,23.472 -13.902,23.448 -13.746,23.416C-13.59,23.384 -13.454,23.35 -13.338,23.314C-13.222,23.278 -13.152,23.244 -13.128,23.212C-13.096,23.148 -13.062,22.996 -13.026,22.756C-12.99,22.516 -12.96,22.214 -12.936,21.85C-12.912,21.486 -12.892,21.072 -12.876,20.608C-12.86,20.144 -12.852,19.652 -12.852,19.132C-12.852,18.428 -12.858,17.848 -12.87,17.392C-12.882,16.936 -12.896,16.572 -12.912,16.3C-12.928,16.028 -12.948,15.828 -12.972,15.7C-12.996,15.572 -13.02,15.476 -13.044,15.412L-13.908,15.364Z" style="fill-rule:nonzero;"/>
            <path d="M-2.424,22.636C-2.512,22.708 -2.632,22.804 -2.784,22.924C-2.936,23.044 -3.112,23.164 -3.312,23.284C-3.512,23.404 -3.732,23.506 -3.972,23.59C-4.212,23.674 -4.464,23.716 -4.728,23.716C-5.128,23.716 -5.484,23.646 -5.796,23.506C-6.108,23.366 -6.37,23.178 -6.582,22.942C-6.794,22.706 -6.954,22.428 -7.062,22.108C-7.17,21.788 -7.224,21.448 -7.224,21.088C-7.224,20.664 -7.16,20.288 -7.032,19.96C-6.904,19.632 -6.746,19.346 -6.558,19.102C-6.37,18.858 -6.168,18.654 -5.952,18.49C-5.736,18.326 -5.54,18.196 -5.364,18.1C-5.284,18.052 -5.182,18 -5.058,17.944C-4.934,17.888 -4.798,17.836 -4.65,17.788C-4.502,17.74 -4.342,17.698 -4.17,17.662C-3.998,17.626 -3.82,17.608 -3.636,17.608C-3.292,17.608 -2.958,17.652 -2.634,17.74C-2.31,17.828 -2.024,17.966 -1.776,18.154C-1.528,18.342 -1.328,18.584 -1.176,18.88C-1.024,19.176 -0.948,19.532 -0.948,19.948C-0.948,20.284 -1.01,20.6 -1.134,20.896C-1.258,21.192 -1.404,21.456 -1.572,21.688C-1.74,21.92 -1.906,22.118 -2.07,22.282C-2.234,22.446 -2.352,22.564 -2.424,22.636ZM-3.78,22.828C-3.324,22.828 -2.974,22.656 -2.73,22.312C-2.486,21.968 -2.364,21.44 -2.364,20.728C-2.364,20.368 -2.414,20.034 -2.514,19.726C-2.614,19.418 -2.754,19.148 -2.934,18.916C-3.114,18.684 -3.324,18.502 -3.564,18.37C-3.804,18.238 -4.064,18.172 -4.344,18.172C-4.544,18.172 -4.734,18.224 -4.914,18.328C-5.094,18.432 -5.252,18.582 -5.388,18.778C-5.524,18.974 -5.632,19.212 -5.712,19.492C-5.792,19.772 -5.832,20.088 -5.832,20.44C-5.832,20.816 -5.774,21.152 -5.658,21.448C-5.542,21.744 -5.388,21.994 -5.196,22.198C-5.004,22.402 -4.786,22.558 -4.542,22.666C-4.298,22.774 -4.044,22.828 -3.78,22.828Z" style="fill-rule:nonzero;"/>
            <path d="M5.256,18.496C5.168,18.568 5.064,18.658 4.944,18.766C4.824,18.874 4.698,18.978 4.566,19.078C4.434,19.178 4.3,19.264 4.164,19.336C4.028,19.408 3.896,19.444 3.768,19.444C3.656,19.444 3.556,19.418 3.468,19.366C3.38,19.314 3.298,19.258 3.222,19.198C3.146,19.138 3.072,19.082 3,19.03C2.928,18.978 2.852,18.952 2.772,18.952C2.556,18.952 2.374,19.04 2.226,19.216C2.078,19.392 1.958,19.616 1.866,19.888C1.774,20.16 1.706,20.456 1.662,20.776C1.618,21.096 1.596,21.404 1.596,21.7C1.596,21.948 1.606,22.15 1.626,22.306C1.646,22.462 1.676,22.586 1.716,22.678C1.756,22.77 1.81,22.832 1.878,22.864C1.946,22.896 2.028,22.912 2.124,22.912C2.228,22.912 2.34,22.896 2.46,22.864C2.484,22.856 2.502,22.872 2.514,22.912C2.526,22.952 2.532,22.984 2.532,23.008C2.532,23.024 2.52,23.042 2.496,23.062C2.472,23.082 2.456,23.092 2.448,23.092C2.272,23.164 2.092,23.242 1.908,23.326C1.724,23.41 1.572,23.48 1.452,23.536C1.34,23.584 1.206,23.636 1.05,23.692C0.894,23.748 0.76,23.776 0.648,23.776C0.52,23.776 0.414,23.756 0.33,23.716C0.246,23.676 0.204,23.636 0.204,23.596C0.204,23.556 0.214,23.52 0.234,23.488C0.254,23.456 0.272,23.396 0.288,23.308C0.304,23.188 0.322,23.046 0.342,22.882C0.362,22.718 0.382,22.54 0.402,22.348C0.422,22.156 0.438,21.958 0.45,21.754C0.462,21.55 0.468,21.348 0.468,21.148C0.468,20.7 0.454,20.32 0.426,20.008C0.398,19.696 0.348,19.444 0.276,19.252C0.204,19.06 0.106,18.922 -0.018,18.838C-0.142,18.754 -0.3,18.712 -0.492,18.712L-0.6,18.712C-0.632,18.712 -0.664,18.716 -0.696,18.724C-0.744,18.724 -0.768,18.7 -0.768,18.652C-0.768,18.604 -0.744,18.568 -0.696,18.544C-0.608,18.488 -0.472,18.406 -0.288,18.298C-0.104,18.19 0.086,18.086 0.282,17.986C0.478,17.886 0.668,17.796 0.852,17.716C1.036,17.636 1.172,17.596 1.26,17.596C1.364,17.596 1.452,17.63 1.524,17.698C1.596,17.766 1.65,17.852 1.686,17.956C1.722,18.06 1.748,18.178 1.764,18.31C1.78,18.442 1.788,18.572 1.788,18.7C1.788,18.796 1.786,18.896 1.782,19C1.778,19.104 1.776,19.216 1.776,19.336C2.136,18.808 2.46,18.398 2.748,18.106C3.036,17.814 3.308,17.668 3.564,17.668C3.66,17.668 3.754,17.708 3.846,17.788C3.938,17.868 4.036,17.958 4.14,18.058C4.244,18.158 4.352,18.248 4.464,18.328C4.576,18.408 4.692,18.448 4.812,18.448C4.916,18.448 4.992,18.436 5.04,18.412C5.088,18.388 5.128,18.368 5.16,18.352C5.224,18.352 5.256,18.396 5.256,18.484L5.256,18.496Z" style="fill-rule:nonzero;"/>
            <path d="M9.132,22.636C9.06,22.708 8.944,22.804 8.784,22.924C8.624,23.044 8.436,23.162 8.22,23.278C8.004,23.394 7.77,23.494 7.518,23.578C7.266,23.662 7.012,23.704 6.756,23.704C6.492,23.704 6.228,23.644 5.964,23.524C5.7,23.404 5.462,23.23 5.25,23.002C5.038,22.774 4.868,22.5 4.74,22.18C4.612,21.86 4.548,21.5 4.548,21.1C4.548,20.58 4.638,20.108 4.818,19.684C4.998,19.26 5.262,18.9 5.61,18.604C5.958,18.308 6.382,18.08 6.882,17.92C7.382,17.76 7.956,17.68 8.604,17.68L8.928,17.68C9.032,17.68 9.128,17.684 9.216,17.692L9.216,17.302C9.216,17.114 9.214,16.92 9.21,16.72C9.206,16.52 9.202,16.336 9.198,16.168C9.194,16 9.192,15.896 9.192,15.856C9.16,15.536 9.106,15.312 9.03,15.184C8.954,15.056 8.8,14.992 8.568,14.992C8.536,14.992 8.518,14.956 8.514,14.884C8.51,14.812 8.536,14.756 8.592,14.716C8.656,14.676 8.728,14.646 8.808,14.626C8.888,14.606 9.008,14.596 9.168,14.596C9.472,14.596 9.726,14.594 9.93,14.59C10.134,14.586 10.302,14.578 10.434,14.566C10.566,14.554 10.672,14.538 10.752,14.518C10.832,14.498 10.9,14.476 10.956,14.452C10.996,14.444 11.03,14.454 11.058,14.482C11.086,14.51 11.106,14.546 11.118,14.59C11.13,14.634 11.132,14.676 11.124,14.716C11.116,14.756 11.092,14.78 11.052,14.788C10.964,14.804 10.898,14.822 10.854,14.842C10.81,14.862 10.768,14.9 10.728,14.956C10.688,15.012 10.652,15.16 10.62,15.4C10.588,15.64 10.556,15.936 10.524,16.288C10.492,16.64 10.464,17.03 10.44,17.458C10.416,17.886 10.396,18.316 10.38,18.748C10.364,19.18 10.35,19.6 10.338,20.008C10.326,20.416 10.32,20.772 10.32,21.076C10.32,21.66 10.384,22.09 10.512,22.366C10.64,22.642 10.836,22.78 11.1,22.78C11.196,22.78 11.302,22.764 11.418,22.732C11.534,22.7 11.642,22.662 11.742,22.618C11.842,22.574 11.934,22.53 12.018,22.486C12.102,22.442 12.164,22.404 12.204,22.372C12.244,22.34 12.28,22.36 12.312,22.432C12.344,22.504 12.34,22.552 12.3,22.576C12.204,22.632 12.054,22.714 11.85,22.822C11.646,22.93 11.42,23.044 11.172,23.164C10.868,23.316 10.56,23.452 10.248,23.572C9.936,23.692 9.684,23.752 9.492,23.752C9.348,23.752 9.25,23.728 9.198,23.68C9.146,23.632 9.12,23.556 9.12,23.452L9.12,23.29C9.12,23.214 9.122,23.134 9.126,23.05C9.13,22.966 9.132,22.886 9.132,22.81L9.132,22.636ZM8.976,22.228C9.04,22.14 9.088,22.038 9.12,21.922C9.152,21.806 9.176,21.648 9.192,21.448C9.208,21.28 9.216,21.074 9.216,20.83L9.216,20.188C9.216,20.004 9.214,19.808 9.21,19.6C9.206,19.392 9.2,19.248 9.192,19.168C9.176,19.032 9.12,18.904 9.024,18.784C8.928,18.664 8.804,18.56 8.652,18.472C8.5,18.384 8.322,18.314 8.118,18.262C7.914,18.21 7.7,18.184 7.476,18.184C7.26,18.184 7.056,18.22 6.864,18.292C6.672,18.364 6.506,18.48 6.366,18.64C6.226,18.8 6.116,19.006 6.036,19.258C5.956,19.51 5.916,19.82 5.916,20.188C5.916,20.564 5.968,20.906 6.072,21.214C6.176,21.522 6.32,21.788 6.504,22.012C6.688,22.236 6.908,22.41 7.164,22.534C7.42,22.658 7.7,22.72 8.004,22.72C8.124,22.72 8.236,22.702 8.34,22.666C8.444,22.63 8.538,22.586 8.622,22.534C8.706,22.482 8.78,22.428 8.844,22.372C8.908,22.316 8.952,22.268 8.976,22.228Z" style="fill-rule:nonzero;"/>
            <path d="M-40.056,35.656C-40.136,35.656 -40.244,35.66 -40.38,35.668C-40.516,35.676 -40.662,35.682 -40.818,35.686C-40.974,35.69 -41.134,35.696 -41.298,35.704C-41.462,35.712 -41.612,35.716 -41.748,35.716C-42.284,35.716 -42.808,35.634 -43.32,35.47C-43.832,35.306 -44.286,35.05 -44.682,34.702C-45.078,34.354 -45.398,33.906 -45.642,33.358C-45.886,32.81 -46.008,32.152 -46.008,31.384C-46.008,30.68 -45.874,30.056 -45.606,29.512C-45.338,28.968 -44.984,28.512 -44.544,28.144C-44.104,27.776 -43.608,27.496 -43.056,27.304C-42.504,27.112 -41.94,27.016 -41.364,27.016C-41.236,27.016 -41.062,27.024 -40.842,27.04C-40.622,27.056 -40.402,27.076 -40.182,27.1C-39.962,27.124 -39.766,27.15 -39.594,27.178C-39.422,27.206 -39.312,27.232 -39.264,27.256C-39.16,26.976 -39.044,26.728 -38.916,26.512C-38.788,26.296 -38.612,26.132 -38.388,26.02C-38.324,25.996 -38.252,25.992 -38.172,26.008C-38.092,26.024 -38.052,26.064 -38.052,26.128C-38.092,26.2 -38.122,26.244 -38.142,26.26C-38.162,26.276 -38.188,26.284 -38.22,26.284C-38.316,26.284 -38.41,26.328 -38.502,26.416C-38.594,26.504 -38.68,26.618 -38.76,26.758C-38.84,26.898 -38.91,27.058 -38.97,27.238C-39.03,27.418 -39.076,27.6 -39.108,27.784C-39.124,27.872 -39.142,27.974 -39.162,28.09C-39.182,28.206 -39.2,28.32 -39.216,28.432C-39.232,28.544 -39.244,28.652 -39.252,28.756C-39.26,28.86 -39.264,28.948 -39.264,29.02C-39.264,29.06 -39.28,29.094 -39.312,29.122C-39.344,29.15 -39.376,29.164 -39.408,29.164C-39.456,29.164 -39.512,29.14 -39.576,29.092C-39.608,28.892 -39.674,28.692 -39.774,28.492C-39.874,28.292 -40.014,28.112 -40.194,27.952C-40.374,27.792 -40.598,27.664 -40.866,27.568C-41.134,27.472 -41.452,27.424 -41.82,27.424C-42.212,27.424 -42.562,27.516 -42.87,27.7C-43.178,27.884 -43.438,28.136 -43.65,28.456C-43.862,28.776 -44.024,29.156 -44.136,29.596C-44.248,30.036 -44.304,30.508 -44.304,31.012C-44.304,31.708 -44.234,32.326 -44.094,32.866C-43.954,33.406 -43.76,33.864 -43.512,34.24C-43.264,34.616 -42.968,34.902 -42.624,35.098C-42.28,35.294 -41.904,35.392 -41.496,35.392C-41.224,35.392 -40.958,35.348 -40.698,35.26C-40.438,35.172 -40.198,35.052 -39.978,34.9C-39.758,34.748 -39.562,34.572 -39.39,34.372C-39.218,34.172 -39.084,33.96 -38.988,33.736C-38.972,33.704 -38.93,33.68 -38.862,33.664C-38.794,33.648 -38.76,33.656 -38.76,33.688C-38.76,33.792 -38.794,33.934 -38.862,34.114C-38.93,34.294 -39.008,34.474 -39.096,34.654C-39.184,34.834 -39.272,34.998 -39.36,35.146C-39.448,35.294 -39.508,35.392 -39.54,35.44C-39.564,35.496 -39.594,35.57 -39.63,35.662C-39.666,35.754 -39.698,35.858 -39.726,35.974C-39.754,36.09 -39.78,36.21 -39.804,36.334C-39.828,36.458 -39.84,36.58 -39.84,36.7C-39.84,36.828 -39.856,36.908 -39.888,36.94C-39.92,36.972 -39.988,36.988 -40.092,36.988C-40.18,36.988 -40.22,36.926 -40.212,36.802C-40.204,36.678 -40.184,36.536 -40.152,36.376C-40.12,36.216 -40.088,36.066 -40.056,35.926C-40.024,35.786 -40.024,35.696 -40.056,35.656Z" style="fill-rule:nonzero;"/>
            <path d="M-36.324,30.928C-36.164,30.784 -35.984,30.634 -35.784,30.478C-35.584,30.322 -35.374,30.178 -35.154,30.046C-34.934,29.914 -34.704,29.806 -34.464,29.722C-34.224,29.638 -33.98,29.596 -33.732,29.596C-33.444,29.596 -33.174,29.642 -32.922,29.734C-32.67,29.826 -32.448,29.96 -32.256,30.136C-32.064,30.312 -31.912,30.522 -31.8,30.766C-31.688,31.01 -31.632,31.284 -31.632,31.588C-31.632,32.204 -31.738,32.77 -31.95,33.286C-32.162,33.802 -32.41,34.254 -32.694,34.642C-32.978,35.03 -33.26,35.352 -33.54,35.608C-33.82,35.864 -34.028,36.032 -34.164,36.112C-34.204,36.136 -34.244,36.128 -34.284,36.088C-34.324,36.048 -34.324,36.004 -34.284,35.956C-34.22,35.908 -34.122,35.79 -33.99,35.602C-33.858,35.414 -33.724,35.176 -33.588,34.888C-33.452,34.6 -33.332,34.272 -33.228,33.904C-33.124,33.536 -33.072,33.14 -33.072,32.716C-33.072,32.364 -33.114,32.052 -33.198,31.78C-33.282,31.508 -33.396,31.28 -33.54,31.096C-33.684,30.912 -33.85,30.772 -34.038,30.676C-34.226,30.58 -34.428,30.532 -34.644,30.532C-34.788,30.532 -34.94,30.554 -35.1,30.598C-35.26,30.642 -35.408,30.704 -35.544,30.784C-35.688,30.872 -35.828,30.98 -35.964,31.108C-36.1,31.236 -36.2,31.368 -36.264,31.504C-36.28,31.536 -36.294,31.566 -36.306,31.594C-36.318,31.622 -36.33,31.662 -36.342,31.714C-36.354,31.766 -36.366,31.832 -36.378,31.912C-36.39,31.992 -36.4,32.1 -36.408,32.236C-36.432,32.468 -36.45,32.694 -36.462,32.914C-36.474,33.134 -36.48,33.396 -36.48,33.7C-36.48,34.092 -36.456,34.394 -36.408,34.606C-36.36,34.818 -36.22,34.94 -35.988,34.972C-35.964,34.972 -35.936,34.97 -35.904,34.966C-35.872,34.962 -35.836,34.956 -35.796,34.948C-35.764,34.94 -35.724,34.928 -35.676,34.912C-35.652,34.912 -35.634,34.924 -35.622,34.948C-35.61,34.972 -35.604,34.996 -35.604,35.02C-35.604,35.044 -35.648,35.08 -35.736,35.128C-35.824,35.176 -35.936,35.226 -36.072,35.278C-36.208,35.33 -36.358,35.382 -36.522,35.434C-36.686,35.486 -36.84,35.536 -36.984,35.584C-37.136,35.624 -37.266,35.66 -37.374,35.692C-37.482,35.724 -37.556,35.74 -37.596,35.74C-37.836,35.74 -37.956,35.648 -37.956,35.464C-37.956,35.424 -37.936,35.348 -37.896,35.236C-37.856,35.124 -37.824,34.952 -37.8,34.72C-37.768,34.384 -37.736,34.014 -37.704,33.61C-37.672,33.206 -37.646,32.8 -37.626,32.392C-37.606,31.984 -37.59,31.584 -37.578,31.192C-37.566,30.8 -37.56,30.448 -37.56,30.136C-37.56,29.56 -37.57,29.072 -37.59,28.672C-37.61,28.272 -37.628,27.988 -37.644,27.82C-37.668,27.612 -37.692,27.474 -37.716,27.406C-37.74,27.338 -37.768,27.276 -37.8,27.22C-37.84,27.148 -37.89,27.098 -37.95,27.07C-38.01,27.042 -38.066,27.024 -38.118,27.016C-38.17,27.008 -38.214,27.006 -38.25,27.01C-38.286,27.014 -38.304,27.008 -38.304,26.992C-38.304,26.88 -38.268,26.788 -38.196,26.716C-38.124,26.644 -38.028,26.608 -37.908,26.608C-37.676,26.608 -37.436,26.604 -37.188,26.596C-36.94,26.588 -36.712,26.576 -36.504,26.56C-36.328,26.544 -36.166,26.52 -36.018,26.488C-35.87,26.456 -35.772,26.432 -35.724,26.416C-35.66,26.408 -35.626,26.418 -35.622,26.446C-35.618,26.474 -35.616,26.524 -35.616,26.596C-35.616,26.644 -35.636,26.68 -35.676,26.704C-35.716,26.728 -35.76,26.748 -35.808,26.764C-35.856,26.78 -35.902,26.794 -35.946,26.806C-35.99,26.818 -36.02,26.836 -36.036,26.86C-36.068,26.908 -36.1,27.056 -36.132,27.304C-36.164,27.552 -36.194,27.866 -36.222,28.246C-36.25,28.626 -36.274,29.048 -36.294,29.512C-36.314,29.976 -36.328,30.444 -36.336,30.916L-36.324,30.928Z" style="fill-rule:nonzero;"/>
            <path d="M-25.188,30.496C-25.276,30.568 -25.38,30.658 -25.5,30.766C-25.62,30.874 -25.746,30.978 -25.878,31.078C-26.01,31.178 -26.144,31.264 -26.28,31.336C-26.416,31.408 -26.548,31.444 -26.676,31.444C-26.788,31.444 -26.888,31.418 -26.976,31.366C-27.064,31.314 -27.146,31.258 -27.222,31.198C-27.298,31.138 -27.372,31.082 -27.444,31.03C-27.516,30.978 -27.592,30.952 -27.672,30.952C-27.888,30.952 -28.07,31.04 -28.218,31.216C-28.366,31.392 -28.486,31.616 -28.578,31.888C-28.67,32.16 -28.738,32.456 -28.782,32.776C-28.826,33.096 -28.848,33.404 -28.848,33.7C-28.848,33.948 -28.838,34.15 -28.818,34.306C-28.798,34.462 -28.768,34.586 -28.728,34.678C-28.688,34.77 -28.634,34.832 -28.566,34.864C-28.498,34.896 -28.416,34.912 -28.32,34.912C-28.216,34.912 -28.104,34.896 -27.984,34.864C-27.96,34.856 -27.942,34.872 -27.93,34.912C-27.918,34.952 -27.912,34.984 -27.912,35.008C-27.912,35.024 -27.924,35.042 -27.948,35.062C-27.972,35.082 -27.988,35.092 -27.996,35.092C-28.172,35.164 -28.352,35.242 -28.536,35.326C-28.72,35.41 -28.872,35.48 -28.992,35.536C-29.104,35.584 -29.238,35.636 -29.394,35.692C-29.55,35.748 -29.684,35.776 -29.796,35.776C-29.924,35.776 -30.03,35.756 -30.114,35.716C-30.198,35.676 -30.24,35.636 -30.24,35.596C-30.24,35.556 -30.23,35.52 -30.21,35.488C-30.19,35.456 -30.172,35.396 -30.156,35.308C-30.14,35.188 -30.122,35.046 -30.102,34.882C-30.082,34.718 -30.062,34.54 -30.042,34.348C-30.022,34.156 -30.006,33.958 -29.994,33.754C-29.982,33.55 -29.976,33.348 -29.976,33.148C-29.976,32.7 -29.99,32.32 -30.018,32.008C-30.046,31.696 -30.096,31.444 -30.168,31.252C-30.24,31.06 -30.338,30.922 -30.462,30.838C-30.586,30.754 -30.744,30.712 -30.936,30.712L-31.044,30.712C-31.076,30.712 -31.108,30.716 -31.14,30.724C-31.188,30.724 -31.212,30.7 -31.212,30.652C-31.212,30.604 -31.188,30.568 -31.14,30.544C-31.052,30.488 -30.916,30.406 -30.732,30.298C-30.548,30.19 -30.358,30.086 -30.162,29.986C-29.966,29.886 -29.776,29.796 -29.592,29.716C-29.408,29.636 -29.272,29.596 -29.184,29.596C-29.08,29.596 -28.992,29.63 -28.92,29.698C-28.848,29.766 -28.794,29.852 -28.758,29.956C-28.722,30.06 -28.696,30.178 -28.68,30.31C-28.664,30.442 -28.656,30.572 -28.656,30.7C-28.656,30.796 -28.658,30.896 -28.662,31C-28.666,31.104 -28.668,31.216 -28.668,31.336C-28.308,30.808 -27.984,30.398 -27.696,30.106C-27.408,29.814 -27.136,29.668 -26.88,29.668C-26.784,29.668 -26.69,29.708 -26.598,29.788C-26.506,29.868 -26.408,29.958 -26.304,30.058C-26.2,30.158 -26.092,30.248 -25.98,30.328C-25.868,30.408 -25.752,30.448 -25.632,30.448C-25.528,30.448 -25.452,30.436 -25.404,30.412C-25.356,30.388 -25.316,30.368 -25.284,30.352C-25.22,30.352 -25.188,30.396 -25.188,30.484L-25.188,30.496Z" style="fill-rule:nonzero;"/>
            <path d="M-21,34.636C-21.088,34.708 -21.208,34.804 -21.36,34.924C-21.512,35.044 -21.688,35.164 -21.888,35.284C-22.088,35.404 -22.308,35.506 -22.548,35.59C-22.788,35.674 -23.04,35.716 -23.304,35.716C-23.704,35.716 -24.06,35.646 -24.372,35.506C-24.684,35.366 -24.946,35.178 -25.158,34.942C-25.37,34.706 -25.53,34.428 -25.638,34.108C-25.746,33.788 -25.8,33.448 -25.8,33.088C-25.8,32.664 -25.736,32.288 -25.608,31.96C-25.48,31.632 -25.322,31.346 -25.134,31.102C-24.946,30.858 -24.744,30.654 -24.528,30.49C-24.312,30.326 -24.116,30.196 -23.94,30.1C-23.86,30.052 -23.758,30 -23.634,29.944C-23.51,29.888 -23.374,29.836 -23.226,29.788C-23.078,29.74 -22.918,29.698 -22.746,29.662C-22.574,29.626 -22.396,29.608 -22.212,29.608C-21.868,29.608 -21.534,29.652 -21.21,29.74C-20.886,29.828 -20.6,29.966 -20.352,30.154C-20.104,30.342 -19.904,30.584 -19.752,30.88C-19.6,31.176 -19.524,31.532 -19.524,31.948C-19.524,32.284 -19.586,32.6 -19.71,32.896C-19.834,33.192 -19.98,33.456 -20.148,33.688C-20.316,33.92 -20.482,34.118 -20.646,34.282C-20.81,34.446 -20.928,34.564 -21,34.636ZM-22.356,34.828C-21.9,34.828 -21.55,34.656 -21.306,34.312C-21.062,33.968 -20.94,33.44 -20.94,32.728C-20.94,32.368 -20.99,32.034 -21.09,31.726C-21.19,31.418 -21.33,31.148 -21.51,30.916C-21.69,30.684 -21.9,30.502 -22.14,30.37C-22.38,30.238 -22.64,30.172 -22.92,30.172C-23.12,30.172 -23.31,30.224 -23.49,30.328C-23.67,30.432 -23.828,30.582 -23.964,30.778C-24.1,30.974 -24.208,31.212 -24.288,31.492C-24.368,31.772 -24.408,32.088 -24.408,32.44C-24.408,32.816 -24.35,33.152 -24.234,33.448C-24.118,33.744 -23.964,33.994 -23.772,34.198C-23.58,34.402 -23.362,34.558 -23.118,34.666C-22.874,34.774 -22.62,34.828 -22.356,34.828Z" style="fill-rule:nonzero;"/>
            <path d="M-16.932,32.428C-16.94,32.5 -16.948,32.564 -16.956,32.62C-16.964,32.676 -16.97,32.74 -16.974,32.812C-16.978,32.884 -16.982,32.974 -16.986,33.082C-16.99,33.19 -16.992,33.332 -16.992,33.508C-16.992,33.796 -16.982,34.032 -16.962,34.216C-16.942,34.4 -16.912,34.546 -16.872,34.654C-16.832,34.762 -16.782,34.836 -16.722,34.876C-16.662,34.916 -16.588,34.936 -16.5,34.936C-16.444,34.936 -16.384,34.928 -16.32,34.912C-16.304,34.912 -16.29,34.934 -16.278,34.978C-16.266,35.022 -16.268,35.052 -16.284,35.068C-16.332,35.108 -16.426,35.166 -16.566,35.242C-16.706,35.318 -16.864,35.392 -17.04,35.464C-17.216,35.536 -17.398,35.6 -17.586,35.656C-17.774,35.712 -17.932,35.74 -18.06,35.74C-18.172,35.74 -18.26,35.726 -18.324,35.698C-18.388,35.67 -18.42,35.636 -18.42,35.596C-18.42,35.556 -18.416,35.532 -18.408,35.524C-18.4,35.516 -18.388,35.496 -18.372,35.464C-18.356,35.424 -18.344,35.374 -18.336,35.314C-18.328,35.254 -18.316,35.184 -18.3,35.104C-18.284,34.992 -18.268,34.85 -18.252,34.678C-18.236,34.506 -18.22,34.318 -18.204,34.114C-18.188,33.91 -18.174,33.698 -18.162,33.478C-18.15,33.258 -18.144,33.044 -18.144,32.836C-18.144,32.748 -18.146,32.638 -18.15,32.506C-18.154,32.374 -18.16,32.204 -18.168,31.996C-18.176,31.764 -18.202,31.566 -18.246,31.402C-18.29,31.238 -18.346,31.106 -18.414,31.006C-18.482,30.906 -18.558,30.832 -18.642,30.784C-18.726,30.736 -18.808,30.712 -18.888,30.712L-19.008,30.712C-19.048,30.712 -19.088,30.716 -19.128,30.724C-19.16,30.724 -19.176,30.688 -19.176,30.616C-19.176,30.6 -19.17,30.586 -19.158,30.574C-19.146,30.562 -19.108,30.536 -19.044,30.496C-18.94,30.424 -18.8,30.336 -18.624,30.232C-18.448,30.128 -18.268,30.032 -18.084,29.944C-17.9,29.856 -17.726,29.78 -17.562,29.716C-17.398,29.652 -17.272,29.62 -17.184,29.62C-16.952,29.62 -16.836,29.752 -16.836,30.016C-16.836,30.056 -16.84,30.128 -16.848,30.232C-16.856,30.336 -16.862,30.442 -16.866,30.55C-16.87,30.658 -16.876,30.76 -16.884,30.856C-16.892,30.952 -16.896,31.016 -16.896,31.048C-16.728,30.888 -16.548,30.724 -16.356,30.556C-16.164,30.388 -15.956,30.234 -15.732,30.094C-15.508,29.954 -15.272,29.84 -15.024,29.752C-14.776,29.664 -14.52,29.62 -14.256,29.62C-13.776,29.62 -13.382,29.758 -13.074,30.034C-12.766,30.31 -12.612,30.748 -12.612,31.348C-12.612,31.508 -12.622,31.696 -12.642,31.912C-12.662,32.128 -12.684,32.352 -12.708,32.584C-12.732,32.816 -12.754,33.044 -12.774,33.268C-12.794,33.492 -12.804,33.692 -12.804,33.868C-12.804,34.508 -12.596,34.828 -12.18,34.828C-12.1,34.828 -12.01,34.814 -11.91,34.786C-11.81,34.758 -11.714,34.726 -11.622,34.69C-11.53,34.654 -11.448,34.618 -11.376,34.582C-11.304,34.546 -11.256,34.516 -11.232,34.492C-11.224,34.484 -11.214,34.49 -11.202,34.51C-11.19,34.53 -11.18,34.556 -11.172,34.588C-11.164,34.62 -11.162,34.648 -11.166,34.672C-11.17,34.696 -11.176,34.712 -11.184,34.72C-11.248,34.76 -11.386,34.836 -11.598,34.948C-11.81,35.06 -12.046,35.174 -12.306,35.29C-12.566,35.406 -12.824,35.51 -13.08,35.602C-13.336,35.694 -13.54,35.74 -13.692,35.74C-13.876,35.74 -14.002,35.696 -14.07,35.608C-14.138,35.52 -14.172,35.428 -14.172,35.332C-14.172,35.268 -14.162,35.188 -14.142,35.092C-14.122,34.996 -14.096,34.84 -14.064,34.624C-14.032,34.392 -14.002,34.12 -13.974,33.808C-13.946,33.496 -13.932,33.16 -13.932,32.8C-13.932,32.096 -14.062,31.562 -14.322,31.198C-14.582,30.834 -14.908,30.652 -15.3,30.652C-15.548,30.652 -15.768,30.7 -15.96,30.796C-16.152,30.892 -16.316,31.022 -16.452,31.186C-16.588,31.35 -16.696,31.538 -16.776,31.75C-16.856,31.962 -16.908,32.188 -16.932,32.428Z" style="fill-rule:nonzero;"/>
            <path d="M-9.504,33.508C-9.504,33.676 -9.5,33.838 -9.492,33.994C-9.484,34.15 -9.456,34.284 -9.408,34.396C-9.36,34.508 -9.288,34.598 -9.192,34.666C-9.096,34.734 -8.96,34.768 -8.784,34.768C-8.696,34.768 -8.596,34.758 -8.484,34.738C-8.372,34.718 -8.266,34.692 -8.166,34.66C-8.066,34.628 -7.978,34.596 -7.902,34.564C-7.826,34.532 -7.78,34.508 -7.764,34.492C-7.74,34.468 -7.724,34.468 -7.716,34.492C-7.708,34.516 -7.706,34.546 -7.71,34.582C-7.714,34.618 -7.724,34.654 -7.74,34.69C-7.756,34.726 -7.776,34.752 -7.8,34.768C-7.88,34.808 -8.02,34.88 -8.22,34.984C-8.42,35.088 -8.656,35.196 -8.928,35.308C-9.184,35.42 -9.434,35.514 -9.678,35.59C-9.922,35.666 -10.124,35.704 -10.284,35.704C-10.468,35.704 -10.612,35.648 -10.716,35.536C-10.82,35.424 -10.872,35.284 -10.872,35.116C-10.872,35.06 -10.87,35.012 -10.866,34.972C-10.862,34.932 -10.856,34.88 -10.848,34.816C-10.84,34.736 -10.826,34.59 -10.806,34.378C-10.786,34.166 -10.766,33.928 -10.746,33.664C-10.726,33.4 -10.708,33.134 -10.692,32.866C-10.676,32.598 -10.668,32.368 -10.668,32.176L-10.668,31.756C-10.668,31.548 -10.68,31.364 -10.704,31.204C-10.728,31.044 -10.768,30.92 -10.824,30.832C-10.864,30.776 -10.914,30.73 -10.974,30.694C-11.034,30.658 -11.108,30.64 -11.196,30.64C-11.244,30.64 -11.292,30.65 -11.34,30.67C-11.388,30.69 -11.424,30.7 -11.448,30.7C-11.464,30.7 -11.49,30.676 -11.526,30.628C-11.562,30.58 -11.56,30.544 -11.52,30.52C-11.464,30.48 -11.348,30.416 -11.172,30.328C-10.996,30.24 -10.804,30.144 -10.596,30.04C-10.372,29.928 -10.156,29.83 -9.948,29.746C-9.74,29.662 -9.592,29.62 -9.504,29.62C-9.416,29.62 -9.356,29.646 -9.324,29.698C-9.292,29.75 -9.276,29.808 -9.276,29.872L-9.276,29.92C-9.276,30 -9.288,30.128 -9.312,30.304C-9.336,30.48 -9.362,30.696 -9.39,30.952C-9.418,31.208 -9.444,31.504 -9.468,31.84C-9.492,32.176 -9.504,32.54 -9.504,32.932L-9.504,33.508ZM-9.984,27.268C-9.944,27.276 -9.878,27.32 -9.786,27.4C-9.694,27.48 -9.6,27.572 -9.504,27.676C-9.408,27.78 -9.324,27.88 -9.252,27.976C-9.18,28.072 -9.144,28.136 -9.144,28.168C-9.144,28.208 -9.192,28.268 -9.288,28.348C-9.384,28.428 -9.494,28.51 -9.618,28.594C-9.742,28.678 -9.862,28.752 -9.978,28.816C-10.094,28.88 -10.176,28.912 -10.224,28.912C-10.248,28.912 -10.306,28.874 -10.398,28.798C-10.49,28.722 -10.584,28.636 -10.68,28.54C-10.776,28.444 -10.862,28.35 -10.938,28.258C-11.014,28.166 -11.052,28.104 -11.052,28.072C-11.052,28.032 -11,27.97 -10.896,27.886C-10.792,27.802 -10.678,27.714 -10.554,27.622C-10.43,27.53 -10.31,27.45 -10.194,27.382C-10.078,27.314 -10.008,27.276 -9.984,27.268Z" style="fill-rule:nonzero;"/>
            <path d="M-3.06,30.148C-3.076,30.196 -3.122,30.27 -3.198,30.37C-3.274,30.47 -3.364,30.574 -3.468,30.682C-3.572,30.79 -3.682,30.894 -3.798,30.994C-3.914,31.094 -4.016,31.168 -4.104,31.216C-4.16,31.24 -4.194,31.232 -4.206,31.192C-4.218,31.152 -4.224,31.112 -4.224,31.072C-4.224,31.008 -4.258,30.928 -4.326,30.832C-4.394,30.736 -4.49,30.642 -4.614,30.55C-4.738,30.458 -4.884,30.38 -5.052,30.316C-5.22,30.252 -5.404,30.22 -5.604,30.22C-5.948,30.22 -6.228,30.406 -6.444,30.778C-6.66,31.15 -6.768,31.644 -6.768,32.26C-6.768,32.636 -6.71,32.974 -6.594,33.274C-6.478,33.574 -6.318,33.826 -6.114,34.03C-5.91,34.234 -5.664,34.39 -5.376,34.498C-5.088,34.606 -4.776,34.66 -4.44,34.66C-3.984,34.66 -3.62,34.602 -3.348,34.486C-3.076,34.37 -2.852,34.236 -2.676,34.084C-2.668,34.084 -2.662,34.08 -2.658,34.072C-2.654,34.064 -2.648,34.06 -2.64,34.06C-2.6,34.06 -2.572,34.074 -2.556,34.102C-2.54,34.13 -2.532,34.164 -2.532,34.204C-2.532,34.236 -2.54,34.26 -2.556,34.276C-2.676,34.372 -2.842,34.5 -3.054,34.66C-3.266,34.82 -3.508,34.978 -3.78,35.134C-4.052,35.29 -4.336,35.424 -4.632,35.536C-4.928,35.648 -5.22,35.704 -5.508,35.704C-6.332,35.704 -6.974,35.464 -7.434,34.984C-7.894,34.504 -8.124,33.848 -8.124,33.016C-8.124,32.384 -8.002,31.852 -7.758,31.42C-7.514,30.988 -7.214,30.642 -6.858,30.382C-6.502,30.122 -6.124,29.936 -5.724,29.824C-5.324,29.712 -4.972,29.656 -4.668,29.656C-4.42,29.656 -4.198,29.674 -4.002,29.71C-3.806,29.746 -3.638,29.79 -3.498,29.842C-3.358,29.894 -3.25,29.948 -3.174,30.004C-3.098,30.06 -3.06,30.108 -3.06,30.148Z" style="fill-rule:nonzero;"/>
            <path d="M1.308,34.372C1.356,34.404 1.38,34.444 1.38,34.492C1.38,34.556 1.288,34.64 1.104,34.744C0.912,34.856 0.658,34.988 0.342,35.14C0.026,35.292 -0.288,35.424 -0.6,35.536C-0.752,35.592 -0.888,35.64 -1.008,35.68C-1.128,35.72 -1.236,35.74 -1.332,35.74C-1.444,35.74 -1.582,35.714 -1.746,35.662C-1.91,35.61 -2.052,35.548 -2.172,35.476C-2.268,35.412 -2.344,35.362 -2.4,35.326C-2.456,35.29 -2.484,35.252 -2.484,35.212C-2.484,35.18 -2.474,35.15 -2.454,35.122C-2.434,35.094 -2.416,35.06 -2.4,35.02C-2.392,34.996 -2.384,34.964 -2.376,34.924C-2.368,34.884 -2.364,34.844 -2.364,34.804C-2.34,34.604 -2.314,34.314 -2.286,33.934C-2.258,33.554 -2.236,33.134 -2.22,32.674C-2.204,32.214 -2.19,31.738 -2.178,31.246C-2.166,30.754 -2.16,30.296 -2.16,29.872C-2.16,29.352 -2.162,28.932 -2.166,28.612C-2.17,28.292 -2.18,28.036 -2.196,27.844C-2.22,27.58 -2.252,27.406 -2.292,27.322C-2.332,27.238 -2.376,27.176 -2.424,27.136C-2.48,27.088 -2.534,27.058 -2.586,27.046C-2.638,27.034 -2.686,27.026 -2.73,27.022C-2.774,27.018 -2.81,27.016 -2.838,27.016C-2.866,27.016 -2.88,27.008 -2.88,26.992C-2.88,26.728 -2.768,26.596 -2.544,26.596C-2.376,26.596 -2.178,26.598 -1.95,26.602C-1.722,26.606 -1.532,26.608 -1.38,26.608C-1.284,26.608 -1.182,26.602 -1.074,26.59C-0.966,26.578 -0.86,26.566 -0.756,26.554C-0.652,26.542 -0.556,26.528 -0.468,26.512C-0.38,26.496 -0.316,26.48 -0.276,26.464C-0.244,26.456 -0.218,26.468 -0.198,26.5C-0.178,26.532 -0.166,26.572 -0.162,26.62C-0.158,26.668 -0.166,26.712 -0.186,26.752C-0.206,26.792 -0.232,26.816 -0.264,26.824C-0.312,26.832 -0.354,26.836 -0.39,26.836C-0.426,26.836 -0.488,26.852 -0.576,26.884C-0.616,26.9 -0.652,26.95 -0.684,27.034C-0.716,27.118 -0.744,27.25 -0.768,27.43C-0.792,27.61 -0.816,27.846 -0.84,28.138C-0.864,28.43 -0.888,28.796 -0.912,29.236C-0.936,29.588 -0.954,29.946 -0.966,30.31C-0.978,30.674 -0.99,31.028 -1.002,31.372C-1.014,31.716 -1.022,32.036 -1.026,32.332C-1.03,32.628 -1.032,32.88 -1.032,33.088C-1.032,33.32 -1.03,33.554 -1.026,33.79C-1.022,34.026 -1,34.212 -0.96,34.348C-0.92,34.476 -0.816,34.596 -0.648,34.708C-0.48,34.82 -0.304,34.876 -0.12,34.876C0.024,34.876 0.172,34.856 0.324,34.816C0.476,34.776 0.616,34.728 0.744,34.672C0.872,34.616 0.986,34.56 1.086,34.504C1.186,34.448 1.26,34.404 1.308,34.372Z" style="fill-rule:nonzero;"/>
            <path d="M6.12,34.192C6.032,34.288 5.896,34.42 5.712,34.588C5.528,34.756 5.306,34.924 5.046,35.092C4.786,35.26 4.496,35.404 4.176,35.524C3.856,35.644 3.516,35.704 3.156,35.704C2.828,35.704 2.508,35.654 2.196,35.554C1.884,35.454 1.604,35.302 1.356,35.098C1.108,34.894 0.91,34.634 0.762,34.318C0.614,34.002 0.54,33.624 0.54,33.184C0.54,32.824 0.564,32.514 0.612,32.254C0.66,31.994 0.724,31.766 0.804,31.57C0.884,31.374 0.974,31.206 1.074,31.066C1.174,30.926 1.276,30.8 1.38,30.688C1.508,30.544 1.664,30.408 1.848,30.28C2.032,30.152 2.23,30.036 2.442,29.932C2.654,29.828 2.878,29.746 3.114,29.686C3.35,29.626 3.588,29.596 3.828,29.596C4.26,29.596 4.598,29.668 4.842,29.812C5.086,29.956 5.208,30.156 5.208,30.412C5.208,30.572 5.16,30.72 5.064,30.856C5.144,30.832 5.246,30.792 5.37,30.736C5.494,30.68 5.62,30.622 5.748,30.562C5.876,30.502 5.99,30.448 6.09,30.4C6.19,30.352 6.256,30.316 6.288,30.292C6.304,30.276 6.322,30.27 6.342,30.274C6.362,30.278 6.372,30.292 6.372,30.316C6.372,30.42 6.352,30.506 6.312,30.574C6.272,30.642 6.224,30.696 6.168,30.736C6.04,30.816 5.856,30.916 5.616,31.036C5.376,31.156 5.11,31.282 4.818,31.414C4.526,31.546 4.224,31.678 3.912,31.81C3.6,31.942 3.306,32.068 3.03,32.188C2.754,32.308 2.514,32.414 2.31,32.506C2.106,32.598 1.968,32.664 1.896,32.704C1.896,32.976 1.95,33.23 2.058,33.466C2.166,33.702 2.316,33.908 2.508,34.084C2.7,34.26 2.93,34.398 3.198,34.498C3.466,34.598 3.76,34.648 4.08,34.648C4.368,34.648 4.628,34.618 4.86,34.558C5.092,34.498 5.288,34.43 5.448,34.354C5.608,34.278 5.734,34.21 5.826,34.15C5.918,34.09 5.968,34.06 5.976,34.06C6.008,34.06 6.04,34.074 6.072,34.102C6.104,34.13 6.12,34.16 6.12,34.192ZM1.896,32.356C2.032,32.308 2.186,32.25 2.358,32.182C2.53,32.114 2.698,32.04 2.862,31.96C3.026,31.88 3.176,31.804 3.312,31.732C3.448,31.66 3.552,31.596 3.624,31.54C3.768,31.436 3.84,31.26 3.84,31.012C3.84,30.916 3.822,30.816 3.786,30.712C3.75,30.608 3.696,30.514 3.624,30.43C3.552,30.346 3.464,30.278 3.36,30.226C3.256,30.174 3.14,30.148 3.012,30.148C2.9,30.148 2.78,30.186 2.652,30.262C2.524,30.338 2.404,30.462 2.292,30.634C2.18,30.806 2.086,31.034 2.01,31.318C1.934,31.602 1.896,31.948 1.896,32.356Z" style="fill-rule:nonzero;"/>
        </g>
        <g transform="matrix(1,0,0,1,55.6783,28.6877)">
            <text x="-46.332px" y="23.596px" style="font-family:'Luminari-Regular', 'Luminari';font-size:12px;">T<tspan x="-37.404px -34.128px " y="23.596px 23.596px ">im</tspan>e Lor<tspan x="4.2px " y="23.596px ">d</tspan></text>
            <text x="-46.332px" y="35.596px" style="font-family:'Luminari-Regular', 'Luminari';font-size:12px;">Chr<tspan x="-26.148px -19.248px " y="35.596px 35.596px ">on</tspan>icle</text>
        </g>
        <g transform="matrix(0.0170879,0,0,0.0193831,-10.3016,43.774)">
            <g transform="matrix(1,0,0,1,-143.343,98.6554)">
                <ellipse cx="360.896" cy="293.762" rx="136.961" ry="230.443" style="fill:rgb(102,126,153);stroke:black;stroke-width:66.81px;"/>
            </g>
            <g transform="matrix(1,0,0,1,445.551,98.6554)">
                <ellipse cx="360.896" cy="293.762" rx="136.961" ry="230.443" style="fill:rgb(102,126,153);stroke:black;stroke-width:66.81px;"/>
            </g>
            <g transform="matrix(1,0,0,1,-34.3236,-20.6488)">
                <ellipse cx="546.324" cy="643.509" rx="431.408" ry="296.899" style="fill:rgb(102,126,153);stroke:black;stroke-width:66.81px;"/>
            </g>
            <circle cx="406.664" cy="569.758" r="105.336" style="fill:rgb(102,126,153);stroke:black;stroke-width:66.81px;"/>
            <g transform="matrix(1,0,0,1,210.672,0)">
                <circle cx="406.664" cy="569.758" r="105.336" style="fill:rgb(102,126,153);stroke:black;stroke-width:66.81px;"/>
            </g>
            <g transform="matrix(1,0,0,1,-53.1856,50.0357)">
                <ellipse cx="565.186" cy="671.455" rx="210.672" ry="98.631" style="fill:rgb(102,126,153);stroke:black;stroke-width:66.81px;"/>
            </g>
            <g transform="matrix(51.2,0,0,45.1371,0.670978,88.9676)">
                <path d="M12.057,13.791C12.057,13.668 11.958,13.568 11.835,13.568L8.139,13.568C8.016,13.568 7.916,13.668 7.916,13.791L7.916,14.236C7.916,14.359 8.016,14.458 8.139,14.458L11.835,14.458C11.958,14.458 12.057,14.359 12.057,14.236L12.057,13.791Z"/>
            </g>
        </g>
    </g>
</svg>
