<?xml version="1.0" encoding="UTF-8" standalone="no"?>
<!DOCTYPE svg PUBLIC "-//W3C//DTD SVG 1.1//EN" "http://www.w3.org/Graphics/SVG/1.1/DTD/svg11.dtd">
<svg width="100%" height="100%" viewBox="0 0 120 380" version="1.1" xmlns="http://www.w3.org/2000/svg" xmlns:xlink="http://www.w3.org/1999/xlink" xml:space="preserve" xmlns:serif="http://www.serif.com/" style="fill-rule:evenodd;clip-rule:evenodd;stroke-linecap:round;stroke-linejoin:round;stroke-miterlimit:1.5;">
    <g>
        <g transform="matrix(0.576681,0,0,2.01589,-30.3082,-120.797)">
            <rect x="52.556" y="59.922" width="208.087" height="188.503" style="fill:rgb(102,126,153);"/>
        </g>
        <g transform="matrix(1,0,0,1,69.7584,158.536)">
            <g transform="matrix(2.91857,0,0,2.91857,-148.538,-153.931)">
                <circle cx="77.421" cy="80.232" r="19.592" style="fill:none;stroke:rgb(230,230,230);stroke-width:0.34px;"/>
            </g>
            <g transform="matrix(2.1373,0,0,2.1373,-88.0512,-91.248)">
                <circle cx="77.421" cy="80.232" r="19.592" style="fill:none;stroke:rgb(218,218,218);stroke-width:0.47px;"/>
            </g>
            <g transform="matrix(1.45026,0,0,1.45026,-34.8599,-36.1255)">
                <circle cx="77.421" cy="80.232" r="19.592" style="fill:none;stroke:rgb(205,205,205);stroke-width:0.69px;"/>
            </g>
        </g>
        <g transform="matrix(1,0,0,1,-29.6252,-28.1953)">
            <g transform="matrix(2.91857,0,0,2.91857,-148.538,-153.931)">
                <circle cx="77.421" cy="80.232" r="19.592" style="fill:none;stroke:rgb(230,230,230);stroke-width:0.34px;"/>
            </g>
            <g transform="matrix(2.1373,0,0,2.1373,-88.0512,-91.248)">
                <circle cx="77.421" cy="80.232" r="19.592" style="fill:none;stroke:rgb(218,218,218);stroke-width:0.47px;"/>
            </g>
            <g transform="matrix(1.45026,0,0,1.45026,-34.8599,-36.1255)">
                <circle cx="77.421" cy="80.232" r="19.592" style="fill:none;stroke:rgb(205,205,205);stroke-width:0.69px;"/>
            </g>
            <circle cx="77.421" cy="80.232" r="19.592" style="fill:none;stroke:rgb(193,193,193);stroke-width:1px;"/>
        </g>
        <g transform="matrix(1,0,0,1,-67.4212,111.984)">
            <g transform="matrix(2.91857,0,0,2.91857,-148.538,-153.931)">
                <circle cx="77.421" cy="80.232" r="19.592" style="fill:none;stroke:rgb(230,230,230);stroke-width:0.34px;"/>
            </g>
            <g transform="matrix(2.1373,0,0,2.1373,-88.0512,-91.248)">
                <circle cx="77.421" cy="80.232" r="19.592" style="fill:none;stroke:rgb(218,218,218);stroke-width:0.47px;"/>
            </g>
            <g transform="matrix(1.45026,0,0,1.45026,-34.8599,-36.1255)">
                <circle cx="77.421" cy="80.232" r="19.592" style="fill:none;stroke:rgb(205,205,205);stroke-width:0.69px;"/>
            </g>
            <circle cx="77.421" cy="80.232" r="19.592" style="fill:none;stroke:rgb(193,193,193);stroke-width:1px;"/>
        </g>
        <g transform="matrix(1,0,0,1,0,209.825)">
            <g transform="matrix(2.91857,0,0,2.91857,-148.538,-153.931)">
                <circle cx="77.421" cy="80.232" r="19.592" style="fill:none;stroke:rgb(230,230,230);stroke-width:0.34px;"/>
            </g>
            <g transform="matrix(2.1373,0,0,2.1373,-88.0512,-91.248)">
                <circle cx="77.421" cy="80.232" r="19.592" style="fill:none;stroke:rgb(218,218,218);stroke-width:0.47px;"/>
            </g>
            <g transform="matrix(1.45026,0,0,1.45026,-34.8599,-36.1255)">
                <circle cx="77.421" cy="80.232" r="19.592" style="fill:none;stroke:rgb(205,205,205);stroke-width:0.69px;"/>
            </g>
            <circle cx="77.421" cy="80.232" r="19.592" style="fill:none;stroke:rgb(193,193,193);stroke-width:1px;"/>
        </g>
        <g transform="matrix(1,0,0,1,38.8237,95.4658)">
            <g transform="matrix(2.91857,0,0,2.91857,-148.538,-153.931)">
                <circle cx="77.421" cy="80.232" r="19.592" style="fill:none;stroke:rgb(230,230,230);stroke-width:0.34px;"/>
            </g>
            <g transform="matrix(2.1373,0,0,2.1373,-88.0512,-91.248)">
                <circle cx="77.421" cy="80.232" r="19.592" style="fill:none;stroke:rgb(218,218,218);stroke-width:0.47px;"/>
            </g>
            <g transform="matrix(1.45026,0,0,1.45026,-34.8599,-36.1255)">
                <circle cx="77.421" cy="80.232" r="19.592" style="fill:none;stroke:rgb(205,205,205);stroke-width:0.69px;"/>
            </g>
            <circle cx="77.421" cy="80.232" r="19.592" style="fill:none;stroke:rgb(193,193,193);stroke-width:1px;"/>
        </g>
        <g transform="matrix(1,0,0,1,45.3991,7.60585)">
            <g transform="matrix(2.91857,0,0,2.91857,-148.538,-153.931)">
                <circle cx="77.421" cy="80.232" r="19.592" style="fill:none;stroke:rgb(230,230,230);stroke-width:0.34px;"/>
            </g>
            <g transform="matrix(2.1373,0,0,2.1373,-88.0512,-91.248)">
                <circle cx="77.421" cy="80.232" r="19.592" style="fill:none;stroke:rgb(218,218,218);stroke-width:0.47px;"/>
            </g>
            <g transform="matrix(1.45026,0,0,1.45026,-34.8599,-36.1255)">
                <circle cx="77.421" cy="80.232" r="19.592" style="fill:none;stroke:rgb(205,205,205);stroke-width:0.69px;"/>
            </g>
            <circle cx="77.421" cy="80.232" r="19.592" style="fill:none;stroke:rgb(193,193,193);stroke-width:1px;"/>
        </g>
    </g>
    <g transform="matrix(1,0,0,1,-107.968,1.35442)">
        <g id="Bank" transform="matrix(1,0,0,1,206.593,100.972)">
            <g id="Up-button" serif:id="Up#button" transform="matrix(0.174892,0,0,0.175002,-16.372,220.617)">
                <rect x="53.94" y="106.916" width="161.978" height="161.978" style="fill:rgb(102,126,153);"/>
            </g>
            <g id="Display-display-1" serif:id="Display#display$1" transform="matrix(0.375033,0,0,1.02078,-54.9921,170.026)">
                <rect x="87.136" y="70.02" width="47.996" height="23.511" style="fill:rgb(19,19,19);"/>
            </g>
            <g transform="matrix(1,0,0,1,-114.257,119.039)">
                <path d="M93.323,118.306L93.323,111.186L94.343,111.186L94.343,113.696L94.363,113.696C94.476,113.53 94.611,113.401 94.768,113.311C94.925,113.221 95.103,113.176 95.303,113.176C95.55,113.176 95.741,113.22 95.878,113.306C96.015,113.393 96.126,113.503 96.213,113.636C96.28,113.743 96.323,113.883 96.343,114.056C96.363,114.23 96.373,114.5 96.373,114.866L96.373,116.796C96.373,117.076 96.36,117.3 96.333,117.466C96.306,117.633 96.263,117.773 96.203,117.886C96.03,118.206 95.733,118.366 95.313,118.366C95.06,118.366 94.866,118.316 94.733,118.216C94.6,118.116 94.47,117.993 94.343,117.846L94.343,118.306L93.323,118.306ZM95.353,114.796C95.353,114.636 95.318,114.496 95.248,114.376C95.178,114.256 95.046,114.196 94.853,114.196C94.706,114.196 94.585,114.248 94.488,114.351C94.391,114.455 94.343,114.586 94.343,114.746L94.343,116.716C94.343,116.903 94.39,117.055 94.483,117.171C94.576,117.288 94.7,117.346 94.853,117.346C95.026,117.346 95.153,117.283 95.233,117.156C95.313,117.03 95.353,116.863 95.353,116.656L95.353,114.796Z" style="fill-rule:nonzero;"/>
                <path d="M99.143,118.306L99.143,117.786L99.123,117.786C98.99,117.973 98.855,118.116 98.718,118.216C98.581,118.316 98.39,118.366 98.143,118.366C98.023,118.366 97.901,118.348 97.778,118.311C97.655,118.275 97.536,118.206 97.423,118.106C97.31,118.013 97.218,117.878 97.148,117.701C97.078,117.525 97.043,117.296 97.043,117.016C97.043,116.73 97.066,116.478 97.113,116.261C97.16,116.045 97.246,115.863 97.373,115.716C97.493,115.576 97.656,115.471 97.863,115.401C98.07,115.331 98.333,115.296 98.653,115.296L98.763,115.296C98.803,115.296 98.84,115.3 98.873,115.306C98.906,115.313 98.946,115.316 98.993,115.316C99.04,115.316 99.09,115.32 99.143,115.326L99.143,114.796C99.143,114.623 99.106,114.48 99.033,114.366C98.96,114.253 98.826,114.196 98.633,114.196C98.5,114.196 98.378,114.24 98.268,114.326C98.158,114.413 98.086,114.54 98.053,114.706L97.063,114.706C97.09,114.253 97.243,113.886 97.523,113.606C97.656,113.473 97.816,113.368 98.003,113.291C98.19,113.215 98.4,113.176 98.633,113.176C98.846,113.176 99.046,113.21 99.233,113.276C99.42,113.343 99.583,113.443 99.723,113.576C99.856,113.71 99.963,113.876 100.043,114.076C100.123,114.276 100.163,114.51 100.163,114.776L100.163,118.306L99.143,118.306ZM99.143,116.126C99.03,116.106 98.936,116.096 98.863,116.096C98.643,116.096 98.455,116.148 98.298,116.251C98.141,116.355 98.063,116.543 98.063,116.816C98.063,117.01 98.11,117.166 98.203,117.286C98.296,117.406 98.426,117.466 98.593,117.466C98.766,117.466 98.901,117.41 98.998,117.296C99.095,117.183 99.143,117.023 99.143,116.816L99.143,116.126Z" style="fill-rule:nonzero;"/>
                <path d="M100.913,118.306L100.913,113.236L101.933,113.236L101.933,113.726L101.953,113.726C102.06,113.566 102.188,113.435 102.338,113.331C102.488,113.228 102.68,113.176 102.913,113.176C103.04,113.176 103.166,113.198 103.293,113.241C103.42,113.285 103.533,113.356 103.633,113.456C103.733,113.556 103.813,113.685 103.873,113.841C103.933,113.998 103.963,114.19 103.963,114.416L103.963,118.306L102.943,118.306L102.943,114.796C102.943,114.61 102.9,114.463 102.813,114.356C102.726,114.25 102.603,114.196 102.443,114.196C102.25,114.196 102.116,114.256 102.043,114.376C101.97,114.496 101.933,114.67 101.933,114.896L101.933,118.306L100.913,118.306Z" style="fill-rule:nonzero;"/>
                <path d="M104.803,118.306L104.803,111.186L105.823,111.186L105.823,115.446L105.843,115.446L107.073,113.236L108.093,113.236L106.883,115.296L108.343,118.306L107.233,118.306L106.313,116.116L105.823,116.886L105.823,118.306L104.803,118.306Z" style="fill-rule:nonzero;"/>
            </g>
            <g transform="matrix(1,0,0,1,-114.257,119.039)">
                <text x="92.903px" y="118.306px" style="font-family:'DINCondensed-Bold', 'DIN Condensed';font-weight:700;font-stretch:condensed;font-size:10px;">bank</text>
            </g>
        </g>
        <g transform="matrix(1,0,0,1,26.6902,9.45227)">
            <g id="Reset-input" serif:id="Reset#input" transform="matrix(0.175002,0,0,0.175002,113.639,312.136)">
                <rect x="53.94" y="106.916" width="161.978" height="161.978" style="fill:rgb(204,204,204);"/>
            </g>
            <g transform="matrix(1,0,0,1,39.4514,210.194)">
                <path d="M89.618,118.306L89.618,113.236L90.638,113.236L90.638,113.776C90.845,113.59 91.048,113.443 91.248,113.336C91.448,113.23 91.695,113.176 91.988,113.176L91.988,114.256C91.888,114.216 91.785,114.196 91.678,114.196C91.571,114.196 91.456,114.215 91.333,114.251C91.21,114.288 91.098,114.35 90.998,114.436C90.891,114.523 90.805,114.636 90.738,114.776C90.671,114.916 90.638,115.09 90.638,115.296L90.638,118.306L89.618,118.306Z" style="fill-rule:nonzero;"/>
                <path d="M95.348,116.156L93.328,116.156L93.328,116.846C93.328,117.006 93.373,117.13 93.463,117.216C93.553,117.303 93.675,117.346 93.828,117.346C94.021,117.346 94.15,117.29 94.213,117.176C94.276,117.063 94.315,116.95 94.328,116.836L95.348,116.836C95.348,117.283 95.211,117.643 94.938,117.916C94.805,118.056 94.645,118.166 94.458,118.246C94.271,118.326 94.061,118.366 93.828,118.366C93.508,118.366 93.236,118.3 93.013,118.166C92.79,118.033 92.618,117.856 92.498,117.636C92.425,117.503 92.375,117.35 92.348,117.176C92.321,117.003 92.308,116.813 92.308,116.606L92.308,114.936C92.308,114.73 92.321,114.54 92.348,114.366C92.375,114.193 92.425,114.04 92.498,113.906C92.618,113.686 92.79,113.51 93.013,113.376C93.236,113.243 93.508,113.176 93.828,113.176C94.061,113.176 94.273,113.216 94.463,113.296C94.653,113.376 94.815,113.486 94.948,113.626C95.215,113.926 95.348,114.303 95.348,114.756L95.348,116.156ZM93.328,115.356L94.328,115.356L94.328,114.776C94.328,114.583 94.283,114.438 94.193,114.341C94.103,114.245 93.981,114.196 93.828,114.196C93.675,114.196 93.553,114.245 93.463,114.341C93.373,114.438 93.328,114.583 93.328,114.776L93.328,115.356Z" style="fill-rule:nonzero;"/>
                <path d="M97.948,114.656C97.941,114.483 97.886,114.353 97.783,114.266C97.68,114.18 97.561,114.136 97.428,114.136C97.268,114.136 97.145,114.188 97.058,114.291C96.971,114.395 96.928,114.513 96.928,114.646C96.928,114.74 96.951,114.831 96.998,114.921C97.045,115.011 97.165,115.093 97.358,115.166L97.958,115.406C98.338,115.553 98.6,115.753 98.743,116.006C98.886,116.26 98.958,116.536 98.958,116.836C98.958,117.05 98.92,117.248 98.843,117.431C98.766,117.615 98.661,117.776 98.528,117.916C98.395,118.056 98.235,118.166 98.048,118.246C97.861,118.326 97.658,118.366 97.438,118.366C97.025,118.366 96.678,118.236 96.398,117.976C96.258,117.85 96.145,117.691 96.058,117.501C95.971,117.311 95.925,117.09 95.918,116.836L96.878,116.836C96.898,116.976 96.946,117.106 97.023,117.226C97.1,117.346 97.235,117.406 97.428,117.406C97.575,117.406 97.706,117.358 97.823,117.261C97.94,117.165 97.998,117.03 97.998,116.856C97.998,116.716 97.961,116.596 97.888,116.496C97.815,116.396 97.681,116.31 97.488,116.236L96.998,116.056C96.678,115.936 96.426,115.758 96.243,115.521C96.06,115.285 95.968,114.996 95.968,114.656C95.968,114.443 96.008,114.245 96.088,114.061C96.168,113.878 96.278,113.72 96.418,113.586C96.551,113.453 96.708,113.351 96.888,113.281C97.068,113.211 97.261,113.176 97.468,113.176C97.675,113.176 97.866,113.213 98.043,113.286C98.22,113.36 98.371,113.463 98.498,113.596C98.625,113.73 98.725,113.888 98.798,114.071C98.871,114.255 98.908,114.45 98.908,114.656L97.948,114.656Z" style="fill-rule:nonzero;"/>
                <path d="M102.568,116.156L100.548,116.156L100.548,116.846C100.548,117.006 100.593,117.13 100.683,117.216C100.773,117.303 100.895,117.346 101.048,117.346C101.241,117.346 101.37,117.29 101.433,117.176C101.496,117.063 101.535,116.95 101.548,116.836L102.568,116.836C102.568,117.283 102.431,117.643 102.158,117.916C102.025,118.056 101.865,118.166 101.678,118.246C101.491,118.326 101.281,118.366 101.048,118.366C100.728,118.366 100.456,118.3 100.233,118.166C100.01,118.033 99.838,117.856 99.718,117.636C99.645,117.503 99.595,117.35 99.568,117.176C99.541,117.003 99.528,116.813 99.528,116.606L99.528,114.936C99.528,114.73 99.541,114.54 99.568,114.366C99.595,114.193 99.645,114.04 99.718,113.906C99.838,113.686 100.01,113.51 100.233,113.376C100.456,113.243 100.728,113.176 101.048,113.176C101.281,113.176 101.493,113.216 101.683,113.296C101.873,113.376 102.035,113.486 102.168,113.626C102.435,113.926 102.568,114.303 102.568,114.756L102.568,116.156ZM100.548,115.356L101.548,115.356L101.548,114.776C101.548,114.583 101.503,114.438 101.413,114.341C101.323,114.245 101.201,114.196 101.048,114.196C100.895,114.196 100.773,114.245 100.683,114.341C100.593,114.438 100.548,114.583 100.548,114.776L100.548,115.356Z" style="fill-rule:nonzero;"/>
                <path d="M103.318,113.236L103.318,111.696L104.338,111.696L104.338,113.236L104.968,113.236L104.968,114.036L104.338,114.036L104.338,116.846C104.338,116.966 104.35,117.06 104.373,117.126C104.396,117.193 104.435,117.243 104.488,117.276C104.541,117.31 104.606,117.33 104.683,117.336C104.76,117.343 104.855,117.346 104.968,117.346L104.968,118.306L104.548,118.306C104.315,118.306 104.12,118.27 103.963,118.196C103.806,118.123 103.681,118.03 103.588,117.916C103.495,117.803 103.426,117.675 103.383,117.531C103.34,117.388 103.318,117.25 103.318,117.116L103.318,114.036L102.808,114.036L102.808,113.236L103.318,113.236Z" style="fill-rule:nonzero;"/>
            </g>
            <g transform="matrix(1,0,0,1,39.4514,210.194)">
                <text x="89.198px" y="118.306px" style="font-family:'DINCondensed-Bold', 'DIN Condensed';font-weight:700;font-stretch:condensed;font-size:10px;">reset</text>
            </g>
        </g>
        <g transform="matrix(1,0,0,1,-3.75596,61.6273)">
            <g id="Clock-input" serif:id="Clock#input" transform="matrix(0.175002,0,0,0.175002,113.131,259.961)">
                <rect x="53.94" y="106.916" width="161.978" height="161.978" style="fill:rgb(204,204,204);"/>
            </g>
            <g transform="matrix(1,0,0,1,38.0336,157.708)">
                <path d="M90.698,116.846C90.698,117.006 90.743,117.13 90.833,117.216C90.923,117.303 91.045,117.346 91.198,117.346C91.391,117.346 91.52,117.29 91.583,117.176C91.646,117.063 91.685,116.95 91.698,116.836L92.718,116.836C92.718,117.283 92.581,117.643 92.308,117.916C92.175,118.056 92.015,118.166 91.828,118.246C91.641,118.326 91.431,118.366 91.198,118.366C90.878,118.366 90.606,118.3 90.383,118.166C90.16,118.033 89.988,117.856 89.868,117.636C89.795,117.503 89.745,117.35 89.718,117.176C89.691,117.003 89.678,116.813 89.678,116.606L89.678,114.936C89.678,114.73 89.691,114.54 89.718,114.366C89.745,114.193 89.795,114.04 89.868,113.906C89.988,113.686 90.16,113.51 90.383,113.376C90.606,113.243 90.878,113.176 91.198,113.176C91.431,113.176 91.643,113.216 91.833,113.296C92.023,113.376 92.185,113.486 92.318,113.626C92.585,113.926 92.718,114.316 92.718,114.796L91.698,114.796C91.698,114.59 91.653,114.438 91.563,114.341C91.473,114.245 91.351,114.196 91.198,114.196C91.045,114.196 90.923,114.245 90.833,114.341C90.743,114.438 90.698,114.583 90.698,114.776L90.698,116.846Z" style="fill-rule:nonzero;"/>
                <path d="M93.138,111.186L94.158,111.186L94.158,116.876C94.158,117.07 94.193,117.201 94.263,117.271C94.333,117.341 94.465,117.386 94.658,117.406L94.658,118.366C94.425,118.366 94.215,118.348 94.028,118.311C93.841,118.275 93.681,118.203 93.548,118.096C93.415,117.996 93.313,117.855 93.243,117.671C93.173,117.488 93.138,117.246 93.138,116.946L93.138,111.186Z" style="fill-rule:nonzero;"/>
                <path d="M94.968,114.936C94.968,114.73 94.981,114.54 95.008,114.366C95.035,114.193 95.085,114.04 95.158,113.906C95.278,113.686 95.45,113.51 95.673,113.376C95.896,113.243 96.168,113.176 96.488,113.176C96.808,113.176 97.08,113.243 97.303,113.376C97.526,113.51 97.698,113.686 97.818,113.906C97.891,114.04 97.941,114.193 97.968,114.366C97.995,114.54 98.008,114.73 98.008,114.936L98.008,116.606C98.008,116.813 97.995,117.003 97.968,117.176C97.941,117.35 97.891,117.503 97.818,117.636C97.698,117.856 97.526,118.033 97.303,118.166C97.08,118.3 96.808,118.366 96.488,118.366C96.168,118.366 95.896,118.3 95.673,118.166C95.45,118.033 95.278,117.856 95.158,117.636C95.085,117.503 95.035,117.35 95.008,117.176C94.981,117.003 94.968,116.813 94.968,116.606L94.968,114.936ZM95.988,116.766C95.988,116.96 96.033,117.105 96.123,117.201C96.213,117.298 96.335,117.346 96.488,117.346C96.641,117.346 96.763,117.298 96.853,117.201C96.943,117.105 96.988,116.96 96.988,116.766L96.988,114.776C96.988,114.583 96.943,114.438 96.853,114.341C96.763,114.245 96.641,114.196 96.488,114.196C96.335,114.196 96.213,114.245 96.123,114.341C96.033,114.438 95.988,114.583 95.988,114.776L95.988,116.766Z" style="fill-rule:nonzero;"/>
                <path d="M99.838,116.846C99.838,117.006 99.883,117.13 99.973,117.216C100.063,117.303 100.185,117.346 100.338,117.346C100.531,117.346 100.66,117.29 100.723,117.176C100.786,117.063 100.825,116.95 100.838,116.836L101.858,116.836C101.858,117.283 101.721,117.643 101.448,117.916C101.315,118.056 101.155,118.166 100.968,118.246C100.781,118.326 100.571,118.366 100.338,118.366C100.018,118.366 99.746,118.3 99.523,118.166C99.3,118.033 99.128,117.856 99.008,117.636C98.935,117.503 98.885,117.35 98.858,117.176C98.831,117.003 98.818,116.813 98.818,116.606L98.818,114.936C98.818,114.73 98.831,114.54 98.858,114.366C98.885,114.193 98.935,114.04 99.008,113.906C99.128,113.686 99.3,113.51 99.523,113.376C99.746,113.243 100.018,113.176 100.338,113.176C100.571,113.176 100.783,113.216 100.973,113.296C101.163,113.376 101.325,113.486 101.458,113.626C101.725,113.926 101.858,114.316 101.858,114.796L100.838,114.796C100.838,114.59 100.793,114.438 100.703,114.341C100.613,114.245 100.491,114.196 100.338,114.196C100.185,114.196 100.063,114.245 99.973,114.341C99.883,114.438 99.838,114.583 99.838,114.776L99.838,116.846Z" style="fill-rule:nonzero;"/>
                <path d="M102.338,118.306L102.338,111.186L103.358,111.186L103.358,115.446L103.378,115.446L104.608,113.236L105.628,113.236L104.418,115.296L105.878,118.306L104.768,118.306L103.848,116.116L103.358,116.886L103.358,118.306L102.338,118.306Z" style="fill-rule:nonzero;"/>
            </g>
            <g transform="matrix(1,0,0,1,38.0336,157.708)">
                <text x="89.198px" y="118.306px" style="font-family:'DINCondensed-Bold', 'DIN Condensed';font-weight:700;font-stretch:condensed;font-size:10px;">c<tspan x="92.778px 94.638px 98.338px 101.918px " y="118.306px 118.306px 118.306px 118.306px ">lock</tspan></text>
            </g>
        </g>
    </g>
    <g transform="matrix(1,0,0,1,-25.2004,194.538)">
        <g id="Mode-button" serif:id="Mode#button" transform="matrix(0.174892,0,0,0.175002,25.7667,83.349)">
            <rect x="53.94" y="106.916" width="161.978" height="161.978" style="fill:rgb(102,126,153);"/>
        </g>
        <g transform="matrix(1,0,0,1,82.1111,39.8522)">
            <g id="Current-light" serif:id="Current#light" transform="matrix(1,0,0,1,-4.40798,-259.663)">
                <circle cx="42.167" cy="335.861" r="3.82" style="fill:rgb(230,230,230);"/>
            </g>
            <g transform="matrix(1,0,0,1,-63.0842,-28.4592)">
                <path d="M90.698,116.846C90.698,117.006 90.743,117.13 90.833,117.216C90.923,117.303 91.045,117.346 91.198,117.346C91.391,117.346 91.52,117.29 91.583,117.176C91.646,117.063 91.685,116.95 91.698,116.836L92.718,116.836C92.718,117.283 92.581,117.643 92.308,117.916C92.175,118.056 92.015,118.166 91.828,118.246C91.641,118.326 91.431,118.366 91.198,118.366C90.878,118.366 90.606,118.3 90.383,118.166C90.16,118.033 89.988,117.856 89.868,117.636C89.795,117.503 89.745,117.35 89.718,117.176C89.691,117.003 89.678,116.813 89.678,116.606L89.678,114.936C89.678,114.73 89.691,114.54 89.718,114.366C89.745,114.193 89.795,114.04 89.868,113.906C89.988,113.686 90.16,113.51 90.383,113.376C90.606,113.243 90.878,113.176 91.198,113.176C91.431,113.176 91.643,113.216 91.833,113.296C92.023,113.376 92.185,113.486 92.318,113.626C92.585,113.926 92.718,114.316 92.718,114.796L91.698,114.796C91.698,114.59 91.653,114.438 91.563,114.341C91.473,114.245 91.351,114.196 91.198,114.196C91.045,114.196 90.923,114.245 90.833,114.341C90.743,114.438 90.698,114.583 90.698,114.776L90.698,116.846Z" style="fill-rule:nonzero;"/>
                <path d="M96.368,113.236L96.368,118.306L95.348,118.306L95.348,117.816L95.328,117.816C95.221,117.976 95.093,118.108 94.943,118.211C94.793,118.315 94.601,118.366 94.368,118.366C94.241,118.366 94.115,118.345 93.988,118.301C93.861,118.258 93.748,118.186 93.648,118.086C93.548,117.986 93.468,117.858 93.408,117.701C93.348,117.545 93.318,117.353 93.318,117.126L93.318,113.236L94.338,113.236L94.338,116.746C94.338,116.933 94.381,117.08 94.468,117.186C94.555,117.293 94.678,117.346 94.838,117.346C95.031,117.346 95.165,117.286 95.238,117.166C95.311,117.046 95.348,116.873 95.348,116.646L95.348,113.236L96.368,113.236Z" style="fill-rule:nonzero;"/>
                <path d="M97.208,118.306L97.208,113.236L98.228,113.236L98.228,113.776C98.435,113.59 98.638,113.443 98.838,113.336C99.038,113.23 99.285,113.176 99.578,113.176L99.578,114.256C99.478,114.216 99.375,114.196 99.268,114.196C99.161,114.196 99.046,114.215 98.923,114.251C98.8,114.288 98.688,114.35 98.588,114.436C98.481,114.523 98.395,114.636 98.328,114.776C98.261,114.916 98.228,115.09 98.228,115.296L98.228,118.306L97.208,118.306Z" style="fill-rule:nonzero;"/>
                <path d="M99.988,118.306L99.988,113.236L101.008,113.236L101.008,113.776C101.215,113.59 101.418,113.443 101.618,113.336C101.818,113.23 102.065,113.176 102.358,113.176L102.358,114.256C102.258,114.216 102.155,114.196 102.048,114.196C101.941,114.196 101.826,114.215 101.703,114.251C101.58,114.288 101.468,114.35 101.368,114.436C101.261,114.523 101.175,114.636 101.108,114.776C101.041,114.916 101.008,115.09 101.008,115.296L101.008,118.306L99.988,118.306Z" style="fill-rule:nonzero;"/>
                <path d="M105.718,116.156L103.698,116.156L103.698,116.846C103.698,117.006 103.743,117.13 103.833,117.216C103.923,117.303 104.045,117.346 104.198,117.346C104.391,117.346 104.52,117.29 104.583,117.176C104.646,117.063 104.685,116.95 104.698,116.836L105.718,116.836C105.718,117.283 105.581,117.643 105.308,117.916C105.175,118.056 105.015,118.166 104.828,118.246C104.641,118.326 104.431,118.366 104.198,118.366C103.878,118.366 103.606,118.3 103.383,118.166C103.16,118.033 102.988,117.856 102.868,117.636C102.795,117.503 102.745,117.35 102.718,117.176C102.691,117.003 102.678,116.813 102.678,116.606L102.678,114.936C102.678,114.73 102.691,114.54 102.718,114.366C102.745,114.193 102.795,114.04 102.868,113.906C102.988,113.686 103.16,113.51 103.383,113.376C103.606,113.243 103.878,113.176 104.198,113.176C104.431,113.176 104.643,113.216 104.833,113.296C105.023,113.376 105.185,113.486 105.318,113.626C105.585,113.926 105.718,114.303 105.718,114.756L105.718,116.156ZM103.698,115.356L104.698,115.356L104.698,114.776C104.698,114.583 104.653,114.438 104.563,114.341C104.473,114.245 104.351,114.196 104.198,114.196C104.045,114.196 103.923,114.245 103.833,114.341C103.743,114.438 103.698,114.583 103.698,114.776L103.698,115.356Z" style="fill-rule:nonzero;"/>
                <path d="M106.468,118.306L106.468,113.236L107.488,113.236L107.488,113.726L107.508,113.726C107.615,113.566 107.743,113.435 107.893,113.331C108.043,113.228 108.235,113.176 108.468,113.176C108.595,113.176 108.721,113.198 108.848,113.241C108.975,113.285 109.088,113.356 109.188,113.456C109.288,113.556 109.368,113.685 109.428,113.841C109.488,113.998 109.518,114.19 109.518,114.416L109.518,118.306L108.498,118.306L108.498,114.796C108.498,114.61 108.455,114.463 108.368,114.356C108.281,114.25 108.158,114.196 107.998,114.196C107.805,114.196 107.671,114.256 107.598,114.376C107.525,114.496 107.488,114.67 107.488,114.896L107.488,118.306L106.468,118.306Z" style="fill-rule:nonzero;"/>
                <path d="M110.358,113.236L110.358,111.696L111.378,111.696L111.378,113.236L112.008,113.236L112.008,114.036L111.378,114.036L111.378,116.846C111.378,116.966 111.39,117.06 111.413,117.126C111.436,117.193 111.475,117.243 111.528,117.276C111.581,117.31 111.646,117.33 111.723,117.336C111.8,117.343 111.895,117.346 112.008,117.346L112.008,118.306L111.588,118.306C111.355,118.306 111.16,118.27 111.003,118.196C110.846,118.123 110.721,118.03 110.628,117.916C110.535,117.803 110.466,117.675 110.423,117.531C110.38,117.388 110.358,117.25 110.358,117.116L110.358,114.036L109.848,114.036L109.848,113.236L110.358,113.236Z" style="fill-rule:nonzero;"/>
            </g>
            <g transform="matrix(1,0,0,1,-63.0842,-28.4592)">
                <text x="89.198px" y="118.306px" style="font-family:'DINCondensed-Bold', 'DIN Condensed';font-weight:700;font-stretch:condensed;font-size:10px;">current</text>
            </g>
        </g>
        <g transform="matrix(1,0,0,1,69.0045,60.3203)">
            <g id="Count-light" serif:id="Count#light" transform="matrix(1,0,0,1,-7.26512,-280.119)">
                <circle cx="42.167" cy="335.861" r="3.82" style="fill:rgb(230,230,230);"/>
            </g>
            <g transform="matrix(1,0,0,1,-66.0842,-70.4592)">
                <path d="M93.478,116.846C93.478,117.006 93.523,117.13 93.613,117.216C93.703,117.303 93.825,117.346 93.978,117.346C94.171,117.346 94.3,117.29 94.363,117.176C94.426,117.063 94.465,116.95 94.478,116.836L95.498,116.836C95.498,117.283 95.361,117.643 95.088,117.916C94.955,118.056 94.795,118.166 94.608,118.246C94.421,118.326 94.211,118.366 93.978,118.366C93.658,118.366 93.386,118.3 93.163,118.166C92.94,118.033 92.768,117.856 92.648,117.636C92.575,117.503 92.525,117.35 92.498,117.176C92.471,117.003 92.458,116.813 92.458,116.606L92.458,114.936C92.458,114.73 92.471,114.54 92.498,114.366C92.525,114.193 92.575,114.04 92.648,113.906C92.768,113.686 92.94,113.51 93.163,113.376C93.386,113.243 93.658,113.176 93.978,113.176C94.211,113.176 94.423,113.216 94.613,113.296C94.803,113.376 94.965,113.486 95.098,113.626C95.365,113.926 95.498,114.316 95.498,114.796L94.478,114.796C94.478,114.59 94.433,114.438 94.343,114.341C94.253,114.245 94.131,114.196 93.978,114.196C93.825,114.196 93.703,114.245 93.613,114.341C93.523,114.438 93.478,114.583 93.478,114.776L93.478,116.846Z" style="fill-rule:nonzero;"/>
                <path d="M96.008,114.936C96.008,114.73 96.021,114.54 96.048,114.366C96.075,114.193 96.125,114.04 96.198,113.906C96.318,113.686 96.49,113.51 96.713,113.376C96.936,113.243 97.208,113.176 97.528,113.176C97.848,113.176 98.12,113.243 98.343,113.376C98.566,113.51 98.738,113.686 98.858,113.906C98.931,114.04 98.981,114.193 99.008,114.366C99.035,114.54 99.048,114.73 99.048,114.936L99.048,116.606C99.048,116.813 99.035,117.003 99.008,117.176C98.981,117.35 98.931,117.503 98.858,117.636C98.738,117.856 98.566,118.033 98.343,118.166C98.12,118.3 97.848,118.366 97.528,118.366C97.208,118.366 96.936,118.3 96.713,118.166C96.49,118.033 96.318,117.856 96.198,117.636C96.125,117.503 96.075,117.35 96.048,117.176C96.021,117.003 96.008,116.813 96.008,116.606L96.008,114.936ZM97.028,116.766C97.028,116.96 97.073,117.105 97.163,117.201C97.253,117.298 97.375,117.346 97.528,117.346C97.681,117.346 97.803,117.298 97.893,117.201C97.983,117.105 98.028,116.96 98.028,116.766L98.028,114.776C98.028,114.583 97.983,114.438 97.893,114.341C97.803,114.245 97.681,114.196 97.528,114.196C97.375,114.196 97.253,114.245 97.163,114.341C97.073,114.438 97.028,114.583 97.028,114.776L97.028,116.766Z" style="fill-rule:nonzero;"/>
                <path d="M102.848,113.236L102.848,118.306L101.828,118.306L101.828,117.816L101.808,117.816C101.701,117.976 101.573,118.108 101.423,118.211C101.273,118.315 101.081,118.366 100.848,118.366C100.721,118.366 100.595,118.345 100.468,118.301C100.341,118.258 100.228,118.186 100.128,118.086C100.028,117.986 99.948,117.858 99.888,117.701C99.828,117.545 99.798,117.353 99.798,117.126L99.798,113.236L100.818,113.236L100.818,116.746C100.818,116.933 100.861,117.08 100.948,117.186C101.035,117.293 101.158,117.346 101.318,117.346C101.511,117.346 101.645,117.286 101.718,117.166C101.791,117.046 101.828,116.873 101.828,116.646L101.828,113.236L102.848,113.236Z" style="fill-rule:nonzero;"/>
                <path d="M103.688,118.306L103.688,113.236L104.708,113.236L104.708,113.726L104.728,113.726C104.835,113.566 104.963,113.435 105.113,113.331C105.263,113.228 105.455,113.176 105.688,113.176C105.815,113.176 105.941,113.198 106.068,113.241C106.195,113.285 106.308,113.356 106.408,113.456C106.508,113.556 106.588,113.685 106.648,113.841C106.708,113.998 106.738,114.19 106.738,114.416L106.738,118.306L105.718,118.306L105.718,114.796C105.718,114.61 105.675,114.463 105.588,114.356C105.501,114.25 105.378,114.196 105.218,114.196C105.025,114.196 104.891,114.256 104.818,114.376C104.745,114.496 104.708,114.67 104.708,114.896L104.708,118.306L103.688,118.306Z" style="fill-rule:nonzero;"/>
                <path d="M107.578,113.236L107.578,111.696L108.598,111.696L108.598,113.236L109.228,113.236L109.228,114.036L108.598,114.036L108.598,116.846C108.598,116.966 108.61,117.06 108.633,117.126C108.656,117.193 108.695,117.243 108.748,117.276C108.801,117.31 108.866,117.33 108.943,117.336C109.02,117.343 109.115,117.346 109.228,117.346L109.228,118.306L108.808,118.306C108.575,118.306 108.38,118.27 108.223,118.196C108.066,118.123 107.941,118.03 107.848,117.916C107.755,117.803 107.686,117.675 107.643,117.531C107.6,117.388 107.578,117.25 107.578,117.116L107.578,114.036L107.068,114.036L107.068,113.236L107.578,113.236Z" style="fill-rule:nonzero;"/>
            </g>
            <g transform="matrix(1,0,0,1,-66.0842,-70.4592)">
                <text x="91.978px" y="118.306px" style="font-family:'DINCondensed-Bold', 'DIN Condensed';font-weight:700;font-stretch:condensed;font-size:10px;">count</text>
            </g>
        </g>
        <g transform="matrix(1,0,0,1,51.9348,60.4907)">
            <g id="Length-light" serif:id="Length#light" transform="matrix(1,0,0,1,-6.15914,-280.119)">
                <circle cx="42.167" cy="335.861" r="3.82" style="fill:rgb(230,230,230);"/>
            </g>
            <g transform="matrix(1,0,0,1,-65.0842,-48.4592)">
                <path d="M91.313,111.186L92.333,111.186L92.333,116.876C92.333,117.07 92.368,117.201 92.438,117.271C92.508,117.341 92.64,117.386 92.833,117.406L92.833,118.366C92.6,118.366 92.39,118.348 92.203,118.311C92.016,118.275 91.856,118.203 91.723,118.096C91.59,117.996 91.488,117.855 91.418,117.671C91.348,117.488 91.313,117.246 91.313,116.946L91.313,111.186Z" style="fill-rule:nonzero;"/>
                <path d="M96.183,116.156L94.163,116.156L94.163,116.846C94.163,117.006 94.208,117.13 94.298,117.216C94.388,117.303 94.51,117.346 94.663,117.346C94.856,117.346 94.985,117.29 95.048,117.176C95.111,117.063 95.15,116.95 95.163,116.836L96.183,116.836C96.183,117.283 96.046,117.643 95.773,117.916C95.64,118.056 95.48,118.166 95.293,118.246C95.106,118.326 94.896,118.366 94.663,118.366C94.343,118.366 94.071,118.3 93.848,118.166C93.625,118.033 93.453,117.856 93.333,117.636C93.26,117.503 93.21,117.35 93.183,117.176C93.156,117.003 93.143,116.813 93.143,116.606L93.143,114.936C93.143,114.73 93.156,114.54 93.183,114.366C93.21,114.193 93.26,114.04 93.333,113.906C93.453,113.686 93.625,113.51 93.848,113.376C94.071,113.243 94.343,113.176 94.663,113.176C94.896,113.176 95.108,113.216 95.298,113.296C95.488,113.376 95.65,113.486 95.783,113.626C96.05,113.926 96.183,114.303 96.183,114.756L96.183,116.156ZM94.163,115.356L95.163,115.356L95.163,114.776C95.163,114.583 95.118,114.438 95.028,114.341C94.938,114.245 94.816,114.196 94.663,114.196C94.51,114.196 94.388,114.245 94.298,114.341C94.208,114.438 94.163,114.583 94.163,114.776L94.163,115.356Z" style="fill-rule:nonzero;"/>
                <path d="M96.933,118.306L96.933,113.236L97.953,113.236L97.953,113.726L97.973,113.726C98.08,113.566 98.208,113.435 98.358,113.331C98.508,113.228 98.7,113.176 98.933,113.176C99.06,113.176 99.186,113.198 99.313,113.241C99.44,113.285 99.553,113.356 99.653,113.456C99.753,113.556 99.833,113.685 99.893,113.841C99.953,113.998 99.983,114.19 99.983,114.416L99.983,118.306L98.963,118.306L98.963,114.796C98.963,114.61 98.92,114.463 98.833,114.356C98.746,114.25 98.623,114.196 98.463,114.196C98.27,114.196 98.136,114.256 98.063,114.376C97.99,114.496 97.953,114.67 97.953,114.896L97.953,118.306L96.933,118.306Z" style="fill-rule:nonzero;"/>
                <path d="M101.843,118.896C101.85,119.016 101.898,119.13 101.988,119.236C102.078,119.343 102.21,119.396 102.383,119.396C102.55,119.396 102.67,119.345 102.743,119.241C102.816,119.138 102.853,119.006 102.853,118.846L102.853,117.846L102.833,117.846C102.72,118.013 102.585,118.141 102.428,118.231C102.271,118.321 102.09,118.366 101.883,118.366C101.456,118.366 101.16,118.206 100.993,117.886C100.933,117.773 100.89,117.633 100.863,117.466C100.836,117.3 100.823,117.076 100.823,116.796L100.823,114.866C100.823,114.5 100.833,114.23 100.853,114.056C100.893,113.723 101.05,113.473 101.323,113.306C101.45,113.22 101.64,113.176 101.893,113.176C102.02,113.176 102.128,113.19 102.218,113.216C102.308,113.243 102.39,113.28 102.463,113.326C102.536,113.373 102.603,113.428 102.663,113.491C102.723,113.555 102.786,113.623 102.853,113.696L102.853,113.236L103.873,113.236L103.873,118.926C103.873,119.1 103.845,119.275 103.788,119.451C103.731,119.628 103.64,119.786 103.513,119.926C103.386,120.073 103.226,120.191 103.033,120.281C102.84,120.371 102.61,120.416 102.343,120.416C102.19,120.416 102.03,120.391 101.863,120.341C101.696,120.291 101.543,120.206 101.403,120.086C101.256,119.973 101.131,119.821 101.028,119.631C100.925,119.441 100.856,119.196 100.823,118.896L101.843,118.896ZM101.843,116.746C101.843,116.906 101.878,117.046 101.948,117.166C102.018,117.286 102.15,117.346 102.343,117.346C102.49,117.346 102.611,117.295 102.708,117.191C102.805,117.088 102.853,116.956 102.853,116.796L102.853,114.826C102.853,114.64 102.806,114.488 102.713,114.371C102.62,114.255 102.496,114.196 102.343,114.196C102.17,114.196 102.043,114.26 101.963,114.386C101.883,114.513 101.843,114.68 101.843,114.886L101.843,116.746Z" style="fill-rule:nonzero;"/>
                <path d="M104.713,113.236L104.713,111.696L105.733,111.696L105.733,113.236L106.363,113.236L106.363,114.036L105.733,114.036L105.733,116.846C105.733,116.966 105.745,117.06 105.768,117.126C105.791,117.193 105.83,117.243 105.883,117.276C105.936,117.31 106.001,117.33 106.078,117.336C106.155,117.343 106.25,117.346 106.363,117.346L106.363,118.306L105.943,118.306C105.71,118.306 105.515,118.27 105.358,118.196C105.201,118.123 105.076,118.03 104.983,117.916C104.89,117.803 104.821,117.675 104.778,117.531C104.735,117.388 104.713,117.25 104.713,117.116L104.713,114.036L104.203,114.036L104.203,113.236L104.713,113.236Z" style="fill-rule:nonzero;"/>
                <path d="M106.753,118.306L106.753,111.186L107.773,111.186L107.773,113.726L107.793,113.726C107.9,113.566 108.028,113.435 108.178,113.331C108.328,113.228 108.52,113.176 108.753,113.176C108.88,113.176 109.006,113.198 109.133,113.241C109.26,113.285 109.373,113.356 109.473,113.456C109.573,113.556 109.653,113.685 109.713,113.841C109.773,113.998 109.803,114.19 109.803,114.416L109.803,118.306L108.783,118.306L108.783,114.796C108.783,114.61 108.74,114.463 108.653,114.356C108.566,114.25 108.443,114.196 108.283,114.196C108.09,114.196 107.956,114.256 107.883,114.376C107.81,114.496 107.773,114.67 107.773,114.896L107.773,118.306L106.753,118.306Z" style="fill-rule:nonzero;"/>
            </g>
            <g transform="matrix(1,0,0,1,-65.0842,-48.4592)">
                <text x="90.953px" y="118.306px" style="font-family:'DINCondensed-Bold', 'DIN Condensed';font-weight:700;font-stretch:condensed;font-size:10px;">length</text>
            </g>
        </g>
        <g transform="matrix(1,0,0,1,34.2199,40.035)">
            <g id="Division-light" serif:id="Division#light" transform="matrix(1,0,0,1,-4.40798,-259.663)">
                <circle cx="42.167" cy="335.861" r="3.82" style="fill:rgb(230,230,230);"/>
            </g>
            <g transform="matrix(1,0,0,1,-63.0842,-50.4592)">
                <path d="M89.978,116.656C89.978,116.863 90.018,117.03 90.098,117.156C90.178,117.283 90.305,117.346 90.478,117.346C90.631,117.346 90.755,117.288 90.848,117.171C90.941,117.055 90.988,116.903 90.988,116.716L90.988,114.746C90.988,114.586 90.94,114.455 90.843,114.351C90.746,114.248 90.625,114.196 90.478,114.196C90.285,114.196 90.153,114.256 90.083,114.376C90.013,114.496 89.978,114.636 89.978,114.796L89.978,116.656ZM90.988,118.306L90.988,117.846C90.921,117.92 90.858,117.988 90.798,118.051C90.738,118.115 90.671,118.17 90.598,118.216C90.525,118.263 90.441,118.3 90.348,118.326C90.255,118.353 90.145,118.366 90.018,118.366C89.591,118.366 89.295,118.206 89.128,117.886C89.068,117.773 89.025,117.633 88.998,117.466C88.971,117.3 88.958,117.076 88.958,116.796L88.958,114.866C88.958,114.5 88.968,114.23 88.988,114.056C89.028,113.723 89.185,113.473 89.458,113.306C89.585,113.22 89.775,113.176 90.028,113.176C90.228,113.176 90.406,113.221 90.563,113.311C90.72,113.401 90.855,113.53 90.968,113.696L90.988,113.696L90.988,111.186L92.008,111.186L92.008,118.306L90.988,118.306Z" style="fill-rule:nonzero;"/>
                <path d="M92.848,118.306L92.848,113.236L93.868,113.236L93.868,118.306L92.848,118.306ZM92.848,112.206L92.848,111.186L93.868,111.186L93.868,112.206L92.848,112.206Z" style="fill-rule:nonzero;"/>
                <path d="M97.818,113.236L96.498,118.306L95.598,118.306L94.278,113.236L95.358,113.236L96.038,116.476L96.058,116.476L96.738,113.236L97.818,113.236Z" style="fill-rule:nonzero;"/>
                <path d="M98.228,118.306L98.228,113.236L99.248,113.236L99.248,118.306L98.228,118.306ZM98.228,112.206L98.228,111.186L99.248,111.186L99.248,112.206L98.228,112.206Z" style="fill-rule:nonzero;"/>
                <path d="M101.938,114.656C101.931,114.483 101.876,114.353 101.773,114.266C101.67,114.18 101.551,114.136 101.418,114.136C101.258,114.136 101.135,114.188 101.048,114.291C100.961,114.395 100.918,114.513 100.918,114.646C100.918,114.74 100.941,114.831 100.988,114.921C101.035,115.011 101.155,115.093 101.348,115.166L101.948,115.406C102.328,115.553 102.59,115.753 102.733,116.006C102.876,116.26 102.948,116.536 102.948,116.836C102.948,117.05 102.91,117.248 102.833,117.431C102.756,117.615 102.651,117.776 102.518,117.916C102.385,118.056 102.225,118.166 102.038,118.246C101.851,118.326 101.648,118.366 101.428,118.366C101.015,118.366 100.668,118.236 100.388,117.976C100.248,117.85 100.135,117.691 100.048,117.501C99.961,117.311 99.915,117.09 99.908,116.836L100.868,116.836C100.888,116.976 100.936,117.106 101.013,117.226C101.09,117.346 101.225,117.406 101.418,117.406C101.565,117.406 101.696,117.358 101.813,117.261C101.93,117.165 101.988,117.03 101.988,116.856C101.988,116.716 101.951,116.596 101.878,116.496C101.805,116.396 101.671,116.31 101.478,116.236L100.988,116.056C100.668,115.936 100.416,115.758 100.233,115.521C100.05,115.285 99.958,114.996 99.958,114.656C99.958,114.443 99.998,114.245 100.078,114.061C100.158,113.878 100.268,113.72 100.408,113.586C100.541,113.453 100.698,113.351 100.878,113.281C101.058,113.211 101.251,113.176 101.458,113.176C101.665,113.176 101.856,113.213 102.033,113.286C102.21,113.36 102.361,113.463 102.488,113.596C102.615,113.73 102.715,113.888 102.788,114.071C102.861,114.255 102.898,114.45 102.898,114.656L101.938,114.656Z" style="fill-rule:nonzero;"/>
                <path d="M103.608,118.306L103.608,113.236L104.628,113.236L104.628,118.306L103.608,118.306ZM103.608,112.206L103.608,111.186L104.628,111.186L104.628,112.206L103.608,112.206Z" style="fill-rule:nonzero;"/>
                <path d="M105.378,114.936C105.378,114.73 105.391,114.54 105.418,114.366C105.445,114.193 105.495,114.04 105.568,113.906C105.688,113.686 105.86,113.51 106.083,113.376C106.306,113.243 106.578,113.176 106.898,113.176C107.218,113.176 107.49,113.243 107.713,113.376C107.936,113.51 108.108,113.686 108.228,113.906C108.301,114.04 108.351,114.193 108.378,114.366C108.405,114.54 108.418,114.73 108.418,114.936L108.418,116.606C108.418,116.813 108.405,117.003 108.378,117.176C108.351,117.35 108.301,117.503 108.228,117.636C108.108,117.856 107.936,118.033 107.713,118.166C107.49,118.3 107.218,118.366 106.898,118.366C106.578,118.366 106.306,118.3 106.083,118.166C105.86,118.033 105.688,117.856 105.568,117.636C105.495,117.503 105.445,117.35 105.418,117.176C105.391,117.003 105.378,116.813 105.378,116.606L105.378,114.936ZM106.398,116.766C106.398,116.96 106.443,117.105 106.533,117.201C106.623,117.298 106.745,117.346 106.898,117.346C107.051,117.346 107.173,117.298 107.263,117.201C107.353,117.105 107.398,116.96 107.398,116.766L107.398,114.776C107.398,114.583 107.353,114.438 107.263,114.341C107.173,114.245 107.051,114.196 106.898,114.196C106.745,114.196 106.623,114.245 106.533,114.341C106.443,114.438 106.398,114.583 106.398,114.776L106.398,116.766Z" style="fill-rule:nonzero;"/>
                <path d="M109.168,118.306L109.168,113.236L110.188,113.236L110.188,113.726L110.208,113.726C110.315,113.566 110.443,113.435 110.593,113.331C110.743,113.228 110.935,113.176 111.168,113.176C111.295,113.176 111.421,113.198 111.548,113.241C111.675,113.285 111.788,113.356 111.888,113.456C111.988,113.556 112.068,113.685 112.128,113.841C112.188,113.998 112.218,114.19 112.218,114.416L112.218,118.306L111.198,118.306L111.198,114.796C111.198,114.61 111.155,114.463 111.068,114.356C110.981,114.25 110.858,114.196 110.698,114.196C110.505,114.196 110.371,114.256 110.298,114.376C110.225,114.496 110.188,114.67 110.188,114.896L110.188,118.306L109.168,118.306Z" style="fill-rule:nonzero;"/>
            </g>
            <g transform="matrix(1,0,0,1,-63.0842,-50.4592)">
                <text x="88.538px" y="118.306px" style="font-family:'DINCondensed-Bold', 'DIN Condensed';font-weight:700;font-stretch:condensed;font-size:10px;">division</text>
            </g>
        </g>
    </g>
    <g id="Channel8" transform="matrix(1,0,0,1,-53.1007,-79.643)">
        <g id="Strip-meter-5" serif:id="Strip#meter$5" transform="matrix(0.0370421,0,0,0.160516,155.103,324.319)">
            <rect x="53.94" y="106.916" width="161.978" height="161.978" style="fill:rgb(102,126,153);"/>
        </g>
        <g id="Output-output" serif:id="Output#output" transform="matrix(0.175002,0,0,0.175002,117.262,321.597)">
            <rect x="53.94" y="106.916" width="161.978" height="161.978" style="fill:rgb(77,77,77);"/>
        </g>
        <g id="Display-display-3" serif:id="Display#display$3" transform="matrix(1.04176,0,0,1.02078,-16.7664,271.006)">
            <rect x="87.136" y="70.02" width="47.996" height="23.511" style="fill:rgb(19,19,19);"/>
        </g>
        <g transform="matrix(1,0,0,1,-21.8663,241.871)">
            <path d="M90.742,109.25C90.742,109.026 90.662,108.837 90.502,108.682C90.342,108.528 90.155,108.45 89.942,108.45C89.729,108.45 89.542,108.528 89.382,108.682C89.222,108.837 89.142,109.026 89.142,109.25L89.142,110.914C89.142,111.138 89.222,111.328 89.382,111.482C89.542,111.637 89.729,111.714 89.942,111.714C90.155,111.714 90.342,111.637 90.502,111.482C90.662,111.328 90.742,111.138 90.742,110.914L90.742,109.25ZM87.51,109.89C87.51,109.581 87.521,109.317 87.542,109.098C87.563,108.88 87.601,108.69 87.654,108.53C87.707,108.37 87.769,108.226 87.838,108.098C87.907,107.97 87.995,107.837 88.102,107.698C88.315,107.421 88.582,107.205 88.902,107.05C89.222,106.896 89.569,106.818 89.942,106.818C90.315,106.818 90.662,106.896 90.982,107.05C91.302,107.205 91.569,107.421 91.782,107.698C91.889,107.837 91.979,107.97 92.054,108.098C92.129,108.226 92.193,108.37 92.246,108.53C92.299,108.69 92.334,108.88 92.35,109.098C92.366,109.317 92.374,109.581 92.374,109.89C92.374,110.232 92.369,110.52 92.358,110.754C92.347,110.989 92.315,111.197 92.262,111.378C92.209,111.56 92.126,111.722 92.014,111.866C91.902,112.01 91.75,112.162 91.558,112.322C91.75,112.472 91.902,112.621 92.014,112.77C92.126,112.92 92.209,113.096 92.262,113.298C92.315,113.501 92.347,113.749 92.358,114.042C92.369,114.336 92.374,114.696 92.374,115.122C92.374,115.474 92.366,115.765 92.35,115.994C92.334,116.224 92.31,116.424 92.278,116.594C92.246,116.765 92.201,116.909 92.142,117.026C92.083,117.144 92.011,117.266 91.926,117.394C91.745,117.672 91.489,117.909 91.158,118.106C90.827,118.304 90.422,118.402 89.942,118.402C89.462,118.402 89.057,118.304 88.726,118.106C88.395,117.909 88.139,117.672 87.958,117.394C87.873,117.266 87.801,117.144 87.742,117.026C87.683,116.909 87.638,116.765 87.606,116.594C87.574,116.424 87.55,116.224 87.534,115.994C87.518,115.765 87.51,115.474 87.51,115.122C87.51,114.696 87.515,114.336 87.526,114.042C87.537,113.749 87.569,113.501 87.622,113.298C87.675,113.096 87.758,112.92 87.87,112.77C87.982,112.621 88.134,112.472 88.326,112.322C88.134,112.162 87.982,112.01 87.87,111.866C87.758,111.722 87.675,111.56 87.622,111.378C87.569,111.197 87.537,110.989 87.526,110.754C87.515,110.52 87.51,110.232 87.51,109.89ZM90.742,113.73C90.742,113.506 90.662,113.317 90.502,113.162C90.342,113.008 90.155,112.93 89.942,112.93C89.729,112.93 89.542,113.008 89.382,113.162C89.222,113.317 89.142,113.506 89.142,113.73L89.142,115.97C89.142,116.194 89.222,116.384 89.382,116.538C89.542,116.693 89.729,116.77 89.942,116.77C90.155,116.77 90.342,116.693 90.502,116.538C90.662,116.384 90.742,116.194 90.742,115.97L90.742,113.73Z" style="fill-rule:nonzero;"/>
        </g>
        <g transform="matrix(1,0,0,1,-21.8663,241.871)">
            <text x="86.966px" y="118.306px" style="font-family:'DINCondensed-Bold', 'DIN Condensed';font-weight:700;font-stretch:condensed;font-size:16px;">8</text>
        </g>
    </g>
    <g id="Channel7" transform="matrix(1,0,0,1,-53.1007,-113.367)">
        <g id="Strip-meter-51" serif:id="Strip#meter$5" transform="matrix(0.0370421,0,0,0.160516,155.103,324.319)">
            <rect x="53.94" y="106.916" width="161.978" height="161.978" style="fill:rgb(102,126,153);"/>
        </g>
        <g id="Output-output1" serif:id="Output#output" transform="matrix(0.175002,0,0,0.175002,117.262,321.597)">
            <rect x="53.94" y="106.916" width="161.978" height="161.978" style="fill:rgb(77,77,77);"/>
        </g>
        <g id="Display-display-31" serif:id="Display#display$3" transform="matrix(1.04176,0,0,1.02078,-16.7664,271.006)">
            <rect x="87.136" y="70.02" width="47.996" height="23.511" style="fill:rgb(19,19,19);"/>
        </g>
        <g transform="matrix(1,0,0,1,-21.8663,241.871)">
            <path d="M87.878,118.306L90.742,108.45L88.95,108.45L88.95,109.762L87.51,109.762L87.51,106.914L92.374,106.914L92.374,108.546L89.606,118.306L87.878,118.306Z" style="fill-rule:nonzero;"/>
        </g>
        <g transform="matrix(1,0,0,1,-21.8663,241.871)">
            <text x="86.966px" y="118.306px" style="font-family:'DINCondensed-Bold', 'DIN Condensed';font-weight:700;font-stretch:condensed;font-size:16px;">7</text>
        </g>
    </g>
    <g id="Channel6" transform="matrix(1,0,0,1,-53.1007,-147.091)">
        <g id="Strip-meter-52" serif:id="Strip#meter$5" transform="matrix(0.0370421,0,0,0.160516,155.103,324.319)">
            <rect x="53.94" y="106.916" width="161.978" height="161.978" style="fill:rgb(102,126,153);"/>
        </g>
        <g id="Output-output2" serif:id="Output#output" transform="matrix(0.175002,0,0,0.175002,117.262,321.597)">
            <rect x="53.94" y="106.916" width="161.978" height="161.978" style="fill:rgb(77,77,77);"/>
        </g>
        <g id="Display-display-32" serif:id="Display#display$3" transform="matrix(1.04176,0,0,1.02078,-16.7664,271.006)">
            <rect x="87.136" y="70.02" width="47.996" height="23.511" style="fill:rgb(19,19,19);"/>
        </g>
        <g transform="matrix(1,0,0,1,-21.8663,241.871)">
            <path d="M91.782,106.914L89.926,111.698L89.958,111.73C90.011,111.688 90.094,111.653 90.206,111.626C90.318,111.6 90.465,111.586 90.646,111.586C90.934,111.586 91.201,111.656 91.446,111.794C91.691,111.933 91.883,112.109 92.022,112.322C92.097,112.44 92.155,112.557 92.198,112.674C92.241,112.792 92.278,112.946 92.31,113.138C92.331,113.33 92.347,113.573 92.358,113.866C92.369,114.16 92.374,114.53 92.374,114.978C92.374,115.352 92.369,115.658 92.358,115.898C92.347,116.138 92.331,116.338 92.31,116.498C92.278,116.669 92.238,116.813 92.19,116.93C92.142,117.048 92.081,117.17 92.006,117.298C91.793,117.65 91.507,117.922 91.15,118.114C90.793,118.306 90.39,118.402 89.942,118.402C89.494,118.402 89.094,118.304 88.742,118.106C88.39,117.909 88.107,117.64 87.894,117.298C87.809,117.17 87.742,117.048 87.694,116.93C87.646,116.813 87.611,116.669 87.59,116.498C87.558,116.338 87.537,116.138 87.526,115.898C87.515,115.658 87.51,115.352 87.51,114.978C87.51,114.626 87.515,114.336 87.526,114.106C87.537,113.877 87.553,113.677 87.574,113.506C87.595,113.346 87.627,113.2 87.67,113.066C87.713,112.933 87.761,112.792 87.814,112.642L89.958,106.914L91.782,106.914ZM90.742,113.842C90.742,113.597 90.662,113.4 90.502,113.25C90.342,113.101 90.155,113.026 89.942,113.026C89.729,113.026 89.542,113.101 89.382,113.25C89.222,113.4 89.142,113.597 89.142,113.842L89.142,115.954C89.142,116.2 89.222,116.397 89.382,116.546C89.542,116.696 89.729,116.77 89.942,116.77C90.155,116.77 90.342,116.696 90.502,116.546C90.662,116.397 90.742,116.2 90.742,115.954L90.742,113.842Z" style="fill-rule:nonzero;"/>
        </g>
        <g transform="matrix(1,0,0,1,-21.8663,241.871)">
            <text x="86.966px" y="118.306px" style="font-family:'DINCondensed-Bold', 'DIN Condensed';font-weight:700;font-stretch:condensed;font-size:16px;">6</text>
        </g>
    </g>
    <g id="Channel5" transform="matrix(1,0,0,1,-53.1007,-180.815)">
        <g id="Strip-meter-53" serif:id="Strip#meter$5" transform="matrix(0.0370421,0,0,0.160516,155.103,324.319)">
            <rect x="53.94" y="106.916" width="161.978" height="161.978" style="fill:rgb(102,126,153);"/>
        </g>
        <g id="Output-output3" serif:id="Output#output" transform="matrix(0.175002,0,0,0.175002,117.262,321.597)">
            <rect x="53.94" y="106.916" width="161.978" height="161.978" style="fill:rgb(77,77,77);"/>
        </g>
        <g id="Display-display-33" serif:id="Display#display$3" transform="matrix(1.04176,0,0,1.02078,-16.7664,271.006)">
            <rect x="87.136" y="70.02" width="47.996" height="23.511" style="fill:rgb(19,19,19);"/>
        </g>
        <g transform="matrix(1,0,0,1,-21.8663,241.871)">
            <path d="M92.374,106.914L92.374,108.45L89.142,108.45L89.142,111.522C89.291,111.373 89.483,111.248 89.718,111.146C89.953,111.045 90.214,110.994 90.502,110.994C91.057,110.994 91.507,111.162 91.854,111.498C92.201,111.834 92.374,112.338 92.374,113.01L92.374,115.954C92.374,116.338 92.307,116.68 92.174,116.978C92.041,117.277 91.862,117.533 91.638,117.746C91.414,117.96 91.155,118.122 90.862,118.234C90.569,118.346 90.262,118.402 89.942,118.402C89.622,118.402 89.315,118.346 89.022,118.234C88.729,118.122 88.47,117.96 88.246,117.746C88.022,117.533 87.843,117.277 87.71,116.978C87.577,116.68 87.51,116.338 87.51,115.954L87.51,115.474L89.142,115.474L89.142,115.89C89.142,116.168 89.219,116.384 89.374,116.538C89.529,116.693 89.729,116.77 89.974,116.77C90.219,116.77 90.409,116.696 90.542,116.546C90.675,116.397 90.742,116.189 90.742,115.922L90.742,113.25C90.742,113.026 90.67,112.834 90.526,112.674C90.382,112.514 90.198,112.434 89.974,112.434C89.835,112.434 89.718,112.458 89.622,112.506C89.526,112.554 89.446,112.61 89.382,112.674C89.318,112.738 89.27,112.808 89.238,112.882C89.185,112.978 89.153,113.037 89.142,113.058L87.702,113.058L87.702,106.914L92.374,106.914Z" style="fill-rule:nonzero;"/>
        </g>
        <g transform="matrix(1,0,0,1,-21.8663,241.871)">
            <text x="86.966px" y="118.306px" style="font-family:'DINCondensed-Bold', 'DIN Condensed';font-weight:700;font-stretch:condensed;font-size:16px;">5</text>
        </g>
    </g>
    <g id="Channel4" transform="matrix(1,0,0,1,-53.1007,-214.539)">
        <g id="Strip-meter-54" serif:id="Strip#meter$5" transform="matrix(0.0370421,0,0,0.160516,155.103,324.319)">
            <rect x="53.94" y="106.916" width="161.978" height="161.978" style="fill:rgb(102,126,153);"/>
        </g>
        <g id="Output-output4" serif:id="Output#output" transform="matrix(0.175002,0,0,0.175002,117.262,321.597)">
            <rect x="53.94" y="106.916" width="161.978" height="161.978" style="fill:rgb(77,77,77);"/>
        </g>
        <g id="Display-display-34" serif:id="Display#display$3" transform="matrix(1.04176,0,0,1.02078,-16.7664,271.006)">
            <rect x="87.136" y="70.02" width="47.996" height="23.511" style="fill:rgb(19,19,19);"/>
        </g>
        <g transform="matrix(1,0,0,1,-21.8663,241.871)">
            <path d="M90.358,118.306L90.358,116.61L87.11,116.61L87.11,115.074L89.462,106.914L91.19,106.914L88.742,115.074L90.358,115.074L90.358,111.826L91.99,111.826L91.99,115.074L92.774,115.074L92.774,116.61L91.99,116.61L91.99,118.306L90.358,118.306Z" style="fill-rule:nonzero;"/>
        </g>
        <g transform="matrix(1,0,0,1,-21.8663,241.871)">
            <text x="86.966px" y="118.306px" style="font-family:'DINCondensed-Bold', 'DIN Condensed';font-weight:700;font-stretch:condensed;font-size:16px;">4</text>
        </g>
    </g>
    <g id="Channel3" transform="matrix(1,0,0,1,-53.1007,-248.263)">
        <g id="Strip-meter-55" serif:id="Strip#meter$5" transform="matrix(0.0370421,0,0,0.160516,155.103,324.319)">
            <rect x="53.94" y="106.916" width="161.978" height="161.978" style="fill:rgb(102,126,153);"/>
        </g>
        <g id="Output-output5" serif:id="Output#output" transform="matrix(0.175002,0,0,0.175002,117.262,321.597)">
            <rect x="53.94" y="106.916" width="161.978" height="161.978" style="fill:rgb(77,77,77);"/>
        </g>
        <g id="Display-display-35" serif:id="Display#display$3" transform="matrix(1.04176,0,0,1.02078,-16.7664,271.006)">
            <rect x="87.136" y="70.02" width="47.996" height="23.511" style="fill:rgb(19,19,19);"/>
        </g>
        <g transform="matrix(1,0,0,1,-21.8663,241.871)">
            <path d="M89.446,111.714C89.937,111.714 90.275,111.656 90.462,111.538C90.649,111.421 90.742,111.149 90.742,110.722L90.742,109.25C90.742,109.016 90.67,108.824 90.526,108.674C90.382,108.525 90.187,108.45 89.942,108.45C89.654,108.45 89.449,108.541 89.326,108.722C89.203,108.904 89.142,109.08 89.142,109.25L89.142,110.178L87.51,110.178L87.51,109.234C87.51,108.904 87.574,108.589 87.702,108.29C87.83,107.992 88.006,107.736 88.23,107.522C88.454,107.309 88.715,107.138 89.014,107.01C89.313,106.882 89.633,106.818 89.974,106.818C90.422,106.818 90.793,106.906 91.086,107.082C91.379,107.258 91.601,107.437 91.75,107.618C91.857,107.746 91.95,107.874 92.03,108.002C92.11,108.13 92.177,108.285 92.23,108.466C92.326,108.818 92.374,109.341 92.374,110.034C92.374,110.429 92.366,110.749 92.35,110.994C92.334,111.24 92.294,111.442 92.23,111.602C92.155,111.773 92.051,111.917 91.918,112.034C91.785,112.152 91.601,112.28 91.366,112.418C91.622,112.578 91.817,112.728 91.95,112.866C92.083,113.005 92.182,113.165 92.246,113.346C92.31,113.538 92.347,113.765 92.358,114.026C92.369,114.288 92.374,114.621 92.374,115.026C92.374,115.4 92.366,115.709 92.35,115.954C92.334,116.2 92.31,116.402 92.278,116.562C92.246,116.733 92.203,116.877 92.15,116.994C92.097,117.112 92.027,117.234 91.942,117.362C91.739,117.661 91.481,117.909 91.166,118.106C90.851,118.304 90.438,118.402 89.926,118.402C89.67,118.402 89.398,118.36 89.11,118.274C88.822,118.189 88.561,118.05 88.326,117.858C88.091,117.666 87.897,117.416 87.742,117.106C87.587,116.797 87.51,116.418 87.51,115.97L87.51,115.042L89.142,115.042L89.142,115.89C89.142,116.146 89.214,116.357 89.358,116.522C89.502,116.688 89.697,116.77 89.942,116.77C90.187,116.77 90.382,116.688 90.526,116.522C90.67,116.357 90.742,116.136 90.742,115.858L90.742,114.226C90.742,113.778 90.657,113.485 90.486,113.346C90.39,113.261 90.259,113.208 90.094,113.186C89.929,113.165 89.713,113.154 89.446,113.154L89.446,111.714Z" style="fill-rule:nonzero;"/>
        </g>
        <g transform="matrix(1,0,0,1,-21.8663,241.871)">
            <text x="86.966px" y="118.306px" style="font-family:'DINCondensed-Bold', 'DIN Condensed';font-weight:700;font-stretch:condensed;font-size:16px;">3</text>
        </g>
    </g>
    <g id="Channel2" transform="matrix(1,0,0,1,-53.1007,-281.987)">
        <g id="Strip-meter-56" serif:id="Strip#meter$5" transform="matrix(0.0370421,0,0,0.160516,155.103,324.319)">
            <rect x="53.94" y="106.916" width="161.978" height="161.978" style="fill:rgb(102,126,153);"/>
        </g>
        <g id="Output-output6" serif:id="Output#output" transform="matrix(0.175002,0,0,0.175002,117.262,321.597)">
            <rect x="53.94" y="106.916" width="161.978" height="161.978" style="fill:rgb(77,77,77);"/>
        </g>
        <g id="Display-display-36" serif:id="Display#display$3" transform="matrix(1.04176,0,0,1.02078,-16.7664,271.006)">
            <rect x="87.136" y="70.02" width="47.996" height="23.511" style="fill:rgb(19,19,19);"/>
        </g>
        <g transform="matrix(1,0,0,1,-21.8663,241.871)">
            <path d="M87.51,118.306L87.51,116.77L90.454,111.218C90.603,110.941 90.689,110.698 90.71,110.49C90.731,110.282 90.742,110.024 90.742,109.714C90.742,109.576 90.739,109.429 90.734,109.274C90.729,109.12 90.699,108.984 90.646,108.866C90.593,108.749 90.513,108.65 90.406,108.57C90.299,108.49 90.145,108.45 89.942,108.45C89.697,108.45 89.502,108.52 89.358,108.658C89.214,108.797 89.142,109 89.142,109.266L89.142,110.194L87.51,110.194L87.51,109.298C87.51,108.957 87.574,108.637 87.702,108.338C87.83,108.04 88.006,107.778 88.23,107.554C88.443,107.33 88.699,107.152 88.998,107.018C89.297,106.885 89.617,106.818 89.958,106.818C90.385,106.818 90.75,106.896 91.054,107.05C91.358,107.205 91.611,107.416 91.814,107.682C92.006,107.949 92.147,108.253 92.238,108.594C92.329,108.936 92.374,109.298 92.374,109.682C92.374,109.96 92.369,110.192 92.358,110.378C92.347,110.565 92.326,110.744 92.294,110.914C92.262,111.085 92.209,111.256 92.134,111.426C92.059,111.597 91.958,111.805 91.83,112.05L89.43,116.674L92.374,116.674L92.374,118.306L87.51,118.306Z" style="fill-rule:nonzero;"/>
        </g>
        <g transform="matrix(1,0,0,1,-21.8663,241.871)">
            <text x="86.966px" y="118.306px" style="font-family:'DINCondensed-Bold', 'DIN Condensed';font-weight:700;font-stretch:condensed;font-size:16px;">2</text>
        </g>
    </g>
    <g id="Channel1" transform="matrix(1,0,0,1,-53.1007,-315.71)">
        <g id="Strip-meter-57" serif:id="Strip#meter$5" transform="matrix(0.0370421,0,0,0.160516,155.103,324.319)">
            <rect x="53.94" y="106.916" width="161.978" height="161.978" style="fill:rgb(102,126,153);"/>
        </g>
        <g id="Output-output7" serif:id="Output#output" transform="matrix(0.175002,0,0,0.175002,117.262,321.597)">
            <rect x="53.94" y="106.916" width="161.978" height="161.978" style="fill:rgb(77,77,77);"/>
        </g>
        <g id="Display-display-37" serif:id="Display#display$3" transform="matrix(1.04176,0,0,1.02078,-16.7664,271.006)">
            <rect x="87.136" y="70.02" width="47.996" height="23.511" style="fill:rgb(19,19,19);"/>
        </g>
        <g transform="matrix(1,0,0,1,-21.8663,241.871)">
            <path d="M89.446,118.306L89.446,108.642L87.814,109.842L87.814,108.114L89.446,106.914L91.078,106.914L91.078,118.306L89.446,118.306Z" style="fill-rule:nonzero;"/>
        </g>
        <g transform="matrix(1,0,0,1,-21.8663,241.871)">
            <text x="86.966px" y="118.306px" style="font-family:'DINCondensed-Bold', 'DIN Condensed';font-weight:700;font-stretch:condensed;font-size:16px;">1</text>
        </g>
    </g>
    <g transform="matrix(1,0,0,1,30.7588,-33.1034)">
        <g transform="matrix(1,0,0,1,55.6783,28.6877)">
            <path d="M-41.616,15.148C-40.8,15.148 -40.154,15.128 -39.678,15.088C-39.202,15.048 -38.834,14.996 -38.574,14.932C-38.314,14.868 -38.14,14.796 -38.052,14.716C-37.964,14.636 -37.904,14.556 -37.872,14.476C-37.856,14.436 -37.816,14.416 -37.752,14.416C-37.672,14.416 -37.632,14.436 -37.632,14.476C-37.648,14.492 -37.674,14.552 -37.71,14.656C-37.746,14.76 -37.79,14.886 -37.842,15.034C-37.894,15.182 -37.948,15.342 -38.004,15.514C-38.06,15.686 -38.112,15.85 -38.16,16.006C-38.208,16.162 -38.248,16.3 -38.28,16.42C-38.312,16.54 -38.328,16.62 -38.328,16.66C-38.344,16.66 -38.364,16.662 -38.388,16.666C-38.412,16.67 -38.436,16.672 -38.46,16.672C-38.532,16.672 -38.568,16.648 -38.568,16.6C-38.568,16.56 -38.564,16.512 -38.556,16.456C-38.548,16.4 -38.544,16.352 -38.544,16.312C-38.544,16.272 -38.548,16.244 -38.556,16.228C-38.596,16.148 -38.73,16.088 -38.958,16.048C-39.186,16.008 -39.45,15.98 -39.75,15.964C-40.05,15.948 -40.356,15.938 -40.668,15.934C-40.98,15.93 -41.236,15.928 -41.436,15.928C-41.74,15.928 -42.042,16.014 -42.342,16.186C-42.642,16.358 -42.91,16.604 -43.146,16.924C-43.382,17.244 -43.574,17.638 -43.722,18.106C-43.87,18.574 -43.944,19.104 -43.944,19.696C-43.944,20.216 -43.886,20.696 -43.77,21.136C-43.654,21.576 -43.488,21.96 -43.272,22.288C-43.056,22.616 -42.792,22.872 -42.48,23.056C-42.168,23.24 -41.816,23.332 -41.424,23.332C-41.048,23.332 -40.718,23.262 -40.434,23.122C-40.15,22.982 -39.912,22.8 -39.72,22.576C-39.528,22.352 -39.382,22.096 -39.282,21.808C-39.182,21.52 -39.132,21.224 -39.132,20.92C-39.132,20.704 -39.158,20.496 -39.21,20.296C-39.262,20.096 -39.34,19.918 -39.444,19.762C-39.548,19.606 -39.682,19.482 -39.846,19.39C-40.01,19.298 -40.2,19.252 -40.416,19.252C-40.752,19.252 -40.988,19.326 -41.124,19.474C-41.26,19.622 -41.328,19.78 -41.328,19.948C-41.328,20.1 -41.284,20.234 -41.196,20.35C-41.108,20.466 -40.992,20.524 -40.848,20.524C-40.76,20.524 -40.716,20.556 -40.716,20.62C-40.716,20.644 -40.728,20.668 -40.752,20.692C-40.792,20.748 -40.904,20.804 -41.088,20.86C-41.272,20.916 -41.492,20.944 -41.748,20.944C-42.06,20.944 -42.316,20.862 -42.516,20.698C-42.716,20.534 -42.816,20.336 -42.816,20.104C-42.816,19.952 -42.744,19.804 -42.6,19.66C-42.456,19.516 -42.258,19.386 -42.006,19.27C-41.754,19.154 -41.452,19.062 -41.1,18.994C-40.748,18.926 -40.368,18.892 -39.96,18.892C-39.6,18.892 -39.268,18.928 -38.964,19C-38.66,19.072 -38.398,19.174 -38.178,19.306C-37.958,19.438 -37.784,19.598 -37.656,19.786C-37.528,19.974 -37.464,20.184 -37.464,20.416C-37.464,20.768 -37.576,21.142 -37.8,21.538C-38.024,21.934 -38.332,22.298 -38.724,22.63C-39.116,22.962 -39.578,23.236 -40.11,23.452C-40.642,23.668 -41.212,23.776 -41.82,23.776C-42.444,23.776 -42.998,23.686 -43.482,23.506C-43.966,23.326 -44.374,23.074 -44.706,22.75C-45.038,22.426 -45.292,22.042 -45.468,21.598C-45.644,21.154 -45.732,20.668 -45.732,20.14C-45.732,19.74 -45.672,19.364 -45.552,19.012C-45.432,18.66 -45.276,18.332 -45.084,18.028C-44.892,17.724 -44.68,17.448 -44.448,17.2C-44.216,16.952 -43.99,16.738 -43.77,16.558C-43.55,16.378 -43.348,16.236 -43.164,16.132C-42.98,16.028 -42.844,15.964 -42.756,15.94C-43.028,15.948 -43.318,15.96 -43.626,15.976C-43.934,15.992 -44.228,16.014 -44.508,16.042C-44.788,16.07 -45.036,16.106 -45.252,16.15C-45.468,16.194 -45.616,16.248 -45.696,16.312C-45.784,16.376 -45.856,16.46 -45.912,16.564C-45.968,16.668 -46.016,16.776 -46.056,16.888C-46.12,16.888 -46.172,16.878 -46.212,16.858C-46.252,16.838 -46.284,16.792 -46.308,16.72C-46.236,16.624 -46.158,16.472 -46.074,16.264C-45.99,16.056 -45.906,15.838 -45.822,15.61C-45.738,15.382 -45.666,15.172 -45.606,14.98C-45.546,14.788 -45.504,14.664 -45.48,14.608C-45.448,14.592 -45.412,14.584 -45.372,14.584C-45.34,14.584 -45.308,14.592 -45.276,14.608C-45.3,14.704 -45.312,14.78 -45.312,14.836C-45.312,14.916 -45.272,14.968 -45.192,14.992C-44.96,15.056 -44.67,15.098 -44.322,15.118C-43.974,15.138 -43.572,15.148 -43.116,15.148L-41.616,15.148Z" style="fill-rule:nonzero;"/>
            <path d="M-35.16,21.508C-35.16,21.676 -35.156,21.838 -35.148,21.994C-35.14,22.15 -35.112,22.284 -35.064,22.396C-35.016,22.508 -34.944,22.598 -34.848,22.666C-34.752,22.734 -34.616,22.768 -34.44,22.768C-34.352,22.768 -34.252,22.758 -34.14,22.738C-34.028,22.718 -33.922,22.692 -33.822,22.66C-33.722,22.628 -33.634,22.596 -33.558,22.564C-33.482,22.532 -33.436,22.508 -33.42,22.492C-33.396,22.468 -33.38,22.468 -33.372,22.492C-33.364,22.516 -33.362,22.546 -33.366,22.582C-33.37,22.618 -33.38,22.654 -33.396,22.69C-33.412,22.726 -33.432,22.752 -33.456,22.768C-33.536,22.808 -33.676,22.88 -33.876,22.984C-34.076,23.088 -34.312,23.196 -34.584,23.308C-34.84,23.42 -35.09,23.514 -35.334,23.59C-35.578,23.666 -35.78,23.704 -35.94,23.704C-36.124,23.704 -36.268,23.648 -36.372,23.536C-36.476,23.424 -36.528,23.284 -36.528,23.116C-36.528,23.06 -36.526,23.012 -36.522,22.972C-36.518,22.932 -36.512,22.88 -36.504,22.816C-36.496,22.736 -36.482,22.59 -36.462,22.378C-36.442,22.166 -36.422,21.928 -36.402,21.664C-36.382,21.4 -36.364,21.134 -36.348,20.866C-36.332,20.598 -36.324,20.368 -36.324,20.176L-36.324,19.756C-36.324,19.548 -36.336,19.364 -36.36,19.204C-36.384,19.044 -36.424,18.92 -36.48,18.832C-36.52,18.776 -36.57,18.73 -36.63,18.694C-36.69,18.658 -36.764,18.64 -36.852,18.64C-36.9,18.64 -36.948,18.65 -36.996,18.67C-37.044,18.69 -37.08,18.7 -37.104,18.7C-37.12,18.7 -37.146,18.676 -37.182,18.628C-37.218,18.58 -37.216,18.544 -37.176,18.52C-37.12,18.48 -37.004,18.416 -36.828,18.328C-36.652,18.24 -36.46,18.144 -36.252,18.04C-36.028,17.928 -35.812,17.83 -35.604,17.746C-35.396,17.662 -35.248,17.62 -35.16,17.62C-35.072,17.62 -35.012,17.646 -34.98,17.698C-34.948,17.75 -34.932,17.808 -34.932,17.872L-34.932,17.92C-34.932,18 -34.944,18.128 -34.968,18.304C-34.992,18.48 -35.018,18.696 -35.046,18.952C-35.074,19.208 -35.1,19.504 -35.124,19.84C-35.148,20.176 -35.16,20.54 -35.16,20.932L-35.16,21.508ZM-35.64,15.268C-35.6,15.276 -35.534,15.32 -35.442,15.4C-35.35,15.48 -35.256,15.572 -35.16,15.676C-35.064,15.78 -34.98,15.88 -34.908,15.976C-34.836,16.072 -34.8,16.136 -34.8,16.168C-34.8,16.208 -34.848,16.268 -34.944,16.348C-35.04,16.428 -35.15,16.51 -35.274,16.594C-35.398,16.678 -35.518,16.752 -35.634,16.816C-35.75,16.88 -35.832,16.912 -35.88,16.912C-35.904,16.912 -35.962,16.874 -36.054,16.798C-36.146,16.722 -36.24,16.636 -36.336,16.54C-36.432,16.444 -36.518,16.35 -36.594,16.258C-36.67,16.166 -36.708,16.104 -36.708,16.072C-36.708,16.032 -36.656,15.97 -36.552,15.886C-36.448,15.802 -36.334,15.714 -36.21,15.622C-36.086,15.53 -35.966,15.45 -35.85,15.382C-35.734,15.314 -35.664,15.276 -35.64,15.268Z" style="fill-rule:nonzero;"/>
            <path d="M-22.536,22.552C-22.512,22.552 -22.496,22.566 -22.488,22.594C-22.48,22.622 -22.476,22.656 -22.476,22.696C-22.476,22.736 -22.484,22.762 -22.5,22.774C-22.516,22.786 -22.532,22.8 -22.548,22.816C-22.604,22.848 -22.738,22.916 -22.95,23.02C-23.162,23.124 -23.398,23.23 -23.658,23.338C-23.918,23.446 -24.174,23.542 -24.426,23.626C-24.678,23.71 -24.868,23.752 -24.996,23.752C-25.108,23.752 -25.214,23.728 -25.314,23.68C-25.414,23.632 -25.456,23.556 -25.44,23.452C-25.424,23.388 -25.406,23.292 -25.386,23.164C-25.366,23.036 -25.348,22.88 -25.332,22.696C-25.316,22.464 -25.298,22.196 -25.278,21.892C-25.258,21.588 -25.248,21.252 -25.248,20.884C-25.248,20.452 -25.276,20.094 -25.332,19.81C-25.388,19.526 -25.468,19.3 -25.572,19.132C-25.676,18.964 -25.804,18.846 -25.956,18.778C-26.108,18.71 -26.284,18.676 -26.484,18.676C-26.668,18.676 -26.824,18.706 -26.952,18.766C-27.08,18.826 -27.192,18.892 -27.288,18.964C-27.464,19.1 -27.602,19.274 -27.702,19.486C-27.802,19.698 -27.864,19.976 -27.888,20.32C-27.896,20.408 -27.902,20.496 -27.906,20.584C-27.91,20.672 -27.914,20.768 -27.918,20.872C-27.922,20.976 -27.926,21.092 -27.93,21.22C-27.934,21.348 -27.936,21.5 -27.936,21.676C-27.936,22.148 -27.898,22.476 -27.822,22.66C-27.746,22.844 -27.616,22.936 -27.432,22.936C-27.368,22.936 -27.328,22.934 -27.312,22.93C-27.296,22.926 -27.264,22.92 -27.216,22.912C-27.2,22.928 -27.184,22.948 -27.168,22.972C-27.144,23.012 -27.148,23.056 -27.18,23.104C-27.22,23.152 -27.316,23.214 -27.468,23.29C-27.62,23.366 -27.788,23.436 -27.972,23.5C-28.156,23.564 -28.336,23.62 -28.512,23.668C-28.688,23.716 -28.82,23.74 -28.908,23.74C-29.02,23.74 -29.122,23.726 -29.214,23.698C-29.306,23.67 -29.352,23.636 -29.352,23.596C-29.352,23.548 -29.336,23.492 -29.304,23.428C-29.28,23.388 -29.256,23.292 -29.232,23.14C-29.208,22.988 -29.186,22.792 -29.166,22.552C-29.146,22.312 -29.128,22.034 -29.112,21.718C-29.096,21.402 -29.088,21.06 -29.088,20.692C-29.088,20.5 -29.098,20.288 -29.118,20.056C-29.138,19.824 -29.188,19.606 -29.268,19.402C-29.348,19.198 -29.466,19.026 -29.622,18.886C-29.778,18.746 -29.992,18.676 -30.264,18.676C-30.424,18.676 -30.568,18.698 -30.696,18.742C-30.824,18.786 -30.932,18.84 -31.02,18.904C-31.196,19.04 -31.346,19.208 -31.47,19.408C-31.594,19.608 -31.676,19.892 -31.716,20.26C-31.732,20.428 -31.748,20.602 -31.764,20.782C-31.78,20.962 -31.788,21.168 -31.788,21.4C-31.788,21.704 -31.78,21.956 -31.764,22.156C-31.748,22.356 -31.72,22.514 -31.68,22.63C-31.64,22.746 -31.592,22.826 -31.536,22.87C-31.48,22.914 -31.408,22.936 -31.32,22.936C-31.232,22.936 -31.172,22.928 -31.14,22.912C-31.1,22.896 -31.072,22.92 -31.056,22.984C-31.04,23.048 -31.044,23.088 -31.068,23.104C-31.1,23.136 -31.184,23.186 -31.32,23.254C-31.456,23.322 -31.612,23.392 -31.788,23.464C-31.964,23.536 -32.144,23.6 -32.328,23.656C-32.512,23.712 -32.668,23.74 -32.796,23.74C-32.932,23.74 -33.038,23.724 -33.114,23.692C-33.19,23.66 -33.228,23.624 -33.228,23.584C-33.228,23.576 -33.22,23.55 -33.204,23.506C-33.188,23.462 -33.176,23.424 -33.168,23.392C-33.136,23.144 -33.106,22.914 -33.078,22.702C-33.05,22.49 -33.03,22.26 -33.018,22.012C-33.006,21.764 -32.996,21.48 -32.988,21.16C-32.98,20.84 -32.976,20.452 -32.976,19.996C-32.976,19.556 -33.046,19.232 -33.186,19.024C-33.326,18.816 -33.472,18.712 -33.624,18.712C-33.688,18.712 -33.742,18.718 -33.786,18.73C-33.83,18.742 -33.872,18.752 -33.912,18.76C-33.96,18.768 -33.984,18.744 -33.984,18.688L-33.984,18.604C-33.976,18.596 -33.896,18.54 -33.744,18.436C-33.592,18.332 -33.412,18.22 -33.204,18.1C-32.996,17.98 -32.78,17.87 -32.556,17.77C-32.332,17.67 -32.148,17.62 -32.004,17.62C-31.908,17.62 -31.826,17.648 -31.758,17.704C-31.69,17.76 -31.656,17.864 -31.656,18.016C-31.656,18.088 -31.658,18.168 -31.662,18.256C-31.666,18.344 -31.67,18.436 -31.674,18.532C-31.678,18.628 -31.684,18.722 -31.692,18.814C-31.7,18.906 -31.704,18.984 -31.704,19.048C-31.592,18.944 -31.45,18.808 -31.278,18.64C-31.106,18.472 -30.912,18.312 -30.696,18.16C-30.48,18.008 -30.246,17.876 -29.994,17.764C-29.742,17.652 -29.476,17.596 -29.196,17.596C-28.828,17.596 -28.528,17.704 -28.296,17.92C-28.064,18.136 -27.94,18.512 -27.924,19.048C-27.796,18.928 -27.64,18.784 -27.456,18.616C-27.272,18.448 -27.066,18.288 -26.838,18.136C-26.61,17.984 -26.368,17.856 -26.112,17.752C-25.856,17.648 -25.596,17.596 -25.332,17.596C-24.404,17.596 -23.94,18.088 -23.94,19.072C-23.94,19.232 -23.948,19.416 -23.964,19.624C-23.98,19.832 -24,20.05 -24.024,20.278C-24.048,20.506 -24.068,20.732 -24.084,20.956C-24.1,21.18 -24.108,21.384 -24.108,21.568C-24.108,22.4 -23.888,22.816 -23.448,22.816C-23.376,22.816 -23.296,22.806 -23.208,22.786C-23.12,22.766 -23.032,22.742 -22.944,22.714C-22.856,22.686 -22.776,22.658 -22.704,22.63C-22.632,22.602 -22.58,22.576 -22.548,22.552L-22.536,22.552Z" style="fill-rule:nonzero;"/>
            <path d="M-17.052,22.192C-17.14,22.288 -17.276,22.42 -17.46,22.588C-17.644,22.756 -17.866,22.924 -18.126,23.092C-18.386,23.26 -18.676,23.404 -18.996,23.524C-19.316,23.644 -19.656,23.704 -20.016,23.704C-20.344,23.704 -20.664,23.654 -20.976,23.554C-21.288,23.454 -21.568,23.302 -21.816,23.098C-22.064,22.894 -22.262,22.634 -22.41,22.318C-22.558,22.002 -22.632,21.624 -22.632,21.184C-22.632,20.824 -22.608,20.514 -22.56,20.254C-22.512,19.994 -22.448,19.766 -22.368,19.57C-22.288,19.374 -22.198,19.206 -22.098,19.066C-21.998,18.926 -21.896,18.8 -21.792,18.688C-21.664,18.544 -21.508,18.408 -21.324,18.28C-21.14,18.152 -20.942,18.036 -20.73,17.932C-20.518,17.828 -20.294,17.746 -20.058,17.686C-19.822,17.626 -19.584,17.596 -19.344,17.596C-18.912,17.596 -18.574,17.668 -18.33,17.812C-18.086,17.956 -17.964,18.156 -17.964,18.412C-17.964,18.572 -18.012,18.72 -18.108,18.856C-18.028,18.832 -17.926,18.792 -17.802,18.736C-17.678,18.68 -17.552,18.622 -17.424,18.562C-17.296,18.502 -17.182,18.448 -17.082,18.4C-16.982,18.352 -16.916,18.316 -16.884,18.292C-16.868,18.276 -16.85,18.27 -16.83,18.274C-16.81,18.278 -16.8,18.292 -16.8,18.316C-16.8,18.42 -16.82,18.506 -16.86,18.574C-16.9,18.642 -16.948,18.696 -17.004,18.736C-17.132,18.816 -17.316,18.916 -17.556,19.036C-17.796,19.156 -18.062,19.282 -18.354,19.414C-18.646,19.546 -18.948,19.678 -19.26,19.81C-19.572,19.942 -19.866,20.068 -20.142,20.188C-20.418,20.308 -20.658,20.414 -20.862,20.506C-21.066,20.598 -21.204,20.664 -21.276,20.704C-21.276,20.976 -21.222,21.23 -21.114,21.466C-21.006,21.702 -20.856,21.908 -20.664,22.084C-20.472,22.26 -20.242,22.398 -19.974,22.498C-19.706,22.598 -19.412,22.648 -19.092,22.648C-18.804,22.648 -18.544,22.618 -18.312,22.558C-18.08,22.498 -17.884,22.43 -17.724,22.354C-17.564,22.278 -17.438,22.21 -17.346,22.15C-17.254,22.09 -17.204,22.06 -17.196,22.06C-17.164,22.06 -17.132,22.074 -17.1,22.102C-17.068,22.13 -17.052,22.16 -17.052,22.192ZM-21.276,20.356C-21.14,20.308 -20.986,20.25 -20.814,20.182C-20.642,20.114 -20.474,20.04 -20.31,19.96C-20.146,19.88 -19.996,19.804 -19.86,19.732C-19.724,19.66 -19.62,19.596 -19.548,19.54C-19.404,19.436 -19.332,19.26 -19.332,19.012C-19.332,18.916 -19.35,18.816 -19.386,18.712C-19.422,18.608 -19.476,18.514 -19.548,18.43C-19.62,18.346 -19.708,18.278 -19.812,18.226C-19.916,18.174 -20.032,18.148 -20.16,18.148C-20.272,18.148 -20.392,18.186 -20.52,18.262C-20.648,18.338 -20.768,18.462 -20.88,18.634C-20.992,18.806 -21.086,19.034 -21.162,19.318C-21.238,19.602 -21.276,19.948 -21.276,20.356Z" style="fill-rule:nonzero;"/>
            <path d="M-13.908,15.364C-14.116,15.356 -14.246,15.334 -14.298,15.298C-14.35,15.262 -14.376,15.224 -14.376,15.184C-14.376,15.128 -14.368,15.078 -14.352,15.034C-14.336,14.99 -14.292,14.964 -14.22,14.956C-14.132,14.964 -13.998,14.978 -13.818,14.998C-13.638,15.018 -13.396,15.036 -13.092,15.052L-12.372,15.052C-12.02,15.044 -11.692,15.024 -11.388,14.992C-11.084,14.96 -10.812,14.924 -10.572,14.884C-10.332,14.844 -10.132,14.804 -9.972,14.764C-9.812,14.724 -9.7,14.688 -9.636,14.656L-9.624,14.656C-9.616,14.656 -9.61,14.654 -9.606,14.65C-9.602,14.646 -9.596,14.644 -9.588,14.644C-9.508,14.644 -9.468,14.728 -9.468,14.896C-9.468,14.968 -9.542,15.028 -9.69,15.076C-9.838,15.124 -10.008,15.166 -10.2,15.202C-10.392,15.238 -10.58,15.272 -10.764,15.304C-10.948,15.336 -11.072,15.372 -11.136,15.412C-11.184,15.492 -11.226,15.71 -11.262,16.066C-11.298,16.422 -11.326,16.842 -11.346,17.326C-11.366,17.81 -11.382,18.324 -11.394,18.868C-11.406,19.412 -11.412,19.912 -11.412,20.368C-11.412,21.104 -11.402,21.7 -11.382,22.156C-11.362,22.612 -11.324,22.868 -11.268,22.924C-11.244,22.932 -11.2,22.936 -11.136,22.936C-11.064,22.936 -10.978,22.93 -10.878,22.918C-10.778,22.906 -10.676,22.894 -10.572,22.882C-10.468,22.87 -10.366,22.856 -10.266,22.84C-10.166,22.824 -10.08,22.812 -10.008,22.804C-9.824,22.78 -9.626,22.75 -9.414,22.714C-9.202,22.678 -8.992,22.634 -8.784,22.582C-8.576,22.53 -8.382,22.464 -8.202,22.384C-8.022,22.304 -7.868,22.204 -7.74,22.084C-7.732,22.068 -7.726,22.062 -7.722,22.066C-7.718,22.07 -7.712,22.068 -7.704,22.06C-7.672,22.028 -7.636,22.016 -7.596,22.024C-7.556,22.032 -7.522,22.054 -7.494,22.09C-7.466,22.126 -7.448,22.166 -7.44,22.21C-7.432,22.254 -7.444,22.288 -7.476,22.312C-7.548,22.368 -7.618,22.452 -7.686,22.564C-7.754,22.676 -7.816,22.796 -7.872,22.924C-7.928,23.052 -7.976,23.174 -8.016,23.29C-8.056,23.406 -8.08,23.492 -8.088,23.548C-8.024,23.588 -7.954,23.644 -7.878,23.716C-7.802,23.788 -7.764,23.876 -7.764,23.98C-7.764,24.012 -7.774,24.054 -7.794,24.106C-7.814,24.158 -7.856,24.184 -7.92,24.184C-7.936,24.184 -7.964,24.18 -8.004,24.172C-8.044,24.164 -8.064,24.128 -8.064,24.064C-8.064,23.992 -8.032,23.94 -7.968,23.908C-8,23.892 -8.044,23.864 -8.1,23.824C-8.156,23.784 -8.212,23.756 -8.268,23.74C-8.412,23.716 -8.56,23.692 -8.712,23.668C-8.864,23.644 -9.03,23.626 -9.21,23.614C-9.39,23.602 -9.592,23.592 -9.816,23.584C-10.04,23.576 -10.292,23.572 -10.572,23.572C-11.22,23.572 -11.77,23.59 -12.222,23.626C-12.674,23.662 -13.056,23.7 -13.368,23.74C-13.68,23.78 -13.936,23.818 -14.136,23.854C-14.336,23.89 -14.5,23.908 -14.628,23.908C-14.74,23.908 -14.796,23.86 -14.796,23.764C-14.796,23.708 -14.784,23.648 -14.76,23.584C-14.736,23.52 -14.68,23.492 -14.592,23.5C-14.496,23.508 -14.37,23.504 -14.214,23.488C-14.058,23.472 -13.902,23.448 -13.746,23.416C-13.59,23.384 -13.454,23.35 -13.338,23.314C-13.222,23.278 -13.152,23.244 -13.128,23.212C-13.096,23.148 -13.062,22.996 -13.026,22.756C-12.99,22.516 -12.96,22.214 -12.936,21.85C-12.912,21.486 -12.892,21.072 -12.876,20.608C-12.86,20.144 -12.852,19.652 -12.852,19.132C-12.852,18.428 -12.858,17.848 -12.87,17.392C-12.882,16.936 -12.896,16.572 -12.912,16.3C-12.928,16.028 -12.948,15.828 -12.972,15.7C-12.996,15.572 -13.02,15.476 -13.044,15.412L-13.908,15.364Z" style="fill-rule:nonzero;"/>
            <path d="M-2.424,22.636C-2.512,22.708 -2.632,22.804 -2.784,22.924C-2.936,23.044 -3.112,23.164 -3.312,23.284C-3.512,23.404 -3.732,23.506 -3.972,23.59C-4.212,23.674 -4.464,23.716 -4.728,23.716C-5.128,23.716 -5.484,23.646 -5.796,23.506C-6.108,23.366 -6.37,23.178 -6.582,22.942C-6.794,22.706 -6.954,22.428 -7.062,22.108C-7.17,21.788 -7.224,21.448 -7.224,21.088C-7.224,20.664 -7.16,20.288 -7.032,19.96C-6.904,19.632 -6.746,19.346 -6.558,19.102C-6.37,18.858 -6.168,18.654 -5.952,18.49C-5.736,18.326 -5.54,18.196 -5.364,18.1C-5.284,18.052 -5.182,18 -5.058,17.944C-4.934,17.888 -4.798,17.836 -4.65,17.788C-4.502,17.74 -4.342,17.698 -4.17,17.662C-3.998,17.626 -3.82,17.608 -3.636,17.608C-3.292,17.608 -2.958,17.652 -2.634,17.74C-2.31,17.828 -2.024,17.966 -1.776,18.154C-1.528,18.342 -1.328,18.584 -1.176,18.88C-1.024,19.176 -0.948,19.532 -0.948,19.948C-0.948,20.284 -1.01,20.6 -1.134,20.896C-1.258,21.192 -1.404,21.456 -1.572,21.688C-1.74,21.92 -1.906,22.118 -2.07,22.282C-2.234,22.446 -2.352,22.564 -2.424,22.636ZM-3.78,22.828C-3.324,22.828 -2.974,22.656 -2.73,22.312C-2.486,21.968 -2.364,21.44 -2.364,20.728C-2.364,20.368 -2.414,20.034 -2.514,19.726C-2.614,19.418 -2.754,19.148 -2.934,18.916C-3.114,18.684 -3.324,18.502 -3.564,18.37C-3.804,18.238 -4.064,18.172 -4.344,18.172C-4.544,18.172 -4.734,18.224 -4.914,18.328C-5.094,18.432 -5.252,18.582 -5.388,18.778C-5.524,18.974 -5.632,19.212 -5.712,19.492C-5.792,19.772 -5.832,20.088 -5.832,20.44C-5.832,20.816 -5.774,21.152 -5.658,21.448C-5.542,21.744 -5.388,21.994 -5.196,22.198C-5.004,22.402 -4.786,22.558 -4.542,22.666C-4.298,22.774 -4.044,22.828 -3.78,22.828Z" style="fill-rule:nonzero;"/>
            <path d="M5.256,18.496C5.168,18.568 5.064,18.658 4.944,18.766C4.824,18.874 4.698,18.978 4.566,19.078C4.434,19.178 4.3,19.264 4.164,19.336C4.028,19.408 3.896,19.444 3.768,19.444C3.656,19.444 3.556,19.418 3.468,19.366C3.38,19.314 3.298,19.258 3.222,19.198C3.146,19.138 3.072,19.082 3,19.03C2.928,18.978 2.852,18.952 2.772,18.952C2.556,18.952 2.374,19.04 2.226,19.216C2.078,19.392 1.958,19.616 1.866,19.888C1.774,20.16 1.706,20.456 1.662,20.776C1.618,21.096 1.596,21.404 1.596,21.7C1.596,21.948 1.606,22.15 1.626,22.306C1.646,22.462 1.676,22.586 1.716,22.678C1.756,22.77 1.81,22.832 1.878,22.864C1.946,22.896 2.028,22.912 2.124,22.912C2.228,22.912 2.34,22.896 2.46,22.864C2.484,22.856 2.502,22.872 2.514,22.912C2.526,22.952 2.532,22.984 2.532,23.008C2.532,23.024 2.52,23.042 2.496,23.062C2.472,23.082 2.456,23.092 2.448,23.092C2.272,23.164 2.092,23.242 1.908,23.326C1.724,23.41 1.572,23.48 1.452,23.536C1.34,23.584 1.206,23.636 1.05,23.692C0.894,23.748 0.76,23.776 0.648,23.776C0.52,23.776 0.414,23.756 0.33,23.716C0.246,23.676 0.204,23.636 0.204,23.596C0.204,23.556 0.214,23.52 0.234,23.488C0.254,23.456 0.272,23.396 0.288,23.308C0.304,23.188 0.322,23.046 0.342,22.882C0.362,22.718 0.382,22.54 0.402,22.348C0.422,22.156 0.438,21.958 0.45,21.754C0.462,21.55 0.468,21.348 0.468,21.148C0.468,20.7 0.454,20.32 0.426,20.008C0.398,19.696 0.348,19.444 0.276,19.252C0.204,19.06 0.106,18.922 -0.018,18.838C-0.142,18.754 -0.3,18.712 -0.492,18.712L-0.6,18.712C-0.632,18.712 -0.664,18.716 -0.696,18.724C-0.744,18.724 -0.768,18.7 -0.768,18.652C-0.768,18.604 -0.744,18.568 -0.696,18.544C-0.608,18.488 -0.472,18.406 -0.288,18.298C-0.104,18.19 0.086,18.086 0.282,17.986C0.478,17.886 0.668,17.796 0.852,17.716C1.036,17.636 1.172,17.596 1.26,17.596C1.364,17.596 1.452,17.63 1.524,17.698C1.596,17.766 1.65,17.852 1.686,17.956C1.722,18.06 1.748,18.178 1.764,18.31C1.78,18.442 1.788,18.572 1.788,18.7C1.788,18.796 1.786,18.896 1.782,19C1.778,19.104 1.776,19.216 1.776,19.336C2.136,18.808 2.46,18.398 2.748,18.106C3.036,17.814 3.308,17.668 3.564,17.668C3.66,17.668 3.754,17.708 3.846,17.788C3.938,17.868 4.036,17.958 4.14,18.058C4.244,18.158 4.352,18.248 4.464,18.328C4.576,18.408 4.692,18.448 4.812,18.448C4.916,18.448 4.992,18.436 5.04,18.412C5.088,18.388 5.128,18.368 5.16,18.352C5.224,18.352 5.256,18.396 5.256,18.484L5.256,18.496Z" style="fill-rule:nonzero;"/>
            <path d="M9.132,22.636C9.06,22.708 8.944,22.804 8.784,22.924C8.624,23.044 8.436,23.162 8.22,23.278C8.004,23.394 7.77,23.494 7.518,23.578C7.266,23.662 7.012,23.704 6.756,23.704C6.492,23.704 6.228,23.644 5.964,23.524C5.7,23.404 5.462,23.23 5.25,23.002C5.038,22.774 4.868,22.5 4.74,22.18C4.612,21.86 4.548,21.5 4.548,21.1C4.548,20.58 4.638,20.108 4.818,19.684C4.998,19.26 5.262,18.9 5.61,18.604C5.958,18.308 6.382,18.08 6.882,17.92C7.382,17.76 7.956,17.68 8.604,17.68L8.928,17.68C9.032,17.68 9.128,17.684 9.216,17.692L9.216,17.302C9.216,17.114 9.214,16.92 9.21,16.72C9.206,16.52 9.202,16.336 9.198,16.168C9.194,16 9.192,15.896 9.192,15.856C9.16,15.536 9.106,15.312 9.03,15.184C8.954,15.056 8.8,14.992 8.568,14.992C8.536,14.992 8.518,14.956 8.514,14.884C8.51,14.812 8.536,14.756 8.592,14.716C8.656,14.676 8.728,14.646 8.808,14.626C8.888,14.606 9.008,14.596 9.168,14.596C9.472,14.596 9.726,14.594 9.93,14.59C10.134,14.586 10.302,14.578 10.434,14.566C10.566,14.554 10.672,14.538 10.752,14.518C10.832,14.498 10.9,14.476 10.956,14.452C10.996,14.444 11.03,14.454 11.058,14.482C11.086,14.51 11.106,14.546 11.118,14.59C11.13,14.634 11.132,14.676 11.124,14.716C11.116,14.756 11.092,14.78 11.052,14.788C10.964,14.804 10.898,14.822 10.854,14.842C10.81,14.862 10.768,14.9 10.728,14.956C10.688,15.012 10.652,15.16 10.62,15.4C10.588,15.64 10.556,15.936 10.524,16.288C10.492,16.64 10.464,17.03 10.44,17.458C10.416,17.886 10.396,18.316 10.38,18.748C10.364,19.18 10.35,19.6 10.338,20.008C10.326,20.416 10.32,20.772 10.32,21.076C10.32,21.66 10.384,22.09 10.512,22.366C10.64,22.642 10.836,22.78 11.1,22.78C11.196,22.78 11.302,22.764 11.418,22.732C11.534,22.7 11.642,22.662 11.742,22.618C11.842,22.574 11.934,22.53 12.018,22.486C12.102,22.442 12.164,22.404 12.204,22.372C12.244,22.34 12.28,22.36 12.312,22.432C12.344,22.504 12.34,22.552 12.3,22.576C12.204,22.632 12.054,22.714 11.85,22.822C11.646,22.93 11.42,23.044 11.172,23.164C10.868,23.316 10.56,23.452 10.248,23.572C9.936,23.692 9.684,23.752 9.492,23.752C9.348,23.752 9.25,23.728 9.198,23.68C9.146,23.632 9.12,23.556 9.12,23.452L9.12,23.29C9.12,23.214 9.122,23.134 9.126,23.05C9.13,22.966 9.132,22.886 9.132,22.81L9.132,22.636ZM8.976,22.228C9.04,22.14 9.088,22.038 9.12,21.922C9.152,21.806 9.176,21.648 9.192,21.448C9.208,21.28 9.216,21.074 9.216,20.83L9.216,20.188C9.216,20.004 9.214,19.808 9.21,19.6C9.206,19.392 9.2,19.248 9.192,19.168C9.176,19.032 9.12,18.904 9.024,18.784C8.928,18.664 8.804,18.56 8.652,18.472C8.5,18.384 8.322,18.314 8.118,18.262C7.914,18.21 7.7,18.184 7.476,18.184C7.26,18.184 7.056,18.22 6.864,18.292C6.672,18.364 6.506,18.48 6.366,18.64C6.226,18.8 6.116,19.006 6.036,19.258C5.956,19.51 5.916,19.82 5.916,20.188C5.916,20.564 5.968,20.906 6.072,21.214C6.176,21.522 6.32,21.788 6.504,22.012C6.688,22.236 6.908,22.41 7.164,22.534C7.42,22.658 7.7,22.72 8.004,22.72C8.124,22.72 8.236,22.702 8.34,22.666C8.444,22.63 8.538,22.586 8.622,22.534C8.706,22.482 8.78,22.428 8.844,22.372C8.908,22.316 8.952,22.268 8.976,22.228Z" style="fill-rule:nonzero;"/>
        </g>
        <g transform="matrix(1,0,0,1,55.6783,28.6877)">
            <text x="-46.332px" y="23.596px" style="font-family:'Luminari-Regular', 'Luminari';font-size:12px;">T<tspan x="-37.404px -34.128px " y="23.596px 23.596px ">im</tspan>e Lor<tspan x="4.2px " y="23.596px ">d</tspan></text>
        </g>
        <g transform="matrix(0.0170879,0,0,0.0193831,-10.9069,37.6726)">
            <g transform="matrix(1,0,0,1,-143.343,98.6554)">
                <ellipse cx="360.896" cy="293.762" rx="136.961" ry="230.443" style="fill:rgb(102,126,153);stroke:black;stroke-width:66.81px;"/>
            </g>
            <g transform="matrix(1,0,0,1,445.551,98.6554)">
                <ellipse cx="360.896" cy="293.762" rx="136.961" ry="230.443" style="fill:rgb(102,126,153);stroke:black;stroke-width:66.81px;"/>
            </g>
            <g transform="matrix(1,0,0,1,-34.3236,-20.6488)">
                <ellipse cx="546.324" cy="643.509" rx="431.408" ry="296.899" style="fill:rgb(102,126,153);stroke:black;stroke-width:66.81px;"/>
            </g>
            <circle cx="406.664" cy="569.758" r="105.336" style="fill:rgb(102,126,153);stroke:black;stroke-width:66.81px;"/>
            <g transform="matrix(1,0,0,1,210.672,0)">
                <circle cx="406.664" cy="569.758" r="105.336" style="fill:rgb(102,126,153);stroke:black;stroke-width:66.81px;"/>
            </g>
            <g transform="matrix(1,0,0,1,-53.1856,50.0357)">
                <ellipse cx="565.186" cy="671.455" rx="210.672" ry="98.631" style="fill:rgb(102,126,153);stroke:black;stroke-width:66.81px;"/>
            </g>
            <g transform="matrix(51.2,0,0,45.1371,0.670978,88.9676)">
                <path d="M12.057,13.791C12.057,13.668 11.958,13.568 11.835,13.568L8.139,13.568C8.016,13.568 7.916,13.668 7.916,13.791L7.916,14.236C7.916,14.359 8.016,14.458 8.139,14.458L11.835,14.458C11.958,14.458 12.057,14.359 12.057,14.236L12.057,13.791Z"/>
            </g>
        </g>
    </g>
</svg>
