<?xml version="1.0" encoding="UTF-8" standalone="no"?>
<!DOCTYPE svg PUBLIC "-//W3C//DTD SVG 1.1//EN" "http://www.w3.org/Graphics/SVG/1.1/DTD/svg11.dtd">
<svg width="100%" height="100%" viewBox="0 0 150 380" version="1.1" xmlns="http://www.w3.org/2000/svg" xmlns:xlink="http://www.w3.org/1999/xlink" xml:space="preserve" xmlns:serif="http://www.serif.com/" style="fill-rule:evenodd;clip-rule:evenodd;stroke-linecap:round;stroke-linejoin:round;stroke-miterlimit:1.5;">
    <g>
        <g transform="matrix(0.759864,0,0,2.01589,-39.9356,-120.797)">
            <rect x="52.556" y="59.922" width="208.087" height="188.503" style="fill:rgb(102,126,153);"/>
        </g>
        <g transform="matrix(1,0,0,1,61.1824,181.299)">
            <g transform="matrix(2.91857,0,0,2.91857,-148.538,-153.931)">
                <circle cx="77.421" cy="80.232" r="19.592" style="fill:none;stroke:rgb(230,230,230);stroke-width:0.34px;"/>
            </g>
            <g transform="matrix(2.1373,0,0,2.1373,-88.0512,-91.248)">
                <circle cx="77.421" cy="80.232" r="19.592" style="fill:none;stroke:rgb(218,218,218);stroke-width:0.47px;"/>
            </g>
            <g transform="matrix(1.45026,0,0,1.45026,-34.8599,-36.1255)">
                <circle cx="77.421" cy="80.232" r="19.592" style="fill:none;stroke:rgb(205,205,205);stroke-width:0.69px;"/>
            </g>
            <circle cx="77.421" cy="80.232" r="19.592" style="fill:none;stroke:rgb(193,193,193);stroke-width:1px;"/>
        </g>
        <g transform="matrix(1,0,0,1,-38.2012,-5.43207)">
            <g transform="matrix(2.91857,0,0,2.91857,-148.538,-153.931)">
                <circle cx="77.421" cy="80.232" r="19.592" style="fill:none;stroke:rgb(230,230,230);stroke-width:0.34px;"/>
            </g>
            <g transform="matrix(2.1373,0,0,2.1373,-88.0512,-91.248)">
                <circle cx="77.421" cy="80.232" r="19.592" style="fill:none;stroke:rgb(218,218,218);stroke-width:0.47px;"/>
            </g>
            <g transform="matrix(1.45026,0,0,1.45026,-34.8599,-36.1255)">
                <circle cx="77.421" cy="80.232" r="19.592" style="fill:none;stroke:rgb(205,205,205);stroke-width:0.69px;"/>
            </g>
            <circle cx="77.421" cy="80.232" r="19.592" style="fill:none;stroke:rgb(193,193,193);stroke-width:1px;"/>
        </g>
        <g transform="matrix(1,0,0,1,-75.9972,134.748)">
            <g transform="matrix(2.91857,0,0,2.91857,-148.538,-153.931)">
                <circle cx="77.421" cy="80.232" r="19.592" style="fill:none;stroke:rgb(230,230,230);stroke-width:0.34px;"/>
            </g>
            <g transform="matrix(2.1373,0,0,2.1373,-88.0512,-91.248)">
                <circle cx="77.421" cy="80.232" r="19.592" style="fill:none;stroke:rgb(218,218,218);stroke-width:0.47px;"/>
            </g>
            <g transform="matrix(1.45026,0,0,1.45026,-34.8599,-36.1255)">
                <circle cx="77.421" cy="80.232" r="19.592" style="fill:none;stroke:rgb(205,205,205);stroke-width:0.69px;"/>
            </g>
            <circle cx="77.421" cy="80.232" r="19.592" style="fill:none;stroke:rgb(193,193,193);stroke-width:1px;"/>
        </g>
        <g transform="matrix(1,0,0,1,-8.57599,232.588)">
            <g transform="matrix(2.91857,0,0,2.91857,-148.538,-153.931)">
                <circle cx="77.421" cy="80.232" r="19.592" style="fill:none;stroke:rgb(230,230,230);stroke-width:0.34px;"/>
            </g>
            <g transform="matrix(2.1373,0,0,2.1373,-88.0512,-91.248)">
                <circle cx="77.421" cy="80.232" r="19.592" style="fill:none;stroke:rgb(218,218,218);stroke-width:0.47px;"/>
            </g>
            <g transform="matrix(1.45026,0,0,1.45026,-34.8599,-36.1255)">
                <circle cx="77.421" cy="80.232" r="19.592" style="fill:none;stroke:rgb(205,205,205);stroke-width:0.69px;"/>
            </g>
            <circle cx="77.421" cy="80.232" r="19.592" style="fill:none;stroke:rgb(193,193,193);stroke-width:1px;"/>
        </g>
        <g transform="matrix(1,0,0,1,30.2477,118.229)">
            <g transform="matrix(2.91857,0,0,2.91857,-148.538,-153.931)">
                <circle cx="77.421" cy="80.232" r="19.592" style="fill:none;stroke:rgb(230,230,230);stroke-width:0.34px;"/>
            </g>
            <g transform="matrix(2.1373,0,0,2.1373,-88.0512,-91.248)">
                <circle cx="77.421" cy="80.232" r="19.592" style="fill:none;stroke:rgb(218,218,218);stroke-width:0.47px;"/>
            </g>
            <g transform="matrix(1.45026,0,0,1.45026,-34.8599,-36.1255)">
                <circle cx="77.421" cy="80.232" r="19.592" style="fill:none;stroke:rgb(205,205,205);stroke-width:0.69px;"/>
            </g>
            <circle cx="77.421" cy="80.232" r="19.592" style="fill:none;stroke:rgb(193,193,193);stroke-width:1px;"/>
        </g>
        <g transform="matrix(1,0,0,1,36.8232,30.3691)">
            <g transform="matrix(2.91857,0,0,2.91857,-148.538,-153.931)">
                <circle cx="77.421" cy="80.232" r="19.592" style="fill:none;stroke:rgb(230,230,230);stroke-width:0.34px;"/>
            </g>
            <g transform="matrix(2.1373,0,0,2.1373,-88.0512,-91.248)">
                <circle cx="77.421" cy="80.232" r="19.592" style="fill:none;stroke:rgb(218,218,218);stroke-width:0.47px;"/>
            </g>
            <g transform="matrix(1.45026,0,0,1.45026,-34.8599,-36.1255)">
                <circle cx="77.421" cy="80.232" r="19.592" style="fill:none;stroke:rgb(205,205,205);stroke-width:0.69px;"/>
            </g>
            <circle cx="77.421" cy="80.232" r="19.592" style="fill:none;stroke:rgb(193,193,193);stroke-width:1px;"/>
        </g>
    </g>
    <g transform="matrix(1,0,0,1,-111.05,-9.64558)">
        <g transform="matrix(1,0,0,1,162.255,9.45227)">
            <g id="Pass-input" serif:id="Pass#input" transform="matrix(0.175002,0,0,0.175002,51.0093,323.136)">
                <rect x="53.94" y="106.916" width="161.978" height="161.978" style="fill:rgb(204,204,204);"/>
            </g>
            <g transform="matrix(1,0,0,1,-22.6707,217.823)">
                <path d="M89.618,120.356L89.618,113.236L90.638,113.236L90.638,113.696C90.765,113.55 90.895,113.426 91.028,113.326C91.161,113.226 91.355,113.176 91.608,113.176C92.028,113.176 92.325,113.336 92.498,113.656C92.558,113.77 92.601,113.91 92.628,114.076C92.655,114.243 92.668,114.466 92.668,114.746L92.668,116.676C92.668,117.05 92.658,117.32 92.638,117.486C92.598,117.82 92.445,118.07 92.178,118.236C92.045,118.323 91.851,118.366 91.598,118.366C91.398,118.366 91.22,118.321 91.063,118.231C90.906,118.141 90.771,118.013 90.658,117.846L90.638,117.846L90.638,120.356L89.618,120.356ZM91.648,114.886C91.648,114.68 91.608,114.513 91.528,114.386C91.448,114.26 91.321,114.196 91.148,114.196C90.995,114.196 90.871,114.255 90.778,114.371C90.685,114.488 90.638,114.64 90.638,114.826L90.638,116.796C90.638,116.956 90.686,117.088 90.783,117.191C90.88,117.295 91.001,117.346 91.148,117.346C91.341,117.346 91.473,117.286 91.543,117.166C91.613,117.046 91.648,116.906 91.648,116.746L91.648,114.886Z" style="fill-rule:nonzero;"/>
                <path d="M95.438,118.306L95.438,117.786L95.418,117.786C95.285,117.973 95.15,118.116 95.013,118.216C94.876,118.316 94.685,118.366 94.438,118.366C94.318,118.366 94.196,118.348 94.073,118.311C93.95,118.275 93.831,118.206 93.718,118.106C93.605,118.013 93.513,117.878 93.443,117.701C93.373,117.525 93.338,117.296 93.338,117.016C93.338,116.73 93.361,116.478 93.408,116.261C93.455,116.045 93.541,115.863 93.668,115.716C93.788,115.576 93.951,115.471 94.158,115.401C94.365,115.331 94.628,115.296 94.948,115.296L95.058,115.296C95.098,115.296 95.135,115.3 95.168,115.306C95.201,115.313 95.241,115.316 95.288,115.316C95.335,115.316 95.385,115.32 95.438,115.326L95.438,114.796C95.438,114.623 95.401,114.48 95.328,114.366C95.255,114.253 95.121,114.196 94.928,114.196C94.795,114.196 94.673,114.24 94.563,114.326C94.453,114.413 94.381,114.54 94.348,114.706L93.358,114.706C93.385,114.253 93.538,113.886 93.818,113.606C93.951,113.473 94.111,113.368 94.298,113.291C94.485,113.215 94.695,113.176 94.928,113.176C95.141,113.176 95.341,113.21 95.528,113.276C95.715,113.343 95.878,113.443 96.018,113.576C96.151,113.71 96.258,113.876 96.338,114.076C96.418,114.276 96.458,114.51 96.458,114.776L96.458,118.306L95.438,118.306ZM95.438,116.126C95.325,116.106 95.231,116.096 95.158,116.096C94.938,116.096 94.75,116.148 94.593,116.251C94.436,116.355 94.358,116.543 94.358,116.816C94.358,117.01 94.405,117.166 94.498,117.286C94.591,117.406 94.721,117.466 94.888,117.466C95.061,117.466 95.196,117.41 95.293,117.296C95.39,117.183 95.438,117.023 95.438,116.816L95.438,116.126Z" style="fill-rule:nonzero;"/>
                <path d="M99.058,114.656C99.051,114.483 98.996,114.353 98.893,114.266C98.79,114.18 98.671,114.136 98.538,114.136C98.378,114.136 98.255,114.188 98.168,114.291C98.081,114.395 98.038,114.513 98.038,114.646C98.038,114.74 98.061,114.831 98.108,114.921C98.155,115.011 98.275,115.093 98.468,115.166L99.068,115.406C99.448,115.553 99.71,115.753 99.853,116.006C99.996,116.26 100.068,116.536 100.068,116.836C100.068,117.05 100.03,117.248 99.953,117.431C99.876,117.615 99.771,117.776 99.638,117.916C99.505,118.056 99.345,118.166 99.158,118.246C98.971,118.326 98.768,118.366 98.548,118.366C98.135,118.366 97.788,118.236 97.508,117.976C97.368,117.85 97.255,117.691 97.168,117.501C97.081,117.311 97.035,117.09 97.028,116.836L97.988,116.836C98.008,116.976 98.056,117.106 98.133,117.226C98.21,117.346 98.345,117.406 98.538,117.406C98.685,117.406 98.816,117.358 98.933,117.261C99.05,117.165 99.108,117.03 99.108,116.856C99.108,116.716 99.071,116.596 98.998,116.496C98.925,116.396 98.791,116.31 98.598,116.236L98.108,116.056C97.788,115.936 97.536,115.758 97.353,115.521C97.17,115.285 97.078,114.996 97.078,114.656C97.078,114.443 97.118,114.245 97.198,114.061C97.278,113.878 97.388,113.72 97.528,113.586C97.661,113.453 97.818,113.351 97.998,113.281C98.178,113.211 98.371,113.176 98.578,113.176C98.785,113.176 98.976,113.213 99.153,113.286C99.33,113.36 99.481,113.463 99.608,113.596C99.735,113.73 99.835,113.888 99.908,114.071C99.981,114.255 100.018,114.45 100.018,114.656L99.058,114.656Z" style="fill-rule:nonzero;"/>
                <path d="M102.578,114.656C102.571,114.483 102.516,114.353 102.413,114.266C102.31,114.18 102.191,114.136 102.058,114.136C101.898,114.136 101.775,114.188 101.688,114.291C101.601,114.395 101.558,114.513 101.558,114.646C101.558,114.74 101.581,114.831 101.628,114.921C101.675,115.011 101.795,115.093 101.988,115.166L102.588,115.406C102.968,115.553 103.23,115.753 103.373,116.006C103.516,116.26 103.588,116.536 103.588,116.836C103.588,117.05 103.55,117.248 103.473,117.431C103.396,117.615 103.291,117.776 103.158,117.916C103.025,118.056 102.865,118.166 102.678,118.246C102.491,118.326 102.288,118.366 102.068,118.366C101.655,118.366 101.308,118.236 101.028,117.976C100.888,117.85 100.775,117.691 100.688,117.501C100.601,117.311 100.555,117.09 100.548,116.836L101.508,116.836C101.528,116.976 101.576,117.106 101.653,117.226C101.73,117.346 101.865,117.406 102.058,117.406C102.205,117.406 102.336,117.358 102.453,117.261C102.57,117.165 102.628,117.03 102.628,116.856C102.628,116.716 102.591,116.596 102.518,116.496C102.445,116.396 102.311,116.31 102.118,116.236L101.628,116.056C101.308,115.936 101.056,115.758 100.873,115.521C100.69,115.285 100.598,114.996 100.598,114.656C100.598,114.443 100.638,114.245 100.718,114.061C100.798,113.878 100.908,113.72 101.048,113.586C101.181,113.453 101.338,113.351 101.518,113.281C101.698,113.211 101.891,113.176 102.098,113.176C102.305,113.176 102.496,113.213 102.673,113.286C102.85,113.36 103.001,113.463 103.128,113.596C103.255,113.73 103.355,113.888 103.428,114.071C103.501,114.255 103.538,114.45 103.538,114.656L102.578,114.656Z" style="fill-rule:nonzero;"/>
            </g>
            <g transform="matrix(1,0,0,1,-22.6707,217.823)">
                <text x="89.198px" y="118.306px" style="font-family:'DINCondensed-Bold', 'DIN Condensed';font-weight:700;font-stretch:condensed;font-size:10px;">pass</text>
            </g>
        </g>
        <g transform="matrix(1,0,0,1,94.0757,9.45227)">
            <g id="Reset-input" serif:id="Reset#input" transform="matrix(0.175002,0,0,0.175002,51.0093,323.136)">
                <rect x="53.94" y="106.916" width="161.978" height="161.978" style="fill:rgb(204,204,204);"/>
            </g>
            <g transform="matrix(1,0,0,1,-22.6707,217.823)">
                <path d="M89.618,118.306L89.618,113.236L90.638,113.236L90.638,113.776C90.845,113.59 91.048,113.443 91.248,113.336C91.448,113.23 91.695,113.176 91.988,113.176L91.988,114.256C91.888,114.216 91.785,114.196 91.678,114.196C91.571,114.196 91.456,114.215 91.333,114.251C91.21,114.288 91.098,114.35 90.998,114.436C90.891,114.523 90.805,114.636 90.738,114.776C90.671,114.916 90.638,115.09 90.638,115.296L90.638,118.306L89.618,118.306Z" style="fill-rule:nonzero;"/>
                <path d="M95.348,116.156L93.328,116.156L93.328,116.846C93.328,117.006 93.373,117.13 93.463,117.216C93.553,117.303 93.675,117.346 93.828,117.346C94.021,117.346 94.15,117.29 94.213,117.176C94.276,117.063 94.315,116.95 94.328,116.836L95.348,116.836C95.348,117.283 95.211,117.643 94.938,117.916C94.805,118.056 94.645,118.166 94.458,118.246C94.271,118.326 94.061,118.366 93.828,118.366C93.508,118.366 93.236,118.3 93.013,118.166C92.79,118.033 92.618,117.856 92.498,117.636C92.425,117.503 92.375,117.35 92.348,117.176C92.321,117.003 92.308,116.813 92.308,116.606L92.308,114.936C92.308,114.73 92.321,114.54 92.348,114.366C92.375,114.193 92.425,114.04 92.498,113.906C92.618,113.686 92.79,113.51 93.013,113.376C93.236,113.243 93.508,113.176 93.828,113.176C94.061,113.176 94.273,113.216 94.463,113.296C94.653,113.376 94.815,113.486 94.948,113.626C95.215,113.926 95.348,114.303 95.348,114.756L95.348,116.156ZM93.328,115.356L94.328,115.356L94.328,114.776C94.328,114.583 94.283,114.438 94.193,114.341C94.103,114.245 93.981,114.196 93.828,114.196C93.675,114.196 93.553,114.245 93.463,114.341C93.373,114.438 93.328,114.583 93.328,114.776L93.328,115.356Z" style="fill-rule:nonzero;"/>
                <path d="M97.948,114.656C97.941,114.483 97.886,114.353 97.783,114.266C97.68,114.18 97.561,114.136 97.428,114.136C97.268,114.136 97.145,114.188 97.058,114.291C96.971,114.395 96.928,114.513 96.928,114.646C96.928,114.74 96.951,114.831 96.998,114.921C97.045,115.011 97.165,115.093 97.358,115.166L97.958,115.406C98.338,115.553 98.6,115.753 98.743,116.006C98.886,116.26 98.958,116.536 98.958,116.836C98.958,117.05 98.92,117.248 98.843,117.431C98.766,117.615 98.661,117.776 98.528,117.916C98.395,118.056 98.235,118.166 98.048,118.246C97.861,118.326 97.658,118.366 97.438,118.366C97.025,118.366 96.678,118.236 96.398,117.976C96.258,117.85 96.145,117.691 96.058,117.501C95.971,117.311 95.925,117.09 95.918,116.836L96.878,116.836C96.898,116.976 96.946,117.106 97.023,117.226C97.1,117.346 97.235,117.406 97.428,117.406C97.575,117.406 97.706,117.358 97.823,117.261C97.94,117.165 97.998,117.03 97.998,116.856C97.998,116.716 97.961,116.596 97.888,116.496C97.815,116.396 97.681,116.31 97.488,116.236L96.998,116.056C96.678,115.936 96.426,115.758 96.243,115.521C96.06,115.285 95.968,114.996 95.968,114.656C95.968,114.443 96.008,114.245 96.088,114.061C96.168,113.878 96.278,113.72 96.418,113.586C96.551,113.453 96.708,113.351 96.888,113.281C97.068,113.211 97.261,113.176 97.468,113.176C97.675,113.176 97.866,113.213 98.043,113.286C98.22,113.36 98.371,113.463 98.498,113.596C98.625,113.73 98.725,113.888 98.798,114.071C98.871,114.255 98.908,114.45 98.908,114.656L97.948,114.656Z" style="fill-rule:nonzero;"/>
                <path d="M102.568,116.156L100.548,116.156L100.548,116.846C100.548,117.006 100.593,117.13 100.683,117.216C100.773,117.303 100.895,117.346 101.048,117.346C101.241,117.346 101.37,117.29 101.433,117.176C101.496,117.063 101.535,116.95 101.548,116.836L102.568,116.836C102.568,117.283 102.431,117.643 102.158,117.916C102.025,118.056 101.865,118.166 101.678,118.246C101.491,118.326 101.281,118.366 101.048,118.366C100.728,118.366 100.456,118.3 100.233,118.166C100.01,118.033 99.838,117.856 99.718,117.636C99.645,117.503 99.595,117.35 99.568,117.176C99.541,117.003 99.528,116.813 99.528,116.606L99.528,114.936C99.528,114.73 99.541,114.54 99.568,114.366C99.595,114.193 99.645,114.04 99.718,113.906C99.838,113.686 100.01,113.51 100.233,113.376C100.456,113.243 100.728,113.176 101.048,113.176C101.281,113.176 101.493,113.216 101.683,113.296C101.873,113.376 102.035,113.486 102.168,113.626C102.435,113.926 102.568,114.303 102.568,114.756L102.568,116.156ZM100.548,115.356L101.548,115.356L101.548,114.776C101.548,114.583 101.503,114.438 101.413,114.341C101.323,114.245 101.201,114.196 101.048,114.196C100.895,114.196 100.773,114.245 100.683,114.341C100.593,114.438 100.548,114.583 100.548,114.776L100.548,115.356Z" style="fill-rule:nonzero;"/>
                <path d="M103.318,113.236L103.318,111.696L104.338,111.696L104.338,113.236L104.968,113.236L104.968,114.036L104.338,114.036L104.338,116.846C104.338,116.966 104.35,117.06 104.373,117.126C104.396,117.193 104.435,117.243 104.488,117.276C104.541,117.31 104.606,117.33 104.683,117.336C104.76,117.343 104.855,117.346 104.968,117.346L104.968,118.306L104.548,118.306C104.315,118.306 104.12,118.27 103.963,118.196C103.806,118.123 103.681,118.03 103.588,117.916C103.495,117.803 103.426,117.675 103.383,117.531C103.34,117.388 103.318,117.25 103.318,117.116L103.318,114.036L102.808,114.036L102.808,113.236L103.318,113.236Z" style="fill-rule:nonzero;"/>
            </g>
            <g transform="matrix(1,0,0,1,-22.6707,217.823)">
                <text x="89.198px" y="118.306px" style="font-family:'DINCondensed-Bold', 'DIN Condensed';font-weight:700;font-stretch:condensed;font-size:10px;">reset</text>
            </g>
        </g>
        <g transform="matrix(1,0,0,1,-0.987604,81.4217)">
            <g id="Clock-input" serif:id="Clock#input" transform="matrix(0.175002,0,0,0.175002,112.598,251.167)">
                <rect x="53.94" y="106.916" width="161.978" height="161.978" style="fill:rgb(204,204,204);"/>
            </g>
            <g transform="matrix(1,0,0,1,38.4329,145.854)">
                <path d="M90.698,116.846C90.698,117.006 90.743,117.13 90.833,117.216C90.923,117.303 91.045,117.346 91.198,117.346C91.391,117.346 91.52,117.29 91.583,117.176C91.646,117.063 91.685,116.95 91.698,116.836L92.718,116.836C92.718,117.283 92.581,117.643 92.308,117.916C92.175,118.056 92.015,118.166 91.828,118.246C91.641,118.326 91.431,118.366 91.198,118.366C90.878,118.366 90.606,118.3 90.383,118.166C90.16,118.033 89.988,117.856 89.868,117.636C89.795,117.503 89.745,117.35 89.718,117.176C89.691,117.003 89.678,116.813 89.678,116.606L89.678,114.936C89.678,114.73 89.691,114.54 89.718,114.366C89.745,114.193 89.795,114.04 89.868,113.906C89.988,113.686 90.16,113.51 90.383,113.376C90.606,113.243 90.878,113.176 91.198,113.176C91.431,113.176 91.643,113.216 91.833,113.296C92.023,113.376 92.185,113.486 92.318,113.626C92.585,113.926 92.718,114.316 92.718,114.796L91.698,114.796C91.698,114.59 91.653,114.438 91.563,114.341C91.473,114.245 91.351,114.196 91.198,114.196C91.045,114.196 90.923,114.245 90.833,114.341C90.743,114.438 90.698,114.583 90.698,114.776L90.698,116.846Z" style="fill-rule:nonzero;"/>
                <path d="M93.138,111.186L94.158,111.186L94.158,116.876C94.158,117.07 94.193,117.201 94.263,117.271C94.333,117.341 94.465,117.386 94.658,117.406L94.658,118.366C94.425,118.366 94.215,118.348 94.028,118.311C93.841,118.275 93.681,118.203 93.548,118.096C93.415,117.996 93.313,117.855 93.243,117.671C93.173,117.488 93.138,117.246 93.138,116.946L93.138,111.186Z" style="fill-rule:nonzero;"/>
                <path d="M94.968,114.936C94.968,114.73 94.981,114.54 95.008,114.366C95.035,114.193 95.085,114.04 95.158,113.906C95.278,113.686 95.45,113.51 95.673,113.376C95.896,113.243 96.168,113.176 96.488,113.176C96.808,113.176 97.08,113.243 97.303,113.376C97.526,113.51 97.698,113.686 97.818,113.906C97.891,114.04 97.941,114.193 97.968,114.366C97.995,114.54 98.008,114.73 98.008,114.936L98.008,116.606C98.008,116.813 97.995,117.003 97.968,117.176C97.941,117.35 97.891,117.503 97.818,117.636C97.698,117.856 97.526,118.033 97.303,118.166C97.08,118.3 96.808,118.366 96.488,118.366C96.168,118.366 95.896,118.3 95.673,118.166C95.45,118.033 95.278,117.856 95.158,117.636C95.085,117.503 95.035,117.35 95.008,117.176C94.981,117.003 94.968,116.813 94.968,116.606L94.968,114.936ZM95.988,116.766C95.988,116.96 96.033,117.105 96.123,117.201C96.213,117.298 96.335,117.346 96.488,117.346C96.641,117.346 96.763,117.298 96.853,117.201C96.943,117.105 96.988,116.96 96.988,116.766L96.988,114.776C96.988,114.583 96.943,114.438 96.853,114.341C96.763,114.245 96.641,114.196 96.488,114.196C96.335,114.196 96.213,114.245 96.123,114.341C96.033,114.438 95.988,114.583 95.988,114.776L95.988,116.766Z" style="fill-rule:nonzero;"/>
                <path d="M99.838,116.846C99.838,117.006 99.883,117.13 99.973,117.216C100.063,117.303 100.185,117.346 100.338,117.346C100.531,117.346 100.66,117.29 100.723,117.176C100.786,117.063 100.825,116.95 100.838,116.836L101.858,116.836C101.858,117.283 101.721,117.643 101.448,117.916C101.315,118.056 101.155,118.166 100.968,118.246C100.781,118.326 100.571,118.366 100.338,118.366C100.018,118.366 99.746,118.3 99.523,118.166C99.3,118.033 99.128,117.856 99.008,117.636C98.935,117.503 98.885,117.35 98.858,117.176C98.831,117.003 98.818,116.813 98.818,116.606L98.818,114.936C98.818,114.73 98.831,114.54 98.858,114.366C98.885,114.193 98.935,114.04 99.008,113.906C99.128,113.686 99.3,113.51 99.523,113.376C99.746,113.243 100.018,113.176 100.338,113.176C100.571,113.176 100.783,113.216 100.973,113.296C101.163,113.376 101.325,113.486 101.458,113.626C101.725,113.926 101.858,114.316 101.858,114.796L100.838,114.796C100.838,114.59 100.793,114.438 100.703,114.341C100.613,114.245 100.491,114.196 100.338,114.196C100.185,114.196 100.063,114.245 99.973,114.341C99.883,114.438 99.838,114.583 99.838,114.776L99.838,116.846Z" style="fill-rule:nonzero;"/>
                <path d="M102.338,118.306L102.338,111.186L103.358,111.186L103.358,115.446L103.378,115.446L104.608,113.236L105.628,113.236L104.418,115.296L105.878,118.306L104.768,118.306L103.848,116.116L103.358,116.886L103.358,118.306L102.338,118.306Z" style="fill-rule:nonzero;"/>
            </g>
            <g transform="matrix(1,0,0,1,38.4329,145.854)">
                <text x="89.198px" y="118.306px" style="font-family:'DINCondensed-Bold', 'DIN Condensed';font-weight:700;font-stretch:condensed;font-size:10px;">c<tspan x="92.778px 94.638px 98.338px 101.918px " y="118.306px 118.306px 118.306px 118.306px ">lock</tspan></text>
            </g>
        </g>
    </g>
    <g transform="matrix(1,0,0,1,114.19,65.3373)">
        <g id="Mode-button" serif:id="Mode#button" transform="matrix(0.758898,0,0,0.758898,-55.0684,38.0492)">
            <circle cx="55.661" cy="308.513" r="7.929"/>
        </g>
        <g transform="matrix(1,0,0,1,-130.974,157.403)">
            <path d="M92.403,118.306L92.403,113.236L93.423,113.236L93.423,113.726L93.443,113.726C93.55,113.566 93.678,113.435 93.828,113.331C93.978,113.228 94.17,113.176 94.403,113.176C94.623,113.176 94.806,113.23 94.953,113.336C95.1,113.443 95.22,113.56 95.313,113.686C95.44,113.546 95.58,113.426 95.733,113.326C95.886,113.226 96.1,113.176 96.373,113.176C96.5,113.176 96.63,113.198 96.763,113.241C96.896,113.285 97.016,113.356 97.123,113.456C97.23,113.556 97.316,113.685 97.383,113.841C97.45,113.998 97.483,114.19 97.483,114.416L97.483,118.306L96.463,118.306L96.463,114.796C96.463,114.61 96.42,114.463 96.333,114.356C96.246,114.25 96.123,114.196 95.963,114.196C95.77,114.196 95.636,114.256 95.563,114.376C95.49,114.496 95.453,114.67 95.453,114.896L95.453,118.306L94.433,118.306L94.433,114.796C94.433,114.61 94.39,114.463 94.303,114.356C94.216,114.25 94.093,114.196 93.933,114.196C93.74,114.196 93.606,114.256 93.533,114.376C93.46,114.496 93.423,114.67 93.423,114.896L93.423,118.306L92.403,118.306Z" style="fill-rule:nonzero;"/>
            <path d="M98.233,114.936C98.233,114.73 98.246,114.54 98.273,114.366C98.3,114.193 98.35,114.04 98.423,113.906C98.543,113.686 98.715,113.51 98.938,113.376C99.161,113.243 99.433,113.176 99.753,113.176C100.073,113.176 100.345,113.243 100.568,113.376C100.791,113.51 100.963,113.686 101.083,113.906C101.156,114.04 101.206,114.193 101.233,114.366C101.26,114.54 101.273,114.73 101.273,114.936L101.273,116.606C101.273,116.813 101.26,117.003 101.233,117.176C101.206,117.35 101.156,117.503 101.083,117.636C100.963,117.856 100.791,118.033 100.568,118.166C100.345,118.3 100.073,118.366 99.753,118.366C99.433,118.366 99.161,118.3 98.938,118.166C98.715,118.033 98.543,117.856 98.423,117.636C98.35,117.503 98.3,117.35 98.273,117.176C98.246,117.003 98.233,116.813 98.233,116.606L98.233,114.936ZM99.253,116.766C99.253,116.96 99.298,117.105 99.388,117.201C99.478,117.298 99.6,117.346 99.753,117.346C99.906,117.346 100.028,117.298 100.118,117.201C100.208,117.105 100.253,116.96 100.253,116.766L100.253,114.776C100.253,114.583 100.208,114.438 100.118,114.341C100.028,114.245 99.906,114.196 99.753,114.196C99.6,114.196 99.478,114.245 99.388,114.341C99.298,114.438 99.253,114.583 99.253,114.776L99.253,116.766Z" style="fill-rule:nonzero;"/>
            <path d="M103.043,116.656C103.043,116.863 103.083,117.03 103.163,117.156C103.243,117.283 103.37,117.346 103.543,117.346C103.696,117.346 103.82,117.288 103.913,117.171C104.006,117.055 104.053,116.903 104.053,116.716L104.053,114.746C104.053,114.586 104.005,114.455 103.908,114.351C103.811,114.248 103.69,114.196 103.543,114.196C103.35,114.196 103.218,114.256 103.148,114.376C103.078,114.496 103.043,114.636 103.043,114.796L103.043,116.656ZM104.053,118.306L104.053,117.846C103.986,117.92 103.923,117.988 103.863,118.051C103.803,118.115 103.736,118.17 103.663,118.216C103.59,118.263 103.506,118.3 103.413,118.326C103.32,118.353 103.21,118.366 103.083,118.366C102.656,118.366 102.36,118.206 102.193,117.886C102.133,117.773 102.09,117.633 102.063,117.466C102.036,117.3 102.023,117.076 102.023,116.796L102.023,114.866C102.023,114.5 102.033,114.23 102.053,114.056C102.093,113.723 102.25,113.473 102.523,113.306C102.65,113.22 102.84,113.176 103.093,113.176C103.293,113.176 103.471,113.221 103.628,113.311C103.785,113.401 103.92,113.53 104.033,113.696L104.053,113.696L104.053,111.186L105.073,111.186L105.073,118.306L104.053,118.306Z" style="fill-rule:nonzero;"/>
            <path d="M108.863,116.156L106.843,116.156L106.843,116.846C106.843,117.006 106.888,117.13 106.978,117.216C107.068,117.303 107.19,117.346 107.343,117.346C107.536,117.346 107.665,117.29 107.728,117.176C107.791,117.063 107.83,116.95 107.843,116.836L108.863,116.836C108.863,117.283 108.726,117.643 108.453,117.916C108.32,118.056 108.16,118.166 107.973,118.246C107.786,118.326 107.576,118.366 107.343,118.366C107.023,118.366 106.751,118.3 106.528,118.166C106.305,118.033 106.133,117.856 106.013,117.636C105.94,117.503 105.89,117.35 105.863,117.176C105.836,117.003 105.823,116.813 105.823,116.606L105.823,114.936C105.823,114.73 105.836,114.54 105.863,114.366C105.89,114.193 105.94,114.04 106.013,113.906C106.133,113.686 106.305,113.51 106.528,113.376C106.751,113.243 107.023,113.176 107.343,113.176C107.576,113.176 107.788,113.216 107.978,113.296C108.168,113.376 108.33,113.486 108.463,113.626C108.73,113.926 108.863,114.303 108.863,114.756L108.863,116.156ZM106.843,115.356L107.843,115.356L107.843,114.776C107.843,114.583 107.798,114.438 107.708,114.341C107.618,114.245 107.496,114.196 107.343,114.196C107.19,114.196 107.068,114.245 106.978,114.341C106.888,114.438 106.843,114.583 106.843,114.776L106.843,115.356Z" style="fill-rule:nonzero;"/>
        </g>
        <g transform="matrix(1,0,0,1,-130.974,157.403)">
            <text x="91.983px" y="118.306px" style="font-family:'DINCondensed-Bold', 'DIN Condensed';font-weight:700;font-stretch:condensed;font-size:10px;">mode</text>
        </g>
        <g id="BankUp-button" serif:id="BankUp#button" transform="matrix(0.758898,0,0,0.758898,-55.0684,58.5151)">
            <circle cx="55.661" cy="308.513" r="7.929"/>
        </g>
        <g transform="matrix(1,0,0,1,-131.454,177.869)">
            <path d="M93.323,118.306L93.323,111.186L94.343,111.186L94.343,113.696L94.363,113.696C94.476,113.53 94.611,113.401 94.768,113.311C94.925,113.221 95.103,113.176 95.303,113.176C95.55,113.176 95.741,113.22 95.878,113.306C96.015,113.393 96.126,113.503 96.213,113.636C96.28,113.743 96.323,113.883 96.343,114.056C96.363,114.23 96.373,114.5 96.373,114.866L96.373,116.796C96.373,117.076 96.36,117.3 96.333,117.466C96.306,117.633 96.263,117.773 96.203,117.886C96.03,118.206 95.733,118.366 95.313,118.366C95.06,118.366 94.866,118.316 94.733,118.216C94.6,118.116 94.47,117.993 94.343,117.846L94.343,118.306L93.323,118.306ZM95.353,114.796C95.353,114.636 95.318,114.496 95.248,114.376C95.178,114.256 95.046,114.196 94.853,114.196C94.706,114.196 94.585,114.248 94.488,114.351C94.391,114.455 94.343,114.586 94.343,114.746L94.343,116.716C94.343,116.903 94.39,117.055 94.483,117.171C94.576,117.288 94.7,117.346 94.853,117.346C95.026,117.346 95.153,117.283 95.233,117.156C95.313,117.03 95.353,116.863 95.353,116.656L95.353,114.796Z" style="fill-rule:nonzero;"/>
            <path d="M99.143,118.306L99.143,117.786L99.123,117.786C98.99,117.973 98.855,118.116 98.718,118.216C98.581,118.316 98.39,118.366 98.143,118.366C98.023,118.366 97.901,118.348 97.778,118.311C97.655,118.275 97.536,118.206 97.423,118.106C97.31,118.013 97.218,117.878 97.148,117.701C97.078,117.525 97.043,117.296 97.043,117.016C97.043,116.73 97.066,116.478 97.113,116.261C97.16,116.045 97.246,115.863 97.373,115.716C97.493,115.576 97.656,115.471 97.863,115.401C98.07,115.331 98.333,115.296 98.653,115.296L98.763,115.296C98.803,115.296 98.84,115.3 98.873,115.306C98.906,115.313 98.946,115.316 98.993,115.316C99.04,115.316 99.09,115.32 99.143,115.326L99.143,114.796C99.143,114.623 99.106,114.48 99.033,114.366C98.96,114.253 98.826,114.196 98.633,114.196C98.5,114.196 98.378,114.24 98.268,114.326C98.158,114.413 98.086,114.54 98.053,114.706L97.063,114.706C97.09,114.253 97.243,113.886 97.523,113.606C97.656,113.473 97.816,113.368 98.003,113.291C98.19,113.215 98.4,113.176 98.633,113.176C98.846,113.176 99.046,113.21 99.233,113.276C99.42,113.343 99.583,113.443 99.723,113.576C99.856,113.71 99.963,113.876 100.043,114.076C100.123,114.276 100.163,114.51 100.163,114.776L100.163,118.306L99.143,118.306ZM99.143,116.126C99.03,116.106 98.936,116.096 98.863,116.096C98.643,116.096 98.455,116.148 98.298,116.251C98.141,116.355 98.063,116.543 98.063,116.816C98.063,117.01 98.11,117.166 98.203,117.286C98.296,117.406 98.426,117.466 98.593,117.466C98.766,117.466 98.901,117.41 98.998,117.296C99.095,117.183 99.143,117.023 99.143,116.816L99.143,116.126Z" style="fill-rule:nonzero;"/>
            <path d="M100.913,118.306L100.913,113.236L101.933,113.236L101.933,113.726L101.953,113.726C102.06,113.566 102.188,113.435 102.338,113.331C102.488,113.228 102.68,113.176 102.913,113.176C103.04,113.176 103.166,113.198 103.293,113.241C103.42,113.285 103.533,113.356 103.633,113.456C103.733,113.556 103.813,113.685 103.873,113.841C103.933,113.998 103.963,114.19 103.963,114.416L103.963,118.306L102.943,118.306L102.943,114.796C102.943,114.61 102.9,114.463 102.813,114.356C102.726,114.25 102.603,114.196 102.443,114.196C102.25,114.196 102.116,114.256 102.043,114.376C101.97,114.496 101.933,114.67 101.933,114.896L101.933,118.306L100.913,118.306Z" style="fill-rule:nonzero;"/>
            <path d="M104.803,118.306L104.803,111.186L105.823,111.186L105.823,115.446L105.843,115.446L107.073,113.236L108.093,113.236L106.883,115.296L108.343,118.306L107.233,118.306L106.313,116.116L105.823,116.886L105.823,118.306L104.803,118.306Z" style="fill-rule:nonzero;"/>
        </g>
        <g transform="matrix(1,0,0,1,-131.454,177.869)">
            <text x="92.903px" y="118.306px" style="font-family:'DINCondensed-Bold', 'DIN Condensed';font-weight:700;font-stretch:condensed;font-size:10px;">bank</text>
        </g>
    </g>
    <g id="Display-oled-128x64" serif:id="Display#oled$128x64" transform="matrix(2.70857,0,0,2.80715,-226.014,63.0344)">
        <rect x="87.136" y="70.02" width="47.996" height="23.511" style="fill:rgb(19,19,19);"/>
    </g>
    <g id="Channel8" transform="matrix(1,0,0,1,-59.408,-109.459)">
        <g id="Strip-meter-5" serif:id="Strip#meter$5" transform="matrix(0.0370421,0,0,0.160516,192.205,321.363)">
            <rect x="53.94" y="106.916" width="161.978" height="161.978" style="fill:rgb(102,126,153);"/>
        </g>
        <g id="Output-output" serif:id="Output#output" transform="matrix(0.175002,0,0,0.175002,154.654,318.641)">
            <rect x="53.94" y="106.916" width="161.978" height="161.978" style="fill:rgb(77,77,77);"/>
        </g>
        <g id="Value-lcd-3" serif:id="Value#lcd$3" transform="matrix(0.779107,0,0,0.846667,-27.4695,92.9601)">
            <rect x="173.071" y="291.218" width="64.141" height="28.346" style="fill:rgb(13,13,13);"/>
        </g>
        <g id="Pass-input1" serif:id="Pass#input" transform="matrix(0.175002,0,0,0.175002,67.3496,318.641)">
            <rect x="53.94" y="106.916" width="161.978" height="161.978" style="fill:rgb(204,204,204);"/>
        </g>
        <g transform="matrix(1,0,0,1,-18.4974,238.914)">
            <path d="M90.742,109.25C90.742,109.026 90.662,108.837 90.502,108.682C90.342,108.528 90.155,108.45 89.942,108.45C89.729,108.45 89.542,108.528 89.382,108.682C89.222,108.837 89.142,109.026 89.142,109.25L89.142,110.914C89.142,111.138 89.222,111.328 89.382,111.482C89.542,111.637 89.729,111.714 89.942,111.714C90.155,111.714 90.342,111.637 90.502,111.482C90.662,111.328 90.742,111.138 90.742,110.914L90.742,109.25ZM87.51,109.89C87.51,109.581 87.521,109.317 87.542,109.098C87.563,108.88 87.601,108.69 87.654,108.53C87.707,108.37 87.769,108.226 87.838,108.098C87.907,107.97 87.995,107.837 88.102,107.698C88.315,107.421 88.582,107.205 88.902,107.05C89.222,106.896 89.569,106.818 89.942,106.818C90.315,106.818 90.662,106.896 90.982,107.05C91.302,107.205 91.569,107.421 91.782,107.698C91.889,107.837 91.979,107.97 92.054,108.098C92.129,108.226 92.193,108.37 92.246,108.53C92.299,108.69 92.334,108.88 92.35,109.098C92.366,109.317 92.374,109.581 92.374,109.89C92.374,110.232 92.369,110.52 92.358,110.754C92.347,110.989 92.315,111.197 92.262,111.378C92.209,111.56 92.126,111.722 92.014,111.866C91.902,112.01 91.75,112.162 91.558,112.322C91.75,112.472 91.902,112.621 92.014,112.77C92.126,112.92 92.209,113.096 92.262,113.298C92.315,113.501 92.347,113.749 92.358,114.042C92.369,114.336 92.374,114.696 92.374,115.122C92.374,115.474 92.366,115.765 92.35,115.994C92.334,116.224 92.31,116.424 92.278,116.594C92.246,116.765 92.201,116.909 92.142,117.026C92.083,117.144 92.011,117.266 91.926,117.394C91.745,117.672 91.489,117.909 91.158,118.106C90.827,118.304 90.422,118.402 89.942,118.402C89.462,118.402 89.057,118.304 88.726,118.106C88.395,117.909 88.139,117.672 87.958,117.394C87.873,117.266 87.801,117.144 87.742,117.026C87.683,116.909 87.638,116.765 87.606,116.594C87.574,116.424 87.55,116.224 87.534,115.994C87.518,115.765 87.51,115.474 87.51,115.122C87.51,114.696 87.515,114.336 87.526,114.042C87.537,113.749 87.569,113.501 87.622,113.298C87.675,113.096 87.758,112.92 87.87,112.77C87.982,112.621 88.134,112.472 88.326,112.322C88.134,112.162 87.982,112.01 87.87,111.866C87.758,111.722 87.675,111.56 87.622,111.378C87.569,111.197 87.537,110.989 87.526,110.754C87.515,110.52 87.51,110.232 87.51,109.89ZM90.742,113.73C90.742,113.506 90.662,113.317 90.502,113.162C90.342,113.008 90.155,112.93 89.942,112.93C89.729,112.93 89.542,113.008 89.382,113.162C89.222,113.317 89.142,113.506 89.142,113.73L89.142,115.97C89.142,116.194 89.222,116.384 89.382,116.538C89.542,116.693 89.729,116.77 89.942,116.77C90.155,116.77 90.342,116.693 90.502,116.538C90.662,116.384 90.742,116.194 90.742,115.97L90.742,113.73Z" style="fill-rule:nonzero;"/>
        </g>
        <g transform="matrix(1,0,0,1,-18.4974,238.914)">
            <text x="86.966px" y="118.306px" style="font-family:'DINCondensed-Bold', 'DIN Condensed';font-weight:700;font-stretch:condensed;font-size:16px;">8</text>
        </g>
    </g>
    <g id="Channel7" transform="matrix(1,0,0,1,-59.408,-140.586)">
        <g id="Strip-meter-51" serif:id="Strip#meter$5" transform="matrix(0.0370421,0,0,0.160516,192.205,321.363)">
            <rect x="53.94" y="106.916" width="161.978" height="161.978" style="fill:rgb(102,126,153);"/>
        </g>
        <g id="Output-output1" serif:id="Output#output" transform="matrix(0.175002,0,0,0.175002,154.654,318.641)">
            <rect x="53.94" y="106.916" width="161.978" height="161.978" style="fill:rgb(77,77,77);"/>
        </g>
        <g id="Value-lcd-31" serif:id="Value#lcd$3" transform="matrix(0.779107,0,0,0.846667,-27.4695,92.9601)">
            <rect x="173.071" y="291.218" width="64.141" height="28.346" style="fill:rgb(13,13,13);"/>
        </g>
        <g id="Pass-input2" serif:id="Pass#input" transform="matrix(0.175002,0,0,0.175002,67.3496,318.641)">
            <rect x="53.94" y="106.916" width="161.978" height="161.978" style="fill:rgb(204,204,204);"/>
        </g>
        <g transform="matrix(1,0,0,1,-18.4974,238.914)">
            <path d="M87.878,118.306L90.742,108.45L88.95,108.45L88.95,109.762L87.51,109.762L87.51,106.914L92.374,106.914L92.374,108.546L89.606,118.306L87.878,118.306Z" style="fill-rule:nonzero;"/>
        </g>
        <g transform="matrix(1,0,0,1,-18.4974,238.914)">
            <text x="86.966px" y="118.306px" style="font-family:'DINCondensed-Bold', 'DIN Condensed';font-weight:700;font-stretch:condensed;font-size:16px;">7</text>
        </g>
    </g>
    <g id="Channel6" transform="matrix(1,0,0,1,-59.408,-171.714)">
        <g id="Strip-meter-52" serif:id="Strip#meter$5" transform="matrix(0.0370421,0,0,0.160516,192.205,321.363)">
            <rect x="53.94" y="106.916" width="161.978" height="161.978" style="fill:rgb(102,126,153);"/>
        </g>
        <g id="Output-output2" serif:id="Output#output" transform="matrix(0.175002,0,0,0.175002,154.654,318.641)">
            <rect x="53.94" y="106.916" width="161.978" height="161.978" style="fill:rgb(77,77,77);"/>
        </g>
        <g id="Value-lcd-32" serif:id="Value#lcd$3" transform="matrix(0.779107,0,0,0.846667,-27.4695,92.9601)">
            <rect x="173.071" y="291.218" width="64.141" height="28.346" style="fill:rgb(13,13,13);"/>
        </g>
        <g id="Pass-input3" serif:id="Pass#input" transform="matrix(0.175002,0,0,0.175002,67.3496,318.641)">
            <rect x="53.94" y="106.916" width="161.978" height="161.978" style="fill:rgb(204,204,204);"/>
        </g>
        <g transform="matrix(1,0,0,1,-18.4974,238.914)">
            <path d="M91.782,106.914L89.926,111.698L89.958,111.73C90.011,111.688 90.094,111.653 90.206,111.626C90.318,111.6 90.465,111.586 90.646,111.586C90.934,111.586 91.201,111.656 91.446,111.794C91.691,111.933 91.883,112.109 92.022,112.322C92.097,112.44 92.155,112.557 92.198,112.674C92.241,112.792 92.278,112.946 92.31,113.138C92.331,113.33 92.347,113.573 92.358,113.866C92.369,114.16 92.374,114.53 92.374,114.978C92.374,115.352 92.369,115.658 92.358,115.898C92.347,116.138 92.331,116.338 92.31,116.498C92.278,116.669 92.238,116.813 92.19,116.93C92.142,117.048 92.081,117.17 92.006,117.298C91.793,117.65 91.507,117.922 91.15,118.114C90.793,118.306 90.39,118.402 89.942,118.402C89.494,118.402 89.094,118.304 88.742,118.106C88.39,117.909 88.107,117.64 87.894,117.298C87.809,117.17 87.742,117.048 87.694,116.93C87.646,116.813 87.611,116.669 87.59,116.498C87.558,116.338 87.537,116.138 87.526,115.898C87.515,115.658 87.51,115.352 87.51,114.978C87.51,114.626 87.515,114.336 87.526,114.106C87.537,113.877 87.553,113.677 87.574,113.506C87.595,113.346 87.627,113.2 87.67,113.066C87.713,112.933 87.761,112.792 87.814,112.642L89.958,106.914L91.782,106.914ZM90.742,113.842C90.742,113.597 90.662,113.4 90.502,113.25C90.342,113.101 90.155,113.026 89.942,113.026C89.729,113.026 89.542,113.101 89.382,113.25C89.222,113.4 89.142,113.597 89.142,113.842L89.142,115.954C89.142,116.2 89.222,116.397 89.382,116.546C89.542,116.696 89.729,116.77 89.942,116.77C90.155,116.77 90.342,116.696 90.502,116.546C90.662,116.397 90.742,116.2 90.742,115.954L90.742,113.842Z" style="fill-rule:nonzero;"/>
        </g>
        <g transform="matrix(1,0,0,1,-18.4974,238.914)">
            <text x="86.966px" y="118.306px" style="font-family:'DINCondensed-Bold', 'DIN Condensed';font-weight:700;font-stretch:condensed;font-size:16px;">6</text>
        </g>
    </g>
    <g id="Channel5" transform="matrix(1,0,0,1,-59.408,-202.841)">
        <g id="Strip-meter-53" serif:id="Strip#meter$5" transform="matrix(0.0370421,0,0,0.160516,192.205,321.363)">
            <rect x="53.94" y="106.916" width="161.978" height="161.978" style="fill:rgb(102,126,153);"/>
        </g>
        <g id="Output-output3" serif:id="Output#output" transform="matrix(0.175002,0,0,0.175002,154.654,318.641)">
            <rect x="53.94" y="106.916" width="161.978" height="161.978" style="fill:rgb(77,77,77);"/>
        </g>
        <g id="Value-lcd-33" serif:id="Value#lcd$3" transform="matrix(0.779107,0,0,0.846667,-27.4695,92.9601)">
            <rect x="173.071" y="291.218" width="64.141" height="28.346" style="fill:rgb(13,13,13);"/>
        </g>
        <g id="Pass-input4" serif:id="Pass#input" transform="matrix(0.175002,0,0,0.175002,67.3496,318.641)">
            <rect x="53.94" y="106.916" width="161.978" height="161.978" style="fill:rgb(204,204,204);"/>
        </g>
        <g transform="matrix(1,0,0,1,-18.4974,238.914)">
            <path d="M92.374,106.914L92.374,108.45L89.142,108.45L89.142,111.522C89.291,111.373 89.483,111.248 89.718,111.146C89.953,111.045 90.214,110.994 90.502,110.994C91.057,110.994 91.507,111.162 91.854,111.498C92.201,111.834 92.374,112.338 92.374,113.01L92.374,115.954C92.374,116.338 92.307,116.68 92.174,116.978C92.041,117.277 91.862,117.533 91.638,117.746C91.414,117.96 91.155,118.122 90.862,118.234C90.569,118.346 90.262,118.402 89.942,118.402C89.622,118.402 89.315,118.346 89.022,118.234C88.729,118.122 88.47,117.96 88.246,117.746C88.022,117.533 87.843,117.277 87.71,116.978C87.577,116.68 87.51,116.338 87.51,115.954L87.51,115.474L89.142,115.474L89.142,115.89C89.142,116.168 89.219,116.384 89.374,116.538C89.529,116.693 89.729,116.77 89.974,116.77C90.219,116.77 90.409,116.696 90.542,116.546C90.675,116.397 90.742,116.189 90.742,115.922L90.742,113.25C90.742,113.026 90.67,112.834 90.526,112.674C90.382,112.514 90.198,112.434 89.974,112.434C89.835,112.434 89.718,112.458 89.622,112.506C89.526,112.554 89.446,112.61 89.382,112.674C89.318,112.738 89.27,112.808 89.238,112.882C89.185,112.978 89.153,113.037 89.142,113.058L87.702,113.058L87.702,106.914L92.374,106.914Z" style="fill-rule:nonzero;"/>
        </g>
        <g transform="matrix(1,0,0,1,-18.4974,238.914)">
            <text x="86.966px" y="118.306px" style="font-family:'DINCondensed-Bold', 'DIN Condensed';font-weight:700;font-stretch:condensed;font-size:16px;">5</text>
        </g>
    </g>
    <g id="Channel4" transform="matrix(1,0,0,1,-59.408,-233.969)">
        <g id="Strip-meter-54" serif:id="Strip#meter$5" transform="matrix(0.0370421,0,0,0.160516,192.205,321.363)">
            <rect x="53.94" y="106.916" width="161.978" height="161.978" style="fill:rgb(102,126,153);"/>
        </g>
        <g id="Output-output4" serif:id="Output#output" transform="matrix(0.175002,0,0,0.175002,154.654,318.641)">
            <rect x="53.94" y="106.916" width="161.978" height="161.978" style="fill:rgb(77,77,77);"/>
        </g>
        <g id="Value-lcd-34" serif:id="Value#lcd$3" transform="matrix(0.779107,0,0,0.846667,-27.4695,92.9601)">
            <rect x="173.071" y="291.218" width="64.141" height="28.346" style="fill:rgb(13,13,13);"/>
        </g>
        <g id="Pass-input5" serif:id="Pass#input" transform="matrix(0.175002,0,0,0.175002,67.3496,318.641)">
            <rect x="53.94" y="106.916" width="161.978" height="161.978" style="fill:rgb(204,204,204);"/>
        </g>
        <g transform="matrix(1,0,0,1,-18.4974,238.914)">
            <path d="M90.358,118.306L90.358,116.61L87.11,116.61L87.11,115.074L89.462,106.914L91.19,106.914L88.742,115.074L90.358,115.074L90.358,111.826L91.99,111.826L91.99,115.074L92.774,115.074L92.774,116.61L91.99,116.61L91.99,118.306L90.358,118.306Z" style="fill-rule:nonzero;"/>
        </g>
        <g transform="matrix(1,0,0,1,-18.4974,238.914)">
            <text x="86.966px" y="118.306px" style="font-family:'DINCondensed-Bold', 'DIN Condensed';font-weight:700;font-stretch:condensed;font-size:16px;">4</text>
        </g>
    </g>
    <g id="Channel3" transform="matrix(1,0,0,1,-59.408,-265.096)">
        <g id="Strip-meter-55" serif:id="Strip#meter$5" transform="matrix(0.0370421,0,0,0.160516,192.205,321.363)">
            <rect x="53.94" y="106.916" width="161.978" height="161.978" style="fill:rgb(102,126,153);"/>
        </g>
        <g id="Output-output5" serif:id="Output#output" transform="matrix(0.175002,0,0,0.175002,154.654,318.641)">
            <rect x="53.94" y="106.916" width="161.978" height="161.978" style="fill:rgb(77,77,77);"/>
        </g>
        <g id="Value-lcd-35" serif:id="Value#lcd$3" transform="matrix(0.779107,0,0,0.846667,-27.4695,92.9601)">
            <rect x="173.071" y="291.218" width="64.141" height="28.346" style="fill:rgb(13,13,13);"/>
        </g>
        <g id="Pass-input6" serif:id="Pass#input" transform="matrix(0.175002,0,0,0.175002,67.3496,318.641)">
            <rect x="53.94" y="106.916" width="161.978" height="161.978" style="fill:rgb(204,204,204);"/>
        </g>
        <g transform="matrix(1,0,0,1,-18.4974,238.914)">
            <path d="M89.446,111.714C89.937,111.714 90.275,111.656 90.462,111.538C90.649,111.421 90.742,111.149 90.742,110.722L90.742,109.25C90.742,109.016 90.67,108.824 90.526,108.674C90.382,108.525 90.187,108.45 89.942,108.45C89.654,108.45 89.449,108.541 89.326,108.722C89.203,108.904 89.142,109.08 89.142,109.25L89.142,110.178L87.51,110.178L87.51,109.234C87.51,108.904 87.574,108.589 87.702,108.29C87.83,107.992 88.006,107.736 88.23,107.522C88.454,107.309 88.715,107.138 89.014,107.01C89.313,106.882 89.633,106.818 89.974,106.818C90.422,106.818 90.793,106.906 91.086,107.082C91.379,107.258 91.601,107.437 91.75,107.618C91.857,107.746 91.95,107.874 92.03,108.002C92.11,108.13 92.177,108.285 92.23,108.466C92.326,108.818 92.374,109.341 92.374,110.034C92.374,110.429 92.366,110.749 92.35,110.994C92.334,111.24 92.294,111.442 92.23,111.602C92.155,111.773 92.051,111.917 91.918,112.034C91.785,112.152 91.601,112.28 91.366,112.418C91.622,112.578 91.817,112.728 91.95,112.866C92.083,113.005 92.182,113.165 92.246,113.346C92.31,113.538 92.347,113.765 92.358,114.026C92.369,114.288 92.374,114.621 92.374,115.026C92.374,115.4 92.366,115.709 92.35,115.954C92.334,116.2 92.31,116.402 92.278,116.562C92.246,116.733 92.203,116.877 92.15,116.994C92.097,117.112 92.027,117.234 91.942,117.362C91.739,117.661 91.481,117.909 91.166,118.106C90.851,118.304 90.438,118.402 89.926,118.402C89.67,118.402 89.398,118.36 89.11,118.274C88.822,118.189 88.561,118.05 88.326,117.858C88.091,117.666 87.897,117.416 87.742,117.106C87.587,116.797 87.51,116.418 87.51,115.97L87.51,115.042L89.142,115.042L89.142,115.89C89.142,116.146 89.214,116.357 89.358,116.522C89.502,116.688 89.697,116.77 89.942,116.77C90.187,116.77 90.382,116.688 90.526,116.522C90.67,116.357 90.742,116.136 90.742,115.858L90.742,114.226C90.742,113.778 90.657,113.485 90.486,113.346C90.39,113.261 90.259,113.208 90.094,113.186C89.929,113.165 89.713,113.154 89.446,113.154L89.446,111.714Z" style="fill-rule:nonzero;"/>
        </g>
        <g transform="matrix(1,0,0,1,-18.4974,238.914)">
            <text x="86.966px" y="118.306px" style="font-family:'DINCondensed-Bold', 'DIN Condensed';font-weight:700;font-stretch:condensed;font-size:16px;">3</text>
        </g>
    </g>
    <g id="Channel2" transform="matrix(1,0,0,1,-59.408,-296.224)">
        <g id="Strip-meter-56" serif:id="Strip#meter$5" transform="matrix(0.0370421,0,0,0.160516,192.205,321.363)">
            <rect x="53.94" y="106.916" width="161.978" height="161.978" style="fill:rgb(102,126,153);"/>
        </g>
        <g id="Output-output6" serif:id="Output#output" transform="matrix(0.175002,0,0,0.175002,154.654,318.641)">
            <rect x="53.94" y="106.916" width="161.978" height="161.978" style="fill:rgb(77,77,77);"/>
        </g>
        <g id="Value-lcd-36" serif:id="Value#lcd$3" transform="matrix(0.779107,0,0,0.846667,-27.4695,92.9601)">
            <rect x="173.071" y="291.218" width="64.141" height="28.346" style="fill:rgb(13,13,13);"/>
        </g>
        <g id="Pass-input7" serif:id="Pass#input" transform="matrix(0.175002,0,0,0.175002,67.3496,318.641)">
            <rect x="53.94" y="106.916" width="161.978" height="161.978" style="fill:rgb(204,204,204);"/>
        </g>
        <g transform="matrix(1,0,0,1,-18.4974,238.914)">
            <path d="M87.51,118.306L87.51,116.77L90.454,111.218C90.603,110.941 90.689,110.698 90.71,110.49C90.731,110.282 90.742,110.024 90.742,109.714C90.742,109.576 90.739,109.429 90.734,109.274C90.729,109.12 90.699,108.984 90.646,108.866C90.593,108.749 90.513,108.65 90.406,108.57C90.299,108.49 90.145,108.45 89.942,108.45C89.697,108.45 89.502,108.52 89.358,108.658C89.214,108.797 89.142,109 89.142,109.266L89.142,110.194L87.51,110.194L87.51,109.298C87.51,108.957 87.574,108.637 87.702,108.338C87.83,108.04 88.006,107.778 88.23,107.554C88.443,107.33 88.699,107.152 88.998,107.018C89.297,106.885 89.617,106.818 89.958,106.818C90.385,106.818 90.75,106.896 91.054,107.05C91.358,107.205 91.611,107.416 91.814,107.682C92.006,107.949 92.147,108.253 92.238,108.594C92.329,108.936 92.374,109.298 92.374,109.682C92.374,109.96 92.369,110.192 92.358,110.378C92.347,110.565 92.326,110.744 92.294,110.914C92.262,111.085 92.209,111.256 92.134,111.426C92.059,111.597 91.958,111.805 91.83,112.05L89.43,116.674L92.374,116.674L92.374,118.306L87.51,118.306Z" style="fill-rule:nonzero;"/>
        </g>
        <g transform="matrix(1,0,0,1,-18.4974,238.914)">
            <text x="86.966px" y="118.306px" style="font-family:'DINCondensed-Bold', 'DIN Condensed';font-weight:700;font-stretch:condensed;font-size:16px;">2</text>
        </g>
    </g>
    <g id="Channel1" transform="matrix(1,0,0,1,-59.408,-327.351)">
        <g id="Strip-meter-57" serif:id="Strip#meter$5" transform="matrix(0.0370421,0,0,0.160516,192.205,321.363)">
            <rect x="53.94" y="106.916" width="161.978" height="161.978" style="fill:rgb(102,126,153);"/>
        </g>
        <g id="Output-output7" serif:id="Output#output" transform="matrix(0.175002,0,0,0.175002,154.654,318.641)">
            <rect x="53.94" y="106.916" width="161.978" height="161.978" style="fill:rgb(77,77,77);"/>
        </g>
        <g id="Value-lcd-37" serif:id="Value#lcd$3" transform="matrix(0.780229,0,0,0.846667,-27.6636,92.9601)">
            <rect x="173.071" y="291.218" width="64.141" height="28.346" style="fill:rgb(13,13,13);"/>
        </g>
        <g id="Pass-input8" serif:id="Pass#input" transform="matrix(0.175002,0,0,0.175002,67.3496,318.641)">
            <rect x="53.94" y="106.916" width="161.978" height="161.978" style="fill:rgb(204,204,204);"/>
        </g>
        <g transform="matrix(1,0,0,1,-18.4974,238.914)">
            <path d="M89.446,118.306L89.446,108.642L87.814,109.842L87.814,108.114L89.446,106.914L91.078,106.914L91.078,118.306L89.446,118.306Z" style="fill-rule:nonzero;"/>
        </g>
        <g transform="matrix(1,0,0,1,-18.4974,238.914)">
            <text x="86.966px" y="118.306px" style="font-family:'DINCondensed-Bold', 'DIN Condensed';font-weight:700;font-stretch:condensed;font-size:16px;">1</text>
        </g>
    </g>
</svg>
