<?xml version="1.0" encoding="UTF-8" standalone="no"?>
<!DOCTYPE svg PUBLIC "-//W3C//DTD SVG 1.1//EN" "http://www.w3.org/Graphics/SVG/1.1/DTD/svg11.dtd">
<svg width="100%" height="100%" viewBox="0 0 180 380" version="1.1" xmlns="http://www.w3.org/2000/svg" xmlns:xlink="http://www.w3.org/1999/xlink" xml:space="preserve" xmlns:serif="http://www.serif.com/" style="fill-rule:evenodd;clip-rule:evenodd;stroke-linecap:round;stroke-linejoin:round;stroke-miterlimit:1.5;">
    <g transform="matrix(0.865021,0,0,2.01589,-45.4622,-120.797)">
        <rect x="52.556" y="59.922" width="208.087" height="188.503"/>
    </g>
    <g transform="matrix(0.816456,0,0,0.816456,29.8904,113.878)">
        <g transform="matrix(0.0380544,0,0,0.043166,80.4354,282.169)">
            <g transform="matrix(1,0,0,1,-143.343,98.6554)">
                <ellipse cx="360.896" cy="293.762" rx="136.961" ry="230.443" style="stroke:rgb(243,243,243);stroke-width:36.74px;"/>
            </g>
            <g transform="matrix(1,0,0,1,445.551,98.6554)">
                <ellipse cx="360.896" cy="293.762" rx="136.961" ry="230.443" style="stroke:rgb(243,243,243);stroke-width:36.74px;"/>
            </g>
            <g transform="matrix(1,0,0,1,-34.3236,-20.6488)">
                <ellipse cx="546.324" cy="643.509" rx="431.408" ry="296.899" style="stroke:rgb(243,243,243);stroke-width:36.74px;"/>
            </g>
            <circle cx="406.664" cy="569.758" r="105.336" style="stroke:rgb(243,243,243);stroke-width:36.74px;"/>
            <g transform="matrix(1,0,0,1,210.672,0)">
                <circle cx="406.664" cy="569.758" r="105.336" style="stroke:rgb(243,243,243);stroke-width:36.74px;"/>
            </g>
            <g transform="matrix(1,0,0,1,-53.1856,50.0357)">
                <ellipse cx="565.186" cy="671.455" rx="210.672" ry="98.631" style="fill:rgb(5,5,5);stroke:rgb(243,243,243);stroke-width:36.74px;"/>
            </g>
            <g transform="matrix(51.2,0,0,45.1371,0.670978,88.9676)">
                <path d="M12.057,13.791C12.057,13.668 11.958,13.568 11.835,13.568L8.139,13.568C8.016,13.568 7.916,13.668 7.916,13.791L7.916,14.236C7.916,14.359 8.016,14.458 8.139,14.458L11.835,14.458C11.958,14.458 12.057,14.359 12.057,14.236L12.057,13.791Z" style="fill:rgb(242,242,242);"/>
            </g>
        </g>
        <g transform="matrix(1,0,0,1,-117.483,-2.81813)">
            <g transform="matrix(1,0,0,1,60.5514,-48.5843)">
                <path d="M100.518,346.543C100.614,346.543 100.722,346.541 100.842,346.537C100.962,346.533 101.076,346.529 101.184,346.525C101.292,346.521 101.384,346.517 101.46,346.513C101.536,346.509 101.586,346.507 101.61,346.507C101.746,346.507 101.814,346.547 101.814,346.627C101.814,346.699 101.786,346.751 101.73,346.783C101.674,346.815 101.608,346.839 101.532,346.855C101.456,346.871 101.378,346.881 101.298,346.885C101.218,346.889 101.154,346.903 101.106,346.927C100.738,347.631 100.38,348.329 100.032,349.021C99.684,349.713 99.35,350.373 99.03,351.001C98.71,351.629 98.408,352.209 98.124,352.741C97.84,353.273 97.584,353.735 97.356,354.127C97.128,354.519 96.93,354.827 96.762,355.051C96.594,355.275 96.466,355.387 96.378,355.387C96.338,355.363 96.298,355.325 96.258,355.273C96.218,355.221 96.178,355.151 96.138,355.063C96.018,354.815 95.882,354.515 95.73,354.163C95.578,353.811 95.418,353.431 95.25,353.023C95.082,352.615 94.906,352.193 94.722,351.757C94.538,351.321 94.354,350.887 94.17,350.455L93.918,349.855C93.782,349.519 93.65,349.187 93.522,348.859C93.394,348.531 93.276,348.229 93.168,347.953C93.06,347.677 92.964,347.443 92.88,347.251C92.796,347.059 92.726,346.931 92.67,346.867C92.47,346.867 92.314,346.863 92.202,346.855C92.09,346.847 92.006,346.837 91.95,346.825C91.894,346.813 91.858,346.797 91.842,346.777C91.826,346.757 91.818,346.735 91.818,346.711C91.818,346.655 91.834,346.607 91.866,346.567C91.898,346.527 91.93,346.507 91.962,346.507C91.986,346.507 92.048,346.509 92.148,346.513C92.248,346.517 92.372,346.521 92.52,346.525C92.668,346.529 92.834,346.535 93.018,346.543C93.202,346.551 93.386,346.555 93.57,346.555C94.266,346.555 94.77,346.541 95.082,346.513C95.394,346.485 95.582,346.471 95.646,346.471C95.798,346.471 95.874,346.511 95.874,346.591C95.874,346.607 95.87,346.629 95.862,346.657C95.854,346.685 95.832,346.715 95.796,346.747C95.76,346.779 95.7,346.807 95.616,346.831C95.532,346.855 95.418,346.867 95.274,346.867C95.17,346.867 95.068,346.865 94.968,346.861C94.868,346.857 94.79,346.851 94.734,346.843C94.734,346.899 94.778,347.071 94.866,347.359C94.954,347.647 95.068,347.999 95.208,348.415C95.348,348.831 95.508,349.283 95.688,349.771C95.868,350.259 96.048,350.733 96.228,351.193C96.408,351.653 96.58,352.073 96.744,352.453C96.908,352.833 97.05,353.123 97.17,353.323C97.234,353.235 97.334,353.059 97.47,352.795C97.606,352.531 97.758,352.215 97.926,351.847C98.094,351.479 98.268,351.079 98.448,350.647C98.628,350.215 98.792,349.789 98.94,349.369C99.088,348.949 99.21,348.553 99.306,348.181C99.402,347.809 99.45,347.503 99.45,347.263C99.45,347.183 99.444,347.099 99.432,347.011C99.42,346.923 99.382,346.871 99.318,346.855C99.11,346.855 98.94,346.851 98.808,346.843C98.676,346.835 98.57,346.825 98.49,346.813C98.41,346.801 98.346,346.785 98.298,346.765C98.25,346.745 98.206,346.727 98.166,346.711C98.142,346.679 98.13,346.631 98.13,346.567C98.13,346.503 98.154,346.471 98.202,346.471L98.358,346.471C98.446,346.479 98.594,346.489 98.802,346.501C99.01,346.513 99.318,346.527 99.726,346.543L100.518,346.543Z" style="fill:rgb(242,242,242);fill-rule:nonzero;"/>
                <path d="M107.19,355.159C107.11,355.159 107.002,355.163 106.866,355.171C106.73,355.179 106.584,355.185 106.428,355.189C106.272,355.193 106.112,355.199 105.948,355.207C105.784,355.215 105.634,355.219 105.498,355.219C104.962,355.219 104.438,355.137 103.926,354.973C103.414,354.809 102.96,354.553 102.564,354.205C102.168,353.857 101.848,353.409 101.604,352.861C101.36,352.313 101.238,351.655 101.238,350.887C101.238,350.183 101.372,349.559 101.64,349.015C101.908,348.471 102.262,348.015 102.702,347.647C103.142,347.279 103.638,346.999 104.19,346.807C104.742,346.615 105.306,346.519 105.882,346.519C106.01,346.519 106.184,346.527 106.404,346.543C106.624,346.559 106.844,346.579 107.064,346.603C107.284,346.627 107.48,346.653 107.652,346.681C107.824,346.709 107.934,346.735 107.982,346.759C108.086,346.479 108.202,346.231 108.33,346.015C108.458,345.799 108.634,345.635 108.858,345.523C108.922,345.499 108.994,345.495 109.074,345.511C109.154,345.527 109.194,345.567 109.194,345.631C109.154,345.703 109.124,345.747 109.104,345.763C109.084,345.779 109.058,345.787 109.026,345.787C108.93,345.787 108.836,345.831 108.744,345.919C108.652,346.007 108.566,346.121 108.486,346.261C108.406,346.401 108.336,346.561 108.276,346.741C108.216,346.921 108.17,347.103 108.138,347.287C108.122,347.375 108.104,347.477 108.084,347.593C108.064,347.709 108.046,347.823 108.03,347.935C108.014,348.047 108.002,348.155 107.994,348.259C107.986,348.363 107.982,348.451 107.982,348.523C107.982,348.563 107.966,348.597 107.934,348.625C107.902,348.653 107.87,348.667 107.838,348.667C107.79,348.667 107.734,348.643 107.67,348.595C107.638,348.395 107.572,348.195 107.472,347.995C107.372,347.795 107.232,347.615 107.052,347.455C106.872,347.295 106.648,347.167 106.38,347.071C106.112,346.975 105.794,346.927 105.426,346.927C105.034,346.927 104.684,347.019 104.376,347.203C104.068,347.387 103.808,347.639 103.596,347.959C103.384,348.279 103.222,348.659 103.11,349.099C102.998,349.539 102.942,350.011 102.942,350.515C102.942,351.211 103.012,351.829 103.152,352.369C103.292,352.909 103.486,353.367 103.734,353.743C103.982,354.119 104.278,354.405 104.622,354.601C104.966,354.797 105.342,354.895 105.75,354.895C106.022,354.895 106.288,354.851 106.548,354.763C106.808,354.675 107.048,354.555 107.268,354.403C107.488,354.251 107.684,354.075 107.856,353.875C108.028,353.675 108.162,353.463 108.258,353.239C108.274,353.207 108.316,353.183 108.384,353.167C108.452,353.151 108.486,353.159 108.486,353.191C108.486,353.295 108.452,353.437 108.384,353.617C108.316,353.797 108.238,353.977 108.15,354.157C108.062,354.337 107.974,354.501 107.886,354.649C107.798,354.797 107.738,354.895 107.706,354.943C107.682,354.999 107.652,355.073 107.616,355.165C107.58,355.257 107.548,355.361 107.52,355.477C107.492,355.593 107.466,355.713 107.442,355.837C107.418,355.961 107.406,356.083 107.406,356.203C107.406,356.331 107.39,356.411 107.358,356.443C107.326,356.475 107.258,356.491 107.154,356.491C107.066,356.491 107.026,356.429 107.034,356.305C107.042,356.181 107.062,356.039 107.094,355.879C107.126,355.719 107.158,355.569 107.19,355.429C107.222,355.289 107.222,355.199 107.19,355.159Z" style="fill:rgb(242,242,242);fill-rule:nonzero;"/>
                <path d="M116.106,354.511C116.154,354.703 116.322,354.823 116.61,354.871C116.682,354.879 116.718,354.919 116.718,354.991C116.718,355.031 116.698,355.067 116.658,355.099C116.618,355.131 116.566,355.147 116.502,355.147C116.382,355.147 116.222,355.139 116.022,355.123C115.822,355.107 115.538,355.099 115.17,355.099C114.874,355.099 114.614,355.109 114.39,355.129C114.166,355.149 114.03,355.163 113.982,355.171C113.942,355.171 113.914,355.159 113.898,355.135C113.882,355.111 113.874,355.083 113.874,355.051C113.874,355.019 113.88,354.987 113.892,354.955C113.904,354.923 113.922,354.907 113.946,354.907C114.002,354.899 114.058,354.883 114.114,354.859C114.17,354.835 114.222,354.803 114.27,354.763C114.294,354.739 114.324,354.611 114.36,354.379C114.396,354.147 114.428,353.841 114.456,353.461C114.484,353.081 114.508,352.643 114.528,352.147C114.548,351.651 114.558,351.127 114.558,350.575L114.558,349.279C114.558,348.879 114.538,348.555 114.498,348.307C114.426,347.779 114.258,347.373 113.994,347.089C113.73,346.805 113.422,346.663 113.07,346.663C112.758,346.663 112.45,346.749 112.146,346.921C111.842,347.093 111.57,347.345 111.33,347.677C111.09,348.009 110.896,348.421 110.748,348.913C110.6,349.405 110.526,349.967 110.526,350.599C110.526,351.295 110.604,351.901 110.76,352.417C110.916,352.933 111.122,353.365 111.378,353.713C111.634,354.061 111.928,354.321 112.26,354.493C112.592,354.665 112.938,354.751 113.298,354.751L113.364,354.751C113.392,354.751 113.414,354.747 113.43,354.739C113.462,354.723 113.482,354.723 113.49,354.739C113.498,354.755 113.498,354.777 113.49,354.805C113.482,354.833 113.472,354.861 113.46,354.889C113.448,354.917 113.434,354.935 113.418,354.943C113.338,354.999 113.226,355.049 113.082,355.093C112.938,355.137 112.738,355.159 112.482,355.159C112.058,355.159 111.636,355.061 111.216,354.865C110.796,354.669 110.42,354.395 110.088,354.043C109.756,353.691 109.488,353.265 109.284,352.765C109.08,352.265 108.978,351.715 108.978,351.115C108.978,350.259 109.102,349.527 109.35,348.919C109.598,348.311 109.936,347.815 110.364,347.431C110.792,347.047 111.288,346.765 111.852,346.585C112.416,346.405 113.018,346.315 113.658,346.315C113.89,346.315 114.102,346.339 114.294,346.387C114.486,346.435 114.654,346.493 114.798,346.561C114.942,346.629 115.06,346.695 115.152,346.759C115.244,346.823 115.306,346.871 115.338,346.903C115.402,346.855 115.532,346.797 115.728,346.729C115.924,346.661 116.148,346.597 116.4,346.537C116.652,346.477 116.914,346.425 117.186,346.381C117.458,346.337 117.706,346.315 117.93,346.315C118.538,346.331 119.072,346.431 119.532,346.615C119.992,346.799 120.376,347.045 120.684,347.353C120.992,347.661 121.224,348.017 121.38,348.421C121.536,348.825 121.614,349.255 121.614,349.711C121.614,350.567 121.5,351.329 121.272,351.997C121.044,352.665 120.738,353.231 120.354,353.695C119.97,354.159 119.526,354.513 119.022,354.757C118.518,355.001 117.99,355.123 117.438,355.123C117.39,355.123 117.358,355.105 117.342,355.069C117.326,355.033 117.32,354.995 117.324,354.955C117.328,354.915 117.342,354.881 117.366,354.853C117.39,354.825 117.414,354.815 117.438,354.823C117.478,354.839 117.51,354.847 117.534,354.847L117.63,354.847C117.958,354.847 118.266,354.735 118.554,354.511C118.842,354.287 119.094,353.977 119.31,353.581C119.526,353.185 119.696,352.717 119.82,352.177C119.944,351.637 120.006,351.047 120.006,350.407C120.006,349.215 119.824,348.287 119.46,347.623C119.096,346.959 118.534,346.627 117.774,346.627C117.542,346.627 117.326,346.675 117.126,346.771C116.926,346.867 116.752,346.993 116.604,347.149C116.456,347.305 116.336,347.483 116.244,347.683C116.152,347.883 116.094,348.087 116.07,348.295C116.03,348.575 116.006,349.023 115.998,349.639C115.99,350.255 115.982,350.999 115.974,351.871C115.966,352.511 115.972,353.069 115.992,353.545C116.012,354.021 116.05,354.343 116.106,354.511Z" style="fill:rgb(242,242,242);fill-rule:nonzero;"/>
                <path d="M128.154,355.159C128.074,355.159 127.966,355.163 127.83,355.171C127.694,355.179 127.548,355.185 127.392,355.189C127.236,355.193 127.076,355.199 126.912,355.207C126.748,355.215 126.598,355.219 126.462,355.219C125.926,355.219 125.402,355.137 124.89,354.973C124.378,354.809 123.924,354.553 123.528,354.205C123.132,353.857 122.812,353.409 122.568,352.861C122.324,352.313 122.202,351.655 122.202,350.887C122.202,350.183 122.336,349.559 122.604,349.015C122.872,348.471 123.226,348.015 123.666,347.647C124.106,347.279 124.602,346.999 125.154,346.807C125.706,346.615 126.27,346.519 126.846,346.519C126.974,346.519 127.148,346.527 127.368,346.543C127.588,346.559 127.808,346.579 128.028,346.603C128.248,346.627 128.444,346.653 128.616,346.681C128.788,346.709 128.898,346.735 128.946,346.759C129.05,346.479 129.166,346.231 129.294,346.015C129.422,345.799 129.598,345.635 129.822,345.523C129.886,345.499 129.958,345.495 130.038,345.511C130.118,345.527 130.158,345.567 130.158,345.631C130.118,345.703 130.088,345.747 130.068,345.763C130.048,345.779 130.022,345.787 129.99,345.787C129.894,345.787 129.8,345.831 129.708,345.919C129.616,346.007 129.53,346.121 129.45,346.261C129.37,346.401 129.3,346.561 129.24,346.741C129.18,346.921 129.134,347.103 129.102,347.287C129.086,347.375 129.068,347.477 129.048,347.593C129.028,347.709 129.01,347.823 128.994,347.935C128.978,348.047 128.966,348.155 128.958,348.259C128.95,348.363 128.946,348.451 128.946,348.523C128.946,348.563 128.93,348.597 128.898,348.625C128.866,348.653 128.834,348.667 128.802,348.667C128.754,348.667 128.698,348.643 128.634,348.595C128.602,348.395 128.536,348.195 128.436,347.995C128.336,347.795 128.196,347.615 128.016,347.455C127.836,347.295 127.612,347.167 127.344,347.071C127.076,346.975 126.758,346.927 126.39,346.927C125.998,346.927 125.648,347.019 125.34,347.203C125.032,347.387 124.772,347.639 124.56,347.959C124.348,348.279 124.186,348.659 124.074,349.099C123.962,349.539 123.906,350.011 123.906,350.515C123.906,351.211 123.976,351.829 124.116,352.369C124.256,352.909 124.45,353.367 124.698,353.743C124.946,354.119 125.242,354.405 125.586,354.601C125.93,354.797 126.306,354.895 126.714,354.895C126.986,354.895 127.252,354.851 127.512,354.763C127.772,354.675 128.012,354.555 128.232,354.403C128.452,354.251 128.648,354.075 128.82,353.875C128.992,353.675 129.126,353.463 129.222,353.239C129.238,353.207 129.28,353.183 129.348,353.167C129.416,353.151 129.45,353.159 129.45,353.191C129.45,353.295 129.416,353.437 129.348,353.617C129.28,353.797 129.202,353.977 129.114,354.157C129.026,354.337 128.938,354.501 128.85,354.649C128.762,354.797 128.702,354.895 128.67,354.943C128.646,354.999 128.616,355.073 128.58,355.165C128.544,355.257 128.512,355.361 128.484,355.477C128.456,355.593 128.43,355.713 128.406,355.837C128.382,355.961 128.37,356.083 128.37,356.203C128.37,356.331 128.354,356.411 128.322,356.443C128.29,356.475 128.222,356.491 128.118,356.491C128.03,356.491 127.99,356.429 127.998,356.305C128.006,356.181 128.026,356.039 128.058,355.879C128.09,355.719 128.122,355.569 128.154,355.429C128.186,355.289 128.186,355.199 128.154,355.159Z" style="fill:rgb(242,242,242);fill-rule:nonzero;"/>
                <path d="M90.972,364.471C90.972,364.879 90.98,365.277 90.996,365.665C91.012,366.053 91.056,366.367 91.128,366.607C91.272,366.695 91.434,366.749 91.614,366.769C91.794,366.789 91.964,366.803 92.124,366.811C92.284,366.819 92.418,366.835 92.526,366.859C92.634,366.883 92.688,366.935 92.688,367.015C92.688,367.055 92.668,367.089 92.628,367.117C92.588,367.145 92.524,367.159 92.436,367.159C92.204,367.167 91.888,367.157 91.488,367.129C91.088,367.101 90.632,367.087 90.12,367.087C89.464,367.087 88.97,367.109 88.638,367.153C88.306,367.197 88.108,367.219 88.044,367.219C87.988,367.219 87.94,367.205 87.9,367.177C87.86,367.149 87.84,367.111 87.84,367.063C87.84,366.959 87.888,366.903 87.984,366.895C88.08,366.887 88.26,366.863 88.524,366.823C88.7,366.807 88.844,366.785 88.956,366.757C89.068,366.729 89.18,366.695 89.292,366.655C89.34,366.479 89.38,366.299 89.412,366.115C89.444,365.931 89.472,365.701 89.496,365.425C89.52,365.149 89.538,364.805 89.55,364.393C89.562,363.981 89.568,363.451 89.568,362.803C89.568,362.211 89.564,361.709 89.556,361.297C89.548,360.885 89.534,360.541 89.514,360.265C89.494,359.989 89.474,359.771 89.454,359.611C89.434,359.451 89.412,359.327 89.388,359.239C89.284,359.167 89.148,359.121 88.98,359.101C88.812,359.081 88.648,359.065 88.488,359.053C88.328,359.041 88.19,359.023 88.074,358.999C87.958,358.975 87.9,358.919 87.9,358.831C87.9,358.727 87.964,358.675 88.092,358.675C88.236,358.675 88.482,358.693 88.83,358.729C89.178,358.765 89.604,358.783 90.108,358.783C90.188,358.783 90.252,358.771 90.3,358.747C90.38,358.707 90.508,358.651 90.684,358.579C90.86,358.507 91.064,358.435 91.296,358.363C91.528,358.291 91.774,358.227 92.034,358.171C92.294,358.115 92.548,358.087 92.796,358.087C93.196,358.087 93.576,358.133 93.936,358.225C94.296,358.317 94.61,358.455 94.878,358.639C95.146,358.823 95.36,359.051 95.52,359.323C95.68,359.595 95.76,359.911 95.76,360.271C95.76,360.623 95.678,360.949 95.514,361.249C95.35,361.549 95.144,361.823 94.896,362.071C94.648,362.319 94.376,362.533 94.08,362.713C93.784,362.893 93.508,363.035 93.252,363.139C93.58,363.139 93.89,363.173 94.182,363.241C94.474,363.309 94.738,363.405 94.974,363.529C95.21,363.653 95.406,363.803 95.562,363.979C95.718,364.155 95.82,364.355 95.868,364.579C95.868,364.691 95.858,364.765 95.838,364.801C95.818,364.837 95.78,364.895 95.724,364.975C95.884,365.231 96.062,365.533 96.258,365.881C96.454,366.229 96.674,366.561 96.918,366.877C97.162,367.193 97.434,367.461 97.734,367.681C98.034,367.901 98.368,368.011 98.736,368.011C98.808,368.011 98.89,368.007 98.982,367.999C99.074,367.991 99.162,367.975 99.246,367.951C99.33,367.927 99.408,367.891 99.48,367.843C99.552,367.795 99.604,367.731 99.636,367.651C99.668,367.627 99.7,367.615 99.732,367.615C99.772,367.615 99.798,367.635 99.81,367.675C99.822,367.715 99.832,367.755 99.84,367.795C99.68,368.155 99.284,368.335 98.652,368.335C98.332,368.335 98.026,368.283 97.734,368.179C97.442,368.075 97.162,367.937 96.894,367.765C96.626,367.593 96.37,367.395 96.126,367.171C95.882,366.947 95.652,366.715 95.436,366.475C95.276,366.299 95.09,366.079 94.878,365.815C94.666,365.551 94.44,365.281 94.2,365.005C93.96,364.729 93.71,364.469 93.45,364.225C93.19,363.981 92.932,363.791 92.676,363.655C92.556,363.599 92.42,363.557 92.268,363.529C92.116,363.501 91.97,363.481 91.83,363.469C91.69,363.457 91.56,363.451 91.44,363.451L91.164,363.451C91.116,363.451 91.076,363.453 91.044,363.457C91.012,363.461 90.988,363.463 90.972,363.463L90.972,364.471ZM91.176,359.419C91.136,359.571 91.104,359.783 91.08,360.055C91.056,360.327 91.036,360.625 91.02,360.949C91.004,361.273 90.992,361.609 90.984,361.957C90.976,362.305 90.972,362.635 90.972,362.947C91.052,363.011 91.206,363.047 91.434,363.055C91.662,363.063 91.908,363.067 92.172,363.067C92.404,363.067 92.598,363.047 92.754,363.007C92.91,362.967 93.056,362.895 93.192,362.791C93.272,362.735 93.362,362.643 93.462,362.515C93.562,362.387 93.658,362.235 93.75,362.059C93.842,361.883 93.92,361.685 93.984,361.465C94.048,361.245 94.08,361.011 94.08,360.763C94.08,360.403 94.04,360.081 93.96,359.797C93.88,359.513 93.772,359.269 93.636,359.065C93.5,358.861 93.34,358.705 93.156,358.597C92.972,358.489 92.776,358.435 92.568,358.435C92.456,358.435 92.33,358.457 92.19,358.501C92.05,358.545 91.912,358.603 91.776,358.675C91.64,358.747 91.52,358.829 91.416,358.921C91.312,359.013 91.244,359.111 91.212,359.215L91.176,359.419Z" style="fill:rgb(242,242,242);fill-rule:nonzero;"/>
                <path d="M102.876,365.695C102.788,365.791 102.652,365.923 102.468,366.091C102.284,366.259 102.062,366.427 101.802,366.595C101.542,366.763 101.252,366.907 100.932,367.027C100.612,367.147 100.272,367.207 99.912,367.207C99.584,367.207 99.264,367.157 98.952,367.057C98.64,366.957 98.36,366.805 98.112,366.601C97.864,366.397 97.666,366.137 97.518,365.821C97.37,365.505 97.296,365.127 97.296,364.687C97.296,364.327 97.32,364.017 97.368,363.757C97.416,363.497 97.48,363.269 97.56,363.073C97.64,362.877 97.73,362.709 97.83,362.569C97.93,362.429 98.032,362.303 98.136,362.191C98.264,362.047 98.42,361.911 98.604,361.783C98.788,361.655 98.986,361.539 99.198,361.435C99.41,361.331 99.634,361.249 99.87,361.189C100.106,361.129 100.344,361.099 100.584,361.099C101.016,361.099 101.354,361.171 101.598,361.315C101.842,361.459 101.964,361.659 101.964,361.915C101.964,362.075 101.916,362.223 101.82,362.359C101.9,362.335 102.002,362.295 102.126,362.239C102.25,362.183 102.376,362.125 102.504,362.065C102.632,362.005 102.746,361.951 102.846,361.903C102.946,361.855 103.012,361.819 103.044,361.795C103.06,361.779 103.078,361.773 103.098,361.777C103.118,361.781 103.128,361.795 103.128,361.819C103.128,361.923 103.108,362.009 103.068,362.077C103.028,362.145 102.98,362.199 102.924,362.239C102.796,362.319 102.612,362.419 102.372,362.539C102.132,362.659 101.866,362.785 101.574,362.917C101.282,363.049 100.98,363.181 100.668,363.313C100.356,363.445 100.062,363.571 99.786,363.691C99.51,363.811 99.27,363.917 99.066,364.009C98.862,364.101 98.724,364.167 98.652,364.207C98.652,364.479 98.706,364.733 98.814,364.969C98.922,365.205 99.072,365.411 99.264,365.587C99.456,365.763 99.686,365.901 99.954,366.001C100.222,366.101 100.516,366.151 100.836,366.151C101.124,366.151 101.384,366.121 101.616,366.061C101.848,366.001 102.044,365.933 102.204,365.857C102.364,365.781 102.49,365.713 102.582,365.653C102.674,365.593 102.724,365.563 102.732,365.563C102.764,365.563 102.796,365.577 102.828,365.605C102.86,365.633 102.876,365.663 102.876,365.695ZM98.652,363.859C98.788,363.811 98.942,363.753 99.114,363.685C99.286,363.617 99.454,363.543 99.618,363.463C99.782,363.383 99.932,363.307 100.068,363.235C100.204,363.163 100.308,363.099 100.38,363.043C100.524,362.939 100.596,362.763 100.596,362.515C100.596,362.419 100.578,362.319 100.542,362.215C100.506,362.111 100.452,362.017 100.38,361.933C100.308,361.849 100.22,361.781 100.116,361.729C100.012,361.677 99.896,361.651 99.768,361.651C99.656,361.651 99.536,361.689 99.408,361.765C99.28,361.841 99.16,361.965 99.048,362.137C98.936,362.309 98.842,362.537 98.766,362.821C98.69,363.105 98.652,363.451 98.652,363.859Z" style="fill:rgb(242,242,242);fill-rule:nonzero;"/>
                <path d="M107.832,361.651C107.816,361.699 107.77,361.773 107.694,361.873C107.618,361.973 107.528,362.077 107.424,362.185C107.32,362.293 107.21,362.397 107.094,362.497C106.978,362.597 106.876,362.671 106.788,362.719C106.732,362.743 106.698,362.735 106.686,362.695C106.674,362.655 106.668,362.615 106.668,362.575C106.668,362.511 106.634,362.431 106.566,362.335C106.498,362.239 106.402,362.145 106.278,362.053C106.154,361.961 106.008,361.883 105.84,361.819C105.672,361.755 105.488,361.723 105.288,361.723C104.944,361.723 104.664,361.909 104.448,362.281C104.232,362.653 104.124,363.147 104.124,363.763C104.124,364.139 104.182,364.477 104.298,364.777C104.414,365.077 104.574,365.329 104.778,365.533C104.982,365.737 105.228,365.893 105.516,366.001C105.804,366.109 106.116,366.163 106.452,366.163C106.908,366.163 107.272,366.105 107.544,365.989C107.816,365.873 108.04,365.739 108.216,365.587C108.224,365.587 108.23,365.583 108.234,365.575C108.238,365.567 108.244,365.563 108.252,365.563C108.292,365.563 108.32,365.577 108.336,365.605C108.352,365.633 108.36,365.667 108.36,365.707C108.36,365.739 108.352,365.763 108.336,365.779C108.216,365.875 108.05,366.003 107.838,366.163C107.626,366.323 107.384,366.481 107.112,366.637C106.84,366.793 106.556,366.927 106.26,367.039C105.964,367.151 105.672,367.207 105.384,367.207C104.56,367.207 103.918,366.967 103.458,366.487C102.998,366.007 102.768,365.351 102.768,364.519C102.768,363.887 102.89,363.355 103.134,362.923C103.378,362.491 103.678,362.145 104.034,361.885C104.39,361.625 104.768,361.439 105.168,361.327C105.568,361.215 105.92,361.159 106.224,361.159C106.472,361.159 106.694,361.177 106.89,361.213C107.086,361.249 107.254,361.293 107.394,361.345C107.534,361.397 107.642,361.451 107.718,361.507C107.794,361.563 107.832,361.611 107.832,361.651Z" style="fill:rgb(242,242,242);fill-rule:nonzero;"/>
                <path d="M113.712,365.695C113.624,365.791 113.488,365.923 113.304,366.091C113.12,366.259 112.898,366.427 112.638,366.595C112.378,366.763 112.088,366.907 111.768,367.027C111.448,367.147 111.108,367.207 110.748,367.207C110.42,367.207 110.1,367.157 109.788,367.057C109.476,366.957 109.196,366.805 108.948,366.601C108.7,366.397 108.502,366.137 108.354,365.821C108.206,365.505 108.132,365.127 108.132,364.687C108.132,364.327 108.156,364.017 108.204,363.757C108.252,363.497 108.316,363.269 108.396,363.073C108.476,362.877 108.566,362.709 108.666,362.569C108.766,362.429 108.868,362.303 108.972,362.191C109.1,362.047 109.256,361.911 109.44,361.783C109.624,361.655 109.822,361.539 110.034,361.435C110.246,361.331 110.47,361.249 110.706,361.189C110.942,361.129 111.18,361.099 111.42,361.099C111.852,361.099 112.19,361.171 112.434,361.315C112.678,361.459 112.8,361.659 112.8,361.915C112.8,362.075 112.752,362.223 112.656,362.359C112.736,362.335 112.838,362.295 112.962,362.239C113.086,362.183 113.212,362.125 113.34,362.065C113.468,362.005 113.582,361.951 113.682,361.903C113.782,361.855 113.848,361.819 113.88,361.795C113.896,361.779 113.914,361.773 113.934,361.777C113.954,361.781 113.964,361.795 113.964,361.819C113.964,361.923 113.944,362.009 113.904,362.077C113.864,362.145 113.816,362.199 113.76,362.239C113.632,362.319 113.448,362.419 113.208,362.539C112.968,362.659 112.702,362.785 112.41,362.917C112.118,363.049 111.816,363.181 111.504,363.313C111.192,363.445 110.898,363.571 110.622,363.691C110.346,363.811 110.106,363.917 109.902,364.009C109.698,364.101 109.56,364.167 109.488,364.207C109.488,364.479 109.542,364.733 109.65,364.969C109.758,365.205 109.908,365.411 110.1,365.587C110.292,365.763 110.522,365.901 110.79,366.001C111.058,366.101 111.352,366.151 111.672,366.151C111.96,366.151 112.22,366.121 112.452,366.061C112.684,366.001 112.88,365.933 113.04,365.857C113.2,365.781 113.326,365.713 113.418,365.653C113.51,365.593 113.56,365.563 113.568,365.563C113.6,365.563 113.632,365.577 113.664,365.605C113.696,365.633 113.712,365.663 113.712,365.695ZM109.488,363.859C109.624,363.811 109.778,363.753 109.95,363.685C110.122,363.617 110.29,363.543 110.454,363.463C110.618,363.383 110.768,363.307 110.904,363.235C111.04,363.163 111.144,363.099 111.216,363.043C111.36,362.939 111.432,362.763 111.432,362.515C111.432,362.419 111.414,362.319 111.378,362.215C111.342,362.111 111.288,362.017 111.216,361.933C111.144,361.849 111.056,361.781 110.952,361.729C110.848,361.677 110.732,361.651 110.604,361.651C110.492,361.651 110.372,361.689 110.244,361.765C110.116,361.841 109.996,361.965 109.884,362.137C109.772,362.309 109.678,362.537 109.602,362.821C109.526,363.105 109.488,363.451 109.488,363.859Z" style="fill:rgb(242,242,242);fill-rule:nonzero;"/>
                <path d="M115.5,365.011C115.5,365.179 115.504,365.341 115.512,365.497C115.52,365.653 115.548,365.787 115.596,365.899C115.644,366.011 115.716,366.101 115.812,366.169C115.908,366.237 116.044,366.271 116.22,366.271C116.308,366.271 116.408,366.261 116.52,366.241C116.632,366.221 116.738,366.195 116.838,366.163C116.938,366.131 117.026,366.099 117.102,366.067C117.178,366.035 117.224,366.011 117.24,365.995C117.264,365.971 117.28,365.971 117.288,365.995C117.296,366.019 117.298,366.049 117.294,366.085C117.29,366.121 117.28,366.157 117.264,366.193C117.248,366.229 117.228,366.255 117.204,366.271C117.124,366.311 116.984,366.383 116.784,366.487C116.584,366.591 116.348,366.699 116.076,366.811C115.82,366.923 115.57,367.017 115.326,367.093C115.082,367.169 114.88,367.207 114.72,367.207C114.536,367.207 114.392,367.151 114.288,367.039C114.184,366.927 114.132,366.787 114.132,366.619C114.132,366.563 114.134,366.515 114.138,366.475C114.142,366.435 114.148,366.383 114.156,366.319C114.164,366.239 114.178,366.093 114.198,365.881C114.218,365.669 114.238,365.431 114.258,365.167C114.278,364.903 114.296,364.637 114.312,364.369C114.328,364.101 114.336,363.871 114.336,363.679L114.336,363.259C114.336,363.051 114.324,362.867 114.3,362.707C114.276,362.547 114.236,362.423 114.18,362.335C114.14,362.279 114.09,362.233 114.03,362.197C113.97,362.161 113.896,362.143 113.808,362.143C113.76,362.143 113.712,362.153 113.664,362.173C113.616,362.193 113.58,362.203 113.556,362.203C113.54,362.203 113.514,362.179 113.478,362.131C113.442,362.083 113.444,362.047 113.484,362.023C113.54,361.983 113.656,361.919 113.832,361.831C114.008,361.743 114.2,361.647 114.408,361.543C114.632,361.431 114.848,361.333 115.056,361.249C115.264,361.165 115.412,361.123 115.5,361.123C115.588,361.123 115.648,361.149 115.68,361.201C115.712,361.253 115.728,361.311 115.728,361.375L115.728,361.423C115.728,361.503 115.716,361.631 115.692,361.807C115.668,361.983 115.642,362.199 115.614,362.455C115.586,362.711 115.56,363.007 115.536,363.343C115.512,363.679 115.5,364.043 115.5,364.435L115.5,365.011ZM115.02,358.771C115.06,358.779 115.126,358.823 115.218,358.903C115.31,358.983 115.404,359.075 115.5,359.179C115.596,359.283 115.68,359.383 115.752,359.479C115.824,359.575 115.86,359.639 115.86,359.671C115.86,359.711 115.812,359.771 115.716,359.851C115.62,359.931 115.51,360.013 115.386,360.097C115.262,360.181 115.142,360.255 115.026,360.319C114.91,360.383 114.828,360.415 114.78,360.415C114.756,360.415 114.698,360.377 114.606,360.301C114.514,360.225 114.42,360.139 114.324,360.043C114.228,359.947 114.142,359.853 114.066,359.761C113.99,359.669 113.952,359.607 113.952,359.575C113.952,359.535 114.004,359.473 114.108,359.389C114.212,359.305 114.326,359.217 114.45,359.125C114.574,359.033 114.694,358.953 114.81,358.885C114.926,358.817 114.996,358.779 115.02,358.771Z" style="fill:rgb(242,242,242);fill-rule:nonzero;"/>
                <path d="M119.952,365.767C119.984,365.719 120.046,365.621 120.138,365.473C120.23,365.325 120.334,365.143 120.45,364.927C120.566,364.711 120.686,364.477 120.81,364.225C120.934,363.973 121.048,363.719 121.152,363.463C121.256,363.207 121.342,362.965 121.41,362.737C121.478,362.509 121.512,362.311 121.512,362.143C121.512,362.015 121.496,361.913 121.464,361.837C121.432,361.761 121.386,361.703 121.326,361.663C121.266,361.623 121.196,361.595 121.116,361.579C121.036,361.563 120.952,361.555 120.864,361.555C120.816,361.555 120.768,361.559 120.72,361.567C120.672,361.575 120.624,361.587 120.576,361.603C120.528,361.619 120.49,361.613 120.462,361.585C120.434,361.557 120.42,361.535 120.42,361.519C120.42,361.487 120.474,361.447 120.582,361.399C120.69,361.351 120.838,361.307 121.026,361.267C121.214,361.227 121.43,361.193 121.674,361.165C121.918,361.137 122.172,361.123 122.436,361.123C122.812,361.123 123,361.247 123,361.495C123,361.607 122.926,361.799 122.778,362.071C122.63,362.343 122.442,362.661 122.214,363.025C121.986,363.389 121.734,363.775 121.458,364.183C121.182,364.591 120.912,364.985 120.648,365.365C120.384,365.745 120.142,366.095 119.922,366.415C119.702,366.735 119.536,366.983 119.424,367.159C119.4,367.191 119.312,367.207 119.16,367.207C119.096,367.207 119.054,367.197 119.034,367.177C119.014,367.157 118.996,367.123 118.98,367.075C118.908,366.851 118.826,366.603 118.734,366.331C118.642,366.059 118.544,365.783 118.44,365.503C118.336,365.223 118.23,364.945 118.122,364.669C118.014,364.393 117.908,364.135 117.804,363.895C117.524,363.223 117.286,362.753 117.09,362.485C116.894,362.217 116.712,362.083 116.544,362.083C116.496,362.083 116.45,362.091 116.406,362.107C116.362,362.123 116.32,362.139 116.28,362.155C116.264,362.155 116.242,362.137 116.214,362.101C116.186,362.065 116.18,362.039 116.196,362.023C116.204,362.015 116.28,361.963 116.424,361.867C116.568,361.771 116.736,361.665 116.928,361.549C117.12,361.433 117.314,361.327 117.51,361.231C117.706,361.135 117.864,361.087 117.984,361.087C118.168,361.087 118.336,361.257 118.488,361.597C118.64,361.937 118.82,362.407 119.028,363.007L119.952,365.767Z" style="fill:rgb(242,242,242);fill-rule:nonzero;"/>
                <path d="M128.7,365.695C128.612,365.791 128.476,365.923 128.292,366.091C128.108,366.259 127.886,366.427 127.626,366.595C127.366,366.763 127.076,366.907 126.756,367.027C126.436,367.147 126.096,367.207 125.736,367.207C125.408,367.207 125.088,367.157 124.776,367.057C124.464,366.957 124.184,366.805 123.936,366.601C123.688,366.397 123.49,366.137 123.342,365.821C123.194,365.505 123.12,365.127 123.12,364.687C123.12,364.327 123.144,364.017 123.192,363.757C123.24,363.497 123.304,363.269 123.384,363.073C123.464,362.877 123.554,362.709 123.654,362.569C123.754,362.429 123.856,362.303 123.96,362.191C124.088,362.047 124.244,361.911 124.428,361.783C124.612,361.655 124.81,361.539 125.022,361.435C125.234,361.331 125.458,361.249 125.694,361.189C125.93,361.129 126.168,361.099 126.408,361.099C126.84,361.099 127.178,361.171 127.422,361.315C127.666,361.459 127.788,361.659 127.788,361.915C127.788,362.075 127.74,362.223 127.644,362.359C127.724,362.335 127.826,362.295 127.95,362.239C128.074,362.183 128.2,362.125 128.328,362.065C128.456,362.005 128.57,361.951 128.67,361.903C128.77,361.855 128.836,361.819 128.868,361.795C128.884,361.779 128.902,361.773 128.922,361.777C128.942,361.781 128.952,361.795 128.952,361.819C128.952,361.923 128.932,362.009 128.892,362.077C128.852,362.145 128.804,362.199 128.748,362.239C128.62,362.319 128.436,362.419 128.196,362.539C127.956,362.659 127.69,362.785 127.398,362.917C127.106,363.049 126.804,363.181 126.492,363.313C126.18,363.445 125.886,363.571 125.61,363.691C125.334,363.811 125.094,363.917 124.89,364.009C124.686,364.101 124.548,364.167 124.476,364.207C124.476,364.479 124.53,364.733 124.638,364.969C124.746,365.205 124.896,365.411 125.088,365.587C125.28,365.763 125.51,365.901 125.778,366.001C126.046,366.101 126.34,366.151 126.66,366.151C126.948,366.151 127.208,366.121 127.44,366.061C127.672,366.001 127.868,365.933 128.028,365.857C128.188,365.781 128.314,365.713 128.406,365.653C128.498,365.593 128.548,365.563 128.556,365.563C128.588,365.563 128.62,365.577 128.652,365.605C128.684,365.633 128.7,365.663 128.7,365.695ZM124.476,363.859C124.612,363.811 124.766,363.753 124.938,363.685C125.11,363.617 125.278,363.543 125.442,363.463C125.606,363.383 125.756,363.307 125.892,363.235C126.028,363.163 126.132,363.099 126.204,363.043C126.348,362.939 126.42,362.763 126.42,362.515C126.42,362.419 126.402,362.319 126.366,362.215C126.33,362.111 126.276,362.017 126.204,361.933C126.132,361.849 126.044,361.781 125.94,361.729C125.836,361.677 125.72,361.651 125.592,361.651C125.48,361.651 125.36,361.689 125.232,361.765C125.104,361.841 124.984,361.965 124.872,362.137C124.76,362.309 124.666,362.537 124.59,362.821C124.514,363.105 124.476,363.451 124.476,363.859Z" style="fill:rgb(242,242,242);fill-rule:nonzero;"/>
                <path d="M134.268,361.999C134.18,362.071 134.076,362.161 133.956,362.269C133.836,362.377 133.71,362.481 133.578,362.581C133.446,362.681 133.312,362.767 133.176,362.839C133.04,362.911 132.908,362.947 132.78,362.947C132.668,362.947 132.568,362.921 132.48,362.869C132.392,362.817 132.31,362.761 132.234,362.701C132.158,362.641 132.084,362.585 132.012,362.533C131.94,362.481 131.864,362.455 131.784,362.455C131.568,362.455 131.386,362.543 131.238,362.719C131.09,362.895 130.97,363.119 130.878,363.391C130.786,363.663 130.718,363.959 130.674,364.279C130.63,364.599 130.608,364.907 130.608,365.203C130.608,365.451 130.618,365.653 130.638,365.809C130.658,365.965 130.688,366.089 130.728,366.181C130.768,366.273 130.822,366.335 130.89,366.367C130.958,366.399 131.04,366.415 131.136,366.415C131.24,366.415 131.352,366.399 131.472,366.367C131.496,366.359 131.514,366.375 131.526,366.415C131.538,366.455 131.544,366.487 131.544,366.511C131.544,366.527 131.532,366.545 131.508,366.565C131.484,366.585 131.468,366.595 131.46,366.595C131.284,366.667 131.104,366.745 130.92,366.829C130.736,366.913 130.584,366.983 130.464,367.039C130.352,367.087 130.218,367.139 130.062,367.195C129.906,367.251 129.772,367.279 129.66,367.279C129.532,367.279 129.426,367.259 129.342,367.219C129.258,367.179 129.216,367.139 129.216,367.099C129.216,367.059 129.226,367.023 129.246,366.991C129.266,366.959 129.284,366.899 129.3,366.811C129.316,366.691 129.334,366.549 129.354,366.385C129.374,366.221 129.394,366.043 129.414,365.851C129.434,365.659 129.45,365.461 129.462,365.257C129.474,365.053 129.48,364.851 129.48,364.651C129.48,364.203 129.466,363.823 129.438,363.511C129.41,363.199 129.36,362.947 129.288,362.755C129.216,362.563 129.118,362.425 128.994,362.341C128.87,362.257 128.712,362.215 128.52,362.215L128.412,362.215C128.38,362.215 128.348,362.219 128.316,362.227C128.268,362.227 128.244,362.203 128.244,362.155C128.244,362.107 128.268,362.071 128.316,362.047C128.404,361.991 128.54,361.909 128.724,361.801C128.908,361.693 129.098,361.589 129.294,361.489C129.49,361.389 129.68,361.299 129.864,361.219C130.048,361.139 130.184,361.099 130.272,361.099C130.376,361.099 130.464,361.133 130.536,361.201C130.608,361.269 130.662,361.355 130.698,361.459C130.734,361.563 130.76,361.681 130.776,361.813C130.792,361.945 130.8,362.075 130.8,362.203C130.8,362.299 130.798,362.399 130.794,362.503C130.79,362.607 130.788,362.719 130.788,362.839C131.148,362.311 131.472,361.901 131.76,361.609C132.048,361.317 132.32,361.171 132.576,361.171C132.672,361.171 132.766,361.211 132.858,361.291C132.95,361.371 133.048,361.461 133.152,361.561C133.256,361.661 133.364,361.751 133.476,361.831C133.588,361.911 133.704,361.951 133.824,361.951C133.928,361.951 134.004,361.939 134.052,361.915C134.1,361.891 134.14,361.871 134.172,361.855C134.236,361.855 134.268,361.899 134.268,361.987L134.268,361.999Z" style="fill:rgb(242,242,242);fill-rule:nonzero;"/>
            </g>
            <g transform="matrix(1,0,0,1,60.5514,-48.5843)">
                <text x="91.974px" y="355.099px" style="font-family:'Luminari-Regular', 'Luminari';font-size:12px;fill:rgb(242,242,242);">V<tspan x="100.914px 108.666px " y="355.099px 355.099px ">CM</tspan>C</text>
                <text x="87.924px" y="367.099px" style="font-family:'Luminari-Regular', 'Luminari';font-size:12px;fill:rgb(242,242,242);">Receiver</text>
            </g>
        </g>
    </g>
    <g transform="matrix(1,0,0,1,-84.9085,-12.5481)">
        <g transform="matrix(1,0,0,1,21.3508,-0.896772)">
            <g id="Connect-button" serif:id="Connect#button" transform="matrix(0.174892,0,0,0.175002,155.564,313.265)">
                <rect x="53.94" y="106.916" width="161.978" height="161.978"/>
            </g>
            <g transform="matrix(1,0,0,1,46.7861,231.117)">
                <path d="M90.698,116.846C90.698,117.006 90.743,117.13 90.833,117.216C90.923,117.303 91.045,117.346 91.198,117.346C91.391,117.346 91.52,117.29 91.583,117.176C91.646,117.063 91.685,116.95 91.698,116.836L92.718,116.836C92.718,117.283 92.581,117.643 92.308,117.916C92.175,118.056 92.015,118.166 91.828,118.246C91.641,118.326 91.431,118.366 91.198,118.366C90.878,118.366 90.606,118.3 90.383,118.166C90.16,118.033 89.988,117.856 89.868,117.636C89.795,117.503 89.745,117.35 89.718,117.176C89.691,117.003 89.678,116.813 89.678,116.606L89.678,114.936C89.678,114.73 89.691,114.54 89.718,114.366C89.745,114.193 89.795,114.04 89.868,113.906C89.988,113.686 90.16,113.51 90.383,113.376C90.606,113.243 90.878,113.176 91.198,113.176C91.431,113.176 91.643,113.216 91.833,113.296C92.023,113.376 92.185,113.486 92.318,113.626C92.585,113.926 92.718,114.316 92.718,114.796L91.698,114.796C91.698,114.59 91.653,114.438 91.563,114.341C91.473,114.245 91.351,114.196 91.198,114.196C91.045,114.196 90.923,114.245 90.833,114.341C90.743,114.438 90.698,114.583 90.698,114.776L90.698,116.846Z" style="fill:white;fill-rule:nonzero;"/>
                <path d="M93.228,114.936C93.228,114.73 93.241,114.54 93.268,114.366C93.295,114.193 93.345,114.04 93.418,113.906C93.538,113.686 93.71,113.51 93.933,113.376C94.156,113.243 94.428,113.176 94.748,113.176C95.068,113.176 95.34,113.243 95.563,113.376C95.786,113.51 95.958,113.686 96.078,113.906C96.151,114.04 96.201,114.193 96.228,114.366C96.255,114.54 96.268,114.73 96.268,114.936L96.268,116.606C96.268,116.813 96.255,117.003 96.228,117.176C96.201,117.35 96.151,117.503 96.078,117.636C95.958,117.856 95.786,118.033 95.563,118.166C95.34,118.3 95.068,118.366 94.748,118.366C94.428,118.366 94.156,118.3 93.933,118.166C93.71,118.033 93.538,117.856 93.418,117.636C93.345,117.503 93.295,117.35 93.268,117.176C93.241,117.003 93.228,116.813 93.228,116.606L93.228,114.936ZM94.248,116.766C94.248,116.96 94.293,117.105 94.383,117.201C94.473,117.298 94.595,117.346 94.748,117.346C94.901,117.346 95.023,117.298 95.113,117.201C95.203,117.105 95.248,116.96 95.248,116.766L95.248,114.776C95.248,114.583 95.203,114.438 95.113,114.341C95.023,114.245 94.901,114.196 94.748,114.196C94.595,114.196 94.473,114.245 94.383,114.341C94.293,114.438 94.248,114.583 94.248,114.776L94.248,116.766Z" style="fill:white;fill-rule:nonzero;"/>
                <path d="M97.018,118.306L97.018,113.236L98.038,113.236L98.038,113.726L98.058,113.726C98.165,113.566 98.293,113.435 98.443,113.331C98.593,113.228 98.785,113.176 99.018,113.176C99.145,113.176 99.271,113.198 99.398,113.241C99.525,113.285 99.638,113.356 99.738,113.456C99.838,113.556 99.918,113.685 99.978,113.841C100.038,113.998 100.068,114.19 100.068,114.416L100.068,118.306L99.048,118.306L99.048,114.796C99.048,114.61 99.005,114.463 98.918,114.356C98.831,114.25 98.708,114.196 98.548,114.196C98.355,114.196 98.221,114.256 98.148,114.376C98.075,114.496 98.038,114.67 98.038,114.896L98.038,118.306L97.018,118.306Z" style="fill:white;fill-rule:nonzero;"/>
                <path d="M100.908,118.306L100.908,113.236L101.928,113.236L101.928,113.726L101.948,113.726C102.055,113.566 102.183,113.435 102.333,113.331C102.483,113.228 102.675,113.176 102.908,113.176C103.035,113.176 103.161,113.198 103.288,113.241C103.415,113.285 103.528,113.356 103.628,113.456C103.728,113.556 103.808,113.685 103.868,113.841C103.928,113.998 103.958,114.19 103.958,114.416L103.958,118.306L102.938,118.306L102.938,114.796C102.938,114.61 102.895,114.463 102.808,114.356C102.721,114.25 102.598,114.196 102.438,114.196C102.245,114.196 102.111,114.256 102.038,114.376C101.965,114.496 101.928,114.67 101.928,114.896L101.928,118.306L100.908,118.306Z" style="fill:white;fill-rule:nonzero;"/>
                <path d="M107.748,116.156L105.728,116.156L105.728,116.846C105.728,117.006 105.773,117.13 105.863,117.216C105.953,117.303 106.075,117.346 106.228,117.346C106.421,117.346 106.55,117.29 106.613,117.176C106.676,117.063 106.715,116.95 106.728,116.836L107.748,116.836C107.748,117.283 107.611,117.643 107.338,117.916C107.205,118.056 107.045,118.166 106.858,118.246C106.671,118.326 106.461,118.366 106.228,118.366C105.908,118.366 105.636,118.3 105.413,118.166C105.19,118.033 105.018,117.856 104.898,117.636C104.825,117.503 104.775,117.35 104.748,117.176C104.721,117.003 104.708,116.813 104.708,116.606L104.708,114.936C104.708,114.73 104.721,114.54 104.748,114.366C104.775,114.193 104.825,114.04 104.898,113.906C105.018,113.686 105.19,113.51 105.413,113.376C105.636,113.243 105.908,113.176 106.228,113.176C106.461,113.176 106.673,113.216 106.863,113.296C107.053,113.376 107.215,113.486 107.348,113.626C107.615,113.926 107.748,114.303 107.748,114.756L107.748,116.156ZM105.728,115.356L106.728,115.356L106.728,114.776C106.728,114.583 106.683,114.438 106.593,114.341C106.503,114.245 106.381,114.196 106.228,114.196C106.075,114.196 105.953,114.245 105.863,114.341C105.773,114.438 105.728,114.583 105.728,114.776L105.728,115.356Z" style="fill:white;fill-rule:nonzero;"/>
                <path d="M109.578,116.846C109.578,117.006 109.623,117.13 109.713,117.216C109.803,117.303 109.925,117.346 110.078,117.346C110.271,117.346 110.4,117.29 110.463,117.176C110.526,117.063 110.565,116.95 110.578,116.836L111.598,116.836C111.598,117.283 111.461,117.643 111.188,117.916C111.055,118.056 110.895,118.166 110.708,118.246C110.521,118.326 110.311,118.366 110.078,118.366C109.758,118.366 109.486,118.3 109.263,118.166C109.04,118.033 108.868,117.856 108.748,117.636C108.675,117.503 108.625,117.35 108.598,117.176C108.571,117.003 108.558,116.813 108.558,116.606L108.558,114.936C108.558,114.73 108.571,114.54 108.598,114.366C108.625,114.193 108.675,114.04 108.748,113.906C108.868,113.686 109.04,113.51 109.263,113.376C109.486,113.243 109.758,113.176 110.078,113.176C110.311,113.176 110.523,113.216 110.713,113.296C110.903,113.376 111.065,113.486 111.198,113.626C111.465,113.926 111.598,114.316 111.598,114.796L110.578,114.796C110.578,114.59 110.533,114.438 110.443,114.341C110.353,114.245 110.231,114.196 110.078,114.196C109.925,114.196 109.803,114.245 109.713,114.341C109.623,114.438 109.578,114.583 109.578,114.776L109.578,116.846Z" style="fill:white;fill-rule:nonzero;"/>
                <path d="M112.198,113.236L112.198,111.696L113.218,111.696L113.218,113.236L113.848,113.236L113.848,114.036L113.218,114.036L113.218,116.846C113.218,116.966 113.23,117.06 113.253,117.126C113.276,117.193 113.315,117.243 113.368,117.276C113.421,117.31 113.486,117.33 113.563,117.336C113.64,117.343 113.735,117.346 113.848,117.346L113.848,118.306L113.428,118.306C113.195,118.306 113,118.27 112.843,118.196C112.686,118.123 112.561,118.03 112.468,117.916C112.375,117.803 112.306,117.675 112.263,117.531C112.22,117.388 112.198,117.25 112.198,117.116L112.198,114.036L111.688,114.036L111.688,113.236L112.198,113.236Z" style="fill:white;fill-rule:nonzero;"/>
            </g>
            <g transform="matrix(1,0,0,1,46.7861,231.117)">
                <text x="89.198px" y="118.306px" style="font-family:'DINCondensed-Bold', 'DIN Condensed';font-weight:700;font-stretch:condensed;font-size:10px;fill:white;">connect</text>
            </g>
        </g>
        <g id="Reset-output" serif:id="Reset#output" transform="matrix(0.175002,0,0,0.175002,113.639,312.136)">
            <rect x="53.94" y="106.916" width="161.978" height="161.978" style="fill:rgb(77,77,77);"/>
        </g>
        <g id="Clock-display-3" serif:id="Clock#display$3" transform="matrix(0.86967,0,0,0.846667,43.4657,52.9384)">
            <rect x="173.071" y="291.218" width="64.141" height="28.346" style="fill:rgb(13,13,13);"/>
        </g>
        <g id="Clock-output" serif:id="Clock#output" transform="matrix(0.175002,0,0,0.175002,147.314,278.505)">
            <rect x="53.94" y="106.916" width="161.978" height="161.978" style="fill:rgb(77,77,77);"/>
        </g>
        <g id="ClockOverride-input" serif:id="ClockOverride#input" transform="matrix(0.175002,0,0,0.175002,113.639,278.505)">
            <rect x="53.94" y="106.916" width="161.978" height="161.978" style="fill:rgb(217,217,217);"/>
        </g>
        <g transform="matrix(1,0,0,1,6.14061,229.396)">
            <path d="M89.618,118.306L89.618,113.236L90.638,113.236L90.638,113.776C90.845,113.59 91.048,113.443 91.248,113.336C91.448,113.23 91.695,113.176 91.988,113.176L91.988,114.256C91.888,114.216 91.785,114.196 91.678,114.196C91.571,114.196 91.456,114.215 91.333,114.251C91.21,114.288 91.098,114.35 90.998,114.436C90.891,114.523 90.805,114.636 90.738,114.776C90.671,114.916 90.638,115.09 90.638,115.296L90.638,118.306L89.618,118.306Z" style="fill:rgb(242,242,242);fill-rule:nonzero;"/>
            <path d="M95.348,116.156L93.328,116.156L93.328,116.846C93.328,117.006 93.373,117.13 93.463,117.216C93.553,117.303 93.675,117.346 93.828,117.346C94.021,117.346 94.15,117.29 94.213,117.176C94.276,117.063 94.315,116.95 94.328,116.836L95.348,116.836C95.348,117.283 95.211,117.643 94.938,117.916C94.805,118.056 94.645,118.166 94.458,118.246C94.271,118.326 94.061,118.366 93.828,118.366C93.508,118.366 93.236,118.3 93.013,118.166C92.79,118.033 92.618,117.856 92.498,117.636C92.425,117.503 92.375,117.35 92.348,117.176C92.321,117.003 92.308,116.813 92.308,116.606L92.308,114.936C92.308,114.73 92.321,114.54 92.348,114.366C92.375,114.193 92.425,114.04 92.498,113.906C92.618,113.686 92.79,113.51 93.013,113.376C93.236,113.243 93.508,113.176 93.828,113.176C94.061,113.176 94.273,113.216 94.463,113.296C94.653,113.376 94.815,113.486 94.948,113.626C95.215,113.926 95.348,114.303 95.348,114.756L95.348,116.156ZM93.328,115.356L94.328,115.356L94.328,114.776C94.328,114.583 94.283,114.438 94.193,114.341C94.103,114.245 93.981,114.196 93.828,114.196C93.675,114.196 93.553,114.245 93.463,114.341C93.373,114.438 93.328,114.583 93.328,114.776L93.328,115.356Z" style="fill:rgb(242,242,242);fill-rule:nonzero;"/>
            <path d="M97.948,114.656C97.941,114.483 97.886,114.353 97.783,114.266C97.68,114.18 97.561,114.136 97.428,114.136C97.268,114.136 97.145,114.188 97.058,114.291C96.971,114.395 96.928,114.513 96.928,114.646C96.928,114.74 96.951,114.831 96.998,114.921C97.045,115.011 97.165,115.093 97.358,115.166L97.958,115.406C98.338,115.553 98.6,115.753 98.743,116.006C98.886,116.26 98.958,116.536 98.958,116.836C98.958,117.05 98.92,117.248 98.843,117.431C98.766,117.615 98.661,117.776 98.528,117.916C98.395,118.056 98.235,118.166 98.048,118.246C97.861,118.326 97.658,118.366 97.438,118.366C97.025,118.366 96.678,118.236 96.398,117.976C96.258,117.85 96.145,117.691 96.058,117.501C95.971,117.311 95.925,117.09 95.918,116.836L96.878,116.836C96.898,116.976 96.946,117.106 97.023,117.226C97.1,117.346 97.235,117.406 97.428,117.406C97.575,117.406 97.706,117.358 97.823,117.261C97.94,117.165 97.998,117.03 97.998,116.856C97.998,116.716 97.961,116.596 97.888,116.496C97.815,116.396 97.681,116.31 97.488,116.236L96.998,116.056C96.678,115.936 96.426,115.758 96.243,115.521C96.06,115.285 95.968,114.996 95.968,114.656C95.968,114.443 96.008,114.245 96.088,114.061C96.168,113.878 96.278,113.72 96.418,113.586C96.551,113.453 96.708,113.351 96.888,113.281C97.068,113.211 97.261,113.176 97.468,113.176C97.675,113.176 97.866,113.213 98.043,113.286C98.22,113.36 98.371,113.463 98.498,113.596C98.625,113.73 98.725,113.888 98.798,114.071C98.871,114.255 98.908,114.45 98.908,114.656L97.948,114.656Z" style="fill:rgb(242,242,242);fill-rule:nonzero;"/>
            <path d="M102.568,116.156L100.548,116.156L100.548,116.846C100.548,117.006 100.593,117.13 100.683,117.216C100.773,117.303 100.895,117.346 101.048,117.346C101.241,117.346 101.37,117.29 101.433,117.176C101.496,117.063 101.535,116.95 101.548,116.836L102.568,116.836C102.568,117.283 102.431,117.643 102.158,117.916C102.025,118.056 101.865,118.166 101.678,118.246C101.491,118.326 101.281,118.366 101.048,118.366C100.728,118.366 100.456,118.3 100.233,118.166C100.01,118.033 99.838,117.856 99.718,117.636C99.645,117.503 99.595,117.35 99.568,117.176C99.541,117.003 99.528,116.813 99.528,116.606L99.528,114.936C99.528,114.73 99.541,114.54 99.568,114.366C99.595,114.193 99.645,114.04 99.718,113.906C99.838,113.686 100.01,113.51 100.233,113.376C100.456,113.243 100.728,113.176 101.048,113.176C101.281,113.176 101.493,113.216 101.683,113.296C101.873,113.376 102.035,113.486 102.168,113.626C102.435,113.926 102.568,114.303 102.568,114.756L102.568,116.156ZM100.548,115.356L101.548,115.356L101.548,114.776C101.548,114.583 101.503,114.438 101.413,114.341C101.323,114.245 101.201,114.196 101.048,114.196C100.895,114.196 100.773,114.245 100.683,114.341C100.593,114.438 100.548,114.583 100.548,114.776L100.548,115.356Z" style="fill:rgb(242,242,242);fill-rule:nonzero;"/>
            <path d="M103.318,113.236L103.318,111.696L104.338,111.696L104.338,113.236L104.968,113.236L104.968,114.036L104.338,114.036L104.338,116.846C104.338,116.966 104.35,117.06 104.373,117.126C104.396,117.193 104.435,117.243 104.488,117.276C104.541,117.31 104.606,117.33 104.683,117.336C104.76,117.343 104.855,117.346 104.968,117.346L104.968,118.306L104.548,118.306C104.315,118.306 104.12,118.27 103.963,118.196C103.806,118.123 103.681,118.03 103.588,117.916C103.495,117.803 103.426,117.675 103.383,117.531C103.34,117.388 103.318,117.25 103.318,117.116L103.318,114.036L102.808,114.036L102.808,113.236L103.318,113.236Z" style="fill:rgb(242,242,242);fill-rule:nonzero;"/>
        </g>
        <g transform="matrix(1,0,0,1,6.14061,229.396)">
            <text x="89.198px" y="118.306px" style="font-family:'DINCondensed-Bold', 'DIN Condensed';font-weight:700;font-stretch:condensed;font-size:10px;fill:rgb(242,242,242);">reset</text>
        </g>
        <g transform="matrix(1,0,0,1,5.23061,197.041)">
            <path d="M90.698,116.846C90.698,117.006 90.743,117.13 90.833,117.216C90.923,117.303 91.045,117.346 91.198,117.346C91.391,117.346 91.52,117.29 91.583,117.176C91.646,117.063 91.685,116.95 91.698,116.836L92.718,116.836C92.718,117.283 92.581,117.643 92.308,117.916C92.175,118.056 92.015,118.166 91.828,118.246C91.641,118.326 91.431,118.366 91.198,118.366C90.878,118.366 90.606,118.3 90.383,118.166C90.16,118.033 89.988,117.856 89.868,117.636C89.795,117.503 89.745,117.35 89.718,117.176C89.691,117.003 89.678,116.813 89.678,116.606L89.678,114.936C89.678,114.73 89.691,114.54 89.718,114.366C89.745,114.193 89.795,114.04 89.868,113.906C89.988,113.686 90.16,113.51 90.383,113.376C90.606,113.243 90.878,113.176 91.198,113.176C91.431,113.176 91.643,113.216 91.833,113.296C92.023,113.376 92.185,113.486 92.318,113.626C92.585,113.926 92.718,114.316 92.718,114.796L91.698,114.796C91.698,114.59 91.653,114.438 91.563,114.341C91.473,114.245 91.351,114.196 91.198,114.196C91.045,114.196 90.923,114.245 90.833,114.341C90.743,114.438 90.698,114.583 90.698,114.776L90.698,116.846Z" style="fill:rgb(242,242,242);fill-rule:nonzero;"/>
            <path d="M93.138,111.186L94.158,111.186L94.158,116.876C94.158,117.07 94.193,117.201 94.263,117.271C94.333,117.341 94.465,117.386 94.658,117.406L94.658,118.366C94.425,118.366 94.215,118.348 94.028,118.311C93.841,118.275 93.681,118.203 93.548,118.096C93.415,117.996 93.313,117.855 93.243,117.671C93.173,117.488 93.138,117.246 93.138,116.946L93.138,111.186Z" style="fill:rgb(242,242,242);fill-rule:nonzero;"/>
            <path d="M94.968,114.936C94.968,114.73 94.981,114.54 95.008,114.366C95.035,114.193 95.085,114.04 95.158,113.906C95.278,113.686 95.45,113.51 95.673,113.376C95.896,113.243 96.168,113.176 96.488,113.176C96.808,113.176 97.08,113.243 97.303,113.376C97.526,113.51 97.698,113.686 97.818,113.906C97.891,114.04 97.941,114.193 97.968,114.366C97.995,114.54 98.008,114.73 98.008,114.936L98.008,116.606C98.008,116.813 97.995,117.003 97.968,117.176C97.941,117.35 97.891,117.503 97.818,117.636C97.698,117.856 97.526,118.033 97.303,118.166C97.08,118.3 96.808,118.366 96.488,118.366C96.168,118.366 95.896,118.3 95.673,118.166C95.45,118.033 95.278,117.856 95.158,117.636C95.085,117.503 95.035,117.35 95.008,117.176C94.981,117.003 94.968,116.813 94.968,116.606L94.968,114.936ZM95.988,116.766C95.988,116.96 96.033,117.105 96.123,117.201C96.213,117.298 96.335,117.346 96.488,117.346C96.641,117.346 96.763,117.298 96.853,117.201C96.943,117.105 96.988,116.96 96.988,116.766L96.988,114.776C96.988,114.583 96.943,114.438 96.853,114.341C96.763,114.245 96.641,114.196 96.488,114.196C96.335,114.196 96.213,114.245 96.123,114.341C96.033,114.438 95.988,114.583 95.988,114.776L95.988,116.766Z" style="fill:rgb(242,242,242);fill-rule:nonzero;"/>
            <path d="M99.838,116.846C99.838,117.006 99.883,117.13 99.973,117.216C100.063,117.303 100.185,117.346 100.338,117.346C100.531,117.346 100.66,117.29 100.723,117.176C100.786,117.063 100.825,116.95 100.838,116.836L101.858,116.836C101.858,117.283 101.721,117.643 101.448,117.916C101.315,118.056 101.155,118.166 100.968,118.246C100.781,118.326 100.571,118.366 100.338,118.366C100.018,118.366 99.746,118.3 99.523,118.166C99.3,118.033 99.128,117.856 99.008,117.636C98.935,117.503 98.885,117.35 98.858,117.176C98.831,117.003 98.818,116.813 98.818,116.606L98.818,114.936C98.818,114.73 98.831,114.54 98.858,114.366C98.885,114.193 98.935,114.04 99.008,113.906C99.128,113.686 99.3,113.51 99.523,113.376C99.746,113.243 100.018,113.176 100.338,113.176C100.571,113.176 100.783,113.216 100.973,113.296C101.163,113.376 101.325,113.486 101.458,113.626C101.725,113.926 101.858,114.316 101.858,114.796L100.838,114.796C100.838,114.59 100.793,114.438 100.703,114.341C100.613,114.245 100.491,114.196 100.338,114.196C100.185,114.196 100.063,114.245 99.973,114.341C99.883,114.438 99.838,114.583 99.838,114.776L99.838,116.846Z" style="fill:rgb(242,242,242);fill-rule:nonzero;"/>
            <path d="M102.338,118.306L102.338,111.186L103.358,111.186L103.358,115.446L103.378,115.446L104.608,113.236L105.628,113.236L104.418,115.296L105.878,118.306L104.768,118.306L103.848,116.116L103.358,116.886L103.358,118.306L102.338,118.306Z" style="fill:rgb(242,242,242);fill-rule:nonzero;"/>
        </g>
        <g transform="matrix(1,0,0,1,5.23061,197.041)">
            <text x="89.198px" y="118.306px" style="font-family:'DINCondensed-Bold', 'DIN Condensed';font-weight:700;font-stretch:condensed;font-size:10px;fill:rgb(242,242,242);">c<tspan x="92.778px 94.638px 98.338px 101.918px " y="118.306px 118.306px 118.306px 118.306px ">lock</tspan></text>
        </g>
    </g>
    <g id="Channel8" transform="matrix(1,0,0,1,-106.078,69.4295)">
        <g id="Gate" transform="matrix(1,0,0,1,21.2991,-0.592177)">
            <g id="BitOut1-output" serif:id="BitOut1#output" transform="matrix(0.175002,0,0,0.175002,92.3402,157.412)">
                <rect x="53.94" y="106.916" width="161.978" height="161.978" style="fill:rgb(77,77,77);"/>
            </g>
            <g id="Status1-light" serif:id="Status1#light" transform="matrix(1,0,0,1,97.9713,-145.565)">
                <circle cx="42.167" cy="335.861" r="3.82" style="fill:rgb(230,230,230);"/>
            </g>
        </g>
        <g id="Slider" transform="matrix(0.75,0,0,1,-44.1572,137.758)">
            <g id="Output-output" serif:id="Output#output" transform="matrix(0.233336,0,0,0.175002,325.75,19.6545)">
                <rect x="53.94" y="106.916" width="161.978" height="161.978" style="fill:rgb(153,102,102);"/>
            </g>
            <g id="Strip-meter-5" serif:id="Strip#meter$5" transform="matrix(0.214021,0,0,0.0493894,374.152,50.4856)">
                <rect x="53.94" y="106.916" width="161.978" height="161.978" style="fill:rgb(153,102,102);"/>
            </g>
        </g>
        <g id="CV" transform="matrix(0.75,0,0,1,-44.1572,138.758)">
            <g id="Output-output1" serif:id="Output#output" transform="matrix(0.233336,0,0,0.175002,273.765,18.6545)">
                <rect x="53.94" y="106.916" width="161.978" height="161.978" style="fill:rgb(77,77,77);"/>
            </g>
            <g id="Strip-meter-51" serif:id="Strip#meter$5" transform="matrix(0.214021,0,0,0.0493894,374.152,37.8454)">
                <rect x="53.94" y="106.916" width="161.978" height="161.978" style="fill:rgb(140,140,140);"/>
            </g>
        </g>
        <g transform="matrix(1,0,0,1,26.3497,75.2537)">
            <path d="M91.558,112.646C91.558,112.506 91.508,112.388 91.408,112.291C91.308,112.195 91.191,112.146 91.058,112.146C90.925,112.146 90.808,112.195 90.708,112.291C90.608,112.388 90.558,112.506 90.558,112.646L90.558,113.686C90.558,113.826 90.608,113.945 90.708,114.041C90.808,114.138 90.925,114.186 91.058,114.186C91.191,114.186 91.308,114.138 91.408,114.041C91.508,113.945 91.558,113.826 91.558,113.686L91.558,112.646ZM89.538,113.046C89.538,112.853 89.545,112.688 89.558,112.551C89.571,112.415 89.595,112.296 89.628,112.196C89.661,112.096 89.7,112.006 89.743,111.926C89.786,111.846 89.841,111.763 89.908,111.676C90.041,111.503 90.208,111.368 90.408,111.271C90.608,111.175 90.825,111.126 91.058,111.126C91.291,111.126 91.508,111.175 91.708,111.271C91.908,111.368 92.075,111.503 92.208,111.676C92.275,111.763 92.331,111.846 92.378,111.926C92.425,112.006 92.465,112.096 92.498,112.196C92.531,112.296 92.553,112.415 92.563,112.551C92.573,112.688 92.578,112.853 92.578,113.046C92.578,113.26 92.575,113.44 92.568,113.586C92.561,113.733 92.541,113.863 92.508,113.976C92.475,114.09 92.423,114.191 92.353,114.281C92.283,114.371 92.188,114.466 92.068,114.566C92.188,114.66 92.283,114.753 92.353,114.846C92.423,114.94 92.475,115.05 92.508,115.176C92.541,115.303 92.561,115.458 92.568,115.641C92.575,115.825 92.578,116.05 92.578,116.316C92.578,116.536 92.573,116.718 92.563,116.861C92.553,117.005 92.538,117.13 92.518,117.236C92.498,117.343 92.47,117.433 92.433,117.506C92.396,117.58 92.351,117.656 92.298,117.736C92.185,117.91 92.025,118.058 91.818,118.181C91.611,118.305 91.358,118.366 91.058,118.366C90.758,118.366 90.505,118.305 90.298,118.181C90.091,118.058 89.931,117.91 89.818,117.736C89.765,117.656 89.72,117.58 89.683,117.506C89.646,117.433 89.618,117.343 89.598,117.236C89.578,117.13 89.563,117.005 89.553,116.861C89.543,116.718 89.538,116.536 89.538,116.316C89.538,116.05 89.541,115.825 89.548,115.641C89.555,115.458 89.575,115.303 89.608,115.176C89.641,115.05 89.693,114.94 89.763,114.846C89.833,114.753 89.928,114.66 90.048,114.566C89.928,114.466 89.833,114.371 89.763,114.281C89.693,114.191 89.641,114.09 89.608,113.976C89.575,113.863 89.555,113.733 89.548,113.586C89.541,113.44 89.538,113.26 89.538,113.046ZM91.558,115.446C91.558,115.306 91.508,115.188 91.408,115.091C91.308,114.995 91.191,114.946 91.058,114.946C90.925,114.946 90.808,114.995 90.708,115.091C90.608,115.188 90.558,115.306 90.558,115.446L90.558,116.846C90.558,116.986 90.608,117.105 90.708,117.201C90.808,117.298 90.925,117.346 91.058,117.346C91.191,117.346 91.308,117.298 91.408,117.201C91.508,117.105 91.558,116.986 91.558,116.846L91.558,115.446Z" style="fill:white;fill-rule:nonzero;"/>
        </g>
        <g transform="matrix(1,0,0,1,26.3497,75.2537)">
            <text x="89.198px" y="118.306px" style="font-family:'DINCondensed-Bold', 'DIN Condensed';font-weight:700;font-stretch:condensed;font-size:10px;fill:white;">8</text>
        </g>
    </g>
    <g id="Channel7" transform="matrix(1,0,0,1,-106.078,37.4816)">
        <g id="Gate1" serif:id="Gate" transform="matrix(1,0,0,1,21.2991,-0.592177)">
            <g id="BitOut1-output1" serif:id="BitOut1#output" transform="matrix(0.175002,0,0,0.175002,92.3402,157.412)">
                <rect x="53.94" y="106.916" width="161.978" height="161.978" style="fill:rgb(77,77,77);"/>
            </g>
            <g id="Status1-light1" serif:id="Status1#light" transform="matrix(1,0,0,1,97.9713,-145.565)">
                <circle cx="42.167" cy="335.861" r="3.82" style="fill:rgb(230,230,230);"/>
            </g>
        </g>
        <g id="Slider1" serif:id="Slider" transform="matrix(0.75,0,0,1,-44.1572,137.758)">
            <g id="Output-output2" serif:id="Output#output" transform="matrix(0.233336,0,0,0.175002,325.75,19.6545)">
                <rect x="53.94" y="106.916" width="161.978" height="161.978" style="fill:rgb(153,102,102);"/>
            </g>
            <g id="Strip-meter-52" serif:id="Strip#meter$5" transform="matrix(0.214021,0,0,0.0493894,374.152,50.4856)">
                <rect x="53.94" y="106.916" width="161.978" height="161.978" style="fill:rgb(153,102,102);"/>
            </g>
        </g>
        <g id="CV1" serif:id="CV" transform="matrix(0.75,0,0,1,-44.1572,138.758)">
            <g id="Output-output3" serif:id="Output#output" transform="matrix(0.233336,0,0,0.175002,273.765,18.6545)">
                <rect x="53.94" y="106.916" width="161.978" height="161.978" style="fill:rgb(77,77,77);"/>
            </g>
            <g id="Strip-meter-53" serif:id="Strip#meter$5" transform="matrix(0.214021,0,0,0.0493894,374.152,37.8454)">
                <rect x="53.94" y="106.916" width="161.978" height="161.978" style="fill:rgb(140,140,140);"/>
            </g>
        </g>
        <g transform="matrix(1,0,0,1,26.3497,75.2537)">
            <path d="M89.768,118.306L91.558,112.146L90.438,112.146L90.438,112.966L89.538,112.966L89.538,111.186L92.578,111.186L92.578,112.206L90.848,118.306L89.768,118.306Z" style="fill:white;fill-rule:nonzero;"/>
        </g>
        <g transform="matrix(1,0,0,1,26.3497,75.2537)">
            <text x="89.198px" y="118.306px" style="font-family:'DINCondensed-Bold', 'DIN Condensed';font-weight:700;font-stretch:condensed;font-size:10px;fill:white;">7</text>
        </g>
    </g>
    <g id="Channel6" transform="matrix(1,0,0,1,-106.078,5.53359)">
        <g id="Gate2" serif:id="Gate" transform="matrix(1,0,0,1,21.2991,-0.592177)">
            <g id="BitOut1-output2" serif:id="BitOut1#output" transform="matrix(0.175002,0,0,0.175002,92.3402,157.412)">
                <rect x="53.94" y="106.916" width="161.978" height="161.978" style="fill:rgb(77,77,77);"/>
            </g>
            <g id="Status1-light2" serif:id="Status1#light" transform="matrix(1,0,0,1,97.9713,-145.565)">
                <circle cx="42.167" cy="335.861" r="3.82" style="fill:rgb(230,230,230);"/>
            </g>
        </g>
        <g id="Slider2" serif:id="Slider" transform="matrix(0.75,0,0,1,-44.1572,137.758)">
            <g id="Output-output4" serif:id="Output#output" transform="matrix(0.233336,0,0,0.175002,325.75,19.6545)">
                <rect x="53.94" y="106.916" width="161.978" height="161.978" style="fill:rgb(153,102,102);"/>
            </g>
            <g id="Strip-meter-54" serif:id="Strip#meter$5" transform="matrix(0.214021,0,0,0.0493894,374.152,50.4856)">
                <rect x="53.94" y="106.916" width="161.978" height="161.978" style="fill:rgb(153,102,102);"/>
            </g>
        </g>
        <g id="CV2" serif:id="CV" transform="matrix(0.75,0,0,1,-44.1572,138.758)">
            <g id="Output-output5" serif:id="Output#output" transform="matrix(0.233336,0,0,0.175002,273.765,18.6545)">
                <rect x="53.94" y="106.916" width="161.978" height="161.978" style="fill:rgb(77,77,77);"/>
            </g>
            <g id="Strip-meter-55" serif:id="Strip#meter$5" transform="matrix(0.214021,0,0,0.0493894,374.152,37.8454)">
                <rect x="53.94" y="106.916" width="161.978" height="161.978" style="fill:rgb(140,140,140);"/>
            </g>
        </g>
        <g transform="matrix(1,0,0,1,26.3497,75.2537)">
            <path d="M92.208,111.186L91.048,114.176L91.068,114.196C91.101,114.17 91.153,114.148 91.223,114.131C91.293,114.115 91.385,114.106 91.498,114.106C91.678,114.106 91.845,114.15 91.998,114.236C92.151,114.323 92.271,114.433 92.358,114.566C92.405,114.64 92.441,114.713 92.468,114.786C92.495,114.86 92.518,114.956 92.538,115.076C92.551,115.196 92.561,115.348 92.568,115.531C92.575,115.715 92.578,115.946 92.578,116.226C92.578,116.46 92.575,116.651 92.568,116.801C92.561,116.951 92.551,117.076 92.538,117.176C92.518,117.283 92.493,117.373 92.463,117.446C92.433,117.52 92.395,117.596 92.348,117.676C92.215,117.896 92.036,118.066 91.813,118.186C91.59,118.306 91.338,118.366 91.058,118.366C90.778,118.366 90.528,118.305 90.308,118.181C90.088,118.058 89.911,117.89 89.778,117.676C89.725,117.596 89.683,117.52 89.653,117.446C89.623,117.373 89.601,117.283 89.588,117.176C89.568,117.076 89.555,116.951 89.548,116.801C89.541,116.651 89.538,116.46 89.538,116.226C89.538,116.006 89.541,115.825 89.548,115.681C89.555,115.538 89.565,115.413 89.578,115.306C89.591,115.206 89.611,115.115 89.638,115.031C89.665,114.948 89.695,114.86 89.728,114.766L91.068,111.186L92.208,111.186ZM91.558,115.516C91.558,115.363 91.508,115.24 91.408,115.146C91.308,115.053 91.191,115.006 91.058,115.006C90.925,115.006 90.808,115.053 90.708,115.146C90.608,115.24 90.558,115.363 90.558,115.516L90.558,116.836C90.558,116.99 90.608,117.113 90.708,117.206C90.808,117.3 90.925,117.346 91.058,117.346C91.191,117.346 91.308,117.3 91.408,117.206C91.508,117.113 91.558,116.99 91.558,116.836L91.558,115.516Z" style="fill:white;fill-rule:nonzero;"/>
        </g>
        <g transform="matrix(1,0,0,1,26.3497,75.2537)">
            <text x="89.198px" y="118.306px" style="font-family:'DINCondensed-Bold', 'DIN Condensed';font-weight:700;font-stretch:condensed;font-size:10px;fill:white;">6</text>
        </g>
    </g>
    <g id="Channel5" transform="matrix(1,0,0,1,-106.078,-26.4144)">
        <g id="Gate3" serif:id="Gate" transform="matrix(1,0,0,1,21.2991,-0.592177)">
            <g id="BitOut1-output3" serif:id="BitOut1#output" transform="matrix(0.175002,0,0,0.175002,92.3402,157.412)">
                <rect x="53.94" y="106.916" width="161.978" height="161.978" style="fill:rgb(77,77,77);"/>
            </g>
            <g id="Status1-light3" serif:id="Status1#light" transform="matrix(1,0,0,1,97.9713,-145.565)">
                <circle cx="42.167" cy="335.861" r="3.82" style="fill:rgb(230,230,230);"/>
            </g>
        </g>
        <g id="Slider3" serif:id="Slider" transform="matrix(0.75,0,0,1,-44.1572,137.758)">
            <g id="Output-output6" serif:id="Output#output" transform="matrix(0.233336,0,0,0.175002,325.75,19.6545)">
                <rect x="53.94" y="106.916" width="161.978" height="161.978" style="fill:rgb(153,102,102);"/>
            </g>
            <g id="Strip-meter-56" serif:id="Strip#meter$5" transform="matrix(0.214021,0,0,0.0493894,374.152,50.4856)">
                <rect x="53.94" y="106.916" width="161.978" height="161.978" style="fill:rgb(153,102,102);"/>
            </g>
        </g>
        <g id="CV3" serif:id="CV" transform="matrix(0.75,0,0,1,-44.1572,138.758)">
            <g id="Output-output7" serif:id="Output#output" transform="matrix(0.233336,0,0,0.175002,273.765,18.6545)">
                <rect x="53.94" y="106.916" width="161.978" height="161.978" style="fill:rgb(77,77,77);"/>
            </g>
            <g id="Strip-meter-57" serif:id="Strip#meter$5" transform="matrix(0.214021,0,0,0.0493894,374.152,37.8454)">
                <rect x="53.94" y="106.916" width="161.978" height="161.978" style="fill:rgb(140,140,140);"/>
            </g>
        </g>
        <g transform="matrix(1,0,0,1,26.3497,75.2537)">
            <path d="M92.578,111.186L92.578,112.146L90.558,112.146L90.558,114.066C90.651,113.973 90.771,113.895 90.918,113.831C91.065,113.768 91.228,113.736 91.408,113.736C91.755,113.736 92.036,113.841 92.253,114.051C92.47,114.261 92.578,114.576 92.578,114.996L92.578,116.836C92.578,117.076 92.536,117.29 92.453,117.476C92.37,117.663 92.258,117.823 92.118,117.956C91.978,118.09 91.816,118.191 91.633,118.261C91.45,118.331 91.258,118.366 91.058,118.366C90.858,118.366 90.666,118.331 90.483,118.261C90.3,118.191 90.138,118.09 89.998,117.956C89.858,117.823 89.746,117.663 89.663,117.476C89.58,117.29 89.538,117.076 89.538,116.836L89.538,116.536L90.558,116.536L90.558,116.796C90.558,116.97 90.606,117.105 90.703,117.201C90.8,117.298 90.925,117.346 91.078,117.346C91.231,117.346 91.35,117.3 91.433,117.206C91.516,117.113 91.558,116.983 91.558,116.816L91.558,115.146C91.558,115.006 91.513,114.886 91.423,114.786C91.333,114.686 91.218,114.636 91.078,114.636C90.991,114.636 90.918,114.651 90.858,114.681C90.798,114.711 90.748,114.746 90.708,114.786C90.668,114.826 90.638,114.87 90.618,114.916C90.585,114.976 90.565,115.013 90.558,115.026L89.658,115.026L89.658,111.186L92.578,111.186Z" style="fill:white;fill-rule:nonzero;"/>
        </g>
        <g transform="matrix(1,0,0,1,26.3497,75.2537)">
            <text x="89.198px" y="118.306px" style="font-family:'DINCondensed-Bold', 'DIN Condensed';font-weight:700;font-stretch:condensed;font-size:10px;fill:white;">5</text>
        </g>
    </g>
    <g id="Channel4" transform="matrix(1,0,0,1,-106.078,-58.3624)">
        <g id="Gate4" serif:id="Gate" transform="matrix(1,0,0,1,21.2991,-0.592177)">
            <g id="BitOut1-output4" serif:id="BitOut1#output" transform="matrix(0.175002,0,0,0.175002,92.3402,157.412)">
                <rect x="53.94" y="106.916" width="161.978" height="161.978" style="fill:rgb(77,77,77);"/>
            </g>
            <g id="Status1-light4" serif:id="Status1#light" transform="matrix(1,0,0,1,97.9713,-145.565)">
                <circle cx="42.167" cy="335.861" r="3.82" style="fill:rgb(230,230,230);"/>
            </g>
        </g>
        <g id="Slider4" serif:id="Slider" transform="matrix(0.75,0,0,1,-44.1572,137.758)">
            <g id="Output-output8" serif:id="Output#output" transform="matrix(0.233336,0,0,0.175002,325.75,19.6545)">
                <rect x="53.94" y="106.916" width="161.978" height="161.978" style="fill:rgb(153,102,102);"/>
            </g>
            <g id="Strip-meter-58" serif:id="Strip#meter$5" transform="matrix(0.214021,0,0,0.0493894,374.152,50.4856)">
                <rect x="53.94" y="106.916" width="161.978" height="161.978" style="fill:rgb(153,102,102);"/>
            </g>
        </g>
        <g id="CV4" serif:id="CV" transform="matrix(0.75,0,0,1,-44.1572,138.758)">
            <g id="Output-output9" serif:id="Output#output" transform="matrix(0.233336,0,0,0.175002,273.765,18.6545)">
                <rect x="53.94" y="106.916" width="161.978" height="161.978" style="fill:rgb(77,77,77);"/>
            </g>
            <g id="Strip-meter-59" serif:id="Strip#meter$5" transform="matrix(0.214021,0,0,0.0493894,374.152,37.8454)">
                <rect x="53.94" y="106.916" width="161.978" height="161.978" style="fill:rgb(140,140,140);"/>
            </g>
        </g>
        <g transform="matrix(1,0,0,1,26.3497,75.2537)">
            <path d="M91.318,118.306L91.318,117.246L89.288,117.246L89.288,116.286L90.758,111.186L91.838,111.186L90.308,116.286L91.318,116.286L91.318,114.256L92.338,114.256L92.338,116.286L92.828,116.286L92.828,117.246L92.338,117.246L92.338,118.306L91.318,118.306Z" style="fill:white;fill-rule:nonzero;"/>
        </g>
        <g transform="matrix(1,0,0,1,26.3497,75.2537)">
            <text x="89.198px" y="118.306px" style="font-family:'DINCondensed-Bold', 'DIN Condensed';font-weight:700;font-stretch:condensed;font-size:10px;fill:white;">4</text>
        </g>
    </g>
    <g id="Channel3" transform="matrix(1,0,0,1,-106.078,-90.3103)">
        <g id="Gate5" serif:id="Gate" transform="matrix(1,0,0,1,21.2991,-0.592177)">
            <g id="BitOut1-output5" serif:id="BitOut1#output" transform="matrix(0.175002,0,0,0.175002,92.3402,157.412)">
                <rect x="53.94" y="106.916" width="161.978" height="161.978" style="fill:rgb(77,77,77);"/>
            </g>
            <g id="Status1-light5" serif:id="Status1#light" transform="matrix(1,0,0,1,97.9713,-145.565)">
                <circle cx="42.167" cy="335.861" r="3.82" style="fill:rgb(230,230,230);"/>
            </g>
        </g>
        <g id="Slider5" serif:id="Slider" transform="matrix(0.75,0,0,1,-44.1572,137.758)">
            <g id="Output-output10" serif:id="Output#output" transform="matrix(0.233336,0,0,0.175002,325.75,19.6545)">
                <rect x="53.94" y="106.916" width="161.978" height="161.978" style="fill:rgb(153,102,102);"/>
            </g>
            <g id="Strip-meter-510" serif:id="Strip#meter$5" transform="matrix(0.214021,0,0,0.0493894,374.152,50.4856)">
                <rect x="53.94" y="106.916" width="161.978" height="161.978" style="fill:rgb(153,102,102);"/>
            </g>
        </g>
        <g id="CV5" serif:id="CV" transform="matrix(0.75,0,0,1,-44.1572,138.758)">
            <g id="Output-output11" serif:id="Output#output" transform="matrix(0.233336,0,0,0.175002,273.765,18.6545)">
                <rect x="53.94" y="106.916" width="161.978" height="161.978" style="fill:rgb(77,77,77);"/>
            </g>
            <g id="Strip-meter-511" serif:id="Strip#meter$5" transform="matrix(0.214021,0,0,0.0493894,374.152,37.8454)">
                <rect x="53.94" y="106.916" width="161.978" height="161.978" style="fill:rgb(140,140,140);"/>
            </g>
        </g>
        <g transform="matrix(1,0,0,1,26.3497,75.2537)">
            <path d="M90.748,114.186C91.055,114.186 91.266,114.15 91.383,114.076C91.5,114.003 91.558,113.833 91.558,113.566L91.558,112.646C91.558,112.5 91.513,112.38 91.423,112.286C91.333,112.193 91.211,112.146 91.058,112.146C90.878,112.146 90.75,112.203 90.673,112.316C90.596,112.43 90.558,112.54 90.558,112.646L90.558,113.226L89.538,113.226L89.538,112.636C89.538,112.43 89.578,112.233 89.658,112.046C89.738,111.86 89.848,111.7 89.988,111.566C90.128,111.433 90.291,111.326 90.478,111.246C90.665,111.166 90.865,111.126 91.078,111.126C91.358,111.126 91.59,111.181 91.773,111.291C91.956,111.401 92.095,111.513 92.188,111.626C92.255,111.706 92.313,111.786 92.363,111.866C92.413,111.946 92.455,112.043 92.488,112.156C92.548,112.376 92.578,112.703 92.578,113.136C92.578,113.383 92.573,113.583 92.563,113.736C92.553,113.89 92.528,114.016 92.488,114.116C92.441,114.223 92.376,114.313 92.293,114.386C92.21,114.46 92.095,114.54 91.948,114.626C92.108,114.726 92.23,114.82 92.313,114.906C92.396,114.993 92.458,115.093 92.498,115.206C92.538,115.326 92.561,115.468 92.568,115.631C92.575,115.795 92.578,116.003 92.578,116.256C92.578,116.49 92.573,116.683 92.563,116.836C92.553,116.99 92.538,117.116 92.518,117.216C92.498,117.323 92.471,117.413 92.438,117.486C92.405,117.56 92.361,117.636 92.308,117.716C92.181,117.903 92.02,118.058 91.823,118.181C91.626,118.305 91.368,118.366 91.048,118.366C90.888,118.366 90.718,118.34 90.538,118.286C90.358,118.233 90.195,118.146 90.048,118.026C89.901,117.906 89.78,117.75 89.683,117.556C89.586,117.363 89.538,117.126 89.538,116.846L89.538,116.266L90.558,116.266L90.558,116.796C90.558,116.956 90.603,117.088 90.693,117.191C90.783,117.295 90.905,117.346 91.058,117.346C91.211,117.346 91.333,117.295 91.423,117.191C91.513,117.088 91.558,116.95 91.558,116.776L91.558,115.756C91.558,115.476 91.505,115.293 91.398,115.206C91.338,115.153 91.256,115.12 91.153,115.106C91.05,115.093 90.915,115.086 90.748,115.086L90.748,114.186Z" style="fill:white;fill-rule:nonzero;"/>
        </g>
        <g transform="matrix(1,0,0,1,26.3497,75.2537)">
            <text x="89.198px" y="118.306px" style="font-family:'DINCondensed-Bold', 'DIN Condensed';font-weight:700;font-stretch:condensed;font-size:10px;fill:white;">3</text>
        </g>
    </g>
    <g id="Channel2" transform="matrix(1,0,0,1,-106.078,-122.258)">
        <g id="Gate6" serif:id="Gate" transform="matrix(1,0,0,1,21.2991,-0.592177)">
            <g id="BitOut1-output6" serif:id="BitOut1#output" transform="matrix(0.175002,0,0,0.175002,92.3402,157.412)">
                <rect x="53.94" y="106.916" width="161.978" height="161.978" style="fill:rgb(77,77,77);"/>
            </g>
            <g id="Status1-light6" serif:id="Status1#light" transform="matrix(1,0,0,1,97.9713,-145.565)">
                <circle cx="42.167" cy="335.861" r="3.82" style="fill:rgb(230,230,230);"/>
            </g>
        </g>
        <g id="Slider6" serif:id="Slider" transform="matrix(0.75,0,0,1,-44.1572,137.758)">
            <g id="Output-output12" serif:id="Output#output" transform="matrix(0.233336,0,0,0.175002,325.75,19.6545)">
                <rect x="53.94" y="106.916" width="161.978" height="161.978" style="fill:rgb(153,102,102);"/>
            </g>
            <g id="Strip-meter-512" serif:id="Strip#meter$5" transform="matrix(0.214021,0,0,0.0493894,374.152,50.4856)">
                <rect x="53.94" y="106.916" width="161.978" height="161.978" style="fill:rgb(153,102,102);"/>
            </g>
        </g>
        <g id="CV6" serif:id="CV" transform="matrix(0.75,0,0,1,-44.1572,138.758)">
            <g id="Output-output13" serif:id="Output#output" transform="matrix(0.233336,0,0,0.175002,273.765,18.6545)">
                <rect x="53.94" y="106.916" width="161.978" height="161.978" style="fill:rgb(77,77,77);"/>
            </g>
            <g id="Strip-meter-513" serif:id="Strip#meter$5" transform="matrix(0.214021,0,0,0.0493894,374.152,37.8454)">
                <rect x="53.94" y="106.916" width="161.978" height="161.978" style="fill:rgb(140,140,140);"/>
            </g>
        </g>
        <g transform="matrix(1,0,0,1,26.3497,75.2537)">
            <path d="M89.538,118.306L89.538,117.346L91.378,113.876C91.471,113.703 91.525,113.551 91.538,113.421C91.551,113.291 91.558,113.13 91.558,112.936C91.558,112.85 91.556,112.758 91.553,112.661C91.55,112.565 91.531,112.48 91.498,112.406C91.465,112.333 91.415,112.271 91.348,112.221C91.281,112.171 91.185,112.146 91.058,112.146C90.905,112.146 90.783,112.19 90.693,112.276C90.603,112.363 90.558,112.49 90.558,112.656L90.558,113.236L89.538,113.236L89.538,112.676C89.538,112.463 89.578,112.263 89.658,112.076C89.738,111.89 89.848,111.726 89.988,111.586C90.121,111.446 90.281,111.335 90.468,111.251C90.655,111.168 90.855,111.126 91.068,111.126C91.335,111.126 91.563,111.175 91.753,111.271C91.943,111.368 92.101,111.5 92.228,111.666C92.348,111.833 92.436,112.023 92.493,112.236C92.55,112.45 92.578,112.676 92.578,112.916C92.578,113.09 92.575,113.235 92.568,113.351C92.561,113.468 92.548,113.58 92.528,113.686C92.508,113.793 92.475,113.9 92.428,114.006C92.381,114.113 92.318,114.243 92.238,114.396L90.738,117.286L92.578,117.286L92.578,118.306L89.538,118.306Z" style="fill:white;fill-rule:nonzero;"/>
        </g>
        <g transform="matrix(1,0,0,1,26.3497,75.2537)">
            <text x="89.198px" y="118.306px" style="font-family:'DINCondensed-Bold', 'DIN Condensed';font-weight:700;font-stretch:condensed;font-size:10px;fill:white;">2</text>
        </g>
    </g>
    <g id="Channel1" transform="matrix(1,0,0,1,-106.078,-154.206)">
        <g id="Gate7" serif:id="Gate" transform="matrix(1,0,0,1,21.2991,-0.592177)">
            <g id="BitOut1-output7" serif:id="BitOut1#output" transform="matrix(0.175002,0,0,0.175002,92.3402,157.412)">
                <rect x="53.94" y="106.916" width="161.978" height="161.978" style="fill:rgb(77,77,77);"/>
            </g>
            <g id="Status1-light7" serif:id="Status1#light" transform="matrix(1,0,0,1,97.9713,-145.565)">
                <circle cx="42.167" cy="335.861" r="3.82" style="fill:rgb(230,230,230);"/>
            </g>
        </g>
        <g id="Slider7" serif:id="Slider" transform="matrix(0.75,0,0,1,-44.1572,137.758)">
            <g id="Output-output14" serif:id="Output#output" transform="matrix(0.233336,0,0,0.175002,325.75,19.6545)">
                <rect x="53.94" y="106.916" width="161.978" height="161.978" style="fill:rgb(153,102,102);"/>
            </g>
            <g id="Strip-meter-514" serif:id="Strip#meter$5" transform="matrix(0.214021,0,0,0.0493894,374.152,50.4856)">
                <rect x="53.94" y="106.916" width="161.978" height="161.978" style="fill:rgb(153,102,102);"/>
            </g>
        </g>
        <g id="CV7" serif:id="CV" transform="matrix(0.75,0,0,1,-44.1572,138.758)">
            <g id="Output-output15" serif:id="Output#output" transform="matrix(0.233336,0,0,0.175002,273.765,18.6545)">
                <rect x="53.94" y="106.916" width="161.978" height="161.978" style="fill:rgb(77,77,77);"/>
            </g>
            <g id="Strip-meter-515" serif:id="Strip#meter$5" transform="matrix(0.214021,0,0,0.0493894,374.152,37.8454)">
                <rect x="53.94" y="106.916" width="161.978" height="161.978" style="fill:rgb(140,140,140);"/>
            </g>
        </g>
        <g transform="matrix(1,0,0,1,26.3497,75.2537)">
            <path d="M90.748,118.306L90.748,112.266L89.728,113.016L89.728,111.936L90.748,111.186L91.768,111.186L91.768,118.306L90.748,118.306Z" style="fill:white;fill-rule:nonzero;"/>
        </g>
        <g transform="matrix(1,0,0,1,26.3497,75.2537)">
            <text x="89.198px" y="118.306px" style="font-family:'DINCondensed-Bold', 'DIN Condensed';font-weight:700;font-stretch:condensed;font-size:10px;fill:white;">1</text>
        </g>
    </g>
    <g transform="matrix(1,0,0,1,-106.078,0)">
        <g transform="matrix(1,0,0,1,126.093,-101.186)">
            <path d="M91.468,114.656C91.461,114.483 91.406,114.353 91.303,114.266C91.2,114.18 91.081,114.136 90.948,114.136C90.788,114.136 90.665,114.188 90.578,114.291C90.491,114.395 90.448,114.513 90.448,114.646C90.448,114.74 90.471,114.831 90.518,114.921C90.565,115.011 90.685,115.093 90.878,115.166L91.478,115.406C91.858,115.553 92.12,115.753 92.263,116.006C92.406,116.26 92.478,116.536 92.478,116.836C92.478,117.05 92.44,117.248 92.363,117.431C92.286,117.615 92.181,117.776 92.048,117.916C91.915,118.056 91.755,118.166 91.568,118.246C91.381,118.326 91.178,118.366 90.958,118.366C90.545,118.366 90.198,118.236 89.918,117.976C89.778,117.85 89.665,117.691 89.578,117.501C89.491,117.311 89.445,117.09 89.438,116.836L90.398,116.836C90.418,116.976 90.466,117.106 90.543,117.226C90.62,117.346 90.755,117.406 90.948,117.406C91.095,117.406 91.226,117.358 91.343,117.261C91.46,117.165 91.518,117.03 91.518,116.856C91.518,116.716 91.481,116.596 91.408,116.496C91.335,116.396 91.201,116.31 91.008,116.236L90.518,116.056C90.198,115.936 89.946,115.758 89.763,115.521C89.58,115.285 89.488,114.996 89.488,114.656C89.488,114.443 89.528,114.245 89.608,114.061C89.688,113.878 89.798,113.72 89.938,113.586C90.071,113.453 90.228,113.351 90.408,113.281C90.588,113.211 90.781,113.176 90.988,113.176C91.195,113.176 91.386,113.213 91.563,113.286C91.74,113.36 91.891,113.463 92.018,113.596C92.145,113.73 92.245,113.888 92.318,114.071C92.391,114.255 92.428,114.45 92.428,114.656L91.468,114.656Z" style="fill:rgb(242,242,242);fill-rule:nonzero;"/>
            <path d="M93.078,111.186L94.098,111.186L94.098,116.876C94.098,117.07 94.133,117.201 94.203,117.271C94.273,117.341 94.405,117.386 94.598,117.406L94.598,118.366C94.365,118.366 94.155,118.348 93.968,118.311C93.781,118.275 93.621,118.203 93.488,118.096C93.355,117.996 93.253,117.855 93.183,117.671C93.113,117.488 93.078,117.246 93.078,116.946L93.078,111.186Z" style="fill:rgb(242,242,242);fill-rule:nonzero;"/>
            <path d="M94.998,118.306L94.998,113.236L96.018,113.236L96.018,118.306L94.998,118.306ZM94.998,112.206L94.998,111.186L96.018,111.186L96.018,112.206L94.998,112.206Z" style="fill:rgb(242,242,242);fill-rule:nonzero;"/>
            <path d="M97.878,116.656C97.878,116.863 97.918,117.03 97.998,117.156C98.078,117.283 98.205,117.346 98.378,117.346C98.531,117.346 98.655,117.288 98.748,117.171C98.841,117.055 98.888,116.903 98.888,116.716L98.888,114.746C98.888,114.586 98.84,114.455 98.743,114.351C98.646,114.248 98.525,114.196 98.378,114.196C98.185,114.196 98.053,114.256 97.983,114.376C97.913,114.496 97.878,114.636 97.878,114.796L97.878,116.656ZM98.888,118.306L98.888,117.846C98.821,117.92 98.758,117.988 98.698,118.051C98.638,118.115 98.571,118.17 98.498,118.216C98.425,118.263 98.341,118.3 98.248,118.326C98.155,118.353 98.045,118.366 97.918,118.366C97.491,118.366 97.195,118.206 97.028,117.886C96.968,117.773 96.925,117.633 96.898,117.466C96.871,117.3 96.858,117.076 96.858,116.796L96.858,114.866C96.858,114.5 96.868,114.23 96.888,114.056C96.928,113.723 97.085,113.473 97.358,113.306C97.485,113.22 97.675,113.176 97.928,113.176C98.128,113.176 98.306,113.221 98.463,113.311C98.62,113.401 98.755,113.53 98.868,113.696L98.888,113.696L98.888,111.186L99.908,111.186L99.908,118.306L98.888,118.306Z" style="fill:rgb(242,242,242);fill-rule:nonzero;"/>
            <path d="M103.698,116.156L101.678,116.156L101.678,116.846C101.678,117.006 101.723,117.13 101.813,117.216C101.903,117.303 102.025,117.346 102.178,117.346C102.371,117.346 102.5,117.29 102.563,117.176C102.626,117.063 102.665,116.95 102.678,116.836L103.698,116.836C103.698,117.283 103.561,117.643 103.288,117.916C103.155,118.056 102.995,118.166 102.808,118.246C102.621,118.326 102.411,118.366 102.178,118.366C101.858,118.366 101.586,118.3 101.363,118.166C101.14,118.033 100.968,117.856 100.848,117.636C100.775,117.503 100.725,117.35 100.698,117.176C100.671,117.003 100.658,116.813 100.658,116.606L100.658,114.936C100.658,114.73 100.671,114.54 100.698,114.366C100.725,114.193 100.775,114.04 100.848,113.906C100.968,113.686 101.14,113.51 101.363,113.376C101.586,113.243 101.858,113.176 102.178,113.176C102.411,113.176 102.623,113.216 102.813,113.296C103.003,113.376 103.165,113.486 103.298,113.626C103.565,113.926 103.698,114.303 103.698,114.756L103.698,116.156ZM101.678,115.356L102.678,115.356L102.678,114.776C102.678,114.583 102.633,114.438 102.543,114.341C102.453,114.245 102.331,114.196 102.178,114.196C102.025,114.196 101.903,114.245 101.813,114.341C101.723,114.438 101.678,114.583 101.678,114.776L101.678,115.356Z" style="fill:rgb(242,242,242);fill-rule:nonzero;"/>
            <path d="M104.448,118.306L104.448,113.236L105.468,113.236L105.468,113.776C105.675,113.59 105.878,113.443 106.078,113.336C106.278,113.23 106.525,113.176 106.818,113.176L106.818,114.256C106.718,114.216 106.615,114.196 106.508,114.196C106.401,114.196 106.286,114.215 106.163,114.251C106.04,114.288 105.928,114.35 105.828,114.436C105.721,114.523 105.635,114.636 105.568,114.776C105.501,114.916 105.468,115.09 105.468,115.296L105.468,118.306L104.448,118.306Z" style="fill:rgb(242,242,242);fill-rule:nonzero;"/>
        </g>
        <g transform="matrix(1,0,0,1,126.093,-101.186)">
            <text x="89.198px" y="118.306px" style="font-family:'DINCondensed-Bold', 'DIN Condensed';font-weight:700;font-stretch:condensed;font-size:10px;fill:rgb(242,242,242);">slider</text>
        </g>
        <g transform="matrix(1,0,0,1,92.1897,-101.186)">
            <path d="M90.698,116.846C90.698,117.006 90.743,117.13 90.833,117.216C90.923,117.303 91.045,117.346 91.198,117.346C91.391,117.346 91.52,117.29 91.583,117.176C91.646,117.063 91.685,116.95 91.698,116.836L92.718,116.836C92.718,117.283 92.581,117.643 92.308,117.916C92.175,118.056 92.015,118.166 91.828,118.246C91.641,118.326 91.431,118.366 91.198,118.366C90.878,118.366 90.606,118.3 90.383,118.166C90.16,118.033 89.988,117.856 89.868,117.636C89.795,117.503 89.745,117.35 89.718,117.176C89.691,117.003 89.678,116.813 89.678,116.606L89.678,114.936C89.678,114.73 89.691,114.54 89.718,114.366C89.745,114.193 89.795,114.04 89.868,113.906C89.988,113.686 90.16,113.51 90.383,113.376C90.606,113.243 90.878,113.176 91.198,113.176C91.431,113.176 91.643,113.216 91.833,113.296C92.023,113.376 92.185,113.486 92.318,113.626C92.585,113.926 92.718,114.316 92.718,114.796L91.698,114.796C91.698,114.59 91.653,114.438 91.563,114.341C91.473,114.245 91.351,114.196 91.198,114.196C91.045,114.196 90.923,114.245 90.833,114.341C90.743,114.438 90.698,114.583 90.698,114.776L90.698,116.846Z" style="fill:rgb(242,242,242);fill-rule:nonzero;"/>
            <path d="M96.428,113.236L95.108,118.306L94.208,118.306L92.888,113.236L93.968,113.236L94.648,116.476L94.668,116.476L95.348,113.236L96.428,113.236Z" style="fill:rgb(242,242,242);fill-rule:nonzero;"/>
        </g>
        <g transform="matrix(1,0,0,1,92.1897,-101.186)">
            <text x="89.198px" y="118.306px" style="font-family:'DINCondensed-Bold', 'DIN Condensed';font-weight:700;font-stretch:condensed;font-size:10px;fill:rgb(242,242,242);">cv</text>
        </g>
        <g transform="matrix(1,0,0,1,40.6166,-101.186)">
            <path d="M90.638,118.896C90.645,119.016 90.693,119.13 90.783,119.236C90.873,119.343 91.005,119.396 91.178,119.396C91.345,119.396 91.465,119.345 91.538,119.241C91.611,119.138 91.648,119.006 91.648,118.846L91.648,117.846L91.628,117.846C91.515,118.013 91.38,118.141 91.223,118.231C91.066,118.321 90.885,118.366 90.678,118.366C90.251,118.366 89.955,118.206 89.788,117.886C89.728,117.773 89.685,117.633 89.658,117.466C89.631,117.3 89.618,117.076 89.618,116.796L89.618,114.866C89.618,114.5 89.628,114.23 89.648,114.056C89.688,113.723 89.845,113.473 90.118,113.306C90.245,113.22 90.435,113.176 90.688,113.176C90.815,113.176 90.923,113.19 91.013,113.216C91.103,113.243 91.185,113.28 91.258,113.326C91.331,113.373 91.398,113.428 91.458,113.491C91.518,113.555 91.581,113.623 91.648,113.696L91.648,113.236L92.668,113.236L92.668,118.926C92.668,119.1 92.64,119.275 92.583,119.451C92.526,119.628 92.435,119.786 92.308,119.926C92.181,120.073 92.021,120.191 91.828,120.281C91.635,120.371 91.405,120.416 91.138,120.416C90.985,120.416 90.825,120.391 90.658,120.341C90.491,120.291 90.338,120.206 90.198,120.086C90.051,119.973 89.926,119.821 89.823,119.631C89.72,119.441 89.651,119.196 89.618,118.896L90.638,118.896ZM90.638,116.746C90.638,116.906 90.673,117.046 90.743,117.166C90.813,117.286 90.945,117.346 91.138,117.346C91.285,117.346 91.406,117.295 91.503,117.191C91.6,117.088 91.648,116.956 91.648,116.796L91.648,114.826C91.648,114.64 91.601,114.488 91.508,114.371C91.415,114.255 91.291,114.196 91.138,114.196C90.965,114.196 90.838,114.26 90.758,114.386C90.678,114.513 90.638,114.68 90.638,114.886L90.638,116.746Z" style="fill:rgb(242,242,242);fill-rule:nonzero;"/>
            <path d="M95.438,118.306L95.438,117.786L95.418,117.786C95.285,117.973 95.15,118.116 95.013,118.216C94.876,118.316 94.685,118.366 94.438,118.366C94.318,118.366 94.196,118.348 94.073,118.311C93.95,118.275 93.831,118.206 93.718,118.106C93.605,118.013 93.513,117.878 93.443,117.701C93.373,117.525 93.338,117.296 93.338,117.016C93.338,116.73 93.361,116.478 93.408,116.261C93.455,116.045 93.541,115.863 93.668,115.716C93.788,115.576 93.951,115.471 94.158,115.401C94.365,115.331 94.628,115.296 94.948,115.296L95.058,115.296C95.098,115.296 95.135,115.3 95.168,115.306C95.201,115.313 95.241,115.316 95.288,115.316C95.335,115.316 95.385,115.32 95.438,115.326L95.438,114.796C95.438,114.623 95.401,114.48 95.328,114.366C95.255,114.253 95.121,114.196 94.928,114.196C94.795,114.196 94.673,114.24 94.563,114.326C94.453,114.413 94.381,114.54 94.348,114.706L93.358,114.706C93.385,114.253 93.538,113.886 93.818,113.606C93.951,113.473 94.111,113.368 94.298,113.291C94.485,113.215 94.695,113.176 94.928,113.176C95.141,113.176 95.341,113.21 95.528,113.276C95.715,113.343 95.878,113.443 96.018,113.576C96.151,113.71 96.258,113.876 96.338,114.076C96.418,114.276 96.458,114.51 96.458,114.776L96.458,118.306L95.438,118.306ZM95.438,116.126C95.325,116.106 95.231,116.096 95.158,116.096C94.938,116.096 94.75,116.148 94.593,116.251C94.436,116.355 94.358,116.543 94.358,116.816C94.358,117.01 94.405,117.166 94.498,117.286C94.591,117.406 94.721,117.466 94.888,117.466C95.061,117.466 95.196,117.41 95.293,117.296C95.39,117.183 95.438,117.023 95.438,116.816L95.438,116.126Z" style="fill:rgb(242,242,242);fill-rule:nonzero;"/>
            <path d="M97.208,113.236L97.208,111.696L98.228,111.696L98.228,113.236L98.858,113.236L98.858,114.036L98.228,114.036L98.228,116.846C98.228,116.966 98.24,117.06 98.263,117.126C98.286,117.193 98.325,117.243 98.378,117.276C98.431,117.31 98.496,117.33 98.573,117.336C98.65,117.343 98.745,117.346 98.858,117.346L98.858,118.306L98.438,118.306C98.205,118.306 98.01,118.27 97.853,118.196C97.696,118.123 97.571,118.03 97.478,117.916C97.385,117.803 97.316,117.675 97.273,117.531C97.23,117.388 97.208,117.25 97.208,117.116L97.208,114.036L96.698,114.036L96.698,113.236L97.208,113.236Z" style="fill:rgb(242,242,242);fill-rule:nonzero;"/>
            <path d="M102.198,116.156L100.178,116.156L100.178,116.846C100.178,117.006 100.223,117.13 100.313,117.216C100.403,117.303 100.525,117.346 100.678,117.346C100.871,117.346 101,117.29 101.063,117.176C101.126,117.063 101.165,116.95 101.178,116.836L102.198,116.836C102.198,117.283 102.061,117.643 101.788,117.916C101.655,118.056 101.495,118.166 101.308,118.246C101.121,118.326 100.911,118.366 100.678,118.366C100.358,118.366 100.086,118.3 99.863,118.166C99.64,118.033 99.468,117.856 99.348,117.636C99.275,117.503 99.225,117.35 99.198,117.176C99.171,117.003 99.158,116.813 99.158,116.606L99.158,114.936C99.158,114.73 99.171,114.54 99.198,114.366C99.225,114.193 99.275,114.04 99.348,113.906C99.468,113.686 99.64,113.51 99.863,113.376C100.086,113.243 100.358,113.176 100.678,113.176C100.911,113.176 101.123,113.216 101.313,113.296C101.503,113.376 101.665,113.486 101.798,113.626C102.065,113.926 102.198,114.303 102.198,114.756L102.198,116.156ZM100.178,115.356L101.178,115.356L101.178,114.776C101.178,114.583 101.133,114.438 101.043,114.341C100.953,114.245 100.831,114.196 100.678,114.196C100.525,114.196 100.403,114.245 100.313,114.341C100.223,114.438 100.178,114.583 100.178,114.776L100.178,115.356Z" style="fill:rgb(242,242,242);fill-rule:nonzero;"/>
        </g>
        <g transform="matrix(1,0,0,1,40.6166,-101.186)">
            <text x="89.198px" y="118.306px" style="font-family:'DINCondensed-Bold', 'DIN Condensed';font-weight:700;font-stretch:condensed;font-size:10px;fill:rgb(242,242,242);">gate</text>
        </g>
    </g>
</svg>
