<?xml version="1.0" encoding="UTF-8" standalone="no"?>
<!DOCTYPE svg PUBLIC "-//W3C//DTD SVG 1.1//EN" "http://www.w3.org/Graphics/SVG/1.1/DTD/svg11.dtd">
<svg width="100%" height="100%" viewBox="0 0 150 380" version="1.1" xmlns="http://www.w3.org/2000/svg" xmlns:xlink="http://www.w3.org/1999/xlink" xml:space="preserve" xmlns:serif="http://www.serif.com/" style="fill-rule:evenodd;clip-rule:evenodd;stroke-linecap:round;stroke-linejoin:round;stroke-miterlimit:1.5;">
    <g transform="matrix(0.720851,0,0,2.01589,-37.8852,-120.797)">
        <rect x="52.556" y="59.922" width="208.087" height="188.503"/>
    </g>
    <g transform="matrix(1,0,0,1,-101.122,10.5752)">
        <g id="Clock-display-3" serif:id="Clock#display$3" transform="matrix(0.86967,0,0,0.846667,8.70305,86.4477)">
            <rect x="173.071" y="291.218" width="64.141" height="28.346" style="fill:rgb(13,13,13);"/>
        </g>
        <g id="Connect-ledbutton" serif:id="Connect#ledbutton" transform="matrix(0.174892,0,0,0.175002,191.402,278.619)">
            <rect x="53.94" y="106.916" width="161.978" height="161.978"/>
        </g>
        <g transform="matrix(1,0,0,1,111.158,174.078)">
            <path d="M90.698,116.846C90.698,117.006 90.743,117.13 90.833,117.216C90.923,117.303 91.045,117.346 91.198,117.346C91.391,117.346 91.52,117.29 91.583,117.176C91.646,117.063 91.685,116.95 91.698,116.836L92.718,116.836C92.718,117.283 92.581,117.643 92.308,117.916C92.175,118.056 92.015,118.166 91.828,118.246C91.641,118.326 91.431,118.366 91.198,118.366C90.878,118.366 90.606,118.3 90.383,118.166C90.16,118.033 89.988,117.856 89.868,117.636C89.795,117.503 89.745,117.35 89.718,117.176C89.691,117.003 89.678,116.813 89.678,116.606L89.678,114.936C89.678,114.73 89.691,114.54 89.718,114.366C89.745,114.193 89.795,114.04 89.868,113.906C89.988,113.686 90.16,113.51 90.383,113.376C90.606,113.243 90.878,113.176 91.198,113.176C91.431,113.176 91.643,113.216 91.833,113.296C92.023,113.376 92.185,113.486 92.318,113.626C92.585,113.926 92.718,114.316 92.718,114.796L91.698,114.796C91.698,114.59 91.653,114.438 91.563,114.341C91.473,114.245 91.351,114.196 91.198,114.196C91.045,114.196 90.923,114.245 90.833,114.341C90.743,114.438 90.698,114.583 90.698,114.776L90.698,116.846Z" style="fill:white;fill-rule:nonzero;"/>
            <path d="M93.228,114.936C93.228,114.73 93.241,114.54 93.268,114.366C93.295,114.193 93.345,114.04 93.418,113.906C93.538,113.686 93.71,113.51 93.933,113.376C94.156,113.243 94.428,113.176 94.748,113.176C95.068,113.176 95.34,113.243 95.563,113.376C95.786,113.51 95.958,113.686 96.078,113.906C96.151,114.04 96.201,114.193 96.228,114.366C96.255,114.54 96.268,114.73 96.268,114.936L96.268,116.606C96.268,116.813 96.255,117.003 96.228,117.176C96.201,117.35 96.151,117.503 96.078,117.636C95.958,117.856 95.786,118.033 95.563,118.166C95.34,118.3 95.068,118.366 94.748,118.366C94.428,118.366 94.156,118.3 93.933,118.166C93.71,118.033 93.538,117.856 93.418,117.636C93.345,117.503 93.295,117.35 93.268,117.176C93.241,117.003 93.228,116.813 93.228,116.606L93.228,114.936ZM94.248,116.766C94.248,116.96 94.293,117.105 94.383,117.201C94.473,117.298 94.595,117.346 94.748,117.346C94.901,117.346 95.023,117.298 95.113,117.201C95.203,117.105 95.248,116.96 95.248,116.766L95.248,114.776C95.248,114.583 95.203,114.438 95.113,114.341C95.023,114.245 94.901,114.196 94.748,114.196C94.595,114.196 94.473,114.245 94.383,114.341C94.293,114.438 94.248,114.583 94.248,114.776L94.248,116.766Z" style="fill:white;fill-rule:nonzero;"/>
            <path d="M97.018,118.306L97.018,113.236L98.038,113.236L98.038,113.726L98.058,113.726C98.165,113.566 98.293,113.435 98.443,113.331C98.593,113.228 98.785,113.176 99.018,113.176C99.145,113.176 99.271,113.198 99.398,113.241C99.525,113.285 99.638,113.356 99.738,113.456C99.838,113.556 99.918,113.685 99.978,113.841C100.038,113.998 100.068,114.19 100.068,114.416L100.068,118.306L99.048,118.306L99.048,114.796C99.048,114.61 99.005,114.463 98.918,114.356C98.831,114.25 98.708,114.196 98.548,114.196C98.355,114.196 98.221,114.256 98.148,114.376C98.075,114.496 98.038,114.67 98.038,114.896L98.038,118.306L97.018,118.306Z" style="fill:white;fill-rule:nonzero;"/>
            <path d="M100.908,118.306L100.908,113.236L101.928,113.236L101.928,113.726L101.948,113.726C102.055,113.566 102.183,113.435 102.333,113.331C102.483,113.228 102.675,113.176 102.908,113.176C103.035,113.176 103.161,113.198 103.288,113.241C103.415,113.285 103.528,113.356 103.628,113.456C103.728,113.556 103.808,113.685 103.868,113.841C103.928,113.998 103.958,114.19 103.958,114.416L103.958,118.306L102.938,118.306L102.938,114.796C102.938,114.61 102.895,114.463 102.808,114.356C102.721,114.25 102.598,114.196 102.438,114.196C102.245,114.196 102.111,114.256 102.038,114.376C101.965,114.496 101.928,114.67 101.928,114.896L101.928,118.306L100.908,118.306Z" style="fill:white;fill-rule:nonzero;"/>
            <path d="M107.748,116.156L105.728,116.156L105.728,116.846C105.728,117.006 105.773,117.13 105.863,117.216C105.953,117.303 106.075,117.346 106.228,117.346C106.421,117.346 106.55,117.29 106.613,117.176C106.676,117.063 106.715,116.95 106.728,116.836L107.748,116.836C107.748,117.283 107.611,117.643 107.338,117.916C107.205,118.056 107.045,118.166 106.858,118.246C106.671,118.326 106.461,118.366 106.228,118.366C105.908,118.366 105.636,118.3 105.413,118.166C105.19,118.033 105.018,117.856 104.898,117.636C104.825,117.503 104.775,117.35 104.748,117.176C104.721,117.003 104.708,116.813 104.708,116.606L104.708,114.936C104.708,114.73 104.721,114.54 104.748,114.366C104.775,114.193 104.825,114.04 104.898,113.906C105.018,113.686 105.19,113.51 105.413,113.376C105.636,113.243 105.908,113.176 106.228,113.176C106.461,113.176 106.673,113.216 106.863,113.296C107.053,113.376 107.215,113.486 107.348,113.626C107.615,113.926 107.748,114.303 107.748,114.756L107.748,116.156ZM105.728,115.356L106.728,115.356L106.728,114.776C106.728,114.583 106.683,114.438 106.593,114.341C106.503,114.245 106.381,114.196 106.228,114.196C106.075,114.196 105.953,114.245 105.863,114.341C105.773,114.438 105.728,114.583 105.728,114.776L105.728,115.356Z" style="fill:white;fill-rule:nonzero;"/>
            <path d="M109.578,116.846C109.578,117.006 109.623,117.13 109.713,117.216C109.803,117.303 109.925,117.346 110.078,117.346C110.271,117.346 110.4,117.29 110.463,117.176C110.526,117.063 110.565,116.95 110.578,116.836L111.598,116.836C111.598,117.283 111.461,117.643 111.188,117.916C111.055,118.056 110.895,118.166 110.708,118.246C110.521,118.326 110.311,118.366 110.078,118.366C109.758,118.366 109.486,118.3 109.263,118.166C109.04,118.033 108.868,117.856 108.748,117.636C108.675,117.503 108.625,117.35 108.598,117.176C108.571,117.003 108.558,116.813 108.558,116.606L108.558,114.936C108.558,114.73 108.571,114.54 108.598,114.366C108.625,114.193 108.675,114.04 108.748,113.906C108.868,113.686 109.04,113.51 109.263,113.376C109.486,113.243 109.758,113.176 110.078,113.176C110.311,113.176 110.523,113.216 110.713,113.296C110.903,113.376 111.065,113.486 111.198,113.626C111.465,113.926 111.598,114.316 111.598,114.796L110.578,114.796C110.578,114.59 110.533,114.438 110.443,114.341C110.353,114.245 110.231,114.196 110.078,114.196C109.925,114.196 109.803,114.245 109.713,114.341C109.623,114.438 109.578,114.583 109.578,114.776L109.578,116.846Z" style="fill:white;fill-rule:nonzero;"/>
            <path d="M112.198,113.236L112.198,111.696L113.218,111.696L113.218,113.236L113.848,113.236L113.848,114.036L113.218,114.036L113.218,116.846C113.218,116.966 113.23,117.06 113.253,117.126C113.276,117.193 113.315,117.243 113.368,117.276C113.421,117.31 113.486,117.33 113.563,117.336C113.64,117.343 113.735,117.346 113.848,117.346L113.848,118.306L113.428,118.306C113.195,118.306 113,118.27 112.843,118.196C112.686,118.123 112.561,118.03 112.468,117.916C112.375,117.803 112.306,117.675 112.263,117.531C112.22,117.388 112.198,117.25 112.198,117.116L112.198,114.036L111.688,114.036L111.688,113.236L112.198,113.236Z" style="fill:white;fill-rule:nonzero;"/>
        </g>
        <g transform="matrix(1,0,0,1,111.158,174.078)">
            <text x="89.198px" y="118.306px" style="font-family:'DINCondensed-Bold', 'DIN Condensed';font-weight:700;font-stretch:condensed;font-size:10px;fill:white;">connect</text>
        </g>
        <g id="Reset-output" serif:id="Reset#output" transform="matrix(0.175002,0,0,0.175002,148.809,278.505)">
            <rect x="53.94" y="106.916" width="161.978" height="161.978" style="fill:rgb(77,77,77);"/>
        </g>
        <g transform="matrix(1,0,0,1,75.1287,174.078)">
            <path d="M89.618,118.306L89.618,113.236L90.638,113.236L90.638,113.776C90.845,113.59 91.048,113.443 91.248,113.336C91.448,113.23 91.695,113.176 91.988,113.176L91.988,114.256C91.888,114.216 91.785,114.196 91.678,114.196C91.571,114.196 91.456,114.215 91.333,114.251C91.21,114.288 91.098,114.35 90.998,114.436C90.891,114.523 90.805,114.636 90.738,114.776C90.671,114.916 90.638,115.09 90.638,115.296L90.638,118.306L89.618,118.306Z" style="fill:rgb(242,242,242);fill-rule:nonzero;"/>
            <path d="M95.348,116.156L93.328,116.156L93.328,116.846C93.328,117.006 93.373,117.13 93.463,117.216C93.553,117.303 93.675,117.346 93.828,117.346C94.021,117.346 94.15,117.29 94.213,117.176C94.276,117.063 94.315,116.95 94.328,116.836L95.348,116.836C95.348,117.283 95.211,117.643 94.938,117.916C94.805,118.056 94.645,118.166 94.458,118.246C94.271,118.326 94.061,118.366 93.828,118.366C93.508,118.366 93.236,118.3 93.013,118.166C92.79,118.033 92.618,117.856 92.498,117.636C92.425,117.503 92.375,117.35 92.348,117.176C92.321,117.003 92.308,116.813 92.308,116.606L92.308,114.936C92.308,114.73 92.321,114.54 92.348,114.366C92.375,114.193 92.425,114.04 92.498,113.906C92.618,113.686 92.79,113.51 93.013,113.376C93.236,113.243 93.508,113.176 93.828,113.176C94.061,113.176 94.273,113.216 94.463,113.296C94.653,113.376 94.815,113.486 94.948,113.626C95.215,113.926 95.348,114.303 95.348,114.756L95.348,116.156ZM93.328,115.356L94.328,115.356L94.328,114.776C94.328,114.583 94.283,114.438 94.193,114.341C94.103,114.245 93.981,114.196 93.828,114.196C93.675,114.196 93.553,114.245 93.463,114.341C93.373,114.438 93.328,114.583 93.328,114.776L93.328,115.356Z" style="fill:rgb(242,242,242);fill-rule:nonzero;"/>
            <path d="M97.948,114.656C97.941,114.483 97.886,114.353 97.783,114.266C97.68,114.18 97.561,114.136 97.428,114.136C97.268,114.136 97.145,114.188 97.058,114.291C96.971,114.395 96.928,114.513 96.928,114.646C96.928,114.74 96.951,114.831 96.998,114.921C97.045,115.011 97.165,115.093 97.358,115.166L97.958,115.406C98.338,115.553 98.6,115.753 98.743,116.006C98.886,116.26 98.958,116.536 98.958,116.836C98.958,117.05 98.92,117.248 98.843,117.431C98.766,117.615 98.661,117.776 98.528,117.916C98.395,118.056 98.235,118.166 98.048,118.246C97.861,118.326 97.658,118.366 97.438,118.366C97.025,118.366 96.678,118.236 96.398,117.976C96.258,117.85 96.145,117.691 96.058,117.501C95.971,117.311 95.925,117.09 95.918,116.836L96.878,116.836C96.898,116.976 96.946,117.106 97.023,117.226C97.1,117.346 97.235,117.406 97.428,117.406C97.575,117.406 97.706,117.358 97.823,117.261C97.94,117.165 97.998,117.03 97.998,116.856C97.998,116.716 97.961,116.596 97.888,116.496C97.815,116.396 97.681,116.31 97.488,116.236L96.998,116.056C96.678,115.936 96.426,115.758 96.243,115.521C96.06,115.285 95.968,114.996 95.968,114.656C95.968,114.443 96.008,114.245 96.088,114.061C96.168,113.878 96.278,113.72 96.418,113.586C96.551,113.453 96.708,113.351 96.888,113.281C97.068,113.211 97.261,113.176 97.468,113.176C97.675,113.176 97.866,113.213 98.043,113.286C98.22,113.36 98.371,113.463 98.498,113.596C98.625,113.73 98.725,113.888 98.798,114.071C98.871,114.255 98.908,114.45 98.908,114.656L97.948,114.656Z" style="fill:rgb(242,242,242);fill-rule:nonzero;"/>
            <path d="M102.568,116.156L100.548,116.156L100.548,116.846C100.548,117.006 100.593,117.13 100.683,117.216C100.773,117.303 100.895,117.346 101.048,117.346C101.241,117.346 101.37,117.29 101.433,117.176C101.496,117.063 101.535,116.95 101.548,116.836L102.568,116.836C102.568,117.283 102.431,117.643 102.158,117.916C102.025,118.056 101.865,118.166 101.678,118.246C101.491,118.326 101.281,118.366 101.048,118.366C100.728,118.366 100.456,118.3 100.233,118.166C100.01,118.033 99.838,117.856 99.718,117.636C99.645,117.503 99.595,117.35 99.568,117.176C99.541,117.003 99.528,116.813 99.528,116.606L99.528,114.936C99.528,114.73 99.541,114.54 99.568,114.366C99.595,114.193 99.645,114.04 99.718,113.906C99.838,113.686 100.01,113.51 100.233,113.376C100.456,113.243 100.728,113.176 101.048,113.176C101.281,113.176 101.493,113.216 101.683,113.296C101.873,113.376 102.035,113.486 102.168,113.626C102.435,113.926 102.568,114.303 102.568,114.756L102.568,116.156ZM100.548,115.356L101.548,115.356L101.548,114.776C101.548,114.583 101.503,114.438 101.413,114.341C101.323,114.245 101.201,114.196 101.048,114.196C100.895,114.196 100.773,114.245 100.683,114.341C100.593,114.438 100.548,114.583 100.548,114.776L100.548,115.356Z" style="fill:rgb(242,242,242);fill-rule:nonzero;"/>
            <path d="M103.318,113.236L103.318,111.696L104.338,111.696L104.338,113.236L104.968,113.236L104.968,114.036L104.338,114.036L104.338,116.846C104.338,116.966 104.35,117.06 104.373,117.126C104.396,117.193 104.435,117.243 104.488,117.276C104.541,117.31 104.606,117.33 104.683,117.336C104.76,117.343 104.855,117.346 104.968,117.346L104.968,118.306L104.548,118.306C104.315,118.306 104.12,118.27 103.963,118.196C103.806,118.123 103.681,118.03 103.588,117.916C103.495,117.803 103.426,117.675 103.383,117.531C103.34,117.388 103.318,117.25 103.318,117.116L103.318,114.036L102.808,114.036L102.808,113.236L103.318,113.236Z" style="fill:rgb(242,242,242);fill-rule:nonzero;"/>
        </g>
        <g transform="matrix(1,0,0,1,75.1287,174.078)">
            <text x="89.198px" y="118.306px" style="font-family:'DINCondensed-Bold', 'DIN Condensed';font-weight:700;font-stretch:condensed;font-size:10px;fill:rgb(242,242,242);">reset</text>
        </g>
        <g id="Clock-output" serif:id="Clock#output" transform="matrix(0.175002,0,0,0.175002,113.639,312.136)">
            <rect x="53.94" y="106.916" width="161.978" height="161.978" style="fill:rgb(77,77,77);"/>
        </g>
        <g id="ClockOverride-input" serif:id="ClockOverride#input" transform="matrix(0.175002,0,0,0.175002,113.639,278.505)">
            <rect x="53.94" y="106.916" width="161.978" height="161.978" style="fill:rgb(217,217,217);"/>
        </g>
        <g transform="matrix(1,0,0,1,39.4743,174.588)">
            <path d="M90.698,116.846C90.698,117.006 90.743,117.13 90.833,117.216C90.923,117.303 91.045,117.346 91.198,117.346C91.391,117.346 91.52,117.29 91.583,117.176C91.646,117.063 91.685,116.95 91.698,116.836L92.718,116.836C92.718,117.283 92.581,117.643 92.308,117.916C92.175,118.056 92.015,118.166 91.828,118.246C91.641,118.326 91.431,118.366 91.198,118.366C90.878,118.366 90.606,118.3 90.383,118.166C90.16,118.033 89.988,117.856 89.868,117.636C89.795,117.503 89.745,117.35 89.718,117.176C89.691,117.003 89.678,116.813 89.678,116.606L89.678,114.936C89.678,114.73 89.691,114.54 89.718,114.366C89.745,114.193 89.795,114.04 89.868,113.906C89.988,113.686 90.16,113.51 90.383,113.376C90.606,113.243 90.878,113.176 91.198,113.176C91.431,113.176 91.643,113.216 91.833,113.296C92.023,113.376 92.185,113.486 92.318,113.626C92.585,113.926 92.718,114.316 92.718,114.796L91.698,114.796C91.698,114.59 91.653,114.438 91.563,114.341C91.473,114.245 91.351,114.196 91.198,114.196C91.045,114.196 90.923,114.245 90.833,114.341C90.743,114.438 90.698,114.583 90.698,114.776L90.698,116.846Z" style="fill:rgb(242,242,242);fill-rule:nonzero;"/>
            <path d="M93.138,111.186L94.158,111.186L94.158,116.876C94.158,117.07 94.193,117.201 94.263,117.271C94.333,117.341 94.465,117.386 94.658,117.406L94.658,118.366C94.425,118.366 94.215,118.348 94.028,118.311C93.841,118.275 93.681,118.203 93.548,118.096C93.415,117.996 93.313,117.855 93.243,117.671C93.173,117.488 93.138,117.246 93.138,116.946L93.138,111.186Z" style="fill:rgb(242,242,242);fill-rule:nonzero;"/>
            <path d="M94.968,114.936C94.968,114.73 94.981,114.54 95.008,114.366C95.035,114.193 95.085,114.04 95.158,113.906C95.278,113.686 95.45,113.51 95.673,113.376C95.896,113.243 96.168,113.176 96.488,113.176C96.808,113.176 97.08,113.243 97.303,113.376C97.526,113.51 97.698,113.686 97.818,113.906C97.891,114.04 97.941,114.193 97.968,114.366C97.995,114.54 98.008,114.73 98.008,114.936L98.008,116.606C98.008,116.813 97.995,117.003 97.968,117.176C97.941,117.35 97.891,117.503 97.818,117.636C97.698,117.856 97.526,118.033 97.303,118.166C97.08,118.3 96.808,118.366 96.488,118.366C96.168,118.366 95.896,118.3 95.673,118.166C95.45,118.033 95.278,117.856 95.158,117.636C95.085,117.503 95.035,117.35 95.008,117.176C94.981,117.003 94.968,116.813 94.968,116.606L94.968,114.936ZM95.988,116.766C95.988,116.96 96.033,117.105 96.123,117.201C96.213,117.298 96.335,117.346 96.488,117.346C96.641,117.346 96.763,117.298 96.853,117.201C96.943,117.105 96.988,116.96 96.988,116.766L96.988,114.776C96.988,114.583 96.943,114.438 96.853,114.341C96.763,114.245 96.641,114.196 96.488,114.196C96.335,114.196 96.213,114.245 96.123,114.341C96.033,114.438 95.988,114.583 95.988,114.776L95.988,116.766Z" style="fill:rgb(242,242,242);fill-rule:nonzero;"/>
            <path d="M99.838,116.846C99.838,117.006 99.883,117.13 99.973,117.216C100.063,117.303 100.185,117.346 100.338,117.346C100.531,117.346 100.66,117.29 100.723,117.176C100.786,117.063 100.825,116.95 100.838,116.836L101.858,116.836C101.858,117.283 101.721,117.643 101.448,117.916C101.315,118.056 101.155,118.166 100.968,118.246C100.781,118.326 100.571,118.366 100.338,118.366C100.018,118.366 99.746,118.3 99.523,118.166C99.3,118.033 99.128,117.856 99.008,117.636C98.935,117.503 98.885,117.35 98.858,117.176C98.831,117.003 98.818,116.813 98.818,116.606L98.818,114.936C98.818,114.73 98.831,114.54 98.858,114.366C98.885,114.193 98.935,114.04 99.008,113.906C99.128,113.686 99.3,113.51 99.523,113.376C99.746,113.243 100.018,113.176 100.338,113.176C100.571,113.176 100.783,113.216 100.973,113.296C101.163,113.376 101.325,113.486 101.458,113.626C101.725,113.926 101.858,114.316 101.858,114.796L100.838,114.796C100.838,114.59 100.793,114.438 100.703,114.341C100.613,114.245 100.491,114.196 100.338,114.196C100.185,114.196 100.063,114.245 99.973,114.341C99.883,114.438 99.838,114.583 99.838,114.776L99.838,116.846Z" style="fill:rgb(242,242,242);fill-rule:nonzero;"/>
            <path d="M102.338,118.306L102.338,111.186L103.358,111.186L103.358,115.446L103.378,115.446L104.608,113.236L105.628,113.236L104.418,115.296L105.878,118.306L104.768,118.306L103.848,116.116L103.358,116.886L103.358,118.306L102.338,118.306Z" style="fill:rgb(242,242,242);fill-rule:nonzero;"/>
        </g>
        <g transform="matrix(1,0,0,1,39.4743,174.588)">
            <text x="89.198px" y="118.306px" style="font-family:'DINCondensed-Bold', 'DIN Condensed';font-weight:700;font-stretch:condensed;font-size:10px;fill:rgb(242,242,242);">c<tspan x="92.778px 94.638px 98.338px 101.918px " y="118.306px 118.306px 118.306px 118.306px ">lock</tspan></text>
        </g>
    </g>
    <g id="Channel8" transform="matrix(1,0,0,1,-105.058,72.1595)">
        <g id="Gate" transform="matrix(1,0,0,1,21.2991,-0.592177)">
            <g id="BitOut1-output" serif:id="BitOut1#output" transform="matrix(0.175002,0,0,0.175002,92.3402,170.197)">
                <rect x="53.94" y="106.916" width="161.978" height="161.978" style="fill:rgb(77,77,77);"/>
            </g>
            <g id="Status1-light" serif:id="Status1#light" transform="matrix(1,0,0,1,94.9713,-132.781)">
                <circle cx="42.167" cy="335.861" r="3.82" style="fill:rgb(230,230,230);"/>
            </g>
        </g>
        <g id="Slider" transform="matrix(0.75,0,0,1,-55.1572,137.758)">
            <g id="Output-output" serif:id="Output#output" transform="matrix(0.233336,0,0,0.175002,335.315,31.8465)">
                <rect x="53.94" y="106.916" width="161.978" height="161.978" style="fill:rgb(153,102,102);"/>
            </g>
            <g id="Strip-meter-5" serif:id="Strip#meter$5" transform="matrix(0.0493894,-1.88741e-32,1.54074e-33,0.160516,386.558,34.5685)">
                <rect x="53.94" y="106.916" width="161.978" height="161.978"/>
            </g>
        </g>
        <g id="CV" transform="matrix(0.75,0,0,1,-50.1572,138.758)">
            <g id="Output-output1" serif:id="Output#output" transform="matrix(0.233336,0,0,0.175002,273.765,30.8465)">
                <rect x="53.94" y="106.916" width="161.978" height="161.978" style="fill:rgb(77,77,77);"/>
            </g>
            <g id="Strip-meter-51" serif:id="Strip#meter$5" transform="matrix(0.0493894,-5.00742e-33,-3.55556e-34,0.160516,325.005,33.5685)">
                <rect x="53.94" y="106.916" width="161.978" height="161.978"/>
            </g>
        </g>
        <g transform="matrix(1,0,0,1,26.3497,87.7418)">
            <path d="M91.558,112.646C91.558,112.506 91.508,112.388 91.408,112.291C91.308,112.195 91.191,112.146 91.058,112.146C90.925,112.146 90.808,112.195 90.708,112.291C90.608,112.388 90.558,112.506 90.558,112.646L90.558,113.686C90.558,113.826 90.608,113.945 90.708,114.041C90.808,114.138 90.925,114.186 91.058,114.186C91.191,114.186 91.308,114.138 91.408,114.041C91.508,113.945 91.558,113.826 91.558,113.686L91.558,112.646ZM89.538,113.046C89.538,112.853 89.545,112.688 89.558,112.551C89.571,112.415 89.595,112.296 89.628,112.196C89.661,112.096 89.7,112.006 89.743,111.926C89.786,111.846 89.841,111.763 89.908,111.676C90.041,111.503 90.208,111.368 90.408,111.271C90.608,111.175 90.825,111.126 91.058,111.126C91.291,111.126 91.508,111.175 91.708,111.271C91.908,111.368 92.075,111.503 92.208,111.676C92.275,111.763 92.331,111.846 92.378,111.926C92.425,112.006 92.465,112.096 92.498,112.196C92.531,112.296 92.553,112.415 92.563,112.551C92.573,112.688 92.578,112.853 92.578,113.046C92.578,113.26 92.575,113.44 92.568,113.586C92.561,113.733 92.541,113.863 92.508,113.976C92.475,114.09 92.423,114.191 92.353,114.281C92.283,114.371 92.188,114.466 92.068,114.566C92.188,114.66 92.283,114.753 92.353,114.846C92.423,114.94 92.475,115.05 92.508,115.176C92.541,115.303 92.561,115.458 92.568,115.641C92.575,115.825 92.578,116.05 92.578,116.316C92.578,116.536 92.573,116.718 92.563,116.861C92.553,117.005 92.538,117.13 92.518,117.236C92.498,117.343 92.47,117.433 92.433,117.506C92.396,117.58 92.351,117.656 92.298,117.736C92.185,117.91 92.025,118.058 91.818,118.181C91.611,118.305 91.358,118.366 91.058,118.366C90.758,118.366 90.505,118.305 90.298,118.181C90.091,118.058 89.931,117.91 89.818,117.736C89.765,117.656 89.72,117.58 89.683,117.506C89.646,117.433 89.618,117.343 89.598,117.236C89.578,117.13 89.563,117.005 89.553,116.861C89.543,116.718 89.538,116.536 89.538,116.316C89.538,116.05 89.541,115.825 89.548,115.641C89.555,115.458 89.575,115.303 89.608,115.176C89.641,115.05 89.693,114.94 89.763,114.846C89.833,114.753 89.928,114.66 90.048,114.566C89.928,114.466 89.833,114.371 89.763,114.281C89.693,114.191 89.641,114.09 89.608,113.976C89.575,113.863 89.555,113.733 89.548,113.586C89.541,113.44 89.538,113.26 89.538,113.046ZM91.558,115.446C91.558,115.306 91.508,115.188 91.408,115.091C91.308,114.995 91.191,114.946 91.058,114.946C90.925,114.946 90.808,114.995 90.708,115.091C90.608,115.188 90.558,115.306 90.558,115.446L90.558,116.846C90.558,116.986 90.608,117.105 90.708,117.201C90.808,117.298 90.925,117.346 91.058,117.346C91.191,117.346 91.308,117.298 91.408,117.201C91.508,117.105 91.558,116.986 91.558,116.846L91.558,115.446Z" style="fill:white;fill-rule:nonzero;"/>
        </g>
        <g transform="matrix(1,0,0,1,26.3497,87.7418)">
            <text x="89.198px" y="118.306px" style="font-family:'DINCondensed-Bold', 'DIN Condensed';font-weight:700;font-stretch:condensed;font-size:10px;fill:white;">8</text>
        </g>
    </g>
    <g id="Channel7" transform="matrix(1,0,0,1,-104.418,40.3574)">
        <g id="Gate1" serif:id="Gate" transform="matrix(1,0,0,1,21.2991,-0.592177)">
            <g id="BitOut1-output1" serif:id="BitOut1#output" transform="matrix(0.175002,0,0,0.175002,92.3402,170.197)">
                <rect x="53.94" y="106.916" width="161.978" height="161.978" style="fill:rgb(77,77,77);"/>
            </g>
            <g id="Status1-light1" serif:id="Status1#light" transform="matrix(1,0,0,1,94.9713,-132.781)">
                <circle cx="42.167" cy="335.861" r="3.82" style="fill:rgb(230,230,230);"/>
            </g>
        </g>
        <g id="Slider1" serif:id="Slider" transform="matrix(0.75,0,0,1,-55.1572,137.758)">
            <g id="Output-output2" serif:id="Output#output" transform="matrix(0.233336,0,0,0.175002,335.315,31.8465)">
                <rect x="53.94" y="106.916" width="161.978" height="161.978" style="fill:rgb(153,102,102);"/>
            </g>
            <g id="Strip-meter-52" serif:id="Strip#meter$5" transform="matrix(0.0493894,-1.88741e-32,1.54074e-33,0.160516,386.558,34.5685)">
                <rect x="53.94" y="106.916" width="161.978" height="161.978"/>
            </g>
        </g>
        <g id="CV1" serif:id="CV" transform="matrix(0.75,0,0,1,-50.1572,138.758)">
            <g id="Output-output3" serif:id="Output#output" transform="matrix(0.233336,0,0,0.175002,273.765,30.8465)">
                <rect x="53.94" y="106.916" width="161.978" height="161.978" style="fill:rgb(77,77,77);"/>
            </g>
            <g id="Strip-meter-53" serif:id="Strip#meter$5" transform="matrix(0.0493894,-5.00742e-33,-3.55556e-34,0.160516,325.005,33.5685)">
                <rect x="53.94" y="106.916" width="161.978" height="161.978"/>
            </g>
        </g>
        <g transform="matrix(1,0,0,1,26.3497,87.7418)">
            <path d="M89.768,118.306L91.558,112.146L90.438,112.146L90.438,112.966L89.538,112.966L89.538,111.186L92.578,111.186L92.578,112.206L90.848,118.306L89.768,118.306Z" style="fill:white;fill-rule:nonzero;"/>
        </g>
        <g transform="matrix(1,0,0,1,26.3497,87.7418)">
            <text x="89.198px" y="118.306px" style="font-family:'DINCondensed-Bold', 'DIN Condensed';font-weight:700;font-stretch:condensed;font-size:10px;fill:white;">7</text>
        </g>
    </g>
    <g id="Channel6" transform="matrix(1,0,0,1,-104.418,8.55531)">
        <g id="Gate2" serif:id="Gate" transform="matrix(1,0,0,1,21.2991,-0.592177)">
            <g id="BitOut1-output2" serif:id="BitOut1#output" transform="matrix(0.175002,0,0,0.175002,92.3402,170.197)">
                <rect x="53.94" y="106.916" width="161.978" height="161.978" style="fill:rgb(77,77,77);"/>
            </g>
            <g id="Status1-light2" serif:id="Status1#light" transform="matrix(1,0,0,1,94.9713,-132.781)">
                <circle cx="42.167" cy="335.861" r="3.82" style="fill:rgb(230,230,230);"/>
            </g>
        </g>
        <g id="Slider2" serif:id="Slider" transform="matrix(0.75,0,0,1,-55.1572,137.758)">
            <g id="Output-output4" serif:id="Output#output" transform="matrix(0.233336,0,0,0.175002,335.315,31.8465)">
                <rect x="53.94" y="106.916" width="161.978" height="161.978" style="fill:rgb(153,102,102);"/>
            </g>
            <g id="Strip-meter-54" serif:id="Strip#meter$5" transform="matrix(0.0493894,-1.88741e-32,1.54074e-33,0.160516,386.558,34.5685)">
                <rect x="53.94" y="106.916" width="161.978" height="161.978"/>
            </g>
        </g>
        <g id="CV2" serif:id="CV" transform="matrix(0.75,0,0,1,-50.1572,138.758)">
            <g id="Output-output5" serif:id="Output#output" transform="matrix(0.233336,0,0,0.175002,273.765,30.8465)">
                <rect x="53.94" y="106.916" width="161.978" height="161.978" style="fill:rgb(77,77,77);"/>
            </g>
            <g id="Strip-meter-55" serif:id="Strip#meter$5" transform="matrix(0.0493894,-5.00742e-33,-3.55556e-34,0.160516,325.005,33.5685)">
                <rect x="53.94" y="106.916" width="161.978" height="161.978"/>
            </g>
        </g>
        <g transform="matrix(1,0,0,1,26.3497,87.7418)">
            <path d="M92.208,111.186L91.048,114.176L91.068,114.196C91.101,114.17 91.153,114.148 91.223,114.131C91.293,114.115 91.385,114.106 91.498,114.106C91.678,114.106 91.845,114.15 91.998,114.236C92.151,114.323 92.271,114.433 92.358,114.566C92.405,114.64 92.441,114.713 92.468,114.786C92.495,114.86 92.518,114.956 92.538,115.076C92.551,115.196 92.561,115.348 92.568,115.531C92.575,115.715 92.578,115.946 92.578,116.226C92.578,116.46 92.575,116.651 92.568,116.801C92.561,116.951 92.551,117.076 92.538,117.176C92.518,117.283 92.493,117.373 92.463,117.446C92.433,117.52 92.395,117.596 92.348,117.676C92.215,117.896 92.036,118.066 91.813,118.186C91.59,118.306 91.338,118.366 91.058,118.366C90.778,118.366 90.528,118.305 90.308,118.181C90.088,118.058 89.911,117.89 89.778,117.676C89.725,117.596 89.683,117.52 89.653,117.446C89.623,117.373 89.601,117.283 89.588,117.176C89.568,117.076 89.555,116.951 89.548,116.801C89.541,116.651 89.538,116.46 89.538,116.226C89.538,116.006 89.541,115.825 89.548,115.681C89.555,115.538 89.565,115.413 89.578,115.306C89.591,115.206 89.611,115.115 89.638,115.031C89.665,114.948 89.695,114.86 89.728,114.766L91.068,111.186L92.208,111.186ZM91.558,115.516C91.558,115.363 91.508,115.24 91.408,115.146C91.308,115.053 91.191,115.006 91.058,115.006C90.925,115.006 90.808,115.053 90.708,115.146C90.608,115.24 90.558,115.363 90.558,115.516L90.558,116.836C90.558,116.99 90.608,117.113 90.708,117.206C90.808,117.3 90.925,117.346 91.058,117.346C91.191,117.346 91.308,117.3 91.408,117.206C91.508,117.113 91.558,116.99 91.558,116.836L91.558,115.516Z" style="fill:white;fill-rule:nonzero;"/>
        </g>
        <g transform="matrix(1,0,0,1,26.3497,87.7418)">
            <text x="89.198px" y="118.306px" style="font-family:'DINCondensed-Bold', 'DIN Condensed';font-weight:700;font-stretch:condensed;font-size:10px;fill:white;">6</text>
        </g>
    </g>
    <g id="Channel5" transform="matrix(1,0,0,1,-104.418,-23.2468)">
        <g id="Gate3" serif:id="Gate" transform="matrix(1,0,0,1,21.2991,-0.592177)">
            <g id="BitOut1-output3" serif:id="BitOut1#output" transform="matrix(0.175002,0,0,0.175002,92.3402,170.197)">
                <rect x="53.94" y="106.916" width="161.978" height="161.978" style="fill:rgb(77,77,77);"/>
            </g>
            <g id="Status1-light3" serif:id="Status1#light" transform="matrix(1,0,0,1,94.9713,-132.781)">
                <circle cx="42.167" cy="335.861" r="3.82" style="fill:rgb(230,230,230);"/>
            </g>
        </g>
        <g id="Slider3" serif:id="Slider" transform="matrix(0.75,0,0,1,-55.1572,137.758)">
            <g id="Output-output6" serif:id="Output#output" transform="matrix(0.233336,0,0,0.175002,335.315,31.8465)">
                <rect x="53.94" y="106.916" width="161.978" height="161.978" style="fill:rgb(153,102,102);"/>
            </g>
            <g id="Strip-meter-56" serif:id="Strip#meter$5" transform="matrix(0.0493894,-1.88741e-32,1.54074e-33,0.160516,386.558,34.5685)">
                <rect x="53.94" y="106.916" width="161.978" height="161.978"/>
            </g>
        </g>
        <g id="CV3" serif:id="CV" transform="matrix(0.75,0,0,1,-50.1572,138.758)">
            <g id="Output-output7" serif:id="Output#output" transform="matrix(0.233336,0,0,0.175002,273.765,30.8465)">
                <rect x="53.94" y="106.916" width="161.978" height="161.978" style="fill:rgb(77,77,77);"/>
            </g>
            <g id="Strip-meter-57" serif:id="Strip#meter$5" transform="matrix(0.0493894,-5.00742e-33,-3.55556e-34,0.160516,325.005,33.5685)">
                <rect x="53.94" y="106.916" width="161.978" height="161.978"/>
            </g>
        </g>
        <g transform="matrix(1,0,0,1,26.3497,87.7418)">
            <path d="M92.578,111.186L92.578,112.146L90.558,112.146L90.558,114.066C90.651,113.973 90.771,113.895 90.918,113.831C91.065,113.768 91.228,113.736 91.408,113.736C91.755,113.736 92.036,113.841 92.253,114.051C92.47,114.261 92.578,114.576 92.578,114.996L92.578,116.836C92.578,117.076 92.536,117.29 92.453,117.476C92.37,117.663 92.258,117.823 92.118,117.956C91.978,118.09 91.816,118.191 91.633,118.261C91.45,118.331 91.258,118.366 91.058,118.366C90.858,118.366 90.666,118.331 90.483,118.261C90.3,118.191 90.138,118.09 89.998,117.956C89.858,117.823 89.746,117.663 89.663,117.476C89.58,117.29 89.538,117.076 89.538,116.836L89.538,116.536L90.558,116.536L90.558,116.796C90.558,116.97 90.606,117.105 90.703,117.201C90.8,117.298 90.925,117.346 91.078,117.346C91.231,117.346 91.35,117.3 91.433,117.206C91.516,117.113 91.558,116.983 91.558,116.816L91.558,115.146C91.558,115.006 91.513,114.886 91.423,114.786C91.333,114.686 91.218,114.636 91.078,114.636C90.991,114.636 90.918,114.651 90.858,114.681C90.798,114.711 90.748,114.746 90.708,114.786C90.668,114.826 90.638,114.87 90.618,114.916C90.585,114.976 90.565,115.013 90.558,115.026L89.658,115.026L89.658,111.186L92.578,111.186Z" style="fill:white;fill-rule:nonzero;"/>
        </g>
        <g transform="matrix(1,0,0,1,26.3497,87.7418)">
            <text x="89.198px" y="118.306px" style="font-family:'DINCondensed-Bold', 'DIN Condensed';font-weight:700;font-stretch:condensed;font-size:10px;fill:white;">5</text>
        </g>
    </g>
    <g id="Channel4" transform="matrix(1,0,0,1,-104.418,-55.0489)">
        <g id="Gate4" serif:id="Gate" transform="matrix(1,0,0,1,21.2991,-0.592177)">
            <g id="BitOut1-output4" serif:id="BitOut1#output" transform="matrix(0.175002,0,0,0.175002,92.3402,170.197)">
                <rect x="53.94" y="106.916" width="161.978" height="161.978" style="fill:rgb(77,77,77);"/>
            </g>
            <g id="Status1-light4" serif:id="Status1#light" transform="matrix(1,0,0,1,94.9713,-132.781)">
                <circle cx="42.167" cy="335.861" r="3.82" style="fill:rgb(230,230,230);"/>
            </g>
        </g>
        <g id="Slider4" serif:id="Slider" transform="matrix(0.75,0,0,1,-55.1572,137.758)">
            <g id="Output-output8" serif:id="Output#output" transform="matrix(0.233336,0,0,0.175002,335.315,31.8465)">
                <rect x="53.94" y="106.916" width="161.978" height="161.978" style="fill:rgb(153,102,102);"/>
            </g>
            <g id="Strip-meter-58" serif:id="Strip#meter$5" transform="matrix(0.0493894,-1.88741e-32,1.54074e-33,0.160516,386.558,34.5685)">
                <rect x="53.94" y="106.916" width="161.978" height="161.978"/>
            </g>
        </g>
        <g id="CV4" serif:id="CV" transform="matrix(0.75,0,0,1,-50.1572,138.758)">
            <g id="Output-output9" serif:id="Output#output" transform="matrix(0.233336,0,0,0.175002,273.765,30.8465)">
                <rect x="53.94" y="106.916" width="161.978" height="161.978" style="fill:rgb(77,77,77);"/>
            </g>
            <g id="Strip-meter-59" serif:id="Strip#meter$5" transform="matrix(0.0493894,-5.00742e-33,-3.55556e-34,0.160516,325.005,33.5685)">
                <rect x="53.94" y="106.916" width="161.978" height="161.978"/>
            </g>
        </g>
        <g transform="matrix(1,0,0,1,26.3497,87.7418)">
            <path d="M91.318,118.306L91.318,117.246L89.288,117.246L89.288,116.286L90.758,111.186L91.838,111.186L90.308,116.286L91.318,116.286L91.318,114.256L92.338,114.256L92.338,116.286L92.828,116.286L92.828,117.246L92.338,117.246L92.338,118.306L91.318,118.306Z" style="fill:white;fill-rule:nonzero;"/>
        </g>
        <g transform="matrix(1,0,0,1,26.3497,87.7418)">
            <text x="89.198px" y="118.306px" style="font-family:'DINCondensed-Bold', 'DIN Condensed';font-weight:700;font-stretch:condensed;font-size:10px;fill:white;">4</text>
        </g>
    </g>
    <g id="Channel3" transform="matrix(1,0,0,1,-104.418,-86.851)">
        <g id="Gate5" serif:id="Gate" transform="matrix(1,0,0,1,21.2991,-0.592177)">
            <g id="BitOut1-output5" serif:id="BitOut1#output" transform="matrix(0.175002,0,0,0.175002,92.3402,170.197)">
                <rect x="53.94" y="106.916" width="161.978" height="161.978" style="fill:rgb(77,77,77);"/>
            </g>
            <g id="Status1-light5" serif:id="Status1#light" transform="matrix(1,0,0,1,94.9713,-132.781)">
                <circle cx="42.167" cy="335.861" r="3.82" style="fill:rgb(230,230,230);"/>
            </g>
        </g>
        <g id="Slider5" serif:id="Slider" transform="matrix(0.75,0,0,1,-55.1572,137.758)">
            <g id="Output-output10" serif:id="Output#output" transform="matrix(0.233336,0,0,0.175002,335.315,31.8465)">
                <rect x="53.94" y="106.916" width="161.978" height="161.978" style="fill:rgb(153,102,102);"/>
            </g>
            <g id="Strip-meter-510" serif:id="Strip#meter$5" transform="matrix(0.0493894,-1.88741e-32,1.54074e-33,0.160516,386.558,34.5685)">
                <rect x="53.94" y="106.916" width="161.978" height="161.978"/>
            </g>
        </g>
        <g id="CV5" serif:id="CV" transform="matrix(0.75,0,0,1,-50.1572,138.758)">
            <g id="Output-output11" serif:id="Output#output" transform="matrix(0.233336,0,0,0.175002,273.765,30.8465)">
                <rect x="53.94" y="106.916" width="161.978" height="161.978" style="fill:rgb(77,77,77);"/>
            </g>
            <g id="Strip-meter-511" serif:id="Strip#meter$5" transform="matrix(0.0493894,-5.00742e-33,-3.55556e-34,0.160516,325.005,33.5685)">
                <rect x="53.94" y="106.916" width="161.978" height="161.978"/>
            </g>
        </g>
        <g transform="matrix(1,0,0,1,26.3497,87.7418)">
            <path d="M90.748,114.186C91.055,114.186 91.266,114.15 91.383,114.076C91.5,114.003 91.558,113.833 91.558,113.566L91.558,112.646C91.558,112.5 91.513,112.38 91.423,112.286C91.333,112.193 91.211,112.146 91.058,112.146C90.878,112.146 90.75,112.203 90.673,112.316C90.596,112.43 90.558,112.54 90.558,112.646L90.558,113.226L89.538,113.226L89.538,112.636C89.538,112.43 89.578,112.233 89.658,112.046C89.738,111.86 89.848,111.7 89.988,111.566C90.128,111.433 90.291,111.326 90.478,111.246C90.665,111.166 90.865,111.126 91.078,111.126C91.358,111.126 91.59,111.181 91.773,111.291C91.956,111.401 92.095,111.513 92.188,111.626C92.255,111.706 92.313,111.786 92.363,111.866C92.413,111.946 92.455,112.043 92.488,112.156C92.548,112.376 92.578,112.703 92.578,113.136C92.578,113.383 92.573,113.583 92.563,113.736C92.553,113.89 92.528,114.016 92.488,114.116C92.441,114.223 92.376,114.313 92.293,114.386C92.21,114.46 92.095,114.54 91.948,114.626C92.108,114.726 92.23,114.82 92.313,114.906C92.396,114.993 92.458,115.093 92.498,115.206C92.538,115.326 92.561,115.468 92.568,115.631C92.575,115.795 92.578,116.003 92.578,116.256C92.578,116.49 92.573,116.683 92.563,116.836C92.553,116.99 92.538,117.116 92.518,117.216C92.498,117.323 92.471,117.413 92.438,117.486C92.405,117.56 92.361,117.636 92.308,117.716C92.181,117.903 92.02,118.058 91.823,118.181C91.626,118.305 91.368,118.366 91.048,118.366C90.888,118.366 90.718,118.34 90.538,118.286C90.358,118.233 90.195,118.146 90.048,118.026C89.901,117.906 89.78,117.75 89.683,117.556C89.586,117.363 89.538,117.126 89.538,116.846L89.538,116.266L90.558,116.266L90.558,116.796C90.558,116.956 90.603,117.088 90.693,117.191C90.783,117.295 90.905,117.346 91.058,117.346C91.211,117.346 91.333,117.295 91.423,117.191C91.513,117.088 91.558,116.95 91.558,116.776L91.558,115.756C91.558,115.476 91.505,115.293 91.398,115.206C91.338,115.153 91.256,115.12 91.153,115.106C91.05,115.093 90.915,115.086 90.748,115.086L90.748,114.186Z" style="fill:white;fill-rule:nonzero;"/>
        </g>
        <g transform="matrix(1,0,0,1,26.3497,87.7418)">
            <text x="89.198px" y="118.306px" style="font-family:'DINCondensed-Bold', 'DIN Condensed';font-weight:700;font-stretch:condensed;font-size:10px;fill:white;">3</text>
        </g>
    </g>
    <g id="Channel2" transform="matrix(1,0,0,1,-104.418,-118.653)">
        <g id="Gate6" serif:id="Gate" transform="matrix(1,0,0,1,21.2991,-0.592177)">
            <g id="BitOut1-output6" serif:id="BitOut1#output" transform="matrix(0.175002,0,0,0.175002,92.3402,170.197)">
                <rect x="53.94" y="106.916" width="161.978" height="161.978" style="fill:rgb(77,77,77);"/>
            </g>
            <g id="Status1-light6" serif:id="Status1#light" transform="matrix(1,0,0,1,94.9713,-132.781)">
                <circle cx="42.167" cy="335.861" r="3.82" style="fill:rgb(230,230,230);"/>
            </g>
        </g>
        <g id="Slider6" serif:id="Slider" transform="matrix(0.75,0,0,1,-55.1572,137.758)">
            <g id="Output-output12" serif:id="Output#output" transform="matrix(0.233336,0,0,0.175002,335.315,31.8465)">
                <rect x="53.94" y="106.916" width="161.978" height="161.978" style="fill:rgb(153,102,102);"/>
            </g>
            <g id="Strip-meter-512" serif:id="Strip#meter$5" transform="matrix(0.0493894,-1.88741e-32,1.54074e-33,0.160516,386.558,34.5685)">
                <rect x="53.94" y="106.916" width="161.978" height="161.978"/>
            </g>
        </g>
        <g id="CV6" serif:id="CV" transform="matrix(0.75,0,0,1,-50.1572,138.758)">
            <g id="Output-output13" serif:id="Output#output" transform="matrix(0.233336,0,0,0.175002,273.765,30.8465)">
                <rect x="53.94" y="106.916" width="161.978" height="161.978" style="fill:rgb(77,77,77);"/>
            </g>
            <g id="Strip-meter-513" serif:id="Strip#meter$5" transform="matrix(0.0493894,-5.00742e-33,-3.55556e-34,0.160516,325.005,33.5685)">
                <rect x="53.94" y="106.916" width="161.978" height="161.978"/>
            </g>
        </g>
        <g transform="matrix(1,0,0,1,26.3497,87.7418)">
            <path d="M89.538,118.306L89.538,117.346L91.378,113.876C91.471,113.703 91.525,113.551 91.538,113.421C91.551,113.291 91.558,113.13 91.558,112.936C91.558,112.85 91.556,112.758 91.553,112.661C91.55,112.565 91.531,112.48 91.498,112.406C91.465,112.333 91.415,112.271 91.348,112.221C91.281,112.171 91.185,112.146 91.058,112.146C90.905,112.146 90.783,112.19 90.693,112.276C90.603,112.363 90.558,112.49 90.558,112.656L90.558,113.236L89.538,113.236L89.538,112.676C89.538,112.463 89.578,112.263 89.658,112.076C89.738,111.89 89.848,111.726 89.988,111.586C90.121,111.446 90.281,111.335 90.468,111.251C90.655,111.168 90.855,111.126 91.068,111.126C91.335,111.126 91.563,111.175 91.753,111.271C91.943,111.368 92.101,111.5 92.228,111.666C92.348,111.833 92.436,112.023 92.493,112.236C92.55,112.45 92.578,112.676 92.578,112.916C92.578,113.09 92.575,113.235 92.568,113.351C92.561,113.468 92.548,113.58 92.528,113.686C92.508,113.793 92.475,113.9 92.428,114.006C92.381,114.113 92.318,114.243 92.238,114.396L90.738,117.286L92.578,117.286L92.578,118.306L89.538,118.306Z" style="fill:white;fill-rule:nonzero;"/>
        </g>
        <g transform="matrix(1,0,0,1,26.3497,87.7418)">
            <text x="89.198px" y="118.306px" style="font-family:'DINCondensed-Bold', 'DIN Condensed';font-weight:700;font-stretch:condensed;font-size:10px;fill:white;">2</text>
        </g>
    </g>
    <g id="Channel1" transform="matrix(1,0,0,1,-104.418,-150.455)">
        <g id="Gate7" serif:id="Gate" transform="matrix(1,0,0,1,21.2991,-0.592177)">
            <g id="BitOut1-output7" serif:id="BitOut1#output" transform="matrix(0.175002,0,0,0.175002,92.3402,170.197)">
                <rect x="53.94" y="106.916" width="161.978" height="161.978" style="fill:rgb(77,77,77);"/>
            </g>
            <g id="Status1-light7" serif:id="Status1#light" transform="matrix(1,0,0,1,94.9713,-132.781)">
                <circle cx="42.167" cy="335.861" r="3.82" style="fill:rgb(230,230,230);"/>
            </g>
        </g>
        <g id="Slider7" serif:id="Slider" transform="matrix(0.75,0,0,1,-55.1572,137.758)">
            <g id="Output-output14" serif:id="Output#output" transform="matrix(0.233336,0,0,0.175002,335.315,31.8465)">
                <rect x="53.94" y="106.916" width="161.978" height="161.978" style="fill:rgb(153,102,102);"/>
            </g>
            <g id="Strip-meter-514" serif:id="Strip#meter$5" transform="matrix(0.0493894,-1.88741e-32,1.54074e-33,0.160516,386.558,34.5685)">
                <rect x="53.94" y="106.916" width="161.978" height="161.978"/>
            </g>
        </g>
        <g id="CV7" serif:id="CV" transform="matrix(0.75,0,0,1,-50.1572,138.758)">
            <g id="Output-output15" serif:id="Output#output" transform="matrix(0.233336,0,0,0.175002,273.765,30.8465)">
                <rect x="53.94" y="106.916" width="161.978" height="161.978" style="fill:rgb(77,77,77);"/>
            </g>
            <g id="Strip-meter-515" serif:id="Strip#meter$5" transform="matrix(0.0493894,-5.00742e-33,-3.55556e-34,0.160516,325.005,33.5685)">
                <rect x="53.94" y="106.916" width="161.978" height="161.978"/>
            </g>
        </g>
        <g transform="matrix(1,0,0,1,26.3497,87.7418)">
            <path d="M90.748,118.306L90.748,112.266L89.728,113.016L89.728,111.936L90.748,111.186L91.768,111.186L91.768,118.306L90.748,118.306Z" style="fill:white;fill-rule:nonzero;"/>
        </g>
        <g transform="matrix(1,0,0,1,26.3497,87.7418)">
            <text x="89.198px" y="118.306px" style="font-family:'DINCondensed-Bold', 'DIN Condensed';font-weight:700;font-stretch:condensed;font-size:10px;fill:white;">1</text>
        </g>
    </g>
    <g transform="matrix(1,0,0,1,-106.078,17)">
        <g transform="matrix(1,0,0,1,123.093,-101.186)">
            <path d="M91.468,114.656C91.461,114.483 91.406,114.353 91.303,114.266C91.2,114.18 91.081,114.136 90.948,114.136C90.788,114.136 90.665,114.188 90.578,114.291C90.491,114.395 90.448,114.513 90.448,114.646C90.448,114.74 90.471,114.831 90.518,114.921C90.565,115.011 90.685,115.093 90.878,115.166L91.478,115.406C91.858,115.553 92.12,115.753 92.263,116.006C92.406,116.26 92.478,116.536 92.478,116.836C92.478,117.05 92.44,117.248 92.363,117.431C92.286,117.615 92.181,117.776 92.048,117.916C91.915,118.056 91.755,118.166 91.568,118.246C91.381,118.326 91.178,118.366 90.958,118.366C90.545,118.366 90.198,118.236 89.918,117.976C89.778,117.85 89.665,117.691 89.578,117.501C89.491,117.311 89.445,117.09 89.438,116.836L90.398,116.836C90.418,116.976 90.466,117.106 90.543,117.226C90.62,117.346 90.755,117.406 90.948,117.406C91.095,117.406 91.226,117.358 91.343,117.261C91.46,117.165 91.518,117.03 91.518,116.856C91.518,116.716 91.481,116.596 91.408,116.496C91.335,116.396 91.201,116.31 91.008,116.236L90.518,116.056C90.198,115.936 89.946,115.758 89.763,115.521C89.58,115.285 89.488,114.996 89.488,114.656C89.488,114.443 89.528,114.245 89.608,114.061C89.688,113.878 89.798,113.72 89.938,113.586C90.071,113.453 90.228,113.351 90.408,113.281C90.588,113.211 90.781,113.176 90.988,113.176C91.195,113.176 91.386,113.213 91.563,113.286C91.74,113.36 91.891,113.463 92.018,113.596C92.145,113.73 92.245,113.888 92.318,114.071C92.391,114.255 92.428,114.45 92.428,114.656L91.468,114.656Z" style="fill:rgb(242,242,242);fill-rule:nonzero;"/>
            <path d="M93.078,111.186L94.098,111.186L94.098,116.876C94.098,117.07 94.133,117.201 94.203,117.271C94.273,117.341 94.405,117.386 94.598,117.406L94.598,118.366C94.365,118.366 94.155,118.348 93.968,118.311C93.781,118.275 93.621,118.203 93.488,118.096C93.355,117.996 93.253,117.855 93.183,117.671C93.113,117.488 93.078,117.246 93.078,116.946L93.078,111.186Z" style="fill:rgb(242,242,242);fill-rule:nonzero;"/>
            <path d="M94.998,118.306L94.998,113.236L96.018,113.236L96.018,118.306L94.998,118.306ZM94.998,112.206L94.998,111.186L96.018,111.186L96.018,112.206L94.998,112.206Z" style="fill:rgb(242,242,242);fill-rule:nonzero;"/>
            <path d="M97.878,116.656C97.878,116.863 97.918,117.03 97.998,117.156C98.078,117.283 98.205,117.346 98.378,117.346C98.531,117.346 98.655,117.288 98.748,117.171C98.841,117.055 98.888,116.903 98.888,116.716L98.888,114.746C98.888,114.586 98.84,114.455 98.743,114.351C98.646,114.248 98.525,114.196 98.378,114.196C98.185,114.196 98.053,114.256 97.983,114.376C97.913,114.496 97.878,114.636 97.878,114.796L97.878,116.656ZM98.888,118.306L98.888,117.846C98.821,117.92 98.758,117.988 98.698,118.051C98.638,118.115 98.571,118.17 98.498,118.216C98.425,118.263 98.341,118.3 98.248,118.326C98.155,118.353 98.045,118.366 97.918,118.366C97.491,118.366 97.195,118.206 97.028,117.886C96.968,117.773 96.925,117.633 96.898,117.466C96.871,117.3 96.858,117.076 96.858,116.796L96.858,114.866C96.858,114.5 96.868,114.23 96.888,114.056C96.928,113.723 97.085,113.473 97.358,113.306C97.485,113.22 97.675,113.176 97.928,113.176C98.128,113.176 98.306,113.221 98.463,113.311C98.62,113.401 98.755,113.53 98.868,113.696L98.888,113.696L98.888,111.186L99.908,111.186L99.908,118.306L98.888,118.306Z" style="fill:rgb(242,242,242);fill-rule:nonzero;"/>
            <path d="M103.698,116.156L101.678,116.156L101.678,116.846C101.678,117.006 101.723,117.13 101.813,117.216C101.903,117.303 102.025,117.346 102.178,117.346C102.371,117.346 102.5,117.29 102.563,117.176C102.626,117.063 102.665,116.95 102.678,116.836L103.698,116.836C103.698,117.283 103.561,117.643 103.288,117.916C103.155,118.056 102.995,118.166 102.808,118.246C102.621,118.326 102.411,118.366 102.178,118.366C101.858,118.366 101.586,118.3 101.363,118.166C101.14,118.033 100.968,117.856 100.848,117.636C100.775,117.503 100.725,117.35 100.698,117.176C100.671,117.003 100.658,116.813 100.658,116.606L100.658,114.936C100.658,114.73 100.671,114.54 100.698,114.366C100.725,114.193 100.775,114.04 100.848,113.906C100.968,113.686 101.14,113.51 101.363,113.376C101.586,113.243 101.858,113.176 102.178,113.176C102.411,113.176 102.623,113.216 102.813,113.296C103.003,113.376 103.165,113.486 103.298,113.626C103.565,113.926 103.698,114.303 103.698,114.756L103.698,116.156ZM101.678,115.356L102.678,115.356L102.678,114.776C102.678,114.583 102.633,114.438 102.543,114.341C102.453,114.245 102.331,114.196 102.178,114.196C102.025,114.196 101.903,114.245 101.813,114.341C101.723,114.438 101.678,114.583 101.678,114.776L101.678,115.356Z" style="fill:rgb(242,242,242);fill-rule:nonzero;"/>
            <path d="M104.448,118.306L104.448,113.236L105.468,113.236L105.468,113.776C105.675,113.59 105.878,113.443 106.078,113.336C106.278,113.23 106.525,113.176 106.818,113.176L106.818,114.256C106.718,114.216 106.615,114.196 106.508,114.196C106.401,114.196 106.286,114.215 106.163,114.251C106.04,114.288 105.928,114.35 105.828,114.436C105.721,114.523 105.635,114.636 105.568,114.776C105.501,114.916 105.468,115.09 105.468,115.296L105.468,118.306L104.448,118.306Z" style="fill:rgb(242,242,242);fill-rule:nonzero;"/>
        </g>
        <g transform="matrix(1,0,0,1,123.093,-101.186)">
            <text x="89.198px" y="118.306px" style="font-family:'DINCondensed-Bold', 'DIN Condensed';font-weight:700;font-stretch:condensed;font-size:10px;fill:rgb(242,242,242);">slider</text>
        </g>
        <g transform="matrix(1,0,0,1,87.1897,-101.186)">
            <path d="M90.698,116.846C90.698,117.006 90.743,117.13 90.833,117.216C90.923,117.303 91.045,117.346 91.198,117.346C91.391,117.346 91.52,117.29 91.583,117.176C91.646,117.063 91.685,116.95 91.698,116.836L92.718,116.836C92.718,117.283 92.581,117.643 92.308,117.916C92.175,118.056 92.015,118.166 91.828,118.246C91.641,118.326 91.431,118.366 91.198,118.366C90.878,118.366 90.606,118.3 90.383,118.166C90.16,118.033 89.988,117.856 89.868,117.636C89.795,117.503 89.745,117.35 89.718,117.176C89.691,117.003 89.678,116.813 89.678,116.606L89.678,114.936C89.678,114.73 89.691,114.54 89.718,114.366C89.745,114.193 89.795,114.04 89.868,113.906C89.988,113.686 90.16,113.51 90.383,113.376C90.606,113.243 90.878,113.176 91.198,113.176C91.431,113.176 91.643,113.216 91.833,113.296C92.023,113.376 92.185,113.486 92.318,113.626C92.585,113.926 92.718,114.316 92.718,114.796L91.698,114.796C91.698,114.59 91.653,114.438 91.563,114.341C91.473,114.245 91.351,114.196 91.198,114.196C91.045,114.196 90.923,114.245 90.833,114.341C90.743,114.438 90.698,114.583 90.698,114.776L90.698,116.846Z" style="fill:rgb(242,242,242);fill-rule:nonzero;"/>
            <path d="M96.428,113.236L95.108,118.306L94.208,118.306L92.888,113.236L93.968,113.236L94.648,116.476L94.668,116.476L95.348,113.236L96.428,113.236Z" style="fill:rgb(242,242,242);fill-rule:nonzero;"/>
        </g>
        <g transform="matrix(1,0,0,1,87.1897,-101.186)">
            <text x="89.198px" y="118.306px" style="font-family:'DINCondensed-Bold', 'DIN Condensed';font-weight:700;font-stretch:condensed;font-size:10px;fill:rgb(242,242,242);">cv</text>
        </g>
        <g transform="matrix(1,0,0,1,41.6166,-101.186)">
            <path d="M90.638,118.896C90.645,119.016 90.693,119.13 90.783,119.236C90.873,119.343 91.005,119.396 91.178,119.396C91.345,119.396 91.465,119.345 91.538,119.241C91.611,119.138 91.648,119.006 91.648,118.846L91.648,117.846L91.628,117.846C91.515,118.013 91.38,118.141 91.223,118.231C91.066,118.321 90.885,118.366 90.678,118.366C90.251,118.366 89.955,118.206 89.788,117.886C89.728,117.773 89.685,117.633 89.658,117.466C89.631,117.3 89.618,117.076 89.618,116.796L89.618,114.866C89.618,114.5 89.628,114.23 89.648,114.056C89.688,113.723 89.845,113.473 90.118,113.306C90.245,113.22 90.435,113.176 90.688,113.176C90.815,113.176 90.923,113.19 91.013,113.216C91.103,113.243 91.185,113.28 91.258,113.326C91.331,113.373 91.398,113.428 91.458,113.491C91.518,113.555 91.581,113.623 91.648,113.696L91.648,113.236L92.668,113.236L92.668,118.926C92.668,119.1 92.64,119.275 92.583,119.451C92.526,119.628 92.435,119.786 92.308,119.926C92.181,120.073 92.021,120.191 91.828,120.281C91.635,120.371 91.405,120.416 91.138,120.416C90.985,120.416 90.825,120.391 90.658,120.341C90.491,120.291 90.338,120.206 90.198,120.086C90.051,119.973 89.926,119.821 89.823,119.631C89.72,119.441 89.651,119.196 89.618,118.896L90.638,118.896ZM90.638,116.746C90.638,116.906 90.673,117.046 90.743,117.166C90.813,117.286 90.945,117.346 91.138,117.346C91.285,117.346 91.406,117.295 91.503,117.191C91.6,117.088 91.648,116.956 91.648,116.796L91.648,114.826C91.648,114.64 91.601,114.488 91.508,114.371C91.415,114.255 91.291,114.196 91.138,114.196C90.965,114.196 90.838,114.26 90.758,114.386C90.678,114.513 90.638,114.68 90.638,114.886L90.638,116.746Z" style="fill:rgb(242,242,242);fill-rule:nonzero;"/>
            <path d="M95.438,118.306L95.438,117.786L95.418,117.786C95.285,117.973 95.15,118.116 95.013,118.216C94.876,118.316 94.685,118.366 94.438,118.366C94.318,118.366 94.196,118.348 94.073,118.311C93.95,118.275 93.831,118.206 93.718,118.106C93.605,118.013 93.513,117.878 93.443,117.701C93.373,117.525 93.338,117.296 93.338,117.016C93.338,116.73 93.361,116.478 93.408,116.261C93.455,116.045 93.541,115.863 93.668,115.716C93.788,115.576 93.951,115.471 94.158,115.401C94.365,115.331 94.628,115.296 94.948,115.296L95.058,115.296C95.098,115.296 95.135,115.3 95.168,115.306C95.201,115.313 95.241,115.316 95.288,115.316C95.335,115.316 95.385,115.32 95.438,115.326L95.438,114.796C95.438,114.623 95.401,114.48 95.328,114.366C95.255,114.253 95.121,114.196 94.928,114.196C94.795,114.196 94.673,114.24 94.563,114.326C94.453,114.413 94.381,114.54 94.348,114.706L93.358,114.706C93.385,114.253 93.538,113.886 93.818,113.606C93.951,113.473 94.111,113.368 94.298,113.291C94.485,113.215 94.695,113.176 94.928,113.176C95.141,113.176 95.341,113.21 95.528,113.276C95.715,113.343 95.878,113.443 96.018,113.576C96.151,113.71 96.258,113.876 96.338,114.076C96.418,114.276 96.458,114.51 96.458,114.776L96.458,118.306L95.438,118.306ZM95.438,116.126C95.325,116.106 95.231,116.096 95.158,116.096C94.938,116.096 94.75,116.148 94.593,116.251C94.436,116.355 94.358,116.543 94.358,116.816C94.358,117.01 94.405,117.166 94.498,117.286C94.591,117.406 94.721,117.466 94.888,117.466C95.061,117.466 95.196,117.41 95.293,117.296C95.39,117.183 95.438,117.023 95.438,116.816L95.438,116.126Z" style="fill:rgb(242,242,242);fill-rule:nonzero;"/>
            <path d="M97.208,113.236L97.208,111.696L98.228,111.696L98.228,113.236L98.858,113.236L98.858,114.036L98.228,114.036L98.228,116.846C98.228,116.966 98.24,117.06 98.263,117.126C98.286,117.193 98.325,117.243 98.378,117.276C98.431,117.31 98.496,117.33 98.573,117.336C98.65,117.343 98.745,117.346 98.858,117.346L98.858,118.306L98.438,118.306C98.205,118.306 98.01,118.27 97.853,118.196C97.696,118.123 97.571,118.03 97.478,117.916C97.385,117.803 97.316,117.675 97.273,117.531C97.23,117.388 97.208,117.25 97.208,117.116L97.208,114.036L96.698,114.036L96.698,113.236L97.208,113.236Z" style="fill:rgb(242,242,242);fill-rule:nonzero;"/>
            <path d="M102.198,116.156L100.178,116.156L100.178,116.846C100.178,117.006 100.223,117.13 100.313,117.216C100.403,117.303 100.525,117.346 100.678,117.346C100.871,117.346 101,117.29 101.063,117.176C101.126,117.063 101.165,116.95 101.178,116.836L102.198,116.836C102.198,117.283 102.061,117.643 101.788,117.916C101.655,118.056 101.495,118.166 101.308,118.246C101.121,118.326 100.911,118.366 100.678,118.366C100.358,118.366 100.086,118.3 99.863,118.166C99.64,118.033 99.468,117.856 99.348,117.636C99.275,117.503 99.225,117.35 99.198,117.176C99.171,117.003 99.158,116.813 99.158,116.606L99.158,114.936C99.158,114.73 99.171,114.54 99.198,114.366C99.225,114.193 99.275,114.04 99.348,113.906C99.468,113.686 99.64,113.51 99.863,113.376C100.086,113.243 100.358,113.176 100.678,113.176C100.911,113.176 101.123,113.216 101.313,113.296C101.503,113.376 101.665,113.486 101.798,113.626C102.065,113.926 102.198,114.303 102.198,114.756L102.198,116.156ZM100.178,115.356L101.178,115.356L101.178,114.776C101.178,114.583 101.133,114.438 101.043,114.341C100.953,114.245 100.831,114.196 100.678,114.196C100.525,114.196 100.403,114.245 100.313,114.341C100.223,114.438 100.178,114.583 100.178,114.776L100.178,115.356Z" style="fill:rgb(242,242,242);fill-rule:nonzero;"/>
        </g>
        <g transform="matrix(1,0,0,1,41.6166,-101.186)">
            <text x="89.198px" y="118.306px" style="font-family:'DINCondensed-Bold', 'DIN Condensed';font-weight:700;font-stretch:condensed;font-size:10px;fill:rgb(242,242,242);">gate</text>
        </g>
    </g>
    <g transform="matrix(0.816456,0,0,0.816456,40.807,-228.425)">
        <g transform="matrix(1,0,0,1,-56.9315,-51.4025)">
            <path d="M76.278,346.543C76.374,346.543 76.482,346.541 76.602,346.537C76.722,346.533 76.836,346.529 76.944,346.525C77.052,346.521 77.144,346.517 77.22,346.513C77.296,346.509 77.346,346.507 77.37,346.507C77.506,346.507 77.574,346.547 77.574,346.627C77.574,346.699 77.546,346.751 77.49,346.783C77.434,346.815 77.368,346.839 77.292,346.855C77.216,346.871 77.138,346.881 77.058,346.885C76.978,346.889 76.914,346.903 76.866,346.927C76.498,347.631 76.14,348.329 75.792,349.021C75.444,349.713 75.11,350.373 74.79,351.001C74.47,351.629 74.168,352.209 73.884,352.741C73.6,353.273 73.344,353.735 73.116,354.127C72.888,354.519 72.69,354.827 72.522,355.051C72.354,355.275 72.226,355.387 72.138,355.387C72.098,355.363 72.058,355.325 72.018,355.273C71.978,355.221 71.938,355.151 71.898,355.063C71.778,354.815 71.642,354.515 71.49,354.163C71.338,353.811 71.178,353.431 71.01,353.023C70.842,352.615 70.666,352.193 70.482,351.757C70.298,351.321 70.114,350.887 69.93,350.455L69.678,349.855C69.542,349.519 69.41,349.187 69.282,348.859C69.154,348.531 69.036,348.229 68.928,347.953C68.82,347.677 68.724,347.443 68.64,347.251C68.556,347.059 68.486,346.931 68.43,346.867C68.23,346.867 68.074,346.863 67.962,346.855C67.85,346.847 67.766,346.837 67.71,346.825C67.654,346.813 67.618,346.797 67.602,346.777C67.586,346.757 67.578,346.735 67.578,346.711C67.578,346.655 67.594,346.607 67.626,346.567C67.658,346.527 67.69,346.507 67.722,346.507C67.746,346.507 67.808,346.509 67.908,346.513C68.008,346.517 68.132,346.521 68.28,346.525C68.428,346.529 68.594,346.535 68.778,346.543C68.962,346.551 69.146,346.555 69.33,346.555C70.026,346.555 70.53,346.541 70.842,346.513C71.154,346.485 71.342,346.471 71.406,346.471C71.558,346.471 71.634,346.511 71.634,346.591C71.634,346.607 71.63,346.629 71.622,346.657C71.614,346.685 71.592,346.715 71.556,346.747C71.52,346.779 71.46,346.807 71.376,346.831C71.292,346.855 71.178,346.867 71.034,346.867C70.93,346.867 70.828,346.865 70.728,346.861C70.628,346.857 70.55,346.851 70.494,346.843C70.494,346.899 70.538,347.071 70.626,347.359C70.714,347.647 70.828,347.999 70.968,348.415C71.108,348.831 71.268,349.283 71.448,349.771C71.628,350.259 71.808,350.733 71.988,351.193C72.168,351.653 72.34,352.073 72.504,352.453C72.668,352.833 72.81,353.123 72.93,353.323C72.994,353.235 73.094,353.059 73.23,352.795C73.366,352.531 73.518,352.215 73.686,351.847C73.854,351.479 74.028,351.079 74.208,350.647C74.388,350.215 74.552,349.789 74.7,349.369C74.848,348.949 74.97,348.553 75.066,348.181C75.162,347.809 75.21,347.503 75.21,347.263C75.21,347.183 75.204,347.099 75.192,347.011C75.18,346.923 75.142,346.871 75.078,346.855C74.87,346.855 74.7,346.851 74.568,346.843C74.436,346.835 74.33,346.825 74.25,346.813C74.17,346.801 74.106,346.785 74.058,346.765C74.01,346.745 73.966,346.727 73.926,346.711C73.902,346.679 73.89,346.631 73.89,346.567C73.89,346.503 73.914,346.471 73.962,346.471L74.118,346.471C74.206,346.479 74.354,346.489 74.562,346.501C74.77,346.513 75.078,346.527 75.486,346.543L76.278,346.543Z" style="fill:rgb(242,242,242);fill-rule:nonzero;"/>
            <path d="M82.95,355.159C82.87,355.159 82.762,355.163 82.626,355.171C82.49,355.179 82.344,355.185 82.188,355.189C82.032,355.193 81.872,355.199 81.708,355.207C81.544,355.215 81.394,355.219 81.258,355.219C80.722,355.219 80.198,355.137 79.686,354.973C79.174,354.809 78.72,354.553 78.324,354.205C77.928,353.857 77.608,353.409 77.364,352.861C77.12,352.313 76.998,351.655 76.998,350.887C76.998,350.183 77.132,349.559 77.4,349.015C77.668,348.471 78.022,348.015 78.462,347.647C78.902,347.279 79.398,346.999 79.95,346.807C80.502,346.615 81.066,346.519 81.642,346.519C81.77,346.519 81.944,346.527 82.164,346.543C82.384,346.559 82.604,346.579 82.824,346.603C83.044,346.627 83.24,346.653 83.412,346.681C83.584,346.709 83.694,346.735 83.742,346.759C83.846,346.479 83.962,346.231 84.09,346.015C84.218,345.799 84.394,345.635 84.618,345.523C84.682,345.499 84.754,345.495 84.834,345.511C84.914,345.527 84.954,345.567 84.954,345.631C84.914,345.703 84.884,345.747 84.864,345.763C84.844,345.779 84.818,345.787 84.786,345.787C84.69,345.787 84.596,345.831 84.504,345.919C84.412,346.007 84.326,346.121 84.246,346.261C84.166,346.401 84.096,346.561 84.036,346.741C83.976,346.921 83.93,347.103 83.898,347.287C83.882,347.375 83.864,347.477 83.844,347.593C83.824,347.709 83.806,347.823 83.79,347.935C83.774,348.047 83.762,348.155 83.754,348.259C83.746,348.363 83.742,348.451 83.742,348.523C83.742,348.563 83.726,348.597 83.694,348.625C83.662,348.653 83.63,348.667 83.598,348.667C83.55,348.667 83.494,348.643 83.43,348.595C83.398,348.395 83.332,348.195 83.232,347.995C83.132,347.795 82.992,347.615 82.812,347.455C82.632,347.295 82.408,347.167 82.14,347.071C81.872,346.975 81.554,346.927 81.186,346.927C80.794,346.927 80.444,347.019 80.136,347.203C79.828,347.387 79.568,347.639 79.356,347.959C79.144,348.279 78.982,348.659 78.87,349.099C78.758,349.539 78.702,350.011 78.702,350.515C78.702,351.211 78.772,351.829 78.912,352.369C79.052,352.909 79.246,353.367 79.494,353.743C79.742,354.119 80.038,354.405 80.382,354.601C80.726,354.797 81.102,354.895 81.51,354.895C81.782,354.895 82.048,354.851 82.308,354.763C82.568,354.675 82.808,354.555 83.028,354.403C83.248,354.251 83.444,354.075 83.616,353.875C83.788,353.675 83.922,353.463 84.018,353.239C84.034,353.207 84.076,353.183 84.144,353.167C84.212,353.151 84.246,353.159 84.246,353.191C84.246,353.295 84.212,353.437 84.144,353.617C84.076,353.797 83.998,353.977 83.91,354.157C83.822,354.337 83.734,354.501 83.646,354.649C83.558,354.797 83.498,354.895 83.466,354.943C83.442,354.999 83.412,355.073 83.376,355.165C83.34,355.257 83.308,355.361 83.28,355.477C83.252,355.593 83.226,355.713 83.202,355.837C83.178,355.961 83.166,356.083 83.166,356.203C83.166,356.331 83.15,356.411 83.118,356.443C83.086,356.475 83.018,356.491 82.914,356.491C82.826,356.491 82.786,356.429 82.794,356.305C82.802,356.181 82.822,356.039 82.854,355.879C82.886,355.719 82.918,355.569 82.95,355.429C82.982,355.289 82.982,355.199 82.95,355.159Z" style="fill:rgb(242,242,242);fill-rule:nonzero;"/>
            <path d="M91.866,354.511C91.914,354.703 92.082,354.823 92.37,354.871C92.442,354.879 92.478,354.919 92.478,354.991C92.478,355.031 92.458,355.067 92.418,355.099C92.378,355.131 92.326,355.147 92.262,355.147C92.142,355.147 91.982,355.139 91.782,355.123C91.582,355.107 91.298,355.099 90.93,355.099C90.634,355.099 90.374,355.109 90.15,355.129C89.926,355.149 89.79,355.163 89.742,355.171C89.702,355.171 89.674,355.159 89.658,355.135C89.642,355.111 89.634,355.083 89.634,355.051C89.634,355.019 89.64,354.987 89.652,354.955C89.664,354.923 89.682,354.907 89.706,354.907C89.762,354.899 89.818,354.883 89.874,354.859C89.93,354.835 89.982,354.803 90.03,354.763C90.054,354.739 90.084,354.611 90.12,354.379C90.156,354.147 90.188,353.841 90.216,353.461C90.244,353.081 90.268,352.643 90.288,352.147C90.308,351.651 90.318,351.127 90.318,350.575L90.318,349.279C90.318,348.879 90.298,348.555 90.258,348.307C90.186,347.779 90.018,347.373 89.754,347.089C89.49,346.805 89.182,346.663 88.83,346.663C88.518,346.663 88.21,346.749 87.906,346.921C87.602,347.093 87.33,347.345 87.09,347.677C86.85,348.009 86.656,348.421 86.508,348.913C86.36,349.405 86.286,349.967 86.286,350.599C86.286,351.295 86.364,351.901 86.52,352.417C86.676,352.933 86.882,353.365 87.138,353.713C87.394,354.061 87.688,354.321 88.02,354.493C88.352,354.665 88.698,354.751 89.058,354.751L89.124,354.751C89.152,354.751 89.174,354.747 89.19,354.739C89.222,354.723 89.242,354.723 89.25,354.739C89.258,354.755 89.258,354.777 89.25,354.805C89.242,354.833 89.232,354.861 89.22,354.889C89.208,354.917 89.194,354.935 89.178,354.943C89.098,354.999 88.986,355.049 88.842,355.093C88.698,355.137 88.498,355.159 88.242,355.159C87.818,355.159 87.396,355.061 86.976,354.865C86.556,354.669 86.18,354.395 85.848,354.043C85.516,353.691 85.248,353.265 85.044,352.765C84.84,352.265 84.738,351.715 84.738,351.115C84.738,350.259 84.862,349.527 85.11,348.919C85.358,348.311 85.696,347.815 86.124,347.431C86.552,347.047 87.048,346.765 87.612,346.585C88.176,346.405 88.778,346.315 89.418,346.315C89.65,346.315 89.862,346.339 90.054,346.387C90.246,346.435 90.414,346.493 90.558,346.561C90.702,346.629 90.82,346.695 90.912,346.759C91.004,346.823 91.066,346.871 91.098,346.903C91.162,346.855 91.292,346.797 91.488,346.729C91.684,346.661 91.908,346.597 92.16,346.537C92.412,346.477 92.674,346.425 92.946,346.381C93.218,346.337 93.466,346.315 93.69,346.315C94.298,346.331 94.832,346.431 95.292,346.615C95.752,346.799 96.136,347.045 96.444,347.353C96.752,347.661 96.984,348.017 97.14,348.421C97.296,348.825 97.374,349.255 97.374,349.711C97.374,350.567 97.26,351.329 97.032,351.997C96.804,352.665 96.498,353.231 96.114,353.695C95.73,354.159 95.286,354.513 94.782,354.757C94.278,355.001 93.75,355.123 93.198,355.123C93.15,355.123 93.118,355.105 93.102,355.069C93.086,355.033 93.08,354.995 93.084,354.955C93.088,354.915 93.102,354.881 93.126,354.853C93.15,354.825 93.174,354.815 93.198,354.823C93.238,354.839 93.27,354.847 93.294,354.847L93.39,354.847C93.718,354.847 94.026,354.735 94.314,354.511C94.602,354.287 94.854,353.977 95.07,353.581C95.286,353.185 95.456,352.717 95.58,352.177C95.704,351.637 95.766,351.047 95.766,350.407C95.766,349.215 95.584,348.287 95.22,347.623C94.856,346.959 94.294,346.627 93.534,346.627C93.302,346.627 93.086,346.675 92.886,346.771C92.686,346.867 92.512,346.993 92.364,347.149C92.216,347.305 92.096,347.483 92.004,347.683C91.912,347.883 91.854,348.087 91.83,348.295C91.79,348.575 91.766,349.023 91.758,349.639C91.75,350.255 91.742,350.999 91.734,351.871C91.726,352.511 91.732,353.069 91.752,353.545C91.772,354.021 91.81,354.343 91.866,354.511Z" style="fill:rgb(242,242,242);fill-rule:nonzero;"/>
            <path d="M103.914,355.159C103.834,355.159 103.726,355.163 103.59,355.171C103.454,355.179 103.308,355.185 103.152,355.189C102.996,355.193 102.836,355.199 102.672,355.207C102.508,355.215 102.358,355.219 102.222,355.219C101.686,355.219 101.162,355.137 100.65,354.973C100.138,354.809 99.684,354.553 99.288,354.205C98.892,353.857 98.572,353.409 98.328,352.861C98.084,352.313 97.962,351.655 97.962,350.887C97.962,350.183 98.096,349.559 98.364,349.015C98.632,348.471 98.986,348.015 99.426,347.647C99.866,347.279 100.362,346.999 100.914,346.807C101.466,346.615 102.03,346.519 102.606,346.519C102.734,346.519 102.908,346.527 103.128,346.543C103.348,346.559 103.568,346.579 103.788,346.603C104.008,346.627 104.204,346.653 104.376,346.681C104.548,346.709 104.658,346.735 104.706,346.759C104.81,346.479 104.926,346.231 105.054,346.015C105.182,345.799 105.358,345.635 105.582,345.523C105.646,345.499 105.718,345.495 105.798,345.511C105.878,345.527 105.918,345.567 105.918,345.631C105.878,345.703 105.848,345.747 105.828,345.763C105.808,345.779 105.782,345.787 105.75,345.787C105.654,345.787 105.56,345.831 105.468,345.919C105.376,346.007 105.29,346.121 105.21,346.261C105.13,346.401 105.06,346.561 105,346.741C104.94,346.921 104.894,347.103 104.862,347.287C104.846,347.375 104.828,347.477 104.808,347.593C104.788,347.709 104.77,347.823 104.754,347.935C104.738,348.047 104.726,348.155 104.718,348.259C104.71,348.363 104.706,348.451 104.706,348.523C104.706,348.563 104.69,348.597 104.658,348.625C104.626,348.653 104.594,348.667 104.562,348.667C104.514,348.667 104.458,348.643 104.394,348.595C104.362,348.395 104.296,348.195 104.196,347.995C104.096,347.795 103.956,347.615 103.776,347.455C103.596,347.295 103.372,347.167 103.104,347.071C102.836,346.975 102.518,346.927 102.15,346.927C101.758,346.927 101.408,347.019 101.1,347.203C100.792,347.387 100.532,347.639 100.32,347.959C100.108,348.279 99.946,348.659 99.834,349.099C99.722,349.539 99.666,350.011 99.666,350.515C99.666,351.211 99.736,351.829 99.876,352.369C100.016,352.909 100.21,353.367 100.458,353.743C100.706,354.119 101.002,354.405 101.346,354.601C101.69,354.797 102.066,354.895 102.474,354.895C102.746,354.895 103.012,354.851 103.272,354.763C103.532,354.675 103.772,354.555 103.992,354.403C104.212,354.251 104.408,354.075 104.58,353.875C104.752,353.675 104.886,353.463 104.982,353.239C104.998,353.207 105.04,353.183 105.108,353.167C105.176,353.151 105.21,353.159 105.21,353.191C105.21,353.295 105.176,353.437 105.108,353.617C105.04,353.797 104.962,353.977 104.874,354.157C104.786,354.337 104.698,354.501 104.61,354.649C104.522,354.797 104.462,354.895 104.43,354.943C104.406,354.999 104.376,355.073 104.34,355.165C104.304,355.257 104.272,355.361 104.244,355.477C104.216,355.593 104.19,355.713 104.166,355.837C104.142,355.961 104.13,356.083 104.13,356.203C104.13,356.331 104.114,356.411 104.082,356.443C104.05,356.475 103.982,356.491 103.878,356.491C103.79,356.491 103.75,356.429 103.758,356.305C103.766,356.181 103.786,356.039 103.818,355.879C103.85,355.719 103.882,355.569 103.914,355.429C103.946,355.289 103.946,355.199 103.914,355.159Z" style="fill:rgb(242,242,242);fill-rule:nonzero;"/>
            <path d="M111.162,352.471C111.162,352.879 111.17,353.277 111.186,353.665C111.202,354.053 111.246,354.367 111.318,354.607C111.462,354.695 111.624,354.749 111.804,354.769C111.984,354.789 112.154,354.803 112.314,354.811C112.474,354.819 112.608,354.835 112.716,354.859C112.824,354.883 112.878,354.935 112.878,355.015C112.878,355.055 112.858,355.089 112.818,355.117C112.778,355.145 112.714,355.159 112.626,355.159C112.394,355.167 112.078,355.157 111.678,355.129C111.278,355.101 110.822,355.087 110.31,355.087C109.654,355.087 109.16,355.109 108.828,355.153C108.496,355.197 108.298,355.219 108.234,355.219C108.178,355.219 108.13,355.205 108.09,355.177C108.05,355.149 108.03,355.111 108.03,355.063C108.03,354.959 108.078,354.903 108.174,354.895C108.27,354.887 108.45,354.863 108.714,354.823C108.89,354.807 109.034,354.785 109.146,354.757C109.258,354.729 109.37,354.695 109.482,354.655C109.53,354.479 109.57,354.299 109.602,354.115C109.634,353.931 109.662,353.701 109.686,353.425C109.71,353.149 109.728,352.805 109.74,352.393C109.752,351.981 109.758,351.451 109.758,350.803C109.758,350.211 109.754,349.709 109.746,349.297C109.738,348.885 109.724,348.541 109.704,348.265C109.684,347.989 109.664,347.771 109.644,347.611C109.624,347.451 109.602,347.327 109.578,347.239C109.474,347.167 109.338,347.121 109.17,347.101C109.002,347.081 108.838,347.065 108.678,347.053C108.518,347.041 108.38,347.023 108.264,346.999C108.148,346.975 108.09,346.919 108.09,346.831C108.09,346.727 108.154,346.675 108.282,346.675C108.426,346.675 108.672,346.693 109.02,346.729C109.368,346.765 109.794,346.783 110.298,346.783C110.378,346.783 110.442,346.771 110.49,346.747C110.57,346.707 110.698,346.651 110.874,346.579C111.05,346.507 111.254,346.435 111.486,346.363C111.718,346.291 111.964,346.227 112.224,346.171C112.484,346.115 112.738,346.087 112.986,346.087C113.386,346.087 113.766,346.133 114.126,346.225C114.486,346.317 114.8,346.455 115.068,346.639C115.336,346.823 115.55,347.051 115.71,347.323C115.87,347.595 115.95,347.911 115.95,348.271C115.95,348.623 115.868,348.949 115.704,349.249C115.54,349.549 115.334,349.823 115.086,350.071C114.838,350.319 114.566,350.533 114.27,350.713C113.974,350.893 113.698,351.035 113.442,351.139C113.77,351.139 114.08,351.173 114.372,351.241C114.664,351.309 114.928,351.405 115.164,351.529C115.4,351.653 115.596,351.803 115.752,351.979C115.908,352.155 116.01,352.355 116.058,352.579C116.058,352.691 116.048,352.765 116.028,352.801C116.008,352.837 115.97,352.895 115.914,352.975C116.074,353.231 116.252,353.533 116.448,353.881C116.644,354.229 116.864,354.561 117.108,354.877C117.352,355.193 117.624,355.461 117.924,355.681C118.224,355.901 118.558,356.011 118.926,356.011C118.998,356.011 119.08,356.007 119.172,355.999C119.264,355.991 119.352,355.975 119.436,355.951C119.52,355.927 119.598,355.891 119.67,355.843C119.742,355.795 119.794,355.731 119.826,355.651C119.858,355.627 119.89,355.615 119.922,355.615C119.962,355.615 119.988,355.635 120,355.675C120.012,355.715 120.022,355.755 120.03,355.795C119.87,356.155 119.474,356.335 118.842,356.335C118.522,356.335 118.216,356.283 117.924,356.179C117.632,356.075 117.352,355.937 117.084,355.765C116.816,355.593 116.56,355.395 116.316,355.171C116.072,354.947 115.842,354.715 115.626,354.475C115.466,354.299 115.28,354.079 115.068,353.815C114.856,353.551 114.63,353.281 114.39,353.005C114.15,352.729 113.9,352.469 113.64,352.225C113.38,351.981 113.122,351.791 112.866,351.655C112.746,351.599 112.61,351.557 112.458,351.529C112.306,351.501 112.16,351.481 112.02,351.469C111.88,351.457 111.75,351.451 111.63,351.451L111.354,351.451C111.306,351.451 111.266,351.453 111.234,351.457C111.202,351.461 111.178,351.463 111.162,351.463L111.162,352.471ZM111.366,347.419C111.326,347.571 111.294,347.783 111.27,348.055C111.246,348.327 111.226,348.625 111.21,348.949C111.194,349.273 111.182,349.609 111.174,349.957C111.166,350.305 111.162,350.635 111.162,350.947C111.242,351.011 111.396,351.047 111.624,351.055C111.852,351.063 112.098,351.067 112.362,351.067C112.594,351.067 112.788,351.047 112.944,351.007C113.1,350.967 113.246,350.895 113.382,350.791C113.462,350.735 113.552,350.643 113.652,350.515C113.752,350.387 113.848,350.235 113.94,350.059C114.032,349.883 114.11,349.685 114.174,349.465C114.238,349.245 114.27,349.011 114.27,348.763C114.27,348.403 114.23,348.081 114.15,347.797C114.07,347.513 113.962,347.269 113.826,347.065C113.69,346.861 113.53,346.705 113.346,346.597C113.162,346.489 112.966,346.435 112.758,346.435C112.646,346.435 112.52,346.457 112.38,346.501C112.24,346.545 112.102,346.603 111.966,346.675C111.83,346.747 111.71,346.829 111.606,346.921C111.502,347.013 111.434,347.111 111.402,347.215L111.366,347.419Z" style="fill:rgb(242,242,242);fill-rule:nonzero;"/>
            <path d="M123.066,353.695C122.978,353.791 122.842,353.923 122.658,354.091C122.474,354.259 122.252,354.427 121.992,354.595C121.732,354.763 121.442,354.907 121.122,355.027C120.802,355.147 120.462,355.207 120.102,355.207C119.774,355.207 119.454,355.157 119.142,355.057C118.83,354.957 118.55,354.805 118.302,354.601C118.054,354.397 117.856,354.137 117.708,353.821C117.56,353.505 117.486,353.127 117.486,352.687C117.486,352.327 117.51,352.017 117.558,351.757C117.606,351.497 117.67,351.269 117.75,351.073C117.83,350.877 117.92,350.709 118.02,350.569C118.12,350.429 118.222,350.303 118.326,350.191C118.454,350.047 118.61,349.911 118.794,349.783C118.978,349.655 119.176,349.539 119.388,349.435C119.6,349.331 119.824,349.249 120.06,349.189C120.296,349.129 120.534,349.099 120.774,349.099C121.206,349.099 121.544,349.171 121.788,349.315C122.032,349.459 122.154,349.659 122.154,349.915C122.154,350.075 122.106,350.223 122.01,350.359C122.09,350.335 122.192,350.295 122.316,350.239C122.44,350.183 122.566,350.125 122.694,350.065C122.822,350.005 122.936,349.951 123.036,349.903C123.136,349.855 123.202,349.819 123.234,349.795C123.25,349.779 123.268,349.773 123.288,349.777C123.308,349.781 123.318,349.795 123.318,349.819C123.318,349.923 123.298,350.009 123.258,350.077C123.218,350.145 123.17,350.199 123.114,350.239C122.986,350.319 122.802,350.419 122.562,350.539C122.322,350.659 122.056,350.785 121.764,350.917C121.472,351.049 121.17,351.181 120.858,351.313C120.546,351.445 120.252,351.571 119.976,351.691C119.7,351.811 119.46,351.917 119.256,352.009C119.052,352.101 118.914,352.167 118.842,352.207C118.842,352.479 118.896,352.733 119.004,352.969C119.112,353.205 119.262,353.411 119.454,353.587C119.646,353.763 119.876,353.901 120.144,354.001C120.412,354.101 120.706,354.151 121.026,354.151C121.314,354.151 121.574,354.121 121.806,354.061C122.038,354.001 122.234,353.933 122.394,353.857C122.554,353.781 122.68,353.713 122.772,353.653C122.864,353.593 122.914,353.563 122.922,353.563C122.954,353.563 122.986,353.577 123.018,353.605C123.05,353.633 123.066,353.663 123.066,353.695ZM118.842,351.859C118.978,351.811 119.132,351.753 119.304,351.685C119.476,351.617 119.644,351.543 119.808,351.463C119.972,351.383 120.122,351.307 120.258,351.235C120.394,351.163 120.498,351.099 120.57,351.043C120.714,350.939 120.786,350.763 120.786,350.515C120.786,350.419 120.768,350.319 120.732,350.215C120.696,350.111 120.642,350.017 120.57,349.933C120.498,349.849 120.41,349.781 120.306,349.729C120.202,349.677 120.086,349.651 119.958,349.651C119.846,349.651 119.726,349.689 119.598,349.765C119.47,349.841 119.35,349.965 119.238,350.137C119.126,350.309 119.032,350.537 118.956,350.821C118.88,351.105 118.842,351.451 118.842,351.859Z" style="fill:rgb(242,242,242);fill-rule:nonzero;"/>
            <path d="M128.022,349.651C128.006,349.699 127.96,349.773 127.884,349.873C127.808,349.973 127.718,350.077 127.614,350.185C127.51,350.293 127.4,350.397 127.284,350.497C127.168,350.597 127.066,350.671 126.978,350.719C126.922,350.743 126.888,350.735 126.876,350.695C126.864,350.655 126.858,350.615 126.858,350.575C126.858,350.511 126.824,350.431 126.756,350.335C126.688,350.239 126.592,350.145 126.468,350.053C126.344,349.961 126.198,349.883 126.03,349.819C125.862,349.755 125.678,349.723 125.478,349.723C125.134,349.723 124.854,349.909 124.638,350.281C124.422,350.653 124.314,351.147 124.314,351.763C124.314,352.139 124.372,352.477 124.488,352.777C124.604,353.077 124.764,353.329 124.968,353.533C125.172,353.737 125.418,353.893 125.706,354.001C125.994,354.109 126.306,354.163 126.642,354.163C127.098,354.163 127.462,354.105 127.734,353.989C128.006,353.873 128.23,353.739 128.406,353.587C128.414,353.587 128.42,353.583 128.424,353.575C128.428,353.567 128.434,353.563 128.442,353.563C128.482,353.563 128.51,353.577 128.526,353.605C128.542,353.633 128.55,353.667 128.55,353.707C128.55,353.739 128.542,353.763 128.526,353.779C128.406,353.875 128.24,354.003 128.028,354.163C127.816,354.323 127.574,354.481 127.302,354.637C127.03,354.793 126.746,354.927 126.45,355.039C126.154,355.151 125.862,355.207 125.574,355.207C124.75,355.207 124.108,354.967 123.648,354.487C123.188,354.007 122.958,353.351 122.958,352.519C122.958,351.887 123.08,351.355 123.324,350.923C123.568,350.491 123.868,350.145 124.224,349.885C124.58,349.625 124.958,349.439 125.358,349.327C125.758,349.215 126.11,349.159 126.414,349.159C126.662,349.159 126.884,349.177 127.08,349.213C127.276,349.249 127.444,349.293 127.584,349.345C127.724,349.397 127.832,349.451 127.908,349.507C127.984,349.563 128.022,349.611 128.022,349.651Z" style="fill:rgb(242,242,242);fill-rule:nonzero;"/>
            <path d="M133.902,353.695C133.814,353.791 133.678,353.923 133.494,354.091C133.31,354.259 133.088,354.427 132.828,354.595C132.568,354.763 132.278,354.907 131.958,355.027C131.638,355.147 131.298,355.207 130.938,355.207C130.61,355.207 130.29,355.157 129.978,355.057C129.666,354.957 129.386,354.805 129.138,354.601C128.89,354.397 128.692,354.137 128.544,353.821C128.396,353.505 128.322,353.127 128.322,352.687C128.322,352.327 128.346,352.017 128.394,351.757C128.442,351.497 128.506,351.269 128.586,351.073C128.666,350.877 128.756,350.709 128.856,350.569C128.956,350.429 129.058,350.303 129.162,350.191C129.29,350.047 129.446,349.911 129.63,349.783C129.814,349.655 130.012,349.539 130.224,349.435C130.436,349.331 130.66,349.249 130.896,349.189C131.132,349.129 131.37,349.099 131.61,349.099C132.042,349.099 132.38,349.171 132.624,349.315C132.868,349.459 132.99,349.659 132.99,349.915C132.99,350.075 132.942,350.223 132.846,350.359C132.926,350.335 133.028,350.295 133.152,350.239C133.276,350.183 133.402,350.125 133.53,350.065C133.658,350.005 133.772,349.951 133.872,349.903C133.972,349.855 134.038,349.819 134.07,349.795C134.086,349.779 134.104,349.773 134.124,349.777C134.144,349.781 134.154,349.795 134.154,349.819C134.154,349.923 134.134,350.009 134.094,350.077C134.054,350.145 134.006,350.199 133.95,350.239C133.822,350.319 133.638,350.419 133.398,350.539C133.158,350.659 132.892,350.785 132.6,350.917C132.308,351.049 132.006,351.181 131.694,351.313C131.382,351.445 131.088,351.571 130.812,351.691C130.536,351.811 130.296,351.917 130.092,352.009C129.888,352.101 129.75,352.167 129.678,352.207C129.678,352.479 129.732,352.733 129.84,352.969C129.948,353.205 130.098,353.411 130.29,353.587C130.482,353.763 130.712,353.901 130.98,354.001C131.248,354.101 131.542,354.151 131.862,354.151C132.15,354.151 132.41,354.121 132.642,354.061C132.874,354.001 133.07,353.933 133.23,353.857C133.39,353.781 133.516,353.713 133.608,353.653C133.7,353.593 133.75,353.563 133.758,353.563C133.79,353.563 133.822,353.577 133.854,353.605C133.886,353.633 133.902,353.663 133.902,353.695ZM129.678,351.859C129.814,351.811 129.968,351.753 130.14,351.685C130.312,351.617 130.48,351.543 130.644,351.463C130.808,351.383 130.958,351.307 131.094,351.235C131.23,351.163 131.334,351.099 131.406,351.043C131.55,350.939 131.622,350.763 131.622,350.515C131.622,350.419 131.604,350.319 131.568,350.215C131.532,350.111 131.478,350.017 131.406,349.933C131.334,349.849 131.246,349.781 131.142,349.729C131.038,349.677 130.922,349.651 130.794,349.651C130.682,349.651 130.562,349.689 130.434,349.765C130.306,349.841 130.186,349.965 130.074,350.137C129.962,350.309 129.868,350.537 129.792,350.821C129.716,351.105 129.678,351.451 129.678,351.859Z" style="fill:rgb(242,242,242);fill-rule:nonzero;"/>
            <path d="M135.69,353.011C135.69,353.179 135.694,353.341 135.702,353.497C135.71,353.653 135.738,353.787 135.786,353.899C135.834,354.011 135.906,354.101 136.002,354.169C136.098,354.237 136.234,354.271 136.41,354.271C136.498,354.271 136.598,354.261 136.71,354.241C136.822,354.221 136.928,354.195 137.028,354.163C137.128,354.131 137.216,354.099 137.292,354.067C137.368,354.035 137.414,354.011 137.43,353.995C137.454,353.971 137.47,353.971 137.478,353.995C137.486,354.019 137.488,354.049 137.484,354.085C137.48,354.121 137.47,354.157 137.454,354.193C137.438,354.229 137.418,354.255 137.394,354.271C137.314,354.311 137.174,354.383 136.974,354.487C136.774,354.591 136.538,354.699 136.266,354.811C136.01,354.923 135.76,355.017 135.516,355.093C135.272,355.169 135.07,355.207 134.91,355.207C134.726,355.207 134.582,355.151 134.478,355.039C134.374,354.927 134.322,354.787 134.322,354.619C134.322,354.563 134.324,354.515 134.328,354.475C134.332,354.435 134.338,354.383 134.346,354.319C134.354,354.239 134.368,354.093 134.388,353.881C134.408,353.669 134.428,353.431 134.448,353.167C134.468,352.903 134.486,352.637 134.502,352.369C134.518,352.101 134.526,351.871 134.526,351.679L134.526,351.259C134.526,351.051 134.514,350.867 134.49,350.707C134.466,350.547 134.426,350.423 134.37,350.335C134.33,350.279 134.28,350.233 134.22,350.197C134.16,350.161 134.086,350.143 133.998,350.143C133.95,350.143 133.902,350.153 133.854,350.173C133.806,350.193 133.77,350.203 133.746,350.203C133.73,350.203 133.704,350.179 133.668,350.131C133.632,350.083 133.634,350.047 133.674,350.023C133.73,349.983 133.846,349.919 134.022,349.831C134.198,349.743 134.39,349.647 134.598,349.543C134.822,349.431 135.038,349.333 135.246,349.249C135.454,349.165 135.602,349.123 135.69,349.123C135.778,349.123 135.838,349.149 135.87,349.201C135.902,349.253 135.918,349.311 135.918,349.375L135.918,349.423C135.918,349.503 135.906,349.631 135.882,349.807C135.858,349.983 135.832,350.199 135.804,350.455C135.776,350.711 135.75,351.007 135.726,351.343C135.702,351.679 135.69,352.043 135.69,352.435L135.69,353.011ZM135.21,346.771C135.25,346.779 135.316,346.823 135.408,346.903C135.5,346.983 135.594,347.075 135.69,347.179C135.786,347.283 135.87,347.383 135.942,347.479C136.014,347.575 136.05,347.639 136.05,347.671C136.05,347.711 136.002,347.771 135.906,347.851C135.81,347.931 135.7,348.013 135.576,348.097C135.452,348.181 135.332,348.255 135.216,348.319C135.1,348.383 135.018,348.415 134.97,348.415C134.946,348.415 134.888,348.377 134.796,348.301C134.704,348.225 134.61,348.139 134.514,348.043C134.418,347.947 134.332,347.853 134.256,347.761C134.18,347.669 134.142,347.607 134.142,347.575C134.142,347.535 134.194,347.473 134.298,347.389C134.402,347.305 134.516,347.217 134.64,347.125C134.764,347.033 134.884,346.953 135,346.885C135.116,346.817 135.186,346.779 135.21,346.771Z" style="fill:rgb(242,242,242);fill-rule:nonzero;"/>
            <path d="M140.142,353.767C140.174,353.719 140.236,353.621 140.328,353.473C140.42,353.325 140.524,353.143 140.64,352.927C140.756,352.711 140.876,352.477 141,352.225C141.124,351.973 141.238,351.719 141.342,351.463C141.446,351.207 141.532,350.965 141.6,350.737C141.668,350.509 141.702,350.311 141.702,350.143C141.702,350.015 141.686,349.913 141.654,349.837C141.622,349.761 141.576,349.703 141.516,349.663C141.456,349.623 141.386,349.595 141.306,349.579C141.226,349.563 141.142,349.555 141.054,349.555C141.006,349.555 140.958,349.559 140.91,349.567C140.862,349.575 140.814,349.587 140.766,349.603C140.718,349.619 140.68,349.613 140.652,349.585C140.624,349.557 140.61,349.535 140.61,349.519C140.61,349.487 140.664,349.447 140.772,349.399C140.88,349.351 141.028,349.307 141.216,349.267C141.404,349.227 141.62,349.193 141.864,349.165C142.108,349.137 142.362,349.123 142.626,349.123C143.002,349.123 143.19,349.247 143.19,349.495C143.19,349.607 143.116,349.799 142.968,350.071C142.82,350.343 142.632,350.661 142.404,351.025C142.176,351.389 141.924,351.775 141.648,352.183C141.372,352.591 141.102,352.985 140.838,353.365C140.574,353.745 140.332,354.095 140.112,354.415C139.892,354.735 139.726,354.983 139.614,355.159C139.59,355.191 139.502,355.207 139.35,355.207C139.286,355.207 139.244,355.197 139.224,355.177C139.204,355.157 139.186,355.123 139.17,355.075C139.098,354.851 139.016,354.603 138.924,354.331C138.832,354.059 138.734,353.783 138.63,353.503C138.526,353.223 138.42,352.945 138.312,352.669C138.204,352.393 138.098,352.135 137.994,351.895C137.714,351.223 137.476,350.753 137.28,350.485C137.084,350.217 136.902,350.083 136.734,350.083C136.686,350.083 136.64,350.091 136.596,350.107C136.552,350.123 136.51,350.139 136.47,350.155C136.454,350.155 136.432,350.137 136.404,350.101C136.376,350.065 136.37,350.039 136.386,350.023C136.394,350.015 136.47,349.963 136.614,349.867C136.758,349.771 136.926,349.665 137.118,349.549C137.31,349.433 137.504,349.327 137.7,349.231C137.896,349.135 138.054,349.087 138.174,349.087C138.358,349.087 138.526,349.257 138.678,349.597C138.83,349.937 139.01,350.407 139.218,351.007L140.142,353.767Z" style="fill:rgb(242,242,242);fill-rule:nonzero;"/>
            <path d="M148.89,353.695C148.802,353.791 148.666,353.923 148.482,354.091C148.298,354.259 148.076,354.427 147.816,354.595C147.556,354.763 147.266,354.907 146.946,355.027C146.626,355.147 146.286,355.207 145.926,355.207C145.598,355.207 145.278,355.157 144.966,355.057C144.654,354.957 144.374,354.805 144.126,354.601C143.878,354.397 143.68,354.137 143.532,353.821C143.384,353.505 143.31,353.127 143.31,352.687C143.31,352.327 143.334,352.017 143.382,351.757C143.43,351.497 143.494,351.269 143.574,351.073C143.654,350.877 143.744,350.709 143.844,350.569C143.944,350.429 144.046,350.303 144.15,350.191C144.278,350.047 144.434,349.911 144.618,349.783C144.802,349.655 145,349.539 145.212,349.435C145.424,349.331 145.648,349.249 145.884,349.189C146.12,349.129 146.358,349.099 146.598,349.099C147.03,349.099 147.368,349.171 147.612,349.315C147.856,349.459 147.978,349.659 147.978,349.915C147.978,350.075 147.93,350.223 147.834,350.359C147.914,350.335 148.016,350.295 148.14,350.239C148.264,350.183 148.39,350.125 148.518,350.065C148.646,350.005 148.76,349.951 148.86,349.903C148.96,349.855 149.026,349.819 149.058,349.795C149.074,349.779 149.092,349.773 149.112,349.777C149.132,349.781 149.142,349.795 149.142,349.819C149.142,349.923 149.122,350.009 149.082,350.077C149.042,350.145 148.994,350.199 148.938,350.239C148.81,350.319 148.626,350.419 148.386,350.539C148.146,350.659 147.88,350.785 147.588,350.917C147.296,351.049 146.994,351.181 146.682,351.313C146.37,351.445 146.076,351.571 145.8,351.691C145.524,351.811 145.284,351.917 145.08,352.009C144.876,352.101 144.738,352.167 144.666,352.207C144.666,352.479 144.72,352.733 144.828,352.969C144.936,353.205 145.086,353.411 145.278,353.587C145.47,353.763 145.7,353.901 145.968,354.001C146.236,354.101 146.53,354.151 146.85,354.151C147.138,354.151 147.398,354.121 147.63,354.061C147.862,354.001 148.058,353.933 148.218,353.857C148.378,353.781 148.504,353.713 148.596,353.653C148.688,353.593 148.738,353.563 148.746,353.563C148.778,353.563 148.81,353.577 148.842,353.605C148.874,353.633 148.89,353.663 148.89,353.695ZM144.666,351.859C144.802,351.811 144.956,351.753 145.128,351.685C145.3,351.617 145.468,351.543 145.632,351.463C145.796,351.383 145.946,351.307 146.082,351.235C146.218,351.163 146.322,351.099 146.394,351.043C146.538,350.939 146.61,350.763 146.61,350.515C146.61,350.419 146.592,350.319 146.556,350.215C146.52,350.111 146.466,350.017 146.394,349.933C146.322,349.849 146.234,349.781 146.13,349.729C146.026,349.677 145.91,349.651 145.782,349.651C145.67,349.651 145.55,349.689 145.422,349.765C145.294,349.841 145.174,349.965 145.062,350.137C144.95,350.309 144.856,350.537 144.78,350.821C144.704,351.105 144.666,351.451 144.666,351.859Z" style="fill:rgb(242,242,242);fill-rule:nonzero;"/>
            <path d="M154.458,349.999C154.37,350.071 154.266,350.161 154.146,350.269C154.026,350.377 153.9,350.481 153.768,350.581C153.636,350.681 153.502,350.767 153.366,350.839C153.23,350.911 153.098,350.947 152.97,350.947C152.858,350.947 152.758,350.921 152.67,350.869C152.582,350.817 152.5,350.761 152.424,350.701C152.348,350.641 152.274,350.585 152.202,350.533C152.13,350.481 152.054,350.455 151.974,350.455C151.758,350.455 151.576,350.543 151.428,350.719C151.28,350.895 151.16,351.119 151.068,351.391C150.976,351.663 150.908,351.959 150.864,352.279C150.82,352.599 150.798,352.907 150.798,353.203C150.798,353.451 150.808,353.653 150.828,353.809C150.848,353.965 150.878,354.089 150.918,354.181C150.958,354.273 151.012,354.335 151.08,354.367C151.148,354.399 151.23,354.415 151.326,354.415C151.43,354.415 151.542,354.399 151.662,354.367C151.686,354.359 151.704,354.375 151.716,354.415C151.728,354.455 151.734,354.487 151.734,354.511C151.734,354.527 151.722,354.545 151.698,354.565C151.674,354.585 151.658,354.595 151.65,354.595C151.474,354.667 151.294,354.745 151.11,354.829C150.926,354.913 150.774,354.983 150.654,355.039C150.542,355.087 150.408,355.139 150.252,355.195C150.096,355.251 149.962,355.279 149.85,355.279C149.722,355.279 149.616,355.259 149.532,355.219C149.448,355.179 149.406,355.139 149.406,355.099C149.406,355.059 149.416,355.023 149.436,354.991C149.456,354.959 149.474,354.899 149.49,354.811C149.506,354.691 149.524,354.549 149.544,354.385C149.564,354.221 149.584,354.043 149.604,353.851C149.624,353.659 149.64,353.461 149.652,353.257C149.664,353.053 149.67,352.851 149.67,352.651C149.67,352.203 149.656,351.823 149.628,351.511C149.6,351.199 149.55,350.947 149.478,350.755C149.406,350.563 149.308,350.425 149.184,350.341C149.06,350.257 148.902,350.215 148.71,350.215L148.602,350.215C148.57,350.215 148.538,350.219 148.506,350.227C148.458,350.227 148.434,350.203 148.434,350.155C148.434,350.107 148.458,350.071 148.506,350.047C148.594,349.991 148.73,349.909 148.914,349.801C149.098,349.693 149.288,349.589 149.484,349.489C149.68,349.389 149.87,349.299 150.054,349.219C150.238,349.139 150.374,349.099 150.462,349.099C150.566,349.099 150.654,349.133 150.726,349.201C150.798,349.269 150.852,349.355 150.888,349.459C150.924,349.563 150.95,349.681 150.966,349.813C150.982,349.945 150.99,350.075 150.99,350.203C150.99,350.299 150.988,350.399 150.984,350.503C150.98,350.607 150.978,350.719 150.978,350.839C151.338,350.311 151.662,349.901 151.95,349.609C152.238,349.317 152.51,349.171 152.766,349.171C152.862,349.171 152.956,349.211 153.048,349.291C153.14,349.371 153.238,349.461 153.342,349.561C153.446,349.661 153.554,349.751 153.666,349.831C153.778,349.911 153.894,349.951 154.014,349.951C154.118,349.951 154.194,349.939 154.242,349.915C154.29,349.891 154.33,349.871 154.362,349.855C154.426,349.855 154.458,349.899 154.458,349.987L154.458,349.999Z" style="fill:rgb(242,242,242);fill-rule:nonzero;"/>
        </g>
        <g transform="matrix(1,0,0,1,-56.9315,-51.4025)">
            <text x="67.734px" y="355.099px" style="font-family:'Luminari-Regular', 'Luminari';font-size:12px;fill:rgb(242,242,242);">V<tspan x="76.674px 84.426px " y="355.099px 355.099px ">CM</tspan>C Receiver</text>
        </g>
        <g transform="matrix(0.0220901,0,0,0.0250573,-15.5477,284.921)">
            <g transform="matrix(1,0,0,1,-143.343,98.6554)">
                <ellipse cx="360.896" cy="293.762" rx="136.961" ry="230.443" style="stroke:rgb(243,243,243);stroke-width:63.3px;"/>
            </g>
            <g transform="matrix(1,0,0,1,445.551,98.6554)">
                <ellipse cx="360.896" cy="293.762" rx="136.961" ry="230.443" style="stroke:rgb(243,243,243);stroke-width:63.3px;"/>
            </g>
            <g transform="matrix(1,0,0,1,-34.3236,-20.6488)">
                <ellipse cx="546.324" cy="643.509" rx="431.408" ry="296.899" style="stroke:rgb(243,243,243);stroke-width:63.3px;"/>
            </g>
            <circle cx="406.664" cy="569.758" r="105.336" style="stroke:rgb(243,243,243);stroke-width:63.3px;"/>
            <g transform="matrix(1,0,0,1,210.672,0)">
                <circle cx="406.664" cy="569.758" r="105.336" style="stroke:rgb(243,243,243);stroke-width:63.3px;"/>
            </g>
            <g transform="matrix(1,0,0,1,-53.1856,50.0357)">
                <ellipse cx="565.186" cy="671.455" rx="210.672" ry="98.631" style="fill:rgb(5,5,5);stroke:rgb(243,243,243);stroke-width:63.3px;"/>
            </g>
            <g transform="matrix(51.2,0,0,45.1371,0.670978,88.9676)">
                <path d="M12.057,13.791C12.057,13.668 11.958,13.568 11.835,13.568L8.139,13.568C8.016,13.568 7.916,13.668 7.916,13.791L7.916,14.236C7.916,14.359 8.016,14.458 8.139,14.458L11.835,14.458C11.958,14.458 12.057,14.359 12.057,14.236L12.057,13.791Z" style="fill:rgb(242,242,242);"/>
            </g>
        </g>
    </g>
</svg>
