<?xml version="1.0" encoding="UTF-8" standalone="no"?>
<!DOCTYPE svg PUBLIC "-//W3C//DTD SVG 1.1//EN" "http://www.w3.org/Graphics/SVG/1.1/DTD/svg11.dtd">
<svg width="100%" height="100%" viewBox="0 0 105 380" version="1.1" xmlns="http://www.w3.org/2000/svg" xmlns:xlink="http://www.w3.org/1999/xlink" xml:space="preserve" xmlns:serif="http://www.serif.com/" style="fill-rule:evenodd;clip-rule:evenodd;stroke-linecap:round;stroke-linejoin:round;stroke-miterlimit:1.5;">
    <g transform="matrix(0.504598,0,0,2.01589,-26.52,-120.797)">
        <rect x="52.556" y="59.922" width="208.087" height="188.503" style="fill:rgb(102,126,153);"/>
    </g>
    <g transform="matrix(1,0,0,1,-65.22,48.3896)">
        <g id="Reset-input" serif:id="Reset#input" transform="matrix(0.175002,0,0,0.175002,94.1072,263.652)">
            <rect x="53.94" y="106.916" width="161.978" height="161.978" style="fill:rgb(217,217,217);"/>
        </g>
        <g transform="matrix(1,0,0,1,20.4271,159.225)">
            <path d="M89.618,118.306L89.618,113.236L90.638,113.236L90.638,113.776C90.845,113.59 91.048,113.443 91.248,113.336C91.448,113.23 91.695,113.176 91.988,113.176L91.988,114.256C91.888,114.216 91.785,114.196 91.678,114.196C91.571,114.196 91.456,114.215 91.333,114.251C91.21,114.288 91.098,114.35 90.998,114.436C90.891,114.523 90.805,114.636 90.738,114.776C90.671,114.916 90.638,115.09 90.638,115.296L90.638,118.306L89.618,118.306Z" style="fill-rule:nonzero;"/>
            <path d="M95.348,116.156L93.328,116.156L93.328,116.846C93.328,117.006 93.373,117.13 93.463,117.216C93.553,117.303 93.675,117.346 93.828,117.346C94.021,117.346 94.15,117.29 94.213,117.176C94.276,117.063 94.315,116.95 94.328,116.836L95.348,116.836C95.348,117.283 95.211,117.643 94.938,117.916C94.805,118.056 94.645,118.166 94.458,118.246C94.271,118.326 94.061,118.366 93.828,118.366C93.508,118.366 93.236,118.3 93.013,118.166C92.79,118.033 92.618,117.856 92.498,117.636C92.425,117.503 92.375,117.35 92.348,117.176C92.321,117.003 92.308,116.813 92.308,116.606L92.308,114.936C92.308,114.73 92.321,114.54 92.348,114.366C92.375,114.193 92.425,114.04 92.498,113.906C92.618,113.686 92.79,113.51 93.013,113.376C93.236,113.243 93.508,113.176 93.828,113.176C94.061,113.176 94.273,113.216 94.463,113.296C94.653,113.376 94.815,113.486 94.948,113.626C95.215,113.926 95.348,114.303 95.348,114.756L95.348,116.156ZM93.328,115.356L94.328,115.356L94.328,114.776C94.328,114.583 94.283,114.438 94.193,114.341C94.103,114.245 93.981,114.196 93.828,114.196C93.675,114.196 93.553,114.245 93.463,114.341C93.373,114.438 93.328,114.583 93.328,114.776L93.328,115.356Z" style="fill-rule:nonzero;"/>
            <path d="M97.948,114.656C97.941,114.483 97.886,114.353 97.783,114.266C97.68,114.18 97.561,114.136 97.428,114.136C97.268,114.136 97.145,114.188 97.058,114.291C96.971,114.395 96.928,114.513 96.928,114.646C96.928,114.74 96.951,114.831 96.998,114.921C97.045,115.011 97.165,115.093 97.358,115.166L97.958,115.406C98.338,115.553 98.6,115.753 98.743,116.006C98.886,116.26 98.958,116.536 98.958,116.836C98.958,117.05 98.92,117.248 98.843,117.431C98.766,117.615 98.661,117.776 98.528,117.916C98.395,118.056 98.235,118.166 98.048,118.246C97.861,118.326 97.658,118.366 97.438,118.366C97.025,118.366 96.678,118.236 96.398,117.976C96.258,117.85 96.145,117.691 96.058,117.501C95.971,117.311 95.925,117.09 95.918,116.836L96.878,116.836C96.898,116.976 96.946,117.106 97.023,117.226C97.1,117.346 97.235,117.406 97.428,117.406C97.575,117.406 97.706,117.358 97.823,117.261C97.94,117.165 97.998,117.03 97.998,116.856C97.998,116.716 97.961,116.596 97.888,116.496C97.815,116.396 97.681,116.31 97.488,116.236L96.998,116.056C96.678,115.936 96.426,115.758 96.243,115.521C96.06,115.285 95.968,114.996 95.968,114.656C95.968,114.443 96.008,114.245 96.088,114.061C96.168,113.878 96.278,113.72 96.418,113.586C96.551,113.453 96.708,113.351 96.888,113.281C97.068,113.211 97.261,113.176 97.468,113.176C97.675,113.176 97.866,113.213 98.043,113.286C98.22,113.36 98.371,113.463 98.498,113.596C98.625,113.73 98.725,113.888 98.798,114.071C98.871,114.255 98.908,114.45 98.908,114.656L97.948,114.656Z" style="fill-rule:nonzero;"/>
            <path d="M102.568,116.156L100.548,116.156L100.548,116.846C100.548,117.006 100.593,117.13 100.683,117.216C100.773,117.303 100.895,117.346 101.048,117.346C101.241,117.346 101.37,117.29 101.433,117.176C101.496,117.063 101.535,116.95 101.548,116.836L102.568,116.836C102.568,117.283 102.431,117.643 102.158,117.916C102.025,118.056 101.865,118.166 101.678,118.246C101.491,118.326 101.281,118.366 101.048,118.366C100.728,118.366 100.456,118.3 100.233,118.166C100.01,118.033 99.838,117.856 99.718,117.636C99.645,117.503 99.595,117.35 99.568,117.176C99.541,117.003 99.528,116.813 99.528,116.606L99.528,114.936C99.528,114.73 99.541,114.54 99.568,114.366C99.595,114.193 99.645,114.04 99.718,113.906C99.838,113.686 100.01,113.51 100.233,113.376C100.456,113.243 100.728,113.176 101.048,113.176C101.281,113.176 101.493,113.216 101.683,113.296C101.873,113.376 102.035,113.486 102.168,113.626C102.435,113.926 102.568,114.303 102.568,114.756L102.568,116.156ZM100.548,115.356L101.548,115.356L101.548,114.776C101.548,114.583 101.503,114.438 101.413,114.341C101.323,114.245 101.201,114.196 101.048,114.196C100.895,114.196 100.773,114.245 100.683,114.341C100.593,114.438 100.548,114.583 100.548,114.776L100.548,115.356Z" style="fill-rule:nonzero;"/>
            <path d="M103.318,113.236L103.318,111.696L104.338,111.696L104.338,113.236L104.968,113.236L104.968,114.036L104.338,114.036L104.338,116.846C104.338,116.966 104.35,117.06 104.373,117.126C104.396,117.193 104.435,117.243 104.488,117.276C104.541,117.31 104.606,117.33 104.683,117.336C104.76,117.343 104.855,117.346 104.968,117.346L104.968,118.306L104.548,118.306C104.315,118.306 104.12,118.27 103.963,118.196C103.806,118.123 103.681,118.03 103.588,117.916C103.495,117.803 103.426,117.675 103.383,117.531C103.34,117.388 103.318,117.25 103.318,117.116L103.318,114.036L102.808,114.036L102.808,113.236L103.318,113.236Z" style="fill-rule:nonzero;"/>
        </g>
        <g transform="matrix(1,0,0,1,20.4271,159.225)">
            <text x="89.198px" y="118.306px" style="font-family:'DINCondensed-Bold', 'DIN Condensed';font-weight:700;font-stretch:condensed;font-size:10px;">reset</text>
        </g>
        <g id="Clock-input-M" serif:id="Clock#input$M" transform="matrix(0.175002,0,0,0.175002,94.1072,214.527)">
            <rect x="53.94" y="106.916" width="161.978" height="161.978" style="fill:rgb(217,217,217);"/>
        </g>
        <g transform="matrix(1,0,0,1,20.7463,110.854)">
            <path d="M90.698,116.846C90.698,117.006 90.743,117.13 90.833,117.216C90.923,117.303 91.045,117.346 91.198,117.346C91.391,117.346 91.52,117.29 91.583,117.176C91.646,117.063 91.685,116.95 91.698,116.836L92.718,116.836C92.718,117.283 92.581,117.643 92.308,117.916C92.175,118.056 92.015,118.166 91.828,118.246C91.641,118.326 91.431,118.366 91.198,118.366C90.878,118.366 90.606,118.3 90.383,118.166C90.16,118.033 89.988,117.856 89.868,117.636C89.795,117.503 89.745,117.35 89.718,117.176C89.691,117.003 89.678,116.813 89.678,116.606L89.678,114.936C89.678,114.73 89.691,114.54 89.718,114.366C89.745,114.193 89.795,114.04 89.868,113.906C89.988,113.686 90.16,113.51 90.383,113.376C90.606,113.243 90.878,113.176 91.198,113.176C91.431,113.176 91.643,113.216 91.833,113.296C92.023,113.376 92.185,113.486 92.318,113.626C92.585,113.926 92.718,114.316 92.718,114.796L91.698,114.796C91.698,114.59 91.653,114.438 91.563,114.341C91.473,114.245 91.351,114.196 91.198,114.196C91.045,114.196 90.923,114.245 90.833,114.341C90.743,114.438 90.698,114.583 90.698,114.776L90.698,116.846Z" style="fill-rule:nonzero;"/>
            <path d="M93.138,111.186L94.158,111.186L94.158,116.876C94.158,117.07 94.193,117.201 94.263,117.271C94.333,117.341 94.465,117.386 94.658,117.406L94.658,118.366C94.425,118.366 94.215,118.348 94.028,118.311C93.841,118.275 93.681,118.203 93.548,118.096C93.415,117.996 93.313,117.855 93.243,117.671C93.173,117.488 93.138,117.246 93.138,116.946L93.138,111.186Z" style="fill-rule:nonzero;"/>
            <path d="M94.968,114.936C94.968,114.73 94.981,114.54 95.008,114.366C95.035,114.193 95.085,114.04 95.158,113.906C95.278,113.686 95.45,113.51 95.673,113.376C95.896,113.243 96.168,113.176 96.488,113.176C96.808,113.176 97.08,113.243 97.303,113.376C97.526,113.51 97.698,113.686 97.818,113.906C97.891,114.04 97.941,114.193 97.968,114.366C97.995,114.54 98.008,114.73 98.008,114.936L98.008,116.606C98.008,116.813 97.995,117.003 97.968,117.176C97.941,117.35 97.891,117.503 97.818,117.636C97.698,117.856 97.526,118.033 97.303,118.166C97.08,118.3 96.808,118.366 96.488,118.366C96.168,118.366 95.896,118.3 95.673,118.166C95.45,118.033 95.278,117.856 95.158,117.636C95.085,117.503 95.035,117.35 95.008,117.176C94.981,117.003 94.968,116.813 94.968,116.606L94.968,114.936ZM95.988,116.766C95.988,116.96 96.033,117.105 96.123,117.201C96.213,117.298 96.335,117.346 96.488,117.346C96.641,117.346 96.763,117.298 96.853,117.201C96.943,117.105 96.988,116.96 96.988,116.766L96.988,114.776C96.988,114.583 96.943,114.438 96.853,114.341C96.763,114.245 96.641,114.196 96.488,114.196C96.335,114.196 96.213,114.245 96.123,114.341C96.033,114.438 95.988,114.583 95.988,114.776L95.988,116.766Z" style="fill-rule:nonzero;"/>
            <path d="M99.838,116.846C99.838,117.006 99.883,117.13 99.973,117.216C100.063,117.303 100.185,117.346 100.338,117.346C100.531,117.346 100.66,117.29 100.723,117.176C100.786,117.063 100.825,116.95 100.838,116.836L101.858,116.836C101.858,117.283 101.721,117.643 101.448,117.916C101.315,118.056 101.155,118.166 100.968,118.246C100.781,118.326 100.571,118.366 100.338,118.366C100.018,118.366 99.746,118.3 99.523,118.166C99.3,118.033 99.128,117.856 99.008,117.636C98.935,117.503 98.885,117.35 98.858,117.176C98.831,117.003 98.818,116.813 98.818,116.606L98.818,114.936C98.818,114.73 98.831,114.54 98.858,114.366C98.885,114.193 98.935,114.04 99.008,113.906C99.128,113.686 99.3,113.51 99.523,113.376C99.746,113.243 100.018,113.176 100.338,113.176C100.571,113.176 100.783,113.216 100.973,113.296C101.163,113.376 101.325,113.486 101.458,113.626C101.725,113.926 101.858,114.316 101.858,114.796L100.838,114.796C100.838,114.59 100.793,114.438 100.703,114.341C100.613,114.245 100.491,114.196 100.338,114.196C100.185,114.196 100.063,114.245 99.973,114.341C99.883,114.438 99.838,114.583 99.838,114.776L99.838,116.846Z" style="fill-rule:nonzero;"/>
            <path d="M102.338,118.306L102.338,111.186L103.358,111.186L103.358,115.446L103.378,115.446L104.608,113.236L105.628,113.236L104.418,115.296L105.878,118.306L104.768,118.306L103.848,116.116L103.358,116.886L103.358,118.306L102.338,118.306Z" style="fill-rule:nonzero;"/>
        </g>
        <g transform="matrix(1,0,0,1,20.7463,110.854)">
            <text x="89.198px" y="118.306px" style="font-family:'DINCondensed-Bold', 'DIN Condensed';font-weight:700;font-stretch:condensed;font-size:10px;">c<tspan x="92.778px 94.638px 98.338px 101.918px " y="118.306px 118.306px 118.306px 118.306px ">lock</tspan></text>
        </g>
    </g>
    <g id="Display-oled-83x170" serif:id="Display#oled$83x170" transform="matrix(1.77099,0,0,7.31559,-144.317,-448.262)">
        <rect x="87.136" y="70.02" width="47.996" height="23.511" style="fill:rgb(19,19,19);"/>
    </g>
    <g transform="matrix(0.816456,0,0,0.816456,19.7886,-226.739)">
        <g transform="matrix(1,0,0,1,-68.234,-49.4764)">
            <path d="M78.731,354.791C78.506,354.918 78.222,355.05 77.879,355.187C77.536,355.325 77.178,355.393 76.806,355.393C76.58,355.393 76.419,355.374 76.321,355.334C76.223,355.295 76.174,355.217 76.174,355.099C76.174,355.06 76.181,355.016 76.196,354.967C76.21,354.918 76.228,354.876 76.247,354.842C76.267,354.808 76.291,354.783 76.321,354.768C76.35,354.754 76.379,354.766 76.409,354.805C76.468,354.884 76.556,354.928 76.673,354.938C76.791,354.947 76.918,354.952 77.056,354.952C77.261,354.942 77.447,354.871 77.614,354.739C77.781,354.607 77.903,354.428 77.981,354.203C78.021,354.065 78.06,353.85 78.099,353.556C78.138,353.262 78.17,352.909 78.195,352.498C78.219,352.086 78.239,351.628 78.253,351.123C78.268,350.619 78.275,350.087 78.275,349.529C78.275,348.255 78.241,347.263 78.173,346.552C78.104,345.842 78.016,345.433 77.908,345.325C77.83,345.266 77.732,345.22 77.614,345.186C77.496,345.151 77.376,345.129 77.254,345.119C77.131,345.11 77.011,345.105 76.894,345.105C76.776,345.105 76.683,345.11 76.615,345.119C76.546,345.129 76.492,345.11 76.453,345.061C76.414,345.012 76.394,344.963 76.394,344.914C76.394,344.737 76.458,344.649 76.585,344.649C76.654,344.649 76.776,344.656 76.953,344.671C77.129,344.686 77.332,344.701 77.563,344.715C77.793,344.73 78.035,344.742 78.29,344.752C78.545,344.762 78.775,344.767 78.981,344.767C79.236,344.767 79.473,344.728 79.694,344.649C79.914,344.571 80.142,344.483 80.377,344.385C80.612,344.287 80.87,344.198 81.149,344.12C81.428,344.042 81.754,344.002 82.126,344.002C82.587,344.002 83.018,344.042 83.42,344.12C83.821,344.198 84.169,344.318 84.463,344.48C84.757,344.642 84.99,344.85 85.161,345.105C85.333,345.36 85.419,345.658 85.419,346.001C85.419,346.393 85.335,346.748 85.169,347.067C85.002,347.385 84.794,347.667 84.544,347.912C84.294,348.157 84.03,348.365 83.75,348.537C83.471,348.708 83.219,348.838 82.993,348.926C83.356,348.956 83.753,349.017 84.184,349.11C84.615,349.203 85.017,349.345 85.389,349.536C85.761,349.727 86.073,349.979 86.322,350.293C86.572,350.607 86.697,350.999 86.697,351.469C86.697,351.841 86.621,352.196 86.469,352.534C86.318,352.872 86.114,353.186 85.859,353.475C85.605,353.764 85.313,354.029 84.985,354.269C84.657,354.509 84.314,354.712 83.956,354.879C83.598,355.045 83.236,355.175 82.868,355.268C82.501,355.361 82.161,355.408 81.847,355.408C81.661,355.408 81.428,355.391 81.149,355.356C80.87,355.322 80.583,355.276 80.289,355.217C79.995,355.158 79.708,355.092 79.429,355.018C79.15,354.945 78.917,354.869 78.731,354.791ZM79.995,351.792C80.005,352.302 80.02,352.669 80.039,352.895C80.059,353.12 80.078,353.291 80.098,353.409C80.127,353.576 80.198,353.74 80.311,353.901C80.424,354.063 80.571,354.212 80.752,354.35C80.933,354.487 81.144,354.597 81.384,354.68C81.624,354.764 81.891,354.805 82.185,354.805C82.499,354.805 82.793,354.751 83.067,354.644C83.341,354.536 83.579,354.367 83.78,354.136C83.981,353.906 84.14,353.61 84.257,353.247C84.375,352.885 84.434,352.449 84.434,351.939C84.434,351.479 84.36,351.087 84.213,350.763C84.066,350.44 83.858,350.178 83.589,349.977C83.319,349.776 82.993,349.632 82.611,349.543C82.229,349.455 81.803,349.411 81.333,349.411C81.058,349.411 80.799,349.414 80.554,349.419C80.309,349.423 80.127,349.431 80.01,349.441C80,349.548 79.995,349.661 79.995,349.779L79.995,351.792ZM80.201,345.413C80.181,345.541 80.162,345.717 80.142,345.943C80.122,346.168 80.103,346.43 80.083,346.729C80.064,347.028 80.047,347.351 80.032,347.699C80.017,348.047 80.005,348.407 79.995,348.779C80.005,348.809 80.059,348.831 80.157,348.845C80.255,348.86 80.37,348.872 80.502,348.882C80.634,348.892 80.774,348.899 80.921,348.904C81.068,348.909 81.2,348.911 81.318,348.911C81.504,348.911 81.666,348.904 81.803,348.889C81.94,348.875 82.06,348.85 82.163,348.816C82.266,348.782 82.361,348.74 82.45,348.691C82.538,348.642 82.626,348.578 82.714,348.5C82.881,348.373 83.035,348.167 83.177,347.883C83.319,347.598 83.39,347.207 83.39,346.707C83.39,346.354 83.341,346.043 83.243,345.774C83.145,345.504 83.018,345.279 82.861,345.097C82.704,344.916 82.526,344.781 82.325,344.693C82.124,344.605 81.916,344.561 81.7,344.561C81.592,344.561 81.46,344.576 81.303,344.605C81.146,344.634 80.995,344.681 80.848,344.745C80.701,344.808 80.566,344.897 80.443,345.009C80.321,345.122 80.24,345.257 80.201,345.413Z" style="fill-rule:nonzero;"/>
            <path d="M92.268,352.806C92.238,352.64 92.209,352.459 92.179,352.263C92.15,352.067 92.121,351.88 92.091,351.704C92.062,351.528 92.035,351.376 92.01,351.248C91.986,351.121 91.969,351.038 91.959,350.999C91.802,351.057 91.626,351.126 91.43,351.204C91.234,351.283 91.038,351.368 90.842,351.462C90.646,351.555 90.46,351.648 90.283,351.741C90.107,351.834 89.96,351.92 89.843,351.998C89.617,352.145 89.446,352.292 89.328,352.439C89.211,352.586 89.152,352.762 89.152,352.968C89.152,353.252 89.235,353.502 89.402,353.718C89.568,353.933 89.828,354.041 90.181,354.041C90.367,354.041 90.56,354.007 90.761,353.938C90.962,353.869 91.148,353.791 91.32,353.703C91.491,353.615 91.641,353.527 91.768,353.438C91.895,353.35 91.983,353.282 92.032,353.233C92.111,353.154 92.172,353.088 92.216,353.034C92.26,352.98 92.277,352.904 92.268,352.806ZM91.841,350.528C91.783,350.224 91.714,349.953 91.636,349.712C91.557,349.472 91.459,349.272 91.342,349.11C91.224,348.948 91.082,348.826 90.915,348.742C90.749,348.659 90.543,348.618 90.298,348.618C90.083,348.618 89.884,348.657 89.703,348.735C89.522,348.813 89.365,348.907 89.233,349.014C89.1,349.122 88.997,349.23 88.924,349.338C88.85,349.445 88.809,349.529 88.799,349.588C88.789,349.666 88.745,349.705 88.667,349.705C88.53,349.705 88.402,349.656 88.285,349.558C88.167,349.46 88.108,349.343 88.108,349.205C88.108,349.127 88.118,349.068 88.138,349.029C88.363,348.902 88.637,348.764 88.961,348.618C89.284,348.471 89.62,348.333 89.967,348.206C90.315,348.079 90.661,347.973 91.004,347.89C91.347,347.807 91.655,347.765 91.93,347.765C92.341,347.765 92.657,347.824 92.878,347.941C93.098,348.059 93.262,348.226 93.37,348.441C93.478,348.657 93.544,348.909 93.568,349.198C93.593,349.487 93.615,349.798 93.635,350.131C93.664,350.631 93.703,351.114 93.752,351.579C93.801,352.045 93.875,352.456 93.973,352.814C94.071,353.171 94.195,353.46 94.347,353.681C94.499,353.901 94.688,354.012 94.913,354.012C95.021,354.012 95.139,353.992 95.266,353.953C95.393,353.914 95.516,353.867 95.633,353.813C95.751,353.759 95.856,353.705 95.949,353.651C96.042,353.598 96.104,353.561 96.133,353.541C96.221,353.541 96.275,353.585 96.295,353.674C96.295,353.723 96.285,353.767 96.265,353.806C96.246,353.825 96.172,353.874 96.045,353.953C95.918,354.031 95.761,354.124 95.575,354.232C95.388,354.34 95.183,354.455 94.957,354.577C94.732,354.7 94.509,354.815 94.289,354.923C94.068,355.031 93.865,355.119 93.679,355.187C93.492,355.256 93.345,355.29 93.238,355.29C93.11,355.29 93,355.239 92.907,355.136C92.814,355.033 92.733,354.896 92.664,354.724C92.596,354.553 92.537,354.355 92.488,354.129C92.439,353.904 92.395,353.669 92.356,353.424C92.179,353.571 91.954,353.745 91.68,353.945C91.405,354.146 91.107,354.335 90.783,354.511C90.46,354.688 90.129,354.837 89.791,354.96C89.453,355.082 89.127,355.143 88.814,355.143C88.549,355.143 88.319,355.102 88.123,355.018C87.927,354.935 87.763,354.825 87.631,354.688C87.498,354.55 87.4,354.391 87.337,354.21C87.273,354.029 87.241,353.84 87.241,353.644C87.241,353.331 87.337,353.073 87.528,352.872C87.719,352.672 88.015,352.463 88.417,352.248C88.603,352.15 88.863,352.02 89.196,351.858C89.529,351.697 89.869,351.533 90.217,351.366C90.565,351.199 90.888,351.04 91.187,350.888C91.486,350.736 91.704,350.616 91.841,350.528Z" style="fill-rule:nonzero;"/>
            <path d="M102.336,348.853C102.228,348.941 102.1,349.051 101.953,349.183C101.806,349.316 101.652,349.443 101.49,349.566C101.329,349.688 101.165,349.793 100.998,349.882C100.831,349.97 100.67,350.014 100.513,350.014C100.376,350.014 100.253,349.982 100.146,349.918C100.038,349.855 99.937,349.786 99.844,349.712C99.751,349.639 99.661,349.57 99.572,349.507C99.484,349.443 99.391,349.411 99.293,349.411C99.029,349.411 98.806,349.519 98.624,349.735C98.443,349.95 98.296,350.224 98.183,350.558C98.071,350.891 97.987,351.253 97.934,351.645C97.88,352.037 97.853,352.414 97.853,352.777C97.853,353.081 97.865,353.328 97.889,353.519C97.914,353.71 97.951,353.862 98,353.975C98.049,354.087 98.115,354.163 98.198,354.203C98.281,354.242 98.382,354.261 98.499,354.261C98.627,354.261 98.764,354.242 98.911,354.203C98.94,354.193 98.962,354.212 98.977,354.261C98.992,354.31 98.999,354.35 98.999,354.379C98.999,354.399 98.984,354.421 98.955,354.445C98.926,354.47 98.906,354.482 98.896,354.482C98.681,354.57 98.46,354.666 98.235,354.768C98.01,354.871 97.823,354.957 97.676,355.026C97.539,355.084 97.375,355.148 97.184,355.217C96.993,355.285 96.829,355.32 96.692,355.32C96.535,355.32 96.405,355.295 96.302,355.246C96.199,355.197 96.148,355.148 96.148,355.099C96.148,355.05 96.16,355.006 96.185,354.967C96.209,354.928 96.231,354.854 96.251,354.746C96.27,354.599 96.292,354.426 96.317,354.225C96.341,354.024 96.366,353.806 96.39,353.571C96.415,353.335 96.434,353.093 96.449,352.843C96.464,352.593 96.471,352.346 96.471,352.101C96.471,351.552 96.454,351.087 96.42,350.705C96.385,350.322 96.324,350.014 96.236,349.779C96.148,349.543 96.028,349.374 95.876,349.272C95.724,349.169 95.531,349.117 95.295,349.117L95.163,349.117C95.124,349.117 95.085,349.122 95.045,349.132C94.987,349.132 94.957,349.103 94.957,349.044C94.957,348.985 94.987,348.941 95.045,348.911C95.153,348.843 95.32,348.742 95.545,348.61C95.771,348.478 96.003,348.351 96.243,348.228C96.483,348.106 96.716,347.995 96.941,347.897C97.167,347.799 97.333,347.75 97.441,347.75C97.569,347.75 97.676,347.792 97.765,347.875C97.853,347.959 97.919,348.064 97.963,348.191C98.007,348.319 98.039,348.463 98.059,348.625C98.078,348.787 98.088,348.946 98.088,349.103C98.088,349.22 98.085,349.343 98.081,349.47C98.076,349.597 98.073,349.735 98.073,349.882C98.514,349.235 98.911,348.733 99.264,348.375C99.616,348.017 99.95,347.839 100.263,347.839C100.381,347.839 100.496,347.888 100.609,347.986C100.721,348.083 100.841,348.194 100.969,348.316C101.096,348.439 101.228,348.549 101.365,348.647C101.503,348.745 101.645,348.794 101.792,348.794C101.919,348.794 102.012,348.779 102.071,348.75C102.13,348.72 102.179,348.696 102.218,348.676C102.296,348.676 102.336,348.73 102.336,348.838L102.336,348.853Z" style="fill-rule:nonzero;"/>
            <path d="M112.639,355.173C112.541,355.173 112.408,355.178 112.242,355.187C112.075,355.197 111.896,355.205 111.705,355.209C111.514,355.214 111.318,355.222 111.117,355.231C110.917,355.241 110.733,355.246 110.566,355.246C109.91,355.246 109.268,355.146 108.641,354.945C108.014,354.744 107.458,354.43 106.973,354.004C106.488,353.578 106.096,353.029 105.797,352.358C105.498,351.687 105.349,350.881 105.349,349.94C105.349,349.078 105.513,348.314 105.841,347.647C106.169,346.981 106.603,346.423 107.142,345.972C107.681,345.521 108.288,345.178 108.964,344.943C109.64,344.708 110.331,344.59 111.037,344.59C111.193,344.59 111.406,344.6 111.676,344.62C111.945,344.639 112.215,344.664 112.484,344.693C112.754,344.723 112.994,344.754 113.204,344.789C113.415,344.823 113.55,344.855 113.609,344.884C113.736,344.541 113.878,344.238 114.035,343.973C114.192,343.708 114.407,343.508 114.682,343.37C114.76,343.341 114.848,343.336 114.946,343.356C115.044,343.375 115.093,343.424 115.093,343.503C115.044,343.591 115.007,343.645 114.983,343.664C114.958,343.684 114.927,343.694 114.887,343.694C114.77,343.694 114.655,343.748 114.542,343.855C114.429,343.963 114.324,344.103 114.226,344.274C114.128,344.446 114.042,344.642 113.969,344.862C113.895,345.083 113.839,345.306 113.8,345.531C113.78,345.639 113.758,345.764 113.734,345.906C113.709,346.048 113.687,346.187 113.667,346.325C113.648,346.462 113.633,346.594 113.623,346.722C113.614,346.849 113.609,346.957 113.609,347.045C113.609,347.094 113.589,347.135 113.55,347.17C113.511,347.204 113.471,347.221 113.432,347.221C113.373,347.221 113.305,347.192 113.226,347.133C113.187,346.888 113.106,346.643 112.984,346.398C112.862,346.153 112.69,345.933 112.47,345.737C112.249,345.541 111.975,345.384 111.646,345.266C111.318,345.149 110.929,345.09 110.478,345.09C109.998,345.09 109.569,345.203 109.192,345.428C108.815,345.653 108.496,345.962 108.237,346.354C107.977,346.746 107.779,347.211 107.641,347.75C107.504,348.289 107.436,348.867 107.436,349.485C107.436,350.337 107.521,351.094 107.693,351.755C107.864,352.417 108.102,352.978 108.406,353.438C108.709,353.899 109.072,354.249 109.493,354.489C109.915,354.729 110.375,354.849 110.875,354.849C111.208,354.849 111.534,354.795 111.852,354.688C112.171,354.58 112.465,354.433 112.734,354.247C113.004,354.061 113.244,353.845 113.454,353.6C113.665,353.355 113.829,353.095 113.947,352.821C113.966,352.782 114.018,352.752 114.101,352.733C114.184,352.713 114.226,352.723 114.226,352.762C114.226,352.89 114.184,353.064 114.101,353.284C114.018,353.504 113.922,353.725 113.814,353.945C113.707,354.166 113.599,354.367 113.491,354.548C113.383,354.729 113.31,354.849 113.271,354.908C113.241,354.977 113.204,355.067 113.16,355.18C113.116,355.293 113.077,355.42 113.043,355.562C113.008,355.704 112.977,355.851 112.947,356.003C112.918,356.155 112.903,356.304 112.903,356.451C112.903,356.608 112.884,356.706 112.844,356.745C112.805,356.785 112.722,356.804 112.594,356.804C112.487,356.804 112.438,356.728 112.448,356.576C112.457,356.424 112.482,356.25 112.521,356.055C112.56,355.859 112.599,355.675 112.639,355.503C112.678,355.332 112.678,355.222 112.639,355.173Z" style="fill-rule:nonzero;"/>
            <path d="M120.752,353.923C120.644,354.012 120.497,354.129 120.311,354.276C120.125,354.423 119.909,354.57 119.664,354.717C119.419,354.864 119.15,354.989 118.856,355.092C118.562,355.195 118.253,355.246 117.93,355.246C117.44,355.246 117.004,355.16 116.622,354.989C116.24,354.817 115.919,354.587 115.659,354.298C115.399,354.009 115.203,353.669 115.071,353.277C114.939,352.885 114.873,352.468 114.873,352.027C114.873,351.508 114.951,351.048 115.108,350.646C115.265,350.244 115.458,349.894 115.688,349.595C115.919,349.296 116.166,349.046 116.431,348.845C116.695,348.644 116.935,348.485 117.151,348.368C117.249,348.309 117.374,348.245 117.526,348.177C117.677,348.108 117.844,348.044 118.025,347.986C118.207,347.927 118.403,347.875 118.613,347.831C118.824,347.787 119.042,347.765 119.267,347.765C119.689,347.765 120.098,347.819 120.494,347.927C120.891,348.035 121.242,348.204 121.545,348.434C121.849,348.664 122.094,348.96 122.28,349.323C122.466,349.686 122.56,350.122 122.56,350.631C122.56,351.043 122.484,351.43 122.332,351.792C122.18,352.155 122.001,352.478 121.795,352.762C121.589,353.046 121.386,353.289 121.185,353.49C120.984,353.691 120.84,353.835 120.752,353.923ZM119.091,354.159C119.649,354.159 120.078,353.948 120.377,353.527C120.676,353.105 120.825,352.459 120.825,351.586C120.825,351.146 120.764,350.736 120.641,350.359C120.519,349.982 120.348,349.651 120.127,349.367C119.907,349.083 119.649,348.86 119.355,348.698C119.061,348.537 118.743,348.456 118.4,348.456C118.155,348.456 117.922,348.52 117.702,348.647C117.481,348.774 117.288,348.958 117.121,349.198C116.955,349.438 116.823,349.73 116.725,350.073C116.627,350.416 116.578,350.803 116.578,351.234C116.578,351.694 116.649,352.106 116.791,352.468C116.933,352.831 117.121,353.137 117.357,353.387C117.592,353.637 117.859,353.828 118.158,353.96C118.456,354.092 118.768,354.159 119.091,354.159Z" style="fill-rule:nonzero;"/>
            <path d="M123.177,349.029C123.098,349.009 123.062,348.97 123.067,348.911C123.071,348.853 123.108,348.818 123.177,348.809C123.206,348.799 123.299,348.764 123.456,348.706C123.613,348.647 123.801,348.578 124.022,348.5C124.242,348.422 124.473,348.338 124.713,348.25C124.953,348.162 125.166,348.088 125.352,348.03C125.47,347.99 125.55,347.963 125.595,347.949C125.639,347.934 125.675,347.927 125.705,347.927C125.734,347.927 125.769,347.939 125.808,347.963C125.847,347.988 125.857,348.025 125.837,348.074C125.808,348.152 125.776,348.338 125.742,348.632C125.707,348.926 125.675,349.252 125.646,349.61C125.617,349.967 125.59,350.322 125.565,350.675C125.541,351.028 125.528,351.307 125.528,351.513C125.528,352.297 125.695,352.902 126.028,353.328C126.361,353.754 126.881,353.967 127.586,353.967C127.949,353.967 128.25,353.894 128.49,353.747C128.73,353.6 128.914,353.429 129.041,353.233C129.129,353.105 129.188,352.826 129.218,352.395C129.218,352.316 129.22,352.214 129.225,352.086C129.23,351.959 129.235,351.824 129.24,351.682C129.244,351.54 129.249,351.403 129.254,351.27C129.259,351.138 129.262,351.028 129.262,350.94C129.271,350.489 129.259,350.07 129.225,349.683C129.191,349.296 129.139,349.009 129.071,348.823C129.041,348.706 128.982,348.647 128.894,348.647C128.835,348.647 128.779,348.649 128.725,348.654C128.671,348.659 128.639,348.618 128.63,348.529C128.63,348.5 128.659,348.468 128.718,348.434C128.777,348.399 128.889,348.348 129.056,348.279C129.213,348.221 129.387,348.162 129.578,348.103C129.769,348.044 129.957,347.995 130.144,347.956C130.33,347.917 130.496,347.89 130.643,347.875C130.79,347.861 130.898,347.868 130.967,347.897C130.967,347.907 130.974,347.919 130.989,347.934C131.003,347.949 131.016,347.981 131.025,348.03C131.045,348.088 131.033,348.272 130.989,348.581C130.945,348.889 130.898,349.392 130.849,350.087C130.81,350.567 130.776,351.033 130.746,351.484C130.717,351.934 130.702,352.277 130.702,352.512C130.702,352.973 130.788,353.338 130.959,353.607C131.131,353.877 131.344,354.012 131.599,354.012C131.765,354.012 131.924,353.977 132.076,353.909C132.228,353.84 132.338,353.781 132.407,353.732C132.485,353.732 132.527,353.767 132.532,353.835C132.537,353.904 132.52,353.948 132.48,353.967C132.333,354.065 132.13,354.188 131.87,354.335C131.611,354.482 131.341,354.622 131.062,354.754C130.783,354.886 130.516,354.999 130.261,355.092C130.006,355.185 129.801,355.231 129.644,355.231C129.565,355.231 129.494,355.18 129.431,355.077C129.367,354.974 129.316,354.849 129.276,354.702C129.237,354.555 129.208,354.403 129.188,354.247C129.169,354.09 129.159,353.953 129.159,353.835C128.953,353.982 128.718,354.136 128.453,354.298C128.189,354.46 127.914,354.612 127.63,354.754C127.346,354.896 127.064,355.011 126.785,355.099C126.506,355.187 126.249,355.231 126.013,355.231C125.416,355.231 124.926,355.072 124.544,354.754C124.162,354.435 123.97,354.021 123.97,353.512C123.97,353.404 123.98,353.242 124,353.027C124.019,352.811 124.044,352.566 124.073,352.292C124.103,352.018 124.127,351.724 124.147,351.41C124.166,351.097 124.176,350.793 124.176,350.499C124.176,350.048 124.105,349.703 123.963,349.463C123.821,349.223 123.637,349.088 123.412,349.058L123.177,349.029Z" style="fill-rule:nonzero;"/>
            <path d="M134.817,351.219C134.808,351.307 134.798,351.386 134.788,351.454C134.778,351.523 134.771,351.601 134.766,351.689C134.761,351.778 134.756,351.888 134.751,352.02C134.746,352.152 134.744,352.326 134.744,352.542C134.744,352.895 134.756,353.184 134.781,353.409C134.805,353.634 134.842,353.813 134.891,353.945C134.94,354.078 135.001,354.168 135.075,354.217C135.148,354.266 135.239,354.291 135.346,354.291C135.415,354.291 135.489,354.281 135.567,354.261C135.587,354.261 135.604,354.288 135.618,354.342C135.633,354.396 135.631,354.433 135.611,354.452C135.552,354.501 135.437,354.573 135.266,354.666C135.094,354.759 134.901,354.849 134.685,354.938C134.47,355.026 134.247,355.104 134.016,355.173C133.786,355.241 133.593,355.276 133.436,355.276C133.299,355.276 133.191,355.258 133.112,355.224C133.034,355.19 132.995,355.148 132.995,355.099C132.995,355.05 133,355.021 133.01,355.011C133.019,355.001 133.034,354.977 133.054,354.938C133.073,354.889 133.088,354.827 133.098,354.754C133.108,354.68 133.122,354.595 133.142,354.497C133.161,354.359 133.181,354.185 133.201,353.975C133.22,353.764 133.24,353.534 133.259,353.284C133.279,353.034 133.296,352.775 133.311,352.505C133.326,352.236 133.333,351.973 133.333,351.719C133.333,351.611 133.33,351.476 133.326,351.315C133.321,351.153 133.313,350.945 133.304,350.69C133.294,350.406 133.262,350.163 133.208,349.962C133.154,349.761 133.085,349.6 133.002,349.477C132.919,349.355 132.826,349.264 132.723,349.205C132.62,349.147 132.52,349.117 132.422,349.117L132.275,349.117C132.226,349.117 132.177,349.122 132.128,349.132C132.088,349.132 132.069,349.088 132.069,349C132.069,348.98 132.076,348.963 132.091,348.948C132.106,348.934 132.152,348.902 132.231,348.853C132.358,348.764 132.529,348.657 132.745,348.529C132.961,348.402 133.181,348.284 133.406,348.177C133.632,348.069 133.845,347.976 134.046,347.897C134.247,347.819 134.401,347.78 134.509,347.78C134.793,347.78 134.935,347.941 134.935,348.265C134.935,348.314 134.93,348.402 134.92,348.529C134.91,348.657 134.903,348.787 134.898,348.919C134.893,349.051 134.886,349.176 134.876,349.294C134.866,349.411 134.861,349.49 134.861,349.529C135.067,349.333 135.288,349.132 135.523,348.926C135.758,348.72 136.013,348.532 136.287,348.36C136.561,348.189 136.851,348.049 137.154,347.941C137.458,347.834 137.772,347.78 138.095,347.78C138.683,347.78 139.165,347.949 139.543,348.287C139.92,348.625 140.109,349.161 140.109,349.896C140.109,350.092 140.096,350.322 140.072,350.587C140.047,350.852 140.02,351.126 139.991,351.41C139.962,351.694 139.935,351.973 139.91,352.248C139.886,352.522 139.873,352.767 139.873,352.983C139.873,353.767 140.128,354.159 140.638,354.159C140.736,354.159 140.846,354.141 140.968,354.107C141.091,354.073 141.208,354.034 141.321,353.99C141.434,353.945 141.534,353.901 141.622,353.857C141.711,353.813 141.769,353.776 141.799,353.747C141.809,353.737 141.821,353.745 141.835,353.769C141.85,353.794 141.862,353.825 141.872,353.865C141.882,353.904 141.884,353.938 141.88,353.967C141.875,353.997 141.867,354.016 141.858,354.026C141.779,354.075 141.61,354.168 141.35,354.306C141.091,354.443 140.802,354.582 140.483,354.724C140.165,354.866 139.849,354.994 139.535,355.107C139.222,355.219 138.972,355.276 138.786,355.276C138.56,355.276 138.406,355.222 138.323,355.114C138.239,355.006 138.198,354.893 138.198,354.776C138.198,354.697 138.21,354.599 138.235,354.482C138.259,354.364 138.291,354.173 138.33,353.909C138.369,353.625 138.406,353.291 138.44,352.909C138.475,352.527 138.492,352.116 138.492,351.675C138.492,350.812 138.333,350.158 138.014,349.712C137.696,349.267 137.296,349.044 136.816,349.044C136.512,349.044 136.243,349.103 136.008,349.22C135.773,349.338 135.572,349.497 135.405,349.698C135.239,349.899 135.106,350.129 135.008,350.389C134.91,350.648 134.847,350.925 134.817,351.219Z" style="fill-rule:nonzero;"/>
            <path d="M148.545,353.056C148.565,353.037 148.582,353.039 148.596,353.064C148.611,353.088 148.621,353.122 148.626,353.166C148.631,353.211 148.628,353.257 148.618,353.306C148.609,353.355 148.589,353.394 148.56,353.424C148.364,353.61 148.119,353.806 147.825,354.012C147.531,354.217 147.227,354.408 146.914,354.585C146.825,354.634 146.703,354.697 146.546,354.776C146.389,354.854 146.215,354.93 146.024,355.004C145.833,355.077 145.637,355.141 145.436,355.195C145.236,355.249 145.047,355.276 144.871,355.276C144.518,355.276 144.185,355.207 143.871,355.07C143.558,354.933 143.283,354.744 143.048,354.504C142.813,354.264 142.629,353.977 142.497,353.644C142.365,353.311 142.298,352.948 142.298,352.556C142.298,352.135 142.357,351.738 142.475,351.366C142.592,350.994 142.727,350.66 142.879,350.367C143.031,350.073 143.175,349.825 143.313,349.624C143.45,349.423 143.543,349.274 143.592,349.176C143.406,349.166 143.237,349.159 143.085,349.154C142.933,349.149 142.788,349.147 142.651,349.147C142.338,349.147 142.073,349.149 141.858,349.154C141.642,349.159 141.451,349.181 141.284,349.22C141.206,349.24 141.132,349.279 141.064,349.338C140.995,349.396 140.936,349.441 140.887,349.47C140.868,349.45 140.841,349.423 140.807,349.389C140.772,349.355 140.755,349.318 140.755,349.279C140.755,349.259 140.76,349.245 140.77,349.235C140.77,349.225 140.834,349.169 140.961,349.066C141.088,348.963 141.248,348.84 141.439,348.698C141.63,348.556 141.84,348.399 142.071,348.228C142.301,348.057 142.521,347.897 142.732,347.75C142.943,347.603 143.124,347.478 143.276,347.376C143.428,347.273 143.528,347.211 143.577,347.192C143.636,347.172 143.695,347.182 143.754,347.221C143.812,347.26 143.832,347.29 143.812,347.309C143.783,347.329 143.739,347.366 143.68,347.42C143.621,347.474 143.602,347.52 143.621,347.559C143.729,347.647 143.915,347.726 144.18,347.794C144.444,347.863 144.743,347.919 145.076,347.963C145.409,348.008 145.752,348.042 146.105,348.066C146.458,348.091 146.776,348.103 147.061,348.103C147.482,348.103 147.82,348.091 148.075,348.066C148.329,348.042 148.54,348.01 148.707,347.971C148.863,347.932 148.966,347.902 149.015,347.883C149.025,347.883 149.045,347.897 149.074,347.927C149.103,347.956 149.118,347.99 149.118,348.03C149.118,348.049 149.047,348.098 148.905,348.177C148.763,348.255 148.618,348.338 148.471,348.426C148.383,348.475 148.278,348.539 148.155,348.618C148.033,348.696 147.901,348.772 147.759,348.845C147.617,348.919 147.467,348.985 147.31,349.044C147.154,349.103 147.002,349.137 146.855,349.147C146.708,349.166 146.536,349.181 146.34,349.191C146.144,349.201 145.939,349.208 145.723,349.213C145.507,349.218 145.289,349.223 145.069,349.227C144.849,349.232 144.645,349.235 144.459,349.235C144.43,349.284 144.383,349.365 144.319,349.477C144.256,349.59 144.194,349.735 144.136,349.911C144.077,350.087 144.023,350.288 143.974,350.514C143.925,350.739 143.901,350.984 143.901,351.248C143.901,351.65 143.962,352.02 144.084,352.358C144.207,352.696 144.378,352.988 144.599,353.233C144.819,353.478 145.081,353.669 145.385,353.806C145.689,353.943 146.017,354.012 146.37,354.012C146.575,354.012 146.774,353.987 146.965,353.938C147.156,353.889 147.337,353.825 147.509,353.747C147.68,353.669 147.839,353.583 147.986,353.49C148.133,353.397 148.261,353.306 148.369,353.218L148.545,353.056Z" style="fill-rule:nonzero;"/>
            <path d="M155.321,353.38C155.213,353.497 155.046,353.659 154.821,353.865C154.596,354.07 154.324,354.276 154.005,354.482C153.687,354.688 153.332,354.864 152.94,355.011C152.548,355.158 152.131,355.231 151.69,355.231C151.289,355.231 150.897,355.17 150.514,355.048C150.132,354.925 149.789,354.739 149.486,354.489C149.182,354.239 148.939,353.921 148.758,353.534C148.577,353.147 148.486,352.684 148.486,352.145C148.486,351.704 148.516,351.324 148.574,351.006C148.633,350.687 148.712,350.408 148.81,350.168C148.908,349.928 149.018,349.722 149.14,349.551C149.263,349.379 149.388,349.225 149.515,349.088C149.672,348.911 149.863,348.745 150.088,348.588C150.314,348.431 150.556,348.289 150.816,348.162C151.075,348.035 151.35,347.934 151.639,347.861C151.928,347.787 152.219,347.75 152.513,347.75C153.042,347.75 153.456,347.839 153.755,348.015C154.054,348.191 154.204,348.436 154.204,348.75C154.204,348.946 154.145,349.127 154.027,349.294C154.125,349.264 154.25,349.215 154.402,349.147C154.554,349.078 154.708,349.007 154.865,348.934C155.022,348.86 155.161,348.794 155.284,348.735C155.406,348.676 155.487,348.632 155.526,348.603C155.546,348.583 155.568,348.576 155.593,348.581C155.617,348.586 155.629,348.603 155.629,348.632C155.629,348.76 155.605,348.865 155.556,348.948C155.507,349.031 155.448,349.098 155.379,349.147C155.223,349.245 154.997,349.367 154.703,349.514C154.409,349.661 154.084,349.815 153.726,349.977C153.368,350.139 152.998,350.3 152.616,350.462C152.234,350.624 151.874,350.778 151.536,350.925C151.198,351.072 150.904,351.202 150.654,351.315C150.404,351.427 150.235,351.508 150.147,351.557C150.147,351.89 150.213,352.201 150.345,352.49C150.478,352.779 150.661,353.032 150.897,353.247C151.132,353.463 151.413,353.632 151.742,353.754C152.07,353.877 152.43,353.938 152.822,353.938C153.175,353.938 153.493,353.901 153.777,353.828C154.062,353.754 154.302,353.671 154.498,353.578C154.694,353.485 154.848,353.402 154.961,353.328C155.073,353.255 155.134,353.218 155.144,353.218C155.183,353.218 155.223,353.235 155.262,353.269C155.301,353.304 155.321,353.34 155.321,353.38ZM150.147,351.131C150.314,351.072 150.502,351.001 150.713,350.918C150.924,350.834 151.129,350.744 151.33,350.646C151.531,350.548 151.715,350.455 151.881,350.367C152.048,350.278 152.175,350.2 152.263,350.131C152.44,350.004 152.528,349.788 152.528,349.485C152.528,349.367 152.506,349.245 152.462,349.117C152.418,348.99 152.352,348.875 152.263,348.772C152.175,348.669 152.068,348.586 151.94,348.522C151.813,348.458 151.671,348.426 151.514,348.426C151.377,348.426 151.23,348.473 151.073,348.566C150.916,348.659 150.769,348.811 150.632,349.022C150.495,349.232 150.38,349.512 150.287,349.859C150.194,350.207 150.147,350.631 150.147,351.131Z" style="fill-rule:nonzero;"/>
            <path d="M162.14,348.853C162.033,348.941 161.905,349.051 161.758,349.183C161.611,349.316 161.457,349.443 161.295,349.566C161.134,349.688 160.969,349.793 160.803,349.882C160.636,349.97 160.475,350.014 160.318,350.014C160.181,350.014 160.058,349.982 159.95,349.918C159.843,349.855 159.742,349.786 159.649,349.712C159.556,349.639 159.465,349.57 159.377,349.507C159.289,349.443 159.196,349.411 159.098,349.411C158.833,349.411 158.61,349.519 158.429,349.735C158.248,349.95 158.101,350.224 157.988,350.558C157.876,350.891 157.792,351.253 157.738,351.645C157.684,352.037 157.658,352.414 157.658,352.777C157.658,353.081 157.67,353.328 157.694,353.519C157.719,353.71 157.756,353.862 157.805,353.975C157.853,354.087 157.92,354.163 158.003,354.203C158.086,354.242 158.187,354.261 158.304,354.261C158.432,354.261 158.569,354.242 158.716,354.203C158.745,354.193 158.767,354.212 158.782,354.261C158.797,354.31 158.804,354.35 158.804,354.379C158.804,354.399 158.789,354.421 158.76,354.445C158.73,354.47 158.711,354.482 158.701,354.482C158.485,354.57 158.265,354.666 158.04,354.768C157.814,354.871 157.628,354.957 157.481,355.026C157.344,355.084 157.18,355.148 156.989,355.217C156.798,355.285 156.634,355.32 156.496,355.32C156.34,355.32 156.21,355.295 156.107,355.246C156.004,355.197 155.953,355.148 155.953,355.099C155.953,355.05 155.965,355.006 155.989,354.967C156.014,354.928 156.036,354.854 156.055,354.746C156.075,354.599 156.097,354.426 156.122,354.225C156.146,354.024 156.171,353.806 156.195,353.571C156.22,353.335 156.239,353.093 156.254,352.843C156.269,352.593 156.276,352.346 156.276,352.101C156.276,351.552 156.259,351.087 156.225,350.705C156.19,350.322 156.129,350.014 156.041,349.779C155.953,349.543 155.833,349.374 155.681,349.272C155.529,349.169 155.335,349.117 155.1,349.117L154.968,349.117C154.929,349.117 154.889,349.122 154.85,349.132C154.791,349.132 154.762,349.103 154.762,349.044C154.762,348.985 154.791,348.941 154.85,348.911C154.958,348.843 155.125,348.742 155.35,348.61C155.575,348.478 155.808,348.351 156.048,348.228C156.288,348.106 156.521,347.995 156.746,347.897C156.972,347.799 157.138,347.75 157.246,347.75C157.373,347.75 157.481,347.792 157.569,347.875C157.658,347.959 157.724,348.064 157.768,348.191C157.812,348.319 157.844,348.463 157.863,348.625C157.883,348.787 157.893,348.946 157.893,349.103C157.893,349.22 157.89,349.343 157.885,349.47C157.88,349.597 157.878,349.735 157.878,349.882C158.319,349.235 158.716,348.733 159.069,348.375C159.421,348.017 159.754,347.839 160.068,347.839C160.186,347.839 160.301,347.888 160.413,347.986C160.526,348.083 160.646,348.194 160.773,348.316C160.901,348.439 161.033,348.549 161.17,348.647C161.307,348.745 161.45,348.794 161.597,348.794C161.724,348.794 161.817,348.779 161.876,348.75C161.935,348.72 161.984,348.696 162.023,348.676C162.101,348.676 162.14,348.73 162.14,348.838L162.14,348.853Z" style="fill-rule:nonzero;"/>
        </g>
        <g transform="matrix(1,0,0,1,-68.234,-49.4764)">
            <text x="76.188px" y="355.099px" style="font-family:'Luminari-Regular', 'Luminari';font-size:14.698px;">Bar Counte</text>
            <text x="154.88px" y="355.099px" style="font-family:'Luminari-Regular', 'Luminari';font-size:14.698px;">r</text>
        </g>
        <g transform="matrix(0.0219124,0,0,0.0248558,-15.5421,285.934)">
            <g transform="matrix(1,0,0,1,-143.343,98.6554)">
                <ellipse cx="360.896" cy="293.762" rx="136.961" ry="230.443" style="fill:rgb(102,126,153);stroke:black;stroke-width:63.81px;"/>
            </g>
            <g transform="matrix(1,0,0,1,445.551,98.6554)">
                <ellipse cx="360.896" cy="293.762" rx="136.961" ry="230.443" style="fill:rgb(102,126,153);stroke:black;stroke-width:63.81px;"/>
            </g>
            <g transform="matrix(1,0,0,1,-34.3236,-20.6488)">
                <ellipse cx="546.324" cy="643.509" rx="431.408" ry="296.899" style="fill:rgb(102,126,153);stroke:black;stroke-width:63.81px;"/>
            </g>
            <circle cx="406.664" cy="569.758" r="105.336" style="fill:rgb(102,126,153);stroke:black;stroke-width:63.81px;"/>
            <g transform="matrix(1,0,0,1,210.672,0)">
                <circle cx="406.664" cy="569.758" r="105.336" style="fill:rgb(102,126,153);stroke:black;stroke-width:63.81px;"/>
            </g>
            <g transform="matrix(1,0,0,1,-53.1856,50.0357)">
                <ellipse cx="565.186" cy="671.455" rx="210.672" ry="98.631" style="fill:rgb(102,126,153);stroke:black;stroke-width:63.81px;"/>
            </g>
            <g transform="matrix(51.2,0,0,45.1371,0.670978,88.9676)">
                <path d="M12.057,13.791C12.057,13.668 11.958,13.568 11.835,13.568L8.139,13.568C8.016,13.568 7.916,13.668 7.916,13.791L7.916,14.236C7.916,14.359 8.016,14.458 8.139,14.458L11.835,14.458C11.958,14.458 12.057,14.359 12.057,14.236L12.057,13.791Z"/>
            </g>
        </g>
    </g>
</svg>
