<?xml version="1.0" encoding="UTF-8" standalone="no"?>
<!DOCTYPE svg PUBLIC "-//W3C//DTD SVG 1.1//EN" "http://www.w3.org/Graphics/SVG/1.1/DTD/svg11.dtd">
<svg width="100%" height="100%" viewBox="0 0 105 380" version="1.1" xmlns="http://www.w3.org/2000/svg" xmlns:xlink="http://www.w3.org/1999/xlink" xml:space="preserve" xmlns:serif="http://www.serif.com/" style="fill-rule:evenodd;clip-rule:evenodd;stroke-linecap:round;stroke-linejoin:round;stroke-miterlimit:1.5;">
    <g transform="matrix(1.04123,0,0,1.75196,-20.0622,-76.6422)">
        <rect x="19.268" y="43.747" width="100.843" height="216.9"/>
    </g>
    <g transform="matrix(1,0,0,1,-65.22,48.3896)">
        <g id="Reset-input" serif:id="Reset#input" transform="matrix(0.175002,0,0,0.175002,94.1072,263.652)">
            <rect x="53.94" y="106.916" width="161.978" height="161.978" style="fill:rgb(217,217,217);"/>
        </g>
        <g transform="matrix(1,0,0,1,20.4271,159.225)">
            <path d="M89.618,118.306L89.618,113.236L90.638,113.236L90.638,113.776C90.845,113.59 91.048,113.443 91.248,113.336C91.448,113.23 91.695,113.176 91.988,113.176L91.988,114.256C91.888,114.216 91.785,114.196 91.678,114.196C91.571,114.196 91.456,114.215 91.333,114.251C91.21,114.288 91.098,114.35 90.998,114.436C90.891,114.523 90.805,114.636 90.738,114.776C90.671,114.916 90.638,115.09 90.638,115.296L90.638,118.306L89.618,118.306Z" style="fill:rgb(242,242,242);fill-rule:nonzero;"/>
            <path d="M95.348,116.156L93.328,116.156L93.328,116.846C93.328,117.006 93.373,117.13 93.463,117.216C93.553,117.303 93.675,117.346 93.828,117.346C94.021,117.346 94.15,117.29 94.213,117.176C94.276,117.063 94.315,116.95 94.328,116.836L95.348,116.836C95.348,117.283 95.211,117.643 94.938,117.916C94.805,118.056 94.645,118.166 94.458,118.246C94.271,118.326 94.061,118.366 93.828,118.366C93.508,118.366 93.236,118.3 93.013,118.166C92.79,118.033 92.618,117.856 92.498,117.636C92.425,117.503 92.375,117.35 92.348,117.176C92.321,117.003 92.308,116.813 92.308,116.606L92.308,114.936C92.308,114.73 92.321,114.54 92.348,114.366C92.375,114.193 92.425,114.04 92.498,113.906C92.618,113.686 92.79,113.51 93.013,113.376C93.236,113.243 93.508,113.176 93.828,113.176C94.061,113.176 94.273,113.216 94.463,113.296C94.653,113.376 94.815,113.486 94.948,113.626C95.215,113.926 95.348,114.303 95.348,114.756L95.348,116.156ZM93.328,115.356L94.328,115.356L94.328,114.776C94.328,114.583 94.283,114.438 94.193,114.341C94.103,114.245 93.981,114.196 93.828,114.196C93.675,114.196 93.553,114.245 93.463,114.341C93.373,114.438 93.328,114.583 93.328,114.776L93.328,115.356Z" style="fill:rgb(242,242,242);fill-rule:nonzero;"/>
            <path d="M97.948,114.656C97.941,114.483 97.886,114.353 97.783,114.266C97.68,114.18 97.561,114.136 97.428,114.136C97.268,114.136 97.145,114.188 97.058,114.291C96.971,114.395 96.928,114.513 96.928,114.646C96.928,114.74 96.951,114.831 96.998,114.921C97.045,115.011 97.165,115.093 97.358,115.166L97.958,115.406C98.338,115.553 98.6,115.753 98.743,116.006C98.886,116.26 98.958,116.536 98.958,116.836C98.958,117.05 98.92,117.248 98.843,117.431C98.766,117.615 98.661,117.776 98.528,117.916C98.395,118.056 98.235,118.166 98.048,118.246C97.861,118.326 97.658,118.366 97.438,118.366C97.025,118.366 96.678,118.236 96.398,117.976C96.258,117.85 96.145,117.691 96.058,117.501C95.971,117.311 95.925,117.09 95.918,116.836L96.878,116.836C96.898,116.976 96.946,117.106 97.023,117.226C97.1,117.346 97.235,117.406 97.428,117.406C97.575,117.406 97.706,117.358 97.823,117.261C97.94,117.165 97.998,117.03 97.998,116.856C97.998,116.716 97.961,116.596 97.888,116.496C97.815,116.396 97.681,116.31 97.488,116.236L96.998,116.056C96.678,115.936 96.426,115.758 96.243,115.521C96.06,115.285 95.968,114.996 95.968,114.656C95.968,114.443 96.008,114.245 96.088,114.061C96.168,113.878 96.278,113.72 96.418,113.586C96.551,113.453 96.708,113.351 96.888,113.281C97.068,113.211 97.261,113.176 97.468,113.176C97.675,113.176 97.866,113.213 98.043,113.286C98.22,113.36 98.371,113.463 98.498,113.596C98.625,113.73 98.725,113.888 98.798,114.071C98.871,114.255 98.908,114.45 98.908,114.656L97.948,114.656Z" style="fill:rgb(242,242,242);fill-rule:nonzero;"/>
            <path d="M102.568,116.156L100.548,116.156L100.548,116.846C100.548,117.006 100.593,117.13 100.683,117.216C100.773,117.303 100.895,117.346 101.048,117.346C101.241,117.346 101.37,117.29 101.433,117.176C101.496,117.063 101.535,116.95 101.548,116.836L102.568,116.836C102.568,117.283 102.431,117.643 102.158,117.916C102.025,118.056 101.865,118.166 101.678,118.246C101.491,118.326 101.281,118.366 101.048,118.366C100.728,118.366 100.456,118.3 100.233,118.166C100.01,118.033 99.838,117.856 99.718,117.636C99.645,117.503 99.595,117.35 99.568,117.176C99.541,117.003 99.528,116.813 99.528,116.606L99.528,114.936C99.528,114.73 99.541,114.54 99.568,114.366C99.595,114.193 99.645,114.04 99.718,113.906C99.838,113.686 100.01,113.51 100.233,113.376C100.456,113.243 100.728,113.176 101.048,113.176C101.281,113.176 101.493,113.216 101.683,113.296C101.873,113.376 102.035,113.486 102.168,113.626C102.435,113.926 102.568,114.303 102.568,114.756L102.568,116.156ZM100.548,115.356L101.548,115.356L101.548,114.776C101.548,114.583 101.503,114.438 101.413,114.341C101.323,114.245 101.201,114.196 101.048,114.196C100.895,114.196 100.773,114.245 100.683,114.341C100.593,114.438 100.548,114.583 100.548,114.776L100.548,115.356Z" style="fill:rgb(242,242,242);fill-rule:nonzero;"/>
            <path d="M103.318,113.236L103.318,111.696L104.338,111.696L104.338,113.236L104.968,113.236L104.968,114.036L104.338,114.036L104.338,116.846C104.338,116.966 104.35,117.06 104.373,117.126C104.396,117.193 104.435,117.243 104.488,117.276C104.541,117.31 104.606,117.33 104.683,117.336C104.76,117.343 104.855,117.346 104.968,117.346L104.968,118.306L104.548,118.306C104.315,118.306 104.12,118.27 103.963,118.196C103.806,118.123 103.681,118.03 103.588,117.916C103.495,117.803 103.426,117.675 103.383,117.531C103.34,117.388 103.318,117.25 103.318,117.116L103.318,114.036L102.808,114.036L102.808,113.236L103.318,113.236Z" style="fill:rgb(242,242,242);fill-rule:nonzero;"/>
        </g>
        <g transform="matrix(1,0,0,1,20.4271,159.225)">
            <text x="89.198px" y="118.306px" style="font-family:'DINCondensed-Bold', 'DIN Condensed';font-weight:700;font-stretch:condensed;font-size:10px;fill:rgb(242,242,242);">reset</text>
        </g>
        <g id="Clock-input" serif:id="Clock#input" transform="matrix(0.175002,0,0,0.175002,94.1072,214.527)">
            <rect x="53.94" y="106.916" width="161.978" height="161.978" style="fill:rgb(217,217,217);"/>
        </g>
        <g transform="matrix(1,0,0,1,20.7463,110.854)">
            <path d="M90.698,116.846C90.698,117.006 90.743,117.13 90.833,117.216C90.923,117.303 91.045,117.346 91.198,117.346C91.391,117.346 91.52,117.29 91.583,117.176C91.646,117.063 91.685,116.95 91.698,116.836L92.718,116.836C92.718,117.283 92.581,117.643 92.308,117.916C92.175,118.056 92.015,118.166 91.828,118.246C91.641,118.326 91.431,118.366 91.198,118.366C90.878,118.366 90.606,118.3 90.383,118.166C90.16,118.033 89.988,117.856 89.868,117.636C89.795,117.503 89.745,117.35 89.718,117.176C89.691,117.003 89.678,116.813 89.678,116.606L89.678,114.936C89.678,114.73 89.691,114.54 89.718,114.366C89.745,114.193 89.795,114.04 89.868,113.906C89.988,113.686 90.16,113.51 90.383,113.376C90.606,113.243 90.878,113.176 91.198,113.176C91.431,113.176 91.643,113.216 91.833,113.296C92.023,113.376 92.185,113.486 92.318,113.626C92.585,113.926 92.718,114.316 92.718,114.796L91.698,114.796C91.698,114.59 91.653,114.438 91.563,114.341C91.473,114.245 91.351,114.196 91.198,114.196C91.045,114.196 90.923,114.245 90.833,114.341C90.743,114.438 90.698,114.583 90.698,114.776L90.698,116.846Z" style="fill:rgb(242,242,242);fill-rule:nonzero;"/>
            <path d="M93.138,111.186L94.158,111.186L94.158,116.876C94.158,117.07 94.193,117.201 94.263,117.271C94.333,117.341 94.465,117.386 94.658,117.406L94.658,118.366C94.425,118.366 94.215,118.348 94.028,118.311C93.841,118.275 93.681,118.203 93.548,118.096C93.415,117.996 93.313,117.855 93.243,117.671C93.173,117.488 93.138,117.246 93.138,116.946L93.138,111.186Z" style="fill:rgb(242,242,242);fill-rule:nonzero;"/>
            <path d="M94.968,114.936C94.968,114.73 94.981,114.54 95.008,114.366C95.035,114.193 95.085,114.04 95.158,113.906C95.278,113.686 95.45,113.51 95.673,113.376C95.896,113.243 96.168,113.176 96.488,113.176C96.808,113.176 97.08,113.243 97.303,113.376C97.526,113.51 97.698,113.686 97.818,113.906C97.891,114.04 97.941,114.193 97.968,114.366C97.995,114.54 98.008,114.73 98.008,114.936L98.008,116.606C98.008,116.813 97.995,117.003 97.968,117.176C97.941,117.35 97.891,117.503 97.818,117.636C97.698,117.856 97.526,118.033 97.303,118.166C97.08,118.3 96.808,118.366 96.488,118.366C96.168,118.366 95.896,118.3 95.673,118.166C95.45,118.033 95.278,117.856 95.158,117.636C95.085,117.503 95.035,117.35 95.008,117.176C94.981,117.003 94.968,116.813 94.968,116.606L94.968,114.936ZM95.988,116.766C95.988,116.96 96.033,117.105 96.123,117.201C96.213,117.298 96.335,117.346 96.488,117.346C96.641,117.346 96.763,117.298 96.853,117.201C96.943,117.105 96.988,116.96 96.988,116.766L96.988,114.776C96.988,114.583 96.943,114.438 96.853,114.341C96.763,114.245 96.641,114.196 96.488,114.196C96.335,114.196 96.213,114.245 96.123,114.341C96.033,114.438 95.988,114.583 95.988,114.776L95.988,116.766Z" style="fill:rgb(242,242,242);fill-rule:nonzero;"/>
            <path d="M99.838,116.846C99.838,117.006 99.883,117.13 99.973,117.216C100.063,117.303 100.185,117.346 100.338,117.346C100.531,117.346 100.66,117.29 100.723,117.176C100.786,117.063 100.825,116.95 100.838,116.836L101.858,116.836C101.858,117.283 101.721,117.643 101.448,117.916C101.315,118.056 101.155,118.166 100.968,118.246C100.781,118.326 100.571,118.366 100.338,118.366C100.018,118.366 99.746,118.3 99.523,118.166C99.3,118.033 99.128,117.856 99.008,117.636C98.935,117.503 98.885,117.35 98.858,117.176C98.831,117.003 98.818,116.813 98.818,116.606L98.818,114.936C98.818,114.73 98.831,114.54 98.858,114.366C98.885,114.193 98.935,114.04 99.008,113.906C99.128,113.686 99.3,113.51 99.523,113.376C99.746,113.243 100.018,113.176 100.338,113.176C100.571,113.176 100.783,113.216 100.973,113.296C101.163,113.376 101.325,113.486 101.458,113.626C101.725,113.926 101.858,114.316 101.858,114.796L100.838,114.796C100.838,114.59 100.793,114.438 100.703,114.341C100.613,114.245 100.491,114.196 100.338,114.196C100.185,114.196 100.063,114.245 99.973,114.341C99.883,114.438 99.838,114.583 99.838,114.776L99.838,116.846Z" style="fill:rgb(242,242,242);fill-rule:nonzero;"/>
            <path d="M102.338,118.306L102.338,111.186L103.358,111.186L103.358,115.446L103.378,115.446L104.608,113.236L105.628,113.236L104.418,115.296L105.878,118.306L104.768,118.306L103.848,116.116L103.358,116.886L103.358,118.306L102.338,118.306Z" style="fill:rgb(242,242,242);fill-rule:nonzero;"/>
        </g>
        <g transform="matrix(1,0,0,1,20.7463,110.854)">
            <text x="89.198px" y="118.306px" style="font-family:'DINCondensed-Bold', 'DIN Condensed';font-weight:700;font-stretch:condensed;font-size:10px;fill:rgb(242,242,242);">c<tspan x="92.778px 94.638px 98.338px 101.918px " y="118.306px 118.306px 118.306px 118.306px ">lock</tspan></text>
        </g>
    </g>
    <g transform="matrix(0.816456,0,0,0.816456,25.0934,-225.94)">
        <g transform="matrix(1,0,0,1,-65.4614,-51.6192)">
            <path d="M78.264,354.847C78.08,354.951 77.848,355.059 77.568,355.171C77.288,355.283 76.996,355.339 76.692,355.339C76.508,355.339 76.376,355.323 76.296,355.291C76.216,355.259 76.176,355.195 76.176,355.099C76.176,355.067 76.182,355.031 76.194,354.991C76.206,354.951 76.22,354.917 76.236,354.889C76.252,354.861 76.272,354.841 76.296,354.829C76.32,354.817 76.344,354.827 76.368,354.859C76.416,354.923 76.488,354.959 76.584,354.967C76.68,354.975 76.784,354.979 76.896,354.979C77.064,354.971 77.216,354.913 77.352,354.805C77.488,354.697 77.588,354.551 77.652,354.367C77.684,354.255 77.716,354.079 77.748,353.839C77.78,353.599 77.806,353.311 77.826,352.975C77.846,352.639 77.862,352.265 77.874,351.853C77.886,351.441 77.892,351.007 77.892,350.551C77.892,349.511 77.864,348.701 77.808,348.121C77.752,347.541 77.68,347.207 77.592,347.119C77.528,347.071 77.448,347.033 77.352,347.005C77.256,346.977 77.158,346.959 77.058,346.951C76.958,346.943 76.86,346.939 76.764,346.939C76.668,346.939 76.592,346.943 76.536,346.951C76.48,346.959 76.436,346.943 76.404,346.903C76.372,346.863 76.356,346.823 76.356,346.783C76.356,346.639 76.408,346.567 76.512,346.567C76.568,346.567 76.668,346.573 76.812,346.585C76.956,346.597 77.122,346.609 77.31,346.621C77.498,346.633 77.696,346.643 77.904,346.651C78.112,346.659 78.3,346.663 78.468,346.663C78.676,346.663 78.87,346.631 79.05,346.567C79.23,346.503 79.416,346.431 79.608,346.351C79.8,346.271 80.01,346.199 80.238,346.135C80.466,346.071 80.732,346.039 81.036,346.039C81.412,346.039 81.764,346.071 82.092,346.135C82.42,346.199 82.704,346.297 82.944,346.429C83.184,346.561 83.374,346.731 83.514,346.939C83.654,347.147 83.724,347.391 83.724,347.671C83.724,347.991 83.656,348.281 83.52,348.541C83.384,348.801 83.214,349.031 83.01,349.231C82.806,349.431 82.59,349.601 82.362,349.741C82.134,349.881 81.928,349.987 81.744,350.059C82.04,350.083 82.364,350.133 82.716,350.209C83.068,350.285 83.396,350.401 83.7,350.557C84.004,350.713 84.258,350.919 84.462,351.175C84.666,351.431 84.768,351.751 84.768,352.135C84.768,352.439 84.706,352.729 84.582,353.005C84.458,353.281 84.292,353.537 84.084,353.773C83.876,354.009 83.638,354.225 83.37,354.421C83.102,354.617 82.822,354.783 82.53,354.919C82.238,355.055 81.942,355.161 81.642,355.237C81.342,355.313 81.064,355.351 80.808,355.351C80.656,355.351 80.466,355.337 80.238,355.309C80.01,355.281 79.776,355.243 79.536,355.195C79.296,355.147 79.062,355.093 78.834,355.033C78.606,354.973 78.416,354.911 78.264,354.847ZM79.296,352.399C79.304,352.815 79.316,353.115 79.332,353.299C79.348,353.483 79.364,353.623 79.38,353.719C79.404,353.855 79.462,353.989 79.554,354.121C79.646,354.253 79.766,354.375 79.914,354.487C80.062,354.599 80.234,354.689 80.43,354.757C80.626,354.825 80.844,354.859 81.084,354.859C81.34,354.859 81.58,354.815 81.804,354.727C82.028,354.639 82.222,354.501 82.386,354.313C82.55,354.125 82.68,353.883 82.776,353.587C82.872,353.291 82.92,352.935 82.92,352.519C82.92,352.143 82.86,351.823 82.74,351.559C82.62,351.295 82.45,351.081 82.23,350.917C82.01,350.753 81.744,350.635 81.432,350.563C81.12,350.491 80.772,350.455 80.388,350.455C80.164,350.455 79.952,350.457 79.752,350.461C79.552,350.465 79.404,350.471 79.308,350.479C79.3,350.567 79.296,350.659 79.296,350.755L79.296,352.399ZM79.464,347.191C79.448,347.295 79.432,347.439 79.416,347.623C79.4,347.807 79.384,348.021 79.368,348.265C79.352,348.509 79.338,348.773 79.326,349.057C79.314,349.341 79.304,349.635 79.296,349.939C79.304,349.963 79.348,349.981 79.428,349.993C79.508,350.005 79.602,350.015 79.71,350.023C79.818,350.031 79.932,350.037 80.052,350.041C80.172,350.045 80.28,350.047 80.376,350.047C80.528,350.047 80.66,350.041 80.772,350.029C80.884,350.017 80.982,349.997 81.066,349.969C81.15,349.941 81.228,349.907 81.3,349.867C81.372,349.827 81.444,349.775 81.516,349.711C81.652,349.607 81.778,349.439 81.894,349.207C82.01,348.975 82.068,348.655 82.068,348.247C82.068,347.959 82.028,347.705 81.948,347.485C81.868,347.265 81.764,347.081 81.636,346.933C81.508,346.785 81.362,346.675 81.198,346.603C81.034,346.531 80.864,346.495 80.688,346.495C80.6,346.495 80.492,346.507 80.364,346.531C80.236,346.555 80.112,346.593 79.992,346.645C79.872,346.697 79.762,346.769 79.662,346.861C79.562,346.953 79.496,347.063 79.464,347.191Z" style="fill:rgb(242,242,242);fill-rule:nonzero;"/>
            <path d="M89.316,353.227C89.292,353.091 89.268,352.943 89.244,352.783C89.22,352.623 89.196,352.471 89.172,352.327C89.148,352.183 89.126,352.059 89.106,351.955C89.086,351.851 89.072,351.783 89.064,351.751C88.936,351.799 88.792,351.855 88.632,351.919C88.472,351.983 88.312,352.053 88.152,352.129C87.992,352.205 87.84,352.281 87.696,352.357C87.552,352.433 87.432,352.503 87.336,352.567C87.152,352.687 87.012,352.807 86.916,352.927C86.82,353.047 86.772,353.191 86.772,353.359C86.772,353.591 86.84,353.795 86.976,353.971C87.112,354.147 87.324,354.235 87.612,354.235C87.764,354.235 87.922,354.207 88.086,354.151C88.25,354.095 88.402,354.031 88.542,353.959C88.682,353.887 88.804,353.815 88.908,353.743C89.012,353.671 89.084,353.615 89.124,353.575C89.188,353.511 89.238,353.457 89.274,353.413C89.31,353.369 89.324,353.307 89.316,353.227ZM88.968,351.367C88.92,351.119 88.864,350.897 88.8,350.701C88.736,350.505 88.656,350.341 88.56,350.209C88.464,350.077 88.348,349.977 88.212,349.909C88.076,349.841 87.908,349.807 87.708,349.807C87.532,349.807 87.37,349.839 87.222,349.903C87.074,349.967 86.946,350.043 86.838,350.131C86.73,350.219 86.646,350.307 86.586,350.395C86.526,350.483 86.492,350.551 86.484,350.599C86.476,350.663 86.44,350.695 86.376,350.695C86.264,350.695 86.16,350.655 86.064,350.575C85.968,350.495 85.92,350.399 85.92,350.287C85.92,350.223 85.928,350.175 85.944,350.143C86.128,350.039 86.352,349.927 86.616,349.807C86.88,349.687 87.154,349.575 87.438,349.471C87.722,349.367 88.004,349.281 88.284,349.213C88.564,349.145 88.816,349.111 89.04,349.111C89.376,349.111 89.634,349.159 89.814,349.255C89.994,349.351 90.128,349.487 90.216,349.663C90.304,349.839 90.358,350.045 90.378,350.281C90.398,350.517 90.416,350.771 90.432,351.043C90.456,351.451 90.488,351.845 90.528,352.225C90.568,352.605 90.628,352.941 90.708,353.233C90.788,353.525 90.89,353.761 91.014,353.941C91.138,354.121 91.292,354.211 91.476,354.211C91.564,354.211 91.66,354.195 91.764,354.163C91.868,354.131 91.968,354.093 92.064,354.049C92.16,354.005 92.246,353.961 92.322,353.917C92.398,353.873 92.448,353.843 92.472,353.827C92.544,353.827 92.588,353.863 92.604,353.935C92.604,353.975 92.596,354.011 92.58,354.043C92.564,354.059 92.504,354.099 92.4,354.163C92.296,354.227 92.168,354.303 92.016,354.391C91.864,354.479 91.696,354.573 91.512,354.673C91.328,354.773 91.146,354.867 90.966,354.955C90.786,355.043 90.62,355.115 90.468,355.171C90.316,355.227 90.196,355.255 90.108,355.255C90.004,355.255 89.914,355.213 89.838,355.129C89.762,355.045 89.696,354.933 89.64,354.793C89.584,354.653 89.536,354.491 89.496,354.307C89.456,354.123 89.42,353.931 89.388,353.731C89.244,353.851 89.06,353.993 88.836,354.157C88.612,354.321 88.368,354.475 88.104,354.619C87.84,354.763 87.57,354.885 87.294,354.985C87.018,355.085 86.752,355.135 86.496,355.135C86.28,355.135 86.092,355.101 85.932,355.033C85.772,354.965 85.638,354.875 85.53,354.763C85.422,354.651 85.342,354.521 85.29,354.373C85.238,354.225 85.212,354.071 85.212,353.911C85.212,353.655 85.29,353.445 85.446,353.281C85.602,353.117 85.844,352.947 86.172,352.771C86.324,352.691 86.536,352.585 86.808,352.453C87.08,352.321 87.358,352.187 87.642,352.051C87.926,351.915 88.19,351.785 88.434,351.661C88.678,351.537 88.856,351.439 88.968,351.367Z" style="fill:rgb(242,242,242);fill-rule:nonzero;"/>
            <path d="M97.536,349.999C97.448,350.071 97.344,350.161 97.224,350.269C97.104,350.377 96.978,350.481 96.846,350.581C96.714,350.681 96.58,350.767 96.444,350.839C96.308,350.911 96.176,350.947 96.048,350.947C95.936,350.947 95.836,350.921 95.748,350.869C95.66,350.817 95.578,350.761 95.502,350.701C95.426,350.641 95.352,350.585 95.28,350.533C95.208,350.481 95.132,350.455 95.052,350.455C94.836,350.455 94.654,350.543 94.506,350.719C94.358,350.895 94.238,351.119 94.146,351.391C94.054,351.663 93.986,351.959 93.942,352.279C93.898,352.599 93.876,352.907 93.876,353.203C93.876,353.451 93.886,353.653 93.906,353.809C93.926,353.965 93.956,354.089 93.996,354.181C94.036,354.273 94.09,354.335 94.158,354.367C94.226,354.399 94.308,354.415 94.404,354.415C94.508,354.415 94.62,354.399 94.74,354.367C94.764,354.359 94.782,354.375 94.794,354.415C94.806,354.455 94.812,354.487 94.812,354.511C94.812,354.527 94.8,354.545 94.776,354.565C94.752,354.585 94.736,354.595 94.728,354.595C94.552,354.667 94.372,354.745 94.188,354.829C94.004,354.913 93.852,354.983 93.732,355.039C93.62,355.087 93.486,355.139 93.33,355.195C93.174,355.251 93.04,355.279 92.928,355.279C92.8,355.279 92.694,355.259 92.61,355.219C92.526,355.179 92.484,355.139 92.484,355.099C92.484,355.059 92.494,355.023 92.514,354.991C92.534,354.959 92.552,354.899 92.568,354.811C92.584,354.691 92.602,354.549 92.622,354.385C92.642,354.221 92.662,354.043 92.682,353.851C92.702,353.659 92.718,353.461 92.73,353.257C92.742,353.053 92.748,352.851 92.748,352.651C92.748,352.203 92.734,351.823 92.706,351.511C92.678,351.199 92.628,350.947 92.556,350.755C92.484,350.563 92.386,350.425 92.262,350.341C92.138,350.257 91.98,350.215 91.788,350.215L91.68,350.215C91.648,350.215 91.616,350.219 91.584,350.227C91.536,350.227 91.512,350.203 91.512,350.155C91.512,350.107 91.536,350.071 91.584,350.047C91.672,349.991 91.808,349.909 91.992,349.801C92.176,349.693 92.366,349.589 92.562,349.489C92.758,349.389 92.948,349.299 93.132,349.219C93.316,349.139 93.452,349.099 93.54,349.099C93.644,349.099 93.732,349.133 93.804,349.201C93.876,349.269 93.93,349.355 93.966,349.459C94.002,349.563 94.028,349.681 94.044,349.813C94.06,349.945 94.068,350.075 94.068,350.203C94.068,350.299 94.066,350.399 94.062,350.503C94.058,350.607 94.056,350.719 94.056,350.839C94.416,350.311 94.74,349.901 95.028,349.609C95.316,349.317 95.588,349.171 95.844,349.171C95.94,349.171 96.034,349.211 96.126,349.291C96.218,349.371 96.316,349.461 96.42,349.561C96.524,349.661 96.632,349.751 96.744,349.831C96.856,349.911 96.972,349.951 97.092,349.951C97.196,349.951 97.272,349.939 97.32,349.915C97.368,349.891 97.408,349.871 97.44,349.855C97.504,349.855 97.536,349.899 97.536,349.987L97.536,349.999Z" style="fill:rgb(242,242,242);fill-rule:nonzero;"/>
            <path d="M105.948,355.159C105.868,355.159 105.76,355.163 105.624,355.171C105.488,355.179 105.342,355.185 105.186,355.189C105.03,355.193 104.87,355.199 104.706,355.207C104.542,355.215 104.392,355.219 104.256,355.219C103.72,355.219 103.196,355.137 102.684,354.973C102.172,354.809 101.718,354.553 101.322,354.205C100.926,353.857 100.606,353.409 100.362,352.861C100.118,352.313 99.996,351.655 99.996,350.887C99.996,350.183 100.13,349.559 100.398,349.015C100.666,348.471 101.02,348.015 101.46,347.647C101.9,347.279 102.396,346.999 102.948,346.807C103.5,346.615 104.064,346.519 104.64,346.519C104.768,346.519 104.942,346.527 105.162,346.543C105.382,346.559 105.602,346.579 105.822,346.603C106.042,346.627 106.238,346.653 106.41,346.681C106.582,346.709 106.692,346.735 106.74,346.759C106.844,346.479 106.96,346.231 107.088,346.015C107.216,345.799 107.392,345.635 107.616,345.523C107.68,345.499 107.752,345.495 107.832,345.511C107.912,345.527 107.952,345.567 107.952,345.631C107.912,345.703 107.882,345.747 107.862,345.763C107.842,345.779 107.816,345.787 107.784,345.787C107.688,345.787 107.594,345.831 107.502,345.919C107.41,346.007 107.324,346.121 107.244,346.261C107.164,346.401 107.094,346.561 107.034,346.741C106.974,346.921 106.928,347.103 106.896,347.287C106.88,347.375 106.862,347.477 106.842,347.593C106.822,347.709 106.804,347.823 106.788,347.935C106.772,348.047 106.76,348.155 106.752,348.259C106.744,348.363 106.74,348.451 106.74,348.523C106.74,348.563 106.724,348.597 106.692,348.625C106.66,348.653 106.628,348.667 106.596,348.667C106.548,348.667 106.492,348.643 106.428,348.595C106.396,348.395 106.33,348.195 106.23,347.995C106.13,347.795 105.99,347.615 105.81,347.455C105.63,347.295 105.406,347.167 105.138,347.071C104.87,346.975 104.552,346.927 104.184,346.927C103.792,346.927 103.442,347.019 103.134,347.203C102.826,347.387 102.566,347.639 102.354,347.959C102.142,348.279 101.98,348.659 101.868,349.099C101.756,349.539 101.7,350.011 101.7,350.515C101.7,351.211 101.77,351.829 101.91,352.369C102.05,352.909 102.244,353.367 102.492,353.743C102.74,354.119 103.036,354.405 103.38,354.601C103.724,354.797 104.1,354.895 104.508,354.895C104.78,354.895 105.046,354.851 105.306,354.763C105.566,354.675 105.806,354.555 106.026,354.403C106.246,354.251 106.442,354.075 106.614,353.875C106.786,353.675 106.92,353.463 107.016,353.239C107.032,353.207 107.074,353.183 107.142,353.167C107.21,353.151 107.244,353.159 107.244,353.191C107.244,353.295 107.21,353.437 107.142,353.617C107.074,353.797 106.996,353.977 106.908,354.157C106.82,354.337 106.732,354.501 106.644,354.649C106.556,354.797 106.496,354.895 106.464,354.943C106.44,354.999 106.41,355.073 106.374,355.165C106.338,355.257 106.306,355.361 106.278,355.477C106.25,355.593 106.224,355.713 106.2,355.837C106.176,355.961 106.164,356.083 106.164,356.203C106.164,356.331 106.148,356.411 106.116,356.443C106.084,356.475 106.016,356.491 105.912,356.491C105.824,356.491 105.784,356.429 105.792,356.305C105.8,356.181 105.82,356.039 105.852,355.879C105.884,355.719 105.916,355.569 105.948,355.429C105.98,355.289 105.98,355.199 105.948,355.159Z" style="fill:rgb(242,242,242);fill-rule:nonzero;"/>
            <path d="M112.572,354.139C112.484,354.211 112.364,354.307 112.212,354.427C112.06,354.547 111.884,354.667 111.684,354.787C111.484,354.907 111.264,355.009 111.024,355.093C110.784,355.177 110.532,355.219 110.268,355.219C109.868,355.219 109.512,355.149 109.2,355.009C108.888,354.869 108.626,354.681 108.414,354.445C108.202,354.209 108.042,353.931 107.934,353.611C107.826,353.291 107.772,352.951 107.772,352.591C107.772,352.167 107.836,351.791 107.964,351.463C108.092,351.135 108.25,350.849 108.438,350.605C108.626,350.361 108.828,350.157 109.044,349.993C109.26,349.829 109.456,349.699 109.632,349.603C109.712,349.555 109.814,349.503 109.938,349.447C110.062,349.391 110.198,349.339 110.346,349.291C110.494,349.243 110.654,349.201 110.826,349.165C110.998,349.129 111.176,349.111 111.36,349.111C111.704,349.111 112.038,349.155 112.362,349.243C112.686,349.331 112.972,349.469 113.22,349.657C113.468,349.845 113.668,350.087 113.82,350.383C113.972,350.679 114.048,351.035 114.048,351.451C114.048,351.787 113.986,352.103 113.862,352.399C113.738,352.695 113.592,352.959 113.424,353.191C113.256,353.423 113.09,353.621 112.926,353.785C112.762,353.949 112.644,354.067 112.572,354.139ZM111.216,354.331C111.672,354.331 112.022,354.159 112.266,353.815C112.51,353.471 112.632,352.943 112.632,352.231C112.632,351.871 112.582,351.537 112.482,351.229C112.382,350.921 112.242,350.651 112.062,350.419C111.882,350.187 111.672,350.005 111.432,349.873C111.192,349.741 110.932,349.675 110.652,349.675C110.452,349.675 110.262,349.727 110.082,349.831C109.902,349.935 109.744,350.085 109.608,350.281C109.472,350.477 109.364,350.715 109.284,350.995C109.204,351.275 109.164,351.591 109.164,351.943C109.164,352.319 109.222,352.655 109.338,352.951C109.454,353.247 109.608,353.497 109.8,353.701C109.992,353.905 110.21,354.061 110.454,354.169C110.698,354.277 110.952,354.331 111.216,354.331Z" style="fill:rgb(242,242,242);fill-rule:nonzero;"/>
            <path d="M114.552,350.143C114.488,350.127 114.458,350.095 114.462,350.047C114.466,349.999 114.496,349.971 114.552,349.963C114.576,349.955 114.652,349.927 114.78,349.879C114.908,349.831 115.062,349.775 115.242,349.711C115.422,349.647 115.61,349.579 115.806,349.507C116.002,349.435 116.176,349.375 116.328,349.327C116.424,349.295 116.49,349.273 116.526,349.261C116.562,349.249 116.592,349.243 116.616,349.243C116.64,349.243 116.668,349.253 116.7,349.273C116.732,349.293 116.74,349.323 116.724,349.363C116.7,349.427 116.674,349.579 116.646,349.819C116.618,350.059 116.592,350.325 116.568,350.617C116.544,350.909 116.522,351.199 116.502,351.487C116.482,351.775 116.472,352.003 116.472,352.171C116.472,352.811 116.608,353.305 116.88,353.653C117.152,354.001 117.576,354.175 118.152,354.175C118.448,354.175 118.694,354.115 118.89,353.995C119.086,353.875 119.236,353.735 119.34,353.575C119.412,353.471 119.46,353.243 119.484,352.891C119.484,352.827 119.486,352.743 119.49,352.639C119.494,352.535 119.498,352.425 119.502,352.309C119.506,352.193 119.51,352.081 119.514,351.973C119.518,351.865 119.52,351.775 119.52,351.703C119.528,351.335 119.518,350.993 119.49,350.677C119.462,350.361 119.42,350.127 119.364,349.975C119.34,349.879 119.292,349.831 119.22,349.831C119.172,349.831 119.126,349.833 119.082,349.837C119.038,349.841 119.012,349.807 119.004,349.735C119.004,349.711 119.028,349.685 119.076,349.657C119.124,349.629 119.216,349.587 119.352,349.531C119.48,349.483 119.622,349.435 119.778,349.387C119.934,349.339 120.088,349.299 120.24,349.267C120.392,349.235 120.528,349.213 120.648,349.201C120.768,349.189 120.856,349.195 120.912,349.219C120.912,349.227 120.918,349.237 120.93,349.249C120.942,349.261 120.952,349.287 120.96,349.327C120.976,349.375 120.966,349.525 120.93,349.777C120.894,350.029 120.856,350.439 120.816,351.007C120.784,351.399 120.756,351.779 120.732,352.147C120.708,352.515 120.696,352.795 120.696,352.987C120.696,353.363 120.766,353.661 120.906,353.881C121.046,354.101 121.22,354.211 121.428,354.211C121.564,354.211 121.694,354.183 121.818,354.127C121.942,354.071 122.032,354.023 122.088,353.983C122.152,353.983 122.186,354.011 122.19,354.067C122.194,354.123 122.18,354.159 122.148,354.175C122.028,354.255 121.862,354.355 121.65,354.475C121.438,354.595 121.218,354.709 120.99,354.817C120.762,354.925 120.544,355.017 120.336,355.093C120.128,355.169 119.96,355.207 119.832,355.207C119.768,355.207 119.71,355.165 119.658,355.081C119.606,354.997 119.564,354.895 119.532,354.775C119.5,354.655 119.476,354.531 119.46,354.403C119.444,354.275 119.436,354.163 119.436,354.067C119.268,354.187 119.076,354.313 118.86,354.445C118.644,354.577 118.42,354.701 118.188,354.817C117.956,354.933 117.726,355.027 117.498,355.099C117.27,355.171 117.06,355.207 116.868,355.207C116.38,355.207 115.98,355.077 115.668,354.817C115.356,354.557 115.2,354.219 115.2,353.803C115.2,353.715 115.208,353.583 115.224,353.407C115.24,353.231 115.26,353.031 115.284,352.807C115.308,352.583 115.328,352.343 115.344,352.087C115.36,351.831 115.368,351.583 115.368,351.343C115.368,350.975 115.31,350.693 115.194,350.497C115.078,350.301 114.928,350.191 114.744,350.167L114.552,350.143Z" style="fill:rgb(242,242,242);fill-rule:nonzero;"/>
            <path d="M124.056,351.931C124.048,352.003 124.04,352.067 124.032,352.123C124.024,352.179 124.018,352.243 124.014,352.315C124.01,352.387 124.006,352.477 124.002,352.585C123.998,352.693 123.996,352.835 123.996,353.011C123.996,353.299 124.006,353.535 124.026,353.719C124.046,353.903 124.076,354.049 124.116,354.157C124.156,354.265 124.206,354.339 124.266,354.379C124.326,354.419 124.4,354.439 124.488,354.439C124.544,354.439 124.604,354.431 124.668,354.415C124.684,354.415 124.698,354.437 124.71,354.481C124.722,354.525 124.72,354.555 124.704,354.571C124.656,354.611 124.562,354.669 124.422,354.745C124.282,354.821 124.124,354.895 123.948,354.967C123.772,355.039 123.59,355.103 123.402,355.159C123.214,355.215 123.056,355.243 122.928,355.243C122.816,355.243 122.728,355.229 122.664,355.201C122.6,355.173 122.568,355.139 122.568,355.099C122.568,355.059 122.572,355.035 122.58,355.027C122.588,355.019 122.6,354.999 122.616,354.967C122.632,354.927 122.644,354.877 122.652,354.817C122.66,354.757 122.672,354.687 122.688,354.607C122.704,354.495 122.72,354.353 122.736,354.181C122.752,354.009 122.768,353.821 122.784,353.617C122.8,353.413 122.814,353.201 122.826,352.981C122.838,352.761 122.844,352.547 122.844,352.339C122.844,352.251 122.842,352.141 122.838,352.009C122.834,351.877 122.828,351.707 122.82,351.499C122.812,351.267 122.786,351.069 122.742,350.905C122.698,350.741 122.642,350.609 122.574,350.509C122.506,350.409 122.43,350.335 122.346,350.287C122.262,350.239 122.18,350.215 122.1,350.215L121.98,350.215C121.94,350.215 121.9,350.219 121.86,350.227C121.828,350.227 121.812,350.191 121.812,350.119C121.812,350.103 121.818,350.089 121.83,350.077C121.842,350.065 121.88,350.039 121.944,349.999C122.048,349.927 122.188,349.839 122.364,349.735C122.54,349.631 122.72,349.535 122.904,349.447C123.088,349.359 123.262,349.283 123.426,349.219C123.59,349.155 123.716,349.123 123.804,349.123C124.036,349.123 124.152,349.255 124.152,349.519C124.152,349.559 124.148,349.631 124.14,349.735C124.132,349.839 124.126,349.945 124.122,350.053C124.118,350.161 124.112,350.263 124.104,350.359C124.096,350.455 124.092,350.519 124.092,350.551C124.26,350.391 124.44,350.227 124.632,350.059C124.824,349.891 125.032,349.737 125.256,349.597C125.48,349.457 125.716,349.343 125.964,349.255C126.212,349.167 126.468,349.123 126.732,349.123C127.212,349.123 127.606,349.261 127.914,349.537C128.222,349.813 128.376,350.251 128.376,350.851C128.376,351.011 128.366,351.199 128.346,351.415C128.326,351.631 128.304,351.855 128.28,352.087C128.256,352.319 128.234,352.547 128.214,352.771C128.194,352.995 128.184,353.195 128.184,353.371C128.184,354.011 128.392,354.331 128.808,354.331C128.888,354.331 128.978,354.317 129.078,354.289C129.178,354.261 129.274,354.229 129.366,354.193C129.458,354.157 129.54,354.121 129.612,354.085C129.684,354.049 129.732,354.019 129.756,353.995C129.764,353.987 129.774,353.993 129.786,354.013C129.798,354.033 129.808,354.059 129.816,354.091C129.824,354.123 129.826,354.151 129.822,354.175C129.818,354.199 129.812,354.215 129.804,354.223C129.74,354.263 129.602,354.339 129.39,354.451C129.178,354.563 128.942,354.677 128.682,354.793C128.422,354.909 128.164,355.013 127.908,355.105C127.652,355.197 127.448,355.243 127.296,355.243C127.112,355.243 126.986,355.199 126.918,355.111C126.85,355.023 126.816,354.931 126.816,354.835C126.816,354.771 126.826,354.691 126.846,354.595C126.866,354.499 126.892,354.343 126.924,354.127C126.956,353.895 126.986,353.623 127.014,353.311C127.042,352.999 127.056,352.663 127.056,352.303C127.056,351.599 126.926,351.065 126.666,350.701C126.406,350.337 126.08,350.155 125.688,350.155C125.44,350.155 125.22,350.203 125.028,350.299C124.836,350.395 124.672,350.525 124.536,350.689C124.4,350.853 124.292,351.041 124.212,351.253C124.132,351.465 124.08,351.691 124.056,351.931Z" style="fill:rgb(242,242,242);fill-rule:nonzero;"/>
            <path d="M135.264,353.431C135.28,353.415 135.294,353.417 135.306,353.437C135.318,353.457 135.326,353.485 135.33,353.521C135.334,353.557 135.332,353.595 135.324,353.635C135.316,353.675 135.3,353.707 135.276,353.731C135.116,353.883 134.916,354.043 134.676,354.211C134.436,354.379 134.188,354.535 133.932,354.679C133.86,354.719 133.76,354.771 133.632,354.835C133.504,354.899 133.362,354.961 133.206,355.021C133.05,355.081 132.89,355.133 132.726,355.177C132.562,355.221 132.408,355.243 132.264,355.243C131.976,355.243 131.704,355.187 131.448,355.075C131.192,354.963 130.968,354.809 130.776,354.613C130.584,354.417 130.434,354.183 130.326,353.911C130.218,353.639 130.164,353.343 130.164,353.023C130.164,352.679 130.212,352.355 130.308,352.051C130.404,351.747 130.514,351.475 130.638,351.235C130.762,350.995 130.88,350.793 130.992,350.629C131.104,350.465 131.18,350.343 131.22,350.263C131.068,350.255 130.93,350.249 130.806,350.245C130.682,350.241 130.564,350.239 130.452,350.239C130.196,350.239 129.98,350.241 129.804,350.245C129.628,350.249 129.472,350.267 129.336,350.299C129.272,350.315 129.212,350.347 129.156,350.395C129.1,350.443 129.052,350.479 129.012,350.503C128.996,350.487 128.974,350.465 128.946,350.437C128.918,350.409 128.904,350.379 128.904,350.347C128.904,350.331 128.908,350.319 128.916,350.311C128.916,350.303 128.968,350.257 129.072,350.173C129.176,350.089 129.306,349.989 129.462,349.873C129.618,349.757 129.79,349.629 129.978,349.489C130.166,349.349 130.346,349.219 130.518,349.099C130.69,348.979 130.838,348.877 130.962,348.793C131.086,348.709 131.168,348.659 131.208,348.643C131.256,348.627 131.304,348.635 131.352,348.667C131.4,348.699 131.416,348.723 131.4,348.739C131.376,348.755 131.34,348.785 131.292,348.829C131.244,348.873 131.228,348.911 131.244,348.943C131.332,349.015 131.484,349.079 131.7,349.135C131.916,349.191 132.16,349.237 132.432,349.273C132.704,349.309 132.984,349.337 133.272,349.357C133.56,349.377 133.82,349.387 134.052,349.387C134.396,349.387 134.672,349.377 134.88,349.357C135.088,349.337 135.26,349.311 135.396,349.279C135.524,349.247 135.608,349.223 135.648,349.207C135.656,349.207 135.672,349.219 135.696,349.243C135.72,349.267 135.732,349.295 135.732,349.327C135.732,349.343 135.674,349.383 135.558,349.447C135.442,349.511 135.324,349.579 135.204,349.651C135.132,349.691 135.046,349.743 134.946,349.807C134.846,349.871 134.738,349.933 134.622,349.993C134.506,350.053 134.384,350.107 134.256,350.155C134.128,350.203 134.004,350.231 133.884,350.239C133.764,350.255 133.624,350.267 133.464,350.275C133.304,350.283 133.136,350.289 132.96,350.293C132.784,350.297 132.606,350.301 132.426,350.305C132.246,350.309 132.08,350.311 131.928,350.311C131.904,350.351 131.866,350.417 131.814,350.509C131.762,350.601 131.712,350.719 131.664,350.863C131.616,351.007 131.572,351.171 131.532,351.355C131.492,351.539 131.472,351.739 131.472,351.955C131.472,352.283 131.522,352.585 131.622,352.861C131.722,353.137 131.862,353.375 132.042,353.575C132.222,353.775 132.436,353.931 132.684,354.043C132.932,354.155 133.2,354.211 133.488,354.211C133.656,354.211 133.818,354.191 133.974,354.151C134.13,354.111 134.278,354.059 134.418,353.995C134.558,353.931 134.688,353.861 134.808,353.785C134.928,353.709 135.032,353.635 135.12,353.563L135.264,353.431Z" style="fill:rgb(242,242,242);fill-rule:nonzero;"/>
            <path d="M140.796,353.695C140.708,353.791 140.572,353.923 140.388,354.091C140.204,354.259 139.982,354.427 139.722,354.595C139.462,354.763 139.172,354.907 138.852,355.027C138.532,355.147 138.192,355.207 137.832,355.207C137.504,355.207 137.184,355.157 136.872,355.057C136.56,354.957 136.28,354.805 136.032,354.601C135.784,354.397 135.586,354.137 135.438,353.821C135.29,353.505 135.216,353.127 135.216,352.687C135.216,352.327 135.24,352.017 135.288,351.757C135.336,351.497 135.4,351.269 135.48,351.073C135.56,350.877 135.65,350.709 135.75,350.569C135.85,350.429 135.952,350.303 136.056,350.191C136.184,350.047 136.34,349.911 136.524,349.783C136.708,349.655 136.906,349.539 137.118,349.435C137.33,349.331 137.554,349.249 137.79,349.189C138.026,349.129 138.264,349.099 138.504,349.099C138.936,349.099 139.274,349.171 139.518,349.315C139.762,349.459 139.884,349.659 139.884,349.915C139.884,350.075 139.836,350.223 139.74,350.359C139.82,350.335 139.922,350.295 140.046,350.239C140.17,350.183 140.296,350.125 140.424,350.065C140.552,350.005 140.666,349.951 140.766,349.903C140.866,349.855 140.932,349.819 140.964,349.795C140.98,349.779 140.998,349.773 141.018,349.777C141.038,349.781 141.048,349.795 141.048,349.819C141.048,349.923 141.028,350.009 140.988,350.077C140.948,350.145 140.9,350.199 140.844,350.239C140.716,350.319 140.532,350.419 140.292,350.539C140.052,350.659 139.786,350.785 139.494,350.917C139.202,351.049 138.9,351.181 138.588,351.313C138.276,351.445 137.982,351.571 137.706,351.691C137.43,351.811 137.19,351.917 136.986,352.009C136.782,352.101 136.644,352.167 136.572,352.207C136.572,352.479 136.626,352.733 136.734,352.969C136.842,353.205 136.992,353.411 137.184,353.587C137.376,353.763 137.606,353.901 137.874,354.001C138.142,354.101 138.436,354.151 138.756,354.151C139.044,354.151 139.304,354.121 139.536,354.061C139.768,354.001 139.964,353.933 140.124,353.857C140.284,353.781 140.41,353.713 140.502,353.653C140.594,353.593 140.644,353.563 140.652,353.563C140.684,353.563 140.716,353.577 140.748,353.605C140.78,353.633 140.796,353.663 140.796,353.695ZM136.572,351.859C136.708,351.811 136.862,351.753 137.034,351.685C137.206,351.617 137.374,351.543 137.538,351.463C137.702,351.383 137.852,351.307 137.988,351.235C138.124,351.163 138.228,351.099 138.3,351.043C138.444,350.939 138.516,350.763 138.516,350.515C138.516,350.419 138.498,350.319 138.462,350.215C138.426,350.111 138.372,350.017 138.3,349.933C138.228,349.849 138.14,349.781 138.036,349.729C137.932,349.677 137.816,349.651 137.688,349.651C137.576,349.651 137.456,349.689 137.328,349.765C137.2,349.841 137.08,349.965 136.968,350.137C136.856,350.309 136.762,350.537 136.686,350.821C136.61,351.105 136.572,351.451 136.572,351.859Z" style="fill:rgb(242,242,242);fill-rule:nonzero;"/>
            <path d="M146.364,349.999C146.276,350.071 146.172,350.161 146.052,350.269C145.932,350.377 145.806,350.481 145.674,350.581C145.542,350.681 145.408,350.767 145.272,350.839C145.136,350.911 145.004,350.947 144.876,350.947C144.764,350.947 144.664,350.921 144.576,350.869C144.488,350.817 144.406,350.761 144.33,350.701C144.254,350.641 144.18,350.585 144.108,350.533C144.036,350.481 143.96,350.455 143.88,350.455C143.664,350.455 143.482,350.543 143.334,350.719C143.186,350.895 143.066,351.119 142.974,351.391C142.882,351.663 142.814,351.959 142.77,352.279C142.726,352.599 142.704,352.907 142.704,353.203C142.704,353.451 142.714,353.653 142.734,353.809C142.754,353.965 142.784,354.089 142.824,354.181C142.864,354.273 142.918,354.335 142.986,354.367C143.054,354.399 143.136,354.415 143.232,354.415C143.336,354.415 143.448,354.399 143.568,354.367C143.592,354.359 143.61,354.375 143.622,354.415C143.634,354.455 143.64,354.487 143.64,354.511C143.64,354.527 143.628,354.545 143.604,354.565C143.58,354.585 143.564,354.595 143.556,354.595C143.38,354.667 143.2,354.745 143.016,354.829C142.832,354.913 142.68,354.983 142.56,355.039C142.448,355.087 142.314,355.139 142.158,355.195C142.002,355.251 141.868,355.279 141.756,355.279C141.628,355.279 141.522,355.259 141.438,355.219C141.354,355.179 141.312,355.139 141.312,355.099C141.312,355.059 141.322,355.023 141.342,354.991C141.362,354.959 141.38,354.899 141.396,354.811C141.412,354.691 141.43,354.549 141.45,354.385C141.47,354.221 141.49,354.043 141.51,353.851C141.53,353.659 141.546,353.461 141.558,353.257C141.57,353.053 141.576,352.851 141.576,352.651C141.576,352.203 141.562,351.823 141.534,351.511C141.506,351.199 141.456,350.947 141.384,350.755C141.312,350.563 141.214,350.425 141.09,350.341C140.966,350.257 140.808,350.215 140.616,350.215L140.508,350.215C140.476,350.215 140.444,350.219 140.412,350.227C140.364,350.227 140.34,350.203 140.34,350.155C140.34,350.107 140.364,350.071 140.412,350.047C140.5,349.991 140.636,349.909 140.82,349.801C141.004,349.693 141.194,349.589 141.39,349.489C141.586,349.389 141.776,349.299 141.96,349.219C142.144,349.139 142.28,349.099 142.368,349.099C142.472,349.099 142.56,349.133 142.632,349.201C142.704,349.269 142.758,349.355 142.794,349.459C142.83,349.563 142.856,349.681 142.872,349.813C142.888,349.945 142.896,350.075 142.896,350.203C142.896,350.299 142.894,350.399 142.89,350.503C142.886,350.607 142.884,350.719 142.884,350.839C143.244,350.311 143.568,349.901 143.856,349.609C144.144,349.317 144.416,349.171 144.672,349.171C144.768,349.171 144.862,349.211 144.954,349.291C145.046,349.371 145.144,349.461 145.248,349.561C145.352,349.661 145.46,349.751 145.572,349.831C145.684,349.911 145.8,349.951 145.92,349.951C146.024,349.951 146.1,349.939 146.148,349.915C146.196,349.891 146.236,349.871 146.268,349.855C146.332,349.855 146.364,349.899 146.364,349.987L146.364,349.999Z" style="fill:rgb(242,242,242);fill-rule:nonzero;"/>
        </g>
        <g transform="matrix(1,0,0,1,-65.4614,-51.6192)">
            <text x="76.188px" y="355.099px" style="font-family:'Luminari-Regular', 'Luminari';font-size:12px;fill:rgb(242,242,242);">Bar Counte</text>
            <text x="140.436px" y="355.099px" style="font-family:'Luminari-Regular', 'Luminari';font-size:12px;fill:rgb(242,242,242);">r</text>
        </g>
        <g transform="matrix(0.0220901,0,0,0.0250573,-15.5477,284.921)">
            <g transform="matrix(1,0,0,1,-143.343,98.6554)">
                <ellipse cx="360.896" cy="293.762" rx="136.961" ry="230.443" style="stroke:rgb(243,243,243);stroke-width:63.3px;"/>
            </g>
            <g transform="matrix(1,0,0,1,445.551,98.6554)">
                <ellipse cx="360.896" cy="293.762" rx="136.961" ry="230.443" style="stroke:rgb(243,243,243);stroke-width:63.3px;"/>
            </g>
            <g transform="matrix(1,0,0,1,-34.3236,-20.6488)">
                <ellipse cx="546.324" cy="643.509" rx="431.408" ry="296.899" style="stroke:rgb(243,243,243);stroke-width:63.3px;"/>
            </g>
            <circle cx="406.664" cy="569.758" r="105.336" style="stroke:rgb(243,243,243);stroke-width:63.3px;"/>
            <g transform="matrix(1,0,0,1,210.672,0)">
                <circle cx="406.664" cy="569.758" r="105.336" style="stroke:rgb(243,243,243);stroke-width:63.3px;"/>
            </g>
            <g transform="matrix(1,0,0,1,-53.1856,50.0357)">
                <ellipse cx="565.186" cy="671.455" rx="210.672" ry="98.631" style="fill:rgb(5,5,5);stroke:rgb(243,243,243);stroke-width:63.3px;"/>
            </g>
            <g transform="matrix(51.2,0,0,45.1371,0.670978,88.9676)">
                <path d="M12.057,13.791C12.057,13.668 11.958,13.568 11.835,13.568L8.139,13.568C8.016,13.568 7.916,13.668 7.916,13.791L7.916,14.236C7.916,14.359 8.016,14.458 8.139,14.458L11.835,14.458C11.958,14.458 12.057,14.359 12.057,14.236L12.057,13.791Z" style="fill:rgb(242,242,242);"/>
            </g>
        </g>
    </g>
    <g id="Display-oled-83x170" serif:id="Display#oled$83x170" transform="matrix(1.77099,0,0,7.31559,-144.317,-448.262)">
        <rect x="87.136" y="70.02" width="47.996" height="23.511" style="fill:rgb(19,19,19);"/>
    </g>
</svg>
