<?xml version="1.0" encoding="UTF-8" standalone="no"?>
<!DOCTYPE svg PUBLIC "-//W3C//DTD SVG 1.1//EN" "http://www.w3.org/Graphics/SVG/1.1/DTD/svg11.dtd">
<svg width="100%" height="100%" viewBox="0 0 90 380" version="1.1" xmlns="http://www.w3.org/2000/svg" xmlns:xlink="http://www.w3.org/1999/xlink" xml:space="preserve" xmlns:serif="http://www.serif.com/" style="fill-rule:evenodd;clip-rule:evenodd;stroke-linecap:round;stroke-linejoin:round;stroke-miterlimit:1.5;">
    <g transform="matrix(1.62646,0,0,3.82264,-5.23902,-309.338)">
        <rect x="3.221" y="80.923" width="55.335" height="99.408" style="fill:rgb(242,242,242);"/>
    </g>
    <g id="Reset">
        <g id="Button-button" serif:id="Button#button" transform="matrix(0.174892,0,0,0.175002,42.2376,322.943)">
            <rect x="53.94" y="106.916" width="161.978" height="161.978" style="fill:rgb(242,242,242);"/>
        </g>
        <g id="Input-input" serif:id="Input#input" transform="matrix(0.175002,0,0,0.175002,0.38717,322.943)">
            <rect x="53.94" y="106.916" width="161.978" height="161.978" style="fill:rgb(204,204,204);"/>
        </g>
        <g transform="matrix(6.12323e-17,1,-1,6.12323e-17,402.827,306.152)">
            <g transform="matrix(1,0,0,1,-47.6179,240.795)">
                <path d="M89.618,118.306L89.618,113.236L90.638,113.236L90.638,113.776C90.845,113.59 91.048,113.443 91.248,113.336C91.448,113.23 91.695,113.176 91.988,113.176L91.988,114.256C91.888,114.216 91.785,114.196 91.678,114.196C91.571,114.196 91.456,114.215 91.333,114.251C91.21,114.288 91.098,114.35 90.998,114.436C90.891,114.523 90.805,114.636 90.738,114.776C90.671,114.916 90.638,115.09 90.638,115.296L90.638,118.306L89.618,118.306Z" style="fill:rgb(5,5,5);fill-rule:nonzero;"/>
                <path d="M95.348,116.156L93.328,116.156L93.328,116.846C93.328,117.006 93.373,117.13 93.463,117.216C93.553,117.303 93.675,117.346 93.828,117.346C94.021,117.346 94.15,117.29 94.213,117.176C94.276,117.063 94.315,116.95 94.328,116.836L95.348,116.836C95.348,117.283 95.211,117.643 94.938,117.916C94.805,118.056 94.645,118.166 94.458,118.246C94.271,118.326 94.061,118.366 93.828,118.366C93.508,118.366 93.236,118.3 93.013,118.166C92.79,118.033 92.618,117.856 92.498,117.636C92.425,117.503 92.375,117.35 92.348,117.176C92.321,117.003 92.308,116.813 92.308,116.606L92.308,114.936C92.308,114.73 92.321,114.54 92.348,114.366C92.375,114.193 92.425,114.04 92.498,113.906C92.618,113.686 92.79,113.51 93.013,113.376C93.236,113.243 93.508,113.176 93.828,113.176C94.061,113.176 94.273,113.216 94.463,113.296C94.653,113.376 94.815,113.486 94.948,113.626C95.215,113.926 95.348,114.303 95.348,114.756L95.348,116.156ZM93.328,115.356L94.328,115.356L94.328,114.776C94.328,114.583 94.283,114.438 94.193,114.341C94.103,114.245 93.981,114.196 93.828,114.196C93.675,114.196 93.553,114.245 93.463,114.341C93.373,114.438 93.328,114.583 93.328,114.776L93.328,115.356Z" style="fill:rgb(5,5,5);fill-rule:nonzero;"/>
                <path d="M97.948,114.656C97.941,114.483 97.886,114.353 97.783,114.266C97.68,114.18 97.561,114.136 97.428,114.136C97.268,114.136 97.145,114.188 97.058,114.291C96.971,114.395 96.928,114.513 96.928,114.646C96.928,114.74 96.951,114.831 96.998,114.921C97.045,115.011 97.165,115.093 97.358,115.166L97.958,115.406C98.338,115.553 98.6,115.753 98.743,116.006C98.886,116.26 98.958,116.536 98.958,116.836C98.958,117.05 98.92,117.248 98.843,117.431C98.766,117.615 98.661,117.776 98.528,117.916C98.395,118.056 98.235,118.166 98.048,118.246C97.861,118.326 97.658,118.366 97.438,118.366C97.025,118.366 96.678,118.236 96.398,117.976C96.258,117.85 96.145,117.691 96.058,117.501C95.971,117.311 95.925,117.09 95.918,116.836L96.878,116.836C96.898,116.976 96.946,117.106 97.023,117.226C97.1,117.346 97.235,117.406 97.428,117.406C97.575,117.406 97.706,117.358 97.823,117.261C97.94,117.165 97.998,117.03 97.998,116.856C97.998,116.716 97.961,116.596 97.888,116.496C97.815,116.396 97.681,116.31 97.488,116.236L96.998,116.056C96.678,115.936 96.426,115.758 96.243,115.521C96.06,115.285 95.968,114.996 95.968,114.656C95.968,114.443 96.008,114.245 96.088,114.061C96.168,113.878 96.278,113.72 96.418,113.586C96.551,113.453 96.708,113.351 96.888,113.281C97.068,113.211 97.261,113.176 97.468,113.176C97.675,113.176 97.866,113.213 98.043,113.286C98.22,113.36 98.371,113.463 98.498,113.596C98.625,113.73 98.725,113.888 98.798,114.071C98.871,114.255 98.908,114.45 98.908,114.656L97.948,114.656Z" style="fill:rgb(5,5,5);fill-rule:nonzero;"/>
                <path d="M102.568,116.156L100.548,116.156L100.548,116.846C100.548,117.006 100.593,117.13 100.683,117.216C100.773,117.303 100.895,117.346 101.048,117.346C101.241,117.346 101.37,117.29 101.433,117.176C101.496,117.063 101.535,116.95 101.548,116.836L102.568,116.836C102.568,117.283 102.431,117.643 102.158,117.916C102.025,118.056 101.865,118.166 101.678,118.246C101.491,118.326 101.281,118.366 101.048,118.366C100.728,118.366 100.456,118.3 100.233,118.166C100.01,118.033 99.838,117.856 99.718,117.636C99.645,117.503 99.595,117.35 99.568,117.176C99.541,117.003 99.528,116.813 99.528,116.606L99.528,114.936C99.528,114.73 99.541,114.54 99.568,114.366C99.595,114.193 99.645,114.04 99.718,113.906C99.838,113.686 100.01,113.51 100.233,113.376C100.456,113.243 100.728,113.176 101.048,113.176C101.281,113.176 101.493,113.216 101.683,113.296C101.873,113.376 102.035,113.486 102.168,113.626C102.435,113.926 102.568,114.303 102.568,114.756L102.568,116.156ZM100.548,115.356L101.548,115.356L101.548,114.776C101.548,114.583 101.503,114.438 101.413,114.341C101.323,114.245 101.201,114.196 101.048,114.196C100.895,114.196 100.773,114.245 100.683,114.341C100.593,114.438 100.548,114.583 100.548,114.776L100.548,115.356Z" style="fill:rgb(5,5,5);fill-rule:nonzero;"/>
                <path d="M103.318,113.236L103.318,111.696L104.338,111.696L104.338,113.236L104.968,113.236L104.968,114.036L104.338,114.036L104.338,116.846C104.338,116.966 104.35,117.06 104.373,117.126C104.396,117.193 104.435,117.243 104.488,117.276C104.541,117.31 104.606,117.33 104.683,117.336C104.76,117.343 104.855,117.346 104.968,117.346L104.968,118.306L104.548,118.306C104.315,118.306 104.12,118.27 103.963,118.196C103.806,118.123 103.681,118.03 103.588,117.916C103.495,117.803 103.426,117.675 103.383,117.531C103.34,117.388 103.318,117.25 103.318,117.116L103.318,114.036L102.808,114.036L102.808,113.236L103.318,113.236Z" style="fill:rgb(5,5,5);fill-rule:nonzero;"/>
            </g>
            <g transform="matrix(1,0,0,1,-47.6179,240.795)">
                <text x="89.198px" y="118.306px" style="font-family:'DINCondensed-Bold', 'DIN Condensed';font-weight:700;font-stretch:condensed;font-size:10px;fill:rgb(5,5,5);">reset</text>
            </g>
        </g>
    </g>
    <g id="Row8" transform="matrix(1,0,0,1,-97.8599,-32.7658)">
        <g transform="matrix(0.686344,0,0,1,109.676,283.948)">
            <rect x="-2.646" y="59.523" width="101.99" height="2.286" style="fill:rgb(166,166,166);"/>
        </g>
        <g id="Out-output" serif:id="Out#output" transform="matrix(0.175002,0,0,0.175002,140.074,311.73)">
            <rect x="53.94" y="106.916" width="161.978" height="161.978" style="fill:rgb(77,77,77);"/>
        </g>
        <g id="Status-led" serif:id="Status#led" transform="matrix(1,0,0,1,100.693,8.75257)">
            <circle cx="42.167" cy="335.861" r="3.82" style="fill:rgb(230,230,230);"/>
        </g>
        <g id="In-input" serif:id="In#input" transform="matrix(0.175002,0,0,0.175002,98.4203,311.73)">
            <rect x="53.94" y="106.916" width="161.978" height="161.978" style="fill:rgb(217,217,217);"/>
        </g>
    </g>
    <g id="Row7" transform="matrix(1,0,0,1,-97.8599,-68.1999)">
        <g transform="matrix(0.686344,0,0,1,109.676,283.948)">
            <rect x="-2.646" y="59.523" width="101.99" height="2.286" style="fill:rgb(166,166,166);"/>
        </g>
        <g id="Out-output1" serif:id="Out#output" transform="matrix(0.175002,0,0,0.175002,140.074,311.73)">
            <rect x="53.94" y="106.916" width="161.978" height="161.978" style="fill:rgb(77,77,77);"/>
        </g>
        <g id="Status-led1" serif:id="Status#led" transform="matrix(1,0,0,1,100.693,8.75257)">
            <circle cx="42.167" cy="335.861" r="3.82" style="fill:rgb(230,230,230);"/>
        </g>
        <g id="In-input1" serif:id="In#input" transform="matrix(0.175002,0,0,0.175002,98.4203,311.73)">
            <rect x="53.94" y="106.916" width="161.978" height="161.978" style="fill:rgb(217,217,217);"/>
        </g>
    </g>
    <g id="Row6" transform="matrix(1,0,0,1,-97.8599,-103.634)">
        <g transform="matrix(0.686344,0,0,1,109.676,283.948)">
            <rect x="-2.646" y="59.523" width="101.99" height="2.286" style="fill:rgb(166,166,166);"/>
        </g>
        <g id="Out-output2" serif:id="Out#output" transform="matrix(0.175002,0,0,0.175002,140.074,311.73)">
            <rect x="53.94" y="106.916" width="161.978" height="161.978" style="fill:rgb(77,77,77);"/>
        </g>
        <g id="Status-led2" serif:id="Status#led" transform="matrix(1,0,0,1,100.693,8.75257)">
            <circle cx="42.167" cy="335.861" r="3.82" style="fill:rgb(230,230,230);"/>
        </g>
        <g id="In-input2" serif:id="In#input" transform="matrix(0.175002,0,0,0.175002,98.4203,311.73)">
            <rect x="53.94" y="106.916" width="161.978" height="161.978" style="fill:rgb(217,217,217);"/>
        </g>
    </g>
    <g id="Row5" transform="matrix(1,0,0,1,-97.8599,-139.068)">
        <g transform="matrix(0.686344,0,0,1,109.676,283.948)">
            <rect x="-2.646" y="59.523" width="101.99" height="2.286" style="fill:rgb(166,166,166);"/>
        </g>
        <g id="Out-output3" serif:id="Out#output" transform="matrix(0.175002,0,0,0.175002,140.074,311.73)">
            <rect x="53.94" y="106.916" width="161.978" height="161.978" style="fill:rgb(77,77,77);"/>
        </g>
        <g id="Status-led3" serif:id="Status#led" transform="matrix(1,0,0,1,100.693,8.75257)">
            <circle cx="42.167" cy="335.861" r="3.82" style="fill:rgb(230,230,230);"/>
        </g>
        <g id="In-input3" serif:id="In#input" transform="matrix(0.175002,0,0,0.175002,98.4203,311.73)">
            <rect x="53.94" y="106.916" width="161.978" height="161.978" style="fill:rgb(217,217,217);"/>
        </g>
    </g>
    <g id="Row4" transform="matrix(1,0,0,1,-97.8599,-174.502)">
        <g transform="matrix(0.686344,0,0,1,109.676,283.948)">
            <rect x="-2.646" y="59.523" width="101.99" height="2.286" style="fill:rgb(166,166,166);"/>
        </g>
        <g id="Out-output4" serif:id="Out#output" transform="matrix(0.175002,0,0,0.175002,140.074,311.73)">
            <rect x="53.94" y="106.916" width="161.978" height="161.978" style="fill:rgb(77,77,77);"/>
        </g>
        <g id="Status-led4" serif:id="Status#led" transform="matrix(1,0,0,1,100.693,8.75257)">
            <circle cx="42.167" cy="335.861" r="3.82" style="fill:rgb(230,230,230);"/>
        </g>
        <g id="In-input4" serif:id="In#input" transform="matrix(0.175002,0,0,0.175002,98.4203,311.73)">
            <rect x="53.94" y="106.916" width="161.978" height="161.978" style="fill:rgb(217,217,217);"/>
        </g>
    </g>
    <g id="Row3" transform="matrix(1,0,0,1,-97.8599,-209.936)">
        <g transform="matrix(0.686344,0,0,1,109.676,283.948)">
            <rect x="-2.646" y="59.523" width="101.99" height="2.286" style="fill:rgb(166,166,166);"/>
        </g>
        <g id="Out-output5" serif:id="Out#output" transform="matrix(0.175002,0,0,0.175002,140.074,311.73)">
            <rect x="53.94" y="106.916" width="161.978" height="161.978" style="fill:rgb(77,77,77);"/>
        </g>
        <g id="Status-led5" serif:id="Status#led" transform="matrix(1,0,0,1,100.693,8.75257)">
            <circle cx="42.167" cy="335.861" r="3.82" style="fill:rgb(230,230,230);"/>
        </g>
        <g id="In-input5" serif:id="In#input" transform="matrix(0.175002,0,0,0.175002,98.4203,311.73)">
            <rect x="53.94" y="106.916" width="161.978" height="161.978" style="fill:rgb(217,217,217);"/>
        </g>
    </g>
    <g id="Row2" transform="matrix(1,0,0,1,-97.8599,-245.371)">
        <g transform="matrix(0.686344,0,0,1,109.676,283.948)">
            <rect x="-2.646" y="59.523" width="101.99" height="2.286" style="fill:rgb(166,166,166);"/>
        </g>
        <g id="Out-output6" serif:id="Out#output" transform="matrix(0.175002,0,0,0.175002,140.074,311.73)">
            <rect x="53.94" y="106.916" width="161.978" height="161.978" style="fill:rgb(77,77,77);"/>
        </g>
        <g id="Status-led6" serif:id="Status#led" transform="matrix(1,0,0,1,100.693,8.75257)">
            <circle cx="42.167" cy="335.861" r="3.82" style="fill:rgb(230,230,230);"/>
        </g>
        <g id="In-input6" serif:id="In#input" transform="matrix(0.175002,0,0,0.175002,98.4203,311.73)">
            <rect x="53.94" y="106.916" width="161.978" height="161.978" style="fill:rgb(217,217,217);"/>
        </g>
    </g>
    <g id="Row1" transform="matrix(1,0,0,1,-97.8599,-280.805)">
        <g transform="matrix(0.686344,0,0,1,109.676,283.948)">
            <rect x="-2.646" y="59.523" width="101.99" height="2.286" style="fill:rgb(166,166,166);"/>
        </g>
        <g id="Out-output7" serif:id="Out#output" transform="matrix(0.175002,0,0,0.175002,140.074,311.73)">
            <rect x="53.94" y="106.916" width="161.978" height="161.978" style="fill:rgb(77,77,77);"/>
        </g>
        <g id="Status-led7" serif:id="Status#led" transform="matrix(1,0,0,1,100.693,8.75257)">
            <circle cx="42.167" cy="335.861" r="3.82" style="fill:rgb(230,230,230);"/>
        </g>
        <g id="In-input7" serif:id="In#input" transform="matrix(0.175002,0,0,0.175002,98.4203,311.73)">
            <rect x="53.94" y="106.916" width="161.978" height="161.978" style="fill:rgb(217,217,217);"/>
        </g>
    </g>
    <g transform="matrix(1,0,0,1,0,-5)">
        <g transform="matrix(1,0,0,1,-73.9281,-69.6775)">
            <path d="M92.278,118.896C92.285,119.016 92.333,119.13 92.423,119.236C92.513,119.343 92.645,119.396 92.818,119.396C92.985,119.396 93.105,119.345 93.178,119.241C93.251,119.138 93.288,119.006 93.288,118.846L93.288,117.846L93.268,117.846C93.155,118.013 93.02,118.141 92.863,118.231C92.706,118.321 92.525,118.366 92.318,118.366C91.891,118.366 91.595,118.206 91.428,117.886C91.368,117.773 91.325,117.633 91.298,117.466C91.271,117.3 91.258,117.076 91.258,116.796L91.258,114.866C91.258,114.5 91.268,114.23 91.288,114.056C91.328,113.723 91.485,113.473 91.758,113.306C91.885,113.22 92.075,113.176 92.328,113.176C92.455,113.176 92.563,113.19 92.653,113.216C92.743,113.243 92.825,113.28 92.898,113.326C92.971,113.373 93.038,113.428 93.098,113.491C93.158,113.555 93.221,113.623 93.288,113.696L93.288,113.236L94.308,113.236L94.308,118.926C94.308,119.1 94.28,119.275 94.223,119.451C94.166,119.628 94.075,119.786 93.948,119.926C93.821,120.073 93.661,120.191 93.468,120.281C93.275,120.371 93.045,120.416 92.778,120.416C92.625,120.416 92.465,120.391 92.298,120.341C92.131,120.291 91.978,120.206 91.838,120.086C91.691,119.973 91.566,119.821 91.463,119.631C91.36,119.441 91.291,119.196 91.258,118.896L92.278,118.896ZM92.278,116.746C92.278,116.906 92.313,117.046 92.383,117.166C92.453,117.286 92.585,117.346 92.778,117.346C92.925,117.346 93.046,117.295 93.143,117.191C93.24,117.088 93.288,116.956 93.288,116.796L93.288,114.826C93.288,114.64 93.241,114.488 93.148,114.371C93.055,114.255 92.931,114.196 92.778,114.196C92.605,114.196 92.478,114.26 92.398,114.386C92.318,114.513 92.278,114.68 92.278,114.886L92.278,116.746Z" style="fill-rule:nonzero;"/>
            <path d="M97.078,118.306L97.078,117.786L97.058,117.786C96.925,117.973 96.79,118.116 96.653,118.216C96.516,118.316 96.325,118.366 96.078,118.366C95.958,118.366 95.836,118.348 95.713,118.311C95.59,118.275 95.471,118.206 95.358,118.106C95.245,118.013 95.153,117.878 95.083,117.701C95.013,117.525 94.978,117.296 94.978,117.016C94.978,116.73 95.001,116.478 95.048,116.261C95.095,116.045 95.181,115.863 95.308,115.716C95.428,115.576 95.591,115.471 95.798,115.401C96.005,115.331 96.268,115.296 96.588,115.296L96.698,115.296C96.738,115.296 96.775,115.3 96.808,115.306C96.841,115.313 96.881,115.316 96.928,115.316C96.975,115.316 97.025,115.32 97.078,115.326L97.078,114.796C97.078,114.623 97.041,114.48 96.968,114.366C96.895,114.253 96.761,114.196 96.568,114.196C96.435,114.196 96.313,114.24 96.203,114.326C96.093,114.413 96.021,114.54 95.988,114.706L94.998,114.706C95.025,114.253 95.178,113.886 95.458,113.606C95.591,113.473 95.751,113.368 95.938,113.291C96.125,113.215 96.335,113.176 96.568,113.176C96.781,113.176 96.981,113.21 97.168,113.276C97.355,113.343 97.518,113.443 97.658,113.576C97.791,113.71 97.898,113.876 97.978,114.076C98.058,114.276 98.098,114.51 98.098,114.776L98.098,118.306L97.078,118.306ZM97.078,116.126C96.965,116.106 96.871,116.096 96.798,116.096C96.578,116.096 96.39,116.148 96.233,116.251C96.076,116.355 95.998,116.543 95.998,116.816C95.998,117.01 96.045,117.166 96.138,117.286C96.231,117.406 96.361,117.466 96.528,117.466C96.701,117.466 96.836,117.41 96.933,117.296C97.03,117.183 97.078,117.023 97.078,116.816L97.078,116.126Z" style="fill-rule:nonzero;"/>
            <path d="M98.848,113.236L98.848,111.696L99.868,111.696L99.868,113.236L100.498,113.236L100.498,114.036L99.868,114.036L99.868,116.846C99.868,116.966 99.88,117.06 99.903,117.126C99.926,117.193 99.965,117.243 100.018,117.276C100.071,117.31 100.136,117.33 100.213,117.336C100.29,117.343 100.385,117.346 100.498,117.346L100.498,118.306L100.078,118.306C99.845,118.306 99.65,118.27 99.493,118.196C99.336,118.123 99.211,118.03 99.118,117.916C99.025,117.803 98.956,117.675 98.913,117.531C98.87,117.388 98.848,117.25 98.848,117.116L98.848,114.036L98.338,114.036L98.338,113.236L98.848,113.236Z" style="fill-rule:nonzero;"/>
            <path d="M103.838,116.156L101.818,116.156L101.818,116.846C101.818,117.006 101.863,117.13 101.953,117.216C102.043,117.303 102.165,117.346 102.318,117.346C102.511,117.346 102.64,117.29 102.703,117.176C102.766,117.063 102.805,116.95 102.818,116.836L103.838,116.836C103.838,117.283 103.701,117.643 103.428,117.916C103.295,118.056 103.135,118.166 102.948,118.246C102.761,118.326 102.551,118.366 102.318,118.366C101.998,118.366 101.726,118.3 101.503,118.166C101.28,118.033 101.108,117.856 100.988,117.636C100.915,117.503 100.865,117.35 100.838,117.176C100.811,117.003 100.798,116.813 100.798,116.606L100.798,114.936C100.798,114.73 100.811,114.54 100.838,114.366C100.865,114.193 100.915,114.04 100.988,113.906C101.108,113.686 101.28,113.51 101.503,113.376C101.726,113.243 101.998,113.176 102.318,113.176C102.551,113.176 102.763,113.216 102.953,113.296C103.143,113.376 103.305,113.486 103.438,113.626C103.705,113.926 103.838,114.303 103.838,114.756L103.838,116.156ZM101.818,115.356L102.818,115.356L102.818,114.776C102.818,114.583 102.773,114.438 102.683,114.341C102.593,114.245 102.471,114.196 102.318,114.196C102.165,114.196 102.043,114.245 101.953,114.341C101.863,114.438 101.818,114.583 101.818,114.776L101.818,115.356Z" style="fill-rule:nonzero;"/>
        </g>
        <g transform="matrix(1,0,0,1,-73.9281,-69.6775)">
            <text x="90.838px" y="118.306px" style="font-family:'DINCondensed-Bold', 'DIN Condensed';font-weight:700;font-stretch:condensed;font-size:10px;">gate</text>
        </g>
        <g transform="matrix(1,0,0,1,-31.4108,-69.6775)">
            <path d="M90.328,111.186L91.348,111.186L91.348,116.876C91.348,117.07 91.383,117.201 91.453,117.271C91.523,117.341 91.655,117.386 91.848,117.406L91.848,118.366C91.615,118.366 91.405,118.348 91.218,118.311C91.031,118.275 90.871,118.203 90.738,118.096C90.605,117.996 90.503,117.855 90.433,117.671C90.363,117.488 90.328,117.246 90.328,116.946L90.328,111.186Z" style="fill-rule:nonzero;"/>
            <path d="M94.178,118.306L94.178,117.786L94.158,117.786C94.025,117.973 93.89,118.116 93.753,118.216C93.616,118.316 93.425,118.366 93.178,118.366C93.058,118.366 92.936,118.348 92.813,118.311C92.69,118.275 92.571,118.206 92.458,118.106C92.345,118.013 92.253,117.878 92.183,117.701C92.113,117.525 92.078,117.296 92.078,117.016C92.078,116.73 92.101,116.478 92.148,116.261C92.195,116.045 92.281,115.863 92.408,115.716C92.528,115.576 92.691,115.471 92.898,115.401C93.105,115.331 93.368,115.296 93.688,115.296L93.798,115.296C93.838,115.296 93.875,115.3 93.908,115.306C93.941,115.313 93.981,115.316 94.028,115.316C94.075,115.316 94.125,115.32 94.178,115.326L94.178,114.796C94.178,114.623 94.141,114.48 94.068,114.366C93.995,114.253 93.861,114.196 93.668,114.196C93.535,114.196 93.413,114.24 93.303,114.326C93.193,114.413 93.121,114.54 93.088,114.706L92.098,114.706C92.125,114.253 92.278,113.886 92.558,113.606C92.691,113.473 92.851,113.368 93.038,113.291C93.225,113.215 93.435,113.176 93.668,113.176C93.881,113.176 94.081,113.21 94.268,113.276C94.455,113.343 94.618,113.443 94.758,113.576C94.891,113.71 94.998,113.876 95.078,114.076C95.158,114.276 95.198,114.51 95.198,114.776L95.198,118.306L94.178,118.306ZM94.178,116.126C94.065,116.106 93.971,116.096 93.898,116.096C93.678,116.096 93.49,116.148 93.333,116.251C93.176,116.355 93.098,116.543 93.098,116.816C93.098,117.01 93.145,117.166 93.238,117.286C93.331,117.406 93.461,117.466 93.628,117.466C93.801,117.466 93.936,117.41 94.033,117.296C94.13,117.183 94.178,117.023 94.178,116.816L94.178,116.126Z" style="fill-rule:nonzero;"/>
            <path d="M95.948,113.236L95.948,111.696L96.968,111.696L96.968,113.236L97.598,113.236L97.598,114.036L96.968,114.036L96.968,116.846C96.968,116.966 96.98,117.06 97.003,117.126C97.026,117.193 97.065,117.243 97.118,117.276C97.171,117.31 97.236,117.33 97.313,117.336C97.39,117.343 97.485,117.346 97.598,117.346L97.598,118.306L97.178,118.306C96.945,118.306 96.75,118.27 96.593,118.196C96.436,118.123 96.311,118.03 96.218,117.916C96.125,117.803 96.056,117.675 96.013,117.531C95.97,117.388 95.948,117.25 95.948,117.116L95.948,114.036L95.438,114.036L95.438,113.236L95.948,113.236Z" style="fill-rule:nonzero;"/>
            <path d="M99.068,116.846C99.068,117.006 99.113,117.13 99.203,117.216C99.293,117.303 99.415,117.346 99.568,117.346C99.761,117.346 99.89,117.29 99.953,117.176C100.016,117.063 100.055,116.95 100.068,116.836L101.088,116.836C101.088,117.283 100.951,117.643 100.678,117.916C100.545,118.056 100.385,118.166 100.198,118.246C100.011,118.326 99.801,118.366 99.568,118.366C99.248,118.366 98.976,118.3 98.753,118.166C98.53,118.033 98.358,117.856 98.238,117.636C98.165,117.503 98.115,117.35 98.088,117.176C98.061,117.003 98.048,116.813 98.048,116.606L98.048,114.936C98.048,114.73 98.061,114.54 98.088,114.366C98.115,114.193 98.165,114.04 98.238,113.906C98.358,113.686 98.53,113.51 98.753,113.376C98.976,113.243 99.248,113.176 99.568,113.176C99.801,113.176 100.013,113.216 100.203,113.296C100.393,113.376 100.555,113.486 100.688,113.626C100.955,113.926 101.088,114.316 101.088,114.796L100.068,114.796C100.068,114.59 100.023,114.438 99.933,114.341C99.843,114.245 99.721,114.196 99.568,114.196C99.415,114.196 99.293,114.245 99.203,114.341C99.113,114.438 99.068,114.583 99.068,114.776L99.068,116.846Z" style="fill-rule:nonzero;"/>
            <path d="M101.568,118.306L101.568,111.186L102.588,111.186L102.588,113.726L102.608,113.726C102.715,113.566 102.843,113.435 102.993,113.331C103.143,113.228 103.335,113.176 103.568,113.176C103.695,113.176 103.821,113.198 103.948,113.241C104.075,113.285 104.188,113.356 104.288,113.456C104.388,113.556 104.468,113.685 104.528,113.841C104.588,113.998 104.618,114.19 104.618,114.416L104.618,118.306L103.598,118.306L103.598,114.796C103.598,114.61 103.555,114.463 103.468,114.356C103.381,114.25 103.258,114.196 103.098,114.196C102.905,114.196 102.771,114.256 102.698,114.376C102.625,114.496 102.588,114.67 102.588,114.896L102.588,118.306L101.568,118.306Z" style="fill-rule:nonzero;"/>
        </g>
        <g transform="matrix(1,0,0,1,-31.4108,-69.6775)">
            <text x="89.968px" y="118.306px" style="font-family:'DINCondensed-Bold', 'DIN Condensed';font-weight:700;font-stretch:condensed;font-size:10px;">latc<tspan x="101.148px " y="118.306px ">h</tspan></text>
        </g>
    </g>
    <g transform="matrix(1,0,0,1,33.6639,0.204)">
        <g transform="matrix(1,0,0,1,45.1227,-3.95975)">
            <path d="M-30.408,13.756C-30.296,13.756 -30.222,13.782 -30.186,13.834C-30.15,13.886 -30.132,13.968 -30.132,14.08C-30.54,14.488 -30.836,14.994 -31.02,15.598C-31.204,16.202 -31.3,16.904 -31.308,17.704C-31.308,17.728 -31.328,17.752 -31.368,17.776C-31.408,17.8 -31.45,17.818 -31.494,17.83C-31.538,17.842 -31.58,17.846 -31.62,17.842C-31.66,17.838 -31.68,17.816 -31.68,17.776C-31.68,17.744 -31.678,17.704 -31.674,17.656C-31.67,17.608 -31.668,17.556 -31.668,17.5C-31.668,17.308 -31.732,17.088 -31.86,16.84C-31.988,16.592 -32.164,16.354 -32.388,16.126C-32.612,15.898 -32.874,15.706 -33.174,15.55C-33.474,15.394 -33.796,15.316 -34.14,15.316C-34.612,15.316 -35.03,15.422 -35.394,15.634C-35.758,15.846 -36.064,16.128 -36.312,16.48C-36.56,16.832 -36.75,17.242 -36.882,17.71C-37.014,18.178 -37.08,18.668 -37.08,19.18C-37.08,19.756 -37.002,20.298 -36.846,20.806C-36.69,21.314 -36.472,21.758 -36.192,22.138C-35.912,22.518 -35.574,22.82 -35.178,23.044C-34.782,23.268 -34.348,23.38 -33.876,23.38C-33.556,23.38 -33.268,23.326 -33.012,23.218C-32.756,23.11 -32.54,22.962 -32.364,22.774C-32.188,22.586 -32.052,22.364 -31.956,22.108C-31.86,21.852 -31.812,21.576 -31.812,21.28C-31.812,21.04 -31.848,20.798 -31.92,20.554C-31.992,20.31 -32.092,20.09 -32.22,19.894C-32.348,19.698 -32.496,19.538 -32.664,19.414C-32.832,19.29 -33.016,19.228 -33.216,19.228C-33.336,19.228 -33.456,19.242 -33.576,19.27C-33.696,19.298 -33.804,19.342 -33.9,19.402C-33.996,19.462 -34.072,19.536 -34.128,19.624C-34.184,19.712 -34.212,19.82 -34.212,19.948C-34.212,20.044 -34.196,20.134 -34.164,20.218C-34.132,20.302 -34.092,20.374 -34.044,20.434C-33.996,20.494 -33.948,20.542 -33.9,20.578C-33.852,20.614 -33.812,20.628 -33.78,20.62C-33.74,20.612 -33.71,20.63 -33.69,20.674C-33.67,20.718 -33.668,20.748 -33.684,20.764C-33.724,20.812 -33.86,20.87 -34.092,20.938C-34.324,21.006 -34.6,21.04 -34.92,21.04C-35.208,21.04 -35.434,20.948 -35.598,20.764C-35.762,20.58 -35.844,20.368 -35.844,20.128C-35.844,19.976 -35.768,19.822 -35.616,19.666C-35.464,19.51 -35.256,19.37 -34.992,19.246C-34.728,19.122 -34.42,19.02 -34.068,18.94C-33.716,18.86 -33.34,18.82 -32.94,18.82C-32.508,18.82 -32.124,18.868 -31.788,18.964C-31.452,19.06 -31.168,19.192 -30.936,19.36C-30.704,19.528 -30.528,19.724 -30.408,19.948C-30.288,20.172 -30.228,20.408 -30.228,20.656C-30.228,21.04 -30.34,21.422 -30.564,21.802C-30.788,22.182 -31.084,22.522 -31.452,22.822C-31.82,23.122 -32.242,23.366 -32.718,23.554C-33.194,23.742 -33.684,23.836 -34.188,23.836C-34.956,23.836 -35.634,23.732 -36.222,23.524C-36.81,23.316 -37.3,23.024 -37.692,22.648C-38.084,22.272 -38.38,21.828 -38.58,21.316C-38.78,20.804 -38.88,20.24 -38.88,19.624C-38.88,18.96 -38.744,18.336 -38.472,17.752C-38.2,17.168 -37.828,16.656 -37.356,16.216C-36.884,15.776 -36.328,15.43 -35.688,15.178C-35.048,14.926 -34.356,14.8 -33.612,14.8C-33.036,14.8 -32.56,14.856 -32.184,14.968C-31.808,15.08 -31.504,15.172 -31.272,15.244C-31.24,15.164 -31.194,15.05 -31.134,14.902C-31.074,14.754 -31.006,14.604 -30.93,14.452C-30.854,14.3 -30.772,14.158 -30.684,14.026C-30.596,13.894 -30.504,13.804 -30.408,13.756Z" style="fill-rule:nonzero;"/>
            <path d="M-25.644,21.724C-25.668,21.588 -25.692,21.44 -25.716,21.28C-25.74,21.12 -25.764,20.968 -25.788,20.824C-25.812,20.68 -25.834,20.556 -25.854,20.452C-25.874,20.348 -25.888,20.28 -25.896,20.248C-26.024,20.296 -26.168,20.352 -26.328,20.416C-26.488,20.48 -26.648,20.55 -26.808,20.626C-26.968,20.702 -27.12,20.778 -27.264,20.854C-27.408,20.93 -27.528,21 -27.624,21.064C-27.808,21.184 -27.948,21.304 -28.044,21.424C-28.14,21.544 -28.188,21.688 -28.188,21.856C-28.188,22.088 -28.12,22.292 -27.984,22.468C-27.848,22.644 -27.636,22.732 -27.348,22.732C-27.196,22.732 -27.038,22.704 -26.874,22.648C-26.71,22.592 -26.558,22.528 -26.418,22.456C-26.278,22.384 -26.156,22.312 -26.052,22.24C-25.948,22.168 -25.876,22.112 -25.836,22.072C-25.772,22.008 -25.722,21.954 -25.686,21.91C-25.65,21.866 -25.636,21.804 -25.644,21.724ZM-25.992,19.864C-26.04,19.616 -26.096,19.394 -26.16,19.198C-26.224,19.002 -26.304,18.838 -26.4,18.706C-26.496,18.574 -26.612,18.474 -26.748,18.406C-26.884,18.338 -27.052,18.304 -27.252,18.304C-27.428,18.304 -27.59,18.336 -27.738,18.4C-27.886,18.464 -28.014,18.54 -28.122,18.628C-28.23,18.716 -28.314,18.804 -28.374,18.892C-28.434,18.98 -28.468,19.048 -28.476,19.096C-28.484,19.16 -28.52,19.192 -28.584,19.192C-28.696,19.192 -28.8,19.152 -28.896,19.072C-28.992,18.992 -29.04,18.896 -29.04,18.784C-29.04,18.72 -29.032,18.672 -29.016,18.64C-28.832,18.536 -28.608,18.424 -28.344,18.304C-28.08,18.184 -27.806,18.072 -27.522,17.968C-27.238,17.864 -26.956,17.778 -26.676,17.71C-26.396,17.642 -26.144,17.608 -25.92,17.608C-25.584,17.608 -25.326,17.656 -25.146,17.752C-24.966,17.848 -24.832,17.984 -24.744,18.16C-24.656,18.336 -24.602,18.542 -24.582,18.778C-24.562,19.014 -24.544,19.268 -24.528,19.54C-24.504,19.948 -24.472,20.342 -24.432,20.722C-24.392,21.102 -24.332,21.438 -24.252,21.73C-24.172,22.022 -24.07,22.258 -23.946,22.438C-23.822,22.618 -23.668,22.708 -23.484,22.708C-23.396,22.708 -23.3,22.692 -23.196,22.66C-23.092,22.628 -22.992,22.59 -22.896,22.546C-22.8,22.502 -22.714,22.458 -22.638,22.414C-22.562,22.37 -22.512,22.34 -22.488,22.324C-22.416,22.324 -22.372,22.36 -22.356,22.432C-22.356,22.472 -22.364,22.508 -22.38,22.54C-22.396,22.556 -22.456,22.596 -22.56,22.66C-22.664,22.724 -22.792,22.8 -22.944,22.888C-23.096,22.976 -23.264,23.07 -23.448,23.17C-23.632,23.27 -23.814,23.364 -23.994,23.452C-24.174,23.54 -24.34,23.612 -24.492,23.668C-24.644,23.724 -24.764,23.752 -24.852,23.752C-24.956,23.752 -25.046,23.71 -25.122,23.626C-25.198,23.542 -25.264,23.43 -25.32,23.29C-25.376,23.15 -25.424,22.988 -25.464,22.804C-25.504,22.62 -25.54,22.428 -25.572,22.228C-25.716,22.348 -25.9,22.49 -26.124,22.654C-26.348,22.818 -26.592,22.972 -26.856,23.116C-27.12,23.26 -27.39,23.382 -27.666,23.482C-27.942,23.582 -28.208,23.632 -28.464,23.632C-28.68,23.632 -28.868,23.598 -29.028,23.53C-29.188,23.462 -29.322,23.372 -29.43,23.26C-29.538,23.148 -29.618,23.018 -29.67,22.87C-29.722,22.722 -29.748,22.568 -29.748,22.408C-29.748,22.152 -29.67,21.942 -29.514,21.778C-29.358,21.614 -29.116,21.444 -28.788,21.268C-28.636,21.188 -28.424,21.082 -28.152,20.95C-27.88,20.818 -27.602,20.684 -27.318,20.548C-27.034,20.412 -26.77,20.282 -26.526,20.158C-26.282,20.034 -26.104,19.936 -25.992,19.864Z" style="fill-rule:nonzero;"/>
            <path d="M-17.328,21.928C-17.312,21.912 -17.298,21.914 -17.286,21.934C-17.274,21.954 -17.266,21.982 -17.262,22.018C-17.258,22.054 -17.26,22.092 -17.268,22.132C-17.276,22.172 -17.292,22.204 -17.316,22.228C-17.476,22.38 -17.676,22.54 -17.916,22.708C-18.156,22.876 -18.404,23.032 -18.66,23.176C-18.732,23.216 -18.832,23.268 -18.96,23.332C-19.088,23.396 -19.23,23.458 -19.386,23.518C-19.542,23.578 -19.702,23.63 -19.866,23.674C-20.03,23.718 -20.184,23.74 -20.328,23.74C-20.616,23.74 -20.888,23.684 -21.144,23.572C-21.4,23.46 -21.624,23.306 -21.816,23.11C-22.008,22.914 -22.158,22.68 -22.266,22.408C-22.374,22.136 -22.428,21.84 -22.428,21.52C-22.428,21.176 -22.38,20.852 -22.284,20.548C-22.188,20.244 -22.078,19.972 -21.954,19.732C-21.83,19.492 -21.712,19.29 -21.6,19.126C-21.488,18.962 -21.412,18.84 -21.372,18.76C-21.524,18.752 -21.662,18.746 -21.786,18.742C-21.91,18.738 -22.028,18.736 -22.14,18.736C-22.396,18.736 -22.612,18.738 -22.788,18.742C-22.964,18.746 -23.12,18.764 -23.256,18.796C-23.32,18.812 -23.38,18.844 -23.436,18.892C-23.492,18.94 -23.54,18.976 -23.58,19C-23.596,18.984 -23.618,18.962 -23.646,18.934C-23.674,18.906 -23.688,18.876 -23.688,18.844C-23.688,18.828 -23.684,18.816 -23.676,18.808C-23.676,18.8 -23.624,18.754 -23.52,18.67C-23.416,18.586 -23.286,18.486 -23.13,18.37C-22.974,18.254 -22.802,18.126 -22.614,17.986C-22.426,17.846 -22.246,17.716 -22.074,17.596C-21.902,17.476 -21.754,17.374 -21.63,17.29C-21.506,17.206 -21.424,17.156 -21.384,17.14C-21.336,17.124 -21.288,17.132 -21.24,17.164C-21.192,17.196 -21.176,17.22 -21.192,17.236C-21.216,17.252 -21.252,17.282 -21.3,17.326C-21.348,17.37 -21.364,17.408 -21.348,17.44C-21.26,17.512 -21.108,17.576 -20.892,17.632C-20.676,17.688 -20.432,17.734 -20.16,17.77C-19.888,17.806 -19.608,17.834 -19.32,17.854C-19.032,17.874 -18.772,17.884 -18.54,17.884C-18.196,17.884 -17.92,17.874 -17.712,17.854C-17.504,17.834 -17.332,17.808 -17.196,17.776C-17.068,17.744 -16.984,17.72 -16.944,17.704C-16.936,17.704 -16.92,17.716 -16.896,17.74C-16.872,17.764 -16.86,17.792 -16.86,17.824C-16.86,17.84 -16.918,17.88 -17.034,17.944C-17.15,18.008 -17.268,18.076 -17.388,18.148C-17.46,18.188 -17.546,18.24 -17.646,18.304C-17.746,18.368 -17.854,18.43 -17.97,18.49C-18.086,18.55 -18.208,18.604 -18.336,18.652C-18.464,18.7 -18.588,18.728 -18.708,18.736C-18.828,18.752 -18.968,18.764 -19.128,18.772C-19.288,18.78 -19.456,18.786 -19.632,18.79C-19.808,18.794 -19.986,18.798 -20.166,18.802C-20.346,18.806 -20.512,18.808 -20.664,18.808C-20.688,18.848 -20.726,18.914 -20.778,19.006C-20.83,19.098 -20.88,19.216 -20.928,19.36C-20.976,19.504 -21.02,19.668 -21.06,19.852C-21.1,20.036 -21.12,20.236 -21.12,20.452C-21.12,20.78 -21.07,21.082 -20.97,21.358C-20.87,21.634 -20.73,21.872 -20.55,22.072C-20.37,22.272 -20.156,22.428 -19.908,22.54C-19.66,22.652 -19.392,22.708 -19.104,22.708C-18.936,22.708 -18.774,22.688 -18.618,22.648C-18.462,22.608 -18.314,22.556 -18.174,22.492C-18.034,22.428 -17.904,22.358 -17.784,22.282C-17.664,22.206 -17.56,22.132 -17.472,22.06L-17.328,21.928Z" style="fill-rule:nonzero;"/>
            <path d="M-11.796,22.192C-11.884,22.288 -12.02,22.42 -12.204,22.588C-12.388,22.756 -12.61,22.924 -12.87,23.092C-13.13,23.26 -13.42,23.404 -13.74,23.524C-14.06,23.644 -14.4,23.704 -14.76,23.704C-15.088,23.704 -15.408,23.654 -15.72,23.554C-16.032,23.454 -16.312,23.302 -16.56,23.098C-16.808,22.894 -17.006,22.634 -17.154,22.318C-17.302,22.002 -17.376,21.624 -17.376,21.184C-17.376,20.824 -17.352,20.514 -17.304,20.254C-17.256,19.994 -17.192,19.766 -17.112,19.57C-17.032,19.374 -16.942,19.206 -16.842,19.066C-16.742,18.926 -16.64,18.8 -16.536,18.688C-16.408,18.544 -16.252,18.408 -16.068,18.28C-15.884,18.152 -15.686,18.036 -15.474,17.932C-15.262,17.828 -15.038,17.746 -14.802,17.686C-14.566,17.626 -14.328,17.596 -14.088,17.596C-13.656,17.596 -13.318,17.668 -13.074,17.812C-12.83,17.956 -12.708,18.156 -12.708,18.412C-12.708,18.572 -12.756,18.72 -12.852,18.856C-12.772,18.832 -12.67,18.792 -12.546,18.736C-12.422,18.68 -12.296,18.622 -12.168,18.562C-12.04,18.502 -11.926,18.448 -11.826,18.4C-11.726,18.352 -11.66,18.316 -11.628,18.292C-11.612,18.276 -11.594,18.27 -11.574,18.274C-11.554,18.278 -11.544,18.292 -11.544,18.316C-11.544,18.42 -11.564,18.506 -11.604,18.574C-11.644,18.642 -11.692,18.696 -11.748,18.736C-11.876,18.816 -12.06,18.916 -12.3,19.036C-12.54,19.156 -12.806,19.282 -13.098,19.414C-13.39,19.546 -13.692,19.678 -14.004,19.81C-14.316,19.942 -14.61,20.068 -14.886,20.188C-15.162,20.308 -15.402,20.414 -15.606,20.506C-15.81,20.598 -15.948,20.664 -16.02,20.704C-16.02,20.976 -15.966,21.23 -15.858,21.466C-15.75,21.702 -15.6,21.908 -15.408,22.084C-15.216,22.26 -14.986,22.398 -14.718,22.498C-14.45,22.598 -14.156,22.648 -13.836,22.648C-13.548,22.648 -13.288,22.618 -13.056,22.558C-12.824,22.498 -12.628,22.43 -12.468,22.354C-12.308,22.278 -12.182,22.21 -12.09,22.15C-11.998,22.09 -11.948,22.06 -11.94,22.06C-11.908,22.06 -11.876,22.074 -11.844,22.102C-11.812,22.13 -11.796,22.16 -11.796,22.192ZM-16.02,20.356C-15.884,20.308 -15.73,20.25 -15.558,20.182C-15.386,20.114 -15.218,20.04 -15.054,19.96C-14.89,19.88 -14.74,19.804 -14.604,19.732C-14.468,19.66 -14.364,19.596 -14.292,19.54C-14.148,19.436 -14.076,19.26 -14.076,19.012C-14.076,18.916 -14.094,18.816 -14.13,18.712C-14.166,18.608 -14.22,18.514 -14.292,18.43C-14.364,18.346 -14.452,18.278 -14.556,18.226C-14.66,18.174 -14.776,18.148 -14.904,18.148C-15.016,18.148 -15.136,18.186 -15.264,18.262C-15.392,18.338 -15.512,18.462 -15.624,18.634C-15.736,18.806 -15.83,19.034 -15.906,19.318C-15.982,19.602 -16.02,19.948 -16.02,20.356Z" style="fill-rule:nonzero;"/>
            <path d="M-38.364,27.364C-38.572,27.356 -38.702,27.334 -38.754,27.298C-38.806,27.262 -38.832,27.224 -38.832,27.184C-38.832,27.128 -38.824,27.078 -38.808,27.034C-38.792,26.99 -38.748,26.964 -38.676,26.956C-38.588,26.964 -38.454,26.978 -38.274,26.998C-38.094,27.018 -37.852,27.036 -37.548,27.052L-36.828,27.052C-36.476,27.044 -36.148,27.024 -35.844,26.992C-35.54,26.96 -35.268,26.924 -35.028,26.884C-34.788,26.844 -34.588,26.804 -34.428,26.764C-34.268,26.724 -34.156,26.688 -34.092,26.656L-34.08,26.656C-34.072,26.656 -34.066,26.654 -34.062,26.65C-34.058,26.646 -34.052,26.644 -34.044,26.644C-33.964,26.644 -33.924,26.728 -33.924,26.896C-33.924,26.968 -33.998,27.028 -34.146,27.076C-34.294,27.124 -34.464,27.166 -34.656,27.202C-34.848,27.238 -35.036,27.272 -35.22,27.304C-35.404,27.336 -35.528,27.372 -35.592,27.412C-35.64,27.492 -35.682,27.71 -35.718,28.066C-35.754,28.422 -35.782,28.842 -35.802,29.326C-35.822,29.81 -35.838,30.324 -35.85,30.868C-35.862,31.412 -35.868,31.912 -35.868,32.368C-35.868,33.104 -35.858,33.7 -35.838,34.156C-35.818,34.612 -35.78,34.868 -35.724,34.924C-35.7,34.932 -35.656,34.936 -35.592,34.936C-35.52,34.936 -35.434,34.93 -35.334,34.918C-35.234,34.906 -35.132,34.894 -35.028,34.882C-34.924,34.87 -34.822,34.856 -34.722,34.84C-34.622,34.824 -34.536,34.812 -34.464,34.804C-34.28,34.78 -34.082,34.75 -33.87,34.714C-33.658,34.678 -33.448,34.634 -33.24,34.582C-33.032,34.53 -32.838,34.464 -32.658,34.384C-32.478,34.304 -32.324,34.204 -32.196,34.084C-32.188,34.068 -32.182,34.062 -32.178,34.066C-32.174,34.07 -32.168,34.068 -32.16,34.06C-32.128,34.028 -32.092,34.016 -32.052,34.024C-32.012,34.032 -31.978,34.054 -31.95,34.09C-31.922,34.126 -31.904,34.166 -31.896,34.21C-31.888,34.254 -31.9,34.288 -31.932,34.312C-32.004,34.368 -32.074,34.452 -32.142,34.564C-32.21,34.676 -32.272,34.796 -32.328,34.924C-32.384,35.052 -32.432,35.174 -32.472,35.29C-32.512,35.406 -32.536,35.492 -32.544,35.548C-32.48,35.588 -32.41,35.644 -32.334,35.716C-32.258,35.788 -32.22,35.876 -32.22,35.98C-32.22,36.012 -32.23,36.054 -32.25,36.106C-32.27,36.158 -32.312,36.184 -32.376,36.184C-32.392,36.184 -32.42,36.18 -32.46,36.172C-32.5,36.164 -32.52,36.128 -32.52,36.064C-32.52,35.992 -32.488,35.94 -32.424,35.908C-32.456,35.892 -32.5,35.864 -32.556,35.824C-32.612,35.784 -32.668,35.756 -32.724,35.74C-32.868,35.716 -33.016,35.692 -33.168,35.668C-33.32,35.644 -33.486,35.626 -33.666,35.614C-33.846,35.602 -34.048,35.592 -34.272,35.584C-34.496,35.576 -34.748,35.572 -35.028,35.572C-35.676,35.572 -36.226,35.59 -36.678,35.626C-37.13,35.662 -37.512,35.7 -37.824,35.74C-38.136,35.78 -38.392,35.818 -38.592,35.854C-38.792,35.89 -38.956,35.908 -39.084,35.908C-39.196,35.908 -39.252,35.86 -39.252,35.764C-39.252,35.708 -39.24,35.648 -39.216,35.584C-39.192,35.52 -39.136,35.492 -39.048,35.5C-38.952,35.508 -38.826,35.504 -38.67,35.488C-38.514,35.472 -38.358,35.448 -38.202,35.416C-38.046,35.384 -37.91,35.35 -37.794,35.314C-37.678,35.278 -37.608,35.244 -37.584,35.212C-37.552,35.148 -37.518,34.996 -37.482,34.756C-37.446,34.516 -37.416,34.214 -37.392,33.85C-37.368,33.486 -37.348,33.072 -37.332,32.608C-37.316,32.144 -37.308,31.652 -37.308,31.132C-37.308,30.428 -37.314,29.848 -37.326,29.392C-37.338,28.936 -37.352,28.572 -37.368,28.3C-37.384,28.028 -37.404,27.828 -37.428,27.7C-37.452,27.572 -37.476,27.476 -37.5,27.412L-38.364,27.364Z" style="fill-rule:nonzero;"/>
            <path d="M-27.72,33.724C-27.744,33.588 -27.768,33.44 -27.792,33.28C-27.816,33.12 -27.84,32.968 -27.864,32.824C-27.888,32.68 -27.91,32.556 -27.93,32.452C-27.95,32.348 -27.964,32.28 -27.972,32.248C-28.1,32.296 -28.244,32.352 -28.404,32.416C-28.564,32.48 -28.724,32.55 -28.884,32.626C-29.044,32.702 -29.196,32.778 -29.34,32.854C-29.484,32.93 -29.604,33 -29.7,33.064C-29.884,33.184 -30.024,33.304 -30.12,33.424C-30.216,33.544 -30.264,33.688 -30.264,33.856C-30.264,34.088 -30.196,34.292 -30.06,34.468C-29.924,34.644 -29.712,34.732 -29.424,34.732C-29.272,34.732 -29.114,34.704 -28.95,34.648C-28.786,34.592 -28.634,34.528 -28.494,34.456C-28.354,34.384 -28.232,34.312 -28.128,34.24C-28.024,34.168 -27.952,34.112 -27.912,34.072C-27.848,34.008 -27.798,33.954 -27.762,33.91C-27.726,33.866 -27.712,33.804 -27.72,33.724ZM-28.068,31.864C-28.116,31.616 -28.172,31.394 -28.236,31.198C-28.3,31.002 -28.38,30.838 -28.476,30.706C-28.572,30.574 -28.688,30.474 -28.824,30.406C-28.96,30.338 -29.128,30.304 -29.328,30.304C-29.504,30.304 -29.666,30.336 -29.814,30.4C-29.962,30.464 -30.09,30.54 -30.198,30.628C-30.306,30.716 -30.39,30.804 -30.45,30.892C-30.51,30.98 -30.544,31.048 -30.552,31.096C-30.56,31.16 -30.596,31.192 -30.66,31.192C-30.772,31.192 -30.876,31.152 -30.972,31.072C-31.068,30.992 -31.116,30.896 -31.116,30.784C-31.116,30.72 -31.108,30.672 -31.092,30.64C-30.908,30.536 -30.684,30.424 -30.42,30.304C-30.156,30.184 -29.882,30.072 -29.598,29.968C-29.314,29.864 -29.032,29.778 -28.752,29.71C-28.472,29.642 -28.22,29.608 -27.996,29.608C-27.66,29.608 -27.402,29.656 -27.222,29.752C-27.042,29.848 -26.908,29.984 -26.82,30.16C-26.732,30.336 -26.678,30.542 -26.658,30.778C-26.638,31.014 -26.62,31.268 -26.604,31.54C-26.58,31.948 -26.548,32.342 -26.508,32.722C-26.468,33.102 -26.408,33.438 -26.328,33.73C-26.248,34.022 -26.146,34.258 -26.022,34.438C-25.898,34.618 -25.744,34.708 -25.56,34.708C-25.472,34.708 -25.376,34.692 -25.272,34.66C-25.168,34.628 -25.068,34.59 -24.972,34.546C-24.876,34.502 -24.79,34.458 -24.714,34.414C-24.638,34.37 -24.588,34.34 -24.564,34.324C-24.492,34.324 -24.448,34.36 -24.432,34.432C-24.432,34.472 -24.44,34.508 -24.456,34.54C-24.472,34.556 -24.532,34.596 -24.636,34.66C-24.74,34.724 -24.868,34.8 -25.02,34.888C-25.172,34.976 -25.34,35.07 -25.524,35.17C-25.708,35.27 -25.89,35.364 -26.07,35.452C-26.25,35.54 -26.416,35.612 -26.568,35.668C-26.72,35.724 -26.84,35.752 -26.928,35.752C-27.032,35.752 -27.122,35.71 -27.198,35.626C-27.274,35.542 -27.34,35.43 -27.396,35.29C-27.452,35.15 -27.5,34.988 -27.54,34.804C-27.58,34.62 -27.616,34.428 -27.648,34.228C-27.792,34.348 -27.976,34.49 -28.2,34.654C-28.424,34.818 -28.668,34.972 -28.932,35.116C-29.196,35.26 -29.466,35.382 -29.742,35.482C-30.018,35.582 -30.284,35.632 -30.54,35.632C-30.756,35.632 -30.944,35.598 -31.104,35.53C-31.264,35.462 -31.398,35.372 -31.506,35.26C-31.614,35.148 -31.694,35.018 -31.746,34.87C-31.798,34.722 -31.824,34.568 -31.824,34.408C-31.824,34.152 -31.746,33.942 -31.59,33.778C-31.434,33.614 -31.192,33.444 -30.864,33.268C-30.712,33.188 -30.5,33.082 -30.228,32.95C-29.956,32.818 -29.678,32.684 -29.394,32.548C-29.11,32.412 -28.846,32.282 -28.602,32.158C-28.358,32.034 -28.18,31.936 -28.068,31.864Z" style="fill-rule:nonzero;"/>
            <path d="M-19.404,33.928C-19.388,33.912 -19.374,33.914 -19.362,33.934C-19.35,33.954 -19.342,33.982 -19.338,34.018C-19.334,34.054 -19.336,34.092 -19.344,34.132C-19.352,34.172 -19.368,34.204 -19.392,34.228C-19.552,34.38 -19.752,34.54 -19.992,34.708C-20.232,34.876 -20.48,35.032 -20.736,35.176C-20.808,35.216 -20.908,35.268 -21.036,35.332C-21.164,35.396 -21.306,35.458 -21.462,35.518C-21.618,35.578 -21.778,35.63 -21.942,35.674C-22.106,35.718 -22.26,35.74 -22.404,35.74C-22.692,35.74 -22.964,35.684 -23.22,35.572C-23.476,35.46 -23.7,35.306 -23.892,35.11C-24.084,34.914 -24.234,34.68 -24.342,34.408C-24.45,34.136 -24.504,33.84 -24.504,33.52C-24.504,33.176 -24.456,32.852 -24.36,32.548C-24.264,32.244 -24.154,31.972 -24.03,31.732C-23.906,31.492 -23.788,31.29 -23.676,31.126C-23.564,30.962 -23.488,30.84 -23.448,30.76C-23.6,30.752 -23.738,30.746 -23.862,30.742C-23.986,30.738 -24.104,30.736 -24.216,30.736C-24.472,30.736 -24.688,30.738 -24.864,30.742C-25.04,30.746 -25.196,30.764 -25.332,30.796C-25.396,30.812 -25.456,30.844 -25.512,30.892C-25.568,30.94 -25.616,30.976 -25.656,31C-25.672,30.984 -25.694,30.962 -25.722,30.934C-25.75,30.906 -25.764,30.876 -25.764,30.844C-25.764,30.828 -25.76,30.816 -25.752,30.808C-25.752,30.8 -25.7,30.754 -25.596,30.67C-25.492,30.586 -25.362,30.486 -25.206,30.37C-25.05,30.254 -24.878,30.126 -24.69,29.986C-24.502,29.846 -24.322,29.716 -24.15,29.596C-23.978,29.476 -23.83,29.374 -23.706,29.29C-23.582,29.206 -23.5,29.156 -23.46,29.14C-23.412,29.124 -23.364,29.132 -23.316,29.164C-23.268,29.196 -23.252,29.22 -23.268,29.236C-23.292,29.252 -23.328,29.282 -23.376,29.326C-23.424,29.37 -23.44,29.408 -23.424,29.44C-23.336,29.512 -23.184,29.576 -22.968,29.632C-22.752,29.688 -22.508,29.734 -22.236,29.77C-21.964,29.806 -21.684,29.834 -21.396,29.854C-21.108,29.874 -20.848,29.884 -20.616,29.884C-20.272,29.884 -19.996,29.874 -19.788,29.854C-19.58,29.834 -19.408,29.808 -19.272,29.776C-19.144,29.744 -19.06,29.72 -19.02,29.704C-19.012,29.704 -18.996,29.716 -18.972,29.74C-18.948,29.764 -18.936,29.792 -18.936,29.824C-18.936,29.84 -18.994,29.88 -19.11,29.944C-19.226,30.008 -19.344,30.076 -19.464,30.148C-19.536,30.188 -19.622,30.24 -19.722,30.304C-19.822,30.368 -19.93,30.43 -20.046,30.49C-20.162,30.55 -20.284,30.604 -20.412,30.652C-20.54,30.7 -20.664,30.728 -20.784,30.736C-20.904,30.752 -21.044,30.764 -21.204,30.772C-21.364,30.78 -21.532,30.786 -21.708,30.79C-21.884,30.794 -22.062,30.798 -22.242,30.802C-22.422,30.806 -22.588,30.808 -22.74,30.808C-22.764,30.848 -22.802,30.914 -22.854,31.006C-22.906,31.098 -22.956,31.216 -23.004,31.36C-23.052,31.504 -23.096,31.668 -23.136,31.852C-23.176,32.036 -23.196,32.236 -23.196,32.452C-23.196,32.78 -23.146,33.082 -23.046,33.358C-22.946,33.634 -22.806,33.872 -22.626,34.072C-22.446,34.272 -22.232,34.428 -21.984,34.54C-21.736,34.652 -21.468,34.708 -21.18,34.708C-21.012,34.708 -20.85,34.688 -20.694,34.648C-20.538,34.608 -20.39,34.556 -20.25,34.492C-20.11,34.428 -19.98,34.358 -19.86,34.282C-19.74,34.206 -19.636,34.132 -19.548,34.06L-19.404,33.928Z" style="fill-rule:nonzero;"/>
            <path d="M-14.388,30.148C-14.404,30.196 -14.45,30.27 -14.526,30.37C-14.602,30.47 -14.692,30.574 -14.796,30.682C-14.9,30.79 -15.01,30.894 -15.126,30.994C-15.242,31.094 -15.344,31.168 -15.432,31.216C-15.488,31.24 -15.522,31.232 -15.534,31.192C-15.546,31.152 -15.552,31.112 -15.552,31.072C-15.552,31.008 -15.586,30.928 -15.654,30.832C-15.722,30.736 -15.818,30.642 -15.942,30.55C-16.066,30.458 -16.212,30.38 -16.38,30.316C-16.548,30.252 -16.732,30.22 -16.932,30.22C-17.276,30.22 -17.556,30.406 -17.772,30.778C-17.988,31.15 -18.096,31.644 -18.096,32.26C-18.096,32.636 -18.038,32.974 -17.922,33.274C-17.806,33.574 -17.646,33.826 -17.442,34.03C-17.238,34.234 -16.992,34.39 -16.704,34.498C-16.416,34.606 -16.104,34.66 -15.768,34.66C-15.312,34.66 -14.948,34.602 -14.676,34.486C-14.404,34.37 -14.18,34.236 -14.004,34.084C-13.996,34.084 -13.99,34.08 -13.986,34.072C-13.982,34.064 -13.976,34.06 -13.968,34.06C-13.928,34.06 -13.9,34.074 -13.884,34.102C-13.868,34.13 -13.86,34.164 -13.86,34.204C-13.86,34.236 -13.868,34.26 -13.884,34.276C-14.004,34.372 -14.17,34.5 -14.382,34.66C-14.594,34.82 -14.836,34.978 -15.108,35.134C-15.38,35.29 -15.664,35.424 -15.96,35.536C-16.256,35.648 -16.548,35.704 -16.836,35.704C-17.66,35.704 -18.302,35.464 -18.762,34.984C-19.222,34.504 -19.452,33.848 -19.452,33.016C-19.452,32.384 -19.33,31.852 -19.086,31.42C-18.842,30.988 -18.542,30.642 -18.186,30.382C-17.83,30.122 -17.452,29.936 -17.052,29.824C-16.652,29.712 -16.3,29.656 -15.996,29.656C-15.748,29.656 -15.526,29.674 -15.33,29.71C-15.134,29.746 -14.966,29.79 -14.826,29.842C-14.686,29.894 -14.578,29.948 -14.502,30.004C-14.426,30.06 -14.388,30.108 -14.388,30.148Z" style="fill-rule:nonzero;"/>
            <path d="M-12.18,30.928C-12.02,30.784 -11.84,30.634 -11.64,30.478C-11.44,30.322 -11.23,30.178 -11.01,30.046C-10.79,29.914 -10.56,29.806 -10.32,29.722C-10.08,29.638 -9.836,29.596 -9.588,29.596C-9.3,29.596 -9.03,29.642 -8.778,29.734C-8.526,29.826 -8.304,29.96 -8.112,30.136C-7.92,30.312 -7.768,30.522 -7.656,30.766C-7.544,31.01 -7.488,31.284 -7.488,31.588C-7.488,32.204 -7.594,32.77 -7.806,33.286C-8.018,33.802 -8.266,34.254 -8.55,34.642C-8.834,35.03 -9.116,35.352 -9.396,35.608C-9.676,35.864 -9.884,36.032 -10.02,36.112C-10.06,36.136 -10.1,36.128 -10.14,36.088C-10.18,36.048 -10.18,36.004 -10.14,35.956C-10.076,35.908 -9.978,35.79 -9.846,35.602C-9.714,35.414 -9.58,35.176 -9.444,34.888C-9.308,34.6 -9.188,34.272 -9.084,33.904C-8.98,33.536 -8.928,33.14 -8.928,32.716C-8.928,32.364 -8.97,32.052 -9.054,31.78C-9.138,31.508 -9.252,31.28 -9.396,31.096C-9.54,30.912 -9.706,30.772 -9.894,30.676C-10.082,30.58 -10.284,30.532 -10.5,30.532C-10.644,30.532 -10.796,30.554 -10.956,30.598C-11.116,30.642 -11.264,30.704 -11.4,30.784C-11.544,30.872 -11.684,30.98 -11.82,31.108C-11.956,31.236 -12.056,31.368 -12.12,31.504C-12.136,31.536 -12.15,31.566 -12.162,31.594C-12.174,31.622 -12.186,31.662 -12.198,31.714C-12.21,31.766 -12.222,31.832 -12.234,31.912C-12.246,31.992 -12.256,32.1 -12.264,32.236C-12.288,32.468 -12.306,32.694 -12.318,32.914C-12.33,33.134 -12.336,33.396 -12.336,33.7C-12.336,34.092 -12.312,34.394 -12.264,34.606C-12.216,34.818 -12.076,34.94 -11.844,34.972C-11.82,34.972 -11.792,34.97 -11.76,34.966C-11.728,34.962 -11.692,34.956 -11.652,34.948C-11.62,34.94 -11.58,34.928 -11.532,34.912C-11.508,34.912 -11.49,34.924 -11.478,34.948C-11.466,34.972 -11.46,34.996 -11.46,35.02C-11.46,35.044 -11.504,35.08 -11.592,35.128C-11.68,35.176 -11.792,35.226 -11.928,35.278C-12.064,35.33 -12.214,35.382 -12.378,35.434C-12.542,35.486 -12.696,35.536 -12.84,35.584C-12.992,35.624 -13.122,35.66 -13.23,35.692C-13.338,35.724 -13.412,35.74 -13.452,35.74C-13.692,35.74 -13.812,35.648 -13.812,35.464C-13.812,35.424 -13.792,35.348 -13.752,35.236C-13.712,35.124 -13.68,34.952 -13.656,34.72C-13.624,34.384 -13.592,34.014 -13.56,33.61C-13.528,33.206 -13.502,32.8 -13.482,32.392C-13.462,31.984 -13.446,31.584 -13.434,31.192C-13.422,30.8 -13.416,30.448 -13.416,30.136C-13.416,29.56 -13.426,29.072 -13.446,28.672C-13.466,28.272 -13.484,27.988 -13.5,27.82C-13.524,27.612 -13.548,27.474 -13.572,27.406C-13.596,27.338 -13.624,27.276 -13.656,27.22C-13.696,27.148 -13.746,27.098 -13.806,27.07C-13.866,27.042 -13.922,27.024 -13.974,27.016C-14.026,27.008 -14.07,27.006 -14.106,27.01C-14.142,27.014 -14.16,27.008 -14.16,26.992C-14.16,26.88 -14.124,26.788 -14.052,26.716C-13.98,26.644 -13.884,26.608 -13.764,26.608C-13.532,26.608 -13.292,26.604 -13.044,26.596C-12.796,26.588 -12.568,26.576 -12.36,26.56C-12.184,26.544 -12.022,26.52 -11.874,26.488C-11.726,26.456 -11.628,26.432 -11.58,26.416C-11.516,26.408 -11.482,26.418 -11.478,26.446C-11.474,26.474 -11.472,26.524 -11.472,26.596C-11.472,26.644 -11.492,26.68 -11.532,26.704C-11.572,26.728 -11.616,26.748 -11.664,26.764C-11.712,26.78 -11.758,26.794 -11.802,26.806C-11.846,26.818 -11.876,26.836 -11.892,26.86C-11.924,26.908 -11.956,27.056 -11.988,27.304C-12.02,27.552 -12.05,27.866 -12.078,28.246C-12.106,28.626 -12.13,29.048 -12.15,29.512C-12.17,29.976 -12.184,30.444 -12.192,30.916L-12.18,30.928Z" style="fill-rule:nonzero;"/>
        </g>
        <g transform="matrix(1,0,0,1,45.1227,-3.95975)">
            <text x="-39.144px" y="23.596px" style="font-family:'Luminari-Regular', 'Luminari';font-size:12px;">Gate</text>
            <text x="-39.144px" y="35.596px" style="font-family:'Luminari-Regular', 'Luminari';font-size:12px;">Latch</text>
        </g>
        <g transform="matrix(0.0178906,0,0,0.0202937,-16.4047,10.0338)">
            <g transform="matrix(1,0,0,1,-143.343,98.6554)">
                <ellipse cx="360.896" cy="293.762" rx="136.961" ry="230.443" style="fill:white;stroke:black;stroke-width:63.81px;"/>
            </g>
            <g transform="matrix(1,0,0,1,445.551,98.6554)">
                <ellipse cx="360.896" cy="293.762" rx="136.961" ry="230.443" style="fill:white;stroke:black;stroke-width:63.81px;"/>
            </g>
            <g transform="matrix(1,0,0,1,-34.3236,-20.6488)">
                <ellipse cx="546.324" cy="643.509" rx="431.408" ry="296.899" style="fill:white;stroke:black;stroke-width:63.81px;"/>
            </g>
            <circle cx="406.664" cy="569.758" r="105.336" style="fill:white;stroke:black;stroke-width:63.81px;"/>
            <g transform="matrix(1,0,0,1,210.672,0)">
                <circle cx="406.664" cy="569.758" r="105.336" style="fill:white;stroke:black;stroke-width:63.81px;"/>
            </g>
            <g transform="matrix(1,0,0,1,-53.1856,50.0357)">
                <ellipse cx="565.186" cy="671.455" rx="210.672" ry="98.631" style="fill:white;stroke:black;stroke-width:63.81px;"/>
            </g>
            <g transform="matrix(51.2,0,0,45.1371,0.670978,88.9676)">
                <path d="M12.057,13.791C12.057,13.668 11.958,13.568 11.835,13.568L8.139,13.568C8.016,13.568 7.916,13.668 7.916,13.791L7.916,14.236C7.916,14.359 8.016,14.458 8.139,14.458L11.835,14.458C11.958,14.458 12.057,14.359 12.057,14.236L12.057,13.791Z"/>
            </g>
        </g>
    </g>
</svg>
