<?xml version="1.0" encoding="UTF-8" standalone="no"?>
<!DOCTYPE svg PUBLIC "-//W3C//DTD SVG 1.1//EN" "http://www.w3.org/Graphics/SVG/1.1/DTD/svg11.dtd">
<svg width="100%" height="100%" viewBox="0 0 60 380" version="1.1" xmlns="http://www.w3.org/2000/svg" xmlns:xlink="http://www.w3.org/1999/xlink" xml:space="preserve" xmlns:serif="http://www.serif.com/" style="fill-rule:evenodd;clip-rule:evenodd;stroke-linecap:round;stroke-linejoin:round;stroke-miterlimit:1.5;">
    <g transform="matrix(0.28834,0,0,2.01589,-15.1541,-120.797)">
        <rect x="52.556" y="59.922" width="208.087" height="188.503" style="fill:rgb(154,178,191);stroke:rgb(5,5,5);stroke-width:1.39px;"/>
    </g>
    <g transform="matrix(1,0,0,1,-155.127,48.5994)">
        <g id="Connect-ledbutton" serif:id="Connect#ledbutton" transform="matrix(1,0,0,1,83.8192,-8.78101)">
            <circle cx="101.308" cy="310.24" r="9.898" style="fill:rgb(115,115,115);"/>
        </g>
        <g transform="matrix(1,0,0,1,83.3642,167.088)">
            <path d="M90.698,116.846C90.698,117.006 90.743,117.13 90.833,117.216C90.923,117.303 91.045,117.346 91.198,117.346C91.391,117.346 91.52,117.29 91.583,117.176C91.646,117.063 91.685,116.95 91.698,116.836L92.718,116.836C92.718,117.283 92.581,117.643 92.308,117.916C92.175,118.056 92.015,118.166 91.828,118.246C91.641,118.326 91.431,118.366 91.198,118.366C90.878,118.366 90.606,118.3 90.383,118.166C90.16,118.033 89.988,117.856 89.868,117.636C89.795,117.503 89.745,117.35 89.718,117.176C89.691,117.003 89.678,116.813 89.678,116.606L89.678,114.936C89.678,114.73 89.691,114.54 89.718,114.366C89.745,114.193 89.795,114.04 89.868,113.906C89.988,113.686 90.16,113.51 90.383,113.376C90.606,113.243 90.878,113.176 91.198,113.176C91.431,113.176 91.643,113.216 91.833,113.296C92.023,113.376 92.185,113.486 92.318,113.626C92.585,113.926 92.718,114.316 92.718,114.796L91.698,114.796C91.698,114.59 91.653,114.438 91.563,114.341C91.473,114.245 91.351,114.196 91.198,114.196C91.045,114.196 90.923,114.245 90.833,114.341C90.743,114.438 90.698,114.583 90.698,114.776L90.698,116.846Z" style="fill-rule:nonzero;"/>
            <path d="M93.228,114.936C93.228,114.73 93.241,114.54 93.268,114.366C93.295,114.193 93.345,114.04 93.418,113.906C93.538,113.686 93.71,113.51 93.933,113.376C94.156,113.243 94.428,113.176 94.748,113.176C95.068,113.176 95.34,113.243 95.563,113.376C95.786,113.51 95.958,113.686 96.078,113.906C96.151,114.04 96.201,114.193 96.228,114.366C96.255,114.54 96.268,114.73 96.268,114.936L96.268,116.606C96.268,116.813 96.255,117.003 96.228,117.176C96.201,117.35 96.151,117.503 96.078,117.636C95.958,117.856 95.786,118.033 95.563,118.166C95.34,118.3 95.068,118.366 94.748,118.366C94.428,118.366 94.156,118.3 93.933,118.166C93.71,118.033 93.538,117.856 93.418,117.636C93.345,117.503 93.295,117.35 93.268,117.176C93.241,117.003 93.228,116.813 93.228,116.606L93.228,114.936ZM94.248,116.766C94.248,116.96 94.293,117.105 94.383,117.201C94.473,117.298 94.595,117.346 94.748,117.346C94.901,117.346 95.023,117.298 95.113,117.201C95.203,117.105 95.248,116.96 95.248,116.766L95.248,114.776C95.248,114.583 95.203,114.438 95.113,114.341C95.023,114.245 94.901,114.196 94.748,114.196C94.595,114.196 94.473,114.245 94.383,114.341C94.293,114.438 94.248,114.583 94.248,114.776L94.248,116.766Z" style="fill-rule:nonzero;"/>
            <path d="M97.018,118.306L97.018,113.236L98.038,113.236L98.038,113.726L98.058,113.726C98.165,113.566 98.293,113.435 98.443,113.331C98.593,113.228 98.785,113.176 99.018,113.176C99.145,113.176 99.271,113.198 99.398,113.241C99.525,113.285 99.638,113.356 99.738,113.456C99.838,113.556 99.918,113.685 99.978,113.841C100.038,113.998 100.068,114.19 100.068,114.416L100.068,118.306L99.048,118.306L99.048,114.796C99.048,114.61 99.005,114.463 98.918,114.356C98.831,114.25 98.708,114.196 98.548,114.196C98.355,114.196 98.221,114.256 98.148,114.376C98.075,114.496 98.038,114.67 98.038,114.896L98.038,118.306L97.018,118.306Z" style="fill-rule:nonzero;"/>
            <path d="M100.908,118.306L100.908,113.236L101.928,113.236L101.928,113.726L101.948,113.726C102.055,113.566 102.183,113.435 102.333,113.331C102.483,113.228 102.675,113.176 102.908,113.176C103.035,113.176 103.161,113.198 103.288,113.241C103.415,113.285 103.528,113.356 103.628,113.456C103.728,113.556 103.808,113.685 103.868,113.841C103.928,113.998 103.958,114.19 103.958,114.416L103.958,118.306L102.938,118.306L102.938,114.796C102.938,114.61 102.895,114.463 102.808,114.356C102.721,114.25 102.598,114.196 102.438,114.196C102.245,114.196 102.111,114.256 102.038,114.376C101.965,114.496 101.928,114.67 101.928,114.896L101.928,118.306L100.908,118.306Z" style="fill-rule:nonzero;"/>
            <path d="M107.748,116.156L105.728,116.156L105.728,116.846C105.728,117.006 105.773,117.13 105.863,117.216C105.953,117.303 106.075,117.346 106.228,117.346C106.421,117.346 106.55,117.29 106.613,117.176C106.676,117.063 106.715,116.95 106.728,116.836L107.748,116.836C107.748,117.283 107.611,117.643 107.338,117.916C107.205,118.056 107.045,118.166 106.858,118.246C106.671,118.326 106.461,118.366 106.228,118.366C105.908,118.366 105.636,118.3 105.413,118.166C105.19,118.033 105.018,117.856 104.898,117.636C104.825,117.503 104.775,117.35 104.748,117.176C104.721,117.003 104.708,116.813 104.708,116.606L104.708,114.936C104.708,114.73 104.721,114.54 104.748,114.366C104.775,114.193 104.825,114.04 104.898,113.906C105.018,113.686 105.19,113.51 105.413,113.376C105.636,113.243 105.908,113.176 106.228,113.176C106.461,113.176 106.673,113.216 106.863,113.296C107.053,113.376 107.215,113.486 107.348,113.626C107.615,113.926 107.748,114.303 107.748,114.756L107.748,116.156ZM105.728,115.356L106.728,115.356L106.728,114.776C106.728,114.583 106.683,114.438 106.593,114.341C106.503,114.245 106.381,114.196 106.228,114.196C106.075,114.196 105.953,114.245 105.863,114.341C105.773,114.438 105.728,114.583 105.728,114.776L105.728,115.356Z" style="fill-rule:nonzero;"/>
            <path d="M109.578,116.846C109.578,117.006 109.623,117.13 109.713,117.216C109.803,117.303 109.925,117.346 110.078,117.346C110.271,117.346 110.4,117.29 110.463,117.176C110.526,117.063 110.565,116.95 110.578,116.836L111.598,116.836C111.598,117.283 111.461,117.643 111.188,117.916C111.055,118.056 110.895,118.166 110.708,118.246C110.521,118.326 110.311,118.366 110.078,118.366C109.758,118.366 109.486,118.3 109.263,118.166C109.04,118.033 108.868,117.856 108.748,117.636C108.675,117.503 108.625,117.35 108.598,117.176C108.571,117.003 108.558,116.813 108.558,116.606L108.558,114.936C108.558,114.73 108.571,114.54 108.598,114.366C108.625,114.193 108.675,114.04 108.748,113.906C108.868,113.686 109.04,113.51 109.263,113.376C109.486,113.243 109.758,113.176 110.078,113.176C110.311,113.176 110.523,113.216 110.713,113.296C110.903,113.376 111.065,113.486 111.198,113.626C111.465,113.926 111.598,114.316 111.598,114.796L110.578,114.796C110.578,114.59 110.533,114.438 110.443,114.341C110.353,114.245 110.231,114.196 110.078,114.196C109.925,114.196 109.803,114.245 109.713,114.341C109.623,114.438 109.578,114.583 109.578,114.776L109.578,116.846Z" style="fill-rule:nonzero;"/>
            <path d="M112.198,113.236L112.198,111.696L113.218,111.696L113.218,113.236L113.848,113.236L113.848,114.036L113.218,114.036L113.218,116.846C113.218,116.966 113.23,117.06 113.253,117.126C113.276,117.193 113.315,117.243 113.368,117.276C113.421,117.31 113.486,117.33 113.563,117.336C113.64,117.343 113.735,117.346 113.848,117.346L113.848,118.306L113.428,118.306C113.195,118.306 113,118.27 112.843,118.196C112.686,118.123 112.561,118.03 112.468,117.916C112.375,117.803 112.306,117.675 112.263,117.531C112.22,117.388 112.198,117.25 112.198,117.116L112.198,114.036L111.688,114.036L111.688,113.236L112.198,113.236Z" style="fill-rule:nonzero;"/>
        </g>
        <g transform="matrix(1,0,0,1,83.3642,167.088)">
            <text x="89.198px" y="118.306px" style="font-family:'DINCondensed-Bold', 'DIN Condensed';font-weight:700;font-stretch:condensed;font-size:10px;">connect</text>
        </g>
    </g>
    <g transform="matrix(0.816456,0,0,0.816456,31.4849,-226.739)">
        <g transform="matrix(1,0,0,1,-100.189,-30.7269)">
            <path d="M92.962,355.937C92.982,355.937 93.001,355.966 93.021,356.025C93.041,356.084 93.041,356.133 93.021,356.172C92.982,356.26 92.911,356.358 92.808,356.466C92.705,356.574 92.573,356.677 92.411,356.775C92.249,356.873 92.063,356.956 91.853,357.025C91.642,357.093 91.419,357.127 91.184,357.127C90.988,357.127 90.826,357.093 90.699,357.025C90.571,356.956 90.466,356.875 90.383,356.782C90.299,356.689 90.241,356.591 90.206,356.488C90.172,356.385 90.155,356.299 90.155,356.231C90.155,356.094 90.206,355.954 90.309,355.812C90.412,355.67 90.544,355.503 90.706,355.312C90.868,355.121 91.039,354.893 91.221,354.629C91.402,354.364 91.573,354.043 91.735,353.666C91.897,353.289 92.029,352.843 92.132,352.329C92.235,351.814 92.286,351.204 92.286,350.499C92.286,349.392 92.041,348.544 91.551,347.956C91.061,347.368 90.429,347.074 89.655,347.074C89.449,347.074 89.2,347.131 88.906,347.243C88.612,347.356 88.33,347.513 88.061,347.714C87.791,347.914 87.558,348.155 87.362,348.434C87.166,348.713 87.064,349.019 87.054,349.352C87.044,349.529 87.037,349.735 87.032,349.97C87.027,350.205 87.024,350.455 87.024,350.719L87.024,352.336C87.034,352.865 87.054,353.335 87.083,353.747C87.113,354.159 87.157,354.418 87.215,354.526C87.294,354.644 87.429,354.712 87.62,354.732C87.811,354.751 87.989,354.761 88.156,354.761C88.244,354.761 88.288,354.825 88.288,354.952C88.288,355.07 88.23,355.129 88.112,355.129C88.053,355.129 87.953,355.126 87.811,355.121C87.669,355.116 87.512,355.114 87.34,355.114C87.169,355.114 86.997,355.111 86.826,355.107C86.654,355.102 86.515,355.099 86.407,355.099C86.152,355.099 85.883,355.102 85.599,355.107C85.315,355.111 85.045,355.116 84.79,355.121C84.536,355.126 84.313,355.133 84.122,355.143C83.93,355.153 83.806,355.163 83.747,355.173C83.717,355.173 83.698,355.153 83.688,355.114C83.678,355.075 83.678,355.031 83.688,354.982C83.698,354.933 83.717,354.889 83.747,354.849C83.776,354.81 83.806,354.791 83.835,354.791C84.031,354.791 84.229,354.773 84.43,354.739C84.631,354.705 84.756,354.668 84.805,354.629C84.883,354.57 84.954,354.379 85.018,354.056C85.082,353.732 85.138,353.331 85.187,352.85C85.236,352.37 85.275,351.844 85.305,351.27C85.334,350.697 85.349,350.136 85.349,349.588C85.349,348.48 85.344,347.613 85.334,346.986C85.324,346.359 85.297,345.891 85.253,345.582C85.209,345.274 85.145,345.085 85.062,345.017C84.979,344.948 84.869,344.914 84.732,344.914C84.692,344.914 84.636,344.916 84.562,344.921C84.489,344.926 84.413,344.933 84.335,344.943C84.256,344.953 84.185,344.96 84.122,344.965C84.058,344.97 84.016,344.972 83.997,344.972C83.977,344.972 83.965,344.953 83.96,344.914C83.955,344.875 83.953,344.835 83.953,344.796C83.953,344.757 83.957,344.703 83.967,344.634C83.977,344.566 84.006,344.532 84.055,344.532L84.246,344.532C84.325,344.532 84.447,344.534 84.614,344.539C84.781,344.544 85.003,344.549 85.283,344.554C85.562,344.559 85.927,344.561 86.378,344.561C87.877,344.561 89.192,344.492 90.324,344.355C91.456,344.218 92.443,344.022 93.286,343.767C93.374,343.738 93.43,343.735 93.455,343.76C93.479,343.784 93.491,343.826 93.491,343.885C93.491,343.953 93.45,344.044 93.366,344.157C93.283,344.269 93.18,344.382 93.058,344.495C92.935,344.608 92.803,344.703 92.661,344.781C92.519,344.86 92.384,344.899 92.257,344.899C92.09,344.899 91.884,344.894 91.639,344.884C91.394,344.875 91.13,344.865 90.846,344.855C90.562,344.845 90.263,344.838 89.949,344.833C89.636,344.828 89.327,344.826 89.023,344.826C88.533,344.826 88.134,344.862 87.825,344.936C87.517,345.009 87.338,345.119 87.289,345.266C87.201,345.472 87.147,345.778 87.127,346.185C87.108,346.592 87.098,347.187 87.098,347.971C87.196,347.873 87.38,347.716 87.649,347.5C87.918,347.285 88.237,347.067 88.604,346.846C88.972,346.626 89.371,346.43 89.802,346.259C90.233,346.087 90.664,346.001 91.096,346.001C91.507,346.001 91.904,346.077 92.286,346.229C92.668,346.381 93.006,346.589 93.3,346.854C93.594,347.118 93.829,347.429 94.006,347.787C94.182,348.145 94.27,348.529 94.27,348.941C94.27,349.392 94.207,349.823 94.079,350.234C93.952,350.646 93.79,351.04 93.594,351.417C93.398,351.795 93.188,352.16 92.962,352.512C92.737,352.865 92.526,353.208 92.33,353.541C92.134,353.874 91.973,354.2 91.845,354.519C91.718,354.837 91.654,355.148 91.654,355.452C91.654,355.648 91.715,355.812 91.838,355.944C91.96,356.077 92.154,356.143 92.418,356.143C92.546,356.143 92.658,356.121 92.756,356.077C92.854,356.032 92.918,355.986 92.948,355.937L92.962,355.937Z" style="fill-rule:nonzero;"/>
            <path d="M94.873,349.029C94.795,349.009 94.758,348.97 94.763,348.911C94.768,348.853 94.804,348.818 94.873,348.809C94.902,348.799 94.995,348.764 95.152,348.706C95.309,348.647 95.498,348.578 95.718,348.5C95.938,348.422 96.169,348.338 96.409,348.25C96.649,348.162 96.862,348.088 97.048,348.03C97.166,347.99 97.247,347.963 97.291,347.949C97.335,347.934 97.372,347.927 97.401,347.927C97.43,347.927 97.465,347.939 97.504,347.963C97.543,347.988 97.553,348.025 97.533,348.074C97.504,348.152 97.472,348.338 97.438,348.632C97.403,348.926 97.372,349.252 97.342,349.61C97.313,349.967 97.286,350.322 97.261,350.675C97.237,351.028 97.225,351.307 97.225,351.513C97.225,352.297 97.391,352.902 97.724,353.328C98.057,353.754 98.577,353.967 99.282,353.967C99.645,353.967 99.946,353.894 100.186,353.747C100.426,353.6 100.61,353.429 100.737,353.233C100.825,353.105 100.884,352.826 100.914,352.395C100.914,352.316 100.916,352.214 100.921,352.086C100.926,351.959 100.931,351.824 100.936,351.682C100.941,351.54 100.945,351.403 100.95,351.27C100.955,351.138 100.958,351.028 100.958,350.94C100.968,350.489 100.955,350.07 100.921,349.683C100.887,349.296 100.835,349.009 100.767,348.823C100.737,348.706 100.678,348.647 100.59,348.647C100.531,348.647 100.475,348.649 100.421,348.654C100.367,348.659 100.336,348.618 100.326,348.529C100.326,348.5 100.355,348.468 100.414,348.434C100.473,348.399 100.585,348.348 100.752,348.279C100.909,348.221 101.083,348.162 101.274,348.103C101.465,348.044 101.653,347.995 101.84,347.956C102.026,347.917 102.192,347.89 102.339,347.875C102.486,347.861 102.594,347.868 102.663,347.897C102.663,347.907 102.67,347.919 102.685,347.934C102.699,347.949 102.712,347.981 102.721,348.03C102.741,348.088 102.729,348.272 102.685,348.581C102.641,348.889 102.594,349.392 102.545,350.087C102.506,350.567 102.472,351.033 102.442,351.484C102.413,351.934 102.398,352.277 102.398,352.512C102.398,352.973 102.484,353.338 102.655,353.607C102.827,353.877 103.04,354.012 103.295,354.012C103.461,354.012 103.62,353.977 103.772,353.909C103.924,353.84 104.034,353.781 104.103,353.732C104.181,353.732 104.223,353.767 104.228,353.835C104.233,353.904 104.216,353.948 104.177,353.967C104.03,354.065 103.826,354.188 103.567,354.335C103.307,354.482 103.037,354.622 102.758,354.754C102.479,354.886 102.212,354.999 101.957,355.092C101.702,355.185 101.497,355.231 101.34,355.231C101.261,355.231 101.19,355.18 101.127,355.077C101.063,354.974 101.012,354.849 100.972,354.702C100.933,354.555 100.904,354.403 100.884,354.247C100.865,354.09 100.855,353.953 100.855,353.835C100.649,353.982 100.414,354.136 100.149,354.298C99.885,354.46 99.61,354.612 99.326,354.754C99.042,354.896 98.76,355.011 98.481,355.099C98.202,355.187 97.945,355.231 97.71,355.231C97.112,355.231 96.622,355.072 96.24,354.754C95.858,354.435 95.667,354.021 95.667,353.512C95.667,353.404 95.676,353.242 95.696,353.027C95.716,352.811 95.74,352.566 95.769,352.292C95.799,352.018 95.823,351.724 95.843,351.41C95.863,351.097 95.872,350.793 95.872,350.499C95.872,350.048 95.801,349.703 95.659,349.463C95.517,349.223 95.333,349.088 95.108,349.058L94.873,349.029Z" style="fill-rule:nonzero;"/>
            <path d="M103.868,344.532C103.868,344.316 103.919,344.189 104.022,344.149C104.125,344.11 104.235,344.091 104.353,344.091L105.257,344.091C105.526,344.091 105.771,344.088 105.992,344.083C106.212,344.078 106.418,344.064 106.609,344.039C106.8,344.015 106.979,343.973 107.145,343.914C107.224,343.885 107.265,343.9 107.27,343.958C107.275,344.017 107.278,344.071 107.278,344.12C107.278,344.179 107.248,344.225 107.19,344.26C107.131,344.294 107.065,344.321 106.991,344.34C106.918,344.36 106.847,344.375 106.778,344.385C106.709,344.394 106.665,344.399 106.646,344.399C106.616,344.497 106.582,344.72 106.543,345.068C106.504,345.416 106.462,345.827 106.418,346.303C106.374,346.778 106.337,347.282 106.308,347.816C106.278,348.351 106.264,348.853 106.264,349.323C106.352,349.225 106.499,349.088 106.705,348.911C106.91,348.735 107.153,348.561 107.432,348.39C107.711,348.218 108.022,348.069 108.365,347.941C108.708,347.814 109.066,347.75 109.438,347.75C109.811,347.75 110.156,347.809 110.474,347.927C110.793,348.044 111.07,348.216 111.305,348.441C111.54,348.667 111.724,348.943 111.856,349.272C111.988,349.6 112.054,349.97 112.054,350.381C112.054,350.724 111.988,351.079 111.856,351.447C111.724,351.814 111.542,352.177 111.312,352.534C111.082,352.892 110.805,353.233 110.482,353.556C110.158,353.879 109.808,354.163 109.431,354.408C109.054,354.653 108.652,354.849 108.226,354.996C107.799,355.143 107.371,355.217 106.94,355.217C106.45,355.217 106.048,355.163 105.734,355.055C105.421,354.947 105.171,354.825 104.985,354.688C104.799,354.55 104.666,354.421 104.588,354.298C104.51,354.176 104.466,354.1 104.456,354.07C104.485,353.982 104.519,353.745 104.559,353.358C104.598,352.97 104.635,352.495 104.669,351.932C104.703,351.368 104.735,350.749 104.764,350.073C104.794,349.396 104.809,348.735 104.809,348.088C104.809,347.52 104.799,347.042 104.779,346.655C104.76,346.268 104.733,345.95 104.698,345.7C104.664,345.45 104.622,345.254 104.573,345.112C104.524,344.97 104.47,344.86 104.412,344.781C104.294,344.634 104.167,344.556 104.03,344.546L103.868,344.532ZM106.234,350.484C106.215,350.651 106.2,350.852 106.19,351.087C106.18,351.322 106.175,351.557 106.175,351.792C106.175,352.027 106.18,352.238 106.19,352.424C106.2,352.61 106.21,352.728 106.219,352.777C106.249,352.924 106.317,353.081 106.425,353.247C106.533,353.414 106.675,353.568 106.851,353.71C107.028,353.852 107.231,353.97 107.461,354.063C107.692,354.156 107.944,354.203 108.218,354.203C108.836,354.203 109.348,353.987 109.754,353.556C110.161,353.125 110.364,352.463 110.364,351.572C110.364,351.072 110.293,350.648 110.151,350.3C110.009,349.953 109.83,349.673 109.615,349.463C109.399,349.252 109.166,349.098 108.917,349C108.667,348.902 108.439,348.853 108.233,348.853C107.949,348.853 107.711,348.894 107.52,348.978C107.329,349.061 107.16,349.156 107.013,349.264C106.768,349.45 106.587,349.637 106.469,349.823C106.352,350.009 106.273,350.229 106.234,350.484Z" style="fill-rule:nonzero;"/>
            <path d="M77.552,369.87C77.454,369.87 77.321,369.875 77.155,369.885C76.988,369.895 76.809,369.902 76.618,369.907C76.427,369.912 76.231,369.919 76.03,369.929C75.83,369.939 75.646,369.944 75.479,369.944C74.823,369.944 74.181,369.843 73.554,369.643C72.927,369.442 72.371,369.128 71.886,368.702C71.401,368.276 71.009,367.727 70.71,367.056C70.411,366.385 70.262,365.579 70.262,364.638C70.262,363.776 70.426,363.011 70.754,362.345C71.082,361.679 71.516,361.12 72.055,360.67C72.594,360.219 73.201,359.876 73.877,359.641C74.553,359.406 75.244,359.288 75.95,359.288C76.106,359.288 76.32,359.298 76.589,359.317C76.858,359.337 77.128,359.362 77.397,359.391C77.667,359.42 77.907,359.452 78.118,359.486C78.328,359.521 78.463,359.553 78.522,359.582C78.649,359.239 78.791,358.935 78.948,358.671C79.105,358.406 79.32,358.205 79.595,358.068C79.673,358.039 79.761,358.034 79.859,358.053C79.957,358.073 80.006,358.122 80.006,358.2C79.957,358.289 79.92,358.342 79.896,358.362C79.871,358.382 79.84,358.391 79.8,358.391C79.683,358.391 79.568,358.445 79.455,358.553C79.342,358.661 79.237,358.801 79.139,358.972C79.041,359.143 78.955,359.339 78.882,359.56C78.808,359.78 78.752,360.003 78.713,360.229C78.693,360.336 78.671,360.461 78.647,360.603C78.622,360.746 78.6,360.885 78.581,361.022C78.561,361.16 78.546,361.292 78.536,361.419C78.527,361.547 78.522,361.654 78.522,361.743C78.522,361.792 78.502,361.833 78.463,361.867C78.424,361.902 78.385,361.919 78.345,361.919C78.287,361.919 78.218,361.89 78.14,361.831C78.1,361.586 78.02,361.341 77.897,361.096C77.775,360.851 77.603,360.63 77.383,360.434C77.162,360.238 76.888,360.082 76.56,359.964C76.231,359.847 75.842,359.788 75.391,359.788C74.911,359.788 74.482,359.9 74.105,360.126C73.728,360.351 73.409,360.66 73.15,361.052C72.89,361.444 72.692,361.909 72.554,362.448C72.417,362.987 72.349,363.565 72.349,364.182C72.349,365.035 72.434,365.792 72.606,366.453C72.777,367.115 73.015,367.675 73.319,368.136C73.623,368.597 73.985,368.947 74.406,369.187C74.828,369.427 75.288,369.547 75.788,369.547C76.121,369.547 76.447,369.493 76.765,369.385C77.084,369.278 77.378,369.131 77.647,368.944C77.917,368.758 78.157,368.543 78.367,368.298C78.578,368.053 78.742,367.793 78.86,367.519C78.879,367.48 78.931,367.45 79.014,367.431C79.097,367.411 79.139,367.421 79.139,367.46C79.139,367.587 79.097,367.761 79.014,367.982C78.931,368.202 78.835,368.423 78.728,368.643C78.62,368.864 78.512,369.064 78.404,369.246C78.296,369.427 78.223,369.547 78.184,369.606C78.154,369.674 78.118,369.765 78.073,369.878C78.029,369.99 77.99,370.118 77.956,370.26C77.922,370.402 77.89,370.549 77.86,370.701C77.831,370.853 77.816,371.002 77.816,371.149C77.816,371.306 77.797,371.404 77.757,371.443C77.718,371.482 77.635,371.502 77.508,371.502C77.4,371.502 77.351,371.426 77.361,371.274C77.37,371.122 77.395,370.948 77.434,370.752C77.473,370.556 77.513,370.373 77.552,370.201C77.591,370.03 77.591,369.919 77.552,369.87Z" style="fill-rule:nonzero;"/>
            <path d="M85.665,368.621C85.557,368.709 85.41,368.827 85.224,368.974C85.038,369.121 84.822,369.268 84.577,369.415C84.332,369.562 84.063,369.687 83.769,369.789C83.475,369.892 83.166,369.944 82.843,369.944C82.353,369.944 81.917,369.858 81.535,369.687C81.153,369.515 80.832,369.285 80.572,368.996C80.312,368.707 80.116,368.366 79.984,367.974C79.852,367.582 79.786,367.166 79.786,366.725C79.786,366.206 79.864,365.745 80.021,365.343C80.178,364.942 80.371,364.591 80.601,364.293C80.832,363.994 81.079,363.744 81.344,363.543C81.608,363.342 81.848,363.183 82.064,363.065C82.162,363.007 82.287,362.943 82.439,362.874C82.591,362.806 82.757,362.742 82.938,362.683C83.12,362.624 83.316,362.573 83.526,362.529C83.737,362.485 83.955,362.463 84.18,362.463C84.602,362.463 85.011,362.517 85.408,362.624C85.804,362.732 86.155,362.901 86.458,363.131C86.762,363.362 87.007,363.658 87.193,364.021C87.38,364.383 87.473,364.819 87.473,365.329C87.473,365.74 87.397,366.127 87.245,366.49C87.093,366.852 86.914,367.176 86.708,367.46C86.503,367.744 86.299,367.987 86.098,368.187C85.898,368.388 85.753,368.533 85.665,368.621ZM84.004,368.856C84.562,368.856 84.991,368.646 85.29,368.224C85.589,367.803 85.738,367.156 85.738,366.284C85.738,365.843 85.677,365.434 85.555,365.057C85.432,364.68 85.261,364.349 85.04,364.065C84.82,363.781 84.562,363.558 84.269,363.396C83.975,363.234 83.656,363.154 83.313,363.154C83.068,363.154 82.836,363.217 82.615,363.345C82.395,363.472 82.201,363.656 82.034,363.896C81.868,364.136 81.736,364.427 81.638,364.77C81.54,365.113 81.491,365.5 81.491,365.931C81.491,366.392 81.562,366.803 81.704,367.166C81.846,367.529 82.034,367.835 82.27,368.085C82.505,368.334 82.772,368.525 83.071,368.658C83.37,368.79 83.681,368.856 84.004,368.856Z" style="fill-rule:nonzero;"/>
            <path d="M90.647,365.917C90.638,366.005 90.628,366.083 90.618,366.152C90.608,366.22 90.601,366.299 90.596,366.387C90.591,366.475 90.586,366.585 90.581,366.718C90.576,366.85 90.574,367.024 90.574,367.239C90.574,367.592 90.586,367.881 90.611,368.107C90.635,368.332 90.672,368.511 90.721,368.643C90.77,368.775 90.831,368.866 90.905,368.915C90.978,368.964 91.069,368.988 91.176,368.988C91.245,368.988 91.319,368.979 91.397,368.959C91.416,368.959 91.434,368.986 91.448,369.04C91.463,369.094 91.461,369.131 91.441,369.15C91.382,369.199 91.267,369.27 91.096,369.363C90.924,369.456 90.731,369.547 90.515,369.635C90.299,369.723 90.077,369.802 89.846,369.87C89.616,369.939 89.423,369.973 89.266,369.973C89.129,369.973 89.021,369.956 88.942,369.922C88.864,369.887 88.825,369.846 88.825,369.797C88.825,369.748 88.83,369.718 88.84,369.709C88.849,369.699 88.864,369.674 88.884,369.635C88.903,369.586 88.918,369.525 88.928,369.451C88.937,369.378 88.952,369.292 88.972,369.194C88.991,369.057 89.011,368.883 89.031,368.672C89.05,368.462 89.07,368.232 89.089,367.982C89.109,367.732 89.126,367.472 89.141,367.203C89.156,366.933 89.163,366.671 89.163,366.416C89.163,366.309 89.16,366.174 89.156,366.012C89.151,365.851 89.143,365.642 89.133,365.388C89.124,365.103 89.092,364.861 89.038,364.66C88.984,364.459 88.915,364.297 88.832,364.175C88.749,364.053 88.656,363.962 88.553,363.903C88.45,363.844 88.35,363.815 88.252,363.815L88.105,363.815C88.056,363.815 88.007,363.82 87.958,363.83C87.918,363.83 87.899,363.786 87.899,363.697C87.899,363.678 87.906,363.661 87.921,363.646C87.936,363.631 87.982,363.599 88.061,363.55C88.188,363.462 88.359,363.354 88.575,363.227C88.791,363.1 89.011,362.982 89.236,362.874C89.462,362.766 89.675,362.673 89.876,362.595C90.077,362.517 90.231,362.477 90.339,362.477C90.623,362.477 90.765,362.639 90.765,362.962C90.765,363.011 90.76,363.1 90.75,363.227C90.74,363.354 90.733,363.484 90.728,363.616C90.723,363.749 90.716,363.874 90.706,363.991C90.696,364.109 90.691,364.187 90.691,364.226C90.897,364.03 91.118,363.83 91.353,363.624C91.588,363.418 91.843,363.229 92.117,363.058C92.391,362.886 92.68,362.747 92.984,362.639C93.288,362.531 93.602,362.477 93.925,362.477C94.513,362.477 94.995,362.646 95.373,362.984C95.75,363.323 95.938,363.859 95.938,364.594C95.938,364.79 95.926,365.02 95.902,365.285C95.877,365.549 95.85,365.824 95.821,366.108C95.792,366.392 95.765,366.671 95.74,366.945C95.716,367.22 95.703,367.465 95.703,367.68C95.703,368.464 95.958,368.856 96.468,368.856C96.566,368.856 96.676,368.839 96.798,368.805C96.921,368.77 97.038,368.731 97.151,368.687C97.264,368.643 97.364,368.599 97.452,368.555C97.541,368.511 97.599,368.474 97.629,368.445C97.639,368.435 97.651,368.442 97.665,368.467C97.68,368.491 97.692,368.523 97.702,368.562C97.712,368.601 97.714,368.636 97.71,368.665C97.705,368.695 97.697,368.714 97.688,368.724C97.609,368.773 97.44,368.866 97.18,369.003C96.921,369.14 96.632,369.28 96.313,369.422C95.995,369.564 95.679,369.692 95.365,369.804C95.052,369.917 94.802,369.973 94.616,369.973C94.39,369.973 94.236,369.919 94.153,369.812C94.069,369.704 94.028,369.591 94.028,369.473C94.028,369.395 94.04,369.297 94.065,369.18C94.089,369.062 94.121,368.871 94.16,368.606C94.199,368.322 94.236,367.989 94.27,367.607C94.305,367.225 94.322,366.813 94.322,366.372C94.322,365.51 94.163,364.856 93.844,364.41C93.526,363.964 93.126,363.741 92.646,363.741C92.342,363.741 92.073,363.8 91.838,363.918C91.603,364.035 91.402,364.195 91.235,364.395C91.069,364.596 90.936,364.827 90.838,365.086C90.74,365.346 90.677,365.623 90.647,365.917Z" style="fill-rule:nonzero;"/>
            <path d="M99.833,365.917C99.824,366.005 99.814,366.083 99.804,366.152C99.794,366.22 99.787,366.299 99.782,366.387C99.777,366.475 99.772,366.585 99.767,366.718C99.762,366.85 99.76,367.024 99.76,367.239C99.76,367.592 99.772,367.881 99.797,368.107C99.821,368.332 99.858,368.511 99.907,368.643C99.956,368.775 100.017,368.866 100.091,368.915C100.164,368.964 100.255,368.988 100.362,368.988C100.431,368.988 100.505,368.979 100.583,368.959C100.603,368.959 100.62,368.986 100.634,369.04C100.649,369.094 100.647,369.131 100.627,369.15C100.568,369.199 100.453,369.27 100.282,369.363C100.11,369.456 99.917,369.547 99.701,369.635C99.486,369.723 99.263,369.802 99.032,369.87C98.802,369.939 98.609,369.973 98.452,369.973C98.315,369.973 98.207,369.956 98.128,369.922C98.05,369.887 98.011,369.846 98.011,369.797C98.011,369.748 98.016,369.718 98.026,369.709C98.035,369.699 98.05,369.674 98.07,369.635C98.089,369.586 98.104,369.525 98.114,369.451C98.124,369.378 98.138,369.292 98.158,369.194C98.177,369.057 98.197,368.883 98.217,368.672C98.236,368.462 98.256,368.232 98.275,367.982C98.295,367.732 98.312,367.472 98.327,367.203C98.342,366.933 98.349,366.671 98.349,366.416C98.349,366.309 98.346,366.174 98.342,366.012C98.337,365.851 98.329,365.642 98.32,365.388C98.31,365.103 98.278,364.861 98.224,364.66C98.17,364.459 98.101,364.297 98.018,364.175C97.935,364.053 97.842,363.962 97.739,363.903C97.636,363.844 97.536,363.815 97.438,363.815L97.291,363.815C97.242,363.815 97.193,363.82 97.144,363.83C97.104,363.83 97.085,363.786 97.085,363.697C97.085,363.678 97.092,363.661 97.107,363.646C97.122,363.631 97.168,363.599 97.247,363.55C97.374,363.462 97.545,363.354 97.761,363.227C97.977,363.1 98.197,362.982 98.422,362.874C98.648,362.766 98.861,362.673 99.062,362.595C99.263,362.517 99.417,362.477 99.525,362.477C99.809,362.477 99.951,362.639 99.951,362.962C99.951,363.011 99.946,363.1 99.936,363.227C99.926,363.354 99.919,363.484 99.914,363.616C99.909,363.749 99.902,363.874 99.892,363.991C99.882,364.109 99.877,364.187 99.877,364.226C100.083,364.03 100.304,363.83 100.539,363.624C100.774,363.418 101.029,363.229 101.303,363.058C101.577,362.886 101.867,362.747 102.17,362.639C102.474,362.531 102.788,362.477 103.111,362.477C103.699,362.477 104.181,362.646 104.559,362.984C104.936,363.323 105.125,363.859 105.125,364.594C105.125,364.79 105.112,365.02 105.088,365.285C105.063,365.549 105.036,365.824 105.007,366.108C104.978,366.392 104.951,366.671 104.926,366.945C104.902,367.22 104.889,367.465 104.889,367.68C104.889,368.464 105.144,368.856 105.654,368.856C105.752,368.856 105.862,368.839 105.984,368.805C106.107,368.77 106.224,368.731 106.337,368.687C106.45,368.643 106.55,368.599 106.638,368.555C106.727,368.511 106.785,368.474 106.815,368.445C106.825,368.435 106.837,368.442 106.851,368.467C106.866,368.491 106.878,368.523 106.888,368.562C106.898,368.601 106.9,368.636 106.896,368.665C106.891,368.695 106.883,368.714 106.874,368.724C106.795,368.773 106.626,368.866 106.366,369.003C106.107,369.14 105.818,369.28 105.499,369.422C105.181,369.564 104.865,369.692 104.551,369.804C104.238,369.917 103.988,369.973 103.802,369.973C103.576,369.973 103.422,369.919 103.339,369.812C103.255,369.704 103.214,369.591 103.214,369.473C103.214,369.395 103.226,369.297 103.251,369.18C103.275,369.062 103.307,368.871 103.346,368.606C103.385,368.322 103.422,367.989 103.456,367.607C103.491,367.225 103.508,366.813 103.508,366.372C103.508,365.51 103.349,364.856 103.03,364.41C102.712,363.964 102.312,363.741 101.832,363.741C101.528,363.741 101.259,363.8 101.024,363.918C100.789,364.035 100.588,364.195 100.421,364.395C100.255,364.596 100.122,364.827 100.024,365.086C99.926,365.346 99.863,365.623 99.833,365.917Z" style="fill-rule:nonzero;"/>
            <path d="M113.443,368.077C113.336,368.195 113.169,368.356 112.944,368.562C112.718,368.768 112.446,368.974 112.128,369.18C111.81,369.385 111.454,369.562 111.062,369.709C110.67,369.856 110.254,369.929 109.813,369.929C109.411,369.929 109.019,369.868 108.637,369.745C108.255,369.623 107.912,369.437 107.608,369.187C107.305,368.937 107.062,368.619 106.881,368.232C106.7,367.845 106.609,367.382 106.609,366.843C106.609,366.402 106.638,366.022 106.697,365.704C106.756,365.385 106.834,365.106 106.932,364.866C107.03,364.626 107.141,364.42 107.263,364.248C107.386,364.077 107.51,363.923 107.638,363.786C107.795,363.609 107.986,363.443 108.211,363.286C108.436,363.129 108.679,362.987 108.939,362.86C109.198,362.732 109.473,362.632 109.762,362.558C110.051,362.485 110.342,362.448 110.636,362.448C111.165,362.448 111.579,362.536 111.878,362.713C112.177,362.889 112.326,363.134 112.326,363.447C112.326,363.643 112.268,363.825 112.15,363.991C112.248,363.962 112.373,363.913 112.525,363.844C112.677,363.776 112.831,363.705 112.988,363.631C113.145,363.558 113.284,363.492 113.407,363.433C113.529,363.374 113.61,363.33 113.649,363.3C113.669,363.281 113.691,363.274 113.715,363.278C113.74,363.283 113.752,363.3 113.752,363.33C113.752,363.457 113.728,363.563 113.679,363.646C113.63,363.729 113.571,363.795 113.502,363.844C113.345,363.942 113.12,364.065 112.826,364.212C112.532,364.359 112.206,364.513 111.849,364.675C111.491,364.836 111.121,364.998 110.739,365.16C110.357,365.321 109.997,365.476 109.659,365.623C109.321,365.77 109.027,365.9 108.777,366.012C108.527,366.125 108.358,366.206 108.27,366.255C108.27,366.588 108.336,366.899 108.468,367.188C108.601,367.477 108.784,367.729 109.019,367.945C109.255,368.161 109.536,368.33 109.865,368.452C110.193,368.574 110.553,368.636 110.945,368.636C111.298,368.636 111.616,368.599 111.9,368.525C112.184,368.452 112.424,368.369 112.62,368.276C112.816,368.183 112.971,368.099 113.083,368.026C113.196,367.952 113.257,367.916 113.267,367.916C113.306,367.916 113.345,367.933 113.385,367.967C113.424,368.001 113.443,368.038 113.443,368.077ZM108.27,365.828C108.436,365.77 108.625,365.699 108.836,365.615C109.046,365.532 109.252,365.441 109.453,365.343C109.654,365.245 109.838,365.152 110.004,365.064C110.171,364.976 110.298,364.898 110.386,364.829C110.563,364.702 110.651,364.486 110.651,364.182C110.651,364.065 110.629,363.942 110.585,363.815C110.541,363.688 110.474,363.572 110.386,363.47C110.298,363.367 110.19,363.283 110.063,363.22C109.936,363.156 109.793,363.124 109.637,363.124C109.5,363.124 109.353,363.171 109.196,363.264C109.039,363.357 108.892,363.509 108.755,363.719C108.618,363.93 108.503,364.209 108.409,364.557C108.316,364.905 108.27,365.329 108.27,365.828Z" style="fill-rule:nonzero;"/>
            <path d="M119.514,363.124C119.494,363.183 119.438,363.274 119.345,363.396C119.251,363.518 119.141,363.646 119.014,363.778C118.886,363.91 118.752,364.038 118.61,364.16C118.468,364.283 118.343,364.373 118.235,364.432C118.166,364.462 118.125,364.452 118.11,364.403C118.095,364.354 118.088,364.305 118.088,364.256C118.088,364.177 118.046,364.079 117.963,363.962C117.88,363.844 117.762,363.729 117.61,363.616C117.458,363.504 117.279,363.408 117.074,363.33C116.868,363.251 116.643,363.212 116.398,363.212C115.976,363.212 115.633,363.44 115.369,363.896C115.104,364.351 114.972,364.956 114.972,365.711C114.972,366.171 115.043,366.585 115.185,366.953C115.327,367.32 115.523,367.629 115.773,367.879C116.023,368.129 116.324,368.32 116.677,368.452C117.03,368.584 117.412,368.65 117.823,368.65C118.382,368.65 118.828,368.579 119.161,368.437C119.494,368.295 119.768,368.131 119.984,367.945C119.994,367.945 120.001,367.94 120.006,367.93C120.011,367.92 120.018,367.916 120.028,367.916C120.077,367.916 120.111,367.933 120.131,367.967C120.15,368.001 120.16,368.043 120.16,368.092C120.16,368.131 120.15,368.161 120.131,368.18C119.984,368.298 119.781,368.454 119.521,368.65C119.261,368.846 118.965,369.04 118.632,369.231C118.299,369.422 117.951,369.586 117.588,369.723C117.226,369.861 116.868,369.929 116.515,369.929C115.506,369.929 114.72,369.635 114.156,369.047C113.593,368.459 113.311,367.656 113.311,366.637C113.311,365.863 113.461,365.211 113.759,364.682C114.058,364.153 114.426,363.729 114.862,363.411C115.298,363.092 115.761,362.864 116.251,362.727C116.741,362.59 117.172,362.522 117.544,362.522C117.848,362.522 118.12,362.544 118.36,362.588C118.6,362.632 118.806,362.686 118.977,362.749C119.149,362.813 119.281,362.879 119.374,362.948C119.467,363.016 119.514,363.075 119.514,363.124Z" style="fill-rule:nonzero;"/>
            <path d="M126.833,367.754C126.853,367.734 126.87,367.737 126.884,367.761C126.899,367.786 126.909,367.82 126.914,367.864C126.919,367.908 126.916,367.955 126.906,368.004C126.897,368.053 126.877,368.092 126.848,368.121C126.652,368.307 126.407,368.503 126.113,368.709C125.819,368.915 125.515,369.106 125.202,369.282C125.113,369.331 124.991,369.395 124.834,369.473C124.677,369.552 124.503,369.628 124.312,369.701C124.121,369.775 123.925,369.838 123.724,369.892C123.524,369.946 123.335,369.973 123.159,369.973C122.806,369.973 122.473,369.905 122.159,369.767C121.846,369.63 121.571,369.442 121.336,369.202C121.101,368.962 120.917,368.675 120.785,368.342C120.653,368.009 120.586,367.646 120.586,367.254C120.586,366.833 120.645,366.436 120.763,366.064C120.88,365.691 121.015,365.358 121.167,365.064C121.319,364.77 121.463,364.523 121.601,364.322C121.738,364.121 121.831,363.972 121.88,363.874C121.694,363.864 121.525,363.857 121.373,363.852C121.221,363.847 121.076,363.844 120.939,363.844C120.626,363.844 120.361,363.847 120.146,363.852C119.93,363.857 119.739,363.879 119.572,363.918C119.494,363.937 119.42,363.977 119.352,364.035C119.283,364.094 119.224,364.138 119.175,364.168C119.156,364.148 119.129,364.121 119.095,364.087C119.06,364.053 119.043,364.016 119.043,363.977C119.043,363.957 119.048,363.942 119.058,363.932C119.058,363.923 119.122,363.866 119.249,363.763C119.376,363.661 119.536,363.538 119.727,363.396C119.918,363.254 120.128,363.097 120.359,362.926C120.589,362.754 120.809,362.595 121.02,362.448C121.231,362.301 121.412,362.176 121.564,362.073C121.716,361.97 121.816,361.909 121.865,361.89C121.924,361.87 121.983,361.88 122.042,361.919C122.1,361.958 122.12,361.987 122.1,362.007C122.071,362.027 122.027,362.063 121.968,362.117C121.909,362.171 121.89,362.218 121.909,362.257C122.017,362.345 122.203,362.424 122.468,362.492C122.732,362.561 123.031,362.617 123.364,362.661C123.697,362.705 124.04,362.74 124.393,362.764C124.746,362.789 125.064,362.801 125.349,362.801C125.77,362.801 126.108,362.789 126.363,362.764C126.617,362.74 126.828,362.708 126.995,362.668C127.151,362.629 127.254,362.6 127.303,362.58C127.313,362.58 127.333,362.595 127.362,362.624C127.391,362.654 127.406,362.688 127.406,362.727C127.406,362.747 127.335,362.796 127.193,362.874C127.051,362.953 126.906,363.036 126.759,363.124C126.671,363.173 126.566,363.237 126.443,363.315C126.321,363.394 126.189,363.47 126.047,363.543C125.905,363.616 125.755,363.683 125.598,363.741C125.442,363.8 125.29,363.834 125.143,363.844C124.996,363.864 124.824,363.879 124.628,363.888C124.432,363.898 124.227,363.906 124.011,363.91C123.795,363.915 123.577,363.92 123.357,363.925C123.137,363.93 122.933,363.932 122.747,363.932C122.718,363.981 122.671,364.062 122.607,364.175C122.544,364.288 122.482,364.432 122.424,364.609C122.365,364.785 122.311,364.986 122.262,365.211C122.213,365.437 122.189,365.681 122.189,365.946C122.189,366.348 122.25,366.718 122.372,367.056C122.495,367.394 122.666,367.685 122.887,367.93C123.107,368.175 123.369,368.366 123.673,368.503C123.977,368.641 124.305,368.709 124.658,368.709C124.863,368.709 125.062,368.685 125.253,368.636C125.444,368.587 125.625,368.523 125.797,368.445C125.968,368.366 126.127,368.281 126.274,368.187C126.421,368.094 126.549,368.004 126.657,367.916L126.833,367.754Z" style="fill-rule:nonzero;"/>
        </g>
        <g transform="matrix(1,0,0,1,-100.189,-30.7269)">
            <text x="83.806px" y="355.099px" style="font-family:'Luminari-Regular', 'Luminari';font-size:14.698px;">Hub</text>
            <text x="69.865px" y="369.797px" style="font-family:'Luminari-Regular', 'Luminari';font-size:14.698px;">Conne<tspan x="112.885px 119.455px " y="369.797px 369.797px ">ct</tspan></text>
        </g>
        <g transform="matrix(0.0219124,0,0,0.0248558,-13.0379,285.934)">
            <g transform="matrix(55.8954,0,0,49.2765,-878.032,-330.791)">
                <path d="M27.733,13.757C27.957,11.616 28.949,10 30.136,10C31.489,10 32.587,12.095 32.587,14.677C32.587,15.669 32.424,16.59 32.148,17.347C32.432,17.974 32.587,18.65 32.587,19.353C32.587,22.678 29.128,25.378 24.868,25.378C20.609,25.378 17.15,22.678 17.15,19.353C17.15,18.65 17.305,17.974 17.589,17.347C17.313,16.59 17.15,15.669 17.15,14.677C17.15,12.095 18.248,10 19.601,10C20.788,10 21.779,11.616 22.003,13.757L22.04,13.746C22.915,13.476 23.87,13.328 24.868,13.328C25.881,13.328 26.847,13.48 27.733,13.757ZM17.609,17.304L17.606,17.31L17.609,17.304ZM32.128,17.305L32.131,17.31L32.128,17.305ZM17.627,17.265L17.623,17.273L17.627,17.265ZM32.11,17.266L32.113,17.273L32.11,17.266ZM17.645,17.227L17.641,17.236L17.645,17.227ZM32.092,17.228L32.096,17.236L32.092,17.228ZM17.663,17.19L17.659,17.2L17.663,17.19ZM32.074,17.191L32.078,17.199L32.074,17.191ZM17.682,17.153L17.677,17.162L17.682,17.153ZM32.055,17.154L32.059,17.161L32.055,17.154ZM17.7,17.117L17.696,17.125L17.7,17.117ZM32.037,17.117L32.04,17.123L32.037,17.117ZM17.719,17.081L17.717,17.085L17.719,17.081ZM32.018,17.081L32.019,17.082L32.018,17.081ZM17.782,16.964L17.778,16.971L17.782,16.964ZM31.957,16.968L31.958,16.97L31.957,16.968ZM17.804,16.925L17.798,16.935L17.804,16.925ZM31.935,16.928L31.938,16.934L31.935,16.928ZM17.825,16.888L17.818,16.9L17.825,16.888ZM31.914,16.891L31.918,16.899L31.914,16.891ZM17.845,16.852L17.838,16.865L17.845,16.852ZM31.893,16.854L31.898,16.863L31.893,16.854ZM17.866,16.817L17.859,16.829L17.866,16.817ZM31.871,16.819L31.876,16.827L31.871,16.819ZM17.888,16.782L17.88,16.794L17.888,16.782ZM31.85,16.783L31.855,16.791L31.85,16.783ZM17.909,16.747L17.902,16.758L17.909,16.747ZM31.829,16.748L31.832,16.754L31.829,16.748ZM17.931,16.712L17.925,16.72L17.931,16.712ZM31.807,16.713L31.808,16.714L31.807,16.713ZM17.979,16.635L17.975,16.642L17.979,16.635ZM18.005,16.596L17.998,16.608L18.005,16.596ZM31.735,16.602L31.738,16.606L31.735,16.602ZM18.029,16.561L18.02,16.573L18.029,16.561ZM31.711,16.564L31.716,16.572L31.711,16.564ZM18.052,16.526L18.043,16.539L18.052,16.526ZM31.686,16.529L31.692,16.537L31.686,16.529ZM18.076,16.492L18.066,16.505L18.076,16.492ZM31.663,16.494L31.669,16.503L31.663,16.494ZM18.1,16.458L18.09,16.471L18.1,16.458ZM31.639,16.459L31.645,16.469L31.639,16.459ZM18.124,16.424L18.114,16.437L18.124,16.424ZM31.614,16.425L31.62,16.434L31.614,16.425ZM18.148,16.39L18.139,16.403L18.148,16.39ZM31.59,16.392L31.595,16.398L31.59,16.392ZM18.172,16.357L18.164,16.367L18.172,16.357ZM31.566,16.358L31.567,16.36L31.566,16.358ZM18.197,16.324L18.196,16.324L18.197,16.324ZM18.23,16.28L18.222,16.291L18.23,16.28ZM31.513,16.288L31.514,16.289L31.513,16.288ZM18.257,16.245L18.247,16.258L18.257,16.245ZM31.484,16.249L31.489,16.256L31.484,16.249ZM18.283,16.211L18.272,16.225L18.283,16.211ZM31.456,16.214L31.463,16.223L31.456,16.214ZM18.309,16.178L18.298,16.192L18.309,16.178ZM31.43,16.18L31.438,16.19L31.43,16.18ZM18.335,16.145L18.324,16.16L18.335,16.145ZM31.403,16.147L31.411,16.158L31.403,16.147ZM18.362,16.113L18.35,16.127L18.362,16.113ZM31.376,16.114L31.385,16.125L31.376,16.114ZM18.388,16.081L18.377,16.094L18.388,16.081ZM31.35,16.082L31.357,16.091L31.35,16.082ZM18.415,16.049L18.404,16.061L18.415,16.049ZM31.323,16.05L31.329,16.057L31.323,16.05ZM18.442,16.017L18.433,16.027L18.442,16.017ZM31.295,16.018L31.298,16.021L31.295,16.018ZM18.473,15.981L18.469,15.985L18.473,15.981ZM18.507,15.942L18.497,15.954L18.507,15.942ZM31.234,15.947L31.239,15.953L31.234,15.947ZM18.536,15.909L18.525,15.922L18.536,15.909ZM31.203,15.912L31.211,15.921L31.203,15.912ZM18.565,15.877L18.553,15.891L18.565,15.877ZM31.174,15.879L31.183,15.89L31.174,15.879ZM18.594,15.846L18.581,15.86L18.594,15.846ZM31.145,15.847L31.155,15.859L31.145,15.847ZM18.622,15.815L18.61,15.828L18.622,15.815ZM31.115,15.816L31.126,15.827L31.115,15.816ZM18.651,15.784L18.639,15.797L18.651,15.784ZM31.086,15.785L31.097,15.796L31.086,15.785ZM18.68,15.753L18.668,15.766L18.68,15.753ZM31.057,15.754L31.067,15.765L31.057,15.754ZM18.71,15.723L18.698,15.735L18.71,15.723ZM31.027,15.723L31.037,15.733L31.027,15.723ZM18.739,15.692L18.73,15.702L18.739,15.692ZM30.998,15.693L31.003,15.698L30.998,15.693ZM18.775,15.656L18.769,15.662L18.775,15.656ZM30.965,15.659L30.967,15.662L30.965,15.659ZM18.81,15.621L18.799,15.632L18.81,15.621ZM30.928,15.622L30.937,15.632L30.928,15.622ZM18.842,15.59L18.83,15.602L18.842,15.59ZM30.895,15.591L30.907,15.602L30.895,15.591ZM18.873,15.56L18.86,15.572L18.873,15.56ZM30.864,15.56L30.876,15.572L30.864,15.56ZM18.904,15.53L18.891,15.543L18.904,15.53ZM30.832,15.53L30.846,15.543L30.832,15.53ZM30.801,15.5L30.814,15.513L30.801,15.5ZM18.936,15.501L18.923,15.513L18.936,15.501ZM30.769,15.471L30.783,15.484L30.769,15.471ZM18.967,15.471L18.954,15.483L18.967,15.471ZM30.738,15.442L30.751,15.454L30.738,15.442ZM18.999,15.442L18.986,15.454L18.999,15.442ZM30.706,15.413L30.719,15.425L30.706,15.413ZM19.031,15.413L19.019,15.424L19.031,15.413ZM30.674,15.384L30.684,15.394L30.674,15.384ZM19.063,15.385L19.056,15.391L19.063,15.385ZM30.63,15.346L30.642,15.356L30.63,15.346ZM19.101,15.35L19.095,15.356L19.101,15.35ZM30.595,15.315L30.61,15.328L30.595,15.315ZM19.139,15.318L19.128,15.327L19.139,15.318ZM30.561,15.286L30.577,15.3L30.561,15.286ZM19.173,15.288L19.161,15.299L19.173,15.288ZM30.528,15.258L30.544,15.272L30.528,15.258ZM19.207,15.26L19.194,15.271L19.207,15.26ZM30.494,15.23L30.511,15.244L30.494,15.23ZM19.241,15.231L19.227,15.243L19.241,15.231ZM30.461,15.202L30.478,15.216L30.461,15.202ZM19.274,15.204L19.261,15.215L19.274,15.204ZM30.427,15.175L30.444,15.189L30.427,15.175ZM19.308,15.176L19.295,15.187L19.308,15.176ZM30.393,15.147L30.41,15.161L30.393,15.147ZM19.342,15.149L19.33,15.158L19.342,15.149ZM30.359,15.12L30.376,15.134L30.359,15.12ZM19.377,15.121L19.366,15.129L19.377,15.121ZM30.325,15.093L30.343,15.107L30.326,15.094L30.305,15.078L30.325,15.093ZM19.411,15.094L19.409,15.096L19.411,15.094ZM30.273,15.053L30.292,15.068L30.273,15.053ZM19.452,15.062L19.446,15.067L19.452,15.062ZM30.238,15.027L30.257,15.041L30.238,15.027ZM19.492,15.032L19.481,15.04L19.492,15.032ZM30.203,15L30.222,15.015L30.203,15ZM19.529,15.004L19.516,15.013L19.529,15.004ZM30.168,14.974L30.187,14.989L30.168,14.974ZM19.565,14.977L19.552,14.987L19.565,14.977ZM30.132,14.948L30.152,14.963L30.132,14.948ZM19.601,14.951L19.588,14.961L19.601,14.951ZM30.097,14.922L30.117,14.937L30.097,14.922ZM19.637,14.925L19.624,14.934L19.637,14.925ZM30.061,14.897L30.081,14.911L30.061,14.897ZM19.673,14.899L19.661,14.908L19.673,14.899ZM30.025,14.871L30.046,14.886L30.025,14.871ZM19.71,14.873L19.698,14.881L19.71,14.873ZM29.988,14.846L30.011,14.862L29.988,14.846ZM19.746,14.848L19.738,14.853L19.746,14.848ZM29.954,14.822L29.915,14.796C29.928,14.805 29.941,14.813 29.954,14.822ZM19.826,14.793L19.821,14.796L19.826,14.793ZM29.858,14.758L29.881,14.773L29.858,14.758ZM19.868,14.765L19.858,14.771L19.868,14.765ZM29.822,14.734L29.845,14.749L29.822,14.734ZM19.907,14.739L19.896,14.747L19.907,14.739ZM29.785,14.71L29.807,14.724L29.785,14.71ZM19.946,14.714L19.933,14.722L19.946,14.714ZM29.747,14.686L29.77,14.7L29.747,14.686ZM19.984,14.689L19.971,14.697L19.984,14.689ZM29.71,14.662L29.733,14.676L29.71,14.662ZM20.023,14.665L20.01,14.673L20.023,14.665ZM29.672,14.638L29.696,14.653L29.672,14.638ZM20.061,14.641L20.049,14.648L20.061,14.641ZM29.634,14.615L29.659,14.63L29.634,14.615ZM20.099,14.617L20.09,14.623L20.099,14.617ZM29.494,14.531C29.537,14.556 29.58,14.582 29.623,14.608C29.581,14.582 29.538,14.556 29.494,14.531ZM20.138,14.593L20.134,14.596L20.138,14.593ZM20.221,14.543L20.218,14.545L20.221,14.543ZM29.458,14.51L29.483,14.525L29.458,14.51ZM20.266,14.517L20.257,14.522L20.266,14.517ZM29.42,14.488L29.444,14.502L29.42,14.488ZM20.308,14.493L20.297,14.499L20.308,14.493ZM29.381,14.466L29.405,14.48L29.381,14.466ZM20.349,14.47L20.337,14.477L20.349,14.47ZM29.341,14.444L29.366,14.457L29.341,14.444ZM20.389,14.447L20.377,14.454L20.389,14.447ZM29.302,14.422L29.327,14.436L29.302,14.422ZM20.43,14.425L20.418,14.431L20.43,14.425ZM29.262,14.4L29.288,14.414L29.262,14.4ZM20.47,14.403L20.46,14.408L20.47,14.403ZM29.222,14.379L29.249,14.393L29.222,14.379ZM20.51,14.381L20.503,14.385L20.51,14.381ZM29.186,14.359L29.143,14.337C29.157,14.344 29.171,14.352 29.186,14.359ZM29.077,14.303L29.105,14.317L29.077,14.303ZM20.638,14.314L20.636,14.315L20.638,14.314ZM29.038,14.283L29.064,14.296L29.038,14.283ZM20.685,14.29L20.677,14.294L20.685,14.29ZM28.998,14.263L29.023,14.276L28.998,14.263ZM20.729,14.268L20.719,14.273L20.729,14.268ZM28.957,14.243L28.982,14.255L28.957,14.243ZM20.772,14.247L20.761,14.252L20.772,14.247ZM28.916,14.223L28.941,14.235L28.916,14.223ZM20.814,14.226L20.803,14.232L20.814,14.226ZM28.875,14.203L28.899,14.215L28.875,14.203ZM20.857,14.206L20.846,14.211L20.857,14.206ZM28.833,14.184L28.858,14.195L28.833,14.184ZM20.899,14.186L20.891,14.19L20.899,14.186ZM28.791,14.164L28.817,14.176L28.791,14.164ZM20.942,14.166L20.937,14.168L20.942,14.166ZM28.752,14.146L28.707,14.126C28.722,14.133 28.737,14.139 28.752,14.146ZM28.643,14.097L28.667,14.108L28.643,14.097ZM21.075,14.106L21.074,14.106L21.075,14.106ZM28.601,14.079L28.624,14.089L28.601,14.079ZM21.124,14.084L21.117,14.087L21.124,14.084ZM28.558,14.061L28.581,14.071L28.558,14.061ZM21.17,14.065L21.161,14.068L21.17,14.065ZM28.516,14.043L28.538,14.052L28.516,14.043ZM21.215,14.046L21.204,14.05L21.215,14.046ZM28.473,14.025L28.494,14.034L28.473,14.025ZM21.259,14.027L21.249,14.031L21.259,14.027ZM28.429,14.007L28.451,14.016L28.429,14.007ZM21.303,14.009L21.294,14.013L21.303,14.009ZM28.386,13.989L28.406,13.998L28.386,13.989ZM21.347,13.991L21.341,13.994L21.347,13.991ZM28.342,13.972L28.361,13.979L28.342,13.972ZM21.392,13.973L21.391,13.974L21.392,13.973ZM28.298,13.955L28.311,13.96L28.298,13.955ZM28.243,13.934L28.254,13.938L28.243,13.934ZM28.195,13.915L28.21,13.921L28.195,13.915ZM21.531,13.92L21.53,13.92L21.531,13.92ZM28.149,13.898L28.165,13.904L28.149,13.898ZM21.581,13.901L21.575,13.903L21.581,13.901ZM28.103,13.882L28.119,13.888L28.103,13.882ZM21.629,13.884L21.62,13.887L21.629,13.884ZM28.058,13.866L28.074,13.871L28.058,13.866ZM21.675,13.867L21.666,13.87L21.675,13.867ZM28.013,13.85L28.028,13.855L28.013,13.85ZM21.721,13.851L21.713,13.854L21.721,13.851ZM27.968,13.834L27.981,13.839L27.968,13.834ZM21.767,13.835L21.76,13.837L21.767,13.835ZM27.922,13.819L27.932,13.822L27.922,13.819ZM21.813,13.819L21.809,13.821L21.813,13.819ZM27.877,13.803L27.879,13.804L27.877,13.803Z" style="fill:none;stroke:black;stroke-width:1.22px;"/>
            </g>
            <g transform="matrix(55.8954,0,0,49.2765,-878.032,-330.791)">
                <path d="M25.128,19.358C24.963,19.04 24.868,18.67 24.868,18.275C24.868,17.096 25.713,16.138 26.753,16.138C27.793,16.138 28.637,17.096 28.637,18.275C28.637,19.031 28.291,19.696 27.768,20.076C27.128,19.668 26.188,19.396 25.128,19.358ZM21.969,20.076C21.446,19.696 21.099,19.031 21.099,18.275C21.099,17.096 21.944,16.138 22.984,16.138C24.024,16.138 24.868,17.096 24.868,18.275C24.868,18.67 24.774,19.04 24.609,19.358C23.549,19.396 22.609,19.668 21.969,20.076Z" style="fill:none;stroke:black;stroke-width:1.22px;"/>
            </g>
            <g transform="matrix(1,0,0,1,-53.1856,50.0357)">
                <ellipse cx="565.186" cy="671.455" rx="210.672" ry="98.631" style="fill:none;stroke:black;stroke-width:63.81px;"/>
            </g>
            <g transform="matrix(51.2,0,0,45.1371,0.670978,88.9676)">
                <path d="M12.057,13.791C12.057,13.668 11.958,13.568 11.835,13.568L8.139,13.568C8.016,13.568 7.916,13.668 7.916,13.791L7.916,14.236C7.916,14.359 8.016,14.458 8.139,14.458L11.835,14.458C11.958,14.458 12.057,14.359 12.057,14.236L12.057,13.791Z"/>
            </g>
        </g>
    </g>
</svg>
