<?xml version="1.0" encoding="UTF-8" standalone="no"?>
<!DOCTYPE svg PUBLIC "-//W3C//DTD SVG 1.1//EN" "http://www.w3.org/Graphics/SVG/1.1/DTD/svg11.dtd">
<svg width="100%" height="100%" viewBox="0 0 60 380" version="1.1" xmlns="http://www.w3.org/2000/svg" xmlns:xlink="http://www.w3.org/1999/xlink" xml:space="preserve" xmlns:serif="http://www.serif.com/" style="fill-rule:evenodd;clip-rule:evenodd;stroke-linecap:round;stroke-linejoin:round;stroke-miterlimit:1.5;">
    <g transform="matrix(1,0,0,1,-155.127,48.5994)">
        <g id="Connect-ledbutton" serif:id="Connect#ledbutton" transform="matrix(1,0,0,1,83.8192,-8.78101)">
            <circle cx="101.308" cy="310.24" r="9.898" style="fill:rgb(115,115,115);"/>
        </g>
        <g transform="matrix(1,0,0,1,83.3642,167.088)">
            <g transform="matrix(10,0,0,10,89.1979,118.306)">
                <path d="M0.15,-0.146C0.15,-0.13 0.155,-0.118 0.164,-0.109C0.172,-0.1 0.185,-0.096 0.2,-0.096C0.219,-0.096 0.232,-0.102 0.239,-0.113C0.245,-0.124 0.249,-0.136 0.25,-0.147L0.352,-0.147C0.352,-0.102 0.338,-0.066 0.311,-0.039C0.298,-0.025 0.282,-0.014 0.263,-0.006C0.244,0.002 0.223,0.006 0.2,0.006C0.168,0.006 0.141,-0.001 0.119,-0.014C0.096,-0.027 0.079,-0.045 0.067,-0.067C0.06,-0.08 0.055,-0.096 0.052,-0.113C0.049,-0.13 0.048,-0.149 0.048,-0.17L0.048,-0.337C0.048,-0.358 0.049,-0.377 0.052,-0.394C0.055,-0.411 0.06,-0.427 0.067,-0.44C0.079,-0.462 0.096,-0.48 0.119,-0.493C0.141,-0.506 0.168,-0.513 0.2,-0.513C0.223,-0.513 0.245,-0.509 0.264,-0.501C0.282,-0.493 0.299,-0.482 0.312,-0.468C0.339,-0.438 0.352,-0.399 0.352,-0.351L0.25,-0.351C0.25,-0.372 0.246,-0.387 0.237,-0.397C0.228,-0.406 0.215,-0.411 0.2,-0.411C0.185,-0.411 0.172,-0.406 0.164,-0.397C0.155,-0.387 0.15,-0.372 0.15,-0.353L0.15,-0.146Z" style="fill-rule:nonzero;"/>
            </g>
            <g transform="matrix(10,0,0,10,92.8979,118.306)">
                <path d="M0.033,-0.337C0.033,-0.358 0.034,-0.377 0.037,-0.394C0.04,-0.411 0.045,-0.427 0.052,-0.44C0.064,-0.462 0.081,-0.48 0.104,-0.493C0.126,-0.506 0.153,-0.513 0.185,-0.513C0.217,-0.513 0.244,-0.506 0.267,-0.493C0.289,-0.48 0.306,-0.462 0.318,-0.44C0.325,-0.427 0.33,-0.411 0.333,-0.394C0.336,-0.377 0.337,-0.358 0.337,-0.337L0.337,-0.17C0.337,-0.149 0.336,-0.13 0.333,-0.113C0.33,-0.096 0.325,-0.08 0.318,-0.067C0.306,-0.045 0.289,-0.027 0.267,-0.014C0.244,-0.001 0.217,0.006 0.185,0.006C0.153,0.006 0.126,-0.001 0.104,-0.014C0.081,-0.027 0.064,-0.045 0.052,-0.067C0.045,-0.08 0.04,-0.096 0.037,-0.113C0.034,-0.13 0.033,-0.149 0.033,-0.17L0.033,-0.337ZM0.135,-0.154C0.135,-0.135 0.139,-0.12 0.149,-0.111C0.158,-0.101 0.17,-0.096 0.185,-0.096C0.2,-0.096 0.213,-0.101 0.222,-0.111C0.231,-0.12 0.235,-0.135 0.235,-0.154L0.235,-0.353C0.235,-0.372 0.231,-0.387 0.222,-0.397C0.213,-0.406 0.2,-0.411 0.185,-0.411C0.17,-0.411 0.158,-0.406 0.149,-0.397C0.139,-0.387 0.135,-0.372 0.135,-0.353L0.135,-0.154Z" style="fill-rule:nonzero;"/>
            </g>
            <g transform="matrix(10,0,0,10,96.5979,118.306)">
                <path d="M0.042,-0L0.042,-0.507L0.144,-0.507L0.144,-0.458L0.146,-0.458C0.157,-0.474 0.169,-0.487 0.185,-0.498C0.2,-0.508 0.219,-0.513 0.242,-0.513C0.255,-0.513 0.267,-0.511 0.28,-0.507C0.293,-0.502 0.304,-0.495 0.314,-0.485C0.324,-0.475 0.332,-0.462 0.338,-0.447C0.344,-0.431 0.347,-0.412 0.347,-0.389L0.347,-0L0.245,-0L0.245,-0.351C0.245,-0.37 0.241,-0.384 0.232,-0.395C0.223,-0.406 0.211,-0.411 0.195,-0.411C0.176,-0.411 0.162,-0.405 0.155,-0.393C0.148,-0.381 0.144,-0.364 0.144,-0.341L0.144,-0L0.042,-0Z" style="fill-rule:nonzero;"/>
            </g>
            <g transform="matrix(10,0,0,10,100.488,118.306)">
                <path d="M0.042,-0L0.042,-0.507L0.144,-0.507L0.144,-0.458L0.146,-0.458C0.157,-0.474 0.169,-0.487 0.185,-0.498C0.2,-0.508 0.219,-0.513 0.242,-0.513C0.255,-0.513 0.267,-0.511 0.28,-0.507C0.293,-0.502 0.304,-0.495 0.314,-0.485C0.324,-0.475 0.332,-0.462 0.338,-0.447C0.344,-0.431 0.347,-0.412 0.347,-0.389L0.347,-0L0.245,-0L0.245,-0.351C0.245,-0.37 0.241,-0.384 0.232,-0.395C0.223,-0.406 0.211,-0.411 0.195,-0.411C0.176,-0.411 0.162,-0.405 0.155,-0.393C0.148,-0.381 0.144,-0.364 0.144,-0.341L0.144,-0L0.042,-0Z" style="fill-rule:nonzero;"/>
            </g>
            <g transform="matrix(10,0,0,10,104.378,118.306)">
                <path d="M0.337,-0.215L0.135,-0.215L0.135,-0.146C0.135,-0.13 0.139,-0.118 0.149,-0.109C0.158,-0.1 0.17,-0.096 0.185,-0.096C0.204,-0.096 0.217,-0.102 0.224,-0.113C0.23,-0.124 0.234,-0.136 0.235,-0.147L0.337,-0.147C0.337,-0.102 0.323,-0.066 0.296,-0.039C0.283,-0.025 0.267,-0.014 0.248,-0.006C0.229,0.002 0.208,0.006 0.185,0.006C0.153,0.006 0.126,-0.001 0.104,-0.014C0.081,-0.027 0.064,-0.045 0.052,-0.067C0.045,-0.08 0.04,-0.096 0.037,-0.113C0.034,-0.13 0.033,-0.149 0.033,-0.17L0.033,-0.337C0.033,-0.358 0.034,-0.377 0.037,-0.394C0.04,-0.411 0.045,-0.427 0.052,-0.44C0.064,-0.462 0.081,-0.48 0.104,-0.493C0.126,-0.506 0.153,-0.513 0.185,-0.513C0.208,-0.513 0.23,-0.509 0.249,-0.501C0.268,-0.493 0.284,-0.482 0.297,-0.468C0.324,-0.438 0.337,-0.4 0.337,-0.355L0.337,-0.215ZM0.135,-0.295L0.235,-0.295L0.235,-0.353C0.235,-0.372 0.231,-0.387 0.222,-0.397C0.213,-0.406 0.2,-0.411 0.185,-0.411C0.17,-0.411 0.158,-0.406 0.149,-0.397C0.139,-0.387 0.135,-0.372 0.135,-0.353L0.135,-0.295Z" style="fill-rule:nonzero;"/>
            </g>
            <g transform="matrix(10,0,0,10,108.078,118.306)">
                <path d="M0.15,-0.146C0.15,-0.13 0.155,-0.118 0.164,-0.109C0.172,-0.1 0.185,-0.096 0.2,-0.096C0.219,-0.096 0.232,-0.102 0.239,-0.113C0.245,-0.124 0.249,-0.136 0.25,-0.147L0.352,-0.147C0.352,-0.102 0.338,-0.066 0.311,-0.039C0.298,-0.025 0.282,-0.014 0.263,-0.006C0.244,0.002 0.223,0.006 0.2,0.006C0.168,0.006 0.141,-0.001 0.119,-0.014C0.096,-0.027 0.079,-0.045 0.067,-0.067C0.06,-0.08 0.055,-0.096 0.052,-0.113C0.049,-0.13 0.048,-0.149 0.048,-0.17L0.048,-0.337C0.048,-0.358 0.049,-0.377 0.052,-0.394C0.055,-0.411 0.06,-0.427 0.067,-0.44C0.079,-0.462 0.096,-0.48 0.119,-0.493C0.141,-0.506 0.168,-0.513 0.2,-0.513C0.223,-0.513 0.245,-0.509 0.264,-0.501C0.282,-0.493 0.299,-0.482 0.312,-0.468C0.339,-0.438 0.352,-0.399 0.352,-0.351L0.25,-0.351C0.25,-0.372 0.246,-0.387 0.237,-0.397C0.228,-0.406 0.215,-0.411 0.2,-0.411C0.185,-0.411 0.172,-0.406 0.164,-0.397C0.155,-0.387 0.15,-0.372 0.15,-0.353L0.15,-0.146Z" style="fill-rule:nonzero;"/>
            </g>
            <g transform="matrix(10,0,0,10,111.778,118.306)">
                <path d="M0.042,-0.507L0.042,-0.661L0.144,-0.661L0.144,-0.507L0.207,-0.507L0.207,-0.427L0.144,-0.427L0.144,-0.146C0.144,-0.134 0.145,-0.125 0.148,-0.118C0.15,-0.111 0.154,-0.106 0.159,-0.103C0.164,-0.1 0.171,-0.098 0.179,-0.097C0.186,-0.096 0.196,-0.096 0.207,-0.096L0.207,-0L0.165,-0C0.142,-0 0.122,-0.004 0.107,-0.011C0.091,-0.018 0.078,-0.028 0.069,-0.039C0.06,-0.05 0.053,-0.063 0.049,-0.078C0.044,-0.092 0.042,-0.106 0.042,-0.119L0.042,-0.427L-0.009,-0.427L-0.009,-0.507L0.042,-0.507Z" style="fill-rule:nonzero;"/>
            </g>
        </g>
    </g>
    <g transform="matrix(0.119721,0,0,0.119721,-4.24775,103.926)">
        <g>
            <path d="M391.266,258.134C422.478,262.418 461.952,273.74 490.104,261.195C521.316,247.424 533.556,183.165 536.616,155.012C537.228,149.199 527.742,146.75 525.294,151.952C513.055,179.492 511.83,232.43 482.454,248.954C472.356,254.767 457.362,252.626 446.347,251.708C428.292,250.484 410.239,248.954 392.185,248.036C393.103,237.632 392.796,227.534 391.573,217.435C404.731,218.354 423.397,210.704 433.495,207.337C450.631,202.135 461.035,197.239 469.603,180.715C481.843,156.236 468.685,115.843 454.609,95.035C450.019,88.303 440.838,92.587 442.063,100.237C445.735,121.35 457.975,138.793 458.281,161.131C458.587,173.371 450.631,178.879 446.653,188.671C448.795,183.469 442.674,188.977 438.697,190.814C427.681,195.404 416.359,199.076 404.731,202.135C400.447,203.36 395.857,204.278 391.267,205.196L390.042,205.196C390.96,203.971 391.878,203.053 393.103,202.135C394.632,200.911 392.796,198.769 391.267,199.687C390.349,200.299 389.431,200.606 388.513,201.524C377.496,161.437 346.284,131.143 291.511,136.958C284.472,95.342 284.167,48.83 286.615,7.214C286.615,5.072 285.391,2.624 283.555,1.706C283.861,1.706 283.861,1.706 284.167,1.4C284.779,1.706 285.085,0.788 284.779,0.482C282.943,-0.743 282.637,0.788 280.495,0.482C277.741,0.482 274.987,2.624 274.375,5.378C264.583,47.3 268.561,99.32 275.905,141.854C217.765,119.21 171.559,199.688 169.111,251.096C168.805,259.359 169.417,267.008 171.253,274.658L170.947,274.658C152.281,278.636 134.839,287.815 116.479,293.935C89.245,302.809 81.595,278.024 73.027,256.297C65.377,237.631 60.175,218.354 55.585,199.075C53.443,189.895 54.361,171.841 45.793,166.027C43.651,164.802 41.509,165.415 39.673,166.945C29.269,174.901 41.203,204.583 43.651,214.069C50.077,239.466 58.339,264.558 70.579,287.814C77.311,300.667 88.021,314.743 104.239,311.682C128.719,307.398 151.057,293.628 172.783,282C182.881,315.66 211.339,341.976 244.693,353.604C239.491,356.358 235.207,360.336 231.841,364.621C205.219,360.337 179.209,353.299 152.587,350.545C127.189,348.097 115.255,361.561 104.545,383.287C90.469,412.663 68.131,498.648 100.567,524.047C106.075,528.331 114.031,523.129 110.665,516.397C92.917,480.901 103.321,430.717 116.173,395.221C134.533,345.343 184.105,371.047 225.415,375.025C221.131,384.206 219.907,394.916 221.743,405.931C222.049,407.767 222.661,409.603 223.273,411.439C183.799,407.461 151.669,425.515 158.095,471.109C162.991,506.299 199.711,568.111 238.879,572.089C244.693,572.701 247.447,564.439 243.469,560.767C233.065,550.975 220.213,544.855 209.809,534.452C196.039,520.681 185.329,503.24 177.985,485.185C172.477,471.415 169.111,454.891 175.537,440.815C183.799,422.149 207.667,420.62 226.333,420.62C235.513,443.569 256.015,459.176 282.025,461.317C281.719,461.929 281.413,462.847 281.719,463.765C281.413,463.765 281.107,464.072 281.107,464.072C274.375,469.58 269.479,479.065 264.277,485.798C259.993,491.306 255.403,497.426 252.343,503.852C242.551,490.388 249.589,475.394 252.955,458.564C253.873,453.362 246.223,450.915 244.999,456.422C242.551,467.438 237.961,478.454 237.349,490.082C236.737,501.098 243.775,509.972 250.201,517.928C252.343,520.682 257.545,519.764 258.769,516.704C263.971,506.3 270.397,497.426 277.435,488.246C281.413,483.35 286.309,478.147 288.757,472.027C299.161,482.126 312.014,488.246 315.073,505.076C315.991,509.359 321.805,510.584 324.865,507.523C333.739,498.649 340.777,488.857 341.083,476.005C341.39,464.377 334.963,452.137 331.903,441.121C338.634,434.389 344.449,426.739 347.815,418.171C348.733,415.723 349.345,413.581 350.263,411.133C372.907,413.887 393.714,418.783 415.134,426.433C413.91,442.039 410.238,457.339 406.261,472.333C404.118,480.9 388.513,515.785 391.573,519.457C387.595,515.173 378.721,519.763 381.169,525.577C389.432,546.079 405.649,523.434 409.934,513.031C421.562,484.573 430.129,452.136 430.742,421.23C430.742,417.558 428.294,415.11 425.234,413.886C402.589,405.624 376.885,401.34 352.406,401.646C353.324,393.079 352.406,385.123 349.958,377.472C350.876,377.166 351.794,376.861 353.019,376.248C362.504,372.576 371.991,369.516 381.477,366.149C404.426,358.5 425.54,350.238 445.737,367.679C478.785,396.137 476.643,449.075 473.889,487.937C473.582,492.833 480.315,495.282 483.374,491.916C496.532,477.534 491.942,449.076 489.494,431.634C484.904,402.564 475.418,373.188 452.468,353.604C432.273,336.468 411.771,341.976 388.821,349.014C377.193,352.686 356.384,357.277 345.063,366.151C341.391,359.724 336.495,353.911 330.681,348.709C364.337,331.88 385.146,295.771 391.266,258.134ZM322.109,492.836C319.355,487.328 315.683,482.737 310.481,478.76C302.831,472.64 293.957,468.968 287.531,461.624C299.465,461.317 311.093,457.34 321.191,450.607C323.027,456.727 325.475,462.847 327.311,468.967C330.371,478.454 327.312,485.798 322.109,492.836ZM292.428,447.548C251.424,456.422 222.966,408.074 235.511,375.332L238.265,375.332C243.161,375.025 244.997,367.988 240.713,366.151C243.773,362.173 247.139,358.502 252.035,355.441C271.007,360.95 290.897,361.868 310.176,356.971C312.318,356.359 314.154,355.747 316.295,355.135C316.602,355.441 316.602,355.747 317.213,356.053C355.77,384.817 336.797,438.062 292.428,447.548ZM328.229,332.798C278.963,367.376 204.299,331.574 187.163,278.33C166.355,214.07 215.927,154.094 277.739,150.116C279.881,153.176 283.859,153.176 287.225,151.952C287.836,151.952 288.754,152.258 289.672,152.258C400.751,138.182 399.833,282.92 328.229,332.798Z" style="fill-rule:nonzero;"/>
            <path d="M170.333,214.376C152.585,223.862 133.001,227.84 113.111,225.698C115.559,204.278 118.007,182.858 121.067,161.438C124.127,140.629 133.307,120.433 136.061,99.931C136.673,94.423 131.165,90.446 126.575,94.423C112.805,106.663 110.969,132.98 107.909,149.809C103.013,177.043 100.871,204.278 97.505,231.818C97.199,234.878 99.953,238.549 103.013,239.162C132.083,243.14 151.667,237.326 173.393,218.354C175.535,216.518 172.781,213.152 170.333,214.376Z" style="fill-rule:nonzero;"/>
        </g>
    </g>
    <g transform="matrix(0.816456,0,0,0.816456,31.4849,-226.739)">
        <g transform="matrix(1,0,0,1,-100.189,-30.7269)">
            <g transform="matrix(14.6977,0,0,14.6977,83.8056,355.099)">
                <path d="M0.623,0.057C0.624,0.057 0.626,0.059 0.627,0.063C0.628,0.067 0.628,0.07 0.627,0.073C0.624,0.079 0.62,0.086 0.613,0.093C0.606,0.1 0.596,0.107 0.586,0.114C0.575,0.121 0.562,0.126 0.548,0.131C0.533,0.136 0.518,0.138 0.502,0.138C0.489,0.138 0.478,0.136 0.469,0.131C0.46,0.126 0.453,0.121 0.448,0.115C0.442,0.108 0.438,0.101 0.436,0.095C0.433,0.088 0.432,0.082 0.432,0.077C0.432,0.068 0.436,0.058 0.443,0.049C0.45,0.039 0.459,0.028 0.47,0.015C0.481,0.002 0.492,-0.014 0.505,-0.032C0.517,-0.05 0.529,-0.072 0.54,-0.098C0.551,-0.123 0.56,-0.154 0.567,-0.189C0.574,-0.224 0.577,-0.265 0.577,-0.313C0.577,-0.388 0.56,-0.446 0.527,-0.486C0.494,-0.526 0.451,-0.546 0.398,-0.546C0.384,-0.546 0.367,-0.542 0.347,-0.535C0.327,-0.527 0.308,-0.516 0.29,-0.503C0.271,-0.489 0.255,-0.472 0.242,-0.454C0.229,-0.435 0.222,-0.414 0.221,-0.391C0.22,-0.379 0.22,-0.365 0.22,-0.349C0.219,-0.333 0.219,-0.316 0.219,-0.298L0.219,-0.188C0.22,-0.152 0.221,-0.12 0.223,-0.092C0.225,-0.064 0.228,-0.046 0.232,-0.039C0.237,-0.031 0.247,-0.026 0.26,-0.025C0.273,-0.024 0.285,-0.023 0.296,-0.023C0.302,-0.023 0.305,-0.019 0.305,-0.01C0.305,-0.002 0.301,0.002 0.293,0.002C0.289,0.002 0.282,0.002 0.273,0.002L0.206,0.001C0.194,0 0.184,-0 0.177,-0C0.16,-0 0.141,0 0.122,0.001C0.103,0.001 0.084,0.001 0.067,0.002C0.05,0.002 0.035,0.002 0.022,0.003C0.009,0.004 0,0.004 -0.004,0.005C-0.006,0.005 -0.007,0.004 -0.008,0.001C-0.009,-0.002 -0.009,-0.005 -0.008,-0.008C-0.007,-0.011 -0.006,-0.014 -0.004,-0.017C-0.002,-0.02 0,-0.021 0.002,-0.021C0.015,-0.021 0.029,-0.022 0.043,-0.025C0.056,-0.027 0.065,-0.029 0.068,-0.032C0.073,-0.036 0.078,-0.049 0.083,-0.071C0.087,-0.093 0.091,-0.12 0.094,-0.153C0.097,-0.186 0.1,-0.222 0.102,-0.261C0.104,-0.3 0.105,-0.338 0.105,-0.375C0.105,-0.45 0.105,-0.509 0.104,-0.552C0.103,-0.595 0.101,-0.626 0.099,-0.648C0.095,-0.669 0.091,-0.681 0.086,-0.686C0.08,-0.691 0.072,-0.693 0.063,-0.693C0.06,-0.693 0.057,-0.693 0.052,-0.693L0.022,-0.69C0.017,-0.689 0.014,-0.689 0.013,-0.689C0.012,-0.689 0.011,-0.69 0.011,-0.693C0.01,-0.696 0.01,-0.698 0.01,-0.701C0.01,-0.704 0.01,-0.707 0.011,-0.712C0.012,-0.717 0.014,-0.719 0.017,-0.719L0.03,-0.719C0.035,-0.719 0.044,-0.719 0.055,-0.719C0.066,-0.718 0.082,-0.718 0.101,-0.718C0.12,-0.717 0.144,-0.717 0.175,-0.717C0.277,-0.717 0.367,-0.722 0.444,-0.731C0.521,-0.74 0.588,-0.754 0.645,-0.771C0.651,-0.773 0.655,-0.773 0.657,-0.772C0.658,-0.77 0.659,-0.767 0.659,-0.763C0.659,-0.758 0.656,-0.752 0.651,-0.745C0.645,-0.737 0.638,-0.729 0.63,-0.722C0.621,-0.714 0.612,-0.707 0.603,-0.702C0.593,-0.697 0.584,-0.694 0.575,-0.694C0.564,-0.694 0.55,-0.694 0.533,-0.695C0.516,-0.696 0.498,-0.696 0.479,-0.697C0.46,-0.698 0.439,-0.698 0.418,-0.699C0.397,-0.699 0.376,-0.699 0.355,-0.699C0.322,-0.699 0.295,-0.697 0.274,-0.692C0.253,-0.687 0.24,-0.679 0.237,-0.669C0.231,-0.655 0.227,-0.634 0.226,-0.607C0.225,-0.579 0.224,-0.538 0.224,-0.485C0.231,-0.492 0.243,-0.502 0.262,-0.517C0.28,-0.532 0.302,-0.547 0.327,-0.562C0.352,-0.576 0.379,-0.59 0.408,-0.602C0.437,-0.613 0.467,-0.619 0.496,-0.619C0.524,-0.619 0.551,-0.614 0.577,-0.604C0.603,-0.593 0.626,-0.579 0.646,-0.561C0.666,-0.543 0.682,-0.522 0.694,-0.498C0.706,-0.473 0.712,-0.447 0.712,-0.419C0.712,-0.388 0.708,-0.359 0.699,-0.331C0.69,-0.303 0.679,-0.276 0.666,-0.251C0.653,-0.225 0.638,-0.2 0.623,-0.176C0.608,-0.152 0.593,-0.129 0.58,-0.106C0.567,-0.083 0.556,-0.061 0.547,-0.04C0.538,-0.018 0.534,0.003 0.534,0.024C0.534,0.037 0.538,0.048 0.547,0.058C0.555,0.067 0.568,0.071 0.586,0.071C0.595,0.071 0.602,0.07 0.609,0.067C0.616,0.064 0.62,0.06 0.622,0.057L0.623,0.057Z" style="fill-rule:nonzero;"/>
            </g>
            <g transform="matrix(14.6977,0,0,14.6977,94.5936,355.099)">
                <path d="M0.019,-0.413C0.014,-0.414 0.011,-0.417 0.012,-0.421C0.012,-0.425 0.014,-0.427 0.019,-0.428C0.021,-0.429 0.027,-0.431 0.038,-0.435C0.049,-0.439 0.062,-0.444 0.077,-0.449C0.092,-0.454 0.107,-0.46 0.124,-0.466C0.14,-0.472 0.154,-0.477 0.167,-0.481C0.175,-0.484 0.181,-0.486 0.184,-0.487C0.187,-0.488 0.189,-0.488 0.191,-0.488C0.193,-0.488 0.195,-0.487 0.198,-0.486C0.201,-0.484 0.201,-0.481 0.2,-0.478C0.198,-0.473 0.196,-0.46 0.194,-0.44C0.191,-0.42 0.189,-0.398 0.187,-0.374C0.185,-0.349 0.183,-0.325 0.182,-0.301C0.18,-0.277 0.179,-0.258 0.179,-0.244C0.179,-0.191 0.19,-0.15 0.213,-0.121C0.236,-0.091 0.271,-0.077 0.319,-0.077C0.344,-0.077 0.364,-0.082 0.381,-0.092C0.397,-0.102 0.409,-0.114 0.418,-0.127C0.424,-0.136 0.428,-0.155 0.43,-0.184C0.43,-0.189 0.43,-0.196 0.431,-0.205L0.433,-0.261C0.433,-0.27 0.433,-0.277 0.433,-0.283C0.434,-0.314 0.433,-0.342 0.431,-0.369C0.428,-0.395 0.425,-0.414 0.42,-0.427C0.418,-0.435 0.414,-0.439 0.408,-0.439C0.404,-0.439 0.4,-0.439 0.397,-0.439C0.393,-0.438 0.391,-0.441 0.39,-0.447C0.39,-0.449 0.392,-0.451 0.396,-0.454C0.4,-0.456 0.408,-0.459 0.419,-0.464C0.43,-0.468 0.442,-0.472 0.455,-0.476C0.468,-0.48 0.48,-0.483 0.493,-0.486C0.506,-0.489 0.517,-0.491 0.527,-0.492C0.537,-0.493 0.544,-0.492 0.549,-0.49C0.549,-0.489 0.55,-0.489 0.551,-0.488C0.552,-0.487 0.552,-0.484 0.553,-0.481C0.554,-0.477 0.554,-0.464 0.551,-0.444C0.548,-0.423 0.544,-0.388 0.541,-0.341C0.538,-0.308 0.536,-0.277 0.534,-0.246C0.532,-0.215 0.531,-0.192 0.531,-0.176C0.531,-0.145 0.537,-0.12 0.549,-0.102C0.56,-0.083 0.575,-0.074 0.592,-0.074C0.603,-0.074 0.614,-0.076 0.625,-0.081C0.635,-0.086 0.642,-0.09 0.647,-0.093C0.652,-0.093 0.655,-0.091 0.656,-0.086C0.656,-0.081 0.655,-0.078 0.652,-0.077C0.642,-0.07 0.628,-0.062 0.611,-0.052C0.593,-0.042 0.575,-0.033 0.556,-0.024C0.537,-0.014 0.518,-0.007 0.501,-0.001C0.484,0.006 0.47,0.009 0.459,0.009C0.454,0.009 0.449,0.006 0.445,-0.002C0.44,-0.009 0.437,-0.017 0.434,-0.027C0.431,-0.037 0.429,-0.047 0.428,-0.058C0.427,-0.069 0.426,-0.078 0.426,-0.086C0.412,-0.076 0.396,-0.066 0.378,-0.055C0.36,-0.044 0.341,-0.033 0.322,-0.024C0.303,-0.014 0.284,-0.006 0.265,-0C0.246,0.006 0.228,0.009 0.212,0.009C0.171,0.009 0.138,-0.002 0.112,-0.024C0.086,-0.045 0.073,-0.073 0.073,-0.108C0.073,-0.115 0.074,-0.126 0.075,-0.141C0.076,-0.156 0.078,-0.172 0.08,-0.191C0.082,-0.21 0.084,-0.23 0.085,-0.251C0.086,-0.272 0.087,-0.293 0.087,-0.313C0.087,-0.344 0.082,-0.367 0.073,-0.384C0.063,-0.4 0.05,-0.409 0.035,-0.411L0.019,-0.413Z" style="fill-rule:nonzero;"/>
            </g>
            <g transform="matrix(14.6977,0,0,14.6977,103.677,355.099)">
                <path d="M0.013,-0.719C0.013,-0.734 0.017,-0.742 0.024,-0.745C0.031,-0.748 0.038,-0.749 0.046,-0.749L0.108,-0.749C0.126,-0.749 0.142,-0.749 0.158,-0.75C0.172,-0.75 0.187,-0.751 0.2,-0.753C0.213,-0.754 0.225,-0.757 0.236,-0.761C0.241,-0.763 0.244,-0.762 0.245,-0.758C0.245,-0.754 0.245,-0.75 0.245,-0.747C0.245,-0.743 0.243,-0.74 0.239,-0.738C0.235,-0.735 0.231,-0.733 0.226,-0.732C0.221,-0.731 0.216,-0.73 0.211,-0.729C0.206,-0.728 0.203,-0.728 0.202,-0.728C0.2,-0.721 0.198,-0.706 0.195,-0.683C0.192,-0.659 0.19,-0.631 0.187,-0.599C0.184,-0.566 0.181,-0.532 0.179,-0.496C0.177,-0.459 0.176,-0.425 0.176,-0.393C0.182,-0.4 0.192,-0.409 0.206,-0.421C0.22,-0.433 0.237,-0.445 0.256,-0.457C0.275,-0.468 0.296,-0.478 0.319,-0.487C0.342,-0.496 0.367,-0.5 0.392,-0.5C0.417,-0.5 0.441,-0.496 0.463,-0.488C0.484,-0.48 0.503,-0.468 0.519,-0.453C0.535,-0.438 0.548,-0.419 0.557,-0.397C0.566,-0.374 0.57,-0.349 0.57,-0.321C0.57,-0.298 0.566,-0.274 0.557,-0.249C0.548,-0.224 0.535,-0.199 0.52,-0.175C0.504,-0.15 0.485,-0.127 0.463,-0.105C0.441,-0.083 0.417,-0.064 0.392,-0.047C0.366,-0.03 0.338,-0.017 0.31,-0.007C0.281,0.003 0.251,0.008 0.222,0.008C0.189,0.008 0.161,0.004 0.14,-0.003C0.119,-0.01 0.102,-0.019 0.089,-0.028C0.076,-0.037 0.067,-0.046 0.062,-0.055C0.057,-0.063 0.054,-0.068 0.053,-0.07C0.055,-0.076 0.057,-0.092 0.06,-0.119C0.063,-0.145 0.065,-0.177 0.068,-0.216C0.07,-0.254 0.072,-0.296 0.074,-0.342C0.076,-0.388 0.077,-0.433 0.077,-0.477C0.077,-0.516 0.076,-0.548 0.075,-0.575C0.074,-0.601 0.072,-0.623 0.07,-0.64C0.067,-0.657 0.064,-0.67 0.061,-0.68C0.058,-0.689 0.054,-0.697 0.05,-0.702C0.042,-0.712 0.033,-0.717 0.024,-0.718L0.013,-0.719ZM0.174,-0.314C0.173,-0.303 0.172,-0.289 0.171,-0.273C0.17,-0.257 0.17,-0.241 0.17,-0.225C0.17,-0.209 0.17,-0.195 0.171,-0.182C0.172,-0.169 0.172,-0.161 0.173,-0.158C0.175,-0.148 0.18,-0.137 0.187,-0.126C0.194,-0.115 0.204,-0.104 0.216,-0.095C0.228,-0.085 0.242,-0.077 0.258,-0.071C0.273,-0.064 0.29,-0.061 0.309,-0.061C0.351,-0.061 0.386,-0.076 0.414,-0.105C0.441,-0.134 0.455,-0.179 0.455,-0.24C0.455,-0.274 0.45,-0.303 0.441,-0.327C0.431,-0.35 0.419,-0.369 0.404,-0.384C0.389,-0.398 0.374,-0.408 0.357,-0.415C0.339,-0.422 0.324,-0.425 0.31,-0.425C0.291,-0.425 0.275,-0.422 0.262,-0.417C0.249,-0.411 0.237,-0.404 0.227,-0.397C0.21,-0.384 0.198,-0.372 0.19,-0.359C0.182,-0.346 0.177,-0.331 0.174,-0.314Z" style="fill-rule:nonzero;"/>
            </g>
            <g transform="matrix(14.6977,0,0,14.6977,69.8648,369.797)">
                <path d="M0.523,0.005C0.516,0.005 0.507,0.005 0.496,0.006C0.485,0.007 0.472,0.007 0.46,0.008C0.447,0.008 0.433,0.008 0.42,0.009C0.406,0.01 0.393,0.01 0.382,0.01C0.337,0.01 0.294,0.003 0.251,-0.011C0.208,-0.024 0.171,-0.046 0.138,-0.075C0.105,-0.103 0.078,-0.141 0.058,-0.187C0.037,-0.232 0.027,-0.287 0.027,-0.351C0.027,-0.41 0.038,-0.462 0.061,-0.507C0.083,-0.552 0.112,-0.59 0.149,-0.621C0.186,-0.652 0.227,-0.675 0.273,-0.691C0.319,-0.707 0.366,-0.715 0.414,-0.715C0.425,-0.715 0.439,-0.714 0.458,-0.713C0.476,-0.712 0.494,-0.71 0.513,-0.708C0.531,-0.706 0.547,-0.704 0.562,-0.702C0.576,-0.699 0.585,-0.697 0.589,-0.695C0.598,-0.718 0.607,-0.739 0.618,-0.757C0.629,-0.775 0.643,-0.789 0.662,-0.798C0.667,-0.8 0.673,-0.8 0.68,-0.799C0.687,-0.798 0.69,-0.794 0.69,-0.789C0.687,-0.783 0.684,-0.779 0.683,-0.778C0.681,-0.777 0.679,-0.776 0.676,-0.776C0.668,-0.776 0.66,-0.772 0.653,-0.765C0.645,-0.758 0.638,-0.748 0.631,-0.737C0.624,-0.725 0.619,-0.712 0.614,-0.697C0.608,-0.682 0.605,-0.666 0.602,-0.651C0.601,-0.644 0.599,-0.635 0.598,-0.626C0.596,-0.616 0.594,-0.606 0.593,-0.597C0.592,-0.588 0.591,-0.579 0.59,-0.57C0.589,-0.561 0.589,-0.554 0.589,-0.548C0.589,-0.545 0.588,-0.542 0.585,-0.54C0.582,-0.537 0.58,-0.536 0.577,-0.536C0.573,-0.536 0.568,-0.538 0.563,-0.542C0.56,-0.559 0.555,-0.575 0.547,-0.592C0.538,-0.609 0.527,-0.624 0.512,-0.637C0.497,-0.65 0.478,-0.661 0.456,-0.669C0.433,-0.677 0.407,-0.681 0.376,-0.681C0.343,-0.681 0.314,-0.673 0.289,-0.658C0.263,-0.643 0.241,-0.622 0.224,-0.595C0.206,-0.568 0.192,-0.537 0.183,-0.5C0.174,-0.463 0.169,-0.424 0.169,-0.382C0.169,-0.324 0.175,-0.273 0.187,-0.228C0.198,-0.183 0.214,-0.144 0.235,-0.113C0.256,-0.082 0.28,-0.058 0.309,-0.042C0.338,-0.025 0.369,-0.017 0.403,-0.017C0.426,-0.017 0.448,-0.021 0.47,-0.028C0.491,-0.035 0.511,-0.045 0.53,-0.058C0.548,-0.071 0.564,-0.085 0.579,-0.102C0.593,-0.119 0.604,-0.136 0.612,-0.155C0.613,-0.158 0.617,-0.16 0.623,-0.161C0.628,-0.162 0.631,-0.162 0.631,-0.159C0.631,-0.15 0.628,-0.138 0.623,-0.124C0.617,-0.109 0.61,-0.094 0.603,-0.079C0.596,-0.064 0.588,-0.05 0.581,-0.038C0.574,-0.025 0.569,-0.017 0.566,-0.013C0.564,-0.008 0.562,-0.002 0.559,0.006C0.556,0.013 0.553,0.022 0.551,0.032C0.548,0.041 0.546,0.051 0.544,0.062C0.542,0.072 0.541,0.082 0.541,0.092C0.541,0.103 0.54,0.109 0.537,0.112C0.534,0.115 0.529,0.116 0.52,0.116C0.513,0.116 0.509,0.111 0.51,0.101C0.511,0.09 0.512,0.078 0.515,0.065C0.518,0.052 0.52,0.039 0.523,0.028C0.526,0.016 0.526,0.008 0.523,0.005Z" style="fill-rule:nonzero;"/>
            </g>
            <g transform="matrix(14.6977,0,0,14.6977,79.3595,369.797)">
                <path d="M0.429,-0.08C0.422,-0.074 0.412,-0.066 0.399,-0.056C0.386,-0.046 0.372,-0.036 0.355,-0.026C0.338,-0.016 0.32,-0.008 0.3,-0.001C0.28,0.007 0.259,0.01 0.237,0.01C0.204,0.01 0.174,0.004 0.148,-0.008C0.122,-0.019 0.1,-0.035 0.083,-0.055C0.065,-0.074 0.051,-0.097 0.043,-0.124C0.034,-0.151 0.029,-0.179 0.029,-0.209C0.029,-0.244 0.034,-0.276 0.045,-0.303C0.056,-0.33 0.069,-0.354 0.085,-0.375C0.1,-0.395 0.117,-0.412 0.135,-0.426C0.153,-0.439 0.169,-0.45 0.184,-0.458C0.191,-0.462 0.199,-0.466 0.21,-0.471C0.22,-0.476 0.231,-0.48 0.244,-0.484C0.256,-0.488 0.269,-0.492 0.284,-0.495C0.298,-0.498 0.313,-0.499 0.328,-0.499C0.357,-0.499 0.385,-0.495 0.412,-0.488C0.439,-0.481 0.462,-0.469 0.483,-0.454C0.504,-0.438 0.52,-0.418 0.533,-0.393C0.546,-0.368 0.552,-0.339 0.552,-0.304C0.552,-0.276 0.547,-0.25 0.537,-0.225C0.526,-0.2 0.514,-0.178 0.5,-0.159C0.486,-0.14 0.472,-0.123 0.459,-0.11C0.445,-0.096 0.435,-0.086 0.429,-0.08ZM0.316,-0.064C0.354,-0.064 0.383,-0.078 0.404,-0.107C0.424,-0.136 0.434,-0.18 0.434,-0.239C0.434,-0.269 0.43,-0.297 0.422,-0.323C0.413,-0.348 0.402,-0.371 0.387,-0.39C0.372,-0.409 0.354,-0.424 0.334,-0.436C0.314,-0.447 0.292,-0.452 0.269,-0.452C0.252,-0.452 0.237,-0.448 0.222,-0.439C0.207,-0.43 0.193,-0.418 0.182,-0.402C0.171,-0.385 0.162,-0.365 0.155,-0.342C0.148,-0.319 0.145,-0.292 0.145,-0.263C0.145,-0.232 0.15,-0.204 0.16,-0.179C0.169,-0.154 0.182,-0.134 0.198,-0.117C0.214,-0.099 0.232,-0.087 0.253,-0.078C0.273,-0.069 0.294,-0.064 0.316,-0.064Z" style="fill-rule:nonzero;"/>
            </g>
            <g transform="matrix(14.6977,0,0,14.6977,87.8107,369.797)">
                <path d="M0.193,-0.264C0.192,-0.258 0.192,-0.253 0.191,-0.248C0.19,-0.243 0.19,-0.238 0.19,-0.232C0.189,-0.226 0.189,-0.219 0.189,-0.21C0.188,-0.201 0.188,-0.189 0.188,-0.174C0.188,-0.15 0.189,-0.13 0.191,-0.115C0.192,-0.1 0.195,-0.088 0.198,-0.079C0.201,-0.07 0.206,-0.063 0.211,-0.06C0.216,-0.057 0.222,-0.055 0.229,-0.055C0.234,-0.055 0.239,-0.056 0.244,-0.057C0.245,-0.057 0.247,-0.055 0.248,-0.052C0.249,-0.048 0.248,-0.045 0.247,-0.044C0.243,-0.041 0.235,-0.036 0.224,-0.03C0.212,-0.023 0.199,-0.017 0.184,-0.011C0.169,-0.005 0.154,0 0.139,0.005C0.123,0.01 0.11,0.012 0.099,0.012C0.09,0.012 0.082,0.011 0.077,0.009C0.072,0.006 0.069,0.003 0.069,-0C0.069,-0.003 0.069,-0.005 0.07,-0.006C0.071,-0.007 0.072,-0.008 0.073,-0.011C0.074,-0.014 0.075,-0.019 0.076,-0.024C0.077,-0.028 0.078,-0.034 0.079,-0.041C0.08,-0.05 0.082,-0.062 0.083,-0.077C0.084,-0.091 0.086,-0.107 0.087,-0.124C0.088,-0.14 0.089,-0.158 0.091,-0.177C0.091,-0.195 0.092,-0.213 0.092,-0.23C0.092,-0.237 0.092,-0.247 0.092,-0.258C0.091,-0.269 0.091,-0.283 0.09,-0.3C0.089,-0.319 0.087,-0.336 0.084,-0.35C0.08,-0.363 0.075,-0.374 0.07,-0.383C0.064,-0.391 0.057,-0.397 0.051,-0.401C0.044,-0.405 0.037,-0.407 0.03,-0.407L0.02,-0.407C0.017,-0.407 0.013,-0.407 0.01,-0.406C0.007,-0.406 0.006,-0.409 0.006,-0.415C0.006,-0.416 0.007,-0.418 0.008,-0.419C0.009,-0.42 0.012,-0.422 0.017,-0.425C0.026,-0.431 0.037,-0.438 0.052,-0.447C0.067,-0.456 0.082,-0.464 0.097,-0.471C0.112,-0.478 0.127,-0.485 0.141,-0.49C0.154,-0.495 0.165,-0.498 0.172,-0.498C0.191,-0.498 0.201,-0.487 0.201,-0.465L0.199,-0.421L0.196,-0.379C0.21,-0.392 0.225,-0.406 0.241,-0.42C0.257,-0.434 0.274,-0.447 0.293,-0.459C0.312,-0.47 0.331,-0.48 0.352,-0.487C0.373,-0.494 0.394,-0.498 0.416,-0.498C0.456,-0.498 0.489,-0.487 0.515,-0.464C0.54,-0.44 0.553,-0.404 0.553,-0.354C0.553,-0.341 0.552,-0.325 0.551,-0.307C0.549,-0.289 0.547,-0.27 0.545,-0.251C0.543,-0.232 0.541,-0.213 0.54,-0.194C0.538,-0.175 0.537,-0.159 0.537,-0.144C0.537,-0.091 0.554,-0.064 0.589,-0.064C0.596,-0.064 0.603,-0.065 0.612,-0.068C0.62,-0.07 0.628,-0.073 0.636,-0.076C0.643,-0.079 0.65,-0.082 0.656,-0.085C0.662,-0.088 0.666,-0.09 0.668,-0.092C0.669,-0.093 0.67,-0.092 0.671,-0.091C0.672,-0.089 0.672,-0.087 0.673,-0.084C0.674,-0.081 0.674,-0.079 0.674,-0.077C0.673,-0.075 0.673,-0.074 0.672,-0.073C0.667,-0.07 0.655,-0.063 0.638,-0.054C0.62,-0.045 0.6,-0.035 0.579,-0.026C0.557,-0.016 0.535,-0.007 0.514,0.001C0.493,0.008 0.476,0.012 0.463,0.012C0.448,0.012 0.437,0.008 0.432,0.001C0.426,-0.006 0.423,-0.014 0.423,-0.022C0.423,-0.027 0.424,-0.034 0.426,-0.042C0.427,-0.05 0.429,-0.063 0.432,-0.081C0.435,-0.1 0.437,-0.123 0.44,-0.149C0.442,-0.175 0.443,-0.203 0.443,-0.233C0.443,-0.292 0.432,-0.336 0.411,-0.367C0.389,-0.397 0.362,-0.412 0.329,-0.412C0.308,-0.412 0.29,-0.408 0.274,-0.4C0.258,-0.392 0.244,-0.381 0.233,-0.368C0.222,-0.354 0.213,-0.338 0.206,-0.321C0.199,-0.303 0.195,-0.284 0.193,-0.264Z" style="fill-rule:nonzero;"/>
            </g>
            <g transform="matrix(14.6977,0,0,14.6977,96.9967,369.797)">
                <path d="M0.193,-0.264C0.192,-0.258 0.192,-0.253 0.191,-0.248C0.19,-0.243 0.19,-0.238 0.19,-0.232C0.189,-0.226 0.189,-0.219 0.189,-0.21C0.188,-0.201 0.188,-0.189 0.188,-0.174C0.188,-0.15 0.189,-0.13 0.191,-0.115C0.192,-0.1 0.195,-0.088 0.198,-0.079C0.201,-0.07 0.206,-0.063 0.211,-0.06C0.216,-0.057 0.222,-0.055 0.229,-0.055C0.234,-0.055 0.239,-0.056 0.244,-0.057C0.245,-0.057 0.247,-0.055 0.248,-0.052C0.249,-0.048 0.248,-0.045 0.247,-0.044C0.243,-0.041 0.235,-0.036 0.224,-0.03C0.212,-0.023 0.199,-0.017 0.184,-0.011C0.169,-0.005 0.154,0 0.139,0.005C0.123,0.01 0.11,0.012 0.099,0.012C0.09,0.012 0.082,0.011 0.077,0.009C0.072,0.006 0.069,0.003 0.069,-0C0.069,-0.003 0.069,-0.005 0.07,-0.006C0.071,-0.007 0.072,-0.008 0.073,-0.011C0.074,-0.014 0.075,-0.019 0.076,-0.024C0.077,-0.028 0.078,-0.034 0.079,-0.041C0.08,-0.05 0.082,-0.062 0.083,-0.077C0.084,-0.091 0.086,-0.107 0.087,-0.124C0.088,-0.14 0.089,-0.158 0.091,-0.177C0.091,-0.195 0.092,-0.213 0.092,-0.23C0.092,-0.237 0.092,-0.247 0.092,-0.258C0.091,-0.269 0.091,-0.283 0.09,-0.3C0.089,-0.319 0.087,-0.336 0.084,-0.35C0.08,-0.363 0.075,-0.374 0.07,-0.383C0.064,-0.391 0.057,-0.397 0.051,-0.401C0.044,-0.405 0.037,-0.407 0.03,-0.407L0.02,-0.407C0.017,-0.407 0.013,-0.407 0.01,-0.406C0.007,-0.406 0.006,-0.409 0.006,-0.415C0.006,-0.416 0.007,-0.418 0.008,-0.419C0.009,-0.42 0.012,-0.422 0.017,-0.425C0.026,-0.431 0.037,-0.438 0.052,-0.447C0.067,-0.456 0.082,-0.464 0.097,-0.471C0.112,-0.478 0.127,-0.485 0.141,-0.49C0.154,-0.495 0.165,-0.498 0.172,-0.498C0.191,-0.498 0.201,-0.487 0.201,-0.465L0.199,-0.421L0.196,-0.379C0.21,-0.392 0.225,-0.406 0.241,-0.42C0.257,-0.434 0.274,-0.447 0.293,-0.459C0.312,-0.47 0.331,-0.48 0.352,-0.487C0.373,-0.494 0.394,-0.498 0.416,-0.498C0.456,-0.498 0.489,-0.487 0.515,-0.464C0.54,-0.44 0.553,-0.404 0.553,-0.354C0.553,-0.341 0.552,-0.325 0.551,-0.307C0.549,-0.289 0.547,-0.27 0.545,-0.251C0.543,-0.232 0.541,-0.213 0.54,-0.194C0.538,-0.175 0.537,-0.159 0.537,-0.144C0.537,-0.091 0.554,-0.064 0.589,-0.064C0.596,-0.064 0.603,-0.065 0.612,-0.068C0.62,-0.07 0.628,-0.073 0.636,-0.076C0.643,-0.079 0.65,-0.082 0.656,-0.085C0.662,-0.088 0.666,-0.09 0.668,-0.092C0.669,-0.093 0.67,-0.092 0.671,-0.091C0.672,-0.089 0.672,-0.087 0.673,-0.084C0.674,-0.081 0.674,-0.079 0.674,-0.077C0.673,-0.075 0.673,-0.074 0.672,-0.073C0.667,-0.07 0.655,-0.063 0.638,-0.054C0.62,-0.045 0.6,-0.035 0.579,-0.026C0.557,-0.016 0.535,-0.007 0.514,0.001C0.493,0.008 0.476,0.012 0.463,0.012C0.448,0.012 0.437,0.008 0.432,0.001C0.426,-0.006 0.423,-0.014 0.423,-0.022C0.423,-0.027 0.424,-0.034 0.426,-0.042C0.427,-0.05 0.429,-0.063 0.432,-0.081C0.435,-0.1 0.437,-0.123 0.44,-0.149C0.442,-0.175 0.443,-0.203 0.443,-0.233C0.443,-0.292 0.432,-0.336 0.411,-0.367C0.389,-0.397 0.362,-0.412 0.329,-0.412C0.308,-0.412 0.29,-0.408 0.274,-0.4C0.258,-0.392 0.244,-0.381 0.233,-0.368C0.222,-0.354 0.213,-0.338 0.206,-0.321C0.199,-0.303 0.195,-0.284 0.193,-0.264Z" style="fill-rule:nonzero;"/>
            </g>
            <g transform="matrix(14.6977,0,0,14.6977,106.183,369.797)">
                <path d="M0.494,-0.117C0.487,-0.109 0.475,-0.098 0.46,-0.084C0.445,-0.07 0.426,-0.056 0.405,-0.042C0.383,-0.028 0.359,-0.016 0.332,-0.006C0.305,0.004 0.277,0.009 0.247,0.009C0.22,0.009 0.193,0.005 0.167,-0.004C0.141,-0.012 0.118,-0.025 0.097,-0.042C0.076,-0.059 0.06,-0.08 0.048,-0.107C0.035,-0.133 0.029,-0.164 0.029,-0.201C0.029,-0.231 0.031,-0.257 0.035,-0.279C0.039,-0.3 0.044,-0.319 0.051,-0.336C0.058,-0.352 0.065,-0.366 0.074,-0.378C0.082,-0.389 0.09,-0.4 0.099,-0.409C0.11,-0.421 0.123,-0.432 0.138,-0.443C0.153,-0.454 0.17,-0.463 0.188,-0.472C0.205,-0.481 0.224,-0.488 0.244,-0.493C0.263,-0.498 0.283,-0.5 0.303,-0.5C0.339,-0.5 0.367,-0.494 0.388,-0.482C0.408,-0.47 0.418,-0.453 0.418,-0.432C0.418,-0.419 0.414,-0.406 0.406,-0.395C0.413,-0.397 0.421,-0.4 0.432,-0.405C0.442,-0.41 0.452,-0.415 0.463,-0.42C0.474,-0.424 0.483,-0.429 0.492,-0.433C0.5,-0.437 0.505,-0.44 0.508,-0.442C0.509,-0.443 0.511,-0.444 0.513,-0.444C0.514,-0.443 0.515,-0.442 0.515,-0.44C0.515,-0.431 0.513,-0.424 0.51,-0.419C0.507,-0.413 0.503,-0.408 0.498,-0.405C0.487,-0.398 0.472,-0.39 0.452,-0.38C0.432,-0.37 0.41,-0.36 0.386,-0.349C0.361,-0.338 0.336,-0.327 0.31,-0.316C0.284,-0.305 0.26,-0.294 0.237,-0.284C0.214,-0.274 0.194,-0.265 0.177,-0.258C0.16,-0.25 0.148,-0.244 0.142,-0.241C0.142,-0.218 0.147,-0.197 0.156,-0.178C0.165,-0.158 0.177,-0.141 0.193,-0.126C0.209,-0.111 0.228,-0.1 0.251,-0.092C0.273,-0.083 0.297,-0.079 0.324,-0.079C0.348,-0.079 0.37,-0.082 0.389,-0.087C0.408,-0.092 0.425,-0.097 0.438,-0.104C0.451,-0.11 0.462,-0.116 0.47,-0.121C0.477,-0.126 0.481,-0.128 0.482,-0.128C0.485,-0.128 0.487,-0.127 0.49,-0.125C0.493,-0.122 0.494,-0.12 0.494,-0.117ZM0.142,-0.27C0.153,-0.274 0.166,-0.279 0.181,-0.285C0.195,-0.29 0.209,-0.296 0.223,-0.303C0.236,-0.31 0.249,-0.316 0.26,-0.322C0.271,-0.328 0.28,-0.333 0.286,-0.338C0.298,-0.347 0.304,-0.361 0.304,-0.382C0.304,-0.39 0.303,-0.398 0.3,-0.407C0.297,-0.416 0.292,-0.424 0.286,-0.431C0.28,-0.438 0.273,-0.443 0.264,-0.448C0.255,-0.452 0.246,-0.454 0.235,-0.454C0.226,-0.454 0.216,-0.451 0.205,-0.445C0.194,-0.438 0.184,-0.428 0.175,-0.414C0.166,-0.399 0.158,-0.38 0.152,-0.357C0.145,-0.333 0.142,-0.304 0.142,-0.27Z" style="fill-rule:nonzero;"/>
            </g>
            <g transform="matrix(14.6977,0,0,14.6977,112.885,369.797)">
                <path d="M0.451,-0.454C0.45,-0.45 0.446,-0.444 0.44,-0.436C0.433,-0.427 0.426,-0.419 0.417,-0.41C0.408,-0.401 0.399,-0.392 0.39,-0.384C0.38,-0.375 0.371,-0.369 0.364,-0.365C0.359,-0.363 0.357,-0.364 0.356,-0.367C0.355,-0.37 0.354,-0.374 0.354,-0.377C0.354,-0.382 0.351,-0.389 0.346,-0.397C0.34,-0.405 0.332,-0.413 0.322,-0.421C0.311,-0.428 0.299,-0.435 0.285,-0.44C0.271,-0.445 0.256,-0.448 0.239,-0.448C0.21,-0.448 0.187,-0.433 0.169,-0.402C0.151,-0.371 0.142,-0.329 0.142,-0.278C0.142,-0.247 0.147,-0.219 0.157,-0.194C0.166,-0.169 0.18,-0.148 0.197,-0.131C0.214,-0.114 0.234,-0.1 0.258,-0.092C0.282,-0.083 0.308,-0.078 0.336,-0.078C0.374,-0.078 0.404,-0.083 0.427,-0.093C0.45,-0.102 0.468,-0.113 0.483,-0.126C0.484,-0.126 0.484,-0.126 0.485,-0.127C0.485,-0.128 0.485,-0.128 0.486,-0.128C0.489,-0.128 0.492,-0.127 0.493,-0.125C0.494,-0.122 0.495,-0.119 0.495,-0.116C0.495,-0.113 0.494,-0.111 0.493,-0.11C0.483,-0.102 0.469,-0.091 0.452,-0.078C0.434,-0.065 0.414,-0.051 0.391,-0.039C0.368,-0.025 0.345,-0.014 0.32,-0.005C0.295,0.004 0.271,0.009 0.247,0.009C0.178,0.009 0.125,-0.011 0.087,-0.051C0.048,-0.091 0.029,-0.146 0.029,-0.215C0.029,-0.268 0.039,-0.312 0.06,-0.348C0.08,-0.384 0.105,-0.413 0.135,-0.435C0.164,-0.456 0.196,-0.472 0.229,-0.481C0.262,-0.49 0.292,-0.495 0.317,-0.495C0.338,-0.495 0.356,-0.494 0.373,-0.491C0.389,-0.488 0.403,-0.484 0.415,-0.48C0.426,-0.475 0.435,-0.471 0.442,-0.466C0.448,-0.461 0.451,-0.457 0.451,-0.454Z" style="fill-rule:nonzero;"/>
            </g>
            <g transform="matrix(14.6977,0,0,14.6977,119.455,369.797)">
                <path d="M0.502,-0.139C0.503,-0.14 0.505,-0.14 0.506,-0.139C0.507,-0.137 0.507,-0.135 0.508,-0.132C0.508,-0.129 0.508,-0.125 0.507,-0.122C0.506,-0.119 0.505,-0.116 0.503,-0.114C0.49,-0.101 0.473,-0.088 0.453,-0.074C0.433,-0.06 0.412,-0.047 0.391,-0.035C0.385,-0.032 0.377,-0.027 0.366,-0.022C0.355,-0.017 0.343,-0.012 0.331,-0.007C0.318,-0.002 0.304,0.003 0.291,0.007C0.277,0.01 0.264,0.012 0.252,0.012C0.228,0.012 0.205,0.007 0.184,-0.002C0.163,-0.011 0.144,-0.024 0.128,-0.041C0.112,-0.057 0.099,-0.076 0.091,-0.099C0.082,-0.122 0.077,-0.146 0.077,-0.173C0.077,-0.202 0.081,-0.229 0.089,-0.254C0.097,-0.279 0.106,-0.302 0.117,-0.322C0.127,-0.342 0.137,-0.359 0.146,-0.373C0.155,-0.386 0.162,-0.396 0.165,-0.403C0.152,-0.404 0.141,-0.404 0.131,-0.405C0.12,-0.405 0.11,-0.405 0.101,-0.405C0.08,-0.405 0.062,-0.405 0.047,-0.405C0.032,-0.404 0.019,-0.403 0.008,-0.4C0.003,-0.399 -0.002,-0.396 -0.007,-0.392C-0.012,-0.388 -0.016,-0.385 -0.019,-0.383C-0.02,-0.384 -0.022,-0.386 -0.025,-0.389C-0.027,-0.391 -0.028,-0.393 -0.028,-0.396C-0.028,-0.397 -0.028,-0.398 -0.027,-0.399C-0.027,-0.4 -0.023,-0.404 -0.014,-0.411C-0.005,-0.418 0.006,-0.426 0.019,-0.436C0.032,-0.445 0.046,-0.456 0.062,-0.468C0.077,-0.479 0.092,-0.49 0.107,-0.5C0.121,-0.51 0.133,-0.519 0.144,-0.526C0.154,-0.533 0.161,-0.537 0.164,-0.538C0.168,-0.539 0.172,-0.539 0.176,-0.536C0.18,-0.533 0.181,-0.531 0.18,-0.53C0.178,-0.529 0.175,-0.526 0.171,-0.523C0.167,-0.519 0.166,-0.516 0.167,-0.513C0.174,-0.507 0.187,-0.502 0.205,-0.497C0.223,-0.492 0.243,-0.489 0.266,-0.486C0.289,-0.483 0.312,-0.48 0.336,-0.479C0.36,-0.477 0.382,-0.476 0.401,-0.476C0.43,-0.476 0.453,-0.477 0.47,-0.479C0.487,-0.48 0.502,-0.482 0.513,-0.485C0.524,-0.488 0.531,-0.49 0.534,-0.491C0.535,-0.491 0.536,-0.49 0.538,-0.488C0.54,-0.486 0.541,-0.484 0.541,-0.481C0.541,-0.48 0.536,-0.476 0.527,-0.471C0.517,-0.466 0.507,-0.46 0.497,-0.454C0.491,-0.451 0.484,-0.446 0.476,-0.441C0.467,-0.436 0.458,-0.431 0.449,-0.426C0.439,-0.42 0.429,-0.416 0.418,-0.412C0.407,-0.408 0.397,-0.406 0.387,-0.405C0.377,-0.404 0.365,-0.403 0.352,-0.402C0.339,-0.401 0.325,-0.401 0.31,-0.401C0.295,-0.4 0.281,-0.4 0.266,-0.4C0.251,-0.399 0.237,-0.399 0.224,-0.399C0.222,-0.396 0.219,-0.39 0.215,-0.383C0.21,-0.375 0.206,-0.365 0.202,-0.353C0.198,-0.341 0.194,-0.327 0.191,-0.312C0.188,-0.297 0.186,-0.28 0.186,-0.262C0.186,-0.235 0.19,-0.21 0.199,-0.187C0.207,-0.164 0.219,-0.144 0.234,-0.127C0.249,-0.11 0.266,-0.097 0.287,-0.088C0.308,-0.079 0.33,-0.074 0.354,-0.074C0.368,-0.074 0.382,-0.076 0.395,-0.079C0.408,-0.082 0.42,-0.087 0.432,-0.092C0.443,-0.097 0.454,-0.103 0.464,-0.11C0.474,-0.116 0.483,-0.122 0.49,-0.128L0.502,-0.139Z" style="fill-rule:nonzero;"/>
            </g>
        </g>
        <g transform="matrix(0.0219124,0,0,0.0248558,-13.0379,285.934)">
            <g transform="matrix(55.8954,0,0,49.2765,-878.032,-330.791)">
                <path d="M27.733,13.757C27.957,11.616 28.949,10 30.136,10C31.489,10 32.587,12.095 32.587,14.677C32.587,15.669 32.424,16.59 32.148,17.347C32.432,17.974 32.587,18.65 32.587,19.353C32.587,22.678 29.128,25.378 24.868,25.378C20.609,25.378 17.15,22.678 17.15,19.353C17.15,18.65 17.305,17.974 17.589,17.347C17.313,16.59 17.15,15.669 17.15,14.677C17.15,12.095 18.248,10 19.601,10C20.788,10 21.779,11.616 22.003,13.757L22.04,13.746C22.915,13.476 23.87,13.328 24.868,13.328C25.881,13.328 26.847,13.48 27.733,13.757ZM17.609,17.304L17.606,17.31L17.609,17.304ZM32.128,17.305L32.131,17.31L32.128,17.305ZM17.627,17.265L17.623,17.273L17.627,17.265ZM32.11,17.266L32.113,17.273L32.11,17.266ZM17.645,17.227L17.641,17.236L17.645,17.227ZM32.092,17.228L32.096,17.236L32.092,17.228ZM17.663,17.19L17.659,17.2L17.663,17.19ZM32.074,17.191L32.078,17.199L32.074,17.191ZM17.682,17.153L17.677,17.162L17.682,17.153ZM32.055,17.154L32.059,17.161L32.055,17.154ZM17.7,17.117L17.696,17.125L17.7,17.117ZM32.037,17.117L32.04,17.123L32.037,17.117ZM17.719,17.081L17.717,17.085L17.719,17.081ZM32.018,17.081L32.019,17.082L32.018,17.081ZM17.782,16.964L17.778,16.971L17.782,16.964ZM31.957,16.968L31.958,16.97L31.957,16.968ZM17.804,16.925L17.798,16.935L17.804,16.925ZM31.935,16.928L31.938,16.934L31.935,16.928ZM17.825,16.888L17.818,16.9L17.825,16.888ZM31.914,16.891L31.918,16.899L31.914,16.891ZM17.845,16.852L17.838,16.865L17.845,16.852ZM31.893,16.854L31.898,16.863L31.893,16.854ZM17.866,16.817L17.859,16.829L17.866,16.817ZM31.871,16.819L31.876,16.827L31.871,16.819ZM17.888,16.782L17.88,16.794L17.888,16.782ZM31.85,16.783L31.855,16.791L31.85,16.783ZM17.909,16.747L17.902,16.758L17.909,16.747ZM31.829,16.748L31.832,16.754L31.829,16.748ZM17.931,16.712L17.925,16.72L17.931,16.712ZM31.807,16.713L31.808,16.714L31.807,16.713ZM17.979,16.635L17.975,16.642L17.979,16.635ZM18.005,16.596L17.998,16.608L18.005,16.596ZM31.735,16.602L31.738,16.606L31.735,16.602ZM18.029,16.561L18.02,16.573L18.029,16.561ZM31.711,16.564L31.716,16.572L31.711,16.564ZM18.052,16.526L18.043,16.539L18.052,16.526ZM31.686,16.529L31.692,16.537L31.686,16.529ZM18.076,16.492L18.066,16.505L18.076,16.492ZM31.663,16.494L31.669,16.503L31.663,16.494ZM18.1,16.458L18.09,16.471L18.1,16.458ZM31.639,16.459L31.645,16.469L31.639,16.459ZM18.124,16.424L18.114,16.437L18.124,16.424ZM31.614,16.425L31.62,16.434L31.614,16.425ZM18.148,16.39L18.139,16.403L18.148,16.39ZM31.59,16.392L31.595,16.398L31.59,16.392ZM18.172,16.357L18.164,16.367L18.172,16.357ZM31.566,16.358L31.567,16.36L31.566,16.358ZM18.197,16.324L18.196,16.324L18.197,16.324ZM18.23,16.28L18.222,16.291L18.23,16.28ZM31.513,16.288L31.514,16.289L31.513,16.288ZM18.257,16.245L18.247,16.258L18.257,16.245ZM31.484,16.249L31.489,16.256L31.484,16.249ZM18.283,16.211L18.272,16.225L18.283,16.211ZM31.456,16.214L31.463,16.223L31.456,16.214ZM18.309,16.178L18.298,16.192L18.309,16.178ZM31.43,16.18L31.438,16.19L31.43,16.18ZM18.335,16.145L18.324,16.16L18.335,16.145ZM31.403,16.147L31.411,16.158L31.403,16.147ZM18.362,16.113L18.35,16.127L18.362,16.113ZM31.376,16.114L31.385,16.125L31.376,16.114ZM18.388,16.081L18.377,16.094L18.388,16.081ZM31.35,16.082L31.357,16.091L31.35,16.082ZM18.415,16.049L18.404,16.061L18.415,16.049ZM31.323,16.05L31.329,16.057L31.323,16.05ZM18.442,16.017L18.433,16.027L18.442,16.017ZM31.295,16.018L31.298,16.021L31.295,16.018ZM18.473,15.981L18.469,15.985L18.473,15.981ZM18.507,15.942L18.497,15.954L18.507,15.942ZM31.234,15.947L31.239,15.953L31.234,15.947ZM18.536,15.909L18.525,15.922L18.536,15.909ZM31.203,15.912L31.211,15.921L31.203,15.912ZM18.565,15.877L18.553,15.891L18.565,15.877ZM31.174,15.879L31.183,15.89L31.174,15.879ZM18.594,15.846L18.581,15.86L18.594,15.846ZM31.145,15.847L31.155,15.859L31.145,15.847ZM18.622,15.815L18.61,15.828L18.622,15.815ZM31.115,15.816L31.126,15.827L31.115,15.816ZM18.651,15.784L18.639,15.797L18.651,15.784ZM31.086,15.785L31.097,15.796L31.086,15.785ZM18.68,15.753L18.668,15.766L18.68,15.753ZM31.057,15.754L31.067,15.765L31.057,15.754ZM18.71,15.723L18.698,15.735L18.71,15.723ZM31.027,15.723L31.037,15.733L31.027,15.723ZM18.739,15.692L18.73,15.702L18.739,15.692ZM30.998,15.693L31.003,15.698L30.998,15.693ZM18.775,15.656L18.769,15.662L18.775,15.656ZM30.965,15.659L30.967,15.662L30.965,15.659ZM18.81,15.621L18.799,15.632L18.81,15.621ZM30.928,15.622L30.937,15.632L30.928,15.622ZM18.842,15.59L18.83,15.602L18.842,15.59ZM30.895,15.591L30.907,15.602L30.895,15.591ZM18.873,15.56L18.86,15.572L18.873,15.56ZM30.864,15.56L30.876,15.572L30.864,15.56ZM18.904,15.53L18.891,15.543L18.904,15.53ZM30.832,15.53L30.846,15.543L30.832,15.53ZM30.801,15.5L30.814,15.513L30.801,15.5ZM18.936,15.501L18.923,15.513L18.936,15.501ZM30.769,15.471L30.783,15.484L30.769,15.471ZM18.967,15.471L18.954,15.483L18.967,15.471ZM30.738,15.442L30.751,15.454L30.738,15.442ZM18.999,15.442L18.986,15.454L18.999,15.442ZM30.706,15.413L30.719,15.425L30.706,15.413ZM19.031,15.413L19.019,15.424L19.031,15.413ZM30.674,15.384L30.684,15.394L30.674,15.384ZM19.063,15.385L19.056,15.391L19.063,15.385ZM30.63,15.346L30.642,15.356L30.63,15.346ZM19.101,15.35L19.095,15.356L19.101,15.35ZM30.595,15.315L30.61,15.328L30.595,15.315ZM19.139,15.318L19.128,15.327L19.139,15.318ZM30.561,15.286L30.577,15.3L30.561,15.286ZM19.173,15.288L19.161,15.299L19.173,15.288ZM30.528,15.258L30.544,15.272L30.528,15.258ZM19.207,15.26L19.194,15.271L19.207,15.26ZM30.494,15.23L30.511,15.244L30.494,15.23ZM19.241,15.231L19.227,15.243L19.241,15.231ZM30.461,15.202L30.478,15.216L30.461,15.202ZM19.274,15.204L19.261,15.215L19.274,15.204ZM30.427,15.175L30.444,15.189L30.427,15.175ZM19.308,15.176L19.295,15.187L19.308,15.176ZM30.393,15.147L30.41,15.161L30.393,15.147ZM19.342,15.149L19.33,15.158L19.342,15.149ZM30.359,15.12L30.376,15.134L30.359,15.12ZM19.377,15.121L19.366,15.129L19.377,15.121ZM30.325,15.093L30.343,15.107L30.326,15.094L30.305,15.078L30.325,15.093ZM19.411,15.094L19.409,15.096L19.411,15.094ZM30.273,15.053L30.292,15.068L30.273,15.053ZM19.452,15.062L19.446,15.067L19.452,15.062ZM30.238,15.027L30.257,15.041L30.238,15.027ZM19.492,15.032L19.481,15.04L19.492,15.032ZM30.203,15L30.222,15.015L30.203,15ZM19.529,15.004L19.516,15.013L19.529,15.004ZM30.168,14.974L30.187,14.989L30.168,14.974ZM19.565,14.977L19.552,14.987L19.565,14.977ZM30.132,14.948L30.152,14.963L30.132,14.948ZM19.601,14.951L19.588,14.961L19.601,14.951ZM30.097,14.922L30.117,14.937L30.097,14.922ZM19.637,14.925L19.624,14.934L19.637,14.925ZM30.061,14.897L30.081,14.911L30.061,14.897ZM19.673,14.899L19.661,14.908L19.673,14.899ZM30.025,14.871L30.046,14.886L30.025,14.871ZM19.71,14.873L19.698,14.881L19.71,14.873ZM29.988,14.846L30.011,14.862L29.988,14.846ZM19.746,14.848L19.738,14.853L19.746,14.848ZM29.954,14.822L29.915,14.796C29.928,14.805 29.941,14.813 29.954,14.822ZM19.826,14.793L19.821,14.796L19.826,14.793ZM29.858,14.758L29.881,14.773L29.858,14.758ZM19.868,14.765L19.858,14.771L19.868,14.765ZM29.822,14.734L29.845,14.749L29.822,14.734ZM19.907,14.739L19.896,14.747L19.907,14.739ZM29.785,14.71L29.807,14.724L29.785,14.71ZM19.946,14.714L19.933,14.722L19.946,14.714ZM29.747,14.686L29.77,14.7L29.747,14.686ZM19.984,14.689L19.971,14.697L19.984,14.689ZM29.71,14.662L29.733,14.676L29.71,14.662ZM20.023,14.665L20.01,14.673L20.023,14.665ZM29.672,14.638L29.696,14.653L29.672,14.638ZM20.061,14.641L20.049,14.648L20.061,14.641ZM29.634,14.615L29.659,14.63L29.634,14.615ZM20.099,14.617L20.09,14.623L20.099,14.617ZM29.494,14.531C29.537,14.556 29.58,14.582 29.623,14.608C29.581,14.582 29.538,14.556 29.494,14.531ZM20.138,14.593L20.134,14.596L20.138,14.593ZM20.221,14.543L20.218,14.545L20.221,14.543ZM29.458,14.51L29.483,14.525L29.458,14.51ZM20.266,14.517L20.257,14.522L20.266,14.517ZM29.42,14.488L29.444,14.502L29.42,14.488ZM20.308,14.493L20.297,14.499L20.308,14.493ZM29.381,14.466L29.405,14.48L29.381,14.466ZM20.349,14.47L20.337,14.477L20.349,14.47ZM29.341,14.444L29.366,14.457L29.341,14.444ZM20.389,14.447L20.377,14.454L20.389,14.447ZM29.302,14.422L29.327,14.436L29.302,14.422ZM20.43,14.425L20.418,14.431L20.43,14.425ZM29.262,14.4L29.288,14.414L29.262,14.4ZM20.47,14.403L20.46,14.408L20.47,14.403ZM29.222,14.379L29.249,14.393L29.222,14.379ZM20.51,14.381L20.503,14.385L20.51,14.381ZM29.186,14.359L29.143,14.337C29.157,14.344 29.171,14.352 29.186,14.359ZM29.077,14.303L29.105,14.317L29.077,14.303ZM20.638,14.314L20.636,14.315L20.638,14.314ZM29.038,14.283L29.064,14.296L29.038,14.283ZM20.685,14.29L20.677,14.294L20.685,14.29ZM28.998,14.263L29.023,14.276L28.998,14.263ZM20.729,14.268L20.719,14.273L20.729,14.268ZM28.957,14.243L28.982,14.255L28.957,14.243ZM20.772,14.247L20.761,14.252L20.772,14.247ZM28.916,14.223L28.941,14.235L28.916,14.223ZM20.814,14.226L20.803,14.232L20.814,14.226ZM28.875,14.203L28.899,14.215L28.875,14.203ZM20.857,14.206L20.846,14.211L20.857,14.206ZM28.833,14.184L28.858,14.195L28.833,14.184ZM20.899,14.186L20.891,14.19L20.899,14.186ZM28.791,14.164L28.817,14.176L28.791,14.164ZM20.942,14.166L20.937,14.168L20.942,14.166ZM28.752,14.146L28.707,14.126C28.722,14.133 28.737,14.139 28.752,14.146ZM28.643,14.097L28.667,14.108L28.643,14.097ZM21.075,14.106L21.074,14.106L21.075,14.106ZM28.601,14.079L28.624,14.089L28.601,14.079ZM21.124,14.084L21.117,14.087L21.124,14.084ZM28.558,14.061L28.581,14.071L28.558,14.061ZM21.17,14.065L21.161,14.068L21.17,14.065ZM28.516,14.043L28.538,14.052L28.516,14.043ZM21.215,14.046L21.204,14.05L21.215,14.046ZM28.473,14.025L28.494,14.034L28.473,14.025ZM21.259,14.027L21.249,14.031L21.259,14.027ZM28.429,14.007L28.451,14.016L28.429,14.007ZM21.303,14.009L21.294,14.013L21.303,14.009ZM28.386,13.989L28.406,13.998L28.386,13.989ZM21.347,13.991L21.341,13.994L21.347,13.991ZM28.342,13.972L28.361,13.979L28.342,13.972ZM21.392,13.973L21.391,13.974L21.392,13.973ZM28.298,13.955L28.311,13.96L28.298,13.955ZM28.243,13.934L28.254,13.938L28.243,13.934ZM28.195,13.915L28.21,13.921L28.195,13.915ZM21.531,13.92L21.53,13.92L21.531,13.92ZM28.149,13.898L28.165,13.904L28.149,13.898ZM21.581,13.901L21.575,13.903L21.581,13.901ZM28.103,13.882L28.119,13.888L28.103,13.882ZM21.629,13.884L21.62,13.887L21.629,13.884ZM28.058,13.866L28.074,13.871L28.058,13.866ZM21.675,13.867L21.666,13.87L21.675,13.867ZM28.013,13.85L28.028,13.855L28.013,13.85ZM21.721,13.851L21.713,13.854L21.721,13.851ZM27.968,13.834L27.981,13.839L27.968,13.834ZM21.767,13.835L21.76,13.837L21.767,13.835ZM27.922,13.819L27.932,13.822L27.922,13.819ZM21.813,13.819L21.809,13.821L21.813,13.819ZM27.877,13.803L27.879,13.804L27.877,13.803Z" style="fill:none;stroke:black;stroke-width:1.22px;"/>
            </g>
            <g transform="matrix(55.8954,0,0,49.2765,-878.032,-330.791)">
                <path d="M25.128,19.358C24.963,19.04 24.868,18.67 24.868,18.275C24.868,17.096 25.713,16.138 26.753,16.138C27.793,16.138 28.637,17.096 28.637,18.275C28.637,19.031 28.291,19.696 27.768,20.076C27.128,19.668 26.188,19.396 25.128,19.358ZM21.969,20.076C21.446,19.696 21.099,19.031 21.099,18.275C21.099,17.096 21.944,16.138 22.984,16.138C24.024,16.138 24.868,17.096 24.868,18.275C24.868,18.67 24.774,19.04 24.609,19.358C23.549,19.396 22.609,19.668 21.969,20.076Z" style="fill:none;stroke:black;stroke-width:1.22px;"/>
            </g>
            <g transform="matrix(1,0,0,1,-53.1856,50.0357)">
                <ellipse cx="565.186" cy="671.455" rx="210.672" ry="98.631" style="fill:none;stroke:black;stroke-width:63.81px;"/>
            </g>
            <g transform="matrix(51.2,0,0,45.1371,0.670978,88.9676)">
                <path d="M12.057,13.791C12.057,13.668 11.958,13.568 11.835,13.568L8.139,13.568C8.016,13.568 7.916,13.668 7.916,13.791L7.916,14.236C7.916,14.359 8.016,14.458 8.139,14.458L11.835,14.458C11.958,14.458 12.057,14.359 12.057,14.236L12.057,13.791Z"/>
            </g>
        </g>
    </g>
</svg>
