<?xml version="1.0" encoding="UTF-8" standalone="no"?>
<!DOCTYPE svg PUBLIC "-//W3C//DTD SVG 1.1//EN" "http://www.w3.org/Graphics/SVG/1.1/DTD/svg11.dtd">
<svg width="100%" height="100%" viewBox="0 0 60 380" version="1.1" xmlns="http://www.w3.org/2000/svg" xmlns:xlink="http://www.w3.org/1999/xlink" xml:space="preserve" xmlns:serif="http://www.serif.com/" style="fill-rule:evenodd;clip-rule:evenodd;stroke-linecap:round;stroke-linejoin:round;stroke-miterlimit:1.5;">
    <g transform="matrix(0.28834,0,0,2.01589,-15.1541,-120.797)">
        <rect x="52.556" y="59.922" width="208.087" height="188.503" style="fill:rgb(154,178,191);stroke:rgb(5,5,5);stroke-width:1.39px;"/>
    </g>
    <g id="Output">
        <g id="Out-output" serif:id="Out#output" transform="matrix(0.175002,0,0,0.175002,6.38716,298.034)">
            <rect x="53.94" y="106.916" width="161.978" height="161.978" style="fill:rgb(77,77,77);"/>
        </g>
        <g transform="matrix(1,0,0,1,-7.10543e-15,42.7614)">
            <g id="Range-switch" serif:id="Range#switch" transform="matrix(1,0,0,0.7555,-44.0428,206.351)">
                <rect x="68.086" y="48.482" width="11.914" height="25.893" style="fill:rgb(204,51,51);"/>
            </g>
            <g transform="matrix(1,0,0,1,-63.7779,143.216)">
                <path d="M107.648,113.236L107.648,118.306L106.628,118.306L106.628,117.816L106.608,117.816C106.501,117.976 106.373,118.108 106.223,118.211C106.073,118.315 105.881,118.366 105.648,118.366C105.521,118.366 105.395,118.345 105.268,118.301C105.141,118.258 105.028,118.186 104.928,118.086C104.828,117.986 104.748,117.858 104.688,117.701C104.628,117.545 104.598,117.353 104.598,117.126L104.598,113.236L105.618,113.236L105.618,116.746C105.618,116.933 105.661,117.08 105.748,117.186C105.835,117.293 105.958,117.346 106.118,117.346C106.311,117.346 106.445,117.286 106.518,117.166C106.591,117.046 106.628,116.873 106.628,116.646L106.628,113.236L107.648,113.236Z" style="fill-rule:nonzero;"/>
                <path d="M108.488,118.306L108.488,113.236L109.508,113.236L109.508,113.726L109.528,113.726C109.635,113.566 109.763,113.435 109.913,113.331C110.063,113.228 110.255,113.176 110.488,113.176C110.615,113.176 110.741,113.198 110.868,113.241C110.995,113.285 111.108,113.356 111.208,113.456C111.308,113.556 111.388,113.685 111.448,113.841C111.508,113.998 111.538,114.19 111.538,114.416L111.538,118.306L110.518,118.306L110.518,114.796C110.518,114.61 110.475,114.463 110.388,114.356C110.301,114.25 110.178,114.196 110.018,114.196C109.825,114.196 109.691,114.256 109.618,114.376C109.545,114.496 109.508,114.67 109.508,114.896L109.508,118.306L108.488,118.306Z" style="fill-rule:nonzero;"/>
                <path d="M112.378,118.306L112.378,113.236L113.398,113.236L113.398,118.306L112.378,118.306ZM112.378,112.206L112.378,111.186L113.398,111.186L113.398,112.206L112.378,112.206Z" style="fill-rule:nonzero;"/>
            </g>
            <g transform="matrix(1,0,0,1,-63.7779,143.216)">
                <text x="104.178px" y="118.306px" style="font-family:'DINCondensed-Bold', 'DIN Condensed';font-weight:700;font-stretch:condensed;font-size:10px;">uni</text>
            </g>
            <g transform="matrix(1,0,0,1,-94.0379,132.043)">
                <path d="M104.538,118.306L104.538,114.036L104.038,114.036L104.038,113.236L104.538,113.236L104.538,112.546C104.538,112.3 104.575,112.091 104.648,111.921C104.721,111.751 104.821,111.61 104.948,111.496C105.068,111.383 105.206,111.303 105.363,111.256C105.52,111.21 105.681,111.186 105.848,111.186L106.318,111.186L106.318,112.146L105.858,112.146C105.658,112.146 105.558,112.263 105.558,112.496L105.558,113.236L106.318,113.236L106.318,114.036L105.558,114.036L105.558,118.306L104.538,118.306Z" style="fill-rule:nonzero;"/>
                <path d="M109.678,113.236L109.678,118.306L108.658,118.306L108.658,117.816L108.638,117.816C108.531,117.976 108.403,118.108 108.253,118.211C108.103,118.315 107.911,118.366 107.678,118.366C107.551,118.366 107.425,118.345 107.298,118.301C107.171,118.258 107.058,118.186 106.958,118.086C106.858,117.986 106.778,117.858 106.718,117.701C106.658,117.545 106.628,117.353 106.628,117.126L106.628,113.236L107.648,113.236L107.648,116.746C107.648,116.933 107.691,117.08 107.778,117.186C107.865,117.293 107.988,117.346 108.148,117.346C108.341,117.346 108.475,117.286 108.548,117.166C108.621,117.046 108.658,116.873 108.658,116.646L108.658,113.236L109.678,113.236Z" style="fill-rule:nonzero;"/>
                <path d="M110.458,111.186L111.478,111.186L111.478,116.876C111.478,117.07 111.513,117.201 111.583,117.271C111.653,117.341 111.785,117.386 111.978,117.406L111.978,118.366C111.745,118.366 111.535,118.348 111.348,118.311C111.161,118.275 111.001,118.203 110.868,118.096C110.735,117.996 110.633,117.855 110.563,117.671C110.493,117.488 110.458,117.246 110.458,116.946L110.458,111.186Z" style="fill-rule:nonzero;"/>
                <path d="M112.318,111.186L113.338,111.186L113.338,116.876C113.338,117.07 113.373,117.201 113.443,117.271C113.513,117.341 113.645,117.386 113.838,117.406L113.838,118.366C113.605,118.366 113.395,118.348 113.208,118.311C113.021,118.275 112.861,118.203 112.728,118.096C112.595,117.996 112.493,117.855 112.423,117.671C112.353,117.488 112.318,117.246 112.318,116.946L112.318,111.186Z" style="fill-rule:nonzero;"/>
            </g>
            <g transform="matrix(1,0,0,1,-94.0379,132.043)">
                <text x="103.988px" y="118.306px" style="font-family:'DINCondensed-Bold', 'DIN Condensed';font-weight:700;font-stretch:condensed;font-size:10px;">full</text>
            </g>
        </g>
        <g transform="matrix(1,0,0,1,0,27)">
            <g transform="matrix(1,0,0,1,29.6448,247.764)">
                <path d="M-10.63,0L-10.63,-6.04L-11.65,-5.29L-11.65,-6.37L-10.63,-7.12L-9.61,-7.12L-9.61,0L-10.63,0Z" style="fill:rgb(5,5,5);fill-rule:nonzero;"/>
                <path d="M-8.12,-5.65C-8.12,-5.89 -8.078,-6.103 -7.995,-6.29C-7.912,-6.477 -7.8,-6.637 -7.66,-6.77C-7.52,-6.903 -7.358,-7.005 -7.175,-7.075C-6.992,-7.145 -6.8,-7.18 -6.6,-7.18C-6.4,-7.18 -6.208,-7.145 -6.025,-7.075C-5.842,-7.005 -5.68,-6.903 -5.54,-6.77C-5.4,-6.637 -5.288,-6.477 -5.205,-6.29C-5.122,-6.103 -5.08,-5.89 -5.08,-5.65L-5.08,-1.47C-5.08,-1.23 -5.122,-1.017 -5.205,-0.83C-5.288,-0.643 -5.4,-0.483 -5.54,-0.35C-5.68,-0.217 -5.842,-0.115 -6.025,-0.045C-6.208,0.025 -6.4,0.06 -6.6,0.06C-6.8,0.06 -6.992,0.025 -7.175,-0.045C-7.358,-0.115 -7.52,-0.217 -7.66,-0.35C-7.8,-0.483 -7.912,-0.643 -7.995,-0.83C-8.078,-1.017 -8.12,-1.23 -8.12,-1.47L-8.12,-5.65ZM-7.1,-1.47C-7.1,-1.323 -7.053,-1.202 -6.96,-1.105C-6.867,-1.008 -6.747,-0.96 -6.6,-0.96C-6.453,-0.96 -6.333,-1.008 -6.24,-1.105C-6.147,-1.202 -6.1,-1.323 -6.1,-1.47L-6.1,-5.65C-6.1,-5.797 -6.147,-5.918 -6.24,-6.015C-6.333,-6.112 -6.453,-6.16 -6.6,-6.16C-6.747,-6.16 -6.867,-6.112 -6.96,-6.015C-7.053,-5.918 -7.1,-5.797 -7.1,-5.65L-7.1,-1.47Z" style="fill:rgb(5,5,5);fill-rule:nonzero;"/>
                <path d="M10.36,-7.12L8.9,0L8,0L6.55,-7.12L7.63,-7.12L8.44,-2.15L8.46,-2.15L9.28,-7.12L10.36,-7.12Z" style="fill:rgb(5,5,5);fill-rule:nonzero;"/>
            </g>
            <g transform="matrix(1,0,0,1,29.6448,247.764)">
                <text x="-12.18px" y="0px" style="font-family:'DINCondensed-Bold', 'DIN Condensed';font-weight:700;font-stretch:condensed;font-size:10px;fill:rgb(5,5,5);">10      V</text>
            </g>
            <g id="_10V-led" serif:id="10V#led" transform="matrix(1,0,0,1,-12.167,-91.6266)">
                <circle cx="42.167" cy="335.861" r="3.82" style="fill:rgb(230,230,230);"/>
            </g>
        </g>
        <g transform="matrix(1,0,0,1,0,13.5)">
            <g transform="matrix(1,0,0,1,29.6448,247.764)">
                <path d="M-6.1,-5.66C-6.1,-5.8 -6.15,-5.918 -6.25,-6.015C-6.35,-6.112 -6.467,-6.16 -6.6,-6.16C-6.733,-6.16 -6.85,-6.112 -6.95,-6.015C-7.05,-5.918 -7.1,-5.8 -7.1,-5.66L-7.1,-4.62C-7.1,-4.48 -7.05,-4.362 -6.95,-4.265C-6.85,-4.168 -6.733,-4.12 -6.6,-4.12C-6.467,-4.12 -6.35,-4.168 -6.25,-4.265C-6.15,-4.362 -6.1,-4.48 -6.1,-4.62L-6.1,-5.66ZM-8.12,-5.26C-8.12,-5.453 -8.113,-5.618 -8.1,-5.755C-8.087,-5.892 -8.063,-6.01 -8.03,-6.11C-7.997,-6.21 -7.958,-6.3 -7.915,-6.38C-7.872,-6.46 -7.817,-6.543 -7.75,-6.63C-7.617,-6.803 -7.45,-6.938 -7.25,-7.035C-7.05,-7.132 -6.833,-7.18 -6.6,-7.18C-6.367,-7.18 -6.15,-7.132 -5.95,-7.035C-5.75,-6.938 -5.583,-6.803 -5.45,-6.63C-5.383,-6.543 -5.327,-6.46 -5.28,-6.38C-5.233,-6.3 -5.193,-6.21 -5.16,-6.11C-5.127,-6.01 -5.105,-5.892 -5.095,-5.755C-5.085,-5.618 -5.08,-5.453 -5.08,-5.26C-5.08,-5.047 -5.083,-4.867 -5.09,-4.72C-5.097,-4.573 -5.117,-4.443 -5.15,-4.33C-5.183,-4.217 -5.235,-4.115 -5.305,-4.025C-5.375,-3.935 -5.47,-3.84 -5.59,-3.74C-5.47,-3.647 -5.375,-3.553 -5.305,-3.46C-5.235,-3.367 -5.183,-3.257 -5.15,-3.13C-5.117,-3.003 -5.097,-2.848 -5.09,-2.665C-5.083,-2.482 -5.08,-2.257 -5.08,-1.99C-5.08,-1.77 -5.085,-1.588 -5.095,-1.445C-5.105,-1.302 -5.12,-1.177 -5.14,-1.07C-5.16,-0.963 -5.188,-0.873 -5.225,-0.8C-5.262,-0.727 -5.307,-0.65 -5.36,-0.57C-5.473,-0.397 -5.633,-0.248 -5.84,-0.125C-6.047,-0.002 -6.3,0.06 -6.6,0.06C-6.9,0.06 -7.153,-0.002 -7.36,-0.125C-7.567,-0.248 -7.727,-0.397 -7.84,-0.57C-7.893,-0.65 -7.938,-0.727 -7.975,-0.8C-8.012,-0.873 -8.04,-0.963 -8.06,-1.07C-8.08,-1.177 -8.095,-1.302 -8.105,-1.445C-8.115,-1.588 -8.12,-1.77 -8.12,-1.99C-8.12,-2.257 -8.117,-2.482 -8.11,-2.665C-8.103,-2.848 -8.083,-3.003 -8.05,-3.13C-8.017,-3.257 -7.965,-3.367 -7.895,-3.46C-7.825,-3.553 -7.73,-3.647 -7.61,-3.74C-7.73,-3.84 -7.825,-3.935 -7.895,-4.025C-7.965,-4.115 -8.017,-4.217 -8.05,-4.33C-8.083,-4.443 -8.103,-4.573 -8.11,-4.72C-8.117,-4.867 -8.12,-5.047 -8.12,-5.26ZM-6.1,-2.86C-6.1,-3 -6.15,-3.118 -6.25,-3.215C-6.35,-3.312 -6.467,-3.36 -6.6,-3.36C-6.733,-3.36 -6.85,-3.312 -6.95,-3.215C-7.05,-3.118 -7.1,-3 -7.1,-2.86L-7.1,-1.46C-7.1,-1.32 -7.05,-1.202 -6.95,-1.105C-6.85,-1.008 -6.733,-0.96 -6.6,-0.96C-6.467,-0.96 -6.35,-1.008 -6.25,-1.105C-6.15,-1.202 -6.1,-1.32 -6.1,-1.46L-6.1,-2.86Z" style="fill:rgb(5,5,5);fill-rule:nonzero;"/>
                <path d="M10.36,-7.12L8.9,0L8,0L6.55,-7.12L7.63,-7.12L8.44,-2.15L8.46,-2.15L9.28,-7.12L10.36,-7.12Z" style="fill:rgb(5,5,5);fill-rule:nonzero;"/>
            </g>
            <g transform="matrix(1,0,0,1,29.6448,247.764)">
                <text x="-8.46px" y="0px" style="font-family:'DINCondensed-Bold', 'DIN Condensed';font-weight:700;font-stretch:condensed;font-size:10px;fill:rgb(5,5,5);">8      V</text>
            </g>
            <g id="_8V-led" serif:id="8V#led" transform="matrix(1,0,0,1,-12.167,-91.6266)">
                <circle cx="42.167" cy="335.861" r="3.82" style="fill:rgb(230,230,230);"/>
            </g>
        </g>
        <g>
            <g transform="matrix(1,0,0,1,29.6448,247.764)">
                <path d="M-5.08,-7.12L-5.08,-6.16L-7.1,-6.16L-7.1,-4.24C-7.007,-4.333 -6.887,-4.412 -6.74,-4.475C-6.593,-4.538 -6.43,-4.57 -6.25,-4.57C-5.903,-4.57 -5.622,-4.465 -5.405,-4.255C-5.188,-4.045 -5.08,-3.73 -5.08,-3.31L-5.08,-1.47C-5.08,-1.23 -5.122,-1.017 -5.205,-0.83C-5.288,-0.643 -5.4,-0.483 -5.54,-0.35C-5.68,-0.217 -5.842,-0.115 -6.025,-0.045C-6.208,0.025 -6.4,0.06 -6.6,0.06C-6.8,0.06 -6.992,0.025 -7.175,-0.045C-7.358,-0.115 -7.52,-0.217 -7.66,-0.35C-7.8,-0.483 -7.912,-0.643 -7.995,-0.83C-8.078,-1.017 -8.12,-1.23 -8.12,-1.47L-8.12,-1.77L-7.1,-1.77L-7.1,-1.51C-7.1,-1.337 -7.052,-1.202 -6.955,-1.105C-6.858,-1.008 -6.733,-0.96 -6.58,-0.96C-6.427,-0.96 -6.308,-1.007 -6.225,-1.1C-6.142,-1.193 -6.1,-1.323 -6.1,-1.49L-6.1,-3.16C-6.1,-3.3 -6.145,-3.42 -6.235,-3.52C-6.325,-3.62 -6.44,-3.67 -6.58,-3.67C-6.667,-3.67 -6.74,-3.655 -6.8,-3.625C-6.86,-3.595 -6.91,-3.56 -6.95,-3.52C-6.99,-3.48 -7.02,-3.437 -7.04,-3.39C-7.073,-3.33 -7.093,-3.293 -7.1,-3.28L-8,-3.28L-8,-7.12L-5.08,-7.12Z" style="fill:rgb(5,5,5);fill-rule:nonzero;"/>
                <path d="M10.36,-7.12L8.9,0L8,0L6.55,-7.12L7.63,-7.12L8.44,-2.15L8.46,-2.15L9.28,-7.12L10.36,-7.12Z" style="fill:rgb(5,5,5);fill-rule:nonzero;"/>
            </g>
            <g transform="matrix(1,0,0,1,29.6448,247.764)">
                <text x="-8.46px" y="0px" style="font-family:'DINCondensed-Bold', 'DIN Condensed';font-weight:700;font-stretch:condensed;font-size:10px;fill:rgb(5,5,5);">5      V</text>
            </g>
            <g id="_5V-led" serif:id="5V#led" transform="matrix(1,0,0,1,-12.167,-91.6266)">
                <circle cx="42.167" cy="335.861" r="3.82" style="fill:rgb(230,230,230);"/>
            </g>
        </g>
        <g id="Max-button" serif:id="Max#button" transform="matrix(0.758898,0,0,0.758898,-12.2412,-5.42023)">
            <circle cx="55.661" cy="308.513" r="7.929"/>
        </g>
        <g transform="matrix(1,0,0,1,25.1894,214.161)">
            <path d="M-4.66,-3.37C-4.66,-3.577 -4.647,-3.767 -4.62,-3.94C-4.593,-4.113 -4.543,-4.267 -4.47,-4.4C-4.35,-4.62 -4.178,-4.797 -3.955,-4.93C-3.732,-5.063 -3.46,-5.13 -3.14,-5.13C-2.82,-5.13 -2.548,-5.063 -2.325,-4.93C-2.102,-4.797 -1.93,-4.62 -1.81,-4.4C-1.737,-4.267 -1.687,-4.113 -1.66,-3.94C-1.633,-3.767 -1.62,-3.577 -1.62,-3.37L-1.62,-1.7C-1.62,-1.493 -1.633,-1.303 -1.66,-1.13C-1.687,-0.957 -1.737,-0.803 -1.81,-0.67C-1.93,-0.45 -2.102,-0.273 -2.325,-0.14C-2.548,-0.007 -2.82,0.06 -3.14,0.06C-3.46,0.06 -3.732,-0.007 -3.955,-0.14C-4.178,-0.273 -4.35,-0.45 -4.47,-0.67C-4.543,-0.803 -4.593,-0.957 -4.62,-1.13C-4.647,-1.303 -4.66,-1.493 -4.66,-1.7L-4.66,-3.37ZM-3.64,-1.54C-3.64,-1.347 -3.595,-1.202 -3.505,-1.105C-3.415,-1.008 -3.293,-0.96 -3.14,-0.96C-2.987,-0.96 -2.865,-1.008 -2.775,-1.105C-2.685,-1.202 -2.64,-1.347 -2.64,-1.54L-2.64,-3.53C-2.64,-3.723 -2.685,-3.868 -2.775,-3.965C-2.865,-4.062 -2.987,-4.11 -3.14,-4.11C-3.293,-4.11 -3.415,-4.062 -3.505,-3.965C-3.595,-3.868 -3.64,-3.723 -3.64,-3.53L-3.64,-1.54Z" style="fill:rgb(5,5,5);fill-rule:nonzero;"/>
            <path d="M2.18,-5.07L2.18,0L1.16,0L1.16,-0.49L1.14,-0.49C1.033,-0.33 0.905,-0.198 0.755,-0.095C0.605,0.008 0.413,0.06 0.18,0.06C0.053,0.06 -0.073,0.038 -0.2,-0.005C-0.327,-0.048 -0.44,-0.12 -0.54,-0.22C-0.64,-0.32 -0.72,-0.448 -0.78,-0.605C-0.84,-0.762 -0.87,-0.953 -0.87,-1.18L-0.87,-5.07L0.15,-5.07L0.15,-1.56C0.15,-1.373 0.193,-1.227 0.28,-1.12C0.367,-1.013 0.49,-0.96 0.65,-0.96C0.843,-0.96 0.977,-1.02 1.05,-1.14C1.123,-1.26 1.16,-1.433 1.16,-1.66L1.16,-5.07L2.18,-5.07Z" style="fill:rgb(5,5,5);fill-rule:nonzero;"/>
            <path d="M3.02,-5.07L3.02,-6.61L4.04,-6.61L4.04,-5.07L4.67,-5.07L4.67,-4.27L4.04,-4.27L4.04,-1.46C4.04,-1.34 4.052,-1.247 4.075,-1.18C4.098,-1.113 4.137,-1.063 4.19,-1.03C4.243,-0.997 4.308,-0.977 4.385,-0.97C4.462,-0.963 4.557,-0.96 4.67,-0.96L4.67,0L4.25,0C4.017,0 3.822,-0.037 3.665,-0.11C3.508,-0.183 3.383,-0.277 3.29,-0.39C3.197,-0.503 3.128,-0.632 3.085,-0.775C3.042,-0.918 3.02,-1.057 3.02,-1.19L3.02,-4.27L2.51,-4.27L2.51,-5.07L3.02,-5.07Z" style="fill:rgb(5,5,5);fill-rule:nonzero;"/>
            <path d="M5.06,2.05L5.06,-5.07L6.08,-5.07L6.08,-4.61C6.207,-4.757 6.337,-4.88 6.47,-4.98C6.603,-5.08 6.797,-5.13 7.05,-5.13C7.47,-5.13 7.767,-4.97 7.94,-4.65C8,-4.537 8.043,-4.397 8.07,-4.23C8.097,-4.063 8.11,-3.84 8.11,-3.56L8.11,-1.63C8.11,-1.257 8.1,-0.987 8.08,-0.82C8.04,-0.487 7.887,-0.237 7.62,-0.07C7.487,0.017 7.293,0.06 7.04,0.06C6.84,0.06 6.662,0.015 6.505,-0.075C6.348,-0.165 6.213,-0.293 6.1,-0.46L6.08,-0.46L6.08,2.05L5.06,2.05ZM7.09,-3.42C7.09,-3.627 7.05,-3.793 6.97,-3.92C6.89,-4.047 6.763,-4.11 6.59,-4.11C6.437,-4.11 6.313,-4.052 6.22,-3.935C6.127,-3.818 6.08,-3.667 6.08,-3.48L6.08,-1.51C6.08,-1.35 6.128,-1.218 6.225,-1.115C6.322,-1.012 6.443,-0.96 6.59,-0.96C6.783,-0.96 6.915,-1.02 6.985,-1.14C7.055,-1.26 7.09,-1.4 7.09,-1.56L7.09,-3.42Z" style="fill:rgb(5,5,5);fill-rule:nonzero;"/>
            <path d="M12,-5.07L12,0L10.98,0L10.98,-0.49L10.96,-0.49C10.853,-0.33 10.725,-0.198 10.575,-0.095C10.425,0.008 10.233,0.06 10,0.06C9.873,0.06 9.747,0.038 9.62,-0.005C9.493,-0.048 9.38,-0.12 9.28,-0.22C9.18,-0.32 9.1,-0.448 9.04,-0.605C8.98,-0.762 8.95,-0.953 8.95,-1.18L8.95,-5.07L9.97,-5.07L9.97,-1.56C9.97,-1.373 10.013,-1.227 10.1,-1.12C10.187,-1.013 10.31,-0.96 10.47,-0.96C10.663,-0.96 10.797,-1.02 10.87,-1.14C10.943,-1.26 10.98,-1.433 10.98,-1.66L10.98,-5.07L12,-5.07Z" style="fill:rgb(5,5,5);fill-rule:nonzero;"/>
            <path d="M12.84,-5.07L12.84,-6.61L13.86,-6.61L13.86,-5.07L14.49,-5.07L14.49,-4.27L13.86,-4.27L13.86,-1.46C13.86,-1.34 13.872,-1.247 13.895,-1.18C13.918,-1.113 13.957,-1.063 14.01,-1.03C14.063,-0.997 14.128,-0.977 14.205,-0.97C14.282,-0.963 14.377,-0.96 14.49,-0.96L14.49,0L14.07,0C13.837,0 13.642,-0.037 13.485,-0.11C13.328,-0.183 13.203,-0.277 13.11,-0.39C13.017,-0.503 12.948,-0.632 12.905,-0.775C12.862,-0.918 12.84,-1.057 12.84,-1.19L12.84,-4.27L12.33,-4.27L12.33,-5.07L12.84,-5.07Z" style="fill:rgb(5,5,5);fill-rule:nonzero;"/>
        </g>
        <g transform="matrix(1,0,0,1,25.1894,214.161)">
            <text x="-4.99px" y="0px" style="font-family:'DINCondensed-Bold', 'DIN Condensed';font-weight:700;font-stretch:condensed;font-size:10px;fill:rgb(5,5,5);">output</text>
        </g>
    </g>
    <g id="Input" transform="matrix(0.175002,0,0,0.175002,0.5604,-124.166)">
        <g id="In-input" serif:id="In#input" transform="matrix(1,0,0,1,33.2942,1526.32)">
            <rect x="53.94" y="106.916" width="161.978" height="161.978" style="fill:rgb(217,217,217);"/>
        </g>
        <g transform="matrix(5.71422,0,0,5.71422,-3.20225,67.6355)">
            <g id="Range-switch1" serif:id="Range#switch" transform="matrix(1,0,0,0.7555,-44.0428,206.351)">
                <rect x="68.086" y="48.482" width="11.914" height="25.893" style="fill:rgb(204,51,51);"/>
            </g>
            <g transform="matrix(1,0,0,1,-63.7779,143.216)">
                <path d="M107.648,113.236L107.648,118.306L106.628,118.306L106.628,117.816L106.608,117.816C106.501,117.976 106.373,118.108 106.223,118.211C106.073,118.315 105.881,118.366 105.648,118.366C105.521,118.366 105.395,118.345 105.268,118.301C105.141,118.258 105.028,118.186 104.928,118.086C104.828,117.986 104.748,117.858 104.688,117.701C104.628,117.545 104.598,117.353 104.598,117.126L104.598,113.236L105.618,113.236L105.618,116.746C105.618,116.933 105.661,117.08 105.748,117.186C105.835,117.293 105.958,117.346 106.118,117.346C106.311,117.346 106.445,117.286 106.518,117.166C106.591,117.046 106.628,116.873 106.628,116.646L106.628,113.236L107.648,113.236Z" style="fill-rule:nonzero;"/>
                <path d="M108.488,118.306L108.488,113.236L109.508,113.236L109.508,113.726L109.528,113.726C109.635,113.566 109.763,113.435 109.913,113.331C110.063,113.228 110.255,113.176 110.488,113.176C110.615,113.176 110.741,113.198 110.868,113.241C110.995,113.285 111.108,113.356 111.208,113.456C111.308,113.556 111.388,113.685 111.448,113.841C111.508,113.998 111.538,114.19 111.538,114.416L111.538,118.306L110.518,118.306L110.518,114.796C110.518,114.61 110.475,114.463 110.388,114.356C110.301,114.25 110.178,114.196 110.018,114.196C109.825,114.196 109.691,114.256 109.618,114.376C109.545,114.496 109.508,114.67 109.508,114.896L109.508,118.306L108.488,118.306Z" style="fill-rule:nonzero;"/>
                <path d="M112.378,118.306L112.378,113.236L113.398,113.236L113.398,118.306L112.378,118.306ZM112.378,112.206L112.378,111.186L113.398,111.186L113.398,112.206L112.378,112.206Z" style="fill-rule:nonzero;"/>
            </g>
            <g transform="matrix(1,0,0,1,-63.7779,143.216)">
                <text x="104.178px" y="118.306px" style="font-family:'DINCondensed-Bold', 'DIN Condensed';font-weight:700;font-stretch:condensed;font-size:10px;">uni</text>
            </g>
            <g transform="matrix(1,0,0,1,-94.0379,132.043)">
                <path d="M104.538,118.306L104.538,114.036L104.038,114.036L104.038,113.236L104.538,113.236L104.538,112.546C104.538,112.3 104.575,112.091 104.648,111.921C104.721,111.751 104.821,111.61 104.948,111.496C105.068,111.383 105.206,111.303 105.363,111.256C105.52,111.21 105.681,111.186 105.848,111.186L106.318,111.186L106.318,112.146L105.858,112.146C105.658,112.146 105.558,112.263 105.558,112.496L105.558,113.236L106.318,113.236L106.318,114.036L105.558,114.036L105.558,118.306L104.538,118.306Z" style="fill-rule:nonzero;"/>
                <path d="M109.678,113.236L109.678,118.306L108.658,118.306L108.658,117.816L108.638,117.816C108.531,117.976 108.403,118.108 108.253,118.211C108.103,118.315 107.911,118.366 107.678,118.366C107.551,118.366 107.425,118.345 107.298,118.301C107.171,118.258 107.058,118.186 106.958,118.086C106.858,117.986 106.778,117.858 106.718,117.701C106.658,117.545 106.628,117.353 106.628,117.126L106.628,113.236L107.648,113.236L107.648,116.746C107.648,116.933 107.691,117.08 107.778,117.186C107.865,117.293 107.988,117.346 108.148,117.346C108.341,117.346 108.475,117.286 108.548,117.166C108.621,117.046 108.658,116.873 108.658,116.646L108.658,113.236L109.678,113.236Z" style="fill-rule:nonzero;"/>
                <path d="M110.458,111.186L111.478,111.186L111.478,116.876C111.478,117.07 111.513,117.201 111.583,117.271C111.653,117.341 111.785,117.386 111.978,117.406L111.978,118.366C111.745,118.366 111.535,118.348 111.348,118.311C111.161,118.275 111.001,118.203 110.868,118.096C110.735,117.996 110.633,117.855 110.563,117.671C110.493,117.488 110.458,117.246 110.458,116.946L110.458,111.186Z" style="fill-rule:nonzero;"/>
                <path d="M112.318,111.186L113.338,111.186L113.338,116.876C113.338,117.07 113.373,117.201 113.443,117.271C113.513,117.341 113.645,117.386 113.838,117.406L113.838,118.366C113.605,118.366 113.395,118.348 113.208,118.311C113.021,118.275 112.861,118.203 112.728,118.096C112.595,117.996 112.493,117.855 112.423,117.671C112.353,117.488 112.318,117.246 112.318,116.946L112.318,111.186Z" style="fill-rule:nonzero;"/>
            </g>
            <g transform="matrix(1,0,0,1,-94.0379,132.043)">
                <text x="103.988px" y="118.306px" style="font-family:'DINCondensed-Bold', 'DIN Condensed';font-weight:700;font-stretch:condensed;font-size:10px;">full</text>
            </g>
        </g>
        <g transform="matrix(5.71422,0,0,5.71422,-3.20225,-22.4283)">
            <g transform="matrix(1,0,0,1,29.6448,247.764)">
                <path d="M-10.63,0L-10.63,-6.04L-11.65,-5.29L-11.65,-6.37L-10.63,-7.12L-9.61,-7.12L-9.61,0L-10.63,0Z" style="fill:rgb(5,5,5);fill-rule:nonzero;"/>
                <path d="M-8.12,-5.65C-8.12,-5.89 -8.078,-6.103 -7.995,-6.29C-7.912,-6.477 -7.8,-6.637 -7.66,-6.77C-7.52,-6.903 -7.358,-7.005 -7.175,-7.075C-6.992,-7.145 -6.8,-7.18 -6.6,-7.18C-6.4,-7.18 -6.208,-7.145 -6.025,-7.075C-5.842,-7.005 -5.68,-6.903 -5.54,-6.77C-5.4,-6.637 -5.288,-6.477 -5.205,-6.29C-5.122,-6.103 -5.08,-5.89 -5.08,-5.65L-5.08,-1.47C-5.08,-1.23 -5.122,-1.017 -5.205,-0.83C-5.288,-0.643 -5.4,-0.483 -5.54,-0.35C-5.68,-0.217 -5.842,-0.115 -6.025,-0.045C-6.208,0.025 -6.4,0.06 -6.6,0.06C-6.8,0.06 -6.992,0.025 -7.175,-0.045C-7.358,-0.115 -7.52,-0.217 -7.66,-0.35C-7.8,-0.483 -7.912,-0.643 -7.995,-0.83C-8.078,-1.017 -8.12,-1.23 -8.12,-1.47L-8.12,-5.65ZM-7.1,-1.47C-7.1,-1.323 -7.053,-1.202 -6.96,-1.105C-6.867,-1.008 -6.747,-0.96 -6.6,-0.96C-6.453,-0.96 -6.333,-1.008 -6.24,-1.105C-6.147,-1.202 -6.1,-1.323 -6.1,-1.47L-6.1,-5.65C-6.1,-5.797 -6.147,-5.918 -6.24,-6.015C-6.333,-6.112 -6.453,-6.16 -6.6,-6.16C-6.747,-6.16 -6.867,-6.112 -6.96,-6.015C-7.053,-5.918 -7.1,-5.797 -7.1,-5.65L-7.1,-1.47Z" style="fill:rgb(5,5,5);fill-rule:nonzero;"/>
                <path d="M10.36,-7.12L8.9,0L8,0L6.55,-7.12L7.63,-7.12L8.44,-2.15L8.46,-2.15L9.28,-7.12L10.36,-7.12Z" style="fill:rgb(5,5,5);fill-rule:nonzero;"/>
            </g>
            <g transform="matrix(1,0,0,1,29.6448,247.764)">
                <text x="-12.18px" y="0px" style="font-family:'DINCondensed-Bold', 'DIN Condensed';font-weight:700;font-stretch:condensed;font-size:10px;fill:rgb(5,5,5);">10      V</text>
            </g>
            <g id="_10V-led1" serif:id="10V#led" transform="matrix(1,0,0,1,-12.167,-91.6266)">
                <circle cx="42.167" cy="335.861" r="3.82" style="fill:rgb(230,230,230);"/>
            </g>
        </g>
        <g transform="matrix(5.71422,0,0,5.71422,-3.20225,-99.5703)">
            <g transform="matrix(1,0,0,1,29.6448,247.764)">
                <path d="M-6.1,-5.66C-6.1,-5.8 -6.15,-5.918 -6.25,-6.015C-6.35,-6.112 -6.467,-6.16 -6.6,-6.16C-6.733,-6.16 -6.85,-6.112 -6.95,-6.015C-7.05,-5.918 -7.1,-5.8 -7.1,-5.66L-7.1,-4.62C-7.1,-4.48 -7.05,-4.362 -6.95,-4.265C-6.85,-4.168 -6.733,-4.12 -6.6,-4.12C-6.467,-4.12 -6.35,-4.168 -6.25,-4.265C-6.15,-4.362 -6.1,-4.48 -6.1,-4.62L-6.1,-5.66ZM-8.12,-5.26C-8.12,-5.453 -8.113,-5.618 -8.1,-5.755C-8.087,-5.892 -8.063,-6.01 -8.03,-6.11C-7.997,-6.21 -7.958,-6.3 -7.915,-6.38C-7.872,-6.46 -7.817,-6.543 -7.75,-6.63C-7.617,-6.803 -7.45,-6.938 -7.25,-7.035C-7.05,-7.132 -6.833,-7.18 -6.6,-7.18C-6.367,-7.18 -6.15,-7.132 -5.95,-7.035C-5.75,-6.938 -5.583,-6.803 -5.45,-6.63C-5.383,-6.543 -5.327,-6.46 -5.28,-6.38C-5.233,-6.3 -5.193,-6.21 -5.16,-6.11C-5.127,-6.01 -5.105,-5.892 -5.095,-5.755C-5.085,-5.618 -5.08,-5.453 -5.08,-5.26C-5.08,-5.047 -5.083,-4.867 -5.09,-4.72C-5.097,-4.573 -5.117,-4.443 -5.15,-4.33C-5.183,-4.217 -5.235,-4.115 -5.305,-4.025C-5.375,-3.935 -5.47,-3.84 -5.59,-3.74C-5.47,-3.647 -5.375,-3.553 -5.305,-3.46C-5.235,-3.367 -5.183,-3.257 -5.15,-3.13C-5.117,-3.003 -5.097,-2.848 -5.09,-2.665C-5.083,-2.482 -5.08,-2.257 -5.08,-1.99C-5.08,-1.77 -5.085,-1.588 -5.095,-1.445C-5.105,-1.302 -5.12,-1.177 -5.14,-1.07C-5.16,-0.963 -5.188,-0.873 -5.225,-0.8C-5.262,-0.727 -5.307,-0.65 -5.36,-0.57C-5.473,-0.397 -5.633,-0.248 -5.84,-0.125C-6.047,-0.002 -6.3,0.06 -6.6,0.06C-6.9,0.06 -7.153,-0.002 -7.36,-0.125C-7.567,-0.248 -7.727,-0.397 -7.84,-0.57C-7.893,-0.65 -7.938,-0.727 -7.975,-0.8C-8.012,-0.873 -8.04,-0.963 -8.06,-1.07C-8.08,-1.177 -8.095,-1.302 -8.105,-1.445C-8.115,-1.588 -8.12,-1.77 -8.12,-1.99C-8.12,-2.257 -8.117,-2.482 -8.11,-2.665C-8.103,-2.848 -8.083,-3.003 -8.05,-3.13C-8.017,-3.257 -7.965,-3.367 -7.895,-3.46C-7.825,-3.553 -7.73,-3.647 -7.61,-3.74C-7.73,-3.84 -7.825,-3.935 -7.895,-4.025C-7.965,-4.115 -8.017,-4.217 -8.05,-4.33C-8.083,-4.443 -8.103,-4.573 -8.11,-4.72C-8.117,-4.867 -8.12,-5.047 -8.12,-5.26ZM-6.1,-2.86C-6.1,-3 -6.15,-3.118 -6.25,-3.215C-6.35,-3.312 -6.467,-3.36 -6.6,-3.36C-6.733,-3.36 -6.85,-3.312 -6.95,-3.215C-7.05,-3.118 -7.1,-3 -7.1,-2.86L-7.1,-1.46C-7.1,-1.32 -7.05,-1.202 -6.95,-1.105C-6.85,-1.008 -6.733,-0.96 -6.6,-0.96C-6.467,-0.96 -6.35,-1.008 -6.25,-1.105C-6.15,-1.202 -6.1,-1.32 -6.1,-1.46L-6.1,-2.86Z" style="fill:rgb(5,5,5);fill-rule:nonzero;"/>
                <path d="M10.36,-7.12L8.9,0L8,0L6.55,-7.12L7.63,-7.12L8.44,-2.15L8.46,-2.15L9.28,-7.12L10.36,-7.12Z" style="fill:rgb(5,5,5);fill-rule:nonzero;"/>
            </g>
            <g transform="matrix(1,0,0,1,29.6448,247.764)">
                <text x="-8.46px" y="0px" style="font-family:'DINCondensed-Bold', 'DIN Condensed';font-weight:700;font-stretch:condensed;font-size:10px;fill:rgb(5,5,5);">8      V</text>
            </g>
            <g id="_8V-led1" serif:id="8V#led" transform="matrix(1,0,0,1,-12.167,-91.6266)">
                <circle cx="42.167" cy="335.861" r="3.82" style="fill:rgb(230,230,230);"/>
            </g>
        </g>
        <g transform="matrix(5.71422,0,0,5.71422,-3.20225,-176.712)">
            <g transform="matrix(1,0,0,1,29.6448,247.764)">
                <path d="M-5.08,-7.12L-5.08,-6.16L-7.1,-6.16L-7.1,-4.24C-7.007,-4.333 -6.887,-4.412 -6.74,-4.475C-6.593,-4.538 -6.43,-4.57 -6.25,-4.57C-5.903,-4.57 -5.622,-4.465 -5.405,-4.255C-5.188,-4.045 -5.08,-3.73 -5.08,-3.31L-5.08,-1.47C-5.08,-1.23 -5.122,-1.017 -5.205,-0.83C-5.288,-0.643 -5.4,-0.483 -5.54,-0.35C-5.68,-0.217 -5.842,-0.115 -6.025,-0.045C-6.208,0.025 -6.4,0.06 -6.6,0.06C-6.8,0.06 -6.992,0.025 -7.175,-0.045C-7.358,-0.115 -7.52,-0.217 -7.66,-0.35C-7.8,-0.483 -7.912,-0.643 -7.995,-0.83C-8.078,-1.017 -8.12,-1.23 -8.12,-1.47L-8.12,-1.77L-7.1,-1.77L-7.1,-1.51C-7.1,-1.337 -7.052,-1.202 -6.955,-1.105C-6.858,-1.008 -6.733,-0.96 -6.58,-0.96C-6.427,-0.96 -6.308,-1.007 -6.225,-1.1C-6.142,-1.193 -6.1,-1.323 -6.1,-1.49L-6.1,-3.16C-6.1,-3.3 -6.145,-3.42 -6.235,-3.52C-6.325,-3.62 -6.44,-3.67 -6.58,-3.67C-6.667,-3.67 -6.74,-3.655 -6.8,-3.625C-6.86,-3.595 -6.91,-3.56 -6.95,-3.52C-6.99,-3.48 -7.02,-3.437 -7.04,-3.39C-7.073,-3.33 -7.093,-3.293 -7.1,-3.28L-8,-3.28L-8,-7.12L-5.08,-7.12Z" style="fill:rgb(5,5,5);fill-rule:nonzero;"/>
                <path d="M10.36,-7.12L8.9,0L8,0L6.55,-7.12L7.63,-7.12L8.44,-2.15L8.46,-2.15L9.28,-7.12L10.36,-7.12Z" style="fill:rgb(5,5,5);fill-rule:nonzero;"/>
            </g>
            <g transform="matrix(1,0,0,1,29.6448,247.764)">
                <text x="-8.46px" y="0px" style="font-family:'DINCondensed-Bold', 'DIN Condensed';font-weight:700;font-stretch:condensed;font-size:10px;fill:rgb(5,5,5);">5      V</text>
            </g>
            <g id="_5V-led1" serif:id="5V#led" transform="matrix(1,0,0,1,-12.167,-91.6266)">
                <circle cx="42.167" cy="335.861" r="3.82" style="fill:rgb(230,230,230);"/>
            </g>
        </g>
        <g id="Max-button1" serif:id="Max#button" transform="matrix(4.33651,0,0,4.33651,-73.1509,-207.685)">
            <circle cx="55.661" cy="308.513" r="7.929"/>
        </g>
        <g transform="matrix(5.71422,0,0,5.71422,140.736,1047.05)">
            <path d="M-2.63,0L-2.63,-5.07L-1.61,-5.07L-1.61,0L-2.63,0ZM-2.63,-6.1L-2.63,-7.12L-1.61,-7.12L-1.61,-6.1L-2.63,-6.1Z" style="fill:rgb(5,5,5);fill-rule:nonzero;"/>
            <path d="M-0.77,0L-0.77,-5.07L0.25,-5.07L0.25,-4.58L0.27,-4.58C0.377,-4.74 0.505,-4.872 0.655,-4.975C0.805,-5.078 0.997,-5.13 1.23,-5.13C1.357,-5.13 1.483,-5.108 1.61,-5.065C1.737,-5.022 1.85,-4.95 1.95,-4.85C2.05,-4.75 2.13,-4.622 2.19,-4.465C2.25,-4.308 2.28,-4.117 2.28,-3.89L2.28,0L1.26,0L1.26,-3.51C1.26,-3.697 1.217,-3.843 1.13,-3.95C1.043,-4.057 0.92,-4.11 0.76,-4.11C0.567,-4.11 0.433,-4.05 0.36,-3.93C0.287,-3.81 0.25,-3.637 0.25,-3.41L0.25,0L-0.77,0Z" style="fill:rgb(5,5,5);fill-rule:nonzero;"/>
            <path d="M3.12,2.05L3.12,-5.07L4.14,-5.07L4.14,-4.61C4.267,-4.757 4.397,-4.88 4.53,-4.98C4.663,-5.08 4.857,-5.13 5.11,-5.13C5.53,-5.13 5.827,-4.97 6,-4.65C6.06,-4.537 6.103,-4.397 6.13,-4.23C6.157,-4.063 6.17,-3.84 6.17,-3.56L6.17,-1.63C6.17,-1.257 6.16,-0.987 6.14,-0.82C6.1,-0.487 5.947,-0.237 5.68,-0.07C5.547,0.017 5.353,0.06 5.1,0.06C4.9,0.06 4.722,0.015 4.565,-0.075C4.408,-0.165 4.273,-0.293 4.16,-0.46L4.14,-0.46L4.14,2.05L3.12,2.05ZM5.15,-3.42C5.15,-3.627 5.11,-3.793 5.03,-3.92C4.95,-4.047 4.823,-4.11 4.65,-4.11C4.497,-4.11 4.373,-4.052 4.28,-3.935C4.187,-3.818 4.14,-3.667 4.14,-3.48L4.14,-1.51C4.14,-1.35 4.188,-1.218 4.285,-1.115C4.382,-1.012 4.503,-0.96 4.65,-0.96C4.843,-0.96 4.975,-1.02 5.045,-1.14C5.115,-1.26 5.15,-1.4 5.15,-1.56L5.15,-3.42Z" style="fill:rgb(5,5,5);fill-rule:nonzero;"/>
            <path d="M10.06,-5.07L10.06,0L9.04,0L9.04,-0.49L9.02,-0.49C8.913,-0.33 8.785,-0.198 8.635,-0.095C8.485,0.008 8.293,0.06 8.06,0.06C7.933,0.06 7.807,0.038 7.68,-0.005C7.553,-0.048 7.44,-0.12 7.34,-0.22C7.24,-0.32 7.16,-0.448 7.1,-0.605C7.04,-0.762 7.01,-0.953 7.01,-1.18L7.01,-5.07L8.03,-5.07L8.03,-1.56C8.03,-1.373 8.073,-1.227 8.16,-1.12C8.247,-1.013 8.37,-0.96 8.53,-0.96C8.723,-0.96 8.857,-1.02 8.93,-1.14C9.003,-1.26 9.04,-1.433 9.04,-1.66L9.04,-5.07L10.06,-5.07Z" style="fill:rgb(5,5,5);fill-rule:nonzero;"/>
            <path d="M10.9,-5.07L10.9,-6.61L11.92,-6.61L11.92,-5.07L12.55,-5.07L12.55,-4.27L11.92,-4.27L11.92,-1.46C11.92,-1.34 11.932,-1.247 11.955,-1.18C11.978,-1.113 12.017,-1.063 12.07,-1.03C12.123,-0.997 12.188,-0.977 12.265,-0.97C12.342,-0.963 12.437,-0.96 12.55,-0.96L12.55,0L12.13,0C11.897,0 11.702,-0.037 11.545,-0.11C11.388,-0.183 11.263,-0.277 11.17,-0.39C11.077,-0.503 11.008,-0.632 10.965,-0.775C10.922,-0.918 10.9,-1.057 10.9,-1.19L10.9,-4.27L10.39,-4.27L10.39,-5.07L10.9,-5.07Z" style="fill:rgb(5,5,5);fill-rule:nonzero;"/>
        </g>
        <g transform="matrix(5.71422,0,0,5.71422,140.736,1047.05)">
            <text x="-3.05px" y="0px" style="font-family:'DINCondensed-Bold', 'DIN Condensed';font-weight:700;font-stretch:condensed;font-size:10px;fill:rgb(5,5,5);">input</text>
        </g>
    </g>
    <g transform="matrix(0.816456,0,0,0.816456,31.4849,-226.739)">
        <g transform="matrix(1,0,0,1,-22.9442,324.767)">
            <path d="M2.227,-0.72C2.286,-0.485 2.491,-0.338 2.844,-0.279C2.932,-0.269 2.976,-0.22 2.976,-0.132C2.976,-0.083 2.952,-0.039 2.903,0C2.854,0.039 2.79,0.059 2.712,0.059C2.565,0.059 2.369,0.049 2.124,0.029C1.879,0.01 1.531,0 1.08,0C0.718,0 0.399,0.012 0.125,0.037C-0.149,0.061 -0.316,0.078 -0.375,0.088C-0.424,0.088 -0.458,0.073 -0.478,0.044C-0.497,0.015 -0.507,-0.02 -0.507,-0.059C-0.507,-0.098 -0.5,-0.137 -0.485,-0.176C-0.47,-0.216 -0.448,-0.235 -0.419,-0.235C-0.35,-0.245 -0.282,-0.265 -0.213,-0.294C-0.145,-0.323 -0.081,-0.363 -0.022,-0.412C0.007,-0.441 0.044,-0.598 0.088,-0.882C0.132,-1.166 0.171,-1.541 0.206,-2.006C0.24,-2.472 0.269,-3.008 0.294,-3.616C0.318,-4.223 0.331,-4.865 0.331,-5.541L0.331,-7.129C0.331,-7.618 0.306,-8.015 0.257,-8.319C0.169,-8.966 -0.037,-9.463 -0.36,-9.811C-0.683,-10.159 -1.061,-10.333 -1.492,-10.333C-1.874,-10.333 -2.251,-10.227 -2.624,-10.017C-2.996,-9.806 -3.329,-9.497 -3.623,-9.091C-3.917,-8.684 -4.155,-8.179 -4.336,-7.577C-4.517,-6.974 -4.608,-6.286 -4.608,-5.512C-4.608,-4.659 -4.512,-3.917 -4.321,-3.285C-4.13,-2.653 -3.878,-2.124 -3.564,-1.698C-3.251,-1.271 -2.891,-0.953 -2.484,-0.742C-2.077,-0.532 -1.654,-0.426 -1.213,-0.426L-1.132,-0.426C-1.097,-0.426 -1.071,-0.431 -1.051,-0.441C-1.012,-0.461 -0.987,-0.461 -0.977,-0.441C-0.968,-0.421 -0.968,-0.394 -0.977,-0.36C-0.987,-0.326 -0.999,-0.292 -1.014,-0.257C-1.029,-0.223 -1.046,-0.201 -1.066,-0.191C-1.164,-0.122 -1.301,-0.061 -1.477,-0.007C-1.654,0.047 -1.898,0.073 -2.212,0.073C-2.731,0.073 -3.248,-0.047 -3.763,-0.287C-4.277,-0.527 -4.738,-0.862 -5.144,-1.293C-5.551,-1.725 -5.879,-2.246 -6.129,-2.859C-6.379,-3.471 -6.504,-4.145 -6.504,-4.88C-6.504,-5.928 -6.352,-6.825 -6.048,-7.569C-5.744,-8.314 -5.33,-8.922 -4.806,-9.392C-4.282,-9.862 -3.675,-10.208 -2.984,-10.428C-2.293,-10.649 -1.556,-10.759 -0.772,-10.759C-0.487,-10.759 -0.228,-10.73 0.007,-10.671C0.243,-10.612 0.448,-10.541 0.625,-10.458C0.801,-10.374 0.946,-10.293 1.058,-10.215C1.171,-10.137 1.247,-10.078 1.286,-10.039C1.364,-10.098 1.524,-10.169 1.764,-10.252C2.004,-10.335 2.278,-10.414 2.587,-10.487C2.896,-10.561 3.216,-10.624 3.55,-10.678C3.883,-10.732 4.186,-10.759 4.461,-10.759C5.206,-10.739 5.86,-10.617 6.423,-10.391C6.986,-10.166 7.457,-9.865 7.834,-9.488C8.211,-9.11 8.495,-8.674 8.687,-8.179C8.878,-7.685 8.973,-7.158 8.973,-6.599C8.973,-5.551 8.833,-4.618 8.554,-3.799C8.275,-2.981 7.9,-2.288 7.43,-1.72C6.96,-1.151 6.416,-0.718 5.798,-0.419C5.181,-0.12 4.534,0.029 3.858,0.029C3.799,0.029 3.76,0.007 3.741,-0.037C3.721,-0.081 3.714,-0.127 3.719,-0.176C3.723,-0.225 3.741,-0.267 3.77,-0.301C3.799,-0.336 3.829,-0.348 3.858,-0.338C3.907,-0.318 3.946,-0.309 3.976,-0.309L4.093,-0.309C4.495,-0.309 4.872,-0.446 5.225,-0.72C5.578,-0.995 5.887,-1.374 6.151,-1.859C6.416,-2.344 6.624,-2.918 6.776,-3.579C6.928,-4.24 7.004,-4.963 7.004,-5.747C7.004,-7.207 6.781,-8.344 6.335,-9.157C5.889,-9.97 5.201,-10.377 4.27,-10.377C3.986,-10.377 3.721,-10.318 3.476,-10.2C3.231,-10.083 3.018,-9.928 2.837,-9.737C2.655,-9.546 2.508,-9.328 2.396,-9.083C2.283,-8.838 2.212,-8.589 2.183,-8.334C2.134,-7.991 2.104,-7.442 2.094,-6.688C2.085,-5.933 2.075,-5.022 2.065,-3.954C2.055,-3.17 2.063,-2.486 2.087,-1.903C2.112,-1.32 2.158,-0.926 2.227,-0.72Z" style="fill-rule:nonzero;"/>
            <path d="M14.573,-2.293C14.544,-2.459 14.514,-2.641 14.485,-2.837C14.455,-3.033 14.426,-3.219 14.397,-3.395C14.367,-3.572 14.34,-3.723 14.316,-3.851C14.291,-3.978 14.274,-4.062 14.264,-4.101C14.108,-4.042 13.931,-3.973 13.735,-3.895C13.539,-3.817 13.343,-3.731 13.147,-3.638C12.951,-3.545 12.765,-3.452 12.589,-3.358C12.412,-3.265 12.265,-3.18 12.148,-3.101C11.923,-2.954 11.751,-2.807 11.633,-2.66C11.516,-2.513 11.457,-2.337 11.457,-2.131C11.457,-1.847 11.54,-1.597 11.707,-1.382C11.874,-1.166 12.133,-1.058 12.486,-1.058C12.672,-1.058 12.866,-1.093 13.067,-1.161C13.267,-1.23 13.454,-1.308 13.625,-1.396C13.797,-1.484 13.946,-1.573 14.073,-1.661C14.201,-1.749 14.289,-1.818 14.338,-1.867C14.416,-1.945 14.478,-2.011 14.522,-2.065C14.566,-2.119 14.583,-2.195 14.573,-2.293ZM14.147,-4.571C14.088,-4.875 14.019,-5.147 13.941,-5.387C13.863,-5.627 13.765,-5.828 13.647,-5.989C13.53,-6.151 13.387,-6.274 13.221,-6.357C13.054,-6.44 12.849,-6.482 12.604,-6.482C12.388,-6.482 12.19,-6.443 12.008,-6.364C11.827,-6.286 11.67,-6.193 11.538,-6.085C11.406,-5.977 11.303,-5.869 11.229,-5.762C11.156,-5.654 11.114,-5.571 11.104,-5.512C11.095,-5.433 11.05,-5.394 10.972,-5.394C10.835,-5.394 10.707,-5.443 10.59,-5.541C10.472,-5.639 10.414,-5.757 10.414,-5.894C10.414,-5.972 10.423,-6.031 10.443,-6.07C10.668,-6.198 10.943,-6.335 11.266,-6.482C11.589,-6.629 11.925,-6.766 12.273,-6.893C12.621,-7.021 12.966,-7.126 13.309,-7.209C13.652,-7.293 13.961,-7.334 14.235,-7.334C14.647,-7.334 14.963,-7.276 15.183,-7.158C15.404,-7.04 15.568,-6.874 15.675,-6.658C15.783,-6.443 15.849,-6.19 15.874,-5.901C15.898,-5.612 15.92,-5.301 15.94,-4.968C15.969,-4.468 16.009,-3.986 16.058,-3.52C16.107,-3.055 16.18,-2.643 16.278,-2.286C16.376,-1.928 16.501,-1.639 16.653,-1.418C16.805,-1.198 16.993,-1.088 17.219,-1.088C17.326,-1.088 17.444,-1.107 17.571,-1.146C17.699,-1.186 17.821,-1.232 17.939,-1.286C18.056,-1.34 18.162,-1.394 18.255,-1.448C18.348,-1.502 18.409,-1.538 18.439,-1.558C18.527,-1.558 18.581,-1.514 18.6,-1.426C18.6,-1.377 18.591,-1.333 18.571,-1.293C18.551,-1.274 18.478,-1.225 18.35,-1.146C18.223,-1.068 18.066,-0.975 17.88,-0.867C17.694,-0.759 17.488,-0.644 17.263,-0.522C17.037,-0.399 16.815,-0.284 16.594,-0.176C16.374,-0.069 16.17,0.02 15.984,0.088C15.798,0.157 15.651,0.191 15.543,0.191C15.416,0.191 15.306,0.14 15.212,0.037C15.119,-0.066 15.039,-0.203 14.97,-0.375C14.901,-0.546 14.843,-0.745 14.794,-0.97C14.745,-1.195 14.7,-1.431 14.661,-1.676C14.485,-1.529 14.26,-1.355 13.985,-1.154C13.711,-0.953 13.412,-0.764 13.089,-0.588C12.765,-0.412 12.435,-0.262 12.096,-0.14C11.758,-0.017 11.433,0.044 11.119,0.044C10.854,0.044 10.624,0.002 10.428,-0.081C10.232,-0.164 10.068,-0.274 9.936,-0.412C9.804,-0.549 9.706,-0.708 9.642,-0.889C9.578,-1.071 9.546,-1.259 9.546,-1.455C9.546,-1.769 9.642,-2.026 9.833,-2.227C10.024,-2.428 10.32,-2.636 10.722,-2.851C10.908,-2.949 11.168,-3.079 11.501,-3.241C11.834,-3.403 12.175,-3.567 12.523,-3.733C12.871,-3.9 13.194,-4.059 13.493,-4.211C13.792,-4.363 14.01,-4.483 14.147,-4.571Z" style="fill-rule:nonzero;"/>
            <path d="M23.421,-0.676C23.108,-0.48 22.721,-0.304 22.26,-0.147C21.8,0.01 21.354,0.088 20.923,0.088C20.785,0.088 20.631,0.078 20.46,0.059C20.288,0.039 20.149,0.02 20.041,0C20.031,0.186 20.024,0.377 20.019,0.573C20.014,0.769 20.009,0.958 20.004,1.139C19.999,1.32 19.994,1.489 19.989,1.646C19.984,1.803 19.982,1.935 19.982,2.043C19.982,2.543 20.024,2.881 20.107,3.057C20.19,3.234 20.32,3.322 20.496,3.322C20.585,3.322 20.705,3.309 20.856,3.285C21.008,3.261 21.143,3.219 21.261,3.16C21.28,3.14 21.302,3.16 21.327,3.219C21.351,3.278 21.364,3.332 21.364,3.381C21.364,3.39 21.295,3.417 21.158,3.461C21.021,3.505 20.847,3.559 20.636,3.623C20.425,3.687 20.198,3.755 19.953,3.829C19.708,3.902 19.472,3.971 19.247,4.035C19.022,4.098 18.828,4.15 18.666,4.189C18.505,4.228 18.404,4.248 18.365,4.248C18.306,4.248 18.252,4.243 18.203,4.233C18.154,4.223 18.13,4.179 18.13,4.101C18.13,4.052 18.147,4.02 18.181,4.005C18.216,3.991 18.243,3.968 18.262,3.939C18.311,3.88 18.341,3.77 18.35,3.608C18.36,3.447 18.375,3.287 18.395,3.131C18.424,2.749 18.456,2.295 18.49,1.771C18.524,1.247 18.556,0.698 18.586,0.125C18.615,-0.448 18.642,-1.022 18.666,-1.595C18.691,-2.168 18.703,-2.69 18.703,-3.16C18.703,-3.826 18.676,-4.348 18.622,-4.725C18.568,-5.103 18.493,-5.382 18.395,-5.563C18.297,-5.744 18.186,-5.857 18.064,-5.901C17.941,-5.945 17.812,-5.967 17.674,-5.967C17.645,-5.967 17.603,-5.965 17.549,-5.96C17.496,-5.955 17.444,-5.953 17.395,-5.953C17.356,-5.953 17.336,-5.987 17.336,-6.056C17.336,-6.105 17.339,-6.136 17.344,-6.151C17.349,-6.166 17.371,-6.183 17.41,-6.203C17.459,-6.232 17.549,-6.281 17.682,-6.35C17.814,-6.418 17.966,-6.494 18.137,-6.577C18.309,-6.661 18.493,-6.749 18.689,-6.842C18.884,-6.935 19.068,-7.018 19.24,-7.092C19.411,-7.165 19.561,-7.227 19.688,-7.276C19.815,-7.325 19.904,-7.349 19.953,-7.349C20.1,-7.349 20.2,-7.285 20.254,-7.158C20.308,-7.031 20.34,-6.859 20.349,-6.643C20.349,-6.555 20.347,-6.416 20.342,-6.225C20.337,-6.034 20.33,-5.816 20.32,-5.571C20.447,-5.708 20.621,-5.877 20.842,-6.078C21.062,-6.278 21.312,-6.472 21.591,-6.658C21.871,-6.844 22.165,-7.004 22.473,-7.136C22.782,-7.268 23.083,-7.334 23.377,-7.334C23.799,-7.334 24.173,-7.258 24.502,-7.106C24.83,-6.955 25.102,-6.754 25.317,-6.504C25.533,-6.254 25.697,-5.97 25.81,-5.651C25.922,-5.333 25.979,-5.007 25.979,-4.674C25.979,-4.204 25.908,-3.77 25.766,-3.373C25.624,-2.976 25.45,-2.624 25.244,-2.315C25.038,-2.006 24.813,-1.739 24.568,-1.514C24.323,-1.289 24.097,-1.112 23.892,-0.985L23.421,-0.676ZM20.114,-1.808C20.144,-1.7 20.222,-1.59 20.349,-1.477C20.477,-1.364 20.641,-1.262 20.842,-1.168C21.043,-1.075 21.273,-0.997 21.533,-0.933C21.792,-0.87 22.069,-0.838 22.363,-0.838C22.628,-0.838 22.88,-0.889 23.12,-0.992C23.36,-1.095 23.568,-1.257 23.745,-1.477C23.921,-1.698 24.061,-1.984 24.164,-2.337C24.266,-2.69 24.318,-3.116 24.318,-3.616C24.318,-3.968 24.269,-4.302 24.171,-4.615C24.073,-4.929 23.931,-5.203 23.745,-5.438C23.558,-5.673 23.338,-5.857 23.083,-5.989C22.828,-6.122 22.549,-6.188 22.245,-6.188C22.089,-6.188 21.915,-6.154 21.724,-6.085C21.533,-6.016 21.349,-5.923 21.172,-5.806C20.996,-5.688 20.832,-5.551 20.68,-5.394C20.528,-5.237 20.418,-5.071 20.349,-4.894C20.3,-4.777 20.259,-4.593 20.224,-4.343C20.19,-4.093 20.166,-3.819 20.151,-3.52C20.136,-3.221 20.126,-2.92 20.122,-2.616C20.117,-2.312 20.114,-2.043 20.114,-1.808Z" style="fill-rule:nonzero;"/>
            <path d="M32.196,-0.676C31.882,-0.48 31.495,-0.304 31.035,-0.147C30.574,0.01 30.128,0.088 29.697,0.088C29.56,0.088 29.406,0.078 29.234,0.059C29.063,0.039 28.923,0.02 28.815,0C28.806,0.186 28.798,0.377 28.793,0.573C28.788,0.769 28.784,0.958 28.779,1.139C28.774,1.32 28.769,1.489 28.764,1.646C28.759,1.803 28.757,1.935 28.757,2.043C28.757,2.543 28.798,2.881 28.882,3.057C28.965,3.234 29.095,3.322 29.271,3.322C29.359,3.322 29.479,3.309 29.631,3.285C29.783,3.261 29.918,3.219 30.035,3.16C30.055,3.14 30.077,3.16 30.102,3.219C30.126,3.278 30.138,3.332 30.138,3.381C30.138,3.39 30.07,3.417 29.932,3.461C29.795,3.505 29.621,3.559 29.411,3.623C29.2,3.687 28.972,3.755 28.727,3.829C28.482,3.902 28.247,3.971 28.022,4.035C27.796,4.098 27.603,4.15 27.441,4.189C27.279,4.228 27.179,4.248 27.14,4.248C27.081,4.248 27.027,4.243 26.978,4.233C26.929,4.223 26.905,4.179 26.905,4.101C26.905,4.052 26.922,4.02 26.956,4.005C26.99,3.991 27.017,3.968 27.037,3.939C27.086,3.88 27.115,3.77 27.125,3.608C27.135,3.447 27.15,3.287 27.169,3.131C27.199,2.749 27.23,2.295 27.265,1.771C27.299,1.247 27.331,0.698 27.36,0.125C27.39,-0.448 27.417,-1.022 27.441,-1.595C27.466,-2.168 27.478,-2.69 27.478,-3.16C27.478,-3.826 27.451,-4.348 27.397,-4.725C27.343,-5.103 27.267,-5.382 27.169,-5.563C27.071,-5.744 26.961,-5.857 26.839,-5.901C26.716,-5.945 26.586,-5.967 26.449,-5.967C26.42,-5.967 26.378,-5.965 26.324,-5.96C26.27,-5.955 26.219,-5.953 26.17,-5.953C26.131,-5.953 26.111,-5.987 26.111,-6.056C26.111,-6.105 26.113,-6.136 26.118,-6.151C26.123,-6.166 26.145,-6.183 26.184,-6.203C26.233,-6.232 26.324,-6.281 26.456,-6.35C26.589,-6.418 26.741,-6.494 26.912,-6.577C27.084,-6.661 27.267,-6.749 27.463,-6.842C27.659,-6.935 27.843,-7.018 28.014,-7.092C28.186,-7.165 28.335,-7.227 28.463,-7.276C28.59,-7.325 28.678,-7.349 28.727,-7.349C28.874,-7.349 28.975,-7.285 29.029,-7.158C29.082,-7.031 29.114,-6.859 29.124,-6.643C29.124,-6.555 29.122,-6.416 29.117,-6.225C29.112,-6.034 29.104,-5.816 29.095,-5.571C29.222,-5.708 29.396,-5.877 29.616,-6.078C29.837,-6.278 30.087,-6.472 30.366,-6.658C30.645,-6.844 30.939,-7.004 31.248,-7.136C31.557,-7.268 31.858,-7.334 32.152,-7.334C32.573,-7.334 32.948,-7.258 33.276,-7.106C33.605,-6.955 33.876,-6.754 34.092,-6.504C34.308,-6.254 34.472,-5.97 34.584,-5.651C34.697,-5.333 34.753,-5.007 34.753,-4.674C34.753,-4.204 34.682,-3.77 34.54,-3.373C34.398,-2.976 34.224,-2.624 34.019,-2.315C33.813,-2.006 33.587,-1.739 33.342,-1.514C33.097,-1.289 32.872,-1.112 32.666,-0.985L32.196,-0.676ZM28.889,-1.808C28.918,-1.7 28.997,-1.59 29.124,-1.477C29.251,-1.364 29.416,-1.262 29.616,-1.168C29.817,-1.075 30.048,-0.997 30.307,-0.933C30.567,-0.87 30.844,-0.838 31.138,-0.838C31.402,-0.838 31.655,-0.889 31.895,-0.992C32.135,-1.095 32.343,-1.257 32.519,-1.477C32.696,-1.698 32.835,-1.984 32.938,-2.337C33.041,-2.69 33.093,-3.116 33.093,-3.616C33.093,-3.968 33.044,-4.302 32.946,-4.615C32.848,-4.929 32.705,-5.203 32.519,-5.438C32.333,-5.673 32.113,-5.857 31.858,-5.989C31.603,-6.122 31.324,-6.188 31.02,-6.188C30.863,-6.188 30.689,-6.154 30.498,-6.085C30.307,-6.016 30.124,-5.923 29.947,-5.806C29.771,-5.688 29.607,-5.551 29.455,-5.394C29.303,-5.237 29.193,-5.071 29.124,-4.894C29.075,-4.777 29.033,-4.593 28.999,-4.343C28.965,-4.093 28.94,-3.819 28.926,-3.52C28.911,-3.221 28.901,-2.92 28.896,-2.616C28.891,-2.312 28.889,-2.043 28.889,-1.808Z" style="fill-rule:nonzero;"/>
            <path d="M42.191,-1.72C42.083,-1.602 41.916,-1.44 41.691,-1.235C41.466,-1.029 41.194,-0.823 40.875,-0.617C40.557,-0.412 40.201,-0.235 39.81,-0.088C39.418,0.059 39.001,0.132 38.56,0.132C38.158,0.132 37.767,0.071 37.384,-0.051C37.002,-0.174 36.659,-0.36 36.356,-0.61C36.052,-0.86 35.809,-1.178 35.628,-1.565C35.447,-1.952 35.356,-2.415 35.356,-2.954C35.356,-3.395 35.385,-3.775 35.444,-4.093C35.503,-4.412 35.581,-4.691 35.679,-4.931C35.777,-5.171 35.888,-5.377 36.01,-5.548C36.133,-5.72 36.258,-5.874 36.385,-6.011C36.542,-6.188 36.733,-6.354 36.958,-6.511C37.183,-6.668 37.426,-6.81 37.686,-6.937C37.945,-7.065 38.22,-7.165 38.509,-7.239C38.798,-7.312 39.089,-7.349 39.383,-7.349C39.912,-7.349 40.326,-7.261 40.625,-7.084C40.924,-6.908 41.074,-6.663 41.074,-6.35C41.074,-6.154 41.015,-5.972 40.897,-5.806C40.995,-5.835 41.12,-5.884 41.272,-5.953C41.424,-6.021 41.578,-6.092 41.735,-6.166C41.892,-6.239 42.031,-6.305 42.154,-6.364C42.276,-6.423 42.357,-6.467 42.396,-6.497C42.416,-6.516 42.438,-6.523 42.463,-6.519C42.487,-6.514 42.499,-6.497 42.499,-6.467C42.499,-6.34 42.475,-6.234 42.426,-6.151C42.377,-6.068 42.318,-6.002 42.249,-5.953C42.093,-5.855 41.867,-5.732 41.573,-5.585C41.279,-5.438 40.954,-5.284 40.596,-5.122C40.238,-4.961 39.868,-4.799 39.486,-4.637C39.104,-4.476 38.744,-4.321 38.406,-4.174C38.068,-4.027 37.774,-3.897 37.524,-3.785C37.274,-3.672 37.105,-3.591 37.017,-3.542C37.017,-3.209 37.083,-2.898 37.215,-2.609C37.348,-2.32 37.531,-2.068 37.767,-1.852C38.002,-1.636 38.283,-1.467 38.612,-1.345C38.94,-1.222 39.3,-1.161 39.692,-1.161C40.045,-1.161 40.363,-1.198 40.647,-1.271C40.931,-1.345 41.172,-1.428 41.368,-1.521C41.563,-1.614 41.718,-1.698 41.831,-1.771C41.943,-1.845 42.004,-1.881 42.014,-1.881C42.053,-1.881 42.093,-1.864 42.132,-1.83C42.171,-1.796 42.191,-1.759 42.191,-1.72ZM37.017,-3.968C37.183,-4.027 37.372,-4.098 37.583,-4.182C37.793,-4.265 37.999,-4.356 38.2,-4.453C38.401,-4.551 38.585,-4.645 38.751,-4.733C38.918,-4.821 39.045,-4.899 39.133,-4.968C39.31,-5.095 39.398,-5.311 39.398,-5.615C39.398,-5.732 39.376,-5.855 39.332,-5.982C39.288,-6.109 39.222,-6.225 39.133,-6.327C39.045,-6.43 38.937,-6.514 38.81,-6.577C38.683,-6.641 38.541,-6.673 38.384,-6.673C38.247,-6.673 38.1,-6.626 37.943,-6.533C37.786,-6.44 37.639,-6.288 37.502,-6.078C37.365,-5.867 37.25,-5.588 37.157,-5.24C37.063,-4.892 37.017,-4.468 37.017,-3.968Z" style="fill-rule:nonzero;"/>
            <path d="M49.01,-6.247C48.903,-6.158 48.775,-6.048 48.628,-5.916C48.481,-5.784 48.327,-5.656 48.165,-5.534C48.004,-5.411 47.84,-5.306 47.673,-5.218C47.506,-5.13 47.345,-5.086 47.188,-5.086C47.051,-5.086 46.928,-5.117 46.82,-5.181C46.713,-5.245 46.612,-5.313 46.519,-5.387C46.426,-5.46 46.335,-5.529 46.247,-5.593C46.159,-5.656 46.066,-5.688 45.968,-5.688C45.703,-5.688 45.481,-5.58 45.299,-5.365C45.118,-5.149 44.971,-4.875 44.858,-4.542C44.746,-4.209 44.662,-3.846 44.608,-3.454C44.555,-3.062 44.528,-2.685 44.528,-2.322C44.528,-2.019 44.54,-1.771 44.564,-1.58C44.589,-1.389 44.626,-1.237 44.675,-1.124C44.724,-1.012 44.79,-0.936 44.873,-0.897C44.956,-0.857 45.057,-0.838 45.174,-0.838C45.302,-0.838 45.439,-0.857 45.586,-0.897C45.615,-0.906 45.637,-0.887 45.652,-0.838C45.667,-0.789 45.674,-0.75 45.674,-0.72C45.674,-0.701 45.659,-0.679 45.63,-0.654C45.601,-0.63 45.581,-0.617 45.571,-0.617C45.356,-0.529 45.135,-0.434 44.91,-0.331C44.684,-0.228 44.498,-0.142 44.351,-0.073C44.214,-0.015 44.05,0.049 43.859,0.118C43.668,0.186 43.504,0.22 43.366,0.22C43.21,0.22 43.08,0.196 42.977,0.147C42.874,0.098 42.823,0.049 42.823,0C42.823,-0.049 42.835,-0.093 42.859,-0.132C42.884,-0.171 42.906,-0.245 42.926,-0.353C42.945,-0.5 42.967,-0.674 42.992,-0.875C43.016,-1.075 43.041,-1.293 43.065,-1.529C43.09,-1.764 43.109,-2.006 43.124,-2.256C43.139,-2.506 43.146,-2.753 43.146,-2.998C43.146,-3.547 43.129,-4.013 43.095,-4.395C43.06,-4.777 42.999,-5.086 42.911,-5.321C42.823,-5.556 42.703,-5.725 42.551,-5.828C42.399,-5.931 42.205,-5.982 41.97,-5.982L41.838,-5.982C41.799,-5.982 41.759,-5.977 41.72,-5.967C41.661,-5.967 41.632,-5.997 41.632,-6.056C41.632,-6.114 41.661,-6.158 41.72,-6.188C41.828,-6.256 41.995,-6.357 42.22,-6.489C42.445,-6.621 42.678,-6.749 42.918,-6.871C43.158,-6.994 43.391,-7.104 43.616,-7.202C43.842,-7.3 44.008,-7.349 44.116,-7.349C44.243,-7.349 44.351,-7.307 44.439,-7.224C44.528,-7.141 44.594,-7.035 44.638,-6.908C44.682,-6.781 44.714,-6.636 44.733,-6.474C44.753,-6.313 44.763,-6.154 44.763,-5.997C44.763,-5.879 44.76,-5.757 44.755,-5.629C44.751,-5.502 44.748,-5.365 44.748,-5.218C45.189,-5.865 45.586,-6.367 45.939,-6.724C46.291,-7.082 46.625,-7.261 46.938,-7.261C47.056,-7.261 47.171,-7.212 47.283,-7.114C47.396,-7.016 47.516,-6.906 47.644,-6.783C47.771,-6.661 47.903,-6.55 48.04,-6.452C48.178,-6.354 48.32,-6.305 48.467,-6.305C48.594,-6.305 48.687,-6.32 48.746,-6.35C48.805,-6.379 48.854,-6.403 48.893,-6.423C48.971,-6.423 49.01,-6.369 49.01,-6.261L49.01,-6.247Z" style="fill-rule:nonzero;"/>
        </g>
        <g transform="matrix(1,0,0,1,-22.9442,324.767)">
            <text x="-6.886px" y="0px" style="font-family:'Luminari-Regular', 'Luminari';font-size:14.698px;">Mapper</text>
        </g>
        <g transform="matrix(0.0219124,0,0,0.0248558,-13.0379,285.934)">
            <g transform="matrix(55.8954,0,0,49.2765,-878.032,-330.791)">
                <path d="M27.733,13.757C27.957,11.616 28.949,10 30.136,10C31.489,10 32.587,12.095 32.587,14.677C32.587,15.669 32.424,16.59 32.148,17.347C32.432,17.974 32.587,18.65 32.587,19.353C32.587,22.678 29.128,25.378 24.868,25.378C20.609,25.378 17.15,22.678 17.15,19.353C17.15,18.65 17.305,17.974 17.589,17.347C17.313,16.59 17.15,15.669 17.15,14.677C17.15,12.095 18.248,10 19.601,10C20.788,10 21.779,11.616 22.003,13.757L22.04,13.746C22.915,13.476 23.87,13.328 24.868,13.328C25.881,13.328 26.847,13.48 27.733,13.757ZM17.609,17.304L17.606,17.31L17.609,17.304ZM32.128,17.305L32.131,17.31L32.128,17.305ZM17.627,17.265L17.623,17.273L17.627,17.265ZM32.11,17.266L32.113,17.273L32.11,17.266ZM17.645,17.227L17.641,17.236L17.645,17.227ZM32.092,17.228L32.096,17.236L32.092,17.228ZM17.663,17.19L17.659,17.2L17.663,17.19ZM32.074,17.191L32.078,17.199L32.074,17.191ZM17.682,17.153L17.677,17.162L17.682,17.153ZM32.055,17.154L32.059,17.161L32.055,17.154ZM17.7,17.117L17.696,17.125L17.7,17.117ZM32.037,17.117L32.04,17.123L32.037,17.117ZM17.719,17.081L17.717,17.085L17.719,17.081ZM32.018,17.081L32.019,17.082L32.018,17.081ZM17.782,16.964L17.778,16.971L17.782,16.964ZM31.957,16.968L31.958,16.97L31.957,16.968ZM17.804,16.925L17.798,16.935L17.804,16.925ZM31.935,16.928L31.938,16.934L31.935,16.928ZM17.825,16.888L17.818,16.9L17.825,16.888ZM31.914,16.891L31.918,16.899L31.914,16.891ZM17.845,16.852L17.838,16.865L17.845,16.852ZM31.893,16.854L31.898,16.863L31.893,16.854ZM17.866,16.817L17.859,16.829L17.866,16.817ZM31.871,16.819L31.876,16.827L31.871,16.819ZM17.888,16.782L17.88,16.794L17.888,16.782ZM31.85,16.783L31.855,16.791L31.85,16.783ZM17.909,16.747L17.902,16.758L17.909,16.747ZM31.829,16.748L31.832,16.754L31.829,16.748ZM17.931,16.712L17.925,16.72L17.931,16.712ZM31.807,16.713L31.808,16.714L31.807,16.713ZM17.979,16.635L17.975,16.642L17.979,16.635ZM18.005,16.596L17.998,16.608L18.005,16.596ZM31.735,16.602L31.738,16.606L31.735,16.602ZM18.029,16.561L18.02,16.573L18.029,16.561ZM31.711,16.564L31.716,16.572L31.711,16.564ZM18.052,16.526L18.043,16.539L18.052,16.526ZM31.686,16.529L31.692,16.537L31.686,16.529ZM18.076,16.492L18.066,16.505L18.076,16.492ZM31.663,16.494L31.669,16.503L31.663,16.494ZM18.1,16.458L18.09,16.471L18.1,16.458ZM31.639,16.459L31.645,16.469L31.639,16.459ZM18.124,16.424L18.114,16.437L18.124,16.424ZM31.614,16.425L31.62,16.434L31.614,16.425ZM18.148,16.39L18.139,16.403L18.148,16.39ZM31.59,16.392L31.595,16.398L31.59,16.392ZM18.172,16.357L18.164,16.367L18.172,16.357ZM31.566,16.358L31.567,16.36L31.566,16.358ZM18.197,16.324L18.196,16.324L18.197,16.324ZM18.23,16.28L18.222,16.291L18.23,16.28ZM31.513,16.288L31.514,16.289L31.513,16.288ZM18.257,16.245L18.247,16.258L18.257,16.245ZM31.484,16.249L31.489,16.256L31.484,16.249ZM18.283,16.211L18.272,16.225L18.283,16.211ZM31.456,16.214L31.463,16.223L31.456,16.214ZM18.309,16.178L18.298,16.192L18.309,16.178ZM31.43,16.18L31.438,16.19L31.43,16.18ZM18.335,16.145L18.324,16.16L18.335,16.145ZM31.403,16.147L31.411,16.158L31.403,16.147ZM18.362,16.113L18.35,16.127L18.362,16.113ZM31.376,16.114L31.385,16.125L31.376,16.114ZM18.388,16.081L18.377,16.094L18.388,16.081ZM31.35,16.082L31.357,16.091L31.35,16.082ZM18.415,16.049L18.404,16.061L18.415,16.049ZM31.323,16.05L31.329,16.057L31.323,16.05ZM18.442,16.017L18.433,16.027L18.442,16.017ZM31.295,16.018L31.298,16.021L31.295,16.018ZM18.473,15.981L18.469,15.985L18.473,15.981ZM18.507,15.942L18.497,15.954L18.507,15.942ZM31.234,15.947L31.239,15.953L31.234,15.947ZM18.536,15.909L18.525,15.922L18.536,15.909ZM31.203,15.912L31.211,15.921L31.203,15.912ZM18.565,15.877L18.553,15.891L18.565,15.877ZM31.174,15.879L31.183,15.89L31.174,15.879ZM18.594,15.846L18.581,15.86L18.594,15.846ZM31.145,15.847L31.155,15.859L31.145,15.847ZM18.622,15.815L18.61,15.828L18.622,15.815ZM31.115,15.816L31.126,15.827L31.115,15.816ZM18.651,15.784L18.639,15.797L18.651,15.784ZM31.086,15.785L31.097,15.796L31.086,15.785ZM18.68,15.753L18.668,15.766L18.68,15.753ZM31.057,15.754L31.067,15.765L31.057,15.754ZM18.71,15.723L18.698,15.735L18.71,15.723ZM31.027,15.723L31.037,15.733L31.027,15.723ZM18.739,15.692L18.73,15.702L18.739,15.692ZM30.998,15.693L31.003,15.698L30.998,15.693ZM18.775,15.656L18.769,15.662L18.775,15.656ZM30.965,15.659L30.967,15.662L30.965,15.659ZM18.81,15.621L18.799,15.632L18.81,15.621ZM30.928,15.622L30.937,15.632L30.928,15.622ZM18.842,15.59L18.83,15.602L18.842,15.59ZM30.895,15.591L30.907,15.602L30.895,15.591ZM18.873,15.56L18.86,15.572L18.873,15.56ZM30.864,15.56L30.876,15.572L30.864,15.56ZM18.904,15.53L18.891,15.543L18.904,15.53ZM30.832,15.53L30.846,15.543L30.832,15.53ZM30.801,15.5L30.814,15.513L30.801,15.5ZM18.936,15.501L18.923,15.513L18.936,15.501ZM30.769,15.471L30.783,15.484L30.769,15.471ZM18.967,15.471L18.954,15.483L18.967,15.471ZM30.738,15.442L30.751,15.454L30.738,15.442ZM18.999,15.442L18.986,15.454L18.999,15.442ZM30.706,15.413L30.719,15.425L30.706,15.413ZM19.031,15.413L19.019,15.424L19.031,15.413ZM30.674,15.384L30.684,15.394L30.674,15.384ZM19.063,15.385L19.056,15.391L19.063,15.385ZM30.63,15.346L30.642,15.356L30.63,15.346ZM19.101,15.35L19.095,15.356L19.101,15.35ZM30.595,15.315L30.61,15.328L30.595,15.315ZM19.139,15.318L19.128,15.327L19.139,15.318ZM30.561,15.286L30.577,15.3L30.561,15.286ZM19.173,15.288L19.161,15.299L19.173,15.288ZM30.528,15.258L30.544,15.272L30.528,15.258ZM19.207,15.26L19.194,15.271L19.207,15.26ZM30.494,15.23L30.511,15.244L30.494,15.23ZM19.241,15.231L19.227,15.243L19.241,15.231ZM30.461,15.202L30.478,15.216L30.461,15.202ZM19.274,15.204L19.261,15.215L19.274,15.204ZM30.427,15.175L30.444,15.189L30.427,15.175ZM19.308,15.176L19.295,15.187L19.308,15.176ZM30.393,15.147L30.41,15.161L30.393,15.147ZM19.342,15.149L19.33,15.158L19.342,15.149ZM30.359,15.12L30.376,15.134L30.359,15.12ZM19.377,15.121L19.366,15.129L19.377,15.121ZM30.325,15.093L30.343,15.107L30.305,15.078L30.325,15.093ZM19.411,15.094L19.409,15.096L19.411,15.094ZM30.273,15.053L30.292,15.068L30.273,15.053ZM19.452,15.062L19.446,15.067L19.452,15.062ZM30.238,15.027L30.257,15.041L30.238,15.027ZM19.492,15.032L19.481,15.04L19.492,15.032ZM30.203,15L30.222,15.015L30.203,15ZM19.529,15.004L19.516,15.013L19.529,15.004ZM30.168,14.974L30.187,14.989L30.168,14.974ZM19.565,14.977L19.552,14.987L19.565,14.977ZM30.132,14.948L30.152,14.963L30.132,14.948ZM19.601,14.951L19.588,14.961L19.601,14.951ZM30.097,14.922L30.117,14.937L30.097,14.922ZM19.637,14.925L19.624,14.934L19.637,14.925ZM30.061,14.897L30.081,14.911L30.061,14.897ZM19.673,14.899L19.661,14.908L19.673,14.899ZM30.025,14.871L30.046,14.886L30.025,14.871ZM19.71,14.873L19.698,14.881L19.71,14.873ZM29.988,14.846L30.011,14.862L29.988,14.846ZM19.746,14.848L19.738,14.853L19.746,14.848ZM29.954,14.822L29.915,14.796C29.928,14.805 29.941,14.813 29.954,14.822ZM19.826,14.793L19.821,14.796L19.826,14.793ZM29.858,14.758L29.881,14.773L29.858,14.758ZM19.868,14.765L19.858,14.771L19.868,14.765ZM29.822,14.734L29.845,14.749L29.822,14.734ZM19.907,14.739L19.896,14.747L19.907,14.739ZM29.785,14.71L29.807,14.724L29.785,14.71ZM19.946,14.714L19.933,14.722L19.946,14.714ZM29.747,14.686L29.77,14.7L29.747,14.686ZM19.984,14.689L19.971,14.697L19.984,14.689ZM29.71,14.662L29.733,14.676L29.71,14.662ZM20.023,14.665L20.01,14.673L20.023,14.665ZM29.672,14.638L29.696,14.653L29.672,14.638ZM20.061,14.641L20.049,14.648L20.061,14.641ZM29.634,14.615L29.659,14.63L29.634,14.615ZM20.099,14.617L20.09,14.623L20.099,14.617ZM29.494,14.531C29.537,14.556 29.58,14.582 29.623,14.608C29.581,14.582 29.538,14.556 29.494,14.531ZM20.138,14.593L20.134,14.596L20.138,14.593ZM20.221,14.543L20.218,14.545L20.221,14.543ZM29.458,14.51L29.483,14.525L29.458,14.51ZM20.266,14.517L20.257,14.522L20.266,14.517ZM29.42,14.488L29.444,14.502L29.42,14.488ZM20.308,14.493L20.297,14.499L20.308,14.493ZM29.381,14.466L29.405,14.48L29.381,14.466ZM20.349,14.47L20.337,14.477L20.349,14.47ZM29.341,14.444L29.366,14.457L29.341,14.444ZM20.389,14.447L20.377,14.454L20.389,14.447ZM29.302,14.422L29.327,14.436L29.302,14.422ZM20.43,14.425L20.418,14.431L20.43,14.425ZM29.262,14.4L29.288,14.414L29.262,14.4ZM20.47,14.403L20.46,14.408L20.47,14.403ZM29.222,14.379L29.249,14.393L29.222,14.379ZM20.51,14.381L20.503,14.385L20.51,14.381ZM29.186,14.359L29.143,14.337C29.157,14.344 29.171,14.352 29.186,14.359ZM29.077,14.303L29.105,14.317L29.077,14.303ZM20.638,14.314L20.636,14.315L20.638,14.314ZM29.038,14.283L29.064,14.296L29.038,14.283ZM20.685,14.29L20.677,14.294L20.685,14.29ZM28.998,14.263L29.023,14.276L28.998,14.263ZM20.729,14.268L20.719,14.273L20.729,14.268ZM28.957,14.243L28.982,14.255L28.957,14.243ZM20.772,14.247L20.761,14.252L20.772,14.247ZM28.916,14.223L28.941,14.235L28.916,14.223ZM20.814,14.226L20.803,14.232L20.814,14.226ZM28.875,14.203L28.899,14.215L28.875,14.203ZM20.857,14.206L20.846,14.211L20.857,14.206ZM28.833,14.184L28.858,14.195L28.833,14.184ZM20.899,14.186L20.891,14.19L20.899,14.186ZM28.791,14.164L28.817,14.176L28.791,14.164ZM20.942,14.166L20.937,14.168L20.942,14.166ZM28.752,14.146L28.707,14.126C28.722,14.133 28.737,14.139 28.752,14.146ZM28.643,14.097L28.667,14.108L28.643,14.097ZM21.075,14.106L21.074,14.106L21.075,14.106ZM28.601,14.079L28.624,14.089L28.601,14.079ZM21.124,14.084L21.117,14.087L21.124,14.084ZM28.558,14.061L28.581,14.071L28.558,14.061ZM21.17,14.065L21.161,14.068L21.17,14.065ZM28.516,14.043L28.538,14.052L28.516,14.043ZM21.215,14.046L21.204,14.05L21.215,14.046ZM28.473,14.025L28.494,14.034L28.473,14.025ZM21.259,14.027L21.249,14.031L21.259,14.027ZM28.429,14.007L28.451,14.016L28.429,14.007ZM21.303,14.009L21.294,14.013L21.303,14.009ZM28.386,13.989L28.406,13.998L28.386,13.989ZM21.347,13.991L21.341,13.994L21.347,13.991ZM28.342,13.972L28.361,13.979L28.342,13.972ZM21.392,13.973L21.391,13.974L21.392,13.973ZM28.298,13.955L28.311,13.96L28.298,13.955ZM28.243,13.934L28.254,13.938L28.243,13.934ZM28.195,13.915L28.21,13.921L28.195,13.915ZM21.531,13.92L21.53,13.92L21.531,13.92ZM28.149,13.898L28.165,13.904L28.149,13.898ZM21.581,13.901L21.575,13.903L21.581,13.901ZM28.103,13.882L28.119,13.888L28.103,13.882ZM21.629,13.884L21.62,13.887L21.629,13.884ZM28.058,13.866L28.074,13.871L28.058,13.866ZM21.675,13.867L21.666,13.87L21.675,13.867ZM28.013,13.85L28.028,13.855L28.013,13.85ZM21.721,13.851L21.713,13.854L21.721,13.851ZM27.968,13.834L27.981,13.839L27.968,13.834ZM21.767,13.835L21.76,13.837L21.767,13.835ZM27.922,13.819L27.932,13.822L27.922,13.819ZM21.813,13.819L21.809,13.821L21.813,13.819ZM27.877,13.803L27.879,13.804L27.877,13.803Z" style="fill:none;stroke:black;stroke-width:1.22px;"/>
            </g>
            <g transform="matrix(55.8954,0,0,49.2765,-878.032,-330.791)">
                <path d="M25.128,19.358C24.963,19.04 24.868,18.67 24.868,18.275C24.868,17.096 25.713,16.138 26.753,16.138C27.793,16.138 28.637,17.096 28.637,18.275C28.637,19.031 28.291,19.696 27.768,20.076C27.128,19.668 26.188,19.396 25.128,19.358ZM21.969,20.076C21.446,19.696 21.099,19.031 21.099,18.275C21.099,17.096 21.944,16.138 22.984,16.138C24.024,16.138 24.868,17.096 24.868,18.275C24.868,18.67 24.774,19.04 24.609,19.358C23.549,19.396 22.609,19.668 21.969,20.076Z" style="fill:none;stroke:black;stroke-width:1.22px;"/>
            </g>
            <g transform="matrix(1,0,0,1,-53.1856,50.0357)">
                <ellipse cx="565.186" cy="671.455" rx="210.672" ry="98.631" style="fill:none;stroke:black;stroke-width:63.81px;"/>
            </g>
            <g transform="matrix(51.2,0,0,45.1371,0.670978,88.9676)">
                <path d="M12.057,13.791C12.057,13.668 11.958,13.568 11.835,13.568L8.139,13.568C8.016,13.568 7.916,13.668 7.916,13.791L7.916,14.236C7.916,14.359 8.016,14.458 8.139,14.458L11.835,14.458C11.958,14.458 12.057,14.359 12.057,14.236L12.057,13.791Z"/>
            </g>
        </g>
    </g>
</svg>
