<?xml version="1.0" encoding="UTF-8" standalone="no"?>
<!DOCTYPE svg PUBLIC "-//W3C//DTD SVG 1.1//EN" "http://www.w3.org/Graphics/SVG/1.1/DTD/svg11.dtd">
<svg width="100%" height="100%" viewBox="0 0 120 380" version="1.1" xmlns="http://www.w3.org/2000/svg" xmlns:xlink="http://www.w3.org/1999/xlink" xml:space="preserve" xmlns:serif="http://www.serif.com/" style="fill-rule:evenodd;clip-rule:evenodd;stroke-linecap:round;stroke-linejoin:round;stroke-miterlimit:1.5;">
    <g transform="matrix(0.576683,0,0,2.01589,-30.3085,-120.797)">
        <rect x="52.556" y="59.922" width="208.087" height="188.503" style="fill:rgb(102,126,153);"/>
    </g>
    <g>
        <g transform="matrix(0.833333,0,0,1,60,-1.86841)">
            <rect x="0" y="370" width="60" height="3.737" style="fill:rgb(5,5,5);"/>
        </g>
        <g transform="matrix(6.12323e-17,1,-1,6.12323e-17,461.64,276.746)">
            <path d="M93.254,341.64L99.405,357.806L87.104,357.806L93.254,341.64Z" style="fill:rgb(5,5,5);"/>
        </g>
    </g>
    <g transform="matrix(1,0,0,1,73.7884,-108.347)">
        <g transform="matrix(1,0,0,1,-0.727581,47.3447)">
            <g id="End-output" serif:id="End#output" transform="matrix(0.175002,0,0,0.175002,-12.3416,338.088)">
                <rect x="53.94" y="106.916" width="161.978" height="161.978" style="fill:rgb(77,77,77);"/>
            </g>
            <g transform="matrix(1,0,0,1,-83.6217,233.571)">
                <path d="M92.568,116.156L90.548,116.156L90.548,116.846C90.548,117.006 90.593,117.13 90.683,117.216C90.773,117.303 90.895,117.346 91.048,117.346C91.241,117.346 91.37,117.29 91.433,117.176C91.496,117.063 91.535,116.95 91.548,116.836L92.568,116.836C92.568,117.283 92.431,117.643 92.158,117.916C92.025,118.056 91.865,118.166 91.678,118.246C91.491,118.326 91.281,118.366 91.048,118.366C90.728,118.366 90.456,118.3 90.233,118.166C90.01,118.033 89.838,117.856 89.718,117.636C89.645,117.503 89.595,117.35 89.568,117.176C89.541,117.003 89.528,116.813 89.528,116.606L89.528,114.936C89.528,114.73 89.541,114.54 89.568,114.366C89.595,114.193 89.645,114.04 89.718,113.906C89.838,113.686 90.01,113.51 90.233,113.376C90.456,113.243 90.728,113.176 91.048,113.176C91.281,113.176 91.493,113.216 91.683,113.296C91.873,113.376 92.035,113.486 92.168,113.626C92.435,113.926 92.568,114.303 92.568,114.756L92.568,116.156ZM90.548,115.356L91.548,115.356L91.548,114.776C91.548,114.583 91.503,114.438 91.413,114.341C91.323,114.245 91.201,114.196 91.048,114.196C90.895,114.196 90.773,114.245 90.683,114.341C90.593,114.438 90.548,114.583 90.548,114.776L90.548,115.356Z" style="fill-rule:nonzero;"/>
                <path d="M93.318,118.306L93.318,113.236L94.338,113.236L94.338,113.726L94.358,113.726C94.465,113.566 94.593,113.435 94.743,113.331C94.893,113.228 95.085,113.176 95.318,113.176C95.445,113.176 95.571,113.198 95.698,113.241C95.825,113.285 95.938,113.356 96.038,113.456C96.138,113.556 96.218,113.685 96.278,113.841C96.338,113.998 96.368,114.19 96.368,114.416L96.368,118.306L95.348,118.306L95.348,114.796C95.348,114.61 95.305,114.463 95.218,114.356C95.131,114.25 95.008,114.196 94.848,114.196C94.655,114.196 94.521,114.256 94.448,114.376C94.375,114.496 94.338,114.67 94.338,114.896L94.338,118.306L93.318,118.306Z" style="fill-rule:nonzero;"/>
                <path d="M98.228,116.656C98.228,116.863 98.268,117.03 98.348,117.156C98.428,117.283 98.555,117.346 98.728,117.346C98.881,117.346 99.005,117.288 99.098,117.171C99.191,117.055 99.238,116.903 99.238,116.716L99.238,114.746C99.238,114.586 99.19,114.455 99.093,114.351C98.996,114.248 98.875,114.196 98.728,114.196C98.535,114.196 98.403,114.256 98.333,114.376C98.263,114.496 98.228,114.636 98.228,114.796L98.228,116.656ZM99.238,118.306L99.238,117.846C99.171,117.92 99.108,117.988 99.048,118.051C98.988,118.115 98.921,118.17 98.848,118.216C98.775,118.263 98.691,118.3 98.598,118.326C98.505,118.353 98.395,118.366 98.268,118.366C97.841,118.366 97.545,118.206 97.378,117.886C97.318,117.773 97.275,117.633 97.248,117.466C97.221,117.3 97.208,117.076 97.208,116.796L97.208,114.866C97.208,114.5 97.218,114.23 97.238,114.056C97.278,113.723 97.435,113.473 97.708,113.306C97.835,113.22 98.025,113.176 98.278,113.176C98.478,113.176 98.656,113.221 98.813,113.311C98.97,113.401 99.105,113.53 99.218,113.696L99.238,113.696L99.238,111.186L100.258,111.186L100.258,118.306L99.238,118.306Z" style="fill-rule:nonzero;"/>
            </g>
            <g transform="matrix(1,0,0,1,-83.6217,233.571)">
                <text x="89.198px" y="118.306px" style="font-family:'DINCondensed-Bold', 'DIN Condensed';font-weight:700;font-stretch:condensed;font-size:10px;">end</text>
            </g>
        </g>
        <g transform="matrix(1,0,0,1,-107.397,219.053)">
            <g id="Loop-ledbutton" serif:id="Loop#ledbutton" transform="matrix(1,0,0,1,16.6328,-159.437)">
                <circle cx="101.308" cy="310.24" r="9.898" style="fill:rgb(115,115,115);"/>
            </g>
            <g transform="matrix(1,0,0,1,22.8821,14.9374)">
                <path d="M89.558,111.186L90.578,111.186L90.578,116.876C90.578,117.07 90.613,117.201 90.683,117.271C90.753,117.341 90.885,117.386 91.078,117.406L91.078,118.366C90.845,118.366 90.635,118.348 90.448,118.311C90.261,118.275 90.101,118.203 89.968,118.096C89.835,117.996 89.733,117.855 89.663,117.671C89.593,117.488 89.558,117.246 89.558,116.946L89.558,111.186Z" style="fill-rule:nonzero;"/>
                <path d="M91.388,114.936C91.388,114.73 91.401,114.54 91.428,114.366C91.455,114.193 91.505,114.04 91.578,113.906C91.698,113.686 91.87,113.51 92.093,113.376C92.316,113.243 92.588,113.176 92.908,113.176C93.228,113.176 93.5,113.243 93.723,113.376C93.946,113.51 94.118,113.686 94.238,113.906C94.311,114.04 94.361,114.193 94.388,114.366C94.415,114.54 94.428,114.73 94.428,114.936L94.428,116.606C94.428,116.813 94.415,117.003 94.388,117.176C94.361,117.35 94.311,117.503 94.238,117.636C94.118,117.856 93.946,118.033 93.723,118.166C93.5,118.3 93.228,118.366 92.908,118.366C92.588,118.366 92.316,118.3 92.093,118.166C91.87,118.033 91.698,117.856 91.578,117.636C91.505,117.503 91.455,117.35 91.428,117.176C91.401,117.003 91.388,116.813 91.388,116.606L91.388,114.936ZM92.408,116.766C92.408,116.96 92.453,117.105 92.543,117.201C92.633,117.298 92.755,117.346 92.908,117.346C93.061,117.346 93.183,117.298 93.273,117.201C93.363,117.105 93.408,116.96 93.408,116.766L93.408,114.776C93.408,114.583 93.363,114.438 93.273,114.341C93.183,114.245 93.061,114.196 92.908,114.196C92.755,114.196 92.633,114.245 92.543,114.341C92.453,114.438 92.408,114.583 92.408,114.776L92.408,116.766Z" style="fill-rule:nonzero;"/>
                <path d="M95.088,114.936C95.088,114.73 95.101,114.54 95.128,114.366C95.155,114.193 95.205,114.04 95.278,113.906C95.398,113.686 95.57,113.51 95.793,113.376C96.016,113.243 96.288,113.176 96.608,113.176C96.928,113.176 97.2,113.243 97.423,113.376C97.646,113.51 97.818,113.686 97.938,113.906C98.011,114.04 98.061,114.193 98.088,114.366C98.115,114.54 98.128,114.73 98.128,114.936L98.128,116.606C98.128,116.813 98.115,117.003 98.088,117.176C98.061,117.35 98.011,117.503 97.938,117.636C97.818,117.856 97.646,118.033 97.423,118.166C97.2,118.3 96.928,118.366 96.608,118.366C96.288,118.366 96.016,118.3 95.793,118.166C95.57,118.033 95.398,117.856 95.278,117.636C95.205,117.503 95.155,117.35 95.128,117.176C95.101,117.003 95.088,116.813 95.088,116.606L95.088,114.936ZM96.108,116.766C96.108,116.96 96.153,117.105 96.243,117.201C96.333,117.298 96.455,117.346 96.608,117.346C96.761,117.346 96.883,117.298 96.973,117.201C97.063,117.105 97.108,116.96 97.108,116.766L97.108,114.776C97.108,114.583 97.063,114.438 96.973,114.341C96.883,114.245 96.761,114.196 96.608,114.196C96.455,114.196 96.333,114.245 96.243,114.341C96.153,114.438 96.108,114.583 96.108,114.776L96.108,116.766Z" style="fill-rule:nonzero;"/>
                <path d="M98.878,120.356L98.878,113.236L99.898,113.236L99.898,113.696C100.025,113.55 100.155,113.426 100.288,113.326C100.421,113.226 100.615,113.176 100.868,113.176C101.288,113.176 101.585,113.336 101.758,113.656C101.818,113.77 101.861,113.91 101.888,114.076C101.915,114.243 101.928,114.466 101.928,114.746L101.928,116.676C101.928,117.05 101.918,117.32 101.898,117.486C101.858,117.82 101.705,118.07 101.438,118.236C101.305,118.323 101.111,118.366 100.858,118.366C100.658,118.366 100.48,118.321 100.323,118.231C100.166,118.141 100.031,118.013 99.918,117.846L99.898,117.846L99.898,120.356L98.878,120.356ZM100.908,114.886C100.908,114.68 100.868,114.513 100.788,114.386C100.708,114.26 100.581,114.196 100.408,114.196C100.255,114.196 100.131,114.255 100.038,114.371C99.945,114.488 99.898,114.64 99.898,114.826L99.898,116.796C99.898,116.956 99.946,117.088 100.043,117.191C100.14,117.295 100.261,117.346 100.408,117.346C100.601,117.346 100.733,117.286 100.803,117.166C100.873,117.046 100.908,116.906 100.908,116.746L100.908,114.886Z" style="fill-rule:nonzero;"/>
            </g>
            <g transform="matrix(1,0,0,1,22.8821,14.9374)">
                <text x="89.198px" y="118.306px" style="font-family:'DINCondensed-Bold', 'DIN Condensed';font-weight:700;font-stretch:condensed;font-size:10px;">loop</text>
            </g>
        </g>
    </g>
    <g transform="matrix(1,0,0,1,-82.7798,59.2913)">
        <g>
            <g id="Reset-input" serif:id="Reset#input" transform="matrix(0.175002,0,0,0.175002,94.1072,263.652)">
                <rect x="53.94" y="106.916" width="161.978" height="161.978" style="fill:rgb(217,217,217);"/>
            </g>
            <g transform="matrix(1,0,0,1,20.4271,159.225)">
                <path d="M89.618,118.306L89.618,113.236L90.638,113.236L90.638,113.776C90.845,113.59 91.048,113.443 91.248,113.336C91.448,113.23 91.695,113.176 91.988,113.176L91.988,114.256C91.888,114.216 91.785,114.196 91.678,114.196C91.571,114.196 91.456,114.215 91.333,114.251C91.21,114.288 91.098,114.35 90.998,114.436C90.891,114.523 90.805,114.636 90.738,114.776C90.671,114.916 90.638,115.09 90.638,115.296L90.638,118.306L89.618,118.306Z" style="fill-rule:nonzero;"/>
                <path d="M95.348,116.156L93.328,116.156L93.328,116.846C93.328,117.006 93.373,117.13 93.463,117.216C93.553,117.303 93.675,117.346 93.828,117.346C94.021,117.346 94.15,117.29 94.213,117.176C94.276,117.063 94.315,116.95 94.328,116.836L95.348,116.836C95.348,117.283 95.211,117.643 94.938,117.916C94.805,118.056 94.645,118.166 94.458,118.246C94.271,118.326 94.061,118.366 93.828,118.366C93.508,118.366 93.236,118.3 93.013,118.166C92.79,118.033 92.618,117.856 92.498,117.636C92.425,117.503 92.375,117.35 92.348,117.176C92.321,117.003 92.308,116.813 92.308,116.606L92.308,114.936C92.308,114.73 92.321,114.54 92.348,114.366C92.375,114.193 92.425,114.04 92.498,113.906C92.618,113.686 92.79,113.51 93.013,113.376C93.236,113.243 93.508,113.176 93.828,113.176C94.061,113.176 94.273,113.216 94.463,113.296C94.653,113.376 94.815,113.486 94.948,113.626C95.215,113.926 95.348,114.303 95.348,114.756L95.348,116.156ZM93.328,115.356L94.328,115.356L94.328,114.776C94.328,114.583 94.283,114.438 94.193,114.341C94.103,114.245 93.981,114.196 93.828,114.196C93.675,114.196 93.553,114.245 93.463,114.341C93.373,114.438 93.328,114.583 93.328,114.776L93.328,115.356Z" style="fill-rule:nonzero;"/>
                <path d="M97.948,114.656C97.941,114.483 97.886,114.353 97.783,114.266C97.68,114.18 97.561,114.136 97.428,114.136C97.268,114.136 97.145,114.188 97.058,114.291C96.971,114.395 96.928,114.513 96.928,114.646C96.928,114.74 96.951,114.831 96.998,114.921C97.045,115.011 97.165,115.093 97.358,115.166L97.958,115.406C98.338,115.553 98.6,115.753 98.743,116.006C98.886,116.26 98.958,116.536 98.958,116.836C98.958,117.05 98.92,117.248 98.843,117.431C98.766,117.615 98.661,117.776 98.528,117.916C98.395,118.056 98.235,118.166 98.048,118.246C97.861,118.326 97.658,118.366 97.438,118.366C97.025,118.366 96.678,118.236 96.398,117.976C96.258,117.85 96.145,117.691 96.058,117.501C95.971,117.311 95.925,117.09 95.918,116.836L96.878,116.836C96.898,116.976 96.946,117.106 97.023,117.226C97.1,117.346 97.235,117.406 97.428,117.406C97.575,117.406 97.706,117.358 97.823,117.261C97.94,117.165 97.998,117.03 97.998,116.856C97.998,116.716 97.961,116.596 97.888,116.496C97.815,116.396 97.681,116.31 97.488,116.236L96.998,116.056C96.678,115.936 96.426,115.758 96.243,115.521C96.06,115.285 95.968,114.996 95.968,114.656C95.968,114.443 96.008,114.245 96.088,114.061C96.168,113.878 96.278,113.72 96.418,113.586C96.551,113.453 96.708,113.351 96.888,113.281C97.068,113.211 97.261,113.176 97.468,113.176C97.675,113.176 97.866,113.213 98.043,113.286C98.22,113.36 98.371,113.463 98.498,113.596C98.625,113.73 98.725,113.888 98.798,114.071C98.871,114.255 98.908,114.45 98.908,114.656L97.948,114.656Z" style="fill-rule:nonzero;"/>
                <path d="M102.568,116.156L100.548,116.156L100.548,116.846C100.548,117.006 100.593,117.13 100.683,117.216C100.773,117.303 100.895,117.346 101.048,117.346C101.241,117.346 101.37,117.29 101.433,117.176C101.496,117.063 101.535,116.95 101.548,116.836L102.568,116.836C102.568,117.283 102.431,117.643 102.158,117.916C102.025,118.056 101.865,118.166 101.678,118.246C101.491,118.326 101.281,118.366 101.048,118.366C100.728,118.366 100.456,118.3 100.233,118.166C100.01,118.033 99.838,117.856 99.718,117.636C99.645,117.503 99.595,117.35 99.568,117.176C99.541,117.003 99.528,116.813 99.528,116.606L99.528,114.936C99.528,114.73 99.541,114.54 99.568,114.366C99.595,114.193 99.645,114.04 99.718,113.906C99.838,113.686 100.01,113.51 100.233,113.376C100.456,113.243 100.728,113.176 101.048,113.176C101.281,113.176 101.493,113.216 101.683,113.296C101.873,113.376 102.035,113.486 102.168,113.626C102.435,113.926 102.568,114.303 102.568,114.756L102.568,116.156ZM100.548,115.356L101.548,115.356L101.548,114.776C101.548,114.583 101.503,114.438 101.413,114.341C101.323,114.245 101.201,114.196 101.048,114.196C100.895,114.196 100.773,114.245 100.683,114.341C100.593,114.438 100.548,114.583 100.548,114.776L100.548,115.356Z" style="fill-rule:nonzero;"/>
                <path d="M103.318,113.236L103.318,111.696L104.338,111.696L104.338,113.236L104.968,113.236L104.968,114.036L104.338,114.036L104.338,116.846C104.338,116.966 104.35,117.06 104.373,117.126C104.396,117.193 104.435,117.243 104.488,117.276C104.541,117.31 104.606,117.33 104.683,117.336C104.76,117.343 104.855,117.346 104.968,117.346L104.968,118.306L104.548,118.306C104.315,118.306 104.12,118.27 103.963,118.196C103.806,118.123 103.681,118.03 103.588,117.916C103.495,117.803 103.426,117.675 103.383,117.531C103.34,117.388 103.318,117.25 103.318,117.116L103.318,114.036L102.808,114.036L102.808,113.236L103.318,113.236Z" style="fill-rule:nonzero;"/>
            </g>
            <g transform="matrix(1,0,0,1,20.4271,159.225)">
                <text x="89.198px" y="118.306px" style="font-family:'DINCondensed-Bold', 'DIN Condensed';font-weight:700;font-stretch:condensed;font-size:10px;">reset</text>
            </g>
        </g>
        <g transform="matrix(1,0,0,1,0,3)">
            <g id="Clock-input" serif:id="Clock#input" transform="matrix(0.175002,0,0,0.175002,94.1072,214.527)">
                <rect x="53.94" y="106.916" width="161.978" height="161.978" style="fill:rgb(217,217,217);"/>
            </g>
            <g transform="matrix(1,0,0,1,20.7463,110.854)">
                <path d="M90.698,116.846C90.698,117.006 90.743,117.13 90.833,117.216C90.923,117.303 91.045,117.346 91.198,117.346C91.391,117.346 91.52,117.29 91.583,117.176C91.646,117.063 91.685,116.95 91.698,116.836L92.718,116.836C92.718,117.283 92.581,117.643 92.308,117.916C92.175,118.056 92.015,118.166 91.828,118.246C91.641,118.326 91.431,118.366 91.198,118.366C90.878,118.366 90.606,118.3 90.383,118.166C90.16,118.033 89.988,117.856 89.868,117.636C89.795,117.503 89.745,117.35 89.718,117.176C89.691,117.003 89.678,116.813 89.678,116.606L89.678,114.936C89.678,114.73 89.691,114.54 89.718,114.366C89.745,114.193 89.795,114.04 89.868,113.906C89.988,113.686 90.16,113.51 90.383,113.376C90.606,113.243 90.878,113.176 91.198,113.176C91.431,113.176 91.643,113.216 91.833,113.296C92.023,113.376 92.185,113.486 92.318,113.626C92.585,113.926 92.718,114.316 92.718,114.796L91.698,114.796C91.698,114.59 91.653,114.438 91.563,114.341C91.473,114.245 91.351,114.196 91.198,114.196C91.045,114.196 90.923,114.245 90.833,114.341C90.743,114.438 90.698,114.583 90.698,114.776L90.698,116.846Z" style="fill-rule:nonzero;"/>
                <path d="M93.138,111.186L94.158,111.186L94.158,116.876C94.158,117.07 94.193,117.201 94.263,117.271C94.333,117.341 94.465,117.386 94.658,117.406L94.658,118.366C94.425,118.366 94.215,118.348 94.028,118.311C93.841,118.275 93.681,118.203 93.548,118.096C93.415,117.996 93.313,117.855 93.243,117.671C93.173,117.488 93.138,117.246 93.138,116.946L93.138,111.186Z" style="fill-rule:nonzero;"/>
                <path d="M94.968,114.936C94.968,114.73 94.981,114.54 95.008,114.366C95.035,114.193 95.085,114.04 95.158,113.906C95.278,113.686 95.45,113.51 95.673,113.376C95.896,113.243 96.168,113.176 96.488,113.176C96.808,113.176 97.08,113.243 97.303,113.376C97.526,113.51 97.698,113.686 97.818,113.906C97.891,114.04 97.941,114.193 97.968,114.366C97.995,114.54 98.008,114.73 98.008,114.936L98.008,116.606C98.008,116.813 97.995,117.003 97.968,117.176C97.941,117.35 97.891,117.503 97.818,117.636C97.698,117.856 97.526,118.033 97.303,118.166C97.08,118.3 96.808,118.366 96.488,118.366C96.168,118.366 95.896,118.3 95.673,118.166C95.45,118.033 95.278,117.856 95.158,117.636C95.085,117.503 95.035,117.35 95.008,117.176C94.981,117.003 94.968,116.813 94.968,116.606L94.968,114.936ZM95.988,116.766C95.988,116.96 96.033,117.105 96.123,117.201C96.213,117.298 96.335,117.346 96.488,117.346C96.641,117.346 96.763,117.298 96.853,117.201C96.943,117.105 96.988,116.96 96.988,116.766L96.988,114.776C96.988,114.583 96.943,114.438 96.853,114.341C96.763,114.245 96.641,114.196 96.488,114.196C96.335,114.196 96.213,114.245 96.123,114.341C96.033,114.438 95.988,114.583 95.988,114.776L95.988,116.766Z" style="fill-rule:nonzero;"/>
                <path d="M99.838,116.846C99.838,117.006 99.883,117.13 99.973,117.216C100.063,117.303 100.185,117.346 100.338,117.346C100.531,117.346 100.66,117.29 100.723,117.176C100.786,117.063 100.825,116.95 100.838,116.836L101.858,116.836C101.858,117.283 101.721,117.643 101.448,117.916C101.315,118.056 101.155,118.166 100.968,118.246C100.781,118.326 100.571,118.366 100.338,118.366C100.018,118.366 99.746,118.3 99.523,118.166C99.3,118.033 99.128,117.856 99.008,117.636C98.935,117.503 98.885,117.35 98.858,117.176C98.831,117.003 98.818,116.813 98.818,116.606L98.818,114.936C98.818,114.73 98.831,114.54 98.858,114.366C98.885,114.193 98.935,114.04 99.008,113.906C99.128,113.686 99.3,113.51 99.523,113.376C99.746,113.243 100.018,113.176 100.338,113.176C100.571,113.176 100.783,113.216 100.973,113.296C101.163,113.376 101.325,113.486 101.458,113.626C101.725,113.926 101.858,114.316 101.858,114.796L100.838,114.796C100.838,114.59 100.793,114.438 100.703,114.341C100.613,114.245 100.491,114.196 100.338,114.196C100.185,114.196 100.063,114.245 99.973,114.341C99.883,114.438 99.838,114.583 99.838,114.776L99.838,116.846Z" style="fill-rule:nonzero;"/>
                <path d="M102.338,118.306L102.338,111.186L103.358,111.186L103.358,115.446L103.378,115.446L104.608,113.236L105.628,113.236L104.418,115.296L105.878,118.306L104.768,118.306L103.848,116.116L103.358,116.886L103.358,118.306L102.338,118.306Z" style="fill-rule:nonzero;"/>
            </g>
            <g transform="matrix(1,0,0,1,20.7463,110.854)">
                <text x="89.198px" y="118.306px" style="font-family:'DINCondensed-Bold', 'DIN Condensed';font-weight:700;font-stretch:condensed;font-size:10px;">c<tspan x="92.778px 94.638px 98.338px 101.918px " y="118.306px 118.306px 118.306px 118.306px ">lock</tspan></text>
            </g>
        </g>
        <g transform="matrix(1,0,0,1,0,-44)">
            <g id="Play-input" serif:id="Play#input" transform="matrix(0.175002,0,0,0.175002,94.1072,214.527)">
                <rect x="53.94" y="106.916" width="161.978" height="161.978" style="fill:rgb(217,217,217);"/>
            </g>
            <g transform="matrix(6.12323e-17,1,-0.546952,3.34912e-17,231.292,226.466)">
                <path d="M20.54,226.246L25.263,239.085L15.817,239.085L20.54,226.246Z" style="fill:rgb(5,5,5);"/>
            </g>
            <g transform="matrix(1,0,0,1,21.8821,109.692)">
                <path d="M89.618,120.356L89.618,113.236L90.638,113.236L90.638,113.696C90.765,113.55 90.895,113.426 91.028,113.326C91.161,113.226 91.355,113.176 91.608,113.176C92.028,113.176 92.325,113.336 92.498,113.656C92.558,113.77 92.601,113.91 92.628,114.076C92.655,114.243 92.668,114.466 92.668,114.746L92.668,116.676C92.668,117.05 92.658,117.32 92.638,117.486C92.598,117.82 92.445,118.07 92.178,118.236C92.045,118.323 91.851,118.366 91.598,118.366C91.398,118.366 91.22,118.321 91.063,118.231C90.906,118.141 90.771,118.013 90.658,117.846L90.638,117.846L90.638,120.356L89.618,120.356ZM91.648,114.886C91.648,114.68 91.608,114.513 91.528,114.386C91.448,114.26 91.321,114.196 91.148,114.196C90.995,114.196 90.871,114.255 90.778,114.371C90.685,114.488 90.638,114.64 90.638,114.826L90.638,116.796C90.638,116.956 90.686,117.088 90.783,117.191C90.88,117.295 91.001,117.346 91.148,117.346C91.341,117.346 91.473,117.286 91.543,117.166C91.613,117.046 91.648,116.906 91.648,116.746L91.648,114.886Z" style="fill-rule:nonzero;"/>
                <path d="M93.448,111.186L94.468,111.186L94.468,116.876C94.468,117.07 94.503,117.201 94.573,117.271C94.643,117.341 94.775,117.386 94.968,117.406L94.968,118.366C94.735,118.366 94.525,118.348 94.338,118.311C94.151,118.275 93.991,118.203 93.858,118.096C93.725,117.996 93.623,117.855 93.553,117.671C93.483,117.488 93.448,117.246 93.448,116.946L93.448,111.186Z" style="fill-rule:nonzero;"/>
                <path d="M97.298,118.306L97.298,117.786L97.278,117.786C97.145,117.973 97.01,118.116 96.873,118.216C96.736,118.316 96.545,118.366 96.298,118.366C96.178,118.366 96.056,118.348 95.933,118.311C95.81,118.275 95.691,118.206 95.578,118.106C95.465,118.013 95.373,117.878 95.303,117.701C95.233,117.525 95.198,117.296 95.198,117.016C95.198,116.73 95.221,116.478 95.268,116.261C95.315,116.045 95.401,115.863 95.528,115.716C95.648,115.576 95.811,115.471 96.018,115.401C96.225,115.331 96.488,115.296 96.808,115.296L96.918,115.296C96.958,115.296 96.995,115.3 97.028,115.306C97.061,115.313 97.101,115.316 97.148,115.316C97.195,115.316 97.245,115.32 97.298,115.326L97.298,114.796C97.298,114.623 97.261,114.48 97.188,114.366C97.115,114.253 96.981,114.196 96.788,114.196C96.655,114.196 96.533,114.24 96.423,114.326C96.313,114.413 96.241,114.54 96.208,114.706L95.218,114.706C95.245,114.253 95.398,113.886 95.678,113.606C95.811,113.473 95.971,113.368 96.158,113.291C96.345,113.215 96.555,113.176 96.788,113.176C97.001,113.176 97.201,113.21 97.388,113.276C97.575,113.343 97.738,113.443 97.878,113.576C98.011,113.71 98.118,113.876 98.198,114.076C98.278,114.276 98.318,114.51 98.318,114.776L98.318,118.306L97.298,118.306ZM97.298,116.126C97.185,116.106 97.091,116.096 97.018,116.096C96.798,116.096 96.61,116.148 96.453,116.251C96.296,116.355 96.218,116.543 96.218,116.816C96.218,117.01 96.265,117.166 96.358,117.286C96.451,117.406 96.581,117.466 96.748,117.466C96.921,117.466 97.056,117.41 97.153,117.296C97.25,117.183 97.298,117.023 97.298,116.816L97.298,116.126Z" style="fill-rule:nonzero;"/>
                <path d="M98.518,113.236L99.598,113.236L100.298,116.396L100.318,116.396L101.008,113.236L102.058,113.236L100.598,119.186C100.545,119.413 100.47,119.6 100.373,119.746C100.276,119.893 100.165,120.013 100.038,120.106C99.911,120.2 99.776,120.265 99.633,120.301C99.49,120.338 99.341,120.356 99.188,120.356L98.908,120.356L98.908,119.396L99.138,119.396C99.238,119.396 99.325,119.383 99.398,119.356C99.471,119.33 99.538,119.27 99.598,119.176C99.651,119.083 99.701,118.951 99.748,118.781C99.795,118.611 99.848,118.376 99.908,118.076L98.518,113.236Z" style="fill-rule:nonzero;"/>
            </g>
            <g transform="matrix(1,0,0,1,21.8821,109.692)">
                <text x="89.198px" y="118.306px" style="font-family:'DINCondensed-Bold', 'DIN Condensed';font-weight:700;font-stretch:condensed;font-size:10px;">pla<tspan x="98.528px " y="118.306px ">y</tspan></text>
            </g>
        </g>
    </g>
    <g id="Display-oled-100x135" serif:id="Display#oled$100x135" transform="matrix(2.12519,0,0,5.82695,-176.181,-339.435)">
        <rect x="87.136" y="70.02" width="47.996" height="23.511" style="fill:rgb(19,19,19);"/>
    </g>
    <g transform="matrix(1,0,0,1,184.356,-188.156)">
        <g id="Page-button" serif:id="Page#button" transform="matrix(0.758898,0,0,0.758898,-156.606,5.57189)">
            <circle cx="55.661" cy="308.513" r="7.929"/>
        </g>
        <g transform="matrix(1,0,0,1,-233.782,123.906)">
            <path d="M93.418,120.356L93.418,113.236L94.438,113.236L94.438,113.696C94.565,113.55 94.695,113.426 94.828,113.326C94.961,113.226 95.155,113.176 95.408,113.176C95.828,113.176 96.125,113.336 96.298,113.656C96.358,113.77 96.401,113.91 96.428,114.076C96.455,114.243 96.468,114.466 96.468,114.746L96.468,116.676C96.468,117.05 96.458,117.32 96.438,117.486C96.398,117.82 96.245,118.07 95.978,118.236C95.845,118.323 95.651,118.366 95.398,118.366C95.198,118.366 95.02,118.321 94.863,118.231C94.706,118.141 94.571,118.013 94.458,117.846L94.438,117.846L94.438,120.356L93.418,120.356ZM95.448,114.886C95.448,114.68 95.408,114.513 95.328,114.386C95.248,114.26 95.121,114.196 94.948,114.196C94.795,114.196 94.671,114.255 94.578,114.371C94.485,114.488 94.438,114.64 94.438,114.826L94.438,116.796C94.438,116.956 94.486,117.088 94.583,117.191C94.68,117.295 94.801,117.346 94.948,117.346C95.141,117.346 95.273,117.286 95.343,117.166C95.413,117.046 95.448,116.906 95.448,116.746L95.448,114.886Z" style="fill-rule:nonzero;"/>
            <path d="M99.238,118.306L99.238,117.786L99.218,117.786C99.085,117.973 98.95,118.116 98.813,118.216C98.676,118.316 98.485,118.366 98.238,118.366C98.118,118.366 97.996,118.348 97.873,118.311C97.75,118.275 97.631,118.206 97.518,118.106C97.405,118.013 97.313,117.878 97.243,117.701C97.173,117.525 97.138,117.296 97.138,117.016C97.138,116.73 97.161,116.478 97.208,116.261C97.255,116.045 97.341,115.863 97.468,115.716C97.588,115.576 97.751,115.471 97.958,115.401C98.165,115.331 98.428,115.296 98.748,115.296L98.858,115.296C98.898,115.296 98.935,115.3 98.968,115.306C99.001,115.313 99.041,115.316 99.088,115.316C99.135,115.316 99.185,115.32 99.238,115.326L99.238,114.796C99.238,114.623 99.201,114.48 99.128,114.366C99.055,114.253 98.921,114.196 98.728,114.196C98.595,114.196 98.473,114.24 98.363,114.326C98.253,114.413 98.181,114.54 98.148,114.706L97.158,114.706C97.185,114.253 97.338,113.886 97.618,113.606C97.751,113.473 97.911,113.368 98.098,113.291C98.285,113.215 98.495,113.176 98.728,113.176C98.941,113.176 99.141,113.21 99.328,113.276C99.515,113.343 99.678,113.443 99.818,113.576C99.951,113.71 100.058,113.876 100.138,114.076C100.218,114.276 100.258,114.51 100.258,114.776L100.258,118.306L99.238,118.306ZM99.238,116.126C99.125,116.106 99.031,116.096 98.958,116.096C98.738,116.096 98.55,116.148 98.393,116.251C98.236,116.355 98.158,116.543 98.158,116.816C98.158,117.01 98.205,117.166 98.298,117.286C98.391,117.406 98.521,117.466 98.688,117.466C98.861,117.466 98.996,117.41 99.093,117.296C99.19,117.183 99.238,117.023 99.238,116.816L99.238,116.126Z" style="fill-rule:nonzero;"/>
            <path d="M102.028,118.896C102.035,119.016 102.083,119.13 102.173,119.236C102.263,119.343 102.395,119.396 102.568,119.396C102.735,119.396 102.855,119.345 102.928,119.241C103.001,119.138 103.038,119.006 103.038,118.846L103.038,117.846L103.018,117.846C102.905,118.013 102.77,118.141 102.613,118.231C102.456,118.321 102.275,118.366 102.068,118.366C101.641,118.366 101.345,118.206 101.178,117.886C101.118,117.773 101.075,117.633 101.048,117.466C101.021,117.3 101.008,117.076 101.008,116.796L101.008,114.866C101.008,114.5 101.018,114.23 101.038,114.056C101.078,113.723 101.235,113.473 101.508,113.306C101.635,113.22 101.825,113.176 102.078,113.176C102.205,113.176 102.313,113.19 102.403,113.216C102.493,113.243 102.575,113.28 102.648,113.326C102.721,113.373 102.788,113.428 102.848,113.491C102.908,113.555 102.971,113.623 103.038,113.696L103.038,113.236L104.058,113.236L104.058,118.926C104.058,119.1 104.03,119.275 103.973,119.451C103.916,119.628 103.825,119.786 103.698,119.926C103.571,120.073 103.411,120.191 103.218,120.281C103.025,120.371 102.795,120.416 102.528,120.416C102.375,120.416 102.215,120.391 102.048,120.341C101.881,120.291 101.728,120.206 101.588,120.086C101.441,119.973 101.316,119.821 101.213,119.631C101.11,119.441 101.041,119.196 101.008,118.896L102.028,118.896ZM102.028,116.746C102.028,116.906 102.063,117.046 102.133,117.166C102.203,117.286 102.335,117.346 102.528,117.346C102.675,117.346 102.796,117.295 102.893,117.191C102.99,117.088 103.038,116.956 103.038,116.796L103.038,114.826C103.038,114.64 102.991,114.488 102.898,114.371C102.805,114.255 102.681,114.196 102.528,114.196C102.355,114.196 102.228,114.26 102.148,114.386C102.068,114.513 102.028,114.68 102.028,114.886L102.028,116.746Z" style="fill-rule:nonzero;"/>
            <path d="M107.848,116.156L105.828,116.156L105.828,116.846C105.828,117.006 105.873,117.13 105.963,117.216C106.053,117.303 106.175,117.346 106.328,117.346C106.521,117.346 106.65,117.29 106.713,117.176C106.776,117.063 106.815,116.95 106.828,116.836L107.848,116.836C107.848,117.283 107.711,117.643 107.438,117.916C107.305,118.056 107.145,118.166 106.958,118.246C106.771,118.326 106.561,118.366 106.328,118.366C106.008,118.366 105.736,118.3 105.513,118.166C105.29,118.033 105.118,117.856 104.998,117.636C104.925,117.503 104.875,117.35 104.848,117.176C104.821,117.003 104.808,116.813 104.808,116.606L104.808,114.936C104.808,114.73 104.821,114.54 104.848,114.366C104.875,114.193 104.925,114.04 104.998,113.906C105.118,113.686 105.29,113.51 105.513,113.376C105.736,113.243 106.008,113.176 106.328,113.176C106.561,113.176 106.773,113.216 106.963,113.296C107.153,113.376 107.315,113.486 107.448,113.626C107.715,113.926 107.848,114.303 107.848,114.756L107.848,116.156ZM105.828,115.356L106.828,115.356L106.828,114.776C106.828,114.583 106.783,114.438 106.693,114.341C106.603,114.245 106.481,114.196 106.328,114.196C106.175,114.196 106.053,114.245 105.963,114.341C105.873,114.438 105.828,114.583 105.828,114.776L105.828,115.356Z" style="fill-rule:nonzero;"/>
        </g>
        <g transform="matrix(1,0,0,1,-233.782,123.906)">
            <text x="92.998px" y="118.306px" style="font-family:'DINCondensed-Bold', 'DIN Condensed';font-weight:700;font-stretch:condensed;font-size:10px;">page</text>
        </g>
    </g>
    <g transform="matrix(0.816456,0,0,0.816456,24.7946,-226.739)">
        <g transform="matrix(1,0,0,1,-65.4614,-49.9274)">
            <path d="M85.301,354.379C85.36,354.614 85.565,354.761 85.918,354.82C86.006,354.83 86.051,354.879 86.051,354.967C86.051,355.016 86.026,355.06 85.977,355.099C85.928,355.138 85.864,355.158 85.786,355.158C85.639,355.158 85.443,355.148 85.198,355.129C84.953,355.109 84.605,355.099 84.155,355.099C83.792,355.099 83.474,355.111 83.199,355.136C82.925,355.16 82.758,355.178 82.699,355.187C82.65,355.187 82.616,355.173 82.597,355.143C82.577,355.114 82.567,355.08 82.567,355.04C82.567,355.001 82.575,354.962 82.589,354.923C82.604,354.884 82.626,354.864 82.655,354.864C82.724,354.854 82.793,354.835 82.861,354.805C82.93,354.776 82.993,354.737 83.052,354.688C83.082,354.658 83.118,354.501 83.162,354.217C83.207,353.933 83.246,353.558 83.28,353.093C83.314,352.628 83.344,352.091 83.368,351.484C83.393,350.876 83.405,350.234 83.405,349.558L83.405,347.971C83.405,347.481 83.38,347.084 83.331,346.78C83.243,346.134 83.037,345.636 82.714,345.288C82.391,344.941 82.014,344.767 81.582,344.767C81.2,344.767 80.823,344.872 80.451,345.083C80.078,345.293 79.745,345.602 79.451,346.009C79.157,346.415 78.92,346.92 78.738,347.523C78.557,348.125 78.467,348.813 78.467,349.588C78.467,350.44 78.562,351.182 78.753,351.814C78.944,352.446 79.197,352.975 79.51,353.402C79.824,353.828 80.184,354.146 80.59,354.357C80.997,354.568 81.421,354.673 81.862,354.673L81.943,354.673C81.977,354.673 82.004,354.668 82.023,354.658C82.063,354.639 82.087,354.639 82.097,354.658C82.107,354.678 82.107,354.705 82.097,354.739C82.087,354.773 82.075,354.808 82.06,354.842C82.045,354.876 82.028,354.898 82.009,354.908C81.911,354.977 81.773,355.038 81.597,355.092C81.421,355.146 81.176,355.173 80.862,355.173C80.343,355.173 79.826,355.053 79.312,354.813C78.797,354.573 78.337,354.237 77.93,353.806C77.523,353.375 77.195,352.853 76.945,352.24C76.695,351.628 76.571,350.954 76.571,350.22C76.571,349.171 76.722,348.275 77.026,347.53C77.33,346.785 77.744,346.178 78.268,345.707C78.792,345.237 79.4,344.892 80.091,344.671C80.781,344.451 81.519,344.34 82.303,344.34C82.587,344.34 82.846,344.37 83.082,344.429C83.317,344.487 83.523,344.559 83.699,344.642C83.875,344.725 84.02,344.806 84.132,344.884C84.245,344.963 84.321,345.021 84.36,345.061C84.439,345.002 84.598,344.931 84.838,344.848C85.078,344.764 85.352,344.686 85.661,344.612C85.97,344.539 86.291,344.475 86.624,344.421C86.957,344.367 87.261,344.34 87.535,344.34C88.28,344.36 88.934,344.483 89.497,344.708C90.061,344.933 90.531,345.235 90.908,345.612C91.285,345.989 91.569,346.425 91.761,346.92C91.952,347.415 92.047,347.941 92.047,348.5C92.047,349.548 91.908,350.482 91.628,351.3C91.349,352.118 90.974,352.811 90.504,353.38C90.034,353.948 89.49,354.381 88.872,354.68C88.255,354.979 87.608,355.129 86.932,355.129C86.874,355.129 86.834,355.107 86.815,355.062C86.795,355.018 86.788,354.972 86.793,354.923C86.798,354.874 86.815,354.832 86.844,354.798C86.874,354.764 86.903,354.751 86.932,354.761C86.981,354.781 87.021,354.791 87.05,354.791L87.168,354.791C87.569,354.791 87.947,354.653 88.299,354.379C88.652,354.105 88.961,353.725 89.225,353.24C89.49,352.755 89.698,352.182 89.85,351.52C90.002,350.859 90.078,350.136 90.078,349.352C90.078,347.892 89.855,346.756 89.409,345.943C88.963,345.129 88.275,344.723 87.344,344.723C87.06,344.723 86.795,344.781 86.55,344.899C86.305,345.017 86.092,345.171 85.911,345.362C85.73,345.553 85.583,345.771 85.47,346.016C85.357,346.261 85.286,346.511 85.257,346.766C85.208,347.109 85.178,347.657 85.169,348.412C85.159,349.166 85.149,350.077 85.139,351.146C85.129,351.929 85.137,352.613 85.161,353.196C85.186,353.779 85.232,354.173 85.301,354.379Z" style="fill-rule:nonzero;"/>
            <path d="M94.928,355.099C94.752,355.099 94.556,355.102 94.34,355.107C94.124,355.111 93.914,355.116 93.708,355.121C93.502,355.126 93.309,355.136 93.127,355.151C92.946,355.165 92.807,355.178 92.709,355.187L92.473,355.217C92.424,355.217 92.383,355.19 92.348,355.136C92.314,355.082 92.297,355.031 92.297,354.982C92.297,354.942 92.317,354.901 92.356,354.857C92.395,354.813 92.449,354.791 92.517,354.791C92.929,354.791 93.257,354.766 93.502,354.717C93.747,354.668 93.894,354.604 93.943,354.526C94.002,354.408 94.063,354.146 94.127,353.74C94.191,353.333 94.247,352.858 94.296,352.314C94.345,351.77 94.384,351.199 94.413,350.602C94.443,350.004 94.458,349.45 94.458,348.941C94.458,348.382 94.455,347.914 94.45,347.537C94.445,347.16 94.44,346.849 94.436,346.604C94.431,346.359 94.426,346.17 94.421,346.038C94.416,345.906 94.413,345.81 94.413,345.751C94.404,345.438 94.36,345.23 94.281,345.127C94.203,345.024 94.061,344.963 93.855,344.943C93.708,344.924 93.537,344.919 93.341,344.928C93.145,344.938 93.003,344.938 92.914,344.928C92.846,344.919 92.787,344.906 92.738,344.892C92.689,344.877 92.664,344.826 92.664,344.737C92.664,344.639 92.689,344.573 92.738,344.539C92.787,344.505 92.841,344.487 92.9,344.487C92.978,344.487 93.23,344.505 93.657,344.539C94.083,344.573 94.693,344.59 95.486,344.59C96.006,344.59 96.449,344.578 96.817,344.554C97.184,344.529 97.436,344.507 97.573,344.487C97.642,344.487 97.708,344.495 97.772,344.51C97.836,344.524 97.867,344.571 97.867,344.649C97.867,344.816 97.755,344.909 97.529,344.928C97.451,344.928 97.363,344.933 97.265,344.943C97.167,344.953 97.071,344.963 96.978,344.972C96.885,344.982 96.799,344.997 96.721,345.017C96.643,345.036 96.584,345.051 96.545,345.061C96.496,345.08 96.449,345.259 96.405,345.597C96.361,345.935 96.322,346.354 96.287,346.854C96.253,347.354 96.221,347.892 96.192,348.471C96.163,349.049 96.143,349.583 96.133,350.073C96.123,350.445 96.116,350.879 96.111,351.373C96.106,351.868 96.111,352.343 96.126,352.799C96.14,353.255 96.163,353.649 96.192,353.982C96.221,354.315 96.265,354.506 96.324,354.555C96.363,354.585 96.437,354.612 96.545,354.636C96.652,354.661 96.78,354.685 96.927,354.71C97.074,354.734 97.223,354.751 97.375,354.761C97.527,354.771 97.667,354.776 97.794,354.776C97.902,354.776 97.97,354.786 98,354.805C98.029,354.825 98.044,354.874 98.044,354.952C98.044,355.04 98.007,355.104 97.934,355.143C97.86,355.182 97.784,355.202 97.706,355.202C97.647,355.202 97.559,355.197 97.441,355.187C97.324,355.178 97.162,355.165 96.956,355.151C96.75,355.136 96.491,355.124 96.177,355.114C95.864,355.104 95.477,355.099 95.016,355.099L94.928,355.099Z" style="fill-rule:nonzero;"/>
            <path d="M100.66,354.791C100.435,354.918 100.15,355.05 99.808,355.187C99.465,355.325 99.107,355.393 98.735,355.393C98.509,355.393 98.348,355.374 98.25,355.334C98.152,355.295 98.103,355.217 98.103,355.099C98.103,355.04 98.117,354.969 98.147,354.886C98.176,354.803 98.215,354.761 98.264,354.761C98.284,354.761 98.308,354.776 98.338,354.805C98.397,354.884 98.485,354.928 98.602,354.938C98.72,354.947 98.847,354.952 98.984,354.952C99.19,354.942 99.376,354.871 99.543,354.739C99.71,354.607 99.832,354.428 99.91,354.203C99.95,354.065 99.989,353.85 100.028,353.556C100.067,353.262 100.099,352.909 100.124,352.498C100.148,352.086 100.168,351.628 100.182,351.123C100.197,350.619 100.204,350.087 100.204,349.529C100.204,348.255 100.17,347.263 100.101,346.552C100.033,345.842 99.945,345.433 99.837,345.325C99.729,345.237 99.594,345.178 99.433,345.149C99.271,345.119 99.107,345.105 98.94,345.105C98.862,345.105 98.784,345.107 98.705,345.112C98.627,345.117 98.563,345.119 98.514,345.119C98.455,345.119 98.409,345.097 98.375,345.053C98.34,345.009 98.323,344.963 98.323,344.914C98.323,344.737 98.387,344.649 98.514,344.649C98.583,344.649 98.705,344.656 98.882,344.671C99.058,344.686 99.261,344.701 99.492,344.715C99.722,344.73 99.964,344.742 100.219,344.752C100.474,344.762 100.704,344.767 100.91,344.767C101.165,344.767 101.402,344.728 101.623,344.649C101.843,344.571 102.071,344.483 102.306,344.385C102.541,344.287 102.799,344.198 103.078,344.12C103.357,344.042 103.683,344.002 104.055,344.002C105.015,344.002 105.841,344.14 106.532,344.414C107.222,344.688 107.788,345.058 108.229,345.524C108.67,345.989 108.996,346.523 109.207,347.126C109.417,347.728 109.523,348.353 109.523,349C109.523,349.764 109.388,350.528 109.118,351.292C108.849,352.057 108.464,352.745 107.965,353.358C107.465,353.97 106.86,354.465 106.15,354.842C105.439,355.219 104.648,355.408 103.776,355.408C103.59,355.408 103.357,355.391 103.078,355.356C102.799,355.322 102.512,355.276 102.218,355.217C101.924,355.158 101.637,355.092 101.358,355.018C101.079,354.945 100.846,354.869 100.66,354.791ZM104.114,354.805C104.692,354.805 105.197,354.666 105.628,354.386C106.059,354.107 106.419,353.74 106.708,353.284C106.997,352.828 107.215,352.307 107.362,351.719C107.509,351.131 107.583,350.528 107.583,349.911C107.583,349.254 107.502,348.605 107.34,347.963C107.178,347.322 106.931,346.748 106.598,346.244C106.265,345.739 105.851,345.333 105.356,345.024C104.861,344.715 104.285,344.561 103.629,344.561C103.521,344.561 103.389,344.573 103.232,344.598C103.075,344.622 102.923,344.669 102.776,344.737C102.629,344.806 102.497,344.894 102.38,345.002C102.262,345.11 102.184,345.247 102.144,345.413C102.115,345.541 102.088,345.717 102.064,345.943C102.039,346.168 102.015,346.43 101.99,346.729C101.966,347.028 101.948,347.351 101.939,347.699C101.929,348.047 101.924,348.407 101.924,348.779C101.924,349.622 101.926,350.327 101.931,350.896C101.936,351.464 101.944,351.924 101.953,352.277C101.963,352.63 101.975,352.892 101.99,353.064C102.005,353.235 102.017,353.35 102.027,353.409C102.056,353.576 102.127,353.74 102.24,353.901C102.353,354.063 102.5,354.212 102.681,354.35C102.862,354.487 103.073,354.597 103.313,354.68C103.553,354.764 103.82,354.805 104.114,354.805Z" style="fill-rule:nonzero;"/>
            <path d="M112.403,355.099C112.227,355.099 112.031,355.102 111.816,355.107C111.6,355.111 111.389,355.116 111.184,355.121C110.978,355.126 110.784,355.136 110.603,355.151C110.422,355.165 110.282,355.178 110.184,355.187L109.949,355.217C109.9,355.217 109.858,355.19 109.824,355.136C109.79,355.082 109.773,355.031 109.773,354.982C109.773,354.942 109.792,354.901 109.831,354.857C109.871,354.813 109.924,354.791 109.993,354.791C110.405,354.791 110.733,354.766 110.978,354.717C111.223,354.668 111.37,354.604 111.419,354.526C111.477,354.408 111.539,354.146 111.602,353.74C111.666,353.333 111.722,352.858 111.771,352.314C111.82,351.77 111.86,351.199 111.889,350.602C111.918,350.004 111.933,349.45 111.933,348.941C111.933,348.382 111.931,347.914 111.926,347.537C111.921,347.16 111.916,346.849 111.911,346.604C111.906,346.359 111.901,346.17 111.896,346.038C111.891,345.906 111.889,345.81 111.889,345.751C111.879,345.438 111.835,345.23 111.757,345.127C111.678,345.024 111.536,344.963 111.33,344.943C111.184,344.924 111.012,344.919 110.816,344.928C110.62,344.938 110.478,344.938 110.39,344.928C110.321,344.919 110.262,344.906 110.213,344.892C110.164,344.877 110.14,344.826 110.14,344.737C110.14,344.639 110.164,344.573 110.213,344.539C110.262,344.505 110.316,344.487 110.375,344.487C110.454,344.487 110.706,344.505 111.132,344.539C111.558,344.573 112.168,344.59 112.962,344.59C113.481,344.59 113.925,344.578 114.292,344.554C114.66,344.529 114.912,344.507 115.049,344.487C115.118,344.487 115.184,344.495 115.247,344.51C115.311,344.524 115.343,344.571 115.343,344.649C115.343,344.816 115.23,344.909 115.005,344.928C114.927,344.928 114.838,344.933 114.74,344.943C114.642,344.953 114.547,344.963 114.454,344.972C114.361,344.982 114.275,344.997 114.197,345.017C114.118,345.036 114.059,345.051 114.02,345.061C113.971,345.08 113.925,345.259 113.881,345.597C113.836,345.935 113.797,346.354 113.763,346.854C113.729,347.354 113.697,347.892 113.667,348.471C113.638,349.049 113.618,349.583 113.609,350.073C113.599,350.445 113.591,350.879 113.587,351.373C113.582,351.868 113.587,352.343 113.601,352.799C113.616,353.255 113.638,353.649 113.667,353.982C113.697,354.315 113.741,354.506 113.8,354.555C113.839,354.585 113.912,354.612 114.02,354.636C114.128,354.661 114.255,354.685 114.402,354.71C114.549,354.734 114.699,354.751 114.851,354.761C115.002,354.771 115.142,354.776 115.269,354.776C115.377,354.776 115.446,354.786 115.475,354.805C115.505,354.825 115.519,354.874 115.519,354.952C115.519,355.04 115.483,355.104 115.409,355.143C115.336,355.182 115.26,355.202 115.181,355.202C115.122,355.202 115.034,355.197 114.917,355.187C114.799,355.178 114.637,355.165 114.432,355.151C114.226,355.136 113.966,355.124 113.653,355.114C113.339,355.104 112.952,355.099 112.492,355.099L112.403,355.099Z" style="fill-rule:nonzero;"/>
            <path d="M122.662,351.88C122.662,352.38 122.672,352.868 122.692,353.343C122.711,353.818 122.765,354.203 122.853,354.497C123.03,354.604 123.228,354.671 123.449,354.695C123.669,354.719 123.877,354.737 124.073,354.746C124.269,354.756 124.433,354.776 124.566,354.805C124.698,354.835 124.764,354.898 124.764,354.996C124.764,355.045 124.74,355.087 124.691,355.121C124.642,355.156 124.563,355.173 124.456,355.173C124.171,355.182 123.784,355.17 123.294,355.136C122.804,355.102 122.246,355.084 121.619,355.084C120.815,355.084 120.21,355.111 119.804,355.165C119.397,355.219 119.155,355.246 119.076,355.246C119.008,355.246 118.949,355.229 118.9,355.195C118.851,355.16 118.826,355.114 118.826,355.055C118.826,354.928 118.885,354.859 119.003,354.849C119.12,354.84 119.341,354.81 119.664,354.761C119.88,354.742 120.056,354.715 120.193,354.68C120.33,354.646 120.468,354.604 120.605,354.555C120.664,354.34 120.713,354.119 120.752,353.894C120.791,353.669 120.825,353.387 120.855,353.049C120.884,352.711 120.906,352.289 120.921,351.785C120.935,351.28 120.943,350.631 120.943,349.837C120.943,349.112 120.938,348.497 120.928,347.993C120.918,347.488 120.901,347.067 120.877,346.729C120.852,346.391 120.828,346.124 120.803,345.928C120.779,345.732 120.752,345.58 120.722,345.472C120.595,345.384 120.428,345.328 120.223,345.303C120.017,345.279 119.816,345.259 119.62,345.244C119.424,345.23 119.255,345.208 119.113,345.178C118.971,345.149 118.9,345.08 118.9,344.972C118.9,344.845 118.978,344.781 119.135,344.781C119.311,344.781 119.613,344.803 120.039,344.848C120.465,344.892 120.987,344.914 121.604,344.914C121.702,344.914 121.781,344.899 121.839,344.87C121.937,344.821 122.094,344.752 122.31,344.664C122.525,344.576 122.775,344.487 123.059,344.399C123.343,344.311 123.645,344.233 123.963,344.164C124.282,344.096 124.593,344.061 124.896,344.061C125.386,344.061 125.852,344.118 126.293,344.23C126.734,344.343 127.118,344.512 127.446,344.737C127.775,344.963 128.037,345.242 128.233,345.575C128.429,345.908 128.527,346.295 128.527,346.736C128.527,347.167 128.426,347.567 128.225,347.934C128.025,348.302 127.772,348.637 127.469,348.941C127.165,349.245 126.832,349.507 126.469,349.727C126.107,349.948 125.769,350.122 125.455,350.249C125.857,350.249 126.236,350.291 126.594,350.374C126.952,350.457 127.275,350.575 127.564,350.727C127.853,350.879 128.093,351.062 128.284,351.278C128.475,351.493 128.6,351.738 128.659,352.013C128.659,352.15 128.647,352.24 128.622,352.285C128.598,352.329 128.551,352.4 128.483,352.498C128.679,352.811 128.897,353.181 129.137,353.607C129.377,354.034 129.646,354.44 129.945,354.827C130.244,355.214 130.577,355.543 130.945,355.812C131.312,356.081 131.721,356.216 132.172,356.216C132.26,356.216 132.36,356.211 132.473,356.202C132.586,356.192 132.694,356.172 132.796,356.143C132.899,356.113 132.995,356.069 133.083,356.01C133.171,355.952 133.235,355.873 133.274,355.775C133.313,355.746 133.352,355.731 133.392,355.731C133.441,355.731 133.473,355.756 133.487,355.805C133.502,355.854 133.514,355.903 133.524,355.952C133.328,356.393 132.843,356.613 132.069,356.613C131.677,356.613 131.302,356.549 130.945,356.422C130.587,356.295 130.244,356.126 129.916,355.915C129.587,355.704 129.274,355.462 128.975,355.187C128.676,354.913 128.394,354.629 128.13,354.335C127.934,354.119 127.706,353.85 127.446,353.527C127.187,353.203 126.91,352.872 126.616,352.534C126.322,352.196 126.016,351.878 125.697,351.579C125.379,351.28 125.063,351.048 124.749,350.881C124.602,350.812 124.436,350.761 124.25,350.727C124.064,350.692 123.885,350.668 123.713,350.653C123.542,350.638 123.383,350.631 123.236,350.631L122.898,350.631C122.839,350.631 122.79,350.634 122.751,350.638C122.711,350.643 122.682,350.646 122.662,350.646L122.662,351.88ZM122.912,345.693C122.863,345.879 122.824,346.139 122.795,346.472C122.765,346.805 122.741,347.17 122.721,347.567C122.702,347.963 122.687,348.375 122.677,348.801C122.667,349.227 122.662,349.632 122.662,350.014C122.76,350.092 122.949,350.136 123.228,350.146C123.508,350.156 123.809,350.161 124.132,350.161C124.416,350.161 124.654,350.136 124.845,350.087C125.036,350.038 125.215,349.95 125.381,349.823C125.479,349.754 125.59,349.641 125.712,349.485C125.835,349.328 125.952,349.142 126.065,348.926C126.178,348.711 126.273,348.468 126.352,348.199C126.43,347.929 126.469,347.643 126.469,347.339C126.469,346.898 126.42,346.503 126.322,346.156C126.224,345.808 126.092,345.509 125.925,345.259C125.759,345.009 125.563,344.818 125.337,344.686C125.112,344.554 124.872,344.487 124.617,344.487C124.48,344.487 124.326,344.514 124.154,344.568C123.983,344.622 123.814,344.693 123.647,344.781C123.481,344.87 123.334,344.97 123.206,345.083C123.079,345.195 122.996,345.315 122.956,345.443L122.912,345.693Z" style="fill-rule:nonzero;"/>
            <path d="M137.242,353.38C137.135,353.497 136.968,353.659 136.743,353.865C136.517,354.07 136.245,354.276 135.927,354.482C135.609,354.688 135.253,354.864 134.861,355.011C134.47,355.158 134.053,355.231 133.612,355.231C133.21,355.231 132.818,355.17 132.436,355.048C132.054,354.925 131.711,354.739 131.408,354.489C131.104,354.239 130.861,353.921 130.68,353.534C130.499,353.147 130.408,352.684 130.408,352.145C130.408,351.704 130.437,351.324 130.496,351.006C130.555,350.687 130.633,350.408 130.731,350.168C130.829,349.928 130.94,349.722 131.062,349.551C131.185,349.379 131.31,349.225 131.437,349.088C131.594,348.911 131.785,348.745 132.01,348.588C132.235,348.431 132.478,348.289 132.738,348.162C132.997,348.035 133.272,347.934 133.561,347.861C133.85,347.787 134.141,347.75 134.435,347.75C134.964,347.75 135.378,347.839 135.677,348.015C135.976,348.191 136.125,348.436 136.125,348.75C136.125,348.946 136.067,349.127 135.949,349.294C136.047,349.264 136.172,349.215 136.324,349.147C136.476,349.078 136.63,349.007 136.787,348.934C136.944,348.86 137.083,348.794 137.206,348.735C137.328,348.676 137.409,348.632 137.448,348.603C137.468,348.583 137.49,348.576 137.514,348.581C137.539,348.586 137.551,348.603 137.551,348.632C137.551,348.76 137.527,348.865 137.478,348.948C137.429,349.031 137.37,349.098 137.301,349.147C137.144,349.245 136.919,349.367 136.625,349.514C136.331,349.661 136.005,349.815 135.648,349.977C135.29,350.139 134.92,350.3 134.538,350.462C134.156,350.624 133.796,350.778 133.458,350.925C133.12,351.072 132.826,351.202 132.576,351.315C132.326,351.427 132.157,351.508 132.069,351.557C132.069,351.89 132.135,352.201 132.267,352.49C132.4,352.779 132.583,353.032 132.818,353.247C133.054,353.463 133.335,353.632 133.664,353.754C133.992,353.877 134.352,353.938 134.744,353.938C135.097,353.938 135.415,353.901 135.699,353.828C135.983,353.754 136.223,353.671 136.419,353.578C136.615,353.485 136.77,353.402 136.882,353.328C136.995,353.255 137.056,353.218 137.066,353.218C137.105,353.218 137.144,353.235 137.184,353.269C137.223,353.304 137.242,353.34 137.242,353.38ZM132.069,351.131C132.235,351.072 132.424,351.001 132.635,350.918C132.845,350.834 133.051,350.744 133.252,350.646C133.453,350.548 133.637,350.455 133.803,350.367C133.97,350.278 134.097,350.2 134.185,350.131C134.362,350.004 134.45,349.788 134.45,349.485C134.45,349.367 134.428,349.245 134.384,349.117C134.34,348.99 134.274,348.875 134.185,348.772C134.097,348.669 133.989,348.586 133.862,348.522C133.735,348.458 133.593,348.426 133.436,348.426C133.299,348.426 133.152,348.473 132.995,348.566C132.838,348.659 132.691,348.811 132.554,349.022C132.417,349.232 132.302,349.512 132.209,349.859C132.115,350.207 132.069,350.631 132.069,351.131Z" style="fill-rule:nonzero;"/>
            <path d="M142.842,354.423C142.529,354.619 142.142,354.795 141.681,354.952C141.221,355.109 140.775,355.187 140.344,355.187C140.207,355.187 140.052,355.178 139.881,355.158C139.709,355.138 139.57,355.119 139.462,355.099C139.452,355.285 139.445,355.476 139.44,355.672C139.435,355.868 139.43,356.057 139.425,356.238C139.42,356.42 139.415,356.589 139.41,356.745C139.405,356.902 139.403,357.034 139.403,357.142C139.403,357.642 139.445,357.98 139.528,358.156C139.611,358.333 139.741,358.421 139.917,358.421C140.006,358.421 140.126,358.409 140.278,358.384C140.429,358.36 140.564,358.318 140.682,358.259C140.701,358.24 140.723,358.259 140.748,358.318C140.772,358.377 140.785,358.431 140.785,358.48C140.785,358.489 140.716,358.516 140.579,358.56C140.442,358.605 140.268,358.658 140.057,358.722C139.846,358.786 139.619,358.854 139.374,358.928C139.129,359.001 138.894,359.07 138.668,359.134C138.443,359.197 138.249,359.249 138.088,359.288C137.926,359.327 137.825,359.347 137.786,359.347C137.727,359.347 137.674,359.342 137.625,359.332C137.576,359.322 137.551,359.278 137.551,359.2C137.551,359.151 137.568,359.119 137.603,359.104C137.637,359.09 137.664,359.068 137.683,359.038C137.732,358.979 137.762,358.869 137.772,358.707C137.781,358.546 137.796,358.387 137.816,358.23C137.845,357.848 137.877,357.394 137.911,356.87C137.946,356.346 137.977,355.797 138.007,355.224C138.036,354.651 138.063,354.078 138.088,353.504C138.112,352.931 138.124,352.41 138.124,351.939C138.124,351.273 138.097,350.751 138.043,350.374C137.99,349.997 137.914,349.717 137.816,349.536C137.718,349.355 137.607,349.242 137.485,349.198C137.363,349.154 137.233,349.132 137.095,349.132C137.066,349.132 137.024,349.134 136.971,349.139C136.917,349.144 136.865,349.147 136.816,349.147C136.777,349.147 136.757,349.112 136.757,349.044C136.757,348.995 136.76,348.963 136.765,348.948C136.77,348.934 136.792,348.916 136.831,348.897C136.88,348.867 136.971,348.818 137.103,348.75C137.235,348.681 137.387,348.605 137.558,348.522C137.73,348.439 137.914,348.351 138.11,348.257C138.306,348.164 138.489,348.081 138.661,348.008C138.832,347.934 138.982,347.873 139.109,347.824C139.236,347.775 139.325,347.75 139.374,347.75C139.521,347.75 139.621,347.814 139.675,347.941C139.729,348.069 139.761,348.24 139.77,348.456C139.77,348.544 139.768,348.684 139.763,348.875C139.758,349.066 139.751,349.284 139.741,349.529C139.868,349.392 140.042,349.223 140.263,349.022C140.483,348.821 140.733,348.627 141.012,348.441C141.292,348.255 141.586,348.096 141.894,347.963C142.203,347.831 142.504,347.765 142.798,347.765C143.22,347.765 143.594,347.841 143.923,347.993C144.251,348.145 144.523,348.346 144.738,348.595C144.954,348.845 145.118,349.129 145.231,349.448C145.343,349.766 145.4,350.092 145.4,350.425C145.4,350.896 145.329,351.329 145.187,351.726C145.044,352.123 144.871,352.476 144.665,352.784C144.459,353.093 144.234,353.36 143.989,353.585C143.744,353.811 143.518,353.987 143.313,354.114L142.842,354.423ZM139.535,353.291C139.565,353.399 139.643,353.509 139.77,353.622C139.898,353.735 140.062,353.838 140.263,353.931C140.464,354.024 140.694,354.102 140.954,354.166C141.213,354.23 141.49,354.261 141.784,354.261C142.049,354.261 142.301,354.21 142.541,354.107C142.781,354.004 142.989,353.843 143.166,353.622C143.342,353.402 143.482,353.115 143.585,352.762C143.687,352.41 143.739,351.983 143.739,351.484C143.739,351.131 143.69,350.798 143.592,350.484C143.494,350.171 143.352,349.896 143.166,349.661C142.979,349.426 142.759,349.242 142.504,349.11C142.249,348.978 141.97,348.911 141.666,348.911C141.51,348.911 141.336,348.946 141.145,349.014C140.954,349.083 140.77,349.176 140.594,349.294C140.417,349.411 140.253,349.548 140.101,349.705C139.949,349.862 139.839,350.028 139.77,350.205C139.721,350.322 139.68,350.506 139.646,350.756C139.611,351.006 139.587,351.28 139.572,351.579C139.557,351.878 139.548,352.179 139.543,352.483C139.538,352.787 139.535,353.056 139.535,353.291Z" style="fill-rule:nonzero;"/>
            <path d="M150.985,353.6C151.044,353.639 151.073,353.688 151.073,353.747C151.073,353.825 150.96,353.928 150.735,354.056C150.5,354.193 150.189,354.355 149.802,354.541C149.415,354.727 149.03,354.889 148.648,355.026C148.462,355.094 148.295,355.153 148.148,355.202C148.001,355.251 147.869,355.276 147.751,355.276C147.614,355.276 147.445,355.244 147.244,355.18C147.043,355.116 146.869,355.04 146.722,354.952C146.605,354.874 146.512,354.813 146.443,354.768C146.375,354.724 146.34,354.678 146.34,354.629C146.34,354.59 146.353,354.553 146.377,354.519C146.402,354.484 146.424,354.443 146.443,354.394C146.453,354.364 146.463,354.325 146.473,354.276C146.482,354.227 146.487,354.178 146.487,354.129C146.517,353.884 146.549,353.529 146.583,353.064C146.617,352.598 146.644,352.084 146.664,351.52C146.683,350.957 146.7,350.374 146.715,349.771C146.73,349.169 146.737,348.608 146.737,348.088C146.737,347.451 146.735,346.937 146.73,346.545C146.725,346.153 146.713,345.84 146.693,345.604C146.664,345.281 146.624,345.068 146.575,344.965C146.526,344.862 146.473,344.786 146.414,344.737C146.345,344.679 146.279,344.642 146.215,344.627C146.152,344.612 146.093,344.603 146.039,344.598C145.985,344.593 145.941,344.59 145.907,344.59C145.872,344.59 145.855,344.581 145.855,344.561C145.855,344.238 145.992,344.076 146.267,344.076C146.473,344.076 146.715,344.078 146.994,344.083C147.274,344.088 147.506,344.091 147.693,344.091C147.81,344.091 147.935,344.083 148.067,344.069C148.2,344.054 148.329,344.039 148.457,344.024C148.584,344.01 148.702,343.993 148.81,343.973C148.917,343.953 148.996,343.934 149.045,343.914C149.084,343.904 149.116,343.919 149.14,343.958C149.165,343.998 149.179,344.047 149.184,344.105C149.189,344.164 149.179,344.218 149.155,344.267C149.13,344.316 149.099,344.345 149.059,344.355C149.001,344.365 148.949,344.37 148.905,344.37C148.861,344.37 148.785,344.389 148.677,344.429C148.628,344.448 148.584,344.51 148.545,344.612C148.506,344.715 148.471,344.877 148.442,345.097C148.413,345.318 148.383,345.607 148.354,345.965C148.325,346.322 148.295,346.771 148.266,347.309C148.236,347.741 148.214,348.179 148.2,348.625C148.185,349.071 148.17,349.504 148.155,349.926C148.141,350.347 148.131,350.739 148.126,351.101C148.121,351.464 148.119,351.773 148.119,352.027C148.119,352.312 148.121,352.598 148.126,352.887C148.131,353.176 148.158,353.404 148.207,353.571C148.256,353.727 148.383,353.874 148.589,354.012C148.795,354.149 149.01,354.217 149.236,354.217C149.412,354.217 149.593,354.193 149.78,354.144C149.966,354.095 150.137,354.036 150.294,353.967C150.451,353.899 150.59,353.83 150.713,353.762C150.835,353.693 150.926,353.639 150.985,353.6Z" style="fill-rule:nonzero;"/>
            <path d="M154.894,352.806C154.865,352.64 154.836,352.459 154.806,352.263C154.777,352.067 154.747,351.88 154.718,351.704C154.689,351.528 154.662,351.376 154.637,351.248C154.613,351.121 154.596,351.038 154.586,350.999C154.429,351.057 154.253,351.126 154.057,351.204C153.861,351.283 153.665,351.368 153.469,351.462C153.273,351.555 153.087,351.648 152.91,351.741C152.734,351.834 152.587,351.92 152.469,351.998C152.244,352.145 152.072,352.292 151.955,352.439C151.837,352.586 151.778,352.762 151.778,352.968C151.778,353.252 151.862,353.502 152.028,353.718C152.195,353.933 152.455,354.041 152.807,354.041C152.993,354.041 153.187,354.007 153.388,353.938C153.589,353.869 153.775,353.791 153.946,353.703C154.118,353.615 154.267,353.527 154.395,353.438C154.522,353.35 154.61,353.282 154.659,353.233C154.738,353.154 154.799,353.088 154.843,353.034C154.887,352.98 154.904,352.904 154.894,352.806ZM154.468,350.528C154.409,350.224 154.341,349.953 154.262,349.712C154.184,349.472 154.086,349.272 153.968,349.11C153.851,348.948 153.709,348.826 153.542,348.742C153.376,348.659 153.17,348.618 152.925,348.618C152.709,348.618 152.511,348.657 152.33,348.735C152.148,348.813 151.992,348.907 151.859,349.014C151.727,349.122 151.624,349.23 151.551,349.338C151.477,349.445 151.436,349.529 151.426,349.588C151.416,349.666 151.372,349.705 151.293,349.705C151.156,349.705 151.029,349.656 150.911,349.558C150.794,349.46 150.735,349.343 150.735,349.205C150.735,349.127 150.745,349.068 150.764,349.029C150.99,348.902 151.264,348.764 151.587,348.618C151.911,348.471 152.246,348.333 152.594,348.206C152.942,348.079 153.287,347.973 153.63,347.89C153.973,347.807 154.282,347.765 154.556,347.765C154.968,347.765 155.284,347.824 155.504,347.941C155.725,348.059 155.889,348.226 155.997,348.441C156.104,348.657 156.171,348.909 156.195,349.198C156.22,349.487 156.242,349.798 156.261,350.131C156.291,350.631 156.33,351.114 156.379,351.579C156.428,352.045 156.501,352.456 156.599,352.814C156.697,353.171 156.822,353.46 156.974,353.681C157.126,353.901 157.315,354.012 157.54,354.012C157.648,354.012 157.765,353.992 157.893,353.953C158.02,353.914 158.143,353.867 158.26,353.813C158.378,353.759 158.483,353.705 158.576,353.651C158.669,353.598 158.73,353.561 158.76,353.541C158.848,353.541 158.902,353.585 158.922,353.674C158.922,353.723 158.912,353.767 158.892,353.806C158.873,353.825 158.799,353.874 158.672,353.953C158.544,354.031 158.388,354.124 158.201,354.232C158.015,354.34 157.809,354.455 157.584,354.577C157.359,354.7 157.136,354.815 156.915,354.923C156.695,355.031 156.492,355.119 156.305,355.187C156.119,355.256 155.972,355.29 155.864,355.29C155.737,355.29 155.627,355.239 155.534,355.136C155.441,355.033 155.36,354.896 155.291,354.724C155.223,354.553 155.164,354.355 155.115,354.129C155.066,353.904 155.022,353.669 154.983,353.424C154.806,353.571 154.581,353.745 154.306,353.945C154.032,354.146 153.733,354.335 153.41,354.511C153.087,354.688 152.756,354.837 152.418,354.96C152.08,355.082 151.754,355.143 151.44,355.143C151.176,355.143 150.946,355.102 150.75,355.018C150.554,354.935 150.39,354.825 150.257,354.688C150.125,354.55 150.027,354.391 149.963,354.21C149.9,354.029 149.868,353.84 149.868,353.644C149.868,353.331 149.963,353.073 150.154,352.872C150.345,352.672 150.642,352.463 151.044,352.248C151.23,352.15 151.489,352.02 151.823,351.858C152.156,351.697 152.496,351.533 152.844,351.366C153.192,351.199 153.515,351.04 153.814,350.888C154.113,350.736 154.331,350.616 154.468,350.528Z" style="fill-rule:nonzero;"/>
            <path d="M157.746,359.464C157.834,359.366 157.966,359.205 158.143,358.979C158.319,358.754 158.512,358.499 158.723,358.215C158.934,357.931 159.149,357.627 159.37,357.304C159.59,356.98 159.798,356.674 159.994,356.385C160.19,356.096 160.359,355.832 160.502,355.592C160.644,355.351 160.734,355.173 160.773,355.055C160.617,354.644 160.45,354.208 160.274,353.747C160.097,353.286 159.914,352.831 159.723,352.38C159.531,351.929 159.34,351.498 159.149,351.087C158.958,350.675 158.77,350.315 158.583,350.006C158.397,349.698 158.218,349.45 158.047,349.264C157.876,349.078 157.721,348.985 157.584,348.985C157.545,348.985 157.501,348.997 157.452,349.022C157.403,349.046 157.359,349.068 157.319,349.088C157.29,349.107 157.256,349.083 157.217,349.014C157.177,348.946 157.177,348.902 157.217,348.882C157.256,348.853 157.371,348.779 157.562,348.662C157.753,348.544 157.966,348.419 158.201,348.287C158.437,348.155 158.664,348.035 158.885,347.927C159.105,347.819 159.264,347.765 159.362,347.765C159.46,347.765 159.576,347.853 159.708,348.03C159.84,348.206 159.977,348.444 160.119,348.742C160.261,349.041 160.411,349.382 160.568,349.764C160.724,350.146 160.881,350.545 161.038,350.962C161.195,351.378 161.349,351.797 161.501,352.218C161.653,352.64 161.797,353.032 161.935,353.394C162.062,353.198 162.226,352.919 162.427,352.556C162.628,352.194 162.821,351.807 163.007,351.395C163.194,350.984 163.353,350.577 163.485,350.175C163.617,349.774 163.684,349.436 163.684,349.161C163.684,348.877 163.615,348.674 163.478,348.551C163.341,348.429 163.189,348.368 163.022,348.368C162.895,348.368 162.794,348.37 162.721,348.375C162.647,348.38 162.567,348.392 162.478,348.412C162.459,348.412 162.429,348.399 162.39,348.375C162.351,348.351 162.331,348.314 162.331,348.265C162.331,348.216 162.439,348.162 162.655,348.103C162.87,348.044 163.12,347.99 163.404,347.941C163.688,347.892 163.968,347.851 164.242,347.816C164.516,347.782 164.708,347.765 164.815,347.765C165.041,347.765 165.207,347.809 165.315,347.897C165.423,347.986 165.477,348.088 165.477,348.206C165.418,348.441 165.293,348.747 165.102,349.125C164.911,349.502 164.683,349.913 164.418,350.359C164.154,350.805 163.872,351.266 163.573,351.741C163.274,352.216 162.988,352.664 162.714,353.086C162.439,353.507 162.192,353.884 161.971,354.217C161.751,354.55 161.592,354.795 161.494,354.952C161.298,355.256 161.111,355.572 160.935,355.9C160.759,356.228 160.597,356.557 160.45,356.885C160.303,357.213 160.173,357.527 160.061,357.826C159.948,358.124 159.867,358.396 159.818,358.641C159.789,358.788 159.816,358.884 159.899,358.928C159.982,358.972 160.09,358.982 160.222,358.957C160.355,358.933 160.499,358.886 160.656,358.818C160.813,358.749 160.945,358.671 161.053,358.583C161.102,358.543 161.134,358.536 161.148,358.56C161.163,358.585 161.17,358.622 161.17,358.671C161.17,358.72 161.16,358.771 161.141,358.825C161.121,358.879 161.097,358.916 161.067,358.935C161.058,358.935 160.945,358.979 160.729,359.068C160.514,359.156 160.254,359.251 159.95,359.354C159.647,359.457 159.326,359.553 158.988,359.641C158.65,359.729 158.353,359.773 158.098,359.773C157.853,359.773 157.731,359.695 157.731,359.538C157.731,359.518 157.733,359.504 157.738,359.494C157.743,359.484 157.746,359.474 157.746,359.464Z" style="fill-rule:nonzero;"/>
        </g>
        <g transform="matrix(1,0,0,1,-65.4614,-49.9274)">
            <text x="76.188px" y="355.099px" style="font-family:'Luminari-Regular', 'Luminari';font-size:14.698px;">MIDI Repla<tspan x="157.334px " y="355.099px ">y</tspan></text>
        </g>
        <g transform="matrix(0.0219124,0,0,0.0248558,-15.5421,285.934)">
            <g transform="matrix(1,0,0,1,-143.343,98.6554)">
                <ellipse cx="360.896" cy="293.762" rx="136.961" ry="230.443" style="fill:rgb(102,126,153);stroke:black;stroke-width:63.81px;"/>
            </g>
            <g transform="matrix(1,0,0,1,445.551,98.6554)">
                <ellipse cx="360.896" cy="293.762" rx="136.961" ry="230.443" style="fill:rgb(102,126,153);stroke:black;stroke-width:63.81px;"/>
            </g>
            <g transform="matrix(1,0,0,1,-34.3236,-20.6488)">
                <ellipse cx="546.324" cy="643.509" rx="431.408" ry="296.899" style="fill:rgb(102,126,153);stroke:black;stroke-width:63.81px;"/>
            </g>
            <circle cx="406.664" cy="569.758" r="105.336" style="fill:rgb(102,126,153);stroke:black;stroke-width:63.81px;"/>
            <g transform="matrix(1,0,0,1,210.672,0)">
                <circle cx="406.664" cy="569.758" r="105.336" style="fill:rgb(102,126,153);stroke:black;stroke-width:63.81px;"/>
            </g>
            <g transform="matrix(1,0,0,1,-53.1856,50.0357)">
                <ellipse cx="565.186" cy="671.455" rx="210.672" ry="98.631" style="fill:rgb(102,126,153);stroke:black;stroke-width:63.81px;"/>
            </g>
            <g transform="matrix(51.2,0,0,45.1371,0.670978,88.9676)">
                <path d="M12.057,13.791C12.057,13.668 11.958,13.568 11.835,13.568L8.139,13.568C8.016,13.568 7.916,13.668 7.916,13.791L7.916,14.236C7.916,14.359 8.016,14.458 8.139,14.458L11.835,14.458C11.958,14.458 12.057,14.359 12.057,14.236L12.057,13.791Z"/>
            </g>
        </g>
    </g>
</svg>
