<?xml version="1.0" encoding="UTF-8" standalone="no"?>
<!DOCTYPE svg PUBLIC "-//W3C//DTD SVG 1.1//EN" "http://www.w3.org/Graphics/SVG/1.1/DTD/svg11.dtd">
<svg width="100%" height="100%" viewBox="0 0 60 380" version="1.1" xmlns="http://www.w3.org/2000/svg" xmlns:xlink="http://www.w3.org/1999/xlink" xml:space="preserve" xmlns:serif="http://www.serif.com/" style="fill-rule:evenodd;clip-rule:evenodd;stroke-linecap:round;stroke-linejoin:round;stroke-miterlimit:1.5;">
    <g transform="matrix(0.288342,0,0,2.01589,-15.1544,-120.797)">
        <rect x="52.556" y="59.922" width="208.087" height="188.503" style="fill:rgb(102,126,153);"/>
    </g>
    <g transform="matrix(1,0,0,1,18.7287,-155.177)">
        <g transform="matrix(1,0,0,1,0,93.203)">
            <g id="Velocity-output-P" serif:id="Velocity#output$P" transform="matrix(0.175002,0,0,0.175002,-12.3416,338.088)">
                <rect x="53.94" y="106.916" width="161.978" height="161.978" style="fill:rgb(77,77,77);"/>
            </g>
            <g transform="matrix(1,0,0,1,-89.8467,234.706)">
                <path d="M92.728,113.236L91.408,118.306L90.508,118.306L89.188,113.236L90.268,113.236L90.948,116.476L90.968,116.476L91.648,113.236L92.728,113.236Z" style="fill-rule:nonzero;"/>
                <path d="M96.028,116.156L94.008,116.156L94.008,116.846C94.008,117.006 94.053,117.13 94.143,117.216C94.233,117.303 94.355,117.346 94.508,117.346C94.701,117.346 94.83,117.29 94.893,117.176C94.956,117.063 94.995,116.95 95.008,116.836L96.028,116.836C96.028,117.283 95.891,117.643 95.618,117.916C95.485,118.056 95.325,118.166 95.138,118.246C94.951,118.326 94.741,118.366 94.508,118.366C94.188,118.366 93.916,118.3 93.693,118.166C93.47,118.033 93.298,117.856 93.178,117.636C93.105,117.503 93.055,117.35 93.028,117.176C93.001,117.003 92.988,116.813 92.988,116.606L92.988,114.936C92.988,114.73 93.001,114.54 93.028,114.366C93.055,114.193 93.105,114.04 93.178,113.906C93.298,113.686 93.47,113.51 93.693,113.376C93.916,113.243 94.188,113.176 94.508,113.176C94.741,113.176 94.953,113.216 95.143,113.296C95.333,113.376 95.495,113.486 95.628,113.626C95.895,113.926 96.028,114.303 96.028,114.756L96.028,116.156ZM94.008,115.356L95.008,115.356L95.008,114.776C95.008,114.583 94.963,114.438 94.873,114.341C94.783,114.245 94.661,114.196 94.508,114.196C94.355,114.196 94.233,114.245 94.143,114.341C94.053,114.438 94.008,114.583 94.008,114.776L94.008,115.356Z" style="fill-rule:nonzero;"/>
                <path d="M96.718,111.186L97.738,111.186L97.738,116.876C97.738,117.07 97.773,117.201 97.843,117.271C97.913,117.341 98.045,117.386 98.238,117.406L98.238,118.366C98.005,118.366 97.795,118.348 97.608,118.311C97.421,118.275 97.261,118.203 97.128,118.096C96.995,117.996 96.893,117.855 96.823,117.671C96.753,117.488 96.718,117.246 96.718,116.946L96.718,111.186Z" style="fill-rule:nonzero;"/>
                <path d="M98.548,114.936C98.548,114.73 98.561,114.54 98.588,114.366C98.615,114.193 98.665,114.04 98.738,113.906C98.858,113.686 99.03,113.51 99.253,113.376C99.476,113.243 99.748,113.176 100.068,113.176C100.388,113.176 100.66,113.243 100.883,113.376C101.106,113.51 101.278,113.686 101.398,113.906C101.471,114.04 101.521,114.193 101.548,114.366C101.575,114.54 101.588,114.73 101.588,114.936L101.588,116.606C101.588,116.813 101.575,117.003 101.548,117.176C101.521,117.35 101.471,117.503 101.398,117.636C101.278,117.856 101.106,118.033 100.883,118.166C100.66,118.3 100.388,118.366 100.068,118.366C99.748,118.366 99.476,118.3 99.253,118.166C99.03,118.033 98.858,117.856 98.738,117.636C98.665,117.503 98.615,117.35 98.588,117.176C98.561,117.003 98.548,116.813 98.548,116.606L98.548,114.936ZM99.568,116.766C99.568,116.96 99.613,117.105 99.703,117.201C99.793,117.298 99.915,117.346 100.068,117.346C100.221,117.346 100.343,117.298 100.433,117.201C100.523,117.105 100.568,116.96 100.568,116.766L100.568,114.776C100.568,114.583 100.523,114.438 100.433,114.341C100.343,114.245 100.221,114.196 100.068,114.196C99.915,114.196 99.793,114.245 99.703,114.341C99.613,114.438 99.568,114.583 99.568,114.776L99.568,116.766Z" style="fill-rule:nonzero;"/>
                <path d="M103.418,116.846C103.418,117.006 103.463,117.13 103.553,117.216C103.643,117.303 103.765,117.346 103.918,117.346C104.111,117.346 104.24,117.29 104.303,117.176C104.366,117.063 104.405,116.95 104.418,116.836L105.438,116.836C105.438,117.283 105.301,117.643 105.028,117.916C104.895,118.056 104.735,118.166 104.548,118.246C104.361,118.326 104.151,118.366 103.918,118.366C103.598,118.366 103.326,118.3 103.103,118.166C102.88,118.033 102.708,117.856 102.588,117.636C102.515,117.503 102.465,117.35 102.438,117.176C102.411,117.003 102.398,116.813 102.398,116.606L102.398,114.936C102.398,114.73 102.411,114.54 102.438,114.366C102.465,114.193 102.515,114.04 102.588,113.906C102.708,113.686 102.88,113.51 103.103,113.376C103.326,113.243 103.598,113.176 103.918,113.176C104.151,113.176 104.363,113.216 104.553,113.296C104.743,113.376 104.905,113.486 105.038,113.626C105.305,113.926 105.438,114.316 105.438,114.796L104.418,114.796C104.418,114.59 104.373,114.438 104.283,114.341C104.193,114.245 104.071,114.196 103.918,114.196C103.765,114.196 103.643,114.245 103.553,114.341C103.463,114.438 103.418,114.583 103.418,114.776L103.418,116.846Z" style="fill-rule:nonzero;"/>
                <path d="M106.038,118.306L106.038,113.236L107.058,113.236L107.058,118.306L106.038,118.306ZM106.038,112.206L106.038,111.186L107.058,111.186L107.058,112.206L106.038,112.206Z" style="fill-rule:nonzero;"/>
                <path d="M107.898,113.236L107.898,111.696L108.918,111.696L108.918,113.236L109.548,113.236L109.548,114.036L108.918,114.036L108.918,116.846C108.918,116.966 108.93,117.06 108.953,117.126C108.976,117.193 109.015,117.243 109.068,117.276C109.121,117.31 109.186,117.33 109.263,117.336C109.34,117.343 109.435,117.346 109.548,117.346L109.548,118.306L109.128,118.306C108.895,118.306 108.7,118.27 108.543,118.196C108.386,118.123 108.261,118.03 108.168,117.916C108.075,117.803 108.006,117.675 107.963,117.531C107.92,117.388 107.898,117.25 107.898,117.116L107.898,114.036L107.388,114.036L107.388,113.236L107.898,113.236Z" style="fill-rule:nonzero;"/>
                <path d="M109.508,113.236L110.588,113.236L111.288,116.396L111.308,116.396L111.998,113.236L113.048,113.236L111.588,119.186C111.535,119.413 111.46,119.6 111.363,119.746C111.266,119.893 111.155,120.013 111.028,120.106C110.901,120.2 110.766,120.265 110.623,120.301C110.48,120.338 110.331,120.356 110.178,120.356L109.898,120.356L109.898,119.396L110.128,119.396C110.228,119.396 110.315,119.383 110.388,119.356C110.461,119.33 110.528,119.27 110.588,119.176C110.641,119.083 110.691,118.951 110.738,118.781C110.785,118.611 110.838,118.376 110.898,118.076L109.508,113.236Z" style="fill-rule:nonzero;"/>
            </g>
            <g transform="matrix(1,0,0,1,-89.8467,234.706)">
                <text x="89.198px" y="118.306px" style="font-family:'DINCondensed-Bold', 'DIN Condensed';font-weight:700;font-stretch:condensed;font-size:10px;">velocity</text>
            </g>
        </g>
        <g transform="matrix(1,0,0,1,0,46.3891)">
            <g id="Gate-output-P" serif:id="Gate#output$P" transform="matrix(0.175002,0,0,0.175002,-12.3416,338.088)">
                <rect x="53.94" y="106.916" width="161.978" height="161.978" style="fill:rgb(77,77,77);"/>
            </g>
            <g transform="matrix(1,0,0,1,-84.7825,234.342)">
                <path d="M90.638,118.896C90.645,119.016 90.693,119.13 90.783,119.236C90.873,119.343 91.005,119.396 91.178,119.396C91.345,119.396 91.465,119.345 91.538,119.241C91.611,119.138 91.648,119.006 91.648,118.846L91.648,117.846L91.628,117.846C91.515,118.013 91.38,118.141 91.223,118.231C91.066,118.321 90.885,118.366 90.678,118.366C90.251,118.366 89.955,118.206 89.788,117.886C89.728,117.773 89.685,117.633 89.658,117.466C89.631,117.3 89.618,117.076 89.618,116.796L89.618,114.866C89.618,114.5 89.628,114.23 89.648,114.056C89.688,113.723 89.845,113.473 90.118,113.306C90.245,113.22 90.435,113.176 90.688,113.176C90.815,113.176 90.923,113.19 91.013,113.216C91.103,113.243 91.185,113.28 91.258,113.326C91.331,113.373 91.398,113.428 91.458,113.491C91.518,113.555 91.581,113.623 91.648,113.696L91.648,113.236L92.668,113.236L92.668,118.926C92.668,119.1 92.64,119.275 92.583,119.451C92.526,119.628 92.435,119.786 92.308,119.926C92.181,120.073 92.021,120.191 91.828,120.281C91.635,120.371 91.405,120.416 91.138,120.416C90.985,120.416 90.825,120.391 90.658,120.341C90.491,120.291 90.338,120.206 90.198,120.086C90.051,119.973 89.926,119.821 89.823,119.631C89.72,119.441 89.651,119.196 89.618,118.896L90.638,118.896ZM90.638,116.746C90.638,116.906 90.673,117.046 90.743,117.166C90.813,117.286 90.945,117.346 91.138,117.346C91.285,117.346 91.406,117.295 91.503,117.191C91.6,117.088 91.648,116.956 91.648,116.796L91.648,114.826C91.648,114.64 91.601,114.488 91.508,114.371C91.415,114.255 91.291,114.196 91.138,114.196C90.965,114.196 90.838,114.26 90.758,114.386C90.678,114.513 90.638,114.68 90.638,114.886L90.638,116.746Z" style="fill-rule:nonzero;"/>
                <path d="M95.438,118.306L95.438,117.786L95.418,117.786C95.285,117.973 95.15,118.116 95.013,118.216C94.876,118.316 94.685,118.366 94.438,118.366C94.318,118.366 94.196,118.348 94.073,118.311C93.95,118.275 93.831,118.206 93.718,118.106C93.605,118.013 93.513,117.878 93.443,117.701C93.373,117.525 93.338,117.296 93.338,117.016C93.338,116.73 93.361,116.478 93.408,116.261C93.455,116.045 93.541,115.863 93.668,115.716C93.788,115.576 93.951,115.471 94.158,115.401C94.365,115.331 94.628,115.296 94.948,115.296L95.058,115.296C95.098,115.296 95.135,115.3 95.168,115.306C95.201,115.313 95.241,115.316 95.288,115.316C95.335,115.316 95.385,115.32 95.438,115.326L95.438,114.796C95.438,114.623 95.401,114.48 95.328,114.366C95.255,114.253 95.121,114.196 94.928,114.196C94.795,114.196 94.673,114.24 94.563,114.326C94.453,114.413 94.381,114.54 94.348,114.706L93.358,114.706C93.385,114.253 93.538,113.886 93.818,113.606C93.951,113.473 94.111,113.368 94.298,113.291C94.485,113.215 94.695,113.176 94.928,113.176C95.141,113.176 95.341,113.21 95.528,113.276C95.715,113.343 95.878,113.443 96.018,113.576C96.151,113.71 96.258,113.876 96.338,114.076C96.418,114.276 96.458,114.51 96.458,114.776L96.458,118.306L95.438,118.306ZM95.438,116.126C95.325,116.106 95.231,116.096 95.158,116.096C94.938,116.096 94.75,116.148 94.593,116.251C94.436,116.355 94.358,116.543 94.358,116.816C94.358,117.01 94.405,117.166 94.498,117.286C94.591,117.406 94.721,117.466 94.888,117.466C95.061,117.466 95.196,117.41 95.293,117.296C95.39,117.183 95.438,117.023 95.438,116.816L95.438,116.126Z" style="fill-rule:nonzero;"/>
                <path d="M97.208,113.236L97.208,111.696L98.228,111.696L98.228,113.236L98.858,113.236L98.858,114.036L98.228,114.036L98.228,116.846C98.228,116.966 98.24,117.06 98.263,117.126C98.286,117.193 98.325,117.243 98.378,117.276C98.431,117.31 98.496,117.33 98.573,117.336C98.65,117.343 98.745,117.346 98.858,117.346L98.858,118.306L98.438,118.306C98.205,118.306 98.01,118.27 97.853,118.196C97.696,118.123 97.571,118.03 97.478,117.916C97.385,117.803 97.316,117.675 97.273,117.531C97.23,117.388 97.208,117.25 97.208,117.116L97.208,114.036L96.698,114.036L96.698,113.236L97.208,113.236Z" style="fill-rule:nonzero;"/>
                <path d="M102.198,116.156L100.178,116.156L100.178,116.846C100.178,117.006 100.223,117.13 100.313,117.216C100.403,117.303 100.525,117.346 100.678,117.346C100.871,117.346 101,117.29 101.063,117.176C101.126,117.063 101.165,116.95 101.178,116.836L102.198,116.836C102.198,117.283 102.061,117.643 101.788,117.916C101.655,118.056 101.495,118.166 101.308,118.246C101.121,118.326 100.911,118.366 100.678,118.366C100.358,118.366 100.086,118.3 99.863,118.166C99.64,118.033 99.468,117.856 99.348,117.636C99.275,117.503 99.225,117.35 99.198,117.176C99.171,117.003 99.158,116.813 99.158,116.606L99.158,114.936C99.158,114.73 99.171,114.54 99.198,114.366C99.225,114.193 99.275,114.04 99.348,113.906C99.468,113.686 99.64,113.51 99.863,113.376C100.086,113.243 100.358,113.176 100.678,113.176C100.911,113.176 101.123,113.216 101.313,113.296C101.503,113.376 101.665,113.486 101.798,113.626C102.065,113.926 102.198,114.303 102.198,114.756L102.198,116.156ZM100.178,115.356L101.178,115.356L101.178,114.776C101.178,114.583 101.133,114.438 101.043,114.341C100.953,114.245 100.831,114.196 100.678,114.196C100.525,114.196 100.403,114.245 100.313,114.341C100.223,114.438 100.178,114.583 100.178,114.776L100.178,115.356Z" style="fill-rule:nonzero;"/>
            </g>
            <g transform="matrix(1,0,0,1,-84.7825,234.342)">
                <text x="89.198px" y="118.306px" style="font-family:'DINCondensed-Bold', 'DIN Condensed';font-weight:700;font-stretch:condensed;font-size:10px;">gate</text>
            </g>
        </g>
        <g transform="matrix(1,0,0,1,0,-0.278849)">
            <g id="Pitch-output-P" serif:id="Pitch#output$P" transform="matrix(0.175002,0,0,0.175002,-12.3416,338.088)">
                <rect x="53.94" y="106.916" width="161.978" height="161.978" style="fill:rgb(77,77,77);"/>
            </g>
            <g transform="matrix(1,0,0,1,-85.7025,234.27)">
                <path d="M89.618,120.356L89.618,113.236L90.638,113.236L90.638,113.696C90.765,113.55 90.895,113.426 91.028,113.326C91.161,113.226 91.355,113.176 91.608,113.176C92.028,113.176 92.325,113.336 92.498,113.656C92.558,113.77 92.601,113.91 92.628,114.076C92.655,114.243 92.668,114.466 92.668,114.746L92.668,116.676C92.668,117.05 92.658,117.32 92.638,117.486C92.598,117.82 92.445,118.07 92.178,118.236C92.045,118.323 91.851,118.366 91.598,118.366C91.398,118.366 91.22,118.321 91.063,118.231C90.906,118.141 90.771,118.013 90.658,117.846L90.638,117.846L90.638,120.356L89.618,120.356ZM91.648,114.886C91.648,114.68 91.608,114.513 91.528,114.386C91.448,114.26 91.321,114.196 91.148,114.196C90.995,114.196 90.871,114.255 90.778,114.371C90.685,114.488 90.638,114.64 90.638,114.826L90.638,116.796C90.638,116.956 90.686,117.088 90.783,117.191C90.88,117.295 91.001,117.346 91.148,117.346C91.341,117.346 91.473,117.286 91.543,117.166C91.613,117.046 91.648,116.906 91.648,116.746L91.648,114.886Z" style="fill-rule:nonzero;"/>
                <path d="M93.508,118.306L93.508,113.236L94.528,113.236L94.528,118.306L93.508,118.306ZM93.508,112.206L93.508,111.186L94.528,111.186L94.528,112.206L93.508,112.206Z" style="fill-rule:nonzero;"/>
                <path d="M95.368,113.236L95.368,111.696L96.388,111.696L96.388,113.236L97.018,113.236L97.018,114.036L96.388,114.036L96.388,116.846C96.388,116.966 96.4,117.06 96.423,117.126C96.446,117.193 96.485,117.243 96.538,117.276C96.591,117.31 96.656,117.33 96.733,117.336C96.81,117.343 96.905,117.346 97.018,117.346L97.018,118.306L96.598,118.306C96.365,118.306 96.17,118.27 96.013,118.196C95.856,118.123 95.731,118.03 95.638,117.916C95.545,117.803 95.476,117.675 95.433,117.531C95.39,117.388 95.368,117.25 95.368,117.116L95.368,114.036L94.858,114.036L94.858,113.236L95.368,113.236Z" style="fill-rule:nonzero;"/>
                <path d="M98.488,116.846C98.488,117.006 98.533,117.13 98.623,117.216C98.713,117.303 98.835,117.346 98.988,117.346C99.181,117.346 99.31,117.29 99.373,117.176C99.436,117.063 99.475,116.95 99.488,116.836L100.508,116.836C100.508,117.283 100.371,117.643 100.098,117.916C99.965,118.056 99.805,118.166 99.618,118.246C99.431,118.326 99.221,118.366 98.988,118.366C98.668,118.366 98.396,118.3 98.173,118.166C97.95,118.033 97.778,117.856 97.658,117.636C97.585,117.503 97.535,117.35 97.508,117.176C97.481,117.003 97.468,116.813 97.468,116.606L97.468,114.936C97.468,114.73 97.481,114.54 97.508,114.366C97.535,114.193 97.585,114.04 97.658,113.906C97.778,113.686 97.95,113.51 98.173,113.376C98.396,113.243 98.668,113.176 98.988,113.176C99.221,113.176 99.433,113.216 99.623,113.296C99.813,113.376 99.975,113.486 100.108,113.626C100.375,113.926 100.508,114.316 100.508,114.796L99.488,114.796C99.488,114.59 99.443,114.438 99.353,114.341C99.263,114.245 99.141,114.196 98.988,114.196C98.835,114.196 98.713,114.245 98.623,114.341C98.533,114.438 98.488,114.583 98.488,114.776L98.488,116.846Z" style="fill-rule:nonzero;"/>
                <path d="M100.988,118.306L100.988,111.186L102.008,111.186L102.008,113.726L102.028,113.726C102.135,113.566 102.263,113.435 102.413,113.331C102.563,113.228 102.755,113.176 102.988,113.176C103.115,113.176 103.241,113.198 103.368,113.241C103.495,113.285 103.608,113.356 103.708,113.456C103.808,113.556 103.888,113.685 103.948,113.841C104.008,113.998 104.038,114.19 104.038,114.416L104.038,118.306L103.018,118.306L103.018,114.796C103.018,114.61 102.975,114.463 102.888,114.356C102.801,114.25 102.678,114.196 102.518,114.196C102.325,114.196 102.191,114.256 102.118,114.376C102.045,114.496 102.008,114.67 102.008,114.896L102.008,118.306L100.988,118.306Z" style="fill-rule:nonzero;"/>
            </g>
            <g transform="matrix(1,0,0,1,-85.7025,234.27)">
                <text x="89.198px" y="118.306px" style="font-family:'DINCondensed-Bold', 'DIN Condensed';font-weight:700;font-stretch:condensed;font-size:10px;">pitc<tspan x="100.568px " y="118.306px ">h</tspan></text>
            </g>
        </g>
    </g>
    <g transform="matrix(1,0,0,1,-60,-5.68434e-14)">
        <g transform="matrix(0.833333,0,0,1,60,-1.86841)">
            <rect x="0" y="370" width="60" height="3.737" style="fill:rgb(5,5,5);"/>
        </g>
        <g transform="matrix(6.12323e-17,1,-1,6.12323e-17,461.64,276.746)">
            <path d="M93.254,341.64L99.405,357.806L87.104,357.806L93.254,341.64Z" style="fill:rgb(5,5,5);"/>
        </g>
    </g>
    <g transform="matrix(0.816456,0,0,0.816456,24.7946,-226.739)">
        <g transform="matrix(1,0,0,1,-89.6693,-31.1068)">
            <path d="M85.301,354.379C85.36,354.614 85.565,354.761 85.918,354.82C86.006,354.83 86.051,354.879 86.051,354.967C86.051,355.016 86.026,355.06 85.977,355.099C85.928,355.138 85.864,355.158 85.786,355.158C85.639,355.158 85.443,355.148 85.198,355.129C84.953,355.109 84.605,355.099 84.155,355.099C83.792,355.099 83.474,355.111 83.199,355.136C82.925,355.16 82.758,355.178 82.699,355.187C82.65,355.187 82.616,355.173 82.597,355.143C82.577,355.114 82.567,355.08 82.567,355.04C82.567,355.001 82.575,354.962 82.589,354.923C82.604,354.884 82.626,354.864 82.655,354.864C82.724,354.854 82.793,354.835 82.861,354.805C82.93,354.776 82.993,354.737 83.052,354.688C83.082,354.658 83.118,354.501 83.162,354.217C83.207,353.933 83.246,353.558 83.28,353.093C83.314,352.628 83.344,352.091 83.368,351.484C83.393,350.876 83.405,350.234 83.405,349.558L83.405,347.971C83.405,347.481 83.38,347.084 83.331,346.78C83.243,346.134 83.037,345.636 82.714,345.288C82.391,344.941 82.014,344.767 81.582,344.767C81.2,344.767 80.823,344.872 80.451,345.083C80.078,345.293 79.745,345.602 79.451,346.009C79.157,346.415 78.92,346.92 78.738,347.523C78.557,348.125 78.467,348.813 78.467,349.588C78.467,350.44 78.562,351.182 78.753,351.814C78.944,352.446 79.197,352.975 79.51,353.402C79.824,353.828 80.184,354.146 80.59,354.357C80.997,354.568 81.421,354.673 81.862,354.673L81.943,354.673C81.977,354.673 82.004,354.668 82.023,354.658C82.063,354.639 82.087,354.639 82.097,354.658C82.107,354.678 82.107,354.705 82.097,354.739C82.087,354.773 82.075,354.808 82.06,354.842C82.045,354.876 82.028,354.898 82.009,354.908C81.911,354.977 81.773,355.038 81.597,355.092C81.421,355.146 81.176,355.173 80.862,355.173C80.343,355.173 79.826,355.053 79.312,354.813C78.797,354.573 78.337,354.237 77.93,353.806C77.523,353.375 77.195,352.853 76.945,352.24C76.695,351.628 76.571,350.954 76.571,350.22C76.571,349.171 76.722,348.275 77.026,347.53C77.33,346.785 77.744,346.178 78.268,345.707C78.792,345.237 79.4,344.892 80.091,344.671C80.781,344.451 81.519,344.34 82.303,344.34C82.587,344.34 82.846,344.37 83.082,344.429C83.317,344.487 83.523,344.559 83.699,344.642C83.875,344.725 84.02,344.806 84.132,344.884C84.245,344.963 84.321,345.021 84.36,345.061C84.439,345.002 84.598,344.931 84.838,344.848C85.078,344.764 85.352,344.686 85.661,344.612C85.97,344.539 86.291,344.475 86.624,344.421C86.957,344.367 87.261,344.34 87.535,344.34C88.28,344.36 88.934,344.483 89.497,344.708C90.061,344.933 90.531,345.235 90.908,345.612C91.285,345.989 91.569,346.425 91.761,346.92C91.952,347.415 92.047,347.941 92.047,348.5C92.047,349.548 91.908,350.482 91.628,351.3C91.349,352.118 90.974,352.811 90.504,353.38C90.034,353.948 89.49,354.381 88.872,354.68C88.255,354.979 87.608,355.129 86.932,355.129C86.874,355.129 86.834,355.107 86.815,355.062C86.795,355.018 86.788,354.972 86.793,354.923C86.798,354.874 86.815,354.832 86.844,354.798C86.874,354.764 86.903,354.751 86.932,354.761C86.981,354.781 87.021,354.791 87.05,354.791L87.168,354.791C87.569,354.791 87.947,354.653 88.299,354.379C88.652,354.105 88.961,353.725 89.225,353.24C89.49,352.755 89.698,352.182 89.85,351.52C90.002,350.859 90.078,350.136 90.078,349.352C90.078,347.892 89.855,346.756 89.409,345.943C88.963,345.129 88.275,344.723 87.344,344.723C87.06,344.723 86.795,344.781 86.55,344.899C86.305,345.017 86.092,345.171 85.911,345.362C85.73,345.553 85.583,345.771 85.47,346.016C85.357,346.261 85.286,346.511 85.257,346.766C85.208,347.109 85.178,347.657 85.169,348.412C85.159,349.166 85.149,350.077 85.139,351.146C85.129,351.929 85.137,352.613 85.161,353.196C85.186,353.779 85.232,354.173 85.301,354.379Z" style="fill-rule:nonzero;"/>
            <path d="M94.928,355.099C94.752,355.099 94.556,355.102 94.34,355.107C94.124,355.111 93.914,355.116 93.708,355.121C93.502,355.126 93.309,355.136 93.127,355.151C92.946,355.165 92.807,355.178 92.709,355.187L92.473,355.217C92.424,355.217 92.383,355.19 92.348,355.136C92.314,355.082 92.297,355.031 92.297,354.982C92.297,354.942 92.317,354.901 92.356,354.857C92.395,354.813 92.449,354.791 92.517,354.791C92.929,354.791 93.257,354.766 93.502,354.717C93.747,354.668 93.894,354.604 93.943,354.526C94.002,354.408 94.063,354.146 94.127,353.74C94.191,353.333 94.247,352.858 94.296,352.314C94.345,351.77 94.384,351.199 94.413,350.602C94.443,350.004 94.458,349.45 94.458,348.941C94.458,348.382 94.455,347.914 94.45,347.537C94.445,347.16 94.44,346.849 94.436,346.604C94.431,346.359 94.426,346.17 94.421,346.038C94.416,345.906 94.413,345.81 94.413,345.751C94.404,345.438 94.36,345.23 94.281,345.127C94.203,345.024 94.061,344.963 93.855,344.943C93.708,344.924 93.537,344.919 93.341,344.928C93.145,344.938 93.003,344.938 92.914,344.928C92.846,344.919 92.787,344.906 92.738,344.892C92.689,344.877 92.664,344.826 92.664,344.737C92.664,344.639 92.689,344.573 92.738,344.539C92.787,344.505 92.841,344.487 92.9,344.487C92.978,344.487 93.23,344.505 93.657,344.539C94.083,344.573 94.693,344.59 95.486,344.59C96.006,344.59 96.449,344.578 96.817,344.554C97.184,344.529 97.436,344.507 97.573,344.487C97.642,344.487 97.708,344.495 97.772,344.51C97.836,344.524 97.867,344.571 97.867,344.649C97.867,344.816 97.755,344.909 97.529,344.928C97.451,344.928 97.363,344.933 97.265,344.943C97.167,344.953 97.071,344.963 96.978,344.972C96.885,344.982 96.799,344.997 96.721,345.017C96.643,345.036 96.584,345.051 96.545,345.061C96.496,345.08 96.449,345.259 96.405,345.597C96.361,345.935 96.322,346.354 96.287,346.854C96.253,347.354 96.221,347.892 96.192,348.471C96.163,349.049 96.143,349.583 96.133,350.073C96.123,350.445 96.116,350.879 96.111,351.373C96.106,351.868 96.111,352.343 96.126,352.799C96.14,353.255 96.163,353.649 96.192,353.982C96.221,354.315 96.265,354.506 96.324,354.555C96.363,354.585 96.437,354.612 96.545,354.636C96.652,354.661 96.78,354.685 96.927,354.71C97.074,354.734 97.223,354.751 97.375,354.761C97.527,354.771 97.667,354.776 97.794,354.776C97.902,354.776 97.97,354.786 98,354.805C98.029,354.825 98.044,354.874 98.044,354.952C98.044,355.04 98.007,355.104 97.934,355.143C97.86,355.182 97.784,355.202 97.706,355.202C97.647,355.202 97.559,355.197 97.441,355.187C97.324,355.178 97.162,355.165 96.956,355.151C96.75,355.136 96.491,355.124 96.177,355.114C95.864,355.104 95.477,355.099 95.016,355.099L94.928,355.099Z" style="fill-rule:nonzero;"/>
            <path d="M100.66,354.791C100.435,354.918 100.15,355.05 99.808,355.187C99.465,355.325 99.107,355.393 98.735,355.393C98.509,355.393 98.348,355.374 98.25,355.334C98.152,355.295 98.103,355.217 98.103,355.099C98.103,355.04 98.117,354.969 98.147,354.886C98.176,354.803 98.215,354.761 98.264,354.761C98.284,354.761 98.308,354.776 98.338,354.805C98.397,354.884 98.485,354.928 98.602,354.938C98.72,354.947 98.847,354.952 98.984,354.952C99.19,354.942 99.376,354.871 99.543,354.739C99.71,354.607 99.832,354.428 99.91,354.203C99.95,354.065 99.989,353.85 100.028,353.556C100.067,353.262 100.099,352.909 100.124,352.498C100.148,352.086 100.168,351.628 100.182,351.123C100.197,350.619 100.204,350.087 100.204,349.529C100.204,348.255 100.17,347.263 100.101,346.552C100.033,345.842 99.945,345.433 99.837,345.325C99.729,345.237 99.594,345.178 99.433,345.149C99.271,345.119 99.107,345.105 98.94,345.105C98.862,345.105 98.784,345.107 98.705,345.112C98.627,345.117 98.563,345.119 98.514,345.119C98.455,345.119 98.409,345.097 98.375,345.053C98.34,345.009 98.323,344.963 98.323,344.914C98.323,344.737 98.387,344.649 98.514,344.649C98.583,344.649 98.705,344.656 98.882,344.671C99.058,344.686 99.261,344.701 99.492,344.715C99.722,344.73 99.964,344.742 100.219,344.752C100.474,344.762 100.704,344.767 100.91,344.767C101.165,344.767 101.402,344.728 101.623,344.649C101.843,344.571 102.071,344.483 102.306,344.385C102.541,344.287 102.799,344.198 103.078,344.12C103.357,344.042 103.683,344.002 104.055,344.002C105.015,344.002 105.841,344.14 106.532,344.414C107.222,344.688 107.788,345.058 108.229,345.524C108.67,345.989 108.996,346.523 109.207,347.126C109.417,347.728 109.523,348.353 109.523,349C109.523,349.764 109.388,350.528 109.118,351.292C108.849,352.057 108.464,352.745 107.965,353.358C107.465,353.97 106.86,354.465 106.15,354.842C105.439,355.219 104.648,355.408 103.776,355.408C103.59,355.408 103.357,355.391 103.078,355.356C102.799,355.322 102.512,355.276 102.218,355.217C101.924,355.158 101.637,355.092 101.358,355.018C101.079,354.945 100.846,354.869 100.66,354.791ZM104.114,354.805C104.692,354.805 105.197,354.666 105.628,354.386C106.059,354.107 106.419,353.74 106.708,353.284C106.997,352.828 107.215,352.307 107.362,351.719C107.509,351.131 107.583,350.528 107.583,349.911C107.583,349.254 107.502,348.605 107.34,347.963C107.178,347.322 106.931,346.748 106.598,346.244C106.265,345.739 105.851,345.333 105.356,345.024C104.861,344.715 104.285,344.561 103.629,344.561C103.521,344.561 103.389,344.573 103.232,344.598C103.075,344.622 102.923,344.669 102.776,344.737C102.629,344.806 102.497,344.894 102.38,345.002C102.262,345.11 102.184,345.247 102.144,345.413C102.115,345.541 102.088,345.717 102.064,345.943C102.039,346.168 102.015,346.43 101.99,346.729C101.966,347.028 101.948,347.351 101.939,347.699C101.929,348.047 101.924,348.407 101.924,348.779C101.924,349.622 101.926,350.327 101.931,350.896C101.936,351.464 101.944,351.924 101.953,352.277C101.963,352.63 101.975,352.892 101.99,353.064C102.005,353.235 102.017,353.35 102.027,353.409C102.056,353.576 102.127,353.74 102.24,353.901C102.353,354.063 102.5,354.212 102.681,354.35C102.862,354.487 103.073,354.597 103.313,354.68C103.553,354.764 103.82,354.805 104.114,354.805Z" style="fill-rule:nonzero;"/>
            <path d="M112.403,355.099C112.227,355.099 112.031,355.102 111.816,355.107C111.6,355.111 111.389,355.116 111.184,355.121C110.978,355.126 110.784,355.136 110.603,355.151C110.422,355.165 110.282,355.178 110.184,355.187L109.949,355.217C109.9,355.217 109.858,355.19 109.824,355.136C109.79,355.082 109.773,355.031 109.773,354.982C109.773,354.942 109.792,354.901 109.831,354.857C109.871,354.813 109.924,354.791 109.993,354.791C110.405,354.791 110.733,354.766 110.978,354.717C111.223,354.668 111.37,354.604 111.419,354.526C111.477,354.408 111.539,354.146 111.602,353.74C111.666,353.333 111.722,352.858 111.771,352.314C111.82,351.77 111.86,351.199 111.889,350.602C111.918,350.004 111.933,349.45 111.933,348.941C111.933,348.382 111.931,347.914 111.926,347.537C111.921,347.16 111.916,346.849 111.911,346.604C111.906,346.359 111.901,346.17 111.896,346.038C111.891,345.906 111.889,345.81 111.889,345.751C111.879,345.438 111.835,345.23 111.757,345.127C111.678,345.024 111.536,344.963 111.33,344.943C111.184,344.924 111.012,344.919 110.816,344.928C110.62,344.938 110.478,344.938 110.39,344.928C110.321,344.919 110.262,344.906 110.213,344.892C110.164,344.877 110.14,344.826 110.14,344.737C110.14,344.639 110.164,344.573 110.213,344.539C110.262,344.505 110.316,344.487 110.375,344.487C110.454,344.487 110.706,344.505 111.132,344.539C111.558,344.573 112.168,344.59 112.962,344.59C113.481,344.59 113.925,344.578 114.292,344.554C114.66,344.529 114.912,344.507 115.049,344.487C115.118,344.487 115.184,344.495 115.247,344.51C115.311,344.524 115.343,344.571 115.343,344.649C115.343,344.816 115.23,344.909 115.005,344.928C114.927,344.928 114.838,344.933 114.74,344.943C114.642,344.953 114.547,344.963 114.454,344.972C114.361,344.982 114.275,344.997 114.197,345.017C114.118,345.036 114.059,345.051 114.02,345.061C113.971,345.08 113.925,345.259 113.881,345.597C113.836,345.935 113.797,346.354 113.763,346.854C113.729,347.354 113.697,347.892 113.667,348.471C113.638,349.049 113.618,349.583 113.609,350.073C113.599,350.445 113.591,350.879 113.587,351.373C113.582,351.868 113.587,352.343 113.601,352.799C113.616,353.255 113.638,353.649 113.667,353.982C113.697,354.315 113.741,354.506 113.8,354.555C113.839,354.585 113.912,354.612 114.02,354.636C114.128,354.661 114.255,354.685 114.402,354.71C114.549,354.734 114.699,354.751 114.851,354.761C115.002,354.771 115.142,354.776 115.269,354.776C115.377,354.776 115.446,354.786 115.475,354.805C115.505,354.825 115.519,354.874 115.519,354.952C115.519,355.04 115.483,355.104 115.409,355.143C115.336,355.182 115.26,355.202 115.181,355.202C115.122,355.202 115.034,355.197 114.917,355.187C114.799,355.178 114.637,355.165 114.432,355.151C114.226,355.136 113.966,355.124 113.653,355.114C113.339,355.104 112.952,355.099 112.492,355.099L112.403,355.099Z" style="fill-rule:nonzero;"/>
            <path d="M93.201,369.87C93.103,369.87 92.971,369.875 92.804,369.885C92.638,369.895 92.459,369.902 92.268,369.907C92.077,369.912 91.881,369.919 91.68,369.929C91.479,369.939 91.295,369.944 91.129,369.944C90.472,369.944 89.83,369.843 89.203,369.643C88.576,369.442 88.02,369.128 87.535,368.702C87.05,368.276 86.658,367.727 86.359,367.056C86.06,366.385 85.911,365.579 85.911,364.638C85.911,363.776 86.075,363.011 86.403,362.345C86.732,361.679 87.165,361.12 87.704,360.67C88.243,360.219 88.85,359.876 89.527,359.641C90.203,359.406 90.893,359.288 91.599,359.288C91.756,359.288 91.969,359.298 92.238,359.317C92.508,359.337 92.777,359.362 93.047,359.391C93.316,359.42 93.556,359.452 93.767,359.486C93.977,359.521 94.112,359.553 94.171,359.582C94.298,359.239 94.44,358.935 94.597,358.671C94.754,358.406 94.97,358.205 95.244,358.068C95.322,358.039 95.41,358.034 95.508,358.053C95.606,358.073 95.655,358.122 95.655,358.2C95.606,358.289 95.57,358.342 95.545,358.362C95.521,358.382 95.489,358.391 95.45,358.391C95.332,358.391 95.217,358.445 95.104,358.553C94.992,358.661 94.886,358.801 94.788,358.972C94.69,359.143 94.605,359.339 94.531,359.56C94.458,359.78 94.401,360.003 94.362,360.229C94.342,360.336 94.32,360.461 94.296,360.603C94.271,360.746 94.249,360.885 94.23,361.022C94.21,361.16 94.195,361.292 94.186,361.419C94.176,361.547 94.171,361.654 94.171,361.743C94.171,361.792 94.151,361.833 94.112,361.867C94.073,361.902 94.034,361.919 93.995,361.919C93.936,361.919 93.867,361.89 93.789,361.831C93.75,361.586 93.669,361.341 93.546,361.096C93.424,360.851 93.252,360.63 93.032,360.434C92.811,360.238 92.537,360.082 92.209,359.964C91.881,359.847 91.491,359.788 91.04,359.788C90.56,359.788 90.132,359.9 89.754,360.126C89.377,360.351 89.059,360.66 88.799,361.052C88.539,361.444 88.341,361.909 88.204,362.448C88.067,362.987 87.998,363.565 87.998,364.182C87.998,365.035 88.084,365.792 88.255,366.453C88.427,367.115 88.664,367.675 88.968,368.136C89.272,368.597 89.634,368.947 90.056,369.187C90.477,369.427 90.937,369.547 91.437,369.547C91.77,369.547 92.096,369.493 92.415,369.385C92.733,369.278 93.027,369.131 93.296,368.944C93.566,368.758 93.806,368.543 94.017,368.298C94.227,368.053 94.391,367.793 94.509,367.519C94.529,367.48 94.58,367.45 94.663,367.431C94.747,367.411 94.788,367.421 94.788,367.46C94.788,367.587 94.747,367.761 94.663,367.982C94.58,368.202 94.485,368.423 94.377,368.643C94.269,368.864 94.161,369.064 94.053,369.246C93.946,369.427 93.872,369.547 93.833,369.606C93.804,369.674 93.767,369.765 93.723,369.878C93.679,369.99 93.639,370.118 93.605,370.26C93.571,370.402 93.539,370.549 93.51,370.701C93.48,370.853 93.465,371.002 93.465,371.149C93.465,371.306 93.446,371.404 93.407,371.443C93.368,371.482 93.284,371.502 93.157,371.502C93.049,371.502 93,371.426 93.01,371.274C93.02,371.122 93.044,370.948 93.083,370.752C93.123,370.556 93.162,370.373 93.201,370.201C93.24,370.03 93.24,369.919 93.201,369.87Z" style="fill-rule:nonzero;"/>
            <path d="M105.473,359.317C105.591,359.317 105.723,359.315 105.87,359.31C106.017,359.305 106.157,359.3 106.289,359.295C106.421,359.29 106.534,359.286 106.627,359.281C106.72,359.276 106.782,359.273 106.811,359.273C106.978,359.273 107.061,359.322 107.061,359.42C107.061,359.508 107.027,359.572 106.958,359.611C106.889,359.651 106.809,359.68 106.715,359.7C106.622,359.719 106.527,359.731 106.429,359.736C106.331,359.741 106.252,359.758 106.194,359.788C105.743,360.65 105.304,361.505 104.878,362.352C104.452,363.2 104.043,364.008 103.651,364.778C103.259,365.547 102.889,366.257 102.541,366.909C102.193,367.56 101.88,368.126 101.601,368.606C101.321,369.086 101.079,369.464 100.873,369.738C100.667,370.012 100.511,370.15 100.403,370.15C100.354,370.12 100.305,370.074 100.256,370.01C100.207,369.946 100.158,369.861 100.109,369.753C99.962,369.449 99.795,369.082 99.609,368.65C99.423,368.219 99.227,367.754 99.021,367.254C98.815,366.754 98.6,366.238 98.375,365.704C98.149,365.17 97.924,364.638 97.698,364.109L97.39,363.374C97.223,362.962 97.062,362.556 96.905,362.154C96.748,361.752 96.603,361.382 96.471,361.044C96.339,360.706 96.221,360.42 96.118,360.185C96.016,359.949 95.93,359.793 95.861,359.714C95.616,359.714 95.425,359.709 95.288,359.7C95.151,359.69 95.048,359.678 94.979,359.663C94.911,359.648 94.867,359.629 94.847,359.604C94.827,359.58 94.818,359.553 94.818,359.523C94.818,359.455 94.837,359.396 94.876,359.347C94.916,359.298 94.955,359.273 94.994,359.273C95.023,359.273 95.099,359.276 95.222,359.281C95.344,359.286 95.496,359.29 95.677,359.295C95.859,359.3 96.062,359.308 96.287,359.317C96.513,359.327 96.738,359.332 96.964,359.332C97.816,359.332 98.433,359.315 98.815,359.281C99.198,359.246 99.428,359.229 99.506,359.229C99.692,359.229 99.785,359.278 99.785,359.376C99.785,359.396 99.781,359.423 99.771,359.457C99.761,359.491 99.734,359.528 99.69,359.567C99.646,359.606 99.572,359.641 99.469,359.67C99.367,359.7 99.227,359.714 99.051,359.714C98.923,359.714 98.798,359.712 98.676,359.707C98.553,359.702 98.458,359.695 98.389,359.685C98.389,359.753 98.443,359.964 98.551,360.317C98.659,360.67 98.798,361.101 98.97,361.61C99.141,362.12 99.337,362.673 99.558,363.271C99.778,363.869 99.999,364.449 100.219,365.013C100.44,365.576 100.65,366.091 100.851,366.556C101.052,367.021 101.226,367.377 101.373,367.622C101.451,367.514 101.574,367.298 101.74,366.975C101.907,366.652 102.093,366.265 102.299,365.814C102.505,365.363 102.718,364.873 102.938,364.344C103.159,363.815 103.359,363.293 103.541,362.779C103.722,362.264 103.871,361.779 103.989,361.324C104.107,360.868 104.165,360.493 104.165,360.199C104.165,360.101 104.158,359.998 104.143,359.891C104.129,359.783 104.082,359.719 104.004,359.7C103.749,359.7 103.541,359.695 103.379,359.685C103.217,359.675 103.088,359.663 102.99,359.648C102.892,359.633 102.813,359.614 102.754,359.589C102.696,359.565 102.642,359.543 102.593,359.523C102.563,359.484 102.549,359.425 102.549,359.347C102.549,359.268 102.578,359.229 102.637,359.229L102.828,359.229C102.936,359.239 103.117,359.251 103.372,359.266C103.626,359.281 104.004,359.298 104.503,359.317L105.473,359.317Z" style="fill-rule:nonzero;"/>
        </g>
        <g transform="matrix(1,0,0,1,-89.6693,-31.1068)">
            <text x="76.188px" y="355.099px" style="font-family:'Luminari-Regular', 'Luminari';font-size:14.698px;">MIDI</text>
            <text x="85.514px" y="369.797px" style="font-family:'Luminari-Regular', 'Luminari';font-size:14.698px;">CV</text>
        </g>
        <g transform="matrix(0.0219124,0,0,0.0248558,-4.90147,285.934)">
            <g transform="matrix(1,0,0,1,-143.343,98.6554)">
                <ellipse cx="360.896" cy="293.762" rx="136.961" ry="230.443" style="fill:rgb(102,126,153);stroke:black;stroke-width:63.81px;"/>
            </g>
            <g transform="matrix(1,0,0,1,445.551,98.6554)">
                <ellipse cx="360.896" cy="293.762" rx="136.961" ry="230.443" style="fill:rgb(102,126,153);stroke:black;stroke-width:63.81px;"/>
            </g>
            <g transform="matrix(1,0,0,1,-34.3236,-20.6488)">
                <ellipse cx="546.324" cy="643.509" rx="431.408" ry="296.899" style="fill:rgb(102,126,153);stroke:black;stroke-width:63.81px;"/>
            </g>
            <circle cx="406.664" cy="569.758" r="105.336" style="fill:rgb(102,126,153);stroke:black;stroke-width:63.81px;"/>
            <g transform="matrix(1,0,0,1,210.672,0)">
                <circle cx="406.664" cy="569.758" r="105.336" style="fill:rgb(102,126,153);stroke:black;stroke-width:63.81px;"/>
            </g>
            <g transform="matrix(1,0,0,1,-53.1856,50.0357)">
                <ellipse cx="565.186" cy="671.455" rx="210.672" ry="98.631" style="fill:rgb(102,126,153);stroke:black;stroke-width:63.81px;"/>
            </g>
            <g transform="matrix(51.2,0,0,45.1371,0.670978,88.9676)">
                <path d="M12.057,13.791C12.057,13.668 11.958,13.568 11.835,13.568L8.139,13.568C8.016,13.568 7.916,13.668 7.916,13.791L7.916,14.236C7.916,14.359 8.016,14.458 8.139,14.458L11.835,14.458C11.958,14.458 12.057,14.359 12.057,14.236L12.057,13.791Z"/>
            </g>
        </g>
    </g>
</svg>
