<?xml version="1.0" encoding="UTF-8" standalone="no"?>
<!DOCTYPE svg PUBLIC "-//W3C//DTD SVG 1.1//EN" "http://www.w3.org/Graphics/SVG/1.1/DTD/svg11.dtd">
<svg width="100%" height="100%" viewBox="0 0 120 380" version="1.1" xmlns="http://www.w3.org/2000/svg" xmlns:xlink="http://www.w3.org/1999/xlink" xml:space="preserve" xmlns:serif="http://www.serif.com/" style="fill-rule:evenodd;clip-rule:evenodd;stroke-linecap:round;stroke-linejoin:round;stroke-miterlimit:1.5;">
    <g transform="matrix(0.576683,0,0,2.01589,-30.3085,-120.797)">
        <rect x="52.556" y="59.922" width="208.087" height="188.503" style="fill:rgb(102,126,153);"/>
    </g>
    <g transform="matrix(1,0,0,1,73.7884,-108.347)">
        <g transform="matrix(1,0,0,1,0,93.203)">
            <g id="Velocity-output" serif:id="Velocity#output" transform="matrix(0.175002,0,0,0.175002,-12.3416,338.088)">
                <rect x="53.94" y="106.916" width="161.978" height="161.978" style="fill:rgb(77,77,77);"/>
            </g>
            <g transform="matrix(1,0,0,1,-89.8467,234.706)">
                <path d="M92.728,113.236L91.408,118.306L90.508,118.306L89.188,113.236L90.268,113.236L90.948,116.476L90.968,116.476L91.648,113.236L92.728,113.236Z" style="fill-rule:nonzero;"/>
                <path d="M96.028,116.156L94.008,116.156L94.008,116.846C94.008,117.006 94.053,117.13 94.143,117.216C94.233,117.303 94.355,117.346 94.508,117.346C94.701,117.346 94.83,117.29 94.893,117.176C94.956,117.063 94.995,116.95 95.008,116.836L96.028,116.836C96.028,117.283 95.891,117.643 95.618,117.916C95.485,118.056 95.325,118.166 95.138,118.246C94.951,118.326 94.741,118.366 94.508,118.366C94.188,118.366 93.916,118.3 93.693,118.166C93.47,118.033 93.298,117.856 93.178,117.636C93.105,117.503 93.055,117.35 93.028,117.176C93.001,117.003 92.988,116.813 92.988,116.606L92.988,114.936C92.988,114.73 93.001,114.54 93.028,114.366C93.055,114.193 93.105,114.04 93.178,113.906C93.298,113.686 93.47,113.51 93.693,113.376C93.916,113.243 94.188,113.176 94.508,113.176C94.741,113.176 94.953,113.216 95.143,113.296C95.333,113.376 95.495,113.486 95.628,113.626C95.895,113.926 96.028,114.303 96.028,114.756L96.028,116.156ZM94.008,115.356L95.008,115.356L95.008,114.776C95.008,114.583 94.963,114.438 94.873,114.341C94.783,114.245 94.661,114.196 94.508,114.196C94.355,114.196 94.233,114.245 94.143,114.341C94.053,114.438 94.008,114.583 94.008,114.776L94.008,115.356Z" style="fill-rule:nonzero;"/>
                <path d="M96.718,111.186L97.738,111.186L97.738,116.876C97.738,117.07 97.773,117.201 97.843,117.271C97.913,117.341 98.045,117.386 98.238,117.406L98.238,118.366C98.005,118.366 97.795,118.348 97.608,118.311C97.421,118.275 97.261,118.203 97.128,118.096C96.995,117.996 96.893,117.855 96.823,117.671C96.753,117.488 96.718,117.246 96.718,116.946L96.718,111.186Z" style="fill-rule:nonzero;"/>
                <path d="M98.548,114.936C98.548,114.73 98.561,114.54 98.588,114.366C98.615,114.193 98.665,114.04 98.738,113.906C98.858,113.686 99.03,113.51 99.253,113.376C99.476,113.243 99.748,113.176 100.068,113.176C100.388,113.176 100.66,113.243 100.883,113.376C101.106,113.51 101.278,113.686 101.398,113.906C101.471,114.04 101.521,114.193 101.548,114.366C101.575,114.54 101.588,114.73 101.588,114.936L101.588,116.606C101.588,116.813 101.575,117.003 101.548,117.176C101.521,117.35 101.471,117.503 101.398,117.636C101.278,117.856 101.106,118.033 100.883,118.166C100.66,118.3 100.388,118.366 100.068,118.366C99.748,118.366 99.476,118.3 99.253,118.166C99.03,118.033 98.858,117.856 98.738,117.636C98.665,117.503 98.615,117.35 98.588,117.176C98.561,117.003 98.548,116.813 98.548,116.606L98.548,114.936ZM99.568,116.766C99.568,116.96 99.613,117.105 99.703,117.201C99.793,117.298 99.915,117.346 100.068,117.346C100.221,117.346 100.343,117.298 100.433,117.201C100.523,117.105 100.568,116.96 100.568,116.766L100.568,114.776C100.568,114.583 100.523,114.438 100.433,114.341C100.343,114.245 100.221,114.196 100.068,114.196C99.915,114.196 99.793,114.245 99.703,114.341C99.613,114.438 99.568,114.583 99.568,114.776L99.568,116.766Z" style="fill-rule:nonzero;"/>
                <path d="M103.418,116.846C103.418,117.006 103.463,117.13 103.553,117.216C103.643,117.303 103.765,117.346 103.918,117.346C104.111,117.346 104.24,117.29 104.303,117.176C104.366,117.063 104.405,116.95 104.418,116.836L105.438,116.836C105.438,117.283 105.301,117.643 105.028,117.916C104.895,118.056 104.735,118.166 104.548,118.246C104.361,118.326 104.151,118.366 103.918,118.366C103.598,118.366 103.326,118.3 103.103,118.166C102.88,118.033 102.708,117.856 102.588,117.636C102.515,117.503 102.465,117.35 102.438,117.176C102.411,117.003 102.398,116.813 102.398,116.606L102.398,114.936C102.398,114.73 102.411,114.54 102.438,114.366C102.465,114.193 102.515,114.04 102.588,113.906C102.708,113.686 102.88,113.51 103.103,113.376C103.326,113.243 103.598,113.176 103.918,113.176C104.151,113.176 104.363,113.216 104.553,113.296C104.743,113.376 104.905,113.486 105.038,113.626C105.305,113.926 105.438,114.316 105.438,114.796L104.418,114.796C104.418,114.59 104.373,114.438 104.283,114.341C104.193,114.245 104.071,114.196 103.918,114.196C103.765,114.196 103.643,114.245 103.553,114.341C103.463,114.438 103.418,114.583 103.418,114.776L103.418,116.846Z" style="fill-rule:nonzero;"/>
                <path d="M106.038,118.306L106.038,113.236L107.058,113.236L107.058,118.306L106.038,118.306ZM106.038,112.206L106.038,111.186L107.058,111.186L107.058,112.206L106.038,112.206Z" style="fill-rule:nonzero;"/>
                <path d="M107.898,113.236L107.898,111.696L108.918,111.696L108.918,113.236L109.548,113.236L109.548,114.036L108.918,114.036L108.918,116.846C108.918,116.966 108.93,117.06 108.953,117.126C108.976,117.193 109.015,117.243 109.068,117.276C109.121,117.31 109.186,117.33 109.263,117.336C109.34,117.343 109.435,117.346 109.548,117.346L109.548,118.306L109.128,118.306C108.895,118.306 108.7,118.27 108.543,118.196C108.386,118.123 108.261,118.03 108.168,117.916C108.075,117.803 108.006,117.675 107.963,117.531C107.92,117.388 107.898,117.25 107.898,117.116L107.898,114.036L107.388,114.036L107.388,113.236L107.898,113.236Z" style="fill-rule:nonzero;"/>
                <path d="M109.508,113.236L110.588,113.236L111.288,116.396L111.308,116.396L111.998,113.236L113.048,113.236L111.588,119.186C111.535,119.413 111.46,119.6 111.363,119.746C111.266,119.893 111.155,120.013 111.028,120.106C110.901,120.2 110.766,120.265 110.623,120.301C110.48,120.338 110.331,120.356 110.178,120.356L109.898,120.356L109.898,119.396L110.128,119.396C110.228,119.396 110.315,119.383 110.388,119.356C110.461,119.33 110.528,119.27 110.588,119.176C110.641,119.083 110.691,118.951 110.738,118.781C110.785,118.611 110.838,118.376 110.898,118.076L109.508,113.236Z" style="fill-rule:nonzero;"/>
            </g>
            <g transform="matrix(1,0,0,1,-89.8467,234.706)">
                <text x="89.198px" y="118.306px" style="font-family:'DINCondensed-Bold', 'DIN Condensed';font-weight:700;font-stretch:condensed;font-size:10px;">velocity</text>
            </g>
        </g>
        <g transform="matrix(1,0,0,1,0,44.078)">
            <g id="Gate-output" serif:id="Gate#output" transform="matrix(0.175002,0,0,0.175002,-12.3416,338.088)">
                <rect x="53.94" y="106.916" width="161.978" height="161.978" style="fill:rgb(77,77,77);"/>
            </g>
            <g transform="matrix(1,0,0,1,-84.7825,234.342)">
                <path d="M90.638,118.896C90.645,119.016 90.693,119.13 90.783,119.236C90.873,119.343 91.005,119.396 91.178,119.396C91.345,119.396 91.465,119.345 91.538,119.241C91.611,119.138 91.648,119.006 91.648,118.846L91.648,117.846L91.628,117.846C91.515,118.013 91.38,118.141 91.223,118.231C91.066,118.321 90.885,118.366 90.678,118.366C90.251,118.366 89.955,118.206 89.788,117.886C89.728,117.773 89.685,117.633 89.658,117.466C89.631,117.3 89.618,117.076 89.618,116.796L89.618,114.866C89.618,114.5 89.628,114.23 89.648,114.056C89.688,113.723 89.845,113.473 90.118,113.306C90.245,113.22 90.435,113.176 90.688,113.176C90.815,113.176 90.923,113.19 91.013,113.216C91.103,113.243 91.185,113.28 91.258,113.326C91.331,113.373 91.398,113.428 91.458,113.491C91.518,113.555 91.581,113.623 91.648,113.696L91.648,113.236L92.668,113.236L92.668,118.926C92.668,119.1 92.64,119.275 92.583,119.451C92.526,119.628 92.435,119.786 92.308,119.926C92.181,120.073 92.021,120.191 91.828,120.281C91.635,120.371 91.405,120.416 91.138,120.416C90.985,120.416 90.825,120.391 90.658,120.341C90.491,120.291 90.338,120.206 90.198,120.086C90.051,119.973 89.926,119.821 89.823,119.631C89.72,119.441 89.651,119.196 89.618,118.896L90.638,118.896ZM90.638,116.746C90.638,116.906 90.673,117.046 90.743,117.166C90.813,117.286 90.945,117.346 91.138,117.346C91.285,117.346 91.406,117.295 91.503,117.191C91.6,117.088 91.648,116.956 91.648,116.796L91.648,114.826C91.648,114.64 91.601,114.488 91.508,114.371C91.415,114.255 91.291,114.196 91.138,114.196C90.965,114.196 90.838,114.26 90.758,114.386C90.678,114.513 90.638,114.68 90.638,114.886L90.638,116.746Z" style="fill-rule:nonzero;"/>
                <path d="M95.438,118.306L95.438,117.786L95.418,117.786C95.285,117.973 95.15,118.116 95.013,118.216C94.876,118.316 94.685,118.366 94.438,118.366C94.318,118.366 94.196,118.348 94.073,118.311C93.95,118.275 93.831,118.206 93.718,118.106C93.605,118.013 93.513,117.878 93.443,117.701C93.373,117.525 93.338,117.296 93.338,117.016C93.338,116.73 93.361,116.478 93.408,116.261C93.455,116.045 93.541,115.863 93.668,115.716C93.788,115.576 93.951,115.471 94.158,115.401C94.365,115.331 94.628,115.296 94.948,115.296L95.058,115.296C95.098,115.296 95.135,115.3 95.168,115.306C95.201,115.313 95.241,115.316 95.288,115.316C95.335,115.316 95.385,115.32 95.438,115.326L95.438,114.796C95.438,114.623 95.401,114.48 95.328,114.366C95.255,114.253 95.121,114.196 94.928,114.196C94.795,114.196 94.673,114.24 94.563,114.326C94.453,114.413 94.381,114.54 94.348,114.706L93.358,114.706C93.385,114.253 93.538,113.886 93.818,113.606C93.951,113.473 94.111,113.368 94.298,113.291C94.485,113.215 94.695,113.176 94.928,113.176C95.141,113.176 95.341,113.21 95.528,113.276C95.715,113.343 95.878,113.443 96.018,113.576C96.151,113.71 96.258,113.876 96.338,114.076C96.418,114.276 96.458,114.51 96.458,114.776L96.458,118.306L95.438,118.306ZM95.438,116.126C95.325,116.106 95.231,116.096 95.158,116.096C94.938,116.096 94.75,116.148 94.593,116.251C94.436,116.355 94.358,116.543 94.358,116.816C94.358,117.01 94.405,117.166 94.498,117.286C94.591,117.406 94.721,117.466 94.888,117.466C95.061,117.466 95.196,117.41 95.293,117.296C95.39,117.183 95.438,117.023 95.438,116.816L95.438,116.126Z" style="fill-rule:nonzero;"/>
                <path d="M97.208,113.236L97.208,111.696L98.228,111.696L98.228,113.236L98.858,113.236L98.858,114.036L98.228,114.036L98.228,116.846C98.228,116.966 98.24,117.06 98.263,117.126C98.286,117.193 98.325,117.243 98.378,117.276C98.431,117.31 98.496,117.33 98.573,117.336C98.65,117.343 98.745,117.346 98.858,117.346L98.858,118.306L98.438,118.306C98.205,118.306 98.01,118.27 97.853,118.196C97.696,118.123 97.571,118.03 97.478,117.916C97.385,117.803 97.316,117.675 97.273,117.531C97.23,117.388 97.208,117.25 97.208,117.116L97.208,114.036L96.698,114.036L96.698,113.236L97.208,113.236Z" style="fill-rule:nonzero;"/>
                <path d="M102.198,116.156L100.178,116.156L100.178,116.846C100.178,117.006 100.223,117.13 100.313,117.216C100.403,117.303 100.525,117.346 100.678,117.346C100.871,117.346 101,117.29 101.063,117.176C101.126,117.063 101.165,116.95 101.178,116.836L102.198,116.836C102.198,117.283 102.061,117.643 101.788,117.916C101.655,118.056 101.495,118.166 101.308,118.246C101.121,118.326 100.911,118.366 100.678,118.366C100.358,118.366 100.086,118.3 99.863,118.166C99.64,118.033 99.468,117.856 99.348,117.636C99.275,117.503 99.225,117.35 99.198,117.176C99.171,117.003 99.158,116.813 99.158,116.606L99.158,114.936C99.158,114.73 99.171,114.54 99.198,114.366C99.225,114.193 99.275,114.04 99.348,113.906C99.468,113.686 99.64,113.51 99.863,113.376C100.086,113.243 100.358,113.176 100.678,113.176C100.911,113.176 101.123,113.216 101.313,113.296C101.503,113.376 101.665,113.486 101.798,113.626C102.065,113.926 102.198,114.303 102.198,114.756L102.198,116.156ZM100.178,115.356L101.178,115.356L101.178,114.776C101.178,114.583 101.133,114.438 101.043,114.341C100.953,114.245 100.831,114.196 100.678,114.196C100.525,114.196 100.403,114.245 100.313,114.341C100.223,114.438 100.178,114.583 100.178,114.776L100.178,115.356Z" style="fill-rule:nonzero;"/>
            </g>
            <g transform="matrix(1,0,0,1,-84.7825,234.342)">
                <text x="89.198px" y="118.306px" style="font-family:'DINCondensed-Bold', 'DIN Condensed';font-weight:700;font-stretch:condensed;font-size:10px;">gate</text>
            </g>
        </g>
        <g transform="matrix(1,0,0,1,0,-4.52958)">
            <g id="Pitch-output" serif:id="Pitch#output" transform="matrix(0.175002,0,0,0.175002,-12.3416,338.088)">
                <rect x="53.94" y="106.916" width="161.978" height="161.978" style="fill:rgb(77,77,77);"/>
            </g>
            <g transform="matrix(1,0,0,1,-85.7025,234.27)">
                <path d="M89.618,120.356L89.618,113.236L90.638,113.236L90.638,113.696C90.765,113.55 90.895,113.426 91.028,113.326C91.161,113.226 91.355,113.176 91.608,113.176C92.028,113.176 92.325,113.336 92.498,113.656C92.558,113.77 92.601,113.91 92.628,114.076C92.655,114.243 92.668,114.466 92.668,114.746L92.668,116.676C92.668,117.05 92.658,117.32 92.638,117.486C92.598,117.82 92.445,118.07 92.178,118.236C92.045,118.323 91.851,118.366 91.598,118.366C91.398,118.366 91.22,118.321 91.063,118.231C90.906,118.141 90.771,118.013 90.658,117.846L90.638,117.846L90.638,120.356L89.618,120.356ZM91.648,114.886C91.648,114.68 91.608,114.513 91.528,114.386C91.448,114.26 91.321,114.196 91.148,114.196C90.995,114.196 90.871,114.255 90.778,114.371C90.685,114.488 90.638,114.64 90.638,114.826L90.638,116.796C90.638,116.956 90.686,117.088 90.783,117.191C90.88,117.295 91.001,117.346 91.148,117.346C91.341,117.346 91.473,117.286 91.543,117.166C91.613,117.046 91.648,116.906 91.648,116.746L91.648,114.886Z" style="fill-rule:nonzero;"/>
                <path d="M93.508,118.306L93.508,113.236L94.528,113.236L94.528,118.306L93.508,118.306ZM93.508,112.206L93.508,111.186L94.528,111.186L94.528,112.206L93.508,112.206Z" style="fill-rule:nonzero;"/>
                <path d="M95.368,113.236L95.368,111.696L96.388,111.696L96.388,113.236L97.018,113.236L97.018,114.036L96.388,114.036L96.388,116.846C96.388,116.966 96.4,117.06 96.423,117.126C96.446,117.193 96.485,117.243 96.538,117.276C96.591,117.31 96.656,117.33 96.733,117.336C96.81,117.343 96.905,117.346 97.018,117.346L97.018,118.306L96.598,118.306C96.365,118.306 96.17,118.27 96.013,118.196C95.856,118.123 95.731,118.03 95.638,117.916C95.545,117.803 95.476,117.675 95.433,117.531C95.39,117.388 95.368,117.25 95.368,117.116L95.368,114.036L94.858,114.036L94.858,113.236L95.368,113.236Z" style="fill-rule:nonzero;"/>
                <path d="M98.488,116.846C98.488,117.006 98.533,117.13 98.623,117.216C98.713,117.303 98.835,117.346 98.988,117.346C99.181,117.346 99.31,117.29 99.373,117.176C99.436,117.063 99.475,116.95 99.488,116.836L100.508,116.836C100.508,117.283 100.371,117.643 100.098,117.916C99.965,118.056 99.805,118.166 99.618,118.246C99.431,118.326 99.221,118.366 98.988,118.366C98.668,118.366 98.396,118.3 98.173,118.166C97.95,118.033 97.778,117.856 97.658,117.636C97.585,117.503 97.535,117.35 97.508,117.176C97.481,117.003 97.468,116.813 97.468,116.606L97.468,114.936C97.468,114.73 97.481,114.54 97.508,114.366C97.535,114.193 97.585,114.04 97.658,113.906C97.778,113.686 97.95,113.51 98.173,113.376C98.396,113.243 98.668,113.176 98.988,113.176C99.221,113.176 99.433,113.216 99.623,113.296C99.813,113.376 99.975,113.486 100.108,113.626C100.375,113.926 100.508,114.316 100.508,114.796L99.488,114.796C99.488,114.59 99.443,114.438 99.353,114.341C99.263,114.245 99.141,114.196 98.988,114.196C98.835,114.196 98.713,114.245 98.623,114.341C98.533,114.438 98.488,114.583 98.488,114.776L98.488,116.846Z" style="fill-rule:nonzero;"/>
                <path d="M100.988,118.306L100.988,111.186L102.008,111.186L102.008,113.726L102.028,113.726C102.135,113.566 102.263,113.435 102.413,113.331C102.563,113.228 102.755,113.176 102.988,113.176C103.115,113.176 103.241,113.198 103.368,113.241C103.495,113.285 103.608,113.356 103.708,113.456C103.808,113.556 103.888,113.685 103.948,113.841C104.008,113.998 104.038,114.19 104.038,114.416L104.038,118.306L103.018,118.306L103.018,114.796C103.018,114.61 102.975,114.463 102.888,114.356C102.801,114.25 102.678,114.196 102.518,114.196C102.325,114.196 102.191,114.256 102.118,114.376C102.045,114.496 102.008,114.67 102.008,114.896L102.008,118.306L100.988,118.306Z" style="fill-rule:nonzero;"/>
            </g>
            <g transform="matrix(1,0,0,1,-85.7025,234.27)">
                <text x="89.198px" y="118.306px" style="font-family:'DINCondensed-Bold', 'DIN Condensed';font-weight:700;font-stretch:condensed;font-size:10px;">pitc<tspan x="100.568px " y="118.306px ">h</tspan></text>
            </g>
        </g>
    </g>
    <g transform="matrix(1,0,0,1,-82.7798,59.2913)">
        <g>
            <g id="Reset-input" serif:id="Reset#input" transform="matrix(0.175002,0,0,0.175002,94.1072,263.652)">
                <rect x="53.94" y="106.916" width="161.978" height="161.978" style="fill:rgb(217,217,217);"/>
            </g>
            <g transform="matrix(1,0,0,1,20.4271,159.225)">
                <path d="M89.618,118.306L89.618,113.236L90.638,113.236L90.638,113.776C90.845,113.59 91.048,113.443 91.248,113.336C91.448,113.23 91.695,113.176 91.988,113.176L91.988,114.256C91.888,114.216 91.785,114.196 91.678,114.196C91.571,114.196 91.456,114.215 91.333,114.251C91.21,114.288 91.098,114.35 90.998,114.436C90.891,114.523 90.805,114.636 90.738,114.776C90.671,114.916 90.638,115.09 90.638,115.296L90.638,118.306L89.618,118.306Z" style="fill-rule:nonzero;"/>
                <path d="M95.348,116.156L93.328,116.156L93.328,116.846C93.328,117.006 93.373,117.13 93.463,117.216C93.553,117.303 93.675,117.346 93.828,117.346C94.021,117.346 94.15,117.29 94.213,117.176C94.276,117.063 94.315,116.95 94.328,116.836L95.348,116.836C95.348,117.283 95.211,117.643 94.938,117.916C94.805,118.056 94.645,118.166 94.458,118.246C94.271,118.326 94.061,118.366 93.828,118.366C93.508,118.366 93.236,118.3 93.013,118.166C92.79,118.033 92.618,117.856 92.498,117.636C92.425,117.503 92.375,117.35 92.348,117.176C92.321,117.003 92.308,116.813 92.308,116.606L92.308,114.936C92.308,114.73 92.321,114.54 92.348,114.366C92.375,114.193 92.425,114.04 92.498,113.906C92.618,113.686 92.79,113.51 93.013,113.376C93.236,113.243 93.508,113.176 93.828,113.176C94.061,113.176 94.273,113.216 94.463,113.296C94.653,113.376 94.815,113.486 94.948,113.626C95.215,113.926 95.348,114.303 95.348,114.756L95.348,116.156ZM93.328,115.356L94.328,115.356L94.328,114.776C94.328,114.583 94.283,114.438 94.193,114.341C94.103,114.245 93.981,114.196 93.828,114.196C93.675,114.196 93.553,114.245 93.463,114.341C93.373,114.438 93.328,114.583 93.328,114.776L93.328,115.356Z" style="fill-rule:nonzero;"/>
                <path d="M97.948,114.656C97.941,114.483 97.886,114.353 97.783,114.266C97.68,114.18 97.561,114.136 97.428,114.136C97.268,114.136 97.145,114.188 97.058,114.291C96.971,114.395 96.928,114.513 96.928,114.646C96.928,114.74 96.951,114.831 96.998,114.921C97.045,115.011 97.165,115.093 97.358,115.166L97.958,115.406C98.338,115.553 98.6,115.753 98.743,116.006C98.886,116.26 98.958,116.536 98.958,116.836C98.958,117.05 98.92,117.248 98.843,117.431C98.766,117.615 98.661,117.776 98.528,117.916C98.395,118.056 98.235,118.166 98.048,118.246C97.861,118.326 97.658,118.366 97.438,118.366C97.025,118.366 96.678,118.236 96.398,117.976C96.258,117.85 96.145,117.691 96.058,117.501C95.971,117.311 95.925,117.09 95.918,116.836L96.878,116.836C96.898,116.976 96.946,117.106 97.023,117.226C97.1,117.346 97.235,117.406 97.428,117.406C97.575,117.406 97.706,117.358 97.823,117.261C97.94,117.165 97.998,117.03 97.998,116.856C97.998,116.716 97.961,116.596 97.888,116.496C97.815,116.396 97.681,116.31 97.488,116.236L96.998,116.056C96.678,115.936 96.426,115.758 96.243,115.521C96.06,115.285 95.968,114.996 95.968,114.656C95.968,114.443 96.008,114.245 96.088,114.061C96.168,113.878 96.278,113.72 96.418,113.586C96.551,113.453 96.708,113.351 96.888,113.281C97.068,113.211 97.261,113.176 97.468,113.176C97.675,113.176 97.866,113.213 98.043,113.286C98.22,113.36 98.371,113.463 98.498,113.596C98.625,113.73 98.725,113.888 98.798,114.071C98.871,114.255 98.908,114.45 98.908,114.656L97.948,114.656Z" style="fill-rule:nonzero;"/>
                <path d="M102.568,116.156L100.548,116.156L100.548,116.846C100.548,117.006 100.593,117.13 100.683,117.216C100.773,117.303 100.895,117.346 101.048,117.346C101.241,117.346 101.37,117.29 101.433,117.176C101.496,117.063 101.535,116.95 101.548,116.836L102.568,116.836C102.568,117.283 102.431,117.643 102.158,117.916C102.025,118.056 101.865,118.166 101.678,118.246C101.491,118.326 101.281,118.366 101.048,118.366C100.728,118.366 100.456,118.3 100.233,118.166C100.01,118.033 99.838,117.856 99.718,117.636C99.645,117.503 99.595,117.35 99.568,117.176C99.541,117.003 99.528,116.813 99.528,116.606L99.528,114.936C99.528,114.73 99.541,114.54 99.568,114.366C99.595,114.193 99.645,114.04 99.718,113.906C99.838,113.686 100.01,113.51 100.233,113.376C100.456,113.243 100.728,113.176 101.048,113.176C101.281,113.176 101.493,113.216 101.683,113.296C101.873,113.376 102.035,113.486 102.168,113.626C102.435,113.926 102.568,114.303 102.568,114.756L102.568,116.156ZM100.548,115.356L101.548,115.356L101.548,114.776C101.548,114.583 101.503,114.438 101.413,114.341C101.323,114.245 101.201,114.196 101.048,114.196C100.895,114.196 100.773,114.245 100.683,114.341C100.593,114.438 100.548,114.583 100.548,114.776L100.548,115.356Z" style="fill-rule:nonzero;"/>
                <path d="M103.318,113.236L103.318,111.696L104.338,111.696L104.338,113.236L104.968,113.236L104.968,114.036L104.338,114.036L104.338,116.846C104.338,116.966 104.35,117.06 104.373,117.126C104.396,117.193 104.435,117.243 104.488,117.276C104.541,117.31 104.606,117.33 104.683,117.336C104.76,117.343 104.855,117.346 104.968,117.346L104.968,118.306L104.548,118.306C104.315,118.306 104.12,118.27 103.963,118.196C103.806,118.123 103.681,118.03 103.588,117.916C103.495,117.803 103.426,117.675 103.383,117.531C103.34,117.388 103.318,117.25 103.318,117.116L103.318,114.036L102.808,114.036L102.808,113.236L103.318,113.236Z" style="fill-rule:nonzero;"/>
            </g>
            <g transform="matrix(1,0,0,1,20.4271,159.225)">
                <text x="89.198px" y="118.306px" style="font-family:'DINCondensed-Bold', 'DIN Condensed';font-weight:700;font-stretch:condensed;font-size:10px;">reset</text>
            </g>
        </g>
        <g>
            <g id="Clock-input" serif:id="Clock#input" transform="matrix(0.175002,0,0,0.175002,94.1072,214.527)">
                <rect x="53.94" y="106.916" width="161.978" height="161.978" style="fill:rgb(217,217,217);"/>
            </g>
            <g transform="matrix(1,0,0,1,20.7463,110.854)">
                <path d="M90.698,116.846C90.698,117.006 90.743,117.13 90.833,117.216C90.923,117.303 91.045,117.346 91.198,117.346C91.391,117.346 91.52,117.29 91.583,117.176C91.646,117.063 91.685,116.95 91.698,116.836L92.718,116.836C92.718,117.283 92.581,117.643 92.308,117.916C92.175,118.056 92.015,118.166 91.828,118.246C91.641,118.326 91.431,118.366 91.198,118.366C90.878,118.366 90.606,118.3 90.383,118.166C90.16,118.033 89.988,117.856 89.868,117.636C89.795,117.503 89.745,117.35 89.718,117.176C89.691,117.003 89.678,116.813 89.678,116.606L89.678,114.936C89.678,114.73 89.691,114.54 89.718,114.366C89.745,114.193 89.795,114.04 89.868,113.906C89.988,113.686 90.16,113.51 90.383,113.376C90.606,113.243 90.878,113.176 91.198,113.176C91.431,113.176 91.643,113.216 91.833,113.296C92.023,113.376 92.185,113.486 92.318,113.626C92.585,113.926 92.718,114.316 92.718,114.796L91.698,114.796C91.698,114.59 91.653,114.438 91.563,114.341C91.473,114.245 91.351,114.196 91.198,114.196C91.045,114.196 90.923,114.245 90.833,114.341C90.743,114.438 90.698,114.583 90.698,114.776L90.698,116.846Z" style="fill-rule:nonzero;"/>
                <path d="M93.138,111.186L94.158,111.186L94.158,116.876C94.158,117.07 94.193,117.201 94.263,117.271C94.333,117.341 94.465,117.386 94.658,117.406L94.658,118.366C94.425,118.366 94.215,118.348 94.028,118.311C93.841,118.275 93.681,118.203 93.548,118.096C93.415,117.996 93.313,117.855 93.243,117.671C93.173,117.488 93.138,117.246 93.138,116.946L93.138,111.186Z" style="fill-rule:nonzero;"/>
                <path d="M94.968,114.936C94.968,114.73 94.981,114.54 95.008,114.366C95.035,114.193 95.085,114.04 95.158,113.906C95.278,113.686 95.45,113.51 95.673,113.376C95.896,113.243 96.168,113.176 96.488,113.176C96.808,113.176 97.08,113.243 97.303,113.376C97.526,113.51 97.698,113.686 97.818,113.906C97.891,114.04 97.941,114.193 97.968,114.366C97.995,114.54 98.008,114.73 98.008,114.936L98.008,116.606C98.008,116.813 97.995,117.003 97.968,117.176C97.941,117.35 97.891,117.503 97.818,117.636C97.698,117.856 97.526,118.033 97.303,118.166C97.08,118.3 96.808,118.366 96.488,118.366C96.168,118.366 95.896,118.3 95.673,118.166C95.45,118.033 95.278,117.856 95.158,117.636C95.085,117.503 95.035,117.35 95.008,117.176C94.981,117.003 94.968,116.813 94.968,116.606L94.968,114.936ZM95.988,116.766C95.988,116.96 96.033,117.105 96.123,117.201C96.213,117.298 96.335,117.346 96.488,117.346C96.641,117.346 96.763,117.298 96.853,117.201C96.943,117.105 96.988,116.96 96.988,116.766L96.988,114.776C96.988,114.583 96.943,114.438 96.853,114.341C96.763,114.245 96.641,114.196 96.488,114.196C96.335,114.196 96.213,114.245 96.123,114.341C96.033,114.438 95.988,114.583 95.988,114.776L95.988,116.766Z" style="fill-rule:nonzero;"/>
                <path d="M99.838,116.846C99.838,117.006 99.883,117.13 99.973,117.216C100.063,117.303 100.185,117.346 100.338,117.346C100.531,117.346 100.66,117.29 100.723,117.176C100.786,117.063 100.825,116.95 100.838,116.836L101.858,116.836C101.858,117.283 101.721,117.643 101.448,117.916C101.315,118.056 101.155,118.166 100.968,118.246C100.781,118.326 100.571,118.366 100.338,118.366C100.018,118.366 99.746,118.3 99.523,118.166C99.3,118.033 99.128,117.856 99.008,117.636C98.935,117.503 98.885,117.35 98.858,117.176C98.831,117.003 98.818,116.813 98.818,116.606L98.818,114.936C98.818,114.73 98.831,114.54 98.858,114.366C98.885,114.193 98.935,114.04 99.008,113.906C99.128,113.686 99.3,113.51 99.523,113.376C99.746,113.243 100.018,113.176 100.338,113.176C100.571,113.176 100.783,113.216 100.973,113.296C101.163,113.376 101.325,113.486 101.458,113.626C101.725,113.926 101.858,114.316 101.858,114.796L100.838,114.796C100.838,114.59 100.793,114.438 100.703,114.341C100.613,114.245 100.491,114.196 100.338,114.196C100.185,114.196 100.063,114.245 99.973,114.341C99.883,114.438 99.838,114.583 99.838,114.776L99.838,116.846Z" style="fill-rule:nonzero;"/>
                <path d="M102.338,118.306L102.338,111.186L103.358,111.186L103.358,115.446L103.378,115.446L104.608,113.236L105.628,113.236L104.418,115.296L105.878,118.306L104.768,118.306L103.848,116.116L103.358,116.886L103.358,118.306L102.338,118.306Z" style="fill-rule:nonzero;"/>
            </g>
            <g transform="matrix(1,0,0,1,20.7463,110.854)">
                <text x="89.198px" y="118.306px" style="font-family:'DINCondensed-Bold', 'DIN Condensed';font-weight:700;font-stretch:condensed;font-size:10px;">c<tspan x="92.778px 94.638px 98.338px 101.918px " y="118.306px 118.306px 118.306px 118.306px ">lock</tspan></text>
            </g>
        </g>
        <g transform="matrix(1,0,0,1,0,-48)">
            <g id="Play-input" serif:id="Play#input" transform="matrix(0.175002,0,0,0.175002,94.1072,214.527)">
                <rect x="53.94" y="106.916" width="161.978" height="161.978" style="fill:rgb(217,217,217);"/>
            </g>
            <g id="PlayStatus-led" serif:id="PlayStatus#led" transform="matrix(1,0,0,1,54.4334,-87.9019)">
                <circle cx="42.167" cy="335.861" r="3.82" style="fill:rgb(230,230,230);"/>
            </g>
            <g transform="matrix(1,0,0,1,21.8821,109.692)">
                <path d="M89.618,120.356L89.618,113.236L90.638,113.236L90.638,113.696C90.765,113.55 90.895,113.426 91.028,113.326C91.161,113.226 91.355,113.176 91.608,113.176C92.028,113.176 92.325,113.336 92.498,113.656C92.558,113.77 92.601,113.91 92.628,114.076C92.655,114.243 92.668,114.466 92.668,114.746L92.668,116.676C92.668,117.05 92.658,117.32 92.638,117.486C92.598,117.82 92.445,118.07 92.178,118.236C92.045,118.323 91.851,118.366 91.598,118.366C91.398,118.366 91.22,118.321 91.063,118.231C90.906,118.141 90.771,118.013 90.658,117.846L90.638,117.846L90.638,120.356L89.618,120.356ZM91.648,114.886C91.648,114.68 91.608,114.513 91.528,114.386C91.448,114.26 91.321,114.196 91.148,114.196C90.995,114.196 90.871,114.255 90.778,114.371C90.685,114.488 90.638,114.64 90.638,114.826L90.638,116.796C90.638,116.956 90.686,117.088 90.783,117.191C90.88,117.295 91.001,117.346 91.148,117.346C91.341,117.346 91.473,117.286 91.543,117.166C91.613,117.046 91.648,116.906 91.648,116.746L91.648,114.886Z" style="fill-rule:nonzero;"/>
                <path d="M93.448,111.186L94.468,111.186L94.468,116.876C94.468,117.07 94.503,117.201 94.573,117.271C94.643,117.341 94.775,117.386 94.968,117.406L94.968,118.366C94.735,118.366 94.525,118.348 94.338,118.311C94.151,118.275 93.991,118.203 93.858,118.096C93.725,117.996 93.623,117.855 93.553,117.671C93.483,117.488 93.448,117.246 93.448,116.946L93.448,111.186Z" style="fill-rule:nonzero;"/>
                <path d="M97.298,118.306L97.298,117.786L97.278,117.786C97.145,117.973 97.01,118.116 96.873,118.216C96.736,118.316 96.545,118.366 96.298,118.366C96.178,118.366 96.056,118.348 95.933,118.311C95.81,118.275 95.691,118.206 95.578,118.106C95.465,118.013 95.373,117.878 95.303,117.701C95.233,117.525 95.198,117.296 95.198,117.016C95.198,116.73 95.221,116.478 95.268,116.261C95.315,116.045 95.401,115.863 95.528,115.716C95.648,115.576 95.811,115.471 96.018,115.401C96.225,115.331 96.488,115.296 96.808,115.296L96.918,115.296C96.958,115.296 96.995,115.3 97.028,115.306C97.061,115.313 97.101,115.316 97.148,115.316C97.195,115.316 97.245,115.32 97.298,115.326L97.298,114.796C97.298,114.623 97.261,114.48 97.188,114.366C97.115,114.253 96.981,114.196 96.788,114.196C96.655,114.196 96.533,114.24 96.423,114.326C96.313,114.413 96.241,114.54 96.208,114.706L95.218,114.706C95.245,114.253 95.398,113.886 95.678,113.606C95.811,113.473 95.971,113.368 96.158,113.291C96.345,113.215 96.555,113.176 96.788,113.176C97.001,113.176 97.201,113.21 97.388,113.276C97.575,113.343 97.738,113.443 97.878,113.576C98.011,113.71 98.118,113.876 98.198,114.076C98.278,114.276 98.318,114.51 98.318,114.776L98.318,118.306L97.298,118.306ZM97.298,116.126C97.185,116.106 97.091,116.096 97.018,116.096C96.798,116.096 96.61,116.148 96.453,116.251C96.296,116.355 96.218,116.543 96.218,116.816C96.218,117.01 96.265,117.166 96.358,117.286C96.451,117.406 96.581,117.466 96.748,117.466C96.921,117.466 97.056,117.41 97.153,117.296C97.25,117.183 97.298,117.023 97.298,116.816L97.298,116.126Z" style="fill-rule:nonzero;"/>
                <path d="M98.518,113.236L99.598,113.236L100.298,116.396L100.318,116.396L101.008,113.236L102.058,113.236L100.598,119.186C100.545,119.413 100.47,119.6 100.373,119.746C100.276,119.893 100.165,120.013 100.038,120.106C99.911,120.2 99.776,120.265 99.633,120.301C99.49,120.338 99.341,120.356 99.188,120.356L98.908,120.356L98.908,119.396L99.138,119.396C99.238,119.396 99.325,119.383 99.398,119.356C99.471,119.33 99.538,119.27 99.598,119.176C99.651,119.083 99.701,118.951 99.748,118.781C99.795,118.611 99.848,118.376 99.908,118.076L98.518,113.236Z" style="fill-rule:nonzero;"/>
            </g>
            <g transform="matrix(1,0,0,1,21.8821,109.692)">
                <text x="89.198px" y="118.306px" style="font-family:'DINCondensed-Bold', 'DIN Condensed';font-weight:700;font-stretch:condensed;font-size:10px;">pla<tspan x="98.528px " y="118.306px ">y</tspan></text>
            </g>
        </g>
    </g>
    <g transform="matrix(1,0,0,1,187.46,-22.4811)">
        <g id="Display-button" serif:id="Display#button" transform="matrix(0.758898,0,0,0.758898,-156.632,5.57189)">
            <circle cx="55.661" cy="308.513" r="7.929"/>
        </g>
        <g transform="matrix(1,0,0,1,-236.494,124.926)">
            <path d="M90.968,116.656C90.968,116.863 91.008,117.03 91.088,117.156C91.168,117.283 91.295,117.346 91.468,117.346C91.621,117.346 91.745,117.288 91.838,117.171C91.931,117.055 91.978,116.903 91.978,116.716L91.978,114.746C91.978,114.586 91.93,114.455 91.833,114.351C91.736,114.248 91.615,114.196 91.468,114.196C91.275,114.196 91.143,114.256 91.073,114.376C91.003,114.496 90.968,114.636 90.968,114.796L90.968,116.656ZM91.978,118.306L91.978,117.846C91.911,117.92 91.848,117.988 91.788,118.051C91.728,118.115 91.661,118.17 91.588,118.216C91.515,118.263 91.431,118.3 91.338,118.326C91.245,118.353 91.135,118.366 91.008,118.366C90.581,118.366 90.285,118.206 90.118,117.886C90.058,117.773 90.015,117.633 89.988,117.466C89.961,117.3 89.948,117.076 89.948,116.796L89.948,114.866C89.948,114.5 89.958,114.23 89.978,114.056C90.018,113.723 90.175,113.473 90.448,113.306C90.575,113.22 90.765,113.176 91.018,113.176C91.218,113.176 91.396,113.221 91.553,113.311C91.71,113.401 91.845,113.53 91.958,113.696L91.978,113.696L91.978,111.186L92.998,111.186L92.998,118.306L91.978,118.306Z" style="fill-rule:nonzero;"/>
            <path d="M93.838,118.306L93.838,113.236L94.858,113.236L94.858,118.306L93.838,118.306ZM93.838,112.206L93.838,111.186L94.858,111.186L94.858,112.206L93.838,112.206Z" style="fill-rule:nonzero;"/>
            <path d="M97.548,114.656C97.541,114.483 97.486,114.353 97.383,114.266C97.28,114.18 97.161,114.136 97.028,114.136C96.868,114.136 96.745,114.188 96.658,114.291C96.571,114.395 96.528,114.513 96.528,114.646C96.528,114.74 96.551,114.831 96.598,114.921C96.645,115.011 96.765,115.093 96.958,115.166L97.558,115.406C97.938,115.553 98.2,115.753 98.343,116.006C98.486,116.26 98.558,116.536 98.558,116.836C98.558,117.05 98.52,117.248 98.443,117.431C98.366,117.615 98.261,117.776 98.128,117.916C97.995,118.056 97.835,118.166 97.648,118.246C97.461,118.326 97.258,118.366 97.038,118.366C96.625,118.366 96.278,118.236 95.998,117.976C95.858,117.85 95.745,117.691 95.658,117.501C95.571,117.311 95.525,117.09 95.518,116.836L96.478,116.836C96.498,116.976 96.546,117.106 96.623,117.226C96.7,117.346 96.835,117.406 97.028,117.406C97.175,117.406 97.306,117.358 97.423,117.261C97.54,117.165 97.598,117.03 97.598,116.856C97.598,116.716 97.561,116.596 97.488,116.496C97.415,116.396 97.281,116.31 97.088,116.236L96.598,116.056C96.278,115.936 96.026,115.758 95.843,115.521C95.66,115.285 95.568,114.996 95.568,114.656C95.568,114.443 95.608,114.245 95.688,114.061C95.768,113.878 95.878,113.72 96.018,113.586C96.151,113.453 96.308,113.351 96.488,113.281C96.668,113.211 96.861,113.176 97.068,113.176C97.275,113.176 97.466,113.213 97.643,113.286C97.82,113.36 97.971,113.463 98.098,113.596C98.225,113.73 98.325,113.888 98.398,114.071C98.471,114.255 98.508,114.45 98.508,114.656L97.548,114.656Z" style="fill-rule:nonzero;"/>
            <path d="M99.218,120.356L99.218,113.236L100.238,113.236L100.238,113.696C100.365,113.55 100.495,113.426 100.628,113.326C100.761,113.226 100.955,113.176 101.208,113.176C101.628,113.176 101.925,113.336 102.098,113.656C102.158,113.77 102.201,113.91 102.228,114.076C102.255,114.243 102.268,114.466 102.268,114.746L102.268,116.676C102.268,117.05 102.258,117.32 102.238,117.486C102.198,117.82 102.045,118.07 101.778,118.236C101.645,118.323 101.451,118.366 101.198,118.366C100.998,118.366 100.82,118.321 100.663,118.231C100.506,118.141 100.371,118.013 100.258,117.846L100.238,117.846L100.238,120.356L99.218,120.356ZM101.248,114.886C101.248,114.68 101.208,114.513 101.128,114.386C101.048,114.26 100.921,114.196 100.748,114.196C100.595,114.196 100.471,114.255 100.378,114.371C100.285,114.488 100.238,114.64 100.238,114.826L100.238,116.796C100.238,116.956 100.286,117.088 100.383,117.191C100.48,117.295 100.601,117.346 100.748,117.346C100.941,117.346 101.073,117.286 101.143,117.166C101.213,117.046 101.248,116.906 101.248,116.746L101.248,114.886Z" style="fill-rule:nonzero;"/>
            <path d="M103.048,111.186L104.068,111.186L104.068,116.876C104.068,117.07 104.103,117.201 104.173,117.271C104.243,117.341 104.375,117.386 104.568,117.406L104.568,118.366C104.335,118.366 104.125,118.348 103.938,118.311C103.751,118.275 103.591,118.203 103.458,118.096C103.325,117.996 103.223,117.855 103.153,117.671C103.083,117.488 103.048,117.246 103.048,116.946L103.048,111.186Z" style="fill-rule:nonzero;"/>
            <path d="M106.898,118.306L106.898,117.786L106.878,117.786C106.745,117.973 106.61,118.116 106.473,118.216C106.336,118.316 106.145,118.366 105.898,118.366C105.778,118.366 105.656,118.348 105.533,118.311C105.41,118.275 105.291,118.206 105.178,118.106C105.065,118.013 104.973,117.878 104.903,117.701C104.833,117.525 104.798,117.296 104.798,117.016C104.798,116.73 104.821,116.478 104.868,116.261C104.915,116.045 105.001,115.863 105.128,115.716C105.248,115.576 105.411,115.471 105.618,115.401C105.825,115.331 106.088,115.296 106.408,115.296L106.518,115.296C106.558,115.296 106.595,115.3 106.628,115.306C106.661,115.313 106.701,115.316 106.748,115.316C106.795,115.316 106.845,115.32 106.898,115.326L106.898,114.796C106.898,114.623 106.861,114.48 106.788,114.366C106.715,114.253 106.581,114.196 106.388,114.196C106.255,114.196 106.133,114.24 106.023,114.326C105.913,114.413 105.841,114.54 105.808,114.706L104.818,114.706C104.845,114.253 104.998,113.886 105.278,113.606C105.411,113.473 105.571,113.368 105.758,113.291C105.945,113.215 106.155,113.176 106.388,113.176C106.601,113.176 106.801,113.21 106.988,113.276C107.175,113.343 107.338,113.443 107.478,113.576C107.611,113.71 107.718,113.876 107.798,114.076C107.878,114.276 107.918,114.51 107.918,114.776L107.918,118.306L106.898,118.306ZM106.898,116.126C106.785,116.106 106.691,116.096 106.618,116.096C106.398,116.096 106.21,116.148 106.053,116.251C105.896,116.355 105.818,116.543 105.818,116.816C105.818,117.01 105.865,117.166 105.958,117.286C106.051,117.406 106.181,117.466 106.348,117.466C106.521,117.466 106.656,117.41 106.753,117.296C106.85,117.183 106.898,117.023 106.898,116.816L106.898,116.126Z" style="fill-rule:nonzero;"/>
            <path d="M108.118,113.236L109.198,113.236L109.898,116.396L109.918,116.396L110.608,113.236L111.658,113.236L110.198,119.186C110.145,119.413 110.07,119.6 109.973,119.746C109.876,119.893 109.765,120.013 109.638,120.106C109.511,120.2 109.376,120.265 109.233,120.301C109.09,120.338 108.941,120.356 108.788,120.356L108.508,120.356L108.508,119.396L108.738,119.396C108.838,119.396 108.925,119.383 108.998,119.356C109.071,119.33 109.138,119.27 109.198,119.176C109.251,119.083 109.301,118.951 109.348,118.781C109.395,118.611 109.448,118.376 109.508,118.076L108.118,113.236Z" style="fill-rule:nonzero;"/>
        </g>
        <g transform="matrix(1,0,0,1,-236.494,124.926)">
            <text x="89.528px" y="118.306px" style="font-family:'DINCondensed-Bold', 'DIN Condensed';font-weight:700;font-stretch:condensed;font-size:10px;">displa<tspan x="108.128px " y="118.306px ">y</tspan></text>
        </g>
    </g>
    <g id="Display-oled-100x170" serif:id="Display#oled$100x170" transform="matrix(2.12519,0,0,7.31559,-176.181,-480.859)">
        <rect x="87.136" y="70.02" width="47.996" height="23.511" style="fill:rgb(19,19,19);"/>
    </g>
    <g transform="matrix(0.816456,0,0,0.816456,31.4849,-226.739)">
        <g transform="matrix(1,0,0,1,-65.4614,-51.6192)">
            <path d="M83.628,354.511C83.676,354.703 83.844,354.823 84.132,354.871C84.204,354.879 84.24,354.919 84.24,354.991C84.24,355.031 84.22,355.067 84.18,355.099C84.14,355.131 84.088,355.147 84.024,355.147C83.904,355.147 83.744,355.139 83.544,355.123C83.344,355.107 83.06,355.099 82.692,355.099C82.396,355.099 82.136,355.109 81.912,355.129C81.688,355.149 81.552,355.163 81.504,355.171C81.464,355.171 81.436,355.159 81.42,355.135C81.404,355.111 81.396,355.083 81.396,355.051C81.396,355.019 81.402,354.987 81.414,354.955C81.426,354.923 81.444,354.907 81.468,354.907C81.524,354.899 81.58,354.883 81.636,354.859C81.692,354.835 81.744,354.803 81.792,354.763C81.816,354.739 81.846,354.611 81.882,354.379C81.918,354.147 81.95,353.841 81.978,353.461C82.006,353.081 82.03,352.643 82.05,352.147C82.07,351.651 82.08,351.127 82.08,350.575L82.08,349.279C82.08,348.879 82.06,348.555 82.02,348.307C81.948,347.779 81.78,347.373 81.516,347.089C81.252,346.805 80.944,346.663 80.592,346.663C80.28,346.663 79.972,346.749 79.668,346.921C79.364,347.093 79.092,347.345 78.852,347.677C78.612,348.009 78.418,348.421 78.27,348.913C78.122,349.405 78.048,349.967 78.048,350.599C78.048,351.295 78.126,351.901 78.282,352.417C78.438,352.933 78.644,353.365 78.9,353.713C79.156,354.061 79.45,354.321 79.782,354.493C80.114,354.665 80.46,354.751 80.82,354.751L80.886,354.751C80.914,354.751 80.936,354.747 80.952,354.739C80.984,354.723 81.004,354.723 81.012,354.739C81.02,354.755 81.02,354.777 81.012,354.805C81.004,354.833 80.994,354.861 80.982,354.889C80.97,354.917 80.956,354.935 80.94,354.943C80.86,354.999 80.748,355.049 80.604,355.093C80.46,355.137 80.26,355.159 80.004,355.159C79.58,355.159 79.158,355.061 78.738,354.865C78.318,354.669 77.942,354.395 77.61,354.043C77.278,353.691 77.01,353.265 76.806,352.765C76.602,352.265 76.5,351.715 76.5,351.115C76.5,350.259 76.624,349.527 76.872,348.919C77.12,348.311 77.458,347.815 77.886,347.431C78.314,347.047 78.81,346.765 79.374,346.585C79.938,346.405 80.54,346.315 81.18,346.315C81.412,346.315 81.624,346.339 81.816,346.387C82.008,346.435 82.176,346.493 82.32,346.561C82.464,346.629 82.582,346.695 82.674,346.759C82.766,346.823 82.828,346.871 82.86,346.903C82.924,346.855 83.054,346.797 83.25,346.729C83.446,346.661 83.67,346.597 83.922,346.537C84.174,346.477 84.436,346.425 84.708,346.381C84.98,346.337 85.228,346.315 85.452,346.315C86.06,346.331 86.594,346.431 87.054,346.615C87.514,346.799 87.898,347.045 88.206,347.353C88.514,347.661 88.746,348.017 88.902,348.421C89.058,348.825 89.136,349.255 89.136,349.711C89.136,350.567 89.022,351.329 88.794,351.997C88.566,352.665 88.26,353.231 87.876,353.695C87.492,354.159 87.048,354.513 86.544,354.757C86.04,355.001 85.512,355.123 84.96,355.123C84.912,355.123 84.88,355.105 84.864,355.069C84.848,355.033 84.842,354.995 84.846,354.955C84.85,354.915 84.864,354.881 84.888,354.853C84.912,354.825 84.936,354.815 84.96,354.823C85,354.839 85.032,354.847 85.056,354.847L85.152,354.847C85.48,354.847 85.788,354.735 86.076,354.511C86.364,354.287 86.616,353.977 86.832,353.581C87.048,353.185 87.218,352.717 87.342,352.177C87.466,351.637 87.528,351.047 87.528,350.407C87.528,349.215 87.346,348.287 86.982,347.623C86.618,346.959 86.056,346.627 85.296,346.627C85.064,346.627 84.848,346.675 84.648,346.771C84.448,346.867 84.274,346.993 84.126,347.149C83.978,347.305 83.858,347.483 83.766,347.683C83.674,347.883 83.616,348.087 83.592,348.295C83.552,348.575 83.528,349.023 83.52,349.639C83.512,350.255 83.504,350.999 83.496,351.871C83.488,352.511 83.494,353.069 83.514,353.545C83.534,354.021 83.572,354.343 83.628,354.511Z" style="fill-rule:nonzero;"/>
            <path d="M91.488,355.099C91.344,355.099 91.184,355.101 91.008,355.105C90.832,355.109 90.66,355.113 90.492,355.117C90.324,355.121 90.166,355.129 90.018,355.141C89.87,355.153 89.756,355.163 89.676,355.171L89.484,355.195C89.444,355.195 89.41,355.173 89.382,355.129C89.354,355.085 89.34,355.043 89.34,355.003C89.34,354.971 89.356,354.937 89.388,354.901C89.42,354.865 89.464,354.847 89.52,354.847C89.856,354.847 90.124,354.827 90.324,354.787C90.524,354.747 90.644,354.695 90.684,354.631C90.732,354.535 90.782,354.321 90.834,353.989C90.886,353.657 90.932,353.269 90.972,352.825C91.012,352.381 91.044,351.915 91.068,351.427C91.092,350.939 91.104,350.487 91.104,350.071C91.104,349.615 91.102,349.233 91.098,348.925C91.094,348.617 91.09,348.363 91.086,348.163C91.082,347.963 91.078,347.809 91.074,347.701C91.07,347.593 91.068,347.515 91.068,347.467C91.06,347.211 91.024,347.041 90.96,346.957C90.896,346.873 90.78,346.823 90.612,346.807C90.492,346.791 90.352,346.787 90.192,346.795C90.032,346.803 89.916,346.803 89.844,346.795C89.788,346.787 89.74,346.777 89.7,346.765C89.66,346.753 89.64,346.711 89.64,346.639C89.64,346.559 89.66,346.505 89.7,346.477C89.74,346.449 89.784,346.435 89.832,346.435C89.896,346.435 90.102,346.449 90.45,346.477C90.798,346.505 91.296,346.519 91.944,346.519C92.368,346.519 92.73,346.509 93.03,346.489C93.33,346.469 93.536,346.451 93.648,346.435C93.704,346.435 93.758,346.441 93.81,346.453C93.862,346.465 93.888,346.503 93.888,346.567C93.888,346.703 93.796,346.779 93.612,346.795C93.548,346.795 93.476,346.799 93.396,346.807C93.316,346.815 93.238,346.823 93.162,346.831C93.086,346.839 93.016,346.851 92.952,346.867C92.888,346.883 92.84,346.895 92.808,346.903C92.768,346.919 92.73,347.065 92.694,347.341C92.658,347.617 92.626,347.959 92.598,348.367C92.57,348.775 92.544,349.215 92.52,349.687C92.496,350.159 92.48,350.595 92.472,350.995C92.464,351.299 92.458,351.653 92.454,352.057C92.45,352.461 92.454,352.849 92.466,353.221C92.478,353.593 92.496,353.915 92.52,354.187C92.544,354.459 92.58,354.615 92.628,354.655C92.66,354.679 92.72,354.701 92.808,354.721C92.896,354.741 93,354.761 93.12,354.781C93.24,354.801 93.362,354.815 93.486,354.823C93.61,354.831 93.724,354.835 93.828,354.835C93.916,354.835 93.972,354.843 93.996,354.859C94.02,354.875 94.032,354.915 94.032,354.979C94.032,355.051 94.002,355.103 93.942,355.135C93.882,355.167 93.82,355.183 93.756,355.183C93.708,355.183 93.636,355.179 93.54,355.171C93.444,355.163 93.312,355.153 93.144,355.141C92.976,355.129 92.764,355.119 92.508,355.111C92.252,355.103 91.936,355.099 91.56,355.099L91.488,355.099Z" style="fill-rule:nonzero;"/>
            <path d="M96.168,354.847C95.984,354.951 95.752,355.059 95.472,355.171C95.192,355.283 94.9,355.339 94.596,355.339C94.412,355.339 94.28,355.323 94.2,355.291C94.12,355.259 94.08,355.195 94.08,355.099C94.08,355.051 94.092,354.993 94.116,354.925C94.14,354.857 94.172,354.823 94.212,354.823C94.228,354.823 94.248,354.835 94.272,354.859C94.32,354.923 94.392,354.959 94.488,354.967C94.584,354.975 94.688,354.979 94.8,354.979C94.968,354.971 95.12,354.913 95.256,354.805C95.392,354.697 95.492,354.551 95.556,354.367C95.588,354.255 95.62,354.079 95.652,353.839C95.684,353.599 95.71,353.311 95.73,352.975C95.75,352.639 95.766,352.265 95.778,351.853C95.79,351.441 95.796,351.007 95.796,350.551C95.796,349.511 95.768,348.701 95.712,348.121C95.656,347.541 95.584,347.207 95.496,347.119C95.408,347.047 95.298,346.999 95.166,346.975C95.034,346.951 94.9,346.939 94.764,346.939C94.7,346.939 94.636,346.941 94.572,346.945C94.508,346.949 94.456,346.951 94.416,346.951C94.368,346.951 94.33,346.933 94.302,346.897C94.274,346.861 94.26,346.823 94.26,346.783C94.26,346.639 94.312,346.567 94.416,346.567C94.472,346.567 94.572,346.573 94.716,346.585C94.86,346.597 95.026,346.609 95.214,346.621C95.402,346.633 95.6,346.643 95.808,346.651C96.016,346.659 96.204,346.663 96.372,346.663C96.58,346.663 96.774,346.631 96.954,346.567C97.134,346.503 97.32,346.431 97.512,346.351C97.704,346.271 97.914,346.199 98.142,346.135C98.37,346.071 98.636,346.039 98.94,346.039C99.724,346.039 100.398,346.151 100.962,346.375C101.526,346.599 101.988,346.901 102.348,347.281C102.708,347.661 102.974,348.097 103.146,348.589C103.318,349.081 103.404,349.591 103.404,350.119C103.404,350.743 103.294,351.367 103.074,351.991C102.854,352.615 102.54,353.177 102.132,353.677C101.724,354.177 101.23,354.581 100.65,354.889C100.07,355.197 99.424,355.351 98.712,355.351C98.56,355.351 98.37,355.337 98.142,355.309C97.914,355.281 97.68,355.243 97.44,355.195C97.2,355.147 96.966,355.093 96.738,355.033C96.51,354.973 96.32,354.911 96.168,354.847ZM98.988,354.859C99.46,354.859 99.872,354.745 100.224,354.517C100.576,354.289 100.87,353.989 101.106,353.617C101.342,353.245 101.52,352.819 101.64,352.339C101.76,351.859 101.82,351.367 101.82,350.863C101.82,350.327 101.754,349.797 101.622,349.273C101.49,348.749 101.288,348.281 101.016,347.869C100.744,347.457 100.406,347.125 100.002,346.873C99.598,346.621 99.128,346.495 98.592,346.495C98.504,346.495 98.396,346.505 98.268,346.525C98.14,346.545 98.016,346.583 97.896,346.639C97.776,346.695 97.668,346.767 97.572,346.855C97.476,346.943 97.412,347.055 97.38,347.191C97.356,347.295 97.334,347.439 97.314,347.623C97.294,347.807 97.274,348.021 97.254,348.265C97.234,348.509 97.22,348.773 97.212,349.057C97.204,349.341 97.2,349.635 97.2,349.939C97.2,350.627 97.202,351.203 97.206,351.667C97.21,352.131 97.216,352.507 97.224,352.795C97.232,353.083 97.242,353.297 97.254,353.437C97.266,353.577 97.276,353.671 97.284,353.719C97.308,353.855 97.366,353.989 97.458,354.121C97.55,354.253 97.67,354.375 97.818,354.487C97.966,354.599 98.138,354.689 98.334,354.757C98.53,354.825 98.748,354.859 98.988,354.859Z" style="fill-rule:nonzero;"/>
            <path d="M105.756,355.099C105.612,355.099 105.452,355.101 105.276,355.105C105.1,355.109 104.928,355.113 104.76,355.117C104.592,355.121 104.434,355.129 104.286,355.141C104.138,355.153 104.024,355.163 103.944,355.171L103.752,355.195C103.712,355.195 103.678,355.173 103.65,355.129C103.622,355.085 103.608,355.043 103.608,355.003C103.608,354.971 103.624,354.937 103.656,354.901C103.688,354.865 103.732,354.847 103.788,354.847C104.124,354.847 104.392,354.827 104.592,354.787C104.792,354.747 104.912,354.695 104.952,354.631C105,354.535 105.05,354.321 105.102,353.989C105.154,353.657 105.2,353.269 105.24,352.825C105.28,352.381 105.312,351.915 105.336,351.427C105.36,350.939 105.372,350.487 105.372,350.071C105.372,349.615 105.37,349.233 105.366,348.925C105.362,348.617 105.358,348.363 105.354,348.163C105.35,347.963 105.346,347.809 105.342,347.701C105.338,347.593 105.336,347.515 105.336,347.467C105.328,347.211 105.292,347.041 105.228,346.957C105.164,346.873 105.048,346.823 104.88,346.807C104.76,346.791 104.62,346.787 104.46,346.795C104.3,346.803 104.184,346.803 104.112,346.795C104.056,346.787 104.008,346.777 103.968,346.765C103.928,346.753 103.908,346.711 103.908,346.639C103.908,346.559 103.928,346.505 103.968,346.477C104.008,346.449 104.052,346.435 104.1,346.435C104.164,346.435 104.37,346.449 104.718,346.477C105.066,346.505 105.564,346.519 106.212,346.519C106.636,346.519 106.998,346.509 107.298,346.489C107.598,346.469 107.804,346.451 107.916,346.435C107.972,346.435 108.026,346.441 108.078,346.453C108.13,346.465 108.156,346.503 108.156,346.567C108.156,346.703 108.064,346.779 107.88,346.795C107.816,346.795 107.744,346.799 107.664,346.807C107.584,346.815 107.506,346.823 107.43,346.831C107.354,346.839 107.284,346.851 107.22,346.867C107.156,346.883 107.108,346.895 107.076,346.903C107.036,346.919 106.998,347.065 106.962,347.341C106.926,347.617 106.894,347.959 106.866,348.367C106.838,348.775 106.812,349.215 106.788,349.687C106.764,350.159 106.748,350.595 106.74,350.995C106.732,351.299 106.726,351.653 106.722,352.057C106.718,352.461 106.722,352.849 106.734,353.221C106.746,353.593 106.764,353.915 106.788,354.187C106.812,354.459 106.848,354.615 106.896,354.655C106.928,354.679 106.988,354.701 107.076,354.721C107.164,354.741 107.268,354.761 107.388,354.781C107.508,354.801 107.63,354.815 107.754,354.823C107.878,354.831 107.992,354.835 108.096,354.835C108.184,354.835 108.24,354.843 108.264,354.859C108.288,354.875 108.3,354.915 108.3,354.979C108.3,355.051 108.27,355.103 108.21,355.135C108.15,355.167 108.088,355.183 108.024,355.183C107.976,355.183 107.904,355.179 107.808,355.171C107.712,355.163 107.58,355.153 107.412,355.141C107.244,355.129 107.032,355.119 106.776,355.111C106.52,355.103 106.204,355.099 105.828,355.099L105.756,355.099Z" style="fill-rule:nonzero;"/>
            <path d="M114.132,352.471C114.132,352.879 114.14,353.277 114.156,353.665C114.172,354.053 114.216,354.367 114.288,354.607C114.432,354.695 114.594,354.749 114.774,354.769C114.954,354.789 115.124,354.803 115.284,354.811C115.444,354.819 115.578,354.835 115.686,354.859C115.794,354.883 115.848,354.935 115.848,355.015C115.848,355.055 115.828,355.089 115.788,355.117C115.748,355.145 115.684,355.159 115.596,355.159C115.364,355.167 115.048,355.157 114.648,355.129C114.248,355.101 113.792,355.087 113.28,355.087C112.624,355.087 112.13,355.109 111.798,355.153C111.466,355.197 111.268,355.219 111.204,355.219C111.148,355.219 111.1,355.205 111.06,355.177C111.02,355.149 111,355.111 111,355.063C111,354.959 111.048,354.903 111.144,354.895C111.24,354.887 111.42,354.863 111.684,354.823C111.86,354.807 112.004,354.785 112.116,354.757C112.228,354.729 112.34,354.695 112.452,354.655C112.5,354.479 112.54,354.299 112.572,354.115C112.604,353.931 112.632,353.701 112.656,353.425C112.68,353.149 112.698,352.805 112.71,352.393C112.722,351.981 112.728,351.451 112.728,350.803C112.728,350.211 112.724,349.709 112.716,349.297C112.708,348.885 112.694,348.541 112.674,348.265C112.654,347.989 112.634,347.771 112.614,347.611C112.594,347.451 112.572,347.327 112.548,347.239C112.444,347.167 112.308,347.121 112.14,347.101C111.972,347.081 111.808,347.065 111.648,347.053C111.488,347.041 111.35,347.023 111.234,346.999C111.118,346.975 111.06,346.919 111.06,346.831C111.06,346.727 111.124,346.675 111.252,346.675C111.396,346.675 111.642,346.693 111.99,346.729C112.338,346.765 112.764,346.783 113.268,346.783C113.348,346.783 113.412,346.771 113.46,346.747C113.54,346.707 113.668,346.651 113.844,346.579C114.02,346.507 114.224,346.435 114.456,346.363C114.688,346.291 114.934,346.227 115.194,346.171C115.454,346.115 115.708,346.087 115.956,346.087C116.356,346.087 116.736,346.133 117.096,346.225C117.456,346.317 117.77,346.455 118.038,346.639C118.306,346.823 118.52,347.051 118.68,347.323C118.84,347.595 118.92,347.911 118.92,348.271C118.92,348.623 118.838,348.949 118.674,349.249C118.51,349.549 118.304,349.823 118.056,350.071C117.808,350.319 117.536,350.533 117.24,350.713C116.944,350.893 116.668,351.035 116.412,351.139C116.74,351.139 117.05,351.173 117.342,351.241C117.634,351.309 117.898,351.405 118.134,351.529C118.37,351.653 118.566,351.803 118.722,351.979C118.878,352.155 118.98,352.355 119.028,352.579C119.028,352.691 119.018,352.765 118.998,352.801C118.978,352.837 118.94,352.895 118.884,352.975C119.044,353.231 119.222,353.533 119.418,353.881C119.614,354.229 119.834,354.561 120.078,354.877C120.322,355.193 120.594,355.461 120.894,355.681C121.194,355.901 121.528,356.011 121.896,356.011C121.968,356.011 122.05,356.007 122.142,355.999C122.234,355.991 122.322,355.975 122.406,355.951C122.49,355.927 122.568,355.891 122.64,355.843C122.712,355.795 122.764,355.731 122.796,355.651C122.828,355.627 122.86,355.615 122.892,355.615C122.932,355.615 122.958,355.635 122.97,355.675C122.982,355.715 122.992,355.755 123,355.795C122.84,356.155 122.444,356.335 121.812,356.335C121.492,356.335 121.186,356.283 120.894,356.179C120.602,356.075 120.322,355.937 120.054,355.765C119.786,355.593 119.53,355.395 119.286,355.171C119.042,354.947 118.812,354.715 118.596,354.475C118.436,354.299 118.25,354.079 118.038,353.815C117.826,353.551 117.6,353.281 117.36,353.005C117.12,352.729 116.87,352.469 116.61,352.225C116.35,351.981 116.092,351.791 115.836,351.655C115.716,351.599 115.58,351.557 115.428,351.529C115.276,351.501 115.13,351.481 114.99,351.469C114.85,351.457 114.72,351.451 114.6,351.451L114.324,351.451C114.276,351.451 114.236,351.453 114.204,351.457C114.172,351.461 114.148,351.463 114.132,351.463L114.132,352.471ZM114.336,347.419C114.296,347.571 114.264,347.783 114.24,348.055C114.216,348.327 114.196,348.625 114.18,348.949C114.164,349.273 114.152,349.609 114.144,349.957C114.136,350.305 114.132,350.635 114.132,350.947C114.212,351.011 114.366,351.047 114.594,351.055C114.822,351.063 115.068,351.067 115.332,351.067C115.564,351.067 115.758,351.047 115.914,351.007C116.07,350.967 116.216,350.895 116.352,350.791C116.432,350.735 116.522,350.643 116.622,350.515C116.722,350.387 116.818,350.235 116.91,350.059C117.002,349.883 117.08,349.685 117.144,349.465C117.208,349.245 117.24,349.011 117.24,348.763C117.24,348.403 117.2,348.081 117.12,347.797C117.04,347.513 116.932,347.269 116.796,347.065C116.66,346.861 116.5,346.705 116.316,346.597C116.132,346.489 115.936,346.435 115.728,346.435C115.616,346.435 115.49,346.457 115.35,346.501C115.21,346.545 115.072,346.603 114.936,346.675C114.8,346.747 114.68,346.829 114.576,346.921C114.472,347.013 114.404,347.111 114.372,347.215L114.336,347.419Z" style="fill-rule:nonzero;"/>
            <path d="M126.036,353.695C125.948,353.791 125.812,353.923 125.628,354.091C125.444,354.259 125.222,354.427 124.962,354.595C124.702,354.763 124.412,354.907 124.092,355.027C123.772,355.147 123.432,355.207 123.072,355.207C122.744,355.207 122.424,355.157 122.112,355.057C121.8,354.957 121.52,354.805 121.272,354.601C121.024,354.397 120.826,354.137 120.678,353.821C120.53,353.505 120.456,353.127 120.456,352.687C120.456,352.327 120.48,352.017 120.528,351.757C120.576,351.497 120.64,351.269 120.72,351.073C120.8,350.877 120.89,350.709 120.99,350.569C121.09,350.429 121.192,350.303 121.296,350.191C121.424,350.047 121.58,349.911 121.764,349.783C121.948,349.655 122.146,349.539 122.358,349.435C122.57,349.331 122.794,349.249 123.03,349.189C123.266,349.129 123.504,349.099 123.744,349.099C124.176,349.099 124.514,349.171 124.758,349.315C125.002,349.459 125.124,349.659 125.124,349.915C125.124,350.075 125.076,350.223 124.98,350.359C125.06,350.335 125.162,350.295 125.286,350.239C125.41,350.183 125.536,350.125 125.664,350.065C125.792,350.005 125.906,349.951 126.006,349.903C126.106,349.855 126.172,349.819 126.204,349.795C126.22,349.779 126.238,349.773 126.258,349.777C126.278,349.781 126.288,349.795 126.288,349.819C126.288,349.923 126.268,350.009 126.228,350.077C126.188,350.145 126.14,350.199 126.084,350.239C125.956,350.319 125.772,350.419 125.532,350.539C125.292,350.659 125.026,350.785 124.734,350.917C124.442,351.049 124.14,351.181 123.828,351.313C123.516,351.445 123.222,351.571 122.946,351.691C122.67,351.811 122.43,351.917 122.226,352.009C122.022,352.101 121.884,352.167 121.812,352.207C121.812,352.479 121.866,352.733 121.974,352.969C122.082,353.205 122.232,353.411 122.424,353.587C122.616,353.763 122.846,353.901 123.114,354.001C123.382,354.101 123.676,354.151 123.996,354.151C124.284,354.151 124.544,354.121 124.776,354.061C125.008,354.001 125.204,353.933 125.364,353.857C125.524,353.781 125.65,353.713 125.742,353.653C125.834,353.593 125.884,353.563 125.892,353.563C125.924,353.563 125.956,353.577 125.988,353.605C126.02,353.633 126.036,353.663 126.036,353.695ZM121.812,351.859C121.948,351.811 122.102,351.753 122.274,351.685C122.446,351.617 122.614,351.543 122.778,351.463C122.942,351.383 123.092,351.307 123.228,351.235C123.364,351.163 123.468,351.099 123.54,351.043C123.684,350.939 123.756,350.763 123.756,350.515C123.756,350.419 123.738,350.319 123.702,350.215C123.666,350.111 123.612,350.017 123.54,349.933C123.468,349.849 123.38,349.781 123.276,349.729C123.172,349.677 123.056,349.651 122.928,349.651C122.816,349.651 122.696,349.689 122.568,349.765C122.44,349.841 122.32,349.965 122.208,350.137C122.096,350.309 122.002,350.537 121.926,350.821C121.85,351.105 121.812,351.451 121.812,351.859Z" style="fill-rule:nonzero;"/>
            <path d="M130.608,354.547C130.352,354.707 130.036,354.851 129.66,354.979C129.284,355.107 128.92,355.171 128.568,355.171C128.456,355.171 128.33,355.163 128.19,355.147C128.05,355.131 127.936,355.115 127.848,355.099C127.84,355.251 127.834,355.407 127.83,355.567C127.826,355.727 127.822,355.881 127.818,356.029C127.814,356.177 127.81,356.315 127.806,356.443C127.802,356.571 127.8,356.679 127.8,356.767C127.8,357.175 127.834,357.451 127.902,357.595C127.97,357.739 128.076,357.811 128.22,357.811C128.292,357.811 128.39,357.801 128.514,357.781C128.638,357.761 128.748,357.727 128.844,357.679C128.86,357.663 128.878,357.679 128.898,357.727C128.918,357.775 128.928,357.819 128.928,357.859C128.928,357.867 128.872,357.889 128.76,357.925C128.648,357.961 128.506,358.005 128.334,358.057C128.162,358.109 127.976,358.165 127.776,358.225C127.576,358.285 127.384,358.341 127.2,358.393C127.016,358.445 126.858,358.487 126.726,358.519C126.594,358.551 126.512,358.567 126.48,358.567C126.432,358.567 126.388,358.563 126.348,358.555C126.308,358.547 126.288,358.511 126.288,358.447C126.288,358.407 126.302,358.381 126.33,358.369C126.358,358.357 126.38,358.339 126.396,358.315C126.436,358.267 126.46,358.177 126.468,358.045C126.476,357.913 126.488,357.783 126.504,357.655C126.528,357.343 126.554,356.973 126.582,356.545C126.61,356.117 126.636,355.669 126.66,355.201C126.684,354.733 126.706,354.265 126.726,353.797C126.746,353.329 126.756,352.903 126.756,352.519C126.756,351.975 126.734,351.549 126.69,351.241C126.646,350.933 126.584,350.705 126.504,350.557C126.424,350.409 126.334,350.317 126.234,350.281C126.134,350.245 126.028,350.227 125.916,350.227C125.892,350.227 125.858,350.229 125.814,350.233C125.77,350.237 125.728,350.239 125.688,350.239C125.656,350.239 125.64,350.211 125.64,350.155C125.64,350.115 125.642,350.089 125.646,350.077C125.65,350.065 125.668,350.051 125.7,350.035C125.74,350.011 125.814,349.971 125.922,349.915C126.03,349.859 126.154,349.797 126.294,349.729C126.434,349.661 126.584,349.589 126.744,349.513C126.904,349.437 127.054,349.369 127.194,349.309C127.334,349.249 127.456,349.199 127.56,349.159C127.664,349.119 127.736,349.099 127.776,349.099C127.896,349.099 127.978,349.151 128.022,349.255C128.066,349.359 128.092,349.499 128.1,349.675C128.1,349.747 128.098,349.861 128.094,350.017C128.09,350.173 128.084,350.351 128.076,350.551C128.18,350.439 128.322,350.301 128.502,350.137C128.682,349.973 128.886,349.815 129.114,349.663C129.342,349.511 129.582,349.381 129.834,349.273C130.086,349.165 130.332,349.111 130.572,349.111C130.916,349.111 131.222,349.173 131.49,349.297C131.758,349.421 131.98,349.585 132.156,349.789C132.332,349.993 132.466,350.225 132.558,350.485C132.65,350.745 132.696,351.011 132.696,351.283C132.696,351.667 132.638,352.021 132.522,352.345C132.406,352.669 132.264,352.957 132.096,353.209C131.928,353.461 131.744,353.679 131.544,353.863C131.344,354.047 131.16,354.191 130.992,354.295L130.608,354.547ZM127.908,353.623C127.932,353.711 127.996,353.801 128.1,353.893C128.204,353.985 128.338,354.069 128.502,354.145C128.666,354.221 128.854,354.285 129.066,354.337C129.278,354.389 129.504,354.415 129.744,354.415C129.96,354.415 130.166,354.373 130.362,354.289C130.558,354.205 130.728,354.073 130.872,353.893C131.016,353.713 131.13,353.479 131.214,353.191C131.298,352.903 131.34,352.555 131.34,352.147C131.34,351.859 131.3,351.587 131.22,351.331C131.14,351.075 131.024,350.851 130.872,350.659C130.72,350.467 130.54,350.317 130.332,350.209C130.124,350.101 129.896,350.047 129.648,350.047C129.52,350.047 129.378,350.075 129.222,350.131C129.066,350.187 128.916,350.263 128.772,350.359C128.628,350.455 128.494,350.567 128.37,350.695C128.246,350.823 128.156,350.959 128.1,351.103C128.06,351.199 128.026,351.349 127.998,351.553C127.97,351.757 127.95,351.981 127.938,352.225C127.926,352.469 127.918,352.715 127.914,352.963C127.91,353.211 127.908,353.431 127.908,353.623Z" style="fill-rule:nonzero;"/>
            <path d="M137.256,353.875C137.304,353.907 137.328,353.947 137.328,353.995C137.328,354.059 137.236,354.143 137.052,354.247C136.86,354.359 136.606,354.491 136.29,354.643C135.974,354.795 135.66,354.927 135.348,355.039C135.196,355.095 135.06,355.143 134.94,355.183C134.82,355.223 134.712,355.243 134.616,355.243C134.504,355.243 134.366,355.217 134.202,355.165C134.038,355.113 133.896,355.051 133.776,354.979C133.68,354.915 133.604,354.865 133.548,354.829C133.492,354.793 133.464,354.755 133.464,354.715C133.464,354.683 133.474,354.653 133.494,354.625C133.514,354.597 133.532,354.563 133.548,354.523C133.556,354.499 133.564,354.467 133.572,354.427C133.58,354.387 133.584,354.347 133.584,354.307C133.608,354.107 133.634,353.817 133.662,353.437C133.69,353.057 133.712,352.637 133.728,352.177C133.744,351.717 133.758,351.241 133.77,350.749C133.782,350.257 133.788,349.799 133.788,349.375C133.788,348.855 133.786,348.435 133.782,348.115C133.778,347.795 133.768,347.539 133.752,347.347C133.728,347.083 133.696,346.909 133.656,346.825C133.616,346.741 133.572,346.679 133.524,346.639C133.468,346.591 133.414,346.561 133.362,346.549C133.31,346.537 133.262,346.529 133.218,346.525C133.174,346.521 133.138,346.519 133.11,346.519C133.082,346.519 133.068,346.511 133.068,346.495C133.068,346.231 133.18,346.099 133.404,346.099C133.572,346.099 133.77,346.101 133.998,346.105C134.226,346.109 134.416,346.111 134.568,346.111C134.664,346.111 134.766,346.105 134.874,346.093C134.982,346.081 135.088,346.069 135.192,346.057C135.296,346.045 135.392,346.031 135.48,346.015C135.568,345.999 135.632,345.983 135.672,345.967C135.704,345.959 135.73,345.971 135.75,346.003C135.77,346.035 135.782,346.075 135.786,346.123C135.79,346.171 135.782,346.215 135.762,346.255C135.742,346.295 135.716,346.319 135.684,346.327C135.636,346.335 135.594,346.339 135.558,346.339C135.522,346.339 135.46,346.355 135.372,346.387C135.332,346.403 135.296,346.453 135.264,346.537C135.232,346.621 135.204,346.753 135.18,346.933C135.156,347.113 135.132,347.349 135.108,347.641C135.084,347.933 135.06,348.299 135.036,348.739C135.012,349.091 134.994,349.449 134.982,349.813C134.97,350.177 134.958,350.531 134.946,350.875C134.934,351.219 134.926,351.539 134.922,351.835C134.918,352.131 134.916,352.383 134.916,352.591C134.916,352.823 134.918,353.057 134.922,353.293C134.926,353.529 134.948,353.715 134.988,353.851C135.028,353.979 135.132,354.099 135.3,354.211C135.468,354.323 135.644,354.379 135.828,354.379C135.972,354.379 136.12,354.359 136.272,354.319C136.424,354.279 136.564,354.231 136.692,354.175C136.82,354.119 136.934,354.063 137.034,354.007C137.134,353.951 137.208,353.907 137.256,353.875Z" style="fill-rule:nonzero;"/>
            <path d="M140.448,353.227C140.424,353.091 140.4,352.943 140.376,352.783C140.352,352.623 140.328,352.471 140.304,352.327C140.28,352.183 140.258,352.059 140.238,351.955C140.218,351.851 140.204,351.783 140.196,351.751C140.068,351.799 139.924,351.855 139.764,351.919C139.604,351.983 139.444,352.053 139.284,352.129C139.124,352.205 138.972,352.281 138.828,352.357C138.684,352.433 138.564,352.503 138.468,352.567C138.284,352.687 138.144,352.807 138.048,352.927C137.952,353.047 137.904,353.191 137.904,353.359C137.904,353.591 137.972,353.795 138.108,353.971C138.244,354.147 138.456,354.235 138.744,354.235C138.896,354.235 139.054,354.207 139.218,354.151C139.382,354.095 139.534,354.031 139.674,353.959C139.814,353.887 139.936,353.815 140.04,353.743C140.144,353.671 140.216,353.615 140.256,353.575C140.32,353.511 140.37,353.457 140.406,353.413C140.442,353.369 140.456,353.307 140.448,353.227ZM140.1,351.367C140.052,351.119 139.996,350.897 139.932,350.701C139.868,350.505 139.788,350.341 139.692,350.209C139.596,350.077 139.48,349.977 139.344,349.909C139.208,349.841 139.04,349.807 138.84,349.807C138.664,349.807 138.502,349.839 138.354,349.903C138.206,349.967 138.078,350.043 137.97,350.131C137.862,350.219 137.778,350.307 137.718,350.395C137.658,350.483 137.624,350.551 137.616,350.599C137.608,350.663 137.572,350.695 137.508,350.695C137.396,350.695 137.292,350.655 137.196,350.575C137.1,350.495 137.052,350.399 137.052,350.287C137.052,350.223 137.06,350.175 137.076,350.143C137.26,350.039 137.484,349.927 137.748,349.807C138.012,349.687 138.286,349.575 138.57,349.471C138.854,349.367 139.136,349.281 139.416,349.213C139.696,349.145 139.948,349.111 140.172,349.111C140.508,349.111 140.766,349.159 140.946,349.255C141.126,349.351 141.26,349.487 141.348,349.663C141.436,349.839 141.49,350.045 141.51,350.281C141.53,350.517 141.548,350.771 141.564,351.043C141.588,351.451 141.62,351.845 141.66,352.225C141.7,352.605 141.76,352.941 141.84,353.233C141.92,353.525 142.022,353.761 142.146,353.941C142.27,354.121 142.424,354.211 142.608,354.211C142.696,354.211 142.792,354.195 142.896,354.163C143,354.131 143.1,354.093 143.196,354.049C143.292,354.005 143.378,353.961 143.454,353.917C143.53,353.873 143.58,353.843 143.604,353.827C143.676,353.827 143.72,353.863 143.736,353.935C143.736,353.975 143.728,354.011 143.712,354.043C143.696,354.059 143.636,354.099 143.532,354.163C143.428,354.227 143.3,354.303 143.148,354.391C142.996,354.479 142.828,354.573 142.644,354.673C142.46,354.773 142.278,354.867 142.098,354.955C141.918,355.043 141.752,355.115 141.6,355.171C141.448,355.227 141.328,355.255 141.24,355.255C141.136,355.255 141.046,355.213 140.97,355.129C140.894,355.045 140.828,354.933 140.772,354.793C140.716,354.653 140.668,354.491 140.628,354.307C140.588,354.123 140.552,353.931 140.52,353.731C140.376,353.851 140.192,353.993 139.968,354.157C139.744,354.321 139.5,354.475 139.236,354.619C138.972,354.763 138.702,354.885 138.426,354.985C138.15,355.085 137.884,355.135 137.628,355.135C137.412,355.135 137.224,355.101 137.064,355.033C136.904,354.965 136.77,354.875 136.662,354.763C136.554,354.651 136.474,354.521 136.422,354.373C136.37,354.225 136.344,354.071 136.344,353.911C136.344,353.655 136.422,353.445 136.578,353.281C136.734,353.117 136.976,352.947 137.304,352.771C137.456,352.691 137.668,352.585 137.94,352.453C138.212,352.321 138.49,352.187 138.774,352.051C139.058,351.915 139.322,351.785 139.566,351.661C139.81,351.537 139.988,351.439 140.1,351.367Z" style="fill-rule:nonzero;"/>
            <path d="M142.776,358.663C142.848,358.583 142.956,358.451 143.1,358.267C143.244,358.083 143.402,357.875 143.574,357.643C143.746,357.411 143.922,357.163 144.102,356.899C144.282,356.635 144.452,356.385 144.612,356.149C144.772,355.913 144.91,355.697 145.026,355.501C145.142,355.305 145.216,355.159 145.248,355.063C145.12,354.727 144.984,354.371 144.84,353.995C144.696,353.619 144.546,353.247 144.39,352.879C144.234,352.511 144.078,352.159 143.922,351.823C143.766,351.487 143.612,351.193 143.46,350.941C143.308,350.689 143.162,350.487 143.022,350.335C142.882,350.183 142.756,350.107 142.644,350.107C142.612,350.107 142.576,350.117 142.536,350.137C142.496,350.157 142.46,350.175 142.428,350.191C142.404,350.207 142.376,350.187 142.344,350.131C142.312,350.075 142.312,350.039 142.344,350.023C142.376,349.999 142.47,349.939 142.626,349.843C142.782,349.747 142.956,349.645 143.148,349.537C143.34,349.429 143.526,349.331 143.706,349.243C143.886,349.155 144.016,349.111 144.096,349.111C144.176,349.111 144.27,349.183 144.378,349.327C144.486,349.471 144.598,349.665 144.714,349.909C144.83,350.153 144.952,350.431 145.08,350.743C145.208,351.055 145.336,351.381 145.464,351.721C145.592,352.061 145.718,352.403 145.842,352.747C145.966,353.091 146.084,353.411 146.196,353.707C146.3,353.547 146.434,353.319 146.598,353.023C146.762,352.727 146.92,352.411 147.072,352.075C147.224,351.739 147.354,351.407 147.462,351.079C147.57,350.751 147.624,350.475 147.624,350.251C147.624,350.019 147.568,349.853 147.456,349.753C147.344,349.653 147.22,349.603 147.084,349.603C146.98,349.603 146.898,349.605 146.838,349.609C146.778,349.613 146.712,349.623 146.64,349.639C146.624,349.639 146.6,349.629 146.568,349.609C146.536,349.589 146.52,349.559 146.52,349.519C146.52,349.479 146.608,349.435 146.784,349.387C146.96,349.339 147.164,349.295 147.396,349.255C147.628,349.215 147.856,349.181 148.08,349.153C148.304,349.125 148.46,349.111 148.548,349.111C148.732,349.111 148.868,349.147 148.956,349.219C149.044,349.291 149.088,349.375 149.088,349.471C149.04,349.663 148.938,349.913 148.782,350.221C148.626,350.529 148.44,350.865 148.224,351.229C148.008,351.593 147.778,351.969 147.534,352.357C147.29,352.745 147.056,353.111 146.832,353.455C146.608,353.799 146.406,354.107 146.226,354.379C146.046,354.651 145.916,354.851 145.836,354.979C145.676,355.227 145.524,355.485 145.38,355.753C145.236,356.021 145.104,356.289 144.984,356.557C144.864,356.825 144.758,357.081 144.666,357.325C144.574,357.569 144.508,357.791 144.468,357.991C144.444,358.111 144.466,358.189 144.534,358.225C144.602,358.261 144.69,358.269 144.798,358.249C144.906,358.229 145.024,358.191 145.152,358.135C145.28,358.079 145.388,358.015 145.476,357.943C145.516,357.911 145.542,357.905 145.554,357.925C145.566,357.945 145.572,357.975 145.572,358.015C145.572,358.055 145.564,358.097 145.548,358.141C145.532,358.185 145.512,358.215 145.488,358.231C145.48,358.231 145.388,358.267 145.212,358.339C145.036,358.411 144.824,358.489 144.576,358.573C144.328,358.657 144.066,358.735 143.79,358.807C143.514,358.879 143.272,358.915 143.064,358.915C142.864,358.915 142.764,358.851 142.764,358.723C142.764,358.707 142.766,358.695 142.77,358.687C142.774,358.679 142.776,358.671 142.776,358.663Z" style="fill-rule:nonzero;"/>
        </g>
        <g transform="matrix(1,0,0,1,-65.4614,-51.6192)">
            <text x="76.188px" y="355.099px" style="font-family:'Luminari-Regular', 'Luminari';font-size:12px;">MIDI Repla<tspan x="142.44px " y="355.099px ">y</tspan></text>
        </g>
        <g transform="matrix(0.0219124,0,0,0.0248558,-15.5421,285.934)">
            <g transform="matrix(1,0,0,1,-143.343,98.6554)">
                <ellipse cx="360.896" cy="293.762" rx="136.961" ry="230.443" style="fill:rgb(102,126,153);stroke:black;stroke-width:63.81px;"/>
            </g>
            <g transform="matrix(1,0,0,1,445.551,98.6554)">
                <ellipse cx="360.896" cy="293.762" rx="136.961" ry="230.443" style="fill:rgb(102,126,153);stroke:black;stroke-width:63.81px;"/>
            </g>
            <g transform="matrix(1,0,0,1,-34.3236,-20.6488)">
                <ellipse cx="546.324" cy="643.509" rx="431.408" ry="296.899" style="fill:rgb(102,126,153);stroke:black;stroke-width:63.81px;"/>
            </g>
            <circle cx="406.664" cy="569.758" r="105.336" style="fill:rgb(102,126,153);stroke:black;stroke-width:63.81px;"/>
            <g transform="matrix(1,0,0,1,210.672,0)">
                <circle cx="406.664" cy="569.758" r="105.336" style="fill:rgb(102,126,153);stroke:black;stroke-width:63.81px;"/>
            </g>
            <g transform="matrix(1,0,0,1,-53.1856,50.0357)">
                <ellipse cx="565.186" cy="671.455" rx="210.672" ry="98.631" style="fill:rgb(102,126,153);stroke:black;stroke-width:63.81px;"/>
            </g>
            <g transform="matrix(51.2,0,0,45.1371,0.670978,88.9676)">
                <path d="M12.057,13.791C12.057,13.668 11.958,13.568 11.835,13.568L8.139,13.568C8.016,13.568 7.916,13.668 7.916,13.791L7.916,14.236C7.916,14.359 8.016,14.458 8.139,14.458L11.835,14.458C11.958,14.458 12.057,14.359 12.057,14.236L12.057,13.791Z"/>
            </g>
        </g>
    </g>
</svg>
