<?xml version="1.0" encoding="UTF-8" standalone="no"?>
<!DOCTYPE svg PUBLIC "-//W3C//DTD SVG 1.1//EN" "http://www.w3.org/Graphics/SVG/1.1/DTD/svg11.dtd">
<svg width="100%" height="100%" viewBox="0 0 60 380" version="1.1" xmlns="http://www.w3.org/2000/svg" xmlns:xlink="http://www.w3.org/1999/xlink" xml:space="preserve" xmlns:serif="http://www.serif.com/" style="fill-rule:evenodd;clip-rule:evenodd;stroke-linecap:round;stroke-linejoin:round;stroke-miterlimit:1.5;">
    <g transform="matrix(0.288342,0,0,2.01589,-15.1544,-120.797)">
        <rect x="52.556" y="59.922" width="208.087" height="188.503" style="fill:rgb(102,126,153);"/>
    </g>
    <g transform="matrix(1,0,0,1,-118.395,13.3388)">
        <g id="Connect-ledbutton" serif:id="Connect#ledbutton" transform="matrix(0.174892,0,0,0.175002,124.797,309.604)">
            <rect x="53.94" y="106.916" width="161.978" height="161.978" style="fill:rgb(102,126,153);"/>
        </g>
        <g transform="matrix(1,0,0,1,46.1323,204.275)">
            <path d="M90.698,116.846C90.698,117.006 90.743,117.13 90.833,117.216C90.923,117.303 91.045,117.346 91.198,117.346C91.391,117.346 91.52,117.29 91.583,117.176C91.646,117.063 91.685,116.95 91.698,116.836L92.718,116.836C92.718,117.283 92.581,117.643 92.308,117.916C92.175,118.056 92.015,118.166 91.828,118.246C91.641,118.326 91.431,118.366 91.198,118.366C90.878,118.366 90.606,118.3 90.383,118.166C90.16,118.033 89.988,117.856 89.868,117.636C89.795,117.503 89.745,117.35 89.718,117.176C89.691,117.003 89.678,116.813 89.678,116.606L89.678,114.936C89.678,114.73 89.691,114.54 89.718,114.366C89.745,114.193 89.795,114.04 89.868,113.906C89.988,113.686 90.16,113.51 90.383,113.376C90.606,113.243 90.878,113.176 91.198,113.176C91.431,113.176 91.643,113.216 91.833,113.296C92.023,113.376 92.185,113.486 92.318,113.626C92.585,113.926 92.718,114.316 92.718,114.796L91.698,114.796C91.698,114.59 91.653,114.438 91.563,114.341C91.473,114.245 91.351,114.196 91.198,114.196C91.045,114.196 90.923,114.245 90.833,114.341C90.743,114.438 90.698,114.583 90.698,114.776L90.698,116.846Z" style="fill:rgb(5,5,5);fill-rule:nonzero;"/>
            <path d="M93.228,114.936C93.228,114.73 93.241,114.54 93.268,114.366C93.295,114.193 93.345,114.04 93.418,113.906C93.538,113.686 93.71,113.51 93.933,113.376C94.156,113.243 94.428,113.176 94.748,113.176C95.068,113.176 95.34,113.243 95.563,113.376C95.786,113.51 95.958,113.686 96.078,113.906C96.151,114.04 96.201,114.193 96.228,114.366C96.255,114.54 96.268,114.73 96.268,114.936L96.268,116.606C96.268,116.813 96.255,117.003 96.228,117.176C96.201,117.35 96.151,117.503 96.078,117.636C95.958,117.856 95.786,118.033 95.563,118.166C95.34,118.3 95.068,118.366 94.748,118.366C94.428,118.366 94.156,118.3 93.933,118.166C93.71,118.033 93.538,117.856 93.418,117.636C93.345,117.503 93.295,117.35 93.268,117.176C93.241,117.003 93.228,116.813 93.228,116.606L93.228,114.936ZM94.248,116.766C94.248,116.96 94.293,117.105 94.383,117.201C94.473,117.298 94.595,117.346 94.748,117.346C94.901,117.346 95.023,117.298 95.113,117.201C95.203,117.105 95.248,116.96 95.248,116.766L95.248,114.776C95.248,114.583 95.203,114.438 95.113,114.341C95.023,114.245 94.901,114.196 94.748,114.196C94.595,114.196 94.473,114.245 94.383,114.341C94.293,114.438 94.248,114.583 94.248,114.776L94.248,116.766Z" style="fill:rgb(5,5,5);fill-rule:nonzero;"/>
            <path d="M97.018,118.306L97.018,113.236L98.038,113.236L98.038,113.726L98.058,113.726C98.165,113.566 98.293,113.435 98.443,113.331C98.593,113.228 98.785,113.176 99.018,113.176C99.145,113.176 99.271,113.198 99.398,113.241C99.525,113.285 99.638,113.356 99.738,113.456C99.838,113.556 99.918,113.685 99.978,113.841C100.038,113.998 100.068,114.19 100.068,114.416L100.068,118.306L99.048,118.306L99.048,114.796C99.048,114.61 99.005,114.463 98.918,114.356C98.831,114.25 98.708,114.196 98.548,114.196C98.355,114.196 98.221,114.256 98.148,114.376C98.075,114.496 98.038,114.67 98.038,114.896L98.038,118.306L97.018,118.306Z" style="fill:rgb(5,5,5);fill-rule:nonzero;"/>
            <path d="M100.908,118.306L100.908,113.236L101.928,113.236L101.928,113.726L101.948,113.726C102.055,113.566 102.183,113.435 102.333,113.331C102.483,113.228 102.675,113.176 102.908,113.176C103.035,113.176 103.161,113.198 103.288,113.241C103.415,113.285 103.528,113.356 103.628,113.456C103.728,113.556 103.808,113.685 103.868,113.841C103.928,113.998 103.958,114.19 103.958,114.416L103.958,118.306L102.938,118.306L102.938,114.796C102.938,114.61 102.895,114.463 102.808,114.356C102.721,114.25 102.598,114.196 102.438,114.196C102.245,114.196 102.111,114.256 102.038,114.376C101.965,114.496 101.928,114.67 101.928,114.896L101.928,118.306L100.908,118.306Z" style="fill:rgb(5,5,5);fill-rule:nonzero;"/>
            <path d="M107.748,116.156L105.728,116.156L105.728,116.846C105.728,117.006 105.773,117.13 105.863,117.216C105.953,117.303 106.075,117.346 106.228,117.346C106.421,117.346 106.55,117.29 106.613,117.176C106.676,117.063 106.715,116.95 106.728,116.836L107.748,116.836C107.748,117.283 107.611,117.643 107.338,117.916C107.205,118.056 107.045,118.166 106.858,118.246C106.671,118.326 106.461,118.366 106.228,118.366C105.908,118.366 105.636,118.3 105.413,118.166C105.19,118.033 105.018,117.856 104.898,117.636C104.825,117.503 104.775,117.35 104.748,117.176C104.721,117.003 104.708,116.813 104.708,116.606L104.708,114.936C104.708,114.73 104.721,114.54 104.748,114.366C104.775,114.193 104.825,114.04 104.898,113.906C105.018,113.686 105.19,113.51 105.413,113.376C105.636,113.243 105.908,113.176 106.228,113.176C106.461,113.176 106.673,113.216 106.863,113.296C107.053,113.376 107.215,113.486 107.348,113.626C107.615,113.926 107.748,114.303 107.748,114.756L107.748,116.156ZM105.728,115.356L106.728,115.356L106.728,114.776C106.728,114.583 106.683,114.438 106.593,114.341C106.503,114.245 106.381,114.196 106.228,114.196C106.075,114.196 105.953,114.245 105.863,114.341C105.773,114.438 105.728,114.583 105.728,114.776L105.728,115.356Z" style="fill:rgb(5,5,5);fill-rule:nonzero;"/>
            <path d="M109.578,116.846C109.578,117.006 109.623,117.13 109.713,117.216C109.803,117.303 109.925,117.346 110.078,117.346C110.271,117.346 110.4,117.29 110.463,117.176C110.526,117.063 110.565,116.95 110.578,116.836L111.598,116.836C111.598,117.283 111.461,117.643 111.188,117.916C111.055,118.056 110.895,118.166 110.708,118.246C110.521,118.326 110.311,118.366 110.078,118.366C109.758,118.366 109.486,118.3 109.263,118.166C109.04,118.033 108.868,117.856 108.748,117.636C108.675,117.503 108.625,117.35 108.598,117.176C108.571,117.003 108.558,116.813 108.558,116.606L108.558,114.936C108.558,114.73 108.571,114.54 108.598,114.366C108.625,114.193 108.675,114.04 108.748,113.906C108.868,113.686 109.04,113.51 109.263,113.376C109.486,113.243 109.758,113.176 110.078,113.176C110.311,113.176 110.523,113.216 110.713,113.296C110.903,113.376 111.065,113.486 111.198,113.626C111.465,113.926 111.598,114.316 111.598,114.796L110.578,114.796C110.578,114.59 110.533,114.438 110.443,114.341C110.353,114.245 110.231,114.196 110.078,114.196C109.925,114.196 109.803,114.245 109.713,114.341C109.623,114.438 109.578,114.583 109.578,114.776L109.578,116.846Z" style="fill:rgb(5,5,5);fill-rule:nonzero;"/>
            <path d="M112.198,113.236L112.198,111.696L113.218,111.696L113.218,113.236L113.848,113.236L113.848,114.036L113.218,114.036L113.218,116.846C113.218,116.966 113.23,117.06 113.253,117.126C113.276,117.193 113.315,117.243 113.368,117.276C113.421,117.31 113.486,117.33 113.563,117.336C113.64,117.343 113.735,117.346 113.848,117.346L113.848,118.306L113.428,118.306C113.195,118.306 113,118.27 112.843,118.196C112.686,118.123 112.561,118.03 112.468,117.916C112.375,117.803 112.306,117.675 112.263,117.531C112.22,117.388 112.198,117.25 112.198,117.116L112.198,114.036L111.688,114.036L111.688,113.236L112.198,113.236Z" style="fill:rgb(5,5,5);fill-rule:nonzero;"/>
        </g>
        <g transform="matrix(1,0,0,1,46.1323,204.275)">
            <text x="89.198px" y="118.306px" style="font-family:'DINCondensed-Bold', 'DIN Condensed';font-weight:700;font-stretch:condensed;font-size:10px;fill:rgb(5,5,5);">connect</text>
        </g>
    </g>
    <g>
        <g id="Kill-button" serif:id="Kill#button" transform="matrix(0.709808,0,0,0.709808,-42.4092,7.03977)">
            <circle cx="101.308" cy="310.24" r="9.898" style="fill:rgb(115,115,115);"/>
        </g>
        <g transform="matrix(1,0,0,1,-67.1436,95.8551)">
            <path d="M92.753,118.306L92.753,111.186L93.773,111.186L93.773,115.446L93.793,115.446L95.023,113.236L96.043,113.236L94.833,115.296L96.293,118.306L95.183,118.306L94.263,116.116L93.773,116.886L93.773,118.306L92.753,118.306Z" style="fill:rgb(5,5,5);fill-rule:nonzero;"/>
            <path d="M96.643,118.306L96.643,113.236L97.663,113.236L97.663,118.306L96.643,118.306ZM96.643,112.206L96.643,111.186L97.663,111.186L97.663,112.206L96.643,112.206Z" style="fill:rgb(5,5,5);fill-rule:nonzero;"/>
            <path d="M98.443,111.186L99.463,111.186L99.463,116.876C99.463,117.07 99.498,117.201 99.568,117.271C99.638,117.341 99.77,117.386 99.963,117.406L99.963,118.366C99.73,118.366 99.52,118.348 99.333,118.311C99.146,118.275 98.986,118.203 98.853,118.096C98.72,117.996 98.618,117.855 98.548,117.671C98.478,117.488 98.443,117.246 98.443,116.946L98.443,111.186Z" style="fill:rgb(5,5,5);fill-rule:nonzero;"/>
            <path d="M100.303,111.186L101.323,111.186L101.323,116.876C101.323,117.07 101.358,117.201 101.428,117.271C101.498,117.341 101.63,117.386 101.823,117.406L101.823,118.366C101.59,118.366 101.38,118.348 101.193,118.311C101.006,118.275 100.846,118.203 100.713,118.096C100.58,117.996 100.478,117.855 100.408,117.671C100.338,117.488 100.303,117.246 100.303,116.946L100.303,111.186Z" style="fill:rgb(5,5,5);fill-rule:nonzero;"/>
        </g>
        <g transform="matrix(1,0,0,1,-67.1436,95.8551)">
            <text x="92.333px" y="118.306px" style="font-family:'DINCondensed-Bold', 'DIN Condensed';font-weight:700;font-stretch:condensed;font-size:10px;fill:rgb(5,5,5);">kill</text>
        </g>
    </g>
    <g transform="matrix(1,0,0,1,0.499922,-56.8899)">
        <g id="Restart-button" serif:id="Restart#button" transform="matrix(0.709808,0,0,0.709808,-42.4092,7.03977)">
            <circle cx="101.308" cy="310.24" r="9.898" style="fill:rgb(115,115,115);"/>
        </g>
        <g transform="matrix(1,0,0,1,-67.1436,95.8551)">
            <path d="M86.598,111.186C86.405,111.873 86.271,112.583 86.198,113.316C86.125,114.05 86.088,114.786 86.088,115.526C86.088,116.213 86.133,116.868 86.223,117.491C86.313,118.115 86.438,118.72 86.598,119.306L86.258,119.306C86.058,119.02 85.883,118.708 85.733,118.371C85.583,118.035 85.461,117.686 85.368,117.326C85.268,116.966 85.193,116.61 85.143,116.256C85.093,115.903 85.068,115.566 85.068,115.246C85.068,114.906 85.095,114.556 85.148,114.196C85.201,113.836 85.281,113.476 85.388,113.116C85.588,112.403 85.878,111.76 86.258,111.186L86.598,111.186Z" style="fill:rgb(5,5,5);fill-rule:nonzero;"/>
            <path d="M87.208,118.306L87.208,113.236L88.228,113.236L88.228,113.776C88.435,113.59 88.638,113.443 88.838,113.336C89.038,113.23 89.285,113.176 89.578,113.176L89.578,114.256C89.478,114.216 89.375,114.196 89.268,114.196C89.161,114.196 89.046,114.215 88.923,114.251C88.8,114.288 88.688,114.35 88.588,114.436C88.481,114.523 88.395,114.636 88.328,114.776C88.261,114.916 88.228,115.09 88.228,115.296L88.228,118.306L87.208,118.306Z" style="fill:rgb(5,5,5);fill-rule:nonzero;"/>
            <path d="M92.938,116.156L90.918,116.156L90.918,116.846C90.918,117.006 90.963,117.13 91.053,117.216C91.143,117.303 91.265,117.346 91.418,117.346C91.611,117.346 91.74,117.29 91.803,117.176C91.866,117.063 91.905,116.95 91.918,116.836L92.938,116.836C92.938,117.283 92.801,117.643 92.528,117.916C92.395,118.056 92.235,118.166 92.048,118.246C91.861,118.326 91.651,118.366 91.418,118.366C91.098,118.366 90.826,118.3 90.603,118.166C90.38,118.033 90.208,117.856 90.088,117.636C90.015,117.503 89.965,117.35 89.938,117.176C89.911,117.003 89.898,116.813 89.898,116.606L89.898,114.936C89.898,114.73 89.911,114.54 89.938,114.366C89.965,114.193 90.015,114.04 90.088,113.906C90.208,113.686 90.38,113.51 90.603,113.376C90.826,113.243 91.098,113.176 91.418,113.176C91.651,113.176 91.863,113.216 92.053,113.296C92.243,113.376 92.405,113.486 92.538,113.626C92.805,113.926 92.938,114.303 92.938,114.756L92.938,116.156ZM90.918,115.356L91.918,115.356L91.918,114.776C91.918,114.583 91.873,114.438 91.783,114.341C91.693,114.245 91.571,114.196 91.418,114.196C91.265,114.196 91.143,114.245 91.053,114.341C90.963,114.438 90.918,114.583 90.918,114.776L90.918,115.356Z" style="fill:rgb(5,5,5);fill-rule:nonzero;"/>
            <path d="M93.458,119.306C93.651,118.62 93.785,117.91 93.858,117.176C93.931,116.443 93.968,115.706 93.968,114.966C93.968,114.28 93.923,113.625 93.833,113.001C93.743,112.378 93.618,111.773 93.458,111.186L93.798,111.186C93.998,111.486 94.173,111.801 94.323,112.131C94.473,112.461 94.598,112.806 94.698,113.166C94.791,113.526 94.863,113.883 94.913,114.236C94.963,114.59 94.988,114.926 94.988,115.246C94.988,115.586 94.961,115.936 94.908,116.296C94.855,116.656 94.778,117.016 94.678,117.376C94.465,118.096 94.171,118.74 93.798,119.306L93.458,119.306Z" style="fill:rgb(5,5,5);fill-rule:nonzero;"/>
            <path d="M97.758,114.656C97.751,114.483 97.696,114.353 97.593,114.266C97.49,114.18 97.371,114.136 97.238,114.136C97.078,114.136 96.955,114.188 96.868,114.291C96.781,114.395 96.738,114.513 96.738,114.646C96.738,114.74 96.761,114.831 96.808,114.921C96.855,115.011 96.975,115.093 97.168,115.166L97.768,115.406C98.148,115.553 98.41,115.753 98.553,116.006C98.696,116.26 98.768,116.536 98.768,116.836C98.768,117.05 98.73,117.248 98.653,117.431C98.576,117.615 98.471,117.776 98.338,117.916C98.205,118.056 98.045,118.166 97.858,118.246C97.671,118.326 97.468,118.366 97.248,118.366C96.835,118.366 96.488,118.236 96.208,117.976C96.068,117.85 95.955,117.691 95.868,117.501C95.781,117.311 95.735,117.09 95.728,116.836L96.688,116.836C96.708,116.976 96.756,117.106 96.833,117.226C96.91,117.346 97.045,117.406 97.238,117.406C97.385,117.406 97.516,117.358 97.633,117.261C97.75,117.165 97.808,117.03 97.808,116.856C97.808,116.716 97.771,116.596 97.698,116.496C97.625,116.396 97.491,116.31 97.298,116.236L96.808,116.056C96.488,115.936 96.236,115.758 96.053,115.521C95.87,115.285 95.778,114.996 95.778,114.656C95.778,114.443 95.818,114.245 95.898,114.061C95.978,113.878 96.088,113.72 96.228,113.586C96.361,113.453 96.518,113.351 96.698,113.281C96.878,113.211 97.071,113.176 97.278,113.176C97.485,113.176 97.676,113.213 97.853,113.286C98.03,113.36 98.181,113.463 98.308,113.596C98.435,113.73 98.535,113.888 98.608,114.071C98.681,114.255 98.718,114.45 98.718,114.656L97.758,114.656Z" style="fill:rgb(5,5,5);fill-rule:nonzero;"/>
            <path d="M99.428,113.236L99.428,111.696L100.448,111.696L100.448,113.236L101.078,113.236L101.078,114.036L100.448,114.036L100.448,116.846C100.448,116.966 100.46,117.06 100.483,117.126C100.506,117.193 100.545,117.243 100.598,117.276C100.651,117.31 100.716,117.33 100.793,117.336C100.87,117.343 100.965,117.346 101.078,117.346L101.078,118.306L100.658,118.306C100.425,118.306 100.23,118.27 100.073,118.196C99.916,118.123 99.791,118.03 99.698,117.916C99.605,117.803 99.536,117.675 99.493,117.531C99.45,117.388 99.428,117.25 99.428,117.116L99.428,114.036L98.918,114.036L98.918,113.236L99.428,113.236Z" style="fill:rgb(5,5,5);fill-rule:nonzero;"/>
            <path d="M103.398,118.306L103.398,117.786L103.378,117.786C103.245,117.973 103.11,118.116 102.973,118.216C102.836,118.316 102.645,118.366 102.398,118.366C102.278,118.366 102.156,118.348 102.033,118.311C101.91,118.275 101.791,118.206 101.678,118.106C101.565,118.013 101.473,117.878 101.403,117.701C101.333,117.525 101.298,117.296 101.298,117.016C101.298,116.73 101.321,116.478 101.368,116.261C101.415,116.045 101.501,115.863 101.628,115.716C101.748,115.576 101.911,115.471 102.118,115.401C102.325,115.331 102.588,115.296 102.908,115.296L103.018,115.296C103.058,115.296 103.095,115.3 103.128,115.306C103.161,115.313 103.201,115.316 103.248,115.316C103.295,115.316 103.345,115.32 103.398,115.326L103.398,114.796C103.398,114.623 103.361,114.48 103.288,114.366C103.215,114.253 103.081,114.196 102.888,114.196C102.755,114.196 102.633,114.24 102.523,114.326C102.413,114.413 102.341,114.54 102.308,114.706L101.318,114.706C101.345,114.253 101.498,113.886 101.778,113.606C101.911,113.473 102.071,113.368 102.258,113.291C102.445,113.215 102.655,113.176 102.888,113.176C103.101,113.176 103.301,113.21 103.488,113.276C103.675,113.343 103.838,113.443 103.978,113.576C104.111,113.71 104.218,113.876 104.298,114.076C104.378,114.276 104.418,114.51 104.418,114.776L104.418,118.306L103.398,118.306ZM103.398,116.126C103.285,116.106 103.191,116.096 103.118,116.096C102.898,116.096 102.71,116.148 102.553,116.251C102.396,116.355 102.318,116.543 102.318,116.816C102.318,117.01 102.365,117.166 102.458,117.286C102.551,117.406 102.681,117.466 102.848,117.466C103.021,117.466 103.156,117.41 103.253,117.296C103.35,117.183 103.398,117.023 103.398,116.816L103.398,116.126Z" style="fill:rgb(5,5,5);fill-rule:nonzero;"/>
            <path d="M105.168,118.306L105.168,113.236L106.188,113.236L106.188,113.776C106.395,113.59 106.598,113.443 106.798,113.336C106.998,113.23 107.245,113.176 107.538,113.176L107.538,114.256C107.438,114.216 107.335,114.196 107.228,114.196C107.121,114.196 107.006,114.215 106.883,114.251C106.76,114.288 106.648,114.35 106.548,114.436C106.441,114.523 106.355,114.636 106.288,114.776C106.221,114.916 106.188,115.09 106.188,115.296L106.188,118.306L105.168,118.306Z" style="fill:rgb(5,5,5);fill-rule:nonzero;"/>
            <path d="M107.948,113.236L107.948,111.696L108.968,111.696L108.968,113.236L109.598,113.236L109.598,114.036L108.968,114.036L108.968,116.846C108.968,116.966 108.98,117.06 109.003,117.126C109.026,117.193 109.065,117.243 109.118,117.276C109.171,117.31 109.236,117.33 109.313,117.336C109.39,117.343 109.485,117.346 109.598,117.346L109.598,118.306L109.178,118.306C108.945,118.306 108.75,118.27 108.593,118.196C108.436,118.123 108.311,118.03 108.218,117.916C108.125,117.803 108.056,117.675 108.013,117.531C107.97,117.388 107.948,117.25 107.948,117.116L107.948,114.036L107.438,114.036L107.438,113.236L107.948,113.236Z" style="fill:rgb(5,5,5);fill-rule:nonzero;"/>
        </g>
        <g transform="matrix(1,0,0,1,-67.1436,95.8551)">
            <text x="84.568px" y="118.306px" style="font-family:'DINCondensed-Bold', 'DIN Condensed';font-weight:700;font-stretch:condensed;font-size:10px;fill:rgb(5,5,5);">(re)start</text>
        </g>
    </g>
    <g id="Display-oled-40x40" serif:id="Display#oled$40x40" transform="matrix(0.875076,0,0,1.78637,-67.251,-68.7464)">
        <rect x="87.136" y="70.02" width="47.996" height="23.511" style="fill:rgb(19,19,19);"/>
    </g>
    <g transform="matrix(0.816456,0,0,0.816456,31.4849,-226.739)">
        <g transform="matrix(1,0,0,1,-100.189,-34.4013)">
            <path d="M79.236,352.471C79.236,352.879 79.244,353.277 79.26,353.665C79.276,354.053 79.32,354.367 79.392,354.607C79.536,354.695 79.698,354.749 79.878,354.769C80.058,354.789 80.228,354.803 80.388,354.811C80.548,354.819 80.682,354.835 80.79,354.859C80.898,354.883 80.952,354.935 80.952,355.015C80.952,355.055 80.932,355.089 80.892,355.117C80.852,355.145 80.788,355.159 80.7,355.159C80.468,355.167 80.152,355.157 79.752,355.129C79.352,355.101 78.896,355.087 78.384,355.087C77.728,355.087 77.234,355.109 76.902,355.153C76.57,355.197 76.372,355.219 76.308,355.219C76.252,355.219 76.204,355.205 76.164,355.177C76.124,355.149 76.104,355.111 76.104,355.063C76.104,354.959 76.152,354.903 76.248,354.895C76.344,354.887 76.524,354.863 76.788,354.823C76.964,354.807 77.108,354.785 77.22,354.757C77.332,354.729 77.444,354.695 77.556,354.655C77.604,354.479 77.644,354.299 77.676,354.115C77.708,353.931 77.736,353.701 77.76,353.425C77.784,353.149 77.802,352.805 77.814,352.393C77.826,351.981 77.832,351.451 77.832,350.803C77.832,350.211 77.828,349.709 77.82,349.297C77.812,348.885 77.798,348.541 77.778,348.265C77.758,347.989 77.738,347.771 77.718,347.611C77.698,347.451 77.676,347.327 77.652,347.239C77.548,347.167 77.412,347.121 77.244,347.101C77.076,347.081 76.912,347.065 76.752,347.053C76.592,347.041 76.454,347.023 76.338,346.999C76.222,346.975 76.164,346.919 76.164,346.831C76.164,346.727 76.228,346.675 76.356,346.675C76.5,346.675 76.746,346.693 77.094,346.729C77.442,346.765 77.868,346.783 78.372,346.783C78.452,346.783 78.516,346.771 78.564,346.747C78.644,346.707 78.772,346.651 78.948,346.579C79.124,346.507 79.328,346.435 79.56,346.363C79.792,346.291 80.038,346.227 80.298,346.171C80.558,346.115 80.812,346.087 81.06,346.087C81.46,346.087 81.84,346.133 82.2,346.225C82.56,346.317 82.874,346.455 83.142,346.639C83.41,346.823 83.624,347.051 83.784,347.323C83.944,347.595 84.024,347.911 84.024,348.271C84.024,348.623 83.942,348.949 83.778,349.249C83.614,349.549 83.408,349.823 83.16,350.071C82.912,350.319 82.64,350.533 82.344,350.713C82.048,350.893 81.772,351.035 81.516,351.139C81.844,351.139 82.154,351.173 82.446,351.241C82.738,351.309 83.002,351.405 83.238,351.529C83.474,351.653 83.67,351.803 83.826,351.979C83.982,352.155 84.084,352.355 84.132,352.579C84.132,352.691 84.122,352.765 84.102,352.801C84.082,352.837 84.044,352.895 83.988,352.975C84.148,353.231 84.326,353.533 84.522,353.881C84.718,354.229 84.938,354.561 85.182,354.877C85.426,355.193 85.698,355.461 85.998,355.681C86.298,355.901 86.632,356.011 87,356.011C87.072,356.011 87.154,356.007 87.246,355.999C87.338,355.991 87.426,355.975 87.51,355.951C87.594,355.927 87.672,355.891 87.744,355.843C87.816,355.795 87.868,355.731 87.9,355.651C87.932,355.627 87.964,355.615 87.996,355.615C88.036,355.615 88.062,355.635 88.074,355.675C88.086,355.715 88.096,355.755 88.104,355.795C87.944,356.155 87.548,356.335 86.916,356.335C86.596,356.335 86.29,356.283 85.998,356.179C85.706,356.075 85.426,355.937 85.158,355.765C84.89,355.593 84.634,355.395 84.39,355.171C84.146,354.947 83.916,354.715 83.7,354.475C83.54,354.299 83.354,354.079 83.142,353.815C82.93,353.551 82.704,353.281 82.464,353.005C82.224,352.729 81.974,352.469 81.714,352.225C81.454,351.981 81.196,351.791 80.94,351.655C80.82,351.599 80.684,351.557 80.532,351.529C80.38,351.501 80.234,351.481 80.094,351.469C79.954,351.457 79.824,351.451 79.704,351.451L79.428,351.451C79.38,351.451 79.34,351.453 79.308,351.457C79.276,351.461 79.252,351.463 79.236,351.463L79.236,352.471ZM79.44,347.419C79.4,347.571 79.368,347.783 79.344,348.055C79.32,348.327 79.3,348.625 79.284,348.949C79.268,349.273 79.256,349.609 79.248,349.957C79.24,350.305 79.236,350.635 79.236,350.947C79.316,351.011 79.47,351.047 79.698,351.055C79.926,351.063 80.172,351.067 80.436,351.067C80.668,351.067 80.862,351.047 81.018,351.007C81.174,350.967 81.32,350.895 81.456,350.791C81.536,350.735 81.626,350.643 81.726,350.515C81.826,350.387 81.922,350.235 82.014,350.059C82.106,349.883 82.184,349.685 82.248,349.465C82.312,349.245 82.344,349.011 82.344,348.763C82.344,348.403 82.304,348.081 82.224,347.797C82.144,347.513 82.036,347.269 81.9,347.065C81.764,346.861 81.604,346.705 81.42,346.597C81.236,346.489 81.04,346.435 80.832,346.435C80.72,346.435 80.594,346.457 80.454,346.501C80.314,346.545 80.176,346.603 80.04,346.675C79.904,346.747 79.784,346.829 79.68,346.921C79.576,347.013 79.508,347.111 79.476,347.215L79.44,347.419Z" style="fill-rule:nonzero;"/>
            <path d="M91.14,353.695C91.052,353.791 90.916,353.923 90.732,354.091C90.548,354.259 90.326,354.427 90.066,354.595C89.806,354.763 89.516,354.907 89.196,355.027C88.876,355.147 88.536,355.207 88.176,355.207C87.848,355.207 87.528,355.157 87.216,355.057C86.904,354.957 86.624,354.805 86.376,354.601C86.128,354.397 85.93,354.137 85.782,353.821C85.634,353.505 85.56,353.127 85.56,352.687C85.56,352.327 85.584,352.017 85.632,351.757C85.68,351.497 85.744,351.269 85.824,351.073C85.904,350.877 85.994,350.709 86.094,350.569C86.194,350.429 86.296,350.303 86.4,350.191C86.528,350.047 86.684,349.911 86.868,349.783C87.052,349.655 87.25,349.539 87.462,349.435C87.674,349.331 87.898,349.249 88.134,349.189C88.37,349.129 88.608,349.099 88.848,349.099C89.28,349.099 89.618,349.171 89.862,349.315C90.106,349.459 90.228,349.659 90.228,349.915C90.228,350.075 90.18,350.223 90.084,350.359C90.164,350.335 90.266,350.295 90.39,350.239C90.514,350.183 90.64,350.125 90.768,350.065C90.896,350.005 91.01,349.951 91.11,349.903C91.21,349.855 91.276,349.819 91.308,349.795C91.324,349.779 91.342,349.773 91.362,349.777C91.382,349.781 91.392,349.795 91.392,349.819C91.392,349.923 91.372,350.009 91.332,350.077C91.292,350.145 91.244,350.199 91.188,350.239C91.06,350.319 90.876,350.419 90.636,350.539C90.396,350.659 90.13,350.785 89.838,350.917C89.546,351.049 89.244,351.181 88.932,351.313C88.62,351.445 88.326,351.571 88.05,351.691C87.774,351.811 87.534,351.917 87.33,352.009C87.126,352.101 86.988,352.167 86.916,352.207C86.916,352.479 86.97,352.733 87.078,352.969C87.186,353.205 87.336,353.411 87.528,353.587C87.72,353.763 87.95,353.901 88.218,354.001C88.486,354.101 88.78,354.151 89.1,354.151C89.388,354.151 89.648,354.121 89.88,354.061C90.112,354.001 90.308,353.933 90.468,353.857C90.628,353.781 90.754,353.713 90.846,353.653C90.938,353.593 90.988,353.563 90.996,353.563C91.028,353.563 91.06,353.577 91.092,353.605C91.124,353.633 91.14,353.663 91.14,353.695ZM86.916,351.859C87.052,351.811 87.206,351.753 87.378,351.685C87.55,351.617 87.718,351.543 87.882,351.463C88.046,351.383 88.196,351.307 88.332,351.235C88.468,351.163 88.572,351.099 88.644,351.043C88.788,350.939 88.86,350.763 88.86,350.515C88.86,350.419 88.842,350.319 88.806,350.215C88.77,350.111 88.716,350.017 88.644,349.933C88.572,349.849 88.484,349.781 88.38,349.729C88.276,349.677 88.16,349.651 88.032,349.651C87.92,349.651 87.8,349.689 87.672,349.765C87.544,349.841 87.424,349.965 87.312,350.137C87.2,350.309 87.106,350.537 87.03,350.821C86.954,351.105 86.916,351.451 86.916,351.859Z" style="fill-rule:nonzero;"/>
            <path d="M102.372,354.055C102.396,354.055 102.412,354.069 102.42,354.097C102.428,354.125 102.432,354.159 102.432,354.199C102.432,354.239 102.424,354.265 102.408,354.277C102.392,354.289 102.376,354.303 102.36,354.319C102.304,354.351 102.17,354.419 101.958,354.523C101.746,354.627 101.51,354.733 101.25,354.841C100.99,354.949 100.734,355.045 100.482,355.129C100.23,355.213 100.04,355.255 99.912,355.255C99.8,355.255 99.694,355.231 99.594,355.183C99.494,355.135 99.452,355.059 99.468,354.955C99.484,354.891 99.502,354.795 99.522,354.667C99.542,354.539 99.56,354.383 99.576,354.199C99.592,353.967 99.61,353.699 99.63,353.395C99.65,353.091 99.66,352.755 99.66,352.387C99.66,351.955 99.632,351.597 99.576,351.313C99.52,351.029 99.44,350.803 99.336,350.635C99.232,350.467 99.104,350.349 98.952,350.281C98.8,350.213 98.624,350.179 98.424,350.179C98.24,350.179 98.084,350.209 97.956,350.269C97.828,350.329 97.716,350.395 97.62,350.467C97.444,350.603 97.306,350.777 97.206,350.989C97.106,351.201 97.044,351.479 97.02,351.823C97.012,351.911 97.006,351.999 97.002,352.087C96.998,352.175 96.994,352.271 96.99,352.375C96.986,352.479 96.982,352.595 96.978,352.723C96.974,352.851 96.972,353.003 96.972,353.179C96.972,353.651 97.01,353.979 97.086,354.163C97.162,354.347 97.292,354.439 97.476,354.439C97.54,354.439 97.58,354.437 97.596,354.433C97.612,354.429 97.644,354.423 97.692,354.415C97.708,354.431 97.724,354.451 97.74,354.475C97.764,354.515 97.76,354.559 97.728,354.607C97.688,354.655 97.592,354.717 97.44,354.793C97.288,354.869 97.12,354.939 96.936,355.003C96.752,355.067 96.572,355.123 96.396,355.171C96.22,355.219 96.088,355.243 96,355.243C95.888,355.243 95.786,355.229 95.694,355.201C95.602,355.173 95.556,355.139 95.556,355.099C95.556,355.051 95.572,354.995 95.604,354.931C95.628,354.891 95.652,354.795 95.676,354.643C95.7,354.491 95.722,354.295 95.742,354.055C95.762,353.815 95.78,353.537 95.796,353.221C95.812,352.905 95.82,352.563 95.82,352.195C95.82,352.003 95.81,351.791 95.79,351.559C95.77,351.327 95.72,351.109 95.64,350.905C95.56,350.701 95.442,350.529 95.286,350.389C95.13,350.249 94.916,350.179 94.644,350.179C94.484,350.179 94.34,350.201 94.212,350.245C94.084,350.289 93.976,350.343 93.888,350.407C93.712,350.543 93.562,350.711 93.438,350.911C93.314,351.111 93.232,351.395 93.192,351.763C93.176,351.931 93.16,352.105 93.144,352.285C93.128,352.465 93.12,352.671 93.12,352.903C93.12,353.207 93.128,353.459 93.144,353.659C93.16,353.859 93.188,354.017 93.228,354.133C93.268,354.249 93.316,354.329 93.372,354.373C93.428,354.417 93.5,354.439 93.588,354.439C93.676,354.439 93.736,354.431 93.768,354.415C93.808,354.399 93.836,354.423 93.852,354.487C93.868,354.551 93.864,354.591 93.84,354.607C93.808,354.639 93.724,354.689 93.588,354.757C93.452,354.825 93.296,354.895 93.12,354.967C92.944,355.039 92.764,355.103 92.58,355.159C92.396,355.215 92.24,355.243 92.112,355.243C91.976,355.243 91.87,355.227 91.794,355.195C91.718,355.163 91.68,355.127 91.68,355.087C91.68,355.079 91.688,355.053 91.704,355.009C91.72,354.965 91.732,354.927 91.74,354.895C91.772,354.647 91.802,354.417 91.83,354.205C91.858,353.993 91.878,353.763 91.89,353.515C91.902,353.267 91.912,352.983 91.92,352.663C91.928,352.343 91.932,351.955 91.932,351.499C91.932,351.059 91.862,350.735 91.722,350.527C91.582,350.319 91.436,350.215 91.284,350.215C91.22,350.215 91.166,350.221 91.122,350.233C91.078,350.245 91.036,350.255 90.996,350.263C90.948,350.271 90.924,350.247 90.924,350.191L90.924,350.107C90.932,350.099 91.012,350.043 91.164,349.939C91.316,349.835 91.496,349.723 91.704,349.603C91.912,349.483 92.128,349.373 92.352,349.273C92.576,349.173 92.76,349.123 92.904,349.123C93,349.123 93.082,349.151 93.15,349.207C93.218,349.263 93.252,349.367 93.252,349.519C93.252,349.591 93.25,349.671 93.246,349.759C93.242,349.847 93.238,349.939 93.234,350.035C93.23,350.131 93.224,350.225 93.216,350.317C93.208,350.409 93.204,350.487 93.204,350.551C93.316,350.447 93.458,350.311 93.63,350.143C93.802,349.975 93.996,349.815 94.212,349.663C94.428,349.511 94.662,349.379 94.914,349.267C95.166,349.155 95.432,349.099 95.712,349.099C96.08,349.099 96.38,349.207 96.612,349.423C96.844,349.639 96.968,350.015 96.984,350.551C97.112,350.431 97.268,350.287 97.452,350.119C97.636,349.951 97.842,349.791 98.07,349.639C98.298,349.487 98.54,349.359 98.796,349.255C99.052,349.151 99.312,349.099 99.576,349.099C100.504,349.099 100.968,349.591 100.968,350.575C100.968,350.735 100.96,350.919 100.944,351.127C100.928,351.335 100.908,351.553 100.884,351.781C100.86,352.009 100.84,352.235 100.824,352.459C100.808,352.683 100.8,352.887 100.8,353.071C100.8,353.903 101.02,354.319 101.46,354.319C101.532,354.319 101.612,354.309 101.7,354.289C101.788,354.269 101.876,354.245 101.964,354.217C102.052,354.189 102.132,354.161 102.204,354.133C102.276,354.105 102.328,354.079 102.36,354.055L102.372,354.055Z" style="fill-rule:nonzero;"/>
            <path d="M107.076,354.139C106.988,354.211 106.868,354.307 106.716,354.427C106.564,354.547 106.388,354.667 106.188,354.787C105.988,354.907 105.768,355.009 105.528,355.093C105.288,355.177 105.036,355.219 104.772,355.219C104.372,355.219 104.016,355.149 103.704,355.009C103.392,354.869 103.13,354.681 102.918,354.445C102.706,354.209 102.546,353.931 102.438,353.611C102.33,353.291 102.276,352.951 102.276,352.591C102.276,352.167 102.34,351.791 102.468,351.463C102.596,351.135 102.754,350.849 102.942,350.605C103.13,350.361 103.332,350.157 103.548,349.993C103.764,349.829 103.96,349.699 104.136,349.603C104.216,349.555 104.318,349.503 104.442,349.447C104.566,349.391 104.702,349.339 104.85,349.291C104.998,349.243 105.158,349.201 105.33,349.165C105.502,349.129 105.68,349.111 105.864,349.111C106.208,349.111 106.542,349.155 106.866,349.243C107.19,349.331 107.476,349.469 107.724,349.657C107.972,349.845 108.172,350.087 108.324,350.383C108.476,350.679 108.552,351.035 108.552,351.451C108.552,351.787 108.49,352.103 108.366,352.399C108.242,352.695 108.096,352.959 107.928,353.191C107.76,353.423 107.594,353.621 107.43,353.785C107.266,353.949 107.148,354.067 107.076,354.139ZM105.72,354.331C106.176,354.331 106.526,354.159 106.77,353.815C107.014,353.471 107.136,352.943 107.136,352.231C107.136,351.871 107.086,351.537 106.986,351.229C106.886,350.921 106.746,350.651 106.566,350.419C106.386,350.187 106.176,350.005 105.936,349.873C105.696,349.741 105.436,349.675 105.156,349.675C104.956,349.675 104.766,349.727 104.586,349.831C104.406,349.935 104.248,350.085 104.112,350.281C103.976,350.477 103.868,350.715 103.788,350.995C103.708,351.275 103.668,351.591 103.668,351.943C103.668,352.319 103.726,352.655 103.842,352.951C103.958,353.247 104.112,353.497 104.304,353.701C104.496,353.905 104.714,354.061 104.958,354.169C105.202,354.277 105.456,354.331 105.72,354.331Z" style="fill-rule:nonzero;"/>
            <path d="M114.852,353.431C114.868,353.415 114.882,353.417 114.894,353.437C114.906,353.457 114.914,353.485 114.918,353.521C114.922,353.557 114.92,353.595 114.912,353.635C114.904,353.675 114.888,353.707 114.864,353.731C114.704,353.883 114.504,354.043 114.264,354.211C114.024,354.379 113.776,354.535 113.52,354.679C113.448,354.719 113.348,354.771 113.22,354.835C113.092,354.899 112.95,354.961 112.794,355.021C112.638,355.081 112.478,355.133 112.314,355.177C112.15,355.221 111.996,355.243 111.852,355.243C111.564,355.243 111.292,355.187 111.036,355.075C110.78,354.963 110.556,354.809 110.364,354.613C110.172,354.417 110.022,354.183 109.914,353.911C109.806,353.639 109.752,353.343 109.752,353.023C109.752,352.679 109.8,352.355 109.896,352.051C109.992,351.747 110.102,351.475 110.226,351.235C110.35,350.995 110.468,350.793 110.58,350.629C110.692,350.465 110.768,350.343 110.808,350.263C110.656,350.255 110.518,350.249 110.394,350.245C110.27,350.241 110.152,350.239 110.04,350.239C109.784,350.239 109.568,350.241 109.392,350.245C109.216,350.249 109.06,350.267 108.924,350.299C108.86,350.315 108.8,350.347 108.744,350.395C108.688,350.443 108.64,350.479 108.6,350.503C108.584,350.487 108.562,350.465 108.534,350.437C108.506,350.409 108.492,350.379 108.492,350.347C108.492,350.331 108.496,350.319 108.504,350.311C108.504,350.303 108.556,350.257 108.66,350.173C108.764,350.089 108.894,349.989 109.05,349.873C109.206,349.757 109.378,349.629 109.566,349.489C109.754,349.349 109.934,349.219 110.106,349.099C110.278,348.979 110.426,348.877 110.55,348.793C110.674,348.709 110.756,348.659 110.796,348.643C110.844,348.627 110.892,348.635 110.94,348.667C110.988,348.699 111.004,348.723 110.988,348.739C110.964,348.755 110.928,348.785 110.88,348.829C110.832,348.873 110.816,348.911 110.832,348.943C110.92,349.015 111.072,349.079 111.288,349.135C111.504,349.191 111.748,349.237 112.02,349.273C112.292,349.309 112.572,349.337 112.86,349.357C113.148,349.377 113.408,349.387 113.64,349.387C113.984,349.387 114.26,349.377 114.468,349.357C114.676,349.337 114.848,349.311 114.984,349.279C115.112,349.247 115.196,349.223 115.236,349.207C115.244,349.207 115.26,349.219 115.284,349.243C115.308,349.267 115.32,349.295 115.32,349.327C115.32,349.343 115.262,349.383 115.146,349.447C115.03,349.511 114.912,349.579 114.792,349.651C114.72,349.691 114.634,349.743 114.534,349.807C114.434,349.871 114.326,349.933 114.21,349.993C114.094,350.053 113.972,350.107 113.844,350.155C113.716,350.203 113.592,350.231 113.472,350.239C113.352,350.255 113.212,350.267 113.052,350.275C112.892,350.283 112.724,350.289 112.548,350.293C112.372,350.297 112.194,350.301 112.014,350.305C111.834,350.309 111.668,350.311 111.516,350.311C111.492,350.351 111.454,350.417 111.402,350.509C111.35,350.601 111.3,350.719 111.252,350.863C111.204,351.007 111.16,351.171 111.12,351.355C111.08,351.539 111.06,351.739 111.06,351.955C111.06,352.283 111.11,352.585 111.21,352.861C111.31,353.137 111.45,353.375 111.63,353.575C111.81,353.775 112.024,353.931 112.272,354.043C112.52,354.155 112.788,354.211 113.076,354.211C113.244,354.211 113.406,354.191 113.562,354.151C113.718,354.111 113.866,354.059 114.006,353.995C114.146,353.931 114.276,353.861 114.396,353.785C114.516,353.709 114.62,353.635 114.708,353.563L114.852,353.431Z" style="fill-rule:nonzero;"/>
            <path d="M120.384,353.695C120.296,353.791 120.16,353.923 119.976,354.091C119.792,354.259 119.57,354.427 119.31,354.595C119.05,354.763 118.76,354.907 118.44,355.027C118.12,355.147 117.78,355.207 117.42,355.207C117.092,355.207 116.772,355.157 116.46,355.057C116.148,354.957 115.868,354.805 115.62,354.601C115.372,354.397 115.174,354.137 115.026,353.821C114.878,353.505 114.804,353.127 114.804,352.687C114.804,352.327 114.828,352.017 114.876,351.757C114.924,351.497 114.988,351.269 115.068,351.073C115.148,350.877 115.238,350.709 115.338,350.569C115.438,350.429 115.54,350.303 115.644,350.191C115.772,350.047 115.928,349.911 116.112,349.783C116.296,349.655 116.494,349.539 116.706,349.435C116.918,349.331 117.142,349.249 117.378,349.189C117.614,349.129 117.852,349.099 118.092,349.099C118.524,349.099 118.862,349.171 119.106,349.315C119.35,349.459 119.472,349.659 119.472,349.915C119.472,350.075 119.424,350.223 119.328,350.359C119.408,350.335 119.51,350.295 119.634,350.239C119.758,350.183 119.884,350.125 120.012,350.065C120.14,350.005 120.254,349.951 120.354,349.903C120.454,349.855 120.52,349.819 120.552,349.795C120.568,349.779 120.586,349.773 120.606,349.777C120.626,349.781 120.636,349.795 120.636,349.819C120.636,349.923 120.616,350.009 120.576,350.077C120.536,350.145 120.488,350.199 120.432,350.239C120.304,350.319 120.12,350.419 119.88,350.539C119.64,350.659 119.374,350.785 119.082,350.917C118.79,351.049 118.488,351.181 118.176,351.313C117.864,351.445 117.57,351.571 117.294,351.691C117.018,351.811 116.778,351.917 116.574,352.009C116.37,352.101 116.232,352.167 116.16,352.207C116.16,352.479 116.214,352.733 116.322,352.969C116.43,353.205 116.58,353.411 116.772,353.587C116.964,353.763 117.194,353.901 117.462,354.001C117.73,354.101 118.024,354.151 118.344,354.151C118.632,354.151 118.892,354.121 119.124,354.061C119.356,354.001 119.552,353.933 119.712,353.857C119.872,353.781 119.998,353.713 120.09,353.653C120.182,353.593 120.232,353.563 120.24,353.563C120.272,353.563 120.304,353.577 120.336,353.605C120.368,353.633 120.384,353.663 120.384,353.695ZM116.16,351.859C116.296,351.811 116.45,351.753 116.622,351.685C116.794,351.617 116.962,351.543 117.126,351.463C117.29,351.383 117.44,351.307 117.576,351.235C117.712,351.163 117.816,351.099 117.888,351.043C118.032,350.939 118.104,350.763 118.104,350.515C118.104,350.419 118.086,350.319 118.05,350.215C118.014,350.111 117.96,350.017 117.888,349.933C117.816,349.849 117.728,349.781 117.624,349.729C117.52,349.677 117.404,349.651 117.276,349.651C117.164,349.651 117.044,349.689 116.916,349.765C116.788,349.841 116.668,349.965 116.556,350.137C116.444,350.309 116.35,350.537 116.274,350.821C116.198,351.105 116.16,351.451 116.16,351.859Z" style="fill-rule:nonzero;"/>
            <path d="M81.384,364.123C81.368,364.123 81.352,364.121 81.336,364.117C81.32,364.113 81.308,364.099 81.3,364.075C81.3,364.067 81.31,364.039 81.33,363.991C81.35,363.943 81.384,363.891 81.432,363.835C81.48,363.779 81.54,363.729 81.612,363.685C81.684,363.641 81.772,363.619 81.876,363.619C82.004,363.619 82.108,363.653 82.188,363.721C82.268,363.789 82.332,363.883 82.38,364.003C82.428,364.123 82.46,364.261 82.476,364.417C82.492,364.573 82.5,364.739 82.5,364.915C82.524,365.107 82.614,365.303 82.77,365.503C82.926,365.703 83.118,365.883 83.346,366.043C83.574,366.203 83.824,366.335 84.096,366.439C84.368,366.543 84.632,366.599 84.888,366.607C85.496,366.623 85.94,366.493 86.22,366.217C86.5,365.941 86.64,365.587 86.64,365.155C86.64,364.795 86.572,364.503 86.436,364.279C86.3,364.055 86.118,363.875 85.89,363.739C85.662,363.603 85.404,363.493 85.116,363.409C84.828,363.325 84.534,363.247 84.234,363.175C83.934,363.103 83.64,363.023 83.352,362.935C83.064,362.847 82.806,362.727 82.578,362.575C82.35,362.423 82.168,362.225 82.032,361.981C81.896,361.737 81.828,361.423 81.828,361.039C81.828,360.671 81.91,360.321 82.074,359.989C82.238,359.657 82.472,359.365 82.776,359.113C83.08,358.861 83.45,358.661 83.886,358.513C84.322,358.365 84.816,358.291 85.368,358.291C85.896,358.291 86.348,358.343 86.724,358.447C87.1,358.551 87.388,358.631 87.588,358.687C87.628,358.623 87.672,358.549 87.72,358.465C87.768,358.381 87.822,358.303 87.882,358.231C87.942,358.159 88.008,358.097 88.08,358.045C88.152,357.993 88.236,357.967 88.332,357.967C88.404,357.967 88.462,357.989 88.506,358.033C88.55,358.077 88.572,358.119 88.572,358.159C88.556,358.199 88.524,358.231 88.476,358.255C88.428,358.279 88.384,358.303 88.344,358.327C88.096,358.455 87.89,358.753 87.726,359.221C87.562,359.689 87.468,360.263 87.444,360.943C87.436,360.959 87.416,360.971 87.384,360.979C87.352,360.987 87.316,360.991 87.276,360.991C87.212,360.991 87.168,360.987 87.144,360.979C87.12,360.739 87.048,360.495 86.928,360.247C86.808,359.999 86.642,359.773 86.43,359.569C86.218,359.365 85.958,359.199 85.65,359.071C85.342,358.943 84.992,358.879 84.6,358.879C84.36,358.879 84.144,358.913 83.952,358.981C83.76,359.049 83.598,359.141 83.466,359.257C83.334,359.373 83.234,359.503 83.166,359.647C83.098,359.791 83.064,359.935 83.064,360.079C83.064,360.415 83.2,360.721 83.472,360.997C83.744,361.273 84.156,361.479 84.708,361.615C85.052,361.703 85.41,361.801 85.782,361.909C86.154,362.017 86.492,362.163 86.796,362.347C87.1,362.531 87.352,362.763 87.552,363.043C87.752,363.323 87.852,363.679 87.852,364.111C87.852,364.535 87.754,364.941 87.558,365.329C87.362,365.717 87.104,366.059 86.784,366.355C86.464,366.651 86.1,366.887 85.692,367.063C85.284,367.239 84.868,367.327 84.444,367.327C84.116,367.327 83.796,367.305 83.484,367.261C83.172,367.217 82.884,367.165 82.62,367.105C82.356,367.045 82.124,366.981 81.924,366.913C81.724,366.845 81.576,366.787 81.48,366.739C81.552,366.611 81.626,366.475 81.702,366.331C81.778,366.187 81.85,366.035 81.918,365.875C81.986,365.715 82.042,365.549 82.086,365.377C82.13,365.205 82.152,365.023 82.152,364.831C82.152,364.551 82.11,364.339 82.026,364.195C81.942,364.051 81.844,363.979 81.732,363.979C81.652,363.979 81.596,363.995 81.564,364.027C81.532,364.059 81.492,364.107 81.444,364.171L81.384,364.123Z" style="fill-rule:nonzero;"/>
            <path d="M93.648,361.651C93.632,361.699 93.586,361.773 93.51,361.873C93.434,361.973 93.344,362.077 93.24,362.185C93.136,362.293 93.026,362.397 92.91,362.497C92.794,362.597 92.692,362.671 92.604,362.719C92.548,362.743 92.514,362.735 92.502,362.695C92.49,362.655 92.484,362.615 92.484,362.575C92.484,362.511 92.45,362.431 92.382,362.335C92.314,362.239 92.218,362.145 92.094,362.053C91.97,361.961 91.824,361.883 91.656,361.819C91.488,361.755 91.304,361.723 91.104,361.723C90.76,361.723 90.48,361.909 90.264,362.281C90.048,362.653 89.94,363.147 89.94,363.763C89.94,364.139 89.998,364.477 90.114,364.777C90.23,365.077 90.39,365.329 90.594,365.533C90.798,365.737 91.044,365.893 91.332,366.001C91.62,366.109 91.932,366.163 92.268,366.163C92.724,366.163 93.088,366.105 93.36,365.989C93.632,365.873 93.856,365.739 94.032,365.587C94.04,365.587 94.046,365.583 94.05,365.575C94.054,365.567 94.06,365.563 94.068,365.563C94.108,365.563 94.136,365.577 94.152,365.605C94.168,365.633 94.176,365.667 94.176,365.707C94.176,365.739 94.168,365.763 94.152,365.779C94.032,365.875 93.866,366.003 93.654,366.163C93.442,366.323 93.2,366.481 92.928,366.637C92.656,366.793 92.372,366.927 92.076,367.039C91.78,367.151 91.488,367.207 91.2,367.207C90.376,367.207 89.734,366.967 89.274,366.487C88.814,366.007 88.584,365.351 88.584,364.519C88.584,363.887 88.706,363.355 88.95,362.923C89.194,362.491 89.494,362.145 89.85,361.885C90.206,361.625 90.584,361.439 90.984,361.327C91.384,361.215 91.736,361.159 92.04,361.159C92.288,361.159 92.51,361.177 92.706,361.213C92.902,361.249 93.07,361.293 93.21,361.345C93.35,361.397 93.458,361.451 93.534,361.507C93.61,361.563 93.648,361.611 93.648,361.651Z" style="fill-rule:nonzero;"/>
            <path d="M99.528,361.999C99.44,362.071 99.336,362.161 99.216,362.269C99.096,362.377 98.97,362.481 98.838,362.581C98.706,362.681 98.572,362.767 98.436,362.839C98.3,362.911 98.168,362.947 98.04,362.947C97.928,362.947 97.828,362.921 97.74,362.869C97.652,362.817 97.57,362.761 97.494,362.701C97.418,362.641 97.344,362.585 97.272,362.533C97.2,362.481 97.124,362.455 97.044,362.455C96.828,362.455 96.646,362.543 96.498,362.719C96.35,362.895 96.23,363.119 96.138,363.391C96.046,363.663 95.978,363.959 95.934,364.279C95.89,364.599 95.868,364.907 95.868,365.203C95.868,365.451 95.878,365.653 95.898,365.809C95.918,365.965 95.948,366.089 95.988,366.181C96.028,366.273 96.082,366.335 96.15,366.367C96.218,366.399 96.3,366.415 96.396,366.415C96.5,366.415 96.612,366.399 96.732,366.367C96.756,366.359 96.774,366.375 96.786,366.415C96.798,366.455 96.804,366.487 96.804,366.511C96.804,366.527 96.792,366.545 96.768,366.565C96.744,366.585 96.728,366.595 96.72,366.595C96.544,366.667 96.364,366.745 96.18,366.829C95.996,366.913 95.844,366.983 95.724,367.039C95.612,367.087 95.478,367.139 95.322,367.195C95.166,367.251 95.032,367.279 94.92,367.279C94.792,367.279 94.686,367.259 94.602,367.219C94.518,367.179 94.476,367.139 94.476,367.099C94.476,367.059 94.486,367.023 94.506,366.991C94.526,366.959 94.544,366.899 94.56,366.811C94.576,366.691 94.594,366.549 94.614,366.385C94.634,366.221 94.654,366.043 94.674,365.851C94.694,365.659 94.71,365.461 94.722,365.257C94.734,365.053 94.74,364.851 94.74,364.651C94.74,364.203 94.726,363.823 94.698,363.511C94.67,363.199 94.62,362.947 94.548,362.755C94.476,362.563 94.378,362.425 94.254,362.341C94.13,362.257 93.972,362.215 93.78,362.215L93.672,362.215C93.64,362.215 93.608,362.219 93.576,362.227C93.528,362.227 93.504,362.203 93.504,362.155C93.504,362.107 93.528,362.071 93.576,362.047C93.664,361.991 93.8,361.909 93.984,361.801C94.168,361.693 94.358,361.589 94.554,361.489C94.75,361.389 94.94,361.299 95.124,361.219C95.308,361.139 95.444,361.099 95.532,361.099C95.636,361.099 95.724,361.133 95.796,361.201C95.868,361.269 95.922,361.355 95.958,361.459C95.994,361.563 96.02,361.681 96.036,361.813C96.052,361.945 96.06,362.075 96.06,362.203C96.06,362.299 96.058,362.399 96.054,362.503C96.05,362.607 96.048,362.719 96.048,362.839C96.408,362.311 96.732,361.901 97.02,361.609C97.308,361.317 97.58,361.171 97.836,361.171C97.932,361.171 98.026,361.211 98.118,361.291C98.21,361.371 98.308,361.461 98.412,361.561C98.516,361.661 98.624,361.751 98.736,361.831C98.848,361.911 98.964,361.951 99.084,361.951C99.188,361.951 99.264,361.939 99.312,361.915C99.36,361.891 99.4,361.871 99.432,361.855C99.496,361.855 99.528,361.899 99.528,361.987L99.528,361.999Z" style="fill-rule:nonzero;"/>
            <path d="M101.184,365.011C101.184,365.179 101.188,365.341 101.196,365.497C101.204,365.653 101.232,365.787 101.28,365.899C101.328,366.011 101.4,366.101 101.496,366.169C101.592,366.237 101.728,366.271 101.904,366.271C101.992,366.271 102.092,366.261 102.204,366.241C102.316,366.221 102.422,366.195 102.522,366.163C102.622,366.131 102.71,366.099 102.786,366.067C102.862,366.035 102.908,366.011 102.924,365.995C102.948,365.971 102.964,365.971 102.972,365.995C102.98,366.019 102.982,366.049 102.978,366.085C102.974,366.121 102.964,366.157 102.948,366.193C102.932,366.229 102.912,366.255 102.888,366.271C102.808,366.311 102.668,366.383 102.468,366.487C102.268,366.591 102.032,366.699 101.76,366.811C101.504,366.923 101.254,367.017 101.01,367.093C100.766,367.169 100.564,367.207 100.404,367.207C100.22,367.207 100.076,367.151 99.972,367.039C99.868,366.927 99.816,366.787 99.816,366.619C99.816,366.563 99.818,366.515 99.822,366.475C99.826,366.435 99.832,366.383 99.84,366.319C99.848,366.239 99.862,366.093 99.882,365.881C99.902,365.669 99.922,365.431 99.942,365.167C99.962,364.903 99.98,364.637 99.996,364.369C100.012,364.101 100.02,363.871 100.02,363.679L100.02,363.259C100.02,363.051 100.008,362.867 99.984,362.707C99.96,362.547 99.92,362.423 99.864,362.335C99.824,362.279 99.774,362.233 99.714,362.197C99.654,362.161 99.58,362.143 99.492,362.143C99.444,362.143 99.396,362.153 99.348,362.173C99.3,362.193 99.264,362.203 99.24,362.203C99.224,362.203 99.198,362.179 99.162,362.131C99.126,362.083 99.128,362.047 99.168,362.023C99.224,361.983 99.34,361.919 99.516,361.831C99.692,361.743 99.884,361.647 100.092,361.543C100.316,361.431 100.532,361.333 100.74,361.249C100.948,361.165 101.096,361.123 101.184,361.123C101.272,361.123 101.332,361.149 101.364,361.201C101.396,361.253 101.412,361.311 101.412,361.375L101.412,361.423C101.412,361.503 101.4,361.631 101.376,361.807C101.352,361.983 101.326,362.199 101.298,362.455C101.27,362.711 101.244,363.007 101.22,363.343C101.196,363.679 101.184,364.043 101.184,364.435L101.184,365.011ZM100.704,358.771C100.744,358.779 100.81,358.823 100.902,358.903C100.994,358.983 101.088,359.075 101.184,359.179C101.28,359.283 101.364,359.383 101.436,359.479C101.508,359.575 101.544,359.639 101.544,359.671C101.544,359.711 101.496,359.771 101.4,359.851C101.304,359.931 101.194,360.013 101.07,360.097C100.946,360.181 100.826,360.255 100.71,360.319C100.594,360.383 100.512,360.415 100.464,360.415C100.44,360.415 100.382,360.377 100.29,360.301C100.198,360.225 100.104,360.139 100.008,360.043C99.912,359.947 99.826,359.853 99.75,359.761C99.674,359.669 99.636,359.607 99.636,359.575C99.636,359.535 99.688,359.473 99.792,359.389C99.896,359.305 100.01,359.217 100.134,359.125C100.258,359.033 100.378,358.953 100.494,358.885C100.61,358.817 100.68,358.779 100.704,358.771Z" style="fill-rule:nonzero;"/>
            <path d="M107.148,366.547C106.892,366.707 106.576,366.851 106.2,366.979C105.824,367.107 105.46,367.171 105.108,367.171C104.996,367.171 104.87,367.163 104.73,367.147C104.59,367.131 104.476,367.115 104.388,367.099C104.38,367.251 104.374,367.407 104.37,367.567C104.366,367.727 104.362,367.881 104.358,368.029C104.354,368.177 104.35,368.315 104.346,368.443C104.342,368.571 104.34,368.679 104.34,368.767C104.34,369.175 104.374,369.451 104.442,369.595C104.51,369.739 104.616,369.811 104.76,369.811C104.832,369.811 104.93,369.801 105.054,369.781C105.178,369.761 105.288,369.727 105.384,369.679C105.4,369.663 105.418,369.679 105.438,369.727C105.458,369.775 105.468,369.819 105.468,369.859C105.468,369.867 105.412,369.889 105.3,369.925C105.188,369.961 105.046,370.005 104.874,370.057C104.702,370.109 104.516,370.165 104.316,370.225C104.116,370.285 103.924,370.341 103.74,370.393C103.556,370.445 103.398,370.487 103.266,370.519C103.134,370.551 103.052,370.567 103.02,370.567C102.972,370.567 102.928,370.563 102.888,370.555C102.848,370.547 102.828,370.511 102.828,370.447C102.828,370.407 102.842,370.381 102.87,370.369C102.898,370.357 102.92,370.339 102.936,370.315C102.976,370.267 103,370.177 103.008,370.045C103.016,369.913 103.028,369.783 103.044,369.655C103.068,369.343 103.094,368.973 103.122,368.545C103.15,368.117 103.176,367.669 103.2,367.201C103.224,366.733 103.246,366.265 103.266,365.797C103.286,365.329 103.296,364.903 103.296,364.519C103.296,363.975 103.274,363.549 103.23,363.241C103.186,362.933 103.124,362.705 103.044,362.557C102.964,362.409 102.874,362.317 102.774,362.281C102.674,362.245 102.568,362.227 102.456,362.227C102.432,362.227 102.398,362.229 102.354,362.233C102.31,362.237 102.268,362.239 102.228,362.239C102.196,362.239 102.18,362.211 102.18,362.155C102.18,362.115 102.182,362.089 102.186,362.077C102.19,362.065 102.208,362.051 102.24,362.035C102.28,362.011 102.354,361.971 102.462,361.915C102.57,361.859 102.694,361.797 102.834,361.729C102.974,361.661 103.124,361.589 103.284,361.513C103.444,361.437 103.594,361.369 103.734,361.309C103.874,361.249 103.996,361.199 104.1,361.159C104.204,361.119 104.276,361.099 104.316,361.099C104.436,361.099 104.518,361.151 104.562,361.255C104.606,361.359 104.632,361.499 104.64,361.675C104.64,361.747 104.638,361.861 104.634,362.017C104.63,362.173 104.624,362.351 104.616,362.551C104.72,362.439 104.862,362.301 105.042,362.137C105.222,361.973 105.426,361.815 105.654,361.663C105.882,361.511 106.122,361.381 106.374,361.273C106.626,361.165 106.872,361.111 107.112,361.111C107.456,361.111 107.762,361.173 108.03,361.297C108.298,361.421 108.52,361.585 108.696,361.789C108.872,361.993 109.006,362.225 109.098,362.485C109.19,362.745 109.236,363.011 109.236,363.283C109.236,363.667 109.178,364.021 109.062,364.345C108.946,364.669 108.804,364.957 108.636,365.209C108.468,365.461 108.284,365.679 108.084,365.863C107.884,366.047 107.7,366.191 107.532,366.295L107.148,366.547ZM104.448,365.623C104.472,365.711 104.536,365.801 104.64,365.893C104.744,365.985 104.878,366.069 105.042,366.145C105.206,366.221 105.394,366.285 105.606,366.337C105.818,366.389 106.044,366.415 106.284,366.415C106.5,366.415 106.706,366.373 106.902,366.289C107.098,366.205 107.268,366.073 107.412,365.893C107.556,365.713 107.67,365.479 107.754,365.191C107.838,364.903 107.88,364.555 107.88,364.147C107.88,363.859 107.84,363.587 107.76,363.331C107.68,363.075 107.564,362.851 107.412,362.659C107.26,362.467 107.08,362.317 106.872,362.209C106.664,362.101 106.436,362.047 106.188,362.047C106.06,362.047 105.918,362.075 105.762,362.131C105.606,362.187 105.456,362.263 105.312,362.359C105.168,362.455 105.034,362.567 104.91,362.695C104.786,362.823 104.696,362.959 104.64,363.103C104.6,363.199 104.566,363.349 104.538,363.553C104.51,363.757 104.49,363.981 104.478,364.225C104.466,364.469 104.458,364.715 104.454,364.963C104.45,365.211 104.448,365.431 104.448,365.623Z" style="fill-rule:nonzero;"/>
            <path d="M115.404,365.431C115.42,365.415 115.434,365.417 115.446,365.437C115.458,365.457 115.466,365.485 115.47,365.521C115.474,365.557 115.472,365.595 115.464,365.635C115.456,365.675 115.44,365.707 115.416,365.731C115.256,365.883 115.056,366.043 114.816,366.211C114.576,366.379 114.328,366.535 114.072,366.679C114,366.719 113.9,366.771 113.772,366.835C113.644,366.899 113.502,366.961 113.346,367.021C113.19,367.081 113.03,367.133 112.866,367.177C112.702,367.221 112.548,367.243 112.404,367.243C112.116,367.243 111.844,367.187 111.588,367.075C111.332,366.963 111.108,366.809 110.916,366.613C110.724,366.417 110.574,366.183 110.466,365.911C110.358,365.639 110.304,365.343 110.304,365.023C110.304,364.679 110.352,364.355 110.448,364.051C110.544,363.747 110.654,363.475 110.778,363.235C110.902,362.995 111.02,362.793 111.132,362.629C111.244,362.465 111.32,362.343 111.36,362.263C111.208,362.255 111.07,362.249 110.946,362.245C110.822,362.241 110.704,362.239 110.592,362.239C110.336,362.239 110.12,362.241 109.944,362.245C109.768,362.249 109.612,362.267 109.476,362.299C109.412,362.315 109.352,362.347 109.296,362.395C109.24,362.443 109.192,362.479 109.152,362.503C109.136,362.487 109.114,362.465 109.086,362.437C109.058,362.409 109.044,362.379 109.044,362.347C109.044,362.331 109.048,362.319 109.056,362.311C109.056,362.303 109.108,362.257 109.212,362.173C109.316,362.089 109.446,361.989 109.602,361.873C109.758,361.757 109.93,361.629 110.118,361.489C110.306,361.349 110.486,361.219 110.658,361.099C110.83,360.979 110.978,360.877 111.102,360.793C111.226,360.709 111.308,360.659 111.348,360.643C111.396,360.627 111.444,360.635 111.492,360.667C111.54,360.699 111.556,360.723 111.54,360.739C111.516,360.755 111.48,360.785 111.432,360.829C111.384,360.873 111.368,360.911 111.384,360.943C111.472,361.015 111.624,361.079 111.84,361.135C112.056,361.191 112.3,361.237 112.572,361.273C112.844,361.309 113.124,361.337 113.412,361.357C113.7,361.377 113.96,361.387 114.192,361.387C114.536,361.387 114.812,361.377 115.02,361.357C115.228,361.337 115.4,361.311 115.536,361.279C115.664,361.247 115.748,361.223 115.788,361.207C115.796,361.207 115.812,361.219 115.836,361.243C115.86,361.267 115.872,361.295 115.872,361.327C115.872,361.343 115.814,361.383 115.698,361.447C115.582,361.511 115.464,361.579 115.344,361.651C115.272,361.691 115.186,361.743 115.086,361.807C114.986,361.871 114.878,361.933 114.762,361.993C114.646,362.053 114.524,362.107 114.396,362.155C114.268,362.203 114.144,362.231 114.024,362.239C113.904,362.255 113.764,362.267 113.604,362.275C113.444,362.283 113.276,362.289 113.1,362.293C112.924,362.297 112.746,362.301 112.566,362.305C112.386,362.309 112.22,362.311 112.068,362.311C112.044,362.351 112.006,362.417 111.954,362.509C111.902,362.601 111.852,362.719 111.804,362.863C111.756,363.007 111.712,363.171 111.672,363.355C111.632,363.539 111.612,363.739 111.612,363.955C111.612,364.283 111.662,364.585 111.762,364.861C111.862,365.137 112.002,365.375 112.182,365.575C112.362,365.775 112.576,365.931 112.824,366.043C113.072,366.155 113.34,366.211 113.628,366.211C113.796,366.211 113.958,366.191 114.114,366.151C114.27,366.111 114.418,366.059 114.558,365.995C114.698,365.931 114.828,365.861 114.948,365.785C115.068,365.709 115.172,365.635 115.26,365.563L115.404,365.431Z" style="fill-rule:nonzero;"/>
        </g>
        <g transform="matrix(1,0,0,1,-100.189,-34.4013)">
            <text x="76.188px" y="355.099px" style="font-family:'Luminari-Regular', 'Luminari';font-size:12px;">Remote</text>
            <text x="81.204px" y="367.099px" style="font-family:'Luminari-Regular', 'Luminari';font-size:12px;">Script</text>
        </g>
        <g transform="matrix(0.0219124,0,0,0.0248558,-13.0381,285.934)">
            <g transform="matrix(1,0,0,1,-143.343,98.6554)">
                <ellipse cx="360.896" cy="293.762" rx="136.961" ry="230.443" style="fill:rgb(102,126,153);stroke:black;stroke-width:63.81px;"/>
            </g>
            <g transform="matrix(1,0,0,1,445.551,98.6554)">
                <ellipse cx="360.896" cy="293.762" rx="136.961" ry="230.443" style="fill:rgb(102,126,153);stroke:black;stroke-width:63.81px;"/>
            </g>
            <g transform="matrix(1,0,0,1,-34.3236,-20.6488)">
                <ellipse cx="546.324" cy="643.509" rx="431.408" ry="296.899" style="fill:rgb(102,126,153);stroke:black;stroke-width:63.81px;"/>
            </g>
            <circle cx="406.664" cy="569.758" r="105.336" style="fill:rgb(102,126,153);stroke:black;stroke-width:63.81px;"/>
            <g transform="matrix(1,0,0,1,210.672,0)">
                <circle cx="406.664" cy="569.758" r="105.336" style="fill:rgb(102,126,153);stroke:black;stroke-width:63.81px;"/>
            </g>
            <g transform="matrix(1,0,0,1,-53.1856,50.0357)">
                <ellipse cx="565.186" cy="671.455" rx="210.672" ry="98.631" style="fill:rgb(102,126,153);stroke:black;stroke-width:63.81px;"/>
            </g>
            <g transform="matrix(51.2,0,0,45.1371,0.670978,88.9676)">
                <path d="M12.057,13.791C12.057,13.668 11.958,13.568 11.835,13.568L8.139,13.568C8.016,13.568 7.916,13.668 7.916,13.791L7.916,14.236C7.916,14.359 8.016,14.458 8.139,14.458L11.835,14.458C11.958,14.458 12.057,14.359 12.057,14.236L12.057,13.791Z"/>
            </g>
        </g>
    </g>
</svg>
