<?xml version="1.0" encoding="UTF-8" standalone="no"?>
<!DOCTYPE svg PUBLIC "-//W3C//DTD SVG 1.1//EN" "http://www.w3.org/Graphics/SVG/1.1/DTD/svg11.dtd">
<svg width="100%" height="100%" viewBox="0 0 60 380" version="1.1" xmlns="http://www.w3.org/2000/svg" xmlns:xlink="http://www.w3.org/1999/xlink" xml:space="preserve" xmlns:serif="http://www.serif.com/" style="fill-rule:evenodd;clip-rule:evenodd;stroke-linecap:round;stroke-linejoin:round;stroke-miterlimit:1.5;">
    <g transform="matrix(0.28834,0,0,2.01589,-15.1541,-120.797)">
        <rect x="52.556" y="59.922" width="208.087" height="188.503" style="fill:rgb(154,178,191);stroke:rgb(5,5,5);stroke-width:1.39px;"/>
    </g>
    <g transform="matrix(1,0,0,1,-155.127,48.5994)">
        <g id="Connect-ledbutton" serif:id="Connect#ledbutton" transform="matrix(1,0,0,1,83.8192,-8.78101)">
            <circle cx="101.308" cy="310.24" r="9.898" style="fill:rgb(115,115,115);"/>
        </g>
        <g transform="matrix(1,0,0,1,83.3642,167.088)">
            <path d="M90.698,116.846C90.698,117.006 90.743,117.13 90.833,117.216C90.923,117.303 91.045,117.346 91.198,117.346C91.391,117.346 91.52,117.29 91.583,117.176C91.646,117.063 91.685,116.95 91.698,116.836L92.718,116.836C92.718,117.283 92.581,117.643 92.308,117.916C92.175,118.056 92.015,118.166 91.828,118.246C91.641,118.326 91.431,118.366 91.198,118.366C90.878,118.366 90.606,118.3 90.383,118.166C90.16,118.033 89.988,117.856 89.868,117.636C89.795,117.503 89.745,117.35 89.718,117.176C89.691,117.003 89.678,116.813 89.678,116.606L89.678,114.936C89.678,114.73 89.691,114.54 89.718,114.366C89.745,114.193 89.795,114.04 89.868,113.906C89.988,113.686 90.16,113.51 90.383,113.376C90.606,113.243 90.878,113.176 91.198,113.176C91.431,113.176 91.643,113.216 91.833,113.296C92.023,113.376 92.185,113.486 92.318,113.626C92.585,113.926 92.718,114.316 92.718,114.796L91.698,114.796C91.698,114.59 91.653,114.438 91.563,114.341C91.473,114.245 91.351,114.196 91.198,114.196C91.045,114.196 90.923,114.245 90.833,114.341C90.743,114.438 90.698,114.583 90.698,114.776L90.698,116.846Z" style="fill-rule:nonzero;"/>
            <path d="M93.228,114.936C93.228,114.73 93.241,114.54 93.268,114.366C93.295,114.193 93.345,114.04 93.418,113.906C93.538,113.686 93.71,113.51 93.933,113.376C94.156,113.243 94.428,113.176 94.748,113.176C95.068,113.176 95.34,113.243 95.563,113.376C95.786,113.51 95.958,113.686 96.078,113.906C96.151,114.04 96.201,114.193 96.228,114.366C96.255,114.54 96.268,114.73 96.268,114.936L96.268,116.606C96.268,116.813 96.255,117.003 96.228,117.176C96.201,117.35 96.151,117.503 96.078,117.636C95.958,117.856 95.786,118.033 95.563,118.166C95.34,118.3 95.068,118.366 94.748,118.366C94.428,118.366 94.156,118.3 93.933,118.166C93.71,118.033 93.538,117.856 93.418,117.636C93.345,117.503 93.295,117.35 93.268,117.176C93.241,117.003 93.228,116.813 93.228,116.606L93.228,114.936ZM94.248,116.766C94.248,116.96 94.293,117.105 94.383,117.201C94.473,117.298 94.595,117.346 94.748,117.346C94.901,117.346 95.023,117.298 95.113,117.201C95.203,117.105 95.248,116.96 95.248,116.766L95.248,114.776C95.248,114.583 95.203,114.438 95.113,114.341C95.023,114.245 94.901,114.196 94.748,114.196C94.595,114.196 94.473,114.245 94.383,114.341C94.293,114.438 94.248,114.583 94.248,114.776L94.248,116.766Z" style="fill-rule:nonzero;"/>
            <path d="M97.018,118.306L97.018,113.236L98.038,113.236L98.038,113.726L98.058,113.726C98.165,113.566 98.293,113.435 98.443,113.331C98.593,113.228 98.785,113.176 99.018,113.176C99.145,113.176 99.271,113.198 99.398,113.241C99.525,113.285 99.638,113.356 99.738,113.456C99.838,113.556 99.918,113.685 99.978,113.841C100.038,113.998 100.068,114.19 100.068,114.416L100.068,118.306L99.048,118.306L99.048,114.796C99.048,114.61 99.005,114.463 98.918,114.356C98.831,114.25 98.708,114.196 98.548,114.196C98.355,114.196 98.221,114.256 98.148,114.376C98.075,114.496 98.038,114.67 98.038,114.896L98.038,118.306L97.018,118.306Z" style="fill-rule:nonzero;"/>
            <path d="M100.908,118.306L100.908,113.236L101.928,113.236L101.928,113.726L101.948,113.726C102.055,113.566 102.183,113.435 102.333,113.331C102.483,113.228 102.675,113.176 102.908,113.176C103.035,113.176 103.161,113.198 103.288,113.241C103.415,113.285 103.528,113.356 103.628,113.456C103.728,113.556 103.808,113.685 103.868,113.841C103.928,113.998 103.958,114.19 103.958,114.416L103.958,118.306L102.938,118.306L102.938,114.796C102.938,114.61 102.895,114.463 102.808,114.356C102.721,114.25 102.598,114.196 102.438,114.196C102.245,114.196 102.111,114.256 102.038,114.376C101.965,114.496 101.928,114.67 101.928,114.896L101.928,118.306L100.908,118.306Z" style="fill-rule:nonzero;"/>
            <path d="M107.748,116.156L105.728,116.156L105.728,116.846C105.728,117.006 105.773,117.13 105.863,117.216C105.953,117.303 106.075,117.346 106.228,117.346C106.421,117.346 106.55,117.29 106.613,117.176C106.676,117.063 106.715,116.95 106.728,116.836L107.748,116.836C107.748,117.283 107.611,117.643 107.338,117.916C107.205,118.056 107.045,118.166 106.858,118.246C106.671,118.326 106.461,118.366 106.228,118.366C105.908,118.366 105.636,118.3 105.413,118.166C105.19,118.033 105.018,117.856 104.898,117.636C104.825,117.503 104.775,117.35 104.748,117.176C104.721,117.003 104.708,116.813 104.708,116.606L104.708,114.936C104.708,114.73 104.721,114.54 104.748,114.366C104.775,114.193 104.825,114.04 104.898,113.906C105.018,113.686 105.19,113.51 105.413,113.376C105.636,113.243 105.908,113.176 106.228,113.176C106.461,113.176 106.673,113.216 106.863,113.296C107.053,113.376 107.215,113.486 107.348,113.626C107.615,113.926 107.748,114.303 107.748,114.756L107.748,116.156ZM105.728,115.356L106.728,115.356L106.728,114.776C106.728,114.583 106.683,114.438 106.593,114.341C106.503,114.245 106.381,114.196 106.228,114.196C106.075,114.196 105.953,114.245 105.863,114.341C105.773,114.438 105.728,114.583 105.728,114.776L105.728,115.356Z" style="fill-rule:nonzero;"/>
            <path d="M109.578,116.846C109.578,117.006 109.623,117.13 109.713,117.216C109.803,117.303 109.925,117.346 110.078,117.346C110.271,117.346 110.4,117.29 110.463,117.176C110.526,117.063 110.565,116.95 110.578,116.836L111.598,116.836C111.598,117.283 111.461,117.643 111.188,117.916C111.055,118.056 110.895,118.166 110.708,118.246C110.521,118.326 110.311,118.366 110.078,118.366C109.758,118.366 109.486,118.3 109.263,118.166C109.04,118.033 108.868,117.856 108.748,117.636C108.675,117.503 108.625,117.35 108.598,117.176C108.571,117.003 108.558,116.813 108.558,116.606L108.558,114.936C108.558,114.73 108.571,114.54 108.598,114.366C108.625,114.193 108.675,114.04 108.748,113.906C108.868,113.686 109.04,113.51 109.263,113.376C109.486,113.243 109.758,113.176 110.078,113.176C110.311,113.176 110.523,113.216 110.713,113.296C110.903,113.376 111.065,113.486 111.198,113.626C111.465,113.926 111.598,114.316 111.598,114.796L110.578,114.796C110.578,114.59 110.533,114.438 110.443,114.341C110.353,114.245 110.231,114.196 110.078,114.196C109.925,114.196 109.803,114.245 109.713,114.341C109.623,114.438 109.578,114.583 109.578,114.776L109.578,116.846Z" style="fill-rule:nonzero;"/>
            <path d="M112.198,113.236L112.198,111.696L113.218,111.696L113.218,113.236L113.848,113.236L113.848,114.036L113.218,114.036L113.218,116.846C113.218,116.966 113.23,117.06 113.253,117.126C113.276,117.193 113.315,117.243 113.368,117.276C113.421,117.31 113.486,117.33 113.563,117.336C113.64,117.343 113.735,117.346 113.848,117.346L113.848,118.306L113.428,118.306C113.195,118.306 113,118.27 112.843,118.196C112.686,118.123 112.561,118.03 112.468,117.916C112.375,117.803 112.306,117.675 112.263,117.531C112.22,117.388 112.198,117.25 112.198,117.116L112.198,114.036L111.688,114.036L111.688,113.236L112.198,113.236Z" style="fill-rule:nonzero;"/>
        </g>
        <g transform="matrix(1,0,0,1,83.3642,167.088)">
            <text x="89.198px" y="118.306px" style="font-family:'DINCondensed-Bold', 'DIN Condensed';font-weight:700;font-stretch:condensed;font-size:10px;">connect</text>
        </g>
    </g>
    <g>
        <g id="Kill-button" serif:id="Kill#button" transform="matrix(0.709808,0,0,0.709808,-42.4092,7.03977)">
            <circle cx="101.308" cy="310.24" r="9.898" style="fill:rgb(115,115,115);"/>
        </g>
        <g transform="matrix(1,0,0,1,-67.1436,95.8551)">
            <path d="M92.753,118.306L92.753,111.186L93.773,111.186L93.773,115.446L93.793,115.446L95.023,113.236L96.043,113.236L94.833,115.296L96.293,118.306L95.183,118.306L94.263,116.116L93.773,116.886L93.773,118.306L92.753,118.306Z" style="fill:rgb(5,5,5);fill-rule:nonzero;"/>
            <path d="M96.643,118.306L96.643,113.236L97.663,113.236L97.663,118.306L96.643,118.306ZM96.643,112.206L96.643,111.186L97.663,111.186L97.663,112.206L96.643,112.206Z" style="fill:rgb(5,5,5);fill-rule:nonzero;"/>
            <path d="M98.443,111.186L99.463,111.186L99.463,116.876C99.463,117.07 99.498,117.201 99.568,117.271C99.638,117.341 99.77,117.386 99.963,117.406L99.963,118.366C99.73,118.366 99.52,118.348 99.333,118.311C99.146,118.275 98.986,118.203 98.853,118.096C98.72,117.996 98.618,117.855 98.548,117.671C98.478,117.488 98.443,117.246 98.443,116.946L98.443,111.186Z" style="fill:rgb(5,5,5);fill-rule:nonzero;"/>
            <path d="M100.303,111.186L101.323,111.186L101.323,116.876C101.323,117.07 101.358,117.201 101.428,117.271C101.498,117.341 101.63,117.386 101.823,117.406L101.823,118.366C101.59,118.366 101.38,118.348 101.193,118.311C101.006,118.275 100.846,118.203 100.713,118.096C100.58,117.996 100.478,117.855 100.408,117.671C100.338,117.488 100.303,117.246 100.303,116.946L100.303,111.186Z" style="fill:rgb(5,5,5);fill-rule:nonzero;"/>
        </g>
        <g transform="matrix(1,0,0,1,-67.1436,95.8551)">
            <text x="92.333px" y="118.306px" style="font-family:'DINCondensed-Bold', 'DIN Condensed';font-weight:700;font-stretch:condensed;font-size:10px;fill:rgb(5,5,5);">kill</text>
        </g>
    </g>
    <g transform="matrix(1,0,0,1,0.499922,-56.8899)">
        <g id="Restart-button" serif:id="Restart#button" transform="matrix(0.709808,0,0,0.709808,-42.4092,7.03977)">
            <circle cx="101.308" cy="310.24" r="9.898" style="fill:rgb(115,115,115);"/>
        </g>
        <g transform="matrix(1,0,0,1,-67.1436,95.8551)">
            <path d="M86.598,111.186C86.405,111.873 86.271,112.583 86.198,113.316C86.125,114.05 86.088,114.786 86.088,115.526C86.088,116.213 86.133,116.868 86.223,117.491C86.313,118.115 86.438,118.72 86.598,119.306L86.258,119.306C86.058,119.02 85.883,118.708 85.733,118.371C85.583,118.035 85.461,117.686 85.368,117.326C85.268,116.966 85.193,116.61 85.143,116.256C85.093,115.903 85.068,115.566 85.068,115.246C85.068,114.906 85.095,114.556 85.148,114.196C85.201,113.836 85.281,113.476 85.388,113.116C85.588,112.403 85.878,111.76 86.258,111.186L86.598,111.186Z" style="fill:rgb(5,5,5);fill-rule:nonzero;"/>
            <path d="M87.208,118.306L87.208,113.236L88.228,113.236L88.228,113.776C88.435,113.59 88.638,113.443 88.838,113.336C89.038,113.23 89.285,113.176 89.578,113.176L89.578,114.256C89.478,114.216 89.375,114.196 89.268,114.196C89.161,114.196 89.046,114.215 88.923,114.251C88.8,114.288 88.688,114.35 88.588,114.436C88.481,114.523 88.395,114.636 88.328,114.776C88.261,114.916 88.228,115.09 88.228,115.296L88.228,118.306L87.208,118.306Z" style="fill:rgb(5,5,5);fill-rule:nonzero;"/>
            <path d="M92.938,116.156L90.918,116.156L90.918,116.846C90.918,117.006 90.963,117.13 91.053,117.216C91.143,117.303 91.265,117.346 91.418,117.346C91.611,117.346 91.74,117.29 91.803,117.176C91.866,117.063 91.905,116.95 91.918,116.836L92.938,116.836C92.938,117.283 92.801,117.643 92.528,117.916C92.395,118.056 92.235,118.166 92.048,118.246C91.861,118.326 91.651,118.366 91.418,118.366C91.098,118.366 90.826,118.3 90.603,118.166C90.38,118.033 90.208,117.856 90.088,117.636C90.015,117.503 89.965,117.35 89.938,117.176C89.911,117.003 89.898,116.813 89.898,116.606L89.898,114.936C89.898,114.73 89.911,114.54 89.938,114.366C89.965,114.193 90.015,114.04 90.088,113.906C90.208,113.686 90.38,113.51 90.603,113.376C90.826,113.243 91.098,113.176 91.418,113.176C91.651,113.176 91.863,113.216 92.053,113.296C92.243,113.376 92.405,113.486 92.538,113.626C92.805,113.926 92.938,114.303 92.938,114.756L92.938,116.156ZM90.918,115.356L91.918,115.356L91.918,114.776C91.918,114.583 91.873,114.438 91.783,114.341C91.693,114.245 91.571,114.196 91.418,114.196C91.265,114.196 91.143,114.245 91.053,114.341C90.963,114.438 90.918,114.583 90.918,114.776L90.918,115.356Z" style="fill:rgb(5,5,5);fill-rule:nonzero;"/>
            <path d="M93.458,119.306C93.651,118.62 93.785,117.91 93.858,117.176C93.931,116.443 93.968,115.706 93.968,114.966C93.968,114.28 93.923,113.625 93.833,113.001C93.743,112.378 93.618,111.773 93.458,111.186L93.798,111.186C93.998,111.486 94.173,111.801 94.323,112.131C94.473,112.461 94.598,112.806 94.698,113.166C94.791,113.526 94.863,113.883 94.913,114.236C94.963,114.59 94.988,114.926 94.988,115.246C94.988,115.586 94.961,115.936 94.908,116.296C94.855,116.656 94.778,117.016 94.678,117.376C94.465,118.096 94.171,118.74 93.798,119.306L93.458,119.306Z" style="fill:rgb(5,5,5);fill-rule:nonzero;"/>
            <path d="M97.758,114.656C97.751,114.483 97.696,114.353 97.593,114.266C97.49,114.18 97.371,114.136 97.238,114.136C97.078,114.136 96.955,114.188 96.868,114.291C96.781,114.395 96.738,114.513 96.738,114.646C96.738,114.74 96.761,114.831 96.808,114.921C96.855,115.011 96.975,115.093 97.168,115.166L97.768,115.406C98.148,115.553 98.41,115.753 98.553,116.006C98.696,116.26 98.768,116.536 98.768,116.836C98.768,117.05 98.73,117.248 98.653,117.431C98.576,117.615 98.471,117.776 98.338,117.916C98.205,118.056 98.045,118.166 97.858,118.246C97.671,118.326 97.468,118.366 97.248,118.366C96.835,118.366 96.488,118.236 96.208,117.976C96.068,117.85 95.955,117.691 95.868,117.501C95.781,117.311 95.735,117.09 95.728,116.836L96.688,116.836C96.708,116.976 96.756,117.106 96.833,117.226C96.91,117.346 97.045,117.406 97.238,117.406C97.385,117.406 97.516,117.358 97.633,117.261C97.75,117.165 97.808,117.03 97.808,116.856C97.808,116.716 97.771,116.596 97.698,116.496C97.625,116.396 97.491,116.31 97.298,116.236L96.808,116.056C96.488,115.936 96.236,115.758 96.053,115.521C95.87,115.285 95.778,114.996 95.778,114.656C95.778,114.443 95.818,114.245 95.898,114.061C95.978,113.878 96.088,113.72 96.228,113.586C96.361,113.453 96.518,113.351 96.698,113.281C96.878,113.211 97.071,113.176 97.278,113.176C97.485,113.176 97.676,113.213 97.853,113.286C98.03,113.36 98.181,113.463 98.308,113.596C98.435,113.73 98.535,113.888 98.608,114.071C98.681,114.255 98.718,114.45 98.718,114.656L97.758,114.656Z" style="fill:rgb(5,5,5);fill-rule:nonzero;"/>
            <path d="M99.428,113.236L99.428,111.696L100.448,111.696L100.448,113.236L101.078,113.236L101.078,114.036L100.448,114.036L100.448,116.846C100.448,116.966 100.46,117.06 100.483,117.126C100.506,117.193 100.545,117.243 100.598,117.276C100.651,117.31 100.716,117.33 100.793,117.336C100.87,117.343 100.965,117.346 101.078,117.346L101.078,118.306L100.658,118.306C100.425,118.306 100.23,118.27 100.073,118.196C99.916,118.123 99.791,118.03 99.698,117.916C99.605,117.803 99.536,117.675 99.493,117.531C99.45,117.388 99.428,117.25 99.428,117.116L99.428,114.036L98.918,114.036L98.918,113.236L99.428,113.236Z" style="fill:rgb(5,5,5);fill-rule:nonzero;"/>
            <path d="M103.398,118.306L103.398,117.786L103.378,117.786C103.245,117.973 103.11,118.116 102.973,118.216C102.836,118.316 102.645,118.366 102.398,118.366C102.278,118.366 102.156,118.348 102.033,118.311C101.91,118.275 101.791,118.206 101.678,118.106C101.565,118.013 101.473,117.878 101.403,117.701C101.333,117.525 101.298,117.296 101.298,117.016C101.298,116.73 101.321,116.478 101.368,116.261C101.415,116.045 101.501,115.863 101.628,115.716C101.748,115.576 101.911,115.471 102.118,115.401C102.325,115.331 102.588,115.296 102.908,115.296L103.018,115.296C103.058,115.296 103.095,115.3 103.128,115.306C103.161,115.313 103.201,115.316 103.248,115.316C103.295,115.316 103.345,115.32 103.398,115.326L103.398,114.796C103.398,114.623 103.361,114.48 103.288,114.366C103.215,114.253 103.081,114.196 102.888,114.196C102.755,114.196 102.633,114.24 102.523,114.326C102.413,114.413 102.341,114.54 102.308,114.706L101.318,114.706C101.345,114.253 101.498,113.886 101.778,113.606C101.911,113.473 102.071,113.368 102.258,113.291C102.445,113.215 102.655,113.176 102.888,113.176C103.101,113.176 103.301,113.21 103.488,113.276C103.675,113.343 103.838,113.443 103.978,113.576C104.111,113.71 104.218,113.876 104.298,114.076C104.378,114.276 104.418,114.51 104.418,114.776L104.418,118.306L103.398,118.306ZM103.398,116.126C103.285,116.106 103.191,116.096 103.118,116.096C102.898,116.096 102.71,116.148 102.553,116.251C102.396,116.355 102.318,116.543 102.318,116.816C102.318,117.01 102.365,117.166 102.458,117.286C102.551,117.406 102.681,117.466 102.848,117.466C103.021,117.466 103.156,117.41 103.253,117.296C103.35,117.183 103.398,117.023 103.398,116.816L103.398,116.126Z" style="fill:rgb(5,5,5);fill-rule:nonzero;"/>
            <path d="M105.168,118.306L105.168,113.236L106.188,113.236L106.188,113.776C106.395,113.59 106.598,113.443 106.798,113.336C106.998,113.23 107.245,113.176 107.538,113.176L107.538,114.256C107.438,114.216 107.335,114.196 107.228,114.196C107.121,114.196 107.006,114.215 106.883,114.251C106.76,114.288 106.648,114.35 106.548,114.436C106.441,114.523 106.355,114.636 106.288,114.776C106.221,114.916 106.188,115.09 106.188,115.296L106.188,118.306L105.168,118.306Z" style="fill:rgb(5,5,5);fill-rule:nonzero;"/>
            <path d="M107.948,113.236L107.948,111.696L108.968,111.696L108.968,113.236L109.598,113.236L109.598,114.036L108.968,114.036L108.968,116.846C108.968,116.966 108.98,117.06 109.003,117.126C109.026,117.193 109.065,117.243 109.118,117.276C109.171,117.31 109.236,117.33 109.313,117.336C109.39,117.343 109.485,117.346 109.598,117.346L109.598,118.306L109.178,118.306C108.945,118.306 108.75,118.27 108.593,118.196C108.436,118.123 108.311,118.03 108.218,117.916C108.125,117.803 108.056,117.675 108.013,117.531C107.97,117.388 107.948,117.25 107.948,117.116L107.948,114.036L107.438,114.036L107.438,113.236L107.948,113.236Z" style="fill:rgb(5,5,5);fill-rule:nonzero;"/>
        </g>
        <g transform="matrix(1,0,0,1,-67.1436,95.8551)">
            <text x="84.568px" y="118.306px" style="font-family:'DINCondensed-Bold', 'DIN Condensed';font-weight:700;font-stretch:condensed;font-size:10px;fill:rgb(5,5,5);">(re)start</text>
        </g>
    </g>
    <g id="Display-oled-40x40" serif:id="Display#oled$40x40" transform="matrix(0.875076,0,0,1.78637,-67.251,-62.7464)">
        <rect x="87.136" y="70.02" width="47.996" height="23.511" style="fill:rgb(19,19,19);"/>
    </g>
    <g transform="matrix(0.816456,0,0,0.816456,31.4849,-226.739)">
        <g transform="matrix(1,0,0,1,-100.189,-34.4013)">
            <path d="M74.994,351.88C74.994,352.38 75.004,352.868 75.024,353.343C75.043,353.818 75.097,354.203 75.185,354.497C75.362,354.604 75.56,354.671 75.781,354.695C76.001,354.719 76.209,354.737 76.405,354.746C76.601,354.756 76.765,354.776 76.898,354.805C77.03,354.835 77.096,354.898 77.096,354.996C77.096,355.045 77.072,355.087 77.023,355.121C76.974,355.156 76.895,355.173 76.787,355.173C76.503,355.182 76.116,355.17 75.626,355.136C75.136,355.102 74.578,355.084 73.951,355.084C73.147,355.084 72.542,355.111 72.136,355.165C71.729,355.219 71.486,355.246 71.408,355.246C71.339,355.246 71.281,355.229 71.232,355.195C71.183,355.16 71.158,355.114 71.158,355.055C71.158,354.928 71.217,354.859 71.335,354.849C71.452,354.84 71.673,354.81 71.996,354.761C72.212,354.742 72.388,354.715 72.525,354.68C72.662,354.646 72.799,354.604 72.937,354.555C72.995,354.34 73.044,354.119 73.084,353.894C73.123,353.669 73.157,353.387 73.186,353.049C73.216,352.711 73.238,352.289 73.253,351.785C73.267,351.28 73.275,350.631 73.275,349.837C73.275,349.112 73.27,348.497 73.26,347.993C73.25,347.488 73.233,347.067 73.209,346.729C73.184,346.391 73.16,346.124 73.135,345.928C73.111,345.732 73.084,345.58 73.054,345.472C72.927,345.384 72.76,345.328 72.554,345.303C72.349,345.279 72.148,345.259 71.952,345.244C71.756,345.23 71.587,345.208 71.445,345.178C71.303,345.149 71.232,345.08 71.232,344.972C71.232,344.845 71.31,344.781 71.467,344.781C71.643,344.781 71.945,344.803 72.371,344.848C72.797,344.892 73.319,344.914 73.936,344.914C74.034,344.914 74.112,344.899 74.171,344.87C74.269,344.821 74.426,344.752 74.642,344.664C74.857,344.576 75.107,344.487 75.391,344.399C75.675,344.311 75.977,344.233 76.295,344.164C76.614,344.096 76.925,344.061 77.228,344.061C77.718,344.061 78.184,344.118 78.625,344.23C79.066,344.343 79.45,344.512 79.778,344.737C80.107,344.963 80.369,345.242 80.565,345.575C80.761,345.908 80.859,346.295 80.859,346.736C80.859,347.167 80.758,347.567 80.557,347.934C80.357,348.302 80.104,348.637 79.8,348.941C79.497,349.245 79.164,349.507 78.801,349.727C78.438,349.948 78.1,350.122 77.787,350.249C78.189,350.249 78.568,350.291 78.926,350.374C79.284,350.457 79.607,350.575 79.896,350.727C80.185,350.879 80.425,351.062 80.616,351.278C80.807,351.493 80.932,351.738 80.991,352.013C80.991,352.15 80.979,352.24 80.954,352.285C80.93,352.329 80.883,352.4 80.815,352.498C81.011,352.811 81.229,353.181 81.469,353.607C81.709,354.034 81.978,354.44 82.277,354.827C82.576,355.214 82.909,355.543 83.276,355.812C83.644,356.081 84.053,356.216 84.504,356.216C84.592,356.216 84.692,356.211 84.805,356.202C84.918,356.192 85.025,356.172 85.128,356.143C85.231,356.113 85.327,356.069 85.415,356.01C85.503,355.952 85.567,355.873 85.606,355.775C85.645,355.746 85.684,355.731 85.724,355.731C85.773,355.731 85.804,355.756 85.819,355.805C85.834,355.854 85.846,355.903 85.856,355.952C85.66,356.393 85.175,356.613 84.401,356.613C84.009,356.613 83.634,356.549 83.276,356.422C82.919,356.295 82.576,356.126 82.248,355.915C81.919,355.704 81.606,355.462 81.307,355.187C81.008,354.913 80.726,354.629 80.462,354.335C80.266,354.119 80.038,353.85 79.778,353.527C79.519,353.203 79.242,352.872 78.948,352.534C78.654,352.196 78.348,351.878 78.029,351.579C77.711,351.28 77.395,351.048 77.081,350.881C76.934,350.812 76.768,350.761 76.582,350.727C76.395,350.692 76.217,350.668 76.045,350.653C75.874,350.638 75.714,350.631 75.568,350.631L75.229,350.631C75.171,350.631 75.122,350.634 75.082,350.638C75.043,350.643 75.014,350.646 74.994,350.646L74.994,351.88ZM75.244,345.693C75.195,345.879 75.156,346.139 75.127,346.472C75.097,346.805 75.073,347.17 75.053,347.567C75.034,347.963 75.019,348.375 75.009,348.801C74.999,349.227 74.994,349.632 74.994,350.014C75.092,350.092 75.281,350.136 75.56,350.146C75.839,350.156 76.141,350.161 76.464,350.161C76.748,350.161 76.986,350.136 77.177,350.087C77.368,350.038 77.547,349.95 77.713,349.823C77.811,349.754 77.922,349.641 78.044,349.485C78.167,349.328 78.284,349.142 78.397,348.926C78.51,348.711 78.605,348.468 78.683,348.199C78.762,347.929 78.801,347.643 78.801,347.339C78.801,346.898 78.752,346.503 78.654,346.156C78.556,345.808 78.424,345.509 78.257,345.259C78.091,345.009 77.895,344.818 77.669,344.686C77.444,344.554 77.204,344.487 76.949,344.487C76.812,344.487 76.658,344.514 76.486,344.568C76.315,344.622 76.146,344.693 75.979,344.781C75.812,344.87 75.666,344.97 75.538,345.083C75.411,345.195 75.327,345.315 75.288,345.443L75.244,345.693Z" style="fill-rule:nonzero;"/>
            <path d="M89.574,353.38C89.467,353.497 89.3,353.659 89.075,353.865C88.849,354.07 88.577,354.276 88.259,354.482C87.941,354.688 87.585,354.864 87.193,355.011C86.801,355.158 86.385,355.231 85.944,355.231C85.542,355.231 85.15,355.17 84.768,355.048C84.386,354.925 84.043,354.739 83.739,354.489C83.436,354.239 83.193,353.921 83.012,353.534C82.831,353.147 82.74,352.684 82.74,352.145C82.74,351.704 82.769,351.324 82.828,351.006C82.887,350.687 82.965,350.408 83.063,350.168C83.161,349.928 83.272,349.722 83.394,349.551C83.517,349.379 83.641,349.225 83.769,349.088C83.926,348.911 84.117,348.745 84.342,348.588C84.567,348.431 84.81,348.289 85.07,348.162C85.329,348.035 85.604,347.934 85.893,347.861C86.182,347.787 86.473,347.75 86.767,347.75C87.296,347.75 87.71,347.839 88.009,348.015C88.308,348.191 88.457,348.436 88.457,348.75C88.457,348.946 88.399,349.127 88.281,349.294C88.379,349.264 88.504,349.215 88.656,349.147C88.808,349.078 88.962,349.007 89.119,348.934C89.276,348.86 89.415,348.794 89.538,348.735C89.66,348.676 89.741,348.632 89.78,348.603C89.8,348.583 89.822,348.576 89.846,348.581C89.871,348.586 89.883,348.603 89.883,348.632C89.883,348.76 89.859,348.865 89.81,348.948C89.761,349.031 89.702,349.098 89.633,349.147C89.476,349.245 89.251,349.367 88.957,349.514C88.663,349.661 88.337,349.815 87.98,349.977C87.622,350.139 87.252,350.3 86.87,350.462C86.488,350.624 86.128,350.778 85.79,350.925C85.452,351.072 85.158,351.202 84.908,351.315C84.658,351.427 84.489,351.508 84.401,351.557C84.401,351.89 84.467,352.201 84.599,352.49C84.732,352.779 84.915,353.032 85.15,353.247C85.386,353.463 85.667,353.632 85.996,353.754C86.324,353.877 86.684,353.938 87.076,353.938C87.429,353.938 87.747,353.901 88.031,353.828C88.315,353.754 88.555,353.671 88.751,353.578C88.947,353.485 89.102,353.402 89.214,353.328C89.327,353.255 89.388,353.218 89.398,353.218C89.437,353.218 89.476,353.235 89.516,353.269C89.555,353.304 89.574,353.34 89.574,353.38ZM84.401,351.131C84.567,351.072 84.756,351.001 84.967,350.918C85.177,350.834 85.383,350.744 85.584,350.646C85.785,350.548 85.969,350.455 86.135,350.367C86.302,350.278 86.429,350.2 86.517,350.131C86.694,350.004 86.782,349.788 86.782,349.485C86.782,349.367 86.76,349.245 86.716,349.117C86.672,348.99 86.605,348.875 86.517,348.772C86.429,348.669 86.321,348.586 86.194,348.522C86.067,348.458 85.924,348.426 85.768,348.426C85.631,348.426 85.484,348.473 85.327,348.566C85.17,348.659 85.023,348.811 84.886,349.022C84.749,349.232 84.634,349.512 84.54,349.859C84.447,350.207 84.401,350.631 84.401,351.131Z" style="fill-rule:nonzero;"/>
            <path d="M103.331,353.82C103.361,353.82 103.38,353.838 103.39,353.872C103.4,353.906 103.405,353.948 103.405,353.997C103.405,354.046 103.395,354.078 103.375,354.092C103.356,354.107 103.336,354.124 103.317,354.144C103.248,354.183 103.084,354.266 102.824,354.394C102.565,354.521 102.276,354.651 101.957,354.783C101.639,354.915 101.325,355.033 101.017,355.136C100.708,355.239 100.475,355.29 100.318,355.29C100.181,355.29 100.051,355.261 99.929,355.202C99.806,355.143 99.755,355.05 99.775,354.923C99.794,354.844 99.816,354.727 99.841,354.57C99.865,354.413 99.887,354.222 99.907,353.997C99.926,353.713 99.948,353.384 99.973,353.012C99.997,352.64 100.01,352.228 100.01,351.778C100.01,351.248 99.975,350.81 99.907,350.462C99.838,350.114 99.74,349.837 99.613,349.632C99.486,349.426 99.329,349.281 99.143,349.198C98.956,349.115 98.741,349.073 98.496,349.073C98.271,349.073 98.079,349.11 97.923,349.183C97.766,349.257 97.629,349.338 97.511,349.426C97.296,349.592 97.127,349.806 97.004,350.065C96.882,350.325 96.806,350.665 96.776,351.087C96.766,351.195 96.759,351.302 96.754,351.41C96.749,351.518 96.744,351.635 96.74,351.763C96.735,351.89 96.73,352.032 96.725,352.189C96.72,352.346 96.717,352.532 96.717,352.748C96.717,353.326 96.764,353.727 96.857,353.953C96.95,354.178 97.109,354.291 97.335,354.291C97.413,354.291 97.462,354.288 97.482,354.283C97.501,354.279 97.541,354.271 97.599,354.261C97.619,354.281 97.639,354.306 97.658,354.335C97.688,354.384 97.683,354.438 97.643,354.497C97.594,354.555 97.477,354.631 97.291,354.724C97.104,354.817 96.899,354.903 96.673,354.982C96.448,355.06 96.228,355.129 96.012,355.187C95.796,355.246 95.635,355.276 95.527,355.276C95.39,355.276 95.265,355.258 95.152,355.224C95.039,355.19 94.983,355.148 94.983,355.099C94.983,355.04 95.003,354.972 95.042,354.893C95.071,354.844 95.101,354.727 95.13,354.541C95.16,354.355 95.186,354.114 95.211,353.82C95.235,353.527 95.257,353.186 95.277,352.799C95.297,352.412 95.306,351.993 95.306,351.542C95.306,351.307 95.294,351.048 95.27,350.763C95.245,350.479 95.184,350.212 95.086,349.962C94.988,349.712 94.844,349.502 94.652,349.33C94.461,349.159 94.199,349.073 93.866,349.073C93.67,349.073 93.494,349.1 93.337,349.154C93.18,349.208 93.048,349.274 92.94,349.352C92.725,349.519 92.541,349.725 92.389,349.97C92.237,350.215 92.137,350.563 92.088,351.013C92.068,351.219 92.048,351.432 92.029,351.653C92.009,351.873 92,352.125 92,352.41C92,352.782 92.009,353.091 92.029,353.335C92.048,353.58 92.083,353.774 92.132,353.916C92.181,354.058 92.24,354.156 92.308,354.21C92.377,354.264 92.465,354.291 92.573,354.291C92.68,354.291 92.754,354.281 92.793,354.261C92.842,354.242 92.876,354.271 92.896,354.35C92.916,354.428 92.911,354.477 92.881,354.497C92.842,354.536 92.739,354.597 92.573,354.68C92.406,354.764 92.215,354.849 92,354.938C91.784,355.026 91.563,355.104 91.338,355.173C91.113,355.241 90.922,355.276 90.765,355.276C90.598,355.276 90.468,355.256 90.375,355.217C90.282,355.178 90.236,355.133 90.236,355.084C90.236,355.075 90.246,355.043 90.265,354.989C90.285,354.935 90.299,354.889 90.309,354.849C90.348,354.546 90.385,354.264 90.42,354.004C90.454,353.745 90.478,353.463 90.493,353.159C90.508,352.855 90.52,352.507 90.53,352.116C90.54,351.724 90.544,351.248 90.544,350.69C90.544,350.151 90.459,349.754 90.287,349.499C90.116,349.245 89.937,349.117 89.751,349.117C89.672,349.117 89.606,349.125 89.552,349.139C89.498,349.154 89.447,349.166 89.398,349.176C89.339,349.186 89.31,349.156 89.31,349.088L89.31,348.985C89.32,348.975 89.418,348.907 89.604,348.779C89.79,348.652 90.01,348.515 90.265,348.368C90.52,348.221 90.784,348.086 91.059,347.963C91.333,347.841 91.559,347.78 91.735,347.78C91.853,347.78 91.953,347.814 92.036,347.883C92.12,347.951 92.161,348.079 92.161,348.265C92.161,348.353 92.159,348.451 92.154,348.559C92.149,348.667 92.144,348.779 92.139,348.897C92.134,349.014 92.127,349.129 92.117,349.242C92.107,349.355 92.102,349.45 92.102,349.529C92.24,349.401 92.413,349.235 92.624,349.029C92.835,348.823 93.072,348.627 93.337,348.441C93.602,348.255 93.888,348.093 94.197,347.956C94.505,347.819 94.831,347.75 95.174,347.75C95.625,347.75 95.992,347.883 96.277,348.147C96.561,348.412 96.713,348.872 96.732,349.529C96.889,349.382 97.08,349.205 97.305,349C97.531,348.794 97.783,348.598 98.062,348.412C98.342,348.226 98.638,348.069 98.951,347.941C99.265,347.814 99.583,347.75 99.907,347.75C101.043,347.75 101.612,348.353 101.612,349.558C101.612,349.754 101.602,349.979 101.582,350.234C101.563,350.489 101.538,350.756 101.509,351.035C101.479,351.315 101.455,351.591 101.435,351.866C101.416,352.14 101.406,352.39 101.406,352.615C101.406,353.634 101.675,354.144 102.214,354.144C102.303,354.144 102.401,354.132 102.508,354.107C102.616,354.083 102.724,354.053 102.832,354.019C102.939,353.985 103.037,353.95 103.126,353.916C103.214,353.882 103.278,353.85 103.317,353.82L103.331,353.82Z" style="fill-rule:nonzero;"/>
            <path d="M109.093,353.923C108.985,354.012 108.838,354.129 108.652,354.276C108.466,354.423 108.25,354.57 108.005,354.717C107.76,354.864 107.491,354.989 107.197,355.092C106.903,355.195 106.594,355.246 106.271,355.246C105.781,355.246 105.345,355.16 104.963,354.989C104.581,354.817 104.26,354.587 104,354.298C103.74,354.009 103.545,353.669 103.412,353.277C103.28,352.885 103.214,352.468 103.214,352.027C103.214,351.508 103.292,351.048 103.449,350.646C103.606,350.244 103.799,349.894 104.03,349.595C104.26,349.296 104.507,349.046 104.772,348.845C105.036,348.644 105.276,348.485 105.492,348.368C105.59,348.309 105.715,348.245 105.867,348.177C106.019,348.108 106.185,348.044 106.366,347.986C106.548,347.927 106.744,347.875 106.954,347.831C107.165,347.787 107.383,347.765 107.608,347.765C108.03,347.765 108.439,347.819 108.836,347.927C109.233,348.035 109.583,348.204 109.887,348.434C110.19,348.664 110.435,348.96 110.621,349.323C110.808,349.686 110.901,350.122 110.901,350.631C110.901,351.043 110.825,351.43 110.673,351.792C110.521,352.155 110.342,352.478 110.136,352.762C109.931,353.046 109.727,353.289 109.526,353.49C109.326,353.691 109.181,353.835 109.093,353.923ZM107.432,354.159C107.991,354.159 108.419,353.948 108.718,353.527C109.017,353.105 109.166,352.459 109.166,351.586C109.166,351.146 109.105,350.736 108.983,350.359C108.86,349.982 108.689,349.651 108.468,349.367C108.248,349.083 107.991,348.86 107.697,348.698C107.403,348.537 107.084,348.456 106.741,348.456C106.496,348.456 106.264,348.52 106.043,348.647C105.823,348.774 105.629,348.958 105.463,349.198C105.296,349.438 105.164,349.73 105.066,350.073C104.968,350.416 104.919,350.803 104.919,351.234C104.919,351.694 104.99,352.106 105.132,352.468C105.274,352.831 105.463,353.137 105.698,353.387C105.933,353.637 106.2,353.828 106.499,353.96C106.798,354.092 107.109,354.159 107.432,354.159Z" style="fill-rule:nonzero;"/>
            <path d="M118.617,353.056C118.637,353.037 118.654,353.039 118.668,353.064C118.683,353.088 118.693,353.122 118.698,353.166C118.703,353.211 118.7,353.257 118.69,353.306C118.681,353.355 118.661,353.394 118.632,353.424C118.436,353.61 118.191,353.806 117.897,354.012C117.603,354.217 117.299,354.408 116.986,354.585C116.897,354.634 116.775,354.697 116.618,354.776C116.461,354.854 116.287,354.93 116.096,355.004C115.905,355.077 115.709,355.141 115.508,355.195C115.308,355.249 115.119,355.276 114.943,355.276C114.59,355.276 114.257,355.207 113.943,355.07C113.63,354.933 113.355,354.744 113.12,354.504C112.885,354.264 112.701,353.977 112.569,353.644C112.437,353.311 112.37,352.948 112.37,352.556C112.37,352.135 112.429,351.738 112.547,351.366C112.664,350.994 112.799,350.66 112.951,350.367C113.103,350.073 113.247,349.825 113.385,349.624C113.522,349.423 113.615,349.274 113.664,349.176C113.478,349.166 113.309,349.159 113.157,349.154C113.005,349.149 112.86,349.147 112.723,349.147C112.41,349.147 112.145,349.149 111.93,349.154C111.714,349.159 111.523,349.181 111.356,349.22C111.278,349.24 111.204,349.279 111.136,349.338C111.067,349.396 111.008,349.441 110.959,349.47C110.94,349.45 110.913,349.423 110.879,349.389C110.844,349.355 110.827,349.318 110.827,349.279C110.827,349.259 110.832,349.245 110.842,349.235C110.842,349.225 110.906,349.169 111.033,349.066C111.16,348.963 111.32,348.84 111.511,348.698C111.702,348.556 111.912,348.399 112.143,348.228C112.373,348.057 112.593,347.897 112.804,347.75C113.015,347.603 113.196,347.478 113.348,347.376C113.5,347.273 113.6,347.211 113.649,347.192C113.708,347.172 113.767,347.182 113.826,347.221C113.884,347.26 113.904,347.29 113.884,347.309C113.855,347.329 113.811,347.366 113.752,347.42C113.693,347.474 113.674,347.52 113.693,347.559C113.801,347.647 113.987,347.726 114.252,347.794C114.516,347.863 114.815,347.919 115.148,347.963C115.481,348.008 115.824,348.042 116.177,348.066C116.53,348.091 116.848,348.103 117.133,348.103C117.554,348.103 117.892,348.091 118.147,348.066C118.401,348.042 118.612,348.01 118.779,347.971C118.935,347.932 119.038,347.902 119.087,347.883C119.097,347.883 119.117,347.897 119.146,347.927C119.175,347.956 119.19,347.99 119.19,348.03C119.19,348.049 119.119,348.098 118.977,348.177C118.835,348.255 118.69,348.338 118.543,348.426C118.455,348.475 118.35,348.539 118.227,348.618C118.105,348.696 117.973,348.772 117.831,348.845C117.689,348.919 117.539,348.985 117.382,349.044C117.226,349.103 117.074,349.137 116.927,349.147C116.78,349.166 116.608,349.181 116.412,349.191C116.216,349.201 116.011,349.208 115.795,349.213C115.579,349.218 115.361,349.223 115.141,349.227C114.921,349.232 114.717,349.235 114.531,349.235C114.502,349.284 114.455,349.365 114.391,349.477C114.328,349.59 114.266,349.735 114.208,349.911C114.149,350.087 114.095,350.288 114.046,350.514C113.997,350.739 113.973,350.984 113.973,351.248C113.973,351.65 114.034,352.02 114.156,352.358C114.279,352.696 114.45,352.988 114.671,353.233C114.891,353.478 115.153,353.669 115.457,353.806C115.761,353.943 116.089,354.012 116.442,354.012C116.647,354.012 116.846,353.987 117.037,353.938C117.228,353.889 117.409,353.825 117.581,353.747C117.752,353.669 117.911,353.583 118.058,353.49C118.205,353.397 118.333,353.306 118.441,353.218L118.617,353.056Z" style="fill-rule:nonzero;"/>
            <path d="M125.393,353.38C125.285,353.497 125.118,353.659 124.893,353.865C124.668,354.07 124.396,354.276 124.077,354.482C123.759,354.688 123.404,354.864 123.012,355.011C122.62,355.158 122.203,355.231 121.762,355.231C121.361,355.231 120.969,355.17 120.586,355.048C120.204,354.925 119.861,354.739 119.558,354.489C119.254,354.239 119.011,353.921 118.83,353.534C118.649,353.147 118.558,352.684 118.558,352.145C118.558,351.704 118.588,351.324 118.646,351.006C118.705,350.687 118.784,350.408 118.882,350.168C118.98,349.928 119.09,349.722 119.212,349.551C119.335,349.379 119.46,349.225 119.587,349.088C119.744,348.911 119.935,348.745 120.16,348.588C120.386,348.431 120.628,348.289 120.888,348.162C121.147,348.035 121.422,347.934 121.711,347.861C122,347.787 122.291,347.75 122.585,347.75C123.114,347.75 123.528,347.839 123.827,348.015C124.126,348.191 124.276,348.436 124.276,348.75C124.276,348.946 124.217,349.127 124.099,349.294C124.197,349.264 124.322,349.215 124.474,349.147C124.626,349.078 124.78,349.007 124.937,348.934C125.094,348.86 125.233,348.794 125.356,348.735C125.478,348.676 125.559,348.632 125.598,348.603C125.618,348.583 125.64,348.576 125.665,348.581C125.689,348.586 125.701,348.603 125.701,348.632C125.701,348.76 125.677,348.865 125.628,348.948C125.579,349.031 125.52,349.098 125.451,349.147C125.295,349.245 125.069,349.367 124.775,349.514C124.481,349.661 124.156,349.815 123.798,349.977C123.44,350.139 123.07,350.3 122.688,350.462C122.306,350.624 121.946,350.778 121.608,350.925C121.27,351.072 120.976,351.202 120.726,351.315C120.476,351.427 120.307,351.508 120.219,351.557C120.219,351.89 120.285,352.201 120.417,352.49C120.55,352.779 120.733,353.032 120.969,353.247C121.204,353.463 121.485,353.632 121.814,353.754C122.142,353.877 122.502,353.938 122.894,353.938C123.247,353.938 123.565,353.901 123.849,353.828C124.133,353.754 124.374,353.671 124.57,353.578C124.765,353.485 124.92,353.402 125.033,353.328C125.145,353.255 125.206,353.218 125.216,353.218C125.255,353.218 125.295,353.235 125.334,353.269C125.373,353.304 125.393,353.34 125.393,353.38ZM120.219,351.131C120.386,351.072 120.574,351.001 120.785,350.918C120.996,350.834 121.201,350.744 121.402,350.646C121.603,350.548 121.787,350.455 121.953,350.367C122.12,350.278 122.247,350.2 122.335,350.131C122.512,350.004 122.6,349.788 122.6,349.485C122.6,349.367 122.578,349.245 122.534,349.117C122.49,348.99 122.424,348.875 122.335,348.772C122.247,348.669 122.14,348.586 122.012,348.522C121.885,348.458 121.743,348.426 121.586,348.426C121.449,348.426 121.302,348.473 121.145,348.566C120.988,348.659 120.841,348.811 120.704,349.022C120.567,349.232 120.452,349.512 120.359,349.859C120.266,350.207 120.219,350.631 120.219,351.131Z" style="fill-rule:nonzero;"/>
            <path d="M77.625,366.152C77.606,366.152 77.586,366.149 77.566,366.144C77.547,366.14 77.532,366.122 77.522,366.093C77.522,366.083 77.535,366.049 77.559,365.99C77.584,365.931 77.625,365.868 77.684,365.799C77.743,365.73 77.816,365.669 77.904,365.615C77.993,365.561 78.1,365.535 78.228,365.535C78.385,365.535 78.512,365.576 78.61,365.659C78.708,365.743 78.786,365.858 78.845,366.005C78.904,366.152 78.943,366.321 78.963,366.512C78.982,366.703 78.992,366.906 78.992,367.122C79.021,367.357 79.132,367.597 79.323,367.842C79.514,368.087 79.749,368.307 80.028,368.503C80.308,368.699 80.614,368.861 80.947,368.988C81.28,369.116 81.603,369.184 81.917,369.194C82.662,369.214 83.205,369.055 83.548,368.717C83.891,368.379 84.063,367.945 84.063,367.416C84.063,366.975 83.979,366.617 83.813,366.343C83.646,366.069 83.423,365.848 83.144,365.681C82.865,365.515 82.549,365.38 82.196,365.277C81.843,365.174 81.483,365.079 81.116,364.991C80.748,364.903 80.388,364.805 80.036,364.697C79.683,364.589 79.367,364.442 79.088,364.256C78.808,364.07 78.585,363.827 78.419,363.528C78.252,363.229 78.169,362.845 78.169,362.375C78.169,361.924 78.269,361.495 78.47,361.088C78.671,360.682 78.958,360.324 79.33,360.016C79.702,359.707 80.156,359.462 80.69,359.281C81.224,359.099 81.829,359.009 82.505,359.009C83.152,359.009 83.705,359.072 84.166,359.2C84.626,359.327 84.979,359.425 85.224,359.494C85.273,359.415 85.327,359.325 85.386,359.222C85.444,359.119 85.51,359.023 85.584,358.935C85.657,358.847 85.738,358.771 85.826,358.707C85.915,358.644 86.018,358.612 86.135,358.612C86.223,358.612 86.294,358.639 86.348,358.693C86.402,358.747 86.429,358.798 86.429,358.847C86.409,358.896 86.37,358.935 86.312,358.965C86.253,358.994 86.199,359.023 86.15,359.053C85.846,359.21 85.594,359.575 85.393,360.148C85.192,360.721 85.077,361.424 85.048,362.257C85.038,362.277 85.013,362.291 84.974,362.301C84.935,362.311 84.891,362.316 84.842,362.316C84.763,362.316 84.709,362.311 84.68,362.301C84.651,362.007 84.562,361.708 84.416,361.404C84.269,361.101 84.065,360.824 83.806,360.574C83.546,360.324 83.227,360.121 82.85,359.964C82.473,359.807 82.044,359.729 81.564,359.729C81.27,359.729 81.006,359.771 80.77,359.854C80.535,359.937 80.337,360.05 80.175,360.192C80.014,360.334 79.891,360.493 79.808,360.67C79.725,360.846 79.683,361.022 79.683,361.199C79.683,361.61 79.849,361.985 80.183,362.323C80.516,362.661 81.02,362.913 81.696,363.08C82.118,363.188 82.556,363.308 83.012,363.44C83.468,363.572 83.881,363.751 84.254,363.977C84.626,364.202 84.935,364.486 85.18,364.829C85.425,365.172 85.547,365.608 85.547,366.137C85.547,366.656 85.427,367.154 85.187,367.629C84.947,368.104 84.631,368.523 84.239,368.886C83.847,369.248 83.401,369.537 82.902,369.753C82.402,369.968 81.892,370.076 81.373,370.076C80.971,370.076 80.579,370.049 80.197,369.995C79.815,369.941 79.462,369.878 79.139,369.804C78.816,369.731 78.532,369.652 78.287,369.569C78.042,369.486 77.86,369.415 77.743,369.356C77.831,369.199 77.922,369.033 78.015,368.856C78.108,368.68 78.196,368.494 78.279,368.298C78.363,368.102 78.431,367.898 78.485,367.688C78.539,367.477 78.566,367.254 78.566,367.019C78.566,366.676 78.514,366.416 78.412,366.24C78.309,366.064 78.189,365.975 78.051,365.975C77.953,365.975 77.885,365.995 77.846,366.034C77.806,366.073 77.757,366.132 77.699,366.211L77.625,366.152Z" style="fill-rule:nonzero;"/>
            <path d="M92.646,363.124C92.627,363.183 92.57,363.274 92.477,363.396C92.384,363.518 92.274,363.646 92.146,363.778C92.019,363.91 91.884,364.038 91.742,364.16C91.6,364.283 91.475,364.373 91.368,364.432C91.299,364.462 91.257,364.452 91.243,364.403C91.228,364.354 91.221,364.305 91.221,364.256C91.221,364.177 91.179,364.079 91.096,363.962C91.012,363.844 90.895,363.729 90.743,363.616C90.591,363.504 90.412,363.408 90.206,363.33C90.001,363.251 89.775,363.212 89.53,363.212C89.109,363.212 88.766,363.44 88.501,363.896C88.237,364.351 88.105,364.956 88.105,365.711C88.105,366.171 88.176,366.585 88.318,366.953C88.46,367.32 88.656,367.629 88.906,367.879C89.156,368.129 89.457,368.32 89.81,368.452C90.162,368.584 90.544,368.65 90.956,368.65C91.514,368.65 91.96,368.579 92.293,368.437C92.627,368.295 92.901,368.131 93.117,367.945C93.126,367.945 93.134,367.94 93.139,367.93C93.143,367.92 93.151,367.916 93.161,367.916C93.21,367.916 93.244,367.933 93.264,367.967C93.283,368.001 93.293,368.043 93.293,368.092C93.293,368.131 93.283,368.161 93.264,368.18C93.117,368.298 92.913,368.454 92.654,368.65C92.394,368.846 92.097,369.04 91.764,369.231C91.431,369.422 91.083,369.586 90.721,369.723C90.358,369.861 90.001,369.929 89.648,369.929C88.639,369.929 87.852,369.635 87.289,369.047C86.725,368.459 86.444,367.656 86.444,366.637C86.444,365.863 86.593,365.211 86.892,364.682C87.191,364.153 87.558,363.729 87.994,363.411C88.43,363.092 88.893,362.864 89.383,362.727C89.873,362.59 90.304,362.522 90.677,362.522C90.98,362.522 91.252,362.544 91.492,362.588C91.732,362.632 91.938,362.686 92.11,362.749C92.281,362.813 92.413,362.879 92.507,362.948C92.6,363.016 92.646,363.075 92.646,363.124Z" style="fill-rule:nonzero;"/>
            <path d="M99.848,363.55C99.74,363.639 99.613,363.749 99.466,363.881C99.319,364.013 99.165,364.141 99.003,364.263C98.841,364.386 98.677,364.491 98.511,364.579C98.344,364.667 98.182,364.711 98.026,364.711C97.888,364.711 97.766,364.68 97.658,364.616C97.55,364.552 97.45,364.484 97.357,364.41C97.264,364.337 97.173,364.268 97.085,364.204C96.997,364.141 96.904,364.109 96.806,364.109C96.541,364.109 96.318,364.217 96.137,364.432C95.956,364.648 95.809,364.922 95.696,365.255C95.583,365.588 95.5,365.951 95.446,366.343C95.392,366.735 95.365,367.112 95.365,367.475C95.365,367.778 95.378,368.026 95.402,368.217C95.427,368.408 95.463,368.56 95.512,368.672C95.561,368.785 95.627,368.861 95.711,368.9C95.794,368.939 95.894,368.959 96.012,368.959C96.139,368.959 96.277,368.939 96.424,368.9C96.453,368.89 96.475,368.91 96.49,368.959C96.504,369.008 96.512,369.047 96.512,369.077C96.512,369.096 96.497,369.118 96.468,369.143C96.438,369.167 96.419,369.18 96.409,369.18C96.193,369.268 95.973,369.363 95.747,369.466C95.522,369.569 95.336,369.655 95.189,369.723C95.052,369.782 94.888,369.846 94.697,369.914C94.505,369.983 94.341,370.017 94.204,370.017C94.047,370.017 93.918,369.993 93.815,369.944C93.712,369.895 93.66,369.846 93.66,369.797C93.66,369.748 93.673,369.704 93.697,369.665C93.722,369.625 93.744,369.552 93.763,369.444C93.783,369.297 93.805,369.123 93.829,368.922C93.854,368.721 93.878,368.503 93.903,368.268C93.927,368.033 93.947,367.791 93.962,367.541C93.976,367.291 93.984,367.043 93.984,366.799C93.984,366.25 93.967,365.784 93.932,365.402C93.898,365.02 93.837,364.711 93.749,364.476C93.66,364.241 93.54,364.072 93.388,363.969C93.237,363.866 93.043,363.815 92.808,363.815L92.676,363.815C92.636,363.815 92.597,363.82 92.558,363.83C92.499,363.83 92.47,363.8 92.47,363.741C92.47,363.683 92.499,363.639 92.558,363.609C92.666,363.541 92.832,363.44 93.058,363.308C93.283,363.176 93.516,363.048 93.756,362.926C93.996,362.803 94.229,362.693 94.454,362.595C94.679,362.497 94.846,362.448 94.954,362.448C95.081,362.448 95.189,362.49 95.277,362.573C95.365,362.656 95.431,362.762 95.476,362.889C95.52,363.016 95.551,363.161 95.571,363.323C95.591,363.484 95.6,363.643 95.6,363.8C95.6,363.918 95.598,364.04 95.593,364.168C95.588,364.295 95.586,364.432 95.586,364.579C96.027,363.932 96.424,363.43 96.776,363.073C97.129,362.715 97.462,362.536 97.776,362.536C97.893,362.536 98.008,362.585 98.121,362.683C98.234,362.781 98.354,362.891 98.481,363.014C98.609,363.136 98.741,363.247 98.878,363.345C99.015,363.443 99.157,363.492 99.304,363.492C99.432,363.492 99.525,363.477 99.583,363.447C99.642,363.418 99.691,363.394 99.73,363.374C99.809,363.374 99.848,363.428 99.848,363.536L99.848,363.55Z" style="fill-rule:nonzero;"/>
            <path d="M101.876,367.239C101.876,367.445 101.881,367.644 101.891,367.835C101.901,368.026 101.935,368.19 101.994,368.327C102.053,368.464 102.141,368.574 102.258,368.658C102.376,368.741 102.543,368.783 102.758,368.783C102.866,368.783 102.988,368.77 103.126,368.746C103.263,368.721 103.393,368.69 103.515,368.65C103.638,368.611 103.745,368.572 103.838,368.533C103.932,368.494 103.988,368.464 104.007,368.445C104.037,368.415 104.056,368.415 104.066,368.445C104.076,368.474 104.079,368.511 104.074,368.555C104.069,368.599 104.056,368.643 104.037,368.687C104.017,368.731 103.993,368.763 103.963,368.783C103.865,368.832 103.694,368.92 103.449,369.047C103.204,369.175 102.915,369.307 102.582,369.444C102.268,369.581 101.962,369.696 101.663,369.789C101.364,369.883 101.117,369.929 100.921,369.929C100.696,369.929 100.519,369.861 100.392,369.723C100.264,369.586 100.201,369.415 100.201,369.209C100.201,369.14 100.203,369.082 100.208,369.033C100.213,368.984 100.22,368.92 100.23,368.841C100.24,368.744 100.257,368.565 100.282,368.305C100.306,368.045 100.331,367.754 100.355,367.431C100.38,367.107 100.402,366.781 100.421,366.453C100.441,366.125 100.451,365.843 100.451,365.608L100.451,365.094C100.451,364.839 100.436,364.613 100.407,364.418C100.377,364.222 100.328,364.07 100.26,363.962C100.211,363.893 100.149,363.837 100.076,363.793C100.002,363.749 99.912,363.727 99.804,363.727C99.745,363.727 99.686,363.739 99.628,363.763C99.569,363.788 99.525,363.8 99.495,363.8C99.476,363.8 99.444,363.771 99.4,363.712C99.356,363.653 99.358,363.609 99.407,363.58C99.476,363.531 99.618,363.452 99.833,363.345C100.049,363.237 100.284,363.119 100.539,362.992C100.813,362.855 101.078,362.735 101.333,362.632C101.587,362.529 101.769,362.477 101.876,362.477C101.984,362.477 102.058,362.509 102.097,362.573C102.136,362.637 102.156,362.708 102.156,362.786L102.156,362.845C102.156,362.943 102.141,363.1 102.111,363.315C102.082,363.531 102.05,363.795 102.016,364.109C101.982,364.422 101.95,364.785 101.92,365.196C101.891,365.608 101.876,366.054 101.876,366.534L101.876,367.239ZM101.288,359.597C101.337,359.606 101.418,359.66 101.531,359.758C101.644,359.856 101.759,359.969 101.876,360.096C101.994,360.224 102.097,360.346 102.185,360.464C102.273,360.581 102.317,360.66 102.317,360.699C102.317,360.748 102.258,360.821 102.141,360.919C102.023,361.017 101.889,361.118 101.737,361.221C101.585,361.324 101.438,361.414 101.296,361.493C101.154,361.571 101.053,361.61 100.994,361.61C100.965,361.61 100.894,361.564 100.781,361.471C100.669,361.378 100.554,361.272 100.436,361.155C100.318,361.037 100.213,360.922 100.12,360.809C100.027,360.697 99.98,360.621 99.98,360.581C99.98,360.532 100.044,360.456 100.171,360.354C100.299,360.251 100.438,360.143 100.59,360.03C100.742,359.918 100.889,359.82 101.031,359.736C101.173,359.653 101.259,359.606 101.288,359.597Z" style="fill-rule:nonzero;"/>
            <path d="M109.181,369.121C108.868,369.317 108.48,369.493 108.02,369.65C107.559,369.807 107.114,369.885 106.682,369.885C106.545,369.885 106.391,369.875 106.219,369.856C106.048,369.836 105.908,369.816 105.801,369.797C105.791,369.983 105.783,370.174 105.779,370.37C105.774,370.566 105.769,370.755 105.764,370.936C105.759,371.117 105.754,371.286 105.749,371.443C105.744,371.6 105.742,371.732 105.742,371.84C105.742,372.34 105.783,372.678 105.867,372.854C105.95,373.03 106.08,373.119 106.256,373.119C106.344,373.119 106.464,373.106 106.616,373.082C106.768,373.057 106.903,373.016 107.021,372.957C107.04,372.937 107.062,372.957 107.087,373.016C107.111,373.074 107.123,373.128 107.123,373.177C107.123,373.187 107.055,373.214 106.918,373.258C106.78,373.302 106.607,373.356 106.396,373.42C106.185,373.484 105.957,373.552 105.712,373.626C105.467,373.699 105.232,373.768 105.007,373.831C104.782,373.895 104.588,373.946 104.426,373.986C104.265,374.025 104.164,374.044 104.125,374.044C104.066,374.044 104.012,374.04 103.963,374.03C103.914,374.02 103.89,373.976 103.89,373.897C103.89,373.849 103.907,373.817 103.941,373.802C103.976,373.787 104.003,373.765 104.022,373.736C104.071,373.677 104.101,373.567 104.11,373.405C104.12,373.243 104.135,373.084 104.154,372.927C104.184,372.545 104.216,372.092 104.25,371.568C104.284,371.044 104.316,370.495 104.346,369.922C104.375,369.349 104.402,368.775 104.426,368.202C104.451,367.629 104.463,367.107 104.463,366.637C104.463,365.971 104.436,365.449 104.382,365.072C104.328,364.694 104.252,364.415 104.154,364.234C104.056,364.053 103.946,363.94 103.824,363.896C103.701,363.852 103.571,363.83 103.434,363.83C103.405,363.83 103.363,363.832 103.309,363.837C103.255,363.842 103.204,363.844 103.155,363.844C103.116,363.844 103.096,363.81 103.096,363.741C103.096,363.692 103.099,363.661 103.104,363.646C103.108,363.631 103.131,363.614 103.17,363.594C103.219,363.565 103.309,363.516 103.442,363.447C103.574,363.379 103.726,363.303 103.897,363.22C104.069,363.136 104.252,363.048 104.448,362.955C104.644,362.862 104.828,362.779 105,362.705C105.171,362.632 105.32,362.57 105.448,362.522C105.575,362.473 105.663,362.448 105.712,362.448C105.859,362.448 105.96,362.512 106.014,362.639C106.068,362.766 106.099,362.938 106.109,363.154C106.109,363.242 106.107,363.381 106.102,363.572C106.097,363.763 106.09,363.981 106.08,364.226C106.207,364.089 106.381,363.92 106.602,363.719C106.822,363.518 107.072,363.325 107.351,363.139C107.63,362.953 107.924,362.793 108.233,362.661C108.542,362.529 108.843,362.463 109.137,362.463C109.558,362.463 109.933,362.539 110.261,362.691C110.59,362.842 110.862,363.043 111.077,363.293C111.293,363.543 111.457,363.827 111.569,364.146C111.682,364.464 111.738,364.79 111.738,365.123C111.738,365.593 111.667,366.027 111.525,366.424C111.383,366.821 111.209,367.173 111.004,367.482C110.798,367.791 110.572,368.058 110.327,368.283C110.083,368.508 109.857,368.685 109.651,368.812L109.181,369.121ZM105.874,367.989C105.903,368.097 105.982,368.207 106.109,368.32C106.237,368.432 106.401,368.535 106.602,368.628C106.803,368.721 107.033,368.8 107.292,368.864C107.552,368.927 107.829,368.959 108.123,368.959C108.387,368.959 108.64,368.908 108.88,368.805C109.12,368.702 109.328,368.54 109.504,368.32C109.681,368.099 109.82,367.813 109.923,367.46C110.026,367.107 110.078,366.681 110.078,366.181C110.078,365.828 110.029,365.495 109.931,365.182C109.833,364.868 109.691,364.594 109.504,364.359C109.318,364.124 109.098,363.94 108.843,363.808C108.588,363.675 108.309,363.609 108.005,363.609C107.848,363.609 107.675,363.643 107.483,363.712C107.292,363.781 107.109,363.874 106.932,363.991C106.756,364.109 106.592,364.246 106.44,364.403C106.288,364.56 106.178,364.726 106.109,364.903C106.06,365.02 106.019,365.204 105.984,365.454C105.95,365.704 105.926,365.978 105.911,366.277C105.896,366.576 105.886,366.877 105.881,367.181C105.877,367.484 105.874,367.754 105.874,367.989Z" style="fill-rule:nonzero;"/>
            <path d="M119.293,367.754C119.313,367.734 119.33,367.737 119.345,367.761C119.359,367.786 119.369,367.82 119.374,367.864C119.379,367.908 119.376,367.955 119.367,368.004C119.357,368.053 119.337,368.092 119.308,368.121C119.112,368.307 118.867,368.503 118.573,368.709C118.279,368.915 117.975,369.106 117.662,369.282C117.573,369.331 117.451,369.395 117.294,369.473C117.137,369.552 116.963,369.628 116.772,369.701C116.581,369.775 116.385,369.838 116.185,369.892C115.984,369.946 115.795,369.973 115.619,369.973C115.266,369.973 114.933,369.905 114.619,369.767C114.306,369.63 114.031,369.442 113.796,369.202C113.561,368.962 113.377,368.675 113.245,368.342C113.113,368.009 113.047,367.646 113.047,367.254C113.047,366.833 113.105,366.436 113.223,366.064C113.341,365.691 113.475,365.358 113.627,365.064C113.779,364.77 113.924,364.523 114.061,364.322C114.198,364.121 114.291,363.972 114.34,363.874C114.154,363.864 113.985,363.857 113.833,363.852C113.681,363.847 113.536,363.844 113.399,363.844C113.086,363.844 112.821,363.847 112.606,363.852C112.39,363.857 112.199,363.879 112.032,363.918C111.954,363.937 111.881,363.977 111.812,364.035C111.743,364.094 111.685,364.138 111.636,364.168C111.616,364.148 111.589,364.121 111.555,364.087C111.52,364.053 111.503,364.016 111.503,363.977C111.503,363.957 111.508,363.942 111.518,363.932C111.518,363.923 111.582,363.866 111.709,363.763C111.836,363.661 111.996,363.538 112.187,363.396C112.378,363.254 112.588,363.097 112.819,362.926C113.049,362.754 113.269,362.595 113.48,362.448C113.691,362.301 113.872,362.176 114.024,362.073C114.176,361.97 114.276,361.909 114.325,361.89C114.384,361.87 114.443,361.88 114.502,361.919C114.56,361.958 114.58,361.987 114.56,362.007C114.531,362.027 114.487,362.063 114.428,362.117C114.369,362.171 114.35,362.218 114.369,362.257C114.477,362.345 114.663,362.424 114.928,362.492C115.192,362.561 115.491,362.617 115.824,362.661C116.158,362.705 116.501,362.74 116.853,362.764C117.206,362.789 117.524,362.801 117.809,362.801C118.23,362.801 118.568,362.789 118.823,362.764C119.077,362.74 119.288,362.708 119.455,362.668C119.612,362.629 119.714,362.6 119.763,362.58C119.773,362.58 119.793,362.595 119.822,362.624C119.852,362.654 119.866,362.688 119.866,362.727C119.866,362.747 119.795,362.796 119.653,362.874C119.511,362.953 119.367,363.036 119.22,363.124C119.131,363.173 119.026,363.237 118.904,363.315C118.781,363.394 118.649,363.47 118.507,363.543C118.365,363.616 118.215,363.683 118.058,363.741C117.902,363.8 117.75,363.834 117.603,363.844C117.456,363.864 117.284,363.879 117.088,363.888C116.892,363.898 116.687,363.906 116.471,363.91C116.256,363.915 116.038,363.92 115.817,363.925C115.597,363.93 115.393,363.932 115.207,363.932C115.178,363.981 115.131,364.062 115.067,364.175C115.004,364.288 114.943,364.432 114.884,364.609C114.825,364.785 114.771,364.986 114.722,365.211C114.673,365.437 114.649,365.681 114.649,365.946C114.649,366.348 114.71,366.718 114.832,367.056C114.955,367.394 115.126,367.685 115.347,367.93C115.567,368.175 115.829,368.366 116.133,368.503C116.437,368.641 116.765,368.709 117.118,368.709C117.324,368.709 117.522,368.685 117.713,368.636C117.904,368.587 118.085,368.523 118.257,368.445C118.428,368.366 118.588,368.281 118.735,368.187C118.882,368.094 119.009,368.004 119.117,367.916L119.293,367.754Z" style="fill-rule:nonzero;"/>
        </g>
        <g transform="matrix(1,0,0,1,-100.189,-34.4013)">
            <text x="71.261px" y="355.099px" style="font-family:'Luminari-Regular', 'Luminari';font-size:14.698px;">Remote</text>
            <text x="77.405px" y="369.797px" style="font-family:'Luminari-Regular', 'Luminari';font-size:14.698px;">Script</text>
        </g>
        <g transform="matrix(0.0219124,0,0,0.0248558,-13.0379,285.934)">
            <g transform="matrix(55.8954,0,0,49.2765,-878.032,-330.791)">
                <path d="M27.733,13.757C27.957,11.616 28.949,10 30.136,10C31.489,10 32.587,12.095 32.587,14.677C32.587,15.669 32.424,16.59 32.148,17.347C32.432,17.974 32.587,18.65 32.587,19.353C32.587,22.678 29.128,25.378 24.868,25.378C20.609,25.378 17.15,22.678 17.15,19.353C17.15,18.65 17.305,17.974 17.589,17.347C17.313,16.59 17.15,15.669 17.15,14.677C17.15,12.095 18.248,10 19.601,10C20.788,10 21.779,11.616 22.003,13.757L22.04,13.746C22.915,13.476 23.87,13.328 24.868,13.328C25.881,13.328 26.847,13.48 27.733,13.757ZM17.609,17.304L17.606,17.31L17.609,17.304ZM32.128,17.305L32.131,17.31L32.128,17.305ZM17.627,17.265L17.623,17.273L17.627,17.265ZM32.11,17.266L32.113,17.273L32.11,17.266ZM17.645,17.227L17.641,17.236L17.645,17.227ZM32.092,17.228L32.096,17.236L32.092,17.228ZM17.663,17.19L17.659,17.2L17.663,17.19ZM32.074,17.191L32.078,17.199L32.074,17.191ZM17.682,17.153L17.677,17.162L17.682,17.153ZM32.055,17.154L32.059,17.161L32.055,17.154ZM17.7,17.117L17.696,17.125L17.7,17.117ZM32.037,17.117L32.04,17.123L32.037,17.117ZM17.719,17.081L17.717,17.085L17.719,17.081ZM32.018,17.081L32.019,17.082L32.018,17.081ZM17.782,16.964L17.778,16.971L17.782,16.964ZM31.957,16.968L31.958,16.97L31.957,16.968ZM17.804,16.925L17.798,16.935L17.804,16.925ZM31.935,16.928L31.938,16.934L31.935,16.928ZM17.825,16.888L17.818,16.9L17.825,16.888ZM31.914,16.891L31.918,16.899L31.914,16.891ZM17.845,16.852L17.838,16.865L17.845,16.852ZM31.893,16.854L31.898,16.863L31.893,16.854ZM17.866,16.817L17.859,16.829L17.866,16.817ZM31.871,16.819L31.876,16.827L31.871,16.819ZM17.888,16.782L17.88,16.794L17.888,16.782ZM31.85,16.783L31.855,16.791L31.85,16.783ZM17.909,16.747L17.902,16.758L17.909,16.747ZM31.829,16.748L31.832,16.754L31.829,16.748ZM17.931,16.712L17.925,16.72L17.931,16.712ZM31.807,16.713L31.808,16.714L31.807,16.713ZM17.979,16.635L17.975,16.642L17.979,16.635ZM18.005,16.596L17.998,16.608L18.005,16.596ZM31.735,16.602L31.738,16.606L31.735,16.602ZM18.029,16.561L18.02,16.573L18.029,16.561ZM31.711,16.564L31.716,16.572L31.711,16.564ZM18.052,16.526L18.043,16.539L18.052,16.526ZM31.686,16.529L31.692,16.537L31.686,16.529ZM18.076,16.492L18.066,16.505L18.076,16.492ZM31.663,16.494L31.669,16.503L31.663,16.494ZM18.1,16.458L18.09,16.471L18.1,16.458ZM31.639,16.459L31.645,16.469L31.639,16.459ZM18.124,16.424L18.114,16.437L18.124,16.424ZM31.614,16.425L31.62,16.434L31.614,16.425ZM18.148,16.39L18.139,16.403L18.148,16.39ZM31.59,16.392L31.595,16.398L31.59,16.392ZM18.172,16.357L18.164,16.367L18.172,16.357ZM31.566,16.358L31.567,16.36L31.566,16.358ZM18.197,16.324L18.196,16.324L18.197,16.324ZM18.23,16.28L18.222,16.291L18.23,16.28ZM31.513,16.288L31.514,16.289L31.513,16.288ZM18.257,16.245L18.247,16.258L18.257,16.245ZM31.484,16.249L31.489,16.256L31.484,16.249ZM18.283,16.211L18.272,16.225L18.283,16.211ZM31.456,16.214L31.463,16.223L31.456,16.214ZM18.309,16.178L18.298,16.192L18.309,16.178ZM31.43,16.18L31.438,16.19L31.43,16.18ZM18.335,16.145L18.324,16.16L18.335,16.145ZM31.403,16.147L31.411,16.158L31.403,16.147ZM18.362,16.113L18.35,16.127L18.362,16.113ZM31.376,16.114L31.385,16.125L31.376,16.114ZM18.388,16.081L18.377,16.094L18.388,16.081ZM31.35,16.082L31.357,16.091L31.35,16.082ZM18.415,16.049L18.404,16.061L18.415,16.049ZM31.323,16.05L31.329,16.057L31.323,16.05ZM18.442,16.017L18.433,16.027L18.442,16.017ZM31.295,16.018L31.298,16.021L31.295,16.018ZM18.473,15.981L18.469,15.985L18.473,15.981ZM18.507,15.942L18.497,15.954L18.507,15.942ZM31.234,15.947L31.239,15.953L31.234,15.947ZM18.536,15.909L18.525,15.922L18.536,15.909ZM31.203,15.912L31.211,15.921L31.203,15.912ZM18.565,15.877L18.553,15.891L18.565,15.877ZM31.174,15.879L31.183,15.89L31.174,15.879ZM18.594,15.846L18.581,15.86L18.594,15.846ZM31.145,15.847L31.155,15.859L31.145,15.847ZM18.622,15.815L18.61,15.828L18.622,15.815ZM31.115,15.816L31.126,15.827L31.115,15.816ZM18.651,15.784L18.639,15.797L18.651,15.784ZM31.086,15.785L31.097,15.796L31.086,15.785ZM18.68,15.753L18.668,15.766L18.68,15.753ZM31.057,15.754L31.067,15.765L31.057,15.754ZM18.71,15.723L18.698,15.735L18.71,15.723ZM31.027,15.723L31.037,15.733L31.027,15.723ZM18.739,15.692L18.73,15.702L18.739,15.692ZM30.998,15.693L31.003,15.698L30.998,15.693ZM18.775,15.656L18.769,15.662L18.775,15.656ZM30.965,15.659L30.967,15.662L30.965,15.659ZM18.81,15.621L18.799,15.632L18.81,15.621ZM30.928,15.622L30.937,15.632L30.928,15.622ZM18.842,15.59L18.83,15.602L18.842,15.59ZM30.895,15.591L30.907,15.602L30.895,15.591ZM18.873,15.56L18.86,15.572L18.873,15.56ZM30.864,15.56L30.876,15.572L30.864,15.56ZM18.904,15.53L18.891,15.543L18.904,15.53ZM30.832,15.53L30.846,15.543L30.832,15.53ZM30.801,15.5L30.814,15.513L30.801,15.5ZM18.936,15.501L18.923,15.513L18.936,15.501ZM30.769,15.471L30.783,15.484L30.769,15.471ZM18.967,15.471L18.954,15.483L18.967,15.471ZM30.738,15.442L30.751,15.454L30.738,15.442ZM18.999,15.442L18.986,15.454L18.999,15.442ZM30.706,15.413L30.719,15.425L30.706,15.413ZM19.031,15.413L19.019,15.424L19.031,15.413ZM30.674,15.384L30.684,15.394L30.674,15.384ZM19.063,15.385L19.056,15.391L19.063,15.385ZM30.63,15.346L30.642,15.356L30.63,15.346ZM19.101,15.35L19.095,15.356L19.101,15.35ZM30.595,15.315L30.61,15.328L30.595,15.315ZM19.139,15.318L19.128,15.327L19.139,15.318ZM30.561,15.286L30.577,15.3L30.561,15.286ZM19.173,15.288L19.161,15.299L19.173,15.288ZM30.528,15.258L30.544,15.272L30.528,15.258ZM19.207,15.26L19.194,15.271L19.207,15.26ZM30.494,15.23L30.511,15.244L30.494,15.23ZM19.241,15.231L19.227,15.243L19.241,15.231ZM30.461,15.202L30.478,15.216L30.461,15.202ZM19.274,15.204L19.261,15.215L19.274,15.204ZM30.427,15.175L30.444,15.189L30.427,15.175ZM19.308,15.176L19.295,15.187L19.308,15.176ZM30.393,15.147L30.41,15.161L30.393,15.147ZM19.342,15.149L19.33,15.158L19.342,15.149ZM30.359,15.12L30.376,15.134L30.359,15.12ZM19.377,15.121L19.366,15.129L19.377,15.121ZM30.325,15.093L30.343,15.107L30.326,15.094L30.305,15.078L30.325,15.093ZM19.411,15.094L19.409,15.096L19.411,15.094ZM30.273,15.053L30.292,15.068L30.273,15.053ZM19.452,15.062L19.446,15.067L19.452,15.062ZM30.238,15.027L30.257,15.041L30.238,15.027ZM19.492,15.032L19.481,15.04L19.492,15.032ZM30.203,15L30.222,15.015L30.203,15ZM19.529,15.004L19.516,15.013L19.529,15.004ZM30.168,14.974L30.187,14.989L30.168,14.974ZM19.565,14.977L19.552,14.987L19.565,14.977ZM30.132,14.948L30.152,14.963L30.132,14.948ZM19.601,14.951L19.588,14.961L19.601,14.951ZM30.097,14.922L30.117,14.937L30.097,14.922ZM19.637,14.925L19.624,14.934L19.637,14.925ZM30.061,14.897L30.081,14.911L30.061,14.897ZM19.673,14.899L19.661,14.908L19.673,14.899ZM30.025,14.871L30.046,14.886L30.025,14.871ZM19.71,14.873L19.698,14.881L19.71,14.873ZM29.988,14.846L30.011,14.862L29.988,14.846ZM19.746,14.848L19.738,14.853L19.746,14.848ZM29.954,14.822L29.915,14.796C29.928,14.805 29.941,14.813 29.954,14.822ZM19.826,14.793L19.821,14.796L19.826,14.793ZM29.858,14.758L29.881,14.773L29.858,14.758ZM19.868,14.765L19.858,14.771L19.868,14.765ZM29.822,14.734L29.845,14.749L29.822,14.734ZM19.907,14.739L19.896,14.747L19.907,14.739ZM29.785,14.71L29.807,14.724L29.785,14.71ZM19.946,14.714L19.933,14.722L19.946,14.714ZM29.747,14.686L29.77,14.7L29.747,14.686ZM19.984,14.689L19.971,14.697L19.984,14.689ZM29.71,14.662L29.733,14.676L29.71,14.662ZM20.023,14.665L20.01,14.673L20.023,14.665ZM29.672,14.638L29.696,14.653L29.672,14.638ZM20.061,14.641L20.049,14.648L20.061,14.641ZM29.634,14.615L29.659,14.63L29.634,14.615ZM20.099,14.617L20.09,14.623L20.099,14.617ZM29.494,14.531C29.537,14.556 29.58,14.582 29.623,14.608C29.581,14.582 29.538,14.556 29.494,14.531ZM20.138,14.593L20.134,14.596L20.138,14.593ZM20.221,14.543L20.218,14.545L20.221,14.543ZM29.458,14.51L29.483,14.525L29.458,14.51ZM20.266,14.517L20.257,14.522L20.266,14.517ZM29.42,14.488L29.444,14.502L29.42,14.488ZM20.308,14.493L20.297,14.499L20.308,14.493ZM29.381,14.466L29.405,14.48L29.381,14.466ZM20.349,14.47L20.337,14.477L20.349,14.47ZM29.341,14.444L29.366,14.457L29.341,14.444ZM20.389,14.447L20.377,14.454L20.389,14.447ZM29.302,14.422L29.327,14.436L29.302,14.422ZM20.43,14.425L20.418,14.431L20.43,14.425ZM29.262,14.4L29.288,14.414L29.262,14.4ZM20.47,14.403L20.46,14.408L20.47,14.403ZM29.222,14.379L29.249,14.393L29.222,14.379ZM20.51,14.381L20.503,14.385L20.51,14.381ZM29.186,14.359L29.143,14.337C29.157,14.344 29.171,14.352 29.186,14.359ZM29.077,14.303L29.105,14.317L29.077,14.303ZM20.638,14.314L20.636,14.315L20.638,14.314ZM29.038,14.283L29.064,14.296L29.038,14.283ZM20.685,14.29L20.677,14.294L20.685,14.29ZM28.998,14.263L29.023,14.276L28.998,14.263ZM20.729,14.268L20.719,14.273L20.729,14.268ZM28.957,14.243L28.982,14.255L28.957,14.243ZM20.772,14.247L20.761,14.252L20.772,14.247ZM28.916,14.223L28.941,14.235L28.916,14.223ZM20.814,14.226L20.803,14.232L20.814,14.226ZM28.875,14.203L28.899,14.215L28.875,14.203ZM20.857,14.206L20.846,14.211L20.857,14.206ZM28.833,14.184L28.858,14.195L28.833,14.184ZM20.899,14.186L20.891,14.19L20.899,14.186ZM28.791,14.164L28.817,14.176L28.791,14.164ZM20.942,14.166L20.937,14.168L20.942,14.166ZM28.752,14.146L28.707,14.126C28.722,14.133 28.737,14.139 28.752,14.146ZM28.643,14.097L28.667,14.108L28.643,14.097ZM21.075,14.106L21.074,14.106L21.075,14.106ZM28.601,14.079L28.624,14.089L28.601,14.079ZM21.124,14.084L21.117,14.087L21.124,14.084ZM28.558,14.061L28.581,14.071L28.558,14.061ZM21.17,14.065L21.161,14.068L21.17,14.065ZM28.516,14.043L28.538,14.052L28.516,14.043ZM21.215,14.046L21.204,14.05L21.215,14.046ZM28.473,14.025L28.494,14.034L28.473,14.025ZM21.259,14.027L21.249,14.031L21.259,14.027ZM28.429,14.007L28.451,14.016L28.429,14.007ZM21.303,14.009L21.294,14.013L21.303,14.009ZM28.386,13.989L28.406,13.998L28.386,13.989ZM21.347,13.991L21.341,13.994L21.347,13.991ZM28.342,13.972L28.361,13.979L28.342,13.972ZM21.392,13.973L21.391,13.974L21.392,13.973ZM28.298,13.955L28.311,13.96L28.298,13.955ZM28.243,13.934L28.254,13.938L28.243,13.934ZM28.195,13.915L28.21,13.921L28.195,13.915ZM21.531,13.92L21.53,13.92L21.531,13.92ZM28.149,13.898L28.165,13.904L28.149,13.898ZM21.581,13.901L21.575,13.903L21.581,13.901ZM28.103,13.882L28.119,13.888L28.103,13.882ZM21.629,13.884L21.62,13.887L21.629,13.884ZM28.058,13.866L28.074,13.871L28.058,13.866ZM21.675,13.867L21.666,13.87L21.675,13.867ZM28.013,13.85L28.028,13.855L28.013,13.85ZM21.721,13.851L21.713,13.854L21.721,13.851ZM27.968,13.834L27.981,13.839L27.968,13.834ZM21.767,13.835L21.76,13.837L21.767,13.835ZM27.922,13.819L27.932,13.822L27.922,13.819ZM21.813,13.819L21.809,13.821L21.813,13.819ZM27.877,13.803L27.879,13.804L27.877,13.803Z" style="fill:none;stroke:black;stroke-width:1.22px;"/>
            </g>
            <g transform="matrix(55.8954,0,0,49.2765,-878.032,-330.791)">
                <path d="M25.128,19.358C24.963,19.04 24.868,18.67 24.868,18.275C24.868,17.096 25.713,16.138 26.753,16.138C27.793,16.138 28.637,17.096 28.637,18.275C28.637,19.031 28.291,19.696 27.768,20.076C27.128,19.668 26.188,19.396 25.128,19.358ZM21.969,20.076C21.446,19.696 21.099,19.031 21.099,18.275C21.099,17.096 21.944,16.138 22.984,16.138C24.024,16.138 24.868,17.096 24.868,18.275C24.868,18.67 24.774,19.04 24.609,19.358C23.549,19.396 22.609,19.668 21.969,20.076Z" style="fill:none;stroke:black;stroke-width:1.22px;"/>
            </g>
            <g transform="matrix(1,0,0,1,-53.1856,50.0357)">
                <ellipse cx="565.186" cy="671.455" rx="210.672" ry="98.631" style="fill:none;stroke:black;stroke-width:63.81px;"/>
            </g>
            <g transform="matrix(51.2,0,0,45.1371,0.670978,88.9676)">
                <path d="M12.057,13.791C12.057,13.668 11.958,13.568 11.835,13.568L8.139,13.568C8.016,13.568 7.916,13.668 7.916,13.791L7.916,14.236C7.916,14.359 8.016,14.458 8.139,14.458L11.835,14.458C11.958,14.458 12.057,14.359 12.057,14.236L12.057,13.791Z"/>
            </g>
        </g>
    </g>
</svg>
