<?xml version="1.0" encoding="UTF-8" standalone="no"?>
<!DOCTYPE svg PUBLIC "-//W3C//DTD SVG 1.1//EN" "http://www.w3.org/Graphics/SVG/1.1/DTD/svg11.dtd">
<svg width="100%" height="100%" viewBox="0 0 105 380" version="1.1" xmlns="http://www.w3.org/2000/svg" xmlns:xlink="http://www.w3.org/1999/xlink" xml:space="preserve" xmlns:serif="http://www.serif.com/" style="fill-rule:evenodd;clip-rule:evenodd;stroke-linecap:round;stroke-linejoin:round;stroke-miterlimit:1.5;">
    <g transform="matrix(0.504595,0,0,2.01589,-26.5196,-120.797)">
        <rect x="52.556" y="59.922" width="208.087" height="188.503" style="fill:rgb(102,126,153);"/>
    </g>
    <g id="_-Group-" serif:id="(Group)" transform="matrix(0.386516,0,0,0.386516,92.8652,343.089)">
        <g transform="matrix(0.870461,0,0,0.870461,4.14525,4.14525)">
            <path d="M64,18.551L64,45.449L45.449,64L18.551,64L0,45.449L0,18.551L18.551,0L45.449,0L64,18.551Z" style="fill:rgb(191,191,191);stroke:black;stroke-width:8.04px;"/>
        </g>
        <g transform="matrix(0.731666,0,0,0.731666,8.58668,8.58668)">
            <path d="M42.726,10.61L3.227,10.61L3.227,21.547L12.25,21.547L12.25,53.39L22.976,53.39L22.976,21.547L32,21.547L32,53.39L60.773,53.39L60.773,42.453L42.726,42.453L42.726,10.61Z"/>
        </g>
    </g>
    <g transform="matrix(1,0,0,1,-20.1899,277.433)">
        <g transform="matrix(1,0,0,1,-1.47013,-73.8298)">
            <path d="M89.618,120.356L89.618,113.236L90.638,113.236L90.638,113.696C90.765,113.55 90.895,113.426 91.028,113.326C91.161,113.226 91.355,113.176 91.608,113.176C92.028,113.176 92.325,113.336 92.498,113.656C92.558,113.77 92.601,113.91 92.628,114.076C92.655,114.243 92.668,114.466 92.668,114.746L92.668,116.676C92.668,117.05 92.658,117.32 92.638,117.486C92.598,117.82 92.445,118.07 92.178,118.236C92.045,118.323 91.851,118.366 91.598,118.366C91.398,118.366 91.22,118.321 91.063,118.231C90.906,118.141 90.771,118.013 90.658,117.846L90.638,117.846L90.638,120.356L89.618,120.356ZM91.648,114.886C91.648,114.68 91.608,114.513 91.528,114.386C91.448,114.26 91.321,114.196 91.148,114.196C90.995,114.196 90.871,114.255 90.778,114.371C90.685,114.488 90.638,114.64 90.638,114.826L90.638,116.796C90.638,116.956 90.686,117.088 90.783,117.191C90.88,117.295 91.001,117.346 91.148,117.346C91.341,117.346 91.473,117.286 91.543,117.166C91.613,117.046 91.648,116.906 91.648,116.746L91.648,114.886Z" style="fill:rgb(5,5,5);fill-rule:nonzero;"/>
            <path d="M95.438,118.306L95.438,117.786L95.418,117.786C95.285,117.973 95.15,118.116 95.013,118.216C94.876,118.316 94.685,118.366 94.438,118.366C94.318,118.366 94.196,118.348 94.073,118.311C93.95,118.275 93.831,118.206 93.718,118.106C93.605,118.013 93.513,117.878 93.443,117.701C93.373,117.525 93.338,117.296 93.338,117.016C93.338,116.73 93.361,116.478 93.408,116.261C93.455,116.045 93.541,115.863 93.668,115.716C93.788,115.576 93.951,115.471 94.158,115.401C94.365,115.331 94.628,115.296 94.948,115.296L95.058,115.296C95.098,115.296 95.135,115.3 95.168,115.306C95.201,115.313 95.241,115.316 95.288,115.316C95.335,115.316 95.385,115.32 95.438,115.326L95.438,114.796C95.438,114.623 95.401,114.48 95.328,114.366C95.255,114.253 95.121,114.196 94.928,114.196C94.795,114.196 94.673,114.24 94.563,114.326C94.453,114.413 94.381,114.54 94.348,114.706L93.358,114.706C93.385,114.253 93.538,113.886 93.818,113.606C93.951,113.473 94.111,113.368 94.298,113.291C94.485,113.215 94.695,113.176 94.928,113.176C95.141,113.176 95.341,113.21 95.528,113.276C95.715,113.343 95.878,113.443 96.018,113.576C96.151,113.71 96.258,113.876 96.338,114.076C96.418,114.276 96.458,114.51 96.458,114.776L96.458,118.306L95.438,118.306ZM95.438,116.126C95.325,116.106 95.231,116.096 95.158,116.096C94.938,116.096 94.75,116.148 94.593,116.251C94.436,116.355 94.358,116.543 94.358,116.816C94.358,117.01 94.405,117.166 94.498,117.286C94.591,117.406 94.721,117.466 94.888,117.466C95.061,117.466 95.196,117.41 95.293,117.296C95.39,117.183 95.438,117.023 95.438,116.816L95.438,116.126Z" style="fill:rgb(5,5,5);fill-rule:nonzero;"/>
            <path d="M99.058,114.656C99.051,114.483 98.996,114.353 98.893,114.266C98.79,114.18 98.671,114.136 98.538,114.136C98.378,114.136 98.255,114.188 98.168,114.291C98.081,114.395 98.038,114.513 98.038,114.646C98.038,114.74 98.061,114.831 98.108,114.921C98.155,115.011 98.275,115.093 98.468,115.166L99.068,115.406C99.448,115.553 99.71,115.753 99.853,116.006C99.996,116.26 100.068,116.536 100.068,116.836C100.068,117.05 100.03,117.248 99.953,117.431C99.876,117.615 99.771,117.776 99.638,117.916C99.505,118.056 99.345,118.166 99.158,118.246C98.971,118.326 98.768,118.366 98.548,118.366C98.135,118.366 97.788,118.236 97.508,117.976C97.368,117.85 97.255,117.691 97.168,117.501C97.081,117.311 97.035,117.09 97.028,116.836L97.988,116.836C98.008,116.976 98.056,117.106 98.133,117.226C98.21,117.346 98.345,117.406 98.538,117.406C98.685,117.406 98.816,117.358 98.933,117.261C99.05,117.165 99.108,117.03 99.108,116.856C99.108,116.716 99.071,116.596 98.998,116.496C98.925,116.396 98.791,116.31 98.598,116.236L98.108,116.056C97.788,115.936 97.536,115.758 97.353,115.521C97.17,115.285 97.078,114.996 97.078,114.656C97.078,114.443 97.118,114.245 97.198,114.061C97.278,113.878 97.388,113.72 97.528,113.586C97.661,113.453 97.818,113.351 97.998,113.281C98.178,113.211 98.371,113.176 98.578,113.176C98.785,113.176 98.976,113.213 99.153,113.286C99.33,113.36 99.481,113.463 99.608,113.596C99.735,113.73 99.835,113.888 99.908,114.071C99.981,114.255 100.018,114.45 100.018,114.656L99.058,114.656Z" style="fill:rgb(5,5,5);fill-rule:nonzero;"/>
            <path d="M102.578,114.656C102.571,114.483 102.516,114.353 102.413,114.266C102.31,114.18 102.191,114.136 102.058,114.136C101.898,114.136 101.775,114.188 101.688,114.291C101.601,114.395 101.558,114.513 101.558,114.646C101.558,114.74 101.581,114.831 101.628,114.921C101.675,115.011 101.795,115.093 101.988,115.166L102.588,115.406C102.968,115.553 103.23,115.753 103.373,116.006C103.516,116.26 103.588,116.536 103.588,116.836C103.588,117.05 103.55,117.248 103.473,117.431C103.396,117.615 103.291,117.776 103.158,117.916C103.025,118.056 102.865,118.166 102.678,118.246C102.491,118.326 102.288,118.366 102.068,118.366C101.655,118.366 101.308,118.236 101.028,117.976C100.888,117.85 100.775,117.691 100.688,117.501C100.601,117.311 100.555,117.09 100.548,116.836L101.508,116.836C101.528,116.976 101.576,117.106 101.653,117.226C101.73,117.346 101.865,117.406 102.058,117.406C102.205,117.406 102.336,117.358 102.453,117.261C102.57,117.165 102.628,117.03 102.628,116.856C102.628,116.716 102.591,116.596 102.518,116.496C102.445,116.396 102.311,116.31 102.118,116.236L101.628,116.056C101.308,115.936 101.056,115.758 100.873,115.521C100.69,115.285 100.598,114.996 100.598,114.656C100.598,114.443 100.638,114.245 100.718,114.061C100.798,113.878 100.908,113.72 101.048,113.586C101.181,113.453 101.338,113.351 101.518,113.281C101.698,113.211 101.891,113.176 102.098,113.176C102.305,113.176 102.496,113.213 102.673,113.286C102.85,113.36 103.001,113.463 103.128,113.596C103.255,113.73 103.355,113.888 103.428,114.071C103.501,114.255 103.538,114.45 103.538,114.656L102.578,114.656Z" style="fill:rgb(5,5,5);fill-rule:nonzero;"/>
        </g>
        <g transform="matrix(1,0,0,1,-1.47013,-73.8298)">
            <text x="89.198px" y="118.306px" style="font-family:'DINCondensed-Bold', 'DIN Condensed';font-weight:700;font-stretch:condensed;font-size:10px;fill:rgb(5,5,5);">pass</text>
        </g>
        <g transform="matrix(1,0,0,1,-7.98013,-83.3992)">
            <path d="M91.468,114.656C91.461,114.483 91.406,114.353 91.303,114.266C91.2,114.18 91.081,114.136 90.948,114.136C90.788,114.136 90.665,114.188 90.578,114.291C90.491,114.395 90.448,114.513 90.448,114.646C90.448,114.74 90.471,114.831 90.518,114.921C90.565,115.011 90.685,115.093 90.878,115.166L91.478,115.406C91.858,115.553 92.12,115.753 92.263,116.006C92.406,116.26 92.478,116.536 92.478,116.836C92.478,117.05 92.44,117.248 92.363,117.431C92.286,117.615 92.181,117.776 92.048,117.916C91.915,118.056 91.755,118.166 91.568,118.246C91.381,118.326 91.178,118.366 90.958,118.366C90.545,118.366 90.198,118.236 89.918,117.976C89.778,117.85 89.665,117.691 89.578,117.501C89.491,117.311 89.445,117.09 89.438,116.836L90.398,116.836C90.418,116.976 90.466,117.106 90.543,117.226C90.62,117.346 90.755,117.406 90.948,117.406C91.095,117.406 91.226,117.358 91.343,117.261C91.46,117.165 91.518,117.03 91.518,116.856C91.518,116.716 91.481,116.596 91.408,116.496C91.335,116.396 91.201,116.31 91.008,116.236L90.518,116.056C90.198,115.936 89.946,115.758 89.763,115.521C89.58,115.285 89.488,114.996 89.488,114.656C89.488,114.443 89.528,114.245 89.608,114.061C89.688,113.878 89.798,113.72 89.938,113.586C90.071,113.453 90.228,113.351 90.408,113.281C90.588,113.211 90.781,113.176 90.988,113.176C91.195,113.176 91.386,113.213 91.563,113.286C91.74,113.36 91.891,113.463 92.018,113.596C92.145,113.73 92.245,113.888 92.318,114.071C92.391,114.255 92.428,114.45 92.428,114.656L91.468,114.656Z" style="fill:rgb(5,5,5);fill-rule:nonzero;"/>
            <path d="M93.138,118.306L93.138,113.236L94.158,113.236L94.158,118.306L93.138,118.306ZM93.138,112.206L93.138,111.186L94.158,111.186L94.158,112.206L93.138,112.206Z" style="fill:rgb(5,5,5);fill-rule:nonzero;"/>
            <path d="M94.938,111.186L95.958,111.186L95.958,116.876C95.958,117.07 95.993,117.201 96.063,117.271C96.133,117.341 96.265,117.386 96.458,117.406L96.458,118.366C96.225,118.366 96.015,118.348 95.828,118.311C95.641,118.275 95.481,118.203 95.348,118.096C95.215,117.996 95.113,117.855 95.043,117.671C94.973,117.488 94.938,117.246 94.938,116.946L94.938,111.186Z" style="fill:rgb(5,5,5);fill-rule:nonzero;"/>
            <path d="M99.808,116.156L97.788,116.156L97.788,116.846C97.788,117.006 97.833,117.13 97.923,117.216C98.013,117.303 98.135,117.346 98.288,117.346C98.481,117.346 98.61,117.29 98.673,117.176C98.736,117.063 98.775,116.95 98.788,116.836L99.808,116.836C99.808,117.283 99.671,117.643 99.398,117.916C99.265,118.056 99.105,118.166 98.918,118.246C98.731,118.326 98.521,118.366 98.288,118.366C97.968,118.366 97.696,118.3 97.473,118.166C97.25,118.033 97.078,117.856 96.958,117.636C96.885,117.503 96.835,117.35 96.808,117.176C96.781,117.003 96.768,116.813 96.768,116.606L96.768,114.936C96.768,114.73 96.781,114.54 96.808,114.366C96.835,114.193 96.885,114.04 96.958,113.906C97.078,113.686 97.25,113.51 97.473,113.376C97.696,113.243 97.968,113.176 98.288,113.176C98.521,113.176 98.733,113.216 98.923,113.296C99.113,113.376 99.275,113.486 99.408,113.626C99.675,113.926 99.808,114.303 99.808,114.756L99.808,116.156ZM97.788,115.356L98.788,115.356L98.788,114.776C98.788,114.583 98.743,114.438 98.653,114.341C98.563,114.245 98.441,114.196 98.288,114.196C98.135,114.196 98.013,114.245 97.923,114.341C97.833,114.438 97.788,114.583 97.788,114.776L97.788,115.356Z" style="fill:rgb(5,5,5);fill-rule:nonzero;"/>
            <path d="M100.558,118.306L100.558,113.236L101.578,113.236L101.578,113.726L101.598,113.726C101.705,113.566 101.833,113.435 101.983,113.331C102.133,113.228 102.325,113.176 102.558,113.176C102.685,113.176 102.811,113.198 102.938,113.241C103.065,113.285 103.178,113.356 103.278,113.456C103.378,113.556 103.458,113.685 103.518,113.841C103.578,113.998 103.608,114.19 103.608,114.416L103.608,118.306L102.588,118.306L102.588,114.796C102.588,114.61 102.545,114.463 102.458,114.356C102.371,114.25 102.248,114.196 102.088,114.196C101.895,114.196 101.761,114.256 101.688,114.376C101.615,114.496 101.578,114.67 101.578,114.896L101.578,118.306L100.558,118.306Z" style="fill:rgb(5,5,5);fill-rule:nonzero;"/>
            <path d="M105.528,116.846C105.528,117.006 105.573,117.13 105.663,117.216C105.753,117.303 105.875,117.346 106.028,117.346C106.221,117.346 106.35,117.29 106.413,117.176C106.476,117.063 106.515,116.95 106.528,116.836L107.548,116.836C107.548,117.283 107.411,117.643 107.138,117.916C107.005,118.056 106.845,118.166 106.658,118.246C106.471,118.326 106.261,118.366 106.028,118.366C105.708,118.366 105.436,118.3 105.213,118.166C104.99,118.033 104.818,117.856 104.698,117.636C104.625,117.503 104.575,117.35 104.548,117.176C104.521,117.003 104.508,116.813 104.508,116.606L104.508,114.936C104.508,114.73 104.521,114.54 104.548,114.366C104.575,114.193 104.625,114.04 104.698,113.906C104.818,113.686 104.99,113.51 105.213,113.376C105.436,113.243 105.708,113.176 106.028,113.176C106.261,113.176 106.473,113.216 106.663,113.296C106.853,113.376 107.015,113.486 107.148,113.626C107.415,113.926 107.548,114.316 107.548,114.796L106.528,114.796C106.528,114.59 106.483,114.438 106.393,114.341C106.303,114.245 106.181,114.196 106.028,114.196C105.875,114.196 105.753,114.245 105.663,114.341C105.573,114.438 105.528,114.583 105.528,114.776L105.528,116.846Z" style="fill:rgb(5,5,5);fill-rule:nonzero;"/>
            <path d="M111.098,116.156L109.078,116.156L109.078,116.846C109.078,117.006 109.123,117.13 109.213,117.216C109.303,117.303 109.425,117.346 109.578,117.346C109.771,117.346 109.9,117.29 109.963,117.176C110.026,117.063 110.065,116.95 110.078,116.836L111.098,116.836C111.098,117.283 110.961,117.643 110.688,117.916C110.555,118.056 110.395,118.166 110.208,118.246C110.021,118.326 109.811,118.366 109.578,118.366C109.258,118.366 108.986,118.3 108.763,118.166C108.54,118.033 108.368,117.856 108.248,117.636C108.175,117.503 108.125,117.35 108.098,117.176C108.071,117.003 108.058,116.813 108.058,116.606L108.058,114.936C108.058,114.73 108.071,114.54 108.098,114.366C108.125,114.193 108.175,114.04 108.248,113.906C108.368,113.686 108.54,113.51 108.763,113.376C108.986,113.243 109.258,113.176 109.578,113.176C109.811,113.176 110.023,113.216 110.213,113.296C110.403,113.376 110.565,113.486 110.698,113.626C110.965,113.926 111.098,114.303 111.098,114.756L111.098,116.156ZM109.078,115.356L110.078,115.356L110.078,114.776C110.078,114.583 110.033,114.438 109.943,114.341C109.853,114.245 109.731,114.196 109.578,114.196C109.425,114.196 109.303,114.245 109.213,114.341C109.123,114.438 109.078,114.583 109.078,114.776L109.078,115.356Z" style="fill:rgb(5,5,5);fill-rule:nonzero;"/>
        </g>
        <g transform="matrix(1,0,0,1,-7.98013,-83.3992)">
            <text x="89.198px" y="118.306px" style="font-family:'DINCondensed-Bold', 'DIN Condensed';font-weight:700;font-stretch:condensed;font-size:10px;fill:rgb(5,5,5);">silence</text>
        </g>
        <g transform="matrix(1.45779,0,0,1,-47.9268,0)">
            <rect x="104.692" y="28.274" width="6.603" height="16.826" style="fill:rgb(128,128,128);"/>
        </g>
        <g transform="matrix(1,0,0,0.622231,-15.2887,8.76263)">
            <rect x="121.112" y="35.371" width="7.363" height="9.506" style="fill:rgb(179,179,179);"/>
        </g>
    </g>
    <g transform="matrix(1,0,0,1,-69.5448,194.763)">
        <path d="M91.468,114.656C91.461,114.483 91.406,114.353 91.303,114.266C91.2,114.18 91.081,114.136 90.948,114.136C90.788,114.136 90.665,114.188 90.578,114.291C90.491,114.395 90.448,114.513 90.448,114.646C90.448,114.74 90.471,114.831 90.518,114.921C90.565,115.011 90.685,115.093 90.878,115.166L91.478,115.406C91.858,115.553 92.12,115.753 92.263,116.006C92.406,116.26 92.478,116.536 92.478,116.836C92.478,117.05 92.44,117.248 92.363,117.431C92.286,117.615 92.181,117.776 92.048,117.916C91.915,118.056 91.755,118.166 91.568,118.246C91.381,118.326 91.178,118.366 90.958,118.366C90.545,118.366 90.198,118.236 89.918,117.976C89.778,117.85 89.665,117.691 89.578,117.501C89.491,117.311 89.445,117.09 89.438,116.836L90.398,116.836C90.418,116.976 90.466,117.106 90.543,117.226C90.62,117.346 90.755,117.406 90.948,117.406C91.095,117.406 91.226,117.358 91.343,117.261C91.46,117.165 91.518,117.03 91.518,116.856C91.518,116.716 91.481,116.596 91.408,116.496C91.335,116.396 91.201,116.31 91.008,116.236L90.518,116.056C90.198,115.936 89.946,115.758 89.763,115.521C89.58,115.285 89.488,114.996 89.488,114.656C89.488,114.443 89.528,114.245 89.608,114.061C89.688,113.878 89.798,113.72 89.938,113.586C90.071,113.453 90.228,113.351 90.408,113.281C90.588,113.211 90.781,113.176 90.988,113.176C91.195,113.176 91.386,113.213 91.563,113.286C91.74,113.36 91.891,113.463 92.018,113.596C92.145,113.73 92.245,113.888 92.318,114.071C92.391,114.255 92.428,114.45 92.428,114.656L91.468,114.656Z" style="fill:rgb(5,5,5);fill-rule:nonzero;"/>
        <path d="M93.138,113.236L93.138,111.696L94.158,111.696L94.158,113.236L94.788,113.236L94.788,114.036L94.158,114.036L94.158,116.846C94.158,116.966 94.17,117.06 94.193,117.126C94.216,117.193 94.255,117.243 94.308,117.276C94.361,117.31 94.426,117.33 94.503,117.336C94.58,117.343 94.675,117.346 94.788,117.346L94.788,118.306L94.368,118.306C94.135,118.306 93.94,118.27 93.783,118.196C93.626,118.123 93.501,118.03 93.408,117.916C93.315,117.803 93.246,117.675 93.203,117.531C93.16,117.388 93.138,117.25 93.138,117.116L93.138,114.036L92.628,114.036L92.628,113.236L93.138,113.236Z" style="fill:rgb(5,5,5);fill-rule:nonzero;"/>
        <path d="M98.128,116.156L96.108,116.156L96.108,116.846C96.108,117.006 96.153,117.13 96.243,117.216C96.333,117.303 96.455,117.346 96.608,117.346C96.801,117.346 96.93,117.29 96.993,117.176C97.056,117.063 97.095,116.95 97.108,116.836L98.128,116.836C98.128,117.283 97.991,117.643 97.718,117.916C97.585,118.056 97.425,118.166 97.238,118.246C97.051,118.326 96.841,118.366 96.608,118.366C96.288,118.366 96.016,118.3 95.793,118.166C95.57,118.033 95.398,117.856 95.278,117.636C95.205,117.503 95.155,117.35 95.128,117.176C95.101,117.003 95.088,116.813 95.088,116.606L95.088,114.936C95.088,114.73 95.101,114.54 95.128,114.366C95.155,114.193 95.205,114.04 95.278,113.906C95.398,113.686 95.57,113.51 95.793,113.376C96.016,113.243 96.288,113.176 96.608,113.176C96.841,113.176 97.053,113.216 97.243,113.296C97.433,113.376 97.595,113.486 97.728,113.626C97.995,113.926 98.128,114.303 98.128,114.756L98.128,116.156ZM96.108,115.356L97.108,115.356L97.108,114.776C97.108,114.583 97.063,114.438 96.973,114.341C96.883,114.245 96.761,114.196 96.608,114.196C96.455,114.196 96.333,114.245 96.243,114.341C96.153,114.438 96.108,114.583 96.108,114.776L96.108,115.356Z" style="fill:rgb(5,5,5);fill-rule:nonzero;"/>
        <path d="M100.808,118.306L100.808,117.786L100.788,117.786C100.655,117.973 100.52,118.116 100.383,118.216C100.246,118.316 100.055,118.366 99.808,118.366C99.688,118.366 99.566,118.348 99.443,118.311C99.32,118.275 99.201,118.206 99.088,118.106C98.975,118.013 98.883,117.878 98.813,117.701C98.743,117.525 98.708,117.296 98.708,117.016C98.708,116.73 98.731,116.478 98.778,116.261C98.825,116.045 98.911,115.863 99.038,115.716C99.158,115.576 99.321,115.471 99.528,115.401C99.735,115.331 99.998,115.296 100.318,115.296L100.428,115.296C100.468,115.296 100.505,115.3 100.538,115.306C100.571,115.313 100.611,115.316 100.658,115.316C100.705,115.316 100.755,115.32 100.808,115.326L100.808,114.796C100.808,114.623 100.771,114.48 100.698,114.366C100.625,114.253 100.491,114.196 100.298,114.196C100.165,114.196 100.043,114.24 99.933,114.326C99.823,114.413 99.751,114.54 99.718,114.706L98.728,114.706C98.755,114.253 98.908,113.886 99.188,113.606C99.321,113.473 99.481,113.368 99.668,113.291C99.855,113.215 100.065,113.176 100.298,113.176C100.511,113.176 100.711,113.21 100.898,113.276C101.085,113.343 101.248,113.443 101.388,113.576C101.521,113.71 101.628,113.876 101.708,114.076C101.788,114.276 101.828,114.51 101.828,114.776L101.828,118.306L100.808,118.306ZM100.808,116.126C100.695,116.106 100.601,116.096 100.528,116.096C100.308,116.096 100.12,116.148 99.963,116.251C99.806,116.355 99.728,116.543 99.728,116.816C99.728,117.01 99.775,117.166 99.868,117.286C99.961,117.406 100.091,117.466 100.258,117.466C100.431,117.466 100.566,117.41 100.663,117.296C100.76,117.183 100.808,117.023 100.808,116.816L100.808,116.126Z" style="fill:rgb(5,5,5);fill-rule:nonzero;"/>
        <path d="M103.598,116.656C103.598,116.863 103.638,117.03 103.718,117.156C103.798,117.283 103.925,117.346 104.098,117.346C104.251,117.346 104.375,117.288 104.468,117.171C104.561,117.055 104.608,116.903 104.608,116.716L104.608,114.746C104.608,114.586 104.56,114.455 104.463,114.351C104.366,114.248 104.245,114.196 104.098,114.196C103.905,114.196 103.773,114.256 103.703,114.376C103.633,114.496 103.598,114.636 103.598,114.796L103.598,116.656ZM104.608,118.306L104.608,117.846C104.541,117.92 104.478,117.988 104.418,118.051C104.358,118.115 104.291,118.17 104.218,118.216C104.145,118.263 104.061,118.3 103.968,118.326C103.875,118.353 103.765,118.366 103.638,118.366C103.211,118.366 102.915,118.206 102.748,117.886C102.688,117.773 102.645,117.633 102.618,117.466C102.591,117.3 102.578,117.076 102.578,116.796L102.578,114.866C102.578,114.5 102.588,114.23 102.608,114.056C102.648,113.723 102.805,113.473 103.078,113.306C103.205,113.22 103.395,113.176 103.648,113.176C103.848,113.176 104.026,113.221 104.183,113.311C104.34,113.401 104.475,113.53 104.588,113.696L104.608,113.696L104.608,111.186L105.628,111.186L105.628,118.306L104.608,118.306Z" style="fill:rgb(5,5,5);fill-rule:nonzero;"/>
        <path d="M106.038,113.236L107.118,113.236L107.818,116.396L107.838,116.396L108.528,113.236L109.578,113.236L108.118,119.186C108.065,119.413 107.99,119.6 107.893,119.746C107.796,119.893 107.685,120.013 107.558,120.106C107.431,120.2 107.296,120.265 107.153,120.301C107.01,120.338 106.861,120.356 106.708,120.356L106.428,120.356L106.428,119.396L106.658,119.396C106.758,119.396 106.845,119.383 106.918,119.356C106.991,119.33 107.058,119.27 107.118,119.176C107.171,119.083 107.221,118.951 107.268,118.781C107.315,118.611 107.368,118.376 107.428,118.076L106.038,113.236Z" style="fill:rgb(5,5,5);fill-rule:nonzero;"/>
    </g>
    <g transform="matrix(1,0,0,1,-69.5448,194.763)">
        <text x="89.198px" y="118.306px" style="font-family:'DINCondensed-Bold', 'DIN Condensed';font-weight:700;font-stretch:condensed;font-size:10px;fill:rgb(5,5,5);">steady</text>
    </g>
    <g id="Channel8" transform="matrix(1,0,0,1,26.1061,-62.4937)">
        <g id="Silence-switch" serif:id="Silence#switch" transform="matrix(1,0,0,0.7555,-10.9641,305.115)">
            <rect x="68.086" y="48.482" width="11.914" height="25.893" style="fill:rgb(204,51,51);"/>
        </g>
        <g id="SteadyOverride-input" serif:id="SteadyOverride#input" transform="matrix(0.175002,0,0,0.175002,-15.6504,318.641)">
            <rect x="53.94" y="106.916" width="161.978" height="161.978" style="fill:rgb(204,204,204);"/>
        </g>
        <g id="Steady-ledbutton" serif:id="Steady#ledbutton" transform="matrix(1,0,0,1,-18.2066,282.212)">
            <circle cx="53.696" cy="69.312" r="7.454" style="fill:rgb(153,153,153);"/>
        </g>
        <g transform="matrix(1,0,0,1,-103.497,238.914)">
            <path d="M90.742,109.25C90.742,109.026 90.662,108.837 90.502,108.682C90.342,108.528 90.155,108.45 89.942,108.45C89.729,108.45 89.542,108.528 89.382,108.682C89.222,108.837 89.142,109.026 89.142,109.25L89.142,110.914C89.142,111.138 89.222,111.328 89.382,111.482C89.542,111.637 89.729,111.714 89.942,111.714C90.155,111.714 90.342,111.637 90.502,111.482C90.662,111.328 90.742,111.138 90.742,110.914L90.742,109.25ZM87.51,109.89C87.51,109.581 87.521,109.317 87.542,109.098C87.563,108.88 87.601,108.69 87.654,108.53C87.707,108.37 87.769,108.226 87.838,108.098C87.907,107.97 87.995,107.837 88.102,107.698C88.315,107.421 88.582,107.205 88.902,107.05C89.222,106.896 89.569,106.818 89.942,106.818C90.315,106.818 90.662,106.896 90.982,107.05C91.302,107.205 91.569,107.421 91.782,107.698C91.889,107.837 91.979,107.97 92.054,108.098C92.129,108.226 92.193,108.37 92.246,108.53C92.299,108.69 92.334,108.88 92.35,109.098C92.366,109.317 92.374,109.581 92.374,109.89C92.374,110.232 92.369,110.52 92.358,110.754C92.347,110.989 92.315,111.197 92.262,111.378C92.209,111.56 92.126,111.722 92.014,111.866C91.902,112.01 91.75,112.162 91.558,112.322C91.75,112.472 91.902,112.621 92.014,112.77C92.126,112.92 92.209,113.096 92.262,113.298C92.315,113.501 92.347,113.749 92.358,114.042C92.369,114.336 92.374,114.696 92.374,115.122C92.374,115.474 92.366,115.765 92.35,115.994C92.334,116.224 92.31,116.424 92.278,116.594C92.246,116.765 92.201,116.909 92.142,117.026C92.083,117.144 92.011,117.266 91.926,117.394C91.745,117.672 91.489,117.909 91.158,118.106C90.827,118.304 90.422,118.402 89.942,118.402C89.462,118.402 89.057,118.304 88.726,118.106C88.395,117.909 88.139,117.672 87.958,117.394C87.873,117.266 87.801,117.144 87.742,117.026C87.683,116.909 87.638,116.765 87.606,116.594C87.574,116.424 87.55,116.224 87.534,115.994C87.518,115.765 87.51,115.474 87.51,115.122C87.51,114.696 87.515,114.336 87.526,114.042C87.537,113.749 87.569,113.501 87.622,113.298C87.675,113.096 87.758,112.92 87.87,112.77C87.982,112.621 88.134,112.472 88.326,112.322C88.134,112.162 87.982,112.01 87.87,111.866C87.758,111.722 87.675,111.56 87.622,111.378C87.569,111.197 87.537,110.989 87.526,110.754C87.515,110.52 87.51,110.232 87.51,109.89ZM90.742,113.73C90.742,113.506 90.662,113.317 90.502,113.162C90.342,113.008 90.155,112.93 89.942,112.93C89.729,112.93 89.542,113.008 89.382,113.162C89.222,113.317 89.142,113.506 89.142,113.73L89.142,115.97C89.142,116.194 89.222,116.384 89.382,116.538C89.542,116.693 89.729,116.77 89.942,116.77C90.155,116.77 90.342,116.693 90.502,116.538C90.662,116.384 90.742,116.194 90.742,115.97L90.742,113.73Z" style="fill-rule:nonzero;"/>
        </g>
        <g transform="matrix(1,0,0,1,-103.497,238.914)">
            <text x="86.966px" y="118.306px" style="font-family:'DINCondensed-Bold', 'DIN Condensed';font-weight:700;font-stretch:condensed;font-size:16px;">8</text>
        </g>
    </g>
    <g id="Channel7" transform="matrix(1,0,0,1,26.1061,-100.494)">
        <g id="Silence-switch1" serif:id="Silence#switch" transform="matrix(1,0,0,0.7555,-10.9641,305.115)">
            <rect x="68.086" y="48.482" width="11.914" height="25.893" style="fill:rgb(204,51,51);"/>
        </g>
        <g id="SteadyOverride-input1" serif:id="SteadyOverride#input" transform="matrix(0.175002,0,0,0.175002,-15.6504,318.641)">
            <rect x="53.94" y="106.916" width="161.978" height="161.978" style="fill:rgb(204,204,204);"/>
        </g>
        <g id="Steady-ledbutton1" serif:id="Steady#ledbutton" transform="matrix(1,0,0,1,-18.2066,282.212)">
            <circle cx="53.696" cy="69.312" r="7.454" style="fill:rgb(153,153,153);"/>
        </g>
        <g transform="matrix(1,0,0,1,-103.497,238.914)">
            <path d="M87.878,118.306L90.742,108.45L88.95,108.45L88.95,109.762L87.51,109.762L87.51,106.914L92.374,106.914L92.374,108.546L89.606,118.306L87.878,118.306Z" style="fill-rule:nonzero;"/>
        </g>
        <g transform="matrix(1,0,0,1,-103.497,238.914)">
            <text x="86.966px" y="118.306px" style="font-family:'DINCondensed-Bold', 'DIN Condensed';font-weight:700;font-stretch:condensed;font-size:16px;">7</text>
        </g>
    </g>
    <g id="Channel6" transform="matrix(1,0,0,1,26.1061,-138.494)">
        <g id="Silence-switch2" serif:id="Silence#switch" transform="matrix(1,0,0,0.7555,-10.9641,305.115)">
            <rect x="68.086" y="48.482" width="11.914" height="25.893" style="fill:rgb(204,51,51);"/>
        </g>
        <g id="SteadyOverride-input2" serif:id="SteadyOverride#input" transform="matrix(0.175002,0,0,0.175002,-15.6504,318.641)">
            <rect x="53.94" y="106.916" width="161.978" height="161.978" style="fill:rgb(204,204,204);"/>
        </g>
        <g id="Steady-ledbutton2" serif:id="Steady#ledbutton" transform="matrix(1,0,0,1,-18.2066,282.212)">
            <circle cx="53.696" cy="69.312" r="7.454" style="fill:rgb(153,153,153);"/>
        </g>
        <g transform="matrix(1,0,0,1,-103.497,238.914)">
            <path d="M91.782,106.914L89.926,111.698L89.958,111.73C90.011,111.688 90.094,111.653 90.206,111.626C90.318,111.6 90.465,111.586 90.646,111.586C90.934,111.586 91.201,111.656 91.446,111.794C91.691,111.933 91.883,112.109 92.022,112.322C92.097,112.44 92.155,112.557 92.198,112.674C92.241,112.792 92.278,112.946 92.31,113.138C92.331,113.33 92.347,113.573 92.358,113.866C92.369,114.16 92.374,114.53 92.374,114.978C92.374,115.352 92.369,115.658 92.358,115.898C92.347,116.138 92.331,116.338 92.31,116.498C92.278,116.669 92.238,116.813 92.19,116.93C92.142,117.048 92.081,117.17 92.006,117.298C91.793,117.65 91.507,117.922 91.15,118.114C90.793,118.306 90.39,118.402 89.942,118.402C89.494,118.402 89.094,118.304 88.742,118.106C88.39,117.909 88.107,117.64 87.894,117.298C87.809,117.17 87.742,117.048 87.694,116.93C87.646,116.813 87.611,116.669 87.59,116.498C87.558,116.338 87.537,116.138 87.526,115.898C87.515,115.658 87.51,115.352 87.51,114.978C87.51,114.626 87.515,114.336 87.526,114.106C87.537,113.877 87.553,113.677 87.574,113.506C87.595,113.346 87.627,113.2 87.67,113.066C87.713,112.933 87.761,112.792 87.814,112.642L89.958,106.914L91.782,106.914ZM90.742,113.842C90.742,113.597 90.662,113.4 90.502,113.25C90.342,113.101 90.155,113.026 89.942,113.026C89.729,113.026 89.542,113.101 89.382,113.25C89.222,113.4 89.142,113.597 89.142,113.842L89.142,115.954C89.142,116.2 89.222,116.397 89.382,116.546C89.542,116.696 89.729,116.77 89.942,116.77C90.155,116.77 90.342,116.696 90.502,116.546C90.662,116.397 90.742,116.2 90.742,115.954L90.742,113.842Z" style="fill-rule:nonzero;"/>
        </g>
        <g transform="matrix(1,0,0,1,-103.497,238.914)">
            <text x="86.966px" y="118.306px" style="font-family:'DINCondensed-Bold', 'DIN Condensed';font-weight:700;font-stretch:condensed;font-size:16px;">6</text>
        </g>
    </g>
    <g id="Channel5" transform="matrix(1,0,0,1,26.1061,-176.494)">
        <g id="Silence-switch3" serif:id="Silence#switch" transform="matrix(1,0,0,0.7555,-10.9641,305.115)">
            <rect x="68.086" y="48.482" width="11.914" height="25.893" style="fill:rgb(204,51,51);"/>
        </g>
        <g id="SteadyOverride-input3" serif:id="SteadyOverride#input" transform="matrix(0.175002,0,0,0.175002,-15.6504,318.641)">
            <rect x="53.94" y="106.916" width="161.978" height="161.978" style="fill:rgb(204,204,204);"/>
        </g>
        <g id="Steady-ledbutton3" serif:id="Steady#ledbutton" transform="matrix(1,0,0,1,-18.2066,282.212)">
            <circle cx="53.696" cy="69.312" r="7.454" style="fill:rgb(153,153,153);"/>
        </g>
        <g transform="matrix(1,0,0,1,-103.497,238.914)">
            <path d="M92.374,106.914L92.374,108.45L89.142,108.45L89.142,111.522C89.291,111.373 89.483,111.248 89.718,111.146C89.953,111.045 90.214,110.994 90.502,110.994C91.057,110.994 91.507,111.162 91.854,111.498C92.201,111.834 92.374,112.338 92.374,113.01L92.374,115.954C92.374,116.338 92.307,116.68 92.174,116.978C92.041,117.277 91.862,117.533 91.638,117.746C91.414,117.96 91.155,118.122 90.862,118.234C90.569,118.346 90.262,118.402 89.942,118.402C89.622,118.402 89.315,118.346 89.022,118.234C88.729,118.122 88.47,117.96 88.246,117.746C88.022,117.533 87.843,117.277 87.71,116.978C87.577,116.68 87.51,116.338 87.51,115.954L87.51,115.474L89.142,115.474L89.142,115.89C89.142,116.168 89.219,116.384 89.374,116.538C89.529,116.693 89.729,116.77 89.974,116.77C90.219,116.77 90.409,116.696 90.542,116.546C90.675,116.397 90.742,116.189 90.742,115.922L90.742,113.25C90.742,113.026 90.67,112.834 90.526,112.674C90.382,112.514 90.198,112.434 89.974,112.434C89.835,112.434 89.718,112.458 89.622,112.506C89.526,112.554 89.446,112.61 89.382,112.674C89.318,112.738 89.27,112.808 89.238,112.882C89.185,112.978 89.153,113.037 89.142,113.058L87.702,113.058L87.702,106.914L92.374,106.914Z" style="fill-rule:nonzero;"/>
        </g>
        <g transform="matrix(1,0,0,1,-103.497,238.914)">
            <text x="86.966px" y="118.306px" style="font-family:'DINCondensed-Bold', 'DIN Condensed';font-weight:700;font-stretch:condensed;font-size:16px;">5</text>
        </g>
    </g>
    <g id="Channel4" transform="matrix(1,0,0,1,26.1061,-214.494)">
        <g id="Silence-switch4" serif:id="Silence#switch" transform="matrix(1,0,0,0.7555,-10.9641,305.115)">
            <rect x="68.086" y="48.482" width="11.914" height="25.893" style="fill:rgb(204,51,51);"/>
        </g>
        <g id="SteadyOverride-input4" serif:id="SteadyOverride#input" transform="matrix(0.175002,0,0,0.175002,-15.6504,318.641)">
            <rect x="53.94" y="106.916" width="161.978" height="161.978" style="fill:rgb(204,204,204);"/>
        </g>
        <g id="Steady-ledbutton4" serif:id="Steady#ledbutton" transform="matrix(1,0,0,1,-18.2066,282.212)">
            <circle cx="53.696" cy="69.312" r="7.454" style="fill:rgb(153,153,153);"/>
        </g>
        <g transform="matrix(1,0,0,1,-103.497,238.914)">
            <path d="M90.358,118.306L90.358,116.61L87.11,116.61L87.11,115.074L89.462,106.914L91.19,106.914L88.742,115.074L90.358,115.074L90.358,111.826L91.99,111.826L91.99,115.074L92.774,115.074L92.774,116.61L91.99,116.61L91.99,118.306L90.358,118.306Z" style="fill-rule:nonzero;"/>
        </g>
        <g transform="matrix(1,0,0,1,-103.497,238.914)">
            <text x="86.966px" y="118.306px" style="font-family:'DINCondensed-Bold', 'DIN Condensed';font-weight:700;font-stretch:condensed;font-size:16px;">4</text>
        </g>
    </g>
    <g id="Channel3" transform="matrix(1,0,0,1,26.1061,-252.494)">
        <g id="Silence-switch5" serif:id="Silence#switch" transform="matrix(1,0,0,0.7555,-10.9641,305.115)">
            <rect x="68.086" y="48.482" width="11.914" height="25.893" style="fill:rgb(204,51,51);"/>
        </g>
        <g id="SteadyOverride-input5" serif:id="SteadyOverride#input" transform="matrix(0.175002,0,0,0.175002,-15.6504,318.641)">
            <rect x="53.94" y="106.916" width="161.978" height="161.978" style="fill:rgb(204,204,204);"/>
        </g>
        <g id="Steady-ledbutton5" serif:id="Steady#ledbutton" transform="matrix(1,0,0,1,-18.2066,282.212)">
            <circle cx="53.696" cy="69.312" r="7.454" style="fill:rgb(153,153,153);"/>
        </g>
        <g transform="matrix(1,0,0,1,-103.497,238.914)">
            <path d="M89.446,111.714C89.937,111.714 90.275,111.656 90.462,111.538C90.649,111.421 90.742,111.149 90.742,110.722L90.742,109.25C90.742,109.016 90.67,108.824 90.526,108.674C90.382,108.525 90.187,108.45 89.942,108.45C89.654,108.45 89.449,108.541 89.326,108.722C89.203,108.904 89.142,109.08 89.142,109.25L89.142,110.178L87.51,110.178L87.51,109.234C87.51,108.904 87.574,108.589 87.702,108.29C87.83,107.992 88.006,107.736 88.23,107.522C88.454,107.309 88.715,107.138 89.014,107.01C89.313,106.882 89.633,106.818 89.974,106.818C90.422,106.818 90.793,106.906 91.086,107.082C91.379,107.258 91.601,107.437 91.75,107.618C91.857,107.746 91.95,107.874 92.03,108.002C92.11,108.13 92.177,108.285 92.23,108.466C92.326,108.818 92.374,109.341 92.374,110.034C92.374,110.429 92.366,110.749 92.35,110.994C92.334,111.24 92.294,111.442 92.23,111.602C92.155,111.773 92.051,111.917 91.918,112.034C91.785,112.152 91.601,112.28 91.366,112.418C91.622,112.578 91.817,112.728 91.95,112.866C92.083,113.005 92.182,113.165 92.246,113.346C92.31,113.538 92.347,113.765 92.358,114.026C92.369,114.288 92.374,114.621 92.374,115.026C92.374,115.4 92.366,115.709 92.35,115.954C92.334,116.2 92.31,116.402 92.278,116.562C92.246,116.733 92.203,116.877 92.15,116.994C92.097,117.112 92.027,117.234 91.942,117.362C91.739,117.661 91.481,117.909 91.166,118.106C90.851,118.304 90.438,118.402 89.926,118.402C89.67,118.402 89.398,118.36 89.11,118.274C88.822,118.189 88.561,118.05 88.326,117.858C88.091,117.666 87.897,117.416 87.742,117.106C87.587,116.797 87.51,116.418 87.51,115.97L87.51,115.042L89.142,115.042L89.142,115.89C89.142,116.146 89.214,116.357 89.358,116.522C89.502,116.688 89.697,116.77 89.942,116.77C90.187,116.77 90.382,116.688 90.526,116.522C90.67,116.357 90.742,116.136 90.742,115.858L90.742,114.226C90.742,113.778 90.657,113.485 90.486,113.346C90.39,113.261 90.259,113.208 90.094,113.186C89.929,113.165 89.713,113.154 89.446,113.154L89.446,111.714Z" style="fill-rule:nonzero;"/>
        </g>
        <g transform="matrix(1,0,0,1,-103.497,238.914)">
            <text x="86.966px" y="118.306px" style="font-family:'DINCondensed-Bold', 'DIN Condensed';font-weight:700;font-stretch:condensed;font-size:16px;">3</text>
        </g>
    </g>
    <g id="Channel2" transform="matrix(1,0,0,1,26.1061,-290.494)">
        <g id="Silence-switch6" serif:id="Silence#switch" transform="matrix(1,0,0,0.7555,-10.9641,305.115)">
            <rect x="68.086" y="48.482" width="11.914" height="25.893" style="fill:rgb(204,51,51);"/>
        </g>
        <g id="SteadyOverride-input6" serif:id="SteadyOverride#input" transform="matrix(0.175002,0,0,0.175002,-15.6504,318.641)">
            <rect x="53.94" y="106.916" width="161.978" height="161.978" style="fill:rgb(204,204,204);"/>
        </g>
        <g id="Steady-ledbutton6" serif:id="Steady#ledbutton" transform="matrix(1,0,0,1,-18.2066,282.212)">
            <circle cx="53.696" cy="69.312" r="7.454" style="fill:rgb(153,153,153);"/>
        </g>
        <g transform="matrix(1,0,0,1,-103.497,238.914)">
            <path d="M87.51,118.306L87.51,116.77L90.454,111.218C90.603,110.941 90.689,110.698 90.71,110.49C90.731,110.282 90.742,110.024 90.742,109.714C90.742,109.576 90.739,109.429 90.734,109.274C90.729,109.12 90.699,108.984 90.646,108.866C90.593,108.749 90.513,108.65 90.406,108.57C90.299,108.49 90.145,108.45 89.942,108.45C89.697,108.45 89.502,108.52 89.358,108.658C89.214,108.797 89.142,109 89.142,109.266L89.142,110.194L87.51,110.194L87.51,109.298C87.51,108.957 87.574,108.637 87.702,108.338C87.83,108.04 88.006,107.778 88.23,107.554C88.443,107.33 88.699,107.152 88.998,107.018C89.297,106.885 89.617,106.818 89.958,106.818C90.385,106.818 90.75,106.896 91.054,107.05C91.358,107.205 91.611,107.416 91.814,107.682C92.006,107.949 92.147,108.253 92.238,108.594C92.329,108.936 92.374,109.298 92.374,109.682C92.374,109.96 92.369,110.192 92.358,110.378C92.347,110.565 92.326,110.744 92.294,110.914C92.262,111.085 92.209,111.256 92.134,111.426C92.059,111.597 91.958,111.805 91.83,112.05L89.43,116.674L92.374,116.674L92.374,118.306L87.51,118.306Z" style="fill-rule:nonzero;"/>
        </g>
        <g transform="matrix(1,0,0,1,-103.497,238.914)">
            <text x="86.966px" y="118.306px" style="font-family:'DINCondensed-Bold', 'DIN Condensed';font-weight:700;font-stretch:condensed;font-size:16px;">2</text>
        </g>
    </g>
    <g id="Channel1" transform="matrix(1,0,0,1,26.1061,-328.494)">
        <g id="Silence-switch7" serif:id="Silence#switch" transform="matrix(1,0,0,0.7555,-10.9641,305.115)">
            <rect x="68.086" y="48.482" width="11.914" height="25.893" style="fill:rgb(204,51,51);"/>
        </g>
        <g id="SteadyOverride-input7" serif:id="SteadyOverride#input" transform="matrix(0.175002,0,0,0.175002,-15.6504,318.641)">
            <rect x="53.94" y="106.916" width="161.978" height="161.978" style="fill:rgb(204,204,204);"/>
        </g>
        <g id="Steady-ledbutton7" serif:id="Steady#ledbutton" transform="matrix(1,0,0,1,-18.2066,282.212)">
            <circle cx="53.696" cy="69.312" r="7.454" style="fill:rgb(153,153,153);"/>
        </g>
        <g transform="matrix(1,0,0,1,-103.497,238.914)">
            <path d="M89.446,118.306L89.446,108.642L87.814,109.842L87.814,108.114L89.446,106.914L91.078,106.914L91.078,118.306L89.446,118.306Z" style="fill-rule:nonzero;"/>
        </g>
        <g transform="matrix(1,0,0,1,-103.497,238.914)">
            <text x="86.966px" y="118.306px" style="font-family:'DINCondensed-Bold', 'DIN Condensed';font-weight:700;font-stretch:condensed;font-size:16px;">1</text>
        </g>
    </g>
    <g transform="matrix(0.816456,0,0,0.816456,36.9666,90.0064)">
        <g transform="matrix(1,0,0,1,-89.6693,-31.1068)">
            <path d="M66.37,344.752C67.37,344.752 68.161,344.728 68.744,344.679C69.327,344.63 69.778,344.566 70.096,344.487C70.415,344.409 70.628,344.321 70.736,344.223C70.843,344.125 70.917,344.027 70.956,343.929C70.976,343.88 71.025,343.855 71.103,343.855C71.201,343.855 71.25,343.88 71.25,343.929C71.23,343.949 71.199,344.022 71.154,344.149C71.11,344.277 71.056,344.431 70.993,344.612C70.929,344.794 70.863,344.99 70.794,345.2C70.726,345.411 70.662,345.612 70.603,345.803C70.544,345.994 70.495,346.163 70.456,346.31C70.417,346.457 70.398,346.555 70.398,346.604C70.378,346.604 70.353,346.606 70.324,346.611C70.295,346.616 70.265,346.619 70.236,346.619C70.148,346.619 70.104,346.589 70.104,346.53C70.104,346.481 70.108,346.423 70.118,346.354C70.128,346.285 70.133,346.227 70.133,346.178C70.133,346.129 70.128,346.094 70.118,346.075C70.069,345.977 69.905,345.903 69.626,345.854C69.347,345.805 69.023,345.771 68.656,345.751C68.288,345.732 67.914,345.72 67.531,345.715C67.149,345.71 66.836,345.707 66.591,345.707C66.218,345.707 65.849,345.813 65.481,346.023C65.114,346.234 64.785,346.535 64.496,346.927C64.207,347.319 63.972,347.802 63.791,348.375C63.61,348.948 63.519,349.597 63.519,350.322C63.519,350.959 63.59,351.547 63.732,352.086C63.874,352.625 64.078,353.095 64.342,353.497C64.607,353.899 64.93,354.212 65.312,354.438C65.694,354.663 66.125,354.776 66.606,354.776C67.066,354.776 67.47,354.69 67.818,354.519C68.166,354.347 68.457,354.124 68.693,353.85C68.928,353.576 69.107,353.262 69.229,352.909C69.352,352.556 69.413,352.194 69.413,351.822C69.413,351.557 69.381,351.302 69.317,351.057C69.254,350.812 69.158,350.594 69.031,350.403C68.903,350.212 68.739,350.06 68.538,349.948C68.337,349.835 68.105,349.779 67.84,349.779C67.429,349.779 67.14,349.869 66.973,350.051C66.806,350.232 66.723,350.425 66.723,350.631C66.723,350.817 66.777,350.981 66.885,351.123C66.993,351.266 67.135,351.337 67.311,351.337C67.419,351.337 67.473,351.376 67.473,351.454C67.473,351.484 67.458,351.513 67.429,351.542C67.38,351.611 67.242,351.68 67.017,351.748C66.792,351.817 66.522,351.851 66.209,351.851C65.827,351.851 65.513,351.751 65.268,351.55C65.023,351.349 64.901,351.106 64.901,350.822C64.901,350.636 64.989,350.455 65.165,350.278C65.342,350.102 65.584,349.943 65.893,349.801C66.201,349.659 66.571,349.546 67.002,349.463C67.433,349.379 67.899,349.338 68.399,349.338C68.84,349.338 69.246,349.382 69.619,349.47C69.991,349.558 70.312,349.683 70.581,349.845C70.851,350.006 71.064,350.202 71.221,350.433C71.377,350.663 71.456,350.92 71.456,351.204C71.456,351.635 71.319,352.094 71.044,352.579C70.77,353.064 70.393,353.509 69.912,353.916C69.432,354.323 68.866,354.658 68.215,354.923C67.563,355.187 66.865,355.32 66.12,355.32C65.356,355.32 64.678,355.209 64.085,354.989C63.492,354.768 62.992,354.46 62.586,354.063C62.179,353.666 61.868,353.196 61.652,352.652C61.437,352.108 61.329,351.513 61.329,350.866C61.329,350.376 61.403,349.916 61.55,349.485C61.696,349.054 61.888,348.652 62.123,348.279C62.358,347.907 62.618,347.569 62.902,347.265C63.186,346.962 63.463,346.699 63.732,346.479C64.002,346.259 64.249,346.085 64.474,345.957C64.7,345.83 64.866,345.751 64.974,345.722C64.641,345.732 64.286,345.747 63.908,345.766C63.531,345.786 63.171,345.813 62.828,345.847C62.485,345.881 62.182,345.925 61.917,345.979C61.652,346.033 61.471,346.099 61.373,346.178C61.265,346.256 61.177,346.359 61.109,346.486C61.04,346.614 60.981,346.746 60.932,346.883C60.854,346.883 60.79,346.871 60.741,346.846C60.692,346.822 60.653,346.766 60.624,346.677C60.712,346.56 60.807,346.374 60.91,346.119C61.013,345.864 61.116,345.597 61.219,345.318C61.322,345.039 61.41,344.781 61.483,344.546C61.557,344.311 61.608,344.159 61.638,344.091C61.677,344.071 61.721,344.061 61.77,344.061C61.809,344.061 61.848,344.071 61.888,344.091C61.858,344.208 61.843,344.301 61.843,344.37C61.843,344.468 61.892,344.532 61.99,344.561C62.275,344.639 62.63,344.691 63.056,344.715C63.482,344.74 63.975,344.752 64.533,344.752L66.37,344.752Z" style="fill-rule:nonzero;"/>
            <path d="M74.278,352.542C74.278,352.748 74.283,352.946 74.292,353.137C74.302,353.328 74.336,353.492 74.395,353.629C74.454,353.767 74.542,353.877 74.66,353.96C74.777,354.043 74.944,354.085 75.16,354.085C75.267,354.085 75.39,354.073 75.527,354.048C75.664,354.024 75.794,353.992 75.916,353.953C76.039,353.914 76.147,353.874 76.24,353.835C76.333,353.796 76.389,353.767 76.409,353.747C76.438,353.718 76.458,353.718 76.468,353.747C76.477,353.776 76.48,353.813 76.475,353.857C76.47,353.901 76.458,353.945 76.438,353.99C76.419,354.034 76.394,354.065 76.365,354.085C76.267,354.134 76.095,354.222 75.85,354.35C75.605,354.477 75.316,354.609 74.983,354.746C74.67,354.884 74.363,354.999 74.065,355.092C73.766,355.185 73.518,355.231 73.322,355.231C73.097,355.231 72.921,355.163 72.793,355.026C72.666,354.889 72.602,354.717 72.602,354.511C72.602,354.443 72.605,354.384 72.61,354.335C72.614,354.286 72.622,354.222 72.632,354.144C72.641,354.046 72.658,353.867 72.683,353.607C72.707,353.348 72.732,353.056 72.756,352.733C72.781,352.41 72.803,352.084 72.823,351.755C72.842,351.427 72.852,351.146 72.852,350.91L72.852,350.396C72.852,350.141 72.837,349.916 72.808,349.72C72.779,349.524 72.73,349.372 72.661,349.264C72.612,349.196 72.551,349.139 72.477,349.095C72.404,349.051 72.313,349.029 72.205,349.029C72.147,349.029 72.088,349.041 72.029,349.066C71.97,349.09 71.926,349.103 71.897,349.103C71.877,349.103 71.845,349.073 71.801,349.014C71.757,348.956 71.759,348.911 71.808,348.882C71.877,348.833 72.019,348.755 72.235,348.647C72.45,348.539 72.685,348.422 72.94,348.294C73.215,348.157 73.479,348.037 73.734,347.934C73.989,347.831 74.17,347.78 74.278,347.78C74.385,347.78 74.459,347.812 74.498,347.875C74.537,347.939 74.557,348.01 74.557,348.088L74.557,348.147C74.557,348.245 74.542,348.402 74.513,348.618C74.483,348.833 74.452,349.098 74.417,349.411C74.383,349.725 74.351,350.087 74.322,350.499C74.292,350.91 74.278,351.356 74.278,351.836L74.278,352.542ZM73.69,344.899C73.739,344.909 73.82,344.963 73.932,345.061C74.045,345.159 74.16,345.271 74.278,345.399C74.395,345.526 74.498,345.649 74.586,345.766C74.675,345.884 74.719,345.962 74.719,346.001C74.719,346.05 74.66,346.124 74.542,346.222C74.425,346.32 74.29,346.42 74.138,346.523C73.986,346.626 73.839,346.717 73.697,346.795C73.555,346.873 73.455,346.913 73.396,346.913C73.366,346.913 73.295,346.866 73.183,346.773C73.07,346.68 72.955,346.575 72.837,346.457C72.72,346.339 72.614,346.224 72.521,346.112C72.428,345.999 72.382,345.923 72.382,345.884C72.382,345.835 72.445,345.759 72.573,345.656C72.7,345.553 72.84,345.445 72.992,345.333C73.144,345.22 73.29,345.122 73.433,345.039C73.575,344.955 73.66,344.909 73.69,344.899Z" style="fill-rule:nonzero;"/>
            <path d="M89.74,353.82C89.769,353.82 89.789,353.838 89.798,353.872C89.808,353.906 89.813,353.948 89.813,353.997C89.813,354.046 89.803,354.078 89.784,354.092C89.764,354.107 89.745,354.124 89.725,354.144C89.656,354.183 89.492,354.266 89.233,354.394C88.973,354.521 88.684,354.651 88.365,354.783C88.047,354.915 87.733,355.033 87.425,355.136C87.116,355.239 86.883,355.29 86.727,355.29C86.589,355.29 86.46,355.261 86.337,355.202C86.215,355.143 86.163,355.05 86.183,354.923C86.202,354.844 86.224,354.727 86.249,354.57C86.273,354.413 86.295,354.222 86.315,353.997C86.335,353.713 86.357,353.384 86.381,353.012C86.406,352.64 86.418,352.228 86.418,351.778C86.418,351.248 86.384,350.81 86.315,350.462C86.246,350.114 86.149,349.837 86.021,349.632C85.894,349.426 85.737,349.281 85.551,349.198C85.365,349.115 85.149,349.073 84.904,349.073C84.679,349.073 84.488,349.11 84.331,349.183C84.174,349.257 84.037,349.338 83.919,349.426C83.704,349.592 83.535,349.806 83.412,350.065C83.29,350.325 83.214,350.665 83.184,351.087C83.175,351.195 83.167,351.302 83.162,351.41C83.158,351.518 83.153,351.635 83.148,351.763C83.143,351.89 83.138,352.032 83.133,352.189C83.128,352.346 83.126,352.532 83.126,352.748C83.126,353.326 83.172,353.727 83.265,353.953C83.358,354.178 83.518,354.291 83.743,354.291C83.821,354.291 83.87,354.288 83.89,354.283C83.91,354.279 83.949,354.271 84.008,354.261C84.027,354.281 84.047,354.306 84.066,354.335C84.096,354.384 84.091,354.438 84.052,354.497C84.003,354.555 83.885,354.631 83.699,354.724C83.513,354.817 83.307,354.903 83.082,354.982C82.856,355.06 82.636,355.129 82.42,355.187C82.205,355.246 82.043,355.276 81.935,355.276C81.798,355.276 81.673,355.258 81.56,355.224C81.448,355.19 81.391,355.148 81.391,355.099C81.391,355.04 81.411,354.972 81.45,354.893C81.48,354.844 81.509,354.727 81.538,354.541C81.568,354.355 81.595,354.114 81.619,353.82C81.644,353.527 81.666,353.186 81.685,352.799C81.705,352.412 81.715,351.993 81.715,351.542C81.715,351.307 81.702,351.048 81.678,350.763C81.653,350.479 81.592,350.212 81.494,349.962C81.396,349.712 81.252,349.502 81.061,349.33C80.87,349.159 80.607,349.073 80.274,349.073C80.078,349.073 79.902,349.1 79.745,349.154C79.588,349.208 79.456,349.274 79.348,349.352C79.133,349.519 78.949,349.725 78.797,349.97C78.645,350.215 78.545,350.563 78.496,351.013C78.476,351.219 78.457,351.432 78.437,351.653C78.418,351.873 78.408,352.125 78.408,352.41C78.408,352.782 78.418,353.091 78.437,353.335C78.457,353.58 78.491,353.774 78.54,353.916C78.589,354.058 78.648,354.156 78.716,354.21C78.785,354.264 78.873,354.291 78.981,354.291C79.089,354.291 79.162,354.281 79.201,354.261C79.25,354.242 79.285,354.271 79.304,354.35C79.324,354.428 79.319,354.477 79.29,354.497C79.25,354.536 79.148,354.597 78.981,354.68C78.814,354.764 78.623,354.849 78.408,354.938C78.192,355.026 77.972,355.104 77.746,355.173C77.521,355.241 77.33,355.276 77.173,355.276C77.007,355.276 76.877,355.256 76.784,355.217C76.691,355.178 76.644,355.133 76.644,355.084C76.644,355.075 76.654,355.043 76.673,354.989C76.693,354.935 76.708,354.889 76.718,354.849C76.757,354.546 76.793,354.264 76.828,354.004C76.862,353.745 76.887,353.463 76.901,353.159C76.916,352.855 76.928,352.507 76.938,352.116C76.948,351.724 76.953,351.248 76.953,350.69C76.953,350.151 76.867,349.754 76.695,349.499C76.524,349.245 76.345,349.117 76.159,349.117C76.081,349.117 76.014,349.125 75.961,349.139C75.907,349.154 75.855,349.166 75.806,349.176C75.747,349.186 75.718,349.156 75.718,349.088L75.718,348.985C75.728,348.975 75.826,348.907 76.012,348.779C76.198,348.652 76.419,348.515 76.673,348.368C76.928,348.221 77.193,348.086 77.467,347.963C77.741,347.841 77.967,347.78 78.143,347.78C78.261,347.78 78.361,347.814 78.444,347.883C78.528,347.951 78.569,348.079 78.569,348.265C78.569,348.353 78.567,348.451 78.562,348.559C78.557,348.667 78.552,348.779 78.547,348.897C78.542,349.014 78.535,349.129 78.525,349.242C78.516,349.355 78.511,349.45 78.511,349.529C78.648,349.401 78.822,349.235 79.032,349.029C79.243,348.823 79.481,348.627 79.745,348.441C80.01,348.255 80.296,348.093 80.605,347.956C80.914,347.819 81.239,347.75 81.582,347.75C82.033,347.75 82.401,347.883 82.685,348.147C82.969,348.412 83.121,348.872 83.14,349.529C83.297,349.382 83.488,349.205 83.714,349C83.939,348.794 84.191,348.598 84.471,348.412C84.75,348.226 85.046,348.069 85.36,347.941C85.673,347.814 85.992,347.75 86.315,347.75C87.452,347.75 88.02,348.353 88.02,349.558C88.02,349.754 88.01,349.979 87.991,350.234C87.971,350.489 87.947,350.756 87.917,351.035C87.888,351.315 87.863,351.591 87.844,351.866C87.824,352.14 87.814,352.39 87.814,352.615C87.814,353.634 88.084,354.144 88.623,354.144C88.711,354.144 88.809,354.132 88.917,354.107C89.024,354.083 89.132,354.053 89.24,354.019C89.348,353.985 89.446,353.95 89.534,353.916C89.622,353.882 89.686,353.85 89.725,353.82L89.74,353.82Z" style="fill-rule:nonzero;"/>
            <path d="M96.456,353.38C96.349,353.497 96.182,353.659 95.957,353.865C95.731,354.07 95.459,354.276 95.141,354.482C94.823,354.688 94.467,354.864 94.075,355.011C93.684,355.158 93.267,355.231 92.826,355.231C92.424,355.231 92.032,355.17 91.65,355.048C91.268,354.925 90.925,354.739 90.621,354.489C90.318,354.239 90.075,353.921 89.894,353.534C89.713,353.147 89.622,352.684 89.622,352.145C89.622,351.704 89.651,351.324 89.71,351.006C89.769,350.687 89.847,350.408 89.945,350.168C90.043,349.928 90.154,349.722 90.276,349.551C90.399,349.379 90.524,349.225 90.651,349.088C90.808,348.911 90.999,348.745 91.224,348.588C91.449,348.431 91.692,348.289 91.952,348.162C92.211,348.035 92.486,347.934 92.775,347.861C93.064,347.787 93.355,347.75 93.649,347.75C94.178,347.75 94.592,347.839 94.891,348.015C95.19,348.191 95.339,348.436 95.339,348.75C95.339,348.946 95.281,349.127 95.163,349.294C95.261,349.264 95.386,349.215 95.538,349.147C95.69,349.078 95.844,349.007 96.001,348.934C96.158,348.86 96.297,348.794 96.42,348.735C96.542,348.676 96.623,348.632 96.662,348.603C96.682,348.583 96.704,348.576 96.728,348.581C96.753,348.586 96.765,348.603 96.765,348.632C96.765,348.76 96.741,348.865 96.692,348.948C96.643,349.031 96.584,349.098 96.515,349.147C96.358,349.245 96.133,349.367 95.839,349.514C95.545,349.661 95.219,349.815 94.862,349.977C94.504,350.139 94.134,350.3 93.752,350.462C93.37,350.624 93.01,350.778 92.672,350.925C92.334,351.072 92.04,351.202 91.79,351.315C91.54,351.427 91.371,351.508 91.283,351.557C91.283,351.89 91.349,352.201 91.481,352.49C91.614,352.779 91.797,353.032 92.032,353.247C92.268,353.463 92.549,353.632 92.878,353.754C93.206,353.877 93.566,353.938 93.958,353.938C94.311,353.938 94.629,353.901 94.913,353.828C95.197,353.754 95.437,353.671 95.633,353.578C95.829,353.485 95.984,353.402 96.096,353.328C96.209,353.255 96.27,353.218 96.28,353.218C96.319,353.218 96.358,353.235 96.398,353.269C96.437,353.304 96.456,353.34 96.456,353.38ZM91.283,351.131C91.449,351.072 91.638,351.001 91.849,350.918C92.059,350.834 92.265,350.744 92.466,350.646C92.667,350.548 92.851,350.455 93.017,350.367C93.184,350.278 93.311,350.2 93.399,350.131C93.576,350.004 93.664,349.788 93.664,349.485C93.664,349.367 93.642,349.245 93.598,349.117C93.554,348.99 93.488,348.875 93.399,348.772C93.311,348.669 93.203,348.586 93.076,348.522C92.949,348.458 92.807,348.426 92.65,348.426C92.513,348.426 92.366,348.473 92.209,348.566C92.052,348.659 91.905,348.811 91.768,349.022C91.631,349.232 91.516,349.512 91.423,349.859C91.329,350.207 91.283,350.631 91.283,351.131Z" style="fill-rule:nonzero;"/>
            <path d="M100.307,345.017C100.052,345.007 99.893,344.98 99.83,344.936C99.766,344.892 99.734,344.845 99.734,344.796C99.734,344.728 99.744,344.666 99.763,344.612C99.783,344.559 99.837,344.527 99.925,344.517C100.033,344.527 100.197,344.544 100.417,344.568C100.638,344.593 100.934,344.615 101.307,344.634L102.189,344.634C102.62,344.625 103.021,344.6 103.394,344.561C103.766,344.522 104.099,344.478 104.393,344.429C104.687,344.38 104.932,344.331 105.128,344.282C105.324,344.233 105.461,344.189 105.54,344.149L105.554,344.149C105.564,344.149 105.571,344.147 105.576,344.142C105.581,344.137 105.589,344.135 105.598,344.135C105.696,344.135 105.745,344.238 105.745,344.443C105.745,344.532 105.655,344.605 105.473,344.664C105.292,344.723 105.084,344.774 104.849,344.818C104.614,344.862 104.383,344.904 104.158,344.943C103.933,344.982 103.781,345.026 103.702,345.075C103.644,345.173 103.592,345.44 103.548,345.876C103.504,346.312 103.47,346.827 103.445,347.42C103.421,348.012 103.401,348.642 103.386,349.308C103.372,349.975 103.364,350.587 103.364,351.146C103.364,352.047 103.377,352.777 103.401,353.335C103.426,353.894 103.472,354.208 103.541,354.276C103.57,354.286 103.624,354.291 103.702,354.291C103.791,354.291 103.896,354.283 104.018,354.269C104.141,354.254 104.266,354.239 104.393,354.225C104.521,354.21 104.646,354.193 104.768,354.173C104.89,354.154 104.996,354.139 105.084,354.129C105.309,354.1 105.552,354.063 105.812,354.019C106.071,353.975 106.328,353.921 106.583,353.857C106.838,353.794 107.076,353.713 107.296,353.615C107.516,353.517 107.705,353.394 107.862,353.247C107.872,353.228 107.879,353.22 107.884,353.225C107.889,353.23 107.896,353.228 107.906,353.218C107.945,353.179 107.989,353.164 108.038,353.174C108.087,353.184 108.129,353.211 108.163,353.255C108.197,353.299 108.219,353.348 108.229,353.402C108.239,353.455 108.224,353.497 108.185,353.527C108.097,353.595 108.011,353.698 107.928,353.835C107.845,353.972 107.769,354.119 107.7,354.276C107.632,354.433 107.573,354.582 107.524,354.724C107.475,354.866 107.445,354.972 107.436,355.04C107.514,355.089 107.6,355.158 107.693,355.246C107.786,355.334 107.832,355.442 107.832,355.57C107.832,355.609 107.82,355.66 107.796,355.724C107.771,355.788 107.72,355.819 107.641,355.819C107.622,355.819 107.587,355.814 107.538,355.805C107.49,355.795 107.465,355.751 107.465,355.672C107.465,355.584 107.504,355.521 107.583,355.481C107.543,355.462 107.49,355.427 107.421,355.378C107.352,355.329 107.284,355.295 107.215,355.276C107.039,355.246 106.858,355.217 106.671,355.187C106.485,355.158 106.282,355.136 106.061,355.121C105.841,355.107 105.594,355.094 105.319,355.084C105.045,355.075 104.736,355.07 104.393,355.07C103.6,355.07 102.926,355.092 102.372,355.136C101.819,355.18 101.351,355.227 100.969,355.276C100.587,355.325 100.273,355.371 100.028,355.415C99.783,355.459 99.582,355.481 99.425,355.481C99.288,355.481 99.22,355.423 99.22,355.305C99.22,355.236 99.234,355.163 99.264,355.084C99.293,355.006 99.362,354.972 99.469,354.982C99.587,354.991 99.741,354.987 99.932,354.967C100.124,354.947 100.315,354.918 100.506,354.879C100.697,354.84 100.863,354.798 101.005,354.754C101.147,354.71 101.233,354.668 101.263,354.629C101.302,354.55 101.343,354.364 101.388,354.07C101.432,353.776 101.468,353.407 101.498,352.961C101.527,352.515 101.552,352.008 101.571,351.439C101.591,350.871 101.601,350.269 101.601,349.632C101.601,348.769 101.593,348.059 101.579,347.5C101.564,346.942 101.547,346.496 101.527,346.163C101.508,345.83 101.483,345.585 101.454,345.428C101.424,345.271 101.395,345.154 101.365,345.075L100.307,345.017Z" style="fill-rule:nonzero;"/>
            <path d="M114.373,353.923C114.265,354.012 114.118,354.129 113.932,354.276C113.746,354.423 113.53,354.57 113.285,354.717C113.04,354.864 112.771,354.989 112.477,355.092C112.183,355.195 111.874,355.246 111.551,355.246C111.061,355.246 110.625,355.16 110.243,354.989C109.861,354.817 109.54,354.587 109.28,354.298C109.021,354.009 108.825,353.669 108.692,353.277C108.56,352.885 108.494,352.468 108.494,352.027C108.494,351.508 108.572,351.048 108.729,350.646C108.886,350.244 109.079,349.894 109.31,349.595C109.54,349.296 109.787,349.046 110.052,348.845C110.316,348.644 110.556,348.485 110.772,348.368C110.87,348.309 110.995,348.245 111.147,348.177C111.299,348.108 111.465,348.044 111.646,347.986C111.828,347.927 112.024,347.875 112.234,347.831C112.445,347.787 112.663,347.765 112.888,347.765C113.31,347.765 113.719,347.819 114.116,347.927C114.513,348.035 114.863,348.204 115.167,348.434C115.47,348.664 115.715,348.96 115.901,349.323C116.088,349.686 116.181,350.122 116.181,350.631C116.181,351.043 116.105,351.43 115.953,351.792C115.801,352.155 115.622,352.478 115.416,352.762C115.211,353.046 115.007,353.289 114.806,353.49C114.606,353.691 114.461,353.835 114.373,353.923ZM112.712,354.159C113.271,354.159 113.699,353.948 113.998,353.527C114.297,353.105 114.446,352.459 114.446,351.586C114.446,351.146 114.385,350.736 114.263,350.359C114.14,349.982 113.969,349.651 113.748,349.367C113.528,349.083 113.271,348.86 112.977,348.698C112.683,348.537 112.364,348.456 112.021,348.456C111.776,348.456 111.544,348.52 111.323,348.647C111.103,348.774 110.909,348.958 110.743,349.198C110.576,349.438 110.444,349.73 110.346,350.073C110.248,350.416 110.199,350.803 110.199,351.234C110.199,351.694 110.27,352.106 110.412,352.468C110.554,352.831 110.743,353.137 110.978,353.387C111.213,353.637 111.48,353.828 111.779,353.96C112.078,354.092 112.389,354.159 112.712,354.159Z" style="fill-rule:nonzero;"/>
            <path d="M123.779,348.853C123.672,348.941 123.544,349.051 123.397,349.183C123.25,349.316 123.096,349.443 122.934,349.566C122.773,349.688 122.609,349.793 122.442,349.882C122.275,349.97 122.114,350.014 121.957,350.014C121.82,350.014 121.697,349.982 121.589,349.918C121.482,349.855 121.381,349.786 121.288,349.712C121.195,349.639 121.104,349.57 121.016,349.507C120.928,349.443 120.835,349.411 120.737,349.411C120.472,349.411 120.25,349.519 120.068,349.735C119.887,349.95 119.74,350.224 119.627,350.558C119.515,350.891 119.431,351.253 119.377,351.645C119.324,352.037 119.297,352.414 119.297,352.777C119.297,353.081 119.309,353.328 119.333,353.519C119.358,353.71 119.395,353.862 119.444,353.975C119.493,354.087 119.559,354.163 119.642,354.203C119.725,354.242 119.826,354.261 119.943,354.261C120.071,354.261 120.208,354.242 120.355,354.203C120.384,354.193 120.406,354.212 120.421,354.261C120.436,354.31 120.443,354.35 120.443,354.379C120.443,354.399 120.428,354.421 120.399,354.445C120.37,354.47 120.35,354.482 120.34,354.482C120.125,354.57 119.904,354.666 119.679,354.768C119.453,354.871 119.267,354.957 119.12,355.026C118.983,355.084 118.819,355.148 118.628,355.217C118.437,355.285 118.273,355.32 118.136,355.32C117.979,355.32 117.849,355.295 117.746,355.246C117.643,355.197 117.592,355.148 117.592,355.099C117.592,355.05 117.604,355.006 117.628,354.967C117.653,354.928 117.675,354.854 117.695,354.746C117.714,354.599 117.736,354.426 117.761,354.225C117.785,354.024 117.81,353.806 117.834,353.571C117.859,353.335 117.878,353.093 117.893,352.843C117.908,352.593 117.915,352.346 117.915,352.101C117.915,351.552 117.898,351.087 117.864,350.705C117.829,350.322 117.768,350.014 117.68,349.779C117.592,349.543 117.472,349.374 117.32,349.272C117.168,349.169 116.974,349.117 116.739,349.117L116.607,349.117C116.568,349.117 116.529,349.122 116.489,349.132C116.431,349.132 116.401,349.103 116.401,349.044C116.401,348.985 116.431,348.941 116.489,348.911C116.597,348.843 116.764,348.742 116.989,348.61C117.214,348.478 117.447,348.351 117.687,348.228C117.927,348.106 118.16,347.995 118.385,347.897C118.611,347.799 118.777,347.75 118.885,347.75C119.012,347.75 119.12,347.792 119.208,347.875C119.297,347.959 119.363,348.064 119.407,348.191C119.451,348.319 119.483,348.463 119.502,348.625C119.522,348.787 119.532,348.946 119.532,349.103C119.532,349.22 119.529,349.343 119.524,349.47C119.52,349.597 119.517,349.735 119.517,349.882C119.958,349.235 120.355,348.733 120.708,348.375C121.06,348.017 121.393,347.839 121.707,347.839C121.825,347.839 121.94,347.888 122.052,347.986C122.165,348.083 122.285,348.194 122.413,348.316C122.54,348.439 122.672,348.549 122.809,348.647C122.947,348.745 123.089,348.794 123.236,348.794C123.363,348.794 123.456,348.779 123.515,348.75C123.574,348.72 123.623,348.696 123.662,348.676C123.74,348.676 123.779,348.73 123.779,348.838L123.779,348.853Z" style="fill-rule:nonzero;"/>
            <path d="M128.527,353.923C128.439,354.012 128.296,354.129 128.101,354.276C127.905,354.423 127.674,354.568 127.41,354.71C127.145,354.852 126.859,354.974 126.55,355.077C126.241,355.18 125.93,355.231 125.617,355.231C125.293,355.231 124.97,355.158 124.647,355.011C124.323,354.864 124.032,354.651 123.772,354.372C123.512,354.092 123.304,353.757 123.147,353.365C122.991,352.973 122.912,352.532 122.912,352.042C122.912,351.405 123.022,350.827 123.243,350.308C123.463,349.788 123.787,349.347 124.213,348.985C124.639,348.622 125.159,348.343 125.771,348.147C126.383,347.951 127.086,347.853 127.88,347.853L128.277,347.853C128.404,347.853 128.522,347.858 128.63,347.868L128.63,347.39C128.63,347.16 128.627,346.922 128.622,346.677C128.617,346.432 128.612,346.207 128.608,346.001C128.603,345.796 128.6,345.668 128.6,345.619C128.561,345.227 128.495,344.953 128.402,344.796C128.309,344.639 128.12,344.561 127.836,344.561C127.797,344.561 127.775,344.517 127.77,344.429C127.765,344.34 127.797,344.272 127.865,344.223C127.944,344.174 128.032,344.137 128.13,344.113C128.228,344.088 128.375,344.076 128.571,344.076C128.943,344.076 129.254,344.073 129.504,344.069C129.754,344.064 129.96,344.054 130.121,344.039C130.283,344.024 130.413,344.005 130.511,343.98C130.609,343.956 130.692,343.929 130.761,343.9C130.81,343.89 130.851,343.902 130.886,343.936C130.92,343.971 130.945,344.015 130.959,344.069C130.974,344.122 130.976,344.174 130.967,344.223C130.957,344.272 130.927,344.301 130.878,344.311C130.771,344.331 130.69,344.353 130.636,344.377C130.582,344.402 130.531,344.448 130.482,344.517C130.433,344.585 130.388,344.767 130.349,345.061C130.31,345.355 130.271,345.717 130.232,346.148C130.192,346.579 130.158,347.057 130.129,347.581C130.099,348.106 130.075,348.632 130.055,349.161C130.036,349.69 130.019,350.205 130.004,350.705C129.989,351.204 129.982,351.64 129.982,352.013C129.982,352.728 130.06,353.255 130.217,353.593C130.374,353.931 130.614,354.1 130.937,354.1C131.055,354.1 131.185,354.08 131.327,354.041C131.469,354.002 131.601,353.955 131.724,353.901C131.846,353.847 131.959,353.794 132.062,353.74C132.164,353.686 132.24,353.639 132.289,353.6C132.338,353.561 132.382,353.585 132.422,353.674C132.461,353.762 132.456,353.82 132.407,353.85C132.289,353.918 132.106,354.019 131.856,354.151C131.606,354.283 131.329,354.423 131.025,354.57C130.653,354.756 130.276,354.923 129.894,355.07C129.512,355.217 129.203,355.29 128.968,355.29C128.791,355.29 128.671,355.261 128.608,355.202C128.544,355.143 128.512,355.05 128.512,354.923L128.512,354.724C128.512,354.631 128.515,354.533 128.519,354.43C128.524,354.328 128.527,354.23 128.527,354.136L128.527,353.923ZM128.336,353.424C128.414,353.316 128.473,353.191 128.512,353.049C128.551,352.907 128.581,352.713 128.6,352.468C128.62,352.263 128.63,352.01 128.63,351.711L128.63,350.925C128.63,350.7 128.627,350.46 128.622,350.205C128.617,349.95 128.61,349.774 128.6,349.676C128.581,349.509 128.512,349.352 128.394,349.205C128.277,349.058 128.125,348.931 127.939,348.823C127.753,348.715 127.535,348.63 127.285,348.566C127.035,348.502 126.773,348.471 126.498,348.471C126.234,348.471 125.984,348.515 125.749,348.603C125.514,348.691 125.31,348.833 125.139,349.029C124.967,349.225 124.833,349.477 124.735,349.786C124.637,350.095 124.588,350.474 124.588,350.925C124.588,351.386 124.651,351.804 124.779,352.182C124.906,352.559 125.083,352.885 125.308,353.159C125.533,353.433 125.803,353.647 126.116,353.798C126.43,353.95 126.773,354.026 127.145,354.026C127.292,354.026 127.429,354.004 127.557,353.96C127.684,353.916 127.799,353.862 127.902,353.798C128.005,353.735 128.096,353.669 128.174,353.6C128.252,353.531 128.306,353.473 128.336,353.424Z" style="fill-rule:nonzero;"/>
            <path d="M63.931,369.87C63.833,369.87 63.7,369.875 63.534,369.885C63.367,369.895 63.188,369.902 62.997,369.907C62.806,369.912 62.61,369.919 62.409,369.929C62.208,369.939 62.025,369.944 61.858,369.944C61.202,369.944 60.56,369.843 59.933,369.643C59.306,369.442 58.75,369.128 58.265,368.702C57.78,368.276 57.388,367.727 57.089,367.056C56.79,366.385 56.64,365.579 56.64,364.638C56.64,363.776 56.805,363.011 57.133,362.345C57.461,361.679 57.895,361.12 58.434,360.67C58.973,360.219 59.58,359.876 60.256,359.641C60.932,359.406 61.623,359.288 62.328,359.288C62.485,359.288 62.698,359.298 62.968,359.317C63.237,359.337 63.507,359.362 63.776,359.391C64.046,359.42 64.286,359.452 64.496,359.486C64.707,359.521 64.842,359.553 64.901,359.582C65.028,359.239 65.17,358.935 65.327,358.671C65.484,358.406 65.699,358.205 65.974,358.068C66.052,358.039 66.14,358.034 66.238,358.053C66.336,358.073 66.385,358.122 66.385,358.2C66.336,358.289 66.299,358.342 66.275,358.362C66.25,358.382 66.218,358.391 66.179,358.391C66.062,358.391 65.947,358.445 65.834,358.553C65.721,358.661 65.616,358.801 65.518,358.972C65.42,359.143 65.334,359.339 65.261,359.56C65.187,359.78 65.131,360.003 65.092,360.229C65.072,360.336 65.05,360.461 65.026,360.603C65.001,360.746 64.979,360.885 64.959,361.022C64.94,361.16 64.925,361.292 64.915,361.419C64.905,361.547 64.901,361.654 64.901,361.743C64.901,361.792 64.881,361.833 64.842,361.867C64.803,361.902 64.763,361.919 64.724,361.919C64.665,361.919 64.597,361.89 64.518,361.831C64.479,361.586 64.398,361.341 64.276,361.096C64.153,360.851 63.982,360.63 63.762,360.434C63.541,360.238 63.267,360.082 62.938,359.964C62.61,359.847 62.221,359.788 61.77,359.788C61.29,359.788 60.861,359.9 60.484,360.126C60.107,360.351 59.788,360.66 59.529,361.052C59.269,361.444 59.071,361.909 58.933,362.448C58.796,362.987 58.728,363.565 58.728,364.182C58.728,365.035 58.813,365.792 58.985,366.453C59.156,367.115 59.394,367.675 59.698,368.136C60.001,368.597 60.364,368.947 60.785,369.187C61.207,369.427 61.667,369.547 62.167,369.547C62.5,369.547 62.826,369.493 63.144,369.385C63.463,369.278 63.757,369.131 64.026,368.944C64.296,368.758 64.536,368.543 64.746,368.298C64.957,368.053 65.121,367.793 65.239,367.519C65.258,367.48 65.31,367.45 65.393,367.431C65.476,367.411 65.518,367.421 65.518,367.46C65.518,367.587 65.476,367.761 65.393,367.982C65.31,368.202 65.214,368.423 65.106,368.643C64.999,368.864 64.891,369.064 64.783,369.246C64.675,369.427 64.602,369.547 64.563,369.606C64.533,369.674 64.496,369.765 64.452,369.878C64.408,369.99 64.369,370.118 64.335,370.26C64.3,370.402 64.269,370.549 64.239,370.701C64.21,370.853 64.195,371.002 64.195,371.149C64.195,371.306 64.175,371.404 64.136,371.443C64.097,371.482 64.014,371.502 63.886,371.502C63.779,371.502 63.73,371.426 63.739,371.274C63.749,371.122 63.774,370.948 63.813,370.752C63.852,370.556 63.891,370.373 63.931,370.201C63.97,370.03 63.97,369.919 63.931,369.87Z" style="fill-rule:nonzero;"/>
            <path d="M72.044,368.621C71.936,368.709 71.789,368.827 71.603,368.974C71.417,369.121 71.201,369.268 70.956,369.415C70.711,369.562 70.442,369.687 70.148,369.789C69.854,369.892 69.545,369.944 69.222,369.944C68.732,369.944 68.296,369.858 67.914,369.687C67.531,369.515 67.211,369.285 66.951,368.996C66.691,368.707 66.495,368.366 66.363,367.974C66.231,367.582 66.165,367.166 66.165,366.725C66.165,366.206 66.243,365.745 66.4,365.343C66.557,364.942 66.75,364.591 66.98,364.293C67.211,363.994 67.458,363.744 67.723,363.543C67.987,363.342 68.227,363.183 68.443,363.065C68.541,363.007 68.666,362.943 68.818,362.874C68.969,362.806 69.136,362.742 69.317,362.683C69.498,362.624 69.694,362.573 69.905,362.529C70.116,362.485 70.334,362.463 70.559,362.463C70.981,362.463 71.39,362.517 71.786,362.624C72.183,362.732 72.534,362.901 72.837,363.131C73.141,363.362 73.386,363.658 73.572,364.021C73.758,364.383 73.851,364.819 73.851,365.329C73.851,365.74 73.776,366.127 73.624,366.49C73.472,366.852 73.293,367.176 73.087,367.46C72.881,367.744 72.678,367.987 72.477,368.187C72.276,368.388 72.132,368.533 72.044,368.621ZM70.383,368.856C70.941,368.856 71.37,368.646 71.669,368.224C71.968,367.803 72.117,367.156 72.117,366.284C72.117,365.843 72.056,365.434 71.933,365.057C71.811,364.68 71.639,364.349 71.419,364.065C71.199,363.781 70.941,363.558 70.647,363.396C70.353,363.234 70.035,363.154 69.692,363.154C69.447,363.154 69.214,363.217 68.994,363.345C68.773,363.472 68.58,363.656 68.413,363.896C68.247,364.136 68.114,364.427 68.016,364.77C67.918,365.113 67.87,365.5 67.87,365.931C67.87,366.392 67.941,366.803 68.083,367.166C68.225,367.529 68.413,367.835 68.648,368.085C68.884,368.334 69.151,368.525 69.45,368.658C69.748,368.79 70.059,368.856 70.383,368.856Z" style="fill-rule:nonzero;"/>
            <path d="M88.387,368.518C88.417,368.518 88.436,368.535 88.446,368.57C88.456,368.604 88.461,368.646 88.461,368.695C88.461,368.744 88.451,368.775 88.432,368.79C88.412,368.805 88.392,368.822 88.373,368.841C88.304,368.881 88.14,368.964 87.88,369.091C87.621,369.219 87.332,369.349 87.013,369.481C86.695,369.613 86.381,369.731 86.073,369.834C85.764,369.936 85.531,369.988 85.374,369.988C85.237,369.988 85.107,369.959 84.985,369.9C84.862,369.841 84.811,369.748 84.831,369.62C84.85,369.542 84.872,369.425 84.897,369.268C84.921,369.111 84.943,368.92 84.963,368.695C84.982,368.41 85.005,368.082 85.029,367.71C85.054,367.337 85.066,366.926 85.066,366.475C85.066,365.946 85.031,365.508 84.963,365.16C84.894,364.812 84.796,364.535 84.669,364.329C84.542,364.124 84.385,363.979 84.199,363.896C84.012,363.812 83.797,363.771 83.552,363.771C83.327,363.771 83.135,363.808 82.979,363.881C82.822,363.955 82.685,364.035 82.567,364.124C82.352,364.29 82.183,364.503 82.06,364.763C81.938,365.023 81.862,365.363 81.832,365.784C81.822,365.892 81.815,366 81.81,366.108C81.805,366.216 81.8,366.333 81.796,366.46C81.791,366.588 81.786,366.73 81.781,366.887C81.776,367.043 81.773,367.23 81.773,367.445C81.773,368.023 81.82,368.425 81.913,368.65C82.006,368.876 82.165,368.988 82.391,368.988C82.469,368.988 82.518,368.986 82.538,368.981C82.557,368.976 82.597,368.969 82.655,368.959C82.675,368.979 82.695,369.003 82.714,369.033C82.744,369.082 82.739,369.135 82.699,369.194C82.65,369.253 82.533,369.329 82.347,369.422C82.161,369.515 81.955,369.601 81.729,369.679C81.504,369.758 81.284,369.826 81.068,369.885C80.852,369.944 80.691,369.973 80.583,369.973C80.446,369.973 80.321,369.956 80.208,369.922C80.096,369.887 80.039,369.846 80.039,369.797C80.039,369.738 80.059,369.669 80.098,369.591C80.127,369.542 80.157,369.425 80.186,369.238C80.216,369.052 80.242,368.812 80.267,368.518C80.291,368.224 80.314,367.884 80.333,367.497C80.353,367.11 80.363,366.691 80.363,366.24C80.363,366.005 80.35,365.745 80.326,365.461C80.301,365.177 80.24,364.91 80.142,364.66C80.044,364.41 79.9,364.199 79.708,364.028C79.517,363.857 79.255,363.771 78.922,363.771C78.726,363.771 78.55,363.798 78.393,363.852C78.236,363.906 78.104,363.972 77.996,364.05C77.781,364.217 77.597,364.422 77.445,364.667C77.293,364.912 77.193,365.26 77.144,365.711C77.124,365.917 77.105,366.13 77.085,366.35C77.065,366.571 77.056,366.823 77.056,367.107C77.056,367.48 77.065,367.788 77.085,368.033C77.105,368.278 77.139,368.472 77.188,368.614C77.237,368.756 77.296,368.854 77.364,368.908C77.433,368.962 77.521,368.988 77.629,368.988C77.737,368.988 77.81,368.979 77.849,368.959C77.898,368.939 77.933,368.969 77.952,369.047C77.972,369.126 77.967,369.175 77.937,369.194C77.898,369.233 77.795,369.295 77.629,369.378C77.462,369.461 77.271,369.547 77.056,369.635C76.84,369.723 76.62,369.802 76.394,369.87C76.169,369.939 75.978,369.973 75.821,369.973C75.654,369.973 75.525,369.954 75.431,369.914C75.338,369.875 75.292,369.831 75.292,369.782C75.292,369.772 75.302,369.741 75.321,369.687C75.341,369.633 75.356,369.586 75.365,369.547C75.405,369.243 75.441,368.962 75.476,368.702C75.51,368.442 75.534,368.161 75.549,367.857C75.564,367.553 75.576,367.205 75.586,366.813C75.596,366.421 75.6,365.946 75.6,365.388C75.6,364.849 75.515,364.452 75.343,364.197C75.172,363.942 74.993,363.815 74.807,363.815C74.728,363.815 74.662,363.822 74.608,363.837C74.554,363.852 74.503,363.864 74.454,363.874C74.395,363.883 74.366,363.854 74.366,363.786L74.366,363.683C74.376,363.673 74.474,363.604 74.66,363.477C74.846,363.349 75.066,363.212 75.321,363.065C75.576,362.918 75.841,362.784 76.115,362.661C76.389,362.539 76.615,362.477 76.791,362.477C76.909,362.477 77.009,362.512 77.092,362.58C77.176,362.649 77.217,362.776 77.217,362.962C77.217,363.051 77.215,363.149 77.21,363.256C77.205,363.364 77.2,363.477 77.195,363.594C77.19,363.712 77.183,363.827 77.173,363.94C77.163,364.053 77.158,364.148 77.158,364.226C77.296,364.099 77.47,363.932 77.68,363.727C77.891,363.521 78.128,363.325 78.393,363.139C78.658,362.953 78.944,362.791 79.253,362.654C79.561,362.517 79.887,362.448 80.23,362.448C80.681,362.448 81.048,362.58 81.333,362.845C81.617,363.109 81.769,363.57 81.788,364.226C81.945,364.079 82.136,363.903 82.361,363.697C82.587,363.492 82.839,363.296 83.118,363.109C83.398,362.923 83.694,362.766 84.008,362.639C84.321,362.512 84.64,362.448 84.963,362.448C86.1,362.448 86.668,363.051 86.668,364.256C86.668,364.452 86.658,364.677 86.638,364.932C86.619,365.187 86.594,365.454 86.565,365.733C86.536,366.012 86.511,366.289 86.491,366.563C86.472,366.838 86.462,367.088 86.462,367.313C86.462,368.332 86.732,368.841 87.27,368.841C87.359,368.841 87.457,368.829 87.564,368.805C87.672,368.78 87.78,368.751 87.888,368.717C87.996,368.682 88.093,368.648 88.182,368.614C88.27,368.579 88.334,368.548 88.373,368.518L88.387,368.518Z" style="fill-rule:nonzero;"/>
            <path d="M93.884,369.121C93.571,369.317 93.184,369.493 92.723,369.65C92.263,369.807 91.817,369.885 91.386,369.885C91.249,369.885 91.094,369.875 90.923,369.856C90.751,369.836 90.612,369.816 90.504,369.797C90.494,369.983 90.487,370.174 90.482,370.37C90.477,370.566 90.472,370.755 90.467,370.936C90.462,371.117 90.457,371.286 90.452,371.443C90.448,371.6 90.445,371.732 90.445,371.84C90.445,372.34 90.487,372.678 90.57,372.854C90.653,373.03 90.783,373.119 90.96,373.119C91.048,373.119 91.168,373.106 91.32,373.082C91.472,373.057 91.606,373.016 91.724,372.957C91.743,372.937 91.765,372.957 91.79,373.016C91.814,373.074 91.827,373.128 91.827,373.177C91.827,373.187 91.758,373.214 91.621,373.258C91.484,373.302 91.31,373.356 91.099,373.42C90.888,373.484 90.661,373.552 90.416,373.626C90.171,373.699 89.936,373.768 89.71,373.831C89.485,373.895 89.291,373.946 89.13,373.986C88.968,374.025 88.868,374.044 88.828,374.044C88.77,374.044 88.716,374.04 88.667,374.03C88.618,374.02 88.593,373.976 88.593,373.897C88.593,373.849 88.61,373.817 88.645,373.802C88.679,373.787 88.706,373.765 88.725,373.736C88.774,373.677 88.804,373.567 88.814,373.405C88.823,373.243 88.838,373.084 88.858,372.927C88.887,372.545 88.919,372.092 88.953,371.568C88.988,371.044 89.019,370.495 89.049,369.922C89.078,369.349 89.105,368.775 89.13,368.202C89.154,367.629 89.166,367.107 89.166,366.637C89.166,365.971 89.139,365.449 89.086,365.072C89.032,364.694 88.956,364.415 88.858,364.234C88.76,364.053 88.65,363.94 88.527,363.896C88.405,363.852 88.275,363.83 88.138,363.83C88.108,363.83 88.067,363.832 88.013,363.837C87.959,363.842 87.907,363.844 87.858,363.844C87.819,363.844 87.8,363.81 87.8,363.741C87.8,363.692 87.802,363.661 87.807,363.646C87.812,363.631 87.834,363.614 87.873,363.594C87.922,363.565 88.013,363.516 88.145,363.447C88.277,363.379 88.429,363.303 88.601,363.22C88.772,363.136 88.956,363.048 89.152,362.955C89.348,362.862 89.531,362.779 89.703,362.705C89.874,362.632 90.024,362.57 90.151,362.522C90.279,362.473 90.367,362.448 90.416,362.448C90.563,362.448 90.663,362.512 90.717,362.639C90.771,362.766 90.803,362.938 90.813,363.154C90.813,363.242 90.81,363.381 90.805,363.572C90.8,363.763 90.793,363.981 90.783,364.226C90.911,364.089 91.084,363.92 91.305,363.719C91.525,363.518 91.775,363.325 92.055,363.139C92.334,362.953 92.628,362.793 92.936,362.661C93.245,362.529 93.546,362.463 93.84,362.463C94.262,362.463 94.636,362.539 94.965,362.691C95.293,362.842 95.565,363.043 95.78,363.293C95.996,363.543 96.16,363.827 96.273,364.146C96.385,364.464 96.442,364.79 96.442,365.123C96.442,365.593 96.371,366.027 96.229,366.424C96.087,366.821 95.913,367.173 95.707,367.482C95.501,367.791 95.276,368.058 95.031,368.283C94.786,368.508 94.56,368.685 94.355,368.812L93.884,369.121ZM90.577,367.989C90.607,368.097 90.685,368.207 90.813,368.32C90.94,368.432 91.104,368.535 91.305,368.628C91.506,368.721 91.736,368.8 91.996,368.864C92.255,368.927 92.532,368.959 92.826,368.959C93.091,368.959 93.343,368.908 93.583,368.805C93.823,368.702 94.031,368.54 94.208,368.32C94.384,368.099 94.524,367.813 94.627,367.46C94.729,367.107 94.781,366.681 94.781,366.181C94.781,365.828 94.732,365.495 94.634,365.182C94.536,364.868 94.394,364.594 94.208,364.359C94.022,364.124 93.801,363.94 93.546,363.808C93.292,363.675 93.012,363.609 92.709,363.609C92.552,363.609 92.378,363.643 92.187,363.712C91.996,363.781 91.812,363.874 91.636,363.991C91.459,364.109 91.295,364.246 91.143,364.403C90.991,364.56 90.881,364.726 90.813,364.903C90.764,365.02 90.722,365.204 90.688,365.454C90.653,365.704 90.629,365.978 90.614,366.277C90.599,366.576 90.59,366.877 90.585,367.181C90.58,367.484 90.577,367.754 90.577,367.989Z" style="fill-rule:nonzero;"/>
            <path d="M101.895,367.504C101.865,367.337 101.836,367.156 101.806,366.96C101.777,366.764 101.748,366.578 101.718,366.402C101.689,366.225 101.662,366.073 101.637,365.946C101.613,365.819 101.596,365.735 101.586,365.696C101.429,365.755 101.253,365.824 101.057,365.902C100.861,365.98 100.665,366.066 100.469,366.159C100.273,366.252 100.087,366.345 99.91,366.438C99.734,366.532 99.587,366.617 99.469,366.696C99.244,366.843 99.073,366.99 98.955,367.137C98.837,367.284 98.779,367.46 98.779,367.666C98.779,367.95 98.862,368.2 99.029,368.415C99.195,368.631 99.455,368.739 99.808,368.739C99.994,368.739 100.187,368.704 100.388,368.636C100.589,368.567 100.775,368.489 100.947,368.401C101.118,368.312 101.267,368.224 101.395,368.136C101.522,368.048 101.61,367.979 101.659,367.93C101.738,367.852 101.799,367.786 101.843,367.732C101.887,367.678 101.904,367.602 101.895,367.504ZM101.468,365.226C101.41,364.922 101.341,364.65 101.263,364.41C101.184,364.17 101.086,363.969 100.969,363.808C100.851,363.646 100.709,363.523 100.542,363.44C100.376,363.357 100.17,363.315 99.925,363.315C99.71,363.315 99.511,363.354 99.33,363.433C99.149,363.511 98.992,363.604 98.86,363.712C98.727,363.82 98.624,363.928 98.551,364.035C98.477,364.143 98.436,364.226 98.426,364.285C98.416,364.364 98.372,364.403 98.294,364.403C98.156,364.403 98.029,364.354 97.912,364.256C97.794,364.158 97.735,364.04 97.735,363.903C97.735,363.825 97.745,363.766 97.765,363.727C97.99,363.599 98.264,363.462 98.588,363.315C98.911,363.168 99.247,363.031 99.594,362.904C99.942,362.776 100.288,362.671 100.631,362.588C100.974,362.504 101.282,362.463 101.557,362.463C101.968,362.463 102.284,362.522 102.505,362.639C102.725,362.757 102.889,362.923 102.997,363.139C103.105,363.354 103.171,363.607 103.195,363.896C103.22,364.185 103.242,364.496 103.261,364.829C103.291,365.329 103.33,365.811 103.379,366.277C103.428,366.742 103.502,367.154 103.6,367.511C103.698,367.869 103.822,368.158 103.974,368.379C104.126,368.599 104.315,368.709 104.54,368.709C104.648,368.709 104.766,368.69 104.893,368.65C105.02,368.611 105.143,368.565 105.26,368.511C105.378,368.457 105.483,368.403 105.576,368.349C105.669,368.295 105.731,368.258 105.76,368.239C105.848,368.239 105.902,368.283 105.922,368.371C105.922,368.42 105.912,368.464 105.892,368.503C105.873,368.523 105.799,368.572 105.672,368.65C105.545,368.729 105.388,368.822 105.202,368.93C105.015,369.037 104.81,369.153 104.584,369.275C104.359,369.398 104.136,369.513 103.916,369.62C103.695,369.728 103.492,369.816 103.306,369.885C103.119,369.954 102.972,369.988 102.865,369.988C102.737,369.988 102.627,369.936 102.534,369.834C102.441,369.731 102.36,369.594 102.291,369.422C102.223,369.251 102.164,369.052 102.115,368.827C102.066,368.601 102.022,368.366 101.983,368.121C101.806,368.268 101.581,368.442 101.307,368.643C101.032,368.844 100.733,369.033 100.41,369.209C100.087,369.385 99.756,369.535 99.418,369.657C99.08,369.78 98.754,369.841 98.441,369.841C98.176,369.841 97.946,369.799 97.75,369.716C97.554,369.633 97.39,369.522 97.257,369.385C97.125,369.248 97.027,369.089 96.964,368.908C96.9,368.726 96.868,368.538 96.868,368.342C96.868,368.028 96.964,367.771 97.155,367.57C97.346,367.369 97.642,367.161 98.044,366.945C98.23,366.848 98.49,366.718 98.823,366.556C99.156,366.394 99.496,366.23 99.844,366.064C100.192,365.897 100.515,365.738 100.814,365.586C101.113,365.434 101.331,365.314 101.468,365.226Z" style="fill-rule:nonzero;"/>
            <path d="M107.538,365.917C107.529,366.005 107.519,366.083 107.509,366.152C107.499,366.22 107.492,366.299 107.487,366.387C107.482,366.475 107.477,366.585 107.472,366.718C107.467,366.85 107.465,367.024 107.465,367.239C107.465,367.592 107.477,367.881 107.502,368.107C107.526,368.332 107.563,368.511 107.612,368.643C107.661,368.775 107.722,368.866 107.796,368.915C107.869,368.964 107.96,368.988 108.068,368.988C108.136,368.988 108.21,368.979 108.288,368.959C108.308,368.959 108.325,368.986 108.34,369.04C108.354,369.094 108.352,369.131 108.332,369.15C108.273,369.199 108.158,369.27 107.987,369.363C107.815,369.456 107.622,369.547 107.406,369.635C107.191,369.723 106.968,369.802 106.737,369.87C106.507,369.939 106.314,369.973 106.157,369.973C106.02,369.973 105.912,369.956 105.834,369.922C105.755,369.887 105.716,369.846 105.716,369.797C105.716,369.748 105.721,369.718 105.731,369.709C105.74,369.699 105.755,369.674 105.775,369.635C105.794,369.586 105.809,369.525 105.819,369.451C105.829,369.378 105.843,369.292 105.863,369.194C105.883,369.057 105.902,368.883 105.922,368.672C105.941,368.462 105.961,368.232 105.981,367.982C106,367.732 106.017,367.472 106.032,367.203C106.047,366.933 106.054,366.671 106.054,366.416C106.054,366.309 106.052,366.174 106.047,366.012C106.042,365.851 106.034,365.642 106.025,365.388C106.015,365.103 105.983,364.861 105.929,364.66C105.875,364.459 105.807,364.297 105.723,364.175C105.64,364.053 105.547,363.962 105.444,363.903C105.341,363.844 105.241,363.815 105.143,363.815L104.996,363.815C104.947,363.815 104.898,363.82 104.849,363.83C104.81,363.83 104.79,363.786 104.79,363.697C104.79,363.678 104.797,363.661 104.812,363.646C104.827,363.631 104.873,363.599 104.952,363.55C105.079,363.462 105.251,363.354 105.466,363.227C105.682,363.1 105.902,362.982 106.128,362.874C106.353,362.766 106.566,362.673 106.767,362.595C106.968,362.517 107.122,362.477 107.23,362.477C107.514,362.477 107.656,362.639 107.656,362.962C107.656,363.011 107.651,363.1 107.641,363.227C107.632,363.354 107.624,363.484 107.619,363.616C107.614,363.749 107.607,363.874 107.597,363.991C107.587,364.109 107.583,364.187 107.583,364.226C107.788,364.03 108.009,363.83 108.244,363.624C108.479,363.418 108.734,363.229 109.008,363.058C109.283,362.886 109.572,362.747 109.875,362.639C110.179,362.531 110.493,362.477 110.816,362.477C111.404,362.477 111.887,362.646 112.264,362.984C112.641,363.323 112.83,363.859 112.83,364.594C112.83,364.79 112.817,365.02 112.793,365.285C112.768,365.549 112.741,365.824 112.712,366.108C112.683,366.392 112.656,366.671 112.631,366.945C112.607,367.22 112.594,367.465 112.594,367.68C112.594,368.464 112.849,368.856 113.359,368.856C113.457,368.856 113.567,368.839 113.689,368.805C113.812,368.77 113.93,368.731 114.042,368.687C114.155,368.643 114.255,368.599 114.344,368.555C114.432,368.511 114.49,368.474 114.52,368.445C114.53,368.435 114.542,368.442 114.557,368.467C114.571,368.491 114.584,368.523 114.593,368.562C114.603,368.601 114.606,368.636 114.601,368.665C114.596,368.695 114.588,368.714 114.579,368.724C114.5,368.773 114.331,368.866 114.072,369.003C113.812,369.14 113.523,369.28 113.204,369.422C112.886,369.564 112.57,369.692 112.256,369.804C111.943,369.917 111.693,369.973 111.507,369.973C111.282,369.973 111.127,369.919 111.044,369.812C110.961,369.704 110.919,369.591 110.919,369.473C110.919,369.395 110.931,369.297 110.956,369.18C110.98,369.062 111.012,368.871 111.051,368.606C111.09,368.322 111.127,367.989 111.161,367.607C111.196,367.225 111.213,366.813 111.213,366.372C111.213,365.51 111.054,364.856 110.735,364.41C110.417,363.964 110.018,363.741 109.537,363.741C109.234,363.741 108.964,363.8 108.729,363.918C108.494,364.035 108.293,364.195 108.126,364.395C107.96,364.596 107.828,364.827 107.73,365.086C107.632,365.346 107.568,365.623 107.538,365.917Z" style="fill-rule:nonzero;"/>
            <path d="M116.636,367.239C116.636,367.445 116.641,367.644 116.651,367.835C116.661,368.026 116.695,368.19 116.754,368.327C116.813,368.464 116.901,368.574 117.018,368.658C117.136,368.741 117.303,368.783 117.518,368.783C117.626,368.783 117.748,368.77 117.886,368.746C118.023,368.721 118.153,368.69 118.275,368.65C118.398,368.611 118.505,368.572 118.598,368.533C118.692,368.494 118.748,368.464 118.768,368.445C118.797,368.415 118.817,368.415 118.826,368.445C118.836,368.474 118.839,368.511 118.834,368.555C118.829,368.599 118.817,368.643 118.797,368.687C118.777,368.731 118.753,368.763 118.723,368.783C118.625,368.832 118.454,368.92 118.209,369.047C117.964,369.175 117.675,369.307 117.342,369.444C117.028,369.581 116.722,369.696 116.423,369.789C116.124,369.883 115.877,369.929 115.681,369.929C115.456,369.929 115.279,369.861 115.152,369.723C115.025,369.586 114.961,369.415 114.961,369.209C114.961,369.14 114.963,369.082 114.968,369.033C114.973,368.984 114.98,368.92 114.99,368.841C115,368.744 115.017,368.565 115.042,368.305C115.066,368.045 115.091,367.754 115.115,367.431C115.14,367.107 115.162,366.781 115.181,366.453C115.201,366.125 115.211,365.843 115.211,365.608L115.211,365.094C115.211,364.839 115.196,364.613 115.167,364.418C115.137,364.222 115.088,364.07 115.02,363.962C114.971,363.893 114.909,363.837 114.836,363.793C114.762,363.749 114.672,363.727 114.564,363.727C114.505,363.727 114.446,363.739 114.388,363.763C114.329,363.788 114.285,363.8 114.255,363.8C114.236,363.8 114.204,363.771 114.16,363.712C114.116,363.653 114.118,363.609 114.167,363.58C114.236,363.531 114.378,363.452 114.593,363.345C114.809,363.237 115.044,363.119 115.299,362.992C115.573,362.855 115.838,362.735 116.093,362.632C116.347,362.529 116.529,362.477 116.636,362.477C116.744,362.477 116.818,362.509 116.857,362.573C116.896,362.637 116.916,362.708 116.916,362.786L116.916,362.845C116.916,362.943 116.901,363.1 116.872,363.315C116.842,363.531 116.81,363.795 116.776,364.109C116.742,364.422 116.71,364.785 116.68,365.196C116.651,365.608 116.636,366.054 116.636,366.534L116.636,367.239ZM116.048,359.597C116.097,359.606 116.178,359.66 116.291,359.758C116.404,359.856 116.519,359.969 116.636,360.096C116.754,360.224 116.857,360.346 116.945,360.464C117.033,360.581 117.077,360.66 117.077,360.699C117.077,360.748 117.018,360.821 116.901,360.919C116.783,361.017 116.649,361.118 116.497,361.221C116.345,361.324 116.198,361.414 116.056,361.493C115.914,361.571 115.813,361.61 115.754,361.61C115.725,361.61 115.654,361.564 115.541,361.471C115.429,361.378 115.314,361.272 115.196,361.155C115.078,361.037 114.973,360.922 114.88,360.809C114.787,360.697 114.74,360.621 114.74,360.581C114.74,360.532 114.804,360.456 114.931,360.354C115.059,360.251 115.198,360.143 115.35,360.03C115.502,359.918 115.649,359.82 115.791,359.736C115.933,359.653 116.019,359.606 116.048,359.597Z" style="fill-rule:nonzero;"/>
            <path d="M124.206,368.621C124.098,368.709 123.951,368.827 123.765,368.974C123.579,369.121 123.363,369.268 123.118,369.415C122.873,369.562 122.604,369.687 122.31,369.789C122.016,369.892 121.707,369.944 121.384,369.944C120.894,369.944 120.458,369.858 120.076,369.687C119.693,369.515 119.373,369.285 119.113,368.996C118.853,368.707 118.657,368.366 118.525,367.974C118.393,367.582 118.327,367.166 118.327,366.725C118.327,366.206 118.405,365.745 118.562,365.343C118.719,364.942 118.912,364.591 119.142,364.293C119.373,363.994 119.62,363.744 119.885,363.543C120.149,363.342 120.389,363.183 120.605,363.065C120.703,363.007 120.828,362.943 120.98,362.874C121.131,362.806 121.298,362.742 121.479,362.683C121.661,362.624 121.856,362.573 122.067,362.529C122.278,362.485 122.496,362.463 122.721,362.463C123.143,362.463 123.552,362.517 123.948,362.624C124.345,362.732 124.696,362.901 124.999,363.131C125.303,363.362 125.548,363.658 125.734,364.021C125.92,364.383 126.013,364.819 126.013,365.329C126.013,365.74 125.938,366.127 125.786,366.49C125.634,366.852 125.455,367.176 125.249,367.46C125.043,367.744 124.84,367.987 124.639,368.187C124.438,368.388 124.294,368.533 124.206,368.621ZM122.545,368.856C123.103,368.856 123.532,368.646 123.831,368.224C124.13,367.803 124.279,367.156 124.279,366.284C124.279,365.843 124.218,365.434 124.095,365.057C123.973,364.68 123.801,364.349 123.581,364.065C123.361,363.781 123.103,363.558 122.809,363.396C122.515,363.234 122.197,363.154 121.854,363.154C121.609,363.154 121.376,363.217 121.156,363.345C120.935,363.472 120.742,363.656 120.575,363.896C120.409,364.136 120.276,364.427 120.178,364.77C120.081,365.113 120.032,365.5 120.032,365.931C120.032,366.392 120.103,366.803 120.245,367.166C120.387,367.529 120.575,367.835 120.81,368.085C121.046,368.334 121.313,368.525 121.612,368.658C121.91,368.79 122.221,368.856 122.545,368.856Z" style="fill-rule:nonzero;"/>
            <path d="M129.188,365.917C129.178,366.005 129.169,366.083 129.159,366.152C129.149,366.22 129.142,366.299 129.137,366.387C129.132,366.475 129.127,366.585 129.122,366.718C129.117,366.85 129.115,367.024 129.115,367.239C129.115,367.592 129.127,367.881 129.151,368.107C129.176,368.332 129.213,368.511 129.262,368.643C129.311,368.775 129.372,368.866 129.445,368.915C129.519,368.964 129.609,368.988 129.717,368.988C129.786,368.988 129.859,368.979 129.938,368.959C129.957,368.959 129.974,368.986 129.989,369.04C130.004,369.094 130.001,369.131 129.982,369.15C129.923,369.199 129.808,369.27 129.636,369.363C129.465,369.456 129.271,369.547 129.056,369.635C128.84,369.723 128.617,369.802 128.387,369.87C128.157,369.939 127.963,369.973 127.807,369.973C127.669,369.973 127.562,369.956 127.483,369.922C127.405,369.887 127.366,369.846 127.366,369.797C127.366,369.748 127.371,369.718 127.38,369.709C127.39,369.699 127.405,369.674 127.424,369.635C127.444,369.586 127.459,369.525 127.469,369.451C127.478,369.378 127.493,369.292 127.513,369.194C127.532,369.057 127.552,368.883 127.571,368.672C127.591,368.462 127.611,368.232 127.63,367.982C127.65,367.732 127.667,367.472 127.682,367.203C127.696,366.933 127.704,366.671 127.704,366.416C127.704,366.309 127.701,366.174 127.696,366.012C127.691,365.851 127.684,365.642 127.674,365.388C127.664,365.103 127.633,364.861 127.579,364.66C127.525,364.459 127.456,364.297 127.373,364.175C127.29,364.053 127.197,363.962 127.094,363.903C126.991,363.844 126.89,363.815 126.792,363.815L126.645,363.815C126.596,363.815 126.547,363.82 126.498,363.83C126.459,363.83 126.44,363.786 126.44,363.697C126.44,363.678 126.447,363.661 126.462,363.646C126.476,363.631 126.523,363.599 126.601,363.55C126.729,363.462 126.9,363.354 127.116,363.227C127.331,363.1 127.552,362.982 127.777,362.874C128.003,362.766 128.216,362.673 128.417,362.595C128.617,362.517 128.772,362.477 128.88,362.477C129.164,362.477 129.306,362.639 129.306,362.962C129.306,363.011 129.301,363.1 129.291,363.227C129.281,363.354 129.274,363.484 129.269,363.616C129.264,363.749 129.257,363.874 129.247,363.991C129.237,364.109 129.232,364.187 129.232,364.226C129.438,364.03 129.658,363.83 129.894,363.624C130.129,363.418 130.384,363.229 130.658,363.058C130.932,362.886 131.221,362.747 131.525,362.639C131.829,362.531 132.142,362.477 132.466,362.477C133.054,362.477 133.536,362.646 133.913,362.984C134.291,363.323 134.479,363.859 134.479,364.594C134.479,364.79 134.467,365.02 134.443,365.285C134.418,365.549 134.391,365.824 134.362,366.108C134.332,366.392 134.305,366.671 134.281,366.945C134.256,367.22 134.244,367.465 134.244,367.68C134.244,368.464 134.499,368.856 135.008,368.856C135.106,368.856 135.217,368.839 135.339,368.805C135.462,368.77 135.579,368.731 135.692,368.687C135.805,368.643 135.905,368.599 135.993,368.555C136.081,368.511 136.14,368.474 136.17,368.445C136.179,368.435 136.192,368.442 136.206,368.467C136.221,368.491 136.233,368.523 136.243,368.562C136.253,368.601 136.255,368.636 136.25,368.665C136.245,368.695 136.238,368.714 136.228,368.724C136.15,368.773 135.981,368.866 135.721,369.003C135.462,369.14 135.173,369.28 134.854,369.422C134.536,369.564 134.22,369.692 133.906,369.804C133.593,369.917 133.343,369.973 133.157,369.973C132.931,369.973 132.777,369.919 132.694,369.812C132.61,369.704 132.569,369.591 132.569,369.473C132.569,369.395 132.581,369.297 132.605,369.18C132.63,369.062 132.662,368.871 132.701,368.606C132.74,368.322 132.777,367.989 132.811,367.607C132.845,367.225 132.863,366.813 132.863,366.372C132.863,365.51 132.703,364.856 132.385,364.41C132.066,363.964 131.667,363.741 131.187,363.741C130.883,363.741 130.614,363.8 130.379,363.918C130.144,364.035 129.943,364.195 129.776,364.395C129.609,364.596 129.477,364.827 129.379,365.086C129.281,365.346 129.218,365.623 129.188,365.917Z" style="fill-rule:nonzero;"/>
        </g>
        <g transform="matrix(1,0,0,1,-89.6693,-31.1068)">
            <text x="60.594px" y="355.099px" style="font-family:'Luminari-Regular', 'Luminari';font-size:14.698px;">T<tspan x="71.529px 75.542px " y="355.099px 355.099px ">im</tspan>e Lor<tspan x="122.486px " y="355.099px ">d</tspan></text>
            <text x="56.244px" y="369.797px" style="font-family:'Luminari-Regular', 'Luminari';font-size:14.698px;">Companion</text>
        </g>
        <g transform="matrix(0.0219124,0,0,0.0248558,-4.90147,285.934)">
            <g transform="matrix(1,0,0,1,-143.343,98.6554)">
                <ellipse cx="360.896" cy="293.762" rx="136.961" ry="230.443" style="fill:rgb(102,126,153);stroke:black;stroke-width:63.81px;"/>
            </g>
            <g transform="matrix(1,0,0,1,445.551,98.6554)">
                <ellipse cx="360.896" cy="293.762" rx="136.961" ry="230.443" style="fill:rgb(102,126,153);stroke:black;stroke-width:63.81px;"/>
            </g>
            <g transform="matrix(1,0,0,1,-34.3236,-20.6488)">
                <ellipse cx="546.324" cy="643.509" rx="431.408" ry="296.899" style="fill:rgb(102,126,153);stroke:black;stroke-width:63.81px;"/>
            </g>
            <circle cx="406.664" cy="569.758" r="105.336" style="fill:rgb(102,126,153);stroke:black;stroke-width:63.81px;"/>
            <g transform="matrix(1,0,0,1,210.672,0)">
                <circle cx="406.664" cy="569.758" r="105.336" style="fill:rgb(102,126,153);stroke:black;stroke-width:63.81px;"/>
            </g>
            <g transform="matrix(1,0,0,1,-53.1856,50.0357)">
                <ellipse cx="565.186" cy="671.455" rx="210.672" ry="98.631" style="fill:rgb(102,126,153);stroke:black;stroke-width:63.81px;"/>
            </g>
            <g transform="matrix(51.2,0,0,45.1371,0.670978,88.9676)">
                <path d="M12.057,13.791C12.057,13.668 11.958,13.568 11.835,13.568L8.139,13.568C8.016,13.568 7.916,13.668 7.916,13.791L7.916,14.236C7.916,14.359 8.016,14.458 8.139,14.458L11.835,14.458C11.958,14.458 12.057,14.359 12.057,14.236L12.057,13.791Z"/>
            </g>
        </g>
    </g>
</svg>
