<?xml version="1.0" encoding="UTF-8" standalone="no"?>
<!DOCTYPE svg PUBLIC "-//W3C//DTD SVG 1.1//EN" "http://www.w3.org/Graphics/SVG/1.1/DTD/svg11.dtd">
<svg width="100%" height="100%" viewBox="0 0 120 380" version="1.1" xmlns="http://www.w3.org/2000/svg" xmlns:xlink="http://www.w3.org/1999/xlink" xml:space="preserve" xmlns:serif="http://www.serif.com/" style="fill-rule:evenodd;clip-rule:evenodd;stroke-linecap:round;stroke-linejoin:round;stroke-miterlimit:1.5;">
    <g transform="matrix(0.576681,0,0,2.01589,-30.3082,-120.797)">
        <rect x="52.556" y="59.922" width="208.087" height="188.503" style="fill:rgb(154,178,191);stroke:rgb(5,5,5);stroke-width:1.35px;"/>
    </g>
    <g transform="matrix(1,0,0,1,17.4737,-37.426)">
        <g>
            <g id="Upload-input" serif:id="Upload#input" transform="matrix(0.175002,0,0,0.175002,54.7403,360.351)">
                <rect x="53.94" y="106.916" width="161.978" height="161.978" style="fill:rgb(204,204,204);"/>
            </g>
            <g transform="matrix(1,0,0,1,-21.3098,254.42)">
                <path d="M92.668,113.236L92.668,118.306L91.648,118.306L91.648,117.816L91.628,117.816C91.521,117.976 91.393,118.108 91.243,118.211C91.093,118.315 90.901,118.366 90.668,118.366C90.541,118.366 90.415,118.345 90.288,118.301C90.161,118.258 90.048,118.186 89.948,118.086C89.848,117.986 89.768,117.858 89.708,117.701C89.648,117.545 89.618,117.353 89.618,117.126L89.618,113.236L90.638,113.236L90.638,116.746C90.638,116.933 90.681,117.08 90.768,117.186C90.855,117.293 90.978,117.346 91.138,117.346C91.331,117.346 91.465,117.286 91.538,117.166C91.611,117.046 91.648,116.873 91.648,116.646L91.648,113.236L92.668,113.236Z" style="fill-rule:nonzero;"/>
                <path d="M93.508,120.356L93.508,113.236L94.528,113.236L94.528,113.696C94.655,113.55 94.785,113.426 94.918,113.326C95.051,113.226 95.245,113.176 95.498,113.176C95.918,113.176 96.215,113.336 96.388,113.656C96.448,113.77 96.491,113.91 96.518,114.076C96.545,114.243 96.558,114.466 96.558,114.746L96.558,116.676C96.558,117.05 96.548,117.32 96.528,117.486C96.488,117.82 96.335,118.07 96.068,118.236C95.935,118.323 95.741,118.366 95.488,118.366C95.288,118.366 95.11,118.321 94.953,118.231C94.796,118.141 94.661,118.013 94.548,117.846L94.528,117.846L94.528,120.356L93.508,120.356ZM95.538,114.886C95.538,114.68 95.498,114.513 95.418,114.386C95.338,114.26 95.211,114.196 95.038,114.196C94.885,114.196 94.761,114.255 94.668,114.371C94.575,114.488 94.528,114.64 94.528,114.826L94.528,116.796C94.528,116.956 94.576,117.088 94.673,117.191C94.77,117.295 94.891,117.346 95.038,117.346C95.231,117.346 95.363,117.286 95.433,117.166C95.503,117.046 95.538,116.906 95.538,116.746L95.538,114.886Z" style="fill-rule:nonzero;"/>
                <path d="M97.338,111.186L98.358,111.186L98.358,116.876C98.358,117.07 98.393,117.201 98.463,117.271C98.533,117.341 98.665,117.386 98.858,117.406L98.858,118.366C98.625,118.366 98.415,118.348 98.228,118.311C98.041,118.275 97.881,118.203 97.748,118.096C97.615,117.996 97.513,117.855 97.443,117.671C97.373,117.488 97.338,117.246 97.338,116.946L97.338,111.186Z" style="fill-rule:nonzero;"/>
                <path d="M99.168,114.936C99.168,114.73 99.181,114.54 99.208,114.366C99.235,114.193 99.285,114.04 99.358,113.906C99.478,113.686 99.65,113.51 99.873,113.376C100.096,113.243 100.368,113.176 100.688,113.176C101.008,113.176 101.28,113.243 101.503,113.376C101.726,113.51 101.898,113.686 102.018,113.906C102.091,114.04 102.141,114.193 102.168,114.366C102.195,114.54 102.208,114.73 102.208,114.936L102.208,116.606C102.208,116.813 102.195,117.003 102.168,117.176C102.141,117.35 102.091,117.503 102.018,117.636C101.898,117.856 101.726,118.033 101.503,118.166C101.28,118.3 101.008,118.366 100.688,118.366C100.368,118.366 100.096,118.3 99.873,118.166C99.65,118.033 99.478,117.856 99.358,117.636C99.285,117.503 99.235,117.35 99.208,117.176C99.181,117.003 99.168,116.813 99.168,116.606L99.168,114.936ZM100.188,116.766C100.188,116.96 100.233,117.105 100.323,117.201C100.413,117.298 100.535,117.346 100.688,117.346C100.841,117.346 100.963,117.298 101.053,117.201C101.143,117.105 101.188,116.96 101.188,116.766L101.188,114.776C101.188,114.583 101.143,114.438 101.053,114.341C100.963,114.245 100.841,114.196 100.688,114.196C100.535,114.196 100.413,114.245 100.323,114.341C100.233,114.438 100.188,114.583 100.188,114.776L100.188,116.766Z" style="fill-rule:nonzero;"/>
                <path d="M104.888,118.306L104.888,117.786L104.868,117.786C104.735,117.973 104.6,118.116 104.463,118.216C104.326,118.316 104.135,118.366 103.888,118.366C103.768,118.366 103.646,118.348 103.523,118.311C103.4,118.275 103.281,118.206 103.168,118.106C103.055,118.013 102.963,117.878 102.893,117.701C102.823,117.525 102.788,117.296 102.788,117.016C102.788,116.73 102.811,116.478 102.858,116.261C102.905,116.045 102.991,115.863 103.118,115.716C103.238,115.576 103.401,115.471 103.608,115.401C103.815,115.331 104.078,115.296 104.398,115.296L104.508,115.296C104.548,115.296 104.585,115.3 104.618,115.306C104.651,115.313 104.691,115.316 104.738,115.316C104.785,115.316 104.835,115.32 104.888,115.326L104.888,114.796C104.888,114.623 104.851,114.48 104.778,114.366C104.705,114.253 104.571,114.196 104.378,114.196C104.245,114.196 104.123,114.24 104.013,114.326C103.903,114.413 103.831,114.54 103.798,114.706L102.808,114.706C102.835,114.253 102.988,113.886 103.268,113.606C103.401,113.473 103.561,113.368 103.748,113.291C103.935,113.215 104.145,113.176 104.378,113.176C104.591,113.176 104.791,113.21 104.978,113.276C105.165,113.343 105.328,113.443 105.468,113.576C105.601,113.71 105.708,113.876 105.788,114.076C105.868,114.276 105.908,114.51 105.908,114.776L105.908,118.306L104.888,118.306ZM104.888,116.126C104.775,116.106 104.681,116.096 104.608,116.096C104.388,116.096 104.2,116.148 104.043,116.251C103.886,116.355 103.808,116.543 103.808,116.816C103.808,117.01 103.855,117.166 103.948,117.286C104.041,117.406 104.171,117.466 104.338,117.466C104.511,117.466 104.646,117.41 104.743,117.296C104.84,117.183 104.888,117.023 104.888,116.816L104.888,116.126Z" style="fill-rule:nonzero;"/>
                <path d="M107.678,116.656C107.678,116.863 107.718,117.03 107.798,117.156C107.878,117.283 108.005,117.346 108.178,117.346C108.331,117.346 108.455,117.288 108.548,117.171C108.641,117.055 108.688,116.903 108.688,116.716L108.688,114.746C108.688,114.586 108.64,114.455 108.543,114.351C108.446,114.248 108.325,114.196 108.178,114.196C107.985,114.196 107.853,114.256 107.783,114.376C107.713,114.496 107.678,114.636 107.678,114.796L107.678,116.656ZM108.688,118.306L108.688,117.846C108.621,117.92 108.558,117.988 108.498,118.051C108.438,118.115 108.371,118.17 108.298,118.216C108.225,118.263 108.141,118.3 108.048,118.326C107.955,118.353 107.845,118.366 107.718,118.366C107.291,118.366 106.995,118.206 106.828,117.886C106.768,117.773 106.725,117.633 106.698,117.466C106.671,117.3 106.658,117.076 106.658,116.796L106.658,114.866C106.658,114.5 106.668,114.23 106.688,114.056C106.728,113.723 106.885,113.473 107.158,113.306C107.285,113.22 107.475,113.176 107.728,113.176C107.928,113.176 108.106,113.221 108.263,113.311C108.42,113.401 108.555,113.53 108.668,113.696L108.688,113.696L108.688,111.186L109.708,111.186L109.708,118.306L108.688,118.306Z" style="fill-rule:nonzero;"/>
            </g>
            <g transform="matrix(1,0,0,1,-21.3098,254.42)">
                <text x="89.198px" y="118.306px" style="font-family:'DINCondensed-Bold', 'DIN Condensed';font-weight:700;font-stretch:condensed;font-size:10px;">upload</text>
            </g>
        </g>
    </g>
    <g id="Group2" transform="matrix(1,0,0,1,29.7138,-56.0996)">
        <g id="Output-output-P" serif:id="Output#output$P" transform="matrix(0.175002,0,0,0.175002,42.5002,325.428)">
            <rect x="53.94" y="106.916" width="161.978" height="161.978" style="fill:rgb(77,77,77);"/>
        </g>
        <g transform="matrix(1,0,0,1,-67.4916,243.535)">
            <path d="M89.668,118.306L89.668,112.266L88.648,113.016L88.648,111.936L89.668,111.186L90.688,111.186L90.688,118.306L89.668,118.306Z" style="fill-rule:nonzero;"/>
            <path d="M92.408,118.306L94.198,112.146L93.078,112.146L93.078,112.966L92.178,112.966L92.178,111.186L95.218,111.186L95.218,112.206L93.488,118.306L92.408,118.306Z" style="fill-rule:nonzero;"/>
            <rect x="95.998" y="115.026" width="3.01" height="1.02" style="fill-rule:nonzero;"/>
            <path d="M100.998,114.186C101.305,114.186 101.516,114.15 101.633,114.076C101.75,114.003 101.808,113.833 101.808,113.566L101.808,112.646C101.808,112.5 101.763,112.38 101.673,112.286C101.583,112.193 101.461,112.146 101.308,112.146C101.128,112.146 101,112.203 100.923,112.316C100.846,112.43 100.808,112.54 100.808,112.646L100.808,113.226L99.788,113.226L99.788,112.636C99.788,112.43 99.828,112.233 99.908,112.046C99.988,111.86 100.098,111.7 100.238,111.566C100.378,111.433 100.541,111.326 100.728,111.246C100.915,111.166 101.115,111.126 101.328,111.126C101.608,111.126 101.84,111.181 102.023,111.291C102.206,111.401 102.345,111.513 102.438,111.626C102.505,111.706 102.563,111.786 102.613,111.866C102.663,111.946 102.705,112.043 102.738,112.156C102.798,112.376 102.828,112.703 102.828,113.136C102.828,113.383 102.823,113.583 102.813,113.736C102.803,113.89 102.778,114.016 102.738,114.116C102.691,114.223 102.626,114.313 102.543,114.386C102.46,114.46 102.345,114.54 102.198,114.626C102.358,114.726 102.48,114.82 102.563,114.906C102.646,114.993 102.708,115.093 102.748,115.206C102.788,115.326 102.811,115.468 102.818,115.631C102.825,115.795 102.828,116.003 102.828,116.256C102.828,116.49 102.823,116.683 102.813,116.836C102.803,116.99 102.788,117.116 102.768,117.216C102.748,117.323 102.721,117.413 102.688,117.486C102.655,117.56 102.611,117.636 102.558,117.716C102.431,117.903 102.27,118.058 102.073,118.181C101.876,118.305 101.618,118.366 101.298,118.366C101.138,118.366 100.968,118.34 100.788,118.286C100.608,118.233 100.445,118.146 100.298,118.026C100.151,117.906 100.03,117.75 99.933,117.556C99.836,117.363 99.788,117.126 99.788,116.846L99.788,116.266L100.808,116.266L100.808,116.796C100.808,116.956 100.853,117.088 100.943,117.191C101.033,117.295 101.155,117.346 101.308,117.346C101.461,117.346 101.583,117.295 101.673,117.191C101.763,117.088 101.808,116.95 101.808,116.776L101.808,115.756C101.808,115.476 101.755,115.293 101.648,115.206C101.588,115.153 101.506,115.12 101.403,115.106C101.3,115.093 101.165,115.086 100.998,115.086L100.998,114.186Z" style="fill-rule:nonzero;"/>
            <path d="M103.508,118.306L103.508,117.346L105.348,113.876C105.441,113.703 105.495,113.551 105.508,113.421C105.521,113.291 105.528,113.13 105.528,112.936C105.528,112.85 105.526,112.758 105.523,112.661C105.52,112.565 105.501,112.48 105.468,112.406C105.435,112.333 105.385,112.271 105.318,112.221C105.251,112.171 105.155,112.146 105.028,112.146C104.875,112.146 104.753,112.19 104.663,112.276C104.573,112.363 104.528,112.49 104.528,112.656L104.528,113.236L103.508,113.236L103.508,112.676C103.508,112.463 103.548,112.263 103.628,112.076C103.708,111.89 103.818,111.726 103.958,111.586C104.091,111.446 104.251,111.335 104.438,111.251C104.625,111.168 104.825,111.126 105.038,111.126C105.305,111.126 105.533,111.175 105.723,111.271C105.913,111.368 106.071,111.5 106.198,111.666C106.318,111.833 106.406,112.023 106.463,112.236C106.52,112.45 106.548,112.676 106.548,112.916C106.548,113.09 106.545,113.235 106.538,113.351C106.531,113.468 106.518,113.58 106.498,113.686C106.478,113.793 106.445,113.9 106.398,114.006C106.351,114.113 106.288,114.243 106.208,114.396L104.708,117.286L106.548,117.286L106.548,118.306L103.508,118.306Z" style="fill-rule:nonzero;"/>
        </g>
        <g transform="matrix(1,0,0,1,-67.4916,243.535)">
            <text x="88.118px" y="118.306px" style="font-family:'DINCondensed-Bold', 'DIN Condensed';font-weight:700;font-stretch:condensed;font-size:10px;">17-32</text>
        </g>
        <g id="Pass-input-P" serif:id="Pass#input$P" transform="matrix(0.175002,0,0,0.175002,-29.1534,325.428)">
            <rect x="53.94" y="106.916" width="161.978" height="161.978" style="fill:rgb(204,204,204);"/>
        </g>
    </g>
    <g id="Group1" transform="matrix(1,0,0,1,28.4676,-93.0497)">
        <g id="Output-output-P1" serif:id="Output#output$P" transform="matrix(0.175002,0,0,0.175002,43.7464,328.875)">
            <rect x="53.94" y="106.916" width="161.978" height="161.978" style="fill:rgb(77,77,77);"/>
        </g>
        <g transform="matrix(1,0,0,1,-66.2454,246.982)">
            <path d="M90.748,118.306L90.748,112.266L89.728,113.016L89.728,111.936L90.748,111.186L91.768,111.186L91.768,118.306L90.748,118.306Z" style="fill-rule:nonzero;"/>
            <rect x="93.358" y="115.026" width="3.01" height="1.02" style="fill-rule:nonzero;"/>
            <path d="M98.358,118.306L98.358,112.266L97.338,113.016L97.338,111.936L98.358,111.186L99.378,111.186L99.378,118.306L98.358,118.306Z" style="fill-rule:nonzero;"/>
            <path d="M103.538,111.186L102.378,114.176L102.398,114.196C102.431,114.17 102.483,114.148 102.553,114.131C102.623,114.115 102.715,114.106 102.828,114.106C103.008,114.106 103.175,114.15 103.328,114.236C103.481,114.323 103.601,114.433 103.688,114.566C103.735,114.64 103.771,114.713 103.798,114.786C103.825,114.86 103.848,114.956 103.868,115.076C103.881,115.196 103.891,115.348 103.898,115.531C103.905,115.715 103.908,115.946 103.908,116.226C103.908,116.46 103.905,116.651 103.898,116.801C103.891,116.951 103.881,117.076 103.868,117.176C103.848,117.283 103.823,117.373 103.793,117.446C103.763,117.52 103.725,117.596 103.678,117.676C103.545,117.896 103.366,118.066 103.143,118.186C102.92,118.306 102.668,118.366 102.388,118.366C102.108,118.366 101.858,118.305 101.638,118.181C101.418,118.058 101.241,117.89 101.108,117.676C101.055,117.596 101.013,117.52 100.983,117.446C100.953,117.373 100.931,117.283 100.918,117.176C100.898,117.076 100.885,116.951 100.878,116.801C100.871,116.651 100.868,116.46 100.868,116.226C100.868,116.006 100.871,115.825 100.878,115.681C100.885,115.538 100.895,115.413 100.908,115.306C100.921,115.206 100.941,115.115 100.968,115.031C100.995,114.948 101.025,114.86 101.058,114.766L102.398,111.186L103.538,111.186ZM102.888,115.516C102.888,115.363 102.838,115.24 102.738,115.146C102.638,115.053 102.521,115.006 102.388,115.006C102.255,115.006 102.138,115.053 102.038,115.146C101.938,115.24 101.888,115.363 101.888,115.516L101.888,116.836C101.888,116.99 101.938,117.113 102.038,117.206C102.138,117.3 102.255,117.346 102.388,117.346C102.521,117.346 102.638,117.3 102.738,117.206C102.838,117.113 102.888,116.99 102.888,116.836L102.888,115.516Z" style="fill-rule:nonzero;"/>
        </g>
        <g transform="matrix(1,0,0,1,-66.2454,246.982)">
            <text x="89.198px" y="118.306px" style="font-family:'DINCondensed-Bold', 'DIN Condensed';font-weight:700;font-stretch:condensed;font-size:10px;">1-16</text>
        </g>
        <g id="Pass-input-P1" serif:id="Pass#input$P" transform="matrix(0.175002,0,0,0.175002,-27.9072,328.875)">
            <rect x="53.94" y="106.916" width="161.978" height="161.978" style="fill:rgb(204,204,204);"/>
        </g>
    </g>
    <g transform="matrix(1,0,0,1,-162.922,-50.8597)">
        <g transform="matrix(1,0,0,1,-6.42583,0)">
            <g id="Mode-button" serif:id="Mode#button" transform="matrix(0.758898,0,0,0.758898,224.663,48.7297)">
                <circle cx="55.661" cy="308.513" r="7.929"/>
            </g>
            <g transform="matrix(1,0,0,1,150.849,168.083)">
                <path d="M89.618,118.306L89.618,113.236L90.638,113.236L90.638,113.726L90.658,113.726C90.765,113.566 90.893,113.435 91.043,113.331C91.193,113.228 91.385,113.176 91.618,113.176C91.838,113.176 92.021,113.23 92.168,113.336C92.315,113.443 92.435,113.56 92.528,113.686C92.655,113.546 92.795,113.426 92.948,113.326C93.101,113.226 93.315,113.176 93.588,113.176C93.715,113.176 93.845,113.198 93.978,113.241C94.111,113.285 94.231,113.356 94.338,113.456C94.445,113.556 94.531,113.685 94.598,113.841C94.665,113.998 94.698,114.19 94.698,114.416L94.698,118.306L93.678,118.306L93.678,114.796C93.678,114.61 93.635,114.463 93.548,114.356C93.461,114.25 93.338,114.196 93.178,114.196C92.985,114.196 92.851,114.256 92.778,114.376C92.705,114.496 92.668,114.67 92.668,114.896L92.668,118.306L91.648,118.306L91.648,114.796C91.648,114.61 91.605,114.463 91.518,114.356C91.431,114.25 91.308,114.196 91.148,114.196C90.955,114.196 90.821,114.256 90.748,114.376C90.675,114.496 90.638,114.67 90.638,114.896L90.638,118.306L89.618,118.306Z" style="fill-rule:nonzero;"/>
                <path d="M95.448,114.936C95.448,114.73 95.461,114.54 95.488,114.366C95.515,114.193 95.565,114.04 95.638,113.906C95.758,113.686 95.93,113.51 96.153,113.376C96.376,113.243 96.648,113.176 96.968,113.176C97.288,113.176 97.56,113.243 97.783,113.376C98.006,113.51 98.178,113.686 98.298,113.906C98.371,114.04 98.421,114.193 98.448,114.366C98.475,114.54 98.488,114.73 98.488,114.936L98.488,116.606C98.488,116.813 98.475,117.003 98.448,117.176C98.421,117.35 98.371,117.503 98.298,117.636C98.178,117.856 98.006,118.033 97.783,118.166C97.56,118.3 97.288,118.366 96.968,118.366C96.648,118.366 96.376,118.3 96.153,118.166C95.93,118.033 95.758,117.856 95.638,117.636C95.565,117.503 95.515,117.35 95.488,117.176C95.461,117.003 95.448,116.813 95.448,116.606L95.448,114.936ZM96.468,116.766C96.468,116.96 96.513,117.105 96.603,117.201C96.693,117.298 96.815,117.346 96.968,117.346C97.121,117.346 97.243,117.298 97.333,117.201C97.423,117.105 97.468,116.96 97.468,116.766L97.468,114.776C97.468,114.583 97.423,114.438 97.333,114.341C97.243,114.245 97.121,114.196 96.968,114.196C96.815,114.196 96.693,114.245 96.603,114.341C96.513,114.438 96.468,114.583 96.468,114.776L96.468,116.766Z" style="fill-rule:nonzero;"/>
                <path d="M100.258,116.656C100.258,116.863 100.298,117.03 100.378,117.156C100.458,117.283 100.585,117.346 100.758,117.346C100.911,117.346 101.035,117.288 101.128,117.171C101.221,117.055 101.268,116.903 101.268,116.716L101.268,114.746C101.268,114.586 101.22,114.455 101.123,114.351C101.026,114.248 100.905,114.196 100.758,114.196C100.565,114.196 100.433,114.256 100.363,114.376C100.293,114.496 100.258,114.636 100.258,114.796L100.258,116.656ZM101.268,118.306L101.268,117.846C101.201,117.92 101.138,117.988 101.078,118.051C101.018,118.115 100.951,118.17 100.878,118.216C100.805,118.263 100.721,118.3 100.628,118.326C100.535,118.353 100.425,118.366 100.298,118.366C99.871,118.366 99.575,118.206 99.408,117.886C99.348,117.773 99.305,117.633 99.278,117.466C99.251,117.3 99.238,117.076 99.238,116.796L99.238,114.866C99.238,114.5 99.248,114.23 99.268,114.056C99.308,113.723 99.465,113.473 99.738,113.306C99.865,113.22 100.055,113.176 100.308,113.176C100.508,113.176 100.686,113.221 100.843,113.311C101,113.401 101.135,113.53 101.248,113.696L101.268,113.696L101.268,111.186L102.288,111.186L102.288,118.306L101.268,118.306Z" style="fill-rule:nonzero;"/>
                <path d="M106.078,116.156L104.058,116.156L104.058,116.846C104.058,117.006 104.103,117.13 104.193,117.216C104.283,117.303 104.405,117.346 104.558,117.346C104.751,117.346 104.88,117.29 104.943,117.176C105.006,117.063 105.045,116.95 105.058,116.836L106.078,116.836C106.078,117.283 105.941,117.643 105.668,117.916C105.535,118.056 105.375,118.166 105.188,118.246C105.001,118.326 104.791,118.366 104.558,118.366C104.238,118.366 103.966,118.3 103.743,118.166C103.52,118.033 103.348,117.856 103.228,117.636C103.155,117.503 103.105,117.35 103.078,117.176C103.051,117.003 103.038,116.813 103.038,116.606L103.038,114.936C103.038,114.73 103.051,114.54 103.078,114.366C103.105,114.193 103.155,114.04 103.228,113.906C103.348,113.686 103.52,113.51 103.743,113.376C103.966,113.243 104.238,113.176 104.558,113.176C104.791,113.176 105.003,113.216 105.193,113.296C105.383,113.376 105.545,113.486 105.678,113.626C105.945,113.926 106.078,114.303 106.078,114.756L106.078,116.156ZM104.058,115.356L105.058,115.356L105.058,114.776C105.058,114.583 105.013,114.438 104.923,114.341C104.833,114.245 104.711,114.196 104.558,114.196C104.405,114.196 104.283,114.245 104.193,114.341C104.103,114.438 104.058,114.583 104.058,114.776L104.058,115.356Z" style="fill-rule:nonzero;"/>
            </g>
            <g transform="matrix(1,0,0,1,150.849,168.083)">
                <text x="89.198px" y="118.306px" style="font-family:'DINCondensed-Bold', 'DIN Condensed';font-weight:700;font-stretch:condensed;font-size:10px;">mode</text>
            </g>
        </g>
        <g transform="matrix(1,0,0,1,6.98054,0)">
            <g id="Loop-ledbutton" serif:id="Loop#ledbutton" transform="matrix(1,0,0,1,97.8442,-27.3799)">
                <circle cx="101.308" cy="310.24" r="9.898" style="fill:rgb(115,115,115);"/>
            </g>
            <g transform="matrix(1,0,0,1,83.3642,167.088)">
                <path d="M89.558,111.186L90.578,111.186L90.578,116.876C90.578,117.07 90.613,117.201 90.683,117.271C90.753,117.341 90.885,117.386 91.078,117.406L91.078,118.366C90.845,118.366 90.635,118.348 90.448,118.311C90.261,118.275 90.101,118.203 89.968,118.096C89.835,117.996 89.733,117.855 89.663,117.671C89.593,117.488 89.558,117.246 89.558,116.946L89.558,111.186Z" style="fill-rule:nonzero;"/>
                <path d="M91.388,114.936C91.388,114.73 91.401,114.54 91.428,114.366C91.455,114.193 91.505,114.04 91.578,113.906C91.698,113.686 91.87,113.51 92.093,113.376C92.316,113.243 92.588,113.176 92.908,113.176C93.228,113.176 93.5,113.243 93.723,113.376C93.946,113.51 94.118,113.686 94.238,113.906C94.311,114.04 94.361,114.193 94.388,114.366C94.415,114.54 94.428,114.73 94.428,114.936L94.428,116.606C94.428,116.813 94.415,117.003 94.388,117.176C94.361,117.35 94.311,117.503 94.238,117.636C94.118,117.856 93.946,118.033 93.723,118.166C93.5,118.3 93.228,118.366 92.908,118.366C92.588,118.366 92.316,118.3 92.093,118.166C91.87,118.033 91.698,117.856 91.578,117.636C91.505,117.503 91.455,117.35 91.428,117.176C91.401,117.003 91.388,116.813 91.388,116.606L91.388,114.936ZM92.408,116.766C92.408,116.96 92.453,117.105 92.543,117.201C92.633,117.298 92.755,117.346 92.908,117.346C93.061,117.346 93.183,117.298 93.273,117.201C93.363,117.105 93.408,116.96 93.408,116.766L93.408,114.776C93.408,114.583 93.363,114.438 93.273,114.341C93.183,114.245 93.061,114.196 92.908,114.196C92.755,114.196 92.633,114.245 92.543,114.341C92.453,114.438 92.408,114.583 92.408,114.776L92.408,116.766Z" style="fill-rule:nonzero;"/>
                <path d="M95.088,114.936C95.088,114.73 95.101,114.54 95.128,114.366C95.155,114.193 95.205,114.04 95.278,113.906C95.398,113.686 95.57,113.51 95.793,113.376C96.016,113.243 96.288,113.176 96.608,113.176C96.928,113.176 97.2,113.243 97.423,113.376C97.646,113.51 97.818,113.686 97.938,113.906C98.011,114.04 98.061,114.193 98.088,114.366C98.115,114.54 98.128,114.73 98.128,114.936L98.128,116.606C98.128,116.813 98.115,117.003 98.088,117.176C98.061,117.35 98.011,117.503 97.938,117.636C97.818,117.856 97.646,118.033 97.423,118.166C97.2,118.3 96.928,118.366 96.608,118.366C96.288,118.366 96.016,118.3 95.793,118.166C95.57,118.033 95.398,117.856 95.278,117.636C95.205,117.503 95.155,117.35 95.128,117.176C95.101,117.003 95.088,116.813 95.088,116.606L95.088,114.936ZM96.108,116.766C96.108,116.96 96.153,117.105 96.243,117.201C96.333,117.298 96.455,117.346 96.608,117.346C96.761,117.346 96.883,117.298 96.973,117.201C97.063,117.105 97.108,116.96 97.108,116.766L97.108,114.776C97.108,114.583 97.063,114.438 96.973,114.341C96.883,114.245 96.761,114.196 96.608,114.196C96.455,114.196 96.333,114.245 96.243,114.341C96.153,114.438 96.108,114.583 96.108,114.776L96.108,116.766Z" style="fill-rule:nonzero;"/>
                <path d="M98.878,120.356L98.878,113.236L99.898,113.236L99.898,113.696C100.025,113.55 100.155,113.426 100.288,113.326C100.421,113.226 100.615,113.176 100.868,113.176C101.288,113.176 101.585,113.336 101.758,113.656C101.818,113.77 101.861,113.91 101.888,114.076C101.915,114.243 101.928,114.466 101.928,114.746L101.928,116.676C101.928,117.05 101.918,117.32 101.898,117.486C101.858,117.82 101.705,118.07 101.438,118.236C101.305,118.323 101.111,118.366 100.858,118.366C100.658,118.366 100.48,118.321 100.323,118.231C100.166,118.141 100.031,118.013 99.918,117.846L99.898,117.846L99.898,120.356L98.878,120.356ZM100.908,114.886C100.908,114.68 100.868,114.513 100.788,114.386C100.708,114.26 100.581,114.196 100.408,114.196C100.255,114.196 100.131,114.255 100.038,114.371C99.945,114.488 99.898,114.64 99.898,114.826L99.898,116.796C99.898,116.956 99.946,117.088 100.043,117.191C100.14,117.295 100.261,117.346 100.408,117.346C100.601,117.346 100.733,117.286 100.803,117.166C100.873,117.046 100.908,116.906 100.908,116.746L100.908,114.886Z" style="fill-rule:nonzero;"/>
            </g>
            <g transform="matrix(1,0,0,1,83.3642,167.088)">
                <text x="89.198px" y="118.306px" style="font-family:'DINCondensed-Bold', 'DIN Condensed';font-weight:700;font-stretch:condensed;font-size:10px;">loop</text>
            </g>
        </g>
    </g>
    <g id="Display-oled-100x180" serif:id="Display#oled$100x180" transform="matrix(2.12519,0,0,7.74092,-176.181,-510.016)">
        <rect x="87.136" y="70.02" width="47.996" height="23.511" style="fill:rgb(19,19,19);"/>
    </g>
    <g transform="matrix(0.816456,0,0,0.816456,19.7103,-226.739)">
        <g transform="matrix(0.353656,0,0,0.355332,79.9675,288.44)">
            <g transform="matrix(1,0,0,1.52796,0,-25.7261)">
                <path d="M32,19.635C48.456,19.635 61.817,25.176 61.817,32C61.817,38.824 48.456,44.365 32,44.365C15.544,44.365 2.183,38.824 2.183,32C2.183,25.176 15.544,19.635 32,19.635ZM32,23.625C43.146,23.625 52.196,27.378 52.196,32C52.196,36.622 43.146,40.375 32,40.375C20.854,40.375 11.804,36.622 11.804,32C11.804,27.378 20.854,23.625 32,23.625Z"/>
            </g>
            <g transform="matrix(1,0,0,1.4023,0,-27.0119)">
                <path d="M53.029,45.83C53.293,46.556 53.431,47.306 53.431,48.073C53.431,54.468 43.828,59.66 32,59.66C20.172,59.66 10.569,54.468 10.569,48.073C10.569,47.306 10.707,46.556 10.971,45.83C12.905,51.152 21.591,55.173 32,55.173C42.409,55.173 51.095,51.152 53.029,45.83Z"/>
            </g>
            <g transform="matrix(1,0,0,1,-4.73442,1.61912)">
                <ellipse cx="36.734" cy="21.549" rx="8.838" ry="5.29"/>
            </g>
        </g>
        <g transform="matrix(1,0,0,1,-47.1855,-49.5662)">
            <path d="M75.211,344.752C76.21,344.752 77.002,344.728 77.585,344.679C78.168,344.63 78.618,344.566 78.937,344.487C79.255,344.409 79.468,344.321 79.576,344.223C79.684,344.125 79.757,344.027 79.797,343.929C79.816,343.88 79.865,343.855 79.944,343.855C80.042,343.855 80.091,343.88 80.091,343.929C80.071,343.949 80.039,344.022 79.995,344.149C79.951,344.277 79.897,344.431 79.833,344.612C79.77,344.794 79.704,344.99 79.635,345.2C79.566,345.411 79.503,345.612 79.444,345.803C79.385,345.994 79.336,346.163 79.297,346.31C79.258,346.457 79.238,346.555 79.238,346.604C79.219,346.604 79.194,346.606 79.165,346.611C79.135,346.616 79.106,346.619 79.076,346.619C78.988,346.619 78.944,346.589 78.944,346.53C78.944,346.481 78.949,346.423 78.959,346.354C78.969,346.285 78.974,346.227 78.974,346.178C78.974,346.129 78.969,346.094 78.959,346.075C78.91,345.977 78.746,345.903 78.467,345.854C78.187,345.805 77.864,345.771 77.496,345.751C77.129,345.732 76.754,345.72 76.372,345.715C75.99,345.71 75.676,345.707 75.431,345.707C75.059,345.707 74.689,345.813 74.322,346.023C73.954,346.234 73.626,346.535 73.337,346.927C73.048,347.319 72.813,347.802 72.632,348.375C72.45,348.948 72.36,349.597 72.36,350.322C72.36,350.959 72.431,351.547 72.573,352.086C72.715,352.625 72.918,353.095 73.183,353.497C73.447,353.899 73.771,354.212 74.153,354.438C74.535,354.663 74.966,354.776 75.446,354.776C75.907,354.776 76.311,354.69 76.659,354.519C77.007,354.347 77.298,354.124 77.533,353.85C77.768,353.576 77.947,353.262 78.07,352.909C78.192,352.556 78.253,352.194 78.253,351.822C78.253,351.557 78.222,351.302 78.158,351.057C78.094,350.812 77.999,350.594 77.871,350.403C77.744,350.212 77.58,350.06 77.379,349.948C77.178,349.835 76.945,349.779 76.681,349.779C76.269,349.779 75.98,349.869 75.814,350.051C75.647,350.232 75.564,350.425 75.564,350.631C75.564,350.817 75.618,350.981 75.725,351.123C75.833,351.266 75.975,351.337 76.152,351.337C76.259,351.337 76.313,351.376 76.313,351.454C76.313,351.484 76.299,351.513 76.269,351.542C76.22,351.611 76.083,351.68 75.858,351.748C75.632,351.817 75.363,351.851 75.049,351.851C74.667,351.851 74.354,351.751 74.109,351.55C73.864,351.349 73.741,351.106 73.741,350.822C73.741,350.636 73.829,350.455 74.006,350.278C74.182,350.102 74.425,349.943 74.733,349.801C75.042,349.659 75.412,349.546 75.843,349.463C76.274,349.379 76.74,349.338 77.239,349.338C77.68,349.338 78.087,349.382 78.459,349.47C78.832,349.558 79.152,349.683 79.422,349.845C79.691,350.006 79.904,350.202 80.061,350.433C80.218,350.663 80.296,350.92 80.296,351.204C80.296,351.635 80.159,352.094 79.885,352.579C79.61,353.064 79.233,353.509 78.753,353.916C78.273,354.323 77.707,354.658 77.056,354.923C76.404,355.187 75.706,355.32 74.961,355.32C74.197,355.32 73.518,355.209 72.926,354.989C72.333,354.768 71.833,354.46 71.426,354.063C71.02,353.666 70.709,353.196 70.493,352.652C70.277,352.108 70.17,351.513 70.17,350.866C70.17,350.376 70.243,349.916 70.39,349.485C70.537,349.054 70.728,348.652 70.963,348.279C71.199,347.907 71.458,347.569 71.742,347.265C72.026,346.962 72.303,346.699 72.573,346.479C72.842,346.259 73.09,346.085 73.315,345.957C73.54,345.83 73.707,345.751 73.815,345.722C73.482,345.732 73.126,345.747 72.749,345.766C72.372,345.786 72.012,345.813 71.669,345.847C71.326,345.881 71.022,345.925 70.758,345.979C70.493,346.033 70.312,346.099 70.214,346.178C70.106,346.256 70.018,346.359 69.949,346.486C69.881,346.614 69.822,346.746 69.773,346.883C69.694,346.883 69.631,346.871 69.582,346.846C69.533,346.822 69.494,346.766 69.464,346.677C69.552,346.56 69.648,346.374 69.751,346.119C69.854,345.864 69.957,345.597 70.059,345.318C70.162,345.039 70.251,344.781 70.324,344.546C70.398,344.311 70.449,344.159 70.478,344.091C70.518,344.071 70.562,344.061 70.611,344.061C70.65,344.061 70.689,344.071 70.728,344.091C70.699,344.208 70.684,344.301 70.684,344.37C70.684,344.468 70.733,344.532 70.831,344.561C71.115,344.639 71.47,344.691 71.897,344.715C72.323,344.74 72.815,344.752 73.374,344.752L75.211,344.752Z" style="fill-rule:nonzero;"/>
            <path d="M87.939,348.853C87.831,348.941 87.704,349.051 87.557,349.183C87.41,349.316 87.256,349.443 87.094,349.566C86.932,349.688 86.768,349.793 86.602,349.882C86.435,349.97 86.273,350.014 86.117,350.014C85.979,350.014 85.857,349.982 85.749,349.918C85.641,349.855 85.541,349.786 85.448,349.712C85.355,349.639 85.264,349.57 85.176,349.507C85.088,349.443 84.995,349.411 84.897,349.411C84.632,349.411 84.409,349.519 84.228,349.735C84.047,349.95 83.9,350.224 83.787,350.558C83.674,350.891 83.591,351.253 83.537,351.645C83.483,352.037 83.456,352.414 83.456,352.777C83.456,353.081 83.469,353.328 83.493,353.519C83.518,353.71 83.554,353.862 83.603,353.975C83.652,354.087 83.718,354.163 83.802,354.203C83.885,354.242 83.985,354.261 84.103,354.261C84.23,354.261 84.368,354.242 84.515,354.203C84.544,354.193 84.566,354.212 84.581,354.261C84.595,354.31 84.603,354.35 84.603,354.379C84.603,354.399 84.588,354.421 84.559,354.445C84.529,354.47 84.51,354.482 84.5,354.482C84.284,354.57 84.064,354.666 83.839,354.768C83.613,354.871 83.427,354.957 83.28,355.026C83.143,355.084 82.979,355.148 82.788,355.217C82.597,355.285 82.432,355.32 82.295,355.32C82.138,355.32 82.009,355.295 81.906,355.246C81.803,355.197 81.751,355.148 81.751,355.099C81.751,355.05 81.764,355.006 81.788,354.967C81.813,354.928 81.835,354.854 81.854,354.746C81.874,354.599 81.896,354.426 81.92,354.225C81.945,354.024 81.969,353.806 81.994,353.571C82.018,353.335 82.038,353.093 82.053,352.843C82.067,352.593 82.075,352.346 82.075,352.101C82.075,351.552 82.058,351.087 82.023,350.705C81.989,350.322 81.928,350.014 81.84,349.779C81.751,349.543 81.631,349.374 81.48,349.272C81.328,349.169 81.134,349.117 80.899,349.117L80.767,349.117C80.728,349.117 80.688,349.122 80.649,349.132C80.59,349.132 80.561,349.103 80.561,349.044C80.561,348.985 80.59,348.941 80.649,348.911C80.757,348.843 80.923,348.742 81.149,348.61C81.374,348.478 81.607,348.351 81.847,348.228C82.087,348.106 82.32,347.995 82.545,347.897C82.77,347.799 82.937,347.75 83.045,347.75C83.172,347.75 83.28,347.792 83.368,347.875C83.456,347.959 83.523,348.064 83.567,348.191C83.611,348.319 83.643,348.463 83.662,348.625C83.682,348.787 83.692,348.946 83.692,349.103C83.692,349.22 83.689,349.343 83.684,349.47C83.679,349.597 83.677,349.735 83.677,349.882C84.118,349.235 84.515,348.733 84.867,348.375C85.22,348.017 85.553,347.839 85.867,347.839C85.984,347.839 86.1,347.888 86.212,347.986C86.325,348.083 86.445,348.194 86.572,348.316C86.7,348.439 86.832,348.549 86.969,348.647C87.106,348.745 87.248,348.794 87.395,348.794C87.523,348.794 87.616,348.779 87.675,348.75C87.733,348.72 87.782,348.696 87.822,348.676C87.9,348.676 87.939,348.73 87.939,348.838L87.939,348.853Z" style="fill-rule:nonzero;"/>
            <path d="M92.04,352.806C92.01,352.64 91.981,352.459 91.952,352.263C91.922,352.067 91.893,351.88 91.863,351.704C91.834,351.528 91.807,351.376 91.783,351.248C91.758,351.121 91.741,351.038 91.731,350.999C91.574,351.057 91.398,351.126 91.202,351.204C91.006,351.283 90.81,351.368 90.614,351.462C90.418,351.555 90.232,351.648 90.056,351.741C89.879,351.834 89.732,351.92 89.615,351.998C89.389,352.145 89.218,352.292 89.1,352.439C88.983,352.586 88.924,352.762 88.924,352.968C88.924,353.252 89.007,353.502 89.174,353.718C89.34,353.933 89.6,354.041 89.953,354.041C90.139,354.041 90.332,354.007 90.533,353.938C90.734,353.869 90.92,353.791 91.092,353.703C91.263,353.615 91.413,353.527 91.54,353.438C91.667,353.35 91.756,353.282 91.805,353.233C91.883,353.154 91.944,353.088 91.988,353.034C92.032,352.98 92.05,352.904 92.04,352.806ZM91.614,350.528C91.555,350.224 91.486,349.953 91.408,349.712C91.329,349.472 91.231,349.272 91.114,349.11C90.996,348.948 90.854,348.826 90.688,348.742C90.521,348.659 90.315,348.618 90.07,348.618C89.855,348.618 89.656,348.657 89.475,348.735C89.294,348.813 89.137,348.907 89.005,349.014C88.872,349.122 88.77,349.23 88.696,349.338C88.623,349.445 88.581,349.529 88.571,349.588C88.561,349.666 88.517,349.705 88.439,349.705C88.302,349.705 88.174,349.656 88.057,349.558C87.939,349.46 87.88,349.343 87.88,349.205C87.88,349.127 87.89,349.068 87.91,349.029C88.135,348.902 88.409,348.764 88.733,348.618C89.056,348.471 89.392,348.333 89.74,348.206C90.087,348.079 90.433,347.973 90.776,347.89C91.119,347.807 91.427,347.765 91.702,347.765C92.113,347.765 92.429,347.824 92.65,347.941C92.87,348.059 93.034,348.226 93.142,348.441C93.25,348.657 93.316,348.909 93.341,349.198C93.365,349.487 93.387,349.798 93.407,350.131C93.436,350.631 93.475,351.114 93.524,351.579C93.573,352.045 93.647,352.456 93.745,352.814C93.843,353.171 93.968,353.46 94.12,353.681C94.271,353.901 94.46,354.012 94.685,354.012C94.793,354.012 94.911,353.992 95.038,353.953C95.166,353.914 95.288,353.867 95.406,353.813C95.523,353.759 95.628,353.705 95.722,353.651C95.815,353.598 95.876,353.561 95.905,353.541C95.993,353.541 96.047,353.585 96.067,353.674C96.067,353.723 96.057,353.767 96.038,353.806C96.018,353.825 95.944,353.874 95.817,353.953C95.69,354.031 95.533,354.124 95.347,354.232C95.161,354.34 94.955,354.455 94.729,354.577C94.504,354.7 94.281,354.815 94.061,354.923C93.84,355.031 93.637,355.119 93.451,355.187C93.265,355.256 93.118,355.29 93.01,355.29C92.882,355.29 92.772,355.239 92.679,355.136C92.586,355.033 92.505,354.896 92.437,354.724C92.368,354.553 92.309,354.355 92.26,354.129C92.211,353.904 92.167,353.669 92.128,353.424C91.952,353.571 91.726,353.745 91.452,353.945C91.178,354.146 90.879,354.335 90.555,354.511C90.232,354.688 89.901,354.837 89.563,354.96C89.225,355.082 88.899,355.143 88.586,355.143C88.321,355.143 88.091,355.102 87.895,355.018C87.699,354.935 87.535,354.825 87.403,354.688C87.27,354.55 87.172,354.391 87.109,354.21C87.045,354.029 87.013,353.84 87.013,353.644C87.013,353.331 87.109,353.073 87.3,352.872C87.491,352.672 87.787,352.463 88.189,352.248C88.375,352.15 88.635,352.02 88.968,351.858C89.301,351.697 89.642,351.533 89.989,351.366C90.337,351.199 90.661,351.04 90.96,350.888C91.258,350.736 91.476,350.616 91.614,350.528Z" style="fill-rule:nonzero;"/>
            <path d="M101.476,348.426C101.456,348.485 101.4,348.576 101.307,348.698C101.214,348.821 101.103,348.948 100.976,349.08C100.849,349.213 100.714,349.34 100.572,349.463C100.43,349.585 100.305,349.676 100.197,349.735C100.128,349.764 100.087,349.754 100.072,349.705C100.057,349.656 100.05,349.607 100.05,349.558C100.05,349.48 100.008,349.382 99.925,349.264C99.842,349.147 99.724,349.031 99.572,348.919C99.42,348.806 99.242,348.711 99.036,348.632C98.83,348.554 98.605,348.515 98.36,348.515C97.938,348.515 97.596,348.742 97.331,349.198C97.066,349.654 96.934,350.259 96.934,351.013C96.934,351.474 97.005,351.888 97.147,352.255C97.289,352.623 97.485,352.931 97.735,353.181C97.985,353.431 98.286,353.622 98.639,353.754C98.992,353.887 99.374,353.953 99.785,353.953C100.344,353.953 100.79,353.882 101.123,353.74C101.456,353.598 101.73,353.433 101.946,353.247C101.956,353.247 101.963,353.242 101.968,353.233C101.973,353.223 101.98,353.218 101.99,353.218C102.039,353.218 102.073,353.235 102.093,353.269C102.113,353.304 102.122,353.345 102.122,353.394C102.122,353.433 102.113,353.463 102.093,353.482C101.946,353.6 101.743,353.757 101.483,353.953C101.223,354.149 100.927,354.342 100.594,354.533C100.261,354.724 99.913,354.889 99.55,355.026C99.188,355.163 98.83,355.231 98.477,355.231C97.468,355.231 96.682,354.938 96.118,354.35C95.555,353.762 95.273,352.958 95.273,351.939C95.273,351.165 95.423,350.514 95.722,349.984C96.02,349.455 96.388,349.031 96.824,348.713C97.26,348.395 97.723,348.167 98.213,348.03C98.703,347.892 99.134,347.824 99.506,347.824C99.81,347.824 100.082,347.846 100.322,347.89C100.562,347.934 100.768,347.988 100.939,348.052C101.111,348.115 101.243,348.181 101.336,348.25C101.429,348.319 101.476,348.377 101.476,348.426Z" style="fill-rule:nonzero;"/>
            <path d="M103.871,351.704C103.871,351.9 103.867,352.145 103.857,352.439C103.847,352.733 103.842,353.037 103.842,353.35C103.842,353.703 103.896,353.955 104.004,354.107C104.111,354.259 104.254,354.335 104.43,354.335C104.44,354.335 104.464,354.33 104.503,354.32C104.543,354.31 104.584,354.303 104.628,354.298C104.672,354.293 104.714,354.286 104.753,354.276C104.792,354.266 104.817,354.261 104.827,354.261C104.846,354.261 104.868,354.279 104.893,354.313C104.917,354.347 104.925,354.374 104.915,354.394C104.856,354.462 104.721,354.546 104.511,354.644C104.3,354.742 104.065,354.837 103.805,354.93C103.546,355.023 103.296,355.104 103.056,355.173C102.816,355.241 102.637,355.276 102.519,355.276C102.382,355.276 102.274,355.236 102.196,355.158C102.118,355.08 102.078,355.021 102.078,354.982C102.078,354.952 102.081,354.933 102.086,354.923C102.091,354.913 102.095,354.903 102.1,354.893C102.105,354.884 102.113,354.866 102.122,354.842C102.132,354.817 102.142,354.776 102.152,354.717C102.181,354.59 102.211,354.426 102.24,354.225C102.269,354.024 102.296,353.774 102.321,353.475C102.345,353.176 102.367,352.814 102.387,352.387C102.407,351.961 102.426,351.454 102.446,350.866C102.456,350.406 102.463,349.953 102.468,349.507C102.473,349.061 102.478,348.642 102.483,348.25C102.487,347.858 102.49,347.498 102.49,347.17L102.49,346.339C102.49,345.869 102.465,345.502 102.416,345.237C102.367,344.972 102.313,344.801 102.255,344.723C102.186,344.625 102.091,344.573 101.968,344.568C101.846,344.563 101.76,344.556 101.711,344.546C101.701,344.458 101.706,344.38 101.726,344.311C101.745,344.252 101.775,344.198 101.814,344.149C101.853,344.1 101.926,344.076 102.034,344.076C102.211,344.076 102.416,344.073 102.652,344.069C102.887,344.064 103.132,344.054 103.386,344.039C103.641,344.024 103.891,344.005 104.136,343.98C104.381,343.956 104.597,343.924 104.783,343.885C104.841,343.875 104.873,343.892 104.878,343.936C104.883,343.98 104.876,344.056 104.856,344.164C104.846,344.223 104.819,344.26 104.775,344.274C104.731,344.289 104.682,344.296 104.628,344.296C104.574,344.296 104.525,344.299 104.481,344.304C104.437,344.309 104.405,344.331 104.386,344.37C104.366,344.419 104.342,344.483 104.312,344.561C104.283,344.639 104.258,344.752 104.239,344.899C104.209,345.095 104.18,345.357 104.151,345.685C104.121,346.014 104.094,346.379 104.07,346.78C104.045,347.182 104.021,347.603 103.996,348.044C103.972,348.485 103.95,348.911 103.93,349.323C103.911,349.735 103.896,350.117 103.886,350.469C103.876,350.822 103.871,351.111 103.871,351.337C104.156,351.337 104.462,351.268 104.79,351.131C105.118,350.994 105.422,350.807 105.701,350.572C105.981,350.337 106.213,350.06 106.399,349.742C106.586,349.423 106.679,349.083 106.679,348.72C106.679,348.436 106.586,348.294 106.399,348.294C106.243,348.294 106.101,348.316 105.973,348.36C105.846,348.404 105.758,348.426 105.709,348.426C105.562,348.426 105.478,348.387 105.459,348.309C105.459,348.25 105.483,348.184 105.532,348.11C105.581,348.037 105.63,347.99 105.679,347.971C105.885,347.971 106.118,347.961 106.377,347.941C106.637,347.922 106.899,347.895 107.164,347.861C107.428,347.826 107.683,347.79 107.928,347.75C108.173,347.711 108.379,347.677 108.545,347.647C108.594,347.667 108.619,347.696 108.619,347.736C108.619,347.824 108.538,348.015 108.376,348.309C108.215,348.603 107.999,348.926 107.73,349.279C107.46,349.632 107.154,349.975 106.811,350.308C106.468,350.641 106.115,350.891 105.753,351.057C105.861,351.126 106.003,351.253 106.179,351.439C106.355,351.626 106.549,351.841 106.76,352.086C106.97,352.331 107.193,352.586 107.428,352.85C107.663,353.115 107.903,353.358 108.148,353.578C108.393,353.798 108.631,353.98 108.861,354.122C109.092,354.264 109.31,354.335 109.515,354.335C109.662,354.335 109.777,354.32 109.861,354.291C109.944,354.261 110.03,354.222 110.118,354.173C110.167,354.203 110.191,354.237 110.191,354.276C110.191,354.355 110.155,354.43 110.081,354.504C110.008,354.577 109.844,354.653 109.589,354.732C109.422,354.781 109.231,354.847 109.016,354.93C108.8,355.013 108.592,355.092 108.391,355.165C108.19,355.239 108.014,355.3 107.862,355.349C107.71,355.398 107.614,355.418 107.575,355.408C107.497,355.388 107.372,355.293 107.2,355.121C107.029,354.95 106.833,354.739 106.613,354.489C106.392,354.239 106.157,353.965 105.907,353.666C105.657,353.367 105.412,353.086 105.172,352.821C104.932,352.556 104.709,352.321 104.503,352.116C104.298,351.91 104.126,351.773 103.989,351.704L103.871,351.704Z" style="fill-rule:nonzero;"/>
            <path d="M116.247,353.38C116.139,353.497 115.973,353.659 115.747,353.865C115.522,354.07 115.25,354.276 114.931,354.482C114.613,354.688 114.258,354.864 113.866,355.011C113.474,355.158 113.057,355.231 112.617,355.231C112.215,355.231 111.823,355.17 111.441,355.048C111.059,354.925 110.716,354.739 110.412,354.489C110.108,354.239 109.866,353.921 109.684,353.534C109.503,353.147 109.412,352.684 109.412,352.145C109.412,351.704 109.442,351.324 109.501,351.006C109.559,350.687 109.638,350.408 109.736,350.168C109.834,349.928 109.944,349.722 110.066,349.551C110.189,349.379 110.314,349.225 110.441,349.088C110.598,348.911 110.789,348.745 111.014,348.588C111.24,348.431 111.482,348.289 111.742,348.162C112.002,348.035 112.276,347.934 112.565,347.861C112.854,347.787 113.146,347.75 113.44,347.75C113.969,347.75 114.383,347.839 114.682,348.015C114.98,348.191 115.13,348.436 115.13,348.75C115.13,348.946 115.071,349.127 114.953,349.294C115.051,349.264 115.176,349.215 115.328,349.147C115.48,349.078 115.634,349.007 115.791,348.934C115.948,348.86 116.088,348.794 116.21,348.735C116.333,348.676 116.413,348.632 116.453,348.603C116.472,348.583 116.494,348.576 116.519,348.581C116.543,348.586 116.556,348.603 116.556,348.632C116.556,348.76 116.531,348.865 116.482,348.948C116.433,349.031 116.374,349.098 116.306,349.147C116.149,349.245 115.924,349.367 115.63,349.514C115.336,349.661 115.01,349.815 114.652,349.977C114.295,350.139 113.925,350.3 113.542,350.462C113.16,350.624 112.8,350.778 112.462,350.925C112.124,351.072 111.83,351.202 111.58,351.315C111.33,351.427 111.161,351.508 111.073,351.557C111.073,351.89 111.139,352.201 111.272,352.49C111.404,352.779 111.588,353.032 111.823,353.247C112.058,353.463 112.34,353.632 112.668,353.754C112.996,353.877 113.356,353.938 113.748,353.938C114.101,353.938 114.419,353.901 114.704,353.828C114.988,353.754 115.228,353.671 115.424,353.578C115.62,353.485 115.774,353.402 115.887,353.328C115.999,353.255 116.061,353.218 116.07,353.218C116.11,353.218 116.149,353.235 116.188,353.269C116.227,353.304 116.247,353.34 116.247,353.38ZM111.073,351.131C111.24,351.072 111.428,351.001 111.639,350.918C111.85,350.834 112.056,350.744 112.256,350.646C112.457,350.548 112.641,350.455 112.808,350.367C112.974,350.278 113.102,350.2 113.19,350.131C113.366,350.004 113.454,349.788 113.454,349.485C113.454,349.367 113.432,349.245 113.388,349.117C113.344,348.99 113.278,348.875 113.19,348.772C113.102,348.669 112.994,348.586 112.866,348.522C112.739,348.458 112.597,348.426 112.44,348.426C112.303,348.426 112.156,348.473 111.999,348.566C111.842,348.659 111.695,348.811 111.558,349.022C111.421,349.232 111.306,349.512 111.213,349.859C111.12,350.207 111.073,350.631 111.073,351.131Z" style="fill-rule:nonzero;"/>
            <path d="M123.067,348.853C122.959,348.941 122.831,349.051 122.684,349.183C122.537,349.316 122.383,349.443 122.221,349.566C122.06,349.688 121.896,349.793 121.729,349.882C121.563,349.97 121.401,350.014 121.244,350.014C121.107,350.014 120.984,349.982 120.877,349.918C120.769,349.855 120.668,349.786 120.575,349.712C120.482,349.639 120.392,349.57 120.303,349.507C120.215,349.443 120.122,349.411 120.024,349.411C119.76,349.411 119.537,349.519 119.355,349.735C119.174,349.95 119.027,350.224 118.914,350.558C118.802,350.891 118.719,351.253 118.665,351.645C118.611,352.037 118.584,352.414 118.584,352.777C118.584,353.081 118.596,353.328 118.621,353.519C118.645,353.71 118.682,353.862 118.731,353.975C118.78,354.087 118.846,354.163 118.929,354.203C119.012,354.242 119.113,354.261 119.23,354.261C119.358,354.261 119.495,354.242 119.642,354.203C119.671,354.193 119.693,354.212 119.708,354.261C119.723,354.31 119.73,354.35 119.73,354.379C119.73,354.399 119.716,354.421 119.686,354.445C119.657,354.47 119.637,354.482 119.627,354.482C119.412,354.57 119.191,354.666 118.966,354.768C118.741,354.871 118.554,354.957 118.407,355.026C118.27,355.084 118.106,355.148 117.915,355.217C117.724,355.285 117.56,355.32 117.423,355.32C117.266,355.32 117.136,355.295 117.033,355.246C116.93,355.197 116.879,355.148 116.879,355.099C116.879,355.05 116.891,355.006 116.916,354.967C116.94,354.928 116.962,354.854 116.982,354.746C117.001,354.599 117.023,354.426 117.048,354.225C117.072,354.024 117.097,353.806 117.121,353.571C117.146,353.335 117.165,353.093 117.18,352.843C117.195,352.593 117.202,352.346 117.202,352.101C117.202,351.552 117.185,351.087 117.151,350.705C117.116,350.322 117.055,350.014 116.967,349.779C116.879,349.543 116.759,349.374 116.607,349.272C116.455,349.169 116.262,349.117 116.026,349.117L115.894,349.117C115.855,349.117 115.816,349.122 115.777,349.132C115.718,349.132 115.688,349.103 115.688,349.044C115.688,348.985 115.718,348.941 115.777,348.911C115.884,348.843 116.051,348.742 116.276,348.61C116.502,348.478 116.734,348.351 116.974,348.228C117.214,348.106 117.447,347.995 117.673,347.897C117.898,347.799 118.064,347.75 118.172,347.75C118.3,347.75 118.407,347.792 118.496,347.875C118.584,347.959 118.65,348.064 118.694,348.191C118.738,348.319 118.77,348.463 118.79,348.625C118.809,348.787 118.819,348.946 118.819,349.103C118.819,349.22 118.817,349.343 118.812,349.47C118.807,349.597 118.804,349.735 118.804,349.882C119.245,349.235 119.642,348.733 119.995,348.375C120.348,348.017 120.681,347.839 120.994,347.839C121.112,347.839 121.227,347.888 121.34,347.986C121.452,348.083 121.572,348.194 121.7,348.316C121.827,348.439 121.959,348.549 122.097,348.647C122.234,348.745 122.376,348.794 122.523,348.794C122.65,348.794 122.743,348.779 122.802,348.75C122.861,348.72 122.91,348.696 122.949,348.676C123.027,348.676 123.067,348.73 123.067,348.838L123.067,348.853Z" style="fill-rule:nonzero;"/>
        </g>
        <g transform="matrix(1,0,0,1,-47.1855,-49.5662)">
            <text x="69.435px" y="355.099px" style="font-family:'Luminari-Regular', 'Luminari';font-size:14.698px;">Tr<tspan x="86.763px 94.847px " y="355.099px 355.099px ">ac</tspan>ker</text>
        </g>
        <g transform="matrix(0.0219124,0,0,0.0248558,-4.90147,285.934)">
            <g transform="matrix(55.8954,0,0,49.2765,-878.032,-330.791)">
                <path d="M27.733,13.757C27.957,11.616 28.949,10 30.136,10C31.489,10 32.587,12.095 32.587,14.677C32.587,15.669 32.424,16.59 32.148,17.347C32.432,17.974 32.587,18.65 32.587,19.353C32.587,22.678 29.128,25.378 24.868,25.378C20.609,25.378 17.15,22.678 17.15,19.353C17.15,18.65 17.305,17.974 17.589,17.347C17.313,16.59 17.15,15.669 17.15,14.677C17.15,12.095 18.248,10 19.601,10C20.788,10 21.779,11.616 22.003,13.757L22.04,13.746C22.915,13.476 23.87,13.328 24.868,13.328C25.881,13.328 26.847,13.48 27.733,13.757ZM17.609,17.304L17.606,17.31L17.609,17.304ZM32.128,17.305L32.131,17.31L32.128,17.305ZM17.627,17.265L17.623,17.273L17.627,17.265ZM32.11,17.266L32.113,17.273L32.11,17.266ZM17.645,17.227L17.641,17.236L17.645,17.227ZM32.092,17.228L32.096,17.236L32.092,17.228ZM17.663,17.19L17.659,17.2L17.663,17.19ZM32.074,17.191L32.078,17.199L32.074,17.191ZM17.682,17.153L17.677,17.162L17.682,17.153ZM32.055,17.154L32.059,17.161L32.055,17.154ZM17.7,17.117L17.696,17.125L17.7,17.117ZM32.037,17.117L32.04,17.123L32.037,17.117ZM17.719,17.081L17.717,17.085L17.719,17.081ZM32.018,17.081L32.019,17.082L32.018,17.081ZM17.782,16.964L17.778,16.971L17.782,16.964ZM31.957,16.968L31.958,16.97L31.957,16.968ZM17.804,16.925L17.798,16.935L17.804,16.925ZM31.935,16.928L31.938,16.934L31.935,16.928ZM17.825,16.888L17.818,16.9L17.825,16.888ZM31.914,16.891L31.918,16.899L31.914,16.891ZM17.845,16.852L17.838,16.865L17.845,16.852ZM31.893,16.854L31.898,16.863L31.893,16.854ZM17.866,16.817L17.859,16.829L17.866,16.817ZM31.871,16.819L31.876,16.827L31.871,16.819ZM17.888,16.782L17.88,16.794L17.888,16.782ZM31.85,16.783L31.855,16.791L31.85,16.783ZM17.909,16.747L17.902,16.758L17.909,16.747ZM31.829,16.748L31.832,16.754L31.829,16.748ZM17.931,16.712L17.925,16.72L17.931,16.712ZM31.807,16.713L31.808,16.714L31.807,16.713ZM17.979,16.635L17.975,16.642L17.979,16.635ZM18.005,16.596L17.998,16.608L18.005,16.596ZM31.735,16.602L31.738,16.606L31.735,16.602ZM18.029,16.561L18.02,16.573L18.029,16.561ZM31.711,16.564L31.716,16.572L31.711,16.564ZM18.052,16.526L18.043,16.539L18.052,16.526ZM31.686,16.529L31.692,16.537L31.686,16.529ZM18.076,16.492L18.066,16.505L18.076,16.492ZM31.663,16.494L31.669,16.503L31.663,16.494ZM18.1,16.458L18.09,16.471L18.1,16.458ZM31.639,16.459L31.645,16.469L31.639,16.459ZM18.124,16.424L18.114,16.437L18.124,16.424ZM31.614,16.425L31.62,16.434L31.614,16.425ZM18.148,16.39L18.139,16.403L18.148,16.39ZM31.59,16.392L31.595,16.398L31.59,16.392ZM18.172,16.357L18.164,16.367L18.172,16.357ZM31.566,16.358L31.567,16.36L31.566,16.358ZM18.197,16.324L18.196,16.324L18.197,16.324ZM18.23,16.28L18.222,16.291L18.23,16.28ZM31.513,16.288L31.514,16.289L31.513,16.288ZM18.257,16.245L18.247,16.258L18.257,16.245ZM31.484,16.249L31.489,16.256L31.484,16.249ZM18.283,16.211L18.272,16.225L18.283,16.211ZM31.456,16.214L31.463,16.223L31.456,16.214ZM18.309,16.178L18.298,16.192L18.309,16.178ZM31.43,16.18L31.438,16.19L31.43,16.18ZM18.335,16.145L18.324,16.16L18.335,16.145ZM31.403,16.147L31.411,16.158L31.403,16.147ZM18.362,16.113L18.35,16.127L18.362,16.113ZM31.376,16.114L31.385,16.125L31.376,16.114ZM18.388,16.081L18.377,16.094L18.388,16.081ZM31.35,16.082L31.357,16.091L31.35,16.082ZM18.415,16.049L18.404,16.061L18.415,16.049ZM31.323,16.05L31.329,16.057L31.323,16.05ZM18.442,16.017L18.433,16.027L18.442,16.017ZM31.295,16.018L31.298,16.021L31.295,16.018ZM18.473,15.981L18.469,15.985L18.473,15.981ZM18.507,15.942L18.497,15.954L18.507,15.942ZM31.234,15.947L31.239,15.953L31.234,15.947ZM18.536,15.909L18.525,15.922L18.536,15.909ZM31.203,15.912L31.211,15.921L31.203,15.912ZM18.565,15.877L18.553,15.891L18.565,15.877ZM31.174,15.879L31.183,15.89L31.174,15.879ZM18.594,15.846L18.581,15.86L18.594,15.846ZM31.145,15.847L31.155,15.859L31.145,15.847ZM18.622,15.815L18.61,15.828L18.622,15.815ZM31.115,15.816L31.126,15.827L31.115,15.816ZM18.651,15.784L18.639,15.797L18.651,15.784ZM31.086,15.785L31.097,15.796L31.086,15.785ZM18.68,15.753L18.668,15.766L18.68,15.753ZM31.057,15.754L31.067,15.765L31.057,15.754ZM18.71,15.723L18.698,15.735L18.71,15.723ZM31.027,15.723L31.037,15.733L31.027,15.723ZM18.739,15.692L18.73,15.702L18.739,15.692ZM30.998,15.693L31.003,15.698L30.998,15.693ZM18.775,15.656L18.769,15.662L18.775,15.656ZM30.965,15.659L30.967,15.662L30.965,15.659ZM18.81,15.621L18.799,15.632L18.81,15.621ZM30.928,15.622L30.937,15.632L30.928,15.622ZM18.842,15.59L18.83,15.602L18.842,15.59ZM30.895,15.591L30.907,15.602L30.895,15.591ZM18.873,15.56L18.86,15.572L18.873,15.56ZM30.864,15.56L30.876,15.572L30.864,15.56ZM18.904,15.53L18.891,15.543L18.904,15.53ZM30.832,15.53L30.846,15.543L30.832,15.53ZM30.801,15.5L30.814,15.513L30.801,15.5ZM18.936,15.501L18.923,15.513L18.936,15.501ZM30.769,15.471L30.783,15.484L30.769,15.471ZM18.967,15.471L18.954,15.483L18.967,15.471ZM30.738,15.442L30.751,15.454L30.738,15.442ZM18.999,15.442L18.986,15.454L18.999,15.442ZM30.706,15.413L30.719,15.425L30.706,15.413ZM19.031,15.413L19.019,15.424L19.031,15.413ZM30.674,15.384L30.684,15.394L30.674,15.384ZM19.063,15.385L19.056,15.391L19.063,15.385ZM30.63,15.346L30.642,15.356L30.63,15.346ZM19.101,15.35L19.095,15.356L19.101,15.35ZM30.595,15.315L30.61,15.328L30.595,15.315ZM19.139,15.318L19.128,15.327L19.139,15.318ZM30.561,15.286L30.577,15.3L30.561,15.286ZM19.173,15.288L19.161,15.299L19.173,15.288ZM30.528,15.258L30.544,15.272L30.528,15.258ZM19.207,15.26L19.194,15.271L19.207,15.26ZM30.494,15.23L30.511,15.244L30.494,15.23ZM19.241,15.231L19.227,15.243L19.241,15.231ZM30.461,15.202L30.478,15.216L30.461,15.202ZM19.274,15.204L19.261,15.215L19.274,15.204ZM30.427,15.175L30.444,15.189L30.427,15.175ZM19.308,15.176L19.295,15.187L19.308,15.176ZM30.393,15.147L30.41,15.161L30.393,15.147ZM19.342,15.149L19.33,15.158L19.342,15.149ZM30.359,15.12L30.376,15.134L30.359,15.12ZM19.377,15.121L19.366,15.129L19.377,15.121ZM30.325,15.093L30.343,15.107L30.326,15.094L30.305,15.078L30.325,15.093ZM19.411,15.094L19.409,15.096L19.411,15.094ZM30.273,15.053L30.292,15.068L30.273,15.053ZM19.452,15.062L19.446,15.067L19.452,15.062ZM30.238,15.027L30.257,15.041L30.238,15.027ZM19.492,15.032L19.481,15.04L19.492,15.032ZM30.203,15L30.222,15.015L30.203,15ZM19.529,15.004L19.516,15.013L19.529,15.004ZM30.168,14.974L30.187,14.989L30.168,14.974ZM19.565,14.977L19.552,14.987L19.565,14.977ZM30.132,14.948L30.152,14.963L30.132,14.948ZM19.601,14.951L19.588,14.961L19.601,14.951ZM30.097,14.922L30.117,14.937L30.097,14.922ZM19.637,14.925L19.624,14.934L19.637,14.925ZM30.061,14.897L30.081,14.911L30.061,14.897ZM19.673,14.899L19.661,14.908L19.673,14.899ZM30.025,14.871L30.046,14.886L30.025,14.871ZM19.71,14.873L19.698,14.881L19.71,14.873ZM29.988,14.846L30.011,14.862L29.988,14.846ZM19.746,14.848L19.738,14.853L19.746,14.848ZM29.954,14.822L29.915,14.796C29.928,14.805 29.941,14.813 29.954,14.822ZM19.826,14.793L19.821,14.796L19.826,14.793ZM29.858,14.758L29.881,14.773L29.858,14.758ZM19.868,14.765L19.858,14.771L19.868,14.765ZM29.822,14.734L29.845,14.749L29.822,14.734ZM19.907,14.739L19.896,14.747L19.907,14.739ZM29.785,14.71L29.807,14.724L29.785,14.71ZM19.946,14.714L19.933,14.722L19.946,14.714ZM29.747,14.686L29.77,14.7L29.747,14.686ZM19.984,14.689L19.971,14.697L19.984,14.689ZM29.71,14.662L29.733,14.676L29.71,14.662ZM20.023,14.665L20.01,14.673L20.023,14.665ZM29.672,14.638L29.696,14.653L29.672,14.638ZM20.061,14.641L20.049,14.648L20.061,14.641ZM29.634,14.615L29.659,14.63L29.634,14.615ZM20.099,14.617L20.09,14.623L20.099,14.617ZM29.494,14.531C29.537,14.556 29.58,14.582 29.623,14.608C29.581,14.582 29.538,14.556 29.494,14.531ZM20.138,14.593L20.134,14.596L20.138,14.593ZM20.221,14.543L20.218,14.545L20.221,14.543ZM29.458,14.51L29.483,14.525L29.458,14.51ZM20.266,14.517L20.257,14.522L20.266,14.517ZM29.42,14.488L29.444,14.502L29.42,14.488ZM20.308,14.493L20.297,14.499L20.308,14.493ZM29.381,14.466L29.405,14.48L29.381,14.466ZM20.349,14.47L20.337,14.477L20.349,14.47ZM29.341,14.444L29.366,14.457L29.341,14.444ZM20.389,14.447L20.377,14.454L20.389,14.447ZM29.302,14.422L29.327,14.436L29.302,14.422ZM20.43,14.425L20.418,14.431L20.43,14.425ZM29.262,14.4L29.288,14.414L29.262,14.4ZM20.47,14.403L20.46,14.408L20.47,14.403ZM29.222,14.379L29.249,14.393L29.222,14.379ZM20.51,14.381L20.503,14.385L20.51,14.381ZM29.186,14.359L29.143,14.337C29.157,14.344 29.171,14.352 29.186,14.359ZM29.077,14.303L29.105,14.317L29.077,14.303ZM20.638,14.314L20.636,14.315L20.638,14.314ZM29.038,14.283L29.064,14.296L29.038,14.283ZM20.685,14.29L20.677,14.294L20.685,14.29ZM28.998,14.263L29.023,14.276L28.998,14.263ZM20.729,14.268L20.719,14.273L20.729,14.268ZM28.957,14.243L28.982,14.255L28.957,14.243ZM20.772,14.247L20.761,14.252L20.772,14.247ZM28.916,14.223L28.941,14.235L28.916,14.223ZM20.814,14.226L20.803,14.232L20.814,14.226ZM28.875,14.203L28.899,14.215L28.875,14.203ZM20.857,14.206L20.846,14.211L20.857,14.206ZM28.833,14.184L28.858,14.195L28.833,14.184ZM20.899,14.186L20.891,14.19L20.899,14.186ZM28.791,14.164L28.817,14.176L28.791,14.164ZM20.942,14.166L20.937,14.168L20.942,14.166ZM28.752,14.146L28.707,14.126C28.722,14.133 28.737,14.139 28.752,14.146ZM28.643,14.097L28.667,14.108L28.643,14.097ZM21.075,14.106L21.074,14.106L21.075,14.106ZM28.601,14.079L28.624,14.089L28.601,14.079ZM21.124,14.084L21.117,14.087L21.124,14.084ZM28.558,14.061L28.581,14.071L28.558,14.061ZM21.17,14.065L21.161,14.068L21.17,14.065ZM28.516,14.043L28.538,14.052L28.516,14.043ZM21.215,14.046L21.204,14.05L21.215,14.046ZM28.473,14.025L28.494,14.034L28.473,14.025ZM21.259,14.027L21.249,14.031L21.259,14.027ZM28.429,14.007L28.451,14.016L28.429,14.007ZM21.303,14.009L21.294,14.013L21.303,14.009ZM28.386,13.989L28.406,13.998L28.386,13.989ZM21.347,13.991L21.341,13.994L21.347,13.991ZM28.342,13.972L28.361,13.979L28.342,13.972ZM21.392,13.973L21.391,13.974L21.392,13.973ZM28.298,13.955L28.311,13.96L28.298,13.955ZM28.243,13.934L28.254,13.938L28.243,13.934ZM28.195,13.915L28.21,13.921L28.195,13.915ZM21.531,13.92L21.53,13.92L21.531,13.92ZM28.149,13.898L28.165,13.904L28.149,13.898ZM21.581,13.901L21.575,13.903L21.581,13.901ZM28.103,13.882L28.119,13.888L28.103,13.882ZM21.629,13.884L21.62,13.887L21.629,13.884ZM28.058,13.866L28.074,13.871L28.058,13.866ZM21.675,13.867L21.666,13.87L21.675,13.867ZM28.013,13.85L28.028,13.855L28.013,13.85ZM21.721,13.851L21.713,13.854L21.721,13.851ZM27.968,13.834L27.981,13.839L27.968,13.834ZM21.767,13.835L21.76,13.837L21.767,13.835ZM27.922,13.819L27.932,13.822L27.922,13.819ZM21.813,13.819L21.809,13.821L21.813,13.819ZM27.877,13.803L27.879,13.804L27.877,13.803Z" style="fill:none;stroke:black;stroke-width:1.22px;"/>
            </g>
            <g transform="matrix(55.8954,0,0,49.2765,-878.032,-330.791)">
                <path d="M25.128,19.358C24.963,19.04 24.868,18.67 24.868,18.275C24.868,17.096 25.713,16.138 26.753,16.138C27.793,16.138 28.637,17.096 28.637,18.275C28.637,19.031 28.291,19.696 27.768,20.076C27.128,19.668 26.188,19.396 25.128,19.358ZM21.969,20.076C21.446,19.696 21.099,19.031 21.099,18.275C21.099,17.096 21.944,16.138 22.984,16.138C24.024,16.138 24.868,17.096 24.868,18.275C24.868,18.67 24.774,19.04 24.609,19.358C23.549,19.396 22.609,19.668 21.969,20.076Z" style="fill:none;stroke:black;stroke-width:1.22px;"/>
            </g>
            <g transform="matrix(1,0,0,1,-53.1856,50.0357)">
                <ellipse cx="565.186" cy="671.455" rx="210.672" ry="98.631" style="fill:none;stroke:black;stroke-width:63.81px;"/>
            </g>
            <g transform="matrix(51.2,0,0,45.1371,0.670978,88.9676)">
                <path d="M12.057,13.791C12.057,13.668 11.958,13.568 11.835,13.568L8.139,13.568C8.016,13.568 7.916,13.668 7.916,13.791L7.916,14.236C7.916,14.359 8.016,14.458 8.139,14.458L11.835,14.458C11.958,14.458 12.057,14.359 12.057,14.236L12.057,13.791Z"/>
            </g>
        </g>
    </g>
</svg>
