<?xml version="1.0" encoding="UTF-8" standalone="no"?>
<!DOCTYPE svg PUBLIC "-//W3C//DTD SVG 1.1//EN" "http://www.w3.org/Graphics/SVG/1.1/DTD/svg11.dtd">
<svg width="100%" height="100%" viewBox="0 0 105 380" version="1.1" xmlns="http://www.w3.org/2000/svg" xmlns:xlink="http://www.w3.org/1999/xlink" xml:space="preserve" xmlns:serif="http://www.serif.com/" style="fill-rule:evenodd;clip-rule:evenodd;stroke-linecap:round;stroke-linejoin:round;stroke-miterlimit:1.5;">
    <g transform="matrix(1.04123,0,0,1.75196,-20.0622,-76.6422)">
        <rect x="19.268" y="43.747" width="100.843" height="216.9" style="fill:rgb(102,126,153);"/>
    </g>
    <g transform="matrix(1,0,0,1,-25.3465,0)">
        <g id="Right-output" serif:id="Right#output" transform="matrix(0.175002,0,0,0.175002,57.2139,322.943)">
            <rect x="53.94" y="106.916" width="161.978" height="161.978" style="fill:rgb(77,77,77);"/>
        </g>
        <g transform="matrix(1,0,0,1,-45.3679,241.05)">
            <path d="M89.618,118.306L89.618,113.236L90.638,113.236L90.638,113.776C90.845,113.59 91.048,113.443 91.248,113.336C91.448,113.23 91.695,113.176 91.988,113.176L91.988,114.256C91.888,114.216 91.785,114.196 91.678,114.196C91.571,114.196 91.456,114.215 91.333,114.251C91.21,114.288 91.098,114.35 90.998,114.436C90.891,114.523 90.805,114.636 90.738,114.776C90.671,114.916 90.638,115.09 90.638,115.296L90.638,118.306L89.618,118.306Z" style="fill:rgb(5,5,5);fill-rule:nonzero;"/>
            <path d="M92.398,118.306L92.398,113.236L93.418,113.236L93.418,118.306L92.398,118.306ZM92.398,112.206L92.398,111.186L93.418,111.186L93.418,112.206L92.398,112.206Z" style="fill:rgb(5,5,5);fill-rule:nonzero;"/>
            <path d="M95.278,118.896C95.285,119.016 95.333,119.13 95.423,119.236C95.513,119.343 95.645,119.396 95.818,119.396C95.985,119.396 96.105,119.345 96.178,119.241C96.251,119.138 96.288,119.006 96.288,118.846L96.288,117.846L96.268,117.846C96.155,118.013 96.02,118.141 95.863,118.231C95.706,118.321 95.525,118.366 95.318,118.366C94.891,118.366 94.595,118.206 94.428,117.886C94.368,117.773 94.325,117.633 94.298,117.466C94.271,117.3 94.258,117.076 94.258,116.796L94.258,114.866C94.258,114.5 94.268,114.23 94.288,114.056C94.328,113.723 94.485,113.473 94.758,113.306C94.885,113.22 95.075,113.176 95.328,113.176C95.455,113.176 95.563,113.19 95.653,113.216C95.743,113.243 95.825,113.28 95.898,113.326C95.971,113.373 96.038,113.428 96.098,113.491C96.158,113.555 96.221,113.623 96.288,113.696L96.288,113.236L97.308,113.236L97.308,118.926C97.308,119.1 97.28,119.275 97.223,119.451C97.166,119.628 97.075,119.786 96.948,119.926C96.821,120.073 96.661,120.191 96.468,120.281C96.275,120.371 96.045,120.416 95.778,120.416C95.625,120.416 95.465,120.391 95.298,120.341C95.131,120.291 94.978,120.206 94.838,120.086C94.691,119.973 94.566,119.821 94.463,119.631C94.36,119.441 94.291,119.196 94.258,118.896L95.278,118.896ZM95.278,116.746C95.278,116.906 95.313,117.046 95.383,117.166C95.453,117.286 95.585,117.346 95.778,117.346C95.925,117.346 96.046,117.295 96.143,117.191C96.24,117.088 96.288,116.956 96.288,116.796L96.288,114.826C96.288,114.64 96.241,114.488 96.148,114.371C96.055,114.255 95.931,114.196 95.778,114.196C95.605,114.196 95.478,114.26 95.398,114.386C95.318,114.513 95.278,114.68 95.278,114.886L95.278,116.746Z" style="fill:rgb(5,5,5);fill-rule:nonzero;"/>
            <path d="M98.148,118.306L98.148,111.186L99.168,111.186L99.168,113.726L99.188,113.726C99.295,113.566 99.423,113.435 99.573,113.331C99.723,113.228 99.915,113.176 100.148,113.176C100.275,113.176 100.401,113.198 100.528,113.241C100.655,113.285 100.768,113.356 100.868,113.456C100.968,113.556 101.048,113.685 101.108,113.841C101.168,113.998 101.198,114.19 101.198,114.416L101.198,118.306L100.178,118.306L100.178,114.796C100.178,114.61 100.135,114.463 100.048,114.356C99.961,114.25 99.838,114.196 99.678,114.196C99.485,114.196 99.351,114.256 99.278,114.376C99.205,114.496 99.168,114.67 99.168,114.896L99.168,118.306L98.148,118.306Z" style="fill:rgb(5,5,5);fill-rule:nonzero;"/>
            <path d="M102.038,113.236L102.038,111.696L103.058,111.696L103.058,113.236L103.688,113.236L103.688,114.036L103.058,114.036L103.058,116.846C103.058,116.966 103.07,117.06 103.093,117.126C103.116,117.193 103.155,117.243 103.208,117.276C103.261,117.31 103.326,117.33 103.403,117.336C103.48,117.343 103.575,117.346 103.688,117.346L103.688,118.306L103.268,118.306C103.035,118.306 102.84,118.27 102.683,118.196C102.526,118.123 102.401,118.03 102.308,117.916C102.215,117.803 102.146,117.675 102.103,117.531C102.06,117.388 102.038,117.25 102.038,117.116L102.038,114.036L101.528,114.036L101.528,113.236L102.038,113.236Z" style="fill:rgb(5,5,5);fill-rule:nonzero;"/>
        </g>
        <g transform="matrix(1,0,0,1,-45.3679,241.05)">
            <text x="89.198px" y="118.306px" style="font-family:'DINCondensed-Bold', 'DIN Condensed';font-weight:700;font-stretch:condensed;font-size:10px;fill:rgb(5,5,5);">right</text>
        </g>
    </g>
    <g transform="matrix(1,0,0,1,-25.3465,-37.6729)">
        <g id="Left-output" serif:id="Left#output" transform="matrix(0.175002,0,0,0.175002,57.2139,322.943)">
            <rect x="53.94" y="106.916" width="161.978" height="161.978" style="fill:rgb(77,77,77);"/>
        </g>
        <g transform="matrix(1,0,0,1,-45.3679,241.05)">
            <path d="M89.558,111.186L90.578,111.186L90.578,116.876C90.578,117.07 90.613,117.201 90.683,117.271C90.753,117.341 90.885,117.386 91.078,117.406L91.078,118.366C90.845,118.366 90.635,118.348 90.448,118.311C90.261,118.275 90.101,118.203 89.968,118.096C89.835,117.996 89.733,117.855 89.663,117.671C89.593,117.488 89.558,117.246 89.558,116.946L89.558,111.186Z" style="fill:rgb(5,5,5);fill-rule:nonzero;"/>
            <path d="M94.428,116.156L92.408,116.156L92.408,116.846C92.408,117.006 92.453,117.13 92.543,117.216C92.633,117.303 92.755,117.346 92.908,117.346C93.101,117.346 93.23,117.29 93.293,117.176C93.356,117.063 93.395,116.95 93.408,116.836L94.428,116.836C94.428,117.283 94.291,117.643 94.018,117.916C93.885,118.056 93.725,118.166 93.538,118.246C93.351,118.326 93.141,118.366 92.908,118.366C92.588,118.366 92.316,118.3 92.093,118.166C91.87,118.033 91.698,117.856 91.578,117.636C91.505,117.503 91.455,117.35 91.428,117.176C91.401,117.003 91.388,116.813 91.388,116.606L91.388,114.936C91.388,114.73 91.401,114.54 91.428,114.366C91.455,114.193 91.505,114.04 91.578,113.906C91.698,113.686 91.87,113.51 92.093,113.376C92.316,113.243 92.588,113.176 92.908,113.176C93.141,113.176 93.353,113.216 93.543,113.296C93.733,113.376 93.895,113.486 94.028,113.626C94.295,113.926 94.428,114.303 94.428,114.756L94.428,116.156ZM92.408,115.356L93.408,115.356L93.408,114.776C93.408,114.583 93.363,114.438 93.273,114.341C93.183,114.245 93.061,114.196 92.908,114.196C92.755,114.196 92.633,114.245 92.543,114.341C92.453,114.438 92.408,114.583 92.408,114.776L92.408,115.356Z" style="fill:rgb(5,5,5);fill-rule:nonzero;"/>
            <path d="M95.308,118.306L95.308,114.036L94.808,114.036L94.808,113.236L95.308,113.236L95.308,112.546C95.308,112.3 95.345,112.091 95.418,111.921C95.491,111.751 95.591,111.61 95.718,111.496C95.838,111.383 95.976,111.303 96.133,111.256C96.29,111.21 96.451,111.186 96.618,111.186L97.088,111.186L97.088,112.146L96.628,112.146C96.428,112.146 96.328,112.263 96.328,112.496L96.328,113.236L97.088,113.236L97.088,114.036L96.328,114.036L96.328,118.306L95.308,118.306Z" style="fill:rgb(5,5,5);fill-rule:nonzero;"/>
            <path d="M97.398,113.236L97.398,111.696L98.418,111.696L98.418,113.236L99.048,113.236L99.048,114.036L98.418,114.036L98.418,116.846C98.418,116.966 98.43,117.06 98.453,117.126C98.476,117.193 98.515,117.243 98.568,117.276C98.621,117.31 98.686,117.33 98.763,117.336C98.84,117.343 98.935,117.346 99.048,117.346L99.048,118.306L98.628,118.306C98.395,118.306 98.2,118.27 98.043,118.196C97.886,118.123 97.761,118.03 97.668,117.916C97.575,117.803 97.506,117.675 97.463,117.531C97.42,117.388 97.398,117.25 97.398,117.116L97.398,114.036L96.888,114.036L96.888,113.236L97.398,113.236Z" style="fill:rgb(5,5,5);fill-rule:nonzero;"/>
        </g>
        <g transform="matrix(1,0,0,1,-45.3679,241.05)">
            <text x="89.198px" y="118.306px" style="font-family:'DINCondensed-Bold', 'DIN Condensed';font-weight:700;font-stretch:condensed;font-size:10px;fill:rgb(5,5,5);">left</text>
        </g>
    </g>
    <g transform="matrix(1,0,0,1,1.24345e-14,180.303)">
        <rect x="10" y="115.342" width="85" height="1.938" style="fill:rgb(102,102,102);"/>
    </g>
    <g transform="matrix(1,0,0,1,1.77636e-15,36.4634)">
        <g id="Pitch-input" serif:id="Pitch#input" transform="matrix(0.175002,0,0,0.175002,31.9275,205.701)">
            <rect x="53.94" y="106.916" width="161.978" height="161.978" style="fill:rgb(217,217,217);"/>
        </g>
        <g transform="matrix(1,0,0,1,-79.6179,123.809)">
            <path d="M89.618,120.356L89.618,113.236L90.638,113.236L90.638,113.696C90.765,113.55 90.895,113.426 91.028,113.326C91.161,113.226 91.355,113.176 91.608,113.176C92.028,113.176 92.325,113.336 92.498,113.656C92.558,113.77 92.601,113.91 92.628,114.076C92.655,114.243 92.668,114.466 92.668,114.746L92.668,116.676C92.668,117.05 92.658,117.32 92.638,117.486C92.598,117.82 92.445,118.07 92.178,118.236C92.045,118.323 91.851,118.366 91.598,118.366C91.398,118.366 91.22,118.321 91.063,118.231C90.906,118.141 90.771,118.013 90.658,117.846L90.638,117.846L90.638,120.356L89.618,120.356ZM91.648,114.886C91.648,114.68 91.608,114.513 91.528,114.386C91.448,114.26 91.321,114.196 91.148,114.196C90.995,114.196 90.871,114.255 90.778,114.371C90.685,114.488 90.638,114.64 90.638,114.826L90.638,116.796C90.638,116.956 90.686,117.088 90.783,117.191C90.88,117.295 91.001,117.346 91.148,117.346C91.341,117.346 91.473,117.286 91.543,117.166C91.613,117.046 91.648,116.906 91.648,116.746L91.648,114.886Z" style="fill:rgb(5,5,5);fill-rule:nonzero;"/>
            <path d="M93.508,118.306L93.508,113.236L94.528,113.236L94.528,118.306L93.508,118.306ZM93.508,112.206L93.508,111.186L94.528,111.186L94.528,112.206L93.508,112.206Z" style="fill:rgb(5,5,5);fill-rule:nonzero;"/>
            <path d="M95.368,113.236L95.368,111.696L96.388,111.696L96.388,113.236L97.018,113.236L97.018,114.036L96.388,114.036L96.388,116.846C96.388,116.966 96.4,117.06 96.423,117.126C96.446,117.193 96.485,117.243 96.538,117.276C96.591,117.31 96.656,117.33 96.733,117.336C96.81,117.343 96.905,117.346 97.018,117.346L97.018,118.306L96.598,118.306C96.365,118.306 96.17,118.27 96.013,118.196C95.856,118.123 95.731,118.03 95.638,117.916C95.545,117.803 95.476,117.675 95.433,117.531C95.39,117.388 95.368,117.25 95.368,117.116L95.368,114.036L94.858,114.036L94.858,113.236L95.368,113.236Z" style="fill:rgb(5,5,5);fill-rule:nonzero;"/>
            <path d="M98.488,116.846C98.488,117.006 98.533,117.13 98.623,117.216C98.713,117.303 98.835,117.346 98.988,117.346C99.181,117.346 99.31,117.29 99.373,117.176C99.436,117.063 99.475,116.95 99.488,116.836L100.508,116.836C100.508,117.283 100.371,117.643 100.098,117.916C99.965,118.056 99.805,118.166 99.618,118.246C99.431,118.326 99.221,118.366 98.988,118.366C98.668,118.366 98.396,118.3 98.173,118.166C97.95,118.033 97.778,117.856 97.658,117.636C97.585,117.503 97.535,117.35 97.508,117.176C97.481,117.003 97.468,116.813 97.468,116.606L97.468,114.936C97.468,114.73 97.481,114.54 97.508,114.366C97.535,114.193 97.585,114.04 97.658,113.906C97.778,113.686 97.95,113.51 98.173,113.376C98.396,113.243 98.668,113.176 98.988,113.176C99.221,113.176 99.433,113.216 99.623,113.296C99.813,113.376 99.975,113.486 100.108,113.626C100.375,113.926 100.508,114.316 100.508,114.796L99.488,114.796C99.488,114.59 99.443,114.438 99.353,114.341C99.263,114.245 99.141,114.196 98.988,114.196C98.835,114.196 98.713,114.245 98.623,114.341C98.533,114.438 98.488,114.583 98.488,114.776L98.488,116.846Z" style="fill:rgb(5,5,5);fill-rule:nonzero;"/>
            <path d="M100.988,118.306L100.988,111.186L102.008,111.186L102.008,113.726L102.028,113.726C102.135,113.566 102.263,113.435 102.413,113.331C102.563,113.228 102.755,113.176 102.988,113.176C103.115,113.176 103.241,113.198 103.368,113.241C103.495,113.285 103.608,113.356 103.708,113.456C103.808,113.556 103.888,113.685 103.948,113.841C104.008,113.998 104.038,114.19 104.038,114.416L104.038,118.306L103.018,118.306L103.018,114.796C103.018,114.61 102.975,114.463 102.888,114.356C102.801,114.25 102.678,114.196 102.518,114.196C102.325,114.196 102.191,114.256 102.118,114.376C102.045,114.496 102.008,114.67 102.008,114.896L102.008,118.306L100.988,118.306Z" style="fill:rgb(5,5,5);fill-rule:nonzero;"/>
        </g>
        <g transform="matrix(1,0,0,1,-79.6179,123.809)">
            <text x="89.198px" y="118.306px" style="font-family:'DINCondensed-Bold', 'DIN Condensed';font-weight:700;font-stretch:condensed;font-size:10px;fill:rgb(5,5,5);">pitc<tspan x="100.568px " y="118.306px ">h</tspan></text>
        </g>
    </g>
    <g transform="matrix(1,0,0,1,1.42109e-14,136.842)">
        <rect x="10" y="115.342" width="85" height="1.938" style="fill:rgb(102,102,102);"/>
    </g>
    <g transform="matrix(1,0,0,1,-65.22,-56.1035)">
        <g id="Loop-ledbutton" serif:id="Loop#ledbutton" transform="matrix(1,0,0,1,49.0141,-22.5512)">
            <circle cx="101.308" cy="310.24" r="9.898" style="fill:rgb(115,115,115);"/>
        </g>
        <g id="LoopOverride-input" serif:id="LoopOverride#input" transform="matrix(0.175002,0,0,0.175002,97.0875,254.805)">
            <rect x="53.94" y="106.916" width="161.978" height="161.978" style="fill:rgb(217,217,217);"/>
        </g>
        <g id="LoopMode-switch" serif:id="LoopMode#switch" transform="matrix(1,0,0,0.7555,22.5271,242.275)">
            <rect x="68.086" y="48.482" width="11.914" height="25.893" style="fill:rgb(204,51,51);"/>
        </g>
        <g transform="matrix(1,0,0,1,-14.4579,172.912)">
            <path d="M89.558,111.186L90.578,111.186L90.578,116.876C90.578,117.07 90.613,117.201 90.683,117.271C90.753,117.341 90.885,117.386 91.078,117.406L91.078,118.366C90.845,118.366 90.635,118.348 90.448,118.311C90.261,118.275 90.101,118.203 89.968,118.096C89.835,117.996 89.733,117.855 89.663,117.671C89.593,117.488 89.558,117.246 89.558,116.946L89.558,111.186Z" style="fill:rgb(5,5,5);fill-rule:nonzero;"/>
            <path d="M91.388,114.936C91.388,114.73 91.401,114.54 91.428,114.366C91.455,114.193 91.505,114.04 91.578,113.906C91.698,113.686 91.87,113.51 92.093,113.376C92.316,113.243 92.588,113.176 92.908,113.176C93.228,113.176 93.5,113.243 93.723,113.376C93.946,113.51 94.118,113.686 94.238,113.906C94.311,114.04 94.361,114.193 94.388,114.366C94.415,114.54 94.428,114.73 94.428,114.936L94.428,116.606C94.428,116.813 94.415,117.003 94.388,117.176C94.361,117.35 94.311,117.503 94.238,117.636C94.118,117.856 93.946,118.033 93.723,118.166C93.5,118.3 93.228,118.366 92.908,118.366C92.588,118.366 92.316,118.3 92.093,118.166C91.87,118.033 91.698,117.856 91.578,117.636C91.505,117.503 91.455,117.35 91.428,117.176C91.401,117.003 91.388,116.813 91.388,116.606L91.388,114.936ZM92.408,116.766C92.408,116.96 92.453,117.105 92.543,117.201C92.633,117.298 92.755,117.346 92.908,117.346C93.061,117.346 93.183,117.298 93.273,117.201C93.363,117.105 93.408,116.96 93.408,116.766L93.408,114.776C93.408,114.583 93.363,114.438 93.273,114.341C93.183,114.245 93.061,114.196 92.908,114.196C92.755,114.196 92.633,114.245 92.543,114.341C92.453,114.438 92.408,114.583 92.408,114.776L92.408,116.766Z" style="fill:rgb(5,5,5);fill-rule:nonzero;"/>
            <path d="M95.088,114.936C95.088,114.73 95.101,114.54 95.128,114.366C95.155,114.193 95.205,114.04 95.278,113.906C95.398,113.686 95.57,113.51 95.793,113.376C96.016,113.243 96.288,113.176 96.608,113.176C96.928,113.176 97.2,113.243 97.423,113.376C97.646,113.51 97.818,113.686 97.938,113.906C98.011,114.04 98.061,114.193 98.088,114.366C98.115,114.54 98.128,114.73 98.128,114.936L98.128,116.606C98.128,116.813 98.115,117.003 98.088,117.176C98.061,117.35 98.011,117.503 97.938,117.636C97.818,117.856 97.646,118.033 97.423,118.166C97.2,118.3 96.928,118.366 96.608,118.366C96.288,118.366 96.016,118.3 95.793,118.166C95.57,118.033 95.398,117.856 95.278,117.636C95.205,117.503 95.155,117.35 95.128,117.176C95.101,117.003 95.088,116.813 95.088,116.606L95.088,114.936ZM96.108,116.766C96.108,116.96 96.153,117.105 96.243,117.201C96.333,117.298 96.455,117.346 96.608,117.346C96.761,117.346 96.883,117.298 96.973,117.201C97.063,117.105 97.108,116.96 97.108,116.766L97.108,114.776C97.108,114.583 97.063,114.438 96.973,114.341C96.883,114.245 96.761,114.196 96.608,114.196C96.455,114.196 96.333,114.245 96.243,114.341C96.153,114.438 96.108,114.583 96.108,114.776L96.108,116.766Z" style="fill:rgb(5,5,5);fill-rule:nonzero;"/>
            <path d="M98.878,120.356L98.878,113.236L99.898,113.236L99.898,113.696C100.025,113.55 100.155,113.426 100.288,113.326C100.421,113.226 100.615,113.176 100.868,113.176C101.288,113.176 101.585,113.336 101.758,113.656C101.818,113.77 101.861,113.91 101.888,114.076C101.915,114.243 101.928,114.466 101.928,114.746L101.928,116.676C101.928,117.05 101.918,117.32 101.898,117.486C101.858,117.82 101.705,118.07 101.438,118.236C101.305,118.323 101.111,118.366 100.858,118.366C100.658,118.366 100.48,118.321 100.323,118.231C100.166,118.141 100.031,118.013 99.918,117.846L99.898,117.846L99.898,120.356L98.878,120.356ZM100.908,114.886C100.908,114.68 100.868,114.513 100.788,114.386C100.708,114.26 100.581,114.196 100.408,114.196C100.255,114.196 100.131,114.255 100.038,114.371C99.945,114.488 99.898,114.64 99.898,114.826L99.898,116.796C99.898,116.956 99.946,117.088 100.043,117.191C100.14,117.295 100.261,117.346 100.408,117.346C100.601,117.346 100.733,117.286 100.803,117.166C100.873,117.046 100.908,116.906 100.908,116.746L100.908,114.886Z" style="fill:rgb(5,5,5);fill-rule:nonzero;"/>
        </g>
        <g transform="matrix(1,0,0,1,-14.4579,172.912)">
            <text x="89.198px" y="118.306px" style="font-family:'DINCondensed-Bold', 'DIN Condensed';font-weight:700;font-stretch:condensed;font-size:10px;fill:rgb(5,5,5);">loop</text>
        </g>
    </g>
    <g transform="matrix(1,0,0,1,-65.16,-91.726)">
        <g id="ManualReset-button" serif:id="ManualReset#button" transform="matrix(0.709808,0,0,0.709808,78.4129,67.4779)">
            <circle cx="101.308" cy="310.24" r="9.898" style="fill:rgb(115,115,115);"/>
        </g>
        <g id="Reset-input" serif:id="Reset#input" transform="matrix(0.175002,0,0,0.175002,97.0875,254.805)">
            <rect x="53.94" y="106.916" width="161.978" height="161.978" style="fill:rgb(217,217,217);"/>
        </g>
        <g transform="matrix(1,0,0,1,-14.4579,172.912)">
            <path d="M89.618,118.306L89.618,113.236L90.638,113.236L90.638,113.776C90.845,113.59 91.048,113.443 91.248,113.336C91.448,113.23 91.695,113.176 91.988,113.176L91.988,114.256C91.888,114.216 91.785,114.196 91.678,114.196C91.571,114.196 91.456,114.215 91.333,114.251C91.21,114.288 91.098,114.35 90.998,114.436C90.891,114.523 90.805,114.636 90.738,114.776C90.671,114.916 90.638,115.09 90.638,115.296L90.638,118.306L89.618,118.306Z" style="fill:rgb(5,5,5);fill-rule:nonzero;"/>
            <path d="M95.348,116.156L93.328,116.156L93.328,116.846C93.328,117.006 93.373,117.13 93.463,117.216C93.553,117.303 93.675,117.346 93.828,117.346C94.021,117.346 94.15,117.29 94.213,117.176C94.276,117.063 94.315,116.95 94.328,116.836L95.348,116.836C95.348,117.283 95.211,117.643 94.938,117.916C94.805,118.056 94.645,118.166 94.458,118.246C94.271,118.326 94.061,118.366 93.828,118.366C93.508,118.366 93.236,118.3 93.013,118.166C92.79,118.033 92.618,117.856 92.498,117.636C92.425,117.503 92.375,117.35 92.348,117.176C92.321,117.003 92.308,116.813 92.308,116.606L92.308,114.936C92.308,114.73 92.321,114.54 92.348,114.366C92.375,114.193 92.425,114.04 92.498,113.906C92.618,113.686 92.79,113.51 93.013,113.376C93.236,113.243 93.508,113.176 93.828,113.176C94.061,113.176 94.273,113.216 94.463,113.296C94.653,113.376 94.815,113.486 94.948,113.626C95.215,113.926 95.348,114.303 95.348,114.756L95.348,116.156ZM93.328,115.356L94.328,115.356L94.328,114.776C94.328,114.583 94.283,114.438 94.193,114.341C94.103,114.245 93.981,114.196 93.828,114.196C93.675,114.196 93.553,114.245 93.463,114.341C93.373,114.438 93.328,114.583 93.328,114.776L93.328,115.356Z" style="fill:rgb(5,5,5);fill-rule:nonzero;"/>
            <path d="M97.948,114.656C97.941,114.483 97.886,114.353 97.783,114.266C97.68,114.18 97.561,114.136 97.428,114.136C97.268,114.136 97.145,114.188 97.058,114.291C96.971,114.395 96.928,114.513 96.928,114.646C96.928,114.74 96.951,114.831 96.998,114.921C97.045,115.011 97.165,115.093 97.358,115.166L97.958,115.406C98.338,115.553 98.6,115.753 98.743,116.006C98.886,116.26 98.958,116.536 98.958,116.836C98.958,117.05 98.92,117.248 98.843,117.431C98.766,117.615 98.661,117.776 98.528,117.916C98.395,118.056 98.235,118.166 98.048,118.246C97.861,118.326 97.658,118.366 97.438,118.366C97.025,118.366 96.678,118.236 96.398,117.976C96.258,117.85 96.145,117.691 96.058,117.501C95.971,117.311 95.925,117.09 95.918,116.836L96.878,116.836C96.898,116.976 96.946,117.106 97.023,117.226C97.1,117.346 97.235,117.406 97.428,117.406C97.575,117.406 97.706,117.358 97.823,117.261C97.94,117.165 97.998,117.03 97.998,116.856C97.998,116.716 97.961,116.596 97.888,116.496C97.815,116.396 97.681,116.31 97.488,116.236L96.998,116.056C96.678,115.936 96.426,115.758 96.243,115.521C96.06,115.285 95.968,114.996 95.968,114.656C95.968,114.443 96.008,114.245 96.088,114.061C96.168,113.878 96.278,113.72 96.418,113.586C96.551,113.453 96.708,113.351 96.888,113.281C97.068,113.211 97.261,113.176 97.468,113.176C97.675,113.176 97.866,113.213 98.043,113.286C98.22,113.36 98.371,113.463 98.498,113.596C98.625,113.73 98.725,113.888 98.798,114.071C98.871,114.255 98.908,114.45 98.908,114.656L97.948,114.656Z" style="fill:rgb(5,5,5);fill-rule:nonzero;"/>
            <path d="M102.568,116.156L100.548,116.156L100.548,116.846C100.548,117.006 100.593,117.13 100.683,117.216C100.773,117.303 100.895,117.346 101.048,117.346C101.241,117.346 101.37,117.29 101.433,117.176C101.496,117.063 101.535,116.95 101.548,116.836L102.568,116.836C102.568,117.283 102.431,117.643 102.158,117.916C102.025,118.056 101.865,118.166 101.678,118.246C101.491,118.326 101.281,118.366 101.048,118.366C100.728,118.366 100.456,118.3 100.233,118.166C100.01,118.033 99.838,117.856 99.718,117.636C99.645,117.503 99.595,117.35 99.568,117.176C99.541,117.003 99.528,116.813 99.528,116.606L99.528,114.936C99.528,114.73 99.541,114.54 99.568,114.366C99.595,114.193 99.645,114.04 99.718,113.906C99.838,113.686 100.01,113.51 100.233,113.376C100.456,113.243 100.728,113.176 101.048,113.176C101.281,113.176 101.493,113.216 101.683,113.296C101.873,113.376 102.035,113.486 102.168,113.626C102.435,113.926 102.568,114.303 102.568,114.756L102.568,116.156ZM100.548,115.356L101.548,115.356L101.548,114.776C101.548,114.583 101.503,114.438 101.413,114.341C101.323,114.245 101.201,114.196 101.048,114.196C100.895,114.196 100.773,114.245 100.683,114.341C100.593,114.438 100.548,114.583 100.548,114.776L100.548,115.356Z" style="fill:rgb(5,5,5);fill-rule:nonzero;"/>
            <path d="M103.318,113.236L103.318,111.696L104.338,111.696L104.338,113.236L104.968,113.236L104.968,114.036L104.338,114.036L104.338,116.846C104.338,116.966 104.35,117.06 104.373,117.126C104.396,117.193 104.435,117.243 104.488,117.276C104.541,117.31 104.606,117.33 104.683,117.336C104.76,117.343 104.855,117.346 104.968,117.346L104.968,118.306L104.548,118.306C104.315,118.306 104.12,118.27 103.963,118.196C103.806,118.123 103.681,118.03 103.588,117.916C103.495,117.803 103.426,117.675 103.383,117.531C103.34,117.388 103.318,117.25 103.318,117.116L103.318,114.036L102.808,114.036L102.808,113.236L103.318,113.236Z" style="fill:rgb(5,5,5);fill-rule:nonzero;"/>
        </g>
        <g transform="matrix(1,0,0,1,-14.4579,172.912)">
            <text x="89.198px" y="118.306px" style="font-family:'DINCondensed-Bold', 'DIN Condensed';font-weight:700;font-stretch:condensed;font-size:10px;fill:rgb(5,5,5);">reset</text>
        </g>
    </g>
    <g transform="matrix(1,0,0,1,-65.22,-127.348)">
        <g id="Play-ledbutton" serif:id="Play#ledbutton" transform="matrix(1,0,0,1,49.0141,-22.5512)">
            <circle cx="101.308" cy="310.24" r="9.898" style="fill:rgb(115,115,115);"/>
        </g>
        <g id="PlayOverride-input" serif:id="PlayOverride#input" transform="matrix(0.175002,0,0,0.175002,97.0875,254.805)">
            <rect x="53.94" y="106.916" width="161.978" height="161.978" style="fill:rgb(217,217,217);"/>
        </g>
        <g id="PlayMode-switch" serif:id="PlayMode#switch" transform="matrix(1,0,0,0.7555,22.5271,242.275)">
            <rect x="68.086" y="48.482" width="11.914" height="25.893" style="fill:rgb(204,51,51);"/>
        </g>
        <g transform="matrix(1,0,0,1,-14.4579,172.912)">
            <path d="M89.618,120.356L89.618,113.236L90.638,113.236L90.638,113.696C90.765,113.55 90.895,113.426 91.028,113.326C91.161,113.226 91.355,113.176 91.608,113.176C92.028,113.176 92.325,113.336 92.498,113.656C92.558,113.77 92.601,113.91 92.628,114.076C92.655,114.243 92.668,114.466 92.668,114.746L92.668,116.676C92.668,117.05 92.658,117.32 92.638,117.486C92.598,117.82 92.445,118.07 92.178,118.236C92.045,118.323 91.851,118.366 91.598,118.366C91.398,118.366 91.22,118.321 91.063,118.231C90.906,118.141 90.771,118.013 90.658,117.846L90.638,117.846L90.638,120.356L89.618,120.356ZM91.648,114.886C91.648,114.68 91.608,114.513 91.528,114.386C91.448,114.26 91.321,114.196 91.148,114.196C90.995,114.196 90.871,114.255 90.778,114.371C90.685,114.488 90.638,114.64 90.638,114.826L90.638,116.796C90.638,116.956 90.686,117.088 90.783,117.191C90.88,117.295 91.001,117.346 91.148,117.346C91.341,117.346 91.473,117.286 91.543,117.166C91.613,117.046 91.648,116.906 91.648,116.746L91.648,114.886Z" style="fill:rgb(5,5,5);fill-rule:nonzero;"/>
            <path d="M93.448,111.186L94.468,111.186L94.468,116.876C94.468,117.07 94.503,117.201 94.573,117.271C94.643,117.341 94.775,117.386 94.968,117.406L94.968,118.366C94.735,118.366 94.525,118.348 94.338,118.311C94.151,118.275 93.991,118.203 93.858,118.096C93.725,117.996 93.623,117.855 93.553,117.671C93.483,117.488 93.448,117.246 93.448,116.946L93.448,111.186Z" style="fill:rgb(5,5,5);fill-rule:nonzero;"/>
            <path d="M97.298,118.306L97.298,117.786L97.278,117.786C97.145,117.973 97.01,118.116 96.873,118.216C96.736,118.316 96.545,118.366 96.298,118.366C96.178,118.366 96.056,118.348 95.933,118.311C95.81,118.275 95.691,118.206 95.578,118.106C95.465,118.013 95.373,117.878 95.303,117.701C95.233,117.525 95.198,117.296 95.198,117.016C95.198,116.73 95.221,116.478 95.268,116.261C95.315,116.045 95.401,115.863 95.528,115.716C95.648,115.576 95.811,115.471 96.018,115.401C96.225,115.331 96.488,115.296 96.808,115.296L96.918,115.296C96.958,115.296 96.995,115.3 97.028,115.306C97.061,115.313 97.101,115.316 97.148,115.316C97.195,115.316 97.245,115.32 97.298,115.326L97.298,114.796C97.298,114.623 97.261,114.48 97.188,114.366C97.115,114.253 96.981,114.196 96.788,114.196C96.655,114.196 96.533,114.24 96.423,114.326C96.313,114.413 96.241,114.54 96.208,114.706L95.218,114.706C95.245,114.253 95.398,113.886 95.678,113.606C95.811,113.473 95.971,113.368 96.158,113.291C96.345,113.215 96.555,113.176 96.788,113.176C97.001,113.176 97.201,113.21 97.388,113.276C97.575,113.343 97.738,113.443 97.878,113.576C98.011,113.71 98.118,113.876 98.198,114.076C98.278,114.276 98.318,114.51 98.318,114.776L98.318,118.306L97.298,118.306ZM97.298,116.126C97.185,116.106 97.091,116.096 97.018,116.096C96.798,116.096 96.61,116.148 96.453,116.251C96.296,116.355 96.218,116.543 96.218,116.816C96.218,117.01 96.265,117.166 96.358,117.286C96.451,117.406 96.581,117.466 96.748,117.466C96.921,117.466 97.056,117.41 97.153,117.296C97.25,117.183 97.298,117.023 97.298,116.816L97.298,116.126Z" style="fill:rgb(5,5,5);fill-rule:nonzero;"/>
            <path d="M98.518,113.236L99.598,113.236L100.298,116.396L100.318,116.396L101.008,113.236L102.058,113.236L100.598,119.186C100.545,119.413 100.47,119.6 100.373,119.746C100.276,119.893 100.165,120.013 100.038,120.106C99.911,120.2 99.776,120.265 99.633,120.301C99.49,120.338 99.341,120.356 99.188,120.356L98.908,120.356L98.908,119.396L99.138,119.396C99.238,119.396 99.325,119.383 99.398,119.356C99.471,119.33 99.538,119.27 99.598,119.176C99.651,119.083 99.701,118.951 99.748,118.781C99.795,118.611 99.848,118.376 99.908,118.076L98.518,113.236Z" style="fill:rgb(5,5,5);fill-rule:nonzero;"/>
        </g>
        <g transform="matrix(1,0,0,1,-14.4579,172.912)">
            <text x="89.198px" y="118.306px" style="font-family:'DINCondensed-Bold', 'DIN Condensed';font-weight:700;font-stretch:condensed;font-size:10px;fill:rgb(5,5,5);">pla<tspan x="98.528px " y="118.306px ">y</tspan></text>
        </g>
    </g>
    <g transform="matrix(1,0,0,1,-89.3203,87.1792)">
        <g transform="matrix(1,0,0,1,26.7335,-74.9344)">
            <path d="M90.638,118.896C90.645,119.016 90.693,119.13 90.783,119.236C90.873,119.343 91.005,119.396 91.178,119.396C91.345,119.396 91.465,119.345 91.538,119.241C91.611,119.138 91.648,119.006 91.648,118.846L91.648,117.846L91.628,117.846C91.515,118.013 91.38,118.141 91.223,118.231C91.066,118.321 90.885,118.366 90.678,118.366C90.251,118.366 89.955,118.206 89.788,117.886C89.728,117.773 89.685,117.633 89.658,117.466C89.631,117.3 89.618,117.076 89.618,116.796L89.618,114.866C89.618,114.5 89.628,114.23 89.648,114.056C89.688,113.723 89.845,113.473 90.118,113.306C90.245,113.22 90.435,113.176 90.688,113.176C90.815,113.176 90.923,113.19 91.013,113.216C91.103,113.243 91.185,113.28 91.258,113.326C91.331,113.373 91.398,113.428 91.458,113.491C91.518,113.555 91.581,113.623 91.648,113.696L91.648,113.236L92.668,113.236L92.668,118.926C92.668,119.1 92.64,119.275 92.583,119.451C92.526,119.628 92.435,119.786 92.308,119.926C92.181,120.073 92.021,120.191 91.828,120.281C91.635,120.371 91.405,120.416 91.138,120.416C90.985,120.416 90.825,120.391 90.658,120.341C90.491,120.291 90.338,120.206 90.198,120.086C90.051,119.973 89.926,119.821 89.823,119.631C89.72,119.441 89.651,119.196 89.618,118.896L90.638,118.896ZM90.638,116.746C90.638,116.906 90.673,117.046 90.743,117.166C90.813,117.286 90.945,117.346 91.138,117.346C91.285,117.346 91.406,117.295 91.503,117.191C91.6,117.088 91.648,116.956 91.648,116.796L91.648,114.826C91.648,114.64 91.601,114.488 91.508,114.371C91.415,114.255 91.291,114.196 91.138,114.196C90.965,114.196 90.838,114.26 90.758,114.386C90.678,114.513 90.638,114.68 90.638,114.886L90.638,116.746Z" style="fill:rgb(5,5,5);fill-rule:nonzero;"/>
            <path d="M95.438,118.306L95.438,117.786L95.418,117.786C95.285,117.973 95.15,118.116 95.013,118.216C94.876,118.316 94.685,118.366 94.438,118.366C94.318,118.366 94.196,118.348 94.073,118.311C93.95,118.275 93.831,118.206 93.718,118.106C93.605,118.013 93.513,117.878 93.443,117.701C93.373,117.525 93.338,117.296 93.338,117.016C93.338,116.73 93.361,116.478 93.408,116.261C93.455,116.045 93.541,115.863 93.668,115.716C93.788,115.576 93.951,115.471 94.158,115.401C94.365,115.331 94.628,115.296 94.948,115.296L95.058,115.296C95.098,115.296 95.135,115.3 95.168,115.306C95.201,115.313 95.241,115.316 95.288,115.316C95.335,115.316 95.385,115.32 95.438,115.326L95.438,114.796C95.438,114.623 95.401,114.48 95.328,114.366C95.255,114.253 95.121,114.196 94.928,114.196C94.795,114.196 94.673,114.24 94.563,114.326C94.453,114.413 94.381,114.54 94.348,114.706L93.358,114.706C93.385,114.253 93.538,113.886 93.818,113.606C93.951,113.473 94.111,113.368 94.298,113.291C94.485,113.215 94.695,113.176 94.928,113.176C95.141,113.176 95.341,113.21 95.528,113.276C95.715,113.343 95.878,113.443 96.018,113.576C96.151,113.71 96.258,113.876 96.338,114.076C96.418,114.276 96.458,114.51 96.458,114.776L96.458,118.306L95.438,118.306ZM95.438,116.126C95.325,116.106 95.231,116.096 95.158,116.096C94.938,116.096 94.75,116.148 94.593,116.251C94.436,116.355 94.358,116.543 94.358,116.816C94.358,117.01 94.405,117.166 94.498,117.286C94.591,117.406 94.721,117.466 94.888,117.466C95.061,117.466 95.196,117.41 95.293,117.296C95.39,117.183 95.438,117.023 95.438,116.816L95.438,116.126Z" style="fill:rgb(5,5,5);fill-rule:nonzero;"/>
            <path d="M97.208,113.236L97.208,111.696L98.228,111.696L98.228,113.236L98.858,113.236L98.858,114.036L98.228,114.036L98.228,116.846C98.228,116.966 98.24,117.06 98.263,117.126C98.286,117.193 98.325,117.243 98.378,117.276C98.431,117.31 98.496,117.33 98.573,117.336C98.65,117.343 98.745,117.346 98.858,117.346L98.858,118.306L98.438,118.306C98.205,118.306 98.01,118.27 97.853,118.196C97.696,118.123 97.571,118.03 97.478,117.916C97.385,117.803 97.316,117.675 97.273,117.531C97.23,117.388 97.208,117.25 97.208,117.116L97.208,114.036L96.698,114.036L96.698,113.236L97.208,113.236Z" style="fill:rgb(5,5,5);fill-rule:nonzero;"/>
            <path d="M102.198,116.156L100.178,116.156L100.178,116.846C100.178,117.006 100.223,117.13 100.313,117.216C100.403,117.303 100.525,117.346 100.678,117.346C100.871,117.346 101,117.29 101.063,117.176C101.126,117.063 101.165,116.95 101.178,116.836L102.198,116.836C102.198,117.283 102.061,117.643 101.788,117.916C101.655,118.056 101.495,118.166 101.308,118.246C101.121,118.326 100.911,118.366 100.678,118.366C100.358,118.366 100.086,118.3 99.863,118.166C99.64,118.033 99.468,117.856 99.348,117.636C99.275,117.503 99.225,117.35 99.198,117.176C99.171,117.003 99.158,116.813 99.158,116.606L99.158,114.936C99.158,114.73 99.171,114.54 99.198,114.366C99.225,114.193 99.275,114.04 99.348,113.906C99.468,113.686 99.64,113.51 99.863,113.376C100.086,113.243 100.358,113.176 100.678,113.176C100.911,113.176 101.123,113.216 101.313,113.296C101.503,113.376 101.665,113.486 101.798,113.626C102.065,113.926 102.198,114.303 102.198,114.756L102.198,116.156ZM100.178,115.356L101.178,115.356L101.178,114.776C101.178,114.583 101.133,114.438 101.043,114.341C100.953,114.245 100.831,114.196 100.678,114.196C100.525,114.196 100.403,114.245 100.313,114.341C100.223,114.438 100.178,114.583 100.178,114.776L100.178,115.356Z" style="fill:rgb(5,5,5);fill-rule:nonzero;"/>
        </g>
        <g transform="matrix(1,0,0,1,26.7335,-74.9344)">
            <text x="89.198px" y="118.306px" style="font-family:'DINCondensed-Bold', 'DIN Condensed';font-weight:700;font-stretch:condensed;font-size:10px;fill:rgb(5,5,5);">gate</text>
        </g>
        <g transform="matrix(1,0,0,1,27.2435,-83.6544)">
            <path d="M89.618,113.236L89.618,111.696L90.638,111.696L90.638,113.236L91.268,113.236L91.268,114.036L90.638,114.036L90.638,116.846C90.638,116.966 90.65,117.06 90.673,117.126C90.696,117.193 90.735,117.243 90.788,117.276C90.841,117.31 90.906,117.33 90.983,117.336C91.06,117.343 91.155,117.346 91.268,117.346L91.268,118.306L90.848,118.306C90.615,118.306 90.42,118.27 90.263,118.196C90.106,118.123 89.981,118.03 89.888,117.916C89.795,117.803 89.726,117.675 89.683,117.531C89.64,117.388 89.618,117.25 89.618,117.116L89.618,114.036L89.108,114.036L89.108,113.236L89.618,113.236Z" style="fill:rgb(5,5,5);fill-rule:nonzero;"/>
            <path d="M91.658,118.306L91.658,113.236L92.678,113.236L92.678,113.776C92.885,113.59 93.088,113.443 93.288,113.336C93.488,113.23 93.735,113.176 94.028,113.176L94.028,114.256C93.928,114.216 93.825,114.196 93.718,114.196C93.611,114.196 93.496,114.215 93.373,114.251C93.25,114.288 93.138,114.35 93.038,114.436C92.931,114.523 92.845,114.636 92.778,114.776C92.711,114.916 92.678,115.09 92.678,115.296L92.678,118.306L91.658,118.306Z" style="fill:rgb(5,5,5);fill-rule:nonzero;"/>
            <path d="M94.438,118.306L94.438,113.236L95.458,113.236L95.458,118.306L94.438,118.306ZM94.438,112.206L94.438,111.186L95.458,111.186L95.458,112.206L94.438,112.206Z" style="fill:rgb(5,5,5);fill-rule:nonzero;"/>
            <path d="M97.318,118.896C97.325,119.016 97.373,119.13 97.463,119.236C97.553,119.343 97.685,119.396 97.858,119.396C98.025,119.396 98.145,119.345 98.218,119.241C98.291,119.138 98.328,119.006 98.328,118.846L98.328,117.846L98.308,117.846C98.195,118.013 98.06,118.141 97.903,118.231C97.746,118.321 97.565,118.366 97.358,118.366C96.931,118.366 96.635,118.206 96.468,117.886C96.408,117.773 96.365,117.633 96.338,117.466C96.311,117.3 96.298,117.076 96.298,116.796L96.298,114.866C96.298,114.5 96.308,114.23 96.328,114.056C96.368,113.723 96.525,113.473 96.798,113.306C96.925,113.22 97.115,113.176 97.368,113.176C97.495,113.176 97.603,113.19 97.693,113.216C97.783,113.243 97.865,113.28 97.938,113.326C98.011,113.373 98.078,113.428 98.138,113.491C98.198,113.555 98.261,113.623 98.328,113.696L98.328,113.236L99.348,113.236L99.348,118.926C99.348,119.1 99.32,119.275 99.263,119.451C99.206,119.628 99.115,119.786 98.988,119.926C98.861,120.073 98.701,120.191 98.508,120.281C98.315,120.371 98.085,120.416 97.818,120.416C97.665,120.416 97.505,120.391 97.338,120.341C97.171,120.291 97.018,120.206 96.878,120.086C96.731,119.973 96.606,119.821 96.503,119.631C96.4,119.441 96.331,119.196 96.298,118.896L97.318,118.896ZM97.318,116.746C97.318,116.906 97.353,117.046 97.423,117.166C97.493,117.286 97.625,117.346 97.818,117.346C97.965,117.346 98.086,117.295 98.183,117.191C98.28,117.088 98.328,116.956 98.328,116.796L98.328,114.826C98.328,114.64 98.281,114.488 98.188,114.371C98.095,114.255 97.971,114.196 97.818,114.196C97.645,114.196 97.518,114.26 97.438,114.386C97.358,114.513 97.318,114.68 97.318,114.886L97.318,116.746Z" style="fill:rgb(5,5,5);fill-rule:nonzero;"/>
            <path d="M101.208,118.896C101.215,119.016 101.263,119.13 101.353,119.236C101.443,119.343 101.575,119.396 101.748,119.396C101.915,119.396 102.035,119.345 102.108,119.241C102.181,119.138 102.218,119.006 102.218,118.846L102.218,117.846L102.198,117.846C102.085,118.013 101.95,118.141 101.793,118.231C101.636,118.321 101.455,118.366 101.248,118.366C100.821,118.366 100.525,118.206 100.358,117.886C100.298,117.773 100.255,117.633 100.228,117.466C100.201,117.3 100.188,117.076 100.188,116.796L100.188,114.866C100.188,114.5 100.198,114.23 100.218,114.056C100.258,113.723 100.415,113.473 100.688,113.306C100.815,113.22 101.005,113.176 101.258,113.176C101.385,113.176 101.493,113.19 101.583,113.216C101.673,113.243 101.755,113.28 101.828,113.326C101.901,113.373 101.968,113.428 102.028,113.491C102.088,113.555 102.151,113.623 102.218,113.696L102.218,113.236L103.238,113.236L103.238,118.926C103.238,119.1 103.21,119.275 103.153,119.451C103.096,119.628 103.005,119.786 102.878,119.926C102.751,120.073 102.591,120.191 102.398,120.281C102.205,120.371 101.975,120.416 101.708,120.416C101.555,120.416 101.395,120.391 101.228,120.341C101.061,120.291 100.908,120.206 100.768,120.086C100.621,119.973 100.496,119.821 100.393,119.631C100.29,119.441 100.221,119.196 100.188,118.896L101.208,118.896ZM101.208,116.746C101.208,116.906 101.243,117.046 101.313,117.166C101.383,117.286 101.515,117.346 101.708,117.346C101.855,117.346 101.976,117.295 102.073,117.191C102.17,117.088 102.218,116.956 102.218,116.796L102.218,114.826C102.218,114.64 102.171,114.488 102.078,114.371C101.985,114.255 101.861,114.196 101.708,114.196C101.535,114.196 101.408,114.26 101.328,114.386C101.248,114.513 101.208,114.68 101.208,114.886L101.208,116.746Z" style="fill:rgb(5,5,5);fill-rule:nonzero;"/>
            <path d="M107.028,116.156L105.008,116.156L105.008,116.846C105.008,117.006 105.053,117.13 105.143,117.216C105.233,117.303 105.355,117.346 105.508,117.346C105.701,117.346 105.83,117.29 105.893,117.176C105.956,117.063 105.995,116.95 106.008,116.836L107.028,116.836C107.028,117.283 106.891,117.643 106.618,117.916C106.485,118.056 106.325,118.166 106.138,118.246C105.951,118.326 105.741,118.366 105.508,118.366C105.188,118.366 104.916,118.3 104.693,118.166C104.47,118.033 104.298,117.856 104.178,117.636C104.105,117.503 104.055,117.35 104.028,117.176C104.001,117.003 103.988,116.813 103.988,116.606L103.988,114.936C103.988,114.73 104.001,114.54 104.028,114.366C104.055,114.193 104.105,114.04 104.178,113.906C104.298,113.686 104.47,113.51 104.693,113.376C104.916,113.243 105.188,113.176 105.508,113.176C105.741,113.176 105.953,113.216 106.143,113.296C106.333,113.376 106.495,113.486 106.628,113.626C106.895,113.926 107.028,114.303 107.028,114.756L107.028,116.156ZM105.008,115.356L106.008,115.356L106.008,114.776C106.008,114.583 105.963,114.438 105.873,114.341C105.783,114.245 105.661,114.196 105.508,114.196C105.355,114.196 105.233,114.245 105.143,114.341C105.053,114.438 105.008,114.583 105.008,114.776L105.008,115.356Z" style="fill:rgb(5,5,5);fill-rule:nonzero;"/>
            <path d="M107.778,118.306L107.778,113.236L108.798,113.236L108.798,113.776C109.005,113.59 109.208,113.443 109.408,113.336C109.608,113.23 109.855,113.176 110.148,113.176L110.148,114.256C110.048,114.216 109.945,114.196 109.838,114.196C109.731,114.196 109.616,114.215 109.493,114.251C109.37,114.288 109.258,114.35 109.158,114.436C109.051,114.523 108.965,114.636 108.898,114.776C108.831,114.916 108.798,115.09 108.798,115.296L108.798,118.306L107.778,118.306Z" style="fill:rgb(5,5,5);fill-rule:nonzero;"/>
        </g>
        <g transform="matrix(1,0,0,1,27.2435,-83.6544)">
            <text x="89.198px" y="118.306px" style="font-family:'DINCondensed-Bold', 'DIN Condensed';font-weight:700;font-stretch:condensed;font-size:10px;fill:rgb(5,5,5);">trigger</text>
        </g>
        <g transform="matrix(1.45779,0,0,1,-47.9268,0)">
            <rect x="104.692" y="28.274" width="6.603" height="16.826" style="fill:rgb(128,128,128);"/>
        </g>
        <g transform="matrix(1,0,0,0.622231,-15.2887,8.76263)">
            <rect x="121.112" y="35.371" width="7.363" height="9.506" style="fill:rgb(179,179,179);"/>
        </g>
    </g>
    <g transform="matrix(1,0,0,1,0,-11)">
        <rect x="10" y="115.342" width="85" height="1.938" style="fill:rgb(102,102,102);"/>
    </g>
    <g id="Display-oled-83x60" serif:id="Display#oled$83x60" transform="matrix(1.77099,0,0,2.63702,-144.317,-150.409)">
        <rect x="87.136" y="70.02" width="47.996" height="23.511" style="fill:rgb(19,19,19);"/>
    </g>
    <g transform="matrix(0.816456,0,0,0.816456,39.8622,-232.597)">
        <g transform="matrix(1,0,0,1,-65.8219,-49.2888)">
            <path d="M82.152,350.323C81.904,350.971 81.654,351.591 81.402,352.183C81.15,352.775 80.908,353.279 80.676,353.695C80.58,353.871 80.488,354.045 80.4,354.217C80.312,354.389 80.23,354.545 80.154,354.685C80.078,354.825 80.01,354.941 79.95,355.033C79.89,355.125 79.836,355.179 79.788,355.195C79.748,355.219 79.702,355.237 79.65,355.249C79.598,355.261 79.552,355.267 79.512,355.267C79.496,355.267 79.472,355.259 79.44,355.243C79.408,355.227 79.38,355.187 79.356,355.123C79.244,354.851 79.122,354.521 78.99,354.133C78.858,353.745 78.72,353.331 78.576,352.891C78.432,352.451 78.282,351.993 78.126,351.517C77.97,351.041 77.816,350.575 77.664,350.119C77.552,349.759 77.446,349.393 77.346,349.021C77.246,348.649 77.15,348.305 77.058,347.989C76.966,347.673 76.884,347.405 76.812,347.185C76.74,346.965 76.676,346.827 76.62,346.771C76.516,346.755 76.432,346.747 76.368,346.747L76.14,346.747C76.116,346.747 76.096,346.733 76.08,346.705C76.064,346.677 76.056,346.645 76.056,346.609C76.056,346.573 76.06,346.541 76.068,346.513C76.076,346.485 76.088,346.471 76.104,346.471C76.136,346.471 76.202,346.473 76.302,346.477C76.402,346.481 76.522,346.485 76.662,346.489C76.802,346.493 76.954,346.497 77.118,346.501C77.282,346.505 77.436,346.507 77.58,346.507C77.908,346.507 78.202,346.501 78.462,346.489C78.722,346.477 78.892,346.471 78.972,346.471C79.06,346.471 79.11,346.509 79.122,346.585C79.134,346.661 79.072,346.719 78.936,346.759C78.88,346.783 78.79,346.793 78.666,346.789C78.542,346.785 78.424,346.779 78.312,346.771C78.32,346.899 78.36,347.121 78.432,347.437C78.504,347.753 78.596,348.121 78.708,348.541C78.82,348.961 78.946,349.409 79.086,349.885C79.226,350.361 79.37,350.823 79.518,351.271C79.666,351.719 79.808,352.129 79.944,352.501C80.08,352.873 80.204,353.163 80.316,353.371C80.372,353.323 80.46,353.175 80.58,352.927C80.7,352.679 80.834,352.373 80.982,352.009C81.13,351.645 81.284,351.243 81.444,350.803C81.604,350.363 81.752,349.931 81.888,349.507C81.792,349.187 81.702,348.873 81.618,348.565C81.534,348.257 81.456,347.975 81.384,347.719C81.312,347.463 81.246,347.247 81.186,347.071C81.126,346.895 81.072,346.783 81.024,346.735C80.92,346.719 80.838,346.711 80.778,346.711L80.568,346.711C80.536,346.711 80.514,346.697 80.502,346.669C80.49,346.641 80.482,346.609 80.478,346.573C80.474,346.537 80.474,346.503 80.478,346.471C80.482,346.439 80.488,346.423 80.496,346.423C80.512,346.423 80.59,346.427 80.73,346.435C80.87,346.443 81.032,346.451 81.216,346.459C81.4,346.467 81.592,346.475 81.792,346.483C81.992,346.491 82.16,346.495 82.296,346.495C82.68,346.495 82.982,346.485 83.202,346.465C83.422,346.445 83.548,346.435 83.58,346.435C83.716,346.435 83.776,346.473 83.76,346.549C83.744,346.625 83.692,346.679 83.604,346.711C83.484,346.751 83.382,346.765 83.298,346.753C83.214,346.741 83.146,346.739 83.094,346.747C83.042,346.755 83.002,346.785 82.974,346.837C82.946,346.889 82.932,346.999 82.932,347.167C82.932,347.303 82.962,347.525 83.022,347.833C83.082,348.141 83.162,348.493 83.262,348.889C83.362,349.285 83.476,349.707 83.604,350.155C83.732,350.603 83.862,351.033 83.994,351.445C84.126,351.857 84.254,352.231 84.378,352.567C84.502,352.903 84.612,353.159 84.708,353.335C84.756,353.295 84.842,353.153 84.966,352.909C85.09,352.665 85.232,352.361 85.392,351.997C85.552,351.633 85.718,351.227 85.89,350.779C86.062,350.331 86.22,349.885 86.364,349.441C86.508,348.997 86.626,348.575 86.718,348.175C86.81,347.775 86.856,347.439 86.856,347.167C86.856,347.127 86.854,347.079 86.85,347.023C86.846,346.967 86.838,346.915 86.826,346.867C86.814,346.819 86.8,346.777 86.784,346.741C86.768,346.705 86.744,346.687 86.712,346.687C86.616,346.687 86.534,346.689 86.466,346.693C86.398,346.697 86.336,346.699 86.28,346.699C86.224,346.699 86.172,346.701 86.124,346.705C86.076,346.709 86.016,346.711 85.944,346.711C85.928,346.703 85.914,346.685 85.902,346.657C85.89,346.629 85.878,346.597 85.866,346.561C85.854,346.525 85.848,346.493 85.848,346.465C85.848,346.437 85.86,346.423 85.884,346.423C85.956,346.423 86.098,346.429 86.31,346.441C86.522,346.453 86.864,346.459 87.336,346.459C87.36,346.459 87.446,346.457 87.594,346.453C87.742,346.449 87.902,346.445 88.074,346.441C88.246,346.437 88.404,346.433 88.548,346.429C88.692,346.425 88.772,346.423 88.788,346.423C88.924,346.423 88.978,346.461 88.95,346.537C88.922,346.613 88.868,346.663 88.788,346.687C88.756,346.703 88.714,346.713 88.662,346.717C88.61,346.721 88.554,346.725 88.494,346.729C88.434,346.733 88.38,346.741 88.332,346.753C88.284,346.765 88.248,346.783 88.224,346.807C88.024,347.303 87.79,347.861 87.522,348.481C87.254,349.101 86.976,349.727 86.688,350.359C86.4,350.991 86.116,351.597 85.836,352.177C85.556,352.757 85.304,353.247 85.08,353.647C84.976,353.831 84.878,354.009 84.786,354.181C84.694,354.353 84.612,354.509 84.54,354.649C84.468,354.789 84.402,354.907 84.342,355.003C84.282,355.099 84.232,355.155 84.192,355.171C84.152,355.187 84.104,355.197 84.048,355.201C83.992,355.205 83.948,355.207 83.916,355.207C83.884,355.207 83.854,355.201 83.826,355.189C83.798,355.177 83.772,355.143 83.748,355.087C83.644,354.823 83.53,354.509 83.406,354.145C83.282,353.781 83.152,353.389 83.016,352.969C82.88,352.549 82.738,352.113 82.59,351.661C82.442,351.209 82.296,350.763 82.152,350.323Z" style="fill:rgb(5,5,5);fill-rule:nonzero;"/>
            <path d="M91.884,353.227C91.86,353.091 91.836,352.943 91.812,352.783C91.788,352.623 91.764,352.471 91.74,352.327C91.716,352.183 91.694,352.059 91.674,351.955C91.654,351.851 91.64,351.783 91.632,351.751C91.504,351.799 91.36,351.855 91.2,351.919C91.04,351.983 90.88,352.053 90.72,352.129C90.56,352.205 90.408,352.281 90.264,352.357C90.12,352.433 90,352.503 89.904,352.567C89.72,352.687 89.58,352.807 89.484,352.927C89.388,353.047 89.34,353.191 89.34,353.359C89.34,353.591 89.408,353.795 89.544,353.971C89.68,354.147 89.892,354.235 90.18,354.235C90.332,354.235 90.49,354.207 90.654,354.151C90.818,354.095 90.97,354.031 91.11,353.959C91.25,353.887 91.372,353.815 91.476,353.743C91.58,353.671 91.652,353.615 91.692,353.575C91.756,353.511 91.806,353.457 91.842,353.413C91.878,353.369 91.892,353.307 91.884,353.227ZM91.536,351.367C91.488,351.119 91.432,350.897 91.368,350.701C91.304,350.505 91.224,350.341 91.128,350.209C91.032,350.077 90.916,349.977 90.78,349.909C90.644,349.841 90.476,349.807 90.276,349.807C90.1,349.807 89.938,349.839 89.79,349.903C89.642,349.967 89.514,350.043 89.406,350.131C89.298,350.219 89.214,350.307 89.154,350.395C89.094,350.483 89.06,350.551 89.052,350.599C89.044,350.663 89.008,350.695 88.944,350.695C88.832,350.695 88.728,350.655 88.632,350.575C88.536,350.495 88.488,350.399 88.488,350.287C88.488,350.223 88.496,350.175 88.512,350.143C88.696,350.039 88.92,349.927 89.184,349.807C89.448,349.687 89.722,349.575 90.006,349.471C90.29,349.367 90.572,349.281 90.852,349.213C91.132,349.145 91.384,349.111 91.608,349.111C91.944,349.111 92.202,349.159 92.382,349.255C92.562,349.351 92.696,349.487 92.784,349.663C92.872,349.839 92.926,350.045 92.946,350.281C92.966,350.517 92.984,350.771 93,351.043C93.024,351.451 93.056,351.845 93.096,352.225C93.136,352.605 93.196,352.941 93.276,353.233C93.356,353.525 93.458,353.761 93.582,353.941C93.706,354.121 93.86,354.211 94.044,354.211C94.132,354.211 94.228,354.195 94.332,354.163C94.436,354.131 94.536,354.093 94.632,354.049C94.728,354.005 94.814,353.961 94.89,353.917C94.966,353.873 95.016,353.843 95.04,353.827C95.112,353.827 95.156,353.863 95.172,353.935C95.172,353.975 95.164,354.011 95.148,354.043C95.132,354.059 95.072,354.099 94.968,354.163C94.864,354.227 94.736,354.303 94.584,354.391C94.432,354.479 94.264,354.573 94.08,354.673C93.896,354.773 93.714,354.867 93.534,354.955C93.354,355.043 93.188,355.115 93.036,355.171C92.884,355.227 92.764,355.255 92.676,355.255C92.572,355.255 92.482,355.213 92.406,355.129C92.33,355.045 92.264,354.933 92.208,354.793C92.152,354.653 92.104,354.491 92.064,354.307C92.024,354.123 91.988,353.931 91.956,353.731C91.812,353.851 91.628,353.993 91.404,354.157C91.18,354.321 90.936,354.475 90.672,354.619C90.408,354.763 90.138,354.885 89.862,354.985C89.586,355.085 89.32,355.135 89.064,355.135C88.848,355.135 88.66,355.101 88.5,355.033C88.34,354.965 88.206,354.875 88.098,354.763C87.99,354.651 87.91,354.521 87.858,354.373C87.806,354.225 87.78,354.071 87.78,353.911C87.78,353.655 87.858,353.445 88.014,353.281C88.17,353.117 88.412,352.947 88.74,352.771C88.892,352.691 89.104,352.585 89.376,352.453C89.648,352.321 89.926,352.187 90.21,352.051C90.494,351.915 90.758,351.785 91.002,351.661C91.246,351.537 91.424,351.439 91.536,351.367Z" style="fill:rgb(5,5,5);fill-rule:nonzero;"/>
            <path d="M97.344,353.767C97.376,353.719 97.438,353.621 97.53,353.473C97.622,353.325 97.726,353.143 97.842,352.927C97.958,352.711 98.078,352.477 98.202,352.225C98.326,351.973 98.44,351.719 98.544,351.463C98.648,351.207 98.734,350.965 98.802,350.737C98.87,350.509 98.904,350.311 98.904,350.143C98.904,350.015 98.888,349.913 98.856,349.837C98.824,349.761 98.778,349.703 98.718,349.663C98.658,349.623 98.588,349.595 98.508,349.579C98.428,349.563 98.344,349.555 98.256,349.555C98.208,349.555 98.16,349.559 98.112,349.567C98.064,349.575 98.016,349.587 97.968,349.603C97.92,349.619 97.882,349.613 97.854,349.585C97.826,349.557 97.812,349.535 97.812,349.519C97.812,349.487 97.866,349.447 97.974,349.399C98.082,349.351 98.23,349.307 98.418,349.267C98.606,349.227 98.822,349.193 99.066,349.165C99.31,349.137 99.564,349.123 99.828,349.123C100.204,349.123 100.392,349.247 100.392,349.495C100.392,349.607 100.318,349.799 100.17,350.071C100.022,350.343 99.834,350.661 99.606,351.025C99.378,351.389 99.126,351.775 98.85,352.183C98.574,352.591 98.304,352.985 98.04,353.365C97.776,353.745 97.534,354.095 97.314,354.415C97.094,354.735 96.928,354.983 96.816,355.159C96.792,355.191 96.704,355.207 96.552,355.207C96.488,355.207 96.446,355.197 96.426,355.177C96.406,355.157 96.388,355.123 96.372,355.075C96.3,354.851 96.218,354.603 96.126,354.331C96.034,354.059 95.936,353.783 95.832,353.503C95.728,353.223 95.622,352.945 95.514,352.669C95.406,352.393 95.3,352.135 95.196,351.895C94.916,351.223 94.678,350.753 94.482,350.485C94.286,350.217 94.104,350.083 93.936,350.083C93.888,350.083 93.842,350.091 93.798,350.107C93.754,350.123 93.712,350.139 93.672,350.155C93.656,350.155 93.634,350.137 93.606,350.101C93.578,350.065 93.572,350.039 93.588,350.023C93.596,350.015 93.672,349.963 93.816,349.867C93.96,349.771 94.128,349.665 94.32,349.549C94.512,349.433 94.706,349.327 94.902,349.231C95.098,349.135 95.256,349.087 95.376,349.087C95.56,349.087 95.728,349.257 95.88,349.597C96.032,349.937 96.212,350.407 96.42,351.007L97.344,353.767Z" style="fill:rgb(5,5,5);fill-rule:nonzero;"/>
            <path d="M78.816,363.475C78.856,363.587 78.996,363.693 79.236,363.793C79.476,363.893 79.788,363.943 80.172,363.943C80.524,363.943 80.846,363.877 81.138,363.745C81.43,363.613 81.682,363.415 81.894,363.151C82.106,362.887 82.27,362.561 82.386,362.173C82.502,361.785 82.56,361.335 82.56,360.823C82.56,360.447 82.504,360.105 82.392,359.797C82.28,359.489 82.126,359.227 81.93,359.011C81.734,358.795 81.504,358.627 81.24,358.507C80.976,358.387 80.692,358.327 80.388,358.327C80.22,358.327 80.054,358.349 79.89,358.393C79.726,358.437 79.578,358.489 79.446,358.549C79.314,358.609 79.206,358.673 79.122,358.741C79.038,358.809 78.988,358.871 78.972,358.927C78.956,358.975 78.942,359.095 78.93,359.287C78.918,359.479 78.906,359.713 78.894,359.989C78.882,360.265 78.87,360.569 78.858,360.901C78.846,361.233 78.838,361.559 78.834,361.879C78.83,362.199 78.826,362.501 78.822,362.785C78.818,363.069 78.816,363.299 78.816,363.475ZM77.388,363.499C77.388,362.523 77.38,361.727 77.364,361.111C77.348,360.495 77.324,360.013 77.292,359.665C77.26,359.317 77.22,359.079 77.172,358.951C77.124,358.823 77.064,358.759 76.992,358.759C76.968,358.759 76.92,358.761 76.848,358.765C76.776,358.769 76.698,358.771 76.614,358.771C76.53,358.771 76.456,358.769 76.392,358.765C76.328,358.761 76.296,358.751 76.296,358.735L76.296,358.597C76.296,358.529 76.312,358.487 76.344,358.471C76.384,358.463 76.472,358.459 76.608,358.459C76.744,358.459 76.902,358.463 77.082,358.471C77.262,358.479 77.448,358.485 77.64,358.489C77.832,358.493 78.008,358.495 78.168,358.495L78.558,358.495C78.658,358.495 78.704,358.487 78.696,358.471C78.728,358.471 78.806,358.445 78.93,358.393C79.054,358.341 79.21,358.283 79.398,358.219C79.586,358.155 79.802,358.097 80.046,358.045C80.29,357.993 80.544,357.967 80.808,357.967C81.808,357.967 82.592,358.177 83.16,358.597C83.728,359.017 84.012,359.595 84.012,360.331C84.012,360.955 83.888,361.513 83.64,362.005C83.392,362.497 83.066,362.917 82.662,363.265C82.258,363.613 81.802,363.879 81.294,364.063C80.786,364.247 80.272,364.339 79.752,364.339C79.592,364.339 79.418,364.331 79.23,364.315C79.042,364.299 78.904,364.271 78.816,364.231L78.816,365.011C78.816,365.331 78.82,365.651 78.828,365.971C78.836,366.291 78.852,366.581 78.876,366.841C78.9,367.101 78.932,367.271 78.972,367.351C78.996,367.407 79.046,367.441 79.122,367.453C79.198,367.465 79.284,367.469 79.38,367.465C79.476,367.461 79.574,367.453 79.674,367.441C79.774,367.429 79.86,367.423 79.932,367.423C79.956,367.431 79.972,367.449 79.98,367.477C79.988,367.505 79.992,367.537 79.992,367.573C79.992,367.609 79.988,367.641 79.98,367.669C79.972,367.697 79.956,367.711 79.932,367.711C79.78,367.711 79.606,367.729 79.41,367.765C79.214,367.801 79.006,367.849 78.786,367.909C78.566,367.969 78.346,368.039 78.126,368.119C77.906,368.199 77.696,368.283 77.496,368.371C77.304,368.451 77.064,368.577 76.776,368.749C76.488,368.921 76.2,369.093 75.912,369.265C75.624,369.437 75.36,369.587 75.12,369.715C74.88,369.843 74.712,369.907 74.616,369.907C74.576,369.907 74.53,369.891 74.478,369.859C74.426,369.827 74.382,369.791 74.346,369.751C74.31,369.711 74.296,369.673 74.304,369.637C74.312,369.601 74.356,369.575 74.436,369.559C74.636,369.527 74.872,369.447 75.144,369.319C75.416,369.191 75.68,369.051 75.936,368.899C76.192,368.747 76.418,368.601 76.614,368.461C76.81,368.321 76.936,368.223 76.992,368.167C77.032,368.127 77.074,367.949 77.118,367.633C77.162,367.317 77.204,366.933 77.244,366.481C77.284,366.029 77.318,365.537 77.346,365.005C77.374,364.473 77.388,363.971 77.388,363.499Z" style="fill:rgb(5,5,5);fill-rule:nonzero;"/>
            <path d="M88.692,365.875C88.74,365.907 88.764,365.947 88.764,365.995C88.764,366.059 88.672,366.143 88.488,366.247C88.296,366.359 88.042,366.491 87.726,366.643C87.41,366.795 87.096,366.927 86.784,367.039C86.632,367.095 86.496,367.143 86.376,367.183C86.256,367.223 86.148,367.243 86.052,367.243C85.94,367.243 85.802,367.217 85.638,367.165C85.474,367.113 85.332,367.051 85.212,366.979C85.116,366.915 85.04,366.865 84.984,366.829C84.928,366.793 84.9,366.755 84.9,366.715C84.9,366.683 84.91,366.653 84.93,366.625C84.95,366.597 84.968,366.563 84.984,366.523C84.992,366.499 85,366.467 85.008,366.427C85.016,366.387 85.02,366.347 85.02,366.307C85.044,366.107 85.07,365.817 85.098,365.437C85.126,365.057 85.148,364.637 85.164,364.177C85.18,363.717 85.194,363.241 85.206,362.749C85.218,362.257 85.224,361.799 85.224,361.375C85.224,360.855 85.222,360.435 85.218,360.115C85.214,359.795 85.204,359.539 85.188,359.347C85.164,359.083 85.132,358.909 85.092,358.825C85.052,358.741 85.008,358.679 84.96,358.639C84.904,358.591 84.85,358.561 84.798,358.549C84.746,358.537 84.698,358.529 84.654,358.525C84.61,358.521 84.574,358.519 84.546,358.519C84.518,358.519 84.504,358.511 84.504,358.495C84.504,358.231 84.616,358.099 84.84,358.099C85.008,358.099 85.206,358.101 85.434,358.105C85.662,358.109 85.852,358.111 86.004,358.111C86.1,358.111 86.202,358.105 86.31,358.093C86.418,358.081 86.524,358.069 86.628,358.057C86.732,358.045 86.828,358.031 86.916,358.015C87.004,357.999 87.068,357.983 87.108,357.967C87.14,357.959 87.166,357.971 87.186,358.003C87.206,358.035 87.218,358.075 87.222,358.123C87.226,358.171 87.218,358.215 87.198,358.255C87.178,358.295 87.152,358.319 87.12,358.327C87.072,358.335 87.03,358.339 86.994,358.339C86.958,358.339 86.896,358.355 86.808,358.387C86.768,358.403 86.732,358.453 86.7,358.537C86.668,358.621 86.64,358.753 86.616,358.933C86.592,359.113 86.568,359.349 86.544,359.641C86.52,359.933 86.496,360.299 86.472,360.739C86.448,361.091 86.43,361.449 86.418,361.813C86.406,362.177 86.394,362.531 86.382,362.875C86.37,363.219 86.362,363.539 86.358,363.835C86.354,364.131 86.352,364.383 86.352,364.591C86.352,364.823 86.354,365.057 86.358,365.293C86.362,365.529 86.384,365.715 86.424,365.851C86.464,365.979 86.568,366.099 86.736,366.211C86.904,366.323 87.08,366.379 87.264,366.379C87.408,366.379 87.556,366.359 87.708,366.319C87.86,366.279 88,366.231 88.128,366.175C88.256,366.119 88.37,366.063 88.47,366.007C88.57,365.951 88.644,365.907 88.692,365.875Z" style="fill:rgb(5,5,5);fill-rule:nonzero;"/>
            <path d="M91.884,365.227C91.86,365.091 91.836,364.943 91.812,364.783C91.788,364.623 91.764,364.471 91.74,364.327C91.716,364.183 91.694,364.059 91.674,363.955C91.654,363.851 91.64,363.783 91.632,363.751C91.504,363.799 91.36,363.855 91.2,363.919C91.04,363.983 90.88,364.053 90.72,364.129C90.56,364.205 90.408,364.281 90.264,364.357C90.12,364.433 90,364.503 89.904,364.567C89.72,364.687 89.58,364.807 89.484,364.927C89.388,365.047 89.34,365.191 89.34,365.359C89.34,365.591 89.408,365.795 89.544,365.971C89.68,366.147 89.892,366.235 90.18,366.235C90.332,366.235 90.49,366.207 90.654,366.151C90.818,366.095 90.97,366.031 91.11,365.959C91.25,365.887 91.372,365.815 91.476,365.743C91.58,365.671 91.652,365.615 91.692,365.575C91.756,365.511 91.806,365.457 91.842,365.413C91.878,365.369 91.892,365.307 91.884,365.227ZM91.536,363.367C91.488,363.119 91.432,362.897 91.368,362.701C91.304,362.505 91.224,362.341 91.128,362.209C91.032,362.077 90.916,361.977 90.78,361.909C90.644,361.841 90.476,361.807 90.276,361.807C90.1,361.807 89.938,361.839 89.79,361.903C89.642,361.967 89.514,362.043 89.406,362.131C89.298,362.219 89.214,362.307 89.154,362.395C89.094,362.483 89.06,362.551 89.052,362.599C89.044,362.663 89.008,362.695 88.944,362.695C88.832,362.695 88.728,362.655 88.632,362.575C88.536,362.495 88.488,362.399 88.488,362.287C88.488,362.223 88.496,362.175 88.512,362.143C88.696,362.039 88.92,361.927 89.184,361.807C89.448,361.687 89.722,361.575 90.006,361.471C90.29,361.367 90.572,361.281 90.852,361.213C91.132,361.145 91.384,361.111 91.608,361.111C91.944,361.111 92.202,361.159 92.382,361.255C92.562,361.351 92.696,361.487 92.784,361.663C92.872,361.839 92.926,362.045 92.946,362.281C92.966,362.517 92.984,362.771 93,363.043C93.024,363.451 93.056,363.845 93.096,364.225C93.136,364.605 93.196,364.941 93.276,365.233C93.356,365.525 93.458,365.761 93.582,365.941C93.706,366.121 93.86,366.211 94.044,366.211C94.132,366.211 94.228,366.195 94.332,366.163C94.436,366.131 94.536,366.093 94.632,366.049C94.728,366.005 94.814,365.961 94.89,365.917C94.966,365.873 95.016,365.843 95.04,365.827C95.112,365.827 95.156,365.863 95.172,365.935C95.172,365.975 95.164,366.011 95.148,366.043C95.132,366.059 95.072,366.099 94.968,366.163C94.864,366.227 94.736,366.303 94.584,366.391C94.432,366.479 94.264,366.573 94.08,366.673C93.896,366.773 93.714,366.867 93.534,366.955C93.354,367.043 93.188,367.115 93.036,367.171C92.884,367.227 92.764,367.255 92.676,367.255C92.572,367.255 92.482,367.213 92.406,367.129C92.33,367.045 92.264,366.933 92.208,366.793C92.152,366.653 92.104,366.491 92.064,366.307C92.024,366.123 91.988,365.931 91.956,365.731C91.812,365.851 91.628,365.993 91.404,366.157C91.18,366.321 90.936,366.475 90.672,366.619C90.408,366.763 90.138,366.885 89.862,366.985C89.586,367.085 89.32,367.135 89.064,367.135C88.848,367.135 88.66,367.101 88.5,367.033C88.34,366.965 88.206,366.875 88.098,366.763C87.99,366.651 87.91,366.521 87.858,366.373C87.806,366.225 87.78,366.071 87.78,365.911C87.78,365.655 87.858,365.445 88.014,365.281C88.17,365.117 88.412,364.947 88.74,364.771C88.892,364.691 89.104,364.585 89.376,364.453C89.648,364.321 89.926,364.187 90.21,364.051C90.494,363.915 90.758,363.785 91.002,363.661C91.246,363.537 91.424,363.439 91.536,363.367Z" style="fill:rgb(5,5,5);fill-rule:nonzero;"/>
            <path d="M94.212,370.663C94.284,370.583 94.392,370.451 94.536,370.267C94.68,370.083 94.838,369.875 95.01,369.643C95.182,369.411 95.358,369.163 95.538,368.899C95.718,368.635 95.888,368.385 96.048,368.149C96.208,367.913 96.346,367.697 96.462,367.501C96.578,367.305 96.652,367.159 96.684,367.063C96.556,366.727 96.42,366.371 96.276,365.995C96.132,365.619 95.982,365.247 95.826,364.879C95.67,364.511 95.514,364.159 95.358,363.823C95.202,363.487 95.048,363.193 94.896,362.941C94.744,362.689 94.598,362.487 94.458,362.335C94.318,362.183 94.192,362.107 94.08,362.107C94.048,362.107 94.012,362.117 93.972,362.137C93.932,362.157 93.896,362.175 93.864,362.191C93.84,362.207 93.812,362.187 93.78,362.131C93.748,362.075 93.748,362.039 93.78,362.023C93.812,361.999 93.906,361.939 94.062,361.843C94.218,361.747 94.392,361.645 94.584,361.537C94.776,361.429 94.962,361.331 95.142,361.243C95.322,361.155 95.452,361.111 95.532,361.111C95.612,361.111 95.706,361.183 95.814,361.327C95.922,361.471 96.034,361.665 96.15,361.909C96.266,362.153 96.388,362.431 96.516,362.743C96.644,363.055 96.772,363.381 96.9,363.721C97.028,364.061 97.154,364.403 97.278,364.747C97.402,365.091 97.52,365.411 97.632,365.707C97.736,365.547 97.87,365.319 98.034,365.023C98.198,364.727 98.356,364.411 98.508,364.075C98.66,363.739 98.79,363.407 98.898,363.079C99.006,362.751 99.06,362.475 99.06,362.251C99.06,362.019 99.004,361.853 98.892,361.753C98.78,361.653 98.656,361.603 98.52,361.603C98.416,361.603 98.334,361.605 98.274,361.609C98.214,361.613 98.148,361.623 98.076,361.639C98.06,361.639 98.036,361.629 98.004,361.609C97.972,361.589 97.956,361.559 97.956,361.519C97.956,361.479 98.044,361.435 98.22,361.387C98.396,361.339 98.6,361.295 98.832,361.255C99.064,361.215 99.292,361.181 99.516,361.153C99.74,361.125 99.896,361.111 99.984,361.111C100.168,361.111 100.304,361.147 100.392,361.219C100.48,361.291 100.524,361.375 100.524,361.471C100.476,361.663 100.374,361.913 100.218,362.221C100.062,362.529 99.876,362.865 99.66,363.229C99.444,363.593 99.214,363.969 98.97,364.357C98.726,364.745 98.492,365.111 98.268,365.455C98.044,365.799 97.842,366.107 97.662,366.379C97.482,366.651 97.352,366.851 97.272,366.979C97.112,367.227 96.96,367.485 96.816,367.753C96.672,368.021 96.54,368.289 96.42,368.557C96.3,368.825 96.194,369.081 96.102,369.325C96.01,369.569 95.944,369.791 95.904,369.991C95.88,370.111 95.902,370.189 95.97,370.225C96.038,370.261 96.126,370.269 96.234,370.249C96.342,370.229 96.46,370.191 96.588,370.135C96.716,370.079 96.824,370.015 96.912,369.943C96.952,369.911 96.978,369.905 96.99,369.925C97.002,369.945 97.008,369.975 97.008,370.015C97.008,370.055 97,370.097 96.984,370.141C96.968,370.185 96.948,370.215 96.924,370.231C96.916,370.231 96.824,370.267 96.648,370.339C96.472,370.411 96.26,370.489 96.012,370.573C95.764,370.657 95.502,370.735 95.226,370.807C94.95,370.879 94.708,370.915 94.5,370.915C94.3,370.915 94.2,370.851 94.2,370.723C94.2,370.707 94.202,370.695 94.206,370.687C94.21,370.679 94.212,370.671 94.212,370.663Z" style="fill:rgb(5,5,5);fill-rule:nonzero;"/>
            <path d="M106.224,365.695C106.136,365.791 106,365.923 105.816,366.091C105.632,366.259 105.41,366.427 105.15,366.595C104.89,366.763 104.6,366.907 104.28,367.027C103.96,367.147 103.62,367.207 103.26,367.207C102.932,367.207 102.612,367.157 102.3,367.057C101.988,366.957 101.708,366.805 101.46,366.601C101.212,366.397 101.014,366.137 100.866,365.821C100.718,365.505 100.644,365.127 100.644,364.687C100.644,364.327 100.668,364.017 100.716,363.757C100.764,363.497 100.828,363.269 100.908,363.073C100.988,362.877 101.078,362.709 101.178,362.569C101.278,362.429 101.38,362.303 101.484,362.191C101.612,362.047 101.768,361.911 101.952,361.783C102.136,361.655 102.334,361.539 102.546,361.435C102.758,361.331 102.982,361.249 103.218,361.189C103.454,361.129 103.692,361.099 103.932,361.099C104.364,361.099 104.702,361.171 104.946,361.315C105.19,361.459 105.312,361.659 105.312,361.915C105.312,362.075 105.264,362.223 105.168,362.359C105.248,362.335 105.35,362.295 105.474,362.239C105.598,362.183 105.724,362.125 105.852,362.065C105.98,362.005 106.094,361.951 106.194,361.903C106.294,361.855 106.36,361.819 106.392,361.795C106.408,361.779 106.426,361.773 106.446,361.777C106.466,361.781 106.476,361.795 106.476,361.819C106.476,361.923 106.456,362.009 106.416,362.077C106.376,362.145 106.328,362.199 106.272,362.239C106.144,362.319 105.96,362.419 105.72,362.539C105.48,362.659 105.214,362.785 104.922,362.917C104.63,363.049 104.328,363.181 104.016,363.313C103.704,363.445 103.41,363.571 103.134,363.691C102.858,363.811 102.618,363.917 102.414,364.009C102.21,364.101 102.072,364.167 102,364.207C102,364.479 102.054,364.733 102.162,364.969C102.27,365.205 102.42,365.411 102.612,365.587C102.804,365.763 103.034,365.901 103.302,366.001C103.57,366.101 103.864,366.151 104.184,366.151C104.472,366.151 104.732,366.121 104.964,366.061C105.196,366.001 105.392,365.933 105.552,365.857C105.712,365.781 105.838,365.713 105.93,365.653C106.022,365.593 106.072,365.563 106.08,365.563C106.112,365.563 106.144,365.577 106.176,365.605C106.208,365.633 106.224,365.663 106.224,365.695ZM102,363.859C102.136,363.811 102.29,363.753 102.462,363.685C102.634,363.617 102.802,363.543 102.966,363.463C103.13,363.383 103.28,363.307 103.416,363.235C103.552,363.163 103.656,363.099 103.728,363.043C103.872,362.939 103.944,362.763 103.944,362.515C103.944,362.419 103.926,362.319 103.89,362.215C103.854,362.111 103.8,362.017 103.728,361.933C103.656,361.849 103.568,361.781 103.464,361.729C103.36,361.677 103.244,361.651 103.116,361.651C103.004,361.651 102.884,361.689 102.756,361.765C102.628,361.841 102.508,361.965 102.396,362.137C102.284,362.309 102.19,362.537 102.114,362.821C102.038,363.105 102,363.451 102,363.859Z" style="fill:rgb(5,5,5);fill-rule:nonzero;"/>
            <path d="M111.792,361.999C111.704,362.071 111.6,362.161 111.48,362.269C111.36,362.377 111.234,362.481 111.102,362.581C110.97,362.681 110.836,362.767 110.7,362.839C110.564,362.911 110.432,362.947 110.304,362.947C110.192,362.947 110.092,362.921 110.004,362.869C109.916,362.817 109.834,362.761 109.758,362.701C109.682,362.641 109.608,362.585 109.536,362.533C109.464,362.481 109.388,362.455 109.308,362.455C109.092,362.455 108.91,362.543 108.762,362.719C108.614,362.895 108.494,363.119 108.402,363.391C108.31,363.663 108.242,363.959 108.198,364.279C108.154,364.599 108.132,364.907 108.132,365.203C108.132,365.451 108.142,365.653 108.162,365.809C108.182,365.965 108.212,366.089 108.252,366.181C108.292,366.273 108.346,366.335 108.414,366.367C108.482,366.399 108.564,366.415 108.66,366.415C108.764,366.415 108.876,366.399 108.996,366.367C109.02,366.359 109.038,366.375 109.05,366.415C109.062,366.455 109.068,366.487 109.068,366.511C109.068,366.527 109.056,366.545 109.032,366.565C109.008,366.585 108.992,366.595 108.984,366.595C108.808,366.667 108.628,366.745 108.444,366.829C108.26,366.913 108.108,366.983 107.988,367.039C107.876,367.087 107.742,367.139 107.586,367.195C107.43,367.251 107.296,367.279 107.184,367.279C107.056,367.279 106.95,367.259 106.866,367.219C106.782,367.179 106.74,367.139 106.74,367.099C106.74,367.059 106.75,367.023 106.77,366.991C106.79,366.959 106.808,366.899 106.824,366.811C106.84,366.691 106.858,366.549 106.878,366.385C106.898,366.221 106.918,366.043 106.938,365.851C106.958,365.659 106.974,365.461 106.986,365.257C106.998,365.053 107.004,364.851 107.004,364.651C107.004,364.203 106.99,363.823 106.962,363.511C106.934,363.199 106.884,362.947 106.812,362.755C106.74,362.563 106.642,362.425 106.518,362.341C106.394,362.257 106.236,362.215 106.044,362.215L105.936,362.215C105.904,362.215 105.872,362.219 105.84,362.227C105.792,362.227 105.768,362.203 105.768,362.155C105.768,362.107 105.792,362.071 105.84,362.047C105.928,361.991 106.064,361.909 106.248,361.801C106.432,361.693 106.622,361.589 106.818,361.489C107.014,361.389 107.204,361.299 107.388,361.219C107.572,361.139 107.708,361.099 107.796,361.099C107.9,361.099 107.988,361.133 108.06,361.201C108.132,361.269 108.186,361.355 108.222,361.459C108.258,361.563 108.284,361.681 108.3,361.813C108.316,361.945 108.324,362.075 108.324,362.203C108.324,362.299 108.322,362.399 108.318,362.503C108.314,362.607 108.312,362.719 108.312,362.839C108.672,362.311 108.996,361.901 109.284,361.609C109.572,361.317 109.844,361.171 110.1,361.171C110.196,361.171 110.29,361.211 110.382,361.291C110.474,361.371 110.572,361.461 110.676,361.561C110.78,361.661 110.888,361.751 111,361.831C111.112,361.911 111.228,361.951 111.348,361.951C111.452,361.951 111.528,361.939 111.576,361.915C111.624,361.891 111.664,361.871 111.696,361.855C111.76,361.855 111.792,361.899 111.792,361.987L111.792,361.999Z" style="fill:rgb(5,5,5);fill-rule:nonzero;"/>
        </g>
        <g transform="matrix(1,0,0,1,-65.8219,-49.2888)">
            <text x="76.188px" y="355.099px" style="font-family:'Luminari-Regular', 'Luminari';font-size:12px;fill:rgb(5,5,5);">W<tspan x="87.576px 93.924px " y="355.099px 355.099px ">av</tspan></text>
            <text x="76.188px" y="367.099px" style="font-family:'Luminari-Regular', 'Luminari';font-size:12px;fill:rgb(5,5,5);">Pla<tspan x="93.876px 100.296px " y="367.099px 367.099px ">ye</tspan>r</text>
        </g>
        <g transform="matrix(0.0219124,0,0,0.0248558,-16.7787,295.937)">
            <g transform="matrix(1,0,0,1,-143.343,98.6554)">
                <ellipse cx="360.896" cy="293.762" rx="136.961" ry="230.443" style="fill:rgb(102,126,153);stroke:black;stroke-width:63.81px;"/>
            </g>
            <g transform="matrix(1,0,0,1,445.551,98.6554)">
                <ellipse cx="360.896" cy="293.762" rx="136.961" ry="230.443" style="fill:rgb(102,126,153);stroke:black;stroke-width:63.81px;"/>
            </g>
            <g transform="matrix(1,0,0,1,-34.3236,-20.6488)">
                <ellipse cx="546.324" cy="643.509" rx="431.408" ry="296.899" style="fill:rgb(102,126,153);stroke:black;stroke-width:63.81px;"/>
            </g>
            <circle cx="406.664" cy="569.758" r="105.336" style="fill:rgb(102,126,153);stroke:black;stroke-width:63.81px;"/>
            <g transform="matrix(1,0,0,1,210.672,0)">
                <circle cx="406.664" cy="569.758" r="105.336" style="fill:rgb(102,126,153);stroke:black;stroke-width:63.81px;"/>
            </g>
            <g transform="matrix(1,0,0,1,-53.1856,50.0357)">
                <ellipse cx="565.186" cy="671.455" rx="210.672" ry="98.631" style="fill:rgb(102,126,153);stroke:black;stroke-width:63.81px;"/>
            </g>
            <g transform="matrix(51.2,0,0,45.1371,0.670978,88.9676)">
                <path d="M12.057,13.791C12.057,13.668 11.958,13.568 11.835,13.568L8.139,13.568C8.016,13.568 7.916,13.668 7.916,13.791L7.916,14.236C7.916,14.359 8.016,14.458 8.139,14.458L11.835,14.458C11.958,14.458 12.057,14.359 12.057,14.236L12.057,13.791Z"/>
            </g>
        </g>
    </g>
</svg>
