<?xml version="1.0" encoding="UTF-8" standalone="no"?>
<!DOCTYPE svg PUBLIC "-//W3C//DTD SVG 1.1//EN" "http://www.w3.org/Graphics/SVG/1.1/DTD/svg11.dtd">
<svg width="100%" height="100%" viewBox="0 0 150 380" version="1.1" xmlns="http://www.w3.org/2000/svg" xmlns:xlink="http://www.w3.org/1999/xlink" xml:space="preserve" xmlns:serif="http://www.serif.com/" style="fill-rule:evenodd;clip-rule:evenodd;stroke-linecap:round;stroke-linejoin:round;stroke-miterlimit:1.5;">
    <g transform="matrix(0.720851,0,0,2.01589,-37.8852,-120.797)">
        <rect x="52.556" y="59.922" width="208.087" height="188.503" style="fill:rgb(154,178,191);stroke:rgb(5,5,5);stroke-width:1.32px;"/>
    </g>
    <g transform="matrix(1,0,0,1,-27.7548,174.826)">
        <g id="Out-output-P" serif:id="Out#output$P" transform="matrix(0.175002,0,0,0.175002,55.2287,148.117)">
            <rect x="53.94" y="106.916" width="161.978" height="161.978" style="fill:rgb(77,77,77);"/>
        </g>
        <g transform="matrix(1,0,0,1,-51.773,66.2248)">
            <path d="M89.528,114.936C89.528,114.73 89.541,114.54 89.568,114.366C89.595,114.193 89.645,114.04 89.718,113.906C89.838,113.686 90.01,113.51 90.233,113.376C90.456,113.243 90.728,113.176 91.048,113.176C91.368,113.176 91.64,113.243 91.863,113.376C92.086,113.51 92.258,113.686 92.378,113.906C92.451,114.04 92.501,114.193 92.528,114.366C92.555,114.54 92.568,114.73 92.568,114.936L92.568,116.606C92.568,116.813 92.555,117.003 92.528,117.176C92.501,117.35 92.451,117.503 92.378,117.636C92.258,117.856 92.086,118.033 91.863,118.166C91.64,118.3 91.368,118.366 91.048,118.366C90.728,118.366 90.456,118.3 90.233,118.166C90.01,118.033 89.838,117.856 89.718,117.636C89.645,117.503 89.595,117.35 89.568,117.176C89.541,117.003 89.528,116.813 89.528,116.606L89.528,114.936ZM90.548,116.766C90.548,116.96 90.593,117.105 90.683,117.201C90.773,117.298 90.895,117.346 91.048,117.346C91.201,117.346 91.323,117.298 91.413,117.201C91.503,117.105 91.548,116.96 91.548,116.766L91.548,114.776C91.548,114.583 91.503,114.438 91.413,114.341C91.323,114.245 91.201,114.196 91.048,114.196C90.895,114.196 90.773,114.245 90.683,114.341C90.593,114.438 90.548,114.583 90.548,114.776L90.548,116.766Z" style="fill:rgb(5,5,5);fill-rule:nonzero;"/>
            <path d="M96.368,113.236L96.368,118.306L95.348,118.306L95.348,117.816L95.328,117.816C95.221,117.976 95.093,118.108 94.943,118.211C94.793,118.315 94.601,118.366 94.368,118.366C94.241,118.366 94.115,118.345 93.988,118.301C93.861,118.258 93.748,118.186 93.648,118.086C93.548,117.986 93.468,117.858 93.408,117.701C93.348,117.545 93.318,117.353 93.318,117.126L93.318,113.236L94.338,113.236L94.338,116.746C94.338,116.933 94.381,117.08 94.468,117.186C94.555,117.293 94.678,117.346 94.838,117.346C95.031,117.346 95.165,117.286 95.238,117.166C95.311,117.046 95.348,116.873 95.348,116.646L95.348,113.236L96.368,113.236Z" style="fill:rgb(5,5,5);fill-rule:nonzero;"/>
            <path d="M97.208,113.236L97.208,111.696L98.228,111.696L98.228,113.236L98.858,113.236L98.858,114.036L98.228,114.036L98.228,116.846C98.228,116.966 98.24,117.06 98.263,117.126C98.286,117.193 98.325,117.243 98.378,117.276C98.431,117.31 98.496,117.33 98.573,117.336C98.65,117.343 98.745,117.346 98.858,117.346L98.858,118.306L98.438,118.306C98.205,118.306 98.01,118.27 97.853,118.196C97.696,118.123 97.571,118.03 97.478,117.916C97.385,117.803 97.316,117.675 97.273,117.531C97.23,117.388 97.208,117.25 97.208,117.116L97.208,114.036L96.698,114.036L96.698,113.236L97.208,113.236Z" style="fill:rgb(5,5,5);fill-rule:nonzero;"/>
        </g>
        <g transform="matrix(1,0,0,1,-51.773,66.2248)">
            <text x="89.198px" y="118.306px" style="font-family:'DINCondensed-Bold', 'DIN Condensed';font-weight:700;font-stretch:condensed;font-size:10px;fill:rgb(5,5,5);">out</text>
        </g>
    </g>
    <g transform="matrix(1,0,0,1,-27.7548,137.304)">
        <g id="In-input-P" serif:id="In#input$P" transform="matrix(0.175002,0,0,0.175002,55.2287,148.117)">
            <rect x="53.94" y="106.916" width="161.978" height="161.978" style="fill:rgb(217,217,217);"/>
        </g>
        <g transform="matrix(1,0,0,1,-51.773,66.2248)">
            <path d="M89.618,118.306L89.618,113.236L90.638,113.236L90.638,118.306L89.618,118.306ZM89.618,112.206L89.618,111.186L90.638,111.186L90.638,112.206L89.618,112.206Z" style="fill:rgb(5,5,5);fill-rule:nonzero;"/>
            <path d="M91.478,118.306L91.478,113.236L92.498,113.236L92.498,113.726L92.518,113.726C92.625,113.566 92.753,113.435 92.903,113.331C93.053,113.228 93.245,113.176 93.478,113.176C93.605,113.176 93.731,113.198 93.858,113.241C93.985,113.285 94.098,113.356 94.198,113.456C94.298,113.556 94.378,113.685 94.438,113.841C94.498,113.998 94.528,114.19 94.528,114.416L94.528,118.306L93.508,118.306L93.508,114.796C93.508,114.61 93.465,114.463 93.378,114.356C93.291,114.25 93.168,114.196 93.008,114.196C92.815,114.196 92.681,114.256 92.608,114.376C92.535,114.496 92.498,114.67 92.498,114.896L92.498,118.306L91.478,118.306Z" style="fill:rgb(5,5,5);fill-rule:nonzero;"/>
        </g>
        <g transform="matrix(1,0,0,1,-51.773,66.2248)">
            <text x="89.198px" y="118.306px" style="font-family:'DINCondensed-Bold', 'DIN Condensed';font-weight:700;font-stretch:condensed;font-size:10px;fill:rgb(5,5,5);">in</text>
        </g>
    </g>
    <g transform="matrix(1,0,0,1,9.8654,15.2853)">
        <g id="Mode-slider" serif:id="Mode#slider" transform="matrix(0.0833124,0,0,3.87469,61.5841,-433.857)">
            <rect x="92.975" y="182.872" width="144.036" height="20.647" style="fill:rgb(217,217,217);"/>
        </g>
        <g transform="matrix(1,0,0,1,24.0567,199.938)">
            <path d="M89.618,118.306L89.618,113.236L90.638,113.236L90.638,113.726L90.658,113.726C90.765,113.566 90.893,113.435 91.043,113.331C91.193,113.228 91.385,113.176 91.618,113.176C91.838,113.176 92.021,113.23 92.168,113.336C92.315,113.443 92.435,113.56 92.528,113.686C92.655,113.546 92.795,113.426 92.948,113.326C93.101,113.226 93.315,113.176 93.588,113.176C93.715,113.176 93.845,113.198 93.978,113.241C94.111,113.285 94.231,113.356 94.338,113.456C94.445,113.556 94.531,113.685 94.598,113.841C94.665,113.998 94.698,114.19 94.698,114.416L94.698,118.306L93.678,118.306L93.678,114.796C93.678,114.61 93.635,114.463 93.548,114.356C93.461,114.25 93.338,114.196 93.178,114.196C92.985,114.196 92.851,114.256 92.778,114.376C92.705,114.496 92.668,114.67 92.668,114.896L92.668,118.306L91.648,118.306L91.648,114.796C91.648,114.61 91.605,114.463 91.518,114.356C91.431,114.25 91.308,114.196 91.148,114.196C90.955,114.196 90.821,114.256 90.748,114.376C90.675,114.496 90.638,114.67 90.638,114.896L90.638,118.306L89.618,118.306Z" style="fill:rgb(5,5,5);fill-rule:nonzero;"/>
            <path d="M95.448,114.936C95.448,114.73 95.461,114.54 95.488,114.366C95.515,114.193 95.565,114.04 95.638,113.906C95.758,113.686 95.93,113.51 96.153,113.376C96.376,113.243 96.648,113.176 96.968,113.176C97.288,113.176 97.56,113.243 97.783,113.376C98.006,113.51 98.178,113.686 98.298,113.906C98.371,114.04 98.421,114.193 98.448,114.366C98.475,114.54 98.488,114.73 98.488,114.936L98.488,116.606C98.488,116.813 98.475,117.003 98.448,117.176C98.421,117.35 98.371,117.503 98.298,117.636C98.178,117.856 98.006,118.033 97.783,118.166C97.56,118.3 97.288,118.366 96.968,118.366C96.648,118.366 96.376,118.3 96.153,118.166C95.93,118.033 95.758,117.856 95.638,117.636C95.565,117.503 95.515,117.35 95.488,117.176C95.461,117.003 95.448,116.813 95.448,116.606L95.448,114.936ZM96.468,116.766C96.468,116.96 96.513,117.105 96.603,117.201C96.693,117.298 96.815,117.346 96.968,117.346C97.121,117.346 97.243,117.298 97.333,117.201C97.423,117.105 97.468,116.96 97.468,116.766L97.468,114.776C97.468,114.583 97.423,114.438 97.333,114.341C97.243,114.245 97.121,114.196 96.968,114.196C96.815,114.196 96.693,114.245 96.603,114.341C96.513,114.438 96.468,114.583 96.468,114.776L96.468,116.766Z" style="fill:rgb(5,5,5);fill-rule:nonzero;"/>
            <path d="M100.258,116.656C100.258,116.863 100.298,117.03 100.378,117.156C100.458,117.283 100.585,117.346 100.758,117.346C100.911,117.346 101.035,117.288 101.128,117.171C101.221,117.055 101.268,116.903 101.268,116.716L101.268,114.746C101.268,114.586 101.22,114.455 101.123,114.351C101.026,114.248 100.905,114.196 100.758,114.196C100.565,114.196 100.433,114.256 100.363,114.376C100.293,114.496 100.258,114.636 100.258,114.796L100.258,116.656ZM101.268,118.306L101.268,117.846C101.201,117.92 101.138,117.988 101.078,118.051C101.018,118.115 100.951,118.17 100.878,118.216C100.805,118.263 100.721,118.3 100.628,118.326C100.535,118.353 100.425,118.366 100.298,118.366C99.871,118.366 99.575,118.206 99.408,117.886C99.348,117.773 99.305,117.633 99.278,117.466C99.251,117.3 99.238,117.076 99.238,116.796L99.238,114.866C99.238,114.5 99.248,114.23 99.268,114.056C99.308,113.723 99.465,113.473 99.738,113.306C99.865,113.22 100.055,113.176 100.308,113.176C100.508,113.176 100.686,113.221 100.843,113.311C101,113.401 101.135,113.53 101.248,113.696L101.268,113.696L101.268,111.186L102.288,111.186L102.288,118.306L101.268,118.306Z" style="fill:rgb(5,5,5);fill-rule:nonzero;"/>
            <path d="M106.078,116.156L104.058,116.156L104.058,116.846C104.058,117.006 104.103,117.13 104.193,117.216C104.283,117.303 104.405,117.346 104.558,117.346C104.751,117.346 104.88,117.29 104.943,117.176C105.006,117.063 105.045,116.95 105.058,116.836L106.078,116.836C106.078,117.283 105.941,117.643 105.668,117.916C105.535,118.056 105.375,118.166 105.188,118.246C105.001,118.326 104.791,118.366 104.558,118.366C104.238,118.366 103.966,118.3 103.743,118.166C103.52,118.033 103.348,117.856 103.228,117.636C103.155,117.503 103.105,117.35 103.078,117.176C103.051,117.003 103.038,116.813 103.038,116.606L103.038,114.936C103.038,114.73 103.051,114.54 103.078,114.366C103.105,114.193 103.155,114.04 103.228,113.906C103.348,113.686 103.52,113.51 103.743,113.376C103.966,113.243 104.238,113.176 104.558,113.176C104.791,113.176 105.003,113.216 105.193,113.296C105.383,113.376 105.545,113.486 105.678,113.626C105.945,113.926 106.078,114.303 106.078,114.756L106.078,116.156ZM104.058,115.356L105.058,115.356L105.058,114.776C105.058,114.583 105.013,114.438 104.923,114.341C104.833,114.245 104.711,114.196 104.558,114.196C104.405,114.196 104.283,114.245 104.193,114.341C104.103,114.438 104.058,114.583 104.058,114.776L104.058,115.356Z" style="fill:rgb(5,5,5);fill-rule:nonzero;"/>
        </g>
        <g transform="matrix(1,0,0,1,24.0567,199.938)">
            <text x="89.198px" y="118.306px" style="font-family:'DINCondensed-Bold', 'DIN Condensed';font-weight:700;font-stretch:condensed;font-size:10px;fill:rgb(5,5,5);">mode</text>
        </g>
    </g>
    <g transform="matrix(1,0,0,1,-27.7548,83.3351)">
        <g transform="matrix(1.07645,0,0,1,22.4514,-83.3351)">
            <rect x="9.2" y="190" width="130.8" height="96.736" style="fill:rgb(179,179,179);"/>
        </g>
        <g id="Quantize-ledbutton" serif:id="Quantize#ledbutton" transform="matrix(1,0,0,1,11.5405,-129.665)">
            <circle cx="101.308" cy="310.24" r="9.898" style="fill:rgb(115,115,115);"/>
        </g>
        <g transform="matrix(1,0,0,1,49.027,64.8031)">
            <path d="M91.648,120.356L91.648,117.846L91.628,117.846C91.515,118.013 91.38,118.141 91.223,118.231C91.066,118.321 90.888,118.366 90.688,118.366C90.441,118.366 90.25,118.323 90.113,118.236C89.976,118.15 89.865,118.04 89.778,117.906C89.711,117.8 89.668,117.66 89.648,117.486C89.628,117.32 89.618,117.05 89.618,116.676L89.618,114.746C89.618,114.466 89.631,114.243 89.658,114.076C89.685,113.91 89.728,113.77 89.788,113.656C89.955,113.336 90.251,113.176 90.678,113.176C90.805,113.176 90.915,113.19 91.008,113.216C91.101,113.243 91.185,113.28 91.258,113.326C91.331,113.373 91.398,113.428 91.458,113.491C91.518,113.555 91.581,113.623 91.648,113.696L91.648,113.236L92.668,113.236L92.668,120.356L91.648,120.356ZM90.638,116.746C90.638,116.906 90.673,117.046 90.743,117.166C90.813,117.286 90.945,117.346 91.138,117.346C91.285,117.346 91.406,117.295 91.503,117.191C91.6,117.088 91.648,116.956 91.648,116.796L91.648,114.826C91.648,114.64 91.601,114.488 91.508,114.371C91.415,114.255 91.291,114.196 91.138,114.196C90.965,114.196 90.838,114.26 90.758,114.386C90.678,114.513 90.638,114.68 90.638,114.886L90.638,116.746Z" style="fill:rgb(5,5,5);fill-rule:nonzero;"/>
            <path d="M96.558,113.236L96.558,118.306L95.538,118.306L95.538,117.816L95.518,117.816C95.411,117.976 95.283,118.108 95.133,118.211C94.983,118.315 94.791,118.366 94.558,118.366C94.431,118.366 94.305,118.345 94.178,118.301C94.051,118.258 93.938,118.186 93.838,118.086C93.738,117.986 93.658,117.858 93.598,117.701C93.538,117.545 93.508,117.353 93.508,117.126L93.508,113.236L94.528,113.236L94.528,116.746C94.528,116.933 94.571,117.08 94.658,117.186C94.745,117.293 94.868,117.346 95.028,117.346C95.221,117.346 95.355,117.286 95.428,117.166C95.501,117.046 95.538,116.873 95.538,116.646L95.538,113.236L96.558,113.236Z" style="fill:rgb(5,5,5);fill-rule:nonzero;"/>
            <path d="M99.328,118.306L99.328,117.786L99.308,117.786C99.175,117.973 99.04,118.116 98.903,118.216C98.766,118.316 98.575,118.366 98.328,118.366C98.208,118.366 98.086,118.348 97.963,118.311C97.84,118.275 97.721,118.206 97.608,118.106C97.495,118.013 97.403,117.878 97.333,117.701C97.263,117.525 97.228,117.296 97.228,117.016C97.228,116.73 97.251,116.478 97.298,116.261C97.345,116.045 97.431,115.863 97.558,115.716C97.678,115.576 97.841,115.471 98.048,115.401C98.255,115.331 98.518,115.296 98.838,115.296L98.948,115.296C98.988,115.296 99.025,115.3 99.058,115.306C99.091,115.313 99.131,115.316 99.178,115.316C99.225,115.316 99.275,115.32 99.328,115.326L99.328,114.796C99.328,114.623 99.291,114.48 99.218,114.366C99.145,114.253 99.011,114.196 98.818,114.196C98.685,114.196 98.563,114.24 98.453,114.326C98.343,114.413 98.271,114.54 98.238,114.706L97.248,114.706C97.275,114.253 97.428,113.886 97.708,113.606C97.841,113.473 98.001,113.368 98.188,113.291C98.375,113.215 98.585,113.176 98.818,113.176C99.031,113.176 99.231,113.21 99.418,113.276C99.605,113.343 99.768,113.443 99.908,113.576C100.041,113.71 100.148,113.876 100.228,114.076C100.308,114.276 100.348,114.51 100.348,114.776L100.348,118.306L99.328,118.306ZM99.328,116.126C99.215,116.106 99.121,116.096 99.048,116.096C98.828,116.096 98.64,116.148 98.483,116.251C98.326,116.355 98.248,116.543 98.248,116.816C98.248,117.01 98.295,117.166 98.388,117.286C98.481,117.406 98.611,117.466 98.778,117.466C98.951,117.466 99.086,117.41 99.183,117.296C99.28,117.183 99.328,117.023 99.328,116.816L99.328,116.126Z" style="fill:rgb(5,5,5);fill-rule:nonzero;"/>
            <path d="M101.098,118.306L101.098,113.236L102.118,113.236L102.118,113.726L102.138,113.726C102.245,113.566 102.373,113.435 102.523,113.331C102.673,113.228 102.865,113.176 103.098,113.176C103.225,113.176 103.351,113.198 103.478,113.241C103.605,113.285 103.718,113.356 103.818,113.456C103.918,113.556 103.998,113.685 104.058,113.841C104.118,113.998 104.148,114.19 104.148,114.416L104.148,118.306L103.128,118.306L103.128,114.796C103.128,114.61 103.085,114.463 102.998,114.356C102.911,114.25 102.788,114.196 102.628,114.196C102.435,114.196 102.301,114.256 102.228,114.376C102.155,114.496 102.118,114.67 102.118,114.896L102.118,118.306L101.098,118.306Z" style="fill:rgb(5,5,5);fill-rule:nonzero;"/>
            <path d="M104.988,113.236L104.988,111.696L106.008,111.696L106.008,113.236L106.638,113.236L106.638,114.036L106.008,114.036L106.008,116.846C106.008,116.966 106.02,117.06 106.043,117.126C106.066,117.193 106.105,117.243 106.158,117.276C106.211,117.31 106.276,117.33 106.353,117.336C106.43,117.343 106.525,117.346 106.638,117.346L106.638,118.306L106.218,118.306C105.985,118.306 105.79,118.27 105.633,118.196C105.476,118.123 105.351,118.03 105.258,117.916C105.165,117.803 105.096,117.675 105.053,117.531C105.01,117.388 104.988,117.25 104.988,117.116L104.988,114.036L104.478,114.036L104.478,113.236L104.988,113.236Z" style="fill:rgb(5,5,5);fill-rule:nonzero;"/>
            <path d="M107.028,118.306L107.028,113.236L108.048,113.236L108.048,118.306L107.028,118.306ZM107.028,112.206L107.028,111.186L108.048,111.186L108.048,112.206L107.028,112.206Z" style="fill:rgb(5,5,5);fill-rule:nonzero;"/>
            <path d="M108.638,118.306L108.638,117.496L110.288,114.136L108.768,114.136L108.768,113.236L111.448,113.236L111.448,114.046L109.798,117.346L111.448,117.346L111.448,118.306L108.638,118.306Z" style="fill:rgb(5,5,5);fill-rule:nonzero;"/>
            <path d="M114.928,116.156L112.908,116.156L112.908,116.846C112.908,117.006 112.953,117.13 113.043,117.216C113.133,117.303 113.255,117.346 113.408,117.346C113.601,117.346 113.73,117.29 113.793,117.176C113.856,117.063 113.895,116.95 113.908,116.836L114.928,116.836C114.928,117.283 114.791,117.643 114.518,117.916C114.385,118.056 114.225,118.166 114.038,118.246C113.851,118.326 113.641,118.366 113.408,118.366C113.088,118.366 112.816,118.3 112.593,118.166C112.37,118.033 112.198,117.856 112.078,117.636C112.005,117.503 111.955,117.35 111.928,117.176C111.901,117.003 111.888,116.813 111.888,116.606L111.888,114.936C111.888,114.73 111.901,114.54 111.928,114.366C111.955,114.193 112.005,114.04 112.078,113.906C112.198,113.686 112.37,113.51 112.593,113.376C112.816,113.243 113.088,113.176 113.408,113.176C113.641,113.176 113.853,113.216 114.043,113.296C114.233,113.376 114.395,113.486 114.528,113.626C114.795,113.926 114.928,114.303 114.928,114.756L114.928,116.156ZM112.908,115.356L113.908,115.356L113.908,114.776C113.908,114.583 113.863,114.438 113.773,114.341C113.683,114.245 113.561,114.196 113.408,114.196C113.255,114.196 113.133,114.245 113.043,114.341C112.953,114.438 112.908,114.583 112.908,114.776L112.908,115.356Z" style="fill:rgb(5,5,5);fill-rule:nonzero;"/>
            <path d="M116.698,116.656C116.698,116.863 116.738,117.03 116.818,117.156C116.898,117.283 117.025,117.346 117.198,117.346C117.351,117.346 117.475,117.288 117.568,117.171C117.661,117.055 117.708,116.903 117.708,116.716L117.708,114.746C117.708,114.586 117.66,114.455 117.563,114.351C117.466,114.248 117.345,114.196 117.198,114.196C117.005,114.196 116.873,114.256 116.803,114.376C116.733,114.496 116.698,114.636 116.698,114.796L116.698,116.656ZM117.708,118.306L117.708,117.846C117.641,117.92 117.578,117.988 117.518,118.051C117.458,118.115 117.391,118.17 117.318,118.216C117.245,118.263 117.161,118.3 117.068,118.326C116.975,118.353 116.865,118.366 116.738,118.366C116.311,118.366 116.015,118.206 115.848,117.886C115.788,117.773 115.745,117.633 115.718,117.466C115.691,117.3 115.678,117.076 115.678,116.796L115.678,114.866C115.678,114.5 115.688,114.23 115.708,114.056C115.748,113.723 115.905,113.473 116.178,113.306C116.305,113.22 116.495,113.176 116.748,113.176C116.948,113.176 117.126,113.221 117.283,113.311C117.44,113.401 117.575,113.53 117.688,113.696L117.708,113.696L117.708,111.186L118.728,111.186L118.728,118.306L117.708,118.306Z" style="fill:rgb(5,5,5);fill-rule:nonzero;"/>
        </g>
        <g transform="matrix(1,0,0,1,49.027,64.8031)">
            <text x="89.198px" y="118.306px" style="font-family:'DINCondensed-Bold', 'DIN Condensed';font-weight:700;font-stretch:condensed;font-size:10px;fill:rgb(5,5,5);">quantized</text>
        </g>
        <g id="Pitch-input-P" serif:id="Pitch#input$P" transform="matrix(0.175002,0,0,0.175002,55.2287,148.117)">
            <rect x="53.94" y="106.916" width="161.978" height="161.978" style="fill:rgb(217,217,217);"/>
        </g>
        <g transform="matrix(1,0,0,1,-52.273,65.4159)">
            <path d="M92.768,113.236L91.448,118.306L90.548,118.306L89.228,113.236L90.308,113.236L90.988,116.476L91.008,116.476L91.688,113.236L92.768,113.236Z" style="fill:rgb(5,5,5);fill-rule:nonzero;"/>
            <path d="M92.808,118.366L94.128,111.126L94.928,111.126L93.608,118.366L92.808,118.366Z" style="fill:rgb(5,5,5);fill-rule:nonzero;"/>
            <path d="M95.308,114.936C95.308,114.73 95.321,114.54 95.348,114.366C95.375,114.193 95.425,114.04 95.498,113.906C95.618,113.686 95.79,113.51 96.013,113.376C96.236,113.243 96.508,113.176 96.828,113.176C97.148,113.176 97.42,113.243 97.643,113.376C97.866,113.51 98.038,113.686 98.158,113.906C98.231,114.04 98.281,114.193 98.308,114.366C98.335,114.54 98.348,114.73 98.348,114.936L98.348,116.606C98.348,116.813 98.335,117.003 98.308,117.176C98.281,117.35 98.231,117.503 98.158,117.636C98.038,117.856 97.866,118.033 97.643,118.166C97.42,118.3 97.148,118.366 96.828,118.366C96.508,118.366 96.236,118.3 96.013,118.166C95.79,118.033 95.618,117.856 95.498,117.636C95.425,117.503 95.375,117.35 95.348,117.176C95.321,117.003 95.308,116.813 95.308,116.606L95.308,114.936ZM96.328,116.766C96.328,116.96 96.373,117.105 96.463,117.201C96.553,117.298 96.675,117.346 96.828,117.346C96.981,117.346 97.103,117.298 97.193,117.201C97.283,117.105 97.328,116.96 97.328,116.766L97.328,114.776C97.328,114.583 97.283,114.438 97.193,114.341C97.103,114.245 96.981,114.196 96.828,114.196C96.675,114.196 96.553,114.245 96.463,114.341C96.373,114.438 96.328,114.583 96.328,114.776L96.328,116.766Z" style="fill:rgb(5,5,5);fill-rule:nonzero;"/>
            <path d="M100.178,116.846C100.178,117.006 100.223,117.13 100.313,117.216C100.403,117.303 100.525,117.346 100.678,117.346C100.871,117.346 101,117.29 101.063,117.176C101.126,117.063 101.165,116.95 101.178,116.836L102.198,116.836C102.198,117.283 102.061,117.643 101.788,117.916C101.655,118.056 101.495,118.166 101.308,118.246C101.121,118.326 100.911,118.366 100.678,118.366C100.358,118.366 100.086,118.3 99.863,118.166C99.64,118.033 99.468,117.856 99.348,117.636C99.275,117.503 99.225,117.35 99.198,117.176C99.171,117.003 99.158,116.813 99.158,116.606L99.158,114.936C99.158,114.73 99.171,114.54 99.198,114.366C99.225,114.193 99.275,114.04 99.348,113.906C99.468,113.686 99.64,113.51 99.863,113.376C100.086,113.243 100.358,113.176 100.678,113.176C100.911,113.176 101.123,113.216 101.313,113.296C101.503,113.376 101.665,113.486 101.798,113.626C102.065,113.926 102.198,114.316 102.198,114.796L101.178,114.796C101.178,114.59 101.133,114.438 101.043,114.341C100.953,114.245 100.831,114.196 100.678,114.196C100.525,114.196 100.403,114.245 100.313,114.341C100.223,114.438 100.178,114.583 100.178,114.776L100.178,116.846Z" style="fill:rgb(5,5,5);fill-rule:nonzero;"/>
            <path d="M102.798,113.236L102.798,111.696L103.818,111.696L103.818,113.236L104.448,113.236L104.448,114.036L103.818,114.036L103.818,116.846C103.818,116.966 103.83,117.06 103.853,117.126C103.876,117.193 103.915,117.243 103.968,117.276C104.021,117.31 104.086,117.33 104.163,117.336C104.24,117.343 104.335,117.346 104.448,117.346L104.448,118.306L104.028,118.306C103.795,118.306 103.6,118.27 103.443,118.196C103.286,118.123 103.161,118.03 103.068,117.916C102.975,117.803 102.906,117.675 102.863,117.531C102.82,117.388 102.798,117.25 102.798,117.116L102.798,114.036L102.288,114.036L102.288,113.236L102.798,113.236Z" style="fill:rgb(5,5,5);fill-rule:nonzero;"/>
        </g>
        <g transform="matrix(1,0,0,1,-52.273,65.4159)">
            <text x="89.238px" y="118.306px" style="font-family:'DINCondensed-Bold', 'DIN Condensed';font-weight:700;font-stretch:condensed;font-size:10px;fill:rgb(5,5,5);">v/oct</text>
        </g>
        <g id="Offset-knob-3" serif:id="Offset#knob$3" transform="matrix(0.758898,0,0,0.758898,92.6496,-90.1006)">
            <circle cx="55.661" cy="308.513" r="7.929"/>
        </g>
        <g id="OffsetOverride-input" serif:id="OffsetOverride#input" transform="matrix(0.175002,0,0,0.175002,55.1093,111.146)">
            <rect x="53.94" y="106.916" width="161.978" height="161.978" style="fill:rgb(217,217,217);"/>
        </g>
        <g transform="matrix(1,0,0,1,-50.703,29.2531)">
            <path d="M88.458,114.936C88.458,114.73 88.471,114.54 88.498,114.366C88.525,114.193 88.575,114.04 88.648,113.906C88.768,113.686 88.94,113.51 89.163,113.376C89.386,113.243 89.658,113.176 89.978,113.176C90.298,113.176 90.57,113.243 90.793,113.376C91.016,113.51 91.188,113.686 91.308,113.906C91.381,114.04 91.431,114.193 91.458,114.366C91.485,114.54 91.498,114.73 91.498,114.936L91.498,116.606C91.498,116.813 91.485,117.003 91.458,117.176C91.431,117.35 91.381,117.503 91.308,117.636C91.188,117.856 91.016,118.033 90.793,118.166C90.57,118.3 90.298,118.366 89.978,118.366C89.658,118.366 89.386,118.3 89.163,118.166C88.94,118.033 88.768,117.856 88.648,117.636C88.575,117.503 88.525,117.35 88.498,117.176C88.471,117.003 88.458,116.813 88.458,116.606L88.458,114.936ZM89.478,116.766C89.478,116.96 89.523,117.105 89.613,117.201C89.703,117.298 89.825,117.346 89.978,117.346C90.131,117.346 90.253,117.298 90.343,117.201C90.433,117.105 90.478,116.96 90.478,116.766L90.478,114.776C90.478,114.583 90.433,114.438 90.343,114.341C90.253,114.245 90.131,114.196 89.978,114.196C89.825,114.196 89.703,114.245 89.613,114.341C89.523,114.438 89.478,114.583 89.478,114.776L89.478,116.766Z" style="fill:rgb(5,5,5);fill-rule:nonzero;"/>
            <path d="M92.378,118.306L92.378,114.036L91.878,114.036L91.878,113.236L92.378,113.236L92.378,112.546C92.378,112.3 92.415,112.091 92.488,111.921C92.561,111.751 92.661,111.61 92.788,111.496C92.908,111.383 93.046,111.303 93.203,111.256C93.36,111.21 93.521,111.186 93.688,111.186L94.158,111.186L94.158,112.146L93.698,112.146C93.498,112.146 93.398,112.263 93.398,112.496L93.398,113.236L94.158,113.236L94.158,114.036L93.398,114.036L93.398,118.306L92.378,118.306Z" style="fill:rgb(5,5,5);fill-rule:nonzero;"/>
            <path d="M94.598,118.306L94.598,114.036L94.098,114.036L94.098,113.236L94.598,113.236L94.598,112.546C94.598,112.3 94.635,112.091 94.708,111.921C94.781,111.751 94.881,111.61 95.008,111.496C95.128,111.383 95.266,111.303 95.423,111.256C95.58,111.21 95.741,111.186 95.908,111.186L96.378,111.186L96.378,112.146L95.918,112.146C95.718,112.146 95.618,112.263 95.618,112.496L95.618,113.236L96.378,113.236L96.378,114.036L95.618,114.036L95.618,118.306L94.598,118.306Z" style="fill:rgb(5,5,5);fill-rule:nonzero;"/>
            <path d="M98.538,114.656C98.531,114.483 98.476,114.353 98.373,114.266C98.27,114.18 98.151,114.136 98.018,114.136C97.858,114.136 97.735,114.188 97.648,114.291C97.561,114.395 97.518,114.513 97.518,114.646C97.518,114.74 97.541,114.831 97.588,114.921C97.635,115.011 97.755,115.093 97.948,115.166L98.548,115.406C98.928,115.553 99.19,115.753 99.333,116.006C99.476,116.26 99.548,116.536 99.548,116.836C99.548,117.05 99.51,117.248 99.433,117.431C99.356,117.615 99.251,117.776 99.118,117.916C98.985,118.056 98.825,118.166 98.638,118.246C98.451,118.326 98.248,118.366 98.028,118.366C97.615,118.366 97.268,118.236 96.988,117.976C96.848,117.85 96.735,117.691 96.648,117.501C96.561,117.311 96.515,117.09 96.508,116.836L97.468,116.836C97.488,116.976 97.536,117.106 97.613,117.226C97.69,117.346 97.825,117.406 98.018,117.406C98.165,117.406 98.296,117.358 98.413,117.261C98.53,117.165 98.588,117.03 98.588,116.856C98.588,116.716 98.551,116.596 98.478,116.496C98.405,116.396 98.271,116.31 98.078,116.236L97.588,116.056C97.268,115.936 97.016,115.758 96.833,115.521C96.65,115.285 96.558,114.996 96.558,114.656C96.558,114.443 96.598,114.245 96.678,114.061C96.758,113.878 96.868,113.72 97.008,113.586C97.141,113.453 97.298,113.351 97.478,113.281C97.658,113.211 97.851,113.176 98.058,113.176C98.265,113.176 98.456,113.213 98.633,113.286C98.81,113.36 98.961,113.463 99.088,113.596C99.215,113.73 99.315,113.888 99.388,114.071C99.461,114.255 99.498,114.45 99.498,114.656L98.538,114.656Z" style="fill:rgb(5,5,5);fill-rule:nonzero;"/>
            <path d="M103.158,116.156L101.138,116.156L101.138,116.846C101.138,117.006 101.183,117.13 101.273,117.216C101.363,117.303 101.485,117.346 101.638,117.346C101.831,117.346 101.96,117.29 102.023,117.176C102.086,117.063 102.125,116.95 102.138,116.836L103.158,116.836C103.158,117.283 103.021,117.643 102.748,117.916C102.615,118.056 102.455,118.166 102.268,118.246C102.081,118.326 101.871,118.366 101.638,118.366C101.318,118.366 101.046,118.3 100.823,118.166C100.6,118.033 100.428,117.856 100.308,117.636C100.235,117.503 100.185,117.35 100.158,117.176C100.131,117.003 100.118,116.813 100.118,116.606L100.118,114.936C100.118,114.73 100.131,114.54 100.158,114.366C100.185,114.193 100.235,114.04 100.308,113.906C100.428,113.686 100.6,113.51 100.823,113.376C101.046,113.243 101.318,113.176 101.638,113.176C101.871,113.176 102.083,113.216 102.273,113.296C102.463,113.376 102.625,113.486 102.758,113.626C103.025,113.926 103.158,114.303 103.158,114.756L103.158,116.156ZM101.138,115.356L102.138,115.356L102.138,114.776C102.138,114.583 102.093,114.438 102.003,114.341C101.913,114.245 101.791,114.196 101.638,114.196C101.485,114.196 101.363,114.245 101.273,114.341C101.183,114.438 101.138,114.583 101.138,114.776L101.138,115.356Z" style="fill:rgb(5,5,5);fill-rule:nonzero;"/>
            <path d="M103.908,113.236L103.908,111.696L104.928,111.696L104.928,113.236L105.558,113.236L105.558,114.036L104.928,114.036L104.928,116.846C104.928,116.966 104.94,117.06 104.963,117.126C104.986,117.193 105.025,117.243 105.078,117.276C105.131,117.31 105.196,117.33 105.273,117.336C105.35,117.343 105.445,117.346 105.558,117.346L105.558,118.306L105.138,118.306C104.905,118.306 104.71,118.27 104.553,118.196C104.396,118.123 104.271,118.03 104.178,117.916C104.085,117.803 104.016,117.675 103.973,117.531C103.93,117.388 103.908,117.25 103.908,117.116L103.908,114.036L103.398,114.036L103.398,113.236L103.908,113.236Z" style="fill:rgb(5,5,5);fill-rule:nonzero;"/>
        </g>
        <g transform="matrix(1,0,0,1,-50.703,29.2531)">
            <text x="88.128px" y="118.306px" style="font-family:'DINCondensed-Bold', 'DIN Condensed';font-weight:700;font-stretch:condensed;font-size:10px;fill:rgb(5,5,5);">offset</text>
        </g>
        <g transform="matrix(1,0,0,1,5.92696,2.02472)">
            <path d="M89.618,120.356L89.618,113.236L90.638,113.236L90.638,113.696C90.765,113.55 90.895,113.426 91.028,113.326C91.161,113.226 91.355,113.176 91.608,113.176C92.028,113.176 92.325,113.336 92.498,113.656C92.558,113.77 92.601,113.91 92.628,114.076C92.655,114.243 92.668,114.466 92.668,114.746L92.668,116.676C92.668,117.05 92.658,117.32 92.638,117.486C92.598,117.82 92.445,118.07 92.178,118.236C92.045,118.323 91.851,118.366 91.598,118.366C91.398,118.366 91.22,118.321 91.063,118.231C90.906,118.141 90.771,118.013 90.658,117.846L90.638,117.846L90.638,120.356L89.618,120.356ZM91.648,114.886C91.648,114.68 91.608,114.513 91.528,114.386C91.448,114.26 91.321,114.196 91.148,114.196C90.995,114.196 90.871,114.255 90.778,114.371C90.685,114.488 90.638,114.64 90.638,114.826L90.638,116.796C90.638,116.956 90.686,117.088 90.783,117.191C90.88,117.295 91.001,117.346 91.148,117.346C91.341,117.346 91.473,117.286 91.543,117.166C91.613,117.046 91.648,116.906 91.648,116.746L91.648,114.886Z" style="fill:rgb(5,5,5);fill-rule:nonzero;"/>
            <path d="M93.508,118.306L93.508,113.236L94.528,113.236L94.528,118.306L93.508,118.306ZM93.508,112.206L93.508,111.186L94.528,111.186L94.528,112.206L93.508,112.206Z" style="fill:rgb(5,5,5);fill-rule:nonzero;"/>
            <path d="M95.368,113.236L95.368,111.696L96.388,111.696L96.388,113.236L97.018,113.236L97.018,114.036L96.388,114.036L96.388,116.846C96.388,116.966 96.4,117.06 96.423,117.126C96.446,117.193 96.485,117.243 96.538,117.276C96.591,117.31 96.656,117.33 96.733,117.336C96.81,117.343 96.905,117.346 97.018,117.346L97.018,118.306L96.598,118.306C96.365,118.306 96.17,118.27 96.013,118.196C95.856,118.123 95.731,118.03 95.638,117.916C95.545,117.803 95.476,117.675 95.433,117.531C95.39,117.388 95.368,117.25 95.368,117.116L95.368,114.036L94.858,114.036L94.858,113.236L95.368,113.236Z" style="fill:rgb(5,5,5);fill-rule:nonzero;"/>
            <path d="M98.488,116.846C98.488,117.006 98.533,117.13 98.623,117.216C98.713,117.303 98.835,117.346 98.988,117.346C99.181,117.346 99.31,117.29 99.373,117.176C99.436,117.063 99.475,116.95 99.488,116.836L100.508,116.836C100.508,117.283 100.371,117.643 100.098,117.916C99.965,118.056 99.805,118.166 99.618,118.246C99.431,118.326 99.221,118.366 98.988,118.366C98.668,118.366 98.396,118.3 98.173,118.166C97.95,118.033 97.778,117.856 97.658,117.636C97.585,117.503 97.535,117.35 97.508,117.176C97.481,117.003 97.468,116.813 97.468,116.606L97.468,114.936C97.468,114.73 97.481,114.54 97.508,114.366C97.535,114.193 97.585,114.04 97.658,113.906C97.778,113.686 97.95,113.51 98.173,113.376C98.396,113.243 98.668,113.176 98.988,113.176C99.221,113.176 99.433,113.216 99.623,113.296C99.813,113.376 99.975,113.486 100.108,113.626C100.375,113.926 100.508,114.316 100.508,114.796L99.488,114.796C99.488,114.59 99.443,114.438 99.353,114.341C99.263,114.245 99.141,114.196 98.988,114.196C98.835,114.196 98.713,114.245 98.623,114.341C98.533,114.438 98.488,114.583 98.488,114.776L98.488,116.846Z" style="fill:rgb(5,5,5);fill-rule:nonzero;"/>
            <path d="M100.988,118.306L100.988,111.186L102.008,111.186L102.008,113.726L102.028,113.726C102.135,113.566 102.263,113.435 102.413,113.331C102.563,113.228 102.755,113.176 102.988,113.176C103.115,113.176 103.241,113.198 103.368,113.241C103.495,113.285 103.608,113.356 103.708,113.456C103.808,113.556 103.888,113.685 103.948,113.841C104.008,113.998 104.038,114.19 104.038,114.416L104.038,118.306L103.018,118.306L103.018,114.796C103.018,114.61 102.975,114.463 102.888,114.356C102.801,114.25 102.678,114.196 102.518,114.196C102.325,114.196 102.191,114.256 102.118,114.376C102.045,114.496 102.008,114.67 102.008,114.896L102.008,118.306L100.988,118.306Z" style="fill:rgb(5,5,5);fill-rule:nonzero;"/>
        </g>
        <g transform="matrix(1,0,0,1,5.92696,2.02472)">
            <text x="89.198px" y="118.306px" style="font-family:'DINCondensed-Bold', 'DIN Condensed';font-weight:700;font-stretch:condensed;font-size:10px;fill:rgb(5,5,5);">pitc<tspan x="100.568px " y="118.306px ">h</tspan></text>
        </g>
    </g>
    <g transform="matrix(1,0,0,1,-10.7848,-155.128)">
        <g id="Drive-knob-4" serif:id="Drive#knob$4" transform="matrix(0.758898,0,0,0.758898,75.6796,66.0894)">
            <circle cx="55.661" cy="308.513" r="7.929"/>
        </g>
        <g id="DriveOverride-input" serif:id="DriveOverride#input" transform="matrix(0.175002,0,0,0.175002,39.7724,265.903)">
            <rect x="53.94" y="106.916" width="161.978" height="161.978" style="fill:rgb(217,217,217);"/>
        </g>
        <g transform="matrix(1,0,0,1,-69.6131,184.448)">
            <path d="M91.418,116.656C91.418,116.863 91.458,117.03 91.538,117.156C91.618,117.283 91.745,117.346 91.918,117.346C92.071,117.346 92.195,117.288 92.288,117.171C92.381,117.055 92.428,116.903 92.428,116.716L92.428,114.746C92.428,114.586 92.38,114.455 92.283,114.351C92.186,114.248 92.065,114.196 91.918,114.196C91.725,114.196 91.593,114.256 91.523,114.376C91.453,114.496 91.418,114.636 91.418,114.796L91.418,116.656ZM92.428,118.306L92.428,117.846C92.361,117.92 92.298,117.988 92.238,118.051C92.178,118.115 92.111,118.17 92.038,118.216C91.965,118.263 91.881,118.3 91.788,118.326C91.695,118.353 91.585,118.366 91.458,118.366C91.031,118.366 90.735,118.206 90.568,117.886C90.508,117.773 90.465,117.633 90.438,117.466C90.411,117.3 90.398,117.076 90.398,116.796L90.398,114.866C90.398,114.5 90.408,114.23 90.428,114.056C90.468,113.723 90.625,113.473 90.898,113.306C91.025,113.22 91.215,113.176 91.468,113.176C91.668,113.176 91.846,113.221 92.003,113.311C92.16,113.401 92.295,113.53 92.408,113.696L92.428,113.696L92.428,111.186L93.448,111.186L93.448,118.306L92.428,118.306Z" style="fill:rgb(5,5,5);fill-rule:nonzero;"/>
            <path d="M94.288,118.306L94.288,113.236L95.308,113.236L95.308,113.776C95.515,113.59 95.718,113.443 95.918,113.336C96.118,113.23 96.365,113.176 96.658,113.176L96.658,114.256C96.558,114.216 96.455,114.196 96.348,114.196C96.241,114.196 96.126,114.215 96.003,114.251C95.88,114.288 95.768,114.35 95.668,114.436C95.561,114.523 95.475,114.636 95.408,114.776C95.341,114.916 95.308,115.09 95.308,115.296L95.308,118.306L94.288,118.306Z" style="fill:rgb(5,5,5);fill-rule:nonzero;"/>
            <path d="M97.068,118.306L97.068,113.236L98.088,113.236L98.088,118.306L97.068,118.306ZM97.068,112.206L97.068,111.186L98.088,111.186L98.088,112.206L97.068,112.206Z" style="fill:rgb(5,5,5);fill-rule:nonzero;"/>
            <path d="M102.038,113.236L100.718,118.306L99.818,118.306L98.498,113.236L99.578,113.236L100.258,116.476L100.278,116.476L100.958,113.236L102.038,113.236Z" style="fill:rgb(5,5,5);fill-rule:nonzero;"/>
            <path d="M105.338,116.156L103.318,116.156L103.318,116.846C103.318,117.006 103.363,117.13 103.453,117.216C103.543,117.303 103.665,117.346 103.818,117.346C104.011,117.346 104.14,117.29 104.203,117.176C104.266,117.063 104.305,116.95 104.318,116.836L105.338,116.836C105.338,117.283 105.201,117.643 104.928,117.916C104.795,118.056 104.635,118.166 104.448,118.246C104.261,118.326 104.051,118.366 103.818,118.366C103.498,118.366 103.226,118.3 103.003,118.166C102.78,118.033 102.608,117.856 102.488,117.636C102.415,117.503 102.365,117.35 102.338,117.176C102.311,117.003 102.298,116.813 102.298,116.606L102.298,114.936C102.298,114.73 102.311,114.54 102.338,114.366C102.365,114.193 102.415,114.04 102.488,113.906C102.608,113.686 102.78,113.51 103.003,113.376C103.226,113.243 103.498,113.176 103.818,113.176C104.051,113.176 104.263,113.216 104.453,113.296C104.643,113.376 104.805,113.486 104.938,113.626C105.205,113.926 105.338,114.303 105.338,114.756L105.338,116.156ZM103.318,115.356L104.318,115.356L104.318,114.776C104.318,114.583 104.273,114.438 104.183,114.341C104.093,114.245 103.971,114.196 103.818,114.196C103.665,114.196 103.543,114.245 103.453,114.341C103.363,114.438 103.318,114.583 103.318,114.776L103.318,115.356Z" style="fill:rgb(5,5,5);fill-rule:nonzero;"/>
        </g>
        <g transform="matrix(1,0,0,1,-69.6131,184.448)">
            <text x="89.978px" y="118.306px" style="font-family:'DINCondensed-Bold', 'DIN Condensed';font-weight:700;font-stretch:condensed;font-size:10px;fill:rgb(5,5,5);">drive</text>
        </g>
    </g>
    <g transform="matrix(1,0,0,1,-10.7848,-224.404)">
        <g id="Reso-knob-5" serif:id="Reso#knob$5" transform="matrix(0.758898,0,0,0.758898,75.6796,66.0894)">
            <circle cx="55.661" cy="308.513" r="7.929"/>
        </g>
        <g id="ResoOverride-input" serif:id="ResoOverride#input" transform="matrix(0.175002,0,0,0.175002,39.7724,265.903)">
            <rect x="53.94" y="106.916" width="161.978" height="161.978" style="fill:rgb(217,217,217);"/>
        </g>
        <g transform="matrix(1,0,0,1,-69.6131,184.448)">
            <path d="M90.398,118.306L90.398,113.236L91.418,113.236L91.418,113.776C91.625,113.59 91.828,113.443 92.028,113.336C92.228,113.23 92.475,113.176 92.768,113.176L92.768,114.256C92.668,114.216 92.565,114.196 92.458,114.196C92.351,114.196 92.236,114.215 92.113,114.251C91.99,114.288 91.878,114.35 91.778,114.436C91.671,114.523 91.585,114.636 91.518,114.776C91.451,114.916 91.418,115.09 91.418,115.296L91.418,118.306L90.398,118.306Z" style="fill:rgb(5,5,5);fill-rule:nonzero;"/>
            <path d="M96.128,116.156L94.108,116.156L94.108,116.846C94.108,117.006 94.153,117.13 94.243,117.216C94.333,117.303 94.455,117.346 94.608,117.346C94.801,117.346 94.93,117.29 94.993,117.176C95.056,117.063 95.095,116.95 95.108,116.836L96.128,116.836C96.128,117.283 95.991,117.643 95.718,117.916C95.585,118.056 95.425,118.166 95.238,118.246C95.051,118.326 94.841,118.366 94.608,118.366C94.288,118.366 94.016,118.3 93.793,118.166C93.57,118.033 93.398,117.856 93.278,117.636C93.205,117.503 93.155,117.35 93.128,117.176C93.101,117.003 93.088,116.813 93.088,116.606L93.088,114.936C93.088,114.73 93.101,114.54 93.128,114.366C93.155,114.193 93.205,114.04 93.278,113.906C93.398,113.686 93.57,113.51 93.793,113.376C94.016,113.243 94.288,113.176 94.608,113.176C94.841,113.176 95.053,113.216 95.243,113.296C95.433,113.376 95.595,113.486 95.728,113.626C95.995,113.926 96.128,114.303 96.128,114.756L96.128,116.156ZM94.108,115.356L95.108,115.356L95.108,114.776C95.108,114.583 95.063,114.438 94.973,114.341C94.883,114.245 94.761,114.196 94.608,114.196C94.455,114.196 94.333,114.245 94.243,114.341C94.153,114.438 94.108,114.583 94.108,114.776L94.108,115.356Z" style="fill:rgb(5,5,5);fill-rule:nonzero;"/>
            <path d="M98.728,114.656C98.721,114.483 98.666,114.353 98.563,114.266C98.46,114.18 98.341,114.136 98.208,114.136C98.048,114.136 97.925,114.188 97.838,114.291C97.751,114.395 97.708,114.513 97.708,114.646C97.708,114.74 97.731,114.831 97.778,114.921C97.825,115.011 97.945,115.093 98.138,115.166L98.738,115.406C99.118,115.553 99.38,115.753 99.523,116.006C99.666,116.26 99.738,116.536 99.738,116.836C99.738,117.05 99.7,117.248 99.623,117.431C99.546,117.615 99.441,117.776 99.308,117.916C99.175,118.056 99.015,118.166 98.828,118.246C98.641,118.326 98.438,118.366 98.218,118.366C97.805,118.366 97.458,118.236 97.178,117.976C97.038,117.85 96.925,117.691 96.838,117.501C96.751,117.311 96.705,117.09 96.698,116.836L97.658,116.836C97.678,116.976 97.726,117.106 97.803,117.226C97.88,117.346 98.015,117.406 98.208,117.406C98.355,117.406 98.486,117.358 98.603,117.261C98.72,117.165 98.778,117.03 98.778,116.856C98.778,116.716 98.741,116.596 98.668,116.496C98.595,116.396 98.461,116.31 98.268,116.236L97.778,116.056C97.458,115.936 97.206,115.758 97.023,115.521C96.84,115.285 96.748,114.996 96.748,114.656C96.748,114.443 96.788,114.245 96.868,114.061C96.948,113.878 97.058,113.72 97.198,113.586C97.331,113.453 97.488,113.351 97.668,113.281C97.848,113.211 98.041,113.176 98.248,113.176C98.455,113.176 98.646,113.213 98.823,113.286C99,113.36 99.151,113.463 99.278,113.596C99.405,113.73 99.505,113.888 99.578,114.071C99.651,114.255 99.688,114.45 99.688,114.656L98.728,114.656Z" style="fill:rgb(5,5,5);fill-rule:nonzero;"/>
            <path d="M100.308,114.936C100.308,114.73 100.321,114.54 100.348,114.366C100.375,114.193 100.425,114.04 100.498,113.906C100.618,113.686 100.79,113.51 101.013,113.376C101.236,113.243 101.508,113.176 101.828,113.176C102.148,113.176 102.42,113.243 102.643,113.376C102.866,113.51 103.038,113.686 103.158,113.906C103.231,114.04 103.281,114.193 103.308,114.366C103.335,114.54 103.348,114.73 103.348,114.936L103.348,116.606C103.348,116.813 103.335,117.003 103.308,117.176C103.281,117.35 103.231,117.503 103.158,117.636C103.038,117.856 102.866,118.033 102.643,118.166C102.42,118.3 102.148,118.366 101.828,118.366C101.508,118.366 101.236,118.3 101.013,118.166C100.79,118.033 100.618,117.856 100.498,117.636C100.425,117.503 100.375,117.35 100.348,117.176C100.321,117.003 100.308,116.813 100.308,116.606L100.308,114.936ZM101.328,116.766C101.328,116.96 101.373,117.105 101.463,117.201C101.553,117.298 101.675,117.346 101.828,117.346C101.981,117.346 102.103,117.298 102.193,117.201C102.283,117.105 102.328,116.96 102.328,116.766L102.328,114.776C102.328,114.583 102.283,114.438 102.193,114.341C102.103,114.245 101.981,114.196 101.828,114.196C101.675,114.196 101.553,114.245 101.463,114.341C101.373,114.438 101.328,114.583 101.328,114.776L101.328,116.766Z" style="fill:rgb(5,5,5);fill-rule:nonzero;"/>
        </g>
        <g transform="matrix(1,0,0,1,-69.6131,184.448)">
            <text x="89.978px" y="118.306px" style="font-family:'DINCondensed-Bold', 'DIN Condensed';font-weight:700;font-stretch:condensed;font-size:10px;fill:rgb(5,5,5);">reso</text>
        </g>
    </g>
    <g transform="matrix(1,0,0,1,47.3332,-3.5435)">
        <g transform="matrix(1,0,0,1,43.2454,1.87477)">
            <path d="M-31.704,23.008C-31.656,23.2 -31.488,23.32 -31.2,23.368C-31.128,23.376 -31.092,23.416 -31.092,23.488C-31.092,23.528 -31.112,23.564 -31.152,23.596C-31.192,23.628 -31.244,23.644 -31.308,23.644C-31.428,23.644 -31.588,23.636 -31.788,23.62C-31.988,23.604 -32.272,23.596 -32.64,23.596C-32.936,23.596 -33.196,23.606 -33.42,23.626C-33.644,23.646 -33.78,23.66 -33.828,23.668C-33.868,23.668 -33.896,23.656 -33.912,23.632C-33.928,23.608 -33.936,23.58 -33.936,23.548C-33.936,23.516 -33.93,23.484 -33.918,23.452C-33.906,23.42 -33.888,23.404 -33.864,23.404C-33.808,23.396 -33.752,23.38 -33.696,23.356C-33.64,23.332 -33.588,23.3 -33.54,23.26C-33.516,23.236 -33.486,23.108 -33.45,22.876C-33.414,22.644 -33.382,22.338 -33.354,21.958C-33.326,21.578 -33.302,21.14 -33.282,20.644C-33.262,20.148 -33.252,19.624 -33.252,19.072L-33.252,17.776C-33.252,17.376 -33.272,17.052 -33.312,16.804C-33.384,16.276 -33.552,15.87 -33.816,15.586C-34.08,15.302 -34.388,15.16 -34.74,15.16C-35.052,15.16 -35.36,15.246 -35.664,15.418C-35.968,15.59 -36.24,15.842 -36.48,16.174C-36.72,16.506 -36.914,16.918 -37.062,17.41C-37.21,17.902 -37.284,18.464 -37.284,19.096C-37.284,19.792 -37.206,20.398 -37.05,20.914C-36.894,21.43 -36.688,21.862 -36.432,22.21C-36.176,22.558 -35.882,22.818 -35.55,22.99C-35.218,23.162 -34.872,23.248 -34.512,23.248L-34.446,23.248C-34.418,23.248 -34.396,23.244 -34.38,23.236C-34.348,23.22 -34.328,23.22 -34.32,23.236C-34.312,23.252 -34.312,23.274 -34.32,23.302C-34.328,23.33 -34.338,23.358 -34.35,23.386C-34.362,23.414 -34.376,23.432 -34.392,23.44C-34.472,23.496 -34.584,23.546 -34.728,23.59C-34.872,23.634 -35.072,23.656 -35.328,23.656C-35.752,23.656 -36.174,23.558 -36.594,23.362C-37.014,23.166 -37.39,22.892 -37.722,22.54C-38.054,22.188 -38.322,21.762 -38.526,21.262C-38.73,20.762 -38.832,20.212 -38.832,19.612C-38.832,18.756 -38.708,18.024 -38.46,17.416C-38.212,16.808 -37.874,16.312 -37.446,15.928C-37.018,15.544 -36.522,15.262 -35.958,15.082C-35.394,14.902 -34.792,14.812 -34.152,14.812C-33.92,14.812 -33.708,14.836 -33.516,14.884C-33.324,14.932 -33.156,14.99 -33.012,15.058C-32.868,15.126 -32.75,15.192 -32.658,15.256C-32.566,15.32 -32.504,15.368 -32.472,15.4C-32.408,15.352 -32.278,15.294 -32.082,15.226C-31.886,15.158 -31.662,15.094 -31.41,15.034C-31.158,14.974 -30.896,14.922 -30.624,14.878C-30.352,14.834 -30.104,14.812 -29.88,14.812C-29.272,14.828 -28.738,14.928 -28.278,15.112C-27.818,15.296 -27.434,15.542 -27.126,15.85C-26.818,16.158 -26.586,16.514 -26.43,16.918C-26.274,17.322 -26.196,17.752 -26.196,18.208C-26.196,19.064 -26.31,19.826 -26.538,20.494C-26.766,21.162 -27.072,21.728 -27.456,22.192C-27.84,22.656 -28.284,23.01 -28.788,23.254C-29.292,23.498 -29.82,23.62 -30.372,23.62C-30.42,23.62 -30.452,23.602 -30.468,23.566C-30.484,23.53 -30.49,23.492 -30.486,23.452C-30.482,23.412 -30.468,23.378 -30.444,23.35C-30.42,23.322 -30.396,23.312 -30.372,23.32C-30.332,23.336 -30.3,23.344 -30.276,23.344L-30.18,23.344C-29.852,23.344 -29.544,23.232 -29.256,23.008C-28.968,22.784 -28.716,22.474 -28.5,22.078C-28.284,21.682 -28.114,21.214 -27.99,20.674C-27.866,20.134 -27.804,19.544 -27.804,18.904C-27.804,17.712 -27.986,16.784 -28.35,16.12C-28.714,15.456 -29.276,15.124 -30.036,15.124C-30.268,15.124 -30.484,15.172 -30.684,15.268C-30.884,15.364 -31.058,15.49 -31.206,15.646C-31.354,15.802 -31.474,15.98 -31.566,16.18C-31.658,16.38 -31.716,16.584 -31.74,16.792C-31.78,17.072 -31.804,17.52 -31.812,18.136C-31.82,18.752 -31.828,19.496 -31.836,20.368C-31.844,21.008 -31.838,21.566 -31.818,22.042C-31.798,22.518 -31.76,22.84 -31.704,23.008Z" style="fill-rule:nonzero;"/>
            <path d="M-25.704,18.64C-25.768,18.624 -25.798,18.592 -25.794,18.544C-25.79,18.496 -25.76,18.468 -25.704,18.46C-25.68,18.452 -25.604,18.424 -25.476,18.376C-25.348,18.328 -25.194,18.272 -25.014,18.208C-24.834,18.144 -24.646,18.076 -24.45,18.004C-24.254,17.932 -24.08,17.872 -23.928,17.824C-23.832,17.792 -23.766,17.77 -23.73,17.758C-23.694,17.746 -23.664,17.74 -23.64,17.74C-23.616,17.74 -23.588,17.75 -23.556,17.77C-23.524,17.79 -23.516,17.82 -23.532,17.86C-23.556,17.924 -23.582,18.076 -23.61,18.316C-23.638,18.556 -23.664,18.822 -23.688,19.114C-23.712,19.406 -23.734,19.696 -23.754,19.984C-23.774,20.272 -23.784,20.5 -23.784,20.668C-23.784,21.308 -23.648,21.802 -23.376,22.15C-23.104,22.498 -22.68,22.672 -22.104,22.672C-21.808,22.672 -21.562,22.612 -21.366,22.492C-21.17,22.372 -21.02,22.232 -20.916,22.072C-20.844,21.968 -20.796,21.74 -20.772,21.388C-20.772,21.324 -20.77,21.24 -20.766,21.136C-20.762,21.032 -20.758,20.922 -20.754,20.806C-20.75,20.69 -20.746,20.578 -20.742,20.47C-20.738,20.362 -20.736,20.272 -20.736,20.2C-20.728,19.832 -20.738,19.49 -20.766,19.174C-20.794,18.858 -20.836,18.624 -20.892,18.472C-20.916,18.376 -20.964,18.328 -21.036,18.328C-21.084,18.328 -21.13,18.33 -21.174,18.334C-21.218,18.338 -21.244,18.304 -21.252,18.232C-21.252,18.208 -21.228,18.182 -21.18,18.154C-21.132,18.126 -21.04,18.084 -20.904,18.028C-20.776,17.98 -20.634,17.932 -20.478,17.884C-20.322,17.836 -20.168,17.796 -20.016,17.764C-19.864,17.732 -19.728,17.71 -19.608,17.698C-19.488,17.686 -19.4,17.692 -19.344,17.716C-19.344,17.724 -19.338,17.734 -19.326,17.746C-19.314,17.758 -19.304,17.784 -19.296,17.824C-19.28,17.872 -19.29,18.022 -19.326,18.274C-19.362,18.526 -19.4,18.936 -19.44,19.504C-19.472,19.896 -19.5,20.276 -19.524,20.644C-19.548,21.012 -19.56,21.292 -19.56,21.484C-19.56,21.86 -19.49,22.158 -19.35,22.378C-19.21,22.598 -19.036,22.708 -18.828,22.708C-18.692,22.708 -18.562,22.68 -18.438,22.624C-18.314,22.568 -18.224,22.52 -18.168,22.48C-18.104,22.48 -18.07,22.508 -18.066,22.564C-18.062,22.62 -18.076,22.656 -18.108,22.672C-18.228,22.752 -18.394,22.852 -18.606,22.972C-18.818,23.092 -19.038,23.206 -19.266,23.314C-19.494,23.422 -19.712,23.514 -19.92,23.59C-20.128,23.666 -20.296,23.704 -20.424,23.704C-20.488,23.704 -20.546,23.662 -20.598,23.578C-20.65,23.494 -20.692,23.392 -20.724,23.272C-20.756,23.152 -20.78,23.028 -20.796,22.9C-20.812,22.772 -20.82,22.66 -20.82,22.564C-20.988,22.684 -21.18,22.81 -21.396,22.942C-21.612,23.074 -21.836,23.198 -22.068,23.314C-22.3,23.43 -22.53,23.524 -22.758,23.596C-22.986,23.668 -23.196,23.704 -23.388,23.704C-23.876,23.704 -24.276,23.574 -24.588,23.314C-24.9,23.054 -25.056,22.716 -25.056,22.3C-25.056,22.212 -25.048,22.08 -25.032,21.904C-25.016,21.728 -24.996,21.528 -24.972,21.304C-24.948,21.08 -24.928,20.84 -24.912,20.584C-24.896,20.328 -24.888,20.08 -24.888,19.84C-24.888,19.472 -24.946,19.19 -25.062,18.994C-25.178,18.798 -25.328,18.688 -25.512,18.664L-25.704,18.64Z" style="fill-rule:nonzero;"/>
            <path d="M-14.1,22.372C-14.052,22.404 -14.028,22.444 -14.028,22.492C-14.028,22.556 -14.12,22.64 -14.304,22.744C-14.496,22.856 -14.75,22.988 -15.066,23.14C-15.382,23.292 -15.696,23.424 -16.008,23.536C-16.16,23.592 -16.296,23.64 -16.416,23.68C-16.536,23.72 -16.644,23.74 -16.74,23.74C-16.852,23.74 -16.99,23.714 -17.154,23.662C-17.318,23.61 -17.46,23.548 -17.58,23.476C-17.676,23.412 -17.752,23.362 -17.808,23.326C-17.864,23.29 -17.892,23.252 -17.892,23.212C-17.892,23.18 -17.882,23.15 -17.862,23.122C-17.842,23.094 -17.824,23.06 -17.808,23.02C-17.8,22.996 -17.792,22.964 -17.784,22.924C-17.776,22.884 -17.772,22.844 -17.772,22.804C-17.748,22.604 -17.722,22.314 -17.694,21.934C-17.666,21.554 -17.644,21.134 -17.628,20.674C-17.612,20.214 -17.598,19.738 -17.586,19.246C-17.574,18.754 -17.568,18.296 -17.568,17.872C-17.568,17.352 -17.57,16.932 -17.574,16.612C-17.578,16.292 -17.588,16.036 -17.604,15.844C-17.628,15.58 -17.66,15.406 -17.7,15.322C-17.74,15.238 -17.784,15.176 -17.832,15.136C-17.888,15.088 -17.942,15.058 -17.994,15.046C-18.046,15.034 -18.094,15.026 -18.138,15.022C-18.182,15.018 -18.218,15.016 -18.246,15.016C-18.274,15.016 -18.288,15.008 -18.288,14.992C-18.288,14.728 -18.176,14.596 -17.952,14.596C-17.784,14.596 -17.586,14.598 -17.358,14.602C-17.13,14.606 -16.94,14.608 -16.788,14.608C-16.692,14.608 -16.59,14.602 -16.482,14.59C-16.374,14.578 -16.268,14.566 -16.164,14.554C-16.06,14.542 -15.964,14.528 -15.876,14.512C-15.788,14.496 -15.724,14.48 -15.684,14.464C-15.652,14.456 -15.626,14.468 -15.606,14.5C-15.586,14.532 -15.574,14.572 -15.57,14.62C-15.566,14.668 -15.574,14.712 -15.594,14.752C-15.614,14.792 -15.64,14.816 -15.672,14.824C-15.72,14.832 -15.762,14.836 -15.798,14.836C-15.834,14.836 -15.896,14.852 -15.984,14.884C-16.024,14.9 -16.06,14.95 -16.092,15.034C-16.124,15.118 -16.152,15.25 -16.176,15.43C-16.2,15.61 -16.224,15.846 -16.248,16.138C-16.272,16.43 -16.296,16.796 -16.32,17.236C-16.344,17.588 -16.362,17.946 -16.374,18.31C-16.386,18.674 -16.398,19.028 -16.41,19.372C-16.422,19.716 -16.43,20.036 -16.434,20.332C-16.438,20.628 -16.44,20.88 -16.44,21.088C-16.44,21.32 -16.438,21.554 -16.434,21.79C-16.43,22.026 -16.408,22.212 -16.368,22.348C-16.328,22.476 -16.224,22.596 -16.056,22.708C-15.888,22.82 -15.712,22.876 -15.528,22.876C-15.384,22.876 -15.236,22.856 -15.084,22.816C-14.932,22.776 -14.792,22.728 -14.664,22.672C-14.536,22.616 -14.422,22.56 -14.322,22.504C-14.222,22.448 -14.148,22.404 -14.1,22.372Z" style="fill-rule:nonzero;"/>
            <path d="M-9.192,21.928C-9.176,21.912 -9.162,21.914 -9.15,21.934C-9.138,21.954 -9.13,21.982 -9.126,22.018C-9.122,22.054 -9.124,22.092 -9.132,22.132C-9.14,22.172 -9.156,22.204 -9.18,22.228C-9.34,22.38 -9.54,22.54 -9.78,22.708C-10.02,22.876 -10.268,23.032 -10.524,23.176C-10.596,23.216 -10.696,23.268 -10.824,23.332C-10.952,23.396 -11.094,23.458 -11.25,23.518C-11.406,23.578 -11.566,23.63 -11.73,23.674C-11.894,23.718 -12.048,23.74 -12.192,23.74C-12.48,23.74 -12.752,23.684 -13.008,23.572C-13.264,23.46 -13.488,23.306 -13.68,23.11C-13.872,22.914 -14.022,22.68 -14.13,22.408C-14.238,22.136 -14.292,21.84 -14.292,21.52C-14.292,21.176 -14.244,20.852 -14.148,20.548C-14.052,20.244 -13.942,19.972 -13.818,19.732C-13.694,19.492 -13.576,19.29 -13.464,19.126C-13.352,18.962 -13.276,18.84 -13.236,18.76C-13.388,18.752 -13.526,18.746 -13.65,18.742C-13.774,18.738 -13.892,18.736 -14.004,18.736C-14.26,18.736 -14.476,18.738 -14.652,18.742C-14.828,18.746 -14.984,18.764 -15.12,18.796C-15.184,18.812 -15.244,18.844 -15.3,18.892C-15.356,18.94 -15.404,18.976 -15.444,19C-15.46,18.984 -15.482,18.962 -15.51,18.934C-15.538,18.906 -15.552,18.876 -15.552,18.844C-15.552,18.828 -15.548,18.816 -15.54,18.808C-15.54,18.8 -15.488,18.754 -15.384,18.67C-15.28,18.586 -15.15,18.486 -14.994,18.37C-14.838,18.254 -14.666,18.126 -14.478,17.986C-14.29,17.846 -14.11,17.716 -13.938,17.596C-13.766,17.476 -13.618,17.374 -13.494,17.29C-13.37,17.206 -13.288,17.156 -13.248,17.14C-13.2,17.124 -13.152,17.132 -13.104,17.164C-13.056,17.196 -13.04,17.22 -13.056,17.236C-13.08,17.252 -13.116,17.282 -13.164,17.326C-13.212,17.37 -13.228,17.408 -13.212,17.44C-13.124,17.512 -12.972,17.576 -12.756,17.632C-12.54,17.688 -12.296,17.734 -12.024,17.77C-11.752,17.806 -11.472,17.834 -11.184,17.854C-10.896,17.874 -10.636,17.884 -10.404,17.884C-10.06,17.884 -9.784,17.874 -9.576,17.854C-9.368,17.834 -9.196,17.808 -9.06,17.776C-8.932,17.744 -8.848,17.72 -8.808,17.704C-8.8,17.704 -8.784,17.716 -8.76,17.74C-8.736,17.764 -8.724,17.792 -8.724,17.824C-8.724,17.84 -8.782,17.88 -8.898,17.944C-9.014,18.008 -9.132,18.076 -9.252,18.148C-9.324,18.188 -9.41,18.24 -9.51,18.304C-9.61,18.368 -9.718,18.43 -9.834,18.49C-9.95,18.55 -10.072,18.604 -10.2,18.652C-10.328,18.7 -10.452,18.728 -10.572,18.736C-10.692,18.752 -10.832,18.764 -10.992,18.772C-11.152,18.78 -11.32,18.786 -11.496,18.79C-11.672,18.794 -11.85,18.798 -12.03,18.802C-12.21,18.806 -12.376,18.808 -12.528,18.808C-12.552,18.848 -12.59,18.914 -12.642,19.006C-12.694,19.098 -12.744,19.216 -12.792,19.36C-12.84,19.504 -12.884,19.668 -12.924,19.852C-12.964,20.036 -12.984,20.236 -12.984,20.452C-12.984,20.78 -12.934,21.082 -12.834,21.358C-12.734,21.634 -12.594,21.872 -12.414,22.072C-12.234,22.272 -12.02,22.428 -11.772,22.54C-11.524,22.652 -11.256,22.708 -10.968,22.708C-10.8,22.708 -10.638,22.688 -10.482,22.648C-10.326,22.608 -10.178,22.556 -10.038,22.492C-9.898,22.428 -9.768,22.358 -9.648,22.282C-9.528,22.206 -9.424,22.132 -9.336,22.06L-9.192,21.928Z" style="fill-rule:nonzero;"/>
            <path d="M-7.344,21.508C-7.344,21.676 -7.34,21.838 -7.332,21.994C-7.324,22.15 -7.296,22.284 -7.248,22.396C-7.2,22.508 -7.128,22.598 -7.032,22.666C-6.936,22.734 -6.8,22.768 -6.624,22.768C-6.536,22.768 -6.436,22.758 -6.324,22.738C-6.212,22.718 -6.106,22.692 -6.006,22.66C-5.906,22.628 -5.818,22.596 -5.742,22.564C-5.666,22.532 -5.62,22.508 -5.604,22.492C-5.58,22.468 -5.564,22.468 -5.556,22.492C-5.548,22.516 -5.546,22.546 -5.55,22.582C-5.554,22.618 -5.564,22.654 -5.58,22.69C-5.596,22.726 -5.616,22.752 -5.64,22.768C-5.72,22.808 -5.86,22.88 -6.06,22.984C-6.26,23.088 -6.496,23.196 -6.768,23.308C-7.024,23.42 -7.274,23.514 -7.518,23.59C-7.762,23.666 -7.964,23.704 -8.124,23.704C-8.308,23.704 -8.452,23.648 -8.556,23.536C-8.66,23.424 -8.712,23.284 -8.712,23.116C-8.712,23.06 -8.71,23.012 -8.706,22.972C-8.702,22.932 -8.696,22.88 -8.688,22.816C-8.68,22.736 -8.666,22.59 -8.646,22.378C-8.626,22.166 -8.606,21.928 -8.586,21.664C-8.566,21.4 -8.548,21.134 -8.532,20.866C-8.516,20.598 -8.508,20.368 -8.508,20.176L-8.508,19.756C-8.508,19.548 -8.52,19.364 -8.544,19.204C-8.568,19.044 -8.608,18.92 -8.664,18.832C-8.704,18.776 -8.754,18.73 -8.814,18.694C-8.874,18.658 -8.948,18.64 -9.036,18.64C-9.084,18.64 -9.132,18.65 -9.18,18.67C-9.228,18.69 -9.264,18.7 -9.288,18.7C-9.304,18.7 -9.33,18.676 -9.366,18.628C-9.402,18.58 -9.4,18.544 -9.36,18.52C-9.304,18.48 -9.188,18.416 -9.012,18.328C-8.836,18.24 -8.644,18.144 -8.436,18.04C-8.212,17.928 -7.996,17.83 -7.788,17.746C-7.58,17.662 -7.432,17.62 -7.344,17.62C-7.256,17.62 -7.196,17.646 -7.164,17.698C-7.132,17.75 -7.116,17.808 -7.116,17.872L-7.116,17.92C-7.116,18 -7.128,18.128 -7.152,18.304C-7.176,18.48 -7.202,18.696 -7.23,18.952C-7.258,19.208 -7.284,19.504 -7.308,19.84C-7.332,20.176 -7.344,20.54 -7.344,20.932L-7.344,21.508ZM-7.824,15.268C-7.784,15.276 -7.718,15.32 -7.626,15.4C-7.534,15.48 -7.44,15.572 -7.344,15.676C-7.248,15.78 -7.164,15.88 -7.092,15.976C-7.02,16.072 -6.984,16.136 -6.984,16.168C-6.984,16.208 -7.032,16.268 -7.128,16.348C-7.224,16.428 -7.334,16.51 -7.458,16.594C-7.582,16.678 -7.702,16.752 -7.818,16.816C-7.934,16.88 -8.016,16.912 -8.064,16.912C-8.088,16.912 -8.146,16.874 -8.238,16.798C-8.33,16.722 -8.424,16.636 -8.52,16.54C-8.616,16.444 -8.702,16.35 -8.778,16.258C-8.854,16.166 -8.892,16.104 -8.892,16.072C-8.892,16.032 -8.84,15.97 -8.736,15.886C-8.632,15.802 -8.518,15.714 -8.394,15.622C-8.27,15.53 -8.15,15.45 -8.034,15.382C-7.918,15.314 -7.848,15.276 -7.824,15.268Z" style="fill-rule:nonzero;"/>
            <path d="M1.908,21.196C1.796,21.172 1.672,21.152 1.536,21.136C1.4,21.12 1.256,21.108 1.104,21.1C0.952,21.092 0.802,21.086 0.654,21.082C0.506,21.078 0.368,21.076 0.24,21.076L-0.132,21.076C-0.188,21.076 -0.236,21.08 -0.276,21.088C-0.316,21.096 -0.336,21.108 -0.336,21.124C-0.336,21.332 -0.334,21.574 -0.33,21.85C-0.326,22.126 -0.318,22.402 -0.306,22.678C-0.294,22.954 -0.28,23.208 -0.264,23.44C-0.248,23.672 -0.224,23.84 -0.192,23.944C-0.176,24.008 -0.108,24.054 0.012,24.082C0.132,24.11 0.268,24.124 0.42,24.124C0.484,24.124 0.55,24.122 0.618,24.118C0.686,24.114 0.764,24.112 0.852,24.112C0.94,24.112 1.008,24.132 1.056,24.172C1.104,24.212 1.128,24.26 1.128,24.316C1.128,24.38 1.122,24.436 1.11,24.484C1.098,24.532 1.012,24.556 0.852,24.556C0.788,24.556 0.686,24.552 0.546,24.544C0.406,24.536 0.254,24.528 0.09,24.52C-0.074,24.512 -0.244,24.512 -0.42,24.52C-0.596,24.528 -0.752,24.544 -0.888,24.568C-1.208,24.632 -1.508,24.706 -1.788,24.79C-2.068,24.874 -2.32,24.96 -2.544,25.048C-2.768,25.136 -2.956,25.222 -3.108,25.306C-3.26,25.39 -3.368,25.468 -3.432,25.54C-3.464,25.58 -3.488,25.6 -3.504,25.6L-3.564,25.6C-3.58,25.6 -3.62,25.578 -3.684,25.534C-3.748,25.49 -3.78,25.432 -3.78,25.36C-3.78,25.32 -3.714,25.262 -3.582,25.186C-3.45,25.11 -3.292,25.03 -3.108,24.946C-2.924,24.862 -2.732,24.782 -2.532,24.706C-2.332,24.63 -2.16,24.572 -2.016,24.532C-1.976,24.476 -1.942,24.318 -1.914,24.058C-1.886,23.798 -1.862,23.418 -1.842,22.918C-1.822,22.418 -1.806,21.792 -1.794,21.04C-1.782,20.288 -1.772,19.388 -1.764,18.34C-1.764,18.052 -1.768,17.758 -1.776,17.458C-1.784,17.158 -1.796,16.878 -1.812,16.618C-1.828,16.358 -1.852,16.132 -1.884,15.94C-1.916,15.748 -1.956,15.612 -2.004,15.532C-2.044,15.476 -2.118,15.438 -2.226,15.418C-2.334,15.398 -2.46,15.388 -2.604,15.388L-3.222,15.388C-3.274,15.388 -3.328,15.382 -3.384,15.37C-3.44,15.358 -3.486,15.34 -3.522,15.316C-3.558,15.292 -3.576,15.26 -3.576,15.22C-3.576,15.132 -3.564,15.07 -3.54,15.034C-3.516,14.998 -3.408,14.98 -3.216,14.98C-3.136,14.98 -3.036,14.984 -2.916,14.992C-2.796,15 -2.674,15.006 -2.55,15.01C-2.426,15.014 -2.302,15.02 -2.178,15.028C-2.054,15.036 -1.944,15.04 -1.848,15.04C-1.592,15.04 -1.274,15.016 -0.894,14.968C-0.514,14.92 -0.124,14.888 0.276,14.872C0.572,14.864 0.874,14.858 1.182,14.854C1.49,14.85 1.778,14.846 2.046,14.842C2.314,14.838 2.546,14.834 2.742,14.83C2.938,14.826 3.072,14.816 3.144,14.8C3.216,14.576 3.296,14.382 3.384,14.218C3.472,14.054 3.564,13.968 3.66,13.96C3.7,13.96 3.754,13.974 3.822,14.002C3.89,14.03 3.924,14.068 3.924,14.116C3.9,14.14 3.88,14.164 3.864,14.188C3.832,14.236 3.816,14.272 3.816,14.296C3.72,14.464 3.634,14.68 3.558,14.944C3.482,15.208 3.418,15.48 3.366,15.76C3.314,16.04 3.276,16.312 3.252,16.576C3.228,16.84 3.228,17.06 3.252,17.236C3.228,17.356 3.18,17.416 3.108,17.416C2.98,17.416 2.902,17.394 2.874,17.35C2.846,17.306 2.84,17.26 2.856,17.212C2.872,17.148 2.884,17.066 2.892,16.966C2.9,16.866 2.904,16.784 2.904,16.72C2.904,16.528 2.84,16.362 2.712,16.222C2.584,16.082 2.412,15.966 2.196,15.874C1.98,15.782 1.726,15.712 1.434,15.664C1.142,15.616 0.832,15.592 0.504,15.592C0.416,15.592 0.298,15.594 0.15,15.598C0.002,15.602 -0.108,15.636 -0.18,15.7C-0.196,15.764 -0.212,15.9 -0.228,16.108C-0.244,16.316 -0.258,16.562 -0.27,16.846C-0.282,17.13 -0.292,17.434 -0.3,17.758C-0.308,18.082 -0.314,18.396 -0.318,18.7C-0.322,19.004 -0.326,19.28 -0.33,19.528C-0.334,19.776 -0.336,19.96 -0.336,20.08C-0.176,20.088 -0.022,20.092 0.126,20.092L0.564,20.092C1.044,20.1 1.466,20.09 1.83,20.062C2.194,20.034 2.436,20 2.556,19.96C2.628,19.936 2.686,19.902 2.73,19.858C2.774,19.814 2.81,19.768 2.838,19.72C2.866,19.672 2.894,19.63 2.922,19.594C2.95,19.558 2.98,19.54 3.012,19.54C3.052,19.54 3.092,19.56 3.132,19.6C3.172,19.64 3.184,19.676 3.168,19.708C3.12,19.796 3.076,19.918 3.036,20.074C2.996,20.23 2.962,20.402 2.934,20.59C2.906,20.778 2.882,20.972 2.862,21.172C2.842,21.372 2.832,21.56 2.832,21.736C2.832,21.768 2.834,21.8 2.838,21.832C2.842,21.864 2.844,21.9 2.844,21.94C2.844,21.964 2.826,21.982 2.79,21.994C2.754,22.006 2.718,22.012 2.682,22.012C2.646,22.012 2.612,22.008 2.58,22C2.548,21.992 2.532,21.976 2.532,21.952C2.532,21.904 2.528,21.846 2.52,21.778C2.512,21.71 2.494,21.644 2.466,21.58C2.438,21.516 2.394,21.454 2.334,21.394C2.274,21.334 2.192,21.284 2.088,21.244L1.908,21.196Z" style="fill-rule:nonzero;"/>
            <path d="M5.952,21.508C5.952,21.676 5.956,21.838 5.964,21.994C5.972,22.15 6,22.284 6.048,22.396C6.096,22.508 6.168,22.598 6.264,22.666C6.36,22.734 6.496,22.768 6.672,22.768C6.76,22.768 6.86,22.758 6.972,22.738C7.084,22.718 7.19,22.692 7.29,22.66C7.39,22.628 7.478,22.596 7.554,22.564C7.63,22.532 7.676,22.508 7.692,22.492C7.716,22.468 7.732,22.468 7.74,22.492C7.748,22.516 7.75,22.546 7.746,22.582C7.742,22.618 7.732,22.654 7.716,22.69C7.7,22.726 7.68,22.752 7.656,22.768C7.576,22.808 7.436,22.88 7.236,22.984C7.036,23.088 6.8,23.196 6.528,23.308C6.272,23.42 6.022,23.514 5.778,23.59C5.534,23.666 5.332,23.704 5.172,23.704C4.988,23.704 4.844,23.648 4.74,23.536C4.636,23.424 4.584,23.284 4.584,23.116C4.584,23.06 4.586,23.012 4.59,22.972C4.594,22.932 4.6,22.88 4.608,22.816C4.616,22.736 4.63,22.59 4.65,22.378C4.67,22.166 4.69,21.928 4.71,21.664C4.73,21.4 4.748,21.134 4.764,20.866C4.78,20.598 4.788,20.368 4.788,20.176L4.788,19.756C4.788,19.548 4.776,19.364 4.752,19.204C4.728,19.044 4.688,18.92 4.632,18.832C4.592,18.776 4.542,18.73 4.482,18.694C4.422,18.658 4.348,18.64 4.26,18.64C4.212,18.64 4.164,18.65 4.116,18.67C4.068,18.69 4.032,18.7 4.008,18.7C3.992,18.7 3.966,18.676 3.93,18.628C3.894,18.58 3.896,18.544 3.936,18.52C3.992,18.48 4.108,18.416 4.284,18.328C4.46,18.24 4.652,18.144 4.86,18.04C5.084,17.928 5.3,17.83 5.508,17.746C5.716,17.662 5.864,17.62 5.952,17.62C6.04,17.62 6.1,17.646 6.132,17.698C6.164,17.75 6.18,17.808 6.18,17.872L6.18,17.92C6.18,18 6.168,18.128 6.144,18.304C6.12,18.48 6.094,18.696 6.066,18.952C6.038,19.208 6.012,19.504 5.988,19.84C5.964,20.176 5.952,20.54 5.952,20.932L5.952,21.508ZM5.472,15.268C5.512,15.276 5.578,15.32 5.67,15.4C5.762,15.48 5.856,15.572 5.952,15.676C6.048,15.78 6.132,15.88 6.204,15.976C6.276,16.072 6.312,16.136 6.312,16.168C6.312,16.208 6.264,16.268 6.168,16.348C6.072,16.428 5.962,16.51 5.838,16.594C5.714,16.678 5.594,16.752 5.478,16.816C5.362,16.88 5.28,16.912 5.232,16.912C5.208,16.912 5.15,16.874 5.058,16.798C4.966,16.722 4.872,16.636 4.776,16.54C4.68,16.444 4.594,16.35 4.518,16.258C4.442,16.166 4.404,16.104 4.404,16.072C4.404,16.032 4.456,15.97 4.56,15.886C4.664,15.802 4.778,15.714 4.902,15.622C5.026,15.53 5.146,15.45 5.262,15.382C5.378,15.314 5.448,15.276 5.472,15.268Z" style="fill-rule:nonzero;"/>
            <path d="M11.4,22.372C11.448,22.404 11.472,22.444 11.472,22.492C11.472,22.556 11.38,22.64 11.196,22.744C11.004,22.856 10.75,22.988 10.434,23.14C10.118,23.292 9.804,23.424 9.492,23.536C9.34,23.592 9.204,23.64 9.084,23.68C8.964,23.72 8.856,23.74 8.76,23.74C8.648,23.74 8.51,23.714 8.346,23.662C8.182,23.61 8.04,23.548 7.92,23.476C7.824,23.412 7.748,23.362 7.692,23.326C7.636,23.29 7.608,23.252 7.608,23.212C7.608,23.18 7.618,23.15 7.638,23.122C7.658,23.094 7.676,23.06 7.692,23.02C7.7,22.996 7.708,22.964 7.716,22.924C7.724,22.884 7.728,22.844 7.728,22.804C7.752,22.604 7.778,22.314 7.806,21.934C7.834,21.554 7.856,21.134 7.872,20.674C7.888,20.214 7.902,19.738 7.914,19.246C7.926,18.754 7.932,18.296 7.932,17.872C7.932,17.352 7.93,16.932 7.926,16.612C7.922,16.292 7.912,16.036 7.896,15.844C7.872,15.58 7.84,15.406 7.8,15.322C7.76,15.238 7.716,15.176 7.668,15.136C7.612,15.088 7.558,15.058 7.506,15.046C7.454,15.034 7.406,15.026 7.362,15.022C7.318,15.018 7.282,15.016 7.254,15.016C7.226,15.016 7.212,15.008 7.212,14.992C7.212,14.728 7.324,14.596 7.548,14.596C7.716,14.596 7.914,14.598 8.142,14.602C8.37,14.606 8.56,14.608 8.712,14.608C8.808,14.608 8.91,14.602 9.018,14.59C9.126,14.578 9.232,14.566 9.336,14.554C9.44,14.542 9.536,14.528 9.624,14.512C9.712,14.496 9.776,14.48 9.816,14.464C9.848,14.456 9.874,14.468 9.894,14.5C9.914,14.532 9.926,14.572 9.93,14.62C9.934,14.668 9.926,14.712 9.906,14.752C9.886,14.792 9.86,14.816 9.828,14.824C9.78,14.832 9.738,14.836 9.702,14.836C9.666,14.836 9.604,14.852 9.516,14.884C9.476,14.9 9.44,14.95 9.408,15.034C9.376,15.118 9.348,15.25 9.324,15.43C9.3,15.61 9.276,15.846 9.252,16.138C9.228,16.43 9.204,16.796 9.18,17.236C9.156,17.588 9.138,17.946 9.126,18.31C9.114,18.674 9.102,19.028 9.09,19.372C9.078,19.716 9.07,20.036 9.066,20.332C9.062,20.628 9.06,20.88 9.06,21.088C9.06,21.32 9.062,21.554 9.066,21.79C9.07,22.026 9.092,22.212 9.132,22.348C9.172,22.476 9.276,22.596 9.444,22.708C9.612,22.82 9.788,22.876 9.972,22.876C10.116,22.876 10.264,22.856 10.416,22.816C10.568,22.776 10.708,22.728 10.836,22.672C10.964,22.616 11.078,22.56 11.178,22.504C11.278,22.448 11.352,22.404 11.4,22.372Z" style="fill-rule:nonzero;"/>
            <path d="M16.308,21.928C16.324,21.912 16.338,21.914 16.35,21.934C16.362,21.954 16.37,21.982 16.374,22.018C16.378,22.054 16.376,22.092 16.368,22.132C16.36,22.172 16.344,22.204 16.32,22.228C16.16,22.38 15.96,22.54 15.72,22.708C15.48,22.876 15.232,23.032 14.976,23.176C14.904,23.216 14.804,23.268 14.676,23.332C14.548,23.396 14.406,23.458 14.25,23.518C14.094,23.578 13.934,23.63 13.77,23.674C13.606,23.718 13.452,23.74 13.308,23.74C13.02,23.74 12.748,23.684 12.492,23.572C12.236,23.46 12.012,23.306 11.82,23.11C11.628,22.914 11.478,22.68 11.37,22.408C11.262,22.136 11.208,21.84 11.208,21.52C11.208,21.176 11.256,20.852 11.352,20.548C11.448,20.244 11.558,19.972 11.682,19.732C11.806,19.492 11.924,19.29 12.036,19.126C12.148,18.962 12.224,18.84 12.264,18.76C12.112,18.752 11.974,18.746 11.85,18.742C11.726,18.738 11.608,18.736 11.496,18.736C11.24,18.736 11.024,18.738 10.848,18.742C10.672,18.746 10.516,18.764 10.38,18.796C10.316,18.812 10.256,18.844 10.2,18.892C10.144,18.94 10.096,18.976 10.056,19C10.04,18.984 10.018,18.962 9.99,18.934C9.962,18.906 9.948,18.876 9.948,18.844C9.948,18.828 9.952,18.816 9.96,18.808C9.96,18.8 10.012,18.754 10.116,18.67C10.22,18.586 10.35,18.486 10.506,18.37C10.662,18.254 10.834,18.126 11.022,17.986C11.21,17.846 11.39,17.716 11.562,17.596C11.734,17.476 11.882,17.374 12.006,17.29C12.13,17.206 12.212,17.156 12.252,17.14C12.3,17.124 12.348,17.132 12.396,17.164C12.444,17.196 12.46,17.22 12.444,17.236C12.42,17.252 12.384,17.282 12.336,17.326C12.288,17.37 12.272,17.408 12.288,17.44C12.376,17.512 12.528,17.576 12.744,17.632C12.96,17.688 13.204,17.734 13.476,17.77C13.748,17.806 14.028,17.834 14.316,17.854C14.604,17.874 14.864,17.884 15.096,17.884C15.44,17.884 15.716,17.874 15.924,17.854C16.132,17.834 16.304,17.808 16.44,17.776C16.568,17.744 16.652,17.72 16.692,17.704C16.7,17.704 16.716,17.716 16.74,17.74C16.764,17.764 16.776,17.792 16.776,17.824C16.776,17.84 16.718,17.88 16.602,17.944C16.486,18.008 16.368,18.076 16.248,18.148C16.176,18.188 16.09,18.24 15.99,18.304C15.89,18.368 15.782,18.43 15.666,18.49C15.55,18.55 15.428,18.604 15.3,18.652C15.172,18.7 15.048,18.728 14.928,18.736C14.808,18.752 14.668,18.764 14.508,18.772C14.348,18.78 14.18,18.786 14.004,18.79C13.828,18.794 13.65,18.798 13.47,18.802C13.29,18.806 13.124,18.808 12.972,18.808C12.948,18.848 12.91,18.914 12.858,19.006C12.806,19.098 12.756,19.216 12.708,19.36C12.66,19.504 12.616,19.668 12.576,19.852C12.536,20.036 12.516,20.236 12.516,20.452C12.516,20.78 12.566,21.082 12.666,21.358C12.766,21.634 12.906,21.872 13.086,22.072C13.266,22.272 13.48,22.428 13.728,22.54C13.976,22.652 14.244,22.708 14.532,22.708C14.7,22.708 14.862,22.688 15.018,22.648C15.174,22.608 15.322,22.556 15.462,22.492C15.602,22.428 15.732,22.358 15.852,22.282C15.972,22.206 16.076,22.132 16.164,22.06L16.308,21.928Z" style="fill-rule:nonzero;"/>
            <path d="M21.84,22.192C21.752,22.288 21.616,22.42 21.432,22.588C21.248,22.756 21.026,22.924 20.766,23.092C20.506,23.26 20.216,23.404 19.896,23.524C19.576,23.644 19.236,23.704 18.876,23.704C18.548,23.704 18.228,23.654 17.916,23.554C17.604,23.454 17.324,23.302 17.076,23.098C16.828,22.894 16.63,22.634 16.482,22.318C16.334,22.002 16.26,21.624 16.26,21.184C16.26,20.824 16.284,20.514 16.332,20.254C16.38,19.994 16.444,19.766 16.524,19.57C16.604,19.374 16.694,19.206 16.794,19.066C16.894,18.926 16.996,18.8 17.1,18.688C17.228,18.544 17.384,18.408 17.568,18.28C17.752,18.152 17.95,18.036 18.162,17.932C18.374,17.828 18.598,17.746 18.834,17.686C19.07,17.626 19.308,17.596 19.548,17.596C19.98,17.596 20.318,17.668 20.562,17.812C20.806,17.956 20.928,18.156 20.928,18.412C20.928,18.572 20.88,18.72 20.784,18.856C20.864,18.832 20.966,18.792 21.09,18.736C21.214,18.68 21.34,18.622 21.468,18.562C21.596,18.502 21.71,18.448 21.81,18.4C21.91,18.352 21.976,18.316 22.008,18.292C22.024,18.276 22.042,18.27 22.062,18.274C22.082,18.278 22.092,18.292 22.092,18.316C22.092,18.42 22.072,18.506 22.032,18.574C21.992,18.642 21.944,18.696 21.888,18.736C21.76,18.816 21.576,18.916 21.336,19.036C21.096,19.156 20.83,19.282 20.538,19.414C20.246,19.546 19.944,19.678 19.632,19.81C19.32,19.942 19.026,20.068 18.75,20.188C18.474,20.308 18.234,20.414 18.03,20.506C17.826,20.598 17.688,20.664 17.616,20.704C17.616,20.976 17.67,21.23 17.778,21.466C17.886,21.702 18.036,21.908 18.228,22.084C18.42,22.26 18.65,22.398 18.918,22.498C19.186,22.598 19.48,22.648 19.8,22.648C20.088,22.648 20.348,22.618 20.58,22.558C20.812,22.498 21.008,22.43 21.168,22.354C21.328,22.278 21.454,22.21 21.546,22.15C21.638,22.09 21.688,22.06 21.696,22.06C21.728,22.06 21.76,22.074 21.792,22.102C21.824,22.13 21.84,22.16 21.84,22.192ZM17.616,20.356C17.752,20.308 17.906,20.25 18.078,20.182C18.25,20.114 18.418,20.04 18.582,19.96C18.746,19.88 18.896,19.804 19.032,19.732C19.168,19.66 19.272,19.596 19.344,19.54C19.488,19.436 19.56,19.26 19.56,19.012C19.56,18.916 19.542,18.816 19.506,18.712C19.47,18.608 19.416,18.514 19.344,18.43C19.272,18.346 19.184,18.278 19.08,18.226C18.976,18.174 18.86,18.148 18.732,18.148C18.62,18.148 18.5,18.186 18.372,18.262C18.244,18.338 18.124,18.462 18.012,18.634C17.9,18.806 17.806,19.034 17.73,19.318C17.654,19.602 17.616,19.948 17.616,20.356Z" style="fill-rule:nonzero;"/>
            <path d="M27.408,18.496C27.32,18.568 27.216,18.658 27.096,18.766C26.976,18.874 26.85,18.978 26.718,19.078C26.586,19.178 26.452,19.264 26.316,19.336C26.18,19.408 26.048,19.444 25.92,19.444C25.808,19.444 25.708,19.418 25.62,19.366C25.532,19.314 25.45,19.258 25.374,19.198C25.298,19.138 25.224,19.082 25.152,19.03C25.08,18.978 25.004,18.952 24.924,18.952C24.708,18.952 24.526,19.04 24.378,19.216C24.23,19.392 24.11,19.616 24.018,19.888C23.926,20.16 23.858,20.456 23.814,20.776C23.77,21.096 23.748,21.404 23.748,21.7C23.748,21.948 23.758,22.15 23.778,22.306C23.798,22.462 23.828,22.586 23.868,22.678C23.908,22.77 23.962,22.832 24.03,22.864C24.098,22.896 24.18,22.912 24.276,22.912C24.38,22.912 24.492,22.896 24.612,22.864C24.636,22.856 24.654,22.872 24.666,22.912C24.678,22.952 24.684,22.984 24.684,23.008C24.684,23.024 24.672,23.042 24.648,23.062C24.624,23.082 24.608,23.092 24.6,23.092C24.424,23.164 24.244,23.242 24.06,23.326C23.876,23.41 23.724,23.48 23.604,23.536C23.492,23.584 23.358,23.636 23.202,23.692C23.046,23.748 22.912,23.776 22.8,23.776C22.672,23.776 22.566,23.756 22.482,23.716C22.398,23.676 22.356,23.636 22.356,23.596C22.356,23.556 22.366,23.52 22.386,23.488C22.406,23.456 22.424,23.396 22.44,23.308C22.456,23.188 22.474,23.046 22.494,22.882C22.514,22.718 22.534,22.54 22.554,22.348C22.574,22.156 22.59,21.958 22.602,21.754C22.614,21.55 22.62,21.348 22.62,21.148C22.62,20.7 22.606,20.32 22.578,20.008C22.55,19.696 22.5,19.444 22.428,19.252C22.356,19.06 22.258,18.922 22.134,18.838C22.01,18.754 21.852,18.712 21.66,18.712L21.552,18.712C21.52,18.712 21.488,18.716 21.456,18.724C21.408,18.724 21.384,18.7 21.384,18.652C21.384,18.604 21.408,18.568 21.456,18.544C21.544,18.488 21.68,18.406 21.864,18.298C22.048,18.19 22.238,18.086 22.434,17.986C22.63,17.886 22.82,17.796 23.004,17.716C23.188,17.636 23.324,17.596 23.412,17.596C23.516,17.596 23.604,17.63 23.676,17.698C23.748,17.766 23.802,17.852 23.838,17.956C23.874,18.06 23.9,18.178 23.916,18.31C23.932,18.442 23.94,18.572 23.94,18.7C23.94,18.796 23.938,18.896 23.934,19C23.93,19.104 23.928,19.216 23.928,19.336C24.288,18.808 24.612,18.398 24.9,18.106C25.188,17.814 25.46,17.668 25.716,17.668C25.812,17.668 25.906,17.708 25.998,17.788C26.09,17.868 26.188,17.958 26.292,18.058C26.396,18.158 26.504,18.248 26.616,18.328C26.728,18.408 26.844,18.448 26.964,18.448C27.068,18.448 27.144,18.436 27.192,18.412C27.24,18.388 27.28,18.368 27.312,18.352C27.376,18.352 27.408,18.396 27.408,18.484L27.408,18.496Z" style="fill-rule:nonzero;"/>
        </g>
        <g transform="matrix(1,0,0,1,43.2454,1.87477)">
            <text x="-39.144px" y="23.596px" style="font-family:'Luminari-Regular', 'Luminari';font-size:12px;">Multi Filter</text>
        </g>
        <g transform="matrix(0.0178906,0,0,0.0202937,-16.7622,10.0338)">
            <g transform="matrix(55.8954,0,0,49.2765,-878.032,-330.791)">
                <path d="M27.733,13.757C27.957,11.616 28.949,10 30.136,10C31.489,10 32.587,12.095 32.587,14.677C32.587,15.669 32.424,16.59 32.148,17.347C32.432,17.974 32.587,18.65 32.587,19.353C32.587,22.678 29.128,25.378 24.868,25.378C20.609,25.378 17.15,22.678 17.15,19.353C17.15,18.65 17.305,17.974 17.589,17.347C17.313,16.59 17.15,15.669 17.15,14.677C17.15,12.095 18.248,10 19.601,10C20.788,10 21.779,11.616 22.003,13.757L22.04,13.746C22.915,13.476 23.87,13.328 24.868,13.328C25.881,13.328 26.847,13.48 27.733,13.757ZM17.609,17.304L17.606,17.31L17.609,17.304ZM32.128,17.305L32.131,17.31L32.128,17.305ZM17.627,17.265L17.623,17.273L17.627,17.265ZM32.11,17.266L32.113,17.273L32.11,17.266ZM17.645,17.227L17.641,17.236L17.645,17.227ZM32.092,17.228L32.096,17.236L32.092,17.228ZM17.663,17.19L17.659,17.2L17.663,17.19ZM32.074,17.191L32.078,17.199L32.074,17.191ZM17.682,17.153L17.677,17.162L17.682,17.153ZM32.055,17.154L32.059,17.161L32.055,17.154ZM17.7,17.117L17.696,17.125L17.7,17.117ZM32.037,17.117L32.04,17.123L32.037,17.117ZM17.719,17.081L17.717,17.085L17.719,17.081ZM32.018,17.081L32.019,17.082L32.018,17.081ZM17.782,16.964L17.778,16.971L17.782,16.964ZM31.957,16.968L31.958,16.97L31.957,16.968ZM17.804,16.925L17.798,16.935L17.804,16.925ZM31.935,16.928L31.938,16.934L31.935,16.928ZM17.825,16.888L17.818,16.9L17.825,16.888ZM31.914,16.891L31.918,16.899L31.914,16.891ZM17.845,16.852L17.838,16.865L17.845,16.852ZM31.893,16.854L31.898,16.863L31.893,16.854ZM17.866,16.817L17.859,16.829L17.866,16.817ZM31.871,16.819L31.876,16.827L31.871,16.819ZM17.888,16.782L17.88,16.794L17.888,16.782ZM31.85,16.783L31.855,16.791L31.85,16.783ZM17.909,16.747L17.902,16.758L17.909,16.747ZM31.829,16.748L31.832,16.754L31.829,16.748ZM17.931,16.712L17.925,16.72L17.931,16.712ZM31.807,16.713L31.808,16.714L31.807,16.713ZM17.979,16.635L17.975,16.642L17.979,16.635ZM18.005,16.596L17.998,16.608L18.005,16.596ZM31.735,16.602L31.738,16.606L31.735,16.602ZM18.029,16.561L18.02,16.573L18.029,16.561ZM31.711,16.564L31.716,16.572L31.711,16.564ZM18.052,16.526L18.043,16.539L18.052,16.526ZM31.686,16.529L31.692,16.537L31.686,16.529ZM18.076,16.492L18.066,16.505L18.076,16.492ZM31.663,16.494L31.669,16.503L31.663,16.494ZM18.1,16.458L18.09,16.471L18.1,16.458ZM31.639,16.459L31.645,16.469L31.639,16.459ZM18.124,16.424L18.114,16.437L18.124,16.424ZM31.614,16.425L31.62,16.434L31.614,16.425ZM18.148,16.39L18.139,16.403L18.148,16.39ZM31.59,16.392L31.595,16.398L31.59,16.392ZM18.172,16.357L18.164,16.367L18.172,16.357ZM31.566,16.358L31.567,16.36L31.566,16.358ZM18.197,16.324L18.196,16.324L18.197,16.324ZM18.23,16.28L18.222,16.291L18.23,16.28ZM31.513,16.288L31.514,16.289L31.513,16.288ZM18.257,16.245L18.247,16.258L18.257,16.245ZM31.484,16.249L31.489,16.256L31.484,16.249ZM18.283,16.211L18.272,16.225L18.283,16.211ZM31.456,16.214L31.463,16.223L31.456,16.214ZM18.309,16.178L18.298,16.192L18.309,16.178ZM31.43,16.18L31.438,16.19L31.43,16.18ZM18.335,16.145L18.324,16.16L18.335,16.145ZM31.403,16.147L31.411,16.158L31.403,16.147ZM18.362,16.113L18.35,16.127L18.362,16.113ZM31.376,16.114L31.385,16.125L31.376,16.114ZM18.388,16.081L18.377,16.094L18.388,16.081ZM31.35,16.082L31.357,16.091L31.35,16.082ZM18.415,16.049L18.404,16.061L18.415,16.049ZM31.323,16.05L31.329,16.057L31.323,16.05ZM18.442,16.017L18.433,16.027L18.442,16.017ZM31.295,16.018L31.298,16.021L31.295,16.018ZM18.473,15.981L18.469,15.985L18.473,15.981ZM18.507,15.942L18.497,15.954L18.507,15.942ZM31.234,15.947L31.239,15.953L31.234,15.947ZM18.536,15.909L18.525,15.922L18.536,15.909ZM31.203,15.912L31.211,15.921L31.203,15.912ZM18.565,15.877L18.553,15.891L18.565,15.877ZM31.174,15.879L31.183,15.89L31.174,15.879ZM18.594,15.846L18.581,15.86L18.594,15.846ZM31.145,15.847L31.155,15.859L31.145,15.847ZM18.622,15.815L18.61,15.828L18.622,15.815ZM31.115,15.816L31.126,15.827L31.115,15.816ZM18.651,15.784L18.639,15.797L18.651,15.784ZM31.086,15.785L31.097,15.796L31.086,15.785ZM18.68,15.753L18.668,15.766L18.68,15.753ZM31.057,15.754L31.067,15.765L31.057,15.754ZM18.71,15.723L18.698,15.735L18.71,15.723ZM31.027,15.723L31.037,15.733L31.027,15.723ZM18.739,15.692L18.73,15.702L18.739,15.692ZM30.998,15.693L31.003,15.698L30.998,15.693ZM18.775,15.656L18.769,15.662L18.775,15.656ZM30.965,15.659L30.967,15.662L30.965,15.659ZM18.81,15.621L18.799,15.632L18.81,15.621ZM30.928,15.622L30.937,15.632L30.928,15.622ZM18.842,15.59L18.83,15.602L18.842,15.59ZM30.895,15.591L30.907,15.602L30.895,15.591ZM18.873,15.56L18.86,15.572L18.873,15.56ZM30.864,15.56L30.876,15.572L30.864,15.56ZM18.904,15.53L18.891,15.543L18.904,15.53ZM30.832,15.53L30.846,15.543L30.832,15.53ZM30.801,15.5L30.814,15.513L30.801,15.5ZM18.936,15.501L18.923,15.513L18.936,15.501ZM30.769,15.471L30.783,15.484L30.769,15.471ZM18.967,15.471L18.954,15.483L18.967,15.471ZM30.738,15.442L30.751,15.454L30.738,15.442ZM18.999,15.442L18.986,15.454L18.999,15.442ZM30.706,15.413L30.719,15.425L30.706,15.413ZM19.031,15.413L19.019,15.424L19.031,15.413ZM30.674,15.384L30.684,15.394L30.674,15.384ZM19.063,15.385L19.056,15.391L19.063,15.385ZM30.63,15.346L30.642,15.356L30.63,15.346ZM19.101,15.35L19.095,15.356L19.101,15.35ZM30.595,15.315L30.61,15.328L30.595,15.315ZM19.139,15.318L19.128,15.327L19.139,15.318ZM30.561,15.286L30.577,15.3L30.561,15.286ZM19.173,15.288L19.161,15.299L19.173,15.288ZM30.528,15.258L30.544,15.272L30.528,15.258ZM19.207,15.26L19.194,15.271L19.207,15.26ZM30.494,15.23L30.511,15.244L30.494,15.23ZM19.241,15.231L19.227,15.243L19.241,15.231ZM30.461,15.202L30.478,15.216L30.461,15.202ZM19.274,15.204L19.261,15.215L19.274,15.204ZM30.427,15.175L30.444,15.189L30.427,15.175ZM19.308,15.176L19.295,15.187L19.308,15.176ZM30.393,15.147L30.41,15.161L30.393,15.147ZM19.342,15.149L19.33,15.158L19.342,15.149ZM30.359,15.12L30.376,15.134L30.359,15.12ZM19.377,15.121L19.366,15.129L19.377,15.121ZM30.325,15.093L30.343,15.107L30.326,15.094L30.305,15.078L30.325,15.093ZM19.411,15.094L19.409,15.096L19.411,15.094ZM30.273,15.053L30.292,15.068L30.273,15.053ZM19.452,15.062L19.446,15.067L19.452,15.062ZM30.238,15.027L30.257,15.041L30.238,15.027ZM19.492,15.032L19.481,15.04L19.492,15.032ZM30.203,15L30.222,15.015L30.203,15ZM19.529,15.004L19.516,15.013L19.529,15.004ZM30.168,14.974L30.187,14.989L30.168,14.974ZM19.565,14.977L19.552,14.987L19.565,14.977ZM30.132,14.948L30.152,14.963L30.132,14.948ZM19.601,14.951L19.588,14.961L19.601,14.951ZM30.097,14.922L30.117,14.937L30.097,14.922ZM19.637,14.925L19.624,14.934L19.637,14.925ZM30.061,14.897L30.081,14.911L30.061,14.897ZM19.673,14.899L19.661,14.908L19.673,14.899ZM30.025,14.871L30.046,14.886L30.025,14.871ZM19.71,14.873L19.698,14.881L19.71,14.873ZM29.988,14.846L30.011,14.862L29.988,14.846ZM19.746,14.848L19.738,14.853L19.746,14.848ZM29.954,14.822L29.915,14.796C29.928,14.805 29.941,14.813 29.954,14.822ZM19.826,14.793L19.821,14.796L19.826,14.793ZM29.858,14.758L29.881,14.773L29.858,14.758ZM19.868,14.765L19.858,14.771L19.868,14.765ZM29.822,14.734L29.845,14.749L29.822,14.734ZM19.907,14.739L19.896,14.747L19.907,14.739ZM29.785,14.71L29.807,14.724L29.785,14.71ZM19.946,14.714L19.933,14.722L19.946,14.714ZM29.747,14.686L29.77,14.7L29.747,14.686ZM19.984,14.689L19.971,14.697L19.984,14.689ZM29.71,14.662L29.733,14.676L29.71,14.662ZM20.023,14.665L20.01,14.673L20.023,14.665ZM29.672,14.638L29.696,14.653L29.672,14.638ZM20.061,14.641L20.049,14.648L20.061,14.641ZM29.634,14.615L29.659,14.63L29.634,14.615ZM20.099,14.617L20.09,14.623L20.099,14.617ZM29.494,14.531C29.537,14.556 29.58,14.582 29.623,14.608C29.581,14.582 29.538,14.556 29.494,14.531ZM20.138,14.593L20.134,14.596L20.138,14.593ZM20.221,14.543L20.218,14.545L20.221,14.543ZM29.458,14.51L29.483,14.525L29.458,14.51ZM20.266,14.517L20.257,14.522L20.266,14.517ZM29.42,14.488L29.444,14.502L29.42,14.488ZM20.308,14.493L20.297,14.499L20.308,14.493ZM29.381,14.466L29.405,14.48L29.381,14.466ZM20.349,14.47L20.337,14.477L20.349,14.47ZM29.341,14.444L29.366,14.457L29.341,14.444ZM20.389,14.447L20.377,14.454L20.389,14.447ZM29.302,14.422L29.327,14.436L29.302,14.422ZM20.43,14.425L20.418,14.431L20.43,14.425ZM29.262,14.4L29.288,14.414L29.262,14.4ZM20.47,14.403L20.46,14.408L20.47,14.403ZM29.222,14.379L29.249,14.393L29.222,14.379ZM20.51,14.381L20.503,14.385L20.51,14.381ZM29.186,14.359L29.143,14.337C29.157,14.344 29.171,14.352 29.186,14.359ZM29.077,14.303L29.105,14.317L29.077,14.303ZM20.638,14.314L20.636,14.315L20.638,14.314ZM29.038,14.283L29.064,14.296L29.038,14.283ZM20.685,14.29L20.677,14.294L20.685,14.29ZM28.998,14.263L29.023,14.276L28.998,14.263ZM20.729,14.268L20.719,14.273L20.729,14.268ZM28.957,14.243L28.982,14.255L28.957,14.243ZM20.772,14.247L20.761,14.252L20.772,14.247ZM28.916,14.223L28.941,14.235L28.916,14.223ZM20.814,14.226L20.803,14.232L20.814,14.226ZM28.875,14.203L28.899,14.215L28.875,14.203ZM20.857,14.206L20.846,14.211L20.857,14.206ZM28.833,14.184L28.858,14.195L28.833,14.184ZM20.899,14.186L20.891,14.19L20.899,14.186ZM28.791,14.164L28.817,14.176L28.791,14.164ZM20.942,14.166L20.937,14.168L20.942,14.166ZM28.752,14.146L28.707,14.126C28.722,14.133 28.737,14.139 28.752,14.146ZM28.643,14.097L28.667,14.108L28.643,14.097ZM21.075,14.106L21.074,14.106L21.075,14.106ZM28.601,14.079L28.624,14.089L28.601,14.079ZM21.124,14.084L21.117,14.087L21.124,14.084ZM28.558,14.061L28.581,14.071L28.558,14.061ZM21.17,14.065L21.161,14.068L21.17,14.065ZM28.516,14.043L28.538,14.052L28.516,14.043ZM21.215,14.046L21.204,14.05L21.215,14.046ZM28.473,14.025L28.494,14.034L28.473,14.025ZM21.259,14.027L21.249,14.031L21.259,14.027ZM28.429,14.007L28.451,14.016L28.429,14.007ZM21.303,14.009L21.294,14.013L21.303,14.009ZM28.386,13.989L28.406,13.998L28.386,13.989ZM21.347,13.991L21.341,13.994L21.347,13.991ZM28.342,13.972L28.361,13.979L28.342,13.972ZM21.392,13.973L21.391,13.974L21.392,13.973ZM28.298,13.955L28.311,13.96L28.298,13.955ZM28.243,13.934L28.254,13.938L28.243,13.934ZM28.195,13.915L28.21,13.921L28.195,13.915ZM21.531,13.92L21.53,13.92L21.531,13.92ZM28.149,13.898L28.165,13.904L28.149,13.898ZM21.581,13.901L21.575,13.903L21.581,13.901ZM28.103,13.882L28.119,13.888L28.103,13.882ZM21.629,13.884L21.62,13.887L21.629,13.884ZM28.058,13.866L28.074,13.871L28.058,13.866ZM21.675,13.867L21.666,13.87L21.675,13.867ZM28.013,13.85L28.028,13.855L28.013,13.85ZM21.721,13.851L21.713,13.854L21.721,13.851ZM27.968,13.834L27.981,13.839L27.968,13.834ZM21.767,13.835L21.76,13.837L21.767,13.835ZM27.922,13.819L27.932,13.822L27.922,13.819ZM21.813,13.819L21.809,13.821L21.813,13.819ZM27.877,13.803L27.879,13.804L27.877,13.803Z" style="fill:none;stroke:black;stroke-width:1.22px;"/>
            </g>
            <g transform="matrix(55.8954,0,0,49.2765,-878.032,-330.791)">
                <path d="M25.128,19.358C24.963,19.04 24.868,18.67 24.868,18.275C24.868,17.096 25.713,16.138 26.753,16.138C27.793,16.138 28.637,17.096 28.637,18.275C28.637,19.031 28.291,19.696 27.768,20.076C27.128,19.668 26.188,19.396 25.128,19.358ZM21.969,20.076C21.446,19.696 21.099,19.031 21.099,18.275C21.099,17.096 21.944,16.138 22.984,16.138C24.024,16.138 24.868,17.096 24.868,18.275C24.868,18.67 24.774,19.04 24.609,19.358C23.549,19.396 22.609,19.668 21.969,20.076Z" style="fill:none;stroke:black;stroke-width:1.22px;"/>
            </g>
            <g transform="matrix(1,0,0,1,-53.1856,50.0357)">
                <ellipse cx="565.186" cy="671.455" rx="210.672" ry="98.631" style="fill:none;stroke:black;stroke-width:63.81px;"/>
            </g>
            <g transform="matrix(51.2,0,0,45.1371,0.670978,88.9676)">
                <path d="M12.057,13.791C12.057,13.668 11.958,13.568 11.835,13.568L8.139,13.568C8.016,13.568 7.916,13.668 7.916,13.791L7.916,14.236C7.916,14.359 8.016,14.458 8.139,14.458L11.835,14.458C11.958,14.458 12.057,14.359 12.057,14.236L12.057,13.791Z"/>
            </g>
        </g>
    </g>
</svg>
