<?xml version="1.0" encoding="UTF-8" standalone="no"?>
<!DOCTYPE svg PUBLIC "-//W3C//DTD SVG 1.1//EN" "http://www.w3.org/Graphics/SVG/1.1/DTD/svg11.dtd">
<svg width="100%" height="100%" viewBox="0 0 60 380" version="1.1" xmlns="http://www.w3.org/2000/svg" xmlns:xlink="http://www.w3.org/1999/xlink" xml:space="preserve" xmlns:serif="http://www.serif.com/" style="fill-rule:evenodd;clip-rule:evenodd;stroke-linecap:round;stroke-linejoin:round;stroke-miterlimit:1.5;">
    <g transform="matrix(0.28834,0,0,2.01589,-15.1541,-120.797)">
        <rect x="52.556" y="59.922" width="208.087" height="188.503" style="fill:rgb(154,178,191);stroke:rgb(5,5,5);stroke-width:1.39px;"/>
    </g>
    <g transform="matrix(1,0,0,1,-0.329245,-44.7495)">
        <path d="M34.994,286.472L42.239,286.472L30.329,313.281L18.419,286.472L25.828,286.472L25.828,88.038L34.994,88.038L34.994,286.472Z" style="fill:rgb(153,153,153);"/>
    </g>
    <g transform="matrix(1,0,0,1,-5.68661,33.6251)">
        <g id="AudioOutput-output" serif:id="AudioOutput#output" transform="matrix(0.175002,0,0,0.175002,12.7528,278.064)">
            <rect x="53.94" y="106.916" width="161.978" height="161.978" style="fill:rgb(77,77,77);"/>
        </g>
        <g transform="matrix(1,0,0,1,-58.177,174.087)">
            <path d="M89.528,114.936C89.528,114.73 89.541,114.54 89.568,114.366C89.595,114.193 89.645,114.04 89.718,113.906C89.838,113.686 90.01,113.51 90.233,113.376C90.456,113.243 90.728,113.176 91.048,113.176C91.368,113.176 91.64,113.243 91.863,113.376C92.086,113.51 92.258,113.686 92.378,113.906C92.451,114.04 92.501,114.193 92.528,114.366C92.555,114.54 92.568,114.73 92.568,114.936L92.568,116.606C92.568,116.813 92.555,117.003 92.528,117.176C92.501,117.35 92.451,117.503 92.378,117.636C92.258,117.856 92.086,118.033 91.863,118.166C91.64,118.3 91.368,118.366 91.048,118.366C90.728,118.366 90.456,118.3 90.233,118.166C90.01,118.033 89.838,117.856 89.718,117.636C89.645,117.503 89.595,117.35 89.568,117.176C89.541,117.003 89.528,116.813 89.528,116.606L89.528,114.936ZM90.548,116.766C90.548,116.96 90.593,117.105 90.683,117.201C90.773,117.298 90.895,117.346 91.048,117.346C91.201,117.346 91.323,117.298 91.413,117.201C91.503,117.105 91.548,116.96 91.548,116.766L91.548,114.776C91.548,114.583 91.503,114.438 91.413,114.341C91.323,114.245 91.201,114.196 91.048,114.196C90.895,114.196 90.773,114.245 90.683,114.341C90.593,114.438 90.548,114.583 90.548,114.776L90.548,116.766Z" style="fill-rule:nonzero;"/>
            <path d="M96.368,113.236L96.368,118.306L95.348,118.306L95.348,117.816L95.328,117.816C95.221,117.976 95.093,118.108 94.943,118.211C94.793,118.315 94.601,118.366 94.368,118.366C94.241,118.366 94.115,118.345 93.988,118.301C93.861,118.258 93.748,118.186 93.648,118.086C93.548,117.986 93.468,117.858 93.408,117.701C93.348,117.545 93.318,117.353 93.318,117.126L93.318,113.236L94.338,113.236L94.338,116.746C94.338,116.933 94.381,117.08 94.468,117.186C94.555,117.293 94.678,117.346 94.838,117.346C95.031,117.346 95.165,117.286 95.238,117.166C95.311,117.046 95.348,116.873 95.348,116.646L95.348,113.236L96.368,113.236Z" style="fill-rule:nonzero;"/>
            <path d="M97.208,113.236L97.208,111.696L98.228,111.696L98.228,113.236L98.858,113.236L98.858,114.036L98.228,114.036L98.228,116.846C98.228,116.966 98.24,117.06 98.263,117.126C98.286,117.193 98.325,117.243 98.378,117.276C98.431,117.31 98.496,117.33 98.573,117.336C98.65,117.343 98.745,117.346 98.858,117.346L98.858,118.306L98.438,118.306C98.205,118.306 98.01,118.27 97.853,118.196C97.696,118.123 97.571,118.03 97.478,117.916C97.385,117.803 97.316,117.675 97.273,117.531C97.23,117.388 97.208,117.25 97.208,117.116L97.208,114.036L96.698,114.036L96.698,113.236L97.208,113.236Z" style="fill-rule:nonzero;"/>
        </g>
        <g transform="matrix(1,0,0,1,-58.177,174.087)">
            <text x="89.198px" y="118.306px" style="font-family:'DINCondensed-Bold', 'DIN Condensed';font-weight:700;font-stretch:condensed;font-size:10px;">out</text>
        </g>
    </g>
    <g transform="matrix(1,0,0,1,-5.68661,41.5849)">
        <g id="AudioInput-input" serif:id="AudioInput#input" transform="matrix(0.175002,0,0,0.175002,12.0738,225.875)">
            <rect x="53.94" y="106.916" width="161.978" height="161.978" style="fill:rgb(217,217,217);"/>
        </g>
        <g transform="matrix(1,0,0,1,-55.7072,121.958)">
            <path d="M89.618,118.306L89.618,113.236L90.638,113.236L90.638,118.306L89.618,118.306ZM89.618,112.206L89.618,111.186L90.638,111.186L90.638,112.206L89.618,112.206Z" style="fill-rule:nonzero;"/>
            <path d="M91.478,118.306L91.478,113.236L92.498,113.236L92.498,113.726L92.518,113.726C92.625,113.566 92.753,113.435 92.903,113.331C93.053,113.228 93.245,113.176 93.478,113.176C93.605,113.176 93.731,113.198 93.858,113.241C93.985,113.285 94.098,113.356 94.198,113.456C94.298,113.556 94.378,113.685 94.438,113.841C94.498,113.998 94.528,114.19 94.528,114.416L94.528,118.306L93.508,118.306L93.508,114.796C93.508,114.61 93.465,114.463 93.378,114.356C93.291,114.25 93.168,114.196 93.008,114.196C92.815,114.196 92.681,114.256 92.608,114.376C92.535,114.496 92.498,114.67 92.498,114.896L92.498,118.306L91.478,118.306Z" style="fill-rule:nonzero;"/>
        </g>
        <g transform="matrix(1,0,0,1,-55.7072,121.958)">
            <text x="89.198px" y="118.306px" style="font-family:'DINCondensed-Bold', 'DIN Condensed';font-weight:700;font-stretch:condensed;font-size:10px;">in</text>
        </g>
    </g>
    <g id="Quality" transform="matrix(1,0,0,1,3.95343,60.5216)">
        <g id="Down-button" serif:id="Down#button" transform="matrix(0.758898,0,0,0.758898,-15.8651,-110.944)">
            <circle cx="55.661" cy="308.513" r="7.929"/>
        </g>
        <g id="Value-lcd-2" serif:id="Value#lcd$2" transform="matrix(0.592443,0,0,0.846667,-95.4883,-159.817)">
            <rect x="173.071" y="291.218" width="64.141" height="28.346" style="fill:rgb(13,13,13);"/>
        </g>
        <g id="Up-button" serif:id="Up#button" transform="matrix(0.758898,0,0,0.758898,-15.8651,-159.821)">
            <circle cx="55.661" cy="308.513" r="7.929"/>
        </g>
        <g transform="matrix(1.20656,0,0,0.837154,-10.1503,-71.6461)">
            <rect x="13.424" y="139.512" width="33.152" height="19.383" style="fill:rgb(154,178,191);"/>
        </g>
        <g transform="matrix(1,0,0,1,-63.9593,-59.4033)">
            <path d="M75.062,115.618C75.062,116.013 75.171,116.304 75.39,116.49C75.609,116.677 75.867,116.77 76.166,116.77C76.315,116.77 76.433,116.749 76.518,116.706L75.782,116.114L76.614,115.122L77.27,115.65L77.27,109.602C77.27,109.208 77.161,108.917 76.942,108.73C76.723,108.544 76.465,108.45 76.166,108.45C75.867,108.45 75.609,108.544 75.39,108.73C75.171,108.917 75.062,109.208 75.062,109.602L75.062,115.618ZM73.43,109.602C73.43,109.144 73.51,108.738 73.67,108.386C73.83,108.034 74.043,107.741 74.31,107.506C74.566,107.282 74.857,107.112 75.182,106.994C75.507,106.877 75.835,106.818 76.166,106.818C76.497,106.818 76.825,106.877 77.15,106.994C77.475,107.112 77.771,107.282 78.038,107.506C78.294,107.741 78.502,108.034 78.662,108.386C78.822,108.738 78.902,109.144 78.902,109.602L78.902,115.618C78.902,116.066 78.822,116.456 78.662,116.786L79.67,117.602L78.838,118.594L77.878,117.81C77.387,118.205 76.817,118.402 76.166,118.402C75.835,118.402 75.507,118.344 75.182,118.226C74.857,118.109 74.566,117.933 74.31,117.698C74.043,117.474 73.83,117.192 73.67,116.85C73.51,116.509 73.43,116.098 73.43,115.618L73.43,109.602Z" style="fill-rule:nonzero;"/>
            <path d="M85.126,110.194L85.126,118.306L83.494,118.306L83.494,117.522L83.462,117.522C83.291,117.778 83.086,117.989 82.846,118.154C82.606,118.32 82.299,118.402 81.926,118.402C81.723,118.402 81.521,118.368 81.318,118.298C81.115,118.229 80.934,118.114 80.774,117.954C80.614,117.794 80.486,117.589 80.39,117.338C80.294,117.088 80.246,116.781 80.246,116.418L80.246,110.194L81.878,110.194L81.878,115.81C81.878,116.109 81.947,116.344 82.086,116.514C82.225,116.685 82.422,116.77 82.678,116.77C82.987,116.77 83.201,116.674 83.318,116.482C83.435,116.29 83.494,116.013 83.494,115.65L83.494,110.194L85.126,110.194Z" style="fill-rule:nonzero;"/>
            <path d="M89.558,118.306L89.558,117.474L89.526,117.474C89.313,117.773 89.097,118.002 88.878,118.162C88.659,118.322 88.353,118.402 87.958,118.402C87.766,118.402 87.571,118.373 87.374,118.314C87.177,118.256 86.987,118.146 86.806,117.986C86.625,117.837 86.478,117.621 86.366,117.338C86.254,117.056 86.198,116.69 86.198,116.242C86.198,115.784 86.235,115.381 86.31,115.034C86.385,114.688 86.523,114.397 86.726,114.162C86.918,113.938 87.179,113.77 87.51,113.658C87.841,113.546 88.262,113.49 88.774,113.49L88.95,113.49C89.014,113.49 89.073,113.496 89.126,113.506C89.179,113.517 89.243,113.522 89.318,113.522C89.393,113.522 89.473,113.528 89.558,113.538L89.558,112.69C89.558,112.413 89.499,112.184 89.382,112.002C89.265,111.821 89.051,111.73 88.742,111.73C88.529,111.73 88.334,111.8 88.158,111.938C87.982,112.077 87.867,112.28 87.814,112.546L86.23,112.546C86.273,111.821 86.518,111.234 86.966,110.786C87.179,110.573 87.435,110.405 87.734,110.282C88.033,110.16 88.369,110.098 88.742,110.098C89.083,110.098 89.403,110.152 89.702,110.258C90.001,110.365 90.262,110.525 90.486,110.738C90.699,110.952 90.87,111.218 90.998,111.538C91.126,111.858 91.19,112.232 91.19,112.658L91.19,118.306L89.558,118.306ZM89.558,114.818C89.377,114.786 89.227,114.77 89.11,114.77C88.758,114.77 88.457,114.853 88.206,115.018C87.955,115.184 87.83,115.485 87.83,115.922C87.83,116.232 87.905,116.482 88.054,116.674C88.203,116.866 88.411,116.962 88.678,116.962C88.955,116.962 89.171,116.872 89.326,116.69C89.481,116.509 89.558,116.253 89.558,115.922L89.558,114.818Z" style="fill-rule:nonzero;"/>
            <path d="M92.294,106.914L93.926,106.914L93.926,116.018C93.926,116.328 93.982,116.538 94.094,116.65C94.206,116.762 94.417,116.834 94.726,116.866L94.726,118.402C94.353,118.402 94.017,118.373 93.718,118.314C93.419,118.256 93.163,118.141 92.95,117.97C92.737,117.81 92.574,117.584 92.462,117.29C92.35,116.997 92.294,116.61 92.294,116.13L92.294,106.914Z" style="fill-rule:nonzero;"/>
            <path d="M95.366,118.306L95.366,110.194L96.998,110.194L96.998,118.306L95.366,118.306ZM95.366,108.546L95.366,106.914L96.998,106.914L96.998,108.546L95.366,108.546Z" style="fill-rule:nonzero;"/>
            <path d="M98.342,110.194L98.342,107.73L99.974,107.73L99.974,110.194L100.982,110.194L100.982,111.474L99.974,111.474L99.974,115.97C99.974,116.162 99.993,116.312 100.03,116.418C100.067,116.525 100.129,116.605 100.214,116.658C100.299,116.712 100.403,116.744 100.526,116.754C100.649,116.765 100.801,116.77 100.982,116.77L100.982,118.306L100.31,118.306C99.937,118.306 99.625,118.248 99.374,118.13C99.123,118.013 98.923,117.864 98.774,117.682C98.625,117.501 98.515,117.296 98.446,117.066C98.377,116.837 98.342,116.616 98.342,116.402L98.342,111.474L97.526,111.474L97.526,110.194L98.342,110.194Z" style="fill-rule:nonzero;"/>
            <path d="M100.918,110.194L102.646,110.194L103.766,115.25L103.798,115.25L104.902,110.194L106.582,110.194L104.246,119.714C104.161,120.077 104.041,120.376 103.886,120.61C103.731,120.845 103.553,121.037 103.35,121.186C103.147,121.336 102.931,121.44 102.702,121.498C102.473,121.557 102.235,121.586 101.99,121.586L101.542,121.586L101.542,120.05L101.91,120.05C102.07,120.05 102.209,120.029 102.326,119.986C102.443,119.944 102.55,119.848 102.646,119.698C102.731,119.549 102.811,119.338 102.886,119.066C102.961,118.794 103.046,118.418 103.142,117.938L100.918,110.194Z" style="fill-rule:nonzero;"/>
        </g>
        <g transform="matrix(1,0,0,1,-63.9593,-59.4033)">
            <text x="72.758px" y="118.306px" style="font-family:'DINCondensed-Bold', 'DIN Condensed';font-weight:700;font-stretch:condensed;font-size:16px;">Quality</text>
        </g>
    </g>
    <g transform="matrix(1,0,0,1,26.197,0.576)">
        <g transform="matrix(1,0,0,1,18.0166,12.5279)">
            <path d="M-36.096,20.968C-36.096,21.376 -36.088,21.774 -36.072,22.162C-36.056,22.55 -36.012,22.864 -35.94,23.104C-35.796,23.192 -35.634,23.246 -35.454,23.266C-35.274,23.286 -35.104,23.3 -34.944,23.308C-34.784,23.316 -34.65,23.332 -34.542,23.356C-34.434,23.38 -34.38,23.432 -34.38,23.512C-34.38,23.552 -34.4,23.586 -34.44,23.614C-34.48,23.642 -34.544,23.656 -34.632,23.656C-34.864,23.664 -35.18,23.654 -35.58,23.626C-35.98,23.598 -36.436,23.584 -36.948,23.584C-37.604,23.584 -38.098,23.606 -38.43,23.65C-38.762,23.694 -38.96,23.716 -39.024,23.716C-39.08,23.716 -39.128,23.702 -39.168,23.674C-39.208,23.646 -39.228,23.608 -39.228,23.56C-39.228,23.456 -39.18,23.4 -39.084,23.392C-38.988,23.384 -38.808,23.36 -38.544,23.32C-38.368,23.304 -38.224,23.282 -38.112,23.254C-38,23.226 -37.888,23.192 -37.776,23.152C-37.728,22.976 -37.688,22.796 -37.656,22.612C-37.624,22.428 -37.596,22.198 -37.572,21.922C-37.548,21.646 -37.53,21.302 -37.518,20.89C-37.506,20.478 -37.5,19.948 -37.5,19.3C-37.5,18.708 -37.504,18.206 -37.512,17.794C-37.52,17.382 -37.534,17.038 -37.554,16.762C-37.574,16.486 -37.594,16.268 -37.614,16.108C-37.634,15.948 -37.656,15.824 -37.68,15.736C-37.784,15.664 -37.92,15.618 -38.088,15.598C-38.256,15.578 -38.42,15.562 -38.58,15.55C-38.74,15.538 -38.878,15.52 -38.994,15.496C-39.11,15.472 -39.168,15.416 -39.168,15.328C-39.168,15.224 -39.104,15.172 -38.976,15.172C-38.832,15.172 -38.586,15.19 -38.238,15.226C-37.89,15.262 -37.464,15.28 -36.96,15.28C-36.88,15.28 -36.816,15.268 -36.768,15.244C-36.688,15.204 -36.56,15.148 -36.384,15.076C-36.208,15.004 -36.004,14.932 -35.772,14.86C-35.54,14.788 -35.294,14.724 -35.034,14.668C-34.774,14.612 -34.52,14.584 -34.272,14.584C-33.872,14.584 -33.492,14.63 -33.132,14.722C-32.772,14.814 -32.458,14.952 -32.19,15.136C-31.922,15.32 -31.708,15.548 -31.548,15.82C-31.388,16.092 -31.308,16.408 -31.308,16.768C-31.308,17.12 -31.39,17.446 -31.554,17.746C-31.718,18.046 -31.924,18.32 -32.172,18.568C-32.42,18.816 -32.692,19.03 -32.988,19.21C-33.284,19.39 -33.56,19.532 -33.816,19.636C-33.488,19.636 -33.178,19.67 -32.886,19.738C-32.594,19.806 -32.33,19.902 -32.094,20.026C-31.858,20.15 -31.662,20.3 -31.506,20.476C-31.35,20.652 -31.248,20.852 -31.2,21.076C-31.2,21.188 -31.21,21.262 -31.23,21.298C-31.25,21.334 -31.288,21.392 -31.344,21.472C-31.184,21.728 -31.006,22.03 -30.81,22.378C-30.614,22.726 -30.394,23.058 -30.15,23.374C-29.906,23.69 -29.634,23.958 -29.334,24.178C-29.034,24.398 -28.7,24.508 -28.332,24.508C-28.26,24.508 -28.178,24.504 -28.086,24.496C-27.994,24.488 -27.906,24.472 -27.822,24.448C-27.738,24.424 -27.66,24.388 -27.588,24.34C-27.516,24.292 -27.464,24.228 -27.432,24.148C-27.4,24.124 -27.368,24.112 -27.336,24.112C-27.296,24.112 -27.27,24.132 -27.258,24.172C-27.246,24.212 -27.236,24.252 -27.228,24.292C-27.388,24.652 -27.784,24.832 -28.416,24.832C-28.736,24.832 -29.042,24.78 -29.334,24.676C-29.626,24.572 -29.906,24.434 -30.174,24.262C-30.442,24.09 -30.698,23.892 -30.942,23.668C-31.186,23.444 -31.416,23.212 -31.632,22.972C-31.792,22.796 -31.978,22.576 -32.19,22.312C-32.402,22.048 -32.628,21.778 -32.868,21.502C-33.108,21.226 -33.358,20.966 -33.618,20.722C-33.878,20.478 -34.136,20.288 -34.392,20.152C-34.512,20.096 -34.648,20.054 -34.8,20.026C-34.952,19.998 -35.098,19.978 -35.238,19.966C-35.378,19.954 -35.508,19.948 -35.628,19.948L-35.904,19.948C-35.952,19.948 -35.992,19.95 -36.024,19.954C-36.056,19.958 -36.08,19.96 -36.096,19.96L-36.096,20.968ZM-35.892,15.916C-35.932,16.068 -35.964,16.28 -35.988,16.552C-36.012,16.824 -36.032,17.122 -36.048,17.446C-36.064,17.77 -36.076,18.106 -36.084,18.454C-36.092,18.802 -36.096,19.132 -36.096,19.444C-36.016,19.508 -35.862,19.544 -35.634,19.552C-35.406,19.56 -35.16,19.564 -34.896,19.564C-34.664,19.564 -34.47,19.544 -34.314,19.504C-34.158,19.464 -34.012,19.392 -33.876,19.288C-33.796,19.232 -33.706,19.14 -33.606,19.012C-33.506,18.884 -33.41,18.732 -33.318,18.556C-33.226,18.38 -33.148,18.182 -33.084,17.962C-33.02,17.742 -32.988,17.508 -32.988,17.26C-32.988,16.9 -33.028,16.578 -33.108,16.294C-33.188,16.01 -33.296,15.766 -33.432,15.562C-33.568,15.358 -33.728,15.202 -33.912,15.094C-34.096,14.986 -34.292,14.932 -34.5,14.932C-34.612,14.932 -34.738,14.954 -34.878,14.998C-35.018,15.042 -35.156,15.1 -35.292,15.172C-35.428,15.244 -35.548,15.326 -35.652,15.418C-35.756,15.51 -35.824,15.608 -35.856,15.712L-35.892,15.916Z" style="fill-rule:nonzero;"/>
            <path d="M-24.192,22.192C-24.28,22.288 -24.416,22.42 -24.6,22.588C-24.784,22.756 -25.006,22.924 -25.266,23.092C-25.526,23.26 -25.816,23.404 -26.136,23.524C-26.456,23.644 -26.796,23.704 -27.156,23.704C-27.484,23.704 -27.804,23.654 -28.116,23.554C-28.428,23.454 -28.708,23.302 -28.956,23.098C-29.204,22.894 -29.402,22.634 -29.55,22.318C-29.698,22.002 -29.772,21.624 -29.772,21.184C-29.772,20.824 -29.748,20.514 -29.7,20.254C-29.652,19.994 -29.588,19.766 -29.508,19.57C-29.428,19.374 -29.338,19.206 -29.238,19.066C-29.138,18.926 -29.036,18.8 -28.932,18.688C-28.804,18.544 -28.648,18.408 -28.464,18.28C-28.28,18.152 -28.082,18.036 -27.87,17.932C-27.658,17.828 -27.434,17.746 -27.198,17.686C-26.962,17.626 -26.724,17.596 -26.484,17.596C-26.052,17.596 -25.714,17.668 -25.47,17.812C-25.226,17.956 -25.104,18.156 -25.104,18.412C-25.104,18.572 -25.152,18.72 -25.248,18.856C-25.168,18.832 -25.066,18.792 -24.942,18.736C-24.818,18.68 -24.692,18.622 -24.564,18.562C-24.436,18.502 -24.322,18.448 -24.222,18.4C-24.122,18.352 -24.056,18.316 -24.024,18.292C-24.008,18.276 -23.99,18.27 -23.97,18.274C-23.95,18.278 -23.94,18.292 -23.94,18.316C-23.94,18.42 -23.96,18.506 -24,18.574C-24.04,18.642 -24.088,18.696 -24.144,18.736C-24.272,18.816 -24.456,18.916 -24.696,19.036C-24.936,19.156 -25.202,19.282 -25.494,19.414C-25.786,19.546 -26.088,19.678 -26.4,19.81C-26.712,19.942 -27.006,20.068 -27.282,20.188C-27.558,20.308 -27.798,20.414 -28.002,20.506C-28.206,20.598 -28.344,20.664 -28.416,20.704C-28.416,20.976 -28.362,21.23 -28.254,21.466C-28.146,21.702 -27.996,21.908 -27.804,22.084C-27.612,22.26 -27.382,22.398 -27.114,22.498C-26.846,22.598 -26.552,22.648 -26.232,22.648C-25.944,22.648 -25.684,22.618 -25.452,22.558C-25.22,22.498 -25.024,22.43 -24.864,22.354C-24.704,22.278 -24.578,22.21 -24.486,22.15C-24.394,22.09 -24.344,22.06 -24.336,22.06C-24.304,22.06 -24.272,22.074 -24.24,22.102C-24.208,22.13 -24.192,22.16 -24.192,22.192ZM-28.416,20.356C-28.28,20.308 -28.126,20.25 -27.954,20.182C-27.782,20.114 -27.614,20.04 -27.45,19.96C-27.286,19.88 -27.136,19.804 -27,19.732C-26.864,19.66 -26.76,19.596 -26.688,19.54C-26.544,19.436 -26.472,19.26 -26.472,19.012C-26.472,18.916 -26.49,18.816 -26.526,18.712C-26.562,18.608 -26.616,18.514 -26.688,18.43C-26.76,18.346 -26.848,18.278 -26.952,18.226C-27.056,18.174 -27.172,18.148 -27.3,18.148C-27.412,18.148 -27.532,18.186 -27.66,18.262C-27.788,18.338 -27.908,18.462 -28.02,18.634C-28.132,18.806 -28.226,19.034 -28.302,19.318C-28.378,19.602 -28.416,19.948 -28.416,20.356Z" style="fill-rule:nonzero;"/>
            <path d="M-16.008,15.04C-15.912,15.04 -15.804,15.038 -15.684,15.034C-15.564,15.03 -15.45,15.026 -15.342,15.022C-15.234,15.018 -15.142,15.014 -15.066,15.01C-14.99,15.006 -14.94,15.004 -14.916,15.004C-14.78,15.004 -14.712,15.044 -14.712,15.124C-14.712,15.196 -14.74,15.248 -14.796,15.28C-14.852,15.312 -14.918,15.336 -14.994,15.352C-15.07,15.368 -15.148,15.378 -15.228,15.382C-15.308,15.386 -15.372,15.4 -15.42,15.424C-15.788,16.128 -16.146,16.826 -16.494,17.518C-16.842,18.21 -17.176,18.87 -17.496,19.498C-17.816,20.126 -18.118,20.706 -18.402,21.238C-18.686,21.77 -18.942,22.232 -19.17,22.624C-19.398,23.016 -19.596,23.324 -19.764,23.548C-19.932,23.772 -20.06,23.884 -20.148,23.884C-20.188,23.86 -20.228,23.822 -20.268,23.77C-20.308,23.718 -20.348,23.648 -20.388,23.56C-20.508,23.312 -20.644,23.012 -20.796,22.66C-20.948,22.308 -21.108,21.928 -21.276,21.52C-21.444,21.112 -21.62,20.69 -21.804,20.254C-21.988,19.818 -22.172,19.384 -22.356,18.952L-22.608,18.352C-22.744,18.016 -22.876,17.684 -23.004,17.356C-23.132,17.028 -23.25,16.726 -23.358,16.45C-23.466,16.174 -23.562,15.94 -23.646,15.748C-23.73,15.556 -23.8,15.428 -23.856,15.364C-24.056,15.364 -24.212,15.36 -24.324,15.352C-24.436,15.344 -24.52,15.334 -24.576,15.322C-24.632,15.31 -24.668,15.294 -24.684,15.274C-24.7,15.254 -24.708,15.232 -24.708,15.208C-24.708,15.152 -24.692,15.104 -24.66,15.064C-24.628,15.024 -24.596,15.004 -24.564,15.004C-24.54,15.004 -24.478,15.006 -24.378,15.01C-24.278,15.014 -24.154,15.018 -24.006,15.022C-23.858,15.026 -23.692,15.032 -23.508,15.04C-23.324,15.048 -23.14,15.052 -22.956,15.052C-22.26,15.052 -21.756,15.038 -21.444,15.01C-21.132,14.982 -20.944,14.968 -20.88,14.968C-20.728,14.968 -20.652,15.008 -20.652,15.088C-20.652,15.104 -20.656,15.126 -20.664,15.154C-20.672,15.182 -20.694,15.212 -20.73,15.244C-20.766,15.276 -20.826,15.304 -20.91,15.328C-20.994,15.352 -21.108,15.364 -21.252,15.364C-21.356,15.364 -21.458,15.362 -21.558,15.358C-21.658,15.354 -21.736,15.348 -21.792,15.34C-21.792,15.396 -21.748,15.568 -21.66,15.856C-21.572,16.144 -21.458,16.496 -21.318,16.912C-21.178,17.328 -21.018,17.78 -20.838,18.268C-20.658,18.756 -20.478,19.23 -20.298,19.69C-20.118,20.15 -19.946,20.57 -19.782,20.95C-19.618,21.33 -19.476,21.62 -19.356,21.82C-19.292,21.732 -19.192,21.556 -19.056,21.292C-18.92,21.028 -18.768,20.712 -18.6,20.344C-18.432,19.976 -18.258,19.576 -18.078,19.144C-17.898,18.712 -17.734,18.286 -17.586,17.866C-17.438,17.446 -17.316,17.05 -17.22,16.678C-17.124,16.306 -17.076,16 -17.076,15.76C-17.076,15.68 -17.082,15.596 -17.094,15.508C-17.106,15.42 -17.144,15.368 -17.208,15.352C-17.416,15.352 -17.586,15.348 -17.718,15.34C-17.85,15.332 -17.956,15.322 -18.036,15.31C-18.116,15.298 -18.18,15.282 -18.228,15.262C-18.276,15.242 -18.32,15.224 -18.36,15.208C-18.384,15.176 -18.396,15.128 -18.396,15.064C-18.396,15 -18.372,14.968 -18.324,14.968L-18.168,14.968C-18.08,14.976 -17.932,14.986 -17.724,14.998C-17.516,15.01 -17.208,15.024 -16.8,15.04L-16.008,15.04Z" style="fill-rule:nonzero;"/>
            <path d="M-11.088,22.636C-11.176,22.708 -11.296,22.804 -11.448,22.924C-11.6,23.044 -11.776,23.164 -11.976,23.284C-12.176,23.404 -12.396,23.506 -12.636,23.59C-12.876,23.674 -13.128,23.716 -13.392,23.716C-13.792,23.716 -14.148,23.646 -14.46,23.506C-14.772,23.366 -15.034,23.178 -15.246,22.942C-15.458,22.706 -15.618,22.428 -15.726,22.108C-15.834,21.788 -15.888,21.448 -15.888,21.088C-15.888,20.664 -15.824,20.288 -15.696,19.96C-15.568,19.632 -15.41,19.346 -15.222,19.102C-15.034,18.858 -14.832,18.654 -14.616,18.49C-14.4,18.326 -14.204,18.196 -14.028,18.1C-13.948,18.052 -13.846,18 -13.722,17.944C-13.598,17.888 -13.462,17.836 -13.314,17.788C-13.166,17.74 -13.006,17.698 -12.834,17.662C-12.662,17.626 -12.484,17.608 -12.3,17.608C-11.956,17.608 -11.622,17.652 -11.298,17.74C-10.974,17.828 -10.688,17.966 -10.44,18.154C-10.192,18.342 -9.992,18.584 -9.84,18.88C-9.688,19.176 -9.612,19.532 -9.612,19.948C-9.612,20.284 -9.674,20.6 -9.798,20.896C-9.922,21.192 -10.068,21.456 -10.236,21.688C-10.404,21.92 -10.57,22.118 -10.734,22.282C-10.898,22.446 -11.016,22.564 -11.088,22.636ZM-12.444,22.828C-11.988,22.828 -11.638,22.656 -11.394,22.312C-11.15,21.968 -11.028,21.44 -11.028,20.728C-11.028,20.368 -11.078,20.034 -11.178,19.726C-11.278,19.418 -11.418,19.148 -11.598,18.916C-11.778,18.684 -11.988,18.502 -12.228,18.37C-12.468,18.238 -12.728,18.172 -13.008,18.172C-13.208,18.172 -13.398,18.224 -13.578,18.328C-13.758,18.432 -13.916,18.582 -14.052,18.778C-14.188,18.974 -14.296,19.212 -14.376,19.492C-14.456,19.772 -14.496,20.088 -14.496,20.44C-14.496,20.816 -14.438,21.152 -14.322,21.448C-14.206,21.744 -14.052,21.994 -13.86,22.198C-13.668,22.402 -13.45,22.558 -13.206,22.666C-12.962,22.774 -12.708,22.828 -12.444,22.828Z" style="fill-rule:nonzero;"/>
            <path d="M-7.092,21.508C-7.092,21.676 -7.088,21.838 -7.08,21.994C-7.072,22.15 -7.044,22.284 -6.996,22.396C-6.948,22.508 -6.876,22.598 -6.78,22.666C-6.684,22.734 -6.548,22.768 -6.372,22.768C-6.284,22.768 -6.184,22.758 -6.072,22.738C-5.96,22.718 -5.854,22.692 -5.754,22.66C-5.654,22.628 -5.566,22.596 -5.49,22.564C-5.414,22.532 -5.368,22.508 -5.352,22.492C-5.328,22.468 -5.312,22.468 -5.304,22.492C-5.296,22.516 -5.294,22.546 -5.298,22.582C-5.302,22.618 -5.312,22.654 -5.328,22.69C-5.344,22.726 -5.364,22.752 -5.388,22.768C-5.468,22.808 -5.608,22.88 -5.808,22.984C-6.008,23.088 -6.244,23.196 -6.516,23.308C-6.772,23.42 -7.022,23.514 -7.266,23.59C-7.51,23.666 -7.712,23.704 -7.872,23.704C-8.056,23.704 -8.2,23.648 -8.304,23.536C-8.408,23.424 -8.46,23.284 -8.46,23.116C-8.46,23.06 -8.458,23.012 -8.454,22.972C-8.45,22.932 -8.444,22.88 -8.436,22.816C-8.428,22.736 -8.414,22.59 -8.394,22.378C-8.374,22.166 -8.354,21.928 -8.334,21.664C-8.314,21.4 -8.296,21.134 -8.28,20.866C-8.264,20.598 -8.256,20.368 -8.256,20.176L-8.256,19.756C-8.256,19.548 -8.268,19.364 -8.292,19.204C-8.316,19.044 -8.356,18.92 -8.412,18.832C-8.452,18.776 -8.502,18.73 -8.562,18.694C-8.622,18.658 -8.696,18.64 -8.784,18.64C-8.832,18.64 -8.88,18.65 -8.928,18.67C-8.976,18.69 -9.012,18.7 -9.036,18.7C-9.052,18.7 -9.078,18.676 -9.114,18.628C-9.15,18.58 -9.148,18.544 -9.108,18.52C-9.052,18.48 -8.936,18.416 -8.76,18.328C-8.584,18.24 -8.392,18.144 -8.184,18.04C-7.96,17.928 -7.744,17.83 -7.536,17.746C-7.328,17.662 -7.18,17.62 -7.092,17.62C-7.004,17.62 -6.944,17.646 -6.912,17.698C-6.88,17.75 -6.864,17.808 -6.864,17.872L-6.864,17.92C-6.864,18 -6.876,18.128 -6.9,18.304C-6.924,18.48 -6.95,18.696 -6.978,18.952C-7.006,19.208 -7.032,19.504 -7.056,19.84C-7.08,20.176 -7.092,20.54 -7.092,20.932L-7.092,21.508ZM-7.572,15.268C-7.532,15.276 -7.466,15.32 -7.374,15.4C-7.282,15.48 -7.188,15.572 -7.092,15.676C-6.996,15.78 -6.912,15.88 -6.84,15.976C-6.768,16.072 -6.732,16.136 -6.732,16.168C-6.732,16.208 -6.78,16.268 -6.876,16.348C-6.972,16.428 -7.082,16.51 -7.206,16.594C-7.33,16.678 -7.45,16.752 -7.566,16.816C-7.682,16.88 -7.764,16.912 -7.812,16.912C-7.836,16.912 -7.894,16.874 -7.986,16.798C-8.078,16.722 -8.172,16.636 -8.268,16.54C-8.364,16.444 -8.45,16.35 -8.526,16.258C-8.602,16.166 -8.64,16.104 -8.64,16.072C-8.64,16.032 -8.588,15.97 -8.484,15.886C-8.38,15.802 -8.266,15.714 -8.142,15.622C-8.018,15.53 -7.898,15.45 -7.782,15.382C-7.666,15.314 -7.596,15.276 -7.572,15.268Z" style="fill-rule:nonzero;"/>
            <path d="M-0.648,18.148C-0.664,18.196 -0.71,18.27 -0.786,18.37C-0.862,18.47 -0.952,18.574 -1.056,18.682C-1.16,18.79 -1.27,18.894 -1.386,18.994C-1.502,19.094 -1.604,19.168 -1.692,19.216C-1.748,19.24 -1.782,19.232 -1.794,19.192C-1.806,19.152 -1.812,19.112 -1.812,19.072C-1.812,19.008 -1.846,18.928 -1.914,18.832C-1.982,18.736 -2.078,18.642 -2.202,18.55C-2.326,18.458 -2.472,18.38 -2.64,18.316C-2.808,18.252 -2.992,18.22 -3.192,18.22C-3.536,18.22 -3.816,18.406 -4.032,18.778C-4.248,19.15 -4.356,19.644 -4.356,20.26C-4.356,20.636 -4.298,20.974 -4.182,21.274C-4.066,21.574 -3.906,21.826 -3.702,22.03C-3.498,22.234 -3.252,22.39 -2.964,22.498C-2.676,22.606 -2.364,22.66 -2.028,22.66C-1.572,22.66 -1.208,22.602 -0.936,22.486C-0.664,22.37 -0.44,22.236 -0.264,22.084C-0.256,22.084 -0.25,22.08 -0.246,22.072C-0.242,22.064 -0.236,22.06 -0.228,22.06C-0.188,22.06 -0.16,22.074 -0.144,22.102C-0.128,22.13 -0.12,22.164 -0.12,22.204C-0.12,22.236 -0.128,22.26 -0.144,22.276C-0.264,22.372 -0.43,22.5 -0.642,22.66C-0.854,22.82 -1.096,22.978 -1.368,23.134C-1.64,23.29 -1.924,23.424 -2.22,23.536C-2.516,23.648 -2.808,23.704 -3.096,23.704C-3.92,23.704 -4.562,23.464 -5.022,22.984C-5.482,22.504 -5.712,21.848 -5.712,21.016C-5.712,20.384 -5.59,19.852 -5.346,19.42C-5.102,18.988 -4.802,18.642 -4.446,18.382C-4.09,18.122 -3.712,17.936 -3.312,17.824C-2.912,17.712 -2.56,17.656 -2.256,17.656C-2.008,17.656 -1.786,17.674 -1.59,17.71C-1.394,17.746 -1.226,17.79 -1.086,17.842C-0.946,17.894 -0.838,17.948 -0.762,18.004C-0.686,18.06 -0.648,18.108 -0.648,18.148Z" style="fill-rule:nonzero;"/>
            <path d="M5.232,22.192C5.144,22.288 5.008,22.42 4.824,22.588C4.64,22.756 4.418,22.924 4.158,23.092C3.898,23.26 3.608,23.404 3.288,23.524C2.968,23.644 2.628,23.704 2.268,23.704C1.94,23.704 1.62,23.654 1.308,23.554C0.996,23.454 0.716,23.302 0.468,23.098C0.22,22.894 0.022,22.634 -0.126,22.318C-0.274,22.002 -0.348,21.624 -0.348,21.184C-0.348,20.824 -0.324,20.514 -0.276,20.254C-0.228,19.994 -0.164,19.766 -0.084,19.57C-0.004,19.374 0.086,19.206 0.186,19.066C0.286,18.926 0.388,18.8 0.492,18.688C0.62,18.544 0.776,18.408 0.96,18.28C1.144,18.152 1.342,18.036 1.554,17.932C1.766,17.828 1.99,17.746 2.226,17.686C2.462,17.626 2.7,17.596 2.94,17.596C3.372,17.596 3.71,17.668 3.954,17.812C4.198,17.956 4.32,18.156 4.32,18.412C4.32,18.572 4.272,18.72 4.176,18.856C4.256,18.832 4.358,18.792 4.482,18.736C4.606,18.68 4.732,18.622 4.86,18.562C4.988,18.502 5.102,18.448 5.202,18.4C5.302,18.352 5.368,18.316 5.4,18.292C5.416,18.276 5.434,18.27 5.454,18.274C5.474,18.278 5.484,18.292 5.484,18.316C5.484,18.42 5.464,18.506 5.424,18.574C5.384,18.642 5.336,18.696 5.28,18.736C5.152,18.816 4.968,18.916 4.728,19.036C4.488,19.156 4.222,19.282 3.93,19.414C3.638,19.546 3.336,19.678 3.024,19.81C2.712,19.942 2.418,20.068 2.142,20.188C1.866,20.308 1.626,20.414 1.422,20.506C1.218,20.598 1.08,20.664 1.008,20.704C1.008,20.976 1.062,21.23 1.17,21.466C1.278,21.702 1.428,21.908 1.62,22.084C1.812,22.26 2.042,22.398 2.31,22.498C2.578,22.598 2.872,22.648 3.192,22.648C3.48,22.648 3.74,22.618 3.972,22.558C4.204,22.498 4.4,22.43 4.56,22.354C4.72,22.278 4.846,22.21 4.938,22.15C5.03,22.09 5.08,22.06 5.088,22.06C5.12,22.06 5.152,22.074 5.184,22.102C5.216,22.13 5.232,22.16 5.232,22.192ZM1.008,20.356C1.144,20.308 1.298,20.25 1.47,20.182C1.642,20.114 1.81,20.04 1.974,19.96C2.138,19.88 2.288,19.804 2.424,19.732C2.56,19.66 2.664,19.596 2.736,19.54C2.88,19.436 2.952,19.26 2.952,19.012C2.952,18.916 2.934,18.816 2.898,18.712C2.862,18.608 2.808,18.514 2.736,18.43C2.664,18.346 2.576,18.278 2.472,18.226C2.368,18.174 2.252,18.148 2.124,18.148C2.012,18.148 1.892,18.186 1.764,18.262C1.636,18.338 1.516,18.462 1.404,18.634C1.292,18.806 1.198,19.034 1.122,19.318C1.046,19.602 1.008,19.948 1.008,20.356Z" style="fill-rule:nonzero;"/>
            <path d="M10.8,18.496C10.712,18.568 10.608,18.658 10.488,18.766C10.368,18.874 10.242,18.978 10.11,19.078C9.978,19.178 9.844,19.264 9.708,19.336C9.572,19.408 9.44,19.444 9.312,19.444C9.2,19.444 9.1,19.418 9.012,19.366C8.924,19.314 8.842,19.258 8.766,19.198C8.69,19.138 8.616,19.082 8.544,19.03C8.472,18.978 8.396,18.952 8.316,18.952C8.1,18.952 7.918,19.04 7.77,19.216C7.622,19.392 7.502,19.616 7.41,19.888C7.318,20.16 7.25,20.456 7.206,20.776C7.162,21.096 7.14,21.404 7.14,21.7C7.14,21.948 7.15,22.15 7.17,22.306C7.19,22.462 7.22,22.586 7.26,22.678C7.3,22.77 7.354,22.832 7.422,22.864C7.49,22.896 7.572,22.912 7.668,22.912C7.772,22.912 7.884,22.896 8.004,22.864C8.028,22.856 8.046,22.872 8.058,22.912C8.07,22.952 8.076,22.984 8.076,23.008C8.076,23.024 8.064,23.042 8.04,23.062C8.016,23.082 8,23.092 7.992,23.092C7.816,23.164 7.636,23.242 7.452,23.326C7.268,23.41 7.116,23.48 6.996,23.536C6.884,23.584 6.75,23.636 6.594,23.692C6.438,23.748 6.304,23.776 6.192,23.776C6.064,23.776 5.958,23.756 5.874,23.716C5.79,23.676 5.748,23.636 5.748,23.596C5.748,23.556 5.758,23.52 5.778,23.488C5.798,23.456 5.816,23.396 5.832,23.308C5.848,23.188 5.866,23.046 5.886,22.882C5.906,22.718 5.926,22.54 5.946,22.348C5.966,22.156 5.982,21.958 5.994,21.754C6.006,21.55 6.012,21.348 6.012,21.148C6.012,20.7 5.998,20.32 5.97,20.008C5.942,19.696 5.892,19.444 5.82,19.252C5.748,19.06 5.65,18.922 5.526,18.838C5.402,18.754 5.244,18.712 5.052,18.712L4.944,18.712C4.912,18.712 4.88,18.716 4.848,18.724C4.8,18.724 4.776,18.7 4.776,18.652C4.776,18.604 4.8,18.568 4.848,18.544C4.936,18.488 5.072,18.406 5.256,18.298C5.44,18.19 5.63,18.086 5.826,17.986C6.022,17.886 6.212,17.796 6.396,17.716C6.58,17.636 6.716,17.596 6.804,17.596C6.908,17.596 6.996,17.63 7.068,17.698C7.14,17.766 7.194,17.852 7.23,17.956C7.266,18.06 7.292,18.178 7.308,18.31C7.324,18.442 7.332,18.572 7.332,18.7C7.332,18.796 7.33,18.896 7.326,19C7.322,19.104 7.32,19.216 7.32,19.336C7.68,18.808 8.004,18.398 8.292,18.106C8.58,17.814 8.852,17.668 9.108,17.668C9.204,17.668 9.298,17.708 9.39,17.788C9.482,17.868 9.58,17.958 9.684,18.058C9.788,18.158 9.896,18.248 10.008,18.328C10.12,18.408 10.236,18.448 10.356,18.448C10.46,18.448 10.536,18.436 10.584,18.412C10.632,18.388 10.672,18.368 10.704,18.352C10.768,18.352 10.8,18.396 10.8,18.484L10.8,18.496Z" style="fill-rule:nonzero;"/>
        </g>
        <g transform="matrix(1,0,0,1,18.0166,12.5279)">
            <text x="-39.144px" y="23.596px" style="font-family:'Luminari-Regular', 'Luminari';font-size:12px;">ReV<tspan x="-16.236px -9.336px " y="23.596px 23.596px ">oi</tspan>cer</text>
        </g>
        <g transform="matrix(0.0178906,0,0,0.0202937,-5.35692,6.13696)">
            <g transform="matrix(55.8954,0,0,49.2765,-878.032,-330.791)">
                <path d="M27.733,13.757C27.957,11.616 28.949,10 30.136,10C31.489,10 32.587,12.095 32.587,14.677C32.587,15.669 32.424,16.59 32.148,17.347C32.432,17.974 32.587,18.65 32.587,19.353C32.587,22.678 29.128,25.378 24.868,25.378C20.609,25.378 17.15,22.678 17.15,19.353C17.15,18.65 17.305,17.974 17.589,17.347C17.313,16.59 17.15,15.669 17.15,14.677C17.15,12.095 18.248,10 19.601,10C20.788,10 21.779,11.616 22.003,13.757L22.04,13.746C22.915,13.476 23.87,13.328 24.868,13.328C25.881,13.328 26.847,13.48 27.733,13.757ZM17.609,17.304L17.606,17.31L17.609,17.304ZM32.128,17.305L32.131,17.31L32.128,17.305ZM17.627,17.265L17.623,17.273L17.627,17.265ZM32.11,17.266L32.113,17.273L32.11,17.266ZM17.645,17.227L17.641,17.236L17.645,17.227ZM32.092,17.228L32.096,17.236L32.092,17.228ZM17.663,17.19L17.659,17.2L17.663,17.19ZM32.074,17.191L32.078,17.199L32.074,17.191ZM17.682,17.153L17.677,17.162L17.682,17.153ZM32.055,17.154L32.059,17.161L32.055,17.154ZM17.7,17.117L17.696,17.125L17.7,17.117ZM32.037,17.117L32.04,17.123L32.037,17.117ZM17.719,17.081L17.717,17.085L17.719,17.081ZM32.018,17.081L32.019,17.082L32.018,17.081ZM17.782,16.964L17.778,16.971L17.782,16.964ZM31.957,16.968L31.958,16.97L31.957,16.968ZM17.804,16.925L17.798,16.935L17.804,16.925ZM31.935,16.928L31.938,16.934L31.935,16.928ZM17.825,16.888L17.818,16.9L17.825,16.888ZM31.914,16.891L31.918,16.899L31.914,16.891ZM17.845,16.852L17.838,16.865L17.845,16.852ZM31.893,16.854L31.898,16.863L31.893,16.854ZM17.866,16.817L17.859,16.829L17.866,16.817ZM31.871,16.819L31.876,16.827L31.871,16.819ZM17.888,16.782L17.88,16.794L17.888,16.782ZM31.85,16.783L31.855,16.791L31.85,16.783ZM17.909,16.747L17.902,16.758L17.909,16.747ZM31.829,16.748L31.832,16.754L31.829,16.748ZM17.931,16.712L17.925,16.72L17.931,16.712ZM31.807,16.713L31.808,16.714L31.807,16.713ZM17.979,16.635L17.975,16.642L17.979,16.635ZM18.005,16.596L17.998,16.608L18.005,16.596ZM31.735,16.602L31.738,16.606L31.735,16.602ZM18.029,16.561L18.02,16.573L18.029,16.561ZM31.711,16.564L31.716,16.572L31.711,16.564ZM18.052,16.526L18.043,16.539L18.052,16.526ZM31.686,16.529L31.692,16.537L31.686,16.529ZM18.076,16.492L18.066,16.505L18.076,16.492ZM31.663,16.494L31.669,16.503L31.663,16.494ZM18.1,16.458L18.09,16.471L18.1,16.458ZM31.639,16.459L31.645,16.469L31.639,16.459ZM18.124,16.424L18.114,16.437L18.124,16.424ZM31.614,16.425L31.62,16.434L31.614,16.425ZM18.148,16.39L18.139,16.403L18.148,16.39ZM31.59,16.392L31.595,16.398L31.59,16.392ZM18.172,16.357L18.164,16.367L18.172,16.357ZM31.566,16.358L31.567,16.36L31.566,16.358ZM18.197,16.324L18.196,16.324L18.197,16.324ZM18.23,16.28L18.222,16.291L18.23,16.28ZM31.513,16.288L31.514,16.289L31.513,16.288ZM18.257,16.245L18.247,16.258L18.257,16.245ZM31.484,16.249L31.489,16.256L31.484,16.249ZM18.283,16.211L18.272,16.225L18.283,16.211ZM31.456,16.214L31.463,16.223L31.456,16.214ZM18.309,16.178L18.298,16.192L18.309,16.178ZM31.43,16.18L31.438,16.19L31.43,16.18ZM18.335,16.145L18.324,16.16L18.335,16.145ZM31.403,16.147L31.411,16.158L31.403,16.147ZM18.362,16.113L18.35,16.127L18.362,16.113ZM31.376,16.114L31.385,16.125L31.376,16.114ZM18.388,16.081L18.377,16.094L18.388,16.081ZM31.35,16.082L31.357,16.091L31.35,16.082ZM18.415,16.049L18.404,16.061L18.415,16.049ZM31.323,16.05L31.329,16.057L31.323,16.05ZM18.442,16.017L18.433,16.027L18.442,16.017ZM31.295,16.018L31.298,16.021L31.295,16.018ZM18.473,15.981L18.469,15.985L18.473,15.981ZM18.507,15.942L18.497,15.954L18.507,15.942ZM31.234,15.947L31.239,15.953L31.234,15.947ZM18.536,15.909L18.525,15.922L18.536,15.909ZM31.203,15.912L31.211,15.921L31.203,15.912ZM18.565,15.877L18.553,15.891L18.565,15.877ZM31.174,15.879L31.183,15.89L31.174,15.879ZM18.594,15.846L18.581,15.86L18.594,15.846ZM31.145,15.847L31.155,15.859L31.145,15.847ZM18.622,15.815L18.61,15.828L18.622,15.815ZM31.115,15.816L31.126,15.827L31.115,15.816ZM18.651,15.784L18.639,15.797L18.651,15.784ZM31.086,15.785L31.097,15.796L31.086,15.785ZM18.68,15.753L18.668,15.766L18.68,15.753ZM31.057,15.754L31.067,15.765L31.057,15.754ZM18.71,15.723L18.698,15.735L18.71,15.723ZM31.027,15.723L31.037,15.733L31.027,15.723ZM18.739,15.692L18.73,15.702L18.739,15.692ZM30.998,15.693L31.003,15.698L30.998,15.693ZM18.775,15.656L18.769,15.662L18.775,15.656ZM30.965,15.659L30.967,15.662L30.965,15.659ZM18.81,15.621L18.799,15.632L18.81,15.621ZM30.928,15.622L30.937,15.632L30.928,15.622ZM18.842,15.59L18.83,15.602L18.842,15.59ZM30.895,15.591L30.907,15.602L30.895,15.591ZM18.873,15.56L18.86,15.572L18.873,15.56ZM30.864,15.56L30.876,15.572L30.864,15.56ZM18.904,15.53L18.891,15.543L18.904,15.53ZM30.832,15.53L30.846,15.543L30.832,15.53ZM30.801,15.5L30.814,15.513L30.801,15.5ZM18.936,15.501L18.923,15.513L18.936,15.501ZM30.769,15.471L30.783,15.484L30.769,15.471ZM18.967,15.471L18.954,15.483L18.967,15.471ZM30.738,15.442L30.751,15.454L30.738,15.442ZM18.999,15.442L18.986,15.454L18.999,15.442ZM30.706,15.413L30.719,15.425L30.706,15.413ZM19.031,15.413L19.019,15.424L19.031,15.413ZM30.674,15.384L30.684,15.394L30.674,15.384ZM19.063,15.385L19.056,15.391L19.063,15.385ZM30.63,15.346L30.642,15.356L30.63,15.346ZM19.101,15.35L19.095,15.356L19.101,15.35ZM30.595,15.315L30.61,15.328L30.595,15.315ZM19.139,15.318L19.128,15.327L19.139,15.318ZM30.561,15.286L30.577,15.3L30.561,15.286ZM19.173,15.288L19.161,15.299L19.173,15.288ZM30.528,15.258L30.544,15.272L30.528,15.258ZM19.207,15.26L19.194,15.271L19.207,15.26ZM30.494,15.23L30.511,15.244L30.494,15.23ZM19.241,15.231L19.227,15.243L19.241,15.231ZM30.461,15.202L30.478,15.216L30.461,15.202ZM19.274,15.204L19.261,15.215L19.274,15.204ZM30.427,15.175L30.444,15.189L30.427,15.175ZM19.308,15.176L19.295,15.187L19.308,15.176ZM30.393,15.147L30.41,15.161L30.393,15.147ZM19.342,15.149L19.33,15.158L19.342,15.149ZM30.359,15.12L30.376,15.134L30.359,15.12ZM19.377,15.121L19.366,15.129L19.377,15.121ZM30.325,15.093L30.343,15.107L30.326,15.094L30.305,15.078L30.325,15.093ZM19.411,15.094L19.409,15.096L19.411,15.094ZM30.273,15.053L30.292,15.068L30.273,15.053ZM19.452,15.062L19.446,15.067L19.452,15.062ZM30.238,15.027L30.257,15.041L30.238,15.027ZM19.492,15.032L19.481,15.04L19.492,15.032ZM30.203,15L30.222,15.015L30.203,15ZM19.529,15.004L19.516,15.013L19.529,15.004ZM30.168,14.974L30.187,14.989L30.168,14.974ZM19.565,14.977L19.552,14.987L19.565,14.977ZM30.132,14.948L30.152,14.963L30.132,14.948ZM19.601,14.951L19.588,14.961L19.601,14.951ZM30.097,14.922L30.117,14.937L30.097,14.922ZM19.637,14.925L19.624,14.934L19.637,14.925ZM30.061,14.897L30.081,14.911L30.061,14.897ZM19.673,14.899L19.661,14.908L19.673,14.899ZM30.025,14.871L30.046,14.886L30.025,14.871ZM19.71,14.873L19.698,14.881L19.71,14.873ZM29.988,14.846L30.011,14.862L29.988,14.846ZM19.746,14.848L19.738,14.853L19.746,14.848ZM29.954,14.822L29.915,14.796C29.928,14.805 29.941,14.813 29.954,14.822ZM19.826,14.793L19.821,14.796L19.826,14.793ZM29.858,14.758L29.881,14.773L29.858,14.758ZM19.868,14.765L19.858,14.771L19.868,14.765ZM29.822,14.734L29.845,14.749L29.822,14.734ZM19.907,14.739L19.896,14.747L19.907,14.739ZM29.785,14.71L29.807,14.724L29.785,14.71ZM19.946,14.714L19.933,14.722L19.946,14.714ZM29.747,14.686L29.77,14.7L29.747,14.686ZM19.984,14.689L19.971,14.697L19.984,14.689ZM29.71,14.662L29.733,14.676L29.71,14.662ZM20.023,14.665L20.01,14.673L20.023,14.665ZM29.672,14.638L29.696,14.653L29.672,14.638ZM20.061,14.641L20.049,14.648L20.061,14.641ZM29.634,14.615L29.659,14.63L29.634,14.615ZM20.099,14.617L20.09,14.623L20.099,14.617ZM29.494,14.531C29.537,14.556 29.58,14.582 29.623,14.608C29.581,14.582 29.538,14.556 29.494,14.531ZM20.138,14.593L20.134,14.596L20.138,14.593ZM20.221,14.543L20.218,14.545L20.221,14.543ZM29.458,14.51L29.483,14.525L29.458,14.51ZM20.266,14.517L20.257,14.522L20.266,14.517ZM29.42,14.488L29.444,14.502L29.42,14.488ZM20.308,14.493L20.297,14.499L20.308,14.493ZM29.381,14.466L29.405,14.48L29.381,14.466ZM20.349,14.47L20.337,14.477L20.349,14.47ZM29.341,14.444L29.366,14.457L29.341,14.444ZM20.389,14.447L20.377,14.454L20.389,14.447ZM29.302,14.422L29.327,14.436L29.302,14.422ZM20.43,14.425L20.418,14.431L20.43,14.425ZM29.262,14.4L29.288,14.414L29.262,14.4ZM20.47,14.403L20.46,14.408L20.47,14.403ZM29.222,14.379L29.249,14.393L29.222,14.379ZM20.51,14.381L20.503,14.385L20.51,14.381ZM29.186,14.359L29.143,14.337C29.157,14.344 29.171,14.352 29.186,14.359ZM29.077,14.303L29.105,14.317L29.077,14.303ZM20.638,14.314L20.636,14.315L20.638,14.314ZM29.038,14.283L29.064,14.296L29.038,14.283ZM20.685,14.29L20.677,14.294L20.685,14.29ZM28.998,14.263L29.023,14.276L28.998,14.263ZM20.729,14.268L20.719,14.273L20.729,14.268ZM28.957,14.243L28.982,14.255L28.957,14.243ZM20.772,14.247L20.761,14.252L20.772,14.247ZM28.916,14.223L28.941,14.235L28.916,14.223ZM20.814,14.226L20.803,14.232L20.814,14.226ZM28.875,14.203L28.899,14.215L28.875,14.203ZM20.857,14.206L20.846,14.211L20.857,14.206ZM28.833,14.184L28.858,14.195L28.833,14.184ZM20.899,14.186L20.891,14.19L20.899,14.186ZM28.791,14.164L28.817,14.176L28.791,14.164ZM20.942,14.166L20.937,14.168L20.942,14.166ZM28.752,14.146L28.707,14.126C28.722,14.133 28.737,14.139 28.752,14.146ZM28.643,14.097L28.667,14.108L28.643,14.097ZM21.075,14.106L21.074,14.106L21.075,14.106ZM28.601,14.079L28.624,14.089L28.601,14.079ZM21.124,14.084L21.117,14.087L21.124,14.084ZM28.558,14.061L28.581,14.071L28.558,14.061ZM21.17,14.065L21.161,14.068L21.17,14.065ZM28.516,14.043L28.538,14.052L28.516,14.043ZM21.215,14.046L21.204,14.05L21.215,14.046ZM28.473,14.025L28.494,14.034L28.473,14.025ZM21.259,14.027L21.249,14.031L21.259,14.027ZM28.429,14.007L28.451,14.016L28.429,14.007ZM21.303,14.009L21.294,14.013L21.303,14.009ZM28.386,13.989L28.406,13.998L28.386,13.989ZM21.347,13.991L21.341,13.994L21.347,13.991ZM28.342,13.972L28.361,13.979L28.342,13.972ZM21.392,13.973L21.391,13.974L21.392,13.973ZM28.298,13.955L28.311,13.96L28.298,13.955ZM28.243,13.934L28.254,13.938L28.243,13.934ZM28.195,13.915L28.21,13.921L28.195,13.915ZM21.531,13.92L21.53,13.92L21.531,13.92ZM28.149,13.898L28.165,13.904L28.149,13.898ZM21.581,13.901L21.575,13.903L21.581,13.901ZM28.103,13.882L28.119,13.888L28.103,13.882ZM21.629,13.884L21.62,13.887L21.629,13.884ZM28.058,13.866L28.074,13.871L28.058,13.866ZM21.675,13.867L21.666,13.87L21.675,13.867ZM28.013,13.85L28.028,13.855L28.013,13.85ZM21.721,13.851L21.713,13.854L21.721,13.851ZM27.968,13.834L27.981,13.839L27.968,13.834ZM21.767,13.835L21.76,13.837L21.767,13.835ZM27.922,13.819L27.932,13.822L27.922,13.819ZM21.813,13.819L21.809,13.821L21.813,13.819ZM27.877,13.803L27.879,13.804L27.877,13.803Z" style="fill:none;stroke:black;stroke-width:1.22px;"/>
            </g>
            <g transform="matrix(55.8954,0,0,49.2765,-878.032,-330.791)">
                <path d="M25.128,19.358C24.963,19.04 24.868,18.67 24.868,18.275C24.868,17.096 25.713,16.138 26.753,16.138C27.793,16.138 28.637,17.096 28.637,18.275C28.637,19.031 28.291,19.696 27.768,20.076C27.128,19.668 26.188,19.396 25.128,19.358ZM21.969,20.076C21.446,19.696 21.099,19.031 21.099,18.275C21.099,17.096 21.944,16.138 22.984,16.138C24.024,16.138 24.868,17.096 24.868,18.275C24.868,18.67 24.774,19.04 24.609,19.358C23.549,19.396 22.609,19.668 21.969,20.076Z" style="fill:none;stroke:black;stroke-width:1.22px;"/>
            </g>
            <g transform="matrix(1,0,0,1,-53.1856,50.0357)">
                <ellipse cx="565.186" cy="671.455" rx="210.672" ry="98.631" style="fill:none;stroke:black;stroke-width:63.81px;"/>
            </g>
            <g transform="matrix(51.2,0,0,45.1371,0.670978,88.9676)">
                <path d="M12.057,13.791C12.057,13.668 11.958,13.568 11.835,13.568L8.139,13.568C8.016,13.568 7.916,13.668 7.916,13.791L7.916,14.236C7.916,14.359 8.016,14.458 8.139,14.458L11.835,14.458C11.958,14.458 12.057,14.359 12.057,14.236L12.057,13.791Z"/>
            </g>
        </g>
    </g>
</svg>
