<?xml version="1.0" encoding="UTF-8" standalone="no"?>
<!DOCTYPE svg PUBLIC "-//W3C//DTD SVG 1.1//EN" "http://www.w3.org/Graphics/SVG/1.1/DTD/svg11.dtd">
<svg width="100%" height="100%" viewBox="0 0 60 380" version="1.1" xmlns="http://www.w3.org/2000/svg" xmlns:xlink="http://www.w3.org/1999/xlink" xml:space="preserve" xmlns:serif="http://www.serif.com/" style="fill-rule:evenodd;clip-rule:evenodd;stroke-linecap:round;stroke-linejoin:round;stroke-miterlimit:1.5;">
    <g transform="matrix(1.19039,0,0,1.07627,-17.4109,-16.622)">
        <rect x="14.626" y="15.444" width="50.404" height="353.07" style="fill:rgb(242,242,242);"/>
    </g>
    <path d="M34.994,286.472L42.239,286.472L30.329,313.281L18.419,286.472L25.828,286.472L25.828,88.038L34.994,88.038L34.994,286.472Z" style="fill:rgb(217,217,217);"/>
    <g transform="matrix(1,0,0,1,-5.68661,33.6251)">
        <g id="AudioOutput-output" serif:id="AudioOutput#output" transform="matrix(0.175002,0,0,0.175002,12.7528,278.064)">
            <rect x="53.94" y="106.916" width="161.978" height="161.978" style="fill:rgb(77,77,77);"/>
        </g>
        <g transform="matrix(1,0,0,1,-58.177,174.087)">
            <path d="M89.528,114.936C89.528,114.73 89.541,114.54 89.568,114.366C89.595,114.193 89.645,114.04 89.718,113.906C89.838,113.686 90.01,113.51 90.233,113.376C90.456,113.243 90.728,113.176 91.048,113.176C91.368,113.176 91.64,113.243 91.863,113.376C92.086,113.51 92.258,113.686 92.378,113.906C92.451,114.04 92.501,114.193 92.528,114.366C92.555,114.54 92.568,114.73 92.568,114.936L92.568,116.606C92.568,116.813 92.555,117.003 92.528,117.176C92.501,117.35 92.451,117.503 92.378,117.636C92.258,117.856 92.086,118.033 91.863,118.166C91.64,118.3 91.368,118.366 91.048,118.366C90.728,118.366 90.456,118.3 90.233,118.166C90.01,118.033 89.838,117.856 89.718,117.636C89.645,117.503 89.595,117.35 89.568,117.176C89.541,117.003 89.528,116.813 89.528,116.606L89.528,114.936ZM90.548,116.766C90.548,116.96 90.593,117.105 90.683,117.201C90.773,117.298 90.895,117.346 91.048,117.346C91.201,117.346 91.323,117.298 91.413,117.201C91.503,117.105 91.548,116.96 91.548,116.766L91.548,114.776C91.548,114.583 91.503,114.438 91.413,114.341C91.323,114.245 91.201,114.196 91.048,114.196C90.895,114.196 90.773,114.245 90.683,114.341C90.593,114.438 90.548,114.583 90.548,114.776L90.548,116.766Z" style="fill-rule:nonzero;"/>
            <path d="M96.368,113.236L96.368,118.306L95.348,118.306L95.348,117.816L95.328,117.816C95.221,117.976 95.093,118.108 94.943,118.211C94.793,118.315 94.601,118.366 94.368,118.366C94.241,118.366 94.115,118.345 93.988,118.301C93.861,118.258 93.748,118.186 93.648,118.086C93.548,117.986 93.468,117.858 93.408,117.701C93.348,117.545 93.318,117.353 93.318,117.126L93.318,113.236L94.338,113.236L94.338,116.746C94.338,116.933 94.381,117.08 94.468,117.186C94.555,117.293 94.678,117.346 94.838,117.346C95.031,117.346 95.165,117.286 95.238,117.166C95.311,117.046 95.348,116.873 95.348,116.646L95.348,113.236L96.368,113.236Z" style="fill-rule:nonzero;"/>
            <path d="M97.208,113.236L97.208,111.696L98.228,111.696L98.228,113.236L98.858,113.236L98.858,114.036L98.228,114.036L98.228,116.846C98.228,116.966 98.24,117.06 98.263,117.126C98.286,117.193 98.325,117.243 98.378,117.276C98.431,117.31 98.496,117.33 98.573,117.336C98.65,117.343 98.745,117.346 98.858,117.346L98.858,118.306L98.438,118.306C98.205,118.306 98.01,118.27 97.853,118.196C97.696,118.123 97.571,118.03 97.478,117.916C97.385,117.803 97.316,117.675 97.273,117.531C97.23,117.388 97.208,117.25 97.208,117.116L97.208,114.036L96.698,114.036L96.698,113.236L97.208,113.236Z" style="fill-rule:nonzero;"/>
        </g>
        <g transform="matrix(1,0,0,1,-58.177,174.087)">
            <text x="89.198px" y="118.306px" style="font-family:'DINCondensed-Bold', 'DIN Condensed';font-weight:700;font-stretch:condensed;font-size:10px;">out</text>
        </g>
    </g>
    <g transform="matrix(1,0,0,1,-5.68661,-174.707)">
        <g id="AudioInput-input" serif:id="AudioInput#input" transform="matrix(0.175002,0,0,0.175002,12.0738,225.875)">
            <rect x="53.94" y="106.916" width="161.978" height="161.978" style="fill:rgb(217,217,217);"/>
        </g>
        <g transform="matrix(1,0,0,1,-55.7072,121.958)">
            <path d="M89.618,118.306L89.618,113.236L90.638,113.236L90.638,118.306L89.618,118.306ZM89.618,112.206L89.618,111.186L90.638,111.186L90.638,112.206L89.618,112.206Z" style="fill-rule:nonzero;"/>
            <path d="M91.478,118.306L91.478,113.236L92.498,113.236L92.498,113.726L92.518,113.726C92.625,113.566 92.753,113.435 92.903,113.331C93.053,113.228 93.245,113.176 93.478,113.176C93.605,113.176 93.731,113.198 93.858,113.241C93.985,113.285 94.098,113.356 94.198,113.456C94.298,113.556 94.378,113.685 94.438,113.841C94.498,113.998 94.528,114.19 94.528,114.416L94.528,118.306L93.508,118.306L93.508,114.796C93.508,114.61 93.465,114.463 93.378,114.356C93.291,114.25 93.168,114.196 93.008,114.196C92.815,114.196 92.681,114.256 92.608,114.376C92.535,114.496 92.498,114.67 92.498,114.896L92.498,118.306L91.478,118.306Z" style="fill-rule:nonzero;"/>
        </g>
        <g transform="matrix(1,0,0,1,-55.7072,121.958)">
            <text x="89.198px" y="118.306px" style="font-family:'DINCondensed-Bold', 'DIN Condensed';font-weight:700;font-stretch:condensed;font-size:10px;">in</text>
        </g>
    </g>
    <g id="Quality" transform="matrix(1,0,0,1,3.95343,97.5216)">
        <g id="Down-button" serif:id="Down#button" transform="matrix(0.758898,0,0,0.758898,-15.8651,-110.944)">
            <circle cx="55.661" cy="308.513" r="7.929"/>
        </g>
        <g id="Value-lcd-2" serif:id="Value#lcd$2" transform="matrix(0.592443,0,0,0.846667,-95.4883,-159.817)">
            <rect x="173.071" y="291.218" width="64.141" height="28.346" style="fill:rgb(13,13,13);"/>
        </g>
        <g id="Up-button" serif:id="Up#button" transform="matrix(0.758898,0,0,0.758898,-15.8651,-159.821)">
            <circle cx="55.661" cy="308.513" r="7.929"/>
        </g>
        <g transform="matrix(1.20656,0,0,0.837154,-10.1503,-71.6461)">
            <rect x="13.424" y="139.512" width="33.152" height="19.383" style="fill:rgb(242,242,242);"/>
        </g>
        <g transform="matrix(1,0,0,1,-63.9593,-59.4033)">
            <path d="M75.062,115.618C75.062,116.013 75.171,116.304 75.39,116.49C75.609,116.677 75.867,116.77 76.166,116.77C76.315,116.77 76.433,116.749 76.518,116.706L75.782,116.114L76.614,115.122L77.27,115.65L77.27,109.602C77.27,109.208 77.161,108.917 76.942,108.73C76.723,108.544 76.465,108.45 76.166,108.45C75.867,108.45 75.609,108.544 75.39,108.73C75.171,108.917 75.062,109.208 75.062,109.602L75.062,115.618ZM73.43,109.602C73.43,109.144 73.51,108.738 73.67,108.386C73.83,108.034 74.043,107.741 74.31,107.506C74.566,107.282 74.857,107.112 75.182,106.994C75.507,106.877 75.835,106.818 76.166,106.818C76.497,106.818 76.825,106.877 77.15,106.994C77.475,107.112 77.771,107.282 78.038,107.506C78.294,107.741 78.502,108.034 78.662,108.386C78.822,108.738 78.902,109.144 78.902,109.602L78.902,115.618C78.902,116.066 78.822,116.456 78.662,116.786L79.67,117.602L78.838,118.594L77.878,117.81C77.387,118.205 76.817,118.402 76.166,118.402C75.835,118.402 75.507,118.344 75.182,118.226C74.857,118.109 74.566,117.933 74.31,117.698C74.043,117.474 73.83,117.192 73.67,116.85C73.51,116.509 73.43,116.098 73.43,115.618L73.43,109.602Z" style="fill-rule:nonzero;"/>
            <path d="M85.126,110.194L85.126,118.306L83.494,118.306L83.494,117.522L83.462,117.522C83.291,117.778 83.086,117.989 82.846,118.154C82.606,118.32 82.299,118.402 81.926,118.402C81.723,118.402 81.521,118.368 81.318,118.298C81.115,118.229 80.934,118.114 80.774,117.954C80.614,117.794 80.486,117.589 80.39,117.338C80.294,117.088 80.246,116.781 80.246,116.418L80.246,110.194L81.878,110.194L81.878,115.81C81.878,116.109 81.947,116.344 82.086,116.514C82.225,116.685 82.422,116.77 82.678,116.77C82.987,116.77 83.201,116.674 83.318,116.482C83.435,116.29 83.494,116.013 83.494,115.65L83.494,110.194L85.126,110.194Z" style="fill-rule:nonzero;"/>
            <path d="M89.558,118.306L89.558,117.474L89.526,117.474C89.313,117.773 89.097,118.002 88.878,118.162C88.659,118.322 88.353,118.402 87.958,118.402C87.766,118.402 87.571,118.373 87.374,118.314C87.177,118.256 86.987,118.146 86.806,117.986C86.625,117.837 86.478,117.621 86.366,117.338C86.254,117.056 86.198,116.69 86.198,116.242C86.198,115.784 86.235,115.381 86.31,115.034C86.385,114.688 86.523,114.397 86.726,114.162C86.918,113.938 87.179,113.77 87.51,113.658C87.841,113.546 88.262,113.49 88.774,113.49L88.95,113.49C89.014,113.49 89.073,113.496 89.126,113.506C89.179,113.517 89.243,113.522 89.318,113.522C89.393,113.522 89.473,113.528 89.558,113.538L89.558,112.69C89.558,112.413 89.499,112.184 89.382,112.002C89.265,111.821 89.051,111.73 88.742,111.73C88.529,111.73 88.334,111.8 88.158,111.938C87.982,112.077 87.867,112.28 87.814,112.546L86.23,112.546C86.273,111.821 86.518,111.234 86.966,110.786C87.179,110.573 87.435,110.405 87.734,110.282C88.033,110.16 88.369,110.098 88.742,110.098C89.083,110.098 89.403,110.152 89.702,110.258C90.001,110.365 90.262,110.525 90.486,110.738C90.699,110.952 90.87,111.218 90.998,111.538C91.126,111.858 91.19,112.232 91.19,112.658L91.19,118.306L89.558,118.306ZM89.558,114.818C89.377,114.786 89.227,114.77 89.11,114.77C88.758,114.77 88.457,114.853 88.206,115.018C87.955,115.184 87.83,115.485 87.83,115.922C87.83,116.232 87.905,116.482 88.054,116.674C88.203,116.866 88.411,116.962 88.678,116.962C88.955,116.962 89.171,116.872 89.326,116.69C89.481,116.509 89.558,116.253 89.558,115.922L89.558,114.818Z" style="fill-rule:nonzero;"/>
            <path d="M92.294,106.914L93.926,106.914L93.926,116.018C93.926,116.328 93.982,116.538 94.094,116.65C94.206,116.762 94.417,116.834 94.726,116.866L94.726,118.402C94.353,118.402 94.017,118.373 93.718,118.314C93.419,118.256 93.163,118.141 92.95,117.97C92.737,117.81 92.574,117.584 92.462,117.29C92.35,116.997 92.294,116.61 92.294,116.13L92.294,106.914Z" style="fill-rule:nonzero;"/>
            <path d="M95.366,118.306L95.366,110.194L96.998,110.194L96.998,118.306L95.366,118.306ZM95.366,108.546L95.366,106.914L96.998,106.914L96.998,108.546L95.366,108.546Z" style="fill-rule:nonzero;"/>
            <path d="M98.342,110.194L98.342,107.73L99.974,107.73L99.974,110.194L100.982,110.194L100.982,111.474L99.974,111.474L99.974,115.97C99.974,116.162 99.993,116.312 100.03,116.418C100.067,116.525 100.129,116.605 100.214,116.658C100.299,116.712 100.403,116.744 100.526,116.754C100.649,116.765 100.801,116.77 100.982,116.77L100.982,118.306L100.31,118.306C99.937,118.306 99.625,118.248 99.374,118.13C99.123,118.013 98.923,117.864 98.774,117.682C98.625,117.501 98.515,117.296 98.446,117.066C98.377,116.837 98.342,116.616 98.342,116.402L98.342,111.474L97.526,111.474L97.526,110.194L98.342,110.194Z" style="fill-rule:nonzero;"/>
            <path d="M100.918,110.194L102.646,110.194L103.766,115.25L103.798,115.25L104.902,110.194L106.582,110.194L104.246,119.714C104.161,120.077 104.041,120.376 103.886,120.61C103.731,120.845 103.553,121.037 103.35,121.186C103.147,121.336 102.931,121.44 102.702,121.498C102.473,121.557 102.235,121.586 101.99,121.586L101.542,121.586L101.542,120.05L101.91,120.05C102.07,120.05 102.209,120.029 102.326,119.986C102.443,119.944 102.55,119.848 102.646,119.698C102.731,119.549 102.811,119.338 102.886,119.066C102.961,118.794 103.046,118.418 103.142,117.938L100.918,110.194Z" style="fill-rule:nonzero;"/>
        </g>
        <g transform="matrix(1,0,0,1,-63.9593,-59.4033)">
            <text x="72.758px" y="118.306px" style="font-family:'DINCondensed-Bold', 'DIN Condensed';font-weight:700;font-stretch:condensed;font-size:16px;">Quality</text>
        </g>
    </g>
    <g transform="matrix(1,0,0,1,26.197,0.576)">
        <g transform="matrix(0.0161581,0,0,0.0183285,-4.36454,6.45527)">
            <g transform="matrix(1,0,0,1,-143.343,98.6554)">
                <ellipse cx="360.896" cy="293.762" rx="136.961" ry="230.443" style="fill:rgb(235,235,235);stroke:black;stroke-width:70.65px;"/>
            </g>
            <g transform="matrix(1,0,0,1,445.551,98.6554)">
                <ellipse cx="360.896" cy="293.762" rx="136.961" ry="230.443" style="fill:rgb(235,235,235);stroke:black;stroke-width:70.65px;"/>
            </g>
            <g transform="matrix(1,0,0,1,-34.3236,-20.6488)">
                <ellipse cx="546.324" cy="643.509" rx="431.408" ry="296.899" style="fill:rgb(235,235,235);stroke:black;stroke-width:70.65px;"/>
            </g>
            <circle cx="406.664" cy="569.758" r="105.336" style="fill:rgb(235,235,235);stroke:black;stroke-width:70.65px;"/>
            <g transform="matrix(1,0,0,1,210.672,0)">
                <circle cx="406.664" cy="569.758" r="105.336" style="fill:rgb(235,235,235);stroke:black;stroke-width:70.65px;"/>
            </g>
            <g transform="matrix(1,0,0,1,-53.1856,50.0357)">
                <ellipse cx="565.186" cy="671.455" rx="210.672" ry="98.631" style="fill:rgb(235,235,235);stroke:black;stroke-width:70.65px;"/>
            </g>
            <g transform="matrix(51.2,0,0,45.1371,0.670978,88.9676)">
                <path d="M12.057,13.791C12.057,13.668 11.958,13.568 11.835,13.568L8.139,13.568C8.016,13.568 7.916,13.668 7.916,13.791L7.916,14.236C7.916,14.359 8.016,14.458 8.139,14.458L11.835,14.458C11.958,14.458 12.057,14.359 12.057,14.236L12.057,13.791Z"/>
            </g>
        </g>
        <g transform="matrix(1,0,0,1,20.6746,12.0199)">
            <path d="M-36.096,20.968C-36.096,21.376 -36.088,21.774 -36.072,22.162C-36.056,22.55 -36.012,22.864 -35.94,23.104C-35.796,23.192 -35.634,23.246 -35.454,23.266C-35.274,23.286 -35.104,23.3 -34.944,23.308C-34.784,23.316 -34.65,23.332 -34.542,23.356C-34.434,23.38 -34.38,23.432 -34.38,23.512C-34.38,23.552 -34.4,23.586 -34.44,23.614C-34.48,23.642 -34.544,23.656 -34.632,23.656C-34.864,23.664 -35.18,23.654 -35.58,23.626C-35.98,23.598 -36.436,23.584 -36.948,23.584C-37.604,23.584 -38.098,23.606 -38.43,23.65C-38.762,23.694 -38.96,23.716 -39.024,23.716C-39.08,23.716 -39.128,23.702 -39.168,23.674C-39.208,23.646 -39.228,23.608 -39.228,23.56C-39.228,23.456 -39.18,23.4 -39.084,23.392C-38.988,23.384 -38.808,23.36 -38.544,23.32C-38.368,23.304 -38.224,23.282 -38.112,23.254C-38,23.226 -37.888,23.192 -37.776,23.152C-37.728,22.976 -37.688,22.796 -37.656,22.612C-37.624,22.428 -37.596,22.198 -37.572,21.922C-37.548,21.646 -37.53,21.302 -37.518,20.89C-37.506,20.478 -37.5,19.948 -37.5,19.3C-37.5,18.708 -37.504,18.206 -37.512,17.794C-37.52,17.382 -37.534,17.038 -37.554,16.762C-37.574,16.486 -37.594,16.268 -37.614,16.108C-37.634,15.948 -37.656,15.824 -37.68,15.736C-37.784,15.664 -37.92,15.618 -38.088,15.598C-38.256,15.578 -38.42,15.562 -38.58,15.55C-38.74,15.538 -38.878,15.52 -38.994,15.496C-39.11,15.472 -39.168,15.416 -39.168,15.328C-39.168,15.224 -39.104,15.172 -38.976,15.172C-38.832,15.172 -38.586,15.19 -38.238,15.226C-37.89,15.262 -37.464,15.28 -36.96,15.28C-36.88,15.28 -36.816,15.268 -36.768,15.244C-36.688,15.204 -36.56,15.148 -36.384,15.076C-36.208,15.004 -36.004,14.932 -35.772,14.86C-35.54,14.788 -35.294,14.724 -35.034,14.668C-34.774,14.612 -34.52,14.584 -34.272,14.584C-33.872,14.584 -33.492,14.63 -33.132,14.722C-32.772,14.814 -32.458,14.952 -32.19,15.136C-31.922,15.32 -31.708,15.548 -31.548,15.82C-31.388,16.092 -31.308,16.408 -31.308,16.768C-31.308,17.12 -31.39,17.446 -31.554,17.746C-31.718,18.046 -31.924,18.32 -32.172,18.568C-32.42,18.816 -32.692,19.03 -32.988,19.21C-33.284,19.39 -33.56,19.532 -33.816,19.636C-33.488,19.636 -33.178,19.67 -32.886,19.738C-32.594,19.806 -32.33,19.902 -32.094,20.026C-31.858,20.15 -31.662,20.3 -31.506,20.476C-31.35,20.652 -31.248,20.852 -31.2,21.076C-31.2,21.188 -31.21,21.262 -31.23,21.298C-31.25,21.334 -31.288,21.392 -31.344,21.472C-31.184,21.728 -31.006,22.03 -30.81,22.378C-30.614,22.726 -30.394,23.058 -30.15,23.374C-29.906,23.69 -29.634,23.958 -29.334,24.178C-29.034,24.398 -28.7,24.508 -28.332,24.508C-28.26,24.508 -28.178,24.504 -28.086,24.496C-27.994,24.488 -27.906,24.472 -27.822,24.448C-27.738,24.424 -27.66,24.388 -27.588,24.34C-27.516,24.292 -27.464,24.228 -27.432,24.148C-27.4,24.124 -27.368,24.112 -27.336,24.112C-27.296,24.112 -27.27,24.132 -27.258,24.172C-27.246,24.212 -27.236,24.252 -27.228,24.292C-27.388,24.652 -27.784,24.832 -28.416,24.832C-28.736,24.832 -29.042,24.78 -29.334,24.676C-29.626,24.572 -29.906,24.434 -30.174,24.262C-30.442,24.09 -30.698,23.892 -30.942,23.668C-31.186,23.444 -31.416,23.212 -31.632,22.972C-31.792,22.796 -31.978,22.576 -32.19,22.312C-32.402,22.048 -32.628,21.778 -32.868,21.502C-33.108,21.226 -33.358,20.966 -33.618,20.722C-33.878,20.478 -34.136,20.288 -34.392,20.152C-34.512,20.096 -34.648,20.054 -34.8,20.026C-34.952,19.998 -35.098,19.978 -35.238,19.966C-35.378,19.954 -35.508,19.948 -35.628,19.948L-35.904,19.948C-35.952,19.948 -35.992,19.95 -36.024,19.954C-36.056,19.958 -36.08,19.96 -36.096,19.96L-36.096,20.968ZM-35.892,15.916C-35.932,16.068 -35.964,16.28 -35.988,16.552C-36.012,16.824 -36.032,17.122 -36.048,17.446C-36.064,17.77 -36.076,18.106 -36.084,18.454C-36.092,18.802 -36.096,19.132 -36.096,19.444C-36.016,19.508 -35.862,19.544 -35.634,19.552C-35.406,19.56 -35.16,19.564 -34.896,19.564C-34.664,19.564 -34.47,19.544 -34.314,19.504C-34.158,19.464 -34.012,19.392 -33.876,19.288C-33.796,19.232 -33.706,19.14 -33.606,19.012C-33.506,18.884 -33.41,18.732 -33.318,18.556C-33.226,18.38 -33.148,18.182 -33.084,17.962C-33.02,17.742 -32.988,17.508 -32.988,17.26C-32.988,16.9 -33.028,16.578 -33.108,16.294C-33.188,16.01 -33.296,15.766 -33.432,15.562C-33.568,15.358 -33.728,15.202 -33.912,15.094C-34.096,14.986 -34.292,14.932 -34.5,14.932C-34.612,14.932 -34.738,14.954 -34.878,14.998C-35.018,15.042 -35.156,15.1 -35.292,15.172C-35.428,15.244 -35.548,15.326 -35.652,15.418C-35.756,15.51 -35.824,15.608 -35.856,15.712L-35.892,15.916Z" style="fill-rule:nonzero;"/>
            <path d="M-24.192,22.192C-24.28,22.288 -24.416,22.42 -24.6,22.588C-24.784,22.756 -25.006,22.924 -25.266,23.092C-25.526,23.26 -25.816,23.404 -26.136,23.524C-26.456,23.644 -26.796,23.704 -27.156,23.704C-27.484,23.704 -27.804,23.654 -28.116,23.554C-28.428,23.454 -28.708,23.302 -28.956,23.098C-29.204,22.894 -29.402,22.634 -29.55,22.318C-29.698,22.002 -29.772,21.624 -29.772,21.184C-29.772,20.824 -29.748,20.514 -29.7,20.254C-29.652,19.994 -29.588,19.766 -29.508,19.57C-29.428,19.374 -29.338,19.206 -29.238,19.066C-29.138,18.926 -29.036,18.8 -28.932,18.688C-28.804,18.544 -28.648,18.408 -28.464,18.28C-28.28,18.152 -28.082,18.036 -27.87,17.932C-27.658,17.828 -27.434,17.746 -27.198,17.686C-26.962,17.626 -26.724,17.596 -26.484,17.596C-26.052,17.596 -25.714,17.668 -25.47,17.812C-25.226,17.956 -25.104,18.156 -25.104,18.412C-25.104,18.572 -25.152,18.72 -25.248,18.856C-25.168,18.832 -25.066,18.792 -24.942,18.736C-24.818,18.68 -24.692,18.622 -24.564,18.562C-24.436,18.502 -24.322,18.448 -24.222,18.4C-24.122,18.352 -24.056,18.316 -24.024,18.292C-24.008,18.276 -23.99,18.27 -23.97,18.274C-23.95,18.278 -23.94,18.292 -23.94,18.316C-23.94,18.42 -23.96,18.506 -24,18.574C-24.04,18.642 -24.088,18.696 -24.144,18.736C-24.272,18.816 -24.456,18.916 -24.696,19.036C-24.936,19.156 -25.202,19.282 -25.494,19.414C-25.786,19.546 -26.088,19.678 -26.4,19.81C-26.712,19.942 -27.006,20.068 -27.282,20.188C-27.558,20.308 -27.798,20.414 -28.002,20.506C-28.206,20.598 -28.344,20.664 -28.416,20.704C-28.416,20.976 -28.362,21.23 -28.254,21.466C-28.146,21.702 -27.996,21.908 -27.804,22.084C-27.612,22.26 -27.382,22.398 -27.114,22.498C-26.846,22.598 -26.552,22.648 -26.232,22.648C-25.944,22.648 -25.684,22.618 -25.452,22.558C-25.22,22.498 -25.024,22.43 -24.864,22.354C-24.704,22.278 -24.578,22.21 -24.486,22.15C-24.394,22.09 -24.344,22.06 -24.336,22.06C-24.304,22.06 -24.272,22.074 -24.24,22.102C-24.208,22.13 -24.192,22.16 -24.192,22.192ZM-28.416,20.356C-28.28,20.308 -28.126,20.25 -27.954,20.182C-27.782,20.114 -27.614,20.04 -27.45,19.96C-27.286,19.88 -27.136,19.804 -27,19.732C-26.864,19.66 -26.76,19.596 -26.688,19.54C-26.544,19.436 -26.472,19.26 -26.472,19.012C-26.472,18.916 -26.49,18.816 -26.526,18.712C-26.562,18.608 -26.616,18.514 -26.688,18.43C-26.76,18.346 -26.848,18.278 -26.952,18.226C-27.056,18.174 -27.172,18.148 -27.3,18.148C-27.412,18.148 -27.532,18.186 -27.66,18.262C-27.788,18.338 -27.908,18.462 -28.02,18.634C-28.132,18.806 -28.226,19.034 -28.302,19.318C-28.378,19.602 -28.416,19.948 -28.416,20.356Z" style="fill-rule:nonzero;"/>
            <path d="M-16.008,15.04C-15.912,15.04 -15.804,15.038 -15.684,15.034C-15.564,15.03 -15.45,15.026 -15.342,15.022C-15.234,15.018 -15.142,15.014 -15.066,15.01C-14.99,15.006 -14.94,15.004 -14.916,15.004C-14.78,15.004 -14.712,15.044 -14.712,15.124C-14.712,15.196 -14.74,15.248 -14.796,15.28C-14.852,15.312 -14.918,15.336 -14.994,15.352C-15.07,15.368 -15.148,15.378 -15.228,15.382C-15.308,15.386 -15.372,15.4 -15.42,15.424C-15.788,16.128 -16.146,16.826 -16.494,17.518C-16.842,18.21 -17.176,18.87 -17.496,19.498C-17.816,20.126 -18.118,20.706 -18.402,21.238C-18.686,21.77 -18.942,22.232 -19.17,22.624C-19.398,23.016 -19.596,23.324 -19.764,23.548C-19.932,23.772 -20.06,23.884 -20.148,23.884C-20.188,23.86 -20.228,23.822 -20.268,23.77C-20.308,23.718 -20.348,23.648 -20.388,23.56C-20.508,23.312 -20.644,23.012 -20.796,22.66C-20.948,22.308 -21.108,21.928 -21.276,21.52C-21.444,21.112 -21.62,20.69 -21.804,20.254C-21.988,19.818 -22.172,19.384 -22.356,18.952L-22.608,18.352C-22.744,18.016 -22.876,17.684 -23.004,17.356C-23.132,17.028 -23.25,16.726 -23.358,16.45C-23.466,16.174 -23.562,15.94 -23.646,15.748C-23.73,15.556 -23.8,15.428 -23.856,15.364C-24.056,15.364 -24.212,15.36 -24.324,15.352C-24.436,15.344 -24.52,15.334 -24.576,15.322C-24.632,15.31 -24.668,15.294 -24.684,15.274C-24.7,15.254 -24.708,15.232 -24.708,15.208C-24.708,15.152 -24.692,15.104 -24.66,15.064C-24.628,15.024 -24.596,15.004 -24.564,15.004C-24.54,15.004 -24.478,15.006 -24.378,15.01C-24.278,15.014 -24.154,15.018 -24.006,15.022C-23.858,15.026 -23.692,15.032 -23.508,15.04C-23.324,15.048 -23.14,15.052 -22.956,15.052C-22.26,15.052 -21.756,15.038 -21.444,15.01C-21.132,14.982 -20.944,14.968 -20.88,14.968C-20.728,14.968 -20.652,15.008 -20.652,15.088C-20.652,15.104 -20.656,15.126 -20.664,15.154C-20.672,15.182 -20.694,15.212 -20.73,15.244C-20.766,15.276 -20.826,15.304 -20.91,15.328C-20.994,15.352 -21.108,15.364 -21.252,15.364C-21.356,15.364 -21.458,15.362 -21.558,15.358C-21.658,15.354 -21.736,15.348 -21.792,15.34C-21.792,15.396 -21.748,15.568 -21.66,15.856C-21.572,16.144 -21.458,16.496 -21.318,16.912C-21.178,17.328 -21.018,17.78 -20.838,18.268C-20.658,18.756 -20.478,19.23 -20.298,19.69C-20.118,20.15 -19.946,20.57 -19.782,20.95C-19.618,21.33 -19.476,21.62 -19.356,21.82C-19.292,21.732 -19.192,21.556 -19.056,21.292C-18.92,21.028 -18.768,20.712 -18.6,20.344C-18.432,19.976 -18.258,19.576 -18.078,19.144C-17.898,18.712 -17.734,18.286 -17.586,17.866C-17.438,17.446 -17.316,17.05 -17.22,16.678C-17.124,16.306 -17.076,16 -17.076,15.76C-17.076,15.68 -17.082,15.596 -17.094,15.508C-17.106,15.42 -17.144,15.368 -17.208,15.352C-17.416,15.352 -17.586,15.348 -17.718,15.34C-17.85,15.332 -17.956,15.322 -18.036,15.31C-18.116,15.298 -18.18,15.282 -18.228,15.262C-18.276,15.242 -18.32,15.224 -18.36,15.208C-18.384,15.176 -18.396,15.128 -18.396,15.064C-18.396,15 -18.372,14.968 -18.324,14.968L-18.168,14.968C-18.08,14.976 -17.932,14.986 -17.724,14.998C-17.516,15.01 -17.208,15.024 -16.8,15.04L-16.008,15.04Z" style="fill-rule:nonzero;"/>
            <path d="M-11.088,22.636C-11.176,22.708 -11.296,22.804 -11.448,22.924C-11.6,23.044 -11.776,23.164 -11.976,23.284C-12.176,23.404 -12.396,23.506 -12.636,23.59C-12.876,23.674 -13.128,23.716 -13.392,23.716C-13.792,23.716 -14.148,23.646 -14.46,23.506C-14.772,23.366 -15.034,23.178 -15.246,22.942C-15.458,22.706 -15.618,22.428 -15.726,22.108C-15.834,21.788 -15.888,21.448 -15.888,21.088C-15.888,20.664 -15.824,20.288 -15.696,19.96C-15.568,19.632 -15.41,19.346 -15.222,19.102C-15.034,18.858 -14.832,18.654 -14.616,18.49C-14.4,18.326 -14.204,18.196 -14.028,18.1C-13.948,18.052 -13.846,18 -13.722,17.944C-13.598,17.888 -13.462,17.836 -13.314,17.788C-13.166,17.74 -13.006,17.698 -12.834,17.662C-12.662,17.626 -12.484,17.608 -12.3,17.608C-11.956,17.608 -11.622,17.652 -11.298,17.74C-10.974,17.828 -10.688,17.966 -10.44,18.154C-10.192,18.342 -9.992,18.584 -9.84,18.88C-9.688,19.176 -9.612,19.532 -9.612,19.948C-9.612,20.284 -9.674,20.6 -9.798,20.896C-9.922,21.192 -10.068,21.456 -10.236,21.688C-10.404,21.92 -10.57,22.118 -10.734,22.282C-10.898,22.446 -11.016,22.564 -11.088,22.636ZM-12.444,22.828C-11.988,22.828 -11.638,22.656 -11.394,22.312C-11.15,21.968 -11.028,21.44 -11.028,20.728C-11.028,20.368 -11.078,20.034 -11.178,19.726C-11.278,19.418 -11.418,19.148 -11.598,18.916C-11.778,18.684 -11.988,18.502 -12.228,18.37C-12.468,18.238 -12.728,18.172 -13.008,18.172C-13.208,18.172 -13.398,18.224 -13.578,18.328C-13.758,18.432 -13.916,18.582 -14.052,18.778C-14.188,18.974 -14.296,19.212 -14.376,19.492C-14.456,19.772 -14.496,20.088 -14.496,20.44C-14.496,20.816 -14.438,21.152 -14.322,21.448C-14.206,21.744 -14.052,21.994 -13.86,22.198C-13.668,22.402 -13.45,22.558 -13.206,22.666C-12.962,22.774 -12.708,22.828 -12.444,22.828Z" style="fill-rule:nonzero;"/>
            <path d="M-7.092,21.508C-7.092,21.676 -7.088,21.838 -7.08,21.994C-7.072,22.15 -7.044,22.284 -6.996,22.396C-6.948,22.508 -6.876,22.598 -6.78,22.666C-6.684,22.734 -6.548,22.768 -6.372,22.768C-6.284,22.768 -6.184,22.758 -6.072,22.738C-5.96,22.718 -5.854,22.692 -5.754,22.66C-5.654,22.628 -5.566,22.596 -5.49,22.564C-5.414,22.532 -5.368,22.508 -5.352,22.492C-5.328,22.468 -5.312,22.468 -5.304,22.492C-5.296,22.516 -5.294,22.546 -5.298,22.582C-5.302,22.618 -5.312,22.654 -5.328,22.69C-5.344,22.726 -5.364,22.752 -5.388,22.768C-5.468,22.808 -5.608,22.88 -5.808,22.984C-6.008,23.088 -6.244,23.196 -6.516,23.308C-6.772,23.42 -7.022,23.514 -7.266,23.59C-7.51,23.666 -7.712,23.704 -7.872,23.704C-8.056,23.704 -8.2,23.648 -8.304,23.536C-8.408,23.424 -8.46,23.284 -8.46,23.116C-8.46,23.06 -8.458,23.012 -8.454,22.972C-8.45,22.932 -8.444,22.88 -8.436,22.816C-8.428,22.736 -8.414,22.59 -8.394,22.378C-8.374,22.166 -8.354,21.928 -8.334,21.664C-8.314,21.4 -8.296,21.134 -8.28,20.866C-8.264,20.598 -8.256,20.368 -8.256,20.176L-8.256,19.756C-8.256,19.548 -8.268,19.364 -8.292,19.204C-8.316,19.044 -8.356,18.92 -8.412,18.832C-8.452,18.776 -8.502,18.73 -8.562,18.694C-8.622,18.658 -8.696,18.64 -8.784,18.64C-8.832,18.64 -8.88,18.65 -8.928,18.67C-8.976,18.69 -9.012,18.7 -9.036,18.7C-9.052,18.7 -9.078,18.676 -9.114,18.628C-9.15,18.58 -9.148,18.544 -9.108,18.52C-9.052,18.48 -8.936,18.416 -8.76,18.328C-8.584,18.24 -8.392,18.144 -8.184,18.04C-7.96,17.928 -7.744,17.83 -7.536,17.746C-7.328,17.662 -7.18,17.62 -7.092,17.62C-7.004,17.62 -6.944,17.646 -6.912,17.698C-6.88,17.75 -6.864,17.808 -6.864,17.872L-6.864,17.92C-6.864,18 -6.876,18.128 -6.9,18.304C-6.924,18.48 -6.95,18.696 -6.978,18.952C-7.006,19.208 -7.032,19.504 -7.056,19.84C-7.08,20.176 -7.092,20.54 -7.092,20.932L-7.092,21.508ZM-7.572,15.268C-7.532,15.276 -7.466,15.32 -7.374,15.4C-7.282,15.48 -7.188,15.572 -7.092,15.676C-6.996,15.78 -6.912,15.88 -6.84,15.976C-6.768,16.072 -6.732,16.136 -6.732,16.168C-6.732,16.208 -6.78,16.268 -6.876,16.348C-6.972,16.428 -7.082,16.51 -7.206,16.594C-7.33,16.678 -7.45,16.752 -7.566,16.816C-7.682,16.88 -7.764,16.912 -7.812,16.912C-7.836,16.912 -7.894,16.874 -7.986,16.798C-8.078,16.722 -8.172,16.636 -8.268,16.54C-8.364,16.444 -8.45,16.35 -8.526,16.258C-8.602,16.166 -8.64,16.104 -8.64,16.072C-8.64,16.032 -8.588,15.97 -8.484,15.886C-8.38,15.802 -8.266,15.714 -8.142,15.622C-8.018,15.53 -7.898,15.45 -7.782,15.382C-7.666,15.314 -7.596,15.276 -7.572,15.268Z" style="fill-rule:nonzero;"/>
            <path d="M-0.648,18.148C-0.664,18.196 -0.71,18.27 -0.786,18.37C-0.862,18.47 -0.952,18.574 -1.056,18.682C-1.16,18.79 -1.27,18.894 -1.386,18.994C-1.502,19.094 -1.604,19.168 -1.692,19.216C-1.748,19.24 -1.782,19.232 -1.794,19.192C-1.806,19.152 -1.812,19.112 -1.812,19.072C-1.812,19.008 -1.846,18.928 -1.914,18.832C-1.982,18.736 -2.078,18.642 -2.202,18.55C-2.326,18.458 -2.472,18.38 -2.64,18.316C-2.808,18.252 -2.992,18.22 -3.192,18.22C-3.536,18.22 -3.816,18.406 -4.032,18.778C-4.248,19.15 -4.356,19.644 -4.356,20.26C-4.356,20.636 -4.298,20.974 -4.182,21.274C-4.066,21.574 -3.906,21.826 -3.702,22.03C-3.498,22.234 -3.252,22.39 -2.964,22.498C-2.676,22.606 -2.364,22.66 -2.028,22.66C-1.572,22.66 -1.208,22.602 -0.936,22.486C-0.664,22.37 -0.44,22.236 -0.264,22.084C-0.256,22.084 -0.25,22.08 -0.246,22.072C-0.242,22.064 -0.236,22.06 -0.228,22.06C-0.188,22.06 -0.16,22.074 -0.144,22.102C-0.128,22.13 -0.12,22.164 -0.12,22.204C-0.12,22.236 -0.128,22.26 -0.144,22.276C-0.264,22.372 -0.43,22.5 -0.642,22.66C-0.854,22.82 -1.096,22.978 -1.368,23.134C-1.64,23.29 -1.924,23.424 -2.22,23.536C-2.516,23.648 -2.808,23.704 -3.096,23.704C-3.92,23.704 -4.562,23.464 -5.022,22.984C-5.482,22.504 -5.712,21.848 -5.712,21.016C-5.712,20.384 -5.59,19.852 -5.346,19.42C-5.102,18.988 -4.802,18.642 -4.446,18.382C-4.09,18.122 -3.712,17.936 -3.312,17.824C-2.912,17.712 -2.56,17.656 -2.256,17.656C-2.008,17.656 -1.786,17.674 -1.59,17.71C-1.394,17.746 -1.226,17.79 -1.086,17.842C-0.946,17.894 -0.838,17.948 -0.762,18.004C-0.686,18.06 -0.648,18.108 -0.648,18.148Z" style="fill-rule:nonzero;"/>
            <path d="M5.232,22.192C5.144,22.288 5.008,22.42 4.824,22.588C4.64,22.756 4.418,22.924 4.158,23.092C3.898,23.26 3.608,23.404 3.288,23.524C2.968,23.644 2.628,23.704 2.268,23.704C1.94,23.704 1.62,23.654 1.308,23.554C0.996,23.454 0.716,23.302 0.468,23.098C0.22,22.894 0.022,22.634 -0.126,22.318C-0.274,22.002 -0.348,21.624 -0.348,21.184C-0.348,20.824 -0.324,20.514 -0.276,20.254C-0.228,19.994 -0.164,19.766 -0.084,19.57C-0.004,19.374 0.086,19.206 0.186,19.066C0.286,18.926 0.388,18.8 0.492,18.688C0.62,18.544 0.776,18.408 0.96,18.28C1.144,18.152 1.342,18.036 1.554,17.932C1.766,17.828 1.99,17.746 2.226,17.686C2.462,17.626 2.7,17.596 2.94,17.596C3.372,17.596 3.71,17.668 3.954,17.812C4.198,17.956 4.32,18.156 4.32,18.412C4.32,18.572 4.272,18.72 4.176,18.856C4.256,18.832 4.358,18.792 4.482,18.736C4.606,18.68 4.732,18.622 4.86,18.562C4.988,18.502 5.102,18.448 5.202,18.4C5.302,18.352 5.368,18.316 5.4,18.292C5.416,18.276 5.434,18.27 5.454,18.274C5.474,18.278 5.484,18.292 5.484,18.316C5.484,18.42 5.464,18.506 5.424,18.574C5.384,18.642 5.336,18.696 5.28,18.736C5.152,18.816 4.968,18.916 4.728,19.036C4.488,19.156 4.222,19.282 3.93,19.414C3.638,19.546 3.336,19.678 3.024,19.81C2.712,19.942 2.418,20.068 2.142,20.188C1.866,20.308 1.626,20.414 1.422,20.506C1.218,20.598 1.08,20.664 1.008,20.704C1.008,20.976 1.062,21.23 1.17,21.466C1.278,21.702 1.428,21.908 1.62,22.084C1.812,22.26 2.042,22.398 2.31,22.498C2.578,22.598 2.872,22.648 3.192,22.648C3.48,22.648 3.74,22.618 3.972,22.558C4.204,22.498 4.4,22.43 4.56,22.354C4.72,22.278 4.846,22.21 4.938,22.15C5.03,22.09 5.08,22.06 5.088,22.06C5.12,22.06 5.152,22.074 5.184,22.102C5.216,22.13 5.232,22.16 5.232,22.192ZM1.008,20.356C1.144,20.308 1.298,20.25 1.47,20.182C1.642,20.114 1.81,20.04 1.974,19.96C2.138,19.88 2.288,19.804 2.424,19.732C2.56,19.66 2.664,19.596 2.736,19.54C2.88,19.436 2.952,19.26 2.952,19.012C2.952,18.916 2.934,18.816 2.898,18.712C2.862,18.608 2.808,18.514 2.736,18.43C2.664,18.346 2.576,18.278 2.472,18.226C2.368,18.174 2.252,18.148 2.124,18.148C2.012,18.148 1.892,18.186 1.764,18.262C1.636,18.338 1.516,18.462 1.404,18.634C1.292,18.806 1.198,19.034 1.122,19.318C1.046,19.602 1.008,19.948 1.008,20.356Z" style="fill-rule:nonzero;"/>
        </g>
        <g transform="matrix(1,0,0,1,20.6746,12.0199)">
            <text x="-39.144px" y="23.596px" style="font-family:'Luminari-Regular', 'Luminari';font-size:12px;">ReV<tspan x="-16.236px -9.336px " y="23.596px 23.596px ">oi</tspan>ce</text>
        </g>
    </g>
</svg>
