<?xml version="1.0" encoding="UTF-8" standalone="no"?>
<!DOCTYPE svg PUBLIC "-//W3C//DTD SVG 1.1//EN" "http://www.w3.org/Graphics/SVG/1.1/DTD/svg11.dtd">
<svg width="100%" height="100%" viewBox="0 0 300 380" version="1.1" xmlns="http://www.w3.org/2000/svg" xmlns:xlink="http://www.w3.org/1999/xlink" xml:space="preserve" xmlns:serif="http://www.serif.com/" style="fill-rule:evenodd;clip-rule:evenodd;stroke-linecap:round;stroke-linejoin:round;stroke-miterlimit:1.5;">
    <g transform="matrix(1.4417,0,0,2.01589,-75.7704,-120.797)">
        <rect x="52.556" y="59.922" width="208.087" height="188.503" style="fill:rgb(154,178,191);stroke:rgb(5,5,5);stroke-width:1.14px;"/>
    </g>
    <g id="Mode-knob" serif:id="Mode#knob" transform="matrix(0.758898,0,0,0.758898,101.741,-112.244)">
        <circle cx="55.661" cy="308.513" r="7.929"/>
    </g>
    <g transform="matrix(1,0,0,1,-25.2865,-27.7674)">
        <g id="Out-output" serif:id="Out#output" transform="matrix(0.175002,0,0,0.175002,57.2139,322.943)">
            <rect x="53.94" y="106.916" width="161.978" height="161.978" style="fill:rgb(77,77,77);"/>
        </g>
        <g transform="matrix(1,0,0,1,-45.3679,241.05)">
            <path d="M89.528,114.936C89.528,114.73 89.541,114.54 89.568,114.366C89.595,114.193 89.645,114.04 89.718,113.906C89.838,113.686 90.01,113.51 90.233,113.376C90.456,113.243 90.728,113.176 91.048,113.176C91.368,113.176 91.64,113.243 91.863,113.376C92.086,113.51 92.258,113.686 92.378,113.906C92.451,114.04 92.501,114.193 92.528,114.366C92.555,114.54 92.568,114.73 92.568,114.936L92.568,116.606C92.568,116.813 92.555,117.003 92.528,117.176C92.501,117.35 92.451,117.503 92.378,117.636C92.258,117.856 92.086,118.033 91.863,118.166C91.64,118.3 91.368,118.366 91.048,118.366C90.728,118.366 90.456,118.3 90.233,118.166C90.01,118.033 89.838,117.856 89.718,117.636C89.645,117.503 89.595,117.35 89.568,117.176C89.541,117.003 89.528,116.813 89.528,116.606L89.528,114.936ZM90.548,116.766C90.548,116.96 90.593,117.105 90.683,117.201C90.773,117.298 90.895,117.346 91.048,117.346C91.201,117.346 91.323,117.298 91.413,117.201C91.503,117.105 91.548,116.96 91.548,116.766L91.548,114.776C91.548,114.583 91.503,114.438 91.413,114.341C91.323,114.245 91.201,114.196 91.048,114.196C90.895,114.196 90.773,114.245 90.683,114.341C90.593,114.438 90.548,114.583 90.548,114.776L90.548,116.766Z" style="fill:rgb(5,5,5);fill-rule:nonzero;"/>
            <path d="M96.368,113.236L96.368,118.306L95.348,118.306L95.348,117.816L95.328,117.816C95.221,117.976 95.093,118.108 94.943,118.211C94.793,118.315 94.601,118.366 94.368,118.366C94.241,118.366 94.115,118.345 93.988,118.301C93.861,118.258 93.748,118.186 93.648,118.086C93.548,117.986 93.468,117.858 93.408,117.701C93.348,117.545 93.318,117.353 93.318,117.126L93.318,113.236L94.338,113.236L94.338,116.746C94.338,116.933 94.381,117.08 94.468,117.186C94.555,117.293 94.678,117.346 94.838,117.346C95.031,117.346 95.165,117.286 95.238,117.166C95.311,117.046 95.348,116.873 95.348,116.646L95.348,113.236L96.368,113.236Z" style="fill:rgb(5,5,5);fill-rule:nonzero;"/>
            <path d="M97.208,113.236L97.208,111.696L98.228,111.696L98.228,113.236L98.858,113.236L98.858,114.036L98.228,114.036L98.228,116.846C98.228,116.966 98.24,117.06 98.263,117.126C98.286,117.193 98.325,117.243 98.378,117.276C98.431,117.31 98.496,117.33 98.573,117.336C98.65,117.343 98.745,117.346 98.858,117.346L98.858,118.306L98.438,118.306C98.205,118.306 98.01,118.27 97.853,118.196C97.696,118.123 97.571,118.03 97.478,117.916C97.385,117.803 97.316,117.675 97.273,117.531C97.23,117.388 97.208,117.25 97.208,117.116L97.208,114.036L96.698,114.036L96.698,113.236L97.208,113.236Z" style="fill:rgb(5,5,5);fill-rule:nonzero;"/>
        </g>
        <g transform="matrix(1,0,0,1,-45.3679,241.05)">
            <text x="89.198px" y="118.306px" style="font-family:'DINCondensed-Bold', 'DIN Condensed';font-weight:700;font-stretch:condensed;font-size:10px;fill:rgb(5,5,5);">out</text>
        </g>
    </g>
    <g transform="matrix(1,0,0,1,-1.06581e-14,46.566)">
        <g id="Pitch-input" serif:id="Pitch#input" transform="matrix(0.175002,0,0,0.175002,31.9275,205.701)">
            <rect x="53.94" y="106.916" width="161.978" height="161.978" style="fill:rgb(217,217,217);"/>
        </g>
        <g transform="matrix(1,0,0,1,-79.6179,123.809)">
            <path d="M89.618,120.356L89.618,113.236L90.638,113.236L90.638,113.696C90.765,113.55 90.895,113.426 91.028,113.326C91.161,113.226 91.355,113.176 91.608,113.176C92.028,113.176 92.325,113.336 92.498,113.656C92.558,113.77 92.601,113.91 92.628,114.076C92.655,114.243 92.668,114.466 92.668,114.746L92.668,116.676C92.668,117.05 92.658,117.32 92.638,117.486C92.598,117.82 92.445,118.07 92.178,118.236C92.045,118.323 91.851,118.366 91.598,118.366C91.398,118.366 91.22,118.321 91.063,118.231C90.906,118.141 90.771,118.013 90.658,117.846L90.638,117.846L90.638,120.356L89.618,120.356ZM91.648,114.886C91.648,114.68 91.608,114.513 91.528,114.386C91.448,114.26 91.321,114.196 91.148,114.196C90.995,114.196 90.871,114.255 90.778,114.371C90.685,114.488 90.638,114.64 90.638,114.826L90.638,116.796C90.638,116.956 90.686,117.088 90.783,117.191C90.88,117.295 91.001,117.346 91.148,117.346C91.341,117.346 91.473,117.286 91.543,117.166C91.613,117.046 91.648,116.906 91.648,116.746L91.648,114.886Z" style="fill:rgb(5,5,5);fill-rule:nonzero;"/>
            <path d="M93.508,118.306L93.508,113.236L94.528,113.236L94.528,118.306L93.508,118.306ZM93.508,112.206L93.508,111.186L94.528,111.186L94.528,112.206L93.508,112.206Z" style="fill:rgb(5,5,5);fill-rule:nonzero;"/>
            <path d="M95.368,113.236L95.368,111.696L96.388,111.696L96.388,113.236L97.018,113.236L97.018,114.036L96.388,114.036L96.388,116.846C96.388,116.966 96.4,117.06 96.423,117.126C96.446,117.193 96.485,117.243 96.538,117.276C96.591,117.31 96.656,117.33 96.733,117.336C96.81,117.343 96.905,117.346 97.018,117.346L97.018,118.306L96.598,118.306C96.365,118.306 96.17,118.27 96.013,118.196C95.856,118.123 95.731,118.03 95.638,117.916C95.545,117.803 95.476,117.675 95.433,117.531C95.39,117.388 95.368,117.25 95.368,117.116L95.368,114.036L94.858,114.036L94.858,113.236L95.368,113.236Z" style="fill:rgb(5,5,5);fill-rule:nonzero;"/>
            <path d="M98.488,116.846C98.488,117.006 98.533,117.13 98.623,117.216C98.713,117.303 98.835,117.346 98.988,117.346C99.181,117.346 99.31,117.29 99.373,117.176C99.436,117.063 99.475,116.95 99.488,116.836L100.508,116.836C100.508,117.283 100.371,117.643 100.098,117.916C99.965,118.056 99.805,118.166 99.618,118.246C99.431,118.326 99.221,118.366 98.988,118.366C98.668,118.366 98.396,118.3 98.173,118.166C97.95,118.033 97.778,117.856 97.658,117.636C97.585,117.503 97.535,117.35 97.508,117.176C97.481,117.003 97.468,116.813 97.468,116.606L97.468,114.936C97.468,114.73 97.481,114.54 97.508,114.366C97.535,114.193 97.585,114.04 97.658,113.906C97.778,113.686 97.95,113.51 98.173,113.376C98.396,113.243 98.668,113.176 98.988,113.176C99.221,113.176 99.433,113.216 99.623,113.296C99.813,113.376 99.975,113.486 100.108,113.626C100.375,113.926 100.508,114.316 100.508,114.796L99.488,114.796C99.488,114.59 99.443,114.438 99.353,114.341C99.263,114.245 99.141,114.196 98.988,114.196C98.835,114.196 98.713,114.245 98.623,114.341C98.533,114.438 98.488,114.583 98.488,114.776L98.488,116.846Z" style="fill:rgb(5,5,5);fill-rule:nonzero;"/>
            <path d="M100.988,118.306L100.988,111.186L102.008,111.186L102.008,113.726L102.028,113.726C102.135,113.566 102.263,113.435 102.413,113.331C102.563,113.228 102.755,113.176 102.988,113.176C103.115,113.176 103.241,113.198 103.368,113.241C103.495,113.285 103.608,113.356 103.708,113.456C103.808,113.556 103.888,113.685 103.948,113.841C104.008,113.998 104.038,114.19 104.038,114.416L104.038,118.306L103.018,118.306L103.018,114.796C103.018,114.61 102.975,114.463 102.888,114.356C102.801,114.25 102.678,114.196 102.518,114.196C102.325,114.196 102.191,114.256 102.118,114.376C102.045,114.496 102.008,114.67 102.008,114.896L102.008,118.306L100.988,118.306Z" style="fill:rgb(5,5,5);fill-rule:nonzero;"/>
        </g>
        <g transform="matrix(1,0,0,1,-79.6179,123.809)">
            <text x="89.198px" y="118.306px" style="font-family:'DINCondensed-Bold', 'DIN Condensed';font-weight:700;font-stretch:condensed;font-size:10px;fill:rgb(5,5,5);">pitc<tspan x="100.568px " y="118.306px ">h</tspan></text>
        </g>
    </g>
    <g transform="matrix(1,0,0,1,123.857,-3.32089)">
        <g transform="matrix(1,0,0,1,43.2454,1.87477)">
            <text x="-39.144px" y="23.596px" style="font-family:'Luminari-Regular', 'Luminari';font-size:12px;">Mes<tspan x="-14.892px -7.428px " y="23.596px 23.596px ">hS</tspan>tack</text>
        </g>
        <g transform="matrix(0.0178906,0,0,0.0202937,-16.7622,10.0338)">
            <g transform="matrix(55.8954,0,0,49.2765,-878.032,-330.791)">
                <path d="M27.733,13.757C27.957,11.616 28.949,10 30.136,10C31.489,10 32.587,12.095 32.587,14.677C32.587,15.669 32.424,16.59 32.148,17.347C32.432,17.974 32.587,18.65 32.587,19.353C32.587,22.678 29.128,25.378 24.868,25.378C20.609,25.378 17.15,22.678 17.15,19.353C17.15,18.65 17.305,17.974 17.589,17.347C17.313,16.59 17.15,15.669 17.15,14.677C17.15,12.095 18.248,10 19.601,10C20.788,10 21.779,11.616 22.003,13.757L22.04,13.746C22.915,13.476 23.87,13.328 24.868,13.328C25.881,13.328 26.847,13.48 27.733,13.757ZM17.609,17.304L17.606,17.31L17.609,17.304ZM32.128,17.305L32.131,17.31L32.128,17.305ZM17.627,17.265L17.623,17.273L17.627,17.265ZM32.11,17.266L32.113,17.273L32.11,17.266ZM17.645,17.227L17.641,17.236L17.645,17.227ZM32.092,17.228L32.096,17.236L32.092,17.228ZM17.663,17.19L17.659,17.2L17.663,17.19ZM32.074,17.191L32.078,17.199L32.074,17.191ZM17.682,17.153L17.677,17.162L17.682,17.153ZM32.055,17.154L32.059,17.161L32.055,17.154ZM17.7,17.117L17.696,17.125L17.7,17.117ZM32.037,17.117L32.04,17.123L32.037,17.117ZM17.719,17.081L17.717,17.085L17.719,17.081ZM32.018,17.081L32.019,17.082L32.018,17.081ZM17.782,16.964L17.778,16.971L17.782,16.964ZM31.957,16.968L31.958,16.97L31.957,16.968ZM17.804,16.925L17.798,16.935L17.804,16.925ZM31.935,16.928L31.938,16.934L31.935,16.928ZM17.825,16.888L17.818,16.9L17.825,16.888ZM31.914,16.891L31.918,16.899L31.914,16.891ZM17.845,16.852L17.838,16.865L17.845,16.852ZM31.893,16.854L31.898,16.863L31.893,16.854ZM17.866,16.817L17.859,16.829L17.866,16.817ZM31.871,16.819L31.876,16.827L31.871,16.819ZM17.888,16.782L17.88,16.794L17.888,16.782ZM31.85,16.783L31.855,16.791L31.85,16.783ZM17.909,16.747L17.902,16.758L17.909,16.747ZM31.829,16.748L31.832,16.754L31.829,16.748ZM17.931,16.712L17.925,16.72L17.931,16.712ZM31.807,16.713L31.808,16.714L31.807,16.713ZM17.979,16.635L17.975,16.642L17.979,16.635ZM18.005,16.596L17.998,16.608L18.005,16.596ZM31.735,16.602L31.738,16.606L31.735,16.602ZM18.029,16.561L18.02,16.573L18.029,16.561ZM31.711,16.564L31.716,16.572L31.711,16.564ZM18.052,16.526L18.043,16.539L18.052,16.526ZM31.686,16.529L31.692,16.537L31.686,16.529ZM18.076,16.492L18.066,16.505L18.076,16.492ZM31.663,16.494L31.669,16.503L31.663,16.494ZM18.1,16.458L18.09,16.471L18.1,16.458ZM31.639,16.459L31.645,16.469L31.639,16.459ZM18.124,16.424L18.114,16.437L18.124,16.424ZM31.614,16.425L31.62,16.434L31.614,16.425ZM18.148,16.39L18.139,16.403L18.148,16.39ZM31.59,16.392L31.595,16.398L31.59,16.392ZM18.172,16.357L18.164,16.367L18.172,16.357ZM31.566,16.358L31.567,16.36L31.566,16.358ZM18.197,16.324L18.196,16.324L18.197,16.324ZM18.23,16.28L18.222,16.291L18.23,16.28ZM31.513,16.288L31.514,16.289L31.513,16.288ZM18.257,16.245L18.247,16.258L18.257,16.245ZM31.484,16.249L31.489,16.256L31.484,16.249ZM18.283,16.211L18.272,16.225L18.283,16.211ZM31.456,16.214L31.463,16.223L31.456,16.214ZM18.309,16.178L18.298,16.192L18.309,16.178ZM31.43,16.18L31.438,16.19L31.43,16.18ZM18.335,16.145L18.324,16.16L18.335,16.145ZM31.403,16.147L31.411,16.158L31.403,16.147ZM18.362,16.113L18.35,16.127L18.362,16.113ZM31.376,16.114L31.385,16.125L31.376,16.114ZM18.388,16.081L18.377,16.094L18.388,16.081ZM31.35,16.082L31.357,16.091L31.35,16.082ZM18.415,16.049L18.404,16.061L18.415,16.049ZM31.323,16.05L31.329,16.057L31.323,16.05ZM18.442,16.017L18.433,16.027L18.442,16.017ZM31.295,16.018L31.298,16.021L31.295,16.018ZM18.473,15.981L18.469,15.985L18.473,15.981ZM18.507,15.942L18.497,15.954L18.507,15.942ZM31.234,15.947L31.239,15.953L31.234,15.947ZM18.536,15.909L18.525,15.922L18.536,15.909ZM31.203,15.912L31.211,15.921L31.203,15.912ZM18.565,15.877L18.553,15.891L18.565,15.877ZM31.174,15.879L31.183,15.89L31.174,15.879ZM18.594,15.846L18.581,15.86L18.594,15.846ZM31.145,15.847L31.155,15.859L31.145,15.847ZM18.622,15.815L18.61,15.828L18.622,15.815ZM31.115,15.816L31.126,15.827L31.115,15.816ZM18.651,15.784L18.639,15.797L18.651,15.784ZM31.086,15.785L31.097,15.796L31.086,15.785ZM18.68,15.753L18.668,15.766L18.68,15.753ZM31.057,15.754L31.067,15.765L31.057,15.754ZM18.71,15.723L18.698,15.735L18.71,15.723ZM31.027,15.723L31.037,15.733L31.027,15.723ZM18.739,15.692L18.73,15.702L18.739,15.692ZM30.998,15.693L31.003,15.698L30.998,15.693ZM18.775,15.656L18.769,15.662L18.775,15.656ZM30.965,15.659L30.967,15.662L30.965,15.659ZM18.81,15.621L18.799,15.632L18.81,15.621ZM30.928,15.622L30.937,15.632L30.928,15.622ZM18.842,15.59L18.83,15.602L18.842,15.59ZM30.895,15.591L30.907,15.602L30.895,15.591ZM18.873,15.56L18.86,15.572L18.873,15.56ZM30.864,15.56L30.876,15.572L30.864,15.56ZM18.904,15.53L18.891,15.543L18.904,15.53ZM30.832,15.53L30.846,15.543L30.832,15.53ZM30.801,15.5L30.814,15.513L30.801,15.5ZM18.936,15.501L18.923,15.513L18.936,15.501ZM30.769,15.471L30.783,15.484L30.769,15.471ZM18.967,15.471L18.954,15.483L18.967,15.471ZM30.738,15.442L30.751,15.454L30.738,15.442ZM18.999,15.442L18.986,15.454L18.999,15.442ZM30.706,15.413L30.719,15.425L30.706,15.413ZM19.031,15.413L19.019,15.424L19.031,15.413ZM30.674,15.384L30.684,15.394L30.674,15.384ZM19.063,15.385L19.056,15.391L19.063,15.385ZM30.63,15.346L30.642,15.356L30.63,15.346ZM19.101,15.35L19.095,15.356L19.101,15.35ZM30.595,15.315L30.61,15.328L30.595,15.315ZM19.139,15.318L19.128,15.327L19.139,15.318ZM30.561,15.286L30.577,15.3L30.561,15.286ZM19.173,15.288L19.161,15.299L19.173,15.288ZM30.528,15.258L30.544,15.272L30.528,15.258ZM19.207,15.26L19.194,15.271L19.207,15.26ZM30.494,15.23L30.511,15.244L30.494,15.23ZM19.241,15.231L19.227,15.243L19.241,15.231ZM30.461,15.202L30.478,15.216L30.461,15.202ZM19.274,15.204L19.261,15.215L19.274,15.204ZM30.427,15.175L30.444,15.189L30.427,15.175ZM19.308,15.176L19.295,15.187L19.308,15.176ZM30.393,15.147L30.41,15.161L30.393,15.147ZM19.342,15.149L19.33,15.158L19.342,15.149ZM30.359,15.12L30.376,15.134L30.359,15.12ZM19.377,15.121L19.366,15.129L19.377,15.121ZM30.325,15.093L30.343,15.107L30.326,15.094L30.305,15.078L30.325,15.093ZM19.411,15.094L19.409,15.096L19.411,15.094ZM30.273,15.053L30.292,15.068L30.273,15.053ZM19.452,15.062L19.446,15.067L19.452,15.062ZM30.238,15.027L30.257,15.041L30.238,15.027ZM19.492,15.032L19.481,15.04L19.492,15.032ZM30.203,15L30.222,15.015L30.203,15ZM19.529,15.004L19.516,15.013L19.529,15.004ZM30.168,14.974L30.187,14.989L30.168,14.974ZM19.565,14.977L19.552,14.987L19.565,14.977ZM30.132,14.948L30.152,14.963L30.132,14.948ZM19.601,14.951L19.588,14.961L19.601,14.951ZM30.097,14.922L30.117,14.937L30.097,14.922ZM19.637,14.925L19.624,14.934L19.637,14.925ZM30.061,14.897L30.081,14.911L30.061,14.897ZM19.673,14.899L19.661,14.908L19.673,14.899ZM30.025,14.871L30.046,14.886L30.025,14.871ZM19.71,14.873L19.698,14.881L19.71,14.873ZM29.988,14.846L30.011,14.862L29.988,14.846ZM19.746,14.848L19.738,14.853L19.746,14.848ZM29.954,14.822L29.915,14.796C29.928,14.805 29.941,14.813 29.954,14.822ZM19.826,14.793L19.821,14.796L19.826,14.793ZM29.858,14.758L29.881,14.773L29.858,14.758ZM19.868,14.765L19.858,14.771L19.868,14.765ZM29.822,14.734L29.845,14.749L29.822,14.734ZM19.907,14.739L19.896,14.747L19.907,14.739ZM29.785,14.71L29.807,14.724L29.785,14.71ZM19.946,14.714L19.933,14.722L19.946,14.714ZM29.747,14.686L29.77,14.7L29.747,14.686ZM19.984,14.689L19.971,14.697L19.984,14.689ZM29.71,14.662L29.733,14.676L29.71,14.662ZM20.023,14.665L20.01,14.673L20.023,14.665ZM29.672,14.638L29.696,14.653L29.672,14.638ZM20.061,14.641L20.049,14.648L20.061,14.641ZM29.634,14.615L29.659,14.63L29.634,14.615ZM20.099,14.617L20.09,14.623L20.099,14.617ZM29.494,14.531C29.537,14.556 29.58,14.582 29.623,14.608C29.581,14.582 29.538,14.556 29.494,14.531ZM20.138,14.593L20.134,14.596L20.138,14.593ZM20.221,14.543L20.218,14.545L20.221,14.543ZM29.458,14.51L29.483,14.525L29.458,14.51ZM20.266,14.517L20.257,14.522L20.266,14.517ZM29.42,14.488L29.444,14.502L29.42,14.488ZM20.308,14.493L20.297,14.499L20.308,14.493ZM29.381,14.466L29.405,14.48L29.381,14.466ZM20.349,14.47L20.337,14.477L20.349,14.47ZM29.341,14.444L29.366,14.457L29.341,14.444ZM20.389,14.447L20.377,14.454L20.389,14.447ZM29.302,14.422L29.327,14.436L29.302,14.422ZM20.43,14.425L20.418,14.431L20.43,14.425ZM29.262,14.4L29.288,14.414L29.262,14.4ZM20.47,14.403L20.46,14.408L20.47,14.403ZM29.222,14.379L29.249,14.393L29.222,14.379ZM20.51,14.381L20.503,14.385L20.51,14.381ZM29.186,14.359L29.143,14.337C29.157,14.344 29.171,14.352 29.186,14.359ZM29.077,14.303L29.105,14.317L29.077,14.303ZM20.638,14.314L20.636,14.315L20.638,14.314ZM29.038,14.283L29.064,14.296L29.038,14.283ZM20.685,14.29L20.677,14.294L20.685,14.29ZM28.998,14.263L29.023,14.276L28.998,14.263ZM20.729,14.268L20.719,14.273L20.729,14.268ZM28.957,14.243L28.982,14.255L28.957,14.243ZM20.772,14.247L20.761,14.252L20.772,14.247ZM28.916,14.223L28.941,14.235L28.916,14.223ZM20.814,14.226L20.803,14.232L20.814,14.226ZM28.875,14.203L28.899,14.215L28.875,14.203ZM20.857,14.206L20.846,14.211L20.857,14.206ZM28.833,14.184L28.858,14.195L28.833,14.184ZM20.899,14.186L20.891,14.19L20.899,14.186ZM28.791,14.164L28.817,14.176L28.791,14.164ZM20.942,14.166L20.937,14.168L20.942,14.166ZM28.752,14.146L28.707,14.126C28.722,14.133 28.737,14.139 28.752,14.146ZM28.643,14.097L28.667,14.108L28.643,14.097ZM21.075,14.106L21.074,14.106L21.075,14.106ZM28.601,14.079L28.624,14.089L28.601,14.079ZM21.124,14.084L21.117,14.087L21.124,14.084ZM28.558,14.061L28.581,14.071L28.558,14.061ZM21.17,14.065L21.161,14.068L21.17,14.065ZM28.516,14.043L28.538,14.052L28.516,14.043ZM21.215,14.046L21.204,14.05L21.215,14.046ZM28.473,14.025L28.494,14.034L28.473,14.025ZM21.259,14.027L21.249,14.031L21.259,14.027ZM28.429,14.007L28.451,14.016L28.429,14.007ZM21.303,14.009L21.294,14.013L21.303,14.009ZM28.386,13.989L28.406,13.998L28.386,13.989ZM21.347,13.991L21.341,13.994L21.347,13.991ZM28.342,13.972L28.361,13.979L28.342,13.972ZM21.392,13.973L21.391,13.974L21.392,13.973ZM28.298,13.955L28.311,13.96L28.298,13.955ZM28.243,13.934L28.254,13.938L28.243,13.934ZM28.195,13.915L28.21,13.921L28.195,13.915ZM21.531,13.92L21.53,13.92L21.531,13.92ZM28.149,13.898L28.165,13.904L28.149,13.898ZM21.581,13.901L21.575,13.903L21.581,13.901ZM28.103,13.882L28.119,13.888L28.103,13.882ZM21.629,13.884L21.62,13.887L21.629,13.884ZM28.058,13.866L28.074,13.871L28.058,13.866ZM21.675,13.867L21.666,13.87L21.675,13.867ZM28.013,13.85L28.028,13.855L28.013,13.85ZM21.721,13.851L21.713,13.854L21.721,13.851ZM27.968,13.834L27.981,13.839L27.968,13.834ZM21.767,13.835L21.76,13.837L21.767,13.835ZM27.922,13.819L27.932,13.822L27.922,13.819ZM21.813,13.819L21.809,13.821L21.813,13.819ZM27.877,13.803L27.879,13.804L27.877,13.803Z" style="fill:none;stroke:black;stroke-width:1.22px;"/>
            </g>
            <g transform="matrix(55.8954,0,0,49.2765,-878.032,-330.791)">
                <path d="M25.128,19.358C24.963,19.04 24.868,18.67 24.868,18.275C24.868,17.096 25.713,16.138 26.753,16.138C27.793,16.138 28.637,17.096 28.637,18.275C28.637,19.031 28.291,19.696 27.768,20.076C27.128,19.668 26.188,19.396 25.128,19.358ZM21.969,20.076C21.446,19.696 21.099,19.031 21.099,18.275C21.099,17.096 21.944,16.138 22.984,16.138C24.024,16.138 24.868,17.096 24.868,18.275C24.868,18.67 24.774,19.04 24.609,19.358C23.549,19.396 22.609,19.668 21.969,20.076Z" style="fill:none;stroke:black;stroke-width:1.22px;"/>
            </g>
            <g transform="matrix(1,0,0,1,-53.1856,50.0357)">
                <ellipse cx="565.186" cy="671.455" rx="210.672" ry="98.631" style="fill:none;stroke:black;stroke-width:63.81px;"/>
            </g>
            <g transform="matrix(51.2,0,0,45.1371,0.670978,88.9676)">
                <path d="M12.057,13.791C12.057,13.668 11.958,13.568 11.835,13.568L8.139,13.568C8.016,13.568 7.916,13.668 7.916,13.791L7.916,14.236C7.916,14.359 8.016,14.458 8.139,14.458L11.835,14.458C11.958,14.458 12.057,14.359 12.057,14.236L12.057,13.791Z"/>
            </g>
        </g>
    </g>
</svg>
