<?xml version="1.0" encoding="UTF-8" standalone="no"?>
<!DOCTYPE svg PUBLIC "-//W3C//DTD SVG 1.1//EN" "http://www.w3.org/Graphics/SVG/1.1/DTD/svg11.dtd">
<svg width="100%" height="100%" viewBox="0 0 300 380" version="1.1" xmlns="http://www.w3.org/2000/svg" xmlns:xlink="http://www.w3.org/1999/xlink" xml:space="preserve" xmlns:serif="http://www.serif.com/" style="fill-rule:evenodd;clip-rule:evenodd;stroke-linecap:round;stroke-linejoin:round;stroke-miterlimit:1.5;">
    <g transform="matrix(5.42153,0,0,3.82264,-17.4634,-309.338)">
        <rect x="3.221" y="80.923" width="55.335" height="99.408" style="fill:rgb(102,126,153);"/>
    </g>
    <g transform="matrix(1,0,0,1,123.857,-3.32089)">
        <g transform="matrix(1,0,0,1,43.2454,1.87477)">
            <text x="-39.144px" y="23.596px" style="font-family:'Luminari-Regular', 'Luminari';font-size:12px;">Mes<tspan x="-14.892px -7.428px " y="23.596px 23.596px ">hS</tspan>tack</text>
        </g>
        <g transform="matrix(0.0178906,0,0,0.0202937,-16.7622,10.0338)">
            <g transform="matrix(1,0,0,1,-143.343,98.6554)">
                <ellipse cx="360.896" cy="293.762" rx="136.961" ry="230.443" style="fill:rgb(102,126,153);stroke:black;stroke-width:63.81px;"/>
            </g>
            <g transform="matrix(1,0,0,1,445.551,98.6554)">
                <ellipse cx="360.896" cy="293.762" rx="136.961" ry="230.443" style="fill:rgb(102,126,153);stroke:black;stroke-width:63.81px;"/>
            </g>
            <g transform="matrix(1,0,0,1,-34.3236,-20.6488)">
                <ellipse cx="546.324" cy="643.509" rx="431.408" ry="296.899" style="fill:rgb(102,126,153);stroke:black;stroke-width:63.81px;"/>
            </g>
            <circle cx="406.664" cy="569.758" r="105.336" style="fill:rgb(102,126,153);stroke:black;stroke-width:63.81px;"/>
            <g transform="matrix(1,0,0,1,210.672,0)">
                <circle cx="406.664" cy="569.758" r="105.336" style="fill:rgb(102,126,153);stroke:black;stroke-width:63.81px;"/>
            </g>
            <g transform="matrix(1,0,0,1,-53.1856,50.0357)">
                <ellipse cx="565.186" cy="671.455" rx="210.672" ry="98.631" style="fill:rgb(102,126,153);stroke:black;stroke-width:63.81px;"/>
            </g>
            <g transform="matrix(51.2,0,0,45.1371,0.670978,88.9676)">
                <path d="M12.057,13.791C12.057,13.668 11.958,13.568 11.835,13.568L8.139,13.568C8.016,13.568 7.916,13.668 7.916,13.791L7.916,14.236C7.916,14.359 8.016,14.458 8.139,14.458L11.835,14.458C11.958,14.458 12.057,14.359 12.057,14.236L12.057,13.791Z"/>
            </g>
        </g>
    </g>
    <g transform="matrix(1,0,0,1,44.4345,-28.5402)">
        <g id="Out-output" serif:id="Out#output" transform="matrix(0.175002,0,0,0.175002,57.2139,322.943)">
            <rect x="53.94" y="106.916" width="161.978" height="161.978" style="fill:rgb(77,77,77);"/>
        </g>
        <g transform="matrix(1,0,0,1,-45.3679,241.05)">
            <path d="M89.528,114.936C89.528,114.73 89.541,114.54 89.568,114.366C89.595,114.193 89.645,114.04 89.718,113.906C89.838,113.686 90.01,113.51 90.233,113.376C90.456,113.243 90.728,113.176 91.048,113.176C91.368,113.176 91.64,113.243 91.863,113.376C92.086,113.51 92.258,113.686 92.378,113.906C92.451,114.04 92.501,114.193 92.528,114.366C92.555,114.54 92.568,114.73 92.568,114.936L92.568,116.606C92.568,116.813 92.555,117.003 92.528,117.176C92.501,117.35 92.451,117.503 92.378,117.636C92.258,117.856 92.086,118.033 91.863,118.166C91.64,118.3 91.368,118.366 91.048,118.366C90.728,118.366 90.456,118.3 90.233,118.166C90.01,118.033 89.838,117.856 89.718,117.636C89.645,117.503 89.595,117.35 89.568,117.176C89.541,117.003 89.528,116.813 89.528,116.606L89.528,114.936ZM90.548,116.766C90.548,116.96 90.593,117.105 90.683,117.201C90.773,117.298 90.895,117.346 91.048,117.346C91.201,117.346 91.323,117.298 91.413,117.201C91.503,117.105 91.548,116.96 91.548,116.766L91.548,114.776C91.548,114.583 91.503,114.438 91.413,114.341C91.323,114.245 91.201,114.196 91.048,114.196C90.895,114.196 90.773,114.245 90.683,114.341C90.593,114.438 90.548,114.583 90.548,114.776L90.548,116.766Z" style="fill:rgb(5,5,5);fill-rule:nonzero;"/>
            <path d="M96.368,113.236L96.368,118.306L95.348,118.306L95.348,117.816L95.328,117.816C95.221,117.976 95.093,118.108 94.943,118.211C94.793,118.315 94.601,118.366 94.368,118.366C94.241,118.366 94.115,118.345 93.988,118.301C93.861,118.258 93.748,118.186 93.648,118.086C93.548,117.986 93.468,117.858 93.408,117.701C93.348,117.545 93.318,117.353 93.318,117.126L93.318,113.236L94.338,113.236L94.338,116.746C94.338,116.933 94.381,117.08 94.468,117.186C94.555,117.293 94.678,117.346 94.838,117.346C95.031,117.346 95.165,117.286 95.238,117.166C95.311,117.046 95.348,116.873 95.348,116.646L95.348,113.236L96.368,113.236Z" style="fill:rgb(5,5,5);fill-rule:nonzero;"/>
            <path d="M97.208,113.236L97.208,111.696L98.228,111.696L98.228,113.236L98.858,113.236L98.858,114.036L98.228,114.036L98.228,116.846C98.228,116.966 98.24,117.06 98.263,117.126C98.286,117.193 98.325,117.243 98.378,117.276C98.431,117.31 98.496,117.33 98.573,117.336C98.65,117.343 98.745,117.346 98.858,117.346L98.858,118.306L98.438,118.306C98.205,118.306 98.01,118.27 97.853,118.196C97.696,118.123 97.571,118.03 97.478,117.916C97.385,117.803 97.316,117.675 97.273,117.531C97.23,117.388 97.208,117.25 97.208,117.116L97.208,114.036L96.698,114.036L96.698,113.236L97.208,113.236Z" style="fill:rgb(5,5,5);fill-rule:nonzero;"/>
        </g>
        <g transform="matrix(1,0,0,1,-45.3679,241.05)">
            <text x="89.198px" y="118.306px" style="font-family:'DINCondensed-Bold', 'DIN Condensed';font-weight:700;font-stretch:condensed;font-size:10px;fill:rgb(5,5,5);">out</text>
        </g>
    </g>
    <g transform="matrix(1,0,0,1,1.77636e-15,27.4634)">
        <g id="Pitch-input" serif:id="Pitch#input" transform="matrix(0.175002,0,0,0.175002,31.9275,205.701)">
            <rect x="53.94" y="106.916" width="161.978" height="161.978" style="fill:rgb(217,217,217);"/>
        </g>
        <g transform="matrix(1,0,0,1,-79.6179,123.809)">
            <path d="M89.618,120.356L89.618,113.236L90.638,113.236L90.638,113.696C90.765,113.55 90.895,113.426 91.028,113.326C91.161,113.226 91.355,113.176 91.608,113.176C92.028,113.176 92.325,113.336 92.498,113.656C92.558,113.77 92.601,113.91 92.628,114.076C92.655,114.243 92.668,114.466 92.668,114.746L92.668,116.676C92.668,117.05 92.658,117.32 92.638,117.486C92.598,117.82 92.445,118.07 92.178,118.236C92.045,118.323 91.851,118.366 91.598,118.366C91.398,118.366 91.22,118.321 91.063,118.231C90.906,118.141 90.771,118.013 90.658,117.846L90.638,117.846L90.638,120.356L89.618,120.356ZM91.648,114.886C91.648,114.68 91.608,114.513 91.528,114.386C91.448,114.26 91.321,114.196 91.148,114.196C90.995,114.196 90.871,114.255 90.778,114.371C90.685,114.488 90.638,114.64 90.638,114.826L90.638,116.796C90.638,116.956 90.686,117.088 90.783,117.191C90.88,117.295 91.001,117.346 91.148,117.346C91.341,117.346 91.473,117.286 91.543,117.166C91.613,117.046 91.648,116.906 91.648,116.746L91.648,114.886Z" style="fill:rgb(5,5,5);fill-rule:nonzero;"/>
            <path d="M93.508,118.306L93.508,113.236L94.528,113.236L94.528,118.306L93.508,118.306ZM93.508,112.206L93.508,111.186L94.528,111.186L94.528,112.206L93.508,112.206Z" style="fill:rgb(5,5,5);fill-rule:nonzero;"/>
            <path d="M95.368,113.236L95.368,111.696L96.388,111.696L96.388,113.236L97.018,113.236L97.018,114.036L96.388,114.036L96.388,116.846C96.388,116.966 96.4,117.06 96.423,117.126C96.446,117.193 96.485,117.243 96.538,117.276C96.591,117.31 96.656,117.33 96.733,117.336C96.81,117.343 96.905,117.346 97.018,117.346L97.018,118.306L96.598,118.306C96.365,118.306 96.17,118.27 96.013,118.196C95.856,118.123 95.731,118.03 95.638,117.916C95.545,117.803 95.476,117.675 95.433,117.531C95.39,117.388 95.368,117.25 95.368,117.116L95.368,114.036L94.858,114.036L94.858,113.236L95.368,113.236Z" style="fill:rgb(5,5,5);fill-rule:nonzero;"/>
            <path d="M98.488,116.846C98.488,117.006 98.533,117.13 98.623,117.216C98.713,117.303 98.835,117.346 98.988,117.346C99.181,117.346 99.31,117.29 99.373,117.176C99.436,117.063 99.475,116.95 99.488,116.836L100.508,116.836C100.508,117.283 100.371,117.643 100.098,117.916C99.965,118.056 99.805,118.166 99.618,118.246C99.431,118.326 99.221,118.366 98.988,118.366C98.668,118.366 98.396,118.3 98.173,118.166C97.95,118.033 97.778,117.856 97.658,117.636C97.585,117.503 97.535,117.35 97.508,117.176C97.481,117.003 97.468,116.813 97.468,116.606L97.468,114.936C97.468,114.73 97.481,114.54 97.508,114.366C97.535,114.193 97.585,114.04 97.658,113.906C97.778,113.686 97.95,113.51 98.173,113.376C98.396,113.243 98.668,113.176 98.988,113.176C99.221,113.176 99.433,113.216 99.623,113.296C99.813,113.376 99.975,113.486 100.108,113.626C100.375,113.926 100.508,114.316 100.508,114.796L99.488,114.796C99.488,114.59 99.443,114.438 99.353,114.341C99.263,114.245 99.141,114.196 98.988,114.196C98.835,114.196 98.713,114.245 98.623,114.341C98.533,114.438 98.488,114.583 98.488,114.776L98.488,116.846Z" style="fill:rgb(5,5,5);fill-rule:nonzero;"/>
            <path d="M100.988,118.306L100.988,111.186L102.008,111.186L102.008,113.726L102.028,113.726C102.135,113.566 102.263,113.435 102.413,113.331C102.563,113.228 102.755,113.176 102.988,113.176C103.115,113.176 103.241,113.198 103.368,113.241C103.495,113.285 103.608,113.356 103.708,113.456C103.808,113.556 103.888,113.685 103.948,113.841C104.008,113.998 104.038,114.19 104.038,114.416L104.038,118.306L103.018,118.306L103.018,114.796C103.018,114.61 102.975,114.463 102.888,114.356C102.801,114.25 102.678,114.196 102.518,114.196C102.325,114.196 102.191,114.256 102.118,114.376C102.045,114.496 102.008,114.67 102.008,114.896L102.008,118.306L100.988,118.306Z" style="fill:rgb(5,5,5);fill-rule:nonzero;"/>
        </g>
        <g transform="matrix(1,0,0,1,-79.6179,123.809)">
            <text x="89.198px" y="118.306px" style="font-family:'DINCondensed-Bold', 'DIN Condensed';font-weight:700;font-stretch:condensed;font-size:10px;fill:rgb(5,5,5);">pitc<tspan x="100.568px " y="118.306px ">h</tspan></text>
        </g>
    </g>
</svg>
