<?xml version="1.0" encoding="UTF-8" standalone="no"?>
<!DOCTYPE svg PUBLIC "-//W3C//DTD SVG 1.1//EN" "http://www.w3.org/Graphics/SVG/1.1/DTD/svg11.dtd">
<svg width="100%" height="100%" viewBox="0 0 300 380" version="1.1" xmlns="http://www.w3.org/2000/svg" xmlns:xlink="http://www.w3.org/1999/xlink" xml:space="preserve" xmlns:serif="http://www.serif.com/" style="fill-rule:evenodd;clip-rule:evenodd;stroke-linecap:round;stroke-linejoin:round;stroke-miterlimit:1.5;">
    <g transform="matrix(1.4417,0,0,2.01589,-75.7704,-120.797)">
        <rect x="52.556" y="59.922" width="208.087" height="188.503" style="fill:rgb(154,178,191);stroke:rgb(5,5,5);stroke-width:1.14px;"/>
    </g>
    <g transform="matrix(1,0,0,1,13.5492,-22.8515)">
        <g id="Out-output" serif:id="Out#output" transform="matrix(0.175002,0,0,0.175002,57.2139,322.943)">
            <rect x="53.94" y="106.916" width="161.978" height="161.978" style="fill:rgb(77,77,77);"/>
        </g>
        <g transform="matrix(1,0,0,1,-45.3679,241.05)">
            <path d="M89.525,115.64C89.525,115.131 89.626,114.668 89.828,114.251C90.03,113.834 90.293,113.52 90.619,113.312C90.944,113.103 91.31,112.999 91.717,112.999C92.401,112.999 92.938,113.267 93.329,113.803C93.719,114.34 93.915,114.967 93.915,115.684C93.915,116.219 93.813,116.702 93.609,117.132C93.406,117.563 93.139,117.886 92.809,118.103C92.478,118.32 92.116,118.428 91.722,118.428C91.091,118.428 90.567,118.187 90.15,117.704C89.733,117.222 89.525,116.534 89.525,115.64ZM90.677,115.714C90.677,116.239 90.78,116.637 90.986,116.906C91.191,117.176 91.439,117.31 91.73,117.31C92.013,117.31 92.257,117.175 92.459,116.904C92.661,116.633 92.762,116.233 92.762,115.704C92.762,115.188 92.66,114.794 92.454,114.523C92.248,114.252 92.002,114.117 91.715,114.117C91.431,114.117 91.187,114.252 90.983,114.523C90.779,114.794 90.677,115.191 90.677,115.714Z" style="fill:rgb(5,5,5);fill-rule:nonzero;"/>
            <path d="M97.587,118.306L97.587,117.531C97.431,117.812 97.226,118.032 96.972,118.19C96.719,118.349 96.454,118.428 96.178,118.428C95.898,118.428 95.648,118.355 95.427,118.208C95.206,118.062 95.041,117.853 94.932,117.583C94.824,117.312 94.769,116.92 94.769,116.405L94.769,113.121L95.897,113.121L95.897,115.504C95.897,116.184 95.914,116.616 95.948,116.8C95.982,116.984 96.058,117.126 96.175,117.227C96.291,117.328 96.433,117.379 96.598,117.379C96.786,117.379 96.96,117.313 97.119,117.181C97.278,117.049 97.383,116.88 97.433,116.673C97.483,116.466 97.508,116.011 97.508,115.308L97.508,113.121L98.636,113.121L98.636,118.306L97.587,118.306Z" style="fill:rgb(5,5,5);fill-rule:nonzero;"/>
            <path d="M101.752,113.121L101.752,114.214L100.985,114.214L100.985,116.308C100.985,116.761 100.996,117.023 101.019,117.095C101.065,117.225 101.157,117.291 101.297,117.291C101.402,117.291 101.551,117.247 101.747,117.159L101.844,118.223C101.584,118.36 101.289,118.428 100.961,118.428C100.674,118.428 100.445,118.36 100.272,118.223C100.1,118.086 99.984,117.889 99.925,117.632C99.88,117.443 99.857,117.058 99.857,116.478L99.857,114.214L99.339,114.214L99.339,113.121L99.857,113.121L99.857,112.09L100.985,111.29L100.985,113.121L101.752,113.121Z" style="fill:rgb(5,5,5);fill-rule:nonzero;"/>
        </g>
        <g transform="matrix(1,0,0,1,-45.3679,241.05)">
            <text x="89.198px" y="118.306px" style="font-family:'ArialNarrow-Bold', 'Arial', sans-serif;font-weight:700;font-stretch:condensed;font-size:10px;fill:rgb(5,5,5);">out</text>
        </g>
    </g>
    <g transform="matrix(1,0,0,1,38.8357,51.4819)">
        <g id="Pitch-input" serif:id="Pitch#input" transform="matrix(0.175002,0,0,0.175002,31.9275,205.701)">
            <rect x="53.94" y="106.916" width="161.978" height="161.978" style="fill:rgb(217,217,217);"/>
        </g>
        <g transform="matrix(1,0,0,1,-79.6179,123.809)">
            <path d="M89.754,113.121L90.799,113.121L90.799,113.882C90.943,113.609 91.132,113.393 91.367,113.235C91.601,113.078 91.854,112.999 92.125,112.999C92.611,112.999 93.029,113.23 93.379,113.693C93.73,114.156 93.905,114.813 93.905,115.665C93.905,116.558 93.729,117.242 93.378,117.717C93.026,118.191 92.608,118.428 92.123,118.428C91.898,118.428 91.689,118.374 91.495,118.265C91.302,118.156 91.097,117.958 90.882,117.672L90.882,120.279L89.754,120.279L89.754,113.121ZM90.867,115.625C90.867,116.213 90.962,116.646 91.152,116.923C91.342,117.201 91.572,117.339 91.841,117.339C92.098,117.339 92.314,117.211 92.489,116.955C92.665,116.699 92.753,116.28 92.753,115.699C92.753,115.147 92.662,114.74 92.482,114.477C92.302,114.214 92.082,114.083 91.822,114.083C91.549,114.083 91.322,114.211 91.14,114.467C90.958,114.723 90.867,115.11 90.867,115.625Z" style="fill:rgb(5,5,5);fill-rule:nonzero;"/>
            <path d="M94.798,112.418L94.798,111.148L95.926,111.148L95.926,112.418L94.798,112.418ZM94.798,118.306L94.798,113.121L95.926,113.121L95.926,118.306L94.798,118.306Z" style="fill:rgb(5,5,5);fill-rule:nonzero;"/>
            <path d="M99.022,113.121L99.022,114.214L98.255,114.214L98.255,116.308C98.255,116.761 98.267,117.023 98.29,117.095C98.335,117.225 98.428,117.291 98.568,117.291C98.672,117.291 98.822,117.247 99.017,117.159L99.115,118.223C98.854,118.36 98.56,118.428 98.231,118.428C97.945,118.428 97.715,118.36 97.543,118.223C97.37,118.086 97.254,117.889 97.196,117.632C97.15,117.443 97.128,117.058 97.128,116.478L97.128,114.214L96.61,114.214L96.61,113.121L97.128,113.121L97.128,112.09L98.255,111.29L98.255,113.121L99.022,113.121Z" style="fill:rgb(5,5,5);fill-rule:nonzero;"/>
            <path d="M103.519,114.649L102.411,114.893C102.329,114.35 102.072,114.078 101.64,114.078C101.361,114.078 101.137,114.195 100.967,114.43C100.797,114.665 100.712,115.062 100.712,115.621C100.712,116.238 100.796,116.674 100.966,116.928C101.136,117.183 101.363,117.31 101.647,117.31C101.859,117.31 102.034,117.238 102.171,117.093C102.308,116.948 102.406,116.692 102.464,116.324L103.573,116.553C103.345,117.803 102.689,118.428 101.605,118.428C100.912,118.428 100.397,118.164 100.062,117.636C99.727,117.108 99.559,116.472 99.559,115.728C99.559,114.838 99.749,114.16 100.129,113.696C100.508,113.231 101.006,112.999 101.622,112.999C102.121,112.999 102.528,113.131 102.842,113.394C103.157,113.658 103.382,114.076 103.519,114.649Z" style="fill:rgb(5,5,5);fill-rule:nonzero;"/>
            <path d="M105.492,111.148L105.492,113.775C105.671,113.515 105.869,113.32 106.085,113.192C106.302,113.063 106.537,112.999 106.791,112.999C107.129,112.999 107.412,113.088 107.64,113.267C107.868,113.447 108.031,113.701 108.129,114.03C108.2,114.271 108.236,114.682 108.236,115.261L108.236,118.306L107.108,118.306L107.108,115.564C107.108,114.928 107.067,114.531 106.986,114.371C106.873,114.156 106.68,114.048 106.407,114.048C106.118,114.048 105.893,114.165 105.733,114.398C105.572,114.631 105.492,115.067 105.492,115.706L105.492,118.306L104.364,118.306L104.364,111.148L105.492,111.148Z" style="fill:rgb(5,5,5);fill-rule:nonzero;"/>
        </g>
        <g transform="matrix(1,0,0,1,-79.6179,123.809)">
            <text x="89.198px" y="118.306px" style="font-family:'ArialNarrow-Bold', 'Arial', sans-serif;font-weight:700;font-stretch:condensed;font-size:10px;fill:rgb(5,5,5);">pitch</text>
        </g>
    </g>
    <g id="Mode-knob-3" serif:id="Mode#knob$3" transform="matrix(0.758898,0,0,0.758898,101.741,-112.244)">
        <circle cx="55.661" cy="308.513" r="7.929"/>
    </g>
    <g id="Two-slider" serif:id="Two#slider" transform="matrix(6.12323e-17,-1,1,6.12323e-17,-136.598,298.952)">
        <rect x="92.975" y="182.872" width="144.036" height="20.647" style="fill:rgb(217,217,217);"/>
    </g>
    <rect id="One-slider-h" serif:id="One#slider$h" x="92.975" y="182.872" width="144.036" height="20.647" style="fill:rgb(217,217,217);"/>
    <g transform="matrix(1,0,0,1,123.857,-3.32089)">
        <g transform="matrix(1,0,0,1,43.2454,1.87477)">
            <path d="M-38.253,23.596L-38.253,15.006L-36.542,15.006L-34.509,21.088C-34.321,21.654 -34.185,22.078 -34.099,22.359C-34.001,22.047 -33.849,21.588 -33.642,20.982L-31.585,15.006L-30.056,15.006L-30.056,23.596L-31.151,23.596L-31.151,16.406L-33.647,23.596L-34.673,23.596L-37.157,16.283L-37.157,23.596L-38.253,23.596Z" style="fill-rule:nonzero;"/>
            <path d="M-24.097,21.592L-23.007,21.727C-23.179,22.363 -23.497,22.857 -23.962,23.209C-24.427,23.561 -25.02,23.736 -25.743,23.736C-26.653,23.736 -27.375,23.456 -27.908,22.896C-28.441,22.335 -28.708,21.549 -28.708,20.537C-28.708,19.49 -28.438,18.678 -27.899,18.1C-27.36,17.522 -26.661,17.232 -25.802,17.232C-24.97,17.232 -24.29,17.516 -23.763,18.082C-23.235,18.648 -22.972,19.445 -22.972,20.473C-22.972,20.535 -22.974,20.629 -22.978,20.754L-27.618,20.754C-27.579,21.438 -27.386,21.961 -27.038,22.324C-26.69,22.688 -26.257,22.869 -25.737,22.869C-25.351,22.869 -25.02,22.768 -24.747,22.564C-24.474,22.361 -24.257,22.037 -24.097,21.592ZM-27.56,19.887L-24.085,19.887C-24.132,19.363 -24.265,18.971 -24.483,18.709C-24.819,18.303 -25.255,18.1 -25.79,18.1C-26.274,18.1 -26.682,18.262 -27.012,18.586C-27.342,18.91 -27.524,19.344 -27.56,19.887Z" style="fill-rule:nonzero;"/>
            <path d="M-22.104,21.738L-21.062,21.574C-21.003,21.992 -20.84,22.313 -20.572,22.535C-20.305,22.758 -19.931,22.869 -19.45,22.869C-18.966,22.869 -18.606,22.771 -18.372,22.573C-18.138,22.376 -18.02,22.145 -18.02,21.879C-18.02,21.641 -18.124,21.453 -18.331,21.316C-18.476,21.223 -18.835,21.104 -19.409,20.959C-20.183,20.764 -20.719,20.595 -21.018,20.452C-21.316,20.31 -21.543,20.112 -21.697,19.86C-21.852,19.608 -21.929,19.33 -21.929,19.025C-21.929,18.748 -21.865,18.491 -21.738,18.255C-21.611,18.019 -21.438,17.822 -21.22,17.666C-21.056,17.545 -20.832,17.442 -20.549,17.358C-20.266,17.274 -19.962,17.232 -19.638,17.232C-19.149,17.232 -18.721,17.303 -18.352,17.443C-17.982,17.584 -17.71,17.774 -17.534,18.015C-17.358,18.255 -17.237,18.576 -17.171,18.979L-18.202,19.119C-18.249,18.799 -18.385,18.549 -18.609,18.369C-18.834,18.189 -19.151,18.1 -19.562,18.1C-20.046,18.1 -20.392,18.18 -20.599,18.34C-20.806,18.5 -20.909,18.688 -20.909,18.902C-20.909,19.039 -20.866,19.162 -20.78,19.272C-20.694,19.385 -20.56,19.479 -20.376,19.553C-20.27,19.592 -19.96,19.682 -19.444,19.822C-18.698,20.022 -18.178,20.185 -17.883,20.312C-17.588,20.439 -17.356,20.623 -17.188,20.865C-17.02,21.107 -16.937,21.408 -16.937,21.768C-16.937,22.119 -17.039,22.45 -17.244,22.761C-17.449,23.071 -17.745,23.312 -18.132,23.481C-18.519,23.651 -18.956,23.736 -19.444,23.736C-20.253,23.736 -20.869,23.568 -21.293,23.232C-21.717,22.897 -21.987,22.398 -22.104,21.738Z" style="fill-rule:nonzero;"/>
            <path d="M-15.683,23.596L-15.683,15.006L-14.628,15.006L-14.628,18.088C-14.136,17.518 -13.515,17.232 -12.765,17.232C-12.304,17.232 -11.903,17.323 -11.563,17.505C-11.224,17.687 -10.98,17.938 -10.834,18.258C-10.687,18.578 -10.614,19.043 -10.614,19.652L-10.614,23.596L-11.669,23.596L-11.669,19.652C-11.669,19.125 -11.783,18.741 -12.012,18.501C-12.24,18.261 -12.563,18.141 -12.981,18.141C-13.294,18.141 -13.588,18.222 -13.863,18.384C-14.139,18.546 -14.335,18.766 -14.452,19.043C-14.569,19.32 -14.628,19.703 -14.628,20.191L-14.628,23.596L-15.683,23.596Z" style="fill-rule:nonzero;"/>
            <path d="M-9.261,20.836L-8.188,20.742C-8.138,21.172 -8.02,21.524 -7.834,21.8C-7.648,22.075 -7.36,22.298 -6.97,22.468C-6.579,22.638 -6.14,22.723 -5.651,22.723C-5.218,22.723 -4.835,22.658 -4.503,22.529C-4.171,22.4 -3.924,22.224 -3.762,21.999C-3.6,21.774 -3.519,21.529 -3.519,21.264C-3.519,20.994 -3.597,20.759 -3.753,20.558C-3.909,20.356 -4.167,20.188 -4.526,20.051C-4.757,19.961 -5.267,19.821 -6.056,19.632C-6.845,19.442 -7.397,19.264 -7.714,19.096C-8.124,18.881 -8.43,18.614 -8.631,18.296C-8.832,17.978 -8.933,17.621 -8.933,17.227C-8.933,16.793 -8.81,16.388 -8.563,16.011C-8.317,15.634 -7.958,15.348 -7.485,15.152C-7.013,14.957 -6.487,14.859 -5.909,14.859C-5.272,14.859 -4.711,14.962 -4.225,15.167C-3.738,15.372 -3.364,15.674 -3.103,16.072C-2.841,16.471 -2.7,16.922 -2.681,17.426L-3.77,17.508C-3.829,16.965 -4.027,16.555 -4.365,16.277C-4.703,16 -5.202,15.861 -5.862,15.861C-6.55,15.861 -7.051,15.987 -7.365,16.239C-7.68,16.491 -7.837,16.795 -7.837,17.15C-7.837,17.459 -7.726,17.713 -7.503,17.912C-7.284,18.111 -6.713,18.315 -5.789,18.524C-4.865,18.733 -4.231,18.916 -3.888,19.072C-3.388,19.303 -3.019,19.595 -2.78,19.948C-2.542,20.302 -2.423,20.709 -2.423,21.17C-2.423,21.627 -2.554,22.058 -2.815,22.462C-3.077,22.866 -3.453,23.181 -3.943,23.405C-4.434,23.63 -4.985,23.742 -5.599,23.742C-6.376,23.742 -7.027,23.629 -7.553,23.402C-8.078,23.176 -8.49,22.835 -8.789,22.38C-9.088,21.925 -9.245,21.41 -9.261,20.836Z" style="fill-rule:nonzero;"/>
            <path d="M1.298,22.652L1.45,23.584C1.153,23.647 0.888,23.678 0.653,23.678C0.271,23.678 -0.026,23.617 -0.237,23.496C-0.448,23.375 -0.597,23.216 -0.683,23.019C-0.769,22.821 -0.812,22.406 -0.812,21.773L-0.812,18.193L-1.585,18.193L-1.585,17.373L-0.812,17.373L-0.812,15.832L0.237,15.199L0.237,17.373L1.298,17.373L1.298,18.193L0.237,18.193L0.237,21.832C0.237,22.133 0.256,22.326 0.293,22.412C0.33,22.498 0.391,22.566 0.475,22.617C0.559,22.668 0.679,22.693 0.835,22.693C0.952,22.693 1.106,22.68 1.298,22.652Z" style="fill-rule:nonzero;"/>
            <path d="M6.39,22.828C5.999,23.16 5.623,23.395 5.262,23.531C4.9,23.668 4.513,23.736 4.099,23.736C3.415,23.736 2.89,23.569 2.522,23.235C2.155,22.901 1.972,22.475 1.972,21.955C1.972,21.65 2.041,21.372 2.18,21.12C2.318,20.868 2.5,20.666 2.725,20.514C2.949,20.361 3.202,20.246 3.483,20.168C3.69,20.113 4.003,20.061 4.421,20.01C5.272,19.908 5.899,19.787 6.302,19.647C6.306,19.502 6.308,19.41 6.308,19.371C6.308,18.941 6.208,18.639 6.009,18.463C5.739,18.225 5.339,18.106 4.808,18.106C4.312,18.106 3.945,18.192 3.709,18.366C3.473,18.54 3.298,18.848 3.185,19.289L2.153,19.148C2.247,18.707 2.401,18.351 2.616,18.079C2.831,17.808 3.142,17.599 3.548,17.452C3.954,17.306 4.425,17.232 4.96,17.232C5.491,17.232 5.923,17.295 6.255,17.42C6.587,17.545 6.831,17.702 6.987,17.892C7.144,18.081 7.253,18.32 7.315,18.609C7.351,18.789 7.368,19.113 7.368,19.582L7.368,20.988C7.368,21.969 7.391,22.589 7.436,22.849C7.48,23.108 7.569,23.357 7.702,23.596L6.601,23.596C6.491,23.377 6.421,23.121 6.39,22.828ZM6.302,20.473C5.919,20.629 5.345,20.762 4.579,20.871C4.146,20.934 3.839,21.004 3.659,21.082C3.48,21.16 3.341,21.274 3.243,21.425C3.146,21.575 3.097,21.742 3.097,21.926C3.097,22.207 3.203,22.441 3.416,22.629C3.629,22.816 3.94,22.91 4.351,22.91C4.757,22.91 5.118,22.821 5.435,22.644C5.751,22.466 5.983,22.223 6.132,21.914C6.245,21.676 6.302,21.324 6.302,20.859L6.302,20.473Z" style="fill-rule:nonzero;"/>
            <path d="M13.063,21.316L14.101,21.451C13.987,22.166 13.697,22.726 13.23,23.13C12.764,23.534 12.19,23.736 11.511,23.736C10.659,23.736 9.975,23.458 9.457,22.901C8.939,22.345 8.681,21.547 8.681,20.508C8.681,19.836 8.792,19.248 9.015,18.744C9.237,18.24 9.576,17.862 10.031,17.61C10.486,17.358 10.981,17.232 11.517,17.232C12.192,17.232 12.745,17.403 13.175,17.745C13.605,18.087 13.88,18.572 14.001,19.201L12.976,19.359C12.878,18.941 12.705,18.627 12.457,18.416C12.209,18.205 11.909,18.1 11.558,18.1C11.026,18.1 10.595,18.29 10.263,18.671C9.931,19.052 9.765,19.654 9.765,20.479C9.765,21.314 9.925,21.922 10.245,22.301C10.565,22.68 10.983,22.869 11.499,22.869C11.913,22.869 12.259,22.742 12.536,22.488C12.813,22.234 12.989,21.844 13.063,21.316Z" style="fill-rule:nonzero;"/>
            <path d="M15.009,23.596L15.009,15.006L16.063,15.006L16.063,19.904L18.56,17.373L19.925,17.373L17.546,19.682L20.165,23.596L18.864,23.596L16.808,20.414L16.063,21.129L16.063,23.596L15.009,23.596Z" style="fill-rule:nonzero;"/>
        </g>
        <g transform="matrix(1,0,0,1,43.2454,1.87477)">
            <text x="-39.144px" y="23.596px" style="font-family:'ArialMT', 'Arial', sans-serif;font-size:12px;">MeshStack</text>
        </g>
        <g transform="matrix(0.0178906,0,0,0.0202937,-16.7622,10.0338)">
            <g transform="matrix(55.8954,0,0,49.2765,-878.032,-330.791)">
                <path d="M27.733,13.757C27.957,11.616 28.949,10 30.136,10C31.489,10 32.587,12.095 32.587,14.677C32.587,15.669 32.424,16.59 32.148,17.347C32.432,17.974 32.587,18.65 32.587,19.353C32.587,22.678 29.128,25.378 24.868,25.378C20.609,25.378 17.15,22.678 17.15,19.353C17.15,18.65 17.305,17.974 17.589,17.347C17.313,16.59 17.15,15.669 17.15,14.677C17.15,12.095 18.248,10 19.601,10C20.788,10 21.779,11.616 22.003,13.757L22.04,13.746C22.915,13.476 23.87,13.328 24.868,13.328C25.881,13.328 26.847,13.48 27.733,13.757ZM17.609,17.304L17.606,17.31L17.609,17.304ZM32.128,17.305L32.131,17.31L32.128,17.305ZM17.627,17.265L17.623,17.273L17.627,17.265ZM32.11,17.266L32.113,17.273L32.11,17.266ZM17.645,17.227L17.641,17.236L17.645,17.227ZM32.092,17.228L32.096,17.236L32.092,17.228ZM17.663,17.19L17.659,17.2L17.663,17.19ZM32.074,17.191L32.078,17.199L32.074,17.191ZM17.682,17.153L17.677,17.162L17.682,17.153ZM32.055,17.154L32.059,17.161L32.055,17.154ZM17.7,17.117L17.696,17.125L17.7,17.117ZM32.037,17.117L32.04,17.123L32.037,17.117ZM17.719,17.081L17.717,17.085L17.719,17.081ZM32.018,17.081L32.019,17.082L32.018,17.081ZM17.782,16.964L17.778,16.971L17.782,16.964ZM31.957,16.968L31.958,16.97L31.957,16.968ZM17.804,16.925L17.798,16.935L17.804,16.925ZM31.935,16.928L31.938,16.934L31.935,16.928ZM17.825,16.888L17.818,16.9L17.825,16.888ZM31.914,16.891L31.918,16.899L31.914,16.891ZM17.845,16.852L17.838,16.865L17.845,16.852ZM31.893,16.854L31.898,16.863L31.893,16.854ZM17.866,16.817L17.859,16.829L17.866,16.817ZM31.871,16.819L31.876,16.827L31.871,16.819ZM17.888,16.782L17.88,16.794L17.888,16.782ZM31.85,16.783L31.855,16.791L31.85,16.783ZM17.909,16.747L17.902,16.758L17.909,16.747ZM31.829,16.748L31.832,16.754L31.829,16.748ZM17.931,16.712L17.925,16.72L17.931,16.712ZM31.807,16.713L31.808,16.714L31.807,16.713ZM17.979,16.635L17.975,16.642L17.979,16.635ZM18.005,16.596L17.998,16.608L18.005,16.596ZM31.735,16.602L31.738,16.606L31.735,16.602ZM18.029,16.561L18.02,16.573L18.029,16.561ZM31.711,16.564L31.716,16.572L31.711,16.564ZM18.052,16.526L18.043,16.539L18.052,16.526ZM31.686,16.529L31.692,16.537L31.686,16.529ZM18.076,16.492L18.066,16.505L18.076,16.492ZM31.663,16.494L31.669,16.503L31.663,16.494ZM18.1,16.458L18.09,16.471L18.1,16.458ZM31.639,16.459L31.645,16.469L31.639,16.459ZM18.124,16.424L18.114,16.437L18.124,16.424ZM31.614,16.425L31.62,16.434L31.614,16.425ZM18.148,16.39L18.139,16.403L18.148,16.39ZM31.59,16.392L31.595,16.398L31.59,16.392ZM18.172,16.357L18.164,16.367L18.172,16.357ZM31.566,16.358L31.567,16.36L31.566,16.358ZM18.197,16.324L18.196,16.324L18.197,16.324ZM18.23,16.28L18.222,16.291L18.23,16.28ZM31.513,16.288L31.514,16.289L31.513,16.288ZM18.257,16.245L18.247,16.258L18.257,16.245ZM31.484,16.249L31.489,16.256L31.484,16.249ZM18.283,16.211L18.272,16.225L18.283,16.211ZM31.456,16.214L31.463,16.223L31.456,16.214ZM18.309,16.178L18.298,16.192L18.309,16.178ZM31.43,16.18L31.438,16.19L31.43,16.18ZM18.335,16.145L18.324,16.16L18.335,16.145ZM31.403,16.147L31.411,16.158L31.403,16.147ZM18.362,16.113L18.35,16.127L18.362,16.113ZM31.376,16.114L31.385,16.125L31.376,16.114ZM18.388,16.081L18.377,16.094L18.388,16.081ZM31.35,16.082L31.357,16.091L31.35,16.082ZM18.415,16.049L18.404,16.061L18.415,16.049ZM31.323,16.05L31.329,16.057L31.323,16.05ZM18.442,16.017L18.433,16.027L18.442,16.017ZM31.295,16.018L31.298,16.021L31.295,16.018ZM18.473,15.981L18.469,15.985L18.473,15.981ZM18.507,15.942L18.497,15.954L18.507,15.942ZM31.234,15.947L31.239,15.953L31.234,15.947ZM18.536,15.909L18.525,15.922L18.536,15.909ZM31.203,15.912L31.211,15.921L31.203,15.912ZM18.565,15.877L18.553,15.891L18.565,15.877ZM31.174,15.879L31.183,15.89L31.174,15.879ZM18.594,15.846L18.581,15.86L18.594,15.846ZM31.145,15.847L31.155,15.859L31.145,15.847ZM18.622,15.815L18.61,15.828L18.622,15.815ZM31.115,15.816L31.126,15.827L31.115,15.816ZM18.651,15.784L18.639,15.797L18.651,15.784ZM31.086,15.785L31.097,15.796L31.086,15.785ZM18.68,15.753L18.668,15.766L18.68,15.753ZM31.057,15.754L31.067,15.765L31.057,15.754ZM18.71,15.723L18.698,15.735L18.71,15.723ZM31.027,15.723L31.037,15.733L31.027,15.723ZM18.739,15.692L18.73,15.702L18.739,15.692ZM30.998,15.693L31.003,15.698L30.998,15.693ZM18.775,15.656L18.769,15.662L18.775,15.656ZM30.965,15.659L30.967,15.662L30.965,15.659ZM18.81,15.621L18.799,15.632L18.81,15.621ZM30.928,15.622L30.937,15.632L30.928,15.622ZM18.842,15.59L18.83,15.602L18.842,15.59ZM30.895,15.591L30.907,15.602L30.895,15.591ZM18.873,15.56L18.86,15.572L18.873,15.56ZM30.864,15.56L30.876,15.572L30.864,15.56ZM18.904,15.53L18.891,15.543L18.904,15.53ZM30.832,15.53L30.846,15.543L30.832,15.53ZM30.801,15.5L30.814,15.513L30.801,15.5ZM18.936,15.501L18.923,15.513L18.936,15.501ZM30.769,15.471L30.783,15.484L30.769,15.471ZM18.967,15.471L18.954,15.483L18.967,15.471ZM30.738,15.442L30.751,15.454L30.738,15.442ZM18.999,15.442L18.986,15.454L18.999,15.442ZM30.706,15.413L30.719,15.425L30.706,15.413ZM19.031,15.413L19.019,15.424L19.031,15.413ZM30.674,15.384L30.684,15.394L30.674,15.384ZM19.063,15.385L19.056,15.391L19.063,15.385ZM30.63,15.346L30.642,15.356L30.63,15.346ZM19.101,15.35L19.095,15.356L19.101,15.35ZM30.595,15.315L30.61,15.328L30.595,15.315ZM19.139,15.318L19.128,15.327L19.139,15.318ZM30.561,15.286L30.577,15.3L30.561,15.286ZM19.173,15.288L19.161,15.299L19.173,15.288ZM30.528,15.258L30.544,15.272L30.528,15.258ZM19.207,15.26L19.194,15.271L19.207,15.26ZM30.494,15.23L30.511,15.244L30.494,15.23ZM19.241,15.231L19.227,15.243L19.241,15.231ZM30.461,15.202L30.478,15.216L30.461,15.202ZM19.274,15.204L19.261,15.215L19.274,15.204ZM30.427,15.175L30.444,15.189L30.427,15.175ZM19.308,15.176L19.295,15.187L19.308,15.176ZM30.393,15.147L30.41,15.161L30.393,15.147ZM19.342,15.149L19.33,15.158L19.342,15.149ZM30.359,15.12L30.376,15.134L30.359,15.12ZM19.377,15.121L19.366,15.129L19.377,15.121ZM30.325,15.093L30.343,15.107L30.326,15.094L30.305,15.078L30.325,15.093ZM19.411,15.094L19.409,15.096L19.411,15.094ZM30.273,15.053L30.292,15.068L30.273,15.053ZM19.452,15.062L19.446,15.067L19.452,15.062ZM30.238,15.027L30.257,15.041L30.238,15.027ZM19.492,15.032L19.481,15.04L19.492,15.032ZM30.203,15L30.222,15.015L30.203,15ZM19.529,15.004L19.516,15.013L19.529,15.004ZM30.168,14.974L30.187,14.989L30.168,14.974ZM19.565,14.977L19.552,14.987L19.565,14.977ZM30.132,14.948L30.152,14.963L30.132,14.948ZM19.601,14.951L19.588,14.961L19.601,14.951ZM30.097,14.922L30.117,14.937L30.097,14.922ZM19.637,14.925L19.624,14.934L19.637,14.925ZM30.061,14.897L30.081,14.911L30.061,14.897ZM19.673,14.899L19.661,14.908L19.673,14.899ZM30.025,14.871L30.046,14.886L30.025,14.871ZM19.71,14.873L19.698,14.881L19.71,14.873ZM29.988,14.846L30.011,14.862L29.988,14.846ZM19.746,14.848L19.738,14.853L19.746,14.848ZM29.954,14.822L29.915,14.796C29.928,14.805 29.941,14.813 29.954,14.822ZM19.826,14.793L19.821,14.796L19.826,14.793ZM29.858,14.758L29.881,14.773L29.858,14.758ZM19.868,14.765L19.858,14.771L19.868,14.765ZM29.822,14.734L29.845,14.749L29.822,14.734ZM19.907,14.739L19.896,14.747L19.907,14.739ZM29.785,14.71L29.807,14.724L29.785,14.71ZM19.946,14.714L19.933,14.722L19.946,14.714ZM29.747,14.686L29.77,14.7L29.747,14.686ZM19.984,14.689L19.971,14.697L19.984,14.689ZM29.71,14.662L29.733,14.676L29.71,14.662ZM20.023,14.665L20.01,14.673L20.023,14.665ZM29.672,14.638L29.696,14.653L29.672,14.638ZM20.061,14.641L20.049,14.648L20.061,14.641ZM29.634,14.615L29.659,14.63L29.634,14.615ZM20.099,14.617L20.09,14.623L20.099,14.617ZM29.494,14.531C29.537,14.556 29.58,14.582 29.623,14.608C29.581,14.582 29.538,14.556 29.494,14.531ZM20.138,14.593L20.134,14.596L20.138,14.593ZM20.221,14.543L20.218,14.545L20.221,14.543ZM29.458,14.51L29.483,14.525L29.458,14.51ZM20.266,14.517L20.257,14.522L20.266,14.517ZM29.42,14.488L29.444,14.502L29.42,14.488ZM20.308,14.493L20.297,14.499L20.308,14.493ZM29.381,14.466L29.405,14.48L29.381,14.466ZM20.349,14.47L20.337,14.477L20.349,14.47ZM29.341,14.444L29.366,14.457L29.341,14.444ZM20.389,14.447L20.377,14.454L20.389,14.447ZM29.302,14.422L29.327,14.436L29.302,14.422ZM20.43,14.425L20.418,14.431L20.43,14.425ZM29.262,14.4L29.288,14.414L29.262,14.4ZM20.47,14.403L20.46,14.408L20.47,14.403ZM29.222,14.379L29.249,14.393L29.222,14.379ZM20.51,14.381L20.503,14.385L20.51,14.381ZM29.186,14.359L29.143,14.337C29.157,14.344 29.171,14.352 29.186,14.359ZM29.077,14.303L29.105,14.317L29.077,14.303ZM20.638,14.314L20.636,14.315L20.638,14.314ZM29.038,14.283L29.064,14.296L29.038,14.283ZM20.685,14.29L20.677,14.294L20.685,14.29ZM28.998,14.263L29.023,14.276L28.998,14.263ZM20.729,14.268L20.719,14.273L20.729,14.268ZM28.957,14.243L28.982,14.255L28.957,14.243ZM20.772,14.247L20.761,14.252L20.772,14.247ZM28.916,14.223L28.941,14.235L28.916,14.223ZM20.814,14.226L20.803,14.232L20.814,14.226ZM28.875,14.203L28.899,14.215L28.875,14.203ZM20.857,14.206L20.846,14.211L20.857,14.206ZM28.833,14.184L28.858,14.195L28.833,14.184ZM20.899,14.186L20.891,14.19L20.899,14.186ZM28.791,14.164L28.817,14.176L28.791,14.164ZM20.942,14.166L20.937,14.168L20.942,14.166ZM28.752,14.146L28.707,14.126C28.722,14.133 28.737,14.139 28.752,14.146ZM28.643,14.097L28.667,14.108L28.643,14.097ZM21.075,14.106L21.074,14.106L21.075,14.106ZM28.601,14.079L28.624,14.089L28.601,14.079ZM21.124,14.084L21.117,14.087L21.124,14.084ZM28.558,14.061L28.581,14.071L28.558,14.061ZM21.17,14.065L21.161,14.068L21.17,14.065ZM28.516,14.043L28.538,14.052L28.516,14.043ZM21.215,14.046L21.204,14.05L21.215,14.046ZM28.473,14.025L28.494,14.034L28.473,14.025ZM21.259,14.027L21.249,14.031L21.259,14.027ZM28.429,14.007L28.451,14.016L28.429,14.007ZM21.303,14.009L21.294,14.013L21.303,14.009ZM28.386,13.989L28.406,13.998L28.386,13.989ZM21.347,13.991L21.341,13.994L21.347,13.991ZM28.342,13.972L28.361,13.979L28.342,13.972ZM21.392,13.973L21.391,13.974L21.392,13.973ZM28.298,13.955L28.311,13.96L28.298,13.955ZM28.243,13.934L28.254,13.938L28.243,13.934ZM28.195,13.915L28.21,13.921L28.195,13.915ZM21.531,13.92L21.53,13.92L21.531,13.92ZM28.149,13.898L28.165,13.904L28.149,13.898ZM21.581,13.901L21.575,13.903L21.581,13.901ZM28.103,13.882L28.119,13.888L28.103,13.882ZM21.629,13.884L21.62,13.887L21.629,13.884ZM28.058,13.866L28.074,13.871L28.058,13.866ZM21.675,13.867L21.666,13.87L21.675,13.867ZM28.013,13.85L28.028,13.855L28.013,13.85ZM21.721,13.851L21.713,13.854L21.721,13.851ZM27.968,13.834L27.981,13.839L27.968,13.834ZM21.767,13.835L21.76,13.837L21.767,13.835ZM27.922,13.819L27.932,13.822L27.922,13.819ZM21.813,13.819L21.809,13.821L21.813,13.819ZM27.877,13.803L27.879,13.804L27.877,13.803Z" style="fill:none;stroke:black;stroke-width:1.22px;"/>
            </g>
            <g transform="matrix(55.8954,0,0,49.2765,-878.032,-330.791)">
                <path d="M25.128,19.358C24.963,19.04 24.868,18.67 24.868,18.275C24.868,17.096 25.713,16.138 26.753,16.138C27.793,16.138 28.637,17.096 28.637,18.275C28.637,19.031 28.291,19.696 27.768,20.076C27.128,19.668 26.188,19.396 25.128,19.358ZM21.969,20.076C21.446,19.696 21.099,19.031 21.099,18.275C21.099,17.096 21.944,16.138 22.984,16.138C24.024,16.138 24.868,17.096 24.868,18.275C24.868,18.67 24.774,19.04 24.609,19.358C23.549,19.396 22.609,19.668 21.969,20.076Z" style="fill:none;stroke:black;stroke-width:1.22px;"/>
            </g>
            <g transform="matrix(1,0,0,1,-53.1856,50.0357)">
                <ellipse cx="565.186" cy="671.455" rx="210.672" ry="98.631" style="fill:none;stroke:black;stroke-width:63.81px;"/>
            </g>
            <g transform="matrix(51.2,0,0,45.1371,0.670978,88.9676)">
                <path d="M12.057,13.791C12.057,13.668 11.958,13.568 11.835,13.568L8.139,13.568C8.016,13.568 7.916,13.668 7.916,13.791L7.916,14.236C7.916,14.359 8.016,14.458 8.139,14.458L11.835,14.458C11.958,14.458 12.057,14.359 12.057,14.236L12.057,13.791Z"/>
            </g>
        </g>
    </g>
</svg>
