<?xml version="1.0" encoding="UTF-8" standalone="no"?>
<!DOCTYPE svg PUBLIC "-//W3C//DTD SVG 1.1//EN" "http://www.w3.org/Graphics/SVG/1.1/DTD/svg11.dtd">
<svg width="100%" height="100%" viewBox="0 0 300 380" version="1.1" xmlns="http://www.w3.org/2000/svg" xmlns:xlink="http://www.w3.org/1999/xlink" xml:space="preserve" xmlns:serif="http://www.serif.com/" style="fill-rule:evenodd;clip-rule:evenodd;stroke-linecap:round;stroke-linejoin:round;stroke-miterlimit:1.5;">
    <g transform="matrix(1,0,0,1,191.433,4.26326e-14)">
        <g id="Out-output-P" serif:id="Out#output$P" transform="matrix(0.175002,0,0,0.175002,57.2139,322.943)">
            <rect x="53.94" y="106.916" width="161.978" height="161.978" style="fill:rgb(77,77,77);"/>
        </g>
        <g transform="matrix(1,0,0,1,-45.3679,241.05)">
            <g transform="matrix(10,0,0,10,89.1979,118.306)">
                <path d="M0.033,-0.337C0.033,-0.358 0.034,-0.377 0.037,-0.394C0.04,-0.411 0.045,-0.427 0.052,-0.44C0.064,-0.462 0.081,-0.48 0.104,-0.493C0.126,-0.506 0.153,-0.513 0.185,-0.513C0.217,-0.513 0.244,-0.506 0.267,-0.493C0.289,-0.48 0.306,-0.462 0.318,-0.44C0.325,-0.427 0.33,-0.411 0.333,-0.394C0.336,-0.377 0.337,-0.358 0.337,-0.337L0.337,-0.17C0.337,-0.149 0.336,-0.13 0.333,-0.113C0.33,-0.096 0.325,-0.08 0.318,-0.067C0.306,-0.045 0.289,-0.027 0.267,-0.014C0.244,-0.001 0.217,0.006 0.185,0.006C0.153,0.006 0.126,-0.001 0.104,-0.014C0.081,-0.027 0.064,-0.045 0.052,-0.067C0.045,-0.08 0.04,-0.096 0.037,-0.113C0.034,-0.13 0.033,-0.149 0.033,-0.17L0.033,-0.337ZM0.135,-0.154C0.135,-0.135 0.139,-0.12 0.149,-0.111C0.158,-0.101 0.17,-0.096 0.185,-0.096C0.2,-0.096 0.213,-0.101 0.222,-0.111C0.231,-0.12 0.235,-0.135 0.235,-0.154L0.235,-0.353C0.235,-0.372 0.231,-0.387 0.222,-0.397C0.213,-0.406 0.2,-0.411 0.185,-0.411C0.17,-0.411 0.158,-0.406 0.149,-0.397C0.139,-0.387 0.135,-0.372 0.135,-0.353L0.135,-0.154Z" style="fill:rgb(5,5,5);fill-rule:nonzero;"/>
            </g>
            <g transform="matrix(10,0,0,10,92.8979,118.306)">
                <path d="M0.347,-0.507L0.347,-0L0.245,-0L0.245,-0.049L0.243,-0.049C0.232,-0.033 0.22,-0.02 0.205,-0.01C0.19,0.001 0.17,0.006 0.147,0.006C0.134,0.006 0.122,0.004 0.109,-0.001C0.096,-0.005 0.085,-0.012 0.075,-0.022C0.065,-0.032 0.057,-0.045 0.051,-0.061C0.045,-0.076 0.042,-0.095 0.042,-0.118L0.042,-0.507L0.144,-0.507L0.144,-0.156C0.144,-0.137 0.148,-0.123 0.157,-0.112C0.166,-0.101 0.178,-0.096 0.194,-0.096C0.213,-0.096 0.227,-0.102 0.234,-0.114C0.241,-0.126 0.245,-0.143 0.245,-0.166L0.245,-0.507L0.347,-0.507Z" style="fill:rgb(5,5,5);fill-rule:nonzero;"/>
            </g>
            <g transform="matrix(10,0,0,10,96.7879,118.306)">
                <path d="M0.042,-0.507L0.042,-0.661L0.144,-0.661L0.144,-0.507L0.207,-0.507L0.207,-0.427L0.144,-0.427L0.144,-0.146C0.144,-0.134 0.145,-0.125 0.148,-0.118C0.15,-0.111 0.154,-0.106 0.159,-0.103C0.164,-0.1 0.171,-0.098 0.179,-0.097C0.186,-0.096 0.196,-0.096 0.207,-0.096L0.207,-0L0.165,-0C0.142,-0 0.122,-0.004 0.107,-0.011C0.091,-0.018 0.078,-0.028 0.069,-0.039C0.06,-0.05 0.053,-0.063 0.049,-0.078C0.044,-0.092 0.042,-0.106 0.042,-0.119L0.042,-0.427L-0.009,-0.427L-0.009,-0.507L0.042,-0.507Z" style="fill:rgb(5,5,5);fill-rule:nonzero;"/>
            </g>
        </g>
    </g>
    <g transform="matrix(1,0,0,1,85.8998,4.26326e-14)">
        <g id="One-output" serif:id="One#output" transform="matrix(0.175002,0,0,0.175002,57.2139,322.943)">
            <rect x="53.94" y="106.916" width="161.978" height="161.978" style="fill:rgb(77,77,77);"/>
        </g>
        <g transform="matrix(1,0,0,1,-45.3679,241.05)">
            <g transform="matrix(10,0,0,10,89.1979,118.306)">
                <path d="M0.15,-0.146C0.15,-0.13 0.155,-0.118 0.164,-0.109C0.172,-0.1 0.185,-0.096 0.2,-0.096C0.219,-0.096 0.232,-0.102 0.239,-0.113C0.245,-0.124 0.249,-0.136 0.25,-0.147L0.352,-0.147C0.352,-0.102 0.338,-0.066 0.311,-0.039C0.298,-0.025 0.282,-0.014 0.263,-0.006C0.244,0.002 0.223,0.006 0.2,0.006C0.168,0.006 0.141,-0.001 0.119,-0.014C0.096,-0.027 0.079,-0.045 0.067,-0.067C0.06,-0.08 0.055,-0.096 0.052,-0.113C0.049,-0.13 0.048,-0.149 0.048,-0.17L0.048,-0.337C0.048,-0.358 0.049,-0.377 0.052,-0.394C0.055,-0.411 0.06,-0.427 0.067,-0.44C0.079,-0.462 0.096,-0.48 0.119,-0.493C0.141,-0.506 0.168,-0.513 0.2,-0.513C0.223,-0.513 0.245,-0.509 0.264,-0.501C0.282,-0.493 0.299,-0.482 0.312,-0.468C0.339,-0.438 0.352,-0.399 0.352,-0.351L0.25,-0.351C0.25,-0.372 0.246,-0.387 0.237,-0.397C0.228,-0.406 0.215,-0.411 0.2,-0.411C0.185,-0.411 0.172,-0.406 0.164,-0.397C0.155,-0.387 0.15,-0.372 0.15,-0.353L0.15,-0.146Z" style="fill:rgb(5,5,5);fill-rule:nonzero;"/>
            </g>
            <g transform="matrix(10,0,0,10,92.8979,118.306)">
                <path d="M0.033,-0.337C0.033,-0.358 0.034,-0.377 0.037,-0.394C0.04,-0.411 0.045,-0.427 0.052,-0.44C0.064,-0.462 0.081,-0.48 0.104,-0.493C0.126,-0.506 0.153,-0.513 0.185,-0.513C0.217,-0.513 0.244,-0.506 0.267,-0.493C0.289,-0.48 0.306,-0.462 0.318,-0.44C0.325,-0.427 0.33,-0.411 0.333,-0.394C0.336,-0.377 0.337,-0.358 0.337,-0.337L0.337,-0.17C0.337,-0.149 0.336,-0.13 0.333,-0.113C0.33,-0.096 0.325,-0.08 0.318,-0.067C0.306,-0.045 0.289,-0.027 0.267,-0.014C0.244,-0.001 0.217,0.006 0.185,0.006C0.153,0.006 0.126,-0.001 0.104,-0.014C0.081,-0.027 0.064,-0.045 0.052,-0.067C0.045,-0.08 0.04,-0.096 0.037,-0.113C0.034,-0.13 0.033,-0.149 0.033,-0.17L0.033,-0.337ZM0.135,-0.154C0.135,-0.135 0.139,-0.12 0.149,-0.111C0.158,-0.101 0.17,-0.096 0.185,-0.096C0.2,-0.096 0.213,-0.101 0.222,-0.111C0.231,-0.12 0.235,-0.135 0.235,-0.154L0.235,-0.353C0.235,-0.372 0.231,-0.387 0.222,-0.397C0.213,-0.406 0.2,-0.411 0.185,-0.411C0.17,-0.411 0.158,-0.406 0.149,-0.397C0.139,-0.387 0.135,-0.372 0.135,-0.353L0.135,-0.154Z" style="fill:rgb(5,5,5);fill-rule:nonzero;"/>
            </g>
            <g transform="matrix(10,0,0,10,96.5979,118.306)">
                <path d="M0.042,-0L0.042,-0.507L0.144,-0.507L0.144,-0.453C0.165,-0.472 0.185,-0.486 0.205,-0.497C0.225,-0.508 0.25,-0.513 0.279,-0.513L0.279,-0.405C0.269,-0.409 0.259,-0.411 0.248,-0.411C0.237,-0.411 0.226,-0.409 0.214,-0.406C0.201,-0.402 0.19,-0.396 0.18,-0.387C0.169,-0.378 0.161,-0.367 0.154,-0.353C0.147,-0.339 0.144,-0.322 0.144,-0.301L0.144,-0L0.042,-0Z" style="fill:rgb(5,5,5);fill-rule:nonzero;"/>
            </g>
            <g transform="matrix(10,0,0,10,99.3779,118.306)">
                <path d="M0.337,-0.215L0.135,-0.215L0.135,-0.146C0.135,-0.13 0.139,-0.118 0.149,-0.109C0.158,-0.1 0.17,-0.096 0.185,-0.096C0.204,-0.096 0.217,-0.102 0.224,-0.113C0.23,-0.124 0.234,-0.136 0.235,-0.147L0.337,-0.147C0.337,-0.102 0.323,-0.066 0.296,-0.039C0.283,-0.025 0.267,-0.014 0.248,-0.006C0.229,0.002 0.208,0.006 0.185,0.006C0.153,0.006 0.126,-0.001 0.104,-0.014C0.081,-0.027 0.064,-0.045 0.052,-0.067C0.045,-0.08 0.04,-0.096 0.037,-0.113C0.034,-0.13 0.033,-0.149 0.033,-0.17L0.033,-0.337C0.033,-0.358 0.034,-0.377 0.037,-0.394C0.04,-0.411 0.045,-0.427 0.052,-0.44C0.064,-0.462 0.081,-0.48 0.104,-0.493C0.126,-0.506 0.153,-0.513 0.185,-0.513C0.208,-0.513 0.23,-0.509 0.249,-0.501C0.268,-0.493 0.284,-0.482 0.297,-0.468C0.324,-0.438 0.337,-0.4 0.337,-0.355L0.337,-0.215ZM0.135,-0.295L0.235,-0.295L0.235,-0.353C0.235,-0.372 0.231,-0.387 0.222,-0.397C0.213,-0.406 0.2,-0.411 0.185,-0.411C0.17,-0.411 0.158,-0.406 0.149,-0.397C0.139,-0.387 0.135,-0.372 0.135,-0.353L0.135,-0.295Z" style="fill:rgb(5,5,5);fill-rule:nonzero;"/>
            </g>
        </g>
    </g>
    <g>
        <g transform="matrix(1,0,0,1,-4.68323,108.784)">
            <g transform="matrix(0.929313,-0.369294,0.369294,0.929313,-103.882,-78.5527)">
                <rect x="24.278" y="298.345" width="2.069" height="51.737"/>
            </g>
            <g id="Offset-knob-4" serif:id="Offset#knob$4" transform="matrix(0.758898,0,0,0.758898,6.80633,1.14995)">
                <circle cx="55.661" cy="308.513" r="7.929"/>
            </g>
            <g id="Pitch-input" serif:id="Pitch#input" transform="matrix(0.175002,0,0,0.175002,5.24363,153.254)">
                <rect x="53.94" y="106.916" width="161.978" height="161.978" style="fill:rgb(217,217,217);"/>
            </g>
            <g transform="matrix(1,0,0,1,-67.9714,36.7978)">
                <g transform="matrix(10,0,0,10,89.1979,118.306)">
                    <path d="M0.042,0.205L0.042,-0.507L0.144,-0.507L0.144,-0.461C0.157,-0.476 0.17,-0.488 0.183,-0.498C0.196,-0.508 0.216,-0.513 0.241,-0.513C0.283,-0.513 0.313,-0.497 0.33,-0.465C0.336,-0.454 0.34,-0.44 0.343,-0.423C0.346,-0.406 0.347,-0.384 0.347,-0.356L0.347,-0.163C0.347,-0.126 0.346,-0.099 0.344,-0.082C0.34,-0.049 0.325,-0.024 0.298,-0.007C0.285,0.002 0.265,0.006 0.24,0.006C0.22,0.006 0.202,0.002 0.187,-0.008C0.171,-0.017 0.157,-0.029 0.146,-0.046L0.144,-0.046L0.144,0.205L0.042,0.205ZM0.245,-0.342C0.245,-0.363 0.241,-0.379 0.233,-0.392C0.225,-0.405 0.212,-0.411 0.195,-0.411C0.18,-0.411 0.167,-0.405 0.158,-0.394C0.149,-0.382 0.144,-0.367 0.144,-0.348L0.144,-0.151C0.144,-0.135 0.149,-0.122 0.159,-0.112C0.168,-0.101 0.18,-0.096 0.195,-0.096C0.214,-0.096 0.228,-0.102 0.235,-0.114C0.242,-0.126 0.245,-0.14 0.245,-0.156L0.245,-0.342Z" style="fill:rgb(5,5,5);fill-rule:nonzero;"/>
                </g>
                <g transform="matrix(10,0,0,10,93.0879,118.306)">
                    <path d="M0.042,-0L0.042,-0.507L0.144,-0.507L0.144,-0L0.042,-0ZM0.042,-0.61L0.042,-0.712L0.144,-0.712L0.144,-0.61L0.042,-0.61Z" style="fill:rgb(5,5,5);fill-rule:nonzero;"/>
                </g>
                <g transform="matrix(10,0,0,10,94.9479,118.306)">
                    <path d="M0.042,-0.507L0.042,-0.661L0.144,-0.661L0.144,-0.507L0.207,-0.507L0.207,-0.427L0.144,-0.427L0.144,-0.146C0.144,-0.134 0.145,-0.125 0.148,-0.118C0.15,-0.111 0.154,-0.106 0.159,-0.103C0.164,-0.1 0.171,-0.098 0.179,-0.097C0.186,-0.096 0.196,-0.096 0.207,-0.096L0.207,-0L0.165,-0C0.142,-0 0.122,-0.004 0.107,-0.011C0.091,-0.018 0.078,-0.028 0.069,-0.039C0.06,-0.05 0.053,-0.063 0.049,-0.078C0.044,-0.092 0.042,-0.106 0.042,-0.119L0.042,-0.427L-0.009,-0.427L-0.009,-0.507L0.042,-0.507Z" style="fill:rgb(5,5,5);fill-rule:nonzero;"/>
                </g>
                <g transform="matrix(10,0,0,10,96.9879,118.306)">
                    <path d="M0.15,-0.146C0.15,-0.13 0.155,-0.118 0.164,-0.109C0.172,-0.1 0.185,-0.096 0.2,-0.096C0.219,-0.096 0.232,-0.102 0.239,-0.113C0.245,-0.124 0.249,-0.136 0.25,-0.147L0.352,-0.147C0.352,-0.102 0.338,-0.066 0.311,-0.039C0.298,-0.025 0.282,-0.014 0.263,-0.006C0.244,0.002 0.223,0.006 0.2,0.006C0.168,0.006 0.141,-0.001 0.119,-0.014C0.096,-0.027 0.079,-0.045 0.067,-0.067C0.06,-0.08 0.055,-0.096 0.052,-0.113C0.049,-0.13 0.048,-0.149 0.048,-0.17L0.048,-0.337C0.048,-0.358 0.049,-0.377 0.052,-0.394C0.055,-0.411 0.06,-0.427 0.067,-0.44C0.079,-0.462 0.096,-0.48 0.119,-0.493C0.141,-0.506 0.168,-0.513 0.2,-0.513C0.223,-0.513 0.245,-0.509 0.264,-0.501C0.282,-0.493 0.299,-0.482 0.312,-0.468C0.339,-0.438 0.352,-0.399 0.352,-0.351L0.25,-0.351C0.25,-0.372 0.246,-0.387 0.237,-0.397C0.228,-0.406 0.215,-0.411 0.2,-0.411C0.185,-0.411 0.172,-0.406 0.164,-0.397C0.155,-0.387 0.15,-0.372 0.15,-0.353L0.15,-0.146Z" style="fill:rgb(5,5,5);fill-rule:nonzero;"/>
                </g>
                <g transform="matrix(10,0,0,10,100.568,118.306)">
                    <path d="M0.042,-0L0.042,-0.712L0.144,-0.712L0.144,-0.458L0.146,-0.458C0.157,-0.474 0.169,-0.487 0.185,-0.498C0.2,-0.508 0.219,-0.513 0.242,-0.513C0.255,-0.513 0.267,-0.511 0.28,-0.507C0.293,-0.502 0.304,-0.495 0.314,-0.485C0.324,-0.475 0.332,-0.462 0.338,-0.447C0.344,-0.431 0.347,-0.412 0.347,-0.389L0.347,-0L0.245,-0L0.245,-0.351C0.245,-0.37 0.241,-0.384 0.232,-0.395C0.223,-0.406 0.211,-0.411 0.195,-0.411C0.176,-0.411 0.162,-0.405 0.155,-0.393C0.148,-0.381 0.144,-0.364 0.144,-0.341L0.144,-0L0.042,-0Z" style="fill:rgb(5,5,5);fill-rule:nonzero;"/>
                </g>
            </g>
        </g>
        <g transform="matrix(1,0,0,1,-8.59677,-48.8627)">
            <g id="FMAttenuate-knob-2" serif:id="FMAttenuate#knob$2" transform="matrix(0.381474,0,0,0.381474,10.7918,159.054)">
                <circle cx="55.661" cy="308.513" r="7.929"/>
            </g>
            <g id="FM-input" serif:id="FM#input" transform="matrix(0.175002,0,0,0.175002,9.15717,210.558)">
                <rect x="53.94" y="106.916" width="161.978" height="161.978" style="fill:rgb(217,217,217);"/>
            </g>
            <g transform="matrix(1,0,0,1,-61.0579,94.9245)">
                <g transform="matrix(10,0,0,10,89.1979,118.306)">
                    <path d="M0.048,-0L0.048,-0.712L0.352,-0.712L0.352,-0.616L0.15,-0.616L0.15,-0.4L0.326,-0.4L0.326,-0.304L0.15,-0.304L0.15,-0L0.048,-0Z" style="fill:rgb(5,5,5);fill-rule:nonzero;"/>
                </g>
                <g transform="matrix(10,0,0,10,92.8979,118.306)">
                    <path d="M0.048,-0L0.048,-0.712L0.146,-0.712L0.277,-0.335L0.279,-0.335L0.409,-0.712L0.508,-0.712L0.508,-0L0.406,-0L0.406,-0.433L0.404,-0.433L0.303,-0.127L0.252,-0.127L0.152,-0.433L0.15,-0.433L0.15,-0L0.048,-0Z" style="fill:rgb(5,5,5);fill-rule:nonzero;"/>
                </g>
            </g>
        </g>
        <g transform="matrix(1,0,0,1,-8.39677,-145.295)">
            <g id="Sync-input" serif:id="Sync#input" transform="matrix(0.175002,0,0,0.175002,8.95717,205.701)">
                <rect x="53.94" y="106.916" width="161.978" height="161.978" style="fill:rgb(217,217,217);"/>
            </g>
            <g transform="matrix(1,0,0,1,-63.8679,89.2766)">
                <g transform="matrix(10,0,0,10,89.1979,118.306)">
                    <path d="M0.227,-0.365C0.226,-0.382 0.221,-0.395 0.211,-0.404C0.2,-0.413 0.188,-0.417 0.175,-0.417C0.159,-0.417 0.147,-0.412 0.138,-0.402C0.129,-0.391 0.125,-0.379 0.125,-0.366C0.125,-0.357 0.127,-0.347 0.132,-0.339C0.137,-0.33 0.149,-0.321 0.168,-0.314L0.228,-0.29C0.266,-0.275 0.292,-0.255 0.307,-0.23C0.321,-0.205 0.328,-0.177 0.328,-0.147C0.328,-0.126 0.324,-0.106 0.317,-0.088C0.309,-0.069 0.298,-0.053 0.285,-0.039C0.272,-0.025 0.256,-0.014 0.237,-0.006C0.218,0.002 0.198,0.006 0.176,0.006C0.135,0.006 0.1,-0.007 0.072,-0.033C0.058,-0.046 0.047,-0.062 0.038,-0.081C0.029,-0.099 0.025,-0.122 0.024,-0.147L0.12,-0.147C0.122,-0.133 0.127,-0.12 0.135,-0.108C0.142,-0.096 0.156,-0.09 0.175,-0.09C0.19,-0.09 0.203,-0.095 0.215,-0.105C0.226,-0.114 0.232,-0.128 0.232,-0.145C0.232,-0.159 0.228,-0.171 0.221,-0.181C0.214,-0.191 0.2,-0.2 0.181,-0.207L0.132,-0.225C0.1,-0.237 0.075,-0.255 0.057,-0.279C0.038,-0.302 0.029,-0.331 0.029,-0.365C0.029,-0.386 0.033,-0.406 0.041,-0.425C0.049,-0.443 0.06,-0.459 0.074,-0.472C0.087,-0.485 0.103,-0.496 0.121,-0.503C0.139,-0.51 0.158,-0.513 0.179,-0.513C0.2,-0.513 0.219,-0.509 0.237,-0.502C0.254,-0.495 0.269,-0.484 0.282,-0.471C0.295,-0.458 0.305,-0.442 0.312,-0.424C0.319,-0.405 0.323,-0.386 0.323,-0.365L0.227,-0.365Z" style="fill:rgb(5,5,5);fill-rule:nonzero;"/>
                </g>
                <g transform="matrix(10,0,0,10,92.7179,118.306)">
                    <path d="M-0.001,-0.507L0.107,-0.507L0.177,-0.191L0.179,-0.191L0.248,-0.507L0.353,-0.507L0.207,0.088C0.202,0.111 0.194,0.129 0.185,0.144C0.175,0.159 0.164,0.171 0.151,0.18C0.138,0.189 0.125,0.196 0.111,0.2C0.096,0.203 0.081,0.205 0.066,0.205L0.038,0.205L0.038,0.109L0.061,0.109C0.071,0.109 0.08,0.108 0.087,0.105C0.094,0.102 0.101,0.096 0.107,0.087C0.112,0.078 0.117,0.065 0.122,0.048C0.127,0.031 0.132,0.007 0.138,-0.023L-0.001,-0.507Z" style="fill:rgb(5,5,5);fill-rule:nonzero;"/>
                </g>
                <g transform="matrix(10,0,0,10,96.2379,118.306)">
                    <path d="M0.042,-0L0.042,-0.507L0.144,-0.507L0.144,-0.458L0.146,-0.458C0.157,-0.474 0.169,-0.487 0.185,-0.498C0.2,-0.508 0.219,-0.513 0.242,-0.513C0.255,-0.513 0.267,-0.511 0.28,-0.507C0.293,-0.502 0.304,-0.495 0.314,-0.485C0.324,-0.475 0.332,-0.462 0.338,-0.447C0.344,-0.431 0.347,-0.412 0.347,-0.389L0.347,-0L0.245,-0L0.245,-0.351C0.245,-0.37 0.241,-0.384 0.232,-0.395C0.223,-0.406 0.211,-0.411 0.195,-0.411C0.176,-0.411 0.162,-0.405 0.155,-0.393C0.148,-0.381 0.144,-0.364 0.144,-0.341L0.144,-0L0.042,-0Z" style="fill:rgb(5,5,5);fill-rule:nonzero;"/>
                </g>
                <g transform="matrix(10,0,0,10,100.128,118.306)">
                    <path d="M0.15,-0.146C0.15,-0.13 0.155,-0.118 0.164,-0.109C0.172,-0.1 0.185,-0.096 0.2,-0.096C0.219,-0.096 0.232,-0.102 0.239,-0.113C0.245,-0.124 0.249,-0.136 0.25,-0.147L0.352,-0.147C0.352,-0.102 0.338,-0.066 0.311,-0.039C0.298,-0.025 0.282,-0.014 0.263,-0.006C0.244,0.002 0.223,0.006 0.2,0.006C0.168,0.006 0.141,-0.001 0.119,-0.014C0.096,-0.027 0.079,-0.045 0.067,-0.067C0.06,-0.08 0.055,-0.096 0.052,-0.113C0.049,-0.13 0.048,-0.149 0.048,-0.17L0.048,-0.337C0.048,-0.358 0.049,-0.377 0.052,-0.394C0.055,-0.411 0.06,-0.427 0.067,-0.44C0.079,-0.462 0.096,-0.48 0.119,-0.493C0.141,-0.506 0.168,-0.513 0.2,-0.513C0.223,-0.513 0.245,-0.509 0.264,-0.501C0.282,-0.493 0.299,-0.482 0.312,-0.468C0.339,-0.438 0.352,-0.399 0.352,-0.351L0.25,-0.351C0.25,-0.372 0.246,-0.387 0.237,-0.397C0.228,-0.406 0.215,-0.411 0.2,-0.411C0.185,-0.411 0.172,-0.406 0.164,-0.397C0.155,-0.387 0.15,-0.372 0.15,-0.353L0.15,-0.146Z" style="fill:rgb(5,5,5);fill-rule:nonzero;"/>
                </g>
            </g>
        </g>
    </g>
    <g transform="matrix(1,0,0,1,36.5815,-7.49201)">
        <g id="Detune" transform="matrix(1,0,0,1,64.7171,211.555)">
            <g transform="matrix(0.473027,0,0,0.473027,-50.5107,59.7815)">
                <path d="M58.29,126.117L58.257,126.041L54.033,135.779L52.297,135.779L58.257,122.041L64.217,135.779L64.183,135.779L64.217,135.856L68.441,126.117L70.176,126.117L64.217,139.856L58.257,126.117L58.29,126.117Z"/>
            </g>
            <g transform="matrix(-1.65551e-16,-1,4.08536,3.61179e-16,-1259.39,116.696)">
                <rect x="24.278" y="298.345" width="2.069" height="51.737"/>
            </g>
            <g id="Modulate-input-P" serif:id="Modulate#input$P" transform="matrix(0.175002,0,0,0.175002,-64.1568,57.9751)">
                <rect x="53.94" y="106.916" width="161.978" height="161.978" style="fill:rgb(217,217,217);"/>
            </g>
            <g transform="matrix(1,0,0,1,-137.417,-58.5533)">
                <g transform="matrix(10,0,0,10,86.2729,118.306)">
                    <path d="M0.144,-0.165C0.144,-0.144 0.148,-0.128 0.156,-0.115C0.164,-0.102 0.177,-0.096 0.194,-0.096C0.209,-0.096 0.222,-0.102 0.231,-0.114C0.24,-0.125 0.245,-0.14 0.245,-0.159L0.245,-0.356C0.245,-0.372 0.24,-0.385 0.231,-0.396C0.221,-0.406 0.209,-0.411 0.194,-0.411C0.175,-0.411 0.162,-0.405 0.155,-0.393C0.148,-0.381 0.144,-0.367 0.144,-0.351L0.144,-0.165ZM0.245,-0L0.245,-0.046C0.238,-0.039 0.232,-0.032 0.226,-0.026C0.22,-0.019 0.213,-0.014 0.206,-0.009C0.199,-0.004 0.19,-0.001 0.181,0.002C0.172,0.005 0.161,0.006 0.148,0.006C0.105,0.006 0.076,-0.01 0.059,-0.042C0.053,-0.053 0.049,-0.067 0.046,-0.084C0.043,-0.101 0.042,-0.123 0.042,-0.151L0.042,-0.344C0.042,-0.381 0.043,-0.408 0.045,-0.425C0.049,-0.458 0.065,-0.483 0.092,-0.5C0.105,-0.509 0.124,-0.513 0.149,-0.513C0.169,-0.513 0.187,-0.509 0.203,-0.5C0.218,-0.491 0.232,-0.478 0.243,-0.461L0.245,-0.461L0.245,-0.712L0.347,-0.712L0.347,-0L0.245,-0Z" style="fill:rgb(5,5,5);fill-rule:nonzero;"/>
                </g>
                <g transform="matrix(10,0,0,10,90.1629,118.306)">
                    <path d="M0.337,-0.215L0.135,-0.215L0.135,-0.146C0.135,-0.13 0.139,-0.118 0.149,-0.109C0.158,-0.1 0.17,-0.096 0.185,-0.096C0.204,-0.096 0.217,-0.102 0.224,-0.113C0.23,-0.124 0.234,-0.136 0.235,-0.147L0.337,-0.147C0.337,-0.102 0.323,-0.066 0.296,-0.039C0.283,-0.025 0.267,-0.014 0.248,-0.006C0.229,0.002 0.208,0.006 0.185,0.006C0.153,0.006 0.126,-0.001 0.104,-0.014C0.081,-0.027 0.064,-0.045 0.052,-0.067C0.045,-0.08 0.04,-0.096 0.037,-0.113C0.034,-0.13 0.033,-0.149 0.033,-0.17L0.033,-0.337C0.033,-0.358 0.034,-0.377 0.037,-0.394C0.04,-0.411 0.045,-0.427 0.052,-0.44C0.064,-0.462 0.081,-0.48 0.104,-0.493C0.126,-0.506 0.153,-0.513 0.185,-0.513C0.208,-0.513 0.23,-0.509 0.249,-0.501C0.268,-0.493 0.284,-0.482 0.297,-0.468C0.324,-0.438 0.337,-0.4 0.337,-0.355L0.337,-0.215ZM0.135,-0.295L0.235,-0.295L0.235,-0.353C0.235,-0.372 0.231,-0.387 0.222,-0.397C0.213,-0.406 0.2,-0.411 0.185,-0.411C0.17,-0.411 0.158,-0.406 0.149,-0.397C0.139,-0.387 0.135,-0.372 0.135,-0.353L0.135,-0.295Z" style="fill:rgb(5,5,5);fill-rule:nonzero;"/>
                </g>
                <g transform="matrix(10,0,0,10,93.8629,118.306)">
                    <path d="M0.042,-0.507L0.042,-0.661L0.144,-0.661L0.144,-0.507L0.207,-0.507L0.207,-0.427L0.144,-0.427L0.144,-0.146C0.144,-0.134 0.145,-0.125 0.148,-0.118C0.15,-0.111 0.154,-0.106 0.159,-0.103C0.164,-0.1 0.171,-0.098 0.179,-0.097C0.186,-0.096 0.196,-0.096 0.207,-0.096L0.207,-0L0.165,-0C0.142,-0 0.122,-0.004 0.107,-0.011C0.091,-0.018 0.078,-0.028 0.069,-0.039C0.06,-0.05 0.053,-0.063 0.049,-0.078C0.044,-0.092 0.042,-0.106 0.042,-0.119L0.042,-0.427L-0.009,-0.427L-0.009,-0.507L0.042,-0.507Z" style="fill:rgb(5,5,5);fill-rule:nonzero;"/>
                </g>
                <g transform="matrix(10,0,0,10,95.9029,118.306)">
                    <path d="M0.347,-0.507L0.347,-0L0.245,-0L0.245,-0.049L0.243,-0.049C0.232,-0.033 0.22,-0.02 0.205,-0.01C0.19,0.001 0.17,0.006 0.147,0.006C0.134,0.006 0.122,0.004 0.109,-0.001C0.096,-0.005 0.085,-0.012 0.075,-0.022C0.065,-0.032 0.057,-0.045 0.051,-0.061C0.045,-0.076 0.042,-0.095 0.042,-0.118L0.042,-0.507L0.144,-0.507L0.144,-0.156C0.144,-0.137 0.148,-0.123 0.157,-0.112C0.166,-0.101 0.178,-0.096 0.194,-0.096C0.213,-0.096 0.227,-0.102 0.234,-0.114C0.241,-0.126 0.245,-0.143 0.245,-0.166L0.245,-0.507L0.347,-0.507Z" style="fill:rgb(5,5,5);fill-rule:nonzero;"/>
                </g>
                <g transform="matrix(10,0,0,10,99.7929,118.306)">
                    <path d="M0.042,-0L0.042,-0.507L0.144,-0.507L0.144,-0.458L0.146,-0.458C0.157,-0.474 0.169,-0.487 0.185,-0.498C0.2,-0.508 0.219,-0.513 0.242,-0.513C0.255,-0.513 0.267,-0.511 0.28,-0.507C0.293,-0.502 0.304,-0.495 0.314,-0.485C0.324,-0.475 0.332,-0.462 0.338,-0.447C0.344,-0.431 0.347,-0.412 0.347,-0.389L0.347,-0L0.245,-0L0.245,-0.351C0.245,-0.37 0.241,-0.384 0.232,-0.395C0.223,-0.406 0.211,-0.411 0.195,-0.411C0.176,-0.411 0.162,-0.405 0.155,-0.393C0.148,-0.381 0.144,-0.364 0.144,-0.341L0.144,-0L0.042,-0Z" style="fill:rgb(5,5,5);fill-rule:nonzero;"/>
                </g>
                <g transform="matrix(10,0,0,10,103.683,118.306)">
                    <path d="M0.337,-0.215L0.135,-0.215L0.135,-0.146C0.135,-0.13 0.139,-0.118 0.149,-0.109C0.158,-0.1 0.17,-0.096 0.185,-0.096C0.204,-0.096 0.217,-0.102 0.224,-0.113C0.23,-0.124 0.234,-0.136 0.235,-0.147L0.337,-0.147C0.337,-0.102 0.323,-0.066 0.296,-0.039C0.283,-0.025 0.267,-0.014 0.248,-0.006C0.229,0.002 0.208,0.006 0.185,0.006C0.153,0.006 0.126,-0.001 0.104,-0.014C0.081,-0.027 0.064,-0.045 0.052,-0.067C0.045,-0.08 0.04,-0.096 0.037,-0.113C0.034,-0.13 0.033,-0.149 0.033,-0.17L0.033,-0.337C0.033,-0.358 0.034,-0.377 0.037,-0.394C0.04,-0.411 0.045,-0.427 0.052,-0.44C0.064,-0.462 0.081,-0.48 0.104,-0.493C0.126,-0.506 0.153,-0.513 0.185,-0.513C0.208,-0.513 0.23,-0.509 0.249,-0.501C0.268,-0.493 0.284,-0.482 0.297,-0.468C0.324,-0.438 0.337,-0.4 0.337,-0.355L0.337,-0.215ZM0.135,-0.295L0.235,-0.295L0.235,-0.353C0.235,-0.372 0.231,-0.387 0.222,-0.397C0.213,-0.406 0.2,-0.411 0.185,-0.411C0.17,-0.411 0.158,-0.406 0.149,-0.397C0.139,-0.387 0.135,-0.372 0.135,-0.353L0.135,-0.295Z" style="fill:rgb(5,5,5);fill-rule:nonzero;"/>
                </g>
            </g>
        </g>
        <g id="Phase" transform="matrix(1,0,0,1,64.7171,111.037)">
            <g transform="matrix(0.473027,0,0,0.473027,-50.5107,59.2329)">
                <path d="M58.29,126.117L58.257,126.041L54.033,135.779L52.297,135.779L58.257,122.041L64.217,135.779L64.183,135.779L64.217,135.856L68.441,126.117L70.176,126.117L64.217,139.856L58.257,126.117L58.29,126.117Z"/>
            </g>
            <g transform="matrix(-1.65551e-16,-1,4.08536,3.61179e-16,-1259.39,116.172)">
                <rect x="24.278" y="298.345" width="2.069" height="51.737"/>
            </g>
            <g id="Modulate-input-P1" serif:id="Modulate#input$P" transform="matrix(0.175002,0,0,0.175002,-64.1568,57.9751)">
                <rect x="53.94" y="106.916" width="161.978" height="161.978" style="fill:rgb(217,217,217);"/>
            </g>
            <g transform="matrix(1,0,0,1,-137.417,-58.5533)">
                <g transform="matrix(10,0,0,10,87.4779,118.306)">
                    <path d="M0.042,0.205L0.042,-0.507L0.144,-0.507L0.144,-0.461C0.157,-0.476 0.17,-0.488 0.183,-0.498C0.196,-0.508 0.216,-0.513 0.241,-0.513C0.283,-0.513 0.313,-0.497 0.33,-0.465C0.336,-0.454 0.34,-0.44 0.343,-0.423C0.346,-0.406 0.347,-0.384 0.347,-0.356L0.347,-0.163C0.347,-0.126 0.346,-0.099 0.344,-0.082C0.34,-0.049 0.325,-0.024 0.298,-0.007C0.285,0.002 0.265,0.006 0.24,0.006C0.22,0.006 0.202,0.002 0.187,-0.008C0.171,-0.017 0.157,-0.029 0.146,-0.046L0.144,-0.046L0.144,0.205L0.042,0.205ZM0.245,-0.342C0.245,-0.363 0.241,-0.379 0.233,-0.392C0.225,-0.405 0.212,-0.411 0.195,-0.411C0.18,-0.411 0.167,-0.405 0.158,-0.394C0.149,-0.382 0.144,-0.367 0.144,-0.348L0.144,-0.151C0.144,-0.135 0.149,-0.122 0.159,-0.112C0.168,-0.101 0.18,-0.096 0.195,-0.096C0.214,-0.096 0.228,-0.102 0.235,-0.114C0.242,-0.126 0.245,-0.14 0.245,-0.156L0.245,-0.342Z" style="fill:rgb(5,5,5);fill-rule:nonzero;"/>
                </g>
                <g transform="matrix(10,0,0,10,91.3679,118.306)">
                    <path d="M0.042,-0L0.042,-0.712L0.144,-0.712L0.144,-0.458L0.146,-0.458C0.157,-0.474 0.169,-0.487 0.185,-0.498C0.2,-0.508 0.219,-0.513 0.242,-0.513C0.255,-0.513 0.267,-0.511 0.28,-0.507C0.293,-0.502 0.304,-0.495 0.314,-0.485C0.324,-0.475 0.332,-0.462 0.338,-0.447C0.344,-0.431 0.347,-0.412 0.347,-0.389L0.347,-0L0.245,-0L0.245,-0.351C0.245,-0.37 0.241,-0.384 0.232,-0.395C0.223,-0.406 0.211,-0.411 0.195,-0.411C0.176,-0.411 0.162,-0.405 0.155,-0.393C0.148,-0.381 0.144,-0.364 0.144,-0.341L0.144,-0L0.042,-0Z" style="fill:rgb(5,5,5);fill-rule:nonzero;"/>
                </g>
                <g transform="matrix(10,0,0,10,95.2579,118.306)">
                    <path d="M0.235,-0L0.235,-0.052L0.233,-0.052C0.22,-0.033 0.206,-0.019 0.193,-0.009C0.179,0.001 0.16,0.006 0.135,0.006C0.123,0.006 0.111,0.004 0.099,0.001C0.086,-0.003 0.074,-0.01 0.063,-0.02C0.052,-0.029 0.043,-0.043 0.036,-0.061C0.029,-0.078 0.025,-0.101 0.025,-0.129C0.025,-0.158 0.027,-0.183 0.032,-0.205C0.037,-0.226 0.045,-0.244 0.058,-0.259C0.07,-0.273 0.086,-0.284 0.107,-0.291C0.128,-0.298 0.154,-0.301 0.186,-0.301L0.197,-0.301C0.201,-0.301 0.205,-0.301 0.208,-0.3C0.211,-0.299 0.215,-0.299 0.22,-0.299C0.225,-0.299 0.23,-0.299 0.235,-0.298L0.235,-0.351C0.235,-0.368 0.231,-0.383 0.224,-0.394C0.217,-0.405 0.203,-0.411 0.184,-0.411C0.171,-0.411 0.159,-0.407 0.148,-0.398C0.136,-0.389 0.129,-0.377 0.126,-0.36L0.027,-0.36C0.03,-0.405 0.045,-0.442 0.073,-0.47C0.086,-0.483 0.102,-0.494 0.121,-0.502C0.14,-0.509 0.161,-0.513 0.184,-0.513C0.205,-0.513 0.225,-0.51 0.244,-0.503C0.263,-0.496 0.279,-0.486 0.293,-0.473C0.306,-0.46 0.317,-0.443 0.325,-0.423C0.333,-0.403 0.337,-0.38 0.337,-0.353L0.337,-0L0.235,-0ZM0.235,-0.218C0.224,-0.22 0.214,-0.221 0.207,-0.221C0.185,-0.221 0.166,-0.216 0.151,-0.206C0.135,-0.195 0.127,-0.176 0.127,-0.149C0.127,-0.13 0.132,-0.114 0.141,-0.102C0.15,-0.09 0.163,-0.084 0.18,-0.084C0.197,-0.084 0.211,-0.09 0.221,-0.101C0.23,-0.112 0.235,-0.128 0.235,-0.149L0.235,-0.218Z" style="fill:rgb(5,5,5);fill-rule:nonzero;"/>
                </g>
                <g transform="matrix(10,0,0,10,98.9579,118.306)">
                    <path d="M0.227,-0.365C0.226,-0.382 0.221,-0.395 0.211,-0.404C0.2,-0.413 0.188,-0.417 0.175,-0.417C0.159,-0.417 0.147,-0.412 0.138,-0.402C0.129,-0.391 0.125,-0.379 0.125,-0.366C0.125,-0.357 0.127,-0.347 0.132,-0.339C0.137,-0.33 0.149,-0.321 0.168,-0.314L0.228,-0.29C0.266,-0.275 0.292,-0.255 0.307,-0.23C0.321,-0.205 0.328,-0.177 0.328,-0.147C0.328,-0.126 0.324,-0.106 0.317,-0.088C0.309,-0.069 0.298,-0.053 0.285,-0.039C0.272,-0.025 0.256,-0.014 0.237,-0.006C0.218,0.002 0.198,0.006 0.176,0.006C0.135,0.006 0.1,-0.007 0.072,-0.033C0.058,-0.046 0.047,-0.062 0.038,-0.081C0.029,-0.099 0.025,-0.122 0.024,-0.147L0.12,-0.147C0.122,-0.133 0.127,-0.12 0.135,-0.108C0.142,-0.096 0.156,-0.09 0.175,-0.09C0.19,-0.09 0.203,-0.095 0.215,-0.105C0.226,-0.114 0.232,-0.128 0.232,-0.145C0.232,-0.159 0.228,-0.171 0.221,-0.181C0.214,-0.191 0.2,-0.2 0.181,-0.207L0.132,-0.225C0.1,-0.237 0.075,-0.255 0.057,-0.279C0.038,-0.302 0.029,-0.331 0.029,-0.365C0.029,-0.386 0.033,-0.406 0.041,-0.425C0.049,-0.443 0.06,-0.459 0.074,-0.472C0.087,-0.485 0.103,-0.496 0.121,-0.503C0.139,-0.51 0.158,-0.513 0.179,-0.513C0.2,-0.513 0.219,-0.509 0.237,-0.502C0.254,-0.495 0.269,-0.484 0.282,-0.471C0.295,-0.458 0.305,-0.442 0.312,-0.424C0.319,-0.405 0.323,-0.386 0.323,-0.365L0.227,-0.365Z" style="fill:rgb(5,5,5);fill-rule:nonzero;"/>
                </g>
                <g transform="matrix(10,0,0,10,102.478,118.306)">
                    <path d="M0.337,-0.215L0.135,-0.215L0.135,-0.146C0.135,-0.13 0.139,-0.118 0.149,-0.109C0.158,-0.1 0.17,-0.096 0.185,-0.096C0.204,-0.096 0.217,-0.102 0.224,-0.113C0.23,-0.124 0.234,-0.136 0.235,-0.147L0.337,-0.147C0.337,-0.102 0.323,-0.066 0.296,-0.039C0.283,-0.025 0.267,-0.014 0.248,-0.006C0.229,0.002 0.208,0.006 0.185,0.006C0.153,0.006 0.126,-0.001 0.104,-0.014C0.081,-0.027 0.064,-0.045 0.052,-0.067C0.045,-0.08 0.04,-0.096 0.037,-0.113C0.034,-0.13 0.033,-0.149 0.033,-0.17L0.033,-0.337C0.033,-0.358 0.034,-0.377 0.037,-0.394C0.04,-0.411 0.045,-0.427 0.052,-0.44C0.064,-0.462 0.081,-0.48 0.104,-0.493C0.126,-0.506 0.153,-0.513 0.185,-0.513C0.208,-0.513 0.23,-0.509 0.249,-0.501C0.268,-0.493 0.284,-0.482 0.297,-0.468C0.324,-0.438 0.337,-0.4 0.337,-0.355L0.337,-0.215ZM0.135,-0.295L0.235,-0.295L0.235,-0.353C0.235,-0.372 0.231,-0.387 0.222,-0.397C0.213,-0.406 0.2,-0.411 0.185,-0.411C0.17,-0.411 0.158,-0.406 0.149,-0.397C0.139,-0.387 0.135,-0.372 0.135,-0.353L0.135,-0.295Z" style="fill:rgb(5,5,5);fill-rule:nonzero;"/>
                </g>
            </g>
        </g>
        <g id="Pan" transform="matrix(1,0,0,1,64.7171,10.4938)">
            <g transform="matrix(0.473027,0,0,0.473027,-50.5107,59.206)">
                <path d="M58.29,126.117L58.257,126.041L54.033,135.779L52.297,135.779L58.257,122.041L64.217,135.779L64.183,135.779L64.217,135.856L68.441,126.117L70.176,126.117L64.217,139.856L58.257,126.117L58.29,126.117Z"/>
            </g>
            <g transform="matrix(-1.65551e-16,-1,4.08536,3.61179e-16,-1259.39,116.648)">
                <rect x="24.278" y="298.345" width="2.069" height="51.737"/>
            </g>
            <g id="Modulate-input-P2" serif:id="Modulate#input$P" transform="matrix(0.175002,0,0,0.175002,-64.1568,57.9751)">
                <rect x="53.94" y="106.916" width="161.978" height="161.978" style="fill:rgb(217,217,217);"/>
            </g>
            <g transform="matrix(1,0,0,1,-137.417,-58.5533)">
                <g transform="matrix(10,0,0,10,91.0879,118.306)">
                    <path d="M0.042,0.205L0.042,-0.507L0.144,-0.507L0.144,-0.461C0.157,-0.476 0.17,-0.488 0.183,-0.498C0.196,-0.508 0.216,-0.513 0.241,-0.513C0.283,-0.513 0.313,-0.497 0.33,-0.465C0.336,-0.454 0.34,-0.44 0.343,-0.423C0.346,-0.406 0.347,-0.384 0.347,-0.356L0.347,-0.163C0.347,-0.126 0.346,-0.099 0.344,-0.082C0.34,-0.049 0.325,-0.024 0.298,-0.007C0.285,0.002 0.265,0.006 0.24,0.006C0.22,0.006 0.202,0.002 0.187,-0.008C0.171,-0.017 0.157,-0.029 0.146,-0.046L0.144,-0.046L0.144,0.205L0.042,0.205ZM0.245,-0.342C0.245,-0.363 0.241,-0.379 0.233,-0.392C0.225,-0.405 0.212,-0.411 0.195,-0.411C0.18,-0.411 0.167,-0.405 0.158,-0.394C0.149,-0.382 0.144,-0.367 0.144,-0.348L0.144,-0.151C0.144,-0.135 0.149,-0.122 0.159,-0.112C0.168,-0.101 0.18,-0.096 0.195,-0.096C0.214,-0.096 0.228,-0.102 0.235,-0.114C0.242,-0.126 0.245,-0.14 0.245,-0.156L0.245,-0.342Z" style="fill:rgb(5,5,5);fill-rule:nonzero;"/>
                </g>
                <g transform="matrix(10,0,0,10,94.9779,118.306)">
                    <path d="M0.235,-0L0.235,-0.052L0.233,-0.052C0.22,-0.033 0.206,-0.019 0.193,-0.009C0.179,0.001 0.16,0.006 0.135,0.006C0.123,0.006 0.111,0.004 0.099,0.001C0.086,-0.003 0.074,-0.01 0.063,-0.02C0.052,-0.029 0.043,-0.043 0.036,-0.061C0.029,-0.078 0.025,-0.101 0.025,-0.129C0.025,-0.158 0.027,-0.183 0.032,-0.205C0.037,-0.226 0.045,-0.244 0.058,-0.259C0.07,-0.273 0.086,-0.284 0.107,-0.291C0.128,-0.298 0.154,-0.301 0.186,-0.301L0.197,-0.301C0.201,-0.301 0.205,-0.301 0.208,-0.3C0.211,-0.299 0.215,-0.299 0.22,-0.299C0.225,-0.299 0.23,-0.299 0.235,-0.298L0.235,-0.351C0.235,-0.368 0.231,-0.383 0.224,-0.394C0.217,-0.405 0.203,-0.411 0.184,-0.411C0.171,-0.411 0.159,-0.407 0.148,-0.398C0.136,-0.389 0.129,-0.377 0.126,-0.36L0.027,-0.36C0.03,-0.405 0.045,-0.442 0.073,-0.47C0.086,-0.483 0.102,-0.494 0.121,-0.502C0.14,-0.509 0.161,-0.513 0.184,-0.513C0.205,-0.513 0.225,-0.51 0.244,-0.503C0.263,-0.496 0.279,-0.486 0.293,-0.473C0.306,-0.46 0.317,-0.443 0.325,-0.423C0.333,-0.403 0.337,-0.38 0.337,-0.353L0.337,-0L0.235,-0ZM0.235,-0.218C0.224,-0.22 0.214,-0.221 0.207,-0.221C0.185,-0.221 0.166,-0.216 0.151,-0.206C0.135,-0.195 0.127,-0.176 0.127,-0.149C0.127,-0.13 0.132,-0.114 0.141,-0.102C0.15,-0.09 0.163,-0.084 0.18,-0.084C0.197,-0.084 0.211,-0.09 0.221,-0.101C0.23,-0.112 0.235,-0.128 0.235,-0.149L0.235,-0.218Z" style="fill:rgb(5,5,5);fill-rule:nonzero;"/>
                </g>
                <g transform="matrix(10,0,0,10,98.6779,118.306)">
                    <path d="M0.042,-0L0.042,-0.507L0.144,-0.507L0.144,-0.458L0.146,-0.458C0.157,-0.474 0.169,-0.487 0.185,-0.498C0.2,-0.508 0.219,-0.513 0.242,-0.513C0.255,-0.513 0.267,-0.511 0.28,-0.507C0.293,-0.502 0.304,-0.495 0.314,-0.485C0.324,-0.475 0.332,-0.462 0.338,-0.447C0.344,-0.431 0.347,-0.412 0.347,-0.389L0.347,-0L0.245,-0L0.245,-0.351C0.245,-0.37 0.241,-0.384 0.232,-0.395C0.223,-0.406 0.211,-0.411 0.195,-0.411C0.176,-0.411 0.162,-0.405 0.155,-0.393C0.148,-0.381 0.144,-0.364 0.144,-0.341L0.144,-0L0.042,-0Z" style="fill:rgb(5,5,5);fill-rule:nonzero;"/>
                </g>
            </g>
        </g>
    </g>
    <g id="Six" transform="matrix(1,0,0,1,222.555,-6.19065)">
        <g id="Detune1" serif:id="Detune" transform="matrix(1,0,0,1,64.7171,211.555)">
            <g id="LFO-knob" serif:id="LFO#knob" transform="matrix(0.381474,0,0,0.381474,-35.8957,2.34409)">
                <circle cx="55.661" cy="308.513" r="7.929"/>
            </g>
            <g id="Attenuate-knob-2" serif:id="Attenuate#knob$2" transform="matrix(0.381474,0,0,0.381474,-35.8957,-27.6559)">
                <circle cx="55.661" cy="308.513" r="7.929"/>
            </g>
            <g id="Value-knob-3" serif:id="Value#knob$3" transform="matrix(0.758898,0,0,0.758898,-56.9034,-178.467)">
                <circle cx="55.661" cy="308.513" r="7.929"/>
            </g>
        </g>
        <g id="Phase1" serif:id="Phase" transform="matrix(1,0,0,1,64.7171,111.037)">
            <g id="LFO-knob1" serif:id="LFO#knob" transform="matrix(0.381474,0,0,0.381474,-35.8957,2.34409)">
                <circle cx="55.661" cy="308.513" r="7.929"/>
            </g>
            <g id="Attenuate-knob-21" serif:id="Attenuate#knob$2" transform="matrix(0.381474,0,0,0.381474,-35.8957,-27.6559)">
                <circle cx="55.661" cy="308.513" r="7.929"/>
            </g>
            <g id="Value-knob-31" serif:id="Value#knob$3" transform="matrix(0.758898,0,0,0.758898,-56.9034,-178.467)">
                <circle cx="55.661" cy="308.513" r="7.929"/>
            </g>
        </g>
        <g id="Pan1" serif:id="Pan" transform="matrix(1,0,0,1,64.7171,10.4938)">
            <g id="LFO-knob2" serif:id="LFO#knob" transform="matrix(0.381474,0,0,0.381474,-35.8957,2.34409)">
                <circle cx="55.661" cy="308.513" r="7.929"/>
            </g>
            <g id="Attenuate-knob-22" serif:id="Attenuate#knob$2" transform="matrix(0.381474,0,0,0.381474,-35.8957,-27.6559)">
                <circle cx="55.661" cy="308.513" r="7.929"/>
            </g>
            <g id="Value-knob-32" serif:id="Value#knob$3" transform="matrix(0.758898,0,0,0.758898,-56.9034,-178.467)">
                <circle cx="55.661" cy="308.513" r="7.929"/>
            </g>
        </g>
        <g transform="matrix(1,0,0,1,-45.1312,-70.9613)">
            <g transform="matrix(14,0,0,14,88.6549,118.306)">
                <path d="M0.378,-0.507L0.276,-0.507L0.276,-0.53C0.276,-0.553 0.271,-0.574 0.26,-0.591C0.249,-0.608 0.23,-0.616 0.204,-0.616C0.19,-0.616 0.179,-0.613 0.17,-0.608C0.161,-0.603 0.154,-0.596 0.149,-0.588C0.144,-0.579 0.14,-0.57 0.138,-0.559C0.136,-0.548 0.135,-0.536 0.135,-0.524C0.135,-0.51 0.136,-0.498 0.137,-0.489C0.138,-0.48 0.14,-0.471 0.144,-0.464C0.148,-0.457 0.154,-0.45 0.162,-0.445C0.169,-0.44 0.18,-0.434 0.193,-0.429L0.271,-0.398C0.294,-0.389 0.312,-0.379 0.326,-0.368C0.34,-0.356 0.351,-0.342 0.359,-0.327C0.366,-0.311 0.371,-0.293 0.374,-0.273C0.377,-0.252 0.378,-0.229 0.378,-0.203C0.378,-0.173 0.375,-0.145 0.369,-0.12C0.363,-0.094 0.353,-0.072 0.34,-0.054C0.326,-0.035 0.308,-0.021 0.285,-0.01C0.262,0.001 0.235,0.006 0.202,0.006C0.177,0.006 0.154,0.002 0.133,-0.007C0.112,-0.016 0.093,-0.028 0.078,-0.043C0.063,-0.058 0.05,-0.076 0.042,-0.097C0.033,-0.117 0.028,-0.139 0.028,-0.163L0.028,-0.201L0.13,-0.201L0.13,-0.169C0.13,-0.15 0.135,-0.134 0.147,-0.119C0.158,-0.103 0.176,-0.096 0.202,-0.096C0.219,-0.096 0.233,-0.098 0.243,-0.104C0.252,-0.109 0.26,-0.116 0.265,-0.125C0.27,-0.134 0.274,-0.146 0.275,-0.159C0.276,-0.171 0.276,-0.186 0.276,-0.202C0.276,-0.221 0.275,-0.236 0.274,-0.248C0.273,-0.26 0.27,-0.27 0.266,-0.277C0.261,-0.284 0.255,-0.29 0.248,-0.295C0.24,-0.3 0.23,-0.305 0.217,-0.31L0.144,-0.34C0.1,-0.358 0.07,-0.382 0.056,-0.412C0.041,-0.441 0.033,-0.478 0.033,-0.523C0.033,-0.55 0.037,-0.575 0.044,-0.599C0.051,-0.623 0.062,-0.644 0.077,-0.661C0.091,-0.678 0.109,-0.692 0.131,-0.703C0.152,-0.713 0.178,-0.718 0.208,-0.718C0.233,-0.718 0.257,-0.713 0.278,-0.704C0.299,-0.695 0.317,-0.682 0.332,-0.667C0.363,-0.635 0.378,-0.598 0.378,-0.557L0.378,-0.507Z" style="fill:rgb(5,5,5);fill-rule:nonzero;"/>
            </g>
            <g transform="matrix(14,0,0,14,94.3389,118.306)">
                <path d="M0.042,-0L0.042,-0.507L0.144,-0.507L0.144,-0L0.042,-0ZM0.042,-0.61L0.042,-0.712L0.144,-0.712L0.144,-0.61L0.042,-0.61Z" style="fill:rgb(5,5,5);fill-rule:nonzero;"/>
            </g>
            <g transform="matrix(14,0,0,14,96.9429,118.306)">
                <path d="M-0.011,-0L0.114,-0.259L-0.005,-0.507L0.103,-0.507L0.166,-0.363L0.229,-0.507L0.337,-0.507L0.216,-0.259L0.343,-0L0.235,-0L0.166,-0.155L0.097,-0L-0.011,-0Z" style="fill:rgb(5,5,5);fill-rule:nonzero;"/>
            </g>
        </g>
    </g>
    <g id="Five" transform="matrix(1,0,0,1,187.256,-6.19065)">
        <g id="Detune2" serif:id="Detune" transform="matrix(1,0,0,1,64.7171,211.555)">
            <g id="LFO-knob3" serif:id="LFO#knob" transform="matrix(0.381474,0,0,0.381474,-35.8957,2.34409)">
                <circle cx="55.661" cy="308.513" r="7.929"/>
            </g>
            <g id="Attenuate-knob-23" serif:id="Attenuate#knob$2" transform="matrix(0.381474,0,0,0.381474,-35.8957,-27.6559)">
                <circle cx="55.661" cy="308.513" r="7.929"/>
            </g>
            <g id="Value-knob-33" serif:id="Value#knob$3" transform="matrix(0.758898,0,0,0.758898,-56.9034,-178.467)">
                <circle cx="55.661" cy="308.513" r="7.929"/>
            </g>
        </g>
        <g id="Phase2" serif:id="Phase" transform="matrix(1,0,0,1,64.7171,111.037)">
            <g id="LFO-knob4" serif:id="LFO#knob" transform="matrix(0.381474,0,0,0.381474,-35.8957,2.34409)">
                <circle cx="55.661" cy="308.513" r="7.929"/>
            </g>
            <g id="Attenuate-knob-24" serif:id="Attenuate#knob$2" transform="matrix(0.381474,0,0,0.381474,-35.8957,-27.6559)">
                <circle cx="55.661" cy="308.513" r="7.929"/>
            </g>
            <g id="Value-knob-34" serif:id="Value#knob$3" transform="matrix(0.758898,0,0,0.758898,-56.9034,-178.467)">
                <circle cx="55.661" cy="308.513" r="7.929"/>
            </g>
        </g>
        <g id="Pan2" serif:id="Pan" transform="matrix(1,0,0,1,64.7171,10.4938)">
            <g id="LFO-knob5" serif:id="LFO#knob" transform="matrix(0.381474,0,0,0.381474,-35.8957,2.34409)">
                <circle cx="55.661" cy="308.513" r="7.929"/>
            </g>
            <g id="Attenuate-knob-25" serif:id="Attenuate#knob$2" transform="matrix(0.381474,0,0,0.381474,-35.8957,-27.6559)">
                <circle cx="55.661" cy="308.513" r="7.929"/>
            </g>
            <g id="Value-knob-35" serif:id="Value#knob$3" transform="matrix(0.758898,0,0,0.758898,-56.9034,-178.467)">
                <circle cx="55.661" cy="308.513" r="7.929"/>
            </g>
        </g>
        <g transform="matrix(1,0,0,1,-45.1312,-70.9613)">
            <g transform="matrix(14,0,0,14,86.3029,118.306)">
                <path d="M0.048,-0L0.048,-0.712L0.352,-0.712L0.352,-0.616L0.15,-0.616L0.15,-0.4L0.326,-0.4L0.326,-0.304L0.15,-0.304L0.15,-0L0.048,-0Z" style="fill:rgb(5,5,5);fill-rule:nonzero;"/>
            </g>
            <g transform="matrix(14,0,0,14,91.3149,118.306)">
                <path d="M0.042,-0L0.042,-0.507L0.144,-0.507L0.144,-0L0.042,-0ZM0.042,-0.61L0.042,-0.712L0.144,-0.712L0.144,-0.61L0.042,-0.61Z" style="fill:rgb(5,5,5);fill-rule:nonzero;"/>
            </g>
            <g transform="matrix(14,0,0,14,93.9189,118.306)">
                <path d="M0.353,-0.507L0.221,-0L0.131,-0L-0.001,-0.507L0.107,-0.507L0.175,-0.183L0.177,-0.183L0.245,-0.507L0.353,-0.507Z" style="fill:rgb(5,5,5);fill-rule:nonzero;"/>
            </g>
            <g transform="matrix(14,0,0,14,98.7629,118.306)">
                <path d="M0.337,-0.215L0.135,-0.215L0.135,-0.146C0.135,-0.13 0.139,-0.118 0.149,-0.109C0.158,-0.1 0.17,-0.096 0.185,-0.096C0.204,-0.096 0.217,-0.102 0.224,-0.113C0.23,-0.124 0.234,-0.136 0.235,-0.147L0.337,-0.147C0.337,-0.102 0.323,-0.066 0.296,-0.039C0.283,-0.025 0.267,-0.014 0.248,-0.006C0.229,0.002 0.208,0.006 0.185,0.006C0.153,0.006 0.126,-0.001 0.104,-0.014C0.081,-0.027 0.064,-0.045 0.052,-0.067C0.045,-0.08 0.04,-0.096 0.037,-0.113C0.034,-0.13 0.033,-0.149 0.033,-0.17L0.033,-0.337C0.033,-0.358 0.034,-0.377 0.037,-0.394C0.04,-0.411 0.045,-0.427 0.052,-0.44C0.064,-0.462 0.081,-0.48 0.104,-0.493C0.126,-0.506 0.153,-0.513 0.185,-0.513C0.208,-0.513 0.23,-0.509 0.249,-0.501C0.268,-0.493 0.284,-0.482 0.297,-0.468C0.324,-0.438 0.337,-0.4 0.337,-0.355L0.337,-0.215ZM0.135,-0.295L0.235,-0.295L0.235,-0.353C0.235,-0.372 0.231,-0.387 0.222,-0.397C0.213,-0.406 0.2,-0.411 0.185,-0.411C0.17,-0.411 0.158,-0.406 0.149,-0.397C0.139,-0.387 0.135,-0.372 0.135,-0.353L0.135,-0.295Z" style="fill:rgb(5,5,5);fill-rule:nonzero;"/>
            </g>
        </g>
    </g>
    <g id="Four" transform="matrix(1,0,0,1,151.956,-6.19065)">
        <g id="Detune3" serif:id="Detune" transform="matrix(1,0,0,1,64.7171,211.555)">
            <g id="LFO-knob6" serif:id="LFO#knob" transform="matrix(0.381474,0,0,0.381474,-35.8957,2.34409)">
                <circle cx="55.661" cy="308.513" r="7.929"/>
            </g>
            <g id="Attenuate-knob-26" serif:id="Attenuate#knob$2" transform="matrix(0.381474,0,0,0.381474,-35.8957,-27.6559)">
                <circle cx="55.661" cy="308.513" r="7.929"/>
            </g>
            <g id="Value-knob-36" serif:id="Value#knob$3" transform="matrix(0.758898,0,0,0.758898,-56.9034,-178.467)">
                <circle cx="55.661" cy="308.513" r="7.929"/>
            </g>
        </g>
        <g id="Phase3" serif:id="Phase" transform="matrix(1,0,0,1,64.7171,111.037)">
            <g id="LFO-knob7" serif:id="LFO#knob" transform="matrix(0.381474,0,0,0.381474,-35.8957,2.34409)">
                <circle cx="55.661" cy="308.513" r="7.929"/>
            </g>
            <g id="Attenuate-knob-27" serif:id="Attenuate#knob$2" transform="matrix(0.381474,0,0,0.381474,-35.8957,-27.6559)">
                <circle cx="55.661" cy="308.513" r="7.929"/>
            </g>
            <g id="Value-knob-37" serif:id="Value#knob$3" transform="matrix(0.758898,0,0,0.758898,-56.9034,-178.467)">
                <circle cx="55.661" cy="308.513" r="7.929"/>
            </g>
        </g>
        <g id="Pan3" serif:id="Pan" transform="matrix(1,0,0,1,64.7171,10.4938)">
            <g id="LFO-knob8" serif:id="LFO#knob" transform="matrix(0.381474,0,0,0.381474,-35.8957,2.34409)">
                <circle cx="55.661" cy="308.513" r="7.929"/>
            </g>
            <g id="Attenuate-knob-28" serif:id="Attenuate#knob$2" transform="matrix(0.381474,0,0,0.381474,-35.8957,-27.6559)">
                <circle cx="55.661" cy="308.513" r="7.929"/>
            </g>
            <g id="Value-knob-38" serif:id="Value#knob$3" transform="matrix(0.758898,0,0,0.758898,-56.9034,-178.467)">
                <circle cx="55.661" cy="308.513" r="7.929"/>
            </g>
        </g>
        <g transform="matrix(1,0,0,1,-45.1312,-70.9613)">
            <g transform="matrix(14,0,0,14,85.3999,118.306)">
                <path d="M0.048,-0L0.048,-0.712L0.352,-0.712L0.352,-0.616L0.15,-0.616L0.15,-0.4L0.326,-0.4L0.326,-0.304L0.15,-0.304L0.15,-0L0.048,-0Z" style="fill:rgb(5,5,5);fill-rule:nonzero;"/>
            </g>
            <g transform="matrix(14,0,0,14,90.3279,118.306)">
                <path d="M0.033,-0.337C0.033,-0.358 0.034,-0.377 0.037,-0.394C0.04,-0.411 0.045,-0.427 0.052,-0.44C0.064,-0.462 0.081,-0.48 0.104,-0.493C0.126,-0.506 0.153,-0.513 0.185,-0.513C0.217,-0.513 0.244,-0.506 0.267,-0.493C0.289,-0.48 0.306,-0.462 0.318,-0.44C0.325,-0.427 0.33,-0.411 0.333,-0.394C0.336,-0.377 0.337,-0.358 0.337,-0.337L0.337,-0.17C0.337,-0.149 0.336,-0.13 0.333,-0.113C0.33,-0.096 0.325,-0.08 0.318,-0.067C0.306,-0.045 0.289,-0.027 0.267,-0.014C0.244,-0.001 0.217,0.006 0.185,0.006C0.153,0.006 0.126,-0.001 0.104,-0.014C0.081,-0.027 0.064,-0.045 0.052,-0.067C0.045,-0.08 0.04,-0.096 0.037,-0.113C0.034,-0.13 0.033,-0.149 0.033,-0.17L0.033,-0.337ZM0.135,-0.154C0.135,-0.135 0.139,-0.12 0.149,-0.111C0.158,-0.101 0.17,-0.096 0.185,-0.096C0.2,-0.096 0.213,-0.101 0.222,-0.111C0.231,-0.12 0.235,-0.135 0.235,-0.154L0.235,-0.353C0.235,-0.372 0.231,-0.387 0.222,-0.397C0.213,-0.406 0.2,-0.411 0.185,-0.411C0.17,-0.411 0.158,-0.406 0.149,-0.397C0.139,-0.387 0.135,-0.372 0.135,-0.353L0.135,-0.154Z" style="fill:rgb(5,5,5);fill-rule:nonzero;"/>
            </g>
            <g transform="matrix(14,0,0,14,95.5079,118.306)">
                <path d="M0.347,-0.507L0.347,-0L0.245,-0L0.245,-0.049L0.243,-0.049C0.232,-0.033 0.22,-0.02 0.205,-0.01C0.19,0.001 0.17,0.006 0.147,0.006C0.134,0.006 0.122,0.004 0.109,-0.001C0.096,-0.005 0.085,-0.012 0.075,-0.022C0.065,-0.032 0.057,-0.045 0.051,-0.061C0.045,-0.076 0.042,-0.095 0.042,-0.118L0.042,-0.507L0.144,-0.507L0.144,-0.156C0.144,-0.137 0.148,-0.123 0.157,-0.112C0.166,-0.101 0.178,-0.096 0.194,-0.096C0.213,-0.096 0.227,-0.102 0.234,-0.114C0.241,-0.126 0.245,-0.143 0.245,-0.166L0.245,-0.507L0.347,-0.507Z" style="fill:rgb(5,5,5);fill-rule:nonzero;"/>
            </g>
            <g transform="matrix(14,0,0,14,100.954,118.306)">
                <path d="M0.042,-0L0.042,-0.507L0.144,-0.507L0.144,-0.453C0.165,-0.472 0.185,-0.486 0.205,-0.497C0.225,-0.508 0.25,-0.513 0.279,-0.513L0.279,-0.405C0.269,-0.409 0.259,-0.411 0.248,-0.411C0.237,-0.411 0.226,-0.409 0.214,-0.406C0.201,-0.402 0.19,-0.396 0.18,-0.387C0.169,-0.378 0.161,-0.367 0.154,-0.353C0.147,-0.339 0.144,-0.322 0.144,-0.301L0.144,-0L0.042,-0Z" style="fill:rgb(5,5,5);fill-rule:nonzero;"/>
            </g>
        </g>
    </g>
    <g id="Three" transform="matrix(1,0,0,1,116.657,-6.19065)">
        <g id="Detune4" serif:id="Detune" transform="matrix(1,0,0,1,64.7171,211.555)">
            <g id="LFO-knob9" serif:id="LFO#knob" transform="matrix(0.381474,0,0,0.381474,-35.8957,2.34409)">
                <circle cx="55.661" cy="308.513" r="7.929"/>
            </g>
            <g id="Attenuate-knob-29" serif:id="Attenuate#knob$2" transform="matrix(0.381474,0,0,0.381474,-35.8957,-27.6559)">
                <circle cx="55.661" cy="308.513" r="7.929"/>
            </g>
            <g id="Value-knob-39" serif:id="Value#knob$3" transform="matrix(0.758898,0,0,0.758898,-56.9034,-178.467)">
                <circle cx="55.661" cy="308.513" r="7.929"/>
            </g>
        </g>
        <g id="Phase4" serif:id="Phase" transform="matrix(1,0,0,1,64.7171,111.037)">
            <g id="LFO-knob10" serif:id="LFO#knob" transform="matrix(0.381474,0,0,0.381474,-35.8957,2.34409)">
                <circle cx="55.661" cy="308.513" r="7.929"/>
            </g>
            <g id="Attenuate-knob-210" serif:id="Attenuate#knob$2" transform="matrix(0.381474,0,0,0.381474,-35.8957,-27.6559)">
                <circle cx="55.661" cy="308.513" r="7.929"/>
            </g>
            <g id="Value-knob-310" serif:id="Value#knob$3" transform="matrix(0.758898,0,0,0.758898,-56.9034,-178.467)">
                <circle cx="55.661" cy="308.513" r="7.929"/>
            </g>
        </g>
        <g id="Pan4" serif:id="Pan" transform="matrix(1,0,0,1,64.7171,10.4938)">
            <g id="LFO-knob11" serif:id="LFO#knob" transform="matrix(0.381474,0,0,0.381474,-35.8957,2.34409)">
                <circle cx="55.661" cy="308.513" r="7.929"/>
            </g>
            <g id="Attenuate-knob-211" serif:id="Attenuate#knob$2" transform="matrix(0.381474,0,0,0.381474,-35.8957,-27.6559)">
                <circle cx="55.661" cy="308.513" r="7.929"/>
            </g>
            <g id="Value-knob-311" serif:id="Value#knob$3" transform="matrix(0.758898,0,0,0.758898,-56.9034,-178.467)">
                <circle cx="55.661" cy="308.513" r="7.929"/>
            </g>
        </g>
        <g transform="matrix(1,0,0,1,-45.1312,-70.9613)">
            <g transform="matrix(14,0,0,14,82.9499,118.306)">
                <path d="M0.115,-0L0.115,-0.616L-0.003,-0.616L-0.003,-0.712L0.335,-0.712L0.335,-0.616L0.217,-0.616L0.217,-0L0.115,-0Z" style="fill:rgb(5,5,5);fill-rule:nonzero;"/>
            </g>
            <g transform="matrix(14,0,0,14,87.5979,118.306)">
                <path d="M0.042,-0L0.042,-0.712L0.144,-0.712L0.144,-0.458L0.146,-0.458C0.157,-0.474 0.169,-0.487 0.185,-0.498C0.2,-0.508 0.219,-0.513 0.242,-0.513C0.255,-0.513 0.267,-0.511 0.28,-0.507C0.293,-0.502 0.304,-0.495 0.314,-0.485C0.324,-0.475 0.332,-0.462 0.338,-0.447C0.344,-0.431 0.347,-0.412 0.347,-0.389L0.347,-0L0.245,-0L0.245,-0.351C0.245,-0.37 0.241,-0.384 0.232,-0.395C0.223,-0.406 0.211,-0.411 0.195,-0.411C0.176,-0.411 0.162,-0.405 0.155,-0.393C0.148,-0.381 0.144,-0.364 0.144,-0.341L0.144,-0L0.042,-0Z" style="fill:rgb(5,5,5);fill-rule:nonzero;"/>
            </g>
            <g transform="matrix(14,0,0,14,93.0439,118.306)">
                <path d="M0.042,-0L0.042,-0.507L0.144,-0.507L0.144,-0.453C0.165,-0.472 0.185,-0.486 0.205,-0.497C0.225,-0.508 0.25,-0.513 0.279,-0.513L0.279,-0.405C0.269,-0.409 0.259,-0.411 0.248,-0.411C0.237,-0.411 0.226,-0.409 0.214,-0.406C0.201,-0.402 0.19,-0.396 0.18,-0.387C0.169,-0.378 0.161,-0.367 0.154,-0.353C0.147,-0.339 0.144,-0.322 0.144,-0.301L0.144,-0L0.042,-0Z" style="fill:rgb(5,5,5);fill-rule:nonzero;"/>
            </g>
            <g transform="matrix(14,0,0,14,96.9359,118.306)">
                <path d="M0.337,-0.215L0.135,-0.215L0.135,-0.146C0.135,-0.13 0.139,-0.118 0.149,-0.109C0.158,-0.1 0.17,-0.096 0.185,-0.096C0.204,-0.096 0.217,-0.102 0.224,-0.113C0.23,-0.124 0.234,-0.136 0.235,-0.147L0.337,-0.147C0.337,-0.102 0.323,-0.066 0.296,-0.039C0.283,-0.025 0.267,-0.014 0.248,-0.006C0.229,0.002 0.208,0.006 0.185,0.006C0.153,0.006 0.126,-0.001 0.104,-0.014C0.081,-0.027 0.064,-0.045 0.052,-0.067C0.045,-0.08 0.04,-0.096 0.037,-0.113C0.034,-0.13 0.033,-0.149 0.033,-0.17L0.033,-0.337C0.033,-0.358 0.034,-0.377 0.037,-0.394C0.04,-0.411 0.045,-0.427 0.052,-0.44C0.064,-0.462 0.081,-0.48 0.104,-0.493C0.126,-0.506 0.153,-0.513 0.185,-0.513C0.208,-0.513 0.23,-0.509 0.249,-0.501C0.268,-0.493 0.284,-0.482 0.297,-0.468C0.324,-0.438 0.337,-0.4 0.337,-0.355L0.337,-0.215ZM0.135,-0.295L0.235,-0.295L0.235,-0.353C0.235,-0.372 0.231,-0.387 0.222,-0.397C0.213,-0.406 0.2,-0.411 0.185,-0.411C0.17,-0.411 0.158,-0.406 0.149,-0.397C0.139,-0.387 0.135,-0.372 0.135,-0.353L0.135,-0.295Z" style="fill:rgb(5,5,5);fill-rule:nonzero;"/>
            </g>
            <g transform="matrix(14,0,0,14,102.116,118.306)">
                <path d="M0.337,-0.215L0.135,-0.215L0.135,-0.146C0.135,-0.13 0.139,-0.118 0.149,-0.109C0.158,-0.1 0.17,-0.096 0.185,-0.096C0.204,-0.096 0.217,-0.102 0.224,-0.113C0.23,-0.124 0.234,-0.136 0.235,-0.147L0.337,-0.147C0.337,-0.102 0.323,-0.066 0.296,-0.039C0.283,-0.025 0.267,-0.014 0.248,-0.006C0.229,0.002 0.208,0.006 0.185,0.006C0.153,0.006 0.126,-0.001 0.104,-0.014C0.081,-0.027 0.064,-0.045 0.052,-0.067C0.045,-0.08 0.04,-0.096 0.037,-0.113C0.034,-0.13 0.033,-0.149 0.033,-0.17L0.033,-0.337C0.033,-0.358 0.034,-0.377 0.037,-0.394C0.04,-0.411 0.045,-0.427 0.052,-0.44C0.064,-0.462 0.081,-0.48 0.104,-0.493C0.126,-0.506 0.153,-0.513 0.185,-0.513C0.208,-0.513 0.23,-0.509 0.249,-0.501C0.268,-0.493 0.284,-0.482 0.297,-0.468C0.324,-0.438 0.337,-0.4 0.337,-0.355L0.337,-0.215ZM0.135,-0.295L0.235,-0.295L0.235,-0.353C0.235,-0.372 0.231,-0.387 0.222,-0.397C0.213,-0.406 0.2,-0.411 0.185,-0.411C0.17,-0.411 0.158,-0.406 0.149,-0.397C0.139,-0.387 0.135,-0.372 0.135,-0.353L0.135,-0.295Z" style="fill:rgb(5,5,5);fill-rule:nonzero;"/>
            </g>
        </g>
    </g>
    <g id="Two" transform="matrix(1,0,0,1,81.3574,-6.19065)">
        <g id="Detune5" serif:id="Detune" transform="matrix(1,0,0,1,64.7171,211.555)">
            <g id="LFO-knob12" serif:id="LFO#knob" transform="matrix(0.381474,0,0,0.381474,-35.8957,2.34409)">
                <circle cx="55.661" cy="308.513" r="7.929"/>
            </g>
            <g id="Attenuate-knob-212" serif:id="Attenuate#knob$2" transform="matrix(0.381474,0,0,0.381474,-35.8957,-27.6559)">
                <circle cx="55.661" cy="308.513" r="7.929"/>
            </g>
            <g id="Value-knob-312" serif:id="Value#knob$3" transform="matrix(0.758898,0,0,0.758898,-56.9034,-178.467)">
                <circle cx="55.661" cy="308.513" r="7.929"/>
            </g>
        </g>
        <g id="Phase5" serif:id="Phase" transform="matrix(1,0,0,1,64.7171,111.037)">
            <g id="LFO-knob13" serif:id="LFO#knob" transform="matrix(0.381474,0,0,0.381474,-35.8957,2.34409)">
                <circle cx="55.661" cy="308.513" r="7.929"/>
            </g>
            <g id="Attenuate-knob-213" serif:id="Attenuate#knob$2" transform="matrix(0.381474,0,0,0.381474,-35.8957,-27.6559)">
                <circle cx="55.661" cy="308.513" r="7.929"/>
            </g>
            <g id="Value-knob-313" serif:id="Value#knob$3" transform="matrix(0.758898,0,0,0.758898,-56.9034,-178.467)">
                <circle cx="55.661" cy="308.513" r="7.929"/>
            </g>
        </g>
        <g id="Pan5" serif:id="Pan" transform="matrix(1,0,0,1,64.7171,10.4938)">
            <g id="LFO-knob14" serif:id="LFO#knob" transform="matrix(0.381474,0,0,0.381474,-35.8957,2.34409)">
                <circle cx="55.661" cy="308.513" r="7.929"/>
            </g>
            <g id="Attenuate-knob-214" serif:id="Attenuate#knob$2" transform="matrix(0.381474,0,0,0.381474,-35.8957,-27.6559)">
                <circle cx="55.661" cy="308.513" r="7.929"/>
            </g>
            <g id="Value-knob-314" serif:id="Value#knob$3" transform="matrix(0.758898,0,0,0.758898,-56.9034,-178.467)">
                <circle cx="55.661" cy="308.513" r="7.929"/>
            </g>
        </g>
        <g transform="matrix(1,0,0,1,-45.1312,-70.9613)">
            <g transform="matrix(14,0,0,14,87.0169,118.306)">
                <path d="M0.115,-0L0.115,-0.616L-0.003,-0.616L-0.003,-0.712L0.335,-0.712L0.335,-0.616L0.217,-0.616L0.217,-0L0.115,-0Z" style="fill:rgb(5,5,5);fill-rule:nonzero;"/>
            </g>
            <g transform="matrix(14,0,0,14,90.6289,118.306)">
                <path d="M0.535,-0.507L0.415,-0L0.325,-0L0.269,-0.301L0.267,-0.301L0.211,-0L0.121,-0L0.001,-0.507L0.109,-0.507L0.171,-0.192L0.173,-0.192L0.23,-0.507L0.31,-0.507L0.364,-0.192L0.366,-0.192L0.427,-0.507L0.535,-0.507Z" style="fill:rgb(5,5,5);fill-rule:nonzero;"/>
            </g>
            <g transform="matrix(14,0,0,14,98.0489,118.306)">
                <path d="M0.033,-0.337C0.033,-0.358 0.034,-0.377 0.037,-0.394C0.04,-0.411 0.045,-0.427 0.052,-0.44C0.064,-0.462 0.081,-0.48 0.104,-0.493C0.126,-0.506 0.153,-0.513 0.185,-0.513C0.217,-0.513 0.244,-0.506 0.267,-0.493C0.289,-0.48 0.306,-0.462 0.318,-0.44C0.325,-0.427 0.33,-0.411 0.333,-0.394C0.336,-0.377 0.337,-0.358 0.337,-0.337L0.337,-0.17C0.337,-0.149 0.336,-0.13 0.333,-0.113C0.33,-0.096 0.325,-0.08 0.318,-0.067C0.306,-0.045 0.289,-0.027 0.267,-0.014C0.244,-0.001 0.217,0.006 0.185,0.006C0.153,0.006 0.126,-0.001 0.104,-0.014C0.081,-0.027 0.064,-0.045 0.052,-0.067C0.045,-0.08 0.04,-0.096 0.037,-0.113C0.034,-0.13 0.033,-0.149 0.033,-0.17L0.033,-0.337ZM0.135,-0.154C0.135,-0.135 0.139,-0.12 0.149,-0.111C0.158,-0.101 0.17,-0.096 0.185,-0.096C0.2,-0.096 0.213,-0.101 0.222,-0.111C0.231,-0.12 0.235,-0.135 0.235,-0.154L0.235,-0.353C0.235,-0.372 0.231,-0.387 0.222,-0.397C0.213,-0.406 0.2,-0.411 0.185,-0.411C0.17,-0.411 0.158,-0.406 0.149,-0.397C0.139,-0.387 0.135,-0.372 0.135,-0.353L0.135,-0.154Z" style="fill:rgb(5,5,5);fill-rule:nonzero;"/>
            </g>
        </g>
    </g>
    <g id="One" transform="matrix(1,0,0,1,46.058,-6.19065)">
        <g id="Detune6" serif:id="Detune" transform="matrix(1,0,0,1,64.7171,211.555)">
            <g id="LFO-knob15" serif:id="LFO#knob" transform="matrix(0.381474,0,0,0.381474,-35.8957,2.34409)">
                <circle cx="55.661" cy="308.513" r="7.929"/>
            </g>
            <g id="Attenuate-knob-215" serif:id="Attenuate#knob$2" transform="matrix(0.381474,0,0,0.381474,-35.8957,-27.6559)">
                <circle cx="55.661" cy="308.513" r="7.929"/>
            </g>
            <g id="Value-knob-315" serif:id="Value#knob$3" transform="matrix(0.758898,0,0,0.758898,-56.9034,-178.467)">
                <circle cx="55.661" cy="308.513" r="7.929"/>
            </g>
        </g>
        <g id="Phase6" serif:id="Phase" transform="matrix(1,0,0,1,64.7171,111.037)">
            <g id="LFO-knob16" serif:id="LFO#knob" transform="matrix(0.381474,0,0,0.381474,-35.8957,2.34409)">
                <circle cx="55.661" cy="308.513" r="7.929"/>
            </g>
            <g id="Attenuate-knob-216" serif:id="Attenuate#knob$2" transform="matrix(0.381474,0,0,0.381474,-35.8957,-27.6559)">
                <circle cx="55.661" cy="308.513" r="7.929"/>
            </g>
            <g id="Value-knob-316" serif:id="Value#knob$3" transform="matrix(0.758898,0,0,0.758898,-56.9034,-178.467)">
                <circle cx="55.661" cy="308.513" r="7.929"/>
            </g>
        </g>
        <g id="Pan6" serif:id="Pan" transform="matrix(1,0,0,1,64.7171,10.4938)">
            <g id="LFO-knob17" serif:id="LFO#knob" transform="matrix(0.381474,0,0,0.381474,-35.8957,2.34409)">
                <circle cx="55.661" cy="308.513" r="7.929"/>
            </g>
            <g id="Attenuate-knob-217" serif:id="Attenuate#knob$2" transform="matrix(0.381474,0,0,0.381474,-35.8957,-27.6559)">
                <circle cx="55.661" cy="308.513" r="7.929"/>
            </g>
            <g id="Value-knob-317" serif:id="Value#knob$3" transform="matrix(0.758898,0,0,0.758898,-56.9034,-178.467)">
                <circle cx="55.661" cy="308.513" r="7.929"/>
            </g>
        </g>
        <g transform="matrix(1,0,0,1,-45.1312,-70.9613)">
            <g transform="matrix(14,0,0,14,86.8279,118.306)">
                <path d="M0.042,-0.544C0.042,-0.573 0.047,-0.598 0.057,-0.62C0.067,-0.642 0.08,-0.66 0.097,-0.675C0.113,-0.689 0.131,-0.7 0.152,-0.707C0.172,-0.714 0.192,-0.718 0.213,-0.718C0.234,-0.718 0.254,-0.714 0.275,-0.707C0.295,-0.7 0.313,-0.689 0.33,-0.675C0.346,-0.66 0.359,-0.642 0.369,-0.62C0.379,-0.598 0.384,-0.573 0.384,-0.544L0.384,-0.168C0.384,-0.138 0.379,-0.112 0.369,-0.091C0.359,-0.07 0.346,-0.052 0.33,-0.038C0.313,-0.023 0.295,-0.012 0.275,-0.005C0.254,0.002 0.234,0.006 0.213,0.006C0.192,0.006 0.172,0.002 0.152,-0.005C0.131,-0.012 0.113,-0.023 0.097,-0.038C0.08,-0.052 0.067,-0.07 0.057,-0.091C0.047,-0.112 0.042,-0.138 0.042,-0.168L0.042,-0.544ZM0.144,-0.168C0.144,-0.143 0.151,-0.125 0.165,-0.114C0.178,-0.102 0.194,-0.096 0.213,-0.096C0.232,-0.096 0.248,-0.102 0.262,-0.114C0.275,-0.125 0.282,-0.143 0.282,-0.168L0.282,-0.544C0.282,-0.569 0.275,-0.587 0.262,-0.599C0.248,-0.61 0.232,-0.616 0.213,-0.616C0.194,-0.616 0.178,-0.61 0.165,-0.599C0.151,-0.587 0.144,-0.569 0.144,-0.544L0.144,-0.168Z" style="fill:rgb(5,5,5);fill-rule:nonzero;"/>
            </g>
            <g transform="matrix(14,0,0,14,92.7919,118.306)">
                <path d="M0.042,-0L0.042,-0.507L0.144,-0.507L0.144,-0.458L0.146,-0.458C0.157,-0.474 0.169,-0.487 0.185,-0.498C0.2,-0.508 0.219,-0.513 0.242,-0.513C0.255,-0.513 0.267,-0.511 0.28,-0.507C0.293,-0.502 0.304,-0.495 0.314,-0.485C0.324,-0.475 0.332,-0.462 0.338,-0.447C0.344,-0.431 0.347,-0.412 0.347,-0.389L0.347,-0L0.245,-0L0.245,-0.351C0.245,-0.37 0.241,-0.384 0.232,-0.395C0.223,-0.406 0.211,-0.411 0.195,-0.411C0.176,-0.411 0.162,-0.405 0.155,-0.393C0.148,-0.381 0.144,-0.364 0.144,-0.341L0.144,-0L0.042,-0Z" style="fill:rgb(5,5,5);fill-rule:nonzero;"/>
            </g>
            <g transform="matrix(14,0,0,14,98.2379,118.306)">
                <path d="M0.337,-0.215L0.135,-0.215L0.135,-0.146C0.135,-0.13 0.139,-0.118 0.149,-0.109C0.158,-0.1 0.17,-0.096 0.185,-0.096C0.204,-0.096 0.217,-0.102 0.224,-0.113C0.23,-0.124 0.234,-0.136 0.235,-0.147L0.337,-0.147C0.337,-0.102 0.323,-0.066 0.296,-0.039C0.283,-0.025 0.267,-0.014 0.248,-0.006C0.229,0.002 0.208,0.006 0.185,0.006C0.153,0.006 0.126,-0.001 0.104,-0.014C0.081,-0.027 0.064,-0.045 0.052,-0.067C0.045,-0.08 0.04,-0.096 0.037,-0.113C0.034,-0.13 0.033,-0.149 0.033,-0.17L0.033,-0.337C0.033,-0.358 0.034,-0.377 0.037,-0.394C0.04,-0.411 0.045,-0.427 0.052,-0.44C0.064,-0.462 0.081,-0.48 0.104,-0.493C0.126,-0.506 0.153,-0.513 0.185,-0.513C0.208,-0.513 0.23,-0.509 0.249,-0.501C0.268,-0.493 0.284,-0.482 0.297,-0.468C0.324,-0.438 0.337,-0.4 0.337,-0.355L0.337,-0.215ZM0.135,-0.295L0.235,-0.295L0.235,-0.353C0.235,-0.372 0.231,-0.387 0.222,-0.397C0.213,-0.406 0.2,-0.411 0.185,-0.411C0.17,-0.411 0.158,-0.406 0.149,-0.397C0.139,-0.387 0.135,-0.372 0.135,-0.353L0.135,-0.295Z" style="fill:rgb(5,5,5);fill-rule:nonzero;"/>
            </g>
        </g>
    </g>
    <g transform="matrix(1,0,0,1,134.069,-3.32089)">
        <g transform="matrix(1,0,0,1,43.2454,1.87477)">
            <g transform="matrix(12,0,0,12,-39.1435,23.5957)">
                <path d="M0.015,-0.248C0.014,-0.248 0.012,-0.248 0.011,-0.249C0.01,-0.249 0.009,-0.25 0.008,-0.252C0.008,-0.253 0.009,-0.255 0.011,-0.259C0.012,-0.263 0.015,-0.267 0.019,-0.272C0.023,-0.277 0.028,-0.281 0.034,-0.285C0.04,-0.288 0.047,-0.29 0.056,-0.29C0.067,-0.29 0.075,-0.287 0.082,-0.282C0.089,-0.276 0.094,-0.268 0.098,-0.258C0.102,-0.248 0.105,-0.237 0.106,-0.224C0.107,-0.211 0.108,-0.197 0.108,-0.182C0.11,-0.166 0.118,-0.15 0.131,-0.133C0.143,-0.116 0.16,-0.101 0.179,-0.088C0.198,-0.075 0.218,-0.064 0.241,-0.055C0.264,-0.046 0.286,-0.042 0.307,-0.041C0.358,-0.04 0.395,-0.05 0.418,-0.074C0.441,-0.096 0.453,-0.126 0.453,-0.162C0.453,-0.192 0.447,-0.216 0.436,-0.235C0.425,-0.254 0.409,-0.269 0.391,-0.28C0.372,-0.291 0.35,-0.301 0.326,-0.308C0.302,-0.315 0.278,-0.321 0.253,-0.327C0.228,-0.333 0.203,-0.34 0.179,-0.347C0.155,-0.354 0.134,-0.364 0.115,-0.377C0.096,-0.39 0.08,-0.406 0.069,-0.427C0.058,-0.447 0.052,-0.473 0.052,-0.505C0.052,-0.536 0.059,-0.565 0.073,-0.593C0.086,-0.62 0.106,-0.645 0.131,-0.666C0.156,-0.687 0.187,-0.703 0.224,-0.716C0.26,-0.728 0.301,-0.734 0.347,-0.734C0.391,-0.734 0.429,-0.73 0.46,-0.721C0.491,-0.712 0.515,-0.706 0.532,-0.701C0.535,-0.706 0.539,-0.713 0.543,-0.72C0.547,-0.727 0.552,-0.733 0.557,-0.739C0.562,-0.745 0.567,-0.75 0.573,-0.755C0.579,-0.759 0.586,-0.761 0.594,-0.761C0.6,-0.761 0.605,-0.759 0.609,-0.756C0.612,-0.752 0.614,-0.748 0.614,-0.745C0.613,-0.742 0.61,-0.739 0.606,-0.737C0.602,-0.735 0.598,-0.733 0.595,-0.731C0.574,-0.72 0.557,-0.696 0.544,-0.657C0.53,-0.618 0.522,-0.57 0.52,-0.513C0.519,-0.512 0.518,-0.511 0.515,-0.51C0.512,-0.509 0.509,-0.509 0.506,-0.509C0.501,-0.509 0.497,-0.509 0.495,-0.51C0.493,-0.53 0.487,-0.55 0.477,-0.571C0.467,-0.592 0.453,-0.611 0.436,-0.628C0.418,-0.645 0.396,-0.658 0.371,-0.669C0.345,-0.68 0.316,-0.685 0.283,-0.685C0.263,-0.685 0.245,-0.682 0.229,-0.677C0.213,-0.671 0.2,-0.663 0.189,-0.654C0.178,-0.644 0.169,-0.633 0.164,-0.621C0.158,-0.609 0.155,-0.597 0.155,-0.585C0.155,-0.557 0.166,-0.532 0.189,-0.509C0.212,-0.486 0.246,-0.468 0.292,-0.457C0.321,-0.45 0.351,-0.442 0.382,-0.433C0.413,-0.424 0.441,-0.411 0.466,-0.396C0.491,-0.381 0.512,-0.361 0.529,-0.338C0.546,-0.315 0.554,-0.285 0.554,-0.249C0.554,-0.214 0.546,-0.18 0.53,-0.148C0.513,-0.115 0.492,-0.087 0.465,-0.062C0.438,-0.037 0.408,-0.018 0.374,-0.003C0.34,0.012 0.305,0.019 0.27,0.019C0.243,0.019 0.216,0.017 0.19,0.014C0.164,0.01 0.14,0.006 0.118,0.001C0.096,-0.005 0.077,-0.01 0.06,-0.016C0.043,-0.021 0.031,-0.026 0.023,-0.03C0.029,-0.041 0.035,-0.052 0.042,-0.064C0.048,-0.076 0.054,-0.089 0.06,-0.102C0.065,-0.115 0.07,-0.129 0.074,-0.144C0.077,-0.158 0.079,-0.173 0.079,-0.189C0.079,-0.212 0.076,-0.23 0.069,-0.242C0.062,-0.254 0.053,-0.26 0.044,-0.26C0.037,-0.26 0.033,-0.259 0.03,-0.256C0.027,-0.253 0.024,-0.249 0.02,-0.244L0.015,-0.248Z" style="fill-rule:nonzero;"/>
            </g>
            <g transform="matrix(12,0,0,12,-32.1115,23.5957)">
                <path d="M0.187,-0.174C0.187,-0.16 0.187,-0.147 0.188,-0.134C0.189,-0.121 0.191,-0.109 0.195,-0.1C0.199,-0.091 0.205,-0.083 0.213,-0.078C0.221,-0.072 0.232,-0.069 0.247,-0.069C0.254,-0.069 0.263,-0.07 0.272,-0.072C0.281,-0.073 0.29,-0.075 0.299,-0.078C0.307,-0.081 0.314,-0.083 0.321,-0.086C0.327,-0.089 0.331,-0.091 0.332,-0.092C0.334,-0.094 0.335,-0.094 0.336,-0.092C0.337,-0.09 0.337,-0.088 0.337,-0.085C0.336,-0.082 0.335,-0.079 0.334,-0.076C0.333,-0.073 0.331,-0.07 0.329,-0.069C0.322,-0.066 0.311,-0.06 0.294,-0.051C0.277,-0.042 0.258,-0.033 0.235,-0.024C0.214,-0.015 0.193,-0.007 0.173,-0.001C0.152,0.006 0.135,0.009 0.122,0.009C0.107,0.009 0.095,0.004 0.086,-0.005C0.077,-0.014 0.073,-0.026 0.073,-0.04C0.073,-0.045 0.073,-0.049 0.074,-0.052C0.074,-0.055 0.074,-0.06 0.075,-0.065C0.076,-0.072 0.077,-0.084 0.079,-0.102C0.08,-0.119 0.082,-0.139 0.084,-0.161C0.085,-0.183 0.087,-0.205 0.088,-0.228C0.089,-0.25 0.09,-0.269 0.09,-0.285L0.09,-0.32C0.09,-0.337 0.089,-0.353 0.087,-0.366C0.085,-0.379 0.082,-0.39 0.077,-0.397C0.074,-0.402 0.07,-0.406 0.065,-0.409C0.059,-0.412 0.053,-0.413 0.046,-0.413C0.042,-0.413 0.038,-0.412 0.034,-0.411C0.03,-0.409 0.027,-0.408 0.025,-0.408C0.024,-0.408 0.022,-0.41 0.019,-0.414C0.016,-0.418 0.016,-0.421 0.019,-0.423C0.024,-0.426 0.033,-0.432 0.048,-0.439C0.063,-0.446 0.079,-0.454 0.096,-0.463C0.115,-0.472 0.133,-0.481 0.15,-0.488C0.167,-0.495 0.18,-0.498 0.187,-0.498C0.194,-0.498 0.199,-0.496 0.202,-0.492C0.205,-0.487 0.206,-0.482 0.206,-0.477L0.206,-0.473C0.206,-0.466 0.205,-0.456 0.203,-0.441C0.201,-0.426 0.199,-0.408 0.197,-0.387C0.194,-0.366 0.192,-0.341 0.19,-0.313C0.188,-0.285 0.187,-0.255 0.187,-0.222L0.187,-0.174ZM0.147,-0.694C0.15,-0.693 0.156,-0.69 0.164,-0.683C0.171,-0.676 0.179,-0.669 0.187,-0.66C0.195,-0.651 0.202,-0.643 0.208,-0.635C0.214,-0.627 0.217,-0.622 0.217,-0.619C0.217,-0.616 0.213,-0.611 0.205,-0.604C0.197,-0.597 0.188,-0.591 0.178,-0.584C0.167,-0.577 0.157,-0.57 0.148,-0.565C0.138,-0.56 0.131,-0.557 0.127,-0.557C0.125,-0.557 0.12,-0.56 0.113,-0.567C0.105,-0.573 0.097,-0.58 0.089,-0.588C0.081,-0.596 0.074,-0.604 0.068,-0.612C0.061,-0.619 0.058,-0.624 0.058,-0.627C0.058,-0.63 0.062,-0.635 0.071,-0.643C0.08,-0.65 0.089,-0.657 0.1,-0.665C0.11,-0.672 0.12,-0.679 0.13,-0.685C0.139,-0.69 0.145,-0.693 0.147,-0.694Z" style="fill-rule:nonzero;"/>
            </g>
            <g transform="matrix(12,0,0,12,-28.8355,23.5957)">
                <path d="M0.348,0.013C0.337,0.011 0.325,0.003 0.312,-0.011C0.299,-0.025 0.286,-0.042 0.274,-0.061C0.261,-0.08 0.25,-0.099 0.241,-0.12C0.231,-0.141 0.224,-0.158 0.219,-0.173C0.215,-0.167 0.208,-0.157 0.197,-0.144C0.186,-0.13 0.173,-0.115 0.159,-0.1C0.145,-0.085 0.131,-0.069 0.116,-0.054C0.1,-0.038 0.088,-0.025 0.077,-0.015C0.061,0.002 0.044,0.018 0.027,0.035C0.01,0.052 -0.008,0.067 -0.025,0.08C-0.042,0.093 -0.058,0.103 -0.073,0.111C-0.088,0.119 -0.102,0.123 -0.114,0.123C-0.122,0.123 -0.128,0.122 -0.133,0.12C-0.137,0.117 -0.14,0.115 -0.142,0.114C-0.139,0.111 -0.135,0.104 -0.13,0.093C-0.125,0.082 -0.119,0.07 -0.113,0.056C-0.106,0.041 -0.1,0.026 -0.094,0.01C-0.087,-0.007 -0.082,-0.023 -0.078,-0.038C-0.076,-0.04 -0.074,-0.041 -0.073,-0.041C-0.071,-0.041 -0.07,-0.038 -0.069,-0.032C-0.068,-0.025 -0.067,-0.018 -0.065,-0.011C-0.063,-0.003 -0.059,0.004 -0.055,0.011C-0.049,0.017 -0.042,0.02 -0.031,0.02C-0.014,0.02 0.006,0.012 0.028,-0.005C0.049,-0.022 0.071,-0.043 0.093,-0.068C0.114,-0.092 0.135,-0.12 0.155,-0.15C0.174,-0.18 0.191,-0.208 0.204,-0.234C0.199,-0.254 0.19,-0.275 0.179,-0.297C0.168,-0.318 0.155,-0.338 0.14,-0.357C0.125,-0.375 0.108,-0.39 0.09,-0.402C0.072,-0.413 0.054,-0.419 0.035,-0.419C0.03,-0.419 0.024,-0.417 0.019,-0.413C0.014,-0.409 0.008,-0.406 0.001,-0.404C-0.004,-0.404 -0.006,-0.407 -0.006,-0.413C-0.006,-0.415 0.001,-0.421 0.015,-0.43C0.028,-0.439 0.044,-0.448 0.062,-0.458C0.08,-0.468 0.097,-0.477 0.115,-0.485C0.132,-0.492 0.144,-0.496 0.151,-0.496C0.168,-0.496 0.183,-0.492 0.196,-0.483C0.209,-0.474 0.22,-0.462 0.231,-0.447C0.241,-0.432 0.25,-0.416 0.257,-0.399C0.264,-0.381 0.27,-0.363 0.275,-0.345C0.288,-0.364 0.302,-0.382 0.318,-0.401C0.334,-0.42 0.351,-0.436 0.369,-0.451C0.386,-0.466 0.405,-0.478 0.424,-0.487C0.443,-0.496 0.461,-0.5 0.479,-0.5C0.49,-0.5 0.5,-0.499 0.508,-0.498C0.515,-0.496 0.522,-0.492 0.527,-0.486C0.526,-0.483 0.523,-0.474 0.518,-0.461C0.512,-0.448 0.505,-0.434 0.499,-0.419C0.492,-0.404 0.485,-0.39 0.479,-0.378C0.473,-0.366 0.469,-0.36 0.467,-0.36C0.463,-0.36 0.459,-0.362 0.454,-0.367C0.449,-0.371 0.444,-0.376 0.438,-0.381C0.432,-0.386 0.425,-0.39 0.417,-0.395C0.408,-0.399 0.398,-0.401 0.386,-0.401C0.363,-0.401 0.343,-0.391 0.328,-0.371C0.312,-0.351 0.301,-0.321 0.296,-0.282C0.298,-0.263 0.303,-0.242 0.312,-0.22C0.321,-0.198 0.331,-0.178 0.344,-0.159C0.357,-0.14 0.371,-0.125 0.387,-0.112C0.402,-0.099 0.418,-0.093 0.434,-0.093C0.457,-0.093 0.476,-0.097 0.491,-0.106C0.506,-0.114 0.518,-0.123 0.528,-0.132C0.529,-0.133 0.53,-0.133 0.532,-0.133C0.536,-0.133 0.538,-0.13 0.538,-0.125C0.538,-0.122 0.536,-0.118 0.531,-0.113C0.526,-0.108 0.521,-0.103 0.514,-0.099C0.506,-0.093 0.499,-0.088 0.492,-0.083C0.484,-0.078 0.477,-0.072 0.47,-0.067C0.451,-0.052 0.431,-0.036 0.41,-0.021C0.388,-0.006 0.367,0.006 0.348,0.013Z" style="fill-rule:nonzero;"/>
            </g>
            <g transform="matrix(12,0,0,12,-22.5355,23.5957)">
                <path d="M0.219,-0.302C0.222,-0.293 0.234,-0.284 0.254,-0.276C0.274,-0.267 0.3,-0.263 0.332,-0.263C0.361,-0.263 0.388,-0.269 0.413,-0.28C0.437,-0.291 0.458,-0.307 0.476,-0.329C0.493,-0.351 0.507,-0.378 0.517,-0.411C0.526,-0.443 0.531,-0.48 0.531,-0.523C0.531,-0.554 0.526,-0.583 0.517,-0.609C0.508,-0.634 0.495,-0.656 0.479,-0.674C0.462,-0.692 0.443,-0.706 0.421,-0.716C0.399,-0.726 0.375,-0.731 0.35,-0.731C0.336,-0.731 0.322,-0.729 0.309,-0.726C0.295,-0.722 0.283,-0.717 0.272,-0.713C0.261,-0.708 0.252,-0.702 0.245,-0.697C0.238,-0.691 0.233,-0.686 0.232,-0.681C0.231,-0.677 0.23,-0.667 0.229,-0.651C0.228,-0.635 0.227,-0.616 0.226,-0.593C0.225,-0.57 0.224,-0.544 0.223,-0.517C0.222,-0.489 0.221,-0.462 0.221,-0.435C0.22,-0.408 0.22,-0.383 0.22,-0.36C0.219,-0.336 0.219,-0.317 0.219,-0.302ZM0.1,-0.3C0.1,-0.381 0.099,-0.448 0.098,-0.499C0.097,-0.55 0.095,-0.591 0.092,-0.62C0.089,-0.649 0.086,-0.668 0.082,-0.679C0.078,-0.69 0.073,-0.695 0.067,-0.695C0.065,-0.695 0.061,-0.695 0.055,-0.695C0.049,-0.694 0.043,-0.694 0.036,-0.694C0.029,-0.694 0.022,-0.694 0.017,-0.695C0.012,-0.695 0.009,-0.696 0.009,-0.697L0.009,-0.709C0.009,-0.714 0.01,-0.718 0.013,-0.719C0.016,-0.72 0.024,-0.72 0.035,-0.72C0.046,-0.72 0.059,-0.72 0.075,-0.719C0.09,-0.718 0.105,-0.718 0.121,-0.718C0.137,-0.717 0.152,-0.717 0.165,-0.717L0.198,-0.717C0.206,-0.717 0.21,-0.718 0.209,-0.719C0.212,-0.719 0.218,-0.721 0.229,-0.726C0.239,-0.73 0.252,-0.735 0.268,-0.74C0.283,-0.745 0.301,-0.75 0.322,-0.755C0.342,-0.759 0.363,-0.761 0.385,-0.761C0.468,-0.761 0.534,-0.744 0.581,-0.709C0.628,-0.674 0.652,-0.625 0.652,-0.564C0.652,-0.512 0.642,-0.466 0.621,-0.425C0.6,-0.384 0.573,-0.349 0.54,-0.32C0.506,-0.291 0.468,-0.268 0.426,-0.253C0.383,-0.238 0.34,-0.23 0.297,-0.23C0.284,-0.23 0.269,-0.231 0.254,-0.232C0.238,-0.233 0.226,-0.236 0.219,-0.239L0.219,-0.174C0.219,-0.147 0.219,-0.121 0.22,-0.094C0.221,-0.067 0.222,-0.043 0.224,-0.022C0.226,0 0.229,0.014 0.232,0.021C0.234,0.026 0.238,0.029 0.245,0.03C0.251,0.031 0.258,0.031 0.266,0.031C0.274,0.03 0.282,0.029 0.291,0.029C0.299,0.028 0.306,0.027 0.312,0.027C0.314,0.028 0.315,0.029 0.316,0.032C0.317,0.034 0.317,0.037 0.317,0.04C0.317,0.043 0.317,0.045 0.316,0.048C0.315,0.05 0.314,0.051 0.312,0.051C0.299,0.051 0.285,0.053 0.269,0.056C0.252,0.058 0.235,0.063 0.217,0.068C0.198,0.073 0.18,0.078 0.162,0.085C0.143,0.092 0.126,0.099 0.109,0.106C0.093,0.113 0.073,0.123 0.049,0.138C0.025,0.152 0.001,0.166 -0.023,0.181C-0.047,0.195 -0.069,0.207 -0.089,0.218C-0.109,0.229 -0.123,0.234 -0.131,0.234C-0.134,0.234 -0.138,0.233 -0.143,0.23C-0.147,0.227 -0.151,0.224 -0.154,0.221C-0.157,0.218 -0.158,0.215 -0.157,0.212C-0.156,0.209 -0.153,0.206 -0.146,0.205C-0.129,0.202 -0.11,0.196 -0.087,0.185C-0.064,0.174 -0.042,0.163 -0.021,0.15C0,0.137 0.019,0.125 0.036,0.114C0.052,0.102 0.062,0.094 0.067,0.089C0.07,0.086 0.074,0.071 0.078,0.045C0.081,0.018 0.085,-0.014 0.088,-0.052C0.091,-0.089 0.094,-0.13 0.097,-0.175C0.099,-0.219 0.1,-0.261 0.1,-0.3Z" style="fill-rule:nonzero;"/>
            </g>
            <g transform="matrix(12,0,0,12,-15.1915,23.5957)">
                <path d="M0.359,-0.156C0.357,-0.167 0.355,-0.18 0.353,-0.193C0.351,-0.206 0.349,-0.219 0.347,-0.231C0.345,-0.243 0.343,-0.253 0.342,-0.262C0.34,-0.271 0.339,-0.276 0.338,-0.279C0.327,-0.275 0.315,-0.27 0.302,-0.265C0.289,-0.26 0.275,-0.254 0.262,-0.248C0.249,-0.241 0.236,-0.235 0.224,-0.229C0.212,-0.222 0.202,-0.216 0.194,-0.211C0.179,-0.201 0.167,-0.191 0.159,-0.181C0.151,-0.171 0.147,-0.159 0.147,-0.145C0.147,-0.126 0.153,-0.109 0.164,-0.094C0.175,-0.079 0.193,-0.072 0.217,-0.072C0.23,-0.072 0.243,-0.074 0.257,-0.079C0.27,-0.084 0.283,-0.089 0.295,-0.095C0.306,-0.101 0.316,-0.107 0.325,-0.113C0.334,-0.119 0.34,-0.124 0.343,-0.127C0.348,-0.132 0.353,-0.137 0.356,-0.141C0.359,-0.144 0.36,-0.149 0.359,-0.156ZM0.33,-0.311C0.326,-0.332 0.321,-0.35 0.316,-0.367C0.311,-0.383 0.304,-0.397 0.296,-0.408C0.288,-0.419 0.278,-0.427 0.267,-0.433C0.256,-0.438 0.242,-0.441 0.225,-0.441C0.21,-0.441 0.197,-0.438 0.185,-0.433C0.172,-0.428 0.162,-0.421 0.153,-0.414C0.143,-0.407 0.137,-0.399 0.132,-0.392C0.127,-0.385 0.124,-0.379 0.123,-0.375C0.122,-0.37 0.119,-0.367 0.114,-0.367C0.105,-0.367 0.096,-0.37 0.088,-0.377C0.08,-0.384 0.076,-0.392 0.076,-0.401C0.076,-0.406 0.077,-0.41 0.078,-0.413C0.093,-0.422 0.112,-0.431 0.134,-0.441C0.156,-0.451 0.179,-0.46 0.203,-0.469C0.226,-0.478 0.25,-0.485 0.273,-0.491C0.296,-0.496 0.317,-0.499 0.336,-0.499C0.364,-0.499 0.386,-0.495 0.401,-0.487C0.416,-0.479 0.427,-0.468 0.434,-0.453C0.441,-0.438 0.446,-0.421 0.448,-0.402C0.449,-0.382 0.451,-0.361 0.452,-0.338C0.454,-0.304 0.457,-0.271 0.46,-0.24C0.463,-0.208 0.468,-0.18 0.475,-0.156C0.482,-0.131 0.49,-0.112 0.501,-0.097C0.511,-0.082 0.524,-0.074 0.539,-0.074C0.546,-0.074 0.554,-0.075 0.563,-0.078C0.572,-0.081 0.58,-0.084 0.588,-0.088C0.596,-0.091 0.603,-0.095 0.61,-0.099C0.616,-0.102 0.62,-0.105 0.622,-0.106C0.628,-0.106 0.632,-0.103 0.633,-0.097C0.633,-0.094 0.632,-0.091 0.631,-0.088C0.63,-0.087 0.625,-0.083 0.616,-0.078C0.607,-0.073 0.597,-0.066 0.584,-0.059C0.571,-0.052 0.557,-0.044 0.542,-0.036C0.527,-0.027 0.511,-0.019 0.497,-0.012C0.482,-0.005 0.468,0.001 0.455,0.006C0.442,0.011 0.432,0.013 0.425,0.013C0.416,0.013 0.409,0.01 0.403,0.003C0.396,-0.005 0.391,-0.014 0.386,-0.026C0.381,-0.037 0.377,-0.051 0.374,-0.066C0.371,-0.081 0.368,-0.097 0.365,-0.114C0.353,-0.104 0.338,-0.092 0.319,-0.079C0.3,-0.065 0.28,-0.052 0.258,-0.04C0.236,-0.028 0.214,-0.018 0.191,-0.01C0.167,-0.001 0.145,0.003 0.124,0.003C0.106,0.003 0.09,0 0.077,-0.006C0.064,-0.011 0.053,-0.019 0.044,-0.028C0.035,-0.037 0.028,-0.048 0.024,-0.061C0.019,-0.073 0.017,-0.086 0.017,-0.099C0.017,-0.12 0.024,-0.138 0.037,-0.152C0.049,-0.165 0.07,-0.179 0.097,-0.194C0.11,-0.201 0.127,-0.21 0.15,-0.221C0.173,-0.232 0.196,-0.243 0.22,-0.254C0.243,-0.265 0.265,-0.276 0.286,-0.287C0.306,-0.297 0.321,-0.305 0.33,-0.311Z" style="fill-rule:nonzero;"/>
            </g>
            <g transform="matrix(12,0,0,12,-8.59154,23.5957)">
                <path d="M0.451,-0.454C0.45,-0.45 0.446,-0.444 0.44,-0.436C0.433,-0.427 0.426,-0.419 0.417,-0.41C0.408,-0.401 0.399,-0.392 0.39,-0.384C0.38,-0.375 0.371,-0.369 0.364,-0.365C0.359,-0.363 0.357,-0.364 0.356,-0.367C0.355,-0.37 0.354,-0.374 0.354,-0.377C0.354,-0.382 0.351,-0.389 0.346,-0.397C0.34,-0.405 0.332,-0.413 0.322,-0.421C0.311,-0.428 0.299,-0.435 0.285,-0.44C0.271,-0.445 0.256,-0.448 0.239,-0.448C0.21,-0.448 0.187,-0.433 0.169,-0.402C0.151,-0.371 0.142,-0.329 0.142,-0.278C0.142,-0.247 0.147,-0.219 0.157,-0.194C0.166,-0.169 0.18,-0.148 0.197,-0.131C0.214,-0.114 0.234,-0.1 0.258,-0.092C0.282,-0.083 0.308,-0.078 0.336,-0.078C0.374,-0.078 0.404,-0.083 0.427,-0.093C0.45,-0.102 0.468,-0.113 0.483,-0.126C0.484,-0.126 0.484,-0.126 0.485,-0.127C0.485,-0.128 0.485,-0.128 0.486,-0.128C0.489,-0.128 0.492,-0.127 0.493,-0.125C0.494,-0.122 0.495,-0.119 0.495,-0.116C0.495,-0.113 0.494,-0.111 0.493,-0.11C0.483,-0.102 0.469,-0.091 0.452,-0.078C0.434,-0.065 0.414,-0.051 0.391,-0.039C0.368,-0.025 0.345,-0.014 0.32,-0.005C0.295,0.004 0.271,0.009 0.247,0.009C0.178,0.009 0.125,-0.011 0.087,-0.051C0.048,-0.091 0.029,-0.146 0.029,-0.215C0.029,-0.268 0.039,-0.312 0.06,-0.348C0.08,-0.384 0.105,-0.413 0.135,-0.435C0.164,-0.456 0.196,-0.472 0.229,-0.481C0.262,-0.49 0.292,-0.495 0.317,-0.495C0.338,-0.495 0.356,-0.494 0.373,-0.491C0.389,-0.488 0.403,-0.484 0.415,-0.48C0.426,-0.475 0.435,-0.471 0.442,-0.466C0.448,-0.461 0.451,-0.457 0.451,-0.454Z" style="fill-rule:nonzero;"/>
            </g>
            <g transform="matrix(12,0,0,12,-3.22754,23.5957)">
                <path d="M0.167,-0.231C0.167,-0.218 0.167,-0.201 0.166,-0.181C0.165,-0.161 0.165,-0.14 0.165,-0.119C0.165,-0.095 0.169,-0.078 0.176,-0.068C0.183,-0.057 0.193,-0.052 0.205,-0.052C0.206,-0.052 0.207,-0.052 0.21,-0.053L0.227,-0.056C0.23,-0.057 0.231,-0.057 0.232,-0.057C0.233,-0.057 0.235,-0.056 0.237,-0.054C0.238,-0.051 0.239,-0.049 0.238,-0.048C0.234,-0.043 0.225,-0.038 0.211,-0.031C0.196,-0.024 0.18,-0.018 0.163,-0.012C0.145,-0.005 0.128,0 0.112,0.005C0.095,0.01 0.083,0.012 0.075,0.012C0.066,0.012 0.058,0.009 0.053,0.004C0.048,-0.001 0.045,-0.005 0.045,-0.008C0.045,-0.01 0.045,-0.011 0.046,-0.012L0.048,-0.018C0.049,-0.019 0.049,-0.022 0.05,-0.026C0.052,-0.035 0.054,-0.046 0.056,-0.06C0.058,-0.073 0.06,-0.09 0.062,-0.111C0.063,-0.131 0.065,-0.156 0.066,-0.185C0.067,-0.214 0.069,-0.248 0.07,-0.288C0.071,-0.319 0.071,-0.35 0.072,-0.381C0.072,-0.411 0.072,-0.439 0.073,-0.466C0.073,-0.493 0.073,-0.517 0.073,-0.54L0.073,-0.596C0.073,-0.628 0.071,-0.653 0.068,-0.671C0.065,-0.689 0.061,-0.701 0.057,-0.706C0.052,-0.713 0.046,-0.716 0.038,-0.717C0.029,-0.717 0.023,-0.717 0.02,-0.718C0.019,-0.724 0.02,-0.729 0.021,-0.734C0.022,-0.738 0.024,-0.742 0.027,-0.745C0.03,-0.748 0.035,-0.75 0.042,-0.75C0.054,-0.75 0.068,-0.75 0.084,-0.751C0.1,-0.751 0.117,-0.752 0.134,-0.753C0.151,-0.753 0.168,-0.755 0.185,-0.757C0.202,-0.758 0.216,-0.76 0.229,-0.763C0.233,-0.764 0.235,-0.763 0.236,-0.76C0.236,-0.756 0.235,-0.751 0.234,-0.744C0.233,-0.74 0.232,-0.737 0.229,-0.737C0.226,-0.736 0.222,-0.735 0.219,-0.735C0.215,-0.735 0.212,-0.735 0.209,-0.735C0.206,-0.734 0.203,-0.733 0.202,-0.73C0.201,-0.727 0.199,-0.722 0.197,-0.717C0.195,-0.712 0.193,-0.704 0.192,-0.694C0.19,-0.681 0.188,-0.663 0.186,-0.641C0.184,-0.618 0.182,-0.593 0.181,-0.566C0.179,-0.539 0.177,-0.51 0.176,-0.48C0.174,-0.45 0.172,-0.421 0.171,-0.393C0.17,-0.365 0.169,-0.339 0.168,-0.315C0.167,-0.291 0.167,-0.271 0.167,-0.256C0.186,-0.256 0.207,-0.261 0.23,-0.27C0.252,-0.279 0.273,-0.292 0.292,-0.308C0.311,-0.324 0.326,-0.343 0.339,-0.365C0.352,-0.386 0.358,-0.409 0.358,-0.434C0.358,-0.453 0.352,-0.463 0.339,-0.463C0.328,-0.463 0.319,-0.462 0.31,-0.459C0.301,-0.456 0.295,-0.454 0.292,-0.454C0.282,-0.454 0.276,-0.457 0.275,-0.462C0.275,-0.466 0.277,-0.471 0.28,-0.476C0.283,-0.481 0.287,-0.484 0.29,-0.485C0.304,-0.485 0.32,-0.486 0.338,-0.487C0.355,-0.488 0.373,-0.49 0.391,-0.493C0.409,-0.495 0.426,-0.497 0.443,-0.5C0.46,-0.503 0.474,-0.505 0.485,-0.507C0.488,-0.506 0.49,-0.504 0.49,-0.501C0.49,-0.495 0.485,-0.482 0.474,-0.462C0.463,-0.442 0.448,-0.42 0.43,-0.396C0.411,-0.372 0.39,-0.349 0.367,-0.326C0.344,-0.303 0.32,-0.286 0.295,-0.275C0.302,-0.27 0.312,-0.262 0.324,-0.249C0.336,-0.236 0.349,-0.222 0.364,-0.205C0.378,-0.188 0.393,-0.171 0.409,-0.153C0.425,-0.135 0.441,-0.119 0.458,-0.104C0.475,-0.089 0.491,-0.076 0.507,-0.067C0.522,-0.057 0.537,-0.052 0.551,-0.052C0.561,-0.052 0.569,-0.053 0.575,-0.055C0.58,-0.057 0.586,-0.06 0.592,-0.063C0.595,-0.061 0.597,-0.059 0.597,-0.056C0.597,-0.051 0.595,-0.046 0.59,-0.041C0.584,-0.036 0.573,-0.03 0.556,-0.025C0.545,-0.022 0.532,-0.017 0.517,-0.012C0.502,-0.006 0.488,-0 0.475,0.005C0.461,0.01 0.449,0.014 0.439,0.017C0.428,0.02 0.422,0.022 0.419,0.021C0.414,0.02 0.405,0.013 0.394,0.002C0.382,-0.01 0.369,-0.025 0.354,-0.042C0.339,-0.059 0.323,-0.077 0.306,-0.098C0.289,-0.118 0.272,-0.137 0.256,-0.155C0.239,-0.173 0.224,-0.189 0.21,-0.203C0.196,-0.217 0.184,-0.226 0.175,-0.231L0.167,-0.231Z" style="fill-rule:nonzero;"/>
            </g>
        </g>
        <g transform="matrix(0.0178906,0,0,0.0202937,-16.7622,10.0338)">
            <g transform="matrix(55.8954,0,0,49.2765,-878.032,-330.791)">
                <path d="M27.733,13.757C27.957,11.616 28.949,10 30.136,10C31.489,10 32.587,12.095 32.587,14.677C32.587,15.669 32.424,16.59 32.148,17.347C32.432,17.974 32.587,18.65 32.587,19.353C32.587,22.678 29.128,25.378 24.868,25.378C20.609,25.378 17.15,22.678 17.15,19.353C17.15,18.65 17.305,17.974 17.589,17.347C17.313,16.59 17.15,15.669 17.15,14.677C17.15,12.095 18.248,10 19.601,10C20.788,10 21.779,11.616 22.003,13.757L22.04,13.746C22.915,13.476 23.87,13.328 24.868,13.328C25.881,13.328 26.847,13.48 27.733,13.757ZM17.609,17.304L17.606,17.31L17.609,17.304ZM32.128,17.305L32.131,17.31L32.128,17.305ZM17.627,17.265L17.623,17.273L17.627,17.265ZM32.11,17.266L32.113,17.273L32.11,17.266ZM17.645,17.227L17.641,17.236L17.645,17.227ZM32.092,17.228L32.096,17.236L32.092,17.228ZM17.663,17.19L17.659,17.2L17.663,17.19ZM32.074,17.191L32.078,17.199L32.074,17.191ZM17.682,17.153L17.677,17.162L17.682,17.153ZM32.055,17.154L32.059,17.161L32.055,17.154ZM17.7,17.117L17.696,17.125L17.7,17.117ZM32.037,17.117L32.04,17.123L32.037,17.117ZM17.719,17.081L17.717,17.085L17.719,17.081ZM32.018,17.081L32.019,17.082L32.018,17.081ZM17.782,16.964L17.778,16.971L17.782,16.964ZM31.957,16.968L31.958,16.97L31.957,16.968ZM17.804,16.925L17.798,16.935L17.804,16.925ZM31.935,16.928L31.938,16.934L31.935,16.928ZM17.825,16.888L17.818,16.9L17.825,16.888ZM31.914,16.891L31.918,16.899L31.914,16.891ZM17.845,16.852L17.838,16.865L17.845,16.852ZM31.893,16.854L31.898,16.863L31.893,16.854ZM17.866,16.817L17.859,16.829L17.866,16.817ZM31.871,16.819L31.876,16.827L31.871,16.819ZM17.888,16.782L17.88,16.794L17.888,16.782ZM31.85,16.783L31.855,16.791L31.85,16.783ZM17.909,16.747L17.902,16.758L17.909,16.747ZM31.829,16.748L31.832,16.754L31.829,16.748ZM17.931,16.712L17.925,16.72L17.931,16.712ZM31.807,16.713L31.808,16.714L31.807,16.713ZM17.979,16.635L17.975,16.642L17.979,16.635ZM18.005,16.596L17.998,16.608L18.005,16.596ZM31.735,16.602L31.738,16.606L31.735,16.602ZM18.029,16.561L18.02,16.573L18.029,16.561ZM31.711,16.564L31.716,16.572L31.711,16.564ZM18.052,16.526L18.043,16.539L18.052,16.526ZM31.686,16.529L31.692,16.537L31.686,16.529ZM18.076,16.492L18.066,16.505L18.076,16.492ZM31.663,16.494L31.669,16.503L31.663,16.494ZM18.1,16.458L18.09,16.471L18.1,16.458ZM31.639,16.459L31.645,16.469L31.639,16.459ZM18.124,16.424L18.114,16.437L18.124,16.424ZM31.614,16.425L31.62,16.434L31.614,16.425ZM18.148,16.39L18.139,16.403L18.148,16.39ZM31.59,16.392L31.595,16.398L31.59,16.392ZM18.172,16.357L18.164,16.367L18.172,16.357ZM31.566,16.358L31.567,16.36L31.566,16.358ZM18.197,16.324L18.196,16.324L18.197,16.324ZM18.23,16.28L18.222,16.291L18.23,16.28ZM31.513,16.288L31.514,16.289L31.513,16.288ZM18.257,16.245L18.247,16.258L18.257,16.245ZM31.484,16.249L31.489,16.256L31.484,16.249ZM18.283,16.211L18.272,16.225L18.283,16.211ZM31.456,16.214L31.463,16.223L31.456,16.214ZM18.309,16.178L18.298,16.192L18.309,16.178ZM31.43,16.18L31.438,16.19L31.43,16.18ZM18.335,16.145L18.324,16.16L18.335,16.145ZM31.403,16.147L31.411,16.158L31.403,16.147ZM18.362,16.113L18.35,16.127L18.362,16.113ZM31.376,16.114L31.385,16.125L31.376,16.114ZM18.388,16.081L18.377,16.094L18.388,16.081ZM31.35,16.082L31.357,16.091L31.35,16.082ZM18.415,16.049L18.404,16.061L18.415,16.049ZM31.323,16.05L31.329,16.057L31.323,16.05ZM18.442,16.017L18.433,16.027L18.442,16.017ZM31.295,16.018L31.298,16.021L31.295,16.018ZM18.473,15.981L18.469,15.985L18.473,15.981ZM18.507,15.942L18.497,15.954L18.507,15.942ZM31.234,15.947L31.239,15.953L31.234,15.947ZM18.536,15.909L18.525,15.922L18.536,15.909ZM31.203,15.912L31.211,15.921L31.203,15.912ZM18.565,15.877L18.553,15.891L18.565,15.877ZM31.174,15.879L31.183,15.89L31.174,15.879ZM18.594,15.846L18.581,15.86L18.594,15.846ZM31.145,15.847L31.155,15.859L31.145,15.847ZM18.622,15.815L18.61,15.828L18.622,15.815ZM31.115,15.816L31.126,15.827L31.115,15.816ZM18.651,15.784L18.639,15.797L18.651,15.784ZM31.086,15.785L31.097,15.796L31.086,15.785ZM18.68,15.753L18.668,15.766L18.68,15.753ZM31.057,15.754L31.067,15.765L31.057,15.754ZM18.71,15.723L18.698,15.735L18.71,15.723ZM31.027,15.723L31.037,15.733L31.027,15.723ZM18.739,15.692L18.73,15.702L18.739,15.692ZM30.998,15.693L31.003,15.698L30.998,15.693ZM18.775,15.656L18.769,15.662L18.775,15.656ZM30.965,15.659L30.967,15.662L30.965,15.659ZM18.81,15.621L18.799,15.632L18.81,15.621ZM30.928,15.622L30.937,15.632L30.928,15.622ZM18.842,15.59L18.83,15.602L18.842,15.59ZM30.895,15.591L30.907,15.602L30.895,15.591ZM18.873,15.56L18.86,15.572L18.873,15.56ZM30.864,15.56L30.876,15.572L30.864,15.56ZM18.904,15.53L18.891,15.543L18.904,15.53ZM30.832,15.53L30.846,15.543L30.832,15.53ZM30.801,15.5L30.814,15.513L30.801,15.5ZM18.936,15.501L18.923,15.513L18.936,15.501ZM30.769,15.471L30.783,15.484L30.769,15.471ZM18.967,15.471L18.954,15.483L18.967,15.471ZM30.738,15.442L30.751,15.454L30.738,15.442ZM18.999,15.442L18.986,15.454L18.999,15.442ZM30.706,15.413L30.719,15.425L30.706,15.413ZM19.031,15.413L19.019,15.424L19.031,15.413ZM30.674,15.384L30.684,15.394L30.674,15.384ZM19.063,15.385L19.056,15.391L19.063,15.385ZM30.63,15.346L30.642,15.356L30.63,15.346ZM19.101,15.35L19.095,15.356L19.101,15.35ZM30.595,15.315L30.61,15.328L30.595,15.315ZM19.139,15.318L19.128,15.327L19.139,15.318ZM30.561,15.286L30.577,15.3L30.561,15.286ZM19.173,15.288L19.161,15.299L19.173,15.288ZM30.528,15.258L30.544,15.272L30.528,15.258ZM19.207,15.26L19.194,15.271L19.207,15.26ZM30.494,15.23L30.511,15.244L30.494,15.23ZM19.241,15.231L19.227,15.243L19.241,15.231ZM30.461,15.202L30.478,15.216L30.461,15.202ZM19.274,15.204L19.261,15.215L19.274,15.204ZM30.427,15.175L30.444,15.189L30.427,15.175ZM19.308,15.176L19.295,15.187L19.308,15.176ZM30.393,15.147L30.41,15.161L30.393,15.147ZM19.342,15.149L19.33,15.158L19.342,15.149ZM30.359,15.12L30.376,15.134L30.359,15.12ZM19.377,15.121L19.366,15.129L19.377,15.121ZM30.325,15.093L30.343,15.107L30.326,15.094L30.305,15.078L30.325,15.093ZM19.411,15.094L19.409,15.096L19.411,15.094ZM30.273,15.053L30.292,15.068L30.273,15.053ZM19.452,15.062L19.446,15.067L19.452,15.062ZM30.238,15.027L30.257,15.041L30.238,15.027ZM19.492,15.032L19.481,15.04L19.492,15.032ZM30.203,15L30.222,15.015L30.203,15ZM19.529,15.004L19.516,15.013L19.529,15.004ZM30.168,14.974L30.187,14.989L30.168,14.974ZM19.565,14.977L19.552,14.987L19.565,14.977ZM30.132,14.948L30.152,14.963L30.132,14.948ZM19.601,14.951L19.588,14.961L19.601,14.951ZM30.097,14.922L30.117,14.937L30.097,14.922ZM19.637,14.925L19.624,14.934L19.637,14.925ZM30.061,14.897L30.081,14.911L30.061,14.897ZM19.673,14.899L19.661,14.908L19.673,14.899ZM30.025,14.871L30.046,14.886L30.025,14.871ZM19.71,14.873L19.698,14.881L19.71,14.873ZM29.988,14.846L30.011,14.862L29.988,14.846ZM19.746,14.848L19.738,14.853L19.746,14.848ZM29.954,14.822L29.915,14.796C29.928,14.805 29.941,14.813 29.954,14.822ZM19.826,14.793L19.821,14.796L19.826,14.793ZM29.858,14.758L29.881,14.773L29.858,14.758ZM19.868,14.765L19.858,14.771L19.868,14.765ZM29.822,14.734L29.845,14.749L29.822,14.734ZM19.907,14.739L19.896,14.747L19.907,14.739ZM29.785,14.71L29.807,14.724L29.785,14.71ZM19.946,14.714L19.933,14.722L19.946,14.714ZM29.747,14.686L29.77,14.7L29.747,14.686ZM19.984,14.689L19.971,14.697L19.984,14.689ZM29.71,14.662L29.733,14.676L29.71,14.662ZM20.023,14.665L20.01,14.673L20.023,14.665ZM29.672,14.638L29.696,14.653L29.672,14.638ZM20.061,14.641L20.049,14.648L20.061,14.641ZM29.634,14.615L29.659,14.63L29.634,14.615ZM20.099,14.617L20.09,14.623L20.099,14.617ZM29.494,14.531C29.537,14.556 29.58,14.582 29.623,14.608C29.581,14.582 29.538,14.556 29.494,14.531ZM20.138,14.593L20.134,14.596L20.138,14.593ZM20.221,14.543L20.218,14.545L20.221,14.543ZM29.458,14.51L29.483,14.525L29.458,14.51ZM20.266,14.517L20.257,14.522L20.266,14.517ZM29.42,14.488L29.444,14.502L29.42,14.488ZM20.308,14.493L20.297,14.499L20.308,14.493ZM29.381,14.466L29.405,14.48L29.381,14.466ZM20.349,14.47L20.337,14.477L20.349,14.47ZM29.341,14.444L29.366,14.457L29.341,14.444ZM20.389,14.447L20.377,14.454L20.389,14.447ZM29.302,14.422L29.327,14.436L29.302,14.422ZM20.43,14.425L20.418,14.431L20.43,14.425ZM29.262,14.4L29.288,14.414L29.262,14.4ZM20.47,14.403L20.46,14.408L20.47,14.403ZM29.222,14.379L29.249,14.393L29.222,14.379ZM20.51,14.381L20.503,14.385L20.51,14.381ZM29.186,14.359L29.143,14.337C29.157,14.344 29.171,14.352 29.186,14.359ZM29.077,14.303L29.105,14.317L29.077,14.303ZM20.638,14.314L20.636,14.315L20.638,14.314ZM29.038,14.283L29.064,14.296L29.038,14.283ZM20.685,14.29L20.677,14.294L20.685,14.29ZM28.998,14.263L29.023,14.276L28.998,14.263ZM20.729,14.268L20.719,14.273L20.729,14.268ZM28.957,14.243L28.982,14.255L28.957,14.243ZM20.772,14.247L20.761,14.252L20.772,14.247ZM28.916,14.223L28.941,14.235L28.916,14.223ZM20.814,14.226L20.803,14.232L20.814,14.226ZM28.875,14.203L28.899,14.215L28.875,14.203ZM20.857,14.206L20.846,14.211L20.857,14.206ZM28.833,14.184L28.858,14.195L28.833,14.184ZM20.899,14.186L20.891,14.19L20.899,14.186ZM28.791,14.164L28.817,14.176L28.791,14.164ZM20.942,14.166L20.937,14.168L20.942,14.166ZM28.752,14.146L28.707,14.126C28.722,14.133 28.737,14.139 28.752,14.146ZM28.643,14.097L28.667,14.108L28.643,14.097ZM21.075,14.106L21.074,14.106L21.075,14.106ZM28.601,14.079L28.624,14.089L28.601,14.079ZM21.124,14.084L21.117,14.087L21.124,14.084ZM28.558,14.061L28.581,14.071L28.558,14.061ZM21.17,14.065L21.161,14.068L21.17,14.065ZM28.516,14.043L28.538,14.052L28.516,14.043ZM21.215,14.046L21.204,14.05L21.215,14.046ZM28.473,14.025L28.494,14.034L28.473,14.025ZM21.259,14.027L21.249,14.031L21.259,14.027ZM28.429,14.007L28.451,14.016L28.429,14.007ZM21.303,14.009L21.294,14.013L21.303,14.009ZM28.386,13.989L28.406,13.998L28.386,13.989ZM21.347,13.991L21.341,13.994L21.347,13.991ZM28.342,13.972L28.361,13.979L28.342,13.972ZM21.392,13.973L21.391,13.974L21.392,13.973ZM28.298,13.955L28.311,13.96L28.298,13.955ZM28.243,13.934L28.254,13.938L28.243,13.934ZM28.195,13.915L28.21,13.921L28.195,13.915ZM21.531,13.92L21.53,13.92L21.531,13.92ZM28.149,13.898L28.165,13.904L28.149,13.898ZM21.581,13.901L21.575,13.903L21.581,13.901ZM28.103,13.882L28.119,13.888L28.103,13.882ZM21.629,13.884L21.62,13.887L21.629,13.884ZM28.058,13.866L28.074,13.871L28.058,13.866ZM21.675,13.867L21.666,13.87L21.675,13.867ZM28.013,13.85L28.028,13.855L28.013,13.85ZM21.721,13.851L21.713,13.854L21.721,13.851ZM27.968,13.834L27.981,13.839L27.968,13.834ZM21.767,13.835L21.76,13.837L21.767,13.835ZM27.922,13.819L27.932,13.822L27.922,13.819ZM21.813,13.819L21.809,13.821L21.813,13.819ZM27.877,13.803L27.879,13.804L27.877,13.803Z" style="fill:none;stroke:black;stroke-width:1.22px;"/>
            </g>
            <g transform="matrix(55.8954,0,0,49.2765,-878.032,-330.791)">
                <path d="M25.128,19.358C24.963,19.04 24.868,18.67 24.868,18.275C24.868,17.096 25.713,16.138 26.753,16.138C27.793,16.138 28.637,17.096 28.637,18.275C28.637,19.031 28.291,19.696 27.768,20.076C27.128,19.668 26.188,19.396 25.128,19.358ZM21.969,20.076C21.446,19.696 21.099,19.031 21.099,18.275C21.099,17.096 21.944,16.138 22.984,16.138C24.024,16.138 24.868,17.096 24.868,18.275C24.868,18.67 24.774,19.04 24.609,19.358C23.549,19.396 22.609,19.668 21.969,20.076Z" style="fill:none;stroke:black;stroke-width:1.22px;"/>
            </g>
            <g transform="matrix(1,0,0,1,-53.1856,50.0357)">
                <ellipse cx="565.186" cy="671.455" rx="210.672" ry="98.631" style="fill:none;stroke:black;stroke-width:63.81px;"/>
            </g>
            <g transform="matrix(51.2,0,0,45.1371,0.670978,88.9676)">
                <path d="M12.057,13.791C12.057,13.668 11.958,13.568 11.835,13.568L8.139,13.568C8.016,13.568 7.916,13.668 7.916,13.791L7.916,14.236C7.916,14.359 8.016,14.458 8.139,14.458L11.835,14.458C11.958,14.458 12.057,14.359 12.057,14.236L12.057,13.791Z"/>
            </g>
        </g>
    </g>
</svg>
