<?xml version="1.0" encoding="UTF-8" standalone="no"?>
<!DOCTYPE svg PUBLIC "-//W3C//DTD SVG 1.1//EN" "http://www.w3.org/Graphics/SVG/1.1/DTD/svg11.dtd">
<svg width="100%" height="100%" viewBox="0 0 105 380" version="1.1" xmlns="http://www.w3.org/2000/svg" xmlns:xlink="http://www.w3.org/1999/xlink" xml:space="preserve" xmlns:serif="http://www.serif.com/" style="fill-rule:evenodd;clip-rule:evenodd;stroke-linecap:round;stroke-linejoin:round;stroke-miterlimit:1.5;">
    <g transform="matrix(0.504595,0,0,2.01589,-26.5196,-120.797)">
        <rect x="52.556" y="59.922" width="208.087" height="188.503" style="fill:rgb(154,178,191);stroke:rgb(5,5,5);stroke-width:1.36px;"/>
    </g>
    <g transform="matrix(1,0,0,1,-25.3465,0)">
        <g id="Right-output" serif:id="Right#output" transform="matrix(0.175002,0,0,0.175002,57.2139,322.943)">
            <rect x="53.94" y="106.916" width="161.978" height="161.978" style="fill:rgb(77,77,77);"/>
        </g>
        <g transform="matrix(1,0,0,1,-45.3679,241.05)">
            <path d="M89.618,118.306L89.618,113.236L90.638,113.236L90.638,113.776C90.845,113.59 91.048,113.443 91.248,113.336C91.448,113.23 91.695,113.176 91.988,113.176L91.988,114.256C91.888,114.216 91.785,114.196 91.678,114.196C91.571,114.196 91.456,114.215 91.333,114.251C91.21,114.288 91.098,114.35 90.998,114.436C90.891,114.523 90.805,114.636 90.738,114.776C90.671,114.916 90.638,115.09 90.638,115.296L90.638,118.306L89.618,118.306Z" style="fill:rgb(5,5,5);fill-rule:nonzero;"/>
            <path d="M92.398,118.306L92.398,113.236L93.418,113.236L93.418,118.306L92.398,118.306ZM92.398,112.206L92.398,111.186L93.418,111.186L93.418,112.206L92.398,112.206Z" style="fill:rgb(5,5,5);fill-rule:nonzero;"/>
            <path d="M95.278,118.896C95.285,119.016 95.333,119.13 95.423,119.236C95.513,119.343 95.645,119.396 95.818,119.396C95.985,119.396 96.105,119.345 96.178,119.241C96.251,119.138 96.288,119.006 96.288,118.846L96.288,117.846L96.268,117.846C96.155,118.013 96.02,118.141 95.863,118.231C95.706,118.321 95.525,118.366 95.318,118.366C94.891,118.366 94.595,118.206 94.428,117.886C94.368,117.773 94.325,117.633 94.298,117.466C94.271,117.3 94.258,117.076 94.258,116.796L94.258,114.866C94.258,114.5 94.268,114.23 94.288,114.056C94.328,113.723 94.485,113.473 94.758,113.306C94.885,113.22 95.075,113.176 95.328,113.176C95.455,113.176 95.563,113.19 95.653,113.216C95.743,113.243 95.825,113.28 95.898,113.326C95.971,113.373 96.038,113.428 96.098,113.491C96.158,113.555 96.221,113.623 96.288,113.696L96.288,113.236L97.308,113.236L97.308,118.926C97.308,119.1 97.28,119.275 97.223,119.451C97.166,119.628 97.075,119.786 96.948,119.926C96.821,120.073 96.661,120.191 96.468,120.281C96.275,120.371 96.045,120.416 95.778,120.416C95.625,120.416 95.465,120.391 95.298,120.341C95.131,120.291 94.978,120.206 94.838,120.086C94.691,119.973 94.566,119.821 94.463,119.631C94.36,119.441 94.291,119.196 94.258,118.896L95.278,118.896ZM95.278,116.746C95.278,116.906 95.313,117.046 95.383,117.166C95.453,117.286 95.585,117.346 95.778,117.346C95.925,117.346 96.046,117.295 96.143,117.191C96.24,117.088 96.288,116.956 96.288,116.796L96.288,114.826C96.288,114.64 96.241,114.488 96.148,114.371C96.055,114.255 95.931,114.196 95.778,114.196C95.605,114.196 95.478,114.26 95.398,114.386C95.318,114.513 95.278,114.68 95.278,114.886L95.278,116.746Z" style="fill:rgb(5,5,5);fill-rule:nonzero;"/>
            <path d="M98.148,118.306L98.148,111.186L99.168,111.186L99.168,113.726L99.188,113.726C99.295,113.566 99.423,113.435 99.573,113.331C99.723,113.228 99.915,113.176 100.148,113.176C100.275,113.176 100.401,113.198 100.528,113.241C100.655,113.285 100.768,113.356 100.868,113.456C100.968,113.556 101.048,113.685 101.108,113.841C101.168,113.998 101.198,114.19 101.198,114.416L101.198,118.306L100.178,118.306L100.178,114.796C100.178,114.61 100.135,114.463 100.048,114.356C99.961,114.25 99.838,114.196 99.678,114.196C99.485,114.196 99.351,114.256 99.278,114.376C99.205,114.496 99.168,114.67 99.168,114.896L99.168,118.306L98.148,118.306Z" style="fill:rgb(5,5,5);fill-rule:nonzero;"/>
            <path d="M102.038,113.236L102.038,111.696L103.058,111.696L103.058,113.236L103.688,113.236L103.688,114.036L103.058,114.036L103.058,116.846C103.058,116.966 103.07,117.06 103.093,117.126C103.116,117.193 103.155,117.243 103.208,117.276C103.261,117.31 103.326,117.33 103.403,117.336C103.48,117.343 103.575,117.346 103.688,117.346L103.688,118.306L103.268,118.306C103.035,118.306 102.84,118.27 102.683,118.196C102.526,118.123 102.401,118.03 102.308,117.916C102.215,117.803 102.146,117.675 102.103,117.531C102.06,117.388 102.038,117.25 102.038,117.116L102.038,114.036L101.528,114.036L101.528,113.236L102.038,113.236Z" style="fill:rgb(5,5,5);fill-rule:nonzero;"/>
        </g>
        <g transform="matrix(1,0,0,1,-45.3679,241.05)">
            <text x="89.198px" y="118.306px" style="font-family:'DINCondensed-Bold', 'DIN Condensed';font-weight:700;font-stretch:condensed;font-size:10px;fill:rgb(5,5,5);">right</text>
        </g>
    </g>
    <g transform="matrix(1,0,0,1,-25.3465,-37.6729)">
        <g id="Left-output" serif:id="Left#output" transform="matrix(0.175002,0,0,0.175002,57.2139,322.943)">
            <rect x="53.94" y="106.916" width="161.978" height="161.978" style="fill:rgb(77,77,77);"/>
        </g>
        <g transform="matrix(1,0,0,1,-45.3679,241.05)">
            <path d="M89.558,111.186L90.578,111.186L90.578,116.876C90.578,117.07 90.613,117.201 90.683,117.271C90.753,117.341 90.885,117.386 91.078,117.406L91.078,118.366C90.845,118.366 90.635,118.348 90.448,118.311C90.261,118.275 90.101,118.203 89.968,118.096C89.835,117.996 89.733,117.855 89.663,117.671C89.593,117.488 89.558,117.246 89.558,116.946L89.558,111.186Z" style="fill:rgb(5,5,5);fill-rule:nonzero;"/>
            <path d="M94.428,116.156L92.408,116.156L92.408,116.846C92.408,117.006 92.453,117.13 92.543,117.216C92.633,117.303 92.755,117.346 92.908,117.346C93.101,117.346 93.23,117.29 93.293,117.176C93.356,117.063 93.395,116.95 93.408,116.836L94.428,116.836C94.428,117.283 94.291,117.643 94.018,117.916C93.885,118.056 93.725,118.166 93.538,118.246C93.351,118.326 93.141,118.366 92.908,118.366C92.588,118.366 92.316,118.3 92.093,118.166C91.87,118.033 91.698,117.856 91.578,117.636C91.505,117.503 91.455,117.35 91.428,117.176C91.401,117.003 91.388,116.813 91.388,116.606L91.388,114.936C91.388,114.73 91.401,114.54 91.428,114.366C91.455,114.193 91.505,114.04 91.578,113.906C91.698,113.686 91.87,113.51 92.093,113.376C92.316,113.243 92.588,113.176 92.908,113.176C93.141,113.176 93.353,113.216 93.543,113.296C93.733,113.376 93.895,113.486 94.028,113.626C94.295,113.926 94.428,114.303 94.428,114.756L94.428,116.156ZM92.408,115.356L93.408,115.356L93.408,114.776C93.408,114.583 93.363,114.438 93.273,114.341C93.183,114.245 93.061,114.196 92.908,114.196C92.755,114.196 92.633,114.245 92.543,114.341C92.453,114.438 92.408,114.583 92.408,114.776L92.408,115.356Z" style="fill:rgb(5,5,5);fill-rule:nonzero;"/>
            <path d="M95.308,118.306L95.308,114.036L94.808,114.036L94.808,113.236L95.308,113.236L95.308,112.546C95.308,112.3 95.345,112.091 95.418,111.921C95.491,111.751 95.591,111.61 95.718,111.496C95.838,111.383 95.976,111.303 96.133,111.256C96.29,111.21 96.451,111.186 96.618,111.186L97.088,111.186L97.088,112.146L96.628,112.146C96.428,112.146 96.328,112.263 96.328,112.496L96.328,113.236L97.088,113.236L97.088,114.036L96.328,114.036L96.328,118.306L95.308,118.306Z" style="fill:rgb(5,5,5);fill-rule:nonzero;"/>
            <path d="M97.398,113.236L97.398,111.696L98.418,111.696L98.418,113.236L99.048,113.236L99.048,114.036L98.418,114.036L98.418,116.846C98.418,116.966 98.43,117.06 98.453,117.126C98.476,117.193 98.515,117.243 98.568,117.276C98.621,117.31 98.686,117.33 98.763,117.336C98.84,117.343 98.935,117.346 99.048,117.346L99.048,118.306L98.628,118.306C98.395,118.306 98.2,118.27 98.043,118.196C97.886,118.123 97.761,118.03 97.668,117.916C97.575,117.803 97.506,117.675 97.463,117.531C97.42,117.388 97.398,117.25 97.398,117.116L97.398,114.036L96.888,114.036L96.888,113.236L97.398,113.236Z" style="fill:rgb(5,5,5);fill-rule:nonzero;"/>
        </g>
        <g transform="matrix(1,0,0,1,-45.3679,241.05)">
            <text x="89.198px" y="118.306px" style="font-family:'DINCondensed-Bold', 'DIN Condensed';font-weight:700;font-stretch:condensed;font-size:10px;fill:rgb(5,5,5);">left</text>
        </g>
    </g>
    <g transform="matrix(1,0,0,1,1.24345e-14,180.303)">
        <rect x="10" y="115.342" width="85" height="1.938" style="fill:rgb(102,102,102);"/>
    </g>
    <g transform="matrix(1,0,0,1,1.77636e-15,27.4634)">
        <g id="Pitch-input" serif:id="Pitch#input" transform="matrix(0.175002,0,0,0.175002,31.9275,205.701)">
            <rect x="53.94" y="106.916" width="161.978" height="161.978" style="fill:rgb(217,217,217);"/>
        </g>
        <g transform="matrix(1,0,0,1,-79.6179,123.809)">
            <path d="M89.618,120.356L89.618,113.236L90.638,113.236L90.638,113.696C90.765,113.55 90.895,113.426 91.028,113.326C91.161,113.226 91.355,113.176 91.608,113.176C92.028,113.176 92.325,113.336 92.498,113.656C92.558,113.77 92.601,113.91 92.628,114.076C92.655,114.243 92.668,114.466 92.668,114.746L92.668,116.676C92.668,117.05 92.658,117.32 92.638,117.486C92.598,117.82 92.445,118.07 92.178,118.236C92.045,118.323 91.851,118.366 91.598,118.366C91.398,118.366 91.22,118.321 91.063,118.231C90.906,118.141 90.771,118.013 90.658,117.846L90.638,117.846L90.638,120.356L89.618,120.356ZM91.648,114.886C91.648,114.68 91.608,114.513 91.528,114.386C91.448,114.26 91.321,114.196 91.148,114.196C90.995,114.196 90.871,114.255 90.778,114.371C90.685,114.488 90.638,114.64 90.638,114.826L90.638,116.796C90.638,116.956 90.686,117.088 90.783,117.191C90.88,117.295 91.001,117.346 91.148,117.346C91.341,117.346 91.473,117.286 91.543,117.166C91.613,117.046 91.648,116.906 91.648,116.746L91.648,114.886Z" style="fill:rgb(5,5,5);fill-rule:nonzero;"/>
            <path d="M93.508,118.306L93.508,113.236L94.528,113.236L94.528,118.306L93.508,118.306ZM93.508,112.206L93.508,111.186L94.528,111.186L94.528,112.206L93.508,112.206Z" style="fill:rgb(5,5,5);fill-rule:nonzero;"/>
            <path d="M95.368,113.236L95.368,111.696L96.388,111.696L96.388,113.236L97.018,113.236L97.018,114.036L96.388,114.036L96.388,116.846C96.388,116.966 96.4,117.06 96.423,117.126C96.446,117.193 96.485,117.243 96.538,117.276C96.591,117.31 96.656,117.33 96.733,117.336C96.81,117.343 96.905,117.346 97.018,117.346L97.018,118.306L96.598,118.306C96.365,118.306 96.17,118.27 96.013,118.196C95.856,118.123 95.731,118.03 95.638,117.916C95.545,117.803 95.476,117.675 95.433,117.531C95.39,117.388 95.368,117.25 95.368,117.116L95.368,114.036L94.858,114.036L94.858,113.236L95.368,113.236Z" style="fill:rgb(5,5,5);fill-rule:nonzero;"/>
            <path d="M98.488,116.846C98.488,117.006 98.533,117.13 98.623,117.216C98.713,117.303 98.835,117.346 98.988,117.346C99.181,117.346 99.31,117.29 99.373,117.176C99.436,117.063 99.475,116.95 99.488,116.836L100.508,116.836C100.508,117.283 100.371,117.643 100.098,117.916C99.965,118.056 99.805,118.166 99.618,118.246C99.431,118.326 99.221,118.366 98.988,118.366C98.668,118.366 98.396,118.3 98.173,118.166C97.95,118.033 97.778,117.856 97.658,117.636C97.585,117.503 97.535,117.35 97.508,117.176C97.481,117.003 97.468,116.813 97.468,116.606L97.468,114.936C97.468,114.73 97.481,114.54 97.508,114.366C97.535,114.193 97.585,114.04 97.658,113.906C97.778,113.686 97.95,113.51 98.173,113.376C98.396,113.243 98.668,113.176 98.988,113.176C99.221,113.176 99.433,113.216 99.623,113.296C99.813,113.376 99.975,113.486 100.108,113.626C100.375,113.926 100.508,114.316 100.508,114.796L99.488,114.796C99.488,114.59 99.443,114.438 99.353,114.341C99.263,114.245 99.141,114.196 98.988,114.196C98.835,114.196 98.713,114.245 98.623,114.341C98.533,114.438 98.488,114.583 98.488,114.776L98.488,116.846Z" style="fill:rgb(5,5,5);fill-rule:nonzero;"/>
            <path d="M100.988,118.306L100.988,111.186L102.008,111.186L102.008,113.726L102.028,113.726C102.135,113.566 102.263,113.435 102.413,113.331C102.563,113.228 102.755,113.176 102.988,113.176C103.115,113.176 103.241,113.198 103.368,113.241C103.495,113.285 103.608,113.356 103.708,113.456C103.808,113.556 103.888,113.685 103.948,113.841C104.008,113.998 104.038,114.19 104.038,114.416L104.038,118.306L103.018,118.306L103.018,114.796C103.018,114.61 102.975,114.463 102.888,114.356C102.801,114.25 102.678,114.196 102.518,114.196C102.325,114.196 102.191,114.256 102.118,114.376C102.045,114.496 102.008,114.67 102.008,114.896L102.008,118.306L100.988,118.306Z" style="fill:rgb(5,5,5);fill-rule:nonzero;"/>
        </g>
        <g transform="matrix(1,0,0,1,-79.6179,123.809)">
            <text x="89.198px" y="118.306px" style="font-family:'DINCondensed-Bold', 'DIN Condensed';font-weight:700;font-stretch:condensed;font-size:10px;fill:rgb(5,5,5);">pitc<tspan x="100.568px " y="118.306px ">h</tspan></text>
        </g>
    </g>
    <g transform="matrix(1,0,0,1,0,120.115)">
        <rect x="10" y="115.342" width="85" height="1.938" style="fill:rgb(102,102,102);"/>
    </g>
    <g transform="matrix(1,0,0,1,-65.22,-80.5383)">
        <g id="Loop-ledbutton" serif:id="Loop#ledbutton" transform="matrix(1,0,0,1,49.0141,-22.5512)">
            <circle cx="101.308" cy="310.24" r="9.898" style="fill:rgb(115,115,115);"/>
        </g>
        <g id="LoopOverride-input" serif:id="LoopOverride#input" transform="matrix(0.175002,0,0,0.175002,97.0875,254.805)">
            <rect x="53.94" y="106.916" width="161.978" height="161.978" style="fill:rgb(217,217,217);"/>
        </g>
        <g transform="matrix(1,0,0,1,-14.4579,172.912)">
            <path d="M89.558,111.186L90.578,111.186L90.578,116.876C90.578,117.07 90.613,117.201 90.683,117.271C90.753,117.341 90.885,117.386 91.078,117.406L91.078,118.366C90.845,118.366 90.635,118.348 90.448,118.311C90.261,118.275 90.101,118.203 89.968,118.096C89.835,117.996 89.733,117.855 89.663,117.671C89.593,117.488 89.558,117.246 89.558,116.946L89.558,111.186Z" style="fill:rgb(5,5,5);fill-rule:nonzero;"/>
            <path d="M91.388,114.936C91.388,114.73 91.401,114.54 91.428,114.366C91.455,114.193 91.505,114.04 91.578,113.906C91.698,113.686 91.87,113.51 92.093,113.376C92.316,113.243 92.588,113.176 92.908,113.176C93.228,113.176 93.5,113.243 93.723,113.376C93.946,113.51 94.118,113.686 94.238,113.906C94.311,114.04 94.361,114.193 94.388,114.366C94.415,114.54 94.428,114.73 94.428,114.936L94.428,116.606C94.428,116.813 94.415,117.003 94.388,117.176C94.361,117.35 94.311,117.503 94.238,117.636C94.118,117.856 93.946,118.033 93.723,118.166C93.5,118.3 93.228,118.366 92.908,118.366C92.588,118.366 92.316,118.3 92.093,118.166C91.87,118.033 91.698,117.856 91.578,117.636C91.505,117.503 91.455,117.35 91.428,117.176C91.401,117.003 91.388,116.813 91.388,116.606L91.388,114.936ZM92.408,116.766C92.408,116.96 92.453,117.105 92.543,117.201C92.633,117.298 92.755,117.346 92.908,117.346C93.061,117.346 93.183,117.298 93.273,117.201C93.363,117.105 93.408,116.96 93.408,116.766L93.408,114.776C93.408,114.583 93.363,114.438 93.273,114.341C93.183,114.245 93.061,114.196 92.908,114.196C92.755,114.196 92.633,114.245 92.543,114.341C92.453,114.438 92.408,114.583 92.408,114.776L92.408,116.766Z" style="fill:rgb(5,5,5);fill-rule:nonzero;"/>
            <path d="M95.088,114.936C95.088,114.73 95.101,114.54 95.128,114.366C95.155,114.193 95.205,114.04 95.278,113.906C95.398,113.686 95.57,113.51 95.793,113.376C96.016,113.243 96.288,113.176 96.608,113.176C96.928,113.176 97.2,113.243 97.423,113.376C97.646,113.51 97.818,113.686 97.938,113.906C98.011,114.04 98.061,114.193 98.088,114.366C98.115,114.54 98.128,114.73 98.128,114.936L98.128,116.606C98.128,116.813 98.115,117.003 98.088,117.176C98.061,117.35 98.011,117.503 97.938,117.636C97.818,117.856 97.646,118.033 97.423,118.166C97.2,118.3 96.928,118.366 96.608,118.366C96.288,118.366 96.016,118.3 95.793,118.166C95.57,118.033 95.398,117.856 95.278,117.636C95.205,117.503 95.155,117.35 95.128,117.176C95.101,117.003 95.088,116.813 95.088,116.606L95.088,114.936ZM96.108,116.766C96.108,116.96 96.153,117.105 96.243,117.201C96.333,117.298 96.455,117.346 96.608,117.346C96.761,117.346 96.883,117.298 96.973,117.201C97.063,117.105 97.108,116.96 97.108,116.766L97.108,114.776C97.108,114.583 97.063,114.438 96.973,114.341C96.883,114.245 96.761,114.196 96.608,114.196C96.455,114.196 96.333,114.245 96.243,114.341C96.153,114.438 96.108,114.583 96.108,114.776L96.108,116.766Z" style="fill:rgb(5,5,5);fill-rule:nonzero;"/>
            <path d="M98.878,120.356L98.878,113.236L99.898,113.236L99.898,113.696C100.025,113.55 100.155,113.426 100.288,113.326C100.421,113.226 100.615,113.176 100.868,113.176C101.288,113.176 101.585,113.336 101.758,113.656C101.818,113.77 101.861,113.91 101.888,114.076C101.915,114.243 101.928,114.466 101.928,114.746L101.928,116.676C101.928,117.05 101.918,117.32 101.898,117.486C101.858,117.82 101.705,118.07 101.438,118.236C101.305,118.323 101.111,118.366 100.858,118.366C100.658,118.366 100.48,118.321 100.323,118.231C100.166,118.141 100.031,118.013 99.918,117.846L99.898,117.846L99.898,120.356L98.878,120.356ZM100.908,114.886C100.908,114.68 100.868,114.513 100.788,114.386C100.708,114.26 100.581,114.196 100.408,114.196C100.255,114.196 100.131,114.255 100.038,114.371C99.945,114.488 99.898,114.64 99.898,114.826L99.898,116.796C99.898,116.956 99.946,117.088 100.043,117.191C100.14,117.295 100.261,117.346 100.408,117.346C100.601,117.346 100.733,117.286 100.803,117.166C100.873,117.046 100.908,116.906 100.908,116.746L100.908,114.886Z" style="fill:rgb(5,5,5);fill-rule:nonzero;"/>
        </g>
        <g transform="matrix(1,0,0,1,-14.4579,172.912)">
            <text x="89.198px" y="118.306px" style="font-family:'DINCondensed-Bold', 'DIN Condensed';font-weight:700;font-stretch:condensed;font-size:10px;fill:rgb(5,5,5);">loop</text>
        </g>
    </g>
    <g transform="matrix(1,0,0,1,-65.16,-116.161)">
        <g id="ManualReset-button" serif:id="ManualReset#button" transform="matrix(0.709808,0,0,0.709808,78.4129,67.4779)">
            <circle cx="101.308" cy="310.24" r="9.898" style="fill:rgb(115,115,115);"/>
        </g>
        <g id="Reset-input" serif:id="Reset#input" transform="matrix(0.175002,0,0,0.175002,97.0875,254.805)">
            <rect x="53.94" y="106.916" width="161.978" height="161.978" style="fill:rgb(217,217,217);"/>
        </g>
        <g transform="matrix(1,0,0,1,-14.4579,172.912)">
            <path d="M89.618,118.306L89.618,113.236L90.638,113.236L90.638,113.776C90.845,113.59 91.048,113.443 91.248,113.336C91.448,113.23 91.695,113.176 91.988,113.176L91.988,114.256C91.888,114.216 91.785,114.196 91.678,114.196C91.571,114.196 91.456,114.215 91.333,114.251C91.21,114.288 91.098,114.35 90.998,114.436C90.891,114.523 90.805,114.636 90.738,114.776C90.671,114.916 90.638,115.09 90.638,115.296L90.638,118.306L89.618,118.306Z" style="fill:rgb(5,5,5);fill-rule:nonzero;"/>
            <path d="M95.348,116.156L93.328,116.156L93.328,116.846C93.328,117.006 93.373,117.13 93.463,117.216C93.553,117.303 93.675,117.346 93.828,117.346C94.021,117.346 94.15,117.29 94.213,117.176C94.276,117.063 94.315,116.95 94.328,116.836L95.348,116.836C95.348,117.283 95.211,117.643 94.938,117.916C94.805,118.056 94.645,118.166 94.458,118.246C94.271,118.326 94.061,118.366 93.828,118.366C93.508,118.366 93.236,118.3 93.013,118.166C92.79,118.033 92.618,117.856 92.498,117.636C92.425,117.503 92.375,117.35 92.348,117.176C92.321,117.003 92.308,116.813 92.308,116.606L92.308,114.936C92.308,114.73 92.321,114.54 92.348,114.366C92.375,114.193 92.425,114.04 92.498,113.906C92.618,113.686 92.79,113.51 93.013,113.376C93.236,113.243 93.508,113.176 93.828,113.176C94.061,113.176 94.273,113.216 94.463,113.296C94.653,113.376 94.815,113.486 94.948,113.626C95.215,113.926 95.348,114.303 95.348,114.756L95.348,116.156ZM93.328,115.356L94.328,115.356L94.328,114.776C94.328,114.583 94.283,114.438 94.193,114.341C94.103,114.245 93.981,114.196 93.828,114.196C93.675,114.196 93.553,114.245 93.463,114.341C93.373,114.438 93.328,114.583 93.328,114.776L93.328,115.356Z" style="fill:rgb(5,5,5);fill-rule:nonzero;"/>
            <path d="M97.948,114.656C97.941,114.483 97.886,114.353 97.783,114.266C97.68,114.18 97.561,114.136 97.428,114.136C97.268,114.136 97.145,114.188 97.058,114.291C96.971,114.395 96.928,114.513 96.928,114.646C96.928,114.74 96.951,114.831 96.998,114.921C97.045,115.011 97.165,115.093 97.358,115.166L97.958,115.406C98.338,115.553 98.6,115.753 98.743,116.006C98.886,116.26 98.958,116.536 98.958,116.836C98.958,117.05 98.92,117.248 98.843,117.431C98.766,117.615 98.661,117.776 98.528,117.916C98.395,118.056 98.235,118.166 98.048,118.246C97.861,118.326 97.658,118.366 97.438,118.366C97.025,118.366 96.678,118.236 96.398,117.976C96.258,117.85 96.145,117.691 96.058,117.501C95.971,117.311 95.925,117.09 95.918,116.836L96.878,116.836C96.898,116.976 96.946,117.106 97.023,117.226C97.1,117.346 97.235,117.406 97.428,117.406C97.575,117.406 97.706,117.358 97.823,117.261C97.94,117.165 97.998,117.03 97.998,116.856C97.998,116.716 97.961,116.596 97.888,116.496C97.815,116.396 97.681,116.31 97.488,116.236L96.998,116.056C96.678,115.936 96.426,115.758 96.243,115.521C96.06,115.285 95.968,114.996 95.968,114.656C95.968,114.443 96.008,114.245 96.088,114.061C96.168,113.878 96.278,113.72 96.418,113.586C96.551,113.453 96.708,113.351 96.888,113.281C97.068,113.211 97.261,113.176 97.468,113.176C97.675,113.176 97.866,113.213 98.043,113.286C98.22,113.36 98.371,113.463 98.498,113.596C98.625,113.73 98.725,113.888 98.798,114.071C98.871,114.255 98.908,114.45 98.908,114.656L97.948,114.656Z" style="fill:rgb(5,5,5);fill-rule:nonzero;"/>
            <path d="M102.568,116.156L100.548,116.156L100.548,116.846C100.548,117.006 100.593,117.13 100.683,117.216C100.773,117.303 100.895,117.346 101.048,117.346C101.241,117.346 101.37,117.29 101.433,117.176C101.496,117.063 101.535,116.95 101.548,116.836L102.568,116.836C102.568,117.283 102.431,117.643 102.158,117.916C102.025,118.056 101.865,118.166 101.678,118.246C101.491,118.326 101.281,118.366 101.048,118.366C100.728,118.366 100.456,118.3 100.233,118.166C100.01,118.033 99.838,117.856 99.718,117.636C99.645,117.503 99.595,117.35 99.568,117.176C99.541,117.003 99.528,116.813 99.528,116.606L99.528,114.936C99.528,114.73 99.541,114.54 99.568,114.366C99.595,114.193 99.645,114.04 99.718,113.906C99.838,113.686 100.01,113.51 100.233,113.376C100.456,113.243 100.728,113.176 101.048,113.176C101.281,113.176 101.493,113.216 101.683,113.296C101.873,113.376 102.035,113.486 102.168,113.626C102.435,113.926 102.568,114.303 102.568,114.756L102.568,116.156ZM100.548,115.356L101.548,115.356L101.548,114.776C101.548,114.583 101.503,114.438 101.413,114.341C101.323,114.245 101.201,114.196 101.048,114.196C100.895,114.196 100.773,114.245 100.683,114.341C100.593,114.438 100.548,114.583 100.548,114.776L100.548,115.356Z" style="fill:rgb(5,5,5);fill-rule:nonzero;"/>
            <path d="M103.318,113.236L103.318,111.696L104.338,111.696L104.338,113.236L104.968,113.236L104.968,114.036L104.338,114.036L104.338,116.846C104.338,116.966 104.35,117.06 104.373,117.126C104.396,117.193 104.435,117.243 104.488,117.276C104.541,117.31 104.606,117.33 104.683,117.336C104.76,117.343 104.855,117.346 104.968,117.346L104.968,118.306L104.548,118.306C104.315,118.306 104.12,118.27 103.963,118.196C103.806,118.123 103.681,118.03 103.588,117.916C103.495,117.803 103.426,117.675 103.383,117.531C103.34,117.388 103.318,117.25 103.318,117.116L103.318,114.036L102.808,114.036L102.808,113.236L103.318,113.236Z" style="fill:rgb(5,5,5);fill-rule:nonzero;"/>
        </g>
        <g transform="matrix(1,0,0,1,-14.4579,172.912)">
            <text x="89.198px" y="118.306px" style="font-family:'DINCondensed-Bold', 'DIN Condensed';font-weight:700;font-stretch:condensed;font-size:10px;fill:rgb(5,5,5);">reset</text>
        </g>
    </g>
    <g transform="matrix(1,0,0,1,-65.22,-151.783)">
        <g id="Play-ledbutton" serif:id="Play#ledbutton" transform="matrix(1,0,0,1,49.0141,-22.5512)">
            <circle cx="101.308" cy="310.24" r="9.898" style="fill:rgb(115,115,115);"/>
        </g>
        <g id="PlayOverride-input" serif:id="PlayOverride#input" transform="matrix(0.175002,0,0,0.175002,97.0875,254.805)">
            <rect x="53.94" y="106.916" width="161.978" height="161.978" style="fill:rgb(217,217,217);"/>
        </g>
        <g transform="matrix(1,0,0,1,-14.4579,172.912)">
            <path d="M89.618,120.356L89.618,113.236L90.638,113.236L90.638,113.696C90.765,113.55 90.895,113.426 91.028,113.326C91.161,113.226 91.355,113.176 91.608,113.176C92.028,113.176 92.325,113.336 92.498,113.656C92.558,113.77 92.601,113.91 92.628,114.076C92.655,114.243 92.668,114.466 92.668,114.746L92.668,116.676C92.668,117.05 92.658,117.32 92.638,117.486C92.598,117.82 92.445,118.07 92.178,118.236C92.045,118.323 91.851,118.366 91.598,118.366C91.398,118.366 91.22,118.321 91.063,118.231C90.906,118.141 90.771,118.013 90.658,117.846L90.638,117.846L90.638,120.356L89.618,120.356ZM91.648,114.886C91.648,114.68 91.608,114.513 91.528,114.386C91.448,114.26 91.321,114.196 91.148,114.196C90.995,114.196 90.871,114.255 90.778,114.371C90.685,114.488 90.638,114.64 90.638,114.826L90.638,116.796C90.638,116.956 90.686,117.088 90.783,117.191C90.88,117.295 91.001,117.346 91.148,117.346C91.341,117.346 91.473,117.286 91.543,117.166C91.613,117.046 91.648,116.906 91.648,116.746L91.648,114.886Z" style="fill:rgb(5,5,5);fill-rule:nonzero;"/>
            <path d="M93.448,111.186L94.468,111.186L94.468,116.876C94.468,117.07 94.503,117.201 94.573,117.271C94.643,117.341 94.775,117.386 94.968,117.406L94.968,118.366C94.735,118.366 94.525,118.348 94.338,118.311C94.151,118.275 93.991,118.203 93.858,118.096C93.725,117.996 93.623,117.855 93.553,117.671C93.483,117.488 93.448,117.246 93.448,116.946L93.448,111.186Z" style="fill:rgb(5,5,5);fill-rule:nonzero;"/>
            <path d="M97.298,118.306L97.298,117.786L97.278,117.786C97.145,117.973 97.01,118.116 96.873,118.216C96.736,118.316 96.545,118.366 96.298,118.366C96.178,118.366 96.056,118.348 95.933,118.311C95.81,118.275 95.691,118.206 95.578,118.106C95.465,118.013 95.373,117.878 95.303,117.701C95.233,117.525 95.198,117.296 95.198,117.016C95.198,116.73 95.221,116.478 95.268,116.261C95.315,116.045 95.401,115.863 95.528,115.716C95.648,115.576 95.811,115.471 96.018,115.401C96.225,115.331 96.488,115.296 96.808,115.296L96.918,115.296C96.958,115.296 96.995,115.3 97.028,115.306C97.061,115.313 97.101,115.316 97.148,115.316C97.195,115.316 97.245,115.32 97.298,115.326L97.298,114.796C97.298,114.623 97.261,114.48 97.188,114.366C97.115,114.253 96.981,114.196 96.788,114.196C96.655,114.196 96.533,114.24 96.423,114.326C96.313,114.413 96.241,114.54 96.208,114.706L95.218,114.706C95.245,114.253 95.398,113.886 95.678,113.606C95.811,113.473 95.971,113.368 96.158,113.291C96.345,113.215 96.555,113.176 96.788,113.176C97.001,113.176 97.201,113.21 97.388,113.276C97.575,113.343 97.738,113.443 97.878,113.576C98.011,113.71 98.118,113.876 98.198,114.076C98.278,114.276 98.318,114.51 98.318,114.776L98.318,118.306L97.298,118.306ZM97.298,116.126C97.185,116.106 97.091,116.096 97.018,116.096C96.798,116.096 96.61,116.148 96.453,116.251C96.296,116.355 96.218,116.543 96.218,116.816C96.218,117.01 96.265,117.166 96.358,117.286C96.451,117.406 96.581,117.466 96.748,117.466C96.921,117.466 97.056,117.41 97.153,117.296C97.25,117.183 97.298,117.023 97.298,116.816L97.298,116.126Z" style="fill:rgb(5,5,5);fill-rule:nonzero;"/>
            <path d="M98.518,113.236L99.598,113.236L100.298,116.396L100.318,116.396L101.008,113.236L102.058,113.236L100.598,119.186C100.545,119.413 100.47,119.6 100.373,119.746C100.276,119.893 100.165,120.013 100.038,120.106C99.911,120.2 99.776,120.265 99.633,120.301C99.49,120.338 99.341,120.356 99.188,120.356L98.908,120.356L98.908,119.396L99.138,119.396C99.238,119.396 99.325,119.383 99.398,119.356C99.471,119.33 99.538,119.27 99.598,119.176C99.651,119.083 99.701,118.951 99.748,118.781C99.795,118.611 99.848,118.376 99.908,118.076L98.518,113.236Z" style="fill:rgb(5,5,5);fill-rule:nonzero;"/>
        </g>
        <g transform="matrix(1,0,0,1,-14.4579,172.912)">
            <text x="89.198px" y="118.306px" style="font-family:'DINCondensed-Bold', 'DIN Condensed';font-weight:700;font-stretch:condensed;font-size:10px;fill:rgb(5,5,5);">pla<tspan x="98.528px " y="118.306px ">y</tspan></text>
        </g>
    </g>
    <g transform="matrix(1,0,0,1,0,-11)">
        <rect x="10" y="115.342" width="85" height="1.938" style="fill:rgb(102,102,102);"/>
    </g>
    <g id="Display-oled-83x60" serif:id="Display#oled$83x60" transform="matrix(1.77099,0,0,2.63702,-144.317,-150.409)">
        <rect x="87.136" y="70.02" width="47.996" height="23.511" style="fill:rgb(19,19,19);"/>
    </g>
    <g transform="matrix(0.816456,0,0,0.816456,24.2845,-234.906)">
        <g transform="matrix(1,0,0,1,-68.4424,-41.5702)">
            <path d="M83.493,349.25C83.189,350.043 82.883,350.803 82.575,351.528C82.266,352.253 81.969,352.87 81.685,353.38C81.568,353.595 81.455,353.808 81.347,354.019C81.239,354.23 81.139,354.421 81.046,354.592C80.953,354.764 80.87,354.906 80.796,355.018C80.723,355.131 80.656,355.197 80.598,355.217C80.549,355.246 80.492,355.268 80.429,355.283C80.365,355.298 80.309,355.305 80.26,355.305C80.24,355.305 80.211,355.295 80.171,355.276C80.132,355.256 80.098,355.207 80.069,355.129C79.931,354.795 79.782,354.391 79.62,353.916C79.459,353.441 79.29,352.934 79.113,352.395C78.937,351.856 78.753,351.295 78.562,350.712C78.371,350.129 78.182,349.558 77.996,349C77.859,348.559 77.729,348.11 77.607,347.655C77.484,347.199 77.367,346.778 77.254,346.391C77.141,346.004 77.041,345.676 76.953,345.406C76.864,345.137 76.786,344.968 76.718,344.899C76.59,344.879 76.487,344.87 76.409,344.87L76.13,344.87C76.1,344.87 76.076,344.852 76.056,344.818C76.037,344.784 76.027,344.745 76.027,344.701C76.027,344.656 76.032,344.617 76.041,344.583C76.051,344.549 76.066,344.532 76.086,344.532C76.125,344.532 76.206,344.534 76.328,344.539C76.45,344.544 76.597,344.549 76.769,344.554C76.94,344.559 77.127,344.563 77.327,344.568C77.528,344.573 77.717,344.576 77.893,344.576C78.295,344.576 78.655,344.568 78.974,344.554C79.292,344.539 79.5,344.532 79.598,344.532C79.706,344.532 79.767,344.578 79.782,344.671C79.797,344.764 79.721,344.835 79.554,344.884C79.486,344.914 79.375,344.926 79.223,344.921C79.072,344.916 78.927,344.909 78.79,344.899C78.8,345.056 78.849,345.328 78.937,345.715C79.025,346.102 79.138,346.552 79.275,347.067C79.412,347.581 79.566,348.13 79.738,348.713C79.909,349.296 80.086,349.862 80.267,350.411C80.448,350.959 80.622,351.462 80.789,351.917C80.955,352.373 81.107,352.728 81.244,352.983C81.313,352.924 81.421,352.743 81.568,352.439C81.715,352.135 81.879,351.76 82.06,351.315C82.241,350.869 82.43,350.376 82.626,349.837C82.822,349.299 83.003,348.769 83.17,348.25C83.052,347.858 82.942,347.474 82.839,347.096C82.736,346.719 82.641,346.374 82.552,346.06C82.464,345.747 82.383,345.482 82.31,345.266C82.236,345.051 82.17,344.914 82.112,344.855C81.984,344.835 81.884,344.826 81.81,344.826L81.553,344.826C81.514,344.826 81.487,344.808 81.472,344.774C81.457,344.74 81.448,344.701 81.443,344.656C81.438,344.612 81.438,344.571 81.443,344.532C81.448,344.492 81.455,344.473 81.465,344.473C81.484,344.473 81.58,344.478 81.751,344.487C81.923,344.497 82.121,344.507 82.347,344.517C82.572,344.527 82.807,344.536 83.052,344.546C83.297,344.556 83.503,344.561 83.669,344.561C84.14,344.561 84.51,344.549 84.779,344.524C85.049,344.5 85.203,344.487 85.242,344.487C85.409,344.487 85.482,344.534 85.463,344.627C85.443,344.72 85.379,344.786 85.272,344.826C85.125,344.875 85,344.892 84.897,344.877C84.794,344.862 84.711,344.86 84.647,344.87C84.583,344.879 84.534,344.916 84.5,344.98C84.466,345.044 84.448,345.178 84.448,345.384C84.448,345.551 84.485,345.823 84.559,346.2C84.632,346.577 84.73,347.008 84.853,347.493C84.975,347.978 85.115,348.495 85.272,349.044C85.428,349.592 85.588,350.119 85.749,350.624C85.911,351.128 86.068,351.586 86.22,351.998C86.371,352.41 86.506,352.723 86.624,352.939C86.683,352.89 86.788,352.716 86.94,352.417C87.092,352.118 87.266,351.746 87.461,351.3C87.657,350.854 87.861,350.357 88.071,349.808C88.282,349.259 88.476,348.713 88.652,348.169C88.828,347.625 88.973,347.109 89.086,346.619C89.198,346.129 89.255,345.717 89.255,345.384C89.255,345.335 89.252,345.276 89.247,345.208C89.242,345.139 89.233,345.075 89.218,345.017C89.203,344.958 89.186,344.906 89.166,344.862C89.147,344.818 89.117,344.796 89.078,344.796C88.961,344.796 88.86,344.799 88.777,344.803C88.694,344.808 88.618,344.811 88.549,344.811C88.481,344.811 88.417,344.813 88.358,344.818C88.299,344.823 88.226,344.826 88.138,344.826C88.118,344.816 88.101,344.794 88.086,344.759C88.071,344.725 88.057,344.686 88.042,344.642C88.027,344.598 88.02,344.559 88.02,344.524C88.02,344.49 88.035,344.473 88.064,344.473C88.152,344.473 88.326,344.48 88.586,344.495C88.846,344.51 89.264,344.517 89.843,344.517C89.872,344.517 89.977,344.514 90.159,344.51C90.34,344.505 90.536,344.5 90.746,344.495C90.957,344.49 91.151,344.485 91.327,344.48C91.503,344.475 91.601,344.473 91.621,344.473C91.788,344.473 91.854,344.519 91.819,344.612C91.785,344.705 91.719,344.767 91.621,344.796C91.582,344.816 91.53,344.828 91.467,344.833C91.403,344.838 91.334,344.843 91.261,344.848C91.187,344.852 91.121,344.862 91.062,344.877C91.004,344.892 90.96,344.914 90.93,344.943C90.685,345.551 90.399,346.234 90.07,346.993C89.742,347.753 89.402,348.52 89.049,349.294C88.696,350.068 88.348,350.81 88.005,351.52C87.662,352.231 87.354,352.831 87.079,353.321C86.952,353.546 86.832,353.764 86.719,353.975C86.607,354.185 86.506,354.377 86.418,354.548C86.33,354.719 86.249,354.864 86.175,354.982C86.102,355.099 86.041,355.168 85.992,355.187C85.943,355.207 85.884,355.219 85.815,355.224C85.747,355.229 85.693,355.231 85.654,355.231C85.614,355.231 85.578,355.224 85.543,355.209C85.509,355.195 85.477,355.153 85.448,355.084C85.321,354.761 85.181,354.377 85.029,353.931C84.877,353.485 84.718,353.005 84.551,352.49C84.385,351.976 84.211,351.442 84.03,350.888C83.848,350.335 83.669,349.788 83.493,349.25Z" style="fill:rgb(5,5,5);fill-rule:nonzero;"/>
            <path d="M95.413,352.806C95.384,352.64 95.354,352.459 95.325,352.263C95.295,352.067 95.266,351.88 95.237,351.704C95.207,351.528 95.18,351.376 95.156,351.248C95.131,351.121 95.114,351.038 95.104,350.999C94.948,351.057 94.771,351.126 94.575,351.204C94.379,351.283 94.183,351.368 93.987,351.462C93.791,351.555 93.605,351.648 93.429,351.741C93.252,351.834 93.105,351.92 92.988,351.998C92.762,352.145 92.591,352.292 92.473,352.439C92.356,352.586 92.297,352.762 92.297,352.968C92.297,353.252 92.38,353.502 92.547,353.718C92.713,353.933 92.973,354.041 93.326,354.041C93.512,354.041 93.706,354.007 93.906,353.938C94.107,353.869 94.293,353.791 94.465,353.703C94.636,353.615 94.786,353.527 94.913,353.438C95.041,353.35 95.129,353.282 95.178,353.233C95.256,353.154 95.317,353.088 95.361,353.034C95.406,352.98 95.423,352.904 95.413,352.806ZM94.987,350.528C94.928,350.224 94.859,349.953 94.781,349.712C94.703,349.472 94.605,349.272 94.487,349.11C94.369,348.948 94.227,348.826 94.061,348.742C93.894,348.659 93.688,348.618 93.443,348.618C93.228,348.618 93.029,348.657 92.848,348.735C92.667,348.813 92.51,348.907 92.378,349.014C92.246,349.122 92.143,349.23 92.069,349.338C91.996,349.445 91.954,349.529 91.944,349.588C91.934,349.666 91.89,349.705 91.812,349.705C91.675,349.705 91.547,349.656 91.43,349.558C91.312,349.46 91.253,349.343 91.253,349.205C91.253,349.127 91.263,349.068 91.283,349.029C91.508,348.902 91.783,348.764 92.106,348.618C92.429,348.471 92.765,348.333 93.113,348.206C93.461,348.079 93.806,347.973 94.149,347.89C94.492,347.807 94.801,347.765 95.075,347.765C95.486,347.765 95.802,347.824 96.023,347.941C96.243,348.059 96.407,348.226 96.515,348.441C96.623,348.657 96.689,348.909 96.714,349.198C96.738,349.487 96.76,349.798 96.78,350.131C96.809,350.631 96.848,351.114 96.897,351.579C96.946,352.045 97.02,352.456 97.118,352.814C97.216,353.171 97.341,353.46 97.493,353.681C97.645,353.901 97.833,354.012 98.059,354.012C98.166,354.012 98.284,353.992 98.411,353.953C98.539,353.914 98.661,353.867 98.779,353.813C98.896,353.759 99.002,353.705 99.095,353.651C99.188,353.598 99.249,353.561 99.278,353.541C99.367,353.541 99.42,353.585 99.44,353.674C99.44,353.723 99.43,353.767 99.411,353.806C99.391,353.825 99.318,353.874 99.19,353.953C99.063,354.031 98.906,354.124 98.72,354.232C98.534,354.34 98.328,354.455 98.103,354.577C97.877,354.7 97.654,354.815 97.434,354.923C97.213,355.031 97.01,355.119 96.824,355.187C96.638,355.256 96.491,355.29 96.383,355.29C96.256,355.29 96.145,355.239 96.052,355.136C95.959,355.033 95.878,354.896 95.81,354.724C95.741,354.553 95.682,354.355 95.633,354.129C95.584,353.904 95.54,353.669 95.501,353.424C95.325,353.571 95.099,353.745 94.825,353.945C94.551,354.146 94.252,354.335 93.928,354.511C93.605,354.688 93.274,354.837 92.936,354.96C92.598,355.082 92.273,355.143 91.959,355.143C91.694,355.143 91.464,355.102 91.268,355.018C91.072,354.935 90.908,354.825 90.776,354.688C90.644,354.55 90.546,354.391 90.482,354.21C90.418,354.029 90.386,353.84 90.386,353.644C90.386,353.331 90.482,353.073 90.673,352.872C90.864,352.672 91.16,352.463 91.562,352.248C91.748,352.15 92.008,352.02 92.341,351.858C92.674,351.697 93.015,351.533 93.363,351.366C93.71,351.199 94.034,351.04 94.333,350.888C94.632,350.736 94.85,350.616 94.987,350.528Z" style="fill:rgb(5,5,5);fill-rule:nonzero;"/>
            <path d="M102.1,353.468C102.14,353.409 102.215,353.289 102.328,353.108C102.441,352.926 102.568,352.703 102.71,352.439C102.852,352.174 102.999,351.888 103.151,351.579C103.303,351.27 103.443,350.959 103.57,350.646C103.698,350.332 103.803,350.036 103.886,349.757C103.969,349.477 104.011,349.235 104.011,349.029C104.011,348.872 103.991,348.747 103.952,348.654C103.913,348.561 103.857,348.49 103.783,348.441C103.71,348.392 103.624,348.358 103.526,348.338C103.428,348.319 103.325,348.309 103.217,348.309C103.159,348.309 103.1,348.314 103.041,348.324C102.982,348.333 102.923,348.348 102.865,348.368C102.806,348.387 102.759,348.38 102.725,348.346C102.691,348.311 102.674,348.284 102.674,348.265C102.674,348.226 102.74,348.177 102.872,348.118C103.004,348.059 103.186,348.005 103.416,347.956C103.646,347.907 103.911,347.865 104.209,347.831C104.508,347.797 104.819,347.78 105.143,347.78C105.603,347.78 105.834,347.932 105.834,348.235C105.834,348.373 105.743,348.608 105.562,348.941C105.38,349.274 105.15,349.663 104.871,350.109C104.592,350.555 104.283,351.028 103.945,351.528C103.607,352.027 103.276,352.51 102.953,352.975C102.629,353.441 102.333,353.869 102.064,354.261C101.794,354.653 101.591,354.957 101.454,355.173C101.424,355.212 101.316,355.231 101.13,355.231C101.052,355.231 101,355.219 100.976,355.195C100.951,355.17 100.929,355.129 100.91,355.07C100.822,354.795 100.721,354.492 100.609,354.159C100.496,353.825 100.376,353.487 100.248,353.144C100.121,352.801 99.991,352.461 99.859,352.123C99.727,351.785 99.597,351.469 99.469,351.175C99.127,350.352 98.835,349.776 98.595,349.448C98.355,349.12 98.132,348.956 97.926,348.956C97.867,348.956 97.811,348.965 97.757,348.985C97.703,349.005 97.652,349.024 97.603,349.044C97.583,349.044 97.556,349.022 97.522,348.978C97.488,348.934 97.48,348.902 97.5,348.882C97.51,348.872 97.603,348.809 97.779,348.691C97.956,348.573 98.161,348.444 98.397,348.302C98.632,348.159 98.869,348.03 99.109,347.912C99.349,347.794 99.543,347.736 99.69,347.736C99.915,347.736 100.121,347.944 100.307,348.36C100.493,348.777 100.714,349.352 100.969,350.087L102.1,353.468Z" style="fill:rgb(5,5,5);fill-rule:nonzero;"/>
            <path d="M112.183,350.66C112.232,350.798 112.403,350.927 112.697,351.05C112.991,351.172 113.373,351.234 113.844,351.234C114.275,351.234 114.669,351.153 115.027,350.991C115.385,350.83 115.693,350.587 115.953,350.264C116.213,349.94 116.413,349.541 116.556,349.066C116.698,348.591 116.769,348.039 116.769,347.412C116.769,346.952 116.7,346.533 116.563,346.156C116.426,345.778 116.237,345.458 115.997,345.193C115.757,344.928 115.475,344.723 115.152,344.576C114.829,344.429 114.481,344.355 114.108,344.355C113.903,344.355 113.699,344.382 113.498,344.436C113.298,344.49 113.116,344.554 112.955,344.627C112.793,344.701 112.661,344.779 112.558,344.862C112.455,344.946 112.394,345.021 112.374,345.09C112.354,345.149 112.337,345.296 112.323,345.531C112.308,345.766 112.293,346.053 112.278,346.391C112.264,346.729 112.249,347.101 112.234,347.508C112.22,347.914 112.21,348.314 112.205,348.706C112.2,349.098 112.195,349.468 112.19,349.815C112.185,350.163 112.183,350.445 112.183,350.66ZM110.434,350.69C110.434,349.494 110.424,348.52 110.405,347.765C110.385,347.011 110.356,346.42 110.316,345.994C110.277,345.568 110.228,345.276 110.169,345.119C110.111,344.963 110.037,344.884 109.949,344.884C109.92,344.884 109.861,344.887 109.773,344.892C109.684,344.897 109.589,344.899 109.486,344.899C109.383,344.899 109.292,344.897 109.214,344.892C109.136,344.887 109.096,344.875 109.096,344.855L109.096,344.686C109.096,344.603 109.116,344.551 109.155,344.532C109.204,344.522 109.312,344.517 109.479,344.517C109.645,344.517 109.839,344.522 110.059,344.532C110.28,344.541 110.507,344.549 110.743,344.554C110.978,344.559 111.193,344.561 111.389,344.561L111.867,344.561C111.989,344.561 112.046,344.551 112.036,344.532C112.075,344.532 112.171,344.5 112.323,344.436C112.474,344.372 112.666,344.301 112.896,344.223C113.126,344.145 113.391,344.073 113.689,344.01C113.988,343.946 114.299,343.914 114.623,343.914C115.848,343.914 116.808,344.171 117.504,344.686C118.199,345.2 118.547,345.908 118.547,346.81C118.547,347.574 118.395,348.257 118.091,348.86C117.788,349.463 117.388,349.977 116.894,350.403C116.399,350.83 115.84,351.155 115.218,351.381C114.596,351.606 113.966,351.719 113.329,351.719C113.133,351.719 112.92,351.709 112.69,351.689C112.46,351.67 112.291,351.635 112.183,351.586L112.183,352.542C112.183,352.934 112.188,353.326 112.198,353.718C112.207,354.11 112.227,354.465 112.256,354.783C112.286,355.102 112.325,355.31 112.374,355.408C112.403,355.476 112.465,355.518 112.558,355.533C112.651,355.547 112.756,355.552 112.874,355.547C112.991,355.543 113.111,355.533 113.234,355.518C113.356,355.503 113.462,355.496 113.55,355.496C113.579,355.506 113.599,355.528 113.609,355.562C113.618,355.596 113.623,355.636 113.623,355.68C113.623,355.724 113.618,355.763 113.609,355.797C113.599,355.832 113.579,355.849 113.55,355.849C113.364,355.849 113.151,355.871 112.91,355.915C112.67,355.959 112.416,356.018 112.146,356.091C111.877,356.165 111.607,356.25 111.338,356.348C111.068,356.446 110.811,356.549 110.566,356.657C110.331,356.755 110.037,356.909 109.684,357.12C109.332,357.331 108.979,357.541 108.626,357.752C108.273,357.963 107.95,358.146 107.656,358.303C107.362,358.46 107.156,358.538 107.039,358.538C106.99,358.538 106.933,358.519 106.87,358.48C106.806,358.44 106.752,358.396 106.708,358.347C106.664,358.298 106.647,358.252 106.657,358.208C106.666,358.164 106.72,358.132 106.818,358.112C107.063,358.073 107.352,357.975 107.685,357.818C108.019,357.661 108.342,357.49 108.656,357.304C108.969,357.118 109.246,356.939 109.486,356.767C109.726,356.596 109.88,356.476 109.949,356.407C109.998,356.358 110.049,356.14 110.103,355.753C110.157,355.366 110.209,354.896 110.258,354.342C110.307,353.789 110.348,353.186 110.382,352.534C110.417,351.883 110.434,351.268 110.434,350.69Z" style="fill:rgb(5,5,5);fill-rule:nonzero;"/>
            <path d="M124.279,353.6C124.338,353.639 124.367,353.688 124.367,353.747C124.367,353.825 124.255,353.928 124.029,354.056C123.794,354.193 123.483,354.355 123.096,354.541C122.709,354.727 122.324,354.889 121.942,355.026C121.756,355.094 121.589,355.153 121.442,355.202C121.296,355.251 121.163,355.276 121.046,355.276C120.908,355.276 120.739,355.244 120.539,355.18C120.338,355.116 120.164,355.04 120.017,354.952C119.899,354.874 119.806,354.813 119.738,354.768C119.669,354.724 119.635,354.678 119.635,354.629C119.635,354.59 119.647,354.553 119.671,354.519C119.696,354.484 119.718,354.443 119.738,354.394C119.747,354.364 119.757,354.325 119.767,354.276C119.777,354.227 119.782,354.178 119.782,354.129C119.811,353.884 119.843,353.529 119.877,353.064C119.911,352.598 119.938,352.084 119.958,351.52C119.978,350.957 119.995,350.374 120.009,349.771C120.024,349.169 120.032,348.608 120.032,348.088C120.032,347.451 120.029,346.937 120.024,346.545C120.019,346.153 120.007,345.84 119.987,345.604C119.958,345.281 119.919,345.068 119.87,344.965C119.821,344.862 119.767,344.786 119.708,344.737C119.64,344.679 119.573,344.642 119.51,344.627C119.446,344.612 119.387,344.603 119.333,344.598C119.279,344.593 119.235,344.59 119.201,344.59C119.167,344.59 119.15,344.581 119.15,344.561C119.15,344.238 119.287,344.076 119.561,344.076C119.767,344.076 120.009,344.078 120.289,344.083C120.568,344.088 120.801,344.091 120.987,344.091C121.104,344.091 121.229,344.083 121.362,344.069C121.494,344.054 121.624,344.039 121.751,344.024C121.879,344.01 121.996,343.993 122.104,343.973C122.212,343.953 122.29,343.934 122.339,343.914C122.378,343.904 122.41,343.919 122.435,343.958C122.459,343.998 122.474,344.047 122.479,344.105C122.484,344.164 122.474,344.218 122.449,344.267C122.425,344.316 122.393,344.345 122.354,344.355C122.295,344.365 122.244,344.37 122.199,344.37C122.155,344.37 122.079,344.389 121.972,344.429C121.923,344.448 121.879,344.51 121.839,344.612C121.8,344.715 121.766,344.877 121.736,345.097C121.707,345.318 121.678,345.607 121.648,345.965C121.619,346.322 121.589,346.771 121.56,347.309C121.531,347.741 121.509,348.179 121.494,348.625C121.479,349.071 121.465,349.504 121.45,349.926C121.435,350.347 121.425,350.739 121.42,351.101C121.416,351.464 121.413,351.773 121.413,352.027C121.413,352.312 121.416,352.598 121.42,352.887C121.425,353.176 121.452,353.404 121.501,353.571C121.55,353.727 121.678,353.874 121.883,354.012C122.089,354.149 122.305,354.217 122.53,354.217C122.706,354.217 122.888,354.193 123.074,354.144C123.26,354.095 123.432,354.036 123.588,353.967C123.745,353.899 123.885,353.83 124.007,353.762C124.13,353.693 124.22,353.639 124.279,353.6Z" style="fill:rgb(5,5,5);fill-rule:nonzero;"/>
            <path d="M128.189,352.806C128.159,352.64 128.13,352.459 128.101,352.263C128.071,352.067 128.042,351.88 128.012,351.704C127.983,351.528 127.956,351.376 127.932,351.248C127.907,351.121 127.89,351.038 127.88,350.999C127.723,351.057 127.547,351.126 127.351,351.204C127.155,351.283 126.959,351.368 126.763,351.462C126.567,351.555 126.381,351.648 126.205,351.741C126.028,351.834 125.881,351.92 125.764,351.998C125.538,352.145 125.367,352.292 125.249,352.439C125.132,352.586 125.073,352.762 125.073,352.968C125.073,353.252 125.156,353.502 125.323,353.718C125.489,353.933 125.749,354.041 126.102,354.041C126.288,354.041 126.481,354.007 126.682,353.938C126.883,353.869 127.069,353.791 127.241,353.703C127.412,353.615 127.562,353.527 127.689,353.438C127.816,353.35 127.905,353.282 127.954,353.233C128.032,353.154 128.093,353.088 128.137,353.034C128.181,352.98 128.199,352.904 128.189,352.806ZM127.762,350.528C127.704,350.224 127.635,349.953 127.557,349.712C127.478,349.472 127.38,349.272 127.263,349.11C127.145,348.948 127.003,348.826 126.837,348.742C126.67,348.659 126.464,348.618 126.219,348.618C126.004,348.618 125.805,348.657 125.624,348.735C125.443,348.813 125.286,348.907 125.154,349.014C125.021,349.122 124.918,349.23 124.845,349.338C124.772,349.445 124.73,349.529 124.72,349.588C124.71,349.666 124.666,349.705 124.588,349.705C124.451,349.705 124.323,349.656 124.206,349.558C124.088,349.46 124.029,349.343 124.029,349.205C124.029,349.127 124.039,349.068 124.059,349.029C124.284,348.902 124.558,348.764 124.882,348.618C125.205,348.471 125.541,348.333 125.889,348.206C126.236,348.079 126.582,347.973 126.925,347.89C127.268,347.807 127.576,347.765 127.851,347.765C128.262,347.765 128.578,347.824 128.799,347.941C129.019,348.059 129.183,348.226 129.291,348.441C129.399,348.657 129.465,348.909 129.489,349.198C129.514,349.487 129.536,349.798 129.556,350.131C129.585,350.631 129.624,351.114 129.673,351.579C129.722,352.045 129.796,352.456 129.894,352.814C129.992,353.171 130.117,353.46 130.268,353.681C130.42,353.901 130.609,354.012 130.834,354.012C130.942,354.012 131.06,353.992 131.187,353.953C131.314,353.914 131.437,353.867 131.554,353.813C131.672,353.759 131.777,353.705 131.87,353.651C131.964,353.598 132.025,353.561 132.054,353.541C132.142,353.541 132.196,353.585 132.216,353.674C132.216,353.723 132.206,353.767 132.186,353.806C132.167,353.825 132.093,353.874 131.966,353.953C131.839,354.031 131.682,354.124 131.496,354.232C131.31,354.34 131.104,354.455 130.878,354.577C130.653,354.7 130.43,354.815 130.21,354.923C129.989,355.031 129.786,355.119 129.6,355.187C129.414,355.256 129.267,355.29 129.159,355.29C129.031,355.29 128.921,355.239 128.828,355.136C128.735,355.033 128.654,354.896 128.586,354.724C128.517,354.553 128.458,354.355 128.409,354.129C128.36,353.904 128.316,353.669 128.277,353.424C128.101,353.571 127.875,353.745 127.601,353.945C127.326,354.146 127.028,354.335 126.704,354.511C126.381,354.688 126.05,354.837 125.712,354.96C125.374,355.082 125.048,355.143 124.735,355.143C124.47,355.143 124.24,355.102 124.044,355.018C123.848,354.935 123.684,354.825 123.552,354.688C123.419,354.55 123.321,354.391 123.258,354.21C123.194,354.029 123.162,353.84 123.162,353.644C123.162,353.331 123.258,353.073 123.449,352.872C123.64,352.672 123.936,352.463 124.338,352.248C124.524,352.15 124.784,352.02 125.117,351.858C125.45,351.697 125.791,351.533 126.138,351.366C126.486,351.199 126.81,351.04 127.108,350.888C127.407,350.736 127.625,350.616 127.762,350.528Z" style="fill:rgb(5,5,5);fill-rule:nonzero;"/>
            <path d="M131.04,359.464C131.128,359.366 131.261,359.205 131.437,358.979C131.613,358.754 131.807,358.499 132.017,358.215C132.228,357.931 132.444,357.627 132.664,357.304C132.885,356.98 133.093,356.674 133.289,356.385C133.485,356.096 133.654,355.832 133.796,355.592C133.938,355.351 134.029,355.173 134.068,355.055C133.911,354.644 133.744,354.208 133.568,353.747C133.392,353.286 133.208,352.831 133.017,352.38C132.826,351.929 132.635,351.498 132.444,351.087C132.253,350.675 132.064,350.315 131.878,350.006C131.692,349.698 131.513,349.45 131.341,349.264C131.17,349.078 131.016,348.985 130.878,348.985C130.839,348.985 130.795,348.997 130.746,349.022C130.697,349.046 130.653,349.068 130.614,349.088C130.584,349.107 130.55,349.083 130.511,349.014C130.472,348.946 130.472,348.902 130.511,348.882C130.55,348.853 130.665,348.779 130.856,348.662C131.047,348.544 131.261,348.419 131.496,348.287C131.731,348.155 131.959,348.035 132.179,347.927C132.4,347.819 132.559,347.765 132.657,347.765C132.755,347.765 132.87,347.853 133.002,348.03C133.134,348.206 133.272,348.444 133.414,348.742C133.556,349.041 133.705,349.382 133.862,349.764C134.019,350.146 134.176,350.545 134.332,350.962C134.489,351.378 134.643,351.797 134.795,352.218C134.947,352.64 135.092,353.032 135.229,353.394C135.356,353.198 135.52,352.919 135.721,352.556C135.922,352.194 136.116,351.807 136.302,351.395C136.488,350.984 136.647,350.577 136.779,350.175C136.912,349.774 136.978,349.436 136.978,349.161C136.978,348.877 136.909,348.674 136.772,348.551C136.635,348.429 136.483,348.368 136.317,348.368C136.189,348.368 136.089,348.37 136.015,348.375C135.942,348.38 135.861,348.392 135.773,348.412C135.753,348.412 135.724,348.399 135.685,348.375C135.645,348.351 135.626,348.314 135.626,348.265C135.626,348.216 135.734,348.162 135.949,348.103C136.165,348.044 136.415,347.99 136.699,347.941C136.983,347.892 137.262,347.851 137.536,347.816C137.811,347.782 138.002,347.765 138.11,347.765C138.335,347.765 138.502,347.809 138.609,347.897C138.717,347.986 138.771,348.088 138.771,348.206C138.712,348.441 138.587,348.747 138.396,349.125C138.205,349.502 137.977,349.913 137.713,350.359C137.448,350.805 137.167,351.266 136.868,351.741C136.569,352.216 136.282,352.664 136.008,353.086C135.734,353.507 135.486,353.884 135.266,354.217C135.045,354.55 134.886,354.795 134.788,354.952C134.592,355.256 134.406,355.572 134.229,355.9C134.053,356.228 133.891,356.557 133.744,356.885C133.597,357.213 133.468,357.527 133.355,357.826C133.242,358.124 133.161,358.396 133.112,358.641C133.083,358.788 133.11,358.884 133.193,358.928C133.277,358.972 133.384,358.982 133.517,358.957C133.649,358.933 133.793,358.886 133.95,358.818C134.107,358.749 134.239,358.671 134.347,358.583C134.396,358.543 134.428,358.536 134.443,358.56C134.457,358.585 134.465,358.622 134.465,358.671C134.465,358.72 134.455,358.771 134.435,358.825C134.416,358.879 134.391,358.916 134.362,358.935C134.352,358.935 134.239,358.979 134.024,359.068C133.808,359.156 133.548,359.251 133.245,359.354C132.941,359.457 132.62,359.553 132.282,359.641C131.944,359.729 131.648,359.773 131.393,359.773C131.148,359.773 131.025,359.695 131.025,359.538C131.025,359.518 131.028,359.504 131.033,359.494C131.038,359.484 131.04,359.474 131.04,359.464Z" style="fill:rgb(5,5,5);fill-rule:nonzero;"/>
            <path d="M145.752,353.38C145.645,353.497 145.478,353.659 145.253,353.865C145.027,354.07 144.755,354.276 144.437,354.482C144.119,354.688 143.763,354.864 143.371,355.011C142.979,355.158 142.563,355.231 142.122,355.231C141.72,355.231 141.328,355.17 140.946,355.048C140.564,354.925 140.221,354.739 139.917,354.489C139.614,354.239 139.371,353.921 139.19,353.534C139.009,353.147 138.918,352.684 138.918,352.145C138.918,351.704 138.947,351.324 139.006,351.006C139.065,350.687 139.143,350.408 139.241,350.168C139.339,349.928 139.45,349.722 139.572,349.551C139.695,349.379 139.819,349.225 139.947,349.088C140.104,348.911 140.295,348.745 140.52,348.588C140.745,348.431 140.988,348.289 141.248,348.162C141.507,348.035 141.782,347.934 142.071,347.861C142.36,347.787 142.651,347.75 142.945,347.75C143.474,347.75 143.888,347.839 144.187,348.015C144.486,348.191 144.635,348.436 144.635,348.75C144.635,348.946 144.577,349.127 144.459,349.294C144.557,349.264 144.682,349.215 144.834,349.147C144.986,349.078 145.14,349.007 145.297,348.934C145.454,348.86 145.593,348.794 145.716,348.735C145.838,348.676 145.919,348.632 145.958,348.603C145.978,348.583 146,348.576 146.024,348.581C146.049,348.586 146.061,348.603 146.061,348.632C146.061,348.76 146.037,348.865 145.988,348.948C145.939,349.031 145.88,349.098 145.811,349.147C145.654,349.245 145.429,349.367 145.135,349.514C144.841,349.661 144.515,349.815 144.158,349.977C143.8,350.139 143.43,350.3 143.048,350.462C142.666,350.624 142.306,350.778 141.968,350.925C141.63,351.072 141.336,351.202 141.086,351.315C140.836,351.427 140.667,351.508 140.579,351.557C140.579,351.89 140.645,352.201 140.777,352.49C140.91,352.779 141.093,353.032 141.328,353.247C141.564,353.463 141.845,353.632 142.174,353.754C142.502,353.877 142.862,353.938 143.254,353.938C143.607,353.938 143.925,353.901 144.209,353.828C144.493,353.754 144.733,353.671 144.929,353.578C145.125,353.485 145.28,353.402 145.392,353.328C145.505,353.255 145.566,353.218 145.576,353.218C145.615,353.218 145.654,353.235 145.694,353.269C145.733,353.304 145.752,353.34 145.752,353.38ZM140.579,351.131C140.745,351.072 140.934,351.001 141.145,350.918C141.355,350.834 141.561,350.744 141.762,350.646C141.963,350.548 142.147,350.455 142.313,350.367C142.48,350.278 142.607,350.2 142.695,350.131C142.872,350.004 142.96,349.788 142.96,349.485C142.96,349.367 142.938,349.245 142.894,349.117C142.85,348.99 142.783,348.875 142.695,348.772C142.607,348.669 142.499,348.586 142.372,348.522C142.245,348.458 142.103,348.426 141.946,348.426C141.809,348.426 141.662,348.473 141.505,348.566C141.348,348.659 141.201,348.811 141.064,349.022C140.927,349.232 140.812,349.512 140.718,349.859C140.625,350.207 140.579,350.631 140.579,351.131Z" style="fill:rgb(5,5,5);fill-rule:nonzero;"/>
            <path d="M152.572,348.853C152.464,348.941 152.337,349.051 152.19,349.183C152.043,349.316 151.889,349.443 151.727,349.566C151.565,349.688 151.401,349.793 151.235,349.882C151.068,349.97 150.906,350.014 150.75,350.014C150.612,350.014 150.49,349.982 150.382,349.918C150.274,349.855 150.174,349.786 150.081,349.712C149.988,349.639 149.897,349.57 149.809,349.507C149.721,349.443 149.628,349.411 149.53,349.411C149.265,349.411 149.042,349.519 148.861,349.735C148.68,349.95 148.533,350.224 148.42,350.558C148.307,350.891 148.224,351.253 148.17,351.645C148.116,352.037 148.089,352.414 148.089,352.777C148.089,353.081 148.102,353.328 148.126,353.519C148.151,353.71 148.187,353.862 148.236,353.975C148.285,354.087 148.351,354.163 148.435,354.203C148.518,354.242 148.618,354.261 148.736,354.261C148.863,354.261 149.001,354.242 149.148,354.203C149.177,354.193 149.199,354.212 149.214,354.261C149.228,354.31 149.236,354.35 149.236,354.379C149.236,354.399 149.221,354.421 149.192,354.445C149.162,354.47 149.143,354.482 149.133,354.482C148.917,354.57 148.697,354.666 148.471,354.768C148.246,354.871 148.06,354.957 147.913,355.026C147.776,355.084 147.612,355.148 147.421,355.217C147.23,355.285 147.065,355.32 146.928,355.32C146.771,355.32 146.642,355.295 146.539,355.246C146.436,355.197 146.384,355.148 146.384,355.099C146.384,355.05 146.397,355.006 146.421,354.967C146.446,354.928 146.468,354.854 146.487,354.746C146.507,354.599 146.529,354.426 146.553,354.225C146.578,354.024 146.602,353.806 146.627,353.571C146.651,353.335 146.671,353.093 146.686,352.843C146.7,352.593 146.708,352.346 146.708,352.101C146.708,351.552 146.691,351.087 146.656,350.705C146.622,350.322 146.561,350.014 146.473,349.779C146.384,349.543 146.264,349.374 146.113,349.272C145.961,349.169 145.767,349.117 145.532,349.117L145.4,349.117C145.36,349.117 145.321,349.122 145.282,349.132C145.223,349.132 145.194,349.103 145.194,349.044C145.194,348.985 145.223,348.941 145.282,348.911C145.39,348.843 145.556,348.742 145.782,348.61C146.007,348.478 146.24,348.351 146.48,348.228C146.72,348.106 146.953,347.995 147.178,347.897C147.403,347.799 147.57,347.75 147.678,347.75C147.805,347.75 147.913,347.792 148.001,347.875C148.089,347.959 148.155,348.064 148.2,348.191C148.244,348.319 148.276,348.463 148.295,348.625C148.315,348.787 148.325,348.946 148.325,349.103C148.325,349.22 148.322,349.343 148.317,349.47C148.312,349.597 148.31,349.735 148.31,349.882C148.751,349.235 149.148,348.733 149.5,348.375C149.853,348.017 150.186,347.839 150.5,347.839C150.617,347.839 150.732,347.888 150.845,347.986C150.958,348.083 151.078,348.194 151.205,348.316C151.333,348.439 151.465,348.549 151.602,348.647C151.739,348.745 151.881,348.794 152.028,348.794C152.156,348.794 152.249,348.779 152.308,348.75C152.366,348.72 152.415,348.696 152.455,348.676C152.533,348.676 152.572,348.73 152.572,348.838L152.572,348.853Z" style="fill:rgb(5,5,5);fill-rule:nonzero;"/>
        </g>
        <g transform="matrix(1,0,0,1,-68.4424,-41.5702)">
            <text x="76.188px" y="355.099px" style="font-family:'Luminari-Regular', 'Luminari';font-size:14.698px;fill:rgb(5,5,5);">W<tspan x="90.136px 97.912px 105.628px " y="355.099px 355.099px 355.099px ">av </tspan>Pla<tspan x="130.629px 138.492px " y="355.099px 355.099px ">ye</tspan>r</text>
        </g>
        <g transform="matrix(0.0219124,0,0,0.0248558,-16.7787,295.937)">
            <g transform="matrix(55.8954,0,0,49.2765,-878.032,-330.791)">
                <path d="M27.733,13.757C27.957,11.616 28.949,10 30.136,10C31.489,10 32.587,12.095 32.587,14.677C32.587,15.669 32.424,16.59 32.148,17.347C32.432,17.974 32.587,18.65 32.587,19.353C32.587,22.678 29.128,25.378 24.868,25.378C20.609,25.378 17.15,22.678 17.15,19.353C17.15,18.65 17.305,17.974 17.589,17.347C17.313,16.59 17.15,15.669 17.15,14.677C17.15,12.095 18.248,10 19.601,10C20.788,10 21.779,11.616 22.003,13.757L22.04,13.746C22.915,13.476 23.87,13.328 24.868,13.328C25.881,13.328 26.847,13.48 27.733,13.757ZM17.609,17.304L17.606,17.31L17.609,17.304ZM32.128,17.305L32.131,17.31L32.128,17.305ZM17.627,17.265L17.623,17.273L17.627,17.265ZM32.11,17.266L32.113,17.273L32.11,17.266ZM17.645,17.227L17.641,17.236L17.645,17.227ZM32.092,17.228L32.096,17.236L32.092,17.228ZM17.663,17.19L17.659,17.2L17.663,17.19ZM32.074,17.191L32.078,17.199L32.074,17.191ZM17.682,17.153L17.677,17.162L17.682,17.153ZM32.055,17.154L32.059,17.161L32.055,17.154ZM17.7,17.117L17.696,17.125L17.7,17.117ZM32.037,17.117L32.04,17.123L32.037,17.117ZM17.719,17.081L17.717,17.085L17.719,17.081ZM32.018,17.081L32.019,17.082L32.018,17.081ZM17.782,16.964L17.778,16.971L17.782,16.964ZM31.957,16.968L31.958,16.97L31.957,16.968ZM17.804,16.925L17.798,16.935L17.804,16.925ZM31.935,16.928L31.938,16.934L31.935,16.928ZM17.825,16.888L17.818,16.9L17.825,16.888ZM31.914,16.891L31.918,16.899L31.914,16.891ZM17.845,16.852L17.838,16.865L17.845,16.852ZM31.893,16.854L31.898,16.863L31.893,16.854ZM17.866,16.817L17.859,16.829L17.866,16.817ZM31.871,16.819L31.876,16.827L31.871,16.819ZM17.888,16.782L17.88,16.794L17.888,16.782ZM31.85,16.783L31.855,16.791L31.85,16.783ZM17.909,16.747L17.902,16.758L17.909,16.747ZM31.829,16.748L31.832,16.754L31.829,16.748ZM17.931,16.712L17.925,16.72L17.931,16.712ZM31.807,16.713L31.808,16.714L31.807,16.713ZM17.979,16.635L17.975,16.642L17.979,16.635ZM18.005,16.596L17.998,16.608L18.005,16.596ZM31.735,16.602L31.738,16.606L31.735,16.602ZM18.029,16.561L18.02,16.573L18.029,16.561ZM31.711,16.564L31.716,16.572L31.711,16.564ZM18.052,16.526L18.043,16.539L18.052,16.526ZM31.686,16.529L31.692,16.537L31.686,16.529ZM18.076,16.492L18.066,16.505L18.076,16.492ZM31.663,16.494L31.669,16.503L31.663,16.494ZM18.1,16.458L18.09,16.471L18.1,16.458ZM31.639,16.459L31.645,16.469L31.639,16.459ZM18.124,16.424L18.114,16.437L18.124,16.424ZM31.614,16.425L31.62,16.434L31.614,16.425ZM18.148,16.39L18.139,16.403L18.148,16.39ZM31.59,16.392L31.595,16.398L31.59,16.392ZM18.172,16.357L18.164,16.367L18.172,16.357ZM31.566,16.358L31.567,16.36L31.566,16.358ZM18.197,16.324L18.196,16.324L18.197,16.324ZM18.23,16.28L18.222,16.291L18.23,16.28ZM31.513,16.288L31.514,16.289L31.513,16.288ZM18.257,16.245L18.247,16.258L18.257,16.245ZM31.484,16.249L31.489,16.256L31.484,16.249ZM18.283,16.211L18.272,16.225L18.283,16.211ZM31.456,16.214L31.463,16.223L31.456,16.214ZM18.309,16.178L18.298,16.192L18.309,16.178ZM31.43,16.18L31.438,16.19L31.43,16.18ZM18.335,16.145L18.324,16.16L18.335,16.145ZM31.403,16.147L31.411,16.158L31.403,16.147ZM18.362,16.113L18.35,16.127L18.362,16.113ZM31.376,16.114L31.385,16.125L31.376,16.114ZM18.388,16.081L18.377,16.094L18.388,16.081ZM31.35,16.082L31.357,16.091L31.35,16.082ZM18.415,16.049L18.404,16.061L18.415,16.049ZM31.323,16.05L31.329,16.057L31.323,16.05ZM18.442,16.017L18.433,16.027L18.442,16.017ZM31.295,16.018L31.298,16.021L31.295,16.018ZM18.473,15.981L18.469,15.985L18.473,15.981ZM18.507,15.942L18.497,15.954L18.507,15.942ZM31.234,15.947L31.239,15.953L31.234,15.947ZM18.536,15.909L18.525,15.922L18.536,15.909ZM31.203,15.912L31.211,15.921L31.203,15.912ZM18.565,15.877L18.553,15.891L18.565,15.877ZM31.174,15.879L31.183,15.89L31.174,15.879ZM18.594,15.846L18.581,15.86L18.594,15.846ZM31.145,15.847L31.155,15.859L31.145,15.847ZM18.622,15.815L18.61,15.828L18.622,15.815ZM31.115,15.816L31.126,15.827L31.115,15.816ZM18.651,15.784L18.639,15.797L18.651,15.784ZM31.086,15.785L31.097,15.796L31.086,15.785ZM18.68,15.753L18.668,15.766L18.68,15.753ZM31.057,15.754L31.067,15.765L31.057,15.754ZM18.71,15.723L18.698,15.735L18.71,15.723ZM31.027,15.723L31.037,15.733L31.027,15.723ZM18.739,15.692L18.73,15.702L18.739,15.692ZM30.998,15.693L31.003,15.698L30.998,15.693ZM18.775,15.656L18.769,15.662L18.775,15.656ZM30.965,15.659L30.967,15.662L30.965,15.659ZM18.81,15.621L18.799,15.632L18.81,15.621ZM30.928,15.622L30.937,15.632L30.928,15.622ZM18.842,15.59L18.83,15.602L18.842,15.59ZM30.895,15.591L30.907,15.602L30.895,15.591ZM18.873,15.56L18.86,15.572L18.873,15.56ZM30.864,15.56L30.876,15.572L30.864,15.56ZM18.904,15.53L18.891,15.543L18.904,15.53ZM30.832,15.53L30.846,15.543L30.832,15.53ZM30.801,15.5L30.814,15.513L30.801,15.5ZM18.936,15.501L18.923,15.513L18.936,15.501ZM30.769,15.471L30.783,15.484L30.769,15.471ZM18.967,15.471L18.954,15.483L18.967,15.471ZM30.738,15.442L30.751,15.454L30.738,15.442ZM18.999,15.442L18.986,15.454L18.999,15.442ZM30.706,15.413L30.719,15.425L30.706,15.413ZM19.031,15.413L19.019,15.424L19.031,15.413ZM30.674,15.384L30.684,15.394L30.674,15.384ZM19.063,15.385L19.056,15.391L19.063,15.385ZM30.63,15.346L30.642,15.356L30.63,15.346ZM19.101,15.35L19.095,15.356L19.101,15.35ZM30.595,15.315L30.61,15.328L30.595,15.315ZM19.139,15.318L19.128,15.327L19.139,15.318ZM30.561,15.286L30.577,15.3L30.561,15.286ZM19.173,15.288L19.161,15.299L19.173,15.288ZM30.528,15.258L30.544,15.272L30.528,15.258ZM19.207,15.26L19.194,15.271L19.207,15.26ZM30.494,15.23L30.511,15.244L30.494,15.23ZM19.241,15.231L19.227,15.243L19.241,15.231ZM30.461,15.202L30.478,15.216L30.461,15.202ZM19.274,15.204L19.261,15.215L19.274,15.204ZM30.427,15.175L30.444,15.189L30.427,15.175ZM19.308,15.176L19.295,15.187L19.308,15.176ZM30.393,15.147L30.41,15.161L30.393,15.147ZM19.342,15.149L19.33,15.158L19.342,15.149ZM30.359,15.12L30.376,15.134L30.359,15.12ZM19.377,15.121L19.366,15.129L19.377,15.121ZM30.325,15.093L30.343,15.107L30.326,15.094L30.305,15.078L30.325,15.093ZM19.411,15.094L19.409,15.096L19.411,15.094ZM30.273,15.053L30.292,15.068L30.273,15.053ZM19.452,15.062L19.446,15.067L19.452,15.062ZM30.238,15.027L30.257,15.041L30.238,15.027ZM19.492,15.032L19.481,15.04L19.492,15.032ZM30.203,15L30.222,15.015L30.203,15ZM19.529,15.004L19.516,15.013L19.529,15.004ZM30.168,14.974L30.187,14.989L30.168,14.974ZM19.565,14.977L19.552,14.987L19.565,14.977ZM30.132,14.948L30.152,14.963L30.132,14.948ZM19.601,14.951L19.588,14.961L19.601,14.951ZM30.097,14.922L30.117,14.937L30.097,14.922ZM19.637,14.925L19.624,14.934L19.637,14.925ZM30.061,14.897L30.081,14.911L30.061,14.897ZM19.673,14.899L19.661,14.908L19.673,14.899ZM30.025,14.871L30.046,14.886L30.025,14.871ZM19.71,14.873L19.698,14.881L19.71,14.873ZM29.988,14.846L30.011,14.862L29.988,14.846ZM19.746,14.848L19.738,14.853L19.746,14.848ZM29.954,14.822L29.915,14.796C29.928,14.805 29.941,14.813 29.954,14.822ZM19.826,14.793L19.821,14.796L19.826,14.793ZM29.858,14.758L29.881,14.773L29.858,14.758ZM19.868,14.765L19.858,14.771L19.868,14.765ZM29.822,14.734L29.845,14.749L29.822,14.734ZM19.907,14.739L19.896,14.747L19.907,14.739ZM29.785,14.71L29.807,14.724L29.785,14.71ZM19.946,14.714L19.933,14.722L19.946,14.714ZM29.747,14.686L29.77,14.7L29.747,14.686ZM19.984,14.689L19.971,14.697L19.984,14.689ZM29.71,14.662L29.733,14.676L29.71,14.662ZM20.023,14.665L20.01,14.673L20.023,14.665ZM29.672,14.638L29.696,14.653L29.672,14.638ZM20.061,14.641L20.049,14.648L20.061,14.641ZM29.634,14.615L29.659,14.63L29.634,14.615ZM20.099,14.617L20.09,14.623L20.099,14.617ZM29.494,14.531C29.537,14.556 29.58,14.582 29.623,14.608C29.581,14.582 29.538,14.556 29.494,14.531ZM20.138,14.593L20.134,14.596L20.138,14.593ZM20.221,14.543L20.218,14.545L20.221,14.543ZM29.458,14.51L29.483,14.525L29.458,14.51ZM20.266,14.517L20.257,14.522L20.266,14.517ZM29.42,14.488L29.444,14.502L29.42,14.488ZM20.308,14.493L20.297,14.499L20.308,14.493ZM29.381,14.466L29.405,14.48L29.381,14.466ZM20.349,14.47L20.337,14.477L20.349,14.47ZM29.341,14.444L29.366,14.457L29.341,14.444ZM20.389,14.447L20.377,14.454L20.389,14.447ZM29.302,14.422L29.327,14.436L29.302,14.422ZM20.43,14.425L20.418,14.431L20.43,14.425ZM29.262,14.4L29.288,14.414L29.262,14.4ZM20.47,14.403L20.46,14.408L20.47,14.403ZM29.222,14.379L29.249,14.393L29.222,14.379ZM20.51,14.381L20.503,14.385L20.51,14.381ZM29.186,14.359L29.143,14.337C29.157,14.344 29.171,14.352 29.186,14.359ZM29.077,14.303L29.105,14.317L29.077,14.303ZM20.638,14.314L20.636,14.315L20.638,14.314ZM29.038,14.283L29.064,14.296L29.038,14.283ZM20.685,14.29L20.677,14.294L20.685,14.29ZM28.998,14.263L29.023,14.276L28.998,14.263ZM20.729,14.268L20.719,14.273L20.729,14.268ZM28.957,14.243L28.982,14.255L28.957,14.243ZM20.772,14.247L20.761,14.252L20.772,14.247ZM28.916,14.223L28.941,14.235L28.916,14.223ZM20.814,14.226L20.803,14.232L20.814,14.226ZM28.875,14.203L28.899,14.215L28.875,14.203ZM20.857,14.206L20.846,14.211L20.857,14.206ZM28.833,14.184L28.858,14.195L28.833,14.184ZM20.899,14.186L20.891,14.19L20.899,14.186ZM28.791,14.164L28.817,14.176L28.791,14.164ZM20.942,14.166L20.937,14.168L20.942,14.166ZM28.752,14.146L28.707,14.126C28.722,14.133 28.737,14.139 28.752,14.146ZM28.643,14.097L28.667,14.108L28.643,14.097ZM21.075,14.106L21.074,14.106L21.075,14.106ZM28.601,14.079L28.624,14.089L28.601,14.079ZM21.124,14.084L21.117,14.087L21.124,14.084ZM28.558,14.061L28.581,14.071L28.558,14.061ZM21.17,14.065L21.161,14.068L21.17,14.065ZM28.516,14.043L28.538,14.052L28.516,14.043ZM21.215,14.046L21.204,14.05L21.215,14.046ZM28.473,14.025L28.494,14.034L28.473,14.025ZM21.259,14.027L21.249,14.031L21.259,14.027ZM28.429,14.007L28.451,14.016L28.429,14.007ZM21.303,14.009L21.294,14.013L21.303,14.009ZM28.386,13.989L28.406,13.998L28.386,13.989ZM21.347,13.991L21.341,13.994L21.347,13.991ZM28.342,13.972L28.361,13.979L28.342,13.972ZM21.392,13.973L21.391,13.974L21.392,13.973ZM28.298,13.955L28.311,13.96L28.298,13.955ZM28.243,13.934L28.254,13.938L28.243,13.934ZM28.195,13.915L28.21,13.921L28.195,13.915ZM21.531,13.92L21.53,13.92L21.531,13.92ZM28.149,13.898L28.165,13.904L28.149,13.898ZM21.581,13.901L21.575,13.903L21.581,13.901ZM28.103,13.882L28.119,13.888L28.103,13.882ZM21.629,13.884L21.62,13.887L21.629,13.884ZM28.058,13.866L28.074,13.871L28.058,13.866ZM21.675,13.867L21.666,13.87L21.675,13.867ZM28.013,13.85L28.028,13.855L28.013,13.85ZM21.721,13.851L21.713,13.854L21.721,13.851ZM27.968,13.834L27.981,13.839L27.968,13.834ZM21.767,13.835L21.76,13.837L21.767,13.835ZM27.922,13.819L27.932,13.822L27.922,13.819ZM21.813,13.819L21.809,13.821L21.813,13.819ZM27.877,13.803L27.879,13.804L27.877,13.803Z" style="fill:none;stroke:black;stroke-width:1.22px;"/>
            </g>
            <g transform="matrix(55.8954,0,0,49.2765,-878.032,-330.791)">
                <path d="M25.128,19.358C24.963,19.04 24.868,18.67 24.868,18.275C24.868,17.096 25.713,16.138 26.753,16.138C27.793,16.138 28.637,17.096 28.637,18.275C28.637,19.031 28.291,19.696 27.768,20.076C27.128,19.668 26.188,19.396 25.128,19.358ZM21.969,20.076C21.446,19.696 21.099,19.031 21.099,18.275C21.099,17.096 21.944,16.138 22.984,16.138C24.024,16.138 24.868,17.096 24.868,18.275C24.868,18.67 24.774,19.04 24.609,19.358C23.549,19.396 22.609,19.668 21.969,20.076Z" style="fill:none;stroke:black;stroke-width:1.22px;"/>
            </g>
            <g transform="matrix(1,0,0,1,-53.1856,50.0357)">
                <ellipse cx="565.186" cy="671.455" rx="210.672" ry="98.631" style="fill:none;stroke:black;stroke-width:63.81px;"/>
            </g>
            <g transform="matrix(51.2,0,0,45.1371,0.670978,88.9676)">
                <path d="M12.057,13.791C12.057,13.668 11.958,13.568 11.835,13.568L8.139,13.568C8.016,13.568 7.916,13.668 7.916,13.791L7.916,14.236C7.916,14.359 8.016,14.458 8.139,14.458L11.835,14.458C11.958,14.458 12.057,14.359 12.057,14.236L12.057,13.791Z"/>
            </g>
        </g>
    </g>
</svg>
