<?xml version="1.0" encoding="UTF-8" standalone="no"?>
<!DOCTYPE svg PUBLIC "-//W3C//DTD SVG 1.1//EN" "http://www.w3.org/Graphics/SVG/1.1/DTD/svg11.dtd">
<svg width="100%" height="100%" viewBox="0 0 60 380" version="1.1" xmlns="http://www.w3.org/2000/svg" xmlns:xlink="http://www.w3.org/1999/xlink" xml:space="preserve" xmlns:serif="http://www.serif.com/" style="fill-rule:evenodd;clip-rule:evenodd;stroke-linecap:round;stroke-linejoin:round;stroke-miterlimit:1.5;">
    <g transform="matrix(1,0,0,1,-155.127,35.5994)">
        <g id="Connect-ledbutton" serif:id="Connect#ledbutton" transform="matrix(1,0,0,1,83.8192,-6.50751)">
            <circle cx="101.308" cy="310.24" r="9.898" style="fill:rgb(115,115,115);"/>
        </g>
        <g transform="matrix(1,0,0,1,83.3642,161.947)">
            <g transform="matrix(10,0,0,10,89.1979,118.306)">
                <path d="M0.15,-0.146C0.15,-0.13 0.155,-0.118 0.164,-0.109C0.172,-0.1 0.185,-0.096 0.2,-0.096C0.219,-0.096 0.232,-0.102 0.239,-0.113C0.245,-0.124 0.249,-0.136 0.25,-0.147L0.352,-0.147C0.352,-0.102 0.338,-0.066 0.311,-0.039C0.298,-0.025 0.282,-0.014 0.263,-0.006C0.244,0.002 0.223,0.006 0.2,0.006C0.168,0.006 0.141,-0.001 0.119,-0.014C0.096,-0.027 0.079,-0.045 0.067,-0.067C0.06,-0.08 0.055,-0.096 0.052,-0.113C0.049,-0.13 0.048,-0.149 0.048,-0.17L0.048,-0.337C0.048,-0.358 0.049,-0.377 0.052,-0.394C0.055,-0.411 0.06,-0.427 0.067,-0.44C0.079,-0.462 0.096,-0.48 0.119,-0.493C0.141,-0.506 0.168,-0.513 0.2,-0.513C0.223,-0.513 0.245,-0.509 0.264,-0.501C0.282,-0.493 0.299,-0.482 0.312,-0.468C0.339,-0.438 0.352,-0.399 0.352,-0.351L0.25,-0.351C0.25,-0.372 0.246,-0.387 0.237,-0.397C0.228,-0.406 0.215,-0.411 0.2,-0.411C0.185,-0.411 0.172,-0.406 0.164,-0.397C0.155,-0.387 0.15,-0.372 0.15,-0.353L0.15,-0.146Z" style="fill-rule:nonzero;"/>
            </g>
            <g transform="matrix(10,0,0,10,92.8979,118.306)">
                <path d="M0.033,-0.337C0.033,-0.358 0.034,-0.377 0.037,-0.394C0.04,-0.411 0.045,-0.427 0.052,-0.44C0.064,-0.462 0.081,-0.48 0.104,-0.493C0.126,-0.506 0.153,-0.513 0.185,-0.513C0.217,-0.513 0.244,-0.506 0.267,-0.493C0.289,-0.48 0.306,-0.462 0.318,-0.44C0.325,-0.427 0.33,-0.411 0.333,-0.394C0.336,-0.377 0.337,-0.358 0.337,-0.337L0.337,-0.17C0.337,-0.149 0.336,-0.13 0.333,-0.113C0.33,-0.096 0.325,-0.08 0.318,-0.067C0.306,-0.045 0.289,-0.027 0.267,-0.014C0.244,-0.001 0.217,0.006 0.185,0.006C0.153,0.006 0.126,-0.001 0.104,-0.014C0.081,-0.027 0.064,-0.045 0.052,-0.067C0.045,-0.08 0.04,-0.096 0.037,-0.113C0.034,-0.13 0.033,-0.149 0.033,-0.17L0.033,-0.337ZM0.135,-0.154C0.135,-0.135 0.139,-0.12 0.149,-0.111C0.158,-0.101 0.17,-0.096 0.185,-0.096C0.2,-0.096 0.213,-0.101 0.222,-0.111C0.231,-0.12 0.235,-0.135 0.235,-0.154L0.235,-0.353C0.235,-0.372 0.231,-0.387 0.222,-0.397C0.213,-0.406 0.2,-0.411 0.185,-0.411C0.17,-0.411 0.158,-0.406 0.149,-0.397C0.139,-0.387 0.135,-0.372 0.135,-0.353L0.135,-0.154Z" style="fill-rule:nonzero;"/>
            </g>
            <g transform="matrix(10,0,0,10,96.5979,118.306)">
                <path d="M0.042,-0L0.042,-0.507L0.144,-0.507L0.144,-0.458L0.146,-0.458C0.157,-0.474 0.169,-0.487 0.185,-0.498C0.2,-0.508 0.219,-0.513 0.242,-0.513C0.255,-0.513 0.267,-0.511 0.28,-0.507C0.293,-0.502 0.304,-0.495 0.314,-0.485C0.324,-0.475 0.332,-0.462 0.338,-0.447C0.344,-0.431 0.347,-0.412 0.347,-0.389L0.347,-0L0.245,-0L0.245,-0.351C0.245,-0.37 0.241,-0.384 0.232,-0.395C0.223,-0.406 0.211,-0.411 0.195,-0.411C0.176,-0.411 0.162,-0.405 0.155,-0.393C0.148,-0.381 0.144,-0.364 0.144,-0.341L0.144,-0L0.042,-0Z" style="fill-rule:nonzero;"/>
            </g>
            <g transform="matrix(10,0,0,10,100.488,118.306)">
                <path d="M0.042,-0L0.042,-0.507L0.144,-0.507L0.144,-0.458L0.146,-0.458C0.157,-0.474 0.169,-0.487 0.185,-0.498C0.2,-0.508 0.219,-0.513 0.242,-0.513C0.255,-0.513 0.267,-0.511 0.28,-0.507C0.293,-0.502 0.304,-0.495 0.314,-0.485C0.324,-0.475 0.332,-0.462 0.338,-0.447C0.344,-0.431 0.347,-0.412 0.347,-0.389L0.347,-0L0.245,-0L0.245,-0.351C0.245,-0.37 0.241,-0.384 0.232,-0.395C0.223,-0.406 0.211,-0.411 0.195,-0.411C0.176,-0.411 0.162,-0.405 0.155,-0.393C0.148,-0.381 0.144,-0.364 0.144,-0.341L0.144,-0L0.042,-0Z" style="fill-rule:nonzero;"/>
            </g>
            <g transform="matrix(10,0,0,10,104.378,118.306)">
                <path d="M0.337,-0.215L0.135,-0.215L0.135,-0.146C0.135,-0.13 0.139,-0.118 0.149,-0.109C0.158,-0.1 0.17,-0.096 0.185,-0.096C0.204,-0.096 0.217,-0.102 0.224,-0.113C0.23,-0.124 0.234,-0.136 0.235,-0.147L0.337,-0.147C0.337,-0.102 0.323,-0.066 0.296,-0.039C0.283,-0.025 0.267,-0.014 0.248,-0.006C0.229,0.002 0.208,0.006 0.185,0.006C0.153,0.006 0.126,-0.001 0.104,-0.014C0.081,-0.027 0.064,-0.045 0.052,-0.067C0.045,-0.08 0.04,-0.096 0.037,-0.113C0.034,-0.13 0.033,-0.149 0.033,-0.17L0.033,-0.337C0.033,-0.358 0.034,-0.377 0.037,-0.394C0.04,-0.411 0.045,-0.427 0.052,-0.44C0.064,-0.462 0.081,-0.48 0.104,-0.493C0.126,-0.506 0.153,-0.513 0.185,-0.513C0.208,-0.513 0.23,-0.509 0.249,-0.501C0.268,-0.493 0.284,-0.482 0.297,-0.468C0.324,-0.438 0.337,-0.4 0.337,-0.355L0.337,-0.215ZM0.135,-0.295L0.235,-0.295L0.235,-0.353C0.235,-0.372 0.231,-0.387 0.222,-0.397C0.213,-0.406 0.2,-0.411 0.185,-0.411C0.17,-0.411 0.158,-0.406 0.149,-0.397C0.139,-0.387 0.135,-0.372 0.135,-0.353L0.135,-0.295Z" style="fill-rule:nonzero;"/>
            </g>
            <g transform="matrix(10,0,0,10,108.078,118.306)">
                <path d="M0.15,-0.146C0.15,-0.13 0.155,-0.118 0.164,-0.109C0.172,-0.1 0.185,-0.096 0.2,-0.096C0.219,-0.096 0.232,-0.102 0.239,-0.113C0.245,-0.124 0.249,-0.136 0.25,-0.147L0.352,-0.147C0.352,-0.102 0.338,-0.066 0.311,-0.039C0.298,-0.025 0.282,-0.014 0.263,-0.006C0.244,0.002 0.223,0.006 0.2,0.006C0.168,0.006 0.141,-0.001 0.119,-0.014C0.096,-0.027 0.079,-0.045 0.067,-0.067C0.06,-0.08 0.055,-0.096 0.052,-0.113C0.049,-0.13 0.048,-0.149 0.048,-0.17L0.048,-0.337C0.048,-0.358 0.049,-0.377 0.052,-0.394C0.055,-0.411 0.06,-0.427 0.067,-0.44C0.079,-0.462 0.096,-0.48 0.119,-0.493C0.141,-0.506 0.168,-0.513 0.2,-0.513C0.223,-0.513 0.245,-0.509 0.264,-0.501C0.282,-0.493 0.299,-0.482 0.312,-0.468C0.339,-0.438 0.352,-0.399 0.352,-0.351L0.25,-0.351C0.25,-0.372 0.246,-0.387 0.237,-0.397C0.228,-0.406 0.215,-0.411 0.2,-0.411C0.185,-0.411 0.172,-0.406 0.164,-0.397C0.155,-0.387 0.15,-0.372 0.15,-0.353L0.15,-0.146Z" style="fill-rule:nonzero;"/>
            </g>
            <g transform="matrix(10,0,0,10,111.778,118.306)">
                <path d="M0.042,-0.507L0.042,-0.661L0.144,-0.661L0.144,-0.507L0.207,-0.507L0.207,-0.427L0.144,-0.427L0.144,-0.146C0.144,-0.134 0.145,-0.125 0.148,-0.118C0.15,-0.111 0.154,-0.106 0.159,-0.103C0.164,-0.1 0.171,-0.098 0.179,-0.097C0.186,-0.096 0.196,-0.096 0.207,-0.096L0.207,-0L0.165,-0C0.142,-0 0.122,-0.004 0.107,-0.011C0.091,-0.018 0.078,-0.028 0.069,-0.039C0.06,-0.05 0.053,-0.063 0.049,-0.078C0.044,-0.092 0.042,-0.106 0.042,-0.119L0.042,-0.427L-0.009,-0.427L-0.009,-0.507L0.042,-0.507Z" style="fill-rule:nonzero;"/>
            </g>
        </g>
    </g>
    <g transform="matrix(1,0,0,1,-141.008,-4.85558)">
        <g id="D-output" serif:id="D#output" transform="matrix(0.175002,0,0,0.175002,142.982,228.607)">
            <rect x="53.94" y="106.916" width="161.978" height="161.978" style="fill:rgb(77,77,77);"/>
        </g>
        <g id="D-meter-5" serif:id="D#meter$5" transform="matrix(0.0370421,-5.00742e-33,-2.66667e-34,0.160516,181.597,231.329)">
            <rect x="53.94" y="106.916" width="161.978" height="161.978"/>
        </g>
        <g transform="matrix(1,0,0,1,73.9403,122.833)">
            <g transform="matrix(10,0,0,10,94.9379,118.306)">
                <path d="M0.048,-0L0.048,-0.712L0.199,-0.712C0.258,-0.712 0.302,-0.696 0.333,-0.664C0.363,-0.632 0.378,-0.587 0.378,-0.528L0.378,-0.195C0.378,-0.128 0.362,-0.079 0.33,-0.048C0.297,-0.016 0.251,-0 0.19,-0L0.048,-0ZM0.15,-0.616L0.15,-0.096L0.197,-0.096C0.226,-0.096 0.246,-0.103 0.258,-0.118C0.27,-0.132 0.276,-0.154 0.276,-0.185L0.276,-0.528C0.276,-0.556 0.27,-0.578 0.259,-0.593C0.248,-0.608 0.227,-0.616 0.197,-0.616L0.15,-0.616Z" style="fill-rule:nonzero;"/>
            </g>
        </g>
    </g>
    <g transform="matrix(1,0,0,1,-141.008,-56.1809)">
        <g id="C-output" serif:id="C#output" transform="matrix(0.175002,0,0,0.175002,142.982,228.607)">
            <rect x="53.94" y="106.916" width="161.978" height="161.978" style="fill:rgb(77,77,77);"/>
        </g>
        <g id="C-meter-5" serif:id="C#meter$5" transform="matrix(0.0370421,-5.00742e-33,-2.66667e-34,0.160516,181.597,231.329)">
            <rect x="53.94" y="106.916" width="161.978" height="161.978"/>
        </g>
        <g transform="matrix(1,0,0,1,73.9403,122.833)">
            <g transform="matrix(10,0,0,10,95.0329,118.306)">
                <path d="M0.372,-0.203L0.372,-0.159C0.372,-0.137 0.368,-0.116 0.36,-0.097C0.351,-0.077 0.34,-0.059 0.325,-0.044C0.31,-0.029 0.293,-0.017 0.274,-0.008C0.254,0.002 0.233,0.006 0.21,0.006C0.191,0.006 0.171,0.003 0.151,-0.002C0.131,-0.007 0.113,-0.017 0.097,-0.03C0.081,-0.043 0.068,-0.061 0.058,-0.082C0.047,-0.102 0.042,-0.129 0.042,-0.162L0.042,-0.554C0.042,-0.577 0.046,-0.599 0.054,-0.619C0.062,-0.639 0.073,-0.656 0.088,-0.671C0.103,-0.686 0.12,-0.697 0.141,-0.706C0.161,-0.714 0.183,-0.718 0.208,-0.718C0.256,-0.718 0.295,-0.702 0.325,-0.671C0.34,-0.656 0.351,-0.638 0.36,-0.617C0.368,-0.596 0.372,-0.573 0.372,-0.548L0.372,-0.508L0.27,-0.508L0.27,-0.542C0.27,-0.562 0.264,-0.579 0.253,-0.594C0.242,-0.609 0.226,-0.616 0.207,-0.616C0.182,-0.616 0.165,-0.608 0.157,-0.593C0.148,-0.577 0.144,-0.557 0.144,-0.533L0.144,-0.169C0.144,-0.148 0.149,-0.131 0.158,-0.117C0.167,-0.103 0.183,-0.096 0.206,-0.096C0.213,-0.096 0.22,-0.097 0.228,-0.1C0.235,-0.102 0.242,-0.106 0.249,-0.111C0.255,-0.116 0.26,-0.124 0.264,-0.133C0.268,-0.142 0.27,-0.154 0.27,-0.168L0.27,-0.203L0.372,-0.203Z" style="fill-rule:nonzero;"/>
            </g>
        </g>
    </g>
    <g transform="matrix(1,0,0,1,-141.008,-107.506)">
        <g id="B-output" serif:id="B#output" transform="matrix(0.175002,0,0,0.175002,142.982,228.607)">
            <rect x="53.94" y="106.916" width="161.978" height="161.978" style="fill:rgb(77,77,77);"/>
        </g>
        <g id="B-meter-5" serif:id="B#meter$5" transform="matrix(0.0370421,-5.00742e-33,-2.66667e-34,0.160516,181.597,231.329)">
            <rect x="53.94" y="106.916" width="161.978" height="161.978"/>
        </g>
        <g transform="matrix(1,0,0,1,73.9403,122.833)">
            <g transform="matrix(10,0,0,10,94.9379,118.306)">
                <path d="M0.048,-0L0.048,-0.712L0.197,-0.712C0.23,-0.712 0.258,-0.707 0.281,-0.697C0.304,-0.687 0.322,-0.674 0.337,-0.657C0.352,-0.64 0.362,-0.621 0.369,-0.6C0.375,-0.578 0.378,-0.555 0.378,-0.532L0.378,-0.506C0.378,-0.487 0.377,-0.47 0.374,-0.457C0.371,-0.444 0.366,-0.432 0.36,-0.422C0.349,-0.403 0.331,-0.387 0.308,-0.374C0.332,-0.363 0.35,-0.346 0.361,-0.324C0.372,-0.302 0.378,-0.272 0.378,-0.234L0.378,-0.194C0.378,-0.131 0.363,-0.083 0.333,-0.05C0.302,-0.017 0.254,-0 0.187,-0L0.048,-0ZM0.15,-0.33L0.15,-0.102L0.194,-0.102C0.215,-0.102 0.231,-0.105 0.243,-0.111C0.254,-0.117 0.263,-0.125 0.269,-0.136C0.275,-0.147 0.279,-0.159 0.28,-0.174C0.281,-0.189 0.282,-0.205 0.282,-0.222C0.282,-0.24 0.281,-0.256 0.279,-0.269C0.277,-0.282 0.273,-0.294 0.267,-0.303C0.26,-0.312 0.251,-0.319 0.24,-0.324C0.229,-0.328 0.214,-0.33 0.195,-0.33L0.15,-0.33ZM0.15,-0.616L0.15,-0.42L0.196,-0.42C0.23,-0.42 0.253,-0.428 0.265,-0.446C0.276,-0.463 0.282,-0.487 0.282,-0.52C0.282,-0.552 0.276,-0.576 0.263,-0.592C0.249,-0.608 0.226,-0.616 0.192,-0.616L0.15,-0.616Z" style="fill-rule:nonzero;"/>
            </g>
        </g>
    </g>
    <g transform="matrix(1,0,0,1,-141.008,-158.832)">
        <g id="A-output" serif:id="A#output" transform="matrix(0.175002,0,0,0.175002,142.982,228.607)">
            <rect x="53.94" y="106.916" width="161.978" height="161.978" style="fill:rgb(77,77,77);"/>
        </g>
        <g id="A-meter-5" serif:id="A#meter$5" transform="matrix(0.0370421,-5.00742e-33,-2.66667e-34,0.160516,181.597,231.329)">
            <rect x="53.94" y="106.916" width="161.978" height="161.978"/>
        </g>
        <g transform="matrix(1,0,0,1,73.9403,122.833)">
            <g transform="matrix(10,0,0,10,95.0329,118.306)">
                <path d="M0.254,-0.249L0.204,-0.507L0.202,-0.507L0.152,-0.249L0.254,-0.249ZM0.002,-0L0.161,-0.712L0.246,-0.712L0.405,-0L0.303,-0L0.273,-0.153L0.134,-0.153L0.104,-0L0.002,-0Z" style="fill-rule:nonzero;"/>
            </g>
        </g>
    </g>
    <g transform="matrix(0.816456,0,0,0.816456,9.52626,-234.29)">
        <g transform="matrix(1,0,0,1,-85.9906,-21.3213)">
            <g transform="matrix(14.6977,0,0,14.6977,87.9916,355.099)">
                <path d="M0.173,-0.021C0.158,-0.012 0.138,-0.003 0.115,0.006C0.092,0.015 0.067,0.02 0.042,0.02C0.027,0.02 0.016,0.019 0.009,0.016C0.002,0.013 -0.001,0.008 -0.001,-0C-0.001,-0.003 -0.001,-0.006 0.001,-0.009C0.002,-0.012 0.003,-0.015 0.004,-0.018C0.005,-0.02 0.007,-0.022 0.009,-0.023C0.011,-0.024 0.013,-0.023 0.015,-0.02C0.019,-0.015 0.025,-0.012 0.033,-0.011C0.041,-0.01 0.05,-0.01 0.059,-0.01C0.073,-0.011 0.086,-0.016 0.097,-0.025C0.108,-0.034 0.117,-0.046 0.122,-0.061C0.125,-0.07 0.127,-0.085 0.13,-0.105C0.133,-0.125 0.135,-0.149 0.137,-0.177C0.138,-0.205 0.14,-0.236 0.141,-0.271C0.142,-0.305 0.142,-0.341 0.142,-0.379C0.142,-0.466 0.14,-0.533 0.135,-0.582C0.13,-0.63 0.124,-0.658 0.117,-0.665C0.112,-0.669 0.105,-0.672 0.097,-0.675C0.089,-0.677 0.081,-0.678 0.073,-0.679C0.064,-0.68 0.056,-0.68 0.048,-0.68C0.04,-0.68 0.034,-0.68 0.029,-0.679C0.024,-0.678 0.021,-0.68 0.018,-0.683C0.015,-0.686 0.014,-0.69 0.014,-0.693C0.014,-0.705 0.018,-0.711 0.027,-0.711C0.032,-0.711 0.04,-0.711 0.052,-0.71C0.064,-0.708 0.078,-0.708 0.094,-0.707C0.109,-0.705 0.126,-0.705 0.143,-0.704C0.16,-0.703 0.176,-0.703 0.19,-0.703C0.207,-0.703 0.224,-0.706 0.239,-0.711C0.254,-0.716 0.269,-0.722 0.285,-0.729C0.301,-0.736 0.319,-0.742 0.338,-0.747C0.357,-0.752 0.379,-0.755 0.404,-0.755C0.435,-0.755 0.465,-0.752 0.492,-0.747C0.519,-0.742 0.543,-0.733 0.563,-0.723C0.583,-0.712 0.599,-0.697 0.611,-0.68C0.622,-0.663 0.628,-0.642 0.628,-0.619C0.628,-0.592 0.622,-0.568 0.611,-0.547C0.6,-0.525 0.586,-0.506 0.569,-0.489C0.552,-0.472 0.534,-0.458 0.515,-0.447C0.496,-0.435 0.478,-0.426 0.463,-0.42C0.488,-0.418 0.515,-0.414 0.544,-0.408C0.573,-0.401 0.601,-0.392 0.626,-0.379C0.651,-0.366 0.673,-0.348 0.69,-0.327C0.707,-0.306 0.715,-0.279 0.715,-0.247C0.715,-0.222 0.71,-0.198 0.7,-0.175C0.689,-0.152 0.675,-0.13 0.658,-0.111C0.641,-0.091 0.621,-0.073 0.599,-0.057C0.576,-0.04 0.553,-0.026 0.529,-0.015C0.504,-0.004 0.48,0.005 0.455,0.012C0.43,0.018 0.406,0.021 0.385,0.021C0.372,0.021 0.357,0.02 0.338,0.018C0.319,0.015 0.299,0.012 0.279,0.008C0.259,0.004 0.24,-0 0.221,-0.006C0.202,-0.011 0.186,-0.016 0.173,-0.021ZM0.259,-0.225C0.26,-0.19 0.261,-0.165 0.262,-0.15C0.263,-0.135 0.265,-0.123 0.266,-0.115C0.268,-0.104 0.273,-0.093 0.281,-0.082C0.288,-0.071 0.298,-0.06 0.311,-0.051C0.323,-0.042 0.337,-0.034 0.354,-0.029C0.37,-0.023 0.388,-0.02 0.408,-0.02C0.429,-0.02 0.449,-0.024 0.468,-0.031C0.487,-0.038 0.503,-0.05 0.517,-0.066C0.53,-0.081 0.541,-0.101 0.549,-0.126C0.557,-0.151 0.561,-0.18 0.561,-0.215C0.561,-0.246 0.556,-0.273 0.546,-0.295C0.536,-0.317 0.522,-0.335 0.504,-0.349C0.485,-0.362 0.463,-0.372 0.437,-0.378C0.411,-0.384 0.382,-0.387 0.35,-0.387C0.331,-0.387 0.314,-0.387 0.297,-0.387C0.28,-0.386 0.268,-0.386 0.26,-0.385C0.259,-0.378 0.259,-0.37 0.259,-0.362L0.259,-0.225ZM0.273,-0.659C0.272,-0.65 0.27,-0.638 0.269,-0.623C0.268,-0.608 0.266,-0.59 0.265,-0.57C0.264,-0.549 0.263,-0.527 0.262,-0.504C0.261,-0.48 0.26,-0.455 0.259,-0.43C0.26,-0.428 0.263,-0.427 0.27,-0.426C0.277,-0.424 0.285,-0.424 0.294,-0.423C0.303,-0.422 0.312,-0.422 0.322,-0.422C0.332,-0.421 0.341,-0.421 0.349,-0.421C0.362,-0.421 0.373,-0.422 0.382,-0.423C0.391,-0.424 0.4,-0.425 0.407,-0.428C0.413,-0.43 0.42,-0.433 0.426,-0.436C0.432,-0.439 0.438,-0.444 0.444,-0.449C0.455,-0.458 0.466,-0.472 0.476,-0.491C0.485,-0.51 0.49,-0.537 0.49,-0.571C0.49,-0.595 0.487,-0.616 0.48,-0.635C0.473,-0.653 0.465,-0.668 0.454,-0.681C0.443,-0.693 0.431,-0.702 0.418,-0.708C0.404,-0.714 0.39,-0.717 0.375,-0.717C0.368,-0.717 0.359,-0.716 0.348,-0.714C0.337,-0.712 0.327,-0.709 0.317,-0.705C0.307,-0.7 0.298,-0.694 0.29,-0.687C0.281,-0.679 0.276,-0.67 0.273,-0.659Z" style="fill-rule:nonzero;"/>
            </g>
            <g transform="matrix(14.6977,0,0,14.6977,98.7944,355.099)">
                <path d="M0.494,-0.117C0.487,-0.109 0.475,-0.098 0.46,-0.084C0.445,-0.07 0.426,-0.056 0.405,-0.042C0.383,-0.028 0.359,-0.016 0.332,-0.006C0.305,0.004 0.277,0.009 0.247,0.009C0.22,0.009 0.193,0.005 0.167,-0.004C0.141,-0.012 0.118,-0.025 0.097,-0.042C0.076,-0.059 0.06,-0.08 0.048,-0.107C0.035,-0.133 0.029,-0.164 0.029,-0.201C0.029,-0.231 0.031,-0.257 0.035,-0.279C0.039,-0.3 0.044,-0.319 0.051,-0.336C0.058,-0.352 0.065,-0.366 0.074,-0.378C0.082,-0.389 0.09,-0.4 0.099,-0.409C0.11,-0.421 0.123,-0.432 0.138,-0.443C0.153,-0.454 0.17,-0.463 0.188,-0.472C0.205,-0.481 0.224,-0.488 0.244,-0.493C0.263,-0.498 0.283,-0.5 0.303,-0.5C0.339,-0.5 0.367,-0.494 0.388,-0.482C0.408,-0.47 0.418,-0.453 0.418,-0.432C0.418,-0.419 0.414,-0.406 0.406,-0.395C0.413,-0.397 0.421,-0.4 0.432,-0.405C0.442,-0.41 0.452,-0.415 0.463,-0.42C0.474,-0.424 0.483,-0.429 0.492,-0.433C0.5,-0.437 0.505,-0.44 0.508,-0.442C0.509,-0.443 0.511,-0.444 0.513,-0.444C0.514,-0.443 0.515,-0.442 0.515,-0.44C0.515,-0.431 0.513,-0.424 0.51,-0.419C0.507,-0.413 0.503,-0.408 0.498,-0.405C0.487,-0.398 0.472,-0.39 0.452,-0.38C0.432,-0.37 0.41,-0.36 0.386,-0.349C0.361,-0.338 0.336,-0.327 0.31,-0.316C0.284,-0.305 0.26,-0.294 0.237,-0.284C0.214,-0.274 0.194,-0.265 0.177,-0.258C0.16,-0.25 0.148,-0.244 0.142,-0.241C0.142,-0.218 0.147,-0.197 0.156,-0.178C0.165,-0.158 0.177,-0.141 0.193,-0.126C0.209,-0.111 0.228,-0.1 0.251,-0.092C0.273,-0.083 0.297,-0.079 0.324,-0.079C0.348,-0.079 0.37,-0.082 0.389,-0.087C0.408,-0.092 0.425,-0.097 0.438,-0.104C0.451,-0.11 0.462,-0.116 0.47,-0.121C0.477,-0.126 0.481,-0.128 0.482,-0.128C0.485,-0.128 0.487,-0.127 0.49,-0.125C0.493,-0.122 0.494,-0.12 0.494,-0.117ZM0.142,-0.27C0.153,-0.274 0.166,-0.279 0.181,-0.285C0.195,-0.29 0.209,-0.296 0.223,-0.303C0.236,-0.31 0.249,-0.316 0.26,-0.322C0.271,-0.328 0.28,-0.333 0.286,-0.338C0.298,-0.347 0.304,-0.361 0.304,-0.382C0.304,-0.39 0.303,-0.398 0.3,-0.407C0.297,-0.416 0.292,-0.424 0.286,-0.431C0.28,-0.438 0.273,-0.443 0.264,-0.448C0.255,-0.452 0.246,-0.454 0.235,-0.454C0.226,-0.454 0.216,-0.451 0.205,-0.445C0.194,-0.438 0.184,-0.428 0.175,-0.414C0.166,-0.399 0.158,-0.38 0.152,-0.357C0.145,-0.333 0.142,-0.304 0.142,-0.27Z" style="fill-rule:nonzero;"/>
            </g>
            <g transform="matrix(14.6977,0,0,14.6977,105.614,355.099)">
                <path d="M0.196,-0.005C0.197,-0.005 0.2,-0.006 0.204,-0.007C0.207,-0.008 0.21,-0.008 0.211,-0.008C0.215,-0.008 0.218,-0.005 0.219,-0C0.22,0.005 0.219,0.009 0.216,0.011C0.211,0.015 0.204,0.02 0.196,0.025C0.188,0.03 0.179,0.036 0.17,0.042C0.16,0.047 0.15,0.053 0.141,0.058C0.132,0.063 0.124,0.068 0.117,0.072C0.113,0.074 0.107,0.077 0.1,0.082C0.092,0.086 0.084,0.09 0.077,0.095C0.069,0.099 0.062,0.102 0.055,0.106C0.048,0.109 0.044,0.11 0.042,0.11C0.039,0.11 0.035,0.108 0.033,0.105C0.029,0.102 0.028,0.099 0.028,0.096C0.028,0.093 0.028,0.091 0.029,0.091L0.05,0.078C0.056,0.074 0.062,0.065 0.065,0.052C0.068,0.041 0.07,0.023 0.073,-0C0.076,-0.023 0.078,-0.051 0.08,-0.082C0.082,-0.113 0.084,-0.147 0.085,-0.184C0.086,-0.221 0.087,-0.259 0.087,-0.298L0.087,-0.341C0.087,-0.354 0.087,-0.366 0.086,-0.377C0.085,-0.377 0.08,-0.378 0.071,-0.379C0.062,-0.38 0.052,-0.381 0.042,-0.382C0.032,-0.383 0.023,-0.385 0.015,-0.387C0.006,-0.388 0.002,-0.39 0.002,-0.393C0.002,-0.394 0.002,-0.396 0.002,-0.399C0.001,-0.402 0.004,-0.406 0.009,-0.411C0.014,-0.416 0.021,-0.422 0.029,-0.429C0.036,-0.436 0.044,-0.442 0.051,-0.449C0.058,-0.456 0.065,-0.462 0.072,-0.467C0.078,-0.472 0.083,-0.477 0.086,-0.48C0.087,-0.5 0.087,-0.518 0.088,-0.535C0.088,-0.551 0.089,-0.566 0.09,-0.579C0.091,-0.596 0.094,-0.609 0.098,-0.619C0.102,-0.628 0.108,-0.637 0.115,-0.646C0.123,-0.655 0.139,-0.667 0.162,-0.682C0.185,-0.696 0.213,-0.711 0.245,-0.726C0.256,-0.731 0.266,-0.736 0.275,-0.74C0.283,-0.744 0.291,-0.747 0.299,-0.75C0.307,-0.752 0.315,-0.754 0.324,-0.755C0.333,-0.756 0.343,-0.757 0.354,-0.757C0.383,-0.757 0.409,-0.754 0.43,-0.748C0.451,-0.741 0.467,-0.733 0.478,-0.723C0.478,-0.72 0.474,-0.715 0.465,-0.706C0.456,-0.697 0.446,-0.688 0.435,-0.677C0.424,-0.666 0.412,-0.654 0.401,-0.643C0.39,-0.632 0.381,-0.622 0.376,-0.614C0.374,-0.611 0.371,-0.61 0.367,-0.611C0.363,-0.612 0.362,-0.614 0.363,-0.617C0.364,-0.62 0.366,-0.622 0.367,-0.625C0.368,-0.628 0.368,-0.631 0.368,-0.635C0.368,-0.653 0.359,-0.669 0.341,-0.682C0.323,-0.695 0.3,-0.702 0.272,-0.702C0.256,-0.702 0.243,-0.697 0.232,-0.688C0.221,-0.678 0.213,-0.662 0.207,-0.639C0.202,-0.618 0.198,-0.593 0.196,-0.565C0.193,-0.536 0.191,-0.5 0.19,-0.456C0.199,-0.454 0.212,-0.452 0.227,-0.452C0.242,-0.451 0.258,-0.45 0.275,-0.45L0.313,-0.45C0.326,-0.45 0.339,-0.45 0.353,-0.451C0.366,-0.452 0.378,-0.452 0.39,-0.454C0.401,-0.455 0.411,-0.456 0.418,-0.458C0.421,-0.455 0.422,-0.452 0.422,-0.449C0.413,-0.435 0.398,-0.424 0.378,-0.415C0.358,-0.406 0.337,-0.398 0.314,-0.393C0.291,-0.387 0.268,-0.383 0.245,-0.381C0.222,-0.379 0.203,-0.378 0.188,-0.378C0.188,-0.367 0.188,-0.351 0.187,-0.331C0.186,-0.31 0.186,-0.288 0.185,-0.265C0.184,-0.242 0.184,-0.218 0.184,-0.195C0.183,-0.171 0.183,-0.15 0.183,-0.131C0.183,-0.116 0.183,-0.101 0.184,-0.086C0.184,-0.071 0.184,-0.058 0.185,-0.047C0.186,-0.036 0.187,-0.026 0.189,-0.019C0.19,-0.011 0.193,-0.006 0.196,-0.005Z" style="fill-rule:nonzero;"/>
            </g>
            <g transform="matrix(14.6977,0,0,14.6977,110.508,355.099)">
                <path d="M0.359,-0.156C0.357,-0.167 0.355,-0.18 0.353,-0.193C0.351,-0.206 0.349,-0.219 0.347,-0.231C0.345,-0.243 0.343,-0.253 0.342,-0.262C0.34,-0.271 0.339,-0.276 0.338,-0.279C0.327,-0.275 0.315,-0.27 0.302,-0.265C0.289,-0.26 0.275,-0.254 0.262,-0.248C0.249,-0.241 0.236,-0.235 0.224,-0.229C0.212,-0.222 0.202,-0.216 0.194,-0.211C0.179,-0.201 0.167,-0.191 0.159,-0.181C0.151,-0.171 0.147,-0.159 0.147,-0.145C0.147,-0.126 0.153,-0.109 0.164,-0.094C0.175,-0.079 0.193,-0.072 0.217,-0.072C0.23,-0.072 0.243,-0.074 0.257,-0.079C0.27,-0.084 0.283,-0.089 0.295,-0.095C0.306,-0.101 0.316,-0.107 0.325,-0.113C0.334,-0.119 0.34,-0.124 0.343,-0.127C0.348,-0.132 0.353,-0.137 0.356,-0.141C0.359,-0.144 0.36,-0.149 0.359,-0.156ZM0.33,-0.311C0.326,-0.332 0.321,-0.35 0.316,-0.367C0.311,-0.383 0.304,-0.397 0.296,-0.408C0.288,-0.419 0.278,-0.427 0.267,-0.433C0.256,-0.438 0.242,-0.441 0.225,-0.441C0.21,-0.441 0.197,-0.438 0.185,-0.433C0.172,-0.428 0.162,-0.421 0.153,-0.414C0.143,-0.407 0.137,-0.399 0.132,-0.392C0.127,-0.385 0.124,-0.379 0.123,-0.375C0.122,-0.37 0.119,-0.367 0.114,-0.367C0.105,-0.367 0.096,-0.37 0.088,-0.377C0.08,-0.384 0.076,-0.392 0.076,-0.401C0.076,-0.406 0.077,-0.41 0.078,-0.413C0.093,-0.422 0.112,-0.431 0.134,-0.441C0.156,-0.451 0.179,-0.46 0.203,-0.469C0.226,-0.478 0.25,-0.485 0.273,-0.491C0.296,-0.496 0.317,-0.499 0.336,-0.499C0.364,-0.499 0.386,-0.495 0.401,-0.487C0.416,-0.479 0.427,-0.468 0.434,-0.453C0.441,-0.438 0.446,-0.421 0.448,-0.402C0.449,-0.382 0.451,-0.361 0.452,-0.338C0.454,-0.304 0.457,-0.271 0.46,-0.24C0.463,-0.208 0.468,-0.18 0.475,-0.156C0.482,-0.131 0.49,-0.112 0.501,-0.097C0.511,-0.082 0.524,-0.074 0.539,-0.074C0.546,-0.074 0.554,-0.075 0.563,-0.078C0.572,-0.081 0.58,-0.084 0.588,-0.088C0.596,-0.091 0.603,-0.095 0.61,-0.099C0.616,-0.102 0.62,-0.105 0.622,-0.106C0.628,-0.106 0.632,-0.103 0.633,-0.097C0.633,-0.094 0.632,-0.091 0.631,-0.088C0.63,-0.087 0.625,-0.083 0.616,-0.078C0.607,-0.073 0.597,-0.066 0.584,-0.059C0.571,-0.052 0.557,-0.044 0.542,-0.036C0.527,-0.027 0.511,-0.019 0.497,-0.012C0.482,-0.005 0.468,0.001 0.455,0.006C0.442,0.011 0.432,0.013 0.425,0.013C0.416,0.013 0.409,0.01 0.403,0.003C0.396,-0.005 0.391,-0.014 0.386,-0.026C0.381,-0.037 0.377,-0.051 0.374,-0.066C0.371,-0.081 0.368,-0.097 0.365,-0.114C0.353,-0.104 0.338,-0.092 0.319,-0.079C0.3,-0.065 0.28,-0.052 0.258,-0.04C0.236,-0.028 0.214,-0.018 0.191,-0.01C0.167,-0.001 0.145,0.003 0.124,0.003C0.106,0.003 0.09,0 0.077,-0.006C0.064,-0.011 0.053,-0.019 0.044,-0.028C0.035,-0.037 0.028,-0.048 0.024,-0.061C0.019,-0.073 0.017,-0.086 0.017,-0.099C0.017,-0.12 0.024,-0.138 0.037,-0.152C0.049,-0.165 0.07,-0.179 0.097,-0.194C0.11,-0.201 0.127,-0.21 0.15,-0.221C0.173,-0.232 0.196,-0.243 0.22,-0.254C0.243,-0.265 0.265,-0.276 0.286,-0.287C0.306,-0.297 0.321,-0.305 0.33,-0.311Z" style="fill-rule:nonzero;"/>
            </g>
            <g transform="matrix(14.6977,0,0,14.6977,118.592,355.099)">
                <path d="M0.451,-0.454C0.45,-0.45 0.446,-0.444 0.44,-0.436C0.433,-0.427 0.426,-0.419 0.417,-0.41C0.408,-0.401 0.399,-0.392 0.39,-0.384C0.38,-0.375 0.371,-0.369 0.364,-0.365C0.359,-0.363 0.357,-0.364 0.356,-0.367C0.355,-0.37 0.354,-0.374 0.354,-0.377C0.354,-0.382 0.351,-0.389 0.346,-0.397C0.34,-0.405 0.332,-0.413 0.322,-0.421C0.311,-0.428 0.299,-0.435 0.285,-0.44C0.271,-0.445 0.256,-0.448 0.239,-0.448C0.21,-0.448 0.187,-0.433 0.169,-0.402C0.151,-0.371 0.142,-0.329 0.142,-0.278C0.142,-0.247 0.147,-0.219 0.157,-0.194C0.166,-0.169 0.18,-0.148 0.197,-0.131C0.214,-0.114 0.234,-0.1 0.258,-0.092C0.282,-0.083 0.308,-0.078 0.336,-0.078C0.374,-0.078 0.404,-0.083 0.427,-0.093C0.45,-0.102 0.468,-0.113 0.483,-0.126C0.484,-0.126 0.484,-0.126 0.485,-0.127C0.485,-0.128 0.485,-0.128 0.486,-0.128C0.489,-0.128 0.492,-0.127 0.493,-0.125C0.494,-0.122 0.495,-0.119 0.495,-0.116C0.495,-0.113 0.494,-0.111 0.493,-0.11C0.483,-0.102 0.469,-0.091 0.452,-0.078C0.434,-0.065 0.414,-0.051 0.391,-0.039C0.368,-0.025 0.345,-0.014 0.32,-0.005C0.295,0.004 0.271,0.009 0.247,0.009C0.178,0.009 0.125,-0.011 0.087,-0.051C0.048,-0.091 0.029,-0.146 0.029,-0.215C0.029,-0.268 0.039,-0.312 0.06,-0.348C0.08,-0.384 0.105,-0.413 0.135,-0.435C0.164,-0.456 0.196,-0.472 0.229,-0.481C0.262,-0.49 0.292,-0.495 0.317,-0.495C0.338,-0.495 0.356,-0.494 0.373,-0.491C0.389,-0.488 0.403,-0.484 0.415,-0.48C0.426,-0.475 0.435,-0.471 0.442,-0.466C0.448,-0.461 0.451,-0.457 0.451,-0.454Z" style="fill-rule:nonzero;"/>
            </g>
            <g transform="matrix(14.6977,0,0,14.6977,125.162,355.099)">
                <path d="M0.429,-0.08C0.422,-0.074 0.412,-0.066 0.399,-0.056C0.386,-0.046 0.372,-0.036 0.355,-0.026C0.338,-0.016 0.32,-0.008 0.3,-0.001C0.28,0.007 0.259,0.01 0.237,0.01C0.204,0.01 0.174,0.004 0.148,-0.008C0.122,-0.019 0.1,-0.035 0.083,-0.055C0.065,-0.074 0.051,-0.097 0.043,-0.124C0.034,-0.151 0.029,-0.179 0.029,-0.209C0.029,-0.244 0.034,-0.276 0.045,-0.303C0.056,-0.33 0.069,-0.354 0.085,-0.375C0.1,-0.395 0.117,-0.412 0.135,-0.426C0.153,-0.439 0.169,-0.45 0.184,-0.458C0.191,-0.462 0.199,-0.466 0.21,-0.471C0.22,-0.476 0.231,-0.48 0.244,-0.484C0.256,-0.488 0.269,-0.492 0.284,-0.495C0.298,-0.498 0.313,-0.499 0.328,-0.499C0.357,-0.499 0.385,-0.495 0.412,-0.488C0.439,-0.481 0.462,-0.469 0.483,-0.454C0.504,-0.438 0.52,-0.418 0.533,-0.393C0.546,-0.368 0.552,-0.339 0.552,-0.304C0.552,-0.276 0.547,-0.25 0.537,-0.225C0.526,-0.2 0.514,-0.178 0.5,-0.159C0.486,-0.14 0.472,-0.123 0.459,-0.11C0.445,-0.096 0.435,-0.086 0.429,-0.08ZM0.316,-0.064C0.354,-0.064 0.383,-0.078 0.404,-0.107C0.424,-0.136 0.434,-0.18 0.434,-0.239C0.434,-0.269 0.43,-0.297 0.422,-0.323C0.413,-0.348 0.402,-0.371 0.387,-0.39C0.372,-0.409 0.354,-0.424 0.334,-0.436C0.314,-0.447 0.292,-0.452 0.269,-0.452C0.252,-0.452 0.237,-0.448 0.222,-0.439C0.207,-0.43 0.193,-0.418 0.182,-0.402C0.171,-0.385 0.162,-0.365 0.155,-0.342C0.148,-0.319 0.145,-0.292 0.145,-0.263C0.145,-0.232 0.15,-0.204 0.16,-0.179C0.169,-0.154 0.182,-0.134 0.198,-0.117C0.214,-0.099 0.232,-0.087 0.253,-0.078C0.273,-0.069 0.294,-0.064 0.316,-0.064Z" style="fill-rule:nonzero;"/>
            </g>
            <g transform="matrix(14.6977,0,0,14.6977,88.5795,369.797)">
                <path d="M0.276,-0.687C0.265,-0.687 0.25,-0.687 0.23,-0.688C0.209,-0.689 0.188,-0.69 0.165,-0.691C0.142,-0.692 0.12,-0.694 0.099,-0.696C0.077,-0.698 0.059,-0.7 0.046,-0.703C0.043,-0.704 0.041,-0.708 0.039,-0.714C0.036,-0.719 0.035,-0.725 0.035,-0.73C0.035,-0.736 0.038,-0.741 0.043,-0.744C0.07,-0.737 0.099,-0.731 0.13,-0.727C0.161,-0.722 0.191,-0.719 0.22,-0.716C0.249,-0.713 0.275,-0.712 0.298,-0.711C0.321,-0.71 0.337,-0.71 0.348,-0.71C0.374,-0.71 0.401,-0.711 0.428,-0.712C0.455,-0.713 0.481,-0.715 0.504,-0.717C0.527,-0.719 0.547,-0.721 0.563,-0.723C0.578,-0.725 0.587,-0.727 0.59,-0.729C0.591,-0.729 0.593,-0.728 0.596,-0.725C0.599,-0.722 0.6,-0.719 0.6,-0.716C0.6,-0.709 0.597,-0.703 0.59,-0.7C0.583,-0.696 0.574,-0.693 0.562,-0.692C0.55,-0.69 0.535,-0.689 0.518,-0.688C0.501,-0.687 0.481,-0.686 0.46,-0.685C0.457,-0.684 0.455,-0.681 0.455,-0.674C0.455,-0.659 0.458,-0.633 0.463,-0.598C0.468,-0.563 0.474,-0.523 0.482,-0.478C0.489,-0.433 0.498,-0.386 0.508,-0.337C0.517,-0.288 0.527,-0.241 0.537,-0.198C0.546,-0.154 0.555,-0.116 0.564,-0.083C0.572,-0.05 0.579,-0.027 0.585,-0.015C0.588,-0.014 0.591,-0.013 0.594,-0.013C0.596,-0.012 0.6,-0.012 0.606,-0.012C0.615,-0.012 0.622,-0.012 0.629,-0.013C0.635,-0.014 0.64,-0.014 0.643,-0.014C0.646,-0.014 0.648,-0.011 0.649,-0.006C0.65,-0.001 0.651,0.003 0.651,0.005C0.651,0.01 0.649,0.012 0.644,0.012C0.641,0.012 0.636,0.012 0.63,0.011C0.624,0.01 0.616,0.01 0.605,0.01C0.594,0.009 0.58,0.009 0.564,0.008C0.547,0.007 0.525,0.007 0.499,0.007C0.49,0.007 0.481,0.007 0.471,0.008C0.46,0.009 0.45,0.009 0.441,0.01C0.432,0.011 0.423,0.011 0.416,0.012C0.409,0.013 0.404,0.013 0.401,0.013C0.399,0.013 0.397,0.012 0.396,0.009C0.395,0.006 0.394,0.003 0.394,-0C0.394,-0.003 0.395,-0.006 0.396,-0.009C0.397,-0.011 0.398,-0.012 0.401,-0.012C0.407,-0.013 0.415,-0.013 0.425,-0.014C0.435,-0.014 0.44,-0.016 0.44,-0.021C0.44,-0.025 0.438,-0.037 0.435,-0.057C0.432,-0.077 0.428,-0.101 0.423,-0.129C0.418,-0.157 0.412,-0.187 0.407,-0.219C0.401,-0.25 0.395,-0.28 0.39,-0.307C0.378,-0.309 0.363,-0.311 0.345,-0.312C0.326,-0.313 0.307,-0.314 0.287,-0.314C0.264,-0.314 0.242,-0.313 0.221,-0.311C0.2,-0.309 0.183,-0.305 0.171,-0.3C0.168,-0.285 0.164,-0.27 0.16,-0.254C0.156,-0.237 0.152,-0.221 0.149,-0.204C0.145,-0.187 0.142,-0.171 0.139,-0.155C0.136,-0.138 0.135,-0.123 0.135,-0.109C0.135,-0.082 0.141,-0.062 0.153,-0.05C0.164,-0.038 0.179,-0.032 0.196,-0.032C0.213,-0.032 0.224,-0.033 0.229,-0.034C0.233,-0.035 0.237,-0.035 0.24,-0.035C0.245,-0.035 0.248,-0.034 0.248,-0.031C0.248,-0.03 0.247,-0.028 0.244,-0.025C0.241,-0.022 0.237,-0.018 0.232,-0.015C0.226,-0.01 0.218,-0.005 0.209,0.003C0.199,0.01 0.186,0.013 0.171,0.013C0.169,0.013 0.164,0.013 0.156,0.012C0.147,0.011 0.137,0.011 0.125,0.01C0.113,0.009 0.1,0.008 0.087,0.007C0.074,0.006 0.061,0.006 0.049,0.006C0.032,0.006 0.019,0.006 0.009,0.007C-0.002,0.008 -0.01,0.008 -0.016,0.009C-0.022,0.01 -0.026,0.01 -0.029,0.011C-0.031,0.012 -0.033,0.012 -0.034,0.012C-0.035,0.012 -0.037,0.011 -0.038,0.009C-0.039,0.006 -0.039,0.004 -0.039,0.001C-0.039,-0.003 -0.037,-0.005 -0.034,-0.006C-0.027,-0.009 -0.018,-0.014 -0.005,-0.021C0.008,-0.029 0.02,-0.043 0.031,-0.062C0.041,-0.081 0.053,-0.106 0.066,-0.139C0.075,-0.161 0.086,-0.191 0.097,-0.229C0.108,-0.267 0.12,-0.309 0.131,-0.354C0.142,-0.399 0.153,-0.447 0.163,-0.497C0.173,-0.546 0.181,-0.594 0.188,-0.64L0.276,-0.687ZM0.378,-0.376C0.375,-0.393 0.371,-0.413 0.367,-0.438C0.362,-0.463 0.358,-0.488 0.353,-0.514C0.348,-0.539 0.344,-0.563 0.34,-0.586C0.335,-0.609 0.332,-0.626 0.329,-0.638C0.325,-0.656 0.322,-0.667 0.319,-0.672C0.316,-0.677 0.312,-0.679 0.309,-0.679C0.302,-0.679 0.295,-0.674 0.288,-0.663C0.281,-0.652 0.273,-0.637 0.265,-0.619C0.256,-0.6 0.248,-0.579 0.24,-0.556C0.232,-0.532 0.224,-0.507 0.217,-0.483C0.209,-0.458 0.202,-0.433 0.196,-0.408C0.189,-0.383 0.184,-0.361 0.18,-0.341C0.191,-0.344 0.204,-0.347 0.221,-0.35C0.237,-0.353 0.254,-0.356 0.273,-0.359C0.291,-0.362 0.309,-0.366 0.328,-0.369C0.346,-0.372 0.363,-0.374 0.378,-0.376Z" style="fill-rule:nonzero;"/>
            </g>
            <g transform="matrix(14.6977,0,0,14.6977,97.6333,369.797)">
                <path d="M0.523,0.005C0.516,0.005 0.507,0.005 0.496,0.006C0.485,0.007 0.472,0.007 0.46,0.008C0.447,0.008 0.433,0.008 0.42,0.009C0.406,0.01 0.393,0.01 0.382,0.01C0.337,0.01 0.294,0.003 0.251,-0.011C0.208,-0.024 0.171,-0.046 0.138,-0.075C0.105,-0.103 0.078,-0.141 0.058,-0.187C0.037,-0.232 0.027,-0.287 0.027,-0.351C0.027,-0.41 0.038,-0.462 0.061,-0.507C0.083,-0.552 0.112,-0.59 0.149,-0.621C0.186,-0.652 0.227,-0.675 0.273,-0.691C0.319,-0.707 0.366,-0.715 0.414,-0.715C0.425,-0.715 0.439,-0.714 0.458,-0.713C0.476,-0.712 0.494,-0.71 0.513,-0.708C0.531,-0.706 0.547,-0.704 0.562,-0.702C0.576,-0.699 0.585,-0.697 0.589,-0.695C0.598,-0.718 0.607,-0.739 0.618,-0.757C0.629,-0.775 0.643,-0.789 0.662,-0.798C0.667,-0.8 0.673,-0.8 0.68,-0.799C0.687,-0.798 0.69,-0.794 0.69,-0.789C0.687,-0.783 0.684,-0.779 0.683,-0.778C0.681,-0.777 0.679,-0.776 0.676,-0.776C0.668,-0.776 0.66,-0.772 0.653,-0.765C0.645,-0.758 0.638,-0.748 0.631,-0.737C0.624,-0.725 0.619,-0.712 0.614,-0.697C0.608,-0.682 0.605,-0.666 0.602,-0.651C0.601,-0.644 0.599,-0.635 0.598,-0.626C0.596,-0.616 0.594,-0.606 0.593,-0.597C0.592,-0.588 0.591,-0.579 0.59,-0.57C0.589,-0.561 0.589,-0.554 0.589,-0.548C0.589,-0.545 0.588,-0.542 0.585,-0.54C0.582,-0.537 0.58,-0.536 0.577,-0.536C0.573,-0.536 0.568,-0.538 0.563,-0.542C0.56,-0.559 0.555,-0.575 0.547,-0.592C0.538,-0.609 0.527,-0.624 0.512,-0.637C0.497,-0.65 0.478,-0.661 0.456,-0.669C0.433,-0.677 0.407,-0.681 0.376,-0.681C0.343,-0.681 0.314,-0.673 0.289,-0.658C0.263,-0.643 0.241,-0.622 0.224,-0.595C0.206,-0.568 0.192,-0.537 0.183,-0.5C0.174,-0.463 0.169,-0.424 0.169,-0.382C0.169,-0.324 0.175,-0.273 0.187,-0.228C0.198,-0.183 0.214,-0.144 0.235,-0.113C0.256,-0.082 0.28,-0.058 0.309,-0.042C0.338,-0.025 0.369,-0.017 0.403,-0.017C0.426,-0.017 0.448,-0.021 0.47,-0.028C0.491,-0.035 0.511,-0.045 0.53,-0.058C0.548,-0.071 0.564,-0.085 0.579,-0.102C0.593,-0.119 0.604,-0.136 0.612,-0.155C0.613,-0.158 0.617,-0.16 0.623,-0.161C0.628,-0.162 0.631,-0.162 0.631,-0.159C0.631,-0.15 0.628,-0.138 0.623,-0.124C0.617,-0.109 0.61,-0.094 0.603,-0.079C0.596,-0.064 0.588,-0.05 0.581,-0.038C0.574,-0.025 0.569,-0.017 0.566,-0.013C0.564,-0.008 0.562,-0.002 0.559,0.006C0.556,0.013 0.553,0.022 0.551,0.032C0.548,0.041 0.546,0.051 0.544,0.062C0.542,0.072 0.541,0.082 0.541,0.092C0.541,0.103 0.54,0.109 0.537,0.112C0.534,0.115 0.529,0.116 0.52,0.116C0.513,0.116 0.509,0.111 0.51,0.101C0.511,0.09 0.512,0.078 0.515,0.065C0.518,0.052 0.52,0.039 0.523,0.028C0.526,0.016 0.526,0.008 0.523,0.005Z" style="fill-rule:nonzero;"/>
            </g>
            <g transform="matrix(14.6977,0,0,14.6977,107.128,369.797)">
                <path d="M-0.073,0.109C-0.064,0.099 -0.051,0.079 -0.034,0.05C-0.016,0.02 0.005,-0.015 0.028,-0.056C0.05,-0.097 0.075,-0.141 0.101,-0.19C0.126,-0.238 0.152,-0.286 0.177,-0.334C0.196,-0.369 0.216,-0.408 0.239,-0.451C0.261,-0.494 0.282,-0.535 0.302,-0.575C0.322,-0.615 0.339,-0.651 0.354,-0.682C0.369,-0.713 0.377,-0.734 0.38,-0.745L0.441,-0.745C0.438,-0.741 0.432,-0.731 0.423,-0.716C0.413,-0.701 0.403,-0.682 0.39,-0.659C0.377,-0.636 0.363,-0.611 0.348,-0.583C0.333,-0.555 0.317,-0.527 0.302,-0.498C0.286,-0.468 0.271,-0.44 0.256,-0.411C0.241,-0.382 0.227,-0.356 0.215,-0.333C0.204,-0.31 0.19,-0.285 0.175,-0.256C0.16,-0.227 0.144,-0.198 0.128,-0.167C0.111,-0.136 0.095,-0.106 0.079,-0.076C0.063,-0.046 0.049,-0.019 0.036,0.007C0.023,0.032 0.013,0.053 0.005,0.072C-0.004,0.09 -0.009,0.102 -0.01,0.109L-0.073,0.109Z" style="fill-rule:nonzero;"/>
            </g>
            <g transform="matrix(14.6977,0,0,14.6977,111.802,369.797)">
                <path d="M0.173,-0.021C0.158,-0.012 0.138,-0.003 0.115,0.006C0.092,0.015 0.067,0.02 0.042,0.02C0.027,0.02 0.016,0.019 0.009,0.016C0.002,0.013 -0.001,0.008 -0.001,-0C-0.001,-0.004 0,-0.009 0.002,-0.015C0.004,-0.02 0.007,-0.023 0.01,-0.023C0.011,-0.023 0.013,-0.022 0.015,-0.02C0.019,-0.015 0.025,-0.012 0.033,-0.011C0.041,-0.01 0.05,-0.01 0.059,-0.01C0.073,-0.011 0.086,-0.016 0.097,-0.025C0.108,-0.034 0.117,-0.046 0.122,-0.061C0.125,-0.07 0.127,-0.085 0.13,-0.105C0.133,-0.125 0.135,-0.149 0.137,-0.177C0.138,-0.205 0.14,-0.236 0.141,-0.271C0.142,-0.305 0.142,-0.341 0.142,-0.379C0.142,-0.466 0.14,-0.533 0.135,-0.582C0.13,-0.63 0.124,-0.658 0.117,-0.665C0.11,-0.671 0.1,-0.675 0.09,-0.677C0.079,-0.679 0.067,-0.68 0.056,-0.68L0.027,-0.679C0.023,-0.679 0.02,-0.681 0.018,-0.684C0.015,-0.687 0.014,-0.69 0.014,-0.693C0.014,-0.705 0.018,-0.711 0.027,-0.711C0.032,-0.711 0.04,-0.711 0.052,-0.71C0.064,-0.708 0.078,-0.708 0.094,-0.707C0.109,-0.705 0.126,-0.705 0.143,-0.704C0.16,-0.703 0.176,-0.703 0.19,-0.703C0.207,-0.703 0.224,-0.706 0.239,-0.711C0.254,-0.716 0.269,-0.722 0.285,-0.729C0.301,-0.736 0.319,-0.742 0.338,-0.747C0.357,-0.752 0.379,-0.755 0.404,-0.755C0.469,-0.755 0.526,-0.746 0.573,-0.727C0.62,-0.708 0.658,-0.683 0.688,-0.652C0.718,-0.62 0.74,-0.584 0.755,-0.543C0.769,-0.501 0.776,-0.459 0.776,-0.415C0.776,-0.363 0.767,-0.311 0.749,-0.259C0.73,-0.207 0.704,-0.16 0.67,-0.119C0.636,-0.077 0.595,-0.043 0.547,-0.018C0.498,0.008 0.444,0.021 0.385,0.021C0.372,0.021 0.357,0.02 0.338,0.018C0.319,0.015 0.299,0.012 0.279,0.008C0.259,0.004 0.24,-0 0.221,-0.006C0.202,-0.011 0.186,-0.016 0.173,-0.021ZM0.408,-0.02C0.447,-0.02 0.482,-0.029 0.511,-0.049C0.54,-0.068 0.565,-0.092 0.585,-0.124C0.604,-0.155 0.619,-0.19 0.629,-0.23C0.639,-0.27 0.644,-0.311 0.644,-0.353C0.644,-0.398 0.639,-0.442 0.628,-0.486C0.616,-0.529 0.6,-0.568 0.577,-0.603C0.554,-0.637 0.526,-0.665 0.493,-0.686C0.459,-0.707 0.42,-0.717 0.375,-0.717C0.368,-0.717 0.359,-0.716 0.348,-0.715C0.337,-0.713 0.327,-0.71 0.317,-0.705C0.307,-0.7 0.298,-0.694 0.29,-0.687C0.282,-0.68 0.277,-0.67 0.274,-0.659C0.272,-0.65 0.27,-0.638 0.269,-0.623C0.267,-0.608 0.265,-0.59 0.264,-0.57C0.262,-0.549 0.261,-0.527 0.26,-0.504C0.259,-0.48 0.259,-0.455 0.259,-0.43C0.259,-0.373 0.259,-0.325 0.26,-0.286C0.26,-0.247 0.26,-0.216 0.261,-0.192C0.262,-0.168 0.263,-0.15 0.264,-0.139C0.265,-0.127 0.265,-0.119 0.266,-0.115C0.268,-0.104 0.273,-0.093 0.281,-0.082C0.288,-0.071 0.298,-0.06 0.311,-0.051C0.323,-0.042 0.337,-0.034 0.354,-0.029C0.37,-0.023 0.388,-0.02 0.408,-0.02Z" style="fill-rule:nonzero;"/>
            </g>
            <g transform="matrix(14.6977,0,0,14.6977,123.531,369.797)">
                <path d="M0.523,0.005C0.516,0.005 0.507,0.005 0.496,0.006C0.485,0.007 0.472,0.007 0.46,0.008C0.447,0.008 0.433,0.008 0.42,0.009C0.406,0.01 0.393,0.01 0.382,0.01C0.337,0.01 0.294,0.003 0.251,-0.011C0.208,-0.024 0.171,-0.046 0.138,-0.075C0.105,-0.103 0.078,-0.141 0.058,-0.187C0.037,-0.232 0.027,-0.287 0.027,-0.351C0.027,-0.41 0.038,-0.462 0.061,-0.507C0.083,-0.552 0.112,-0.59 0.149,-0.621C0.186,-0.652 0.227,-0.675 0.273,-0.691C0.319,-0.707 0.366,-0.715 0.414,-0.715C0.425,-0.715 0.439,-0.714 0.458,-0.713C0.476,-0.712 0.494,-0.71 0.513,-0.708C0.531,-0.706 0.547,-0.704 0.562,-0.702C0.576,-0.699 0.585,-0.697 0.589,-0.695C0.598,-0.718 0.607,-0.739 0.618,-0.757C0.629,-0.775 0.643,-0.789 0.662,-0.798C0.667,-0.8 0.673,-0.8 0.68,-0.799C0.687,-0.798 0.69,-0.794 0.69,-0.789C0.687,-0.783 0.684,-0.779 0.683,-0.778C0.681,-0.777 0.679,-0.776 0.676,-0.776C0.668,-0.776 0.66,-0.772 0.653,-0.765C0.645,-0.758 0.638,-0.748 0.631,-0.737C0.624,-0.725 0.619,-0.712 0.614,-0.697C0.608,-0.682 0.605,-0.666 0.602,-0.651C0.601,-0.644 0.599,-0.635 0.598,-0.626C0.596,-0.616 0.594,-0.606 0.593,-0.597C0.592,-0.588 0.591,-0.579 0.59,-0.57C0.589,-0.561 0.589,-0.554 0.589,-0.548C0.589,-0.545 0.588,-0.542 0.585,-0.54C0.582,-0.537 0.58,-0.536 0.577,-0.536C0.573,-0.536 0.568,-0.538 0.563,-0.542C0.56,-0.559 0.555,-0.575 0.547,-0.592C0.538,-0.609 0.527,-0.624 0.512,-0.637C0.497,-0.65 0.478,-0.661 0.456,-0.669C0.433,-0.677 0.407,-0.681 0.376,-0.681C0.343,-0.681 0.314,-0.673 0.289,-0.658C0.263,-0.643 0.241,-0.622 0.224,-0.595C0.206,-0.568 0.192,-0.537 0.183,-0.5C0.174,-0.463 0.169,-0.424 0.169,-0.382C0.169,-0.324 0.175,-0.273 0.187,-0.228C0.198,-0.183 0.214,-0.144 0.235,-0.113C0.256,-0.082 0.28,-0.058 0.309,-0.042C0.338,-0.025 0.369,-0.017 0.403,-0.017C0.426,-0.017 0.448,-0.021 0.47,-0.028C0.491,-0.035 0.511,-0.045 0.53,-0.058C0.548,-0.071 0.564,-0.085 0.579,-0.102C0.593,-0.119 0.604,-0.136 0.612,-0.155C0.613,-0.158 0.617,-0.16 0.623,-0.161C0.628,-0.162 0.631,-0.162 0.631,-0.159C0.631,-0.15 0.628,-0.138 0.623,-0.124C0.617,-0.109 0.61,-0.094 0.603,-0.079C0.596,-0.064 0.588,-0.05 0.581,-0.038C0.574,-0.025 0.569,-0.017 0.566,-0.013C0.564,-0.008 0.562,-0.002 0.559,0.006C0.556,0.013 0.553,0.022 0.551,0.032C0.548,0.041 0.546,0.051 0.544,0.062C0.542,0.072 0.541,0.082 0.541,0.092C0.541,0.103 0.54,0.109 0.537,0.112C0.534,0.115 0.529,0.116 0.52,0.116C0.513,0.116 0.509,0.111 0.51,0.101C0.511,0.09 0.512,0.078 0.515,0.065C0.518,0.052 0.52,0.039 0.523,0.028C0.526,0.016 0.526,0.008 0.523,0.005Z" style="fill-rule:nonzero;"/>
            </g>
        </g>
        <g transform="matrix(0.0219124,0,0,0.0248558,13.8572,295.182)">
            <g transform="matrix(55.8954,0,0,49.2765,-878.032,-330.791)">
                <path d="M27.733,13.757C27.957,11.616 28.949,10 30.136,10C31.489,10 32.587,12.095 32.587,14.677C32.587,15.669 32.424,16.59 32.148,17.347C32.432,17.974 32.587,18.65 32.587,19.353C32.587,22.678 29.128,25.378 24.868,25.378C20.609,25.378 17.15,22.678 17.15,19.353C17.15,18.65 17.305,17.974 17.589,17.347C17.313,16.59 17.15,15.669 17.15,14.677C17.15,12.095 18.248,10 19.601,10C20.788,10 21.779,11.616 22.003,13.757L22.04,13.746C22.915,13.476 23.87,13.328 24.868,13.328C25.881,13.328 26.847,13.48 27.733,13.757ZM17.609,17.304L17.606,17.31L17.609,17.304ZM32.128,17.305L32.131,17.31L32.128,17.305ZM17.627,17.265L17.623,17.273L17.627,17.265ZM32.11,17.266L32.113,17.273L32.11,17.266ZM17.645,17.227L17.641,17.236L17.645,17.227ZM32.092,17.228L32.096,17.236L32.092,17.228ZM17.663,17.19L17.659,17.2L17.663,17.19ZM32.074,17.191L32.078,17.199L32.074,17.191ZM17.682,17.153L17.677,17.162L17.682,17.153ZM32.055,17.154L32.059,17.161L32.055,17.154ZM17.7,17.117L17.696,17.125L17.7,17.117ZM32.037,17.117L32.04,17.123L32.037,17.117ZM17.719,17.081L17.717,17.085L17.719,17.081ZM32.018,17.081L32.019,17.082L32.018,17.081ZM17.782,16.964L17.778,16.971L17.782,16.964ZM31.957,16.968L31.958,16.97L31.957,16.968ZM17.804,16.925L17.798,16.935L17.804,16.925ZM31.935,16.928L31.938,16.934L31.935,16.928ZM17.825,16.888L17.818,16.9L17.825,16.888ZM31.914,16.891L31.918,16.899L31.914,16.891ZM17.845,16.852L17.838,16.865L17.845,16.852ZM31.893,16.854L31.898,16.863L31.893,16.854ZM17.866,16.817L17.859,16.829L17.866,16.817ZM31.871,16.819L31.876,16.827L31.871,16.819ZM17.888,16.782L17.88,16.794L17.888,16.782ZM31.85,16.783L31.855,16.791L31.85,16.783ZM17.909,16.747L17.902,16.758L17.909,16.747ZM31.829,16.748L31.832,16.754L31.829,16.748ZM17.931,16.712L17.925,16.72L17.931,16.712ZM31.807,16.713L31.808,16.714L31.807,16.713ZM17.979,16.635L17.975,16.642L17.979,16.635ZM18.005,16.596L17.998,16.608L18.005,16.596ZM31.735,16.602L31.738,16.606L31.735,16.602ZM18.029,16.561L18.02,16.573L18.029,16.561ZM31.711,16.564L31.716,16.572L31.711,16.564ZM18.052,16.526L18.043,16.539L18.052,16.526ZM31.686,16.529L31.692,16.537L31.686,16.529ZM18.076,16.492L18.066,16.505L18.076,16.492ZM31.663,16.494L31.669,16.503L31.663,16.494ZM18.1,16.458L18.09,16.471L18.1,16.458ZM31.639,16.459L31.645,16.469L31.639,16.459ZM18.124,16.424L18.114,16.437L18.124,16.424ZM31.614,16.425L31.62,16.434L31.614,16.425ZM18.148,16.39L18.139,16.403L18.148,16.39ZM31.59,16.392L31.595,16.398L31.59,16.392ZM18.172,16.357L18.164,16.367L18.172,16.357ZM31.566,16.358L31.567,16.36L31.566,16.358ZM18.197,16.324L18.196,16.324L18.197,16.324ZM18.23,16.28L18.222,16.291L18.23,16.28ZM31.513,16.288L31.514,16.289L31.513,16.288ZM18.257,16.245L18.247,16.258L18.257,16.245ZM31.484,16.249L31.489,16.256L31.484,16.249ZM18.283,16.211L18.272,16.225L18.283,16.211ZM31.456,16.214L31.463,16.223L31.456,16.214ZM18.309,16.178L18.298,16.192L18.309,16.178ZM31.43,16.18L31.438,16.19L31.43,16.18ZM18.335,16.145L18.324,16.16L18.335,16.145ZM31.403,16.147L31.411,16.158L31.403,16.147ZM18.362,16.113L18.35,16.127L18.362,16.113ZM31.376,16.114L31.385,16.125L31.376,16.114ZM18.388,16.081L18.377,16.094L18.388,16.081ZM31.35,16.082L31.357,16.091L31.35,16.082ZM18.415,16.049L18.404,16.061L18.415,16.049ZM31.323,16.05L31.329,16.057L31.323,16.05ZM18.442,16.017L18.433,16.027L18.442,16.017ZM31.295,16.018L31.298,16.021L31.295,16.018ZM18.473,15.981L18.469,15.985L18.473,15.981ZM18.507,15.942L18.497,15.954L18.507,15.942ZM31.234,15.947L31.239,15.953L31.234,15.947ZM18.536,15.909L18.525,15.922L18.536,15.909ZM31.203,15.912L31.211,15.921L31.203,15.912ZM18.565,15.877L18.553,15.891L18.565,15.877ZM31.174,15.879L31.183,15.89L31.174,15.879ZM18.594,15.846L18.581,15.86L18.594,15.846ZM31.145,15.847L31.155,15.859L31.145,15.847ZM18.622,15.815L18.61,15.828L18.622,15.815ZM31.115,15.816L31.126,15.827L31.115,15.816ZM18.651,15.784L18.639,15.797L18.651,15.784ZM31.086,15.785L31.097,15.796L31.086,15.785ZM18.68,15.753L18.668,15.766L18.68,15.753ZM31.057,15.754L31.067,15.765L31.057,15.754ZM18.71,15.723L18.698,15.735L18.71,15.723ZM31.027,15.723L31.037,15.733L31.027,15.723ZM18.739,15.692L18.73,15.702L18.739,15.692ZM30.998,15.693L31.003,15.698L30.998,15.693ZM18.775,15.656L18.769,15.662L18.775,15.656ZM30.965,15.659L30.967,15.662L30.965,15.659ZM18.81,15.621L18.799,15.632L18.81,15.621ZM30.928,15.622L30.937,15.632L30.928,15.622ZM18.842,15.59L18.83,15.602L18.842,15.59ZM30.895,15.591L30.907,15.602L30.895,15.591ZM18.873,15.56L18.86,15.572L18.873,15.56ZM30.864,15.56L30.876,15.572L30.864,15.56ZM18.904,15.53L18.891,15.543L18.904,15.53ZM30.832,15.53L30.846,15.543L30.832,15.53ZM30.801,15.5L30.814,15.513L30.801,15.5ZM18.936,15.501L18.923,15.513L18.936,15.501ZM30.769,15.471L30.783,15.484L30.769,15.471ZM18.967,15.471L18.954,15.483L18.967,15.471ZM30.738,15.442L30.751,15.454L30.738,15.442ZM18.999,15.442L18.986,15.454L18.999,15.442ZM30.706,15.413L30.719,15.425L30.706,15.413ZM19.031,15.413L19.019,15.424L19.031,15.413ZM30.674,15.384L30.684,15.394L30.674,15.384ZM19.063,15.385L19.056,15.391L19.063,15.385ZM30.63,15.346L30.642,15.356L30.63,15.346ZM19.101,15.35L19.095,15.356L19.101,15.35ZM30.595,15.315L30.61,15.328L30.595,15.315ZM19.139,15.318L19.128,15.327L19.139,15.318ZM30.561,15.286L30.577,15.3L30.561,15.286ZM19.173,15.288L19.161,15.299L19.173,15.288ZM30.528,15.258L30.544,15.272L30.528,15.258ZM19.207,15.26L19.194,15.271L19.207,15.26ZM30.494,15.23L30.511,15.244L30.494,15.23ZM19.241,15.231L19.227,15.243L19.241,15.231ZM30.461,15.202L30.478,15.216L30.461,15.202ZM19.274,15.204L19.261,15.215L19.274,15.204ZM30.427,15.175L30.444,15.189L30.427,15.175ZM19.308,15.176L19.295,15.187L19.308,15.176ZM30.393,15.147L30.41,15.161L30.393,15.147ZM19.342,15.149L19.33,15.158L19.342,15.149ZM30.359,15.12L30.376,15.134L30.359,15.12ZM19.377,15.121L19.366,15.129L19.377,15.121ZM30.325,15.093L30.343,15.107L30.326,15.094L30.305,15.078L30.325,15.093ZM19.411,15.094L19.409,15.096L19.411,15.094ZM30.273,15.053L30.292,15.068L30.273,15.053ZM19.452,15.062L19.446,15.067L19.452,15.062ZM30.238,15.027L30.257,15.041L30.238,15.027ZM19.492,15.032L19.481,15.04L19.492,15.032ZM30.203,15L30.222,15.015L30.203,15ZM19.529,15.004L19.516,15.013L19.529,15.004ZM30.168,14.974L30.187,14.989L30.168,14.974ZM19.565,14.977L19.552,14.987L19.565,14.977ZM30.132,14.948L30.152,14.963L30.132,14.948ZM19.601,14.951L19.588,14.961L19.601,14.951ZM30.097,14.922L30.117,14.937L30.097,14.922ZM19.637,14.925L19.624,14.934L19.637,14.925ZM30.061,14.897L30.081,14.911L30.061,14.897ZM19.673,14.899L19.661,14.908L19.673,14.899ZM30.025,14.871L30.046,14.886L30.025,14.871ZM19.71,14.873L19.698,14.881L19.71,14.873ZM29.988,14.846L30.011,14.862L29.988,14.846ZM19.746,14.848L19.738,14.853L19.746,14.848ZM29.954,14.822L29.915,14.796C29.928,14.805 29.941,14.813 29.954,14.822ZM19.826,14.793L19.821,14.796L19.826,14.793ZM29.858,14.758L29.881,14.773L29.858,14.758ZM19.868,14.765L19.858,14.771L19.868,14.765ZM29.822,14.734L29.845,14.749L29.822,14.734ZM19.907,14.739L19.896,14.747L19.907,14.739ZM29.785,14.71L29.807,14.724L29.785,14.71ZM19.946,14.714L19.933,14.722L19.946,14.714ZM29.747,14.686L29.77,14.7L29.747,14.686ZM19.984,14.689L19.971,14.697L19.984,14.689ZM29.71,14.662L29.733,14.676L29.71,14.662ZM20.023,14.665L20.01,14.673L20.023,14.665ZM29.672,14.638L29.696,14.653L29.672,14.638ZM20.061,14.641L20.049,14.648L20.061,14.641ZM29.634,14.615L29.659,14.63L29.634,14.615ZM20.099,14.617L20.09,14.623L20.099,14.617ZM29.494,14.531C29.537,14.556 29.58,14.582 29.623,14.608C29.581,14.582 29.538,14.556 29.494,14.531ZM20.138,14.593L20.134,14.596L20.138,14.593ZM20.221,14.543L20.218,14.545L20.221,14.543ZM29.458,14.51L29.483,14.525L29.458,14.51ZM20.266,14.517L20.257,14.522L20.266,14.517ZM29.42,14.488L29.444,14.502L29.42,14.488ZM20.308,14.493L20.297,14.499L20.308,14.493ZM29.381,14.466L29.405,14.48L29.381,14.466ZM20.349,14.47L20.337,14.477L20.349,14.47ZM29.341,14.444L29.366,14.457L29.341,14.444ZM20.389,14.447L20.377,14.454L20.389,14.447ZM29.302,14.422L29.327,14.436L29.302,14.422ZM20.43,14.425L20.418,14.431L20.43,14.425ZM29.262,14.4L29.288,14.414L29.262,14.4ZM20.47,14.403L20.46,14.408L20.47,14.403ZM29.222,14.379L29.249,14.393L29.222,14.379ZM20.51,14.381L20.503,14.385L20.51,14.381ZM29.186,14.359L29.143,14.337C29.157,14.344 29.171,14.352 29.186,14.359ZM29.077,14.303L29.105,14.317L29.077,14.303ZM20.638,14.314L20.636,14.315L20.638,14.314ZM29.038,14.283L29.064,14.296L29.038,14.283ZM20.685,14.29L20.677,14.294L20.685,14.29ZM28.998,14.263L29.023,14.276L28.998,14.263ZM20.729,14.268L20.719,14.273L20.729,14.268ZM28.957,14.243L28.982,14.255L28.957,14.243ZM20.772,14.247L20.761,14.252L20.772,14.247ZM28.916,14.223L28.941,14.235L28.916,14.223ZM20.814,14.226L20.803,14.232L20.814,14.226ZM28.875,14.203L28.899,14.215L28.875,14.203ZM20.857,14.206L20.846,14.211L20.857,14.206ZM28.833,14.184L28.858,14.195L28.833,14.184ZM20.899,14.186L20.891,14.19L20.899,14.186ZM28.791,14.164L28.817,14.176L28.791,14.164ZM20.942,14.166L20.937,14.168L20.942,14.166ZM28.752,14.146L28.707,14.126C28.722,14.133 28.737,14.139 28.752,14.146ZM28.643,14.097L28.667,14.108L28.643,14.097ZM21.075,14.106L21.074,14.106L21.075,14.106ZM28.601,14.079L28.624,14.089L28.601,14.079ZM21.124,14.084L21.117,14.087L21.124,14.084ZM28.558,14.061L28.581,14.071L28.558,14.061ZM21.17,14.065L21.161,14.068L21.17,14.065ZM28.516,14.043L28.538,14.052L28.516,14.043ZM21.215,14.046L21.204,14.05L21.215,14.046ZM28.473,14.025L28.494,14.034L28.473,14.025ZM21.259,14.027L21.249,14.031L21.259,14.027ZM28.429,14.007L28.451,14.016L28.429,14.007ZM21.303,14.009L21.294,14.013L21.303,14.009ZM28.386,13.989L28.406,13.998L28.386,13.989ZM21.347,13.991L21.341,13.994L21.347,13.991ZM28.342,13.972L28.361,13.979L28.342,13.972ZM21.392,13.973L21.391,13.974L21.392,13.973ZM28.298,13.955L28.311,13.96L28.298,13.955ZM28.243,13.934L28.254,13.938L28.243,13.934ZM28.195,13.915L28.21,13.921L28.195,13.915ZM21.531,13.92L21.53,13.92L21.531,13.92ZM28.149,13.898L28.165,13.904L28.149,13.898ZM21.581,13.901L21.575,13.903L21.581,13.901ZM28.103,13.882L28.119,13.888L28.103,13.882ZM21.629,13.884L21.62,13.887L21.629,13.884ZM28.058,13.866L28.074,13.871L28.058,13.866ZM21.675,13.867L21.666,13.87L21.675,13.867ZM28.013,13.85L28.028,13.855L28.013,13.85ZM21.721,13.851L21.713,13.854L21.721,13.851ZM27.968,13.834L27.981,13.839L27.968,13.834ZM21.767,13.835L21.76,13.837L21.767,13.835ZM27.922,13.819L27.932,13.822L27.922,13.819ZM21.813,13.819L21.809,13.821L21.813,13.819ZM27.877,13.803L27.879,13.804L27.877,13.803Z" style="fill:none;stroke:black;stroke-width:1.22px;"/>
            </g>
            <g transform="matrix(55.8954,0,0,49.2765,-878.032,-330.791)">
                <path d="M25.128,19.358C24.963,19.04 24.868,18.67 24.868,18.275C24.868,17.096 25.713,16.138 26.753,16.138C27.793,16.138 28.637,17.096 28.637,18.275C28.637,19.031 28.291,19.696 27.768,20.076C27.128,19.668 26.188,19.396 25.128,19.358ZM21.969,20.076C21.446,19.696 21.099,19.031 21.099,18.275C21.099,17.096 21.944,16.138 22.984,16.138C24.024,16.138 24.868,17.096 24.868,18.275C24.868,18.67 24.774,19.04 24.609,19.358C23.549,19.396 22.609,19.668 21.969,20.076Z" style="fill:none;stroke:black;stroke-width:1.22px;"/>
            </g>
            <g transform="matrix(1,0,0,1,-53.1856,50.0357)">
                <ellipse cx="565.186" cy="671.455" rx="210.672" ry="98.631" style="fill:none;stroke:black;stroke-width:63.81px;"/>
            </g>
            <g transform="matrix(51.2,0,0,45.1371,0.670978,88.9676)">
                <path d="M12.057,13.791C12.057,13.668 11.958,13.568 11.835,13.568L8.139,13.568C8.016,13.568 7.916,13.668 7.916,13.791L7.916,14.236C7.916,14.359 8.016,14.458 8.139,14.458L11.835,14.458C11.958,14.458 12.057,14.359 12.057,14.236L12.057,13.791Z"/>
            </g>
        </g>
    </g>
</svg>
