<?xml version="1.0" encoding="UTF-8" standalone="no"?>
<!DOCTYPE svg PUBLIC "-//W3C//DTD SVG 1.1//EN" "http://www.w3.org/Graphics/SVG/1.1/DTD/svg11.dtd">
<svg width="100%" height="100%" viewBox="0 0 60 380" version="1.1" xmlns="http://www.w3.org/2000/svg" xmlns:xlink="http://www.w3.org/1999/xlink" xml:space="preserve" xmlns:serif="http://www.serif.com/" style="fill-rule:evenodd;clip-rule:evenodd;stroke-linecap:round;stroke-linejoin:round;stroke-miterlimit:1.5;">
    <g transform="matrix(1.08431,0,0,3.82264,-3.49268,-309.338)">
        <rect x="3.221" y="80.923" width="55.335" height="99.408" style="fill:rgb(102,126,153);"/>
    </g>
    <g transform="matrix(1,0,0,1,-133.442,-2.34924)">
        <g id="Connect-ledbutton" serif:id="Connect#ledbutton" transform="matrix(0.174892,0,0,0.175002,139.797,309.604)">
            <rect x="53.94" y="106.916" width="161.978" height="161.978" style="fill:rgb(102,126,153);"/>
        </g>
        <g transform="matrix(1,0,0,1,61.6324,198.288)">
            <path d="M90.698,116.846C90.698,117.006 90.743,117.13 90.833,117.216C90.923,117.303 91.045,117.346 91.198,117.346C91.391,117.346 91.52,117.29 91.583,117.176C91.646,117.063 91.685,116.95 91.698,116.836L92.718,116.836C92.718,117.283 92.581,117.643 92.308,117.916C92.175,118.056 92.015,118.166 91.828,118.246C91.641,118.326 91.431,118.366 91.198,118.366C90.878,118.366 90.606,118.3 90.383,118.166C90.16,118.033 89.988,117.856 89.868,117.636C89.795,117.503 89.745,117.35 89.718,117.176C89.691,117.003 89.678,116.813 89.678,116.606L89.678,114.936C89.678,114.73 89.691,114.54 89.718,114.366C89.745,114.193 89.795,114.04 89.868,113.906C89.988,113.686 90.16,113.51 90.383,113.376C90.606,113.243 90.878,113.176 91.198,113.176C91.431,113.176 91.643,113.216 91.833,113.296C92.023,113.376 92.185,113.486 92.318,113.626C92.585,113.926 92.718,114.316 92.718,114.796L91.698,114.796C91.698,114.59 91.653,114.438 91.563,114.341C91.473,114.245 91.351,114.196 91.198,114.196C91.045,114.196 90.923,114.245 90.833,114.341C90.743,114.438 90.698,114.583 90.698,114.776L90.698,116.846Z" style="fill:rgb(5,5,5);fill-rule:nonzero;"/>
            <path d="M93.228,114.936C93.228,114.73 93.241,114.54 93.268,114.366C93.295,114.193 93.345,114.04 93.418,113.906C93.538,113.686 93.71,113.51 93.933,113.376C94.156,113.243 94.428,113.176 94.748,113.176C95.068,113.176 95.34,113.243 95.563,113.376C95.786,113.51 95.958,113.686 96.078,113.906C96.151,114.04 96.201,114.193 96.228,114.366C96.255,114.54 96.268,114.73 96.268,114.936L96.268,116.606C96.268,116.813 96.255,117.003 96.228,117.176C96.201,117.35 96.151,117.503 96.078,117.636C95.958,117.856 95.786,118.033 95.563,118.166C95.34,118.3 95.068,118.366 94.748,118.366C94.428,118.366 94.156,118.3 93.933,118.166C93.71,118.033 93.538,117.856 93.418,117.636C93.345,117.503 93.295,117.35 93.268,117.176C93.241,117.003 93.228,116.813 93.228,116.606L93.228,114.936ZM94.248,116.766C94.248,116.96 94.293,117.105 94.383,117.201C94.473,117.298 94.595,117.346 94.748,117.346C94.901,117.346 95.023,117.298 95.113,117.201C95.203,117.105 95.248,116.96 95.248,116.766L95.248,114.776C95.248,114.583 95.203,114.438 95.113,114.341C95.023,114.245 94.901,114.196 94.748,114.196C94.595,114.196 94.473,114.245 94.383,114.341C94.293,114.438 94.248,114.583 94.248,114.776L94.248,116.766Z" style="fill:rgb(5,5,5);fill-rule:nonzero;"/>
            <path d="M97.018,118.306L97.018,113.236L98.038,113.236L98.038,113.726L98.058,113.726C98.165,113.566 98.293,113.435 98.443,113.331C98.593,113.228 98.785,113.176 99.018,113.176C99.145,113.176 99.271,113.198 99.398,113.241C99.525,113.285 99.638,113.356 99.738,113.456C99.838,113.556 99.918,113.685 99.978,113.841C100.038,113.998 100.068,114.19 100.068,114.416L100.068,118.306L99.048,118.306L99.048,114.796C99.048,114.61 99.005,114.463 98.918,114.356C98.831,114.25 98.708,114.196 98.548,114.196C98.355,114.196 98.221,114.256 98.148,114.376C98.075,114.496 98.038,114.67 98.038,114.896L98.038,118.306L97.018,118.306Z" style="fill:rgb(5,5,5);fill-rule:nonzero;"/>
            <path d="M100.908,118.306L100.908,113.236L101.928,113.236L101.928,113.726L101.948,113.726C102.055,113.566 102.183,113.435 102.333,113.331C102.483,113.228 102.675,113.176 102.908,113.176C103.035,113.176 103.161,113.198 103.288,113.241C103.415,113.285 103.528,113.356 103.628,113.456C103.728,113.556 103.808,113.685 103.868,113.841C103.928,113.998 103.958,114.19 103.958,114.416L103.958,118.306L102.938,118.306L102.938,114.796C102.938,114.61 102.895,114.463 102.808,114.356C102.721,114.25 102.598,114.196 102.438,114.196C102.245,114.196 102.111,114.256 102.038,114.376C101.965,114.496 101.928,114.67 101.928,114.896L101.928,118.306L100.908,118.306Z" style="fill:rgb(5,5,5);fill-rule:nonzero;"/>
            <path d="M107.748,116.156L105.728,116.156L105.728,116.846C105.728,117.006 105.773,117.13 105.863,117.216C105.953,117.303 106.075,117.346 106.228,117.346C106.421,117.346 106.55,117.29 106.613,117.176C106.676,117.063 106.715,116.95 106.728,116.836L107.748,116.836C107.748,117.283 107.611,117.643 107.338,117.916C107.205,118.056 107.045,118.166 106.858,118.246C106.671,118.326 106.461,118.366 106.228,118.366C105.908,118.366 105.636,118.3 105.413,118.166C105.19,118.033 105.018,117.856 104.898,117.636C104.825,117.503 104.775,117.35 104.748,117.176C104.721,117.003 104.708,116.813 104.708,116.606L104.708,114.936C104.708,114.73 104.721,114.54 104.748,114.366C104.775,114.193 104.825,114.04 104.898,113.906C105.018,113.686 105.19,113.51 105.413,113.376C105.636,113.243 105.908,113.176 106.228,113.176C106.461,113.176 106.673,113.216 106.863,113.296C107.053,113.376 107.215,113.486 107.348,113.626C107.615,113.926 107.748,114.303 107.748,114.756L107.748,116.156ZM105.728,115.356L106.728,115.356L106.728,114.776C106.728,114.583 106.683,114.438 106.593,114.341C106.503,114.245 106.381,114.196 106.228,114.196C106.075,114.196 105.953,114.245 105.863,114.341C105.773,114.438 105.728,114.583 105.728,114.776L105.728,115.356Z" style="fill:rgb(5,5,5);fill-rule:nonzero;"/>
            <path d="M109.578,116.846C109.578,117.006 109.623,117.13 109.713,117.216C109.803,117.303 109.925,117.346 110.078,117.346C110.271,117.346 110.4,117.29 110.463,117.176C110.526,117.063 110.565,116.95 110.578,116.836L111.598,116.836C111.598,117.283 111.461,117.643 111.188,117.916C111.055,118.056 110.895,118.166 110.708,118.246C110.521,118.326 110.311,118.366 110.078,118.366C109.758,118.366 109.486,118.3 109.263,118.166C109.04,118.033 108.868,117.856 108.748,117.636C108.675,117.503 108.625,117.35 108.598,117.176C108.571,117.003 108.558,116.813 108.558,116.606L108.558,114.936C108.558,114.73 108.571,114.54 108.598,114.366C108.625,114.193 108.675,114.04 108.748,113.906C108.868,113.686 109.04,113.51 109.263,113.376C109.486,113.243 109.758,113.176 110.078,113.176C110.311,113.176 110.523,113.216 110.713,113.296C110.903,113.376 111.065,113.486 111.198,113.626C111.465,113.926 111.598,114.316 111.598,114.796L110.578,114.796C110.578,114.59 110.533,114.438 110.443,114.341C110.353,114.245 110.231,114.196 110.078,114.196C109.925,114.196 109.803,114.245 109.713,114.341C109.623,114.438 109.578,114.583 109.578,114.776L109.578,116.846Z" style="fill:rgb(5,5,5);fill-rule:nonzero;"/>
            <path d="M112.198,113.236L112.198,111.696L113.218,111.696L113.218,113.236L113.848,113.236L113.848,114.036L113.218,114.036L113.218,116.846C113.218,116.966 113.23,117.06 113.253,117.126C113.276,117.193 113.315,117.243 113.368,117.276C113.421,117.31 113.486,117.33 113.563,117.336C113.64,117.343 113.735,117.346 113.848,117.346L113.848,118.306L113.428,118.306C113.195,118.306 113,118.27 112.843,118.196C112.686,118.123 112.561,118.03 112.468,117.916C112.375,117.803 112.306,117.675 112.263,117.531C112.22,117.388 112.198,117.25 112.198,117.116L112.198,114.036L111.688,114.036L111.688,113.236L112.198,113.236Z" style="fill:rgb(5,5,5);fill-rule:nonzero;"/>
        </g>
        <g transform="matrix(1,0,0,1,61.6324,198.288)">
            <text x="89.198px" y="118.306px" style="font-family:'DINCondensed-Bold', 'DIN Condensed';font-weight:700;font-stretch:condensed;font-size:10px;fill:rgb(5,5,5);">connect</text>
        </g>
    </g>
    <g transform="matrix(1,0,0,1,-60,-5.68434e-14)">
        <g transform="matrix(0.833333,0,0,1,60,-1.86841)">
            <rect x="0" y="370" width="60" height="3.737" style="fill:rgb(5,5,5);"/>
        </g>
        <g transform="matrix(6.12323e-17,1,-1,6.12323e-17,461.64,276.746)">
            <path d="M93.254,341.64L99.405,357.806L87.104,357.806L93.254,341.64Z" style="fill:rgb(5,5,5);"/>
        </g>
    </g>
    <g transform="matrix(1,0,0,1,30,61.8079)">
        <g transform="matrix(0.4,0,0,0.542181,-24,0.0245198)">
            <path d="M110,40.637C110,36.956 105.949,33.968 100.96,33.968L19.04,33.968C14.051,33.968 10,36.956 10,40.637L10,148.866C10,152.547 14.051,155.535 19.04,155.535L100.96,155.535C105.949,155.535 110,152.547 110,148.866L110,40.637Z" style="fill:rgb(173,179,77);stroke:black;stroke-width:2.1px;"/>
        </g>
        <g transform="matrix(1,0,0,1,-56.9529,-87.0727)">
            <path d="M47.418,118.306L47.418,113.236L48.438,113.236L48.438,113.726L48.458,113.726C48.565,113.566 48.693,113.435 48.843,113.331C48.993,113.228 49.185,113.176 49.418,113.176C49.638,113.176 49.821,113.23 49.968,113.336C50.115,113.443 50.235,113.56 50.328,113.686C50.455,113.546 50.595,113.426 50.748,113.326C50.901,113.226 51.115,113.176 51.388,113.176C51.515,113.176 51.645,113.198 51.778,113.241C51.911,113.285 52.031,113.356 52.138,113.456C52.245,113.556 52.331,113.685 52.398,113.841C52.465,113.998 52.498,114.19 52.498,114.416L52.498,118.306L51.478,118.306L51.478,114.796C51.478,114.61 51.435,114.463 51.348,114.356C51.261,114.25 51.138,114.196 50.978,114.196C50.785,114.196 50.651,114.256 50.578,114.376C50.505,114.496 50.468,114.67 50.468,114.896L50.468,118.306L49.448,118.306L49.448,114.796C49.448,114.61 49.405,114.463 49.318,114.356C49.231,114.25 49.108,114.196 48.948,114.196C48.755,114.196 48.621,114.256 48.548,114.376C48.475,114.496 48.438,114.67 48.438,114.896L48.438,118.306L47.418,118.306Z" style="fill:rgb(5,5,5);fill-rule:nonzero;"/>
            <path d="M53.248,114.936C53.248,114.73 53.261,114.54 53.288,114.366C53.315,114.193 53.365,114.04 53.438,113.906C53.558,113.686 53.73,113.51 53.953,113.376C54.176,113.243 54.448,113.176 54.768,113.176C55.088,113.176 55.36,113.243 55.583,113.376C55.806,113.51 55.978,113.686 56.098,113.906C56.171,114.04 56.221,114.193 56.248,114.366C56.275,114.54 56.288,114.73 56.288,114.936L56.288,116.606C56.288,116.813 56.275,117.003 56.248,117.176C56.221,117.35 56.171,117.503 56.098,117.636C55.978,117.856 55.806,118.033 55.583,118.166C55.36,118.3 55.088,118.366 54.768,118.366C54.448,118.366 54.176,118.3 53.953,118.166C53.73,118.033 53.558,117.856 53.438,117.636C53.365,117.503 53.315,117.35 53.288,117.176C53.261,117.003 53.248,116.813 53.248,116.606L53.248,114.936ZM54.268,116.766C54.268,116.96 54.313,117.105 54.403,117.201C54.493,117.298 54.615,117.346 54.768,117.346C54.921,117.346 55.043,117.298 55.133,117.201C55.223,117.105 55.268,116.96 55.268,116.766L55.268,114.776C55.268,114.583 55.223,114.438 55.133,114.341C55.043,114.245 54.921,114.196 54.768,114.196C54.615,114.196 54.493,114.245 54.403,114.341C54.313,114.438 54.268,114.583 54.268,114.776L54.268,116.766Z" style="fill:rgb(5,5,5);fill-rule:nonzero;"/>
            <path d="M57.038,118.306L57.038,113.236L58.058,113.236L58.058,113.726L58.078,113.726C58.185,113.566 58.313,113.435 58.463,113.331C58.613,113.228 58.805,113.176 59.038,113.176C59.165,113.176 59.291,113.198 59.418,113.241C59.545,113.285 59.658,113.356 59.758,113.456C59.858,113.556 59.938,113.685 59.998,113.841C60.058,113.998 60.088,114.19 60.088,114.416L60.088,118.306L59.068,118.306L59.068,114.796C59.068,114.61 59.025,114.463 58.938,114.356C58.851,114.25 58.728,114.196 58.568,114.196C58.375,114.196 58.241,114.256 58.168,114.376C58.095,114.496 58.058,114.67 58.058,114.896L58.058,118.306L57.038,118.306Z" style="fill:rgb(5,5,5);fill-rule:nonzero;"/>
            <path d="M60.838,114.936C60.838,114.73 60.851,114.54 60.878,114.366C60.905,114.193 60.955,114.04 61.028,113.906C61.148,113.686 61.32,113.51 61.543,113.376C61.766,113.243 62.038,113.176 62.358,113.176C62.678,113.176 62.95,113.243 63.173,113.376C63.396,113.51 63.568,113.686 63.688,113.906C63.761,114.04 63.811,114.193 63.838,114.366C63.865,114.54 63.878,114.73 63.878,114.936L63.878,116.606C63.878,116.813 63.865,117.003 63.838,117.176C63.811,117.35 63.761,117.503 63.688,117.636C63.568,117.856 63.396,118.033 63.173,118.166C62.95,118.3 62.678,118.366 62.358,118.366C62.038,118.366 61.766,118.3 61.543,118.166C61.32,118.033 61.148,117.856 61.028,117.636C60.955,117.503 60.905,117.35 60.878,117.176C60.851,117.003 60.838,116.813 60.838,116.606L60.838,114.936ZM61.858,116.766C61.858,116.96 61.903,117.105 61.993,117.201C62.083,117.298 62.205,117.346 62.358,117.346C62.511,117.346 62.633,117.298 62.723,117.201C62.813,117.105 62.858,116.96 62.858,116.766L62.858,114.776C62.858,114.583 62.813,114.438 62.723,114.341C62.633,114.245 62.511,114.196 62.358,114.196C62.205,114.196 62.083,114.245 61.993,114.341C61.903,114.438 61.858,114.583 61.858,114.776L61.858,116.766Z" style="fill:rgb(5,5,5);fill-rule:nonzero;"/>
            <path d="M64.628,118.306L64.628,117.286L65.648,117.286L65.648,118.306L64.628,118.306ZM64.628,116.036L64.628,115.016L65.648,115.016L65.648,116.036L64.628,116.036Z" style="fill:rgb(5,5,5);fill-rule:nonzero;"/>
            <path d="M44.018,128.846C44.018,129.006 44.063,129.13 44.153,129.216C44.243,129.303 44.365,129.346 44.518,129.346C44.711,129.346 44.84,129.29 44.903,129.176C44.966,129.063 45.005,128.95 45.018,128.836L46.038,128.836C46.038,129.283 45.901,129.643 45.628,129.916C45.495,130.056 45.335,130.166 45.148,130.246C44.961,130.326 44.751,130.366 44.518,130.366C44.198,130.366 43.926,130.3 43.703,130.166C43.48,130.033 43.308,129.856 43.188,129.636C43.115,129.503 43.065,129.35 43.038,129.176C43.011,129.003 42.998,128.813 42.998,128.606L42.998,126.936C42.998,126.73 43.011,126.54 43.038,126.366C43.065,126.193 43.115,126.04 43.188,125.906C43.308,125.686 43.48,125.51 43.703,125.376C43.926,125.243 44.198,125.176 44.518,125.176C44.751,125.176 44.963,125.216 45.153,125.296C45.343,125.376 45.505,125.486 45.638,125.626C45.905,125.926 46.038,126.316 46.038,126.796L45.018,126.796C45.018,126.59 44.973,126.438 44.883,126.341C44.793,126.245 44.671,126.196 44.518,126.196C44.365,126.196 44.243,126.245 44.153,126.341C44.063,126.438 44.018,126.583 44.018,126.776L44.018,128.846Z" style="fill:rgb(5,5,5);fill-rule:nonzero;"/>
            <path d="M46.518,130.306L46.518,123.186L47.538,123.186L47.538,125.726L47.558,125.726C47.665,125.566 47.793,125.435 47.943,125.331C48.093,125.228 48.285,125.176 48.518,125.176C48.645,125.176 48.771,125.198 48.898,125.241C49.025,125.285 49.138,125.356 49.238,125.456C49.338,125.556 49.418,125.685 49.478,125.841C49.538,125.998 49.568,126.19 49.568,126.416L49.568,130.306L48.548,130.306L48.548,126.796C48.548,126.61 48.505,126.463 48.418,126.356C48.331,126.25 48.208,126.196 48.048,126.196C47.855,126.196 47.721,126.256 47.648,126.376C47.575,126.496 47.538,126.67 47.538,126.896L47.538,130.306L46.518,130.306Z" style="fill:rgb(5,5,5);fill-rule:nonzero;"/>
            <path d="M52.338,130.306L52.338,129.786L52.318,129.786C52.185,129.973 52.05,130.116 51.913,130.216C51.776,130.316 51.585,130.366 51.338,130.366C51.218,130.366 51.096,130.348 50.973,130.311C50.85,130.275 50.731,130.206 50.618,130.106C50.505,130.013 50.413,129.878 50.343,129.701C50.273,129.525 50.238,129.296 50.238,129.016C50.238,128.73 50.261,128.478 50.308,128.261C50.355,128.045 50.441,127.863 50.568,127.716C50.688,127.576 50.851,127.471 51.058,127.401C51.265,127.331 51.528,127.296 51.848,127.296L51.958,127.296C51.998,127.296 52.035,127.3 52.068,127.306C52.101,127.313 52.141,127.316 52.188,127.316C52.235,127.316 52.285,127.32 52.338,127.326L52.338,126.796C52.338,126.623 52.301,126.48 52.228,126.366C52.155,126.253 52.021,126.196 51.828,126.196C51.695,126.196 51.573,126.24 51.463,126.326C51.353,126.413 51.281,126.54 51.248,126.706L50.258,126.706C50.285,126.253 50.438,125.886 50.718,125.606C50.851,125.473 51.011,125.368 51.198,125.291C51.385,125.215 51.595,125.176 51.828,125.176C52.041,125.176 52.241,125.21 52.428,125.276C52.615,125.343 52.778,125.443 52.918,125.576C53.051,125.71 53.158,125.876 53.238,126.076C53.318,126.276 53.358,126.51 53.358,126.776L53.358,130.306L52.338,130.306ZM52.338,128.126C52.225,128.106 52.131,128.096 52.058,128.096C51.838,128.096 51.65,128.148 51.493,128.251C51.336,128.355 51.258,128.543 51.258,128.816C51.258,129.01 51.305,129.166 51.398,129.286C51.491,129.406 51.621,129.466 51.788,129.466C51.961,129.466 52.096,129.41 52.193,129.296C52.29,129.183 52.338,129.023 52.338,128.816L52.338,128.126Z" style="fill:rgb(5,5,5);fill-rule:nonzero;"/>
            <path d="M54.108,130.306L54.108,125.236L55.128,125.236L55.128,125.726L55.148,125.726C55.255,125.566 55.383,125.435 55.533,125.331C55.683,125.228 55.875,125.176 56.108,125.176C56.235,125.176 56.361,125.198 56.488,125.241C56.615,125.285 56.728,125.356 56.828,125.456C56.928,125.556 57.008,125.685 57.068,125.841C57.128,125.998 57.158,126.19 57.158,126.416L57.158,130.306L56.138,130.306L56.138,126.796C56.138,126.61 56.095,126.463 56.008,126.356C55.921,126.25 55.798,126.196 55.638,126.196C55.445,126.196 55.311,126.256 55.238,126.376C55.165,126.496 55.128,126.67 55.128,126.896L55.128,130.306L54.108,130.306Z" style="fill:rgb(5,5,5);fill-rule:nonzero;"/>
            <path d="M57.998,130.306L57.998,125.236L59.018,125.236L59.018,125.726L59.038,125.726C59.145,125.566 59.273,125.435 59.423,125.331C59.573,125.228 59.765,125.176 59.998,125.176C60.125,125.176 60.251,125.198 60.378,125.241C60.505,125.285 60.618,125.356 60.718,125.456C60.818,125.556 60.898,125.685 60.958,125.841C61.018,125.998 61.048,126.19 61.048,126.416L61.048,130.306L60.028,130.306L60.028,126.796C60.028,126.61 59.985,126.463 59.898,126.356C59.811,126.25 59.688,126.196 59.528,126.196C59.335,126.196 59.201,126.256 59.128,126.376C59.055,126.496 59.018,126.67 59.018,126.896L59.018,130.306L57.998,130.306Z" style="fill:rgb(5,5,5);fill-rule:nonzero;"/>
            <path d="M64.838,128.156L62.818,128.156L62.818,128.846C62.818,129.006 62.863,129.13 62.953,129.216C63.043,129.303 63.165,129.346 63.318,129.346C63.511,129.346 63.64,129.29 63.703,129.176C63.766,129.063 63.805,128.95 63.818,128.836L64.838,128.836C64.838,129.283 64.701,129.643 64.428,129.916C64.295,130.056 64.135,130.166 63.948,130.246C63.761,130.326 63.551,130.366 63.318,130.366C62.998,130.366 62.726,130.3 62.503,130.166C62.28,130.033 62.108,129.856 61.988,129.636C61.915,129.503 61.865,129.35 61.838,129.176C61.811,129.003 61.798,128.813 61.798,128.606L61.798,126.936C61.798,126.73 61.811,126.54 61.838,126.366C61.865,126.193 61.915,126.04 61.988,125.906C62.108,125.686 62.28,125.51 62.503,125.376C62.726,125.243 62.998,125.176 63.318,125.176C63.551,125.176 63.763,125.216 63.953,125.296C64.143,125.376 64.305,125.486 64.438,125.626C64.705,125.926 64.838,126.303 64.838,126.756L64.838,128.156ZM62.818,127.356L63.818,127.356L63.818,126.776C63.818,126.583 63.773,126.438 63.683,126.341C63.593,126.245 63.471,126.196 63.318,126.196C63.165,126.196 63.043,126.245 62.953,126.341C62.863,126.438 62.818,126.583 62.818,126.776L62.818,127.356Z" style="fill:rgb(5,5,5);fill-rule:nonzero;"/>
            <path d="M65.528,123.186L66.548,123.186L66.548,128.876C66.548,129.07 66.583,129.201 66.653,129.271C66.723,129.341 66.855,129.386 67.048,129.406L67.048,130.366C66.815,130.366 66.605,130.348 66.418,130.311C66.231,130.275 66.071,130.203 65.938,130.096C65.805,129.996 65.703,129.855 65.633,129.671C65.563,129.488 65.528,129.246 65.528,128.946L65.528,123.186Z" style="fill:rgb(5,5,5);fill-rule:nonzero;"/>
            <path d="M69.298,126.656C69.291,126.483 69.236,126.353 69.133,126.266C69.03,126.18 68.911,126.136 68.778,126.136C68.618,126.136 68.495,126.188 68.408,126.291C68.321,126.395 68.278,126.513 68.278,126.646C68.278,126.74 68.301,126.831 68.348,126.921C68.395,127.011 68.515,127.093 68.708,127.166L69.308,127.406C69.688,127.553 69.95,127.753 70.093,128.006C70.236,128.26 70.308,128.536 70.308,128.836C70.308,129.05 70.27,129.248 70.193,129.431C70.116,129.615 70.011,129.776 69.878,129.916C69.745,130.056 69.585,130.166 69.398,130.246C69.211,130.326 69.008,130.366 68.788,130.366C68.375,130.366 68.028,130.236 67.748,129.976C67.608,129.85 67.495,129.691 67.408,129.501C67.321,129.311 67.275,129.09 67.268,128.836L68.228,128.836C68.248,128.976 68.296,129.106 68.373,129.226C68.45,129.346 68.585,129.406 68.778,129.406C68.925,129.406 69.056,129.358 69.173,129.261C69.29,129.165 69.348,129.03 69.348,128.856C69.348,128.716 69.311,128.596 69.238,128.496C69.165,128.396 69.031,128.31 68.838,128.236L68.348,128.056C68.028,127.936 67.776,127.758 67.593,127.521C67.41,127.285 67.318,126.996 67.318,126.656C67.318,126.443 67.358,126.245 67.438,126.061C67.518,125.878 67.628,125.72 67.768,125.586C67.901,125.453 68.058,125.351 68.238,125.281C68.418,125.211 68.611,125.176 68.818,125.176C69.025,125.176 69.216,125.213 69.393,125.286C69.57,125.36 69.721,125.463 69.848,125.596C69.975,125.73 70.075,125.888 70.148,126.071C70.221,126.255 70.258,126.45 70.258,126.656L69.298,126.656Z" style="fill:rgb(5,5,5);fill-rule:nonzero;"/>
            <path d="M52.418,142.306L52.418,136.266L51.398,137.016L51.398,135.936L52.418,135.186L53.438,135.186L53.438,142.306L52.418,142.306Z" style="fill:rgb(5,5,5);fill-rule:nonzero;"/>
            <rect x="55.028" y="139.026" width="3.01" height="1.02" style="fill:rgb(5,5,5);fill-rule:nonzero;"/>
            <path d="M60.598,142.306L60.598,141.246L58.568,141.246L58.568,140.286L60.038,135.186L61.118,135.186L59.588,140.286L60.598,140.286L60.598,138.256L61.618,138.256L61.618,140.286L62.108,140.286L62.108,141.246L61.618,141.246L61.618,142.306L60.598,142.306Z" style="fill:rgb(5,5,5);fill-rule:nonzero;"/>
        </g>
        <g transform="matrix(1,0,0,1,-56.9529,-87.0727)">
            <text x="46.998px" y="118.306px" style="font-family:'DINCondensed-Bold', 'DIN Condensed';font-weight:700;font-stretch:condensed;font-size:10px;fill:rgb(5,5,5);">mono:</text>
            <text x="42.518px" y="130.306px" style="font-family:'DINCondensed-Bold', 'DIN Condensed';font-weight:700;font-stretch:condensed;font-size:10px;fill:rgb(5,5,5);">c<tspan x="46.098px 49.988px " y="130.306px 130.306px ">ha</tspan>nnels</text>
            <text x="50.868px" y="142.306px" style="font-family:'DINCondensed-Bold', 'DIN Condensed';font-weight:700;font-stretch:condensed;font-size:10px;fill:rgb(5,5,5);">1-4</text>
        </g>
    </g>
    <g transform="matrix(1,0,0,1,-4.5657,-11.8934)">
        <g transform="matrix(1,0,0,1,49.7332,24.9549)">
            <path d="M-35.436,23.344C-35.62,23.448 -35.852,23.556 -36.132,23.668C-36.412,23.78 -36.704,23.836 -37.008,23.836C-37.192,23.836 -37.324,23.82 -37.404,23.788C-37.484,23.756 -37.524,23.692 -37.524,23.596C-37.524,23.548 -37.512,23.49 -37.488,23.422C-37.464,23.354 -37.432,23.32 -37.392,23.32C-37.376,23.32 -37.356,23.332 -37.332,23.356C-37.284,23.42 -37.212,23.456 -37.116,23.464C-37.02,23.472 -36.916,23.476 -36.804,23.476C-36.636,23.468 -36.484,23.41 -36.348,23.302C-36.212,23.194 -36.112,23.048 -36.048,22.864C-36.016,22.752 -35.984,22.576 -35.952,22.336C-35.92,22.096 -35.894,21.808 -35.874,21.472C-35.854,21.136 -35.838,20.762 -35.826,20.35C-35.814,19.938 -35.808,19.504 -35.808,19.048C-35.808,18.008 -35.836,17.198 -35.892,16.618C-35.948,16.038 -36.02,15.704 -36.108,15.616C-36.196,15.544 -36.306,15.496 -36.438,15.472C-36.57,15.448 -36.704,15.436 -36.84,15.436C-36.904,15.436 -36.968,15.438 -37.032,15.442C-37.096,15.446 -37.148,15.448 -37.188,15.448C-37.236,15.448 -37.274,15.43 -37.302,15.394C-37.33,15.358 -37.344,15.32 -37.344,15.28C-37.344,15.136 -37.292,15.064 -37.188,15.064C-37.132,15.064 -37.032,15.07 -36.888,15.082C-36.744,15.094 -36.578,15.106 -36.39,15.118C-36.202,15.13 -36.004,15.14 -35.796,15.148C-35.588,15.156 -35.4,15.16 -35.232,15.16C-35.024,15.16 -34.83,15.128 -34.65,15.064C-34.47,15 -34.284,14.928 -34.092,14.848C-33.9,14.768 -33.69,14.696 -33.462,14.632C-33.234,14.568 -32.968,14.536 -32.664,14.536C-31.88,14.536 -31.206,14.648 -30.642,14.872C-30.078,15.096 -29.616,15.398 -29.256,15.778C-28.896,16.158 -28.63,16.594 -28.458,17.086C-28.286,17.578 -28.2,18.088 -28.2,18.616C-28.2,19.24 -28.31,19.864 -28.53,20.488C-28.75,21.112 -29.064,21.674 -29.472,22.174C-29.88,22.674 -30.374,23.078 -30.954,23.386C-31.534,23.694 -32.18,23.848 -32.892,23.848C-33.044,23.848 -33.234,23.834 -33.462,23.806C-33.69,23.778 -33.924,23.74 -34.164,23.692C-34.404,23.644 -34.638,23.59 -34.866,23.53C-35.094,23.47 -35.284,23.408 -35.436,23.344ZM-32.616,23.356C-32.144,23.356 -31.732,23.242 -31.38,23.014C-31.028,22.786 -30.734,22.486 -30.498,22.114C-30.262,21.742 -30.084,21.316 -29.964,20.836C-29.844,20.356 -29.784,19.864 -29.784,19.36C-29.784,18.824 -29.85,18.294 -29.982,17.77C-30.114,17.246 -30.316,16.778 -30.588,16.366C-30.86,15.954 -31.198,15.622 -31.602,15.37C-32.006,15.118 -32.476,14.992 -33.012,14.992C-33.1,14.992 -33.208,15.002 -33.336,15.022C-33.464,15.042 -33.588,15.08 -33.708,15.136C-33.828,15.192 -33.936,15.264 -34.032,15.352C-34.128,15.44 -34.192,15.552 -34.224,15.688C-34.248,15.792 -34.27,15.936 -34.29,16.12C-34.31,16.304 -34.33,16.518 -34.35,16.762C-34.37,17.006 -34.384,17.27 -34.392,17.554C-34.4,17.838 -34.404,18.132 -34.404,18.436C-34.404,19.124 -34.402,19.7 -34.398,20.164C-34.394,20.628 -34.388,21.004 -34.38,21.292C-34.372,21.58 -34.362,21.794 -34.35,21.934C-34.338,22.074 -34.328,22.168 -34.32,22.216C-34.296,22.352 -34.238,22.486 -34.146,22.618C-34.054,22.75 -33.934,22.872 -33.786,22.984C-33.638,23.096 -33.466,23.186 -33.27,23.254C-33.074,23.322 -32.856,23.356 -32.616,23.356Z" style="fill-rule:nonzero;"/>
            <path d="M-22.788,22.636C-22.876,22.708 -22.996,22.804 -23.148,22.924C-23.3,23.044 -23.476,23.164 -23.676,23.284C-23.876,23.404 -24.096,23.506 -24.336,23.59C-24.576,23.674 -24.828,23.716 -25.092,23.716C-25.492,23.716 -25.848,23.646 -26.16,23.506C-26.472,23.366 -26.734,23.178 -26.946,22.942C-27.158,22.706 -27.318,22.428 -27.426,22.108C-27.534,21.788 -27.588,21.448 -27.588,21.088C-27.588,20.664 -27.524,20.288 -27.396,19.96C-27.268,19.632 -27.11,19.346 -26.922,19.102C-26.734,18.858 -26.532,18.654 -26.316,18.49C-26.1,18.326 -25.904,18.196 -25.728,18.1C-25.648,18.052 -25.546,18 -25.422,17.944C-25.298,17.888 -25.162,17.836 -25.014,17.788C-24.866,17.74 -24.706,17.698 -24.534,17.662C-24.362,17.626 -24.184,17.608 -24,17.608C-23.656,17.608 -23.322,17.652 -22.998,17.74C-22.674,17.828 -22.388,17.966 -22.14,18.154C-21.892,18.342 -21.692,18.584 -21.54,18.88C-21.388,19.176 -21.312,19.532 -21.312,19.948C-21.312,20.284 -21.374,20.6 -21.498,20.896C-21.622,21.192 -21.768,21.456 -21.936,21.688C-22.104,21.92 -22.27,22.118 -22.434,22.282C-22.598,22.446 -22.716,22.564 -22.788,22.636ZM-24.144,22.828C-23.688,22.828 -23.338,22.656 -23.094,22.312C-22.85,21.968 -22.728,21.44 -22.728,20.728C-22.728,20.368 -22.778,20.034 -22.878,19.726C-22.978,19.418 -23.118,19.148 -23.298,18.916C-23.478,18.684 -23.688,18.502 -23.928,18.37C-24.168,18.238 -24.428,18.172 -24.708,18.172C-24.908,18.172 -25.098,18.224 -25.278,18.328C-25.458,18.432 -25.616,18.582 -25.752,18.778C-25.888,18.974 -25.996,19.212 -26.076,19.492C-26.156,19.772 -26.196,20.088 -26.196,20.44C-26.196,20.816 -26.138,21.152 -26.022,21.448C-25.906,21.744 -25.752,21.994 -25.56,22.198C-25.368,22.402 -25.15,22.558 -24.906,22.666C-24.662,22.774 -24.408,22.828 -24.144,22.828Z" style="fill-rule:nonzero;"/>
            <path d="M-15.108,22.192C-15.196,22.288 -15.332,22.42 -15.516,22.588C-15.7,22.756 -15.922,22.924 -16.182,23.092C-16.442,23.26 -16.732,23.404 -17.052,23.524C-17.372,23.644 -17.712,23.704 -18.072,23.704C-18.4,23.704 -18.72,23.654 -19.032,23.554C-19.344,23.454 -19.624,23.302 -19.872,23.098C-20.12,22.894 -20.318,22.634 -20.466,22.318C-20.614,22.002 -20.688,21.624 -20.688,21.184C-20.688,20.824 -20.664,20.514 -20.616,20.254C-20.568,19.994 -20.504,19.766 -20.424,19.57C-20.344,19.374 -20.254,19.206 -20.154,19.066C-20.054,18.926 -19.952,18.8 -19.848,18.688C-19.72,18.544 -19.564,18.408 -19.38,18.28C-19.196,18.152 -18.998,18.036 -18.786,17.932C-18.574,17.828 -18.35,17.746 -18.114,17.686C-17.878,17.626 -17.64,17.596 -17.4,17.596C-16.968,17.596 -16.63,17.668 -16.386,17.812C-16.142,17.956 -16.02,18.156 -16.02,18.412C-16.02,18.572 -16.068,18.72 -16.164,18.856C-16.084,18.832 -15.982,18.792 -15.858,18.736C-15.734,18.68 -15.608,18.622 -15.48,18.562C-15.352,18.502 -15.238,18.448 -15.138,18.4C-15.038,18.352 -14.972,18.316 -14.94,18.292C-14.924,18.276 -14.906,18.27 -14.886,18.274C-14.866,18.278 -14.856,18.292 -14.856,18.316C-14.856,18.42 -14.876,18.506 -14.916,18.574C-14.956,18.642 -15.004,18.696 -15.06,18.736C-15.188,18.816 -15.372,18.916 -15.612,19.036C-15.852,19.156 -16.118,19.282 -16.41,19.414C-16.702,19.546 -17.004,19.678 -17.316,19.81C-17.628,19.942 -17.922,20.068 -18.198,20.188C-18.474,20.308 -18.714,20.414 -18.918,20.506C-19.122,20.598 -19.26,20.664 -19.332,20.704C-19.332,20.976 -19.278,21.23 -19.17,21.466C-19.062,21.702 -18.912,21.908 -18.72,22.084C-18.528,22.26 -18.298,22.398 -18.03,22.498C-17.762,22.598 -17.468,22.648 -17.148,22.648C-16.86,22.648 -16.6,22.618 -16.368,22.558C-16.136,22.498 -15.94,22.43 -15.78,22.354C-15.62,22.278 -15.494,22.21 -15.402,22.15C-15.31,22.09 -15.26,22.06 -15.252,22.06C-15.22,22.06 -15.188,22.074 -15.156,22.102C-15.124,22.13 -15.108,22.16 -15.108,22.192ZM-19.332,20.356C-19.196,20.308 -19.042,20.25 -18.87,20.182C-18.698,20.114 -18.53,20.04 -18.366,19.96C-18.202,19.88 -18.052,19.804 -17.916,19.732C-17.78,19.66 -17.676,19.596 -17.604,19.54C-17.46,19.436 -17.388,19.26 -17.388,19.012C-17.388,18.916 -17.406,18.816 -17.442,18.712C-17.478,18.608 -17.532,18.514 -17.604,18.43C-17.676,18.346 -17.764,18.278 -17.868,18.226C-17.972,18.174 -18.088,18.148 -18.216,18.148C-18.328,18.148 -18.448,18.186 -18.576,18.262C-18.704,18.338 -18.824,18.462 -18.936,18.634C-19.048,18.806 -19.142,19.034 -19.218,19.318C-19.294,19.602 -19.332,19.948 -19.332,20.356Z" style="fill-rule:nonzero;"/>
            <path d="M-10.536,23.044C-10.792,23.204 -11.108,23.348 -11.484,23.476C-11.86,23.604 -12.224,23.668 -12.576,23.668C-12.688,23.668 -12.814,23.66 -12.954,23.644C-13.094,23.628 -13.208,23.612 -13.296,23.596C-13.304,23.748 -13.31,23.904 -13.314,24.064C-13.318,24.224 -13.322,24.378 -13.326,24.526C-13.33,24.674 -13.334,24.812 -13.338,24.94C-13.342,25.068 -13.344,25.176 -13.344,25.264C-13.344,25.672 -13.31,25.948 -13.242,26.092C-13.174,26.236 -13.068,26.308 -12.924,26.308C-12.852,26.308 -12.754,26.298 -12.63,26.278C-12.506,26.258 -12.396,26.224 -12.3,26.176C-12.284,26.16 -12.266,26.176 -12.246,26.224C-12.226,26.272 -12.216,26.316 -12.216,26.356C-12.216,26.364 -12.272,26.386 -12.384,26.422C-12.496,26.458 -12.638,26.502 -12.81,26.554C-12.982,26.606 -13.168,26.662 -13.368,26.722C-13.568,26.782 -13.76,26.838 -13.944,26.89C-14.128,26.942 -14.286,26.984 -14.418,27.016C-14.55,27.048 -14.632,27.064 -14.664,27.064C-14.712,27.064 -14.756,27.06 -14.796,27.052C-14.836,27.044 -14.856,27.008 -14.856,26.944C-14.856,26.904 -14.842,26.878 -14.814,26.866C-14.786,26.854 -14.764,26.836 -14.748,26.812C-14.708,26.764 -14.684,26.674 -14.676,26.542C-14.668,26.41 -14.656,26.28 -14.64,26.152C-14.616,25.84 -14.59,25.47 -14.562,25.042C-14.534,24.614 -14.508,24.166 -14.484,23.698C-14.46,23.23 -14.438,22.762 -14.418,22.294C-14.398,21.826 -14.388,21.4 -14.388,21.016C-14.388,20.472 -14.41,20.046 -14.454,19.738C-14.498,19.43 -14.56,19.202 -14.64,19.054C-14.72,18.906 -14.81,18.814 -14.91,18.778C-15.01,18.742 -15.116,18.724 -15.228,18.724C-15.252,18.724 -15.286,18.726 -15.33,18.73C-15.374,18.734 -15.416,18.736 -15.456,18.736C-15.488,18.736 -15.504,18.708 -15.504,18.652C-15.504,18.612 -15.502,18.586 -15.498,18.574C-15.494,18.562 -15.476,18.548 -15.444,18.532C-15.404,18.508 -15.33,18.468 -15.222,18.412C-15.114,18.356 -14.99,18.294 -14.85,18.226C-14.71,18.158 -14.56,18.086 -14.4,18.01C-14.24,17.934 -14.09,17.866 -13.95,17.806C-13.81,17.746 -13.688,17.696 -13.584,17.656C-13.48,17.616 -13.408,17.596 -13.368,17.596C-13.248,17.596 -13.166,17.648 -13.122,17.752C-13.078,17.856 -13.052,17.996 -13.044,18.172C-13.044,18.244 -13.046,18.358 -13.05,18.514C-13.054,18.67 -13.06,18.848 -13.068,19.048C-12.964,18.936 -12.822,18.798 -12.642,18.634C-12.462,18.47 -12.258,18.312 -12.03,18.16C-11.802,18.008 -11.562,17.878 -11.31,17.77C-11.058,17.662 -10.812,17.608 -10.572,17.608C-10.228,17.608 -9.922,17.67 -9.654,17.794C-9.386,17.918 -9.164,18.082 -8.988,18.286C-8.812,18.49 -8.678,18.722 -8.586,18.982C-8.494,19.242 -8.448,19.508 -8.448,19.78C-8.448,20.164 -8.506,20.518 -8.622,20.842C-8.738,21.166 -8.88,21.454 -9.048,21.706C-9.216,21.958 -9.4,22.176 -9.6,22.36C-9.8,22.544 -9.984,22.688 -10.152,22.792L-10.536,23.044ZM-13.236,22.12C-13.212,22.208 -13.148,22.298 -13.044,22.39C-12.94,22.482 -12.806,22.566 -12.642,22.642C-12.478,22.718 -12.29,22.782 -12.078,22.834C-11.866,22.886 -11.64,22.912 -11.4,22.912C-11.184,22.912 -10.978,22.87 -10.782,22.786C-10.586,22.702 -10.416,22.57 -10.272,22.39C-10.128,22.21 -10.014,21.976 -9.93,21.688C-9.846,21.4 -9.804,21.052 -9.804,20.644C-9.804,20.356 -9.844,20.084 -9.924,19.828C-10.004,19.572 -10.12,19.348 -10.272,19.156C-10.424,18.964 -10.604,18.814 -10.812,18.706C-11.02,18.598 -11.248,18.544 -11.496,18.544C-11.624,18.544 -11.766,18.572 -11.922,18.628C-12.078,18.684 -12.228,18.76 -12.372,18.856C-12.516,18.952 -12.65,19.064 -12.774,19.192C-12.898,19.32 -12.988,19.456 -13.044,19.6C-13.084,19.696 -13.118,19.846 -13.146,20.05C-13.174,20.254 -13.194,20.478 -13.206,20.722C-13.218,20.966 -13.226,21.212 -13.23,21.46C-13.234,21.708 -13.236,21.928 -13.236,22.12Z" style="fill-rule:nonzero;"/>
            <path d="M-5.952,23.536C-5.936,23.536 -5.906,23.53 -5.862,23.518C-5.818,23.506 -5.788,23.5 -5.772,23.5C-5.724,23.5 -5.694,23.532 -5.682,23.596C-5.67,23.66 -5.68,23.704 -5.712,23.728C-5.776,23.776 -5.856,23.832 -5.952,23.896C-6.048,23.96 -6.154,24.026 -6.27,24.094C-6.386,24.162 -6.5,24.228 -6.612,24.292C-6.724,24.356 -6.82,24.412 -6.9,24.46C-6.948,24.484 -7.018,24.522 -7.11,24.574C-7.202,24.626 -7.294,24.678 -7.386,24.73C-7.478,24.782 -7.564,24.826 -7.644,24.862C-7.724,24.898 -7.776,24.916 -7.8,24.916C-7.84,24.916 -7.878,24.896 -7.914,24.856C-7.95,24.816 -7.968,24.78 -7.968,24.748C-7.968,24.708 -7.964,24.686 -7.956,24.682C-7.948,24.678 -7.932,24.668 -7.908,24.652C-7.86,24.62 -7.794,24.58 -7.71,24.532C-7.626,24.484 -7.564,24.38 -7.524,24.22C-7.492,24.084 -7.46,23.876 -7.428,23.596C-7.396,23.316 -7.368,22.99 -7.344,22.618C-7.32,22.246 -7.3,21.838 -7.284,21.394C-7.268,20.95 -7.26,20.492 -7.26,20.02L-7.26,19.51C-7.26,19.346 -7.264,19.2 -7.272,19.072C-7.288,19.072 -7.35,19.066 -7.458,19.054C-7.566,19.042 -7.68,19.028 -7.8,19.012C-7.92,18.996 -8.03,18.978 -8.13,18.958C-8.23,18.938 -8.28,18.912 -8.28,18.88C-8.28,18.864 -8.282,18.84 -8.286,18.808C-8.29,18.776 -8.26,18.728 -8.196,18.664C-8.132,18.6 -8.054,18.528 -7.962,18.448C-7.87,18.368 -7.78,18.288 -7.692,18.208C-7.604,18.128 -7.522,18.056 -7.446,17.992C-7.37,17.928 -7.312,17.876 -7.272,17.836C-7.264,17.596 -7.258,17.378 -7.254,17.182C-7.25,16.986 -7.24,16.808 -7.224,16.648C-7.208,16.448 -7.176,16.29 -7.128,16.174C-7.08,16.058 -7.012,15.948 -6.924,15.844C-6.828,15.732 -6.64,15.59 -6.36,15.418C-6.08,15.246 -5.748,15.068 -5.364,14.884C-5.228,14.82 -5.11,14.764 -5.01,14.716C-4.91,14.668 -4.812,14.63 -4.716,14.602C-4.62,14.574 -4.52,14.552 -4.416,14.536C-4.312,14.52 -4.192,14.512 -4.056,14.512C-3.704,14.512 -3.402,14.55 -3.15,14.626C-2.898,14.702 -2.704,14.8 -2.568,14.92C-2.568,14.952 -2.62,15.02 -2.724,15.124C-2.828,15.228 -2.948,15.346 -3.084,15.478C-3.22,15.61 -3.356,15.744 -3.492,15.88C-3.628,16.016 -3.728,16.132 -3.792,16.228C-3.816,16.268 -3.852,16.28 -3.9,16.264C-3.948,16.248 -3.964,16.224 -3.948,16.192C-3.932,16.16 -3.918,16.128 -3.906,16.096C-3.894,16.064 -3.888,16.024 -3.888,15.976C-3.888,15.76 -3.996,15.572 -4.212,15.412C-4.428,15.252 -4.704,15.172 -5.04,15.172C-5.232,15.172 -5.392,15.23 -5.52,15.346C-5.648,15.462 -5.748,15.656 -5.82,15.928C-5.884,16.184 -5.93,16.482 -5.958,16.822C-5.986,17.162 -6.008,17.596 -6.024,18.124C-5.912,18.148 -5.766,18.166 -5.586,18.178C-5.406,18.19 -5.212,18.196 -5.004,18.196L-4.554,18.196C-4.39,18.196 -4.23,18.192 -4.074,18.184C-3.918,18.176 -3.77,18.166 -3.63,18.154C-3.49,18.142 -3.376,18.124 -3.288,18.1C-3.256,18.132 -3.24,18.168 -3.24,18.208C-3.352,18.376 -3.528,18.514 -3.768,18.622C-4.008,18.73 -4.266,18.818 -4.542,18.886C-4.818,18.954 -5.094,19 -5.37,19.024C-5.646,19.048 -5.872,19.06 -6.048,19.06C-6.048,19.196 -6.052,19.386 -6.06,19.63C-6.068,19.874 -6.076,20.136 -6.084,20.416C-6.092,20.696 -6.098,20.978 -6.102,21.262C-6.106,21.546 -6.108,21.8 -6.108,22.024C-6.108,22.208 -6.106,22.388 -6.102,22.564C-6.098,22.74 -6.092,22.896 -6.084,23.032C-6.076,23.168 -6.062,23.282 -6.042,23.374C-6.022,23.466 -5.992,23.52 -5.952,23.536Z" style="fill-rule:nonzero;"/>
            <path d="M1.62,22.192C1.532,22.288 1.396,22.42 1.212,22.588C1.028,22.756 0.806,22.924 0.546,23.092C0.286,23.26 -0.004,23.404 -0.324,23.524C-0.644,23.644 -0.984,23.704 -1.344,23.704C-1.672,23.704 -1.992,23.654 -2.304,23.554C-2.616,23.454 -2.896,23.302 -3.144,23.098C-3.392,22.894 -3.59,22.634 -3.738,22.318C-3.886,22.002 -3.96,21.624 -3.96,21.184C-3.96,20.824 -3.936,20.514 -3.888,20.254C-3.84,19.994 -3.776,19.766 -3.696,19.57C-3.616,19.374 -3.526,19.206 -3.426,19.066C-3.326,18.926 -3.224,18.8 -3.12,18.688C-2.992,18.544 -2.836,18.408 -2.652,18.28C-2.468,18.152 -2.27,18.036 -2.058,17.932C-1.846,17.828 -1.622,17.746 -1.386,17.686C-1.15,17.626 -0.912,17.596 -0.672,17.596C-0.24,17.596 0.098,17.668 0.342,17.812C0.586,17.956 0.708,18.156 0.708,18.412C0.708,18.572 0.66,18.72 0.564,18.856C0.644,18.832 0.746,18.792 0.87,18.736C0.994,18.68 1.12,18.622 1.248,18.562C1.376,18.502 1.49,18.448 1.59,18.4C1.69,18.352 1.756,18.316 1.788,18.292C1.804,18.276 1.822,18.27 1.842,18.274C1.862,18.278 1.872,18.292 1.872,18.316C1.872,18.42 1.852,18.506 1.812,18.574C1.772,18.642 1.724,18.696 1.668,18.736C1.54,18.816 1.356,18.916 1.116,19.036C0.876,19.156 0.61,19.282 0.318,19.414C0.026,19.546 -0.276,19.678 -0.588,19.81C-0.9,19.942 -1.194,20.068 -1.47,20.188C-1.746,20.308 -1.986,20.414 -2.19,20.506C-2.394,20.598 -2.532,20.664 -2.604,20.704C-2.604,20.976 -2.55,21.23 -2.442,21.466C-2.334,21.702 -2.184,21.908 -1.992,22.084C-1.8,22.26 -1.57,22.398 -1.302,22.498C-1.034,22.598 -0.74,22.648 -0.42,22.648C-0.132,22.648 0.128,22.618 0.36,22.558C0.592,22.498 0.788,22.43 0.948,22.354C1.108,22.278 1.234,22.21 1.326,22.15C1.418,22.09 1.468,22.06 1.476,22.06C1.508,22.06 1.54,22.074 1.572,22.102C1.604,22.13 1.62,22.16 1.62,22.192ZM-2.604,20.356C-2.468,20.308 -2.314,20.25 -2.142,20.182C-1.97,20.114 -1.802,20.04 -1.638,19.96C-1.474,19.88 -1.324,19.804 -1.188,19.732C-1.052,19.66 -0.948,19.596 -0.876,19.54C-0.732,19.436 -0.66,19.26 -0.66,19.012C-0.66,18.916 -0.678,18.816 -0.714,18.712C-0.75,18.608 -0.804,18.514 -0.876,18.43C-0.948,18.346 -1.036,18.278 -1.14,18.226C-1.244,18.174 -1.36,18.148 -1.488,18.148C-1.6,18.148 -1.72,18.186 -1.848,18.262C-1.976,18.338 -2.096,18.462 -2.208,18.634C-2.32,18.806 -2.414,19.034 -2.49,19.318C-2.566,19.602 -2.604,19.948 -2.604,20.356Z" style="fill-rule:nonzero;"/>
            <path d="M7.188,18.496C7.1,18.568 6.996,18.658 6.876,18.766C6.756,18.874 6.63,18.978 6.498,19.078C6.366,19.178 6.232,19.264 6.096,19.336C5.96,19.408 5.828,19.444 5.7,19.444C5.588,19.444 5.488,19.418 5.4,19.366C5.312,19.314 5.23,19.258 5.154,19.198C5.078,19.138 5.004,19.082 4.932,19.03C4.86,18.978 4.784,18.952 4.704,18.952C4.488,18.952 4.306,19.04 4.158,19.216C4.01,19.392 3.89,19.616 3.798,19.888C3.706,20.16 3.638,20.456 3.594,20.776C3.55,21.096 3.528,21.404 3.528,21.7C3.528,21.948 3.538,22.15 3.558,22.306C3.578,22.462 3.608,22.586 3.648,22.678C3.688,22.77 3.742,22.832 3.81,22.864C3.878,22.896 3.96,22.912 4.056,22.912C4.16,22.912 4.272,22.896 4.392,22.864C4.416,22.856 4.434,22.872 4.446,22.912C4.458,22.952 4.464,22.984 4.464,23.008C4.464,23.024 4.452,23.042 4.428,23.062C4.404,23.082 4.388,23.092 4.38,23.092C4.204,23.164 4.024,23.242 3.84,23.326C3.656,23.41 3.504,23.48 3.384,23.536C3.272,23.584 3.138,23.636 2.982,23.692C2.826,23.748 2.692,23.776 2.58,23.776C2.452,23.776 2.346,23.756 2.262,23.716C2.178,23.676 2.136,23.636 2.136,23.596C2.136,23.556 2.146,23.52 2.166,23.488C2.186,23.456 2.204,23.396 2.22,23.308C2.236,23.188 2.254,23.046 2.274,22.882C2.294,22.718 2.314,22.54 2.334,22.348C2.354,22.156 2.37,21.958 2.382,21.754C2.394,21.55 2.4,21.348 2.4,21.148C2.4,20.7 2.386,20.32 2.358,20.008C2.33,19.696 2.28,19.444 2.208,19.252C2.136,19.06 2.038,18.922 1.914,18.838C1.79,18.754 1.632,18.712 1.44,18.712L1.332,18.712C1.3,18.712 1.268,18.716 1.236,18.724C1.188,18.724 1.164,18.7 1.164,18.652C1.164,18.604 1.188,18.568 1.236,18.544C1.324,18.488 1.46,18.406 1.644,18.298C1.828,18.19 2.018,18.086 2.214,17.986C2.41,17.886 2.6,17.796 2.784,17.716C2.968,17.636 3.104,17.596 3.192,17.596C3.296,17.596 3.384,17.63 3.456,17.698C3.528,17.766 3.582,17.852 3.618,17.956C3.654,18.06 3.68,18.178 3.696,18.31C3.712,18.442 3.72,18.572 3.72,18.7C3.72,18.796 3.718,18.896 3.714,19C3.71,19.104 3.708,19.216 3.708,19.336C4.068,18.808 4.392,18.398 4.68,18.106C4.968,17.814 5.24,17.668 5.496,17.668C5.592,17.668 5.686,17.708 5.778,17.788C5.87,17.868 5.968,17.958 6.072,18.058C6.176,18.158 6.284,18.248 6.396,18.328C6.508,18.408 6.624,18.448 6.744,18.448C6.848,18.448 6.924,18.436 6.972,18.412C7.02,18.388 7.06,18.368 7.092,18.352C7.156,18.352 7.188,18.396 7.188,18.484L7.188,18.496Z" style="fill-rule:nonzero;"/>
            <path d="M-20.346,37.168C-20.346,37.328 -20.374,37.508 -20.43,37.708C-20.486,37.908 -20.564,38.098 -20.664,38.278C-20.764,38.458 -20.886,38.608 -21.03,38.728C-21.174,38.848 -21.334,38.908 -21.51,38.908C-21.606,38.908 -21.7,38.882 -21.792,38.83C-21.884,38.778 -21.93,38.708 -21.93,38.62C-21.93,38.532 -21.902,38.464 -21.846,38.416C-21.79,38.368 -21.73,38.344 -21.666,38.344C-21.618,38.344 -21.584,38.354 -21.564,38.374C-21.544,38.394 -21.532,38.42 -21.528,38.452C-21.524,38.484 -21.52,38.514 -21.516,38.542C-21.512,38.57 -21.498,38.596 -21.474,38.62C-21.362,38.612 -21.258,38.566 -21.162,38.482C-21.066,38.398 -21.018,38.272 -21.018,38.104C-21.018,37.936 -21.078,37.746 -21.198,37.534C-21.318,37.322 -21.52,37.116 -21.804,36.916C-22.088,36.716 -22.462,36.534 -22.926,36.37C-23.39,36.206 -23.966,36.088 -24.654,36.016C-24.838,35.976 -25.026,35.934 -25.218,35.89C-25.41,35.846 -25.598,35.812 -25.782,35.788C-25.838,35.796 -25.89,35.8 -25.938,35.8L-26.106,35.8C-26.738,35.8 -27.318,35.69 -27.846,35.47C-28.374,35.25 -28.826,34.946 -29.202,34.558C-29.578,34.17 -29.872,33.706 -30.084,33.166C-30.296,32.626 -30.402,32.032 -30.402,31.384C-30.402,30.76 -30.272,30.172 -30.012,29.62C-29.752,29.068 -29.404,28.582 -28.968,28.162C-28.532,27.742 -28.032,27.41 -27.468,27.166C-26.904,26.922 -26.322,26.8 -25.722,26.8C-25.178,26.8 -24.662,26.898 -24.174,27.094C-23.686,27.29 -23.258,27.568 -22.89,27.928C-22.522,28.288 -22.23,28.724 -22.014,29.236C-21.798,29.748 -21.69,30.32 -21.69,30.952C-21.69,31.408 -21.762,31.856 -21.906,32.296C-22.05,32.736 -22.242,33.146 -22.482,33.526C-22.722,33.906 -23,34.248 -23.316,34.552C-23.632,34.856 -23.958,35.1 -24.294,35.284C-24.158,35.308 -23.96,35.332 -23.7,35.356C-23.44,35.38 -23.154,35.41 -22.842,35.446C-22.53,35.482 -22.212,35.526 -21.888,35.578C-21.564,35.63 -21.27,35.694 -21.006,35.77C-20.742,35.846 -20.526,35.94 -20.358,36.052C-20.19,36.164 -20.106,36.296 -20.106,36.448C-20.106,36.544 -20.128,36.648 -20.172,36.76C-20.216,36.872 -20.274,36.976 -20.346,37.072L-20.346,37.168ZM-25.818,35.332C-25.506,35.332 -25.208,35.246 -24.924,35.074C-24.64,34.902 -24.388,34.656 -24.168,34.336C-23.948,34.016 -23.774,33.624 -23.646,33.16C-23.518,32.696 -23.454,32.172 -23.454,31.588C-23.454,30.9 -23.526,30.292 -23.67,29.764C-23.814,29.236 -24.008,28.792 -24.252,28.432C-24.496,28.072 -24.786,27.8 -25.122,27.616C-25.458,27.432 -25.818,27.34 -26.202,27.34C-26.538,27.34 -26.852,27.422 -27.144,27.586C-27.436,27.75 -27.69,27.992 -27.906,28.312C-28.122,28.632 -28.29,29.034 -28.41,29.518C-28.53,30.002 -28.59,30.56 -28.59,31.192C-28.59,31.944 -28.488,32.582 -28.284,33.106C-28.08,33.63 -27.834,34.058 -27.546,34.39C-27.258,34.722 -26.956,34.962 -26.64,35.11C-26.324,35.258 -26.05,35.332 -25.818,35.332Z" style="fill-rule:nonzero;"/>
            <path d="M-21.054,30.64C-21.118,30.624 -21.148,30.592 -21.144,30.544C-21.14,30.496 -21.11,30.468 -21.054,30.46C-21.03,30.452 -20.954,30.424 -20.826,30.376C-20.698,30.328 -20.544,30.272 -20.364,30.208C-20.184,30.144 -19.996,30.076 -19.8,30.004C-19.604,29.932 -19.43,29.872 -19.278,29.824C-19.182,29.792 -19.116,29.77 -19.08,29.758C-19.044,29.746 -19.014,29.74 -18.99,29.74C-18.966,29.74 -18.938,29.75 -18.906,29.77C-18.874,29.79 -18.866,29.82 -18.882,29.86C-18.906,29.924 -18.932,30.076 -18.96,30.316C-18.988,30.556 -19.014,30.822 -19.038,31.114C-19.062,31.406 -19.084,31.696 -19.104,31.984C-19.124,32.272 -19.134,32.5 -19.134,32.668C-19.134,33.308 -18.998,33.802 -18.726,34.15C-18.454,34.498 -18.03,34.672 -17.454,34.672C-17.158,34.672 -16.912,34.612 -16.716,34.492C-16.52,34.372 -16.37,34.232 -16.266,34.072C-16.194,33.968 -16.146,33.74 -16.122,33.388C-16.122,33.324 -16.12,33.24 -16.116,33.136C-16.112,33.032 -16.108,32.922 -16.104,32.806C-16.1,32.69 -16.096,32.578 -16.092,32.47C-16.088,32.362 -16.086,32.272 -16.086,32.2C-16.078,31.832 -16.088,31.49 -16.116,31.174C-16.144,30.858 -16.186,30.624 -16.242,30.472C-16.266,30.376 -16.314,30.328 -16.386,30.328C-16.434,30.328 -16.48,30.33 -16.524,30.334C-16.568,30.338 -16.594,30.304 -16.602,30.232C-16.602,30.208 -16.578,30.182 -16.53,30.154C-16.482,30.126 -16.39,30.084 -16.254,30.028C-16.126,29.98 -15.984,29.932 -15.828,29.884C-15.672,29.836 -15.518,29.796 -15.366,29.764C-15.214,29.732 -15.078,29.71 -14.958,29.698C-14.838,29.686 -14.75,29.692 -14.694,29.716C-14.694,29.724 -14.688,29.734 -14.676,29.746C-14.664,29.758 -14.654,29.784 -14.646,29.824C-14.63,29.872 -14.64,30.022 -14.676,30.274C-14.712,30.526 -14.75,30.936 -14.79,31.504C-14.822,31.896 -14.85,32.276 -14.874,32.644C-14.898,33.012 -14.91,33.292 -14.91,33.484C-14.91,33.86 -14.84,34.158 -14.7,34.378C-14.56,34.598 -14.386,34.708 -14.178,34.708C-14.042,34.708 -13.912,34.68 -13.788,34.624C-13.664,34.568 -13.574,34.52 -13.518,34.48C-13.454,34.48 -13.42,34.508 -13.416,34.564C-13.412,34.62 -13.426,34.656 -13.458,34.672C-13.578,34.752 -13.744,34.852 -13.956,34.972C-14.168,35.092 -14.388,35.206 -14.616,35.314C-14.844,35.422 -15.062,35.514 -15.27,35.59C-15.478,35.666 -15.646,35.704 -15.774,35.704C-15.838,35.704 -15.896,35.662 -15.948,35.578C-16,35.494 -16.042,35.392 -16.074,35.272C-16.106,35.152 -16.13,35.028 -16.146,34.9C-16.162,34.772 -16.17,34.66 -16.17,34.564C-16.338,34.684 -16.53,34.81 -16.746,34.942C-16.962,35.074 -17.186,35.198 -17.418,35.314C-17.65,35.43 -17.88,35.524 -18.108,35.596C-18.336,35.668 -18.546,35.704 -18.738,35.704C-19.226,35.704 -19.626,35.574 -19.938,35.314C-20.25,35.054 -20.406,34.716 -20.406,34.3C-20.406,34.212 -20.398,34.08 -20.382,33.904C-20.366,33.728 -20.346,33.528 -20.322,33.304C-20.298,33.08 -20.278,32.84 -20.262,32.584C-20.246,32.328 -20.238,32.08 -20.238,31.84C-20.238,31.472 -20.296,31.19 -20.412,30.994C-20.528,30.798 -20.678,30.688 -20.862,30.664L-21.054,30.64Z" style="fill-rule:nonzero;"/>
            <path d="M-9.558,33.724C-9.582,33.588 -9.606,33.44 -9.63,33.28C-9.654,33.12 -9.678,32.968 -9.702,32.824C-9.726,32.68 -9.748,32.556 -9.768,32.452C-9.788,32.348 -9.802,32.28 -9.81,32.248C-9.938,32.296 -10.082,32.352 -10.242,32.416C-10.402,32.48 -10.562,32.55 -10.722,32.626C-10.882,32.702 -11.034,32.778 -11.178,32.854C-11.322,32.93 -11.442,33 -11.538,33.064C-11.722,33.184 -11.862,33.304 -11.958,33.424C-12.054,33.544 -12.102,33.688 -12.102,33.856C-12.102,34.088 -12.034,34.292 -11.898,34.468C-11.762,34.644 -11.55,34.732 -11.262,34.732C-11.11,34.732 -10.952,34.704 -10.788,34.648C-10.624,34.592 -10.472,34.528 -10.332,34.456C-10.192,34.384 -10.07,34.312 -9.966,34.24C-9.862,34.168 -9.79,34.112 -9.75,34.072C-9.686,34.008 -9.636,33.954 -9.6,33.91C-9.564,33.866 -9.55,33.804 -9.558,33.724ZM-9.906,31.864C-9.954,31.616 -10.01,31.394 -10.074,31.198C-10.138,31.002 -10.218,30.838 -10.314,30.706C-10.41,30.574 -10.526,30.474 -10.662,30.406C-10.798,30.338 -10.966,30.304 -11.166,30.304C-11.342,30.304 -11.504,30.336 -11.652,30.4C-11.8,30.464 -11.928,30.54 -12.036,30.628C-12.144,30.716 -12.228,30.804 -12.288,30.892C-12.348,30.98 -12.382,31.048 -12.39,31.096C-12.398,31.16 -12.434,31.192 -12.498,31.192C-12.61,31.192 -12.714,31.152 -12.81,31.072C-12.906,30.992 -12.954,30.896 -12.954,30.784C-12.954,30.72 -12.946,30.672 -12.93,30.64C-12.746,30.536 -12.522,30.424 -12.258,30.304C-11.994,30.184 -11.72,30.072 -11.436,29.968C-11.152,29.864 -10.87,29.778 -10.59,29.71C-10.31,29.642 -10.058,29.608 -9.834,29.608C-9.498,29.608 -9.24,29.656 -9.06,29.752C-8.88,29.848 -8.746,29.984 -8.658,30.16C-8.57,30.336 -8.516,30.542 -8.496,30.778C-8.476,31.014 -8.458,31.268 -8.442,31.54C-8.418,31.948 -8.386,32.342 -8.346,32.722C-8.306,33.102 -8.246,33.438 -8.166,33.73C-8.086,34.022 -7.984,34.258 -7.86,34.438C-7.736,34.618 -7.582,34.708 -7.398,34.708C-7.31,34.708 -7.214,34.692 -7.11,34.66C-7.006,34.628 -6.906,34.59 -6.81,34.546C-6.714,34.502 -6.628,34.458 -6.552,34.414C-6.476,34.37 -6.426,34.34 -6.402,34.324C-6.33,34.324 -6.286,34.36 -6.27,34.432C-6.27,34.472 -6.278,34.508 -6.294,34.54C-6.31,34.556 -6.37,34.596 -6.474,34.66C-6.578,34.724 -6.706,34.8 -6.858,34.888C-7.01,34.976 -7.178,35.07 -7.362,35.17C-7.546,35.27 -7.728,35.364 -7.908,35.452C-8.088,35.54 -8.254,35.612 -8.406,35.668C-8.558,35.724 -8.678,35.752 -8.766,35.752C-8.87,35.752 -8.96,35.71 -9.036,35.626C-9.112,35.542 -9.178,35.43 -9.234,35.29C-9.29,35.15 -9.338,34.988 -9.378,34.804C-9.418,34.62 -9.454,34.428 -9.486,34.228C-9.63,34.348 -9.814,34.49 -10.038,34.654C-10.262,34.818 -10.506,34.972 -10.77,35.116C-11.034,35.26 -11.304,35.382 -11.58,35.482C-11.856,35.582 -12.122,35.632 -12.378,35.632C-12.594,35.632 -12.782,35.598 -12.942,35.53C-13.102,35.462 -13.236,35.372 -13.344,35.26C-13.452,35.148 -13.532,35.018 -13.584,34.87C-13.636,34.722 -13.662,34.568 -13.662,34.408C-13.662,34.152 -13.584,33.942 -13.428,33.778C-13.272,33.614 -13.03,33.444 -12.702,33.268C-12.55,33.188 -12.338,33.082 -12.066,32.95C-11.794,32.818 -11.516,32.684 -11.232,32.548C-10.948,32.412 -10.684,32.282 -10.44,32.158C-10.196,32.034 -10.018,31.936 -9.906,31.864Z" style="fill-rule:nonzero;"/>
            <path d="M-2.334,34.636C-2.406,34.708 -2.522,34.804 -2.682,34.924C-2.842,35.044 -3.03,35.162 -3.246,35.278C-3.462,35.394 -3.696,35.494 -3.948,35.578C-4.2,35.662 -4.454,35.704 -4.71,35.704C-4.974,35.704 -5.238,35.644 -5.502,35.524C-5.766,35.404 -6.004,35.23 -6.216,35.002C-6.428,34.774 -6.598,34.5 -6.726,34.18C-6.854,33.86 -6.918,33.5 -6.918,33.1C-6.918,32.58 -6.828,32.108 -6.648,31.684C-6.468,31.26 -6.204,30.9 -5.856,30.604C-5.508,30.308 -5.084,30.08 -4.584,29.92C-4.084,29.76 -3.51,29.68 -2.862,29.68L-2.538,29.68C-2.434,29.68 -2.338,29.684 -2.25,29.692L-2.25,29.302C-2.25,29.114 -2.252,28.92 -2.256,28.72C-2.26,28.52 -2.264,28.336 -2.268,28.168C-2.272,28 -2.274,27.896 -2.274,27.856C-2.306,27.536 -2.36,27.312 -2.436,27.184C-2.512,27.056 -2.666,26.992 -2.898,26.992C-2.93,26.992 -2.948,26.956 -2.952,26.884C-2.956,26.812 -2.93,26.756 -2.874,26.716C-2.81,26.676 -2.738,26.646 -2.658,26.626C-2.578,26.606 -2.458,26.596 -2.298,26.596C-1.994,26.596 -1.74,26.594 -1.536,26.59C-1.332,26.586 -1.164,26.578 -1.032,26.566C-0.9,26.554 -0.794,26.538 -0.714,26.518C-0.634,26.498 -0.566,26.476 -0.51,26.452C-0.47,26.444 -0.436,26.454 -0.408,26.482C-0.38,26.51 -0.36,26.546 -0.348,26.59C-0.336,26.634 -0.334,26.676 -0.342,26.716C-0.35,26.756 -0.374,26.78 -0.414,26.788C-0.502,26.804 -0.568,26.822 -0.612,26.842C-0.656,26.862 -0.698,26.9 -0.738,26.956C-0.778,27.012 -0.814,27.16 -0.846,27.4C-0.878,27.64 -0.91,27.936 -0.942,28.288C-0.974,28.64 -1.002,29.03 -1.026,29.458C-1.05,29.886 -1.07,30.316 -1.086,30.748C-1.102,31.18 -1.116,31.6 -1.128,32.008C-1.14,32.416 -1.146,32.772 -1.146,33.076C-1.146,33.66 -1.082,34.09 -0.954,34.366C-0.826,34.642 -0.63,34.78 -0.366,34.78C-0.27,34.78 -0.164,34.764 -0.048,34.732C0.068,34.7 0.176,34.662 0.276,34.618C0.376,34.574 0.468,34.53 0.552,34.486C0.636,34.442 0.698,34.404 0.738,34.372C0.778,34.34 0.814,34.36 0.846,34.432C0.878,34.504 0.874,34.552 0.834,34.576C0.738,34.632 0.588,34.714 0.384,34.822C0.18,34.93 -0.046,35.044 -0.294,35.164C-0.598,35.316 -0.906,35.452 -1.218,35.572C-1.53,35.692 -1.782,35.752 -1.974,35.752C-2.118,35.752 -2.216,35.728 -2.268,35.68C-2.32,35.632 -2.346,35.556 -2.346,35.452L-2.346,35.29C-2.346,35.214 -2.344,35.134 -2.34,35.05C-2.336,34.966 -2.334,34.886 -2.334,34.81L-2.334,34.636ZM-2.49,34.228C-2.426,34.14 -2.378,34.038 -2.346,33.922C-2.314,33.806 -2.29,33.648 -2.274,33.448C-2.258,33.28 -2.25,33.074 -2.25,32.83L-2.25,32.188C-2.25,32.004 -2.252,31.808 -2.256,31.6C-2.26,31.392 -2.266,31.248 -2.274,31.168C-2.29,31.032 -2.346,30.904 -2.442,30.784C-2.538,30.664 -2.662,30.56 -2.814,30.472C-2.966,30.384 -3.144,30.314 -3.348,30.262C-3.552,30.21 -3.766,30.184 -3.99,30.184C-4.206,30.184 -4.41,30.22 -4.602,30.292C-4.794,30.364 -4.96,30.48 -5.1,30.64C-5.24,30.8 -5.35,31.006 -5.43,31.258C-5.51,31.51 -5.55,31.82 -5.55,32.188C-5.55,32.564 -5.498,32.906 -5.394,33.214C-5.29,33.522 -5.146,33.788 -4.962,34.012C-4.778,34.236 -4.558,34.41 -4.302,34.534C-4.046,34.658 -3.766,34.72 -3.462,34.72C-3.342,34.72 -3.23,34.702 -3.126,34.666C-3.022,34.63 -2.928,34.586 -2.844,34.534C-2.76,34.482 -2.686,34.428 -2.622,34.372C-2.558,34.316 -2.514,34.268 -2.49,34.228Z" style="fill-rule:nonzero;"/>
            <path d="M-21.45,47.008C-21.402,47.2 -21.234,47.32 -20.946,47.368C-20.874,47.376 -20.838,47.416 -20.838,47.488C-20.838,47.528 -20.858,47.564 -20.898,47.596C-20.938,47.628 -20.99,47.644 -21.054,47.644C-21.174,47.644 -21.334,47.636 -21.534,47.62C-21.734,47.604 -22.018,47.596 -22.386,47.596C-22.682,47.596 -22.942,47.606 -23.166,47.626C-23.39,47.646 -23.526,47.66 -23.574,47.668C-23.614,47.668 -23.642,47.656 -23.658,47.632C-23.674,47.608 -23.682,47.58 -23.682,47.548C-23.682,47.516 -23.676,47.484 -23.664,47.452C-23.652,47.42 -23.634,47.404 -23.61,47.404C-23.554,47.396 -23.498,47.38 -23.442,47.356C-23.386,47.332 -23.334,47.3 -23.286,47.26C-23.262,47.236 -23.232,47.108 -23.196,46.876C-23.16,46.644 -23.128,46.338 -23.1,45.958C-23.072,45.578 -23.048,45.14 -23.028,44.644C-23.008,44.148 -22.998,43.624 -22.998,43.072L-22.998,41.776C-22.998,41.376 -23.018,41.052 -23.058,40.804C-23.13,40.276 -23.298,39.87 -23.562,39.586C-23.826,39.302 -24.134,39.16 -24.486,39.16C-24.798,39.16 -25.106,39.246 -25.41,39.418C-25.714,39.59 -25.986,39.842 -26.226,40.174C-26.466,40.506 -26.66,40.918 -26.808,41.41C-26.956,41.902 -27.03,42.464 -27.03,43.096C-27.03,43.792 -26.952,44.398 -26.796,44.914C-26.64,45.43 -26.434,45.862 -26.178,46.21C-25.922,46.558 -25.628,46.818 -25.296,46.99C-24.964,47.162 -24.618,47.248 -24.258,47.248L-24.192,47.248C-24.164,47.248 -24.142,47.244 -24.126,47.236C-24.094,47.22 -24.074,47.22 -24.066,47.236C-24.058,47.252 -24.058,47.274 -24.066,47.302C-24.074,47.33 -24.084,47.358 -24.096,47.386C-24.108,47.414 -24.122,47.432 -24.138,47.44C-24.218,47.496 -24.33,47.546 -24.474,47.59C-24.618,47.634 -24.818,47.656 -25.074,47.656C-25.498,47.656 -25.92,47.558 -26.34,47.362C-26.76,47.166 -27.136,46.892 -27.468,46.54C-27.8,46.188 -28.068,45.762 -28.272,45.262C-28.476,44.762 -28.578,44.212 -28.578,43.612C-28.578,42.756 -28.454,42.024 -28.206,41.416C-27.958,40.808 -27.62,40.312 -27.192,39.928C-26.764,39.544 -26.268,39.262 -25.704,39.082C-25.14,38.902 -24.538,38.812 -23.898,38.812C-23.666,38.812 -23.454,38.836 -23.262,38.884C-23.07,38.932 -22.902,38.99 -22.758,39.058C-22.614,39.126 -22.496,39.192 -22.404,39.256C-22.312,39.32 -22.25,39.368 -22.218,39.4C-22.154,39.352 -22.024,39.294 -21.828,39.226C-21.632,39.158 -21.408,39.094 -21.156,39.034C-20.904,38.974 -20.642,38.922 -20.37,38.878C-20.098,38.834 -19.85,38.812 -19.626,38.812C-19.018,38.828 -18.484,38.928 -18.024,39.112C-17.564,39.296 -17.18,39.542 -16.872,39.85C-16.564,40.158 -16.332,40.514 -16.176,40.918C-16.02,41.322 -15.942,41.752 -15.942,42.208C-15.942,43.064 -16.056,43.826 -16.284,44.494C-16.512,45.162 -16.818,45.728 -17.202,46.192C-17.586,46.656 -18.03,47.01 -18.534,47.254C-19.038,47.498 -19.566,47.62 -20.118,47.62C-20.166,47.62 -20.198,47.602 -20.214,47.566C-20.23,47.53 -20.236,47.492 -20.232,47.452C-20.228,47.412 -20.214,47.378 -20.19,47.35C-20.166,47.322 -20.142,47.312 -20.118,47.32C-20.078,47.336 -20.046,47.344 -20.022,47.344L-19.926,47.344C-19.598,47.344 -19.29,47.232 -19.002,47.008C-18.714,46.784 -18.462,46.474 -18.246,46.078C-18.03,45.682 -17.86,45.214 -17.736,44.674C-17.612,44.134 -17.55,43.544 -17.55,42.904C-17.55,41.712 -17.732,40.784 -18.096,40.12C-18.46,39.456 -19.022,39.124 -19.782,39.124C-20.014,39.124 -20.23,39.172 -20.43,39.268C-20.63,39.364 -20.804,39.49 -20.952,39.646C-21.1,39.802 -21.22,39.98 -21.312,40.18C-21.404,40.38 -21.462,40.584 -21.486,40.792C-21.526,41.072 -21.55,41.52 -21.558,42.136C-21.566,42.752 -21.574,43.496 -21.582,44.368C-21.59,45.008 -21.584,45.566 -21.564,46.042C-21.544,46.518 -21.506,46.84 -21.45,47.008Z" style="fill-rule:nonzero;"/>
            <path d="M-13.434,45.508C-13.434,45.676 -13.43,45.838 -13.422,45.994C-13.414,46.15 -13.386,46.284 -13.338,46.396C-13.29,46.508 -13.218,46.598 -13.122,46.666C-13.026,46.734 -12.89,46.768 -12.714,46.768C-12.626,46.768 -12.526,46.758 -12.414,46.738C-12.302,46.718 -12.196,46.692 -12.096,46.66C-11.996,46.628 -11.908,46.596 -11.832,46.564C-11.756,46.532 -11.71,46.508 -11.694,46.492C-11.67,46.468 -11.654,46.468 -11.646,46.492C-11.638,46.516 -11.636,46.546 -11.64,46.582C-11.644,46.618 -11.654,46.654 -11.67,46.69C-11.686,46.726 -11.706,46.752 -11.73,46.768C-11.81,46.808 -11.95,46.88 -12.15,46.984C-12.35,47.088 -12.586,47.196 -12.858,47.308C-13.114,47.42 -13.364,47.514 -13.608,47.59C-13.852,47.666 -14.054,47.704 -14.214,47.704C-14.398,47.704 -14.542,47.648 -14.646,47.536C-14.75,47.424 -14.802,47.284 -14.802,47.116C-14.802,47.06 -14.8,47.012 -14.796,46.972C-14.792,46.932 -14.786,46.88 -14.778,46.816C-14.77,46.736 -14.756,46.59 -14.736,46.378C-14.716,46.166 -14.696,45.928 -14.676,45.664C-14.656,45.4 -14.638,45.134 -14.622,44.866C-14.606,44.598 -14.598,44.368 -14.598,44.176L-14.598,43.756C-14.598,43.548 -14.61,43.364 -14.634,43.204C-14.658,43.044 -14.698,42.92 -14.754,42.832C-14.794,42.776 -14.844,42.73 -14.904,42.694C-14.964,42.658 -15.038,42.64 -15.126,42.64C-15.174,42.64 -15.222,42.65 -15.27,42.67C-15.318,42.69 -15.354,42.7 -15.378,42.7C-15.394,42.7 -15.42,42.676 -15.456,42.628C-15.492,42.58 -15.49,42.544 -15.45,42.52C-15.394,42.48 -15.278,42.416 -15.102,42.328C-14.926,42.24 -14.734,42.144 -14.526,42.04C-14.302,41.928 -14.086,41.83 -13.878,41.746C-13.67,41.662 -13.522,41.62 -13.434,41.62C-13.346,41.62 -13.286,41.646 -13.254,41.698C-13.222,41.75 -13.206,41.808 -13.206,41.872L-13.206,41.92C-13.206,42 -13.218,42.128 -13.242,42.304C-13.266,42.48 -13.292,42.696 -13.32,42.952C-13.348,43.208 -13.374,43.504 -13.398,43.84C-13.422,44.176 -13.434,44.54 -13.434,44.932L-13.434,45.508ZM-13.914,39.268C-13.874,39.276 -13.808,39.32 -13.716,39.4C-13.624,39.48 -13.53,39.572 -13.434,39.676C-13.338,39.78 -13.254,39.88 -13.182,39.976C-13.11,40.072 -13.074,40.136 -13.074,40.168C-13.074,40.208 -13.122,40.268 -13.218,40.348C-13.314,40.428 -13.424,40.51 -13.548,40.594C-13.672,40.678 -13.792,40.752 -13.908,40.816C-14.024,40.88 -14.106,40.912 -14.154,40.912C-14.178,40.912 -14.236,40.874 -14.328,40.798C-14.42,40.722 -14.514,40.636 -14.61,40.54C-14.706,40.444 -14.792,40.35 -14.868,40.258C-14.944,40.166 -14.982,40.104 -14.982,40.072C-14.982,40.032 -14.93,39.97 -14.826,39.886C-14.722,39.802 -14.608,39.714 -14.484,39.622C-14.36,39.53 -14.24,39.45 -14.124,39.382C-14.008,39.314 -13.938,39.276 -13.914,39.268Z" style="fill-rule:nonzero;"/>
            <path d="M-7.47,46.636C-7.542,46.708 -7.658,46.804 -7.818,46.924C-7.978,47.044 -8.166,47.162 -8.382,47.278C-8.598,47.394 -8.832,47.494 -9.084,47.578C-9.336,47.662 -9.59,47.704 -9.846,47.704C-10.11,47.704 -10.374,47.644 -10.638,47.524C-10.902,47.404 -11.14,47.23 -11.352,47.002C-11.564,46.774 -11.734,46.5 -11.862,46.18C-11.99,45.86 -12.054,45.5 -12.054,45.1C-12.054,44.58 -11.964,44.108 -11.784,43.684C-11.604,43.26 -11.34,42.9 -10.992,42.604C-10.644,42.308 -10.22,42.08 -9.72,41.92C-9.22,41.76 -8.646,41.68 -7.998,41.68L-7.674,41.68C-7.57,41.68 -7.474,41.684 -7.386,41.692L-7.386,41.302C-7.386,41.114 -7.388,40.92 -7.392,40.72C-7.396,40.52 -7.4,40.336 -7.404,40.168C-7.408,40 -7.41,39.896 -7.41,39.856C-7.442,39.536 -7.496,39.312 -7.572,39.184C-7.648,39.056 -7.802,38.992 -8.034,38.992C-8.066,38.992 -8.084,38.956 -8.088,38.884C-8.092,38.812 -8.066,38.756 -8.01,38.716C-7.946,38.676 -7.874,38.646 -7.794,38.626C-7.714,38.606 -7.594,38.596 -7.434,38.596C-7.13,38.596 -6.876,38.594 -6.672,38.59C-6.468,38.586 -6.3,38.578 -6.168,38.566C-6.036,38.554 -5.93,38.538 -5.85,38.518C-5.77,38.498 -5.702,38.476 -5.646,38.452C-5.606,38.444 -5.572,38.454 -5.544,38.482C-5.516,38.51 -5.496,38.546 -5.484,38.59C-5.472,38.634 -5.47,38.676 -5.478,38.716C-5.486,38.756 -5.51,38.78 -5.55,38.788C-5.638,38.804 -5.704,38.822 -5.748,38.842C-5.792,38.862 -5.834,38.9 -5.874,38.956C-5.914,39.012 -5.95,39.16 -5.982,39.4C-6.014,39.64 -6.046,39.936 -6.078,40.288C-6.11,40.64 -6.138,41.03 -6.162,41.458C-6.186,41.886 -6.206,42.316 -6.222,42.748C-6.238,43.18 -6.252,43.6 -6.264,44.008C-6.276,44.416 -6.282,44.772 -6.282,45.076C-6.282,45.66 -6.218,46.09 -6.09,46.366C-5.962,46.642 -5.766,46.78 -5.502,46.78C-5.406,46.78 -5.3,46.764 -5.184,46.732C-5.068,46.7 -4.96,46.662 -4.86,46.618C-4.76,46.574 -4.668,46.53 -4.584,46.486C-4.5,46.442 -4.438,46.404 -4.398,46.372C-4.358,46.34 -4.322,46.36 -4.29,46.432C-4.258,46.504 -4.262,46.552 -4.302,46.576C-4.398,46.632 -4.548,46.714 -4.752,46.822C-4.956,46.93 -5.182,47.044 -5.43,47.164C-5.734,47.316 -6.042,47.452 -6.354,47.572C-6.666,47.692 -6.918,47.752 -7.11,47.752C-7.254,47.752 -7.352,47.728 -7.404,47.68C-7.456,47.632 -7.482,47.556 -7.482,47.452L-7.482,47.29C-7.482,47.214 -7.48,47.134 -7.476,47.05C-7.472,46.966 -7.47,46.886 -7.47,46.81L-7.47,46.636ZM-7.626,46.228C-7.562,46.14 -7.514,46.038 -7.482,45.922C-7.45,45.806 -7.426,45.648 -7.41,45.448C-7.394,45.28 -7.386,45.074 -7.386,44.83L-7.386,44.188C-7.386,44.004 -7.388,43.808 -7.392,43.6C-7.396,43.392 -7.402,43.248 -7.41,43.168C-7.426,43.032 -7.482,42.904 -7.578,42.784C-7.674,42.664 -7.798,42.56 -7.95,42.472C-8.102,42.384 -8.28,42.314 -8.484,42.262C-8.688,42.21 -8.902,42.184 -9.126,42.184C-9.342,42.184 -9.546,42.22 -9.738,42.292C-9.93,42.364 -10.096,42.48 -10.236,42.64C-10.376,42.8 -10.486,43.006 -10.566,43.258C-10.646,43.51 -10.686,43.82 -10.686,44.188C-10.686,44.564 -10.634,44.906 -10.53,45.214C-10.426,45.522 -10.282,45.788 -10.098,46.012C-9.914,46.236 -9.694,46.41 -9.438,46.534C-9.182,46.658 -8.902,46.72 -8.598,46.72C-8.478,46.72 -8.366,46.702 -8.262,46.666C-8.158,46.63 -8.064,46.586 -7.98,46.534C-7.896,46.482 -7.822,46.428 -7.758,46.372C-7.694,46.316 -7.65,46.268 -7.626,46.228Z" style="fill-rule:nonzero;"/>
            <path d="M-3.054,45.508C-3.054,45.676 -3.05,45.838 -3.042,45.994C-3.034,46.15 -3.006,46.284 -2.958,46.396C-2.91,46.508 -2.838,46.598 -2.742,46.666C-2.646,46.734 -2.51,46.768 -2.334,46.768C-2.246,46.768 -2.146,46.758 -2.034,46.738C-1.922,46.718 -1.816,46.692 -1.716,46.66C-1.616,46.628 -1.528,46.596 -1.452,46.564C-1.376,46.532 -1.33,46.508 -1.314,46.492C-1.29,46.468 -1.274,46.468 -1.266,46.492C-1.258,46.516 -1.256,46.546 -1.26,46.582C-1.264,46.618 -1.274,46.654 -1.29,46.69C-1.306,46.726 -1.326,46.752 -1.35,46.768C-1.43,46.808 -1.57,46.88 -1.77,46.984C-1.97,47.088 -2.206,47.196 -2.478,47.308C-2.734,47.42 -2.984,47.514 -3.228,47.59C-3.472,47.666 -3.674,47.704 -3.834,47.704C-4.018,47.704 -4.162,47.648 -4.266,47.536C-4.37,47.424 -4.422,47.284 -4.422,47.116C-4.422,47.06 -4.42,47.012 -4.416,46.972C-4.412,46.932 -4.406,46.88 -4.398,46.816C-4.39,46.736 -4.376,46.59 -4.356,46.378C-4.336,46.166 -4.316,45.928 -4.296,45.664C-4.276,45.4 -4.258,45.134 -4.242,44.866C-4.226,44.598 -4.218,44.368 -4.218,44.176L-4.218,43.756C-4.218,43.548 -4.23,43.364 -4.254,43.204C-4.278,43.044 -4.318,42.92 -4.374,42.832C-4.414,42.776 -4.464,42.73 -4.524,42.694C-4.584,42.658 -4.658,42.64 -4.746,42.64C-4.794,42.64 -4.842,42.65 -4.89,42.67C-4.938,42.69 -4.974,42.7 -4.998,42.7C-5.014,42.7 -5.04,42.676 -5.076,42.628C-5.112,42.58 -5.11,42.544 -5.07,42.52C-5.014,42.48 -4.898,42.416 -4.722,42.328C-4.546,42.24 -4.354,42.144 -4.146,42.04C-3.922,41.928 -3.706,41.83 -3.498,41.746C-3.29,41.662 -3.142,41.62 -3.054,41.62C-2.966,41.62 -2.906,41.646 -2.874,41.698C-2.842,41.75 -2.826,41.808 -2.826,41.872L-2.826,41.92C-2.826,42 -2.838,42.128 -2.862,42.304C-2.886,42.48 -2.912,42.696 -2.94,42.952C-2.968,43.208 -2.994,43.504 -3.018,43.84C-3.042,44.176 -3.054,44.54 -3.054,44.932L-3.054,45.508ZM-3.534,39.268C-3.494,39.276 -3.428,39.32 -3.336,39.4C-3.244,39.48 -3.15,39.572 -3.054,39.676C-2.958,39.78 -2.874,39.88 -2.802,39.976C-2.73,40.072 -2.694,40.136 -2.694,40.168C-2.694,40.208 -2.742,40.268 -2.838,40.348C-2.934,40.428 -3.044,40.51 -3.168,40.594C-3.292,40.678 -3.412,40.752 -3.528,40.816C-3.644,40.88 -3.726,40.912 -3.774,40.912C-3.798,40.912 -3.856,40.874 -3.948,40.798C-4.04,40.722 -4.134,40.636 -4.23,40.54C-4.326,40.444 -4.412,40.35 -4.488,40.258C-4.564,40.166 -4.602,40.104 -4.602,40.072C-4.602,40.032 -4.55,39.97 -4.446,39.886C-4.342,39.802 -4.228,39.714 -4.104,39.622C-3.98,39.53 -3.86,39.45 -3.744,39.382C-3.628,39.314 -3.558,39.276 -3.534,39.268Z" style="fill-rule:nonzero;"/>
        </g>
        <g transform="matrix(1,0,0,1,49.7332,24.9549)">
            <text x="-37.512px" y="23.596px" style="font-family:'Luminari-Regular', 'Luminari';font-size:12px;">Doepfer</text>
            <text x="-30.75px" y="35.596px" style="font-family:'Luminari-Regular', 'Luminari';font-size:12px;">Quad</text>
            <text x="-28.89px" y="47.596px" style="font-family:'Luminari-Regular', 'Luminari';font-size:12px;">Midi</text>
        </g>
        <g transform="matrix(0.0178906,0,0,0.0202937,25.4057,18.6064)">
            <g transform="matrix(1,0,0,1,-143.343,98.6554)">
                <ellipse cx="360.896" cy="293.762" rx="136.961" ry="230.443" style="fill:rgb(102,126,153);stroke:black;stroke-width:63.81px;"/>
            </g>
            <g transform="matrix(1,0,0,1,445.551,98.6554)">
                <ellipse cx="360.896" cy="293.762" rx="136.961" ry="230.443" style="fill:rgb(102,126,153);stroke:black;stroke-width:63.81px;"/>
            </g>
            <g transform="matrix(1,0,0,1,-34.3236,-20.6488)">
                <ellipse cx="546.324" cy="643.509" rx="431.408" ry="296.899" style="fill:rgb(102,126,153);stroke:black;stroke-width:63.81px;"/>
            </g>
            <circle cx="406.664" cy="569.758" r="105.336" style="fill:rgb(102,126,153);stroke:black;stroke-width:63.81px;"/>
            <g transform="matrix(1,0,0,1,210.672,0)">
                <circle cx="406.664" cy="569.758" r="105.336" style="fill:rgb(102,126,153);stroke:black;stroke-width:63.81px;"/>
            </g>
            <g transform="matrix(1,0,0,1,-53.1856,50.0357)">
                <ellipse cx="565.186" cy="671.455" rx="210.672" ry="98.631" style="fill:rgb(102,126,153);stroke:black;stroke-width:63.81px;"/>
            </g>
            <g transform="matrix(51.2,0,0,45.1371,0.670978,88.9676)">
                <path d="M12.057,13.791C12.057,13.668 11.958,13.568 11.835,13.568L8.139,13.568C8.016,13.568 7.916,13.668 7.916,13.791L7.916,14.236C7.916,14.359 8.016,14.458 8.139,14.458L11.835,14.458C11.958,14.458 12.057,14.359 12.057,14.236L12.057,13.791Z"/>
            </g>
        </g>
    </g>
</svg>
