<?xml version="1.0" encoding="UTF-8" standalone="no"?>
<!DOCTYPE svg PUBLIC "-//W3C//DTD SVG 1.1//EN" "http://www.w3.org/Graphics/SVG/1.1/DTD/svg11.dtd">
<svg width="100%" height="100%" viewBox="0 0 60 380" version="1.1" xmlns="http://www.w3.org/2000/svg" xmlns:xlink="http://www.w3.org/1999/xlink" xml:space="preserve" xmlns:serif="http://www.serif.com/" style="fill-rule:evenodd;clip-rule:evenodd;stroke-linecap:round;stroke-linejoin:round;stroke-miterlimit:1.5;">
    <g transform="matrix(0.28834,0,0,2.01589,-15.1541,-120.797)">
        <rect x="52.556" y="59.922" width="208.087" height="188.503" style="fill:rgb(102,126,153);"/>
    </g>
    <g transform="matrix(1,0,0,1,-155.127,48.5994)">
        <g id="Connect-ledbutton" serif:id="Connect#ledbutton" transform="matrix(1,0,0,1,83.8192,-8.78101)">
            <circle cx="101.308" cy="310.24" r="9.898" style="fill:rgb(115,115,115);"/>
        </g>
        <g transform="matrix(1,0,0,1,83.3642,161.088)">
            <path d="M90.698,116.846C90.698,117.006 90.743,117.13 90.833,117.216C90.923,117.303 91.045,117.346 91.198,117.346C91.391,117.346 91.52,117.29 91.583,117.176C91.646,117.063 91.685,116.95 91.698,116.836L92.718,116.836C92.718,117.283 92.581,117.643 92.308,117.916C92.175,118.056 92.015,118.166 91.828,118.246C91.641,118.326 91.431,118.366 91.198,118.366C90.878,118.366 90.606,118.3 90.383,118.166C90.16,118.033 89.988,117.856 89.868,117.636C89.795,117.503 89.745,117.35 89.718,117.176C89.691,117.003 89.678,116.813 89.678,116.606L89.678,114.936C89.678,114.73 89.691,114.54 89.718,114.366C89.745,114.193 89.795,114.04 89.868,113.906C89.988,113.686 90.16,113.51 90.383,113.376C90.606,113.243 90.878,113.176 91.198,113.176C91.431,113.176 91.643,113.216 91.833,113.296C92.023,113.376 92.185,113.486 92.318,113.626C92.585,113.926 92.718,114.316 92.718,114.796L91.698,114.796C91.698,114.59 91.653,114.438 91.563,114.341C91.473,114.245 91.351,114.196 91.198,114.196C91.045,114.196 90.923,114.245 90.833,114.341C90.743,114.438 90.698,114.583 90.698,114.776L90.698,116.846Z" style="fill-rule:nonzero;"/>
            <path d="M93.228,114.936C93.228,114.73 93.241,114.54 93.268,114.366C93.295,114.193 93.345,114.04 93.418,113.906C93.538,113.686 93.71,113.51 93.933,113.376C94.156,113.243 94.428,113.176 94.748,113.176C95.068,113.176 95.34,113.243 95.563,113.376C95.786,113.51 95.958,113.686 96.078,113.906C96.151,114.04 96.201,114.193 96.228,114.366C96.255,114.54 96.268,114.73 96.268,114.936L96.268,116.606C96.268,116.813 96.255,117.003 96.228,117.176C96.201,117.35 96.151,117.503 96.078,117.636C95.958,117.856 95.786,118.033 95.563,118.166C95.34,118.3 95.068,118.366 94.748,118.366C94.428,118.366 94.156,118.3 93.933,118.166C93.71,118.033 93.538,117.856 93.418,117.636C93.345,117.503 93.295,117.35 93.268,117.176C93.241,117.003 93.228,116.813 93.228,116.606L93.228,114.936ZM94.248,116.766C94.248,116.96 94.293,117.105 94.383,117.201C94.473,117.298 94.595,117.346 94.748,117.346C94.901,117.346 95.023,117.298 95.113,117.201C95.203,117.105 95.248,116.96 95.248,116.766L95.248,114.776C95.248,114.583 95.203,114.438 95.113,114.341C95.023,114.245 94.901,114.196 94.748,114.196C94.595,114.196 94.473,114.245 94.383,114.341C94.293,114.438 94.248,114.583 94.248,114.776L94.248,116.766Z" style="fill-rule:nonzero;"/>
            <path d="M97.018,118.306L97.018,113.236L98.038,113.236L98.038,113.726L98.058,113.726C98.165,113.566 98.293,113.435 98.443,113.331C98.593,113.228 98.785,113.176 99.018,113.176C99.145,113.176 99.271,113.198 99.398,113.241C99.525,113.285 99.638,113.356 99.738,113.456C99.838,113.556 99.918,113.685 99.978,113.841C100.038,113.998 100.068,114.19 100.068,114.416L100.068,118.306L99.048,118.306L99.048,114.796C99.048,114.61 99.005,114.463 98.918,114.356C98.831,114.25 98.708,114.196 98.548,114.196C98.355,114.196 98.221,114.256 98.148,114.376C98.075,114.496 98.038,114.67 98.038,114.896L98.038,118.306L97.018,118.306Z" style="fill-rule:nonzero;"/>
            <path d="M100.908,118.306L100.908,113.236L101.928,113.236L101.928,113.726L101.948,113.726C102.055,113.566 102.183,113.435 102.333,113.331C102.483,113.228 102.675,113.176 102.908,113.176C103.035,113.176 103.161,113.198 103.288,113.241C103.415,113.285 103.528,113.356 103.628,113.456C103.728,113.556 103.808,113.685 103.868,113.841C103.928,113.998 103.958,114.19 103.958,114.416L103.958,118.306L102.938,118.306L102.938,114.796C102.938,114.61 102.895,114.463 102.808,114.356C102.721,114.25 102.598,114.196 102.438,114.196C102.245,114.196 102.111,114.256 102.038,114.376C101.965,114.496 101.928,114.67 101.928,114.896L101.928,118.306L100.908,118.306Z" style="fill-rule:nonzero;"/>
            <path d="M107.748,116.156L105.728,116.156L105.728,116.846C105.728,117.006 105.773,117.13 105.863,117.216C105.953,117.303 106.075,117.346 106.228,117.346C106.421,117.346 106.55,117.29 106.613,117.176C106.676,117.063 106.715,116.95 106.728,116.836L107.748,116.836C107.748,117.283 107.611,117.643 107.338,117.916C107.205,118.056 107.045,118.166 106.858,118.246C106.671,118.326 106.461,118.366 106.228,118.366C105.908,118.366 105.636,118.3 105.413,118.166C105.19,118.033 105.018,117.856 104.898,117.636C104.825,117.503 104.775,117.35 104.748,117.176C104.721,117.003 104.708,116.813 104.708,116.606L104.708,114.936C104.708,114.73 104.721,114.54 104.748,114.366C104.775,114.193 104.825,114.04 104.898,113.906C105.018,113.686 105.19,113.51 105.413,113.376C105.636,113.243 105.908,113.176 106.228,113.176C106.461,113.176 106.673,113.216 106.863,113.296C107.053,113.376 107.215,113.486 107.348,113.626C107.615,113.926 107.748,114.303 107.748,114.756L107.748,116.156ZM105.728,115.356L106.728,115.356L106.728,114.776C106.728,114.583 106.683,114.438 106.593,114.341C106.503,114.245 106.381,114.196 106.228,114.196C106.075,114.196 105.953,114.245 105.863,114.341C105.773,114.438 105.728,114.583 105.728,114.776L105.728,115.356Z" style="fill-rule:nonzero;"/>
            <path d="M109.578,116.846C109.578,117.006 109.623,117.13 109.713,117.216C109.803,117.303 109.925,117.346 110.078,117.346C110.271,117.346 110.4,117.29 110.463,117.176C110.526,117.063 110.565,116.95 110.578,116.836L111.598,116.836C111.598,117.283 111.461,117.643 111.188,117.916C111.055,118.056 110.895,118.166 110.708,118.246C110.521,118.326 110.311,118.366 110.078,118.366C109.758,118.366 109.486,118.3 109.263,118.166C109.04,118.033 108.868,117.856 108.748,117.636C108.675,117.503 108.625,117.35 108.598,117.176C108.571,117.003 108.558,116.813 108.558,116.606L108.558,114.936C108.558,114.73 108.571,114.54 108.598,114.366C108.625,114.193 108.675,114.04 108.748,113.906C108.868,113.686 109.04,113.51 109.263,113.376C109.486,113.243 109.758,113.176 110.078,113.176C110.311,113.176 110.523,113.216 110.713,113.296C110.903,113.376 111.065,113.486 111.198,113.626C111.465,113.926 111.598,114.316 111.598,114.796L110.578,114.796C110.578,114.59 110.533,114.438 110.443,114.341C110.353,114.245 110.231,114.196 110.078,114.196C109.925,114.196 109.803,114.245 109.713,114.341C109.623,114.438 109.578,114.583 109.578,114.776L109.578,116.846Z" style="fill-rule:nonzero;"/>
            <path d="M112.198,113.236L112.198,111.696L113.218,111.696L113.218,113.236L113.848,113.236L113.848,114.036L113.218,114.036L113.218,116.846C113.218,116.966 113.23,117.06 113.253,117.126C113.276,117.193 113.315,117.243 113.368,117.276C113.421,117.31 113.486,117.33 113.563,117.336C113.64,117.343 113.735,117.346 113.848,117.346L113.848,118.306L113.428,118.306C113.195,118.306 113,118.27 112.843,118.196C112.686,118.123 112.561,118.03 112.468,117.916C112.375,117.803 112.306,117.675 112.263,117.531C112.22,117.388 112.198,117.25 112.198,117.116L112.198,114.036L111.688,114.036L111.688,113.236L112.198,113.236Z" style="fill-rule:nonzero;"/>
        </g>
        <g transform="matrix(1,0,0,1,83.3642,161.088)">
            <text x="89.198px" y="118.306px" style="font-family:'DINCondensed-Bold', 'DIN Condensed';font-weight:700;font-stretch:condensed;font-size:10px;">connect</text>
        </g>
    </g>
    <g>
        <g id="Half-switch" serif:id="Half#switch" transform="matrix(1,0,0,0.7555,-36.2668,206.351)">
            <rect x="68.086" y="48.482" width="11.914" height="25.893" style="fill:rgb(204,51,51);"/>
        </g>
        <g transform="matrix(1,0,0,1,-86.3011,144.175)">
            <path d="M102.568,118.306L102.568,111.186L103.588,111.186L103.588,113.726L103.608,113.726C103.715,113.566 103.843,113.435 103.993,113.331C104.143,113.228 104.335,113.176 104.568,113.176C104.695,113.176 104.821,113.198 104.948,113.241C105.075,113.285 105.188,113.356 105.288,113.456C105.388,113.556 105.468,113.685 105.528,113.841C105.588,113.998 105.618,114.19 105.618,114.416L105.618,118.306L104.598,118.306L104.598,114.796C104.598,114.61 104.555,114.463 104.468,114.356C104.381,114.25 104.258,114.196 104.098,114.196C103.905,114.196 103.771,114.256 103.698,114.376C103.625,114.496 103.588,114.67 103.588,114.896L103.588,118.306L102.568,118.306Z" style="fill-rule:nonzero;"/>
            <path d="M108.388,118.306L108.388,117.786L108.368,117.786C108.235,117.973 108.1,118.116 107.963,118.216C107.826,118.316 107.635,118.366 107.388,118.366C107.268,118.366 107.146,118.348 107.023,118.311C106.9,118.275 106.781,118.206 106.668,118.106C106.555,118.013 106.463,117.878 106.393,117.701C106.323,117.525 106.288,117.296 106.288,117.016C106.288,116.73 106.311,116.478 106.358,116.261C106.405,116.045 106.491,115.863 106.618,115.716C106.738,115.576 106.901,115.471 107.108,115.401C107.315,115.331 107.578,115.296 107.898,115.296L108.008,115.296C108.048,115.296 108.085,115.3 108.118,115.306C108.151,115.313 108.191,115.316 108.238,115.316C108.285,115.316 108.335,115.32 108.388,115.326L108.388,114.796C108.388,114.623 108.351,114.48 108.278,114.366C108.205,114.253 108.071,114.196 107.878,114.196C107.745,114.196 107.623,114.24 107.513,114.326C107.403,114.413 107.331,114.54 107.298,114.706L106.308,114.706C106.335,114.253 106.488,113.886 106.768,113.606C106.901,113.473 107.061,113.368 107.248,113.291C107.435,113.215 107.645,113.176 107.878,113.176C108.091,113.176 108.291,113.21 108.478,113.276C108.665,113.343 108.828,113.443 108.968,113.576C109.101,113.71 109.208,113.876 109.288,114.076C109.368,114.276 109.408,114.51 109.408,114.776L109.408,118.306L108.388,118.306ZM108.388,116.126C108.275,116.106 108.181,116.096 108.108,116.096C107.888,116.096 107.7,116.148 107.543,116.251C107.386,116.355 107.308,116.543 107.308,116.816C107.308,117.01 107.355,117.166 107.448,117.286C107.541,117.406 107.671,117.466 107.838,117.466C108.011,117.466 108.146,117.41 108.243,117.296C108.34,117.183 108.388,117.023 108.388,116.816L108.388,116.126Z" style="fill-rule:nonzero;"/>
            <path d="M110.098,111.186L111.118,111.186L111.118,116.876C111.118,117.07 111.153,117.201 111.223,117.271C111.293,117.341 111.425,117.386 111.618,117.406L111.618,118.366C111.385,118.366 111.175,118.348 110.988,118.311C110.801,118.275 110.641,118.203 110.508,118.096C110.375,117.996 110.273,117.855 110.203,117.671C110.133,117.488 110.098,117.246 110.098,116.946L110.098,111.186Z" style="fill-rule:nonzero;"/>
            <path d="M112.148,118.306L112.148,114.036L111.648,114.036L111.648,113.236L112.148,113.236L112.148,112.546C112.148,112.3 112.185,112.091 112.258,111.921C112.331,111.751 112.431,111.61 112.558,111.496C112.678,111.383 112.816,111.303 112.973,111.256C113.13,111.21 113.291,111.186 113.458,111.186L113.928,111.186L113.928,112.146L113.468,112.146C113.268,112.146 113.168,112.263 113.168,112.496L113.168,113.236L113.928,113.236L113.928,114.036L113.168,114.036L113.168,118.306L112.148,118.306Z" style="fill-rule:nonzero;"/>
        </g>
        <g transform="matrix(1,0,0,1,-86.3011,144.175)">
            <text x="102.148px" y="118.306px" style="font-family:'DINCondensed-Bold', 'DIN Condensed';font-weight:700;font-stretch:condensed;font-size:10px;">half</text>
        </g>
        <g transform="matrix(1,0,0,1,-86.3011,131.283)">
            <path d="M104.538,118.306L104.538,114.036L104.038,114.036L104.038,113.236L104.538,113.236L104.538,112.546C104.538,112.3 104.575,112.091 104.648,111.921C104.721,111.751 104.821,111.61 104.948,111.496C105.068,111.383 105.206,111.303 105.363,111.256C105.52,111.21 105.681,111.186 105.848,111.186L106.318,111.186L106.318,112.146L105.858,112.146C105.658,112.146 105.558,112.263 105.558,112.496L105.558,113.236L106.318,113.236L106.318,114.036L105.558,114.036L105.558,118.306L104.538,118.306Z" style="fill-rule:nonzero;"/>
            <path d="M109.678,113.236L109.678,118.306L108.658,118.306L108.658,117.816L108.638,117.816C108.531,117.976 108.403,118.108 108.253,118.211C108.103,118.315 107.911,118.366 107.678,118.366C107.551,118.366 107.425,118.345 107.298,118.301C107.171,118.258 107.058,118.186 106.958,118.086C106.858,117.986 106.778,117.858 106.718,117.701C106.658,117.545 106.628,117.353 106.628,117.126L106.628,113.236L107.648,113.236L107.648,116.746C107.648,116.933 107.691,117.08 107.778,117.186C107.865,117.293 107.988,117.346 108.148,117.346C108.341,117.346 108.475,117.286 108.548,117.166C108.621,117.046 108.658,116.873 108.658,116.646L108.658,113.236L109.678,113.236Z" style="fill-rule:nonzero;"/>
            <path d="M110.458,111.186L111.478,111.186L111.478,116.876C111.478,117.07 111.513,117.201 111.583,117.271C111.653,117.341 111.785,117.386 111.978,117.406L111.978,118.366C111.745,118.366 111.535,118.348 111.348,118.311C111.161,118.275 111.001,118.203 110.868,118.096C110.735,117.996 110.633,117.855 110.563,117.671C110.493,117.488 110.458,117.246 110.458,116.946L110.458,111.186Z" style="fill-rule:nonzero;"/>
            <path d="M112.318,111.186L113.338,111.186L113.338,116.876C113.338,117.07 113.373,117.201 113.443,117.271C113.513,117.341 113.645,117.386 113.838,117.406L113.838,118.366C113.605,118.366 113.395,118.348 113.208,118.311C113.021,118.275 112.861,118.203 112.728,118.096C112.595,117.996 112.493,117.855 112.423,117.671C112.353,117.488 112.318,117.246 112.318,116.946L112.318,111.186Z" style="fill-rule:nonzero;"/>
        </g>
        <g transform="matrix(1,0,0,1,-86.3011,131.283)">
            <text x="103.988px" y="118.306px" style="font-family:'DINCondensed-Bold', 'DIN Condensed';font-weight:700;font-stretch:condensed;font-size:10px;">full</text>
        </g>
        <g transform="matrix(1,0,0,1,-69.2929,114.663)">
            <path d="M91.818,113.236L90.498,118.306L89.598,118.306L88.278,113.236L89.358,113.236L90.038,116.476L90.058,116.476L90.738,113.236L91.818,113.236Z" style="fill-rule:nonzero;"/>
            <path d="M92.078,114.936C92.078,114.73 92.091,114.54 92.118,114.366C92.145,114.193 92.195,114.04 92.268,113.906C92.388,113.686 92.56,113.51 92.783,113.376C93.006,113.243 93.278,113.176 93.598,113.176C93.918,113.176 94.19,113.243 94.413,113.376C94.636,113.51 94.808,113.686 94.928,113.906C95.001,114.04 95.051,114.193 95.078,114.366C95.105,114.54 95.118,114.73 95.118,114.936L95.118,116.606C95.118,116.813 95.105,117.003 95.078,117.176C95.051,117.35 95.001,117.503 94.928,117.636C94.808,117.856 94.636,118.033 94.413,118.166C94.19,118.3 93.918,118.366 93.598,118.366C93.278,118.366 93.006,118.3 92.783,118.166C92.56,118.033 92.388,117.856 92.268,117.636C92.195,117.503 92.145,117.35 92.118,117.176C92.091,117.003 92.078,116.813 92.078,116.606L92.078,114.936ZM93.098,116.766C93.098,116.96 93.143,117.105 93.233,117.201C93.323,117.298 93.445,117.346 93.598,117.346C93.751,117.346 93.873,117.298 93.963,117.201C94.053,117.105 94.098,116.96 94.098,116.766L94.098,114.776C94.098,114.583 94.053,114.438 93.963,114.341C93.873,114.245 93.751,114.196 93.598,114.196C93.445,114.196 93.323,114.245 93.233,114.341C93.143,114.438 93.098,114.583 93.098,114.776L93.098,116.766Z" style="fill-rule:nonzero;"/>
            <path d="M95.808,111.186L96.828,111.186L96.828,116.876C96.828,117.07 96.863,117.201 96.933,117.271C97.003,117.341 97.135,117.386 97.328,117.406L97.328,118.366C97.095,118.366 96.885,118.348 96.698,118.311C96.511,118.275 96.351,118.203 96.218,118.096C96.085,117.996 95.983,117.855 95.913,117.671C95.843,117.488 95.808,117.246 95.808,116.946L95.808,111.186Z" style="fill-rule:nonzero;"/>
            <path d="M97.728,113.236L97.728,111.696L98.748,111.696L98.748,113.236L99.378,113.236L99.378,114.036L98.748,114.036L98.748,116.846C98.748,116.966 98.76,117.06 98.783,117.126C98.806,117.193 98.845,117.243 98.898,117.276C98.951,117.31 99.016,117.33 99.093,117.336C99.17,117.343 99.265,117.346 99.378,117.346L99.378,118.306L98.958,118.306C98.725,118.306 98.53,118.27 98.373,118.196C98.216,118.123 98.091,118.03 97.998,117.916C97.905,117.803 97.836,117.675 97.793,117.531C97.75,117.388 97.728,117.25 97.728,117.116L97.728,114.036L97.218,114.036L97.218,113.236L97.728,113.236Z" style="fill-rule:nonzero;"/>
            <path d="M101.698,118.306L101.698,117.786L101.678,117.786C101.545,117.973 101.41,118.116 101.273,118.216C101.136,118.316 100.945,118.366 100.698,118.366C100.578,118.366 100.456,118.348 100.333,118.311C100.21,118.275 100.091,118.206 99.978,118.106C99.865,118.013 99.773,117.878 99.703,117.701C99.633,117.525 99.598,117.296 99.598,117.016C99.598,116.73 99.621,116.478 99.668,116.261C99.715,116.045 99.801,115.863 99.928,115.716C100.048,115.576 100.211,115.471 100.418,115.401C100.625,115.331 100.888,115.296 101.208,115.296L101.318,115.296C101.358,115.296 101.395,115.3 101.428,115.306C101.461,115.313 101.501,115.316 101.548,115.316C101.595,115.316 101.645,115.32 101.698,115.326L101.698,114.796C101.698,114.623 101.661,114.48 101.588,114.366C101.515,114.253 101.381,114.196 101.188,114.196C101.055,114.196 100.933,114.24 100.823,114.326C100.713,114.413 100.641,114.54 100.608,114.706L99.618,114.706C99.645,114.253 99.798,113.886 100.078,113.606C100.211,113.473 100.371,113.368 100.558,113.291C100.745,113.215 100.955,113.176 101.188,113.176C101.401,113.176 101.601,113.21 101.788,113.276C101.975,113.343 102.138,113.443 102.278,113.576C102.411,113.71 102.518,113.876 102.598,114.076C102.678,114.276 102.718,114.51 102.718,114.776L102.718,118.306L101.698,118.306ZM101.698,116.126C101.585,116.106 101.491,116.096 101.418,116.096C101.198,116.096 101.01,116.148 100.853,116.251C100.696,116.355 100.618,116.543 100.618,116.816C100.618,117.01 100.665,117.166 100.758,117.286C100.851,117.406 100.981,117.466 101.148,117.466C101.321,117.466 101.456,117.41 101.553,117.296C101.65,117.183 101.698,117.023 101.698,116.816L101.698,116.126Z" style="fill-rule:nonzero;"/>
            <path d="M104.488,118.896C104.495,119.016 104.543,119.13 104.633,119.236C104.723,119.343 104.855,119.396 105.028,119.396C105.195,119.396 105.315,119.345 105.388,119.241C105.461,119.138 105.498,119.006 105.498,118.846L105.498,117.846L105.478,117.846C105.365,118.013 105.23,118.141 105.073,118.231C104.916,118.321 104.735,118.366 104.528,118.366C104.101,118.366 103.805,118.206 103.638,117.886C103.578,117.773 103.535,117.633 103.508,117.466C103.481,117.3 103.468,117.076 103.468,116.796L103.468,114.866C103.468,114.5 103.478,114.23 103.498,114.056C103.538,113.723 103.695,113.473 103.968,113.306C104.095,113.22 104.285,113.176 104.538,113.176C104.665,113.176 104.773,113.19 104.863,113.216C104.953,113.243 105.035,113.28 105.108,113.326C105.181,113.373 105.248,113.428 105.308,113.491C105.368,113.555 105.431,113.623 105.498,113.696L105.498,113.236L106.518,113.236L106.518,118.926C106.518,119.1 106.49,119.275 106.433,119.451C106.376,119.628 106.285,119.786 106.158,119.926C106.031,120.073 105.871,120.191 105.678,120.281C105.485,120.371 105.255,120.416 104.988,120.416C104.835,120.416 104.675,120.391 104.508,120.341C104.341,120.291 104.188,120.206 104.048,120.086C103.901,119.973 103.776,119.821 103.673,119.631C103.57,119.441 103.501,119.196 103.468,118.896L104.488,118.896ZM104.488,116.746C104.488,116.906 104.523,117.046 104.593,117.166C104.663,117.286 104.795,117.346 104.988,117.346C105.135,117.346 105.256,117.295 105.353,117.191C105.45,117.088 105.498,116.956 105.498,116.796L105.498,114.826C105.498,114.64 105.451,114.488 105.358,114.371C105.265,114.255 105.141,114.196 104.988,114.196C104.815,114.196 104.688,114.26 104.608,114.386C104.528,114.513 104.488,114.68 104.488,114.886L104.488,116.746Z" style="fill-rule:nonzero;"/>
            <path d="M110.308,116.156L108.288,116.156L108.288,116.846C108.288,117.006 108.333,117.13 108.423,117.216C108.513,117.303 108.635,117.346 108.788,117.346C108.981,117.346 109.11,117.29 109.173,117.176C109.236,117.063 109.275,116.95 109.288,116.836L110.308,116.836C110.308,117.283 110.171,117.643 109.898,117.916C109.765,118.056 109.605,118.166 109.418,118.246C109.231,118.326 109.021,118.366 108.788,118.366C108.468,118.366 108.196,118.3 107.973,118.166C107.75,118.033 107.578,117.856 107.458,117.636C107.385,117.503 107.335,117.35 107.308,117.176C107.281,117.003 107.268,116.813 107.268,116.606L107.268,114.936C107.268,114.73 107.281,114.54 107.308,114.366C107.335,114.193 107.385,114.04 107.458,113.906C107.578,113.686 107.75,113.51 107.973,113.376C108.196,113.243 108.468,113.176 108.788,113.176C109.021,113.176 109.233,113.216 109.423,113.296C109.613,113.376 109.775,113.486 109.908,113.626C110.175,113.926 110.308,114.303 110.308,114.756L110.308,116.156ZM108.288,115.356L109.288,115.356L109.288,114.776C109.288,114.583 109.243,114.438 109.153,114.341C109.063,114.245 108.941,114.196 108.788,114.196C108.635,114.196 108.513,114.245 108.423,114.341C108.333,114.438 108.288,114.583 108.288,114.776L108.288,115.356Z" style="fill-rule:nonzero;"/>
        </g>
        <g transform="matrix(1,0,0,1,-69.2929,114.663)">
            <text x="88.288px" y="118.306px" style="font-family:'DINCondensed-Bold', 'DIN Condensed';font-weight:700;font-stretch:condensed;font-size:10px;">voltage</text>
        </g>
    </g>
    <g transform="matrix(1,0,0,1,1.06581e-14,44.9005)">
        <g id="Voltages-input-P" serif:id="Voltages#input$P" transform="matrix(0.175002,0,0,0.175002,6.38717,70.5489)">
            <rect x="53.94" y="106.916" width="161.978" height="161.978" style="fill:rgb(204,204,204);"/>
        </g>
        <g transform="matrix(1,0,0,1,-68.6779,-49.3799)">
            <path d="M91.218,118.306L91.218,113.236L92.238,113.236L92.238,118.306L91.218,118.306ZM91.218,112.206L91.218,111.186L92.238,111.186L92.238,112.206L91.218,112.206Z" style="fill-rule:nonzero;"/>
            <path d="M93.078,118.306L93.078,113.236L94.098,113.236L94.098,113.726L94.118,113.726C94.225,113.566 94.353,113.435 94.503,113.331C94.653,113.228 94.845,113.176 95.078,113.176C95.205,113.176 95.331,113.198 95.458,113.241C95.585,113.285 95.698,113.356 95.798,113.456C95.898,113.556 95.978,113.685 96.038,113.841C96.098,113.998 96.128,114.19 96.128,114.416L96.128,118.306L95.108,118.306L95.108,114.796C95.108,114.61 95.065,114.463 94.978,114.356C94.891,114.25 94.768,114.196 94.608,114.196C94.415,114.196 94.281,114.256 94.208,114.376C94.135,114.496 94.098,114.67 94.098,114.896L94.098,118.306L93.078,118.306Z" style="fill-rule:nonzero;"/>
            <path d="M96.968,120.356L96.968,113.236L97.988,113.236L97.988,113.696C98.115,113.55 98.245,113.426 98.378,113.326C98.511,113.226 98.705,113.176 98.958,113.176C99.378,113.176 99.675,113.336 99.848,113.656C99.908,113.77 99.951,113.91 99.978,114.076C100.005,114.243 100.018,114.466 100.018,114.746L100.018,116.676C100.018,117.05 100.008,117.32 99.988,117.486C99.948,117.82 99.795,118.07 99.528,118.236C99.395,118.323 99.201,118.366 98.948,118.366C98.748,118.366 98.57,118.321 98.413,118.231C98.256,118.141 98.121,118.013 98.008,117.846L97.988,117.846L97.988,120.356L96.968,120.356ZM98.998,114.886C98.998,114.68 98.958,114.513 98.878,114.386C98.798,114.26 98.671,114.196 98.498,114.196C98.345,114.196 98.221,114.255 98.128,114.371C98.035,114.488 97.988,114.64 97.988,114.826L97.988,116.796C97.988,116.956 98.036,117.088 98.133,117.191C98.23,117.295 98.351,117.346 98.498,117.346C98.691,117.346 98.823,117.286 98.893,117.166C98.963,117.046 98.998,116.906 98.998,116.746L98.998,114.886Z" style="fill-rule:nonzero;"/>
            <path d="M103.908,113.236L103.908,118.306L102.888,118.306L102.888,117.816L102.868,117.816C102.761,117.976 102.633,118.108 102.483,118.211C102.333,118.315 102.141,118.366 101.908,118.366C101.781,118.366 101.655,118.345 101.528,118.301C101.401,118.258 101.288,118.186 101.188,118.086C101.088,117.986 101.008,117.858 100.948,117.701C100.888,117.545 100.858,117.353 100.858,117.126L100.858,113.236L101.878,113.236L101.878,116.746C101.878,116.933 101.921,117.08 102.008,117.186C102.095,117.293 102.218,117.346 102.378,117.346C102.571,117.346 102.705,117.286 102.778,117.166C102.851,117.046 102.888,116.873 102.888,116.646L102.888,113.236L103.908,113.236Z" style="fill-rule:nonzero;"/>
            <path d="M104.748,113.236L104.748,111.696L105.768,111.696L105.768,113.236L106.398,113.236L106.398,114.036L105.768,114.036L105.768,116.846C105.768,116.966 105.78,117.06 105.803,117.126C105.826,117.193 105.865,117.243 105.918,117.276C105.971,117.31 106.036,117.33 106.113,117.336C106.19,117.343 106.285,117.346 106.398,117.346L106.398,118.306L105.978,118.306C105.745,118.306 105.55,118.27 105.393,118.196C105.236,118.123 105.111,118.03 105.018,117.916C104.925,117.803 104.856,117.675 104.813,117.531C104.77,117.388 104.748,117.25 104.748,117.116L104.748,114.036L104.238,114.036L104.238,113.236L104.748,113.236Z" style="fill-rule:nonzero;"/>
            <path d="M90.748,130.306L90.748,124.266L89.728,125.016L89.728,123.936L90.748,123.186L91.768,123.186L91.768,130.306L90.748,130.306Z" style="fill-rule:nonzero;"/>
            <rect x="95.218" y="127.026" width="3.01" height="1.02" style="fill-rule:nonzero;"/>
            <path d="M102.078,130.306L102.078,124.266L101.058,125.016L101.058,123.936L102.078,123.186L103.098,123.186L103.098,130.306L102.078,130.306Z" style="fill-rule:nonzero;"/>
            <path d="M107.258,123.186L106.098,126.176L106.118,126.196C106.151,126.17 106.203,126.148 106.273,126.131C106.343,126.115 106.435,126.106 106.548,126.106C106.728,126.106 106.895,126.15 107.048,126.236C107.201,126.323 107.321,126.433 107.408,126.566C107.455,126.64 107.491,126.713 107.518,126.786C107.545,126.86 107.568,126.956 107.588,127.076C107.601,127.196 107.611,127.348 107.618,127.531C107.625,127.715 107.628,127.946 107.628,128.226C107.628,128.46 107.625,128.651 107.618,128.801C107.611,128.951 107.601,129.076 107.588,129.176C107.568,129.283 107.543,129.373 107.513,129.446C107.483,129.52 107.445,129.596 107.398,129.676C107.265,129.896 107.086,130.066 106.863,130.186C106.64,130.306 106.388,130.366 106.108,130.366C105.828,130.366 105.578,130.305 105.358,130.181C105.138,130.058 104.961,129.89 104.828,129.676C104.775,129.596 104.733,129.52 104.703,129.446C104.673,129.373 104.651,129.283 104.638,129.176C104.618,129.076 104.605,128.951 104.598,128.801C104.591,128.651 104.588,128.46 104.588,128.226C104.588,128.006 104.591,127.825 104.598,127.681C104.605,127.538 104.615,127.413 104.628,127.306C104.641,127.206 104.661,127.115 104.688,127.031C104.715,126.948 104.745,126.86 104.778,126.766L106.118,123.186L107.258,123.186ZM106.608,127.516C106.608,127.363 106.558,127.24 106.458,127.146C106.358,127.053 106.241,127.006 106.108,127.006C105.975,127.006 105.858,127.053 105.758,127.146C105.658,127.24 105.608,127.363 105.608,127.516L105.608,128.836C105.608,128.99 105.658,129.113 105.758,129.206C105.858,129.3 105.975,129.346 106.108,129.346C106.241,129.346 106.358,129.3 106.458,129.206C106.558,129.113 106.608,128.99 106.608,128.836L106.608,127.516Z" style="fill-rule:nonzero;"/>
        </g>
        <g transform="matrix(1,0,0,1,-68.6779,-49.3799)">
            <text x="90.798px" y="118.306px" style="font-family:'DINCondensed-Bold', 'DIN Condensed';font-weight:700;font-stretch:condensed;font-size:10px;">input</text>
            <text x="89.198px" y="130.306px" style="font-family:'DINCondensed-Bold', 'DIN Condensed';font-weight:700;font-stretch:condensed;font-size:10px;">1 - 16</text>
        </g>
    </g>
    <g transform="matrix(0.816456,0,0,0.816456,9.52626,-234.48)">
        <g transform="matrix(1,0,0,1,-81.4637,-18.7119)">
            <path d="M92.085,352.16C91.948,352.13 91.796,352.106 91.629,352.086C91.463,352.067 91.286,352.052 91.1,352.042C90.914,352.032 90.73,352.025 90.549,352.02C90.368,352.015 90.199,352.013 90.042,352.013L89.586,352.013C89.518,352.013 89.459,352.018 89.41,352.027C89.361,352.037 89.336,352.052 89.336,352.071C89.336,352.326 89.339,352.623 89.344,352.961C89.349,353.299 89.358,353.637 89.373,353.975C89.388,354.313 89.405,354.624 89.425,354.908C89.444,355.192 89.474,355.398 89.513,355.525C89.532,355.604 89.616,355.66 89.763,355.694C89.91,355.729 90.076,355.746 90.262,355.746C90.341,355.746 90.422,355.743 90.505,355.739C90.588,355.734 90.684,355.731 90.792,355.731C90.899,355.731 90.983,355.756 91.041,355.805C91.1,355.854 91.13,355.912 91.13,355.981C91.13,356.059 91.122,356.128 91.108,356.187C91.093,356.246 90.987,356.275 90.792,356.275C90.713,356.275 90.588,356.27 90.417,356.26C90.245,356.25 90.059,356.241 89.858,356.231C89.657,356.221 89.449,356.221 89.234,356.231C89.018,356.241 88.827,356.26 88.66,356.29C88.268,356.368 87.901,356.459 87.558,356.562C87.215,356.664 86.906,356.77 86.632,356.878C86.358,356.985 86.127,357.091 85.941,357.194C85.755,357.296 85.623,357.392 85.544,357.48C85.505,357.529 85.476,357.554 85.456,357.554L85.383,357.554C85.363,357.554 85.314,357.527 85.236,357.473C85.157,357.419 85.118,357.348 85.118,357.26C85.118,357.211 85.199,357.14 85.361,357.047C85.522,356.954 85.716,356.856 85.941,356.753C86.167,356.65 86.402,356.552 86.647,356.459C86.892,356.366 87.102,356.295 87.279,356.246C87.328,356.177 87.369,355.983 87.404,355.665C87.438,355.347 87.467,354.881 87.492,354.269C87.516,353.656 87.536,352.89 87.551,351.969C87.565,351.048 87.578,349.945 87.587,348.662C87.587,348.309 87.583,347.949 87.573,347.581C87.563,347.214 87.548,346.871 87.529,346.552C87.509,346.234 87.48,345.957 87.44,345.722C87.401,345.487 87.352,345.32 87.293,345.222C87.244,345.154 87.154,345.107 87.022,345.083C86.889,345.058 86.735,345.046 86.559,345.046L85.802,345.046C85.738,345.046 85.672,345.039 85.603,345.024C85.535,345.009 85.478,344.987 85.434,344.958C85.39,344.928 85.368,344.889 85.368,344.84C85.368,344.732 85.383,344.656 85.412,344.612C85.442,344.568 85.574,344.546 85.809,344.546C85.907,344.546 86.029,344.551 86.176,344.561C86.323,344.571 86.473,344.578 86.625,344.583C86.777,344.588 86.928,344.595 87.08,344.605C87.232,344.615 87.367,344.62 87.485,344.62C87.798,344.62 88.188,344.59 88.653,344.532C89.118,344.473 89.596,344.434 90.086,344.414C90.449,344.404 90.818,344.397 91.196,344.392C91.573,344.387 91.926,344.382 92.254,344.377C92.582,344.372 92.866,344.367 93.106,344.363C93.346,344.358 93.511,344.345 93.599,344.326C93.687,344.051 93.785,343.814 93.893,343.613C94.001,343.412 94.113,343.307 94.231,343.297C94.28,343.297 94.346,343.314 94.429,343.348C94.512,343.383 94.554,343.429 94.554,343.488C94.525,343.517 94.5,343.547 94.481,343.576C94.441,343.635 94.422,343.679 94.422,343.708C94.304,343.914 94.199,344.179 94.106,344.502C94.013,344.826 93.934,345.159 93.871,345.502C93.807,345.845 93.76,346.178 93.731,346.501C93.702,346.824 93.702,347.094 93.731,347.309C93.702,347.456 93.643,347.53 93.555,347.53C93.398,347.53 93.302,347.503 93.268,347.449C93.234,347.395 93.226,347.339 93.246,347.28C93.266,347.202 93.28,347.101 93.29,346.979C93.3,346.856 93.305,346.756 93.305,346.677C93.305,346.442 93.226,346.239 93.07,346.067C92.913,345.896 92.702,345.754 92.438,345.641C92.173,345.529 91.862,345.443 91.504,345.384C91.147,345.325 90.767,345.296 90.365,345.296C90.258,345.296 90.113,345.298 89.932,345.303C89.75,345.308 89.616,345.35 89.528,345.428C89.508,345.507 89.488,345.673 89.469,345.928C89.449,346.183 89.432,346.484 89.417,346.832C89.403,347.18 89.39,347.552 89.381,347.949C89.371,348.346 89.363,348.73 89.358,349.103C89.354,349.475 89.349,349.813 89.344,350.117C89.339,350.42 89.336,350.646 89.336,350.793C89.532,350.803 89.721,350.807 89.902,350.807L90.439,350.807C91.027,350.817 91.544,350.805 91.989,350.771C92.435,350.736 92.732,350.695 92.879,350.646C92.967,350.616 93.038,350.575 93.092,350.521C93.146,350.467 93.19,350.411 93.224,350.352C93.258,350.293 93.293,350.242 93.327,350.198C93.361,350.153 93.398,350.131 93.437,350.131C93.486,350.131 93.535,350.156 93.584,350.205C93.633,350.254 93.648,350.298 93.628,350.337C93.569,350.445 93.515,350.594 93.466,350.785C93.417,350.976 93.376,351.187 93.342,351.417C93.307,351.648 93.278,351.885 93.253,352.13C93.229,352.375 93.217,352.605 93.217,352.821C93.217,352.86 93.219,352.899 93.224,352.939C93.229,352.978 93.231,353.022 93.231,353.071C93.231,353.1 93.209,353.122 93.165,353.137C93.121,353.152 93.077,353.159 93.033,353.159C92.989,353.159 92.947,353.154 92.908,353.144C92.869,353.135 92.849,353.115 92.849,353.086C92.849,353.027 92.844,352.956 92.834,352.872C92.825,352.789 92.803,352.708 92.768,352.63C92.734,352.552 92.68,352.476 92.607,352.402C92.533,352.329 92.433,352.267 92.305,352.218L92.085,352.16Z" style="fill-rule:nonzero;"/>
            <path d="M99.698,353.6C99.757,353.639 99.786,353.688 99.786,353.747C99.786,353.825 99.674,353.928 99.448,354.056C99.213,354.193 98.902,354.355 98.515,354.541C98.128,354.727 97.744,354.889 97.361,355.026C97.175,355.094 97.009,355.153 96.862,355.202C96.715,355.251 96.582,355.276 96.465,355.276C96.328,355.276 96.159,355.244 95.958,355.18C95.757,355.116 95.583,355.04 95.436,354.952C95.318,354.874 95.225,354.813 95.157,354.768C95.088,354.724 95.054,354.678 95.054,354.629C95.054,354.59 95.066,354.553 95.091,354.519C95.115,354.484 95.137,354.443 95.157,354.394C95.167,354.364 95.176,354.325 95.186,354.276C95.196,354.227 95.201,354.178 95.201,354.129C95.23,353.884 95.262,353.529 95.296,353.064C95.331,352.598 95.358,352.084 95.377,351.52C95.397,350.957 95.414,350.374 95.429,349.771C95.443,349.169 95.451,348.608 95.451,348.088C95.451,347.451 95.448,346.937 95.443,346.545C95.438,346.153 95.426,345.84 95.407,345.604C95.377,345.281 95.338,345.068 95.289,344.965C95.24,344.862 95.186,344.786 95.127,344.737C95.059,344.679 94.993,344.642 94.929,344.627C94.865,344.612 94.806,344.603 94.753,344.598C94.699,344.593 94.655,344.59 94.62,344.59C94.586,344.59 94.569,344.581 94.569,344.561C94.569,344.238 94.706,344.076 94.98,344.076C95.186,344.076 95.429,344.078 95.708,344.083C95.987,344.088 96.22,344.091 96.406,344.091C96.524,344.091 96.649,344.083 96.781,344.069C96.913,344.054 97.043,344.039 97.17,344.024C97.298,344.01 97.415,343.993 97.523,343.973C97.631,343.953 97.709,343.934 97.758,343.914C97.797,343.904 97.829,343.919 97.854,343.958C97.878,343.998 97.893,344.047 97.898,344.105C97.903,344.164 97.893,344.218 97.868,344.267C97.844,344.316 97.812,344.345 97.773,344.355C97.714,344.365 97.663,344.37 97.619,344.37C97.574,344.37 97.499,344.389 97.391,344.429C97.342,344.448 97.298,344.51 97.258,344.612C97.219,344.715 97.185,344.877 97.156,345.097C97.126,345.318 97.097,345.607 97.067,345.965C97.038,346.322 97.009,346.771 96.979,347.309C96.95,347.741 96.928,348.179 96.913,348.625C96.898,349.071 96.884,349.504 96.869,349.926C96.854,350.347 96.845,350.739 96.84,351.101C96.835,351.464 96.832,351.773 96.832,352.027C96.832,352.312 96.835,352.598 96.84,352.887C96.845,353.176 96.871,353.404 96.92,353.571C96.969,353.727 97.097,353.874 97.303,354.012C97.508,354.149 97.724,354.217 97.949,354.217C98.126,354.217 98.307,354.193 98.493,354.144C98.679,354.095 98.851,354.036 99.008,353.967C99.164,353.899 99.304,353.83 99.426,353.762C99.549,353.693 99.64,353.639 99.698,353.6Z" style="fill-rule:nonzero;"/>
            <path d="M103.608,352.806C103.578,352.64 103.549,352.459 103.52,352.263C103.49,352.067 103.461,351.88 103.432,351.704C103.402,351.528 103.375,351.376 103.351,351.248C103.326,351.121 103.309,351.038 103.299,350.999C103.142,351.057 102.966,351.126 102.77,351.204C102.574,351.283 102.378,351.368 102.182,351.462C101.986,351.555 101.8,351.648 101.624,351.741C101.447,351.834 101.3,351.92 101.183,351.998C100.957,352.145 100.786,352.292 100.668,352.439C100.551,352.586 100.492,352.762 100.492,352.968C100.492,353.252 100.575,353.502 100.742,353.718C100.908,353.933 101.168,354.041 101.521,354.041C101.707,354.041 101.9,354.007 102.101,353.938C102.302,353.869 102.488,353.791 102.66,353.703C102.831,353.615 102.981,353.527 103.108,353.438C103.236,353.35 103.324,353.282 103.373,353.233C103.451,353.154 103.512,353.088 103.556,353.034C103.601,352.98 103.618,352.904 103.608,352.806ZM103.182,350.528C103.123,350.224 103.054,349.953 102.976,349.712C102.897,349.472 102.8,349.272 102.682,349.11C102.564,348.948 102.422,348.826 102.256,348.742C102.089,348.659 101.883,348.618 101.638,348.618C101.423,348.618 101.224,348.657 101.043,348.735C100.862,348.813 100.705,348.907 100.573,349.014C100.441,349.122 100.338,349.23 100.264,349.338C100.191,349.445 100.149,349.529 100.139,349.588C100.129,349.666 100.085,349.705 100.007,349.705C99.87,349.705 99.742,349.656 99.625,349.558C99.507,349.46 99.448,349.343 99.448,349.205C99.448,349.127 99.458,349.068 99.478,349.029C99.703,348.902 99.978,348.764 100.301,348.618C100.624,348.471 100.96,348.333 101.308,348.206C101.656,348.079 102.001,347.973 102.344,347.89C102.687,347.807 102.995,347.765 103.27,347.765C103.681,347.765 103.997,347.824 104.218,347.941C104.438,348.059 104.602,348.226 104.71,348.441C104.818,348.657 104.884,348.909 104.909,349.198C104.933,349.487 104.955,349.798 104.975,350.131C105.004,350.631 105.043,351.114 105.092,351.579C105.141,352.045 105.215,352.456 105.313,352.814C105.411,353.171 105.536,353.46 105.688,353.681C105.839,353.901 106.028,354.012 106.253,354.012C106.361,354.012 106.479,353.992 106.606,353.953C106.734,353.914 106.856,353.867 106.974,353.813C107.091,353.759 107.197,353.705 107.29,353.651C107.383,353.598 107.444,353.561 107.473,353.541C107.562,353.541 107.615,353.585 107.635,353.674C107.635,353.723 107.625,353.767 107.606,353.806C107.586,353.825 107.513,353.874 107.385,353.953C107.258,354.031 107.101,354.124 106.915,354.232C106.729,354.34 106.523,354.455 106.298,354.577C106.072,354.7 105.849,354.815 105.629,354.923C105.408,355.031 105.205,355.119 105.019,355.187C104.833,355.256 104.686,355.29 104.578,355.29C104.451,355.29 104.34,355.239 104.247,355.136C104.154,355.033 104.073,354.896 104.005,354.724C103.936,354.553 103.877,354.355 103.828,354.129C103.779,353.904 103.735,353.669 103.696,353.424C103.52,353.571 103.294,353.745 103.02,353.945C102.746,354.146 102.447,354.335 102.123,354.511C101.8,354.688 101.469,354.837 101.131,354.96C100.793,355.082 100.467,355.143 100.154,355.143C99.889,355.143 99.659,355.102 99.463,355.018C99.267,354.935 99.103,354.825 98.971,354.688C98.838,354.55 98.741,354.391 98.677,354.21C98.613,354.029 98.581,353.84 98.581,353.644C98.581,353.331 98.677,353.073 98.868,352.872C99.059,352.672 99.355,352.463 99.757,352.248C99.943,352.15 100.203,352.02 100.536,351.858C100.869,351.697 101.21,351.533 101.558,351.366C101.905,351.199 102.229,351.04 102.528,350.888C102.826,350.736 103.044,350.616 103.182,350.528Z" style="fill-rule:nonzero;"/>
            <path d="M120.613,353.82C120.642,353.82 120.662,353.838 120.672,353.872C120.682,353.906 120.687,353.948 120.687,353.997C120.687,354.046 120.677,354.078 120.657,354.092C120.638,354.107 120.618,354.124 120.598,354.144C120.53,354.183 120.366,354.266 120.106,354.394C119.846,354.521 119.557,354.651 119.239,354.783C118.92,354.915 118.607,355.033 118.298,355.136C117.99,355.239 117.757,355.29 117.6,355.29C117.463,355.29 117.333,355.261 117.211,355.202C117.088,355.143 117.037,355.05 117.056,354.923C117.076,354.844 117.098,354.727 117.122,354.57C117.147,354.413 117.169,354.222 117.189,353.997C117.208,353.713 117.23,353.384 117.255,353.012C117.279,352.64 117.291,352.228 117.291,351.778C117.291,351.248 117.257,350.81 117.189,350.462C117.12,350.114 117.022,349.837 116.895,349.632C116.767,349.426 116.61,349.281 116.424,349.198C116.238,349.115 116.023,349.073 115.778,349.073C115.552,349.073 115.361,349.11 115.204,349.183C115.048,349.257 114.91,349.338 114.793,349.426C114.577,349.592 114.408,349.806 114.286,350.065C114.163,350.325 114.087,350.665 114.058,351.087C114.048,351.195 114.041,351.302 114.036,351.41C114.031,351.518 114.026,351.635 114.021,351.763C114.016,351.89 114.011,352.032 114.006,352.189C114.002,352.346 113.999,352.532 113.999,352.748C113.999,353.326 114.046,353.727 114.139,353.953C114.232,354.178 114.391,354.291 114.616,354.291C114.695,354.291 114.744,354.288 114.763,354.283C114.783,354.279 114.822,354.271 114.881,354.261C114.901,354.281 114.92,354.306 114.94,354.335C114.969,354.384 114.964,354.438 114.925,354.497C114.876,354.555 114.759,354.631 114.572,354.724C114.386,354.817 114.18,354.903 113.955,354.982C113.73,355.06 113.509,355.129 113.294,355.187C113.078,355.246 112.916,355.276 112.809,355.276C112.671,355.276 112.547,355.258 112.434,355.224C112.321,355.19 112.265,355.148 112.265,355.099C112.265,355.04 112.284,354.972 112.324,354.893C112.353,354.844 112.382,354.727 112.412,354.541C112.441,354.355 112.468,354.114 112.493,353.82C112.517,353.527 112.539,353.186 112.559,352.799C112.578,352.412 112.588,351.993 112.588,351.542C112.588,351.307 112.576,351.048 112.551,350.763C112.527,350.479 112.466,350.212 112.368,349.962C112.27,349.712 112.125,349.502 111.934,349.33C111.743,349.159 111.481,349.073 111.148,349.073C110.952,349.073 110.775,349.1 110.619,349.154C110.462,349.208 110.33,349.274 110.222,349.352C110.006,349.519 109.823,349.725 109.671,349.97C109.519,350.215 109.418,350.563 109.369,351.013C109.35,351.219 109.33,351.432 109.311,351.653C109.291,351.873 109.281,352.125 109.281,352.41C109.281,352.782 109.291,353.091 109.311,353.335C109.33,353.58 109.364,353.774 109.413,353.916C109.462,354.058 109.521,354.156 109.59,354.21C109.658,354.264 109.747,354.291 109.854,354.291C109.962,354.291 110.036,354.281 110.075,354.261C110.124,354.242 110.158,354.271 110.178,354.35C110.197,354.428 110.192,354.477 110.163,354.497C110.124,354.536 110.021,354.597 109.854,354.68C109.688,354.764 109.497,354.849 109.281,354.938C109.066,355.026 108.845,355.104 108.62,355.173C108.394,355.241 108.203,355.276 108.047,355.276C107.88,355.276 107.75,355.256 107.657,355.217C107.564,355.178 107.517,355.133 107.517,355.084C107.517,355.075 107.527,355.043 107.547,354.989C107.566,354.935 107.581,354.889 107.591,354.849C107.63,354.546 107.667,354.264 107.701,354.004C107.735,353.745 107.76,353.463 107.775,353.159C107.789,352.855 107.802,352.507 107.811,352.116C107.821,351.724 107.826,351.248 107.826,350.69C107.826,350.151 107.74,349.754 107.569,349.499C107.397,349.245 107.219,349.117 107.032,349.117C106.954,349.117 106.888,349.125 106.834,349.139C106.78,349.154 106.729,349.166 106.68,349.176C106.621,349.186 106.592,349.156 106.592,349.088L106.592,348.985C106.601,348.975 106.699,348.907 106.885,348.779C107.072,348.652 107.292,348.515 107.547,348.368C107.802,348.221 108.066,348.086 108.341,347.963C108.615,347.841 108.84,347.78 109.017,347.78C109.134,347.78 109.235,347.814 109.318,347.883C109.401,347.951 109.443,348.079 109.443,348.265C109.443,348.353 109.44,348.451 109.436,348.559C109.431,348.667 109.426,348.779 109.421,348.897C109.416,349.014 109.409,349.129 109.399,349.242C109.389,349.355 109.384,349.45 109.384,349.529C109.521,349.401 109.695,349.235 109.906,349.029C110.116,348.823 110.354,348.627 110.619,348.441C110.883,348.255 111.17,348.093 111.478,347.956C111.787,347.819 112.113,347.75 112.456,347.75C112.907,347.75 113.274,347.883 113.558,348.147C113.842,348.412 113.994,348.872 114.014,349.529C114.171,349.382 114.362,349.205 114.587,349C114.812,348.794 115.065,348.598 115.344,348.412C115.623,348.226 115.92,348.069 116.233,347.941C116.547,347.814 116.865,347.75 117.189,347.75C118.325,347.75 118.893,348.353 118.893,349.558C118.893,349.754 118.884,349.979 118.864,350.234C118.844,350.489 118.82,350.756 118.791,351.035C118.761,351.315 118.737,351.591 118.717,351.866C118.697,352.14 118.688,352.39 118.688,352.615C118.688,353.634 118.957,354.144 119.496,354.144C119.584,354.144 119.682,354.132 119.79,354.107C119.898,354.083 120.006,354.053 120.113,354.019C120.221,353.985 120.319,353.95 120.407,353.916C120.495,353.882 120.559,353.85 120.598,353.82L120.613,353.82Z" style="fill-rule:nonzero;"/>
            <path d="M127.33,353.38C127.222,353.497 127.056,353.659 126.83,353.865C126.605,354.07 126.333,354.276 126.014,354.482C125.696,354.688 125.341,354.864 124.949,355.011C124.557,355.158 124.141,355.231 123.7,355.231C123.298,355.231 122.906,355.17 122.524,355.048C122.142,354.925 121.799,354.739 121.495,354.489C121.191,354.239 120.949,353.921 120.767,353.534C120.586,353.147 120.495,352.684 120.495,352.145C120.495,351.704 120.525,351.324 120.584,351.006C120.642,350.687 120.721,350.408 120.819,350.168C120.917,349.928 121.027,349.722 121.15,349.551C121.272,349.379 121.397,349.225 121.524,349.088C121.681,348.911 121.872,348.745 122.098,348.588C122.323,348.431 122.565,348.289 122.825,348.162C123.085,348.035 123.359,347.934 123.648,347.861C123.937,347.787 124.229,347.75 124.523,347.75C125.052,347.75 125.466,347.839 125.765,348.015C126.063,348.191 126.213,348.436 126.213,348.75C126.213,348.946 126.154,349.127 126.037,349.294C126.134,349.264 126.259,349.215 126.411,349.147C126.563,349.078 126.718,349.007 126.874,348.934C127.031,348.86 127.171,348.794 127.293,348.735C127.416,348.676 127.496,348.632 127.536,348.603C127.555,348.583 127.577,348.576 127.602,348.581C127.626,348.586 127.639,348.603 127.639,348.632C127.639,348.76 127.614,348.865 127.565,348.948C127.516,349.031 127.457,349.098 127.389,349.147C127.232,349.245 127.007,349.367 126.713,349.514C126.419,349.661 126.093,349.815 125.735,349.977C125.378,350.139 125.008,350.3 124.626,350.462C124.243,350.624 123.883,350.778 123.545,350.925C123.207,351.072 122.913,351.202 122.663,351.315C122.414,351.427 122.245,351.508 122.156,351.557C122.156,351.89 122.222,352.201 122.355,352.49C122.487,352.779 122.671,353.032 122.906,353.247C123.141,353.463 123.423,353.632 123.751,353.754C124.079,353.877 124.439,353.938 124.831,353.938C125.184,353.938 125.502,353.901 125.787,353.828C126.071,353.754 126.311,353.671 126.507,353.578C126.703,353.485 126.857,353.402 126.97,353.328C127.082,353.255 127.144,353.218 127.154,353.218C127.193,353.218 127.232,353.235 127.271,353.269C127.31,353.304 127.33,353.34 127.33,353.38ZM122.156,351.131C122.323,351.072 122.512,351.001 122.722,350.918C122.933,350.834 123.139,350.744 123.339,350.646C123.54,350.548 123.724,350.455 123.891,350.367C124.057,350.278 124.185,350.2 124.273,350.131C124.449,350.004 124.537,349.788 124.537,349.485C124.537,349.367 124.515,349.245 124.471,349.117C124.427,348.99 124.361,348.875 124.273,348.772C124.185,348.669 124.077,348.586 123.949,348.522C123.822,348.458 123.68,348.426 123.523,348.426C123.386,348.426 123.239,348.473 123.082,348.566C122.926,348.659 122.779,348.811 122.641,349.022C122.504,349.232 122.389,349.512 122.296,349.859C122.203,350.207 122.156,350.631 122.156,351.131Z" style="fill-rule:nonzero;"/>
            <path d="M85.478,363.727C85.4,363.707 85.363,363.668 85.368,363.609C85.373,363.55 85.41,363.516 85.478,363.506C85.508,363.496 85.601,363.462 85.758,363.403C85.914,363.345 86.103,363.276 86.323,363.198C86.544,363.119 86.774,363.036 87.014,362.948C87.254,362.86 87.467,362.786 87.654,362.727C87.771,362.688 87.852,362.661 87.896,362.646C87.94,362.632 87.977,362.624 88.006,362.624C88.036,362.624 88.07,362.637 88.109,362.661C88.148,362.686 88.158,362.722 88.139,362.771C88.109,362.85 88.077,363.036 88.043,363.33C88.009,363.624 87.977,363.95 87.948,364.307C87.918,364.665 87.891,365.02 87.867,365.373C87.842,365.726 87.83,366.005 87.83,366.211C87.83,366.994 87.997,367.6 88.33,368.026C88.663,368.452 89.182,368.665 89.888,368.665C90.25,368.665 90.551,368.592 90.792,368.445C91.032,368.298 91.215,368.126 91.343,367.93C91.431,367.803 91.49,367.524 91.519,367.092C91.519,367.014 91.522,366.911 91.526,366.784C91.531,366.656 91.536,366.522 91.541,366.38C91.546,366.238 91.551,366.1 91.556,365.968C91.561,365.836 91.563,365.726 91.563,365.637C91.573,365.187 91.561,364.768 91.526,364.381C91.492,363.994 91.441,363.707 91.372,363.521C91.343,363.403 91.284,363.345 91.196,363.345C91.137,363.345 91.081,363.347 91.027,363.352C90.973,363.357 90.941,363.315 90.931,363.227C90.931,363.198 90.961,363.166 91.019,363.131C91.078,363.097 91.191,363.046 91.357,362.977C91.514,362.918 91.688,362.86 91.879,362.801C92.07,362.742 92.259,362.693 92.445,362.654C92.631,362.615 92.798,362.588 92.945,362.573C93.092,362.558 93.199,362.566 93.268,362.595C93.268,362.605 93.275,362.617 93.29,362.632C93.305,362.646 93.317,362.678 93.327,362.727C93.346,362.786 93.334,362.97 93.29,363.278C93.246,363.587 93.199,364.089 93.15,364.785C93.111,365.265 93.077,365.73 93.048,366.181C93.018,366.632 93.004,366.975 93.004,367.21C93.004,367.671 93.089,368.036 93.261,368.305C93.432,368.574 93.645,368.709 93.9,368.709C94.067,368.709 94.226,368.675 94.378,368.606C94.53,368.538 94.64,368.479 94.708,368.43C94.787,368.43 94.828,368.464 94.833,368.533C94.838,368.601 94.821,368.646 94.782,368.665C94.635,368.763 94.432,368.886 94.172,369.033C93.912,369.18 93.643,369.319 93.364,369.451C93.084,369.584 92.817,369.696 92.563,369.789C92.308,369.883 92.102,369.929 91.945,369.929C91.867,369.929 91.796,369.878 91.732,369.775C91.668,369.672 91.617,369.547 91.578,369.4C91.539,369.253 91.509,369.101 91.49,368.944C91.47,368.788 91.46,368.65 91.46,368.533C91.254,368.68 91.019,368.834 90.755,368.996C90.49,369.157 90.216,369.309 89.932,369.451C89.648,369.594 89.366,369.709 89.087,369.797C88.807,369.885 88.55,369.929 88.315,369.929C87.717,369.929 87.227,369.77 86.845,369.451C86.463,369.133 86.272,368.719 86.272,368.209C86.272,368.102 86.282,367.94 86.301,367.724C86.321,367.509 86.345,367.264 86.375,366.99C86.404,366.715 86.429,366.421 86.448,366.108C86.468,365.794 86.478,365.49 86.478,365.196C86.478,364.746 86.407,364.4 86.265,364.16C86.123,363.92 85.939,363.786 85.713,363.756L85.478,363.727Z" style="fill-rule:nonzero;"/>
            <path d="M96.208,369.341C96.247,369.184 96.288,368.898 96.333,368.481C96.377,368.065 96.416,367.568 96.45,366.99C96.484,366.411 96.511,365.779 96.531,365.094C96.551,364.408 96.56,363.717 96.56,363.021C96.56,362.619 96.551,362.269 96.531,361.97C96.511,361.671 96.472,361.453 96.413,361.316C96.296,361.365 96.127,361.436 95.906,361.529C95.686,361.622 95.497,361.708 95.34,361.787C95.301,361.787 95.26,361.755 95.216,361.691C95.171,361.627 95.149,361.561 95.149,361.493C95.149,361.463 95.154,361.434 95.164,361.404C95.35,361.346 95.595,361.27 95.899,361.177C96.203,361.084 96.516,360.981 96.84,360.868C97.163,360.755 97.474,360.64 97.773,360.523C98.072,360.405 98.309,360.287 98.486,360.17C98.486,360.189 98.493,360.202 98.508,360.207C98.522,360.212 98.53,360.234 98.53,360.273C98.481,360.351 98.432,360.518 98.383,360.772C98.334,361.027 98.292,361.331 98.258,361.684C98.224,362.036 98.194,362.424 98.17,362.845C98.145,363.266 98.126,363.685 98.111,364.102C98.096,364.518 98.084,364.912 98.074,365.285C98.064,365.657 98.06,365.975 98.06,366.24C98.06,366.544 98.062,366.838 98.067,367.122C98.072,367.406 98.082,367.671 98.096,367.916C98.111,368.161 98.133,368.383 98.162,368.584C98.192,368.785 98.231,368.949 98.28,369.077C98.3,369.145 98.349,369.206 98.427,369.26C98.505,369.314 98.596,369.363 98.699,369.407C98.802,369.451 98.912,369.486 99.03,369.51C99.147,369.535 99.25,369.547 99.338,369.547C99.377,369.547 99.407,369.564 99.426,369.598C99.446,369.633 99.456,369.66 99.456,369.679C99.456,369.767 99.421,369.812 99.353,369.812C99.128,369.821 98.895,369.826 98.655,369.826C98.415,369.826 98.18,369.824 97.949,369.819C97.719,369.814 97.508,369.809 97.317,369.804C97.126,369.799 96.967,369.797 96.84,369.797C96.565,369.797 96.288,369.804 96.009,369.819C95.73,369.834 95.532,369.851 95.414,369.87C95.326,369.87 95.282,369.831 95.282,369.753C95.282,369.694 95.296,369.655 95.326,369.635C95.355,369.616 95.394,369.601 95.443,369.591C95.6,369.571 95.764,369.54 95.936,369.496C96.107,369.451 96.198,369.4 96.208,369.341Z" style="fill-rule:nonzero;"/>
            <path d="M101.896,364.726C102.082,364.53 102.292,364.329 102.528,364.124C102.763,363.918 103.015,363.734 103.285,363.572C103.554,363.411 103.833,363.278 104.122,363.176C104.411,363.073 104.698,363.021 104.982,363.021C105.805,363.021 106.462,363.249 106.952,363.705C107.442,364.16 107.686,364.775 107.686,365.549C107.686,365.873 107.655,366.167 107.591,366.431C107.527,366.696 107.442,366.936 107.334,367.151C107.226,367.367 107.099,367.565 106.952,367.747C106.805,367.928 106.648,368.107 106.481,368.283C106.266,368.508 106.026,368.719 105.761,368.915C105.497,369.111 105.227,369.282 104.953,369.429C104.678,369.576 104.409,369.694 104.144,369.782C103.88,369.87 103.645,369.914 103.439,369.914C102.978,369.914 102.557,369.824 102.175,369.643C101.793,369.461 101.462,369.204 101.183,368.871C100.904,368.538 100.685,368.143 100.529,367.688C100.372,367.232 100.294,366.725 100.294,366.167C100.294,365.696 100.333,365.27 100.411,364.888C100.49,364.506 100.595,364.163 100.727,363.859C100.859,363.555 101.009,363.281 101.175,363.036C101.342,362.791 101.513,362.566 101.69,362.36C101.945,362.066 102.256,361.772 102.623,361.478C102.991,361.184 103.363,360.902 103.74,360.633C104.117,360.363 104.473,360.116 104.806,359.891C105.139,359.665 105.403,359.474 105.599,359.317C105.737,359.317 105.82,359.374 105.849,359.486C105.879,359.599 105.893,359.724 105.893,359.861C105.893,359.998 105.879,360.106 105.849,360.185C105.82,360.263 105.761,360.327 105.673,360.376C105.154,360.454 104.673,360.608 104.233,360.839C103.792,361.069 103.407,361.37 103.079,361.743C102.751,362.115 102.484,362.551 102.278,363.051C102.072,363.55 101.945,364.109 101.896,364.726ZM104.262,369.121C104.732,369.121 105.134,368.871 105.467,368.371C105.8,367.871 105.972,367.171 105.982,366.269C105.982,365.956 105.933,365.662 105.835,365.388C105.737,365.113 105.602,364.873 105.43,364.667C105.259,364.462 105.058,364.3 104.828,364.182C104.598,364.065 104.35,364.006 104.086,364.006C103.831,364.006 103.571,364.055 103.307,364.153C103.042,364.251 102.802,364.388 102.586,364.564C102.371,364.741 102.192,364.949 102.05,365.189C101.908,365.429 101.837,365.691 101.837,365.975C101.837,366.495 101.903,366.95 102.035,367.342C102.168,367.734 102.344,368.063 102.564,368.327C102.785,368.592 103.042,368.79 103.336,368.922C103.63,369.055 103.939,369.121 104.262,369.121Z" style="fill-rule:nonzero;"/>
            <path d="M115.741,369.87C115.643,369.87 115.511,369.875 115.344,369.885C115.177,369.895 114.999,369.902 114.807,369.907C114.616,369.912 114.42,369.919 114.22,369.929C114.019,369.939 113.835,369.944 113.668,369.944C113.012,369.944 112.37,369.843 111.743,369.643C111.116,369.442 110.56,369.128 110.075,368.702C109.59,368.276 109.198,367.727 108.899,367.056C108.6,366.385 108.451,365.579 108.451,364.638C108.451,363.776 108.615,363.011 108.943,362.345C109.271,361.679 109.705,361.12 110.244,360.67C110.783,360.219 111.39,359.876 112.066,359.641C112.742,359.406 113.433,359.288 114.139,359.288C114.296,359.288 114.509,359.298 114.778,359.317C115.048,359.337 115.317,359.362 115.586,359.391C115.856,359.42 116.096,359.452 116.307,359.486C116.517,359.521 116.652,359.553 116.711,359.582C116.838,359.239 116.98,358.935 117.137,358.671C117.294,358.406 117.509,358.205 117.784,358.068C117.862,358.039 117.95,358.034 118.048,358.053C118.146,358.073 118.195,358.122 118.195,358.2C118.146,358.289 118.11,358.342 118.085,358.362C118.061,358.382 118.029,358.391 117.99,358.391C117.872,358.391 117.757,358.445 117.644,358.553C117.531,358.661 117.426,358.801 117.328,358.972C117.23,359.143 117.144,359.339 117.071,359.56C116.997,359.78 116.941,360.003 116.902,360.229C116.882,360.336 116.86,360.461 116.836,360.603C116.811,360.746 116.789,360.885 116.77,361.022C116.75,361.16 116.735,361.292 116.726,361.419C116.716,361.547 116.711,361.654 116.711,361.743C116.711,361.792 116.691,361.833 116.652,361.867C116.613,361.902 116.574,361.919 116.534,361.919C116.476,361.919 116.407,361.89 116.329,361.831C116.29,361.586 116.209,361.341 116.086,361.096C115.964,360.851 115.792,360.63 115.572,360.434C115.351,360.238 115.077,360.082 114.749,359.964C114.42,359.847 114.031,359.788 113.58,359.788C113.1,359.788 112.671,359.9 112.294,360.126C111.917,360.351 111.599,360.66 111.339,361.052C111.079,361.444 110.881,361.909 110.744,362.448C110.606,362.987 110.538,363.565 110.538,364.182C110.538,365.035 110.624,365.792 110.795,366.453C110.967,367.115 111.204,367.675 111.508,368.136C111.812,368.597 112.174,368.947 112.595,369.187C113.017,369.427 113.477,369.547 113.977,369.547C114.31,369.547 114.636,369.493 114.954,369.385C115.273,369.278 115.567,369.131 115.836,368.944C116.106,368.758 116.346,368.543 116.557,368.298C116.767,368.053 116.931,367.793 117.049,367.519C117.068,367.48 117.12,367.45 117.203,367.431C117.287,367.411 117.328,367.421 117.328,367.46C117.328,367.587 117.287,367.761 117.203,367.982C117.12,368.202 117.024,368.423 116.917,368.643C116.809,368.864 116.701,369.064 116.593,369.246C116.485,369.427 116.412,369.547 116.373,369.606C116.343,369.674 116.307,369.765 116.263,369.878C116.218,369.99 116.179,370.118 116.145,370.26C116.111,370.402 116.079,370.549 116.049,370.701C116.02,370.853 116.005,371.002 116.005,371.149C116.005,371.306 115.986,371.404 115.947,371.443C115.907,371.482 115.824,371.502 115.697,371.502C115.589,371.502 115.54,371.426 115.55,371.274C115.56,371.122 115.584,370.948 115.623,370.752C115.662,370.556 115.702,370.373 115.741,370.201C115.78,370.03 115.78,369.919 115.741,369.87Z" style="fill-rule:nonzero;"/>
            <path d="M125.235,369.87C125.138,369.87 125.005,369.875 124.839,369.885C124.672,369.895 124.493,369.902 124.302,369.907C124.111,369.912 123.915,369.919 123.714,369.929C123.513,369.939 123.33,369.944 123.163,369.944C122.507,369.944 121.865,369.843 121.238,369.643C120.611,369.442 120.055,369.128 119.57,368.702C119.085,368.276 118.693,367.727 118.394,367.056C118.095,366.385 117.945,365.579 117.945,364.638C117.945,363.776 118.11,363.011 118.438,362.345C118.766,361.679 119.2,361.12 119.739,360.67C120.277,360.219 120.885,359.876 121.561,359.641C122.237,359.406 122.928,359.288 123.633,359.288C123.79,359.288 124.003,359.298 124.273,359.317C124.542,359.337 124.812,359.362 125.081,359.391C125.351,359.42 125.591,359.452 125.801,359.486C126.012,359.521 126.147,359.553 126.206,359.582C126.333,359.239 126.475,358.935 126.632,358.671C126.789,358.406 127.004,358.205 127.278,358.068C127.357,358.039 127.445,358.034 127.543,358.053C127.641,358.073 127.69,358.122 127.69,358.2C127.641,358.289 127.604,358.342 127.58,358.362C127.555,358.382 127.523,358.391 127.484,358.391C127.367,358.391 127.252,358.445 127.139,358.553C127.026,358.661 126.921,358.801 126.823,358.972C126.725,359.143 126.639,359.339 126.566,359.56C126.492,359.78 126.436,360.003 126.397,360.229C126.377,360.336 126.355,360.461 126.33,360.603C126.306,360.746 126.284,360.885 126.264,361.022C126.245,361.16 126.23,361.292 126.22,361.419C126.21,361.547 126.206,361.654 126.206,361.743C126.206,361.792 126.186,361.833 126.147,361.867C126.108,361.902 126.068,361.919 126.029,361.919C125.97,361.919 125.902,361.89 125.823,361.831C125.784,361.586 125.703,361.341 125.581,361.096C125.458,360.851 125.287,360.63 125.066,360.434C124.846,360.238 124.572,360.082 124.243,359.964C123.915,359.847 123.526,359.788 123.075,359.788C122.595,359.788 122.166,359.9 121.789,360.126C121.412,360.351 121.093,360.66 120.834,361.052C120.574,361.444 120.375,361.909 120.238,362.448C120.101,362.987 120.033,363.565 120.033,364.182C120.033,365.035 120.118,365.792 120.29,366.453C120.461,367.115 120.699,367.675 121.003,368.136C121.306,368.597 121.669,368.947 122.09,369.187C122.512,369.427 122.972,369.547 123.472,369.547C123.805,369.547 124.131,369.493 124.449,369.385C124.768,369.278 125.062,369.131 125.331,368.944C125.6,368.758 125.841,368.543 126.051,368.298C126.262,368.053 126.426,367.793 126.544,367.519C126.563,367.48 126.615,367.45 126.698,367.431C126.781,367.411 126.823,367.421 126.823,367.46C126.823,367.587 126.781,367.761 126.698,367.982C126.615,368.202 126.519,368.423 126.411,368.643C126.304,368.864 126.196,369.064 126.088,369.246C125.98,369.427 125.907,369.547 125.867,369.606C125.838,369.674 125.801,369.765 125.757,369.878C125.713,369.99 125.674,370.118 125.64,370.26C125.605,370.402 125.574,370.549 125.544,370.701C125.515,370.853 125.5,371.002 125.5,371.149C125.5,371.306 125.48,371.404 125.441,371.443C125.402,371.482 125.319,371.502 125.191,371.502C125.084,371.502 125.035,371.426 125.044,371.274C125.054,371.122 125.079,370.948 125.118,370.752C125.157,370.556 125.196,370.373 125.235,370.201C125.275,370.03 125.275,369.919 125.235,369.87Z" style="fill-rule:nonzero;"/>
            <path d="M83.002,380.849C82.982,380.849 82.963,380.847 82.943,380.842C82.923,380.837 82.909,380.82 82.899,380.791C82.899,380.781 82.911,380.747 82.936,380.688C82.96,380.629 83.002,380.565 83.061,380.497C83.119,380.428 83.193,380.367 83.281,380.313C83.369,380.259 83.477,380.232 83.604,380.232C83.761,380.232 83.889,380.274 83.986,380.357C84.084,380.44 84.163,380.556 84.222,380.703C84.28,380.849 84.32,381.019 84.339,381.21C84.359,381.401 84.369,381.604 84.369,381.82C84.398,382.055 84.508,382.295 84.699,382.54C84.89,382.785 85.126,383.005 85.405,383.201C85.684,383.397 85.99,383.559 86.323,383.686C86.657,383.814 86.98,383.882 87.293,383.892C88.038,383.912 88.582,383.752 88.925,383.414C89.268,383.076 89.439,382.643 89.439,382.113C89.439,381.673 89.356,381.315 89.189,381.041C89.023,380.766 88.8,380.546 88.521,380.379C88.241,380.213 87.925,380.078 87.573,379.975C87.22,379.872 86.86,379.777 86.492,379.688C86.125,379.6 85.765,379.502 85.412,379.394C85.059,379.287 84.743,379.14 84.464,378.953C84.185,378.767 83.962,378.525 83.795,378.226C83.629,377.927 83.546,377.543 83.546,377.072C83.546,376.621 83.646,376.193 83.847,375.786C84.048,375.38 84.334,375.022 84.707,374.713C85.079,374.405 85.532,374.16 86.066,373.978C86.6,373.797 87.205,373.706 87.881,373.706C88.528,373.706 89.082,373.77 89.542,373.897C90.003,374.025 90.355,374.123 90.6,374.191C90.649,374.113 90.703,374.022 90.762,373.92C90.821,373.817 90.887,373.721 90.961,373.633C91.034,373.545 91.115,373.469 91.203,373.405C91.291,373.341 91.394,373.31 91.512,373.31C91.6,373.31 91.671,373.337 91.725,373.39C91.779,373.444 91.806,373.496 91.806,373.545C91.786,373.594 91.747,373.633 91.688,373.662C91.629,373.692 91.575,373.721 91.526,373.751C91.223,373.907 90.97,374.272 90.769,374.845C90.569,375.419 90.453,376.122 90.424,376.955C90.414,376.974 90.39,376.989 90.351,376.999C90.311,377.008 90.267,377.013 90.218,377.013C90.14,377.013 90.086,377.008 90.057,376.999C90.027,376.705 89.939,376.406 89.792,376.102C89.645,375.798 89.442,375.522 89.182,375.272C88.922,375.022 88.604,374.819 88.227,374.662C87.85,374.505 87.421,374.427 86.941,374.427C86.647,374.427 86.382,374.468 86.147,374.552C85.912,374.635 85.713,374.748 85.552,374.89C85.39,375.032 85.268,375.191 85.184,375.367C85.101,375.544 85.059,375.72 85.059,375.896C85.059,376.308 85.226,376.683 85.559,377.021C85.892,377.359 86.397,377.611 87.073,377.778C87.494,377.885 87.933,378.005 88.388,378.138C88.844,378.27 89.258,378.449 89.63,378.674C90.003,378.9 90.311,379.184 90.556,379.527C90.801,379.87 90.924,380.306 90.924,380.835C90.924,381.354 90.804,381.851 90.564,382.327C90.324,382.802 90.008,383.221 89.616,383.583C89.224,383.946 88.778,384.235 88.278,384.45C87.778,384.666 87.269,384.774 86.75,384.774C86.348,384.774 85.956,384.747 85.574,384.693C85.192,384.639 84.839,384.575 84.516,384.502C84.192,384.428 83.908,384.35 83.663,384.267C83.418,384.183 83.237,384.112 83.119,384.054C83.208,383.897 83.298,383.73 83.391,383.554C83.484,383.377 83.573,383.191 83.656,382.995C83.739,382.799 83.808,382.596 83.862,382.385C83.915,382.175 83.942,381.952 83.942,381.717C83.942,381.374 83.891,381.114 83.788,380.938C83.685,380.761 83.565,380.673 83.428,380.673C83.33,380.673 83.261,380.693 83.222,380.732C83.183,380.771 83.134,380.83 83.075,380.908L83.002,380.849Z" style="fill-rule:nonzero;"/>
            <path d="M98.655,382.775C98.547,382.892 98.38,383.054 98.155,383.26C97.93,383.466 97.658,383.671 97.339,383.877C97.021,384.083 96.666,384.259 96.274,384.406C95.882,384.553 95.465,384.627 95.024,384.627C94.623,384.627 94.231,384.566 93.849,384.443C93.466,384.321 93.124,384.134 92.82,383.885C92.516,383.635 92.274,383.316 92.092,382.929C91.911,382.542 91.82,382.079 91.82,381.54C91.82,381.099 91.85,380.72 91.909,380.401C91.967,380.083 92.046,379.804 92.144,379.563C92.242,379.323 92.352,379.118 92.474,378.946C92.597,378.775 92.722,378.62 92.849,378.483C93.006,378.307 93.197,378.14 93.422,377.983C93.648,377.827 93.89,377.685 94.15,377.557C94.41,377.43 94.684,377.329 94.973,377.256C95.262,377.182 95.554,377.146 95.848,377.146C96.377,377.146 96.791,377.234 97.089,377.41C97.388,377.587 97.538,377.832 97.538,378.145C97.538,378.341 97.479,378.522 97.361,378.689C97.459,378.66 97.584,378.611 97.736,378.542C97.888,378.473 98.042,378.402 98.199,378.329C98.356,378.255 98.496,378.189 98.618,378.13C98.741,378.072 98.821,378.028 98.861,377.998C98.88,377.979 98.902,377.971 98.927,377.976C98.951,377.981 98.963,377.998 98.963,378.028C98.963,378.155 98.939,378.26 98.89,378.344C98.841,378.427 98.782,378.493 98.714,378.542C98.557,378.64 98.331,378.762 98.037,378.909C97.744,379.056 97.418,379.211 97.06,379.372C96.702,379.534 96.333,379.696 95.95,379.857C95.568,380.019 95.208,380.173 94.87,380.32C94.532,380.467 94.238,380.597 93.988,380.71C93.738,380.823 93.569,380.903 93.481,380.952C93.481,381.286 93.547,381.597 93.68,381.886C93.812,382.175 93.996,382.427 94.231,382.643C94.466,382.858 94.748,383.027 95.076,383.15C95.404,383.272 95.764,383.333 96.156,383.333C96.509,383.333 96.827,383.297 97.112,383.223C97.396,383.15 97.636,383.066 97.832,382.973C98.028,382.88 98.182,382.797 98.295,382.723C98.407,382.65 98.469,382.613 98.478,382.613C98.518,382.613 98.557,382.63 98.596,382.665C98.635,382.699 98.655,382.736 98.655,382.775ZM93.481,380.526C93.648,380.467 93.836,380.396 94.047,380.313C94.258,380.23 94.463,380.139 94.664,380.041C94.865,379.943 95.049,379.85 95.216,379.762C95.382,379.674 95.509,379.595 95.598,379.527C95.774,379.399 95.862,379.184 95.862,378.88C95.862,378.762 95.84,378.64 95.796,378.513C95.752,378.385 95.686,378.27 95.598,378.167C95.509,378.064 95.402,377.981 95.274,377.917C95.147,377.854 95.005,377.822 94.848,377.822C94.711,377.822 94.564,377.868 94.407,377.961C94.25,378.054 94.103,378.206 93.966,378.417C93.829,378.628 93.714,378.907 93.621,379.255C93.528,379.603 93.481,380.026 93.481,380.526Z" style="fill-rule:nonzero;"/>
            <path d="M101.05,380.614C101.041,380.703 101.031,380.781 101.021,380.849C101.011,380.918 101.004,380.996 100.999,381.085C100.994,381.173 100.989,381.283 100.984,381.415C100.979,381.548 100.977,381.722 100.977,381.937C100.977,382.29 100.989,382.579 101.014,382.804C101.038,383.03 101.075,383.208 101.124,383.341C101.173,383.473 101.234,383.564 101.308,383.613C101.381,383.662 101.472,383.686 101.58,383.686C101.648,383.686 101.722,383.676 101.8,383.657C101.82,383.657 101.837,383.684 101.852,383.738C101.866,383.791 101.864,383.828 101.844,383.848C101.785,383.897 101.67,383.968 101.499,384.061C101.327,384.154 101.134,384.245 100.918,384.333C100.703,384.421 100.48,384.499 100.249,384.568C100.019,384.637 99.826,384.671 99.669,384.671C99.532,384.671 99.424,384.654 99.346,384.619C99.267,384.585 99.228,384.544 99.228,384.495C99.228,384.446 99.233,384.416 99.243,384.406C99.252,384.397 99.267,384.372 99.287,384.333C99.306,384.284 99.321,384.223 99.331,384.149C99.341,384.076 99.355,383.99 99.375,383.892C99.395,383.755 99.414,383.581 99.434,383.37C99.453,383.159 99.473,382.929 99.493,382.679C99.512,382.429 99.529,382.17 99.544,381.9C99.559,381.631 99.566,381.369 99.566,381.114C99.566,381.006 99.564,380.872 99.559,380.71C99.554,380.548 99.546,380.34 99.537,380.085C99.527,379.801 99.495,379.559 99.441,379.358C99.387,379.157 99.319,378.995 99.235,378.873C99.152,378.75 99.059,378.66 98.956,378.601C98.853,378.542 98.753,378.513 98.655,378.513L98.508,378.513C98.459,378.513 98.41,378.517 98.361,378.527C98.322,378.527 98.302,378.483 98.302,378.395C98.302,378.375 98.309,378.358 98.324,378.344C98.339,378.329 98.385,378.297 98.464,378.248C98.591,378.16 98.763,378.052 98.978,377.925C99.194,377.797 99.414,377.68 99.64,377.572C99.865,377.464 100.078,377.371 100.279,377.293C100.48,377.214 100.634,377.175 100.742,377.175C101.026,377.175 101.168,377.337 101.168,377.66C101.168,377.709 101.163,377.797 101.153,377.925C101.144,378.052 101.136,378.182 101.131,378.314C101.126,378.446 101.119,378.571 101.109,378.689C101.099,378.807 101.095,378.885 101.095,378.924C101.3,378.728 101.521,378.527 101.756,378.321C101.991,378.116 102.246,377.927 102.52,377.756C102.795,377.584 103.084,377.445 103.387,377.337C103.691,377.229 104.005,377.175 104.328,377.175C104.916,377.175 105.399,377.344 105.776,377.682C106.153,378.02 106.342,378.557 106.342,379.292C106.342,379.488 106.329,379.718 106.305,379.982C106.28,380.247 106.253,380.521 106.224,380.805C106.195,381.09 106.168,381.369 106.143,381.643C106.119,381.918 106.106,382.162 106.106,382.378C106.106,383.162 106.361,383.554 106.871,383.554C106.969,383.554 107.079,383.537 107.201,383.502C107.324,383.468 107.442,383.429 107.554,383.385C107.667,383.341 107.767,383.297 107.856,383.253C107.944,383.208 108.002,383.172 108.032,383.142C108.042,383.133 108.054,383.14 108.069,383.164C108.083,383.189 108.096,383.221 108.105,383.26C108.115,383.299 108.118,383.333 108.113,383.363C108.108,383.392 108.1,383.412 108.091,383.422C108.012,383.471 107.843,383.564 107.584,383.701C107.324,383.838 107.035,383.978 106.716,384.12C106.398,384.262 106.082,384.389 105.768,384.502C105.455,384.615 105.205,384.671 105.019,384.671C104.793,384.671 104.639,384.617 104.556,384.509C104.473,384.401 104.431,384.289 104.431,384.171C104.431,384.093 104.443,383.995 104.468,383.877C104.492,383.76 104.524,383.569 104.563,383.304C104.602,383.02 104.639,382.687 104.673,382.305C104.708,381.922 104.725,381.511 104.725,381.07C104.725,380.208 104.566,379.554 104.247,379.108C103.929,378.662 103.529,378.439 103.049,378.439C102.746,378.439 102.476,378.498 102.241,378.615C102.006,378.733 101.805,378.892 101.638,379.093C101.472,379.294 101.34,379.524 101.242,379.784C101.144,380.044 101.08,380.32 101.05,380.614Z" style="fill-rule:nonzero;"/>
            <path d="M113.441,383.319C113.352,383.407 113.21,383.524 113.014,383.671C112.818,383.818 112.588,383.963 112.324,384.105C112.059,384.247 111.772,384.37 111.464,384.472C111.155,384.575 110.844,384.627 110.53,384.627C110.207,384.627 109.884,384.553 109.56,384.406C109.237,384.259 108.946,384.046 108.686,383.767C108.426,383.488 108.218,383.152 108.061,382.76C107.904,382.368 107.826,381.927 107.826,381.437C107.826,380.8 107.936,380.222 108.157,379.703C108.377,379.184 108.701,378.743 109.127,378.38C109.553,378.018 110.072,377.738 110.685,377.543C111.297,377.347 112,377.249 112.794,377.249L113.191,377.249C113.318,377.249 113.436,377.253 113.543,377.263L113.543,376.786C113.543,376.555 113.541,376.318 113.536,376.073C113.531,375.828 113.526,375.602 113.521,375.397C113.517,375.191 113.514,375.064 113.514,375.015C113.475,374.623 113.409,374.348 113.316,374.191C113.223,374.035 113.034,373.956 112.75,373.956C112.711,373.956 112.689,373.912 112.684,373.824C112.679,373.736 112.711,373.667 112.779,373.618C112.858,373.569 112.946,373.533 113.044,373.508C113.142,373.484 113.289,373.471 113.485,373.471C113.857,373.471 114.168,373.469 114.418,373.464C114.668,373.459 114.874,373.449 115.035,373.435C115.197,373.42 115.327,373.4 115.425,373.376C115.523,373.351 115.606,373.324 115.675,373.295C115.724,373.285 115.765,373.297 115.8,373.332C115.834,373.366 115.858,373.41 115.873,373.464C115.888,373.518 115.89,373.569 115.88,373.618C115.871,373.667 115.841,373.697 115.792,373.706C115.684,373.726 115.604,373.748 115.55,373.773C115.496,373.797 115.444,373.844 115.395,373.912C115.346,373.981 115.302,374.162 115.263,374.456C115.224,374.75 115.185,375.112 115.146,375.544C115.106,375.975 115.072,376.452 115.043,376.977C115.013,377.501 114.989,378.028 114.969,378.557C114.95,379.086 114.932,379.6 114.918,380.1C114.903,380.6 114.896,381.036 114.896,381.408C114.896,382.123 114.974,382.65 115.131,382.988C115.288,383.326 115.528,383.495 115.851,383.495C115.969,383.495 116.098,383.475 116.241,383.436C116.383,383.397 116.515,383.351 116.637,383.297C116.76,383.243 116.873,383.189 116.975,383.135C117.078,383.081 117.154,383.035 117.203,382.995C117.252,382.956 117.296,382.981 117.335,383.069C117.375,383.157 117.37,383.216 117.321,383.245C117.203,383.314 117.019,383.414 116.77,383.547C116.52,383.679 116.243,383.818 115.939,383.965C115.567,384.152 115.19,384.318 114.807,384.465C114.425,384.612 114.117,384.686 113.882,384.686C113.705,384.686 113.585,384.656 113.521,384.597C113.458,384.539 113.426,384.446 113.426,384.318L113.426,384.12C113.426,384.027 113.428,383.929 113.433,383.826C113.438,383.723 113.441,383.625 113.441,383.532L113.441,383.319ZM113.25,382.819C113.328,382.711 113.387,382.586 113.426,382.444C113.465,382.302 113.495,382.109 113.514,381.864C113.534,381.658 113.543,381.406 113.543,381.107L113.543,380.32C113.543,380.095 113.541,379.855 113.536,379.6C113.531,379.345 113.524,379.169 113.514,379.071C113.495,378.904 113.426,378.748 113.308,378.601C113.191,378.454 113.039,378.326 112.853,378.219C112.667,378.111 112.449,378.025 112.199,377.961C111.949,377.898 111.687,377.866 111.412,377.866C111.148,377.866 110.898,377.91 110.663,377.998C110.428,378.086 110.224,378.228 110.053,378.424C109.881,378.62 109.747,378.873 109.649,379.181C109.551,379.49 109.502,379.87 109.502,380.32C109.502,380.781 109.565,381.2 109.693,381.577C109.82,381.954 109.996,382.28 110.222,382.554C110.447,382.829 110.717,383.042 111.03,383.194C111.344,383.346 111.687,383.422 112.059,383.422C112.206,383.422 112.343,383.4 112.471,383.355C112.598,383.311 112.713,383.257 112.816,383.194C112.919,383.13 113.009,383.064 113.088,382.995C113.166,382.927 113.22,382.868 113.25,382.819Z" style="fill-rule:nonzero;"/>
            <path d="M123.362,382.775C123.254,382.892 123.087,383.054 122.862,383.26C122.636,383.466 122.365,383.671 122.046,383.877C121.728,384.083 121.372,384.259 120.981,384.406C120.589,384.553 120.172,384.627 119.731,384.627C119.329,384.627 118.938,384.566 118.555,384.443C118.173,384.321 117.83,384.134 117.527,383.885C117.223,383.635 116.98,383.316 116.799,382.929C116.618,382.542 116.527,382.079 116.527,381.54C116.527,381.099 116.557,380.72 116.615,380.401C116.674,380.083 116.752,379.804 116.85,379.563C116.948,379.323 117.059,379.118 117.181,378.946C117.304,378.775 117.429,378.62 117.556,378.483C117.713,378.307 117.904,378.14 118.129,377.983C118.355,377.827 118.597,377.685 118.857,377.557C119.116,377.43 119.391,377.329 119.68,377.256C119.969,377.182 120.26,377.146 120.554,377.146C121.083,377.146 121.497,377.234 121.796,377.41C122.095,377.587 122.245,377.832 122.245,378.145C122.245,378.341 122.186,378.522 122.068,378.689C122.166,378.66 122.291,378.611 122.443,378.542C122.595,378.473 122.749,378.402 122.906,378.329C123.063,378.255 123.202,378.189 123.325,378.13C123.447,378.072 123.528,378.028 123.567,377.998C123.587,377.979 123.609,377.971 123.633,377.976C123.658,377.981 123.67,377.998 123.67,378.028C123.67,378.155 123.646,378.26 123.597,378.344C123.548,378.427 123.489,378.493 123.42,378.542C123.264,378.64 123.038,378.762 122.744,378.909C122.45,379.056 122.124,379.211 121.767,379.372C121.409,379.534 121.039,379.696 120.657,379.857C120.275,380.019 119.915,380.173 119.577,380.32C119.239,380.467 118.945,380.597 118.695,380.71C118.445,380.823 118.276,380.903 118.188,380.952C118.188,381.286 118.254,381.597 118.386,381.886C118.519,382.175 118.702,382.427 118.938,382.643C119.173,382.858 119.454,383.027 119.783,383.15C120.111,383.272 120.471,383.333 120.863,383.333C121.216,383.333 121.534,383.297 121.818,383.223C122.102,383.15 122.342,383.066 122.538,382.973C122.734,382.88 122.889,382.797 123.001,382.723C123.114,382.65 123.175,382.613 123.185,382.613C123.224,382.613 123.264,382.63 123.303,382.665C123.342,382.699 123.362,382.736 123.362,382.775ZM118.188,380.526C118.355,380.467 118.543,380.396 118.754,380.313C118.964,380.23 119.17,380.139 119.371,380.041C119.572,379.943 119.756,379.85 119.922,379.762C120.089,379.674 120.216,379.595 120.304,379.527C120.481,379.399 120.569,379.184 120.569,378.88C120.569,378.762 120.547,378.64 120.503,378.513C120.459,378.385 120.393,378.27 120.304,378.167C120.216,378.064 120.108,377.981 119.981,377.917C119.854,377.854 119.712,377.822 119.555,377.822C119.418,377.822 119.271,377.868 119.114,377.961C118.957,378.054 118.81,378.206 118.673,378.417C118.536,378.628 118.421,378.907 118.328,379.255C118.235,379.603 118.188,380.026 118.188,380.526Z" style="fill-rule:nonzero;"/>
            <path d="M130.181,378.248C130.073,378.336 129.946,378.446 129.799,378.579C129.652,378.711 129.498,378.838 129.336,378.961C129.174,379.083 129.01,379.189 128.844,379.277C128.677,379.365 128.516,379.409 128.359,379.409C128.222,379.409 128.099,379.377 127.991,379.314C127.884,379.25 127.783,379.181 127.69,379.108C127.597,379.034 127.506,378.966 127.418,378.902C127.33,378.838 127.237,378.807 127.139,378.807C126.874,378.807 126.651,378.914 126.47,379.13C126.289,379.345 126.142,379.62 126.029,379.953C125.916,380.286 125.833,380.649 125.779,381.041C125.725,381.432 125.698,381.81 125.698,382.172C125.698,382.476 125.711,382.723 125.735,382.915C125.76,383.106 125.796,383.257 125.845,383.37C125.894,383.483 125.961,383.559 126.044,383.598C126.127,383.637 126.228,383.657 126.345,383.657C126.473,383.657 126.61,383.637 126.757,383.598C126.786,383.588 126.808,383.608 126.823,383.657C126.838,383.706 126.845,383.745 126.845,383.774C126.845,383.794 126.83,383.816 126.801,383.84C126.771,383.865 126.752,383.877 126.742,383.877C126.526,383.965 126.306,384.061 126.081,384.164C125.855,384.267 125.669,384.352 125.522,384.421C125.385,384.48 125.221,384.544 125.03,384.612C124.839,384.681 124.675,384.715 124.537,384.715C124.381,384.715 124.251,384.69 124.148,384.641C124.045,384.592 123.994,384.544 123.994,384.495C123.994,384.446 124.006,384.401 124.03,384.362C124.055,384.323 124.077,384.25 124.096,384.142C124.116,383.995 124.138,383.821 124.163,383.62C124.187,383.419 124.212,383.201 124.236,382.966C124.261,382.731 124.28,382.488 124.295,382.238C124.31,381.989 124.317,381.741 124.317,381.496C124.317,380.947 124.3,380.482 124.265,380.1C124.231,379.718 124.17,379.409 124.082,379.174C123.994,378.939 123.874,378.77 123.722,378.667C123.57,378.564 123.376,378.513 123.141,378.513L123.009,378.513C122.97,378.513 122.93,378.517 122.891,378.527C122.832,378.527 122.803,378.498 122.803,378.439C122.803,378.38 122.832,378.336 122.891,378.307C122.999,378.238 123.166,378.138 123.391,378.005C123.616,377.873 123.849,377.746 124.089,377.623C124.329,377.501 124.562,377.391 124.787,377.293C125.013,377.195 125.179,377.146 125.287,377.146C125.414,377.146 125.522,377.187 125.61,377.271C125.698,377.354 125.765,377.459 125.809,377.587C125.853,377.714 125.885,377.859 125.904,378.02C125.924,378.182 125.934,378.341 125.934,378.498C125.934,378.615 125.931,378.738 125.926,378.865C125.921,378.993 125.919,379.13 125.919,379.277C126.36,378.63 126.757,378.128 127.109,377.77C127.462,377.413 127.795,377.234 128.109,377.234C128.226,377.234 128.342,377.283 128.454,377.381C128.567,377.479 128.687,377.589 128.814,377.712C128.942,377.834 129.074,377.944 129.211,378.042C129.348,378.14 129.49,378.189 129.637,378.189C129.765,378.189 129.858,378.175 129.917,378.145C129.975,378.116 130.024,378.091 130.064,378.072C130.142,378.072 130.181,378.126 130.181,378.233L130.181,378.248Z" style="fill-rule:nonzero;"/>
        </g>
        <g transform="matrix(1,0,0,1,-81.4637,-18.7119)">
            <text x="85.353px" y="355.099px" style="font-family:'Luminari-Regular', 'Luminari';font-size:14.698px;">Flame</text>
            <text x="85.199px" y="369.797px" style="font-family:'Luminari-Regular', 'Luminari';font-size:14.698px;">u16CC</text>
            <text x="82.781px" y="384.495px" style="font-family:'Luminari-Regular', 'Luminari';font-size:14.698px;">Sender</text>
        </g>
        <g transform="matrix(0.0219124,0,0,0.0248558,13.8572,295.414)">
            <g transform="matrix(1,0,0,1,-143.343,98.6554)">
                <ellipse cx="360.896" cy="293.762" rx="136.961" ry="230.443" style="fill:rgb(102,126,153);stroke:black;stroke-width:63.81px;"/>
            </g>
            <g transform="matrix(1,0,0,1,445.551,98.6554)">
                <ellipse cx="360.896" cy="293.762" rx="136.961" ry="230.443" style="fill:rgb(102,126,153);stroke:black;stroke-width:63.81px;"/>
            </g>
            <g transform="matrix(1,0,0,1,-34.3236,-20.6488)">
                <ellipse cx="546.324" cy="643.509" rx="431.408" ry="296.899" style="fill:rgb(102,126,153);stroke:black;stroke-width:63.81px;"/>
            </g>
            <circle cx="406.664" cy="569.758" r="105.336" style="fill:rgb(102,126,153);stroke:black;stroke-width:63.81px;"/>
            <g transform="matrix(1,0,0,1,210.672,0)">
                <circle cx="406.664" cy="569.758" r="105.336" style="fill:rgb(102,126,153);stroke:black;stroke-width:63.81px;"/>
            </g>
            <g transform="matrix(1,0,0,1,-53.1856,50.0357)">
                <ellipse cx="565.186" cy="671.455" rx="210.672" ry="98.631" style="fill:rgb(102,126,153);stroke:black;stroke-width:63.81px;"/>
            </g>
            <g transform="matrix(51.2,0,0,45.1371,0.670978,88.9676)">
                <path d="M12.057,13.791C12.057,13.668 11.958,13.568 11.835,13.568L8.139,13.568C8.016,13.568 7.916,13.668 7.916,13.791L7.916,14.236C7.916,14.359 8.016,14.458 8.139,14.458L11.835,14.458C11.958,14.458 12.057,14.359 12.057,14.236L12.057,13.791Z"/>
            </g>
        </g>
    </g>
</svg>
