<?xml version="1.0" encoding="UTF-8" standalone="no"?>
<!DOCTYPE svg PUBLIC "-//W3C//DTD SVG 1.1//EN" "http://www.w3.org/Graphics/SVG/1.1/DTD/svg11.dtd">
<svg width="100%" height="100%" viewBox="0 0 90 380" version="1.1" xmlns="http://www.w3.org/2000/svg" xmlns:xlink="http://www.w3.org/1999/xlink" xml:space="preserve" xmlns:serif="http://www.serif.com/" style="fill-rule:evenodd;clip-rule:evenodd;stroke-linecap:round;stroke-linejoin:round;stroke-miterlimit:1.5;">
    <g transform="matrix(0.911869,0,0,2.17398,-19.9082,-103.912)">
        <rect x="21.832" y="47.798" width="98.698" height="174.795" style="fill:rgb(102,126,153);"/>
    </g>
    <g transform="matrix(1,0,0,1,-4.24779,0)">
        <g id="Connect-ledbutton" serif:id="Connect#ledbutton" transform="matrix(1,0,0,1,-31.7734,45.9576)">
            <circle cx="101.308" cy="310.24" r="9.898" style="fill:rgb(115,115,115);"/>
        </g>
        <g transform="matrix(1,0,0,1,-31.3084,217.639)">
            <path d="M89.778,116.846C89.778,117.006 89.823,117.13 89.913,117.216C90.003,117.303 90.125,117.346 90.278,117.346C90.471,117.346 90.6,117.29 90.663,117.176C90.726,117.063 90.765,116.95 90.778,116.836L91.798,116.836C91.798,117.283 91.661,117.643 91.388,117.916C91.255,118.056 91.095,118.166 90.908,118.246C90.721,118.326 90.511,118.366 90.278,118.366C89.958,118.366 89.686,118.3 89.463,118.166C89.24,118.033 89.068,117.856 88.948,117.636C88.875,117.503 88.825,117.35 88.798,117.176C88.771,117.003 88.758,116.813 88.758,116.606L88.758,114.936C88.758,114.73 88.771,114.54 88.798,114.366C88.825,114.193 88.875,114.04 88.948,113.906C89.068,113.686 89.24,113.51 89.463,113.376C89.686,113.243 89.958,113.176 90.278,113.176C90.511,113.176 90.723,113.216 90.913,113.296C91.103,113.376 91.265,113.486 91.398,113.626C91.665,113.926 91.798,114.316 91.798,114.796L90.778,114.796C90.778,114.59 90.733,114.438 90.643,114.341C90.553,114.245 90.431,114.196 90.278,114.196C90.125,114.196 90.003,114.245 89.913,114.341C89.823,114.438 89.778,114.583 89.778,114.776L89.778,116.846Z" style="fill-rule:nonzero;"/>
            <path d="M92.308,114.936C92.308,114.73 92.321,114.54 92.348,114.366C92.375,114.193 92.425,114.04 92.498,113.906C92.618,113.686 92.79,113.51 93.013,113.376C93.236,113.243 93.508,113.176 93.828,113.176C94.148,113.176 94.42,113.243 94.643,113.376C94.866,113.51 95.038,113.686 95.158,113.906C95.231,114.04 95.281,114.193 95.308,114.366C95.335,114.54 95.348,114.73 95.348,114.936L95.348,116.606C95.348,116.813 95.335,117.003 95.308,117.176C95.281,117.35 95.231,117.503 95.158,117.636C95.038,117.856 94.866,118.033 94.643,118.166C94.42,118.3 94.148,118.366 93.828,118.366C93.508,118.366 93.236,118.3 93.013,118.166C92.79,118.033 92.618,117.856 92.498,117.636C92.425,117.503 92.375,117.35 92.348,117.176C92.321,117.003 92.308,116.813 92.308,116.606L92.308,114.936ZM93.328,116.766C93.328,116.96 93.373,117.105 93.463,117.201C93.553,117.298 93.675,117.346 93.828,117.346C93.981,117.346 94.103,117.298 94.193,117.201C94.283,117.105 94.328,116.96 94.328,116.766L94.328,114.776C94.328,114.583 94.283,114.438 94.193,114.341C94.103,114.245 93.981,114.196 93.828,114.196C93.675,114.196 93.553,114.245 93.463,114.341C93.373,114.438 93.328,114.583 93.328,114.776L93.328,116.766Z" style="fill-rule:nonzero;"/>
            <path d="M96.098,118.306L96.098,113.236L97.118,113.236L97.118,113.726L97.138,113.726C97.245,113.566 97.373,113.435 97.523,113.331C97.673,113.228 97.865,113.176 98.098,113.176C98.225,113.176 98.351,113.198 98.478,113.241C98.605,113.285 98.718,113.356 98.818,113.456C98.918,113.556 98.998,113.685 99.058,113.841C99.118,113.998 99.148,114.19 99.148,114.416L99.148,118.306L98.128,118.306L98.128,114.796C98.128,114.61 98.085,114.463 97.998,114.356C97.911,114.25 97.788,114.196 97.628,114.196C97.435,114.196 97.301,114.256 97.228,114.376C97.155,114.496 97.118,114.67 97.118,114.896L97.118,118.306L96.098,118.306Z" style="fill-rule:nonzero;"/>
            <path d="M99.988,118.306L99.988,113.236L101.008,113.236L101.008,113.726L101.028,113.726C101.135,113.566 101.263,113.435 101.413,113.331C101.563,113.228 101.755,113.176 101.988,113.176C102.115,113.176 102.241,113.198 102.368,113.241C102.495,113.285 102.608,113.356 102.708,113.456C102.808,113.556 102.888,113.685 102.948,113.841C103.008,113.998 103.038,114.19 103.038,114.416L103.038,118.306L102.018,118.306L102.018,114.796C102.018,114.61 101.975,114.463 101.888,114.356C101.801,114.25 101.678,114.196 101.518,114.196C101.325,114.196 101.191,114.256 101.118,114.376C101.045,114.496 101.008,114.67 101.008,114.896L101.008,118.306L99.988,118.306Z" style="fill-rule:nonzero;"/>
            <path d="M106.828,116.156L104.808,116.156L104.808,116.846C104.808,117.006 104.853,117.13 104.943,117.216C105.033,117.303 105.155,117.346 105.308,117.346C105.501,117.346 105.63,117.29 105.693,117.176C105.756,117.063 105.795,116.95 105.808,116.836L106.828,116.836C106.828,117.283 106.691,117.643 106.418,117.916C106.285,118.056 106.125,118.166 105.938,118.246C105.751,118.326 105.541,118.366 105.308,118.366C104.988,118.366 104.716,118.3 104.493,118.166C104.27,118.033 104.098,117.856 103.978,117.636C103.905,117.503 103.855,117.35 103.828,117.176C103.801,117.003 103.788,116.813 103.788,116.606L103.788,114.936C103.788,114.73 103.801,114.54 103.828,114.366C103.855,114.193 103.905,114.04 103.978,113.906C104.098,113.686 104.27,113.51 104.493,113.376C104.716,113.243 104.988,113.176 105.308,113.176C105.541,113.176 105.753,113.216 105.943,113.296C106.133,113.376 106.295,113.486 106.428,113.626C106.695,113.926 106.828,114.303 106.828,114.756L106.828,116.156ZM104.808,115.356L105.808,115.356L105.808,114.776C105.808,114.583 105.763,114.438 105.673,114.341C105.583,114.245 105.461,114.196 105.308,114.196C105.155,114.196 105.033,114.245 104.943,114.341C104.853,114.438 104.808,114.583 104.808,114.776L104.808,115.356Z" style="fill-rule:nonzero;"/>
            <path d="M108.658,116.846C108.658,117.006 108.703,117.13 108.793,117.216C108.883,117.303 109.005,117.346 109.158,117.346C109.351,117.346 109.48,117.29 109.543,117.176C109.606,117.063 109.645,116.95 109.658,116.836L110.678,116.836C110.678,117.283 110.541,117.643 110.268,117.916C110.135,118.056 109.975,118.166 109.788,118.246C109.601,118.326 109.391,118.366 109.158,118.366C108.838,118.366 108.566,118.3 108.343,118.166C108.12,118.033 107.948,117.856 107.828,117.636C107.755,117.503 107.705,117.35 107.678,117.176C107.651,117.003 107.638,116.813 107.638,116.606L107.638,114.936C107.638,114.73 107.651,114.54 107.678,114.366C107.705,114.193 107.755,114.04 107.828,113.906C107.948,113.686 108.12,113.51 108.343,113.376C108.566,113.243 108.838,113.176 109.158,113.176C109.391,113.176 109.603,113.216 109.793,113.296C109.983,113.376 110.145,113.486 110.278,113.626C110.545,113.926 110.678,114.316 110.678,114.796L109.658,114.796C109.658,114.59 109.613,114.438 109.523,114.341C109.433,114.245 109.311,114.196 109.158,114.196C109.005,114.196 108.883,114.245 108.793,114.341C108.703,114.438 108.658,114.583 108.658,114.776L108.658,116.846Z" style="fill-rule:nonzero;"/>
            <path d="M111.278,113.236L111.278,111.696L112.298,111.696L112.298,113.236L112.928,113.236L112.928,114.036L112.298,114.036L112.298,116.846C112.298,116.966 112.31,117.06 112.333,117.126C112.356,117.193 112.395,117.243 112.448,117.276C112.501,117.31 112.566,117.33 112.643,117.336C112.72,117.343 112.815,117.346 112.928,117.346L112.928,118.306L112.508,118.306C112.275,118.306 112.08,118.27 111.923,118.196C111.766,118.123 111.641,118.03 111.548,117.916C111.455,117.803 111.386,117.675 111.343,117.531C111.3,117.388 111.278,117.25 111.278,117.116L111.278,114.036L110.768,114.036L110.768,113.236L111.278,113.236Z" style="fill-rule:nonzero;"/>
        </g>
        <g transform="matrix(1,0,0,1,-31.3084,217.639)">
            <text x="88.278px" y="118.306px" style="font-family:'DINCondensed-Bold', 'DIN Condensed';font-weight:700;font-stretch:condensed;font-size:10px;">connect</text>
        </g>
    </g>
    <g transform="matrix(1,0,0,1,-50.4489,-0.18458)">
        <g id="Reset-input" serif:id="Reset#input" transform="matrix(0.175002,0,0,0.175002,51.0093,323.136)">
            <rect x="53.94" y="106.916" width="161.978" height="161.978" style="fill:rgb(204,204,204);"/>
        </g>
        <g transform="matrix(1,0,0,1,-22.6707,217.823)">
            <path d="M89.618,118.306L89.618,113.236L90.638,113.236L90.638,113.776C90.845,113.59 91.048,113.443 91.248,113.336C91.448,113.23 91.695,113.176 91.988,113.176L91.988,114.256C91.888,114.216 91.785,114.196 91.678,114.196C91.571,114.196 91.456,114.215 91.333,114.251C91.21,114.288 91.098,114.35 90.998,114.436C90.891,114.523 90.805,114.636 90.738,114.776C90.671,114.916 90.638,115.09 90.638,115.296L90.638,118.306L89.618,118.306Z" style="fill-rule:nonzero;"/>
            <path d="M95.348,116.156L93.328,116.156L93.328,116.846C93.328,117.006 93.373,117.13 93.463,117.216C93.553,117.303 93.675,117.346 93.828,117.346C94.021,117.346 94.15,117.29 94.213,117.176C94.276,117.063 94.315,116.95 94.328,116.836L95.348,116.836C95.348,117.283 95.211,117.643 94.938,117.916C94.805,118.056 94.645,118.166 94.458,118.246C94.271,118.326 94.061,118.366 93.828,118.366C93.508,118.366 93.236,118.3 93.013,118.166C92.79,118.033 92.618,117.856 92.498,117.636C92.425,117.503 92.375,117.35 92.348,117.176C92.321,117.003 92.308,116.813 92.308,116.606L92.308,114.936C92.308,114.73 92.321,114.54 92.348,114.366C92.375,114.193 92.425,114.04 92.498,113.906C92.618,113.686 92.79,113.51 93.013,113.376C93.236,113.243 93.508,113.176 93.828,113.176C94.061,113.176 94.273,113.216 94.463,113.296C94.653,113.376 94.815,113.486 94.948,113.626C95.215,113.926 95.348,114.303 95.348,114.756L95.348,116.156ZM93.328,115.356L94.328,115.356L94.328,114.776C94.328,114.583 94.283,114.438 94.193,114.341C94.103,114.245 93.981,114.196 93.828,114.196C93.675,114.196 93.553,114.245 93.463,114.341C93.373,114.438 93.328,114.583 93.328,114.776L93.328,115.356Z" style="fill-rule:nonzero;"/>
            <path d="M97.948,114.656C97.941,114.483 97.886,114.353 97.783,114.266C97.68,114.18 97.561,114.136 97.428,114.136C97.268,114.136 97.145,114.188 97.058,114.291C96.971,114.395 96.928,114.513 96.928,114.646C96.928,114.74 96.951,114.831 96.998,114.921C97.045,115.011 97.165,115.093 97.358,115.166L97.958,115.406C98.338,115.553 98.6,115.753 98.743,116.006C98.886,116.26 98.958,116.536 98.958,116.836C98.958,117.05 98.92,117.248 98.843,117.431C98.766,117.615 98.661,117.776 98.528,117.916C98.395,118.056 98.235,118.166 98.048,118.246C97.861,118.326 97.658,118.366 97.438,118.366C97.025,118.366 96.678,118.236 96.398,117.976C96.258,117.85 96.145,117.691 96.058,117.501C95.971,117.311 95.925,117.09 95.918,116.836L96.878,116.836C96.898,116.976 96.946,117.106 97.023,117.226C97.1,117.346 97.235,117.406 97.428,117.406C97.575,117.406 97.706,117.358 97.823,117.261C97.94,117.165 97.998,117.03 97.998,116.856C97.998,116.716 97.961,116.596 97.888,116.496C97.815,116.396 97.681,116.31 97.488,116.236L96.998,116.056C96.678,115.936 96.426,115.758 96.243,115.521C96.06,115.285 95.968,114.996 95.968,114.656C95.968,114.443 96.008,114.245 96.088,114.061C96.168,113.878 96.278,113.72 96.418,113.586C96.551,113.453 96.708,113.351 96.888,113.281C97.068,113.211 97.261,113.176 97.468,113.176C97.675,113.176 97.866,113.213 98.043,113.286C98.22,113.36 98.371,113.463 98.498,113.596C98.625,113.73 98.725,113.888 98.798,114.071C98.871,114.255 98.908,114.45 98.908,114.656L97.948,114.656Z" style="fill-rule:nonzero;"/>
            <path d="M102.568,116.156L100.548,116.156L100.548,116.846C100.548,117.006 100.593,117.13 100.683,117.216C100.773,117.303 100.895,117.346 101.048,117.346C101.241,117.346 101.37,117.29 101.433,117.176C101.496,117.063 101.535,116.95 101.548,116.836L102.568,116.836C102.568,117.283 102.431,117.643 102.158,117.916C102.025,118.056 101.865,118.166 101.678,118.246C101.491,118.326 101.281,118.366 101.048,118.366C100.728,118.366 100.456,118.3 100.233,118.166C100.01,118.033 99.838,117.856 99.718,117.636C99.645,117.503 99.595,117.35 99.568,117.176C99.541,117.003 99.528,116.813 99.528,116.606L99.528,114.936C99.528,114.73 99.541,114.54 99.568,114.366C99.595,114.193 99.645,114.04 99.718,113.906C99.838,113.686 100.01,113.51 100.233,113.376C100.456,113.243 100.728,113.176 101.048,113.176C101.281,113.176 101.493,113.216 101.683,113.296C101.873,113.376 102.035,113.486 102.168,113.626C102.435,113.926 102.568,114.303 102.568,114.756L102.568,116.156ZM100.548,115.356L101.548,115.356L101.548,114.776C101.548,114.583 101.503,114.438 101.413,114.341C101.323,114.245 101.201,114.196 101.048,114.196C100.895,114.196 100.773,114.245 100.683,114.341C100.593,114.438 100.548,114.583 100.548,114.776L100.548,115.356Z" style="fill-rule:nonzero;"/>
            <path d="M103.318,113.236L103.318,111.696L104.338,111.696L104.338,113.236L104.968,113.236L104.968,114.036L104.338,114.036L104.338,116.846C104.338,116.966 104.35,117.06 104.373,117.126C104.396,117.193 104.435,117.243 104.488,117.276C104.541,117.31 104.606,117.33 104.683,117.336C104.76,117.343 104.855,117.346 104.968,117.346L104.968,118.306L104.548,118.306C104.315,118.306 104.12,118.27 103.963,118.196C103.806,118.123 103.681,118.03 103.588,117.916C103.495,117.803 103.426,117.675 103.383,117.531C103.34,117.388 103.318,117.25 103.318,117.116L103.318,114.036L102.808,114.036L102.808,113.236L103.318,113.236Z" style="fill-rule:nonzero;"/>
        </g>
        <g transform="matrix(1,0,0,1,-22.6707,217.823)">
            <text x="89.198px" y="118.306px" style="font-family:'DINCondensed-Bold', 'DIN Condensed';font-weight:700;font-stretch:condensed;font-size:10px;">reset</text>
        </g>
    </g>
    <g id="Channel4" transform="matrix(1,0,0,1,-31.3344,179.386)">
        <g transform="matrix(1.14286,0,0,0.851364,24.9058,-28.7907)">
            <rect x="10" y="121.987" width="70" height="77.941" style="fill:rgb(204,51,51);"/>
        </g>
        <g id="Up-button" serif:id="Up#button" transform="matrix(0.758898,0,0,0.758898,63.0759,-109.774)">
            <circle cx="55.661" cy="308.513" r="7.929"/>
        </g>
        <g id="Pattern-lcd-2" serif:id="Pattern#lcd$2" transform="matrix(0.53008,0,0,0.846667,-31.1135,-134.209)">
            <rect x="173.071" y="291.218" width="64.141" height="28.346" style="fill:rgb(13,13,13);"/>
        </g>
        <g id="Down-button" serif:id="Down#button" transform="matrix(0.758898,0,0,0.758898,5.11106,-109.774)">
            <circle cx="55.661" cy="308.513" r="7.929"/>
        </g>
        <g id="Select-input" serif:id="Select#input" transform="matrix(0.175002,0,0,0.175002,54.0153,61.4191)">
            <rect x="53.94" y="106.916" width="161.978" height="161.978" style="fill:rgb(204,204,204);"/>
        </g>
        <g transform="matrix(1,0,0,1,-40.1578,-18.3075)">
            <path d="M90.358,118.306L90.358,116.61L87.11,116.61L87.11,115.074L89.462,106.914L91.19,106.914L88.742,115.074L90.358,115.074L90.358,111.826L91.99,111.826L91.99,115.074L92.774,115.074L92.774,116.61L91.99,116.61L91.99,118.306L90.358,118.306Z" style="fill-rule:nonzero;"/>
        </g>
        <g transform="matrix(1,0,0,1,-40.1578,-18.3075)">
            <text x="86.966px" y="118.306px" style="font-family:'DINCondensed-Bold', 'DIN Condensed';font-weight:700;font-stretch:condensed;font-size:16px;">4</text>
        </g>
    </g>
    <g id="Channel3" transform="matrix(1,0,0,1,-31.3344,107.968)">
        <g transform="matrix(1.14286,0,0,0.851364,24.9058,-28.7907)">
            <rect x="10" y="121.987" width="70" height="77.941" style="fill:rgb(195,204,51);"/>
        </g>
        <g id="Up-button1" serif:id="Up#button" transform="matrix(0.758898,0,0,0.758898,63.0759,-109.774)">
            <circle cx="55.661" cy="308.513" r="7.929"/>
        </g>
        <g id="Pattern-lcd-21" serif:id="Pattern#lcd$2" transform="matrix(0.53008,0,0,0.846667,-31.1135,-134.209)">
            <rect x="173.071" y="291.218" width="64.141" height="28.346" style="fill:rgb(13,13,13);"/>
        </g>
        <g id="Down-button1" serif:id="Down#button" transform="matrix(0.758898,0,0,0.758898,5.11106,-109.774)">
            <circle cx="55.661" cy="308.513" r="7.929"/>
        </g>
        <g id="Select-input1" serif:id="Select#input" transform="matrix(0.175002,0,0,0.175002,54.0153,61.4191)">
            <rect x="53.94" y="106.916" width="161.978" height="161.978" style="fill:rgb(204,204,204);"/>
        </g>
        <g transform="matrix(1,0,0,1,-40.1578,-18.3075)">
            <path d="M89.446,111.714C89.937,111.714 90.275,111.656 90.462,111.538C90.649,111.421 90.742,111.149 90.742,110.722L90.742,109.25C90.742,109.016 90.67,108.824 90.526,108.674C90.382,108.525 90.187,108.45 89.942,108.45C89.654,108.45 89.449,108.541 89.326,108.722C89.203,108.904 89.142,109.08 89.142,109.25L89.142,110.178L87.51,110.178L87.51,109.234C87.51,108.904 87.574,108.589 87.702,108.29C87.83,107.992 88.006,107.736 88.23,107.522C88.454,107.309 88.715,107.138 89.014,107.01C89.313,106.882 89.633,106.818 89.974,106.818C90.422,106.818 90.793,106.906 91.086,107.082C91.379,107.258 91.601,107.437 91.75,107.618C91.857,107.746 91.95,107.874 92.03,108.002C92.11,108.13 92.177,108.285 92.23,108.466C92.326,108.818 92.374,109.341 92.374,110.034C92.374,110.429 92.366,110.749 92.35,110.994C92.334,111.24 92.294,111.442 92.23,111.602C92.155,111.773 92.051,111.917 91.918,112.034C91.785,112.152 91.601,112.28 91.366,112.418C91.622,112.578 91.817,112.728 91.95,112.866C92.083,113.005 92.182,113.165 92.246,113.346C92.31,113.538 92.347,113.765 92.358,114.026C92.369,114.288 92.374,114.621 92.374,115.026C92.374,115.4 92.366,115.709 92.35,115.954C92.334,116.2 92.31,116.402 92.278,116.562C92.246,116.733 92.203,116.877 92.15,116.994C92.097,117.112 92.027,117.234 91.942,117.362C91.739,117.661 91.481,117.909 91.166,118.106C90.851,118.304 90.438,118.402 89.926,118.402C89.67,118.402 89.398,118.36 89.11,118.274C88.822,118.189 88.561,118.05 88.326,117.858C88.091,117.666 87.897,117.416 87.742,117.106C87.587,116.797 87.51,116.418 87.51,115.97L87.51,115.042L89.142,115.042L89.142,115.89C89.142,116.146 89.214,116.357 89.358,116.522C89.502,116.688 89.697,116.77 89.942,116.77C90.187,116.77 90.382,116.688 90.526,116.522C90.67,116.357 90.742,116.136 90.742,115.858L90.742,114.226C90.742,113.778 90.657,113.485 90.486,113.346C90.39,113.261 90.259,113.208 90.094,113.186C89.929,113.165 89.713,113.154 89.446,113.154L89.446,111.714Z" style="fill-rule:nonzero;"/>
        </g>
        <g transform="matrix(1,0,0,1,-40.1578,-18.3075)">
            <text x="86.966px" y="118.306px" style="font-family:'DINCondensed-Bold', 'DIN Condensed';font-weight:700;font-stretch:condensed;font-size:16px;">3</text>
        </g>
    </g>
    <g id="Channel2" transform="matrix(1,0,0,1,-31.3344,36.55)">
        <g transform="matrix(1.14286,0,0,0.851364,24.9058,-28.7907)">
            <rect x="10" y="121.987" width="70" height="77.941" style="fill:rgb(204,105,51);"/>
        </g>
        <g id="Up-button2" serif:id="Up#button" transform="matrix(0.758898,0,0,0.758898,63.0759,-109.774)">
            <circle cx="55.661" cy="308.513" r="7.929"/>
        </g>
        <g id="Pattern-lcd-22" serif:id="Pattern#lcd$2" transform="matrix(0.53008,0,0,0.846667,-31.1135,-134.209)">
            <rect x="173.071" y="291.218" width="64.141" height="28.346" style="fill:rgb(13,13,13);"/>
        </g>
        <g id="Down-button2" serif:id="Down#button" transform="matrix(0.758898,0,0,0.758898,5.11106,-109.774)">
            <circle cx="55.661" cy="308.513" r="7.929"/>
        </g>
        <g id="Select-input2" serif:id="Select#input" transform="matrix(0.175002,0,0,0.175002,54.0153,61.4191)">
            <rect x="53.94" y="106.916" width="161.978" height="161.978" style="fill:rgb(204,204,204);"/>
        </g>
        <g transform="matrix(1,0,0,1,-40.1578,-18.3075)">
            <path d="M87.51,118.306L87.51,116.77L90.454,111.218C90.603,110.941 90.689,110.698 90.71,110.49C90.731,110.282 90.742,110.024 90.742,109.714C90.742,109.576 90.739,109.429 90.734,109.274C90.729,109.12 90.699,108.984 90.646,108.866C90.593,108.749 90.513,108.65 90.406,108.57C90.299,108.49 90.145,108.45 89.942,108.45C89.697,108.45 89.502,108.52 89.358,108.658C89.214,108.797 89.142,109 89.142,109.266L89.142,110.194L87.51,110.194L87.51,109.298C87.51,108.957 87.574,108.637 87.702,108.338C87.83,108.04 88.006,107.778 88.23,107.554C88.443,107.33 88.699,107.152 88.998,107.018C89.297,106.885 89.617,106.818 89.958,106.818C90.385,106.818 90.75,106.896 91.054,107.05C91.358,107.205 91.611,107.416 91.814,107.682C92.006,107.949 92.147,108.253 92.238,108.594C92.329,108.936 92.374,109.298 92.374,109.682C92.374,109.96 92.369,110.192 92.358,110.378C92.347,110.565 92.326,110.744 92.294,110.914C92.262,111.085 92.209,111.256 92.134,111.426C92.059,111.597 91.958,111.805 91.83,112.05L89.43,116.674L92.374,116.674L92.374,118.306L87.51,118.306Z" style="fill-rule:nonzero;"/>
        </g>
        <g transform="matrix(1,0,0,1,-40.1578,-18.3075)">
            <text x="86.966px" y="118.306px" style="font-family:'DINCondensed-Bold', 'DIN Condensed';font-weight:700;font-stretch:condensed;font-size:16px;">2</text>
        </g>
    </g>
    <g id="Channel1" transform="matrix(1,0,0,1,-31.3344,-34.8682)">
        <g transform="matrix(1.14286,0,0,0.851364,24.9058,-28.7907)">
            <rect x="10" y="121.987" width="70" height="77.941" style="fill:rgb(51,204,69);"/>
        </g>
        <g id="Up-button3" serif:id="Up#button" transform="matrix(0.758898,0,0,0.758898,63.0759,-109.774)">
            <circle cx="55.661" cy="308.513" r="7.929"/>
        </g>
        <g id="Pattern-lcd-23" serif:id="Pattern#lcd$2" transform="matrix(0.53008,0,0,0.846667,-31.1135,-134.209)">
            <rect x="173.071" y="291.218" width="64.141" height="28.346" style="fill:rgb(13,13,13);"/>
        </g>
        <g id="Down-button3" serif:id="Down#button" transform="matrix(0.758898,0,0,0.758898,5.11106,-109.774)">
            <circle cx="55.661" cy="308.513" r="7.929"/>
        </g>
        <g id="Drums-switch" serif:id="Drums#switch" transform="matrix(1,0,0,0.7555,27.0272,48.1748)">
            <rect x="68.086" y="48.482" width="11.914" height="25.893" style="fill:rgb(204,51,51);"/>
        </g>
        <g transform="matrix(1,0,0,1,20.5466,-11.3817)">
            <path d="M92.638,113.236L91.618,113.236L91.618,113.006C91.618,112.773 91.563,112.571 91.453,112.401C91.343,112.231 91.158,112.146 90.898,112.146C90.758,112.146 90.645,112.173 90.558,112.226C90.471,112.28 90.401,112.346 90.348,112.426C90.295,112.513 90.258,112.611 90.238,112.721C90.218,112.831 90.208,112.946 90.208,113.066C90.208,113.206 90.213,113.323 90.223,113.416C90.233,113.51 90.258,113.593 90.298,113.666C90.338,113.74 90.396,113.803 90.473,113.856C90.55,113.91 90.655,113.963 90.788,114.016L91.568,114.326C91.795,114.413 91.978,114.515 92.118,114.631C92.258,114.748 92.368,114.883 92.448,115.036C92.521,115.196 92.571,115.378 92.598,115.581C92.625,115.785 92.638,116.016 92.638,116.276C92.638,116.576 92.608,116.855 92.548,117.111C92.488,117.368 92.391,117.586 92.258,117.766C92.118,117.953 91.935,118.1 91.708,118.206C91.481,118.313 91.205,118.366 90.878,118.366C90.631,118.366 90.401,118.323 90.188,118.236C89.975,118.15 89.791,118.03 89.638,117.876C89.485,117.723 89.363,117.545 89.273,117.341C89.183,117.138 89.138,116.916 89.138,116.676L89.138,116.296L90.158,116.296L90.158,116.616C90.158,116.803 90.213,116.971 90.323,117.121C90.433,117.271 90.618,117.346 90.878,117.346C91.051,117.346 91.186,117.321 91.283,117.271C91.38,117.221 91.455,117.15 91.508,117.056C91.561,116.963 91.593,116.851 91.603,116.721C91.613,116.591 91.618,116.446 91.618,116.286C91.618,116.1 91.611,115.946 91.598,115.826C91.585,115.706 91.558,115.61 91.518,115.536C91.471,115.463 91.41,115.403 91.333,115.356C91.256,115.31 91.155,115.26 91.028,115.206L90.298,114.906C89.858,114.726 89.563,114.488 89.413,114.191C89.263,113.895 89.188,113.523 89.188,113.076C89.188,112.81 89.225,112.556 89.298,112.316C89.371,112.076 89.481,111.87 89.628,111.696C89.768,111.523 89.946,111.385 90.163,111.281C90.38,111.178 90.638,111.126 90.938,111.126C91.191,111.126 91.423,111.173 91.633,111.266C91.843,111.36 92.025,111.483 92.178,111.636C92.485,111.956 92.638,112.323 92.638,112.736L92.638,113.236Z" style="fill-rule:nonzero;"/>
        </g>
        <g transform="matrix(1,0,0,1,20.5466,-11.3817)">
            <text x="88.858px" y="118.306px" style="font-family:'DINCondensed-Bold', 'DIN Condensed';font-weight:700;font-stretch:condensed;font-size:10px;">S</text>
        </g>
        <g transform="matrix(1,0,0,1,20.5466,-29.9437)">
            <path d="M89.138,118.306L89.138,111.186L90.648,111.186C91.235,111.186 91.68,111.346 91.983,111.666C92.286,111.986 92.438,112.44 92.438,113.026L92.438,116.356C92.438,117.023 92.276,117.515 91.953,117.831C91.63,118.148 91.165,118.306 90.558,118.306L89.138,118.306ZM90.158,112.146L90.158,117.346L90.628,117.346C90.915,117.346 91.118,117.275 91.238,117.131C91.358,116.988 91.418,116.763 91.418,116.456L91.418,113.026C91.418,112.746 91.361,112.53 91.248,112.376C91.135,112.223 90.928,112.146 90.628,112.146L90.158,112.146Z" style="fill-rule:nonzero;"/>
        </g>
        <g transform="matrix(1,0,0,1,20.5466,-29.9437)">
            <text x="88.658px" y="118.306px" style="font-family:'DINCondensed-Bold', 'DIN Condensed';font-weight:700;font-stretch:condensed;font-size:10px;">D</text>
        </g>
        <g id="Select-input3" serif:id="Select#input" transform="matrix(0.175002,0,0,0.175002,54.0153,61.4191)">
            <rect x="53.94" y="106.916" width="161.978" height="161.978" style="fill:rgb(204,204,204);"/>
        </g>
        <g transform="matrix(1,0,0,1,-40.1578,-18.3075)">
            <path d="M89.446,118.306L89.446,108.642L87.814,109.842L87.814,108.114L89.446,106.914L91.078,106.914L91.078,118.306L89.446,118.306Z" style="fill-rule:nonzero;"/>
        </g>
        <g transform="matrix(1,0,0,1,-40.1578,-18.3075)">
            <text x="86.966px" y="118.306px" style="font-family:'DINCondensed-Bold', 'DIN Condensed';font-weight:700;font-stretch:condensed;font-size:16px;">1</text>
        </g>
    </g>
    <g transform="matrix(1,0,0,1,-7.07574,0.690989)">
        <g transform="matrix(0.816456,0,0,0.816456,-23.4344,-271.482)">
            <path d="M80.435,354.761C80.71,354.761 80.847,354.835 80.847,354.982C80.847,355.119 80.734,355.187 80.509,355.187C80.45,355.187 80.337,355.182 80.171,355.173C80.004,355.163 79.82,355.153 79.619,355.143C79.419,355.133 79.218,355.124 79.017,355.114C78.816,355.104 78.657,355.099 78.539,355.099C77.902,355.099 77.376,355.119 76.959,355.158C76.543,355.197 76.202,355.239 75.938,355.283C75.673,355.327 75.467,355.366 75.32,355.4C75.173,355.435 75.051,355.452 74.953,355.452C74.924,355.452 74.884,355.44 74.835,355.415C74.786,355.391 74.762,355.364 74.762,355.334C74.762,355.266 74.769,355.182 74.784,355.084C74.799,354.987 74.845,354.938 74.924,354.938C75.022,354.938 75.166,354.93 75.357,354.915C75.548,354.901 75.744,354.879 75.945,354.849C76.146,354.82 76.33,354.781 76.496,354.732C76.663,354.683 76.775,354.624 76.834,354.555C76.864,354.467 76.896,354.271 76.93,353.967C76.964,353.664 76.996,353.277 77.025,352.806C77.055,352.336 77.079,351.795 77.099,351.182C77.118,350.57 77.128,349.911 77.128,349.205L77.128,347.449C77.128,346.964 77.121,346.56 77.106,346.236C77.091,345.913 77.069,345.663 77.04,345.487C77.011,345.311 76.971,345.183 76.922,345.105C76.482,345.075 76.141,345.031 75.901,344.972C75.661,344.914 75.541,344.855 75.541,344.796C75.512,344.767 75.497,344.728 75.497,344.679C75.497,344.571 75.614,344.517 75.85,344.517C75.967,344.517 76.241,344.536 76.673,344.576C77.104,344.615 77.608,344.634 78.186,344.634C78.618,344.634 78.968,344.627 79.237,344.612C79.507,344.598 79.727,344.581 79.899,344.561C80.07,344.541 80.207,344.522 80.31,344.502C80.413,344.483 80.509,344.473 80.597,344.473C80.734,344.473 80.803,344.532 80.803,344.649C80.803,344.728 80.761,344.789 80.678,344.833C80.594,344.877 80.492,344.909 80.369,344.928C80.247,344.948 80.114,344.963 79.972,344.972C79.83,344.982 79.7,344.992 79.583,345.002C79.504,345.012 79.426,345.024 79.348,345.039C79.269,345.053 79.206,345.07 79.157,345.09C79.108,345.11 79.063,345.286 79.024,345.619C78.985,345.952 78.951,346.364 78.921,346.854C78.892,347.344 78.87,347.868 78.855,348.426C78.841,348.985 78.833,349.499 78.833,349.97C79.294,349.715 79.74,349.416 80.171,349.073C80.602,348.73 81.038,348.309 81.479,347.809C81.645,347.623 81.819,347.429 82.001,347.229C82.182,347.028 82.351,346.817 82.508,346.597C82.664,346.376 82.792,346.148 82.89,345.913C82.988,345.678 83.037,345.443 83.037,345.208C83.037,345.139 83.017,345.075 82.978,345.017C82.86,345.017 82.738,345.024 82.61,345.039C82.483,345.053 82.363,345.073 82.25,345.097C82.138,345.122 82.04,345.142 81.956,345.156C81.873,345.171 81.817,345.178 81.787,345.178C81.64,345.178 81.567,345.105 81.567,344.958C81.567,344.85 81.594,344.75 81.648,344.656C81.702,344.563 81.783,344.517 81.89,344.517C81.998,344.497 82.184,344.502 82.449,344.532C82.713,344.561 83.061,344.576 83.492,344.576L84.742,344.576C84.84,344.576 84.935,344.573 85.028,344.568C85.121,344.563 85.207,344.556 85.285,344.546C85.374,344.536 85.457,344.532 85.535,344.532C85.702,344.532 85.785,344.581 85.785,344.679C85.785,344.708 85.78,344.728 85.77,344.737C85.643,344.884 85.454,345.08 85.205,345.325C84.955,345.57 84.673,345.832 84.359,346.112C84.046,346.391 83.713,346.685 83.36,346.993C83.007,347.302 82.667,347.596 82.339,347.875C82.01,348.155 81.704,348.412 81.42,348.647C81.136,348.882 80.906,349.073 80.729,349.22C80.974,349.171 81.165,349.147 81.302,349.147C81.802,349.147 82.243,349.242 82.625,349.433C83.007,349.624 83.331,349.872 83.595,350.175C83.86,350.479 84.058,350.822 84.19,351.204C84.323,351.586 84.389,351.969 84.389,352.351C84.389,352.439 84.382,352.532 84.367,352.63C84.352,352.728 84.32,352.816 84.271,352.895C84.418,353.208 84.578,353.561 84.749,353.953C84.92,354.345 85.116,354.715 85.337,355.062C85.557,355.41 85.812,355.712 86.101,355.966C86.39,356.221 86.726,356.368 87.108,356.407C87.216,356.407 87.343,356.38 87.49,356.326C87.637,356.273 87.774,356.216 87.902,356.157C87.931,356.157 87.963,356.189 87.997,356.253C88.031,356.317 88.049,356.373 88.049,356.422C88.049,356.569 87.985,356.691 87.858,356.789C87.73,356.887 87.593,356.936 87.446,356.936C87.181,356.936 86.873,356.87 86.52,356.738C86.167,356.606 85.815,356.42 85.462,356.179C85.109,355.939 84.771,355.655 84.448,355.327C84.124,354.999 83.855,354.634 83.639,354.232C83.6,354.163 83.532,354.021 83.434,353.806C83.336,353.59 83.206,353.338 83.044,353.049C82.882,352.76 82.699,352.449 82.493,352.116C82.287,351.782 82.054,351.471 81.795,351.182C81.535,350.893 81.258,350.638 80.964,350.418C80.67,350.198 80.357,350.053 80.024,349.984C79.828,349.994 79.629,350.068 79.428,350.205C79.228,350.342 79.029,350.523 78.833,350.749L78.833,351.395C78.833,351.738 78.838,352.081 78.848,352.424C78.858,352.767 78.87,353.083 78.885,353.372C78.899,353.661 78.921,353.911 78.951,354.122C78.98,354.332 79.019,354.467 79.068,354.526C79.157,354.624 79.316,354.688 79.546,354.717C79.776,354.746 80.004,354.761 80.229,354.761L80.435,354.761Z" style="fill-rule:nonzero;"/>
            <path d="M93.09,353.38C92.982,353.497 92.816,353.659 92.59,353.865C92.365,354.07 92.093,354.276 91.774,354.482C91.456,354.688 91.101,354.864 90.709,355.011C90.317,355.158 89.901,355.231 89.46,355.231C89.058,355.231 88.666,355.17 88.284,355.048C87.902,354.925 87.559,354.739 87.255,354.489C86.951,354.239 86.709,353.921 86.527,353.534C86.346,353.147 86.255,352.684 86.255,352.145C86.255,351.704 86.285,351.324 86.344,351.006C86.402,350.687 86.481,350.408 86.579,350.168C86.677,349.928 86.787,349.722 86.91,349.551C87.032,349.379 87.157,349.225 87.284,349.088C87.441,348.911 87.632,348.745 87.858,348.588C88.083,348.431 88.325,348.289 88.585,348.162C88.845,348.035 89.119,347.934 89.408,347.861C89.697,347.787 89.989,347.75 90.283,347.75C90.812,347.75 91.226,347.839 91.525,348.015C91.823,348.191 91.973,348.436 91.973,348.75C91.973,348.946 91.914,349.127 91.797,349.294C91.894,349.264 92.019,349.215 92.171,349.147C92.323,349.078 92.478,349.007 92.634,348.934C92.791,348.86 92.931,348.794 93.053,348.735C93.176,348.676 93.256,348.632 93.296,348.603C93.315,348.583 93.337,348.576 93.362,348.581C93.386,348.586 93.399,348.603 93.399,348.632C93.399,348.76 93.374,348.865 93.325,348.948C93.276,349.031 93.217,349.098 93.149,349.147C92.992,349.245 92.767,349.367 92.473,349.514C92.179,349.661 91.853,349.815 91.495,349.977C91.138,350.139 90.768,350.3 90.386,350.462C90.003,350.624 89.643,350.778 89.305,350.925C88.967,351.072 88.673,351.202 88.423,351.315C88.174,351.427 88.005,351.508 87.916,351.557C87.916,351.89 87.982,352.201 88.115,352.49C88.247,352.779 88.431,353.032 88.666,353.247C88.901,353.463 89.183,353.632 89.511,353.754C89.839,353.877 90.199,353.938 90.591,353.938C90.944,353.938 91.262,353.901 91.547,353.828C91.831,353.754 92.071,353.671 92.267,353.578C92.463,353.485 92.617,353.402 92.73,353.328C92.842,353.255 92.904,353.218 92.914,353.218C92.953,353.218 92.992,353.235 93.031,353.269C93.07,353.304 93.09,353.34 93.09,353.38ZM87.916,351.131C88.083,351.072 88.272,351.001 88.482,350.918C88.693,350.834 88.899,350.744 89.099,350.646C89.3,350.548 89.484,350.455 89.651,350.367C89.817,350.278 89.945,350.2 90.033,350.131C90.209,350.004 90.297,349.788 90.297,349.485C90.297,349.367 90.275,349.245 90.231,349.117C90.187,348.99 90.121,348.875 90.033,348.772C89.945,348.669 89.837,348.586 89.709,348.522C89.582,348.458 89.44,348.426 89.283,348.426C89.146,348.426 88.999,348.473 88.842,348.566C88.686,348.659 88.539,348.811 88.401,349.022C88.264,349.232 88.149,349.512 88.056,349.859C87.963,350.207 87.916,350.631 87.916,351.131Z" style="fill-rule:nonzero;"/>
            <path d="M93.061,359.464C93.149,359.366 93.281,359.205 93.457,358.979C93.634,358.754 93.827,358.499 94.038,358.215C94.249,357.931 94.464,357.627 94.685,357.304C94.905,356.98 95.113,356.674 95.309,356.385C95.505,356.096 95.674,355.832 95.816,355.592C95.958,355.351 96.049,355.173 96.088,355.055C95.931,354.644 95.765,354.208 95.589,353.747C95.412,353.286 95.228,352.831 95.037,352.38C94.846,351.929 94.655,351.498 94.464,351.087C94.273,350.675 94.084,350.315 93.898,350.006C93.712,349.698 93.533,349.45 93.362,349.264C93.19,349.078 93.036,348.985 92.899,348.985C92.86,348.985 92.816,348.997 92.767,349.022C92.718,349.046 92.673,349.068 92.634,349.088C92.605,349.107 92.571,349.083 92.531,349.014C92.492,348.946 92.492,348.902 92.531,348.882C92.571,348.853 92.686,348.779 92.877,348.662C93.068,348.544 93.281,348.419 93.516,348.287C93.751,348.155 93.979,348.035 94.2,347.927C94.42,347.819 94.579,347.765 94.677,347.765C94.775,347.765 94.89,347.853 95.023,348.03C95.155,348.206 95.292,348.444 95.434,348.742C95.576,349.041 95.726,349.382 95.882,349.764C96.039,350.146 96.196,350.545 96.353,350.962C96.51,351.378 96.664,351.797 96.816,352.218C96.968,352.64 97.112,353.032 97.249,353.394C97.377,353.198 97.541,352.919 97.742,352.556C97.943,352.194 98.136,351.807 98.322,351.395C98.508,350.984 98.668,350.577 98.8,350.175C98.932,349.774 98.998,349.436 98.998,349.161C98.998,348.877 98.93,348.674 98.793,348.551C98.655,348.429 98.504,348.368 98.337,348.368C98.21,348.368 98.109,348.37 98.036,348.375C97.962,348.38 97.881,348.392 97.793,348.412C97.774,348.412 97.744,348.399 97.705,348.375C97.666,348.351 97.646,348.314 97.646,348.265C97.646,348.216 97.754,348.162 97.97,348.103C98.185,348.044 98.435,347.99 98.719,347.941C99.003,347.892 99.283,347.851 99.557,347.816C99.831,347.782 100.022,347.765 100.13,347.765C100.355,347.765 100.522,347.809 100.63,347.897C100.738,347.986 100.791,348.088 100.791,348.206C100.733,348.441 100.608,348.747 100.417,349.125C100.226,349.502 99.998,349.913 99.733,350.359C99.469,350.805 99.187,351.266 98.888,351.741C98.589,352.216 98.303,352.664 98.028,353.086C97.754,353.507 97.507,353.884 97.286,354.217C97.066,354.55 96.906,354.795 96.808,354.952C96.612,355.256 96.426,355.572 96.25,355.9C96.074,356.228 95.912,356.557 95.765,356.885C95.618,357.213 95.488,357.527 95.375,357.826C95.263,358.124 95.182,358.396 95.133,358.641C95.103,358.788 95.13,358.884 95.214,358.928C95.297,358.972 95.405,358.982 95.537,358.957C95.669,358.933 95.814,358.886 95.971,358.818C96.127,358.749 96.26,358.671 96.367,358.583C96.416,358.543 96.448,358.536 96.463,358.56C96.478,358.585 96.485,358.622 96.485,358.671C96.485,358.72 96.475,358.771 96.456,358.825C96.436,358.879 96.412,358.916 96.382,358.935C96.372,358.935 96.26,358.979 96.044,359.068C95.829,359.156 95.569,359.251 95.265,359.354C94.961,359.457 94.641,359.553 94.302,359.641C93.964,359.729 93.668,359.773 93.413,359.773C93.168,359.773 93.046,359.695 93.046,359.538C93.046,359.518 93.048,359.504 93.053,359.494C93.058,359.484 93.061,359.474 93.061,359.464Z" style="fill-rule:nonzero;"/>
            <path d="M104.069,351.454C104.049,351.454 104.03,351.452 104.01,351.447C103.991,351.442 103.976,351.425 103.966,351.395C103.966,351.386 103.978,351.351 104.003,351.292C104.027,351.234 104.069,351.17 104.128,351.101C104.187,351.033 104.26,350.972 104.348,350.918C104.437,350.864 104.544,350.837 104.672,350.837C104.828,350.837 104.956,350.879 105.054,350.962C105.152,351.045 105.23,351.16 105.289,351.307C105.348,351.454 105.387,351.623 105.407,351.814C105.426,352.005 105.436,352.209 105.436,352.424C105.465,352.659 105.576,352.899 105.767,353.144C105.958,353.389 106.193,353.61 106.472,353.806C106.751,354.002 107.058,354.163 107.391,354.291C107.724,354.418 108.047,354.487 108.361,354.497C109.105,354.516 109.649,354.357 109.992,354.019C110.335,353.681 110.507,353.247 110.507,352.718C110.507,352.277 110.423,351.92 110.257,351.645C110.09,351.371 109.867,351.15 109.588,350.984C109.309,350.817 108.993,350.683 108.64,350.58C108.287,350.477 107.927,350.381 107.56,350.293C107.192,350.205 106.832,350.107 106.479,349.999C106.127,349.891 105.811,349.744 105.531,349.558C105.252,349.372 105.029,349.129 104.863,348.831C104.696,348.532 104.613,348.147 104.613,347.677C104.613,347.226 104.713,346.797 104.914,346.391C105.115,345.984 105.402,345.627 105.774,345.318C106.146,345.009 106.6,344.764 107.134,344.583C107.668,344.402 108.273,344.311 108.949,344.311C109.595,344.311 110.149,344.375 110.61,344.502C111.07,344.63 111.423,344.728 111.668,344.796C111.717,344.718 111.771,344.627 111.829,344.524C111.888,344.421 111.954,344.326 112.028,344.238C112.101,344.149 112.182,344.073 112.27,344.01C112.359,343.946 112.461,343.914 112.579,343.914C112.667,343.914 112.738,343.941 112.792,343.995C112.846,344.049 112.873,344.1 112.873,344.149C112.853,344.198 112.814,344.238 112.755,344.267C112.697,344.296 112.643,344.326 112.594,344.355C112.29,344.512 112.038,344.877 111.837,345.45C111.636,346.023 111.521,346.726 111.491,347.559C111.482,347.579 111.457,347.594 111.418,347.603C111.379,347.613 111.335,347.618 111.286,347.618C111.207,347.618 111.153,347.613 111.124,347.603C111.095,347.309 111.006,347.011 110.859,346.707C110.712,346.403 110.509,346.126 110.249,345.876C109.99,345.627 109.671,345.423 109.294,345.266C108.917,345.11 108.488,345.031 108.008,345.031C107.714,345.031 107.45,345.073 107.214,345.156C106.979,345.24 106.781,345.352 106.619,345.494C106.457,345.636 106.335,345.796 106.252,345.972C106.168,346.148 106.127,346.325 106.127,346.501C106.127,346.913 106.293,347.287 106.626,347.625C106.96,347.963 107.464,348.216 108.14,348.382C108.562,348.49 109,348.61 109.456,348.742C109.911,348.875 110.325,349.054 110.698,349.279C111.07,349.504 111.379,349.788 111.624,350.131C111.869,350.474 111.991,350.91 111.991,351.439C111.991,351.959 111.871,352.456 111.631,352.931C111.391,353.407 111.075,353.825 110.683,354.188C110.291,354.55 109.845,354.84 109.346,355.055C108.846,355.271 108.336,355.378 107.817,355.378C107.415,355.378 107.023,355.351 106.641,355.298C106.259,355.244 105.906,355.18 105.583,355.107C105.26,355.033 104.975,354.955 104.73,354.871C104.485,354.788 104.304,354.717 104.187,354.658C104.275,354.501 104.365,354.335 104.459,354.159C104.552,353.982 104.64,353.796 104.723,353.6C104.806,353.404 104.875,353.201 104.929,352.99C104.983,352.779 105.01,352.556 105.01,352.321C105.01,351.978 104.958,351.719 104.855,351.542C104.753,351.366 104.632,351.278 104.495,351.278C104.397,351.278 104.329,351.297 104.29,351.337C104.25,351.376 104.201,351.435 104.143,351.513L104.069,351.454Z" style="fill-rule:nonzero;"/>
            <path d="M119.84,353.056C119.859,353.037 119.876,353.039 119.891,353.064C119.906,353.088 119.916,353.122 119.92,353.166C119.925,353.211 119.923,353.257 119.913,353.306C119.903,353.355 119.884,353.394 119.854,353.424C119.658,353.61 119.413,353.806 119.119,354.012C118.826,354.217 118.522,354.408 118.208,354.585C118.12,354.634 117.998,354.697 117.841,354.776C117.684,354.854 117.51,354.93 117.319,355.004C117.128,355.077 116.932,355.141 116.731,355.195C116.53,355.249 116.342,355.276 116.165,355.276C115.812,355.276 115.479,355.207 115.166,355.07C114.852,354.933 114.578,354.744 114.343,354.504C114.108,354.264 113.924,353.977 113.792,353.644C113.659,353.311 113.593,352.948 113.593,352.556C113.593,352.135 113.652,351.738 113.77,351.366C113.887,350.994 114.022,350.66 114.174,350.367C114.326,350.073 114.47,349.825 114.607,349.624C114.744,349.423 114.838,349.274 114.887,349.176C114.7,349.166 114.531,349.159 114.379,349.154C114.228,349.149 114.083,349.147 113.946,349.147C113.632,349.147 113.368,349.149 113.152,349.154C112.937,349.159 112.746,349.181 112.579,349.22C112.501,349.24 112.427,349.279 112.359,349.338C112.29,349.396 112.231,349.441 112.182,349.47C112.163,349.45 112.136,349.423 112.101,349.389C112.067,349.355 112.05,349.318 112.05,349.279C112.05,349.259 112.055,349.245 112.065,349.235C112.065,349.225 112.128,349.169 112.256,349.066C112.383,348.963 112.542,348.84 112.733,348.698C112.924,348.556 113.135,348.399 113.365,348.228C113.596,348.057 113.816,347.897 114.027,347.75C114.237,347.603 114.419,347.478 114.571,347.376C114.722,347.273 114.823,347.211 114.872,347.192C114.931,347.172 114.989,347.182 115.048,347.221C115.107,347.26 115.127,347.29 115.107,347.309C115.078,347.329 115.034,347.366 114.975,347.42C114.916,347.474 114.896,347.52 114.916,347.559C115.024,347.647 115.21,347.726 115.474,347.794C115.739,347.863 116.038,347.919 116.371,347.963C116.704,348.008 117.047,348.042 117.4,348.066C117.753,348.091 118.071,348.103 118.355,348.103C118.777,348.103 119.115,348.091 119.369,348.066C119.624,348.042 119.835,348.01 120.001,347.971C120.158,347.932 120.261,347.902 120.31,347.883C120.32,347.883 120.339,347.897 120.369,347.927C120.398,347.956 120.413,347.99 120.413,348.03C120.413,348.049 120.342,348.098 120.2,348.177C120.058,348.255 119.913,348.338 119.766,348.426C119.678,348.475 119.573,348.539 119.45,348.618C119.328,348.696 119.195,348.772 119.053,348.845C118.911,348.919 118.762,348.985 118.605,349.044C118.448,349.103 118.296,349.137 118.149,349.147C118.002,349.166 117.831,349.181 117.635,349.191C117.439,349.201 117.233,349.208 117.018,349.213C116.802,349.218 116.584,349.223 116.364,349.227C116.143,349.232 115.94,349.235 115.754,349.235C115.724,349.284 115.678,349.365 115.614,349.477C115.55,349.59 115.489,349.735 115.43,349.911C115.372,350.087 115.318,350.288 115.269,350.514C115.22,350.739 115.195,350.984 115.195,351.248C115.195,351.65 115.256,352.02 115.379,352.358C115.501,352.696 115.673,352.988 115.893,353.233C116.114,353.478 116.376,353.669 116.68,353.806C116.983,353.943 117.312,354.012 117.664,354.012C117.87,354.012 118.069,353.987 118.26,353.938C118.451,353.889 118.632,353.825 118.803,353.747C118.975,353.669 119.134,353.583 119.281,353.49C119.428,353.397 119.555,353.306 119.663,353.218L119.84,353.056Z" style="fill-rule:nonzero;"/>
            <path d="M126.615,353.38C126.507,353.497 126.341,353.659 126.116,353.865C125.89,354.07 125.618,354.276 125.3,354.482C124.981,354.688 124.626,354.864 124.234,355.011C123.842,355.158 123.426,355.231 122.985,355.231C122.583,355.231 122.191,355.17 121.809,355.048C121.427,354.925 121.084,354.739 120.78,354.489C120.477,354.239 120.234,353.921 120.053,353.534C119.871,353.147 119.781,352.684 119.781,352.145C119.781,351.704 119.81,351.324 119.869,351.006C119.928,350.687 120.006,350.408 120.104,350.168C120.202,349.928 120.312,349.722 120.435,349.551C120.557,349.379 120.682,349.225 120.81,349.088C120.966,348.911 121.158,348.745 121.383,348.588C121.608,348.431 121.851,348.289 122.11,348.162C122.37,348.035 122.644,347.934 122.934,347.861C123.223,347.787 123.514,347.75 123.808,347.75C124.337,347.75 124.751,347.839 125.05,348.015C125.349,348.191 125.498,348.436 125.498,348.75C125.498,348.946 125.439,349.127 125.322,349.294C125.42,349.264 125.545,349.215 125.697,349.147C125.849,349.078 126.003,349.007 126.16,348.934C126.316,348.86 126.456,348.794 126.579,348.735C126.701,348.676 126.782,348.632 126.821,348.603C126.841,348.583 126.863,348.576 126.887,348.581C126.912,348.586 126.924,348.603 126.924,348.632C126.924,348.76 126.899,348.865 126.85,348.948C126.801,349.031 126.743,349.098 126.674,349.147C126.517,349.245 126.292,349.367 125.998,349.514C125.704,349.661 125.378,349.815 125.021,349.977C124.663,350.139 124.293,350.3 123.911,350.462C123.529,350.624 123.169,350.778 122.831,350.925C122.493,351.072 122.199,351.202 121.949,351.315C121.699,351.427 121.53,351.508 121.442,351.557C121.442,351.89 121.508,352.201 121.64,352.49C121.772,352.779 121.956,353.032 122.191,353.247C122.426,353.463 122.708,353.632 123.036,353.754C123.365,353.877 123.725,353.938 124.117,353.938C124.469,353.938 124.788,353.901 125.072,353.828C125.356,353.754 125.596,353.671 125.792,353.578C125.988,353.485 126.142,353.402 126.255,353.328C126.368,353.255 126.429,353.218 126.439,353.218C126.478,353.218 126.517,353.235 126.556,353.269C126.596,353.304 126.615,353.34 126.615,353.38ZM121.442,351.131C121.608,351.072 121.797,351.001 122.008,350.918C122.218,350.834 122.424,350.744 122.625,350.646C122.826,350.548 123.009,350.455 123.176,350.367C123.343,350.278 123.47,350.2 123.558,350.131C123.735,350.004 123.823,349.788 123.823,349.485C123.823,349.367 123.801,349.245 123.757,349.117C123.712,348.99 123.646,348.875 123.558,348.772C123.47,348.669 123.362,348.586 123.235,348.522C123.107,348.458 122.965,348.426 122.809,348.426C122.671,348.426 122.524,348.473 122.368,348.566C122.211,348.659 122.064,348.811 121.927,349.022C121.79,349.232 121.674,349.512 121.581,349.859C121.488,350.207 121.442,350.631 121.442,351.131Z" style="fill-rule:nonzero;"/>
            <path d="M132.215,354.423C131.902,354.619 131.514,354.795 131.054,354.952C130.593,355.109 130.148,355.187 129.716,355.187C129.579,355.187 129.425,355.178 129.254,355.158C129.082,355.138 128.942,355.119 128.835,355.099C128.825,355.285 128.817,355.476 128.813,355.672C128.808,355.868 128.803,356.057 128.798,356.238C128.793,356.42 128.788,356.589 128.783,356.745C128.778,356.902 128.776,357.034 128.776,357.142C128.776,357.642 128.817,357.98 128.901,358.156C128.984,358.333 129.114,358.421 129.29,358.421C129.378,358.421 129.498,358.409 129.65,358.384C129.802,358.36 129.937,358.318 130.055,358.259C130.074,358.24 130.096,358.259 130.121,358.318C130.145,358.377 130.157,358.431 130.157,358.48C130.157,358.489 130.089,358.516 129.952,358.56C129.814,358.605 129.641,358.658 129.43,358.722C129.219,358.786 128.991,358.854 128.746,358.928C128.501,359.001 128.266,359.07 128.041,359.134C127.816,359.197 127.622,359.249 127.46,359.288C127.299,359.327 127.198,359.347 127.159,359.347C127.1,359.347 127.046,359.342 126.997,359.332C126.948,359.322 126.924,359.278 126.924,359.2C126.924,359.151 126.941,359.119 126.975,359.104C127.01,359.09 127.037,359.068 127.056,359.038C127.105,358.979 127.135,358.869 127.144,358.707C127.154,358.546 127.169,358.387 127.188,358.23C127.218,357.848 127.25,357.394 127.284,356.87C127.318,356.346 127.35,355.797 127.38,355.224C127.409,354.651 127.436,354.078 127.46,353.504C127.485,352.931 127.497,352.41 127.497,351.939C127.497,351.273 127.47,350.751 127.416,350.374C127.362,349.997 127.286,349.717 127.188,349.536C127.09,349.355 126.98,349.242 126.858,349.198C126.735,349.154 126.605,349.132 126.468,349.132C126.439,349.132 126.397,349.134 126.343,349.139C126.289,349.144 126.238,349.147 126.189,349.147C126.15,349.147 126.13,349.112 126.13,349.044C126.13,348.995 126.133,348.963 126.138,348.948C126.142,348.934 126.165,348.916 126.204,348.897C126.253,348.867 126.343,348.818 126.476,348.75C126.608,348.681 126.76,348.605 126.931,348.522C127.103,348.439 127.286,348.351 127.482,348.257C127.678,348.164 127.862,348.081 128.034,348.008C128.205,347.934 128.354,347.873 128.482,347.824C128.609,347.775 128.697,347.75 128.746,347.75C128.893,347.75 128.994,347.814 129.048,347.941C129.102,348.069 129.133,348.24 129.143,348.456C129.143,348.544 129.141,348.684 129.136,348.875C129.131,349.066 129.124,349.284 129.114,349.529C129.241,349.392 129.415,349.223 129.636,349.022C129.856,348.821 130.106,348.627 130.385,348.441C130.664,348.255 130.958,348.096 131.267,347.963C131.576,347.831 131.877,347.765 132.171,347.765C132.592,347.765 132.967,347.841 133.295,347.993C133.624,348.145 133.896,348.346 134.111,348.595C134.327,348.845 134.491,349.129 134.603,349.448C134.716,349.766 134.772,350.092 134.772,350.425C134.772,350.896 134.701,351.329 134.559,351.726C134.417,352.123 134.243,352.476 134.038,352.784C133.832,353.093 133.606,353.36 133.362,353.585C133.117,353.811 132.891,353.987 132.685,354.114L132.215,354.423ZM128.908,353.291C128.938,353.399 129.016,353.509 129.143,353.622C129.271,353.735 129.435,353.838 129.636,353.931C129.837,354.024 130.067,354.102 130.326,354.166C130.586,354.23 130.863,354.261 131.157,354.261C131.421,354.261 131.674,354.21 131.914,354.107C132.154,354.004 132.362,353.843 132.538,353.622C132.715,353.402 132.854,353.115 132.957,352.762C133.06,352.41 133.112,351.983 133.112,351.484C133.112,351.131 133.063,350.798 132.965,350.484C132.867,350.171 132.725,349.896 132.538,349.661C132.352,349.426 132.132,349.242 131.877,349.11C131.622,348.978 131.343,348.911 131.039,348.911C130.882,348.911 130.709,348.946 130.518,349.014C130.326,349.083 130.143,349.176 129.966,349.294C129.79,349.411 129.626,349.548 129.474,349.705C129.322,349.862 129.212,350.028 129.143,350.205C129.094,350.322 129.053,350.506 129.018,350.756C128.984,351.006 128.96,351.28 128.945,351.579C128.93,351.878 128.92,352.179 128.915,352.483C128.911,352.787 128.908,353.056 128.908,353.291Z" style="fill-rule:nonzero;"/>
            <path d="M82.669,369.87C82.571,369.87 82.439,369.875 82.272,369.885C82.106,369.895 81.927,369.902 81.736,369.907C81.545,369.912 81.349,369.919 81.148,369.929C80.947,369.939 80.763,369.944 80.597,369.944C79.94,369.944 79.299,369.843 78.671,369.643C78.044,369.442 77.488,369.128 77.003,368.702C76.518,368.276 76.126,367.727 75.827,367.056C75.529,366.385 75.379,365.579 75.379,364.638C75.379,363.776 75.543,363.011 75.872,362.345C76.2,361.679 76.633,361.12 77.172,360.67C77.711,360.219 78.319,359.876 78.995,359.641C79.671,359.406 80.362,359.288 81.067,359.288C81.224,359.288 81.437,359.298 81.707,359.317C81.976,359.337 82.245,359.362 82.515,359.391C82.784,359.42 83.024,359.452 83.235,359.486C83.446,359.521 83.581,359.553 83.639,359.582C83.767,359.239 83.909,358.935 84.066,358.671C84.222,358.406 84.438,358.205 84.712,358.068C84.791,358.039 84.879,358.034 84.977,358.053C85.075,358.073 85.124,358.122 85.124,358.2C85.075,358.289 85.038,358.342 85.014,358.362C84.989,358.382 84.957,358.391 84.918,358.391C84.8,358.391 84.685,358.445 84.573,358.553C84.46,358.661 84.355,358.801 84.257,358.972C84.159,359.143 84.073,359.339 83.999,359.56C83.926,359.78 83.87,360.003 83.83,360.229C83.811,360.336 83.789,360.461 83.764,360.603C83.74,360.746 83.718,360.885 83.698,361.022C83.679,361.16 83.664,361.292 83.654,361.419C83.644,361.547 83.639,361.654 83.639,361.743C83.639,361.792 83.62,361.833 83.581,361.867C83.541,361.902 83.502,361.919 83.463,361.919C83.404,361.919 83.336,361.89 83.257,361.831C83.218,361.586 83.137,361.341 83.015,361.096C82.892,360.851 82.721,360.63 82.5,360.434C82.28,360.238 82.005,360.082 81.677,359.964C81.349,359.847 80.959,359.788 80.509,359.788C80.029,359.788 79.6,359.9 79.223,360.126C78.845,360.351 78.527,360.66 78.267,361.052C78.008,361.444 77.809,361.909 77.672,362.448C77.535,362.987 77.466,363.565 77.466,364.182C77.466,365.035 77.552,365.792 77.723,366.453C77.895,367.115 78.133,367.675 78.436,368.136C78.74,368.597 79.103,368.947 79.524,369.187C79.945,369.427 80.406,369.547 80.906,369.547C81.239,369.547 81.564,369.493 81.883,369.385C82.201,369.278 82.495,369.131 82.765,368.944C83.034,368.758 83.274,368.543 83.485,368.298C83.696,368.053 83.86,367.793 83.977,367.519C83.997,367.48 84.048,367.45 84.132,367.431C84.215,367.411 84.257,367.421 84.257,367.46C84.257,367.587 84.215,367.761 84.132,367.982C84.048,368.202 83.953,368.423 83.845,368.643C83.737,368.864 83.63,369.064 83.522,369.246C83.414,369.427 83.34,369.547 83.301,369.606C83.272,369.674 83.235,369.765 83.191,369.878C83.147,369.99 83.108,370.118 83.073,370.26C83.039,370.402 83.007,370.549 82.978,370.701C82.949,370.853 82.934,371.002 82.934,371.149C82.934,371.306 82.914,371.404 82.875,371.443C82.836,371.482 82.753,371.502 82.625,371.502C82.517,371.502 82.468,371.426 82.478,371.274C82.488,371.122 82.512,370.948 82.552,370.752C82.591,370.556 82.63,370.373 82.669,370.201C82.708,370.03 82.708,369.919 82.669,369.87Z" style="fill-rule:nonzero;"/>
            <path d="M87.24,364.079C87.436,363.903 87.657,363.719 87.902,363.528C88.147,363.337 88.404,363.161 88.673,362.999C88.943,362.838 89.224,362.705 89.518,362.602C89.812,362.499 90.111,362.448 90.415,362.448C90.768,362.448 91.098,362.504 91.407,362.617C91.716,362.73 91.988,362.894 92.223,363.109C92.458,363.325 92.644,363.582 92.781,363.881C92.918,364.18 92.987,364.515 92.987,364.888C92.987,365.642 92.857,366.336 92.598,366.968C92.338,367.6 92.034,368.153 91.686,368.628C91.338,369.104 90.993,369.498 90.65,369.812C90.307,370.125 90.052,370.331 89.886,370.429C89.837,370.458 89.788,370.448 89.739,370.399C89.69,370.35 89.69,370.297 89.739,370.238C89.817,370.179 89.937,370.034 90.099,369.804C90.261,369.574 90.425,369.282 90.591,368.93C90.758,368.577 90.905,368.175 91.032,367.724C91.16,367.274 91.223,366.789 91.223,366.269C91.223,365.838 91.172,365.456 91.069,365.123C90.966,364.79 90.826,364.511 90.65,364.285C90.474,364.06 90.27,363.888 90.04,363.771C89.81,363.653 89.562,363.594 89.298,363.594C89.122,363.594 88.935,363.621 88.739,363.675C88.543,363.729 88.362,363.805 88.196,363.903C88.019,364.011 87.848,364.143 87.681,364.3C87.515,364.457 87.392,364.618 87.314,364.785C87.294,364.824 87.277,364.861 87.262,364.895C87.248,364.929 87.233,364.978 87.218,365.042C87.203,365.106 87.189,365.187 87.174,365.285C87.159,365.383 87.147,365.515 87.137,365.681C87.108,365.966 87.086,366.242 87.071,366.512C87.057,366.781 87.049,367.102 87.049,367.475C87.049,367.955 87.079,368.325 87.137,368.584C87.196,368.844 87.368,368.993 87.652,369.033C87.681,369.033 87.715,369.03 87.755,369.025C87.794,369.02 87.838,369.013 87.887,369.003C87.926,368.993 87.975,368.979 88.034,368.959C88.063,368.959 88.085,368.974 88.1,369.003C88.115,369.033 88.122,369.062 88.122,369.091C88.122,369.121 88.068,369.165 87.96,369.224C87.853,369.282 87.715,369.344 87.549,369.407C87.382,369.471 87.199,369.535 86.998,369.598C86.797,369.662 86.608,369.723 86.432,369.782C86.246,369.831 86.086,369.875 85.954,369.914C85.822,369.954 85.731,369.973 85.682,369.973C85.388,369.973 85.241,369.861 85.241,369.635C85.241,369.586 85.266,369.493 85.315,369.356C85.364,369.219 85.403,369.008 85.432,368.724C85.472,368.312 85.511,367.859 85.55,367.364C85.589,366.87 85.621,366.372 85.646,365.873C85.67,365.373 85.69,364.883 85.704,364.403C85.719,363.923 85.726,363.492 85.726,363.109C85.726,362.404 85.714,361.806 85.69,361.316C85.665,360.826 85.643,360.479 85.623,360.273C85.594,360.018 85.565,359.849 85.535,359.766C85.506,359.682 85.472,359.606 85.432,359.538C85.383,359.45 85.322,359.388 85.249,359.354C85.175,359.32 85.107,359.298 85.043,359.288C84.979,359.278 84.925,359.276 84.881,359.281C84.837,359.286 84.815,359.278 84.815,359.259C84.815,359.121 84.859,359.009 84.947,358.921C85.036,358.832 85.153,358.788 85.3,358.788C85.584,358.788 85.878,358.783 86.182,358.774C86.486,358.764 86.765,358.749 87.02,358.73C87.235,358.71 87.434,358.681 87.615,358.641C87.796,358.602 87.916,358.573 87.975,358.553C88.054,358.543 88.095,358.556 88.1,358.59C88.105,358.624 88.107,358.685 88.107,358.774C88.107,358.832 88.083,358.876 88.034,358.906C87.985,358.935 87.931,358.96 87.872,358.979C87.813,358.999 87.757,359.016 87.703,359.031C87.649,359.046 87.613,359.068 87.593,359.097C87.554,359.156 87.515,359.337 87.475,359.641C87.436,359.945 87.399,360.329 87.365,360.795C87.331,361.26 87.301,361.777 87.277,362.345C87.252,362.913 87.235,363.487 87.226,364.065L87.24,364.079Z" style="fill-rule:nonzero;"/>
            <path d="M98.484,367.504C98.455,367.337 98.425,367.156 98.396,366.96C98.366,366.764 98.337,366.578 98.308,366.402C98.278,366.225 98.251,366.073 98.227,365.946C98.202,365.819 98.185,365.735 98.175,365.696C98.019,365.755 97.842,365.824 97.646,365.902C97.45,365.98 97.254,366.066 97.058,366.159C96.862,366.252 96.676,366.345 96.5,366.438C96.323,366.532 96.176,366.617 96.059,366.696C95.833,366.843 95.662,366.99 95.544,367.137C95.427,367.284 95.368,367.46 95.368,367.666C95.368,367.95 95.451,368.2 95.618,368.415C95.784,368.631 96.044,368.739 96.397,368.739C96.583,368.739 96.777,368.704 96.977,368.636C97.178,368.567 97.364,368.489 97.536,368.401C97.707,368.312 97.857,368.224 97.984,368.136C98.112,368.048 98.2,367.979 98.249,367.93C98.327,367.852 98.388,367.786 98.433,367.732C98.477,367.678 98.494,367.602 98.484,367.504ZM98.058,365.226C97.999,364.922 97.93,364.65 97.852,364.41C97.774,364.17 97.676,363.969 97.558,363.808C97.44,363.646 97.298,363.523 97.132,363.44C96.965,363.357 96.759,363.315 96.514,363.315C96.299,363.315 96.1,363.354 95.919,363.433C95.738,363.511 95.581,363.604 95.449,363.712C95.317,363.82 95.214,363.928 95.14,364.035C95.067,364.143 95.025,364.226 95.015,364.285C95.006,364.364 94.961,364.403 94.883,364.403C94.746,364.403 94.618,364.354 94.501,364.256C94.383,364.158 94.325,364.04 94.325,363.903C94.325,363.825 94.334,363.766 94.354,363.727C94.579,363.599 94.854,363.462 95.177,363.315C95.5,363.168 95.836,363.031 96.184,362.904C96.532,362.776 96.877,362.671 97.22,362.588C97.563,362.504 97.872,362.463 98.146,362.463C98.557,362.463 98.873,362.522 99.094,362.639C99.314,362.757 99.478,362.923 99.586,363.139C99.694,363.354 99.76,363.607 99.785,363.896C99.809,364.185 99.831,364.496 99.851,364.829C99.88,365.329 99.919,365.811 99.968,366.277C100.017,366.742 100.091,367.154 100.189,367.511C100.287,367.869 100.412,368.158 100.564,368.379C100.716,368.599 100.904,368.709 101.13,368.709C101.237,368.709 101.355,368.69 101.482,368.65C101.61,368.611 101.732,368.565 101.85,368.511C101.967,368.457 102.073,368.403 102.166,368.349C102.259,368.295 102.32,368.258 102.349,368.239C102.438,368.239 102.492,368.283 102.511,368.371C102.511,368.42 102.501,368.464 102.482,368.503C102.462,368.523 102.389,368.572 102.261,368.65C102.134,368.729 101.977,368.822 101.791,368.93C101.605,369.037 101.399,369.153 101.174,369.275C100.948,369.398 100.725,369.513 100.505,369.62C100.284,369.728 100.081,369.816 99.895,369.885C99.709,369.954 99.562,369.988 99.454,369.988C99.327,369.988 99.216,369.936 99.123,369.834C99.03,369.731 98.949,369.594 98.881,369.422C98.812,369.251 98.753,369.052 98.704,368.827C98.655,368.601 98.611,368.366 98.572,368.121C98.396,368.268 98.17,368.442 97.896,368.643C97.622,368.844 97.323,369.033 96.999,369.209C96.676,369.385 96.345,369.535 96.007,369.657C95.669,369.78 95.344,369.841 95.03,369.841C94.765,369.841 94.535,369.799 94.339,369.716C94.143,369.633 93.979,369.522 93.847,369.385C93.715,369.248 93.617,369.089 93.553,368.908C93.489,368.726 93.457,368.538 93.457,368.342C93.457,368.028 93.553,367.771 93.744,367.57C93.935,367.369 94.231,367.161 94.633,366.945C94.819,366.848 95.079,366.718 95.412,366.556C95.745,366.394 96.086,366.23 96.434,366.064C96.781,365.897 97.105,365.738 97.404,365.586C97.703,365.434 97.921,365.314 98.058,365.226Z" style="fill-rule:nonzero;"/>
            <path d="M104.128,365.917C104.118,366.005 104.108,366.083 104.098,366.152C104.089,366.22 104.081,366.299 104.076,366.387C104.072,366.475 104.067,366.585 104.062,366.718C104.057,366.85 104.054,367.024 104.054,367.239C104.054,367.592 104.067,367.881 104.091,368.107C104.116,368.332 104.152,368.511 104.201,368.643C104.25,368.775 104.312,368.866 104.385,368.915C104.459,368.964 104.549,368.988 104.657,368.988C104.726,368.988 104.799,368.979 104.877,368.959C104.897,368.959 104.914,368.986 104.929,369.04C104.944,369.094 104.941,369.131 104.922,369.15C104.863,369.199 104.748,369.27 104.576,369.363C104.405,369.456 104.211,369.547 103.996,369.635C103.78,369.723 103.557,369.802 103.327,369.87C103.097,369.939 102.903,369.973 102.746,369.973C102.609,369.973 102.501,369.956 102.423,369.922C102.345,369.887 102.305,369.846 102.305,369.797C102.305,369.748 102.31,369.718 102.32,369.709C102.33,369.699 102.345,369.674 102.364,369.635C102.384,369.586 102.398,369.525 102.408,369.451C102.418,369.378 102.433,369.292 102.452,369.194C102.472,369.057 102.492,368.883 102.511,368.672C102.531,368.462 102.55,368.232 102.57,367.982C102.589,367.732 102.607,367.472 102.621,367.203C102.636,366.933 102.643,366.671 102.643,366.416C102.643,366.309 102.641,366.174 102.636,366.012C102.631,365.851 102.624,365.642 102.614,365.388C102.604,365.103 102.572,364.861 102.518,364.66C102.465,364.459 102.396,364.297 102.313,364.175C102.229,364.053 102.136,363.962 102.033,363.903C101.931,363.844 101.83,363.815 101.732,363.815L101.585,363.815C101.536,363.815 101.487,363.82 101.438,363.83C101.399,363.83 101.379,363.786 101.379,363.697C101.379,363.678 101.387,363.661 101.401,363.646C101.416,363.631 101.463,363.599 101.541,363.55C101.668,363.462 101.84,363.354 102.055,363.227C102.271,363.1 102.492,362.982 102.717,362.874C102.942,362.766 103.155,362.673 103.356,362.595C103.557,362.517 103.711,362.477 103.819,362.477C104.103,362.477 104.245,362.639 104.245,362.962C104.245,363.011 104.241,363.1 104.231,363.227C104.221,363.354 104.214,363.484 104.209,363.616C104.204,363.749 104.196,363.874 104.187,363.991C104.177,364.109 104.172,364.187 104.172,364.226C104.378,364.03 104.598,363.83 104.833,363.624C105.068,363.418 105.323,363.229 105.598,363.058C105.872,362.886 106.161,362.747 106.465,362.639C106.769,362.531 107.082,362.477 107.405,362.477C107.993,362.477 108.476,362.646 108.853,362.984C109.23,363.323 109.419,363.859 109.419,364.594C109.419,364.79 109.407,365.02 109.382,365.285C109.358,365.549 109.331,365.824 109.301,366.108C109.272,366.392 109.245,366.671 109.221,366.945C109.196,367.22 109.184,367.465 109.184,367.68C109.184,368.464 109.439,368.856 109.948,368.856C110.046,368.856 110.156,368.839 110.279,368.805C110.401,368.77 110.519,368.731 110.632,368.687C110.744,368.643 110.845,368.599 110.933,368.555C111.021,368.511 111.08,368.474 111.109,368.445C111.119,368.435 111.131,368.442 111.146,368.467C111.161,368.491 111.173,368.523 111.183,368.562C111.193,368.601 111.195,368.636 111.19,368.665C111.185,368.695 111.178,368.714 111.168,368.724C111.09,368.773 110.921,368.866 110.661,369.003C110.401,369.14 110.112,369.28 109.794,369.422C109.475,369.564 109.159,369.692 108.846,369.804C108.532,369.917 108.282,369.973 108.096,369.973C107.871,369.973 107.717,369.919 107.633,369.812C107.55,369.704 107.508,369.591 107.508,369.473C107.508,369.395 107.521,369.297 107.545,369.18C107.57,369.062 107.601,368.871 107.641,368.606C107.68,368.322 107.717,367.989 107.751,367.607C107.785,367.225 107.802,366.813 107.802,366.372C107.802,365.51 107.643,364.856 107.325,364.41C107.006,363.964 106.607,363.741 106.127,363.741C105.823,363.741 105.554,363.8 105.318,363.918C105.083,364.035 104.882,364.195 104.716,364.395C104.549,364.596 104.417,364.827 104.319,365.086C104.221,365.346 104.157,365.623 104.128,365.917Z" style="fill-rule:nonzero;"/>
            <path d="M113.314,365.917C113.304,366.005 113.294,366.083 113.284,366.152C113.275,366.22 113.267,366.299 113.262,366.387C113.258,366.475 113.253,366.585 113.248,366.718C113.243,366.85 113.24,367.024 113.24,367.239C113.24,367.592 113.253,367.881 113.277,368.107C113.302,368.332 113.338,368.511 113.387,368.643C113.436,368.775 113.498,368.866 113.571,368.915C113.645,368.964 113.735,368.988 113.843,368.988C113.912,368.988 113.985,368.979 114.063,368.959C114.083,368.959 114.1,368.986 114.115,369.04C114.13,369.094 114.127,369.131 114.108,369.15C114.049,369.199 113.934,369.27 113.762,369.363C113.591,369.456 113.397,369.547 113.182,369.635C112.966,369.723 112.743,369.802 112.513,369.87C112.283,369.939 112.089,369.973 111.932,369.973C111.795,369.973 111.687,369.956 111.609,369.922C111.531,369.887 111.491,369.846 111.491,369.797C111.491,369.748 111.496,369.718 111.506,369.709C111.516,369.699 111.531,369.674 111.55,369.635C111.57,369.586 111.584,369.525 111.594,369.451C111.604,369.378 111.619,369.292 111.638,369.194C111.658,369.057 111.678,368.883 111.697,368.672C111.717,368.462 111.736,368.232 111.756,367.982C111.776,367.732 111.793,367.472 111.807,367.203C111.822,366.933 111.829,366.671 111.829,366.416C111.829,366.309 111.827,366.174 111.822,366.012C111.817,365.851 111.81,365.642 111.8,365.388C111.79,365.103 111.758,364.861 111.704,364.66C111.651,364.459 111.582,364.297 111.499,364.175C111.415,364.053 111.322,363.962 111.219,363.903C111.117,363.844 111.016,363.815 110.918,363.815L110.771,363.815C110.722,363.815 110.673,363.82 110.624,363.83C110.585,363.83 110.565,363.786 110.565,363.697C110.565,363.678 110.573,363.661 110.587,363.646C110.602,363.631 110.649,363.599 110.727,363.55C110.854,363.462 111.026,363.354 111.242,363.227C111.457,363.1 111.678,362.982 111.903,362.874C112.128,362.766 112.341,362.673 112.542,362.595C112.743,362.517 112.897,362.477 113.005,362.477C113.289,362.477 113.431,362.639 113.431,362.962C113.431,363.011 113.427,363.1 113.417,363.227C113.407,363.354 113.4,363.484 113.395,363.616C113.39,363.749 113.382,363.874 113.373,363.991C113.363,364.109 113.358,364.187 113.358,364.226C113.564,364.03 113.784,363.83 114.019,363.624C114.255,363.418 114.509,363.229 114.784,363.058C115.058,362.886 115.347,362.747 115.651,362.639C115.955,362.531 116.268,362.477 116.591,362.477C117.179,362.477 117.662,362.646 118.039,362.984C118.416,363.323 118.605,363.859 118.605,364.594C118.605,364.79 118.593,365.02 118.568,365.285C118.544,365.549 118.517,365.824 118.487,366.108C118.458,366.392 118.431,366.671 118.407,366.945C118.382,367.22 118.37,367.465 118.37,367.68C118.37,368.464 118.625,368.856 119.134,368.856C119.232,368.856 119.342,368.839 119.465,368.805C119.587,368.77 119.705,368.731 119.818,368.687C119.93,368.643 120.031,368.599 120.119,368.555C120.207,368.511 120.266,368.474 120.295,368.445C120.305,368.435 120.317,368.442 120.332,368.467C120.347,368.491 120.359,368.523 120.369,368.562C120.379,368.601 120.381,368.636 120.376,368.665C120.371,368.695 120.364,368.714 120.354,368.724C120.276,368.773 120.107,368.866 119.847,369.003C119.587,369.14 119.298,369.28 118.98,369.422C118.661,369.564 118.345,369.692 118.032,369.804C117.718,369.917 117.468,369.973 117.282,369.973C117.057,369.973 116.903,369.919 116.819,369.812C116.736,369.704 116.694,369.591 116.694,369.473C116.694,369.395 116.707,369.297 116.731,369.18C116.756,369.062 116.787,368.871 116.827,368.606C116.866,368.322 116.903,367.989 116.937,367.607C116.971,367.225 116.988,366.813 116.988,366.372C116.988,365.51 116.829,364.856 116.511,364.41C116.192,363.964 115.793,363.741 115.313,363.741C115.009,363.741 114.74,363.8 114.504,363.918C114.269,364.035 114.068,364.195 113.902,364.395C113.735,364.596 113.603,364.827 113.505,365.086C113.407,365.346 113.343,365.623 113.314,365.917Z" style="fill-rule:nonzero;"/>
            <path d="M126.924,368.077C126.816,368.195 126.65,368.356 126.424,368.562C126.199,368.768 125.927,368.974 125.608,369.18C125.29,369.385 124.935,369.562 124.543,369.709C124.151,369.856 123.735,369.929 123.294,369.929C122.892,369.929 122.5,369.868 122.118,369.745C121.736,369.623 121.393,369.437 121.089,369.187C120.785,368.937 120.543,368.619 120.361,368.232C120.18,367.845 120.09,367.382 120.09,366.843C120.09,366.402 120.119,366.022 120.178,365.704C120.236,365.385 120.315,365.106 120.413,364.866C120.511,364.626 120.621,364.42 120.744,364.248C120.866,364.077 120.991,363.923 121.118,363.786C121.275,363.609 121.466,363.443 121.692,363.286C121.917,363.129 122.159,362.987 122.419,362.86C122.679,362.732 122.953,362.632 123.242,362.558C123.531,362.485 123.823,362.448 124.117,362.448C124.646,362.448 125.06,362.536 125.359,362.713C125.657,362.889 125.807,363.134 125.807,363.447C125.807,363.643 125.748,363.825 125.631,363.991C125.729,363.962 125.853,363.913 126.005,363.844C126.157,363.776 126.312,363.705 126.468,363.631C126.625,363.558 126.765,363.492 126.887,363.433C127.01,363.374 127.09,363.33 127.13,363.3C127.149,363.281 127.171,363.274 127.196,363.278C127.22,363.283 127.233,363.3 127.233,363.33C127.233,363.457 127.208,363.563 127.159,363.646C127.11,363.729 127.051,363.795 126.983,363.844C126.826,363.942 126.601,364.065 126.307,364.212C126.013,364.359 125.687,364.513 125.329,364.675C124.972,364.836 124.602,364.998 124.22,365.16C123.837,365.321 123.477,365.476 123.139,365.623C122.801,365.77 122.507,365.9 122.257,366.012C122.008,366.125 121.839,366.206 121.75,366.255C121.75,366.588 121.816,366.899 121.949,367.188C122.081,367.477 122.265,367.729 122.5,367.945C122.735,368.161 123.017,368.33 123.345,368.452C123.673,368.574 124.033,368.636 124.425,368.636C124.778,368.636 125.097,368.599 125.381,368.525C125.665,368.452 125.905,368.369 126.101,368.276C126.297,368.183 126.451,368.099 126.564,368.026C126.677,367.952 126.738,367.916 126.748,367.916C126.787,367.916 126.826,367.933 126.865,367.967C126.904,368.001 126.924,368.038 126.924,368.077ZM121.75,365.828C121.917,365.77 122.106,365.699 122.316,365.615C122.527,365.532 122.733,365.441 122.934,365.343C123.134,365.245 123.318,365.152 123.485,365.064C123.651,364.976 123.779,364.898 123.867,364.829C124.043,364.702 124.131,364.486 124.131,364.182C124.131,364.065 124.109,363.942 124.065,363.815C124.021,363.688 123.955,363.572 123.867,363.47C123.779,363.367 123.671,363.283 123.543,363.22C123.416,363.156 123.274,363.124 123.117,363.124C122.98,363.124 122.833,363.171 122.676,363.264C122.52,363.357 122.373,363.509 122.235,363.719C122.098,363.93 121.983,364.209 121.89,364.557C121.797,364.905 121.75,365.329 121.75,365.828Z" style="fill-rule:nonzero;"/>
            <path d="M131.892,368.298C131.951,368.337 131.98,368.386 131.98,368.445C131.98,368.523 131.867,368.626 131.642,368.753C131.407,368.89 131.096,369.052 130.709,369.238C130.322,369.425 129.937,369.586 129.555,369.723C129.369,369.792 129.202,369.851 129.055,369.9C128.908,369.949 128.776,369.973 128.658,369.973C128.521,369.973 128.352,369.941 128.151,369.878C127.95,369.814 127.776,369.738 127.629,369.65C127.512,369.571 127.419,369.51 127.35,369.466C127.282,369.422 127.247,369.376 127.247,369.327C127.247,369.287 127.26,369.251 127.284,369.216C127.309,369.182 127.331,369.14 127.35,369.091C127.36,369.062 127.37,369.023 127.38,368.974C127.389,368.925 127.394,368.876 127.394,368.827C127.424,368.582 127.455,368.227 127.49,367.761C127.524,367.296 127.551,366.781 127.571,366.218C127.59,365.655 127.607,365.072 127.622,364.469C127.637,363.866 127.644,363.305 127.644,362.786C127.644,362.149 127.642,361.635 127.637,361.243C127.632,360.851 127.62,360.537 127.6,360.302C127.571,359.979 127.531,359.766 127.482,359.663C127.433,359.56 127.38,359.484 127.321,359.435C127.252,359.376 127.186,359.339 127.122,359.325C127.059,359.31 127,359.3 126.946,359.295C126.892,359.29 126.848,359.288 126.814,359.288C126.779,359.288 126.762,359.278 126.762,359.259C126.762,358.935 126.899,358.774 127.174,358.774C127.38,358.774 127.622,358.776 127.901,358.781C128.181,358.786 128.413,358.788 128.599,358.788C128.717,358.788 128.842,358.781 128.974,358.766C129.107,358.752 129.236,358.737 129.364,358.722C129.491,358.707 129.609,358.69 129.716,358.671C129.824,358.651 129.903,358.632 129.952,358.612C129.991,358.602 130.023,358.617 130.047,358.656C130.072,358.695 130.086,358.744 130.091,358.803C130.096,358.862 130.086,358.916 130.062,358.965C130.037,359.014 130.006,359.043 129.966,359.053C129.908,359.063 129.856,359.068 129.812,359.068C129.768,359.068 129.692,359.087 129.584,359.126C129.535,359.146 129.491,359.207 129.452,359.31C129.413,359.413 129.378,359.575 129.349,359.795C129.32,360.016 129.29,360.305 129.261,360.662C129.231,361.02 129.202,361.468 129.173,362.007C129.143,362.438 129.121,362.877 129.107,363.323C129.092,363.768 129.077,364.202 129.062,364.623C129.048,365.045 129.038,365.437 129.033,365.799C129.028,366.162 129.026,366.47 129.026,366.725C129.026,367.009 129.028,367.296 129.033,367.585C129.038,367.874 129.065,368.102 129.114,368.268C129.163,368.425 129.29,368.572 129.496,368.709C129.702,368.846 129.917,368.915 130.143,368.915C130.319,368.915 130.5,368.89 130.687,368.841C130.873,368.793 131.044,368.734 131.201,368.665C131.358,368.597 131.497,368.528 131.62,368.459C131.742,368.391 131.833,368.337 131.892,368.298Z" style="fill-rule:nonzero;"/>
        </g>
        <g transform="matrix(0.816456,0,0,0.816456,-23.4344,-271.482)">
            <text x="74.982px" y="355.099px" style="font-family:'Luminari-Regular', 'Luminari';font-size:14.698px;">Key Step</text>
            <text x="74.982px" y="369.797px" style="font-family:'Luminari-Regular', 'Luminari';font-size:14.698px;">Ch<tspan x="93.207px 101.291px " y="369.797px 369.797px ">an</tspan>nel</text>
        </g>
        <g transform="matrix(0.0178906,0,0,0.0202937,16.1082,8.72873)">
            <g transform="matrix(1,0,0,1,-143.343,98.6554)">
                <ellipse cx="360.896" cy="293.762" rx="136.961" ry="230.443" style="fill:rgb(102,126,153);stroke:black;stroke-width:63.81px;"/>
            </g>
            <g transform="matrix(1,0,0,1,445.551,98.6554)">
                <ellipse cx="360.896" cy="293.762" rx="136.961" ry="230.443" style="fill:rgb(102,126,153);stroke:black;stroke-width:63.81px;"/>
            </g>
            <g transform="matrix(1,0,0,1,-34.3236,-20.6488)">
                <ellipse cx="546.324" cy="643.509" rx="431.408" ry="296.899" style="fill:rgb(102,126,153);stroke:black;stroke-width:63.81px;"/>
            </g>
            <circle cx="406.664" cy="569.758" r="105.336" style="fill:rgb(102,126,153);stroke:black;stroke-width:63.81px;"/>
            <g transform="matrix(1,0,0,1,210.672,0)">
                <circle cx="406.664" cy="569.758" r="105.336" style="fill:rgb(102,126,153);stroke:black;stroke-width:63.81px;"/>
            </g>
            <g transform="matrix(1,0,0,1,-53.1856,50.0357)">
                <ellipse cx="565.186" cy="671.455" rx="210.672" ry="98.631" style="fill:rgb(102,126,153);stroke:black;stroke-width:63.81px;"/>
            </g>
            <g transform="matrix(51.2,0,0,45.1371,0.670978,88.9676)">
                <path d="M12.057,13.791C12.057,13.668 11.958,13.568 11.835,13.568L8.139,13.568C8.016,13.568 7.916,13.668 7.916,13.791L7.916,14.236C7.916,14.359 8.016,14.458 8.139,14.458L11.835,14.458C11.958,14.458 12.057,14.359 12.057,14.236L12.057,13.791Z"/>
            </g>
        </g>
    </g>
</svg>
