<?xml version="1.0" encoding="UTF-8" standalone="no"?>
<!DOCTYPE svg PUBLIC "-//W3C//DTD SVG 1.1//EN" "http://www.w3.org/Graphics/SVG/1.1/DTD/svg11.dtd">
<svg width="100%" height="100%" viewBox="0 0 60 380" version="1.1" xmlns="http://www.w3.org/2000/svg" xmlns:xlink="http://www.w3.org/1999/xlink" xml:space="preserve" xmlns:serif="http://www.serif.com/" style="fill-rule:evenodd;clip-rule:evenodd;stroke-linecap:round;stroke-linejoin:round;stroke-miterlimit:1.5;">
    <g transform="matrix(0.607913,0,0,2.17398,-13.2722,-103.912)">
        <rect x="21.832" y="47.798" width="98.698" height="174.795" style="fill:rgb(102,126,153);"/>
    </g>
    <g transform="matrix(1,0,0,1,-60,-5.68434e-14)">
        <g transform="matrix(0.833333,0,0,1,60,-1.86841)">
            <rect x="0" y="370" width="60" height="3.737" style="fill:rgb(5,5,5);"/>
        </g>
        <g transform="matrix(6.12323e-17,1,-1,6.12323e-17,461.64,276.746)">
            <path d="M93.254,341.64L99.405,357.806L87.104,357.806L93.254,341.64Z" style="fill:rgb(5,5,5);"/>
        </g>
    </g>
    <g transform="matrix(1,0,0,1,-133.442,-2.34924)">
        <g id="Connect-ledbutton" serif:id="Connect#ledbutton" transform="matrix(0.174892,0,0,0.175002,139.797,309.604)">
            <rect x="53.94" y="106.916" width="161.978" height="161.978" style="fill:rgb(102,126,153);"/>
        </g>
        <g transform="matrix(1,0,0,1,61.6324,198.288)">
            <path d="M90.698,116.846C90.698,117.006 90.743,117.13 90.833,117.216C90.923,117.303 91.045,117.346 91.198,117.346C91.391,117.346 91.52,117.29 91.583,117.176C91.646,117.063 91.685,116.95 91.698,116.836L92.718,116.836C92.718,117.283 92.581,117.643 92.308,117.916C92.175,118.056 92.015,118.166 91.828,118.246C91.641,118.326 91.431,118.366 91.198,118.366C90.878,118.366 90.606,118.3 90.383,118.166C90.16,118.033 89.988,117.856 89.868,117.636C89.795,117.503 89.745,117.35 89.718,117.176C89.691,117.003 89.678,116.813 89.678,116.606L89.678,114.936C89.678,114.73 89.691,114.54 89.718,114.366C89.745,114.193 89.795,114.04 89.868,113.906C89.988,113.686 90.16,113.51 90.383,113.376C90.606,113.243 90.878,113.176 91.198,113.176C91.431,113.176 91.643,113.216 91.833,113.296C92.023,113.376 92.185,113.486 92.318,113.626C92.585,113.926 92.718,114.316 92.718,114.796L91.698,114.796C91.698,114.59 91.653,114.438 91.563,114.341C91.473,114.245 91.351,114.196 91.198,114.196C91.045,114.196 90.923,114.245 90.833,114.341C90.743,114.438 90.698,114.583 90.698,114.776L90.698,116.846Z" style="fill:rgb(5,5,5);fill-rule:nonzero;"/>
            <path d="M93.228,114.936C93.228,114.73 93.241,114.54 93.268,114.366C93.295,114.193 93.345,114.04 93.418,113.906C93.538,113.686 93.71,113.51 93.933,113.376C94.156,113.243 94.428,113.176 94.748,113.176C95.068,113.176 95.34,113.243 95.563,113.376C95.786,113.51 95.958,113.686 96.078,113.906C96.151,114.04 96.201,114.193 96.228,114.366C96.255,114.54 96.268,114.73 96.268,114.936L96.268,116.606C96.268,116.813 96.255,117.003 96.228,117.176C96.201,117.35 96.151,117.503 96.078,117.636C95.958,117.856 95.786,118.033 95.563,118.166C95.34,118.3 95.068,118.366 94.748,118.366C94.428,118.366 94.156,118.3 93.933,118.166C93.71,118.033 93.538,117.856 93.418,117.636C93.345,117.503 93.295,117.35 93.268,117.176C93.241,117.003 93.228,116.813 93.228,116.606L93.228,114.936ZM94.248,116.766C94.248,116.96 94.293,117.105 94.383,117.201C94.473,117.298 94.595,117.346 94.748,117.346C94.901,117.346 95.023,117.298 95.113,117.201C95.203,117.105 95.248,116.96 95.248,116.766L95.248,114.776C95.248,114.583 95.203,114.438 95.113,114.341C95.023,114.245 94.901,114.196 94.748,114.196C94.595,114.196 94.473,114.245 94.383,114.341C94.293,114.438 94.248,114.583 94.248,114.776L94.248,116.766Z" style="fill:rgb(5,5,5);fill-rule:nonzero;"/>
            <path d="M97.018,118.306L97.018,113.236L98.038,113.236L98.038,113.726L98.058,113.726C98.165,113.566 98.293,113.435 98.443,113.331C98.593,113.228 98.785,113.176 99.018,113.176C99.145,113.176 99.271,113.198 99.398,113.241C99.525,113.285 99.638,113.356 99.738,113.456C99.838,113.556 99.918,113.685 99.978,113.841C100.038,113.998 100.068,114.19 100.068,114.416L100.068,118.306L99.048,118.306L99.048,114.796C99.048,114.61 99.005,114.463 98.918,114.356C98.831,114.25 98.708,114.196 98.548,114.196C98.355,114.196 98.221,114.256 98.148,114.376C98.075,114.496 98.038,114.67 98.038,114.896L98.038,118.306L97.018,118.306Z" style="fill:rgb(5,5,5);fill-rule:nonzero;"/>
            <path d="M100.908,118.306L100.908,113.236L101.928,113.236L101.928,113.726L101.948,113.726C102.055,113.566 102.183,113.435 102.333,113.331C102.483,113.228 102.675,113.176 102.908,113.176C103.035,113.176 103.161,113.198 103.288,113.241C103.415,113.285 103.528,113.356 103.628,113.456C103.728,113.556 103.808,113.685 103.868,113.841C103.928,113.998 103.958,114.19 103.958,114.416L103.958,118.306L102.938,118.306L102.938,114.796C102.938,114.61 102.895,114.463 102.808,114.356C102.721,114.25 102.598,114.196 102.438,114.196C102.245,114.196 102.111,114.256 102.038,114.376C101.965,114.496 101.928,114.67 101.928,114.896L101.928,118.306L100.908,118.306Z" style="fill:rgb(5,5,5);fill-rule:nonzero;"/>
            <path d="M107.748,116.156L105.728,116.156L105.728,116.846C105.728,117.006 105.773,117.13 105.863,117.216C105.953,117.303 106.075,117.346 106.228,117.346C106.421,117.346 106.55,117.29 106.613,117.176C106.676,117.063 106.715,116.95 106.728,116.836L107.748,116.836C107.748,117.283 107.611,117.643 107.338,117.916C107.205,118.056 107.045,118.166 106.858,118.246C106.671,118.326 106.461,118.366 106.228,118.366C105.908,118.366 105.636,118.3 105.413,118.166C105.19,118.033 105.018,117.856 104.898,117.636C104.825,117.503 104.775,117.35 104.748,117.176C104.721,117.003 104.708,116.813 104.708,116.606L104.708,114.936C104.708,114.73 104.721,114.54 104.748,114.366C104.775,114.193 104.825,114.04 104.898,113.906C105.018,113.686 105.19,113.51 105.413,113.376C105.636,113.243 105.908,113.176 106.228,113.176C106.461,113.176 106.673,113.216 106.863,113.296C107.053,113.376 107.215,113.486 107.348,113.626C107.615,113.926 107.748,114.303 107.748,114.756L107.748,116.156ZM105.728,115.356L106.728,115.356L106.728,114.776C106.728,114.583 106.683,114.438 106.593,114.341C106.503,114.245 106.381,114.196 106.228,114.196C106.075,114.196 105.953,114.245 105.863,114.341C105.773,114.438 105.728,114.583 105.728,114.776L105.728,115.356Z" style="fill:rgb(5,5,5);fill-rule:nonzero;"/>
            <path d="M109.578,116.846C109.578,117.006 109.623,117.13 109.713,117.216C109.803,117.303 109.925,117.346 110.078,117.346C110.271,117.346 110.4,117.29 110.463,117.176C110.526,117.063 110.565,116.95 110.578,116.836L111.598,116.836C111.598,117.283 111.461,117.643 111.188,117.916C111.055,118.056 110.895,118.166 110.708,118.246C110.521,118.326 110.311,118.366 110.078,118.366C109.758,118.366 109.486,118.3 109.263,118.166C109.04,118.033 108.868,117.856 108.748,117.636C108.675,117.503 108.625,117.35 108.598,117.176C108.571,117.003 108.558,116.813 108.558,116.606L108.558,114.936C108.558,114.73 108.571,114.54 108.598,114.366C108.625,114.193 108.675,114.04 108.748,113.906C108.868,113.686 109.04,113.51 109.263,113.376C109.486,113.243 109.758,113.176 110.078,113.176C110.311,113.176 110.523,113.216 110.713,113.296C110.903,113.376 111.065,113.486 111.198,113.626C111.465,113.926 111.598,114.316 111.598,114.796L110.578,114.796C110.578,114.59 110.533,114.438 110.443,114.341C110.353,114.245 110.231,114.196 110.078,114.196C109.925,114.196 109.803,114.245 109.713,114.341C109.623,114.438 109.578,114.583 109.578,114.776L109.578,116.846Z" style="fill:rgb(5,5,5);fill-rule:nonzero;"/>
            <path d="M112.198,113.236L112.198,111.696L113.218,111.696L113.218,113.236L113.848,113.236L113.848,114.036L113.218,114.036L113.218,116.846C113.218,116.966 113.23,117.06 113.253,117.126C113.276,117.193 113.315,117.243 113.368,117.276C113.421,117.31 113.486,117.33 113.563,117.336C113.64,117.343 113.735,117.346 113.848,117.346L113.848,118.306L113.428,118.306C113.195,118.306 113,118.27 112.843,118.196C112.686,118.123 112.561,118.03 112.468,117.916C112.375,117.803 112.306,117.675 112.263,117.531C112.22,117.388 112.198,117.25 112.198,117.116L112.198,114.036L111.688,114.036L111.688,113.236L112.198,113.236Z" style="fill:rgb(5,5,5);fill-rule:nonzero;"/>
        </g>
        <g transform="matrix(1,0,0,1,61.6324,198.288)">
            <text x="89.198px" y="118.306px" style="font-family:'DINCondensed-Bold', 'DIN Condensed';font-weight:700;font-stretch:condensed;font-size:10px;fill:rgb(5,5,5);">connect</text>
        </g>
    </g>
    <g id="Channel1" transform="matrix(0.5,0,0,0.432068,-8.16721,44.533)">
        <g>
            <g transform="matrix(2,0,0,2.31445,-111.121,57.1455)">
                <path d="M90.698,116.846C90.698,117.006 90.743,117.13 90.833,117.216C90.923,117.303 91.045,117.346 91.198,117.346C91.391,117.346 91.52,117.29 91.583,117.176C91.646,117.063 91.685,116.95 91.698,116.836L92.718,116.836C92.718,117.283 92.581,117.643 92.308,117.916C92.175,118.056 92.015,118.166 91.828,118.246C91.641,118.326 91.431,118.366 91.198,118.366C90.878,118.366 90.606,118.3 90.383,118.166C90.16,118.033 89.988,117.856 89.868,117.636C89.795,117.503 89.745,117.35 89.718,117.176C89.691,117.003 89.678,116.813 89.678,116.606L89.678,114.936C89.678,114.73 89.691,114.54 89.718,114.366C89.745,114.193 89.795,114.04 89.868,113.906C89.988,113.686 90.16,113.51 90.383,113.376C90.606,113.243 90.878,113.176 91.198,113.176C91.431,113.176 91.643,113.216 91.833,113.296C92.023,113.376 92.185,113.486 92.318,113.626C92.585,113.926 92.718,114.316 92.718,114.796L91.698,114.796C91.698,114.59 91.653,114.438 91.563,114.341C91.473,114.245 91.351,114.196 91.198,114.196C91.045,114.196 90.923,114.245 90.833,114.341C90.743,114.438 90.698,114.583 90.698,114.776L90.698,116.846Z" style="fill:rgb(5,5,5);fill-rule:nonzero;"/>
                <path d="M93.198,118.306L93.198,111.186L94.218,111.186L94.218,113.726L94.238,113.726C94.345,113.566 94.473,113.435 94.623,113.331C94.773,113.228 94.965,113.176 95.198,113.176C95.325,113.176 95.451,113.198 95.578,113.241C95.705,113.285 95.818,113.356 95.918,113.456C96.018,113.556 96.098,113.685 96.158,113.841C96.218,113.998 96.248,114.19 96.248,114.416L96.248,118.306L95.228,118.306L95.228,114.796C95.228,114.61 95.185,114.463 95.098,114.356C95.011,114.25 94.888,114.196 94.728,114.196C94.535,114.196 94.401,114.256 94.328,114.376C94.255,114.496 94.218,114.67 94.218,114.896L94.218,118.306L93.198,118.306Z" style="fill:rgb(5,5,5);fill-rule:nonzero;"/>
                <path d="M99.018,118.306L99.018,117.786L98.998,117.786C98.865,117.973 98.73,118.116 98.593,118.216C98.456,118.316 98.265,118.366 98.018,118.366C97.898,118.366 97.776,118.348 97.653,118.311C97.53,118.275 97.411,118.206 97.298,118.106C97.185,118.013 97.093,117.878 97.023,117.701C96.953,117.525 96.918,117.296 96.918,117.016C96.918,116.73 96.941,116.478 96.988,116.261C97.035,116.045 97.121,115.863 97.248,115.716C97.368,115.576 97.531,115.471 97.738,115.401C97.945,115.331 98.208,115.296 98.528,115.296L98.638,115.296C98.678,115.296 98.715,115.3 98.748,115.306C98.781,115.313 98.821,115.316 98.868,115.316C98.915,115.316 98.965,115.32 99.018,115.326L99.018,114.796C99.018,114.623 98.981,114.48 98.908,114.366C98.835,114.253 98.701,114.196 98.508,114.196C98.375,114.196 98.253,114.24 98.143,114.326C98.033,114.413 97.961,114.54 97.928,114.706L96.938,114.706C96.965,114.253 97.118,113.886 97.398,113.606C97.531,113.473 97.691,113.368 97.878,113.291C98.065,113.215 98.275,113.176 98.508,113.176C98.721,113.176 98.921,113.21 99.108,113.276C99.295,113.343 99.458,113.443 99.598,113.576C99.731,113.71 99.838,113.876 99.918,114.076C99.998,114.276 100.038,114.51 100.038,114.776L100.038,118.306L99.018,118.306ZM99.018,116.126C98.905,116.106 98.811,116.096 98.738,116.096C98.518,116.096 98.33,116.148 98.173,116.251C98.016,116.355 97.938,116.543 97.938,116.816C97.938,117.01 97.985,117.166 98.078,117.286C98.171,117.406 98.301,117.466 98.468,117.466C98.641,117.466 98.776,117.41 98.873,117.296C98.97,117.183 99.018,117.023 99.018,116.816L99.018,116.126Z" style="fill:rgb(5,5,5);fill-rule:nonzero;"/>
                <path d="M100.788,118.306L100.788,113.236L101.808,113.236L101.808,113.726L101.828,113.726C101.935,113.566 102.063,113.435 102.213,113.331C102.363,113.228 102.555,113.176 102.788,113.176C102.915,113.176 103.041,113.198 103.168,113.241C103.295,113.285 103.408,113.356 103.508,113.456C103.608,113.556 103.688,113.685 103.748,113.841C103.808,113.998 103.838,114.19 103.838,114.416L103.838,118.306L102.818,118.306L102.818,114.796C102.818,114.61 102.775,114.463 102.688,114.356C102.601,114.25 102.478,114.196 102.318,114.196C102.125,114.196 101.991,114.256 101.918,114.376C101.845,114.496 101.808,114.67 101.808,114.896L101.808,118.306L100.788,118.306Z" style="fill:rgb(5,5,5);fill-rule:nonzero;"/>
                <path d="M104.678,118.306L104.678,113.236L105.698,113.236L105.698,113.726L105.718,113.726C105.825,113.566 105.953,113.435 106.103,113.331C106.253,113.228 106.445,113.176 106.678,113.176C106.805,113.176 106.931,113.198 107.058,113.241C107.185,113.285 107.298,113.356 107.398,113.456C107.498,113.556 107.578,113.685 107.638,113.841C107.698,113.998 107.728,114.19 107.728,114.416L107.728,118.306L106.708,118.306L106.708,114.796C106.708,114.61 106.665,114.463 106.578,114.356C106.491,114.25 106.368,114.196 106.208,114.196C106.015,114.196 105.881,114.256 105.808,114.376C105.735,114.496 105.698,114.67 105.698,114.896L105.698,118.306L104.678,118.306Z" style="fill:rgb(5,5,5);fill-rule:nonzero;"/>
                <path d="M111.518,116.156L109.498,116.156L109.498,116.846C109.498,117.006 109.543,117.13 109.633,117.216C109.723,117.303 109.845,117.346 109.998,117.346C110.191,117.346 110.32,117.29 110.383,117.176C110.446,117.063 110.485,116.95 110.498,116.836L111.518,116.836C111.518,117.283 111.381,117.643 111.108,117.916C110.975,118.056 110.815,118.166 110.628,118.246C110.441,118.326 110.231,118.366 109.998,118.366C109.678,118.366 109.406,118.3 109.183,118.166C108.96,118.033 108.788,117.856 108.668,117.636C108.595,117.503 108.545,117.35 108.518,117.176C108.491,117.003 108.478,116.813 108.478,116.606L108.478,114.936C108.478,114.73 108.491,114.54 108.518,114.366C108.545,114.193 108.595,114.04 108.668,113.906C108.788,113.686 108.96,113.51 109.183,113.376C109.406,113.243 109.678,113.176 109.998,113.176C110.231,113.176 110.443,113.216 110.633,113.296C110.823,113.376 110.985,113.486 111.118,113.626C111.385,113.926 111.518,114.303 111.518,114.756L111.518,116.156ZM109.498,115.356L110.498,115.356L110.498,114.776C110.498,114.583 110.453,114.438 110.363,114.341C110.273,114.245 110.151,114.196 109.998,114.196C109.845,114.196 109.723,114.245 109.633,114.341C109.543,114.438 109.498,114.583 109.498,114.776L109.498,115.356Z" style="fill:rgb(5,5,5);fill-rule:nonzero;"/>
                <path d="M112.208,111.186L113.228,111.186L113.228,116.876C113.228,117.07 113.263,117.201 113.333,117.271C113.403,117.341 113.535,117.386 113.728,117.406L113.728,118.366C113.495,118.366 113.285,118.348 113.098,118.311C112.911,118.275 112.751,118.203 112.618,118.096C112.485,117.996 112.383,117.855 112.313,117.671C112.243,117.488 112.208,117.246 112.208,116.946L112.208,111.186Z" style="fill:rgb(5,5,5);fill-rule:nonzero;"/>
                <path d="M101.953,124.646C101.953,124.506 101.903,124.388 101.803,124.291C101.703,124.195 101.586,124.146 101.453,124.146C101.32,124.146 101.203,124.195 101.103,124.291C101.003,124.388 100.953,124.506 100.953,124.646L100.953,125.686C100.953,125.826 101.003,125.945 101.103,126.041C101.203,126.138 101.32,126.186 101.453,126.186C101.586,126.186 101.703,126.138 101.803,126.041C101.903,125.945 101.953,125.826 101.953,125.686L101.953,124.646ZM99.933,125.046C99.933,124.853 99.94,124.688 99.953,124.551C99.966,124.415 99.99,124.296 100.023,124.196C100.056,124.096 100.095,124.006 100.138,123.926C100.181,123.846 100.236,123.763 100.303,123.676C100.436,123.503 100.603,123.368 100.803,123.271C101.003,123.175 101.22,123.126 101.453,123.126C101.686,123.126 101.903,123.175 102.103,123.271C102.303,123.368 102.47,123.503 102.603,123.676C102.67,123.763 102.726,123.846 102.773,123.926C102.82,124.006 102.86,124.096 102.893,124.196C102.926,124.296 102.948,124.415 102.958,124.551C102.968,124.688 102.973,124.853 102.973,125.046C102.973,125.26 102.97,125.44 102.963,125.586C102.956,125.733 102.936,125.863 102.903,125.976C102.87,126.09 102.818,126.191 102.748,126.281C102.678,126.371 102.583,126.466 102.463,126.566C102.583,126.66 102.678,126.753 102.748,126.846C102.818,126.94 102.87,127.05 102.903,127.176C102.936,127.303 102.956,127.458 102.963,127.641C102.97,127.825 102.973,128.05 102.973,128.316C102.973,128.536 102.968,128.718 102.958,128.861C102.948,129.005 102.933,129.13 102.913,129.236C102.893,129.343 102.865,129.433 102.828,129.506C102.791,129.58 102.746,129.656 102.693,129.736C102.58,129.91 102.42,130.058 102.213,130.181C102.006,130.305 101.753,130.366 101.453,130.366C101.153,130.366 100.9,130.305 100.693,130.181C100.486,130.058 100.326,129.91 100.213,129.736C100.16,129.656 100.115,129.58 100.078,129.506C100.041,129.433 100.013,129.343 99.993,129.236C99.973,129.13 99.958,129.005 99.948,128.861C99.938,128.718 99.933,128.536 99.933,128.316C99.933,128.05 99.936,127.825 99.943,127.641C99.95,127.458 99.97,127.303 100.003,127.176C100.036,127.05 100.088,126.94 100.158,126.846C100.228,126.753 100.323,126.66 100.443,126.566C100.323,126.466 100.228,126.371 100.158,126.281C100.088,126.191 100.036,126.09 100.003,125.976C99.97,125.863 99.95,125.733 99.943,125.586C99.936,125.44 99.933,125.26 99.933,125.046ZM101.953,127.446C101.953,127.306 101.903,127.188 101.803,127.091C101.703,126.995 101.586,126.946 101.453,126.946C101.32,126.946 101.203,126.995 101.103,127.091C101.003,127.188 100.953,127.306 100.953,127.446L100.953,128.846C100.953,128.986 101.003,129.105 101.103,129.201C101.203,129.298 101.32,129.346 101.453,129.346C101.586,129.346 101.703,129.298 101.803,129.201C101.903,129.105 101.953,128.986 101.953,128.846L101.953,127.446Z" style="fill:rgb(5,5,5);fill-rule:nonzero;"/>
            </g>
            <g transform="matrix(2,0,0,2.31445,-111.121,57.1455)">
                <text x="89.198px" y="118.306px" style="font-family:'DINCondensed-Bold', 'DIN Condensed';font-weight:700;font-stretch:condensed;font-size:10px;fill:rgb(5,5,5);">c<tspan x="92.778px 96.668px " y="118.306px 118.306px ">ha</tspan>nnel</text>
                <text x="99.593px" y="130.306px" style="font-family:'DINCondensed-Bold', 'DIN Condensed';font-weight:700;font-stretch:condensed;font-size:10px;fill:rgb(5,5,5);">8</text>
            </g>
            <g transform="matrix(0.38395,0,0,0.851364,32.4949,199.351)">
                <rect x="10" y="121.987" width="70" height="77.941" style="fill:rgb(204,51,51);"/>
            </g>
            <g transform="matrix(2,0,0,2.31445,13.8425,127.772)">
                <path d="M18.84,97.214L18.84,95.144L14.875,95.144L14.875,93.269L17.746,83.307L19.856,83.307L16.867,93.269L18.84,93.269L18.84,89.304L20.832,89.304L20.832,93.269L21.79,93.269L21.79,95.144L20.832,95.144L20.832,97.214L18.84,97.214Z" style="fill-rule:nonzero;"/>
            </g>
            <g transform="matrix(2,0,0,2.31445,13.8425,127.772)">
                <text x="14.699px" y="97.214px" style="font-family:'DINCondensed-Bold', 'DIN Condensed';font-weight:700;font-stretch:condensed;font-size:19.532px;">4</text>
            </g>
        </g>
        <g>
            <g transform="matrix(2,0,0,2.31445,-111.121,-19.1249)">
                <path d="M90.698,116.846C90.698,117.006 90.743,117.13 90.833,117.216C90.923,117.303 91.045,117.346 91.198,117.346C91.391,117.346 91.52,117.29 91.583,117.176C91.646,117.063 91.685,116.95 91.698,116.836L92.718,116.836C92.718,117.283 92.581,117.643 92.308,117.916C92.175,118.056 92.015,118.166 91.828,118.246C91.641,118.326 91.431,118.366 91.198,118.366C90.878,118.366 90.606,118.3 90.383,118.166C90.16,118.033 89.988,117.856 89.868,117.636C89.795,117.503 89.745,117.35 89.718,117.176C89.691,117.003 89.678,116.813 89.678,116.606L89.678,114.936C89.678,114.73 89.691,114.54 89.718,114.366C89.745,114.193 89.795,114.04 89.868,113.906C89.988,113.686 90.16,113.51 90.383,113.376C90.606,113.243 90.878,113.176 91.198,113.176C91.431,113.176 91.643,113.216 91.833,113.296C92.023,113.376 92.185,113.486 92.318,113.626C92.585,113.926 92.718,114.316 92.718,114.796L91.698,114.796C91.698,114.59 91.653,114.438 91.563,114.341C91.473,114.245 91.351,114.196 91.198,114.196C91.045,114.196 90.923,114.245 90.833,114.341C90.743,114.438 90.698,114.583 90.698,114.776L90.698,116.846Z" style="fill:rgb(5,5,5);fill-rule:nonzero;"/>
                <path d="M93.198,118.306L93.198,111.186L94.218,111.186L94.218,113.726L94.238,113.726C94.345,113.566 94.473,113.435 94.623,113.331C94.773,113.228 94.965,113.176 95.198,113.176C95.325,113.176 95.451,113.198 95.578,113.241C95.705,113.285 95.818,113.356 95.918,113.456C96.018,113.556 96.098,113.685 96.158,113.841C96.218,113.998 96.248,114.19 96.248,114.416L96.248,118.306L95.228,118.306L95.228,114.796C95.228,114.61 95.185,114.463 95.098,114.356C95.011,114.25 94.888,114.196 94.728,114.196C94.535,114.196 94.401,114.256 94.328,114.376C94.255,114.496 94.218,114.67 94.218,114.896L94.218,118.306L93.198,118.306Z" style="fill:rgb(5,5,5);fill-rule:nonzero;"/>
                <path d="M99.018,118.306L99.018,117.786L98.998,117.786C98.865,117.973 98.73,118.116 98.593,118.216C98.456,118.316 98.265,118.366 98.018,118.366C97.898,118.366 97.776,118.348 97.653,118.311C97.53,118.275 97.411,118.206 97.298,118.106C97.185,118.013 97.093,117.878 97.023,117.701C96.953,117.525 96.918,117.296 96.918,117.016C96.918,116.73 96.941,116.478 96.988,116.261C97.035,116.045 97.121,115.863 97.248,115.716C97.368,115.576 97.531,115.471 97.738,115.401C97.945,115.331 98.208,115.296 98.528,115.296L98.638,115.296C98.678,115.296 98.715,115.3 98.748,115.306C98.781,115.313 98.821,115.316 98.868,115.316C98.915,115.316 98.965,115.32 99.018,115.326L99.018,114.796C99.018,114.623 98.981,114.48 98.908,114.366C98.835,114.253 98.701,114.196 98.508,114.196C98.375,114.196 98.253,114.24 98.143,114.326C98.033,114.413 97.961,114.54 97.928,114.706L96.938,114.706C96.965,114.253 97.118,113.886 97.398,113.606C97.531,113.473 97.691,113.368 97.878,113.291C98.065,113.215 98.275,113.176 98.508,113.176C98.721,113.176 98.921,113.21 99.108,113.276C99.295,113.343 99.458,113.443 99.598,113.576C99.731,113.71 99.838,113.876 99.918,114.076C99.998,114.276 100.038,114.51 100.038,114.776L100.038,118.306L99.018,118.306ZM99.018,116.126C98.905,116.106 98.811,116.096 98.738,116.096C98.518,116.096 98.33,116.148 98.173,116.251C98.016,116.355 97.938,116.543 97.938,116.816C97.938,117.01 97.985,117.166 98.078,117.286C98.171,117.406 98.301,117.466 98.468,117.466C98.641,117.466 98.776,117.41 98.873,117.296C98.97,117.183 99.018,117.023 99.018,116.816L99.018,116.126Z" style="fill:rgb(5,5,5);fill-rule:nonzero;"/>
                <path d="M100.788,118.306L100.788,113.236L101.808,113.236L101.808,113.726L101.828,113.726C101.935,113.566 102.063,113.435 102.213,113.331C102.363,113.228 102.555,113.176 102.788,113.176C102.915,113.176 103.041,113.198 103.168,113.241C103.295,113.285 103.408,113.356 103.508,113.456C103.608,113.556 103.688,113.685 103.748,113.841C103.808,113.998 103.838,114.19 103.838,114.416L103.838,118.306L102.818,118.306L102.818,114.796C102.818,114.61 102.775,114.463 102.688,114.356C102.601,114.25 102.478,114.196 102.318,114.196C102.125,114.196 101.991,114.256 101.918,114.376C101.845,114.496 101.808,114.67 101.808,114.896L101.808,118.306L100.788,118.306Z" style="fill:rgb(5,5,5);fill-rule:nonzero;"/>
                <path d="M104.678,118.306L104.678,113.236L105.698,113.236L105.698,113.726L105.718,113.726C105.825,113.566 105.953,113.435 106.103,113.331C106.253,113.228 106.445,113.176 106.678,113.176C106.805,113.176 106.931,113.198 107.058,113.241C107.185,113.285 107.298,113.356 107.398,113.456C107.498,113.556 107.578,113.685 107.638,113.841C107.698,113.998 107.728,114.19 107.728,114.416L107.728,118.306L106.708,118.306L106.708,114.796C106.708,114.61 106.665,114.463 106.578,114.356C106.491,114.25 106.368,114.196 106.208,114.196C106.015,114.196 105.881,114.256 105.808,114.376C105.735,114.496 105.698,114.67 105.698,114.896L105.698,118.306L104.678,118.306Z" style="fill:rgb(5,5,5);fill-rule:nonzero;"/>
                <path d="M111.518,116.156L109.498,116.156L109.498,116.846C109.498,117.006 109.543,117.13 109.633,117.216C109.723,117.303 109.845,117.346 109.998,117.346C110.191,117.346 110.32,117.29 110.383,117.176C110.446,117.063 110.485,116.95 110.498,116.836L111.518,116.836C111.518,117.283 111.381,117.643 111.108,117.916C110.975,118.056 110.815,118.166 110.628,118.246C110.441,118.326 110.231,118.366 109.998,118.366C109.678,118.366 109.406,118.3 109.183,118.166C108.96,118.033 108.788,117.856 108.668,117.636C108.595,117.503 108.545,117.35 108.518,117.176C108.491,117.003 108.478,116.813 108.478,116.606L108.478,114.936C108.478,114.73 108.491,114.54 108.518,114.366C108.545,114.193 108.595,114.04 108.668,113.906C108.788,113.686 108.96,113.51 109.183,113.376C109.406,113.243 109.678,113.176 109.998,113.176C110.231,113.176 110.443,113.216 110.633,113.296C110.823,113.376 110.985,113.486 111.118,113.626C111.385,113.926 111.518,114.303 111.518,114.756L111.518,116.156ZM109.498,115.356L110.498,115.356L110.498,114.776C110.498,114.583 110.453,114.438 110.363,114.341C110.273,114.245 110.151,114.196 109.998,114.196C109.845,114.196 109.723,114.245 109.633,114.341C109.543,114.438 109.498,114.583 109.498,114.776L109.498,115.356Z" style="fill:rgb(5,5,5);fill-rule:nonzero;"/>
                <path d="M112.208,111.186L113.228,111.186L113.228,116.876C113.228,117.07 113.263,117.201 113.333,117.271C113.403,117.341 113.535,117.386 113.728,117.406L113.728,118.366C113.495,118.366 113.285,118.348 113.098,118.311C112.911,118.275 112.751,118.203 112.618,118.096C112.485,117.996 112.383,117.855 112.313,117.671C112.243,117.488 112.208,117.246 112.208,116.946L112.208,111.186Z" style="fill:rgb(5,5,5);fill-rule:nonzero;"/>
                <path d="M100.163,130.306L101.953,124.146L100.833,124.146L100.833,124.966L99.933,124.966L99.933,123.186L102.973,123.186L102.973,124.206L101.243,130.306L100.163,130.306Z" style="fill:rgb(5,5,5);fill-rule:nonzero;"/>
            </g>
            <g transform="matrix(2,0,0,2.31445,-111.121,-19.1249)">
                <text x="89.198px" y="118.306px" style="font-family:'DINCondensed-Bold', 'DIN Condensed';font-weight:700;font-stretch:condensed;font-size:10px;fill:rgb(5,5,5);">c<tspan x="92.778px 96.668px " y="118.306px 118.306px ">ha</tspan>nnel</text>
                <text x="99.593px" y="130.306px" style="font-family:'DINCondensed-Bold', 'DIN Condensed';font-weight:700;font-stretch:condensed;font-size:10px;fill:rgb(5,5,5);">7</text>
            </g>
            <g transform="matrix(0.38395,0,0,0.851364,32.4949,123.304)">
                <rect x="10" y="121.987" width="70" height="77.941" style="fill:rgb(195,204,51);"/>
            </g>
            <g transform="matrix(2,0,0,2.31445,12.6316,51.4321)">
                <path d="M17.727,89.167C18.326,89.167 18.739,89.095 18.967,88.952C19.195,88.809 19.309,88.477 19.309,87.956L19.309,86.159C19.309,85.873 19.221,85.638 19.045,85.456C18.87,85.274 18.632,85.183 18.332,85.183C17.981,85.183 17.73,85.293 17.58,85.515C17.431,85.736 17.356,85.951 17.356,86.159L17.356,87.292L15.364,87.292L15.364,86.14C15.364,85.736 15.442,85.352 15.598,84.987C15.754,84.623 15.969,84.31 16.242,84.05C16.516,83.789 16.835,83.581 17.2,83.425C17.564,83.268 17.955,83.19 18.371,83.19C18.918,83.19 19.371,83.298 19.729,83.513C20.087,83.727 20.357,83.946 20.54,84.167C20.67,84.323 20.784,84.479 20.881,84.636C20.979,84.792 21.06,84.981 21.125,85.202C21.243,85.632 21.301,86.27 21.301,87.116C21.301,87.598 21.291,87.989 21.272,88.288C21.252,88.588 21.204,88.835 21.125,89.03C21.034,89.239 20.907,89.415 20.745,89.558C20.582,89.701 20.357,89.857 20.071,90.027C20.383,90.222 20.621,90.404 20.784,90.573C20.946,90.743 21.067,90.938 21.145,91.159C21.223,91.394 21.269,91.67 21.282,91.989C21.295,92.309 21.301,92.715 21.301,93.21C21.301,93.666 21.291,94.044 21.272,94.343C21.252,94.643 21.223,94.89 21.184,95.085C21.145,95.294 21.093,95.469 21.028,95.613C20.963,95.756 20.878,95.906 20.774,96.062C20.526,96.427 20.211,96.729 19.827,96.97C19.442,97.211 18.938,97.332 18.313,97.332C18,97.332 17.668,97.279 17.317,97.175C16.965,97.071 16.646,96.902 16.36,96.667C16.073,96.433 15.836,96.127 15.647,95.749C15.458,95.372 15.364,94.91 15.364,94.363L15.364,93.23L17.356,93.23L17.356,94.265C17.356,94.577 17.444,94.835 17.619,95.036C17.795,95.238 18.033,95.339 18.332,95.339C18.632,95.339 18.87,95.238 19.045,95.036C19.221,94.835 19.309,94.564 19.309,94.226L19.309,92.234C19.309,91.687 19.205,91.329 18.996,91.159C18.879,91.055 18.72,90.99 18.518,90.964C18.316,90.938 18.052,90.925 17.727,90.925L17.727,89.167Z" style="fill-rule:nonzero;"/>
            </g>
            <g transform="matrix(2,0,0,2.31445,12.6316,51.4321)">
                <text x="14.699px" y="97.214px" style="font-family:'DINCondensed-Bold', 'DIN Condensed';font-weight:700;font-stretch:condensed;font-size:19.532px;">3</text>
            </g>
        </g>
        <g>
            <g transform="matrix(2,0,0,2.31445,-111.121,-95.2414)">
                <path d="M90.698,116.846C90.698,117.006 90.743,117.13 90.833,117.216C90.923,117.303 91.045,117.346 91.198,117.346C91.391,117.346 91.52,117.29 91.583,117.176C91.646,117.063 91.685,116.95 91.698,116.836L92.718,116.836C92.718,117.283 92.581,117.643 92.308,117.916C92.175,118.056 92.015,118.166 91.828,118.246C91.641,118.326 91.431,118.366 91.198,118.366C90.878,118.366 90.606,118.3 90.383,118.166C90.16,118.033 89.988,117.856 89.868,117.636C89.795,117.503 89.745,117.35 89.718,117.176C89.691,117.003 89.678,116.813 89.678,116.606L89.678,114.936C89.678,114.73 89.691,114.54 89.718,114.366C89.745,114.193 89.795,114.04 89.868,113.906C89.988,113.686 90.16,113.51 90.383,113.376C90.606,113.243 90.878,113.176 91.198,113.176C91.431,113.176 91.643,113.216 91.833,113.296C92.023,113.376 92.185,113.486 92.318,113.626C92.585,113.926 92.718,114.316 92.718,114.796L91.698,114.796C91.698,114.59 91.653,114.438 91.563,114.341C91.473,114.245 91.351,114.196 91.198,114.196C91.045,114.196 90.923,114.245 90.833,114.341C90.743,114.438 90.698,114.583 90.698,114.776L90.698,116.846Z" style="fill:rgb(5,5,5);fill-rule:nonzero;"/>
                <path d="M93.198,118.306L93.198,111.186L94.218,111.186L94.218,113.726L94.238,113.726C94.345,113.566 94.473,113.435 94.623,113.331C94.773,113.228 94.965,113.176 95.198,113.176C95.325,113.176 95.451,113.198 95.578,113.241C95.705,113.285 95.818,113.356 95.918,113.456C96.018,113.556 96.098,113.685 96.158,113.841C96.218,113.998 96.248,114.19 96.248,114.416L96.248,118.306L95.228,118.306L95.228,114.796C95.228,114.61 95.185,114.463 95.098,114.356C95.011,114.25 94.888,114.196 94.728,114.196C94.535,114.196 94.401,114.256 94.328,114.376C94.255,114.496 94.218,114.67 94.218,114.896L94.218,118.306L93.198,118.306Z" style="fill:rgb(5,5,5);fill-rule:nonzero;"/>
                <path d="M99.018,118.306L99.018,117.786L98.998,117.786C98.865,117.973 98.73,118.116 98.593,118.216C98.456,118.316 98.265,118.366 98.018,118.366C97.898,118.366 97.776,118.348 97.653,118.311C97.53,118.275 97.411,118.206 97.298,118.106C97.185,118.013 97.093,117.878 97.023,117.701C96.953,117.525 96.918,117.296 96.918,117.016C96.918,116.73 96.941,116.478 96.988,116.261C97.035,116.045 97.121,115.863 97.248,115.716C97.368,115.576 97.531,115.471 97.738,115.401C97.945,115.331 98.208,115.296 98.528,115.296L98.638,115.296C98.678,115.296 98.715,115.3 98.748,115.306C98.781,115.313 98.821,115.316 98.868,115.316C98.915,115.316 98.965,115.32 99.018,115.326L99.018,114.796C99.018,114.623 98.981,114.48 98.908,114.366C98.835,114.253 98.701,114.196 98.508,114.196C98.375,114.196 98.253,114.24 98.143,114.326C98.033,114.413 97.961,114.54 97.928,114.706L96.938,114.706C96.965,114.253 97.118,113.886 97.398,113.606C97.531,113.473 97.691,113.368 97.878,113.291C98.065,113.215 98.275,113.176 98.508,113.176C98.721,113.176 98.921,113.21 99.108,113.276C99.295,113.343 99.458,113.443 99.598,113.576C99.731,113.71 99.838,113.876 99.918,114.076C99.998,114.276 100.038,114.51 100.038,114.776L100.038,118.306L99.018,118.306ZM99.018,116.126C98.905,116.106 98.811,116.096 98.738,116.096C98.518,116.096 98.33,116.148 98.173,116.251C98.016,116.355 97.938,116.543 97.938,116.816C97.938,117.01 97.985,117.166 98.078,117.286C98.171,117.406 98.301,117.466 98.468,117.466C98.641,117.466 98.776,117.41 98.873,117.296C98.97,117.183 99.018,117.023 99.018,116.816L99.018,116.126Z" style="fill:rgb(5,5,5);fill-rule:nonzero;"/>
                <path d="M100.788,118.306L100.788,113.236L101.808,113.236L101.808,113.726L101.828,113.726C101.935,113.566 102.063,113.435 102.213,113.331C102.363,113.228 102.555,113.176 102.788,113.176C102.915,113.176 103.041,113.198 103.168,113.241C103.295,113.285 103.408,113.356 103.508,113.456C103.608,113.556 103.688,113.685 103.748,113.841C103.808,113.998 103.838,114.19 103.838,114.416L103.838,118.306L102.818,118.306L102.818,114.796C102.818,114.61 102.775,114.463 102.688,114.356C102.601,114.25 102.478,114.196 102.318,114.196C102.125,114.196 101.991,114.256 101.918,114.376C101.845,114.496 101.808,114.67 101.808,114.896L101.808,118.306L100.788,118.306Z" style="fill:rgb(5,5,5);fill-rule:nonzero;"/>
                <path d="M104.678,118.306L104.678,113.236L105.698,113.236L105.698,113.726L105.718,113.726C105.825,113.566 105.953,113.435 106.103,113.331C106.253,113.228 106.445,113.176 106.678,113.176C106.805,113.176 106.931,113.198 107.058,113.241C107.185,113.285 107.298,113.356 107.398,113.456C107.498,113.556 107.578,113.685 107.638,113.841C107.698,113.998 107.728,114.19 107.728,114.416L107.728,118.306L106.708,118.306L106.708,114.796C106.708,114.61 106.665,114.463 106.578,114.356C106.491,114.25 106.368,114.196 106.208,114.196C106.015,114.196 105.881,114.256 105.808,114.376C105.735,114.496 105.698,114.67 105.698,114.896L105.698,118.306L104.678,118.306Z" style="fill:rgb(5,5,5);fill-rule:nonzero;"/>
                <path d="M111.518,116.156L109.498,116.156L109.498,116.846C109.498,117.006 109.543,117.13 109.633,117.216C109.723,117.303 109.845,117.346 109.998,117.346C110.191,117.346 110.32,117.29 110.383,117.176C110.446,117.063 110.485,116.95 110.498,116.836L111.518,116.836C111.518,117.283 111.381,117.643 111.108,117.916C110.975,118.056 110.815,118.166 110.628,118.246C110.441,118.326 110.231,118.366 109.998,118.366C109.678,118.366 109.406,118.3 109.183,118.166C108.96,118.033 108.788,117.856 108.668,117.636C108.595,117.503 108.545,117.35 108.518,117.176C108.491,117.003 108.478,116.813 108.478,116.606L108.478,114.936C108.478,114.73 108.491,114.54 108.518,114.366C108.545,114.193 108.595,114.04 108.668,113.906C108.788,113.686 108.96,113.51 109.183,113.376C109.406,113.243 109.678,113.176 109.998,113.176C110.231,113.176 110.443,113.216 110.633,113.296C110.823,113.376 110.985,113.486 111.118,113.626C111.385,113.926 111.518,114.303 111.518,114.756L111.518,116.156ZM109.498,115.356L110.498,115.356L110.498,114.776C110.498,114.583 110.453,114.438 110.363,114.341C110.273,114.245 110.151,114.196 109.998,114.196C109.845,114.196 109.723,114.245 109.633,114.341C109.543,114.438 109.498,114.583 109.498,114.776L109.498,115.356Z" style="fill:rgb(5,5,5);fill-rule:nonzero;"/>
                <path d="M112.208,111.186L113.228,111.186L113.228,116.876C113.228,117.07 113.263,117.201 113.333,117.271C113.403,117.341 113.535,117.386 113.728,117.406L113.728,118.366C113.495,118.366 113.285,118.348 113.098,118.311C112.911,118.275 112.751,118.203 112.618,118.096C112.485,117.996 112.383,117.855 112.313,117.671C112.243,117.488 112.208,117.246 112.208,116.946L112.208,111.186Z" style="fill:rgb(5,5,5);fill-rule:nonzero;"/>
                <path d="M102.603,123.186L101.443,126.176L101.463,126.196C101.496,126.17 101.548,126.148 101.618,126.131C101.688,126.115 101.78,126.106 101.893,126.106C102.073,126.106 102.24,126.15 102.393,126.236C102.546,126.323 102.666,126.433 102.753,126.566C102.8,126.64 102.836,126.713 102.863,126.786C102.89,126.86 102.913,126.956 102.933,127.076C102.946,127.196 102.956,127.348 102.963,127.531C102.97,127.715 102.973,127.946 102.973,128.226C102.973,128.46 102.97,128.651 102.963,128.801C102.956,128.951 102.946,129.076 102.933,129.176C102.913,129.283 102.888,129.373 102.858,129.446C102.828,129.52 102.79,129.596 102.743,129.676C102.61,129.896 102.431,130.066 102.208,130.186C101.985,130.306 101.733,130.366 101.453,130.366C101.173,130.366 100.923,130.305 100.703,130.181C100.483,130.058 100.306,129.89 100.173,129.676C100.12,129.596 100.078,129.52 100.048,129.446C100.018,129.373 99.996,129.283 99.983,129.176C99.963,129.076 99.95,128.951 99.943,128.801C99.936,128.651 99.933,128.46 99.933,128.226C99.933,128.006 99.936,127.825 99.943,127.681C99.95,127.538 99.96,127.413 99.973,127.306C99.986,127.206 100.006,127.115 100.033,127.031C100.06,126.948 100.09,126.86 100.123,126.766L101.463,123.186L102.603,123.186ZM101.953,127.516C101.953,127.363 101.903,127.24 101.803,127.146C101.703,127.053 101.586,127.006 101.453,127.006C101.32,127.006 101.203,127.053 101.103,127.146C101.003,127.24 100.953,127.363 100.953,127.516L100.953,128.836C100.953,128.99 101.003,129.113 101.103,129.206C101.203,129.3 101.32,129.346 101.453,129.346C101.586,129.346 101.703,129.3 101.803,129.206C101.903,129.113 101.953,128.99 101.953,128.836L101.953,127.516Z" style="fill:rgb(5,5,5);fill-rule:nonzero;"/>
            </g>
            <g transform="matrix(2,0,0,2.31445,-111.121,-95.2414)">
                <text x="89.198px" y="118.306px" style="font-family:'DINCondensed-Bold', 'DIN Condensed';font-weight:700;font-stretch:condensed;font-size:10px;fill:rgb(5,5,5);">c<tspan x="92.778px 96.668px " y="118.306px 118.306px ">ha</tspan>nnel</text>
                <text x="99.593px" y="130.306px" style="font-family:'DINCondensed-Bold', 'DIN Condensed';font-weight:700;font-stretch:condensed;font-size:10px;fill:rgb(5,5,5);">6</text>
            </g>
            <g transform="matrix(0.38395,0,0,0.851364,32.4949,47.2564)">
                <rect x="10" y="121.987" width="70" height="77.941" style="fill:rgb(204,105,51);"/>
            </g>
            <g transform="matrix(2,0,0,2.31445,12.6316,-24.615)">
                <path d="M15.364,97.214L15.364,95.339L18.957,88.562C19.14,88.223 19.244,87.927 19.27,87.673C19.296,87.419 19.309,87.103 19.309,86.726C19.309,86.556 19.306,86.377 19.299,86.188C19.293,86 19.257,85.834 19.192,85.69C19.127,85.547 19.029,85.427 18.899,85.329C18.769,85.231 18.58,85.183 18.332,85.183C18.033,85.183 17.795,85.267 17.619,85.436C17.444,85.606 17.356,85.853 17.356,86.179L17.356,87.312L15.364,87.312L15.364,86.218C15.364,85.801 15.442,85.41 15.598,85.046C15.754,84.681 15.969,84.362 16.242,84.089C16.503,83.815 16.815,83.597 17.18,83.434C17.545,83.272 17.935,83.19 18.352,83.19C18.873,83.19 19.319,83.285 19.69,83.474C20.061,83.662 20.37,83.92 20.618,84.245C20.852,84.571 21.025,84.942 21.135,85.358C21.246,85.775 21.301,86.218 21.301,86.687C21.301,87.025 21.295,87.308 21.282,87.536C21.269,87.764 21.243,87.982 21.204,88.191C21.165,88.399 21.099,88.607 21.008,88.816C20.917,89.024 20.793,89.278 20.637,89.577L17.707,95.222L21.301,95.222L21.301,97.214L15.364,97.214Z" style="fill-rule:nonzero;"/>
            </g>
            <g transform="matrix(2,0,0,2.31445,12.6316,-24.615)">
                <text x="14.699px" y="97.214px" style="font-family:'DINCondensed-Bold', 'DIN Condensed';font-weight:700;font-stretch:condensed;font-size:19.532px;">2</text>
            </g>
        </g>
        <g>
            <g transform="matrix(2,0,0,2.31445,-111.121,-171.288)">
                <path d="M90.698,116.846C90.698,117.006 90.743,117.13 90.833,117.216C90.923,117.303 91.045,117.346 91.198,117.346C91.391,117.346 91.52,117.29 91.583,117.176C91.646,117.063 91.685,116.95 91.698,116.836L92.718,116.836C92.718,117.283 92.581,117.643 92.308,117.916C92.175,118.056 92.015,118.166 91.828,118.246C91.641,118.326 91.431,118.366 91.198,118.366C90.878,118.366 90.606,118.3 90.383,118.166C90.16,118.033 89.988,117.856 89.868,117.636C89.795,117.503 89.745,117.35 89.718,117.176C89.691,117.003 89.678,116.813 89.678,116.606L89.678,114.936C89.678,114.73 89.691,114.54 89.718,114.366C89.745,114.193 89.795,114.04 89.868,113.906C89.988,113.686 90.16,113.51 90.383,113.376C90.606,113.243 90.878,113.176 91.198,113.176C91.431,113.176 91.643,113.216 91.833,113.296C92.023,113.376 92.185,113.486 92.318,113.626C92.585,113.926 92.718,114.316 92.718,114.796L91.698,114.796C91.698,114.59 91.653,114.438 91.563,114.341C91.473,114.245 91.351,114.196 91.198,114.196C91.045,114.196 90.923,114.245 90.833,114.341C90.743,114.438 90.698,114.583 90.698,114.776L90.698,116.846Z" style="fill:rgb(5,5,5);fill-rule:nonzero;"/>
                <path d="M93.198,118.306L93.198,111.186L94.218,111.186L94.218,113.726L94.238,113.726C94.345,113.566 94.473,113.435 94.623,113.331C94.773,113.228 94.965,113.176 95.198,113.176C95.325,113.176 95.451,113.198 95.578,113.241C95.705,113.285 95.818,113.356 95.918,113.456C96.018,113.556 96.098,113.685 96.158,113.841C96.218,113.998 96.248,114.19 96.248,114.416L96.248,118.306L95.228,118.306L95.228,114.796C95.228,114.61 95.185,114.463 95.098,114.356C95.011,114.25 94.888,114.196 94.728,114.196C94.535,114.196 94.401,114.256 94.328,114.376C94.255,114.496 94.218,114.67 94.218,114.896L94.218,118.306L93.198,118.306Z" style="fill:rgb(5,5,5);fill-rule:nonzero;"/>
                <path d="M99.018,118.306L99.018,117.786L98.998,117.786C98.865,117.973 98.73,118.116 98.593,118.216C98.456,118.316 98.265,118.366 98.018,118.366C97.898,118.366 97.776,118.348 97.653,118.311C97.53,118.275 97.411,118.206 97.298,118.106C97.185,118.013 97.093,117.878 97.023,117.701C96.953,117.525 96.918,117.296 96.918,117.016C96.918,116.73 96.941,116.478 96.988,116.261C97.035,116.045 97.121,115.863 97.248,115.716C97.368,115.576 97.531,115.471 97.738,115.401C97.945,115.331 98.208,115.296 98.528,115.296L98.638,115.296C98.678,115.296 98.715,115.3 98.748,115.306C98.781,115.313 98.821,115.316 98.868,115.316C98.915,115.316 98.965,115.32 99.018,115.326L99.018,114.796C99.018,114.623 98.981,114.48 98.908,114.366C98.835,114.253 98.701,114.196 98.508,114.196C98.375,114.196 98.253,114.24 98.143,114.326C98.033,114.413 97.961,114.54 97.928,114.706L96.938,114.706C96.965,114.253 97.118,113.886 97.398,113.606C97.531,113.473 97.691,113.368 97.878,113.291C98.065,113.215 98.275,113.176 98.508,113.176C98.721,113.176 98.921,113.21 99.108,113.276C99.295,113.343 99.458,113.443 99.598,113.576C99.731,113.71 99.838,113.876 99.918,114.076C99.998,114.276 100.038,114.51 100.038,114.776L100.038,118.306L99.018,118.306ZM99.018,116.126C98.905,116.106 98.811,116.096 98.738,116.096C98.518,116.096 98.33,116.148 98.173,116.251C98.016,116.355 97.938,116.543 97.938,116.816C97.938,117.01 97.985,117.166 98.078,117.286C98.171,117.406 98.301,117.466 98.468,117.466C98.641,117.466 98.776,117.41 98.873,117.296C98.97,117.183 99.018,117.023 99.018,116.816L99.018,116.126Z" style="fill:rgb(5,5,5);fill-rule:nonzero;"/>
                <path d="M100.788,118.306L100.788,113.236L101.808,113.236L101.808,113.726L101.828,113.726C101.935,113.566 102.063,113.435 102.213,113.331C102.363,113.228 102.555,113.176 102.788,113.176C102.915,113.176 103.041,113.198 103.168,113.241C103.295,113.285 103.408,113.356 103.508,113.456C103.608,113.556 103.688,113.685 103.748,113.841C103.808,113.998 103.838,114.19 103.838,114.416L103.838,118.306L102.818,118.306L102.818,114.796C102.818,114.61 102.775,114.463 102.688,114.356C102.601,114.25 102.478,114.196 102.318,114.196C102.125,114.196 101.991,114.256 101.918,114.376C101.845,114.496 101.808,114.67 101.808,114.896L101.808,118.306L100.788,118.306Z" style="fill:rgb(5,5,5);fill-rule:nonzero;"/>
                <path d="M104.678,118.306L104.678,113.236L105.698,113.236L105.698,113.726L105.718,113.726C105.825,113.566 105.953,113.435 106.103,113.331C106.253,113.228 106.445,113.176 106.678,113.176C106.805,113.176 106.931,113.198 107.058,113.241C107.185,113.285 107.298,113.356 107.398,113.456C107.498,113.556 107.578,113.685 107.638,113.841C107.698,113.998 107.728,114.19 107.728,114.416L107.728,118.306L106.708,118.306L106.708,114.796C106.708,114.61 106.665,114.463 106.578,114.356C106.491,114.25 106.368,114.196 106.208,114.196C106.015,114.196 105.881,114.256 105.808,114.376C105.735,114.496 105.698,114.67 105.698,114.896L105.698,118.306L104.678,118.306Z" style="fill:rgb(5,5,5);fill-rule:nonzero;"/>
                <path d="M111.518,116.156L109.498,116.156L109.498,116.846C109.498,117.006 109.543,117.13 109.633,117.216C109.723,117.303 109.845,117.346 109.998,117.346C110.191,117.346 110.32,117.29 110.383,117.176C110.446,117.063 110.485,116.95 110.498,116.836L111.518,116.836C111.518,117.283 111.381,117.643 111.108,117.916C110.975,118.056 110.815,118.166 110.628,118.246C110.441,118.326 110.231,118.366 109.998,118.366C109.678,118.366 109.406,118.3 109.183,118.166C108.96,118.033 108.788,117.856 108.668,117.636C108.595,117.503 108.545,117.35 108.518,117.176C108.491,117.003 108.478,116.813 108.478,116.606L108.478,114.936C108.478,114.73 108.491,114.54 108.518,114.366C108.545,114.193 108.595,114.04 108.668,113.906C108.788,113.686 108.96,113.51 109.183,113.376C109.406,113.243 109.678,113.176 109.998,113.176C110.231,113.176 110.443,113.216 110.633,113.296C110.823,113.376 110.985,113.486 111.118,113.626C111.385,113.926 111.518,114.303 111.518,114.756L111.518,116.156ZM109.498,115.356L110.498,115.356L110.498,114.776C110.498,114.583 110.453,114.438 110.363,114.341C110.273,114.245 110.151,114.196 109.998,114.196C109.845,114.196 109.723,114.245 109.633,114.341C109.543,114.438 109.498,114.583 109.498,114.776L109.498,115.356Z" style="fill:rgb(5,5,5);fill-rule:nonzero;"/>
                <path d="M112.208,111.186L113.228,111.186L113.228,116.876C113.228,117.07 113.263,117.201 113.333,117.271C113.403,117.341 113.535,117.386 113.728,117.406L113.728,118.366C113.495,118.366 113.285,118.348 113.098,118.311C112.911,118.275 112.751,118.203 112.618,118.096C112.485,117.996 112.383,117.855 112.313,117.671C112.243,117.488 112.208,117.246 112.208,116.946L112.208,111.186Z" style="fill:rgb(5,5,5);fill-rule:nonzero;"/>
                <path d="M96.283,123.186L96.283,124.146L94.263,124.146L94.263,126.066C94.356,125.973 94.476,125.895 94.623,125.831C94.77,125.768 94.933,125.736 95.113,125.736C95.46,125.736 95.741,125.841 95.958,126.051C96.175,126.261 96.283,126.576 96.283,126.996L96.283,128.836C96.283,129.076 96.241,129.29 96.158,129.476C96.075,129.663 95.963,129.823 95.823,129.956C95.683,130.09 95.521,130.191 95.338,130.261C95.155,130.331 94.963,130.366 94.763,130.366C94.563,130.366 94.371,130.331 94.188,130.261C94.005,130.191 93.843,130.09 93.703,129.956C93.563,129.823 93.451,129.663 93.368,129.476C93.285,129.29 93.243,129.076 93.243,128.836L93.243,128.536L94.263,128.536L94.263,128.796C94.263,128.97 94.311,129.105 94.408,129.201C94.505,129.298 94.63,129.346 94.783,129.346C94.936,129.346 95.055,129.3 95.138,129.206C95.221,129.113 95.263,128.983 95.263,128.816L95.263,127.146C95.263,127.006 95.218,126.886 95.128,126.786C95.038,126.686 94.923,126.636 94.783,126.636C94.696,126.636 94.623,126.651 94.563,126.681C94.503,126.711 94.453,126.746 94.413,126.786C94.373,126.826 94.343,126.87 94.323,126.916C94.29,126.976 94.27,127.013 94.263,127.026L93.363,127.026L93.363,123.186L96.283,123.186Z" style="fill:rgb(5,5,5);fill-rule:nonzero;"/>
                <path d="M98.533,130.366L99.853,123.126L100.653,123.126L99.333,130.366L98.533,130.366Z" style="fill:rgb(5,5,5);fill-rule:nonzero;"/>
                <path d="M104.113,130.306L104.113,124.266L103.093,125.016L103.093,123.936L104.113,123.186L105.133,123.186L105.133,130.306L104.113,130.306Z" style="fill:rgb(5,5,5);fill-rule:nonzero;"/>
                <path d="M106.623,124.656C106.623,124.416 106.665,124.203 106.748,124.016C106.831,123.83 106.943,123.67 107.083,123.536C107.223,123.403 107.385,123.301 107.568,123.231C107.751,123.161 107.943,123.126 108.143,123.126C108.343,123.126 108.535,123.161 108.718,123.231C108.901,123.301 109.063,123.403 109.203,123.536C109.343,123.67 109.455,123.83 109.538,124.016C109.621,124.203 109.663,124.416 109.663,124.656L109.663,128.836C109.663,129.076 109.621,129.29 109.538,129.476C109.455,129.663 109.343,129.823 109.203,129.956C109.063,130.09 108.901,130.191 108.718,130.261C108.535,130.331 108.343,130.366 108.143,130.366C107.943,130.366 107.751,130.331 107.568,130.261C107.385,130.191 107.223,130.09 107.083,129.956C106.943,129.823 106.831,129.663 106.748,129.476C106.665,129.29 106.623,129.076 106.623,128.836L106.623,124.656ZM107.643,128.836C107.643,128.983 107.69,129.105 107.783,129.201C107.876,129.298 107.996,129.346 108.143,129.346C108.29,129.346 108.41,129.298 108.503,129.201C108.596,129.105 108.643,128.983 108.643,128.836L108.643,124.656C108.643,124.51 108.596,124.388 108.503,124.291C108.41,124.195 108.29,124.146 108.143,124.146C107.996,124.146 107.876,124.195 107.783,124.291C107.69,124.388 107.643,124.51 107.643,124.656L107.643,128.836Z" style="fill:rgb(5,5,5);fill-rule:nonzero;"/>
            </g>
            <g transform="matrix(2,0,0,2.31445,-111.121,-171.288)">
                <text x="89.198px" y="118.306px" style="font-family:'DINCondensed-Bold', 'DIN Condensed';font-weight:700;font-stretch:condensed;font-size:10px;fill:rgb(5,5,5);">c<tspan x="92.778px 96.668px " y="118.306px 118.306px ">ha</tspan>nnel</text>
                <text x="92.903px" y="130.306px" style="font-family:'DINCondensed-Bold', 'DIN Condensed';font-weight:700;font-stretch:condensed;font-size:10px;fill:rgb(5,5,5);">5 / 10</text>
            </g>
            <g transform="matrix(0.38395,0,0,0.851364,32.4949,-28.7907)">
                <rect x="10" y="121.987" width="70" height="77.941" style="fill:rgb(51,204,69);"/>
            </g>
            <g transform="matrix(2,0,0,2.31445,12.6316,-100.662)">
                <path d="M17.727,97.214L17.727,85.417L15.735,86.882L15.735,84.772L17.727,83.307L19.719,83.307L19.719,97.214L17.727,97.214Z" style="fill-rule:nonzero;"/>
            </g>
            <g transform="matrix(2,0,0,2.31445,12.6316,-100.662)">
                <text x="14.699px" y="97.214px" style="font-family:'DINCondensed-Bold', 'DIN Condensed';font-weight:700;font-stretch:condensed;font-size:19.532px;">1</text>
            </g>
        </g>
    </g>
    <g transform="matrix(1,0,0,1,-4.5657,-11.8934)">
        <g transform="matrix(1,0,0,1,49.7332,24.9549)">
            <path d="M-21.426,23.32C-21.202,23.32 -21.09,23.38 -21.09,23.5C-21.09,23.612 -21.182,23.668 -21.366,23.668C-21.414,23.668 -21.506,23.664 -21.642,23.656C-21.778,23.648 -21.928,23.64 -22.092,23.632C-22.256,23.624 -22.42,23.616 -22.584,23.608C-22.748,23.6 -22.878,23.596 -22.974,23.596C-23.494,23.596 -23.924,23.612 -24.264,23.644C-24.604,23.676 -24.882,23.71 -25.098,23.746C-25.314,23.782 -25.482,23.814 -25.602,23.842C-25.722,23.87 -25.822,23.884 -25.902,23.884C-25.926,23.884 -25.958,23.874 -25.998,23.854C-26.038,23.834 -26.058,23.812 -26.058,23.788C-26.058,23.732 -26.052,23.664 -26.04,23.584C-26.028,23.504 -25.99,23.464 -25.926,23.464C-25.846,23.464 -25.728,23.458 -25.572,23.446C-25.416,23.434 -25.256,23.416 -25.092,23.392C-24.928,23.368 -24.778,23.336 -24.642,23.296C-24.506,23.256 -24.414,23.208 -24.366,23.152C-24.342,23.08 -24.316,22.92 -24.288,22.672C-24.26,22.424 -24.234,22.108 -24.21,21.724C-24.186,21.34 -24.166,20.898 -24.15,20.398C-24.134,19.898 -24.126,19.36 -24.126,18.784L-24.126,17.35C-24.126,16.954 -24.132,16.624 -24.144,16.36C-24.156,16.096 -24.174,15.892 -24.198,15.748C-24.222,15.604 -24.254,15.5 -24.294,15.436C-24.654,15.412 -24.932,15.376 -25.128,15.328C-25.324,15.28 -25.422,15.232 -25.422,15.184C-25.446,15.16 -25.458,15.128 -25.458,15.088C-25.458,15 -25.362,14.956 -25.17,14.956C-25.074,14.956 -24.85,14.972 -24.498,15.004C-24.146,15.036 -23.734,15.052 -23.262,15.052C-22.91,15.052 -22.624,15.046 -22.404,15.034C-22.184,15.022 -22.004,15.008 -21.864,14.992C-21.724,14.976 -21.612,14.96 -21.528,14.944C-21.444,14.928 -21.366,14.92 -21.294,14.92C-21.182,14.92 -21.126,14.968 -21.126,15.064C-21.126,15.128 -21.16,15.178 -21.228,15.214C-21.296,15.25 -21.38,15.276 -21.48,15.292C-21.58,15.308 -21.688,15.32 -21.804,15.328C-21.92,15.336 -22.026,15.344 -22.122,15.352C-22.186,15.36 -22.25,15.37 -22.314,15.382C-22.378,15.394 -22.43,15.408 -22.47,15.424C-22.51,15.44 -22.546,15.584 -22.578,15.856C-22.61,16.128 -22.638,16.464 -22.662,16.864C-22.686,17.264 -22.704,17.692 -22.716,18.148C-22.728,18.604 -22.734,19.024 -22.734,19.408C-22.358,19.2 -21.994,18.956 -21.642,18.676C-21.29,18.396 -20.934,18.052 -20.574,17.644C-20.438,17.492 -20.296,17.334 -20.148,17.17C-20,17.006 -19.862,16.834 -19.734,16.654C-19.606,16.474 -19.502,16.288 -19.422,16.096C-19.342,15.904 -19.302,15.712 -19.302,15.52C-19.302,15.464 -19.318,15.412 -19.35,15.364C-19.446,15.364 -19.546,15.37 -19.65,15.382C-19.754,15.394 -19.852,15.41 -19.944,15.43C-20.036,15.45 -20.116,15.466 -20.184,15.478C-20.252,15.49 -20.298,15.496 -20.322,15.496C-20.442,15.496 -20.502,15.436 -20.502,15.316C-20.502,15.228 -20.48,15.146 -20.436,15.07C-20.392,14.994 -20.326,14.956 -20.238,14.956C-20.15,14.94 -19.998,14.944 -19.782,14.968C-19.566,14.992 -19.282,15.004 -18.93,15.004L-17.91,15.004C-17.83,15.004 -17.752,15.002 -17.676,14.998C-17.6,14.994 -17.53,14.988 -17.466,14.98C-17.394,14.972 -17.326,14.968 -17.262,14.968C-17.126,14.968 -17.058,15.008 -17.058,15.088C-17.058,15.112 -17.062,15.128 -17.07,15.136C-17.174,15.256 -17.328,15.416 -17.532,15.616C-17.736,15.816 -17.966,16.03 -18.222,16.258C-18.478,16.486 -18.75,16.726 -19.038,16.978C-19.326,17.23 -19.604,17.47 -19.872,17.698C-20.14,17.926 -20.39,18.136 -20.622,18.328C-20.854,18.52 -21.042,18.676 -21.186,18.796C-20.986,18.756 -20.83,18.736 -20.718,18.736C-20.31,18.736 -19.95,18.814 -19.638,18.97C-19.326,19.126 -19.062,19.328 -18.846,19.576C-18.63,19.824 -18.468,20.104 -18.36,20.416C-18.252,20.728 -18.198,21.04 -18.198,21.352C-18.198,21.424 -18.204,21.5 -18.216,21.58C-18.228,21.66 -18.254,21.732 -18.294,21.796C-18.174,22.052 -18.044,22.34 -17.904,22.66C-17.764,22.98 -17.604,23.282 -17.424,23.566C-17.244,23.85 -17.036,24.096 -16.8,24.304C-16.564,24.512 -16.29,24.632 -15.978,24.664C-15.89,24.664 -15.786,24.642 -15.666,24.598C-15.546,24.554 -15.434,24.508 -15.33,24.46C-15.306,24.46 -15.28,24.486 -15.252,24.538C-15.224,24.59 -15.21,24.636 -15.21,24.676C-15.21,24.796 -15.262,24.896 -15.366,24.976C-15.47,25.056 -15.582,25.096 -15.702,25.096C-15.918,25.096 -16.17,25.042 -16.458,24.934C-16.746,24.826 -17.034,24.674 -17.322,24.478C-17.61,24.282 -17.886,24.05 -18.15,23.782C-18.414,23.514 -18.634,23.216 -18.81,22.888C-18.842,22.832 -18.898,22.716 -18.978,22.54C-19.058,22.364 -19.164,22.158 -19.296,21.922C-19.428,21.686 -19.578,21.432 -19.746,21.16C-19.914,20.888 -20.104,20.634 -20.316,20.398C-20.528,20.162 -20.754,19.954 -20.994,19.774C-21.234,19.594 -21.49,19.476 -21.762,19.42C-21.922,19.428 -22.084,19.488 -22.248,19.6C-22.412,19.712 -22.574,19.86 -22.734,20.044L-22.734,20.572C-22.734,20.852 -22.73,21.132 -22.722,21.412C-22.714,21.692 -22.704,21.95 -22.692,22.186C-22.68,22.422 -22.662,22.626 -22.638,22.798C-22.614,22.97 -22.582,23.08 -22.542,23.128C-22.47,23.208 -22.34,23.26 -22.152,23.284C-21.964,23.308 -21.778,23.32 -21.594,23.32L-21.426,23.32Z" style="fill-rule:nonzero;"/>
            <path d="M-11.094,22.192C-11.182,22.288 -11.318,22.42 -11.502,22.588C-11.686,22.756 -11.908,22.924 -12.168,23.092C-12.428,23.26 -12.718,23.404 -13.038,23.524C-13.358,23.644 -13.698,23.704 -14.058,23.704C-14.386,23.704 -14.706,23.654 -15.018,23.554C-15.33,23.454 -15.61,23.302 -15.858,23.098C-16.106,22.894 -16.304,22.634 -16.452,22.318C-16.6,22.002 -16.674,21.624 -16.674,21.184C-16.674,20.824 -16.65,20.514 -16.602,20.254C-16.554,19.994 -16.49,19.766 -16.41,19.57C-16.33,19.374 -16.24,19.206 -16.14,19.066C-16.04,18.926 -15.938,18.8 -15.834,18.688C-15.706,18.544 -15.55,18.408 -15.366,18.28C-15.182,18.152 -14.984,18.036 -14.772,17.932C-14.56,17.828 -14.336,17.746 -14.1,17.686C-13.864,17.626 -13.626,17.596 -13.386,17.596C-12.954,17.596 -12.616,17.668 -12.372,17.812C-12.128,17.956 -12.006,18.156 -12.006,18.412C-12.006,18.572 -12.054,18.72 -12.15,18.856C-12.07,18.832 -11.968,18.792 -11.844,18.736C-11.72,18.68 -11.594,18.622 -11.466,18.562C-11.338,18.502 -11.224,18.448 -11.124,18.4C-11.024,18.352 -10.958,18.316 -10.926,18.292C-10.91,18.276 -10.892,18.27 -10.872,18.274C-10.852,18.278 -10.842,18.292 -10.842,18.316C-10.842,18.42 -10.862,18.506 -10.902,18.574C-10.942,18.642 -10.99,18.696 -11.046,18.736C-11.174,18.816 -11.358,18.916 -11.598,19.036C-11.838,19.156 -12.104,19.282 -12.396,19.414C-12.688,19.546 -12.99,19.678 -13.302,19.81C-13.614,19.942 -13.908,20.068 -14.184,20.188C-14.46,20.308 -14.7,20.414 -14.904,20.506C-15.108,20.598 -15.246,20.664 -15.318,20.704C-15.318,20.976 -15.264,21.23 -15.156,21.466C-15.048,21.702 -14.898,21.908 -14.706,22.084C-14.514,22.26 -14.284,22.398 -14.016,22.498C-13.748,22.598 -13.454,22.648 -13.134,22.648C-12.846,22.648 -12.586,22.618 -12.354,22.558C-12.122,22.498 -11.926,22.43 -11.766,22.354C-11.606,22.278 -11.48,22.21 -11.388,22.15C-11.296,22.09 -11.246,22.06 -11.238,22.06C-11.206,22.06 -11.174,22.074 -11.142,22.102C-11.11,22.13 -11.094,22.16 -11.094,22.192ZM-15.318,20.356C-15.182,20.308 -15.028,20.25 -14.856,20.182C-14.684,20.114 -14.516,20.04 -14.352,19.96C-14.188,19.88 -14.038,19.804 -13.902,19.732C-13.766,19.66 -13.662,19.596 -13.59,19.54C-13.446,19.436 -13.374,19.26 -13.374,19.012C-13.374,18.916 -13.392,18.816 -13.428,18.712C-13.464,18.608 -13.518,18.514 -13.59,18.43C-13.662,18.346 -13.75,18.278 -13.854,18.226C-13.958,18.174 -14.074,18.148 -14.202,18.148C-14.314,18.148 -14.434,18.186 -14.562,18.262C-14.69,18.338 -14.81,18.462 -14.922,18.634C-15.034,18.806 -15.128,19.034 -15.204,19.318C-15.28,19.602 -15.318,19.948 -15.318,20.356Z" style="fill-rule:nonzero;"/>
            <path d="M-11.118,27.16C-11.046,27.08 -10.938,26.948 -10.794,26.764C-10.65,26.58 -10.492,26.372 -10.32,26.14C-10.148,25.908 -9.972,25.66 -9.792,25.396C-9.612,25.132 -9.442,24.882 -9.282,24.646C-9.122,24.41 -8.984,24.194 -8.868,23.998C-8.752,23.802 -8.678,23.656 -8.646,23.56C-8.774,23.224 -8.91,22.868 -9.054,22.492C-9.198,22.116 -9.348,21.744 -9.504,21.376C-9.66,21.008 -9.816,20.656 -9.972,20.32C-10.128,19.984 -10.282,19.69 -10.434,19.438C-10.586,19.186 -10.732,18.984 -10.872,18.832C-11.012,18.68 -11.138,18.604 -11.25,18.604C-11.282,18.604 -11.318,18.614 -11.358,18.634C-11.398,18.654 -11.434,18.672 -11.466,18.688C-11.49,18.704 -11.518,18.684 -11.55,18.628C-11.582,18.572 -11.582,18.536 -11.55,18.52C-11.518,18.496 -11.424,18.436 -11.268,18.34C-11.112,18.244 -10.938,18.142 -10.746,18.034C-10.554,17.926 -10.368,17.828 -10.188,17.74C-10.008,17.652 -9.878,17.608 -9.798,17.608C-9.718,17.608 -9.624,17.68 -9.516,17.824C-9.408,17.968 -9.296,18.162 -9.18,18.406C-9.064,18.65 -8.942,18.928 -8.814,19.24C-8.686,19.552 -8.558,19.878 -8.43,20.218C-8.302,20.558 -8.176,20.9 -8.052,21.244C-7.928,21.588 -7.81,21.908 -7.698,22.204C-7.594,22.044 -7.46,21.816 -7.296,21.52C-7.132,21.224 -6.974,20.908 -6.822,20.572C-6.67,20.236 -6.54,19.904 -6.432,19.576C-6.324,19.248 -6.27,18.972 -6.27,18.748C-6.27,18.516 -6.326,18.35 -6.438,18.25C-6.55,18.15 -6.674,18.1 -6.81,18.1C-6.914,18.1 -6.996,18.102 -7.056,18.106C-7.116,18.11 -7.182,18.12 -7.254,18.136C-7.27,18.136 -7.294,18.126 -7.326,18.106C-7.358,18.086 -7.374,18.056 -7.374,18.016C-7.374,17.976 -7.286,17.932 -7.11,17.884C-6.934,17.836 -6.73,17.792 -6.498,17.752C-6.266,17.712 -6.038,17.678 -5.814,17.65C-5.59,17.622 -5.434,17.608 -5.346,17.608C-5.162,17.608 -5.026,17.644 -4.938,17.716C-4.85,17.788 -4.806,17.872 -4.806,17.968C-4.854,18.16 -4.956,18.41 -5.112,18.718C-5.268,19.026 -5.454,19.362 -5.67,19.726C-5.886,20.09 -6.116,20.466 -6.36,20.854C-6.604,21.242 -6.838,21.608 -7.062,21.952C-7.286,22.296 -7.488,22.604 -7.668,22.876C-7.848,23.148 -7.978,23.348 -8.058,23.476C-8.218,23.724 -8.37,23.982 -8.514,24.25C-8.658,24.518 -8.79,24.786 -8.91,25.054C-9.03,25.322 -9.136,25.578 -9.228,25.822C-9.32,26.066 -9.386,26.288 -9.426,26.488C-9.45,26.608 -9.428,26.686 -9.36,26.722C-9.292,26.758 -9.204,26.766 -9.096,26.746C-8.988,26.726 -8.87,26.688 -8.742,26.632C-8.614,26.576 -8.506,26.512 -8.418,26.44C-8.378,26.408 -8.352,26.402 -8.34,26.422C-8.328,26.442 -8.322,26.472 -8.322,26.512C-8.322,26.552 -8.33,26.594 -8.346,26.638C-8.362,26.682 -8.382,26.712 -8.406,26.728C-8.414,26.728 -8.506,26.764 -8.682,26.836C-8.858,26.908 -9.07,26.986 -9.318,27.07C-9.566,27.154 -9.828,27.232 -10.104,27.304C-10.38,27.376 -10.622,27.412 -10.83,27.412C-11.03,27.412 -11.13,27.348 -11.13,27.22C-11.13,27.204 -11.128,27.192 -11.124,27.184C-11.12,27.176 -11.118,27.168 -11.118,27.16Z" style="fill-rule:nonzero;"/>
            <path d="M-27.972,32.62C-27.988,32.62 -28.004,32.618 -28.02,32.614C-28.036,32.61 -28.048,32.596 -28.056,32.572C-28.056,32.564 -28.046,32.536 -28.026,32.488C-28.006,32.44 -27.972,32.388 -27.924,32.332C-27.876,32.276 -27.816,32.226 -27.744,32.182C-27.672,32.138 -27.584,32.116 -27.48,32.116C-27.352,32.116 -27.248,32.15 -27.168,32.218C-27.088,32.286 -27.024,32.38 -26.976,32.5C-26.928,32.62 -26.896,32.758 -26.88,32.914C-26.864,33.07 -26.856,33.236 -26.856,33.412C-26.832,33.604 -26.742,33.8 -26.586,34C-26.43,34.2 -26.238,34.38 -26.01,34.54C-25.782,34.7 -25.532,34.832 -25.26,34.936C-24.988,35.04 -24.724,35.096 -24.468,35.104C-23.86,35.12 -23.416,34.99 -23.136,34.714C-22.856,34.438 -22.716,34.084 -22.716,33.652C-22.716,33.292 -22.784,33 -22.92,32.776C-23.056,32.552 -23.238,32.372 -23.466,32.236C-23.694,32.1 -23.952,31.99 -24.24,31.906C-24.528,31.822 -24.822,31.744 -25.122,31.672C-25.422,31.6 -25.716,31.52 -26.004,31.432C-26.292,31.344 -26.55,31.224 -26.778,31.072C-27.006,30.92 -27.188,30.722 -27.324,30.478C-27.46,30.234 -27.528,29.92 -27.528,29.536C-27.528,29.168 -27.446,28.818 -27.282,28.486C-27.118,28.154 -26.884,27.862 -26.58,27.61C-26.276,27.358 -25.906,27.158 -25.47,27.01C-25.034,26.862 -24.54,26.788 -23.988,26.788C-23.46,26.788 -23.008,26.84 -22.632,26.944C-22.256,27.048 -21.968,27.128 -21.768,27.184C-21.728,27.12 -21.684,27.046 -21.636,26.962C-21.588,26.878 -21.534,26.8 -21.474,26.728C-21.414,26.656 -21.348,26.594 -21.276,26.542C-21.204,26.49 -21.12,26.464 -21.024,26.464C-20.952,26.464 -20.894,26.486 -20.85,26.53C-20.806,26.574 -20.784,26.616 -20.784,26.656C-20.8,26.696 -20.832,26.728 -20.88,26.752C-20.928,26.776 -20.972,26.8 -21.012,26.824C-21.26,26.952 -21.466,27.25 -21.63,27.718C-21.794,28.186 -21.888,28.76 -21.912,29.44C-21.92,29.456 -21.94,29.468 -21.972,29.476C-22.004,29.484 -22.04,29.488 -22.08,29.488C-22.144,29.488 -22.188,29.484 -22.212,29.476C-22.236,29.236 -22.308,28.992 -22.428,28.744C-22.548,28.496 -22.714,28.27 -22.926,28.066C-23.138,27.862 -23.398,27.696 -23.706,27.568C-24.014,27.44 -24.364,27.376 -24.756,27.376C-24.996,27.376 -25.212,27.41 -25.404,27.478C-25.596,27.546 -25.758,27.638 -25.89,27.754C-26.022,27.87 -26.122,28 -26.19,28.144C-26.258,28.288 -26.292,28.432 -26.292,28.576C-26.292,28.912 -26.156,29.218 -25.884,29.494C-25.612,29.77 -25.2,29.976 -24.648,30.112C-24.304,30.2 -23.946,30.298 -23.574,30.406C-23.202,30.514 -22.864,30.66 -22.56,30.844C-22.256,31.028 -22.004,31.26 -21.804,31.54C-21.604,31.82 -21.504,32.176 -21.504,32.608C-21.504,33.032 -21.602,33.438 -21.798,33.826C-21.994,34.214 -22.252,34.556 -22.572,34.852C-22.892,35.148 -23.256,35.384 -23.664,35.56C-24.072,35.736 -24.488,35.824 -24.912,35.824C-25.24,35.824 -25.56,35.802 -25.872,35.758C-26.184,35.714 -26.472,35.662 -26.736,35.602C-27,35.542 -27.232,35.478 -27.432,35.41C-27.632,35.342 -27.78,35.284 -27.876,35.236C-27.804,35.108 -27.73,34.972 -27.654,34.828C-27.578,34.684 -27.506,34.532 -27.438,34.372C-27.37,34.212 -27.314,34.046 -27.27,33.874C-27.226,33.702 -27.204,33.52 -27.204,33.328C-27.204,33.048 -27.246,32.836 -27.33,32.692C-27.414,32.548 -27.512,32.476 -27.624,32.476C-27.704,32.476 -27.76,32.492 -27.792,32.524C-27.824,32.556 -27.864,32.604 -27.912,32.668L-27.972,32.62Z" style="fill-rule:nonzero;"/>
            <path d="M-15.096,33.928C-15.08,33.912 -15.066,33.914 -15.054,33.934C-15.042,33.954 -15.034,33.982 -15.03,34.018C-15.026,34.054 -15.028,34.092 -15.036,34.132C-15.044,34.172 -15.06,34.204 -15.084,34.228C-15.244,34.38 -15.444,34.54 -15.684,34.708C-15.924,34.876 -16.172,35.032 -16.428,35.176C-16.5,35.216 -16.6,35.268 -16.728,35.332C-16.856,35.396 -16.998,35.458 -17.154,35.518C-17.31,35.578 -17.47,35.63 -17.634,35.674C-17.798,35.718 -17.952,35.74 -18.096,35.74C-18.384,35.74 -18.656,35.684 -18.912,35.572C-19.168,35.46 -19.392,35.306 -19.584,35.11C-19.776,34.914 -19.926,34.68 -20.034,34.408C-20.142,34.136 -20.196,33.84 -20.196,33.52C-20.196,33.176 -20.148,32.852 -20.052,32.548C-19.956,32.244 -19.846,31.972 -19.722,31.732C-19.598,31.492 -19.48,31.29 -19.368,31.126C-19.256,30.962 -19.18,30.84 -19.14,30.76C-19.292,30.752 -19.43,30.746 -19.554,30.742C-19.678,30.738 -19.796,30.736 -19.908,30.736C-20.164,30.736 -20.38,30.738 -20.556,30.742C-20.732,30.746 -20.888,30.764 -21.024,30.796C-21.088,30.812 -21.148,30.844 -21.204,30.892C-21.26,30.94 -21.308,30.976 -21.348,31C-21.364,30.984 -21.386,30.962 -21.414,30.934C-21.442,30.906 -21.456,30.876 -21.456,30.844C-21.456,30.828 -21.452,30.816 -21.444,30.808C-21.444,30.8 -21.392,30.754 -21.288,30.67C-21.184,30.586 -21.054,30.486 -20.898,30.37C-20.742,30.254 -20.57,30.126 -20.382,29.986C-20.194,29.846 -20.014,29.716 -19.842,29.596C-19.67,29.476 -19.522,29.374 -19.398,29.29C-19.274,29.206 -19.192,29.156 -19.152,29.14C-19.104,29.124 -19.056,29.132 -19.008,29.164C-18.96,29.196 -18.944,29.22 -18.96,29.236C-18.984,29.252 -19.02,29.282 -19.068,29.326C-19.116,29.37 -19.132,29.408 -19.116,29.44C-19.028,29.512 -18.876,29.576 -18.66,29.632C-18.444,29.688 -18.2,29.734 -17.928,29.77C-17.656,29.806 -17.376,29.834 -17.088,29.854C-16.8,29.874 -16.54,29.884 -16.308,29.884C-15.964,29.884 -15.688,29.874 -15.48,29.854C-15.272,29.834 -15.1,29.808 -14.964,29.776C-14.836,29.744 -14.752,29.72 -14.712,29.704C-14.704,29.704 -14.688,29.716 -14.664,29.74C-14.64,29.764 -14.628,29.792 -14.628,29.824C-14.628,29.84 -14.686,29.88 -14.802,29.944C-14.918,30.008 -15.036,30.076 -15.156,30.148C-15.228,30.188 -15.314,30.24 -15.414,30.304C-15.514,30.368 -15.622,30.43 -15.738,30.49C-15.854,30.55 -15.976,30.604 -16.104,30.652C-16.232,30.7 -16.356,30.728 -16.476,30.736C-16.596,30.752 -16.736,30.764 -16.896,30.772C-17.056,30.78 -17.224,30.786 -17.4,30.79C-17.576,30.794 -17.754,30.798 -17.934,30.802C-18.114,30.806 -18.28,30.808 -18.432,30.808C-18.456,30.848 -18.494,30.914 -18.546,31.006C-18.598,31.098 -18.648,31.216 -18.696,31.36C-18.744,31.504 -18.788,31.668 -18.828,31.852C-18.868,32.036 -18.888,32.236 -18.888,32.452C-18.888,32.78 -18.838,33.082 -18.738,33.358C-18.638,33.634 -18.498,33.872 -18.318,34.072C-18.138,34.272 -17.924,34.428 -17.676,34.54C-17.428,34.652 -17.16,34.708 -16.872,34.708C-16.704,34.708 -16.542,34.688 -16.386,34.648C-16.23,34.608 -16.082,34.556 -15.942,34.492C-15.802,34.428 -15.672,34.358 -15.552,34.282C-15.432,34.206 -15.328,34.132 -15.24,34.06L-15.096,33.928Z" style="fill-rule:nonzero;"/>
            <path d="M-9.564,34.192C-9.652,34.288 -9.788,34.42 -9.972,34.588C-10.156,34.756 -10.378,34.924 -10.638,35.092C-10.898,35.26 -11.188,35.404 -11.508,35.524C-11.828,35.644 -12.168,35.704 -12.528,35.704C-12.856,35.704 -13.176,35.654 -13.488,35.554C-13.8,35.454 -14.08,35.302 -14.328,35.098C-14.576,34.894 -14.774,34.634 -14.922,34.318C-15.07,34.002 -15.144,33.624 -15.144,33.184C-15.144,32.824 -15.12,32.514 -15.072,32.254C-15.024,31.994 -14.96,31.766 -14.88,31.57C-14.8,31.374 -14.71,31.206 -14.61,31.066C-14.51,30.926 -14.408,30.8 -14.304,30.688C-14.176,30.544 -14.02,30.408 -13.836,30.28C-13.652,30.152 -13.454,30.036 -13.242,29.932C-13.03,29.828 -12.806,29.746 -12.57,29.686C-12.334,29.626 -12.096,29.596 -11.856,29.596C-11.424,29.596 -11.086,29.668 -10.842,29.812C-10.598,29.956 -10.476,30.156 -10.476,30.412C-10.476,30.572 -10.524,30.72 -10.62,30.856C-10.54,30.832 -10.438,30.792 -10.314,30.736C-10.19,30.68 -10.064,30.622 -9.936,30.562C-9.808,30.502 -9.694,30.448 -9.594,30.4C-9.494,30.352 -9.428,30.316 -9.396,30.292C-9.38,30.276 -9.362,30.27 -9.342,30.274C-9.322,30.278 -9.312,30.292 -9.312,30.316C-9.312,30.42 -9.332,30.506 -9.372,30.574C-9.412,30.642 -9.46,30.696 -9.516,30.736C-9.644,30.816 -9.828,30.916 -10.068,31.036C-10.308,31.156 -10.574,31.282 -10.866,31.414C-11.158,31.546 -11.46,31.678 -11.772,31.81C-12.084,31.942 -12.378,32.068 -12.654,32.188C-12.93,32.308 -13.17,32.414 -13.374,32.506C-13.578,32.598 -13.716,32.664 -13.788,32.704C-13.788,32.976 -13.734,33.23 -13.626,33.466C-13.518,33.702 -13.368,33.908 -13.176,34.084C-12.984,34.26 -12.754,34.398 -12.486,34.498C-12.218,34.598 -11.924,34.648 -11.604,34.648C-11.316,34.648 -11.056,34.618 -10.824,34.558C-10.592,34.498 -10.396,34.43 -10.236,34.354C-10.076,34.278 -9.95,34.21 -9.858,34.15C-9.766,34.09 -9.716,34.06 -9.708,34.06C-9.676,34.06 -9.644,34.074 -9.612,34.102C-9.58,34.13 -9.564,34.16 -9.564,34.192ZM-13.788,32.356C-13.652,32.308 -13.498,32.25 -13.326,32.182C-13.154,32.114 -12.986,32.04 -12.822,31.96C-12.658,31.88 -12.508,31.804 -12.372,31.732C-12.236,31.66 -12.132,31.596 -12.06,31.54C-11.916,31.436 -11.844,31.26 -11.844,31.012C-11.844,30.916 -11.862,30.816 -11.898,30.712C-11.934,30.608 -11.988,30.514 -12.06,30.43C-12.132,30.346 -12.22,30.278 -12.324,30.226C-12.428,30.174 -12.544,30.148 -12.672,30.148C-12.784,30.148 -12.904,30.186 -13.032,30.262C-13.16,30.338 -13.28,30.462 -13.392,30.634C-13.504,30.806 -13.598,31.034 -13.674,31.318C-13.75,31.602 -13.788,31.948 -13.788,32.356Z" style="fill-rule:nonzero;"/>
            <path d="M-4.992,35.044C-5.248,35.204 -5.564,35.348 -5.94,35.476C-6.316,35.604 -6.68,35.668 -7.032,35.668C-7.144,35.668 -7.27,35.66 -7.41,35.644C-7.55,35.628 -7.664,35.612 -7.752,35.596C-7.76,35.748 -7.766,35.904 -7.77,36.064C-7.774,36.224 -7.778,36.378 -7.782,36.526C-7.786,36.674 -7.79,36.812 -7.794,36.94C-7.798,37.068 -7.8,37.176 -7.8,37.264C-7.8,37.672 -7.766,37.948 -7.698,38.092C-7.63,38.236 -7.524,38.308 -7.38,38.308C-7.308,38.308 -7.21,38.298 -7.086,38.278C-6.962,38.258 -6.852,38.224 -6.756,38.176C-6.74,38.16 -6.722,38.176 -6.702,38.224C-6.682,38.272 -6.672,38.316 -6.672,38.356C-6.672,38.364 -6.728,38.386 -6.84,38.422C-6.952,38.458 -7.094,38.502 -7.266,38.554C-7.438,38.606 -7.624,38.662 -7.824,38.722C-8.024,38.782 -8.216,38.838 -8.4,38.89C-8.584,38.942 -8.742,38.984 -8.874,39.016C-9.006,39.048 -9.088,39.064 -9.12,39.064C-9.168,39.064 -9.212,39.06 -9.252,39.052C-9.292,39.044 -9.312,39.008 -9.312,38.944C-9.312,38.904 -9.298,38.878 -9.27,38.866C-9.242,38.854 -9.22,38.836 -9.204,38.812C-9.164,38.764 -9.14,38.674 -9.132,38.542C-9.124,38.41 -9.112,38.28 -9.096,38.152C-9.072,37.84 -9.046,37.47 -9.018,37.042C-8.99,36.614 -8.964,36.166 -8.94,35.698C-8.916,35.23 -8.894,34.762 -8.874,34.294C-8.854,33.826 -8.844,33.4 -8.844,33.016C-8.844,32.472 -8.866,32.046 -8.91,31.738C-8.954,31.43 -9.016,31.202 -9.096,31.054C-9.176,30.906 -9.266,30.814 -9.366,30.778C-9.466,30.742 -9.572,30.724 -9.684,30.724C-9.708,30.724 -9.742,30.726 -9.786,30.73C-9.83,30.734 -9.872,30.736 -9.912,30.736C-9.944,30.736 -9.96,30.708 -9.96,30.652C-9.96,30.612 -9.958,30.586 -9.954,30.574C-9.95,30.562 -9.932,30.548 -9.9,30.532C-9.86,30.508 -9.786,30.468 -9.678,30.412C-9.57,30.356 -9.446,30.294 -9.306,30.226C-9.166,30.158 -9.016,30.086 -8.856,30.01C-8.696,29.934 -8.546,29.866 -8.406,29.806C-8.266,29.746 -8.144,29.696 -8.04,29.656C-7.936,29.616 -7.864,29.596 -7.824,29.596C-7.704,29.596 -7.622,29.648 -7.578,29.752C-7.534,29.856 -7.508,29.996 -7.5,30.172C-7.5,30.244 -7.502,30.358 -7.506,30.514C-7.51,30.67 -7.516,30.848 -7.524,31.048C-7.42,30.936 -7.278,30.798 -7.098,30.634C-6.918,30.47 -6.714,30.312 -6.486,30.16C-6.258,30.008 -6.018,29.878 -5.766,29.77C-5.514,29.662 -5.268,29.608 -5.028,29.608C-4.684,29.608 -4.378,29.67 -4.11,29.794C-3.842,29.918 -3.62,30.082 -3.444,30.286C-3.268,30.49 -3.134,30.722 -3.042,30.982C-2.95,31.242 -2.904,31.508 -2.904,31.78C-2.904,32.164 -2.962,32.518 -3.078,32.842C-3.194,33.166 -3.336,33.454 -3.504,33.706C-3.672,33.958 -3.856,34.176 -4.056,34.36C-4.256,34.544 -4.44,34.688 -4.608,34.792L-4.992,35.044ZM-7.692,34.12C-7.668,34.208 -7.604,34.298 -7.5,34.39C-7.396,34.482 -7.262,34.566 -7.098,34.642C-6.934,34.718 -6.746,34.782 -6.534,34.834C-6.322,34.886 -6.096,34.912 -5.856,34.912C-5.64,34.912 -5.434,34.87 -5.238,34.786C-5.042,34.702 -4.872,34.57 -4.728,34.39C-4.584,34.21 -4.47,33.976 -4.386,33.688C-4.302,33.4 -4.26,33.052 -4.26,32.644C-4.26,32.356 -4.3,32.084 -4.38,31.828C-4.46,31.572 -4.576,31.348 -4.728,31.156C-4.88,30.964 -5.06,30.814 -5.268,30.706C-5.476,30.598 -5.704,30.544 -5.952,30.544C-6.08,30.544 -6.222,30.572 -6.378,30.628C-6.534,30.684 -6.684,30.76 -6.828,30.856C-6.972,30.952 -7.106,31.064 -7.23,31.192C-7.354,31.32 -7.444,31.456 -7.5,31.6C-7.54,31.696 -7.574,31.846 -7.602,32.05C-7.63,32.254 -7.65,32.478 -7.662,32.722C-7.674,32.966 -7.682,33.212 -7.686,33.46C-7.69,33.708 -7.692,33.928 -7.692,34.12Z" style="fill-rule:nonzero;"/>
            <path d="M-21.45,47.008C-21.402,47.2 -21.234,47.32 -20.946,47.368C-20.874,47.376 -20.838,47.416 -20.838,47.488C-20.838,47.528 -20.858,47.564 -20.898,47.596C-20.938,47.628 -20.99,47.644 -21.054,47.644C-21.174,47.644 -21.334,47.636 -21.534,47.62C-21.734,47.604 -22.018,47.596 -22.386,47.596C-22.682,47.596 -22.942,47.606 -23.166,47.626C-23.39,47.646 -23.526,47.66 -23.574,47.668C-23.614,47.668 -23.642,47.656 -23.658,47.632C-23.674,47.608 -23.682,47.58 -23.682,47.548C-23.682,47.516 -23.676,47.484 -23.664,47.452C-23.652,47.42 -23.634,47.404 -23.61,47.404C-23.554,47.396 -23.498,47.38 -23.442,47.356C-23.386,47.332 -23.334,47.3 -23.286,47.26C-23.262,47.236 -23.232,47.108 -23.196,46.876C-23.16,46.644 -23.128,46.338 -23.1,45.958C-23.072,45.578 -23.048,45.14 -23.028,44.644C-23.008,44.148 -22.998,43.624 -22.998,43.072L-22.998,41.776C-22.998,41.376 -23.018,41.052 -23.058,40.804C-23.13,40.276 -23.298,39.87 -23.562,39.586C-23.826,39.302 -24.134,39.16 -24.486,39.16C-24.798,39.16 -25.106,39.246 -25.41,39.418C-25.714,39.59 -25.986,39.842 -26.226,40.174C-26.466,40.506 -26.66,40.918 -26.808,41.41C-26.956,41.902 -27.03,42.464 -27.03,43.096C-27.03,43.792 -26.952,44.398 -26.796,44.914C-26.64,45.43 -26.434,45.862 -26.178,46.21C-25.922,46.558 -25.628,46.818 -25.296,46.99C-24.964,47.162 -24.618,47.248 -24.258,47.248L-24.192,47.248C-24.164,47.248 -24.142,47.244 -24.126,47.236C-24.094,47.22 -24.074,47.22 -24.066,47.236C-24.058,47.252 -24.058,47.274 -24.066,47.302C-24.074,47.33 -24.084,47.358 -24.096,47.386C-24.108,47.414 -24.122,47.432 -24.138,47.44C-24.218,47.496 -24.33,47.546 -24.474,47.59C-24.618,47.634 -24.818,47.656 -25.074,47.656C-25.498,47.656 -25.92,47.558 -26.34,47.362C-26.76,47.166 -27.136,46.892 -27.468,46.54C-27.8,46.188 -28.068,45.762 -28.272,45.262C-28.476,44.762 -28.578,44.212 -28.578,43.612C-28.578,42.756 -28.454,42.024 -28.206,41.416C-27.958,40.808 -27.62,40.312 -27.192,39.928C-26.764,39.544 -26.268,39.262 -25.704,39.082C-25.14,38.902 -24.538,38.812 -23.898,38.812C-23.666,38.812 -23.454,38.836 -23.262,38.884C-23.07,38.932 -22.902,38.99 -22.758,39.058C-22.614,39.126 -22.496,39.192 -22.404,39.256C-22.312,39.32 -22.25,39.368 -22.218,39.4C-22.154,39.352 -22.024,39.294 -21.828,39.226C-21.632,39.158 -21.408,39.094 -21.156,39.034C-20.904,38.974 -20.642,38.922 -20.37,38.878C-20.098,38.834 -19.85,38.812 -19.626,38.812C-19.018,38.828 -18.484,38.928 -18.024,39.112C-17.564,39.296 -17.18,39.542 -16.872,39.85C-16.564,40.158 -16.332,40.514 -16.176,40.918C-16.02,41.322 -15.942,41.752 -15.942,42.208C-15.942,43.064 -16.056,43.826 -16.284,44.494C-16.512,45.162 -16.818,45.728 -17.202,46.192C-17.586,46.656 -18.03,47.01 -18.534,47.254C-19.038,47.498 -19.566,47.62 -20.118,47.62C-20.166,47.62 -20.198,47.602 -20.214,47.566C-20.23,47.53 -20.236,47.492 -20.232,47.452C-20.228,47.412 -20.214,47.378 -20.19,47.35C-20.166,47.322 -20.142,47.312 -20.118,47.32C-20.078,47.336 -20.046,47.344 -20.022,47.344L-19.926,47.344C-19.598,47.344 -19.29,47.232 -19.002,47.008C-18.714,46.784 -18.462,46.474 -18.246,46.078C-18.03,45.682 -17.86,45.214 -17.736,44.674C-17.612,44.134 -17.55,43.544 -17.55,42.904C-17.55,41.712 -17.732,40.784 -18.096,40.12C-18.46,39.456 -19.022,39.124 -19.782,39.124C-20.014,39.124 -20.23,39.172 -20.43,39.268C-20.63,39.364 -20.804,39.49 -20.952,39.646C-21.1,39.802 -21.22,39.98 -21.312,40.18C-21.404,40.38 -21.462,40.584 -21.486,40.792C-21.526,41.072 -21.55,41.52 -21.558,42.136C-21.566,42.752 -21.574,43.496 -21.582,44.368C-21.59,45.008 -21.584,45.566 -21.564,46.042C-21.544,46.518 -21.506,46.84 -21.45,47.008Z" style="fill-rule:nonzero;"/>
            <path d="M-13.434,45.508C-13.434,45.676 -13.43,45.838 -13.422,45.994C-13.414,46.15 -13.386,46.284 -13.338,46.396C-13.29,46.508 -13.218,46.598 -13.122,46.666C-13.026,46.734 -12.89,46.768 -12.714,46.768C-12.626,46.768 -12.526,46.758 -12.414,46.738C-12.302,46.718 -12.196,46.692 -12.096,46.66C-11.996,46.628 -11.908,46.596 -11.832,46.564C-11.756,46.532 -11.71,46.508 -11.694,46.492C-11.67,46.468 -11.654,46.468 -11.646,46.492C-11.638,46.516 -11.636,46.546 -11.64,46.582C-11.644,46.618 -11.654,46.654 -11.67,46.69C-11.686,46.726 -11.706,46.752 -11.73,46.768C-11.81,46.808 -11.95,46.88 -12.15,46.984C-12.35,47.088 -12.586,47.196 -12.858,47.308C-13.114,47.42 -13.364,47.514 -13.608,47.59C-13.852,47.666 -14.054,47.704 -14.214,47.704C-14.398,47.704 -14.542,47.648 -14.646,47.536C-14.75,47.424 -14.802,47.284 -14.802,47.116C-14.802,47.06 -14.8,47.012 -14.796,46.972C-14.792,46.932 -14.786,46.88 -14.778,46.816C-14.77,46.736 -14.756,46.59 -14.736,46.378C-14.716,46.166 -14.696,45.928 -14.676,45.664C-14.656,45.4 -14.638,45.134 -14.622,44.866C-14.606,44.598 -14.598,44.368 -14.598,44.176L-14.598,43.756C-14.598,43.548 -14.61,43.364 -14.634,43.204C-14.658,43.044 -14.698,42.92 -14.754,42.832C-14.794,42.776 -14.844,42.73 -14.904,42.694C-14.964,42.658 -15.038,42.64 -15.126,42.64C-15.174,42.64 -15.222,42.65 -15.27,42.67C-15.318,42.69 -15.354,42.7 -15.378,42.7C-15.394,42.7 -15.42,42.676 -15.456,42.628C-15.492,42.58 -15.49,42.544 -15.45,42.52C-15.394,42.48 -15.278,42.416 -15.102,42.328C-14.926,42.24 -14.734,42.144 -14.526,42.04C-14.302,41.928 -14.086,41.83 -13.878,41.746C-13.67,41.662 -13.522,41.62 -13.434,41.62C-13.346,41.62 -13.286,41.646 -13.254,41.698C-13.222,41.75 -13.206,41.808 -13.206,41.872L-13.206,41.92C-13.206,42 -13.218,42.128 -13.242,42.304C-13.266,42.48 -13.292,42.696 -13.32,42.952C-13.348,43.208 -13.374,43.504 -13.398,43.84C-13.422,44.176 -13.434,44.54 -13.434,44.932L-13.434,45.508ZM-13.914,39.268C-13.874,39.276 -13.808,39.32 -13.716,39.4C-13.624,39.48 -13.53,39.572 -13.434,39.676C-13.338,39.78 -13.254,39.88 -13.182,39.976C-13.11,40.072 -13.074,40.136 -13.074,40.168C-13.074,40.208 -13.122,40.268 -13.218,40.348C-13.314,40.428 -13.424,40.51 -13.548,40.594C-13.672,40.678 -13.792,40.752 -13.908,40.816C-14.024,40.88 -14.106,40.912 -14.154,40.912C-14.178,40.912 -14.236,40.874 -14.328,40.798C-14.42,40.722 -14.514,40.636 -14.61,40.54C-14.706,40.444 -14.792,40.35 -14.868,40.258C-14.944,40.166 -14.982,40.104 -14.982,40.072C-14.982,40.032 -14.93,39.97 -14.826,39.886C-14.722,39.802 -14.608,39.714 -14.484,39.622C-14.36,39.53 -14.24,39.45 -14.124,39.382C-14.008,39.314 -13.938,39.276 -13.914,39.268Z" style="fill-rule:nonzero;"/>
            <path d="M-7.47,46.636C-7.542,46.708 -7.658,46.804 -7.818,46.924C-7.978,47.044 -8.166,47.162 -8.382,47.278C-8.598,47.394 -8.832,47.494 -9.084,47.578C-9.336,47.662 -9.59,47.704 -9.846,47.704C-10.11,47.704 -10.374,47.644 -10.638,47.524C-10.902,47.404 -11.14,47.23 -11.352,47.002C-11.564,46.774 -11.734,46.5 -11.862,46.18C-11.99,45.86 -12.054,45.5 -12.054,45.1C-12.054,44.58 -11.964,44.108 -11.784,43.684C-11.604,43.26 -11.34,42.9 -10.992,42.604C-10.644,42.308 -10.22,42.08 -9.72,41.92C-9.22,41.76 -8.646,41.68 -7.998,41.68L-7.674,41.68C-7.57,41.68 -7.474,41.684 -7.386,41.692L-7.386,41.302C-7.386,41.114 -7.388,40.92 -7.392,40.72C-7.396,40.52 -7.4,40.336 -7.404,40.168C-7.408,40 -7.41,39.896 -7.41,39.856C-7.442,39.536 -7.496,39.312 -7.572,39.184C-7.648,39.056 -7.802,38.992 -8.034,38.992C-8.066,38.992 -8.084,38.956 -8.088,38.884C-8.092,38.812 -8.066,38.756 -8.01,38.716C-7.946,38.676 -7.874,38.646 -7.794,38.626C-7.714,38.606 -7.594,38.596 -7.434,38.596C-7.13,38.596 -6.876,38.594 -6.672,38.59C-6.468,38.586 -6.3,38.578 -6.168,38.566C-6.036,38.554 -5.93,38.538 -5.85,38.518C-5.77,38.498 -5.702,38.476 -5.646,38.452C-5.606,38.444 -5.572,38.454 -5.544,38.482C-5.516,38.51 -5.496,38.546 -5.484,38.59C-5.472,38.634 -5.47,38.676 -5.478,38.716C-5.486,38.756 -5.51,38.78 -5.55,38.788C-5.638,38.804 -5.704,38.822 -5.748,38.842C-5.792,38.862 -5.834,38.9 -5.874,38.956C-5.914,39.012 -5.95,39.16 -5.982,39.4C-6.014,39.64 -6.046,39.936 -6.078,40.288C-6.11,40.64 -6.138,41.03 -6.162,41.458C-6.186,41.886 -6.206,42.316 -6.222,42.748C-6.238,43.18 -6.252,43.6 -6.264,44.008C-6.276,44.416 -6.282,44.772 -6.282,45.076C-6.282,45.66 -6.218,46.09 -6.09,46.366C-5.962,46.642 -5.766,46.78 -5.502,46.78C-5.406,46.78 -5.3,46.764 -5.184,46.732C-5.068,46.7 -4.96,46.662 -4.86,46.618C-4.76,46.574 -4.668,46.53 -4.584,46.486C-4.5,46.442 -4.438,46.404 -4.398,46.372C-4.358,46.34 -4.322,46.36 -4.29,46.432C-4.258,46.504 -4.262,46.552 -4.302,46.576C-4.398,46.632 -4.548,46.714 -4.752,46.822C-4.956,46.93 -5.182,47.044 -5.43,47.164C-5.734,47.316 -6.042,47.452 -6.354,47.572C-6.666,47.692 -6.918,47.752 -7.11,47.752C-7.254,47.752 -7.352,47.728 -7.404,47.68C-7.456,47.632 -7.482,47.556 -7.482,47.452L-7.482,47.29C-7.482,47.214 -7.48,47.134 -7.476,47.05C-7.472,46.966 -7.47,46.886 -7.47,46.81L-7.47,46.636ZM-7.626,46.228C-7.562,46.14 -7.514,46.038 -7.482,45.922C-7.45,45.806 -7.426,45.648 -7.41,45.448C-7.394,45.28 -7.386,45.074 -7.386,44.83L-7.386,44.188C-7.386,44.004 -7.388,43.808 -7.392,43.6C-7.396,43.392 -7.402,43.248 -7.41,43.168C-7.426,43.032 -7.482,42.904 -7.578,42.784C-7.674,42.664 -7.798,42.56 -7.95,42.472C-8.102,42.384 -8.28,42.314 -8.484,42.262C-8.688,42.21 -8.902,42.184 -9.126,42.184C-9.342,42.184 -9.546,42.22 -9.738,42.292C-9.93,42.364 -10.096,42.48 -10.236,42.64C-10.376,42.8 -10.486,43.006 -10.566,43.258C-10.646,43.51 -10.686,43.82 -10.686,44.188C-10.686,44.564 -10.634,44.906 -10.53,45.214C-10.426,45.522 -10.282,45.788 -10.098,46.012C-9.914,46.236 -9.694,46.41 -9.438,46.534C-9.182,46.658 -8.902,46.72 -8.598,46.72C-8.478,46.72 -8.366,46.702 -8.262,46.666C-8.158,46.63 -8.064,46.586 -7.98,46.534C-7.896,46.482 -7.822,46.428 -7.758,46.372C-7.694,46.316 -7.65,46.268 -7.626,46.228Z" style="fill-rule:nonzero;"/>
            <path d="M-3.054,45.508C-3.054,45.676 -3.05,45.838 -3.042,45.994C-3.034,46.15 -3.006,46.284 -2.958,46.396C-2.91,46.508 -2.838,46.598 -2.742,46.666C-2.646,46.734 -2.51,46.768 -2.334,46.768C-2.246,46.768 -2.146,46.758 -2.034,46.738C-1.922,46.718 -1.816,46.692 -1.716,46.66C-1.616,46.628 -1.528,46.596 -1.452,46.564C-1.376,46.532 -1.33,46.508 -1.314,46.492C-1.29,46.468 -1.274,46.468 -1.266,46.492C-1.258,46.516 -1.256,46.546 -1.26,46.582C-1.264,46.618 -1.274,46.654 -1.29,46.69C-1.306,46.726 -1.326,46.752 -1.35,46.768C-1.43,46.808 -1.57,46.88 -1.77,46.984C-1.97,47.088 -2.206,47.196 -2.478,47.308C-2.734,47.42 -2.984,47.514 -3.228,47.59C-3.472,47.666 -3.674,47.704 -3.834,47.704C-4.018,47.704 -4.162,47.648 -4.266,47.536C-4.37,47.424 -4.422,47.284 -4.422,47.116C-4.422,47.06 -4.42,47.012 -4.416,46.972C-4.412,46.932 -4.406,46.88 -4.398,46.816C-4.39,46.736 -4.376,46.59 -4.356,46.378C-4.336,46.166 -4.316,45.928 -4.296,45.664C-4.276,45.4 -4.258,45.134 -4.242,44.866C-4.226,44.598 -4.218,44.368 -4.218,44.176L-4.218,43.756C-4.218,43.548 -4.23,43.364 -4.254,43.204C-4.278,43.044 -4.318,42.92 -4.374,42.832C-4.414,42.776 -4.464,42.73 -4.524,42.694C-4.584,42.658 -4.658,42.64 -4.746,42.64C-4.794,42.64 -4.842,42.65 -4.89,42.67C-4.938,42.69 -4.974,42.7 -4.998,42.7C-5.014,42.7 -5.04,42.676 -5.076,42.628C-5.112,42.58 -5.11,42.544 -5.07,42.52C-5.014,42.48 -4.898,42.416 -4.722,42.328C-4.546,42.24 -4.354,42.144 -4.146,42.04C-3.922,41.928 -3.706,41.83 -3.498,41.746C-3.29,41.662 -3.142,41.62 -3.054,41.62C-2.966,41.62 -2.906,41.646 -2.874,41.698C-2.842,41.75 -2.826,41.808 -2.826,41.872L-2.826,41.92C-2.826,42 -2.838,42.128 -2.862,42.304C-2.886,42.48 -2.912,42.696 -2.94,42.952C-2.968,43.208 -2.994,43.504 -3.018,43.84C-3.042,44.176 -3.054,44.54 -3.054,44.932L-3.054,45.508ZM-3.534,39.268C-3.494,39.276 -3.428,39.32 -3.336,39.4C-3.244,39.48 -3.15,39.572 -3.054,39.676C-2.958,39.78 -2.874,39.88 -2.802,39.976C-2.73,40.072 -2.694,40.136 -2.694,40.168C-2.694,40.208 -2.742,40.268 -2.838,40.348C-2.934,40.428 -3.044,40.51 -3.168,40.594C-3.292,40.678 -3.412,40.752 -3.528,40.816C-3.644,40.88 -3.726,40.912 -3.774,40.912C-3.798,40.912 -3.856,40.874 -3.948,40.798C-4.04,40.722 -4.134,40.636 -4.23,40.54C-4.326,40.444 -4.412,40.35 -4.488,40.258C-4.564,40.166 -4.602,40.104 -4.602,40.072C-4.602,40.032 -4.55,39.97 -4.446,39.886C-4.342,39.802 -4.228,39.714 -4.104,39.622C-3.98,39.53 -3.86,39.45 -3.744,39.382C-3.628,39.314 -3.558,39.276 -3.534,39.268Z" style="fill-rule:nonzero;"/>
        </g>
        <g transform="matrix(1,0,0,1,49.7332,24.9549)">
            <text x="-25.878px" y="23.596px" style="font-family:'Luminari-Regular', 'Luminari';font-size:12px;">Key</text>
            <text x="-28.152px" y="35.596px" style="font-family:'Luminari-Regular', 'Luminari';font-size:12px;">Step</text>
            <text x="-28.89px" y="47.596px" style="font-family:'Luminari-Regular', 'Luminari';font-size:12px;">Midi</text>
        </g>
        <g transform="matrix(0.0178906,0,0,0.0202937,25.4057,18.6064)">
            <g transform="matrix(1,0,0,1,-143.343,98.6554)">
                <ellipse cx="360.896" cy="293.762" rx="136.961" ry="230.443" style="fill:rgb(102,126,153);stroke:black;stroke-width:63.81px;"/>
            </g>
            <g transform="matrix(1,0,0,1,445.551,98.6554)">
                <ellipse cx="360.896" cy="293.762" rx="136.961" ry="230.443" style="fill:rgb(102,126,153);stroke:black;stroke-width:63.81px;"/>
            </g>
            <g transform="matrix(1,0,0,1,-34.3236,-20.6488)">
                <ellipse cx="546.324" cy="643.509" rx="431.408" ry="296.899" style="fill:rgb(102,126,153);stroke:black;stroke-width:63.81px;"/>
            </g>
            <circle cx="406.664" cy="569.758" r="105.336" style="fill:rgb(102,126,153);stroke:black;stroke-width:63.81px;"/>
            <g transform="matrix(1,0,0,1,210.672,0)">
                <circle cx="406.664" cy="569.758" r="105.336" style="fill:rgb(102,126,153);stroke:black;stroke-width:63.81px;"/>
            </g>
            <g transform="matrix(1,0,0,1,-53.1856,50.0357)">
                <ellipse cx="565.186" cy="671.455" rx="210.672" ry="98.631" style="fill:rgb(102,126,153);stroke:black;stroke-width:63.81px;"/>
            </g>
            <g transform="matrix(51.2,0,0,45.1371,0.670978,88.9676)">
                <path d="M12.057,13.791C12.057,13.668 11.958,13.568 11.835,13.568L8.139,13.568C8.016,13.568 7.916,13.668 7.916,13.791L7.916,14.236C7.916,14.359 8.016,14.458 8.139,14.458L11.835,14.458C11.958,14.458 12.057,14.359 12.057,14.236L12.057,13.791Z"/>
            </g>
        </g>
    </g>
</svg>
