<?xml version="1.0" encoding="UTF-8" standalone="no"?>
<!DOCTYPE svg PUBLIC "-//W3C//DTD SVG 1.1//EN" "http://www.w3.org/Graphics/SVG/1.1/DTD/svg11.dtd">
<svg width="100%" height="100%" viewBox="0 0 60 380" version="1.1" xmlns="http://www.w3.org/2000/svg" xmlns:xlink="http://www.w3.org/1999/xlink" xml:space="preserve" xmlns:serif="http://www.serif.com/" style="fill-rule:evenodd;clip-rule:evenodd;stroke-linecap:round;stroke-linejoin:round;stroke-miterlimit:1.5;">
    <g transform="matrix(0.607913,0,0,2.17398,-13.2722,-103.912)">
        <rect x="21.832" y="47.798" width="98.698" height="174.795" style="fill:rgb(102,126,153);"/>
    </g>
    <g transform="matrix(1,0,0,1,-133.442,-2.34924)">
        <g id="Connect-ledbutton" serif:id="Connect#ledbutton" transform="matrix(0.174892,0,0,0.175002,139.797,309.604)">
            <rect x="53.94" y="106.916" width="161.978" height="161.978" style="fill:rgb(102,126,153);"/>
        </g>
        <g transform="matrix(1,0,0,1,61.6324,198.288)">
            <path d="M90.698,116.846C90.698,117.006 90.743,117.13 90.833,117.216C90.923,117.303 91.045,117.346 91.198,117.346C91.391,117.346 91.52,117.29 91.583,117.176C91.646,117.063 91.685,116.95 91.698,116.836L92.718,116.836C92.718,117.283 92.581,117.643 92.308,117.916C92.175,118.056 92.015,118.166 91.828,118.246C91.641,118.326 91.431,118.366 91.198,118.366C90.878,118.366 90.606,118.3 90.383,118.166C90.16,118.033 89.988,117.856 89.868,117.636C89.795,117.503 89.745,117.35 89.718,117.176C89.691,117.003 89.678,116.813 89.678,116.606L89.678,114.936C89.678,114.73 89.691,114.54 89.718,114.366C89.745,114.193 89.795,114.04 89.868,113.906C89.988,113.686 90.16,113.51 90.383,113.376C90.606,113.243 90.878,113.176 91.198,113.176C91.431,113.176 91.643,113.216 91.833,113.296C92.023,113.376 92.185,113.486 92.318,113.626C92.585,113.926 92.718,114.316 92.718,114.796L91.698,114.796C91.698,114.59 91.653,114.438 91.563,114.341C91.473,114.245 91.351,114.196 91.198,114.196C91.045,114.196 90.923,114.245 90.833,114.341C90.743,114.438 90.698,114.583 90.698,114.776L90.698,116.846Z" style="fill:rgb(5,5,5);fill-rule:nonzero;"/>
            <path d="M93.228,114.936C93.228,114.73 93.241,114.54 93.268,114.366C93.295,114.193 93.345,114.04 93.418,113.906C93.538,113.686 93.71,113.51 93.933,113.376C94.156,113.243 94.428,113.176 94.748,113.176C95.068,113.176 95.34,113.243 95.563,113.376C95.786,113.51 95.958,113.686 96.078,113.906C96.151,114.04 96.201,114.193 96.228,114.366C96.255,114.54 96.268,114.73 96.268,114.936L96.268,116.606C96.268,116.813 96.255,117.003 96.228,117.176C96.201,117.35 96.151,117.503 96.078,117.636C95.958,117.856 95.786,118.033 95.563,118.166C95.34,118.3 95.068,118.366 94.748,118.366C94.428,118.366 94.156,118.3 93.933,118.166C93.71,118.033 93.538,117.856 93.418,117.636C93.345,117.503 93.295,117.35 93.268,117.176C93.241,117.003 93.228,116.813 93.228,116.606L93.228,114.936ZM94.248,116.766C94.248,116.96 94.293,117.105 94.383,117.201C94.473,117.298 94.595,117.346 94.748,117.346C94.901,117.346 95.023,117.298 95.113,117.201C95.203,117.105 95.248,116.96 95.248,116.766L95.248,114.776C95.248,114.583 95.203,114.438 95.113,114.341C95.023,114.245 94.901,114.196 94.748,114.196C94.595,114.196 94.473,114.245 94.383,114.341C94.293,114.438 94.248,114.583 94.248,114.776L94.248,116.766Z" style="fill:rgb(5,5,5);fill-rule:nonzero;"/>
            <path d="M97.018,118.306L97.018,113.236L98.038,113.236L98.038,113.726L98.058,113.726C98.165,113.566 98.293,113.435 98.443,113.331C98.593,113.228 98.785,113.176 99.018,113.176C99.145,113.176 99.271,113.198 99.398,113.241C99.525,113.285 99.638,113.356 99.738,113.456C99.838,113.556 99.918,113.685 99.978,113.841C100.038,113.998 100.068,114.19 100.068,114.416L100.068,118.306L99.048,118.306L99.048,114.796C99.048,114.61 99.005,114.463 98.918,114.356C98.831,114.25 98.708,114.196 98.548,114.196C98.355,114.196 98.221,114.256 98.148,114.376C98.075,114.496 98.038,114.67 98.038,114.896L98.038,118.306L97.018,118.306Z" style="fill:rgb(5,5,5);fill-rule:nonzero;"/>
            <path d="M100.908,118.306L100.908,113.236L101.928,113.236L101.928,113.726L101.948,113.726C102.055,113.566 102.183,113.435 102.333,113.331C102.483,113.228 102.675,113.176 102.908,113.176C103.035,113.176 103.161,113.198 103.288,113.241C103.415,113.285 103.528,113.356 103.628,113.456C103.728,113.556 103.808,113.685 103.868,113.841C103.928,113.998 103.958,114.19 103.958,114.416L103.958,118.306L102.938,118.306L102.938,114.796C102.938,114.61 102.895,114.463 102.808,114.356C102.721,114.25 102.598,114.196 102.438,114.196C102.245,114.196 102.111,114.256 102.038,114.376C101.965,114.496 101.928,114.67 101.928,114.896L101.928,118.306L100.908,118.306Z" style="fill:rgb(5,5,5);fill-rule:nonzero;"/>
            <path d="M107.748,116.156L105.728,116.156L105.728,116.846C105.728,117.006 105.773,117.13 105.863,117.216C105.953,117.303 106.075,117.346 106.228,117.346C106.421,117.346 106.55,117.29 106.613,117.176C106.676,117.063 106.715,116.95 106.728,116.836L107.748,116.836C107.748,117.283 107.611,117.643 107.338,117.916C107.205,118.056 107.045,118.166 106.858,118.246C106.671,118.326 106.461,118.366 106.228,118.366C105.908,118.366 105.636,118.3 105.413,118.166C105.19,118.033 105.018,117.856 104.898,117.636C104.825,117.503 104.775,117.35 104.748,117.176C104.721,117.003 104.708,116.813 104.708,116.606L104.708,114.936C104.708,114.73 104.721,114.54 104.748,114.366C104.775,114.193 104.825,114.04 104.898,113.906C105.018,113.686 105.19,113.51 105.413,113.376C105.636,113.243 105.908,113.176 106.228,113.176C106.461,113.176 106.673,113.216 106.863,113.296C107.053,113.376 107.215,113.486 107.348,113.626C107.615,113.926 107.748,114.303 107.748,114.756L107.748,116.156ZM105.728,115.356L106.728,115.356L106.728,114.776C106.728,114.583 106.683,114.438 106.593,114.341C106.503,114.245 106.381,114.196 106.228,114.196C106.075,114.196 105.953,114.245 105.863,114.341C105.773,114.438 105.728,114.583 105.728,114.776L105.728,115.356Z" style="fill:rgb(5,5,5);fill-rule:nonzero;"/>
            <path d="M109.578,116.846C109.578,117.006 109.623,117.13 109.713,117.216C109.803,117.303 109.925,117.346 110.078,117.346C110.271,117.346 110.4,117.29 110.463,117.176C110.526,117.063 110.565,116.95 110.578,116.836L111.598,116.836C111.598,117.283 111.461,117.643 111.188,117.916C111.055,118.056 110.895,118.166 110.708,118.246C110.521,118.326 110.311,118.366 110.078,118.366C109.758,118.366 109.486,118.3 109.263,118.166C109.04,118.033 108.868,117.856 108.748,117.636C108.675,117.503 108.625,117.35 108.598,117.176C108.571,117.003 108.558,116.813 108.558,116.606L108.558,114.936C108.558,114.73 108.571,114.54 108.598,114.366C108.625,114.193 108.675,114.04 108.748,113.906C108.868,113.686 109.04,113.51 109.263,113.376C109.486,113.243 109.758,113.176 110.078,113.176C110.311,113.176 110.523,113.216 110.713,113.296C110.903,113.376 111.065,113.486 111.198,113.626C111.465,113.926 111.598,114.316 111.598,114.796L110.578,114.796C110.578,114.59 110.533,114.438 110.443,114.341C110.353,114.245 110.231,114.196 110.078,114.196C109.925,114.196 109.803,114.245 109.713,114.341C109.623,114.438 109.578,114.583 109.578,114.776L109.578,116.846Z" style="fill:rgb(5,5,5);fill-rule:nonzero;"/>
            <path d="M112.198,113.236L112.198,111.696L113.218,111.696L113.218,113.236L113.848,113.236L113.848,114.036L113.218,114.036L113.218,116.846C113.218,116.966 113.23,117.06 113.253,117.126C113.276,117.193 113.315,117.243 113.368,117.276C113.421,117.31 113.486,117.33 113.563,117.336C113.64,117.343 113.735,117.346 113.848,117.346L113.848,118.306L113.428,118.306C113.195,118.306 113,118.27 112.843,118.196C112.686,118.123 112.561,118.03 112.468,117.916C112.375,117.803 112.306,117.675 112.263,117.531C112.22,117.388 112.198,117.25 112.198,117.116L112.198,114.036L111.688,114.036L111.688,113.236L112.198,113.236Z" style="fill:rgb(5,5,5);fill-rule:nonzero;"/>
        </g>
        <g transform="matrix(1,0,0,1,61.6324,198.288)">
            <text x="89.198px" y="118.306px" style="font-family:'DINCondensed-Bold', 'DIN Condensed';font-weight:700;font-stretch:condensed;font-size:10px;fill:rgb(5,5,5);">connect</text>
        </g>
    </g>
    <g transform="matrix(1,0,0,1,-41.2426,-115.763)">
        <g id="Reset-output" serif:id="Reset#output" transform="matrix(0.175002,0,0,0.175002,47.6371,322.943)">
            <rect x="53.94" y="106.916" width="161.978" height="161.978" style="fill:rgb(77,77,77);"/>
        </g>
        <g transform="matrix(1,0,0,1,-26.043,218.516)">
            <path d="M89.618,118.306L89.618,113.236L90.638,113.236L90.638,113.776C90.845,113.59 91.048,113.443 91.248,113.336C91.448,113.23 91.695,113.176 91.988,113.176L91.988,114.256C91.888,114.216 91.785,114.196 91.678,114.196C91.571,114.196 91.456,114.215 91.333,114.251C91.21,114.288 91.098,114.35 90.998,114.436C90.891,114.523 90.805,114.636 90.738,114.776C90.671,114.916 90.638,115.09 90.638,115.296L90.638,118.306L89.618,118.306Z" style="fill-rule:nonzero;"/>
            <path d="M95.348,116.156L93.328,116.156L93.328,116.846C93.328,117.006 93.373,117.13 93.463,117.216C93.553,117.303 93.675,117.346 93.828,117.346C94.021,117.346 94.15,117.29 94.213,117.176C94.276,117.063 94.315,116.95 94.328,116.836L95.348,116.836C95.348,117.283 95.211,117.643 94.938,117.916C94.805,118.056 94.645,118.166 94.458,118.246C94.271,118.326 94.061,118.366 93.828,118.366C93.508,118.366 93.236,118.3 93.013,118.166C92.79,118.033 92.618,117.856 92.498,117.636C92.425,117.503 92.375,117.35 92.348,117.176C92.321,117.003 92.308,116.813 92.308,116.606L92.308,114.936C92.308,114.73 92.321,114.54 92.348,114.366C92.375,114.193 92.425,114.04 92.498,113.906C92.618,113.686 92.79,113.51 93.013,113.376C93.236,113.243 93.508,113.176 93.828,113.176C94.061,113.176 94.273,113.216 94.463,113.296C94.653,113.376 94.815,113.486 94.948,113.626C95.215,113.926 95.348,114.303 95.348,114.756L95.348,116.156ZM93.328,115.356L94.328,115.356L94.328,114.776C94.328,114.583 94.283,114.438 94.193,114.341C94.103,114.245 93.981,114.196 93.828,114.196C93.675,114.196 93.553,114.245 93.463,114.341C93.373,114.438 93.328,114.583 93.328,114.776L93.328,115.356Z" style="fill-rule:nonzero;"/>
            <path d="M97.948,114.656C97.941,114.483 97.886,114.353 97.783,114.266C97.68,114.18 97.561,114.136 97.428,114.136C97.268,114.136 97.145,114.188 97.058,114.291C96.971,114.395 96.928,114.513 96.928,114.646C96.928,114.74 96.951,114.831 96.998,114.921C97.045,115.011 97.165,115.093 97.358,115.166L97.958,115.406C98.338,115.553 98.6,115.753 98.743,116.006C98.886,116.26 98.958,116.536 98.958,116.836C98.958,117.05 98.92,117.248 98.843,117.431C98.766,117.615 98.661,117.776 98.528,117.916C98.395,118.056 98.235,118.166 98.048,118.246C97.861,118.326 97.658,118.366 97.438,118.366C97.025,118.366 96.678,118.236 96.398,117.976C96.258,117.85 96.145,117.691 96.058,117.501C95.971,117.311 95.925,117.09 95.918,116.836L96.878,116.836C96.898,116.976 96.946,117.106 97.023,117.226C97.1,117.346 97.235,117.406 97.428,117.406C97.575,117.406 97.706,117.358 97.823,117.261C97.94,117.165 97.998,117.03 97.998,116.856C97.998,116.716 97.961,116.596 97.888,116.496C97.815,116.396 97.681,116.31 97.488,116.236L96.998,116.056C96.678,115.936 96.426,115.758 96.243,115.521C96.06,115.285 95.968,114.996 95.968,114.656C95.968,114.443 96.008,114.245 96.088,114.061C96.168,113.878 96.278,113.72 96.418,113.586C96.551,113.453 96.708,113.351 96.888,113.281C97.068,113.211 97.261,113.176 97.468,113.176C97.675,113.176 97.866,113.213 98.043,113.286C98.22,113.36 98.371,113.463 98.498,113.596C98.625,113.73 98.725,113.888 98.798,114.071C98.871,114.255 98.908,114.45 98.908,114.656L97.948,114.656Z" style="fill-rule:nonzero;"/>
            <path d="M102.568,116.156L100.548,116.156L100.548,116.846C100.548,117.006 100.593,117.13 100.683,117.216C100.773,117.303 100.895,117.346 101.048,117.346C101.241,117.346 101.37,117.29 101.433,117.176C101.496,117.063 101.535,116.95 101.548,116.836L102.568,116.836C102.568,117.283 102.431,117.643 102.158,117.916C102.025,118.056 101.865,118.166 101.678,118.246C101.491,118.326 101.281,118.366 101.048,118.366C100.728,118.366 100.456,118.3 100.233,118.166C100.01,118.033 99.838,117.856 99.718,117.636C99.645,117.503 99.595,117.35 99.568,117.176C99.541,117.003 99.528,116.813 99.528,116.606L99.528,114.936C99.528,114.73 99.541,114.54 99.568,114.366C99.595,114.193 99.645,114.04 99.718,113.906C99.838,113.686 100.01,113.51 100.233,113.376C100.456,113.243 100.728,113.176 101.048,113.176C101.281,113.176 101.493,113.216 101.683,113.296C101.873,113.376 102.035,113.486 102.168,113.626C102.435,113.926 102.568,114.303 102.568,114.756L102.568,116.156ZM100.548,115.356L101.548,115.356L101.548,114.776C101.548,114.583 101.503,114.438 101.413,114.341C101.323,114.245 101.201,114.196 101.048,114.196C100.895,114.196 100.773,114.245 100.683,114.341C100.593,114.438 100.548,114.583 100.548,114.776L100.548,115.356Z" style="fill-rule:nonzero;"/>
            <path d="M103.318,113.236L103.318,111.696L104.338,111.696L104.338,113.236L104.968,113.236L104.968,114.036L104.338,114.036L104.338,116.846C104.338,116.966 104.35,117.06 104.373,117.126C104.396,117.193 104.435,117.243 104.488,117.276C104.541,117.31 104.606,117.33 104.683,117.336C104.76,117.343 104.855,117.346 104.968,117.346L104.968,118.306L104.548,118.306C104.315,118.306 104.12,118.27 103.963,118.196C103.806,118.123 103.681,118.03 103.588,117.916C103.495,117.803 103.426,117.675 103.383,117.531C103.34,117.388 103.318,117.25 103.318,117.116L103.318,114.036L102.808,114.036L102.808,113.236L103.318,113.236Z" style="fill-rule:nonzero;"/>
        </g>
        <g transform="matrix(1,0,0,1,-26.043,218.516)">
            <text x="89.198px" y="118.306px" style="font-family:'DINCondensed-Bold', 'DIN Condensed';font-weight:700;font-stretch:condensed;font-size:10px;">reset</text>
        </g>
    </g>
    <g transform="matrix(1,0,0,1,-5.27636,-164.859)">
        <g id="Clock-output" serif:id="Clock#output" transform="matrix(0.175002,0,0,0.175002,11.6635,322.699)">
            <rect x="53.94" y="106.916" width="161.978" height="161.978" style="fill:rgb(77,77,77);"/>
        </g>
        <g transform="matrix(1,0,0,1,-61.6974,219.026)">
            <path d="M90.698,116.846C90.698,117.006 90.743,117.13 90.833,117.216C90.923,117.303 91.045,117.346 91.198,117.346C91.391,117.346 91.52,117.29 91.583,117.176C91.646,117.063 91.685,116.95 91.698,116.836L92.718,116.836C92.718,117.283 92.581,117.643 92.308,117.916C92.175,118.056 92.015,118.166 91.828,118.246C91.641,118.326 91.431,118.366 91.198,118.366C90.878,118.366 90.606,118.3 90.383,118.166C90.16,118.033 89.988,117.856 89.868,117.636C89.795,117.503 89.745,117.35 89.718,117.176C89.691,117.003 89.678,116.813 89.678,116.606L89.678,114.936C89.678,114.73 89.691,114.54 89.718,114.366C89.745,114.193 89.795,114.04 89.868,113.906C89.988,113.686 90.16,113.51 90.383,113.376C90.606,113.243 90.878,113.176 91.198,113.176C91.431,113.176 91.643,113.216 91.833,113.296C92.023,113.376 92.185,113.486 92.318,113.626C92.585,113.926 92.718,114.316 92.718,114.796L91.698,114.796C91.698,114.59 91.653,114.438 91.563,114.341C91.473,114.245 91.351,114.196 91.198,114.196C91.045,114.196 90.923,114.245 90.833,114.341C90.743,114.438 90.698,114.583 90.698,114.776L90.698,116.846Z" style="fill-rule:nonzero;"/>
            <path d="M93.138,111.186L94.158,111.186L94.158,116.876C94.158,117.07 94.193,117.201 94.263,117.271C94.333,117.341 94.465,117.386 94.658,117.406L94.658,118.366C94.425,118.366 94.215,118.348 94.028,118.311C93.841,118.275 93.681,118.203 93.548,118.096C93.415,117.996 93.313,117.855 93.243,117.671C93.173,117.488 93.138,117.246 93.138,116.946L93.138,111.186Z" style="fill-rule:nonzero;"/>
            <path d="M94.968,114.936C94.968,114.73 94.981,114.54 95.008,114.366C95.035,114.193 95.085,114.04 95.158,113.906C95.278,113.686 95.45,113.51 95.673,113.376C95.896,113.243 96.168,113.176 96.488,113.176C96.808,113.176 97.08,113.243 97.303,113.376C97.526,113.51 97.698,113.686 97.818,113.906C97.891,114.04 97.941,114.193 97.968,114.366C97.995,114.54 98.008,114.73 98.008,114.936L98.008,116.606C98.008,116.813 97.995,117.003 97.968,117.176C97.941,117.35 97.891,117.503 97.818,117.636C97.698,117.856 97.526,118.033 97.303,118.166C97.08,118.3 96.808,118.366 96.488,118.366C96.168,118.366 95.896,118.3 95.673,118.166C95.45,118.033 95.278,117.856 95.158,117.636C95.085,117.503 95.035,117.35 95.008,117.176C94.981,117.003 94.968,116.813 94.968,116.606L94.968,114.936ZM95.988,116.766C95.988,116.96 96.033,117.105 96.123,117.201C96.213,117.298 96.335,117.346 96.488,117.346C96.641,117.346 96.763,117.298 96.853,117.201C96.943,117.105 96.988,116.96 96.988,116.766L96.988,114.776C96.988,114.583 96.943,114.438 96.853,114.341C96.763,114.245 96.641,114.196 96.488,114.196C96.335,114.196 96.213,114.245 96.123,114.341C96.033,114.438 95.988,114.583 95.988,114.776L95.988,116.766Z" style="fill-rule:nonzero;"/>
            <path d="M99.838,116.846C99.838,117.006 99.883,117.13 99.973,117.216C100.063,117.303 100.185,117.346 100.338,117.346C100.531,117.346 100.66,117.29 100.723,117.176C100.786,117.063 100.825,116.95 100.838,116.836L101.858,116.836C101.858,117.283 101.721,117.643 101.448,117.916C101.315,118.056 101.155,118.166 100.968,118.246C100.781,118.326 100.571,118.366 100.338,118.366C100.018,118.366 99.746,118.3 99.523,118.166C99.3,118.033 99.128,117.856 99.008,117.636C98.935,117.503 98.885,117.35 98.858,117.176C98.831,117.003 98.818,116.813 98.818,116.606L98.818,114.936C98.818,114.73 98.831,114.54 98.858,114.366C98.885,114.193 98.935,114.04 99.008,113.906C99.128,113.686 99.3,113.51 99.523,113.376C99.746,113.243 100.018,113.176 100.338,113.176C100.571,113.176 100.783,113.216 100.973,113.296C101.163,113.376 101.325,113.486 101.458,113.626C101.725,113.926 101.858,114.316 101.858,114.796L100.838,114.796C100.838,114.59 100.793,114.438 100.703,114.341C100.613,114.245 100.491,114.196 100.338,114.196C100.185,114.196 100.063,114.245 99.973,114.341C99.883,114.438 99.838,114.583 99.838,114.776L99.838,116.846Z" style="fill-rule:nonzero;"/>
            <path d="M102.338,118.306L102.338,111.186L103.358,111.186L103.358,115.446L103.378,115.446L104.608,113.236L105.628,113.236L104.418,115.296L105.878,118.306L104.768,118.306L103.848,116.116L103.358,116.886L103.358,118.306L102.338,118.306Z" style="fill-rule:nonzero;"/>
        </g>
        <g transform="matrix(1,0,0,1,-61.6974,219.026)">
            <text x="89.198px" y="118.306px" style="font-family:'DINCondensed-Bold', 'DIN Condensed';font-weight:700;font-stretch:condensed;font-size:10px;">c<tspan x="92.778px 94.638px 98.338px 101.918px " y="118.306px 118.306px 118.306px 118.306px ">lock</tspan></text>
        </g>
    </g>
    <g transform="matrix(1,0,0,1,-4.5657,-11.8934)">
        <g transform="matrix(1,0,0,1,49.7332,24.9549)">
            <path d="M-28.608,23.008C-28.56,23.2 -28.392,23.32 -28.104,23.368C-28.032,23.376 -27.996,23.416 -27.996,23.488C-27.996,23.528 -28.016,23.564 -28.056,23.596C-28.096,23.628 -28.148,23.644 -28.212,23.644C-28.332,23.644 -28.492,23.636 -28.692,23.62C-28.892,23.604 -29.176,23.596 -29.544,23.596C-29.84,23.596 -30.1,23.606 -30.324,23.626C-30.548,23.646 -30.684,23.66 -30.732,23.668C-30.772,23.668 -30.8,23.656 -30.816,23.632C-30.832,23.608 -30.84,23.58 -30.84,23.548C-30.84,23.516 -30.834,23.484 -30.822,23.452C-30.81,23.42 -30.792,23.404 -30.768,23.404C-30.712,23.396 -30.656,23.38 -30.6,23.356C-30.544,23.332 -30.492,23.3 -30.444,23.26C-30.42,23.236 -30.39,23.108 -30.354,22.876C-30.318,22.644 -30.286,22.338 -30.258,21.958C-30.23,21.578 -30.206,21.14 -30.186,20.644C-30.166,20.148 -30.156,19.624 -30.156,19.072L-30.156,17.776C-30.156,17.376 -30.176,17.052 -30.216,16.804C-30.288,16.276 -30.456,15.87 -30.72,15.586C-30.984,15.302 -31.292,15.16 -31.644,15.16C-31.956,15.16 -32.264,15.246 -32.568,15.418C-32.872,15.59 -33.144,15.842 -33.384,16.174C-33.624,16.506 -33.818,16.918 -33.966,17.41C-34.114,17.902 -34.188,18.464 -34.188,19.096C-34.188,19.792 -34.11,20.398 -33.954,20.914C-33.798,21.43 -33.592,21.862 -33.336,22.21C-33.08,22.558 -32.786,22.818 -32.454,22.99C-32.122,23.162 -31.776,23.248 -31.416,23.248L-31.35,23.248C-31.322,23.248 -31.3,23.244 -31.284,23.236C-31.252,23.22 -31.232,23.22 -31.224,23.236C-31.216,23.252 -31.216,23.274 -31.224,23.302C-31.232,23.33 -31.242,23.358 -31.254,23.386C-31.266,23.414 -31.28,23.432 -31.296,23.44C-31.376,23.496 -31.488,23.546 -31.632,23.59C-31.776,23.634 -31.976,23.656 -32.232,23.656C-32.656,23.656 -33.078,23.558 -33.498,23.362C-33.918,23.166 -34.294,22.892 -34.626,22.54C-34.958,22.188 -35.226,21.762 -35.43,21.262C-35.634,20.762 -35.736,20.212 -35.736,19.612C-35.736,18.756 -35.612,18.024 -35.364,17.416C-35.116,16.808 -34.778,16.312 -34.35,15.928C-33.922,15.544 -33.426,15.262 -32.862,15.082C-32.298,14.902 -31.696,14.812 -31.056,14.812C-30.824,14.812 -30.612,14.836 -30.42,14.884C-30.228,14.932 -30.06,14.99 -29.916,15.058C-29.772,15.126 -29.654,15.192 -29.562,15.256C-29.47,15.32 -29.408,15.368 -29.376,15.4C-29.312,15.352 -29.182,15.294 -28.986,15.226C-28.79,15.158 -28.566,15.094 -28.314,15.034C-28.062,14.974 -27.8,14.922 -27.528,14.878C-27.256,14.834 -27.008,14.812 -26.784,14.812C-26.176,14.828 -25.642,14.928 -25.182,15.112C-24.722,15.296 -24.338,15.542 -24.03,15.85C-23.722,16.158 -23.49,16.514 -23.334,16.918C-23.178,17.322 -23.1,17.752 -23.1,18.208C-23.1,19.064 -23.214,19.826 -23.442,20.494C-23.67,21.162 -23.976,21.728 -24.36,22.192C-24.744,22.656 -25.188,23.01 -25.692,23.254C-26.196,23.498 -26.724,23.62 -27.276,23.62C-27.324,23.62 -27.356,23.602 -27.372,23.566C-27.388,23.53 -27.394,23.492 -27.39,23.452C-27.386,23.412 -27.372,23.378 -27.348,23.35C-27.324,23.322 -27.3,23.312 -27.276,23.32C-27.236,23.336 -27.204,23.344 -27.18,23.344L-27.084,23.344C-26.756,23.344 -26.448,23.232 -26.16,23.008C-25.872,22.784 -25.62,22.474 -25.404,22.078C-25.188,21.682 -25.018,21.214 -24.894,20.674C-24.77,20.134 -24.708,19.544 -24.708,18.904C-24.708,17.712 -24.89,16.784 -25.254,16.12C-25.618,15.456 -26.18,15.124 -26.94,15.124C-27.172,15.124 -27.388,15.172 -27.588,15.268C-27.788,15.364 -27.962,15.49 -28.11,15.646C-28.258,15.802 -28.378,15.98 -28.47,16.18C-28.562,16.38 -28.62,16.584 -28.644,16.792C-28.684,17.072 -28.708,17.52 -28.716,18.136C-28.724,18.752 -28.732,19.496 -28.74,20.368C-28.748,21.008 -28.742,21.566 -28.722,22.042C-28.702,22.518 -28.664,22.84 -28.608,23.008Z" style="fill-rule:nonzero;"/>
            <path d="M-16.908,22.192C-16.996,22.288 -17.132,22.42 -17.316,22.588C-17.5,22.756 -17.722,22.924 -17.982,23.092C-18.242,23.26 -18.532,23.404 -18.852,23.524C-19.172,23.644 -19.512,23.704 -19.872,23.704C-20.2,23.704 -20.52,23.654 -20.832,23.554C-21.144,23.454 -21.424,23.302 -21.672,23.098C-21.92,22.894 -22.118,22.634 -22.266,22.318C-22.414,22.002 -22.488,21.624 -22.488,21.184C-22.488,20.824 -22.464,20.514 -22.416,20.254C-22.368,19.994 -22.304,19.766 -22.224,19.57C-22.144,19.374 -22.054,19.206 -21.954,19.066C-21.854,18.926 -21.752,18.8 -21.648,18.688C-21.52,18.544 -21.364,18.408 -21.18,18.28C-20.996,18.152 -20.798,18.036 -20.586,17.932C-20.374,17.828 -20.15,17.746 -19.914,17.686C-19.678,17.626 -19.44,17.596 -19.2,17.596C-18.768,17.596 -18.43,17.668 -18.186,17.812C-17.942,17.956 -17.82,18.156 -17.82,18.412C-17.82,18.572 -17.868,18.72 -17.964,18.856C-17.884,18.832 -17.782,18.792 -17.658,18.736C-17.534,18.68 -17.408,18.622 -17.28,18.562C-17.152,18.502 -17.038,18.448 -16.938,18.4C-16.838,18.352 -16.772,18.316 -16.74,18.292C-16.724,18.276 -16.706,18.27 -16.686,18.274C-16.666,18.278 -16.656,18.292 -16.656,18.316C-16.656,18.42 -16.676,18.506 -16.716,18.574C-16.756,18.642 -16.804,18.696 -16.86,18.736C-16.988,18.816 -17.172,18.916 -17.412,19.036C-17.652,19.156 -17.918,19.282 -18.21,19.414C-18.502,19.546 -18.804,19.678 -19.116,19.81C-19.428,19.942 -19.722,20.068 -19.998,20.188C-20.274,20.308 -20.514,20.414 -20.718,20.506C-20.922,20.598 -21.06,20.664 -21.132,20.704C-21.132,20.976 -21.078,21.23 -20.97,21.466C-20.862,21.702 -20.712,21.908 -20.52,22.084C-20.328,22.26 -20.098,22.398 -19.83,22.498C-19.562,22.598 -19.268,22.648 -18.948,22.648C-18.66,22.648 -18.4,22.618 -18.168,22.558C-17.936,22.498 -17.74,22.43 -17.58,22.354C-17.42,22.278 -17.294,22.21 -17.202,22.15C-17.11,22.09 -17.06,22.06 -17.052,22.06C-17.02,22.06 -16.988,22.074 -16.956,22.102C-16.924,22.13 -16.908,22.16 -16.908,22.192ZM-21.132,20.356C-20.996,20.308 -20.842,20.25 -20.67,20.182C-20.498,20.114 -20.33,20.04 -20.166,19.96C-20.002,19.88 -19.852,19.804 -19.716,19.732C-19.58,19.66 -19.476,19.596 -19.404,19.54C-19.26,19.436 -19.188,19.26 -19.188,19.012C-19.188,18.916 -19.206,18.816 -19.242,18.712C-19.278,18.608 -19.332,18.514 -19.404,18.43C-19.476,18.346 -19.564,18.278 -19.668,18.226C-19.772,18.174 -19.888,18.148 -20.016,18.148C-20.128,18.148 -20.248,18.186 -20.376,18.262C-20.504,18.338 -20.624,18.462 -20.736,18.634C-20.848,18.806 -20.942,19.034 -21.018,19.318C-21.094,19.602 -21.132,19.948 -21.132,20.356Z" style="fill-rule:nonzero;"/>
            <path d="M-11.244,21.928C-11.228,21.912 -11.214,21.914 -11.202,21.934C-11.19,21.954 -11.182,21.982 -11.178,22.018C-11.174,22.054 -11.176,22.092 -11.184,22.132C-11.192,22.172 -11.208,22.204 -11.232,22.228C-11.392,22.38 -11.592,22.54 -11.832,22.708C-12.072,22.876 -12.32,23.032 -12.576,23.176C-12.648,23.216 -12.748,23.268 -12.876,23.332C-13.004,23.396 -13.146,23.458 -13.302,23.518C-13.458,23.578 -13.618,23.63 -13.782,23.674C-13.946,23.718 -14.1,23.74 -14.244,23.74C-14.532,23.74 -14.804,23.684 -15.06,23.572C-15.316,23.46 -15.54,23.306 -15.732,23.11C-15.924,22.914 -16.074,22.68 -16.182,22.408C-16.29,22.136 -16.344,21.84 -16.344,21.52C-16.344,21.176 -16.296,20.852 -16.2,20.548C-16.104,20.244 -15.994,19.972 -15.87,19.732C-15.746,19.492 -15.628,19.29 -15.516,19.126C-15.404,18.962 -15.328,18.84 -15.288,18.76C-15.44,18.752 -15.578,18.746 -15.702,18.742C-15.826,18.738 -15.944,18.736 -16.056,18.736C-16.312,18.736 -16.528,18.738 -16.704,18.742C-16.88,18.746 -17.036,18.764 -17.172,18.796C-17.236,18.812 -17.296,18.844 -17.352,18.892C-17.408,18.94 -17.456,18.976 -17.496,19C-17.512,18.984 -17.534,18.962 -17.562,18.934C-17.59,18.906 -17.604,18.876 -17.604,18.844C-17.604,18.828 -17.6,18.816 -17.592,18.808C-17.592,18.8 -17.54,18.754 -17.436,18.67C-17.332,18.586 -17.202,18.486 -17.046,18.37C-16.89,18.254 -16.718,18.126 -16.53,17.986C-16.342,17.846 -16.162,17.716 -15.99,17.596C-15.818,17.476 -15.67,17.374 -15.546,17.29C-15.422,17.206 -15.34,17.156 -15.3,17.14C-15.252,17.124 -15.204,17.132 -15.156,17.164C-15.108,17.196 -15.092,17.22 -15.108,17.236C-15.132,17.252 -15.168,17.282 -15.216,17.326C-15.264,17.37 -15.28,17.408 -15.264,17.44C-15.176,17.512 -15.024,17.576 -14.808,17.632C-14.592,17.688 -14.348,17.734 -14.076,17.77C-13.804,17.806 -13.524,17.834 -13.236,17.854C-12.948,17.874 -12.688,17.884 -12.456,17.884C-12.112,17.884 -11.836,17.874 -11.628,17.854C-11.42,17.834 -11.248,17.808 -11.112,17.776C-10.984,17.744 -10.9,17.72 -10.86,17.704C-10.852,17.704 -10.836,17.716 -10.812,17.74C-10.788,17.764 -10.776,17.792 -10.776,17.824C-10.776,17.84 -10.834,17.88 -10.95,17.944C-11.066,18.008 -11.184,18.076 -11.304,18.148C-11.376,18.188 -11.462,18.24 -11.562,18.304C-11.662,18.368 -11.77,18.43 -11.886,18.49C-12.002,18.55 -12.124,18.604 -12.252,18.652C-12.38,18.7 -12.504,18.728 -12.624,18.736C-12.744,18.752 -12.884,18.764 -13.044,18.772C-13.204,18.78 -13.372,18.786 -13.548,18.79C-13.724,18.794 -13.902,18.798 -14.082,18.802C-14.262,18.806 -14.428,18.808 -14.58,18.808C-14.604,18.848 -14.642,18.914 -14.694,19.006C-14.746,19.098 -14.796,19.216 -14.844,19.36C-14.892,19.504 -14.936,19.668 -14.976,19.852C-15.016,20.036 -15.036,20.236 -15.036,20.452C-15.036,20.78 -14.986,21.082 -14.886,21.358C-14.786,21.634 -14.646,21.872 -14.466,22.072C-14.286,22.272 -14.072,22.428 -13.824,22.54C-13.576,22.652 -13.308,22.708 -13.02,22.708C-12.852,22.708 -12.69,22.688 -12.534,22.648C-12.378,22.608 -12.23,22.556 -12.09,22.492C-11.95,22.428 -11.82,22.358 -11.7,22.282C-11.58,22.206 -11.476,22.132 -11.388,22.06L-11.244,21.928Z" style="fill-rule:nonzero;"/>
            <path d="M-5.712,18.496C-5.8,18.568 -5.904,18.658 -6.024,18.766C-6.144,18.874 -6.27,18.978 -6.402,19.078C-6.534,19.178 -6.668,19.264 -6.804,19.336C-6.94,19.408 -7.072,19.444 -7.2,19.444C-7.312,19.444 -7.412,19.418 -7.5,19.366C-7.588,19.314 -7.67,19.258 -7.746,19.198C-7.822,19.138 -7.896,19.082 -7.968,19.03C-8.04,18.978 -8.116,18.952 -8.196,18.952C-8.412,18.952 -8.594,19.04 -8.742,19.216C-8.89,19.392 -9.01,19.616 -9.102,19.888C-9.194,20.16 -9.262,20.456 -9.306,20.776C-9.35,21.096 -9.372,21.404 -9.372,21.7C-9.372,21.948 -9.362,22.15 -9.342,22.306C-9.322,22.462 -9.292,22.586 -9.252,22.678C-9.212,22.77 -9.158,22.832 -9.09,22.864C-9.022,22.896 -8.94,22.912 -8.844,22.912C-8.74,22.912 -8.628,22.896 -8.508,22.864C-8.484,22.856 -8.466,22.872 -8.454,22.912C-8.442,22.952 -8.436,22.984 -8.436,23.008C-8.436,23.024 -8.448,23.042 -8.472,23.062C-8.496,23.082 -8.512,23.092 -8.52,23.092C-8.696,23.164 -8.876,23.242 -9.06,23.326C-9.244,23.41 -9.396,23.48 -9.516,23.536C-9.628,23.584 -9.762,23.636 -9.918,23.692C-10.074,23.748 -10.208,23.776 -10.32,23.776C-10.448,23.776 -10.554,23.756 -10.638,23.716C-10.722,23.676 -10.764,23.636 -10.764,23.596C-10.764,23.556 -10.754,23.52 -10.734,23.488C-10.714,23.456 -10.696,23.396 -10.68,23.308C-10.664,23.188 -10.646,23.046 -10.626,22.882C-10.606,22.718 -10.586,22.54 -10.566,22.348C-10.546,22.156 -10.53,21.958 -10.518,21.754C-10.506,21.55 -10.5,21.348 -10.5,21.148C-10.5,20.7 -10.514,20.32 -10.542,20.008C-10.57,19.696 -10.62,19.444 -10.692,19.252C-10.764,19.06 -10.862,18.922 -10.986,18.838C-11.11,18.754 -11.268,18.712 -11.46,18.712L-11.568,18.712C-11.6,18.712 -11.632,18.716 -11.664,18.724C-11.712,18.724 -11.736,18.7 -11.736,18.652C-11.736,18.604 -11.712,18.568 -11.664,18.544C-11.576,18.488 -11.44,18.406 -11.256,18.298C-11.072,18.19 -10.882,18.086 -10.686,17.986C-10.49,17.886 -10.3,17.796 -10.116,17.716C-9.932,17.636 -9.796,17.596 -9.708,17.596C-9.604,17.596 -9.516,17.63 -9.444,17.698C-9.372,17.766 -9.318,17.852 -9.282,17.956C-9.246,18.06 -9.22,18.178 -9.204,18.31C-9.188,18.442 -9.18,18.572 -9.18,18.7C-9.18,18.796 -9.182,18.896 -9.186,19C-9.19,19.104 -9.192,19.216 -9.192,19.336C-8.832,18.808 -8.508,18.398 -8.22,18.106C-7.932,17.814 -7.66,17.668 -7.404,17.668C-7.308,17.668 -7.214,17.708 -7.122,17.788C-7.03,17.868 -6.932,17.958 -6.828,18.058C-6.724,18.158 -6.616,18.248 -6.504,18.328C-6.392,18.408 -6.276,18.448 -6.156,18.448C-6.052,18.448 -5.976,18.436 -5.928,18.412C-5.88,18.388 -5.84,18.368 -5.808,18.352C-5.744,18.352 -5.712,18.396 -5.712,18.484L-5.712,18.496Z" style="fill-rule:nonzero;"/>
            <path d="M-1.524,22.636C-1.612,22.708 -1.732,22.804 -1.884,22.924C-2.036,23.044 -2.212,23.164 -2.412,23.284C-2.612,23.404 -2.832,23.506 -3.072,23.59C-3.312,23.674 -3.564,23.716 -3.828,23.716C-4.228,23.716 -4.584,23.646 -4.896,23.506C-5.208,23.366 -5.47,23.178 -5.682,22.942C-5.894,22.706 -6.054,22.428 -6.162,22.108C-6.27,21.788 -6.324,21.448 -6.324,21.088C-6.324,20.664 -6.26,20.288 -6.132,19.96C-6.004,19.632 -5.846,19.346 -5.658,19.102C-5.47,18.858 -5.268,18.654 -5.052,18.49C-4.836,18.326 -4.64,18.196 -4.464,18.1C-4.384,18.052 -4.282,18 -4.158,17.944C-4.034,17.888 -3.898,17.836 -3.75,17.788C-3.602,17.74 -3.442,17.698 -3.27,17.662C-3.098,17.626 -2.92,17.608 -2.736,17.608C-2.392,17.608 -2.058,17.652 -1.734,17.74C-1.41,17.828 -1.124,17.966 -0.876,18.154C-0.628,18.342 -0.428,18.584 -0.276,18.88C-0.124,19.176 -0.048,19.532 -0.048,19.948C-0.048,20.284 -0.11,20.6 -0.234,20.896C-0.358,21.192 -0.504,21.456 -0.672,21.688C-0.84,21.92 -1.006,22.118 -1.17,22.282C-1.334,22.446 -1.452,22.564 -1.524,22.636ZM-2.88,22.828C-2.424,22.828 -2.074,22.656 -1.83,22.312C-1.586,21.968 -1.464,21.44 -1.464,20.728C-1.464,20.368 -1.514,20.034 -1.614,19.726C-1.714,19.418 -1.854,19.148 -2.034,18.916C-2.214,18.684 -2.424,18.502 -2.664,18.37C-2.904,18.238 -3.164,18.172 -3.444,18.172C-3.644,18.172 -3.834,18.224 -4.014,18.328C-4.194,18.432 -4.352,18.582 -4.488,18.778C-4.624,18.974 -4.732,19.212 -4.812,19.492C-4.892,19.772 -4.932,20.088 -4.932,20.44C-4.932,20.816 -4.874,21.152 -4.758,21.448C-4.642,21.744 -4.488,21.994 -4.296,22.198C-4.104,22.402 -3.886,22.558 -3.642,22.666C-3.398,22.774 -3.144,22.828 -2.88,22.828Z" style="fill-rule:nonzero;"/>
            <path d="M4.224,19.48C4.136,19.616 4.052,19.78 3.972,19.972C3.892,20.164 3.816,20.336 3.744,20.488C3.408,20.464 3.122,20.452 2.886,20.452L2.22,20.452C1.988,20.452 1.738,20.46 1.47,20.476C1.202,20.492 1,20.508 0.864,20.524C0.944,20.364 1.03,20.186 1.122,19.99C1.214,19.794 1.304,19.616 1.392,19.456C1.52,19.488 1.716,19.51 1.98,19.522C2.244,19.534 2.504,19.54 2.76,19.54L3.114,19.54C3.246,19.54 3.38,19.538 3.516,19.534C3.652,19.53 3.782,19.524 3.906,19.516C4.03,19.508 4.136,19.496 4.224,19.48Z" style="fill-rule:nonzero;"/>
            <path d="M-23.994,35.044C-24.25,35.204 -24.566,35.348 -24.942,35.476C-25.318,35.604 -25.682,35.668 -26.034,35.668C-26.146,35.668 -26.272,35.66 -26.412,35.644C-26.552,35.628 -26.666,35.612 -26.754,35.596C-26.762,35.748 -26.768,35.904 -26.772,36.064C-26.776,36.224 -26.78,36.378 -26.784,36.526C-26.788,36.674 -26.792,36.812 -26.796,36.94C-26.8,37.068 -26.802,37.176 -26.802,37.264C-26.802,37.672 -26.768,37.948 -26.7,38.092C-26.632,38.236 -26.526,38.308 -26.382,38.308C-26.31,38.308 -26.212,38.298 -26.088,38.278C-25.964,38.258 -25.854,38.224 -25.758,38.176C-25.742,38.16 -25.724,38.176 -25.704,38.224C-25.684,38.272 -25.674,38.316 -25.674,38.356C-25.674,38.364 -25.73,38.386 -25.842,38.422C-25.954,38.458 -26.096,38.502 -26.268,38.554C-26.44,38.606 -26.626,38.662 -26.826,38.722C-27.026,38.782 -27.218,38.838 -27.402,38.89C-27.586,38.942 -27.744,38.984 -27.876,39.016C-28.008,39.048 -28.09,39.064 -28.122,39.064C-28.17,39.064 -28.214,39.06 -28.254,39.052C-28.294,39.044 -28.314,39.008 -28.314,38.944C-28.314,38.904 -28.3,38.878 -28.272,38.866C-28.244,38.854 -28.222,38.836 -28.206,38.812C-28.166,38.764 -28.142,38.674 -28.134,38.542C-28.126,38.41 -28.114,38.28 -28.098,38.152C-28.074,37.84 -28.048,37.47 -28.02,37.042C-27.992,36.614 -27.966,36.166 -27.942,35.698C-27.918,35.23 -27.896,34.762 -27.876,34.294C-27.856,33.826 -27.846,33.4 -27.846,33.016C-27.846,32.472 -27.868,32.046 -27.912,31.738C-27.956,31.43 -28.018,31.202 -28.098,31.054C-28.178,30.906 -28.268,30.814 -28.368,30.778C-28.468,30.742 -28.574,30.724 -28.686,30.724C-28.71,30.724 -28.744,30.726 -28.788,30.73C-28.832,30.734 -28.874,30.736 -28.914,30.736C-28.946,30.736 -28.962,30.708 -28.962,30.652C-28.962,30.612 -28.96,30.586 -28.956,30.574C-28.952,30.562 -28.934,30.548 -28.902,30.532C-28.862,30.508 -28.788,30.468 -28.68,30.412C-28.572,30.356 -28.448,30.294 -28.308,30.226C-28.168,30.158 -28.018,30.086 -27.858,30.01C-27.698,29.934 -27.548,29.866 -27.408,29.806C-27.268,29.746 -27.146,29.696 -27.042,29.656C-26.938,29.616 -26.866,29.596 -26.826,29.596C-26.706,29.596 -26.624,29.648 -26.58,29.752C-26.536,29.856 -26.51,29.996 -26.502,30.172C-26.502,30.244 -26.504,30.358 -26.508,30.514C-26.512,30.67 -26.518,30.848 -26.526,31.048C-26.422,30.936 -26.28,30.798 -26.1,30.634C-25.92,30.47 -25.716,30.312 -25.488,30.16C-25.26,30.008 -25.02,29.878 -24.768,29.77C-24.516,29.662 -24.27,29.608 -24.03,29.608C-23.686,29.608 -23.38,29.67 -23.112,29.794C-22.844,29.918 -22.622,30.082 -22.446,30.286C-22.27,30.49 -22.136,30.722 -22.044,30.982C-21.952,31.242 -21.906,31.508 -21.906,31.78C-21.906,32.164 -21.964,32.518 -22.08,32.842C-22.196,33.166 -22.338,33.454 -22.506,33.706C-22.674,33.958 -22.858,34.176 -23.058,34.36C-23.258,34.544 -23.442,34.688 -23.61,34.792L-23.994,35.044ZM-26.694,34.12C-26.67,34.208 -26.606,34.298 -26.502,34.39C-26.398,34.482 -26.264,34.566 -26.1,34.642C-25.936,34.718 -25.748,34.782 -25.536,34.834C-25.324,34.886 -25.098,34.912 -24.858,34.912C-24.642,34.912 -24.436,34.87 -24.24,34.786C-24.044,34.702 -23.874,34.57 -23.73,34.39C-23.586,34.21 -23.472,33.976 -23.388,33.688C-23.304,33.4 -23.262,33.052 -23.262,32.644C-23.262,32.356 -23.302,32.084 -23.382,31.828C-23.462,31.572 -23.578,31.348 -23.73,31.156C-23.882,30.964 -24.062,30.814 -24.27,30.706C-24.478,30.598 -24.706,30.544 -24.954,30.544C-25.082,30.544 -25.224,30.572 -25.38,30.628C-25.536,30.684 -25.686,30.76 -25.83,30.856C-25.974,30.952 -26.108,31.064 -26.232,31.192C-26.356,31.32 -26.446,31.456 -26.502,31.6C-26.542,31.696 -26.576,31.846 -26.604,32.05C-26.632,32.254 -26.652,32.478 -26.664,32.722C-26.676,32.966 -26.684,33.212 -26.688,33.46C-26.692,33.708 -26.694,33.928 -26.694,34.12Z" style="fill-rule:nonzero;"/>
            <path d="M-16.614,34.636C-16.702,34.708 -16.822,34.804 -16.974,34.924C-17.126,35.044 -17.302,35.164 -17.502,35.284C-17.702,35.404 -17.922,35.506 -18.162,35.59C-18.402,35.674 -18.654,35.716 -18.918,35.716C-19.318,35.716 -19.674,35.646 -19.986,35.506C-20.298,35.366 -20.56,35.178 -20.772,34.942C-20.984,34.706 -21.144,34.428 -21.252,34.108C-21.36,33.788 -21.414,33.448 -21.414,33.088C-21.414,32.664 -21.35,32.288 -21.222,31.96C-21.094,31.632 -20.936,31.346 -20.748,31.102C-20.56,30.858 -20.358,30.654 -20.142,30.49C-19.926,30.326 -19.73,30.196 -19.554,30.1C-19.474,30.052 -19.372,30 -19.248,29.944C-19.124,29.888 -18.988,29.836 -18.84,29.788C-18.692,29.74 -18.532,29.698 -18.36,29.662C-18.188,29.626 -18.01,29.608 -17.826,29.608C-17.482,29.608 -17.148,29.652 -16.824,29.74C-16.5,29.828 -16.214,29.966 -15.966,30.154C-15.718,30.342 -15.518,30.584 -15.366,30.88C-15.214,31.176 -15.138,31.532 -15.138,31.948C-15.138,32.284 -15.2,32.6 -15.324,32.896C-15.448,33.192 -15.594,33.456 -15.762,33.688C-15.93,33.92 -16.096,34.118 -16.26,34.282C-16.424,34.446 -16.542,34.564 -16.614,34.636ZM-17.97,34.828C-17.514,34.828 -17.164,34.656 -16.92,34.312C-16.676,33.968 -16.554,33.44 -16.554,32.728C-16.554,32.368 -16.604,32.034 -16.704,31.726C-16.804,31.418 -16.944,31.148 -17.124,30.916C-17.304,30.684 -17.514,30.502 -17.754,30.37C-17.994,30.238 -18.254,30.172 -18.534,30.172C-18.734,30.172 -18.924,30.224 -19.104,30.328C-19.284,30.432 -19.442,30.582 -19.578,30.778C-19.714,30.974 -19.822,31.212 -19.902,31.492C-19.982,31.772 -20.022,32.088 -20.022,32.44C-20.022,32.816 -19.964,33.152 -19.848,33.448C-19.732,33.744 -19.578,33.994 -19.386,34.198C-19.194,34.402 -18.976,34.558 -18.732,34.666C-18.488,34.774 -18.234,34.828 -17.97,34.828Z" style="fill-rule:nonzero;"/>
            <path d="M-10.446,34.372C-10.398,34.404 -10.374,34.444 -10.374,34.492C-10.374,34.556 -10.466,34.64 -10.65,34.744C-10.842,34.856 -11.096,34.988 -11.412,35.14C-11.728,35.292 -12.042,35.424 -12.354,35.536C-12.506,35.592 -12.642,35.64 -12.762,35.68C-12.882,35.72 -12.99,35.74 -13.086,35.74C-13.198,35.74 -13.336,35.714 -13.5,35.662C-13.664,35.61 -13.806,35.548 -13.926,35.476C-14.022,35.412 -14.098,35.362 -14.154,35.326C-14.21,35.29 -14.238,35.252 -14.238,35.212C-14.238,35.18 -14.228,35.15 -14.208,35.122C-14.188,35.094 -14.17,35.06 -14.154,35.02C-14.146,34.996 -14.138,34.964 -14.13,34.924C-14.122,34.884 -14.118,34.844 -14.118,34.804C-14.094,34.604 -14.068,34.314 -14.04,33.934C-14.012,33.554 -13.99,33.134 -13.974,32.674C-13.958,32.214 -13.944,31.738 -13.932,31.246C-13.92,30.754 -13.914,30.296 -13.914,29.872C-13.914,29.352 -13.916,28.932 -13.92,28.612C-13.924,28.292 -13.934,28.036 -13.95,27.844C-13.974,27.58 -14.006,27.406 -14.046,27.322C-14.086,27.238 -14.13,27.176 -14.178,27.136C-14.234,27.088 -14.288,27.058 -14.34,27.046C-14.392,27.034 -14.44,27.026 -14.484,27.022C-14.528,27.018 -14.564,27.016 -14.592,27.016C-14.62,27.016 -14.634,27.008 -14.634,26.992C-14.634,26.728 -14.522,26.596 -14.298,26.596C-14.13,26.596 -13.932,26.598 -13.704,26.602C-13.476,26.606 -13.286,26.608 -13.134,26.608C-13.038,26.608 -12.936,26.602 -12.828,26.59C-12.72,26.578 -12.614,26.566 -12.51,26.554C-12.406,26.542 -12.31,26.528 -12.222,26.512C-12.134,26.496 -12.07,26.48 -12.03,26.464C-11.998,26.456 -11.972,26.468 -11.952,26.5C-11.932,26.532 -11.92,26.572 -11.916,26.62C-11.912,26.668 -11.92,26.712 -11.94,26.752C-11.96,26.792 -11.986,26.816 -12.018,26.824C-12.066,26.832 -12.108,26.836 -12.144,26.836C-12.18,26.836 -12.242,26.852 -12.33,26.884C-12.37,26.9 -12.406,26.95 -12.438,27.034C-12.47,27.118 -12.498,27.25 -12.522,27.43C-12.546,27.61 -12.57,27.846 -12.594,28.138C-12.618,28.43 -12.642,28.796 -12.666,29.236C-12.69,29.588 -12.708,29.946 -12.72,30.31C-12.732,30.674 -12.744,31.028 -12.756,31.372C-12.768,31.716 -12.776,32.036 -12.78,32.332C-12.784,32.628 -12.786,32.88 -12.786,33.088C-12.786,33.32 -12.784,33.554 -12.78,33.79C-12.776,34.026 -12.754,34.212 -12.714,34.348C-12.674,34.476 -12.57,34.596 -12.402,34.708C-12.234,34.82 -12.058,34.876 -11.874,34.876C-11.73,34.876 -11.582,34.856 -11.43,34.816C-11.278,34.776 -11.138,34.728 -11.01,34.672C-10.882,34.616 -10.768,34.56 -10.668,34.504C-10.568,34.448 -10.494,34.404 -10.446,34.372Z" style="fill-rule:nonzero;"/>
            <path d="M-9.318,33.508C-9.318,33.676 -9.314,33.838 -9.306,33.994C-9.298,34.15 -9.27,34.284 -9.222,34.396C-9.174,34.508 -9.102,34.598 -9.006,34.666C-8.91,34.734 -8.774,34.768 -8.598,34.768C-8.51,34.768 -8.41,34.758 -8.298,34.738C-8.186,34.718 -8.08,34.692 -7.98,34.66C-7.88,34.628 -7.792,34.596 -7.716,34.564C-7.64,34.532 -7.594,34.508 -7.578,34.492C-7.554,34.468 -7.538,34.468 -7.53,34.492C-7.522,34.516 -7.52,34.546 -7.524,34.582C-7.528,34.618 -7.538,34.654 -7.554,34.69C-7.57,34.726 -7.59,34.752 -7.614,34.768C-7.694,34.808 -7.834,34.88 -8.034,34.984C-8.234,35.088 -8.47,35.196 -8.742,35.308C-8.998,35.42 -9.248,35.514 -9.492,35.59C-9.736,35.666 -9.938,35.704 -10.098,35.704C-10.282,35.704 -10.426,35.648 -10.53,35.536C-10.634,35.424 -10.686,35.284 -10.686,35.116C-10.686,35.06 -10.684,35.012 -10.68,34.972C-10.676,34.932 -10.67,34.88 -10.662,34.816C-10.654,34.736 -10.64,34.59 -10.62,34.378C-10.6,34.166 -10.58,33.928 -10.56,33.664C-10.54,33.4 -10.522,33.134 -10.506,32.866C-10.49,32.598 -10.482,32.368 -10.482,32.176L-10.482,31.756C-10.482,31.548 -10.494,31.364 -10.518,31.204C-10.542,31.044 -10.582,30.92 -10.638,30.832C-10.678,30.776 -10.728,30.73 -10.788,30.694C-10.848,30.658 -10.922,30.64 -11.01,30.64C-11.058,30.64 -11.106,30.65 -11.154,30.67C-11.202,30.69 -11.238,30.7 -11.262,30.7C-11.278,30.7 -11.304,30.676 -11.34,30.628C-11.376,30.58 -11.374,30.544 -11.334,30.52C-11.278,30.48 -11.162,30.416 -10.986,30.328C-10.81,30.24 -10.618,30.144 -10.41,30.04C-10.186,29.928 -9.97,29.83 -9.762,29.746C-9.554,29.662 -9.406,29.62 -9.318,29.62C-9.23,29.62 -9.17,29.646 -9.138,29.698C-9.106,29.75 -9.09,29.808 -9.09,29.872L-9.09,29.92C-9.09,30 -9.102,30.128 -9.126,30.304C-9.15,30.48 -9.176,30.696 -9.204,30.952C-9.232,31.208 -9.258,31.504 -9.282,31.84C-9.306,32.176 -9.318,32.54 -9.318,32.932L-9.318,33.508ZM-9.798,27.268C-9.758,27.276 -9.692,27.32 -9.6,27.4C-9.508,27.48 -9.414,27.572 -9.318,27.676C-9.222,27.78 -9.138,27.88 -9.066,27.976C-8.994,28.072 -8.958,28.136 -8.958,28.168C-8.958,28.208 -9.006,28.268 -9.102,28.348C-9.198,28.428 -9.308,28.51 -9.432,28.594C-9.556,28.678 -9.676,28.752 -9.792,28.816C-9.908,28.88 -9.99,28.912 -10.038,28.912C-10.062,28.912 -10.12,28.874 -10.212,28.798C-10.304,28.722 -10.398,28.636 -10.494,28.54C-10.59,28.444 -10.676,28.35 -10.752,28.258C-10.828,28.166 -10.866,28.104 -10.866,28.072C-10.866,28.032 -10.814,27.97 -10.71,27.886C-10.606,27.802 -10.492,27.714 -10.368,27.622C-10.244,27.53 -10.124,27.45 -10.008,27.382C-9.892,27.314 -9.822,27.276 -9.798,27.268Z" style="fill-rule:nonzero;"/>
            <path d="M-4.11,35.752C-4.246,35.728 -4.392,35.632 -4.548,35.464C-4.704,35.296 -4.856,35.098 -5.004,34.87C-5.152,34.642 -5.284,34.404 -5.4,34.156C-5.516,33.908 -5.602,33.696 -5.658,33.52C-5.706,33.592 -5.796,33.71 -5.928,33.874C-6.06,34.038 -6.21,34.212 -6.378,34.396C-6.546,34.58 -6.72,34.766 -6.9,34.954C-7.08,35.142 -7.234,35.296 -7.362,35.416C-7.554,35.616 -7.754,35.816 -7.962,36.016C-8.17,36.216 -8.376,36.394 -8.58,36.55C-8.784,36.706 -8.978,36.832 -9.162,36.928C-9.346,37.024 -9.51,37.072 -9.654,37.072C-9.75,37.072 -9.824,37.058 -9.876,37.03C-9.928,37.002 -9.966,36.98 -9.99,36.964C-9.958,36.924 -9.91,36.84 -9.846,36.712C-9.782,36.584 -9.712,36.434 -9.636,36.262C-9.56,36.09 -9.484,35.906 -9.408,35.71C-9.332,35.514 -9.27,35.324 -9.222,35.14C-9.198,35.116 -9.178,35.104 -9.162,35.104C-9.138,35.104 -9.122,35.142 -9.114,35.218C-9.106,35.294 -9.09,35.378 -9.066,35.47C-9.042,35.562 -9,35.646 -8.94,35.722C-8.88,35.798 -8.786,35.836 -8.658,35.836C-8.45,35.836 -8.216,35.736 -7.956,35.536C-7.696,35.336 -7.436,35.086 -7.176,34.786C-6.916,34.486 -6.668,34.156 -6.432,33.796C-6.196,33.436 -5.998,33.1 -5.838,32.788C-5.902,32.548 -6.002,32.298 -6.138,32.038C-6.274,31.778 -6.432,31.538 -6.612,31.318C-6.792,31.098 -6.99,30.918 -7.206,30.778C-7.422,30.638 -7.642,30.568 -7.866,30.568C-7.93,30.568 -7.994,30.592 -8.058,30.64C-8.122,30.688 -8.194,30.724 -8.274,30.748C-8.33,30.748 -8.358,30.712 -8.358,30.64C-8.358,30.616 -8.276,30.55 -8.112,30.442C-7.948,30.334 -7.758,30.22 -7.542,30.1C-7.326,29.98 -7.116,29.874 -6.912,29.782C-6.708,29.69 -6.562,29.644 -6.474,29.644C-6.274,29.644 -6.096,29.698 -5.94,29.806C-5.784,29.914 -5.644,30.056 -5.52,30.232C-5.396,30.408 -5.29,30.602 -5.202,30.814C-5.114,31.026 -5.042,31.24 -4.986,31.456C-4.834,31.232 -4.662,31.008 -4.47,30.784C-4.278,30.56 -4.076,30.36 -3.864,30.184C-3.652,30.008 -3.432,29.866 -3.204,29.758C-2.976,29.65 -2.754,29.596 -2.538,29.596C-2.402,29.596 -2.288,29.606 -2.196,29.626C-2.104,29.646 -2.026,29.692 -1.962,29.764C-1.97,29.804 -2.008,29.904 -2.076,30.064C-2.144,30.224 -2.22,30.394 -2.304,30.574C-2.388,30.754 -2.466,30.916 -2.538,31.06C-2.61,31.204 -2.658,31.276 -2.682,31.276C-2.73,31.276 -2.782,31.25 -2.838,31.198C-2.894,31.146 -2.958,31.09 -3.03,31.03C-3.102,30.97 -3.188,30.914 -3.288,30.862C-3.388,30.81 -3.51,30.784 -3.654,30.784C-3.934,30.784 -4.168,30.904 -4.356,31.144C-4.544,31.384 -4.67,31.74 -4.734,32.212C-4.71,32.444 -4.646,32.692 -4.542,32.956C-4.438,33.22 -4.31,33.464 -4.158,33.688C-4.006,33.912 -3.836,34.1 -3.648,34.252C-3.46,34.404 -3.27,34.48 -3.078,34.48C-2.798,34.48 -2.57,34.43 -2.394,34.33C-2.218,34.23 -2.07,34.124 -1.95,34.012C-1.942,34.004 -1.926,34 -1.902,34C-1.854,34 -1.83,34.032 -1.83,34.096C-1.83,34.136 -1.858,34.184 -1.914,34.24C-1.97,34.296 -2.04,34.354 -2.124,34.414C-2.208,34.474 -2.296,34.536 -2.388,34.6C-2.48,34.664 -2.566,34.728 -2.646,34.792C-2.87,34.976 -3.112,35.16 -3.372,35.344C-3.632,35.528 -3.878,35.664 -4.11,35.752Z" style="fill-rule:nonzero;"/>
            <path d="M-23.928,47.656C-24.008,47.656 -24.116,47.66 -24.252,47.668C-24.388,47.676 -24.534,47.682 -24.69,47.686C-24.846,47.69 -25.006,47.696 -25.17,47.704C-25.334,47.712 -25.484,47.716 -25.62,47.716C-26.156,47.716 -26.68,47.634 -27.192,47.47C-27.704,47.306 -28.158,47.05 -28.554,46.702C-28.95,46.354 -29.27,45.906 -29.514,45.358C-29.758,44.81 -29.88,44.152 -29.88,43.384C-29.88,42.68 -29.746,42.056 -29.478,41.512C-29.21,40.968 -28.856,40.512 -28.416,40.144C-27.976,39.776 -27.48,39.496 -26.928,39.304C-26.376,39.112 -25.812,39.016 -25.236,39.016C-25.108,39.016 -24.934,39.024 -24.714,39.04C-24.494,39.056 -24.274,39.076 -24.054,39.1C-23.834,39.124 -23.638,39.15 -23.466,39.178C-23.294,39.206 -23.184,39.232 -23.136,39.256C-23.032,38.976 -22.916,38.728 -22.788,38.512C-22.66,38.296 -22.484,38.132 -22.26,38.02C-22.196,37.996 -22.124,37.992 -22.044,38.008C-21.964,38.024 -21.924,38.064 -21.924,38.128C-21.964,38.2 -21.994,38.244 -22.014,38.26C-22.034,38.276 -22.06,38.284 -22.092,38.284C-22.188,38.284 -22.282,38.328 -22.374,38.416C-22.466,38.504 -22.552,38.618 -22.632,38.758C-22.712,38.898 -22.782,39.058 -22.842,39.238C-22.902,39.418 -22.948,39.6 -22.98,39.784C-22.996,39.872 -23.014,39.974 -23.034,40.09C-23.054,40.206 -23.072,40.32 -23.088,40.432C-23.104,40.544 -23.116,40.652 -23.124,40.756C-23.132,40.86 -23.136,40.948 -23.136,41.02C-23.136,41.06 -23.152,41.094 -23.184,41.122C-23.216,41.15 -23.248,41.164 -23.28,41.164C-23.328,41.164 -23.384,41.14 -23.448,41.092C-23.48,40.892 -23.546,40.692 -23.646,40.492C-23.746,40.292 -23.886,40.112 -24.066,39.952C-24.246,39.792 -24.47,39.664 -24.738,39.568C-25.006,39.472 -25.324,39.424 -25.692,39.424C-26.084,39.424 -26.434,39.516 -26.742,39.7C-27.05,39.884 -27.31,40.136 -27.522,40.456C-27.734,40.776 -27.896,41.156 -28.008,41.596C-28.12,42.036 -28.176,42.508 -28.176,43.012C-28.176,43.708 -28.106,44.326 -27.966,44.866C-27.826,45.406 -27.632,45.864 -27.384,46.24C-27.136,46.616 -26.84,46.902 -26.496,47.098C-26.152,47.294 -25.776,47.392 -25.368,47.392C-25.096,47.392 -24.83,47.348 -24.57,47.26C-24.31,47.172 -24.07,47.052 -23.85,46.9C-23.63,46.748 -23.434,46.572 -23.262,46.372C-23.09,46.172 -22.956,45.96 -22.86,45.736C-22.844,45.704 -22.802,45.68 -22.734,45.664C-22.666,45.648 -22.632,45.656 -22.632,45.688C-22.632,45.792 -22.666,45.934 -22.734,46.114C-22.802,46.294 -22.88,46.474 -22.968,46.654C-23.056,46.834 -23.144,46.998 -23.232,47.146C-23.32,47.294 -23.38,47.392 -23.412,47.44C-23.436,47.496 -23.466,47.57 -23.502,47.662C-23.538,47.754 -23.57,47.858 -23.598,47.974C-23.626,48.09 -23.652,48.21 -23.676,48.334C-23.7,48.458 -23.712,48.58 -23.712,48.7C-23.712,48.828 -23.728,48.908 -23.76,48.94C-23.792,48.972 -23.86,48.988 -23.964,48.988C-24.052,48.988 -24.092,48.926 -24.084,48.802C-24.076,48.678 -24.056,48.536 -24.024,48.376C-23.992,48.216 -23.96,48.066 -23.928,47.926C-23.896,47.786 -23.896,47.696 -23.928,47.656Z" style="fill-rule:nonzero;"/>
            <path d="M-18.036,46.372C-17.988,46.404 -17.964,46.444 -17.964,46.492C-17.964,46.556 -18.056,46.64 -18.24,46.744C-18.432,46.856 -18.686,46.988 -19.002,47.14C-19.318,47.292 -19.632,47.424 -19.944,47.536C-20.096,47.592 -20.232,47.64 -20.352,47.68C-20.472,47.72 -20.58,47.74 -20.676,47.74C-20.788,47.74 -20.926,47.714 -21.09,47.662C-21.254,47.61 -21.396,47.548 -21.516,47.476C-21.612,47.412 -21.688,47.362 -21.744,47.326C-21.8,47.29 -21.828,47.252 -21.828,47.212C-21.828,47.18 -21.818,47.15 -21.798,47.122C-21.778,47.094 -21.76,47.06 -21.744,47.02C-21.736,46.996 -21.728,46.964 -21.72,46.924C-21.712,46.884 -21.708,46.844 -21.708,46.804C-21.684,46.604 -21.658,46.314 -21.63,45.934C-21.602,45.554 -21.58,45.134 -21.564,44.674C-21.548,44.214 -21.534,43.738 -21.522,43.246C-21.51,42.754 -21.504,42.296 -21.504,41.872C-21.504,41.352 -21.506,40.932 -21.51,40.612C-21.514,40.292 -21.524,40.036 -21.54,39.844C-21.564,39.58 -21.596,39.406 -21.636,39.322C-21.676,39.238 -21.72,39.176 -21.768,39.136C-21.824,39.088 -21.878,39.058 -21.93,39.046C-21.982,39.034 -22.03,39.026 -22.074,39.022C-22.118,39.018 -22.154,39.016 -22.182,39.016C-22.21,39.016 -22.224,39.008 -22.224,38.992C-22.224,38.728 -22.112,38.596 -21.888,38.596C-21.72,38.596 -21.522,38.598 -21.294,38.602C-21.066,38.606 -20.876,38.608 -20.724,38.608C-20.628,38.608 -20.526,38.602 -20.418,38.59C-20.31,38.578 -20.204,38.566 -20.1,38.554C-19.996,38.542 -19.9,38.528 -19.812,38.512C-19.724,38.496 -19.66,38.48 -19.62,38.464C-19.588,38.456 -19.562,38.468 -19.542,38.5C-19.522,38.532 -19.51,38.572 -19.506,38.62C-19.502,38.668 -19.51,38.712 -19.53,38.752C-19.55,38.792 -19.576,38.816 -19.608,38.824C-19.656,38.832 -19.698,38.836 -19.734,38.836C-19.77,38.836 -19.832,38.852 -19.92,38.884C-19.96,38.9 -19.996,38.95 -20.028,39.034C-20.06,39.118 -20.088,39.25 -20.112,39.43C-20.136,39.61 -20.16,39.846 -20.184,40.138C-20.208,40.43 -20.232,40.796 -20.256,41.236C-20.28,41.588 -20.298,41.946 -20.31,42.31C-20.322,42.674 -20.334,43.028 -20.346,43.372C-20.358,43.716 -20.366,44.036 -20.37,44.332C-20.374,44.628 -20.376,44.88 -20.376,45.088C-20.376,45.32 -20.374,45.554 -20.37,45.79C-20.366,46.026 -20.344,46.212 -20.304,46.348C-20.264,46.476 -20.16,46.596 -19.992,46.708C-19.824,46.82 -19.648,46.876 -19.464,46.876C-19.32,46.876 -19.172,46.856 -19.02,46.816C-18.868,46.776 -18.728,46.728 -18.6,46.672C-18.472,46.616 -18.358,46.56 -18.258,46.504C-18.158,46.448 -18.084,46.404 -18.036,46.372Z" style="fill-rule:nonzero;"/>
            <path d="M-14.004,46.636C-14.092,46.708 -14.212,46.804 -14.364,46.924C-14.516,47.044 -14.692,47.164 -14.892,47.284C-15.092,47.404 -15.312,47.506 -15.552,47.59C-15.792,47.674 -16.044,47.716 -16.308,47.716C-16.708,47.716 -17.064,47.646 -17.376,47.506C-17.688,47.366 -17.95,47.178 -18.162,46.942C-18.374,46.706 -18.534,46.428 -18.642,46.108C-18.75,45.788 -18.804,45.448 -18.804,45.088C-18.804,44.664 -18.74,44.288 -18.612,43.96C-18.484,43.632 -18.326,43.346 -18.138,43.102C-17.95,42.858 -17.748,42.654 -17.532,42.49C-17.316,42.326 -17.12,42.196 -16.944,42.1C-16.864,42.052 -16.762,42 -16.638,41.944C-16.514,41.888 -16.378,41.836 -16.23,41.788C-16.082,41.74 -15.922,41.698 -15.75,41.662C-15.578,41.626 -15.4,41.608 -15.216,41.608C-14.872,41.608 -14.538,41.652 -14.214,41.74C-13.89,41.828 -13.604,41.966 -13.356,42.154C-13.108,42.342 -12.908,42.584 -12.756,42.88C-12.604,43.176 -12.528,43.532 -12.528,43.948C-12.528,44.284 -12.59,44.6 -12.714,44.896C-12.838,45.192 -12.984,45.456 -13.152,45.688C-13.32,45.92 -13.486,46.118 -13.65,46.282C-13.814,46.446 -13.932,46.564 -14.004,46.636ZM-15.36,46.828C-14.904,46.828 -14.554,46.656 -14.31,46.312C-14.066,45.968 -13.944,45.44 -13.944,44.728C-13.944,44.368 -13.994,44.034 -14.094,43.726C-14.194,43.418 -14.334,43.148 -14.514,42.916C-14.694,42.684 -14.904,42.502 -15.144,42.37C-15.384,42.238 -15.644,42.172 -15.924,42.172C-16.124,42.172 -16.314,42.224 -16.494,42.328C-16.674,42.432 -16.832,42.582 -16.968,42.778C-17.104,42.974 -17.212,43.212 -17.292,43.492C-17.372,43.772 -17.412,44.088 -17.412,44.44C-17.412,44.816 -17.354,45.152 -17.238,45.448C-17.122,45.744 -16.968,45.994 -16.776,46.198C-16.584,46.402 -16.366,46.558 -16.122,46.666C-15.878,46.774 -15.624,46.828 -15.36,46.828Z" style="fill-rule:nonzero;"/>
            <path d="M-6.84,42.148C-6.856,42.196 -6.902,42.27 -6.978,42.37C-7.054,42.47 -7.144,42.574 -7.248,42.682C-7.352,42.79 -7.462,42.894 -7.578,42.994C-7.694,43.094 -7.796,43.168 -7.884,43.216C-7.94,43.24 -7.974,43.232 -7.986,43.192C-7.998,43.152 -8.004,43.112 -8.004,43.072C-8.004,43.008 -8.038,42.928 -8.106,42.832C-8.174,42.736 -8.27,42.642 -8.394,42.55C-8.518,42.458 -8.664,42.38 -8.832,42.316C-9,42.252 -9.184,42.22 -9.384,42.22C-9.728,42.22 -10.008,42.406 -10.224,42.778C-10.44,43.15 -10.548,43.644 -10.548,44.26C-10.548,44.636 -10.49,44.974 -10.374,45.274C-10.258,45.574 -10.098,45.826 -9.894,46.03C-9.69,46.234 -9.444,46.39 -9.156,46.498C-8.868,46.606 -8.556,46.66 -8.22,46.66C-7.764,46.66 -7.4,46.602 -7.128,46.486C-6.856,46.37 -6.632,46.236 -6.456,46.084C-6.448,46.084 -6.442,46.08 -6.438,46.072C-6.434,46.064 -6.428,46.06 -6.42,46.06C-6.38,46.06 -6.352,46.074 -6.336,46.102C-6.32,46.13 -6.312,46.164 -6.312,46.204C-6.312,46.236 -6.32,46.26 -6.336,46.276C-6.456,46.372 -6.622,46.5 -6.834,46.66C-7.046,46.82 -7.288,46.978 -7.56,47.134C-7.832,47.29 -8.116,47.424 -8.412,47.536C-8.708,47.648 -9,47.704 -9.288,47.704C-10.112,47.704 -10.754,47.464 -11.214,46.984C-11.674,46.504 -11.904,45.848 -11.904,45.016C-11.904,44.384 -11.782,43.852 -11.538,43.42C-11.294,42.988 -10.994,42.642 -10.638,42.382C-10.282,42.122 -9.904,41.936 -9.504,41.824C-9.104,41.712 -8.752,41.656 -8.448,41.656C-8.2,41.656 -7.978,41.674 -7.782,41.71C-7.586,41.746 -7.418,41.79 -7.278,41.842C-7.138,41.894 -7.03,41.948 -6.954,42.004C-6.878,42.06 -6.84,42.108 -6.84,42.148Z" style="fill-rule:nonzero;"/>
            <path d="M-4.884,44.824C-4.884,44.984 -4.888,45.184 -4.896,45.424C-4.904,45.664 -4.908,45.912 -4.908,46.168C-4.908,46.456 -4.864,46.662 -4.776,46.786C-4.688,46.91 -4.572,46.972 -4.428,46.972C-4.42,46.972 -4.4,46.968 -4.368,46.96C-4.336,46.952 -4.302,46.946 -4.266,46.942C-4.23,46.938 -4.196,46.932 -4.164,46.924C-4.132,46.916 -4.112,46.912 -4.104,46.912C-4.088,46.912 -4.07,46.926 -4.05,46.954C-4.03,46.982 -4.024,47.004 -4.032,47.02C-4.08,47.076 -4.19,47.144 -4.362,47.224C-4.534,47.304 -4.726,47.382 -4.938,47.458C-5.15,47.534 -5.354,47.6 -5.55,47.656C-5.746,47.712 -5.892,47.74 -5.988,47.74C-6.1,47.74 -6.188,47.708 -6.252,47.644C-6.316,47.58 -6.348,47.532 -6.348,47.5C-6.348,47.476 -6.346,47.46 -6.342,47.452C-6.338,47.444 -6.334,47.436 -6.33,47.428C-6.326,47.42 -6.32,47.406 -6.312,47.386C-6.304,47.366 -6.296,47.332 -6.288,47.284C-6.264,47.18 -6.24,47.046 -6.216,46.882C-6.192,46.718 -6.17,46.514 -6.15,46.27C-6.13,46.026 -6.112,45.73 -6.096,45.382C-6.08,45.034 -6.064,44.62 -6.048,44.14C-6.04,43.764 -6.034,43.394 -6.03,43.03C-6.026,42.666 -6.022,42.324 -6.018,42.004C-6.014,41.684 -6.012,41.39 -6.012,41.122L-6.012,40.444C-6.012,40.06 -6.032,39.76 -6.072,39.544C-6.112,39.328 -6.156,39.188 -6.204,39.124C-6.26,39.044 -6.338,39.002 -6.438,38.998C-6.538,38.994 -6.608,38.988 -6.648,38.98C-6.656,38.908 -6.652,38.844 -6.636,38.788C-6.62,38.74 -6.596,38.696 -6.564,38.656C-6.532,38.616 -6.472,38.596 -6.384,38.596C-6.24,38.596 -6.072,38.594 -5.88,38.59C-5.688,38.586 -5.488,38.578 -5.28,38.566C-5.072,38.554 -4.868,38.538 -4.668,38.518C-4.468,38.498 -4.292,38.472 -4.14,38.44C-4.092,38.432 -4.066,38.446 -4.062,38.482C-4.058,38.518 -4.064,38.58 -4.08,38.668C-4.088,38.716 -4.11,38.746 -4.146,38.758C-4.182,38.77 -4.222,38.776 -4.266,38.776C-4.31,38.776 -4.35,38.778 -4.386,38.782C-4.422,38.786 -4.448,38.804 -4.464,38.836C-4.48,38.876 -4.5,38.928 -4.524,38.992C-4.548,39.056 -4.568,39.148 -4.584,39.268C-4.608,39.428 -4.632,39.642 -4.656,39.91C-4.68,40.178 -4.702,40.476 -4.722,40.804C-4.742,41.132 -4.762,41.476 -4.782,41.836C-4.802,42.196 -4.82,42.544 -4.836,42.88C-4.852,43.216 -4.864,43.528 -4.872,43.816C-4.88,44.104 -4.884,44.34 -4.884,44.524C-4.652,44.524 -4.402,44.468 -4.134,44.356C-3.866,44.244 -3.618,44.092 -3.39,43.9C-3.162,43.708 -2.972,43.482 -2.82,43.222C-2.668,42.962 -2.592,42.684 -2.592,42.388C-2.592,42.156 -2.668,42.04 -2.82,42.04C-2.948,42.04 -3.064,42.058 -3.168,42.094C-3.272,42.13 -3.344,42.148 -3.384,42.148C-3.504,42.148 -3.572,42.116 -3.588,42.052C-3.588,42.004 -3.568,41.95 -3.528,41.89C-3.488,41.83 -3.448,41.792 -3.408,41.776C-3.24,41.776 -3.05,41.768 -2.838,41.752C-2.626,41.736 -2.412,41.714 -2.196,41.686C-1.98,41.658 -1.772,41.628 -1.572,41.596C-1.372,41.564 -1.204,41.536 -1.068,41.512C-1.028,41.528 -1.008,41.552 -1.008,41.584C-1.008,41.656 -1.074,41.812 -1.206,42.052C-1.338,42.292 -1.514,42.556 -1.734,42.844C-1.954,43.132 -2.204,43.412 -2.484,43.684C-2.764,43.956 -3.052,44.16 -3.348,44.296C-3.26,44.352 -3.144,44.456 -3,44.608C-2.856,44.76 -2.698,44.936 -2.526,45.136C-2.354,45.336 -2.172,45.544 -1.98,45.76C-1.788,45.976 -1.592,46.174 -1.392,46.354C-1.192,46.534 -0.998,46.682 -0.81,46.798C-0.622,46.914 -0.444,46.972 -0.276,46.972C-0.156,46.972 -0.062,46.96 0.006,46.936C0.074,46.912 0.144,46.88 0.216,46.84C0.256,46.864 0.276,46.892 0.276,46.924C0.276,46.988 0.246,47.05 0.186,47.11C0.126,47.17 -0.008,47.232 -0.216,47.296C-0.352,47.336 -0.508,47.39 -0.684,47.458C-0.86,47.526 -1.03,47.59 -1.194,47.65C-1.358,47.71 -1.502,47.76 -1.626,47.8C-1.75,47.84 -1.828,47.856 -1.86,47.848C-1.924,47.832 -2.026,47.754 -2.166,47.614C-2.306,47.474 -2.466,47.302 -2.646,47.098C-2.826,46.894 -3.018,46.67 -3.222,46.426C-3.426,46.182 -3.626,45.952 -3.822,45.736C-4.018,45.52 -4.2,45.328 -4.368,45.16C-4.536,44.992 -4.676,44.88 -4.788,44.824L-4.884,44.824Z" style="fill-rule:nonzero;"/>
        </g>
        <g transform="matrix(1,0,0,1,49.7332,24.9549)">
            <text x="-36.048px" y="23.596px" style="font-family:'Luminari-Regular', 'Luminari';font-size:12px;">Metr<tspan x="-6.672px 0.228px " y="23.596px 23.596px ">o-</tspan></text>
            <text x="-28.926px" y="35.596px" style="font-family:'Luminari-Regular', 'Luminari';font-size:12px;">poli</text>
            <text x="-8.286px" y="35.596px" style="font-family:'Luminari-Regular', 'Luminari';font-size:12px;">x</text>
            <text x="-30.204px" y="47.596px" style="font-family:'Luminari-Regular', 'Luminari';font-size:12px;">Clock</text>
        </g>
        <g transform="matrix(0.0178906,0,0,0.0202937,25.4057,18.6064)">
            <g transform="matrix(1,0,0,1,-143.343,98.6554)">
                <ellipse cx="360.896" cy="293.762" rx="136.961" ry="230.443" style="fill:rgb(102,126,153);stroke:black;stroke-width:63.81px;"/>
            </g>
            <g transform="matrix(1,0,0,1,445.551,98.6554)">
                <ellipse cx="360.896" cy="293.762" rx="136.961" ry="230.443" style="fill:rgb(102,126,153);stroke:black;stroke-width:63.81px;"/>
            </g>
            <g transform="matrix(1,0,0,1,-34.3236,-20.6488)">
                <ellipse cx="546.324" cy="643.509" rx="431.408" ry="296.899" style="fill:rgb(102,126,153);stroke:black;stroke-width:63.81px;"/>
            </g>
            <circle cx="406.664" cy="569.758" r="105.336" style="fill:rgb(102,126,153);stroke:black;stroke-width:63.81px;"/>
            <g transform="matrix(1,0,0,1,210.672,0)">
                <circle cx="406.664" cy="569.758" r="105.336" style="fill:rgb(102,126,153);stroke:black;stroke-width:63.81px;"/>
            </g>
            <g transform="matrix(1,0,0,1,-53.1856,50.0357)">
                <ellipse cx="565.186" cy="671.455" rx="210.672" ry="98.631" style="fill:rgb(102,126,153);stroke:black;stroke-width:63.81px;"/>
            </g>
            <g transform="matrix(51.2,0,0,45.1371,0.670978,88.9676)">
                <path d="M12.057,13.791C12.057,13.668 11.958,13.568 11.835,13.568L8.139,13.568C8.016,13.568 7.916,13.668 7.916,13.791L7.916,14.236C7.916,14.359 8.016,14.458 8.139,14.458L11.835,14.458C11.958,14.458 12.057,14.359 12.057,14.236L12.057,13.791Z"/>
            </g>
        </g>
    </g>
</svg>
