<?xml version="1.0" encoding="UTF-8" standalone="no"?>
<!DOCTYPE svg PUBLIC "-//W3C//DTD SVG 1.1//EN" "http://www.w3.org/Graphics/SVG/1.1/DTD/svg11.dtd">
<svg width="100%" height="100%" viewBox="0 0 105 380" version="1.1" xmlns="http://www.w3.org/2000/svg" xmlns:xlink="http://www.w3.org/1999/xlink" xml:space="preserve" xmlns:serif="http://www.serif.com/" style="fill-rule:evenodd;clip-rule:evenodd;stroke-linecap:round;stroke-linejoin:round;stroke-miterlimit:1.5;">
    <g transform="matrix(0.504595,0,0,2.01589,-26.5196,-120.797)">
        <rect x="52.556" y="59.922" width="208.087" height="188.503" style="fill:rgb(154,178,191);stroke:rgb(5,5,5);stroke-width:1.36px;"/>
    </g>
    <g transform="matrix(1,0,0,1,9.57689,5.68434e-14)">
        <g id="Reset-output" serif:id="Reset#output" transform="matrix(0.175002,0,0,0.175002,47.6371,322.943)">
            <rect x="53.94" y="106.916" width="161.978" height="161.978" style="fill:rgb(77,77,77);"/>
        </g>
        <g transform="matrix(1,0,0,1,-26.043,218.516)">
            <path d="M89.618,118.306L89.618,113.236L90.638,113.236L90.638,113.776C90.845,113.59 91.048,113.443 91.248,113.336C91.448,113.23 91.695,113.176 91.988,113.176L91.988,114.256C91.888,114.216 91.785,114.196 91.678,114.196C91.571,114.196 91.456,114.215 91.333,114.251C91.21,114.288 91.098,114.35 90.998,114.436C90.891,114.523 90.805,114.636 90.738,114.776C90.671,114.916 90.638,115.09 90.638,115.296L90.638,118.306L89.618,118.306Z" style="fill-rule:nonzero;"/>
            <path d="M95.348,116.156L93.328,116.156L93.328,116.846C93.328,117.006 93.373,117.13 93.463,117.216C93.553,117.303 93.675,117.346 93.828,117.346C94.021,117.346 94.15,117.29 94.213,117.176C94.276,117.063 94.315,116.95 94.328,116.836L95.348,116.836C95.348,117.283 95.211,117.643 94.938,117.916C94.805,118.056 94.645,118.166 94.458,118.246C94.271,118.326 94.061,118.366 93.828,118.366C93.508,118.366 93.236,118.3 93.013,118.166C92.79,118.033 92.618,117.856 92.498,117.636C92.425,117.503 92.375,117.35 92.348,117.176C92.321,117.003 92.308,116.813 92.308,116.606L92.308,114.936C92.308,114.73 92.321,114.54 92.348,114.366C92.375,114.193 92.425,114.04 92.498,113.906C92.618,113.686 92.79,113.51 93.013,113.376C93.236,113.243 93.508,113.176 93.828,113.176C94.061,113.176 94.273,113.216 94.463,113.296C94.653,113.376 94.815,113.486 94.948,113.626C95.215,113.926 95.348,114.303 95.348,114.756L95.348,116.156ZM93.328,115.356L94.328,115.356L94.328,114.776C94.328,114.583 94.283,114.438 94.193,114.341C94.103,114.245 93.981,114.196 93.828,114.196C93.675,114.196 93.553,114.245 93.463,114.341C93.373,114.438 93.328,114.583 93.328,114.776L93.328,115.356Z" style="fill-rule:nonzero;"/>
            <path d="M97.948,114.656C97.941,114.483 97.886,114.353 97.783,114.266C97.68,114.18 97.561,114.136 97.428,114.136C97.268,114.136 97.145,114.188 97.058,114.291C96.971,114.395 96.928,114.513 96.928,114.646C96.928,114.74 96.951,114.831 96.998,114.921C97.045,115.011 97.165,115.093 97.358,115.166L97.958,115.406C98.338,115.553 98.6,115.753 98.743,116.006C98.886,116.26 98.958,116.536 98.958,116.836C98.958,117.05 98.92,117.248 98.843,117.431C98.766,117.615 98.661,117.776 98.528,117.916C98.395,118.056 98.235,118.166 98.048,118.246C97.861,118.326 97.658,118.366 97.438,118.366C97.025,118.366 96.678,118.236 96.398,117.976C96.258,117.85 96.145,117.691 96.058,117.501C95.971,117.311 95.925,117.09 95.918,116.836L96.878,116.836C96.898,116.976 96.946,117.106 97.023,117.226C97.1,117.346 97.235,117.406 97.428,117.406C97.575,117.406 97.706,117.358 97.823,117.261C97.94,117.165 97.998,117.03 97.998,116.856C97.998,116.716 97.961,116.596 97.888,116.496C97.815,116.396 97.681,116.31 97.488,116.236L96.998,116.056C96.678,115.936 96.426,115.758 96.243,115.521C96.06,115.285 95.968,114.996 95.968,114.656C95.968,114.443 96.008,114.245 96.088,114.061C96.168,113.878 96.278,113.72 96.418,113.586C96.551,113.453 96.708,113.351 96.888,113.281C97.068,113.211 97.261,113.176 97.468,113.176C97.675,113.176 97.866,113.213 98.043,113.286C98.22,113.36 98.371,113.463 98.498,113.596C98.625,113.73 98.725,113.888 98.798,114.071C98.871,114.255 98.908,114.45 98.908,114.656L97.948,114.656Z" style="fill-rule:nonzero;"/>
            <path d="M102.568,116.156L100.548,116.156L100.548,116.846C100.548,117.006 100.593,117.13 100.683,117.216C100.773,117.303 100.895,117.346 101.048,117.346C101.241,117.346 101.37,117.29 101.433,117.176C101.496,117.063 101.535,116.95 101.548,116.836L102.568,116.836C102.568,117.283 102.431,117.643 102.158,117.916C102.025,118.056 101.865,118.166 101.678,118.246C101.491,118.326 101.281,118.366 101.048,118.366C100.728,118.366 100.456,118.3 100.233,118.166C100.01,118.033 99.838,117.856 99.718,117.636C99.645,117.503 99.595,117.35 99.568,117.176C99.541,117.003 99.528,116.813 99.528,116.606L99.528,114.936C99.528,114.73 99.541,114.54 99.568,114.366C99.595,114.193 99.645,114.04 99.718,113.906C99.838,113.686 100.01,113.51 100.233,113.376C100.456,113.243 100.728,113.176 101.048,113.176C101.281,113.176 101.493,113.216 101.683,113.296C101.873,113.376 102.035,113.486 102.168,113.626C102.435,113.926 102.568,114.303 102.568,114.756L102.568,116.156ZM100.548,115.356L101.548,115.356L101.548,114.776C101.548,114.583 101.503,114.438 101.413,114.341C101.323,114.245 101.201,114.196 101.048,114.196C100.895,114.196 100.773,114.245 100.683,114.341C100.593,114.438 100.548,114.583 100.548,114.776L100.548,115.356Z" style="fill-rule:nonzero;"/>
            <path d="M103.318,113.236L103.318,111.696L104.338,111.696L104.338,113.236L104.968,113.236L104.968,114.036L104.338,114.036L104.338,116.846C104.338,116.966 104.35,117.06 104.373,117.126C104.396,117.193 104.435,117.243 104.488,117.276C104.541,117.31 104.606,117.33 104.683,117.336C104.76,117.343 104.855,117.346 104.968,117.346L104.968,118.306L104.548,118.306C104.315,118.306 104.12,118.27 103.963,118.196C103.806,118.123 103.681,118.03 103.588,117.916C103.495,117.803 103.426,117.675 103.383,117.531C103.34,117.388 103.318,117.25 103.318,117.116L103.318,114.036L102.808,114.036L102.808,113.236L103.318,113.236Z" style="fill-rule:nonzero;"/>
        </g>
        <g transform="matrix(1,0,0,1,-26.043,218.516)">
            <text x="89.198px" y="118.306px" style="font-family:'DINCondensed-Bold', 'DIN Condensed';font-weight:700;font-stretch:condensed;font-size:10px;">reset</text>
        </g>
    </g>
    <g id="Override" transform="matrix(1,0,0,1,-93.5468,11.3263)">
        <g id="Reset-input" serif:id="Reset#input" transform="matrix(0.175002,0,0,0.175002,150.761,263.867)">
            <rect x="53.94" y="106.916" width="161.978" height="161.978" style="fill:rgb(217,217,217);"/>
        </g>
        <g transform="matrix(1,0,0,1,77.0807,159.44)">
            <path d="M89.618,118.306L89.618,113.236L90.638,113.236L90.638,113.776C90.845,113.59 91.048,113.443 91.248,113.336C91.448,113.23 91.695,113.176 91.988,113.176L91.988,114.256C91.888,114.216 91.785,114.196 91.678,114.196C91.571,114.196 91.456,114.215 91.333,114.251C91.21,114.288 91.098,114.35 90.998,114.436C90.891,114.523 90.805,114.636 90.738,114.776C90.671,114.916 90.638,115.09 90.638,115.296L90.638,118.306L89.618,118.306Z" style="fill-rule:nonzero;"/>
            <path d="M95.348,116.156L93.328,116.156L93.328,116.846C93.328,117.006 93.373,117.13 93.463,117.216C93.553,117.303 93.675,117.346 93.828,117.346C94.021,117.346 94.15,117.29 94.213,117.176C94.276,117.063 94.315,116.95 94.328,116.836L95.348,116.836C95.348,117.283 95.211,117.643 94.938,117.916C94.805,118.056 94.645,118.166 94.458,118.246C94.271,118.326 94.061,118.366 93.828,118.366C93.508,118.366 93.236,118.3 93.013,118.166C92.79,118.033 92.618,117.856 92.498,117.636C92.425,117.503 92.375,117.35 92.348,117.176C92.321,117.003 92.308,116.813 92.308,116.606L92.308,114.936C92.308,114.73 92.321,114.54 92.348,114.366C92.375,114.193 92.425,114.04 92.498,113.906C92.618,113.686 92.79,113.51 93.013,113.376C93.236,113.243 93.508,113.176 93.828,113.176C94.061,113.176 94.273,113.216 94.463,113.296C94.653,113.376 94.815,113.486 94.948,113.626C95.215,113.926 95.348,114.303 95.348,114.756L95.348,116.156ZM93.328,115.356L94.328,115.356L94.328,114.776C94.328,114.583 94.283,114.438 94.193,114.341C94.103,114.245 93.981,114.196 93.828,114.196C93.675,114.196 93.553,114.245 93.463,114.341C93.373,114.438 93.328,114.583 93.328,114.776L93.328,115.356Z" style="fill-rule:nonzero;"/>
            <path d="M97.948,114.656C97.941,114.483 97.886,114.353 97.783,114.266C97.68,114.18 97.561,114.136 97.428,114.136C97.268,114.136 97.145,114.188 97.058,114.291C96.971,114.395 96.928,114.513 96.928,114.646C96.928,114.74 96.951,114.831 96.998,114.921C97.045,115.011 97.165,115.093 97.358,115.166L97.958,115.406C98.338,115.553 98.6,115.753 98.743,116.006C98.886,116.26 98.958,116.536 98.958,116.836C98.958,117.05 98.92,117.248 98.843,117.431C98.766,117.615 98.661,117.776 98.528,117.916C98.395,118.056 98.235,118.166 98.048,118.246C97.861,118.326 97.658,118.366 97.438,118.366C97.025,118.366 96.678,118.236 96.398,117.976C96.258,117.85 96.145,117.691 96.058,117.501C95.971,117.311 95.925,117.09 95.918,116.836L96.878,116.836C96.898,116.976 96.946,117.106 97.023,117.226C97.1,117.346 97.235,117.406 97.428,117.406C97.575,117.406 97.706,117.358 97.823,117.261C97.94,117.165 97.998,117.03 97.998,116.856C97.998,116.716 97.961,116.596 97.888,116.496C97.815,116.396 97.681,116.31 97.488,116.236L96.998,116.056C96.678,115.936 96.426,115.758 96.243,115.521C96.06,115.285 95.968,114.996 95.968,114.656C95.968,114.443 96.008,114.245 96.088,114.061C96.168,113.878 96.278,113.72 96.418,113.586C96.551,113.453 96.708,113.351 96.888,113.281C97.068,113.211 97.261,113.176 97.468,113.176C97.675,113.176 97.866,113.213 98.043,113.286C98.22,113.36 98.371,113.463 98.498,113.596C98.625,113.73 98.725,113.888 98.798,114.071C98.871,114.255 98.908,114.45 98.908,114.656L97.948,114.656Z" style="fill-rule:nonzero;"/>
            <path d="M102.568,116.156L100.548,116.156L100.548,116.846C100.548,117.006 100.593,117.13 100.683,117.216C100.773,117.303 100.895,117.346 101.048,117.346C101.241,117.346 101.37,117.29 101.433,117.176C101.496,117.063 101.535,116.95 101.548,116.836L102.568,116.836C102.568,117.283 102.431,117.643 102.158,117.916C102.025,118.056 101.865,118.166 101.678,118.246C101.491,118.326 101.281,118.366 101.048,118.366C100.728,118.366 100.456,118.3 100.233,118.166C100.01,118.033 99.838,117.856 99.718,117.636C99.645,117.503 99.595,117.35 99.568,117.176C99.541,117.003 99.528,116.813 99.528,116.606L99.528,114.936C99.528,114.73 99.541,114.54 99.568,114.366C99.595,114.193 99.645,114.04 99.718,113.906C99.838,113.686 100.01,113.51 100.233,113.376C100.456,113.243 100.728,113.176 101.048,113.176C101.281,113.176 101.493,113.216 101.683,113.296C101.873,113.376 102.035,113.486 102.168,113.626C102.435,113.926 102.568,114.303 102.568,114.756L102.568,116.156ZM100.548,115.356L101.548,115.356L101.548,114.776C101.548,114.583 101.503,114.438 101.413,114.341C101.323,114.245 101.201,114.196 101.048,114.196C100.895,114.196 100.773,114.245 100.683,114.341C100.593,114.438 100.548,114.583 100.548,114.776L100.548,115.356Z" style="fill-rule:nonzero;"/>
            <path d="M103.318,113.236L103.318,111.696L104.338,111.696L104.338,113.236L104.968,113.236L104.968,114.036L104.338,114.036L104.338,116.846C104.338,116.966 104.35,117.06 104.373,117.126C104.396,117.193 104.435,117.243 104.488,117.276C104.541,117.31 104.606,117.33 104.683,117.336C104.76,117.343 104.855,117.346 104.968,117.346L104.968,118.306L104.548,118.306C104.315,118.306 104.12,118.27 103.963,118.196C103.806,118.123 103.681,118.03 103.588,117.916C103.495,117.803 103.426,117.675 103.383,117.531C103.34,117.388 103.318,117.25 103.318,117.116L103.318,114.036L102.808,114.036L102.808,113.236L103.318,113.236Z" style="fill-rule:nonzero;"/>
        </g>
        <g transform="matrix(1,0,0,1,77.0807,159.44)">
            <text x="89.198px" y="118.306px" style="font-family:'DINCondensed-Bold', 'DIN Condensed';font-weight:700;font-stretch:condensed;font-size:10px;">reset</text>
        </g>
        <g id="Clock-input" serif:id="Clock#input" transform="matrix(0.175002,0,0,0.175002,111.015,264.355)">
            <rect x="53.94" y="106.916" width="161.978" height="161.978" style="fill:rgb(217,217,217);"/>
        </g>
        <g transform="matrix(1,0,0,1,37.6536,160.683)">
            <path d="M90.698,116.846C90.698,117.006 90.743,117.13 90.833,117.216C90.923,117.303 91.045,117.346 91.198,117.346C91.391,117.346 91.52,117.29 91.583,117.176C91.646,117.063 91.685,116.95 91.698,116.836L92.718,116.836C92.718,117.283 92.581,117.643 92.308,117.916C92.175,118.056 92.015,118.166 91.828,118.246C91.641,118.326 91.431,118.366 91.198,118.366C90.878,118.366 90.606,118.3 90.383,118.166C90.16,118.033 89.988,117.856 89.868,117.636C89.795,117.503 89.745,117.35 89.718,117.176C89.691,117.003 89.678,116.813 89.678,116.606L89.678,114.936C89.678,114.73 89.691,114.54 89.718,114.366C89.745,114.193 89.795,114.04 89.868,113.906C89.988,113.686 90.16,113.51 90.383,113.376C90.606,113.243 90.878,113.176 91.198,113.176C91.431,113.176 91.643,113.216 91.833,113.296C92.023,113.376 92.185,113.486 92.318,113.626C92.585,113.926 92.718,114.316 92.718,114.796L91.698,114.796C91.698,114.59 91.653,114.438 91.563,114.341C91.473,114.245 91.351,114.196 91.198,114.196C91.045,114.196 90.923,114.245 90.833,114.341C90.743,114.438 90.698,114.583 90.698,114.776L90.698,116.846Z" style="fill-rule:nonzero;"/>
            <path d="M93.138,111.186L94.158,111.186L94.158,116.876C94.158,117.07 94.193,117.201 94.263,117.271C94.333,117.341 94.465,117.386 94.658,117.406L94.658,118.366C94.425,118.366 94.215,118.348 94.028,118.311C93.841,118.275 93.681,118.203 93.548,118.096C93.415,117.996 93.313,117.855 93.243,117.671C93.173,117.488 93.138,117.246 93.138,116.946L93.138,111.186Z" style="fill-rule:nonzero;"/>
            <path d="M94.968,114.936C94.968,114.73 94.981,114.54 95.008,114.366C95.035,114.193 95.085,114.04 95.158,113.906C95.278,113.686 95.45,113.51 95.673,113.376C95.896,113.243 96.168,113.176 96.488,113.176C96.808,113.176 97.08,113.243 97.303,113.376C97.526,113.51 97.698,113.686 97.818,113.906C97.891,114.04 97.941,114.193 97.968,114.366C97.995,114.54 98.008,114.73 98.008,114.936L98.008,116.606C98.008,116.813 97.995,117.003 97.968,117.176C97.941,117.35 97.891,117.503 97.818,117.636C97.698,117.856 97.526,118.033 97.303,118.166C97.08,118.3 96.808,118.366 96.488,118.366C96.168,118.366 95.896,118.3 95.673,118.166C95.45,118.033 95.278,117.856 95.158,117.636C95.085,117.503 95.035,117.35 95.008,117.176C94.981,117.003 94.968,116.813 94.968,116.606L94.968,114.936ZM95.988,116.766C95.988,116.96 96.033,117.105 96.123,117.201C96.213,117.298 96.335,117.346 96.488,117.346C96.641,117.346 96.763,117.298 96.853,117.201C96.943,117.105 96.988,116.96 96.988,116.766L96.988,114.776C96.988,114.583 96.943,114.438 96.853,114.341C96.763,114.245 96.641,114.196 96.488,114.196C96.335,114.196 96.213,114.245 96.123,114.341C96.033,114.438 95.988,114.583 95.988,114.776L95.988,116.766Z" style="fill-rule:nonzero;"/>
            <path d="M99.838,116.846C99.838,117.006 99.883,117.13 99.973,117.216C100.063,117.303 100.185,117.346 100.338,117.346C100.531,117.346 100.66,117.29 100.723,117.176C100.786,117.063 100.825,116.95 100.838,116.836L101.858,116.836C101.858,117.283 101.721,117.643 101.448,117.916C101.315,118.056 101.155,118.166 100.968,118.246C100.781,118.326 100.571,118.366 100.338,118.366C100.018,118.366 99.746,118.3 99.523,118.166C99.3,118.033 99.128,117.856 99.008,117.636C98.935,117.503 98.885,117.35 98.858,117.176C98.831,117.003 98.818,116.813 98.818,116.606L98.818,114.936C98.818,114.73 98.831,114.54 98.858,114.366C98.885,114.193 98.935,114.04 99.008,113.906C99.128,113.686 99.3,113.51 99.523,113.376C99.746,113.243 100.018,113.176 100.338,113.176C100.571,113.176 100.783,113.216 100.973,113.296C101.163,113.376 101.325,113.486 101.458,113.626C101.725,113.926 101.858,114.316 101.858,114.796L100.838,114.796C100.838,114.59 100.793,114.438 100.703,114.341C100.613,114.245 100.491,114.196 100.338,114.196C100.185,114.196 100.063,114.245 99.973,114.341C99.883,114.438 99.838,114.583 99.838,114.776L99.838,116.846Z" style="fill-rule:nonzero;"/>
            <path d="M102.338,118.306L102.338,111.186L103.358,111.186L103.358,115.446L103.378,115.446L104.608,113.236L105.628,113.236L104.418,115.296L105.878,118.306L104.768,118.306L103.848,116.116L103.358,116.886L103.358,118.306L102.338,118.306Z" style="fill-rule:nonzero;"/>
        </g>
        <g transform="matrix(1,0,0,1,37.6536,160.683)">
            <text x="89.198px" y="118.306px" style="font-family:'DINCondensed-Bold', 'DIN Condensed';font-weight:700;font-stretch:condensed;font-size:10px;">c<tspan x="92.778px 94.638px 98.338px 101.918px " y="118.306px 118.306px 118.306px 118.306px ">lock</tspan></text>
        </g>
        <g transform="matrix(6.12323e-17,-1,1,6.12323e-17,-7.63954,399.342)">
            <path d="M89.528,114.936C89.528,114.73 89.541,114.54 89.568,114.366C89.595,114.193 89.645,114.04 89.718,113.906C89.838,113.686 90.01,113.51 90.233,113.376C90.456,113.243 90.728,113.176 91.048,113.176C91.368,113.176 91.64,113.243 91.863,113.376C92.086,113.51 92.258,113.686 92.378,113.906C92.451,114.04 92.501,114.193 92.528,114.366C92.555,114.54 92.568,114.73 92.568,114.936L92.568,116.606C92.568,116.813 92.555,117.003 92.528,117.176C92.501,117.35 92.451,117.503 92.378,117.636C92.258,117.856 92.086,118.033 91.863,118.166C91.64,118.3 91.368,118.366 91.048,118.366C90.728,118.366 90.456,118.3 90.233,118.166C90.01,118.033 89.838,117.856 89.718,117.636C89.645,117.503 89.595,117.35 89.568,117.176C89.541,117.003 89.528,116.813 89.528,116.606L89.528,114.936ZM90.548,116.766C90.548,116.96 90.593,117.105 90.683,117.201C90.773,117.298 90.895,117.346 91.048,117.346C91.201,117.346 91.323,117.298 91.413,117.201C91.503,117.105 91.548,116.96 91.548,116.766L91.548,114.776C91.548,114.583 91.503,114.438 91.413,114.341C91.323,114.245 91.201,114.196 91.048,114.196C90.895,114.196 90.773,114.245 90.683,114.341C90.593,114.438 90.548,114.583 90.548,114.776L90.548,116.766Z" style="fill-rule:nonzero;"/>
            <path d="M96.368,113.236L95.048,118.306L94.148,118.306L92.828,113.236L93.908,113.236L94.588,116.476L94.608,116.476L95.288,113.236L96.368,113.236Z" style="fill-rule:nonzero;"/>
            <path d="M99.668,116.156L97.648,116.156L97.648,116.846C97.648,117.006 97.693,117.13 97.783,117.216C97.873,117.303 97.995,117.346 98.148,117.346C98.341,117.346 98.47,117.29 98.533,117.176C98.596,117.063 98.635,116.95 98.648,116.836L99.668,116.836C99.668,117.283 99.531,117.643 99.258,117.916C99.125,118.056 98.965,118.166 98.778,118.246C98.591,118.326 98.381,118.366 98.148,118.366C97.828,118.366 97.556,118.3 97.333,118.166C97.11,118.033 96.938,117.856 96.818,117.636C96.745,117.503 96.695,117.35 96.668,117.176C96.641,117.003 96.628,116.813 96.628,116.606L96.628,114.936C96.628,114.73 96.641,114.54 96.668,114.366C96.695,114.193 96.745,114.04 96.818,113.906C96.938,113.686 97.11,113.51 97.333,113.376C97.556,113.243 97.828,113.176 98.148,113.176C98.381,113.176 98.593,113.216 98.783,113.296C98.973,113.376 99.135,113.486 99.268,113.626C99.535,113.926 99.668,114.303 99.668,114.756L99.668,116.156ZM97.648,115.356L98.648,115.356L98.648,114.776C98.648,114.583 98.603,114.438 98.513,114.341C98.423,114.245 98.301,114.196 98.148,114.196C97.995,114.196 97.873,114.245 97.783,114.341C97.693,114.438 97.648,114.583 97.648,114.776L97.648,115.356Z" style="fill-rule:nonzero;"/>
            <path d="M100.418,118.306L100.418,113.236L101.438,113.236L101.438,113.776C101.645,113.59 101.848,113.443 102.048,113.336C102.248,113.23 102.495,113.176 102.788,113.176L102.788,114.256C102.688,114.216 102.585,114.196 102.478,114.196C102.371,114.196 102.256,114.215 102.133,114.251C102.01,114.288 101.898,114.35 101.798,114.436C101.691,114.523 101.605,114.636 101.538,114.776C101.471,114.916 101.438,115.09 101.438,115.296L101.438,118.306L100.418,118.306Z" style="fill-rule:nonzero;"/>
            <path d="M103.198,118.306L103.198,113.236L104.218,113.236L104.218,113.776C104.425,113.59 104.628,113.443 104.828,113.336C105.028,113.23 105.275,113.176 105.568,113.176L105.568,114.256C105.468,114.216 105.365,114.196 105.258,114.196C105.151,114.196 105.036,114.215 104.913,114.251C104.79,114.288 104.678,114.35 104.578,114.436C104.471,114.523 104.385,114.636 104.318,114.776C104.251,114.916 104.218,115.09 104.218,115.296L104.218,118.306L103.198,118.306Z" style="fill-rule:nonzero;"/>
            <path d="M105.978,118.306L105.978,113.236L106.998,113.236L106.998,118.306L105.978,118.306ZM105.978,112.206L105.978,111.186L106.998,111.186L106.998,112.206L105.978,112.206Z" style="fill-rule:nonzero;"/>
            <path d="M108.858,116.656C108.858,116.863 108.898,117.03 108.978,117.156C109.058,117.283 109.185,117.346 109.358,117.346C109.511,117.346 109.635,117.288 109.728,117.171C109.821,117.055 109.868,116.903 109.868,116.716L109.868,114.746C109.868,114.586 109.82,114.455 109.723,114.351C109.626,114.248 109.505,114.196 109.358,114.196C109.165,114.196 109.033,114.256 108.963,114.376C108.893,114.496 108.858,114.636 108.858,114.796L108.858,116.656ZM109.868,118.306L109.868,117.846C109.801,117.92 109.738,117.988 109.678,118.051C109.618,118.115 109.551,118.17 109.478,118.216C109.405,118.263 109.321,118.3 109.228,118.326C109.135,118.353 109.025,118.366 108.898,118.366C108.471,118.366 108.175,118.206 108.008,117.886C107.948,117.773 107.905,117.633 107.878,117.466C107.851,117.3 107.838,117.076 107.838,116.796L107.838,114.866C107.838,114.5 107.848,114.23 107.868,114.056C107.908,113.723 108.065,113.473 108.338,113.306C108.465,113.22 108.655,113.176 108.908,113.176C109.108,113.176 109.286,113.221 109.443,113.311C109.6,113.401 109.735,113.53 109.848,113.696L109.868,113.696L109.868,111.186L110.888,111.186L110.888,118.306L109.868,118.306Z" style="fill-rule:nonzero;"/>
            <path d="M114.678,116.156L112.658,116.156L112.658,116.846C112.658,117.006 112.703,117.13 112.793,117.216C112.883,117.303 113.005,117.346 113.158,117.346C113.351,117.346 113.48,117.29 113.543,117.176C113.606,117.063 113.645,116.95 113.658,116.836L114.678,116.836C114.678,117.283 114.541,117.643 114.268,117.916C114.135,118.056 113.975,118.166 113.788,118.246C113.601,118.326 113.391,118.366 113.158,118.366C112.838,118.366 112.566,118.3 112.343,118.166C112.12,118.033 111.948,117.856 111.828,117.636C111.755,117.503 111.705,117.35 111.678,117.176C111.651,117.003 111.638,116.813 111.638,116.606L111.638,114.936C111.638,114.73 111.651,114.54 111.678,114.366C111.705,114.193 111.755,114.04 111.828,113.906C111.948,113.686 112.12,113.51 112.343,113.376C112.566,113.243 112.838,113.176 113.158,113.176C113.391,113.176 113.603,113.216 113.793,113.296C113.983,113.376 114.145,113.486 114.278,113.626C114.545,113.926 114.678,114.303 114.678,114.756L114.678,116.156ZM112.658,115.356L113.658,115.356L113.658,114.776C113.658,114.583 113.613,114.438 113.523,114.341C113.433,114.245 113.311,114.196 113.158,114.196C113.005,114.196 112.883,114.245 112.793,114.341C112.703,114.438 112.658,114.583 112.658,114.776L112.658,115.356Z" style="fill-rule:nonzero;"/>
        </g>
        <g transform="matrix(6.12323e-17,-1,1,6.12323e-17,-7.63954,399.342)">
            <text x="89.198px" y="118.306px" style="font-family:'DINCondensed-Bold', 'DIN Condensed';font-weight:700;font-stretch:condensed;font-size:10px;">override</text>
        </g>
    </g>
    <g transform="matrix(1,0,0,1,-102.782,-70.4623)">
        <g id="Connect-ledbutton" serif:id="Connect#ledbutton" transform="matrix(1,0,0,1,78.0012,21.434)">
            <circle cx="101.308" cy="310.24" r="9.898" style="fill:rgb(115,115,115);"/>
        </g>
        <g transform="matrix(1,0,0,1,50.4119,216.642)">
            <path d="M90.698,116.846C90.698,117.006 90.743,117.13 90.833,117.216C90.923,117.303 91.045,117.346 91.198,117.346C91.391,117.346 91.52,117.29 91.583,117.176C91.646,117.063 91.685,116.95 91.698,116.836L92.718,116.836C92.718,117.283 92.581,117.643 92.308,117.916C92.175,118.056 92.015,118.166 91.828,118.246C91.641,118.326 91.431,118.366 91.198,118.366C90.878,118.366 90.606,118.3 90.383,118.166C90.16,118.033 89.988,117.856 89.868,117.636C89.795,117.503 89.745,117.35 89.718,117.176C89.691,117.003 89.678,116.813 89.678,116.606L89.678,114.936C89.678,114.73 89.691,114.54 89.718,114.366C89.745,114.193 89.795,114.04 89.868,113.906C89.988,113.686 90.16,113.51 90.383,113.376C90.606,113.243 90.878,113.176 91.198,113.176C91.431,113.176 91.643,113.216 91.833,113.296C92.023,113.376 92.185,113.486 92.318,113.626C92.585,113.926 92.718,114.316 92.718,114.796L91.698,114.796C91.698,114.59 91.653,114.438 91.563,114.341C91.473,114.245 91.351,114.196 91.198,114.196C91.045,114.196 90.923,114.245 90.833,114.341C90.743,114.438 90.698,114.583 90.698,114.776L90.698,116.846Z" style="fill:rgb(5,5,5);fill-rule:nonzero;"/>
            <path d="M93.228,114.936C93.228,114.73 93.241,114.54 93.268,114.366C93.295,114.193 93.345,114.04 93.418,113.906C93.538,113.686 93.71,113.51 93.933,113.376C94.156,113.243 94.428,113.176 94.748,113.176C95.068,113.176 95.34,113.243 95.563,113.376C95.786,113.51 95.958,113.686 96.078,113.906C96.151,114.04 96.201,114.193 96.228,114.366C96.255,114.54 96.268,114.73 96.268,114.936L96.268,116.606C96.268,116.813 96.255,117.003 96.228,117.176C96.201,117.35 96.151,117.503 96.078,117.636C95.958,117.856 95.786,118.033 95.563,118.166C95.34,118.3 95.068,118.366 94.748,118.366C94.428,118.366 94.156,118.3 93.933,118.166C93.71,118.033 93.538,117.856 93.418,117.636C93.345,117.503 93.295,117.35 93.268,117.176C93.241,117.003 93.228,116.813 93.228,116.606L93.228,114.936ZM94.248,116.766C94.248,116.96 94.293,117.105 94.383,117.201C94.473,117.298 94.595,117.346 94.748,117.346C94.901,117.346 95.023,117.298 95.113,117.201C95.203,117.105 95.248,116.96 95.248,116.766L95.248,114.776C95.248,114.583 95.203,114.438 95.113,114.341C95.023,114.245 94.901,114.196 94.748,114.196C94.595,114.196 94.473,114.245 94.383,114.341C94.293,114.438 94.248,114.583 94.248,114.776L94.248,116.766Z" style="fill:rgb(5,5,5);fill-rule:nonzero;"/>
            <path d="M97.018,118.306L97.018,113.236L98.038,113.236L98.038,113.726L98.058,113.726C98.165,113.566 98.293,113.435 98.443,113.331C98.593,113.228 98.785,113.176 99.018,113.176C99.145,113.176 99.271,113.198 99.398,113.241C99.525,113.285 99.638,113.356 99.738,113.456C99.838,113.556 99.918,113.685 99.978,113.841C100.038,113.998 100.068,114.19 100.068,114.416L100.068,118.306L99.048,118.306L99.048,114.796C99.048,114.61 99.005,114.463 98.918,114.356C98.831,114.25 98.708,114.196 98.548,114.196C98.355,114.196 98.221,114.256 98.148,114.376C98.075,114.496 98.038,114.67 98.038,114.896L98.038,118.306L97.018,118.306Z" style="fill:rgb(5,5,5);fill-rule:nonzero;"/>
            <path d="M100.908,118.306L100.908,113.236L101.928,113.236L101.928,113.726L101.948,113.726C102.055,113.566 102.183,113.435 102.333,113.331C102.483,113.228 102.675,113.176 102.908,113.176C103.035,113.176 103.161,113.198 103.288,113.241C103.415,113.285 103.528,113.356 103.628,113.456C103.728,113.556 103.808,113.685 103.868,113.841C103.928,113.998 103.958,114.19 103.958,114.416L103.958,118.306L102.938,118.306L102.938,114.796C102.938,114.61 102.895,114.463 102.808,114.356C102.721,114.25 102.598,114.196 102.438,114.196C102.245,114.196 102.111,114.256 102.038,114.376C101.965,114.496 101.928,114.67 101.928,114.896L101.928,118.306L100.908,118.306Z" style="fill:rgb(5,5,5);fill-rule:nonzero;"/>
            <path d="M107.748,116.156L105.728,116.156L105.728,116.846C105.728,117.006 105.773,117.13 105.863,117.216C105.953,117.303 106.075,117.346 106.228,117.346C106.421,117.346 106.55,117.29 106.613,117.176C106.676,117.063 106.715,116.95 106.728,116.836L107.748,116.836C107.748,117.283 107.611,117.643 107.338,117.916C107.205,118.056 107.045,118.166 106.858,118.246C106.671,118.326 106.461,118.366 106.228,118.366C105.908,118.366 105.636,118.3 105.413,118.166C105.19,118.033 105.018,117.856 104.898,117.636C104.825,117.503 104.775,117.35 104.748,117.176C104.721,117.003 104.708,116.813 104.708,116.606L104.708,114.936C104.708,114.73 104.721,114.54 104.748,114.366C104.775,114.193 104.825,114.04 104.898,113.906C105.018,113.686 105.19,113.51 105.413,113.376C105.636,113.243 105.908,113.176 106.228,113.176C106.461,113.176 106.673,113.216 106.863,113.296C107.053,113.376 107.215,113.486 107.348,113.626C107.615,113.926 107.748,114.303 107.748,114.756L107.748,116.156ZM105.728,115.356L106.728,115.356L106.728,114.776C106.728,114.583 106.683,114.438 106.593,114.341C106.503,114.245 106.381,114.196 106.228,114.196C106.075,114.196 105.953,114.245 105.863,114.341C105.773,114.438 105.728,114.583 105.728,114.776L105.728,115.356Z" style="fill:rgb(5,5,5);fill-rule:nonzero;"/>
            <path d="M109.578,116.846C109.578,117.006 109.623,117.13 109.713,117.216C109.803,117.303 109.925,117.346 110.078,117.346C110.271,117.346 110.4,117.29 110.463,117.176C110.526,117.063 110.565,116.95 110.578,116.836L111.598,116.836C111.598,117.283 111.461,117.643 111.188,117.916C111.055,118.056 110.895,118.166 110.708,118.246C110.521,118.326 110.311,118.366 110.078,118.366C109.758,118.366 109.486,118.3 109.263,118.166C109.04,118.033 108.868,117.856 108.748,117.636C108.675,117.503 108.625,117.35 108.598,117.176C108.571,117.003 108.558,116.813 108.558,116.606L108.558,114.936C108.558,114.73 108.571,114.54 108.598,114.366C108.625,114.193 108.675,114.04 108.748,113.906C108.868,113.686 109.04,113.51 109.263,113.376C109.486,113.243 109.758,113.176 110.078,113.176C110.311,113.176 110.523,113.216 110.713,113.296C110.903,113.376 111.065,113.486 111.198,113.626C111.465,113.926 111.598,114.316 111.598,114.796L110.578,114.796C110.578,114.59 110.533,114.438 110.443,114.341C110.353,114.245 110.231,114.196 110.078,114.196C109.925,114.196 109.803,114.245 109.713,114.341C109.623,114.438 109.578,114.583 109.578,114.776L109.578,116.846Z" style="fill:rgb(5,5,5);fill-rule:nonzero;"/>
            <path d="M112.198,113.236L112.198,111.696L113.218,111.696L113.218,113.236L113.848,113.236L113.848,114.036L113.218,114.036L113.218,116.846C113.218,116.966 113.23,117.06 113.253,117.126C113.276,117.193 113.315,117.243 113.368,117.276C113.421,117.31 113.486,117.33 113.563,117.336C113.64,117.343 113.735,117.346 113.848,117.346L113.848,118.306L113.428,118.306C113.195,118.306 113,118.27 112.843,118.196C112.686,118.123 112.561,118.03 112.468,117.916C112.375,117.803 112.306,117.675 112.263,117.531C112.22,117.388 112.198,117.25 112.198,117.116L112.198,114.036L111.688,114.036L111.688,113.236L112.198,113.236Z" style="fill:rgb(5,5,5);fill-rule:nonzero;"/>
        </g>
        <g transform="matrix(1,0,0,1,50.4119,216.642)">
            <text x="89.198px" y="118.306px" style="font-family:'DINCondensed-Bold', 'DIN Condensed';font-weight:700;font-stretch:condensed;font-size:10px;fill:rgb(5,5,5);">connect</text>
        </g>
        <g transform="matrix(6.12323e-17,-1,1,6.12323e-17,1.59527,435.641)">
            <path d="M89.618,118.306L89.618,113.236L90.638,113.236L90.638,113.726L90.658,113.726C90.765,113.566 90.893,113.435 91.043,113.331C91.193,113.228 91.385,113.176 91.618,113.176C91.838,113.176 92.021,113.23 92.168,113.336C92.315,113.443 92.435,113.56 92.528,113.686C92.655,113.546 92.795,113.426 92.948,113.326C93.101,113.226 93.315,113.176 93.588,113.176C93.715,113.176 93.845,113.198 93.978,113.241C94.111,113.285 94.231,113.356 94.338,113.456C94.445,113.556 94.531,113.685 94.598,113.841C94.665,113.998 94.698,114.19 94.698,114.416L94.698,118.306L93.678,118.306L93.678,114.796C93.678,114.61 93.635,114.463 93.548,114.356C93.461,114.25 93.338,114.196 93.178,114.196C92.985,114.196 92.851,114.256 92.778,114.376C92.705,114.496 92.668,114.67 92.668,114.896L92.668,118.306L91.648,118.306L91.648,114.796C91.648,114.61 91.605,114.463 91.518,114.356C91.431,114.25 91.308,114.196 91.148,114.196C90.955,114.196 90.821,114.256 90.748,114.376C90.675,114.496 90.638,114.67 90.638,114.896L90.638,118.306L89.618,118.306Z" style="fill-rule:nonzero;"/>
            <path d="M98.488,116.156L96.468,116.156L96.468,116.846C96.468,117.006 96.513,117.13 96.603,117.216C96.693,117.303 96.815,117.346 96.968,117.346C97.161,117.346 97.29,117.29 97.353,117.176C97.416,117.063 97.455,116.95 97.468,116.836L98.488,116.836C98.488,117.283 98.351,117.643 98.078,117.916C97.945,118.056 97.785,118.166 97.598,118.246C97.411,118.326 97.201,118.366 96.968,118.366C96.648,118.366 96.376,118.3 96.153,118.166C95.93,118.033 95.758,117.856 95.638,117.636C95.565,117.503 95.515,117.35 95.488,117.176C95.461,117.003 95.448,116.813 95.448,116.606L95.448,114.936C95.448,114.73 95.461,114.54 95.488,114.366C95.515,114.193 95.565,114.04 95.638,113.906C95.758,113.686 95.93,113.51 96.153,113.376C96.376,113.243 96.648,113.176 96.968,113.176C97.201,113.176 97.413,113.216 97.603,113.296C97.793,113.376 97.955,113.486 98.088,113.626C98.355,113.926 98.488,114.303 98.488,114.756L98.488,116.156ZM96.468,115.356L97.468,115.356L97.468,114.776C97.468,114.583 97.423,114.438 97.333,114.341C97.243,114.245 97.121,114.196 96.968,114.196C96.815,114.196 96.693,114.245 96.603,114.341C96.513,114.438 96.468,114.583 96.468,114.776L96.468,115.356Z" style="fill-rule:nonzero;"/>
            <path d="M99.238,113.236L99.238,111.696L100.258,111.696L100.258,113.236L100.888,113.236L100.888,114.036L100.258,114.036L100.258,116.846C100.258,116.966 100.27,117.06 100.293,117.126C100.316,117.193 100.355,117.243 100.408,117.276C100.461,117.31 100.526,117.33 100.603,117.336C100.68,117.343 100.775,117.346 100.888,117.346L100.888,118.306L100.468,118.306C100.235,118.306 100.04,118.27 99.883,118.196C99.726,118.123 99.601,118.03 99.508,117.916C99.415,117.803 99.346,117.675 99.303,117.531C99.26,117.388 99.238,117.25 99.238,117.116L99.238,114.036L98.728,114.036L98.728,113.236L99.238,113.236Z" style="fill-rule:nonzero;"/>
            <path d="M101.278,118.306L101.278,113.236L102.298,113.236L102.298,113.776C102.505,113.59 102.708,113.443 102.908,113.336C103.108,113.23 103.355,113.176 103.648,113.176L103.648,114.256C103.548,114.216 103.445,114.196 103.338,114.196C103.231,114.196 103.116,114.215 102.993,114.251C102.87,114.288 102.758,114.35 102.658,114.436C102.551,114.523 102.465,114.636 102.398,114.776C102.331,114.916 102.298,115.09 102.298,115.296L102.298,118.306L101.278,118.306Z" style="fill-rule:nonzero;"/>
            <path d="M103.908,114.936C103.908,114.73 103.921,114.54 103.948,114.366C103.975,114.193 104.025,114.04 104.098,113.906C104.218,113.686 104.39,113.51 104.613,113.376C104.836,113.243 105.108,113.176 105.428,113.176C105.748,113.176 106.02,113.243 106.243,113.376C106.466,113.51 106.638,113.686 106.758,113.906C106.831,114.04 106.881,114.193 106.908,114.366C106.935,114.54 106.948,114.73 106.948,114.936L106.948,116.606C106.948,116.813 106.935,117.003 106.908,117.176C106.881,117.35 106.831,117.503 106.758,117.636C106.638,117.856 106.466,118.033 106.243,118.166C106.02,118.3 105.748,118.366 105.428,118.366C105.108,118.366 104.836,118.3 104.613,118.166C104.39,118.033 104.218,117.856 104.098,117.636C104.025,117.503 103.975,117.35 103.948,117.176C103.921,117.003 103.908,116.813 103.908,116.606L103.908,114.936ZM104.928,116.766C104.928,116.96 104.973,117.105 105.063,117.201C105.153,117.298 105.275,117.346 105.428,117.346C105.581,117.346 105.703,117.298 105.793,117.201C105.883,117.105 105.928,116.96 105.928,116.766L105.928,114.776C105.928,114.583 105.883,114.438 105.793,114.341C105.703,114.245 105.581,114.196 105.428,114.196C105.275,114.196 105.153,114.245 105.063,114.341C104.973,114.438 104.928,114.583 104.928,114.776L104.928,116.766Z" style="fill-rule:nonzero;"/>
            <path d="M107.698,120.356L107.698,113.236L108.718,113.236L108.718,113.696C108.845,113.55 108.975,113.426 109.108,113.326C109.241,113.226 109.435,113.176 109.688,113.176C110.108,113.176 110.405,113.336 110.578,113.656C110.638,113.77 110.681,113.91 110.708,114.076C110.735,114.243 110.748,114.466 110.748,114.746L110.748,116.676C110.748,117.05 110.738,117.32 110.718,117.486C110.678,117.82 110.525,118.07 110.258,118.236C110.125,118.323 109.931,118.366 109.678,118.366C109.478,118.366 109.3,118.321 109.143,118.231C108.986,118.141 108.851,118.013 108.738,117.846L108.718,117.846L108.718,120.356L107.698,120.356ZM109.728,114.886C109.728,114.68 109.688,114.513 109.608,114.386C109.528,114.26 109.401,114.196 109.228,114.196C109.075,114.196 108.951,114.255 108.858,114.371C108.765,114.488 108.718,114.64 108.718,114.826L108.718,116.796C108.718,116.956 108.766,117.088 108.863,117.191C108.96,117.295 109.081,117.346 109.228,117.346C109.421,117.346 109.553,117.286 109.623,117.166C109.693,117.046 109.728,116.906 109.728,116.746L109.728,114.886Z" style="fill-rule:nonzero;"/>
            <path d="M111.528,111.186L112.548,111.186L112.548,116.876C112.548,117.07 112.583,117.201 112.653,117.271C112.723,117.341 112.855,117.386 113.048,117.406L113.048,118.366C112.815,118.366 112.605,118.348 112.418,118.311C112.231,118.275 112.071,118.203 111.938,118.096C111.805,117.996 111.703,117.855 111.633,117.671C111.563,117.488 111.528,117.246 111.528,116.946L111.528,111.186Z" style="fill-rule:nonzero;"/>
            <path d="M113.448,118.306L113.448,113.236L114.468,113.236L114.468,118.306L113.448,118.306ZM113.448,112.206L113.448,111.186L114.468,111.186L114.468,112.206L113.448,112.206Z" style="fill-rule:nonzero;"/>
            <path d="M114.778,118.306L116.028,115.716L114.838,113.236L115.918,113.236L116.548,114.676L117.178,113.236L118.258,113.236L117.048,115.716L118.318,118.306L117.238,118.306L116.548,116.756L115.858,118.306L114.778,118.306Z" style="fill-rule:nonzero;"/>
        </g>
        <g transform="matrix(6.12323e-17,-1,1,6.12323e-17,1.59527,435.641)">
            <text x="89.198px" y="118.306px" style="font-family:'DINCondensed-Bold', 'DIN Condensed';font-weight:700;font-stretch:condensed;font-size:10px;">metroplix</text>
        </g>
    </g>
    <g id="Display-oled-83x170" serif:id="Display#oled$83x170" transform="matrix(1.77099,0,0,7.31559,-144.317,-450.262)">
        <rect x="87.136" y="70.02" width="47.996" height="23.511" style="fill:rgb(19,19,19);"/>
    </g>
    <g transform="matrix(1,0,0,1,17.9343,-11.8934)">
        <g transform="matrix(1,0,0,1,49.7332,24.9549)">
            <path d="M-30.054,23.656C-30.134,23.656 -30.242,23.66 -30.378,23.668C-30.514,23.676 -30.66,23.682 -30.816,23.686C-30.972,23.69 -31.132,23.696 -31.296,23.704C-31.46,23.712 -31.61,23.716 -31.746,23.716C-32.282,23.716 -32.806,23.634 -33.318,23.47C-33.83,23.306 -34.284,23.05 -34.68,22.702C-35.076,22.354 -35.396,21.906 -35.64,21.358C-35.884,20.81 -36.006,20.152 -36.006,19.384C-36.006,18.68 -35.872,18.056 -35.604,17.512C-35.336,16.968 -34.982,16.512 -34.542,16.144C-34.102,15.776 -33.606,15.496 -33.054,15.304C-32.502,15.112 -31.938,15.016 -31.362,15.016C-31.234,15.016 -31.06,15.024 -30.84,15.04C-30.62,15.056 -30.4,15.076 -30.18,15.1C-29.96,15.124 -29.764,15.15 -29.592,15.178C-29.42,15.206 -29.31,15.232 -29.262,15.256C-29.158,14.976 -29.042,14.728 -28.914,14.512C-28.786,14.296 -28.61,14.132 -28.386,14.02C-28.322,13.996 -28.25,13.992 -28.17,14.008C-28.09,14.024 -28.05,14.064 -28.05,14.128C-28.09,14.2 -28.12,14.244 -28.14,14.26C-28.16,14.276 -28.186,14.284 -28.218,14.284C-28.314,14.284 -28.408,14.328 -28.5,14.416C-28.592,14.504 -28.678,14.618 -28.758,14.758C-28.838,14.898 -28.908,15.058 -28.968,15.238C-29.028,15.418 -29.074,15.6 -29.106,15.784C-29.122,15.872 -29.14,15.974 -29.16,16.09C-29.18,16.206 -29.198,16.32 -29.214,16.432C-29.23,16.544 -29.242,16.652 -29.25,16.756C-29.258,16.86 -29.262,16.948 -29.262,17.02C-29.262,17.06 -29.278,17.094 -29.31,17.122C-29.342,17.15 -29.374,17.164 -29.406,17.164C-29.454,17.164 -29.51,17.14 -29.574,17.092C-29.606,16.892 -29.672,16.692 -29.772,16.492C-29.872,16.292 -30.012,16.112 -30.192,15.952C-30.372,15.792 -30.596,15.664 -30.864,15.568C-31.132,15.472 -31.45,15.424 -31.818,15.424C-32.21,15.424 -32.56,15.516 -32.868,15.7C-33.176,15.884 -33.436,16.136 -33.648,16.456C-33.86,16.776 -34.022,17.156 -34.134,17.596C-34.246,18.036 -34.302,18.508 -34.302,19.012C-34.302,19.708 -34.232,20.326 -34.092,20.866C-33.952,21.406 -33.758,21.864 -33.51,22.24C-33.262,22.616 -32.966,22.902 -32.622,23.098C-32.278,23.294 -31.902,23.392 -31.494,23.392C-31.222,23.392 -30.956,23.348 -30.696,23.26C-30.436,23.172 -30.196,23.052 -29.976,22.9C-29.756,22.748 -29.56,22.572 -29.388,22.372C-29.216,22.172 -29.082,21.96 -28.986,21.736C-28.97,21.704 -28.928,21.68 -28.86,21.664C-28.792,21.648 -28.758,21.656 -28.758,21.688C-28.758,21.792 -28.792,21.934 -28.86,22.114C-28.928,22.294 -29.006,22.474 -29.094,22.654C-29.182,22.834 -29.27,22.998 -29.358,23.146C-29.446,23.294 -29.506,23.392 -29.538,23.44C-29.562,23.496 -29.592,23.57 -29.628,23.662C-29.664,23.754 -29.696,23.858 -29.724,23.974C-29.752,24.09 -29.778,24.21 -29.802,24.334C-29.826,24.458 -29.838,24.58 -29.838,24.7C-29.838,24.828 -29.854,24.908 -29.886,24.94C-29.918,24.972 -29.986,24.988 -30.09,24.988C-30.178,24.988 -30.218,24.926 -30.21,24.802C-30.202,24.678 -30.182,24.536 -30.15,24.376C-30.118,24.216 -30.086,24.066 -30.054,23.926C-30.022,23.786 -30.022,23.696 -30.054,23.656Z" style="fill-rule:nonzero;"/>
            <path d="M-24.162,22.372C-24.114,22.404 -24.09,22.444 -24.09,22.492C-24.09,22.556 -24.182,22.64 -24.366,22.744C-24.558,22.856 -24.812,22.988 -25.128,23.14C-25.444,23.292 -25.758,23.424 -26.07,23.536C-26.222,23.592 -26.358,23.64 -26.478,23.68C-26.598,23.72 -26.706,23.74 -26.802,23.74C-26.914,23.74 -27.052,23.714 -27.216,23.662C-27.38,23.61 -27.522,23.548 -27.642,23.476C-27.738,23.412 -27.814,23.362 -27.87,23.326C-27.926,23.29 -27.954,23.252 -27.954,23.212C-27.954,23.18 -27.944,23.15 -27.924,23.122C-27.904,23.094 -27.886,23.06 -27.87,23.02C-27.862,22.996 -27.854,22.964 -27.846,22.924C-27.838,22.884 -27.834,22.844 -27.834,22.804C-27.81,22.604 -27.784,22.314 -27.756,21.934C-27.728,21.554 -27.706,21.134 -27.69,20.674C-27.674,20.214 -27.66,19.738 -27.648,19.246C-27.636,18.754 -27.63,18.296 -27.63,17.872C-27.63,17.352 -27.632,16.932 -27.636,16.612C-27.64,16.292 -27.65,16.036 -27.666,15.844C-27.69,15.58 -27.722,15.406 -27.762,15.322C-27.802,15.238 -27.846,15.176 -27.894,15.136C-27.95,15.088 -28.004,15.058 -28.056,15.046C-28.108,15.034 -28.156,15.026 -28.2,15.022C-28.244,15.018 -28.28,15.016 -28.308,15.016C-28.336,15.016 -28.35,15.008 -28.35,14.992C-28.35,14.728 -28.238,14.596 -28.014,14.596C-27.846,14.596 -27.648,14.598 -27.42,14.602C-27.192,14.606 -27.002,14.608 -26.85,14.608C-26.754,14.608 -26.652,14.602 -26.544,14.59C-26.436,14.578 -26.33,14.566 -26.226,14.554C-26.122,14.542 -26.026,14.528 -25.938,14.512C-25.85,14.496 -25.786,14.48 -25.746,14.464C-25.714,14.456 -25.688,14.468 -25.668,14.5C-25.648,14.532 -25.636,14.572 -25.632,14.62C-25.628,14.668 -25.636,14.712 -25.656,14.752C-25.676,14.792 -25.702,14.816 -25.734,14.824C-25.782,14.832 -25.824,14.836 -25.86,14.836C-25.896,14.836 -25.958,14.852 -26.046,14.884C-26.086,14.9 -26.122,14.95 -26.154,15.034C-26.186,15.118 -26.214,15.25 -26.238,15.43C-26.262,15.61 -26.286,15.846 -26.31,16.138C-26.334,16.43 -26.358,16.796 -26.382,17.236C-26.406,17.588 -26.424,17.946 -26.436,18.31C-26.448,18.674 -26.46,19.028 -26.472,19.372C-26.484,19.716 -26.492,20.036 -26.496,20.332C-26.5,20.628 -26.502,20.88 -26.502,21.088C-26.502,21.32 -26.5,21.554 -26.496,21.79C-26.492,22.026 -26.47,22.212 -26.43,22.348C-26.39,22.476 -26.286,22.596 -26.118,22.708C-25.95,22.82 -25.774,22.876 -25.59,22.876C-25.446,22.876 -25.298,22.856 -25.146,22.816C-24.994,22.776 -24.854,22.728 -24.726,22.672C-24.598,22.616 -24.484,22.56 -24.384,22.504C-24.284,22.448 -24.21,22.404 -24.162,22.372Z" style="fill-rule:nonzero;"/>
            <path d="M-20.13,22.636C-20.218,22.708 -20.338,22.804 -20.49,22.924C-20.642,23.044 -20.818,23.164 -21.018,23.284C-21.218,23.404 -21.438,23.506 -21.678,23.59C-21.918,23.674 -22.17,23.716 -22.434,23.716C-22.834,23.716 -23.19,23.646 -23.502,23.506C-23.814,23.366 -24.076,23.178 -24.288,22.942C-24.5,22.706 -24.66,22.428 -24.768,22.108C-24.876,21.788 -24.93,21.448 -24.93,21.088C-24.93,20.664 -24.866,20.288 -24.738,19.96C-24.61,19.632 -24.452,19.346 -24.264,19.102C-24.076,18.858 -23.874,18.654 -23.658,18.49C-23.442,18.326 -23.246,18.196 -23.07,18.1C-22.99,18.052 -22.888,18 -22.764,17.944C-22.64,17.888 -22.504,17.836 -22.356,17.788C-22.208,17.74 -22.048,17.698 -21.876,17.662C-21.704,17.626 -21.526,17.608 -21.342,17.608C-20.998,17.608 -20.664,17.652 -20.34,17.74C-20.016,17.828 -19.73,17.966 -19.482,18.154C-19.234,18.342 -19.034,18.584 -18.882,18.88C-18.73,19.176 -18.654,19.532 -18.654,19.948C-18.654,20.284 -18.716,20.6 -18.84,20.896C-18.964,21.192 -19.11,21.456 -19.278,21.688C-19.446,21.92 -19.612,22.118 -19.776,22.282C-19.94,22.446 -20.058,22.564 -20.13,22.636ZM-21.486,22.828C-21.03,22.828 -20.68,22.656 -20.436,22.312C-20.192,21.968 -20.07,21.44 -20.07,20.728C-20.07,20.368 -20.12,20.034 -20.22,19.726C-20.32,19.418 -20.46,19.148 -20.64,18.916C-20.82,18.684 -21.03,18.502 -21.27,18.37C-21.51,18.238 -21.77,18.172 -22.05,18.172C-22.25,18.172 -22.44,18.224 -22.62,18.328C-22.8,18.432 -22.958,18.582 -23.094,18.778C-23.23,18.974 -23.338,19.212 -23.418,19.492C-23.498,19.772 -23.538,20.088 -23.538,20.44C-23.538,20.816 -23.48,21.152 -23.364,21.448C-23.248,21.744 -23.094,21.994 -22.902,22.198C-22.71,22.402 -22.492,22.558 -22.248,22.666C-22.004,22.774 -21.75,22.828 -21.486,22.828Z" style="fill-rule:nonzero;"/>
            <path d="M-12.846,18.148C-12.862,18.196 -12.908,18.27 -12.984,18.37C-13.06,18.47 -13.15,18.574 -13.254,18.682C-13.358,18.79 -13.468,18.894 -13.584,18.994C-13.7,19.094 -13.802,19.168 -13.89,19.216C-13.946,19.24 -13.98,19.232 -13.992,19.192C-14.004,19.152 -14.01,19.112 -14.01,19.072C-14.01,19.008 -14.044,18.928 -14.112,18.832C-14.18,18.736 -14.276,18.642 -14.4,18.55C-14.524,18.458 -14.67,18.38 -14.838,18.316C-15.006,18.252 -15.19,18.22 -15.39,18.22C-15.734,18.22 -16.014,18.406 -16.23,18.778C-16.446,19.15 -16.554,19.644 -16.554,20.26C-16.554,20.636 -16.496,20.974 -16.38,21.274C-16.264,21.574 -16.104,21.826 -15.9,22.03C-15.696,22.234 -15.45,22.39 -15.162,22.498C-14.874,22.606 -14.562,22.66 -14.226,22.66C-13.77,22.66 -13.406,22.602 -13.134,22.486C-12.862,22.37 -12.638,22.236 -12.462,22.084C-12.454,22.084 -12.448,22.08 -12.444,22.072C-12.44,22.064 -12.434,22.06 -12.426,22.06C-12.386,22.06 -12.358,22.074 -12.342,22.102C-12.326,22.13 -12.318,22.164 -12.318,22.204C-12.318,22.236 -12.326,22.26 -12.342,22.276C-12.462,22.372 -12.628,22.5 -12.84,22.66C-13.052,22.82 -13.294,22.978 -13.566,23.134C-13.838,23.29 -14.122,23.424 -14.418,23.536C-14.714,23.648 -15.006,23.704 -15.294,23.704C-16.118,23.704 -16.76,23.464 -17.22,22.984C-17.68,22.504 -17.91,21.848 -17.91,21.016C-17.91,20.384 -17.788,19.852 -17.544,19.42C-17.3,18.988 -17,18.642 -16.644,18.382C-16.288,18.122 -15.91,17.936 -15.51,17.824C-15.11,17.712 -14.758,17.656 -14.454,17.656C-14.206,17.656 -13.984,17.674 -13.788,17.71C-13.592,17.746 -13.424,17.79 -13.284,17.842C-13.144,17.894 -13.036,17.948 -12.96,18.004C-12.884,18.06 -12.846,18.108 -12.846,18.148Z" style="fill-rule:nonzero;"/>
            <path d="M-10.89,20.824C-10.89,20.984 -10.894,21.184 -10.902,21.424C-10.91,21.664 -10.914,21.912 -10.914,22.168C-10.914,22.456 -10.87,22.662 -10.782,22.786C-10.694,22.91 -10.578,22.972 -10.434,22.972C-10.426,22.972 -10.406,22.968 -10.374,22.96C-10.342,22.952 -10.308,22.946 -10.272,22.942C-10.236,22.938 -10.202,22.932 -10.17,22.924C-10.138,22.916 -10.118,22.912 -10.11,22.912C-10.094,22.912 -10.076,22.926 -10.056,22.954C-10.036,22.982 -10.03,23.004 -10.038,23.02C-10.086,23.076 -10.196,23.144 -10.368,23.224C-10.54,23.304 -10.732,23.382 -10.944,23.458C-11.156,23.534 -11.36,23.6 -11.556,23.656C-11.752,23.712 -11.898,23.74 -11.994,23.74C-12.106,23.74 -12.194,23.708 -12.258,23.644C-12.322,23.58 -12.354,23.532 -12.354,23.5C-12.354,23.476 -12.352,23.46 -12.348,23.452C-12.344,23.444 -12.34,23.436 -12.336,23.428C-12.332,23.42 -12.326,23.406 -12.318,23.386C-12.31,23.366 -12.302,23.332 -12.294,23.284C-12.27,23.18 -12.246,23.046 -12.222,22.882C-12.198,22.718 -12.176,22.514 -12.156,22.27C-12.136,22.026 -12.118,21.73 -12.102,21.382C-12.086,21.034 -12.07,20.62 -12.054,20.14C-12.046,19.764 -12.04,19.394 -12.036,19.03C-12.032,18.666 -12.028,18.324 -12.024,18.004C-12.02,17.684 -12.018,17.39 -12.018,17.122L-12.018,16.444C-12.018,16.06 -12.038,15.76 -12.078,15.544C-12.118,15.328 -12.162,15.188 -12.21,15.124C-12.266,15.044 -12.344,15.002 -12.444,14.998C-12.544,14.994 -12.614,14.988 -12.654,14.98C-12.662,14.908 -12.658,14.844 -12.642,14.788C-12.626,14.74 -12.602,14.696 -12.57,14.656C-12.538,14.616 -12.478,14.596 -12.39,14.596C-12.246,14.596 -12.078,14.594 -11.886,14.59C-11.694,14.586 -11.494,14.578 -11.286,14.566C-11.078,14.554 -10.874,14.538 -10.674,14.518C-10.474,14.498 -10.298,14.472 -10.146,14.44C-10.098,14.432 -10.072,14.446 -10.068,14.482C-10.064,14.518 -10.07,14.58 -10.086,14.668C-10.094,14.716 -10.116,14.746 -10.152,14.758C-10.188,14.77 -10.228,14.776 -10.272,14.776C-10.316,14.776 -10.356,14.778 -10.392,14.782C-10.428,14.786 -10.454,14.804 -10.47,14.836C-10.486,14.876 -10.506,14.928 -10.53,14.992C-10.554,15.056 -10.574,15.148 -10.59,15.268C-10.614,15.428 -10.638,15.642 -10.662,15.91C-10.686,16.178 -10.708,16.476 -10.728,16.804C-10.748,17.132 -10.768,17.476 -10.788,17.836C-10.808,18.196 -10.826,18.544 -10.842,18.88C-10.858,19.216 -10.87,19.528 -10.878,19.816C-10.886,20.104 -10.89,20.34 -10.89,20.524C-10.658,20.524 -10.408,20.468 -10.14,20.356C-9.872,20.244 -9.624,20.092 -9.396,19.9C-9.168,19.708 -8.978,19.482 -8.826,19.222C-8.674,18.962 -8.598,18.684 -8.598,18.388C-8.598,18.156 -8.674,18.04 -8.826,18.04C-8.954,18.04 -9.07,18.058 -9.174,18.094C-9.278,18.13 -9.35,18.148 -9.39,18.148C-9.51,18.148 -9.578,18.116 -9.594,18.052C-9.594,18.004 -9.574,17.95 -9.534,17.89C-9.494,17.83 -9.454,17.792 -9.414,17.776C-9.246,17.776 -9.056,17.768 -8.844,17.752C-8.632,17.736 -8.418,17.714 -8.202,17.686C-7.986,17.658 -7.778,17.628 -7.578,17.596C-7.378,17.564 -7.21,17.536 -7.074,17.512C-7.034,17.528 -7.014,17.552 -7.014,17.584C-7.014,17.656 -7.08,17.812 -7.212,18.052C-7.344,18.292 -7.52,18.556 -7.74,18.844C-7.96,19.132 -8.21,19.412 -8.49,19.684C-8.77,19.956 -9.058,20.16 -9.354,20.296C-9.266,20.352 -9.15,20.456 -9.006,20.608C-8.862,20.76 -8.704,20.936 -8.532,21.136C-8.36,21.336 -8.178,21.544 -7.986,21.76C-7.794,21.976 -7.598,22.174 -7.398,22.354C-7.198,22.534 -7.004,22.682 -6.816,22.798C-6.628,22.914 -6.45,22.972 -6.282,22.972C-6.162,22.972 -6.068,22.96 -6,22.936C-5.932,22.912 -5.862,22.88 -5.79,22.84C-5.75,22.864 -5.73,22.892 -5.73,22.924C-5.73,22.988 -5.76,23.05 -5.82,23.11C-5.88,23.17 -6.014,23.232 -6.222,23.296C-6.358,23.336 -6.514,23.39 -6.69,23.458C-6.866,23.526 -7.036,23.59 -7.2,23.65C-7.364,23.71 -7.508,23.76 -7.632,23.8C-7.756,23.84 -7.834,23.856 -7.866,23.848C-7.93,23.832 -8.032,23.754 -8.172,23.614C-8.312,23.474 -8.472,23.302 -8.652,23.098C-8.832,22.894 -9.024,22.67 -9.228,22.426C-9.432,22.182 -9.632,21.952 -9.828,21.736C-10.024,21.52 -10.206,21.328 -10.374,21.16C-10.542,20.992 -10.682,20.88 -10.794,20.824L-10.89,20.824Z" style="fill-rule:nonzero;"/>
            <path d="M-2.01,19.972C-2.01,20.492 -1.92,20.93 -1.74,21.286C-1.56,21.642 -1.332,21.932 -1.056,22.156C-0.78,22.38 -0.478,22.54 -0.15,22.636C0.178,22.732 0.49,22.78 0.786,22.78C1.178,22.78 1.538,22.716 1.866,22.588C2.194,22.46 2.478,22.272 2.718,22.024C2.958,21.776 3.144,21.472 3.276,21.112C3.408,20.752 3.474,20.34 3.474,19.876C3.474,19.548 3.456,19.276 3.42,19.06C3.384,18.844 3.338,18.674 3.282,18.55C3.226,18.426 3.162,18.34 3.09,18.292C3.018,18.244 2.946,18.22 2.874,18.22C2.89,18.22 2.816,18.246 2.652,18.298C2.488,18.35 2.27,18.418 1.998,18.502C1.726,18.586 1.414,18.686 1.062,18.802C0.71,18.918 0.352,19.04 -0.012,19.168C-0.376,19.296 -0.734,19.43 -1.086,19.57C-1.438,19.71 -1.746,19.844 -2.01,19.972ZM4.254,17.656C4.27,17.792 4.286,17.944 4.302,18.112C4.318,18.28 4.326,18.456 4.326,18.64C4.326,19.208 4.224,19.794 4.02,20.398C3.816,21.002 3.52,21.554 3.132,22.054C2.744,22.554 2.27,22.966 1.71,23.29C1.15,23.614 0.518,23.776 -0.186,23.776C-0.37,23.776 -0.578,23.756 -0.81,23.716C-1.042,23.676 -1.28,23.61 -1.524,23.518C-1.768,23.426 -2.004,23.302 -2.232,23.146C-2.46,22.99 -2.664,22.792 -2.844,22.552C-3.024,22.312 -3.168,22.028 -3.276,21.7C-3.384,21.372 -3.438,20.988 -3.438,20.548C-3.438,19.668 -3.308,18.924 -3.048,18.316C-2.788,17.708 -2.468,17.216 -2.088,16.84C-1.708,16.464 -1.308,16.192 -0.888,16.024C-0.468,15.856 -0.098,15.772 0.222,15.772C0.894,15.772 1.388,15.898 1.704,16.15C2.02,16.402 2.178,16.776 2.178,17.272C2.178,17.376 2.158,17.476 2.118,17.572C2.078,17.668 2.03,17.754 1.974,17.83C1.918,17.906 1.858,17.976 1.794,18.04C1.73,18.104 1.678,18.16 1.638,18.208C1.686,18.184 1.792,18.142 1.956,18.082C2.12,18.022 2.296,17.96 2.484,17.896C2.672,17.832 2.848,17.77 3.012,17.71C3.176,17.65 3.282,17.612 3.33,17.596C3.474,17.548 3.656,17.48 3.876,17.392C4.096,17.304 4.33,17.206 4.578,17.098C4.826,16.99 5.078,16.874 5.334,16.75C5.59,16.626 5.826,16.504 6.042,16.384C6.034,16.6 5.986,16.768 5.898,16.888C5.81,17.008 5.688,17.11 5.532,17.194C5.376,17.278 5.19,17.352 4.974,17.416C4.758,17.48 4.518,17.56 4.254,17.656ZM0.498,18.52C0.578,18.448 0.644,18.344 0.696,18.208C0.748,18.072 0.774,17.952 0.774,17.848C0.774,17.568 0.734,17.334 0.654,17.146C0.574,16.958 0.468,16.806 0.336,16.69C0.204,16.574 0.054,16.492 -0.114,16.444C-0.282,16.396 -0.454,16.372 -0.63,16.372C-0.75,16.372 -0.89,16.434 -1.05,16.558C-1.21,16.682 -1.362,16.874 -1.506,17.134C-1.65,17.394 -1.772,17.728 -1.872,18.136C-1.972,18.544 -2.022,19.032 -2.022,19.6C-1.822,19.552 -1.602,19.486 -1.362,19.402C-1.122,19.318 -0.884,19.228 -0.648,19.132C-0.412,19.036 -0.192,18.934 0.012,18.826C0.216,18.718 0.378,18.616 0.498,18.52Z" style="fill-rule:nonzero;"/>
            <path d="M-48.174,35.344C-48.358,35.448 -48.59,35.556 -48.87,35.668C-49.15,35.78 -49.442,35.836 -49.746,35.836C-49.93,35.836 -50.062,35.82 -50.142,35.788C-50.222,35.756 -50.262,35.692 -50.262,35.596C-50.262,35.564 -50.256,35.528 -50.244,35.488C-50.232,35.448 -50.218,35.414 -50.202,35.386C-50.186,35.358 -50.166,35.338 -50.142,35.326C-50.118,35.314 -50.094,35.324 -50.07,35.356C-50.022,35.42 -49.95,35.456 -49.854,35.464C-49.758,35.472 -49.654,35.476 -49.542,35.476C-49.374,35.468 -49.222,35.41 -49.086,35.302C-48.95,35.194 -48.85,35.048 -48.786,34.864C-48.754,34.752 -48.722,34.576 -48.69,34.336C-48.658,34.096 -48.632,33.808 -48.612,33.472C-48.592,33.136 -48.576,32.762 -48.564,32.35C-48.552,31.938 -48.546,31.504 -48.546,31.048C-48.546,30.008 -48.574,29.198 -48.63,28.618C-48.686,28.038 -48.758,27.704 -48.846,27.616C-48.91,27.568 -48.99,27.53 -49.086,27.502C-49.182,27.474 -49.28,27.456 -49.38,27.448C-49.48,27.44 -49.578,27.436 -49.674,27.436C-49.77,27.436 -49.846,27.44 -49.902,27.448C-49.958,27.456 -50.002,27.44 -50.034,27.4C-50.066,27.36 -50.082,27.32 -50.082,27.28C-50.082,27.136 -50.03,27.064 -49.926,27.064C-49.87,27.064 -49.77,27.07 -49.626,27.082C-49.482,27.094 -49.316,27.106 -49.128,27.118C-48.94,27.13 -48.742,27.14 -48.534,27.148C-48.326,27.156 -48.138,27.16 -47.97,27.16C-47.762,27.16 -47.568,27.128 -47.388,27.064C-47.208,27 -47.022,26.928 -46.83,26.848C-46.638,26.768 -46.428,26.696 -46.2,26.632C-45.972,26.568 -45.706,26.536 -45.402,26.536C-45.026,26.536 -44.674,26.568 -44.346,26.632C-44.018,26.696 -43.734,26.794 -43.494,26.926C-43.254,27.058 -43.064,27.228 -42.924,27.436C-42.784,27.644 -42.714,27.888 -42.714,28.168C-42.714,28.488 -42.782,28.778 -42.918,29.038C-43.054,29.298 -43.224,29.528 -43.428,29.728C-43.632,29.928 -43.848,30.098 -44.076,30.238C-44.304,30.378 -44.51,30.484 -44.694,30.556C-44.398,30.58 -44.074,30.63 -43.722,30.706C-43.37,30.782 -43.042,30.898 -42.738,31.054C-42.434,31.21 -42.18,31.416 -41.976,31.672C-41.772,31.928 -41.67,32.248 -41.67,32.632C-41.67,32.936 -41.732,33.226 -41.856,33.502C-41.98,33.778 -42.146,34.034 -42.354,34.27C-42.562,34.506 -42.8,34.722 -43.068,34.918C-43.336,35.114 -43.616,35.28 -43.908,35.416C-44.2,35.552 -44.496,35.658 -44.796,35.734C-45.096,35.81 -45.374,35.848 -45.63,35.848C-45.782,35.848 -45.972,35.834 -46.2,35.806C-46.428,35.778 -46.662,35.74 -46.902,35.692C-47.142,35.644 -47.376,35.59 -47.604,35.53C-47.832,35.47 -48.022,35.408 -48.174,35.344ZM-47.142,32.896C-47.134,33.312 -47.122,33.612 -47.106,33.796C-47.09,33.98 -47.074,34.12 -47.058,34.216C-47.034,34.352 -46.976,34.486 -46.884,34.618C-46.792,34.75 -46.672,34.872 -46.524,34.984C-46.376,35.096 -46.204,35.186 -46.008,35.254C-45.812,35.322 -45.594,35.356 -45.354,35.356C-45.098,35.356 -44.858,35.312 -44.634,35.224C-44.41,35.136 -44.216,34.998 -44.052,34.81C-43.888,34.622 -43.758,34.38 -43.662,34.084C-43.566,33.788 -43.518,33.432 -43.518,33.016C-43.518,32.64 -43.578,32.32 -43.698,32.056C-43.818,31.792 -43.988,31.578 -44.208,31.414C-44.428,31.25 -44.694,31.132 -45.006,31.06C-45.318,30.988 -45.666,30.952 -46.05,30.952C-46.274,30.952 -46.486,30.954 -46.686,30.958C-46.886,30.962 -47.034,30.968 -47.13,30.976C-47.138,31.064 -47.142,31.156 -47.142,31.252L-47.142,32.896ZM-46.974,27.688C-46.99,27.792 -47.006,27.936 -47.022,28.12C-47.038,28.304 -47.054,28.518 -47.07,28.762C-47.086,29.006 -47.1,29.27 -47.112,29.554C-47.124,29.838 -47.134,30.132 -47.142,30.436C-47.134,30.46 -47.09,30.478 -47.01,30.49C-46.93,30.502 -46.836,30.512 -46.728,30.52C-46.62,30.528 -46.506,30.534 -46.386,30.538C-46.266,30.542 -46.158,30.544 -46.062,30.544C-45.91,30.544 -45.778,30.538 -45.666,30.526C-45.554,30.514 -45.456,30.494 -45.372,30.466C-45.288,30.438 -45.21,30.404 -45.138,30.364C-45.066,30.324 -44.994,30.272 -44.922,30.208C-44.786,30.104 -44.66,29.936 -44.544,29.704C-44.428,29.472 -44.37,29.152 -44.37,28.744C-44.37,28.456 -44.41,28.202 -44.49,27.982C-44.57,27.762 -44.674,27.578 -44.802,27.43C-44.93,27.282 -45.076,27.172 -45.24,27.1C-45.404,27.028 -45.574,26.992 -45.75,26.992C-45.838,26.992 -45.946,27.004 -46.074,27.028C-46.202,27.052 -46.326,27.09 -46.446,27.142C-46.566,27.194 -46.676,27.266 -46.776,27.358C-46.876,27.45 -46.942,27.56 -46.974,27.688Z" style="fill-rule:nonzero;"/>
            <path d="M-37.122,33.724C-37.146,33.588 -37.17,33.44 -37.194,33.28C-37.218,33.12 -37.242,32.968 -37.266,32.824C-37.29,32.68 -37.312,32.556 -37.332,32.452C-37.352,32.348 -37.366,32.28 -37.374,32.248C-37.502,32.296 -37.646,32.352 -37.806,32.416C-37.966,32.48 -38.126,32.55 -38.286,32.626C-38.446,32.702 -38.598,32.778 -38.742,32.854C-38.886,32.93 -39.006,33 -39.102,33.064C-39.286,33.184 -39.426,33.304 -39.522,33.424C-39.618,33.544 -39.666,33.688 -39.666,33.856C-39.666,34.088 -39.598,34.292 -39.462,34.468C-39.326,34.644 -39.114,34.732 -38.826,34.732C-38.674,34.732 -38.516,34.704 -38.352,34.648C-38.188,34.592 -38.036,34.528 -37.896,34.456C-37.756,34.384 -37.634,34.312 -37.53,34.24C-37.426,34.168 -37.354,34.112 -37.314,34.072C-37.25,34.008 -37.2,33.954 -37.164,33.91C-37.128,33.866 -37.114,33.804 -37.122,33.724ZM-37.47,31.864C-37.518,31.616 -37.574,31.394 -37.638,31.198C-37.702,31.002 -37.782,30.838 -37.878,30.706C-37.974,30.574 -38.09,30.474 -38.226,30.406C-38.362,30.338 -38.53,30.304 -38.73,30.304C-38.906,30.304 -39.068,30.336 -39.216,30.4C-39.364,30.464 -39.492,30.54 -39.6,30.628C-39.708,30.716 -39.792,30.804 -39.852,30.892C-39.912,30.98 -39.946,31.048 -39.954,31.096C-39.962,31.16 -39.998,31.192 -40.062,31.192C-40.174,31.192 -40.278,31.152 -40.374,31.072C-40.47,30.992 -40.518,30.896 -40.518,30.784C-40.518,30.72 -40.51,30.672 -40.494,30.64C-40.31,30.536 -40.086,30.424 -39.822,30.304C-39.558,30.184 -39.284,30.072 -39,29.968C-38.716,29.864 -38.434,29.778 -38.154,29.71C-37.874,29.642 -37.622,29.608 -37.398,29.608C-37.062,29.608 -36.804,29.656 -36.624,29.752C-36.444,29.848 -36.31,29.984 -36.222,30.16C-36.134,30.336 -36.08,30.542 -36.06,30.778C-36.04,31.014 -36.022,31.268 -36.006,31.54C-35.982,31.948 -35.95,32.342 -35.91,32.722C-35.87,33.102 -35.81,33.438 -35.73,33.73C-35.65,34.022 -35.548,34.258 -35.424,34.438C-35.3,34.618 -35.146,34.708 -34.962,34.708C-34.874,34.708 -34.778,34.692 -34.674,34.66C-34.57,34.628 -34.47,34.59 -34.374,34.546C-34.278,34.502 -34.192,34.458 -34.116,34.414C-34.04,34.37 -33.99,34.34 -33.966,34.324C-33.894,34.324 -33.85,34.36 -33.834,34.432C-33.834,34.472 -33.842,34.508 -33.858,34.54C-33.874,34.556 -33.934,34.596 -34.038,34.66C-34.142,34.724 -34.27,34.8 -34.422,34.888C-34.574,34.976 -34.742,35.07 -34.926,35.17C-35.11,35.27 -35.292,35.364 -35.472,35.452C-35.652,35.54 -35.818,35.612 -35.97,35.668C-36.122,35.724 -36.242,35.752 -36.33,35.752C-36.434,35.752 -36.524,35.71 -36.6,35.626C-36.676,35.542 -36.742,35.43 -36.798,35.29C-36.854,35.15 -36.902,34.988 -36.942,34.804C-36.982,34.62 -37.018,34.428 -37.05,34.228C-37.194,34.348 -37.378,34.49 -37.602,34.654C-37.826,34.818 -38.07,34.972 -38.334,35.116C-38.598,35.26 -38.868,35.382 -39.144,35.482C-39.42,35.582 -39.686,35.632 -39.942,35.632C-40.158,35.632 -40.346,35.598 -40.506,35.53C-40.666,35.462 -40.8,35.372 -40.908,35.26C-41.016,35.148 -41.096,35.018 -41.148,34.87C-41.2,34.722 -41.226,34.568 -41.226,34.408C-41.226,34.152 -41.148,33.942 -40.992,33.778C-40.836,33.614 -40.594,33.444 -40.266,33.268C-40.114,33.188 -39.902,33.082 -39.63,32.95C-39.358,32.818 -39.08,32.684 -38.796,32.548C-38.512,32.412 -38.248,32.282 -38.004,32.158C-37.76,32.034 -37.582,31.936 -37.47,31.864Z" style="fill-rule:nonzero;"/>
            <path d="M-28.902,30.496C-28.99,30.568 -29.094,30.658 -29.214,30.766C-29.334,30.874 -29.46,30.978 -29.592,31.078C-29.724,31.178 -29.858,31.264 -29.994,31.336C-30.13,31.408 -30.262,31.444 -30.39,31.444C-30.502,31.444 -30.602,31.418 -30.69,31.366C-30.778,31.314 -30.86,31.258 -30.936,31.198C-31.012,31.138 -31.086,31.082 -31.158,31.03C-31.23,30.978 -31.306,30.952 -31.386,30.952C-31.602,30.952 -31.784,31.04 -31.932,31.216C-32.08,31.392 -32.2,31.616 -32.292,31.888C-32.384,32.16 -32.452,32.456 -32.496,32.776C-32.54,33.096 -32.562,33.404 -32.562,33.7C-32.562,33.948 -32.552,34.15 -32.532,34.306C-32.512,34.462 -32.482,34.586 -32.442,34.678C-32.402,34.77 -32.348,34.832 -32.28,34.864C-32.212,34.896 -32.13,34.912 -32.034,34.912C-31.93,34.912 -31.818,34.896 -31.698,34.864C-31.674,34.856 -31.656,34.872 -31.644,34.912C-31.632,34.952 -31.626,34.984 -31.626,35.008C-31.626,35.024 -31.638,35.042 -31.662,35.062C-31.686,35.082 -31.702,35.092 -31.71,35.092C-31.886,35.164 -32.066,35.242 -32.25,35.326C-32.434,35.41 -32.586,35.48 -32.706,35.536C-32.818,35.584 -32.952,35.636 -33.108,35.692C-33.264,35.748 -33.398,35.776 -33.51,35.776C-33.638,35.776 -33.744,35.756 -33.828,35.716C-33.912,35.676 -33.954,35.636 -33.954,35.596C-33.954,35.556 -33.944,35.52 -33.924,35.488C-33.904,35.456 -33.886,35.396 -33.87,35.308C-33.854,35.188 -33.836,35.046 -33.816,34.882C-33.796,34.718 -33.776,34.54 -33.756,34.348C-33.736,34.156 -33.72,33.958 -33.708,33.754C-33.696,33.55 -33.69,33.348 -33.69,33.148C-33.69,32.7 -33.704,32.32 -33.732,32.008C-33.76,31.696 -33.81,31.444 -33.882,31.252C-33.954,31.06 -34.052,30.922 -34.176,30.838C-34.3,30.754 -34.458,30.712 -34.65,30.712L-34.758,30.712C-34.79,30.712 -34.822,30.716 -34.854,30.724C-34.902,30.724 -34.926,30.7 -34.926,30.652C-34.926,30.604 -34.902,30.568 -34.854,30.544C-34.766,30.488 -34.63,30.406 -34.446,30.298C-34.262,30.19 -34.072,30.086 -33.876,29.986C-33.68,29.886 -33.49,29.796 -33.306,29.716C-33.122,29.636 -32.986,29.596 -32.898,29.596C-32.794,29.596 -32.706,29.63 -32.634,29.698C-32.562,29.766 -32.508,29.852 -32.472,29.956C-32.436,30.06 -32.41,30.178 -32.394,30.31C-32.378,30.442 -32.37,30.572 -32.37,30.7C-32.37,30.796 -32.372,30.896 -32.376,31C-32.38,31.104 -32.382,31.216 -32.382,31.336C-32.022,30.808 -31.698,30.398 -31.41,30.106C-31.122,29.814 -30.85,29.668 -30.594,29.668C-30.498,29.668 -30.404,29.708 -30.312,29.788C-30.22,29.868 -30.122,29.958 -30.018,30.058C-29.914,30.158 -29.806,30.248 -29.694,30.328C-29.582,30.408 -29.466,30.448 -29.346,30.448C-29.242,30.448 -29.166,30.436 -29.118,30.412C-29.07,30.388 -29.03,30.368 -28.998,30.352C-28.934,30.352 -28.902,30.396 -28.902,30.484L-28.902,30.496Z" style="fill-rule:nonzero;"/>
            <path d="M-20.49,35.656C-20.57,35.656 -20.678,35.66 -20.814,35.668C-20.95,35.676 -21.096,35.682 -21.252,35.686C-21.408,35.69 -21.568,35.696 -21.732,35.704C-21.896,35.712 -22.046,35.716 -22.182,35.716C-22.718,35.716 -23.242,35.634 -23.754,35.47C-24.266,35.306 -24.72,35.05 -25.116,34.702C-25.512,34.354 -25.832,33.906 -26.076,33.358C-26.32,32.81 -26.442,32.152 -26.442,31.384C-26.442,30.68 -26.308,30.056 -26.04,29.512C-25.772,28.968 -25.418,28.512 -24.978,28.144C-24.538,27.776 -24.042,27.496 -23.49,27.304C-22.938,27.112 -22.374,27.016 -21.798,27.016C-21.67,27.016 -21.496,27.024 -21.276,27.04C-21.056,27.056 -20.836,27.076 -20.616,27.1C-20.396,27.124 -20.2,27.15 -20.028,27.178C-19.856,27.206 -19.746,27.232 -19.698,27.256C-19.594,26.976 -19.478,26.728 -19.35,26.512C-19.222,26.296 -19.046,26.132 -18.822,26.02C-18.758,25.996 -18.686,25.992 -18.606,26.008C-18.526,26.024 -18.486,26.064 -18.486,26.128C-18.526,26.2 -18.556,26.244 -18.576,26.26C-18.596,26.276 -18.622,26.284 -18.654,26.284C-18.75,26.284 -18.844,26.328 -18.936,26.416C-19.028,26.504 -19.114,26.618 -19.194,26.758C-19.274,26.898 -19.344,27.058 -19.404,27.238C-19.464,27.418 -19.51,27.6 -19.542,27.784C-19.558,27.872 -19.576,27.974 -19.596,28.09C-19.616,28.206 -19.634,28.32 -19.65,28.432C-19.666,28.544 -19.678,28.652 -19.686,28.756C-19.694,28.86 -19.698,28.948 -19.698,29.02C-19.698,29.06 -19.714,29.094 -19.746,29.122C-19.778,29.15 -19.81,29.164 -19.842,29.164C-19.89,29.164 -19.946,29.14 -20.01,29.092C-20.042,28.892 -20.108,28.692 -20.208,28.492C-20.308,28.292 -20.448,28.112 -20.628,27.952C-20.808,27.792 -21.032,27.664 -21.3,27.568C-21.568,27.472 -21.886,27.424 -22.254,27.424C-22.646,27.424 -22.996,27.516 -23.304,27.7C-23.612,27.884 -23.872,28.136 -24.084,28.456C-24.296,28.776 -24.458,29.156 -24.57,29.596C-24.682,30.036 -24.738,30.508 -24.738,31.012C-24.738,31.708 -24.668,32.326 -24.528,32.866C-24.388,33.406 -24.194,33.864 -23.946,34.24C-23.698,34.616 -23.402,34.902 -23.058,35.098C-22.714,35.294 -22.338,35.392 -21.93,35.392C-21.658,35.392 -21.392,35.348 -21.132,35.26C-20.872,35.172 -20.632,35.052 -20.412,34.9C-20.192,34.748 -19.996,34.572 -19.824,34.372C-19.652,34.172 -19.518,33.96 -19.422,33.736C-19.406,33.704 -19.364,33.68 -19.296,33.664C-19.228,33.648 -19.194,33.656 -19.194,33.688C-19.194,33.792 -19.228,33.934 -19.296,34.114C-19.364,34.294 -19.442,34.474 -19.53,34.654C-19.618,34.834 -19.706,34.998 -19.794,35.146C-19.882,35.294 -19.942,35.392 -19.974,35.44C-19.998,35.496 -20.028,35.57 -20.064,35.662C-20.1,35.754 -20.132,35.858 -20.16,35.974C-20.188,36.09 -20.214,36.21 -20.238,36.334C-20.262,36.458 -20.274,36.58 -20.274,36.7C-20.274,36.828 -20.29,36.908 -20.322,36.94C-20.354,36.972 -20.422,36.988 -20.526,36.988C-20.614,36.988 -20.654,36.926 -20.646,36.802C-20.638,36.678 -20.618,36.536 -20.586,36.376C-20.554,36.216 -20.522,36.066 -20.49,35.926C-20.458,35.786 -20.458,35.696 -20.49,35.656Z" style="fill-rule:nonzero;"/>
            <path d="M-13.866,34.636C-13.954,34.708 -14.074,34.804 -14.226,34.924C-14.378,35.044 -14.554,35.164 -14.754,35.284C-14.954,35.404 -15.174,35.506 -15.414,35.59C-15.654,35.674 -15.906,35.716 -16.17,35.716C-16.57,35.716 -16.926,35.646 -17.238,35.506C-17.55,35.366 -17.812,35.178 -18.024,34.942C-18.236,34.706 -18.396,34.428 -18.504,34.108C-18.612,33.788 -18.666,33.448 -18.666,33.088C-18.666,32.664 -18.602,32.288 -18.474,31.96C-18.346,31.632 -18.188,31.346 -18,31.102C-17.812,30.858 -17.61,30.654 -17.394,30.49C-17.178,30.326 -16.982,30.196 -16.806,30.1C-16.726,30.052 -16.624,30 -16.5,29.944C-16.376,29.888 -16.24,29.836 -16.092,29.788C-15.944,29.74 -15.784,29.698 -15.612,29.662C-15.44,29.626 -15.262,29.608 -15.078,29.608C-14.734,29.608 -14.4,29.652 -14.076,29.74C-13.752,29.828 -13.466,29.966 -13.218,30.154C-12.97,30.342 -12.77,30.584 -12.618,30.88C-12.466,31.176 -12.39,31.532 -12.39,31.948C-12.39,32.284 -12.452,32.6 -12.576,32.896C-12.7,33.192 -12.846,33.456 -13.014,33.688C-13.182,33.92 -13.348,34.118 -13.512,34.282C-13.676,34.446 -13.794,34.564 -13.866,34.636ZM-15.222,34.828C-14.766,34.828 -14.416,34.656 -14.172,34.312C-13.928,33.968 -13.806,33.44 -13.806,32.728C-13.806,32.368 -13.856,32.034 -13.956,31.726C-14.056,31.418 -14.196,31.148 -14.376,30.916C-14.556,30.684 -14.766,30.502 -15.006,30.37C-15.246,30.238 -15.506,30.172 -15.786,30.172C-15.986,30.172 -16.176,30.224 -16.356,30.328C-16.536,30.432 -16.694,30.582 -16.83,30.778C-16.966,30.974 -17.074,31.212 -17.154,31.492C-17.234,31.772 -17.274,32.088 -17.274,32.44C-17.274,32.816 -17.216,33.152 -17.1,33.448C-16.984,33.744 -16.83,33.994 -16.638,34.198C-16.446,34.402 -16.228,34.558 -15.984,34.666C-15.74,34.774 -15.486,34.828 -15.222,34.828Z" style="fill-rule:nonzero;"/>
            <path d="M-11.886,30.64C-11.95,30.624 -11.98,30.592 -11.976,30.544C-11.972,30.496 -11.942,30.468 -11.886,30.46C-11.862,30.452 -11.786,30.424 -11.658,30.376C-11.53,30.328 -11.376,30.272 -11.196,30.208C-11.016,30.144 -10.828,30.076 -10.632,30.004C-10.436,29.932 -10.262,29.872 -10.11,29.824C-10.014,29.792 -9.948,29.77 -9.912,29.758C-9.876,29.746 -9.846,29.74 -9.822,29.74C-9.798,29.74 -9.77,29.75 -9.738,29.77C-9.706,29.79 -9.698,29.82 -9.714,29.86C-9.738,29.924 -9.764,30.076 -9.792,30.316C-9.82,30.556 -9.846,30.822 -9.87,31.114C-9.894,31.406 -9.916,31.696 -9.936,31.984C-9.956,32.272 -9.966,32.5 -9.966,32.668C-9.966,33.308 -9.83,33.802 -9.558,34.15C-9.286,34.498 -8.862,34.672 -8.286,34.672C-7.99,34.672 -7.744,34.612 -7.548,34.492C-7.352,34.372 -7.202,34.232 -7.098,34.072C-7.026,33.968 -6.978,33.74 -6.954,33.388C-6.954,33.324 -6.952,33.24 -6.948,33.136C-6.944,33.032 -6.94,32.922 -6.936,32.806C-6.932,32.69 -6.928,32.578 -6.924,32.47C-6.92,32.362 -6.918,32.272 -6.918,32.2C-6.91,31.832 -6.92,31.49 -6.948,31.174C-6.976,30.858 -7.018,30.624 -7.074,30.472C-7.098,30.376 -7.146,30.328 -7.218,30.328C-7.266,30.328 -7.312,30.33 -7.356,30.334C-7.4,30.338 -7.426,30.304 -7.434,30.232C-7.434,30.208 -7.41,30.182 -7.362,30.154C-7.314,30.126 -7.222,30.084 -7.086,30.028C-6.958,29.98 -6.816,29.932 -6.66,29.884C-6.504,29.836 -6.35,29.796 -6.198,29.764C-6.046,29.732 -5.91,29.71 -5.79,29.698C-5.67,29.686 -5.582,29.692 -5.526,29.716C-5.526,29.724 -5.52,29.734 -5.508,29.746C-5.496,29.758 -5.486,29.784 -5.478,29.824C-5.462,29.872 -5.472,30.022 -5.508,30.274C-5.544,30.526 -5.582,30.936 -5.622,31.504C-5.654,31.896 -5.682,32.276 -5.706,32.644C-5.73,33.012 -5.742,33.292 -5.742,33.484C-5.742,33.86 -5.672,34.158 -5.532,34.378C-5.392,34.598 -5.218,34.708 -5.01,34.708C-4.874,34.708 -4.744,34.68 -4.62,34.624C-4.496,34.568 -4.406,34.52 -4.35,34.48C-4.286,34.48 -4.252,34.508 -4.248,34.564C-4.244,34.62 -4.258,34.656 -4.29,34.672C-4.41,34.752 -4.576,34.852 -4.788,34.972C-5,35.092 -5.22,35.206 -5.448,35.314C-5.676,35.422 -5.894,35.514 -6.102,35.59C-6.31,35.666 -6.478,35.704 -6.606,35.704C-6.67,35.704 -6.728,35.662 -6.78,35.578C-6.832,35.494 -6.874,35.392 -6.906,35.272C-6.938,35.152 -6.962,35.028 -6.978,34.9C-6.994,34.772 -7.002,34.66 -7.002,34.564C-7.17,34.684 -7.362,34.81 -7.578,34.942C-7.794,35.074 -8.018,35.198 -8.25,35.314C-8.482,35.43 -8.712,35.524 -8.94,35.596C-9.168,35.668 -9.378,35.704 -9.57,35.704C-10.058,35.704 -10.458,35.574 -10.77,35.314C-11.082,35.054 -11.238,34.716 -11.238,34.3C-11.238,34.212 -11.23,34.08 -11.214,33.904C-11.198,33.728 -11.178,33.528 -11.154,33.304C-11.13,33.08 -11.11,32.84 -11.094,32.584C-11.078,32.328 -11.07,32.08 -11.07,31.84C-11.07,31.472 -11.128,31.19 -11.244,30.994C-11.36,30.798 -11.51,30.688 -11.694,30.664L-11.886,30.64Z" style="fill-rule:nonzero;"/>
            <path d="M-2.382,32.428C-2.39,32.5 -2.398,32.564 -2.406,32.62C-2.414,32.676 -2.42,32.74 -2.424,32.812C-2.428,32.884 -2.432,32.974 -2.436,33.082C-2.44,33.19 -2.442,33.332 -2.442,33.508C-2.442,33.796 -2.432,34.032 -2.412,34.216C-2.392,34.4 -2.362,34.546 -2.322,34.654C-2.282,34.762 -2.232,34.836 -2.172,34.876C-2.112,34.916 -2.038,34.936 -1.95,34.936C-1.894,34.936 -1.834,34.928 -1.77,34.912C-1.754,34.912 -1.74,34.934 -1.728,34.978C-1.716,35.022 -1.718,35.052 -1.734,35.068C-1.782,35.108 -1.876,35.166 -2.016,35.242C-2.156,35.318 -2.314,35.392 -2.49,35.464C-2.666,35.536 -2.848,35.6 -3.036,35.656C-3.224,35.712 -3.382,35.74 -3.51,35.74C-3.622,35.74 -3.71,35.726 -3.774,35.698C-3.838,35.67 -3.87,35.636 -3.87,35.596C-3.87,35.556 -3.866,35.532 -3.858,35.524C-3.85,35.516 -3.838,35.496 -3.822,35.464C-3.806,35.424 -3.794,35.374 -3.786,35.314C-3.778,35.254 -3.766,35.184 -3.75,35.104C-3.734,34.992 -3.718,34.85 -3.702,34.678C-3.686,34.506 -3.67,34.318 -3.654,34.114C-3.638,33.91 -3.624,33.698 -3.612,33.478C-3.6,33.258 -3.594,33.044 -3.594,32.836C-3.594,32.748 -3.596,32.638 -3.6,32.506C-3.604,32.374 -3.61,32.204 -3.618,31.996C-3.626,31.764 -3.652,31.566 -3.696,31.402C-3.74,31.238 -3.796,31.106 -3.864,31.006C-3.932,30.906 -4.008,30.832 -4.092,30.784C-4.176,30.736 -4.258,30.712 -4.338,30.712L-4.458,30.712C-4.498,30.712 -4.538,30.716 -4.578,30.724C-4.61,30.724 -4.626,30.688 -4.626,30.616C-4.626,30.6 -4.62,30.586 -4.608,30.574C-4.596,30.562 -4.558,30.536 -4.494,30.496C-4.39,30.424 -4.25,30.336 -4.074,30.232C-3.898,30.128 -3.718,30.032 -3.534,29.944C-3.35,29.856 -3.176,29.78 -3.012,29.716C-2.848,29.652 -2.722,29.62 -2.634,29.62C-2.402,29.62 -2.286,29.752 -2.286,30.016C-2.286,30.056 -2.29,30.128 -2.298,30.232C-2.306,30.336 -2.312,30.442 -2.316,30.55C-2.32,30.658 -2.326,30.76 -2.334,30.856C-2.342,30.952 -2.346,31.016 -2.346,31.048C-2.178,30.888 -1.998,30.724 -1.806,30.556C-1.614,30.388 -1.406,30.234 -1.182,30.094C-0.958,29.954 -0.722,29.84 -0.474,29.752C-0.226,29.664 0.03,29.62 0.294,29.62C0.774,29.62 1.168,29.758 1.476,30.034C1.784,30.31 1.938,30.748 1.938,31.348C1.938,31.508 1.928,31.696 1.908,31.912C1.888,32.128 1.866,32.352 1.842,32.584C1.818,32.816 1.796,33.044 1.776,33.268C1.756,33.492 1.746,33.692 1.746,33.868C1.746,34.508 1.954,34.828 2.37,34.828C2.45,34.828 2.54,34.814 2.64,34.786C2.74,34.758 2.836,34.726 2.928,34.69C3.02,34.654 3.102,34.618 3.174,34.582C3.246,34.546 3.294,34.516 3.318,34.492C3.326,34.484 3.336,34.49 3.348,34.51C3.36,34.53 3.37,34.556 3.378,34.588C3.386,34.62 3.388,34.648 3.384,34.672C3.38,34.696 3.374,34.712 3.366,34.72C3.302,34.76 3.164,34.836 2.952,34.948C2.74,35.06 2.504,35.174 2.244,35.29C1.984,35.406 1.726,35.51 1.47,35.602C1.214,35.694 1.01,35.74 0.858,35.74C0.674,35.74 0.548,35.696 0.48,35.608C0.412,35.52 0.378,35.428 0.378,35.332C0.378,35.268 0.388,35.188 0.408,35.092C0.428,34.996 0.454,34.84 0.486,34.624C0.518,34.392 0.548,34.12 0.576,33.808C0.604,33.496 0.618,33.16 0.618,32.8C0.618,32.096 0.488,31.562 0.228,31.198C-0.032,30.834 -0.358,30.652 -0.75,30.652C-0.998,30.652 -1.218,30.7 -1.41,30.796C-1.602,30.892 -1.766,31.022 -1.902,31.186C-2.038,31.35 -2.146,31.538 -2.226,31.75C-2.306,31.962 -2.358,32.188 -2.382,32.428Z" style="fill-rule:nonzero;"/>
            <path d="M8.826,33.928C8.842,33.912 8.856,33.914 8.868,33.934C8.88,33.954 8.888,33.982 8.892,34.018C8.896,34.054 8.894,34.092 8.886,34.132C8.878,34.172 8.862,34.204 8.838,34.228C8.678,34.38 8.478,34.54 8.238,34.708C7.998,34.876 7.75,35.032 7.494,35.176C7.422,35.216 7.322,35.268 7.194,35.332C7.066,35.396 6.924,35.458 6.768,35.518C6.612,35.578 6.452,35.63 6.288,35.674C6.124,35.718 5.97,35.74 5.826,35.74C5.538,35.74 5.266,35.684 5.01,35.572C4.754,35.46 4.53,35.306 4.338,35.11C4.146,34.914 3.996,34.68 3.888,34.408C3.78,34.136 3.726,33.84 3.726,33.52C3.726,33.176 3.774,32.852 3.87,32.548C3.966,32.244 4.076,31.972 4.2,31.732C4.324,31.492 4.442,31.29 4.554,31.126C4.666,30.962 4.742,30.84 4.782,30.76C4.63,30.752 4.492,30.746 4.368,30.742C4.244,30.738 4.126,30.736 4.014,30.736C3.758,30.736 3.542,30.738 3.366,30.742C3.19,30.746 3.034,30.764 2.898,30.796C2.834,30.812 2.774,30.844 2.718,30.892C2.662,30.94 2.614,30.976 2.574,31C2.558,30.984 2.536,30.962 2.508,30.934C2.48,30.906 2.466,30.876 2.466,30.844C2.466,30.828 2.47,30.816 2.478,30.808C2.478,30.8 2.53,30.754 2.634,30.67C2.738,30.586 2.868,30.486 3.024,30.37C3.18,30.254 3.352,30.126 3.54,29.986C3.728,29.846 3.908,29.716 4.08,29.596C4.252,29.476 4.4,29.374 4.524,29.29C4.648,29.206 4.73,29.156 4.77,29.14C4.818,29.124 4.866,29.132 4.914,29.164C4.962,29.196 4.978,29.22 4.962,29.236C4.938,29.252 4.902,29.282 4.854,29.326C4.806,29.37 4.79,29.408 4.806,29.44C4.894,29.512 5.046,29.576 5.262,29.632C5.478,29.688 5.722,29.734 5.994,29.77C6.266,29.806 6.546,29.834 6.834,29.854C7.122,29.874 7.382,29.884 7.614,29.884C7.958,29.884 8.234,29.874 8.442,29.854C8.65,29.834 8.822,29.808 8.958,29.776C9.086,29.744 9.17,29.72 9.21,29.704C9.218,29.704 9.234,29.716 9.258,29.74C9.282,29.764 9.294,29.792 9.294,29.824C9.294,29.84 9.236,29.88 9.12,29.944C9.004,30.008 8.886,30.076 8.766,30.148C8.694,30.188 8.608,30.24 8.508,30.304C8.408,30.368 8.3,30.43 8.184,30.49C8.068,30.55 7.946,30.604 7.818,30.652C7.69,30.7 7.566,30.728 7.446,30.736C7.326,30.752 7.186,30.764 7.026,30.772C6.866,30.78 6.698,30.786 6.522,30.79C6.346,30.794 6.168,30.798 5.988,30.802C5.808,30.806 5.642,30.808 5.49,30.808C5.466,30.848 5.428,30.914 5.376,31.006C5.324,31.098 5.274,31.216 5.226,31.36C5.178,31.504 5.134,31.668 5.094,31.852C5.054,32.036 5.034,32.236 5.034,32.452C5.034,32.78 5.084,33.082 5.184,33.358C5.284,33.634 5.424,33.872 5.604,34.072C5.784,34.272 5.998,34.428 6.246,34.54C6.494,34.652 6.762,34.708 7.05,34.708C7.218,34.708 7.38,34.688 7.536,34.648C7.692,34.608 7.84,34.556 7.98,34.492C8.12,34.428 8.25,34.358 8.37,34.282C8.49,34.206 8.594,34.132 8.682,34.06L8.826,33.928Z" style="fill-rule:nonzero;"/>
            <path d="M14.358,34.192C14.27,34.288 14.134,34.42 13.95,34.588C13.766,34.756 13.544,34.924 13.284,35.092C13.024,35.26 12.734,35.404 12.414,35.524C12.094,35.644 11.754,35.704 11.394,35.704C11.066,35.704 10.746,35.654 10.434,35.554C10.122,35.454 9.842,35.302 9.594,35.098C9.346,34.894 9.148,34.634 9,34.318C8.852,34.002 8.778,33.624 8.778,33.184C8.778,32.824 8.802,32.514 8.85,32.254C8.898,31.994 8.962,31.766 9.042,31.57C9.122,31.374 9.212,31.206 9.312,31.066C9.412,30.926 9.514,30.8 9.618,30.688C9.746,30.544 9.902,30.408 10.086,30.28C10.27,30.152 10.468,30.036 10.68,29.932C10.892,29.828 11.116,29.746 11.352,29.686C11.588,29.626 11.826,29.596 12.066,29.596C12.498,29.596 12.836,29.668 13.08,29.812C13.324,29.956 13.446,30.156 13.446,30.412C13.446,30.572 13.398,30.72 13.302,30.856C13.382,30.832 13.484,30.792 13.608,30.736C13.732,30.68 13.858,30.622 13.986,30.562C14.114,30.502 14.228,30.448 14.328,30.4C14.428,30.352 14.494,30.316 14.526,30.292C14.542,30.276 14.56,30.27 14.58,30.274C14.6,30.278 14.61,30.292 14.61,30.316C14.61,30.42 14.59,30.506 14.55,30.574C14.51,30.642 14.462,30.696 14.406,30.736C14.278,30.816 14.094,30.916 13.854,31.036C13.614,31.156 13.348,31.282 13.056,31.414C12.764,31.546 12.462,31.678 12.15,31.81C11.838,31.942 11.544,32.068 11.268,32.188C10.992,32.308 10.752,32.414 10.548,32.506C10.344,32.598 10.206,32.664 10.134,32.704C10.134,32.976 10.188,33.23 10.296,33.466C10.404,33.702 10.554,33.908 10.746,34.084C10.938,34.26 11.168,34.398 11.436,34.498C11.704,34.598 11.998,34.648 12.318,34.648C12.606,34.648 12.866,34.618 13.098,34.558C13.33,34.498 13.526,34.43 13.686,34.354C13.846,34.278 13.972,34.21 14.064,34.15C14.156,34.09 14.206,34.06 14.214,34.06C14.246,34.06 14.278,34.074 14.31,34.102C14.342,34.13 14.358,34.16 14.358,34.192ZM10.134,32.356C10.27,32.308 10.424,32.25 10.596,32.182C10.768,32.114 10.936,32.04 11.1,31.96C11.264,31.88 11.414,31.804 11.55,31.732C11.686,31.66 11.79,31.596 11.862,31.54C12.006,31.436 12.078,31.26 12.078,31.012C12.078,30.916 12.06,30.816 12.024,30.712C11.988,30.608 11.934,30.514 11.862,30.43C11.79,30.346 11.702,30.278 11.598,30.226C11.494,30.174 11.378,30.148 11.25,30.148C11.138,30.148 11.018,30.186 10.89,30.262C10.762,30.338 10.642,30.462 10.53,30.634C10.418,30.806 10.324,31.034 10.248,31.318C10.172,31.602 10.134,31.948 10.134,32.356Z" style="fill-rule:nonzero;"/>
            <path d="M19.926,30.496C19.838,30.568 19.734,30.658 19.614,30.766C19.494,30.874 19.368,30.978 19.236,31.078C19.104,31.178 18.97,31.264 18.834,31.336C18.698,31.408 18.566,31.444 18.438,31.444C18.326,31.444 18.226,31.418 18.138,31.366C18.05,31.314 17.968,31.258 17.892,31.198C17.816,31.138 17.742,31.082 17.67,31.03C17.598,30.978 17.522,30.952 17.442,30.952C17.226,30.952 17.044,31.04 16.896,31.216C16.748,31.392 16.628,31.616 16.536,31.888C16.444,32.16 16.376,32.456 16.332,32.776C16.288,33.096 16.266,33.404 16.266,33.7C16.266,33.948 16.276,34.15 16.296,34.306C16.316,34.462 16.346,34.586 16.386,34.678C16.426,34.77 16.48,34.832 16.548,34.864C16.616,34.896 16.698,34.912 16.794,34.912C16.898,34.912 17.01,34.896 17.13,34.864C17.154,34.856 17.172,34.872 17.184,34.912C17.196,34.952 17.202,34.984 17.202,35.008C17.202,35.024 17.19,35.042 17.166,35.062C17.142,35.082 17.126,35.092 17.118,35.092C16.942,35.164 16.762,35.242 16.578,35.326C16.394,35.41 16.242,35.48 16.122,35.536C16.01,35.584 15.876,35.636 15.72,35.692C15.564,35.748 15.43,35.776 15.318,35.776C15.19,35.776 15.084,35.756 15,35.716C14.916,35.676 14.874,35.636 14.874,35.596C14.874,35.556 14.884,35.52 14.904,35.488C14.924,35.456 14.942,35.396 14.958,35.308C14.974,35.188 14.992,35.046 15.012,34.882C15.032,34.718 15.052,34.54 15.072,34.348C15.092,34.156 15.108,33.958 15.12,33.754C15.132,33.55 15.138,33.348 15.138,33.148C15.138,32.7 15.124,32.32 15.096,32.008C15.068,31.696 15.018,31.444 14.946,31.252C14.874,31.06 14.776,30.922 14.652,30.838C14.528,30.754 14.37,30.712 14.178,30.712L14.07,30.712C14.038,30.712 14.006,30.716 13.974,30.724C13.926,30.724 13.902,30.7 13.902,30.652C13.902,30.604 13.926,30.568 13.974,30.544C14.062,30.488 14.198,30.406 14.382,30.298C14.566,30.19 14.756,30.086 14.952,29.986C15.148,29.886 15.338,29.796 15.522,29.716C15.706,29.636 15.842,29.596 15.93,29.596C16.034,29.596 16.122,29.63 16.194,29.698C16.266,29.766 16.32,29.852 16.356,29.956C16.392,30.06 16.418,30.178 16.434,30.31C16.45,30.442 16.458,30.572 16.458,30.7C16.458,30.796 16.456,30.896 16.452,31C16.448,31.104 16.446,31.216 16.446,31.336C16.806,30.808 17.13,30.398 17.418,30.106C17.706,29.814 17.978,29.668 18.234,29.668C18.33,29.668 18.424,29.708 18.516,29.788C18.608,29.868 18.706,29.958 18.81,30.058C18.914,30.158 19.022,30.248 19.134,30.328C19.246,30.408 19.362,30.448 19.482,30.448C19.586,30.448 19.662,30.436 19.71,30.412C19.758,30.388 19.798,30.368 19.83,30.352C19.894,30.352 19.926,30.396 19.926,30.484L19.926,30.496Z" style="fill-rule:nonzero;"/>
        </g>
        <g transform="matrix(1,0,0,1,49.7332,24.9549)">
            <text x="-36.33px" y="23.596px" style="font-family:'Luminari-Regular', 'Luminari';font-size:12px;">Cl</text>
            <text x="-25.278px" y="23.596px" style="font-family:'Luminari-Regular', 'Luminari';font-size:12px;">o</text>
            <text x="-18.258px" y="23.596px" style="font-family:'Luminari-Regular', 'Luminari';font-size:12px;">ck &amp;</text>
            <text x="-50.25px" y="35.596px" style="font-family:'Luminari-Regular', 'Luminari';font-size:12px;">Bar Counter</text>
        </g>
        <g transform="matrix(0.0178906,0,0,0.0202937,25.4057,18.6064)">
            <g transform="matrix(55.8954,0,0,49.2765,-878.032,-330.791)">
                <path d="M27.733,13.757C27.957,11.616 28.949,10 30.136,10C31.489,10 32.587,12.095 32.587,14.677C32.587,15.669 32.424,16.59 32.148,17.347C32.432,17.974 32.587,18.65 32.587,19.353C32.587,22.678 29.128,25.378 24.868,25.378C20.609,25.378 17.15,22.678 17.15,19.353C17.15,18.65 17.305,17.974 17.589,17.347C17.313,16.59 17.15,15.669 17.15,14.677C17.15,12.095 18.248,10 19.601,10C20.788,10 21.779,11.616 22.003,13.757L22.04,13.746C22.915,13.476 23.87,13.328 24.868,13.328C25.881,13.328 26.847,13.48 27.733,13.757ZM17.609,17.304L17.606,17.31L17.609,17.304ZM32.128,17.305L32.131,17.31L32.128,17.305ZM17.627,17.265L17.623,17.273L17.627,17.265ZM32.11,17.266L32.113,17.273L32.11,17.266ZM17.645,17.227L17.641,17.236L17.645,17.227ZM32.092,17.228L32.096,17.236L32.092,17.228ZM17.663,17.19L17.659,17.2L17.663,17.19ZM32.074,17.191L32.078,17.199L32.074,17.191ZM17.682,17.153L17.677,17.162L17.682,17.153ZM32.055,17.154L32.059,17.161L32.055,17.154ZM17.7,17.117L17.696,17.125L17.7,17.117ZM32.037,17.117L32.04,17.123L32.037,17.117ZM17.719,17.081L17.717,17.085L17.719,17.081ZM32.018,17.081L32.019,17.082L32.018,17.081ZM17.782,16.964L17.778,16.971L17.782,16.964ZM31.957,16.968L31.958,16.97L31.957,16.968ZM17.804,16.925L17.798,16.935L17.804,16.925ZM31.935,16.928L31.938,16.934L31.935,16.928ZM17.825,16.888L17.818,16.9L17.825,16.888ZM31.914,16.891L31.918,16.899L31.914,16.891ZM17.845,16.852L17.838,16.865L17.845,16.852ZM31.893,16.854L31.898,16.863L31.893,16.854ZM17.866,16.817L17.859,16.829L17.866,16.817ZM31.871,16.819L31.876,16.827L31.871,16.819ZM17.888,16.782L17.88,16.794L17.888,16.782ZM31.85,16.783L31.855,16.791L31.85,16.783ZM17.909,16.747L17.902,16.758L17.909,16.747ZM31.829,16.748L31.832,16.754L31.829,16.748ZM17.931,16.712L17.925,16.72L17.931,16.712ZM31.807,16.713L31.808,16.714L31.807,16.713ZM17.979,16.635L17.975,16.642L17.979,16.635ZM18.005,16.596L17.998,16.608L18.005,16.596ZM31.735,16.602L31.738,16.606L31.735,16.602ZM18.029,16.561L18.02,16.573L18.029,16.561ZM31.711,16.564L31.716,16.572L31.711,16.564ZM18.052,16.526L18.043,16.539L18.052,16.526ZM31.686,16.529L31.692,16.537L31.686,16.529ZM18.076,16.492L18.066,16.505L18.076,16.492ZM31.663,16.494L31.669,16.503L31.663,16.494ZM18.1,16.458L18.09,16.471L18.1,16.458ZM31.639,16.459L31.645,16.469L31.639,16.459ZM18.124,16.424L18.114,16.437L18.124,16.424ZM31.614,16.425L31.62,16.434L31.614,16.425ZM18.148,16.39L18.139,16.403L18.148,16.39ZM31.59,16.392L31.595,16.398L31.59,16.392ZM18.172,16.357L18.164,16.367L18.172,16.357ZM31.566,16.358L31.567,16.36L31.566,16.358ZM18.197,16.324L18.196,16.324L18.197,16.324ZM18.23,16.28L18.222,16.291L18.23,16.28ZM31.513,16.288L31.514,16.289L31.513,16.288ZM18.257,16.245L18.247,16.258L18.257,16.245ZM31.484,16.249L31.489,16.256L31.484,16.249ZM18.283,16.211L18.272,16.225L18.283,16.211ZM31.456,16.214L31.463,16.223L31.456,16.214ZM18.309,16.178L18.298,16.192L18.309,16.178ZM31.43,16.18L31.438,16.19L31.43,16.18ZM18.335,16.145L18.324,16.16L18.335,16.145ZM31.403,16.147L31.411,16.158L31.403,16.147ZM18.362,16.113L18.35,16.127L18.362,16.113ZM31.376,16.114L31.385,16.125L31.376,16.114ZM18.388,16.081L18.377,16.094L18.388,16.081ZM31.35,16.082L31.357,16.091L31.35,16.082ZM18.415,16.049L18.404,16.061L18.415,16.049ZM31.323,16.05L31.329,16.057L31.323,16.05ZM18.442,16.017L18.433,16.027L18.442,16.017ZM31.295,16.018L31.298,16.021L31.295,16.018ZM18.473,15.981L18.469,15.985L18.473,15.981ZM18.507,15.942L18.497,15.954L18.507,15.942ZM31.234,15.947L31.239,15.953L31.234,15.947ZM18.536,15.909L18.525,15.922L18.536,15.909ZM31.203,15.912L31.211,15.921L31.203,15.912ZM18.565,15.877L18.553,15.891L18.565,15.877ZM31.174,15.879L31.183,15.89L31.174,15.879ZM18.594,15.846L18.581,15.86L18.594,15.846ZM31.145,15.847L31.155,15.859L31.145,15.847ZM18.622,15.815L18.61,15.828L18.622,15.815ZM31.115,15.816L31.126,15.827L31.115,15.816ZM18.651,15.784L18.639,15.797L18.651,15.784ZM31.086,15.785L31.097,15.796L31.086,15.785ZM18.68,15.753L18.668,15.766L18.68,15.753ZM31.057,15.754L31.067,15.765L31.057,15.754ZM18.71,15.723L18.698,15.735L18.71,15.723ZM31.027,15.723L31.037,15.733L31.027,15.723ZM18.739,15.692L18.73,15.702L18.739,15.692ZM30.998,15.693L31.003,15.698L30.998,15.693ZM18.775,15.656L18.769,15.662L18.775,15.656ZM30.965,15.659L30.967,15.662L30.965,15.659ZM18.81,15.621L18.799,15.632L18.81,15.621ZM30.928,15.622L30.937,15.632L30.928,15.622ZM18.842,15.59L18.83,15.602L18.842,15.59ZM30.895,15.591L30.907,15.602L30.895,15.591ZM18.873,15.56L18.86,15.572L18.873,15.56ZM30.864,15.56L30.876,15.572L30.864,15.56ZM18.904,15.53L18.891,15.543L18.904,15.53ZM30.832,15.53L30.846,15.543L30.832,15.53ZM30.801,15.5L30.814,15.513L30.801,15.5ZM18.936,15.501L18.923,15.513L18.936,15.501ZM30.769,15.471L30.783,15.484L30.769,15.471ZM18.967,15.471L18.954,15.483L18.967,15.471ZM30.738,15.442L30.751,15.454L30.738,15.442ZM18.999,15.442L18.986,15.454L18.999,15.442ZM30.706,15.413L30.719,15.425L30.706,15.413ZM19.031,15.413L19.019,15.424L19.031,15.413ZM30.674,15.384L30.684,15.394L30.674,15.384ZM19.063,15.385L19.056,15.391L19.063,15.385ZM30.63,15.346L30.642,15.356L30.63,15.346ZM19.101,15.35L19.095,15.356L19.101,15.35ZM30.595,15.315L30.61,15.328L30.595,15.315ZM19.139,15.318L19.128,15.327L19.139,15.318ZM30.561,15.286L30.577,15.3L30.561,15.286ZM19.173,15.288L19.161,15.299L19.173,15.288ZM30.528,15.258L30.544,15.272L30.528,15.258ZM19.207,15.26L19.194,15.271L19.207,15.26ZM30.494,15.23L30.511,15.244L30.494,15.23ZM19.241,15.231L19.227,15.243L19.241,15.231ZM30.461,15.202L30.478,15.216L30.461,15.202ZM19.274,15.204L19.261,15.215L19.274,15.204ZM30.427,15.175L30.444,15.189L30.427,15.175ZM19.308,15.176L19.295,15.187L19.308,15.176ZM30.393,15.147L30.41,15.161L30.393,15.147ZM19.342,15.149L19.33,15.158L19.342,15.149ZM30.359,15.12L30.376,15.134L30.359,15.12ZM19.377,15.121L19.366,15.129L19.377,15.121ZM30.325,15.093L30.343,15.107L30.326,15.094L30.305,15.078L30.325,15.093ZM19.411,15.094L19.409,15.096L19.411,15.094ZM30.273,15.053L30.292,15.068L30.273,15.053ZM19.452,15.062L19.446,15.067L19.452,15.062ZM30.238,15.027L30.257,15.041L30.238,15.027ZM19.492,15.032L19.481,15.04L19.492,15.032ZM30.203,15L30.222,15.015L30.203,15ZM19.529,15.004L19.516,15.013L19.529,15.004ZM30.168,14.974L30.187,14.989L30.168,14.974ZM19.565,14.977L19.552,14.987L19.565,14.977ZM30.132,14.948L30.152,14.963L30.132,14.948ZM19.601,14.951L19.588,14.961L19.601,14.951ZM30.097,14.922L30.117,14.937L30.097,14.922ZM19.637,14.925L19.624,14.934L19.637,14.925ZM30.061,14.897L30.081,14.911L30.061,14.897ZM19.673,14.899L19.661,14.908L19.673,14.899ZM30.025,14.871L30.046,14.886L30.025,14.871ZM19.71,14.873L19.698,14.881L19.71,14.873ZM29.988,14.846L30.011,14.862L29.988,14.846ZM19.746,14.848L19.738,14.853L19.746,14.848ZM29.954,14.822L29.915,14.796C29.928,14.805 29.941,14.813 29.954,14.822ZM19.826,14.793L19.821,14.796L19.826,14.793ZM29.858,14.758L29.881,14.773L29.858,14.758ZM19.868,14.765L19.858,14.771L19.868,14.765ZM29.822,14.734L29.845,14.749L29.822,14.734ZM19.907,14.739L19.896,14.747L19.907,14.739ZM29.785,14.71L29.807,14.724L29.785,14.71ZM19.946,14.714L19.933,14.722L19.946,14.714ZM29.747,14.686L29.77,14.7L29.747,14.686ZM19.984,14.689L19.971,14.697L19.984,14.689ZM29.71,14.662L29.733,14.676L29.71,14.662ZM20.023,14.665L20.01,14.673L20.023,14.665ZM29.672,14.638L29.696,14.653L29.672,14.638ZM20.061,14.641L20.049,14.648L20.061,14.641ZM29.634,14.615L29.659,14.63L29.634,14.615ZM20.099,14.617L20.09,14.623L20.099,14.617ZM29.494,14.531C29.537,14.556 29.58,14.582 29.623,14.608C29.581,14.582 29.538,14.556 29.494,14.531ZM20.138,14.593L20.134,14.596L20.138,14.593ZM20.221,14.543L20.218,14.545L20.221,14.543ZM29.458,14.51L29.483,14.525L29.458,14.51ZM20.266,14.517L20.257,14.522L20.266,14.517ZM29.42,14.488L29.444,14.502L29.42,14.488ZM20.308,14.493L20.297,14.499L20.308,14.493ZM29.381,14.466L29.405,14.48L29.381,14.466ZM20.349,14.47L20.337,14.477L20.349,14.47ZM29.341,14.444L29.366,14.457L29.341,14.444ZM20.389,14.447L20.377,14.454L20.389,14.447ZM29.302,14.422L29.327,14.436L29.302,14.422ZM20.43,14.425L20.418,14.431L20.43,14.425ZM29.262,14.4L29.288,14.414L29.262,14.4ZM20.47,14.403L20.46,14.408L20.47,14.403ZM29.222,14.379L29.249,14.393L29.222,14.379ZM20.51,14.381L20.503,14.385L20.51,14.381ZM29.186,14.359L29.143,14.337C29.157,14.344 29.171,14.352 29.186,14.359ZM29.077,14.303L29.105,14.317L29.077,14.303ZM20.638,14.314L20.636,14.315L20.638,14.314ZM29.038,14.283L29.064,14.296L29.038,14.283ZM20.685,14.29L20.677,14.294L20.685,14.29ZM28.998,14.263L29.023,14.276L28.998,14.263ZM20.729,14.268L20.719,14.273L20.729,14.268ZM28.957,14.243L28.982,14.255L28.957,14.243ZM20.772,14.247L20.761,14.252L20.772,14.247ZM28.916,14.223L28.941,14.235L28.916,14.223ZM20.814,14.226L20.803,14.232L20.814,14.226ZM28.875,14.203L28.899,14.215L28.875,14.203ZM20.857,14.206L20.846,14.211L20.857,14.206ZM28.833,14.184L28.858,14.195L28.833,14.184ZM20.899,14.186L20.891,14.19L20.899,14.186ZM28.791,14.164L28.817,14.176L28.791,14.164ZM20.942,14.166L20.937,14.168L20.942,14.166ZM28.752,14.146L28.707,14.126C28.722,14.133 28.737,14.139 28.752,14.146ZM28.643,14.097L28.667,14.108L28.643,14.097ZM21.075,14.106L21.074,14.106L21.075,14.106ZM28.601,14.079L28.624,14.089L28.601,14.079ZM21.124,14.084L21.117,14.087L21.124,14.084ZM28.558,14.061L28.581,14.071L28.558,14.061ZM21.17,14.065L21.161,14.068L21.17,14.065ZM28.516,14.043L28.538,14.052L28.516,14.043ZM21.215,14.046L21.204,14.05L21.215,14.046ZM28.473,14.025L28.494,14.034L28.473,14.025ZM21.259,14.027L21.249,14.031L21.259,14.027ZM28.429,14.007L28.451,14.016L28.429,14.007ZM21.303,14.009L21.294,14.013L21.303,14.009ZM28.386,13.989L28.406,13.998L28.386,13.989ZM21.347,13.991L21.341,13.994L21.347,13.991ZM28.342,13.972L28.361,13.979L28.342,13.972ZM21.392,13.973L21.391,13.974L21.392,13.973ZM28.298,13.955L28.311,13.96L28.298,13.955ZM28.243,13.934L28.254,13.938L28.243,13.934ZM28.195,13.915L28.21,13.921L28.195,13.915ZM21.531,13.92L21.53,13.92L21.531,13.92ZM28.149,13.898L28.165,13.904L28.149,13.898ZM21.581,13.901L21.575,13.903L21.581,13.901ZM28.103,13.882L28.119,13.888L28.103,13.882ZM21.629,13.884L21.62,13.887L21.629,13.884ZM28.058,13.866L28.074,13.871L28.058,13.866ZM21.675,13.867L21.666,13.87L21.675,13.867ZM28.013,13.85L28.028,13.855L28.013,13.85ZM21.721,13.851L21.713,13.854L21.721,13.851ZM27.968,13.834L27.981,13.839L27.968,13.834ZM21.767,13.835L21.76,13.837L21.767,13.835ZM27.922,13.819L27.932,13.822L27.922,13.819ZM21.813,13.819L21.809,13.821L21.813,13.819ZM27.877,13.803L27.879,13.804L27.877,13.803Z" style="fill:none;stroke:black;stroke-width:1.22px;"/>
            </g>
            <g transform="matrix(55.8954,0,0,49.2765,-878.032,-330.791)">
                <path d="M25.128,19.358C24.963,19.04 24.868,18.67 24.868,18.275C24.868,17.096 25.713,16.138 26.753,16.138C27.793,16.138 28.637,17.096 28.637,18.275C28.637,19.031 28.291,19.696 27.768,20.076C27.128,19.668 26.188,19.396 25.128,19.358ZM21.969,20.076C21.446,19.696 21.099,19.031 21.099,18.275C21.099,17.096 21.944,16.138 22.984,16.138C24.024,16.138 24.868,17.096 24.868,18.275C24.868,18.67 24.774,19.04 24.609,19.358C23.549,19.396 22.609,19.668 21.969,20.076Z" style="fill:none;stroke:black;stroke-width:1.22px;"/>
            </g>
            <g transform="matrix(1,0,0,1,-53.1856,50.0357)">
                <ellipse cx="565.186" cy="671.455" rx="210.672" ry="98.631" style="fill:none;stroke:black;stroke-width:63.81px;"/>
            </g>
            <g transform="matrix(51.2,0,0,45.1371,0.670978,88.9676)">
                <path d="M12.057,13.791C12.057,13.668 11.958,13.568 11.835,13.568L8.139,13.568C8.016,13.568 7.916,13.668 7.916,13.791L7.916,14.236C7.916,14.359 8.016,14.458 8.139,14.458L11.835,14.458C11.958,14.458 12.057,14.359 12.057,14.236L12.057,13.791Z"/>
            </g>
        </g>
    </g>
</svg>
