<?xml version="1.0" encoding="UTF-8" standalone="no"?>
<!DOCTYPE svg PUBLIC "-//W3C//DTD SVG 1.1//EN" "http://www.w3.org/Graphics/SVG/1.1/DTD/svg11.dtd">
<svg width="100%" height="100%" viewBox="0 0 60 380" version="1.1" xmlns="http://www.w3.org/2000/svg" xmlns:xlink="http://www.w3.org/1999/xlink" xml:space="preserve" xmlns:serif="http://www.serif.com/" style="fill-rule:evenodd;clip-rule:evenodd;stroke-linecap:round;stroke-linejoin:round;stroke-miterlimit:1.5;">
    <g transform="matrix(0.607913,0,0,2.17398,-13.2722,-103.912)">
        <rect x="21.832" y="47.798" width="98.698" height="174.795" style="fill:rgb(102,126,153);"/>
    </g>
    <g transform="matrix(1,0,0,1,-133.442,-2.34924)">
        <g id="Connect-ledbutton" serif:id="Connect#ledbutton" transform="matrix(0.174892,0,0,0.175002,139.797,309.604)">
            <rect x="53.94" y="106.916" width="161.978" height="161.978" style="fill:rgb(102,126,153);"/>
        </g>
        <g transform="matrix(1,0,0,1,61.6324,198.288)">
            <path d="M90.698,116.846C90.698,117.006 90.743,117.13 90.833,117.216C90.923,117.303 91.045,117.346 91.198,117.346C91.391,117.346 91.52,117.29 91.583,117.176C91.646,117.063 91.685,116.95 91.698,116.836L92.718,116.836C92.718,117.283 92.581,117.643 92.308,117.916C92.175,118.056 92.015,118.166 91.828,118.246C91.641,118.326 91.431,118.366 91.198,118.366C90.878,118.366 90.606,118.3 90.383,118.166C90.16,118.033 89.988,117.856 89.868,117.636C89.795,117.503 89.745,117.35 89.718,117.176C89.691,117.003 89.678,116.813 89.678,116.606L89.678,114.936C89.678,114.73 89.691,114.54 89.718,114.366C89.745,114.193 89.795,114.04 89.868,113.906C89.988,113.686 90.16,113.51 90.383,113.376C90.606,113.243 90.878,113.176 91.198,113.176C91.431,113.176 91.643,113.216 91.833,113.296C92.023,113.376 92.185,113.486 92.318,113.626C92.585,113.926 92.718,114.316 92.718,114.796L91.698,114.796C91.698,114.59 91.653,114.438 91.563,114.341C91.473,114.245 91.351,114.196 91.198,114.196C91.045,114.196 90.923,114.245 90.833,114.341C90.743,114.438 90.698,114.583 90.698,114.776L90.698,116.846Z" style="fill:rgb(5,5,5);fill-rule:nonzero;"/>
            <path d="M93.228,114.936C93.228,114.73 93.241,114.54 93.268,114.366C93.295,114.193 93.345,114.04 93.418,113.906C93.538,113.686 93.71,113.51 93.933,113.376C94.156,113.243 94.428,113.176 94.748,113.176C95.068,113.176 95.34,113.243 95.563,113.376C95.786,113.51 95.958,113.686 96.078,113.906C96.151,114.04 96.201,114.193 96.228,114.366C96.255,114.54 96.268,114.73 96.268,114.936L96.268,116.606C96.268,116.813 96.255,117.003 96.228,117.176C96.201,117.35 96.151,117.503 96.078,117.636C95.958,117.856 95.786,118.033 95.563,118.166C95.34,118.3 95.068,118.366 94.748,118.366C94.428,118.366 94.156,118.3 93.933,118.166C93.71,118.033 93.538,117.856 93.418,117.636C93.345,117.503 93.295,117.35 93.268,117.176C93.241,117.003 93.228,116.813 93.228,116.606L93.228,114.936ZM94.248,116.766C94.248,116.96 94.293,117.105 94.383,117.201C94.473,117.298 94.595,117.346 94.748,117.346C94.901,117.346 95.023,117.298 95.113,117.201C95.203,117.105 95.248,116.96 95.248,116.766L95.248,114.776C95.248,114.583 95.203,114.438 95.113,114.341C95.023,114.245 94.901,114.196 94.748,114.196C94.595,114.196 94.473,114.245 94.383,114.341C94.293,114.438 94.248,114.583 94.248,114.776L94.248,116.766Z" style="fill:rgb(5,5,5);fill-rule:nonzero;"/>
            <path d="M97.018,118.306L97.018,113.236L98.038,113.236L98.038,113.726L98.058,113.726C98.165,113.566 98.293,113.435 98.443,113.331C98.593,113.228 98.785,113.176 99.018,113.176C99.145,113.176 99.271,113.198 99.398,113.241C99.525,113.285 99.638,113.356 99.738,113.456C99.838,113.556 99.918,113.685 99.978,113.841C100.038,113.998 100.068,114.19 100.068,114.416L100.068,118.306L99.048,118.306L99.048,114.796C99.048,114.61 99.005,114.463 98.918,114.356C98.831,114.25 98.708,114.196 98.548,114.196C98.355,114.196 98.221,114.256 98.148,114.376C98.075,114.496 98.038,114.67 98.038,114.896L98.038,118.306L97.018,118.306Z" style="fill:rgb(5,5,5);fill-rule:nonzero;"/>
            <path d="M100.908,118.306L100.908,113.236L101.928,113.236L101.928,113.726L101.948,113.726C102.055,113.566 102.183,113.435 102.333,113.331C102.483,113.228 102.675,113.176 102.908,113.176C103.035,113.176 103.161,113.198 103.288,113.241C103.415,113.285 103.528,113.356 103.628,113.456C103.728,113.556 103.808,113.685 103.868,113.841C103.928,113.998 103.958,114.19 103.958,114.416L103.958,118.306L102.938,118.306L102.938,114.796C102.938,114.61 102.895,114.463 102.808,114.356C102.721,114.25 102.598,114.196 102.438,114.196C102.245,114.196 102.111,114.256 102.038,114.376C101.965,114.496 101.928,114.67 101.928,114.896L101.928,118.306L100.908,118.306Z" style="fill:rgb(5,5,5);fill-rule:nonzero;"/>
            <path d="M107.748,116.156L105.728,116.156L105.728,116.846C105.728,117.006 105.773,117.13 105.863,117.216C105.953,117.303 106.075,117.346 106.228,117.346C106.421,117.346 106.55,117.29 106.613,117.176C106.676,117.063 106.715,116.95 106.728,116.836L107.748,116.836C107.748,117.283 107.611,117.643 107.338,117.916C107.205,118.056 107.045,118.166 106.858,118.246C106.671,118.326 106.461,118.366 106.228,118.366C105.908,118.366 105.636,118.3 105.413,118.166C105.19,118.033 105.018,117.856 104.898,117.636C104.825,117.503 104.775,117.35 104.748,117.176C104.721,117.003 104.708,116.813 104.708,116.606L104.708,114.936C104.708,114.73 104.721,114.54 104.748,114.366C104.775,114.193 104.825,114.04 104.898,113.906C105.018,113.686 105.19,113.51 105.413,113.376C105.636,113.243 105.908,113.176 106.228,113.176C106.461,113.176 106.673,113.216 106.863,113.296C107.053,113.376 107.215,113.486 107.348,113.626C107.615,113.926 107.748,114.303 107.748,114.756L107.748,116.156ZM105.728,115.356L106.728,115.356L106.728,114.776C106.728,114.583 106.683,114.438 106.593,114.341C106.503,114.245 106.381,114.196 106.228,114.196C106.075,114.196 105.953,114.245 105.863,114.341C105.773,114.438 105.728,114.583 105.728,114.776L105.728,115.356Z" style="fill:rgb(5,5,5);fill-rule:nonzero;"/>
            <path d="M109.578,116.846C109.578,117.006 109.623,117.13 109.713,117.216C109.803,117.303 109.925,117.346 110.078,117.346C110.271,117.346 110.4,117.29 110.463,117.176C110.526,117.063 110.565,116.95 110.578,116.836L111.598,116.836C111.598,117.283 111.461,117.643 111.188,117.916C111.055,118.056 110.895,118.166 110.708,118.246C110.521,118.326 110.311,118.366 110.078,118.366C109.758,118.366 109.486,118.3 109.263,118.166C109.04,118.033 108.868,117.856 108.748,117.636C108.675,117.503 108.625,117.35 108.598,117.176C108.571,117.003 108.558,116.813 108.558,116.606L108.558,114.936C108.558,114.73 108.571,114.54 108.598,114.366C108.625,114.193 108.675,114.04 108.748,113.906C108.868,113.686 109.04,113.51 109.263,113.376C109.486,113.243 109.758,113.176 110.078,113.176C110.311,113.176 110.523,113.216 110.713,113.296C110.903,113.376 111.065,113.486 111.198,113.626C111.465,113.926 111.598,114.316 111.598,114.796L110.578,114.796C110.578,114.59 110.533,114.438 110.443,114.341C110.353,114.245 110.231,114.196 110.078,114.196C109.925,114.196 109.803,114.245 109.713,114.341C109.623,114.438 109.578,114.583 109.578,114.776L109.578,116.846Z" style="fill:rgb(5,5,5);fill-rule:nonzero;"/>
            <path d="M112.198,113.236L112.198,111.696L113.218,111.696L113.218,113.236L113.848,113.236L113.848,114.036L113.218,114.036L113.218,116.846C113.218,116.966 113.23,117.06 113.253,117.126C113.276,117.193 113.315,117.243 113.368,117.276C113.421,117.31 113.486,117.33 113.563,117.336C113.64,117.343 113.735,117.346 113.848,117.346L113.848,118.306L113.428,118.306C113.195,118.306 113,118.27 112.843,118.196C112.686,118.123 112.561,118.03 112.468,117.916C112.375,117.803 112.306,117.675 112.263,117.531C112.22,117.388 112.198,117.25 112.198,117.116L112.198,114.036L111.688,114.036L111.688,113.236L112.198,113.236Z" style="fill:rgb(5,5,5);fill-rule:nonzero;"/>
        </g>
        <g transform="matrix(1,0,0,1,61.6324,198.288)">
            <text x="89.198px" y="118.306px" style="font-family:'DINCondensed-Bold', 'DIN Condensed';font-weight:700;font-stretch:condensed;font-size:10px;fill:rgb(5,5,5);">connect</text>
        </g>
    </g>
    <g transform="matrix(1,0,0,1,-41.2426,-115.763)">
        <g id="Reset-output" serif:id="Reset#output" transform="matrix(0.175002,0,0,0.175002,47.6371,322.943)">
            <rect x="53.94" y="106.916" width="161.978" height="161.978" style="fill:rgb(77,77,77);"/>
        </g>
        <g transform="matrix(1,0,0,1,-26.043,218.516)">
            <path d="M89.618,118.306L89.618,113.236L90.638,113.236L90.638,113.776C90.845,113.59 91.048,113.443 91.248,113.336C91.448,113.23 91.695,113.176 91.988,113.176L91.988,114.256C91.888,114.216 91.785,114.196 91.678,114.196C91.571,114.196 91.456,114.215 91.333,114.251C91.21,114.288 91.098,114.35 90.998,114.436C90.891,114.523 90.805,114.636 90.738,114.776C90.671,114.916 90.638,115.09 90.638,115.296L90.638,118.306L89.618,118.306Z" style="fill-rule:nonzero;"/>
            <path d="M95.348,116.156L93.328,116.156L93.328,116.846C93.328,117.006 93.373,117.13 93.463,117.216C93.553,117.303 93.675,117.346 93.828,117.346C94.021,117.346 94.15,117.29 94.213,117.176C94.276,117.063 94.315,116.95 94.328,116.836L95.348,116.836C95.348,117.283 95.211,117.643 94.938,117.916C94.805,118.056 94.645,118.166 94.458,118.246C94.271,118.326 94.061,118.366 93.828,118.366C93.508,118.366 93.236,118.3 93.013,118.166C92.79,118.033 92.618,117.856 92.498,117.636C92.425,117.503 92.375,117.35 92.348,117.176C92.321,117.003 92.308,116.813 92.308,116.606L92.308,114.936C92.308,114.73 92.321,114.54 92.348,114.366C92.375,114.193 92.425,114.04 92.498,113.906C92.618,113.686 92.79,113.51 93.013,113.376C93.236,113.243 93.508,113.176 93.828,113.176C94.061,113.176 94.273,113.216 94.463,113.296C94.653,113.376 94.815,113.486 94.948,113.626C95.215,113.926 95.348,114.303 95.348,114.756L95.348,116.156ZM93.328,115.356L94.328,115.356L94.328,114.776C94.328,114.583 94.283,114.438 94.193,114.341C94.103,114.245 93.981,114.196 93.828,114.196C93.675,114.196 93.553,114.245 93.463,114.341C93.373,114.438 93.328,114.583 93.328,114.776L93.328,115.356Z" style="fill-rule:nonzero;"/>
            <path d="M97.948,114.656C97.941,114.483 97.886,114.353 97.783,114.266C97.68,114.18 97.561,114.136 97.428,114.136C97.268,114.136 97.145,114.188 97.058,114.291C96.971,114.395 96.928,114.513 96.928,114.646C96.928,114.74 96.951,114.831 96.998,114.921C97.045,115.011 97.165,115.093 97.358,115.166L97.958,115.406C98.338,115.553 98.6,115.753 98.743,116.006C98.886,116.26 98.958,116.536 98.958,116.836C98.958,117.05 98.92,117.248 98.843,117.431C98.766,117.615 98.661,117.776 98.528,117.916C98.395,118.056 98.235,118.166 98.048,118.246C97.861,118.326 97.658,118.366 97.438,118.366C97.025,118.366 96.678,118.236 96.398,117.976C96.258,117.85 96.145,117.691 96.058,117.501C95.971,117.311 95.925,117.09 95.918,116.836L96.878,116.836C96.898,116.976 96.946,117.106 97.023,117.226C97.1,117.346 97.235,117.406 97.428,117.406C97.575,117.406 97.706,117.358 97.823,117.261C97.94,117.165 97.998,117.03 97.998,116.856C97.998,116.716 97.961,116.596 97.888,116.496C97.815,116.396 97.681,116.31 97.488,116.236L96.998,116.056C96.678,115.936 96.426,115.758 96.243,115.521C96.06,115.285 95.968,114.996 95.968,114.656C95.968,114.443 96.008,114.245 96.088,114.061C96.168,113.878 96.278,113.72 96.418,113.586C96.551,113.453 96.708,113.351 96.888,113.281C97.068,113.211 97.261,113.176 97.468,113.176C97.675,113.176 97.866,113.213 98.043,113.286C98.22,113.36 98.371,113.463 98.498,113.596C98.625,113.73 98.725,113.888 98.798,114.071C98.871,114.255 98.908,114.45 98.908,114.656L97.948,114.656Z" style="fill-rule:nonzero;"/>
            <path d="M102.568,116.156L100.548,116.156L100.548,116.846C100.548,117.006 100.593,117.13 100.683,117.216C100.773,117.303 100.895,117.346 101.048,117.346C101.241,117.346 101.37,117.29 101.433,117.176C101.496,117.063 101.535,116.95 101.548,116.836L102.568,116.836C102.568,117.283 102.431,117.643 102.158,117.916C102.025,118.056 101.865,118.166 101.678,118.246C101.491,118.326 101.281,118.366 101.048,118.366C100.728,118.366 100.456,118.3 100.233,118.166C100.01,118.033 99.838,117.856 99.718,117.636C99.645,117.503 99.595,117.35 99.568,117.176C99.541,117.003 99.528,116.813 99.528,116.606L99.528,114.936C99.528,114.73 99.541,114.54 99.568,114.366C99.595,114.193 99.645,114.04 99.718,113.906C99.838,113.686 100.01,113.51 100.233,113.376C100.456,113.243 100.728,113.176 101.048,113.176C101.281,113.176 101.493,113.216 101.683,113.296C101.873,113.376 102.035,113.486 102.168,113.626C102.435,113.926 102.568,114.303 102.568,114.756L102.568,116.156ZM100.548,115.356L101.548,115.356L101.548,114.776C101.548,114.583 101.503,114.438 101.413,114.341C101.323,114.245 101.201,114.196 101.048,114.196C100.895,114.196 100.773,114.245 100.683,114.341C100.593,114.438 100.548,114.583 100.548,114.776L100.548,115.356Z" style="fill-rule:nonzero;"/>
            <path d="M103.318,113.236L103.318,111.696L104.338,111.696L104.338,113.236L104.968,113.236L104.968,114.036L104.338,114.036L104.338,116.846C104.338,116.966 104.35,117.06 104.373,117.126C104.396,117.193 104.435,117.243 104.488,117.276C104.541,117.31 104.606,117.33 104.683,117.336C104.76,117.343 104.855,117.346 104.968,117.346L104.968,118.306L104.548,118.306C104.315,118.306 104.12,118.27 103.963,118.196C103.806,118.123 103.681,118.03 103.588,117.916C103.495,117.803 103.426,117.675 103.383,117.531C103.34,117.388 103.318,117.25 103.318,117.116L103.318,114.036L102.808,114.036L102.808,113.236L103.318,113.236Z" style="fill-rule:nonzero;"/>
        </g>
        <g transform="matrix(1,0,0,1,-26.043,218.516)">
            <text x="89.198px" y="118.306px" style="font-family:'DINCondensed-Bold', 'DIN Condensed';font-weight:700;font-stretch:condensed;font-size:10px;">reset</text>
        </g>
    </g>
    <g transform="matrix(1,0,0,1,-5.27636,-164.859)">
        <g id="Clock-output" serif:id="Clock#output" transform="matrix(0.175002,0,0,0.175002,11.6635,322.699)">
            <rect x="53.94" y="106.916" width="161.978" height="161.978" style="fill:rgb(77,77,77);"/>
        </g>
        <g transform="matrix(1,0,0,1,-61.6974,219.026)">
            <path d="M90.698,116.846C90.698,117.006 90.743,117.13 90.833,117.216C90.923,117.303 91.045,117.346 91.198,117.346C91.391,117.346 91.52,117.29 91.583,117.176C91.646,117.063 91.685,116.95 91.698,116.836L92.718,116.836C92.718,117.283 92.581,117.643 92.308,117.916C92.175,118.056 92.015,118.166 91.828,118.246C91.641,118.326 91.431,118.366 91.198,118.366C90.878,118.366 90.606,118.3 90.383,118.166C90.16,118.033 89.988,117.856 89.868,117.636C89.795,117.503 89.745,117.35 89.718,117.176C89.691,117.003 89.678,116.813 89.678,116.606L89.678,114.936C89.678,114.73 89.691,114.54 89.718,114.366C89.745,114.193 89.795,114.04 89.868,113.906C89.988,113.686 90.16,113.51 90.383,113.376C90.606,113.243 90.878,113.176 91.198,113.176C91.431,113.176 91.643,113.216 91.833,113.296C92.023,113.376 92.185,113.486 92.318,113.626C92.585,113.926 92.718,114.316 92.718,114.796L91.698,114.796C91.698,114.59 91.653,114.438 91.563,114.341C91.473,114.245 91.351,114.196 91.198,114.196C91.045,114.196 90.923,114.245 90.833,114.341C90.743,114.438 90.698,114.583 90.698,114.776L90.698,116.846Z" style="fill-rule:nonzero;"/>
            <path d="M93.138,111.186L94.158,111.186L94.158,116.876C94.158,117.07 94.193,117.201 94.263,117.271C94.333,117.341 94.465,117.386 94.658,117.406L94.658,118.366C94.425,118.366 94.215,118.348 94.028,118.311C93.841,118.275 93.681,118.203 93.548,118.096C93.415,117.996 93.313,117.855 93.243,117.671C93.173,117.488 93.138,117.246 93.138,116.946L93.138,111.186Z" style="fill-rule:nonzero;"/>
            <path d="M94.968,114.936C94.968,114.73 94.981,114.54 95.008,114.366C95.035,114.193 95.085,114.04 95.158,113.906C95.278,113.686 95.45,113.51 95.673,113.376C95.896,113.243 96.168,113.176 96.488,113.176C96.808,113.176 97.08,113.243 97.303,113.376C97.526,113.51 97.698,113.686 97.818,113.906C97.891,114.04 97.941,114.193 97.968,114.366C97.995,114.54 98.008,114.73 98.008,114.936L98.008,116.606C98.008,116.813 97.995,117.003 97.968,117.176C97.941,117.35 97.891,117.503 97.818,117.636C97.698,117.856 97.526,118.033 97.303,118.166C97.08,118.3 96.808,118.366 96.488,118.366C96.168,118.366 95.896,118.3 95.673,118.166C95.45,118.033 95.278,117.856 95.158,117.636C95.085,117.503 95.035,117.35 95.008,117.176C94.981,117.003 94.968,116.813 94.968,116.606L94.968,114.936ZM95.988,116.766C95.988,116.96 96.033,117.105 96.123,117.201C96.213,117.298 96.335,117.346 96.488,117.346C96.641,117.346 96.763,117.298 96.853,117.201C96.943,117.105 96.988,116.96 96.988,116.766L96.988,114.776C96.988,114.583 96.943,114.438 96.853,114.341C96.763,114.245 96.641,114.196 96.488,114.196C96.335,114.196 96.213,114.245 96.123,114.341C96.033,114.438 95.988,114.583 95.988,114.776L95.988,116.766Z" style="fill-rule:nonzero;"/>
            <path d="M99.838,116.846C99.838,117.006 99.883,117.13 99.973,117.216C100.063,117.303 100.185,117.346 100.338,117.346C100.531,117.346 100.66,117.29 100.723,117.176C100.786,117.063 100.825,116.95 100.838,116.836L101.858,116.836C101.858,117.283 101.721,117.643 101.448,117.916C101.315,118.056 101.155,118.166 100.968,118.246C100.781,118.326 100.571,118.366 100.338,118.366C100.018,118.366 99.746,118.3 99.523,118.166C99.3,118.033 99.128,117.856 99.008,117.636C98.935,117.503 98.885,117.35 98.858,117.176C98.831,117.003 98.818,116.813 98.818,116.606L98.818,114.936C98.818,114.73 98.831,114.54 98.858,114.366C98.885,114.193 98.935,114.04 99.008,113.906C99.128,113.686 99.3,113.51 99.523,113.376C99.746,113.243 100.018,113.176 100.338,113.176C100.571,113.176 100.783,113.216 100.973,113.296C101.163,113.376 101.325,113.486 101.458,113.626C101.725,113.926 101.858,114.316 101.858,114.796L100.838,114.796C100.838,114.59 100.793,114.438 100.703,114.341C100.613,114.245 100.491,114.196 100.338,114.196C100.185,114.196 100.063,114.245 99.973,114.341C99.883,114.438 99.838,114.583 99.838,114.776L99.838,116.846Z" style="fill-rule:nonzero;"/>
            <path d="M102.338,118.306L102.338,111.186L103.358,111.186L103.358,115.446L103.378,115.446L104.608,113.236L105.628,113.236L104.418,115.296L105.878,118.306L104.768,118.306L103.848,116.116L103.358,116.886L103.358,118.306L102.338,118.306Z" style="fill-rule:nonzero;"/>
        </g>
        <g transform="matrix(1,0,0,1,-61.6974,219.026)">
            <text x="89.198px" y="118.306px" style="font-family:'DINCondensed-Bold', 'DIN Condensed';font-weight:700;font-stretch:condensed;font-size:10px;">c<tspan x="92.778px 94.638px 98.338px 101.918px " y="118.306px 118.306px 118.306px 118.306px ">lock</tspan></text>
        </g>
    </g>
    <g transform="matrix(1,0,0,1,-4.5657,-11.8934)">
        <g transform="matrix(1,0,0,1,49.7332,24.9549)">
            <path d="M-35.904,19.972C-35.864,20.084 -35.724,20.19 -35.484,20.29C-35.244,20.39 -34.932,20.44 -34.548,20.44C-34.196,20.44 -33.874,20.374 -33.582,20.242C-33.29,20.11 -33.038,19.912 -32.826,19.648C-32.614,19.384 -32.45,19.058 -32.334,18.67C-32.218,18.282 -32.16,17.832 -32.16,17.32C-32.16,16.944 -32.216,16.602 -32.328,16.294C-32.44,15.986 -32.594,15.724 -32.79,15.508C-32.986,15.292 -33.216,15.124 -33.48,15.004C-33.744,14.884 -34.028,14.824 -34.332,14.824C-34.5,14.824 -34.666,14.846 -34.83,14.89C-34.994,14.934 -35.142,14.986 -35.274,15.046C-35.406,15.106 -35.514,15.17 -35.598,15.238C-35.682,15.306 -35.732,15.368 -35.748,15.424C-35.764,15.472 -35.778,15.592 -35.79,15.784C-35.802,15.976 -35.814,16.21 -35.826,16.486C-35.838,16.762 -35.85,17.066 -35.862,17.398C-35.874,17.73 -35.882,18.056 -35.886,18.376C-35.89,18.696 -35.894,18.998 -35.898,19.282C-35.902,19.566 -35.904,19.796 -35.904,19.972ZM-37.332,19.996C-37.332,19.02 -37.34,18.224 -37.356,17.608C-37.372,16.992 -37.396,16.51 -37.428,16.162C-37.46,15.814 -37.5,15.576 -37.548,15.448C-37.596,15.32 -37.656,15.256 -37.728,15.256C-37.752,15.256 -37.8,15.258 -37.872,15.262C-37.944,15.266 -38.022,15.268 -38.106,15.268C-38.19,15.268 -38.264,15.266 -38.328,15.262C-38.392,15.258 -38.424,15.248 -38.424,15.232L-38.424,15.094C-38.424,15.026 -38.408,14.984 -38.376,14.968C-38.336,14.96 -38.248,14.956 -38.112,14.956C-37.976,14.956 -37.818,14.96 -37.638,14.968C-37.458,14.976 -37.272,14.982 -37.08,14.986C-36.888,14.99 -36.712,14.992 -36.552,14.992L-36.162,14.992C-36.062,14.992 -36.016,14.984 -36.024,14.968C-35.992,14.968 -35.914,14.942 -35.79,14.89C-35.666,14.838 -35.51,14.78 -35.322,14.716C-35.134,14.652 -34.918,14.594 -34.674,14.542C-34.43,14.49 -34.176,14.464 -33.912,14.464C-32.912,14.464 -32.128,14.674 -31.56,15.094C-30.992,15.514 -30.708,16.092 -30.708,16.828C-30.708,17.452 -30.832,18.01 -31.08,18.502C-31.328,18.994 -31.654,19.414 -32.058,19.762C-32.462,20.11 -32.918,20.376 -33.426,20.56C-33.934,20.744 -34.448,20.836 -34.968,20.836C-35.128,20.836 -35.302,20.828 -35.49,20.812C-35.678,20.796 -35.816,20.768 -35.904,20.728L-35.904,21.508C-35.904,21.828 -35.9,22.148 -35.892,22.468C-35.884,22.788 -35.868,23.078 -35.844,23.338C-35.82,23.598 -35.788,23.768 -35.748,23.848C-35.724,23.904 -35.674,23.938 -35.598,23.95C-35.522,23.962 -35.436,23.966 -35.34,23.962C-35.244,23.958 -35.146,23.95 -35.046,23.938C-34.946,23.926 -34.86,23.92 -34.788,23.92C-34.764,23.928 -34.748,23.946 -34.74,23.974C-34.732,24.002 -34.728,24.034 -34.728,24.07C-34.728,24.106 -34.732,24.138 -34.74,24.166C-34.748,24.194 -34.764,24.208 -34.788,24.208C-34.94,24.208 -35.114,24.226 -35.31,24.262C-35.506,24.298 -35.714,24.346 -35.934,24.406C-36.154,24.466 -36.374,24.536 -36.594,24.616C-36.814,24.696 -37.024,24.78 -37.224,24.868C-37.416,24.948 -37.656,25.074 -37.944,25.246C-38.232,25.418 -38.52,25.59 -38.808,25.762C-39.096,25.934 -39.36,26.084 -39.6,26.212C-39.84,26.34 -40.008,26.404 -40.104,26.404C-40.144,26.404 -40.19,26.388 -40.242,26.356C-40.294,26.324 -40.338,26.288 -40.374,26.248C-40.41,26.208 -40.424,26.17 -40.416,26.134C-40.408,26.098 -40.364,26.072 -40.284,26.056C-40.084,26.024 -39.848,25.944 -39.576,25.816C-39.304,25.688 -39.04,25.548 -38.784,25.396C-38.528,25.244 -38.302,25.098 -38.106,24.958C-37.91,24.818 -37.784,24.72 -37.728,24.664C-37.688,24.624 -37.646,24.446 -37.602,24.13C-37.558,23.814 -37.516,23.43 -37.476,22.978C-37.436,22.526 -37.402,22.034 -37.374,21.502C-37.346,20.97 -37.332,20.468 -37.332,19.996Z" style="fill-rule:nonzero;"/>
            <path d="M-26.88,21.724C-26.904,21.588 -26.928,21.44 -26.952,21.28C-26.976,21.12 -27,20.968 -27.024,20.824C-27.048,20.68 -27.07,20.556 -27.09,20.452C-27.11,20.348 -27.124,20.28 -27.132,20.248C-27.26,20.296 -27.404,20.352 -27.564,20.416C-27.724,20.48 -27.884,20.55 -28.044,20.626C-28.204,20.702 -28.356,20.778 -28.5,20.854C-28.644,20.93 -28.764,21 -28.86,21.064C-29.044,21.184 -29.184,21.304 -29.28,21.424C-29.376,21.544 -29.424,21.688 -29.424,21.856C-29.424,22.088 -29.356,22.292 -29.22,22.468C-29.084,22.644 -28.872,22.732 -28.584,22.732C-28.432,22.732 -28.274,22.704 -28.11,22.648C-27.946,22.592 -27.794,22.528 -27.654,22.456C-27.514,22.384 -27.392,22.312 -27.288,22.24C-27.184,22.168 -27.112,22.112 -27.072,22.072C-27.008,22.008 -26.958,21.954 -26.922,21.91C-26.886,21.866 -26.872,21.804 -26.88,21.724ZM-27.228,19.864C-27.276,19.616 -27.332,19.394 -27.396,19.198C-27.46,19.002 -27.54,18.838 -27.636,18.706C-27.732,18.574 -27.848,18.474 -27.984,18.406C-28.12,18.338 -28.288,18.304 -28.488,18.304C-28.664,18.304 -28.826,18.336 -28.974,18.4C-29.122,18.464 -29.25,18.54 -29.358,18.628C-29.466,18.716 -29.55,18.804 -29.61,18.892C-29.67,18.98 -29.704,19.048 -29.712,19.096C-29.72,19.16 -29.756,19.192 -29.82,19.192C-29.932,19.192 -30.036,19.152 -30.132,19.072C-30.228,18.992 -30.276,18.896 -30.276,18.784C-30.276,18.72 -30.268,18.672 -30.252,18.64C-30.068,18.536 -29.844,18.424 -29.58,18.304C-29.316,18.184 -29.042,18.072 -28.758,17.968C-28.474,17.864 -28.192,17.778 -27.912,17.71C-27.632,17.642 -27.38,17.608 -27.156,17.608C-26.82,17.608 -26.562,17.656 -26.382,17.752C-26.202,17.848 -26.068,17.984 -25.98,18.16C-25.892,18.336 -25.838,18.542 -25.818,18.778C-25.798,19.014 -25.78,19.268 -25.764,19.54C-25.74,19.948 -25.708,20.342 -25.668,20.722C-25.628,21.102 -25.568,21.438 -25.488,21.73C-25.408,22.022 -25.306,22.258 -25.182,22.438C-25.058,22.618 -24.904,22.708 -24.72,22.708C-24.632,22.708 -24.536,22.692 -24.432,22.66C-24.328,22.628 -24.228,22.59 -24.132,22.546C-24.036,22.502 -23.95,22.458 -23.874,22.414C-23.798,22.37 -23.748,22.34 -23.724,22.324C-23.652,22.324 -23.608,22.36 -23.592,22.432C-23.592,22.472 -23.6,22.508 -23.616,22.54C-23.632,22.556 -23.692,22.596 -23.796,22.66C-23.9,22.724 -24.028,22.8 -24.18,22.888C-24.332,22.976 -24.5,23.07 -24.684,23.17C-24.868,23.27 -25.05,23.364 -25.23,23.452C-25.41,23.54 -25.576,23.612 -25.728,23.668C-25.88,23.724 -26,23.752 -26.088,23.752C-26.192,23.752 -26.282,23.71 -26.358,23.626C-26.434,23.542 -26.5,23.43 -26.556,23.29C-26.612,23.15 -26.66,22.988 -26.7,22.804C-26.74,22.62 -26.776,22.428 -26.808,22.228C-26.952,22.348 -27.136,22.49 -27.36,22.654C-27.584,22.818 -27.828,22.972 -28.092,23.116C-28.356,23.26 -28.626,23.382 -28.902,23.482C-29.178,23.582 -29.444,23.632 -29.7,23.632C-29.916,23.632 -30.104,23.598 -30.264,23.53C-30.424,23.462 -30.558,23.372 -30.666,23.26C-30.774,23.148 -30.854,23.018 -30.906,22.87C-30.958,22.722 -30.984,22.568 -30.984,22.408C-30.984,22.152 -30.906,21.942 -30.75,21.778C-30.594,21.614 -30.352,21.444 -30.024,21.268C-29.872,21.188 -29.66,21.082 -29.388,20.95C-29.116,20.818 -28.838,20.684 -28.554,20.548C-28.27,20.412 -28.006,20.282 -27.762,20.158C-27.518,20.034 -27.34,19.936 -27.228,19.864Z" style="fill-rule:nonzero;"/>
            <path d="M-12.996,22.552C-12.972,22.552 -12.956,22.566 -12.948,22.594C-12.94,22.622 -12.936,22.656 -12.936,22.696C-12.936,22.736 -12.944,22.762 -12.96,22.774C-12.976,22.786 -12.992,22.8 -13.008,22.816C-13.064,22.848 -13.198,22.916 -13.41,23.02C-13.622,23.124 -13.858,23.23 -14.118,23.338C-14.378,23.446 -14.634,23.542 -14.886,23.626C-15.138,23.71 -15.328,23.752 -15.456,23.752C-15.568,23.752 -15.674,23.728 -15.774,23.68C-15.874,23.632 -15.916,23.556 -15.9,23.452C-15.884,23.388 -15.866,23.292 -15.846,23.164C-15.826,23.036 -15.808,22.88 -15.792,22.696C-15.776,22.464 -15.758,22.196 -15.738,21.892C-15.718,21.588 -15.708,21.252 -15.708,20.884C-15.708,20.452 -15.736,20.094 -15.792,19.81C-15.848,19.526 -15.928,19.3 -16.032,19.132C-16.136,18.964 -16.264,18.846 -16.416,18.778C-16.568,18.71 -16.744,18.676 -16.944,18.676C-17.128,18.676 -17.284,18.706 -17.412,18.766C-17.54,18.826 -17.652,18.892 -17.748,18.964C-17.924,19.1 -18.062,19.274 -18.162,19.486C-18.262,19.698 -18.324,19.976 -18.348,20.32C-18.356,20.408 -18.362,20.496 -18.366,20.584C-18.37,20.672 -18.374,20.768 -18.378,20.872C-18.382,20.976 -18.386,21.092 -18.39,21.22C-18.394,21.348 -18.396,21.5 -18.396,21.676C-18.396,22.148 -18.358,22.476 -18.282,22.66C-18.206,22.844 -18.076,22.936 -17.892,22.936C-17.828,22.936 -17.788,22.934 -17.772,22.93C-17.756,22.926 -17.724,22.92 -17.676,22.912C-17.66,22.928 -17.644,22.948 -17.628,22.972C-17.604,23.012 -17.608,23.056 -17.64,23.104C-17.68,23.152 -17.776,23.214 -17.928,23.29C-18.08,23.366 -18.248,23.436 -18.432,23.5C-18.616,23.564 -18.796,23.62 -18.972,23.668C-19.148,23.716 -19.28,23.74 -19.368,23.74C-19.48,23.74 -19.582,23.726 -19.674,23.698C-19.766,23.67 -19.812,23.636 -19.812,23.596C-19.812,23.548 -19.796,23.492 -19.764,23.428C-19.74,23.388 -19.716,23.292 -19.692,23.14C-19.668,22.988 -19.646,22.792 -19.626,22.552C-19.606,22.312 -19.588,22.034 -19.572,21.718C-19.556,21.402 -19.548,21.06 -19.548,20.692C-19.548,20.5 -19.558,20.288 -19.578,20.056C-19.598,19.824 -19.648,19.606 -19.728,19.402C-19.808,19.198 -19.926,19.026 -20.082,18.886C-20.238,18.746 -20.452,18.676 -20.724,18.676C-20.884,18.676 -21.028,18.698 -21.156,18.742C-21.284,18.786 -21.392,18.84 -21.48,18.904C-21.656,19.04 -21.806,19.208 -21.93,19.408C-22.054,19.608 -22.136,19.892 -22.176,20.26C-22.192,20.428 -22.208,20.602 -22.224,20.782C-22.24,20.962 -22.248,21.168 -22.248,21.4C-22.248,21.704 -22.24,21.956 -22.224,22.156C-22.208,22.356 -22.18,22.514 -22.14,22.63C-22.1,22.746 -22.052,22.826 -21.996,22.87C-21.94,22.914 -21.868,22.936 -21.78,22.936C-21.692,22.936 -21.632,22.928 -21.6,22.912C-21.56,22.896 -21.532,22.92 -21.516,22.984C-21.5,23.048 -21.504,23.088 -21.528,23.104C-21.56,23.136 -21.644,23.186 -21.78,23.254C-21.916,23.322 -22.072,23.392 -22.248,23.464C-22.424,23.536 -22.604,23.6 -22.788,23.656C-22.972,23.712 -23.128,23.74 -23.256,23.74C-23.392,23.74 -23.498,23.724 -23.574,23.692C-23.65,23.66 -23.688,23.624 -23.688,23.584C-23.688,23.576 -23.68,23.55 -23.664,23.506C-23.648,23.462 -23.636,23.424 -23.628,23.392C-23.596,23.144 -23.566,22.914 -23.538,22.702C-23.51,22.49 -23.49,22.26 -23.478,22.012C-23.466,21.764 -23.456,21.48 -23.448,21.16C-23.44,20.84 -23.436,20.452 -23.436,19.996C-23.436,19.556 -23.506,19.232 -23.646,19.024C-23.786,18.816 -23.932,18.712 -24.084,18.712C-24.148,18.712 -24.202,18.718 -24.246,18.73C-24.29,18.742 -24.332,18.752 -24.372,18.76C-24.42,18.768 -24.444,18.744 -24.444,18.688L-24.444,18.604C-24.436,18.596 -24.356,18.54 -24.204,18.436C-24.052,18.332 -23.872,18.22 -23.664,18.1C-23.456,17.98 -23.24,17.87 -23.016,17.77C-22.792,17.67 -22.608,17.62 -22.464,17.62C-22.368,17.62 -22.286,17.648 -22.218,17.704C-22.15,17.76 -22.116,17.864 -22.116,18.016C-22.116,18.088 -22.118,18.168 -22.122,18.256C-22.126,18.344 -22.13,18.436 -22.134,18.532C-22.138,18.628 -22.144,18.722 -22.152,18.814C-22.16,18.906 -22.164,18.984 -22.164,19.048C-22.052,18.944 -21.91,18.808 -21.738,18.64C-21.566,18.472 -21.372,18.312 -21.156,18.16C-20.94,18.008 -20.706,17.876 -20.454,17.764C-20.202,17.652 -19.936,17.596 -19.656,17.596C-19.288,17.596 -18.988,17.704 -18.756,17.92C-18.524,18.136 -18.4,18.512 -18.384,19.048C-18.256,18.928 -18.1,18.784 -17.916,18.616C-17.732,18.448 -17.526,18.288 -17.298,18.136C-17.07,17.984 -16.828,17.856 -16.572,17.752C-16.316,17.648 -16.056,17.596 -15.792,17.596C-14.864,17.596 -14.4,18.088 -14.4,19.072C-14.4,19.232 -14.408,19.416 -14.424,19.624C-14.44,19.832 -14.46,20.05 -14.484,20.278C-14.508,20.506 -14.528,20.732 -14.544,20.956C-14.56,21.18 -14.568,21.384 -14.568,21.568C-14.568,22.4 -14.348,22.816 -13.908,22.816C-13.836,22.816 -13.756,22.806 -13.668,22.786C-13.58,22.766 -13.492,22.742 -13.404,22.714C-13.316,22.686 -13.236,22.658 -13.164,22.63C-13.092,22.602 -13.04,22.576 -13.008,22.552L-12.996,22.552Z" style="fill-rule:nonzero;"/>
            <path d="M-7.512,22.192C-7.6,22.288 -7.736,22.42 -7.92,22.588C-8.104,22.756 -8.326,22.924 -8.586,23.092C-8.846,23.26 -9.136,23.404 -9.456,23.524C-9.776,23.644 -10.116,23.704 -10.476,23.704C-10.804,23.704 -11.124,23.654 -11.436,23.554C-11.748,23.454 -12.028,23.302 -12.276,23.098C-12.524,22.894 -12.722,22.634 -12.87,22.318C-13.018,22.002 -13.092,21.624 -13.092,21.184C-13.092,20.824 -13.068,20.514 -13.02,20.254C-12.972,19.994 -12.908,19.766 -12.828,19.57C-12.748,19.374 -12.658,19.206 -12.558,19.066C-12.458,18.926 -12.356,18.8 -12.252,18.688C-12.124,18.544 -11.968,18.408 -11.784,18.28C-11.6,18.152 -11.402,18.036 -11.19,17.932C-10.978,17.828 -10.754,17.746 -10.518,17.686C-10.282,17.626 -10.044,17.596 -9.804,17.596C-9.372,17.596 -9.034,17.668 -8.79,17.812C-8.546,17.956 -8.424,18.156 -8.424,18.412C-8.424,18.572 -8.472,18.72 -8.568,18.856C-8.488,18.832 -8.386,18.792 -8.262,18.736C-8.138,18.68 -8.012,18.622 -7.884,18.562C-7.756,18.502 -7.642,18.448 -7.542,18.4C-7.442,18.352 -7.376,18.316 -7.344,18.292C-7.328,18.276 -7.31,18.27 -7.29,18.274C-7.27,18.278 -7.26,18.292 -7.26,18.316C-7.26,18.42 -7.28,18.506 -7.32,18.574C-7.36,18.642 -7.408,18.696 -7.464,18.736C-7.592,18.816 -7.776,18.916 -8.016,19.036C-8.256,19.156 -8.522,19.282 -8.814,19.414C-9.106,19.546 -9.408,19.678 -9.72,19.81C-10.032,19.942 -10.326,20.068 -10.602,20.188C-10.878,20.308 -11.118,20.414 -11.322,20.506C-11.526,20.598 -11.664,20.664 -11.736,20.704C-11.736,20.976 -11.682,21.23 -11.574,21.466C-11.466,21.702 -11.316,21.908 -11.124,22.084C-10.932,22.26 -10.702,22.398 -10.434,22.498C-10.166,22.598 -9.872,22.648 -9.552,22.648C-9.264,22.648 -9.004,22.618 -8.772,22.558C-8.54,22.498 -8.344,22.43 -8.184,22.354C-8.024,22.278 -7.898,22.21 -7.806,22.15C-7.714,22.09 -7.664,22.06 -7.656,22.06C-7.624,22.06 -7.592,22.074 -7.56,22.102C-7.528,22.13 -7.512,22.16 -7.512,22.192ZM-11.736,20.356C-11.6,20.308 -11.446,20.25 -11.274,20.182C-11.102,20.114 -10.934,20.04 -10.77,19.96C-10.606,19.88 -10.456,19.804 -10.32,19.732C-10.184,19.66 -10.08,19.596 -10.008,19.54C-9.864,19.436 -9.792,19.26 -9.792,19.012C-9.792,18.916 -9.81,18.816 -9.846,18.712C-9.882,18.608 -9.936,18.514 -10.008,18.43C-10.08,18.346 -10.168,18.278 -10.272,18.226C-10.376,18.174 -10.492,18.148 -10.62,18.148C-10.732,18.148 -10.852,18.186 -10.98,18.262C-11.108,18.338 -11.228,18.462 -11.34,18.634C-11.452,18.806 -11.546,19.034 -11.622,19.318C-11.698,19.602 -11.736,19.948 -11.736,20.356Z" style="fill-rule:nonzero;"/>
            <path d="M-3.456,22.372C-3.408,22.404 -3.384,22.444 -3.384,22.492C-3.384,22.556 -3.476,22.64 -3.66,22.744C-3.852,22.856 -4.106,22.988 -4.422,23.14C-4.738,23.292 -5.052,23.424 -5.364,23.536C-5.516,23.592 -5.652,23.64 -5.772,23.68C-5.892,23.72 -6,23.74 -6.096,23.74C-6.208,23.74 -6.346,23.714 -6.51,23.662C-6.674,23.61 -6.816,23.548 -6.936,23.476C-7.032,23.412 -7.108,23.362 -7.164,23.326C-7.22,23.29 -7.248,23.252 -7.248,23.212C-7.248,23.18 -7.238,23.15 -7.218,23.122C-7.198,23.094 -7.18,23.06 -7.164,23.02C-7.156,22.996 -7.148,22.964 -7.14,22.924C-7.132,22.884 -7.128,22.844 -7.128,22.804C-7.104,22.604 -7.078,22.314 -7.05,21.934C-7.022,21.554 -7,21.134 -6.984,20.674C-6.968,20.214 -6.954,19.738 -6.942,19.246C-6.93,18.754 -6.924,18.296 -6.924,17.872C-6.924,17.352 -6.926,16.932 -6.93,16.612C-6.934,16.292 -6.944,16.036 -6.96,15.844C-6.984,15.58 -7.016,15.406 -7.056,15.322C-7.096,15.238 -7.14,15.176 -7.188,15.136C-7.244,15.088 -7.298,15.058 -7.35,15.046C-7.402,15.034 -7.45,15.026 -7.494,15.022C-7.538,15.018 -7.574,15.016 -7.602,15.016C-7.63,15.016 -7.644,15.008 -7.644,14.992C-7.644,14.728 -7.532,14.596 -7.308,14.596C-7.14,14.596 -6.942,14.598 -6.714,14.602C-6.486,14.606 -6.296,14.608 -6.144,14.608C-6.048,14.608 -5.946,14.602 -5.838,14.59C-5.73,14.578 -5.624,14.566 -5.52,14.554C-5.416,14.542 -5.32,14.528 -5.232,14.512C-5.144,14.496 -5.08,14.48 -5.04,14.464C-5.008,14.456 -4.982,14.468 -4.962,14.5C-4.942,14.532 -4.93,14.572 -4.926,14.62C-4.922,14.668 -4.93,14.712 -4.95,14.752C-4.97,14.792 -4.996,14.816 -5.028,14.824C-5.076,14.832 -5.118,14.836 -5.154,14.836C-5.19,14.836 -5.252,14.852 -5.34,14.884C-5.38,14.9 -5.416,14.95 -5.448,15.034C-5.48,15.118 -5.508,15.25 -5.532,15.43C-5.556,15.61 -5.58,15.846 -5.604,16.138C-5.628,16.43 -5.652,16.796 -5.676,17.236C-5.7,17.588 -5.718,17.946 -5.73,18.31C-5.742,18.674 -5.754,19.028 -5.766,19.372C-5.778,19.716 -5.786,20.036 -5.79,20.332C-5.794,20.628 -5.796,20.88 -5.796,21.088C-5.796,21.32 -5.794,21.554 -5.79,21.79C-5.786,22.026 -5.764,22.212 -5.724,22.348C-5.684,22.476 -5.58,22.596 -5.412,22.708C-5.244,22.82 -5.068,22.876 -4.884,22.876C-4.74,22.876 -4.592,22.856 -4.44,22.816C-4.288,22.776 -4.148,22.728 -4.02,22.672C-3.892,22.616 -3.778,22.56 -3.678,22.504C-3.578,22.448 -3.504,22.404 -3.456,22.372Z" style="fill-rule:nonzero;"/>
            <path d="M-0.264,21.724C-0.288,21.588 -0.312,21.44 -0.336,21.28C-0.36,21.12 -0.384,20.968 -0.408,20.824C-0.432,20.68 -0.454,20.556 -0.474,20.452C-0.494,20.348 -0.508,20.28 -0.516,20.248C-0.644,20.296 -0.788,20.352 -0.948,20.416C-1.108,20.48 -1.268,20.55 -1.428,20.626C-1.588,20.702 -1.74,20.778 -1.884,20.854C-2.028,20.93 -2.148,21 -2.244,21.064C-2.428,21.184 -2.568,21.304 -2.664,21.424C-2.76,21.544 -2.808,21.688 -2.808,21.856C-2.808,22.088 -2.74,22.292 -2.604,22.468C-2.468,22.644 -2.256,22.732 -1.968,22.732C-1.816,22.732 -1.658,22.704 -1.494,22.648C-1.33,22.592 -1.178,22.528 -1.038,22.456C-0.898,22.384 -0.776,22.312 -0.672,22.24C-0.568,22.168 -0.496,22.112 -0.456,22.072C-0.392,22.008 -0.342,21.954 -0.306,21.91C-0.27,21.866 -0.256,21.804 -0.264,21.724ZM-0.612,19.864C-0.66,19.616 -0.716,19.394 -0.78,19.198C-0.844,19.002 -0.924,18.838 -1.02,18.706C-1.116,18.574 -1.232,18.474 -1.368,18.406C-1.504,18.338 -1.672,18.304 -1.872,18.304C-2.048,18.304 -2.21,18.336 -2.358,18.4C-2.506,18.464 -2.634,18.54 -2.742,18.628C-2.85,18.716 -2.934,18.804 -2.994,18.892C-3.054,18.98 -3.088,19.048 -3.096,19.096C-3.104,19.16 -3.14,19.192 -3.204,19.192C-3.316,19.192 -3.42,19.152 -3.516,19.072C-3.612,18.992 -3.66,18.896 -3.66,18.784C-3.66,18.72 -3.652,18.672 -3.636,18.64C-3.452,18.536 -3.228,18.424 -2.964,18.304C-2.7,18.184 -2.426,18.072 -2.142,17.968C-1.858,17.864 -1.576,17.778 -1.296,17.71C-1.016,17.642 -0.764,17.608 -0.54,17.608C-0.204,17.608 0.054,17.656 0.234,17.752C0.414,17.848 0.548,17.984 0.636,18.16C0.724,18.336 0.778,18.542 0.798,18.778C0.818,19.014 0.836,19.268 0.852,19.54C0.876,19.948 0.908,20.342 0.948,20.722C0.988,21.102 1.048,21.438 1.128,21.73C1.208,22.022 1.31,22.258 1.434,22.438C1.558,22.618 1.712,22.708 1.896,22.708C1.984,22.708 2.08,22.692 2.184,22.66C2.288,22.628 2.388,22.59 2.484,22.546C2.58,22.502 2.666,22.458 2.742,22.414C2.818,22.37 2.868,22.34 2.892,22.324C2.964,22.324 3.008,22.36 3.024,22.432C3.024,22.472 3.016,22.508 3,22.54C2.984,22.556 2.924,22.596 2.82,22.66C2.716,22.724 2.588,22.8 2.436,22.888C2.284,22.976 2.116,23.07 1.932,23.17C1.748,23.27 1.566,23.364 1.386,23.452C1.206,23.54 1.04,23.612 0.888,23.668C0.736,23.724 0.616,23.752 0.528,23.752C0.424,23.752 0.334,23.71 0.258,23.626C0.182,23.542 0.116,23.43 0.06,23.29C0.004,23.15 -0.044,22.988 -0.084,22.804C-0.124,22.62 -0.16,22.428 -0.192,22.228C-0.336,22.348 -0.52,22.49 -0.744,22.654C-0.968,22.818 -1.212,22.972 -1.476,23.116C-1.74,23.26 -2.01,23.382 -2.286,23.482C-2.562,23.582 -2.828,23.632 -3.084,23.632C-3.3,23.632 -3.488,23.598 -3.648,23.53C-3.808,23.462 -3.942,23.372 -4.05,23.26C-4.158,23.148 -4.238,23.018 -4.29,22.87C-4.342,22.722 -4.368,22.568 -4.368,22.408C-4.368,22.152 -4.29,21.942 -4.134,21.778C-3.978,21.614 -3.736,21.444 -3.408,21.268C-3.256,21.188 -3.044,21.082 -2.772,20.95C-2.5,20.818 -2.222,20.684 -1.938,20.548C-1.654,20.412 -1.39,20.282 -1.146,20.158C-0.902,20.034 -0.724,19.936 -0.612,19.864Z" style="fill-rule:nonzero;"/>
            <path d="M2.448,23.296C2.384,23.336 2.324,23.402 2.268,23.494C2.212,23.586 2.176,23.656 2.16,23.704C2.152,23.72 2.13,23.734 2.094,23.746C2.058,23.758 2.032,23.764 2.016,23.764C1.944,23.764 1.908,23.728 1.908,23.656C1.908,23.632 1.94,23.568 2.004,23.464C2.052,23.384 2.128,23.258 2.232,23.086C2.336,22.914 2.442,22.738 2.55,22.558C2.658,22.378 2.758,22.214 2.85,22.066C2.942,21.918 3.008,21.82 3.048,21.772C3.088,21.732 3.136,21.726 3.192,21.754C3.248,21.782 3.264,21.816 3.24,21.856C3.224,21.872 3.212,21.892 3.204,21.916C3.196,21.94 3.192,21.98 3.192,22.036C3.192,22.108 3.254,22.198 3.378,22.306C3.502,22.414 3.66,22.518 3.852,22.618C4.044,22.718 4.256,22.804 4.488,22.876C4.72,22.948 4.948,22.984 5.172,22.984C5.436,22.984 5.646,22.908 5.802,22.756C5.958,22.604 6.036,22.404 6.036,22.156C6.036,21.876 5.948,21.668 5.772,21.532C5.596,21.396 5.378,21.292 5.118,21.22C4.858,21.148 4.574,21.09 4.266,21.046C3.958,21.002 3.674,20.936 3.414,20.848C3.154,20.76 2.936,20.632 2.76,20.464C2.584,20.296 2.496,20.052 2.496,19.732C2.496,19.484 2.582,19.232 2.754,18.976C2.926,18.72 3.154,18.492 3.438,18.292C3.722,18.092 4.048,17.928 4.416,17.8C4.784,17.672 5.168,17.608 5.568,17.608C5.688,17.608 5.828,17.62 5.988,17.644C6.148,17.668 6.306,17.698 6.462,17.734C6.618,17.77 6.762,17.806 6.894,17.842C7.026,17.878 7.124,17.908 7.188,17.932C7.204,17.932 7.2,17.964 7.176,18.028C7.152,18.1 7.092,18.21 6.996,18.358C6.9,18.506 6.794,18.652 6.678,18.796C6.562,18.94 6.454,19.068 6.354,19.18C6.254,19.292 6.184,19.348 6.144,19.348L6.072,19.348C6.032,19.348 6.004,19.34 5.988,19.324C5.996,19.284 6,19.232 6,19.168C6,18.888 5.874,18.668 5.622,18.508C5.37,18.348 5.004,18.268 4.524,18.268C4.292,18.268 4.102,18.336 3.954,18.472C3.806,18.608 3.732,18.772 3.732,18.964C3.732,19.276 3.82,19.508 3.996,19.66C4.172,19.812 4.392,19.926 4.656,20.002C4.92,20.078 5.204,20.136 5.508,20.176C5.812,20.216 6.096,20.278 6.36,20.362C6.624,20.446 6.844,20.572 7.02,20.74C7.196,20.908 7.284,21.16 7.284,21.496C7.284,21.648 7.252,21.796 7.188,21.94C7.124,22.084 7.04,22.22 6.936,22.348C6.832,22.476 6.716,22.594 6.588,22.702C6.46,22.81 6.332,22.904 6.204,22.984C6.084,23.064 5.948,23.146 5.796,23.23C5.644,23.314 5.48,23.392 5.304,23.464C5.128,23.536 4.948,23.594 4.764,23.638C4.58,23.682 4.396,23.704 4.212,23.704C4.124,23.704 3.984,23.686 3.792,23.65C3.6,23.614 3.406,23.572 3.21,23.524C3.014,23.476 2.84,23.43 2.688,23.386C2.536,23.342 2.456,23.312 2.448,23.296Z" style="fill-rule:nonzero;"/>
            <path d="M-23.928,35.656C-24.008,35.656 -24.116,35.66 -24.252,35.668C-24.388,35.676 -24.534,35.682 -24.69,35.686C-24.846,35.69 -25.006,35.696 -25.17,35.704C-25.334,35.712 -25.484,35.716 -25.62,35.716C-26.156,35.716 -26.68,35.634 -27.192,35.47C-27.704,35.306 -28.158,35.05 -28.554,34.702C-28.95,34.354 -29.27,33.906 -29.514,33.358C-29.758,32.81 -29.88,32.152 -29.88,31.384C-29.88,30.68 -29.746,30.056 -29.478,29.512C-29.21,28.968 -28.856,28.512 -28.416,28.144C-27.976,27.776 -27.48,27.496 -26.928,27.304C-26.376,27.112 -25.812,27.016 -25.236,27.016C-25.108,27.016 -24.934,27.024 -24.714,27.04C-24.494,27.056 -24.274,27.076 -24.054,27.1C-23.834,27.124 -23.638,27.15 -23.466,27.178C-23.294,27.206 -23.184,27.232 -23.136,27.256C-23.032,26.976 -22.916,26.728 -22.788,26.512C-22.66,26.296 -22.484,26.132 -22.26,26.02C-22.196,25.996 -22.124,25.992 -22.044,26.008C-21.964,26.024 -21.924,26.064 -21.924,26.128C-21.964,26.2 -21.994,26.244 -22.014,26.26C-22.034,26.276 -22.06,26.284 -22.092,26.284C-22.188,26.284 -22.282,26.328 -22.374,26.416C-22.466,26.504 -22.552,26.618 -22.632,26.758C-22.712,26.898 -22.782,27.058 -22.842,27.238C-22.902,27.418 -22.948,27.6 -22.98,27.784C-22.996,27.872 -23.014,27.974 -23.034,28.09C-23.054,28.206 -23.072,28.32 -23.088,28.432C-23.104,28.544 -23.116,28.652 -23.124,28.756C-23.132,28.86 -23.136,28.948 -23.136,29.02C-23.136,29.06 -23.152,29.094 -23.184,29.122C-23.216,29.15 -23.248,29.164 -23.28,29.164C-23.328,29.164 -23.384,29.14 -23.448,29.092C-23.48,28.892 -23.546,28.692 -23.646,28.492C-23.746,28.292 -23.886,28.112 -24.066,27.952C-24.246,27.792 -24.47,27.664 -24.738,27.568C-25.006,27.472 -25.324,27.424 -25.692,27.424C-26.084,27.424 -26.434,27.516 -26.742,27.7C-27.05,27.884 -27.31,28.136 -27.522,28.456C-27.734,28.776 -27.896,29.156 -28.008,29.596C-28.12,30.036 -28.176,30.508 -28.176,31.012C-28.176,31.708 -28.106,32.326 -27.966,32.866C-27.826,33.406 -27.632,33.864 -27.384,34.24C-27.136,34.616 -26.84,34.902 -26.496,35.098C-26.152,35.294 -25.776,35.392 -25.368,35.392C-25.096,35.392 -24.83,35.348 -24.57,35.26C-24.31,35.172 -24.07,35.052 -23.85,34.9C-23.63,34.748 -23.434,34.572 -23.262,34.372C-23.09,34.172 -22.956,33.96 -22.86,33.736C-22.844,33.704 -22.802,33.68 -22.734,33.664C-22.666,33.648 -22.632,33.656 -22.632,33.688C-22.632,33.792 -22.666,33.934 -22.734,34.114C-22.802,34.294 -22.88,34.474 -22.968,34.654C-23.056,34.834 -23.144,34.998 -23.232,35.146C-23.32,35.294 -23.38,35.392 -23.412,35.44C-23.436,35.496 -23.466,35.57 -23.502,35.662C-23.538,35.754 -23.57,35.858 -23.598,35.974C-23.626,36.09 -23.652,36.21 -23.676,36.334C-23.7,36.458 -23.712,36.58 -23.712,36.7C-23.712,36.828 -23.728,36.908 -23.76,36.94C-23.792,36.972 -23.86,36.988 -23.964,36.988C-24.052,36.988 -24.092,36.926 -24.084,36.802C-24.076,36.678 -24.056,36.536 -24.024,36.376C-23.992,36.216 -23.96,36.066 -23.928,35.926C-23.896,35.786 -23.896,35.696 -23.928,35.656Z" style="fill-rule:nonzero;"/>
            <path d="M-18.036,34.372C-17.988,34.404 -17.964,34.444 -17.964,34.492C-17.964,34.556 -18.056,34.64 -18.24,34.744C-18.432,34.856 -18.686,34.988 -19.002,35.14C-19.318,35.292 -19.632,35.424 -19.944,35.536C-20.096,35.592 -20.232,35.64 -20.352,35.68C-20.472,35.72 -20.58,35.74 -20.676,35.74C-20.788,35.74 -20.926,35.714 -21.09,35.662C-21.254,35.61 -21.396,35.548 -21.516,35.476C-21.612,35.412 -21.688,35.362 -21.744,35.326C-21.8,35.29 -21.828,35.252 -21.828,35.212C-21.828,35.18 -21.818,35.15 -21.798,35.122C-21.778,35.094 -21.76,35.06 -21.744,35.02C-21.736,34.996 -21.728,34.964 -21.72,34.924C-21.712,34.884 -21.708,34.844 -21.708,34.804C-21.684,34.604 -21.658,34.314 -21.63,33.934C-21.602,33.554 -21.58,33.134 -21.564,32.674C-21.548,32.214 -21.534,31.738 -21.522,31.246C-21.51,30.754 -21.504,30.296 -21.504,29.872C-21.504,29.352 -21.506,28.932 -21.51,28.612C-21.514,28.292 -21.524,28.036 -21.54,27.844C-21.564,27.58 -21.596,27.406 -21.636,27.322C-21.676,27.238 -21.72,27.176 -21.768,27.136C-21.824,27.088 -21.878,27.058 -21.93,27.046C-21.982,27.034 -22.03,27.026 -22.074,27.022C-22.118,27.018 -22.154,27.016 -22.182,27.016C-22.21,27.016 -22.224,27.008 -22.224,26.992C-22.224,26.728 -22.112,26.596 -21.888,26.596C-21.72,26.596 -21.522,26.598 -21.294,26.602C-21.066,26.606 -20.876,26.608 -20.724,26.608C-20.628,26.608 -20.526,26.602 -20.418,26.59C-20.31,26.578 -20.204,26.566 -20.1,26.554C-19.996,26.542 -19.9,26.528 -19.812,26.512C-19.724,26.496 -19.66,26.48 -19.62,26.464C-19.588,26.456 -19.562,26.468 -19.542,26.5C-19.522,26.532 -19.51,26.572 -19.506,26.62C-19.502,26.668 -19.51,26.712 -19.53,26.752C-19.55,26.792 -19.576,26.816 -19.608,26.824C-19.656,26.832 -19.698,26.836 -19.734,26.836C-19.77,26.836 -19.832,26.852 -19.92,26.884C-19.96,26.9 -19.996,26.95 -20.028,27.034C-20.06,27.118 -20.088,27.25 -20.112,27.43C-20.136,27.61 -20.16,27.846 -20.184,28.138C-20.208,28.43 -20.232,28.796 -20.256,29.236C-20.28,29.588 -20.298,29.946 -20.31,30.31C-20.322,30.674 -20.334,31.028 -20.346,31.372C-20.358,31.716 -20.366,32.036 -20.37,32.332C-20.374,32.628 -20.376,32.88 -20.376,33.088C-20.376,33.32 -20.374,33.554 -20.37,33.79C-20.366,34.026 -20.344,34.212 -20.304,34.348C-20.264,34.476 -20.16,34.596 -19.992,34.708C-19.824,34.82 -19.648,34.876 -19.464,34.876C-19.32,34.876 -19.172,34.856 -19.02,34.816C-18.868,34.776 -18.728,34.728 -18.6,34.672C-18.472,34.616 -18.358,34.56 -18.258,34.504C-18.158,34.448 -18.084,34.404 -18.036,34.372Z" style="fill-rule:nonzero;"/>
            <path d="M-14.004,34.636C-14.092,34.708 -14.212,34.804 -14.364,34.924C-14.516,35.044 -14.692,35.164 -14.892,35.284C-15.092,35.404 -15.312,35.506 -15.552,35.59C-15.792,35.674 -16.044,35.716 -16.308,35.716C-16.708,35.716 -17.064,35.646 -17.376,35.506C-17.688,35.366 -17.95,35.178 -18.162,34.942C-18.374,34.706 -18.534,34.428 -18.642,34.108C-18.75,33.788 -18.804,33.448 -18.804,33.088C-18.804,32.664 -18.74,32.288 -18.612,31.96C-18.484,31.632 -18.326,31.346 -18.138,31.102C-17.95,30.858 -17.748,30.654 -17.532,30.49C-17.316,30.326 -17.12,30.196 -16.944,30.1C-16.864,30.052 -16.762,30 -16.638,29.944C-16.514,29.888 -16.378,29.836 -16.23,29.788C-16.082,29.74 -15.922,29.698 -15.75,29.662C-15.578,29.626 -15.4,29.608 -15.216,29.608C-14.872,29.608 -14.538,29.652 -14.214,29.74C-13.89,29.828 -13.604,29.966 -13.356,30.154C-13.108,30.342 -12.908,30.584 -12.756,30.88C-12.604,31.176 -12.528,31.532 -12.528,31.948C-12.528,32.284 -12.59,32.6 -12.714,32.896C-12.838,33.192 -12.984,33.456 -13.152,33.688C-13.32,33.92 -13.486,34.118 -13.65,34.282C-13.814,34.446 -13.932,34.564 -14.004,34.636ZM-15.36,34.828C-14.904,34.828 -14.554,34.656 -14.31,34.312C-14.066,33.968 -13.944,33.44 -13.944,32.728C-13.944,32.368 -13.994,32.034 -14.094,31.726C-14.194,31.418 -14.334,31.148 -14.514,30.916C-14.694,30.684 -14.904,30.502 -15.144,30.37C-15.384,30.238 -15.644,30.172 -15.924,30.172C-16.124,30.172 -16.314,30.224 -16.494,30.328C-16.674,30.432 -16.832,30.582 -16.968,30.778C-17.104,30.974 -17.212,31.212 -17.292,31.492C-17.372,31.772 -17.412,32.088 -17.412,32.44C-17.412,32.816 -17.354,33.152 -17.238,33.448C-17.122,33.744 -16.968,33.994 -16.776,34.198C-16.584,34.402 -16.366,34.558 -16.122,34.666C-15.878,34.774 -15.624,34.828 -15.36,34.828Z" style="fill-rule:nonzero;"/>
            <path d="M-6.84,30.148C-6.856,30.196 -6.902,30.27 -6.978,30.37C-7.054,30.47 -7.144,30.574 -7.248,30.682C-7.352,30.79 -7.462,30.894 -7.578,30.994C-7.694,31.094 -7.796,31.168 -7.884,31.216C-7.94,31.24 -7.974,31.232 -7.986,31.192C-7.998,31.152 -8.004,31.112 -8.004,31.072C-8.004,31.008 -8.038,30.928 -8.106,30.832C-8.174,30.736 -8.27,30.642 -8.394,30.55C-8.518,30.458 -8.664,30.38 -8.832,30.316C-9,30.252 -9.184,30.22 -9.384,30.22C-9.728,30.22 -10.008,30.406 -10.224,30.778C-10.44,31.15 -10.548,31.644 -10.548,32.26C-10.548,32.636 -10.49,32.974 -10.374,33.274C-10.258,33.574 -10.098,33.826 -9.894,34.03C-9.69,34.234 -9.444,34.39 -9.156,34.498C-8.868,34.606 -8.556,34.66 -8.22,34.66C-7.764,34.66 -7.4,34.602 -7.128,34.486C-6.856,34.37 -6.632,34.236 -6.456,34.084C-6.448,34.084 -6.442,34.08 -6.438,34.072C-6.434,34.064 -6.428,34.06 -6.42,34.06C-6.38,34.06 -6.352,34.074 -6.336,34.102C-6.32,34.13 -6.312,34.164 -6.312,34.204C-6.312,34.236 -6.32,34.26 -6.336,34.276C-6.456,34.372 -6.622,34.5 -6.834,34.66C-7.046,34.82 -7.288,34.978 -7.56,35.134C-7.832,35.29 -8.116,35.424 -8.412,35.536C-8.708,35.648 -9,35.704 -9.288,35.704C-10.112,35.704 -10.754,35.464 -11.214,34.984C-11.674,34.504 -11.904,33.848 -11.904,33.016C-11.904,32.384 -11.782,31.852 -11.538,31.42C-11.294,30.988 -10.994,30.642 -10.638,30.382C-10.282,30.122 -9.904,29.936 -9.504,29.824C-9.104,29.712 -8.752,29.656 -8.448,29.656C-8.2,29.656 -7.978,29.674 -7.782,29.71C-7.586,29.746 -7.418,29.79 -7.278,29.842C-7.138,29.894 -7.03,29.948 -6.954,30.004C-6.878,30.06 -6.84,30.108 -6.84,30.148Z" style="fill-rule:nonzero;"/>
            <path d="M-4.884,32.824C-4.884,32.984 -4.888,33.184 -4.896,33.424C-4.904,33.664 -4.908,33.912 -4.908,34.168C-4.908,34.456 -4.864,34.662 -4.776,34.786C-4.688,34.91 -4.572,34.972 -4.428,34.972C-4.42,34.972 -4.4,34.968 -4.368,34.96C-4.336,34.952 -4.302,34.946 -4.266,34.942C-4.23,34.938 -4.196,34.932 -4.164,34.924C-4.132,34.916 -4.112,34.912 -4.104,34.912C-4.088,34.912 -4.07,34.926 -4.05,34.954C-4.03,34.982 -4.024,35.004 -4.032,35.02C-4.08,35.076 -4.19,35.144 -4.362,35.224C-4.534,35.304 -4.726,35.382 -4.938,35.458C-5.15,35.534 -5.354,35.6 -5.55,35.656C-5.746,35.712 -5.892,35.74 -5.988,35.74C-6.1,35.74 -6.188,35.708 -6.252,35.644C-6.316,35.58 -6.348,35.532 -6.348,35.5C-6.348,35.476 -6.346,35.46 -6.342,35.452C-6.338,35.444 -6.334,35.436 -6.33,35.428C-6.326,35.42 -6.32,35.406 -6.312,35.386C-6.304,35.366 -6.296,35.332 -6.288,35.284C-6.264,35.18 -6.24,35.046 -6.216,34.882C-6.192,34.718 -6.17,34.514 -6.15,34.27C-6.13,34.026 -6.112,33.73 -6.096,33.382C-6.08,33.034 -6.064,32.62 -6.048,32.14C-6.04,31.764 -6.034,31.394 -6.03,31.03C-6.026,30.666 -6.022,30.324 -6.018,30.004C-6.014,29.684 -6.012,29.39 -6.012,29.122L-6.012,28.444C-6.012,28.06 -6.032,27.76 -6.072,27.544C-6.112,27.328 -6.156,27.188 -6.204,27.124C-6.26,27.044 -6.338,27.002 -6.438,26.998C-6.538,26.994 -6.608,26.988 -6.648,26.98C-6.656,26.908 -6.652,26.844 -6.636,26.788C-6.62,26.74 -6.596,26.696 -6.564,26.656C-6.532,26.616 -6.472,26.596 -6.384,26.596C-6.24,26.596 -6.072,26.594 -5.88,26.59C-5.688,26.586 -5.488,26.578 -5.28,26.566C-5.072,26.554 -4.868,26.538 -4.668,26.518C-4.468,26.498 -4.292,26.472 -4.14,26.44C-4.092,26.432 -4.066,26.446 -4.062,26.482C-4.058,26.518 -4.064,26.58 -4.08,26.668C-4.088,26.716 -4.11,26.746 -4.146,26.758C-4.182,26.77 -4.222,26.776 -4.266,26.776C-4.31,26.776 -4.35,26.778 -4.386,26.782C-4.422,26.786 -4.448,26.804 -4.464,26.836C-4.48,26.876 -4.5,26.928 -4.524,26.992C-4.548,27.056 -4.568,27.148 -4.584,27.268C-4.608,27.428 -4.632,27.642 -4.656,27.91C-4.68,28.178 -4.702,28.476 -4.722,28.804C-4.742,29.132 -4.762,29.476 -4.782,29.836C-4.802,30.196 -4.82,30.544 -4.836,30.88C-4.852,31.216 -4.864,31.528 -4.872,31.816C-4.88,32.104 -4.884,32.34 -4.884,32.524C-4.652,32.524 -4.402,32.468 -4.134,32.356C-3.866,32.244 -3.618,32.092 -3.39,31.9C-3.162,31.708 -2.972,31.482 -2.82,31.222C-2.668,30.962 -2.592,30.684 -2.592,30.388C-2.592,30.156 -2.668,30.04 -2.82,30.04C-2.948,30.04 -3.064,30.058 -3.168,30.094C-3.272,30.13 -3.344,30.148 -3.384,30.148C-3.504,30.148 -3.572,30.116 -3.588,30.052C-3.588,30.004 -3.568,29.95 -3.528,29.89C-3.488,29.83 -3.448,29.792 -3.408,29.776C-3.24,29.776 -3.05,29.768 -2.838,29.752C-2.626,29.736 -2.412,29.714 -2.196,29.686C-1.98,29.658 -1.772,29.628 -1.572,29.596C-1.372,29.564 -1.204,29.536 -1.068,29.512C-1.028,29.528 -1.008,29.552 -1.008,29.584C-1.008,29.656 -1.074,29.812 -1.206,30.052C-1.338,30.292 -1.514,30.556 -1.734,30.844C-1.954,31.132 -2.204,31.412 -2.484,31.684C-2.764,31.956 -3.052,32.16 -3.348,32.296C-3.26,32.352 -3.144,32.456 -3,32.608C-2.856,32.76 -2.698,32.936 -2.526,33.136C-2.354,33.336 -2.172,33.544 -1.98,33.76C-1.788,33.976 -1.592,34.174 -1.392,34.354C-1.192,34.534 -0.998,34.682 -0.81,34.798C-0.622,34.914 -0.444,34.972 -0.276,34.972C-0.156,34.972 -0.062,34.96 0.006,34.936C0.074,34.912 0.144,34.88 0.216,34.84C0.256,34.864 0.276,34.892 0.276,34.924C0.276,34.988 0.246,35.05 0.186,35.11C0.126,35.17 -0.008,35.232 -0.216,35.296C-0.352,35.336 -0.508,35.39 -0.684,35.458C-0.86,35.526 -1.03,35.59 -1.194,35.65C-1.358,35.71 -1.502,35.76 -1.626,35.8C-1.75,35.84 -1.828,35.856 -1.86,35.848C-1.924,35.832 -2.026,35.754 -2.166,35.614C-2.306,35.474 -2.466,35.302 -2.646,35.098C-2.826,34.894 -3.018,34.67 -3.222,34.426C-3.426,34.182 -3.626,33.952 -3.822,33.736C-4.018,33.52 -4.2,33.328 -4.368,33.16C-4.536,32.992 -4.676,32.88 -4.788,32.824L-4.884,32.824Z" style="fill-rule:nonzero;"/>
        </g>
        <g transform="matrix(1,0,0,1,49.7332,24.9549)">
            <text x="-38.532px" y="23.596px" style="font-family:'Luminari-Regular', 'Luminari';font-size:12px;">P<tspan x="-31.188px -24.588px " y="23.596px 23.596px ">am</tspan>elas</text>
            <text x="-30.204px" y="35.596px" style="font-family:'Luminari-Regular', 'Luminari';font-size:12px;">Clock</text>
        </g>
        <g transform="matrix(0.0178906,0,0,0.0202937,25.4057,18.6064)">
            <g transform="matrix(1,0,0,1,-143.343,98.6554)">
                <ellipse cx="360.896" cy="293.762" rx="136.961" ry="230.443" style="fill:rgb(102,126,153);stroke:black;stroke-width:63.81px;"/>
            </g>
            <g transform="matrix(1,0,0,1,445.551,98.6554)">
                <ellipse cx="360.896" cy="293.762" rx="136.961" ry="230.443" style="fill:rgb(102,126,153);stroke:black;stroke-width:63.81px;"/>
            </g>
            <g transform="matrix(1,0,0,1,-34.3236,-20.6488)">
                <ellipse cx="546.324" cy="643.509" rx="431.408" ry="296.899" style="fill:rgb(102,126,153);stroke:black;stroke-width:63.81px;"/>
            </g>
            <circle cx="406.664" cy="569.758" r="105.336" style="fill:rgb(102,126,153);stroke:black;stroke-width:63.81px;"/>
            <g transform="matrix(1,0,0,1,210.672,0)">
                <circle cx="406.664" cy="569.758" r="105.336" style="fill:rgb(102,126,153);stroke:black;stroke-width:63.81px;"/>
            </g>
            <g transform="matrix(1,0,0,1,-53.1856,50.0357)">
                <ellipse cx="565.186" cy="671.455" rx="210.672" ry="98.631" style="fill:rgb(102,126,153);stroke:black;stroke-width:63.81px;"/>
            </g>
            <g transform="matrix(51.2,0,0,45.1371,0.670978,88.9676)">
                <path d="M12.057,13.791C12.057,13.668 11.958,13.568 11.835,13.568L8.139,13.568C8.016,13.568 7.916,13.668 7.916,13.791L7.916,14.236C7.916,14.359 8.016,14.458 8.139,14.458L11.835,14.458C11.958,14.458 12.057,14.359 12.057,14.236L12.057,13.791Z"/>
            </g>
        </g>
    </g>
</svg>
