<?xml version="1.0" encoding="UTF-8" standalone="no"?>
<!DOCTYPE svg PUBLIC "-//W3C//DTD SVG 1.1//EN" "http://www.w3.org/Graphics/SVG/1.1/DTD/svg11.dtd">
<svg width="100%" height="100%" viewBox="0 0 90 380" version="1.1" xmlns="http://www.w3.org/2000/svg" xmlns:xlink="http://www.w3.org/1999/xlink" xml:space="preserve" xmlns:serif="http://www.serif.com/" style="fill-rule:evenodd;clip-rule:evenodd;stroke-linecap:round;stroke-linejoin:round;stroke-miterlimit:1.5;">
    <g transform="matrix(1,0,0,1,-155.127,48.5994)">
        <g id="Connect-ledbutton" serif:id="Connect#ledbutton" transform="matrix(1,0,0,1,113.692,1.26292)">
            <circle cx="101.308" cy="310.24" r="9.898" style="fill:rgb(115,115,115);"/>
        </g>
        <g transform="matrix(1,0,0,1,85.6785,196.325)">
            <g transform="matrix(10,0,0,10,89.1979,118.306)">
                <path d="M0.15,-0.146C0.15,-0.13 0.155,-0.118 0.164,-0.109C0.172,-0.1 0.185,-0.096 0.2,-0.096C0.219,-0.096 0.232,-0.102 0.239,-0.113C0.245,-0.124 0.249,-0.136 0.25,-0.147L0.352,-0.147C0.352,-0.102 0.338,-0.066 0.311,-0.039C0.298,-0.025 0.282,-0.014 0.263,-0.006C0.244,0.002 0.223,0.006 0.2,0.006C0.168,0.006 0.141,-0.001 0.119,-0.014C0.096,-0.027 0.079,-0.045 0.067,-0.067C0.06,-0.08 0.055,-0.096 0.052,-0.113C0.049,-0.13 0.048,-0.149 0.048,-0.17L0.048,-0.337C0.048,-0.358 0.049,-0.377 0.052,-0.394C0.055,-0.411 0.06,-0.427 0.067,-0.44C0.079,-0.462 0.096,-0.48 0.119,-0.493C0.141,-0.506 0.168,-0.513 0.2,-0.513C0.223,-0.513 0.245,-0.509 0.264,-0.501C0.282,-0.493 0.299,-0.482 0.312,-0.468C0.339,-0.438 0.352,-0.399 0.352,-0.351L0.25,-0.351C0.25,-0.372 0.246,-0.387 0.237,-0.397C0.228,-0.406 0.215,-0.411 0.2,-0.411C0.185,-0.411 0.172,-0.406 0.164,-0.397C0.155,-0.387 0.15,-0.372 0.15,-0.353L0.15,-0.146Z" style="fill-rule:nonzero;"/>
            </g>
            <g transform="matrix(10,0,0,10,92.8979,118.306)">
                <path d="M0.033,-0.337C0.033,-0.358 0.034,-0.377 0.037,-0.394C0.04,-0.411 0.045,-0.427 0.052,-0.44C0.064,-0.462 0.081,-0.48 0.104,-0.493C0.126,-0.506 0.153,-0.513 0.185,-0.513C0.217,-0.513 0.244,-0.506 0.267,-0.493C0.289,-0.48 0.306,-0.462 0.318,-0.44C0.325,-0.427 0.33,-0.411 0.333,-0.394C0.336,-0.377 0.337,-0.358 0.337,-0.337L0.337,-0.17C0.337,-0.149 0.336,-0.13 0.333,-0.113C0.33,-0.096 0.325,-0.08 0.318,-0.067C0.306,-0.045 0.289,-0.027 0.267,-0.014C0.244,-0.001 0.217,0.006 0.185,0.006C0.153,0.006 0.126,-0.001 0.104,-0.014C0.081,-0.027 0.064,-0.045 0.052,-0.067C0.045,-0.08 0.04,-0.096 0.037,-0.113C0.034,-0.13 0.033,-0.149 0.033,-0.17L0.033,-0.337ZM0.135,-0.154C0.135,-0.135 0.139,-0.12 0.149,-0.111C0.158,-0.101 0.17,-0.096 0.185,-0.096C0.2,-0.096 0.213,-0.101 0.222,-0.111C0.231,-0.12 0.235,-0.135 0.235,-0.154L0.235,-0.353C0.235,-0.372 0.231,-0.387 0.222,-0.397C0.213,-0.406 0.2,-0.411 0.185,-0.411C0.17,-0.411 0.158,-0.406 0.149,-0.397C0.139,-0.387 0.135,-0.372 0.135,-0.353L0.135,-0.154Z" style="fill-rule:nonzero;"/>
            </g>
            <g transform="matrix(10,0,0,10,96.5979,118.306)">
                <path d="M0.042,-0L0.042,-0.507L0.144,-0.507L0.144,-0.458L0.146,-0.458C0.157,-0.474 0.169,-0.487 0.185,-0.498C0.2,-0.508 0.219,-0.513 0.242,-0.513C0.255,-0.513 0.267,-0.511 0.28,-0.507C0.293,-0.502 0.304,-0.495 0.314,-0.485C0.324,-0.475 0.332,-0.462 0.338,-0.447C0.344,-0.431 0.347,-0.412 0.347,-0.389L0.347,-0L0.245,-0L0.245,-0.351C0.245,-0.37 0.241,-0.384 0.232,-0.395C0.223,-0.406 0.211,-0.411 0.195,-0.411C0.176,-0.411 0.162,-0.405 0.155,-0.393C0.148,-0.381 0.144,-0.364 0.144,-0.341L0.144,-0L0.042,-0Z" style="fill-rule:nonzero;"/>
            </g>
            <g transform="matrix(10,0,0,10,100.488,118.306)">
                <path d="M0.042,-0L0.042,-0.507L0.144,-0.507L0.144,-0.458L0.146,-0.458C0.157,-0.474 0.169,-0.487 0.185,-0.498C0.2,-0.508 0.219,-0.513 0.242,-0.513C0.255,-0.513 0.267,-0.511 0.28,-0.507C0.293,-0.502 0.304,-0.495 0.314,-0.485C0.324,-0.475 0.332,-0.462 0.338,-0.447C0.344,-0.431 0.347,-0.412 0.347,-0.389L0.347,-0L0.245,-0L0.245,-0.351C0.245,-0.37 0.241,-0.384 0.232,-0.395C0.223,-0.406 0.211,-0.411 0.195,-0.411C0.176,-0.411 0.162,-0.405 0.155,-0.393C0.148,-0.381 0.144,-0.364 0.144,-0.341L0.144,-0L0.042,-0Z" style="fill-rule:nonzero;"/>
            </g>
            <g transform="matrix(10,0,0,10,104.378,118.306)">
                <path d="M0.337,-0.215L0.135,-0.215L0.135,-0.146C0.135,-0.13 0.139,-0.118 0.149,-0.109C0.158,-0.1 0.17,-0.096 0.185,-0.096C0.204,-0.096 0.217,-0.102 0.224,-0.113C0.23,-0.124 0.234,-0.136 0.235,-0.147L0.337,-0.147C0.337,-0.102 0.323,-0.066 0.296,-0.039C0.283,-0.025 0.267,-0.014 0.248,-0.006C0.229,0.002 0.208,0.006 0.185,0.006C0.153,0.006 0.126,-0.001 0.104,-0.014C0.081,-0.027 0.064,-0.045 0.052,-0.067C0.045,-0.08 0.04,-0.096 0.037,-0.113C0.034,-0.13 0.033,-0.149 0.033,-0.17L0.033,-0.337C0.033,-0.358 0.034,-0.377 0.037,-0.394C0.04,-0.411 0.045,-0.427 0.052,-0.44C0.064,-0.462 0.081,-0.48 0.104,-0.493C0.126,-0.506 0.153,-0.513 0.185,-0.513C0.208,-0.513 0.23,-0.509 0.249,-0.501C0.268,-0.493 0.284,-0.482 0.297,-0.468C0.324,-0.438 0.337,-0.4 0.337,-0.355L0.337,-0.215ZM0.135,-0.295L0.235,-0.295L0.235,-0.353C0.235,-0.372 0.231,-0.387 0.222,-0.397C0.213,-0.406 0.2,-0.411 0.185,-0.411C0.17,-0.411 0.158,-0.406 0.149,-0.397C0.139,-0.387 0.135,-0.372 0.135,-0.353L0.135,-0.295Z" style="fill-rule:nonzero;"/>
            </g>
            <g transform="matrix(10,0,0,10,108.078,118.306)">
                <path d="M0.15,-0.146C0.15,-0.13 0.155,-0.118 0.164,-0.109C0.172,-0.1 0.185,-0.096 0.2,-0.096C0.219,-0.096 0.232,-0.102 0.239,-0.113C0.245,-0.124 0.249,-0.136 0.25,-0.147L0.352,-0.147C0.352,-0.102 0.338,-0.066 0.311,-0.039C0.298,-0.025 0.282,-0.014 0.263,-0.006C0.244,0.002 0.223,0.006 0.2,0.006C0.168,0.006 0.141,-0.001 0.119,-0.014C0.096,-0.027 0.079,-0.045 0.067,-0.067C0.06,-0.08 0.055,-0.096 0.052,-0.113C0.049,-0.13 0.048,-0.149 0.048,-0.17L0.048,-0.337C0.048,-0.358 0.049,-0.377 0.052,-0.394C0.055,-0.411 0.06,-0.427 0.067,-0.44C0.079,-0.462 0.096,-0.48 0.119,-0.493C0.141,-0.506 0.168,-0.513 0.2,-0.513C0.223,-0.513 0.245,-0.509 0.264,-0.501C0.282,-0.493 0.299,-0.482 0.312,-0.468C0.339,-0.438 0.352,-0.399 0.352,-0.351L0.25,-0.351C0.25,-0.372 0.246,-0.387 0.237,-0.397C0.228,-0.406 0.215,-0.411 0.2,-0.411C0.185,-0.411 0.172,-0.406 0.164,-0.397C0.155,-0.387 0.15,-0.372 0.15,-0.353L0.15,-0.146Z" style="fill-rule:nonzero;"/>
            </g>
            <g transform="matrix(10,0,0,10,111.778,118.306)">
                <path d="M0.042,-0.507L0.042,-0.661L0.144,-0.661L0.144,-0.507L0.207,-0.507L0.207,-0.427L0.144,-0.427L0.144,-0.146C0.144,-0.134 0.145,-0.125 0.148,-0.118C0.15,-0.111 0.154,-0.106 0.159,-0.103C0.164,-0.1 0.171,-0.098 0.179,-0.097C0.186,-0.096 0.196,-0.096 0.207,-0.096L0.207,-0L0.165,-0C0.142,-0 0.122,-0.004 0.107,-0.011C0.091,-0.018 0.078,-0.028 0.069,-0.039C0.06,-0.05 0.053,-0.063 0.049,-0.078C0.044,-0.092 0.042,-0.106 0.042,-0.119L0.042,-0.427L-0.009,-0.427L-0.009,-0.507L0.042,-0.507Z" style="fill-rule:nonzero;"/>
            </g>
        </g>
    </g>
    <g id="External" transform="matrix(1,0,0,1,-62.6212,-32.2183)">
        <g transform="matrix(1,0,0,1,-43.9735,43.1399)">
            <g id="B-output" serif:id="B#output" transform="matrix(0.175002,0,0,0.175002,148.809,278.505)">
                <rect x="53.94" y="106.916" width="161.978" height="161.978" style="fill:rgb(77,77,77);"/>
            </g>
            <g id="B-meter-5" serif:id="B#meter$5" transform="matrix(0.0370421,-5.00742e-33,-2.66667e-34,0.160516,148.35,281.371)">
                <rect x="53.94" y="106.916" width="161.978" height="161.978"/>
            </g>
            <g transform="matrix(1,0,0,1,46.0769,196.937)">
                <g transform="matrix(10,0,0,10,94.9379,118.306)">
                    <path d="M0.048,-0L0.048,-0.712L0.197,-0.712C0.23,-0.712 0.258,-0.707 0.281,-0.697C0.304,-0.687 0.322,-0.674 0.337,-0.657C0.352,-0.64 0.362,-0.621 0.369,-0.6C0.375,-0.578 0.378,-0.555 0.378,-0.532L0.378,-0.506C0.378,-0.487 0.377,-0.47 0.374,-0.457C0.371,-0.444 0.366,-0.432 0.36,-0.422C0.349,-0.403 0.331,-0.387 0.308,-0.374C0.332,-0.363 0.35,-0.346 0.361,-0.324C0.372,-0.302 0.378,-0.272 0.378,-0.234L0.378,-0.194C0.378,-0.131 0.363,-0.083 0.333,-0.05C0.302,-0.017 0.254,-0 0.187,-0L0.048,-0ZM0.15,-0.33L0.15,-0.102L0.194,-0.102C0.215,-0.102 0.231,-0.105 0.243,-0.111C0.254,-0.117 0.263,-0.125 0.269,-0.136C0.275,-0.147 0.279,-0.159 0.28,-0.174C0.281,-0.189 0.282,-0.205 0.282,-0.222C0.282,-0.24 0.281,-0.256 0.279,-0.269C0.277,-0.282 0.273,-0.294 0.267,-0.303C0.26,-0.312 0.251,-0.319 0.24,-0.324C0.229,-0.328 0.214,-0.33 0.195,-0.33L0.15,-0.33ZM0.15,-0.616L0.15,-0.42L0.196,-0.42C0.23,-0.42 0.253,-0.428 0.265,-0.446C0.276,-0.463 0.282,-0.487 0.282,-0.52C0.282,-0.552 0.276,-0.576 0.263,-0.592C0.249,-0.608 0.226,-0.616 0.192,-0.616L0.15,-0.616Z" style="fill-rule:nonzero;"/>
                </g>
            </g>
        </g>
        <g transform="matrix(1,0,0,1,0,12)">
            <g id="A-output" serif:id="A#output" transform="matrix(0.175002,0,0,0.175002,104.835,278.26)">
                <rect x="53.94" y="106.916" width="161.978" height="161.978" style="fill:rgb(77,77,77);"/>
            </g>
            <g id="A-meter-5" serif:id="A#meter$5" transform="matrix(0.0370421,-5.00742e-33,-2.66667e-34,0.160516,104.042,280.809)">
                <rect x="53.94" y="106.916" width="161.978" height="161.978"/>
            </g>
            <g transform="matrix(1,0,0,1,1.30337,195.823)">
                <g transform="matrix(10,0,0,10,95.4679,118.306)">
                    <path d="M0.254,-0.249L0.204,-0.507L0.202,-0.507L0.152,-0.249L0.254,-0.249ZM0.002,-0L0.161,-0.712L0.246,-0.712L0.405,-0L0.303,-0L0.273,-0.153L0.134,-0.153L0.104,-0L0.002,-0Z" style="fill-rule:nonzero;"/>
                </g>
            </g>
        </g>
    </g>
    <g transform="matrix(1,0,0,1,0.953573,99.7543)">
        <g id="CV-output-P" serif:id="CV#output$P" transform="matrix(0.175002,0,0,0.175002,40.5502,107.171)">
            <rect x="53.94" y="106.916" width="161.978" height="161.978" style="fill:rgb(77,77,77);"/>
        </g>
        <g transform="matrix(1,0,0,1,-79.048,25.6946)">
            <g transform="matrix(10,0,0,10,89.1979,118.306)">
                <path d="M0.15,-0.146C0.15,-0.13 0.155,-0.118 0.164,-0.109C0.172,-0.1 0.185,-0.096 0.2,-0.096C0.219,-0.096 0.232,-0.102 0.239,-0.113C0.245,-0.124 0.249,-0.136 0.25,-0.147L0.352,-0.147C0.352,-0.102 0.338,-0.066 0.311,-0.039C0.298,-0.025 0.282,-0.014 0.263,-0.006C0.244,0.002 0.223,0.006 0.2,0.006C0.168,0.006 0.141,-0.001 0.119,-0.014C0.096,-0.027 0.079,-0.045 0.067,-0.067C0.06,-0.08 0.055,-0.096 0.052,-0.113C0.049,-0.13 0.048,-0.149 0.048,-0.17L0.048,-0.337C0.048,-0.358 0.049,-0.377 0.052,-0.394C0.055,-0.411 0.06,-0.427 0.067,-0.44C0.079,-0.462 0.096,-0.48 0.119,-0.493C0.141,-0.506 0.168,-0.513 0.2,-0.513C0.223,-0.513 0.245,-0.509 0.264,-0.501C0.282,-0.493 0.299,-0.482 0.312,-0.468C0.339,-0.438 0.352,-0.399 0.352,-0.351L0.25,-0.351C0.25,-0.372 0.246,-0.387 0.237,-0.397C0.228,-0.406 0.215,-0.411 0.2,-0.411C0.185,-0.411 0.172,-0.406 0.164,-0.397C0.155,-0.387 0.15,-0.372 0.15,-0.353L0.15,-0.146Z" style="fill-rule:nonzero;"/>
            </g>
            <g transform="matrix(10,0,0,10,92.8979,118.306)">
                <path d="M0.353,-0.507L0.221,-0L0.131,-0L-0.001,-0.507L0.107,-0.507L0.175,-0.183L0.177,-0.183L0.245,-0.507L0.353,-0.507Z" style="fill-rule:nonzero;"/>
            </g>
            <g transform="matrix(10,0,0,10,98.2779,118.306)">
                <path d="M0.005,0.006L0.137,-0.718L0.217,-0.718L0.085,0.006L0.005,0.006Z" style="fill-rule:nonzero;"/>
            </g>
            <g transform="matrix(10,0,0,10,102.358,118.306)">
                <path d="M0.227,-0.365C0.226,-0.382 0.221,-0.395 0.211,-0.404C0.2,-0.413 0.188,-0.417 0.175,-0.417C0.159,-0.417 0.147,-0.412 0.138,-0.402C0.129,-0.391 0.125,-0.379 0.125,-0.366C0.125,-0.357 0.127,-0.347 0.132,-0.339C0.137,-0.33 0.149,-0.321 0.168,-0.314L0.228,-0.29C0.266,-0.275 0.292,-0.255 0.307,-0.23C0.321,-0.205 0.328,-0.177 0.328,-0.147C0.328,-0.126 0.324,-0.106 0.317,-0.088C0.309,-0.069 0.298,-0.053 0.285,-0.039C0.272,-0.025 0.256,-0.014 0.237,-0.006C0.218,0.002 0.198,0.006 0.176,0.006C0.135,0.006 0.1,-0.007 0.072,-0.033C0.058,-0.046 0.047,-0.062 0.038,-0.081C0.029,-0.099 0.025,-0.122 0.024,-0.147L0.12,-0.147C0.122,-0.133 0.127,-0.12 0.135,-0.108C0.142,-0.096 0.156,-0.09 0.175,-0.09C0.19,-0.09 0.203,-0.095 0.215,-0.105C0.226,-0.114 0.232,-0.128 0.232,-0.145C0.232,-0.159 0.228,-0.171 0.221,-0.181C0.214,-0.191 0.2,-0.2 0.181,-0.207L0.132,-0.225C0.1,-0.237 0.075,-0.255 0.057,-0.279C0.038,-0.302 0.029,-0.331 0.029,-0.365C0.029,-0.386 0.033,-0.406 0.041,-0.425C0.049,-0.443 0.06,-0.459 0.074,-0.472C0.087,-0.485 0.103,-0.496 0.121,-0.503C0.139,-0.51 0.158,-0.513 0.179,-0.513C0.2,-0.513 0.219,-0.509 0.237,-0.502C0.254,-0.495 0.269,-0.484 0.282,-0.471C0.295,-0.458 0.305,-0.442 0.312,-0.424C0.319,-0.405 0.323,-0.386 0.323,-0.365L0.227,-0.365Z" style="fill-rule:nonzero;"/>
            </g>
            <g transform="matrix(10,0,0,10,105.878,118.306)">
                <path d="M0.036,-0.712L0.138,-0.712L0.138,-0.143C0.138,-0.124 0.141,-0.111 0.149,-0.104C0.156,-0.096 0.169,-0.092 0.188,-0.09L0.188,0.006C0.165,0.006 0.144,0.004 0.125,0.001C0.106,-0.003 0.09,-0.01 0.077,-0.021C0.064,-0.031 0.054,-0.045 0.047,-0.064C0.04,-0.082 0.036,-0.106 0.036,-0.136L0.036,-0.712Z" style="fill-rule:nonzero;"/>
            </g>
            <g transform="matrix(10,0,0,10,107.738,118.306)">
                <path d="M0.042,-0L0.042,-0.507L0.144,-0.507L0.144,-0L0.042,-0ZM0.042,-0.61L0.042,-0.712L0.144,-0.712L0.144,-0.61L0.042,-0.61Z" style="fill-rule:nonzero;"/>
            </g>
            <g transform="matrix(10,0,0,10,109.598,118.306)">
                <path d="M0.144,-0.165C0.144,-0.144 0.148,-0.128 0.156,-0.115C0.164,-0.102 0.177,-0.096 0.194,-0.096C0.209,-0.096 0.222,-0.102 0.231,-0.114C0.24,-0.125 0.245,-0.14 0.245,-0.159L0.245,-0.356C0.245,-0.372 0.24,-0.385 0.231,-0.396C0.221,-0.406 0.209,-0.411 0.194,-0.411C0.175,-0.411 0.162,-0.405 0.155,-0.393C0.148,-0.381 0.144,-0.367 0.144,-0.351L0.144,-0.165ZM0.245,-0L0.245,-0.046C0.238,-0.039 0.232,-0.032 0.226,-0.026C0.22,-0.019 0.213,-0.014 0.206,-0.009C0.199,-0.004 0.19,-0.001 0.181,0.002C0.172,0.005 0.161,0.006 0.148,0.006C0.105,0.006 0.076,-0.01 0.059,-0.042C0.053,-0.053 0.049,-0.067 0.046,-0.084C0.043,-0.101 0.042,-0.123 0.042,-0.151L0.042,-0.344C0.042,-0.381 0.043,-0.408 0.045,-0.425C0.049,-0.458 0.065,-0.483 0.092,-0.5C0.105,-0.509 0.124,-0.513 0.149,-0.513C0.169,-0.513 0.187,-0.509 0.203,-0.5C0.218,-0.491 0.232,-0.478 0.243,-0.461L0.245,-0.461L0.245,-0.712L0.347,-0.712L0.347,-0L0.245,-0Z" style="fill-rule:nonzero;"/>
            </g>
            <g transform="matrix(10,0,0,10,113.488,118.306)">
                <path d="M0.337,-0.215L0.135,-0.215L0.135,-0.146C0.135,-0.13 0.139,-0.118 0.149,-0.109C0.158,-0.1 0.17,-0.096 0.185,-0.096C0.204,-0.096 0.217,-0.102 0.224,-0.113C0.23,-0.124 0.234,-0.136 0.235,-0.147L0.337,-0.147C0.337,-0.102 0.323,-0.066 0.296,-0.039C0.283,-0.025 0.267,-0.014 0.248,-0.006C0.229,0.002 0.208,0.006 0.185,0.006C0.153,0.006 0.126,-0.001 0.104,-0.014C0.081,-0.027 0.064,-0.045 0.052,-0.067C0.045,-0.08 0.04,-0.096 0.037,-0.113C0.034,-0.13 0.033,-0.149 0.033,-0.17L0.033,-0.337C0.033,-0.358 0.034,-0.377 0.037,-0.394C0.04,-0.411 0.045,-0.427 0.052,-0.44C0.064,-0.462 0.081,-0.48 0.104,-0.493C0.126,-0.506 0.153,-0.513 0.185,-0.513C0.208,-0.513 0.23,-0.509 0.249,-0.501C0.268,-0.493 0.284,-0.482 0.297,-0.468C0.324,-0.438 0.337,-0.4 0.337,-0.355L0.337,-0.215ZM0.135,-0.295L0.235,-0.295L0.235,-0.353C0.235,-0.372 0.231,-0.387 0.222,-0.397C0.213,-0.406 0.2,-0.411 0.185,-0.411C0.17,-0.411 0.158,-0.406 0.149,-0.397C0.139,-0.387 0.135,-0.372 0.135,-0.353L0.135,-0.295Z" style="fill-rule:nonzero;"/>
            </g>
            <g transform="matrix(10,0,0,10,117.188,118.306)">
                <path d="M0.042,-0L0.042,-0.507L0.144,-0.507L0.144,-0.453C0.165,-0.472 0.185,-0.486 0.205,-0.497C0.225,-0.508 0.25,-0.513 0.279,-0.513L0.279,-0.405C0.269,-0.409 0.259,-0.411 0.248,-0.411C0.237,-0.411 0.226,-0.409 0.214,-0.406C0.201,-0.402 0.19,-0.396 0.18,-0.387C0.169,-0.378 0.161,-0.367 0.154,-0.353C0.147,-0.339 0.144,-0.322 0.144,-0.301L0.144,-0L0.042,-0Z" style="fill-rule:nonzero;"/>
            </g>
        </g>
    </g>
    <g id="Slider" transform="matrix(1,0,0,1,-21.7264,130.691)">
        <g id="Channel8-meter-5" serif:id="Channel8#meter$5" transform="matrix(0.0370421,-1.88741e-32,1.15556e-33,0.160516,93.0183,43.0511)">
            <rect x="53.94" y="106.916" width="161.978" height="161.978"/>
        </g>
        <g id="Channel7-meter-5" serif:id="Channel7#meter$5" transform="matrix(0.0370421,-1.88741e-32,1.15556e-33,0.160516,84.1131,43.0511)">
            <rect x="53.94" y="106.916" width="161.978" height="161.978"/>
        </g>
        <g id="Channel6-meter-5" serif:id="Channel6#meter$5" transform="matrix(0.0370421,-1.88741e-32,1.15556e-33,0.160516,75.2079,43.0511)">
            <rect x="53.94" y="106.916" width="161.978" height="161.978"/>
        </g>
        <g id="Channel5-meter-5" serif:id="Channel5#meter$5" transform="matrix(0.0370421,-1.88741e-32,1.15556e-33,0.160516,66.3027,43.0511)">
            <rect x="53.94" y="106.916" width="161.978" height="161.978"/>
        </g>
        <g id="Channel4-meter-5" serif:id="Channel4#meter$5" transform="matrix(0.0370421,-1.88741e-32,1.15556e-33,0.160516,57.3975,43.0511)">
            <rect x="53.94" y="106.916" width="161.978" height="161.978"/>
        </g>
        <g id="Channel3-meter-5" serif:id="Channel3#meter$5" transform="matrix(0.0370421,-1.88741e-32,1.15556e-33,0.160516,48.4923,43.0511)">
            <rect x="53.94" y="106.916" width="161.978" height="161.978"/>
        </g>
        <g id="Channel2-meter-5" serif:id="Channel2#meter$5" transform="matrix(0.0370421,-1.88741e-32,1.15556e-33,0.160516,39.5871,43.0511)">
            <rect x="53.94" y="106.916" width="161.978" height="161.978"/>
        </g>
        <g id="Channel1-meter-5" serif:id="Channel1#meter$5" transform="matrix(0.0370421,-1.88741e-32,1.15556e-33,0.160516,30.6819,43.0511)">
            <rect x="53.94" y="106.916" width="161.978" height="161.978"/>
        </g>
        <g transform="matrix(1,0,0,1,-45.738,-61.7365)">
            <g transform="matrix(10,0,0,10,78.8079,118.306)">
                <path d="M0.227,-0.365C0.226,-0.382 0.221,-0.395 0.211,-0.404C0.2,-0.413 0.188,-0.417 0.175,-0.417C0.159,-0.417 0.147,-0.412 0.138,-0.402C0.129,-0.391 0.125,-0.379 0.125,-0.366C0.125,-0.357 0.127,-0.347 0.132,-0.339C0.137,-0.33 0.149,-0.321 0.168,-0.314L0.228,-0.29C0.266,-0.275 0.292,-0.255 0.307,-0.23C0.321,-0.205 0.328,-0.177 0.328,-0.147C0.328,-0.126 0.324,-0.106 0.317,-0.088C0.309,-0.069 0.298,-0.053 0.285,-0.039C0.272,-0.025 0.256,-0.014 0.237,-0.006C0.218,0.002 0.198,0.006 0.176,0.006C0.135,0.006 0.1,-0.007 0.072,-0.033C0.058,-0.046 0.047,-0.062 0.038,-0.081C0.029,-0.099 0.025,-0.122 0.024,-0.147L0.12,-0.147C0.122,-0.133 0.127,-0.12 0.135,-0.108C0.142,-0.096 0.156,-0.09 0.175,-0.09C0.19,-0.09 0.203,-0.095 0.215,-0.105C0.226,-0.114 0.232,-0.128 0.232,-0.145C0.232,-0.159 0.228,-0.171 0.221,-0.181C0.214,-0.191 0.2,-0.2 0.181,-0.207L0.132,-0.225C0.1,-0.237 0.075,-0.255 0.057,-0.279C0.038,-0.302 0.029,-0.331 0.029,-0.365C0.029,-0.386 0.033,-0.406 0.041,-0.425C0.049,-0.443 0.06,-0.459 0.074,-0.472C0.087,-0.485 0.103,-0.496 0.121,-0.503C0.139,-0.51 0.158,-0.513 0.179,-0.513C0.2,-0.513 0.219,-0.509 0.237,-0.502C0.254,-0.495 0.269,-0.484 0.282,-0.471C0.295,-0.458 0.305,-0.442 0.312,-0.424C0.319,-0.405 0.323,-0.386 0.323,-0.365L0.227,-0.365Z" style="fill-rule:nonzero;"/>
            </g>
            <g transform="matrix(10,0,0,10,82.3279,118.306)">
                <path d="M0.036,-0.712L0.138,-0.712L0.138,-0.143C0.138,-0.124 0.141,-0.111 0.149,-0.104C0.156,-0.096 0.169,-0.092 0.188,-0.09L0.188,0.006C0.165,0.006 0.144,0.004 0.125,0.001C0.106,-0.003 0.09,-0.01 0.077,-0.021C0.064,-0.031 0.054,-0.045 0.047,-0.064C0.04,-0.082 0.036,-0.106 0.036,-0.136L0.036,-0.712Z" style="fill-rule:nonzero;"/>
            </g>
            <g transform="matrix(10,0,0,10,84.1879,118.306)">
                <path d="M0.042,-0L0.042,-0.507L0.144,-0.507L0.144,-0L0.042,-0ZM0.042,-0.61L0.042,-0.712L0.144,-0.712L0.144,-0.61L0.042,-0.61Z" style="fill-rule:nonzero;"/>
            </g>
            <g transform="matrix(10,0,0,10,86.0479,118.306)">
                <path d="M0.144,-0.165C0.144,-0.144 0.148,-0.128 0.156,-0.115C0.164,-0.102 0.177,-0.096 0.194,-0.096C0.209,-0.096 0.222,-0.102 0.231,-0.114C0.24,-0.125 0.245,-0.14 0.245,-0.159L0.245,-0.356C0.245,-0.372 0.24,-0.385 0.231,-0.396C0.221,-0.406 0.209,-0.411 0.194,-0.411C0.175,-0.411 0.162,-0.405 0.155,-0.393C0.148,-0.381 0.144,-0.367 0.144,-0.351L0.144,-0.165ZM0.245,-0L0.245,-0.046C0.238,-0.039 0.232,-0.032 0.226,-0.026C0.22,-0.019 0.213,-0.014 0.206,-0.009C0.199,-0.004 0.19,-0.001 0.181,0.002C0.172,0.005 0.161,0.006 0.148,0.006C0.105,0.006 0.076,-0.01 0.059,-0.042C0.053,-0.053 0.049,-0.067 0.046,-0.084C0.043,-0.101 0.042,-0.123 0.042,-0.151L0.042,-0.344C0.042,-0.381 0.043,-0.408 0.045,-0.425C0.049,-0.458 0.065,-0.483 0.092,-0.5C0.105,-0.509 0.124,-0.513 0.149,-0.513C0.169,-0.513 0.187,-0.509 0.203,-0.5C0.218,-0.491 0.232,-0.478 0.243,-0.461L0.245,-0.461L0.245,-0.712L0.347,-0.712L0.347,-0L0.245,-0Z" style="fill-rule:nonzero;"/>
            </g>
            <g transform="matrix(10,0,0,10,89.9379,118.306)">
                <path d="M0.337,-0.215L0.135,-0.215L0.135,-0.146C0.135,-0.13 0.139,-0.118 0.149,-0.109C0.158,-0.1 0.17,-0.096 0.185,-0.096C0.204,-0.096 0.217,-0.102 0.224,-0.113C0.23,-0.124 0.234,-0.136 0.235,-0.147L0.337,-0.147C0.337,-0.102 0.323,-0.066 0.296,-0.039C0.283,-0.025 0.267,-0.014 0.248,-0.006C0.229,0.002 0.208,0.006 0.185,0.006C0.153,0.006 0.126,-0.001 0.104,-0.014C0.081,-0.027 0.064,-0.045 0.052,-0.067C0.045,-0.08 0.04,-0.096 0.037,-0.113C0.034,-0.13 0.033,-0.149 0.033,-0.17L0.033,-0.337C0.033,-0.358 0.034,-0.377 0.037,-0.394C0.04,-0.411 0.045,-0.427 0.052,-0.44C0.064,-0.462 0.081,-0.48 0.104,-0.493C0.126,-0.506 0.153,-0.513 0.185,-0.513C0.208,-0.513 0.23,-0.509 0.249,-0.501C0.268,-0.493 0.284,-0.482 0.297,-0.468C0.324,-0.438 0.337,-0.4 0.337,-0.355L0.337,-0.215ZM0.135,-0.295L0.235,-0.295L0.235,-0.353C0.235,-0.372 0.231,-0.387 0.222,-0.397C0.213,-0.406 0.2,-0.411 0.185,-0.411C0.17,-0.411 0.158,-0.406 0.149,-0.397C0.139,-0.387 0.135,-0.372 0.135,-0.353L0.135,-0.295Z" style="fill-rule:nonzero;"/>
            </g>
            <g transform="matrix(10,0,0,10,93.6379,118.306)">
                <path d="M0.042,-0L0.042,-0.507L0.144,-0.507L0.144,-0.453C0.165,-0.472 0.185,-0.486 0.205,-0.497C0.225,-0.508 0.25,-0.513 0.279,-0.513L0.279,-0.405C0.269,-0.409 0.259,-0.411 0.248,-0.411C0.237,-0.411 0.226,-0.409 0.214,-0.406C0.201,-0.402 0.19,-0.396 0.18,-0.387C0.169,-0.378 0.161,-0.367 0.154,-0.353C0.147,-0.339 0.144,-0.322 0.144,-0.301L0.144,-0L0.042,-0Z" style="fill-rule:nonzero;"/>
            </g>
        </g>
    </g>
    <g id="CV" transform="matrix(1,0,0,1,-21.7264,87.8329)">
        <g id="Channel8-meter-51" serif:id="Channel8#meter$5" transform="matrix(0.0370421,-1.88741e-32,1.15556e-33,0.160516,93.0183,43.0511)">
            <rect x="53.94" y="106.916" width="161.978" height="161.978"/>
        </g>
        <g id="Channel7-meter-51" serif:id="Channel7#meter$5" transform="matrix(0.0370421,-1.88741e-32,1.15556e-33,0.160516,84.1131,43.0511)">
            <rect x="53.94" y="106.916" width="161.978" height="161.978"/>
        </g>
        <g id="Channel6-meter-51" serif:id="Channel6#meter$5" transform="matrix(0.0370421,-1.88741e-32,1.15556e-33,0.160516,75.2079,43.0511)">
            <rect x="53.94" y="106.916" width="161.978" height="161.978"/>
        </g>
        <g id="Channel5-meter-51" serif:id="Channel5#meter$5" transform="matrix(0.0370421,-1.88741e-32,1.15556e-33,0.160516,66.3027,43.0511)">
            <rect x="53.94" y="106.916" width="161.978" height="161.978"/>
        </g>
        <g id="Channel4-meter-51" serif:id="Channel4#meter$5" transform="matrix(0.0370421,-1.88741e-32,1.15556e-33,0.160516,57.3975,43.0511)">
            <rect x="53.94" y="106.916" width="161.978" height="161.978"/>
        </g>
        <g id="Channel3-meter-51" serif:id="Channel3#meter$5" transform="matrix(0.0370421,-1.88741e-32,1.15556e-33,0.160516,48.4923,43.0511)">
            <rect x="53.94" y="106.916" width="161.978" height="161.978"/>
        </g>
        <g id="Channel2-meter-51" serif:id="Channel2#meter$5" transform="matrix(0.0370421,-1.88741e-32,1.15556e-33,0.160516,39.5871,43.0511)">
            <rect x="53.94" y="106.916" width="161.978" height="161.978"/>
        </g>
        <g id="Channel1-meter-51" serif:id="Channel1#meter$5" transform="matrix(0.0370421,-1.88741e-32,1.15556e-33,0.160516,30.6819,43.0511)">
            <rect x="53.94" y="106.916" width="161.978" height="161.978"/>
        </g>
        <g transform="matrix(1,0,0,1,-56.368,-61.97)">
            <g transform="matrix(10,0,0,10,89.1979,118.306)">
                <path d="M0.15,-0.146C0.15,-0.13 0.155,-0.118 0.164,-0.109C0.172,-0.1 0.185,-0.096 0.2,-0.096C0.219,-0.096 0.232,-0.102 0.239,-0.113C0.245,-0.124 0.249,-0.136 0.25,-0.147L0.352,-0.147C0.352,-0.102 0.338,-0.066 0.311,-0.039C0.298,-0.025 0.282,-0.014 0.263,-0.006C0.244,0.002 0.223,0.006 0.2,0.006C0.168,0.006 0.141,-0.001 0.119,-0.014C0.096,-0.027 0.079,-0.045 0.067,-0.067C0.06,-0.08 0.055,-0.096 0.052,-0.113C0.049,-0.13 0.048,-0.149 0.048,-0.17L0.048,-0.337C0.048,-0.358 0.049,-0.377 0.052,-0.394C0.055,-0.411 0.06,-0.427 0.067,-0.44C0.079,-0.462 0.096,-0.48 0.119,-0.493C0.141,-0.506 0.168,-0.513 0.2,-0.513C0.223,-0.513 0.245,-0.509 0.264,-0.501C0.282,-0.493 0.299,-0.482 0.312,-0.468C0.339,-0.438 0.352,-0.399 0.352,-0.351L0.25,-0.351C0.25,-0.372 0.246,-0.387 0.237,-0.397C0.228,-0.406 0.215,-0.411 0.2,-0.411C0.185,-0.411 0.172,-0.406 0.164,-0.397C0.155,-0.387 0.15,-0.372 0.15,-0.353L0.15,-0.146Z" style="fill-rule:nonzero;"/>
            </g>
            <g transform="matrix(10,0,0,10,92.8979,118.306)">
                <path d="M0.353,-0.507L0.221,-0L0.131,-0L-0.001,-0.507L0.107,-0.507L0.175,-0.183L0.177,-0.183L0.245,-0.507L0.353,-0.507Z" style="fill-rule:nonzero;"/>
            </g>
        </g>
    </g>
    <g transform="matrix(1,0,0,1,-0.386435,-141.892)">
        <g id="Gate-output-P" serif:id="Gate#output$P" transform="matrix(0.175002,0,0,0.175002,42.6004,215.476)">
            <rect x="53.94" y="106.916" width="161.978" height="161.978" style="fill:rgb(77,77,77);"/>
        </g>
        <g transform="matrix(1,0,0,1,-79.048,133.695)">
            <g transform="matrix(10,0,0,10,89.1979,118.306)">
                <path d="M0.144,0.059C0.145,0.071 0.15,0.082 0.159,0.093C0.168,0.104 0.181,0.109 0.198,0.109C0.215,0.109 0.227,0.104 0.234,0.094C0.241,0.083 0.245,0.07 0.245,0.054L0.245,-0.046L0.243,-0.046C0.232,-0.029 0.218,-0.017 0.203,-0.008C0.187,0.002 0.169,0.006 0.148,0.006C0.105,0.006 0.076,-0.01 0.059,-0.042C0.053,-0.053 0.049,-0.067 0.046,-0.084C0.043,-0.101 0.042,-0.123 0.042,-0.151L0.042,-0.344C0.042,-0.381 0.043,-0.408 0.045,-0.425C0.049,-0.458 0.065,-0.483 0.092,-0.5C0.105,-0.509 0.124,-0.513 0.149,-0.513C0.162,-0.513 0.173,-0.512 0.182,-0.509C0.191,-0.506 0.199,-0.503 0.206,-0.498C0.213,-0.493 0.22,-0.488 0.226,-0.482C0.232,-0.475 0.238,-0.468 0.245,-0.461L0.245,-0.507L0.347,-0.507L0.347,0.062C0.347,0.079 0.344,0.097 0.339,0.115C0.333,0.132 0.324,0.148 0.311,0.162C0.298,0.177 0.282,0.189 0.263,0.198C0.244,0.206 0.221,0.211 0.194,0.211C0.179,0.211 0.163,0.209 0.146,0.204C0.129,0.199 0.114,0.19 0.1,0.178C0.085,0.167 0.073,0.152 0.063,0.133C0.052,0.114 0.045,0.089 0.042,0.059L0.144,0.059ZM0.144,-0.156C0.144,-0.14 0.148,-0.126 0.155,-0.114C0.162,-0.102 0.175,-0.096 0.194,-0.096C0.209,-0.096 0.221,-0.101 0.231,-0.112C0.24,-0.122 0.245,-0.135 0.245,-0.151L0.245,-0.348C0.245,-0.367 0.24,-0.382 0.231,-0.394C0.222,-0.405 0.209,-0.411 0.194,-0.411C0.177,-0.411 0.164,-0.405 0.156,-0.392C0.148,-0.379 0.144,-0.363 0.144,-0.342L0.144,-0.156Z" style="fill-rule:nonzero;"/>
            </g>
            <g transform="matrix(10,0,0,10,93.0879,118.306)">
                <path d="M0.235,-0L0.235,-0.052L0.233,-0.052C0.22,-0.033 0.206,-0.019 0.193,-0.009C0.179,0.001 0.16,0.006 0.135,0.006C0.123,0.006 0.111,0.004 0.099,0.001C0.086,-0.003 0.074,-0.01 0.063,-0.02C0.052,-0.029 0.043,-0.043 0.036,-0.061C0.029,-0.078 0.025,-0.101 0.025,-0.129C0.025,-0.158 0.027,-0.183 0.032,-0.205C0.037,-0.226 0.045,-0.244 0.058,-0.259C0.07,-0.273 0.086,-0.284 0.107,-0.291C0.128,-0.298 0.154,-0.301 0.186,-0.301L0.197,-0.301C0.201,-0.301 0.205,-0.301 0.208,-0.3C0.211,-0.299 0.215,-0.299 0.22,-0.299C0.225,-0.299 0.23,-0.299 0.235,-0.298L0.235,-0.351C0.235,-0.368 0.231,-0.383 0.224,-0.394C0.217,-0.405 0.203,-0.411 0.184,-0.411C0.171,-0.411 0.159,-0.407 0.148,-0.398C0.136,-0.389 0.129,-0.377 0.126,-0.36L0.027,-0.36C0.03,-0.405 0.045,-0.442 0.073,-0.47C0.086,-0.483 0.102,-0.494 0.121,-0.502C0.14,-0.509 0.161,-0.513 0.184,-0.513C0.205,-0.513 0.225,-0.51 0.244,-0.503C0.263,-0.496 0.279,-0.486 0.293,-0.473C0.306,-0.46 0.317,-0.443 0.325,-0.423C0.333,-0.403 0.337,-0.38 0.337,-0.353L0.337,-0L0.235,-0ZM0.235,-0.218C0.224,-0.22 0.214,-0.221 0.207,-0.221C0.185,-0.221 0.166,-0.216 0.151,-0.206C0.135,-0.195 0.127,-0.176 0.127,-0.149C0.127,-0.13 0.132,-0.114 0.141,-0.102C0.15,-0.09 0.163,-0.084 0.18,-0.084C0.197,-0.084 0.211,-0.09 0.221,-0.101C0.23,-0.112 0.235,-0.128 0.235,-0.149L0.235,-0.218Z" style="fill-rule:nonzero;"/>
            </g>
            <g transform="matrix(10,0,0,10,96.7879,118.306)">
                <path d="M0.042,-0.507L0.042,-0.661L0.144,-0.661L0.144,-0.507L0.207,-0.507L0.207,-0.427L0.144,-0.427L0.144,-0.146C0.144,-0.134 0.145,-0.125 0.148,-0.118C0.15,-0.111 0.154,-0.106 0.159,-0.103C0.164,-0.1 0.171,-0.098 0.179,-0.097C0.186,-0.096 0.196,-0.096 0.207,-0.096L0.207,-0L0.165,-0C0.142,-0 0.122,-0.004 0.107,-0.011C0.091,-0.018 0.078,-0.028 0.069,-0.039C0.06,-0.05 0.053,-0.063 0.049,-0.078C0.044,-0.092 0.042,-0.106 0.042,-0.119L0.042,-0.427L-0.009,-0.427L-0.009,-0.507L0.042,-0.507Z" style="fill-rule:nonzero;"/>
            </g>
            <g transform="matrix(10,0,0,10,98.8279,118.306)">
                <path d="M0.337,-0.215L0.135,-0.215L0.135,-0.146C0.135,-0.13 0.139,-0.118 0.149,-0.109C0.158,-0.1 0.17,-0.096 0.185,-0.096C0.204,-0.096 0.217,-0.102 0.224,-0.113C0.23,-0.124 0.234,-0.136 0.235,-0.147L0.337,-0.147C0.337,-0.102 0.323,-0.066 0.296,-0.039C0.283,-0.025 0.267,-0.014 0.248,-0.006C0.229,0.002 0.208,0.006 0.185,0.006C0.153,0.006 0.126,-0.001 0.104,-0.014C0.081,-0.027 0.064,-0.045 0.052,-0.067C0.045,-0.08 0.04,-0.096 0.037,-0.113C0.034,-0.13 0.033,-0.149 0.033,-0.17L0.033,-0.337C0.033,-0.358 0.034,-0.377 0.037,-0.394C0.04,-0.411 0.045,-0.427 0.052,-0.44C0.064,-0.462 0.081,-0.48 0.104,-0.493C0.126,-0.506 0.153,-0.513 0.185,-0.513C0.208,-0.513 0.23,-0.509 0.249,-0.501C0.268,-0.493 0.284,-0.482 0.297,-0.468C0.324,-0.438 0.337,-0.4 0.337,-0.355L0.337,-0.215ZM0.135,-0.295L0.235,-0.295L0.235,-0.353C0.235,-0.372 0.231,-0.387 0.222,-0.397C0.213,-0.406 0.2,-0.411 0.185,-0.411C0.17,-0.411 0.158,-0.406 0.149,-0.397C0.139,-0.387 0.135,-0.372 0.135,-0.353L0.135,-0.295Z" style="fill-rule:nonzero;"/>
            </g>
            <g transform="matrix(10,0,0,10,104.388,118.306)">
                <path d="M0.005,0.006L0.137,-0.718L0.217,-0.718L0.085,0.006L0.005,0.006Z" style="fill-rule:nonzero;"/>
            </g>
            <g transform="matrix(10,0,0,10,108.468,118.306)">
                <path d="M0.036,-0.712L0.138,-0.712L0.138,-0.143C0.138,-0.124 0.141,-0.111 0.149,-0.104C0.156,-0.096 0.169,-0.092 0.188,-0.09L0.188,0.006C0.165,0.006 0.144,0.004 0.125,0.001C0.106,-0.003 0.09,-0.01 0.077,-0.021C0.064,-0.031 0.054,-0.045 0.047,-0.064C0.04,-0.082 0.036,-0.106 0.036,-0.136L0.036,-0.712Z" style="fill-rule:nonzero;"/>
            </g>
            <g transform="matrix(10,0,0,10,110.328,118.306)">
                <path d="M0.235,-0L0.235,-0.052L0.233,-0.052C0.22,-0.033 0.206,-0.019 0.193,-0.009C0.179,0.001 0.16,0.006 0.135,0.006C0.123,0.006 0.111,0.004 0.099,0.001C0.086,-0.003 0.074,-0.01 0.063,-0.02C0.052,-0.029 0.043,-0.043 0.036,-0.061C0.029,-0.078 0.025,-0.101 0.025,-0.129C0.025,-0.158 0.027,-0.183 0.032,-0.205C0.037,-0.226 0.045,-0.244 0.058,-0.259C0.07,-0.273 0.086,-0.284 0.107,-0.291C0.128,-0.298 0.154,-0.301 0.186,-0.301L0.197,-0.301C0.201,-0.301 0.205,-0.301 0.208,-0.3C0.211,-0.299 0.215,-0.299 0.22,-0.299C0.225,-0.299 0.23,-0.299 0.235,-0.298L0.235,-0.351C0.235,-0.368 0.231,-0.383 0.224,-0.394C0.217,-0.405 0.203,-0.411 0.184,-0.411C0.171,-0.411 0.159,-0.407 0.148,-0.398C0.136,-0.389 0.129,-0.377 0.126,-0.36L0.027,-0.36C0.03,-0.405 0.045,-0.442 0.073,-0.47C0.086,-0.483 0.102,-0.494 0.121,-0.502C0.14,-0.509 0.161,-0.513 0.184,-0.513C0.205,-0.513 0.225,-0.51 0.244,-0.503C0.263,-0.496 0.279,-0.486 0.293,-0.473C0.306,-0.46 0.317,-0.443 0.325,-0.423C0.333,-0.403 0.337,-0.38 0.337,-0.353L0.337,-0L0.235,-0ZM0.235,-0.218C0.224,-0.22 0.214,-0.221 0.207,-0.221C0.185,-0.221 0.166,-0.216 0.151,-0.206C0.135,-0.195 0.127,-0.176 0.127,-0.149C0.127,-0.13 0.132,-0.114 0.141,-0.102C0.15,-0.09 0.163,-0.084 0.18,-0.084C0.197,-0.084 0.211,-0.09 0.221,-0.101C0.23,-0.112 0.235,-0.128 0.235,-0.149L0.235,-0.218Z" style="fill-rule:nonzero;"/>
            </g>
            <g transform="matrix(10,0,0,10,114.028,118.306)">
                <path d="M0.042,-0.507L0.042,-0.661L0.144,-0.661L0.144,-0.507L0.207,-0.507L0.207,-0.427L0.144,-0.427L0.144,-0.146C0.144,-0.134 0.145,-0.125 0.148,-0.118C0.15,-0.111 0.154,-0.106 0.159,-0.103C0.164,-0.1 0.171,-0.098 0.179,-0.097C0.186,-0.096 0.196,-0.096 0.207,-0.096L0.207,-0L0.165,-0C0.142,-0 0.122,-0.004 0.107,-0.011C0.091,-0.018 0.078,-0.028 0.069,-0.039C0.06,-0.05 0.053,-0.063 0.049,-0.078C0.044,-0.092 0.042,-0.106 0.042,-0.119L0.042,-0.427L-0.009,-0.427L-0.009,-0.507L0.042,-0.507Z" style="fill-rule:nonzero;"/>
            </g>
            <g transform="matrix(10,0,0,10,116.068,118.306)">
                <path d="M0.15,-0.146C0.15,-0.13 0.155,-0.118 0.164,-0.109C0.172,-0.1 0.185,-0.096 0.2,-0.096C0.219,-0.096 0.232,-0.102 0.239,-0.113C0.245,-0.124 0.249,-0.136 0.25,-0.147L0.352,-0.147C0.352,-0.102 0.338,-0.066 0.311,-0.039C0.298,-0.025 0.282,-0.014 0.263,-0.006C0.244,0.002 0.223,0.006 0.2,0.006C0.168,0.006 0.141,-0.001 0.119,-0.014C0.096,-0.027 0.079,-0.045 0.067,-0.067C0.06,-0.08 0.055,-0.096 0.052,-0.113C0.049,-0.13 0.048,-0.149 0.048,-0.17L0.048,-0.337C0.048,-0.358 0.049,-0.377 0.052,-0.394C0.055,-0.411 0.06,-0.427 0.067,-0.44C0.079,-0.462 0.096,-0.48 0.119,-0.493C0.141,-0.506 0.168,-0.513 0.2,-0.513C0.223,-0.513 0.245,-0.509 0.264,-0.501C0.282,-0.493 0.299,-0.482 0.312,-0.468C0.339,-0.438 0.352,-0.399 0.352,-0.351L0.25,-0.351C0.25,-0.372 0.246,-0.387 0.237,-0.397C0.228,-0.406 0.215,-0.411 0.2,-0.411C0.185,-0.411 0.172,-0.406 0.164,-0.397C0.155,-0.387 0.15,-0.372 0.15,-0.353L0.15,-0.146Z" style="fill-rule:nonzero;"/>
            </g>
            <g transform="matrix(10,0,0,10,119.648,118.306)">
                <path d="M0.042,-0L0.042,-0.712L0.144,-0.712L0.144,-0.458L0.146,-0.458C0.157,-0.474 0.169,-0.487 0.185,-0.498C0.2,-0.508 0.219,-0.513 0.242,-0.513C0.255,-0.513 0.267,-0.511 0.28,-0.507C0.293,-0.502 0.304,-0.495 0.314,-0.485C0.324,-0.475 0.332,-0.462 0.338,-0.447C0.344,-0.431 0.347,-0.412 0.347,-0.389L0.347,-0L0.245,-0L0.245,-0.351C0.245,-0.37 0.241,-0.384 0.232,-0.395C0.223,-0.406 0.211,-0.411 0.195,-0.411C0.176,-0.411 0.162,-0.405 0.155,-0.393C0.148,-0.381 0.144,-0.364 0.144,-0.341L0.144,-0L0.042,-0Z" style="fill-rule:nonzero;"/>
            </g>
        </g>
    </g>
    <g id="Latch" transform="matrix(1,0,0,1,-25.4365,-86.6468)">
        <g id="Channel8-led" serif:id="Channel8#led" transform="matrix(1,0,0,1,59.4498,-171.456)">
            <circle cx="42.167" cy="335.861" r="3.82" style="fill:rgb(230,230,230);"/>
        </g>
        <g id="Channel7-led" serif:id="Channel7#led" transform="matrix(1,0,0,1,50.5761,-171.456)">
            <circle cx="42.167" cy="335.861" r="3.82" style="fill:rgb(230,230,230);"/>
        </g>
        <g id="Channel6-led" serif:id="Channel6#led" transform="matrix(1,0,0,1,41.7023,-171.456)">
            <circle cx="42.167" cy="335.861" r="3.82" style="fill:rgb(230,230,230);"/>
        </g>
        <g id="Channel5-led" serif:id="Channel5#led" transform="matrix(1,0,0,1,32.8286,-171.456)">
            <circle cx="42.167" cy="335.861" r="3.82" style="fill:rgb(230,230,230);"/>
        </g>
        <g id="Channel4-led" serif:id="Channel4#led" transform="matrix(1,0,0,1,23.9548,-171.456)">
            <circle cx="42.167" cy="335.861" r="3.82" style="fill:rgb(230,230,230);"/>
        </g>
        <g id="Channel3-led" serif:id="Channel3#led" transform="matrix(1,0,0,1,15.0811,-171.456)">
            <circle cx="42.167" cy="335.861" r="3.82" style="fill:rgb(230,230,230);"/>
        </g>
        <g id="Channel2-led" serif:id="Channel2#led" transform="matrix(1,0,0,1,6.2073,-171.456)">
            <circle cx="42.167" cy="335.861" r="3.82" style="fill:rgb(230,230,230);"/>
        </g>
        <g id="Channel1-led" serif:id="Channel1#led" transform="matrix(1,0,0,1,-2.66646,-171.456)">
            <circle cx="42.167" cy="335.861" r="3.82" style="fill:rgb(230,230,230);"/>
        </g>
        <g transform="matrix(1,0,0,1,-51.6277,38.7987)">
            <g transform="matrix(10,0,0,10,87.4579,118.306)">
                <path d="M0.036,-0.712L0.138,-0.712L0.138,-0.143C0.138,-0.124 0.141,-0.111 0.149,-0.104C0.156,-0.096 0.169,-0.092 0.188,-0.09L0.188,0.006C0.165,0.006 0.144,0.004 0.125,0.001C0.106,-0.003 0.09,-0.01 0.077,-0.021C0.064,-0.031 0.054,-0.045 0.047,-0.064C0.04,-0.082 0.036,-0.106 0.036,-0.136L0.036,-0.712Z" style="fill-rule:nonzero;"/>
            </g>
            <g transform="matrix(10,0,0,10,89.3179,118.306)">
                <path d="M0.235,-0L0.235,-0.052L0.233,-0.052C0.22,-0.033 0.206,-0.019 0.193,-0.009C0.179,0.001 0.16,0.006 0.135,0.006C0.123,0.006 0.111,0.004 0.099,0.001C0.086,-0.003 0.074,-0.01 0.063,-0.02C0.052,-0.029 0.043,-0.043 0.036,-0.061C0.029,-0.078 0.025,-0.101 0.025,-0.129C0.025,-0.158 0.027,-0.183 0.032,-0.205C0.037,-0.226 0.045,-0.244 0.058,-0.259C0.07,-0.273 0.086,-0.284 0.107,-0.291C0.128,-0.298 0.154,-0.301 0.186,-0.301L0.197,-0.301C0.201,-0.301 0.205,-0.301 0.208,-0.3C0.211,-0.299 0.215,-0.299 0.22,-0.299C0.225,-0.299 0.23,-0.299 0.235,-0.298L0.235,-0.351C0.235,-0.368 0.231,-0.383 0.224,-0.394C0.217,-0.405 0.203,-0.411 0.184,-0.411C0.171,-0.411 0.159,-0.407 0.148,-0.398C0.136,-0.389 0.129,-0.377 0.126,-0.36L0.027,-0.36C0.03,-0.405 0.045,-0.442 0.073,-0.47C0.086,-0.483 0.102,-0.494 0.121,-0.502C0.14,-0.509 0.161,-0.513 0.184,-0.513C0.205,-0.513 0.225,-0.51 0.244,-0.503C0.263,-0.496 0.279,-0.486 0.293,-0.473C0.306,-0.46 0.317,-0.443 0.325,-0.423C0.333,-0.403 0.337,-0.38 0.337,-0.353L0.337,-0L0.235,-0ZM0.235,-0.218C0.224,-0.22 0.214,-0.221 0.207,-0.221C0.185,-0.221 0.166,-0.216 0.151,-0.206C0.135,-0.195 0.127,-0.176 0.127,-0.149C0.127,-0.13 0.132,-0.114 0.141,-0.102C0.15,-0.09 0.163,-0.084 0.18,-0.084C0.197,-0.084 0.211,-0.09 0.221,-0.101C0.23,-0.112 0.235,-0.128 0.235,-0.149L0.235,-0.218Z" style="fill-rule:nonzero;"/>
            </g>
            <g transform="matrix(10,0,0,10,93.0179,118.306)">
                <path d="M0.042,-0.507L0.042,-0.661L0.144,-0.661L0.144,-0.507L0.207,-0.507L0.207,-0.427L0.144,-0.427L0.144,-0.146C0.144,-0.134 0.145,-0.125 0.148,-0.118C0.15,-0.111 0.154,-0.106 0.159,-0.103C0.164,-0.1 0.171,-0.098 0.179,-0.097C0.186,-0.096 0.196,-0.096 0.207,-0.096L0.207,-0L0.165,-0C0.142,-0 0.122,-0.004 0.107,-0.011C0.091,-0.018 0.078,-0.028 0.069,-0.039C0.06,-0.05 0.053,-0.063 0.049,-0.078C0.044,-0.092 0.042,-0.106 0.042,-0.119L0.042,-0.427L-0.009,-0.427L-0.009,-0.507L0.042,-0.507Z" style="fill-rule:nonzero;"/>
            </g>
            <g transform="matrix(10,0,0,10,95.0579,118.306)">
                <path d="M0.15,-0.146C0.15,-0.13 0.155,-0.118 0.164,-0.109C0.172,-0.1 0.185,-0.096 0.2,-0.096C0.219,-0.096 0.232,-0.102 0.239,-0.113C0.245,-0.124 0.249,-0.136 0.25,-0.147L0.352,-0.147C0.352,-0.102 0.338,-0.066 0.311,-0.039C0.298,-0.025 0.282,-0.014 0.263,-0.006C0.244,0.002 0.223,0.006 0.2,0.006C0.168,0.006 0.141,-0.001 0.119,-0.014C0.096,-0.027 0.079,-0.045 0.067,-0.067C0.06,-0.08 0.055,-0.096 0.052,-0.113C0.049,-0.13 0.048,-0.149 0.048,-0.17L0.048,-0.337C0.048,-0.358 0.049,-0.377 0.052,-0.394C0.055,-0.411 0.06,-0.427 0.067,-0.44C0.079,-0.462 0.096,-0.48 0.119,-0.493C0.141,-0.506 0.168,-0.513 0.2,-0.513C0.223,-0.513 0.245,-0.509 0.264,-0.501C0.282,-0.493 0.299,-0.482 0.312,-0.468C0.339,-0.438 0.352,-0.399 0.352,-0.351L0.25,-0.351C0.25,-0.372 0.246,-0.387 0.237,-0.397C0.228,-0.406 0.215,-0.411 0.2,-0.411C0.185,-0.411 0.172,-0.406 0.164,-0.397C0.155,-0.387 0.15,-0.372 0.15,-0.353L0.15,-0.146Z" style="fill-rule:nonzero;"/>
            </g>
            <g transform="matrix(10,0,0,10,98.6379,118.306)">
                <path d="M0.042,-0L0.042,-0.712L0.144,-0.712L0.144,-0.458L0.146,-0.458C0.157,-0.474 0.169,-0.487 0.185,-0.498C0.2,-0.508 0.219,-0.513 0.242,-0.513C0.255,-0.513 0.267,-0.511 0.28,-0.507C0.293,-0.502 0.304,-0.495 0.314,-0.485C0.324,-0.475 0.332,-0.462 0.338,-0.447C0.344,-0.431 0.347,-0.412 0.347,-0.389L0.347,-0L0.245,-0L0.245,-0.351C0.245,-0.37 0.241,-0.384 0.232,-0.395C0.223,-0.406 0.211,-0.411 0.195,-0.411C0.176,-0.411 0.162,-0.405 0.155,-0.393C0.148,-0.381 0.144,-0.364 0.144,-0.341L0.144,-0L0.042,-0Z" style="fill-rule:nonzero;"/>
            </g>
        </g>
    </g>
    <g id="Gate" transform="matrix(1,0,0,1,-25.4365,-110.969)">
        <g id="Channel8-led1" serif:id="Channel8#led" transform="matrix(1,0,0,1,59.4498,-171.456)">
            <circle cx="42.167" cy="335.861" r="3.82" style="fill:rgb(230,230,230);"/>
        </g>
        <g id="Channel7-led1" serif:id="Channel7#led" transform="matrix(1,0,0,1,50.5761,-171.456)">
            <circle cx="42.167" cy="335.861" r="3.82" style="fill:rgb(230,230,230);"/>
        </g>
        <g id="Channel6-led1" serif:id="Channel6#led" transform="matrix(1,0,0,1,41.7023,-171.456)">
            <circle cx="42.167" cy="335.861" r="3.82" style="fill:rgb(230,230,230);"/>
        </g>
        <g id="Channel5-led1" serif:id="Channel5#led" transform="matrix(1,0,0,1,32.8286,-171.456)">
            <circle cx="42.167" cy="335.861" r="3.82" style="fill:rgb(230,230,230);"/>
        </g>
        <g id="Channel4-led1" serif:id="Channel4#led" transform="matrix(1,0,0,1,23.9548,-171.456)">
            <circle cx="42.167" cy="335.861" r="3.82" style="fill:rgb(230,230,230);"/>
        </g>
        <g id="Channel3-led1" serif:id="Channel3#led" transform="matrix(1,0,0,1,15.0811,-171.456)">
            <circle cx="42.167" cy="335.861" r="3.82" style="fill:rgb(230,230,230);"/>
        </g>
        <g id="Channel2-led1" serif:id="Channel2#led" transform="matrix(1,0,0,1,6.2073,-171.456)">
            <circle cx="42.167" cy="335.861" r="3.82" style="fill:rgb(230,230,230);"/>
        </g>
        <g id="Channel1-led1" serif:id="Channel1#led" transform="matrix(1,0,0,1,-2.66646,-171.456)">
            <circle cx="42.167" cy="335.861" r="3.82" style="fill:rgb(230,230,230);"/>
        </g>
        <g transform="matrix(1,0,0,1,-52.5727,36.6258)">
            <g transform="matrix(10,0,0,10,89.1979,118.306)">
                <path d="M0.144,0.059C0.145,0.071 0.15,0.082 0.159,0.093C0.168,0.104 0.181,0.109 0.198,0.109C0.215,0.109 0.227,0.104 0.234,0.094C0.241,0.083 0.245,0.07 0.245,0.054L0.245,-0.046L0.243,-0.046C0.232,-0.029 0.218,-0.017 0.203,-0.008C0.187,0.002 0.169,0.006 0.148,0.006C0.105,0.006 0.076,-0.01 0.059,-0.042C0.053,-0.053 0.049,-0.067 0.046,-0.084C0.043,-0.101 0.042,-0.123 0.042,-0.151L0.042,-0.344C0.042,-0.381 0.043,-0.408 0.045,-0.425C0.049,-0.458 0.065,-0.483 0.092,-0.5C0.105,-0.509 0.124,-0.513 0.149,-0.513C0.162,-0.513 0.173,-0.512 0.182,-0.509C0.191,-0.506 0.199,-0.503 0.206,-0.498C0.213,-0.493 0.22,-0.488 0.226,-0.482C0.232,-0.475 0.238,-0.468 0.245,-0.461L0.245,-0.507L0.347,-0.507L0.347,0.062C0.347,0.079 0.344,0.097 0.339,0.115C0.333,0.132 0.324,0.148 0.311,0.162C0.298,0.177 0.282,0.189 0.263,0.198C0.244,0.206 0.221,0.211 0.194,0.211C0.179,0.211 0.163,0.209 0.146,0.204C0.129,0.199 0.114,0.19 0.1,0.178C0.085,0.167 0.073,0.152 0.063,0.133C0.052,0.114 0.045,0.089 0.042,0.059L0.144,0.059ZM0.144,-0.156C0.144,-0.14 0.148,-0.126 0.155,-0.114C0.162,-0.102 0.175,-0.096 0.194,-0.096C0.209,-0.096 0.221,-0.101 0.231,-0.112C0.24,-0.122 0.245,-0.135 0.245,-0.151L0.245,-0.348C0.245,-0.367 0.24,-0.382 0.231,-0.394C0.222,-0.405 0.209,-0.411 0.194,-0.411C0.177,-0.411 0.164,-0.405 0.156,-0.392C0.148,-0.379 0.144,-0.363 0.144,-0.342L0.144,-0.156Z" style="fill-rule:nonzero;"/>
            </g>
            <g transform="matrix(10,0,0,10,93.0879,118.306)">
                <path d="M0.235,-0L0.235,-0.052L0.233,-0.052C0.22,-0.033 0.206,-0.019 0.193,-0.009C0.179,0.001 0.16,0.006 0.135,0.006C0.123,0.006 0.111,0.004 0.099,0.001C0.086,-0.003 0.074,-0.01 0.063,-0.02C0.052,-0.029 0.043,-0.043 0.036,-0.061C0.029,-0.078 0.025,-0.101 0.025,-0.129C0.025,-0.158 0.027,-0.183 0.032,-0.205C0.037,-0.226 0.045,-0.244 0.058,-0.259C0.07,-0.273 0.086,-0.284 0.107,-0.291C0.128,-0.298 0.154,-0.301 0.186,-0.301L0.197,-0.301C0.201,-0.301 0.205,-0.301 0.208,-0.3C0.211,-0.299 0.215,-0.299 0.22,-0.299C0.225,-0.299 0.23,-0.299 0.235,-0.298L0.235,-0.351C0.235,-0.368 0.231,-0.383 0.224,-0.394C0.217,-0.405 0.203,-0.411 0.184,-0.411C0.171,-0.411 0.159,-0.407 0.148,-0.398C0.136,-0.389 0.129,-0.377 0.126,-0.36L0.027,-0.36C0.03,-0.405 0.045,-0.442 0.073,-0.47C0.086,-0.483 0.102,-0.494 0.121,-0.502C0.14,-0.509 0.161,-0.513 0.184,-0.513C0.205,-0.513 0.225,-0.51 0.244,-0.503C0.263,-0.496 0.279,-0.486 0.293,-0.473C0.306,-0.46 0.317,-0.443 0.325,-0.423C0.333,-0.403 0.337,-0.38 0.337,-0.353L0.337,-0L0.235,-0ZM0.235,-0.218C0.224,-0.22 0.214,-0.221 0.207,-0.221C0.185,-0.221 0.166,-0.216 0.151,-0.206C0.135,-0.195 0.127,-0.176 0.127,-0.149C0.127,-0.13 0.132,-0.114 0.141,-0.102C0.15,-0.09 0.163,-0.084 0.18,-0.084C0.197,-0.084 0.211,-0.09 0.221,-0.101C0.23,-0.112 0.235,-0.128 0.235,-0.149L0.235,-0.218Z" style="fill-rule:nonzero;"/>
            </g>
            <g transform="matrix(10,0,0,10,96.7879,118.306)">
                <path d="M0.042,-0.507L0.042,-0.661L0.144,-0.661L0.144,-0.507L0.207,-0.507L0.207,-0.427L0.144,-0.427L0.144,-0.146C0.144,-0.134 0.145,-0.125 0.148,-0.118C0.15,-0.111 0.154,-0.106 0.159,-0.103C0.164,-0.1 0.171,-0.098 0.179,-0.097C0.186,-0.096 0.196,-0.096 0.207,-0.096L0.207,-0L0.165,-0C0.142,-0 0.122,-0.004 0.107,-0.011C0.091,-0.018 0.078,-0.028 0.069,-0.039C0.06,-0.05 0.053,-0.063 0.049,-0.078C0.044,-0.092 0.042,-0.106 0.042,-0.119L0.042,-0.427L-0.009,-0.427L-0.009,-0.507L0.042,-0.507Z" style="fill-rule:nonzero;"/>
            </g>
            <g transform="matrix(10,0,0,10,98.8279,118.306)">
                <path d="M0.337,-0.215L0.135,-0.215L0.135,-0.146C0.135,-0.13 0.139,-0.118 0.149,-0.109C0.158,-0.1 0.17,-0.096 0.185,-0.096C0.204,-0.096 0.217,-0.102 0.224,-0.113C0.23,-0.124 0.234,-0.136 0.235,-0.147L0.337,-0.147C0.337,-0.102 0.323,-0.066 0.296,-0.039C0.283,-0.025 0.267,-0.014 0.248,-0.006C0.229,0.002 0.208,0.006 0.185,0.006C0.153,0.006 0.126,-0.001 0.104,-0.014C0.081,-0.027 0.064,-0.045 0.052,-0.067C0.045,-0.08 0.04,-0.096 0.037,-0.113C0.034,-0.13 0.033,-0.149 0.033,-0.17L0.033,-0.337C0.033,-0.358 0.034,-0.377 0.037,-0.394C0.04,-0.411 0.045,-0.427 0.052,-0.44C0.064,-0.462 0.081,-0.48 0.104,-0.493C0.126,-0.506 0.153,-0.513 0.185,-0.513C0.208,-0.513 0.23,-0.509 0.249,-0.501C0.268,-0.493 0.284,-0.482 0.297,-0.468C0.324,-0.438 0.337,-0.4 0.337,-0.355L0.337,-0.215ZM0.135,-0.295L0.235,-0.295L0.235,-0.353C0.235,-0.372 0.231,-0.387 0.222,-0.397C0.213,-0.406 0.2,-0.411 0.185,-0.411C0.17,-0.411 0.158,-0.406 0.149,-0.397C0.139,-0.387 0.135,-0.372 0.135,-0.353L0.135,-0.295Z" style="fill-rule:nonzero;"/>
            </g>
        </g>
    </g>
    <g transform="matrix(0.816456,0,0,0.816456,9.52626,-230.704)">
        <g transform="matrix(1,0,0,1,-54.3899,-48.5287)">
            <g transform="matrix(14.6977,0,0,14.6977,82.7813,355.099)">
                <path d="M0.712,-0.713C0.72,-0.713 0.729,-0.713 0.739,-0.714C0.749,-0.714 0.759,-0.714 0.768,-0.715L0.803,-0.716C0.814,-0.716 0.82,-0.713 0.82,-0.706C0.82,-0.7 0.818,-0.696 0.813,-0.693C0.808,-0.69 0.803,-0.688 0.797,-0.687C0.79,-0.686 0.784,-0.685 0.777,-0.685C0.77,-0.684 0.765,-0.683 0.761,-0.681C0.73,-0.622 0.7,-0.564 0.672,-0.507C0.643,-0.449 0.615,-0.394 0.588,-0.342C0.561,-0.289 0.536,-0.241 0.513,-0.197C0.489,-0.152 0.468,-0.114 0.449,-0.081C0.43,-0.048 0.413,-0.023 0.399,-0.004C0.385,0.015 0.374,0.024 0.367,0.024C0.364,0.022 0.36,0.019 0.357,0.015C0.354,0.01 0.35,0.004 0.347,-0.003C0.337,-0.024 0.326,-0.049 0.313,-0.078C0.3,-0.107 0.287,-0.139 0.273,-0.173C0.259,-0.207 0.244,-0.242 0.229,-0.279C0.214,-0.315 0.198,-0.351 0.183,-0.387L0.162,-0.437C0.151,-0.465 0.14,-0.493 0.129,-0.52C0.118,-0.547 0.109,-0.573 0.1,-0.596C0.091,-0.619 0.083,-0.638 0.076,-0.654C0.069,-0.67 0.063,-0.681 0.058,-0.686C0.041,-0.686 0.028,-0.686 0.019,-0.687C0.01,-0.688 0.003,-0.689 -0.002,-0.69C-0.007,-0.691 -0.01,-0.692 -0.011,-0.694C-0.012,-0.695 -0.013,-0.697 -0.013,-0.699C-0.013,-0.704 -0.012,-0.708 -0.009,-0.711C-0.006,-0.714 -0.004,-0.716 -0.001,-0.716L0.046,-0.715C0.058,-0.714 0.072,-0.714 0.087,-0.713C0.102,-0.712 0.118,-0.712 0.133,-0.712C0.191,-0.712 0.233,-0.713 0.259,-0.716C0.285,-0.718 0.301,-0.719 0.306,-0.719C0.319,-0.719 0.325,-0.716 0.325,-0.709C0.325,-0.708 0.325,-0.706 0.324,-0.704C0.323,-0.701 0.322,-0.699 0.319,-0.696C0.316,-0.693 0.311,-0.691 0.304,-0.689C0.297,-0.687 0.287,-0.686 0.275,-0.686C0.266,-0.686 0.258,-0.686 0.25,-0.687C0.241,-0.687 0.235,-0.687 0.23,-0.688C0.23,-0.683 0.234,-0.669 0.241,-0.645C0.248,-0.621 0.258,-0.592 0.27,-0.557C0.281,-0.522 0.295,-0.485 0.31,-0.444C0.325,-0.403 0.339,-0.364 0.355,-0.326C0.37,-0.287 0.384,-0.252 0.398,-0.221C0.411,-0.189 0.423,-0.165 0.433,-0.148C0.438,-0.155 0.447,-0.17 0.458,-0.192C0.469,-0.214 0.482,-0.24 0.496,-0.271C0.51,-0.302 0.525,-0.335 0.54,-0.371C0.555,-0.407 0.568,-0.443 0.581,-0.478C0.593,-0.513 0.603,-0.546 0.611,-0.577C0.619,-0.608 0.623,-0.633 0.623,-0.653C0.623,-0.66 0.623,-0.667 0.622,-0.674C0.62,-0.681 0.617,-0.686 0.612,-0.687C0.595,-0.687 0.58,-0.687 0.57,-0.688C0.559,-0.689 0.55,-0.69 0.543,-0.691C0.536,-0.692 0.531,-0.693 0.527,-0.695C0.523,-0.696 0.519,-0.698 0.516,-0.699C0.514,-0.702 0.513,-0.706 0.513,-0.711C0.513,-0.716 0.515,-0.719 0.519,-0.719L0.532,-0.719C0.539,-0.718 0.552,-0.717 0.569,-0.717C0.586,-0.716 0.612,-0.714 0.646,-0.713L0.712,-0.713Z" style="fill-rule:nonzero;"/>
            </g>
            <g transform="matrix(14.6977,0,0,14.6977,93.731,355.099)">
                <path d="M0.523,0.005C0.516,0.005 0.507,0.005 0.496,0.006C0.485,0.007 0.472,0.007 0.46,0.008C0.447,0.008 0.433,0.008 0.42,0.009C0.406,0.01 0.393,0.01 0.382,0.01C0.337,0.01 0.294,0.003 0.251,-0.011C0.208,-0.024 0.171,-0.046 0.138,-0.075C0.105,-0.103 0.078,-0.141 0.058,-0.187C0.037,-0.232 0.027,-0.287 0.027,-0.351C0.027,-0.41 0.038,-0.462 0.061,-0.507C0.083,-0.552 0.112,-0.59 0.149,-0.621C0.186,-0.652 0.227,-0.675 0.273,-0.691C0.319,-0.707 0.366,-0.715 0.414,-0.715C0.425,-0.715 0.439,-0.714 0.458,-0.713C0.476,-0.712 0.494,-0.71 0.513,-0.708C0.531,-0.706 0.547,-0.704 0.562,-0.702C0.576,-0.699 0.585,-0.697 0.589,-0.695C0.598,-0.718 0.607,-0.739 0.618,-0.757C0.629,-0.775 0.643,-0.789 0.662,-0.798C0.667,-0.8 0.673,-0.8 0.68,-0.799C0.687,-0.798 0.69,-0.794 0.69,-0.789C0.687,-0.783 0.684,-0.779 0.683,-0.778C0.681,-0.777 0.679,-0.776 0.676,-0.776C0.668,-0.776 0.66,-0.772 0.653,-0.765C0.645,-0.758 0.638,-0.748 0.631,-0.737C0.624,-0.725 0.619,-0.712 0.614,-0.697C0.608,-0.682 0.605,-0.666 0.602,-0.651C0.601,-0.644 0.599,-0.635 0.598,-0.626C0.596,-0.616 0.594,-0.606 0.593,-0.597C0.592,-0.588 0.591,-0.579 0.59,-0.57C0.589,-0.561 0.589,-0.554 0.589,-0.548C0.589,-0.545 0.588,-0.542 0.585,-0.54C0.582,-0.537 0.58,-0.536 0.577,-0.536C0.573,-0.536 0.568,-0.538 0.563,-0.542C0.56,-0.559 0.555,-0.575 0.547,-0.592C0.538,-0.609 0.527,-0.624 0.512,-0.637C0.497,-0.65 0.478,-0.661 0.456,-0.669C0.433,-0.677 0.407,-0.681 0.376,-0.681C0.343,-0.681 0.314,-0.673 0.289,-0.658C0.263,-0.643 0.241,-0.622 0.224,-0.595C0.206,-0.568 0.192,-0.537 0.183,-0.5C0.174,-0.463 0.169,-0.424 0.169,-0.382C0.169,-0.324 0.175,-0.273 0.187,-0.228C0.198,-0.183 0.214,-0.144 0.235,-0.113C0.256,-0.082 0.28,-0.058 0.309,-0.042C0.338,-0.025 0.369,-0.017 0.403,-0.017C0.426,-0.017 0.448,-0.021 0.47,-0.028C0.491,-0.035 0.511,-0.045 0.53,-0.058C0.548,-0.071 0.564,-0.085 0.579,-0.102C0.593,-0.119 0.604,-0.136 0.612,-0.155C0.613,-0.158 0.617,-0.16 0.623,-0.161C0.628,-0.162 0.631,-0.162 0.631,-0.159C0.631,-0.15 0.628,-0.138 0.623,-0.124C0.617,-0.109 0.61,-0.094 0.603,-0.079C0.596,-0.064 0.588,-0.05 0.581,-0.038C0.574,-0.025 0.569,-0.017 0.566,-0.013C0.564,-0.008 0.562,-0.002 0.559,0.006C0.556,0.013 0.553,0.022 0.551,0.032C0.548,0.041 0.546,0.051 0.544,0.062C0.542,0.072 0.541,0.082 0.541,0.092C0.541,0.103 0.54,0.109 0.537,0.112C0.534,0.115 0.529,0.116 0.52,0.116C0.513,0.116 0.509,0.111 0.51,0.101C0.511,0.09 0.512,0.078 0.515,0.065C0.518,0.052 0.52,0.039 0.523,0.028C0.526,0.016 0.526,0.008 0.523,0.005Z" style="fill-rule:nonzero;"/>
            </g>
            <g transform="matrix(14.6977,0,0,14.6977,103.226,355.099)">
                <path d="M0.62,-0.049C0.624,-0.033 0.638,-0.023 0.662,-0.019C0.668,-0.018 0.671,-0.015 0.671,-0.009C0.671,-0.006 0.669,-0.003 0.666,-0C0.663,0.003 0.658,0.004 0.653,0.004C0.643,0.004 0.63,0.003 0.613,0.002C0.596,0.001 0.573,-0 0.542,-0C0.517,-0 0.496,0.001 0.477,0.003C0.458,0.004 0.447,0.005 0.443,0.006C0.44,0.006 0.437,0.005 0.436,0.003C0.435,0.001 0.434,-0.001 0.434,-0.004C0.434,-0.007 0.435,-0.009 0.436,-0.012C0.436,-0.015 0.438,-0.016 0.44,-0.016C0.445,-0.017 0.449,-0.018 0.454,-0.02C0.459,-0.022 0.463,-0.025 0.467,-0.028C0.469,-0.03 0.472,-0.041 0.475,-0.06C0.478,-0.079 0.48,-0.105 0.483,-0.137C0.485,-0.168 0.487,-0.205 0.489,-0.246C0.49,-0.287 0.491,-0.331 0.491,-0.377L0.491,-0.485C0.491,-0.518 0.489,-0.545 0.486,-0.566C0.48,-0.61 0.466,-0.644 0.444,-0.668C0.422,-0.691 0.396,-0.703 0.367,-0.703C0.341,-0.703 0.315,-0.696 0.29,-0.682C0.265,-0.667 0.242,-0.646 0.222,-0.619C0.202,-0.591 0.186,-0.556 0.174,-0.516C0.161,-0.474 0.155,-0.428 0.155,-0.375C0.155,-0.317 0.162,-0.267 0.175,-0.224C0.188,-0.181 0.205,-0.145 0.226,-0.116C0.247,-0.087 0.272,-0.065 0.3,-0.051C0.327,-0.036 0.356,-0.029 0.386,-0.029L0.392,-0.029C0.394,-0.029 0.396,-0.029 0.397,-0.03C0.4,-0.031 0.401,-0.031 0.402,-0.03C0.403,-0.029 0.403,-0.027 0.402,-0.025C0.401,-0.022 0.401,-0.02 0.4,-0.018C0.399,-0.015 0.397,-0.014 0.396,-0.013C0.389,-0.008 0.38,-0.004 0.368,-0.001C0.356,0.003 0.339,0.005 0.318,0.005C0.283,0.005 0.248,-0.003 0.213,-0.02C0.178,-0.036 0.146,-0.059 0.119,-0.088C0.091,-0.117 0.069,-0.153 0.052,-0.195C0.035,-0.236 0.026,-0.282 0.026,-0.332C0.026,-0.403 0.036,-0.464 0.057,-0.515C0.078,-0.566 0.106,-0.607 0.142,-0.639C0.177,-0.671 0.219,-0.695 0.266,-0.71C0.313,-0.724 0.363,-0.732 0.416,-0.732C0.435,-0.732 0.453,-0.73 0.469,-0.726C0.485,-0.722 0.499,-0.717 0.511,-0.712C0.523,-0.706 0.533,-0.7 0.541,-0.695C0.548,-0.69 0.553,-0.686 0.556,-0.683C0.561,-0.687 0.572,-0.692 0.589,-0.698C0.605,-0.703 0.623,-0.708 0.645,-0.714C0.666,-0.719 0.687,-0.723 0.71,-0.727C0.733,-0.73 0.753,-0.732 0.772,-0.732C0.823,-0.731 0.867,-0.722 0.906,-0.707C0.944,-0.692 0.976,-0.671 1.002,-0.646C1.027,-0.62 1.047,-0.59 1.06,-0.557C1.073,-0.523 1.079,-0.487 1.079,-0.449C1.079,-0.378 1.069,-0.314 1.051,-0.259C1.032,-0.203 1.006,-0.156 0.974,-0.117C0.942,-0.078 0.905,-0.049 0.863,-0.029C0.821,-0.008 0.777,0.002 0.731,0.002C0.727,0.002 0.724,0.001 0.723,-0.003C0.722,-0.006 0.721,-0.009 0.722,-0.012C0.722,-0.015 0.723,-0.018 0.725,-0.021C0.727,-0.023 0.729,-0.024 0.731,-0.023C0.734,-0.022 0.737,-0.021 0.739,-0.021L0.747,-0.021C0.774,-0.021 0.8,-0.03 0.824,-0.049C0.848,-0.068 0.869,-0.093 0.887,-0.127C0.905,-0.16 0.919,-0.198 0.93,-0.244C0.94,-0.289 0.945,-0.338 0.945,-0.391C0.945,-0.49 0.93,-0.568 0.9,-0.623C0.869,-0.678 0.822,-0.706 0.759,-0.706C0.74,-0.706 0.722,-0.702 0.705,-0.694C0.688,-0.686 0.674,-0.676 0.662,-0.663C0.649,-0.65 0.639,-0.635 0.632,-0.618C0.624,-0.601 0.619,-0.584 0.617,-0.567C0.614,-0.544 0.612,-0.506 0.611,-0.455C0.61,-0.404 0.61,-0.342 0.609,-0.269C0.608,-0.216 0.609,-0.169 0.611,-0.13C0.612,-0.09 0.615,-0.063 0.62,-0.049Z" style="fill-rule:nonzero;"/>
            </g>
            <g transform="matrix(14.6977,0,0,14.6977,119.408,355.099)">
                <path d="M0.523,0.005C0.516,0.005 0.507,0.005 0.496,0.006C0.485,0.007 0.472,0.007 0.46,0.008C0.447,0.008 0.433,0.008 0.42,0.009C0.406,0.01 0.393,0.01 0.382,0.01C0.337,0.01 0.294,0.003 0.251,-0.011C0.208,-0.024 0.171,-0.046 0.138,-0.075C0.105,-0.103 0.078,-0.141 0.058,-0.187C0.037,-0.232 0.027,-0.287 0.027,-0.351C0.027,-0.41 0.038,-0.462 0.061,-0.507C0.083,-0.552 0.112,-0.59 0.149,-0.621C0.186,-0.652 0.227,-0.675 0.273,-0.691C0.319,-0.707 0.366,-0.715 0.414,-0.715C0.425,-0.715 0.439,-0.714 0.458,-0.713C0.476,-0.712 0.494,-0.71 0.513,-0.708C0.531,-0.706 0.547,-0.704 0.562,-0.702C0.576,-0.699 0.585,-0.697 0.589,-0.695C0.598,-0.718 0.607,-0.739 0.618,-0.757C0.629,-0.775 0.643,-0.789 0.662,-0.798C0.667,-0.8 0.673,-0.8 0.68,-0.799C0.687,-0.798 0.69,-0.794 0.69,-0.789C0.687,-0.783 0.684,-0.779 0.683,-0.778C0.681,-0.777 0.679,-0.776 0.676,-0.776C0.668,-0.776 0.66,-0.772 0.653,-0.765C0.645,-0.758 0.638,-0.748 0.631,-0.737C0.624,-0.725 0.619,-0.712 0.614,-0.697C0.608,-0.682 0.605,-0.666 0.602,-0.651C0.601,-0.644 0.599,-0.635 0.598,-0.626C0.596,-0.616 0.594,-0.606 0.593,-0.597C0.592,-0.588 0.591,-0.579 0.59,-0.57C0.589,-0.561 0.589,-0.554 0.589,-0.548C0.589,-0.545 0.588,-0.542 0.585,-0.54C0.582,-0.537 0.58,-0.536 0.577,-0.536C0.573,-0.536 0.568,-0.538 0.563,-0.542C0.56,-0.559 0.555,-0.575 0.547,-0.592C0.538,-0.609 0.527,-0.624 0.512,-0.637C0.497,-0.65 0.478,-0.661 0.456,-0.669C0.433,-0.677 0.407,-0.681 0.376,-0.681C0.343,-0.681 0.314,-0.673 0.289,-0.658C0.263,-0.643 0.241,-0.622 0.224,-0.595C0.206,-0.568 0.192,-0.537 0.183,-0.5C0.174,-0.463 0.169,-0.424 0.169,-0.382C0.169,-0.324 0.175,-0.273 0.187,-0.228C0.198,-0.183 0.214,-0.144 0.235,-0.113C0.256,-0.082 0.28,-0.058 0.309,-0.042C0.338,-0.025 0.369,-0.017 0.403,-0.017C0.426,-0.017 0.448,-0.021 0.47,-0.028C0.491,-0.035 0.511,-0.045 0.53,-0.058C0.548,-0.071 0.564,-0.085 0.579,-0.102C0.593,-0.119 0.604,-0.136 0.612,-0.155C0.613,-0.158 0.617,-0.16 0.623,-0.161C0.628,-0.162 0.631,-0.162 0.631,-0.159C0.631,-0.15 0.628,-0.138 0.623,-0.124C0.617,-0.109 0.61,-0.094 0.603,-0.079C0.596,-0.064 0.588,-0.05 0.581,-0.038C0.574,-0.025 0.569,-0.017 0.566,-0.013C0.564,-0.008 0.562,-0.002 0.559,0.006C0.556,0.013 0.553,0.022 0.551,0.032C0.548,0.041 0.546,0.051 0.544,0.062C0.542,0.072 0.541,0.082 0.541,0.092C0.541,0.103 0.54,0.109 0.537,0.112C0.534,0.115 0.529,0.116 0.52,0.116C0.513,0.116 0.509,0.111 0.51,0.101C0.511,0.09 0.512,0.078 0.515,0.065C0.518,0.052 0.52,0.039 0.523,0.028C0.526,0.016 0.526,0.008 0.523,0.005Z" style="fill-rule:nonzero;"/>
            </g>
            <g transform="matrix(14.6977,0,0,14.6977,82.7813,369.797)">
                <path d="M0.254,-0.219C0.254,-0.185 0.255,-0.152 0.256,-0.12C0.257,-0.087 0.261,-0.061 0.267,-0.041C0.279,-0.034 0.293,-0.029 0.308,-0.028C0.323,-0.026 0.337,-0.025 0.35,-0.024C0.363,-0.023 0.375,-0.022 0.384,-0.02C0.393,-0.018 0.397,-0.014 0.397,-0.007C0.397,-0.004 0.395,-0.001 0.392,0.002C0.389,0.004 0.383,0.005 0.376,0.005C0.357,0.006 0.33,0.005 0.297,0.003C0.264,0 0.226,-0.001 0.183,-0.001C0.128,-0.001 0.087,0.001 0.06,0.005C0.032,0.008 0.015,0.01 0.01,0.01C0.005,0.01 0.001,0.009 -0.002,0.007C-0.005,0.004 -0.007,0.001 -0.007,-0.003C-0.007,-0.012 -0.003,-0.016 0.005,-0.017C0.013,-0.018 0.028,-0.02 0.05,-0.023C0.065,-0.024 0.077,-0.026 0.086,-0.029C0.095,-0.031 0.105,-0.034 0.114,-0.037C0.118,-0.052 0.121,-0.067 0.124,-0.082C0.127,-0.097 0.129,-0.117 0.131,-0.14C0.133,-0.163 0.135,-0.191 0.136,-0.226C0.137,-0.26 0.137,-0.304 0.137,-0.358C0.137,-0.407 0.137,-0.449 0.136,-0.484C0.135,-0.518 0.134,-0.547 0.133,-0.57C0.131,-0.592 0.129,-0.611 0.128,-0.624C0.126,-0.637 0.124,-0.648 0.122,-0.655C0.113,-0.661 0.102,-0.665 0.088,-0.667C0.074,-0.668 0.06,-0.67 0.047,-0.671C0.034,-0.672 0.022,-0.673 0.013,-0.675C0.003,-0.677 -0.002,-0.682 -0.002,-0.689C-0.002,-0.698 0.003,-0.702 0.014,-0.702C0.026,-0.702 0.047,-0.701 0.076,-0.698C0.105,-0.695 0.14,-0.693 0.182,-0.693C0.189,-0.693 0.194,-0.694 0.198,-0.696C0.205,-0.699 0.215,-0.704 0.23,-0.71C0.245,-0.716 0.262,-0.722 0.281,-0.728C0.3,-0.734 0.321,-0.739 0.343,-0.744C0.364,-0.749 0.385,-0.751 0.406,-0.751C0.439,-0.751 0.471,-0.747 0.501,-0.74C0.531,-0.732 0.557,-0.72 0.58,-0.705C0.602,-0.69 0.62,-0.671 0.633,-0.648C0.646,-0.625 0.653,-0.599 0.653,-0.569C0.653,-0.54 0.646,-0.513 0.633,-0.488C0.619,-0.462 0.602,-0.44 0.581,-0.419C0.56,-0.398 0.538,-0.381 0.513,-0.366C0.488,-0.351 0.465,-0.339 0.444,-0.33C0.471,-0.33 0.497,-0.327 0.522,-0.322C0.546,-0.316 0.568,-0.308 0.588,-0.298C0.607,-0.287 0.624,-0.275 0.637,-0.26C0.65,-0.245 0.658,-0.229 0.662,-0.21C0.662,-0.201 0.661,-0.195 0.66,-0.192C0.658,-0.189 0.655,-0.184 0.65,-0.177C0.663,-0.156 0.678,-0.13 0.695,-0.102C0.711,-0.073 0.729,-0.045 0.75,-0.019C0.77,0.008 0.793,0.03 0.818,0.049C0.842,0.067 0.87,0.076 0.901,0.076C0.907,0.076 0.914,0.076 0.922,0.075C0.929,0.074 0.937,0.073 0.944,0.071C0.951,0.069 0.957,0.066 0.963,0.062C0.969,0.058 0.973,0.053 0.976,0.046C0.979,0.044 0.981,0.043 0.984,0.043C0.987,0.043 0.99,0.045 0.991,0.048C0.991,0.051 0.992,0.055 0.993,0.058C0.98,0.088 0.947,0.103 0.894,0.103C0.867,0.103 0.842,0.099 0.818,0.09C0.793,0.081 0.77,0.07 0.748,0.056C0.725,0.041 0.704,0.025 0.684,0.006C0.663,-0.013 0.644,-0.032 0.626,-0.052C0.613,-0.067 0.597,-0.085 0.58,-0.107C0.562,-0.129 0.543,-0.152 0.523,-0.175C0.503,-0.198 0.482,-0.219 0.461,-0.24C0.439,-0.26 0.417,-0.276 0.396,-0.287C0.386,-0.292 0.375,-0.295 0.362,-0.298C0.349,-0.3 0.337,-0.302 0.326,-0.303C0.314,-0.304 0.303,-0.304 0.293,-0.304L0.27,-0.304L0.254,-0.303L0.254,-0.219ZM0.271,-0.64C0.268,-0.627 0.265,-0.61 0.263,-0.587C0.261,-0.564 0.259,-0.54 0.258,-0.513C0.257,-0.486 0.256,-0.458 0.255,-0.429C0.254,-0.4 0.254,-0.372 0.254,-0.346C0.261,-0.341 0.274,-0.338 0.293,-0.337C0.312,-0.336 0.332,-0.336 0.354,-0.336C0.373,-0.336 0.39,-0.338 0.403,-0.341C0.416,-0.344 0.428,-0.35 0.439,-0.359C0.446,-0.364 0.453,-0.371 0.462,-0.382C0.47,-0.393 0.478,-0.405 0.486,-0.42C0.493,-0.435 0.5,-0.451 0.505,-0.47C0.51,-0.488 0.513,-0.507 0.513,-0.528C0.513,-0.558 0.51,-0.585 0.503,-0.609C0.496,-0.632 0.487,-0.653 0.476,-0.67C0.465,-0.687 0.451,-0.7 0.436,-0.709C0.421,-0.717 0.404,-0.722 0.387,-0.722C0.378,-0.722 0.367,-0.72 0.356,-0.717C0.344,-0.713 0.332,-0.708 0.321,-0.702C0.31,-0.696 0.3,-0.689 0.291,-0.682C0.282,-0.674 0.277,-0.666 0.274,-0.657L0.271,-0.64Z" style="fill-rule:nonzero;"/>
            </g>
            <g transform="matrix(14.6977,0,0,14.6977,93.8339,369.797)">
                <path d="M0.494,-0.117C0.487,-0.109 0.475,-0.098 0.46,-0.084C0.445,-0.07 0.426,-0.056 0.405,-0.042C0.383,-0.028 0.359,-0.016 0.332,-0.006C0.305,0.004 0.277,0.009 0.247,0.009C0.22,0.009 0.193,0.005 0.167,-0.004C0.141,-0.012 0.118,-0.025 0.097,-0.042C0.076,-0.059 0.06,-0.08 0.048,-0.107C0.035,-0.133 0.029,-0.164 0.029,-0.201C0.029,-0.231 0.031,-0.257 0.035,-0.279C0.039,-0.3 0.044,-0.319 0.051,-0.336C0.058,-0.352 0.065,-0.366 0.074,-0.378C0.082,-0.389 0.09,-0.4 0.099,-0.409C0.11,-0.421 0.123,-0.432 0.138,-0.443C0.153,-0.454 0.17,-0.463 0.188,-0.472C0.205,-0.481 0.224,-0.488 0.244,-0.493C0.263,-0.498 0.283,-0.5 0.303,-0.5C0.339,-0.5 0.367,-0.494 0.388,-0.482C0.408,-0.47 0.418,-0.453 0.418,-0.432C0.418,-0.419 0.414,-0.406 0.406,-0.395C0.413,-0.397 0.421,-0.4 0.432,-0.405C0.442,-0.41 0.452,-0.415 0.463,-0.42C0.474,-0.424 0.483,-0.429 0.492,-0.433C0.5,-0.437 0.505,-0.44 0.508,-0.442C0.509,-0.443 0.511,-0.444 0.513,-0.444C0.514,-0.443 0.515,-0.442 0.515,-0.44C0.515,-0.431 0.513,-0.424 0.51,-0.419C0.507,-0.413 0.503,-0.408 0.498,-0.405C0.487,-0.398 0.472,-0.39 0.452,-0.38C0.432,-0.37 0.41,-0.36 0.386,-0.349C0.361,-0.338 0.336,-0.327 0.31,-0.316C0.284,-0.305 0.26,-0.294 0.237,-0.284C0.214,-0.274 0.194,-0.265 0.177,-0.258C0.16,-0.25 0.148,-0.244 0.142,-0.241C0.142,-0.218 0.147,-0.197 0.156,-0.178C0.165,-0.158 0.177,-0.141 0.193,-0.126C0.209,-0.111 0.228,-0.1 0.251,-0.092C0.273,-0.083 0.297,-0.079 0.324,-0.079C0.348,-0.079 0.37,-0.082 0.389,-0.087C0.408,-0.092 0.425,-0.097 0.438,-0.104C0.451,-0.11 0.462,-0.116 0.47,-0.121C0.477,-0.126 0.481,-0.128 0.482,-0.128C0.485,-0.128 0.487,-0.127 0.49,-0.125C0.493,-0.122 0.494,-0.12 0.494,-0.117ZM0.142,-0.27C0.153,-0.274 0.166,-0.279 0.181,-0.285C0.195,-0.29 0.209,-0.296 0.223,-0.303C0.236,-0.31 0.249,-0.316 0.26,-0.322C0.271,-0.328 0.28,-0.333 0.286,-0.338C0.298,-0.347 0.304,-0.361 0.304,-0.382C0.304,-0.39 0.303,-0.398 0.3,-0.407C0.297,-0.416 0.292,-0.424 0.286,-0.431C0.28,-0.438 0.273,-0.443 0.264,-0.448C0.255,-0.452 0.246,-0.454 0.235,-0.454C0.226,-0.454 0.216,-0.451 0.205,-0.445C0.194,-0.438 0.184,-0.428 0.175,-0.414C0.166,-0.399 0.158,-0.38 0.152,-0.357C0.145,-0.333 0.142,-0.304 0.142,-0.27Z" style="fill-rule:nonzero;"/>
            </g>
            <g transform="matrix(14.6977,0,0,14.6977,100.536,369.797)">
                <path d="M0.451,-0.454C0.45,-0.45 0.446,-0.444 0.44,-0.436C0.433,-0.427 0.426,-0.419 0.417,-0.41C0.408,-0.401 0.399,-0.392 0.39,-0.384C0.38,-0.375 0.371,-0.369 0.364,-0.365C0.359,-0.363 0.357,-0.364 0.356,-0.367C0.355,-0.37 0.354,-0.374 0.354,-0.377C0.354,-0.382 0.351,-0.389 0.346,-0.397C0.34,-0.405 0.332,-0.413 0.322,-0.421C0.311,-0.428 0.299,-0.435 0.285,-0.44C0.271,-0.445 0.256,-0.448 0.239,-0.448C0.21,-0.448 0.187,-0.433 0.169,-0.402C0.151,-0.371 0.142,-0.329 0.142,-0.278C0.142,-0.247 0.147,-0.219 0.157,-0.194C0.166,-0.169 0.18,-0.148 0.197,-0.131C0.214,-0.114 0.234,-0.1 0.258,-0.092C0.282,-0.083 0.308,-0.078 0.336,-0.078C0.374,-0.078 0.404,-0.083 0.427,-0.093C0.45,-0.102 0.468,-0.113 0.483,-0.126C0.484,-0.126 0.484,-0.126 0.485,-0.127C0.485,-0.128 0.485,-0.128 0.486,-0.128C0.489,-0.128 0.492,-0.127 0.493,-0.125C0.494,-0.122 0.495,-0.119 0.495,-0.116C0.495,-0.113 0.494,-0.111 0.493,-0.11C0.483,-0.102 0.469,-0.091 0.452,-0.078C0.434,-0.065 0.414,-0.051 0.391,-0.039C0.368,-0.025 0.345,-0.014 0.32,-0.005C0.295,0.004 0.271,0.009 0.247,0.009C0.178,0.009 0.125,-0.011 0.087,-0.051C0.048,-0.091 0.029,-0.146 0.029,-0.215C0.029,-0.268 0.039,-0.312 0.06,-0.348C0.08,-0.384 0.105,-0.413 0.135,-0.435C0.164,-0.456 0.196,-0.472 0.229,-0.481C0.262,-0.49 0.292,-0.495 0.317,-0.495C0.338,-0.495 0.356,-0.494 0.373,-0.491C0.389,-0.488 0.403,-0.484 0.415,-0.48C0.426,-0.475 0.435,-0.471 0.442,-0.466C0.448,-0.461 0.451,-0.457 0.451,-0.454Z" style="fill-rule:nonzero;"/>
            </g>
            <g transform="matrix(14.6977,0,0,14.6977,107.106,369.797)">
                <path d="M0.494,-0.117C0.487,-0.109 0.475,-0.098 0.46,-0.084C0.445,-0.07 0.426,-0.056 0.405,-0.042C0.383,-0.028 0.359,-0.016 0.332,-0.006C0.305,0.004 0.277,0.009 0.247,0.009C0.22,0.009 0.193,0.005 0.167,-0.004C0.141,-0.012 0.118,-0.025 0.097,-0.042C0.076,-0.059 0.06,-0.08 0.048,-0.107C0.035,-0.133 0.029,-0.164 0.029,-0.201C0.029,-0.231 0.031,-0.257 0.035,-0.279C0.039,-0.3 0.044,-0.319 0.051,-0.336C0.058,-0.352 0.065,-0.366 0.074,-0.378C0.082,-0.389 0.09,-0.4 0.099,-0.409C0.11,-0.421 0.123,-0.432 0.138,-0.443C0.153,-0.454 0.17,-0.463 0.188,-0.472C0.205,-0.481 0.224,-0.488 0.244,-0.493C0.263,-0.498 0.283,-0.5 0.303,-0.5C0.339,-0.5 0.367,-0.494 0.388,-0.482C0.408,-0.47 0.418,-0.453 0.418,-0.432C0.418,-0.419 0.414,-0.406 0.406,-0.395C0.413,-0.397 0.421,-0.4 0.432,-0.405C0.442,-0.41 0.452,-0.415 0.463,-0.42C0.474,-0.424 0.483,-0.429 0.492,-0.433C0.5,-0.437 0.505,-0.44 0.508,-0.442C0.509,-0.443 0.511,-0.444 0.513,-0.444C0.514,-0.443 0.515,-0.442 0.515,-0.44C0.515,-0.431 0.513,-0.424 0.51,-0.419C0.507,-0.413 0.503,-0.408 0.498,-0.405C0.487,-0.398 0.472,-0.39 0.452,-0.38C0.432,-0.37 0.41,-0.36 0.386,-0.349C0.361,-0.338 0.336,-0.327 0.31,-0.316C0.284,-0.305 0.26,-0.294 0.237,-0.284C0.214,-0.274 0.194,-0.265 0.177,-0.258C0.16,-0.25 0.148,-0.244 0.142,-0.241C0.142,-0.218 0.147,-0.197 0.156,-0.178C0.165,-0.158 0.177,-0.141 0.193,-0.126C0.209,-0.111 0.228,-0.1 0.251,-0.092C0.273,-0.083 0.297,-0.079 0.324,-0.079C0.348,-0.079 0.37,-0.082 0.389,-0.087C0.408,-0.092 0.425,-0.097 0.438,-0.104C0.451,-0.11 0.462,-0.116 0.47,-0.121C0.477,-0.126 0.481,-0.128 0.482,-0.128C0.485,-0.128 0.487,-0.127 0.49,-0.125C0.493,-0.122 0.494,-0.12 0.494,-0.117ZM0.142,-0.27C0.153,-0.274 0.166,-0.279 0.181,-0.285C0.195,-0.29 0.209,-0.296 0.223,-0.303C0.236,-0.31 0.249,-0.316 0.26,-0.322C0.271,-0.328 0.28,-0.333 0.286,-0.338C0.298,-0.347 0.304,-0.361 0.304,-0.382C0.304,-0.39 0.303,-0.398 0.3,-0.407C0.297,-0.416 0.292,-0.424 0.286,-0.431C0.28,-0.438 0.273,-0.443 0.264,-0.448C0.255,-0.452 0.246,-0.454 0.235,-0.454C0.226,-0.454 0.216,-0.451 0.205,-0.445C0.194,-0.438 0.184,-0.428 0.175,-0.414C0.166,-0.399 0.158,-0.38 0.152,-0.357C0.145,-0.333 0.142,-0.304 0.142,-0.27Z" style="fill-rule:nonzero;"/>
            </g>
            <g transform="matrix(14.6977,0,0,14.6977,113.808,369.797)">
                <path d="M0.187,-0.174C0.187,-0.16 0.187,-0.147 0.188,-0.134C0.189,-0.121 0.191,-0.109 0.195,-0.1C0.199,-0.091 0.205,-0.083 0.213,-0.078C0.221,-0.072 0.232,-0.069 0.247,-0.069C0.254,-0.069 0.263,-0.07 0.272,-0.072C0.281,-0.073 0.29,-0.075 0.299,-0.078C0.307,-0.081 0.314,-0.083 0.321,-0.086C0.327,-0.089 0.331,-0.091 0.332,-0.092C0.334,-0.094 0.335,-0.094 0.336,-0.092C0.337,-0.09 0.337,-0.088 0.337,-0.085C0.336,-0.082 0.335,-0.079 0.334,-0.076C0.333,-0.073 0.331,-0.07 0.329,-0.069C0.322,-0.066 0.311,-0.06 0.294,-0.051C0.277,-0.042 0.258,-0.033 0.235,-0.024C0.214,-0.015 0.193,-0.007 0.173,-0.001C0.152,0.006 0.135,0.009 0.122,0.009C0.107,0.009 0.095,0.004 0.086,-0.005C0.077,-0.014 0.073,-0.026 0.073,-0.04C0.073,-0.045 0.073,-0.049 0.074,-0.052C0.074,-0.055 0.074,-0.06 0.075,-0.065C0.076,-0.072 0.077,-0.084 0.079,-0.102C0.08,-0.119 0.082,-0.139 0.084,-0.161C0.085,-0.183 0.087,-0.205 0.088,-0.228C0.089,-0.25 0.09,-0.269 0.09,-0.285L0.09,-0.32C0.09,-0.337 0.089,-0.353 0.087,-0.366C0.085,-0.379 0.082,-0.39 0.077,-0.397C0.074,-0.402 0.07,-0.406 0.065,-0.409C0.059,-0.412 0.053,-0.413 0.046,-0.413C0.042,-0.413 0.038,-0.412 0.034,-0.411C0.03,-0.409 0.027,-0.408 0.025,-0.408C0.024,-0.408 0.022,-0.41 0.019,-0.414C0.016,-0.418 0.016,-0.421 0.019,-0.423C0.024,-0.426 0.033,-0.432 0.048,-0.439C0.063,-0.446 0.079,-0.454 0.096,-0.463C0.115,-0.472 0.133,-0.481 0.15,-0.488C0.167,-0.495 0.18,-0.498 0.187,-0.498C0.194,-0.498 0.199,-0.496 0.202,-0.492C0.205,-0.487 0.206,-0.482 0.206,-0.477L0.206,-0.473C0.206,-0.466 0.205,-0.456 0.203,-0.441C0.201,-0.426 0.199,-0.408 0.197,-0.387C0.194,-0.366 0.192,-0.341 0.19,-0.313C0.188,-0.285 0.187,-0.255 0.187,-0.222L0.187,-0.174ZM0.147,-0.694C0.15,-0.693 0.156,-0.69 0.164,-0.683C0.171,-0.676 0.179,-0.669 0.187,-0.66C0.195,-0.651 0.202,-0.643 0.208,-0.635C0.214,-0.627 0.217,-0.622 0.217,-0.619C0.217,-0.616 0.213,-0.611 0.205,-0.604C0.197,-0.597 0.188,-0.591 0.178,-0.584C0.167,-0.577 0.157,-0.57 0.148,-0.565C0.138,-0.56 0.131,-0.557 0.127,-0.557C0.125,-0.557 0.12,-0.56 0.113,-0.567C0.105,-0.573 0.097,-0.58 0.089,-0.588C0.081,-0.596 0.074,-0.604 0.068,-0.612C0.061,-0.619 0.058,-0.624 0.058,-0.627C0.058,-0.63 0.062,-0.635 0.071,-0.643C0.08,-0.65 0.089,-0.657 0.1,-0.665C0.11,-0.672 0.12,-0.679 0.13,-0.685C0.139,-0.69 0.145,-0.693 0.147,-0.694Z" style="fill-rule:nonzero;"/>
            </g>
            <g transform="matrix(14.6977,0,0,14.6977,117.821,369.797)">
                <path d="M0.285,-0.111C0.288,-0.115 0.293,-0.123 0.301,-0.136C0.308,-0.148 0.317,-0.163 0.327,-0.181C0.336,-0.199 0.346,-0.219 0.357,-0.24C0.367,-0.261 0.376,-0.282 0.385,-0.303C0.394,-0.324 0.401,-0.345 0.407,-0.364C0.412,-0.383 0.415,-0.399 0.415,-0.413C0.415,-0.424 0.414,-0.432 0.411,-0.439C0.408,-0.445 0.405,-0.45 0.4,-0.453C0.395,-0.456 0.389,-0.459 0.382,-0.46C0.375,-0.461 0.368,-0.462 0.361,-0.462C0.357,-0.462 0.353,-0.462 0.349,-0.461C0.345,-0.46 0.341,-0.459 0.337,-0.458C0.333,-0.457 0.33,-0.457 0.328,-0.46C0.325,-0.462 0.324,-0.464 0.324,-0.465C0.324,-0.468 0.329,-0.471 0.338,-0.475C0.347,-0.479 0.359,-0.483 0.375,-0.486C0.39,-0.489 0.408,-0.492 0.429,-0.495C0.449,-0.497 0.47,-0.498 0.492,-0.498C0.523,-0.498 0.539,-0.488 0.539,-0.467C0.539,-0.458 0.533,-0.442 0.521,-0.419C0.508,-0.396 0.493,-0.37 0.474,-0.34C0.455,-0.309 0.434,-0.277 0.411,-0.243C0.388,-0.209 0.365,-0.176 0.343,-0.145C0.321,-0.113 0.301,-0.084 0.283,-0.057C0.264,-0.03 0.25,-0.01 0.241,0.005C0.239,0.008 0.232,0.009 0.219,0.009C0.214,0.009 0.21,0.008 0.209,0.007C0.207,0.005 0.205,0.002 0.204,-0.002C0.198,-0.021 0.191,-0.041 0.184,-0.064C0.176,-0.087 0.168,-0.11 0.159,-0.133C0.15,-0.156 0.141,-0.18 0.133,-0.203C0.124,-0.226 0.115,-0.247 0.106,-0.267C0.083,-0.323 0.063,-0.362 0.047,-0.385C0.03,-0.407 0.015,-0.418 0.001,-0.418C-0.003,-0.418 -0.007,-0.417 -0.011,-0.416C-0.014,-0.415 -0.018,-0.413 -0.021,-0.412C-0.022,-0.412 -0.024,-0.413 -0.027,-0.417C-0.029,-0.42 -0.029,-0.422 -0.028,-0.423C-0.027,-0.424 -0.021,-0.428 -0.009,-0.436C0.003,-0.444 0.017,-0.453 0.033,-0.463C0.049,-0.472 0.065,-0.481 0.082,-0.489C0.098,-0.497 0.111,-0.501 0.121,-0.501C0.136,-0.501 0.15,-0.487 0.163,-0.459C0.176,-0.43 0.191,-0.391 0.208,-0.341L0.285,-0.111Z" style="fill-rule:nonzero;"/>
            </g>
            <g transform="matrix(14.6977,0,0,14.6977,125.463,369.797)">
                <path d="M0.494,-0.117C0.487,-0.109 0.475,-0.098 0.46,-0.084C0.445,-0.07 0.426,-0.056 0.405,-0.042C0.383,-0.028 0.359,-0.016 0.332,-0.006C0.305,0.004 0.277,0.009 0.247,0.009C0.22,0.009 0.193,0.005 0.167,-0.004C0.141,-0.012 0.118,-0.025 0.097,-0.042C0.076,-0.059 0.06,-0.08 0.048,-0.107C0.035,-0.133 0.029,-0.164 0.029,-0.201C0.029,-0.231 0.031,-0.257 0.035,-0.279C0.039,-0.3 0.044,-0.319 0.051,-0.336C0.058,-0.352 0.065,-0.366 0.074,-0.378C0.082,-0.389 0.09,-0.4 0.099,-0.409C0.11,-0.421 0.123,-0.432 0.138,-0.443C0.153,-0.454 0.17,-0.463 0.188,-0.472C0.205,-0.481 0.224,-0.488 0.244,-0.493C0.263,-0.498 0.283,-0.5 0.303,-0.5C0.339,-0.5 0.367,-0.494 0.388,-0.482C0.408,-0.47 0.418,-0.453 0.418,-0.432C0.418,-0.419 0.414,-0.406 0.406,-0.395C0.413,-0.397 0.421,-0.4 0.432,-0.405C0.442,-0.41 0.452,-0.415 0.463,-0.42C0.474,-0.424 0.483,-0.429 0.492,-0.433C0.5,-0.437 0.505,-0.44 0.508,-0.442C0.509,-0.443 0.511,-0.444 0.513,-0.444C0.514,-0.443 0.515,-0.442 0.515,-0.44C0.515,-0.431 0.513,-0.424 0.51,-0.419C0.507,-0.413 0.503,-0.408 0.498,-0.405C0.487,-0.398 0.472,-0.39 0.452,-0.38C0.432,-0.37 0.41,-0.36 0.386,-0.349C0.361,-0.338 0.336,-0.327 0.31,-0.316C0.284,-0.305 0.26,-0.294 0.237,-0.284C0.214,-0.274 0.194,-0.265 0.177,-0.258C0.16,-0.25 0.148,-0.244 0.142,-0.241C0.142,-0.218 0.147,-0.197 0.156,-0.178C0.165,-0.158 0.177,-0.141 0.193,-0.126C0.209,-0.111 0.228,-0.1 0.251,-0.092C0.273,-0.083 0.297,-0.079 0.324,-0.079C0.348,-0.079 0.37,-0.082 0.389,-0.087C0.408,-0.092 0.425,-0.097 0.438,-0.104C0.451,-0.11 0.462,-0.116 0.47,-0.121C0.477,-0.126 0.481,-0.128 0.482,-0.128C0.485,-0.128 0.487,-0.127 0.49,-0.125C0.493,-0.122 0.494,-0.12 0.494,-0.117ZM0.142,-0.27C0.153,-0.274 0.166,-0.279 0.181,-0.285C0.195,-0.29 0.209,-0.296 0.223,-0.303C0.236,-0.31 0.249,-0.316 0.26,-0.322C0.271,-0.328 0.28,-0.333 0.286,-0.338C0.298,-0.347 0.304,-0.361 0.304,-0.382C0.304,-0.39 0.303,-0.398 0.3,-0.407C0.297,-0.416 0.292,-0.424 0.286,-0.431C0.28,-0.438 0.273,-0.443 0.264,-0.448C0.255,-0.452 0.246,-0.454 0.235,-0.454C0.226,-0.454 0.216,-0.451 0.205,-0.445C0.194,-0.438 0.184,-0.428 0.175,-0.414C0.166,-0.399 0.158,-0.38 0.152,-0.357C0.145,-0.333 0.142,-0.304 0.142,-0.27Z" style="fill-rule:nonzero;"/>
            </g>
            <g transform="matrix(14.6977,0,0,14.6977,132.283,369.797)">
                <path d="M0.494,-0.425C0.487,-0.419 0.478,-0.412 0.468,-0.403C0.458,-0.394 0.448,-0.385 0.437,-0.377C0.426,-0.368 0.414,-0.361 0.403,-0.355C0.392,-0.349 0.381,-0.346 0.37,-0.346C0.361,-0.346 0.352,-0.348 0.345,-0.353C0.338,-0.357 0.331,-0.362 0.325,-0.367C0.318,-0.372 0.312,-0.376 0.306,-0.381C0.3,-0.385 0.294,-0.387 0.287,-0.387C0.269,-0.387 0.254,-0.38 0.242,-0.365C0.229,-0.35 0.219,-0.332 0.212,-0.309C0.204,-0.286 0.198,-0.262 0.195,-0.235C0.191,-0.208 0.189,-0.183 0.189,-0.158C0.189,-0.137 0.19,-0.121 0.192,-0.108C0.193,-0.094 0.196,-0.084 0.199,-0.077C0.202,-0.069 0.207,-0.064 0.213,-0.061C0.218,-0.058 0.225,-0.057 0.233,-0.057C0.242,-0.057 0.251,-0.058 0.261,-0.061C0.263,-0.062 0.265,-0.06 0.266,-0.057C0.267,-0.054 0.267,-0.051 0.267,-0.049C0.267,-0.048 0.266,-0.046 0.264,-0.045C0.262,-0.043 0.261,-0.042 0.26,-0.042C0.245,-0.036 0.23,-0.029 0.215,-0.023C0.2,-0.016 0.187,-0.01 0.177,-0.005C0.168,-0.001 0.157,0.003 0.144,0.008C0.131,0.013 0.119,0.015 0.11,0.015C0.099,0.015 0.091,0.013 0.084,0.01C0.077,0.007 0.073,0.003 0.073,-0C0.073,-0.003 0.074,-0.006 0.076,-0.009C0.077,-0.012 0.079,-0.017 0.08,-0.024C0.081,-0.034 0.083,-0.046 0.085,-0.06C0.086,-0.073 0.088,-0.088 0.09,-0.104C0.091,-0.12 0.092,-0.136 0.094,-0.154C0.094,-0.17 0.095,-0.187 0.095,-0.204C0.095,-0.241 0.094,-0.273 0.092,-0.299C0.089,-0.325 0.085,-0.346 0.079,-0.362C0.073,-0.378 0.065,-0.39 0.055,-0.397C0.044,-0.404 0.031,-0.407 0.015,-0.407L0.006,-0.407C0.003,-0.407 0.001,-0.407 -0.002,-0.406C-0.006,-0.406 -0.008,-0.408 -0.008,-0.412C-0.008,-0.416 -0.006,-0.419 -0.002,-0.421C0.005,-0.426 0.017,-0.432 0.032,-0.442C0.047,-0.451 0.063,-0.459 0.08,-0.468C0.096,-0.476 0.112,-0.483 0.127,-0.49C0.142,-0.497 0.154,-0.5 0.161,-0.5C0.17,-0.5 0.177,-0.497 0.183,-0.492C0.189,-0.486 0.194,-0.479 0.197,-0.47C0.2,-0.461 0.202,-0.452 0.203,-0.441C0.204,-0.43 0.205,-0.419 0.205,-0.408L0.204,-0.355C0.234,-0.399 0.261,-0.433 0.285,-0.458C0.309,-0.482 0.332,-0.494 0.353,-0.494C0.361,-0.494 0.369,-0.491 0.377,-0.484C0.384,-0.477 0.392,-0.47 0.401,-0.462C0.41,-0.453 0.419,-0.446 0.428,-0.439C0.437,-0.432 0.447,-0.429 0.457,-0.429C0.466,-0.429 0.472,-0.43 0.476,-0.432C0.48,-0.434 0.483,-0.436 0.486,-0.437C0.491,-0.437 0.494,-0.433 0.494,-0.426L0.494,-0.425Z" style="fill-rule:nonzero;"/>
            </g>
        </g>
        <g transform="matrix(0.0219124,0,0,0.0248558,-1.18573,295.355)">
            <g transform="matrix(55.8954,0,0,49.2765,-878.032,-330.791)">
                <path d="M27.733,13.757C27.957,11.616 28.949,10 30.136,10C31.489,10 32.587,12.095 32.587,14.677C32.587,15.669 32.424,16.59 32.148,17.347C32.432,17.974 32.587,18.65 32.587,19.353C32.587,22.678 29.128,25.378 24.868,25.378C20.609,25.378 17.15,22.678 17.15,19.353C17.15,18.65 17.305,17.974 17.589,17.347C17.313,16.59 17.15,15.669 17.15,14.677C17.15,12.095 18.248,10 19.601,10C20.788,10 21.779,11.616 22.003,13.757L22.04,13.746C22.915,13.476 23.87,13.328 24.868,13.328C25.881,13.328 26.847,13.48 27.733,13.757ZM17.609,17.304L17.606,17.31L17.609,17.304ZM32.128,17.305L32.131,17.31L32.128,17.305ZM17.627,17.265L17.623,17.273L17.627,17.265ZM32.11,17.266L32.113,17.273L32.11,17.266ZM17.645,17.227L17.641,17.236L17.645,17.227ZM32.092,17.228L32.096,17.236L32.092,17.228ZM17.663,17.19L17.659,17.2L17.663,17.19ZM32.074,17.191L32.078,17.199L32.074,17.191ZM17.682,17.153L17.677,17.162L17.682,17.153ZM32.055,17.154L32.059,17.161L32.055,17.154ZM17.7,17.117L17.696,17.125L17.7,17.117ZM32.037,17.117L32.04,17.123L32.037,17.117ZM17.719,17.081L17.717,17.085L17.719,17.081ZM32.018,17.081L32.019,17.082L32.018,17.081ZM17.782,16.964L17.778,16.971L17.782,16.964ZM31.957,16.968L31.958,16.97L31.957,16.968ZM17.804,16.925L17.798,16.935L17.804,16.925ZM31.935,16.928L31.938,16.934L31.935,16.928ZM17.825,16.888L17.818,16.9L17.825,16.888ZM31.914,16.891L31.918,16.899L31.914,16.891ZM17.845,16.852L17.838,16.865L17.845,16.852ZM31.893,16.854L31.898,16.863L31.893,16.854ZM17.866,16.817L17.859,16.829L17.866,16.817ZM31.871,16.819L31.876,16.827L31.871,16.819ZM17.888,16.782L17.88,16.794L17.888,16.782ZM31.85,16.783L31.855,16.791L31.85,16.783ZM17.909,16.747L17.902,16.758L17.909,16.747ZM31.829,16.748L31.832,16.754L31.829,16.748ZM17.931,16.712L17.925,16.72L17.931,16.712ZM31.807,16.713L31.808,16.714L31.807,16.713ZM17.979,16.635L17.975,16.642L17.979,16.635ZM18.005,16.596L17.998,16.608L18.005,16.596ZM31.735,16.602L31.738,16.606L31.735,16.602ZM18.029,16.561L18.02,16.573L18.029,16.561ZM31.711,16.564L31.716,16.572L31.711,16.564ZM18.052,16.526L18.043,16.539L18.052,16.526ZM31.686,16.529L31.692,16.537L31.686,16.529ZM18.076,16.492L18.066,16.505L18.076,16.492ZM31.663,16.494L31.669,16.503L31.663,16.494ZM18.1,16.458L18.09,16.471L18.1,16.458ZM31.639,16.459L31.645,16.469L31.639,16.459ZM18.124,16.424L18.114,16.437L18.124,16.424ZM31.614,16.425L31.62,16.434L31.614,16.425ZM18.148,16.39L18.139,16.403L18.148,16.39ZM31.59,16.392L31.595,16.398L31.59,16.392ZM18.172,16.357L18.164,16.367L18.172,16.357ZM31.566,16.358L31.567,16.36L31.566,16.358ZM18.197,16.324L18.196,16.324L18.197,16.324ZM18.23,16.28L18.222,16.291L18.23,16.28ZM31.513,16.288L31.514,16.289L31.513,16.288ZM18.257,16.245L18.247,16.258L18.257,16.245ZM31.484,16.249L31.489,16.256L31.484,16.249ZM18.283,16.211L18.272,16.225L18.283,16.211ZM31.456,16.214L31.463,16.223L31.456,16.214ZM18.309,16.178L18.298,16.192L18.309,16.178ZM31.43,16.18L31.438,16.19L31.43,16.18ZM18.335,16.145L18.324,16.16L18.335,16.145ZM31.403,16.147L31.411,16.158L31.403,16.147ZM18.362,16.113L18.35,16.127L18.362,16.113ZM31.376,16.114L31.385,16.125L31.376,16.114ZM18.388,16.081L18.377,16.094L18.388,16.081ZM31.35,16.082L31.357,16.091L31.35,16.082ZM18.415,16.049L18.404,16.061L18.415,16.049ZM31.323,16.05L31.329,16.057L31.323,16.05ZM18.442,16.017L18.433,16.027L18.442,16.017ZM31.295,16.018L31.298,16.021L31.295,16.018ZM18.473,15.981L18.469,15.985L18.473,15.981ZM18.507,15.942L18.497,15.954L18.507,15.942ZM31.234,15.947L31.239,15.953L31.234,15.947ZM18.536,15.909L18.525,15.922L18.536,15.909ZM31.203,15.912L31.211,15.921L31.203,15.912ZM18.565,15.877L18.553,15.891L18.565,15.877ZM31.174,15.879L31.183,15.89L31.174,15.879ZM18.594,15.846L18.581,15.86L18.594,15.846ZM31.145,15.847L31.155,15.859L31.145,15.847ZM18.622,15.815L18.61,15.828L18.622,15.815ZM31.115,15.816L31.126,15.827L31.115,15.816ZM18.651,15.784L18.639,15.797L18.651,15.784ZM31.086,15.785L31.097,15.796L31.086,15.785ZM18.68,15.753L18.668,15.766L18.68,15.753ZM31.057,15.754L31.067,15.765L31.057,15.754ZM18.71,15.723L18.698,15.735L18.71,15.723ZM31.027,15.723L31.037,15.733L31.027,15.723ZM18.739,15.692L18.73,15.702L18.739,15.692ZM30.998,15.693L31.003,15.698L30.998,15.693ZM18.775,15.656L18.769,15.662L18.775,15.656ZM30.965,15.659L30.967,15.662L30.965,15.659ZM18.81,15.621L18.799,15.632L18.81,15.621ZM30.928,15.622L30.937,15.632L30.928,15.622ZM18.842,15.59L18.83,15.602L18.842,15.59ZM30.895,15.591L30.907,15.602L30.895,15.591ZM18.873,15.56L18.86,15.572L18.873,15.56ZM30.864,15.56L30.876,15.572L30.864,15.56ZM18.904,15.53L18.891,15.543L18.904,15.53ZM30.832,15.53L30.846,15.543L30.832,15.53ZM30.801,15.5L30.814,15.513L30.801,15.5ZM18.936,15.501L18.923,15.513L18.936,15.501ZM30.769,15.471L30.783,15.484L30.769,15.471ZM18.967,15.471L18.954,15.483L18.967,15.471ZM30.738,15.442L30.751,15.454L30.738,15.442ZM18.999,15.442L18.986,15.454L18.999,15.442ZM30.706,15.413L30.719,15.425L30.706,15.413ZM19.031,15.413L19.019,15.424L19.031,15.413ZM30.674,15.384L30.684,15.394L30.674,15.384ZM19.063,15.385L19.056,15.391L19.063,15.385ZM30.63,15.346L30.642,15.356L30.63,15.346ZM19.101,15.35L19.095,15.356L19.101,15.35ZM30.595,15.315L30.61,15.328L30.595,15.315ZM19.139,15.318L19.128,15.327L19.139,15.318ZM30.561,15.286L30.577,15.3L30.561,15.286ZM19.173,15.288L19.161,15.299L19.173,15.288ZM30.528,15.258L30.544,15.272L30.528,15.258ZM19.207,15.26L19.194,15.271L19.207,15.26ZM30.494,15.23L30.511,15.244L30.494,15.23ZM19.241,15.231L19.227,15.243L19.241,15.231ZM30.461,15.202L30.478,15.216L30.461,15.202ZM19.274,15.204L19.261,15.215L19.274,15.204ZM30.427,15.175L30.444,15.189L30.427,15.175ZM19.308,15.176L19.295,15.187L19.308,15.176ZM30.393,15.147L30.41,15.161L30.393,15.147ZM19.342,15.149L19.33,15.158L19.342,15.149ZM30.359,15.12L30.376,15.134L30.359,15.12ZM19.377,15.121L19.366,15.129L19.377,15.121ZM30.325,15.093L30.343,15.107L30.326,15.094L30.305,15.078L30.325,15.093ZM19.411,15.094L19.409,15.096L19.411,15.094ZM30.273,15.053L30.292,15.068L30.273,15.053ZM19.452,15.062L19.446,15.067L19.452,15.062ZM30.238,15.027L30.257,15.041L30.238,15.027ZM19.492,15.032L19.481,15.04L19.492,15.032ZM30.203,15L30.222,15.015L30.203,15ZM19.529,15.004L19.516,15.013L19.529,15.004ZM30.168,14.974L30.187,14.989L30.168,14.974ZM19.565,14.977L19.552,14.987L19.565,14.977ZM30.132,14.948L30.152,14.963L30.132,14.948ZM19.601,14.951L19.588,14.961L19.601,14.951ZM30.097,14.922L30.117,14.937L30.097,14.922ZM19.637,14.925L19.624,14.934L19.637,14.925ZM30.061,14.897L30.081,14.911L30.061,14.897ZM19.673,14.899L19.661,14.908L19.673,14.899ZM30.025,14.871L30.046,14.886L30.025,14.871ZM19.71,14.873L19.698,14.881L19.71,14.873ZM29.988,14.846L30.011,14.862L29.988,14.846ZM19.746,14.848L19.738,14.853L19.746,14.848ZM29.954,14.822L29.915,14.796C29.928,14.805 29.941,14.813 29.954,14.822ZM19.826,14.793L19.821,14.796L19.826,14.793ZM29.858,14.758L29.881,14.773L29.858,14.758ZM19.868,14.765L19.858,14.771L19.868,14.765ZM29.822,14.734L29.845,14.749L29.822,14.734ZM19.907,14.739L19.896,14.747L19.907,14.739ZM29.785,14.71L29.807,14.724L29.785,14.71ZM19.946,14.714L19.933,14.722L19.946,14.714ZM29.747,14.686L29.77,14.7L29.747,14.686ZM19.984,14.689L19.971,14.697L19.984,14.689ZM29.71,14.662L29.733,14.676L29.71,14.662ZM20.023,14.665L20.01,14.673L20.023,14.665ZM29.672,14.638L29.696,14.653L29.672,14.638ZM20.061,14.641L20.049,14.648L20.061,14.641ZM29.634,14.615L29.659,14.63L29.634,14.615ZM20.099,14.617L20.09,14.623L20.099,14.617ZM29.494,14.531C29.537,14.556 29.58,14.582 29.623,14.608C29.581,14.582 29.538,14.556 29.494,14.531ZM20.138,14.593L20.134,14.596L20.138,14.593ZM20.221,14.543L20.218,14.545L20.221,14.543ZM29.458,14.51L29.483,14.525L29.458,14.51ZM20.266,14.517L20.257,14.522L20.266,14.517ZM29.42,14.488L29.444,14.502L29.42,14.488ZM20.308,14.493L20.297,14.499L20.308,14.493ZM29.381,14.466L29.405,14.48L29.381,14.466ZM20.349,14.47L20.337,14.477L20.349,14.47ZM29.341,14.444L29.366,14.457L29.341,14.444ZM20.389,14.447L20.377,14.454L20.389,14.447ZM29.302,14.422L29.327,14.436L29.302,14.422ZM20.43,14.425L20.418,14.431L20.43,14.425ZM29.262,14.4L29.288,14.414L29.262,14.4ZM20.47,14.403L20.46,14.408L20.47,14.403ZM29.222,14.379L29.249,14.393L29.222,14.379ZM20.51,14.381L20.503,14.385L20.51,14.381ZM29.186,14.359L29.143,14.337C29.157,14.344 29.171,14.352 29.186,14.359ZM29.077,14.303L29.105,14.317L29.077,14.303ZM20.638,14.314L20.636,14.315L20.638,14.314ZM29.038,14.283L29.064,14.296L29.038,14.283ZM20.685,14.29L20.677,14.294L20.685,14.29ZM28.998,14.263L29.023,14.276L28.998,14.263ZM20.729,14.268L20.719,14.273L20.729,14.268ZM28.957,14.243L28.982,14.255L28.957,14.243ZM20.772,14.247L20.761,14.252L20.772,14.247ZM28.916,14.223L28.941,14.235L28.916,14.223ZM20.814,14.226L20.803,14.232L20.814,14.226ZM28.875,14.203L28.899,14.215L28.875,14.203ZM20.857,14.206L20.846,14.211L20.857,14.206ZM28.833,14.184L28.858,14.195L28.833,14.184ZM20.899,14.186L20.891,14.19L20.899,14.186ZM28.791,14.164L28.817,14.176L28.791,14.164ZM20.942,14.166L20.937,14.168L20.942,14.166ZM28.752,14.146L28.707,14.126C28.722,14.133 28.737,14.139 28.752,14.146ZM28.643,14.097L28.667,14.108L28.643,14.097ZM21.075,14.106L21.074,14.106L21.075,14.106ZM28.601,14.079L28.624,14.089L28.601,14.079ZM21.124,14.084L21.117,14.087L21.124,14.084ZM28.558,14.061L28.581,14.071L28.558,14.061ZM21.17,14.065L21.161,14.068L21.17,14.065ZM28.516,14.043L28.538,14.052L28.516,14.043ZM21.215,14.046L21.204,14.05L21.215,14.046ZM28.473,14.025L28.494,14.034L28.473,14.025ZM21.259,14.027L21.249,14.031L21.259,14.027ZM28.429,14.007L28.451,14.016L28.429,14.007ZM21.303,14.009L21.294,14.013L21.303,14.009ZM28.386,13.989L28.406,13.998L28.386,13.989ZM21.347,13.991L21.341,13.994L21.347,13.991ZM28.342,13.972L28.361,13.979L28.342,13.972ZM21.392,13.973L21.391,13.974L21.392,13.973ZM28.298,13.955L28.311,13.96L28.298,13.955ZM28.243,13.934L28.254,13.938L28.243,13.934ZM28.195,13.915L28.21,13.921L28.195,13.915ZM21.531,13.92L21.53,13.92L21.531,13.92ZM28.149,13.898L28.165,13.904L28.149,13.898ZM21.581,13.901L21.575,13.903L21.581,13.901ZM28.103,13.882L28.119,13.888L28.103,13.882ZM21.629,13.884L21.62,13.887L21.629,13.884ZM28.058,13.866L28.074,13.871L28.058,13.866ZM21.675,13.867L21.666,13.87L21.675,13.867ZM28.013,13.85L28.028,13.855L28.013,13.85ZM21.721,13.851L21.713,13.854L21.721,13.851ZM27.968,13.834L27.981,13.839L27.968,13.834ZM21.767,13.835L21.76,13.837L21.767,13.835ZM27.922,13.819L27.932,13.822L27.922,13.819ZM21.813,13.819L21.809,13.821L21.813,13.819ZM27.877,13.803L27.879,13.804L27.877,13.803Z" style="fill:none;stroke:black;stroke-width:1.22px;"/>
            </g>
            <g transform="matrix(55.8954,0,0,49.2765,-878.032,-330.791)">
                <path d="M25.128,19.358C24.963,19.04 24.868,18.67 24.868,18.275C24.868,17.096 25.713,16.138 26.753,16.138C27.793,16.138 28.637,17.096 28.637,18.275C28.637,19.031 28.291,19.696 27.768,20.076C27.128,19.668 26.188,19.396 25.128,19.358ZM21.969,20.076C21.446,19.696 21.099,19.031 21.099,18.275C21.099,17.096 21.944,16.138 22.984,16.138C24.024,16.138 24.868,17.096 24.868,18.275C24.868,18.67 24.774,19.04 24.609,19.358C23.549,19.396 22.609,19.668 21.969,20.076Z" style="fill:none;stroke:black;stroke-width:1.22px;"/>
            </g>
            <g transform="matrix(1,0,0,1,-53.1856,50.0357)">
                <ellipse cx="565.186" cy="671.455" rx="210.672" ry="98.631" style="fill:none;stroke:black;stroke-width:63.81px;"/>
            </g>
            <g transform="matrix(51.2,0,0,45.1371,0.670978,88.9676)">
                <path d="M12.057,13.791C12.057,13.668 11.958,13.568 11.835,13.568L8.139,13.568C8.016,13.568 7.916,13.668 7.916,13.791L7.916,14.236C7.916,14.359 8.016,14.458 8.139,14.458L11.835,14.458C11.958,14.458 12.057,14.359 12.057,14.236L12.057,13.791Z"/>
            </g>
        </g>
    </g>
</svg>
