<?xml version="1.0" encoding="UTF-8" standalone="no"?>
<!DOCTYPE svg PUBLIC "-//W3C//DTD SVG 1.1//EN" "http://www.w3.org/Graphics/SVG/1.1/DTD/svg11.dtd">
<svg width="100%" height="100%" viewBox="0 0 90 380" version="1.1" xmlns="http://www.w3.org/2000/svg" xmlns:xlink="http://www.w3.org/1999/xlink" xml:space="preserve" xmlns:serif="http://www.serif.com/" style="fill-rule:evenodd;clip-rule:evenodd;stroke-linecap:round;stroke-linejoin:round;stroke-miterlimit:1.5;">
    <g transform="matrix(0.43251,0,0,2.01589,-22.7311,-120.797)">
        <rect x="52.556" y="59.922" width="208.087" height="188.503" style="fill:rgb(102,126,153);"/>
    </g>
    <g transform="matrix(1,0,0,1,-155.127,48.5994)">
        <g id="Connect-ledbutton" serif:id="Connect#ledbutton" transform="matrix(1,0,0,1,113.692,1.26292)">
            <circle cx="101.308" cy="310.24" r="9.898" style="fill:rgb(115,115,115);"/>
        </g>
        <g transform="matrix(1,0,0,1,85.6785,196.325)">
            <path d="M90.698,116.846C90.698,117.006 90.743,117.13 90.833,117.216C90.923,117.303 91.045,117.346 91.198,117.346C91.391,117.346 91.52,117.29 91.583,117.176C91.646,117.063 91.685,116.95 91.698,116.836L92.718,116.836C92.718,117.283 92.581,117.643 92.308,117.916C92.175,118.056 92.015,118.166 91.828,118.246C91.641,118.326 91.431,118.366 91.198,118.366C90.878,118.366 90.606,118.3 90.383,118.166C90.16,118.033 89.988,117.856 89.868,117.636C89.795,117.503 89.745,117.35 89.718,117.176C89.691,117.003 89.678,116.813 89.678,116.606L89.678,114.936C89.678,114.73 89.691,114.54 89.718,114.366C89.745,114.193 89.795,114.04 89.868,113.906C89.988,113.686 90.16,113.51 90.383,113.376C90.606,113.243 90.878,113.176 91.198,113.176C91.431,113.176 91.643,113.216 91.833,113.296C92.023,113.376 92.185,113.486 92.318,113.626C92.585,113.926 92.718,114.316 92.718,114.796L91.698,114.796C91.698,114.59 91.653,114.438 91.563,114.341C91.473,114.245 91.351,114.196 91.198,114.196C91.045,114.196 90.923,114.245 90.833,114.341C90.743,114.438 90.698,114.583 90.698,114.776L90.698,116.846Z" style="fill-rule:nonzero;"/>
            <path d="M93.228,114.936C93.228,114.73 93.241,114.54 93.268,114.366C93.295,114.193 93.345,114.04 93.418,113.906C93.538,113.686 93.71,113.51 93.933,113.376C94.156,113.243 94.428,113.176 94.748,113.176C95.068,113.176 95.34,113.243 95.563,113.376C95.786,113.51 95.958,113.686 96.078,113.906C96.151,114.04 96.201,114.193 96.228,114.366C96.255,114.54 96.268,114.73 96.268,114.936L96.268,116.606C96.268,116.813 96.255,117.003 96.228,117.176C96.201,117.35 96.151,117.503 96.078,117.636C95.958,117.856 95.786,118.033 95.563,118.166C95.34,118.3 95.068,118.366 94.748,118.366C94.428,118.366 94.156,118.3 93.933,118.166C93.71,118.033 93.538,117.856 93.418,117.636C93.345,117.503 93.295,117.35 93.268,117.176C93.241,117.003 93.228,116.813 93.228,116.606L93.228,114.936ZM94.248,116.766C94.248,116.96 94.293,117.105 94.383,117.201C94.473,117.298 94.595,117.346 94.748,117.346C94.901,117.346 95.023,117.298 95.113,117.201C95.203,117.105 95.248,116.96 95.248,116.766L95.248,114.776C95.248,114.583 95.203,114.438 95.113,114.341C95.023,114.245 94.901,114.196 94.748,114.196C94.595,114.196 94.473,114.245 94.383,114.341C94.293,114.438 94.248,114.583 94.248,114.776L94.248,116.766Z" style="fill-rule:nonzero;"/>
            <path d="M97.018,118.306L97.018,113.236L98.038,113.236L98.038,113.726L98.058,113.726C98.165,113.566 98.293,113.435 98.443,113.331C98.593,113.228 98.785,113.176 99.018,113.176C99.145,113.176 99.271,113.198 99.398,113.241C99.525,113.285 99.638,113.356 99.738,113.456C99.838,113.556 99.918,113.685 99.978,113.841C100.038,113.998 100.068,114.19 100.068,114.416L100.068,118.306L99.048,118.306L99.048,114.796C99.048,114.61 99.005,114.463 98.918,114.356C98.831,114.25 98.708,114.196 98.548,114.196C98.355,114.196 98.221,114.256 98.148,114.376C98.075,114.496 98.038,114.67 98.038,114.896L98.038,118.306L97.018,118.306Z" style="fill-rule:nonzero;"/>
            <path d="M100.908,118.306L100.908,113.236L101.928,113.236L101.928,113.726L101.948,113.726C102.055,113.566 102.183,113.435 102.333,113.331C102.483,113.228 102.675,113.176 102.908,113.176C103.035,113.176 103.161,113.198 103.288,113.241C103.415,113.285 103.528,113.356 103.628,113.456C103.728,113.556 103.808,113.685 103.868,113.841C103.928,113.998 103.958,114.19 103.958,114.416L103.958,118.306L102.938,118.306L102.938,114.796C102.938,114.61 102.895,114.463 102.808,114.356C102.721,114.25 102.598,114.196 102.438,114.196C102.245,114.196 102.111,114.256 102.038,114.376C101.965,114.496 101.928,114.67 101.928,114.896L101.928,118.306L100.908,118.306Z" style="fill-rule:nonzero;"/>
            <path d="M107.748,116.156L105.728,116.156L105.728,116.846C105.728,117.006 105.773,117.13 105.863,117.216C105.953,117.303 106.075,117.346 106.228,117.346C106.421,117.346 106.55,117.29 106.613,117.176C106.676,117.063 106.715,116.95 106.728,116.836L107.748,116.836C107.748,117.283 107.611,117.643 107.338,117.916C107.205,118.056 107.045,118.166 106.858,118.246C106.671,118.326 106.461,118.366 106.228,118.366C105.908,118.366 105.636,118.3 105.413,118.166C105.19,118.033 105.018,117.856 104.898,117.636C104.825,117.503 104.775,117.35 104.748,117.176C104.721,117.003 104.708,116.813 104.708,116.606L104.708,114.936C104.708,114.73 104.721,114.54 104.748,114.366C104.775,114.193 104.825,114.04 104.898,113.906C105.018,113.686 105.19,113.51 105.413,113.376C105.636,113.243 105.908,113.176 106.228,113.176C106.461,113.176 106.673,113.216 106.863,113.296C107.053,113.376 107.215,113.486 107.348,113.626C107.615,113.926 107.748,114.303 107.748,114.756L107.748,116.156ZM105.728,115.356L106.728,115.356L106.728,114.776C106.728,114.583 106.683,114.438 106.593,114.341C106.503,114.245 106.381,114.196 106.228,114.196C106.075,114.196 105.953,114.245 105.863,114.341C105.773,114.438 105.728,114.583 105.728,114.776L105.728,115.356Z" style="fill-rule:nonzero;"/>
            <path d="M109.578,116.846C109.578,117.006 109.623,117.13 109.713,117.216C109.803,117.303 109.925,117.346 110.078,117.346C110.271,117.346 110.4,117.29 110.463,117.176C110.526,117.063 110.565,116.95 110.578,116.836L111.598,116.836C111.598,117.283 111.461,117.643 111.188,117.916C111.055,118.056 110.895,118.166 110.708,118.246C110.521,118.326 110.311,118.366 110.078,118.366C109.758,118.366 109.486,118.3 109.263,118.166C109.04,118.033 108.868,117.856 108.748,117.636C108.675,117.503 108.625,117.35 108.598,117.176C108.571,117.003 108.558,116.813 108.558,116.606L108.558,114.936C108.558,114.73 108.571,114.54 108.598,114.366C108.625,114.193 108.675,114.04 108.748,113.906C108.868,113.686 109.04,113.51 109.263,113.376C109.486,113.243 109.758,113.176 110.078,113.176C110.311,113.176 110.523,113.216 110.713,113.296C110.903,113.376 111.065,113.486 111.198,113.626C111.465,113.926 111.598,114.316 111.598,114.796L110.578,114.796C110.578,114.59 110.533,114.438 110.443,114.341C110.353,114.245 110.231,114.196 110.078,114.196C109.925,114.196 109.803,114.245 109.713,114.341C109.623,114.438 109.578,114.583 109.578,114.776L109.578,116.846Z" style="fill-rule:nonzero;"/>
            <path d="M112.198,113.236L112.198,111.696L113.218,111.696L113.218,113.236L113.848,113.236L113.848,114.036L113.218,114.036L113.218,116.846C113.218,116.966 113.23,117.06 113.253,117.126C113.276,117.193 113.315,117.243 113.368,117.276C113.421,117.31 113.486,117.33 113.563,117.336C113.64,117.343 113.735,117.346 113.848,117.346L113.848,118.306L113.428,118.306C113.195,118.306 113,118.27 112.843,118.196C112.686,118.123 112.561,118.03 112.468,117.916C112.375,117.803 112.306,117.675 112.263,117.531C112.22,117.388 112.198,117.25 112.198,117.116L112.198,114.036L111.688,114.036L111.688,113.236L112.198,113.236Z" style="fill-rule:nonzero;"/>
        </g>
        <g transform="matrix(1,0,0,1,85.6785,196.325)">
            <text x="89.198px" y="118.306px" style="font-family:'DINCondensed-Bold', 'DIN Condensed';font-weight:700;font-stretch:condensed;font-size:10px;">connect</text>
        </g>
    </g>
    <g id="External" transform="matrix(1,0,0,1,-62.6212,-32.2183)">
        <g transform="matrix(1,0,0,1,-43.9735,43.1399)">
            <g id="B-output" serif:id="B#output" transform="matrix(0.175002,0,0,0.175002,148.809,278.505)">
                <rect x="53.94" y="106.916" width="161.978" height="161.978" style="fill:rgb(77,77,77);"/>
            </g>
            <g id="B-meter-5" serif:id="B#meter$5" transform="matrix(0.0370421,-5.00742e-33,-2.66667e-34,0.160516,148.35,281.371)">
                <rect x="53.94" y="106.916" width="161.978" height="161.978"/>
            </g>
            <g transform="matrix(1,0,0,1,46.0769,196.937)">
                <path d="M95.418,118.306L95.418,111.186L96.908,111.186C97.235,111.186 97.513,111.236 97.743,111.336C97.973,111.436 98.161,111.57 98.308,111.736C98.455,111.903 98.56,112.095 98.623,112.311C98.686,112.528 98.718,112.753 98.718,112.986L98.718,113.246C98.718,113.44 98.703,113.603 98.673,113.736C98.643,113.87 98.598,113.986 98.538,114.086C98.425,114.273 98.251,114.433 98.018,114.566C98.258,114.68 98.435,114.846 98.548,115.066C98.661,115.286 98.718,115.586 98.718,115.966L98.718,116.366C98.718,116.993 98.566,117.473 98.263,117.806C97.96,118.14 97.475,118.306 96.808,118.306L95.418,118.306ZM96.438,115.006L96.438,117.286L96.878,117.286C97.085,117.286 97.246,117.256 97.363,117.196C97.48,117.136 97.568,117.053 97.628,116.946C97.688,116.84 97.725,116.713 97.738,116.566C97.751,116.42 97.758,116.26 97.758,116.086C97.758,115.906 97.748,115.75 97.728,115.616C97.708,115.483 97.668,115.37 97.608,115.276C97.541,115.183 97.451,115.115 97.338,115.071C97.225,115.028 97.075,115.006 96.888,115.006L96.438,115.006ZM96.438,112.146L96.438,114.106L96.898,114.106C97.238,114.106 97.466,114.021 97.583,113.851C97.7,113.681 97.758,113.433 97.758,113.106C97.758,112.786 97.693,112.546 97.563,112.386C97.433,112.226 97.198,112.146 96.858,112.146L96.438,112.146Z" style="fill-rule:nonzero;"/>
            </g>
            <g transform="matrix(1,0,0,1,46.0769,196.937)">
                <text x="94.938px" y="118.306px" style="font-family:'DINCondensed-Bold', 'DIN Condensed';font-weight:700;font-stretch:condensed;font-size:10px;">B</text>
            </g>
        </g>
        <g transform="matrix(1,0,0,1,0,12)">
            <g id="A-output" serif:id="A#output" transform="matrix(0.175002,0,0,0.175002,104.835,278.26)">
                <rect x="53.94" y="106.916" width="161.978" height="161.978" style="fill:rgb(77,77,77);"/>
            </g>
            <g id="A-meter-5" serif:id="A#meter$5" transform="matrix(0.0370421,-5.00742e-33,-2.66667e-34,0.160516,104.042,280.809)">
                <rect x="53.94" y="106.916" width="161.978" height="161.978"/>
            </g>
            <g transform="matrix(1,0,0,1,1.30337,195.823)">
                <path d="M98.008,115.816L97.508,113.236L97.488,113.236L96.988,115.816L98.008,115.816ZM95.488,118.306L97.078,111.186L97.928,111.186L99.518,118.306L98.498,118.306L98.198,116.776L96.808,116.776L96.508,118.306L95.488,118.306Z" style="fill-rule:nonzero;"/>
            </g>
            <g transform="matrix(1,0,0,1,1.30337,195.823)">
                <text x="95.468px" y="118.306px" style="font-family:'DINCondensed-Bold', 'DIN Condensed';font-weight:700;font-stretch:condensed;font-size:10px;">A</text>
            </g>
        </g>
    </g>
    <g transform="matrix(1,0,0,1,0.953573,99.7543)">
        <g id="CV-output-P" serif:id="CV#output$P" transform="matrix(0.175002,0,0,0.175002,40.5502,107.171)">
            <rect x="53.94" y="106.916" width="161.978" height="161.978" style="fill:rgb(77,77,77);"/>
        </g>
        <g transform="matrix(1,0,0,1,-79.048,25.6946)">
            <path d="M90.698,116.846C90.698,117.006 90.743,117.13 90.833,117.216C90.923,117.303 91.045,117.346 91.198,117.346C91.391,117.346 91.52,117.29 91.583,117.176C91.646,117.063 91.685,116.95 91.698,116.836L92.718,116.836C92.718,117.283 92.581,117.643 92.308,117.916C92.175,118.056 92.015,118.166 91.828,118.246C91.641,118.326 91.431,118.366 91.198,118.366C90.878,118.366 90.606,118.3 90.383,118.166C90.16,118.033 89.988,117.856 89.868,117.636C89.795,117.503 89.745,117.35 89.718,117.176C89.691,117.003 89.678,116.813 89.678,116.606L89.678,114.936C89.678,114.73 89.691,114.54 89.718,114.366C89.745,114.193 89.795,114.04 89.868,113.906C89.988,113.686 90.16,113.51 90.383,113.376C90.606,113.243 90.878,113.176 91.198,113.176C91.431,113.176 91.643,113.216 91.833,113.296C92.023,113.376 92.185,113.486 92.318,113.626C92.585,113.926 92.718,114.316 92.718,114.796L91.698,114.796C91.698,114.59 91.653,114.438 91.563,114.341C91.473,114.245 91.351,114.196 91.198,114.196C91.045,114.196 90.923,114.245 90.833,114.341C90.743,114.438 90.698,114.583 90.698,114.776L90.698,116.846Z" style="fill-rule:nonzero;"/>
            <path d="M96.428,113.236L95.108,118.306L94.208,118.306L92.888,113.236L93.968,113.236L94.648,116.476L94.668,116.476L95.348,113.236L96.428,113.236Z" style="fill-rule:nonzero;"/>
            <path d="M98.328,118.366L99.648,111.126L100.448,111.126L99.128,118.366L98.328,118.366Z" style="fill-rule:nonzero;"/>
            <path d="M104.628,114.656C104.621,114.483 104.566,114.353 104.463,114.266C104.36,114.18 104.241,114.136 104.108,114.136C103.948,114.136 103.825,114.188 103.738,114.291C103.651,114.395 103.608,114.513 103.608,114.646C103.608,114.74 103.631,114.831 103.678,114.921C103.725,115.011 103.845,115.093 104.038,115.166L104.638,115.406C105.018,115.553 105.28,115.753 105.423,116.006C105.566,116.26 105.638,116.536 105.638,116.836C105.638,117.05 105.6,117.248 105.523,117.431C105.446,117.615 105.341,117.776 105.208,117.916C105.075,118.056 104.915,118.166 104.728,118.246C104.541,118.326 104.338,118.366 104.118,118.366C103.705,118.366 103.358,118.236 103.078,117.976C102.938,117.85 102.825,117.691 102.738,117.501C102.651,117.311 102.605,117.09 102.598,116.836L103.558,116.836C103.578,116.976 103.626,117.106 103.703,117.226C103.78,117.346 103.915,117.406 104.108,117.406C104.255,117.406 104.386,117.358 104.503,117.261C104.62,117.165 104.678,117.03 104.678,116.856C104.678,116.716 104.641,116.596 104.568,116.496C104.495,116.396 104.361,116.31 104.168,116.236L103.678,116.056C103.358,115.936 103.106,115.758 102.923,115.521C102.74,115.285 102.648,114.996 102.648,114.656C102.648,114.443 102.688,114.245 102.768,114.061C102.848,113.878 102.958,113.72 103.098,113.586C103.231,113.453 103.388,113.351 103.568,113.281C103.748,113.211 103.941,113.176 104.148,113.176C104.355,113.176 104.546,113.213 104.723,113.286C104.9,113.36 105.051,113.463 105.178,113.596C105.305,113.73 105.405,113.888 105.478,114.071C105.551,114.255 105.588,114.45 105.588,114.656L104.628,114.656Z" style="fill-rule:nonzero;"/>
            <path d="M106.238,111.186L107.258,111.186L107.258,116.876C107.258,117.07 107.293,117.201 107.363,117.271C107.433,117.341 107.565,117.386 107.758,117.406L107.758,118.366C107.525,118.366 107.315,118.348 107.128,118.311C106.941,118.275 106.781,118.203 106.648,118.096C106.515,117.996 106.413,117.855 106.343,117.671C106.273,117.488 106.238,117.246 106.238,116.946L106.238,111.186Z" style="fill-rule:nonzero;"/>
            <path d="M108.158,118.306L108.158,113.236L109.178,113.236L109.178,118.306L108.158,118.306ZM108.158,112.206L108.158,111.186L109.178,111.186L109.178,112.206L108.158,112.206Z" style="fill-rule:nonzero;"/>
            <path d="M111.038,116.656C111.038,116.863 111.078,117.03 111.158,117.156C111.238,117.283 111.365,117.346 111.538,117.346C111.691,117.346 111.815,117.288 111.908,117.171C112.001,117.055 112.048,116.903 112.048,116.716L112.048,114.746C112.048,114.586 112,114.455 111.903,114.351C111.806,114.248 111.685,114.196 111.538,114.196C111.345,114.196 111.213,114.256 111.143,114.376C111.073,114.496 111.038,114.636 111.038,114.796L111.038,116.656ZM112.048,118.306L112.048,117.846C111.981,117.92 111.918,117.988 111.858,118.051C111.798,118.115 111.731,118.17 111.658,118.216C111.585,118.263 111.501,118.3 111.408,118.326C111.315,118.353 111.205,118.366 111.078,118.366C110.651,118.366 110.355,118.206 110.188,117.886C110.128,117.773 110.085,117.633 110.058,117.466C110.031,117.3 110.018,117.076 110.018,116.796L110.018,114.866C110.018,114.5 110.028,114.23 110.048,114.056C110.088,113.723 110.245,113.473 110.518,113.306C110.645,113.22 110.835,113.176 111.088,113.176C111.288,113.176 111.466,113.221 111.623,113.311C111.78,113.401 111.915,113.53 112.028,113.696L112.048,113.696L112.048,111.186L113.068,111.186L113.068,118.306L112.048,118.306Z" style="fill-rule:nonzero;"/>
            <path d="M116.858,116.156L114.838,116.156L114.838,116.846C114.838,117.006 114.883,117.13 114.973,117.216C115.063,117.303 115.185,117.346 115.338,117.346C115.531,117.346 115.66,117.29 115.723,117.176C115.786,117.063 115.825,116.95 115.838,116.836L116.858,116.836C116.858,117.283 116.721,117.643 116.448,117.916C116.315,118.056 116.155,118.166 115.968,118.246C115.781,118.326 115.571,118.366 115.338,118.366C115.018,118.366 114.746,118.3 114.523,118.166C114.3,118.033 114.128,117.856 114.008,117.636C113.935,117.503 113.885,117.35 113.858,117.176C113.831,117.003 113.818,116.813 113.818,116.606L113.818,114.936C113.818,114.73 113.831,114.54 113.858,114.366C113.885,114.193 113.935,114.04 114.008,113.906C114.128,113.686 114.3,113.51 114.523,113.376C114.746,113.243 115.018,113.176 115.338,113.176C115.571,113.176 115.783,113.216 115.973,113.296C116.163,113.376 116.325,113.486 116.458,113.626C116.725,113.926 116.858,114.303 116.858,114.756L116.858,116.156ZM114.838,115.356L115.838,115.356L115.838,114.776C115.838,114.583 115.793,114.438 115.703,114.341C115.613,114.245 115.491,114.196 115.338,114.196C115.185,114.196 115.063,114.245 114.973,114.341C114.883,114.438 114.838,114.583 114.838,114.776L114.838,115.356Z" style="fill-rule:nonzero;"/>
            <path d="M117.608,118.306L117.608,113.236L118.628,113.236L118.628,113.776C118.835,113.59 119.038,113.443 119.238,113.336C119.438,113.23 119.685,113.176 119.978,113.176L119.978,114.256C119.878,114.216 119.775,114.196 119.668,114.196C119.561,114.196 119.446,114.215 119.323,114.251C119.2,114.288 119.088,114.35 118.988,114.436C118.881,114.523 118.795,114.636 118.728,114.776C118.661,114.916 118.628,115.09 118.628,115.296L118.628,118.306L117.608,118.306Z" style="fill-rule:nonzero;"/>
        </g>
        <g transform="matrix(1,0,0,1,-79.048,25.6946)">
            <text x="89.198px" y="118.306px" style="font-family:'DINCondensed-Bold', 'DIN Condensed';font-weight:700;font-stretch:condensed;font-size:10px;">cv / slider</text>
        </g>
    </g>
    <g id="Slider" transform="matrix(1,0,0,1,-21.7264,130.691)">
        <g id="Channel18-meter-5" serif:id="Channel18#meter$5" transform="matrix(0.0370421,-1.88741e-32,1.15556e-33,0.160516,93.0183,43.0511)">
            <rect x="53.94" y="106.916" width="161.978" height="161.978"/>
        </g>
        <g id="Channel17-meter-5" serif:id="Channel17#meter$5" transform="matrix(0.0370421,-1.88741e-32,1.15556e-33,0.160516,84.1131,43.0511)">
            <rect x="53.94" y="106.916" width="161.978" height="161.978"/>
        </g>
        <g id="Channel6-meter-5" serif:id="Channel6#meter$5" transform="matrix(0.0370421,-1.88741e-32,1.15556e-33,0.160516,75.2079,43.0511)">
            <rect x="53.94" y="106.916" width="161.978" height="161.978"/>
        </g>
        <g id="Channel5-meter-5" serif:id="Channel5#meter$5" transform="matrix(0.0370421,-1.88741e-32,1.15556e-33,0.160516,66.3027,43.0511)">
            <rect x="53.94" y="106.916" width="161.978" height="161.978"/>
        </g>
        <g id="Channel4-meter-5" serif:id="Channel4#meter$5" transform="matrix(0.0370421,-1.88741e-32,1.15556e-33,0.160516,57.3975,43.0511)">
            <rect x="53.94" y="106.916" width="161.978" height="161.978"/>
        </g>
        <g id="Channel3-meter-5" serif:id="Channel3#meter$5" transform="matrix(0.0370421,-1.88741e-32,1.15556e-33,0.160516,48.4923,43.0511)">
            <rect x="53.94" y="106.916" width="161.978" height="161.978"/>
        </g>
        <g id="Channel2-meter-5" serif:id="Channel2#meter$5" transform="matrix(0.0370421,-1.88741e-32,1.15556e-33,0.160516,39.5871,43.0511)">
            <rect x="53.94" y="106.916" width="161.978" height="161.978"/>
        </g>
        <g id="Channel1-meter-5" serif:id="Channel1#meter$5" transform="matrix(0.0370421,-1.88741e-32,1.15556e-33,0.160516,30.6819,43.0511)">
            <rect x="53.94" y="106.916" width="161.978" height="161.978"/>
        </g>
        <g transform="matrix(1,0,0,1,-45.738,-61.7365)">
            <path d="M81.078,114.656C81.071,114.483 81.016,114.353 80.913,114.266C80.81,114.18 80.691,114.136 80.558,114.136C80.398,114.136 80.275,114.188 80.188,114.291C80.101,114.395 80.058,114.513 80.058,114.646C80.058,114.74 80.081,114.831 80.128,114.921C80.175,115.011 80.295,115.093 80.488,115.166L81.088,115.406C81.468,115.553 81.73,115.753 81.873,116.006C82.016,116.26 82.088,116.536 82.088,116.836C82.088,117.05 82.05,117.248 81.973,117.431C81.896,117.615 81.791,117.776 81.658,117.916C81.525,118.056 81.365,118.166 81.178,118.246C80.991,118.326 80.788,118.366 80.568,118.366C80.155,118.366 79.808,118.236 79.528,117.976C79.388,117.85 79.275,117.691 79.188,117.501C79.101,117.311 79.055,117.09 79.048,116.836L80.008,116.836C80.028,116.976 80.076,117.106 80.153,117.226C80.23,117.346 80.365,117.406 80.558,117.406C80.705,117.406 80.836,117.358 80.953,117.261C81.07,117.165 81.128,117.03 81.128,116.856C81.128,116.716 81.091,116.596 81.018,116.496C80.945,116.396 80.811,116.31 80.618,116.236L80.128,116.056C79.808,115.936 79.556,115.758 79.373,115.521C79.19,115.285 79.098,114.996 79.098,114.656C79.098,114.443 79.138,114.245 79.218,114.061C79.298,113.878 79.408,113.72 79.548,113.586C79.681,113.453 79.838,113.351 80.018,113.281C80.198,113.211 80.391,113.176 80.598,113.176C80.805,113.176 80.996,113.213 81.173,113.286C81.35,113.36 81.501,113.463 81.628,113.596C81.755,113.73 81.855,113.888 81.928,114.071C82.001,114.255 82.038,114.45 82.038,114.656L81.078,114.656Z" style="fill-rule:nonzero;"/>
            <path d="M82.688,111.186L83.708,111.186L83.708,116.876C83.708,117.07 83.743,117.201 83.813,117.271C83.883,117.341 84.015,117.386 84.208,117.406L84.208,118.366C83.975,118.366 83.765,118.348 83.578,118.311C83.391,118.275 83.231,118.203 83.098,118.096C82.965,117.996 82.863,117.855 82.793,117.671C82.723,117.488 82.688,117.246 82.688,116.946L82.688,111.186Z" style="fill-rule:nonzero;"/>
            <path d="M84.608,118.306L84.608,113.236L85.628,113.236L85.628,118.306L84.608,118.306ZM84.608,112.206L84.608,111.186L85.628,111.186L85.628,112.206L84.608,112.206Z" style="fill-rule:nonzero;"/>
            <path d="M87.488,116.656C87.488,116.863 87.528,117.03 87.608,117.156C87.688,117.283 87.815,117.346 87.988,117.346C88.141,117.346 88.265,117.288 88.358,117.171C88.451,117.055 88.498,116.903 88.498,116.716L88.498,114.746C88.498,114.586 88.45,114.455 88.353,114.351C88.256,114.248 88.135,114.196 87.988,114.196C87.795,114.196 87.663,114.256 87.593,114.376C87.523,114.496 87.488,114.636 87.488,114.796L87.488,116.656ZM88.498,118.306L88.498,117.846C88.431,117.92 88.368,117.988 88.308,118.051C88.248,118.115 88.181,118.17 88.108,118.216C88.035,118.263 87.951,118.3 87.858,118.326C87.765,118.353 87.655,118.366 87.528,118.366C87.101,118.366 86.805,118.206 86.638,117.886C86.578,117.773 86.535,117.633 86.508,117.466C86.481,117.3 86.468,117.076 86.468,116.796L86.468,114.866C86.468,114.5 86.478,114.23 86.498,114.056C86.538,113.723 86.695,113.473 86.968,113.306C87.095,113.22 87.285,113.176 87.538,113.176C87.738,113.176 87.916,113.221 88.073,113.311C88.23,113.401 88.365,113.53 88.478,113.696L88.498,113.696L88.498,111.186L89.518,111.186L89.518,118.306L88.498,118.306Z" style="fill-rule:nonzero;"/>
            <path d="M93.308,116.156L91.288,116.156L91.288,116.846C91.288,117.006 91.333,117.13 91.423,117.216C91.513,117.303 91.635,117.346 91.788,117.346C91.981,117.346 92.11,117.29 92.173,117.176C92.236,117.063 92.275,116.95 92.288,116.836L93.308,116.836C93.308,117.283 93.171,117.643 92.898,117.916C92.765,118.056 92.605,118.166 92.418,118.246C92.231,118.326 92.021,118.366 91.788,118.366C91.468,118.366 91.196,118.3 90.973,118.166C90.75,118.033 90.578,117.856 90.458,117.636C90.385,117.503 90.335,117.35 90.308,117.176C90.281,117.003 90.268,116.813 90.268,116.606L90.268,114.936C90.268,114.73 90.281,114.54 90.308,114.366C90.335,114.193 90.385,114.04 90.458,113.906C90.578,113.686 90.75,113.51 90.973,113.376C91.196,113.243 91.468,113.176 91.788,113.176C92.021,113.176 92.233,113.216 92.423,113.296C92.613,113.376 92.775,113.486 92.908,113.626C93.175,113.926 93.308,114.303 93.308,114.756L93.308,116.156ZM91.288,115.356L92.288,115.356L92.288,114.776C92.288,114.583 92.243,114.438 92.153,114.341C92.063,114.245 91.941,114.196 91.788,114.196C91.635,114.196 91.513,114.245 91.423,114.341C91.333,114.438 91.288,114.583 91.288,114.776L91.288,115.356Z" style="fill-rule:nonzero;"/>
            <path d="M94.058,118.306L94.058,113.236L95.078,113.236L95.078,113.776C95.285,113.59 95.488,113.443 95.688,113.336C95.888,113.23 96.135,113.176 96.428,113.176L96.428,114.256C96.328,114.216 96.225,114.196 96.118,114.196C96.011,114.196 95.896,114.215 95.773,114.251C95.65,114.288 95.538,114.35 95.438,114.436C95.331,114.523 95.245,114.636 95.178,114.776C95.111,114.916 95.078,115.09 95.078,115.296L95.078,118.306L94.058,118.306Z" style="fill-rule:nonzero;"/>
        </g>
        <g transform="matrix(1,0,0,1,-45.738,-61.7365)">
            <text x="78.808px" y="118.306px" style="font-family:'DINCondensed-Bold', 'DIN Condensed';font-weight:700;font-stretch:condensed;font-size:10px;">slider</text>
        </g>
    </g>
    <g id="CV" transform="matrix(1,0,0,1,-21.7264,87.8329)">
        <g id="Channel18-meter-51" serif:id="Channel18#meter$5" transform="matrix(0.0370421,-1.88741e-32,1.15556e-33,0.160516,93.0183,43.0511)">
            <rect x="53.94" y="106.916" width="161.978" height="161.978"/>
        </g>
        <g id="Channel17-meter-51" serif:id="Channel17#meter$5" transform="matrix(0.0370421,-1.88741e-32,1.15556e-33,0.160516,84.1131,43.0511)">
            <rect x="53.94" y="106.916" width="161.978" height="161.978"/>
        </g>
        <g id="Channel6-meter-51" serif:id="Channel6#meter$5" transform="matrix(0.0370421,-1.88741e-32,1.15556e-33,0.160516,75.2079,43.0511)">
            <rect x="53.94" y="106.916" width="161.978" height="161.978"/>
        </g>
        <g id="Channel5-meter-51" serif:id="Channel5#meter$5" transform="matrix(0.0370421,-1.88741e-32,1.15556e-33,0.160516,66.3027,43.0511)">
            <rect x="53.94" y="106.916" width="161.978" height="161.978"/>
        </g>
        <g id="Channel4-meter-51" serif:id="Channel4#meter$5" transform="matrix(0.0370421,-1.88741e-32,1.15556e-33,0.160516,57.3975,43.0511)">
            <rect x="53.94" y="106.916" width="161.978" height="161.978"/>
        </g>
        <g id="Channel3-meter-51" serif:id="Channel3#meter$5" transform="matrix(0.0370421,-1.88741e-32,1.15556e-33,0.160516,48.4923,43.0511)">
            <rect x="53.94" y="106.916" width="161.978" height="161.978"/>
        </g>
        <g id="Channel2-meter-51" serif:id="Channel2#meter$5" transform="matrix(0.0370421,-1.88741e-32,1.15556e-33,0.160516,39.5871,43.0511)">
            <rect x="53.94" y="106.916" width="161.978" height="161.978"/>
        </g>
        <g id="Channel1-meter-51" serif:id="Channel1#meter$5" transform="matrix(0.0370421,-1.88741e-32,1.15556e-33,0.160516,30.6819,43.0511)">
            <rect x="53.94" y="106.916" width="161.978" height="161.978"/>
        </g>
        <g transform="matrix(1,0,0,1,-56.368,-61.97)">
            <path d="M90.698,116.846C90.698,117.006 90.743,117.13 90.833,117.216C90.923,117.303 91.045,117.346 91.198,117.346C91.391,117.346 91.52,117.29 91.583,117.176C91.646,117.063 91.685,116.95 91.698,116.836L92.718,116.836C92.718,117.283 92.581,117.643 92.308,117.916C92.175,118.056 92.015,118.166 91.828,118.246C91.641,118.326 91.431,118.366 91.198,118.366C90.878,118.366 90.606,118.3 90.383,118.166C90.16,118.033 89.988,117.856 89.868,117.636C89.795,117.503 89.745,117.35 89.718,117.176C89.691,117.003 89.678,116.813 89.678,116.606L89.678,114.936C89.678,114.73 89.691,114.54 89.718,114.366C89.745,114.193 89.795,114.04 89.868,113.906C89.988,113.686 90.16,113.51 90.383,113.376C90.606,113.243 90.878,113.176 91.198,113.176C91.431,113.176 91.643,113.216 91.833,113.296C92.023,113.376 92.185,113.486 92.318,113.626C92.585,113.926 92.718,114.316 92.718,114.796L91.698,114.796C91.698,114.59 91.653,114.438 91.563,114.341C91.473,114.245 91.351,114.196 91.198,114.196C91.045,114.196 90.923,114.245 90.833,114.341C90.743,114.438 90.698,114.583 90.698,114.776L90.698,116.846Z" style="fill-rule:nonzero;"/>
            <path d="M96.428,113.236L95.108,118.306L94.208,118.306L92.888,113.236L93.968,113.236L94.648,116.476L94.668,116.476L95.348,113.236L96.428,113.236Z" style="fill-rule:nonzero;"/>
        </g>
        <g transform="matrix(1,0,0,1,-56.368,-61.97)">
            <text x="89.198px" y="118.306px" style="font-family:'DINCondensed-Bold', 'DIN Condensed';font-weight:700;font-stretch:condensed;font-size:10px;">cv</text>
        </g>
    </g>
    <g transform="matrix(1,0,0,1,-0.386435,-141.892)">
        <g id="Gate-output-P" serif:id="Gate#output$P" transform="matrix(0.175002,0,0,0.175002,42.6004,215.476)">
            <rect x="53.94" y="106.916" width="161.978" height="161.978" style="fill:rgb(77,77,77);"/>
        </g>
        <g transform="matrix(1,0,0,1,-79.048,133.695)">
            <path d="M90.638,118.896C90.645,119.016 90.693,119.13 90.783,119.236C90.873,119.343 91.005,119.396 91.178,119.396C91.345,119.396 91.465,119.345 91.538,119.241C91.611,119.138 91.648,119.006 91.648,118.846L91.648,117.846L91.628,117.846C91.515,118.013 91.38,118.141 91.223,118.231C91.066,118.321 90.885,118.366 90.678,118.366C90.251,118.366 89.955,118.206 89.788,117.886C89.728,117.773 89.685,117.633 89.658,117.466C89.631,117.3 89.618,117.076 89.618,116.796L89.618,114.866C89.618,114.5 89.628,114.23 89.648,114.056C89.688,113.723 89.845,113.473 90.118,113.306C90.245,113.22 90.435,113.176 90.688,113.176C90.815,113.176 90.923,113.19 91.013,113.216C91.103,113.243 91.185,113.28 91.258,113.326C91.331,113.373 91.398,113.428 91.458,113.491C91.518,113.555 91.581,113.623 91.648,113.696L91.648,113.236L92.668,113.236L92.668,118.926C92.668,119.1 92.64,119.275 92.583,119.451C92.526,119.628 92.435,119.786 92.308,119.926C92.181,120.073 92.021,120.191 91.828,120.281C91.635,120.371 91.405,120.416 91.138,120.416C90.985,120.416 90.825,120.391 90.658,120.341C90.491,120.291 90.338,120.206 90.198,120.086C90.051,119.973 89.926,119.821 89.823,119.631C89.72,119.441 89.651,119.196 89.618,118.896L90.638,118.896ZM90.638,116.746C90.638,116.906 90.673,117.046 90.743,117.166C90.813,117.286 90.945,117.346 91.138,117.346C91.285,117.346 91.406,117.295 91.503,117.191C91.6,117.088 91.648,116.956 91.648,116.796L91.648,114.826C91.648,114.64 91.601,114.488 91.508,114.371C91.415,114.255 91.291,114.196 91.138,114.196C90.965,114.196 90.838,114.26 90.758,114.386C90.678,114.513 90.638,114.68 90.638,114.886L90.638,116.746Z" style="fill-rule:nonzero;"/>
            <path d="M95.438,118.306L95.438,117.786L95.418,117.786C95.285,117.973 95.15,118.116 95.013,118.216C94.876,118.316 94.685,118.366 94.438,118.366C94.318,118.366 94.196,118.348 94.073,118.311C93.95,118.275 93.831,118.206 93.718,118.106C93.605,118.013 93.513,117.878 93.443,117.701C93.373,117.525 93.338,117.296 93.338,117.016C93.338,116.73 93.361,116.478 93.408,116.261C93.455,116.045 93.541,115.863 93.668,115.716C93.788,115.576 93.951,115.471 94.158,115.401C94.365,115.331 94.628,115.296 94.948,115.296L95.058,115.296C95.098,115.296 95.135,115.3 95.168,115.306C95.201,115.313 95.241,115.316 95.288,115.316C95.335,115.316 95.385,115.32 95.438,115.326L95.438,114.796C95.438,114.623 95.401,114.48 95.328,114.366C95.255,114.253 95.121,114.196 94.928,114.196C94.795,114.196 94.673,114.24 94.563,114.326C94.453,114.413 94.381,114.54 94.348,114.706L93.358,114.706C93.385,114.253 93.538,113.886 93.818,113.606C93.951,113.473 94.111,113.368 94.298,113.291C94.485,113.215 94.695,113.176 94.928,113.176C95.141,113.176 95.341,113.21 95.528,113.276C95.715,113.343 95.878,113.443 96.018,113.576C96.151,113.71 96.258,113.876 96.338,114.076C96.418,114.276 96.458,114.51 96.458,114.776L96.458,118.306L95.438,118.306ZM95.438,116.126C95.325,116.106 95.231,116.096 95.158,116.096C94.938,116.096 94.75,116.148 94.593,116.251C94.436,116.355 94.358,116.543 94.358,116.816C94.358,117.01 94.405,117.166 94.498,117.286C94.591,117.406 94.721,117.466 94.888,117.466C95.061,117.466 95.196,117.41 95.293,117.296C95.39,117.183 95.438,117.023 95.438,116.816L95.438,116.126Z" style="fill-rule:nonzero;"/>
            <path d="M97.208,113.236L97.208,111.696L98.228,111.696L98.228,113.236L98.858,113.236L98.858,114.036L98.228,114.036L98.228,116.846C98.228,116.966 98.24,117.06 98.263,117.126C98.286,117.193 98.325,117.243 98.378,117.276C98.431,117.31 98.496,117.33 98.573,117.336C98.65,117.343 98.745,117.346 98.858,117.346L98.858,118.306L98.438,118.306C98.205,118.306 98.01,118.27 97.853,118.196C97.696,118.123 97.571,118.03 97.478,117.916C97.385,117.803 97.316,117.675 97.273,117.531C97.23,117.388 97.208,117.25 97.208,117.116L97.208,114.036L96.698,114.036L96.698,113.236L97.208,113.236Z" style="fill-rule:nonzero;"/>
            <path d="M102.198,116.156L100.178,116.156L100.178,116.846C100.178,117.006 100.223,117.13 100.313,117.216C100.403,117.303 100.525,117.346 100.678,117.346C100.871,117.346 101,117.29 101.063,117.176C101.126,117.063 101.165,116.95 101.178,116.836L102.198,116.836C102.198,117.283 102.061,117.643 101.788,117.916C101.655,118.056 101.495,118.166 101.308,118.246C101.121,118.326 100.911,118.366 100.678,118.366C100.358,118.366 100.086,118.3 99.863,118.166C99.64,118.033 99.468,117.856 99.348,117.636C99.275,117.503 99.225,117.35 99.198,117.176C99.171,117.003 99.158,116.813 99.158,116.606L99.158,114.936C99.158,114.73 99.171,114.54 99.198,114.366C99.225,114.193 99.275,114.04 99.348,113.906C99.468,113.686 99.64,113.51 99.863,113.376C100.086,113.243 100.358,113.176 100.678,113.176C100.911,113.176 101.123,113.216 101.313,113.296C101.503,113.376 101.665,113.486 101.798,113.626C102.065,113.926 102.198,114.303 102.198,114.756L102.198,116.156ZM100.178,115.356L101.178,115.356L101.178,114.776C101.178,114.583 101.133,114.438 101.043,114.341C100.953,114.245 100.831,114.196 100.678,114.196C100.525,114.196 100.403,114.245 100.313,114.341C100.223,114.438 100.178,114.583 100.178,114.776L100.178,115.356Z" style="fill-rule:nonzero;"/>
            <path d="M104.438,118.366L105.758,111.126L106.558,111.126L105.238,118.366L104.438,118.366Z" style="fill-rule:nonzero;"/>
            <path d="M108.828,111.186L109.848,111.186L109.848,116.876C109.848,117.07 109.883,117.201 109.953,117.271C110.023,117.341 110.155,117.386 110.348,117.406L110.348,118.366C110.115,118.366 109.905,118.348 109.718,118.311C109.531,118.275 109.371,118.203 109.238,118.096C109.105,117.996 109.003,117.855 108.933,117.671C108.863,117.488 108.828,117.246 108.828,116.946L108.828,111.186Z" style="fill-rule:nonzero;"/>
            <path d="M112.678,118.306L112.678,117.786L112.658,117.786C112.525,117.973 112.39,118.116 112.253,118.216C112.116,118.316 111.925,118.366 111.678,118.366C111.558,118.366 111.436,118.348 111.313,118.311C111.19,118.275 111.071,118.206 110.958,118.106C110.845,118.013 110.753,117.878 110.683,117.701C110.613,117.525 110.578,117.296 110.578,117.016C110.578,116.73 110.601,116.478 110.648,116.261C110.695,116.045 110.781,115.863 110.908,115.716C111.028,115.576 111.191,115.471 111.398,115.401C111.605,115.331 111.868,115.296 112.188,115.296L112.298,115.296C112.338,115.296 112.375,115.3 112.408,115.306C112.441,115.313 112.481,115.316 112.528,115.316C112.575,115.316 112.625,115.32 112.678,115.326L112.678,114.796C112.678,114.623 112.641,114.48 112.568,114.366C112.495,114.253 112.361,114.196 112.168,114.196C112.035,114.196 111.913,114.24 111.803,114.326C111.693,114.413 111.621,114.54 111.588,114.706L110.598,114.706C110.625,114.253 110.778,113.886 111.058,113.606C111.191,113.473 111.351,113.368 111.538,113.291C111.725,113.215 111.935,113.176 112.168,113.176C112.381,113.176 112.581,113.21 112.768,113.276C112.955,113.343 113.118,113.443 113.258,113.576C113.391,113.71 113.498,113.876 113.578,114.076C113.658,114.276 113.698,114.51 113.698,114.776L113.698,118.306L112.678,118.306ZM112.678,116.126C112.565,116.106 112.471,116.096 112.398,116.096C112.178,116.096 111.99,116.148 111.833,116.251C111.676,116.355 111.598,116.543 111.598,116.816C111.598,117.01 111.645,117.166 111.738,117.286C111.831,117.406 111.961,117.466 112.128,117.466C112.301,117.466 112.436,117.41 112.533,117.296C112.63,117.183 112.678,117.023 112.678,116.816L112.678,116.126Z" style="fill-rule:nonzero;"/>
            <path d="M114.448,113.236L114.448,111.696L115.468,111.696L115.468,113.236L116.098,113.236L116.098,114.036L115.468,114.036L115.468,116.846C115.468,116.966 115.48,117.06 115.503,117.126C115.526,117.193 115.565,117.243 115.618,117.276C115.671,117.31 115.736,117.33 115.813,117.336C115.89,117.343 115.985,117.346 116.098,117.346L116.098,118.306L115.678,118.306C115.445,118.306 115.25,118.27 115.093,118.196C114.936,118.123 114.811,118.03 114.718,117.916C114.625,117.803 114.556,117.675 114.513,117.531C114.47,117.388 114.448,117.25 114.448,117.116L114.448,114.036L113.938,114.036L113.938,113.236L114.448,113.236Z" style="fill-rule:nonzero;"/>
            <path d="M117.568,116.846C117.568,117.006 117.613,117.13 117.703,117.216C117.793,117.303 117.915,117.346 118.068,117.346C118.261,117.346 118.39,117.29 118.453,117.176C118.516,117.063 118.555,116.95 118.568,116.836L119.588,116.836C119.588,117.283 119.451,117.643 119.178,117.916C119.045,118.056 118.885,118.166 118.698,118.246C118.511,118.326 118.301,118.366 118.068,118.366C117.748,118.366 117.476,118.3 117.253,118.166C117.03,118.033 116.858,117.856 116.738,117.636C116.665,117.503 116.615,117.35 116.588,117.176C116.561,117.003 116.548,116.813 116.548,116.606L116.548,114.936C116.548,114.73 116.561,114.54 116.588,114.366C116.615,114.193 116.665,114.04 116.738,113.906C116.858,113.686 117.03,113.51 117.253,113.376C117.476,113.243 117.748,113.176 118.068,113.176C118.301,113.176 118.513,113.216 118.703,113.296C118.893,113.376 119.055,113.486 119.188,113.626C119.455,113.926 119.588,114.316 119.588,114.796L118.568,114.796C118.568,114.59 118.523,114.438 118.433,114.341C118.343,114.245 118.221,114.196 118.068,114.196C117.915,114.196 117.793,114.245 117.703,114.341C117.613,114.438 117.568,114.583 117.568,114.776L117.568,116.846Z" style="fill-rule:nonzero;"/>
            <path d="M120.068,118.306L120.068,111.186L121.088,111.186L121.088,113.726L121.108,113.726C121.215,113.566 121.343,113.435 121.493,113.331C121.643,113.228 121.835,113.176 122.068,113.176C122.195,113.176 122.321,113.198 122.448,113.241C122.575,113.285 122.688,113.356 122.788,113.456C122.888,113.556 122.968,113.685 123.028,113.841C123.088,113.998 123.118,114.19 123.118,114.416L123.118,118.306L122.098,118.306L122.098,114.796C122.098,114.61 122.055,114.463 121.968,114.356C121.881,114.25 121.758,114.196 121.598,114.196C121.405,114.196 121.271,114.256 121.198,114.376C121.125,114.496 121.088,114.67 121.088,114.896L121.088,118.306L120.068,118.306Z" style="fill-rule:nonzero;"/>
        </g>
        <g transform="matrix(1,0,0,1,-79.048,133.695)">
            <text x="89.198px" y="118.306px" style="font-family:'DINCondensed-Bold', 'DIN Condensed';font-weight:700;font-stretch:condensed;font-size:10px;">gate / latc<tspan x="119.648px " y="118.306px ">h</tspan></text>
        </g>
    </g>
    <g id="Latch" transform="matrix(1,0,0,1,-25.4365,-86.6468)">
        <g id="Channel8-led" serif:id="Channel8#led" transform="matrix(1,0,0,1,59.4498,-171.456)">
            <circle cx="42.167" cy="335.861" r="3.82" style="fill:rgb(230,230,230);"/>
        </g>
        <g id="Channel7-led" serif:id="Channel7#led" transform="matrix(1,0,0,1,50.5761,-171.456)">
            <circle cx="42.167" cy="335.861" r="3.82" style="fill:rgb(230,230,230);"/>
        </g>
        <g id="Channel6-led" serif:id="Channel6#led" transform="matrix(1,0,0,1,41.7023,-171.456)">
            <circle cx="42.167" cy="335.861" r="3.82" style="fill:rgb(230,230,230);"/>
        </g>
        <g id="Channel5-led" serif:id="Channel5#led" transform="matrix(1,0,0,1,32.8286,-171.456)">
            <circle cx="42.167" cy="335.861" r="3.82" style="fill:rgb(230,230,230);"/>
        </g>
        <g id="Channel4-led" serif:id="Channel4#led" transform="matrix(1,0,0,1,23.9548,-171.456)">
            <circle cx="42.167" cy="335.861" r="3.82" style="fill:rgb(230,230,230);"/>
        </g>
        <g id="Channel3-led" serif:id="Channel3#led" transform="matrix(1,0,0,1,15.0811,-171.456)">
            <circle cx="42.167" cy="335.861" r="3.82" style="fill:rgb(230,230,230);"/>
        </g>
        <g id="Channe21-led" serif:id="Channe21#led" transform="matrix(1,0,0,1,6.2073,-171.456)">
            <circle cx="42.167" cy="335.861" r="3.82" style="fill:rgb(230,230,230);"/>
        </g>
        <g id="Channel1-led" serif:id="Channel1#led" transform="matrix(1,0,0,1,-2.66646,-171.456)">
            <circle cx="42.167" cy="335.861" r="3.82" style="fill:rgb(230,230,230);"/>
        </g>
        <g transform="matrix(1,0,0,1,-51.6277,38.7987)">
            <path d="M87.818,111.186L88.838,111.186L88.838,116.876C88.838,117.07 88.873,117.201 88.943,117.271C89.013,117.341 89.145,117.386 89.338,117.406L89.338,118.366C89.105,118.366 88.895,118.348 88.708,118.311C88.521,118.275 88.361,118.203 88.228,118.096C88.095,117.996 87.993,117.855 87.923,117.671C87.853,117.488 87.818,117.246 87.818,116.946L87.818,111.186Z" style="fill-rule:nonzero;"/>
            <path d="M91.668,118.306L91.668,117.786L91.648,117.786C91.515,117.973 91.38,118.116 91.243,118.216C91.106,118.316 90.915,118.366 90.668,118.366C90.548,118.366 90.426,118.348 90.303,118.311C90.18,118.275 90.061,118.206 89.948,118.106C89.835,118.013 89.743,117.878 89.673,117.701C89.603,117.525 89.568,117.296 89.568,117.016C89.568,116.73 89.591,116.478 89.638,116.261C89.685,116.045 89.771,115.863 89.898,115.716C90.018,115.576 90.181,115.471 90.388,115.401C90.595,115.331 90.858,115.296 91.178,115.296L91.288,115.296C91.328,115.296 91.365,115.3 91.398,115.306C91.431,115.313 91.471,115.316 91.518,115.316C91.565,115.316 91.615,115.32 91.668,115.326L91.668,114.796C91.668,114.623 91.631,114.48 91.558,114.366C91.485,114.253 91.351,114.196 91.158,114.196C91.025,114.196 90.903,114.24 90.793,114.326C90.683,114.413 90.611,114.54 90.578,114.706L89.588,114.706C89.615,114.253 89.768,113.886 90.048,113.606C90.181,113.473 90.341,113.368 90.528,113.291C90.715,113.215 90.925,113.176 91.158,113.176C91.371,113.176 91.571,113.21 91.758,113.276C91.945,113.343 92.108,113.443 92.248,113.576C92.381,113.71 92.488,113.876 92.568,114.076C92.648,114.276 92.688,114.51 92.688,114.776L92.688,118.306L91.668,118.306ZM91.668,116.126C91.555,116.106 91.461,116.096 91.388,116.096C91.168,116.096 90.98,116.148 90.823,116.251C90.666,116.355 90.588,116.543 90.588,116.816C90.588,117.01 90.635,117.166 90.728,117.286C90.821,117.406 90.951,117.466 91.118,117.466C91.291,117.466 91.426,117.41 91.523,117.296C91.62,117.183 91.668,117.023 91.668,116.816L91.668,116.126Z" style="fill-rule:nonzero;"/>
            <path d="M93.438,113.236L93.438,111.696L94.458,111.696L94.458,113.236L95.088,113.236L95.088,114.036L94.458,114.036L94.458,116.846C94.458,116.966 94.47,117.06 94.493,117.126C94.516,117.193 94.555,117.243 94.608,117.276C94.661,117.31 94.726,117.33 94.803,117.336C94.88,117.343 94.975,117.346 95.088,117.346L95.088,118.306L94.668,118.306C94.435,118.306 94.24,118.27 94.083,118.196C93.926,118.123 93.801,118.03 93.708,117.916C93.615,117.803 93.546,117.675 93.503,117.531C93.46,117.388 93.438,117.25 93.438,117.116L93.438,114.036L92.928,114.036L92.928,113.236L93.438,113.236Z" style="fill-rule:nonzero;"/>
            <path d="M96.558,116.846C96.558,117.006 96.603,117.13 96.693,117.216C96.783,117.303 96.905,117.346 97.058,117.346C97.251,117.346 97.38,117.29 97.443,117.176C97.506,117.063 97.545,116.95 97.558,116.836L98.578,116.836C98.578,117.283 98.441,117.643 98.168,117.916C98.035,118.056 97.875,118.166 97.688,118.246C97.501,118.326 97.291,118.366 97.058,118.366C96.738,118.366 96.466,118.3 96.243,118.166C96.02,118.033 95.848,117.856 95.728,117.636C95.655,117.503 95.605,117.35 95.578,117.176C95.551,117.003 95.538,116.813 95.538,116.606L95.538,114.936C95.538,114.73 95.551,114.54 95.578,114.366C95.605,114.193 95.655,114.04 95.728,113.906C95.848,113.686 96.02,113.51 96.243,113.376C96.466,113.243 96.738,113.176 97.058,113.176C97.291,113.176 97.503,113.216 97.693,113.296C97.883,113.376 98.045,113.486 98.178,113.626C98.445,113.926 98.578,114.316 98.578,114.796L97.558,114.796C97.558,114.59 97.513,114.438 97.423,114.341C97.333,114.245 97.211,114.196 97.058,114.196C96.905,114.196 96.783,114.245 96.693,114.341C96.603,114.438 96.558,114.583 96.558,114.776L96.558,116.846Z" style="fill-rule:nonzero;"/>
            <path d="M99.058,118.306L99.058,111.186L100.078,111.186L100.078,113.726L100.098,113.726C100.205,113.566 100.333,113.435 100.483,113.331C100.633,113.228 100.825,113.176 101.058,113.176C101.185,113.176 101.311,113.198 101.438,113.241C101.565,113.285 101.678,113.356 101.778,113.456C101.878,113.556 101.958,113.685 102.018,113.841C102.078,113.998 102.108,114.19 102.108,114.416L102.108,118.306L101.088,118.306L101.088,114.796C101.088,114.61 101.045,114.463 100.958,114.356C100.871,114.25 100.748,114.196 100.588,114.196C100.395,114.196 100.261,114.256 100.188,114.376C100.115,114.496 100.078,114.67 100.078,114.896L100.078,118.306L99.058,118.306Z" style="fill-rule:nonzero;"/>
        </g>
        <g transform="matrix(1,0,0,1,-51.6277,38.7987)">
            <text x="87.458px" y="118.306px" style="font-family:'DINCondensed-Bold', 'DIN Condensed';font-weight:700;font-stretch:condensed;font-size:10px;">latc<tspan x="98.638px " y="118.306px ">h</tspan></text>
        </g>
    </g>
    <g id="Gate" transform="matrix(1,0,0,1,-25.4365,-110.969)">
        <g id="Channel8-led1" serif:id="Channel8#led" transform="matrix(1,0,0,1,59.4498,-171.456)">
            <circle cx="42.167" cy="335.861" r="3.82" style="fill:rgb(230,230,230);"/>
        </g>
        <g id="Channel7-led1" serif:id="Channel7#led" transform="matrix(1,0,0,1,50.5761,-171.456)">
            <circle cx="42.167" cy="335.861" r="3.82" style="fill:rgb(230,230,230);"/>
        </g>
        <g id="Channel6-led1" serif:id="Channel6#led" transform="matrix(1,0,0,1,41.7023,-171.456)">
            <circle cx="42.167" cy="335.861" r="3.82" style="fill:rgb(230,230,230);"/>
        </g>
        <g id="Channel5-led1" serif:id="Channel5#led" transform="matrix(1,0,0,1,32.8286,-171.456)">
            <circle cx="42.167" cy="335.861" r="3.82" style="fill:rgb(230,230,230);"/>
        </g>
        <g id="Channel4-led1" serif:id="Channel4#led" transform="matrix(1,0,0,1,23.9548,-171.456)">
            <circle cx="42.167" cy="335.861" r="3.82" style="fill:rgb(230,230,230);"/>
        </g>
        <g id="Channel3-led1" serif:id="Channel3#led" transform="matrix(1,0,0,1,15.0811,-171.456)">
            <circle cx="42.167" cy="335.861" r="3.82" style="fill:rgb(230,230,230);"/>
        </g>
        <g id="Channe21-led1" serif:id="Channe21#led" transform="matrix(1,0,0,1,6.2073,-171.456)">
            <circle cx="42.167" cy="335.861" r="3.82" style="fill:rgb(230,230,230);"/>
        </g>
        <g id="Channel1-led1" serif:id="Channel1#led" transform="matrix(1,0,0,1,-2.66646,-171.456)">
            <circle cx="42.167" cy="335.861" r="3.82" style="fill:rgb(230,230,230);"/>
        </g>
        <g transform="matrix(1,0,0,1,-52.5727,36.6258)">
            <path d="M90.638,118.896C90.645,119.016 90.693,119.13 90.783,119.236C90.873,119.343 91.005,119.396 91.178,119.396C91.345,119.396 91.465,119.345 91.538,119.241C91.611,119.138 91.648,119.006 91.648,118.846L91.648,117.846L91.628,117.846C91.515,118.013 91.38,118.141 91.223,118.231C91.066,118.321 90.885,118.366 90.678,118.366C90.251,118.366 89.955,118.206 89.788,117.886C89.728,117.773 89.685,117.633 89.658,117.466C89.631,117.3 89.618,117.076 89.618,116.796L89.618,114.866C89.618,114.5 89.628,114.23 89.648,114.056C89.688,113.723 89.845,113.473 90.118,113.306C90.245,113.22 90.435,113.176 90.688,113.176C90.815,113.176 90.923,113.19 91.013,113.216C91.103,113.243 91.185,113.28 91.258,113.326C91.331,113.373 91.398,113.428 91.458,113.491C91.518,113.555 91.581,113.623 91.648,113.696L91.648,113.236L92.668,113.236L92.668,118.926C92.668,119.1 92.64,119.275 92.583,119.451C92.526,119.628 92.435,119.786 92.308,119.926C92.181,120.073 92.021,120.191 91.828,120.281C91.635,120.371 91.405,120.416 91.138,120.416C90.985,120.416 90.825,120.391 90.658,120.341C90.491,120.291 90.338,120.206 90.198,120.086C90.051,119.973 89.926,119.821 89.823,119.631C89.72,119.441 89.651,119.196 89.618,118.896L90.638,118.896ZM90.638,116.746C90.638,116.906 90.673,117.046 90.743,117.166C90.813,117.286 90.945,117.346 91.138,117.346C91.285,117.346 91.406,117.295 91.503,117.191C91.6,117.088 91.648,116.956 91.648,116.796L91.648,114.826C91.648,114.64 91.601,114.488 91.508,114.371C91.415,114.255 91.291,114.196 91.138,114.196C90.965,114.196 90.838,114.26 90.758,114.386C90.678,114.513 90.638,114.68 90.638,114.886L90.638,116.746Z" style="fill-rule:nonzero;"/>
            <path d="M95.438,118.306L95.438,117.786L95.418,117.786C95.285,117.973 95.15,118.116 95.013,118.216C94.876,118.316 94.685,118.366 94.438,118.366C94.318,118.366 94.196,118.348 94.073,118.311C93.95,118.275 93.831,118.206 93.718,118.106C93.605,118.013 93.513,117.878 93.443,117.701C93.373,117.525 93.338,117.296 93.338,117.016C93.338,116.73 93.361,116.478 93.408,116.261C93.455,116.045 93.541,115.863 93.668,115.716C93.788,115.576 93.951,115.471 94.158,115.401C94.365,115.331 94.628,115.296 94.948,115.296L95.058,115.296C95.098,115.296 95.135,115.3 95.168,115.306C95.201,115.313 95.241,115.316 95.288,115.316C95.335,115.316 95.385,115.32 95.438,115.326L95.438,114.796C95.438,114.623 95.401,114.48 95.328,114.366C95.255,114.253 95.121,114.196 94.928,114.196C94.795,114.196 94.673,114.24 94.563,114.326C94.453,114.413 94.381,114.54 94.348,114.706L93.358,114.706C93.385,114.253 93.538,113.886 93.818,113.606C93.951,113.473 94.111,113.368 94.298,113.291C94.485,113.215 94.695,113.176 94.928,113.176C95.141,113.176 95.341,113.21 95.528,113.276C95.715,113.343 95.878,113.443 96.018,113.576C96.151,113.71 96.258,113.876 96.338,114.076C96.418,114.276 96.458,114.51 96.458,114.776L96.458,118.306L95.438,118.306ZM95.438,116.126C95.325,116.106 95.231,116.096 95.158,116.096C94.938,116.096 94.75,116.148 94.593,116.251C94.436,116.355 94.358,116.543 94.358,116.816C94.358,117.01 94.405,117.166 94.498,117.286C94.591,117.406 94.721,117.466 94.888,117.466C95.061,117.466 95.196,117.41 95.293,117.296C95.39,117.183 95.438,117.023 95.438,116.816L95.438,116.126Z" style="fill-rule:nonzero;"/>
            <path d="M97.208,113.236L97.208,111.696L98.228,111.696L98.228,113.236L98.858,113.236L98.858,114.036L98.228,114.036L98.228,116.846C98.228,116.966 98.24,117.06 98.263,117.126C98.286,117.193 98.325,117.243 98.378,117.276C98.431,117.31 98.496,117.33 98.573,117.336C98.65,117.343 98.745,117.346 98.858,117.346L98.858,118.306L98.438,118.306C98.205,118.306 98.01,118.27 97.853,118.196C97.696,118.123 97.571,118.03 97.478,117.916C97.385,117.803 97.316,117.675 97.273,117.531C97.23,117.388 97.208,117.25 97.208,117.116L97.208,114.036L96.698,114.036L96.698,113.236L97.208,113.236Z" style="fill-rule:nonzero;"/>
            <path d="M102.198,116.156L100.178,116.156L100.178,116.846C100.178,117.006 100.223,117.13 100.313,117.216C100.403,117.303 100.525,117.346 100.678,117.346C100.871,117.346 101,117.29 101.063,117.176C101.126,117.063 101.165,116.95 101.178,116.836L102.198,116.836C102.198,117.283 102.061,117.643 101.788,117.916C101.655,118.056 101.495,118.166 101.308,118.246C101.121,118.326 100.911,118.366 100.678,118.366C100.358,118.366 100.086,118.3 99.863,118.166C99.64,118.033 99.468,117.856 99.348,117.636C99.275,117.503 99.225,117.35 99.198,117.176C99.171,117.003 99.158,116.813 99.158,116.606L99.158,114.936C99.158,114.73 99.171,114.54 99.198,114.366C99.225,114.193 99.275,114.04 99.348,113.906C99.468,113.686 99.64,113.51 99.863,113.376C100.086,113.243 100.358,113.176 100.678,113.176C100.911,113.176 101.123,113.216 101.313,113.296C101.503,113.376 101.665,113.486 101.798,113.626C102.065,113.926 102.198,114.303 102.198,114.756L102.198,116.156ZM100.178,115.356L101.178,115.356L101.178,114.776C101.178,114.583 101.133,114.438 101.043,114.341C100.953,114.245 100.831,114.196 100.678,114.196C100.525,114.196 100.403,114.245 100.313,114.341C100.223,114.438 100.178,114.583 100.178,114.776L100.178,115.356Z" style="fill-rule:nonzero;"/>
        </g>
        <g transform="matrix(1,0,0,1,-52.5727,36.6258)">
            <text x="89.198px" y="118.306px" style="font-family:'DINCondensed-Bold', 'DIN Condensed';font-weight:700;font-stretch:condensed;font-size:10px;">gate</text>
        </g>
    </g>
    <g transform="matrix(0.816456,0,0,0.816456,9.52626,-230.704)">
        <g transform="matrix(1,0,0,1,-54.3899,-48.5287)">
            <path d="M93.246,344.62C93.364,344.62 93.496,344.617 93.643,344.612C93.79,344.608 93.929,344.603 94.062,344.598C94.194,344.593 94.307,344.588 94.4,344.583C94.493,344.578 94.554,344.576 94.584,344.576C94.75,344.576 94.833,344.625 94.833,344.723C94.833,344.811 94.799,344.875 94.73,344.914C94.662,344.953 94.581,344.982 94.488,345.002C94.395,345.021 94.299,345.034 94.201,345.039C94.103,345.044 94.025,345.061 93.966,345.09C93.515,345.952 93.077,346.807 92.651,347.655C92.225,348.502 91.815,349.311 91.424,350.08C91.032,350.849 90.662,351.559 90.314,352.211C89.966,352.863 89.652,353.429 89.373,353.909C89.094,354.389 88.851,354.766 88.646,355.04C88.44,355.315 88.283,355.452 88.175,355.452C88.126,355.423 88.077,355.376 88.028,355.312C87.979,355.249 87.93,355.163 87.881,355.055C87.734,354.751 87.568,354.384 87.382,353.953C87.195,353.522 87,353.056 86.794,352.556C86.588,352.057 86.372,351.54 86.147,351.006C85.922,350.472 85.696,349.94 85.471,349.411L85.162,348.676C84.996,348.265 84.834,347.858 84.677,347.456C84.521,347.055 84.376,346.685 84.244,346.347C84.111,346.009 83.994,345.722 83.891,345.487C83.788,345.252 83.702,345.095 83.634,345.017C83.389,345.017 83.198,345.012 83.061,345.002C82.923,344.992 82.82,344.98 82.752,344.965C82.683,344.95 82.639,344.931 82.62,344.906C82.6,344.882 82.59,344.855 82.59,344.826C82.59,344.757 82.61,344.698 82.649,344.649C82.688,344.6 82.727,344.576 82.767,344.576C82.796,344.576 82.872,344.578 82.994,344.583C83.117,344.588 83.269,344.593 83.45,344.598C83.631,344.603 83.835,344.61 84.06,344.62C84.285,344.63 84.511,344.634 84.736,344.634C85.589,344.634 86.206,344.617 86.588,344.583C86.97,344.549 87.2,344.532 87.279,344.532C87.465,344.532 87.558,344.581 87.558,344.679C87.558,344.698 87.553,344.725 87.543,344.759C87.534,344.794 87.507,344.83 87.462,344.87C87.418,344.909 87.345,344.943 87.242,344.972C87.139,345.002 87,345.017 86.823,345.017C86.696,345.017 86.571,345.014 86.448,345.009C86.326,345.004 86.23,344.997 86.162,344.987C86.162,345.056 86.216,345.266 86.323,345.619C86.431,345.972 86.571,346.403 86.742,346.913C86.914,347.422 87.11,347.976 87.33,348.573C87.551,349.171 87.771,349.752 87.992,350.315C88.212,350.879 88.423,351.393 88.624,351.858C88.824,352.324 88.998,352.679 89.145,352.924C89.224,352.816 89.346,352.601 89.513,352.277C89.679,351.954 89.866,351.567 90.071,351.116C90.277,350.665 90.49,350.175 90.711,349.646C90.931,349.117 91.132,348.595 91.313,348.081C91.495,347.567 91.644,347.082 91.762,346.626C91.879,346.17 91.938,345.796 91.938,345.502C91.938,345.404 91.931,345.301 91.916,345.193C91.901,345.085 91.855,345.021 91.776,345.002C91.522,345.002 91.313,344.997 91.152,344.987C90.99,344.977 90.86,344.965 90.762,344.95C90.664,344.936 90.586,344.916 90.527,344.892C90.468,344.867 90.414,344.845 90.365,344.826C90.336,344.786 90.321,344.728 90.321,344.649C90.321,344.571 90.351,344.532 90.409,344.532L90.6,344.532C90.708,344.541 90.89,344.554 91.144,344.568C91.399,344.583 91.776,344.6 92.276,344.62L93.246,344.62Z" style="fill-rule:nonzero;"/>
            <path d="M101.418,355.173C101.32,355.173 101.188,355.178 101.021,355.187C100.855,355.197 100.676,355.205 100.485,355.209C100.294,355.214 100.098,355.222 99.897,355.231C99.696,355.241 99.512,355.246 99.346,355.246C98.689,355.246 98.047,355.146 97.42,354.945C96.793,354.744 96.237,354.43 95.752,354.004C95.267,353.578 94.875,353.029 94.576,352.358C94.277,351.687 94.128,350.881 94.128,349.94C94.128,349.078 94.292,348.314 94.62,347.647C94.949,346.981 95.382,346.423 95.921,345.972C96.46,345.521 97.067,345.178 97.744,344.943C98.42,344.708 99.11,344.59 99.816,344.59C99.973,344.59 100.186,344.6 100.455,344.62C100.725,344.639 100.994,344.664 101.264,344.693C101.533,344.723 101.773,344.754 101.984,344.789C102.194,344.823 102.329,344.855 102.388,344.884C102.515,344.541 102.657,344.238 102.814,343.973C102.971,343.708 103.187,343.508 103.461,343.37C103.539,343.341 103.627,343.336 103.725,343.356C103.823,343.375 103.872,343.424 103.872,343.503C103.823,343.591 103.787,343.645 103.762,343.664C103.738,343.684 103.706,343.694 103.667,343.694C103.549,343.694 103.434,343.748 103.321,343.855C103.209,343.963 103.103,344.103 103.005,344.274C102.907,344.446 102.822,344.642 102.748,344.862C102.675,345.083 102.618,345.306 102.579,345.531C102.559,345.639 102.537,345.764 102.513,345.906C102.488,346.048 102.466,346.187 102.447,346.325C102.427,346.462 102.412,346.594 102.403,346.722C102.393,346.849 102.388,346.957 102.388,347.045C102.388,347.094 102.368,347.135 102.329,347.17C102.29,347.204 102.251,347.221 102.212,347.221C102.153,347.221 102.084,347.192 102.006,347.133C101.967,346.888 101.886,346.643 101.763,346.398C101.641,346.153 101.469,345.933 101.249,345.737C101.028,345.541 100.754,345.384 100.426,345.266C100.098,345.149 99.708,345.09 99.257,345.09C98.777,345.09 98.349,345.203 97.971,345.428C97.594,345.653 97.276,345.962 97.016,346.354C96.756,346.746 96.558,347.211 96.421,347.75C96.284,348.289 96.215,348.867 96.215,349.485C96.215,350.337 96.301,351.094 96.472,351.755C96.644,352.417 96.881,352.978 97.185,353.438C97.489,353.899 97.851,354.249 98.273,354.489C98.694,354.729 99.154,354.849 99.654,354.849C99.987,354.849 100.313,354.795 100.632,354.688C100.95,354.58 101.244,354.433 101.513,354.247C101.783,354.061 102.023,353.845 102.234,353.6C102.444,353.355 102.608,353.095 102.726,352.821C102.746,352.782 102.797,352.752 102.88,352.733C102.964,352.713 103.005,352.723 103.005,352.762C103.005,352.89 102.964,353.064 102.88,353.284C102.797,353.504 102.702,353.725 102.594,353.945C102.486,354.166 102.378,354.367 102.27,354.548C102.163,354.729 102.089,354.849 102.05,354.908C102.021,354.977 101.984,355.067 101.94,355.18C101.896,355.293 101.856,355.42 101.822,355.562C101.788,355.704 101.756,355.851 101.727,356.003C101.697,356.155 101.682,356.304 101.682,356.451C101.682,356.608 101.663,356.706 101.624,356.745C101.584,356.785 101.501,356.804 101.374,356.804C101.266,356.804 101.217,356.728 101.227,356.576C101.237,356.424 101.261,356.25 101.3,356.055C101.34,355.859 101.379,355.675 101.418,355.503C101.457,355.332 101.457,355.222 101.418,355.173Z" style="fill-rule:nonzero;"/>
            <path d="M112.338,354.379C112.397,354.614 112.603,354.761 112.956,354.82C113.044,354.83 113.088,354.879 113.088,354.967C113.088,355.016 113.063,355.06 113.014,355.099C112.965,355.138 112.902,355.158 112.823,355.158C112.676,355.158 112.48,355.148 112.235,355.129C111.99,355.109 111.643,355.099 111.192,355.099C110.829,355.099 110.511,355.111 110.237,355.136C109.962,355.16 109.796,355.178 109.737,355.187C109.688,355.187 109.654,355.173 109.634,355.143C109.614,355.114 109.605,355.08 109.605,355.04C109.605,355.001 109.612,354.962 109.627,354.923C109.641,354.884 109.663,354.864 109.693,354.864C109.761,354.854 109.83,354.835 109.898,354.805C109.967,354.776 110.031,354.737 110.09,354.688C110.119,354.658 110.156,354.501 110.2,354.217C110.244,353.933 110.283,353.558 110.317,353.093C110.352,352.628 110.381,352.091 110.406,351.484C110.43,350.876 110.442,350.234 110.442,349.558L110.442,347.971C110.442,347.481 110.418,347.084 110.369,346.78C110.281,346.134 110.075,345.636 109.752,345.288C109.428,344.941 109.051,344.767 108.62,344.767C108.238,344.767 107.86,344.872 107.488,345.083C107.116,345.293 106.783,345.602 106.489,346.009C106.195,346.415 105.957,346.92 105.776,347.523C105.595,348.125 105.504,348.813 105.504,349.588C105.504,350.44 105.599,351.182 105.79,351.814C105.982,352.446 106.234,352.975 106.547,353.402C106.861,353.828 107.221,354.146 107.628,354.357C108.034,354.568 108.458,354.673 108.899,354.673L108.98,354.673C109.014,354.673 109.041,354.668 109.061,354.658C109.1,354.639 109.124,354.639 109.134,354.658C109.144,354.678 109.144,354.705 109.134,354.739C109.124,354.773 109.112,354.808 109.097,354.842C109.083,354.876 109.066,354.898 109.046,354.908C108.948,354.977 108.811,355.038 108.634,355.092C108.458,355.146 108.213,355.173 107.9,355.173C107.38,355.173 106.863,355.053 106.349,354.813C105.835,354.573 105.374,354.237 104.967,353.806C104.561,353.375 104.233,352.853 103.983,352.24C103.733,351.628 103.608,350.954 103.608,350.22C103.608,349.171 103.76,348.275 104.064,347.53C104.367,346.785 104.781,346.178 105.305,345.707C105.83,345.237 106.437,344.892 107.128,344.671C107.819,344.451 108.556,344.34 109.34,344.34C109.624,344.34 109.884,344.37 110.119,344.429C110.354,344.487 110.56,344.559 110.736,344.642C110.913,344.725 111.057,344.806 111.17,344.884C111.283,344.963 111.358,345.021 111.398,345.061C111.476,345.002 111.635,344.931 111.875,344.848C112.115,344.764 112.39,344.686 112.698,344.612C113.007,344.539 113.328,344.475 113.661,344.421C113.994,344.367 114.298,344.34 114.572,344.34C115.317,344.36 115.971,344.483 116.534,344.708C117.098,344.933 117.568,345.235 117.945,345.612C118.323,345.989 118.607,346.425 118.798,346.92C118.989,347.415 119.085,347.941 119.085,348.5C119.085,349.548 118.945,350.482 118.666,351.3C118.386,352.118 118.012,352.811 117.541,353.38C117.071,353.948 116.527,354.381 115.91,354.68C115.293,354.979 114.646,355.129 113.97,355.129C113.911,355.129 113.872,355.107 113.852,355.062C113.833,355.018 113.825,354.972 113.83,354.923C113.835,354.874 113.852,354.832 113.882,354.798C113.911,354.764 113.94,354.751 113.97,354.761C114.019,354.781 114.058,354.791 114.087,354.791L114.205,354.791C114.607,354.791 114.984,354.653 115.337,354.379C115.689,354.105 115.998,353.725 116.263,353.24C116.527,352.755 116.735,352.182 116.887,351.52C117.039,350.859 117.115,350.136 117.115,349.352C117.115,347.892 116.892,346.756 116.446,345.943C116,345.129 115.312,344.723 114.381,344.723C114.097,344.723 113.833,344.781 113.588,344.899C113.343,345.017 113.13,345.171 112.948,345.362C112.767,345.553 112.62,345.771 112.507,346.016C112.395,346.261 112.324,346.511 112.294,346.766C112.245,347.109 112.216,347.657 112.206,348.412C112.196,349.166 112.186,350.077 112.177,351.146C112.167,351.929 112.174,352.613 112.199,353.196C112.223,353.779 112.27,354.173 112.338,354.379Z" style="fill-rule:nonzero;"/>
            <path d="M127.095,355.173C126.997,355.173 126.864,355.178 126.698,355.187C126.531,355.197 126.353,355.205 126.161,355.209C125.97,355.214 125.774,355.222 125.574,355.231C125.373,355.241 125.189,355.246 125.022,355.246C124.366,355.246 123.724,355.146 123.097,354.945C122.47,354.744 121.914,354.43 121.429,354.004C120.944,353.578 120.552,353.029 120.253,352.358C119.954,351.687 119.805,350.881 119.805,349.94C119.805,349.078 119.969,348.314 120.297,347.647C120.625,346.981 121.059,346.423 121.598,345.972C122.137,345.521 122.744,345.178 123.42,344.943C124.096,344.708 124.787,344.59 125.493,344.59C125.649,344.59 125.863,344.6 126.132,344.62C126.402,344.639 126.671,344.664 126.94,344.693C127.21,344.723 127.45,344.754 127.661,344.789C127.871,344.823 128.006,344.855 128.065,344.884C128.192,344.541 128.334,344.238 128.491,343.973C128.648,343.708 128.863,343.508 129.138,343.37C129.216,343.341 129.304,343.336 129.402,343.356C129.5,343.375 129.549,343.424 129.549,343.503C129.5,343.591 129.464,343.645 129.439,343.664C129.415,343.684 129.383,343.694 129.343,343.694C129.226,343.694 129.111,343.748 128.998,343.855C128.885,343.963 128.78,344.103 128.682,344.274C128.584,344.446 128.498,344.642 128.425,344.862C128.351,345.083 128.295,345.306 128.256,345.531C128.236,345.639 128.214,345.764 128.19,345.906C128.165,346.048 128.143,346.187 128.124,346.325C128.104,346.462 128.089,346.594 128.079,346.722C128.07,346.849 128.065,346.957 128.065,347.045C128.065,347.094 128.045,347.135 128.006,347.17C127.967,347.204 127.928,347.221 127.888,347.221C127.83,347.221 127.761,347.192 127.683,347.133C127.643,346.888 127.563,346.643 127.44,346.398C127.318,346.153 127.146,345.933 126.926,345.737C126.705,345.541 126.431,345.384 126.103,345.266C125.774,345.149 125.385,345.09 124.934,345.09C124.454,345.09 124.025,345.203 123.648,345.428C123.271,345.653 122.952,345.962 122.693,346.354C122.433,346.746 122.235,347.211 122.098,347.75C121.96,348.289 121.892,348.867 121.892,349.485C121.892,350.337 121.978,351.094 122.149,351.755C122.32,352.417 122.558,352.978 122.862,353.438C123.166,353.899 123.528,354.249 123.949,354.489C124.371,354.729 124.831,354.849 125.331,354.849C125.664,354.849 125.99,354.795 126.308,354.688C126.627,354.58 126.921,354.433 127.19,354.247C127.46,354.061 127.7,353.845 127.91,353.6C128.121,353.355 128.285,353.095 128.403,352.821C128.422,352.782 128.474,352.752 128.557,352.733C128.64,352.713 128.682,352.723 128.682,352.762C128.682,352.89 128.64,353.064 128.557,353.284C128.474,353.504 128.378,353.725 128.271,353.945C128.163,354.166 128.055,354.367 127.947,354.548C127.839,354.729 127.766,354.849 127.727,354.908C127.697,354.977 127.661,355.067 127.617,355.18C127.572,355.293 127.533,355.42 127.499,355.562C127.465,355.704 127.433,355.851 127.403,356.003C127.374,356.155 127.359,356.304 127.359,356.451C127.359,356.608 127.34,356.706 127.301,356.745C127.261,356.785 127.178,356.804 127.051,356.804C126.943,356.804 126.894,356.728 126.904,356.576C126.913,356.424 126.938,356.25 126.977,356.055C127.016,355.859 127.056,355.675 127.095,355.503C127.134,355.332 127.134,355.222 127.095,355.173Z" style="fill-rule:nonzero;"/>
            <path d="M86.514,366.578C86.514,367.078 86.524,367.565 86.544,368.04C86.563,368.516 86.617,368.9 86.706,369.194C86.882,369.302 87.08,369.368 87.301,369.393C87.521,369.417 87.73,369.434 87.925,369.444C88.121,369.454 88.286,369.473 88.418,369.503C88.55,369.532 88.616,369.596 88.616,369.694C88.616,369.743 88.592,369.785 88.543,369.819C88.494,369.853 88.415,369.87 88.308,369.87C88.023,369.88 87.636,369.868 87.146,369.834C86.657,369.799 86.098,369.782 85.471,369.782C84.667,369.782 84.062,369.809 83.656,369.863C83.249,369.917 83.007,369.944 82.928,369.944C82.86,369.944 82.801,369.927 82.752,369.892C82.703,369.858 82.678,369.812 82.678,369.753C82.678,369.625 82.737,369.557 82.855,369.547C82.972,369.537 83.193,369.508 83.516,369.459C83.732,369.439 83.908,369.412 84.045,369.378C84.182,369.344 84.32,369.302 84.457,369.253C84.516,369.037 84.565,368.817 84.604,368.592C84.643,368.366 84.677,368.085 84.707,367.747C84.736,367.408 84.758,366.987 84.773,366.483C84.788,365.978 84.795,365.329 84.795,364.535C84.795,363.81 84.79,363.195 84.78,362.691C84.77,362.186 84.753,361.765 84.729,361.427C84.704,361.088 84.68,360.821 84.655,360.626C84.631,360.43 84.604,360.278 84.574,360.17C84.447,360.082 84.28,360.025 84.075,360.001C83.869,359.976 83.668,359.957 83.472,359.942C83.276,359.927 83.107,359.905 82.965,359.876C82.823,359.847 82.752,359.778 82.752,359.67C82.752,359.543 82.83,359.479 82.987,359.479C83.163,359.479 83.465,359.501 83.891,359.545C84.317,359.589 84.839,359.611 85.456,359.611C85.554,359.611 85.633,359.597 85.691,359.567C85.789,359.518 85.946,359.45 86.162,359.362C86.377,359.273 86.627,359.185 86.911,359.097C87.195,359.009 87.497,358.93 87.815,358.862C88.134,358.793 88.445,358.759 88.749,358.759C89.238,358.759 89.704,358.815 90.145,358.928C90.586,359.041 90.97,359.21 91.299,359.435C91.627,359.66 91.889,359.94 92.085,360.273C92.281,360.606 92.379,360.993 92.379,361.434C92.379,361.865 92.278,362.264 92.078,362.632C91.877,362.999 91.624,363.335 91.321,363.639C91.017,363.942 90.684,364.204 90.321,364.425C89.959,364.645 89.621,364.819 89.307,364.947C89.709,364.947 90.088,364.988 90.446,365.072C90.804,365.155 91.127,365.272 91.416,365.424C91.705,365.576 91.945,365.76 92.136,365.975C92.327,366.191 92.452,366.436 92.511,366.71C92.511,366.848 92.499,366.938 92.474,366.982C92.45,367.026 92.403,367.097 92.335,367.195C92.531,367.509 92.749,367.879 92.989,368.305C93.229,368.731 93.498,369.138 93.797,369.525C94.096,369.912 94.429,370.24 94.797,370.51C95.164,370.779 95.573,370.914 96.024,370.914C96.112,370.914 96.213,370.909 96.325,370.899C96.438,370.889 96.546,370.87 96.649,370.84C96.751,370.811 96.847,370.767 96.935,370.708C97.023,370.649 97.087,370.571 97.126,370.473C97.165,370.444 97.205,370.429 97.244,370.429C97.293,370.429 97.325,370.453 97.339,370.502C97.354,370.551 97.366,370.6 97.376,370.649C97.18,371.09 96.695,371.311 95.921,371.311C95.529,371.311 95.154,371.247 94.797,371.12C94.439,370.992 94.096,370.823 93.768,370.613C93.44,370.402 93.126,370.159 92.827,369.885C92.528,369.611 92.247,369.327 91.982,369.033C91.786,368.817 91.558,368.548 91.299,368.224C91.039,367.901 90.762,367.57 90.468,367.232C90.174,366.894 89.868,366.576 89.55,366.277C89.231,365.978 88.915,365.745 88.602,365.579C88.455,365.51 88.288,365.459 88.102,365.424C87.916,365.39 87.737,365.365 87.565,365.351C87.394,365.336 87.235,365.329 87.088,365.329L86.75,365.329C86.691,365.329 86.642,365.331 86.603,365.336C86.563,365.341 86.534,365.343 86.514,365.343L86.514,366.578ZM86.764,360.39C86.715,360.577 86.676,360.836 86.647,361.169C86.617,361.502 86.593,361.867 86.573,362.264C86.554,362.661 86.539,363.073 86.529,363.499C86.519,363.925 86.514,364.329 86.514,364.711C86.612,364.79 86.801,364.834 87.08,364.844C87.36,364.854 87.661,364.858 87.984,364.858C88.268,364.858 88.506,364.834 88.697,364.785C88.888,364.736 89.067,364.648 89.234,364.52C89.332,364.452 89.442,364.339 89.564,364.182C89.687,364.026 89.804,363.839 89.917,363.624C90.03,363.408 90.125,363.166 90.204,362.896C90.282,362.627 90.321,362.34 90.321,362.036C90.321,361.596 90.272,361.201 90.174,360.853C90.076,360.505 89.944,360.207 89.777,359.957C89.611,359.707 89.415,359.516 89.189,359.384C88.964,359.251 88.724,359.185 88.469,359.185C88.332,359.185 88.178,359.212 88.006,359.266C87.835,359.32 87.666,359.391 87.499,359.479C87.333,359.567 87.186,359.668 87.058,359.78C86.931,359.893 86.848,360.013 86.808,360.14L86.764,360.39Z" style="fill-rule:nonzero;"/>
            <path d="M101.095,368.077C100.987,368.195 100.82,368.356 100.595,368.562C100.369,368.768 100.098,368.974 99.779,369.18C99.461,369.385 99.105,369.562 98.714,369.709C98.322,369.856 97.905,369.929 97.464,369.929C97.063,369.929 96.671,369.868 96.288,369.745C95.906,369.623 95.563,369.437 95.26,369.187C94.956,368.937 94.713,368.619 94.532,368.232C94.351,367.845 94.26,367.382 94.26,366.843C94.26,366.402 94.29,366.022 94.348,365.704C94.407,365.385 94.486,365.106 94.584,364.866C94.681,364.626 94.792,364.42 94.914,364.248C95.037,364.077 95.162,363.923 95.289,363.786C95.446,363.609 95.637,363.443 95.862,363.286C96.088,363.129 96.33,362.987 96.59,362.86C96.849,362.732 97.124,362.632 97.413,362.558C97.702,362.485 97.993,362.448 98.287,362.448C98.816,362.448 99.23,362.536 99.529,362.713C99.828,362.889 99.978,363.134 99.978,363.447C99.978,363.643 99.919,363.825 99.801,363.991C99.899,363.962 100.024,363.913 100.176,363.844C100.328,363.776 100.482,363.705 100.639,363.631C100.796,363.558 100.935,363.492 101.058,363.433C101.18,363.374 101.261,363.33 101.3,363.3C101.32,363.281 101.342,363.274 101.366,363.278C101.391,363.283 101.403,363.3 101.403,363.33C101.403,363.457 101.379,363.563 101.33,363.646C101.281,363.729 101.222,363.795 101.153,363.844C100.997,363.942 100.771,364.065 100.477,364.212C100.183,364.359 99.858,364.513 99.5,364.675C99.142,364.836 98.772,364.998 98.39,365.16C98.008,365.321 97.648,365.476 97.31,365.623C96.972,365.77 96.678,365.9 96.428,366.012C96.178,366.125 96.009,366.206 95.921,366.255C95.921,366.588 95.987,366.899 96.119,367.188C96.252,367.477 96.435,367.729 96.671,367.945C96.906,368.161 97.187,368.33 97.516,368.452C97.844,368.574 98.204,368.636 98.596,368.636C98.949,368.636 99.267,368.599 99.551,368.525C99.835,368.452 100.076,368.369 100.272,368.276C100.467,368.183 100.622,368.099 100.734,368.026C100.847,367.952 100.908,367.916 100.918,367.916C100.957,367.916 100.997,367.933 101.036,367.967C101.075,368.001 101.095,368.038 101.095,368.077ZM95.921,365.828C96.088,365.77 96.276,365.699 96.487,365.615C96.698,365.532 96.903,365.441 97.104,365.343C97.305,365.245 97.489,365.152 97.655,365.064C97.822,364.976 97.949,364.898 98.037,364.829C98.214,364.702 98.302,364.486 98.302,364.182C98.302,364.065 98.28,363.942 98.236,363.815C98.192,363.688 98.126,363.572 98.037,363.47C97.949,363.367 97.841,363.283 97.714,363.22C97.587,363.156 97.445,363.124 97.288,363.124C97.151,363.124 97.004,363.171 96.847,363.264C96.69,363.357 96.543,363.509 96.406,363.719C96.269,363.93 96.154,364.209 96.061,364.557C95.968,364.905 95.921,365.329 95.921,365.828Z" style="fill-rule:nonzero;"/>
            <path d="M107.165,363.124C107.145,363.183 107.089,363.274 106.996,363.396C106.903,363.518 106.792,363.646 106.665,363.778C106.538,363.91 106.403,364.038 106.261,364.16C106.119,364.283 105.994,364.373 105.886,364.432C105.817,364.462 105.776,364.452 105.761,364.403C105.746,364.354 105.739,364.305 105.739,364.256C105.739,364.177 105.697,364.079 105.614,363.962C105.531,363.844 105.413,363.729 105.261,363.616C105.109,363.504 104.931,363.408 104.725,363.33C104.519,363.251 104.294,363.212 104.049,363.212C103.627,363.212 103.285,363.44 103.02,363.896C102.755,364.351 102.623,364.956 102.623,365.711C102.623,366.171 102.694,366.585 102.836,366.953C102.978,367.32 103.174,367.629 103.424,367.879C103.674,368.129 103.975,368.32 104.328,368.452C104.681,368.584 105.063,368.65 105.474,368.65C106.033,368.65 106.479,368.579 106.812,368.437C107.145,368.295 107.419,368.131 107.635,367.945C107.645,367.945 107.652,367.94 107.657,367.93C107.662,367.92 107.669,367.916 107.679,367.916C107.728,367.916 107.762,367.933 107.782,367.967C107.802,368.001 107.811,368.043 107.811,368.092C107.811,368.131 107.802,368.161 107.782,368.18C107.635,368.298 107.432,368.454 107.172,368.65C106.912,368.846 106.616,369.04 106.283,369.231C105.95,369.422 105.602,369.586 105.239,369.723C104.877,369.861 104.519,369.929 104.166,369.929C103.157,369.929 102.371,369.635 101.807,369.047C101.244,368.459 100.962,367.656 100.962,366.637C100.962,365.863 101.112,365.211 101.411,364.682C101.709,364.153 102.077,363.729 102.513,363.411C102.949,363.092 103.412,362.864 103.902,362.727C104.392,362.59 104.823,362.522 105.195,362.522C105.499,362.522 105.771,362.544 106.011,362.588C106.251,362.632 106.457,362.686 106.628,362.749C106.8,362.813 106.932,362.879 107.025,362.948C107.118,363.016 107.165,363.075 107.165,363.124Z" style="fill-rule:nonzero;"/>
            <path d="M114.367,368.077C114.259,368.195 114.092,368.356 113.867,368.562C113.641,368.768 113.37,368.974 113.051,369.18C112.733,369.385 112.377,369.562 111.986,369.709C111.594,369.856 111.177,369.929 110.736,369.929C110.335,369.929 109.943,369.868 109.56,369.745C109.178,369.623 108.835,369.437 108.532,369.187C108.228,368.937 107.985,368.619 107.804,368.232C107.623,367.845 107.532,367.382 107.532,366.843C107.532,366.402 107.562,366.022 107.62,365.704C107.679,365.385 107.758,365.106 107.856,364.866C107.953,364.626 108.064,364.42 108.186,364.248C108.309,364.077 108.434,363.923 108.561,363.786C108.718,363.609 108.909,363.443 109.134,363.286C109.36,363.129 109.602,362.987 109.862,362.86C110.121,362.732 110.396,362.632 110.685,362.558C110.974,362.485 111.265,362.448 111.559,362.448C112.088,362.448 112.502,362.536 112.801,362.713C113.1,362.889 113.25,363.134 113.25,363.447C113.25,363.643 113.191,363.825 113.073,363.991C113.171,363.962 113.296,363.913 113.448,363.844C113.6,363.776 113.754,363.705 113.911,363.631C114.068,363.558 114.207,363.492 114.33,363.433C114.452,363.374 114.533,363.33 114.572,363.3C114.592,363.281 114.614,363.274 114.638,363.278C114.663,363.283 114.675,363.3 114.675,363.33C114.675,363.457 114.651,363.563 114.602,363.646C114.553,363.729 114.494,363.795 114.425,363.844C114.269,363.942 114.043,364.065 113.749,364.212C113.455,364.359 113.13,364.513 112.772,364.675C112.414,364.836 112.044,364.998 111.662,365.16C111.28,365.321 110.92,365.476 110.582,365.623C110.244,365.77 109.95,365.9 109.7,366.012C109.45,366.125 109.281,366.206 109.193,366.255C109.193,366.588 109.259,366.899 109.391,367.188C109.524,367.477 109.707,367.729 109.943,367.945C110.178,368.161 110.459,368.33 110.788,368.452C111.116,368.574 111.476,368.636 111.868,368.636C112.221,368.636 112.539,368.599 112.823,368.525C113.107,368.452 113.348,368.369 113.543,368.276C113.739,368.183 113.894,368.099 114.006,368.026C114.119,367.952 114.18,367.916 114.19,367.916C114.229,367.916 114.269,367.933 114.308,367.967C114.347,368.001 114.367,368.038 114.367,368.077ZM109.193,365.828C109.36,365.77 109.548,365.699 109.759,365.615C109.97,365.532 110.175,365.441 110.376,365.343C110.577,365.245 110.761,365.152 110.927,365.064C111.094,364.976 111.221,364.898 111.309,364.829C111.486,364.702 111.574,364.486 111.574,364.182C111.574,364.065 111.552,363.942 111.508,363.815C111.464,363.688 111.398,363.572 111.309,363.47C111.221,363.367 111.113,363.283 110.986,363.22C110.859,363.156 110.717,363.124 110.56,363.124C110.423,363.124 110.276,363.171 110.119,363.264C109.962,363.357 109.815,363.509 109.678,363.719C109.541,363.93 109.426,364.209 109.333,364.557C109.24,364.905 109.193,365.329 109.193,365.828Z" style="fill-rule:nonzero;"/>
            <path d="M116.557,367.239C116.557,367.445 116.561,367.644 116.571,367.835C116.581,368.026 116.615,368.19 116.674,368.327C116.733,368.464 116.821,368.574 116.939,368.658C117.056,368.741 117.223,368.783 117.438,368.783C117.546,368.783 117.669,368.77 117.806,368.746C117.943,368.721 118.073,368.69 118.195,368.65C118.318,368.611 118.426,368.572 118.519,368.533C118.612,368.494 118.668,368.464 118.688,368.445C118.717,368.415 118.737,368.415 118.746,368.445C118.756,368.474 118.759,368.511 118.754,368.555C118.749,368.599 118.737,368.643 118.717,368.687C118.697,368.731 118.673,368.763 118.644,368.783C118.546,368.832 118.374,368.92 118.129,369.047C117.884,369.175 117.595,369.307 117.262,369.444C116.948,369.581 116.642,369.696 116.343,369.789C116.045,369.883 115.797,369.929 115.601,369.929C115.376,369.929 115.199,369.861 115.072,369.723C114.945,369.586 114.881,369.415 114.881,369.209C114.881,369.14 114.883,369.082 114.888,369.033C114.893,368.984 114.901,368.92 114.91,368.841C114.92,368.744 114.937,368.565 114.962,368.305C114.986,368.045 115.011,367.754 115.035,367.431C115.06,367.107 115.082,366.781 115.101,366.453C115.121,366.125 115.131,365.843 115.131,365.608L115.131,365.094C115.131,364.839 115.116,364.613 115.087,364.418C115.057,364.222 115.008,364.07 114.94,363.962C114.891,363.893 114.83,363.837 114.756,363.793C114.683,363.749 114.592,363.727 114.484,363.727C114.425,363.727 114.367,363.739 114.308,363.763C114.249,363.788 114.205,363.8 114.175,363.8C114.156,363.8 114.124,363.771 114.08,363.712C114.036,363.653 114.038,363.609 114.087,363.58C114.156,363.531 114.298,363.452 114.514,363.345C114.729,363.237 114.964,363.119 115.219,362.992C115.493,362.855 115.758,362.735 116.013,362.632C116.267,362.529 116.449,362.477 116.557,362.477C116.664,362.477 116.738,362.509 116.777,362.573C116.816,362.637 116.836,362.708 116.836,362.786L116.836,362.845C116.836,362.943 116.821,363.1 116.792,363.315C116.762,363.531 116.73,363.795 116.696,364.109C116.662,364.422 116.63,364.785 116.601,365.196C116.571,365.608 116.557,366.054 116.557,366.534L116.557,367.239ZM115.969,359.597C116.018,359.606 116.098,359.66 116.211,359.758C116.324,359.856 116.439,359.969 116.557,360.096C116.674,360.224 116.777,360.346 116.865,360.464C116.953,360.581 116.997,360.66 116.997,360.699C116.997,360.748 116.939,360.821 116.821,360.919C116.703,361.017 116.569,361.118 116.417,361.221C116.265,361.324 116.118,361.414 115.976,361.493C115.834,361.571 115.733,361.61 115.675,361.61C115.645,361.61 115.574,361.564 115.462,361.471C115.349,361.378 115.234,361.272 115.116,361.155C114.999,361.037 114.893,360.922 114.8,360.809C114.707,360.697 114.661,360.621 114.661,360.581C114.661,360.532 114.724,360.456 114.852,360.354C114.979,360.251 115.119,360.143 115.27,360.03C115.422,359.918 115.569,359.82 115.711,359.736C115.853,359.653 115.939,359.606 115.969,359.597Z" style="fill-rule:nonzero;"/>
            <path d="M122.009,368.165C122.049,368.107 122.124,367.987 122.237,367.805C122.35,367.624 122.477,367.401 122.619,367.137C122.761,366.872 122.908,366.585 123.06,366.277C123.212,365.968 123.352,365.657 123.479,365.343C123.606,365.03 123.712,364.734 123.795,364.454C123.878,364.175 123.92,363.932 123.92,363.727C123.92,363.57 123.9,363.445 123.861,363.352C123.822,363.259 123.766,363.188 123.692,363.139C123.619,363.09 123.533,363.056 123.435,363.036C123.337,363.016 123.234,363.007 123.126,363.007C123.068,363.007 123.009,363.011 122.95,363.021C122.891,363.031 122.832,363.046 122.774,363.065C122.715,363.085 122.668,363.078 122.634,363.043C122.6,363.009 122.583,362.982 122.583,362.962C122.583,362.923 122.649,362.874 122.781,362.815C122.913,362.757 123.095,362.703 123.325,362.654C123.555,362.605 123.82,362.563 124.118,362.529C124.417,362.495 124.728,362.477 125.052,362.477C125.512,362.477 125.743,362.629 125.743,362.933C125.743,363.07 125.652,363.305 125.471,363.639C125.289,363.972 125.059,364.361 124.78,364.807C124.501,365.253 124.192,365.726 123.854,366.225C123.516,366.725 123.185,367.208 122.862,367.673C122.538,368.138 122.242,368.567 121.973,368.959C121.703,369.351 121.5,369.655 121.363,369.87C121.333,369.91 121.225,369.929 121.039,369.929C120.961,369.929 120.909,369.917 120.885,369.892C120.86,369.868 120.838,369.826 120.819,369.767C120.731,369.493 120.63,369.189 120.518,368.856C120.405,368.523 120.285,368.185 120.157,367.842C120.03,367.499 119.9,367.159 119.768,366.821C119.636,366.483 119.506,366.167 119.378,365.873C119.036,365.05 118.744,364.474 118.504,364.146C118.264,363.817 118.041,363.653 117.835,363.653C117.776,363.653 117.72,363.663 117.666,363.683C117.612,363.702 117.561,363.722 117.512,363.741C117.492,363.741 117.465,363.719 117.431,363.675C117.397,363.631 117.389,363.599 117.409,363.58C117.419,363.57 117.512,363.506 117.688,363.389C117.865,363.271 118.07,363.141 118.306,362.999C118.541,362.857 118.778,362.727 119.018,362.61C119.258,362.492 119.452,362.433 119.599,362.433C119.824,362.433 120.03,362.642 120.216,363.058C120.402,363.474 120.623,364.05 120.878,364.785L122.009,368.165Z" style="fill-rule:nonzero;"/>
            <path d="M132.724,368.077C132.616,368.195 132.45,368.356 132.224,368.562C131.999,368.768 131.727,368.974 131.409,369.18C131.09,369.385 130.735,369.562 130.343,369.709C129.951,369.856 129.535,369.929 129.094,369.929C128.692,369.929 128.3,369.868 127.918,369.745C127.536,369.623 127.193,369.437 126.889,369.187C126.585,368.937 126.343,368.619 126.161,368.232C125.98,367.845 125.89,367.382 125.89,366.843C125.89,366.402 125.919,366.022 125.978,365.704C126.037,365.385 126.115,365.106 126.213,364.866C126.311,364.626 126.421,364.42 126.544,364.248C126.666,364.077 126.791,363.923 126.918,363.786C127.075,363.609 127.266,363.443 127.492,363.286C127.717,363.129 127.959,362.987 128.219,362.86C128.479,362.732 128.753,362.632 129.042,362.558C129.331,362.485 129.623,362.448 129.917,362.448C130.446,362.448 130.86,362.536 131.159,362.713C131.457,362.889 131.607,363.134 131.607,363.447C131.607,363.643 131.548,363.825 131.431,363.991C131.529,363.962 131.653,363.913 131.805,363.844C131.957,363.776 132.112,363.705 132.268,363.631C132.425,363.558 132.565,363.492 132.687,363.433C132.81,363.374 132.891,363.33 132.93,363.3C132.949,363.281 132.971,363.274 132.996,363.278C133.02,363.283 133.033,363.3 133.033,363.33C133.033,363.457 133.008,363.563 132.959,363.646C132.91,363.729 132.851,363.795 132.783,363.844C132.626,363.942 132.401,364.065 132.107,364.212C131.813,364.359 131.487,364.513 131.129,364.675C130.772,364.836 130.402,364.998 130.02,365.16C129.637,365.321 129.277,365.476 128.939,365.623C128.601,365.77 128.307,365.9 128.057,366.012C127.808,366.125 127.639,366.206 127.55,366.255C127.55,366.588 127.617,366.899 127.749,367.188C127.881,367.477 128.065,367.729 128.3,367.945C128.535,368.161 128.817,368.33 129.145,368.452C129.473,368.574 129.833,368.636 130.225,368.636C130.578,368.636 130.897,368.599 131.181,368.525C131.465,368.452 131.705,368.369 131.901,368.276C132.097,368.183 132.251,368.099 132.364,368.026C132.477,367.952 132.538,367.916 132.548,367.916C132.587,367.916 132.626,367.933 132.665,367.967C132.704,368.001 132.724,368.038 132.724,368.077ZM127.55,365.828C127.717,365.77 127.906,365.699 128.116,365.615C128.327,365.532 128.533,365.441 128.734,365.343C128.934,365.245 129.118,365.152 129.285,365.064C129.451,364.976 129.579,364.898 129.667,364.829C129.843,364.702 129.931,364.486 129.931,364.182C129.931,364.065 129.909,363.942 129.865,363.815C129.821,363.688 129.755,363.572 129.667,363.47C129.579,363.367 129.471,363.283 129.343,363.22C129.216,363.156 129.074,363.124 128.917,363.124C128.78,363.124 128.633,363.171 128.476,363.264C128.32,363.357 128.173,363.509 128.035,363.719C127.898,363.93 127.783,364.209 127.69,364.557C127.597,364.905 127.55,365.329 127.55,365.828Z" style="fill-rule:nonzero;"/>
            <path d="M139.544,363.55C139.436,363.639 139.309,363.749 139.162,363.881C139.015,364.013 138.86,364.141 138.699,364.263C138.537,364.386 138.373,364.491 138.206,364.579C138.04,364.667 137.878,364.711 137.721,364.711C137.584,364.711 137.461,364.68 137.354,364.616C137.246,364.552 137.145,364.484 137.052,364.41C136.959,364.337 136.869,364.268 136.781,364.204C136.692,364.141 136.599,364.109 136.501,364.109C136.237,364.109 136.014,364.217 135.833,364.432C135.651,364.648 135.504,364.922 135.392,365.255C135.279,365.588 135.196,365.951 135.142,366.343C135.088,366.735 135.061,367.112 135.061,367.475C135.061,367.778 135.073,368.026 135.098,368.217C135.122,368.408 135.159,368.56 135.208,368.672C135.257,368.785 135.323,368.861 135.406,368.9C135.49,368.939 135.59,368.959 135.708,368.959C135.835,368.959 135.972,368.939 136.119,368.9C136.149,368.89 136.171,368.91 136.185,368.959C136.2,369.008 136.207,369.047 136.207,369.077C136.207,369.096 136.193,369.118 136.163,369.143C136.134,369.167 136.114,369.18 136.104,369.18C135.889,369.268 135.668,369.363 135.443,369.466C135.218,369.569 135.031,369.655 134.885,369.723C134.747,369.782 134.583,369.846 134.392,369.914C134.201,369.983 134.037,370.017 133.9,370.017C133.743,370.017 133.613,369.993 133.51,369.944C133.407,369.895 133.356,369.846 133.356,369.797C133.356,369.748 133.368,369.704 133.393,369.665C133.417,369.625 133.439,369.552 133.459,369.444C133.478,369.297 133.5,369.123 133.525,368.922C133.549,368.721 133.574,368.503 133.598,368.268C133.623,368.033 133.643,367.791 133.657,367.541C133.672,367.291 133.679,367.043 133.679,366.799C133.679,366.25 133.662,365.784 133.628,365.402C133.594,365.02 133.532,364.711 133.444,364.476C133.356,364.241 133.236,364.072 133.084,363.969C132.932,363.866 132.739,363.815 132.503,363.815L132.371,363.815C132.332,363.815 132.293,363.82 132.254,363.83C132.195,363.83 132.165,363.8 132.165,363.741C132.165,363.683 132.195,363.639 132.254,363.609C132.361,363.541 132.528,363.44 132.753,363.308C132.979,363.176 133.211,363.048 133.451,362.926C133.692,362.803 133.924,362.693 134.15,362.595C134.375,362.497 134.542,362.448 134.649,362.448C134.777,362.448 134.885,362.49 134.973,362.573C135.061,362.656 135.127,362.762 135.171,362.889C135.215,363.016 135.247,363.161 135.267,363.323C135.286,363.484 135.296,363.643 135.296,363.8C135.296,363.918 135.294,364.04 135.289,364.168C135.284,364.295 135.281,364.432 135.281,364.579C135.722,363.932 136.119,363.43 136.472,363.073C136.825,362.715 137.158,362.536 137.471,362.536C137.589,362.536 137.704,362.585 137.817,362.683C137.929,362.781 138.049,362.891 138.177,363.014C138.304,363.136 138.436,363.247 138.574,363.345C138.711,363.443 138.853,363.492 139,363.492C139.127,363.492 139.22,363.477 139.279,363.447C139.338,363.418 139.387,363.394 139.426,363.374C139.504,363.374 139.544,363.428 139.544,363.536L139.544,363.55Z" style="fill-rule:nonzero;"/>
        </g>
        <g transform="matrix(1,0,0,1,-54.3899,-48.5287)">
            <text x="82.781px" y="355.099px" style="font-family:'Luminari-Regular', 'Luminari';font-size:14.698px;">V<tspan x="93.731px 103.226px " y="355.099px 355.099px ">CM</tspan>C</text>
            <text x="82.781px" y="369.797px" style="font-family:'Luminari-Regular', 'Luminari';font-size:14.698px;">Re<tspan x="100.536px 107.106px 113.808px 117.821px " y="369.797px 369.797px 369.797px 369.797px ">ceiv</tspan>er</text>
        </g>
        <g transform="matrix(0.0219124,0,0,0.0248558,-0.414243,295.355)">
            <g transform="matrix(1,0,0,1,-143.343,98.6554)">
                <ellipse cx="360.896" cy="293.762" rx="136.961" ry="230.443" style="fill:rgb(102,126,153);stroke:black;stroke-width:63.81px;"/>
            </g>
            <g transform="matrix(1,0,0,1,445.551,98.6554)">
                <ellipse cx="360.896" cy="293.762" rx="136.961" ry="230.443" style="fill:rgb(102,126,153);stroke:black;stroke-width:63.81px;"/>
            </g>
            <g transform="matrix(1,0,0,1,-34.3236,-20.6488)">
                <ellipse cx="546.324" cy="643.509" rx="431.408" ry="296.899" style="fill:rgb(102,126,153);stroke:black;stroke-width:63.81px;"/>
            </g>
            <circle cx="406.664" cy="569.758" r="105.336" style="fill:rgb(102,126,153);stroke:black;stroke-width:63.81px;"/>
            <g transform="matrix(1,0,0,1,210.672,0)">
                <circle cx="406.664" cy="569.758" r="105.336" style="fill:rgb(102,126,153);stroke:black;stroke-width:63.81px;"/>
            </g>
            <g transform="matrix(1,0,0,1,-53.1856,50.0357)">
                <ellipse cx="565.186" cy="671.455" rx="210.672" ry="98.631" style="fill:rgb(102,126,153);stroke:black;stroke-width:63.81px;"/>
            </g>
            <g transform="matrix(51.2,0,0,45.1371,0.670978,88.9676)">
                <path d="M12.057,13.791C12.057,13.668 11.958,13.568 11.835,13.568L8.139,13.568C8.016,13.568 7.916,13.668 7.916,13.791L7.916,14.236C7.916,14.359 8.016,14.458 8.139,14.458L11.835,14.458C11.958,14.458 12.057,14.359 12.057,14.236L12.057,13.791Z"/>
            </g>
        </g>
    </g>
</svg>
