<?xml version="1.0" encoding="UTF-8" standalone="no"?>
<!DOCTYPE svg PUBLIC "-//W3C//DTD SVG 1.1//EN" "http://www.w3.org/Graphics/SVG/1.1/DTD/svg11.dtd">
<svg width="100%" height="100%" viewBox="0 0 150 380" version="1.1" xmlns="http://www.w3.org/2000/svg" xmlns:xlink="http://www.w3.org/1999/xlink" xml:space="preserve" xmlns:serif="http://www.serif.com/" style="fill-rule:evenodd;clip-rule:evenodd;stroke-linecap:round;stroke-linejoin:round;stroke-miterlimit:1.5;">
    <g transform="matrix(0.720851,0,0,2.01589,-37.8852,-120.797)">
        <rect x="52.556" y="59.922" width="208.087" height="188.503" style="fill:rgb(102,126,153);"/>
    </g>
    <g transform="matrix(1,0,0,1,-101.172,44.4383)">
        <g id="Connect-ledbutton" serif:id="Connect#ledbutton" transform="matrix(1,0,0,1,113.692,1.26292)">
            <circle cx="101.308" cy="310.24" r="9.898" style="fill:rgb(115,115,115);"/>
        </g>
        <g transform="matrix(1,0,0,1,111.158,174.078)">
            <path d="M90.698,116.846C90.698,117.006 90.743,117.13 90.833,117.216C90.923,117.303 91.045,117.346 91.198,117.346C91.391,117.346 91.52,117.29 91.583,117.176C91.646,117.063 91.685,116.95 91.698,116.836L92.718,116.836C92.718,117.283 92.581,117.643 92.308,117.916C92.175,118.056 92.015,118.166 91.828,118.246C91.641,118.326 91.431,118.366 91.198,118.366C90.878,118.366 90.606,118.3 90.383,118.166C90.16,118.033 89.988,117.856 89.868,117.636C89.795,117.503 89.745,117.35 89.718,117.176C89.691,117.003 89.678,116.813 89.678,116.606L89.678,114.936C89.678,114.73 89.691,114.54 89.718,114.366C89.745,114.193 89.795,114.04 89.868,113.906C89.988,113.686 90.16,113.51 90.383,113.376C90.606,113.243 90.878,113.176 91.198,113.176C91.431,113.176 91.643,113.216 91.833,113.296C92.023,113.376 92.185,113.486 92.318,113.626C92.585,113.926 92.718,114.316 92.718,114.796L91.698,114.796C91.698,114.59 91.653,114.438 91.563,114.341C91.473,114.245 91.351,114.196 91.198,114.196C91.045,114.196 90.923,114.245 90.833,114.341C90.743,114.438 90.698,114.583 90.698,114.776L90.698,116.846Z" style="fill-rule:nonzero;"/>
            <path d="M93.228,114.936C93.228,114.73 93.241,114.54 93.268,114.366C93.295,114.193 93.345,114.04 93.418,113.906C93.538,113.686 93.71,113.51 93.933,113.376C94.156,113.243 94.428,113.176 94.748,113.176C95.068,113.176 95.34,113.243 95.563,113.376C95.786,113.51 95.958,113.686 96.078,113.906C96.151,114.04 96.201,114.193 96.228,114.366C96.255,114.54 96.268,114.73 96.268,114.936L96.268,116.606C96.268,116.813 96.255,117.003 96.228,117.176C96.201,117.35 96.151,117.503 96.078,117.636C95.958,117.856 95.786,118.033 95.563,118.166C95.34,118.3 95.068,118.366 94.748,118.366C94.428,118.366 94.156,118.3 93.933,118.166C93.71,118.033 93.538,117.856 93.418,117.636C93.345,117.503 93.295,117.35 93.268,117.176C93.241,117.003 93.228,116.813 93.228,116.606L93.228,114.936ZM94.248,116.766C94.248,116.96 94.293,117.105 94.383,117.201C94.473,117.298 94.595,117.346 94.748,117.346C94.901,117.346 95.023,117.298 95.113,117.201C95.203,117.105 95.248,116.96 95.248,116.766L95.248,114.776C95.248,114.583 95.203,114.438 95.113,114.341C95.023,114.245 94.901,114.196 94.748,114.196C94.595,114.196 94.473,114.245 94.383,114.341C94.293,114.438 94.248,114.583 94.248,114.776L94.248,116.766Z" style="fill-rule:nonzero;"/>
            <path d="M97.018,118.306L97.018,113.236L98.038,113.236L98.038,113.726L98.058,113.726C98.165,113.566 98.293,113.435 98.443,113.331C98.593,113.228 98.785,113.176 99.018,113.176C99.145,113.176 99.271,113.198 99.398,113.241C99.525,113.285 99.638,113.356 99.738,113.456C99.838,113.556 99.918,113.685 99.978,113.841C100.038,113.998 100.068,114.19 100.068,114.416L100.068,118.306L99.048,118.306L99.048,114.796C99.048,114.61 99.005,114.463 98.918,114.356C98.831,114.25 98.708,114.196 98.548,114.196C98.355,114.196 98.221,114.256 98.148,114.376C98.075,114.496 98.038,114.67 98.038,114.896L98.038,118.306L97.018,118.306Z" style="fill-rule:nonzero;"/>
            <path d="M100.908,118.306L100.908,113.236L101.928,113.236L101.928,113.726L101.948,113.726C102.055,113.566 102.183,113.435 102.333,113.331C102.483,113.228 102.675,113.176 102.908,113.176C103.035,113.176 103.161,113.198 103.288,113.241C103.415,113.285 103.528,113.356 103.628,113.456C103.728,113.556 103.808,113.685 103.868,113.841C103.928,113.998 103.958,114.19 103.958,114.416L103.958,118.306L102.938,118.306L102.938,114.796C102.938,114.61 102.895,114.463 102.808,114.356C102.721,114.25 102.598,114.196 102.438,114.196C102.245,114.196 102.111,114.256 102.038,114.376C101.965,114.496 101.928,114.67 101.928,114.896L101.928,118.306L100.908,118.306Z" style="fill-rule:nonzero;"/>
            <path d="M107.748,116.156L105.728,116.156L105.728,116.846C105.728,117.006 105.773,117.13 105.863,117.216C105.953,117.303 106.075,117.346 106.228,117.346C106.421,117.346 106.55,117.29 106.613,117.176C106.676,117.063 106.715,116.95 106.728,116.836L107.748,116.836C107.748,117.283 107.611,117.643 107.338,117.916C107.205,118.056 107.045,118.166 106.858,118.246C106.671,118.326 106.461,118.366 106.228,118.366C105.908,118.366 105.636,118.3 105.413,118.166C105.19,118.033 105.018,117.856 104.898,117.636C104.825,117.503 104.775,117.35 104.748,117.176C104.721,117.003 104.708,116.813 104.708,116.606L104.708,114.936C104.708,114.73 104.721,114.54 104.748,114.366C104.775,114.193 104.825,114.04 104.898,113.906C105.018,113.686 105.19,113.51 105.413,113.376C105.636,113.243 105.908,113.176 106.228,113.176C106.461,113.176 106.673,113.216 106.863,113.296C107.053,113.376 107.215,113.486 107.348,113.626C107.615,113.926 107.748,114.303 107.748,114.756L107.748,116.156ZM105.728,115.356L106.728,115.356L106.728,114.776C106.728,114.583 106.683,114.438 106.593,114.341C106.503,114.245 106.381,114.196 106.228,114.196C106.075,114.196 105.953,114.245 105.863,114.341C105.773,114.438 105.728,114.583 105.728,114.776L105.728,115.356Z" style="fill-rule:nonzero;"/>
            <path d="M109.578,116.846C109.578,117.006 109.623,117.13 109.713,117.216C109.803,117.303 109.925,117.346 110.078,117.346C110.271,117.346 110.4,117.29 110.463,117.176C110.526,117.063 110.565,116.95 110.578,116.836L111.598,116.836C111.598,117.283 111.461,117.643 111.188,117.916C111.055,118.056 110.895,118.166 110.708,118.246C110.521,118.326 110.311,118.366 110.078,118.366C109.758,118.366 109.486,118.3 109.263,118.166C109.04,118.033 108.868,117.856 108.748,117.636C108.675,117.503 108.625,117.35 108.598,117.176C108.571,117.003 108.558,116.813 108.558,116.606L108.558,114.936C108.558,114.73 108.571,114.54 108.598,114.366C108.625,114.193 108.675,114.04 108.748,113.906C108.868,113.686 109.04,113.51 109.263,113.376C109.486,113.243 109.758,113.176 110.078,113.176C110.311,113.176 110.523,113.216 110.713,113.296C110.903,113.376 111.065,113.486 111.198,113.626C111.465,113.926 111.598,114.316 111.598,114.796L110.578,114.796C110.578,114.59 110.533,114.438 110.443,114.341C110.353,114.245 110.231,114.196 110.078,114.196C109.925,114.196 109.803,114.245 109.713,114.341C109.623,114.438 109.578,114.583 109.578,114.776L109.578,116.846Z" style="fill-rule:nonzero;"/>
            <path d="M112.198,113.236L112.198,111.696L113.218,111.696L113.218,113.236L113.848,113.236L113.848,114.036L113.218,114.036L113.218,116.846C113.218,116.966 113.23,117.06 113.253,117.126C113.276,117.193 113.315,117.243 113.368,117.276C113.421,117.31 113.486,117.33 113.563,117.336C113.64,117.343 113.735,117.346 113.848,117.346L113.848,118.306L113.428,118.306C113.195,118.306 113,118.27 112.843,118.196C112.686,118.123 112.561,118.03 112.468,117.916C112.375,117.803 112.306,117.675 112.263,117.531C112.22,117.388 112.198,117.25 112.198,117.116L112.198,114.036L111.688,114.036L111.688,113.236L112.198,113.236Z" style="fill-rule:nonzero;"/>
        </g>
        <g transform="matrix(1,0,0,1,111.158,174.078)">
            <text x="89.198px" y="118.306px" style="font-family:'DINCondensed-Bold', 'DIN Condensed';font-weight:700;font-stretch:condensed;font-size:10px;">connect</text>
        </g>
        <g id="Reset-output" serif:id="Reset#output" transform="matrix(0.175002,0,0,0.175002,148.809,278.505)">
            <rect x="53.94" y="106.916" width="161.978" height="161.978" style="fill:rgb(77,77,77);"/>
        </g>
        <g transform="matrix(1,0,0,1,75.1287,174.078)">
            <path d="M89.618,118.306L89.618,113.236L90.638,113.236L90.638,113.776C90.845,113.59 91.048,113.443 91.248,113.336C91.448,113.23 91.695,113.176 91.988,113.176L91.988,114.256C91.888,114.216 91.785,114.196 91.678,114.196C91.571,114.196 91.456,114.215 91.333,114.251C91.21,114.288 91.098,114.35 90.998,114.436C90.891,114.523 90.805,114.636 90.738,114.776C90.671,114.916 90.638,115.09 90.638,115.296L90.638,118.306L89.618,118.306Z" style="fill-rule:nonzero;"/>
            <path d="M95.348,116.156L93.328,116.156L93.328,116.846C93.328,117.006 93.373,117.13 93.463,117.216C93.553,117.303 93.675,117.346 93.828,117.346C94.021,117.346 94.15,117.29 94.213,117.176C94.276,117.063 94.315,116.95 94.328,116.836L95.348,116.836C95.348,117.283 95.211,117.643 94.938,117.916C94.805,118.056 94.645,118.166 94.458,118.246C94.271,118.326 94.061,118.366 93.828,118.366C93.508,118.366 93.236,118.3 93.013,118.166C92.79,118.033 92.618,117.856 92.498,117.636C92.425,117.503 92.375,117.35 92.348,117.176C92.321,117.003 92.308,116.813 92.308,116.606L92.308,114.936C92.308,114.73 92.321,114.54 92.348,114.366C92.375,114.193 92.425,114.04 92.498,113.906C92.618,113.686 92.79,113.51 93.013,113.376C93.236,113.243 93.508,113.176 93.828,113.176C94.061,113.176 94.273,113.216 94.463,113.296C94.653,113.376 94.815,113.486 94.948,113.626C95.215,113.926 95.348,114.303 95.348,114.756L95.348,116.156ZM93.328,115.356L94.328,115.356L94.328,114.776C94.328,114.583 94.283,114.438 94.193,114.341C94.103,114.245 93.981,114.196 93.828,114.196C93.675,114.196 93.553,114.245 93.463,114.341C93.373,114.438 93.328,114.583 93.328,114.776L93.328,115.356Z" style="fill-rule:nonzero;"/>
            <path d="M97.948,114.656C97.941,114.483 97.886,114.353 97.783,114.266C97.68,114.18 97.561,114.136 97.428,114.136C97.268,114.136 97.145,114.188 97.058,114.291C96.971,114.395 96.928,114.513 96.928,114.646C96.928,114.74 96.951,114.831 96.998,114.921C97.045,115.011 97.165,115.093 97.358,115.166L97.958,115.406C98.338,115.553 98.6,115.753 98.743,116.006C98.886,116.26 98.958,116.536 98.958,116.836C98.958,117.05 98.92,117.248 98.843,117.431C98.766,117.615 98.661,117.776 98.528,117.916C98.395,118.056 98.235,118.166 98.048,118.246C97.861,118.326 97.658,118.366 97.438,118.366C97.025,118.366 96.678,118.236 96.398,117.976C96.258,117.85 96.145,117.691 96.058,117.501C95.971,117.311 95.925,117.09 95.918,116.836L96.878,116.836C96.898,116.976 96.946,117.106 97.023,117.226C97.1,117.346 97.235,117.406 97.428,117.406C97.575,117.406 97.706,117.358 97.823,117.261C97.94,117.165 97.998,117.03 97.998,116.856C97.998,116.716 97.961,116.596 97.888,116.496C97.815,116.396 97.681,116.31 97.488,116.236L96.998,116.056C96.678,115.936 96.426,115.758 96.243,115.521C96.06,115.285 95.968,114.996 95.968,114.656C95.968,114.443 96.008,114.245 96.088,114.061C96.168,113.878 96.278,113.72 96.418,113.586C96.551,113.453 96.708,113.351 96.888,113.281C97.068,113.211 97.261,113.176 97.468,113.176C97.675,113.176 97.866,113.213 98.043,113.286C98.22,113.36 98.371,113.463 98.498,113.596C98.625,113.73 98.725,113.888 98.798,114.071C98.871,114.255 98.908,114.45 98.908,114.656L97.948,114.656Z" style="fill-rule:nonzero;"/>
            <path d="M102.568,116.156L100.548,116.156L100.548,116.846C100.548,117.006 100.593,117.13 100.683,117.216C100.773,117.303 100.895,117.346 101.048,117.346C101.241,117.346 101.37,117.29 101.433,117.176C101.496,117.063 101.535,116.95 101.548,116.836L102.568,116.836C102.568,117.283 102.431,117.643 102.158,117.916C102.025,118.056 101.865,118.166 101.678,118.246C101.491,118.326 101.281,118.366 101.048,118.366C100.728,118.366 100.456,118.3 100.233,118.166C100.01,118.033 99.838,117.856 99.718,117.636C99.645,117.503 99.595,117.35 99.568,117.176C99.541,117.003 99.528,116.813 99.528,116.606L99.528,114.936C99.528,114.73 99.541,114.54 99.568,114.366C99.595,114.193 99.645,114.04 99.718,113.906C99.838,113.686 100.01,113.51 100.233,113.376C100.456,113.243 100.728,113.176 101.048,113.176C101.281,113.176 101.493,113.216 101.683,113.296C101.873,113.376 102.035,113.486 102.168,113.626C102.435,113.926 102.568,114.303 102.568,114.756L102.568,116.156ZM100.548,115.356L101.548,115.356L101.548,114.776C101.548,114.583 101.503,114.438 101.413,114.341C101.323,114.245 101.201,114.196 101.048,114.196C100.895,114.196 100.773,114.245 100.683,114.341C100.593,114.438 100.548,114.583 100.548,114.776L100.548,115.356Z" style="fill-rule:nonzero;"/>
            <path d="M103.318,113.236L103.318,111.696L104.338,111.696L104.338,113.236L104.968,113.236L104.968,114.036L104.338,114.036L104.338,116.846C104.338,116.966 104.35,117.06 104.373,117.126C104.396,117.193 104.435,117.243 104.488,117.276C104.541,117.31 104.606,117.33 104.683,117.336C104.76,117.343 104.855,117.346 104.968,117.346L104.968,118.306L104.548,118.306C104.315,118.306 104.12,118.27 103.963,118.196C103.806,118.123 103.681,118.03 103.588,117.916C103.495,117.803 103.426,117.675 103.383,117.531C103.34,117.388 103.318,117.25 103.318,117.116L103.318,114.036L102.808,114.036L102.808,113.236L103.318,113.236Z" style="fill-rule:nonzero;"/>
        </g>
        <g transform="matrix(1,0,0,1,75.1287,174.078)">
            <text x="89.198px" y="118.306px" style="font-family:'DINCondensed-Bold', 'DIN Condensed';font-weight:700;font-stretch:condensed;font-size:10px;">reset</text>
        </g>
        <g id="Clock-output" serif:id="Clock#output" transform="matrix(0.175002,0,0,0.175002,112.835,278.26)">
            <rect x="53.94" y="106.916" width="161.978" height="161.978" style="fill:rgb(77,77,77);"/>
        </g>
        <g transform="matrix(1,0,0,1,39.4743,174.588)">
            <path d="M90.698,116.846C90.698,117.006 90.743,117.13 90.833,117.216C90.923,117.303 91.045,117.346 91.198,117.346C91.391,117.346 91.52,117.29 91.583,117.176C91.646,117.063 91.685,116.95 91.698,116.836L92.718,116.836C92.718,117.283 92.581,117.643 92.308,117.916C92.175,118.056 92.015,118.166 91.828,118.246C91.641,118.326 91.431,118.366 91.198,118.366C90.878,118.366 90.606,118.3 90.383,118.166C90.16,118.033 89.988,117.856 89.868,117.636C89.795,117.503 89.745,117.35 89.718,117.176C89.691,117.003 89.678,116.813 89.678,116.606L89.678,114.936C89.678,114.73 89.691,114.54 89.718,114.366C89.745,114.193 89.795,114.04 89.868,113.906C89.988,113.686 90.16,113.51 90.383,113.376C90.606,113.243 90.878,113.176 91.198,113.176C91.431,113.176 91.643,113.216 91.833,113.296C92.023,113.376 92.185,113.486 92.318,113.626C92.585,113.926 92.718,114.316 92.718,114.796L91.698,114.796C91.698,114.59 91.653,114.438 91.563,114.341C91.473,114.245 91.351,114.196 91.198,114.196C91.045,114.196 90.923,114.245 90.833,114.341C90.743,114.438 90.698,114.583 90.698,114.776L90.698,116.846Z" style="fill-rule:nonzero;"/>
            <path d="M93.138,111.186L94.158,111.186L94.158,116.876C94.158,117.07 94.193,117.201 94.263,117.271C94.333,117.341 94.465,117.386 94.658,117.406L94.658,118.366C94.425,118.366 94.215,118.348 94.028,118.311C93.841,118.275 93.681,118.203 93.548,118.096C93.415,117.996 93.313,117.855 93.243,117.671C93.173,117.488 93.138,117.246 93.138,116.946L93.138,111.186Z" style="fill-rule:nonzero;"/>
            <path d="M94.968,114.936C94.968,114.73 94.981,114.54 95.008,114.366C95.035,114.193 95.085,114.04 95.158,113.906C95.278,113.686 95.45,113.51 95.673,113.376C95.896,113.243 96.168,113.176 96.488,113.176C96.808,113.176 97.08,113.243 97.303,113.376C97.526,113.51 97.698,113.686 97.818,113.906C97.891,114.04 97.941,114.193 97.968,114.366C97.995,114.54 98.008,114.73 98.008,114.936L98.008,116.606C98.008,116.813 97.995,117.003 97.968,117.176C97.941,117.35 97.891,117.503 97.818,117.636C97.698,117.856 97.526,118.033 97.303,118.166C97.08,118.3 96.808,118.366 96.488,118.366C96.168,118.366 95.896,118.3 95.673,118.166C95.45,118.033 95.278,117.856 95.158,117.636C95.085,117.503 95.035,117.35 95.008,117.176C94.981,117.003 94.968,116.813 94.968,116.606L94.968,114.936ZM95.988,116.766C95.988,116.96 96.033,117.105 96.123,117.201C96.213,117.298 96.335,117.346 96.488,117.346C96.641,117.346 96.763,117.298 96.853,117.201C96.943,117.105 96.988,116.96 96.988,116.766L96.988,114.776C96.988,114.583 96.943,114.438 96.853,114.341C96.763,114.245 96.641,114.196 96.488,114.196C96.335,114.196 96.213,114.245 96.123,114.341C96.033,114.438 95.988,114.583 95.988,114.776L95.988,116.766Z" style="fill-rule:nonzero;"/>
            <path d="M99.838,116.846C99.838,117.006 99.883,117.13 99.973,117.216C100.063,117.303 100.185,117.346 100.338,117.346C100.531,117.346 100.66,117.29 100.723,117.176C100.786,117.063 100.825,116.95 100.838,116.836L101.858,116.836C101.858,117.283 101.721,117.643 101.448,117.916C101.315,118.056 101.155,118.166 100.968,118.246C100.781,118.326 100.571,118.366 100.338,118.366C100.018,118.366 99.746,118.3 99.523,118.166C99.3,118.033 99.128,117.856 99.008,117.636C98.935,117.503 98.885,117.35 98.858,117.176C98.831,117.003 98.818,116.813 98.818,116.606L98.818,114.936C98.818,114.73 98.831,114.54 98.858,114.366C98.885,114.193 98.935,114.04 99.008,113.906C99.128,113.686 99.3,113.51 99.523,113.376C99.746,113.243 100.018,113.176 100.338,113.176C100.571,113.176 100.783,113.216 100.973,113.296C101.163,113.376 101.325,113.486 101.458,113.626C101.725,113.926 101.858,114.316 101.858,114.796L100.838,114.796C100.838,114.59 100.793,114.438 100.703,114.341C100.613,114.245 100.491,114.196 100.338,114.196C100.185,114.196 100.063,114.245 99.973,114.341C99.883,114.438 99.838,114.583 99.838,114.776L99.838,116.846Z" style="fill-rule:nonzero;"/>
            <path d="M102.338,118.306L102.338,111.186L103.358,111.186L103.358,115.446L103.378,115.446L104.608,113.236L105.628,113.236L104.418,115.296L105.878,118.306L104.768,118.306L103.848,116.116L103.358,116.886L103.358,118.306L102.338,118.306Z" style="fill-rule:nonzero;"/>
        </g>
        <g transform="matrix(1,0,0,1,39.4743,174.588)">
            <text x="89.198px" y="118.306px" style="font-family:'DINCondensed-Bold', 'DIN Condensed';font-weight:700;font-stretch:condensed;font-size:10px;">c<tspan x="92.778px 94.638px 98.338px 101.918px " y="118.306px 118.306px 118.306px 118.306px ">lock</tspan></text>
        </g>
    </g>
    <g id="Channel8" transform="matrix(1,0,0,1,-105.058,109.16)">
        <g id="Gate" transform="matrix(1,0,0,1,21.2991,-0.592177)">
            <g id="BitOut1-output" serif:id="BitOut1#output" transform="matrix(0.175002,0,0,0.175002,92.3402,170.197)">
                <rect x="53.94" y="106.916" width="161.978" height="161.978" style="fill:rgb(77,77,77);"/>
            </g>
            <g id="Status1-led" serif:id="Status1#led" transform="matrix(1,0,0,1,94.9713,-132.781)">
                <circle cx="42.167" cy="335.861" r="3.82" style="fill:rgb(230,230,230);"/>
            </g>
        </g>
        <g id="Slider" transform="matrix(0.75,0,0,1,-55.1572,137.758)">
            <g id="Output-output" serif:id="Output#output" transform="matrix(0.233336,0,0,0.175002,335.315,31.8465)">
                <rect x="53.94" y="106.916" width="161.978" height="161.978" style="fill:rgb(153,102,102);"/>
            </g>
            <g id="Strip-meter-5" serif:id="Strip#meter$5" transform="matrix(0.0493894,-1.88741e-32,1.54074e-33,0.160516,386.558,34.5685)">
                <rect x="53.94" y="106.916" width="161.978" height="161.978"/>
            </g>
        </g>
        <g id="CV" transform="matrix(0.75,0,0,1,-50.1572,138.758)">
            <g id="Output-output1" serif:id="Output#output" transform="matrix(0.233336,0,0,0.175002,273.765,30.8465)">
                <rect x="53.94" y="106.916" width="161.978" height="161.978" style="fill:rgb(77,77,77);"/>
            </g>
            <g id="Strip-meter-51" serif:id="Strip#meter$5" transform="matrix(0.0493894,-5.00742e-33,-3.55556e-34,0.160516,325.005,33.5685)">
                <rect x="53.94" y="106.916" width="161.978" height="161.978"/>
            </g>
        </g>
        <g transform="matrix(1,0,0,1,26.3497,87.7418)">
            <path d="M91.558,112.646C91.558,112.506 91.508,112.388 91.408,112.291C91.308,112.195 91.191,112.146 91.058,112.146C90.925,112.146 90.808,112.195 90.708,112.291C90.608,112.388 90.558,112.506 90.558,112.646L90.558,113.686C90.558,113.826 90.608,113.945 90.708,114.041C90.808,114.138 90.925,114.186 91.058,114.186C91.191,114.186 91.308,114.138 91.408,114.041C91.508,113.945 91.558,113.826 91.558,113.686L91.558,112.646ZM89.538,113.046C89.538,112.853 89.545,112.688 89.558,112.551C89.571,112.415 89.595,112.296 89.628,112.196C89.661,112.096 89.7,112.006 89.743,111.926C89.786,111.846 89.841,111.763 89.908,111.676C90.041,111.503 90.208,111.368 90.408,111.271C90.608,111.175 90.825,111.126 91.058,111.126C91.291,111.126 91.508,111.175 91.708,111.271C91.908,111.368 92.075,111.503 92.208,111.676C92.275,111.763 92.331,111.846 92.378,111.926C92.425,112.006 92.465,112.096 92.498,112.196C92.531,112.296 92.553,112.415 92.563,112.551C92.573,112.688 92.578,112.853 92.578,113.046C92.578,113.26 92.575,113.44 92.568,113.586C92.561,113.733 92.541,113.863 92.508,113.976C92.475,114.09 92.423,114.191 92.353,114.281C92.283,114.371 92.188,114.466 92.068,114.566C92.188,114.66 92.283,114.753 92.353,114.846C92.423,114.94 92.475,115.05 92.508,115.176C92.541,115.303 92.561,115.458 92.568,115.641C92.575,115.825 92.578,116.05 92.578,116.316C92.578,116.536 92.573,116.718 92.563,116.861C92.553,117.005 92.538,117.13 92.518,117.236C92.498,117.343 92.47,117.433 92.433,117.506C92.396,117.58 92.351,117.656 92.298,117.736C92.185,117.91 92.025,118.058 91.818,118.181C91.611,118.305 91.358,118.366 91.058,118.366C90.758,118.366 90.505,118.305 90.298,118.181C90.091,118.058 89.931,117.91 89.818,117.736C89.765,117.656 89.72,117.58 89.683,117.506C89.646,117.433 89.618,117.343 89.598,117.236C89.578,117.13 89.563,117.005 89.553,116.861C89.543,116.718 89.538,116.536 89.538,116.316C89.538,116.05 89.541,115.825 89.548,115.641C89.555,115.458 89.575,115.303 89.608,115.176C89.641,115.05 89.693,114.94 89.763,114.846C89.833,114.753 89.928,114.66 90.048,114.566C89.928,114.466 89.833,114.371 89.763,114.281C89.693,114.191 89.641,114.09 89.608,113.976C89.575,113.863 89.555,113.733 89.548,113.586C89.541,113.44 89.538,113.26 89.538,113.046ZM91.558,115.446C91.558,115.306 91.508,115.188 91.408,115.091C91.308,114.995 91.191,114.946 91.058,114.946C90.925,114.946 90.808,114.995 90.708,115.091C90.608,115.188 90.558,115.306 90.558,115.446L90.558,116.846C90.558,116.986 90.608,117.105 90.708,117.201C90.808,117.298 90.925,117.346 91.058,117.346C91.191,117.346 91.308,117.298 91.408,117.201C91.508,117.105 91.558,116.986 91.558,116.846L91.558,115.446Z" style="fill-rule:nonzero;"/>
        </g>
        <g transform="matrix(1,0,0,1,26.3497,87.7418)">
            <text x="89.198px" y="118.306px" style="font-family:'DINCondensed-Bold', 'DIN Condensed';font-weight:700;font-stretch:condensed;font-size:10px;">8</text>
        </g>
    </g>
    <g id="Channel7" transform="matrix(1,0,0,1,-104.418,73.786)">
        <g id="Gate1" serif:id="Gate" transform="matrix(1,0,0,1,21.2991,-0.592177)">
            <g id="BitOut1-output1" serif:id="BitOut1#output" transform="matrix(0.175002,0,0,0.175002,92.3402,170.197)">
                <rect x="53.94" y="106.916" width="161.978" height="161.978" style="fill:rgb(77,77,77);"/>
            </g>
            <g id="Status1-led1" serif:id="Status1#led" transform="matrix(1,0,0,1,94.9713,-132.781)">
                <circle cx="42.167" cy="335.861" r="3.82" style="fill:rgb(230,230,230);"/>
            </g>
        </g>
        <g id="Slider1" serif:id="Slider" transform="matrix(0.75,0,0,1,-55.1572,137.758)">
            <g id="Output-output2" serif:id="Output#output" transform="matrix(0.233336,0,0,0.175002,335.315,31.8465)">
                <rect x="53.94" y="106.916" width="161.978" height="161.978" style="fill:rgb(153,102,102);"/>
            </g>
            <g id="Strip-meter-52" serif:id="Strip#meter$5" transform="matrix(0.0493894,-1.88741e-32,1.54074e-33,0.160516,386.558,34.5685)">
                <rect x="53.94" y="106.916" width="161.978" height="161.978"/>
            </g>
        </g>
        <g id="CV1" serif:id="CV" transform="matrix(0.75,0,0,1,-50.1572,138.758)">
            <g id="Output-output3" serif:id="Output#output" transform="matrix(0.233336,0,0,0.175002,273.765,30.8465)">
                <rect x="53.94" y="106.916" width="161.978" height="161.978" style="fill:rgb(77,77,77);"/>
            </g>
            <g id="Strip-meter-53" serif:id="Strip#meter$5" transform="matrix(0.0493894,-5.00742e-33,-3.55556e-34,0.160516,325.005,33.5685)">
                <rect x="53.94" y="106.916" width="161.978" height="161.978"/>
            </g>
        </g>
        <g transform="matrix(1,0,0,1,26.3497,87.7418)">
            <path d="M89.768,118.306L91.558,112.146L90.438,112.146L90.438,112.966L89.538,112.966L89.538,111.186L92.578,111.186L92.578,112.206L90.848,118.306L89.768,118.306Z" style="fill-rule:nonzero;"/>
        </g>
        <g transform="matrix(1,0,0,1,26.3497,87.7418)">
            <text x="89.198px" y="118.306px" style="font-family:'DINCondensed-Bold', 'DIN Condensed';font-weight:700;font-stretch:condensed;font-size:10px;">7</text>
        </g>
    </g>
    <g id="Channel6" transform="matrix(1,0,0,1,-104.418,38.4125)">
        <g id="Gate2" serif:id="Gate" transform="matrix(1,0,0,1,21.2991,-0.592177)">
            <g id="BitOut1-output2" serif:id="BitOut1#output" transform="matrix(0.175002,0,0,0.175002,92.3402,170.197)">
                <rect x="53.94" y="106.916" width="161.978" height="161.978" style="fill:rgb(77,77,77);"/>
            </g>
            <g id="Status1-led2" serif:id="Status1#led" transform="matrix(1,0,0,1,94.9713,-132.781)">
                <circle cx="42.167" cy="335.861" r="3.82" style="fill:rgb(230,230,230);"/>
            </g>
        </g>
        <g id="Slider2" serif:id="Slider" transform="matrix(0.75,0,0,1,-55.1572,137.758)">
            <g id="Output-output4" serif:id="Output#output" transform="matrix(0.233336,0,0,0.175002,335.315,31.8465)">
                <rect x="53.94" y="106.916" width="161.978" height="161.978" style="fill:rgb(153,102,102);"/>
            </g>
            <g id="Strip-meter-54" serif:id="Strip#meter$5" transform="matrix(0.0493894,-1.88741e-32,1.54074e-33,0.160516,386.558,34.5685)">
                <rect x="53.94" y="106.916" width="161.978" height="161.978"/>
            </g>
        </g>
        <g id="CV2" serif:id="CV" transform="matrix(0.75,0,0,1,-50.1572,138.758)">
            <g id="Output-output5" serif:id="Output#output" transform="matrix(0.233336,0,0,0.175002,273.765,30.8465)">
                <rect x="53.94" y="106.916" width="161.978" height="161.978" style="fill:rgb(77,77,77);"/>
            </g>
            <g id="Strip-meter-55" serif:id="Strip#meter$5" transform="matrix(0.0493894,-5.00742e-33,-3.55556e-34,0.160516,325.005,33.5685)">
                <rect x="53.94" y="106.916" width="161.978" height="161.978"/>
            </g>
        </g>
        <g transform="matrix(1,0,0,1,26.3497,87.7418)">
            <path d="M92.208,111.186L91.048,114.176L91.068,114.196C91.101,114.17 91.153,114.148 91.223,114.131C91.293,114.115 91.385,114.106 91.498,114.106C91.678,114.106 91.845,114.15 91.998,114.236C92.151,114.323 92.271,114.433 92.358,114.566C92.405,114.64 92.441,114.713 92.468,114.786C92.495,114.86 92.518,114.956 92.538,115.076C92.551,115.196 92.561,115.348 92.568,115.531C92.575,115.715 92.578,115.946 92.578,116.226C92.578,116.46 92.575,116.651 92.568,116.801C92.561,116.951 92.551,117.076 92.538,117.176C92.518,117.283 92.493,117.373 92.463,117.446C92.433,117.52 92.395,117.596 92.348,117.676C92.215,117.896 92.036,118.066 91.813,118.186C91.59,118.306 91.338,118.366 91.058,118.366C90.778,118.366 90.528,118.305 90.308,118.181C90.088,118.058 89.911,117.89 89.778,117.676C89.725,117.596 89.683,117.52 89.653,117.446C89.623,117.373 89.601,117.283 89.588,117.176C89.568,117.076 89.555,116.951 89.548,116.801C89.541,116.651 89.538,116.46 89.538,116.226C89.538,116.006 89.541,115.825 89.548,115.681C89.555,115.538 89.565,115.413 89.578,115.306C89.591,115.206 89.611,115.115 89.638,115.031C89.665,114.948 89.695,114.86 89.728,114.766L91.068,111.186L92.208,111.186ZM91.558,115.516C91.558,115.363 91.508,115.24 91.408,115.146C91.308,115.053 91.191,115.006 91.058,115.006C90.925,115.006 90.808,115.053 90.708,115.146C90.608,115.24 90.558,115.363 90.558,115.516L90.558,116.836C90.558,116.99 90.608,117.113 90.708,117.206C90.808,117.3 90.925,117.346 91.058,117.346C91.191,117.346 91.308,117.3 91.408,117.206C91.508,117.113 91.558,116.99 91.558,116.836L91.558,115.516Z" style="fill-rule:nonzero;"/>
        </g>
        <g transform="matrix(1,0,0,1,26.3497,87.7418)">
            <text x="89.198px" y="118.306px" style="font-family:'DINCondensed-Bold', 'DIN Condensed';font-weight:700;font-stretch:condensed;font-size:10px;">6</text>
        </g>
    </g>
    <g id="Channel5" transform="matrix(1,0,0,1,-104.418,3.03893)">
        <g id="Gate3" serif:id="Gate" transform="matrix(1,0,0,1,21.2991,-0.592177)">
            <g id="BitOut1-output3" serif:id="BitOut1#output" transform="matrix(0.175002,0,0,0.175002,92.3402,170.197)">
                <rect x="53.94" y="106.916" width="161.978" height="161.978" style="fill:rgb(77,77,77);"/>
            </g>
            <g id="Status1-led3" serif:id="Status1#led" transform="matrix(1,0,0,1,94.9713,-132.781)">
                <circle cx="42.167" cy="335.861" r="3.82" style="fill:rgb(230,230,230);"/>
            </g>
        </g>
        <g id="Slider3" serif:id="Slider" transform="matrix(0.75,0,0,1,-55.1572,137.758)">
            <g id="Output-output6" serif:id="Output#output" transform="matrix(0.233336,0,0,0.175002,335.315,31.8465)">
                <rect x="53.94" y="106.916" width="161.978" height="161.978" style="fill:rgb(153,102,102);"/>
            </g>
            <g id="Strip-meter-56" serif:id="Strip#meter$5" transform="matrix(0.0493894,-1.88741e-32,1.54074e-33,0.160516,386.558,34.5685)">
                <rect x="53.94" y="106.916" width="161.978" height="161.978"/>
            </g>
        </g>
        <g id="CV3" serif:id="CV" transform="matrix(0.75,0,0,1,-50.1572,138.758)">
            <g id="Output-output7" serif:id="Output#output" transform="matrix(0.233336,0,0,0.175002,273.765,30.8465)">
                <rect x="53.94" y="106.916" width="161.978" height="161.978" style="fill:rgb(77,77,77);"/>
            </g>
            <g id="Strip-meter-57" serif:id="Strip#meter$5" transform="matrix(0.0493894,-5.00742e-33,-3.55556e-34,0.160516,325.005,33.5685)">
                <rect x="53.94" y="106.916" width="161.978" height="161.978"/>
            </g>
        </g>
        <g transform="matrix(1,0,0,1,26.3497,87.7418)">
            <path d="M92.578,111.186L92.578,112.146L90.558,112.146L90.558,114.066C90.651,113.973 90.771,113.895 90.918,113.831C91.065,113.768 91.228,113.736 91.408,113.736C91.755,113.736 92.036,113.841 92.253,114.051C92.47,114.261 92.578,114.576 92.578,114.996L92.578,116.836C92.578,117.076 92.536,117.29 92.453,117.476C92.37,117.663 92.258,117.823 92.118,117.956C91.978,118.09 91.816,118.191 91.633,118.261C91.45,118.331 91.258,118.366 91.058,118.366C90.858,118.366 90.666,118.331 90.483,118.261C90.3,118.191 90.138,118.09 89.998,117.956C89.858,117.823 89.746,117.663 89.663,117.476C89.58,117.29 89.538,117.076 89.538,116.836L89.538,116.536L90.558,116.536L90.558,116.796C90.558,116.97 90.606,117.105 90.703,117.201C90.8,117.298 90.925,117.346 91.078,117.346C91.231,117.346 91.35,117.3 91.433,117.206C91.516,117.113 91.558,116.983 91.558,116.816L91.558,115.146C91.558,115.006 91.513,114.886 91.423,114.786C91.333,114.686 91.218,114.636 91.078,114.636C90.991,114.636 90.918,114.651 90.858,114.681C90.798,114.711 90.748,114.746 90.708,114.786C90.668,114.826 90.638,114.87 90.618,114.916C90.585,114.976 90.565,115.013 90.558,115.026L89.658,115.026L89.658,111.186L92.578,111.186Z" style="fill-rule:nonzero;"/>
        </g>
        <g transform="matrix(1,0,0,1,26.3497,87.7418)">
            <text x="89.198px" y="118.306px" style="font-family:'DINCondensed-Bold', 'DIN Condensed';font-weight:700;font-stretch:condensed;font-size:10px;">5</text>
        </g>
    </g>
    <g id="Channel4" transform="matrix(1,0,0,1,-104.418,-32.3346)">
        <g id="Gate4" serif:id="Gate" transform="matrix(1,0,0,1,21.2991,-0.592177)">
            <g id="BitOut1-output4" serif:id="BitOut1#output" transform="matrix(0.175002,0,0,0.175002,92.3402,170.197)">
                <rect x="53.94" y="106.916" width="161.978" height="161.978" style="fill:rgb(77,77,77);"/>
            </g>
            <g id="Status1-led4" serif:id="Status1#led" transform="matrix(1,0,0,1,94.9713,-132.781)">
                <circle cx="42.167" cy="335.861" r="3.82" style="fill:rgb(230,230,230);"/>
            </g>
        </g>
        <g id="Slider4" serif:id="Slider" transform="matrix(0.75,0,0,1,-55.1572,137.758)">
            <g id="Output-output8" serif:id="Output#output" transform="matrix(0.233336,0,0,0.175002,335.315,31.8465)">
                <rect x="53.94" y="106.916" width="161.978" height="161.978" style="fill:rgb(153,102,102);"/>
            </g>
            <g id="Strip-meter-58" serif:id="Strip#meter$5" transform="matrix(0.0493894,-1.88741e-32,1.54074e-33,0.160516,386.558,34.5685)">
                <rect x="53.94" y="106.916" width="161.978" height="161.978"/>
            </g>
        </g>
        <g id="CV4" serif:id="CV" transform="matrix(0.75,0,0,1,-50.1572,138.758)">
            <g id="Output-output9" serif:id="Output#output" transform="matrix(0.233336,0,0,0.175002,273.765,30.8465)">
                <rect x="53.94" y="106.916" width="161.978" height="161.978" style="fill:rgb(77,77,77);"/>
            </g>
            <g id="Strip-meter-59" serif:id="Strip#meter$5" transform="matrix(0.0493894,-5.00742e-33,-3.55556e-34,0.160516,325.005,33.5685)">
                <rect x="53.94" y="106.916" width="161.978" height="161.978"/>
            </g>
        </g>
        <g transform="matrix(1,0,0,1,26.3497,87.7418)">
            <path d="M91.318,118.306L91.318,117.246L89.288,117.246L89.288,116.286L90.758,111.186L91.838,111.186L90.308,116.286L91.318,116.286L91.318,114.256L92.338,114.256L92.338,116.286L92.828,116.286L92.828,117.246L92.338,117.246L92.338,118.306L91.318,118.306Z" style="fill-rule:nonzero;"/>
        </g>
        <g transform="matrix(1,0,0,1,26.3497,87.7418)">
            <text x="89.198px" y="118.306px" style="font-family:'DINCondensed-Bold', 'DIN Condensed';font-weight:700;font-stretch:condensed;font-size:10px;">4</text>
        </g>
    </g>
    <g id="Channel3" transform="matrix(1,0,0,1,-104.418,-67.7081)">
        <g id="Gate5" serif:id="Gate" transform="matrix(1,0,0,1,21.2991,-0.592177)">
            <g id="BitOut1-output5" serif:id="BitOut1#output" transform="matrix(0.175002,0,0,0.175002,92.3402,170.197)">
                <rect x="53.94" y="106.916" width="161.978" height="161.978" style="fill:rgb(77,77,77);"/>
            </g>
            <g id="Status1-led5" serif:id="Status1#led" transform="matrix(1,0,0,1,94.9713,-132.781)">
                <circle cx="42.167" cy="335.861" r="3.82" style="fill:rgb(230,230,230);"/>
            </g>
        </g>
        <g id="Slider5" serif:id="Slider" transform="matrix(0.75,0,0,1,-55.1572,137.758)">
            <g id="Output-output10" serif:id="Output#output" transform="matrix(0.233336,0,0,0.175002,335.315,31.8465)">
                <rect x="53.94" y="106.916" width="161.978" height="161.978" style="fill:rgb(153,102,102);"/>
            </g>
            <g id="Strip-meter-510" serif:id="Strip#meter$5" transform="matrix(0.0493894,-1.88741e-32,1.54074e-33,0.160516,386.558,34.5685)">
                <rect x="53.94" y="106.916" width="161.978" height="161.978"/>
            </g>
        </g>
        <g id="CV5" serif:id="CV" transform="matrix(0.75,0,0,1,-50.1572,138.758)">
            <g id="Output-output11" serif:id="Output#output" transform="matrix(0.233336,0,0,0.175002,273.765,30.8465)">
                <rect x="53.94" y="106.916" width="161.978" height="161.978" style="fill:rgb(77,77,77);"/>
            </g>
            <g id="Strip-meter-511" serif:id="Strip#meter$5" transform="matrix(0.0493894,-5.00742e-33,-3.55556e-34,0.160516,325.005,33.5685)">
                <rect x="53.94" y="106.916" width="161.978" height="161.978"/>
            </g>
        </g>
        <g transform="matrix(1,0,0,1,26.3497,87.7418)">
            <path d="M90.748,114.186C91.055,114.186 91.266,114.15 91.383,114.076C91.5,114.003 91.558,113.833 91.558,113.566L91.558,112.646C91.558,112.5 91.513,112.38 91.423,112.286C91.333,112.193 91.211,112.146 91.058,112.146C90.878,112.146 90.75,112.203 90.673,112.316C90.596,112.43 90.558,112.54 90.558,112.646L90.558,113.226L89.538,113.226L89.538,112.636C89.538,112.43 89.578,112.233 89.658,112.046C89.738,111.86 89.848,111.7 89.988,111.566C90.128,111.433 90.291,111.326 90.478,111.246C90.665,111.166 90.865,111.126 91.078,111.126C91.358,111.126 91.59,111.181 91.773,111.291C91.956,111.401 92.095,111.513 92.188,111.626C92.255,111.706 92.313,111.786 92.363,111.866C92.413,111.946 92.455,112.043 92.488,112.156C92.548,112.376 92.578,112.703 92.578,113.136C92.578,113.383 92.573,113.583 92.563,113.736C92.553,113.89 92.528,114.016 92.488,114.116C92.441,114.223 92.376,114.313 92.293,114.386C92.21,114.46 92.095,114.54 91.948,114.626C92.108,114.726 92.23,114.82 92.313,114.906C92.396,114.993 92.458,115.093 92.498,115.206C92.538,115.326 92.561,115.468 92.568,115.631C92.575,115.795 92.578,116.003 92.578,116.256C92.578,116.49 92.573,116.683 92.563,116.836C92.553,116.99 92.538,117.116 92.518,117.216C92.498,117.323 92.471,117.413 92.438,117.486C92.405,117.56 92.361,117.636 92.308,117.716C92.181,117.903 92.02,118.058 91.823,118.181C91.626,118.305 91.368,118.366 91.048,118.366C90.888,118.366 90.718,118.34 90.538,118.286C90.358,118.233 90.195,118.146 90.048,118.026C89.901,117.906 89.78,117.75 89.683,117.556C89.586,117.363 89.538,117.126 89.538,116.846L89.538,116.266L90.558,116.266L90.558,116.796C90.558,116.956 90.603,117.088 90.693,117.191C90.783,117.295 90.905,117.346 91.058,117.346C91.211,117.346 91.333,117.295 91.423,117.191C91.513,117.088 91.558,116.95 91.558,116.776L91.558,115.756C91.558,115.476 91.505,115.293 91.398,115.206C91.338,115.153 91.256,115.12 91.153,115.106C91.05,115.093 90.915,115.086 90.748,115.086L90.748,114.186Z" style="fill-rule:nonzero;"/>
        </g>
        <g transform="matrix(1,0,0,1,26.3497,87.7418)">
            <text x="89.198px" y="118.306px" style="font-family:'DINCondensed-Bold', 'DIN Condensed';font-weight:700;font-stretch:condensed;font-size:10px;">3</text>
        </g>
    </g>
    <g id="Channel2" transform="matrix(1,0,0,1,-104.418,-103.082)">
        <g id="Gate6" serif:id="Gate" transform="matrix(1,0,0,1,21.2991,-0.592177)">
            <g id="BitOut1-output6" serif:id="BitOut1#output" transform="matrix(0.175002,0,0,0.175002,92.3402,170.197)">
                <rect x="53.94" y="106.916" width="161.978" height="161.978" style="fill:rgb(77,77,77);"/>
            </g>
            <g id="Status1-led6" serif:id="Status1#led" transform="matrix(1,0,0,1,94.9713,-132.781)">
                <circle cx="42.167" cy="335.861" r="3.82" style="fill:rgb(230,230,230);"/>
            </g>
        </g>
        <g id="Slider6" serif:id="Slider" transform="matrix(0.75,0,0,1,-55.1572,137.758)">
            <g id="Output-output12" serif:id="Output#output" transform="matrix(0.233336,0,0,0.175002,335.315,31.8465)">
                <rect x="53.94" y="106.916" width="161.978" height="161.978" style="fill:rgb(153,102,102);"/>
            </g>
            <g id="Strip-meter-512" serif:id="Strip#meter$5" transform="matrix(0.0493894,-1.88741e-32,1.54074e-33,0.160516,386.558,34.5685)">
                <rect x="53.94" y="106.916" width="161.978" height="161.978"/>
            </g>
        </g>
        <g id="CV6" serif:id="CV" transform="matrix(0.75,0,0,1,-50.1572,138.758)">
            <g id="Output-output13" serif:id="Output#output" transform="matrix(0.233336,0,0,0.175002,273.765,30.8465)">
                <rect x="53.94" y="106.916" width="161.978" height="161.978" style="fill:rgb(77,77,77);"/>
            </g>
            <g id="Strip-meter-513" serif:id="Strip#meter$5" transform="matrix(0.0493894,-5.00742e-33,-3.55556e-34,0.160516,325.005,33.5685)">
                <rect x="53.94" y="106.916" width="161.978" height="161.978"/>
            </g>
        </g>
        <g transform="matrix(1,0,0,1,26.3497,87.7418)">
            <path d="M89.538,118.306L89.538,117.346L91.378,113.876C91.471,113.703 91.525,113.551 91.538,113.421C91.551,113.291 91.558,113.13 91.558,112.936C91.558,112.85 91.556,112.758 91.553,112.661C91.55,112.565 91.531,112.48 91.498,112.406C91.465,112.333 91.415,112.271 91.348,112.221C91.281,112.171 91.185,112.146 91.058,112.146C90.905,112.146 90.783,112.19 90.693,112.276C90.603,112.363 90.558,112.49 90.558,112.656L90.558,113.236L89.538,113.236L89.538,112.676C89.538,112.463 89.578,112.263 89.658,112.076C89.738,111.89 89.848,111.726 89.988,111.586C90.121,111.446 90.281,111.335 90.468,111.251C90.655,111.168 90.855,111.126 91.068,111.126C91.335,111.126 91.563,111.175 91.753,111.271C91.943,111.368 92.101,111.5 92.228,111.666C92.348,111.833 92.436,112.023 92.493,112.236C92.55,112.45 92.578,112.676 92.578,112.916C92.578,113.09 92.575,113.235 92.568,113.351C92.561,113.468 92.548,113.58 92.528,113.686C92.508,113.793 92.475,113.9 92.428,114.006C92.381,114.113 92.318,114.243 92.238,114.396L90.738,117.286L92.578,117.286L92.578,118.306L89.538,118.306Z" style="fill-rule:nonzero;"/>
        </g>
        <g transform="matrix(1,0,0,1,26.3497,87.7418)">
            <text x="89.198px" y="118.306px" style="font-family:'DINCondensed-Bold', 'DIN Condensed';font-weight:700;font-stretch:condensed;font-size:10px;">2</text>
        </g>
    </g>
    <g id="Channel1" transform="matrix(1,0,0,1,-104.418,-138.455)">
        <g id="Gate7" serif:id="Gate" transform="matrix(1,0,0,1,21.2991,-0.592177)">
            <g id="BitOut1-output7" serif:id="BitOut1#output" transform="matrix(0.175002,0,0,0.175002,92.3402,170.197)">
                <rect x="53.94" y="106.916" width="161.978" height="161.978" style="fill:rgb(77,77,77);"/>
            </g>
            <g id="Status1-led7" serif:id="Status1#led" transform="matrix(1,0,0,1,94.9713,-132.781)">
                <circle cx="42.167" cy="335.861" r="3.82" style="fill:rgb(230,230,230);"/>
            </g>
        </g>
        <g id="Slider7" serif:id="Slider" transform="matrix(0.75,0,0,1,-55.1572,137.758)">
            <g id="Output-output14" serif:id="Output#output" transform="matrix(0.233336,0,0,0.175002,335.315,31.8465)">
                <rect x="53.94" y="106.916" width="161.978" height="161.978" style="fill:rgb(153,102,102);"/>
            </g>
            <g id="Strip-meter-514" serif:id="Strip#meter$5" transform="matrix(0.0493894,-1.88741e-32,1.54074e-33,0.160516,386.558,34.5685)">
                <rect x="53.94" y="106.916" width="161.978" height="161.978"/>
            </g>
        </g>
        <g id="CV7" serif:id="CV" transform="matrix(0.75,0,0,1,-50.1572,138.758)">
            <g id="Output-output15" serif:id="Output#output" transform="matrix(0.233336,0,0,0.175002,273.765,30.8465)">
                <rect x="53.94" y="106.916" width="161.978" height="161.978" style="fill:rgb(77,77,77);"/>
            </g>
            <g id="Strip-meter-515" serif:id="Strip#meter$5" transform="matrix(0.0493894,-5.00742e-33,-3.55556e-34,0.160516,325.005,33.5685)">
                <rect x="53.94" y="106.916" width="161.978" height="161.978"/>
            </g>
        </g>
        <g transform="matrix(1,0,0,1,26.3497,87.7418)">
            <path d="M90.748,118.306L90.748,112.266L89.728,113.016L89.728,111.936L90.748,111.186L91.768,111.186L91.768,118.306L90.748,118.306Z" style="fill-rule:nonzero;"/>
        </g>
        <g transform="matrix(1,0,0,1,26.3497,87.7418)">
            <text x="89.198px" y="118.306px" style="font-family:'DINCondensed-Bold', 'DIN Condensed';font-weight:700;font-stretch:condensed;font-size:10px;">1</text>
        </g>
    </g>
    <g transform="matrix(1,0,0,1,-106.078,28)">
        <g transform="matrix(1,0,0,1,123.093,-101.186)">
            <path d="M91.468,114.656C91.461,114.483 91.406,114.353 91.303,114.266C91.2,114.18 91.081,114.136 90.948,114.136C90.788,114.136 90.665,114.188 90.578,114.291C90.491,114.395 90.448,114.513 90.448,114.646C90.448,114.74 90.471,114.831 90.518,114.921C90.565,115.011 90.685,115.093 90.878,115.166L91.478,115.406C91.858,115.553 92.12,115.753 92.263,116.006C92.406,116.26 92.478,116.536 92.478,116.836C92.478,117.05 92.44,117.248 92.363,117.431C92.286,117.615 92.181,117.776 92.048,117.916C91.915,118.056 91.755,118.166 91.568,118.246C91.381,118.326 91.178,118.366 90.958,118.366C90.545,118.366 90.198,118.236 89.918,117.976C89.778,117.85 89.665,117.691 89.578,117.501C89.491,117.311 89.445,117.09 89.438,116.836L90.398,116.836C90.418,116.976 90.466,117.106 90.543,117.226C90.62,117.346 90.755,117.406 90.948,117.406C91.095,117.406 91.226,117.358 91.343,117.261C91.46,117.165 91.518,117.03 91.518,116.856C91.518,116.716 91.481,116.596 91.408,116.496C91.335,116.396 91.201,116.31 91.008,116.236L90.518,116.056C90.198,115.936 89.946,115.758 89.763,115.521C89.58,115.285 89.488,114.996 89.488,114.656C89.488,114.443 89.528,114.245 89.608,114.061C89.688,113.878 89.798,113.72 89.938,113.586C90.071,113.453 90.228,113.351 90.408,113.281C90.588,113.211 90.781,113.176 90.988,113.176C91.195,113.176 91.386,113.213 91.563,113.286C91.74,113.36 91.891,113.463 92.018,113.596C92.145,113.73 92.245,113.888 92.318,114.071C92.391,114.255 92.428,114.45 92.428,114.656L91.468,114.656Z" style="fill-rule:nonzero;"/>
            <path d="M93.078,111.186L94.098,111.186L94.098,116.876C94.098,117.07 94.133,117.201 94.203,117.271C94.273,117.341 94.405,117.386 94.598,117.406L94.598,118.366C94.365,118.366 94.155,118.348 93.968,118.311C93.781,118.275 93.621,118.203 93.488,118.096C93.355,117.996 93.253,117.855 93.183,117.671C93.113,117.488 93.078,117.246 93.078,116.946L93.078,111.186Z" style="fill-rule:nonzero;"/>
            <path d="M94.998,118.306L94.998,113.236L96.018,113.236L96.018,118.306L94.998,118.306ZM94.998,112.206L94.998,111.186L96.018,111.186L96.018,112.206L94.998,112.206Z" style="fill-rule:nonzero;"/>
            <path d="M97.878,116.656C97.878,116.863 97.918,117.03 97.998,117.156C98.078,117.283 98.205,117.346 98.378,117.346C98.531,117.346 98.655,117.288 98.748,117.171C98.841,117.055 98.888,116.903 98.888,116.716L98.888,114.746C98.888,114.586 98.84,114.455 98.743,114.351C98.646,114.248 98.525,114.196 98.378,114.196C98.185,114.196 98.053,114.256 97.983,114.376C97.913,114.496 97.878,114.636 97.878,114.796L97.878,116.656ZM98.888,118.306L98.888,117.846C98.821,117.92 98.758,117.988 98.698,118.051C98.638,118.115 98.571,118.17 98.498,118.216C98.425,118.263 98.341,118.3 98.248,118.326C98.155,118.353 98.045,118.366 97.918,118.366C97.491,118.366 97.195,118.206 97.028,117.886C96.968,117.773 96.925,117.633 96.898,117.466C96.871,117.3 96.858,117.076 96.858,116.796L96.858,114.866C96.858,114.5 96.868,114.23 96.888,114.056C96.928,113.723 97.085,113.473 97.358,113.306C97.485,113.22 97.675,113.176 97.928,113.176C98.128,113.176 98.306,113.221 98.463,113.311C98.62,113.401 98.755,113.53 98.868,113.696L98.888,113.696L98.888,111.186L99.908,111.186L99.908,118.306L98.888,118.306Z" style="fill-rule:nonzero;"/>
            <path d="M103.698,116.156L101.678,116.156L101.678,116.846C101.678,117.006 101.723,117.13 101.813,117.216C101.903,117.303 102.025,117.346 102.178,117.346C102.371,117.346 102.5,117.29 102.563,117.176C102.626,117.063 102.665,116.95 102.678,116.836L103.698,116.836C103.698,117.283 103.561,117.643 103.288,117.916C103.155,118.056 102.995,118.166 102.808,118.246C102.621,118.326 102.411,118.366 102.178,118.366C101.858,118.366 101.586,118.3 101.363,118.166C101.14,118.033 100.968,117.856 100.848,117.636C100.775,117.503 100.725,117.35 100.698,117.176C100.671,117.003 100.658,116.813 100.658,116.606L100.658,114.936C100.658,114.73 100.671,114.54 100.698,114.366C100.725,114.193 100.775,114.04 100.848,113.906C100.968,113.686 101.14,113.51 101.363,113.376C101.586,113.243 101.858,113.176 102.178,113.176C102.411,113.176 102.623,113.216 102.813,113.296C103.003,113.376 103.165,113.486 103.298,113.626C103.565,113.926 103.698,114.303 103.698,114.756L103.698,116.156ZM101.678,115.356L102.678,115.356L102.678,114.776C102.678,114.583 102.633,114.438 102.543,114.341C102.453,114.245 102.331,114.196 102.178,114.196C102.025,114.196 101.903,114.245 101.813,114.341C101.723,114.438 101.678,114.583 101.678,114.776L101.678,115.356Z" style="fill-rule:nonzero;"/>
            <path d="M104.448,118.306L104.448,113.236L105.468,113.236L105.468,113.776C105.675,113.59 105.878,113.443 106.078,113.336C106.278,113.23 106.525,113.176 106.818,113.176L106.818,114.256C106.718,114.216 106.615,114.196 106.508,114.196C106.401,114.196 106.286,114.215 106.163,114.251C106.04,114.288 105.928,114.35 105.828,114.436C105.721,114.523 105.635,114.636 105.568,114.776C105.501,114.916 105.468,115.09 105.468,115.296L105.468,118.306L104.448,118.306Z" style="fill-rule:nonzero;"/>
        </g>
        <g transform="matrix(1,0,0,1,123.093,-101.186)">
            <text x="89.198px" y="118.306px" style="font-family:'DINCondensed-Bold', 'DIN Condensed';font-weight:700;font-stretch:condensed;font-size:10px;">slider</text>
        </g>
        <g transform="matrix(1,0,0,1,87.1897,-101.186)">
            <path d="M90.698,116.846C90.698,117.006 90.743,117.13 90.833,117.216C90.923,117.303 91.045,117.346 91.198,117.346C91.391,117.346 91.52,117.29 91.583,117.176C91.646,117.063 91.685,116.95 91.698,116.836L92.718,116.836C92.718,117.283 92.581,117.643 92.308,117.916C92.175,118.056 92.015,118.166 91.828,118.246C91.641,118.326 91.431,118.366 91.198,118.366C90.878,118.366 90.606,118.3 90.383,118.166C90.16,118.033 89.988,117.856 89.868,117.636C89.795,117.503 89.745,117.35 89.718,117.176C89.691,117.003 89.678,116.813 89.678,116.606L89.678,114.936C89.678,114.73 89.691,114.54 89.718,114.366C89.745,114.193 89.795,114.04 89.868,113.906C89.988,113.686 90.16,113.51 90.383,113.376C90.606,113.243 90.878,113.176 91.198,113.176C91.431,113.176 91.643,113.216 91.833,113.296C92.023,113.376 92.185,113.486 92.318,113.626C92.585,113.926 92.718,114.316 92.718,114.796L91.698,114.796C91.698,114.59 91.653,114.438 91.563,114.341C91.473,114.245 91.351,114.196 91.198,114.196C91.045,114.196 90.923,114.245 90.833,114.341C90.743,114.438 90.698,114.583 90.698,114.776L90.698,116.846Z" style="fill-rule:nonzero;"/>
            <path d="M96.428,113.236L95.108,118.306L94.208,118.306L92.888,113.236L93.968,113.236L94.648,116.476L94.668,116.476L95.348,113.236L96.428,113.236Z" style="fill-rule:nonzero;"/>
        </g>
        <g transform="matrix(1,0,0,1,87.1897,-101.186)">
            <text x="89.198px" y="118.306px" style="font-family:'DINCondensed-Bold', 'DIN Condensed';font-weight:700;font-stretch:condensed;font-size:10px;">cv</text>
        </g>
        <g transform="matrix(1,0,0,1,41.6166,-101.186)">
            <path d="M90.638,118.896C90.645,119.016 90.693,119.13 90.783,119.236C90.873,119.343 91.005,119.396 91.178,119.396C91.345,119.396 91.465,119.345 91.538,119.241C91.611,119.138 91.648,119.006 91.648,118.846L91.648,117.846L91.628,117.846C91.515,118.013 91.38,118.141 91.223,118.231C91.066,118.321 90.885,118.366 90.678,118.366C90.251,118.366 89.955,118.206 89.788,117.886C89.728,117.773 89.685,117.633 89.658,117.466C89.631,117.3 89.618,117.076 89.618,116.796L89.618,114.866C89.618,114.5 89.628,114.23 89.648,114.056C89.688,113.723 89.845,113.473 90.118,113.306C90.245,113.22 90.435,113.176 90.688,113.176C90.815,113.176 90.923,113.19 91.013,113.216C91.103,113.243 91.185,113.28 91.258,113.326C91.331,113.373 91.398,113.428 91.458,113.491C91.518,113.555 91.581,113.623 91.648,113.696L91.648,113.236L92.668,113.236L92.668,118.926C92.668,119.1 92.64,119.275 92.583,119.451C92.526,119.628 92.435,119.786 92.308,119.926C92.181,120.073 92.021,120.191 91.828,120.281C91.635,120.371 91.405,120.416 91.138,120.416C90.985,120.416 90.825,120.391 90.658,120.341C90.491,120.291 90.338,120.206 90.198,120.086C90.051,119.973 89.926,119.821 89.823,119.631C89.72,119.441 89.651,119.196 89.618,118.896L90.638,118.896ZM90.638,116.746C90.638,116.906 90.673,117.046 90.743,117.166C90.813,117.286 90.945,117.346 91.138,117.346C91.285,117.346 91.406,117.295 91.503,117.191C91.6,117.088 91.648,116.956 91.648,116.796L91.648,114.826C91.648,114.64 91.601,114.488 91.508,114.371C91.415,114.255 91.291,114.196 91.138,114.196C90.965,114.196 90.838,114.26 90.758,114.386C90.678,114.513 90.638,114.68 90.638,114.886L90.638,116.746Z" style="fill-rule:nonzero;"/>
            <path d="M95.438,118.306L95.438,117.786L95.418,117.786C95.285,117.973 95.15,118.116 95.013,118.216C94.876,118.316 94.685,118.366 94.438,118.366C94.318,118.366 94.196,118.348 94.073,118.311C93.95,118.275 93.831,118.206 93.718,118.106C93.605,118.013 93.513,117.878 93.443,117.701C93.373,117.525 93.338,117.296 93.338,117.016C93.338,116.73 93.361,116.478 93.408,116.261C93.455,116.045 93.541,115.863 93.668,115.716C93.788,115.576 93.951,115.471 94.158,115.401C94.365,115.331 94.628,115.296 94.948,115.296L95.058,115.296C95.098,115.296 95.135,115.3 95.168,115.306C95.201,115.313 95.241,115.316 95.288,115.316C95.335,115.316 95.385,115.32 95.438,115.326L95.438,114.796C95.438,114.623 95.401,114.48 95.328,114.366C95.255,114.253 95.121,114.196 94.928,114.196C94.795,114.196 94.673,114.24 94.563,114.326C94.453,114.413 94.381,114.54 94.348,114.706L93.358,114.706C93.385,114.253 93.538,113.886 93.818,113.606C93.951,113.473 94.111,113.368 94.298,113.291C94.485,113.215 94.695,113.176 94.928,113.176C95.141,113.176 95.341,113.21 95.528,113.276C95.715,113.343 95.878,113.443 96.018,113.576C96.151,113.71 96.258,113.876 96.338,114.076C96.418,114.276 96.458,114.51 96.458,114.776L96.458,118.306L95.438,118.306ZM95.438,116.126C95.325,116.106 95.231,116.096 95.158,116.096C94.938,116.096 94.75,116.148 94.593,116.251C94.436,116.355 94.358,116.543 94.358,116.816C94.358,117.01 94.405,117.166 94.498,117.286C94.591,117.406 94.721,117.466 94.888,117.466C95.061,117.466 95.196,117.41 95.293,117.296C95.39,117.183 95.438,117.023 95.438,116.816L95.438,116.126Z" style="fill-rule:nonzero;"/>
            <path d="M97.208,113.236L97.208,111.696L98.228,111.696L98.228,113.236L98.858,113.236L98.858,114.036L98.228,114.036L98.228,116.846C98.228,116.966 98.24,117.06 98.263,117.126C98.286,117.193 98.325,117.243 98.378,117.276C98.431,117.31 98.496,117.33 98.573,117.336C98.65,117.343 98.745,117.346 98.858,117.346L98.858,118.306L98.438,118.306C98.205,118.306 98.01,118.27 97.853,118.196C97.696,118.123 97.571,118.03 97.478,117.916C97.385,117.803 97.316,117.675 97.273,117.531C97.23,117.388 97.208,117.25 97.208,117.116L97.208,114.036L96.698,114.036L96.698,113.236L97.208,113.236Z" style="fill-rule:nonzero;"/>
            <path d="M102.198,116.156L100.178,116.156L100.178,116.846C100.178,117.006 100.223,117.13 100.313,117.216C100.403,117.303 100.525,117.346 100.678,117.346C100.871,117.346 101,117.29 101.063,117.176C101.126,117.063 101.165,116.95 101.178,116.836L102.198,116.836C102.198,117.283 102.061,117.643 101.788,117.916C101.655,118.056 101.495,118.166 101.308,118.246C101.121,118.326 100.911,118.366 100.678,118.366C100.358,118.366 100.086,118.3 99.863,118.166C99.64,118.033 99.468,117.856 99.348,117.636C99.275,117.503 99.225,117.35 99.198,117.176C99.171,117.003 99.158,116.813 99.158,116.606L99.158,114.936C99.158,114.73 99.171,114.54 99.198,114.366C99.225,114.193 99.275,114.04 99.348,113.906C99.468,113.686 99.64,113.51 99.863,113.376C100.086,113.243 100.358,113.176 100.678,113.176C100.911,113.176 101.123,113.216 101.313,113.296C101.503,113.376 101.665,113.486 101.798,113.626C102.065,113.926 102.198,114.303 102.198,114.756L102.198,116.156ZM100.178,115.356L101.178,115.356L101.178,114.776C101.178,114.583 101.133,114.438 101.043,114.341C100.953,114.245 100.831,114.196 100.678,114.196C100.525,114.196 100.403,114.245 100.313,114.341C100.223,114.438 100.178,114.583 100.178,114.776L100.178,115.356Z" style="fill-rule:nonzero;"/>
        </g>
        <g transform="matrix(1,0,0,1,41.6166,-101.186)">
            <text x="89.198px" y="118.306px" style="font-family:'DINCondensed-Bold', 'DIN Condensed';font-weight:700;font-stretch:condensed;font-size:10px;">gate</text>
        </g>
    </g>
    <g transform="matrix(0.816456,0,0,0.816456,37.9679,-226.916)">
        <g transform="matrix(1,0,0,1,-54.3899,-48.5287)">
            <path d="M68.517,344.62C68.635,344.62 68.767,344.617 68.914,344.612C69.061,344.608 69.201,344.603 69.333,344.598C69.465,344.593 69.578,344.588 69.671,344.583C69.764,344.578 69.825,344.576 69.855,344.576C70.021,344.576 70.105,344.625 70.105,344.723C70.105,344.811 70.07,344.875 70.002,344.914C69.933,344.953 69.852,344.982 69.759,345.002C69.666,345.021 69.571,345.034 69.473,345.039C69.375,345.044 69.296,345.061 69.237,345.09C68.787,345.952 68.348,346.807 67.922,347.655C67.496,348.502 67.087,349.311 66.695,350.08C66.303,350.849 65.933,351.559 65.585,352.211C65.237,352.863 64.924,353.429 64.644,353.909C64.365,354.389 64.123,354.766 63.917,355.04C63.711,355.315 63.554,355.452 63.447,355.452C63.398,355.423 63.349,355.376 63.3,355.312C63.251,355.249 63.202,355.163 63.153,355.055C63.006,354.751 62.839,354.384 62.653,353.953C62.467,353.522 62.271,353.056 62.065,352.556C61.859,352.057 61.644,351.54 61.418,351.006C61.193,350.472 60.968,349.94 60.742,349.411L60.433,348.676C60.267,348.265 60.105,347.858 59.948,347.456C59.792,347.055 59.647,346.685 59.515,346.347C59.383,346.009 59.265,345.722 59.162,345.487C59.059,345.252 58.974,345.095 58.905,345.017C58.66,345.017 58.469,345.012 58.332,345.002C58.195,344.992 58.092,344.98 58.023,344.965C57.954,344.95 57.91,344.931 57.891,344.906C57.871,344.882 57.861,344.855 57.861,344.826C57.861,344.757 57.881,344.698 57.92,344.649C57.959,344.6 57.999,344.576 58.038,344.576C58.067,344.576 58.143,344.578 58.266,344.583C58.388,344.588 58.54,344.593 58.721,344.598C58.902,344.603 59.106,344.61 59.331,344.62C59.557,344.63 59.782,344.634 60.007,344.634C60.86,344.634 61.477,344.617 61.859,344.583C62.241,344.549 62.472,344.532 62.55,344.532C62.736,344.532 62.829,344.581 62.829,344.679C62.829,344.698 62.824,344.725 62.815,344.759C62.805,344.794 62.778,344.83 62.734,344.87C62.69,344.909 62.616,344.943 62.513,344.972C62.41,345.002 62.271,345.017 62.094,345.017C61.967,345.017 61.842,345.014 61.72,345.009C61.597,345.004 61.502,344.997 61.433,344.987C61.433,345.056 61.487,345.266 61.595,345.619C61.702,345.972 61.842,346.403 62.013,346.913C62.185,347.422 62.381,347.976 62.601,348.573C62.822,349.171 63.042,349.752 63.263,350.315C63.483,350.879 63.694,351.393 63.895,351.858C64.096,352.324 64.27,352.679 64.417,352.924C64.495,352.816 64.617,352.601 64.784,352.277C64.951,351.954 65.137,351.567 65.343,351.116C65.548,350.665 65.761,350.175 65.982,349.646C66.202,349.117 66.403,348.595 66.584,348.081C66.766,347.567 66.915,347.082 67.033,346.626C67.15,346.17 67.209,345.796 67.209,345.502C67.209,345.404 67.202,345.301 67.187,345.193C67.172,345.085 67.126,345.021 67.047,345.002C66.793,345.002 66.584,344.997 66.423,344.987C66.261,344.977 66.131,344.965 66.033,344.95C65.935,344.936 65.857,344.916 65.798,344.892C65.739,344.867 65.685,344.845 65.636,344.826C65.607,344.786 65.592,344.728 65.592,344.649C65.592,344.571 65.622,344.532 65.681,344.532L65.872,344.532C65.979,344.541 66.161,344.554 66.415,344.568C66.67,344.583 67.047,344.6 67.547,344.62L68.517,344.62Z" style="fill-rule:nonzero;"/>
            <path d="M76.689,355.173C76.591,355.173 76.459,355.178 76.292,355.187C76.126,355.197 75.947,355.205 75.756,355.209C75.565,355.214 75.369,355.222 75.168,355.231C74.967,355.241 74.783,355.246 74.617,355.246C73.96,355.246 73.318,355.146 72.691,354.945C72.064,354.744 71.508,354.43 71.023,354.004C70.538,353.578 70.146,353.029 69.847,352.358C69.548,351.687 69.399,350.881 69.399,349.94C69.399,349.078 69.563,348.314 69.891,347.647C70.22,346.981 70.653,346.423 71.192,345.972C71.731,345.521 72.339,345.178 73.015,344.943C73.691,344.708 74.382,344.59 75.087,344.59C75.244,344.59 75.457,344.6 75.726,344.62C75.996,344.639 76.265,344.664 76.535,344.693C76.804,344.723 77.044,344.754 77.255,344.789C77.466,344.823 77.6,344.855 77.659,344.884C77.787,344.541 77.929,344.238 78.085,343.973C78.242,343.708 78.458,343.508 78.732,343.37C78.81,343.341 78.899,343.336 78.997,343.356C79.095,343.375 79.144,343.424 79.144,343.503C79.095,343.591 79.058,343.645 79.033,343.664C79.009,343.684 78.977,343.694 78.938,343.694C78.82,343.694 78.705,343.748 78.592,343.855C78.48,343.963 78.374,344.103 78.276,344.274C78.178,344.446 78.093,344.642 78.019,344.862C77.946,345.083 77.889,345.306 77.85,345.531C77.831,345.639 77.809,345.764 77.784,345.906C77.76,346.048 77.738,346.187 77.718,346.325C77.698,346.462 77.684,346.594 77.674,346.722C77.664,346.849 77.659,346.957 77.659,347.045C77.659,347.094 77.64,347.135 77.6,347.17C77.561,347.204 77.522,347.221 77.483,347.221C77.424,347.221 77.355,347.192 77.277,347.133C77.238,346.888 77.157,346.643 77.035,346.398C76.912,346.153 76.741,345.933 76.52,345.737C76.3,345.541 76.025,345.384 75.697,345.266C75.369,345.149 74.979,345.09 74.529,345.09C74.048,345.09 73.62,345.203 73.243,345.428C72.865,345.653 72.547,345.962 72.287,346.354C72.028,346.746 71.829,347.211 71.692,347.75C71.555,348.289 71.486,348.867 71.486,349.485C71.486,350.337 71.572,351.094 71.743,351.755C71.915,352.417 72.152,352.978 72.456,353.438C72.76,353.899 73.122,354.249 73.544,354.489C73.965,354.729 74.426,354.849 74.925,354.849C75.259,354.849 75.584,354.795 75.903,354.688C76.221,354.58 76.515,354.433 76.785,354.247C77.054,354.061 77.294,353.845 77.505,353.6C77.715,353.355 77.88,353.095 77.997,352.821C78.017,352.782 78.068,352.752 78.152,352.733C78.235,352.713 78.276,352.723 78.276,352.762C78.276,352.89 78.235,353.064 78.152,353.284C78.068,353.504 77.973,353.725 77.865,353.945C77.757,354.166 77.649,354.367 77.542,354.548C77.434,354.729 77.36,354.849 77.321,354.908C77.292,354.977 77.255,355.067 77.211,355.18C77.167,355.293 77.128,355.42 77.093,355.562C77.059,355.704 77.027,355.851 76.998,356.003C76.968,356.155 76.954,356.304 76.954,356.451C76.954,356.608 76.934,356.706 76.895,356.745C76.856,356.785 76.772,356.804 76.645,356.804C76.537,356.804 76.488,356.728 76.498,356.576C76.508,356.424 76.532,356.25 76.572,356.055C76.611,355.859 76.65,355.675 76.689,355.503C76.728,355.332 76.728,355.222 76.689,355.173Z" style="fill-rule:nonzero;"/>
            <path d="M87.609,354.379C87.668,354.614 87.874,354.761 88.227,354.82C88.315,354.83 88.359,354.879 88.359,354.967C88.359,355.016 88.335,355.06 88.286,355.099C88.237,355.138 88.173,355.158 88.094,355.158C87.948,355.158 87.752,355.148 87.507,355.129C87.262,355.109 86.914,355.099 86.463,355.099C86.101,355.099 85.782,355.111 85.508,355.136C85.233,355.16 85.067,355.178 85.008,355.187C84.959,355.187 84.925,355.173 84.905,355.143C84.886,355.114 84.876,355.08 84.876,355.04C84.876,355.001 84.883,354.962 84.898,354.923C84.912,354.884 84.934,354.864 84.964,354.864C85.032,354.854 85.101,354.835 85.17,354.805C85.238,354.776 85.302,354.737 85.361,354.688C85.39,354.658 85.427,354.501 85.471,354.217C85.515,353.933 85.554,353.558 85.589,353.093C85.623,352.628 85.652,352.091 85.677,351.484C85.701,350.876 85.713,350.234 85.713,349.558L85.713,347.971C85.713,347.481 85.689,347.084 85.64,346.78C85.552,346.134 85.346,345.636 85.023,345.288C84.699,344.941 84.322,344.767 83.891,344.767C83.509,344.767 83.132,344.872 82.759,345.083C82.387,345.293 82.054,345.602 81.76,346.009C81.466,346.415 81.228,346.92 81.047,347.523C80.866,348.125 80.775,348.813 80.775,349.588C80.775,350.44 80.871,351.182 81.062,351.814C81.253,352.446 81.505,352.975 81.819,353.402C82.132,353.828 82.492,354.146 82.899,354.357C83.306,354.568 83.729,354.673 84.17,354.673L84.251,354.673C84.285,354.673 84.312,354.668 84.332,354.658C84.371,354.639 84.396,354.639 84.405,354.658C84.415,354.678 84.415,354.705 84.405,354.739C84.396,354.773 84.383,354.808 84.369,354.842C84.354,354.876 84.337,354.898 84.317,354.908C84.219,354.977 84.082,355.038 83.906,355.092C83.729,355.146 83.484,355.173 83.171,355.173C82.651,355.173 82.135,355.053 81.62,354.813C81.106,354.573 80.645,354.237 80.239,353.806C79.832,353.375 79.504,352.853 79.254,352.24C79.004,351.628 78.879,350.954 78.879,350.22C78.879,349.171 79.031,348.275 79.335,347.53C79.638,346.785 80.052,346.178 80.577,345.707C81.101,345.237 81.708,344.892 82.399,344.671C83.09,344.451 83.827,344.34 84.611,344.34C84.895,344.34 85.155,344.37 85.39,344.429C85.625,344.487 85.831,344.559 86.007,344.642C86.184,344.725 86.328,344.806 86.441,344.884C86.554,344.963 86.63,345.021 86.669,345.061C86.747,345.002 86.906,344.931 87.146,344.848C87.387,344.764 87.661,344.686 87.97,344.612C88.278,344.539 88.599,344.475 88.932,344.421C89.265,344.367 89.569,344.34 89.844,344.34C90.588,344.36 91.242,344.483 91.806,344.708C92.369,344.933 92.839,345.235 93.217,345.612C93.594,345.989 93.878,346.425 94.069,346.92C94.26,347.415 94.356,347.941 94.356,348.5C94.356,349.548 94.216,350.482 93.937,351.3C93.658,352.118 93.283,352.811 92.812,353.38C92.342,353.948 91.798,354.381 91.181,354.68C90.564,354.979 89.917,355.129 89.241,355.129C89.182,355.129 89.143,355.107 89.123,355.062C89.104,355.018 89.096,354.972 89.101,354.923C89.106,354.874 89.123,354.832 89.153,354.798C89.182,354.764 89.212,354.751 89.241,354.761C89.29,354.781 89.329,354.791 89.358,354.791L89.476,354.791C89.878,354.791 90.255,354.653 90.608,354.379C90.961,354.105 91.269,353.725 91.534,353.24C91.798,352.755 92.007,352.182 92.158,351.52C92.31,350.859 92.386,350.136 92.386,349.352C92.386,347.892 92.163,346.756 91.717,345.943C91.272,345.129 90.583,344.723 89.652,344.723C89.368,344.723 89.104,344.781 88.859,344.899C88.614,345.017 88.401,345.171 88.219,345.362C88.038,345.553 87.891,345.771 87.778,346.016C87.666,346.261 87.595,346.511 87.565,346.766C87.516,347.109 87.487,347.657 87.477,348.412C87.467,349.166 87.458,350.077 87.448,351.146C87.438,351.929 87.445,352.613 87.47,353.196C87.494,353.779 87.541,354.173 87.609,354.379Z" style="fill-rule:nonzero;"/>
            <path d="M102.366,355.173C102.268,355.173 102.136,355.178 101.969,355.187C101.803,355.197 101.624,355.205 101.433,355.209C101.242,355.214 101.046,355.222 100.845,355.231C100.644,355.241 100.46,355.246 100.294,355.246C99.637,355.246 98.995,355.146 98.368,354.945C97.741,354.744 97.185,354.43 96.7,354.004C96.215,353.578 95.823,353.029 95.524,352.358C95.225,351.687 95.076,350.881 95.076,349.94C95.076,349.078 95.24,348.314 95.568,347.647C95.897,346.981 96.33,346.423 96.869,345.972C97.408,345.521 98.015,345.178 98.692,344.943C99.368,344.708 100.058,344.59 100.764,344.59C100.921,344.59 101.134,344.6 101.403,344.62C101.673,344.639 101.942,344.664 102.212,344.693C102.481,344.723 102.721,344.754 102.932,344.789C103.142,344.823 103.277,344.855 103.336,344.884C103.463,344.541 103.605,344.238 103.762,343.973C103.919,343.708 104.135,343.508 104.409,343.37C104.487,343.341 104.575,343.336 104.673,343.356C104.771,343.375 104.82,343.424 104.82,343.503C104.771,343.591 104.735,343.645 104.71,343.664C104.686,343.684 104.654,343.694 104.615,343.694C104.497,343.694 104.382,343.748 104.269,343.855C104.157,343.963 104.051,344.103 103.953,344.274C103.855,344.446 103.77,344.642 103.696,344.862C103.623,345.083 103.566,345.306 103.527,345.531C103.507,345.639 103.485,345.764 103.461,345.906C103.436,346.048 103.414,346.187 103.395,346.325C103.375,346.462 103.36,346.594 103.351,346.722C103.341,346.849 103.336,346.957 103.336,347.045C103.336,347.094 103.316,347.135 103.277,347.17C103.238,347.204 103.199,347.221 103.16,347.221C103.101,347.221 103.032,347.192 102.954,347.133C102.915,346.888 102.834,346.643 102.711,346.398C102.589,346.153 102.417,345.933 102.197,345.737C101.976,345.541 101.702,345.384 101.374,345.266C101.046,345.149 100.656,345.09 100.205,345.09C99.725,345.09 99.297,345.203 98.919,345.428C98.542,345.653 98.224,345.962 97.964,346.354C97.704,346.746 97.506,347.211 97.369,347.75C97.232,348.289 97.163,348.867 97.163,349.485C97.163,350.337 97.249,351.094 97.42,351.755C97.592,352.417 97.829,352.978 98.133,353.438C98.437,353.899 98.799,354.249 99.221,354.489C99.642,354.729 100.102,354.849 100.602,354.849C100.935,354.849 101.261,354.795 101.58,354.688C101.898,354.58 102.192,354.433 102.461,354.247C102.731,354.061 102.971,353.845 103.182,353.6C103.392,353.355 103.556,353.095 103.674,352.821C103.694,352.782 103.745,352.752 103.828,352.733C103.912,352.713 103.953,352.723 103.953,352.762C103.953,352.89 103.912,353.064 103.828,353.284C103.745,353.504 103.65,353.725 103.542,353.945C103.434,354.166 103.326,354.367 103.218,354.548C103.111,354.729 103.037,354.849 102.998,354.908C102.969,354.977 102.932,355.067 102.888,355.18C102.844,355.293 102.804,355.42 102.77,355.562C102.736,355.704 102.704,355.851 102.675,356.003C102.645,356.155 102.63,356.304 102.63,356.451C102.63,356.608 102.611,356.706 102.572,356.745C102.532,356.785 102.449,356.804 102.322,356.804C102.214,356.804 102.165,356.728 102.175,356.576C102.185,356.424 102.209,356.25 102.248,356.055C102.288,355.859 102.327,355.675 102.366,355.503C102.405,355.332 102.405,355.222 102.366,355.173Z" style="fill-rule:nonzero;"/>
            <path d="M111.243,351.88C111.243,352.38 111.253,352.868 111.273,353.343C111.292,353.818 111.346,354.203 111.434,354.497C111.611,354.604 111.809,354.671 112.03,354.695C112.25,354.719 112.458,354.737 112.654,354.746C112.85,354.756 113.014,354.776 113.147,354.805C113.279,354.835 113.345,354.898 113.345,354.996C113.345,355.045 113.321,355.087 113.272,355.121C113.223,355.156 113.144,355.173 113.036,355.173C112.752,355.182 112.365,355.17 111.875,355.136C111.385,355.102 110.827,355.084 110.2,355.084C109.396,355.084 108.791,355.111 108.385,355.165C107.978,355.219 107.735,355.246 107.657,355.246C107.588,355.246 107.53,355.229 107.481,355.195C107.432,355.16 107.407,355.114 107.407,355.055C107.407,354.928 107.466,354.859 107.584,354.849C107.701,354.84 107.922,354.81 108.245,354.761C108.461,354.742 108.637,354.715 108.774,354.68C108.911,354.646 109.048,354.604 109.186,354.555C109.244,354.34 109.293,354.119 109.333,353.894C109.372,353.669 109.406,353.387 109.436,353.049C109.465,352.711 109.487,352.289 109.502,351.785C109.516,351.28 109.524,350.631 109.524,349.837C109.524,349.112 109.519,348.497 109.509,347.993C109.499,347.488 109.482,347.067 109.458,346.729C109.433,346.391 109.409,346.124 109.384,345.928C109.36,345.732 109.333,345.58 109.303,345.472C109.176,345.384 109.009,345.328 108.804,345.303C108.598,345.279 108.397,345.259 108.201,345.244C108.005,345.23 107.836,345.208 107.694,345.178C107.552,345.149 107.481,345.08 107.481,344.972C107.481,344.845 107.559,344.781 107.716,344.781C107.892,344.781 108.194,344.803 108.62,344.848C109.046,344.892 109.568,344.914 110.185,344.914C110.283,344.914 110.361,344.899 110.42,344.87C110.518,344.821 110.675,344.752 110.891,344.664C111.106,344.576 111.356,344.487 111.64,344.399C111.924,344.311 112.226,344.233 112.544,344.164C112.863,344.096 113.174,344.061 113.477,344.061C113.967,344.061 114.433,344.118 114.874,344.23C115.315,344.343 115.699,344.512 116.027,344.737C116.356,344.963 116.618,345.242 116.814,345.575C117.01,345.908 117.108,346.295 117.108,346.736C117.108,347.167 117.007,347.567 116.806,347.934C116.606,348.302 116.353,348.637 116.049,348.941C115.746,349.245 115.413,349.507 115.05,349.727C114.687,349.948 114.349,350.122 114.036,350.249C114.438,350.249 114.817,350.291 115.175,350.374C115.533,350.457 115.856,350.575 116.145,350.727C116.434,350.879 116.674,351.062 116.865,351.278C117.056,351.493 117.181,351.738 117.24,352.013C117.24,352.15 117.228,352.24 117.203,352.285C117.179,352.329 117.132,352.4 117.064,352.498C117.26,352.811 117.478,353.181 117.718,353.607C117.958,354.034 118.227,354.44 118.526,354.827C118.825,355.214 119.158,355.543 119.525,355.812C119.893,356.081 120.302,356.216 120.753,356.216C120.841,356.216 120.941,356.211 121.054,356.202C121.167,356.192 121.274,356.172 121.377,356.143C121.48,356.113 121.576,356.069 121.664,356.01C121.752,355.952 121.816,355.873 121.855,355.775C121.894,355.746 121.933,355.731 121.973,355.731C122.022,355.731 122.053,355.756 122.068,355.805C122.083,355.854 122.095,355.903 122.105,355.952C121.909,356.393 121.424,356.613 120.65,356.613C120.258,356.613 119.883,356.549 119.525,356.422C119.168,356.295 118.825,356.126 118.497,355.915C118.168,355.704 117.855,355.462 117.556,355.187C117.257,354.913 116.975,354.629 116.711,354.335C116.515,354.119 116.287,353.85 116.027,353.527C115.768,353.203 115.491,352.872 115.197,352.534C114.903,352.196 114.597,351.878 114.278,351.579C113.96,351.28 113.644,351.048 113.33,350.881C113.183,350.812 113.017,350.761 112.831,350.727C112.644,350.692 112.466,350.668 112.294,350.653C112.123,350.638 111.963,350.631 111.817,350.631L111.478,350.631C111.42,350.631 111.371,350.634 111.332,350.638C111.292,350.643 111.263,350.646 111.243,350.646L111.243,351.88ZM111.493,345.693C111.444,345.879 111.405,346.139 111.376,346.472C111.346,346.805 111.322,347.17 111.302,347.567C111.283,347.963 111.268,348.375 111.258,348.801C111.248,349.227 111.243,349.632 111.243,350.014C111.341,350.092 111.53,350.136 111.809,350.146C112.088,350.156 112.39,350.161 112.713,350.161C112.997,350.161 113.235,350.136 113.426,350.087C113.617,350.038 113.796,349.95 113.962,349.823C114.06,349.754 114.171,349.641 114.293,349.485C114.416,349.328 114.533,349.142 114.646,348.926C114.759,348.711 114.854,348.468 114.932,348.199C115.011,347.929 115.05,347.643 115.05,347.339C115.05,346.898 115.001,346.503 114.903,346.156C114.805,345.808 114.673,345.509 114.506,345.259C114.34,345.009 114.144,344.818 113.918,344.686C113.693,344.554 113.453,344.487 113.198,344.487C113.061,344.487 112.907,344.514 112.735,344.568C112.564,344.622 112.395,344.693 112.228,344.781C112.061,344.87 111.915,344.97 111.787,345.083C111.66,345.195 111.576,345.315 111.537,345.443L111.493,345.693Z" style="fill-rule:nonzero;"/>
            <path d="M125.823,353.38C125.716,353.497 125.549,353.659 125.324,353.865C125.098,354.07 124.826,354.276 124.508,354.482C124.19,354.688 123.834,354.864 123.442,355.011C123.05,355.158 122.634,355.231 122.193,355.231C121.791,355.231 121.399,355.17 121.017,355.048C120.635,354.925 120.292,354.739 119.988,354.489C119.685,354.239 119.442,353.921 119.261,353.534C119.08,353.147 118.989,352.684 118.989,352.145C118.989,351.704 119.018,351.324 119.077,351.006C119.136,350.687 119.214,350.408 119.312,350.168C119.41,349.928 119.521,349.722 119.643,349.551C119.766,349.379 119.89,349.225 120.018,349.088C120.175,348.911 120.366,348.745 120.591,348.588C120.816,348.431 121.059,348.289 121.319,348.162C121.578,348.035 121.853,347.934 122.142,347.861C122.431,347.787 122.722,347.75 123.016,347.75C123.545,347.75 123.959,347.839 124.258,348.015C124.557,348.191 124.706,348.436 124.706,348.75C124.706,348.946 124.648,349.127 124.53,349.294C124.628,349.264 124.753,349.215 124.905,349.147C125.057,349.078 125.211,349.007 125.368,348.934C125.525,348.86 125.664,348.794 125.787,348.735C125.909,348.676 125.99,348.632 126.029,348.603C126.049,348.583 126.071,348.576 126.095,348.581C126.12,348.586 126.132,348.603 126.132,348.632C126.132,348.76 126.108,348.865 126.059,348.948C126.01,349.031 125.951,349.098 125.882,349.147C125.725,349.245 125.5,349.367 125.206,349.514C124.912,349.661 124.586,349.815 124.229,349.977C123.871,350.139 123.501,350.3 123.119,350.462C122.737,350.624 122.377,350.778 122.039,350.925C121.701,351.072 121.407,351.202 121.157,351.315C120.907,351.427 120.738,351.508 120.65,351.557C120.65,351.89 120.716,352.201 120.848,352.49C120.981,352.779 121.164,353.032 121.399,353.247C121.635,353.463 121.916,353.632 122.245,353.754C122.573,353.877 122.933,353.938 123.325,353.938C123.678,353.938 123.996,353.901 124.28,353.828C124.564,353.754 124.804,353.671 125,353.578C125.196,353.485 125.351,353.402 125.463,353.328C125.576,353.255 125.637,353.218 125.647,353.218C125.686,353.218 125.725,353.235 125.765,353.269C125.804,353.304 125.823,353.34 125.823,353.38ZM120.65,351.131C120.816,351.072 121.005,351.001 121.216,350.918C121.426,350.834 121.632,350.744 121.833,350.646C122.034,350.548 122.218,350.455 122.384,350.367C122.551,350.278 122.678,350.2 122.766,350.131C122.943,350.004 123.031,349.788 123.031,349.485C123.031,349.367 123.009,349.245 122.965,349.117C122.921,348.99 122.854,348.875 122.766,348.772C122.678,348.669 122.57,348.586 122.443,348.522C122.316,348.458 122.173,348.426 122.017,348.426C121.88,348.426 121.733,348.473 121.576,348.566C121.419,348.659 121.272,348.811 121.135,349.022C120.998,349.232 120.883,349.512 120.789,349.859C120.696,350.207 120.65,350.631 120.65,351.131Z" style="fill-rule:nonzero;"/>
            <path d="M131.894,348.426C131.874,348.485 131.818,348.576 131.725,348.698C131.631,348.821 131.521,348.948 131.394,349.08C131.266,349.213 131.132,349.34 130.99,349.463C130.848,349.585 130.723,349.676 130.615,349.735C130.546,349.764 130.505,349.754 130.49,349.705C130.475,349.656 130.468,349.607 130.468,349.558C130.468,349.48 130.426,349.382 130.343,349.264C130.26,349.147 130.142,349.031 129.99,348.919C129.838,348.806 129.659,348.711 129.454,348.632C129.248,348.554 129.023,348.515 128.778,348.515C128.356,348.515 128.013,348.742 127.749,349.198C127.484,349.654 127.352,350.259 127.352,351.013C127.352,351.474 127.423,351.888 127.565,352.255C127.707,352.623 127.903,352.931 128.153,353.181C128.403,353.431 128.704,353.622 129.057,353.754C129.41,353.887 129.792,353.953 130.203,353.953C130.762,353.953 131.208,353.882 131.541,353.74C131.874,353.598 132.148,353.433 132.364,353.247C132.374,353.247 132.381,353.242 132.386,353.233C132.391,353.223 132.398,353.218 132.408,353.218C132.457,353.218 132.491,353.235 132.511,353.269C132.53,353.304 132.54,353.345 132.54,353.394C132.54,353.433 132.53,353.463 132.511,353.482C132.364,353.6 132.161,353.757 131.901,353.953C131.641,354.149 131.345,354.342 131.012,354.533C130.679,354.724 130.331,354.889 129.968,355.026C129.606,355.163 129.248,355.231 128.895,355.231C127.886,355.231 127.1,354.938 126.536,354.35C125.973,353.762 125.691,352.958 125.691,351.939C125.691,351.165 125.841,350.514 126.139,349.984C126.438,349.455 126.806,349.031 127.242,348.713C127.678,348.395 128.141,348.167 128.631,348.03C129.121,347.892 129.552,347.824 129.924,347.824C130.228,347.824 130.5,347.846 130.74,347.89C130.98,347.934 131.186,347.988 131.357,348.052C131.529,348.115 131.661,348.181 131.754,348.25C131.847,348.319 131.894,348.377 131.894,348.426Z" style="fill-rule:nonzero;"/>
            <path d="M139.095,353.38C138.988,353.497 138.821,353.659 138.596,353.865C138.37,354.07 138.098,354.276 137.78,354.482C137.461,354.688 137.106,354.864 136.714,355.011C136.322,355.158 135.906,355.231 135.465,355.231C135.063,355.231 134.671,355.17 134.289,355.048C133.907,354.925 133.564,354.739 133.26,354.489C132.957,354.239 132.714,353.921 132.533,353.534C132.352,353.147 132.261,352.684 132.261,352.145C132.261,351.704 132.29,351.324 132.349,351.006C132.408,350.687 132.486,350.408 132.584,350.168C132.682,349.928 132.793,349.722 132.915,349.551C133.037,349.379 133.162,349.225 133.29,349.088C133.447,348.911 133.638,348.745 133.863,348.588C134.088,348.431 134.331,348.289 134.591,348.162C134.85,348.035 135.125,347.934 135.414,347.861C135.703,347.787 135.994,347.75 136.288,347.75C136.817,347.75 137.231,347.839 137.53,348.015C137.829,348.191 137.978,348.436 137.978,348.75C137.978,348.946 137.92,349.127 137.802,349.294C137.9,349.264 138.025,349.215 138.177,349.147C138.329,349.078 138.483,349.007 138.64,348.934C138.797,348.86 138.936,348.794 139.059,348.735C139.181,348.676 139.262,348.632 139.301,348.603C139.321,348.583 139.343,348.576 139.367,348.581C139.392,348.586 139.404,348.603 139.404,348.632C139.404,348.76 139.38,348.865 139.331,348.948C139.282,349.031 139.223,349.098 139.154,349.147C138.997,349.245 138.772,349.367 138.478,349.514C138.184,349.661 137.858,349.815 137.501,349.977C137.143,350.139 136.773,350.3 136.391,350.462C136.009,350.624 135.649,350.778 135.311,350.925C134.973,351.072 134.679,351.202 134.429,351.315C134.179,351.427 134.01,351.508 133.922,351.557C133.922,351.89 133.988,352.201 134.12,352.49C134.253,352.779 134.436,353.032 134.671,353.247C134.907,353.463 135.188,353.632 135.517,353.754C135.845,353.877 136.205,353.938 136.597,353.938C136.95,353.938 137.268,353.901 137.552,353.828C137.836,353.754 138.076,353.671 138.272,353.578C138.468,353.485 138.623,353.402 138.735,353.328C138.848,353.255 138.909,353.218 138.919,353.218C138.958,353.218 138.997,353.235 139.037,353.269C139.076,353.304 139.095,353.34 139.095,353.38ZM133.922,351.131C134.088,351.072 134.277,351.001 134.488,350.918C134.698,350.834 134.904,350.744 135.105,350.646C135.306,350.548 135.49,350.455 135.656,350.367C135.823,350.278 135.95,350.2 136.038,350.131C136.215,350.004 136.303,349.788 136.303,349.485C136.303,349.367 136.281,349.245 136.237,349.117C136.193,348.99 136.126,348.875 136.038,348.772C135.95,348.669 135.842,348.586 135.715,348.522C135.588,348.458 135.445,348.426 135.289,348.426C135.152,348.426 135.005,348.473 134.848,348.566C134.691,348.659 134.544,348.811 134.407,349.022C134.27,349.232 134.155,349.512 134.061,349.859C133.968,350.207 133.922,350.631 133.922,351.131Z" style="fill-rule:nonzero;"/>
            <path d="M141.285,352.542C141.285,352.748 141.29,352.946 141.3,353.137C141.31,353.328 141.344,353.492 141.403,353.629C141.462,353.767 141.55,353.877 141.667,353.96C141.785,354.043 141.952,354.085 142.167,354.085C142.275,354.085 142.397,354.073 142.535,354.048C142.672,354.024 142.802,353.992 142.924,353.953C143.047,353.914 143.154,353.874 143.247,353.835C143.341,353.796 143.397,353.767 143.416,353.747C143.446,353.718 143.465,353.718 143.475,353.747C143.485,353.776 143.488,353.813 143.483,353.857C143.478,353.901 143.465,353.945 143.446,353.99C143.426,354.034 143.402,354.065 143.372,354.085C143.274,354.134 143.103,354.222 142.858,354.35C142.613,354.477 142.324,354.609 141.991,354.746C141.677,354.884 141.371,354.999 141.072,355.092C140.773,355.185 140.526,355.231 140.33,355.231C140.105,355.231 139.928,355.163 139.801,355.026C139.673,354.889 139.61,354.717 139.61,354.511C139.61,354.443 139.612,354.384 139.617,354.335C139.622,354.286 139.629,354.222 139.639,354.144C139.649,354.046 139.666,353.867 139.691,353.607C139.715,353.348 139.74,353.056 139.764,352.733C139.789,352.41 139.811,352.084 139.83,351.755C139.85,351.427 139.86,351.146 139.86,350.91L139.86,350.396C139.86,350.141 139.845,349.916 139.816,349.72C139.786,349.524 139.737,349.372 139.669,349.264C139.62,349.196 139.558,349.139 139.485,349.095C139.411,349.051 139.321,349.029 139.213,349.029C139.154,349.029 139.095,349.041 139.037,349.066C138.978,349.09 138.934,349.103 138.904,349.103C138.885,349.103 138.853,349.073 138.809,349.014C138.765,348.956 138.767,348.911 138.816,348.882C138.885,348.833 139.027,348.755 139.242,348.647C139.458,348.539 139.693,348.422 139.948,348.294C140.222,348.157 140.487,348.037 140.742,347.934C140.996,347.831 141.178,347.78 141.285,347.78C141.393,347.78 141.467,347.812 141.506,347.875C141.545,347.939 141.565,348.01 141.565,348.088L141.565,348.147C141.565,348.245 141.55,348.402 141.52,348.618C141.491,348.833 141.459,349.098 141.425,349.411C141.391,349.725 141.359,350.087 141.329,350.499C141.3,350.91 141.285,351.356 141.285,351.836L141.285,352.542ZM140.697,344.899C140.746,344.909 140.827,344.963 140.94,345.061C141.053,345.159 141.168,345.271 141.285,345.399C141.403,345.526 141.506,345.649 141.594,345.766C141.682,345.884 141.726,345.962 141.726,346.001C141.726,346.05 141.667,346.124 141.55,346.222C141.432,346.32 141.298,346.42 141.146,346.523C140.994,346.626 140.847,346.717 140.705,346.795C140.563,346.873 140.462,346.913 140.403,346.913C140.374,346.913 140.303,346.866 140.19,346.773C140.078,346.68 139.963,346.575 139.845,346.457C139.727,346.339 139.622,346.224 139.529,346.112C139.436,345.999 139.389,345.923 139.389,345.884C139.389,345.835 139.453,345.759 139.58,345.656C139.708,345.553 139.847,345.445 139.999,345.333C140.151,345.22 140.298,345.122 140.44,345.039C140.582,344.955 140.668,344.909 140.697,344.899Z" style="fill-rule:nonzero;"/>
            <path d="M146.738,353.468C146.777,353.409 146.853,353.289 146.966,353.108C147.079,352.926 147.206,352.703 147.348,352.439C147.49,352.174 147.637,351.888 147.789,351.579C147.941,351.27 148.081,350.959 148.208,350.646C148.335,350.332 148.441,350.036 148.524,349.757C148.607,349.477 148.649,349.235 148.649,349.029C148.649,348.872 148.629,348.747 148.59,348.654C148.551,348.561 148.495,348.49 148.421,348.441C148.348,348.392 148.262,348.358 148.164,348.338C148.066,348.319 147.963,348.309 147.855,348.309C147.796,348.309 147.738,348.314 147.679,348.324C147.62,348.333 147.561,348.348 147.502,348.368C147.444,348.387 147.397,348.38 147.363,348.346C147.329,348.311 147.311,348.284 147.311,348.265C147.311,348.226 147.378,348.177 147.51,348.118C147.642,348.059 147.823,348.005 148.054,347.956C148.284,347.907 148.548,347.865 148.847,347.831C149.146,347.797 149.457,347.78 149.781,347.78C150.241,347.78 150.471,347.932 150.471,348.235C150.471,348.373 150.381,348.608 150.199,348.941C150.018,349.274 149.788,349.663 149.509,350.109C149.229,350.555 148.921,351.028 148.583,351.528C148.245,352.027 147.914,352.51 147.591,352.975C147.267,353.441 146.971,353.869 146.701,354.261C146.432,354.653 146.229,354.957 146.091,355.173C146.062,355.212 145.954,355.231 145.768,355.231C145.69,355.231 145.638,355.219 145.614,355.195C145.589,355.17 145.567,355.129 145.548,355.07C145.459,354.795 145.359,354.492 145.246,354.159C145.134,353.825 145.014,353.487 144.886,353.144C144.759,352.801 144.629,352.461 144.497,352.123C144.364,351.785 144.235,351.469 144.107,351.175C143.764,350.352 143.473,349.776 143.233,349.448C142.993,349.12 142.77,348.956 142.564,348.956C142.505,348.956 142.449,348.965 142.395,348.985C142.341,349.005 142.29,349.024 142.241,349.044C142.221,349.044 142.194,349.022 142.16,348.978C142.126,348.934 142.118,348.902 142.138,348.882C142.148,348.872 142.241,348.809 142.417,348.691C142.593,348.573 142.799,348.444 143.034,348.302C143.27,348.159 143.507,348.03 143.747,347.912C143.987,347.794 144.181,347.736 144.328,347.736C144.553,347.736 144.759,347.944 144.945,348.36C145.131,348.777 145.352,349.352 145.606,350.087L146.738,353.468Z" style="fill-rule:nonzero;"/>
            <path d="M157.453,353.38C157.345,353.497 157.178,353.659 156.953,353.865C156.728,354.07 156.456,354.276 156.137,354.482C155.819,354.688 155.464,354.864 155.072,355.011C154.68,355.158 154.263,355.231 153.822,355.231C153.421,355.231 153.029,355.17 152.647,355.048C152.264,354.925 151.922,354.739 151.618,354.489C151.314,354.239 151.072,353.921 150.89,353.534C150.709,353.147 150.618,352.684 150.618,352.145C150.618,351.704 150.648,351.324 150.707,351.006C150.765,350.687 150.844,350.408 150.942,350.168C151.04,349.928 151.15,349.722 151.272,349.551C151.395,349.379 151.52,349.225 151.647,349.088C151.804,348.911 151.995,348.745 152.22,348.588C152.446,348.431 152.688,348.289 152.948,348.162C153.208,348.035 153.482,347.934 153.771,347.861C154.06,347.787 154.352,347.75 154.646,347.75C155.175,347.75 155.589,347.839 155.887,348.015C156.186,348.191 156.336,348.436 156.336,348.75C156.336,348.946 156.277,349.127 156.159,349.294C156.257,349.264 156.382,349.215 156.534,349.147C156.686,349.078 156.84,349.007 156.997,348.934C157.154,348.86 157.294,348.794 157.416,348.735C157.539,348.676 157.619,348.632 157.659,348.603C157.678,348.583 157.7,348.576 157.725,348.581C157.749,348.586 157.761,348.603 157.761,348.632C157.761,348.76 157.737,348.865 157.688,348.948C157.639,349.031 157.58,349.098 157.512,349.147C157.355,349.245 157.129,349.367 156.835,349.514C156.542,349.661 156.216,349.815 155.858,349.977C155.5,350.139 155.131,350.3 154.748,350.462C154.366,350.624 154.006,350.778 153.668,350.925C153.33,351.072 153.036,351.202 152.786,351.315C152.536,351.427 152.367,351.508 152.279,351.557C152.279,351.89 152.345,352.201 152.478,352.49C152.61,352.779 152.794,353.032 153.029,353.247C153.264,353.463 153.546,353.632 153.874,353.754C154.202,353.877 154.562,353.938 154.954,353.938C155.307,353.938 155.625,353.901 155.91,353.828C156.194,353.754 156.434,353.671 156.63,353.578C156.826,353.485 156.98,353.402 157.093,353.328C157.205,353.255 157.267,353.218 157.276,353.218C157.316,353.218 157.355,353.235 157.394,353.269C157.433,353.304 157.453,353.34 157.453,353.38ZM152.279,351.131C152.446,351.072 152.634,351.001 152.845,350.918C153.056,350.834 153.261,350.744 153.462,350.646C153.663,350.548 153.847,350.455 154.014,350.367C154.18,350.278 154.307,350.2 154.396,350.131C154.572,350.004 154.66,349.788 154.66,349.485C154.66,349.367 154.638,349.245 154.594,349.117C154.55,348.99 154.484,348.875 154.396,348.772C154.307,348.669 154.2,348.586 154.072,348.522C153.945,348.458 153.803,348.426 153.646,348.426C153.509,348.426 153.362,348.473 153.205,348.566C153.048,348.659 152.901,348.811 152.764,349.022C152.627,349.232 152.512,349.512 152.419,349.859C152.326,350.207 152.279,350.631 152.279,351.131Z" style="fill-rule:nonzero;"/>
            <path d="M164.272,348.853C164.165,348.941 164.037,349.051 163.89,349.183C163.743,349.316 163.589,349.443 163.427,349.566C163.266,349.688 163.102,349.793 162.935,349.882C162.768,349.97 162.607,350.014 162.45,350.014C162.313,350.014 162.19,349.982 162.083,349.918C161.975,349.855 161.874,349.786 161.781,349.712C161.688,349.639 161.598,349.57 161.509,349.507C161.421,349.443 161.328,349.411 161.23,349.411C160.966,349.411 160.743,349.519 160.561,349.735C160.38,349.95 160.233,350.224 160.12,350.558C160.008,350.891 159.924,351.253 159.871,351.645C159.817,352.037 159.79,352.414 159.79,352.777C159.79,353.081 159.802,353.328 159.826,353.519C159.851,353.71 159.888,353.862 159.937,353.975C159.986,354.087 160.052,354.163 160.135,354.203C160.218,354.242 160.319,354.261 160.436,354.261C160.564,354.261 160.701,354.242 160.848,354.203C160.877,354.193 160.899,354.212 160.914,354.261C160.929,354.31 160.936,354.35 160.936,354.379C160.936,354.399 160.921,354.421 160.892,354.445C160.863,354.47 160.843,354.482 160.833,354.482C160.618,354.57 160.397,354.666 160.172,354.768C159.946,354.871 159.76,354.957 159.613,355.026C159.476,355.084 159.312,355.148 159.121,355.217C158.93,355.285 158.766,355.32 158.629,355.32C158.472,355.32 158.342,355.295 158.239,355.246C158.136,355.197 158.085,355.148 158.085,355.099C158.085,355.05 158.097,355.006 158.122,354.967C158.146,354.928 158.168,354.854 158.188,354.746C158.207,354.599 158.229,354.426 158.254,354.225C158.278,354.024 158.303,353.806 158.327,353.571C158.352,353.335 158.371,353.093 158.386,352.843C158.401,352.593 158.408,352.346 158.408,352.101C158.408,351.552 158.391,351.087 158.357,350.705C158.322,350.322 158.261,350.014 158.173,349.779C158.085,349.543 157.965,349.374 157.813,349.272C157.661,349.169 157.467,349.117 157.232,349.117L157.1,349.117C157.061,349.117 157.022,349.122 156.982,349.132C156.924,349.132 156.894,349.103 156.894,349.044C156.894,348.985 156.924,348.941 156.982,348.911C157.09,348.843 157.257,348.742 157.482,348.61C157.708,348.478 157.94,348.351 158.18,348.228C158.42,348.106 158.653,347.995 158.878,347.897C159.104,347.799 159.27,347.75 159.378,347.75C159.506,347.75 159.613,347.792 159.702,347.875C159.79,347.959 159.856,348.064 159.9,348.191C159.944,348.319 159.976,348.463 159.995,348.625C160.015,348.787 160.025,348.946 160.025,349.103C160.025,349.22 160.022,349.343 160.018,349.47C160.013,349.597 160.01,349.735 160.01,349.882C160.451,349.235 160.848,348.733 161.201,348.375C161.553,348.017 161.887,347.839 162.2,347.839C162.318,347.839 162.433,347.888 162.546,347.986C162.658,348.083 162.778,348.194 162.906,348.316C163.033,348.439 163.165,348.549 163.302,348.647C163.44,348.745 163.582,348.794 163.729,348.794C163.856,348.794 163.949,348.779 164.008,348.75C164.067,348.72 164.116,348.696 164.155,348.676C164.233,348.676 164.272,348.73 164.272,348.838L164.272,348.853Z" style="fill-rule:nonzero;"/>
        </g>
        <g transform="matrix(1,0,0,1,-54.3899,-48.5287)">
            <text x="58.052px" y="355.099px" style="font-family:'Luminari-Regular', 'Luminari';font-size:14.698px;">V<tspan x="69.002px 78.497px " y="355.099px 355.099px ">CM</tspan>C Re<tspan x="125.265px 131.835px 138.537px 142.549px " y="355.099px 355.099px 355.099px 355.099px ">ceiv</tspan>er</text>
        </g>
        <g transform="matrix(0.0219124,0,0,0.0248558,-20.9343,286.15)">
            <g transform="matrix(1,0,0,1,-143.343,98.6554)">
                <ellipse cx="360.896" cy="293.762" rx="136.961" ry="230.443" style="fill:rgb(102,126,153);stroke:black;stroke-width:63.81px;"/>
            </g>
            <g transform="matrix(1,0,0,1,445.551,98.6554)">
                <ellipse cx="360.896" cy="293.762" rx="136.961" ry="230.443" style="fill:rgb(102,126,153);stroke:black;stroke-width:63.81px;"/>
            </g>
            <g transform="matrix(1,0,0,1,-34.3236,-20.6488)">
                <ellipse cx="546.324" cy="643.509" rx="431.408" ry="296.899" style="fill:rgb(102,126,153);stroke:black;stroke-width:63.81px;"/>
            </g>
            <circle cx="406.664" cy="569.758" r="105.336" style="fill:rgb(102,126,153);stroke:black;stroke-width:63.81px;"/>
            <g transform="matrix(1,0,0,1,210.672,0)">
                <circle cx="406.664" cy="569.758" r="105.336" style="fill:rgb(102,126,153);stroke:black;stroke-width:63.81px;"/>
            </g>
            <g transform="matrix(1,0,0,1,-53.1856,50.0357)">
                <ellipse cx="565.186" cy="671.455" rx="210.672" ry="98.631" style="fill:rgb(102,126,153);stroke:black;stroke-width:63.81px;"/>
            </g>
            <g transform="matrix(51.2,0,0,45.1371,0.670978,88.9676)">
                <path d="M12.057,13.791C12.057,13.668 11.958,13.568 11.835,13.568L8.139,13.568C8.016,13.568 7.916,13.668 7.916,13.791L7.916,14.236C7.916,14.359 8.016,14.458 8.139,14.458L11.835,14.458C11.958,14.458 12.057,14.359 12.057,14.236L12.057,13.791Z"/>
            </g>
        </g>
    </g>
</svg>
