<?xml version="1.0" encoding="UTF-8" standalone="no"?>
<!DOCTYPE svg PUBLIC "-//W3C//DTD SVG 1.1//EN" "http://www.w3.org/Graphics/SVG/1.1/DTD/svg11.dtd">
<svg width="100%" height="100%" viewBox="0 0 210 380" version="1.1" xmlns="http://www.w3.org/2000/svg" xmlns:xlink="http://www.w3.org/1999/xlink" xml:space="preserve" xmlns:serif="http://www.serif.com/" style="fill-rule:evenodd;clip-rule:evenodd;stroke-linejoin:round;stroke-miterlimit:2;">
    <g transform="matrix(1.25789,0,0,1.48634,-33.9428,-44.3619)">
        <rect x="26.984" y="29.846" width="166.946" height="255.662" style="fill:rgb(242,242,242);"/>
    </g>
    <g id="Label" transform="matrix(1,0,0,1,0.765707,11.8096)">
        <g transform="matrix(0.785098,0,0,0.785098,60.0296,74.6745)">
            <path d="M153.783,349.311C153.481,349.184 153.13,349.104 152.796,349.104C152.589,349.104 152.382,349.104 152.175,349.152C151.873,349.215 151.602,349.311 151.316,349.438C150.727,349.709 150.233,350.123 149.804,350.584C149.597,350.807 149.406,351.046 149.247,351.301C149.135,351.476 149.024,351.651 148.944,351.842C148.801,352.176 148.705,352.542 148.705,352.924L148.705,353.067C148.737,353.386 148.865,353.704 149.024,353.975C149.31,354.452 149.772,354.818 150.218,355.137C150.647,355.439 151.125,355.678 151.507,356.028C151.984,356.442 152.382,356.951 152.605,357.54C152.685,357.763 152.717,358.002 152.717,358.24C152.701,358.32 152.685,358.4 152.653,358.479C152.621,358.543 152.589,358.607 152.541,358.67L152.239,359.052L151.921,359.339C151.825,359.402 151.73,359.466 151.634,359.514C151.555,359.562 151.475,359.609 151.395,359.641L151.157,359.721C151.045,359.737 150.95,359.753 150.854,359.753C150.711,359.753 150.568,359.721 150.44,359.689C150.09,359.578 149.756,359.402 149.469,359.164C149.183,358.893 148.96,358.575 148.833,358.209C148.737,357.906 148.689,357.588 148.689,357.27L148.689,357.126C148.689,356.951 148.514,356.872 148.387,356.856L148.292,356.856C148.116,356.856 147.925,356.919 147.782,356.999C147.543,357.11 147.337,357.27 147.177,357.461C147.05,357.62 146.97,357.763 146.97,357.954L146.97,358.113C146.97,358.798 147.161,359.466 147.591,359.991C147.83,360.294 148.132,360.548 148.467,360.739C148.833,360.946 149.263,361.106 149.676,361.122L149.867,361.122C150.313,361.122 150.759,361.042 151.157,360.883C151.316,360.819 151.475,360.755 151.618,360.676C151.793,360.596 151.953,360.501 152.112,360.421C152.35,360.278 152.573,360.103 152.796,359.928C153.178,359.625 153.512,359.291 153.799,358.909C154.07,358.543 154.356,358.129 154.42,357.667C154.436,357.54 154.436,357.429 154.436,357.301C154.436,357.206 154.436,357.11 154.42,357.031C154.388,356.824 154.308,356.617 154.229,356.41C154.101,356.06 153.879,355.726 153.64,355.423C153.385,355.105 153.067,354.802 152.732,354.548C152.494,354.373 152.239,354.229 151.984,354.07C151.714,353.911 151.443,353.72 151.204,353.513C150.902,353.242 150.647,352.924 150.504,352.558C150.44,352.367 150.424,352.176 150.424,351.985C150.456,351.842 150.488,351.699 150.536,351.571C150.6,351.444 150.663,351.317 150.743,351.189C150.838,351.062 150.95,350.934 151.061,350.807L151.348,350.568L151.411,350.537C151.459,350.521 151.491,350.505 151.523,350.505L151.746,350.473C151.905,350.489 152.048,350.505 152.207,350.552C152.589,350.68 152.939,350.887 153.242,351.157L153.512,351.412C153.608,351.508 153.735,351.555 153.863,351.555C154.117,351.555 154.42,351.396 154.611,351.269C154.802,351.141 154.993,350.966 155.104,350.759C155.152,350.696 155.2,350.568 155.2,350.457C155.2,350.393 155.184,350.346 155.136,350.298C154.77,349.9 154.308,349.534 153.783,349.311ZM145.665,349.311C145.363,349.184 145.013,349.104 144.678,349.104C144.471,349.104 144.265,349.104 144.058,349.152C143.755,349.215 143.485,349.311 143.198,349.438C142.609,349.709 142.116,350.123 141.686,350.584C141.479,350.807 141.288,351.046 141.129,351.301C141.017,351.476 140.906,351.651 140.826,351.842C140.683,352.176 140.588,352.542 140.588,352.924L140.588,353.067C140.619,353.386 140.747,353.704 140.906,353.975C141.192,354.452 141.654,354.818 142.1,355.137C142.53,355.439 143.007,355.678 143.389,356.028C143.867,356.442 144.265,356.951 144.487,357.54C144.567,357.763 144.599,358.002 144.599,358.24C144.583,358.32 144.567,358.4 144.535,358.479C144.503,358.543 144.471,358.607 144.424,358.67L144.121,359.052L143.803,359.339C143.707,359.402 143.612,359.466 143.516,359.514C143.437,359.562 143.357,359.609 143.278,359.641L143.039,359.721C142.927,359.737 142.832,359.753 142.736,359.753C142.593,359.753 142.45,359.721 142.323,359.689C141.972,359.578 141.638,359.402 141.352,359.164C141.065,358.893 140.842,358.575 140.715,358.209C140.619,357.906 140.572,357.588 140.572,357.27L140.572,357.126C140.572,356.951 140.397,356.872 140.269,356.856L140.174,356.856C139.999,356.856 139.808,356.919 139.664,356.999C139.426,357.11 139.219,357.27 139.06,357.461C138.932,357.62 138.853,357.763 138.853,357.954L138.853,358.113C138.853,358.798 139.044,359.466 139.473,359.991C139.712,360.294 140.015,360.548 140.349,360.739C140.715,360.946 141.145,361.106 141.559,361.122L141.75,361.122C142.195,361.122 142.641,361.042 143.039,360.883C143.198,360.819 143.357,360.755 143.5,360.676C143.676,360.596 143.835,360.501 143.994,360.421C144.233,360.278 144.456,360.103 144.678,359.928C145.06,359.625 145.395,359.291 145.681,358.909C145.952,358.543 146.238,358.129 146.302,357.667C146.318,357.54 146.318,357.429 146.318,357.301C146.318,357.206 146.318,357.11 146.302,357.031C146.27,356.824 146.19,356.617 146.111,356.41C145.984,356.06 145.761,355.726 145.522,355.423C145.267,355.105 144.949,354.802 144.615,354.548C144.376,354.373 144.121,354.229 143.867,354.07C143.596,353.911 143.325,353.72 143.087,353.513C142.784,353.242 142.53,352.924 142.386,352.558C142.323,352.367 142.307,352.176 142.307,351.985C142.339,351.842 142.37,351.699 142.418,351.571C142.482,351.444 142.545,351.317 142.625,351.189C142.721,351.062 142.832,350.934 142.943,350.807L143.23,350.568L143.294,350.537C143.341,350.521 143.373,350.505 143.405,350.505L143.628,350.473C143.787,350.489 143.93,350.505 144.089,350.552C144.471,350.68 144.822,350.887 145.124,351.157L145.395,351.412C145.49,351.508 145.617,351.555 145.745,351.555C145.999,351.555 146.302,351.396 146.493,351.269C146.684,351.141 146.875,350.966 146.986,350.759C147.034,350.696 147.082,350.568 147.082,350.457C147.082,350.393 147.066,350.346 147.018,350.298C146.652,349.9 146.19,349.534 145.665,349.311ZM164.05,350.775C164.336,350.775 164.607,350.775 164.893,350.759C165.036,350.759 165.18,350.759 165.323,350.743C165.45,350.712 165.498,350.616 165.562,350.521C165.657,350.33 165.721,350.123 165.769,349.932C165.816,349.725 165.848,349.502 165.848,349.295C165.848,349.263 165.832,348.977 165.737,348.993C165.53,349.024 165.323,349.024 165.116,349.024C164.718,349.04 164.32,349.04 163.922,349.04C162.84,349.04 161.758,349.024 160.675,349.009L157.603,349.009C157.173,348.961 156.76,348.945 156.346,348.945C156.218,348.961 156.155,349.072 156.107,349.168C156.011,349.359 155.948,349.566 155.9,349.757C155.852,349.964 155.82,350.186 155.82,350.393C155.82,350.441 155.836,350.696 155.932,350.696L156.457,350.696C156.887,350.696 157.301,350.712 157.715,350.712C158.447,350.712 159.179,350.728 159.911,350.743C159.895,350.839 159.879,350.934 159.879,351.03C159.832,351.412 159.8,351.778 159.768,352.144C159.688,353.195 159.625,354.261 159.577,355.312C159.529,356.378 159.481,357.461 159.45,358.527C159.434,358.925 159.434,359.323 159.434,359.721C159.434,359.96 159.434,360.182 159.45,360.405L159.481,360.548L159.545,360.58L159.625,360.58C159.688,360.58 159.768,360.564 159.832,360.548C160.038,360.469 160.261,360.357 160.452,360.214C160.643,360.087 160.834,359.944 160.978,359.769L161.073,359.625C161.105,359.593 161.121,359.562 161.121,359.514C161.121,359.482 161.121,359.466 161.105,359.434C161.089,359.243 161.089,359.052 161.089,358.845C161.089,358.463 161.105,358.065 161.105,357.683C161.105,356.617 161.184,355.55 161.232,354.484C161.28,353.418 161.344,352.367 161.423,351.301L161.471,350.759C162.331,350.775 163.19,350.775 164.05,350.775ZM175.876,348.913C175.653,349.04 175.446,349.184 175.271,349.359L174.873,349.741C174.682,349.948 174.539,350.202 174.412,350.441C174.221,350.775 174.046,351.11 173.871,351.46C173.393,352.415 172.963,353.386 172.533,354.357C172.136,355.248 171.754,356.139 171.372,357.031C171.324,356.728 171.26,356.442 171.196,356.139C170.942,354.898 170.623,353.656 170.257,352.431C170.082,351.858 169.891,351.285 169.684,350.728C169.525,350.282 169.35,349.82 169.127,349.391L169.095,349.311C168.968,349.056 168.793,348.77 168.554,348.579C168.538,348.563 168.506,348.547 168.475,348.547C168.443,348.547 168.427,348.531 168.411,348.531C168.395,348.531 168.379,348.547 168.363,348.547C168.315,348.547 168.252,348.563 168.188,348.579C167.981,348.658 167.758,348.77 167.567,348.913C167.376,349.04 167.185,349.184 167.042,349.359L166.947,349.502C166.915,349.534 166.899,349.566 166.899,349.613C166.899,349.645 166.899,349.661 166.915,349.693C166.931,349.916 166.931,350.17 166.931,350.393L166.883,351.667C166.835,352.797 166.724,353.927 166.628,355.057C166.533,356.187 166.437,357.301 166.31,358.416L166.31,358.479C166.246,359.068 166.182,359.657 166.071,360.246C166.071,360.342 166.135,360.357 166.198,360.357L166.278,360.357C166.469,360.326 166.66,360.23 166.835,360.135C167.058,360.007 167.265,359.864 167.44,359.689C167.551,359.593 167.695,359.45 167.726,359.291L167.854,358.511L167.997,357.206C168.124,356.124 168.204,355.009 168.299,353.927C168.299,353.879 168.315,353.847 168.315,353.8L168.395,352.813C168.65,353.609 168.888,354.42 169.095,355.232C169.398,356.394 169.652,357.556 169.843,358.75C169.843,358.782 169.859,358.829 169.859,358.861C169.907,359.243 169.955,359.625 169.971,360.023C169.971,360.119 170.034,360.135 170.114,360.135L170.178,360.135C170.225,360.166 170.273,360.166 170.305,360.166C170.337,360.166 170.369,360.166 170.401,360.151C170.592,360.119 170.783,360.023 170.958,359.928C171.18,359.8 171.387,359.657 171.563,359.482C171.674,359.387 171.817,359.243 171.849,359.084C171.897,358.909 171.96,358.75 172.024,358.575C172.151,358.24 172.279,357.906 172.422,357.588L172.677,356.935C173.091,355.932 173.52,354.946 173.95,353.959C174.221,353.37 174.475,352.781 174.746,352.208C174.73,352.399 174.714,352.59 174.714,352.781C174.635,354.022 174.603,355.28 174.571,356.537C174.539,357.492 174.523,358.463 174.507,359.434L174.507,360.119C174.507,360.214 174.571,360.246 174.65,360.246C174.841,360.246 175.192,360.055 175.271,360.007C175.494,359.88 175.701,359.737 175.876,359.562L176.019,359.418C176.083,359.339 176.131,359.259 176.163,359.164C176.163,358.686 176.179,358.193 176.179,357.699C176.194,356.569 176.226,355.455 176.258,354.325C176.306,353.099 176.354,351.874 176.449,350.648C176.497,350.027 176.545,349.422 176.64,348.802C176.64,348.706 176.592,348.674 176.529,348.674C176.37,348.674 176.099,348.818 175.956,348.881C175.924,348.881 175.876,348.913 175.876,348.913ZM135.443,342.389C134.816,341.687 133.989,341.126 133.037,340.725C132.16,340.365 131.158,340.204 130.181,340.204C129.98,340.204 129.755,340.204 129.555,340.224C128.026,340.325 126.598,340.866 125.32,341.527C124.042,342.208 122.965,343.07 122.088,344.072C121.386,344.854 120.885,345.715 120.484,346.617C120.158,347.299 119.958,348.02 119.833,348.761C119.757,349.283 119.707,349.824 119.707,350.365C119.707,350.605 119.707,350.866 119.732,351.106C119.783,352.048 119.933,352.99 120.309,353.892C120.66,354.713 121.211,355.515 122.063,356.056C122.539,356.357 123.065,356.577 123.641,356.717C124.092,356.818 124.568,356.858 125.044,356.858C125.27,356.858 125.52,356.858 125.746,356.838C126.673,356.798 127.6,356.597 128.477,356.357C129.73,355.996 130.958,355.535 132.11,355.014C132.787,354.713 133.463,354.393 134.115,354.052C134.415,353.912 134.716,353.711 134.942,353.491C134.992,353.431 135.167,353.27 135.167,353.15C135.167,353.13 135.167,353.09 135.142,353.07C135.117,353.03 135.042,353.01 134.967,353.01C134.841,353.01 134.666,353.05 134.591,353.07C134.24,353.17 133.939,353.331 133.614,353.491C133.564,353.511 133.513,353.531 133.463,353.571L133.138,353.711C132.887,353.852 132.636,353.952 132.361,354.072C132.236,354.132 132.135,354.192 132.01,354.232C131.935,354.252 131.885,354.293 131.835,354.313L130.532,354.794C130.507,354.794 130.482,354.814 130.457,354.814L130.131,354.914C129.78,355.014 129.429,355.114 129.053,355.174C128.502,355.295 127.926,355.355 127.35,355.375C126.573,355.355 125.771,355.234 125.069,354.914C124.167,354.473 123.516,353.751 123.115,352.97C122.789,352.369 122.589,351.727 122.464,351.086C122.363,350.505 122.313,349.904 122.313,349.303C122.313,349.042 122.313,348.782 122.338,348.521C122.413,347.379 122.689,346.256 123.215,345.174L123.29,344.974C123.641,344.333 124.067,343.711 124.568,343.15C124.769,342.93 124.969,342.729 125.195,342.549C125.22,342.509 125.27,342.469 125.32,342.449L125.721,342.148L125.846,342.088C125.871,342.088 125.896,342.068 125.946,342.048C125.971,342.048 126.122,341.988 126.197,341.948C126.372,341.948 126.573,341.848 126.723,341.828C127.149,341.747 127.575,341.707 128.001,341.687C129.028,341.707 130.006,341.928 130.908,342.349C132.486,343.09 133.739,344.453 134.04,345.936C134.09,346.156 134.115,346.377 134.115,346.617C134.115,347.018 134.04,347.439 133.964,347.84C133.839,348.541 133.614,349.242 133.263,349.904C133.138,350.164 132.962,350.425 132.787,350.665L132.661,350.465C132.561,350.244 132.486,350.024 132.461,349.804C132.386,349.343 132.361,348.862 132.361,348.401C132.361,347.699 132.411,346.998 132.461,346.317C132.486,346.176 132.486,346.056 132.486,345.916C132.486,345.836 132.436,345.775 132.336,345.755C132.185,345.715 132.035,345.715 131.91,345.715L131.659,345.715C131.384,345.715 131.133,345.735 130.857,345.775C129.73,345.936 128.678,346.337 127.7,346.818C127.074,347.138 126.498,347.539 125.997,348C125.621,348.341 125.32,348.721 125.12,349.162C124.919,349.583 124.819,350.004 124.819,350.445C124.819,350.705 124.869,350.986 124.919,351.246C124.994,351.707 125.22,352.208 125.646,352.549C125.846,352.689 126.097,352.83 126.347,352.87C126.448,352.89 126.573,352.89 126.673,352.89C126.949,352.89 127.224,352.85 127.475,352.769C128.377,352.489 129.254,352.048 129.955,351.467C129.98,351.627 130.056,351.767 130.131,351.908C130.231,352.108 130.406,352.248 130.657,352.349C130.732,352.369 130.807,352.389 130.908,352.389C130.983,352.389 131.058,352.369 131.108,352.369C131.409,352.369 131.734,352.248 131.985,352.148C133.413,351.627 134.616,350.705 135.368,349.603C135.919,348.782 136.295,347.86 136.52,346.958C136.645,346.457 136.721,345.956 136.721,345.455C136.721,345.114 136.671,344.773 136.595,344.433C136.42,343.691 135.994,342.99 135.443,342.389ZM129.329,350.024C129.103,350.465 128.828,350.906 128.502,351.327L128.427,351.287C127.851,350.986 127.575,350.365 127.475,349.844C127.45,349.623 127.425,349.443 127.425,349.262C127.425,348.822 127.5,348.401 127.7,348C127.801,347.84 127.901,347.699 128.026,347.559L128.126,347.439C128.151,347.439 128.176,347.439 128.201,347.419L128.678,347.299C128.978,347.238 129.304,347.198 129.63,347.198C129.705,347.198 129.805,347.218 129.88,347.218L129.78,348.321C129.78,348.641 129.755,348.962 129.755,349.283C129.655,349.363 129.605,349.443 129.555,349.563L129.329,350.024ZM145.665,336.72C145.363,336.593 145.013,336.514 144.678,336.514C144.471,336.514 144.265,336.514 144.058,336.561C143.755,336.625 143.485,336.72 143.198,336.848C142.609,337.118 142.116,337.532 141.686,337.994C141.479,338.217 141.288,338.455 141.129,338.71C141.017,338.885 140.906,339.06 140.826,339.251C140.683,339.586 140.588,339.952 140.588,340.334L140.588,340.477C140.619,340.795 140.747,341.114 140.906,341.384C141.192,341.862 141.654,342.228 142.1,342.546C142.53,342.849 143.007,343.087 143.389,343.437C143.867,343.851 144.265,344.361 144.487,344.95C144.567,345.172 144.599,345.411 144.599,345.65C144.583,345.73 144.567,345.809 144.535,345.889C144.503,345.952 144.471,346.016 144.424,346.08L144.121,346.462L143.803,346.748C143.707,346.812 143.612,346.876 143.516,346.923C143.437,346.971 143.357,347.019 143.278,347.051L143.039,347.13C142.927,347.146 142.832,347.162 142.736,347.162C142.593,347.162 142.45,347.13 142.323,347.098C141.972,346.987 141.638,346.812 141.352,346.573C141.065,346.303 140.842,345.984 140.715,345.618C140.619,345.316 140.572,344.997 140.572,344.679L140.572,344.536C140.572,344.361 140.397,344.281 140.269,344.265L140.174,344.265C139.999,344.265 139.808,344.329 139.664,344.408C139.426,344.52 139.219,344.679 139.06,344.87C138.932,345.029 138.853,345.172 138.853,345.363L138.853,345.523C138.853,346.207 139.044,346.876 139.473,347.401C139.712,347.703 140.015,347.958 140.349,348.149C140.715,348.356 141.145,348.515 141.559,348.531L141.75,348.531C142.195,348.531 142.641,348.451 143.039,348.292C143.198,348.229 143.357,348.165 143.5,348.085C143.676,348.006 143.835,347.91 143.994,347.831C144.233,347.687 144.456,347.512 144.678,347.337C145.06,347.035 145.395,346.701 145.681,346.319C145.952,345.952 146.238,345.539 146.302,345.077C146.318,344.95 146.318,344.838 146.318,344.711C146.318,344.615 146.318,344.52 146.302,344.44C146.27,344.233 146.19,344.026 146.111,343.82C145.984,343.469 145.761,343.135 145.522,342.833C145.267,342.514 144.949,342.212 144.615,341.957C144.376,341.782 144.121,341.639 143.867,341.48C143.596,341.321 143.325,341.13 143.087,340.923C142.784,340.652 142.53,340.334 142.386,339.968C142.323,339.777 142.307,339.586 142.307,339.395C142.339,339.251 142.37,339.108 142.418,338.981C142.482,338.853 142.545,338.726 142.625,338.599C142.721,338.471 142.832,338.344 142.943,338.217L143.23,337.978L143.294,337.946C143.341,337.93 143.373,337.914 143.405,337.914L143.628,337.882C143.787,337.898 143.93,337.914 144.089,337.962C144.471,338.089 144.822,338.296 145.124,338.567L145.395,338.822C145.49,338.917 145.617,338.965 145.745,338.965C145.999,338.965 146.302,338.806 146.493,338.678C146.684,338.551 146.875,338.376 146.986,338.169C147.034,338.105 147.082,337.978 147.082,337.866C147.082,337.803 147.066,337.755 147.018,337.707C146.652,337.309 146.19,336.943 145.665,336.72ZM168.284,337.755C168.363,337.405 168.443,337.055 168.49,336.705C168.49,336.593 168.443,336.577 168.363,336.577C168.156,336.577 167.79,336.784 167.726,336.816C167.504,336.943 167.297,337.087 167.122,337.262C167.01,337.357 166.851,337.5 166.835,337.66C166.771,338.026 166.692,338.392 166.596,338.758C166.469,339.251 166.342,339.745 166.182,340.254C165.832,341.416 165.434,342.594 165.005,343.74C164.814,344.249 164.623,344.759 164.416,345.252L164.288,345.57L163.763,339.761C163.683,338.949 163.604,338.137 163.508,337.341C163.492,337.198 163.477,337.055 163.445,336.911C163.413,336.88 163.381,336.864 163.333,336.864C163.301,336.864 163.286,336.864 163.254,336.88C163.063,336.911 162.872,337.007 162.697,337.102C162.553,337.182 162.41,337.293 162.267,337.389L162.092,337.548C161.996,337.628 161.917,337.723 161.853,337.835C161.694,338.201 161.535,338.567 161.391,338.933C161.025,339.808 160.643,340.668 160.261,341.543C159.816,342.578 159.37,343.613 158.892,344.631C158.813,344.806 158.749,344.981 158.67,345.141C158.622,344.472 158.59,343.804 158.558,343.135L158.383,339.824C158.335,338.933 158.319,338.057 158.288,337.182C158.288,336.943 158.288,336.705 158.303,336.45C158.303,336.354 158.24,336.323 158.16,336.323C157.953,336.323 157.603,336.514 157.539,336.561C157.317,336.689 157.11,336.832 156.935,337.007C156.807,337.134 156.664,337.278 156.648,337.405C156.632,337.612 156.632,337.835 156.632,338.057L156.632,339.172C156.696,340.206 156.744,341.241 156.791,342.276L157.126,348.133C157.126,348.213 157.157,348.229 157.205,348.244L157.269,348.244C157.396,348.244 157.555,348.181 157.667,348.133C157.826,348.053 157.969,347.974 158.112,347.878C158.303,347.751 158.494,347.608 158.638,347.433C158.829,347.194 158.988,346.939 159.131,346.669C159.322,346.334 159.497,345.968 159.672,345.618C160.134,344.679 160.564,343.708 160.993,342.753C161.36,341.941 161.71,341.13 162.06,340.318L162.776,348.229C162.776,348.308 162.808,348.324 162.856,348.34L162.919,348.34C163.047,348.34 163.222,348.276 163.317,348.229C163.763,348.006 164.145,347.719 164.479,347.369C164.607,347.226 164.718,347.067 164.83,346.907C165.036,346.573 165.227,346.223 165.403,345.857C165.912,344.806 166.342,343.708 166.74,342.61C167.153,341.464 167.551,340.302 167.902,339.124L168.284,337.755ZM155.136,335.845C155.136,335.829 155.136,335.797 155.12,335.765C155.088,335.734 155.056,335.718 155.009,335.718C154.977,335.718 154.961,335.734 154.929,335.734C154.738,335.765 154.547,335.861 154.372,335.956C154.149,336.084 153.942,336.227 153.767,336.402L153.624,336.545C153.56,336.625 153.512,336.705 153.481,336.8C153.576,337.994 153.608,339.188 153.608,340.397L153.608,341.082C152.589,341.289 151.555,341.4 150.52,341.527C150.281,341.559 150.027,341.591 149.788,341.607C149.788,341.321 149.788,341.034 149.772,340.763L149.772,339.824C149.772,338.567 149.756,337.293 149.66,336.036C149.66,336.02 149.66,335.988 149.645,335.956C149.613,335.925 149.581,335.909 149.533,335.909C149.501,335.909 149.485,335.925 149.454,335.925C149.263,335.956 149.072,336.052 148.896,336.147C148.674,336.275 148.467,336.418 148.292,336.593L148.148,336.736C148.085,336.816 148.037,336.896 148.005,336.991C148.164,339.076 148.085,341.177 148.132,343.278C148.148,343.947 148.18,344.615 148.18,345.3L148.18,345.634C148.18,346.414 148.148,347.21 148.132,348.006C148.132,348.101 148.196,348.133 148.276,348.133C148.483,348.133 148.817,347.942 148.896,347.894C149.103,347.767 149.326,347.624 149.501,347.449L149.645,347.305C149.708,347.226 149.756,347.146 149.788,347.051C149.82,346.143 149.851,345.236 149.851,344.329L149.851,343.899C149.836,343.692 149.836,343.501 149.836,343.294L151.109,343.151C151.698,343.087 152.287,342.976 152.876,342.88L153.576,342.737L153.576,347.719C153.512,347.767 153.481,347.799 153.481,347.815C153.481,347.847 153.528,347.847 153.576,347.847C153.783,347.847 154.101,347.656 154.181,347.608C154.388,347.48 154.611,347.337 154.786,347.162L154.929,347.019C154.993,346.939 155.04,346.86 155.072,346.764C155.12,344.822 155.216,342.864 155.247,340.923C155.263,340.381 155.263,339.84 155.263,339.299C155.263,338.153 155.231,336.991 155.136,335.845ZM177.261,338.233C177.245,337.469 177.229,336.689 177.118,335.925C177.102,335.861 177.102,335.797 177.07,335.718C177.054,335.686 177.006,335.67 176.958,335.67C176.863,335.67 176.752,335.702 176.72,335.718C176.513,335.797 176.29,335.909 176.099,336.052C175.908,336.179 175.717,336.323 175.574,336.498C175.574,336.514 175.43,336.673 175.43,336.768C175.43,336.784 175.43,336.816 175.446,336.832L175.478,336.975C175.51,337.166 175.526,337.373 175.542,337.564C175.542,338.137 175.59,338.662 175.605,339.188C175.637,340.334 175.637,341.464 175.637,342.594L175.637,343.947L172.931,338.917C172.549,338.217 172.12,337.548 171.722,336.88C171.594,336.657 171.451,336.45 171.308,336.243C171.26,336.147 171.18,336.02 171.085,335.956L171.005,335.909C170.878,335.909 170.767,335.925 170.719,335.956C170.592,335.988 170.432,336.068 170.321,336.131C170.098,336.259 169.891,336.418 169.7,336.577C169.573,336.705 169.477,336.816 169.414,336.975L169.414,337.118C169.446,337.389 169.446,337.66 169.446,337.93C169.477,338.901 169.477,339.872 169.477,340.827L169.477,344.329C169.414,345.22 169.414,346.128 169.382,347.035C169.382,347.226 169.366,347.433 169.366,347.64C169.366,347.656 169.43,347.767 169.493,347.767C169.668,347.767 169.987,347.608 170.098,347.544C170.273,347.544 170.607,347.21 170.735,347.083L170.878,346.939C170.942,346.86 170.989,346.78 171.021,346.685C171.053,346.064 171.053,345.427 171.069,344.79L171.069,341.496C171.117,340.923 171.133,340.365 171.133,339.792L171.244,340.015C171.738,340.875 172.215,341.75 172.693,342.626L175.59,348.006C175.637,348.038 175.669,348.053 175.717,348.053C175.733,348.053 175.765,348.053 175.781,348.038C175.972,348.006 176.163,347.91 176.338,347.815C176.561,347.687 176.767,347.544 176.943,347.369C177.038,347.289 177.213,347.114 177.229,346.971C177.277,346.319 177.277,345.634 177.293,344.981C177.309,343.867 177.309,342.753 177.309,341.639C177.309,340.509 177.293,339.363 177.261,338.233Z" style="fill-rule:nonzero;"/>
        </g>
        <g transform="matrix(1,0,0,1,19.3546,1.7086)">
            <path d="M-10.12,340.242C-10.12,339.93 -10.046,339.746 -9.897,339.689C-9.748,339.632 -9.588,339.604 -9.418,339.604L-8.11,339.604C-7.72,339.604 -7.365,339.6 -7.046,339.593C-6.727,339.586 -6.429,339.565 -6.152,339.529C-5.876,339.494 -5.617,339.434 -5.376,339.349C-5.262,339.306 -5.202,339.327 -5.195,339.412C-5.188,339.497 -5.184,339.576 -5.184,339.646C-5.184,339.732 -5.227,339.799 -5.312,339.849C-5.397,339.898 -5.493,339.937 -5.599,339.966C-5.705,339.994 -5.808,340.015 -5.907,340.029C-6.007,340.044 -6.071,340.051 -6.099,340.051C-6.142,340.193 -6.191,340.515 -6.248,341.019C-6.305,341.522 -6.365,342.118 -6.429,342.806C-6.493,343.494 -6.546,344.225 -6.588,344.998C-6.631,345.771 -6.652,346.498 -6.652,347.178C-6.525,347.037 -6.312,346.838 -6.014,346.583C-5.716,346.327 -5.365,346.076 -4.961,345.827C-4.556,345.579 -4.106,345.363 -3.61,345.178C-3.113,344.994 -2.595,344.902 -2.056,344.902C-1.517,344.902 -1.017,344.987 -0.556,345.157C-0.095,345.327 0.305,345.576 0.646,345.902C0.986,346.228 1.252,346.629 1.444,347.104C1.635,347.579 1.731,348.115 1.731,348.71C1.731,349.207 1.635,349.721 1.444,350.253C1.252,350.785 0.99,351.31 0.656,351.828C0.323,352.345 -0.078,352.838 -0.546,353.306C-1.014,353.774 -1.521,354.186 -2.067,354.54C-2.613,354.895 -3.195,355.179 -3.812,355.391C-4.429,355.604 -5.049,355.711 -5.673,355.711C-6.383,355.711 -6.964,355.633 -7.418,355.477C-7.872,355.32 -8.234,355.143 -8.503,354.945C-8.773,354.746 -8.964,354.558 -9.078,354.381C-9.191,354.203 -9.255,354.094 -9.269,354.051C-9.227,353.923 -9.177,353.579 -9.12,353.019C-9.064,352.459 -9.01,351.771 -8.961,350.955C-8.911,350.14 -8.865,349.242 -8.822,348.264C-8.78,347.285 -8.759,346.327 -8.759,345.391C-8.759,344.569 -8.773,343.877 -8.801,343.317C-8.83,342.756 -8.869,342.295 -8.918,341.934C-8.968,341.572 -9.028,341.288 -9.099,341.083C-9.17,340.877 -9.248,340.717 -9.333,340.604C-9.503,340.391 -9.688,340.278 -9.886,340.263L-10.12,340.242ZM-6.695,348.859C-6.723,349.101 -6.744,349.391 -6.759,349.732C-6.773,350.072 -6.78,350.413 -6.78,350.753C-6.78,351.093 -6.773,351.398 -6.759,351.668C-6.744,351.937 -6.73,352.108 -6.716,352.179C-6.673,352.391 -6.574,352.618 -6.418,352.859C-6.262,353.101 -6.056,353.324 -5.801,353.53C-5.546,353.735 -5.251,353.906 -4.918,354.04C-4.585,354.175 -4.22,354.242 -3.822,354.242C-2.929,354.242 -2.188,353.93 -1.599,353.306C-1.01,352.682 -0.716,351.725 -0.716,350.434C-0.716,349.71 -0.819,349.097 -1.024,348.593C-1.23,348.09 -1.489,347.686 -1.801,347.381C-2.113,347.076 -2.45,346.852 -2.812,346.71C-3.173,346.569 -3.503,346.498 -3.801,346.498C-4.212,346.498 -4.556,346.558 -4.833,346.678C-5.11,346.799 -5.354,346.937 -5.567,347.093C-5.922,347.363 -6.184,347.632 -6.354,347.902C-6.525,348.171 -6.638,348.491 -6.695,348.859Z" style="fill-rule:nonzero;"/>
            <path d="M6.22,351.838C6.22,352.136 6.227,352.423 6.242,352.7C6.256,352.976 6.305,353.214 6.391,353.413C6.476,353.611 6.603,353.771 6.774,353.891C6.944,354.012 7.185,354.072 7.497,354.072C7.653,354.072 7.83,354.054 8.029,354.019C8.228,353.984 8.415,353.937 8.593,353.881C8.77,353.824 8.926,353.767 9.061,353.711C9.196,353.654 9.277,353.611 9.306,353.583C9.348,353.54 9.376,353.54 9.391,353.583C9.405,353.625 9.408,353.679 9.401,353.742C9.394,353.806 9.376,353.87 9.348,353.934C9.32,353.998 9.284,354.044 9.242,354.072C9.1,354.143 8.852,354.271 8.497,354.455C8.142,354.64 7.724,354.831 7.242,355.03C6.788,355.228 6.344,355.395 5.912,355.53C5.479,355.664 5.121,355.732 4.837,355.732C4.511,355.732 4.256,355.633 4.071,355.434C3.887,355.235 3.795,354.987 3.795,354.689C3.795,354.59 3.798,354.505 3.805,354.434C3.813,354.363 3.823,354.271 3.837,354.157C3.852,354.015 3.876,353.757 3.912,353.381C3.947,353.005 3.983,352.583 4.018,352.115C4.054,351.647 4.086,351.175 4.114,350.7C4.142,350.225 4.157,349.817 4.157,349.476L4.157,348.732C4.157,348.363 4.135,348.037 4.093,347.753C4.05,347.469 3.979,347.249 3.88,347.093C3.809,346.994 3.72,346.913 3.614,346.849C3.508,346.785 3.376,346.753 3.22,346.753C3.135,346.753 3.05,346.771 2.965,346.806C2.88,346.842 2.816,346.859 2.774,346.859C2.745,346.859 2.699,346.817 2.635,346.732C2.571,346.647 2.575,346.583 2.646,346.54C2.745,346.469 2.951,346.356 3.263,346.2C3.575,346.044 3.915,345.873 4.284,345.689C4.681,345.491 5.064,345.317 5.433,345.168C5.802,345.019 6.064,344.944 6.22,344.944C6.376,344.944 6.483,344.991 6.54,345.083C6.596,345.175 6.625,345.278 6.625,345.391L6.625,345.476C6.625,345.618 6.603,345.845 6.561,346.157C6.518,346.469 6.472,346.852 6.423,347.306C6.373,347.76 6.327,348.285 6.284,348.881C6.242,349.476 6.22,350.122 6.22,350.817L6.22,351.838ZM5.369,340.774C5.44,340.788 5.557,340.866 5.72,341.008C5.883,341.15 6.05,341.313 6.22,341.498C6.391,341.682 6.54,341.859 6.667,342.029C6.795,342.2 6.859,342.313 6.859,342.37C6.859,342.441 6.774,342.547 6.603,342.689C6.433,342.831 6.238,342.976 6.018,343.125C5.798,343.274 5.586,343.405 5.38,343.519C5.174,343.632 5.029,343.689 4.944,343.689C4.901,343.689 4.798,343.622 4.635,343.487C4.472,343.352 4.305,343.2 4.135,343.029C3.965,342.859 3.813,342.693 3.678,342.529C3.543,342.366 3.476,342.256 3.476,342.2C3.476,342.129 3.568,342.019 3.752,341.87C3.937,341.721 4.139,341.565 4.359,341.402C4.579,341.239 4.791,341.097 4.997,340.976C5.203,340.856 5.327,340.788 5.369,340.774Z" style="fill-rule:nonzero;"/>
            <path d="M18.731,352.583C18.76,352.554 18.784,352.558 18.806,352.593C18.827,352.629 18.841,352.679 18.848,352.742C18.855,352.806 18.852,352.874 18.838,352.945C18.823,353.015 18.795,353.072 18.753,353.115C18.469,353.384 18.114,353.668 17.689,353.966C17.263,354.264 16.823,354.54 16.369,354.796C16.242,354.867 16.065,354.959 15.838,355.072C15.611,355.186 15.359,355.296 15.082,355.402C14.806,355.508 14.522,355.601 14.231,355.679C13.94,355.757 13.667,355.796 13.412,355.796C12.901,355.796 12.419,355.696 11.965,355.498C11.511,355.299 11.114,355.026 10.774,354.679C10.433,354.331 10.167,353.916 9.976,353.434C9.784,352.952 9.689,352.427 9.689,351.859C9.689,351.249 9.774,350.675 9.944,350.136C10.114,349.597 10.309,349.115 10.529,348.689C10.749,348.264 10.958,347.905 11.157,347.615C11.355,347.324 11.49,347.108 11.561,346.966C11.291,346.952 11.047,346.941 10.827,346.934C10.607,346.927 10.398,346.923 10.199,346.923C9.745,346.923 9.362,346.927 9.05,346.934C8.738,346.941 8.462,346.973 8.22,347.03C8.107,347.058 8.001,347.115 7.901,347.2C7.802,347.285 7.717,347.349 7.646,347.391C7.618,347.363 7.579,347.324 7.529,347.274C7.479,347.225 7.454,347.171 7.454,347.115C7.454,347.086 7.462,347.065 7.476,347.051C7.476,347.037 7.568,346.955 7.752,346.806C7.937,346.657 8.167,346.48 8.444,346.274C8.72,346.069 9.025,345.842 9.359,345.593C9.692,345.345 10.011,345.115 10.316,344.902C10.621,344.689 10.884,344.508 11.103,344.359C11.323,344.21 11.469,344.122 11.54,344.093C11.625,344.065 11.71,344.079 11.795,344.136C11.88,344.193 11.908,344.235 11.88,344.264C11.837,344.292 11.774,344.345 11.689,344.423C11.603,344.501 11.575,344.569 11.603,344.625C11.759,344.753 12.029,344.866 12.412,344.966C12.795,345.065 13.228,345.147 13.71,345.21C14.192,345.274 14.689,345.324 15.199,345.359C15.71,345.395 16.171,345.412 16.582,345.412C17.192,345.412 17.682,345.395 18.05,345.359C18.419,345.324 18.724,345.278 18.965,345.221C19.192,345.164 19.341,345.122 19.412,345.093C19.426,345.093 19.455,345.115 19.497,345.157C19.54,345.2 19.561,345.249 19.561,345.306C19.561,345.334 19.458,345.405 19.253,345.519C19.047,345.632 18.838,345.753 18.625,345.881C18.497,345.952 18.345,346.044 18.167,346.157C17.99,346.271 17.799,346.381 17.593,346.487C17.387,346.593 17.171,346.689 16.944,346.774C16.717,346.859 16.497,346.909 16.284,346.923C16.072,346.952 15.823,346.973 15.54,346.987C15.256,347.001 14.958,347.012 14.646,347.019C14.334,347.026 14.018,347.033 13.699,347.04C13.38,347.047 13.086,347.051 12.816,347.051C12.774,347.122 12.706,347.239 12.614,347.402C12.522,347.565 12.433,347.774 12.348,348.03C12.263,348.285 12.185,348.576 12.114,348.902C12.043,349.228 12.008,349.583 12.008,349.966C12.008,350.547 12.096,351.083 12.274,351.572C12.451,352.062 12.699,352.484 13.018,352.838C13.338,353.193 13.717,353.469 14.157,353.668C14.596,353.867 15.072,353.966 15.582,353.966C15.88,353.966 16.167,353.93 16.444,353.859C16.721,353.789 16.983,353.696 17.231,353.583C17.479,353.469 17.71,353.345 17.923,353.211C18.135,353.076 18.32,352.945 18.476,352.817L18.731,352.583Z" style="fill-rule:nonzero;"/>
            <path d="M22.008,351.838C22.008,352.136 22.015,352.423 22.029,352.7C22.043,352.976 22.093,353.214 22.178,353.413C22.263,353.611 22.391,353.771 22.561,353.891C22.731,354.012 22.972,354.072 23.285,354.072C23.441,354.072 23.618,354.054 23.816,354.019C24.015,353.984 24.203,353.937 24.38,353.881C24.558,353.824 24.714,353.767 24.848,353.711C24.983,353.654 25.065,353.611 25.093,353.583C25.136,353.54 25.164,353.54 25.178,353.583C25.192,353.625 25.196,353.679 25.189,353.742C25.182,353.806 25.164,353.87 25.136,353.934C25.107,353.998 25.072,354.044 25.029,354.072C24.887,354.143 24.639,354.271 24.285,354.455C23.93,354.64 23.511,354.831 23.029,355.03C22.575,355.228 22.132,355.395 21.699,355.53C21.267,355.664 20.909,355.732 20.625,355.732C20.299,355.732 20.043,355.633 19.859,355.434C19.675,355.235 19.582,354.987 19.582,354.689C19.582,354.59 19.586,354.505 19.593,354.434C19.6,354.363 19.611,354.271 19.625,354.157C19.639,354.015 19.664,353.757 19.699,353.381C19.735,353.005 19.77,352.583 19.806,352.115C19.841,351.647 19.873,351.175 19.901,350.7C19.93,350.225 19.944,349.817 19.944,349.476L19.944,348.732C19.944,348.363 19.923,348.037 19.88,347.753C19.838,347.469 19.767,347.249 19.667,347.093C19.596,346.994 19.508,346.913 19.401,346.849C19.295,346.785 19.164,346.753 19.008,346.753C18.923,346.753 18.838,346.771 18.753,346.806C18.667,346.842 18.604,346.859 18.561,346.859C18.533,346.859 18.487,346.817 18.423,346.732C18.359,346.647 18.362,346.583 18.433,346.54C18.533,346.469 18.738,346.356 19.05,346.2C19.362,346.044 19.703,345.873 20.072,345.689C20.469,345.491 20.852,345.317 21.221,345.168C21.589,345.019 21.852,344.944 22.008,344.944C22.164,344.944 22.27,344.991 22.327,345.083C22.384,345.175 22.412,345.278 22.412,345.391L22.412,345.476C22.412,345.618 22.391,345.845 22.348,346.157C22.306,346.469 22.26,346.852 22.21,347.306C22.16,347.76 22.114,348.285 22.072,348.881C22.029,349.476 22.008,350.122 22.008,350.817L22.008,351.838ZM21.157,340.774C21.228,340.788 21.345,340.866 21.508,341.008C21.671,341.15 21.838,341.313 22.008,341.498C22.178,341.682 22.327,341.859 22.455,342.029C22.582,342.2 22.646,342.313 22.646,342.37C22.646,342.441 22.561,342.547 22.391,342.689C22.221,342.831 22.026,342.976 21.806,343.125C21.586,343.274 21.373,343.405 21.167,343.519C20.962,343.632 20.816,343.689 20.731,343.689C20.689,343.689 20.586,343.622 20.423,343.487C20.26,343.352 20.093,343.2 19.923,343.029C19.753,342.859 19.6,342.693 19.465,342.529C19.331,342.366 19.263,342.256 19.263,342.2C19.263,342.129 19.355,342.019 19.54,341.87C19.724,341.721 19.926,341.565 20.146,341.402C20.366,341.239 20.579,341.097 20.784,340.976C20.99,340.856 21.114,340.788 21.157,340.774Z" style="fill-rule:nonzero;"/>
            <path d="M28.008,355.434C28.036,355.434 28.09,355.423 28.168,355.402C28.246,355.381 28.299,355.37 28.327,355.37C28.412,355.37 28.465,355.427 28.487,355.54C28.508,355.654 28.49,355.732 28.434,355.774C28.32,355.859 28.178,355.959 28.008,356.072C27.838,356.186 27.65,356.303 27.444,356.423C27.238,356.544 27.036,356.661 26.838,356.774C26.639,356.888 26.469,356.987 26.327,357.072C26.242,357.115 26.118,357.182 25.955,357.274C25.792,357.367 25.629,357.459 25.465,357.551C25.302,357.643 25.15,357.721 25.008,357.785C24.866,357.849 24.774,357.881 24.731,357.881C24.66,357.881 24.593,357.845 24.529,357.774C24.465,357.703 24.433,357.64 24.433,357.583C24.433,357.512 24.441,357.473 24.455,357.466C24.469,357.459 24.497,357.441 24.54,357.413C24.625,357.356 24.742,357.285 24.891,357.2C25.04,357.115 25.15,356.93 25.221,356.647C25.277,356.406 25.334,356.037 25.391,355.54C25.448,355.044 25.497,354.466 25.54,353.806C25.582,353.147 25.618,352.423 25.646,351.636C25.675,350.849 25.689,350.037 25.689,349.2L25.689,348.296C25.689,348.005 25.682,347.746 25.668,347.519C25.639,347.519 25.529,347.508 25.338,347.487C25.146,347.466 24.944,347.441 24.731,347.413C24.519,347.384 24.324,347.352 24.146,347.317C23.969,347.281 23.88,347.235 23.88,347.178C23.88,347.15 23.877,347.108 23.87,347.051C23.863,346.994 23.916,346.909 24.029,346.796C24.143,346.682 24.281,346.554 24.444,346.413C24.607,346.271 24.767,346.129 24.923,345.987C25.079,345.845 25.224,345.717 25.359,345.604C25.494,345.491 25.597,345.398 25.668,345.327C25.682,344.902 25.692,344.515 25.699,344.168C25.707,343.82 25.724,343.505 25.753,343.221C25.781,342.866 25.838,342.586 25.923,342.381C26.008,342.175 26.129,341.98 26.285,341.795C26.455,341.597 26.788,341.345 27.285,341.04C27.781,340.735 28.37,340.42 29.051,340.093C29.292,339.98 29.501,339.88 29.678,339.795C29.856,339.71 30.029,339.643 30.2,339.593C30.37,339.544 30.547,339.505 30.731,339.476C30.916,339.448 31.129,339.434 31.37,339.434C31.994,339.434 32.529,339.501 32.976,339.636C33.423,339.771 33.767,339.944 34.008,340.157C34.008,340.214 33.916,340.334 33.731,340.519C33.547,340.703 33.334,340.912 33.093,341.146C32.852,341.381 32.611,341.618 32.37,341.859C32.129,342.1 31.951,342.306 31.838,342.476C31.795,342.547 31.731,342.568 31.646,342.54C31.561,342.512 31.533,342.469 31.561,342.412C31.59,342.356 31.614,342.299 31.636,342.242C31.657,342.185 31.668,342.115 31.668,342.029C31.668,341.646 31.476,341.313 31.093,341.029C30.71,340.746 30.221,340.604 29.625,340.604C29.285,340.604 29.001,340.707 28.774,340.912C28.547,341.118 28.37,341.462 28.242,341.944C28.129,342.398 28.047,342.927 27.997,343.529C27.948,344.132 27.909,344.902 27.88,345.838C28.079,345.881 28.338,345.913 28.657,345.934C28.976,345.955 29.32,345.966 29.689,345.966L30.487,345.966C30.778,345.966 31.061,345.959 31.338,345.944C31.614,345.93 31.877,345.913 32.125,345.891C32.373,345.87 32.575,345.838 32.731,345.795C32.788,345.852 32.817,345.916 32.817,345.987C32.618,346.285 32.306,346.53 31.88,346.721C31.455,346.913 30.997,347.069 30.508,347.189C30.019,347.31 29.529,347.391 29.04,347.434C28.551,347.476 28.15,347.498 27.838,347.498C27.838,347.739 27.831,348.076 27.817,348.508C27.802,348.941 27.788,349.405 27.774,349.902C27.76,350.398 27.749,350.898 27.742,351.402C27.735,351.906 27.731,352.356 27.731,352.753C27.731,353.079 27.735,353.398 27.742,353.711C27.749,354.023 27.76,354.299 27.774,354.54C27.788,354.781 27.813,354.984 27.848,355.147C27.884,355.31 27.937,355.406 28.008,355.434Z" style="fill-rule:nonzero;"/>
            <path d="M31.519,361.86C31.646,361.718 31.838,361.484 32.093,361.157C32.348,360.831 32.629,360.462 32.934,360.051C33.239,359.64 33.551,359.2 33.87,358.732C34.189,358.264 34.49,357.821 34.774,357.402C35.058,356.984 35.302,356.601 35.508,356.253C35.714,355.906 35.845,355.647 35.902,355.477C35.675,354.881 35.434,354.25 35.178,353.583C34.923,352.916 34.657,352.257 34.38,351.604C34.104,350.952 33.827,350.327 33.551,349.732C33.274,349.136 33.001,348.615 32.731,348.168C32.462,347.721 32.203,347.363 31.955,347.093C31.707,346.824 31.483,346.689 31.285,346.689C31.228,346.689 31.164,346.707 31.093,346.742C31.022,346.778 30.958,346.81 30.902,346.838C30.859,346.866 30.809,346.831 30.753,346.732C30.696,346.632 30.696,346.569 30.753,346.54C30.809,346.498 30.976,346.391 31.253,346.221C31.529,346.051 31.838,345.87 32.178,345.678C32.519,345.487 32.849,345.313 33.168,345.157C33.487,345.001 33.717,344.923 33.859,344.923C34.001,344.923 34.168,345.051 34.359,345.306C34.551,345.561 34.749,345.905 34.955,346.338C35.161,346.771 35.377,347.264 35.604,347.817C35.831,348.37 36.058,348.948 36.285,349.551C36.512,350.154 36.735,350.76 36.955,351.37C37.175,351.98 37.384,352.547 37.583,353.072C37.767,352.789 38.005,352.384 38.295,351.859C38.586,351.335 38.866,350.774 39.136,350.179C39.405,349.583 39.636,348.994 39.827,348.413C40.019,347.831 40.115,347.342 40.115,346.944C40.115,346.533 40.015,346.239 39.817,346.061C39.618,345.884 39.398,345.795 39.157,345.795C38.973,345.795 38.827,345.799 38.721,345.806C38.615,345.813 38.498,345.831 38.37,345.859C38.342,345.859 38.299,345.842 38.242,345.806C38.185,345.771 38.157,345.717 38.157,345.647C38.157,345.576 38.313,345.498 38.625,345.412C38.937,345.327 39.299,345.249 39.71,345.178C40.122,345.108 40.526,345.047 40.923,344.998C41.32,344.948 41.597,344.923 41.753,344.923C42.079,344.923 42.32,344.987 42.476,345.115C42.632,345.242 42.71,345.391 42.71,345.561C42.625,345.902 42.444,346.345 42.168,346.891C41.891,347.437 41.561,348.033 41.178,348.679C40.795,349.324 40.388,349.991 39.955,350.679C39.522,351.367 39.107,352.015 38.71,352.625C38.313,353.235 37.955,353.781 37.636,354.264C37.317,354.746 37.086,355.101 36.944,355.328C36.661,355.767 36.391,356.225 36.136,356.7C35.88,357.175 35.646,357.65 35.434,358.125C35.221,358.601 35.033,359.055 34.87,359.487C34.707,359.92 34.59,360.313 34.519,360.668C34.476,360.881 34.515,361.019 34.636,361.083C34.756,361.147 34.912,361.161 35.104,361.126C35.295,361.09 35.505,361.023 35.732,360.923C35.958,360.824 36.15,360.711 36.306,360.583C36.377,360.526 36.423,360.516 36.444,360.551C36.466,360.587 36.476,360.64 36.476,360.711C36.476,360.782 36.462,360.856 36.434,360.934C36.405,361.012 36.37,361.065 36.327,361.094C36.313,361.094 36.15,361.157 35.838,361.285C35.526,361.413 35.15,361.551 34.71,361.7C34.271,361.849 33.806,361.987 33.317,362.115C32.827,362.243 32.398,362.306 32.029,362.306C31.675,362.306 31.497,362.193 31.497,361.966C31.497,361.938 31.501,361.916 31.508,361.902C31.515,361.888 31.519,361.874 31.519,361.86Z" style="fill-rule:nonzero;"/>
        </g>
    </g>
    <g transform="matrix(1.4224,0,0,72.8139,-34.8006,-21579.8)">
        <rect x="13.921" y="296.737" width="168.729" height="3.935" style="fill:rgb(191,191,191);"/>
    </g>
    <g transform="matrix(1.03989e-16,-1.69827,1,6.12323e-17,-207.186,336.895)">
        <rect x="13.921" y="296.737" width="168.729" height="3.935" style="fill:rgb(242,242,242);"/>
    </g>
    <g transform="matrix(1.03989e-16,-1.69827,1,6.12323e-17,-147.325,336.895)">
        <rect x="13.921" y="296.737" width="168.729" height="3.935" style="fill:rgb(242,242,242);"/>
    </g>
    <g id="IO" transform="matrix(1,0,0,1,1.1237,12.9136)">
        <g transform="matrix(1,0,0,1,-15,-5.68434e-14)">
            <g id="AudioOut-output" serif:id="AudioOut#output" transform="matrix(0.175002,0,0,0.175002,176.09,284.86)">
                <rect x="53.94" y="106.916" width="161.978" height="161.978" style="fill:rgb(77,77,77);"/>
            </g>
            <g id="AudioIn-input" serif:id="AudioIn#input" transform="matrix(0.175002,0,0,0.175002,142.966,284.86)">
                <rect x="53.94" y="106.916" width="161.978" height="161.978" style="fill:rgb(204,204,204);"/>
            </g>
            <g transform="matrix(1,0,0,1,-0.152515,-4.90426)">
                <path d="M128.935,326.169L127.08,326.169L127.08,325.329C126.803,325.674 126.524,325.92 126.242,326.066C125.961,326.213 125.615,326.286 125.205,326.286C124.658,326.286 124.229,326.122 123.918,325.795C123.607,325.468 123.452,324.964 123.452,324.284L123.452,320.983L125.449,320.983L125.449,323.835C125.449,324.16 125.509,324.391 125.63,324.528C125.75,324.665 125.919,324.733 126.138,324.733C126.375,324.733 126.57,324.642 126.721,324.46C126.872,324.277 126.948,323.95 126.948,323.478L126.948,320.983L128.935,320.983L128.935,326.169ZM139.897,323.591C139.897,322.8 140.164,322.148 140.698,321.635C141.232,321.122 141.953,320.866 142.861,320.866C143.9,320.866 144.684,321.167 145.215,321.769C145.641,322.254 145.854,322.852 145.854,323.561C145.854,324.359 145.59,325.012 145.061,325.522C144.532,326.031 143.8,326.286 142.866,326.286C142.033,326.286 141.359,326.074 140.845,325.651C140.213,325.127 139.897,324.44 139.897,323.591ZM135.6,319.011L135.6,326.169L133.74,326.169L133.74,325.402C133.48,325.728 133.242,325.947 133.027,326.061C132.741,326.211 132.422,326.286 132.07,326.286C131.364,326.286 130.824,326.017 130.451,325.48C130.079,324.943 129.892,324.29 129.892,323.522C129.892,322.663 130.098,322.005 130.51,321.55C130.922,321.094 131.445,320.866 132.08,320.866C132.389,320.866 132.67,320.918 132.922,321.022C133.174,321.126 133.398,321.283 133.594,321.491L133.594,319.011L135.6,319.011ZM120.327,324.987L117.807,324.987L117.461,326.169L115.2,326.169L117.89,319.011L120.303,319.011L122.993,326.169L120.679,326.169L120.327,324.987ZM136.885,320.983L138.872,320.983L138.872,326.169L136.885,326.169L136.885,320.983ZM141.889,323.586C141.889,324.048 141.983,324.39 142.17,324.611C142.357,324.832 142.593,324.943 142.876,324.943C143.162,324.943 143.397,324.834 143.581,324.616C143.765,324.398 143.857,324.048 143.857,323.566C143.857,323.117 143.764,322.782 143.579,322.563C143.393,322.343 143.164,322.233 142.89,322.233C142.601,322.233 142.361,322.345 142.173,322.568C141.984,322.791 141.889,323.13 141.889,323.586ZM133.608,323.561C133.608,323.154 133.522,322.851 133.349,322.651C133.177,322.45 132.959,322.35 132.695,322.35C132.464,322.35 132.27,322.446 132.114,322.638C131.958,322.831 131.88,323.153 131.88,323.605C131.88,324.028 131.96,324.338 132.121,324.535C132.283,324.732 132.482,324.831 132.72,324.831C132.973,324.831 133.185,324.732 133.354,324.533C133.524,324.334 133.608,324.011 133.608,323.561ZM119.863,323.439L119.072,320.866L118.286,323.439L119.863,323.439ZM136.885,319.011L138.872,319.011L138.872,320.363L136.885,320.363L136.885,319.011Z" style="fill-rule:nonzero;"/>
            </g>
        </g>
        <g transform="matrix(1,0,0,1,-17.3559,0)">
            <g id="Hold-input" serif:id="Hold#input" transform="matrix(0.175002,0,0,0.175002,49.8134,284.86)">
                <rect x="53.94" y="106.916" width="161.978" height="161.978" style="fill:rgb(204,204,204);"/>
            </g>
            <g transform="matrix(1,0,0,1,-0.152515,-4.90426)">
                <path d="M34.329,323.591C34.329,322.8 34.596,322.148 35.13,321.635C35.664,321.122 36.385,320.866 37.293,320.866C38.331,320.866 39.116,321.167 39.646,321.769C40.073,322.254 40.286,322.852 40.286,323.561C40.286,324.359 40.022,325.012 39.493,325.522C38.964,326.031 38.232,326.286 37.298,326.286C36.464,326.286 35.791,326.074 35.276,325.651C34.645,325.127 34.329,324.44 34.329,323.591ZM50.032,319.011L50.032,326.169L48.172,326.169L48.172,325.402C47.911,325.728 47.674,325.947 47.459,326.061C47.172,326.211 46.853,326.286 46.502,326.286C45.796,326.286 45.256,326.017 44.883,325.48C44.511,324.943 44.324,324.29 44.324,323.522C44.324,322.663 44.53,322.005 44.942,321.55C45.354,321.094 45.877,320.866 46.512,320.866C46.821,320.866 47.102,320.918 47.354,321.022C47.606,321.126 47.83,321.283 48.025,321.491L48.025,319.011L50.032,319.011ZM26.385,319.011L28.597,319.011L28.597,321.515L31.014,321.515L31.014,319.011L33.235,319.011L33.235,326.169L31.014,326.169L31.014,323.273L28.597,323.273L28.597,326.169L26.385,326.169L26.385,319.011ZM41.311,319.011L43.304,319.011L43.304,326.169L41.311,326.169L41.311,319.011ZM36.321,323.586C36.321,324.048 36.415,324.39 36.602,324.611C36.789,324.832 37.024,324.943 37.308,324.943C37.594,324.943 37.829,324.834 38.013,324.616C38.197,324.398 38.289,324.048 38.289,323.566C38.289,323.117 38.196,322.782 38.011,322.563C37.825,322.343 37.596,322.233 37.322,322.233C37.032,322.233 36.793,322.345 36.604,322.568C36.416,322.791 36.321,323.13 36.321,323.586ZM48.04,323.561C48.04,323.154 47.954,322.851 47.781,322.651C47.609,322.45 47.391,322.35 47.127,322.35C46.896,322.35 46.702,322.446 46.546,322.638C46.39,322.831 46.311,323.153 46.311,323.605C46.311,324.028 46.392,324.338 46.553,324.535C46.714,324.732 46.914,324.831 47.151,324.831C47.405,324.831 47.617,324.732 47.786,324.533C47.955,324.334 48.04,324.011 48.04,323.561Z" style="fill-rule:nonzero;"/>
            </g>
        </g>
    </g>
    <g id="G8" transform="matrix(0.999374,0,0,1,-14.0069,236.187)">
        <g transform="matrix(1.47462,0,0,0.558382,-102.089,23.0514)">
            <rect x="161.957" y="57.989" width="36.327" height="2.261"/>
        </g>
        <g id="BitOut8-output" serif:id="BitOut8#output" transform="matrix(0.175002,0,0,0.175002,111.643,24.1243)">
            <rect x="53.94" y="106.916" width="161.978" height="161.978" style="fill:rgb(77,77,77);"/>
        </g>
        <g id="BitIn8-input" serif:id="BitIn8#input" transform="matrix(0.175002,0,0,0.175002,172.352,23.678)">
            <rect x="53.94" y="106.916" width="161.978" height="161.978" style="fill:rgb(235,235,235);"/>
        </g>
        <g transform="matrix(1,0,0,1,-12.9157,2.43961)">
            <g id="GateIn8-input" serif:id="GateIn8#input" transform="matrix(0.175002,0,0,0.175002,69.7893,21.6846)">
                <rect x="53.94" y="106.916" width="161.978" height="161.978" style="fill:rgb(235,235,235);"/>
            </g>
            <g id="FlipSwitch8-latch" serif:id="FlipSwitch8#latch" transform="matrix(0.175002,0,0,0.175002,38.2316,21.6382)">
                <rect x="53.94" y="106.916" width="161.978" height="161.978" style="fill:rgb(191,191,191);"/>
            </g>
            <g transform="matrix(1.00063,0,0,1,13.1787,-5.29801)">
                <path d="M27.102,66.136L27.102,53.281L28.944,53.281L28.944,64.294L32.591,64.294L32.591,66.136L27.102,66.136Z" style="fill-rule:nonzero;"/>
            </g>
        </g>
    </g>
    <g id="G7" transform="matrix(0.999374,0,0,1,-14.0069,200.959)">
        <g transform="matrix(1.47462,0,0,0.558382,-102.089,23.0514)">
            <rect x="161.957" y="57.989" width="36.327" height="2.261"/>
        </g>
        <g id="BitOut7-output" serif:id="BitOut7#output" transform="matrix(0.175002,0,0,0.175002,111.643,24.1243)">
            <rect x="53.94" y="106.916" width="161.978" height="161.978" style="fill:rgb(77,77,77);"/>
        </g>
        <g id="BitIn7-input" serif:id="BitIn7#input" transform="matrix(0.175002,0,0,0.175002,172.352,23.678)">
            <rect x="53.94" y="106.916" width="161.978" height="161.978" style="fill:rgb(235,235,235);"/>
        </g>
        <g transform="matrix(1,0,0,1,-12.9157,2.43961)">
            <g id="GateIn7-input" serif:id="GateIn7#input" transform="matrix(0.175002,0,0,0.175002,69.7893,21.6846)">
                <rect x="53.94" y="106.916" width="161.978" height="161.978" style="fill:rgb(235,235,235);"/>
            </g>
            <g id="FlipSwitch7-latch" serif:id="FlipSwitch7#latch" transform="matrix(0.175002,0,0,0.175002,38.2316,21.6846)">
                <rect x="53.94" y="106.916" width="161.978" height="161.978" style="fill:rgb(191,191,191);"/>
            </g>
        </g>
    </g>
    <g id="G6" transform="matrix(0.999374,0,0,1,-14.0069,165.732)">
        <g transform="matrix(1.47462,0,0,0.558382,-102.089,23.0514)">
            <rect x="161.957" y="57.989" width="36.327" height="2.261"/>
        </g>
        <g id="BitOut6-output" serif:id="BitOut6#output" transform="matrix(0.175002,0,0,0.175002,111.643,24.1243)">
            <rect x="53.94" y="106.916" width="161.978" height="161.978" style="fill:rgb(77,77,77);"/>
        </g>
        <g id="BitIn6-input" serif:id="BitIn6#input" transform="matrix(0.175002,0,0,0.175002,172.352,23.678)">
            <rect x="53.94" y="106.916" width="161.978" height="161.978" style="fill:rgb(235,235,235);"/>
        </g>
        <g transform="matrix(1,0,0,1,-12.9157,2.43961)">
            <g id="GateIn6-input" serif:id="GateIn6#input" transform="matrix(0.175002,0,0,0.175002,69.7893,21.6846)">
                <rect x="53.94" y="106.916" width="161.978" height="161.978" style="fill:rgb(235,235,235);"/>
            </g>
            <g id="FlipSwitch6-latch" serif:id="FlipSwitch6#latch" transform="matrix(0.175002,0,0,0.175002,38.2316,21.6382)">
                <rect x="53.94" y="106.916" width="161.978" height="161.978" style="fill:rgb(191,191,191);"/>
            </g>
        </g>
    </g>
    <g id="G5" transform="matrix(0.999374,0,0,1,-14.0069,130.505)">
        <g transform="matrix(1.47462,0,0,0.558382,-102.089,23.0514)">
            <rect x="161.957" y="57.989" width="36.327" height="2.261"/>
        </g>
        <g id="BitOut5-output" serif:id="BitOut5#output" transform="matrix(0.175002,0,0,0.175002,111.643,24.1243)">
            <rect x="53.94" y="106.916" width="161.978" height="161.978" style="fill:rgb(77,77,77);"/>
        </g>
        <g id="BitIn5-input" serif:id="BitIn5#input" transform="matrix(0.175002,0,0,0.175002,172.352,23.678)">
            <rect x="53.94" y="106.916" width="161.978" height="161.978" style="fill:rgb(235,235,235);"/>
        </g>
        <g transform="matrix(1,0,0,1,-12.9157,2.43961)">
            <g id="GateIn5-input" serif:id="GateIn5#input" transform="matrix(0.175002,0,0,0.175002,69.7893,21.6846)">
                <rect x="53.94" y="106.916" width="161.978" height="161.978" style="fill:rgb(235,235,235);"/>
            </g>
            <g id="FlipSwitch5-latch" serif:id="FlipSwitch5#latch" transform="matrix(0.175002,0,0,0.175002,38.2083,21.6614)">
                <rect x="53.94" y="106.916" width="161.978" height="161.978" style="fill:rgb(191,191,191);"/>
            </g>
        </g>
    </g>
    <g id="G4" transform="matrix(0.999374,0,0,1,-14.0069,95.2778)">
        <g transform="matrix(1.47462,0,0,0.558382,-102.089,23.0514)">
            <rect x="161.957" y="57.989" width="36.327" height="2.261"/>
        </g>
        <g id="BitOut4-output" serif:id="BitOut4#output" transform="matrix(0.175002,0,0,0.175002,111.643,24.1243)">
            <rect x="53.94" y="106.916" width="161.978" height="161.978" style="fill:rgb(77,77,77);"/>
        </g>
        <g id="BitIn4-input" serif:id="BitIn4#input" transform="matrix(0.175002,0,0,0.175002,172.352,23.678)">
            <rect x="53.94" y="106.916" width="161.978" height="161.978" style="fill:rgb(235,235,235);"/>
        </g>
        <g transform="matrix(1,0,0,1,-12.9157,2.43961)">
            <g id="GateIn4-input" serif:id="GateIn4#input" transform="matrix(0.175002,0,0,0.175002,69.7893,21.6846)">
                <rect x="53.94" y="106.916" width="161.978" height="161.978" style="fill:rgb(235,235,235);"/>
            </g>
            <g id="FlipSwitch4-latch" serif:id="FlipSwitch4#latch" transform="matrix(0.175002,0,0,0.175002,38.1851,21.6382)">
                <rect x="53.94" y="106.916" width="161.978" height="161.978" style="fill:rgb(191,191,191);"/>
            </g>
        </g>
    </g>
    <g id="G3" transform="matrix(0.999374,0,0,1,-14.0069,60.0505)">
        <g transform="matrix(1.47462,0,0,0.558382,-102.089,23.0514)">
            <rect x="161.957" y="57.989" width="36.327" height="2.261"/>
        </g>
        <g id="BitOut3-output" serif:id="BitOut3#output" transform="matrix(0.175002,0,0,0.175002,111.643,24.1243)">
            <rect x="53.94" y="106.916" width="161.978" height="161.978" style="fill:rgb(77,77,77);"/>
        </g>
        <g id="BitIn3-input" serif:id="BitIn3#input" transform="matrix(0.175002,0,0,0.175002,172.352,23.678)">
            <rect x="53.94" y="106.916" width="161.978" height="161.978" style="fill:rgb(235,235,235);"/>
        </g>
        <g transform="matrix(1,0,0,1,-12.9157,2.43961)">
            <g id="GateIn3-input" serif:id="GateIn3#input" transform="matrix(0.175002,0,0,0.175002,69.7893,21.6846)">
                <rect x="53.94" y="106.916" width="161.978" height="161.978" style="fill:rgb(235,235,235);"/>
            </g>
            <g id="FlipSwitch3-latch" serif:id="FlipSwitch3#latch" transform="matrix(0.175002,0,0,0.175002,38.2316,21.6382)">
                <rect x="53.94" y="106.916" width="161.978" height="161.978" style="fill:rgb(191,191,191);"/>
            </g>
        </g>
    </g>
    <g id="G2" transform="matrix(0.999374,0,0,1,-14.0069,24.8233)">
        <g transform="matrix(1.47462,0,0,0.558382,-102.089,23.0514)">
            <rect x="161.957" y="57.989" width="36.327" height="2.261"/>
        </g>
        <g id="BitOut2-output" serif:id="BitOut2#output" transform="matrix(0.175002,0,0,0.175002,111.643,24.1243)">
            <rect x="53.94" y="106.916" width="161.978" height="161.978" style="fill:rgb(77,77,77);"/>
        </g>
        <g id="BitIn2-input" serif:id="BitIn2#input" transform="matrix(0.175002,0,0,0.175002,172.352,23.678)">
            <rect x="53.94" y="106.916" width="161.978" height="161.978" style="fill:rgb(235,235,235);"/>
        </g>
        <g transform="matrix(1,0,0,1,-12.9157,2.43961)">
            <g id="GateIn2-input" serif:id="GateIn2#input" transform="matrix(0.175002,0,0,0.175002,69.7893,21.6846)">
                <rect x="53.94" y="106.916" width="161.978" height="161.978" style="fill:rgb(235,235,235);"/>
            </g>
            <g id="FlipSwitch2-latch" serif:id="FlipSwitch2#latch" transform="matrix(0.175002,0,0,0.175002,38.2316,21.6846)">
                <rect x="53.94" y="106.916" width="161.978" height="161.978" style="fill:rgb(191,191,191);"/>
            </g>
        </g>
    </g>
    <g id="G1" transform="matrix(0.999374,0,0,1,-14.0069,-10.4039)">
        <g transform="matrix(1.47462,0,0,0.558382,-102.089,23.0514)">
            <rect x="161.957" y="57.989" width="36.327" height="2.261"/>
        </g>
        <g id="BitOut1-output" serif:id="BitOut1#output" transform="matrix(0.175002,0,0,0.175002,111.643,24.1243)">
            <rect x="53.94" y="106.916" width="161.978" height="161.978" style="fill:rgb(77,77,77);"/>
        </g>
        <g id="BitIn1-input" serif:id="BitIn1#input" transform="matrix(0.175002,0,0,0.175002,172.352,23.678)">
            <rect x="53.94" y="106.916" width="161.978" height="161.978" style="fill:rgb(235,235,235);"/>
        </g>
        <g transform="matrix(1,0,0,1,-12.9157,2.43961)">
            <g id="GateIn1-input" serif:id="GateIn1#input" transform="matrix(0.175002,0,0,0.175002,69.7893,21.6846)">
                <rect x="53.94" y="106.916" width="161.978" height="161.978" style="fill:rgb(235,235,235);"/>
            </g>
            <g id="FlipSwitch1-latch" serif:id="FlipSwitch1#latch" transform="matrix(0.175002,0,0,0.175002,38.2316,21.3704)">
                <rect x="53.94" y="106.916" width="161.978" height="161.978" style="fill:rgb(191,191,191);"/>
            </g>
            <g transform="matrix(1.00063,0,0,1,13.1787,-5.29801)">
                <path d="M23.744,66.136L23.744,53.281L25.513,53.281L27.878,60.088L27.915,60.088L30.262,53.281L32.049,53.281L32.049,66.136L30.207,66.136L30.207,58.318L30.171,58.318L28.348,63.843L27.427,63.843L25.622,58.318L25.586,58.318L25.586,66.136L23.744,66.136Z" style="fill-rule:nonzero;"/>
            </g>
        </g>
    </g>
    <g transform="matrix(1,0,0,1,0,-13)">
        <g transform="matrix(1,0,0,1,35.7196,-30.1302)">
            <path d="M23.87,66.136L23.87,58.427L22.968,58.427L22.968,56.982L23.87,56.982L23.87,55.737C23.87,55.291 23.937,54.915 24.069,54.608C24.201,54.301 24.382,54.046 24.611,53.841C24.827,53.636 25.077,53.492 25.36,53.408C25.643,53.323 25.935,53.281 26.235,53.281L27.084,53.281L27.084,55.014L26.254,55.014C25.892,55.014 25.712,55.225 25.712,55.646L25.712,56.982L27.084,56.982L27.084,58.427L25.712,58.427L25.712,66.136L23.87,66.136ZM27.626,53.281L29.467,53.281L29.467,63.554C29.467,63.903 29.53,64.141 29.657,64.267C29.783,64.394 30.021,64.475 30.37,64.511L30.37,66.244C29.949,66.244 29.569,66.211 29.232,66.145C28.895,66.079 28.607,65.949 28.366,65.757C28.125,65.576 27.942,65.32 27.815,64.989C27.689,64.658 27.626,64.222 27.626,63.68L27.626,53.281Z" style="fill-rule:nonzero;"/>
            <path d="M30.984,66.136L30.984,56.982L32.825,56.982L32.825,66.136L30.984,66.136ZM30.984,55.123L30.984,53.281L32.825,53.281L32.825,55.123L30.984,55.123Z" style="fill-rule:nonzero;"/>
            <path d="M34.342,69.837L34.342,56.982L36.183,56.982L36.183,57.813C36.412,57.548 36.647,57.325 36.887,57.145C37.128,56.964 37.477,56.874 37.935,56.874C38.693,56.874 39.228,57.163 39.541,57.741C39.65,57.945 39.728,58.198 39.776,58.499C39.824,58.8 39.848,59.203 39.848,59.709L39.848,63.193C39.848,63.867 39.83,64.355 39.794,64.655C39.722,65.257 39.445,65.709 38.964,66.009C38.723,66.166 38.374,66.244 37.917,66.244C37.555,66.244 37.234,66.163 36.951,66C36.668,65.838 36.424,65.606 36.219,65.305L36.183,65.305L36.183,69.837L34.342,69.837ZM38.007,59.961C38.007,59.588 37.935,59.287 37.79,59.059C37.646,58.83 37.417,58.716 37.104,58.716C36.827,58.716 36.605,58.821 36.436,59.032C36.268,59.242 36.183,59.516 36.183,59.853L36.183,63.41C36.183,63.699 36.271,63.936 36.445,64.123C36.62,64.309 36.839,64.403 37.104,64.403C37.453,64.403 37.691,64.294 37.817,64.078C37.944,63.861 38.007,63.608 38.007,63.319L38.007,59.961Z" style="fill-rule:nonzero;"/>
        </g>
        <g transform="matrix(1,0,0,1,89.4898,-30.1302)">
            <path d="M23.473,60.052C23.473,59.678 23.497,59.335 23.545,59.023C23.594,58.71 23.684,58.433 23.816,58.192C24.033,57.795 24.343,57.476 24.746,57.235C25.149,56.994 25.64,56.874 26.217,56.874C26.795,56.874 27.286,56.994 27.689,57.235C28.092,57.476 28.402,57.795 28.619,58.192C28.751,58.433 28.841,58.71 28.889,59.023C28.938,59.335 28.962,59.678 28.962,60.052L28.962,63.067C28.962,63.44 28.938,63.783 28.889,64.096C28.841,64.409 28.751,64.686 28.619,64.926C28.402,65.323 28.092,65.642 27.689,65.883C27.286,66.124 26.795,66.244 26.217,66.244C25.64,66.244 25.149,66.124 24.746,65.883C24.343,65.642 24.033,65.323 23.816,64.926C23.684,64.686 23.594,64.409 23.545,64.096C23.497,63.783 23.473,63.44 23.473,63.067L23.473,60.052ZM25.315,63.356C25.315,63.705 25.396,63.966 25.558,64.141C25.721,64.315 25.941,64.403 26.217,64.403C26.494,64.403 26.714,64.315 26.876,64.141C27.039,63.966 27.12,63.705 27.12,63.356L27.12,59.763C27.12,59.414 27.039,59.152 26.876,58.977C26.714,58.803 26.494,58.716 26.217,58.716C25.941,58.716 25.721,58.803 25.558,58.977C25.396,59.152 25.315,59.414 25.315,59.763L25.315,63.356Z" style="fill-rule:nonzero;"/>
            <path d="M35.822,56.982L35.822,66.136L33.981,66.136L33.981,65.251L33.945,65.251C33.752,65.54 33.52,65.778 33.25,65.964C32.979,66.151 32.633,66.244 32.211,66.244C31.983,66.244 31.754,66.205 31.525,66.127C31.297,66.049 31.092,65.919 30.912,65.739C30.731,65.558 30.587,65.326 30.478,65.044C30.37,64.761 30.316,64.415 30.316,64.005L30.316,56.982L32.157,56.982L32.157,63.319C32.157,63.656 32.235,63.921 32.392,64.114C32.548,64.306 32.771,64.403 33.06,64.403C33.409,64.403 33.65,64.294 33.782,64.078C33.915,63.861 33.981,63.548 33.981,63.139L33.981,56.982L35.822,56.982Z" style="fill-rule:nonzero;"/>
            <path d="M37.339,56.982L37.339,54.202L39.18,54.202L39.18,56.982L40.318,56.982L40.318,58.427L39.18,58.427L39.18,63.5C39.18,63.717 39.201,63.885 39.244,64.005C39.286,64.126 39.355,64.216 39.451,64.276C39.547,64.336 39.665,64.373 39.803,64.385C39.942,64.397 40.113,64.403 40.318,64.403L40.318,66.136L39.559,66.136C39.138,66.136 38.786,66.07 38.503,65.937C38.22,65.805 37.995,65.636 37.826,65.432C37.658,65.227 37.534,64.995 37.456,64.737C37.378,64.478 37.339,64.228 37.339,63.987L37.339,58.427L36.418,58.427L36.418,56.982L37.339,56.982Z" style="fill-rule:nonzero;"/>
        </g>
        <g transform="matrix(1,0,0,1,153.826,-30.0218)">
            <path d="M23.636,66.136L23.636,56.982L25.477,56.982L25.477,66.136L23.636,66.136ZM23.636,55.123L23.636,53.281L25.477,53.281L25.477,55.123L23.636,55.123Z" style="fill-rule:nonzero;"/>
            <path d="M26.994,66.136L26.994,56.982L28.835,56.982L28.835,57.867L28.871,57.867C29.064,57.578 29.296,57.34 29.566,57.154C29.837,56.967 30.183,56.874 30.605,56.874C30.833,56.874 31.062,56.913 31.291,56.991C31.519,57.07 31.724,57.199 31.905,57.38C32.085,57.56 32.229,57.792 32.338,58.075C32.446,58.358 32.5,58.704 32.5,59.113L32.5,66.136L30.659,66.136L30.659,59.799C30.659,59.462 30.581,59.197 30.424,59.004C30.268,58.812 30.045,58.716 29.756,58.716C29.407,58.716 29.166,58.824 29.034,59.041C28.901,59.257 28.835,59.57 28.835,59.979L28.835,66.136L26.994,66.136Z" style="fill-rule:nonzero;"/>
        </g>
    </g>
    <g transform="matrix(-0.722944,8.85351e-17,-1.22465e-16,-1,24.9844,343.143)">
        <path d="M15.363,63.008L20.727,278.975L10,278.975L15.363,63.008Z" style="fill:rgb(115,115,115);"/>
    </g>
</svg>
