<?xml version='1.0' encoding='UTF-8'?>
<svg width="100%" height="100%" viewBox="0 0 144 365" version="1.1" space="preserve" style="fill-rule:evenodd;clip-rule:evenodd;stroke-linejoin:round;stroke-miterlimit:2;" xmlns="http://www.w3.org/2000/svg" xmlns:svg="http://www.w3.org/1999/xlink" xmlns:inkscape="http://www.inkscape.org/namespaces/inkscape" processed="true">
    <g id="BG" transform="matrix(0.836409,0,0,0.621694,-25.0137,-25.4058)">
        <rect x="29.906" y="40.865" width="172.165" height="585.903" style="fill:white;"></rect>
    </g>
    <g transform="matrix(0.175002,0,0,0.175002,48.3872,75.7819)">
        <rect x="53.94" y="106.916" width="161.978" height="161.978" style="fill:rgb(77,77,77);"></rect>
    </g>
    <g transform="matrix(0.175002,0,0,0.175002,48.3872,36.1687)">
        <rect x="53.94" y="106.916" width="161.978" height="161.978" style="fill:rgb(235,235,235);"></rect>
    </g>
    <g transform="matrix(1,0,0,1,-2.1219,-93.9202)">
        <rect x="26.668" y="228.731" width="94.908" height="5.669"></rect>
    </g>
    <g transform="matrix(0.175002,0,0,0.175002,48.3872,179.545)">
        <rect x="53.94" y="106.916" width="161.978" height="161.978" style="fill:rgb(77,77,77);"></rect>
    </g>
    <g transform="matrix(0.175002,0,0,0.175002,48.3872,135.514)">
        <rect x="53.94" y="106.916" width="161.978" height="161.978" style="fill:rgb(235,235,235);"></rect>
    </g>
    <g transform="matrix(1,0,0,1,-2.1219,12.0249)">
        <rect x="26.668" y="228.731" width="94.908" height="5.669"></rect>
    </g>
    <g transform="matrix(0.3,0,0,0.119978,36,166.719)">
        <path d="M41.22,1344.36C41.22,1344.68 41.207,1345.03 41.182,1345.4C41.156,1345.77 41.143,1346.16 41.143,1346.57C41.143,1347.8 41.627,1348.93 42.593,1349.95C43.56,1350.98 44.717,1351.84 46.065,1352.54C47.413,1353.23 48.761,1353.79 50.109,1354.2C51.457,1354.61 52.512,1354.81 53.275,1354.81C53.987,1354.81 54.865,1354.73 55.908,1354.57C56.95,1354.4 57.98,1354.06 58.998,1353.52C60.015,1352.99 60.88,1352.25 61.592,1351.31C62.304,1350.36 62.66,1349.11 62.66,1347.56C62.66,1345.75 62.037,1344.44 60.791,1343.62C59.545,1342.8 57.98,1342.16 56.098,1341.71C54.216,1341.26 52.182,1340.81 49.994,1340.36C47.807,1339.91 45.772,1339.17 43.89,1338.14C42.008,1337.12 40.444,1335.64 39.198,1333.71C37.951,1331.79 37.328,1329.06 37.328,1325.53C37.328,1320.29 38.676,1316.1 41.372,1312.99C44.068,1309.87 47.858,1308.31 52.741,1308.31C55.132,1308.31 57.179,1308.62 58.883,1309.23C60.587,1309.85 62.024,1310.53 63.194,1311.26C64.364,1312 65.318,1312.68 66.055,1313.29C66.793,1313.91 67.34,1314.22 67.696,1314.22C68.103,1314.22 68.408,1314.11 68.612,1313.91C68.815,1313.7 69.069,1313.48 69.375,1313.23L70.214,1314.59L66.399,1326.15L65.025,1325.41C64.975,1324.92 64.924,1324.43 64.873,1323.93C64.822,1323.44 64.593,1322.95 64.186,1322.46C63.169,1321.06 61.592,1319.88 59.455,1318.89C57.319,1317.91 54.928,1317.41 52.283,1317.41C51.266,1317.41 50.299,1317.52 49.384,1317.72C48.468,1317.93 47.654,1318.28 46.942,1318.77C46.23,1319.26 45.671,1319.89 45.264,1320.67C44.857,1321.45 44.653,1322.42 44.653,1323.57C44.653,1325.37 45.276,1326.66 46.523,1327.44C47.769,1328.22 49.333,1328.84 51.215,1329.29C53.097,1329.74 55.132,1330.19 57.319,1330.64C59.506,1331.09 61.541,1331.85 63.423,1332.91C65.305,1333.98 66.869,1335.54 68.116,1337.59C69.362,1339.64 69.985,1342.47 69.985,1346.08C69.985,1349.69 69.438,1352.64 68.345,1354.94C67.251,1357.23 65.89,1359.04 64.262,1360.35C62.635,1361.66 60.842,1362.52 58.883,1362.93C56.925,1363.34 55.081,1363.55 53.351,1363.55C51.622,1363.55 49.905,1363.28 48.201,1362.75C46.497,1362.21 44.946,1361.6 43.547,1360.9C42.148,1360.21 40.965,1359.55 39.999,1358.93C39.032,1358.32 38.447,1358.01 38.244,1358.01C37.888,1358.01 37.583,1358.26 37.328,1358.75L36.26,1357.52L39.77,1343.74L41.22,1344.36ZM83.643,1344.36C83.643,1344.68 83.63,1345.03 83.605,1345.4C83.579,1345.77 83.566,1346.16 83.566,1346.57C83.566,1347.8 84.05,1348.93 85.016,1349.95C85.983,1350.98 87.14,1351.84 88.488,1352.54C89.836,1353.23 91.184,1353.79 92.532,1354.2C93.88,1354.61 94.935,1354.81 95.698,1354.81C96.41,1354.81 97.288,1354.73 98.331,1354.57C99.373,1354.4 100.403,1354.06 101.421,1353.52C102.438,1352.99 103.303,1352.25 104.015,1351.31C104.727,1350.36 105.083,1349.11 105.083,1347.56C105.083,1345.75 104.46,1344.44 103.214,1343.62C101.968,1342.8 100.403,1342.16 98.521,1341.71C96.639,1341.26 94.605,1340.81 92.417,1340.36C90.23,1339.91 88.195,1339.17 86.313,1338.14C84.431,1337.12 82.867,1335.64 81.621,1333.71C80.375,1331.79 79.751,1329.06 79.751,1325.53C79.751,1320.29 81.099,1316.1 83.795,1312.99C86.491,1309.87 90.281,1308.31 95.164,1308.31C97.555,1308.31 99.602,1308.62 101.306,1309.23C103.01,1309.85 104.447,1310.53 105.617,1311.26C106.787,1312 107.741,1312.68 108.479,1313.29C109.216,1313.91 109.763,1314.22 110.119,1314.22C110.526,1314.22 110.831,1314.11 111.035,1313.91C111.238,1313.7 111.492,1313.48 111.798,1313.23L112.637,1314.59L108.822,1326.15L107.449,1325.41C107.398,1324.92 107.347,1324.43 107.296,1323.93C107.245,1323.44 107.016,1322.95 106.609,1322.46C105.592,1321.06 104.015,1319.88 101.879,1318.89C99.742,1317.91 97.351,1317.41 94.706,1317.41C93.689,1317.41 92.723,1317.52 91.807,1317.72C90.891,1317.93 90.077,1318.28 89.365,1318.77C88.653,1319.26 88.094,1319.89 87.687,1320.67C87.28,1321.45 87.076,1322.42 87.076,1323.57C87.076,1325.37 87.699,1326.66 88.946,1327.44C90.192,1328.22 91.756,1328.84 93.638,1329.29C95.52,1329.74 97.555,1330.19 99.742,1330.64C101.929,1331.09 103.964,1331.85 105.846,1332.91C107.728,1333.98 109.292,1335.54 110.539,1337.59C111.785,1339.64 112.408,1342.47 112.408,1346.08C112.408,1349.69 111.861,1352.64 110.768,1354.94C109.674,1357.23 108.313,1359.04 106.686,1360.35C105.058,1361.66 103.265,1362.52 101.306,1362.93C99.348,1363.34 97.504,1363.55 95.775,1363.55C94.045,1363.55 92.328,1363.28 90.624,1362.75C88.92,1362.21 87.369,1361.6 85.97,1360.9C84.571,1360.21 83.388,1359.55 82.422,1358.93C81.455,1358.32 80.871,1358.01 80.667,1358.01C80.311,1358.01 80.006,1358.26 79.751,1358.75L78.683,1357.52L82.193,1343.74L83.643,1344.36ZM173.449,1311.26C172.94,1311.26 172.686,1311.63 172.686,1312.37C172.686,1312.7 172.775,1313.13 172.953,1313.66C173.131,1314.19 173.398,1314.95 173.754,1315.94L183.062,1343.62L192.447,1316.06C192.803,1315.08 193.083,1314.28 193.287,1313.66C193.49,1313.05 193.592,1312.62 193.592,1312.37C193.592,1311.63 193.388,1311.26 192.982,1311.26L192.982,1309.05L203.74,1309.05L203.74,1311.26C203.486,1311.26 203.244,1311.37 203.015,1311.57C202.786,1311.78 202.672,1312.21 202.672,1312.86L202.672,1359.12C202.672,1359.78 202.786,1360.25 203.015,1360.53C203.244,1360.82 203.486,1360.96 203.74,1360.96L203.74,1363.18L194.889,1363.18L194.889,1360.96C195.957,1360.96 196.415,1360.35 196.262,1359.12L196.262,1324.55L196.11,1324.55L183.139,1363.18L182.528,1363.18L170.244,1324.55L170.168,1324.55L170.168,1359.12C170.168,1360.35 170.6,1360.96 171.465,1360.96L171.465,1363.18L162.843,1363.18L162.843,1360.96C163.097,1360.88 163.313,1360.72 163.491,1360.47C163.669,1360.23 163.758,1359.65 163.758,1358.75L163.758,1313.72C163.758,1312.58 163.695,1311.88 163.568,1311.63C163.44,1311.39 163.199,1311.26 162.843,1311.26L162.843,1309.05L173.449,1309.05L173.449,1311.26ZM131.865,1360.96C132.119,1360.96 132.373,1360.82 132.628,1360.53C132.882,1360.25 133.009,1359.78 133.009,1359.12L133.009,1318.15L123.09,1318.15C122.683,1318.15 122.302,1318.32 121.946,1318.64C121.59,1318.97 121.412,1319.51 121.412,1320.24L120.038,1320.24L120.038,1306.1L121.412,1306.1C121.412,1307.24 121.59,1308.02 121.946,1308.43C122.302,1308.84 122.683,1309.05 123.09,1309.05L150.253,1309.05C150.66,1309.05 151.042,1308.84 151.398,1308.43C151.754,1308.02 151.932,1307.24 151.932,1306.1L153.305,1306.1L153.305,1320.24L151.932,1320.24C151.932,1319.51 151.754,1318.97 151.398,1318.64C151.042,1318.32 150.66,1318.15 150.253,1318.15L140.334,1318.15L140.334,1359.12C140.334,1360.35 140.792,1360.96 141.708,1360.96L141.708,1363.18L131.865,1363.18L131.865,1360.96ZM28.058,1286.9C28.058,1287.23 28.045,1287.58 28.02,1287.95C27.994,1288.32 27.982,1288.71 27.982,1289.12C27.982,1290.35 28.465,1291.48 29.431,1292.5C30.398,1293.53 31.555,1294.39 32.903,1295.09C34.251,1295.78 35.599,1296.34 36.947,1296.75C38.295,1297.16 39.35,1297.36 40.113,1297.36C40.825,1297.36 41.703,1297.28 42.746,1297.12C43.788,1296.95 44.818,1296.6 45.836,1296.07C46.853,1295.54 47.718,1294.8 48.43,1293.86C49.142,1292.91 49.498,1291.66 49.498,1290.1C49.498,1288.3 48.875,1286.99 47.629,1286.17C46.383,1285.35 44.818,1284.71 42.936,1284.26C41.054,1283.81 39.02,1283.36 36.832,1282.91C34.645,1282.45 32.61,1281.72 30.728,1280.69C28.846,1279.67 27.282,1278.19 26.036,1276.26C24.79,1274.34 24.166,1271.61 24.166,1268.08C24.166,1262.83 25.514,1258.65 28.21,1255.53C30.906,1252.42 34.696,1250.86 39.579,1250.86C41.97,1250.86 44.017,1251.17 45.721,1251.78C47.425,1252.4 48.862,1253.07 50.032,1253.81C51.202,1254.55 52.156,1255.23 52.894,1255.84C53.631,1256.46 54.178,1256.76 54.534,1256.76C54.941,1256.76 55.246,1256.66 55.45,1256.46C55.653,1256.25 55.908,1256.03 56.213,1255.78L57.052,1257.13L53.237,1268.7L51.864,1267.96C51.813,1267.47 51.762,1266.98 51.711,1266.48C51.66,1265.99 51.431,1265.5 51.024,1265.01C50.007,1263.61 48.43,1262.42 46.294,1261.44C44.157,1260.45 41.766,1259.96 39.121,1259.96C38.104,1259.96 37.138,1260.07 36.222,1260.27C35.306,1260.48 34.492,1260.82 33.78,1261.32C33.068,1261.81 32.509,1262.44 32.102,1263.22C31.695,1264 31.491,1264.96 31.491,1266.11C31.491,1267.92 32.114,1269.21 33.361,1269.99C34.607,1270.77 36.171,1271.38 38.053,1271.83C39.935,1272.29 41.97,1272.74 44.157,1273.19C46.345,1273.64 48.379,1274.4 50.261,1275.46C52.143,1276.53 53.708,1278.09 54.954,1280.14C56.2,1282.19 56.823,1285.02 56.823,1288.63C56.823,1292.24 56.276,1295.19 55.183,1297.48C54.089,1299.78 52.728,1301.59 51.101,1302.9C49.473,1304.21 47.68,1305.07 45.721,1305.48C43.763,1305.89 41.919,1306.1 40.19,1306.1C38.46,1306.1 36.743,1305.83 35.039,1305.3C33.335,1304.76 31.784,1304.15 30.385,1303.45C28.986,1302.75 27.803,1302.1 26.837,1301.48C25.871,1300.87 25.286,1300.56 25.082,1300.56C24.726,1300.56 24.421,1300.81 24.166,1301.3L23.098,1300.07L26.608,1286.29L28.058,1286.9ZM77.195,1301.67C77.195,1302.32 77.31,1302.8 77.539,1303.08C77.768,1303.37 78.035,1303.51 78.34,1303.51L78.34,1305.73L68.726,1305.73L68.726,1303.51C69.031,1303.51 69.298,1303.37 69.527,1303.08C69.756,1302.8 69.871,1302.32 69.871,1301.67L69.871,1255.66C69.871,1255 69.756,1254.53 69.527,1254.24C69.298,1253.95 69.031,1253.81 68.726,1253.81L68.726,1251.6L78.34,1251.6L78.34,1253.81C78.035,1253.81 77.768,1253.95 77.539,1254.24C77.31,1254.53 77.195,1255 77.195,1255.66L77.195,1273L97.644,1273L97.644,1255.66C97.644,1255 97.529,1254.53 97.301,1254.24C97.072,1253.95 96.805,1253.81 96.499,1253.81L96.499,1251.6L106.113,1251.6L106.113,1253.81C105.808,1253.81 105.541,1253.95 105.312,1254.24C105.083,1254.53 104.969,1255 104.969,1255.66L104.969,1301.67C104.969,1302.32 105.083,1302.8 105.312,1303.08C105.541,1303.37 105.808,1303.51 106.113,1303.51L106.113,1305.73L96.499,1305.73L96.499,1303.51C96.805,1303.51 97.072,1303.37 97.301,1303.08C97.529,1302.8 97.644,1302.32 97.644,1301.67L97.644,1283.09L77.195,1283.09L77.195,1301.67ZM178.446,1303.51C179.362,1303.51 179.82,1302.9 179.82,1301.67L179.82,1255.66C179.82,1254.43 179.362,1253.81 178.446,1253.81L178.446,1251.6L189.662,1251.6L189.662,1253.81C189.306,1253.89 189.128,1254.1 189.128,1254.43C189.128,1254.84 189.688,1255.94 190.807,1257.75L209.119,1289L209.119,1255.66C209.119,1254.43 208.61,1253.81 207.593,1253.81L207.593,1251.6L216.902,1251.6L216.902,1253.81C215.986,1253.81 215.528,1254.43 215.528,1255.66L215.528,1301.67C215.528,1302.9 215.986,1303.51 216.902,1303.51L216.902,1305.73L206.983,1305.73L206.983,1303.51C207.339,1303.51 207.517,1303.31 207.517,1302.9C207.517,1302.57 207.275,1302 206.792,1301.17C206.309,1300.36 205.762,1299.41 205.151,1298.35L186.229,1265.87L186.229,1301.67C186.229,1302.9 186.763,1303.51 187.831,1303.51L187.831,1305.73L178.446,1305.73L178.446,1303.51ZM123.815,1253.81C123.154,1253.81 122.823,1254.38 122.823,1255.53C122.823,1255.94 122.925,1256.58 123.128,1257.44C123.332,1258.3 123.586,1259.39 123.891,1260.7L130.606,1290.6L130.758,1290.6L137.244,1261.32C137.498,1260.17 137.74,1259.08 137.969,1258.06C138.198,1257.03 138.312,1256.19 138.312,1255.53C138.312,1254.38 137.905,1253.81 137.091,1253.81L137.091,1251.6L148.002,1251.6L148.002,1253.81C147.087,1253.81 146.629,1254.3 146.629,1255.29C146.629,1255.86 146.756,1256.7 147.01,1257.81C147.265,1258.92 147.519,1259.96 147.773,1260.95L154.488,1290.6L161.584,1260.7C161.838,1259.55 162.054,1258.55 162.232,1257.69C162.41,1256.83 162.499,1256.11 162.499,1255.53C162.499,1254.38 162.092,1253.81 161.279,1253.81L161.279,1251.6L170.969,1251.6L170.969,1253.81C170.104,1253.81 169.341,1255.33 168.68,1258.36L159.905,1295.88C159.6,1297.28 159.295,1298.53 158.99,1299.64C158.684,1300.74 158.532,1301.5 158.532,1301.91C158.532,1302.98 158.888,1303.51 159.6,1303.51L159.6,1305.73L148.918,1305.73L148.918,1303.51C149.325,1303.43 149.579,1303.29 149.681,1303.08C149.783,1302.88 149.834,1302.45 149.834,1301.79C149.834,1301.46 149.605,1300.23 149.147,1298.1C148.689,1295.97 148.091,1293.28 147.354,1290.04C146.616,1286.8 145.815,1283.17 144.95,1279.15C144.086,1275.13 143.246,1271.08 142.432,1266.98L142.28,1266.98C142.178,1267.71 141.898,1269.05 141.44,1270.97C140.983,1272.9 140.449,1275.12 139.838,1277.62C139.228,1280.12 138.579,1282.74 137.892,1285.49C137.206,1288.24 136.57,1290.78 135.985,1293.12C135.4,1295.45 134.917,1297.42 134.535,1299.02C134.154,1300.62 133.963,1301.54 133.963,1301.79C133.963,1302.45 134.039,1302.9 134.192,1303.14C134.345,1303.39 134.65,1303.51 135.108,1303.51L135.108,1305.73L125.723,1305.73L125.723,1303.51C125.926,1303.51 126.104,1303.47 126.257,1303.39C126.409,1303.31 126.486,1303.02 126.486,1302.53C126.486,1302.04 126.397,1301.4 126.218,1300.62C126.04,1299.84 125.901,1299.25 125.799,1298.84L115.727,1256.15C115.422,1254.84 114.888,1254.06 114.125,1253.81L114.125,1251.6L123.815,1251.6L123.815,1253.81Z" style="fill-rule:nonzero;"></path>
    </g>
    <g id="components" groupmode="layer" label="components">
        <circle cx="71.99999551779999" cy="39.22828020340308" r="5.589" style="fill:#ff00ff;" inkscape:label="light"></circle>
        <circle cx="71.999983042" cy="282.84739139688725" r="5.589" style="fill:#ff0000;" inkscape:label="knob"></circle>
        <circle cx="71.999983042" cy="212.42823355188722" r="5.589" style="fill:#0000ff;" inkscape:label="output2"></circle>
        <circle cx="71.999983042" cy="168.39725352388726" r="5.589" style="fill:#00ff00;" inkscape:label="input2"></circle>
        <circle cx="71.999983042" cy="108.66564255188723" r="5.589" style="fill:#0000ff;" inkscape:label="output1"></circle>
        <circle cx="71.999983042" cy="69.05247699388721" r="5.589" style="fill:#00ff00;" inkscape:label="input1"></circle>
        </g>
</svg>