<?xml version="1.0" encoding="UTF-8" standalone="no"?>
<!DOCTYPE svg PUBLIC "-//W3C//DTD SVG 1.1//EN" "http://www.w3.org/Graphics/SVG/1.1/DTD/svg11.dtd">
<svg width="100%" height="100%" viewBox="0 0 90 380" version="1.1" xmlns="http://www.w3.org/2000/svg" xmlns:xlink="http://www.w3.org/1999/xlink" xml:space="preserve" xmlns:serif="http://www.serif.com/" style="fill-rule:evenodd;clip-rule:evenodd;stroke-linecap:round;stroke-linejoin:round;stroke-miterlimit:1.5;">
    <g transform="matrix(0.539096,0,0,1.48634,-14.5469,-44.3619)">
        <rect x="26.984" y="29.846" width="166.946" height="255.662" style="fill:rgb(102,126,153);"/>
    </g>
    <g id="Label" transform="matrix(1,0,0,1,-13.1943,11.8096)">
        <g transform="matrix(1,0,0,1,58.164,339.27)">
            <g transform="matrix(0.8973,0,0,0.884326,9.28968,12.4373)">
                <circle cx="3.434" cy="5.159" r="2.172" style="stroke:black;stroke-width:0.94px;"/>
            </g>
            <g transform="matrix(0.8973,0,0,0.884326,4.54775,12.4373)">
                <circle cx="3.434" cy="5.159" r="2.172" style="fill:white;stroke:black;stroke-width:0.94px;"/>
            </g>
            <g transform="matrix(0.8973,0,0,0.884326,-0.194181,12.4373)">
                <circle cx="3.434" cy="5.159" r="2.172" style="stroke:black;stroke-width:0.94px;"/>
            </g>
            <g transform="matrix(0.8973,0,0,0.884326,14.0316,12.4373)">
                <circle cx="3.434" cy="5.159" r="2.172" style="stroke:black;stroke-width:0.94px;"/>
            </g>
            <g transform="matrix(0.8973,0,0,0.884326,9.28968,6.70878)">
                <circle cx="3.434" cy="5.159" r="2.172" style="fill:white;stroke:black;stroke-width:0.94px;"/>
            </g>
            <g transform="matrix(0.8973,0,0,0.884326,4.54775,6.70878)">
                <circle cx="3.434" cy="5.159" r="2.172" style="stroke:black;stroke-width:0.94px;"/>
            </g>
            <g transform="matrix(0.8973,0,0,0.884326,-0.194181,6.70878)">
                <circle cx="3.434" cy="5.159" r="2.172" style="stroke:black;stroke-width:0.94px;"/>
            </g>
            <g transform="matrix(0.8973,0,0,0.884326,14.0316,6.70878)">
                <circle cx="3.434" cy="5.159" r="2.172" style="fill:white;stroke:black;stroke-width:0.94px;"/>
            </g>
            <g transform="matrix(0.8973,0,0,0.884326,9.28968,0.980236)">
                <circle cx="3.434" cy="5.159" r="2.172" style="fill:white;stroke:black;stroke-width:0.94px;"/>
            </g>
            <g transform="matrix(0.8973,0,0,0.884326,4.54775,0.980236)">
                <circle cx="3.434" cy="5.159" r="2.172" style="fill:white;stroke:black;stroke-width:0.94px;"/>
            </g>
            <g transform="matrix(0.8973,0,0,0.884326,-0.194181,0.980236)">
                <circle cx="3.434" cy="5.159" r="2.172" style="stroke:black;stroke-width:0.94px;"/>
            </g>
            <g transform="matrix(0.8973,0,0,0.884326,14.0316,0.980236)">
                <circle cx="3.434" cy="5.159" r="2.172" style="stroke:black;stroke-width:0.94px;"/>
            </g>
        </g>
        <g transform="matrix(0.0178906,0,0,0.0202937,37.7207,339.525)">
            <g transform="matrix(1,0,0,1,-143.343,98.6554)">
                <ellipse cx="360.896" cy="293.762" rx="136.961" ry="230.443" style="fill:rgb(102,126,153);stroke:black;stroke-width:63.81px;"/>
            </g>
            <g transform="matrix(1,0,0,1,445.551,98.6554)">
                <ellipse cx="360.896" cy="293.762" rx="136.961" ry="230.443" style="fill:rgb(102,126,153);stroke:black;stroke-width:63.81px;"/>
            </g>
            <g transform="matrix(1,0,0,1,-34.3236,-20.6488)">
                <ellipse cx="546.324" cy="643.509" rx="431.408" ry="296.899" style="fill:rgb(102,126,153);stroke:black;stroke-width:63.81px;"/>
            </g>
            <circle cx="406.664" cy="569.758" r="105.336" style="fill:rgb(102,126,153);stroke:black;stroke-width:63.81px;"/>
            <g transform="matrix(1,0,0,1,210.672,0)">
                <circle cx="406.664" cy="569.758" r="105.336" style="fill:rgb(102,126,153);stroke:black;stroke-width:63.81px;"/>
            </g>
            <g transform="matrix(1,0,0,1,-53.1856,50.0357)">
                <ellipse cx="565.186" cy="671.455" rx="210.672" ry="98.631" style="fill:rgb(102,126,153);stroke:black;stroke-width:63.81px;"/>
            </g>
            <g transform="matrix(51.2,0,0,45.1371,0.670978,88.9676)">
                <path d="M12.057,13.791C12.057,13.668 11.958,13.568 11.835,13.568L8.139,13.568C8.016,13.568 7.916,13.668 7.916,13.791L7.916,14.236C7.916,14.359 8.016,14.458 8.139,14.458L11.835,14.458C11.958,14.458 12.057,14.359 12.057,14.236L12.057,13.791Z"/>
            </g>
        </g>
    </g>
    <g id="BusOut-led" serif:id="BusOut#led" transform="matrix(1,0,0,1,33.1865,10.8256)">
        <circle cx="42.167" cy="335.861" r="3.82" style="fill:rgb(230,230,230);"/>
    </g>
    <g id="Number-lcd-3" serif:id="Number#lcd$3" transform="matrix(0.77953,0,0,0.846667,-123.914,74.201)">
        <rect x="173.071" y="291.218" width="64.141" height="28.346" style="fill:rgb(13,13,13);"/>
    </g>
    <g transform="matrix(0.75,0,0,1,-44.1572,137.758)">
        <g transform="matrix(0.3556,0,0,72.8139,113.926,-21717.6)">
            <rect x="13.921" y="296.737" width="168.729" height="3.935" style="fill:rgb(191,191,191);"/>
        </g>
        <g id="Bit8">
            <g transform="matrix(0.889369,0,0,0.695794,2.52831,112.334)">
                <rect x="161.957" y="57.989" width="36.327" height="2.261"/>
            </g>
            <g id="Indicator-led" serif:id="Indicator#led" transform="matrix(1.33333,0,0,1,90.3461,-182.392)">
                <circle cx="42.167" cy="335.861" r="3.82" style="fill:rgb(230,230,230);"/>
            </g>
        </g>
        <g id="Bit7">
            <g transform="matrix(0.889369,0,0,0.695794,2.52831,78.6945)">
                <rect x="161.957" y="57.989" width="36.327" height="2.261"/>
            </g>
            <g id="Indicator-led1" serif:id="Indicator#led" transform="matrix(1.33333,0,0,1,90.3461,-216.032)">
                <circle cx="42.167" cy="335.861" r="3.82" style="fill:rgb(230,230,230);"/>
            </g>
        </g>
        <g id="Bit6">
            <g transform="matrix(0.889369,0,0,0.695794,2.52831,43.3266)">
                <rect x="161.957" y="57.989" width="36.327" height="2.261"/>
            </g>
            <g id="Indicator-led2" serif:id="Indicator#led" transform="matrix(1.33333,0,0,1,90.3461,-251.4)">
                <circle cx="42.167" cy="335.861" r="3.82" style="fill:rgb(230,230,230);"/>
            </g>
        </g>
        <g id="Bit5">
            <g transform="matrix(0.889369,0,0,0.695794,2.52831,8.01938)">
                <rect x="161.957" y="57.989" width="36.327" height="2.261"/>
            </g>
            <g id="Indicator-led3" serif:id="Indicator#led" transform="matrix(1.33333,0,0,1,90.3461,-286.707)">
                <circle cx="42.167" cy="335.861" r="3.82" style="fill:rgb(230,230,230);"/>
            </g>
        </g>
        <g id="Bit4">
            <g transform="matrix(0.889369,0,0,0.695794,2.52831,-25.4274)">
                <rect x="161.957" y="57.989" width="36.327" height="2.261"/>
            </g>
            <g id="Indicator-led4" serif:id="Indicator#led" transform="matrix(1.33333,0,0,1,90.3461,-320.153)">
                <circle cx="42.167" cy="335.861" r="3.82" style="fill:rgb(230,230,230);"/>
            </g>
        </g>
        <g id="Bit3" transform="matrix(1,0,0,1,7.81597e-14,34.7756)">
            <g transform="matrix(0.889369,0,0,0.695794,2.52831,-94.9785)">
                <rect x="161.957" y="57.989" width="36.327" height="2.261"/>
            </g>
            <g id="Indicator-led5" serif:id="Indicator#led" transform="matrix(1.33333,0,0,1,90.3461,-389.705)">
                <circle cx="42.167" cy="335.861" r="3.82" style="fill:rgb(230,230,230);"/>
            </g>
        </g>
        <g id="Bit2">
            <g transform="matrix(0.889369,0,0,0.695794,2.52831,-94.5002)">
                <rect x="161.957" y="57.989" width="36.327" height="2.261"/>
            </g>
            <g id="Indicator-led6" serif:id="Indicator#led" transform="matrix(1.33333,0,0,1,90.3461,-389.298)">
                <circle cx="42.167" cy="335.861" r="3.82" style="fill:rgb(230,230,230);"/>
            </g>
        </g>
        <g id="Bit1">
            <g transform="matrix(0.889369,0,0,0.695794,2.52831,-130.158)">
                <rect x="161.957" y="57.989" width="36.327" height="2.261"/>
            </g>
            <g id="Indicator-led7" serif:id="Indicator#led" transform="matrix(1.33333,0,0,1,90.3461,-424.884)">
                <circle cx="42.167" cy="335.861" r="3.82" style="fill:rgb(230,230,230);"/>
            </g>
        </g>
    </g>
    <g transform="matrix(1,0,0,1,7.10543e-15,83.4395)">
        <g id="Reset-input" serif:id="Reset#input" transform="matrix(0.175002,0,0,0.175002,0.560398,137.097)">
            <rect x="53.94" y="106.916" width="161.978" height="161.978" style="fill:rgb(204,204,204);"/>
        </g>
        <g transform="matrix(1,0,0,1,-76.6696,31.2375)">
            <path d="M93.138,118.306L93.138,113.236L94.158,113.236L94.158,113.776C94.365,113.59 94.568,113.443 94.768,113.336C94.968,113.23 95.215,113.176 95.508,113.176L95.508,114.256C95.408,114.216 95.305,114.196 95.198,114.196C95.091,114.196 94.976,114.215 94.853,114.251C94.73,114.288 94.618,114.35 94.518,114.436C94.411,114.523 94.325,114.636 94.258,114.776C94.191,114.916 94.158,115.09 94.158,115.296L94.158,118.306L93.138,118.306Z" style="fill-rule:nonzero;"/>
            <path d="M98.868,116.156L96.848,116.156L96.848,116.846C96.848,117.006 96.893,117.13 96.983,117.216C97.073,117.303 97.195,117.346 97.348,117.346C97.541,117.346 97.67,117.29 97.733,117.176C97.796,117.063 97.835,116.95 97.848,116.836L98.868,116.836C98.868,117.283 98.731,117.643 98.458,117.916C98.325,118.056 98.165,118.166 97.978,118.246C97.791,118.326 97.581,118.366 97.348,118.366C97.028,118.366 96.756,118.3 96.533,118.166C96.31,118.033 96.138,117.856 96.018,117.636C95.945,117.503 95.895,117.35 95.868,117.176C95.841,117.003 95.828,116.813 95.828,116.606L95.828,114.936C95.828,114.73 95.841,114.54 95.868,114.366C95.895,114.193 95.945,114.04 96.018,113.906C96.138,113.686 96.31,113.51 96.533,113.376C96.756,113.243 97.028,113.176 97.348,113.176C97.581,113.176 97.793,113.216 97.983,113.296C98.173,113.376 98.335,113.486 98.468,113.626C98.735,113.926 98.868,114.303 98.868,114.756L98.868,116.156ZM96.848,115.356L97.848,115.356L97.848,114.776C97.848,114.583 97.803,114.438 97.713,114.341C97.623,114.245 97.501,114.196 97.348,114.196C97.195,114.196 97.073,114.245 96.983,114.341C96.893,114.438 96.848,114.583 96.848,114.776L96.848,115.356Z" style="fill-rule:nonzero;"/>
            <path d="M101.468,114.656C101.461,114.483 101.406,114.353 101.303,114.266C101.2,114.18 101.081,114.136 100.948,114.136C100.788,114.136 100.665,114.188 100.578,114.291C100.491,114.395 100.448,114.513 100.448,114.646C100.448,114.74 100.471,114.831 100.518,114.921C100.565,115.011 100.685,115.093 100.878,115.166L101.478,115.406C101.858,115.553 102.12,115.753 102.263,116.006C102.406,116.26 102.478,116.536 102.478,116.836C102.478,117.05 102.44,117.248 102.363,117.431C102.286,117.615 102.181,117.776 102.048,117.916C101.915,118.056 101.755,118.166 101.568,118.246C101.381,118.326 101.178,118.366 100.958,118.366C100.545,118.366 100.198,118.236 99.918,117.976C99.778,117.85 99.665,117.691 99.578,117.501C99.491,117.311 99.445,117.09 99.438,116.836L100.398,116.836C100.418,116.976 100.466,117.106 100.543,117.226C100.62,117.346 100.755,117.406 100.948,117.406C101.095,117.406 101.226,117.358 101.343,117.261C101.46,117.165 101.518,117.03 101.518,116.856C101.518,116.716 101.481,116.596 101.408,116.496C101.335,116.396 101.201,116.31 101.008,116.236L100.518,116.056C100.198,115.936 99.946,115.758 99.763,115.521C99.58,115.285 99.488,114.996 99.488,114.656C99.488,114.443 99.528,114.245 99.608,114.061C99.688,113.878 99.798,113.72 99.938,113.586C100.071,113.453 100.228,113.351 100.408,113.281C100.588,113.211 100.781,113.176 100.988,113.176C101.195,113.176 101.386,113.213 101.563,113.286C101.74,113.36 101.891,113.463 102.018,113.596C102.145,113.73 102.245,113.888 102.318,114.071C102.391,114.255 102.428,114.45 102.428,114.656L101.468,114.656Z" style="fill-rule:nonzero;"/>
            <path d="M106.088,116.156L104.068,116.156L104.068,116.846C104.068,117.006 104.113,117.13 104.203,117.216C104.293,117.303 104.415,117.346 104.568,117.346C104.761,117.346 104.89,117.29 104.953,117.176C105.016,117.063 105.055,116.95 105.068,116.836L106.088,116.836C106.088,117.283 105.951,117.643 105.678,117.916C105.545,118.056 105.385,118.166 105.198,118.246C105.011,118.326 104.801,118.366 104.568,118.366C104.248,118.366 103.976,118.3 103.753,118.166C103.53,118.033 103.358,117.856 103.238,117.636C103.165,117.503 103.115,117.35 103.088,117.176C103.061,117.003 103.048,116.813 103.048,116.606L103.048,114.936C103.048,114.73 103.061,114.54 103.088,114.366C103.115,114.193 103.165,114.04 103.238,113.906C103.358,113.686 103.53,113.51 103.753,113.376C103.976,113.243 104.248,113.176 104.568,113.176C104.801,113.176 105.013,113.216 105.203,113.296C105.393,113.376 105.555,113.486 105.688,113.626C105.955,113.926 106.088,114.303 106.088,114.756L106.088,116.156ZM104.068,115.356L105.068,115.356L105.068,114.776C105.068,114.583 105.023,114.438 104.933,114.341C104.843,114.245 104.721,114.196 104.568,114.196C104.415,114.196 104.293,114.245 104.203,114.341C104.113,114.438 104.068,114.583 104.068,114.776L104.068,115.356Z" style="fill-rule:nonzero;"/>
            <path d="M106.838,113.236L106.838,111.696L107.858,111.696L107.858,113.236L108.488,113.236L108.488,114.036L107.858,114.036L107.858,116.846C107.858,116.966 107.87,117.06 107.893,117.126C107.916,117.193 107.955,117.243 108.008,117.276C108.061,117.31 108.126,117.33 108.203,117.336C108.28,117.343 108.375,117.346 108.488,117.346L108.488,118.306L108.068,118.306C107.835,118.306 107.64,118.27 107.483,118.196C107.326,118.123 107.201,118.03 107.108,117.916C107.015,117.803 106.946,117.675 106.903,117.531C106.86,117.388 106.838,117.25 106.838,117.116L106.838,114.036L106.328,114.036L106.328,113.236L106.838,113.236Z" style="fill-rule:nonzero;"/>
        </g>
        <g transform="matrix(1,0,0,1,-76.6696,31.2375)">
            <text x="92.718px" y="118.306px" style="font-family:'DINCondensed-Bold', 'DIN Condensed';font-weight:700;font-stretch:condensed;font-size:10px;">reset</text>
        </g>
    </g>
    <g>
        <g id="Down-input" serif:id="Down#input" transform="matrix(0.175002,0,0,0.175002,0.560398,137.097)">
            <rect x="53.94" y="106.916" width="161.978" height="161.978" style="fill:rgb(204,204,204);"/>
        </g>
        <g transform="matrix(1,0,0,1,-76.6696,31.2375)">
            <path d="M93.638,116.656C93.638,116.863 93.678,117.03 93.758,117.156C93.838,117.283 93.965,117.346 94.138,117.346C94.291,117.346 94.415,117.288 94.508,117.171C94.601,117.055 94.648,116.903 94.648,116.716L94.648,114.746C94.648,114.586 94.6,114.455 94.503,114.351C94.406,114.248 94.285,114.196 94.138,114.196C93.945,114.196 93.813,114.256 93.743,114.376C93.673,114.496 93.638,114.636 93.638,114.796L93.638,116.656ZM94.648,118.306L94.648,117.846C94.581,117.92 94.518,117.988 94.458,118.051C94.398,118.115 94.331,118.17 94.258,118.216C94.185,118.263 94.101,118.3 94.008,118.326C93.915,118.353 93.805,118.366 93.678,118.366C93.251,118.366 92.955,118.206 92.788,117.886C92.728,117.773 92.685,117.633 92.658,117.466C92.631,117.3 92.618,117.076 92.618,116.796L92.618,114.866C92.618,114.5 92.628,114.23 92.648,114.056C92.688,113.723 92.845,113.473 93.118,113.306C93.245,113.22 93.435,113.176 93.688,113.176C93.888,113.176 94.066,113.221 94.223,113.311C94.38,113.401 94.515,113.53 94.628,113.696L94.648,113.696L94.648,111.186L95.668,111.186L95.668,118.306L94.648,118.306Z" style="fill-rule:nonzero;"/>
            <path d="M96.418,114.936C96.418,114.73 96.431,114.54 96.458,114.366C96.485,114.193 96.535,114.04 96.608,113.906C96.728,113.686 96.9,113.51 97.123,113.376C97.346,113.243 97.618,113.176 97.938,113.176C98.258,113.176 98.53,113.243 98.753,113.376C98.976,113.51 99.148,113.686 99.268,113.906C99.341,114.04 99.391,114.193 99.418,114.366C99.445,114.54 99.458,114.73 99.458,114.936L99.458,116.606C99.458,116.813 99.445,117.003 99.418,117.176C99.391,117.35 99.341,117.503 99.268,117.636C99.148,117.856 98.976,118.033 98.753,118.166C98.53,118.3 98.258,118.366 97.938,118.366C97.618,118.366 97.346,118.3 97.123,118.166C96.9,118.033 96.728,117.856 96.608,117.636C96.535,117.503 96.485,117.35 96.458,117.176C96.431,117.003 96.418,116.813 96.418,116.606L96.418,114.936ZM97.438,116.766C97.438,116.96 97.483,117.105 97.573,117.201C97.663,117.298 97.785,117.346 97.938,117.346C98.091,117.346 98.213,117.298 98.303,117.201C98.393,117.105 98.438,116.96 98.438,116.766L98.438,114.776C98.438,114.583 98.393,114.438 98.303,114.341C98.213,114.245 98.091,114.196 97.938,114.196C97.785,114.196 97.663,114.245 97.573,114.341C97.483,114.438 97.438,114.583 97.438,114.776L97.438,116.766Z" style="fill-rule:nonzero;"/>
            <path d="M105.078,113.236L103.878,118.306L102.978,118.306L102.418,115.296L102.398,115.296L101.838,118.306L100.938,118.306L99.738,113.236L100.818,113.236L101.438,116.386L101.458,116.386L102.028,113.236L102.828,113.236L103.368,116.386L103.388,116.386L103.998,113.236L105.078,113.236Z" style="fill-rule:nonzero;"/>
            <path d="M105.508,118.306L105.508,113.236L106.528,113.236L106.528,113.726L106.548,113.726C106.655,113.566 106.783,113.435 106.933,113.331C107.083,113.228 107.275,113.176 107.508,113.176C107.635,113.176 107.761,113.198 107.888,113.241C108.015,113.285 108.128,113.356 108.228,113.456C108.328,113.556 108.408,113.685 108.468,113.841C108.528,113.998 108.558,114.19 108.558,114.416L108.558,118.306L107.538,118.306L107.538,114.796C107.538,114.61 107.495,114.463 107.408,114.356C107.321,114.25 107.198,114.196 107.038,114.196C106.845,114.196 106.711,114.256 106.638,114.376C106.565,114.496 106.528,114.67 106.528,114.896L106.528,118.306L105.508,118.306Z" style="fill-rule:nonzero;"/>
        </g>
        <g transform="matrix(1,0,0,1,-76.6696,31.2375)">
            <text x="92.198px" y="118.306px" style="font-family:'DINCondensed-Bold', 'DIN Condensed';font-weight:700;font-stretch:condensed;font-size:10px;">down</text>
        </g>
    </g>
    <g transform="matrix(1,0,0,1,7.10543e-15,-55.7998)">
        <g id="Up-input" serif:id="Up#input" transform="matrix(0.175002,0,0,0.175002,0.560398,137.097)">
            <rect x="53.94" y="106.916" width="161.978" height="161.978" style="fill:rgb(204,204,204);"/>
        </g>
        <g transform="matrix(1,0,0,1,-76.6696,31.2375)">
            <path d="M100.168,113.236L100.168,118.306L99.148,118.306L99.148,117.816L99.128,117.816C99.021,117.976 98.893,118.108 98.743,118.211C98.593,118.315 98.401,118.366 98.168,118.366C98.041,118.366 97.915,118.345 97.788,118.301C97.661,118.258 97.548,118.186 97.448,118.086C97.348,117.986 97.268,117.858 97.208,117.701C97.148,117.545 97.118,117.353 97.118,117.126L97.118,113.236L98.138,113.236L98.138,116.746C98.138,116.933 98.181,117.08 98.268,117.186C98.355,117.293 98.478,117.346 98.638,117.346C98.831,117.346 98.965,117.286 99.038,117.166C99.111,117.046 99.148,116.873 99.148,116.646L99.148,113.236L100.168,113.236Z" style="fill-rule:nonzero;"/>
            <path d="M101.008,120.356L101.008,113.236L102.028,113.236L102.028,113.696C102.155,113.55 102.285,113.426 102.418,113.326C102.551,113.226 102.745,113.176 102.998,113.176C103.418,113.176 103.715,113.336 103.888,113.656C103.948,113.77 103.991,113.91 104.018,114.076C104.045,114.243 104.058,114.466 104.058,114.746L104.058,116.676C104.058,117.05 104.048,117.32 104.028,117.486C103.988,117.82 103.835,118.07 103.568,118.236C103.435,118.323 103.241,118.366 102.988,118.366C102.788,118.366 102.61,118.321 102.453,118.231C102.296,118.141 102.161,118.013 102.048,117.846L102.028,117.846L102.028,120.356L101.008,120.356ZM103.038,114.886C103.038,114.68 102.998,114.513 102.918,114.386C102.838,114.26 102.711,114.196 102.538,114.196C102.385,114.196 102.261,114.255 102.168,114.371C102.075,114.488 102.028,114.64 102.028,114.826L102.028,116.796C102.028,116.956 102.076,117.088 102.173,117.191C102.27,117.295 102.391,117.346 102.538,117.346C102.731,117.346 102.863,117.286 102.933,117.166C103.003,117.046 103.038,116.906 103.038,116.746L103.038,114.886Z" style="fill-rule:nonzero;"/>
        </g>
        <g transform="matrix(1,0,0,1,-76.6696,31.2375)">
            <text x="96.698px" y="118.306px" style="font-family:'DINCondensed-Bold', 'DIN Condensed';font-weight:700;font-stretch:condensed;font-size:10px;">up</text>
        </g>
    </g>
    <g transform="matrix(1,0,0,1,15,0)">
        <g transform="matrix(1,0,0,1,49.0135,-4.53575)">
            <path d="M-36.126,23.656C-36.206,23.656 -36.314,23.66 -36.45,23.668C-36.586,23.676 -36.732,23.682 -36.888,23.686C-37.044,23.69 -37.204,23.696 -37.368,23.704C-37.532,23.712 -37.682,23.716 -37.818,23.716C-38.354,23.716 -38.878,23.634 -39.39,23.47C-39.902,23.306 -40.356,23.05 -40.752,22.702C-41.148,22.354 -41.468,21.906 -41.712,21.358C-41.956,20.81 -42.078,20.152 -42.078,19.384C-42.078,18.68 -41.944,18.056 -41.676,17.512C-41.408,16.968 -41.054,16.512 -40.614,16.144C-40.174,15.776 -39.678,15.496 -39.126,15.304C-38.574,15.112 -38.01,15.016 -37.434,15.016C-37.306,15.016 -37.132,15.024 -36.912,15.04C-36.692,15.056 -36.472,15.076 -36.252,15.1C-36.032,15.124 -35.836,15.15 -35.664,15.178C-35.492,15.206 -35.382,15.232 -35.334,15.256C-35.23,14.976 -35.114,14.728 -34.986,14.512C-34.858,14.296 -34.682,14.132 -34.458,14.02C-34.394,13.996 -34.322,13.992 -34.242,14.008C-34.162,14.024 -34.122,14.064 -34.122,14.128C-34.162,14.2 -34.192,14.244 -34.212,14.26C-34.232,14.276 -34.258,14.284 -34.29,14.284C-34.386,14.284 -34.48,14.328 -34.572,14.416C-34.664,14.504 -34.75,14.618 -34.83,14.758C-34.91,14.898 -34.98,15.058 -35.04,15.238C-35.1,15.418 -35.146,15.6 -35.178,15.784C-35.194,15.872 -35.212,15.974 -35.232,16.09C-35.252,16.206 -35.27,16.32 -35.286,16.432C-35.302,16.544 -35.314,16.652 -35.322,16.756C-35.33,16.86 -35.334,16.948 -35.334,17.02C-35.334,17.06 -35.35,17.094 -35.382,17.122C-35.414,17.15 -35.446,17.164 -35.478,17.164C-35.526,17.164 -35.582,17.14 -35.646,17.092C-35.678,16.892 -35.744,16.692 -35.844,16.492C-35.944,16.292 -36.084,16.112 -36.264,15.952C-36.444,15.792 -36.668,15.664 -36.936,15.568C-37.204,15.472 -37.522,15.424 -37.89,15.424C-38.282,15.424 -38.632,15.516 -38.94,15.7C-39.248,15.884 -39.508,16.136 -39.72,16.456C-39.932,16.776 -40.094,17.156 -40.206,17.596C-40.318,18.036 -40.374,18.508 -40.374,19.012C-40.374,19.708 -40.304,20.326 -40.164,20.866C-40.024,21.406 -39.83,21.864 -39.582,22.24C-39.334,22.616 -39.038,22.902 -38.694,23.098C-38.35,23.294 -37.974,23.392 -37.566,23.392C-37.294,23.392 -37.028,23.348 -36.768,23.26C-36.508,23.172 -36.268,23.052 -36.048,22.9C-35.828,22.748 -35.632,22.572 -35.46,22.372C-35.288,22.172 -35.154,21.96 -35.058,21.736C-35.042,21.704 -35,21.68 -34.932,21.664C-34.864,21.648 -34.83,21.656 -34.83,21.688C-34.83,21.792 -34.864,21.934 -34.932,22.114C-35,22.294 -35.078,22.474 -35.166,22.654C-35.254,22.834 -35.342,22.998 -35.43,23.146C-35.518,23.294 -35.578,23.392 -35.61,23.44C-35.634,23.496 -35.664,23.57 -35.7,23.662C-35.736,23.754 -35.768,23.858 -35.796,23.974C-35.824,24.09 -35.85,24.21 -35.874,24.334C-35.898,24.458 -35.91,24.58 -35.91,24.7C-35.91,24.828 -35.926,24.908 -35.958,24.94C-35.99,24.972 -36.058,24.988 -36.162,24.988C-36.25,24.988 -36.29,24.926 -36.282,24.802C-36.274,24.678 -36.254,24.536 -36.222,24.376C-36.19,24.216 -36.158,24.066 -36.126,23.926C-36.094,23.786 -36.094,23.696 -36.126,23.656Z" style="fill-rule:nonzero;"/>
            <path d="M-29.502,22.636C-29.59,22.708 -29.71,22.804 -29.862,22.924C-30.014,23.044 -30.19,23.164 -30.39,23.284C-30.59,23.404 -30.81,23.506 -31.05,23.59C-31.29,23.674 -31.542,23.716 -31.806,23.716C-32.206,23.716 -32.562,23.646 -32.874,23.506C-33.186,23.366 -33.448,23.178 -33.66,22.942C-33.872,22.706 -34.032,22.428 -34.14,22.108C-34.248,21.788 -34.302,21.448 -34.302,21.088C-34.302,20.664 -34.238,20.288 -34.11,19.96C-33.982,19.632 -33.824,19.346 -33.636,19.102C-33.448,18.858 -33.246,18.654 -33.03,18.49C-32.814,18.326 -32.618,18.196 -32.442,18.1C-32.362,18.052 -32.26,18 -32.136,17.944C-32.012,17.888 -31.876,17.836 -31.728,17.788C-31.58,17.74 -31.42,17.698 -31.248,17.662C-31.076,17.626 -30.898,17.608 -30.714,17.608C-30.37,17.608 -30.036,17.652 -29.712,17.74C-29.388,17.828 -29.102,17.966 -28.854,18.154C-28.606,18.342 -28.406,18.584 -28.254,18.88C-28.102,19.176 -28.026,19.532 -28.026,19.948C-28.026,20.284 -28.088,20.6 -28.212,20.896C-28.336,21.192 -28.482,21.456 -28.65,21.688C-28.818,21.92 -28.984,22.118 -29.148,22.282C-29.312,22.446 -29.43,22.564 -29.502,22.636ZM-30.858,22.828C-30.402,22.828 -30.052,22.656 -29.808,22.312C-29.564,21.968 -29.442,21.44 -29.442,20.728C-29.442,20.368 -29.492,20.034 -29.592,19.726C-29.692,19.418 -29.832,19.148 -30.012,18.916C-30.192,18.684 -30.402,18.502 -30.642,18.37C-30.882,18.238 -31.142,18.172 -31.422,18.172C-31.622,18.172 -31.812,18.224 -31.992,18.328C-32.172,18.432 -32.33,18.582 -32.466,18.778C-32.602,18.974 -32.71,19.212 -32.79,19.492C-32.87,19.772 -32.91,20.088 -32.91,20.44C-32.91,20.816 -32.852,21.152 -32.736,21.448C-32.62,21.744 -32.466,21.994 -32.274,22.198C-32.082,22.402 -31.864,22.558 -31.62,22.666C-31.376,22.774 -31.122,22.828 -30.858,22.828Z" style="fill-rule:nonzero;"/>
            <path d="M-27.522,18.64C-27.586,18.624 -27.616,18.592 -27.612,18.544C-27.608,18.496 -27.578,18.468 -27.522,18.46C-27.498,18.452 -27.422,18.424 -27.294,18.376C-27.166,18.328 -27.012,18.272 -26.832,18.208C-26.652,18.144 -26.464,18.076 -26.268,18.004C-26.072,17.932 -25.898,17.872 -25.746,17.824C-25.65,17.792 -25.584,17.77 -25.548,17.758C-25.512,17.746 -25.482,17.74 -25.458,17.74C-25.434,17.74 -25.406,17.75 -25.374,17.77C-25.342,17.79 -25.334,17.82 -25.35,17.86C-25.374,17.924 -25.4,18.076 -25.428,18.316C-25.456,18.556 -25.482,18.822 -25.506,19.114C-25.53,19.406 -25.552,19.696 -25.572,19.984C-25.592,20.272 -25.602,20.5 -25.602,20.668C-25.602,21.308 -25.466,21.802 -25.194,22.15C-24.922,22.498 -24.498,22.672 -23.922,22.672C-23.626,22.672 -23.38,22.612 -23.184,22.492C-22.988,22.372 -22.838,22.232 -22.734,22.072C-22.662,21.968 -22.614,21.74 -22.59,21.388C-22.59,21.324 -22.588,21.24 -22.584,21.136C-22.58,21.032 -22.576,20.922 -22.572,20.806C-22.568,20.69 -22.564,20.578 -22.56,20.47C-22.556,20.362 -22.554,20.272 -22.554,20.2C-22.546,19.832 -22.556,19.49 -22.584,19.174C-22.612,18.858 -22.654,18.624 -22.71,18.472C-22.734,18.376 -22.782,18.328 -22.854,18.328C-22.902,18.328 -22.948,18.33 -22.992,18.334C-23.036,18.338 -23.062,18.304 -23.07,18.232C-23.07,18.208 -23.046,18.182 -22.998,18.154C-22.95,18.126 -22.858,18.084 -22.722,18.028C-22.594,17.98 -22.452,17.932 -22.296,17.884C-22.14,17.836 -21.986,17.796 -21.834,17.764C-21.682,17.732 -21.546,17.71 -21.426,17.698C-21.306,17.686 -21.218,17.692 -21.162,17.716C-21.162,17.724 -21.156,17.734 -21.144,17.746C-21.132,17.758 -21.122,17.784 -21.114,17.824C-21.098,17.872 -21.108,18.022 -21.144,18.274C-21.18,18.526 -21.218,18.936 -21.258,19.504C-21.29,19.896 -21.318,20.276 -21.342,20.644C-21.366,21.012 -21.378,21.292 -21.378,21.484C-21.378,21.86 -21.308,22.158 -21.168,22.378C-21.028,22.598 -20.854,22.708 -20.646,22.708C-20.51,22.708 -20.38,22.68 -20.256,22.624C-20.132,22.568 -20.042,22.52 -19.986,22.48C-19.922,22.48 -19.888,22.508 -19.884,22.564C-19.88,22.62 -19.894,22.656 -19.926,22.672C-20.046,22.752 -20.212,22.852 -20.424,22.972C-20.636,23.092 -20.856,23.206 -21.084,23.314C-21.312,23.422 -21.53,23.514 -21.738,23.59C-21.946,23.666 -22.114,23.704 -22.242,23.704C-22.306,23.704 -22.364,23.662 -22.416,23.578C-22.468,23.494 -22.51,23.392 -22.542,23.272C-22.574,23.152 -22.598,23.028 -22.614,22.9C-22.63,22.772 -22.638,22.66 -22.638,22.564C-22.806,22.684 -22.998,22.81 -23.214,22.942C-23.43,23.074 -23.654,23.198 -23.886,23.314C-24.118,23.43 -24.348,23.524 -24.576,23.596C-24.804,23.668 -25.014,23.704 -25.206,23.704C-25.694,23.704 -26.094,23.574 -26.406,23.314C-26.718,23.054 -26.874,22.716 -26.874,22.3C-26.874,22.212 -26.866,22.08 -26.85,21.904C-26.834,21.728 -26.814,21.528 -26.79,21.304C-26.766,21.08 -26.746,20.84 -26.73,20.584C-26.714,20.328 -26.706,20.08 -26.706,19.84C-26.706,19.472 -26.764,19.19 -26.88,18.994C-26.996,18.798 -27.146,18.688 -27.33,18.664L-27.522,18.64Z" style="fill-rule:nonzero;"/>
            <path d="M-18.018,20.428C-18.026,20.5 -18.034,20.564 -18.042,20.62C-18.05,20.676 -18.056,20.74 -18.06,20.812C-18.064,20.884 -18.068,20.974 -18.072,21.082C-18.076,21.19 -18.078,21.332 -18.078,21.508C-18.078,21.796 -18.068,22.032 -18.048,22.216C-18.028,22.4 -17.998,22.546 -17.958,22.654C-17.918,22.762 -17.868,22.836 -17.808,22.876C-17.748,22.916 -17.674,22.936 -17.586,22.936C-17.53,22.936 -17.47,22.928 -17.406,22.912C-17.39,22.912 -17.376,22.934 -17.364,22.978C-17.352,23.022 -17.354,23.052 -17.37,23.068C-17.418,23.108 -17.512,23.166 -17.652,23.242C-17.792,23.318 -17.95,23.392 -18.126,23.464C-18.302,23.536 -18.484,23.6 -18.672,23.656C-18.86,23.712 -19.018,23.74 -19.146,23.74C-19.258,23.74 -19.346,23.726 -19.41,23.698C-19.474,23.67 -19.506,23.636 -19.506,23.596C-19.506,23.556 -19.502,23.532 -19.494,23.524C-19.486,23.516 -19.474,23.496 -19.458,23.464C-19.442,23.424 -19.43,23.374 -19.422,23.314C-19.414,23.254 -19.402,23.184 -19.386,23.104C-19.37,22.992 -19.354,22.85 -19.338,22.678C-19.322,22.506 -19.306,22.318 -19.29,22.114C-19.274,21.91 -19.26,21.698 -19.248,21.478C-19.236,21.258 -19.23,21.044 -19.23,20.836C-19.23,20.748 -19.232,20.638 -19.236,20.506C-19.24,20.374 -19.246,20.204 -19.254,19.996C-19.262,19.764 -19.288,19.566 -19.332,19.402C-19.376,19.238 -19.432,19.106 -19.5,19.006C-19.568,18.906 -19.644,18.832 -19.728,18.784C-19.812,18.736 -19.894,18.712 -19.974,18.712L-20.094,18.712C-20.134,18.712 -20.174,18.716 -20.214,18.724C-20.246,18.724 -20.262,18.688 -20.262,18.616C-20.262,18.6 -20.256,18.586 -20.244,18.574C-20.232,18.562 -20.194,18.536 -20.13,18.496C-20.026,18.424 -19.886,18.336 -19.71,18.232C-19.534,18.128 -19.354,18.032 -19.17,17.944C-18.986,17.856 -18.812,17.78 -18.648,17.716C-18.484,17.652 -18.358,17.62 -18.27,17.62C-18.038,17.62 -17.922,17.752 -17.922,18.016C-17.922,18.056 -17.926,18.128 -17.934,18.232C-17.942,18.336 -17.948,18.442 -17.952,18.55C-17.956,18.658 -17.962,18.76 -17.97,18.856C-17.978,18.952 -17.982,19.016 -17.982,19.048C-17.814,18.888 -17.634,18.724 -17.442,18.556C-17.25,18.388 -17.042,18.234 -16.818,18.094C-16.594,17.954 -16.358,17.84 -16.11,17.752C-15.862,17.664 -15.606,17.62 -15.342,17.62C-14.862,17.62 -14.468,17.758 -14.16,18.034C-13.852,18.31 -13.698,18.748 -13.698,19.348C-13.698,19.508 -13.708,19.696 -13.728,19.912C-13.748,20.128 -13.77,20.352 -13.794,20.584C-13.818,20.816 -13.84,21.044 -13.86,21.268C-13.88,21.492 -13.89,21.692 -13.89,21.868C-13.89,22.508 -13.682,22.828 -13.266,22.828C-13.186,22.828 -13.096,22.814 -12.996,22.786C-12.896,22.758 -12.8,22.726 -12.708,22.69C-12.616,22.654 -12.534,22.618 -12.462,22.582C-12.39,22.546 -12.342,22.516 -12.318,22.492C-12.31,22.484 -12.3,22.49 -12.288,22.51C-12.276,22.53 -12.266,22.556 -12.258,22.588C-12.25,22.62 -12.248,22.648 -12.252,22.672C-12.256,22.696 -12.262,22.712 -12.27,22.72C-12.334,22.76 -12.472,22.836 -12.684,22.948C-12.896,23.06 -13.132,23.174 -13.392,23.29C-13.652,23.406 -13.91,23.51 -14.166,23.602C-14.422,23.694 -14.626,23.74 -14.778,23.74C-14.962,23.74 -15.088,23.696 -15.156,23.608C-15.224,23.52 -15.258,23.428 -15.258,23.332C-15.258,23.268 -15.248,23.188 -15.228,23.092C-15.208,22.996 -15.182,22.84 -15.15,22.624C-15.118,22.392 -15.088,22.12 -15.06,21.808C-15.032,21.496 -15.018,21.16 -15.018,20.8C-15.018,20.096 -15.148,19.562 -15.408,19.198C-15.668,18.834 -15.994,18.652 -16.386,18.652C-16.634,18.652 -16.854,18.7 -17.046,18.796C-17.238,18.892 -17.402,19.022 -17.538,19.186C-17.674,19.35 -17.782,19.538 -17.862,19.75C-17.942,19.962 -17.994,20.188 -18.018,20.428Z" style="fill-rule:nonzero;"/>
            <path d="M-6.81,21.928C-6.794,21.912 -6.78,21.914 -6.768,21.934C-6.756,21.954 -6.748,21.982 -6.744,22.018C-6.74,22.054 -6.742,22.092 -6.75,22.132C-6.758,22.172 -6.774,22.204 -6.798,22.228C-6.958,22.38 -7.158,22.54 -7.398,22.708C-7.638,22.876 -7.886,23.032 -8.142,23.176C-8.214,23.216 -8.314,23.268 -8.442,23.332C-8.57,23.396 -8.712,23.458 -8.868,23.518C-9.024,23.578 -9.184,23.63 -9.348,23.674C-9.512,23.718 -9.666,23.74 -9.81,23.74C-10.098,23.74 -10.37,23.684 -10.626,23.572C-10.882,23.46 -11.106,23.306 -11.298,23.11C-11.49,22.914 -11.64,22.68 -11.748,22.408C-11.856,22.136 -11.91,21.84 -11.91,21.52C-11.91,21.176 -11.862,20.852 -11.766,20.548C-11.67,20.244 -11.56,19.972 -11.436,19.732C-11.312,19.492 -11.194,19.29 -11.082,19.126C-10.97,18.962 -10.894,18.84 -10.854,18.76C-11.006,18.752 -11.144,18.746 -11.268,18.742C-11.392,18.738 -11.51,18.736 -11.622,18.736C-11.878,18.736 -12.094,18.738 -12.27,18.742C-12.446,18.746 -12.602,18.764 -12.738,18.796C-12.802,18.812 -12.862,18.844 -12.918,18.892C-12.974,18.94 -13.022,18.976 -13.062,19C-13.078,18.984 -13.1,18.962 -13.128,18.934C-13.156,18.906 -13.17,18.876 -13.17,18.844C-13.17,18.828 -13.166,18.816 -13.158,18.808C-13.158,18.8 -13.106,18.754 -13.002,18.67C-12.898,18.586 -12.768,18.486 -12.612,18.37C-12.456,18.254 -12.284,18.126 -12.096,17.986C-11.908,17.846 -11.728,17.716 -11.556,17.596C-11.384,17.476 -11.236,17.374 -11.112,17.29C-10.988,17.206 -10.906,17.156 -10.866,17.14C-10.818,17.124 -10.77,17.132 -10.722,17.164C-10.674,17.196 -10.658,17.22 -10.674,17.236C-10.698,17.252 -10.734,17.282 -10.782,17.326C-10.83,17.37 -10.846,17.408 -10.83,17.44C-10.742,17.512 -10.59,17.576 -10.374,17.632C-10.158,17.688 -9.914,17.734 -9.642,17.77C-9.37,17.806 -9.09,17.834 -8.802,17.854C-8.514,17.874 -8.254,17.884 -8.022,17.884C-7.678,17.884 -7.402,17.874 -7.194,17.854C-6.986,17.834 -6.814,17.808 -6.678,17.776C-6.55,17.744 -6.466,17.72 -6.426,17.704C-6.418,17.704 -6.402,17.716 -6.378,17.74C-6.354,17.764 -6.342,17.792 -6.342,17.824C-6.342,17.84 -6.4,17.88 -6.516,17.944C-6.632,18.008 -6.75,18.076 -6.87,18.148C-6.942,18.188 -7.028,18.24 -7.128,18.304C-7.228,18.368 -7.336,18.43 -7.452,18.49C-7.568,18.55 -7.69,18.604 -7.818,18.652C-7.946,18.7 -8.07,18.728 -8.19,18.736C-8.31,18.752 -8.45,18.764 -8.61,18.772C-8.77,18.78 -8.938,18.786 -9.114,18.79C-9.29,18.794 -9.468,18.798 -9.648,18.802C-9.828,18.806 -9.994,18.808 -10.146,18.808C-10.17,18.848 -10.208,18.914 -10.26,19.006C-10.312,19.098 -10.362,19.216 -10.41,19.36C-10.458,19.504 -10.502,19.668 -10.542,19.852C-10.582,20.036 -10.602,20.236 -10.602,20.452C-10.602,20.78 -10.552,21.082 -10.452,21.358C-10.352,21.634 -10.212,21.872 -10.032,22.072C-9.852,22.272 -9.638,22.428 -9.39,22.54C-9.142,22.652 -8.874,22.708 -8.586,22.708C-8.418,22.708 -8.256,22.688 -8.1,22.648C-7.944,22.608 -7.796,22.556 -7.656,22.492C-7.516,22.428 -7.386,22.358 -7.266,22.282C-7.146,22.206 -7.042,22.132 -6.954,22.06L-6.81,21.928Z" style="fill-rule:nonzero;"/>
            <path d="M-1.278,22.192C-1.366,22.288 -1.502,22.42 -1.686,22.588C-1.87,22.756 -2.092,22.924 -2.352,23.092C-2.612,23.26 -2.902,23.404 -3.222,23.524C-3.542,23.644 -3.882,23.704 -4.242,23.704C-4.57,23.704 -4.89,23.654 -5.202,23.554C-5.514,23.454 -5.794,23.302 -6.042,23.098C-6.29,22.894 -6.488,22.634 -6.636,22.318C-6.784,22.002 -6.858,21.624 -6.858,21.184C-6.858,20.824 -6.834,20.514 -6.786,20.254C-6.738,19.994 -6.674,19.766 -6.594,19.57C-6.514,19.374 -6.424,19.206 -6.324,19.066C-6.224,18.926 -6.122,18.8 -6.018,18.688C-5.89,18.544 -5.734,18.408 -5.55,18.28C-5.366,18.152 -5.168,18.036 -4.956,17.932C-4.744,17.828 -4.52,17.746 -4.284,17.686C-4.048,17.626 -3.81,17.596 -3.57,17.596C-3.138,17.596 -2.8,17.668 -2.556,17.812C-2.312,17.956 -2.19,18.156 -2.19,18.412C-2.19,18.572 -2.238,18.72 -2.334,18.856C-2.254,18.832 -2.152,18.792 -2.028,18.736C-1.904,18.68 -1.778,18.622 -1.65,18.562C-1.522,18.502 -1.408,18.448 -1.308,18.4C-1.208,18.352 -1.142,18.316 -1.11,18.292C-1.094,18.276 -1.076,18.27 -1.056,18.274C-1.036,18.278 -1.026,18.292 -1.026,18.316C-1.026,18.42 -1.046,18.506 -1.086,18.574C-1.126,18.642 -1.174,18.696 -1.23,18.736C-1.358,18.816 -1.542,18.916 -1.782,19.036C-2.022,19.156 -2.288,19.282 -2.58,19.414C-2.872,19.546 -3.174,19.678 -3.486,19.81C-3.798,19.942 -4.092,20.068 -4.368,20.188C-4.644,20.308 -4.884,20.414 -5.088,20.506C-5.292,20.598 -5.43,20.664 -5.502,20.704C-5.502,20.976 -5.448,21.23 -5.34,21.466C-5.232,21.702 -5.082,21.908 -4.89,22.084C-4.698,22.26 -4.468,22.398 -4.2,22.498C-3.932,22.598 -3.638,22.648 -3.318,22.648C-3.03,22.648 -2.77,22.618 -2.538,22.558C-2.306,22.498 -2.11,22.43 -1.95,22.354C-1.79,22.278 -1.664,22.21 -1.572,22.15C-1.48,22.09 -1.43,22.06 -1.422,22.06C-1.39,22.06 -1.358,22.074 -1.326,22.102C-1.294,22.13 -1.278,22.16 -1.278,22.192ZM-5.502,20.356C-5.366,20.308 -5.212,20.25 -5.04,20.182C-4.868,20.114 -4.7,20.04 -4.536,19.96C-4.372,19.88 -4.222,19.804 -4.086,19.732C-3.95,19.66 -3.846,19.596 -3.774,19.54C-3.63,19.436 -3.558,19.26 -3.558,19.012C-3.558,18.916 -3.576,18.816 -3.612,18.712C-3.648,18.608 -3.702,18.514 -3.774,18.43C-3.846,18.346 -3.934,18.278 -4.038,18.226C-4.142,18.174 -4.258,18.148 -4.386,18.148C-4.498,18.148 -4.618,18.186 -4.746,18.262C-4.874,18.338 -4.994,18.462 -5.106,18.634C-5.218,18.806 -5.312,19.034 -5.388,19.318C-5.464,19.602 -5.502,19.948 -5.502,20.356Z" style="fill-rule:nonzero;"/>
            <path d="M4.29,18.496C4.202,18.568 4.098,18.658 3.978,18.766C3.858,18.874 3.732,18.978 3.6,19.078C3.468,19.178 3.334,19.264 3.198,19.336C3.062,19.408 2.93,19.444 2.802,19.444C2.69,19.444 2.59,19.418 2.502,19.366C2.414,19.314 2.332,19.258 2.256,19.198C2.18,19.138 2.106,19.082 2.034,19.03C1.962,18.978 1.886,18.952 1.806,18.952C1.59,18.952 1.408,19.04 1.26,19.216C1.112,19.392 0.992,19.616 0.9,19.888C0.808,20.16 0.74,20.456 0.696,20.776C0.652,21.096 0.63,21.404 0.63,21.7C0.63,21.948 0.64,22.15 0.66,22.306C0.68,22.462 0.71,22.586 0.75,22.678C0.79,22.77 0.844,22.832 0.912,22.864C0.98,22.896 1.062,22.912 1.158,22.912C1.262,22.912 1.374,22.896 1.494,22.864C1.518,22.856 1.536,22.872 1.548,22.912C1.56,22.952 1.566,22.984 1.566,23.008C1.566,23.024 1.554,23.042 1.53,23.062C1.506,23.082 1.49,23.092 1.482,23.092C1.306,23.164 1.126,23.242 0.942,23.326C0.758,23.41 0.606,23.48 0.486,23.536C0.374,23.584 0.24,23.636 0.084,23.692C-0.072,23.748 -0.206,23.776 -0.318,23.776C-0.446,23.776 -0.552,23.756 -0.636,23.716C-0.72,23.676 -0.762,23.636 -0.762,23.596C-0.762,23.556 -0.752,23.52 -0.732,23.488C-0.712,23.456 -0.694,23.396 -0.678,23.308C-0.662,23.188 -0.644,23.046 -0.624,22.882C-0.604,22.718 -0.584,22.54 -0.564,22.348C-0.544,22.156 -0.528,21.958 -0.516,21.754C-0.504,21.55 -0.498,21.348 -0.498,21.148C-0.498,20.7 -0.512,20.32 -0.54,20.008C-0.568,19.696 -0.618,19.444 -0.69,19.252C-0.762,19.06 -0.86,18.922 -0.984,18.838C-1.108,18.754 -1.266,18.712 -1.458,18.712L-1.566,18.712C-1.598,18.712 -1.63,18.716 -1.662,18.724C-1.71,18.724 -1.734,18.7 -1.734,18.652C-1.734,18.604 -1.71,18.568 -1.662,18.544C-1.574,18.488 -1.438,18.406 -1.254,18.298C-1.07,18.19 -0.88,18.086 -0.684,17.986C-0.488,17.886 -0.298,17.796 -0.114,17.716C0.07,17.636 0.206,17.596 0.294,17.596C0.398,17.596 0.486,17.63 0.558,17.698C0.63,17.766 0.684,17.852 0.72,17.956C0.756,18.06 0.782,18.178 0.798,18.31C0.814,18.442 0.822,18.572 0.822,18.7C0.822,18.796 0.82,18.896 0.816,19C0.812,19.104 0.81,19.216 0.81,19.336C1.17,18.808 1.494,18.398 1.782,18.106C2.07,17.814 2.342,17.668 2.598,17.668C2.694,17.668 2.788,17.708 2.88,17.788C2.972,17.868 3.07,17.958 3.174,18.058C3.278,18.158 3.386,18.248 3.498,18.328C3.61,18.408 3.726,18.448 3.846,18.448C3.95,18.448 4.026,18.436 4.074,18.412C4.122,18.388 4.162,18.368 4.194,18.352C4.258,18.352 4.29,18.396 4.29,18.484L4.29,18.496Z" style="fill-rule:nonzero;"/>
        </g>
        <g transform="matrix(1,0,0,1,49.0135,-4.53575)">
            <text x="-42.402px" y="23.596px" style="font-family:'Luminari-Regular', 'Luminari';font-size:12px;">Counter</text>
        </g>
    </g>
</svg>
