<?xml version="1.0" encoding="UTF-8" standalone="no"?>
<!DOCTYPE svg PUBLIC "-//W3C//DTD SVG 1.1//EN" "http://www.w3.org/Graphics/SVG/1.1/DTD/svg11.dtd">
<svg width="100%" height="100%" viewBox="0 0 60 380" version="1.1" xmlns="http://www.w3.org/2000/svg" xmlns:xlink="http://www.w3.org/1999/xlink" xml:space="preserve" xmlns:serif="http://www.serif.com/" style="fill-rule:evenodd;clip-rule:evenodd;stroke-linecap:round;stroke-linejoin:round;stroke-miterlimit:1.5;">
    <g transform="matrix(0.28834,0,0,2.01589,-15.1541,-120.797)">
        <rect x="52.556" y="59.922" width="208.087" height="188.503" style="fill:rgb(154,178,191);stroke:rgb(5,5,5);stroke-width:1.39px;"/>
    </g>
    <g transform="matrix(1,0,0,1,-88.8763,183.551)">
        <g transform="matrix(0.3556,0,0,72.8139,83.9261,-21717.6)">
            <rect x="13.921" y="296.737" width="168.729" height="3.935" style="fill:rgb(191,191,191);"/>
        </g>
        <g transform="matrix(1.65167,0,0,0.695794,-178.624,112.334)">
            <rect x="161.957" y="57.989" width="36.327" height="2.261"/>
        </g>
        <g transform="matrix(1.65167,0,0,0.695794,-178.624,78.6945)">
            <rect x="161.957" y="57.989" width="36.327" height="2.261"/>
        </g>
        <g transform="matrix(1.65167,0,0,0.695794,-178.624,43.3266)">
            <rect x="161.957" y="57.989" width="36.327" height="2.261"/>
        </g>
        <g transform="matrix(1.65167,0,0,0.695794,-178.624,8.01938)">
            <rect x="161.957" y="57.989" width="36.327" height="2.261"/>
        </g>
        <g transform="matrix(1.65167,0,0,0.695794,-178.624,-25.4274)">
            <rect x="161.957" y="57.989" width="36.327" height="2.261"/>
        </g>
        <g transform="matrix(1.65167,0,0,0.695794,-178.624,-60.2029)">
            <rect x="161.957" y="57.989" width="36.327" height="2.261"/>
        </g>
        <g transform="matrix(1.65167,0,0,0.695794,-178.624,-94.5002)">
            <rect x="161.957" y="57.989" width="36.327" height="2.261"/>
        </g>
        <g transform="matrix(1.65167,0,0,0.695794,-178.624,-130.158)">
            <rect x="161.957" y="57.989" width="36.327" height="2.261"/>
        </g>
        <g id="BitIn8-input-P" serif:id="BitIn8#input$P" transform="matrix(0.175002,0,0,0.175002,95.2635,120.969)">
            <rect x="53.94" y="106.916" width="161.978" height="161.978" style="fill:rgb(230,230,230);"/>
        </g>
        <g id="BitIn7-input-P" serif:id="BitIn7#input$P" transform="matrix(0.175002,0,0,0.175002,95.2635,86.2175)">
            <rect x="53.94" y="106.916" width="161.978" height="161.978" style="fill:rgb(230,230,230);"/>
        </g>
        <g id="BitIn6-input-P" serif:id="BitIn6#input$P" transform="matrix(0.175002,0,0,0.175002,95.2635,16.7147)">
            <rect x="53.94" y="106.916" width="161.978" height="161.978" style="fill:rgb(230,230,230);"/>
        </g>
        <g id="BitIn5-input-P" serif:id="BitIn5#input$P" transform="matrix(0.175002,0,0,0.175002,95.2635,51.4661)">
            <rect x="53.94" y="106.916" width="161.978" height="161.978" style="fill:rgb(230,230,230);"/>
        </g>
        <g id="BitIn4-input-P" serif:id="BitIn4#input$P" transform="matrix(0.175002,0,0,0.175002,95.2635,-18.0367)">
            <rect x="53.94" y="106.916" width="161.978" height="161.978" style="fill:rgb(230,230,230);"/>
        </g>
        <g id="BitIn3-input-P" serif:id="BitIn3#input$P" transform="matrix(0.175002,0,0,0.175002,95.2635,-52.7881)">
            <rect x="53.94" y="106.916" width="161.978" height="161.978" style="fill:rgb(230,230,230);"/>
        </g>
        <g id="BitIn2-input-P" serif:id="BitIn2#input$P" transform="matrix(0.175002,0,0,0.175002,95.2635,-87.5395)">
            <rect x="53.94" y="106.916" width="161.978" height="161.978" style="fill:rgb(230,230,230);"/>
        </g>
        <g id="BitIn1-input-P" serif:id="BitIn1#input$P" transform="matrix(0.175002,0,0,0.175002,95.2635,-122.291)">
            <rect x="53.94" y="106.916" width="161.978" height="161.978" style="fill:rgb(230,230,230);"/>
        </g>
    </g>
    <g transform="matrix(1,0,0,1,-28.6123,-332.812)">
        <g id="BusIn-led" serif:id="BusIn#led" transform="matrix(1,0,0,1,-3.05429,43.7203)">
            <circle cx="42.167" cy="335.861" r="3.82" style="fill:rgb(230,230,230);"/>
        </g>
        <g id="BusOut-led" serif:id="BusOut#led" transform="matrix(1,0,0,1,36.4457,43.7203)">
            <circle cx="42.167" cy="335.861" r="3.82" style="fill:rgb(230,230,230);"/>
        </g>
        <g transform="matrix(1,0,0,1,62.3138,346.656)">
            <path d="M-16.89,23.344C-17.074,23.448 -17.306,23.556 -17.586,23.668C-17.866,23.78 -18.158,23.836 -18.462,23.836C-18.646,23.836 -18.778,23.82 -18.858,23.788C-18.938,23.756 -18.978,23.692 -18.978,23.596C-18.978,23.564 -18.972,23.528 -18.96,23.488C-18.948,23.448 -18.934,23.414 -18.918,23.386C-18.902,23.358 -18.882,23.338 -18.858,23.326C-18.834,23.314 -18.81,23.324 -18.786,23.356C-18.738,23.42 -18.666,23.456 -18.57,23.464C-18.474,23.472 -18.37,23.476 -18.258,23.476C-18.09,23.468 -17.938,23.41 -17.802,23.302C-17.666,23.194 -17.566,23.048 -17.502,22.864C-17.47,22.752 -17.438,22.576 -17.406,22.336C-17.374,22.096 -17.348,21.808 -17.328,21.472C-17.308,21.136 -17.292,20.762 -17.28,20.35C-17.268,19.938 -17.262,19.504 -17.262,19.048C-17.262,18.008 -17.29,17.198 -17.346,16.618C-17.402,16.038 -17.474,15.704 -17.562,15.616C-17.626,15.568 -17.706,15.53 -17.802,15.502C-17.898,15.474 -17.996,15.456 -18.096,15.448C-18.196,15.44 -18.294,15.436 -18.39,15.436C-18.486,15.436 -18.562,15.44 -18.618,15.448C-18.674,15.456 -18.718,15.44 -18.75,15.4C-18.782,15.36 -18.798,15.32 -18.798,15.28C-18.798,15.136 -18.746,15.064 -18.642,15.064C-18.586,15.064 -18.486,15.07 -18.342,15.082C-18.198,15.094 -18.032,15.106 -17.844,15.118C-17.656,15.13 -17.458,15.14 -17.25,15.148C-17.042,15.156 -16.854,15.16 -16.686,15.16C-16.478,15.16 -16.284,15.128 -16.104,15.064C-15.924,15 -15.738,14.928 -15.546,14.848C-15.354,14.768 -15.144,14.696 -14.916,14.632C-14.688,14.568 -14.422,14.536 -14.118,14.536C-13.742,14.536 -13.39,14.568 -13.062,14.632C-12.734,14.696 -12.45,14.794 -12.21,14.926C-11.97,15.058 -11.78,15.228 -11.64,15.436C-11.5,15.644 -11.43,15.888 -11.43,16.168C-11.43,16.488 -11.498,16.778 -11.634,17.038C-11.77,17.298 -11.94,17.528 -12.144,17.728C-12.348,17.928 -12.564,18.098 -12.792,18.238C-13.02,18.378 -13.226,18.484 -13.41,18.556C-13.114,18.58 -12.79,18.63 -12.438,18.706C-12.086,18.782 -11.758,18.898 -11.454,19.054C-11.15,19.21 -10.896,19.416 -10.692,19.672C-10.488,19.928 -10.386,20.248 -10.386,20.632C-10.386,20.936 -10.448,21.226 -10.572,21.502C-10.696,21.778 -10.862,22.034 -11.07,22.27C-11.278,22.506 -11.516,22.722 -11.784,22.918C-12.052,23.114 -12.332,23.28 -12.624,23.416C-12.916,23.552 -13.212,23.658 -13.512,23.734C-13.812,23.81 -14.09,23.848 -14.346,23.848C-14.498,23.848 -14.688,23.834 -14.916,23.806C-15.144,23.778 -15.378,23.74 -15.618,23.692C-15.858,23.644 -16.092,23.59 -16.32,23.53C-16.548,23.47 -16.738,23.408 -16.89,23.344ZM-15.858,20.896C-15.85,21.312 -15.838,21.612 -15.822,21.796C-15.806,21.98 -15.79,22.12 -15.774,22.216C-15.75,22.352 -15.692,22.486 -15.6,22.618C-15.508,22.75 -15.388,22.872 -15.24,22.984C-15.092,23.096 -14.92,23.186 -14.724,23.254C-14.528,23.322 -14.31,23.356 -14.07,23.356C-13.814,23.356 -13.574,23.312 -13.35,23.224C-13.126,23.136 -12.932,22.998 -12.768,22.81C-12.604,22.622 -12.474,22.38 -12.378,22.084C-12.282,21.788 -12.234,21.432 -12.234,21.016C-12.234,20.64 -12.294,20.32 -12.414,20.056C-12.534,19.792 -12.704,19.578 -12.924,19.414C-13.144,19.25 -13.41,19.132 -13.722,19.06C-14.034,18.988 -14.382,18.952 -14.766,18.952C-14.99,18.952 -15.202,18.954 -15.402,18.958C-15.602,18.962 -15.75,18.968 -15.846,18.976C-15.854,19.064 -15.858,19.156 -15.858,19.252L-15.858,20.896ZM-15.69,15.688C-15.706,15.792 -15.722,15.936 -15.738,16.12C-15.754,16.304 -15.77,16.518 -15.786,16.762C-15.802,17.006 -15.816,17.27 -15.828,17.554C-15.84,17.838 -15.85,18.132 -15.858,18.436C-15.85,18.46 -15.806,18.478 -15.726,18.49C-15.646,18.502 -15.552,18.512 -15.444,18.52C-15.336,18.528 -15.222,18.534 -15.102,18.538C-14.982,18.542 -14.874,18.544 -14.778,18.544C-14.626,18.544 -14.494,18.538 -14.382,18.526C-14.27,18.514 -14.172,18.494 -14.088,18.466C-14.004,18.438 -13.926,18.404 -13.854,18.364C-13.782,18.324 -13.71,18.272 -13.638,18.208C-13.502,18.104 -13.376,17.936 -13.26,17.704C-13.144,17.472 -13.086,17.152 -13.086,16.744C-13.086,16.456 -13.126,16.202 -13.206,15.982C-13.286,15.762 -13.39,15.578 -13.518,15.43C-13.646,15.282 -13.792,15.172 -13.956,15.1C-14.12,15.028 -14.29,14.992 -14.466,14.992C-14.554,14.992 -14.662,15.004 -14.79,15.028C-14.918,15.052 -15.042,15.09 -15.162,15.142C-15.282,15.194 -15.392,15.266 -15.492,15.358C-15.592,15.45 -15.658,15.56 -15.69,15.688Z" style="fill-rule:nonzero;"/>
            <path d="M-7.902,21.508C-7.902,21.676 -7.898,21.838 -7.89,21.994C-7.882,22.15 -7.854,22.284 -7.806,22.396C-7.758,22.508 -7.686,22.598 -7.59,22.666C-7.494,22.734 -7.358,22.768 -7.182,22.768C-7.094,22.768 -6.994,22.758 -6.882,22.738C-6.77,22.718 -6.664,22.692 -6.564,22.66C-6.464,22.628 -6.376,22.596 -6.3,22.564C-6.224,22.532 -6.178,22.508 -6.162,22.492C-6.138,22.468 -6.122,22.468 -6.114,22.492C-6.106,22.516 -6.104,22.546 -6.108,22.582C-6.112,22.618 -6.122,22.654 -6.138,22.69C-6.154,22.726 -6.174,22.752 -6.198,22.768C-6.278,22.808 -6.418,22.88 -6.618,22.984C-6.818,23.088 -7.054,23.196 -7.326,23.308C-7.582,23.42 -7.832,23.514 -8.076,23.59C-8.32,23.666 -8.522,23.704 -8.682,23.704C-8.866,23.704 -9.01,23.648 -9.114,23.536C-9.218,23.424 -9.27,23.284 -9.27,23.116C-9.27,23.06 -9.268,23.012 -9.264,22.972C-9.26,22.932 -9.254,22.88 -9.246,22.816C-9.238,22.736 -9.224,22.59 -9.204,22.378C-9.184,22.166 -9.164,21.928 -9.144,21.664C-9.124,21.4 -9.106,21.134 -9.09,20.866C-9.074,20.598 -9.066,20.368 -9.066,20.176L-9.066,19.756C-9.066,19.548 -9.078,19.364 -9.102,19.204C-9.126,19.044 -9.166,18.92 -9.222,18.832C-9.262,18.776 -9.312,18.73 -9.372,18.694C-9.432,18.658 -9.506,18.64 -9.594,18.64C-9.642,18.64 -9.69,18.65 -9.738,18.67C-9.786,18.69 -9.822,18.7 -9.846,18.7C-9.862,18.7 -9.888,18.676 -9.924,18.628C-9.96,18.58 -9.958,18.544 -9.918,18.52C-9.862,18.48 -9.746,18.416 -9.57,18.328C-9.394,18.24 -9.202,18.144 -8.994,18.04C-8.77,17.928 -8.554,17.83 -8.346,17.746C-8.138,17.662 -7.99,17.62 -7.902,17.62C-7.814,17.62 -7.754,17.646 -7.722,17.698C-7.69,17.75 -7.674,17.808 -7.674,17.872L-7.674,17.92C-7.674,18 -7.686,18.128 -7.71,18.304C-7.734,18.48 -7.76,18.696 -7.788,18.952C-7.816,19.208 -7.842,19.504 -7.866,19.84C-7.89,20.176 -7.902,20.54 -7.902,20.932L-7.902,21.508ZM-8.382,15.268C-8.342,15.276 -8.276,15.32 -8.184,15.4C-8.092,15.48 -7.998,15.572 -7.902,15.676C-7.806,15.78 -7.722,15.88 -7.65,15.976C-7.578,16.072 -7.542,16.136 -7.542,16.168C-7.542,16.208 -7.59,16.268 -7.686,16.348C-7.782,16.428 -7.892,16.51 -8.016,16.594C-8.14,16.678 -8.26,16.752 -8.376,16.816C-8.492,16.88 -8.574,16.912 -8.622,16.912C-8.646,16.912 -8.704,16.874 -8.796,16.798C-8.888,16.722 -8.982,16.636 -9.078,16.54C-9.174,16.444 -9.26,16.35 -9.336,16.258C-9.412,16.166 -9.45,16.104 -9.45,16.072C-9.45,16.032 -9.398,15.97 -9.294,15.886C-9.19,15.802 -9.076,15.714 -8.952,15.622C-8.828,15.53 -8.708,15.45 -8.592,15.382C-8.476,15.314 -8.406,15.276 -8.382,15.268Z" style="fill-rule:nonzero;"/>
            <path d="M-0.846,21.928C-0.83,21.912 -0.816,21.914 -0.804,21.934C-0.792,21.954 -0.784,21.982 -0.78,22.018C-0.776,22.054 -0.778,22.092 -0.786,22.132C-0.794,22.172 -0.81,22.204 -0.834,22.228C-0.994,22.38 -1.194,22.54 -1.434,22.708C-1.674,22.876 -1.922,23.032 -2.178,23.176C-2.25,23.216 -2.35,23.268 -2.478,23.332C-2.606,23.396 -2.748,23.458 -2.904,23.518C-3.06,23.578 -3.22,23.63 -3.384,23.674C-3.548,23.718 -3.702,23.74 -3.846,23.74C-4.134,23.74 -4.406,23.684 -4.662,23.572C-4.918,23.46 -5.142,23.306 -5.334,23.11C-5.526,22.914 -5.676,22.68 -5.784,22.408C-5.892,22.136 -5.946,21.84 -5.946,21.52C-5.946,21.176 -5.898,20.852 -5.802,20.548C-5.706,20.244 -5.596,19.972 -5.472,19.732C-5.348,19.492 -5.23,19.29 -5.118,19.126C-5.006,18.962 -4.93,18.84 -4.89,18.76C-5.042,18.752 -5.18,18.746 -5.304,18.742C-5.428,18.738 -5.546,18.736 -5.658,18.736C-5.914,18.736 -6.13,18.738 -6.306,18.742C-6.482,18.746 -6.638,18.764 -6.774,18.796C-6.838,18.812 -6.898,18.844 -6.954,18.892C-7.01,18.94 -7.058,18.976 -7.098,19C-7.114,18.984 -7.136,18.962 -7.164,18.934C-7.192,18.906 -7.206,18.876 -7.206,18.844C-7.206,18.828 -7.202,18.816 -7.194,18.808C-7.194,18.8 -7.142,18.754 -7.038,18.67C-6.934,18.586 -6.804,18.486 -6.648,18.37C-6.492,18.254 -6.32,18.126 -6.132,17.986C-5.944,17.846 -5.764,17.716 -5.592,17.596C-5.42,17.476 -5.272,17.374 -5.148,17.29C-5.024,17.206 -4.942,17.156 -4.902,17.14C-4.854,17.124 -4.806,17.132 -4.758,17.164C-4.71,17.196 -4.694,17.22 -4.71,17.236C-4.734,17.252 -4.77,17.282 -4.818,17.326C-4.866,17.37 -4.882,17.408 -4.866,17.44C-4.778,17.512 -4.626,17.576 -4.41,17.632C-4.194,17.688 -3.95,17.734 -3.678,17.77C-3.406,17.806 -3.126,17.834 -2.838,17.854C-2.55,17.874 -2.29,17.884 -2.058,17.884C-1.714,17.884 -1.438,17.874 -1.23,17.854C-1.022,17.834 -0.85,17.808 -0.714,17.776C-0.586,17.744 -0.502,17.72 -0.462,17.704C-0.454,17.704 -0.438,17.716 -0.414,17.74C-0.39,17.764 -0.378,17.792 -0.378,17.824C-0.378,17.84 -0.436,17.88 -0.552,17.944C-0.668,18.008 -0.786,18.076 -0.906,18.148C-0.978,18.188 -1.064,18.24 -1.164,18.304C-1.264,18.368 -1.372,18.43 -1.488,18.49C-1.604,18.55 -1.726,18.604 -1.854,18.652C-1.982,18.7 -2.106,18.728 -2.226,18.736C-2.346,18.752 -2.486,18.764 -2.646,18.772C-2.806,18.78 -2.974,18.786 -3.15,18.79C-3.326,18.794 -3.504,18.798 -3.684,18.802C-3.864,18.806 -4.03,18.808 -4.182,18.808C-4.206,18.848 -4.244,18.914 -4.296,19.006C-4.348,19.098 -4.398,19.216 -4.446,19.36C-4.494,19.504 -4.538,19.668 -4.578,19.852C-4.618,20.036 -4.638,20.236 -4.638,20.452C-4.638,20.78 -4.588,21.082 -4.488,21.358C-4.388,21.634 -4.248,21.872 -4.068,22.072C-3.888,22.272 -3.674,22.428 -3.426,22.54C-3.178,22.652 -2.91,22.708 -2.622,22.708C-2.454,22.708 -2.292,22.688 -2.136,22.648C-1.98,22.608 -1.832,22.556 -1.692,22.492C-1.552,22.428 -1.422,22.358 -1.302,22.282C-1.182,22.206 -1.078,22.132 -0.99,22.06L-0.846,21.928Z" style="fill-rule:nonzero;"/>
            <path d="M0.846,23.596C0.702,23.596 0.542,23.598 0.366,23.602C0.19,23.606 0.018,23.61 -0.15,23.614C-0.318,23.618 -0.476,23.626 -0.624,23.638C-0.772,23.65 -0.886,23.66 -0.966,23.668L-1.158,23.692C-1.198,23.692 -1.232,23.67 -1.26,23.626C-1.288,23.582 -1.302,23.54 -1.302,23.5C-1.302,23.468 -1.286,23.434 -1.254,23.398C-1.222,23.362 -1.178,23.344 -1.122,23.344C-0.786,23.344 -0.518,23.324 -0.318,23.284C-0.118,23.244 0.002,23.192 0.042,23.128C0.09,23.032 0.14,22.818 0.192,22.486C0.244,22.154 0.29,21.766 0.33,21.322C0.37,20.878 0.402,20.412 0.426,19.924C0.45,19.436 0.462,18.984 0.462,18.568C0.462,18.112 0.46,17.73 0.456,17.422C0.452,17.114 0.448,16.86 0.444,16.66C0.44,16.46 0.436,16.306 0.432,16.198C0.428,16.09 0.426,16.012 0.426,15.964C0.418,15.708 0.382,15.538 0.318,15.454C0.254,15.37 0.138,15.32 -0.03,15.304C-0.15,15.288 -0.29,15.284 -0.45,15.292C-0.61,15.3 -0.726,15.3 -0.798,15.292C-0.854,15.284 -0.902,15.274 -0.942,15.262C-0.982,15.25 -1.002,15.208 -1.002,15.136C-1.002,15.056 -0.982,15.002 -0.942,14.974C-0.902,14.946 -0.858,14.932 -0.81,14.932C-0.746,14.932 -0.54,14.946 -0.192,14.974C0.156,15.002 0.654,15.016 1.302,15.016C1.726,15.016 2.088,15.006 2.388,14.986C2.688,14.966 2.894,14.948 3.006,14.932C3.062,14.932 3.116,14.938 3.168,14.95C3.22,14.962 3.246,15 3.246,15.064C3.246,15.2 3.154,15.276 2.97,15.292C2.906,15.292 2.834,15.296 2.754,15.304C2.674,15.312 2.596,15.32 2.52,15.328C2.444,15.336 2.374,15.348 2.31,15.364C2.246,15.38 2.198,15.392 2.166,15.4C2.126,15.416 2.088,15.562 2.052,15.838C2.016,16.114 1.984,16.456 1.956,16.864C1.928,17.272 1.902,17.712 1.878,18.184C1.854,18.656 1.838,19.092 1.83,19.492C1.822,19.796 1.816,20.15 1.812,20.554C1.808,20.958 1.812,21.346 1.824,21.718C1.836,22.09 1.854,22.412 1.878,22.684C1.902,22.956 1.938,23.112 1.986,23.152C2.018,23.176 2.078,23.198 2.166,23.218C2.254,23.238 2.358,23.258 2.478,23.278C2.598,23.298 2.72,23.312 2.844,23.32C2.968,23.328 3.082,23.332 3.186,23.332C3.274,23.332 3.33,23.34 3.354,23.356C3.378,23.372 3.39,23.412 3.39,23.476C3.39,23.548 3.36,23.6 3.3,23.632C3.24,23.664 3.178,23.68 3.114,23.68C3.066,23.68 2.994,23.676 2.898,23.668C2.802,23.66 2.67,23.65 2.502,23.638C2.334,23.626 2.122,23.616 1.866,23.608C1.61,23.6 1.294,23.596 0.918,23.596L0.846,23.596Z" style="fill-rule:nonzero;"/>
            <path d="M5.766,20.428C5.758,20.5 5.75,20.564 5.742,20.62C5.734,20.676 5.728,20.74 5.724,20.812C5.72,20.884 5.716,20.974 5.712,21.082C5.708,21.19 5.706,21.332 5.706,21.508C5.706,21.796 5.716,22.032 5.736,22.216C5.756,22.4 5.786,22.546 5.826,22.654C5.866,22.762 5.916,22.836 5.976,22.876C6.036,22.916 6.11,22.936 6.198,22.936C6.254,22.936 6.314,22.928 6.378,22.912C6.394,22.912 6.408,22.934 6.42,22.978C6.432,23.022 6.43,23.052 6.414,23.068C6.366,23.108 6.272,23.166 6.132,23.242C5.992,23.318 5.834,23.392 5.658,23.464C5.482,23.536 5.3,23.6 5.112,23.656C4.924,23.712 4.766,23.74 4.638,23.74C4.526,23.74 4.438,23.726 4.374,23.698C4.31,23.67 4.278,23.636 4.278,23.596C4.278,23.556 4.282,23.532 4.29,23.524C4.298,23.516 4.31,23.496 4.326,23.464C4.342,23.424 4.354,23.374 4.362,23.314C4.37,23.254 4.382,23.184 4.398,23.104C4.414,22.992 4.43,22.85 4.446,22.678C4.462,22.506 4.478,22.318 4.494,22.114C4.51,21.91 4.524,21.698 4.536,21.478C4.548,21.258 4.554,21.044 4.554,20.836C4.554,20.748 4.552,20.638 4.548,20.506C4.544,20.374 4.538,20.204 4.53,19.996C4.522,19.764 4.496,19.566 4.452,19.402C4.408,19.238 4.352,19.106 4.284,19.006C4.216,18.906 4.14,18.832 4.056,18.784C3.972,18.736 3.89,18.712 3.81,18.712L3.69,18.712C3.65,18.712 3.61,18.716 3.57,18.724C3.538,18.724 3.522,18.688 3.522,18.616C3.522,18.6 3.528,18.586 3.54,18.574C3.552,18.562 3.59,18.536 3.654,18.496C3.758,18.424 3.898,18.336 4.074,18.232C4.25,18.128 4.43,18.032 4.614,17.944C4.798,17.856 4.972,17.78 5.136,17.716C5.3,17.652 5.426,17.62 5.514,17.62C5.746,17.62 5.862,17.752 5.862,18.016C5.862,18.056 5.858,18.128 5.85,18.232C5.842,18.336 5.836,18.442 5.832,18.55C5.828,18.658 5.822,18.76 5.814,18.856C5.806,18.952 5.802,19.016 5.802,19.048C5.97,18.888 6.15,18.724 6.342,18.556C6.534,18.388 6.742,18.234 6.966,18.094C7.19,17.954 7.426,17.84 7.674,17.752C7.922,17.664 8.178,17.62 8.442,17.62C8.922,17.62 9.316,17.758 9.624,18.034C9.932,18.31 10.086,18.748 10.086,19.348C10.086,19.508 10.076,19.696 10.056,19.912C10.036,20.128 10.014,20.352 9.99,20.584C9.966,20.816 9.944,21.044 9.924,21.268C9.904,21.492 9.894,21.692 9.894,21.868C9.894,22.508 10.102,22.828 10.518,22.828C10.598,22.828 10.688,22.814 10.788,22.786C10.888,22.758 10.984,22.726 11.076,22.69C11.168,22.654 11.25,22.618 11.322,22.582C11.394,22.546 11.442,22.516 11.466,22.492C11.474,22.484 11.484,22.49 11.496,22.51C11.508,22.53 11.518,22.556 11.526,22.588C11.534,22.62 11.536,22.648 11.532,22.672C11.528,22.696 11.522,22.712 11.514,22.72C11.45,22.76 11.312,22.836 11.1,22.948C10.888,23.06 10.652,23.174 10.392,23.29C10.132,23.406 9.874,23.51 9.618,23.602C9.362,23.694 9.158,23.74 9.006,23.74C8.822,23.74 8.696,23.696 8.628,23.608C8.56,23.52 8.526,23.428 8.526,23.332C8.526,23.268 8.536,23.188 8.556,23.092C8.576,22.996 8.602,22.84 8.634,22.624C8.666,22.392 8.696,22.12 8.724,21.808C8.752,21.496 8.766,21.16 8.766,20.8C8.766,20.096 8.636,19.562 8.376,19.198C8.116,18.834 7.79,18.652 7.398,18.652C7.15,18.652 6.93,18.7 6.738,18.796C6.546,18.892 6.382,19.022 6.246,19.186C6.11,19.35 6.002,19.538 5.922,19.75C5.842,19.962 5.79,20.188 5.766,20.428Z" style="fill-rule:nonzero;"/>
        </g>
        <g transform="matrix(1,0,0,1,62.3138,346.656)">
            <text x="-18.966px" y="23.596px" style="font-family:'Luminari-Regular', 'Luminari';font-size:12px;">BitIn</text>
        </g>
        <g transform="matrix(1,0,0,1,58.164,339.27)">
            <g transform="matrix(0.8973,0,0,0.884326,9.28968,12.4373)">
                <circle cx="3.434" cy="5.159" r="2.172" style="stroke:black;stroke-width:0.94px;"/>
            </g>
            <g transform="matrix(0.8973,0,0,0.884326,4.54775,12.4373)">
                <circle cx="3.434" cy="5.159" r="2.172" style="fill:white;stroke:black;stroke-width:0.94px;"/>
            </g>
            <g transform="matrix(0.8973,0,0,0.884326,-0.194181,12.4373)">
                <circle cx="3.434" cy="5.159" r="2.172" style="stroke:black;stroke-width:0.94px;"/>
            </g>
            <g transform="matrix(0.8973,0,0,0.884326,14.0316,12.4373)">
                <circle cx="3.434" cy="5.159" r="2.172" style="stroke:black;stroke-width:0.94px;"/>
            </g>
            <g transform="matrix(0.8973,0,0,0.884326,9.28968,6.70878)">
                <circle cx="3.434" cy="5.159" r="2.172" style="fill:white;stroke:black;stroke-width:0.94px;"/>
            </g>
            <g transform="matrix(0.8973,0,0,0.884326,4.54775,6.70878)">
                <circle cx="3.434" cy="5.159" r="2.172" style="stroke:black;stroke-width:0.94px;"/>
            </g>
            <g transform="matrix(0.8973,0,0,0.884326,-0.194181,6.70878)">
                <circle cx="3.434" cy="5.159" r="2.172" style="stroke:black;stroke-width:0.94px;"/>
            </g>
            <g transform="matrix(0.8973,0,0,0.884326,14.0316,6.70878)">
                <circle cx="3.434" cy="5.159" r="2.172" style="fill:white;stroke:black;stroke-width:0.94px;"/>
            </g>
            <g transform="matrix(0.8973,0,0,0.884326,9.28968,0.980236)">
                <circle cx="3.434" cy="5.159" r="2.172" style="fill:white;stroke:black;stroke-width:0.94px;"/>
            </g>
            <g transform="matrix(0.8973,0,0,0.884326,4.54775,0.980236)">
                <circle cx="3.434" cy="5.159" r="2.172" style="fill:white;stroke:black;stroke-width:0.94px;"/>
            </g>
            <g transform="matrix(0.8973,0,0,0.884326,-0.194181,0.980236)">
                <circle cx="3.434" cy="5.159" r="2.172" style="stroke:black;stroke-width:0.94px;"/>
            </g>
            <g transform="matrix(0.8973,0,0,0.884326,14.0316,0.980236)">
                <circle cx="3.434" cy="5.159" r="2.172" style="stroke:black;stroke-width:0.94px;"/>
            </g>
        </g>
        <g transform="matrix(0.0178906,0,0,0.0202937,37.7207,339.525)">
            <g transform="matrix(55.8954,0,0,49.2765,-878.032,-330.791)">
                <path d="M27.733,13.757C27.957,11.616 28.949,10 30.136,10C31.489,10 32.587,12.095 32.587,14.677C32.587,15.669 32.424,16.59 32.148,17.347C32.432,17.974 32.587,18.65 32.587,19.353C32.587,22.678 29.128,25.378 24.868,25.378C20.609,25.378 17.15,22.678 17.15,19.353C17.15,18.65 17.305,17.974 17.589,17.347C17.313,16.59 17.15,15.669 17.15,14.677C17.15,12.095 18.248,10 19.601,10C20.788,10 21.779,11.616 22.003,13.757L22.04,13.746C22.915,13.476 23.87,13.328 24.868,13.328C25.881,13.328 26.847,13.48 27.733,13.757ZM17.609,17.304L17.606,17.31L17.609,17.304ZM32.128,17.305L32.131,17.31L32.128,17.305ZM17.627,17.265L17.623,17.273L17.627,17.265ZM32.11,17.266L32.113,17.273L32.11,17.266ZM17.645,17.227L17.641,17.236L17.645,17.227ZM32.092,17.228L32.096,17.236L32.092,17.228ZM17.663,17.19L17.659,17.2L17.663,17.19ZM32.074,17.191L32.078,17.199L32.074,17.191ZM17.682,17.153L17.677,17.162L17.682,17.153ZM32.055,17.154L32.059,17.161L32.055,17.154ZM17.7,17.117L17.696,17.125L17.7,17.117ZM32.037,17.117L32.04,17.123L32.037,17.117ZM17.719,17.081L17.717,17.085L17.719,17.081ZM32.018,17.081L32.019,17.082L32.018,17.081ZM17.782,16.964L17.778,16.971L17.782,16.964ZM31.957,16.968L31.958,16.97L31.957,16.968ZM17.804,16.925L17.798,16.935L17.804,16.925ZM31.935,16.928L31.938,16.934L31.935,16.928ZM17.825,16.888L17.818,16.9L17.825,16.888ZM31.914,16.891L31.918,16.899L31.914,16.891ZM17.845,16.852L17.838,16.865L17.845,16.852ZM31.893,16.854L31.898,16.863L31.893,16.854ZM17.866,16.817L17.859,16.829L17.866,16.817ZM31.871,16.819L31.876,16.827L31.871,16.819ZM17.888,16.782L17.88,16.794L17.888,16.782ZM31.85,16.783L31.855,16.791L31.85,16.783ZM17.909,16.747L17.902,16.758L17.909,16.747ZM31.829,16.748L31.832,16.754L31.829,16.748ZM17.931,16.712L17.925,16.72L17.931,16.712ZM31.807,16.713L31.808,16.714L31.807,16.713ZM17.979,16.635L17.975,16.642L17.979,16.635ZM18.005,16.596L17.998,16.608L18.005,16.596ZM31.735,16.602L31.738,16.606L31.735,16.602ZM18.029,16.561L18.02,16.573L18.029,16.561ZM31.711,16.564L31.716,16.572L31.711,16.564ZM18.052,16.526L18.043,16.539L18.052,16.526ZM31.686,16.529L31.692,16.537L31.686,16.529ZM18.076,16.492L18.066,16.505L18.076,16.492ZM31.663,16.494L31.669,16.503L31.663,16.494ZM18.1,16.458L18.09,16.471L18.1,16.458ZM31.639,16.459L31.645,16.469L31.639,16.459ZM18.124,16.424L18.114,16.437L18.124,16.424ZM31.614,16.425L31.62,16.434L31.614,16.425ZM18.148,16.39L18.139,16.403L18.148,16.39ZM31.59,16.392L31.595,16.398L31.59,16.392ZM18.172,16.357L18.164,16.367L18.172,16.357ZM31.566,16.358L31.567,16.36L31.566,16.358ZM18.197,16.324L18.196,16.324L18.197,16.324ZM18.23,16.28L18.222,16.291L18.23,16.28ZM31.513,16.288L31.514,16.289L31.513,16.288ZM18.257,16.245L18.247,16.258L18.257,16.245ZM31.484,16.249L31.489,16.256L31.484,16.249ZM18.283,16.211L18.272,16.225L18.283,16.211ZM31.456,16.214L31.463,16.223L31.456,16.214ZM18.309,16.178L18.298,16.192L18.309,16.178ZM31.43,16.18L31.438,16.19L31.43,16.18ZM18.335,16.145L18.324,16.16L18.335,16.145ZM31.403,16.147L31.411,16.158L31.403,16.147ZM18.362,16.113L18.35,16.127L18.362,16.113ZM31.376,16.114L31.385,16.125L31.376,16.114ZM18.388,16.081L18.377,16.094L18.388,16.081ZM31.35,16.082L31.357,16.091L31.35,16.082ZM18.415,16.049L18.404,16.061L18.415,16.049ZM31.323,16.05L31.329,16.057L31.323,16.05ZM18.442,16.017L18.433,16.027L18.442,16.017ZM31.295,16.018L31.298,16.021L31.295,16.018ZM18.473,15.981L18.469,15.985L18.473,15.981ZM18.507,15.942L18.497,15.954L18.507,15.942ZM31.234,15.947L31.239,15.953L31.234,15.947ZM18.536,15.909L18.525,15.922L18.536,15.909ZM31.203,15.912L31.211,15.921L31.203,15.912ZM18.565,15.877L18.553,15.891L18.565,15.877ZM31.174,15.879L31.183,15.89L31.174,15.879ZM18.594,15.846L18.581,15.86L18.594,15.846ZM31.145,15.847L31.155,15.859L31.145,15.847ZM18.622,15.815L18.61,15.828L18.622,15.815ZM31.115,15.816L31.126,15.827L31.115,15.816ZM18.651,15.784L18.639,15.797L18.651,15.784ZM31.086,15.785L31.097,15.796L31.086,15.785ZM18.68,15.753L18.668,15.766L18.68,15.753ZM31.057,15.754L31.067,15.765L31.057,15.754ZM18.71,15.723L18.698,15.735L18.71,15.723ZM31.027,15.723L31.037,15.733L31.027,15.723ZM18.739,15.692L18.73,15.702L18.739,15.692ZM30.998,15.693L31.003,15.698L30.998,15.693ZM18.775,15.656L18.769,15.662L18.775,15.656ZM30.965,15.659L30.967,15.662L30.965,15.659ZM18.81,15.621L18.799,15.632L18.81,15.621ZM30.928,15.622L30.937,15.632L30.928,15.622ZM18.842,15.59L18.83,15.602L18.842,15.59ZM30.895,15.591L30.907,15.602L30.895,15.591ZM18.873,15.56L18.86,15.572L18.873,15.56ZM30.864,15.56L30.876,15.572L30.864,15.56ZM18.904,15.53L18.891,15.543L18.904,15.53ZM30.832,15.53L30.846,15.543L30.832,15.53ZM30.801,15.5L30.814,15.513L30.801,15.5ZM18.936,15.501L18.923,15.513L18.936,15.501ZM30.769,15.471L30.783,15.484L30.769,15.471ZM18.967,15.471L18.954,15.483L18.967,15.471ZM30.738,15.442L30.751,15.454L30.738,15.442ZM18.999,15.442L18.986,15.454L18.999,15.442ZM30.706,15.413L30.719,15.425L30.706,15.413ZM19.031,15.413L19.019,15.424L19.031,15.413ZM30.674,15.384L30.684,15.394L30.674,15.384ZM19.063,15.385L19.056,15.391L19.063,15.385ZM30.63,15.346L30.642,15.356L30.63,15.346ZM19.101,15.35L19.095,15.356L19.101,15.35ZM30.595,15.315L30.61,15.328L30.595,15.315ZM19.139,15.318L19.128,15.327L19.139,15.318ZM30.561,15.286L30.577,15.3L30.561,15.286ZM19.173,15.288L19.161,15.299L19.173,15.288ZM30.528,15.258L30.544,15.272L30.528,15.258ZM19.207,15.26L19.194,15.271L19.207,15.26ZM30.494,15.23L30.511,15.244L30.494,15.23ZM19.241,15.231L19.227,15.243L19.241,15.231ZM30.461,15.202L30.478,15.216L30.461,15.202ZM19.274,15.204L19.261,15.215L19.274,15.204ZM30.427,15.175L30.444,15.189L30.427,15.175ZM19.308,15.176L19.295,15.187L19.308,15.176ZM30.393,15.147L30.41,15.161L30.393,15.147ZM19.342,15.149L19.33,15.158L19.342,15.149ZM30.359,15.12L30.376,15.134L30.359,15.12ZM19.377,15.121L19.366,15.129L19.377,15.121ZM30.325,15.093L30.343,15.107L30.326,15.094L30.305,15.078L30.325,15.093ZM19.411,15.094L19.409,15.096L19.411,15.094ZM30.273,15.053L30.292,15.068L30.273,15.053ZM19.452,15.062L19.446,15.067L19.452,15.062ZM30.238,15.027L30.257,15.041L30.238,15.027ZM19.492,15.032L19.481,15.04L19.492,15.032ZM30.203,15L30.222,15.015L30.203,15ZM19.529,15.004L19.516,15.013L19.529,15.004ZM30.168,14.974L30.187,14.989L30.168,14.974ZM19.565,14.977L19.552,14.987L19.565,14.977ZM30.132,14.948L30.152,14.963L30.132,14.948ZM19.601,14.951L19.588,14.961L19.601,14.951ZM30.097,14.922L30.117,14.937L30.097,14.922ZM19.637,14.925L19.624,14.934L19.637,14.925ZM30.061,14.897L30.081,14.911L30.061,14.897ZM19.673,14.899L19.661,14.908L19.673,14.899ZM30.025,14.871L30.046,14.886L30.025,14.871ZM19.71,14.873L19.698,14.881L19.71,14.873ZM29.988,14.846L30.011,14.862L29.988,14.846ZM19.746,14.848L19.738,14.853L19.746,14.848ZM29.954,14.822L29.915,14.796C29.928,14.805 29.941,14.813 29.954,14.822ZM19.826,14.793L19.821,14.796L19.826,14.793ZM29.858,14.758L29.881,14.773L29.858,14.758ZM19.868,14.765L19.858,14.771L19.868,14.765ZM29.822,14.734L29.845,14.749L29.822,14.734ZM19.907,14.739L19.896,14.747L19.907,14.739ZM29.785,14.71L29.807,14.724L29.785,14.71ZM19.946,14.714L19.933,14.722L19.946,14.714ZM29.747,14.686L29.77,14.7L29.747,14.686ZM19.984,14.689L19.971,14.697L19.984,14.689ZM29.71,14.662L29.733,14.676L29.71,14.662ZM20.023,14.665L20.01,14.673L20.023,14.665ZM29.672,14.638L29.696,14.653L29.672,14.638ZM20.061,14.641L20.049,14.648L20.061,14.641ZM29.634,14.615L29.659,14.63L29.634,14.615ZM20.099,14.617L20.09,14.623L20.099,14.617ZM29.494,14.531C29.537,14.556 29.58,14.582 29.623,14.608C29.581,14.582 29.538,14.556 29.494,14.531ZM20.138,14.593L20.134,14.596L20.138,14.593ZM20.221,14.543L20.218,14.545L20.221,14.543ZM29.458,14.51L29.483,14.525L29.458,14.51ZM20.266,14.517L20.257,14.522L20.266,14.517ZM29.42,14.488L29.444,14.502L29.42,14.488ZM20.308,14.493L20.297,14.499L20.308,14.493ZM29.381,14.466L29.405,14.48L29.381,14.466ZM20.349,14.47L20.337,14.477L20.349,14.47ZM29.341,14.444L29.366,14.457L29.341,14.444ZM20.389,14.447L20.377,14.454L20.389,14.447ZM29.302,14.422L29.327,14.436L29.302,14.422ZM20.43,14.425L20.418,14.431L20.43,14.425ZM29.262,14.4L29.288,14.414L29.262,14.4ZM20.47,14.403L20.46,14.408L20.47,14.403ZM29.222,14.379L29.249,14.393L29.222,14.379ZM20.51,14.381L20.503,14.385L20.51,14.381ZM29.186,14.359L29.143,14.337C29.157,14.344 29.171,14.352 29.186,14.359ZM29.077,14.303L29.105,14.317L29.077,14.303ZM20.638,14.314L20.636,14.315L20.638,14.314ZM29.038,14.283L29.064,14.296L29.038,14.283ZM20.685,14.29L20.677,14.294L20.685,14.29ZM28.998,14.263L29.023,14.276L28.998,14.263ZM20.729,14.268L20.719,14.273L20.729,14.268ZM28.957,14.243L28.982,14.255L28.957,14.243ZM20.772,14.247L20.761,14.252L20.772,14.247ZM28.916,14.223L28.941,14.235L28.916,14.223ZM20.814,14.226L20.803,14.232L20.814,14.226ZM28.875,14.203L28.899,14.215L28.875,14.203ZM20.857,14.206L20.846,14.211L20.857,14.206ZM28.833,14.184L28.858,14.195L28.833,14.184ZM20.899,14.186L20.891,14.19L20.899,14.186ZM28.791,14.164L28.817,14.176L28.791,14.164ZM20.942,14.166L20.937,14.168L20.942,14.166ZM28.752,14.146L28.707,14.126C28.722,14.133 28.737,14.139 28.752,14.146ZM28.643,14.097L28.667,14.108L28.643,14.097ZM21.075,14.106L21.074,14.106L21.075,14.106ZM28.601,14.079L28.624,14.089L28.601,14.079ZM21.124,14.084L21.117,14.087L21.124,14.084ZM28.558,14.061L28.581,14.071L28.558,14.061ZM21.17,14.065L21.161,14.068L21.17,14.065ZM28.516,14.043L28.538,14.052L28.516,14.043ZM21.215,14.046L21.204,14.05L21.215,14.046ZM28.473,14.025L28.494,14.034L28.473,14.025ZM21.259,14.027L21.249,14.031L21.259,14.027ZM28.429,14.007L28.451,14.016L28.429,14.007ZM21.303,14.009L21.294,14.013L21.303,14.009ZM28.386,13.989L28.406,13.998L28.386,13.989ZM21.347,13.991L21.341,13.994L21.347,13.991ZM28.342,13.972L28.361,13.979L28.342,13.972ZM21.392,13.973L21.391,13.974L21.392,13.973ZM28.298,13.955L28.311,13.96L28.298,13.955ZM28.243,13.934L28.254,13.938L28.243,13.934ZM28.195,13.915L28.21,13.921L28.195,13.915ZM21.531,13.92L21.53,13.92L21.531,13.92ZM28.149,13.898L28.165,13.904L28.149,13.898ZM21.581,13.901L21.575,13.903L21.581,13.901ZM28.103,13.882L28.119,13.888L28.103,13.882ZM21.629,13.884L21.62,13.887L21.629,13.884ZM28.058,13.866L28.074,13.871L28.058,13.866ZM21.675,13.867L21.666,13.87L21.675,13.867ZM28.013,13.85L28.028,13.855L28.013,13.85ZM21.721,13.851L21.713,13.854L21.721,13.851ZM27.968,13.834L27.981,13.839L27.968,13.834ZM21.767,13.835L21.76,13.837L21.767,13.835ZM27.922,13.819L27.932,13.822L27.922,13.819ZM21.813,13.819L21.809,13.821L21.813,13.819ZM27.877,13.803L27.879,13.804L27.877,13.803Z" style="fill:none;stroke:black;stroke-width:1.22px;"/>
            </g>
            <g transform="matrix(55.8954,0,0,49.2765,-878.032,-330.791)">
                <path d="M25.128,19.358C24.963,19.04 24.868,18.67 24.868,18.275C24.868,17.096 25.713,16.138 26.753,16.138C27.793,16.138 28.637,17.096 28.637,18.275C28.637,19.031 28.291,19.696 27.768,20.076C27.128,19.668 26.188,19.396 25.128,19.358ZM21.969,20.076C21.446,19.696 21.099,19.031 21.099,18.275C21.099,17.096 21.944,16.138 22.984,16.138C24.024,16.138 24.868,17.096 24.868,18.275C24.868,18.67 24.774,19.04 24.609,19.358C23.549,19.396 22.609,19.668 21.969,20.076Z" style="fill:none;stroke:black;stroke-width:1.22px;"/>
            </g>
            <g transform="matrix(1,0,0,1,-53.1856,50.0357)">
                <ellipse cx="565.186" cy="671.455" rx="210.672" ry="98.631" style="fill:none;stroke:black;stroke-width:63.81px;"/>
            </g>
            <g transform="matrix(51.2,0,0,45.1371,0.670978,88.9676)">
                <path d="M12.057,13.791C12.057,13.668 11.958,13.568 11.835,13.568L8.139,13.568C8.016,13.568 7.916,13.668 7.916,13.791L7.916,14.236C7.916,14.359 8.016,14.458 8.139,14.458L11.835,14.458C11.958,14.458 12.057,14.359 12.057,14.236L12.057,13.791Z"/>
            </g>
        </g>
    </g>
</svg>
