<?xml version="1.0" encoding="UTF-8" standalone="no"?>
<!DOCTYPE svg PUBLIC "-//W3C//DTD SVG 1.1//EN" "http://www.w3.org/Graphics/SVG/1.1/DTD/svg11.dtd">
<svg width="100%" height="100%" viewBox="0 0 60 380" version="1.1" xmlns="http://www.w3.org/2000/svg" xmlns:xlink="http://www.w3.org/1999/xlink" xml:space="preserve" xmlns:serif="http://www.serif.com/" style="fill-rule:evenodd;clip-rule:evenodd;stroke-linecap:round;stroke-linejoin:round;stroke-miterlimit:1.5;">
    <g transform="matrix(0.28834,0,0,2.01589,-15.1541,-120.797)">
        <rect x="52.556" y="59.922" width="208.087" height="188.503" style="fill:rgb(154,178,191);stroke:rgb(5,5,5);stroke-width:1.39px;"/>
    </g>
    <g transform="matrix(1,0,0,1,-88.8763,183.551)">
        <g transform="matrix(0.0888999,0,0,72.8139,87.6388,-21717.6)">
            <rect x="13.921" y="296.737" width="168.729" height="3.935" style="fill:rgb(191,191,191);"/>
        </g>
        <g transform="matrix(0.298037,0,0,0.695794,40.3936,112.334)">
            <rect x="161.957" y="57.989" width="36.327" height="2.261"/>
        </g>
        <g transform="matrix(0.298037,0,0,0.695794,40.3936,78.6945)">
            <rect x="161.957" y="57.989" width="36.327" height="2.261"/>
        </g>
        <g transform="matrix(0.298037,0,0,0.695794,40.3936,43.3266)">
            <rect x="161.957" y="57.989" width="36.327" height="2.261"/>
        </g>
        <g transform="matrix(0.298037,0,0,0.695794,40.3936,8.01938)">
            <rect x="161.957" y="57.989" width="36.327" height="2.261"/>
        </g>
        <g transform="matrix(0.298037,0,0,0.695794,40.3936,-25.4274)">
            <rect x="161.957" y="57.989" width="36.327" height="2.261"/>
        </g>
        <g transform="matrix(0.319692,0,0,0.695794,36.0998,-60.2029)">
            <rect x="161.957" y="57.989" width="36.327" height="2.261"/>
        </g>
        <g transform="matrix(0.319692,0,0,0.695794,36.0998,-94.5002)">
            <rect x="161.957" y="57.989" width="36.327" height="2.261"/>
        </g>
        <g transform="matrix(0.319692,0,0,0.695794,36.0998,-130.158)">
            <rect x="161.957" y="57.989" width="36.327" height="2.261"/>
        </g>
        <g transform="matrix(0.320796,0,0,0.707593,47.2674,-9.5962)">
            <rect x="161.957" y="57.989" width="36.327" height="2.261"/>
        </g>
        <g transform="matrix(4.08741e-16,6.67525,-0.695794,4.26051e-17,140.184,-1169.88)">
            <rect x="161.957" y="57.989" width="36.327" height="2.261"/>
        </g>
        <g id="CVOut-output-P" serif:id="CVOut#output$P" transform="matrix(0.175002,0,0,0.175002,101.09,-0.660999)">
            <rect x="53.94" y="106.916" width="161.978" height="161.978" style="fill:rgb(77,77,77);"/>
        </g>
    </g>
    <g transform="matrix(1,0,0,1,-28.6123,-332.812)">
        <g id="BusIn-led" serif:id="BusIn#led" transform="matrix(1,0,0,1,-4.05429,43.7203)">
            <circle cx="42.167" cy="335.861" r="3.82" style="fill:rgb(230,230,230);"/>
        </g>
        <g transform="matrix(1,0,0,1,62.3138,346.656)">
            <path d="M-15.978,23.656C-16.058,23.656 -16.166,23.66 -16.302,23.668C-16.438,23.676 -16.584,23.682 -16.74,23.686C-16.896,23.69 -17.056,23.696 -17.22,23.704C-17.384,23.712 -17.534,23.716 -17.67,23.716C-18.206,23.716 -18.73,23.634 -19.242,23.47C-19.754,23.306 -20.208,23.05 -20.604,22.702C-21,22.354 -21.32,21.906 -21.564,21.358C-21.808,20.81 -21.93,20.152 -21.93,19.384C-21.93,18.68 -21.796,18.056 -21.528,17.512C-21.26,16.968 -20.906,16.512 -20.466,16.144C-20.026,15.776 -19.53,15.496 -18.978,15.304C-18.426,15.112 -17.862,15.016 -17.286,15.016C-17.158,15.016 -16.984,15.024 -16.764,15.04C-16.544,15.056 -16.324,15.076 -16.104,15.1C-15.884,15.124 -15.688,15.15 -15.516,15.178C-15.344,15.206 -15.234,15.232 -15.186,15.256C-15.082,14.976 -14.966,14.728 -14.838,14.512C-14.71,14.296 -14.534,14.132 -14.31,14.02C-14.246,13.996 -14.174,13.992 -14.094,14.008C-14.014,14.024 -13.974,14.064 -13.974,14.128C-14.014,14.2 -14.044,14.244 -14.064,14.26C-14.084,14.276 -14.11,14.284 -14.142,14.284C-14.238,14.284 -14.332,14.328 -14.424,14.416C-14.516,14.504 -14.602,14.618 -14.682,14.758C-14.762,14.898 -14.832,15.058 -14.892,15.238C-14.952,15.418 -14.998,15.6 -15.03,15.784C-15.046,15.872 -15.064,15.974 -15.084,16.09C-15.104,16.206 -15.122,16.32 -15.138,16.432C-15.154,16.544 -15.166,16.652 -15.174,16.756C-15.182,16.86 -15.186,16.948 -15.186,17.02C-15.186,17.06 -15.202,17.094 -15.234,17.122C-15.266,17.15 -15.298,17.164 -15.33,17.164C-15.378,17.164 -15.434,17.14 -15.498,17.092C-15.53,16.892 -15.596,16.692 -15.696,16.492C-15.796,16.292 -15.936,16.112 -16.116,15.952C-16.296,15.792 -16.52,15.664 -16.788,15.568C-17.056,15.472 -17.374,15.424 -17.742,15.424C-18.134,15.424 -18.484,15.516 -18.792,15.7C-19.1,15.884 -19.36,16.136 -19.572,16.456C-19.784,16.776 -19.946,17.156 -20.058,17.596C-20.17,18.036 -20.226,18.508 -20.226,19.012C-20.226,19.708 -20.156,20.326 -20.016,20.866C-19.876,21.406 -19.682,21.864 -19.434,22.24C-19.186,22.616 -18.89,22.902 -18.546,23.098C-18.202,23.294 -17.826,23.392 -17.418,23.392C-17.146,23.392 -16.88,23.348 -16.62,23.26C-16.36,23.172 -16.12,23.052 -15.9,22.9C-15.68,22.748 -15.484,22.572 -15.312,22.372C-15.14,22.172 -15.006,21.96 -14.91,21.736C-14.894,21.704 -14.852,21.68 -14.784,21.664C-14.716,21.648 -14.682,21.656 -14.682,21.688C-14.682,21.792 -14.716,21.934 -14.784,22.114C-14.852,22.294 -14.93,22.474 -15.018,22.654C-15.106,22.834 -15.194,22.998 -15.282,23.146C-15.37,23.294 -15.43,23.392 -15.462,23.44C-15.486,23.496 -15.516,23.57 -15.552,23.662C-15.588,23.754 -15.62,23.858 -15.648,23.974C-15.676,24.09 -15.702,24.21 -15.726,24.334C-15.75,24.458 -15.762,24.58 -15.762,24.7C-15.762,24.828 -15.778,24.908 -15.81,24.94C-15.842,24.972 -15.91,24.988 -16.014,24.988C-16.102,24.988 -16.142,24.926 -16.134,24.802C-16.126,24.678 -16.106,24.536 -16.074,24.376C-16.042,24.216 -16.01,24.066 -15.978,23.926C-15.946,23.786 -15.946,23.696 -15.978,23.656Z" style="fill-rule:nonzero;"/>
            <path d="M-11.454,22.264C-11.422,22.216 -11.36,22.118 -11.268,21.97C-11.176,21.822 -11.072,21.64 -10.956,21.424C-10.84,21.208 -10.72,20.974 -10.596,20.722C-10.472,20.47 -10.358,20.216 -10.254,19.96C-10.15,19.704 -10.064,19.462 -9.996,19.234C-9.928,19.006 -9.894,18.808 -9.894,18.64C-9.894,18.512 -9.91,18.41 -9.942,18.334C-9.974,18.258 -10.02,18.2 -10.08,18.16C-10.14,18.12 -10.21,18.092 -10.29,18.076C-10.37,18.06 -10.454,18.052 -10.542,18.052C-10.59,18.052 -10.638,18.056 -10.686,18.064C-10.734,18.072 -10.782,18.084 -10.83,18.1C-10.878,18.116 -10.916,18.11 -10.944,18.082C-10.972,18.054 -10.986,18.032 -10.986,18.016C-10.986,17.984 -10.932,17.944 -10.824,17.896C-10.716,17.848 -10.568,17.804 -10.38,17.764C-10.192,17.724 -9.976,17.69 -9.732,17.662C-9.488,17.634 -9.234,17.62 -8.97,17.62C-8.594,17.62 -8.406,17.744 -8.406,17.992C-8.406,18.104 -8.48,18.296 -8.628,18.568C-8.776,18.84 -8.964,19.158 -9.192,19.522C-9.42,19.886 -9.672,20.272 -9.948,20.68C-10.224,21.088 -10.494,21.482 -10.758,21.862C-11.022,22.242 -11.264,22.592 -11.484,22.912C-11.704,23.232 -11.87,23.48 -11.982,23.656C-12.006,23.688 -12.094,23.704 -12.246,23.704C-12.31,23.704 -12.352,23.694 -12.372,23.674C-12.392,23.654 -12.41,23.62 -12.426,23.572C-12.498,23.348 -12.58,23.1 -12.672,22.828C-12.764,22.556 -12.862,22.28 -12.966,22C-13.07,21.72 -13.176,21.442 -13.284,21.166C-13.392,20.89 -13.498,20.632 -13.602,20.392C-13.882,19.72 -14.12,19.25 -14.316,18.982C-14.512,18.714 -14.694,18.58 -14.862,18.58C-14.91,18.58 -14.956,18.588 -15,18.604C-15.044,18.62 -15.086,18.636 -15.126,18.652C-15.142,18.652 -15.164,18.634 -15.192,18.598C-15.22,18.562 -15.226,18.536 -15.21,18.52C-15.202,18.512 -15.126,18.46 -14.982,18.364C-14.838,18.268 -14.67,18.162 -14.478,18.046C-14.286,17.93 -14.092,17.824 -13.896,17.728C-13.7,17.632 -13.542,17.584 -13.422,17.584C-13.238,17.584 -13.07,17.754 -12.918,18.094C-12.766,18.434 -12.586,18.904 -12.378,19.504L-11.454,22.264Z" style="fill-rule:nonzero;"/>
            <path d="M-3.534,23.32C-3.094,23.32 -2.706,23.21 -2.37,22.99C-2.034,22.77 -1.752,22.478 -1.524,22.114C-1.296,21.75 -1.126,21.33 -1.014,20.854C-0.902,20.378 -0.846,19.88 -0.846,19.36C-0.846,18.728 -0.922,18.158 -1.074,17.65C-1.226,17.142 -1.432,16.712 -1.692,16.36C-1.952,16.008 -2.256,15.738 -2.604,15.55C-2.952,15.362 -3.318,15.268 -3.702,15.268C-4.142,15.268 -4.536,15.366 -4.884,15.562C-5.232,15.758 -5.528,16.028 -5.772,16.372C-6.016,16.716 -6.202,17.126 -6.33,17.602C-6.458,18.078 -6.522,18.596 -6.522,19.156C-6.522,19.868 -6.438,20.486 -6.27,21.01C-6.102,21.534 -5.88,21.966 -5.604,22.306C-5.328,22.646 -5.01,22.9 -4.65,23.068C-4.29,23.236 -3.918,23.32 -3.534,23.32ZM-3.858,23.764C-4.482,23.764 -5.064,23.672 -5.604,23.488C-6.144,23.304 -6.614,23.034 -7.014,22.678C-7.414,22.322 -7.73,21.888 -7.962,21.376C-8.194,20.864 -8.31,20.28 -8.31,19.624C-8.31,18.904 -8.174,18.252 -7.902,17.668C-7.63,17.084 -7.27,16.584 -6.822,16.168C-6.374,15.752 -5.862,15.43 -5.286,15.202C-4.71,14.974 -4.114,14.86 -3.498,14.86C-2.914,14.86 -2.354,14.946 -1.818,15.118C-1.282,15.29 -0.81,15.542 -0.402,15.874C0.006,16.206 0.33,16.618 0.57,17.11C0.81,17.602 0.93,18.164 0.93,18.796C0.93,19.396 0.81,19.992 0.57,20.584C0.33,21.176 -0.002,21.708 -0.426,22.18C-0.85,22.652 -1.354,23.034 -1.938,23.326C-2.522,23.618 -3.162,23.764 -3.858,23.764Z" style="fill-rule:nonzero;"/>
            <path d="M1.422,18.64C1.358,18.624 1.328,18.592 1.332,18.544C1.336,18.496 1.366,18.468 1.422,18.46C1.446,18.452 1.522,18.424 1.65,18.376C1.778,18.328 1.932,18.272 2.112,18.208C2.292,18.144 2.48,18.076 2.676,18.004C2.872,17.932 3.046,17.872 3.198,17.824C3.294,17.792 3.36,17.77 3.396,17.758C3.432,17.746 3.462,17.74 3.486,17.74C3.51,17.74 3.538,17.75 3.57,17.77C3.602,17.79 3.61,17.82 3.594,17.86C3.57,17.924 3.544,18.076 3.516,18.316C3.488,18.556 3.462,18.822 3.438,19.114C3.414,19.406 3.392,19.696 3.372,19.984C3.352,20.272 3.342,20.5 3.342,20.668C3.342,21.308 3.478,21.802 3.75,22.15C4.022,22.498 4.446,22.672 5.022,22.672C5.318,22.672 5.564,22.612 5.76,22.492C5.956,22.372 6.106,22.232 6.21,22.072C6.282,21.968 6.33,21.74 6.354,21.388C6.354,21.324 6.356,21.24 6.36,21.136C6.364,21.032 6.368,20.922 6.372,20.806C6.376,20.69 6.38,20.578 6.384,20.47C6.388,20.362 6.39,20.272 6.39,20.2C6.398,19.832 6.388,19.49 6.36,19.174C6.332,18.858 6.29,18.624 6.234,18.472C6.21,18.376 6.162,18.328 6.09,18.328C6.042,18.328 5.996,18.33 5.952,18.334C5.908,18.338 5.882,18.304 5.874,18.232C5.874,18.208 5.898,18.182 5.946,18.154C5.994,18.126 6.086,18.084 6.222,18.028C6.35,17.98 6.492,17.932 6.648,17.884C6.804,17.836 6.958,17.796 7.11,17.764C7.262,17.732 7.398,17.71 7.518,17.698C7.638,17.686 7.726,17.692 7.782,17.716C7.782,17.724 7.788,17.734 7.8,17.746C7.812,17.758 7.822,17.784 7.83,17.824C7.846,17.872 7.836,18.022 7.8,18.274C7.764,18.526 7.726,18.936 7.686,19.504C7.654,19.896 7.626,20.276 7.602,20.644C7.578,21.012 7.566,21.292 7.566,21.484C7.566,21.86 7.636,22.158 7.776,22.378C7.916,22.598 8.09,22.708 8.298,22.708C8.434,22.708 8.564,22.68 8.688,22.624C8.812,22.568 8.902,22.52 8.958,22.48C9.022,22.48 9.056,22.508 9.06,22.564C9.064,22.62 9.05,22.656 9.018,22.672C8.898,22.752 8.732,22.852 8.52,22.972C8.308,23.092 8.088,23.206 7.86,23.314C7.632,23.422 7.414,23.514 7.206,23.59C6.998,23.666 6.83,23.704 6.702,23.704C6.638,23.704 6.58,23.662 6.528,23.578C6.476,23.494 6.434,23.392 6.402,23.272C6.37,23.152 6.346,23.028 6.33,22.9C6.314,22.772 6.306,22.66 6.306,22.564C6.138,22.684 5.946,22.81 5.73,22.942C5.514,23.074 5.29,23.198 5.058,23.314C4.826,23.43 4.596,23.524 4.368,23.596C4.14,23.668 3.93,23.704 3.738,23.704C3.25,23.704 2.85,23.574 2.538,23.314C2.226,23.054 2.07,22.716 2.07,22.3C2.07,22.212 2.078,22.08 2.094,21.904C2.11,21.728 2.13,21.528 2.154,21.304C2.178,21.08 2.198,20.84 2.214,20.584C2.23,20.328 2.238,20.08 2.238,19.84C2.238,19.472 2.18,19.19 2.064,18.994C1.948,18.798 1.798,18.688 1.614,18.664L1.422,18.64Z" style="fill-rule:nonzero;"/>
            <path d="M14.634,21.928C14.65,21.912 14.664,21.914 14.676,21.934C14.688,21.954 14.696,21.982 14.7,22.018C14.704,22.054 14.702,22.092 14.694,22.132C14.686,22.172 14.67,22.204 14.646,22.228C14.486,22.38 14.286,22.54 14.046,22.708C13.806,22.876 13.558,23.032 13.302,23.176C13.23,23.216 13.13,23.268 13.002,23.332C12.874,23.396 12.732,23.458 12.576,23.518C12.42,23.578 12.26,23.63 12.096,23.674C11.932,23.718 11.778,23.74 11.634,23.74C11.346,23.74 11.074,23.684 10.818,23.572C10.562,23.46 10.338,23.306 10.146,23.11C9.954,22.914 9.804,22.68 9.696,22.408C9.588,22.136 9.534,21.84 9.534,21.52C9.534,21.176 9.582,20.852 9.678,20.548C9.774,20.244 9.884,19.972 10.008,19.732C10.132,19.492 10.25,19.29 10.362,19.126C10.474,18.962 10.55,18.84 10.59,18.76C10.438,18.752 10.3,18.746 10.176,18.742C10.052,18.738 9.934,18.736 9.822,18.736C9.566,18.736 9.35,18.738 9.174,18.742C8.998,18.746 8.842,18.764 8.706,18.796C8.642,18.812 8.582,18.844 8.526,18.892C8.47,18.94 8.422,18.976 8.382,19C8.366,18.984 8.344,18.962 8.316,18.934C8.288,18.906 8.274,18.876 8.274,18.844C8.274,18.828 8.278,18.816 8.286,18.808C8.286,18.8 8.338,18.754 8.442,18.67C8.546,18.586 8.676,18.486 8.832,18.37C8.988,18.254 9.16,18.126 9.348,17.986C9.536,17.846 9.716,17.716 9.888,17.596C10.06,17.476 10.208,17.374 10.332,17.29C10.456,17.206 10.538,17.156 10.578,17.14C10.626,17.124 10.674,17.132 10.722,17.164C10.77,17.196 10.786,17.22 10.77,17.236C10.746,17.252 10.71,17.282 10.662,17.326C10.614,17.37 10.598,17.408 10.614,17.44C10.702,17.512 10.854,17.576 11.07,17.632C11.286,17.688 11.53,17.734 11.802,17.77C12.074,17.806 12.354,17.834 12.642,17.854C12.93,17.874 13.19,17.884 13.422,17.884C13.766,17.884 14.042,17.874 14.25,17.854C14.458,17.834 14.63,17.808 14.766,17.776C14.894,17.744 14.978,17.72 15.018,17.704C15.026,17.704 15.042,17.716 15.066,17.74C15.09,17.764 15.102,17.792 15.102,17.824C15.102,17.84 15.044,17.88 14.928,17.944C14.812,18.008 14.694,18.076 14.574,18.148C14.502,18.188 14.416,18.24 14.316,18.304C14.216,18.368 14.108,18.43 13.992,18.49C13.876,18.55 13.754,18.604 13.626,18.652C13.498,18.7 13.374,18.728 13.254,18.736C13.134,18.752 12.994,18.764 12.834,18.772C12.674,18.78 12.506,18.786 12.33,18.79C12.154,18.794 11.976,18.798 11.796,18.802C11.616,18.806 11.45,18.808 11.298,18.808C11.274,18.848 11.236,18.914 11.184,19.006C11.132,19.098 11.082,19.216 11.034,19.36C10.986,19.504 10.942,19.668 10.902,19.852C10.862,20.036 10.842,20.236 10.842,20.452C10.842,20.78 10.892,21.082 10.992,21.358C11.092,21.634 11.232,21.872 11.412,22.072C11.592,22.272 11.806,22.428 12.054,22.54C12.302,22.652 12.57,22.708 12.858,22.708C13.026,22.708 13.188,22.688 13.344,22.648C13.5,22.608 13.648,22.556 13.788,22.492C13.928,22.428 14.058,22.358 14.178,22.282C14.298,22.206 14.402,22.132 14.49,22.06L14.634,21.928Z" style="fill-rule:nonzero;"/>
        </g>
        <g transform="matrix(1,0,0,1,62.3138,346.656)">
            <text x="-22.254px" y="23.596px" style="font-family:'Luminari-Regular', 'Luminari';font-size:12px;">C<tspan x="-14.874px -8.574px " y="23.596px 23.596px ">vO</tspan>ut</text>
        </g>
        <g transform="matrix(1,0,0,1,58.164,339.27)">
            <g transform="matrix(0.8973,0,0,0.884326,9.28968,12.4373)">
                <circle cx="3.434" cy="5.159" r="2.172" style="stroke:black;stroke-width:0.94px;"/>
            </g>
            <g transform="matrix(0.8973,0,0,0.884326,4.54775,12.4373)">
                <circle cx="3.434" cy="5.159" r="2.172" style="fill:white;stroke:black;stroke-width:0.94px;"/>
            </g>
            <g transform="matrix(0.8973,0,0,0.884326,-0.194181,12.4373)">
                <circle cx="3.434" cy="5.159" r="2.172" style="stroke:black;stroke-width:0.94px;"/>
            </g>
            <g transform="matrix(0.8973,0,0,0.884326,14.0316,12.4373)">
                <circle cx="3.434" cy="5.159" r="2.172" style="stroke:black;stroke-width:0.94px;"/>
            </g>
            <g transform="matrix(0.8973,0,0,0.884326,9.28968,6.70878)">
                <circle cx="3.434" cy="5.159" r="2.172" style="fill:white;stroke:black;stroke-width:0.94px;"/>
            </g>
            <g transform="matrix(0.8973,0,0,0.884326,4.54775,6.70878)">
                <circle cx="3.434" cy="5.159" r="2.172" style="stroke:black;stroke-width:0.94px;"/>
            </g>
            <g transform="matrix(0.8973,0,0,0.884326,-0.194181,6.70878)">
                <circle cx="3.434" cy="5.159" r="2.172" style="stroke:black;stroke-width:0.94px;"/>
            </g>
            <g transform="matrix(0.8973,0,0,0.884326,14.0316,6.70878)">
                <circle cx="3.434" cy="5.159" r="2.172" style="fill:white;stroke:black;stroke-width:0.94px;"/>
            </g>
            <g transform="matrix(0.8973,0,0,0.884326,9.28968,0.980236)">
                <circle cx="3.434" cy="5.159" r="2.172" style="fill:white;stroke:black;stroke-width:0.94px;"/>
            </g>
            <g transform="matrix(0.8973,0,0,0.884326,4.54775,0.980236)">
                <circle cx="3.434" cy="5.159" r="2.172" style="fill:white;stroke:black;stroke-width:0.94px;"/>
            </g>
            <g transform="matrix(0.8973,0,0,0.884326,-0.194181,0.980236)">
                <circle cx="3.434" cy="5.159" r="2.172" style="stroke:black;stroke-width:0.94px;"/>
            </g>
            <g transform="matrix(0.8973,0,0,0.884326,14.0316,0.980236)">
                <circle cx="3.434" cy="5.159" r="2.172" style="stroke:black;stroke-width:0.94px;"/>
            </g>
        </g>
        <g transform="matrix(0.0178906,0,0,0.0202937,37.7207,339.525)">
            <g transform="matrix(55.8954,0,0,49.2765,-878.032,-330.791)">
                <path d="M27.733,13.757C27.957,11.616 28.949,10 30.136,10C31.489,10 32.587,12.095 32.587,14.677C32.587,15.669 32.424,16.59 32.148,17.347C32.432,17.974 32.587,18.65 32.587,19.353C32.587,22.678 29.128,25.378 24.868,25.378C20.609,25.378 17.15,22.678 17.15,19.353C17.15,18.65 17.305,17.974 17.589,17.347C17.313,16.59 17.15,15.669 17.15,14.677C17.15,12.095 18.248,10 19.601,10C20.788,10 21.779,11.616 22.003,13.757L22.04,13.746C22.915,13.476 23.87,13.328 24.868,13.328C25.881,13.328 26.847,13.48 27.733,13.757ZM17.609,17.304L17.606,17.31L17.609,17.304ZM32.128,17.305L32.131,17.31L32.128,17.305ZM17.627,17.265L17.623,17.273L17.627,17.265ZM32.11,17.266L32.113,17.273L32.11,17.266ZM17.645,17.227L17.641,17.236L17.645,17.227ZM32.092,17.228L32.096,17.236L32.092,17.228ZM17.663,17.19L17.659,17.2L17.663,17.19ZM32.074,17.191L32.078,17.199L32.074,17.191ZM17.682,17.153L17.677,17.162L17.682,17.153ZM32.055,17.154L32.059,17.161L32.055,17.154ZM17.7,17.117L17.696,17.125L17.7,17.117ZM32.037,17.117L32.04,17.123L32.037,17.117ZM17.719,17.081L17.717,17.085L17.719,17.081ZM32.018,17.081L32.019,17.082L32.018,17.081ZM17.782,16.964L17.778,16.971L17.782,16.964ZM31.957,16.968L31.958,16.97L31.957,16.968ZM17.804,16.925L17.798,16.935L17.804,16.925ZM31.935,16.928L31.938,16.934L31.935,16.928ZM17.825,16.888L17.818,16.9L17.825,16.888ZM31.914,16.891L31.918,16.899L31.914,16.891ZM17.845,16.852L17.838,16.865L17.845,16.852ZM31.893,16.854L31.898,16.863L31.893,16.854ZM17.866,16.817L17.859,16.829L17.866,16.817ZM31.871,16.819L31.876,16.827L31.871,16.819ZM17.888,16.782L17.88,16.794L17.888,16.782ZM31.85,16.783L31.855,16.791L31.85,16.783ZM17.909,16.747L17.902,16.758L17.909,16.747ZM31.829,16.748L31.832,16.754L31.829,16.748ZM17.931,16.712L17.925,16.72L17.931,16.712ZM31.807,16.713L31.808,16.714L31.807,16.713ZM17.979,16.635L17.975,16.642L17.979,16.635ZM18.005,16.596L17.998,16.608L18.005,16.596ZM31.735,16.602L31.738,16.606L31.735,16.602ZM18.029,16.561L18.02,16.573L18.029,16.561ZM31.711,16.564L31.716,16.572L31.711,16.564ZM18.052,16.526L18.043,16.539L18.052,16.526ZM31.686,16.529L31.692,16.537L31.686,16.529ZM18.076,16.492L18.066,16.505L18.076,16.492ZM31.663,16.494L31.669,16.503L31.663,16.494ZM18.1,16.458L18.09,16.471L18.1,16.458ZM31.639,16.459L31.645,16.469L31.639,16.459ZM18.124,16.424L18.114,16.437L18.124,16.424ZM31.614,16.425L31.62,16.434L31.614,16.425ZM18.148,16.39L18.139,16.403L18.148,16.39ZM31.59,16.392L31.595,16.398L31.59,16.392ZM18.172,16.357L18.164,16.367L18.172,16.357ZM31.566,16.358L31.567,16.36L31.566,16.358ZM18.197,16.324L18.196,16.324L18.197,16.324ZM18.23,16.28L18.222,16.291L18.23,16.28ZM31.513,16.288L31.514,16.289L31.513,16.288ZM18.257,16.245L18.247,16.258L18.257,16.245ZM31.484,16.249L31.489,16.256L31.484,16.249ZM18.283,16.211L18.272,16.225L18.283,16.211ZM31.456,16.214L31.463,16.223L31.456,16.214ZM18.309,16.178L18.298,16.192L18.309,16.178ZM31.43,16.18L31.438,16.19L31.43,16.18ZM18.335,16.145L18.324,16.16L18.335,16.145ZM31.403,16.147L31.411,16.158L31.403,16.147ZM18.362,16.113L18.35,16.127L18.362,16.113ZM31.376,16.114L31.385,16.125L31.376,16.114ZM18.388,16.081L18.377,16.094L18.388,16.081ZM31.35,16.082L31.357,16.091L31.35,16.082ZM18.415,16.049L18.404,16.061L18.415,16.049ZM31.323,16.05L31.329,16.057L31.323,16.05ZM18.442,16.017L18.433,16.027L18.442,16.017ZM31.295,16.018L31.298,16.021L31.295,16.018ZM18.473,15.981L18.469,15.985L18.473,15.981ZM18.507,15.942L18.497,15.954L18.507,15.942ZM31.234,15.947L31.239,15.953L31.234,15.947ZM18.536,15.909L18.525,15.922L18.536,15.909ZM31.203,15.912L31.211,15.921L31.203,15.912ZM18.565,15.877L18.553,15.891L18.565,15.877ZM31.174,15.879L31.183,15.89L31.174,15.879ZM18.594,15.846L18.581,15.86L18.594,15.846ZM31.145,15.847L31.155,15.859L31.145,15.847ZM18.622,15.815L18.61,15.828L18.622,15.815ZM31.115,15.816L31.126,15.827L31.115,15.816ZM18.651,15.784L18.639,15.797L18.651,15.784ZM31.086,15.785L31.097,15.796L31.086,15.785ZM18.68,15.753L18.668,15.766L18.68,15.753ZM31.057,15.754L31.067,15.765L31.057,15.754ZM18.71,15.723L18.698,15.735L18.71,15.723ZM31.027,15.723L31.037,15.733L31.027,15.723ZM18.739,15.692L18.73,15.702L18.739,15.692ZM30.998,15.693L31.003,15.698L30.998,15.693ZM18.775,15.656L18.769,15.662L18.775,15.656ZM30.965,15.659L30.967,15.662L30.965,15.659ZM18.81,15.621L18.799,15.632L18.81,15.621ZM30.928,15.622L30.937,15.632L30.928,15.622ZM18.842,15.59L18.83,15.602L18.842,15.59ZM30.895,15.591L30.907,15.602L30.895,15.591ZM18.873,15.56L18.86,15.572L18.873,15.56ZM30.864,15.56L30.876,15.572L30.864,15.56ZM18.904,15.53L18.891,15.543L18.904,15.53ZM30.832,15.53L30.846,15.543L30.832,15.53ZM30.801,15.5L30.814,15.513L30.801,15.5ZM18.936,15.501L18.923,15.513L18.936,15.501ZM30.769,15.471L30.783,15.484L30.769,15.471ZM18.967,15.471L18.954,15.483L18.967,15.471ZM30.738,15.442L30.751,15.454L30.738,15.442ZM18.999,15.442L18.986,15.454L18.999,15.442ZM30.706,15.413L30.719,15.425L30.706,15.413ZM19.031,15.413L19.019,15.424L19.031,15.413ZM30.674,15.384L30.684,15.394L30.674,15.384ZM19.063,15.385L19.056,15.391L19.063,15.385ZM30.63,15.346L30.642,15.356L30.63,15.346ZM19.101,15.35L19.095,15.356L19.101,15.35ZM30.595,15.315L30.61,15.328L30.595,15.315ZM19.139,15.318L19.128,15.327L19.139,15.318ZM30.561,15.286L30.577,15.3L30.561,15.286ZM19.173,15.288L19.161,15.299L19.173,15.288ZM30.528,15.258L30.544,15.272L30.528,15.258ZM19.207,15.26L19.194,15.271L19.207,15.26ZM30.494,15.23L30.511,15.244L30.494,15.23ZM19.241,15.231L19.227,15.243L19.241,15.231ZM30.461,15.202L30.478,15.216L30.461,15.202ZM19.274,15.204L19.261,15.215L19.274,15.204ZM30.427,15.175L30.444,15.189L30.427,15.175ZM19.308,15.176L19.295,15.187L19.308,15.176ZM30.393,15.147L30.41,15.161L30.393,15.147ZM19.342,15.149L19.33,15.158L19.342,15.149ZM30.359,15.12L30.376,15.134L30.359,15.12ZM19.377,15.121L19.366,15.129L19.377,15.121ZM30.325,15.093L30.343,15.107L30.326,15.094L30.305,15.078L30.325,15.093ZM19.411,15.094L19.409,15.096L19.411,15.094ZM30.273,15.053L30.292,15.068L30.273,15.053ZM19.452,15.062L19.446,15.067L19.452,15.062ZM30.238,15.027L30.257,15.041L30.238,15.027ZM19.492,15.032L19.481,15.04L19.492,15.032ZM30.203,15L30.222,15.015L30.203,15ZM19.529,15.004L19.516,15.013L19.529,15.004ZM30.168,14.974L30.187,14.989L30.168,14.974ZM19.565,14.977L19.552,14.987L19.565,14.977ZM30.132,14.948L30.152,14.963L30.132,14.948ZM19.601,14.951L19.588,14.961L19.601,14.951ZM30.097,14.922L30.117,14.937L30.097,14.922ZM19.637,14.925L19.624,14.934L19.637,14.925ZM30.061,14.897L30.081,14.911L30.061,14.897ZM19.673,14.899L19.661,14.908L19.673,14.899ZM30.025,14.871L30.046,14.886L30.025,14.871ZM19.71,14.873L19.698,14.881L19.71,14.873ZM29.988,14.846L30.011,14.862L29.988,14.846ZM19.746,14.848L19.738,14.853L19.746,14.848ZM29.954,14.822L29.915,14.796C29.928,14.805 29.941,14.813 29.954,14.822ZM19.826,14.793L19.821,14.796L19.826,14.793ZM29.858,14.758L29.881,14.773L29.858,14.758ZM19.868,14.765L19.858,14.771L19.868,14.765ZM29.822,14.734L29.845,14.749L29.822,14.734ZM19.907,14.739L19.896,14.747L19.907,14.739ZM29.785,14.71L29.807,14.724L29.785,14.71ZM19.946,14.714L19.933,14.722L19.946,14.714ZM29.747,14.686L29.77,14.7L29.747,14.686ZM19.984,14.689L19.971,14.697L19.984,14.689ZM29.71,14.662L29.733,14.676L29.71,14.662ZM20.023,14.665L20.01,14.673L20.023,14.665ZM29.672,14.638L29.696,14.653L29.672,14.638ZM20.061,14.641L20.049,14.648L20.061,14.641ZM29.634,14.615L29.659,14.63L29.634,14.615ZM20.099,14.617L20.09,14.623L20.099,14.617ZM29.494,14.531C29.537,14.556 29.58,14.582 29.623,14.608C29.581,14.582 29.538,14.556 29.494,14.531ZM20.138,14.593L20.134,14.596L20.138,14.593ZM20.221,14.543L20.218,14.545L20.221,14.543ZM29.458,14.51L29.483,14.525L29.458,14.51ZM20.266,14.517L20.257,14.522L20.266,14.517ZM29.42,14.488L29.444,14.502L29.42,14.488ZM20.308,14.493L20.297,14.499L20.308,14.493ZM29.381,14.466L29.405,14.48L29.381,14.466ZM20.349,14.47L20.337,14.477L20.349,14.47ZM29.341,14.444L29.366,14.457L29.341,14.444ZM20.389,14.447L20.377,14.454L20.389,14.447ZM29.302,14.422L29.327,14.436L29.302,14.422ZM20.43,14.425L20.418,14.431L20.43,14.425ZM29.262,14.4L29.288,14.414L29.262,14.4ZM20.47,14.403L20.46,14.408L20.47,14.403ZM29.222,14.379L29.249,14.393L29.222,14.379ZM20.51,14.381L20.503,14.385L20.51,14.381ZM29.186,14.359L29.143,14.337C29.157,14.344 29.171,14.352 29.186,14.359ZM29.077,14.303L29.105,14.317L29.077,14.303ZM20.638,14.314L20.636,14.315L20.638,14.314ZM29.038,14.283L29.064,14.296L29.038,14.283ZM20.685,14.29L20.677,14.294L20.685,14.29ZM28.998,14.263L29.023,14.276L28.998,14.263ZM20.729,14.268L20.719,14.273L20.729,14.268ZM28.957,14.243L28.982,14.255L28.957,14.243ZM20.772,14.247L20.761,14.252L20.772,14.247ZM28.916,14.223L28.941,14.235L28.916,14.223ZM20.814,14.226L20.803,14.232L20.814,14.226ZM28.875,14.203L28.899,14.215L28.875,14.203ZM20.857,14.206L20.846,14.211L20.857,14.206ZM28.833,14.184L28.858,14.195L28.833,14.184ZM20.899,14.186L20.891,14.19L20.899,14.186ZM28.791,14.164L28.817,14.176L28.791,14.164ZM20.942,14.166L20.937,14.168L20.942,14.166ZM28.752,14.146L28.707,14.126C28.722,14.133 28.737,14.139 28.752,14.146ZM28.643,14.097L28.667,14.108L28.643,14.097ZM21.075,14.106L21.074,14.106L21.075,14.106ZM28.601,14.079L28.624,14.089L28.601,14.079ZM21.124,14.084L21.117,14.087L21.124,14.084ZM28.558,14.061L28.581,14.071L28.558,14.061ZM21.17,14.065L21.161,14.068L21.17,14.065ZM28.516,14.043L28.538,14.052L28.516,14.043ZM21.215,14.046L21.204,14.05L21.215,14.046ZM28.473,14.025L28.494,14.034L28.473,14.025ZM21.259,14.027L21.249,14.031L21.259,14.027ZM28.429,14.007L28.451,14.016L28.429,14.007ZM21.303,14.009L21.294,14.013L21.303,14.009ZM28.386,13.989L28.406,13.998L28.386,13.989ZM21.347,13.991L21.341,13.994L21.347,13.991ZM28.342,13.972L28.361,13.979L28.342,13.972ZM21.392,13.973L21.391,13.974L21.392,13.973ZM28.298,13.955L28.311,13.96L28.298,13.955ZM28.243,13.934L28.254,13.938L28.243,13.934ZM28.195,13.915L28.21,13.921L28.195,13.915ZM21.531,13.92L21.53,13.92L21.531,13.92ZM28.149,13.898L28.165,13.904L28.149,13.898ZM21.581,13.901L21.575,13.903L21.581,13.901ZM28.103,13.882L28.119,13.888L28.103,13.882ZM21.629,13.884L21.62,13.887L21.629,13.884ZM28.058,13.866L28.074,13.871L28.058,13.866ZM21.675,13.867L21.666,13.87L21.675,13.867ZM28.013,13.85L28.028,13.855L28.013,13.85ZM21.721,13.851L21.713,13.854L21.721,13.851ZM27.968,13.834L27.981,13.839L27.968,13.834ZM21.767,13.835L21.76,13.837L21.767,13.835ZM27.922,13.819L27.932,13.822L27.922,13.819ZM21.813,13.819L21.809,13.821L21.813,13.819ZM27.877,13.803L27.879,13.804L27.877,13.803Z" style="fill:none;stroke:black;stroke-width:1.22px;"/>
            </g>
            <g transform="matrix(55.8954,0,0,49.2765,-878.032,-330.791)">
                <path d="M25.128,19.358C24.963,19.04 24.868,18.67 24.868,18.275C24.868,17.096 25.713,16.138 26.753,16.138C27.793,16.138 28.637,17.096 28.637,18.275C28.637,19.031 28.291,19.696 27.768,20.076C27.128,19.668 26.188,19.396 25.128,19.358ZM21.969,20.076C21.446,19.696 21.099,19.031 21.099,18.275C21.099,17.096 21.944,16.138 22.984,16.138C24.024,16.138 24.868,17.096 24.868,18.275C24.868,18.67 24.774,19.04 24.609,19.358C23.549,19.396 22.609,19.668 21.969,20.076Z" style="fill:none;stroke:black;stroke-width:1.22px;"/>
            </g>
            <g transform="matrix(1,0,0,1,-53.1856,50.0357)">
                <ellipse cx="565.186" cy="671.455" rx="210.672" ry="98.631" style="fill:none;stroke:black;stroke-width:63.81px;"/>
            </g>
            <g transform="matrix(51.2,0,0,45.1371,0.670978,88.9676)">
                <path d="M12.057,13.791C12.057,13.668 11.958,13.568 11.835,13.568L8.139,13.568C8.016,13.568 7.916,13.668 7.916,13.791L7.916,14.236C7.916,14.359 8.016,14.458 8.139,14.458L11.835,14.458C11.958,14.458 12.057,14.359 12.057,14.236L12.057,13.791Z"/>
            </g>
        </g>
    </g>
</svg>
