<?xml version="1.0" encoding="UTF-8" standalone="no"?>
<!DOCTYPE svg PUBLIC "-//W3C//DTD SVG 1.1//EN" "http://www.w3.org/Graphics/SVG/1.1/DTD/svg11.dtd">
<svg width="100%" height="100%" viewBox="0 0 60 380" version="1.1" xmlns="http://www.w3.org/2000/svg" xmlns:xlink="http://www.w3.org/1999/xlink" xml:space="preserve" xmlns:serif="http://www.serif.com/" style="fill-rule:evenodd;clip-rule:evenodd;stroke-linecap:round;stroke-linejoin:round;stroke-miterlimit:1.5;">
    <g transform="matrix(0.359397,0,0,1.48634,-9.69795,-44.3619)">
        <rect x="26.984" y="29.846" width="166.946" height="255.662" style="fill:rgb(102,126,153);"/>
    </g>
    <g id="Label" transform="matrix(1,0,0,1,-27.2261,11.8096)">
        <g transform="matrix(1,0,0,1,58.164,339.27)">
            <g transform="matrix(0.8973,0,0,0.884326,9.28968,12.4373)">
                <circle cx="3.434" cy="5.159" r="2.172" style="stroke:black;stroke-width:0.94px;"/>
            </g>
            <g transform="matrix(0.8973,0,0,0.884326,4.54775,12.4373)">
                <circle cx="3.434" cy="5.159" r="2.172" style="fill:white;stroke:black;stroke-width:0.94px;"/>
            </g>
            <g transform="matrix(0.8973,0,0,0.884326,-0.194181,12.4373)">
                <circle cx="3.434" cy="5.159" r="2.172" style="stroke:black;stroke-width:0.94px;"/>
            </g>
            <g transform="matrix(0.8973,0,0,0.884326,14.0316,12.4373)">
                <circle cx="3.434" cy="5.159" r="2.172" style="stroke:black;stroke-width:0.94px;"/>
            </g>
            <g transform="matrix(0.8973,0,0,0.884326,9.28968,6.70878)">
                <circle cx="3.434" cy="5.159" r="2.172" style="fill:white;stroke:black;stroke-width:0.94px;"/>
            </g>
            <g transform="matrix(0.8973,0,0,0.884326,4.54775,6.70878)">
                <circle cx="3.434" cy="5.159" r="2.172" style="stroke:black;stroke-width:0.94px;"/>
            </g>
            <g transform="matrix(0.8973,0,0,0.884326,-0.194181,6.70878)">
                <circle cx="3.434" cy="5.159" r="2.172" style="stroke:black;stroke-width:0.94px;"/>
            </g>
            <g transform="matrix(0.8973,0,0,0.884326,14.0316,6.70878)">
                <circle cx="3.434" cy="5.159" r="2.172" style="fill:white;stroke:black;stroke-width:0.94px;"/>
            </g>
            <g transform="matrix(0.8973,0,0,0.884326,9.28968,0.980236)">
                <circle cx="3.434" cy="5.159" r="2.172" style="fill:white;stroke:black;stroke-width:0.94px;"/>
            </g>
            <g transform="matrix(0.8973,0,0,0.884326,4.54775,0.980236)">
                <circle cx="3.434" cy="5.159" r="2.172" style="fill:white;stroke:black;stroke-width:0.94px;"/>
            </g>
            <g transform="matrix(0.8973,0,0,0.884326,-0.194181,0.980236)">
                <circle cx="3.434" cy="5.159" r="2.172" style="stroke:black;stroke-width:0.94px;"/>
            </g>
            <g transform="matrix(0.8973,0,0,0.884326,14.0316,0.980236)">
                <circle cx="3.434" cy="5.159" r="2.172" style="stroke:black;stroke-width:0.94px;"/>
            </g>
        </g>
        <g transform="matrix(0.0178906,0,0,0.0202937,36.3172,339.604)">
            <g transform="matrix(1,0,0,1,-143.343,98.6554)">
                <ellipse cx="360.896" cy="293.762" rx="136.961" ry="230.443" style="fill:rgb(102,126,153);stroke:black;stroke-width:63.81px;"/>
            </g>
            <g transform="matrix(1,0,0,1,445.551,98.6554)">
                <ellipse cx="360.896" cy="293.762" rx="136.961" ry="230.443" style="fill:rgb(102,126,153);stroke:black;stroke-width:63.81px;"/>
            </g>
            <g transform="matrix(1,0,0,1,-34.3236,-20.6488)">
                <ellipse cx="546.324" cy="643.509" rx="431.408" ry="296.899" style="fill:rgb(102,126,153);stroke:black;stroke-width:63.81px;"/>
            </g>
            <circle cx="406.664" cy="569.758" r="105.336" style="fill:rgb(102,126,153);stroke:black;stroke-width:63.81px;"/>
            <g transform="matrix(1,0,0,1,210.672,0)">
                <circle cx="406.664" cy="569.758" r="105.336" style="fill:rgb(102,126,153);stroke:black;stroke-width:63.81px;"/>
            </g>
            <g transform="matrix(1,0,0,1,-53.1856,50.0357)">
                <ellipse cx="565.186" cy="671.455" rx="210.672" ry="98.631" style="fill:rgb(102,126,153);stroke:black;stroke-width:63.81px;"/>
            </g>
            <g transform="matrix(51.2,0,0,45.1371,0.670978,88.9676)">
                <path d="M12.057,13.791C12.057,13.668 11.958,13.568 11.835,13.568L8.139,13.568C8.016,13.568 7.916,13.668 7.916,13.791L7.916,14.236C7.916,14.359 8.016,14.458 8.139,14.458L11.835,14.458C11.958,14.458 12.057,14.359 12.057,14.236L12.057,13.791Z"/>
            </g>
        </g>
    </g>
    <g transform="matrix(1,0,0,1,-88.8763,137.758)">
        <g transform="matrix(0.3556,0,0,72.8139,83.9261,-21717.6)">
            <rect x="13.921" y="296.737" width="168.729" height="3.935" style="fill:rgb(191,191,191);"/>
        </g>
        <g transform="matrix(1.65167,0,0,0.695794,-178.624,112.334)">
            <rect x="161.957" y="57.989" width="36.327" height="2.261"/>
        </g>
        <g transform="matrix(1.65167,0,0,0.695794,-178.624,78.6945)">
            <rect x="161.957" y="57.989" width="36.327" height="2.261"/>
        </g>
        <g transform="matrix(1.65167,0,0,0.695794,-178.624,43.3266)">
            <rect x="161.957" y="57.989" width="36.327" height="2.261"/>
        </g>
        <g transform="matrix(1.65167,0,0,0.695794,-178.624,8.01938)">
            <rect x="161.957" y="57.989" width="36.327" height="2.261"/>
        </g>
        <g transform="matrix(1.65167,0,0,0.695794,-178.624,-25.4274)">
            <rect x="161.957" y="57.989" width="36.327" height="2.261"/>
        </g>
        <g transform="matrix(1.65167,0,0,0.695794,-178.624,-60.2029)">
            <rect x="161.957" y="57.989" width="36.327" height="2.261"/>
        </g>
        <g transform="matrix(1.65167,0,0,0.695794,-178.624,-94.5002)">
            <rect x="161.957" y="57.989" width="36.327" height="2.261"/>
        </g>
        <g transform="matrix(1.65167,0,0,0.695794,-178.624,-130.158)">
            <rect x="161.957" y="57.989" width="36.327" height="2.261"/>
        </g>
        <g id="BitIn8-input" serif:id="BitIn8#input" transform="matrix(0.175002,0,0,0.175002,95.2635,120.969)">
            <rect x="53.94" y="106.916" width="161.978" height="161.978" style="fill:rgb(230,230,230);"/>
        </g>
        <g id="BitIn7-input" serif:id="BitIn7#input" transform="matrix(0.175002,0,0,0.175002,95.2635,86.2175)">
            <rect x="53.94" y="106.916" width="161.978" height="161.978" style="fill:rgb(230,230,230);"/>
        </g>
        <g id="BitIn6-input" serif:id="BitIn6#input" transform="matrix(0.175002,0,0,0.175002,95.2635,16.7147)">
            <rect x="53.94" y="106.916" width="161.978" height="161.978" style="fill:rgb(230,230,230);"/>
        </g>
        <g id="BitIn5-input" serif:id="BitIn5#input" transform="matrix(0.175002,0,0,0.175002,95.2635,51.4661)">
            <rect x="53.94" y="106.916" width="161.978" height="161.978" style="fill:rgb(230,230,230);"/>
        </g>
        <g id="BitIn4-input" serif:id="BitIn4#input" transform="matrix(0.175002,0,0,0.175002,95.2635,-18.0367)">
            <rect x="53.94" y="106.916" width="161.978" height="161.978" style="fill:rgb(230,230,230);"/>
        </g>
        <g id="BitIn3-input" serif:id="BitIn3#input" transform="matrix(0.175002,0,0,0.175002,95.2635,-52.7881)">
            <rect x="53.94" y="106.916" width="161.978" height="161.978" style="fill:rgb(230,230,230);"/>
        </g>
        <g id="BitIn2-input" serif:id="BitIn2#input" transform="matrix(0.175002,0,0,0.175002,95.2635,-87.5395)">
            <rect x="53.94" y="106.916" width="161.978" height="161.978" style="fill:rgb(230,230,230);"/>
        </g>
        <g id="BitIn1-input" serif:id="BitIn1#input" transform="matrix(0.175002,0,0,0.175002,95.2635,-122.291)">
            <rect x="53.94" y="106.916" width="161.978" height="161.978" style="fill:rgb(230,230,230);"/>
        </g>
    </g>
    <g id="BusOut-led" serif:id="BusOut#led" transform="matrix(1,0,0,1,3.18651,10.8256)">
        <circle cx="42.167" cy="335.861" r="3.82" style="fill:rgb(230,230,230);"/>
    </g>
    <g id="BusIn-led" serif:id="BusIn#led" transform="matrix(1,0,0,1,-27.8135,10.8256)">
        <circle cx="42.167" cy="335.861" r="3.82" style="fill:rgb(230,230,230);"/>
    </g>
    <g>
        <g transform="matrix(1,0,0,1,52.5375,-4.53575)">
            <path d="M-37.068,23.344C-37.252,23.448 -37.484,23.556 -37.764,23.668C-38.044,23.78 -38.336,23.836 -38.64,23.836C-38.824,23.836 -38.956,23.82 -39.036,23.788C-39.116,23.756 -39.156,23.692 -39.156,23.596C-39.156,23.564 -39.15,23.528 -39.138,23.488C-39.126,23.448 -39.112,23.414 -39.096,23.386C-39.08,23.358 -39.06,23.338 -39.036,23.326C-39.012,23.314 -38.988,23.324 -38.964,23.356C-38.916,23.42 -38.844,23.456 -38.748,23.464C-38.652,23.472 -38.548,23.476 -38.436,23.476C-38.268,23.468 -38.116,23.41 -37.98,23.302C-37.844,23.194 -37.744,23.048 -37.68,22.864C-37.648,22.752 -37.616,22.576 -37.584,22.336C-37.552,22.096 -37.526,21.808 -37.506,21.472C-37.486,21.136 -37.47,20.762 -37.458,20.35C-37.446,19.938 -37.44,19.504 -37.44,19.048C-37.44,18.008 -37.468,17.198 -37.524,16.618C-37.58,16.038 -37.652,15.704 -37.74,15.616C-37.804,15.568 -37.884,15.53 -37.98,15.502C-38.076,15.474 -38.174,15.456 -38.274,15.448C-38.374,15.44 -38.472,15.436 -38.568,15.436C-38.664,15.436 -38.74,15.44 -38.796,15.448C-38.852,15.456 -38.896,15.44 -38.928,15.4C-38.96,15.36 -38.976,15.32 -38.976,15.28C-38.976,15.136 -38.924,15.064 -38.82,15.064C-38.764,15.064 -38.664,15.07 -38.52,15.082C-38.376,15.094 -38.21,15.106 -38.022,15.118C-37.834,15.13 -37.636,15.14 -37.428,15.148C-37.22,15.156 -37.032,15.16 -36.864,15.16C-36.656,15.16 -36.462,15.128 -36.282,15.064C-36.102,15 -35.916,14.928 -35.724,14.848C-35.532,14.768 -35.322,14.696 -35.094,14.632C-34.866,14.568 -34.6,14.536 -34.296,14.536C-33.92,14.536 -33.568,14.568 -33.24,14.632C-32.912,14.696 -32.628,14.794 -32.388,14.926C-32.148,15.058 -31.958,15.228 -31.818,15.436C-31.678,15.644 -31.608,15.888 -31.608,16.168C-31.608,16.488 -31.676,16.778 -31.812,17.038C-31.948,17.298 -32.118,17.528 -32.322,17.728C-32.526,17.928 -32.742,18.098 -32.97,18.238C-33.198,18.378 -33.404,18.484 -33.588,18.556C-33.292,18.58 -32.968,18.63 -32.616,18.706C-32.264,18.782 -31.936,18.898 -31.632,19.054C-31.328,19.21 -31.074,19.416 -30.87,19.672C-30.666,19.928 -30.564,20.248 -30.564,20.632C-30.564,20.936 -30.626,21.226 -30.75,21.502C-30.874,21.778 -31.04,22.034 -31.248,22.27C-31.456,22.506 -31.694,22.722 -31.962,22.918C-32.23,23.114 -32.51,23.28 -32.802,23.416C-33.094,23.552 -33.39,23.658 -33.69,23.734C-33.99,23.81 -34.268,23.848 -34.524,23.848C-34.676,23.848 -34.866,23.834 -35.094,23.806C-35.322,23.778 -35.556,23.74 -35.796,23.692C-36.036,23.644 -36.27,23.59 -36.498,23.53C-36.726,23.47 -36.916,23.408 -37.068,23.344ZM-36.036,20.896C-36.028,21.312 -36.016,21.612 -36,21.796C-35.984,21.98 -35.968,22.12 -35.952,22.216C-35.928,22.352 -35.87,22.486 -35.778,22.618C-35.686,22.75 -35.566,22.872 -35.418,22.984C-35.27,23.096 -35.098,23.186 -34.902,23.254C-34.706,23.322 -34.488,23.356 -34.248,23.356C-33.992,23.356 -33.752,23.312 -33.528,23.224C-33.304,23.136 -33.11,22.998 -32.946,22.81C-32.782,22.622 -32.652,22.38 -32.556,22.084C-32.46,21.788 -32.412,21.432 -32.412,21.016C-32.412,20.64 -32.472,20.32 -32.592,20.056C-32.712,19.792 -32.882,19.578 -33.102,19.414C-33.322,19.25 -33.588,19.132 -33.9,19.06C-34.212,18.988 -34.56,18.952 -34.944,18.952C-35.168,18.952 -35.38,18.954 -35.58,18.958C-35.78,18.962 -35.928,18.968 -36.024,18.976C-36.032,19.064 -36.036,19.156 -36.036,19.252L-36.036,20.896ZM-35.868,15.688C-35.884,15.792 -35.9,15.936 -35.916,16.12C-35.932,16.304 -35.948,16.518 -35.964,16.762C-35.98,17.006 -35.994,17.27 -36.006,17.554C-36.018,17.838 -36.028,18.132 -36.036,18.436C-36.028,18.46 -35.984,18.478 -35.904,18.49C-35.824,18.502 -35.73,18.512 -35.622,18.52C-35.514,18.528 -35.4,18.534 -35.28,18.538C-35.16,18.542 -35.052,18.544 -34.956,18.544C-34.804,18.544 -34.672,18.538 -34.56,18.526C-34.448,18.514 -34.35,18.494 -34.266,18.466C-34.182,18.438 -34.104,18.404 -34.032,18.364C-33.96,18.324 -33.888,18.272 -33.816,18.208C-33.68,18.104 -33.554,17.936 -33.438,17.704C-33.322,17.472 -33.264,17.152 -33.264,16.744C-33.264,16.456 -33.304,16.202 -33.384,15.982C-33.464,15.762 -33.568,15.578 -33.696,15.43C-33.824,15.282 -33.97,15.172 -34.134,15.1C-34.298,15.028 -34.468,14.992 -34.644,14.992C-34.732,14.992 -34.84,15.004 -34.968,15.028C-35.096,15.052 -35.22,15.09 -35.34,15.142C-35.46,15.194 -35.57,15.266 -35.67,15.358C-35.77,15.45 -35.836,15.56 -35.868,15.688Z" style="fill-rule:nonzero;"/>
            <path d="M-28.08,21.508C-28.08,21.676 -28.076,21.838 -28.068,21.994C-28.06,22.15 -28.032,22.284 -27.984,22.396C-27.936,22.508 -27.864,22.598 -27.768,22.666C-27.672,22.734 -27.536,22.768 -27.36,22.768C-27.272,22.768 -27.172,22.758 -27.06,22.738C-26.948,22.718 -26.842,22.692 -26.742,22.66C-26.642,22.628 -26.554,22.596 -26.478,22.564C-26.402,22.532 -26.356,22.508 -26.34,22.492C-26.316,22.468 -26.3,22.468 -26.292,22.492C-26.284,22.516 -26.282,22.546 -26.286,22.582C-26.29,22.618 -26.3,22.654 -26.316,22.69C-26.332,22.726 -26.352,22.752 -26.376,22.768C-26.456,22.808 -26.596,22.88 -26.796,22.984C-26.996,23.088 -27.232,23.196 -27.504,23.308C-27.76,23.42 -28.01,23.514 -28.254,23.59C-28.498,23.666 -28.7,23.704 -28.86,23.704C-29.044,23.704 -29.188,23.648 -29.292,23.536C-29.396,23.424 -29.448,23.284 -29.448,23.116C-29.448,23.06 -29.446,23.012 -29.442,22.972C-29.438,22.932 -29.432,22.88 -29.424,22.816C-29.416,22.736 -29.402,22.59 -29.382,22.378C-29.362,22.166 -29.342,21.928 -29.322,21.664C-29.302,21.4 -29.284,21.134 -29.268,20.866C-29.252,20.598 -29.244,20.368 -29.244,20.176L-29.244,19.756C-29.244,19.548 -29.256,19.364 -29.28,19.204C-29.304,19.044 -29.344,18.92 -29.4,18.832C-29.44,18.776 -29.49,18.73 -29.55,18.694C-29.61,18.658 -29.684,18.64 -29.772,18.64C-29.82,18.64 -29.868,18.65 -29.916,18.67C-29.964,18.69 -30,18.7 -30.024,18.7C-30.04,18.7 -30.066,18.676 -30.102,18.628C-30.138,18.58 -30.136,18.544 -30.096,18.52C-30.04,18.48 -29.924,18.416 -29.748,18.328C-29.572,18.24 -29.38,18.144 -29.172,18.04C-28.948,17.928 -28.732,17.83 -28.524,17.746C-28.316,17.662 -28.168,17.62 -28.08,17.62C-27.992,17.62 -27.932,17.646 -27.9,17.698C-27.868,17.75 -27.852,17.808 -27.852,17.872L-27.852,17.92C-27.852,18 -27.864,18.128 -27.888,18.304C-27.912,18.48 -27.938,18.696 -27.966,18.952C-27.994,19.208 -28.02,19.504 -28.044,19.84C-28.068,20.176 -28.08,20.54 -28.08,20.932L-28.08,21.508ZM-28.56,15.268C-28.52,15.276 -28.454,15.32 -28.362,15.4C-28.27,15.48 -28.176,15.572 -28.08,15.676C-27.984,15.78 -27.9,15.88 -27.828,15.976C-27.756,16.072 -27.72,16.136 -27.72,16.168C-27.72,16.208 -27.768,16.268 -27.864,16.348C-27.96,16.428 -28.07,16.51 -28.194,16.594C-28.318,16.678 -28.438,16.752 -28.554,16.816C-28.67,16.88 -28.752,16.912 -28.8,16.912C-28.824,16.912 -28.882,16.874 -28.974,16.798C-29.066,16.722 -29.16,16.636 -29.256,16.54C-29.352,16.444 -29.438,16.35 -29.514,16.258C-29.59,16.166 -29.628,16.104 -29.628,16.072C-29.628,16.032 -29.576,15.97 -29.472,15.886C-29.368,15.802 -29.254,15.714 -29.13,15.622C-29.006,15.53 -28.886,15.45 -28.77,15.382C-28.654,15.314 -28.584,15.276 -28.56,15.268Z" style="fill-rule:nonzero;"/>
            <path d="M-21.024,21.928C-21.008,21.912 -20.994,21.914 -20.982,21.934C-20.97,21.954 -20.962,21.982 -20.958,22.018C-20.954,22.054 -20.956,22.092 -20.964,22.132C-20.972,22.172 -20.988,22.204 -21.012,22.228C-21.172,22.38 -21.372,22.54 -21.612,22.708C-21.852,22.876 -22.1,23.032 -22.356,23.176C-22.428,23.216 -22.528,23.268 -22.656,23.332C-22.784,23.396 -22.926,23.458 -23.082,23.518C-23.238,23.578 -23.398,23.63 -23.562,23.674C-23.726,23.718 -23.88,23.74 -24.024,23.74C-24.312,23.74 -24.584,23.684 -24.84,23.572C-25.096,23.46 -25.32,23.306 -25.512,23.11C-25.704,22.914 -25.854,22.68 -25.962,22.408C-26.07,22.136 -26.124,21.84 -26.124,21.52C-26.124,21.176 -26.076,20.852 -25.98,20.548C-25.884,20.244 -25.774,19.972 -25.65,19.732C-25.526,19.492 -25.408,19.29 -25.296,19.126C-25.184,18.962 -25.108,18.84 -25.068,18.76C-25.22,18.752 -25.358,18.746 -25.482,18.742C-25.606,18.738 -25.724,18.736 -25.836,18.736C-26.092,18.736 -26.308,18.738 -26.484,18.742C-26.66,18.746 -26.816,18.764 -26.952,18.796C-27.016,18.812 -27.076,18.844 -27.132,18.892C-27.188,18.94 -27.236,18.976 -27.276,19C-27.292,18.984 -27.314,18.962 -27.342,18.934C-27.37,18.906 -27.384,18.876 -27.384,18.844C-27.384,18.828 -27.38,18.816 -27.372,18.808C-27.372,18.8 -27.32,18.754 -27.216,18.67C-27.112,18.586 -26.982,18.486 -26.826,18.37C-26.67,18.254 -26.498,18.126 -26.31,17.986C-26.122,17.846 -25.942,17.716 -25.77,17.596C-25.598,17.476 -25.45,17.374 -25.326,17.29C-25.202,17.206 -25.12,17.156 -25.08,17.14C-25.032,17.124 -24.984,17.132 -24.936,17.164C-24.888,17.196 -24.872,17.22 -24.888,17.236C-24.912,17.252 -24.948,17.282 -24.996,17.326C-25.044,17.37 -25.06,17.408 -25.044,17.44C-24.956,17.512 -24.804,17.576 -24.588,17.632C-24.372,17.688 -24.128,17.734 -23.856,17.77C-23.584,17.806 -23.304,17.834 -23.016,17.854C-22.728,17.874 -22.468,17.884 -22.236,17.884C-21.892,17.884 -21.616,17.874 -21.408,17.854C-21.2,17.834 -21.028,17.808 -20.892,17.776C-20.764,17.744 -20.68,17.72 -20.64,17.704C-20.632,17.704 -20.616,17.716 -20.592,17.74C-20.568,17.764 -20.556,17.792 -20.556,17.824C-20.556,17.84 -20.614,17.88 -20.73,17.944C-20.846,18.008 -20.964,18.076 -21.084,18.148C-21.156,18.188 -21.242,18.24 -21.342,18.304C-21.442,18.368 -21.55,18.43 -21.666,18.49C-21.782,18.55 -21.904,18.604 -22.032,18.652C-22.16,18.7 -22.284,18.728 -22.404,18.736C-22.524,18.752 -22.664,18.764 -22.824,18.772C-22.984,18.78 -23.152,18.786 -23.328,18.79C-23.504,18.794 -23.682,18.798 -23.862,18.802C-24.042,18.806 -24.208,18.808 -24.36,18.808C-24.384,18.848 -24.422,18.914 -24.474,19.006C-24.526,19.098 -24.576,19.216 -24.624,19.36C-24.672,19.504 -24.716,19.668 -24.756,19.852C-24.796,20.036 -24.816,20.236 -24.816,20.452C-24.816,20.78 -24.766,21.082 -24.666,21.358C-24.566,21.634 -24.426,21.872 -24.246,22.072C-24.066,22.272 -23.852,22.428 -23.604,22.54C-23.356,22.652 -23.088,22.708 -22.8,22.708C-22.632,22.708 -22.47,22.688 -22.314,22.648C-22.158,22.608 -22.01,22.556 -21.87,22.492C-21.73,22.428 -21.6,22.358 -21.48,22.282C-21.36,22.206 -21.256,22.132 -21.168,22.06L-21.024,21.928Z" style="fill-rule:nonzero;"/>
            <path d="M-16.608,23.596C-16.752,23.596 -16.912,23.598 -17.088,23.602C-17.264,23.606 -17.436,23.61 -17.604,23.614C-17.772,23.618 -17.93,23.626 -18.078,23.638C-18.226,23.65 -18.34,23.66 -18.42,23.668L-18.612,23.692C-18.652,23.692 -18.686,23.67 -18.714,23.626C-18.742,23.582 -18.756,23.54 -18.756,23.5C-18.756,23.468 -18.74,23.434 -18.708,23.398C-18.676,23.362 -18.632,23.344 -18.576,23.344C-18.24,23.344 -17.972,23.324 -17.772,23.284C-17.572,23.244 -17.452,23.192 -17.412,23.128C-17.364,23.032 -17.314,22.818 -17.262,22.486C-17.21,22.154 -17.164,21.766 -17.124,21.322C-17.084,20.878 -17.052,20.412 -17.028,19.924C-17.004,19.436 -16.992,18.984 -16.992,18.568C-16.992,18.112 -16.994,17.73 -16.998,17.422C-17.002,17.114 -17.006,16.86 -17.01,16.66C-17.014,16.46 -17.018,16.306 -17.022,16.198C-17.026,16.09 -17.028,16.012 -17.028,15.964C-17.036,15.708 -17.072,15.538 -17.136,15.454C-17.2,15.37 -17.316,15.32 -17.484,15.304C-17.604,15.288 -17.744,15.284 -17.904,15.292C-18.064,15.3 -18.18,15.3 -18.252,15.292C-18.308,15.284 -18.356,15.274 -18.396,15.262C-18.436,15.25 -18.456,15.208 -18.456,15.136C-18.456,15.056 -18.436,15.002 -18.396,14.974C-18.356,14.946 -18.312,14.932 -18.264,14.932C-18.2,14.932 -17.994,14.946 -17.646,14.974C-17.298,15.002 -16.8,15.016 -16.152,15.016C-15.728,15.016 -15.366,15.006 -15.066,14.986C-14.766,14.966 -14.56,14.948 -14.448,14.932C-14.392,14.932 -14.338,14.938 -14.286,14.95C-14.234,14.962 -14.208,15 -14.208,15.064C-14.208,15.2 -14.3,15.276 -14.484,15.292C-14.548,15.292 -14.62,15.296 -14.7,15.304C-14.78,15.312 -14.858,15.32 -14.934,15.328C-15.01,15.336 -15.08,15.348 -15.144,15.364C-15.208,15.38 -15.256,15.392 -15.288,15.4C-15.328,15.416 -15.366,15.562 -15.402,15.838C-15.438,16.114 -15.47,16.456 -15.498,16.864C-15.526,17.272 -15.552,17.712 -15.576,18.184C-15.6,18.656 -15.616,19.092 -15.624,19.492C-15.632,19.796 -15.638,20.15 -15.642,20.554C-15.646,20.958 -15.642,21.346 -15.63,21.718C-15.618,22.09 -15.6,22.412 -15.576,22.684C-15.552,22.956 -15.516,23.112 -15.468,23.152C-15.436,23.176 -15.376,23.198 -15.288,23.218C-15.2,23.238 -15.096,23.258 -14.976,23.278C-14.856,23.298 -14.734,23.312 -14.61,23.32C-14.486,23.328 -14.372,23.332 -14.268,23.332C-14.18,23.332 -14.124,23.34 -14.1,23.356C-14.076,23.372 -14.064,23.412 -14.064,23.476C-14.064,23.548 -14.094,23.6 -14.154,23.632C-14.214,23.664 -14.276,23.68 -14.34,23.68C-14.388,23.68 -14.46,23.676 -14.556,23.668C-14.652,23.66 -14.784,23.65 -14.952,23.638C-15.12,23.626 -15.332,23.616 -15.588,23.608C-15.844,23.6 -16.16,23.596 -16.536,23.596L-16.608,23.596Z" style="fill-rule:nonzero;"/>
            <path d="M-11.688,20.428C-11.696,20.5 -11.704,20.564 -11.712,20.62C-11.72,20.676 -11.726,20.74 -11.73,20.812C-11.734,20.884 -11.738,20.974 -11.742,21.082C-11.746,21.19 -11.748,21.332 -11.748,21.508C-11.748,21.796 -11.738,22.032 -11.718,22.216C-11.698,22.4 -11.668,22.546 -11.628,22.654C-11.588,22.762 -11.538,22.836 -11.478,22.876C-11.418,22.916 -11.344,22.936 -11.256,22.936C-11.2,22.936 -11.14,22.928 -11.076,22.912C-11.06,22.912 -11.046,22.934 -11.034,22.978C-11.022,23.022 -11.024,23.052 -11.04,23.068C-11.088,23.108 -11.182,23.166 -11.322,23.242C-11.462,23.318 -11.62,23.392 -11.796,23.464C-11.972,23.536 -12.154,23.6 -12.342,23.656C-12.53,23.712 -12.688,23.74 -12.816,23.74C-12.928,23.74 -13.016,23.726 -13.08,23.698C-13.144,23.67 -13.176,23.636 -13.176,23.596C-13.176,23.556 -13.172,23.532 -13.164,23.524C-13.156,23.516 -13.144,23.496 -13.128,23.464C-13.112,23.424 -13.1,23.374 -13.092,23.314C-13.084,23.254 -13.072,23.184 -13.056,23.104C-13.04,22.992 -13.024,22.85 -13.008,22.678C-12.992,22.506 -12.976,22.318 -12.96,22.114C-12.944,21.91 -12.93,21.698 -12.918,21.478C-12.906,21.258 -12.9,21.044 -12.9,20.836C-12.9,20.748 -12.902,20.638 -12.906,20.506C-12.91,20.374 -12.916,20.204 -12.924,19.996C-12.932,19.764 -12.958,19.566 -13.002,19.402C-13.046,19.238 -13.102,19.106 -13.17,19.006C-13.238,18.906 -13.314,18.832 -13.398,18.784C-13.482,18.736 -13.564,18.712 -13.644,18.712L-13.764,18.712C-13.804,18.712 -13.844,18.716 -13.884,18.724C-13.916,18.724 -13.932,18.688 -13.932,18.616C-13.932,18.6 -13.926,18.586 -13.914,18.574C-13.902,18.562 -13.864,18.536 -13.8,18.496C-13.696,18.424 -13.556,18.336 -13.38,18.232C-13.204,18.128 -13.024,18.032 -12.84,17.944C-12.656,17.856 -12.482,17.78 -12.318,17.716C-12.154,17.652 -12.028,17.62 -11.94,17.62C-11.708,17.62 -11.592,17.752 -11.592,18.016C-11.592,18.056 -11.596,18.128 -11.604,18.232C-11.612,18.336 -11.618,18.442 -11.622,18.55C-11.626,18.658 -11.632,18.76 -11.64,18.856C-11.648,18.952 -11.652,19.016 -11.652,19.048C-11.484,18.888 -11.304,18.724 -11.112,18.556C-10.92,18.388 -10.712,18.234 -10.488,18.094C-10.264,17.954 -10.028,17.84 -9.78,17.752C-9.532,17.664 -9.276,17.62 -9.012,17.62C-8.532,17.62 -8.138,17.758 -7.83,18.034C-7.522,18.31 -7.368,18.748 -7.368,19.348C-7.368,19.508 -7.378,19.696 -7.398,19.912C-7.418,20.128 -7.44,20.352 -7.464,20.584C-7.488,20.816 -7.51,21.044 -7.53,21.268C-7.55,21.492 -7.56,21.692 -7.56,21.868C-7.56,22.508 -7.352,22.828 -6.936,22.828C-6.856,22.828 -6.766,22.814 -6.666,22.786C-6.566,22.758 -6.47,22.726 -6.378,22.69C-6.286,22.654 -6.204,22.618 -6.132,22.582C-6.06,22.546 -6.012,22.516 -5.988,22.492C-5.98,22.484 -5.97,22.49 -5.958,22.51C-5.946,22.53 -5.936,22.556 -5.928,22.588C-5.92,22.62 -5.918,22.648 -5.922,22.672C-5.926,22.696 -5.932,22.712 -5.94,22.72C-6.004,22.76 -6.142,22.836 -6.354,22.948C-6.566,23.06 -6.802,23.174 -7.062,23.29C-7.322,23.406 -7.58,23.51 -7.836,23.602C-8.092,23.694 -8.296,23.74 -8.448,23.74C-8.632,23.74 -8.758,23.696 -8.826,23.608C-8.894,23.52 -8.928,23.428 -8.928,23.332C-8.928,23.268 -8.918,23.188 -8.898,23.092C-8.878,22.996 -8.852,22.84 -8.82,22.624C-8.788,22.392 -8.758,22.12 -8.73,21.808C-8.702,21.496 -8.688,21.16 -8.688,20.8C-8.688,20.096 -8.818,19.562 -9.078,19.198C-9.338,18.834 -9.664,18.652 -10.056,18.652C-10.304,18.652 -10.524,18.7 -10.716,18.796C-10.908,18.892 -11.072,19.022 -11.208,19.186C-11.344,19.35 -11.452,19.538 -11.532,19.75C-11.612,19.962 -11.664,20.188 -11.688,20.428Z" style="fill-rule:nonzero;"/>
        </g>
        <g transform="matrix(1,0,0,1,52.5375,-4.53575)">
            <text x="-39.144px" y="23.596px" style="font-family:'Luminari-Regular', 'Luminari';font-size:12px;">Bit In</text>
        </g>
    </g>
</svg>
