<?xml version="1.0" encoding="UTF-8" standalone="no"?>
<!DOCTYPE svg PUBLIC "-//W3C//DTD SVG 1.1//EN" "http://www.w3.org/Graphics/SVG/1.1/DTD/svg11.dtd">
<svg width="100%" height="100%" viewBox="0 0 90 380" version="1.1" xmlns="http://www.w3.org/2000/svg" xmlns:xlink="http://www.w3.org/1999/xlink" xml:space="preserve" xmlns:serif="http://www.serif.com/" style="fill-rule:evenodd;clip-rule:evenodd;stroke-linecap:round;stroke-linejoin:round;stroke-miterlimit:1.5;">
    <g transform="matrix(0.43251,0,0,2.01589,-22.7311,-120.797)">
        <rect x="52.556" y="59.922" width="208.087" height="188.503" style="fill:rgb(154,178,191);stroke:rgb(5,5,5);stroke-width:1.37px;"/>
    </g>
    <g transform="matrix(0.75,0,0,1,-43.7392,183.538)">
        <g transform="matrix(0.7112,0,0,72.8139,48.976,-21717.6)">
            <rect x="13.921" y="296.737" width="168.729" height="3.935" style="fill:rgb(191,191,191);"/>
        </g>
        <g transform="matrix(3.30333,0,0,0.695794,-476.123,112.334)">
            <g id="Bit8">
                <rect x="161.957" y="57.989" width="36.327" height="2.261"/>
            </g>
        </g>
        <g transform="matrix(3.30333,0,0,0.695794,-476.123,78.6945)">
            <g id="Bit7">
                <rect x="161.957" y="57.989" width="36.327" height="2.261"/>
            </g>
        </g>
        <g transform="matrix(3.30333,0,0,0.695794,-476.123,43.3266)">
            <g id="Bit6">
                <rect x="161.957" y="57.989" width="36.327" height="2.261"/>
            </g>
        </g>
        <g transform="matrix(3.30333,0,0,0.695794,-476.123,8.01938)">
            <g id="Bit5">
                <rect x="161.957" y="57.989" width="36.327" height="2.261"/>
            </g>
        </g>
        <g transform="matrix(3.30333,0,0,0.695794,-476.123,-60.2029)">
            <g id="Bit4">
                <rect x="161.957" y="57.989" width="36.327" height="2.261"/>
            </g>
        </g>
        <g transform="matrix(3.30333,0,0,0.695794,-476.123,-25.4274)">
            <g id="Bit3">
                <rect x="161.957" y="57.989" width="36.327" height="2.261"/>
            </g>
        </g>
        <g transform="matrix(3.30333,0,0,0.695794,-476.123,-94.5002)">
            <g id="Bit2">
                <rect x="161.957" y="57.989" width="36.327" height="2.261"/>
            </g>
        </g>
        <g transform="matrix(3.30333,0,0,0.695794,-476.123,-130.158)">
            <g id="Bit1">
                <rect x="161.957" y="57.989" width="36.327" height="2.261"/>
            </g>
        </g>
    </g>
    <g id="Seed" transform="matrix(1,0,0,1,-53.2102,82.2273)">
        <g id="Up-button" serif:id="Up#button" transform="matrix(0.758898,0,0,0.758898,55.9693,-148.612)">
            <circle cx="55.661" cy="308.513" r="7.929"/>
        </g>
        <g id="Number-lcd-3" serif:id="Number#lcd$3" transform="matrix(0.77953,0,0,0.846667,-61.704,-150.791)">
            <rect x="173.071" y="291.218" width="64.141" height="28.346" style="fill:rgb(13,13,13);"/>
        </g>
        <g id="Down-button" serif:id="Down#button" transform="matrix(0.758898,0,0,0.758898,55.9693,-104.103)">
            <circle cx="55.661" cy="308.513" r="7.929"/>
        </g>
    </g>
    <g transform="matrix(1,0,0,1,-13.1943,-332.812)">
        <g id="BusIn-led" serif:id="BusIn#led" transform="matrix(1,0,0,1,-19.0543,43.7203)">
            <circle cx="42.167" cy="335.861" r="3.82" style="fill:rgb(230,230,230);"/>
        </g>
        <g id="BusOut-led" serif:id="BusOut#led" transform="matrix(1,0,0,1,50.9457,43.7203)">
            <circle cx="42.167" cy="335.861" r="3.82" style="fill:rgb(230,230,230);"/>
        </g>
        <g transform="matrix(1,0,0,1,62.3138,346.656)">
            <path d="M-34.428,15.148C-33.612,15.148 -32.966,15.128 -32.49,15.088C-32.014,15.048 -31.646,14.996 -31.386,14.932C-31.126,14.868 -30.952,14.796 -30.864,14.716C-30.776,14.636 -30.716,14.556 -30.684,14.476C-30.668,14.436 -30.628,14.416 -30.564,14.416C-30.484,14.416 -30.444,14.436 -30.444,14.476C-30.46,14.492 -30.486,14.552 -30.522,14.656C-30.558,14.76 -30.602,14.886 -30.654,15.034C-30.706,15.182 -30.76,15.342 -30.816,15.514C-30.872,15.686 -30.924,15.85 -30.972,16.006C-31.02,16.162 -31.06,16.3 -31.092,16.42C-31.124,16.54 -31.14,16.62 -31.14,16.66C-31.156,16.66 -31.176,16.662 -31.2,16.666C-31.224,16.67 -31.248,16.672 -31.272,16.672C-31.344,16.672 -31.38,16.648 -31.38,16.6C-31.38,16.56 -31.376,16.512 -31.368,16.456C-31.36,16.4 -31.356,16.352 -31.356,16.312C-31.356,16.272 -31.36,16.244 -31.368,16.228C-31.408,16.148 -31.542,16.088 -31.77,16.048C-31.998,16.008 -32.262,15.98 -32.562,15.964C-32.862,15.948 -33.168,15.938 -33.48,15.934C-33.792,15.93 -34.048,15.928 -34.248,15.928C-34.552,15.928 -34.854,16.014 -35.154,16.186C-35.454,16.358 -35.722,16.604 -35.958,16.924C-36.194,17.244 -36.386,17.638 -36.534,18.106C-36.682,18.574 -36.756,19.104 -36.756,19.696C-36.756,20.216 -36.698,20.696 -36.582,21.136C-36.466,21.576 -36.3,21.96 -36.084,22.288C-35.868,22.616 -35.604,22.872 -35.292,23.056C-34.98,23.24 -34.628,23.332 -34.236,23.332C-33.86,23.332 -33.53,23.262 -33.246,23.122C-32.962,22.982 -32.724,22.8 -32.532,22.576C-32.34,22.352 -32.194,22.096 -32.094,21.808C-31.994,21.52 -31.944,21.224 -31.944,20.92C-31.944,20.704 -31.97,20.496 -32.022,20.296C-32.074,20.096 -32.152,19.918 -32.256,19.762C-32.36,19.606 -32.494,19.482 -32.658,19.39C-32.822,19.298 -33.012,19.252 -33.228,19.252C-33.564,19.252 -33.8,19.326 -33.936,19.474C-34.072,19.622 -34.14,19.78 -34.14,19.948C-34.14,20.1 -34.096,20.234 -34.008,20.35C-33.92,20.466 -33.804,20.524 -33.66,20.524C-33.572,20.524 -33.528,20.556 -33.528,20.62C-33.528,20.644 -33.54,20.668 -33.564,20.692C-33.604,20.748 -33.716,20.804 -33.9,20.86C-34.084,20.916 -34.304,20.944 -34.56,20.944C-34.872,20.944 -35.128,20.862 -35.328,20.698C-35.528,20.534 -35.628,20.336 -35.628,20.104C-35.628,19.952 -35.556,19.804 -35.412,19.66C-35.268,19.516 -35.07,19.386 -34.818,19.27C-34.566,19.154 -34.264,19.062 -33.912,18.994C-33.56,18.926 -33.18,18.892 -32.772,18.892C-32.412,18.892 -32.08,18.928 -31.776,19C-31.472,19.072 -31.21,19.174 -30.99,19.306C-30.77,19.438 -30.596,19.598 -30.468,19.786C-30.34,19.974 -30.276,20.184 -30.276,20.416C-30.276,20.768 -30.388,21.142 -30.612,21.538C-30.836,21.934 -31.144,22.298 -31.536,22.63C-31.928,22.962 -32.39,23.236 -32.922,23.452C-33.454,23.668 -34.024,23.776 -34.632,23.776C-35.256,23.776 -35.81,23.686 -36.294,23.506C-36.778,23.326 -37.186,23.074 -37.518,22.75C-37.85,22.426 -38.104,22.042 -38.28,21.598C-38.456,21.154 -38.544,20.668 -38.544,20.14C-38.544,19.74 -38.484,19.364 -38.364,19.012C-38.244,18.66 -38.088,18.332 -37.896,18.028C-37.704,17.724 -37.492,17.448 -37.26,17.2C-37.028,16.952 -36.802,16.738 -36.582,16.558C-36.362,16.378 -36.16,16.236 -35.976,16.132C-35.792,16.028 -35.656,15.964 -35.568,15.94C-35.84,15.948 -36.13,15.96 -36.438,15.976C-36.746,15.992 -37.04,16.014 -37.32,16.042C-37.6,16.07 -37.848,16.106 -38.064,16.15C-38.28,16.194 -38.428,16.248 -38.508,16.312C-38.596,16.376 -38.668,16.46 -38.724,16.564C-38.78,16.668 -38.828,16.776 -38.868,16.888C-38.932,16.888 -38.984,16.878 -39.024,16.858C-39.064,16.838 -39.096,16.792 -39.12,16.72C-39.048,16.624 -38.97,16.472 -38.886,16.264C-38.802,16.056 -38.718,15.838 -38.634,15.61C-38.55,15.382 -38.478,15.172 -38.418,14.98C-38.358,14.788 -38.316,14.664 -38.292,14.608C-38.26,14.592 -38.224,14.584 -38.184,14.584C-38.152,14.584 -38.12,14.592 -38.088,14.608C-38.112,14.704 -38.124,14.78 -38.124,14.836C-38.124,14.916 -38.084,14.968 -38.004,14.992C-37.772,15.056 -37.482,15.098 -37.134,15.118C-36.786,15.138 -36.384,15.148 -35.928,15.148L-34.428,15.148Z" style="fill-rule:nonzero;"/>
            <path d="M-24.036,18.496C-24.124,18.568 -24.228,18.658 -24.348,18.766C-24.468,18.874 -24.594,18.978 -24.726,19.078C-24.858,19.178 -24.992,19.264 -25.128,19.336C-25.264,19.408 -25.396,19.444 -25.524,19.444C-25.636,19.444 -25.736,19.418 -25.824,19.366C-25.912,19.314 -25.994,19.258 -26.07,19.198C-26.146,19.138 -26.22,19.082 -26.292,19.03C-26.364,18.978 -26.44,18.952 -26.52,18.952C-26.736,18.952 -26.918,19.04 -27.066,19.216C-27.214,19.392 -27.334,19.616 -27.426,19.888C-27.518,20.16 -27.586,20.456 -27.63,20.776C-27.674,21.096 -27.696,21.404 -27.696,21.7C-27.696,21.948 -27.686,22.15 -27.666,22.306C-27.646,22.462 -27.616,22.586 -27.576,22.678C-27.536,22.77 -27.482,22.832 -27.414,22.864C-27.346,22.896 -27.264,22.912 -27.168,22.912C-27.064,22.912 -26.952,22.896 -26.832,22.864C-26.808,22.856 -26.79,22.872 -26.778,22.912C-26.766,22.952 -26.76,22.984 -26.76,23.008C-26.76,23.024 -26.772,23.042 -26.796,23.062C-26.82,23.082 -26.836,23.092 -26.844,23.092C-27.02,23.164 -27.2,23.242 -27.384,23.326C-27.568,23.41 -27.72,23.48 -27.84,23.536C-27.952,23.584 -28.086,23.636 -28.242,23.692C-28.398,23.748 -28.532,23.776 -28.644,23.776C-28.772,23.776 -28.878,23.756 -28.962,23.716C-29.046,23.676 -29.088,23.636 -29.088,23.596C-29.088,23.556 -29.078,23.52 -29.058,23.488C-29.038,23.456 -29.02,23.396 -29.004,23.308C-28.988,23.188 -28.97,23.046 -28.95,22.882C-28.93,22.718 -28.91,22.54 -28.89,22.348C-28.87,22.156 -28.854,21.958 -28.842,21.754C-28.83,21.55 -28.824,21.348 -28.824,21.148C-28.824,20.7 -28.838,20.32 -28.866,20.008C-28.894,19.696 -28.944,19.444 -29.016,19.252C-29.088,19.06 -29.186,18.922 -29.31,18.838C-29.434,18.754 -29.592,18.712 -29.784,18.712L-29.892,18.712C-29.924,18.712 -29.956,18.716 -29.988,18.724C-30.036,18.724 -30.06,18.7 -30.06,18.652C-30.06,18.604 -30.036,18.568 -29.988,18.544C-29.9,18.488 -29.764,18.406 -29.58,18.298C-29.396,18.19 -29.206,18.086 -29.01,17.986C-28.814,17.886 -28.624,17.796 -28.44,17.716C-28.256,17.636 -28.12,17.596 -28.032,17.596C-27.928,17.596 -27.84,17.63 -27.768,17.698C-27.696,17.766 -27.642,17.852 -27.606,17.956C-27.57,18.06 -27.544,18.178 -27.528,18.31C-27.512,18.442 -27.504,18.572 -27.504,18.7C-27.504,18.796 -27.506,18.896 -27.51,19C-27.514,19.104 -27.516,19.216 -27.516,19.336C-27.156,18.808 -26.832,18.398 -26.544,18.106C-26.256,17.814 -25.984,17.668 -25.728,17.668C-25.632,17.668 -25.538,17.708 -25.446,17.788C-25.354,17.868 -25.256,17.958 -25.152,18.058C-25.048,18.158 -24.94,18.248 -24.828,18.328C-24.716,18.408 -24.6,18.448 -24.48,18.448C-24.376,18.448 -24.3,18.436 -24.252,18.412C-24.204,18.388 -24.164,18.368 -24.132,18.352C-24.068,18.352 -24.036,18.396 -24.036,18.484L-24.036,18.496Z" style="fill-rule:nonzero;"/>
            <path d="M-20.688,21.724C-20.712,21.588 -20.736,21.44 -20.76,21.28C-20.784,21.12 -20.808,20.968 -20.832,20.824C-20.856,20.68 -20.878,20.556 -20.898,20.452C-20.918,20.348 -20.932,20.28 -20.94,20.248C-21.068,20.296 -21.212,20.352 -21.372,20.416C-21.532,20.48 -21.692,20.55 -21.852,20.626C-22.012,20.702 -22.164,20.778 -22.308,20.854C-22.452,20.93 -22.572,21 -22.668,21.064C-22.852,21.184 -22.992,21.304 -23.088,21.424C-23.184,21.544 -23.232,21.688 -23.232,21.856C-23.232,22.088 -23.164,22.292 -23.028,22.468C-22.892,22.644 -22.68,22.732 -22.392,22.732C-22.24,22.732 -22.082,22.704 -21.918,22.648C-21.754,22.592 -21.602,22.528 -21.462,22.456C-21.322,22.384 -21.2,22.312 -21.096,22.24C-20.992,22.168 -20.92,22.112 -20.88,22.072C-20.816,22.008 -20.766,21.954 -20.73,21.91C-20.694,21.866 -20.68,21.804 -20.688,21.724ZM-21.036,19.864C-21.084,19.616 -21.14,19.394 -21.204,19.198C-21.268,19.002 -21.348,18.838 -21.444,18.706C-21.54,18.574 -21.656,18.474 -21.792,18.406C-21.928,18.338 -22.096,18.304 -22.296,18.304C-22.472,18.304 -22.634,18.336 -22.782,18.4C-22.93,18.464 -23.058,18.54 -23.166,18.628C-23.274,18.716 -23.358,18.804 -23.418,18.892C-23.478,18.98 -23.512,19.048 -23.52,19.096C-23.528,19.16 -23.564,19.192 -23.628,19.192C-23.74,19.192 -23.844,19.152 -23.94,19.072C-24.036,18.992 -24.084,18.896 -24.084,18.784C-24.084,18.72 -24.076,18.672 -24.06,18.64C-23.876,18.536 -23.652,18.424 -23.388,18.304C-23.124,18.184 -22.85,18.072 -22.566,17.968C-22.282,17.864 -22,17.778 -21.72,17.71C-21.44,17.642 -21.188,17.608 -20.964,17.608C-20.628,17.608 -20.37,17.656 -20.19,17.752C-20.01,17.848 -19.876,17.984 -19.788,18.16C-19.7,18.336 -19.646,18.542 -19.626,18.778C-19.606,19.014 -19.588,19.268 -19.572,19.54C-19.548,19.948 -19.516,20.342 -19.476,20.722C-19.436,21.102 -19.376,21.438 -19.296,21.73C-19.216,22.022 -19.114,22.258 -18.99,22.438C-18.866,22.618 -18.712,22.708 -18.528,22.708C-18.44,22.708 -18.344,22.692 -18.24,22.66C-18.136,22.628 -18.036,22.59 -17.94,22.546C-17.844,22.502 -17.758,22.458 -17.682,22.414C-17.606,22.37 -17.556,22.34 -17.532,22.324C-17.46,22.324 -17.416,22.36 -17.4,22.432C-17.4,22.472 -17.408,22.508 -17.424,22.54C-17.44,22.556 -17.5,22.596 -17.604,22.66C-17.708,22.724 -17.836,22.8 -17.988,22.888C-18.14,22.976 -18.308,23.07 -18.492,23.17C-18.676,23.27 -18.858,23.364 -19.038,23.452C-19.218,23.54 -19.384,23.612 -19.536,23.668C-19.688,23.724 -19.808,23.752 -19.896,23.752C-20,23.752 -20.09,23.71 -20.166,23.626C-20.242,23.542 -20.308,23.43 -20.364,23.29C-20.42,23.15 -20.468,22.988 -20.508,22.804C-20.548,22.62 -20.584,22.428 -20.616,22.228C-20.76,22.348 -20.944,22.49 -21.168,22.654C-21.392,22.818 -21.636,22.972 -21.9,23.116C-22.164,23.26 -22.434,23.382 -22.71,23.482C-22.986,23.582 -23.252,23.632 -23.508,23.632C-23.724,23.632 -23.912,23.598 -24.072,23.53C-24.232,23.462 -24.366,23.372 -24.474,23.26C-24.582,23.148 -24.662,23.018 -24.714,22.87C-24.766,22.722 -24.792,22.568 -24.792,22.408C-24.792,22.152 -24.714,21.942 -24.558,21.778C-24.402,21.614 -24.16,21.444 -23.832,21.268C-23.68,21.188 -23.468,21.082 -23.196,20.95C-22.924,20.818 -22.646,20.684 -22.362,20.548C-22.078,20.412 -21.814,20.282 -21.57,20.158C-21.326,20.034 -21.148,19.936 -21.036,19.864Z" style="fill-rule:nonzero;"/>
            <path d="M-16.08,20.428C-16.088,20.5 -16.096,20.564 -16.104,20.62C-16.112,20.676 -16.118,20.74 -16.122,20.812C-16.126,20.884 -16.13,20.974 -16.134,21.082C-16.138,21.19 -16.14,21.332 -16.14,21.508C-16.14,21.796 -16.13,22.032 -16.11,22.216C-16.09,22.4 -16.06,22.546 -16.02,22.654C-15.98,22.762 -15.93,22.836 -15.87,22.876C-15.81,22.916 -15.736,22.936 -15.648,22.936C-15.592,22.936 -15.532,22.928 -15.468,22.912C-15.452,22.912 -15.438,22.934 -15.426,22.978C-15.414,23.022 -15.416,23.052 -15.432,23.068C-15.48,23.108 -15.574,23.166 -15.714,23.242C-15.854,23.318 -16.012,23.392 -16.188,23.464C-16.364,23.536 -16.546,23.6 -16.734,23.656C-16.922,23.712 -17.08,23.74 -17.208,23.74C-17.32,23.74 -17.408,23.726 -17.472,23.698C-17.536,23.67 -17.568,23.636 -17.568,23.596C-17.568,23.556 -17.564,23.532 -17.556,23.524C-17.548,23.516 -17.536,23.496 -17.52,23.464C-17.504,23.424 -17.492,23.374 -17.484,23.314C-17.476,23.254 -17.464,23.184 -17.448,23.104C-17.432,22.992 -17.416,22.85 -17.4,22.678C-17.384,22.506 -17.368,22.318 -17.352,22.114C-17.336,21.91 -17.322,21.698 -17.31,21.478C-17.298,21.258 -17.292,21.044 -17.292,20.836C-17.292,20.748 -17.294,20.638 -17.298,20.506C-17.302,20.374 -17.308,20.204 -17.316,19.996C-17.324,19.764 -17.35,19.566 -17.394,19.402C-17.438,19.238 -17.494,19.106 -17.562,19.006C-17.63,18.906 -17.706,18.832 -17.79,18.784C-17.874,18.736 -17.956,18.712 -18.036,18.712L-18.156,18.712C-18.196,18.712 -18.236,18.716 -18.276,18.724C-18.308,18.724 -18.324,18.688 -18.324,18.616C-18.324,18.6 -18.318,18.586 -18.306,18.574C-18.294,18.562 -18.256,18.536 -18.192,18.496C-18.088,18.424 -17.948,18.336 -17.772,18.232C-17.596,18.128 -17.416,18.032 -17.232,17.944C-17.048,17.856 -16.874,17.78 -16.71,17.716C-16.546,17.652 -16.42,17.62 -16.332,17.62C-16.1,17.62 -15.984,17.752 -15.984,18.016C-15.984,18.056 -15.988,18.128 -15.996,18.232C-16.004,18.336 -16.01,18.442 -16.014,18.55C-16.018,18.658 -16.024,18.76 -16.032,18.856C-16.04,18.952 -16.044,19.016 -16.044,19.048C-15.876,18.888 -15.696,18.724 -15.504,18.556C-15.312,18.388 -15.104,18.234 -14.88,18.094C-14.656,17.954 -14.42,17.84 -14.172,17.752C-13.924,17.664 -13.668,17.62 -13.404,17.62C-12.924,17.62 -12.53,17.758 -12.222,18.034C-11.914,18.31 -11.76,18.748 -11.76,19.348C-11.76,19.508 -11.77,19.696 -11.79,19.912C-11.81,20.128 -11.832,20.352 -11.856,20.584C-11.88,20.816 -11.902,21.044 -11.922,21.268C-11.942,21.492 -11.952,21.692 -11.952,21.868C-11.952,22.508 -11.744,22.828 -11.328,22.828C-11.248,22.828 -11.158,22.814 -11.058,22.786C-10.958,22.758 -10.862,22.726 -10.77,22.69C-10.678,22.654 -10.596,22.618 -10.524,22.582C-10.452,22.546 -10.404,22.516 -10.38,22.492C-10.372,22.484 -10.362,22.49 -10.35,22.51C-10.338,22.53 -10.328,22.556 -10.32,22.588C-10.312,22.62 -10.31,22.648 -10.314,22.672C-10.318,22.696 -10.324,22.712 -10.332,22.72C-10.396,22.76 -10.534,22.836 -10.746,22.948C-10.958,23.06 -11.194,23.174 -11.454,23.29C-11.714,23.406 -11.972,23.51 -12.228,23.602C-12.484,23.694 -12.688,23.74 -12.84,23.74C-13.024,23.74 -13.15,23.696 -13.218,23.608C-13.286,23.52 -13.32,23.428 -13.32,23.332C-13.32,23.268 -13.31,23.188 -13.29,23.092C-13.27,22.996 -13.244,22.84 -13.212,22.624C-13.18,22.392 -13.15,22.12 -13.122,21.808C-13.094,21.496 -13.08,21.16 -13.08,20.8C-13.08,20.096 -13.21,19.562 -13.47,19.198C-13.73,18.834 -14.056,18.652 -14.448,18.652C-14.696,18.652 -14.916,18.7 -15.108,18.796C-15.3,18.892 -15.464,19.022 -15.6,19.186C-15.736,19.35 -15.844,19.538 -15.924,19.75C-16.004,19.962 -16.056,20.188 -16.08,20.428Z" style="fill-rule:nonzero;"/>
            <path d="M-10.476,23.296C-10.54,23.336 -10.6,23.402 -10.656,23.494C-10.712,23.586 -10.748,23.656 -10.764,23.704C-10.772,23.72 -10.794,23.734 -10.83,23.746C-10.866,23.758 -10.892,23.764 -10.908,23.764C-10.98,23.764 -11.016,23.728 -11.016,23.656C-11.016,23.632 -10.984,23.568 -10.92,23.464C-10.872,23.384 -10.796,23.258 -10.692,23.086C-10.588,22.914 -10.482,22.738 -10.374,22.558C-10.266,22.378 -10.166,22.214 -10.074,22.066C-9.982,21.918 -9.916,21.82 -9.876,21.772C-9.836,21.732 -9.788,21.726 -9.732,21.754C-9.676,21.782 -9.66,21.816 -9.684,21.856C-9.7,21.872 -9.712,21.892 -9.72,21.916C-9.728,21.94 -9.732,21.98 -9.732,22.036C-9.732,22.108 -9.67,22.198 -9.546,22.306C-9.422,22.414 -9.264,22.518 -9.072,22.618C-8.88,22.718 -8.668,22.804 -8.436,22.876C-8.204,22.948 -7.976,22.984 -7.752,22.984C-7.488,22.984 -7.278,22.908 -7.122,22.756C-6.966,22.604 -6.888,22.404 -6.888,22.156C-6.888,21.876 -6.976,21.668 -7.152,21.532C-7.328,21.396 -7.546,21.292 -7.806,21.22C-8.066,21.148 -8.35,21.09 -8.658,21.046C-8.966,21.002 -9.25,20.936 -9.51,20.848C-9.77,20.76 -9.988,20.632 -10.164,20.464C-10.34,20.296 -10.428,20.052 -10.428,19.732C-10.428,19.484 -10.342,19.232 -10.17,18.976C-9.998,18.72 -9.77,18.492 -9.486,18.292C-9.202,18.092 -8.876,17.928 -8.508,17.8C-8.14,17.672 -7.756,17.608 -7.356,17.608C-7.236,17.608 -7.096,17.62 -6.936,17.644C-6.776,17.668 -6.618,17.698 -6.462,17.734C-6.306,17.77 -6.162,17.806 -6.03,17.842C-5.898,17.878 -5.8,17.908 -5.736,17.932C-5.72,17.932 -5.724,17.964 -5.748,18.028C-5.772,18.1 -5.832,18.21 -5.928,18.358C-6.024,18.506 -6.13,18.652 -6.246,18.796C-6.362,18.94 -6.47,19.068 -6.57,19.18C-6.67,19.292 -6.74,19.348 -6.78,19.348L-6.852,19.348C-6.892,19.348 -6.92,19.34 -6.936,19.324C-6.928,19.284 -6.924,19.232 -6.924,19.168C-6.924,18.888 -7.05,18.668 -7.302,18.508C-7.554,18.348 -7.92,18.268 -8.4,18.268C-8.632,18.268 -8.822,18.336 -8.97,18.472C-9.118,18.608 -9.192,18.772 -9.192,18.964C-9.192,19.276 -9.104,19.508 -8.928,19.66C-8.752,19.812 -8.532,19.926 -8.268,20.002C-8.004,20.078 -7.72,20.136 -7.416,20.176C-7.112,20.216 -6.828,20.278 -6.564,20.362C-6.3,20.446 -6.08,20.572 -5.904,20.74C-5.728,20.908 -5.64,21.16 -5.64,21.496C-5.64,21.648 -5.672,21.796 -5.736,21.94C-5.8,22.084 -5.884,22.22 -5.988,22.348C-6.092,22.476 -6.208,22.594 -6.336,22.702C-6.464,22.81 -6.592,22.904 -6.72,22.984C-6.84,23.064 -6.976,23.146 -7.128,23.23C-7.28,23.314 -7.444,23.392 -7.62,23.464C-7.796,23.536 -7.976,23.594 -8.16,23.638C-8.344,23.682 -8.528,23.704 -8.712,23.704C-8.8,23.704 -8.94,23.686 -9.132,23.65C-9.324,23.614 -9.518,23.572 -9.714,23.524C-9.91,23.476 -10.084,23.43 -10.236,23.386C-10.388,23.342 -10.468,23.312 -10.476,23.296Z" style="fill-rule:nonzero;"/>
            <path d="M6.288,22.552C6.312,22.552 6.328,22.566 6.336,22.594C6.344,22.622 6.348,22.656 6.348,22.696C6.348,22.736 6.34,22.762 6.324,22.774C6.308,22.786 6.292,22.8 6.276,22.816C6.22,22.848 6.086,22.916 5.874,23.02C5.662,23.124 5.426,23.23 5.166,23.338C4.906,23.446 4.65,23.542 4.398,23.626C4.146,23.71 3.956,23.752 3.828,23.752C3.716,23.752 3.61,23.728 3.51,23.68C3.41,23.632 3.368,23.556 3.384,23.452C3.4,23.388 3.418,23.292 3.438,23.164C3.458,23.036 3.476,22.88 3.492,22.696C3.508,22.464 3.526,22.196 3.546,21.892C3.566,21.588 3.576,21.252 3.576,20.884C3.576,20.452 3.548,20.094 3.492,19.81C3.436,19.526 3.356,19.3 3.252,19.132C3.148,18.964 3.02,18.846 2.868,18.778C2.716,18.71 2.54,18.676 2.34,18.676C2.156,18.676 2,18.706 1.872,18.766C1.744,18.826 1.632,18.892 1.536,18.964C1.36,19.1 1.222,19.274 1.122,19.486C1.022,19.698 0.96,19.976 0.936,20.32C0.928,20.408 0.922,20.496 0.918,20.584C0.914,20.672 0.91,20.768 0.906,20.872C0.902,20.976 0.898,21.092 0.894,21.22C0.89,21.348 0.888,21.5 0.888,21.676C0.888,22.148 0.926,22.476 1.002,22.66C1.078,22.844 1.208,22.936 1.392,22.936C1.456,22.936 1.496,22.934 1.512,22.93C1.528,22.926 1.56,22.92 1.608,22.912C1.624,22.928 1.64,22.948 1.656,22.972C1.68,23.012 1.676,23.056 1.644,23.104C1.604,23.152 1.508,23.214 1.356,23.29C1.204,23.366 1.036,23.436 0.852,23.5C0.668,23.564 0.488,23.62 0.312,23.668C0.136,23.716 0.004,23.74 -0.084,23.74C-0.196,23.74 -0.298,23.726 -0.39,23.698C-0.482,23.67 -0.528,23.636 -0.528,23.596C-0.528,23.548 -0.512,23.492 -0.48,23.428C-0.456,23.388 -0.432,23.292 -0.408,23.14C-0.384,22.988 -0.362,22.792 -0.342,22.552C-0.322,22.312 -0.304,22.034 -0.288,21.718C-0.272,21.402 -0.264,21.06 -0.264,20.692C-0.264,20.5 -0.274,20.288 -0.294,20.056C-0.314,19.824 -0.364,19.606 -0.444,19.402C-0.524,19.198 -0.642,19.026 -0.798,18.886C-0.954,18.746 -1.168,18.676 -1.44,18.676C-1.6,18.676 -1.744,18.698 -1.872,18.742C-2,18.786 -2.108,18.84 -2.196,18.904C-2.372,19.04 -2.522,19.208 -2.646,19.408C-2.77,19.608 -2.852,19.892 -2.892,20.26C-2.908,20.428 -2.924,20.602 -2.94,20.782C-2.956,20.962 -2.964,21.168 -2.964,21.4C-2.964,21.704 -2.956,21.956 -2.94,22.156C-2.924,22.356 -2.896,22.514 -2.856,22.63C-2.816,22.746 -2.768,22.826 -2.712,22.87C-2.656,22.914 -2.584,22.936 -2.496,22.936C-2.408,22.936 -2.348,22.928 -2.316,22.912C-2.276,22.896 -2.248,22.92 -2.232,22.984C-2.216,23.048 -2.22,23.088 -2.244,23.104C-2.276,23.136 -2.36,23.186 -2.496,23.254C-2.632,23.322 -2.788,23.392 -2.964,23.464C-3.14,23.536 -3.32,23.6 -3.504,23.656C-3.688,23.712 -3.844,23.74 -3.972,23.74C-4.108,23.74 -4.214,23.724 -4.29,23.692C-4.366,23.66 -4.404,23.624 -4.404,23.584C-4.404,23.576 -4.396,23.55 -4.38,23.506C-4.364,23.462 -4.352,23.424 -4.344,23.392C-4.312,23.144 -4.282,22.914 -4.254,22.702C-4.226,22.49 -4.206,22.26 -4.194,22.012C-4.182,21.764 -4.172,21.48 -4.164,21.16C-4.156,20.84 -4.152,20.452 -4.152,19.996C-4.152,19.556 -4.222,19.232 -4.362,19.024C-4.502,18.816 -4.648,18.712 -4.8,18.712C-4.864,18.712 -4.918,18.718 -4.962,18.73C-5.006,18.742 -5.048,18.752 -5.088,18.76C-5.136,18.768 -5.16,18.744 -5.16,18.688L-5.16,18.604C-5.152,18.596 -5.072,18.54 -4.92,18.436C-4.768,18.332 -4.588,18.22 -4.38,18.1C-4.172,17.98 -3.956,17.87 -3.732,17.77C-3.508,17.67 -3.324,17.62 -3.18,17.62C-3.084,17.62 -3.002,17.648 -2.934,17.704C-2.866,17.76 -2.832,17.864 -2.832,18.016C-2.832,18.088 -2.834,18.168 -2.838,18.256C-2.842,18.344 -2.846,18.436 -2.85,18.532C-2.854,18.628 -2.86,18.722 -2.868,18.814C-2.876,18.906 -2.88,18.984 -2.88,19.048C-2.768,18.944 -2.626,18.808 -2.454,18.64C-2.282,18.472 -2.088,18.312 -1.872,18.16C-1.656,18.008 -1.422,17.876 -1.17,17.764C-0.918,17.652 -0.652,17.596 -0.372,17.596C-0.004,17.596 0.296,17.704 0.528,17.92C0.76,18.136 0.884,18.512 0.9,19.048C1.028,18.928 1.184,18.784 1.368,18.616C1.552,18.448 1.758,18.288 1.986,18.136C2.214,17.984 2.456,17.856 2.712,17.752C2.968,17.648 3.228,17.596 3.492,17.596C4.42,17.596 4.884,18.088 4.884,19.072C4.884,19.232 4.876,19.416 4.86,19.624C4.844,19.832 4.824,20.05 4.8,20.278C4.776,20.506 4.756,20.732 4.74,20.956C4.724,21.18 4.716,21.384 4.716,21.568C4.716,22.4 4.936,22.816 5.376,22.816C5.448,22.816 5.528,22.806 5.616,22.786C5.704,22.766 5.792,22.742 5.88,22.714C5.968,22.686 6.048,22.658 6.12,22.63C6.192,22.602 6.244,22.576 6.276,22.552L6.288,22.552Z" style="fill-rule:nonzero;"/>
            <path d="M6.072,18.64C6.008,18.624 5.978,18.592 5.982,18.544C5.986,18.496 6.016,18.468 6.072,18.46C6.096,18.452 6.172,18.424 6.3,18.376C6.428,18.328 6.582,18.272 6.762,18.208C6.942,18.144 7.13,18.076 7.326,18.004C7.522,17.932 7.696,17.872 7.848,17.824C7.944,17.792 8.01,17.77 8.046,17.758C8.082,17.746 8.112,17.74 8.136,17.74C8.16,17.74 8.188,17.75 8.22,17.77C8.252,17.79 8.26,17.82 8.244,17.86C8.22,17.924 8.194,18.076 8.166,18.316C8.138,18.556 8.112,18.822 8.088,19.114C8.064,19.406 8.042,19.696 8.022,19.984C8.002,20.272 7.992,20.5 7.992,20.668C7.992,21.308 8.128,21.802 8.4,22.15C8.672,22.498 9.096,22.672 9.672,22.672C9.968,22.672 10.214,22.612 10.41,22.492C10.606,22.372 10.756,22.232 10.86,22.072C10.932,21.968 10.98,21.74 11.004,21.388C11.004,21.324 11.006,21.24 11.01,21.136C11.014,21.032 11.018,20.922 11.022,20.806C11.026,20.69 11.03,20.578 11.034,20.47C11.038,20.362 11.04,20.272 11.04,20.2C11.048,19.832 11.038,19.49 11.01,19.174C10.982,18.858 10.94,18.624 10.884,18.472C10.86,18.376 10.812,18.328 10.74,18.328C10.692,18.328 10.646,18.33 10.602,18.334C10.558,18.338 10.532,18.304 10.524,18.232C10.524,18.208 10.548,18.182 10.596,18.154C10.644,18.126 10.736,18.084 10.872,18.028C11,17.98 11.142,17.932 11.298,17.884C11.454,17.836 11.608,17.796 11.76,17.764C11.912,17.732 12.048,17.71 12.168,17.698C12.288,17.686 12.376,17.692 12.432,17.716C12.432,17.724 12.438,17.734 12.45,17.746C12.462,17.758 12.472,17.784 12.48,17.824C12.496,17.872 12.486,18.022 12.45,18.274C12.414,18.526 12.376,18.936 12.336,19.504C12.304,19.896 12.276,20.276 12.252,20.644C12.228,21.012 12.216,21.292 12.216,21.484C12.216,21.86 12.286,22.158 12.426,22.378C12.566,22.598 12.74,22.708 12.948,22.708C13.084,22.708 13.214,22.68 13.338,22.624C13.462,22.568 13.552,22.52 13.608,22.48C13.672,22.48 13.706,22.508 13.71,22.564C13.714,22.62 13.7,22.656 13.668,22.672C13.548,22.752 13.382,22.852 13.17,22.972C12.958,23.092 12.738,23.206 12.51,23.314C12.282,23.422 12.064,23.514 11.856,23.59C11.648,23.666 11.48,23.704 11.352,23.704C11.288,23.704 11.23,23.662 11.178,23.578C11.126,23.494 11.084,23.392 11.052,23.272C11.02,23.152 10.996,23.028 10.98,22.9C10.964,22.772 10.956,22.66 10.956,22.564C10.788,22.684 10.596,22.81 10.38,22.942C10.164,23.074 9.94,23.198 9.708,23.314C9.476,23.43 9.246,23.524 9.018,23.596C8.79,23.668 8.58,23.704 8.388,23.704C7.9,23.704 7.5,23.574 7.188,23.314C6.876,23.054 6.72,22.716 6.72,22.3C6.72,22.212 6.728,22.08 6.744,21.904C6.76,21.728 6.78,21.528 6.804,21.304C6.828,21.08 6.848,20.84 6.864,20.584C6.88,20.328 6.888,20.08 6.888,19.84C6.888,19.472 6.83,19.19 6.714,18.994C6.598,18.798 6.448,18.688 6.264,18.664L6.072,18.64Z" style="fill-rule:nonzero;"/>
            <path d="M19.284,21.928C19.3,21.912 19.314,21.914 19.326,21.934C19.338,21.954 19.346,21.982 19.35,22.018C19.354,22.054 19.352,22.092 19.344,22.132C19.336,22.172 19.32,22.204 19.296,22.228C19.136,22.38 18.936,22.54 18.696,22.708C18.456,22.876 18.208,23.032 17.952,23.176C17.88,23.216 17.78,23.268 17.652,23.332C17.524,23.396 17.382,23.458 17.226,23.518C17.07,23.578 16.91,23.63 16.746,23.674C16.582,23.718 16.428,23.74 16.284,23.74C15.996,23.74 15.724,23.684 15.468,23.572C15.212,23.46 14.988,23.306 14.796,23.11C14.604,22.914 14.454,22.68 14.346,22.408C14.238,22.136 14.184,21.84 14.184,21.52C14.184,21.176 14.232,20.852 14.328,20.548C14.424,20.244 14.534,19.972 14.658,19.732C14.782,19.492 14.9,19.29 15.012,19.126C15.124,18.962 15.2,18.84 15.24,18.76C15.088,18.752 14.95,18.746 14.826,18.742C14.702,18.738 14.584,18.736 14.472,18.736C14.216,18.736 14,18.738 13.824,18.742C13.648,18.746 13.492,18.764 13.356,18.796C13.292,18.812 13.232,18.844 13.176,18.892C13.12,18.94 13.072,18.976 13.032,19C13.016,18.984 12.994,18.962 12.966,18.934C12.938,18.906 12.924,18.876 12.924,18.844C12.924,18.828 12.928,18.816 12.936,18.808C12.936,18.8 12.988,18.754 13.092,18.67C13.196,18.586 13.326,18.486 13.482,18.37C13.638,18.254 13.81,18.126 13.998,17.986C14.186,17.846 14.366,17.716 14.538,17.596C14.71,17.476 14.858,17.374 14.982,17.29C15.106,17.206 15.188,17.156 15.228,17.14C15.276,17.124 15.324,17.132 15.372,17.164C15.42,17.196 15.436,17.22 15.42,17.236C15.396,17.252 15.36,17.282 15.312,17.326C15.264,17.37 15.248,17.408 15.264,17.44C15.352,17.512 15.504,17.576 15.72,17.632C15.936,17.688 16.18,17.734 16.452,17.77C16.724,17.806 17.004,17.834 17.292,17.854C17.58,17.874 17.84,17.884 18.072,17.884C18.416,17.884 18.692,17.874 18.9,17.854C19.108,17.834 19.28,17.808 19.416,17.776C19.544,17.744 19.628,17.72 19.668,17.704C19.676,17.704 19.692,17.716 19.716,17.74C19.74,17.764 19.752,17.792 19.752,17.824C19.752,17.84 19.694,17.88 19.578,17.944C19.462,18.008 19.344,18.076 19.224,18.148C19.152,18.188 19.066,18.24 18.966,18.304C18.866,18.368 18.758,18.43 18.642,18.49C18.526,18.55 18.404,18.604 18.276,18.652C18.148,18.7 18.024,18.728 17.904,18.736C17.784,18.752 17.644,18.764 17.484,18.772C17.324,18.78 17.156,18.786 16.98,18.79C16.804,18.794 16.626,18.798 16.446,18.802C16.266,18.806 16.1,18.808 15.948,18.808C15.924,18.848 15.886,18.914 15.834,19.006C15.782,19.098 15.732,19.216 15.684,19.36C15.636,19.504 15.592,19.668 15.552,19.852C15.512,20.036 15.492,20.236 15.492,20.452C15.492,20.78 15.542,21.082 15.642,21.358C15.742,21.634 15.882,21.872 16.062,22.072C16.242,22.272 16.456,22.428 16.704,22.54C16.952,22.652 17.22,22.708 17.508,22.708C17.676,22.708 17.838,22.688 17.994,22.648C18.15,22.608 18.298,22.556 18.438,22.492C18.578,22.428 18.708,22.358 18.828,22.282C18.948,22.206 19.052,22.132 19.14,22.06L19.284,21.928Z" style="fill-rule:nonzero;"/>
            <path d="M24.036,22.636C23.948,22.708 23.828,22.804 23.676,22.924C23.524,23.044 23.348,23.164 23.148,23.284C22.948,23.404 22.728,23.506 22.488,23.59C22.248,23.674 21.996,23.716 21.732,23.716C21.332,23.716 20.976,23.646 20.664,23.506C20.352,23.366 20.09,23.178 19.878,22.942C19.666,22.706 19.506,22.428 19.398,22.108C19.29,21.788 19.236,21.448 19.236,21.088C19.236,20.664 19.3,20.288 19.428,19.96C19.556,19.632 19.714,19.346 19.902,19.102C20.09,18.858 20.292,18.654 20.508,18.49C20.724,18.326 20.92,18.196 21.096,18.1C21.176,18.052 21.278,18 21.402,17.944C21.526,17.888 21.662,17.836 21.81,17.788C21.958,17.74 22.118,17.698 22.29,17.662C22.462,17.626 22.64,17.608 22.824,17.608C23.168,17.608 23.502,17.652 23.826,17.74C24.15,17.828 24.436,17.966 24.684,18.154C24.932,18.342 25.132,18.584 25.284,18.88C25.436,19.176 25.512,19.532 25.512,19.948C25.512,20.284 25.45,20.6 25.326,20.896C25.202,21.192 25.056,21.456 24.888,21.688C24.72,21.92 24.554,22.118 24.39,22.282C24.226,22.446 24.108,22.564 24.036,22.636ZM22.68,22.828C23.136,22.828 23.486,22.656 23.73,22.312C23.974,21.968 24.096,21.44 24.096,20.728C24.096,20.368 24.046,20.034 23.946,19.726C23.846,19.418 23.706,19.148 23.526,18.916C23.346,18.684 23.136,18.502 22.896,18.37C22.656,18.238 22.396,18.172 22.116,18.172C21.916,18.172 21.726,18.224 21.546,18.328C21.366,18.432 21.208,18.582 21.072,18.778C20.936,18.974 20.828,19.212 20.748,19.492C20.668,19.772 20.628,20.088 20.628,20.44C20.628,20.816 20.686,21.152 20.802,21.448C20.918,21.744 21.072,21.994 21.264,22.198C21.456,22.402 21.674,22.558 21.918,22.666C22.162,22.774 22.416,22.828 22.68,22.828Z" style="fill-rule:nonzero;"/>
            <path d="M31.716,18.496C31.628,18.568 31.524,18.658 31.404,18.766C31.284,18.874 31.158,18.978 31.026,19.078C30.894,19.178 30.76,19.264 30.624,19.336C30.488,19.408 30.356,19.444 30.228,19.444C30.116,19.444 30.016,19.418 29.928,19.366C29.84,19.314 29.758,19.258 29.682,19.198C29.606,19.138 29.532,19.082 29.46,19.03C29.388,18.978 29.312,18.952 29.232,18.952C29.016,18.952 28.834,19.04 28.686,19.216C28.538,19.392 28.418,19.616 28.326,19.888C28.234,20.16 28.166,20.456 28.122,20.776C28.078,21.096 28.056,21.404 28.056,21.7C28.056,21.948 28.066,22.15 28.086,22.306C28.106,22.462 28.136,22.586 28.176,22.678C28.216,22.77 28.27,22.832 28.338,22.864C28.406,22.896 28.488,22.912 28.584,22.912C28.688,22.912 28.8,22.896 28.92,22.864C28.944,22.856 28.962,22.872 28.974,22.912C28.986,22.952 28.992,22.984 28.992,23.008C28.992,23.024 28.98,23.042 28.956,23.062C28.932,23.082 28.916,23.092 28.908,23.092C28.732,23.164 28.552,23.242 28.368,23.326C28.184,23.41 28.032,23.48 27.912,23.536C27.8,23.584 27.666,23.636 27.51,23.692C27.354,23.748 27.22,23.776 27.108,23.776C26.98,23.776 26.874,23.756 26.79,23.716C26.706,23.676 26.664,23.636 26.664,23.596C26.664,23.556 26.674,23.52 26.694,23.488C26.714,23.456 26.732,23.396 26.748,23.308C26.764,23.188 26.782,23.046 26.802,22.882C26.822,22.718 26.842,22.54 26.862,22.348C26.882,22.156 26.898,21.958 26.91,21.754C26.922,21.55 26.928,21.348 26.928,21.148C26.928,20.7 26.914,20.32 26.886,20.008C26.858,19.696 26.808,19.444 26.736,19.252C26.664,19.06 26.566,18.922 26.442,18.838C26.318,18.754 26.16,18.712 25.968,18.712L25.86,18.712C25.828,18.712 25.796,18.716 25.764,18.724C25.716,18.724 25.692,18.7 25.692,18.652C25.692,18.604 25.716,18.568 25.764,18.544C25.852,18.488 25.988,18.406 26.172,18.298C26.356,18.19 26.546,18.086 26.742,17.986C26.938,17.886 27.128,17.796 27.312,17.716C27.496,17.636 27.632,17.596 27.72,17.596C27.824,17.596 27.912,17.63 27.984,17.698C28.056,17.766 28.11,17.852 28.146,17.956C28.182,18.06 28.208,18.178 28.224,18.31C28.24,18.442 28.248,18.572 28.248,18.7C28.248,18.796 28.246,18.896 28.242,19C28.238,19.104 28.236,19.216 28.236,19.336C28.596,18.808 28.92,18.398 29.208,18.106C29.496,17.814 29.768,17.668 30.024,17.668C30.12,17.668 30.214,17.708 30.306,17.788C30.398,17.868 30.496,17.958 30.6,18.058C30.704,18.158 30.812,18.248 30.924,18.328C31.036,18.408 31.152,18.448 31.272,18.448C31.376,18.448 31.452,18.436 31.5,18.412C31.548,18.388 31.588,18.368 31.62,18.352C31.684,18.352 31.716,18.396 31.716,18.484L31.716,18.496Z" style="fill-rule:nonzero;"/>
        </g>
        <g transform="matrix(1,0,0,1,62.3138,346.656)">
            <text x="-39.144px" y="23.596px" style="font-family:'Luminari-Regular', 'Luminari';font-size:12px;">Tr<tspan x="-24.996px -18.396px " y="23.596px 23.596px ">an</tspan>smutor</text>
        </g>
        <g transform="matrix(1,0,0,1,58.164,339.27)">
            <g transform="matrix(0.8973,0,0,0.884326,9.28968,12.4373)">
                <circle cx="3.434" cy="5.159" r="2.172" style="stroke:black;stroke-width:0.94px;"/>
            </g>
            <g transform="matrix(0.8973,0,0,0.884326,4.54775,12.4373)">
                <circle cx="3.434" cy="5.159" r="2.172" style="fill:white;stroke:black;stroke-width:0.94px;"/>
            </g>
            <g transform="matrix(0.8973,0,0,0.884326,-0.194181,12.4373)">
                <circle cx="3.434" cy="5.159" r="2.172" style="stroke:black;stroke-width:0.94px;"/>
            </g>
            <g transform="matrix(0.8973,0,0,0.884326,14.0316,12.4373)">
                <circle cx="3.434" cy="5.159" r="2.172" style="stroke:black;stroke-width:0.94px;"/>
            </g>
            <g transform="matrix(0.8973,0,0,0.884326,9.28968,6.70878)">
                <circle cx="3.434" cy="5.159" r="2.172" style="fill:white;stroke:black;stroke-width:0.94px;"/>
            </g>
            <g transform="matrix(0.8973,0,0,0.884326,4.54775,6.70878)">
                <circle cx="3.434" cy="5.159" r="2.172" style="stroke:black;stroke-width:0.94px;"/>
            </g>
            <g transform="matrix(0.8973,0,0,0.884326,-0.194181,6.70878)">
                <circle cx="3.434" cy="5.159" r="2.172" style="stroke:black;stroke-width:0.94px;"/>
            </g>
            <g transform="matrix(0.8973,0,0,0.884326,14.0316,6.70878)">
                <circle cx="3.434" cy="5.159" r="2.172" style="fill:white;stroke:black;stroke-width:0.94px;"/>
            </g>
            <g transform="matrix(0.8973,0,0,0.884326,9.28968,0.980236)">
                <circle cx="3.434" cy="5.159" r="2.172" style="fill:white;stroke:black;stroke-width:0.94px;"/>
            </g>
            <g transform="matrix(0.8973,0,0,0.884326,4.54775,0.980236)">
                <circle cx="3.434" cy="5.159" r="2.172" style="fill:white;stroke:black;stroke-width:0.94px;"/>
            </g>
            <g transform="matrix(0.8973,0,0,0.884326,-0.194181,0.980236)">
                <circle cx="3.434" cy="5.159" r="2.172" style="stroke:black;stroke-width:0.94px;"/>
            </g>
            <g transform="matrix(0.8973,0,0,0.884326,14.0316,0.980236)">
                <circle cx="3.434" cy="5.159" r="2.172" style="stroke:black;stroke-width:0.94px;"/>
            </g>
        </g>
        <g transform="matrix(0.0178906,0,0,0.0202937,37.7207,339.525)">
            <g transform="matrix(55.8954,0,0,49.2765,-878.032,-330.791)">
                <path d="M27.733,13.757C27.957,11.616 28.949,10 30.136,10C31.489,10 32.587,12.095 32.587,14.677C32.587,15.669 32.424,16.59 32.148,17.347C32.432,17.974 32.587,18.65 32.587,19.353C32.587,22.678 29.128,25.378 24.868,25.378C20.609,25.378 17.15,22.678 17.15,19.353C17.15,18.65 17.305,17.974 17.589,17.347C17.313,16.59 17.15,15.669 17.15,14.677C17.15,12.095 18.248,10 19.601,10C20.788,10 21.779,11.616 22.003,13.757L22.04,13.746C22.915,13.476 23.87,13.328 24.868,13.328C25.881,13.328 26.847,13.48 27.733,13.757ZM17.609,17.304L17.606,17.31L17.609,17.304ZM32.128,17.305L32.131,17.31L32.128,17.305ZM17.627,17.265L17.623,17.273L17.627,17.265ZM32.11,17.266L32.113,17.273L32.11,17.266ZM17.645,17.227L17.641,17.236L17.645,17.227ZM32.092,17.228L32.096,17.236L32.092,17.228ZM17.663,17.19L17.659,17.2L17.663,17.19ZM32.074,17.191L32.078,17.199L32.074,17.191ZM17.682,17.153L17.677,17.162L17.682,17.153ZM32.055,17.154L32.059,17.161L32.055,17.154ZM17.7,17.117L17.696,17.125L17.7,17.117ZM32.037,17.117L32.04,17.123L32.037,17.117ZM17.719,17.081L17.717,17.085L17.719,17.081ZM32.018,17.081L32.019,17.082L32.018,17.081ZM17.782,16.964L17.778,16.971L17.782,16.964ZM31.957,16.968L31.958,16.97L31.957,16.968ZM17.804,16.925L17.798,16.935L17.804,16.925ZM31.935,16.928L31.938,16.934L31.935,16.928ZM17.825,16.888L17.818,16.9L17.825,16.888ZM31.914,16.891L31.918,16.899L31.914,16.891ZM17.845,16.852L17.838,16.865L17.845,16.852ZM31.893,16.854L31.898,16.863L31.893,16.854ZM17.866,16.817L17.859,16.829L17.866,16.817ZM31.871,16.819L31.876,16.827L31.871,16.819ZM17.888,16.782L17.88,16.794L17.888,16.782ZM31.85,16.783L31.855,16.791L31.85,16.783ZM17.909,16.747L17.902,16.758L17.909,16.747ZM31.829,16.748L31.832,16.754L31.829,16.748ZM17.931,16.712L17.925,16.72L17.931,16.712ZM31.807,16.713L31.808,16.714L31.807,16.713ZM17.979,16.635L17.975,16.642L17.979,16.635ZM18.005,16.596L17.998,16.608L18.005,16.596ZM31.735,16.602L31.738,16.606L31.735,16.602ZM18.029,16.561L18.02,16.573L18.029,16.561ZM31.711,16.564L31.716,16.572L31.711,16.564ZM18.052,16.526L18.043,16.539L18.052,16.526ZM31.686,16.529L31.692,16.537L31.686,16.529ZM18.076,16.492L18.066,16.505L18.076,16.492ZM31.663,16.494L31.669,16.503L31.663,16.494ZM18.1,16.458L18.09,16.471L18.1,16.458ZM31.639,16.459L31.645,16.469L31.639,16.459ZM18.124,16.424L18.114,16.437L18.124,16.424ZM31.614,16.425L31.62,16.434L31.614,16.425ZM18.148,16.39L18.139,16.403L18.148,16.39ZM31.59,16.392L31.595,16.398L31.59,16.392ZM18.172,16.357L18.164,16.367L18.172,16.357ZM31.566,16.358L31.567,16.36L31.566,16.358ZM18.197,16.324L18.196,16.324L18.197,16.324ZM18.23,16.28L18.222,16.291L18.23,16.28ZM31.513,16.288L31.514,16.289L31.513,16.288ZM18.257,16.245L18.247,16.258L18.257,16.245ZM31.484,16.249L31.489,16.256L31.484,16.249ZM18.283,16.211L18.272,16.225L18.283,16.211ZM31.456,16.214L31.463,16.223L31.456,16.214ZM18.309,16.178L18.298,16.192L18.309,16.178ZM31.43,16.18L31.438,16.19L31.43,16.18ZM18.335,16.145L18.324,16.16L18.335,16.145ZM31.403,16.147L31.411,16.158L31.403,16.147ZM18.362,16.113L18.35,16.127L18.362,16.113ZM31.376,16.114L31.385,16.125L31.376,16.114ZM18.388,16.081L18.377,16.094L18.388,16.081ZM31.35,16.082L31.357,16.091L31.35,16.082ZM18.415,16.049L18.404,16.061L18.415,16.049ZM31.323,16.05L31.329,16.057L31.323,16.05ZM18.442,16.017L18.433,16.027L18.442,16.017ZM31.295,16.018L31.298,16.021L31.295,16.018ZM18.473,15.981L18.469,15.985L18.473,15.981ZM18.507,15.942L18.497,15.954L18.507,15.942ZM31.234,15.947L31.239,15.953L31.234,15.947ZM18.536,15.909L18.525,15.922L18.536,15.909ZM31.203,15.912L31.211,15.921L31.203,15.912ZM18.565,15.877L18.553,15.891L18.565,15.877ZM31.174,15.879L31.183,15.89L31.174,15.879ZM18.594,15.846L18.581,15.86L18.594,15.846ZM31.145,15.847L31.155,15.859L31.145,15.847ZM18.622,15.815L18.61,15.828L18.622,15.815ZM31.115,15.816L31.126,15.827L31.115,15.816ZM18.651,15.784L18.639,15.797L18.651,15.784ZM31.086,15.785L31.097,15.796L31.086,15.785ZM18.68,15.753L18.668,15.766L18.68,15.753ZM31.057,15.754L31.067,15.765L31.057,15.754ZM18.71,15.723L18.698,15.735L18.71,15.723ZM31.027,15.723L31.037,15.733L31.027,15.723ZM18.739,15.692L18.73,15.702L18.739,15.692ZM30.998,15.693L31.003,15.698L30.998,15.693ZM18.775,15.656L18.769,15.662L18.775,15.656ZM30.965,15.659L30.967,15.662L30.965,15.659ZM18.81,15.621L18.799,15.632L18.81,15.621ZM30.928,15.622L30.937,15.632L30.928,15.622ZM18.842,15.59L18.83,15.602L18.842,15.59ZM30.895,15.591L30.907,15.602L30.895,15.591ZM18.873,15.56L18.86,15.572L18.873,15.56ZM30.864,15.56L30.876,15.572L30.864,15.56ZM18.904,15.53L18.891,15.543L18.904,15.53ZM30.832,15.53L30.846,15.543L30.832,15.53ZM30.801,15.5L30.814,15.513L30.801,15.5ZM18.936,15.501L18.923,15.513L18.936,15.501ZM30.769,15.471L30.783,15.484L30.769,15.471ZM18.967,15.471L18.954,15.483L18.967,15.471ZM30.738,15.442L30.751,15.454L30.738,15.442ZM18.999,15.442L18.986,15.454L18.999,15.442ZM30.706,15.413L30.719,15.425L30.706,15.413ZM19.031,15.413L19.019,15.424L19.031,15.413ZM30.674,15.384L30.684,15.394L30.674,15.384ZM19.063,15.385L19.056,15.391L19.063,15.385ZM30.63,15.346L30.642,15.356L30.63,15.346ZM19.101,15.35L19.095,15.356L19.101,15.35ZM30.595,15.315L30.61,15.328L30.595,15.315ZM19.139,15.318L19.128,15.327L19.139,15.318ZM30.561,15.286L30.577,15.3L30.561,15.286ZM19.173,15.288L19.161,15.299L19.173,15.288ZM30.528,15.258L30.544,15.272L30.528,15.258ZM19.207,15.26L19.194,15.271L19.207,15.26ZM30.494,15.23L30.511,15.244L30.494,15.23ZM19.241,15.231L19.227,15.243L19.241,15.231ZM30.461,15.202L30.478,15.216L30.461,15.202ZM19.274,15.204L19.261,15.215L19.274,15.204ZM30.427,15.175L30.444,15.189L30.427,15.175ZM19.308,15.176L19.295,15.187L19.308,15.176ZM30.393,15.147L30.41,15.161L30.393,15.147ZM19.342,15.149L19.33,15.158L19.342,15.149ZM30.359,15.12L30.376,15.134L30.359,15.12ZM19.377,15.121L19.366,15.129L19.377,15.121ZM30.325,15.093L30.343,15.107L30.326,15.094L30.305,15.078L30.325,15.093ZM19.411,15.094L19.409,15.096L19.411,15.094ZM30.273,15.053L30.292,15.068L30.273,15.053ZM19.452,15.062L19.446,15.067L19.452,15.062ZM30.238,15.027L30.257,15.041L30.238,15.027ZM19.492,15.032L19.481,15.04L19.492,15.032ZM30.203,15L30.222,15.015L30.203,15ZM19.529,15.004L19.516,15.013L19.529,15.004ZM30.168,14.974L30.187,14.989L30.168,14.974ZM19.565,14.977L19.552,14.987L19.565,14.977ZM30.132,14.948L30.152,14.963L30.132,14.948ZM19.601,14.951L19.588,14.961L19.601,14.951ZM30.097,14.922L30.117,14.937L30.097,14.922ZM19.637,14.925L19.624,14.934L19.637,14.925ZM30.061,14.897L30.081,14.911L30.061,14.897ZM19.673,14.899L19.661,14.908L19.673,14.899ZM30.025,14.871L30.046,14.886L30.025,14.871ZM19.71,14.873L19.698,14.881L19.71,14.873ZM29.988,14.846L30.011,14.862L29.988,14.846ZM19.746,14.848L19.738,14.853L19.746,14.848ZM29.954,14.822L29.915,14.796C29.928,14.805 29.941,14.813 29.954,14.822ZM19.826,14.793L19.821,14.796L19.826,14.793ZM29.858,14.758L29.881,14.773L29.858,14.758ZM19.868,14.765L19.858,14.771L19.868,14.765ZM29.822,14.734L29.845,14.749L29.822,14.734ZM19.907,14.739L19.896,14.747L19.907,14.739ZM29.785,14.71L29.807,14.724L29.785,14.71ZM19.946,14.714L19.933,14.722L19.946,14.714ZM29.747,14.686L29.77,14.7L29.747,14.686ZM19.984,14.689L19.971,14.697L19.984,14.689ZM29.71,14.662L29.733,14.676L29.71,14.662ZM20.023,14.665L20.01,14.673L20.023,14.665ZM29.672,14.638L29.696,14.653L29.672,14.638ZM20.061,14.641L20.049,14.648L20.061,14.641ZM29.634,14.615L29.659,14.63L29.634,14.615ZM20.099,14.617L20.09,14.623L20.099,14.617ZM29.494,14.531C29.537,14.556 29.58,14.582 29.623,14.608C29.581,14.582 29.538,14.556 29.494,14.531ZM20.138,14.593L20.134,14.596L20.138,14.593ZM20.221,14.543L20.218,14.545L20.221,14.543ZM29.458,14.51L29.483,14.525L29.458,14.51ZM20.266,14.517L20.257,14.522L20.266,14.517ZM29.42,14.488L29.444,14.502L29.42,14.488ZM20.308,14.493L20.297,14.499L20.308,14.493ZM29.381,14.466L29.405,14.48L29.381,14.466ZM20.349,14.47L20.337,14.477L20.349,14.47ZM29.341,14.444L29.366,14.457L29.341,14.444ZM20.389,14.447L20.377,14.454L20.389,14.447ZM29.302,14.422L29.327,14.436L29.302,14.422ZM20.43,14.425L20.418,14.431L20.43,14.425ZM29.262,14.4L29.288,14.414L29.262,14.4ZM20.47,14.403L20.46,14.408L20.47,14.403ZM29.222,14.379L29.249,14.393L29.222,14.379ZM20.51,14.381L20.503,14.385L20.51,14.381ZM29.186,14.359L29.143,14.337C29.157,14.344 29.171,14.352 29.186,14.359ZM29.077,14.303L29.105,14.317L29.077,14.303ZM20.638,14.314L20.636,14.315L20.638,14.314ZM29.038,14.283L29.064,14.296L29.038,14.283ZM20.685,14.29L20.677,14.294L20.685,14.29ZM28.998,14.263L29.023,14.276L28.998,14.263ZM20.729,14.268L20.719,14.273L20.729,14.268ZM28.957,14.243L28.982,14.255L28.957,14.243ZM20.772,14.247L20.761,14.252L20.772,14.247ZM28.916,14.223L28.941,14.235L28.916,14.223ZM20.814,14.226L20.803,14.232L20.814,14.226ZM28.875,14.203L28.899,14.215L28.875,14.203ZM20.857,14.206L20.846,14.211L20.857,14.206ZM28.833,14.184L28.858,14.195L28.833,14.184ZM20.899,14.186L20.891,14.19L20.899,14.186ZM28.791,14.164L28.817,14.176L28.791,14.164ZM20.942,14.166L20.937,14.168L20.942,14.166ZM28.752,14.146L28.707,14.126C28.722,14.133 28.737,14.139 28.752,14.146ZM28.643,14.097L28.667,14.108L28.643,14.097ZM21.075,14.106L21.074,14.106L21.075,14.106ZM28.601,14.079L28.624,14.089L28.601,14.079ZM21.124,14.084L21.117,14.087L21.124,14.084ZM28.558,14.061L28.581,14.071L28.558,14.061ZM21.17,14.065L21.161,14.068L21.17,14.065ZM28.516,14.043L28.538,14.052L28.516,14.043ZM21.215,14.046L21.204,14.05L21.215,14.046ZM28.473,14.025L28.494,14.034L28.473,14.025ZM21.259,14.027L21.249,14.031L21.259,14.027ZM28.429,14.007L28.451,14.016L28.429,14.007ZM21.303,14.009L21.294,14.013L21.303,14.009ZM28.386,13.989L28.406,13.998L28.386,13.989ZM21.347,13.991L21.341,13.994L21.347,13.991ZM28.342,13.972L28.361,13.979L28.342,13.972ZM21.392,13.973L21.391,13.974L21.392,13.973ZM28.298,13.955L28.311,13.96L28.298,13.955ZM28.243,13.934L28.254,13.938L28.243,13.934ZM28.195,13.915L28.21,13.921L28.195,13.915ZM21.531,13.92L21.53,13.92L21.531,13.92ZM28.149,13.898L28.165,13.904L28.149,13.898ZM21.581,13.901L21.575,13.903L21.581,13.901ZM28.103,13.882L28.119,13.888L28.103,13.882ZM21.629,13.884L21.62,13.887L21.629,13.884ZM28.058,13.866L28.074,13.871L28.058,13.866ZM21.675,13.867L21.666,13.87L21.675,13.867ZM28.013,13.85L28.028,13.855L28.013,13.85ZM21.721,13.851L21.713,13.854L21.721,13.851ZM27.968,13.834L27.981,13.839L27.968,13.834ZM21.767,13.835L21.76,13.837L21.767,13.835ZM27.922,13.819L27.932,13.822L27.922,13.819ZM21.813,13.819L21.809,13.821L21.813,13.819ZM27.877,13.803L27.879,13.804L27.877,13.803Z" style="fill:none;stroke:black;stroke-width:1.22px;"/>
            </g>
            <g transform="matrix(55.8954,0,0,49.2765,-878.032,-330.791)">
                <path d="M25.128,19.358C24.963,19.04 24.868,18.67 24.868,18.275C24.868,17.096 25.713,16.138 26.753,16.138C27.793,16.138 28.637,17.096 28.637,18.275C28.637,19.031 28.291,19.696 27.768,20.076C27.128,19.668 26.188,19.396 25.128,19.358ZM21.969,20.076C21.446,19.696 21.099,19.031 21.099,18.275C21.099,17.096 21.944,16.138 22.984,16.138C24.024,16.138 24.868,17.096 24.868,18.275C24.868,18.67 24.774,19.04 24.609,19.358C23.549,19.396 22.609,19.668 21.969,20.076Z" style="fill:none;stroke:black;stroke-width:1.22px;"/>
            </g>
            <g transform="matrix(1,0,0,1,-53.1856,50.0357)">
                <ellipse cx="565.186" cy="671.455" rx="210.672" ry="98.631" style="fill:none;stroke:black;stroke-width:63.81px;"/>
            </g>
            <g transform="matrix(51.2,0,0,45.1371,0.670978,88.9676)">
                <path d="M12.057,13.791C12.057,13.668 11.958,13.568 11.835,13.568L8.139,13.568C8.016,13.568 7.916,13.668 7.916,13.791L7.916,14.236C7.916,14.359 8.016,14.458 8.139,14.458L11.835,14.458C11.958,14.458 12.057,14.359 12.057,14.236L12.057,13.791Z"/>
            </g>
        </g>
    </g>
</svg>
