<?xml version="1.0" encoding="UTF-8" standalone="no"?>
<!DOCTYPE svg PUBLIC "-//W3C//DTD SVG 1.1//EN" "http://www.w3.org/Graphics/SVG/1.1/DTD/svg11.dtd">
<svg width="100%" height="100%" viewBox="0 0 60 380" version="1.1" xmlns="http://www.w3.org/2000/svg" xmlns:xlink="http://www.w3.org/1999/xlink" xml:space="preserve" xmlns:serif="http://www.serif.com/" style="fill-rule:evenodd;clip-rule:evenodd;stroke-linecap:round;stroke-linejoin:round;stroke-miterlimit:1.5;">
    <g transform="matrix(0.359397,0,0,1.48634,-9.69795,-44.3619)">
        <rect x="26.984" y="29.846" width="166.946" height="255.662" style="fill:rgb(102,126,153);"/>
    </g>
    <g id="Label" transform="matrix(1,0,0,1,-27.2261,11.8096)">
        <g transform="matrix(1,0,0,1,58.164,339.27)">
            <g transform="matrix(0.8973,0,0,0.884326,9.28968,12.4373)">
                <circle cx="3.434" cy="5.159" r="2.172" style="stroke:black;stroke-width:0.94px;"/>
            </g>
            <g transform="matrix(0.8973,0,0,0.884326,4.54775,12.4373)">
                <circle cx="3.434" cy="5.159" r="2.172" style="fill:white;stroke:black;stroke-width:0.94px;"/>
            </g>
            <g transform="matrix(0.8973,0,0,0.884326,-0.194181,12.4373)">
                <circle cx="3.434" cy="5.159" r="2.172" style="stroke:black;stroke-width:0.94px;"/>
            </g>
            <g transform="matrix(0.8973,0,0,0.884326,14.0316,12.4373)">
                <circle cx="3.434" cy="5.159" r="2.172" style="stroke:black;stroke-width:0.94px;"/>
            </g>
            <g transform="matrix(0.8973,0,0,0.884326,9.28968,6.70878)">
                <circle cx="3.434" cy="5.159" r="2.172" style="fill:white;stroke:black;stroke-width:0.94px;"/>
            </g>
            <g transform="matrix(0.8973,0,0,0.884326,4.54775,6.70878)">
                <circle cx="3.434" cy="5.159" r="2.172" style="stroke:black;stroke-width:0.94px;"/>
            </g>
            <g transform="matrix(0.8973,0,0,0.884326,-0.194181,6.70878)">
                <circle cx="3.434" cy="5.159" r="2.172" style="stroke:black;stroke-width:0.94px;"/>
            </g>
            <g transform="matrix(0.8973,0,0,0.884326,14.0316,6.70878)">
                <circle cx="3.434" cy="5.159" r="2.172" style="fill:white;stroke:black;stroke-width:0.94px;"/>
            </g>
            <g transform="matrix(0.8973,0,0,0.884326,9.28968,0.980236)">
                <circle cx="3.434" cy="5.159" r="2.172" style="fill:white;stroke:black;stroke-width:0.94px;"/>
            </g>
            <g transform="matrix(0.8973,0,0,0.884326,4.54775,0.980236)">
                <circle cx="3.434" cy="5.159" r="2.172" style="fill:white;stroke:black;stroke-width:0.94px;"/>
            </g>
            <g transform="matrix(0.8973,0,0,0.884326,-0.194181,0.980236)">
                <circle cx="3.434" cy="5.159" r="2.172" style="stroke:black;stroke-width:0.94px;"/>
            </g>
            <g transform="matrix(0.8973,0,0,0.884326,14.0316,0.980236)">
                <circle cx="3.434" cy="5.159" r="2.172" style="stroke:black;stroke-width:0.94px;"/>
            </g>
        </g>
        <g transform="matrix(0.0178906,0,0,0.0202937,35.7843,339.525)">
            <g transform="matrix(1,0,0,1,-143.343,98.6554)">
                <ellipse cx="360.896" cy="293.762" rx="136.961" ry="230.443" style="fill:rgb(102,126,153);stroke:black;stroke-width:63.81px;"/>
            </g>
            <g transform="matrix(1,0,0,1,445.551,98.6554)">
                <ellipse cx="360.896" cy="293.762" rx="136.961" ry="230.443" style="fill:rgb(102,126,153);stroke:black;stroke-width:63.81px;"/>
            </g>
            <g transform="matrix(1,0,0,1,-34.3236,-20.6488)">
                <ellipse cx="546.324" cy="643.509" rx="431.408" ry="296.899" style="fill:rgb(102,126,153);stroke:black;stroke-width:63.81px;"/>
            </g>
            <circle cx="406.664" cy="569.758" r="105.336" style="fill:rgb(102,126,153);stroke:black;stroke-width:63.81px;"/>
            <g transform="matrix(1,0,0,1,210.672,0)">
                <circle cx="406.664" cy="569.758" r="105.336" style="fill:rgb(102,126,153);stroke:black;stroke-width:63.81px;"/>
            </g>
            <g transform="matrix(1,0,0,1,-53.1856,50.0357)">
                <ellipse cx="565.186" cy="671.455" rx="210.672" ry="98.631" style="fill:rgb(102,126,153);stroke:black;stroke-width:63.81px;"/>
            </g>
            <g transform="matrix(51.2,0,0,45.1371,0.670978,88.9676)">
                <path d="M12.057,13.791C12.057,13.668 11.958,13.568 11.835,13.568L8.139,13.568C8.016,13.568 7.916,13.668 7.916,13.791L7.916,14.236C7.916,14.359 8.016,14.458 8.139,14.458L11.835,14.458C11.958,14.458 12.057,14.359 12.057,14.236L12.057,13.791Z"/>
            </g>
        </g>
    </g>
    <g transform="matrix(1,0,0,1,-88.8763,137.758)">
        <g transform="matrix(0.0888999,0,0,72.8139,132.639,-21717.6)">
            <rect x="13.921" y="296.737" width="168.729" height="3.935" style="fill:rgb(191,191,191);"/>
        </g>
        <g transform="matrix(0.298037,0,0,0.695794,89.7802,112.582)">
            <rect x="161.957" y="57.989" width="36.327" height="2.261"/>
        </g>
        <g transform="matrix(0.298037,0,0,0.695794,89.7802,78.9428)">
            <rect x="161.957" y="57.989" width="36.327" height="2.261"/>
        </g>
        <g transform="matrix(0.298037,0,0,0.695794,89.7802,43.5749)">
            <rect x="161.957" y="57.989" width="36.327" height="2.261"/>
        </g>
        <g transform="matrix(0.298037,0,0,0.695794,89.7802,8.26773)">
            <rect x="161.957" y="57.989" width="36.327" height="2.261"/>
        </g>
        <g transform="matrix(0.298037,0,0,0.695794,89.7802,-25.179)">
            <rect x="161.957" y="57.989" width="36.327" height="2.261"/>
        </g>
        <g transform="matrix(0.319692,0,0,0.695794,85.4864,-59.9546)">
            <rect x="161.957" y="57.989" width="36.327" height="2.261"/>
        </g>
        <g transform="matrix(0.319692,0,0,0.695794,85.4864,-94.2518)">
            <rect x="161.957" y="57.989" width="36.327" height="2.261"/>
        </g>
        <g transform="matrix(0.319692,0,0,0.695794,85.4864,-129.909)">
            <rect x="161.957" y="57.989" width="36.327" height="2.261"/>
        </g>
        <g transform="matrix(0.320796,0,0,0.707593,75.2674,-9.5962)">
            <rect x="161.957" y="57.989" width="36.327" height="2.261"/>
        </g>
        <g transform="matrix(4.08741e-16,6.67525,-0.695794,4.26051e-17,179.184,-1169.88)">
            <rect x="161.957" y="57.989" width="36.327" height="2.261"/>
        </g>
        <g id="CVIn-input" serif:id="CVIn#input" transform="matrix(0.175002,0,0,0.175002,89.4367,-0.660999)">
            <rect x="53.94" y="106.916" width="161.978" height="161.978" style="fill:rgb(204,204,204);"/>
        </g>
    </g>
    <g id="BusOut-led" serif:id="BusOut#led" transform="matrix(1,0,0,1,3.18651,10.8256)">
        <circle cx="42.167" cy="335.861" r="3.82" style="fill:rgb(230,230,230);"/>
    </g>
    <g>
        <g transform="matrix(1,0,0,1,52.7595,-3.99815)">
            <path d="M-32.868,23.656C-32.948,23.656 -33.056,23.66 -33.192,23.668C-33.328,23.676 -33.474,23.682 -33.63,23.686C-33.786,23.69 -33.946,23.696 -34.11,23.704C-34.274,23.712 -34.424,23.716 -34.56,23.716C-35.096,23.716 -35.62,23.634 -36.132,23.47C-36.644,23.306 -37.098,23.05 -37.494,22.702C-37.89,22.354 -38.21,21.906 -38.454,21.358C-38.698,20.81 -38.82,20.152 -38.82,19.384C-38.82,18.68 -38.686,18.056 -38.418,17.512C-38.15,16.968 -37.796,16.512 -37.356,16.144C-36.916,15.776 -36.42,15.496 -35.868,15.304C-35.316,15.112 -34.752,15.016 -34.176,15.016C-34.048,15.016 -33.874,15.024 -33.654,15.04C-33.434,15.056 -33.214,15.076 -32.994,15.1C-32.774,15.124 -32.578,15.15 -32.406,15.178C-32.234,15.206 -32.124,15.232 -32.076,15.256C-31.972,14.976 -31.856,14.728 -31.728,14.512C-31.6,14.296 -31.424,14.132 -31.2,14.02C-31.136,13.996 -31.064,13.992 -30.984,14.008C-30.904,14.024 -30.864,14.064 -30.864,14.128C-30.904,14.2 -30.934,14.244 -30.954,14.26C-30.974,14.276 -31,14.284 -31.032,14.284C-31.128,14.284 -31.222,14.328 -31.314,14.416C-31.406,14.504 -31.492,14.618 -31.572,14.758C-31.652,14.898 -31.722,15.058 -31.782,15.238C-31.842,15.418 -31.888,15.6 -31.92,15.784C-31.936,15.872 -31.954,15.974 -31.974,16.09C-31.994,16.206 -32.012,16.32 -32.028,16.432C-32.044,16.544 -32.056,16.652 -32.064,16.756C-32.072,16.86 -32.076,16.948 -32.076,17.02C-32.076,17.06 -32.092,17.094 -32.124,17.122C-32.156,17.15 -32.188,17.164 -32.22,17.164C-32.268,17.164 -32.324,17.14 -32.388,17.092C-32.42,16.892 -32.486,16.692 -32.586,16.492C-32.686,16.292 -32.826,16.112 -33.006,15.952C-33.186,15.792 -33.41,15.664 -33.678,15.568C-33.946,15.472 -34.264,15.424 -34.632,15.424C-35.024,15.424 -35.374,15.516 -35.682,15.7C-35.99,15.884 -36.25,16.136 -36.462,16.456C-36.674,16.776 -36.836,17.156 -36.948,17.596C-37.06,18.036 -37.116,18.508 -37.116,19.012C-37.116,19.708 -37.046,20.326 -36.906,20.866C-36.766,21.406 -36.572,21.864 -36.324,22.24C-36.076,22.616 -35.78,22.902 -35.436,23.098C-35.092,23.294 -34.716,23.392 -34.308,23.392C-34.036,23.392 -33.77,23.348 -33.51,23.26C-33.25,23.172 -33.01,23.052 -32.79,22.9C-32.57,22.748 -32.374,22.572 -32.202,22.372C-32.03,22.172 -31.896,21.96 -31.8,21.736C-31.784,21.704 -31.742,21.68 -31.674,21.664C-31.606,21.648 -31.572,21.656 -31.572,21.688C-31.572,21.792 -31.606,21.934 -31.674,22.114C-31.742,22.294 -31.82,22.474 -31.908,22.654C-31.996,22.834 -32.084,22.998 -32.172,23.146C-32.26,23.294 -32.32,23.392 -32.352,23.44C-32.376,23.496 -32.406,23.57 -32.442,23.662C-32.478,23.754 -32.51,23.858 -32.538,23.974C-32.566,24.09 -32.592,24.21 -32.616,24.334C-32.64,24.458 -32.652,24.58 -32.652,24.7C-32.652,24.828 -32.668,24.908 -32.7,24.94C-32.732,24.972 -32.8,24.988 -32.904,24.988C-32.992,24.988 -33.032,24.926 -33.024,24.802C-33.016,24.678 -32.996,24.536 -32.964,24.376C-32.932,24.216 -32.9,24.066 -32.868,23.926C-32.836,23.786 -32.836,23.696 -32.868,23.656Z" style="fill-rule:nonzero;"/>
            <path d="M-22.848,15.04C-22.752,15.04 -22.644,15.038 -22.524,15.034C-22.404,15.03 -22.29,15.026 -22.182,15.022C-22.074,15.018 -21.982,15.014 -21.906,15.01C-21.83,15.006 -21.78,15.004 -21.756,15.004C-21.62,15.004 -21.552,15.044 -21.552,15.124C-21.552,15.196 -21.58,15.248 -21.636,15.28C-21.692,15.312 -21.758,15.336 -21.834,15.352C-21.91,15.368 -21.988,15.378 -22.068,15.382C-22.148,15.386 -22.212,15.4 -22.26,15.424C-22.628,16.128 -22.986,16.826 -23.334,17.518C-23.682,18.21 -24.016,18.87 -24.336,19.498C-24.656,20.126 -24.958,20.706 -25.242,21.238C-25.526,21.77 -25.782,22.232 -26.01,22.624C-26.238,23.016 -26.436,23.324 -26.604,23.548C-26.772,23.772 -26.9,23.884 -26.988,23.884C-27.028,23.86 -27.068,23.822 -27.108,23.77C-27.148,23.718 -27.188,23.648 -27.228,23.56C-27.348,23.312 -27.484,23.012 -27.636,22.66C-27.788,22.308 -27.948,21.928 -28.116,21.52C-28.284,21.112 -28.46,20.69 -28.644,20.254C-28.828,19.818 -29.012,19.384 -29.196,18.952L-29.448,18.352C-29.584,18.016 -29.716,17.684 -29.844,17.356C-29.972,17.028 -30.09,16.726 -30.198,16.45C-30.306,16.174 -30.402,15.94 -30.486,15.748C-30.57,15.556 -30.64,15.428 -30.696,15.364C-30.896,15.364 -31.052,15.36 -31.164,15.352C-31.276,15.344 -31.36,15.334 -31.416,15.322C-31.472,15.31 -31.508,15.294 -31.524,15.274C-31.54,15.254 -31.548,15.232 -31.548,15.208C-31.548,15.152 -31.532,15.104 -31.5,15.064C-31.468,15.024 -31.436,15.004 -31.404,15.004C-31.38,15.004 -31.318,15.006 -31.218,15.01C-31.118,15.014 -30.994,15.018 -30.846,15.022C-30.698,15.026 -30.532,15.032 -30.348,15.04C-30.164,15.048 -29.98,15.052 -29.796,15.052C-29.1,15.052 -28.596,15.038 -28.284,15.01C-27.972,14.982 -27.784,14.968 -27.72,14.968C-27.568,14.968 -27.492,15.008 -27.492,15.088C-27.492,15.104 -27.496,15.126 -27.504,15.154C-27.512,15.182 -27.534,15.212 -27.57,15.244C-27.606,15.276 -27.666,15.304 -27.75,15.328C-27.834,15.352 -27.948,15.364 -28.092,15.364C-28.196,15.364 -28.298,15.362 -28.398,15.358C-28.498,15.354 -28.576,15.348 -28.632,15.34C-28.632,15.396 -28.588,15.568 -28.5,15.856C-28.412,16.144 -28.298,16.496 -28.158,16.912C-28.018,17.328 -27.858,17.78 -27.678,18.268C-27.498,18.756 -27.318,19.23 -27.138,19.69C-26.958,20.15 -26.786,20.57 -26.622,20.95C-26.458,21.33 -26.316,21.62 -26.196,21.82C-26.132,21.732 -26.032,21.556 -25.896,21.292C-25.76,21.028 -25.608,20.712 -25.44,20.344C-25.272,19.976 -25.098,19.576 -24.918,19.144C-24.738,18.712 -24.574,18.286 -24.426,17.866C-24.278,17.446 -24.156,17.05 -24.06,16.678C-23.964,16.306 -23.916,16 -23.916,15.76C-23.916,15.68 -23.922,15.596 -23.934,15.508C-23.946,15.42 -23.984,15.368 -24.048,15.352C-24.256,15.352 -24.426,15.348 -24.558,15.34C-24.69,15.332 -24.796,15.322 -24.876,15.31C-24.956,15.298 -25.02,15.282 -25.068,15.262C-25.116,15.242 -25.16,15.224 -25.2,15.208C-25.224,15.176 -25.236,15.128 -25.236,15.064C-25.236,15 -25.212,14.968 -25.164,14.968L-25.008,14.968C-24.92,14.976 -24.772,14.986 -24.564,14.998C-24.356,15.01 -24.048,15.024 -23.64,15.04L-22.848,15.04Z" style="fill-rule:nonzero;"/>
            <path d="M-17.388,23.596C-17.532,23.596 -17.692,23.598 -17.868,23.602C-18.044,23.606 -18.216,23.61 -18.384,23.614C-18.552,23.618 -18.71,23.626 -18.858,23.638C-19.006,23.65 -19.12,23.66 -19.2,23.668L-19.392,23.692C-19.432,23.692 -19.466,23.67 -19.494,23.626C-19.522,23.582 -19.536,23.54 -19.536,23.5C-19.536,23.468 -19.52,23.434 -19.488,23.398C-19.456,23.362 -19.412,23.344 -19.356,23.344C-19.02,23.344 -18.752,23.324 -18.552,23.284C-18.352,23.244 -18.232,23.192 -18.192,23.128C-18.144,23.032 -18.094,22.818 -18.042,22.486C-17.99,22.154 -17.944,21.766 -17.904,21.322C-17.864,20.878 -17.832,20.412 -17.808,19.924C-17.784,19.436 -17.772,18.984 -17.772,18.568C-17.772,18.112 -17.774,17.73 -17.778,17.422C-17.782,17.114 -17.786,16.86 -17.79,16.66C-17.794,16.46 -17.798,16.306 -17.802,16.198C-17.806,16.09 -17.808,16.012 -17.808,15.964C-17.816,15.708 -17.852,15.538 -17.916,15.454C-17.98,15.37 -18.096,15.32 -18.264,15.304C-18.384,15.288 -18.524,15.284 -18.684,15.292C-18.844,15.3 -18.96,15.3 -19.032,15.292C-19.088,15.284 -19.136,15.274 -19.176,15.262C-19.216,15.25 -19.236,15.208 -19.236,15.136C-19.236,15.056 -19.216,15.002 -19.176,14.974C-19.136,14.946 -19.092,14.932 -19.044,14.932C-18.98,14.932 -18.774,14.946 -18.426,14.974C-18.078,15.002 -17.58,15.016 -16.932,15.016C-16.508,15.016 -16.146,15.006 -15.846,14.986C-15.546,14.966 -15.34,14.948 -15.228,14.932C-15.172,14.932 -15.118,14.938 -15.066,14.95C-15.014,14.962 -14.988,15 -14.988,15.064C-14.988,15.2 -15.08,15.276 -15.264,15.292C-15.328,15.292 -15.4,15.296 -15.48,15.304C-15.56,15.312 -15.638,15.32 -15.714,15.328C-15.79,15.336 -15.86,15.348 -15.924,15.364C-15.988,15.38 -16.036,15.392 -16.068,15.4C-16.108,15.416 -16.146,15.562 -16.182,15.838C-16.218,16.114 -16.25,16.456 -16.278,16.864C-16.306,17.272 -16.332,17.712 -16.356,18.184C-16.38,18.656 -16.396,19.092 -16.404,19.492C-16.412,19.796 -16.418,20.15 -16.422,20.554C-16.426,20.958 -16.422,21.346 -16.41,21.718C-16.398,22.09 -16.38,22.412 -16.356,22.684C-16.332,22.956 -16.296,23.112 -16.248,23.152C-16.216,23.176 -16.156,23.198 -16.068,23.218C-15.98,23.238 -15.876,23.258 -15.756,23.278C-15.636,23.298 -15.514,23.312 -15.39,23.32C-15.266,23.328 -15.152,23.332 -15.048,23.332C-14.96,23.332 -14.904,23.34 -14.88,23.356C-14.856,23.372 -14.844,23.412 -14.844,23.476C-14.844,23.548 -14.874,23.6 -14.934,23.632C-14.994,23.664 -15.056,23.68 -15.12,23.68C-15.168,23.68 -15.24,23.676 -15.336,23.668C-15.432,23.66 -15.564,23.65 -15.732,23.638C-15.9,23.626 -16.112,23.616 -16.368,23.608C-16.624,23.6 -16.94,23.596 -17.316,23.596L-17.388,23.596Z" style="fill-rule:nonzero;"/>
            <path d="M-12.468,20.428C-12.476,20.5 -12.484,20.564 -12.492,20.62C-12.5,20.676 -12.506,20.74 -12.51,20.812C-12.514,20.884 -12.518,20.974 -12.522,21.082C-12.526,21.19 -12.528,21.332 -12.528,21.508C-12.528,21.796 -12.518,22.032 -12.498,22.216C-12.478,22.4 -12.448,22.546 -12.408,22.654C-12.368,22.762 -12.318,22.836 -12.258,22.876C-12.198,22.916 -12.124,22.936 -12.036,22.936C-11.98,22.936 -11.92,22.928 -11.856,22.912C-11.84,22.912 -11.826,22.934 -11.814,22.978C-11.802,23.022 -11.804,23.052 -11.82,23.068C-11.868,23.108 -11.962,23.166 -12.102,23.242C-12.242,23.318 -12.4,23.392 -12.576,23.464C-12.752,23.536 -12.934,23.6 -13.122,23.656C-13.31,23.712 -13.468,23.74 -13.596,23.74C-13.708,23.74 -13.796,23.726 -13.86,23.698C-13.924,23.67 -13.956,23.636 -13.956,23.596C-13.956,23.556 -13.952,23.532 -13.944,23.524C-13.936,23.516 -13.924,23.496 -13.908,23.464C-13.892,23.424 -13.88,23.374 -13.872,23.314C-13.864,23.254 -13.852,23.184 -13.836,23.104C-13.82,22.992 -13.804,22.85 -13.788,22.678C-13.772,22.506 -13.756,22.318 -13.74,22.114C-13.724,21.91 -13.71,21.698 -13.698,21.478C-13.686,21.258 -13.68,21.044 -13.68,20.836C-13.68,20.748 -13.682,20.638 -13.686,20.506C-13.69,20.374 -13.696,20.204 -13.704,19.996C-13.712,19.764 -13.738,19.566 -13.782,19.402C-13.826,19.238 -13.882,19.106 -13.95,19.006C-14.018,18.906 -14.094,18.832 -14.178,18.784C-14.262,18.736 -14.344,18.712 -14.424,18.712L-14.544,18.712C-14.584,18.712 -14.624,18.716 -14.664,18.724C-14.696,18.724 -14.712,18.688 -14.712,18.616C-14.712,18.6 -14.706,18.586 -14.694,18.574C-14.682,18.562 -14.644,18.536 -14.58,18.496C-14.476,18.424 -14.336,18.336 -14.16,18.232C-13.984,18.128 -13.804,18.032 -13.62,17.944C-13.436,17.856 -13.262,17.78 -13.098,17.716C-12.934,17.652 -12.808,17.62 -12.72,17.62C-12.488,17.62 -12.372,17.752 -12.372,18.016C-12.372,18.056 -12.376,18.128 -12.384,18.232C-12.392,18.336 -12.398,18.442 -12.402,18.55C-12.406,18.658 -12.412,18.76 -12.42,18.856C-12.428,18.952 -12.432,19.016 -12.432,19.048C-12.264,18.888 -12.084,18.724 -11.892,18.556C-11.7,18.388 -11.492,18.234 -11.268,18.094C-11.044,17.954 -10.808,17.84 -10.56,17.752C-10.312,17.664 -10.056,17.62 -9.792,17.62C-9.312,17.62 -8.918,17.758 -8.61,18.034C-8.302,18.31 -8.148,18.748 -8.148,19.348C-8.148,19.508 -8.158,19.696 -8.178,19.912C-8.198,20.128 -8.22,20.352 -8.244,20.584C-8.268,20.816 -8.29,21.044 -8.31,21.268C-8.33,21.492 -8.34,21.692 -8.34,21.868C-8.34,22.508 -8.132,22.828 -7.716,22.828C-7.636,22.828 -7.546,22.814 -7.446,22.786C-7.346,22.758 -7.25,22.726 -7.158,22.69C-7.066,22.654 -6.984,22.618 -6.912,22.582C-6.84,22.546 -6.792,22.516 -6.768,22.492C-6.76,22.484 -6.75,22.49 -6.738,22.51C-6.726,22.53 -6.716,22.556 -6.708,22.588C-6.7,22.62 -6.698,22.648 -6.702,22.672C-6.706,22.696 -6.712,22.712 -6.72,22.72C-6.784,22.76 -6.922,22.836 -7.134,22.948C-7.346,23.06 -7.582,23.174 -7.842,23.29C-8.102,23.406 -8.36,23.51 -8.616,23.602C-8.872,23.694 -9.076,23.74 -9.228,23.74C-9.412,23.74 -9.538,23.696 -9.606,23.608C-9.674,23.52 -9.708,23.428 -9.708,23.332C-9.708,23.268 -9.698,23.188 -9.678,23.092C-9.658,22.996 -9.632,22.84 -9.6,22.624C-9.568,22.392 -9.538,22.12 -9.51,21.808C-9.482,21.496 -9.468,21.16 -9.468,20.8C-9.468,20.096 -9.598,19.562 -9.858,19.198C-10.118,18.834 -10.444,18.652 -10.836,18.652C-11.084,18.652 -11.304,18.7 -11.496,18.796C-11.688,18.892 -11.852,19.022 -11.988,19.186C-12.124,19.35 -12.232,19.538 -12.312,19.75C-12.392,19.962 -12.444,20.188 -12.468,20.428Z" style="fill-rule:nonzero;"/>
        </g>
        <g transform="matrix(1,0,0,1,52.7595,-3.99815)">
            <text x="-39.144px" y="23.596px" style="font-family:'Luminari-Regular', 'Luminari';font-size:12px;">CV In</text>
        </g>
    </g>
</svg>
