<?xml version="1.0" encoding="UTF-8" standalone="no"?>
<!DOCTYPE svg PUBLIC "-//W3C//DTD SVG 1.1//EN" "http://www.w3.org/Graphics/SVG/1.1/DTD/svg11.dtd">
<svg width="100%" height="100%" viewBox="0 0 90 380" version="1.1" xmlns="http://www.w3.org/2000/svg" xmlns:xlink="http://www.w3.org/1999/xlink" xml:space="preserve" xmlns:serif="http://www.serif.com/" style="fill-rule:evenodd;clip-rule:evenodd;stroke-linecap:round;stroke-linejoin:round;stroke-miterlimit:1.5;">
    <g transform="matrix(0.75,0,0,1,-43.7392,183.538)">
        <g transform="matrix(0.7112,0,0,72.8139,48.976,-21717.6)">
            <rect x="13.921" y="296.737" width="168.729" height="3.935" style="fill:rgb(191,191,191);"/>
        </g>
        <g transform="matrix(3.30333,0,0,0.695794,-476.123,112.334)">
            <g id="Bit8">
                <rect x="161.957" y="57.989" width="36.327" height="2.261"/>
            </g>
        </g>
        <g transform="matrix(3.30333,0,0,0.695794,-476.123,78.6945)">
            <g id="Bit7">
                <rect x="161.957" y="57.989" width="36.327" height="2.261"/>
            </g>
        </g>
        <g transform="matrix(3.30333,0,0,0.695794,-476.123,43.3266)">
            <g id="Bit6">
                <rect x="161.957" y="57.989" width="36.327" height="2.261"/>
            </g>
        </g>
        <g transform="matrix(3.30333,0,0,0.695794,-476.123,8.01938)">
            <g id="Bit5">
                <rect x="161.957" y="57.989" width="36.327" height="2.261"/>
            </g>
        </g>
        <g transform="matrix(3.30333,0,0,0.695794,-476.123,-60.2029)">
            <g id="Bit4">
                <rect x="161.957" y="57.989" width="36.327" height="2.261"/>
            </g>
        </g>
        <g transform="matrix(3.30333,0,0,0.695794,-476.123,-25.4274)">
            <g id="Bit3">
                <rect x="161.957" y="57.989" width="36.327" height="2.261"/>
            </g>
        </g>
        <g transform="matrix(3.30333,0,0,0.695794,-476.123,-94.5002)">
            <g id="Bit2">
                <rect x="161.957" y="57.989" width="36.327" height="2.261"/>
            </g>
        </g>
        <g transform="matrix(3.30333,0,0,0.695794,-476.123,-130.158)">
            <g id="Bit1">
                <rect x="161.957" y="57.989" width="36.327" height="2.261"/>
            </g>
        </g>
    </g>
    <g transform="matrix(1,0,0,1,3.91941,9.73376)">
        <g id="Scan-input-P" serif:id="Scan#input$P" transform="matrix(0.175002,0,0,0.175002,17.4678,277.681)">
            <rect x="53.94" y="106.916" width="161.978" height="161.978" style="fill:rgb(217,217,217);"/>
        </g>
        <g transform="matrix(1,0,0,1,-55.8931,172.009)">
            <g transform="matrix(10,0,0,10,90.0979,118.306)">
                <path d="M0.227,-0.365C0.226,-0.382 0.221,-0.395 0.211,-0.404C0.2,-0.413 0.188,-0.417 0.175,-0.417C0.159,-0.417 0.147,-0.412 0.138,-0.402C0.129,-0.391 0.125,-0.379 0.125,-0.366C0.125,-0.357 0.127,-0.347 0.132,-0.339C0.137,-0.33 0.149,-0.321 0.168,-0.314L0.228,-0.29C0.266,-0.275 0.292,-0.255 0.307,-0.23C0.321,-0.205 0.328,-0.177 0.328,-0.147C0.328,-0.126 0.324,-0.106 0.317,-0.088C0.309,-0.069 0.298,-0.053 0.285,-0.039C0.272,-0.025 0.256,-0.014 0.237,-0.006C0.218,0.002 0.198,0.006 0.176,0.006C0.135,0.006 0.1,-0.007 0.072,-0.033C0.058,-0.046 0.047,-0.062 0.038,-0.081C0.029,-0.099 0.025,-0.122 0.024,-0.147L0.12,-0.147C0.122,-0.133 0.127,-0.12 0.135,-0.108C0.142,-0.096 0.156,-0.09 0.175,-0.09C0.19,-0.09 0.203,-0.095 0.215,-0.105C0.226,-0.114 0.232,-0.128 0.232,-0.145C0.232,-0.159 0.228,-0.171 0.221,-0.181C0.214,-0.191 0.2,-0.2 0.181,-0.207L0.132,-0.225C0.1,-0.237 0.075,-0.255 0.057,-0.279C0.038,-0.302 0.029,-0.331 0.029,-0.365C0.029,-0.386 0.033,-0.406 0.041,-0.425C0.049,-0.443 0.06,-0.459 0.074,-0.472C0.087,-0.485 0.103,-0.496 0.121,-0.503C0.139,-0.51 0.158,-0.513 0.179,-0.513C0.2,-0.513 0.219,-0.509 0.237,-0.502C0.254,-0.495 0.269,-0.484 0.282,-0.471C0.295,-0.458 0.305,-0.442 0.312,-0.424C0.319,-0.405 0.323,-0.386 0.323,-0.365L0.227,-0.365Z" style="fill-rule:nonzero;"/>
            </g>
            <g transform="matrix(10,0,0,10,93.6179,118.306)">
                <path d="M0.15,-0.146C0.15,-0.13 0.155,-0.118 0.164,-0.109C0.172,-0.1 0.185,-0.096 0.2,-0.096C0.219,-0.096 0.232,-0.102 0.239,-0.113C0.245,-0.124 0.249,-0.136 0.25,-0.147L0.352,-0.147C0.352,-0.102 0.338,-0.066 0.311,-0.039C0.298,-0.025 0.282,-0.014 0.263,-0.006C0.244,0.002 0.223,0.006 0.2,0.006C0.168,0.006 0.141,-0.001 0.119,-0.014C0.096,-0.027 0.079,-0.045 0.067,-0.067C0.06,-0.08 0.055,-0.096 0.052,-0.113C0.049,-0.13 0.048,-0.149 0.048,-0.17L0.048,-0.337C0.048,-0.358 0.049,-0.377 0.052,-0.394C0.055,-0.411 0.06,-0.427 0.067,-0.44C0.079,-0.462 0.096,-0.48 0.119,-0.493C0.141,-0.506 0.168,-0.513 0.2,-0.513C0.223,-0.513 0.245,-0.509 0.264,-0.501C0.282,-0.493 0.299,-0.482 0.312,-0.468C0.339,-0.438 0.352,-0.399 0.352,-0.351L0.25,-0.351C0.25,-0.372 0.246,-0.387 0.237,-0.397C0.228,-0.406 0.215,-0.411 0.2,-0.411C0.185,-0.411 0.172,-0.406 0.164,-0.397C0.155,-0.387 0.15,-0.372 0.15,-0.353L0.15,-0.146Z" style="fill-rule:nonzero;"/>
            </g>
            <g transform="matrix(10,0,0,10,97.3179,118.306)">
                <path d="M0.235,-0L0.235,-0.052L0.233,-0.052C0.22,-0.033 0.206,-0.019 0.193,-0.009C0.179,0.001 0.16,0.006 0.135,0.006C0.123,0.006 0.111,0.004 0.099,0.001C0.086,-0.003 0.074,-0.01 0.063,-0.02C0.052,-0.029 0.043,-0.043 0.036,-0.061C0.029,-0.078 0.025,-0.101 0.025,-0.129C0.025,-0.158 0.027,-0.183 0.032,-0.205C0.037,-0.226 0.045,-0.244 0.058,-0.259C0.07,-0.273 0.086,-0.284 0.107,-0.291C0.128,-0.298 0.154,-0.301 0.186,-0.301L0.197,-0.301C0.201,-0.301 0.205,-0.301 0.208,-0.3C0.211,-0.299 0.215,-0.299 0.22,-0.299C0.225,-0.299 0.23,-0.299 0.235,-0.298L0.235,-0.351C0.235,-0.368 0.231,-0.383 0.224,-0.394C0.217,-0.405 0.203,-0.411 0.184,-0.411C0.171,-0.411 0.159,-0.407 0.148,-0.398C0.136,-0.389 0.129,-0.377 0.126,-0.36L0.027,-0.36C0.03,-0.405 0.045,-0.442 0.073,-0.47C0.086,-0.483 0.102,-0.494 0.121,-0.502C0.14,-0.509 0.161,-0.513 0.184,-0.513C0.205,-0.513 0.225,-0.51 0.244,-0.503C0.263,-0.496 0.279,-0.486 0.293,-0.473C0.306,-0.46 0.317,-0.443 0.325,-0.423C0.333,-0.403 0.337,-0.38 0.337,-0.353L0.337,-0L0.235,-0ZM0.235,-0.218C0.224,-0.22 0.214,-0.221 0.207,-0.221C0.185,-0.221 0.166,-0.216 0.151,-0.206C0.135,-0.195 0.127,-0.176 0.127,-0.149C0.127,-0.13 0.132,-0.114 0.141,-0.102C0.15,-0.09 0.163,-0.084 0.18,-0.084C0.197,-0.084 0.211,-0.09 0.221,-0.101C0.23,-0.112 0.235,-0.128 0.235,-0.149L0.235,-0.218Z" style="fill-rule:nonzero;"/>
            </g>
            <g transform="matrix(10,0,0,10,101.018,118.306)">
                <path d="M0.042,-0L0.042,-0.507L0.144,-0.507L0.144,-0.458L0.146,-0.458C0.157,-0.474 0.169,-0.487 0.185,-0.498C0.2,-0.508 0.219,-0.513 0.242,-0.513C0.255,-0.513 0.267,-0.511 0.28,-0.507C0.293,-0.502 0.304,-0.495 0.314,-0.485C0.324,-0.475 0.332,-0.462 0.338,-0.447C0.344,-0.431 0.347,-0.412 0.347,-0.389L0.347,-0L0.245,-0L0.245,-0.351C0.245,-0.37 0.241,-0.384 0.232,-0.395C0.223,-0.406 0.211,-0.411 0.195,-0.411C0.176,-0.411 0.162,-0.405 0.155,-0.393C0.148,-0.381 0.144,-0.364 0.144,-0.341L0.144,-0L0.042,-0Z" style="fill-rule:nonzero;"/>
            </g>
        </g>
    </g>
    <g transform="matrix(1,0,0,1,-52.7711,121.78)">
        <g id="Down-button" serif:id="Down#button" transform="matrix(0.758898,0,0,0.758898,55.9693,-100.103)">
            <circle cx="55.661" cy="308.513" r="7.929"/>
        </g>
        <g id="Bank-lcd-3" serif:id="Bank#lcd$3" transform="matrix(0.77953,0,0,0.846667,-61.704,-147.791)">
            <rect x="173.071" y="291.218" width="64.141" height="28.346" style="fill:rgb(13,13,13);"/>
        </g>
        <g id="Up-button" serif:id="Up#button" transform="matrix(0.758898,0,0,0.758898,55.9693,-145.612)">
            <circle cx="55.661" cy="308.513" r="7.929"/>
        </g>
        <g transform="matrix(1,0,0,1,1.15238,-44.1074)">
            <g transform="matrix(10,0,0,10,89.8179,118.306)">
                <path d="M0.042,-0L0.042,-0.712L0.144,-0.712L0.144,-0.461L0.146,-0.461C0.157,-0.478 0.171,-0.491 0.187,-0.5C0.202,-0.509 0.22,-0.513 0.24,-0.513C0.265,-0.513 0.284,-0.509 0.298,-0.5C0.311,-0.491 0.322,-0.48 0.331,-0.467C0.338,-0.456 0.342,-0.442 0.344,-0.425C0.346,-0.408 0.347,-0.381 0.347,-0.344L0.347,-0.151C0.347,-0.123 0.346,-0.101 0.343,-0.084C0.34,-0.067 0.336,-0.053 0.33,-0.042C0.313,-0.01 0.283,0.006 0.241,0.006C0.216,0.006 0.196,0.001 0.183,-0.009C0.17,-0.019 0.157,-0.031 0.144,-0.046L0.144,-0L0.042,-0ZM0.245,-0.351C0.245,-0.367 0.242,-0.381 0.235,-0.393C0.228,-0.405 0.214,-0.411 0.195,-0.411C0.18,-0.411 0.168,-0.406 0.159,-0.396C0.149,-0.385 0.144,-0.372 0.144,-0.356L0.144,-0.159C0.144,-0.14 0.149,-0.125 0.158,-0.114C0.167,-0.102 0.18,-0.096 0.195,-0.096C0.212,-0.096 0.225,-0.102 0.233,-0.115C0.241,-0.128 0.245,-0.144 0.245,-0.165L0.245,-0.351Z" style="fill-rule:nonzero;"/>
            </g>
            <g transform="matrix(10,0,0,10,93.7079,118.306)">
                <path d="M0.235,-0L0.235,-0.052L0.233,-0.052C0.22,-0.033 0.206,-0.019 0.193,-0.009C0.179,0.001 0.16,0.006 0.135,0.006C0.123,0.006 0.111,0.004 0.099,0.001C0.086,-0.003 0.074,-0.01 0.063,-0.02C0.052,-0.029 0.043,-0.043 0.036,-0.061C0.029,-0.078 0.025,-0.101 0.025,-0.129C0.025,-0.158 0.027,-0.183 0.032,-0.205C0.037,-0.226 0.045,-0.244 0.058,-0.259C0.07,-0.273 0.086,-0.284 0.107,-0.291C0.128,-0.298 0.154,-0.301 0.186,-0.301L0.197,-0.301C0.201,-0.301 0.205,-0.301 0.208,-0.3C0.211,-0.299 0.215,-0.299 0.22,-0.299C0.225,-0.299 0.23,-0.299 0.235,-0.298L0.235,-0.351C0.235,-0.368 0.231,-0.383 0.224,-0.394C0.217,-0.405 0.203,-0.411 0.184,-0.411C0.171,-0.411 0.159,-0.407 0.148,-0.398C0.136,-0.389 0.129,-0.377 0.126,-0.36L0.027,-0.36C0.03,-0.405 0.045,-0.442 0.073,-0.47C0.086,-0.483 0.102,-0.494 0.121,-0.502C0.14,-0.509 0.161,-0.513 0.184,-0.513C0.205,-0.513 0.225,-0.51 0.244,-0.503C0.263,-0.496 0.279,-0.486 0.293,-0.473C0.306,-0.46 0.317,-0.443 0.325,-0.423C0.333,-0.403 0.337,-0.38 0.337,-0.353L0.337,-0L0.235,-0ZM0.235,-0.218C0.224,-0.22 0.214,-0.221 0.207,-0.221C0.185,-0.221 0.166,-0.216 0.151,-0.206C0.135,-0.195 0.127,-0.176 0.127,-0.149C0.127,-0.13 0.132,-0.114 0.141,-0.102C0.15,-0.09 0.163,-0.084 0.18,-0.084C0.197,-0.084 0.211,-0.09 0.221,-0.101C0.23,-0.112 0.235,-0.128 0.235,-0.149L0.235,-0.218Z" style="fill-rule:nonzero;"/>
            </g>
            <g transform="matrix(10,0,0,10,97.4079,118.306)">
                <path d="M0.042,-0L0.042,-0.507L0.144,-0.507L0.144,-0.458L0.146,-0.458C0.157,-0.474 0.169,-0.487 0.185,-0.498C0.2,-0.508 0.219,-0.513 0.242,-0.513C0.255,-0.513 0.267,-0.511 0.28,-0.507C0.293,-0.502 0.304,-0.495 0.314,-0.485C0.324,-0.475 0.332,-0.462 0.338,-0.447C0.344,-0.431 0.347,-0.412 0.347,-0.389L0.347,-0L0.245,-0L0.245,-0.351C0.245,-0.37 0.241,-0.384 0.232,-0.395C0.223,-0.406 0.211,-0.411 0.195,-0.411C0.176,-0.411 0.162,-0.405 0.155,-0.393C0.148,-0.381 0.144,-0.364 0.144,-0.341L0.144,-0L0.042,-0Z" style="fill-rule:nonzero;"/>
            </g>
            <g transform="matrix(10,0,0,10,101.298,118.306)">
                <path d="M0.042,-0L0.042,-0.712L0.144,-0.712L0.144,-0.286L0.146,-0.286L0.269,-0.507L0.371,-0.507L0.25,-0.301L0.396,-0L0.285,-0L0.193,-0.219L0.144,-0.142L0.144,-0L0.042,-0Z" style="fill-rule:nonzero;"/>
            </g>
        </g>
    </g>
    <g transform="matrix(1,0,0,1,-0.418,-126.291)">
        <g id="Mix-slider" serif:id="Mix#slider" transform="matrix(0.0833124,0,0,3.87469,31.672,-483.418)">
            <rect x="92.975" y="182.872" width="144.036" height="20.647" style="fill:rgb(217,217,217);"/>
        </g>
        <g transform="matrix(1,0,0,1,-51.9949,99.1411)">
            <g transform="matrix(10,0,0,10,91.9529,118.306)">
                <path d="M0.042,-0L0.042,-0.507L0.144,-0.507L0.144,-0.458L0.146,-0.458C0.157,-0.474 0.169,-0.487 0.185,-0.498C0.2,-0.508 0.219,-0.513 0.242,-0.513C0.264,-0.513 0.282,-0.508 0.297,-0.497C0.312,-0.486 0.324,-0.475 0.333,-0.462C0.346,-0.476 0.36,-0.488 0.375,-0.498C0.39,-0.508 0.412,-0.513 0.439,-0.513C0.452,-0.513 0.465,-0.511 0.478,-0.507C0.491,-0.502 0.503,-0.495 0.514,-0.485C0.525,-0.475 0.533,-0.462 0.54,-0.447C0.547,-0.431 0.55,-0.412 0.55,-0.389L0.55,-0L0.448,-0L0.448,-0.351C0.448,-0.37 0.444,-0.384 0.435,-0.395C0.426,-0.406 0.414,-0.411 0.398,-0.411C0.379,-0.411 0.365,-0.405 0.358,-0.393C0.351,-0.381 0.347,-0.364 0.347,-0.341L0.347,-0L0.245,-0L0.245,-0.351C0.245,-0.37 0.241,-0.384 0.232,-0.395C0.223,-0.406 0.211,-0.411 0.195,-0.411C0.176,-0.411 0.162,-0.405 0.155,-0.393C0.148,-0.381 0.144,-0.364 0.144,-0.341L0.144,-0L0.042,-0Z" style="fill-rule:nonzero;"/>
            </g>
            <g transform="matrix(10,0,0,10,97.8729,118.306)">
                <path d="M0.042,-0L0.042,-0.507L0.144,-0.507L0.144,-0L0.042,-0ZM0.042,-0.61L0.042,-0.712L0.144,-0.712L0.144,-0.61L0.042,-0.61Z" style="fill-rule:nonzero;"/>
            </g>
            <g transform="matrix(10,0,0,10,99.7329,118.306)">
                <path d="M-0.011,-0L0.114,-0.259L-0.005,-0.507L0.103,-0.507L0.166,-0.363L0.229,-0.507L0.337,-0.507L0.216,-0.259L0.343,-0L0.235,-0L0.166,-0.155L0.097,-0L-0.011,-0Z" style="fill-rule:nonzero;"/>
            </g>
        </g>
    </g>
    <g transform="matrix(1,0,0,1,-13.1943,-332.812)">
        <g id="BusIn-led" serif:id="BusIn#led" transform="matrix(1,0,0,1,-19.0543,43.7203)">
            <circle cx="42.167" cy="335.861" r="3.82" style="fill:rgb(230,230,230);"/>
        </g>
        <g id="BusOut-led" serif:id="BusOut#led" transform="matrix(1,0,0,1,50.9457,43.7203)">
            <circle cx="42.167" cy="335.861" r="3.82" style="fill:rgb(230,230,230);"/>
        </g>
        <g transform="matrix(1,0,0,1,62.3138,346.656)">
            <g transform="matrix(12,0,0,12,-28.1455,23.5957)">
                <path d="M0.254,-0.219C0.254,-0.185 0.255,-0.152 0.256,-0.12C0.257,-0.087 0.261,-0.061 0.267,-0.041C0.279,-0.034 0.293,-0.029 0.308,-0.028C0.323,-0.026 0.337,-0.025 0.35,-0.024C0.363,-0.023 0.375,-0.022 0.384,-0.02C0.393,-0.018 0.397,-0.014 0.397,-0.007C0.397,-0.004 0.395,-0.001 0.392,0.002C0.389,0.004 0.383,0.005 0.376,0.005C0.357,0.006 0.33,0.005 0.297,0.003C0.264,0 0.226,-0.001 0.183,-0.001C0.128,-0.001 0.087,0.001 0.06,0.005C0.032,0.008 0.015,0.01 0.01,0.01C0.005,0.01 0.001,0.009 -0.002,0.007C-0.005,0.004 -0.007,0.001 -0.007,-0.003C-0.007,-0.012 -0.003,-0.016 0.005,-0.017C0.013,-0.018 0.028,-0.02 0.05,-0.023C0.065,-0.024 0.077,-0.026 0.086,-0.029C0.095,-0.031 0.105,-0.034 0.114,-0.037C0.118,-0.052 0.121,-0.067 0.124,-0.082C0.127,-0.097 0.129,-0.117 0.131,-0.14C0.133,-0.163 0.135,-0.191 0.136,-0.226C0.137,-0.26 0.137,-0.304 0.137,-0.358C0.137,-0.407 0.137,-0.449 0.136,-0.484C0.135,-0.518 0.134,-0.547 0.133,-0.57C0.131,-0.592 0.129,-0.611 0.128,-0.624C0.126,-0.637 0.124,-0.648 0.122,-0.655C0.113,-0.661 0.102,-0.665 0.088,-0.667C0.074,-0.668 0.06,-0.67 0.047,-0.671C0.034,-0.672 0.022,-0.673 0.013,-0.675C0.003,-0.677 -0.002,-0.682 -0.002,-0.689C-0.002,-0.698 0.003,-0.702 0.014,-0.702C0.026,-0.702 0.047,-0.701 0.076,-0.698C0.105,-0.695 0.14,-0.693 0.182,-0.693C0.189,-0.693 0.194,-0.694 0.198,-0.696C0.205,-0.699 0.215,-0.704 0.23,-0.71C0.245,-0.716 0.262,-0.722 0.281,-0.728C0.3,-0.734 0.321,-0.739 0.343,-0.744C0.364,-0.749 0.385,-0.751 0.406,-0.751C0.439,-0.751 0.471,-0.747 0.501,-0.74C0.531,-0.732 0.557,-0.72 0.58,-0.705C0.602,-0.69 0.62,-0.671 0.633,-0.648C0.646,-0.625 0.653,-0.599 0.653,-0.569C0.653,-0.54 0.646,-0.513 0.633,-0.488C0.619,-0.462 0.602,-0.44 0.581,-0.419C0.56,-0.398 0.538,-0.381 0.513,-0.366C0.488,-0.351 0.465,-0.339 0.444,-0.33C0.471,-0.33 0.497,-0.327 0.522,-0.322C0.546,-0.316 0.568,-0.308 0.588,-0.298C0.607,-0.287 0.624,-0.275 0.637,-0.26C0.65,-0.245 0.658,-0.229 0.662,-0.21C0.662,-0.201 0.661,-0.195 0.66,-0.192C0.658,-0.189 0.655,-0.184 0.65,-0.177C0.663,-0.156 0.678,-0.13 0.695,-0.102C0.711,-0.073 0.729,-0.045 0.75,-0.019C0.77,0.008 0.793,0.03 0.818,0.049C0.842,0.067 0.87,0.076 0.901,0.076C0.907,0.076 0.914,0.076 0.922,0.075C0.929,0.074 0.937,0.073 0.944,0.071C0.951,0.069 0.957,0.066 0.963,0.062C0.969,0.058 0.973,0.053 0.976,0.046C0.979,0.044 0.981,0.043 0.984,0.043C0.987,0.043 0.99,0.045 0.991,0.048C0.991,0.051 0.992,0.055 0.993,0.058C0.98,0.088 0.947,0.103 0.894,0.103C0.867,0.103 0.842,0.099 0.818,0.09C0.793,0.081 0.77,0.07 0.748,0.056C0.725,0.041 0.704,0.025 0.684,0.006C0.663,-0.013 0.644,-0.032 0.626,-0.052C0.613,-0.067 0.597,-0.085 0.58,-0.107C0.562,-0.129 0.543,-0.152 0.523,-0.175C0.503,-0.198 0.482,-0.219 0.461,-0.24C0.439,-0.26 0.417,-0.276 0.396,-0.287C0.386,-0.292 0.375,-0.295 0.362,-0.298C0.349,-0.3 0.337,-0.302 0.326,-0.303C0.314,-0.304 0.303,-0.304 0.293,-0.304L0.27,-0.304L0.254,-0.303L0.254,-0.219ZM0.271,-0.64C0.268,-0.627 0.265,-0.61 0.263,-0.587C0.261,-0.564 0.259,-0.54 0.258,-0.513C0.257,-0.486 0.256,-0.458 0.255,-0.429C0.254,-0.4 0.254,-0.372 0.254,-0.346C0.261,-0.341 0.274,-0.338 0.293,-0.337C0.312,-0.336 0.332,-0.336 0.354,-0.336C0.373,-0.336 0.39,-0.338 0.403,-0.341C0.416,-0.344 0.428,-0.35 0.439,-0.359C0.446,-0.364 0.453,-0.371 0.462,-0.382C0.47,-0.393 0.478,-0.405 0.486,-0.42C0.493,-0.435 0.5,-0.451 0.505,-0.47C0.51,-0.488 0.513,-0.507 0.513,-0.528C0.513,-0.558 0.51,-0.585 0.503,-0.609C0.496,-0.632 0.487,-0.653 0.476,-0.67C0.465,-0.687 0.451,-0.7 0.436,-0.709C0.421,-0.717 0.404,-0.722 0.387,-0.722C0.378,-0.722 0.367,-0.72 0.356,-0.717C0.344,-0.713 0.332,-0.708 0.321,-0.702C0.31,-0.696 0.3,-0.689 0.291,-0.682C0.282,-0.674 0.277,-0.666 0.274,-0.657L0.271,-0.64Z" style="fill-rule:nonzero;"/>
            </g>
            <g transform="matrix(12,0,0,12,-19.1215,23.5957)">
                <path d="M0.359,-0.156C0.357,-0.167 0.355,-0.18 0.353,-0.193C0.351,-0.206 0.349,-0.219 0.347,-0.231C0.345,-0.243 0.343,-0.253 0.342,-0.262C0.34,-0.271 0.339,-0.276 0.338,-0.279C0.327,-0.275 0.315,-0.27 0.302,-0.265C0.289,-0.26 0.275,-0.254 0.262,-0.248C0.249,-0.241 0.236,-0.235 0.224,-0.229C0.212,-0.222 0.202,-0.216 0.194,-0.211C0.179,-0.201 0.167,-0.191 0.159,-0.181C0.151,-0.171 0.147,-0.159 0.147,-0.145C0.147,-0.126 0.153,-0.109 0.164,-0.094C0.175,-0.079 0.193,-0.072 0.217,-0.072C0.23,-0.072 0.243,-0.074 0.257,-0.079C0.27,-0.084 0.283,-0.089 0.295,-0.095C0.306,-0.101 0.316,-0.107 0.325,-0.113C0.334,-0.119 0.34,-0.124 0.343,-0.127C0.348,-0.132 0.353,-0.137 0.356,-0.141C0.359,-0.144 0.36,-0.149 0.359,-0.156ZM0.33,-0.311C0.326,-0.332 0.321,-0.35 0.316,-0.367C0.311,-0.383 0.304,-0.397 0.296,-0.408C0.288,-0.419 0.278,-0.427 0.267,-0.433C0.256,-0.438 0.242,-0.441 0.225,-0.441C0.21,-0.441 0.197,-0.438 0.185,-0.433C0.172,-0.428 0.162,-0.421 0.153,-0.414C0.143,-0.407 0.137,-0.399 0.132,-0.392C0.127,-0.385 0.124,-0.379 0.123,-0.375C0.122,-0.37 0.119,-0.367 0.114,-0.367C0.105,-0.367 0.096,-0.37 0.088,-0.377C0.08,-0.384 0.076,-0.392 0.076,-0.401C0.076,-0.406 0.077,-0.41 0.078,-0.413C0.093,-0.422 0.112,-0.431 0.134,-0.441C0.156,-0.451 0.179,-0.46 0.203,-0.469C0.226,-0.478 0.25,-0.485 0.273,-0.491C0.296,-0.496 0.317,-0.499 0.336,-0.499C0.364,-0.499 0.386,-0.495 0.401,-0.487C0.416,-0.479 0.427,-0.468 0.434,-0.453C0.441,-0.438 0.446,-0.421 0.448,-0.402C0.449,-0.382 0.451,-0.361 0.452,-0.338C0.454,-0.304 0.457,-0.271 0.46,-0.24C0.463,-0.208 0.468,-0.18 0.475,-0.156C0.482,-0.131 0.49,-0.112 0.501,-0.097C0.511,-0.082 0.524,-0.074 0.539,-0.074C0.546,-0.074 0.554,-0.075 0.563,-0.078C0.572,-0.081 0.58,-0.084 0.588,-0.088C0.596,-0.091 0.603,-0.095 0.61,-0.099C0.616,-0.102 0.62,-0.105 0.622,-0.106C0.628,-0.106 0.632,-0.103 0.633,-0.097C0.633,-0.094 0.632,-0.091 0.631,-0.088C0.63,-0.087 0.625,-0.083 0.616,-0.078C0.607,-0.073 0.597,-0.066 0.584,-0.059C0.571,-0.052 0.557,-0.044 0.542,-0.036C0.527,-0.027 0.511,-0.019 0.497,-0.012C0.482,-0.005 0.468,0.001 0.455,0.006C0.442,0.011 0.432,0.013 0.425,0.013C0.416,0.013 0.409,0.01 0.403,0.003C0.396,-0.005 0.391,-0.014 0.386,-0.026C0.381,-0.037 0.377,-0.051 0.374,-0.066C0.371,-0.081 0.368,-0.097 0.365,-0.114C0.353,-0.104 0.338,-0.092 0.319,-0.079C0.3,-0.065 0.28,-0.052 0.258,-0.04C0.236,-0.028 0.214,-0.018 0.191,-0.01C0.167,-0.001 0.145,0.003 0.124,0.003C0.106,0.003 0.09,0 0.077,-0.006C0.064,-0.011 0.053,-0.019 0.044,-0.028C0.035,-0.037 0.028,-0.048 0.024,-0.061C0.019,-0.073 0.017,-0.086 0.017,-0.099C0.017,-0.12 0.024,-0.138 0.037,-0.152C0.049,-0.165 0.07,-0.179 0.097,-0.194C0.11,-0.201 0.127,-0.21 0.15,-0.221C0.173,-0.232 0.196,-0.243 0.22,-0.254C0.243,-0.265 0.265,-0.276 0.286,-0.287C0.306,-0.297 0.321,-0.305 0.33,-0.311Z" style="fill-rule:nonzero;"/>
            </g>
            <g transform="matrix(12,0,0,12,-12.5215,23.5957)">
                <path d="M0.193,-0.264C0.192,-0.258 0.192,-0.253 0.191,-0.248C0.19,-0.243 0.19,-0.238 0.19,-0.232C0.189,-0.226 0.189,-0.219 0.189,-0.21C0.188,-0.201 0.188,-0.189 0.188,-0.174C0.188,-0.15 0.189,-0.13 0.191,-0.115C0.192,-0.1 0.195,-0.088 0.198,-0.079C0.201,-0.07 0.206,-0.063 0.211,-0.06C0.216,-0.057 0.222,-0.055 0.229,-0.055C0.234,-0.055 0.239,-0.056 0.244,-0.057C0.245,-0.057 0.247,-0.055 0.248,-0.052C0.249,-0.048 0.248,-0.045 0.247,-0.044C0.243,-0.041 0.235,-0.036 0.224,-0.03C0.212,-0.023 0.199,-0.017 0.184,-0.011C0.169,-0.005 0.154,0 0.139,0.005C0.123,0.01 0.11,0.012 0.099,0.012C0.09,0.012 0.082,0.011 0.077,0.009C0.072,0.006 0.069,0.003 0.069,-0C0.069,-0.003 0.069,-0.005 0.07,-0.006C0.071,-0.007 0.072,-0.008 0.073,-0.011C0.074,-0.014 0.075,-0.019 0.076,-0.024C0.077,-0.028 0.078,-0.034 0.079,-0.041C0.08,-0.05 0.082,-0.062 0.083,-0.077C0.084,-0.091 0.086,-0.107 0.087,-0.124C0.088,-0.14 0.089,-0.158 0.091,-0.177C0.091,-0.195 0.092,-0.213 0.092,-0.23C0.092,-0.237 0.092,-0.247 0.092,-0.258C0.091,-0.269 0.091,-0.283 0.09,-0.3C0.089,-0.319 0.087,-0.336 0.084,-0.35C0.08,-0.363 0.075,-0.374 0.07,-0.383C0.064,-0.391 0.057,-0.397 0.051,-0.401C0.044,-0.405 0.037,-0.407 0.03,-0.407L0.02,-0.407C0.017,-0.407 0.013,-0.407 0.01,-0.406C0.007,-0.406 0.006,-0.409 0.006,-0.415C0.006,-0.416 0.007,-0.418 0.008,-0.419C0.009,-0.42 0.012,-0.422 0.017,-0.425C0.026,-0.431 0.037,-0.438 0.052,-0.447C0.067,-0.456 0.082,-0.464 0.097,-0.471C0.112,-0.478 0.127,-0.485 0.141,-0.49C0.154,-0.495 0.165,-0.498 0.172,-0.498C0.191,-0.498 0.201,-0.487 0.201,-0.465L0.199,-0.421L0.196,-0.379C0.21,-0.392 0.225,-0.406 0.241,-0.42C0.257,-0.434 0.274,-0.447 0.293,-0.459C0.312,-0.47 0.331,-0.48 0.352,-0.487C0.373,-0.494 0.394,-0.498 0.416,-0.498C0.456,-0.498 0.489,-0.487 0.515,-0.464C0.54,-0.44 0.553,-0.404 0.553,-0.354C0.553,-0.341 0.552,-0.325 0.551,-0.307C0.549,-0.289 0.547,-0.27 0.545,-0.251C0.543,-0.232 0.541,-0.213 0.54,-0.194C0.538,-0.175 0.537,-0.159 0.537,-0.144C0.537,-0.091 0.554,-0.064 0.589,-0.064C0.596,-0.064 0.603,-0.065 0.612,-0.068C0.62,-0.07 0.628,-0.073 0.636,-0.076C0.643,-0.079 0.65,-0.082 0.656,-0.085C0.662,-0.088 0.666,-0.09 0.668,-0.092C0.669,-0.093 0.67,-0.092 0.671,-0.091C0.672,-0.089 0.672,-0.087 0.673,-0.084C0.674,-0.081 0.674,-0.079 0.674,-0.077C0.673,-0.075 0.673,-0.074 0.672,-0.073C0.667,-0.07 0.655,-0.063 0.638,-0.054C0.62,-0.045 0.6,-0.035 0.579,-0.026C0.557,-0.016 0.535,-0.007 0.514,0.001C0.493,0.008 0.476,0.012 0.463,0.012C0.448,0.012 0.437,0.008 0.432,0.001C0.426,-0.006 0.423,-0.014 0.423,-0.022C0.423,-0.027 0.424,-0.034 0.426,-0.042C0.427,-0.05 0.429,-0.063 0.432,-0.081C0.435,-0.1 0.437,-0.123 0.44,-0.149C0.442,-0.175 0.443,-0.203 0.443,-0.233C0.443,-0.292 0.432,-0.336 0.411,-0.367C0.389,-0.397 0.362,-0.412 0.329,-0.412C0.308,-0.412 0.29,-0.408 0.274,-0.4C0.258,-0.392 0.244,-0.381 0.233,-0.368C0.222,-0.354 0.213,-0.338 0.206,-0.321C0.199,-0.303 0.195,-0.284 0.193,-0.264Z" style="fill-rule:nonzero;"/>
            </g>
            <g transform="matrix(12,0,0,12,-5.02154,23.5957)">
                <path d="M0.411,-0.08C0.405,-0.074 0.395,-0.066 0.382,-0.056C0.369,-0.046 0.353,-0.036 0.335,-0.027C0.317,-0.017 0.298,-0.009 0.277,-0.002C0.256,0.006 0.234,0.009 0.213,0.009C0.191,0.009 0.169,0.004 0.147,-0.006C0.125,-0.016 0.105,-0.031 0.088,-0.05C0.07,-0.069 0.056,-0.091 0.045,-0.118C0.034,-0.145 0.029,-0.175 0.029,-0.208C0.029,-0.251 0.037,-0.291 0.052,-0.326C0.067,-0.361 0.089,-0.391 0.118,-0.416C0.147,-0.441 0.182,-0.46 0.224,-0.473C0.265,-0.486 0.313,-0.493 0.367,-0.493L0.394,-0.493C0.403,-0.493 0.411,-0.493 0.418,-0.492L0.418,-0.525C0.418,-0.54 0.418,-0.556 0.418,-0.573C0.417,-0.59 0.417,-0.605 0.417,-0.619C0.416,-0.633 0.416,-0.642 0.416,-0.645C0.413,-0.672 0.409,-0.69 0.403,-0.701C0.396,-0.712 0.383,-0.717 0.364,-0.717C0.361,-0.717 0.36,-0.72 0.36,-0.726C0.359,-0.732 0.361,-0.737 0.366,-0.74C0.371,-0.743 0.377,-0.746 0.384,-0.748C0.391,-0.749 0.401,-0.75 0.414,-0.75C0.439,-0.75 0.46,-0.75 0.478,-0.751C0.495,-0.751 0.509,-0.752 0.52,-0.753C0.531,-0.753 0.539,-0.755 0.546,-0.757C0.553,-0.758 0.558,-0.76 0.563,-0.762C0.566,-0.763 0.569,-0.762 0.572,-0.76C0.574,-0.757 0.576,-0.754 0.577,-0.751C0.578,-0.747 0.578,-0.743 0.577,-0.74C0.576,-0.737 0.574,-0.735 0.571,-0.734C0.564,-0.733 0.558,-0.731 0.555,-0.73C0.551,-0.728 0.547,-0.725 0.544,-0.72C0.541,-0.715 0.538,-0.703 0.535,-0.683C0.532,-0.663 0.53,-0.638 0.527,-0.609C0.524,-0.58 0.522,-0.547 0.52,-0.512C0.518,-0.476 0.516,-0.44 0.515,-0.404C0.514,-0.368 0.513,-0.333 0.512,-0.299C0.511,-0.265 0.51,-0.235 0.51,-0.21C0.51,-0.161 0.515,-0.126 0.526,-0.103C0.537,-0.08 0.553,-0.068 0.575,-0.068C0.583,-0.068 0.592,-0.069 0.602,-0.072C0.611,-0.075 0.62,-0.078 0.629,-0.082C0.637,-0.085 0.645,-0.089 0.652,-0.093C0.659,-0.096 0.664,-0.099 0.667,-0.102C0.67,-0.105 0.673,-0.103 0.676,-0.097C0.679,-0.091 0.678,-0.087 0.675,-0.085C0.667,-0.08 0.655,-0.074 0.638,-0.065C0.62,-0.056 0.602,-0.046 0.581,-0.036C0.556,-0.023 0.53,-0.012 0.504,-0.002C0.478,0.008 0.457,0.013 0.441,0.013C0.429,0.013 0.421,0.011 0.417,0.007C0.412,0.003 0.41,-0.003 0.41,-0.012L0.41,-0.026L0.411,-0.066L0.411,-0.08ZM0.398,-0.114C0.403,-0.121 0.407,-0.13 0.41,-0.14C0.413,-0.149 0.415,-0.162 0.416,-0.179C0.417,-0.193 0.418,-0.21 0.418,-0.231L0.418,-0.284C0.418,-0.299 0.418,-0.316 0.418,-0.333C0.417,-0.35 0.417,-0.362 0.416,-0.369C0.415,-0.38 0.41,-0.391 0.402,-0.401C0.394,-0.411 0.384,-0.42 0.371,-0.427C0.358,-0.434 0.343,-0.44 0.327,-0.445C0.31,-0.449 0.292,-0.451 0.273,-0.451C0.255,-0.451 0.238,-0.448 0.222,-0.442C0.206,-0.436 0.192,-0.426 0.181,-0.413C0.169,-0.4 0.16,-0.383 0.153,-0.362C0.146,-0.341 0.143,-0.315 0.143,-0.284C0.143,-0.253 0.147,-0.224 0.156,-0.199C0.165,-0.173 0.177,-0.151 0.192,-0.132C0.207,-0.113 0.226,-0.099 0.247,-0.089C0.268,-0.078 0.292,-0.073 0.317,-0.073C0.327,-0.073 0.336,-0.075 0.345,-0.078C0.354,-0.081 0.362,-0.084 0.369,-0.089C0.376,-0.093 0.382,-0.097 0.387,-0.102C0.392,-0.107 0.396,-0.111 0.398,-0.114Z" style="fill-rule:nonzero;"/>
            </g>
            <g transform="matrix(12,0,0,12,2.08246,23.5957)">
                <path d="M0.429,-0.08C0.422,-0.074 0.412,-0.066 0.399,-0.056C0.386,-0.046 0.372,-0.036 0.355,-0.026C0.338,-0.016 0.32,-0.008 0.3,-0.001C0.28,0.007 0.259,0.01 0.237,0.01C0.204,0.01 0.174,0.004 0.148,-0.008C0.122,-0.019 0.1,-0.035 0.083,-0.055C0.065,-0.074 0.051,-0.097 0.043,-0.124C0.034,-0.151 0.029,-0.179 0.029,-0.209C0.029,-0.244 0.034,-0.276 0.045,-0.303C0.056,-0.33 0.069,-0.354 0.085,-0.375C0.1,-0.395 0.117,-0.412 0.135,-0.426C0.153,-0.439 0.169,-0.45 0.184,-0.458C0.191,-0.462 0.199,-0.466 0.21,-0.471C0.22,-0.476 0.231,-0.48 0.244,-0.484C0.256,-0.488 0.269,-0.492 0.284,-0.495C0.298,-0.498 0.313,-0.499 0.328,-0.499C0.357,-0.499 0.385,-0.495 0.412,-0.488C0.439,-0.481 0.462,-0.469 0.483,-0.454C0.504,-0.438 0.52,-0.418 0.533,-0.393C0.546,-0.368 0.552,-0.339 0.552,-0.304C0.552,-0.276 0.547,-0.25 0.537,-0.225C0.526,-0.2 0.514,-0.178 0.5,-0.159C0.486,-0.14 0.472,-0.123 0.459,-0.11C0.445,-0.096 0.435,-0.086 0.429,-0.08ZM0.316,-0.064C0.354,-0.064 0.383,-0.078 0.404,-0.107C0.424,-0.136 0.434,-0.18 0.434,-0.239C0.434,-0.269 0.43,-0.297 0.422,-0.323C0.413,-0.348 0.402,-0.371 0.387,-0.39C0.372,-0.409 0.354,-0.424 0.334,-0.436C0.314,-0.447 0.292,-0.452 0.269,-0.452C0.252,-0.452 0.237,-0.448 0.222,-0.439C0.207,-0.43 0.193,-0.418 0.182,-0.402C0.171,-0.385 0.162,-0.365 0.155,-0.342C0.148,-0.319 0.145,-0.292 0.145,-0.263C0.145,-0.232 0.15,-0.204 0.16,-0.179C0.169,-0.154 0.182,-0.134 0.198,-0.117C0.214,-0.099 0.232,-0.087 0.253,-0.078C0.273,-0.069 0.294,-0.064 0.316,-0.064Z" style="fill-rule:nonzero;"/>
            </g>
            <g transform="matrix(12,0,0,12,8.98246,23.5957)">
                <path d="M0.966,-0.087C0.968,-0.087 0.969,-0.086 0.97,-0.084C0.971,-0.081 0.971,-0.078 0.971,-0.075C0.971,-0.072 0.97,-0.07 0.969,-0.069C0.968,-0.068 0.966,-0.066 0.965,-0.065C0.96,-0.062 0.949,-0.057 0.932,-0.048C0.914,-0.039 0.894,-0.031 0.873,-0.022C0.851,-0.013 0.83,-0.005 0.809,0.003C0.788,0.01 0.772,0.013 0.761,0.013C0.752,0.013 0.743,0.011 0.735,0.007C0.726,0.003 0.723,-0.003 0.724,-0.012C0.725,-0.017 0.727,-0.025 0.729,-0.036C0.73,-0.047 0.732,-0.06 0.733,-0.075C0.734,-0.094 0.736,-0.117 0.738,-0.142C0.739,-0.167 0.74,-0.195 0.74,-0.226C0.74,-0.262 0.738,-0.292 0.733,-0.316C0.728,-0.339 0.722,-0.358 0.713,-0.372C0.704,-0.386 0.694,-0.396 0.681,-0.402C0.668,-0.407 0.654,-0.41 0.637,-0.41C0.622,-0.41 0.609,-0.408 0.598,-0.403C0.587,-0.398 0.578,-0.392 0.57,-0.386C0.555,-0.375 0.544,-0.36 0.536,-0.343C0.527,-0.325 0.522,-0.302 0.52,-0.273C0.519,-0.266 0.519,-0.258 0.519,-0.251C0.518,-0.244 0.518,-0.236 0.518,-0.227C0.517,-0.218 0.517,-0.209 0.517,-0.198C0.516,-0.187 0.516,-0.175 0.516,-0.16C0.516,-0.121 0.519,-0.093 0.526,-0.078C0.532,-0.063 0.543,-0.055 0.558,-0.055C0.563,-0.055 0.567,-0.055 0.568,-0.056C0.569,-0.056 0.572,-0.056 0.576,-0.057C0.577,-0.056 0.579,-0.054 0.58,-0.052C0.582,-0.049 0.582,-0.045 0.579,-0.041C0.576,-0.037 0.568,-0.032 0.555,-0.026C0.542,-0.019 0.528,-0.013 0.513,-0.008C0.498,-0.003 0.483,0.002 0.468,0.006C0.453,0.01 0.442,0.012 0.435,0.012C0.426,0.012 0.417,0.011 0.41,0.009C0.402,0.006 0.398,0.003 0.398,-0C0.398,-0.004 0.399,-0.009 0.402,-0.014C0.404,-0.017 0.406,-0.025 0.408,-0.038C0.41,-0.051 0.412,-0.067 0.414,-0.087C0.415,-0.107 0.417,-0.13 0.418,-0.157C0.419,-0.183 0.42,-0.211 0.42,-0.242C0.42,-0.258 0.419,-0.276 0.418,-0.295C0.416,-0.314 0.412,-0.333 0.405,-0.35C0.398,-0.367 0.389,-0.381 0.376,-0.393C0.363,-0.404 0.345,-0.41 0.322,-0.41C0.309,-0.41 0.297,-0.408 0.286,-0.405C0.275,-0.401 0.266,-0.396 0.259,-0.391C0.244,-0.38 0.232,-0.366 0.222,-0.349C0.211,-0.332 0.204,-0.309 0.201,-0.278C0.2,-0.264 0.198,-0.25 0.197,-0.235C0.196,-0.22 0.195,-0.202 0.195,-0.183C0.195,-0.158 0.196,-0.137 0.197,-0.12C0.198,-0.103 0.201,-0.09 0.204,-0.081C0.207,-0.071 0.211,-0.064 0.216,-0.061C0.221,-0.057 0.227,-0.055 0.234,-0.055C0.241,-0.055 0.246,-0.056 0.249,-0.057C0.252,-0.058 0.255,-0.056 0.256,-0.051C0.257,-0.046 0.257,-0.042 0.255,-0.041C0.252,-0.038 0.245,-0.034 0.234,-0.029C0.223,-0.023 0.21,-0.017 0.195,-0.011C0.18,-0.005 0.165,0 0.15,0.005C0.135,0.01 0.122,0.012 0.111,0.012C0.1,0.012 0.091,0.011 0.085,0.008C0.078,0.005 0.075,0.002 0.075,-0.001C0.075,-0.002 0.076,-0.004 0.077,-0.008C0.078,-0.011 0.079,-0.014 0.08,-0.017C0.083,-0.038 0.085,-0.057 0.088,-0.075C0.09,-0.092 0.091,-0.111 0.093,-0.132C0.093,-0.153 0.094,-0.176 0.095,-0.203C0.096,-0.23 0.096,-0.262 0.096,-0.3C0.096,-0.337 0.09,-0.364 0.079,-0.381C0.067,-0.398 0.055,-0.407 0.042,-0.407C0.037,-0.407 0.032,-0.407 0.029,-0.406C0.025,-0.405 0.021,-0.404 0.018,-0.403C0.014,-0.402 0.012,-0.404 0.012,-0.409L0.012,-0.416C0.013,-0.417 0.019,-0.421 0.032,-0.43C0.045,-0.439 0.06,-0.448 0.077,-0.458C0.094,-0.468 0.112,-0.477 0.131,-0.486C0.15,-0.494 0.165,-0.498 0.177,-0.498C0.185,-0.498 0.192,-0.496 0.198,-0.491C0.203,-0.486 0.206,-0.478 0.206,-0.465C0.206,-0.459 0.206,-0.452 0.206,-0.445C0.205,-0.438 0.205,-0.43 0.205,-0.422C0.204,-0.414 0.204,-0.406 0.203,-0.399C0.202,-0.391 0.202,-0.384 0.202,-0.379C0.211,-0.388 0.223,-0.399 0.238,-0.413C0.252,-0.427 0.268,-0.44 0.286,-0.453C0.304,-0.466 0.324,-0.477 0.345,-0.486C0.366,-0.495 0.388,-0.5 0.411,-0.5C0.442,-0.5 0.467,-0.491 0.486,-0.473C0.505,-0.455 0.516,-0.424 0.517,-0.379C0.528,-0.389 0.541,-0.401 0.556,-0.415C0.571,-0.429 0.588,-0.442 0.608,-0.455C0.627,-0.468 0.647,-0.478 0.668,-0.487C0.689,-0.496 0.711,-0.5 0.733,-0.5C0.81,-0.5 0.849,-0.459 0.849,-0.377C0.849,-0.364 0.848,-0.348 0.847,-0.331C0.846,-0.314 0.844,-0.296 0.842,-0.277C0.84,-0.258 0.838,-0.239 0.837,-0.22C0.836,-0.201 0.835,-0.184 0.835,-0.169C0.835,-0.1 0.853,-0.065 0.89,-0.065C0.896,-0.065 0.903,-0.066 0.91,-0.068C0.917,-0.069 0.925,-0.071 0.932,-0.074C0.939,-0.076 0.946,-0.078 0.952,-0.081C0.958,-0.083 0.962,-0.085 0.965,-0.087L0.966,-0.087Z" style="fill-rule:nonzero;"/>
            </g>
            <g transform="matrix(12,0,0,12,-17.7415,35.5957)">
                <path d="M0.497,-0.398C0.476,-0.344 0.456,-0.292 0.435,-0.243C0.413,-0.194 0.393,-0.152 0.374,-0.117C0.366,-0.102 0.358,-0.088 0.351,-0.074C0.344,-0.059 0.337,-0.046 0.331,-0.035C0.324,-0.023 0.319,-0.013 0.314,-0.006C0.309,0.002 0.304,0.007 0.3,0.008C0.297,0.01 0.293,0.012 0.289,0.013C0.284,0.014 0.28,0.014 0.277,0.014C0.276,0.014 0.274,0.013 0.271,0.012C0.268,0.011 0.266,0.007 0.264,0.002C0.255,-0.021 0.245,-0.048 0.234,-0.081C0.223,-0.113 0.211,-0.147 0.199,-0.184C0.187,-0.221 0.174,-0.259 0.162,-0.299C0.149,-0.338 0.136,-0.377 0.123,-0.415C0.114,-0.445 0.105,-0.476 0.097,-0.507C0.088,-0.538 0.08,-0.566 0.073,-0.593C0.065,-0.619 0.058,-0.641 0.052,-0.66C0.046,-0.678 0.041,-0.689 0.036,-0.694C0.027,-0.695 0.02,-0.696 0.015,-0.696L-0.004,-0.696C-0.006,-0.696 -0.008,-0.697 -0.009,-0.7C-0.01,-0.702 -0.011,-0.705 -0.011,-0.708C-0.011,-0.711 -0.011,-0.713 -0.01,-0.716C-0.009,-0.718 -0.008,-0.719 -0.007,-0.719L0.04,-0.718C0.051,-0.717 0.064,-0.717 0.078,-0.717C0.091,-0.716 0.104,-0.716 0.116,-0.716C0.143,-0.716 0.168,-0.716 0.19,-0.718C0.211,-0.719 0.225,-0.719 0.232,-0.719C0.239,-0.719 0.243,-0.716 0.245,-0.71C0.245,-0.703 0.24,-0.698 0.229,-0.695C0.224,-0.693 0.217,-0.692 0.207,-0.693C0.196,-0.693 0.186,-0.693 0.177,-0.694C0.178,-0.683 0.181,-0.665 0.187,-0.639C0.193,-0.612 0.201,-0.582 0.21,-0.547C0.219,-0.511 0.23,-0.474 0.242,-0.435C0.253,-0.395 0.265,-0.356 0.278,-0.319C0.29,-0.282 0.302,-0.248 0.313,-0.217C0.324,-0.186 0.335,-0.161 0.344,-0.144C0.349,-0.148 0.356,-0.16 0.366,-0.181C0.376,-0.202 0.387,-0.227 0.4,-0.258C0.412,-0.288 0.425,-0.321 0.438,-0.358C0.451,-0.395 0.464,-0.431 0.475,-0.466C0.467,-0.493 0.46,-0.519 0.453,-0.545C0.446,-0.57 0.439,-0.594 0.433,-0.615C0.427,-0.636 0.422,-0.654 0.417,-0.669C0.412,-0.684 0.407,-0.693 0.403,-0.697C0.394,-0.698 0.388,-0.699 0.383,-0.699L0.365,-0.699C0.362,-0.699 0.361,-0.7 0.36,-0.703C0.359,-0.705 0.358,-0.708 0.358,-0.711C0.357,-0.713 0.357,-0.716 0.358,-0.719C0.358,-0.722 0.358,-0.723 0.359,-0.723L0.419,-0.72C0.434,-0.719 0.45,-0.719 0.467,-0.718C0.484,-0.717 0.498,-0.717 0.509,-0.717C0.541,-0.717 0.566,-0.718 0.585,-0.72C0.603,-0.721 0.613,-0.722 0.616,-0.722C0.627,-0.722 0.632,-0.719 0.631,-0.713C0.63,-0.706 0.625,-0.702 0.618,-0.699C0.608,-0.696 0.6,-0.695 0.593,-0.696C0.586,-0.697 0.58,-0.697 0.576,-0.696C0.571,-0.695 0.568,-0.693 0.566,-0.689C0.563,-0.684 0.562,-0.675 0.562,-0.661C0.562,-0.65 0.565,-0.631 0.57,-0.606C0.575,-0.58 0.581,-0.551 0.59,-0.518C0.598,-0.485 0.607,-0.449 0.618,-0.412C0.629,-0.375 0.64,-0.339 0.651,-0.305C0.662,-0.27 0.672,-0.239 0.683,-0.211C0.693,-0.183 0.702,-0.162 0.71,-0.147C0.714,-0.15 0.721,-0.162 0.732,-0.183C0.742,-0.203 0.754,-0.228 0.767,-0.259C0.78,-0.289 0.794,-0.323 0.809,-0.36C0.823,-0.397 0.836,-0.435 0.848,-0.472C0.86,-0.509 0.87,-0.544 0.878,-0.577C0.885,-0.61 0.889,-0.638 0.889,-0.661C0.889,-0.664 0.889,-0.668 0.889,-0.673C0.888,-0.678 0.888,-0.682 0.887,-0.686C0.886,-0.69 0.884,-0.694 0.883,-0.697C0.882,-0.7 0.88,-0.701 0.877,-0.701C0.869,-0.701 0.862,-0.701 0.857,-0.701L0.813,-0.699C0.812,-0.7 0.811,-0.701 0.81,-0.704C0.809,-0.706 0.808,-0.708 0.807,-0.712C0.806,-0.715 0.805,-0.717 0.805,-0.72C0.805,-0.722 0.806,-0.723 0.808,-0.723C0.814,-0.723 0.826,-0.723 0.844,-0.722C0.861,-0.721 0.89,-0.72 0.929,-0.72L0.991,-0.722L1.05,-0.723C1.061,-0.723 1.066,-0.72 1.064,-0.714C1.061,-0.707 1.057,-0.703 1.05,-0.701C1.047,-0.7 1.044,-0.699 1.04,-0.699C1.035,-0.698 1.031,-0.698 1.026,-0.698C1.02,-0.697 1.016,-0.697 1.012,-0.696C1.008,-0.695 1.005,-0.693 1.003,-0.691C0.986,-0.65 0.967,-0.603 0.945,-0.552C0.922,-0.5 0.899,-0.448 0.875,-0.395C0.851,-0.342 0.827,-0.292 0.804,-0.244C0.781,-0.195 0.76,-0.154 0.741,-0.121C0.732,-0.106 0.724,-0.091 0.717,-0.077C0.709,-0.062 0.702,-0.049 0.696,-0.038C0.69,-0.026 0.685,-0.016 0.68,-0.008C0.675,0 0.67,0.005 0.667,0.006C0.664,0.007 0.66,0.008 0.655,0.009C0.65,0.009 0.647,0.009 0.644,0.009C0.641,0.009 0.639,0.009 0.637,0.008C0.634,0.007 0.632,0.004 0.63,-0.001C0.621,-0.023 0.612,-0.049 0.602,-0.08C0.591,-0.11 0.58,-0.142 0.569,-0.178C0.558,-0.213 0.546,-0.249 0.534,-0.287C0.521,-0.324 0.509,-0.361 0.497,-0.398Z" style="fill-rule:nonzero;"/>
            </g>
            <g transform="matrix(12,0,0,12,-6.35354,35.5957)">
                <path d="M0.359,-0.156C0.357,-0.167 0.355,-0.18 0.353,-0.193C0.351,-0.206 0.349,-0.219 0.347,-0.231C0.345,-0.243 0.343,-0.253 0.342,-0.262C0.34,-0.271 0.339,-0.276 0.338,-0.279C0.327,-0.275 0.315,-0.27 0.302,-0.265C0.289,-0.26 0.275,-0.254 0.262,-0.248C0.249,-0.241 0.236,-0.235 0.224,-0.229C0.212,-0.222 0.202,-0.216 0.194,-0.211C0.179,-0.201 0.167,-0.191 0.159,-0.181C0.151,-0.171 0.147,-0.159 0.147,-0.145C0.147,-0.126 0.153,-0.109 0.164,-0.094C0.175,-0.079 0.193,-0.072 0.217,-0.072C0.23,-0.072 0.243,-0.074 0.257,-0.079C0.27,-0.084 0.283,-0.089 0.295,-0.095C0.306,-0.101 0.316,-0.107 0.325,-0.113C0.334,-0.119 0.34,-0.124 0.343,-0.127C0.348,-0.132 0.353,-0.137 0.356,-0.141C0.359,-0.144 0.36,-0.149 0.359,-0.156ZM0.33,-0.311C0.326,-0.332 0.321,-0.35 0.316,-0.367C0.311,-0.383 0.304,-0.397 0.296,-0.408C0.288,-0.419 0.278,-0.427 0.267,-0.433C0.256,-0.438 0.242,-0.441 0.225,-0.441C0.21,-0.441 0.197,-0.438 0.185,-0.433C0.172,-0.428 0.162,-0.421 0.153,-0.414C0.143,-0.407 0.137,-0.399 0.132,-0.392C0.127,-0.385 0.124,-0.379 0.123,-0.375C0.122,-0.37 0.119,-0.367 0.114,-0.367C0.105,-0.367 0.096,-0.37 0.088,-0.377C0.08,-0.384 0.076,-0.392 0.076,-0.401C0.076,-0.406 0.077,-0.41 0.078,-0.413C0.093,-0.422 0.112,-0.431 0.134,-0.441C0.156,-0.451 0.179,-0.46 0.203,-0.469C0.226,-0.478 0.25,-0.485 0.273,-0.491C0.296,-0.496 0.317,-0.499 0.336,-0.499C0.364,-0.499 0.386,-0.495 0.401,-0.487C0.416,-0.479 0.427,-0.468 0.434,-0.453C0.441,-0.438 0.446,-0.421 0.448,-0.402C0.449,-0.382 0.451,-0.361 0.452,-0.338C0.454,-0.304 0.457,-0.271 0.46,-0.24C0.463,-0.208 0.468,-0.18 0.475,-0.156C0.482,-0.131 0.49,-0.112 0.501,-0.097C0.511,-0.082 0.524,-0.074 0.539,-0.074C0.546,-0.074 0.554,-0.075 0.563,-0.078C0.572,-0.081 0.58,-0.084 0.588,-0.088C0.596,-0.091 0.603,-0.095 0.61,-0.099C0.616,-0.102 0.62,-0.105 0.622,-0.106C0.628,-0.106 0.632,-0.103 0.633,-0.097C0.633,-0.094 0.632,-0.091 0.631,-0.088C0.63,-0.087 0.625,-0.083 0.616,-0.078C0.607,-0.073 0.597,-0.066 0.584,-0.059C0.571,-0.052 0.557,-0.044 0.542,-0.036C0.527,-0.027 0.511,-0.019 0.497,-0.012C0.482,-0.005 0.468,0.001 0.455,0.006C0.442,0.011 0.432,0.013 0.425,0.013C0.416,0.013 0.409,0.01 0.403,0.003C0.396,-0.005 0.391,-0.014 0.386,-0.026C0.381,-0.037 0.377,-0.051 0.374,-0.066C0.371,-0.081 0.368,-0.097 0.365,-0.114C0.353,-0.104 0.338,-0.092 0.319,-0.079C0.3,-0.065 0.28,-0.052 0.258,-0.04C0.236,-0.028 0.214,-0.018 0.191,-0.01C0.167,-0.001 0.145,0.003 0.124,0.003C0.106,0.003 0.09,0 0.077,-0.006C0.064,-0.011 0.053,-0.019 0.044,-0.028C0.035,-0.037 0.028,-0.048 0.024,-0.061C0.019,-0.073 0.017,-0.086 0.017,-0.099C0.017,-0.12 0.024,-0.138 0.037,-0.152C0.049,-0.165 0.07,-0.179 0.097,-0.194C0.11,-0.201 0.127,-0.21 0.15,-0.221C0.173,-0.232 0.196,-0.243 0.22,-0.254C0.243,-0.265 0.265,-0.276 0.286,-0.287C0.306,-0.297 0.321,-0.305 0.33,-0.311Z" style="fill-rule:nonzero;"/>
            </g>
            <g transform="matrix(12,0,0,12,0.246457,35.5957)">
                <path d="M0.368,-0.102C0.372,-0.099 0.374,-0.096 0.374,-0.092C0.374,-0.087 0.366,-0.08 0.351,-0.071C0.335,-0.062 0.314,-0.051 0.288,-0.038C0.261,-0.025 0.235,-0.014 0.209,-0.005C0.196,-0 0.185,0.004 0.175,0.007C0.165,0.01 0.156,0.012 0.148,0.012C0.139,0.012 0.127,0.01 0.114,0.006C0.1,0.001 0.088,-0.004 0.078,-0.01C0.07,-0.015 0.064,-0.02 0.059,-0.023C0.054,-0.025 0.052,-0.029 0.052,-0.032C0.052,-0.035 0.053,-0.037 0.055,-0.04C0.056,-0.042 0.058,-0.045 0.059,-0.048C0.06,-0.05 0.06,-0.053 0.061,-0.056C0.062,-0.059 0.062,-0.063 0.062,-0.066C0.064,-0.083 0.066,-0.107 0.069,-0.139C0.071,-0.17 0.073,-0.205 0.074,-0.244C0.075,-0.282 0.077,-0.321 0.078,-0.363C0.079,-0.403 0.079,-0.442 0.079,-0.477C0.079,-0.52 0.079,-0.555 0.079,-0.582C0.078,-0.609 0.077,-0.63 0.076,-0.646C0.074,-0.668 0.071,-0.683 0.068,-0.69C0.065,-0.697 0.061,-0.702 0.057,-0.705C0.052,-0.709 0.048,-0.712 0.044,-0.713C0.039,-0.713 0.035,-0.714 0.032,-0.715C0.028,-0.715 0.025,-0.715 0.023,-0.715C0.02,-0.715 0.019,-0.716 0.019,-0.717C0.019,-0.739 0.028,-0.75 0.047,-0.75C0.061,-0.75 0.078,-0.75 0.097,-0.75C0.116,-0.749 0.131,-0.749 0.144,-0.749C0.152,-0.749 0.161,-0.749 0.17,-0.751C0.179,-0.752 0.187,-0.753 0.196,-0.754C0.205,-0.755 0.213,-0.756 0.22,-0.757C0.227,-0.758 0.233,-0.76 0.236,-0.761C0.239,-0.762 0.241,-0.761 0.243,-0.758C0.244,-0.755 0.245,-0.752 0.246,-0.748C0.246,-0.744 0.245,-0.74 0.244,-0.737C0.242,-0.734 0.24,-0.732 0.237,-0.731C0.233,-0.73 0.23,-0.73 0.227,-0.73C0.224,-0.73 0.218,-0.729 0.211,-0.726C0.208,-0.725 0.205,-0.721 0.202,-0.714C0.199,-0.707 0.197,-0.696 0.195,-0.681C0.193,-0.666 0.191,-0.646 0.189,-0.622C0.187,-0.597 0.185,-0.567 0.183,-0.53C0.181,-0.501 0.18,-0.471 0.179,-0.441C0.178,-0.41 0.177,-0.381 0.176,-0.352C0.175,-0.323 0.174,-0.297 0.174,-0.272C0.173,-0.247 0.173,-0.226 0.173,-0.209C0.173,-0.19 0.173,-0.17 0.174,-0.151C0.174,-0.131 0.176,-0.115 0.179,-0.104C0.182,-0.093 0.191,-0.083 0.205,-0.074C0.219,-0.065 0.234,-0.06 0.249,-0.06C0.261,-0.06 0.273,-0.062 0.286,-0.065C0.299,-0.068 0.31,-0.072 0.321,-0.077C0.332,-0.082 0.341,-0.086 0.35,-0.091C0.358,-0.096 0.364,-0.099 0.368,-0.102Z" style="fill-rule:nonzero;"/>
            </g>
            <g transform="matrix(12,0,0,12,3.54646,35.5957)">
                <path d="M0.167,-0.231C0.167,-0.218 0.167,-0.201 0.166,-0.181C0.165,-0.161 0.165,-0.14 0.165,-0.119C0.165,-0.095 0.169,-0.078 0.176,-0.068C0.183,-0.057 0.193,-0.052 0.205,-0.052C0.206,-0.052 0.207,-0.052 0.21,-0.053L0.227,-0.056C0.23,-0.057 0.231,-0.057 0.232,-0.057C0.233,-0.057 0.235,-0.056 0.237,-0.054C0.238,-0.051 0.239,-0.049 0.238,-0.048C0.234,-0.043 0.225,-0.038 0.211,-0.031C0.196,-0.024 0.18,-0.018 0.163,-0.012C0.145,-0.005 0.128,0 0.112,0.005C0.095,0.01 0.083,0.012 0.075,0.012C0.066,0.012 0.058,0.009 0.053,0.004C0.048,-0.001 0.045,-0.005 0.045,-0.008C0.045,-0.01 0.045,-0.011 0.046,-0.012L0.048,-0.018C0.049,-0.019 0.049,-0.022 0.05,-0.026C0.052,-0.035 0.054,-0.046 0.056,-0.06C0.058,-0.073 0.06,-0.09 0.062,-0.111C0.063,-0.131 0.065,-0.156 0.066,-0.185C0.067,-0.214 0.069,-0.248 0.07,-0.288C0.071,-0.319 0.071,-0.35 0.072,-0.381C0.072,-0.411 0.072,-0.439 0.073,-0.466C0.073,-0.493 0.073,-0.517 0.073,-0.54L0.073,-0.596C0.073,-0.628 0.071,-0.653 0.068,-0.671C0.065,-0.689 0.061,-0.701 0.057,-0.706C0.052,-0.713 0.046,-0.716 0.038,-0.717C0.029,-0.717 0.023,-0.717 0.02,-0.718C0.019,-0.724 0.02,-0.729 0.021,-0.734C0.022,-0.738 0.024,-0.742 0.027,-0.745C0.03,-0.748 0.035,-0.75 0.042,-0.75C0.054,-0.75 0.068,-0.75 0.084,-0.751C0.1,-0.751 0.117,-0.752 0.134,-0.753C0.151,-0.753 0.168,-0.755 0.185,-0.757C0.202,-0.758 0.216,-0.76 0.229,-0.763C0.233,-0.764 0.235,-0.763 0.236,-0.76C0.236,-0.756 0.235,-0.751 0.234,-0.744C0.233,-0.74 0.232,-0.737 0.229,-0.737C0.226,-0.736 0.222,-0.735 0.219,-0.735C0.215,-0.735 0.212,-0.735 0.209,-0.735C0.206,-0.734 0.203,-0.733 0.202,-0.73C0.201,-0.727 0.199,-0.722 0.197,-0.717C0.195,-0.712 0.193,-0.704 0.192,-0.694C0.19,-0.681 0.188,-0.663 0.186,-0.641C0.184,-0.618 0.182,-0.593 0.181,-0.566C0.179,-0.539 0.177,-0.51 0.176,-0.48C0.174,-0.45 0.172,-0.421 0.171,-0.393C0.17,-0.365 0.169,-0.339 0.168,-0.315C0.167,-0.291 0.167,-0.271 0.167,-0.256C0.186,-0.256 0.207,-0.261 0.23,-0.27C0.252,-0.279 0.273,-0.292 0.292,-0.308C0.311,-0.324 0.326,-0.343 0.339,-0.365C0.352,-0.386 0.358,-0.409 0.358,-0.434C0.358,-0.453 0.352,-0.463 0.339,-0.463C0.328,-0.463 0.319,-0.462 0.31,-0.459C0.301,-0.456 0.295,-0.454 0.292,-0.454C0.282,-0.454 0.276,-0.457 0.275,-0.462C0.275,-0.466 0.277,-0.471 0.28,-0.476C0.283,-0.481 0.287,-0.484 0.29,-0.485C0.304,-0.485 0.32,-0.486 0.338,-0.487C0.355,-0.488 0.373,-0.49 0.391,-0.493C0.409,-0.495 0.426,-0.497 0.443,-0.5C0.46,-0.503 0.474,-0.505 0.485,-0.507C0.488,-0.506 0.49,-0.504 0.49,-0.501C0.49,-0.495 0.485,-0.482 0.474,-0.462C0.463,-0.442 0.448,-0.42 0.43,-0.396C0.411,-0.372 0.39,-0.349 0.367,-0.326C0.344,-0.303 0.32,-0.286 0.295,-0.275C0.302,-0.27 0.312,-0.262 0.324,-0.249C0.336,-0.236 0.349,-0.222 0.364,-0.205C0.378,-0.188 0.393,-0.171 0.409,-0.153C0.425,-0.135 0.441,-0.119 0.458,-0.104C0.475,-0.089 0.491,-0.076 0.507,-0.067C0.522,-0.057 0.537,-0.052 0.551,-0.052C0.561,-0.052 0.569,-0.053 0.575,-0.055C0.58,-0.057 0.586,-0.06 0.592,-0.063C0.595,-0.061 0.597,-0.059 0.597,-0.056C0.597,-0.051 0.595,-0.046 0.59,-0.041C0.584,-0.036 0.573,-0.03 0.556,-0.025C0.545,-0.022 0.532,-0.017 0.517,-0.012C0.502,-0.006 0.488,-0 0.475,0.005C0.461,0.01 0.449,0.014 0.439,0.017C0.428,0.02 0.422,0.022 0.419,0.021C0.414,0.02 0.405,0.013 0.394,0.002C0.382,-0.01 0.369,-0.025 0.354,-0.042C0.339,-0.059 0.323,-0.077 0.306,-0.098C0.289,-0.118 0.272,-0.137 0.256,-0.155C0.239,-0.173 0.224,-0.189 0.21,-0.203C0.196,-0.217 0.184,-0.226 0.175,-0.231L0.167,-0.231Z" style="fill-rule:nonzero;"/>
            </g>
        </g>
        <g transform="matrix(1,0,0,1,58.164,339.27)">
            <g transform="matrix(0.8973,0,0,0.884326,9.28968,12.4373)">
                <circle cx="3.434" cy="5.159" r="2.172" style="stroke:black;stroke-width:0.94px;"/>
            </g>
            <g transform="matrix(0.8973,0,0,0.884326,4.54775,12.4373)">
                <circle cx="3.434" cy="5.159" r="2.172" style="fill:white;stroke:black;stroke-width:0.94px;"/>
            </g>
            <g transform="matrix(0.8973,0,0,0.884326,-0.194181,12.4373)">
                <circle cx="3.434" cy="5.159" r="2.172" style="stroke:black;stroke-width:0.94px;"/>
            </g>
            <g transform="matrix(0.8973,0,0,0.884326,14.0316,12.4373)">
                <circle cx="3.434" cy="5.159" r="2.172" style="stroke:black;stroke-width:0.94px;"/>
            </g>
            <g transform="matrix(0.8973,0,0,0.884326,9.28968,6.70878)">
                <circle cx="3.434" cy="5.159" r="2.172" style="fill:white;stroke:black;stroke-width:0.94px;"/>
            </g>
            <g transform="matrix(0.8973,0,0,0.884326,4.54775,6.70878)">
                <circle cx="3.434" cy="5.159" r="2.172" style="stroke:black;stroke-width:0.94px;"/>
            </g>
            <g transform="matrix(0.8973,0,0,0.884326,-0.194181,6.70878)">
                <circle cx="3.434" cy="5.159" r="2.172" style="stroke:black;stroke-width:0.94px;"/>
            </g>
            <g transform="matrix(0.8973,0,0,0.884326,14.0316,6.70878)">
                <circle cx="3.434" cy="5.159" r="2.172" style="fill:white;stroke:black;stroke-width:0.94px;"/>
            </g>
            <g transform="matrix(0.8973,0,0,0.884326,9.28968,0.980236)">
                <circle cx="3.434" cy="5.159" r="2.172" style="fill:white;stroke:black;stroke-width:0.94px;"/>
            </g>
            <g transform="matrix(0.8973,0,0,0.884326,4.54775,0.980236)">
                <circle cx="3.434" cy="5.159" r="2.172" style="fill:white;stroke:black;stroke-width:0.94px;"/>
            </g>
            <g transform="matrix(0.8973,0,0,0.884326,-0.194181,0.980236)">
                <circle cx="3.434" cy="5.159" r="2.172" style="stroke:black;stroke-width:0.94px;"/>
            </g>
            <g transform="matrix(0.8973,0,0,0.884326,14.0316,0.980236)">
                <circle cx="3.434" cy="5.159" r="2.172" style="stroke:black;stroke-width:0.94px;"/>
            </g>
        </g>
        <g id="namespace-BitBus" serif:id="namespace@BitBus" transform="matrix(0.0178906,0,0,0.0202937,37.7207,339.525)">
            <g transform="matrix(55.8954,0,0,49.2765,-878.032,-330.791)">
                <path d="M27.733,13.757C27.957,11.616 28.949,10 30.136,10C31.489,10 32.587,12.095 32.587,14.677C32.587,15.669 32.424,16.59 32.148,17.347C32.432,17.974 32.587,18.65 32.587,19.353C32.587,22.678 29.128,25.378 24.868,25.378C20.609,25.378 17.15,22.678 17.15,19.353C17.15,18.65 17.305,17.974 17.589,17.347C17.313,16.59 17.15,15.669 17.15,14.677C17.15,12.095 18.248,10 19.601,10C20.788,10 21.779,11.616 22.003,13.757L22.04,13.746C22.915,13.476 23.87,13.328 24.868,13.328C25.881,13.328 26.847,13.48 27.733,13.757ZM17.609,17.304L17.606,17.31L17.609,17.304ZM32.128,17.305L32.131,17.31L32.128,17.305ZM17.627,17.265L17.623,17.273L17.627,17.265ZM32.11,17.266L32.113,17.273L32.11,17.266ZM17.645,17.227L17.641,17.236L17.645,17.227ZM32.092,17.228L32.096,17.236L32.092,17.228ZM17.663,17.19L17.659,17.2L17.663,17.19ZM32.074,17.191L32.078,17.199L32.074,17.191ZM17.682,17.153L17.677,17.162L17.682,17.153ZM32.055,17.154L32.059,17.161L32.055,17.154ZM17.7,17.117L17.696,17.125L17.7,17.117ZM32.037,17.117L32.04,17.123L32.037,17.117ZM17.719,17.081L17.717,17.085L17.719,17.081ZM32.018,17.081L32.019,17.082L32.018,17.081ZM17.782,16.964L17.778,16.971L17.782,16.964ZM31.957,16.968L31.958,16.97L31.957,16.968ZM17.804,16.925L17.798,16.935L17.804,16.925ZM31.935,16.928L31.938,16.934L31.935,16.928ZM17.825,16.888L17.818,16.9L17.825,16.888ZM31.914,16.891L31.918,16.899L31.914,16.891ZM17.845,16.852L17.838,16.865L17.845,16.852ZM31.893,16.854L31.898,16.863L31.893,16.854ZM17.866,16.817L17.859,16.829L17.866,16.817ZM31.871,16.819L31.876,16.827L31.871,16.819ZM17.888,16.782L17.88,16.794L17.888,16.782ZM31.85,16.783L31.855,16.791L31.85,16.783ZM17.909,16.747L17.902,16.758L17.909,16.747ZM31.829,16.748L31.832,16.754L31.829,16.748ZM17.931,16.712L17.925,16.72L17.931,16.712ZM31.807,16.713L31.808,16.714L31.807,16.713ZM17.979,16.635L17.975,16.642L17.979,16.635ZM18.005,16.596L17.998,16.608L18.005,16.596ZM31.735,16.602L31.738,16.606L31.735,16.602ZM18.029,16.561L18.02,16.573L18.029,16.561ZM31.711,16.564L31.716,16.572L31.711,16.564ZM18.052,16.526L18.043,16.539L18.052,16.526ZM31.686,16.529L31.692,16.537L31.686,16.529ZM18.076,16.492L18.066,16.505L18.076,16.492ZM31.663,16.494L31.669,16.503L31.663,16.494ZM18.1,16.458L18.09,16.471L18.1,16.458ZM31.639,16.459L31.645,16.469L31.639,16.459ZM18.124,16.424L18.114,16.437L18.124,16.424ZM31.614,16.425L31.62,16.434L31.614,16.425ZM18.148,16.39L18.139,16.403L18.148,16.39ZM31.59,16.392L31.595,16.398L31.59,16.392ZM18.172,16.357L18.164,16.367L18.172,16.357ZM31.566,16.358L31.567,16.36L31.566,16.358ZM18.197,16.324L18.196,16.324L18.197,16.324ZM18.23,16.28L18.222,16.291L18.23,16.28ZM31.513,16.288L31.514,16.289L31.513,16.288ZM18.257,16.245L18.247,16.258L18.257,16.245ZM31.484,16.249L31.489,16.256L31.484,16.249ZM18.283,16.211L18.272,16.225L18.283,16.211ZM31.456,16.214L31.463,16.223L31.456,16.214ZM18.309,16.178L18.298,16.192L18.309,16.178ZM31.43,16.18L31.438,16.19L31.43,16.18ZM18.335,16.145L18.324,16.16L18.335,16.145ZM31.403,16.147L31.411,16.158L31.403,16.147ZM18.362,16.113L18.35,16.127L18.362,16.113ZM31.376,16.114L31.385,16.125L31.376,16.114ZM18.388,16.081L18.377,16.094L18.388,16.081ZM31.35,16.082L31.357,16.091L31.35,16.082ZM18.415,16.049L18.404,16.061L18.415,16.049ZM31.323,16.05L31.329,16.057L31.323,16.05ZM18.442,16.017L18.433,16.027L18.442,16.017ZM31.295,16.018L31.298,16.021L31.295,16.018ZM18.473,15.981L18.469,15.985L18.473,15.981ZM18.507,15.942L18.497,15.954L18.507,15.942ZM31.234,15.947L31.239,15.953L31.234,15.947ZM18.536,15.909L18.525,15.922L18.536,15.909ZM31.203,15.912L31.211,15.921L31.203,15.912ZM18.565,15.877L18.553,15.891L18.565,15.877ZM31.174,15.879L31.183,15.89L31.174,15.879ZM18.594,15.846L18.581,15.86L18.594,15.846ZM31.145,15.847L31.155,15.859L31.145,15.847ZM18.622,15.815L18.61,15.828L18.622,15.815ZM31.115,15.816L31.126,15.827L31.115,15.816ZM18.651,15.784L18.639,15.797L18.651,15.784ZM31.086,15.785L31.097,15.796L31.086,15.785ZM18.68,15.753L18.668,15.766L18.68,15.753ZM31.057,15.754L31.067,15.765L31.057,15.754ZM18.71,15.723L18.698,15.735L18.71,15.723ZM31.027,15.723L31.037,15.733L31.027,15.723ZM18.739,15.692L18.73,15.702L18.739,15.692ZM30.998,15.693L31.003,15.698L30.998,15.693ZM18.775,15.656L18.769,15.662L18.775,15.656ZM30.965,15.659L30.967,15.662L30.965,15.659ZM18.81,15.621L18.799,15.632L18.81,15.621ZM30.928,15.622L30.937,15.632L30.928,15.622ZM18.842,15.59L18.83,15.602L18.842,15.59ZM30.895,15.591L30.907,15.602L30.895,15.591ZM18.873,15.56L18.86,15.572L18.873,15.56ZM30.864,15.56L30.876,15.572L30.864,15.56ZM18.904,15.53L18.891,15.543L18.904,15.53ZM30.832,15.53L30.846,15.543L30.832,15.53ZM30.801,15.5L30.814,15.513L30.801,15.5ZM18.936,15.501L18.923,15.513L18.936,15.501ZM30.769,15.471L30.783,15.484L30.769,15.471ZM18.967,15.471L18.954,15.483L18.967,15.471ZM30.738,15.442L30.751,15.454L30.738,15.442ZM18.999,15.442L18.986,15.454L18.999,15.442ZM30.706,15.413L30.719,15.425L30.706,15.413ZM19.031,15.413L19.019,15.424L19.031,15.413ZM30.674,15.384L30.684,15.394L30.674,15.384ZM19.063,15.385L19.056,15.391L19.063,15.385ZM30.63,15.346L30.642,15.356L30.63,15.346ZM19.101,15.35L19.095,15.356L19.101,15.35ZM30.595,15.315L30.61,15.328L30.595,15.315ZM19.139,15.318L19.128,15.327L19.139,15.318ZM30.561,15.286L30.577,15.3L30.561,15.286ZM19.173,15.288L19.161,15.299L19.173,15.288ZM30.528,15.258L30.544,15.272L30.528,15.258ZM19.207,15.26L19.194,15.271L19.207,15.26ZM30.494,15.23L30.511,15.244L30.494,15.23ZM19.241,15.231L19.227,15.243L19.241,15.231ZM30.461,15.202L30.478,15.216L30.461,15.202ZM19.274,15.204L19.261,15.215L19.274,15.204ZM30.427,15.175L30.444,15.189L30.427,15.175ZM19.308,15.176L19.295,15.187L19.308,15.176ZM30.393,15.147L30.41,15.161L30.393,15.147ZM19.342,15.149L19.33,15.158L19.342,15.149ZM30.359,15.12L30.376,15.134L30.359,15.12ZM19.377,15.121L19.366,15.129L19.377,15.121ZM30.325,15.093L30.343,15.107L30.326,15.094L30.305,15.078L30.325,15.093ZM19.411,15.094L19.409,15.096L19.411,15.094ZM30.273,15.053L30.292,15.068L30.273,15.053ZM19.452,15.062L19.446,15.067L19.452,15.062ZM30.238,15.027L30.257,15.041L30.238,15.027ZM19.492,15.032L19.481,15.04L19.492,15.032ZM30.203,15L30.222,15.015L30.203,15ZM19.529,15.004L19.516,15.013L19.529,15.004ZM30.168,14.974L30.187,14.989L30.168,14.974ZM19.565,14.977L19.552,14.987L19.565,14.977ZM30.132,14.948L30.152,14.963L30.132,14.948ZM19.601,14.951L19.588,14.961L19.601,14.951ZM30.097,14.922L30.117,14.937L30.097,14.922ZM19.637,14.925L19.624,14.934L19.637,14.925ZM30.061,14.897L30.081,14.911L30.061,14.897ZM19.673,14.899L19.661,14.908L19.673,14.899ZM30.025,14.871L30.046,14.886L30.025,14.871ZM19.71,14.873L19.698,14.881L19.71,14.873ZM29.988,14.846L30.011,14.862L29.988,14.846ZM19.746,14.848L19.738,14.853L19.746,14.848ZM29.954,14.822L29.915,14.796C29.928,14.805 29.941,14.813 29.954,14.822ZM19.826,14.793L19.821,14.796L19.826,14.793ZM29.858,14.758L29.881,14.773L29.858,14.758ZM19.868,14.765L19.858,14.771L19.868,14.765ZM29.822,14.734L29.845,14.749L29.822,14.734ZM19.907,14.739L19.896,14.747L19.907,14.739ZM29.785,14.71L29.807,14.724L29.785,14.71ZM19.946,14.714L19.933,14.722L19.946,14.714ZM29.747,14.686L29.77,14.7L29.747,14.686ZM19.984,14.689L19.971,14.697L19.984,14.689ZM29.71,14.662L29.733,14.676L29.71,14.662ZM20.023,14.665L20.01,14.673L20.023,14.665ZM29.672,14.638L29.696,14.653L29.672,14.638ZM20.061,14.641L20.049,14.648L20.061,14.641ZM29.634,14.615L29.659,14.63L29.634,14.615ZM20.099,14.617L20.09,14.623L20.099,14.617ZM29.494,14.531C29.537,14.556 29.58,14.582 29.623,14.608C29.581,14.582 29.538,14.556 29.494,14.531ZM20.138,14.593L20.134,14.596L20.138,14.593ZM20.221,14.543L20.218,14.545L20.221,14.543ZM29.458,14.51L29.483,14.525L29.458,14.51ZM20.266,14.517L20.257,14.522L20.266,14.517ZM29.42,14.488L29.444,14.502L29.42,14.488ZM20.308,14.493L20.297,14.499L20.308,14.493ZM29.381,14.466L29.405,14.48L29.381,14.466ZM20.349,14.47L20.337,14.477L20.349,14.47ZM29.341,14.444L29.366,14.457L29.341,14.444ZM20.389,14.447L20.377,14.454L20.389,14.447ZM29.302,14.422L29.327,14.436L29.302,14.422ZM20.43,14.425L20.418,14.431L20.43,14.425ZM29.262,14.4L29.288,14.414L29.262,14.4ZM20.47,14.403L20.46,14.408L20.47,14.403ZM29.222,14.379L29.249,14.393L29.222,14.379ZM20.51,14.381L20.503,14.385L20.51,14.381ZM29.186,14.359L29.143,14.337C29.157,14.344 29.171,14.352 29.186,14.359ZM29.077,14.303L29.105,14.317L29.077,14.303ZM20.638,14.314L20.636,14.315L20.638,14.314ZM29.038,14.283L29.064,14.296L29.038,14.283ZM20.685,14.29L20.677,14.294L20.685,14.29ZM28.998,14.263L29.023,14.276L28.998,14.263ZM20.729,14.268L20.719,14.273L20.729,14.268ZM28.957,14.243L28.982,14.255L28.957,14.243ZM20.772,14.247L20.761,14.252L20.772,14.247ZM28.916,14.223L28.941,14.235L28.916,14.223ZM20.814,14.226L20.803,14.232L20.814,14.226ZM28.875,14.203L28.899,14.215L28.875,14.203ZM20.857,14.206L20.846,14.211L20.857,14.206ZM28.833,14.184L28.858,14.195L28.833,14.184ZM20.899,14.186L20.891,14.19L20.899,14.186ZM28.791,14.164L28.817,14.176L28.791,14.164ZM20.942,14.166L20.937,14.168L20.942,14.166ZM28.752,14.146L28.707,14.126C28.722,14.133 28.737,14.139 28.752,14.146ZM28.643,14.097L28.667,14.108L28.643,14.097ZM21.075,14.106L21.074,14.106L21.075,14.106ZM28.601,14.079L28.624,14.089L28.601,14.079ZM21.124,14.084L21.117,14.087L21.124,14.084ZM28.558,14.061L28.581,14.071L28.558,14.061ZM21.17,14.065L21.161,14.068L21.17,14.065ZM28.516,14.043L28.538,14.052L28.516,14.043ZM21.215,14.046L21.204,14.05L21.215,14.046ZM28.473,14.025L28.494,14.034L28.473,14.025ZM21.259,14.027L21.249,14.031L21.259,14.027ZM28.429,14.007L28.451,14.016L28.429,14.007ZM21.303,14.009L21.294,14.013L21.303,14.009ZM28.386,13.989L28.406,13.998L28.386,13.989ZM21.347,13.991L21.341,13.994L21.347,13.991ZM28.342,13.972L28.361,13.979L28.342,13.972ZM21.392,13.973L21.391,13.974L21.392,13.973ZM28.298,13.955L28.311,13.96L28.298,13.955ZM28.243,13.934L28.254,13.938L28.243,13.934ZM28.195,13.915L28.21,13.921L28.195,13.915ZM21.531,13.92L21.53,13.92L21.531,13.92ZM28.149,13.898L28.165,13.904L28.149,13.898ZM21.581,13.901L21.575,13.903L21.581,13.901ZM28.103,13.882L28.119,13.888L28.103,13.882ZM21.629,13.884L21.62,13.887L21.629,13.884ZM28.058,13.866L28.074,13.871L28.058,13.866ZM21.675,13.867L21.666,13.87L21.675,13.867ZM28.013,13.85L28.028,13.855L28.013,13.85ZM21.721,13.851L21.713,13.854L21.721,13.851ZM27.968,13.834L27.981,13.839L27.968,13.834ZM21.767,13.835L21.76,13.837L21.767,13.835ZM27.922,13.819L27.932,13.822L27.922,13.819ZM21.813,13.819L21.809,13.821L21.813,13.819ZM27.877,13.803L27.879,13.804L27.877,13.803Z" style="fill:none;stroke:black;stroke-width:1.22px;"/>
            </g>
            <g transform="matrix(55.8954,0,0,49.2765,-878.032,-330.791)">
                <path d="M25.128,19.358C24.963,19.04 24.868,18.67 24.868,18.275C24.868,17.096 25.713,16.138 26.753,16.138C27.793,16.138 28.637,17.096 28.637,18.275C28.637,19.031 28.291,19.696 27.768,20.076C27.128,19.668 26.188,19.396 25.128,19.358ZM21.969,20.076C21.446,19.696 21.099,19.031 21.099,18.275C21.099,17.096 21.944,16.138 22.984,16.138C24.024,16.138 24.868,17.096 24.868,18.275C24.868,18.67 24.774,19.04 24.609,19.358C23.549,19.396 22.609,19.668 21.969,20.076Z" style="fill:none;stroke:black;stroke-width:1.22px;"/>
            </g>
            <g transform="matrix(1,0,0,1,-53.1856,50.0357)">
                <ellipse cx="565.186" cy="671.455" rx="210.672" ry="98.631" style="fill:none;stroke:black;stroke-width:63.81px;"/>
            </g>
            <g transform="matrix(51.2,0,0,45.1371,0.670978,88.9676)">
                <path d="M12.057,13.791C12.057,13.668 11.958,13.568 11.835,13.568L8.139,13.568C8.016,13.568 7.916,13.668 7.916,13.791L7.916,14.236C7.916,14.359 8.016,14.458 8.139,14.458L11.835,14.458C11.958,14.458 12.057,14.359 12.057,14.236L12.057,13.791Z"/>
            </g>
        </g>
    </g>
</svg>
