<?xml version="1.0" encoding="UTF-8" standalone="no"?>
<!DOCTYPE svg PUBLIC "-//W3C//DTD SVG 1.1//EN" "http://www.w3.org/Graphics/SVG/1.1/DTD/svg11.dtd">
<svg width="100%" height="100%" viewBox="0 0 60 380" version="1.1" xmlns="http://www.w3.org/2000/svg" xmlns:xlink="http://www.w3.org/1999/xlink" xml:space="preserve" xmlns:serif="http://www.serif.com/" style="fill-rule:evenodd;clip-rule:evenodd;stroke-linecap:round;stroke-linejoin:round;stroke-miterlimit:1.5;">
    <g transform="matrix(0.28834,0,0,2.01589,-15.1541,-120.797)">
        <rect x="52.556" y="59.922" width="208.087" height="188.503" style="fill:rgb(154,178,191);stroke:rgb(5,5,5);stroke-width:1.39px;"/>
    </g>
    <g transform="matrix(1,0,0,1,-88.8763,183.551)">
        <g transform="matrix(0.0888999,0,0,72.8139,132.639,-21717.6)">
            <rect x="13.921" y="296.737" width="168.729" height="3.935" style="fill:rgb(191,191,191);"/>
        </g>
        <g transform="matrix(0.298037,0,0,0.695794,89.7802,112.582)">
            <rect x="161.957" y="57.989" width="36.327" height="2.261"/>
        </g>
        <g transform="matrix(0.298037,0,0,0.695794,89.7802,78.9428)">
            <rect x="161.957" y="57.989" width="36.327" height="2.261"/>
        </g>
        <g transform="matrix(0.298037,0,0,0.695794,89.7802,43.5749)">
            <rect x="161.957" y="57.989" width="36.327" height="2.261"/>
        </g>
        <g transform="matrix(0.298037,0,0,0.695794,89.7802,8.26773)">
            <rect x="161.957" y="57.989" width="36.327" height="2.261"/>
        </g>
        <g transform="matrix(0.298037,0,0,0.695794,89.7802,-25.179)">
            <rect x="161.957" y="57.989" width="36.327" height="2.261"/>
        </g>
        <g transform="matrix(0.319692,0,0,0.695794,85.4864,-59.9546)">
            <rect x="161.957" y="57.989" width="36.327" height="2.261"/>
        </g>
        <g transform="matrix(0.319692,0,0,0.695794,85.4864,-94.2518)">
            <rect x="161.957" y="57.989" width="36.327" height="2.261"/>
        </g>
        <g transform="matrix(0.319692,0,0,0.695794,85.4864,-129.909)">
            <rect x="161.957" y="57.989" width="36.327" height="2.261"/>
        </g>
        <g transform="matrix(0.320796,0,0,0.707593,75.2674,-9.5962)">
            <rect x="161.957" y="57.989" width="36.327" height="2.261"/>
        </g>
        <g transform="matrix(4.08741e-16,6.67525,-0.695794,4.26051e-17,179.184,-1169.88)">
            <rect x="161.957" y="57.989" width="36.327" height="2.261"/>
        </g>
        <g id="CVIn-input-P" serif:id="CVIn#input$P" transform="matrix(0.175002,0,0,0.175002,89.4367,-0.660999)">
            <rect x="53.94" y="106.916" width="161.978" height="161.978" style="fill:rgb(204,204,204);"/>
        </g>
    </g>
    <g transform="matrix(1,0,0,1,-28.6123,-332.812)">
        <g id="BusOut-led" serif:id="BusOut#led" transform="matrix(1,0,0,1,35.9457,43.7203)">
            <circle cx="42.167" cy="335.861" r="3.82" style="fill:rgb(230,230,230);"/>
        </g>
        <g transform="matrix(1,0,0,1,62.3138,346.656)">
            <path d="M-10.668,23.656C-10.748,23.656 -10.856,23.66 -10.992,23.668C-11.128,23.676 -11.274,23.682 -11.43,23.686C-11.586,23.69 -11.746,23.696 -11.91,23.704C-12.074,23.712 -12.224,23.716 -12.36,23.716C-12.896,23.716 -13.42,23.634 -13.932,23.47C-14.444,23.306 -14.898,23.05 -15.294,22.702C-15.69,22.354 -16.01,21.906 -16.254,21.358C-16.498,20.81 -16.62,20.152 -16.62,19.384C-16.62,18.68 -16.486,18.056 -16.218,17.512C-15.95,16.968 -15.596,16.512 -15.156,16.144C-14.716,15.776 -14.22,15.496 -13.668,15.304C-13.116,15.112 -12.552,15.016 -11.976,15.016C-11.848,15.016 -11.674,15.024 -11.454,15.04C-11.234,15.056 -11.014,15.076 -10.794,15.1C-10.574,15.124 -10.378,15.15 -10.206,15.178C-10.034,15.206 -9.924,15.232 -9.876,15.256C-9.772,14.976 -9.656,14.728 -9.528,14.512C-9.4,14.296 -9.224,14.132 -9,14.02C-8.936,13.996 -8.864,13.992 -8.784,14.008C-8.704,14.024 -8.664,14.064 -8.664,14.128C-8.704,14.2 -8.734,14.244 -8.754,14.26C-8.774,14.276 -8.8,14.284 -8.832,14.284C-8.928,14.284 -9.022,14.328 -9.114,14.416C-9.206,14.504 -9.292,14.618 -9.372,14.758C-9.452,14.898 -9.522,15.058 -9.582,15.238C-9.642,15.418 -9.688,15.6 -9.72,15.784C-9.736,15.872 -9.754,15.974 -9.774,16.09C-9.794,16.206 -9.812,16.32 -9.828,16.432C-9.844,16.544 -9.856,16.652 -9.864,16.756C-9.872,16.86 -9.876,16.948 -9.876,17.02C-9.876,17.06 -9.892,17.094 -9.924,17.122C-9.956,17.15 -9.988,17.164 -10.02,17.164C-10.068,17.164 -10.124,17.14 -10.188,17.092C-10.22,16.892 -10.286,16.692 -10.386,16.492C-10.486,16.292 -10.626,16.112 -10.806,15.952C-10.986,15.792 -11.21,15.664 -11.478,15.568C-11.746,15.472 -12.064,15.424 -12.432,15.424C-12.824,15.424 -13.174,15.516 -13.482,15.7C-13.79,15.884 -14.05,16.136 -14.262,16.456C-14.474,16.776 -14.636,17.156 -14.748,17.596C-14.86,18.036 -14.916,18.508 -14.916,19.012C-14.916,19.708 -14.846,20.326 -14.706,20.866C-14.566,21.406 -14.372,21.864 -14.124,22.24C-13.876,22.616 -13.58,22.902 -13.236,23.098C-12.892,23.294 -12.516,23.392 -12.108,23.392C-11.836,23.392 -11.57,23.348 -11.31,23.26C-11.05,23.172 -10.81,23.052 -10.59,22.9C-10.37,22.748 -10.174,22.572 -10.002,22.372C-9.83,22.172 -9.696,21.96 -9.6,21.736C-9.584,21.704 -9.542,21.68 -9.474,21.664C-9.406,21.648 -9.372,21.656 -9.372,21.688C-9.372,21.792 -9.406,21.934 -9.474,22.114C-9.542,22.294 -9.62,22.474 -9.708,22.654C-9.796,22.834 -9.884,22.998 -9.972,23.146C-10.06,23.294 -10.12,23.392 -10.152,23.44C-10.176,23.496 -10.206,23.57 -10.242,23.662C-10.278,23.754 -10.31,23.858 -10.338,23.974C-10.366,24.09 -10.392,24.21 -10.416,24.334C-10.44,24.458 -10.452,24.58 -10.452,24.7C-10.452,24.828 -10.468,24.908 -10.5,24.94C-10.532,24.972 -10.6,24.988 -10.704,24.988C-10.792,24.988 -10.832,24.926 -10.824,24.802C-10.816,24.678 -10.796,24.536 -10.764,24.376C-10.732,24.216 -10.7,24.066 -10.668,23.926C-10.636,23.786 -10.636,23.696 -10.668,23.656Z" style="fill-rule:nonzero;"/>
            <path d="M-6.144,22.264C-6.112,22.216 -6.05,22.118 -5.958,21.97C-5.866,21.822 -5.762,21.64 -5.646,21.424C-5.53,21.208 -5.41,20.974 -5.286,20.722C-5.162,20.47 -5.048,20.216 -4.944,19.96C-4.84,19.704 -4.754,19.462 -4.686,19.234C-4.618,19.006 -4.584,18.808 -4.584,18.64C-4.584,18.512 -4.6,18.41 -4.632,18.334C-4.664,18.258 -4.71,18.2 -4.77,18.16C-4.83,18.12 -4.9,18.092 -4.98,18.076C-5.06,18.06 -5.144,18.052 -5.232,18.052C-5.28,18.052 -5.328,18.056 -5.376,18.064C-5.424,18.072 -5.472,18.084 -5.52,18.1C-5.568,18.116 -5.606,18.11 -5.634,18.082C-5.662,18.054 -5.676,18.032 -5.676,18.016C-5.676,17.984 -5.622,17.944 -5.514,17.896C-5.406,17.848 -5.258,17.804 -5.07,17.764C-4.882,17.724 -4.666,17.69 -4.422,17.662C-4.178,17.634 -3.924,17.62 -3.66,17.62C-3.284,17.62 -3.096,17.744 -3.096,17.992C-3.096,18.104 -3.17,18.296 -3.318,18.568C-3.466,18.84 -3.654,19.158 -3.882,19.522C-4.11,19.886 -4.362,20.272 -4.638,20.68C-4.914,21.088 -5.184,21.482 -5.448,21.862C-5.712,22.242 -5.954,22.592 -6.174,22.912C-6.394,23.232 -6.56,23.48 -6.672,23.656C-6.696,23.688 -6.784,23.704 -6.936,23.704C-7,23.704 -7.042,23.694 -7.062,23.674C-7.082,23.654 -7.1,23.62 -7.116,23.572C-7.188,23.348 -7.27,23.1 -7.362,22.828C-7.454,22.556 -7.552,22.28 -7.656,22C-7.76,21.72 -7.866,21.442 -7.974,21.166C-8.082,20.89 -8.188,20.632 -8.292,20.392C-8.572,19.72 -8.81,19.25 -9.006,18.982C-9.202,18.714 -9.384,18.58 -9.552,18.58C-9.6,18.58 -9.646,18.588 -9.69,18.604C-9.734,18.62 -9.776,18.636 -9.816,18.652C-9.832,18.652 -9.854,18.634 -9.882,18.598C-9.91,18.562 -9.916,18.536 -9.9,18.52C-9.892,18.512 -9.816,18.46 -9.672,18.364C-9.528,18.268 -9.36,18.162 -9.168,18.046C-8.976,17.93 -8.782,17.824 -8.586,17.728C-8.39,17.632 -8.232,17.584 -8.112,17.584C-7.928,17.584 -7.76,17.754 -7.608,18.094C-7.456,18.434 -7.276,18.904 -7.068,19.504L-6.144,22.264Z" style="fill-rule:nonzero;"/>
            <path d="M-1.176,23.596C-1.32,23.596 -1.48,23.598 -1.656,23.602C-1.832,23.606 -2.004,23.61 -2.172,23.614C-2.34,23.618 -2.498,23.626 -2.646,23.638C-2.794,23.65 -2.908,23.66 -2.988,23.668L-3.18,23.692C-3.22,23.692 -3.254,23.67 -3.282,23.626C-3.31,23.582 -3.324,23.54 -3.324,23.5C-3.324,23.468 -3.308,23.434 -3.276,23.398C-3.244,23.362 -3.2,23.344 -3.144,23.344C-2.808,23.344 -2.54,23.324 -2.34,23.284C-2.14,23.244 -2.02,23.192 -1.98,23.128C-1.932,23.032 -1.882,22.818 -1.83,22.486C-1.778,22.154 -1.732,21.766 -1.692,21.322C-1.652,20.878 -1.62,20.412 -1.596,19.924C-1.572,19.436 -1.56,18.984 -1.56,18.568C-1.56,18.112 -1.562,17.73 -1.566,17.422C-1.57,17.114 -1.574,16.86 -1.578,16.66C-1.582,16.46 -1.586,16.306 -1.59,16.198C-1.594,16.09 -1.596,16.012 -1.596,15.964C-1.604,15.708 -1.64,15.538 -1.704,15.454C-1.768,15.37 -1.884,15.32 -2.052,15.304C-2.172,15.288 -2.312,15.284 -2.472,15.292C-2.632,15.3 -2.748,15.3 -2.82,15.292C-2.876,15.284 -2.924,15.274 -2.964,15.262C-3.004,15.25 -3.024,15.208 -3.024,15.136C-3.024,15.056 -3.004,15.002 -2.964,14.974C-2.924,14.946 -2.88,14.932 -2.832,14.932C-2.768,14.932 -2.562,14.946 -2.214,14.974C-1.866,15.002 -1.368,15.016 -0.72,15.016C-0.296,15.016 0.066,15.006 0.366,14.986C0.666,14.966 0.872,14.948 0.984,14.932C1.04,14.932 1.094,14.938 1.146,14.95C1.198,14.962 1.224,15 1.224,15.064C1.224,15.2 1.132,15.276 0.948,15.292C0.884,15.292 0.812,15.296 0.732,15.304C0.652,15.312 0.574,15.32 0.498,15.328C0.422,15.336 0.352,15.348 0.288,15.364C0.224,15.38 0.176,15.392 0.144,15.4C0.104,15.416 0.066,15.562 0.03,15.838C-0.006,16.114 -0.038,16.456 -0.066,16.864C-0.094,17.272 -0.12,17.712 -0.144,18.184C-0.168,18.656 -0.184,19.092 -0.192,19.492C-0.2,19.796 -0.206,20.15 -0.21,20.554C-0.214,20.958 -0.21,21.346 -0.198,21.718C-0.186,22.09 -0.168,22.412 -0.144,22.684C-0.12,22.956 -0.084,23.112 -0.036,23.152C-0.004,23.176 0.056,23.198 0.144,23.218C0.232,23.238 0.336,23.258 0.456,23.278C0.576,23.298 0.698,23.312 0.822,23.32C0.946,23.328 1.06,23.332 1.164,23.332C1.252,23.332 1.308,23.34 1.332,23.356C1.356,23.372 1.368,23.412 1.368,23.476C1.368,23.548 1.338,23.6 1.278,23.632C1.218,23.664 1.156,23.68 1.092,23.68C1.044,23.68 0.972,23.676 0.876,23.668C0.78,23.66 0.648,23.65 0.48,23.638C0.312,23.626 0.1,23.616 -0.156,23.608C-0.412,23.6 -0.728,23.596 -1.104,23.596L-1.176,23.596Z" style="fill-rule:nonzero;"/>
            <path d="M3.744,20.428C3.736,20.5 3.728,20.564 3.72,20.62C3.712,20.676 3.706,20.74 3.702,20.812C3.698,20.884 3.694,20.974 3.69,21.082C3.686,21.19 3.684,21.332 3.684,21.508C3.684,21.796 3.694,22.032 3.714,22.216C3.734,22.4 3.764,22.546 3.804,22.654C3.844,22.762 3.894,22.836 3.954,22.876C4.014,22.916 4.088,22.936 4.176,22.936C4.232,22.936 4.292,22.928 4.356,22.912C4.372,22.912 4.386,22.934 4.398,22.978C4.41,23.022 4.408,23.052 4.392,23.068C4.344,23.108 4.25,23.166 4.11,23.242C3.97,23.318 3.812,23.392 3.636,23.464C3.46,23.536 3.278,23.6 3.09,23.656C2.902,23.712 2.744,23.74 2.616,23.74C2.504,23.74 2.416,23.726 2.352,23.698C2.288,23.67 2.256,23.636 2.256,23.596C2.256,23.556 2.26,23.532 2.268,23.524C2.276,23.516 2.288,23.496 2.304,23.464C2.32,23.424 2.332,23.374 2.34,23.314C2.348,23.254 2.36,23.184 2.376,23.104C2.392,22.992 2.408,22.85 2.424,22.678C2.44,22.506 2.456,22.318 2.472,22.114C2.488,21.91 2.502,21.698 2.514,21.478C2.526,21.258 2.532,21.044 2.532,20.836C2.532,20.748 2.53,20.638 2.526,20.506C2.522,20.374 2.516,20.204 2.508,19.996C2.5,19.764 2.474,19.566 2.43,19.402C2.386,19.238 2.33,19.106 2.262,19.006C2.194,18.906 2.118,18.832 2.034,18.784C1.95,18.736 1.868,18.712 1.788,18.712L1.668,18.712C1.628,18.712 1.588,18.716 1.548,18.724C1.516,18.724 1.5,18.688 1.5,18.616C1.5,18.6 1.506,18.586 1.518,18.574C1.53,18.562 1.568,18.536 1.632,18.496C1.736,18.424 1.876,18.336 2.052,18.232C2.228,18.128 2.408,18.032 2.592,17.944C2.776,17.856 2.95,17.78 3.114,17.716C3.278,17.652 3.404,17.62 3.492,17.62C3.724,17.62 3.84,17.752 3.84,18.016C3.84,18.056 3.836,18.128 3.828,18.232C3.82,18.336 3.814,18.442 3.81,18.55C3.806,18.658 3.8,18.76 3.792,18.856C3.784,18.952 3.78,19.016 3.78,19.048C3.948,18.888 4.128,18.724 4.32,18.556C4.512,18.388 4.72,18.234 4.944,18.094C5.168,17.954 5.404,17.84 5.652,17.752C5.9,17.664 6.156,17.62 6.42,17.62C6.9,17.62 7.294,17.758 7.602,18.034C7.91,18.31 8.064,18.748 8.064,19.348C8.064,19.508 8.054,19.696 8.034,19.912C8.014,20.128 7.992,20.352 7.968,20.584C7.944,20.816 7.922,21.044 7.902,21.268C7.882,21.492 7.872,21.692 7.872,21.868C7.872,22.508 8.08,22.828 8.496,22.828C8.576,22.828 8.666,22.814 8.766,22.786C8.866,22.758 8.962,22.726 9.054,22.69C9.146,22.654 9.228,22.618 9.3,22.582C9.372,22.546 9.42,22.516 9.444,22.492C9.452,22.484 9.462,22.49 9.474,22.51C9.486,22.53 9.496,22.556 9.504,22.588C9.512,22.62 9.514,22.648 9.51,22.672C9.506,22.696 9.5,22.712 9.492,22.72C9.428,22.76 9.29,22.836 9.078,22.948C8.866,23.06 8.63,23.174 8.37,23.29C8.11,23.406 7.852,23.51 7.596,23.602C7.34,23.694 7.136,23.74 6.984,23.74C6.8,23.74 6.674,23.696 6.606,23.608C6.538,23.52 6.504,23.428 6.504,23.332C6.504,23.268 6.514,23.188 6.534,23.092C6.554,22.996 6.58,22.84 6.612,22.624C6.644,22.392 6.674,22.12 6.702,21.808C6.73,21.496 6.744,21.16 6.744,20.8C6.744,20.096 6.614,19.562 6.354,19.198C6.094,18.834 5.768,18.652 5.376,18.652C5.128,18.652 4.908,18.7 4.716,18.796C4.524,18.892 4.36,19.022 4.224,19.186C4.088,19.35 3.98,19.538 3.9,19.75C3.82,19.962 3.768,20.188 3.744,20.428Z" style="fill-rule:nonzero;"/>
        </g>
        <g transform="matrix(1,0,0,1,62.3138,346.656)">
            <text x="-16.944px" y="23.596px" style="font-family:'Luminari-Regular', 'Luminari';font-size:12px;">C<tspan x="-9.564px -3.264px " y="23.596px 23.596px ">vI</tspan>n</text>
        </g>
        <g transform="matrix(1,0,0,1,58.164,339.27)">
            <g transform="matrix(0.8973,0,0,0.884326,9.28968,12.4373)">
                <circle cx="3.434" cy="5.159" r="2.172" style="stroke:black;stroke-width:0.94px;"/>
            </g>
            <g transform="matrix(0.8973,0,0,0.884326,4.54775,12.4373)">
                <circle cx="3.434" cy="5.159" r="2.172" style="fill:white;stroke:black;stroke-width:0.94px;"/>
            </g>
            <g transform="matrix(0.8973,0,0,0.884326,-0.194181,12.4373)">
                <circle cx="3.434" cy="5.159" r="2.172" style="stroke:black;stroke-width:0.94px;"/>
            </g>
            <g transform="matrix(0.8973,0,0,0.884326,14.0316,12.4373)">
                <circle cx="3.434" cy="5.159" r="2.172" style="stroke:black;stroke-width:0.94px;"/>
            </g>
            <g transform="matrix(0.8973,0,0,0.884326,9.28968,6.70878)">
                <circle cx="3.434" cy="5.159" r="2.172" style="fill:white;stroke:black;stroke-width:0.94px;"/>
            </g>
            <g transform="matrix(0.8973,0,0,0.884326,4.54775,6.70878)">
                <circle cx="3.434" cy="5.159" r="2.172" style="stroke:black;stroke-width:0.94px;"/>
            </g>
            <g transform="matrix(0.8973,0,0,0.884326,-0.194181,6.70878)">
                <circle cx="3.434" cy="5.159" r="2.172" style="stroke:black;stroke-width:0.94px;"/>
            </g>
            <g transform="matrix(0.8973,0,0,0.884326,14.0316,6.70878)">
                <circle cx="3.434" cy="5.159" r="2.172" style="fill:white;stroke:black;stroke-width:0.94px;"/>
            </g>
            <g transform="matrix(0.8973,0,0,0.884326,9.28968,0.980236)">
                <circle cx="3.434" cy="5.159" r="2.172" style="fill:white;stroke:black;stroke-width:0.94px;"/>
            </g>
            <g transform="matrix(0.8973,0,0,0.884326,4.54775,0.980236)">
                <circle cx="3.434" cy="5.159" r="2.172" style="fill:white;stroke:black;stroke-width:0.94px;"/>
            </g>
            <g transform="matrix(0.8973,0,0,0.884326,-0.194181,0.980236)">
                <circle cx="3.434" cy="5.159" r="2.172" style="stroke:black;stroke-width:0.94px;"/>
            </g>
            <g transform="matrix(0.8973,0,0,0.884326,14.0316,0.980236)">
                <circle cx="3.434" cy="5.159" r="2.172" style="stroke:black;stroke-width:0.94px;"/>
            </g>
        </g>
        <g transform="matrix(0.0178906,0,0,0.0202937,37.7207,339.525)">
            <g transform="matrix(55.8954,0,0,49.2765,-878.032,-330.791)">
                <path d="M27.733,13.757C27.957,11.616 28.949,10 30.136,10C31.489,10 32.587,12.095 32.587,14.677C32.587,15.669 32.424,16.59 32.148,17.347C32.432,17.974 32.587,18.65 32.587,19.353C32.587,22.678 29.128,25.378 24.868,25.378C20.609,25.378 17.15,22.678 17.15,19.353C17.15,18.65 17.305,17.974 17.589,17.347C17.313,16.59 17.15,15.669 17.15,14.677C17.15,12.095 18.248,10 19.601,10C20.788,10 21.779,11.616 22.003,13.757L22.04,13.746C22.915,13.476 23.87,13.328 24.868,13.328C25.881,13.328 26.847,13.48 27.733,13.757ZM17.609,17.304L17.606,17.31L17.609,17.304ZM32.128,17.305L32.131,17.31L32.128,17.305ZM17.627,17.265L17.623,17.273L17.627,17.265ZM32.11,17.266L32.113,17.273L32.11,17.266ZM17.645,17.227L17.641,17.236L17.645,17.227ZM32.092,17.228L32.096,17.236L32.092,17.228ZM17.663,17.19L17.659,17.2L17.663,17.19ZM32.074,17.191L32.078,17.199L32.074,17.191ZM17.682,17.153L17.677,17.162L17.682,17.153ZM32.055,17.154L32.059,17.161L32.055,17.154ZM17.7,17.117L17.696,17.125L17.7,17.117ZM32.037,17.117L32.04,17.123L32.037,17.117ZM17.719,17.081L17.717,17.085L17.719,17.081ZM32.018,17.081L32.019,17.082L32.018,17.081ZM17.782,16.964L17.778,16.971L17.782,16.964ZM31.957,16.968L31.958,16.97L31.957,16.968ZM17.804,16.925L17.798,16.935L17.804,16.925ZM31.935,16.928L31.938,16.934L31.935,16.928ZM17.825,16.888L17.818,16.9L17.825,16.888ZM31.914,16.891L31.918,16.899L31.914,16.891ZM17.845,16.852L17.838,16.865L17.845,16.852ZM31.893,16.854L31.898,16.863L31.893,16.854ZM17.866,16.817L17.859,16.829L17.866,16.817ZM31.871,16.819L31.876,16.827L31.871,16.819ZM17.888,16.782L17.88,16.794L17.888,16.782ZM31.85,16.783L31.855,16.791L31.85,16.783ZM17.909,16.747L17.902,16.758L17.909,16.747ZM31.829,16.748L31.832,16.754L31.829,16.748ZM17.931,16.712L17.925,16.72L17.931,16.712ZM31.807,16.713L31.808,16.714L31.807,16.713ZM17.979,16.635L17.975,16.642L17.979,16.635ZM18.005,16.596L17.998,16.608L18.005,16.596ZM31.735,16.602L31.738,16.606L31.735,16.602ZM18.029,16.561L18.02,16.573L18.029,16.561ZM31.711,16.564L31.716,16.572L31.711,16.564ZM18.052,16.526L18.043,16.539L18.052,16.526ZM31.686,16.529L31.692,16.537L31.686,16.529ZM18.076,16.492L18.066,16.505L18.076,16.492ZM31.663,16.494L31.669,16.503L31.663,16.494ZM18.1,16.458L18.09,16.471L18.1,16.458ZM31.639,16.459L31.645,16.469L31.639,16.459ZM18.124,16.424L18.114,16.437L18.124,16.424ZM31.614,16.425L31.62,16.434L31.614,16.425ZM18.148,16.39L18.139,16.403L18.148,16.39ZM31.59,16.392L31.595,16.398L31.59,16.392ZM18.172,16.357L18.164,16.367L18.172,16.357ZM31.566,16.358L31.567,16.36L31.566,16.358ZM18.197,16.324L18.196,16.324L18.197,16.324ZM18.23,16.28L18.222,16.291L18.23,16.28ZM31.513,16.288L31.514,16.289L31.513,16.288ZM18.257,16.245L18.247,16.258L18.257,16.245ZM31.484,16.249L31.489,16.256L31.484,16.249ZM18.283,16.211L18.272,16.225L18.283,16.211ZM31.456,16.214L31.463,16.223L31.456,16.214ZM18.309,16.178L18.298,16.192L18.309,16.178ZM31.43,16.18L31.438,16.19L31.43,16.18ZM18.335,16.145L18.324,16.16L18.335,16.145ZM31.403,16.147L31.411,16.158L31.403,16.147ZM18.362,16.113L18.35,16.127L18.362,16.113ZM31.376,16.114L31.385,16.125L31.376,16.114ZM18.388,16.081L18.377,16.094L18.388,16.081ZM31.35,16.082L31.357,16.091L31.35,16.082ZM18.415,16.049L18.404,16.061L18.415,16.049ZM31.323,16.05L31.329,16.057L31.323,16.05ZM18.442,16.017L18.433,16.027L18.442,16.017ZM31.295,16.018L31.298,16.021L31.295,16.018ZM18.473,15.981L18.469,15.985L18.473,15.981ZM18.507,15.942L18.497,15.954L18.507,15.942ZM31.234,15.947L31.239,15.953L31.234,15.947ZM18.536,15.909L18.525,15.922L18.536,15.909ZM31.203,15.912L31.211,15.921L31.203,15.912ZM18.565,15.877L18.553,15.891L18.565,15.877ZM31.174,15.879L31.183,15.89L31.174,15.879ZM18.594,15.846L18.581,15.86L18.594,15.846ZM31.145,15.847L31.155,15.859L31.145,15.847ZM18.622,15.815L18.61,15.828L18.622,15.815ZM31.115,15.816L31.126,15.827L31.115,15.816ZM18.651,15.784L18.639,15.797L18.651,15.784ZM31.086,15.785L31.097,15.796L31.086,15.785ZM18.68,15.753L18.668,15.766L18.68,15.753ZM31.057,15.754L31.067,15.765L31.057,15.754ZM18.71,15.723L18.698,15.735L18.71,15.723ZM31.027,15.723L31.037,15.733L31.027,15.723ZM18.739,15.692L18.73,15.702L18.739,15.692ZM30.998,15.693L31.003,15.698L30.998,15.693ZM18.775,15.656L18.769,15.662L18.775,15.656ZM30.965,15.659L30.967,15.662L30.965,15.659ZM18.81,15.621L18.799,15.632L18.81,15.621ZM30.928,15.622L30.937,15.632L30.928,15.622ZM18.842,15.59L18.83,15.602L18.842,15.59ZM30.895,15.591L30.907,15.602L30.895,15.591ZM18.873,15.56L18.86,15.572L18.873,15.56ZM30.864,15.56L30.876,15.572L30.864,15.56ZM18.904,15.53L18.891,15.543L18.904,15.53ZM30.832,15.53L30.846,15.543L30.832,15.53ZM30.801,15.5L30.814,15.513L30.801,15.5ZM18.936,15.501L18.923,15.513L18.936,15.501ZM30.769,15.471L30.783,15.484L30.769,15.471ZM18.967,15.471L18.954,15.483L18.967,15.471ZM30.738,15.442L30.751,15.454L30.738,15.442ZM18.999,15.442L18.986,15.454L18.999,15.442ZM30.706,15.413L30.719,15.425L30.706,15.413ZM19.031,15.413L19.019,15.424L19.031,15.413ZM30.674,15.384L30.684,15.394L30.674,15.384ZM19.063,15.385L19.056,15.391L19.063,15.385ZM30.63,15.346L30.642,15.356L30.63,15.346ZM19.101,15.35L19.095,15.356L19.101,15.35ZM30.595,15.315L30.61,15.328L30.595,15.315ZM19.139,15.318L19.128,15.327L19.139,15.318ZM30.561,15.286L30.577,15.3L30.561,15.286ZM19.173,15.288L19.161,15.299L19.173,15.288ZM30.528,15.258L30.544,15.272L30.528,15.258ZM19.207,15.26L19.194,15.271L19.207,15.26ZM30.494,15.23L30.511,15.244L30.494,15.23ZM19.241,15.231L19.227,15.243L19.241,15.231ZM30.461,15.202L30.478,15.216L30.461,15.202ZM19.274,15.204L19.261,15.215L19.274,15.204ZM30.427,15.175L30.444,15.189L30.427,15.175ZM19.308,15.176L19.295,15.187L19.308,15.176ZM30.393,15.147L30.41,15.161L30.393,15.147ZM19.342,15.149L19.33,15.158L19.342,15.149ZM30.359,15.12L30.376,15.134L30.359,15.12ZM19.377,15.121L19.366,15.129L19.377,15.121ZM30.325,15.093L30.343,15.107L30.326,15.094L30.305,15.078L30.325,15.093ZM19.411,15.094L19.409,15.096L19.411,15.094ZM30.273,15.053L30.292,15.068L30.273,15.053ZM19.452,15.062L19.446,15.067L19.452,15.062ZM30.238,15.027L30.257,15.041L30.238,15.027ZM19.492,15.032L19.481,15.04L19.492,15.032ZM30.203,15L30.222,15.015L30.203,15ZM19.529,15.004L19.516,15.013L19.529,15.004ZM30.168,14.974L30.187,14.989L30.168,14.974ZM19.565,14.977L19.552,14.987L19.565,14.977ZM30.132,14.948L30.152,14.963L30.132,14.948ZM19.601,14.951L19.588,14.961L19.601,14.951ZM30.097,14.922L30.117,14.937L30.097,14.922ZM19.637,14.925L19.624,14.934L19.637,14.925ZM30.061,14.897L30.081,14.911L30.061,14.897ZM19.673,14.899L19.661,14.908L19.673,14.899ZM30.025,14.871L30.046,14.886L30.025,14.871ZM19.71,14.873L19.698,14.881L19.71,14.873ZM29.988,14.846L30.011,14.862L29.988,14.846ZM19.746,14.848L19.738,14.853L19.746,14.848ZM29.954,14.822L29.915,14.796C29.928,14.805 29.941,14.813 29.954,14.822ZM19.826,14.793L19.821,14.796L19.826,14.793ZM29.858,14.758L29.881,14.773L29.858,14.758ZM19.868,14.765L19.858,14.771L19.868,14.765ZM29.822,14.734L29.845,14.749L29.822,14.734ZM19.907,14.739L19.896,14.747L19.907,14.739ZM29.785,14.71L29.807,14.724L29.785,14.71ZM19.946,14.714L19.933,14.722L19.946,14.714ZM29.747,14.686L29.77,14.7L29.747,14.686ZM19.984,14.689L19.971,14.697L19.984,14.689ZM29.71,14.662L29.733,14.676L29.71,14.662ZM20.023,14.665L20.01,14.673L20.023,14.665ZM29.672,14.638L29.696,14.653L29.672,14.638ZM20.061,14.641L20.049,14.648L20.061,14.641ZM29.634,14.615L29.659,14.63L29.634,14.615ZM20.099,14.617L20.09,14.623L20.099,14.617ZM29.494,14.531C29.537,14.556 29.58,14.582 29.623,14.608C29.581,14.582 29.538,14.556 29.494,14.531ZM20.138,14.593L20.134,14.596L20.138,14.593ZM20.221,14.543L20.218,14.545L20.221,14.543ZM29.458,14.51L29.483,14.525L29.458,14.51ZM20.266,14.517L20.257,14.522L20.266,14.517ZM29.42,14.488L29.444,14.502L29.42,14.488ZM20.308,14.493L20.297,14.499L20.308,14.493ZM29.381,14.466L29.405,14.48L29.381,14.466ZM20.349,14.47L20.337,14.477L20.349,14.47ZM29.341,14.444L29.366,14.457L29.341,14.444ZM20.389,14.447L20.377,14.454L20.389,14.447ZM29.302,14.422L29.327,14.436L29.302,14.422ZM20.43,14.425L20.418,14.431L20.43,14.425ZM29.262,14.4L29.288,14.414L29.262,14.4ZM20.47,14.403L20.46,14.408L20.47,14.403ZM29.222,14.379L29.249,14.393L29.222,14.379ZM20.51,14.381L20.503,14.385L20.51,14.381ZM29.186,14.359L29.143,14.337C29.157,14.344 29.171,14.352 29.186,14.359ZM29.077,14.303L29.105,14.317L29.077,14.303ZM20.638,14.314L20.636,14.315L20.638,14.314ZM29.038,14.283L29.064,14.296L29.038,14.283ZM20.685,14.29L20.677,14.294L20.685,14.29ZM28.998,14.263L29.023,14.276L28.998,14.263ZM20.729,14.268L20.719,14.273L20.729,14.268ZM28.957,14.243L28.982,14.255L28.957,14.243ZM20.772,14.247L20.761,14.252L20.772,14.247ZM28.916,14.223L28.941,14.235L28.916,14.223ZM20.814,14.226L20.803,14.232L20.814,14.226ZM28.875,14.203L28.899,14.215L28.875,14.203ZM20.857,14.206L20.846,14.211L20.857,14.206ZM28.833,14.184L28.858,14.195L28.833,14.184ZM20.899,14.186L20.891,14.19L20.899,14.186ZM28.791,14.164L28.817,14.176L28.791,14.164ZM20.942,14.166L20.937,14.168L20.942,14.166ZM28.752,14.146L28.707,14.126C28.722,14.133 28.737,14.139 28.752,14.146ZM28.643,14.097L28.667,14.108L28.643,14.097ZM21.075,14.106L21.074,14.106L21.075,14.106ZM28.601,14.079L28.624,14.089L28.601,14.079ZM21.124,14.084L21.117,14.087L21.124,14.084ZM28.558,14.061L28.581,14.071L28.558,14.061ZM21.17,14.065L21.161,14.068L21.17,14.065ZM28.516,14.043L28.538,14.052L28.516,14.043ZM21.215,14.046L21.204,14.05L21.215,14.046ZM28.473,14.025L28.494,14.034L28.473,14.025ZM21.259,14.027L21.249,14.031L21.259,14.027ZM28.429,14.007L28.451,14.016L28.429,14.007ZM21.303,14.009L21.294,14.013L21.303,14.009ZM28.386,13.989L28.406,13.998L28.386,13.989ZM21.347,13.991L21.341,13.994L21.347,13.991ZM28.342,13.972L28.361,13.979L28.342,13.972ZM21.392,13.973L21.391,13.974L21.392,13.973ZM28.298,13.955L28.311,13.96L28.298,13.955ZM28.243,13.934L28.254,13.938L28.243,13.934ZM28.195,13.915L28.21,13.921L28.195,13.915ZM21.531,13.92L21.53,13.92L21.531,13.92ZM28.149,13.898L28.165,13.904L28.149,13.898ZM21.581,13.901L21.575,13.903L21.581,13.901ZM28.103,13.882L28.119,13.888L28.103,13.882ZM21.629,13.884L21.62,13.887L21.629,13.884ZM28.058,13.866L28.074,13.871L28.058,13.866ZM21.675,13.867L21.666,13.87L21.675,13.867ZM28.013,13.85L28.028,13.855L28.013,13.85ZM21.721,13.851L21.713,13.854L21.721,13.851ZM27.968,13.834L27.981,13.839L27.968,13.834ZM21.767,13.835L21.76,13.837L21.767,13.835ZM27.922,13.819L27.932,13.822L27.922,13.819ZM21.813,13.819L21.809,13.821L21.813,13.819ZM27.877,13.803L27.879,13.804L27.877,13.803Z" style="fill:none;stroke:black;stroke-width:1.22px;"/>
            </g>
            <g transform="matrix(55.8954,0,0,49.2765,-878.032,-330.791)">
                <path d="M25.128,19.358C24.963,19.04 24.868,18.67 24.868,18.275C24.868,17.096 25.713,16.138 26.753,16.138C27.793,16.138 28.637,17.096 28.637,18.275C28.637,19.031 28.291,19.696 27.768,20.076C27.128,19.668 26.188,19.396 25.128,19.358ZM21.969,20.076C21.446,19.696 21.099,19.031 21.099,18.275C21.099,17.096 21.944,16.138 22.984,16.138C24.024,16.138 24.868,17.096 24.868,18.275C24.868,18.67 24.774,19.04 24.609,19.358C23.549,19.396 22.609,19.668 21.969,20.076Z" style="fill:none;stroke:black;stroke-width:1.22px;"/>
            </g>
            <g transform="matrix(1,0,0,1,-53.1856,50.0357)">
                <ellipse cx="565.186" cy="671.455" rx="210.672" ry="98.631" style="fill:none;stroke:black;stroke-width:63.81px;"/>
            </g>
            <g transform="matrix(51.2,0,0,45.1371,0.670978,88.9676)">
                <path d="M12.057,13.791C12.057,13.668 11.958,13.568 11.835,13.568L8.139,13.568C8.016,13.568 7.916,13.668 7.916,13.791L7.916,14.236C7.916,14.359 8.016,14.458 8.139,14.458L11.835,14.458C11.958,14.458 12.057,14.359 12.057,14.236L12.057,13.791Z"/>
            </g>
        </g>
    </g>
</svg>
