<?xml version="1.0" encoding="UTF-8" standalone="no"?>
<!DOCTYPE svg PUBLIC "-//W3C//DTD SVG 1.1//EN" "http://www.w3.org/Graphics/SVG/1.1/DTD/svg11.dtd">
<svg width="100%" height="100%" viewBox="0 0 90 380" version="1.1" xmlns="http://www.w3.org/2000/svg" xmlns:xlink="http://www.w3.org/1999/xlink" xml:space="preserve" xmlns:serif="http://www.serif.com/" style="fill-rule:evenodd;clip-rule:evenodd;stroke-linecap:round;stroke-linejoin:round;stroke-miterlimit:1.5;">
    <g transform="matrix(0.43251,0,0,2.01589,-22.7311,-120.797)">
        <rect x="52.556" y="59.922" width="208.087" height="188.503" style="fill:rgb(154,178,191);stroke:rgb(5,5,5);stroke-width:1.37px;"/>
    </g>
    <g transform="matrix(1,0,0,1,4.26326e-14,45.7932)">
        <g transform="matrix(0.75,0,0,1,-44.1572,137.758)">
            <g transform="matrix(0.3556,0,0,72.8139,113.926,-21717.6)">
                <rect x="13.921" y="296.737" width="168.729" height="3.935" style="fill:rgb(191,191,191);"/>
            </g>
            <g id="Bit8">
                <g transform="matrix(0.889369,0,0,0.695794,2.52831,112.334)">
                    <rect x="161.957" y="57.989" width="36.327" height="2.261"/>
                </g>
                <g id="Indicator-led" serif:id="Indicator#led" transform="matrix(1.33333,0,0,1,90.3461,-182.392)">
                    <circle cx="42.167" cy="335.861" r="3.82" style="fill:rgb(230,230,230);"/>
                </g>
            </g>
            <g id="Bit7">
                <g transform="matrix(0.889369,0,0,0.695794,2.52831,78.6945)">
                    <rect x="161.957" y="57.989" width="36.327" height="2.261"/>
                </g>
                <g id="Indicator-led1" serif:id="Indicator#led" transform="matrix(1.33333,0,0,1,90.3461,-216.032)">
                    <circle cx="42.167" cy="335.861" r="3.82" style="fill:rgb(230,230,230);"/>
                </g>
            </g>
            <g id="Bit6">
                <g transform="matrix(0.889369,0,0,0.695794,2.52831,43.3266)">
                    <rect x="161.957" y="57.989" width="36.327" height="2.261"/>
                </g>
                <g id="Indicator-led2" serif:id="Indicator#led" transform="matrix(1.33333,0,0,1,90.3461,-251.4)">
                    <circle cx="42.167" cy="335.861" r="3.82" style="fill:rgb(230,230,230);"/>
                </g>
            </g>
            <g id="Bit5">
                <g transform="matrix(0.889369,0,0,0.695794,2.52831,8.01938)">
                    <rect x="161.957" y="57.989" width="36.327" height="2.261"/>
                </g>
                <g id="Indicator-led3" serif:id="Indicator#led" transform="matrix(1.33333,0,0,1,90.3461,-286.707)">
                    <circle cx="42.167" cy="335.861" r="3.82" style="fill:rgb(230,230,230);"/>
                </g>
            </g>
            <g id="Bit4">
                <g transform="matrix(0.889369,0,0,0.695794,2.52831,-25.4274)">
                    <rect x="161.957" y="57.989" width="36.327" height="2.261"/>
                </g>
                <g id="Indicator-led4" serif:id="Indicator#led" transform="matrix(1.33333,0,0,1,90.3461,-320.153)">
                    <circle cx="42.167" cy="335.861" r="3.82" style="fill:rgb(230,230,230);"/>
                </g>
            </g>
            <g id="Bit3" transform="matrix(1,0,0,1,7.81597e-14,34.7756)">
                <g transform="matrix(0.889369,0,0,0.695794,2.52831,-94.9785)">
                    <rect x="161.957" y="57.989" width="36.327" height="2.261"/>
                </g>
                <g id="Indicator-led5" serif:id="Indicator#led" transform="matrix(1.33333,0,0,1,90.3461,-389.705)">
                    <circle cx="42.167" cy="335.861" r="3.82" style="fill:rgb(230,230,230);"/>
                </g>
            </g>
            <g id="Bit2">
                <g transform="matrix(0.889369,0,0,0.695794,2.52831,-94.5002)">
                    <rect x="161.957" y="57.989" width="36.327" height="2.261"/>
                </g>
                <g id="Indicator-led6" serif:id="Indicator#led" transform="matrix(1.33333,0,0,1,90.3461,-389.298)">
                    <circle cx="42.167" cy="335.861" r="3.82" style="fill:rgb(230,230,230);"/>
                </g>
            </g>
            <g id="Bit1">
                <g transform="matrix(0.889369,0,0,0.695794,2.52831,-130.158)">
                    <rect x="161.957" y="57.989" width="36.327" height="2.261"/>
                </g>
                <g id="Indicator-led7" serif:id="Indicator#led" transform="matrix(1.33333,0,0,1,90.3461,-424.884)">
                    <circle cx="42.167" cy="335.861" r="3.82" style="fill:rgb(230,230,230);"/>
                </g>
            </g>
        </g>
        <g transform="matrix(1,0,0,1,-0.454466,129.101)">
            <g id="Reset-input" serif:id="Reset#input" transform="matrix(0.175002,0,0,0.175002,0.560398,137.097)">
                <rect x="53.94" y="106.916" width="161.978" height="161.978" style="fill:rgb(204,204,204);"/>
            </g>
            <g transform="matrix(1,0,0,1,-76.6696,31.2375)">
                <path d="M93.138,118.306L93.138,113.236L94.158,113.236L94.158,113.776C94.365,113.59 94.568,113.443 94.768,113.336C94.968,113.23 95.215,113.176 95.508,113.176L95.508,114.256C95.408,114.216 95.305,114.196 95.198,114.196C95.091,114.196 94.976,114.215 94.853,114.251C94.73,114.288 94.618,114.35 94.518,114.436C94.411,114.523 94.325,114.636 94.258,114.776C94.191,114.916 94.158,115.09 94.158,115.296L94.158,118.306L93.138,118.306Z" style="fill-rule:nonzero;"/>
                <path d="M98.868,116.156L96.848,116.156L96.848,116.846C96.848,117.006 96.893,117.13 96.983,117.216C97.073,117.303 97.195,117.346 97.348,117.346C97.541,117.346 97.67,117.29 97.733,117.176C97.796,117.063 97.835,116.95 97.848,116.836L98.868,116.836C98.868,117.283 98.731,117.643 98.458,117.916C98.325,118.056 98.165,118.166 97.978,118.246C97.791,118.326 97.581,118.366 97.348,118.366C97.028,118.366 96.756,118.3 96.533,118.166C96.31,118.033 96.138,117.856 96.018,117.636C95.945,117.503 95.895,117.35 95.868,117.176C95.841,117.003 95.828,116.813 95.828,116.606L95.828,114.936C95.828,114.73 95.841,114.54 95.868,114.366C95.895,114.193 95.945,114.04 96.018,113.906C96.138,113.686 96.31,113.51 96.533,113.376C96.756,113.243 97.028,113.176 97.348,113.176C97.581,113.176 97.793,113.216 97.983,113.296C98.173,113.376 98.335,113.486 98.468,113.626C98.735,113.926 98.868,114.303 98.868,114.756L98.868,116.156ZM96.848,115.356L97.848,115.356L97.848,114.776C97.848,114.583 97.803,114.438 97.713,114.341C97.623,114.245 97.501,114.196 97.348,114.196C97.195,114.196 97.073,114.245 96.983,114.341C96.893,114.438 96.848,114.583 96.848,114.776L96.848,115.356Z" style="fill-rule:nonzero;"/>
                <path d="M101.468,114.656C101.461,114.483 101.406,114.353 101.303,114.266C101.2,114.18 101.081,114.136 100.948,114.136C100.788,114.136 100.665,114.188 100.578,114.291C100.491,114.395 100.448,114.513 100.448,114.646C100.448,114.74 100.471,114.831 100.518,114.921C100.565,115.011 100.685,115.093 100.878,115.166L101.478,115.406C101.858,115.553 102.12,115.753 102.263,116.006C102.406,116.26 102.478,116.536 102.478,116.836C102.478,117.05 102.44,117.248 102.363,117.431C102.286,117.615 102.181,117.776 102.048,117.916C101.915,118.056 101.755,118.166 101.568,118.246C101.381,118.326 101.178,118.366 100.958,118.366C100.545,118.366 100.198,118.236 99.918,117.976C99.778,117.85 99.665,117.691 99.578,117.501C99.491,117.311 99.445,117.09 99.438,116.836L100.398,116.836C100.418,116.976 100.466,117.106 100.543,117.226C100.62,117.346 100.755,117.406 100.948,117.406C101.095,117.406 101.226,117.358 101.343,117.261C101.46,117.165 101.518,117.03 101.518,116.856C101.518,116.716 101.481,116.596 101.408,116.496C101.335,116.396 101.201,116.31 101.008,116.236L100.518,116.056C100.198,115.936 99.946,115.758 99.763,115.521C99.58,115.285 99.488,114.996 99.488,114.656C99.488,114.443 99.528,114.245 99.608,114.061C99.688,113.878 99.798,113.72 99.938,113.586C100.071,113.453 100.228,113.351 100.408,113.281C100.588,113.211 100.781,113.176 100.988,113.176C101.195,113.176 101.386,113.213 101.563,113.286C101.74,113.36 101.891,113.463 102.018,113.596C102.145,113.73 102.245,113.888 102.318,114.071C102.391,114.255 102.428,114.45 102.428,114.656L101.468,114.656Z" style="fill-rule:nonzero;"/>
                <path d="M106.088,116.156L104.068,116.156L104.068,116.846C104.068,117.006 104.113,117.13 104.203,117.216C104.293,117.303 104.415,117.346 104.568,117.346C104.761,117.346 104.89,117.29 104.953,117.176C105.016,117.063 105.055,116.95 105.068,116.836L106.088,116.836C106.088,117.283 105.951,117.643 105.678,117.916C105.545,118.056 105.385,118.166 105.198,118.246C105.011,118.326 104.801,118.366 104.568,118.366C104.248,118.366 103.976,118.3 103.753,118.166C103.53,118.033 103.358,117.856 103.238,117.636C103.165,117.503 103.115,117.35 103.088,117.176C103.061,117.003 103.048,116.813 103.048,116.606L103.048,114.936C103.048,114.73 103.061,114.54 103.088,114.366C103.115,114.193 103.165,114.04 103.238,113.906C103.358,113.686 103.53,113.51 103.753,113.376C103.976,113.243 104.248,113.176 104.568,113.176C104.801,113.176 105.013,113.216 105.203,113.296C105.393,113.376 105.555,113.486 105.688,113.626C105.955,113.926 106.088,114.303 106.088,114.756L106.088,116.156ZM104.068,115.356L105.068,115.356L105.068,114.776C105.068,114.583 105.023,114.438 104.933,114.341C104.843,114.245 104.721,114.196 104.568,114.196C104.415,114.196 104.293,114.245 104.203,114.341C104.113,114.438 104.068,114.583 104.068,114.776L104.068,115.356Z" style="fill-rule:nonzero;"/>
                <path d="M106.838,113.236L106.838,111.696L107.858,111.696L107.858,113.236L108.488,113.236L108.488,114.036L107.858,114.036L107.858,116.846C107.858,116.966 107.87,117.06 107.893,117.126C107.916,117.193 107.955,117.243 108.008,117.276C108.061,117.31 108.126,117.33 108.203,117.336C108.28,117.343 108.375,117.346 108.488,117.346L108.488,118.306L108.068,118.306C107.835,118.306 107.64,118.27 107.483,118.196C107.326,118.123 107.201,118.03 107.108,117.916C107.015,117.803 106.946,117.675 106.903,117.531C106.86,117.388 106.838,117.25 106.838,117.116L106.838,114.036L106.328,114.036L106.328,113.236L106.838,113.236Z" style="fill-rule:nonzero;"/>
            </g>
            <g transform="matrix(1,0,0,1,-76.6696,31.2375)">
                <text x="92.718px" y="118.306px" style="font-family:'DINCondensed-Bold', 'DIN Condensed';font-weight:700;font-stretch:condensed;font-size:10px;">reset</text>
            </g>
        </g>
        <g transform="matrix(1,0,0,1,-0.454466,45.6611)">
            <g id="Down-input" serif:id="Down#input" transform="matrix(0.175002,0,0,0.175002,0.560398,137.097)">
                <rect x="53.94" y="106.916" width="161.978" height="161.978" style="fill:rgb(204,204,204);"/>
            </g>
            <g transform="matrix(1,0,0,1,-76.6696,31.2375)">
                <path d="M93.638,116.656C93.638,116.863 93.678,117.03 93.758,117.156C93.838,117.283 93.965,117.346 94.138,117.346C94.291,117.346 94.415,117.288 94.508,117.171C94.601,117.055 94.648,116.903 94.648,116.716L94.648,114.746C94.648,114.586 94.6,114.455 94.503,114.351C94.406,114.248 94.285,114.196 94.138,114.196C93.945,114.196 93.813,114.256 93.743,114.376C93.673,114.496 93.638,114.636 93.638,114.796L93.638,116.656ZM94.648,118.306L94.648,117.846C94.581,117.92 94.518,117.988 94.458,118.051C94.398,118.115 94.331,118.17 94.258,118.216C94.185,118.263 94.101,118.3 94.008,118.326C93.915,118.353 93.805,118.366 93.678,118.366C93.251,118.366 92.955,118.206 92.788,117.886C92.728,117.773 92.685,117.633 92.658,117.466C92.631,117.3 92.618,117.076 92.618,116.796L92.618,114.866C92.618,114.5 92.628,114.23 92.648,114.056C92.688,113.723 92.845,113.473 93.118,113.306C93.245,113.22 93.435,113.176 93.688,113.176C93.888,113.176 94.066,113.221 94.223,113.311C94.38,113.401 94.515,113.53 94.628,113.696L94.648,113.696L94.648,111.186L95.668,111.186L95.668,118.306L94.648,118.306Z" style="fill-rule:nonzero;"/>
                <path d="M96.418,114.936C96.418,114.73 96.431,114.54 96.458,114.366C96.485,114.193 96.535,114.04 96.608,113.906C96.728,113.686 96.9,113.51 97.123,113.376C97.346,113.243 97.618,113.176 97.938,113.176C98.258,113.176 98.53,113.243 98.753,113.376C98.976,113.51 99.148,113.686 99.268,113.906C99.341,114.04 99.391,114.193 99.418,114.366C99.445,114.54 99.458,114.73 99.458,114.936L99.458,116.606C99.458,116.813 99.445,117.003 99.418,117.176C99.391,117.35 99.341,117.503 99.268,117.636C99.148,117.856 98.976,118.033 98.753,118.166C98.53,118.3 98.258,118.366 97.938,118.366C97.618,118.366 97.346,118.3 97.123,118.166C96.9,118.033 96.728,117.856 96.608,117.636C96.535,117.503 96.485,117.35 96.458,117.176C96.431,117.003 96.418,116.813 96.418,116.606L96.418,114.936ZM97.438,116.766C97.438,116.96 97.483,117.105 97.573,117.201C97.663,117.298 97.785,117.346 97.938,117.346C98.091,117.346 98.213,117.298 98.303,117.201C98.393,117.105 98.438,116.96 98.438,116.766L98.438,114.776C98.438,114.583 98.393,114.438 98.303,114.341C98.213,114.245 98.091,114.196 97.938,114.196C97.785,114.196 97.663,114.245 97.573,114.341C97.483,114.438 97.438,114.583 97.438,114.776L97.438,116.766Z" style="fill-rule:nonzero;"/>
                <path d="M105.078,113.236L103.878,118.306L102.978,118.306L102.418,115.296L102.398,115.296L101.838,118.306L100.938,118.306L99.738,113.236L100.818,113.236L101.438,116.386L101.458,116.386L102.028,113.236L102.828,113.236L103.368,116.386L103.388,116.386L103.998,113.236L105.078,113.236Z" style="fill-rule:nonzero;"/>
                <path d="M105.508,118.306L105.508,113.236L106.528,113.236L106.528,113.726L106.548,113.726C106.655,113.566 106.783,113.435 106.933,113.331C107.083,113.228 107.275,113.176 107.508,113.176C107.635,113.176 107.761,113.198 107.888,113.241C108.015,113.285 108.128,113.356 108.228,113.456C108.328,113.556 108.408,113.685 108.468,113.841C108.528,113.998 108.558,114.19 108.558,114.416L108.558,118.306L107.538,118.306L107.538,114.796C107.538,114.61 107.495,114.463 107.408,114.356C107.321,114.25 107.198,114.196 107.038,114.196C106.845,114.196 106.711,114.256 106.638,114.376C106.565,114.496 106.528,114.67 106.528,114.896L106.528,118.306L105.508,118.306Z" style="fill-rule:nonzero;"/>
            </g>
            <g transform="matrix(1,0,0,1,-76.6696,31.2375)">
                <text x="92.198px" y="118.306px" style="font-family:'DINCondensed-Bold', 'DIN Condensed';font-weight:700;font-stretch:condensed;font-size:10px;">down</text>
            </g>
        </g>
        <g transform="matrix(1,0,0,1,-0.454466,-10.1386)">
            <g id="Up-input" serif:id="Up#input" transform="matrix(0.175002,0,0,0.175002,0.560398,137.097)">
                <rect x="53.94" y="106.916" width="161.978" height="161.978" style="fill:rgb(204,204,204);"/>
            </g>
            <g transform="matrix(1,0,0,1,-76.6696,31.2375)">
                <path d="M100.168,113.236L100.168,118.306L99.148,118.306L99.148,117.816L99.128,117.816C99.021,117.976 98.893,118.108 98.743,118.211C98.593,118.315 98.401,118.366 98.168,118.366C98.041,118.366 97.915,118.345 97.788,118.301C97.661,118.258 97.548,118.186 97.448,118.086C97.348,117.986 97.268,117.858 97.208,117.701C97.148,117.545 97.118,117.353 97.118,117.126L97.118,113.236L98.138,113.236L98.138,116.746C98.138,116.933 98.181,117.08 98.268,117.186C98.355,117.293 98.478,117.346 98.638,117.346C98.831,117.346 98.965,117.286 99.038,117.166C99.111,117.046 99.148,116.873 99.148,116.646L99.148,113.236L100.168,113.236Z" style="fill-rule:nonzero;"/>
                <path d="M101.008,120.356L101.008,113.236L102.028,113.236L102.028,113.696C102.155,113.55 102.285,113.426 102.418,113.326C102.551,113.226 102.745,113.176 102.998,113.176C103.418,113.176 103.715,113.336 103.888,113.656C103.948,113.77 103.991,113.91 104.018,114.076C104.045,114.243 104.058,114.466 104.058,114.746L104.058,116.676C104.058,117.05 104.048,117.32 104.028,117.486C103.988,117.82 103.835,118.07 103.568,118.236C103.435,118.323 103.241,118.366 102.988,118.366C102.788,118.366 102.61,118.321 102.453,118.231C102.296,118.141 102.161,118.013 102.048,117.846L102.028,117.846L102.028,120.356L101.008,120.356ZM103.038,114.886C103.038,114.68 102.998,114.513 102.918,114.386C102.838,114.26 102.711,114.196 102.538,114.196C102.385,114.196 102.261,114.255 102.168,114.371C102.075,114.488 102.028,114.64 102.028,114.826L102.028,116.796C102.028,116.956 102.076,117.088 102.173,117.191C102.27,117.295 102.391,117.346 102.538,117.346C102.731,117.346 102.863,117.286 102.933,117.166C103.003,117.046 103.038,116.906 103.038,116.746L103.038,114.886Z" style="fill-rule:nonzero;"/>
            </g>
            <g transform="matrix(1,0,0,1,-76.6696,31.2375)">
                <text x="96.698px" y="118.306px" style="font-family:'DINCondensed-Bold', 'DIN Condensed';font-weight:700;font-stretch:condensed;font-size:10px;">up</text>
            </g>
        </g>
        <g transform="matrix(1,0,0,1,-21.6992,-180.708)">
            <g id="Threshold-slider" serif:id="Threshold#slider" transform="matrix(0.0833124,0,0,3.87469,31.672,-483.418)">
                <rect x="92.975" y="182.872" width="144.036" height="20.647" style="fill:rgb(217,217,217);"/>
            </g>
            <g transform="matrix(1,0,0,1,-51.9949,99.1411)">
                <path d="M83.288,113.236L83.288,111.696L84.308,111.696L84.308,113.236L84.938,113.236L84.938,114.036L84.308,114.036L84.308,116.846C84.308,116.966 84.32,117.06 84.343,117.126C84.366,117.193 84.405,117.243 84.458,117.276C84.511,117.31 84.576,117.33 84.653,117.336C84.73,117.343 84.825,117.346 84.938,117.346L84.938,118.306L84.518,118.306C84.285,118.306 84.09,118.27 83.933,118.196C83.776,118.123 83.651,118.03 83.558,117.916C83.465,117.803 83.396,117.675 83.353,117.531C83.31,117.388 83.288,117.25 83.288,117.116L83.288,114.036L82.778,114.036L82.778,113.236L83.288,113.236Z" style="fill-rule:nonzero;"/>
                <path d="M85.328,118.306L85.328,111.186L86.348,111.186L86.348,113.726L86.368,113.726C86.475,113.566 86.603,113.435 86.753,113.331C86.903,113.228 87.095,113.176 87.328,113.176C87.455,113.176 87.581,113.198 87.708,113.241C87.835,113.285 87.948,113.356 88.048,113.456C88.148,113.556 88.228,113.685 88.288,113.841C88.348,113.998 88.378,114.19 88.378,114.416L88.378,118.306L87.358,118.306L87.358,114.796C87.358,114.61 87.315,114.463 87.228,114.356C87.141,114.25 87.018,114.196 86.858,114.196C86.665,114.196 86.531,114.256 86.458,114.376C86.385,114.496 86.348,114.67 86.348,114.896L86.348,118.306L85.328,118.306Z" style="fill-rule:nonzero;"/>
                <path d="M89.218,118.306L89.218,113.236L90.238,113.236L90.238,113.776C90.445,113.59 90.648,113.443 90.848,113.336C91.048,113.23 91.295,113.176 91.588,113.176L91.588,114.256C91.488,114.216 91.385,114.196 91.278,114.196C91.171,114.196 91.056,114.215 90.933,114.251C90.81,114.288 90.698,114.35 90.598,114.436C90.491,114.523 90.405,114.636 90.338,114.776C90.271,114.916 90.238,115.09 90.238,115.296L90.238,118.306L89.218,118.306Z" style="fill-rule:nonzero;"/>
                <path d="M94.948,116.156L92.928,116.156L92.928,116.846C92.928,117.006 92.973,117.13 93.063,117.216C93.153,117.303 93.275,117.346 93.428,117.346C93.621,117.346 93.75,117.29 93.813,117.176C93.876,117.063 93.915,116.95 93.928,116.836L94.948,116.836C94.948,117.283 94.811,117.643 94.538,117.916C94.405,118.056 94.245,118.166 94.058,118.246C93.871,118.326 93.661,118.366 93.428,118.366C93.108,118.366 92.836,118.3 92.613,118.166C92.39,118.033 92.218,117.856 92.098,117.636C92.025,117.503 91.975,117.35 91.948,117.176C91.921,117.003 91.908,116.813 91.908,116.606L91.908,114.936C91.908,114.73 91.921,114.54 91.948,114.366C91.975,114.193 92.025,114.04 92.098,113.906C92.218,113.686 92.39,113.51 92.613,113.376C92.836,113.243 93.108,113.176 93.428,113.176C93.661,113.176 93.873,113.216 94.063,113.296C94.253,113.376 94.415,113.486 94.548,113.626C94.815,113.926 94.948,114.303 94.948,114.756L94.948,116.156ZM92.928,115.356L93.928,115.356L93.928,114.776C93.928,114.583 93.883,114.438 93.793,114.341C93.703,114.245 93.581,114.196 93.428,114.196C93.275,114.196 93.153,114.245 93.063,114.341C92.973,114.438 92.928,114.583 92.928,114.776L92.928,115.356Z" style="fill-rule:nonzero;"/>
                <path d="M97.548,114.656C97.541,114.483 97.486,114.353 97.383,114.266C97.28,114.18 97.161,114.136 97.028,114.136C96.868,114.136 96.745,114.188 96.658,114.291C96.571,114.395 96.528,114.513 96.528,114.646C96.528,114.74 96.551,114.831 96.598,114.921C96.645,115.011 96.765,115.093 96.958,115.166L97.558,115.406C97.938,115.553 98.2,115.753 98.343,116.006C98.486,116.26 98.558,116.536 98.558,116.836C98.558,117.05 98.52,117.248 98.443,117.431C98.366,117.615 98.261,117.776 98.128,117.916C97.995,118.056 97.835,118.166 97.648,118.246C97.461,118.326 97.258,118.366 97.038,118.366C96.625,118.366 96.278,118.236 95.998,117.976C95.858,117.85 95.745,117.691 95.658,117.501C95.571,117.311 95.525,117.09 95.518,116.836L96.478,116.836C96.498,116.976 96.546,117.106 96.623,117.226C96.7,117.346 96.835,117.406 97.028,117.406C97.175,117.406 97.306,117.358 97.423,117.261C97.54,117.165 97.598,117.03 97.598,116.856C97.598,116.716 97.561,116.596 97.488,116.496C97.415,116.396 97.281,116.31 97.088,116.236L96.598,116.056C96.278,115.936 96.026,115.758 95.843,115.521C95.66,115.285 95.568,114.996 95.568,114.656C95.568,114.443 95.608,114.245 95.688,114.061C95.768,113.878 95.878,113.72 96.018,113.586C96.151,113.453 96.308,113.351 96.488,113.281C96.668,113.211 96.861,113.176 97.068,113.176C97.275,113.176 97.466,113.213 97.643,113.286C97.82,113.36 97.971,113.463 98.098,113.596C98.225,113.73 98.325,113.888 98.398,114.071C98.471,114.255 98.508,114.45 98.508,114.656L97.548,114.656Z" style="fill-rule:nonzero;"/>
                <path d="M99.218,118.306L99.218,111.186L100.238,111.186L100.238,113.726L100.258,113.726C100.365,113.566 100.493,113.435 100.643,113.331C100.793,113.228 100.985,113.176 101.218,113.176C101.345,113.176 101.471,113.198 101.598,113.241C101.725,113.285 101.838,113.356 101.938,113.456C102.038,113.556 102.118,113.685 102.178,113.841C102.238,113.998 102.268,114.19 102.268,114.416L102.268,118.306L101.248,118.306L101.248,114.796C101.248,114.61 101.205,114.463 101.118,114.356C101.031,114.25 100.908,114.196 100.748,114.196C100.555,114.196 100.421,114.256 100.348,114.376C100.275,114.496 100.238,114.67 100.238,114.896L100.238,118.306L99.218,118.306Z" style="fill-rule:nonzero;"/>
                <path d="M103.018,114.936C103.018,114.73 103.031,114.54 103.058,114.366C103.085,114.193 103.135,114.04 103.208,113.906C103.328,113.686 103.5,113.51 103.723,113.376C103.946,113.243 104.218,113.176 104.538,113.176C104.858,113.176 105.13,113.243 105.353,113.376C105.576,113.51 105.748,113.686 105.868,113.906C105.941,114.04 105.991,114.193 106.018,114.366C106.045,114.54 106.058,114.73 106.058,114.936L106.058,116.606C106.058,116.813 106.045,117.003 106.018,117.176C105.991,117.35 105.941,117.503 105.868,117.636C105.748,117.856 105.576,118.033 105.353,118.166C105.13,118.3 104.858,118.366 104.538,118.366C104.218,118.366 103.946,118.3 103.723,118.166C103.5,118.033 103.328,117.856 103.208,117.636C103.135,117.503 103.085,117.35 103.058,117.176C103.031,117.003 103.018,116.813 103.018,116.606L103.018,114.936ZM104.038,116.766C104.038,116.96 104.083,117.105 104.173,117.201C104.263,117.298 104.385,117.346 104.538,117.346C104.691,117.346 104.813,117.298 104.903,117.201C104.993,117.105 105.038,116.96 105.038,116.766L105.038,114.776C105.038,114.583 104.993,114.438 104.903,114.341C104.813,114.245 104.691,114.196 104.538,114.196C104.385,114.196 104.263,114.245 104.173,114.341C104.083,114.438 104.038,114.583 104.038,114.776L104.038,116.766Z" style="fill-rule:nonzero;"/>
                <path d="M106.748,111.186L107.768,111.186L107.768,116.876C107.768,117.07 107.803,117.201 107.873,117.271C107.943,117.341 108.075,117.386 108.268,117.406L108.268,118.366C108.035,118.366 107.825,118.348 107.638,118.311C107.451,118.275 107.291,118.203 107.158,118.096C107.025,117.996 106.923,117.855 106.853,117.671C106.783,117.488 106.748,117.246 106.748,116.946L106.748,111.186Z" style="fill-rule:nonzero;"/>
                <path d="M109.688,116.656C109.688,116.863 109.728,117.03 109.808,117.156C109.888,117.283 110.015,117.346 110.188,117.346C110.341,117.346 110.465,117.288 110.558,117.171C110.651,117.055 110.698,116.903 110.698,116.716L110.698,114.746C110.698,114.586 110.65,114.455 110.553,114.351C110.456,114.248 110.335,114.196 110.188,114.196C109.995,114.196 109.863,114.256 109.793,114.376C109.723,114.496 109.688,114.636 109.688,114.796L109.688,116.656ZM110.698,118.306L110.698,117.846C110.631,117.92 110.568,117.988 110.508,118.051C110.448,118.115 110.381,118.17 110.308,118.216C110.235,118.263 110.151,118.3 110.058,118.326C109.965,118.353 109.855,118.366 109.728,118.366C109.301,118.366 109.005,118.206 108.838,117.886C108.778,117.773 108.735,117.633 108.708,117.466C108.681,117.3 108.668,117.076 108.668,116.796L108.668,114.866C108.668,114.5 108.678,114.23 108.698,114.056C108.738,113.723 108.895,113.473 109.168,113.306C109.295,113.22 109.485,113.176 109.738,113.176C109.938,113.176 110.116,113.221 110.273,113.311C110.43,113.401 110.565,113.53 110.678,113.696L110.698,113.696L110.698,111.186L111.718,111.186L111.718,118.306L110.698,118.306Z" style="fill-rule:nonzero;"/>
            </g>
            <g transform="matrix(1,0,0,1,-51.9949,99.1411)">
                <text x="82.868px" y="118.306px" style="font-family:'DINCondensed-Bold', 'DIN Condensed';font-weight:700;font-stretch:condensed;font-size:10px;">threshold</text>
            </g>
        </g>
    </g>
    <g id="Number-lcd-3" serif:id="Number#lcd$3" transform="matrix(0.77953,0,0,0.846667,-114.914,-204.074)">
        <rect x="173.071" y="291.218" width="64.141" height="28.346" style="fill:rgb(13,13,13);"/>
    </g>
    <g transform="matrix(1,0,0,1,-13.1943,-332.812)">
        <g id="BusOut-led" serif:id="BusOut#led" transform="matrix(1,0,0,1,50.9457,43.7203)">
            <circle cx="42.167" cy="335.861" r="3.82" style="fill:rgb(230,230,230);"/>
        </g>
        <g transform="matrix(1,0,0,1,62.3138,346.656)">
            <path d="M-20.784,23.656C-20.864,23.656 -20.972,23.66 -21.108,23.668C-21.244,23.676 -21.39,23.682 -21.546,23.686C-21.702,23.69 -21.862,23.696 -22.026,23.704C-22.19,23.712 -22.34,23.716 -22.476,23.716C-23.012,23.716 -23.536,23.634 -24.048,23.47C-24.56,23.306 -25.014,23.05 -25.41,22.702C-25.806,22.354 -26.126,21.906 -26.37,21.358C-26.614,20.81 -26.736,20.152 -26.736,19.384C-26.736,18.68 -26.602,18.056 -26.334,17.512C-26.066,16.968 -25.712,16.512 -25.272,16.144C-24.832,15.776 -24.336,15.496 -23.784,15.304C-23.232,15.112 -22.668,15.016 -22.092,15.016C-21.964,15.016 -21.79,15.024 -21.57,15.04C-21.35,15.056 -21.13,15.076 -20.91,15.1C-20.69,15.124 -20.494,15.15 -20.322,15.178C-20.15,15.206 -20.04,15.232 -19.992,15.256C-19.888,14.976 -19.772,14.728 -19.644,14.512C-19.516,14.296 -19.34,14.132 -19.116,14.02C-19.052,13.996 -18.98,13.992 -18.9,14.008C-18.82,14.024 -18.78,14.064 -18.78,14.128C-18.82,14.2 -18.85,14.244 -18.87,14.26C-18.89,14.276 -18.916,14.284 -18.948,14.284C-19.044,14.284 -19.138,14.328 -19.23,14.416C-19.322,14.504 -19.408,14.618 -19.488,14.758C-19.568,14.898 -19.638,15.058 -19.698,15.238C-19.758,15.418 -19.804,15.6 -19.836,15.784C-19.852,15.872 -19.87,15.974 -19.89,16.09C-19.91,16.206 -19.928,16.32 -19.944,16.432C-19.96,16.544 -19.972,16.652 -19.98,16.756C-19.988,16.86 -19.992,16.948 -19.992,17.02C-19.992,17.06 -20.008,17.094 -20.04,17.122C-20.072,17.15 -20.104,17.164 -20.136,17.164C-20.184,17.164 -20.24,17.14 -20.304,17.092C-20.336,16.892 -20.402,16.692 -20.502,16.492C-20.602,16.292 -20.742,16.112 -20.922,15.952C-21.102,15.792 -21.326,15.664 -21.594,15.568C-21.862,15.472 -22.18,15.424 -22.548,15.424C-22.94,15.424 -23.29,15.516 -23.598,15.7C-23.906,15.884 -24.166,16.136 -24.378,16.456C-24.59,16.776 -24.752,17.156 -24.864,17.596C-24.976,18.036 -25.032,18.508 -25.032,19.012C-25.032,19.708 -24.962,20.326 -24.822,20.866C-24.682,21.406 -24.488,21.864 -24.24,22.24C-23.992,22.616 -23.696,22.902 -23.352,23.098C-23.008,23.294 -22.632,23.392 -22.224,23.392C-21.952,23.392 -21.686,23.348 -21.426,23.26C-21.166,23.172 -20.926,23.052 -20.706,22.9C-20.486,22.748 -20.29,22.572 -20.118,22.372C-19.946,22.172 -19.812,21.96 -19.716,21.736C-19.7,21.704 -19.658,21.68 -19.59,21.664C-19.522,21.648 -19.488,21.656 -19.488,21.688C-19.488,21.792 -19.522,21.934 -19.59,22.114C-19.658,22.294 -19.736,22.474 -19.824,22.654C-19.912,22.834 -20,22.998 -20.088,23.146C-20.176,23.294 -20.236,23.392 -20.268,23.44C-20.292,23.496 -20.322,23.57 -20.358,23.662C-20.394,23.754 -20.426,23.858 -20.454,23.974C-20.482,24.09 -20.508,24.21 -20.532,24.334C-20.556,24.458 -20.568,24.58 -20.568,24.7C-20.568,24.828 -20.584,24.908 -20.616,24.94C-20.648,24.972 -20.716,24.988 -20.82,24.988C-20.908,24.988 -20.948,24.926 -20.94,24.802C-20.932,24.678 -20.912,24.536 -20.88,24.376C-20.848,24.216 -20.816,24.066 -20.784,23.926C-20.752,23.786 -20.752,23.696 -20.784,23.656Z" style="fill-rule:nonzero;"/>
            <path d="M-14.16,22.636C-14.248,22.708 -14.368,22.804 -14.52,22.924C-14.672,23.044 -14.848,23.164 -15.048,23.284C-15.248,23.404 -15.468,23.506 -15.708,23.59C-15.948,23.674 -16.2,23.716 -16.464,23.716C-16.864,23.716 -17.22,23.646 -17.532,23.506C-17.844,23.366 -18.106,23.178 -18.318,22.942C-18.53,22.706 -18.69,22.428 -18.798,22.108C-18.906,21.788 -18.96,21.448 -18.96,21.088C-18.96,20.664 -18.896,20.288 -18.768,19.96C-18.64,19.632 -18.482,19.346 -18.294,19.102C-18.106,18.858 -17.904,18.654 -17.688,18.49C-17.472,18.326 -17.276,18.196 -17.1,18.1C-17.02,18.052 -16.918,18 -16.794,17.944C-16.67,17.888 -16.534,17.836 -16.386,17.788C-16.238,17.74 -16.078,17.698 -15.906,17.662C-15.734,17.626 -15.556,17.608 -15.372,17.608C-15.028,17.608 -14.694,17.652 -14.37,17.74C-14.046,17.828 -13.76,17.966 -13.512,18.154C-13.264,18.342 -13.064,18.584 -12.912,18.88C-12.76,19.176 -12.684,19.532 -12.684,19.948C-12.684,20.284 -12.746,20.6 -12.87,20.896C-12.994,21.192 -13.14,21.456 -13.308,21.688C-13.476,21.92 -13.642,22.118 -13.806,22.282C-13.97,22.446 -14.088,22.564 -14.16,22.636ZM-15.516,22.828C-15.06,22.828 -14.71,22.656 -14.466,22.312C-14.222,21.968 -14.1,21.44 -14.1,20.728C-14.1,20.368 -14.15,20.034 -14.25,19.726C-14.35,19.418 -14.49,19.148 -14.67,18.916C-14.85,18.684 -15.06,18.502 -15.3,18.37C-15.54,18.238 -15.8,18.172 -16.08,18.172C-16.28,18.172 -16.47,18.224 -16.65,18.328C-16.83,18.432 -16.988,18.582 -17.124,18.778C-17.26,18.974 -17.368,19.212 -17.448,19.492C-17.528,19.772 -17.568,20.088 -17.568,20.44C-17.568,20.816 -17.51,21.152 -17.394,21.448C-17.278,21.744 -17.124,21.994 -16.932,22.198C-16.74,22.402 -16.522,22.558 -16.278,22.666C-16.034,22.774 -15.78,22.828 -15.516,22.828Z" style="fill-rule:nonzero;"/>
            <path d="M-12.18,18.64C-12.244,18.624 -12.274,18.592 -12.27,18.544C-12.266,18.496 -12.236,18.468 -12.18,18.46C-12.156,18.452 -12.08,18.424 -11.952,18.376C-11.824,18.328 -11.67,18.272 -11.49,18.208C-11.31,18.144 -11.122,18.076 -10.926,18.004C-10.73,17.932 -10.556,17.872 -10.404,17.824C-10.308,17.792 -10.242,17.77 -10.206,17.758C-10.17,17.746 -10.14,17.74 -10.116,17.74C-10.092,17.74 -10.064,17.75 -10.032,17.77C-10,17.79 -9.992,17.82 -10.008,17.86C-10.032,17.924 -10.058,18.076 -10.086,18.316C-10.114,18.556 -10.14,18.822 -10.164,19.114C-10.188,19.406 -10.21,19.696 -10.23,19.984C-10.25,20.272 -10.26,20.5 -10.26,20.668C-10.26,21.308 -10.124,21.802 -9.852,22.15C-9.58,22.498 -9.156,22.672 -8.58,22.672C-8.284,22.672 -8.038,22.612 -7.842,22.492C-7.646,22.372 -7.496,22.232 -7.392,22.072C-7.32,21.968 -7.272,21.74 -7.248,21.388C-7.248,21.324 -7.246,21.24 -7.242,21.136C-7.238,21.032 -7.234,20.922 -7.23,20.806C-7.226,20.69 -7.222,20.578 -7.218,20.47C-7.214,20.362 -7.212,20.272 -7.212,20.2C-7.204,19.832 -7.214,19.49 -7.242,19.174C-7.27,18.858 -7.312,18.624 -7.368,18.472C-7.392,18.376 -7.44,18.328 -7.512,18.328C-7.56,18.328 -7.606,18.33 -7.65,18.334C-7.694,18.338 -7.72,18.304 -7.728,18.232C-7.728,18.208 -7.704,18.182 -7.656,18.154C-7.608,18.126 -7.516,18.084 -7.38,18.028C-7.252,17.98 -7.11,17.932 -6.954,17.884C-6.798,17.836 -6.644,17.796 -6.492,17.764C-6.34,17.732 -6.204,17.71 -6.084,17.698C-5.964,17.686 -5.876,17.692 -5.82,17.716C-5.82,17.724 -5.814,17.734 -5.802,17.746C-5.79,17.758 -5.78,17.784 -5.772,17.824C-5.756,17.872 -5.766,18.022 -5.802,18.274C-5.838,18.526 -5.876,18.936 -5.916,19.504C-5.948,19.896 -5.976,20.276 -6,20.644C-6.024,21.012 -6.036,21.292 -6.036,21.484C-6.036,21.86 -5.966,22.158 -5.826,22.378C-5.686,22.598 -5.512,22.708 -5.304,22.708C-5.168,22.708 -5.038,22.68 -4.914,22.624C-4.79,22.568 -4.7,22.52 -4.644,22.48C-4.58,22.48 -4.546,22.508 -4.542,22.564C-4.538,22.62 -4.552,22.656 -4.584,22.672C-4.704,22.752 -4.87,22.852 -5.082,22.972C-5.294,23.092 -5.514,23.206 -5.742,23.314C-5.97,23.422 -6.188,23.514 -6.396,23.59C-6.604,23.666 -6.772,23.704 -6.9,23.704C-6.964,23.704 -7.022,23.662 -7.074,23.578C-7.126,23.494 -7.168,23.392 -7.2,23.272C-7.232,23.152 -7.256,23.028 -7.272,22.9C-7.288,22.772 -7.296,22.66 -7.296,22.564C-7.464,22.684 -7.656,22.81 -7.872,22.942C-8.088,23.074 -8.312,23.198 -8.544,23.314C-8.776,23.43 -9.006,23.524 -9.234,23.596C-9.462,23.668 -9.672,23.704 -9.864,23.704C-10.352,23.704 -10.752,23.574 -11.064,23.314C-11.376,23.054 -11.532,22.716 -11.532,22.3C-11.532,22.212 -11.524,22.08 -11.508,21.904C-11.492,21.728 -11.472,21.528 -11.448,21.304C-11.424,21.08 -11.404,20.84 -11.388,20.584C-11.372,20.328 -11.364,20.08 -11.364,19.84C-11.364,19.472 -11.422,19.19 -11.538,18.994C-11.654,18.798 -11.804,18.688 -11.988,18.664L-12.18,18.64Z" style="fill-rule:nonzero;"/>
            <path d="M-2.676,20.428C-2.684,20.5 -2.692,20.564 -2.7,20.62C-2.708,20.676 -2.714,20.74 -2.718,20.812C-2.722,20.884 -2.726,20.974 -2.73,21.082C-2.734,21.19 -2.736,21.332 -2.736,21.508C-2.736,21.796 -2.726,22.032 -2.706,22.216C-2.686,22.4 -2.656,22.546 -2.616,22.654C-2.576,22.762 -2.526,22.836 -2.466,22.876C-2.406,22.916 -2.332,22.936 -2.244,22.936C-2.188,22.936 -2.128,22.928 -2.064,22.912C-2.048,22.912 -2.034,22.934 -2.022,22.978C-2.01,23.022 -2.012,23.052 -2.028,23.068C-2.076,23.108 -2.17,23.166 -2.31,23.242C-2.45,23.318 -2.608,23.392 -2.784,23.464C-2.96,23.536 -3.142,23.6 -3.33,23.656C-3.518,23.712 -3.676,23.74 -3.804,23.74C-3.916,23.74 -4.004,23.726 -4.068,23.698C-4.132,23.67 -4.164,23.636 -4.164,23.596C-4.164,23.556 -4.16,23.532 -4.152,23.524C-4.144,23.516 -4.132,23.496 -4.116,23.464C-4.1,23.424 -4.088,23.374 -4.08,23.314C-4.072,23.254 -4.06,23.184 -4.044,23.104C-4.028,22.992 -4.012,22.85 -3.996,22.678C-3.98,22.506 -3.964,22.318 -3.948,22.114C-3.932,21.91 -3.918,21.698 -3.906,21.478C-3.894,21.258 -3.888,21.044 -3.888,20.836C-3.888,20.748 -3.89,20.638 -3.894,20.506C-3.898,20.374 -3.904,20.204 -3.912,19.996C-3.92,19.764 -3.946,19.566 -3.99,19.402C-4.034,19.238 -4.09,19.106 -4.158,19.006C-4.226,18.906 -4.302,18.832 -4.386,18.784C-4.47,18.736 -4.552,18.712 -4.632,18.712L-4.752,18.712C-4.792,18.712 -4.832,18.716 -4.872,18.724C-4.904,18.724 -4.92,18.688 -4.92,18.616C-4.92,18.6 -4.914,18.586 -4.902,18.574C-4.89,18.562 -4.852,18.536 -4.788,18.496C-4.684,18.424 -4.544,18.336 -4.368,18.232C-4.192,18.128 -4.012,18.032 -3.828,17.944C-3.644,17.856 -3.47,17.78 -3.306,17.716C-3.142,17.652 -3.016,17.62 -2.928,17.62C-2.696,17.62 -2.58,17.752 -2.58,18.016C-2.58,18.056 -2.584,18.128 -2.592,18.232C-2.6,18.336 -2.606,18.442 -2.61,18.55C-2.614,18.658 -2.62,18.76 -2.628,18.856C-2.636,18.952 -2.64,19.016 -2.64,19.048C-2.472,18.888 -2.292,18.724 -2.1,18.556C-1.908,18.388 -1.7,18.234 -1.476,18.094C-1.252,17.954 -1.016,17.84 -0.768,17.752C-0.52,17.664 -0.264,17.62 0,17.62C0.48,17.62 0.874,17.758 1.182,18.034C1.49,18.31 1.644,18.748 1.644,19.348C1.644,19.508 1.634,19.696 1.614,19.912C1.594,20.128 1.572,20.352 1.548,20.584C1.524,20.816 1.502,21.044 1.482,21.268C1.462,21.492 1.452,21.692 1.452,21.868C1.452,22.508 1.66,22.828 2.076,22.828C2.156,22.828 2.246,22.814 2.346,22.786C2.446,22.758 2.542,22.726 2.634,22.69C2.726,22.654 2.808,22.618 2.88,22.582C2.952,22.546 3,22.516 3.024,22.492C3.032,22.484 3.042,22.49 3.054,22.51C3.066,22.53 3.076,22.556 3.084,22.588C3.092,22.62 3.094,22.648 3.09,22.672C3.086,22.696 3.08,22.712 3.072,22.72C3.008,22.76 2.87,22.836 2.658,22.948C2.446,23.06 2.21,23.174 1.95,23.29C1.69,23.406 1.432,23.51 1.176,23.602C0.92,23.694 0.716,23.74 0.564,23.74C0.38,23.74 0.254,23.696 0.186,23.608C0.118,23.52 0.084,23.428 0.084,23.332C0.084,23.268 0.094,23.188 0.114,23.092C0.134,22.996 0.16,22.84 0.192,22.624C0.224,22.392 0.254,22.12 0.282,21.808C0.31,21.496 0.324,21.16 0.324,20.8C0.324,20.096 0.194,19.562 -0.066,19.198C-0.326,18.834 -0.652,18.652 -1.044,18.652C-1.292,18.652 -1.512,18.7 -1.704,18.796C-1.896,18.892 -2.06,19.022 -2.196,19.186C-2.332,19.35 -2.44,19.538 -2.52,19.75C-2.6,19.962 -2.652,20.188 -2.676,20.428Z" style="fill-rule:nonzero;"/>
            <path d="M8.532,21.928C8.548,21.912 8.562,21.914 8.574,21.934C8.586,21.954 8.594,21.982 8.598,22.018C8.602,22.054 8.6,22.092 8.592,22.132C8.584,22.172 8.568,22.204 8.544,22.228C8.384,22.38 8.184,22.54 7.944,22.708C7.704,22.876 7.456,23.032 7.2,23.176C7.128,23.216 7.028,23.268 6.9,23.332C6.772,23.396 6.63,23.458 6.474,23.518C6.318,23.578 6.158,23.63 5.994,23.674C5.83,23.718 5.676,23.74 5.532,23.74C5.244,23.74 4.972,23.684 4.716,23.572C4.46,23.46 4.236,23.306 4.044,23.11C3.852,22.914 3.702,22.68 3.594,22.408C3.486,22.136 3.432,21.84 3.432,21.52C3.432,21.176 3.48,20.852 3.576,20.548C3.672,20.244 3.782,19.972 3.906,19.732C4.03,19.492 4.148,19.29 4.26,19.126C4.372,18.962 4.448,18.84 4.488,18.76C4.336,18.752 4.198,18.746 4.074,18.742C3.95,18.738 3.832,18.736 3.72,18.736C3.464,18.736 3.248,18.738 3.072,18.742C2.896,18.746 2.74,18.764 2.604,18.796C2.54,18.812 2.48,18.844 2.424,18.892C2.368,18.94 2.32,18.976 2.28,19C2.264,18.984 2.242,18.962 2.214,18.934C2.186,18.906 2.172,18.876 2.172,18.844C2.172,18.828 2.176,18.816 2.184,18.808C2.184,18.8 2.236,18.754 2.34,18.67C2.444,18.586 2.574,18.486 2.73,18.37C2.886,18.254 3.058,18.126 3.246,17.986C3.434,17.846 3.614,17.716 3.786,17.596C3.958,17.476 4.106,17.374 4.23,17.29C4.354,17.206 4.436,17.156 4.476,17.14C4.524,17.124 4.572,17.132 4.62,17.164C4.668,17.196 4.684,17.22 4.668,17.236C4.644,17.252 4.608,17.282 4.56,17.326C4.512,17.37 4.496,17.408 4.512,17.44C4.6,17.512 4.752,17.576 4.968,17.632C5.184,17.688 5.428,17.734 5.7,17.77C5.972,17.806 6.252,17.834 6.54,17.854C6.828,17.874 7.088,17.884 7.32,17.884C7.664,17.884 7.94,17.874 8.148,17.854C8.356,17.834 8.528,17.808 8.664,17.776C8.792,17.744 8.876,17.72 8.916,17.704C8.924,17.704 8.94,17.716 8.964,17.74C8.988,17.764 9,17.792 9,17.824C9,17.84 8.942,17.88 8.826,17.944C8.71,18.008 8.592,18.076 8.472,18.148C8.4,18.188 8.314,18.24 8.214,18.304C8.114,18.368 8.006,18.43 7.89,18.49C7.774,18.55 7.652,18.604 7.524,18.652C7.396,18.7 7.272,18.728 7.152,18.736C7.032,18.752 6.892,18.764 6.732,18.772C6.572,18.78 6.404,18.786 6.228,18.79C6.052,18.794 5.874,18.798 5.694,18.802C5.514,18.806 5.348,18.808 5.196,18.808C5.172,18.848 5.134,18.914 5.082,19.006C5.03,19.098 4.98,19.216 4.932,19.36C4.884,19.504 4.84,19.668 4.8,19.852C4.76,20.036 4.74,20.236 4.74,20.452C4.74,20.78 4.79,21.082 4.89,21.358C4.99,21.634 5.13,21.872 5.31,22.072C5.49,22.272 5.704,22.428 5.952,22.54C6.2,22.652 6.468,22.708 6.756,22.708C6.924,22.708 7.086,22.688 7.242,22.648C7.398,22.608 7.546,22.556 7.686,22.492C7.826,22.428 7.956,22.358 8.076,22.282C8.196,22.206 8.3,22.132 8.388,22.06L8.532,21.928Z" style="fill-rule:nonzero;"/>
            <path d="M14.064,22.192C13.976,22.288 13.84,22.42 13.656,22.588C13.472,22.756 13.25,22.924 12.99,23.092C12.73,23.26 12.44,23.404 12.12,23.524C11.8,23.644 11.46,23.704 11.1,23.704C10.772,23.704 10.452,23.654 10.14,23.554C9.828,23.454 9.548,23.302 9.3,23.098C9.052,22.894 8.854,22.634 8.706,22.318C8.558,22.002 8.484,21.624 8.484,21.184C8.484,20.824 8.508,20.514 8.556,20.254C8.604,19.994 8.668,19.766 8.748,19.57C8.828,19.374 8.918,19.206 9.018,19.066C9.118,18.926 9.22,18.8 9.324,18.688C9.452,18.544 9.608,18.408 9.792,18.28C9.976,18.152 10.174,18.036 10.386,17.932C10.598,17.828 10.822,17.746 11.058,17.686C11.294,17.626 11.532,17.596 11.772,17.596C12.204,17.596 12.542,17.668 12.786,17.812C13.03,17.956 13.152,18.156 13.152,18.412C13.152,18.572 13.104,18.72 13.008,18.856C13.088,18.832 13.19,18.792 13.314,18.736C13.438,18.68 13.564,18.622 13.692,18.562C13.82,18.502 13.934,18.448 14.034,18.4C14.134,18.352 14.2,18.316 14.232,18.292C14.248,18.276 14.266,18.27 14.286,18.274C14.306,18.278 14.316,18.292 14.316,18.316C14.316,18.42 14.296,18.506 14.256,18.574C14.216,18.642 14.168,18.696 14.112,18.736C13.984,18.816 13.8,18.916 13.56,19.036C13.32,19.156 13.054,19.282 12.762,19.414C12.47,19.546 12.168,19.678 11.856,19.81C11.544,19.942 11.25,20.068 10.974,20.188C10.698,20.308 10.458,20.414 10.254,20.506C10.05,20.598 9.912,20.664 9.84,20.704C9.84,20.976 9.894,21.23 10.002,21.466C10.11,21.702 10.26,21.908 10.452,22.084C10.644,22.26 10.874,22.398 11.142,22.498C11.41,22.598 11.704,22.648 12.024,22.648C12.312,22.648 12.572,22.618 12.804,22.558C13.036,22.498 13.232,22.43 13.392,22.354C13.552,22.278 13.678,22.21 13.77,22.15C13.862,22.09 13.912,22.06 13.92,22.06C13.952,22.06 13.984,22.074 14.016,22.102C14.048,22.13 14.064,22.16 14.064,22.192ZM9.84,20.356C9.976,20.308 10.13,20.25 10.302,20.182C10.474,20.114 10.642,20.04 10.806,19.96C10.97,19.88 11.12,19.804 11.256,19.732C11.392,19.66 11.496,19.596 11.568,19.54C11.712,19.436 11.784,19.26 11.784,19.012C11.784,18.916 11.766,18.816 11.73,18.712C11.694,18.608 11.64,18.514 11.568,18.43C11.496,18.346 11.408,18.278 11.304,18.226C11.2,18.174 11.084,18.148 10.956,18.148C10.844,18.148 10.724,18.186 10.596,18.262C10.468,18.338 10.348,18.462 10.236,18.634C10.124,18.806 10.03,19.034 9.954,19.318C9.878,19.602 9.84,19.948 9.84,20.356Z" style="fill-rule:nonzero;"/>
            <path d="M19.632,18.496C19.544,18.568 19.44,18.658 19.32,18.766C19.2,18.874 19.074,18.978 18.942,19.078C18.81,19.178 18.676,19.264 18.54,19.336C18.404,19.408 18.272,19.444 18.144,19.444C18.032,19.444 17.932,19.418 17.844,19.366C17.756,19.314 17.674,19.258 17.598,19.198C17.522,19.138 17.448,19.082 17.376,19.03C17.304,18.978 17.228,18.952 17.148,18.952C16.932,18.952 16.75,19.04 16.602,19.216C16.454,19.392 16.334,19.616 16.242,19.888C16.15,20.16 16.082,20.456 16.038,20.776C15.994,21.096 15.972,21.404 15.972,21.7C15.972,21.948 15.982,22.15 16.002,22.306C16.022,22.462 16.052,22.586 16.092,22.678C16.132,22.77 16.186,22.832 16.254,22.864C16.322,22.896 16.404,22.912 16.5,22.912C16.604,22.912 16.716,22.896 16.836,22.864C16.86,22.856 16.878,22.872 16.89,22.912C16.902,22.952 16.908,22.984 16.908,23.008C16.908,23.024 16.896,23.042 16.872,23.062C16.848,23.082 16.832,23.092 16.824,23.092C16.648,23.164 16.468,23.242 16.284,23.326C16.1,23.41 15.948,23.48 15.828,23.536C15.716,23.584 15.582,23.636 15.426,23.692C15.27,23.748 15.136,23.776 15.024,23.776C14.896,23.776 14.79,23.756 14.706,23.716C14.622,23.676 14.58,23.636 14.58,23.596C14.58,23.556 14.59,23.52 14.61,23.488C14.63,23.456 14.648,23.396 14.664,23.308C14.68,23.188 14.698,23.046 14.718,22.882C14.738,22.718 14.758,22.54 14.778,22.348C14.798,22.156 14.814,21.958 14.826,21.754C14.838,21.55 14.844,21.348 14.844,21.148C14.844,20.7 14.83,20.32 14.802,20.008C14.774,19.696 14.724,19.444 14.652,19.252C14.58,19.06 14.482,18.922 14.358,18.838C14.234,18.754 14.076,18.712 13.884,18.712L13.776,18.712C13.744,18.712 13.712,18.716 13.68,18.724C13.632,18.724 13.608,18.7 13.608,18.652C13.608,18.604 13.632,18.568 13.68,18.544C13.768,18.488 13.904,18.406 14.088,18.298C14.272,18.19 14.462,18.086 14.658,17.986C14.854,17.886 15.044,17.796 15.228,17.716C15.412,17.636 15.548,17.596 15.636,17.596C15.74,17.596 15.828,17.63 15.9,17.698C15.972,17.766 16.026,17.852 16.062,17.956C16.098,18.06 16.124,18.178 16.14,18.31C16.156,18.442 16.164,18.572 16.164,18.7C16.164,18.796 16.162,18.896 16.158,19C16.154,19.104 16.152,19.216 16.152,19.336C16.512,18.808 16.836,18.398 17.124,18.106C17.412,17.814 17.684,17.668 17.94,17.668C18.036,17.668 18.13,17.708 18.222,17.788C18.314,17.868 18.412,17.958 18.516,18.058C18.62,18.158 18.728,18.248 18.84,18.328C18.952,18.408 19.068,18.448 19.188,18.448C19.292,18.448 19.368,18.436 19.416,18.412C19.464,18.388 19.504,18.368 19.536,18.352C19.6,18.352 19.632,18.396 19.632,18.484L19.632,18.496Z" style="fill-rule:nonzero;"/>
        </g>
        <g transform="matrix(1,0,0,1,62.3138,346.656)">
            <text x="-27.06px" y="23.596px" style="font-family:'Luminari-Regular', 'Luminari';font-size:12px;">Counter</text>
        </g>
        <g transform="matrix(1,0,0,1,58.164,339.27)">
            <g transform="matrix(0.8973,0,0,0.884326,9.28968,12.4373)">
                <circle cx="3.434" cy="5.159" r="2.172" style="stroke:black;stroke-width:0.94px;"/>
            </g>
            <g transform="matrix(0.8973,0,0,0.884326,4.54775,12.4373)">
                <circle cx="3.434" cy="5.159" r="2.172" style="fill:white;stroke:black;stroke-width:0.94px;"/>
            </g>
            <g transform="matrix(0.8973,0,0,0.884326,-0.194181,12.4373)">
                <circle cx="3.434" cy="5.159" r="2.172" style="stroke:black;stroke-width:0.94px;"/>
            </g>
            <g transform="matrix(0.8973,0,0,0.884326,14.0316,12.4373)">
                <circle cx="3.434" cy="5.159" r="2.172" style="stroke:black;stroke-width:0.94px;"/>
            </g>
            <g transform="matrix(0.8973,0,0,0.884326,9.28968,6.70878)">
                <circle cx="3.434" cy="5.159" r="2.172" style="fill:white;stroke:black;stroke-width:0.94px;"/>
            </g>
            <g transform="matrix(0.8973,0,0,0.884326,4.54775,6.70878)">
                <circle cx="3.434" cy="5.159" r="2.172" style="stroke:black;stroke-width:0.94px;"/>
            </g>
            <g transform="matrix(0.8973,0,0,0.884326,-0.194181,6.70878)">
                <circle cx="3.434" cy="5.159" r="2.172" style="stroke:black;stroke-width:0.94px;"/>
            </g>
            <g transform="matrix(0.8973,0,0,0.884326,14.0316,6.70878)">
                <circle cx="3.434" cy="5.159" r="2.172" style="fill:white;stroke:black;stroke-width:0.94px;"/>
            </g>
            <g transform="matrix(0.8973,0,0,0.884326,9.28968,0.980236)">
                <circle cx="3.434" cy="5.159" r="2.172" style="fill:white;stroke:black;stroke-width:0.94px;"/>
            </g>
            <g transform="matrix(0.8973,0,0,0.884326,4.54775,0.980236)">
                <circle cx="3.434" cy="5.159" r="2.172" style="fill:white;stroke:black;stroke-width:0.94px;"/>
            </g>
            <g transform="matrix(0.8973,0,0,0.884326,-0.194181,0.980236)">
                <circle cx="3.434" cy="5.159" r="2.172" style="stroke:black;stroke-width:0.94px;"/>
            </g>
            <g transform="matrix(0.8973,0,0,0.884326,14.0316,0.980236)">
                <circle cx="3.434" cy="5.159" r="2.172" style="stroke:black;stroke-width:0.94px;"/>
            </g>
        </g>
        <g transform="matrix(0.0178906,0,0,0.0202937,37.7207,339.525)">
            <g transform="matrix(55.8954,0,0,49.2765,-878.032,-330.791)">
                <path d="M27.733,13.757C27.957,11.616 28.949,10 30.136,10C31.489,10 32.587,12.095 32.587,14.677C32.587,15.669 32.424,16.59 32.148,17.347C32.432,17.974 32.587,18.65 32.587,19.353C32.587,22.678 29.128,25.378 24.868,25.378C20.609,25.378 17.15,22.678 17.15,19.353C17.15,18.65 17.305,17.974 17.589,17.347C17.313,16.59 17.15,15.669 17.15,14.677C17.15,12.095 18.248,10 19.601,10C20.788,10 21.779,11.616 22.003,13.757L22.04,13.746C22.915,13.476 23.87,13.328 24.868,13.328C25.881,13.328 26.847,13.48 27.733,13.757ZM17.609,17.304L17.606,17.31L17.609,17.304ZM32.128,17.305L32.131,17.31L32.128,17.305ZM17.627,17.265L17.623,17.273L17.627,17.265ZM32.11,17.266L32.113,17.273L32.11,17.266ZM17.645,17.227L17.641,17.236L17.645,17.227ZM32.092,17.228L32.096,17.236L32.092,17.228ZM17.663,17.19L17.659,17.2L17.663,17.19ZM32.074,17.191L32.078,17.199L32.074,17.191ZM17.682,17.153L17.677,17.162L17.682,17.153ZM32.055,17.154L32.059,17.161L32.055,17.154ZM17.7,17.117L17.696,17.125L17.7,17.117ZM32.037,17.117L32.04,17.123L32.037,17.117ZM17.719,17.081L17.717,17.085L17.719,17.081ZM32.018,17.081L32.019,17.082L32.018,17.081ZM17.782,16.964L17.778,16.971L17.782,16.964ZM31.957,16.968L31.958,16.97L31.957,16.968ZM17.804,16.925L17.798,16.935L17.804,16.925ZM31.935,16.928L31.938,16.934L31.935,16.928ZM17.825,16.888L17.818,16.9L17.825,16.888ZM31.914,16.891L31.918,16.899L31.914,16.891ZM17.845,16.852L17.838,16.865L17.845,16.852ZM31.893,16.854L31.898,16.863L31.893,16.854ZM17.866,16.817L17.859,16.829L17.866,16.817ZM31.871,16.819L31.876,16.827L31.871,16.819ZM17.888,16.782L17.88,16.794L17.888,16.782ZM31.85,16.783L31.855,16.791L31.85,16.783ZM17.909,16.747L17.902,16.758L17.909,16.747ZM31.829,16.748L31.832,16.754L31.829,16.748ZM17.931,16.712L17.925,16.72L17.931,16.712ZM31.807,16.713L31.808,16.714L31.807,16.713ZM17.979,16.635L17.975,16.642L17.979,16.635ZM18.005,16.596L17.998,16.608L18.005,16.596ZM31.735,16.602L31.738,16.606L31.735,16.602ZM18.029,16.561L18.02,16.573L18.029,16.561ZM31.711,16.564L31.716,16.572L31.711,16.564ZM18.052,16.526L18.043,16.539L18.052,16.526ZM31.686,16.529L31.692,16.537L31.686,16.529ZM18.076,16.492L18.066,16.505L18.076,16.492ZM31.663,16.494L31.669,16.503L31.663,16.494ZM18.1,16.458L18.09,16.471L18.1,16.458ZM31.639,16.459L31.645,16.469L31.639,16.459ZM18.124,16.424L18.114,16.437L18.124,16.424ZM31.614,16.425L31.62,16.434L31.614,16.425ZM18.148,16.39L18.139,16.403L18.148,16.39ZM31.59,16.392L31.595,16.398L31.59,16.392ZM18.172,16.357L18.164,16.367L18.172,16.357ZM31.566,16.358L31.567,16.36L31.566,16.358ZM18.197,16.324L18.196,16.324L18.197,16.324ZM18.23,16.28L18.222,16.291L18.23,16.28ZM31.513,16.288L31.514,16.289L31.513,16.288ZM18.257,16.245L18.247,16.258L18.257,16.245ZM31.484,16.249L31.489,16.256L31.484,16.249ZM18.283,16.211L18.272,16.225L18.283,16.211ZM31.456,16.214L31.463,16.223L31.456,16.214ZM18.309,16.178L18.298,16.192L18.309,16.178ZM31.43,16.18L31.438,16.19L31.43,16.18ZM18.335,16.145L18.324,16.16L18.335,16.145ZM31.403,16.147L31.411,16.158L31.403,16.147ZM18.362,16.113L18.35,16.127L18.362,16.113ZM31.376,16.114L31.385,16.125L31.376,16.114ZM18.388,16.081L18.377,16.094L18.388,16.081ZM31.35,16.082L31.357,16.091L31.35,16.082ZM18.415,16.049L18.404,16.061L18.415,16.049ZM31.323,16.05L31.329,16.057L31.323,16.05ZM18.442,16.017L18.433,16.027L18.442,16.017ZM31.295,16.018L31.298,16.021L31.295,16.018ZM18.473,15.981L18.469,15.985L18.473,15.981ZM18.507,15.942L18.497,15.954L18.507,15.942ZM31.234,15.947L31.239,15.953L31.234,15.947ZM18.536,15.909L18.525,15.922L18.536,15.909ZM31.203,15.912L31.211,15.921L31.203,15.912ZM18.565,15.877L18.553,15.891L18.565,15.877ZM31.174,15.879L31.183,15.89L31.174,15.879ZM18.594,15.846L18.581,15.86L18.594,15.846ZM31.145,15.847L31.155,15.859L31.145,15.847ZM18.622,15.815L18.61,15.828L18.622,15.815ZM31.115,15.816L31.126,15.827L31.115,15.816ZM18.651,15.784L18.639,15.797L18.651,15.784ZM31.086,15.785L31.097,15.796L31.086,15.785ZM18.68,15.753L18.668,15.766L18.68,15.753ZM31.057,15.754L31.067,15.765L31.057,15.754ZM18.71,15.723L18.698,15.735L18.71,15.723ZM31.027,15.723L31.037,15.733L31.027,15.723ZM18.739,15.692L18.73,15.702L18.739,15.692ZM30.998,15.693L31.003,15.698L30.998,15.693ZM18.775,15.656L18.769,15.662L18.775,15.656ZM30.965,15.659L30.967,15.662L30.965,15.659ZM18.81,15.621L18.799,15.632L18.81,15.621ZM30.928,15.622L30.937,15.632L30.928,15.622ZM18.842,15.59L18.83,15.602L18.842,15.59ZM30.895,15.591L30.907,15.602L30.895,15.591ZM18.873,15.56L18.86,15.572L18.873,15.56ZM30.864,15.56L30.876,15.572L30.864,15.56ZM18.904,15.53L18.891,15.543L18.904,15.53ZM30.832,15.53L30.846,15.543L30.832,15.53ZM30.801,15.5L30.814,15.513L30.801,15.5ZM18.936,15.501L18.923,15.513L18.936,15.501ZM30.769,15.471L30.783,15.484L30.769,15.471ZM18.967,15.471L18.954,15.483L18.967,15.471ZM30.738,15.442L30.751,15.454L30.738,15.442ZM18.999,15.442L18.986,15.454L18.999,15.442ZM30.706,15.413L30.719,15.425L30.706,15.413ZM19.031,15.413L19.019,15.424L19.031,15.413ZM30.674,15.384L30.684,15.394L30.674,15.384ZM19.063,15.385L19.056,15.391L19.063,15.385ZM30.63,15.346L30.642,15.356L30.63,15.346ZM19.101,15.35L19.095,15.356L19.101,15.35ZM30.595,15.315L30.61,15.328L30.595,15.315ZM19.139,15.318L19.128,15.327L19.139,15.318ZM30.561,15.286L30.577,15.3L30.561,15.286ZM19.173,15.288L19.161,15.299L19.173,15.288ZM30.528,15.258L30.544,15.272L30.528,15.258ZM19.207,15.26L19.194,15.271L19.207,15.26ZM30.494,15.23L30.511,15.244L30.494,15.23ZM19.241,15.231L19.227,15.243L19.241,15.231ZM30.461,15.202L30.478,15.216L30.461,15.202ZM19.274,15.204L19.261,15.215L19.274,15.204ZM30.427,15.175L30.444,15.189L30.427,15.175ZM19.308,15.176L19.295,15.187L19.308,15.176ZM30.393,15.147L30.41,15.161L30.393,15.147ZM19.342,15.149L19.33,15.158L19.342,15.149ZM30.359,15.12L30.376,15.134L30.359,15.12ZM19.377,15.121L19.366,15.129L19.377,15.121ZM30.325,15.093L30.343,15.107L30.326,15.094L30.305,15.078L30.325,15.093ZM19.411,15.094L19.409,15.096L19.411,15.094ZM30.273,15.053L30.292,15.068L30.273,15.053ZM19.452,15.062L19.446,15.067L19.452,15.062ZM30.238,15.027L30.257,15.041L30.238,15.027ZM19.492,15.032L19.481,15.04L19.492,15.032ZM30.203,15L30.222,15.015L30.203,15ZM19.529,15.004L19.516,15.013L19.529,15.004ZM30.168,14.974L30.187,14.989L30.168,14.974ZM19.565,14.977L19.552,14.987L19.565,14.977ZM30.132,14.948L30.152,14.963L30.132,14.948ZM19.601,14.951L19.588,14.961L19.601,14.951ZM30.097,14.922L30.117,14.937L30.097,14.922ZM19.637,14.925L19.624,14.934L19.637,14.925ZM30.061,14.897L30.081,14.911L30.061,14.897ZM19.673,14.899L19.661,14.908L19.673,14.899ZM30.025,14.871L30.046,14.886L30.025,14.871ZM19.71,14.873L19.698,14.881L19.71,14.873ZM29.988,14.846L30.011,14.862L29.988,14.846ZM19.746,14.848L19.738,14.853L19.746,14.848ZM29.954,14.822L29.915,14.796C29.928,14.805 29.941,14.813 29.954,14.822ZM19.826,14.793L19.821,14.796L19.826,14.793ZM29.858,14.758L29.881,14.773L29.858,14.758ZM19.868,14.765L19.858,14.771L19.868,14.765ZM29.822,14.734L29.845,14.749L29.822,14.734ZM19.907,14.739L19.896,14.747L19.907,14.739ZM29.785,14.71L29.807,14.724L29.785,14.71ZM19.946,14.714L19.933,14.722L19.946,14.714ZM29.747,14.686L29.77,14.7L29.747,14.686ZM19.984,14.689L19.971,14.697L19.984,14.689ZM29.71,14.662L29.733,14.676L29.71,14.662ZM20.023,14.665L20.01,14.673L20.023,14.665ZM29.672,14.638L29.696,14.653L29.672,14.638ZM20.061,14.641L20.049,14.648L20.061,14.641ZM29.634,14.615L29.659,14.63L29.634,14.615ZM20.099,14.617L20.09,14.623L20.099,14.617ZM29.494,14.531C29.537,14.556 29.58,14.582 29.623,14.608C29.581,14.582 29.538,14.556 29.494,14.531ZM20.138,14.593L20.134,14.596L20.138,14.593ZM20.221,14.543L20.218,14.545L20.221,14.543ZM29.458,14.51L29.483,14.525L29.458,14.51ZM20.266,14.517L20.257,14.522L20.266,14.517ZM29.42,14.488L29.444,14.502L29.42,14.488ZM20.308,14.493L20.297,14.499L20.308,14.493ZM29.381,14.466L29.405,14.48L29.381,14.466ZM20.349,14.47L20.337,14.477L20.349,14.47ZM29.341,14.444L29.366,14.457L29.341,14.444ZM20.389,14.447L20.377,14.454L20.389,14.447ZM29.302,14.422L29.327,14.436L29.302,14.422ZM20.43,14.425L20.418,14.431L20.43,14.425ZM29.262,14.4L29.288,14.414L29.262,14.4ZM20.47,14.403L20.46,14.408L20.47,14.403ZM29.222,14.379L29.249,14.393L29.222,14.379ZM20.51,14.381L20.503,14.385L20.51,14.381ZM29.186,14.359L29.143,14.337C29.157,14.344 29.171,14.352 29.186,14.359ZM29.077,14.303L29.105,14.317L29.077,14.303ZM20.638,14.314L20.636,14.315L20.638,14.314ZM29.038,14.283L29.064,14.296L29.038,14.283ZM20.685,14.29L20.677,14.294L20.685,14.29ZM28.998,14.263L29.023,14.276L28.998,14.263ZM20.729,14.268L20.719,14.273L20.729,14.268ZM28.957,14.243L28.982,14.255L28.957,14.243ZM20.772,14.247L20.761,14.252L20.772,14.247ZM28.916,14.223L28.941,14.235L28.916,14.223ZM20.814,14.226L20.803,14.232L20.814,14.226ZM28.875,14.203L28.899,14.215L28.875,14.203ZM20.857,14.206L20.846,14.211L20.857,14.206ZM28.833,14.184L28.858,14.195L28.833,14.184ZM20.899,14.186L20.891,14.19L20.899,14.186ZM28.791,14.164L28.817,14.176L28.791,14.164ZM20.942,14.166L20.937,14.168L20.942,14.166ZM28.752,14.146L28.707,14.126C28.722,14.133 28.737,14.139 28.752,14.146ZM28.643,14.097L28.667,14.108L28.643,14.097ZM21.075,14.106L21.074,14.106L21.075,14.106ZM28.601,14.079L28.624,14.089L28.601,14.079ZM21.124,14.084L21.117,14.087L21.124,14.084ZM28.558,14.061L28.581,14.071L28.558,14.061ZM21.17,14.065L21.161,14.068L21.17,14.065ZM28.516,14.043L28.538,14.052L28.516,14.043ZM21.215,14.046L21.204,14.05L21.215,14.046ZM28.473,14.025L28.494,14.034L28.473,14.025ZM21.259,14.027L21.249,14.031L21.259,14.027ZM28.429,14.007L28.451,14.016L28.429,14.007ZM21.303,14.009L21.294,14.013L21.303,14.009ZM28.386,13.989L28.406,13.998L28.386,13.989ZM21.347,13.991L21.341,13.994L21.347,13.991ZM28.342,13.972L28.361,13.979L28.342,13.972ZM21.392,13.973L21.391,13.974L21.392,13.973ZM28.298,13.955L28.311,13.96L28.298,13.955ZM28.243,13.934L28.254,13.938L28.243,13.934ZM28.195,13.915L28.21,13.921L28.195,13.915ZM21.531,13.92L21.53,13.92L21.531,13.92ZM28.149,13.898L28.165,13.904L28.149,13.898ZM21.581,13.901L21.575,13.903L21.581,13.901ZM28.103,13.882L28.119,13.888L28.103,13.882ZM21.629,13.884L21.62,13.887L21.629,13.884ZM28.058,13.866L28.074,13.871L28.058,13.866ZM21.675,13.867L21.666,13.87L21.675,13.867ZM28.013,13.85L28.028,13.855L28.013,13.85ZM21.721,13.851L21.713,13.854L21.721,13.851ZM27.968,13.834L27.981,13.839L27.968,13.834ZM21.767,13.835L21.76,13.837L21.767,13.835ZM27.922,13.819L27.932,13.822L27.922,13.819ZM21.813,13.819L21.809,13.821L21.813,13.819ZM27.877,13.803L27.879,13.804L27.877,13.803Z" style="fill:none;stroke:black;stroke-width:1.22px;"/>
            </g>
            <g transform="matrix(55.8954,0,0,49.2765,-878.032,-330.791)">
                <path d="M25.128,19.358C24.963,19.04 24.868,18.67 24.868,18.275C24.868,17.096 25.713,16.138 26.753,16.138C27.793,16.138 28.637,17.096 28.637,18.275C28.637,19.031 28.291,19.696 27.768,20.076C27.128,19.668 26.188,19.396 25.128,19.358ZM21.969,20.076C21.446,19.696 21.099,19.031 21.099,18.275C21.099,17.096 21.944,16.138 22.984,16.138C24.024,16.138 24.868,17.096 24.868,18.275C24.868,18.67 24.774,19.04 24.609,19.358C23.549,19.396 22.609,19.668 21.969,20.076Z" style="fill:none;stroke:black;stroke-width:1.22px;"/>
            </g>
            <g transform="matrix(1,0,0,1,-53.1856,50.0357)">
                <ellipse cx="565.186" cy="671.455" rx="210.672" ry="98.631" style="fill:none;stroke:black;stroke-width:63.81px;"/>
            </g>
            <g transform="matrix(51.2,0,0,45.1371,0.670978,88.9676)">
                <path d="M12.057,13.791C12.057,13.668 11.958,13.568 11.835,13.568L8.139,13.568C8.016,13.568 7.916,13.668 7.916,13.791L7.916,14.236C7.916,14.359 8.016,14.458 8.139,14.458L11.835,14.458C11.958,14.458 12.057,14.359 12.057,14.236L12.057,13.791Z"/>
            </g>
        </g>
    </g>
</svg>
