<?xml version="1.0" encoding="UTF-8" standalone="no"?>
<!DOCTYPE svg PUBLIC "-//W3C//DTD SVG 1.1//EN" "http://www.w3.org/Graphics/SVG/1.1/DTD/svg11.dtd">
<svg width="100%" height="100%" viewBox="0 0 60 380" version="1.1" xmlns="http://www.w3.org/2000/svg" xmlns:xlink="http://www.w3.org/1999/xlink" xml:space="preserve" xmlns:serif="http://www.serif.com/" style="fill-rule:evenodd;clip-rule:evenodd;stroke-linecap:round;stroke-linejoin:round;stroke-miterlimit:1.5;">
    <g transform="matrix(0.28834,0,0,2.01589,-15.1541,-120.797)">
        <rect x="52.556" y="59.922" width="208.087" height="188.503" style="fill:rgb(154,178,191);stroke:rgb(5,5,5);stroke-width:1.39px;"/>
    </g>
    <g transform="matrix(1,0,0,1,-88.8763,183.551)">
        <g transform="matrix(0.3556,0,0,72.8139,83.9261,-21717.6)">
            <rect x="13.921" y="296.737" width="168.729" height="3.935" style="fill:rgb(191,191,191);"/>
        </g>
        <g transform="matrix(1.65167,0,0,0.695794,-178.624,112.334)">
            <rect x="161.957" y="57.989" width="36.327" height="2.261"/>
        </g>
        <g transform="matrix(1.65167,0,0,0.695794,-178.624,78.6945)">
            <rect x="161.957" y="57.989" width="36.327" height="2.261"/>
        </g>
        <g transform="matrix(1.65167,0,0,0.695794,-178.624,43.3266)">
            <rect x="161.957" y="57.989" width="36.327" height="2.261"/>
        </g>
        <g transform="matrix(1.65167,0,0,0.695794,-178.624,8.01938)">
            <rect x="161.957" y="57.989" width="36.327" height="2.261"/>
        </g>
        <g transform="matrix(1.65167,0,0,0.695794,-178.624,-25.4274)">
            <rect x="161.957" y="57.989" width="36.327" height="2.261"/>
        </g>
        <g transform="matrix(1.65167,0,0,0.695794,-178.624,-60.2029)">
            <rect x="161.957" y="57.989" width="36.327" height="2.261"/>
        </g>
        <g transform="matrix(1.65167,0,0,0.695794,-178.624,-94.5002)">
            <rect x="161.957" y="57.989" width="36.327" height="2.261"/>
        </g>
        <g transform="matrix(1.65167,0,0,0.695794,-178.624,-130.158)">
            <rect x="161.957" y="57.989" width="36.327" height="2.261"/>
        </g>
        <g id="BitOut8-output-P" serif:id="BitOut8#output$P" transform="matrix(0.175002,0,0,0.175002,95.2635,120.969)">
            <rect x="53.94" y="106.916" width="161.978" height="161.978" style="fill:rgb(77,77,77);"/>
        </g>
        <g id="BitOut7-output-P" serif:id="BitOut7#output$P" transform="matrix(0.175002,0,0,0.175002,95.2635,86.2175)">
            <rect x="53.94" y="106.916" width="161.978" height="161.978" style="fill:rgb(77,77,77);"/>
        </g>
        <g id="BitOut6-output-P" serif:id="BitOut6#output$P" transform="matrix(0.175002,0,0,0.175002,95.2635,16.7147)">
            <rect x="53.94" y="106.916" width="161.978" height="161.978" style="fill:rgb(77,77,77);"/>
        </g>
        <g id="BitOut5-output-P" serif:id="BitOut5#output$P" transform="matrix(0.175002,0,0,0.175002,95.2635,51.4661)">
            <rect x="53.94" y="106.916" width="161.978" height="161.978" style="fill:rgb(77,77,77);"/>
        </g>
        <g id="BitOut4-output-P" serif:id="BitOut4#output$P" transform="matrix(0.175002,0,0,0.175002,95.2635,-18.0367)">
            <rect x="53.94" y="106.916" width="161.978" height="161.978" style="fill:rgb(77,77,77);"/>
        </g>
        <g id="BitOut3-output-P" serif:id="BitOut3#output$P" transform="matrix(0.175002,0,0,0.175002,95.2635,-52.7881)">
            <rect x="53.94" y="106.916" width="161.978" height="161.978" style="fill:rgb(77,77,77);"/>
        </g>
        <g id="BitOut2-output-P" serif:id="BitOut2#output$P" transform="matrix(0.175002,0,0,0.175002,95.2635,-87.5395)">
            <rect x="53.94" y="106.916" width="161.978" height="161.978" style="fill:rgb(77,77,77);"/>
        </g>
        <g id="BitOut1-output-P" serif:id="BitOut1#output$P" transform="matrix(0.175002,0,0,0.175002,95.2635,-122.291)">
            <rect x="53.94" y="106.916" width="161.978" height="161.978" style="fill:rgb(77,77,77);"/>
        </g>
    </g>
    <g transform="matrix(1,0,0,1,-28.6123,-332.812)">
        <g id="BusIn-led" serif:id="BusIn#led" transform="matrix(1,0,0,1,-4.05429,43.7203)">
            <circle cx="42.167" cy="335.861" r="3.82" style="fill:rgb(230,230,230);"/>
        </g>
        <g id="BusOut-led" serif:id="BusOut#led" transform="matrix(1,0,0,1,35.9457,43.7203)">
            <circle cx="42.167" cy="335.861" r="3.82" style="fill:rgb(230,230,230);"/>
        </g>
        <g transform="matrix(1,0,0,1,62.3138,346.656)">
            <path d="M-22.2,23.344C-22.384,23.448 -22.616,23.556 -22.896,23.668C-23.176,23.78 -23.468,23.836 -23.772,23.836C-23.956,23.836 -24.088,23.82 -24.168,23.788C-24.248,23.756 -24.288,23.692 -24.288,23.596C-24.288,23.564 -24.282,23.528 -24.27,23.488C-24.258,23.448 -24.244,23.414 -24.228,23.386C-24.212,23.358 -24.192,23.338 -24.168,23.326C-24.144,23.314 -24.12,23.324 -24.096,23.356C-24.048,23.42 -23.976,23.456 -23.88,23.464C-23.784,23.472 -23.68,23.476 -23.568,23.476C-23.4,23.468 -23.248,23.41 -23.112,23.302C-22.976,23.194 -22.876,23.048 -22.812,22.864C-22.78,22.752 -22.748,22.576 -22.716,22.336C-22.684,22.096 -22.658,21.808 -22.638,21.472C-22.618,21.136 -22.602,20.762 -22.59,20.35C-22.578,19.938 -22.572,19.504 -22.572,19.048C-22.572,18.008 -22.6,17.198 -22.656,16.618C-22.712,16.038 -22.784,15.704 -22.872,15.616C-22.936,15.568 -23.016,15.53 -23.112,15.502C-23.208,15.474 -23.306,15.456 -23.406,15.448C-23.506,15.44 -23.604,15.436 -23.7,15.436C-23.796,15.436 -23.872,15.44 -23.928,15.448C-23.984,15.456 -24.028,15.44 -24.06,15.4C-24.092,15.36 -24.108,15.32 -24.108,15.28C-24.108,15.136 -24.056,15.064 -23.952,15.064C-23.896,15.064 -23.796,15.07 -23.652,15.082C-23.508,15.094 -23.342,15.106 -23.154,15.118C-22.966,15.13 -22.768,15.14 -22.56,15.148C-22.352,15.156 -22.164,15.16 -21.996,15.16C-21.788,15.16 -21.594,15.128 -21.414,15.064C-21.234,15 -21.048,14.928 -20.856,14.848C-20.664,14.768 -20.454,14.696 -20.226,14.632C-19.998,14.568 -19.732,14.536 -19.428,14.536C-19.052,14.536 -18.7,14.568 -18.372,14.632C-18.044,14.696 -17.76,14.794 -17.52,14.926C-17.28,15.058 -17.09,15.228 -16.95,15.436C-16.81,15.644 -16.74,15.888 -16.74,16.168C-16.74,16.488 -16.808,16.778 -16.944,17.038C-17.08,17.298 -17.25,17.528 -17.454,17.728C-17.658,17.928 -17.874,18.098 -18.102,18.238C-18.33,18.378 -18.536,18.484 -18.72,18.556C-18.424,18.58 -18.1,18.63 -17.748,18.706C-17.396,18.782 -17.068,18.898 -16.764,19.054C-16.46,19.21 -16.206,19.416 -16.002,19.672C-15.798,19.928 -15.696,20.248 -15.696,20.632C-15.696,20.936 -15.758,21.226 -15.882,21.502C-16.006,21.778 -16.172,22.034 -16.38,22.27C-16.588,22.506 -16.826,22.722 -17.094,22.918C-17.362,23.114 -17.642,23.28 -17.934,23.416C-18.226,23.552 -18.522,23.658 -18.822,23.734C-19.122,23.81 -19.4,23.848 -19.656,23.848C-19.808,23.848 -19.998,23.834 -20.226,23.806C-20.454,23.778 -20.688,23.74 -20.928,23.692C-21.168,23.644 -21.402,23.59 -21.63,23.53C-21.858,23.47 -22.048,23.408 -22.2,23.344ZM-21.168,20.896C-21.16,21.312 -21.148,21.612 -21.132,21.796C-21.116,21.98 -21.1,22.12 -21.084,22.216C-21.06,22.352 -21.002,22.486 -20.91,22.618C-20.818,22.75 -20.698,22.872 -20.55,22.984C-20.402,23.096 -20.23,23.186 -20.034,23.254C-19.838,23.322 -19.62,23.356 -19.38,23.356C-19.124,23.356 -18.884,23.312 -18.66,23.224C-18.436,23.136 -18.242,22.998 -18.078,22.81C-17.914,22.622 -17.784,22.38 -17.688,22.084C-17.592,21.788 -17.544,21.432 -17.544,21.016C-17.544,20.64 -17.604,20.32 -17.724,20.056C-17.844,19.792 -18.014,19.578 -18.234,19.414C-18.454,19.25 -18.72,19.132 -19.032,19.06C-19.344,18.988 -19.692,18.952 -20.076,18.952C-20.3,18.952 -20.512,18.954 -20.712,18.958C-20.912,18.962 -21.06,18.968 -21.156,18.976C-21.164,19.064 -21.168,19.156 -21.168,19.252L-21.168,20.896ZM-21,15.688C-21.016,15.792 -21.032,15.936 -21.048,16.12C-21.064,16.304 -21.08,16.518 -21.096,16.762C-21.112,17.006 -21.126,17.27 -21.138,17.554C-21.15,17.838 -21.16,18.132 -21.168,18.436C-21.16,18.46 -21.116,18.478 -21.036,18.49C-20.956,18.502 -20.862,18.512 -20.754,18.52C-20.646,18.528 -20.532,18.534 -20.412,18.538C-20.292,18.542 -20.184,18.544 -20.088,18.544C-19.936,18.544 -19.804,18.538 -19.692,18.526C-19.58,18.514 -19.482,18.494 -19.398,18.466C-19.314,18.438 -19.236,18.404 -19.164,18.364C-19.092,18.324 -19.02,18.272 -18.948,18.208C-18.812,18.104 -18.686,17.936 -18.57,17.704C-18.454,17.472 -18.396,17.152 -18.396,16.744C-18.396,16.456 -18.436,16.202 -18.516,15.982C-18.596,15.762 -18.7,15.578 -18.828,15.43C-18.956,15.282 -19.102,15.172 -19.266,15.1C-19.43,15.028 -19.6,14.992 -19.776,14.992C-19.864,14.992 -19.972,15.004 -20.1,15.028C-20.228,15.052 -20.352,15.09 -20.472,15.142C-20.592,15.194 -20.702,15.266 -20.802,15.358C-20.902,15.45 -20.968,15.56 -21,15.688Z" style="fill-rule:nonzero;"/>
            <path d="M-13.212,21.508C-13.212,21.676 -13.208,21.838 -13.2,21.994C-13.192,22.15 -13.164,22.284 -13.116,22.396C-13.068,22.508 -12.996,22.598 -12.9,22.666C-12.804,22.734 -12.668,22.768 -12.492,22.768C-12.404,22.768 -12.304,22.758 -12.192,22.738C-12.08,22.718 -11.974,22.692 -11.874,22.66C-11.774,22.628 -11.686,22.596 -11.61,22.564C-11.534,22.532 -11.488,22.508 -11.472,22.492C-11.448,22.468 -11.432,22.468 -11.424,22.492C-11.416,22.516 -11.414,22.546 -11.418,22.582C-11.422,22.618 -11.432,22.654 -11.448,22.69C-11.464,22.726 -11.484,22.752 -11.508,22.768C-11.588,22.808 -11.728,22.88 -11.928,22.984C-12.128,23.088 -12.364,23.196 -12.636,23.308C-12.892,23.42 -13.142,23.514 -13.386,23.59C-13.63,23.666 -13.832,23.704 -13.992,23.704C-14.176,23.704 -14.32,23.648 -14.424,23.536C-14.528,23.424 -14.58,23.284 -14.58,23.116C-14.58,23.06 -14.578,23.012 -14.574,22.972C-14.57,22.932 -14.564,22.88 -14.556,22.816C-14.548,22.736 -14.534,22.59 -14.514,22.378C-14.494,22.166 -14.474,21.928 -14.454,21.664C-14.434,21.4 -14.416,21.134 -14.4,20.866C-14.384,20.598 -14.376,20.368 -14.376,20.176L-14.376,19.756C-14.376,19.548 -14.388,19.364 -14.412,19.204C-14.436,19.044 -14.476,18.92 -14.532,18.832C-14.572,18.776 -14.622,18.73 -14.682,18.694C-14.742,18.658 -14.816,18.64 -14.904,18.64C-14.952,18.64 -15,18.65 -15.048,18.67C-15.096,18.69 -15.132,18.7 -15.156,18.7C-15.172,18.7 -15.198,18.676 -15.234,18.628C-15.27,18.58 -15.268,18.544 -15.228,18.52C-15.172,18.48 -15.056,18.416 -14.88,18.328C-14.704,18.24 -14.512,18.144 -14.304,18.04C-14.08,17.928 -13.864,17.83 -13.656,17.746C-13.448,17.662 -13.3,17.62 -13.212,17.62C-13.124,17.62 -13.064,17.646 -13.032,17.698C-13,17.75 -12.984,17.808 -12.984,17.872L-12.984,17.92C-12.984,18 -12.996,18.128 -13.02,18.304C-13.044,18.48 -13.07,18.696 -13.098,18.952C-13.126,19.208 -13.152,19.504 -13.176,19.84C-13.2,20.176 -13.212,20.54 -13.212,20.932L-13.212,21.508ZM-13.692,15.268C-13.652,15.276 -13.586,15.32 -13.494,15.4C-13.402,15.48 -13.308,15.572 -13.212,15.676C-13.116,15.78 -13.032,15.88 -12.96,15.976C-12.888,16.072 -12.852,16.136 -12.852,16.168C-12.852,16.208 -12.9,16.268 -12.996,16.348C-13.092,16.428 -13.202,16.51 -13.326,16.594C-13.45,16.678 -13.57,16.752 -13.686,16.816C-13.802,16.88 -13.884,16.912 -13.932,16.912C-13.956,16.912 -14.014,16.874 -14.106,16.798C-14.198,16.722 -14.292,16.636 -14.388,16.54C-14.484,16.444 -14.57,16.35 -14.646,16.258C-14.722,16.166 -14.76,16.104 -14.76,16.072C-14.76,16.032 -14.708,15.97 -14.604,15.886C-14.5,15.802 -14.386,15.714 -14.262,15.622C-14.138,15.53 -14.018,15.45 -13.902,15.382C-13.786,15.314 -13.716,15.276 -13.692,15.268Z" style="fill-rule:nonzero;"/>
            <path d="M-6.156,21.928C-6.14,21.912 -6.126,21.914 -6.114,21.934C-6.102,21.954 -6.094,21.982 -6.09,22.018C-6.086,22.054 -6.088,22.092 -6.096,22.132C-6.104,22.172 -6.12,22.204 -6.144,22.228C-6.304,22.38 -6.504,22.54 -6.744,22.708C-6.984,22.876 -7.232,23.032 -7.488,23.176C-7.56,23.216 -7.66,23.268 -7.788,23.332C-7.916,23.396 -8.058,23.458 -8.214,23.518C-8.37,23.578 -8.53,23.63 -8.694,23.674C-8.858,23.718 -9.012,23.74 -9.156,23.74C-9.444,23.74 -9.716,23.684 -9.972,23.572C-10.228,23.46 -10.452,23.306 -10.644,23.11C-10.836,22.914 -10.986,22.68 -11.094,22.408C-11.202,22.136 -11.256,21.84 -11.256,21.52C-11.256,21.176 -11.208,20.852 -11.112,20.548C-11.016,20.244 -10.906,19.972 -10.782,19.732C-10.658,19.492 -10.54,19.29 -10.428,19.126C-10.316,18.962 -10.24,18.84 -10.2,18.76C-10.352,18.752 -10.49,18.746 -10.614,18.742C-10.738,18.738 -10.856,18.736 -10.968,18.736C-11.224,18.736 -11.44,18.738 -11.616,18.742C-11.792,18.746 -11.948,18.764 -12.084,18.796C-12.148,18.812 -12.208,18.844 -12.264,18.892C-12.32,18.94 -12.368,18.976 -12.408,19C-12.424,18.984 -12.446,18.962 -12.474,18.934C-12.502,18.906 -12.516,18.876 -12.516,18.844C-12.516,18.828 -12.512,18.816 -12.504,18.808C-12.504,18.8 -12.452,18.754 -12.348,18.67C-12.244,18.586 -12.114,18.486 -11.958,18.37C-11.802,18.254 -11.63,18.126 -11.442,17.986C-11.254,17.846 -11.074,17.716 -10.902,17.596C-10.73,17.476 -10.582,17.374 -10.458,17.29C-10.334,17.206 -10.252,17.156 -10.212,17.14C-10.164,17.124 -10.116,17.132 -10.068,17.164C-10.02,17.196 -10.004,17.22 -10.02,17.236C-10.044,17.252 -10.08,17.282 -10.128,17.326C-10.176,17.37 -10.192,17.408 -10.176,17.44C-10.088,17.512 -9.936,17.576 -9.72,17.632C-9.504,17.688 -9.26,17.734 -8.988,17.77C-8.716,17.806 -8.436,17.834 -8.148,17.854C-7.86,17.874 -7.6,17.884 -7.368,17.884C-7.024,17.884 -6.748,17.874 -6.54,17.854C-6.332,17.834 -6.16,17.808 -6.024,17.776C-5.896,17.744 -5.812,17.72 -5.772,17.704C-5.764,17.704 -5.748,17.716 -5.724,17.74C-5.7,17.764 -5.688,17.792 -5.688,17.824C-5.688,17.84 -5.746,17.88 -5.862,17.944C-5.978,18.008 -6.096,18.076 -6.216,18.148C-6.288,18.188 -6.374,18.24 -6.474,18.304C-6.574,18.368 -6.682,18.43 -6.798,18.49C-6.914,18.55 -7.036,18.604 -7.164,18.652C-7.292,18.7 -7.416,18.728 -7.536,18.736C-7.656,18.752 -7.796,18.764 -7.956,18.772C-8.116,18.78 -8.284,18.786 -8.46,18.79C-8.636,18.794 -8.814,18.798 -8.994,18.802C-9.174,18.806 -9.34,18.808 -9.492,18.808C-9.516,18.848 -9.554,18.914 -9.606,19.006C-9.658,19.098 -9.708,19.216 -9.756,19.36C-9.804,19.504 -9.848,19.668 -9.888,19.852C-9.928,20.036 -9.948,20.236 -9.948,20.452C-9.948,20.78 -9.898,21.082 -9.798,21.358C-9.698,21.634 -9.558,21.872 -9.378,22.072C-9.198,22.272 -8.984,22.428 -8.736,22.54C-8.488,22.652 -8.22,22.708 -7.932,22.708C-7.764,22.708 -7.602,22.688 -7.446,22.648C-7.29,22.608 -7.142,22.556 -7.002,22.492C-6.862,22.428 -6.732,22.358 -6.612,22.282C-6.492,22.206 -6.388,22.132 -6.3,22.06L-6.156,21.928Z" style="fill-rule:nonzero;"/>
            <path d="M-1.512,23.32C-1.072,23.32 -0.684,23.21 -0.348,22.99C-0.012,22.77 0.27,22.478 0.498,22.114C0.726,21.75 0.896,21.33 1.008,20.854C1.12,20.378 1.176,19.88 1.176,19.36C1.176,18.728 1.1,18.158 0.948,17.65C0.796,17.142 0.59,16.712 0.33,16.36C0.07,16.008 -0.234,15.738 -0.582,15.55C-0.93,15.362 -1.296,15.268 -1.68,15.268C-2.12,15.268 -2.514,15.366 -2.862,15.562C-3.21,15.758 -3.506,16.028 -3.75,16.372C-3.994,16.716 -4.18,17.126 -4.308,17.602C-4.436,18.078 -4.5,18.596 -4.5,19.156C-4.5,19.868 -4.416,20.486 -4.248,21.01C-4.08,21.534 -3.858,21.966 -3.582,22.306C-3.306,22.646 -2.988,22.9 -2.628,23.068C-2.268,23.236 -1.896,23.32 -1.512,23.32ZM-1.836,23.764C-2.46,23.764 -3.042,23.672 -3.582,23.488C-4.122,23.304 -4.592,23.034 -4.992,22.678C-5.392,22.322 -5.708,21.888 -5.94,21.376C-6.172,20.864 -6.288,20.28 -6.288,19.624C-6.288,18.904 -6.152,18.252 -5.88,17.668C-5.608,17.084 -5.248,16.584 -4.8,16.168C-4.352,15.752 -3.84,15.43 -3.264,15.202C-2.688,14.974 -2.092,14.86 -1.476,14.86C-0.892,14.86 -0.332,14.946 0.204,15.118C0.74,15.29 1.212,15.542 1.62,15.874C2.028,16.206 2.352,16.618 2.592,17.11C2.832,17.602 2.952,18.164 2.952,18.796C2.952,19.396 2.832,19.992 2.592,20.584C2.352,21.176 2.02,21.708 1.596,22.18C1.172,22.652 0.668,23.034 0.084,23.326C-0.5,23.618 -1.14,23.764 -1.836,23.764Z" style="fill-rule:nonzero;"/>
            <path d="M3.444,18.64C3.38,18.624 3.35,18.592 3.354,18.544C3.358,18.496 3.388,18.468 3.444,18.46C3.468,18.452 3.544,18.424 3.672,18.376C3.8,18.328 3.954,18.272 4.134,18.208C4.314,18.144 4.502,18.076 4.698,18.004C4.894,17.932 5.068,17.872 5.22,17.824C5.316,17.792 5.382,17.77 5.418,17.758C5.454,17.746 5.484,17.74 5.508,17.74C5.532,17.74 5.56,17.75 5.592,17.77C5.624,17.79 5.632,17.82 5.616,17.86C5.592,17.924 5.566,18.076 5.538,18.316C5.51,18.556 5.484,18.822 5.46,19.114C5.436,19.406 5.414,19.696 5.394,19.984C5.374,20.272 5.364,20.5 5.364,20.668C5.364,21.308 5.5,21.802 5.772,22.15C6.044,22.498 6.468,22.672 7.044,22.672C7.34,22.672 7.586,22.612 7.782,22.492C7.978,22.372 8.128,22.232 8.232,22.072C8.304,21.968 8.352,21.74 8.376,21.388C8.376,21.324 8.378,21.24 8.382,21.136C8.386,21.032 8.39,20.922 8.394,20.806C8.398,20.69 8.402,20.578 8.406,20.47C8.41,20.362 8.412,20.272 8.412,20.2C8.42,19.832 8.41,19.49 8.382,19.174C8.354,18.858 8.312,18.624 8.256,18.472C8.232,18.376 8.184,18.328 8.112,18.328C8.064,18.328 8.018,18.33 7.974,18.334C7.93,18.338 7.904,18.304 7.896,18.232C7.896,18.208 7.92,18.182 7.968,18.154C8.016,18.126 8.108,18.084 8.244,18.028C8.372,17.98 8.514,17.932 8.67,17.884C8.826,17.836 8.98,17.796 9.132,17.764C9.284,17.732 9.42,17.71 9.54,17.698C9.66,17.686 9.748,17.692 9.804,17.716C9.804,17.724 9.81,17.734 9.822,17.746C9.834,17.758 9.844,17.784 9.852,17.824C9.868,17.872 9.858,18.022 9.822,18.274C9.786,18.526 9.748,18.936 9.708,19.504C9.676,19.896 9.648,20.276 9.624,20.644C9.6,21.012 9.588,21.292 9.588,21.484C9.588,21.86 9.658,22.158 9.798,22.378C9.938,22.598 10.112,22.708 10.32,22.708C10.456,22.708 10.586,22.68 10.71,22.624C10.834,22.568 10.924,22.52 10.98,22.48C11.044,22.48 11.078,22.508 11.082,22.564C11.086,22.62 11.072,22.656 11.04,22.672C10.92,22.752 10.754,22.852 10.542,22.972C10.33,23.092 10.11,23.206 9.882,23.314C9.654,23.422 9.436,23.514 9.228,23.59C9.02,23.666 8.852,23.704 8.724,23.704C8.66,23.704 8.602,23.662 8.55,23.578C8.498,23.494 8.456,23.392 8.424,23.272C8.392,23.152 8.368,23.028 8.352,22.9C8.336,22.772 8.328,22.66 8.328,22.564C8.16,22.684 7.968,22.81 7.752,22.942C7.536,23.074 7.312,23.198 7.08,23.314C6.848,23.43 6.618,23.524 6.39,23.596C6.162,23.668 5.952,23.704 5.76,23.704C5.272,23.704 4.872,23.574 4.56,23.314C4.248,23.054 4.092,22.716 4.092,22.3C4.092,22.212 4.1,22.08 4.116,21.904C4.132,21.728 4.152,21.528 4.176,21.304C4.2,21.08 4.22,20.84 4.236,20.584C4.252,20.328 4.26,20.08 4.26,19.84C4.26,19.472 4.202,19.19 4.086,18.994C3.97,18.798 3.82,18.688 3.636,18.664L3.444,18.64Z" style="fill-rule:nonzero;"/>
            <path d="M16.656,21.928C16.672,21.912 16.686,21.914 16.698,21.934C16.71,21.954 16.718,21.982 16.722,22.018C16.726,22.054 16.724,22.092 16.716,22.132C16.708,22.172 16.692,22.204 16.668,22.228C16.508,22.38 16.308,22.54 16.068,22.708C15.828,22.876 15.58,23.032 15.324,23.176C15.252,23.216 15.152,23.268 15.024,23.332C14.896,23.396 14.754,23.458 14.598,23.518C14.442,23.578 14.282,23.63 14.118,23.674C13.954,23.718 13.8,23.74 13.656,23.74C13.368,23.74 13.096,23.684 12.84,23.572C12.584,23.46 12.36,23.306 12.168,23.11C11.976,22.914 11.826,22.68 11.718,22.408C11.61,22.136 11.556,21.84 11.556,21.52C11.556,21.176 11.604,20.852 11.7,20.548C11.796,20.244 11.906,19.972 12.03,19.732C12.154,19.492 12.272,19.29 12.384,19.126C12.496,18.962 12.572,18.84 12.612,18.76C12.46,18.752 12.322,18.746 12.198,18.742C12.074,18.738 11.956,18.736 11.844,18.736C11.588,18.736 11.372,18.738 11.196,18.742C11.02,18.746 10.864,18.764 10.728,18.796C10.664,18.812 10.604,18.844 10.548,18.892C10.492,18.94 10.444,18.976 10.404,19C10.388,18.984 10.366,18.962 10.338,18.934C10.31,18.906 10.296,18.876 10.296,18.844C10.296,18.828 10.3,18.816 10.308,18.808C10.308,18.8 10.36,18.754 10.464,18.67C10.568,18.586 10.698,18.486 10.854,18.37C11.01,18.254 11.182,18.126 11.37,17.986C11.558,17.846 11.738,17.716 11.91,17.596C12.082,17.476 12.23,17.374 12.354,17.29C12.478,17.206 12.56,17.156 12.6,17.14C12.648,17.124 12.696,17.132 12.744,17.164C12.792,17.196 12.808,17.22 12.792,17.236C12.768,17.252 12.732,17.282 12.684,17.326C12.636,17.37 12.62,17.408 12.636,17.44C12.724,17.512 12.876,17.576 13.092,17.632C13.308,17.688 13.552,17.734 13.824,17.77C14.096,17.806 14.376,17.834 14.664,17.854C14.952,17.874 15.212,17.884 15.444,17.884C15.788,17.884 16.064,17.874 16.272,17.854C16.48,17.834 16.652,17.808 16.788,17.776C16.916,17.744 17,17.72 17.04,17.704C17.048,17.704 17.064,17.716 17.088,17.74C17.112,17.764 17.124,17.792 17.124,17.824C17.124,17.84 17.066,17.88 16.95,17.944C16.834,18.008 16.716,18.076 16.596,18.148C16.524,18.188 16.438,18.24 16.338,18.304C16.238,18.368 16.13,18.43 16.014,18.49C15.898,18.55 15.776,18.604 15.648,18.652C15.52,18.7 15.396,18.728 15.276,18.736C15.156,18.752 15.016,18.764 14.856,18.772C14.696,18.78 14.528,18.786 14.352,18.79C14.176,18.794 13.998,18.798 13.818,18.802C13.638,18.806 13.472,18.808 13.32,18.808C13.296,18.848 13.258,18.914 13.206,19.006C13.154,19.098 13.104,19.216 13.056,19.36C13.008,19.504 12.964,19.668 12.924,19.852C12.884,20.036 12.864,20.236 12.864,20.452C12.864,20.78 12.914,21.082 13.014,21.358C13.114,21.634 13.254,21.872 13.434,22.072C13.614,22.272 13.828,22.428 14.076,22.54C14.324,22.652 14.592,22.708 14.88,22.708C15.048,22.708 15.21,22.688 15.366,22.648C15.522,22.608 15.67,22.556 15.81,22.492C15.95,22.428 16.08,22.358 16.2,22.282C16.32,22.206 16.424,22.132 16.512,22.06L16.656,21.928Z" style="fill-rule:nonzero;"/>
        </g>
        <g transform="matrix(1,0,0,1,62.3138,346.656)">
            <text x="-24.276px" y="23.596px" style="font-family:'Luminari-Regular', 'Luminari';font-size:12px;">BitOut</text>
        </g>
        <g transform="matrix(1,0,0,1,58.164,339.27)">
            <g transform="matrix(0.8973,0,0,0.884326,9.28968,12.4373)">
                <circle cx="3.434" cy="5.159" r="2.172" style="stroke:black;stroke-width:0.94px;"/>
            </g>
            <g transform="matrix(0.8973,0,0,0.884326,4.54775,12.4373)">
                <circle cx="3.434" cy="5.159" r="2.172" style="fill:white;stroke:black;stroke-width:0.94px;"/>
            </g>
            <g transform="matrix(0.8973,0,0,0.884326,-0.194181,12.4373)">
                <circle cx="3.434" cy="5.159" r="2.172" style="stroke:black;stroke-width:0.94px;"/>
            </g>
            <g transform="matrix(0.8973,0,0,0.884326,14.0316,12.4373)">
                <circle cx="3.434" cy="5.159" r="2.172" style="stroke:black;stroke-width:0.94px;"/>
            </g>
            <g transform="matrix(0.8973,0,0,0.884326,9.28968,6.70878)">
                <circle cx="3.434" cy="5.159" r="2.172" style="fill:white;stroke:black;stroke-width:0.94px;"/>
            </g>
            <g transform="matrix(0.8973,0,0,0.884326,4.54775,6.70878)">
                <circle cx="3.434" cy="5.159" r="2.172" style="stroke:black;stroke-width:0.94px;"/>
            </g>
            <g transform="matrix(0.8973,0,0,0.884326,-0.194181,6.70878)">
                <circle cx="3.434" cy="5.159" r="2.172" style="stroke:black;stroke-width:0.94px;"/>
            </g>
            <g transform="matrix(0.8973,0,0,0.884326,14.0316,6.70878)">
                <circle cx="3.434" cy="5.159" r="2.172" style="fill:white;stroke:black;stroke-width:0.94px;"/>
            </g>
            <g transform="matrix(0.8973,0,0,0.884326,9.28968,0.980236)">
                <circle cx="3.434" cy="5.159" r="2.172" style="fill:white;stroke:black;stroke-width:0.94px;"/>
            </g>
            <g transform="matrix(0.8973,0,0,0.884326,4.54775,0.980236)">
                <circle cx="3.434" cy="5.159" r="2.172" style="fill:white;stroke:black;stroke-width:0.94px;"/>
            </g>
            <g transform="matrix(0.8973,0,0,0.884326,-0.194181,0.980236)">
                <circle cx="3.434" cy="5.159" r="2.172" style="stroke:black;stroke-width:0.94px;"/>
            </g>
            <g transform="matrix(0.8973,0,0,0.884326,14.0316,0.980236)">
                <circle cx="3.434" cy="5.159" r="2.172" style="stroke:black;stroke-width:0.94px;"/>
            </g>
        </g>
        <g id="namespace-BitBus" serif:id="namespace@BitBus" transform="matrix(0.0178906,0,0,0.0202937,37.7207,339.525)">
            <g transform="matrix(55.8954,0,0,49.2765,-878.032,-330.791)">
                <path d="M27.733,13.757C27.957,11.616 28.949,10 30.136,10C31.489,10 32.587,12.095 32.587,14.677C32.587,15.669 32.424,16.59 32.148,17.347C32.432,17.974 32.587,18.65 32.587,19.353C32.587,22.678 29.128,25.378 24.868,25.378C20.609,25.378 17.15,22.678 17.15,19.353C17.15,18.65 17.305,17.974 17.589,17.347C17.313,16.59 17.15,15.669 17.15,14.677C17.15,12.095 18.248,10 19.601,10C20.788,10 21.779,11.616 22.003,13.757L22.04,13.746C22.915,13.476 23.87,13.328 24.868,13.328C25.881,13.328 26.847,13.48 27.733,13.757ZM17.609,17.304L17.606,17.31L17.609,17.304ZM32.128,17.305L32.131,17.31L32.128,17.305ZM17.627,17.265L17.623,17.273L17.627,17.265ZM32.11,17.266L32.113,17.273L32.11,17.266ZM17.645,17.227L17.641,17.236L17.645,17.227ZM32.092,17.228L32.096,17.236L32.092,17.228ZM17.663,17.19L17.659,17.2L17.663,17.19ZM32.074,17.191L32.078,17.199L32.074,17.191ZM17.682,17.153L17.677,17.162L17.682,17.153ZM32.055,17.154L32.059,17.161L32.055,17.154ZM17.7,17.117L17.696,17.125L17.7,17.117ZM32.037,17.117L32.04,17.123L32.037,17.117ZM17.719,17.081L17.717,17.085L17.719,17.081ZM32.018,17.081L32.019,17.082L32.018,17.081ZM17.782,16.964L17.778,16.971L17.782,16.964ZM31.957,16.968L31.958,16.97L31.957,16.968ZM17.804,16.925L17.798,16.935L17.804,16.925ZM31.935,16.928L31.938,16.934L31.935,16.928ZM17.825,16.888L17.818,16.9L17.825,16.888ZM31.914,16.891L31.918,16.899L31.914,16.891ZM17.845,16.852L17.838,16.865L17.845,16.852ZM31.893,16.854L31.898,16.863L31.893,16.854ZM17.866,16.817L17.859,16.829L17.866,16.817ZM31.871,16.819L31.876,16.827L31.871,16.819ZM17.888,16.782L17.88,16.794L17.888,16.782ZM31.85,16.783L31.855,16.791L31.85,16.783ZM17.909,16.747L17.902,16.758L17.909,16.747ZM31.829,16.748L31.832,16.754L31.829,16.748ZM17.931,16.712L17.925,16.72L17.931,16.712ZM31.807,16.713L31.808,16.714L31.807,16.713ZM17.979,16.635L17.975,16.642L17.979,16.635ZM18.005,16.596L17.998,16.608L18.005,16.596ZM31.735,16.602L31.738,16.606L31.735,16.602ZM18.029,16.561L18.02,16.573L18.029,16.561ZM31.711,16.564L31.716,16.572L31.711,16.564ZM18.052,16.526L18.043,16.539L18.052,16.526ZM31.686,16.529L31.692,16.537L31.686,16.529ZM18.076,16.492L18.066,16.505L18.076,16.492ZM31.663,16.494L31.669,16.503L31.663,16.494ZM18.1,16.458L18.09,16.471L18.1,16.458ZM31.639,16.459L31.645,16.469L31.639,16.459ZM18.124,16.424L18.114,16.437L18.124,16.424ZM31.614,16.425L31.62,16.434L31.614,16.425ZM18.148,16.39L18.139,16.403L18.148,16.39ZM31.59,16.392L31.595,16.398L31.59,16.392ZM18.172,16.357L18.164,16.367L18.172,16.357ZM31.566,16.358L31.567,16.36L31.566,16.358ZM18.197,16.324L18.196,16.324L18.197,16.324ZM18.23,16.28L18.222,16.291L18.23,16.28ZM31.513,16.288L31.514,16.289L31.513,16.288ZM18.257,16.245L18.247,16.258L18.257,16.245ZM31.484,16.249L31.489,16.256L31.484,16.249ZM18.283,16.211L18.272,16.225L18.283,16.211ZM31.456,16.214L31.463,16.223L31.456,16.214ZM18.309,16.178L18.298,16.192L18.309,16.178ZM31.43,16.18L31.438,16.19L31.43,16.18ZM18.335,16.145L18.324,16.16L18.335,16.145ZM31.403,16.147L31.411,16.158L31.403,16.147ZM18.362,16.113L18.35,16.127L18.362,16.113ZM31.376,16.114L31.385,16.125L31.376,16.114ZM18.388,16.081L18.377,16.094L18.388,16.081ZM31.35,16.082L31.357,16.091L31.35,16.082ZM18.415,16.049L18.404,16.061L18.415,16.049ZM31.323,16.05L31.329,16.057L31.323,16.05ZM18.442,16.017L18.433,16.027L18.442,16.017ZM31.295,16.018L31.298,16.021L31.295,16.018ZM18.473,15.981L18.469,15.985L18.473,15.981ZM18.507,15.942L18.497,15.954L18.507,15.942ZM31.234,15.947L31.239,15.953L31.234,15.947ZM18.536,15.909L18.525,15.922L18.536,15.909ZM31.203,15.912L31.211,15.921L31.203,15.912ZM18.565,15.877L18.553,15.891L18.565,15.877ZM31.174,15.879L31.183,15.89L31.174,15.879ZM18.594,15.846L18.581,15.86L18.594,15.846ZM31.145,15.847L31.155,15.859L31.145,15.847ZM18.622,15.815L18.61,15.828L18.622,15.815ZM31.115,15.816L31.126,15.827L31.115,15.816ZM18.651,15.784L18.639,15.797L18.651,15.784ZM31.086,15.785L31.097,15.796L31.086,15.785ZM18.68,15.753L18.668,15.766L18.68,15.753ZM31.057,15.754L31.067,15.765L31.057,15.754ZM18.71,15.723L18.698,15.735L18.71,15.723ZM31.027,15.723L31.037,15.733L31.027,15.723ZM18.739,15.692L18.73,15.702L18.739,15.692ZM30.998,15.693L31.003,15.698L30.998,15.693ZM18.775,15.656L18.769,15.662L18.775,15.656ZM30.965,15.659L30.967,15.662L30.965,15.659ZM18.81,15.621L18.799,15.632L18.81,15.621ZM30.928,15.622L30.937,15.632L30.928,15.622ZM18.842,15.59L18.83,15.602L18.842,15.59ZM30.895,15.591L30.907,15.602L30.895,15.591ZM18.873,15.56L18.86,15.572L18.873,15.56ZM30.864,15.56L30.876,15.572L30.864,15.56ZM18.904,15.53L18.891,15.543L18.904,15.53ZM30.832,15.53L30.846,15.543L30.832,15.53ZM30.801,15.5L30.814,15.513L30.801,15.5ZM18.936,15.501L18.923,15.513L18.936,15.501ZM30.769,15.471L30.783,15.484L30.769,15.471ZM18.967,15.471L18.954,15.483L18.967,15.471ZM30.738,15.442L30.751,15.454L30.738,15.442ZM18.999,15.442L18.986,15.454L18.999,15.442ZM30.706,15.413L30.719,15.425L30.706,15.413ZM19.031,15.413L19.019,15.424L19.031,15.413ZM30.674,15.384L30.684,15.394L30.674,15.384ZM19.063,15.385L19.056,15.391L19.063,15.385ZM30.63,15.346L30.642,15.356L30.63,15.346ZM19.101,15.35L19.095,15.356L19.101,15.35ZM30.595,15.315L30.61,15.328L30.595,15.315ZM19.139,15.318L19.128,15.327L19.139,15.318ZM30.561,15.286L30.577,15.3L30.561,15.286ZM19.173,15.288L19.161,15.299L19.173,15.288ZM30.528,15.258L30.544,15.272L30.528,15.258ZM19.207,15.26L19.194,15.271L19.207,15.26ZM30.494,15.23L30.511,15.244L30.494,15.23ZM19.241,15.231L19.227,15.243L19.241,15.231ZM30.461,15.202L30.478,15.216L30.461,15.202ZM19.274,15.204L19.261,15.215L19.274,15.204ZM30.427,15.175L30.444,15.189L30.427,15.175ZM19.308,15.176L19.295,15.187L19.308,15.176ZM30.393,15.147L30.41,15.161L30.393,15.147ZM19.342,15.149L19.33,15.158L19.342,15.149ZM30.359,15.12L30.376,15.134L30.359,15.12ZM19.377,15.121L19.366,15.129L19.377,15.121ZM30.325,15.093L30.343,15.107L30.326,15.094L30.305,15.078L30.325,15.093ZM19.411,15.094L19.409,15.096L19.411,15.094ZM30.273,15.053L30.292,15.068L30.273,15.053ZM19.452,15.062L19.446,15.067L19.452,15.062ZM30.238,15.027L30.257,15.041L30.238,15.027ZM19.492,15.032L19.481,15.04L19.492,15.032ZM30.203,15L30.222,15.015L30.203,15ZM19.529,15.004L19.516,15.013L19.529,15.004ZM30.168,14.974L30.187,14.989L30.168,14.974ZM19.565,14.977L19.552,14.987L19.565,14.977ZM30.132,14.948L30.152,14.963L30.132,14.948ZM19.601,14.951L19.588,14.961L19.601,14.951ZM30.097,14.922L30.117,14.937L30.097,14.922ZM19.637,14.925L19.624,14.934L19.637,14.925ZM30.061,14.897L30.081,14.911L30.061,14.897ZM19.673,14.899L19.661,14.908L19.673,14.899ZM30.025,14.871L30.046,14.886L30.025,14.871ZM19.71,14.873L19.698,14.881L19.71,14.873ZM29.988,14.846L30.011,14.862L29.988,14.846ZM19.746,14.848L19.738,14.853L19.746,14.848ZM29.954,14.822L29.915,14.796C29.928,14.805 29.941,14.813 29.954,14.822ZM19.826,14.793L19.821,14.796L19.826,14.793ZM29.858,14.758L29.881,14.773L29.858,14.758ZM19.868,14.765L19.858,14.771L19.868,14.765ZM29.822,14.734L29.845,14.749L29.822,14.734ZM19.907,14.739L19.896,14.747L19.907,14.739ZM29.785,14.71L29.807,14.724L29.785,14.71ZM19.946,14.714L19.933,14.722L19.946,14.714ZM29.747,14.686L29.77,14.7L29.747,14.686ZM19.984,14.689L19.971,14.697L19.984,14.689ZM29.71,14.662L29.733,14.676L29.71,14.662ZM20.023,14.665L20.01,14.673L20.023,14.665ZM29.672,14.638L29.696,14.653L29.672,14.638ZM20.061,14.641L20.049,14.648L20.061,14.641ZM29.634,14.615L29.659,14.63L29.634,14.615ZM20.099,14.617L20.09,14.623L20.099,14.617ZM29.494,14.531C29.537,14.556 29.58,14.582 29.623,14.608C29.581,14.582 29.538,14.556 29.494,14.531ZM20.138,14.593L20.134,14.596L20.138,14.593ZM20.221,14.543L20.218,14.545L20.221,14.543ZM29.458,14.51L29.483,14.525L29.458,14.51ZM20.266,14.517L20.257,14.522L20.266,14.517ZM29.42,14.488L29.444,14.502L29.42,14.488ZM20.308,14.493L20.297,14.499L20.308,14.493ZM29.381,14.466L29.405,14.48L29.381,14.466ZM20.349,14.47L20.337,14.477L20.349,14.47ZM29.341,14.444L29.366,14.457L29.341,14.444ZM20.389,14.447L20.377,14.454L20.389,14.447ZM29.302,14.422L29.327,14.436L29.302,14.422ZM20.43,14.425L20.418,14.431L20.43,14.425ZM29.262,14.4L29.288,14.414L29.262,14.4ZM20.47,14.403L20.46,14.408L20.47,14.403ZM29.222,14.379L29.249,14.393L29.222,14.379ZM20.51,14.381L20.503,14.385L20.51,14.381ZM29.186,14.359L29.143,14.337C29.157,14.344 29.171,14.352 29.186,14.359ZM29.077,14.303L29.105,14.317L29.077,14.303ZM20.638,14.314L20.636,14.315L20.638,14.314ZM29.038,14.283L29.064,14.296L29.038,14.283ZM20.685,14.29L20.677,14.294L20.685,14.29ZM28.998,14.263L29.023,14.276L28.998,14.263ZM20.729,14.268L20.719,14.273L20.729,14.268ZM28.957,14.243L28.982,14.255L28.957,14.243ZM20.772,14.247L20.761,14.252L20.772,14.247ZM28.916,14.223L28.941,14.235L28.916,14.223ZM20.814,14.226L20.803,14.232L20.814,14.226ZM28.875,14.203L28.899,14.215L28.875,14.203ZM20.857,14.206L20.846,14.211L20.857,14.206ZM28.833,14.184L28.858,14.195L28.833,14.184ZM20.899,14.186L20.891,14.19L20.899,14.186ZM28.791,14.164L28.817,14.176L28.791,14.164ZM20.942,14.166L20.937,14.168L20.942,14.166ZM28.752,14.146L28.707,14.126C28.722,14.133 28.737,14.139 28.752,14.146ZM28.643,14.097L28.667,14.108L28.643,14.097ZM21.075,14.106L21.074,14.106L21.075,14.106ZM28.601,14.079L28.624,14.089L28.601,14.079ZM21.124,14.084L21.117,14.087L21.124,14.084ZM28.558,14.061L28.581,14.071L28.558,14.061ZM21.17,14.065L21.161,14.068L21.17,14.065ZM28.516,14.043L28.538,14.052L28.516,14.043ZM21.215,14.046L21.204,14.05L21.215,14.046ZM28.473,14.025L28.494,14.034L28.473,14.025ZM21.259,14.027L21.249,14.031L21.259,14.027ZM28.429,14.007L28.451,14.016L28.429,14.007ZM21.303,14.009L21.294,14.013L21.303,14.009ZM28.386,13.989L28.406,13.998L28.386,13.989ZM21.347,13.991L21.341,13.994L21.347,13.991ZM28.342,13.972L28.361,13.979L28.342,13.972ZM21.392,13.973L21.391,13.974L21.392,13.973ZM28.298,13.955L28.311,13.96L28.298,13.955ZM28.243,13.934L28.254,13.938L28.243,13.934ZM28.195,13.915L28.21,13.921L28.195,13.915ZM21.531,13.92L21.53,13.92L21.531,13.92ZM28.149,13.898L28.165,13.904L28.149,13.898ZM21.581,13.901L21.575,13.903L21.581,13.901ZM28.103,13.882L28.119,13.888L28.103,13.882ZM21.629,13.884L21.62,13.887L21.629,13.884ZM28.058,13.866L28.074,13.871L28.058,13.866ZM21.675,13.867L21.666,13.87L21.675,13.867ZM28.013,13.85L28.028,13.855L28.013,13.85ZM21.721,13.851L21.713,13.854L21.721,13.851ZM27.968,13.834L27.981,13.839L27.968,13.834ZM21.767,13.835L21.76,13.837L21.767,13.835ZM27.922,13.819L27.932,13.822L27.922,13.819ZM21.813,13.819L21.809,13.821L21.813,13.819ZM27.877,13.803L27.879,13.804L27.877,13.803Z" style="fill:none;stroke:black;stroke-width:1.22px;"/>
            </g>
            <g transform="matrix(55.8954,0,0,49.2765,-878.032,-330.791)">
                <path d="M25.128,19.358C24.963,19.04 24.868,18.67 24.868,18.275C24.868,17.096 25.713,16.138 26.753,16.138C27.793,16.138 28.637,17.096 28.637,18.275C28.637,19.031 28.291,19.696 27.768,20.076C27.128,19.668 26.188,19.396 25.128,19.358ZM21.969,20.076C21.446,19.696 21.099,19.031 21.099,18.275C21.099,17.096 21.944,16.138 22.984,16.138C24.024,16.138 24.868,17.096 24.868,18.275C24.868,18.67 24.774,19.04 24.609,19.358C23.549,19.396 22.609,19.668 21.969,20.076Z" style="fill:none;stroke:black;stroke-width:1.22px;"/>
            </g>
            <g transform="matrix(1,0,0,1,-53.1856,50.0357)">
                <ellipse cx="565.186" cy="671.455" rx="210.672" ry="98.631" style="fill:none;stroke:black;stroke-width:63.81px;"/>
            </g>
            <g transform="matrix(51.2,0,0,45.1371,0.670978,88.9676)">
                <path d="M12.057,13.791C12.057,13.668 11.958,13.568 11.835,13.568L8.139,13.568C8.016,13.568 7.916,13.668 7.916,13.791L7.916,14.236C7.916,14.359 8.016,14.458 8.139,14.458L11.835,14.458C11.958,14.458 12.057,14.359 12.057,14.236L12.057,13.791Z"/>
            </g>
        </g>
    </g>
</svg>
