<?xml version="1.0" encoding="UTF-8" standalone="no"?>
<!DOCTYPE svg PUBLIC "-//W3C//DTD SVG 1.1//EN" "http://www.w3.org/Graphics/SVG/1.1/DTD/svg11.dtd">
<svg width="100%" height="100%" viewBox="0 0 90 380" version="1.1" xmlns="http://www.w3.org/2000/svg" xmlns:xlink="http://www.w3.org/1999/xlink" xml:space="preserve" xmlns:serif="http://www.serif.com/" style="fill-rule:evenodd;clip-rule:evenodd;stroke-linecap:round;stroke-linejoin:round;stroke-miterlimit:1.5;">
    <g transform="matrix(0.43251,0,0,2.01589,-22.7311,-120.797)">
        <rect x="52.556" y="59.922" width="208.087" height="188.503" style="fill:rgb(154,178,191);stroke:rgb(5,5,5);stroke-width:1.37px;"/>
    </g>
    <g transform="matrix(0.75,0,0,1,-43.7392,183.551)">
        <g transform="matrix(0.7112,0,0,72.8139,48.976,-21717.6)">
            <rect x="13.921" y="296.737" width="168.729" height="3.935" style="fill:rgb(191,191,191);"/>
        </g>
        <g id="Bit8">
            <g id="Latch-ledbutton" serif:id="Latch#ledbutton" transform="matrix(0.23319,0,0,0.175002,66.387,120.54)">
                <rect x="53.94" y="106.916" width="161.978" height="161.978" style="fill:rgb(191,191,191);"/>
            </g>
            <g transform="matrix(3.30333,0,0,0.695794,-476.123,112.334)">
                <rect x="161.957" y="57.989" width="36.327" height="2.261"/>
            </g>
            <g id="GateIn-input-P" serif:id="GateIn#input$P" transform="matrix(0.23319,0,0,0.175002,108.438,120.854)">
                <rect x="53.94" y="106.916" width="161.978" height="161.978" style="fill:rgb(235,235,235);"/>
            </g>
        </g>
        <g id="Bit7">
            <g id="Latch-ledbutton1" serif:id="Latch#ledbutton" transform="matrix(0.23319,0,0,0.175002,66.387,86.7884)">
                <rect x="53.94" y="106.916" width="161.978" height="161.978" style="fill:rgb(191,191,191);"/>
            </g>
            <g transform="matrix(3.30333,0,0,0.695794,-476.123,78.6945)">
                <rect x="161.957" y="57.989" width="36.327" height="2.261"/>
            </g>
            <g id="GateIn-input-P1" serif:id="GateIn#input$P" transform="matrix(0.23319,0,0,0.175002,108.438,87.1026)">
                <rect x="53.94" y="106.916" width="161.978" height="161.978" style="fill:rgb(235,235,235);"/>
            </g>
        </g>
        <g id="Bit6">
            <g id="Latch-ledbutton2" serif:id="Latch#ledbutton" transform="matrix(0.23319,0,0,0.175002,66.387,51.5037)">
                <rect x="53.94" y="106.916" width="161.978" height="161.978" style="fill:rgb(191,191,191);"/>
            </g>
            <g transform="matrix(3.30333,0,0,0.695794,-476.123,43.3266)">
                <rect x="161.957" y="57.989" width="36.327" height="2.261"/>
            </g>
            <g id="GateIn-input-P2" serif:id="GateIn#input$P" transform="matrix(0.23319,0,0,0.175002,108.438,51.8179)">
                <rect x="53.94" y="106.916" width="161.978" height="161.978" style="fill:rgb(235,235,235);"/>
            </g>
        </g>
        <g id="Bit5">
            <g id="Latch-ledbutton3" serif:id="Latch#ledbutton" transform="matrix(0.23319,0,0,0.175002,66.387,16.0181)">
                <rect x="53.94" y="106.916" width="161.978" height="161.978" style="fill:rgb(191,191,191);"/>
            </g>
            <g transform="matrix(3.30333,0,0,0.695794,-476.123,8.01938)">
                <rect x="161.957" y="57.989" width="36.327" height="2.261"/>
            </g>
            <g id="GateIn-input-P3" serif:id="GateIn#input$P" transform="matrix(0.23319,0,0,0.175002,108.438,16.3323)">
                <rect x="53.94" y="106.916" width="161.978" height="161.978" style="fill:rgb(235,235,235);"/>
            </g>
        </g>
        <g id="Bit4">
            <g id="Latch-ledbutton4" serif:id="Latch#ledbutton" transform="matrix(0.23319,0,0,0.175002,66.387,-52.1091)">
                <rect x="53.94" y="106.916" width="161.978" height="161.978" style="fill:rgb(191,191,191);"/>
            </g>
            <g transform="matrix(3.30333,0,0,0.695794,-476.123,-60.2029)">
                <rect x="161.957" y="57.989" width="36.327" height="2.261"/>
            </g>
            <g id="GateIn-input-P4" serif:id="GateIn#input$P" transform="matrix(0.23319,0,0,0.175002,108.438,-51.7948)">
                <rect x="53.94" y="106.916" width="161.978" height="161.978" style="fill:rgb(230,230,230);"/>
            </g>
        </g>
        <g id="Bit3" transform="matrix(1,0,0,1,7.81597e-14,34.7756)">
            <g id="Latch-ledbutton5" serif:id="Latch#ledbutton" transform="matrix(0.23319,0,0,0.175002,66.387,-52.1091)">
                <rect x="53.94" y="106.916" width="161.978" height="161.978" style="fill:rgb(191,191,191);"/>
            </g>
            <g transform="matrix(3.30333,0,0,0.695794,-476.123,-60.2029)">
                <rect x="161.957" y="57.989" width="36.327" height="2.261"/>
            </g>
            <g id="GateIn-input-P5" serif:id="GateIn#input$P" transform="matrix(0.23319,0,0,0.175002,108.438,-51.7948)">
                <rect x="53.94" y="106.916" width="161.978" height="161.978" style="fill:rgb(230,230,230);"/>
            </g>
        </g>
        <g id="Bit2">
            <g id="Latch-ledbutton6" serif:id="Latch#ledbutton" transform="matrix(0.23319,0,0,0.175002,66.387,-86.47)">
                <rect x="53.94" y="106.916" width="161.978" height="161.978" style="fill:rgb(191,191,191);"/>
            </g>
            <g transform="matrix(3.30333,0,0,0.695794,-476.123,-94.5002)">
                <rect x="161.957" y="57.989" width="36.327" height="2.261"/>
            </g>
            <g id="GateIn-input-P6" serif:id="GateIn#input$P" transform="matrix(0.23319,0,0,0.175002,108.438,-86.1558)">
                <rect x="53.94" y="106.916" width="161.978" height="161.978" style="fill:rgb(235,235,235);"/>
            </g>
        </g>
        <g id="Bit1">
            <g id="Latch-ledbutton7" serif:id="Latch#ledbutton" transform="matrix(0.23319,0,0,0.175002,66.387,-122.208)">
                <rect x="53.94" y="106.916" width="161.978" height="161.978" style="fill:rgb(191,191,191);"/>
            </g>
            <g transform="matrix(3.30333,0,0,0.695794,-476.123,-130.158)">
                <rect x="161.957" y="57.989" width="36.327" height="2.261"/>
            </g>
            <g id="GateIn-input-P7" serif:id="GateIn#input$P" transform="matrix(0.23319,0,0,0.175002,108.438,-121.893)">
                <rect x="53.94" y="106.916" width="161.978" height="161.978" style="fill:rgb(235,235,235);"/>
            </g>
        </g>
    </g>
    <g transform="matrix(1,0,0,1,-13.1943,-332.812)">
        <g id="BusIn-led" serif:id="BusIn#led" transform="matrix(1,0,0,1,-19.0543,43.7203)">
            <circle cx="42.167" cy="335.861" r="3.82" style="fill:rgb(230,230,230);"/>
        </g>
        <g id="BusOut-led" serif:id="BusOut#led" transform="matrix(1,0,0,1,50.9457,43.7203)">
            <circle cx="42.167" cy="335.861" r="3.82" style="fill:rgb(230,230,230);"/>
        </g>
        <g transform="matrix(1,0,0,1,62.3138,346.656)">
            <path d="M-23.442,23.344C-23.354,23.344 -23.262,23.342 -23.166,23.338C-23.07,23.334 -22.994,23.324 -22.938,23.308C-22.882,23.292 -22.834,23.262 -22.794,23.218C-22.754,23.174 -22.718,23.094 -22.686,22.978C-22.654,22.862 -22.626,22.698 -22.602,22.486C-22.578,22.274 -22.56,21.992 -22.548,21.64C-22.536,21.288 -22.526,20.852 -22.518,20.332C-22.51,19.812 -22.506,19.184 -22.506,18.448C-22.506,17.848 -22.514,17.348 -22.53,16.948C-22.546,16.548 -22.57,16.226 -22.602,15.982C-22.634,15.738 -22.676,15.564 -22.728,15.46C-22.78,15.356 -22.846,15.304 -22.926,15.304C-22.966,15.304 -23.02,15.306 -23.088,15.31C-23.156,15.314 -23.226,15.316 -23.298,15.316C-23.37,15.316 -23.436,15.318 -23.496,15.322C-23.556,15.326 -23.594,15.328 -23.61,15.328C-23.626,15.328 -23.638,15.312 -23.646,15.28C-23.654,15.248 -23.658,15.216 -23.658,15.184C-23.658,15.152 -23.654,15.112 -23.646,15.064C-23.638,15.016 -23.61,14.992 -23.562,14.992L-22.494,14.992C-22.15,14.992 -21.866,14.984 -21.642,14.968C-21.418,14.952 -21.206,14.924 -21.006,14.884C-20.886,14.86 -20.834,14.9 -20.85,15.004C-20.858,15.052 -20.866,15.132 -20.874,15.244C-20.882,15.356 -20.892,15.476 -20.904,15.604C-20.916,15.732 -20.926,15.854 -20.934,15.97C-20.942,16.086 -20.946,16.172 -20.946,16.228C-20.85,16.116 -20.692,15.98 -20.472,15.82C-20.252,15.66 -19.994,15.508 -19.698,15.364C-19.402,15.22 -19.078,15.096 -18.726,14.992C-18.374,14.888 -18.018,14.836 -17.658,14.836C-17.178,14.836 -16.734,14.898 -16.326,15.022C-15.918,15.146 -15.568,15.33 -15.276,15.574C-14.984,15.818 -14.756,16.126 -14.592,16.498C-14.428,16.87 -14.346,17.308 -14.346,17.812C-14.346,18.14 -14.378,18.478 -14.442,18.826C-14.506,19.174 -14.586,19.52 -14.682,19.864C-14.778,20.208 -14.882,20.542 -14.994,20.866C-15.106,21.19 -15.21,21.49 -15.306,21.766C-15.402,22.042 -15.482,22.288 -15.546,22.504C-15.61,22.72 -15.642,22.888 -15.642,23.008C-15.642,23.096 -15.6,23.166 -15.516,23.218C-15.432,23.27 -15.286,23.296 -15.078,23.296C-14.966,23.296 -14.872,23.292 -14.796,23.284C-14.72,23.276 -14.654,23.252 -14.598,23.212C-14.566,23.196 -14.534,23.212 -14.502,23.26C-14.486,23.284 -14.478,23.312 -14.478,23.344C-14.478,23.384 -14.5,23.44 -14.544,23.512C-14.588,23.584 -14.638,23.62 -14.694,23.62L-15.114,23.62C-15.33,23.62 -15.564,23.622 -15.816,23.626C-16.068,23.63 -16.316,23.632 -16.56,23.632L-17.118,23.632C-17.238,23.632 -17.298,23.592 -17.298,23.512C-17.298,23.464 -17.294,23.434 -17.286,23.422C-17.278,23.41 -17.264,23.402 -17.244,23.398C-17.224,23.394 -17.2,23.386 -17.172,23.374C-17.144,23.362 -17.106,23.332 -17.058,23.284C-16.97,23.148 -16.878,22.922 -16.782,22.606C-16.686,22.29 -16.6,21.92 -16.524,21.496C-16.448,21.072 -16.384,20.612 -16.332,20.116C-16.28,19.62 -16.254,19.124 -16.254,18.628C-16.254,18.108 -16.314,17.652 -16.434,17.26C-16.554,16.868 -16.718,16.54 -16.926,16.276C-17.134,16.012 -17.374,15.814 -17.646,15.682C-17.918,15.55 -18.206,15.484 -18.51,15.484C-18.774,15.484 -19.044,15.534 -19.32,15.634C-19.596,15.734 -19.85,15.87 -20.082,16.042C-20.314,16.214 -20.516,16.414 -20.688,16.642C-20.86,16.87 -20.97,17.108 -21.018,17.356C-21.042,17.468 -21.062,17.664 -21.078,17.944C-21.094,18.224 -21.106,18.548 -21.114,18.916C-21.122,19.284 -21.128,19.672 -21.132,20.08C-21.136,20.488 -21.138,20.876 -21.138,21.244C-21.138,21.476 -21.134,21.698 -21.126,21.91C-21.118,22.122 -21.106,22.314 -21.09,22.486C-21.074,22.658 -21.058,22.804 -21.042,22.924C-21.026,23.044 -21.01,23.12 -20.994,23.152C-20.962,23.224 -20.926,23.274 -20.886,23.302C-20.846,23.33 -20.734,23.344 -20.55,23.344C-20.47,23.344 -20.408,23.34 -20.364,23.332C-20.32,23.324 -20.266,23.32 -20.202,23.32C-20.146,23.32 -20.11,23.342 -20.094,23.386C-20.078,23.43 -20.07,23.468 -20.07,23.5C-20.07,23.516 -20.084,23.54 -20.112,23.572C-20.14,23.604 -20.174,23.62 -20.214,23.62C-20.262,23.62 -20.344,23.618 -20.46,23.614C-20.576,23.61 -20.706,23.608 -20.85,23.608C-20.994,23.608 -21.136,23.606 -21.276,23.602C-21.416,23.598 -21.526,23.596 -21.606,23.596C-21.814,23.596 -22.028,23.598 -22.248,23.602C-22.468,23.606 -22.674,23.61 -22.866,23.614C-23.058,23.618 -23.228,23.624 -23.376,23.632C-23.524,23.64 -23.622,23.648 -23.67,23.656C-23.718,23.656 -23.742,23.624 -23.742,23.56C-23.742,23.52 -23.728,23.474 -23.7,23.422C-23.672,23.37 -23.638,23.344 -23.598,23.344L-23.442,23.344Z" style="fill-rule:nonzero;"/>
            <path d="M-8.118,22.192C-8.206,22.288 -8.342,22.42 -8.526,22.588C-8.71,22.756 -8.932,22.924 -9.192,23.092C-9.452,23.26 -9.742,23.404 -10.062,23.524C-10.382,23.644 -10.722,23.704 -11.082,23.704C-11.41,23.704 -11.73,23.654 -12.042,23.554C-12.354,23.454 -12.634,23.302 -12.882,23.098C-13.13,22.894 -13.328,22.634 -13.476,22.318C-13.624,22.002 -13.698,21.624 -13.698,21.184C-13.698,20.824 -13.674,20.514 -13.626,20.254C-13.578,19.994 -13.514,19.766 -13.434,19.57C-13.354,19.374 -13.264,19.206 -13.164,19.066C-13.064,18.926 -12.962,18.8 -12.858,18.688C-12.73,18.544 -12.574,18.408 -12.39,18.28C-12.206,18.152 -12.008,18.036 -11.796,17.932C-11.584,17.828 -11.36,17.746 -11.124,17.686C-10.888,17.626 -10.65,17.596 -10.41,17.596C-9.978,17.596 -9.64,17.668 -9.396,17.812C-9.152,17.956 -9.03,18.156 -9.03,18.412C-9.03,18.572 -9.078,18.72 -9.174,18.856C-9.094,18.832 -8.992,18.792 -8.868,18.736C-8.744,18.68 -8.618,18.622 -8.49,18.562C-8.362,18.502 -8.248,18.448 -8.148,18.4C-8.048,18.352 -7.982,18.316 -7.95,18.292C-7.934,18.276 -7.916,18.27 -7.896,18.274C-7.876,18.278 -7.866,18.292 -7.866,18.316C-7.866,18.42 -7.886,18.506 -7.926,18.574C-7.966,18.642 -8.014,18.696 -8.07,18.736C-8.198,18.816 -8.382,18.916 -8.622,19.036C-8.862,19.156 -9.128,19.282 -9.42,19.414C-9.712,19.546 -10.014,19.678 -10.326,19.81C-10.638,19.942 -10.932,20.068 -11.208,20.188C-11.484,20.308 -11.724,20.414 -11.928,20.506C-12.132,20.598 -12.27,20.664 -12.342,20.704C-12.342,20.976 -12.288,21.23 -12.18,21.466C-12.072,21.702 -11.922,21.908 -11.73,22.084C-11.538,22.26 -11.308,22.398 -11.04,22.498C-10.772,22.598 -10.478,22.648 -10.158,22.648C-9.87,22.648 -9.61,22.618 -9.378,22.558C-9.146,22.498 -8.95,22.43 -8.79,22.354C-8.63,22.278 -8.504,22.21 -8.412,22.15C-8.32,22.09 -8.27,22.06 -8.262,22.06C-8.23,22.06 -8.198,22.074 -8.166,22.102C-8.134,22.13 -8.118,22.16 -8.118,22.192ZM-12.342,20.356C-12.206,20.308 -12.052,20.25 -11.88,20.182C-11.708,20.114 -11.54,20.04 -11.376,19.96C-11.212,19.88 -11.062,19.804 -10.926,19.732C-10.79,19.66 -10.686,19.596 -10.614,19.54C-10.47,19.436 -10.398,19.26 -10.398,19.012C-10.398,18.916 -10.416,18.816 -10.452,18.712C-10.488,18.608 -10.542,18.514 -10.614,18.43C-10.686,18.346 -10.774,18.278 -10.878,18.226C-10.982,18.174 -11.098,18.148 -11.226,18.148C-11.338,18.148 -11.458,18.186 -11.586,18.262C-11.714,18.338 -11.834,18.462 -11.946,18.634C-12.058,18.806 -12.152,19.034 -12.228,19.318C-12.304,19.602 -12.342,19.948 -12.342,20.356Z" style="fill-rule:nonzero;"/>
            <path d="M-0.45,18.34C-0.61,18.46 -0.876,18.566 -1.248,18.658C-1.62,18.75 -2.05,18.796 -2.538,18.796C-2.634,18.796 -2.74,18.798 -2.856,18.802C-2.972,18.806 -3.062,18.808 -3.126,18.808C-3.094,19.112 -3.132,19.424 -3.24,19.744C-3.348,20.064 -3.472,20.366 -3.612,20.65C-3.752,20.934 -3.882,21.184 -4.002,21.4C-4.122,21.616 -4.182,21.772 -4.182,21.868C-4.182,21.996 -4.126,22.12 -4.014,22.24C-3.902,22.36 -3.762,22.48 -3.594,22.6C-3.426,22.72 -3.246,22.842 -3.054,22.966C-2.862,23.09 -2.682,23.222 -2.514,23.362C-2.346,23.502 -2.206,23.656 -2.094,23.824C-1.982,23.992 -1.926,24.176 -1.926,24.376C-1.926,24.664 -2.036,24.98 -2.256,25.324C-2.476,25.668 -2.774,25.99 -3.15,26.29C-3.526,26.59 -3.966,26.84 -4.47,27.04C-4.974,27.24 -5.51,27.34 -6.078,27.34C-6.342,27.34 -6.628,27.312 -6.936,27.256C-7.244,27.2 -7.528,27.116 -7.788,27.004C-8.048,26.892 -8.264,26.754 -8.436,26.59C-8.608,26.426 -8.694,26.232 -8.694,26.008C-8.694,25.88 -8.596,25.712 -8.4,25.504C-8.204,25.296 -7.978,25.084 -7.722,24.868C-7.466,24.652 -7.214,24.444 -6.966,24.244C-6.718,24.044 -6.542,23.884 -6.438,23.764C-6.414,23.764 -6.384,23.78 -6.348,23.812C-6.312,23.844 -6.294,23.88 -6.294,23.92C-6.294,23.928 -6.296,23.934 -6.3,23.938C-6.304,23.942 -6.306,23.948 -6.306,23.956C-6.386,24.02 -6.484,24.1 -6.6,24.196C-6.716,24.292 -6.83,24.396 -6.942,24.508C-7.054,24.62 -7.15,24.742 -7.23,24.874C-7.31,25.006 -7.35,25.136 -7.35,25.264C-7.35,25.432 -7.284,25.598 -7.152,25.762C-7.02,25.926 -6.848,26.072 -6.636,26.2C-6.424,26.328 -6.182,26.432 -5.91,26.512C-5.638,26.592 -5.362,26.632 -5.082,26.632C-4.506,26.632 -4.068,26.506 -3.768,26.254C-3.468,26.002 -3.318,25.648 -3.318,25.192C-3.318,25 -3.372,24.816 -3.48,24.64C-3.588,24.464 -3.72,24.3 -3.876,24.148C-4.032,23.996 -4.204,23.854 -4.392,23.722C-4.58,23.59 -4.752,23.468 -4.908,23.356C-5.064,23.244 -5.196,23.14 -5.304,23.044C-5.412,22.948 -5.466,22.86 -5.466,22.78C-5.466,22.708 -5.444,22.626 -5.4,22.534C-5.356,22.442 -5.306,22.35 -5.25,22.258C-5.194,22.166 -5.144,22.082 -5.1,22.006C-5.056,21.93 -5.034,21.872 -5.034,21.832C-5.034,21.84 -5.042,21.828 -5.058,21.796C-5.114,21.852 -5.194,21.908 -5.298,21.964C-5.402,22.02 -5.524,22.072 -5.664,22.12C-5.804,22.168 -5.952,22.208 -6.108,22.24C-6.264,22.272 -6.422,22.288 -6.582,22.288C-6.886,22.288 -7.154,22.238 -7.386,22.138C-7.618,22.038 -7.812,21.904 -7.968,21.736C-8.124,21.568 -8.242,21.374 -8.322,21.154C-8.402,20.934 -8.442,20.7 -8.442,20.452C-8.442,20.084 -8.388,19.768 -8.28,19.504C-8.172,19.24 -8.036,19.016 -7.872,18.832C-7.708,18.648 -7.534,18.498 -7.35,18.382C-7.166,18.266 -6.998,18.168 -6.846,18.088C-6.75,18.04 -6.636,17.994 -6.504,17.95C-6.372,17.906 -6.23,17.866 -6.078,17.83C-5.926,17.794 -5.77,17.764 -5.61,17.74C-5.45,17.716 -5.298,17.704 -5.154,17.704C-4.65,17.704 -4.242,17.76 -3.93,17.872C-3.618,17.984 -3.414,18.084 -3.318,18.172C-3.222,18.188 -3.05,18.2 -2.802,18.208C-2.554,18.216 -2.29,18.22 -2.01,18.22L-0.558,18.22C-0.518,18.22 -0.478,18.216 -0.438,18.208C-0.398,18.216 -0.382,18.236 -0.39,18.268C-0.398,18.3 -0.418,18.324 -0.45,18.34ZM-5.394,21.58C-5.282,21.58 -5.17,21.556 -5.058,21.508C-4.946,21.46 -4.844,21.378 -4.752,21.262C-4.66,21.146 -4.584,20.99 -4.524,20.794C-4.464,20.598 -4.434,20.352 -4.434,20.056C-4.434,19.784 -4.464,19.532 -4.524,19.3C-4.584,19.068 -4.674,18.868 -4.794,18.7C-4.914,18.532 -5.062,18.402 -5.238,18.31C-5.414,18.218 -5.622,18.172 -5.862,18.172C-6.206,18.172 -6.498,18.302 -6.738,18.562C-6.978,18.822 -7.098,19.192 -7.098,19.672C-7.098,19.936 -7.05,20.184 -6.954,20.416C-6.858,20.648 -6.732,20.85 -6.576,21.022C-6.42,21.194 -6.238,21.33 -6.03,21.43C-5.822,21.53 -5.61,21.58 -5.394,21.58Z" style="fill-rule:nonzero;"/>
            <path d="M2.298,21.724C2.274,21.588 2.25,21.44 2.226,21.28C2.202,21.12 2.178,20.968 2.154,20.824C2.13,20.68 2.108,20.556 2.088,20.452C2.068,20.348 2.054,20.28 2.046,20.248C1.918,20.296 1.774,20.352 1.614,20.416C1.454,20.48 1.294,20.55 1.134,20.626C0.974,20.702 0.822,20.778 0.678,20.854C0.534,20.93 0.414,21 0.318,21.064C0.134,21.184 -0.006,21.304 -0.102,21.424C-0.198,21.544 -0.246,21.688 -0.246,21.856C-0.246,22.088 -0.178,22.292 -0.042,22.468C0.094,22.644 0.306,22.732 0.594,22.732C0.746,22.732 0.904,22.704 1.068,22.648C1.232,22.592 1.384,22.528 1.524,22.456C1.664,22.384 1.786,22.312 1.89,22.24C1.994,22.168 2.066,22.112 2.106,22.072C2.17,22.008 2.22,21.954 2.256,21.91C2.292,21.866 2.306,21.804 2.298,21.724ZM1.95,19.864C1.902,19.616 1.846,19.394 1.782,19.198C1.718,19.002 1.638,18.838 1.542,18.706C1.446,18.574 1.33,18.474 1.194,18.406C1.058,18.338 0.89,18.304 0.69,18.304C0.514,18.304 0.352,18.336 0.204,18.4C0.056,18.464 -0.072,18.54 -0.18,18.628C-0.288,18.716 -0.372,18.804 -0.432,18.892C-0.492,18.98 -0.526,19.048 -0.534,19.096C-0.542,19.16 -0.578,19.192 -0.642,19.192C-0.754,19.192 -0.858,19.152 -0.954,19.072C-1.05,18.992 -1.098,18.896 -1.098,18.784C-1.098,18.72 -1.09,18.672 -1.074,18.64C-0.89,18.536 -0.666,18.424 -0.402,18.304C-0.138,18.184 0.136,18.072 0.42,17.968C0.704,17.864 0.986,17.778 1.266,17.71C1.546,17.642 1.798,17.608 2.022,17.608C2.358,17.608 2.616,17.656 2.796,17.752C2.976,17.848 3.11,17.984 3.198,18.16C3.286,18.336 3.34,18.542 3.36,18.778C3.38,19.014 3.398,19.268 3.414,19.54C3.438,19.948 3.47,20.342 3.51,20.722C3.55,21.102 3.61,21.438 3.69,21.73C3.77,22.022 3.872,22.258 3.996,22.438C4.12,22.618 4.274,22.708 4.458,22.708C4.546,22.708 4.642,22.692 4.746,22.66C4.85,22.628 4.95,22.59 5.046,22.546C5.142,22.502 5.228,22.458 5.304,22.414C5.38,22.37 5.43,22.34 5.454,22.324C5.526,22.324 5.57,22.36 5.586,22.432C5.586,22.472 5.578,22.508 5.562,22.54C5.546,22.556 5.486,22.596 5.382,22.66C5.278,22.724 5.15,22.8 4.998,22.888C4.846,22.976 4.678,23.07 4.494,23.17C4.31,23.27 4.128,23.364 3.948,23.452C3.768,23.54 3.602,23.612 3.45,23.668C3.298,23.724 3.178,23.752 3.09,23.752C2.986,23.752 2.896,23.71 2.82,23.626C2.744,23.542 2.678,23.43 2.622,23.29C2.566,23.15 2.518,22.988 2.478,22.804C2.438,22.62 2.402,22.428 2.37,22.228C2.226,22.348 2.042,22.49 1.818,22.654C1.594,22.818 1.35,22.972 1.086,23.116C0.822,23.26 0.552,23.382 0.276,23.482C0,23.582 -0.266,23.632 -0.522,23.632C-0.738,23.632 -0.926,23.598 -1.086,23.53C-1.246,23.462 -1.38,23.372 -1.488,23.26C-1.596,23.148 -1.676,23.018 -1.728,22.87C-1.78,22.722 -1.806,22.568 -1.806,22.408C-1.806,22.152 -1.728,21.942 -1.572,21.778C-1.416,21.614 -1.174,21.444 -0.846,21.268C-0.694,21.188 -0.482,21.082 -0.21,20.95C0.062,20.818 0.34,20.684 0.624,20.548C0.908,20.412 1.172,20.282 1.416,20.158C1.66,20.034 1.838,19.936 1.95,19.864Z" style="fill-rule:nonzero;"/>
            <path d="M10.614,21.928C10.63,21.912 10.644,21.914 10.656,21.934C10.668,21.954 10.676,21.982 10.68,22.018C10.684,22.054 10.682,22.092 10.674,22.132C10.666,22.172 10.65,22.204 10.626,22.228C10.466,22.38 10.266,22.54 10.026,22.708C9.786,22.876 9.538,23.032 9.282,23.176C9.21,23.216 9.11,23.268 8.982,23.332C8.854,23.396 8.712,23.458 8.556,23.518C8.4,23.578 8.24,23.63 8.076,23.674C7.912,23.718 7.758,23.74 7.614,23.74C7.326,23.74 7.054,23.684 6.798,23.572C6.542,23.46 6.318,23.306 6.126,23.11C5.934,22.914 5.784,22.68 5.676,22.408C5.568,22.136 5.514,21.84 5.514,21.52C5.514,21.176 5.562,20.852 5.658,20.548C5.754,20.244 5.864,19.972 5.988,19.732C6.112,19.492 6.23,19.29 6.342,19.126C6.454,18.962 6.53,18.84 6.57,18.76C6.418,18.752 6.28,18.746 6.156,18.742C6.032,18.738 5.914,18.736 5.802,18.736C5.546,18.736 5.33,18.738 5.154,18.742C4.978,18.746 4.822,18.764 4.686,18.796C4.622,18.812 4.562,18.844 4.506,18.892C4.45,18.94 4.402,18.976 4.362,19C4.346,18.984 4.324,18.962 4.296,18.934C4.268,18.906 4.254,18.876 4.254,18.844C4.254,18.828 4.258,18.816 4.266,18.808C4.266,18.8 4.318,18.754 4.422,18.67C4.526,18.586 4.656,18.486 4.812,18.37C4.968,18.254 5.14,18.126 5.328,17.986C5.516,17.846 5.696,17.716 5.868,17.596C6.04,17.476 6.188,17.374 6.312,17.29C6.436,17.206 6.518,17.156 6.558,17.14C6.606,17.124 6.654,17.132 6.702,17.164C6.75,17.196 6.766,17.22 6.75,17.236C6.726,17.252 6.69,17.282 6.642,17.326C6.594,17.37 6.578,17.408 6.594,17.44C6.682,17.512 6.834,17.576 7.05,17.632C7.266,17.688 7.51,17.734 7.782,17.77C8.054,17.806 8.334,17.834 8.622,17.854C8.91,17.874 9.17,17.884 9.402,17.884C9.746,17.884 10.022,17.874 10.23,17.854C10.438,17.834 10.61,17.808 10.746,17.776C10.874,17.744 10.958,17.72 10.998,17.704C11.006,17.704 11.022,17.716 11.046,17.74C11.07,17.764 11.082,17.792 11.082,17.824C11.082,17.84 11.024,17.88 10.908,17.944C10.792,18.008 10.674,18.076 10.554,18.148C10.482,18.188 10.396,18.24 10.296,18.304C10.196,18.368 10.088,18.43 9.972,18.49C9.856,18.55 9.734,18.604 9.606,18.652C9.478,18.7 9.354,18.728 9.234,18.736C9.114,18.752 8.974,18.764 8.814,18.772C8.654,18.78 8.486,18.786 8.31,18.79C8.134,18.794 7.956,18.798 7.776,18.802C7.596,18.806 7.43,18.808 7.278,18.808C7.254,18.848 7.216,18.914 7.164,19.006C7.112,19.098 7.062,19.216 7.014,19.36C6.966,19.504 6.922,19.668 6.882,19.852C6.842,20.036 6.822,20.236 6.822,20.452C6.822,20.78 6.872,21.082 6.972,21.358C7.072,21.634 7.212,21.872 7.392,22.072C7.572,22.272 7.786,22.428 8.034,22.54C8.282,22.652 8.55,22.708 8.838,22.708C9.006,22.708 9.168,22.688 9.324,22.648C9.48,22.608 9.628,22.556 9.768,22.492C9.908,22.428 10.038,22.358 10.158,22.282C10.278,22.206 10.382,22.132 10.47,22.06L10.614,21.928Z" style="fill-rule:nonzero;"/>
            <path d="M16.146,22.192C16.058,22.288 15.922,22.42 15.738,22.588C15.554,22.756 15.332,22.924 15.072,23.092C14.812,23.26 14.522,23.404 14.202,23.524C13.882,23.644 13.542,23.704 13.182,23.704C12.854,23.704 12.534,23.654 12.222,23.554C11.91,23.454 11.63,23.302 11.382,23.098C11.134,22.894 10.936,22.634 10.788,22.318C10.64,22.002 10.566,21.624 10.566,21.184C10.566,20.824 10.59,20.514 10.638,20.254C10.686,19.994 10.75,19.766 10.83,19.57C10.91,19.374 11,19.206 11.1,19.066C11.2,18.926 11.302,18.8 11.406,18.688C11.534,18.544 11.69,18.408 11.874,18.28C12.058,18.152 12.256,18.036 12.468,17.932C12.68,17.828 12.904,17.746 13.14,17.686C13.376,17.626 13.614,17.596 13.854,17.596C14.286,17.596 14.624,17.668 14.868,17.812C15.112,17.956 15.234,18.156 15.234,18.412C15.234,18.572 15.186,18.72 15.09,18.856C15.17,18.832 15.272,18.792 15.396,18.736C15.52,18.68 15.646,18.622 15.774,18.562C15.902,18.502 16.016,18.448 16.116,18.4C16.216,18.352 16.282,18.316 16.314,18.292C16.33,18.276 16.348,18.27 16.368,18.274C16.388,18.278 16.398,18.292 16.398,18.316C16.398,18.42 16.378,18.506 16.338,18.574C16.298,18.642 16.25,18.696 16.194,18.736C16.066,18.816 15.882,18.916 15.642,19.036C15.402,19.156 15.136,19.282 14.844,19.414C14.552,19.546 14.25,19.678 13.938,19.81C13.626,19.942 13.332,20.068 13.056,20.188C12.78,20.308 12.54,20.414 12.336,20.506C12.132,20.598 11.994,20.664 11.922,20.704C11.922,20.976 11.976,21.23 12.084,21.466C12.192,21.702 12.342,21.908 12.534,22.084C12.726,22.26 12.956,22.398 13.224,22.498C13.492,22.598 13.786,22.648 14.106,22.648C14.394,22.648 14.654,22.618 14.886,22.558C15.118,22.498 15.314,22.43 15.474,22.354C15.634,22.278 15.76,22.21 15.852,22.15C15.944,22.09 15.994,22.06 16.002,22.06C16.034,22.06 16.066,22.074 16.098,22.102C16.13,22.13 16.146,22.16 16.146,22.192ZM11.922,20.356C12.058,20.308 12.212,20.25 12.384,20.182C12.556,20.114 12.724,20.04 12.888,19.96C13.052,19.88 13.202,19.804 13.338,19.732C13.474,19.66 13.578,19.596 13.65,19.54C13.794,19.436 13.866,19.26 13.866,19.012C13.866,18.916 13.848,18.816 13.812,18.712C13.776,18.608 13.722,18.514 13.65,18.43C13.578,18.346 13.49,18.278 13.386,18.226C13.282,18.174 13.166,18.148 13.038,18.148C12.926,18.148 12.806,18.186 12.678,18.262C12.55,18.338 12.43,18.462 12.318,18.634C12.206,18.806 12.112,19.034 12.036,19.318C11.96,19.602 11.922,19.948 11.922,20.356Z" style="fill-rule:nonzero;"/>
        </g>
        <g transform="matrix(1,0,0,1,62.3138,346.656)">
            <text x="-23.802px" y="23.596px" style="font-family:'Luminari-Regular', 'Luminari';font-size:12px;">Ne<tspan x="-8.766px -2.01px " y="23.596px 23.596px ">ga</tspan>te</text>
        </g>
        <g transform="matrix(1,0,0,1,58.164,339.27)">
            <g transform="matrix(0.8973,0,0,0.884326,9.28968,12.4373)">
                <circle cx="3.434" cy="5.159" r="2.172" style="stroke:black;stroke-width:0.94px;"/>
            </g>
            <g transform="matrix(0.8973,0,0,0.884326,4.54775,12.4373)">
                <circle cx="3.434" cy="5.159" r="2.172" style="fill:white;stroke:black;stroke-width:0.94px;"/>
            </g>
            <g transform="matrix(0.8973,0,0,0.884326,-0.194181,12.4373)">
                <circle cx="3.434" cy="5.159" r="2.172" style="stroke:black;stroke-width:0.94px;"/>
            </g>
            <g transform="matrix(0.8973,0,0,0.884326,14.0316,12.4373)">
                <circle cx="3.434" cy="5.159" r="2.172" style="stroke:black;stroke-width:0.94px;"/>
            </g>
            <g transform="matrix(0.8973,0,0,0.884326,9.28968,6.70878)">
                <circle cx="3.434" cy="5.159" r="2.172" style="fill:white;stroke:black;stroke-width:0.94px;"/>
            </g>
            <g transform="matrix(0.8973,0,0,0.884326,4.54775,6.70878)">
                <circle cx="3.434" cy="5.159" r="2.172" style="stroke:black;stroke-width:0.94px;"/>
            </g>
            <g transform="matrix(0.8973,0,0,0.884326,-0.194181,6.70878)">
                <circle cx="3.434" cy="5.159" r="2.172" style="stroke:black;stroke-width:0.94px;"/>
            </g>
            <g transform="matrix(0.8973,0,0,0.884326,14.0316,6.70878)">
                <circle cx="3.434" cy="5.159" r="2.172" style="fill:white;stroke:black;stroke-width:0.94px;"/>
            </g>
            <g transform="matrix(0.8973,0,0,0.884326,9.28968,0.980236)">
                <circle cx="3.434" cy="5.159" r="2.172" style="fill:white;stroke:black;stroke-width:0.94px;"/>
            </g>
            <g transform="matrix(0.8973,0,0,0.884326,4.54775,0.980236)">
                <circle cx="3.434" cy="5.159" r="2.172" style="fill:white;stroke:black;stroke-width:0.94px;"/>
            </g>
            <g transform="matrix(0.8973,0,0,0.884326,-0.194181,0.980236)">
                <circle cx="3.434" cy="5.159" r="2.172" style="stroke:black;stroke-width:0.94px;"/>
            </g>
            <g transform="matrix(0.8973,0,0,0.884326,14.0316,0.980236)">
                <circle cx="3.434" cy="5.159" r="2.172" style="stroke:black;stroke-width:0.94px;"/>
            </g>
        </g>
        <g transform="matrix(0.0178906,0,0,0.0202937,37.7207,339.525)">
            <g transform="matrix(55.8954,0,0,49.2765,-878.032,-330.791)">
                <path d="M27.733,13.757C27.957,11.616 28.949,10 30.136,10C31.489,10 32.587,12.095 32.587,14.677C32.587,15.669 32.424,16.59 32.148,17.347C32.432,17.974 32.587,18.65 32.587,19.353C32.587,22.678 29.128,25.378 24.868,25.378C20.609,25.378 17.15,22.678 17.15,19.353C17.15,18.65 17.305,17.974 17.589,17.347C17.313,16.59 17.15,15.669 17.15,14.677C17.15,12.095 18.248,10 19.601,10C20.788,10 21.779,11.616 22.003,13.757L22.04,13.746C22.915,13.476 23.87,13.328 24.868,13.328C25.881,13.328 26.847,13.48 27.733,13.757ZM17.609,17.304L17.606,17.31L17.609,17.304ZM32.128,17.305L32.131,17.31L32.128,17.305ZM17.627,17.265L17.623,17.273L17.627,17.265ZM32.11,17.266L32.113,17.273L32.11,17.266ZM17.645,17.227L17.641,17.236L17.645,17.227ZM32.092,17.228L32.096,17.236L32.092,17.228ZM17.663,17.19L17.659,17.2L17.663,17.19ZM32.074,17.191L32.078,17.199L32.074,17.191ZM17.682,17.153L17.677,17.162L17.682,17.153ZM32.055,17.154L32.059,17.161L32.055,17.154ZM17.7,17.117L17.696,17.125L17.7,17.117ZM32.037,17.117L32.04,17.123L32.037,17.117ZM17.719,17.081L17.717,17.085L17.719,17.081ZM32.018,17.081L32.019,17.082L32.018,17.081ZM17.782,16.964L17.778,16.971L17.782,16.964ZM31.957,16.968L31.958,16.97L31.957,16.968ZM17.804,16.925L17.798,16.935L17.804,16.925ZM31.935,16.928L31.938,16.934L31.935,16.928ZM17.825,16.888L17.818,16.9L17.825,16.888ZM31.914,16.891L31.918,16.899L31.914,16.891ZM17.845,16.852L17.838,16.865L17.845,16.852ZM31.893,16.854L31.898,16.863L31.893,16.854ZM17.866,16.817L17.859,16.829L17.866,16.817ZM31.871,16.819L31.876,16.827L31.871,16.819ZM17.888,16.782L17.88,16.794L17.888,16.782ZM31.85,16.783L31.855,16.791L31.85,16.783ZM17.909,16.747L17.902,16.758L17.909,16.747ZM31.829,16.748L31.832,16.754L31.829,16.748ZM17.931,16.712L17.925,16.72L17.931,16.712ZM31.807,16.713L31.808,16.714L31.807,16.713ZM17.979,16.635L17.975,16.642L17.979,16.635ZM18.005,16.596L17.998,16.608L18.005,16.596ZM31.735,16.602L31.738,16.606L31.735,16.602ZM18.029,16.561L18.02,16.573L18.029,16.561ZM31.711,16.564L31.716,16.572L31.711,16.564ZM18.052,16.526L18.043,16.539L18.052,16.526ZM31.686,16.529L31.692,16.537L31.686,16.529ZM18.076,16.492L18.066,16.505L18.076,16.492ZM31.663,16.494L31.669,16.503L31.663,16.494ZM18.1,16.458L18.09,16.471L18.1,16.458ZM31.639,16.459L31.645,16.469L31.639,16.459ZM18.124,16.424L18.114,16.437L18.124,16.424ZM31.614,16.425L31.62,16.434L31.614,16.425ZM18.148,16.39L18.139,16.403L18.148,16.39ZM31.59,16.392L31.595,16.398L31.59,16.392ZM18.172,16.357L18.164,16.367L18.172,16.357ZM31.566,16.358L31.567,16.36L31.566,16.358ZM18.197,16.324L18.196,16.324L18.197,16.324ZM18.23,16.28L18.222,16.291L18.23,16.28ZM31.513,16.288L31.514,16.289L31.513,16.288ZM18.257,16.245L18.247,16.258L18.257,16.245ZM31.484,16.249L31.489,16.256L31.484,16.249ZM18.283,16.211L18.272,16.225L18.283,16.211ZM31.456,16.214L31.463,16.223L31.456,16.214ZM18.309,16.178L18.298,16.192L18.309,16.178ZM31.43,16.18L31.438,16.19L31.43,16.18ZM18.335,16.145L18.324,16.16L18.335,16.145ZM31.403,16.147L31.411,16.158L31.403,16.147ZM18.362,16.113L18.35,16.127L18.362,16.113ZM31.376,16.114L31.385,16.125L31.376,16.114ZM18.388,16.081L18.377,16.094L18.388,16.081ZM31.35,16.082L31.357,16.091L31.35,16.082ZM18.415,16.049L18.404,16.061L18.415,16.049ZM31.323,16.05L31.329,16.057L31.323,16.05ZM18.442,16.017L18.433,16.027L18.442,16.017ZM31.295,16.018L31.298,16.021L31.295,16.018ZM18.473,15.981L18.469,15.985L18.473,15.981ZM18.507,15.942L18.497,15.954L18.507,15.942ZM31.234,15.947L31.239,15.953L31.234,15.947ZM18.536,15.909L18.525,15.922L18.536,15.909ZM31.203,15.912L31.211,15.921L31.203,15.912ZM18.565,15.877L18.553,15.891L18.565,15.877ZM31.174,15.879L31.183,15.89L31.174,15.879ZM18.594,15.846L18.581,15.86L18.594,15.846ZM31.145,15.847L31.155,15.859L31.145,15.847ZM18.622,15.815L18.61,15.828L18.622,15.815ZM31.115,15.816L31.126,15.827L31.115,15.816ZM18.651,15.784L18.639,15.797L18.651,15.784ZM31.086,15.785L31.097,15.796L31.086,15.785ZM18.68,15.753L18.668,15.766L18.68,15.753ZM31.057,15.754L31.067,15.765L31.057,15.754ZM18.71,15.723L18.698,15.735L18.71,15.723ZM31.027,15.723L31.037,15.733L31.027,15.723ZM18.739,15.692L18.73,15.702L18.739,15.692ZM30.998,15.693L31.003,15.698L30.998,15.693ZM18.775,15.656L18.769,15.662L18.775,15.656ZM30.965,15.659L30.967,15.662L30.965,15.659ZM18.81,15.621L18.799,15.632L18.81,15.621ZM30.928,15.622L30.937,15.632L30.928,15.622ZM18.842,15.59L18.83,15.602L18.842,15.59ZM30.895,15.591L30.907,15.602L30.895,15.591ZM18.873,15.56L18.86,15.572L18.873,15.56ZM30.864,15.56L30.876,15.572L30.864,15.56ZM18.904,15.53L18.891,15.543L18.904,15.53ZM30.832,15.53L30.846,15.543L30.832,15.53ZM30.801,15.5L30.814,15.513L30.801,15.5ZM18.936,15.501L18.923,15.513L18.936,15.501ZM30.769,15.471L30.783,15.484L30.769,15.471ZM18.967,15.471L18.954,15.483L18.967,15.471ZM30.738,15.442L30.751,15.454L30.738,15.442ZM18.999,15.442L18.986,15.454L18.999,15.442ZM30.706,15.413L30.719,15.425L30.706,15.413ZM19.031,15.413L19.019,15.424L19.031,15.413ZM30.674,15.384L30.684,15.394L30.674,15.384ZM19.063,15.385L19.056,15.391L19.063,15.385ZM30.63,15.346L30.642,15.356L30.63,15.346ZM19.101,15.35L19.095,15.356L19.101,15.35ZM30.595,15.315L30.61,15.328L30.595,15.315ZM19.139,15.318L19.128,15.327L19.139,15.318ZM30.561,15.286L30.577,15.3L30.561,15.286ZM19.173,15.288L19.161,15.299L19.173,15.288ZM30.528,15.258L30.544,15.272L30.528,15.258ZM19.207,15.26L19.194,15.271L19.207,15.26ZM30.494,15.23L30.511,15.244L30.494,15.23ZM19.241,15.231L19.227,15.243L19.241,15.231ZM30.461,15.202L30.478,15.216L30.461,15.202ZM19.274,15.204L19.261,15.215L19.274,15.204ZM30.427,15.175L30.444,15.189L30.427,15.175ZM19.308,15.176L19.295,15.187L19.308,15.176ZM30.393,15.147L30.41,15.161L30.393,15.147ZM19.342,15.149L19.33,15.158L19.342,15.149ZM30.359,15.12L30.376,15.134L30.359,15.12ZM19.377,15.121L19.366,15.129L19.377,15.121ZM30.325,15.093L30.343,15.107L30.326,15.094L30.305,15.078L30.325,15.093ZM19.411,15.094L19.409,15.096L19.411,15.094ZM30.273,15.053L30.292,15.068L30.273,15.053ZM19.452,15.062L19.446,15.067L19.452,15.062ZM30.238,15.027L30.257,15.041L30.238,15.027ZM19.492,15.032L19.481,15.04L19.492,15.032ZM30.203,15L30.222,15.015L30.203,15ZM19.529,15.004L19.516,15.013L19.529,15.004ZM30.168,14.974L30.187,14.989L30.168,14.974ZM19.565,14.977L19.552,14.987L19.565,14.977ZM30.132,14.948L30.152,14.963L30.132,14.948ZM19.601,14.951L19.588,14.961L19.601,14.951ZM30.097,14.922L30.117,14.937L30.097,14.922ZM19.637,14.925L19.624,14.934L19.637,14.925ZM30.061,14.897L30.081,14.911L30.061,14.897ZM19.673,14.899L19.661,14.908L19.673,14.899ZM30.025,14.871L30.046,14.886L30.025,14.871ZM19.71,14.873L19.698,14.881L19.71,14.873ZM29.988,14.846L30.011,14.862L29.988,14.846ZM19.746,14.848L19.738,14.853L19.746,14.848ZM29.954,14.822L29.915,14.796C29.928,14.805 29.941,14.813 29.954,14.822ZM19.826,14.793L19.821,14.796L19.826,14.793ZM29.858,14.758L29.881,14.773L29.858,14.758ZM19.868,14.765L19.858,14.771L19.868,14.765ZM29.822,14.734L29.845,14.749L29.822,14.734ZM19.907,14.739L19.896,14.747L19.907,14.739ZM29.785,14.71L29.807,14.724L29.785,14.71ZM19.946,14.714L19.933,14.722L19.946,14.714ZM29.747,14.686L29.77,14.7L29.747,14.686ZM19.984,14.689L19.971,14.697L19.984,14.689ZM29.71,14.662L29.733,14.676L29.71,14.662ZM20.023,14.665L20.01,14.673L20.023,14.665ZM29.672,14.638L29.696,14.653L29.672,14.638ZM20.061,14.641L20.049,14.648L20.061,14.641ZM29.634,14.615L29.659,14.63L29.634,14.615ZM20.099,14.617L20.09,14.623L20.099,14.617ZM29.494,14.531C29.537,14.556 29.58,14.582 29.623,14.608C29.581,14.582 29.538,14.556 29.494,14.531ZM20.138,14.593L20.134,14.596L20.138,14.593ZM20.221,14.543L20.218,14.545L20.221,14.543ZM29.458,14.51L29.483,14.525L29.458,14.51ZM20.266,14.517L20.257,14.522L20.266,14.517ZM29.42,14.488L29.444,14.502L29.42,14.488ZM20.308,14.493L20.297,14.499L20.308,14.493ZM29.381,14.466L29.405,14.48L29.381,14.466ZM20.349,14.47L20.337,14.477L20.349,14.47ZM29.341,14.444L29.366,14.457L29.341,14.444ZM20.389,14.447L20.377,14.454L20.389,14.447ZM29.302,14.422L29.327,14.436L29.302,14.422ZM20.43,14.425L20.418,14.431L20.43,14.425ZM29.262,14.4L29.288,14.414L29.262,14.4ZM20.47,14.403L20.46,14.408L20.47,14.403ZM29.222,14.379L29.249,14.393L29.222,14.379ZM20.51,14.381L20.503,14.385L20.51,14.381ZM29.186,14.359L29.143,14.337C29.157,14.344 29.171,14.352 29.186,14.359ZM29.077,14.303L29.105,14.317L29.077,14.303ZM20.638,14.314L20.636,14.315L20.638,14.314ZM29.038,14.283L29.064,14.296L29.038,14.283ZM20.685,14.29L20.677,14.294L20.685,14.29ZM28.998,14.263L29.023,14.276L28.998,14.263ZM20.729,14.268L20.719,14.273L20.729,14.268ZM28.957,14.243L28.982,14.255L28.957,14.243ZM20.772,14.247L20.761,14.252L20.772,14.247ZM28.916,14.223L28.941,14.235L28.916,14.223ZM20.814,14.226L20.803,14.232L20.814,14.226ZM28.875,14.203L28.899,14.215L28.875,14.203ZM20.857,14.206L20.846,14.211L20.857,14.206ZM28.833,14.184L28.858,14.195L28.833,14.184ZM20.899,14.186L20.891,14.19L20.899,14.186ZM28.791,14.164L28.817,14.176L28.791,14.164ZM20.942,14.166L20.937,14.168L20.942,14.166ZM28.752,14.146L28.707,14.126C28.722,14.133 28.737,14.139 28.752,14.146ZM28.643,14.097L28.667,14.108L28.643,14.097ZM21.075,14.106L21.074,14.106L21.075,14.106ZM28.601,14.079L28.624,14.089L28.601,14.079ZM21.124,14.084L21.117,14.087L21.124,14.084ZM28.558,14.061L28.581,14.071L28.558,14.061ZM21.17,14.065L21.161,14.068L21.17,14.065ZM28.516,14.043L28.538,14.052L28.516,14.043ZM21.215,14.046L21.204,14.05L21.215,14.046ZM28.473,14.025L28.494,14.034L28.473,14.025ZM21.259,14.027L21.249,14.031L21.259,14.027ZM28.429,14.007L28.451,14.016L28.429,14.007ZM21.303,14.009L21.294,14.013L21.303,14.009ZM28.386,13.989L28.406,13.998L28.386,13.989ZM21.347,13.991L21.341,13.994L21.347,13.991ZM28.342,13.972L28.361,13.979L28.342,13.972ZM21.392,13.973L21.391,13.974L21.392,13.973ZM28.298,13.955L28.311,13.96L28.298,13.955ZM28.243,13.934L28.254,13.938L28.243,13.934ZM28.195,13.915L28.21,13.921L28.195,13.915ZM21.531,13.92L21.53,13.92L21.531,13.92ZM28.149,13.898L28.165,13.904L28.149,13.898ZM21.581,13.901L21.575,13.903L21.581,13.901ZM28.103,13.882L28.119,13.888L28.103,13.882ZM21.629,13.884L21.62,13.887L21.629,13.884ZM28.058,13.866L28.074,13.871L28.058,13.866ZM21.675,13.867L21.666,13.87L21.675,13.867ZM28.013,13.85L28.028,13.855L28.013,13.85ZM21.721,13.851L21.713,13.854L21.721,13.851ZM27.968,13.834L27.981,13.839L27.968,13.834ZM21.767,13.835L21.76,13.837L21.767,13.835ZM27.922,13.819L27.932,13.822L27.922,13.819ZM21.813,13.819L21.809,13.821L21.813,13.819ZM27.877,13.803L27.879,13.804L27.877,13.803Z" style="fill:none;stroke:black;stroke-width:1.22px;"/>
            </g>
            <g transform="matrix(55.8954,0,0,49.2765,-878.032,-330.791)">
                <path d="M25.128,19.358C24.963,19.04 24.868,18.67 24.868,18.275C24.868,17.096 25.713,16.138 26.753,16.138C27.793,16.138 28.637,17.096 28.637,18.275C28.637,19.031 28.291,19.696 27.768,20.076C27.128,19.668 26.188,19.396 25.128,19.358ZM21.969,20.076C21.446,19.696 21.099,19.031 21.099,18.275C21.099,17.096 21.944,16.138 22.984,16.138C24.024,16.138 24.868,17.096 24.868,18.275C24.868,18.67 24.774,19.04 24.609,19.358C23.549,19.396 22.609,19.668 21.969,20.076Z" style="fill:none;stroke:black;stroke-width:1.22px;"/>
            </g>
            <g transform="matrix(1,0,0,1,-53.1856,50.0357)">
                <ellipse cx="565.186" cy="671.455" rx="210.672" ry="98.631" style="fill:none;stroke:black;stroke-width:63.81px;"/>
            </g>
            <g transform="matrix(51.2,0,0,45.1371,0.670978,88.9676)">
                <path d="M12.057,13.791C12.057,13.668 11.958,13.568 11.835,13.568L8.139,13.568C8.016,13.568 7.916,13.668 7.916,13.791L7.916,14.236C7.916,14.359 8.016,14.458 8.139,14.458L11.835,14.458C11.958,14.458 12.057,14.359 12.057,14.236L12.057,13.791Z"/>
            </g>
        </g>
    </g>
</svg>
