<?xml version="1.0" encoding="UTF-8" standalone="no"?>
<!DOCTYPE svg PUBLIC "-//W3C//DTD SVG 1.1//EN" "http://www.w3.org/Graphics/SVG/1.1/DTD/svg11.dtd">
<svg width="100%" height="100%" viewBox="0 0 90 380" version="1.1" xmlns="http://www.w3.org/2000/svg" xmlns:xlink="http://www.w3.org/1999/xlink" xml:space="preserve" xmlns:serif="http://www.serif.com/" style="fill-rule:evenodd;clip-rule:evenodd;stroke-linecap:round;stroke-linejoin:round;stroke-miterlimit:1.5;">
    <g transform="matrix(0.43251,0,0,2.01589,-22.7311,-120.797)">
        <rect x="52.556" y="59.922" width="208.087" height="188.503" style="fill:rgb(154,178,191);stroke:rgb(5,5,5);stroke-width:1.37px;"/>
    </g>
    <g transform="matrix(0.75,0,0,1,-43.7392,183.538)">
        <g transform="matrix(0.7112,0,0,72.8139,48.976,-21717.6)">
            <rect x="13.921" y="296.737" width="168.729" height="3.935" style="fill:rgb(191,191,191);"/>
        </g>
        <g transform="matrix(3.30333,0,0,0.695794,-476.123,112.334)">
            <g id="Bit8">
                <rect x="161.957" y="57.989" width="36.327" height="2.261"/>
            </g>
        </g>
        <g transform="matrix(3.30333,0,0,0.695794,-476.123,78.6945)">
            <g id="Bit7">
                <rect x="161.957" y="57.989" width="36.327" height="2.261"/>
            </g>
        </g>
        <g transform="matrix(3.30333,0,0,0.695794,-476.123,43.3266)">
            <g id="Bit6">
                <rect x="161.957" y="57.989" width="36.327" height="2.261"/>
            </g>
        </g>
        <g transform="matrix(3.30333,0,0,0.695794,-476.123,8.01938)">
            <g id="Bit5">
                <rect x="161.957" y="57.989" width="36.327" height="2.261"/>
            </g>
        </g>
        <g transform="matrix(3.30333,0,0,0.695794,-476.123,-60.2029)">
            <g id="Bit4">
                <rect x="161.957" y="57.989" width="36.327" height="2.261"/>
            </g>
        </g>
        <g transform="matrix(3.30333,0,0,0.695794,-476.123,-25.4274)">
            <g id="Bit3">
                <rect x="161.957" y="57.989" width="36.327" height="2.261"/>
            </g>
        </g>
        <g transform="matrix(3.30333,0,0,0.695794,-476.123,-94.5002)">
            <g id="Bit2">
                <rect x="161.957" y="57.989" width="36.327" height="2.261"/>
            </g>
        </g>
        <g transform="matrix(3.30333,0,0,0.695794,-476.123,-130.158)">
            <g id="Bit1">
                <rect x="161.957" y="57.989" width="36.327" height="2.261"/>
            </g>
        </g>
    </g>
    <g transform="matrix(1,0,0,1,3.91941,9.73376)">
        <g id="Scan-input" serif:id="Scan#input" transform="matrix(0.175002,0,0,0.175002,17.4678,277.681)">
            <rect x="53.94" y="106.916" width="161.978" height="161.978" style="fill:rgb(217,217,217);"/>
        </g>
        <g transform="matrix(1,0,0,1,-55.8931,172.009)">
            <path d="M92.368,114.656C92.361,114.483 92.306,114.353 92.203,114.266C92.1,114.18 91.981,114.136 91.848,114.136C91.688,114.136 91.565,114.188 91.478,114.291C91.391,114.395 91.348,114.513 91.348,114.646C91.348,114.74 91.371,114.831 91.418,114.921C91.465,115.011 91.585,115.093 91.778,115.166L92.378,115.406C92.758,115.553 93.02,115.753 93.163,116.006C93.306,116.26 93.378,116.536 93.378,116.836C93.378,117.05 93.34,117.248 93.263,117.431C93.186,117.615 93.081,117.776 92.948,117.916C92.815,118.056 92.655,118.166 92.468,118.246C92.281,118.326 92.078,118.366 91.858,118.366C91.445,118.366 91.098,118.236 90.818,117.976C90.678,117.85 90.565,117.691 90.478,117.501C90.391,117.311 90.345,117.09 90.338,116.836L91.298,116.836C91.318,116.976 91.366,117.106 91.443,117.226C91.52,117.346 91.655,117.406 91.848,117.406C91.995,117.406 92.126,117.358 92.243,117.261C92.36,117.165 92.418,117.03 92.418,116.856C92.418,116.716 92.381,116.596 92.308,116.496C92.235,116.396 92.101,116.31 91.908,116.236L91.418,116.056C91.098,115.936 90.846,115.758 90.663,115.521C90.48,115.285 90.388,114.996 90.388,114.656C90.388,114.443 90.428,114.245 90.508,114.061C90.588,113.878 90.698,113.72 90.838,113.586C90.971,113.453 91.128,113.351 91.308,113.281C91.488,113.211 91.681,113.176 91.888,113.176C92.095,113.176 92.286,113.213 92.463,113.286C92.64,113.36 92.791,113.463 92.918,113.596C93.045,113.73 93.145,113.888 93.218,114.071C93.291,114.255 93.328,114.45 93.328,114.656L92.368,114.656Z" style="fill-rule:nonzero;"/>
            <path d="M95.118,116.846C95.118,117.006 95.163,117.13 95.253,117.216C95.343,117.303 95.465,117.346 95.618,117.346C95.811,117.346 95.94,117.29 96.003,117.176C96.066,117.063 96.105,116.95 96.118,116.836L97.138,116.836C97.138,117.283 97.001,117.643 96.728,117.916C96.595,118.056 96.435,118.166 96.248,118.246C96.061,118.326 95.851,118.366 95.618,118.366C95.298,118.366 95.026,118.3 94.803,118.166C94.58,118.033 94.408,117.856 94.288,117.636C94.215,117.503 94.165,117.35 94.138,117.176C94.111,117.003 94.098,116.813 94.098,116.606L94.098,114.936C94.098,114.73 94.111,114.54 94.138,114.366C94.165,114.193 94.215,114.04 94.288,113.906C94.408,113.686 94.58,113.51 94.803,113.376C95.026,113.243 95.298,113.176 95.618,113.176C95.851,113.176 96.063,113.216 96.253,113.296C96.443,113.376 96.605,113.486 96.738,113.626C97.005,113.926 97.138,114.316 97.138,114.796L96.118,114.796C96.118,114.59 96.073,114.438 95.983,114.341C95.893,114.245 95.771,114.196 95.618,114.196C95.465,114.196 95.343,114.245 95.253,114.341C95.163,114.438 95.118,114.583 95.118,114.776L95.118,116.846Z" style="fill-rule:nonzero;"/>
            <path d="M99.668,118.306L99.668,117.786L99.648,117.786C99.515,117.973 99.38,118.116 99.243,118.216C99.106,118.316 98.915,118.366 98.668,118.366C98.548,118.366 98.426,118.348 98.303,118.311C98.18,118.275 98.061,118.206 97.948,118.106C97.835,118.013 97.743,117.878 97.673,117.701C97.603,117.525 97.568,117.296 97.568,117.016C97.568,116.73 97.591,116.478 97.638,116.261C97.685,116.045 97.771,115.863 97.898,115.716C98.018,115.576 98.181,115.471 98.388,115.401C98.595,115.331 98.858,115.296 99.178,115.296L99.288,115.296C99.328,115.296 99.365,115.3 99.398,115.306C99.431,115.313 99.471,115.316 99.518,115.316C99.565,115.316 99.615,115.32 99.668,115.326L99.668,114.796C99.668,114.623 99.631,114.48 99.558,114.366C99.485,114.253 99.351,114.196 99.158,114.196C99.025,114.196 98.903,114.24 98.793,114.326C98.683,114.413 98.611,114.54 98.578,114.706L97.588,114.706C97.615,114.253 97.768,113.886 98.048,113.606C98.181,113.473 98.341,113.368 98.528,113.291C98.715,113.215 98.925,113.176 99.158,113.176C99.371,113.176 99.571,113.21 99.758,113.276C99.945,113.343 100.108,113.443 100.248,113.576C100.381,113.71 100.488,113.876 100.568,114.076C100.648,114.276 100.688,114.51 100.688,114.776L100.688,118.306L99.668,118.306ZM99.668,116.126C99.555,116.106 99.461,116.096 99.388,116.096C99.168,116.096 98.98,116.148 98.823,116.251C98.666,116.355 98.588,116.543 98.588,116.816C98.588,117.01 98.635,117.166 98.728,117.286C98.821,117.406 98.951,117.466 99.118,117.466C99.291,117.466 99.426,117.41 99.523,117.296C99.62,117.183 99.668,117.023 99.668,116.816L99.668,116.126Z" style="fill-rule:nonzero;"/>
            <path d="M101.438,118.306L101.438,113.236L102.458,113.236L102.458,113.726L102.478,113.726C102.585,113.566 102.713,113.435 102.863,113.331C103.013,113.228 103.205,113.176 103.438,113.176C103.565,113.176 103.691,113.198 103.818,113.241C103.945,113.285 104.058,113.356 104.158,113.456C104.258,113.556 104.338,113.685 104.398,113.841C104.458,113.998 104.488,114.19 104.488,114.416L104.488,118.306L103.468,118.306L103.468,114.796C103.468,114.61 103.425,114.463 103.338,114.356C103.251,114.25 103.128,114.196 102.968,114.196C102.775,114.196 102.641,114.256 102.568,114.376C102.495,114.496 102.458,114.67 102.458,114.896L102.458,118.306L101.438,118.306Z" style="fill-rule:nonzero;"/>
        </g>
        <g transform="matrix(1,0,0,1,-55.8931,172.009)">
            <text x="90.098px" y="118.306px" style="font-family:'DINCondensed-Bold', 'DIN Condensed';font-weight:700;font-stretch:condensed;font-size:10px;">scan</text>
        </g>
    </g>
    <g transform="matrix(1,0,0,1,-52.7711,121.78)">
        <g id="Down-button" serif:id="Down#button" transform="matrix(0.758898,0,0,0.758898,55.9693,-100.103)">
            <circle cx="55.661" cy="308.513" r="7.929"/>
        </g>
        <g id="Bank-lcd-3" serif:id="Bank#lcd$3" transform="matrix(0.77953,0,0,0.846667,-61.704,-147.791)">
            <rect x="173.071" y="291.218" width="64.141" height="28.346" style="fill:rgb(13,13,13);"/>
        </g>
        <g id="Up-button" serif:id="Up#button" transform="matrix(0.758898,0,0,0.758898,55.9693,-145.612)">
            <circle cx="55.661" cy="308.513" r="7.929"/>
        </g>
        <g transform="matrix(1,0,0,1,1.15238,-44.1074)">
            <path d="M90.238,118.306L90.238,111.186L91.258,111.186L91.258,113.696L91.278,113.696C91.391,113.53 91.526,113.401 91.683,113.311C91.84,113.221 92.018,113.176 92.218,113.176C92.465,113.176 92.656,113.22 92.793,113.306C92.93,113.393 93.041,113.503 93.128,113.636C93.195,113.743 93.238,113.883 93.258,114.056C93.278,114.23 93.288,114.5 93.288,114.866L93.288,116.796C93.288,117.076 93.275,117.3 93.248,117.466C93.221,117.633 93.178,117.773 93.118,117.886C92.945,118.206 92.648,118.366 92.228,118.366C91.975,118.366 91.781,118.316 91.648,118.216C91.515,118.116 91.385,117.993 91.258,117.846L91.258,118.306L90.238,118.306ZM92.268,114.796C92.268,114.636 92.233,114.496 92.163,114.376C92.093,114.256 91.961,114.196 91.768,114.196C91.621,114.196 91.5,114.248 91.403,114.351C91.306,114.455 91.258,114.586 91.258,114.746L91.258,116.716C91.258,116.903 91.305,117.055 91.398,117.171C91.491,117.288 91.615,117.346 91.768,117.346C91.941,117.346 92.068,117.283 92.148,117.156C92.228,117.03 92.268,116.863 92.268,116.656L92.268,114.796Z" style="fill-rule:nonzero;"/>
            <path d="M96.058,118.306L96.058,117.786L96.038,117.786C95.905,117.973 95.77,118.116 95.633,118.216C95.496,118.316 95.305,118.366 95.058,118.366C94.938,118.366 94.816,118.348 94.693,118.311C94.57,118.275 94.451,118.206 94.338,118.106C94.225,118.013 94.133,117.878 94.063,117.701C93.993,117.525 93.958,117.296 93.958,117.016C93.958,116.73 93.981,116.478 94.028,116.261C94.075,116.045 94.161,115.863 94.288,115.716C94.408,115.576 94.571,115.471 94.778,115.401C94.985,115.331 95.248,115.296 95.568,115.296L95.678,115.296C95.718,115.296 95.755,115.3 95.788,115.306C95.821,115.313 95.861,115.316 95.908,115.316C95.955,115.316 96.005,115.32 96.058,115.326L96.058,114.796C96.058,114.623 96.021,114.48 95.948,114.366C95.875,114.253 95.741,114.196 95.548,114.196C95.415,114.196 95.293,114.24 95.183,114.326C95.073,114.413 95.001,114.54 94.968,114.706L93.978,114.706C94.005,114.253 94.158,113.886 94.438,113.606C94.571,113.473 94.731,113.368 94.918,113.291C95.105,113.215 95.315,113.176 95.548,113.176C95.761,113.176 95.961,113.21 96.148,113.276C96.335,113.343 96.498,113.443 96.638,113.576C96.771,113.71 96.878,113.876 96.958,114.076C97.038,114.276 97.078,114.51 97.078,114.776L97.078,118.306L96.058,118.306ZM96.058,116.126C95.945,116.106 95.851,116.096 95.778,116.096C95.558,116.096 95.37,116.148 95.213,116.251C95.056,116.355 94.978,116.543 94.978,116.816C94.978,117.01 95.025,117.166 95.118,117.286C95.211,117.406 95.341,117.466 95.508,117.466C95.681,117.466 95.816,117.41 95.913,117.296C96.01,117.183 96.058,117.023 96.058,116.816L96.058,116.126Z" style="fill-rule:nonzero;"/>
            <path d="M97.828,118.306L97.828,113.236L98.848,113.236L98.848,113.726L98.868,113.726C98.975,113.566 99.103,113.435 99.253,113.331C99.403,113.228 99.595,113.176 99.828,113.176C99.955,113.176 100.081,113.198 100.208,113.241C100.335,113.285 100.448,113.356 100.548,113.456C100.648,113.556 100.728,113.685 100.788,113.841C100.848,113.998 100.878,114.19 100.878,114.416L100.878,118.306L99.858,118.306L99.858,114.796C99.858,114.61 99.815,114.463 99.728,114.356C99.641,114.25 99.518,114.196 99.358,114.196C99.165,114.196 99.031,114.256 98.958,114.376C98.885,114.496 98.848,114.67 98.848,114.896L98.848,118.306L97.828,118.306Z" style="fill-rule:nonzero;"/>
            <path d="M101.718,118.306L101.718,111.186L102.738,111.186L102.738,115.446L102.758,115.446L103.988,113.236L105.008,113.236L103.798,115.296L105.258,118.306L104.148,118.306L103.228,116.116L102.738,116.886L102.738,118.306L101.718,118.306Z" style="fill-rule:nonzero;"/>
        </g>
        <g transform="matrix(1,0,0,1,1.15238,-44.1074)">
            <text x="89.818px" y="118.306px" style="font-family:'DINCondensed-Bold', 'DIN Condensed';font-weight:700;font-stretch:condensed;font-size:10px;">bank</text>
        </g>
    </g>
    <g transform="matrix(1,0,0,1,-0.418,-126.291)">
        <g id="Mix-slider" serif:id="Mix#slider" transform="matrix(0.0833124,0,0,3.87469,31.672,-483.418)">
            <rect x="92.975" y="182.872" width="144.036" height="20.647" style="fill:rgb(217,217,217);"/>
        </g>
        <g transform="matrix(1,0,0,1,-51.9949,99.1411)">
            <path d="M92.373,118.306L92.373,113.236L93.393,113.236L93.393,113.726L93.413,113.726C93.52,113.566 93.648,113.435 93.798,113.331C93.948,113.228 94.14,113.176 94.373,113.176C94.593,113.176 94.776,113.23 94.923,113.336C95.07,113.443 95.19,113.56 95.283,113.686C95.41,113.546 95.55,113.426 95.703,113.326C95.856,113.226 96.07,113.176 96.343,113.176C96.47,113.176 96.6,113.198 96.733,113.241C96.866,113.285 96.986,113.356 97.093,113.456C97.2,113.556 97.286,113.685 97.353,113.841C97.42,113.998 97.453,114.19 97.453,114.416L97.453,118.306L96.433,118.306L96.433,114.796C96.433,114.61 96.39,114.463 96.303,114.356C96.216,114.25 96.093,114.196 95.933,114.196C95.74,114.196 95.606,114.256 95.533,114.376C95.46,114.496 95.423,114.67 95.423,114.896L95.423,118.306L94.403,118.306L94.403,114.796C94.403,114.61 94.36,114.463 94.273,114.356C94.186,114.25 94.063,114.196 93.903,114.196C93.71,114.196 93.576,114.256 93.503,114.376C93.43,114.496 93.393,114.67 93.393,114.896L93.393,118.306L92.373,118.306Z" style="fill-rule:nonzero;"/>
            <path d="M98.293,118.306L98.293,113.236L99.313,113.236L99.313,118.306L98.293,118.306ZM98.293,112.206L98.293,111.186L99.313,111.186L99.313,112.206L98.293,112.206Z" style="fill-rule:nonzero;"/>
            <path d="M99.623,118.306L100.873,115.716L99.683,113.236L100.763,113.236L101.393,114.676L102.023,113.236L103.103,113.236L101.893,115.716L103.163,118.306L102.083,118.306L101.393,116.756L100.703,118.306L99.623,118.306Z" style="fill-rule:nonzero;"/>
        </g>
        <g transform="matrix(1,0,0,1,-51.9949,99.1411)">
            <text x="91.953px" y="118.306px" style="font-family:'DINCondensed-Bold', 'DIN Condensed';font-weight:700;font-stretch:condensed;font-size:10px;">mix</text>
        </g>
    </g>
    <g transform="matrix(1,0,0,1,-13.1943,-332.812)">
        <g id="BusIn-led" serif:id="BusIn#led" transform="matrix(1,0,0,1,-19.0543,43.7203)">
            <circle cx="42.167" cy="335.861" r="3.82" style="fill:rgb(230,230,230);"/>
        </g>
        <g id="BusOut-led" serif:id="BusOut#led" transform="matrix(1,0,0,1,50.9457,43.7203)">
            <circle cx="42.167" cy="335.861" r="3.82" style="fill:rgb(230,230,230);"/>
        </g>
        <g transform="matrix(1,0,0,1,62.3138,346.656)">
            <path d="M-25.098,20.968C-25.098,21.376 -25.09,21.774 -25.074,22.162C-25.058,22.55 -25.014,22.864 -24.942,23.104C-24.798,23.192 -24.636,23.246 -24.456,23.266C-24.276,23.286 -24.106,23.3 -23.946,23.308C-23.786,23.316 -23.652,23.332 -23.544,23.356C-23.436,23.38 -23.382,23.432 -23.382,23.512C-23.382,23.552 -23.402,23.586 -23.442,23.614C-23.482,23.642 -23.546,23.656 -23.634,23.656C-23.866,23.664 -24.182,23.654 -24.582,23.626C-24.982,23.598 -25.438,23.584 -25.95,23.584C-26.606,23.584 -27.1,23.606 -27.432,23.65C-27.764,23.694 -27.962,23.716 -28.026,23.716C-28.082,23.716 -28.13,23.702 -28.17,23.674C-28.21,23.646 -28.23,23.608 -28.23,23.56C-28.23,23.456 -28.182,23.4 -28.086,23.392C-27.99,23.384 -27.81,23.36 -27.546,23.32C-27.37,23.304 -27.226,23.282 -27.114,23.254C-27.002,23.226 -26.89,23.192 -26.778,23.152C-26.73,22.976 -26.69,22.796 -26.658,22.612C-26.626,22.428 -26.598,22.198 -26.574,21.922C-26.55,21.646 -26.532,21.302 -26.52,20.89C-26.508,20.478 -26.502,19.948 -26.502,19.3C-26.502,18.708 -26.506,18.206 -26.514,17.794C-26.522,17.382 -26.536,17.038 -26.556,16.762C-26.576,16.486 -26.596,16.268 -26.616,16.108C-26.636,15.948 -26.658,15.824 -26.682,15.736C-26.786,15.664 -26.922,15.618 -27.09,15.598C-27.258,15.578 -27.422,15.562 -27.582,15.55C-27.742,15.538 -27.88,15.52 -27.996,15.496C-28.112,15.472 -28.17,15.416 -28.17,15.328C-28.17,15.224 -28.106,15.172 -27.978,15.172C-27.834,15.172 -27.588,15.19 -27.24,15.226C-26.892,15.262 -26.466,15.28 -25.962,15.28C-25.882,15.28 -25.818,15.268 -25.77,15.244C-25.69,15.204 -25.562,15.148 -25.386,15.076C-25.21,15.004 -25.006,14.932 -24.774,14.86C-24.542,14.788 -24.296,14.724 -24.036,14.668C-23.776,14.612 -23.522,14.584 -23.274,14.584C-22.874,14.584 -22.494,14.63 -22.134,14.722C-21.774,14.814 -21.46,14.952 -21.192,15.136C-20.924,15.32 -20.71,15.548 -20.55,15.82C-20.39,16.092 -20.31,16.408 -20.31,16.768C-20.31,17.12 -20.392,17.446 -20.556,17.746C-20.72,18.046 -20.926,18.32 -21.174,18.568C-21.422,18.816 -21.694,19.03 -21.99,19.21C-22.286,19.39 -22.562,19.532 -22.818,19.636C-22.49,19.636 -22.18,19.67 -21.888,19.738C-21.596,19.806 -21.332,19.902 -21.096,20.026C-20.86,20.15 -20.664,20.3 -20.508,20.476C-20.352,20.652 -20.25,20.852 -20.202,21.076C-20.202,21.188 -20.212,21.262 -20.232,21.298C-20.252,21.334 -20.29,21.392 -20.346,21.472C-20.186,21.728 -20.008,22.03 -19.812,22.378C-19.616,22.726 -19.396,23.058 -19.152,23.374C-18.908,23.69 -18.636,23.958 -18.336,24.178C-18.036,24.398 -17.702,24.508 -17.334,24.508C-17.262,24.508 -17.18,24.504 -17.088,24.496C-16.996,24.488 -16.908,24.472 -16.824,24.448C-16.74,24.424 -16.662,24.388 -16.59,24.34C-16.518,24.292 -16.466,24.228 -16.434,24.148C-16.402,24.124 -16.37,24.112 -16.338,24.112C-16.298,24.112 -16.272,24.132 -16.26,24.172C-16.248,24.212 -16.238,24.252 -16.23,24.292C-16.39,24.652 -16.786,24.832 -17.418,24.832C-17.738,24.832 -18.044,24.78 -18.336,24.676C-18.628,24.572 -18.908,24.434 -19.176,24.262C-19.444,24.09 -19.7,23.892 -19.944,23.668C-20.188,23.444 -20.418,23.212 -20.634,22.972C-20.794,22.796 -20.98,22.576 -21.192,22.312C-21.404,22.048 -21.63,21.778 -21.87,21.502C-22.11,21.226 -22.36,20.966 -22.62,20.722C-22.88,20.478 -23.138,20.288 -23.394,20.152C-23.514,20.096 -23.65,20.054 -23.802,20.026C-23.954,19.998 -24.1,19.978 -24.24,19.966C-24.38,19.954 -24.51,19.948 -24.63,19.948L-24.906,19.948C-24.954,19.948 -24.994,19.95 -25.026,19.954C-25.058,19.958 -25.082,19.96 -25.098,19.96L-25.098,20.968ZM-24.894,15.916C-24.934,16.068 -24.966,16.28 -24.99,16.552C-25.014,16.824 -25.034,17.122 -25.05,17.446C-25.066,17.77 -25.078,18.106 -25.086,18.454C-25.094,18.802 -25.098,19.132 -25.098,19.444C-25.018,19.508 -24.864,19.544 -24.636,19.552C-24.408,19.56 -24.162,19.564 -23.898,19.564C-23.666,19.564 -23.472,19.544 -23.316,19.504C-23.16,19.464 -23.014,19.392 -22.878,19.288C-22.798,19.232 -22.708,19.14 -22.608,19.012C-22.508,18.884 -22.412,18.732 -22.32,18.556C-22.228,18.38 -22.15,18.182 -22.086,17.962C-22.022,17.742 -21.99,17.508 -21.99,17.26C-21.99,16.9 -22.03,16.578 -22.11,16.294C-22.19,16.01 -22.298,15.766 -22.434,15.562C-22.57,15.358 -22.73,15.202 -22.914,15.094C-23.098,14.986 -23.294,14.932 -23.502,14.932C-23.614,14.932 -23.74,14.954 -23.88,14.998C-24.02,15.042 -24.158,15.1 -24.294,15.172C-24.43,15.244 -24.55,15.326 -24.654,15.418C-24.758,15.51 -24.826,15.608 -24.858,15.712L-24.894,15.916Z" style="fill-rule:nonzero;"/>
            <path d="M-14.814,21.724C-14.838,21.588 -14.862,21.44 -14.886,21.28C-14.91,21.12 -14.934,20.968 -14.958,20.824C-14.982,20.68 -15.004,20.556 -15.024,20.452C-15.044,20.348 -15.058,20.28 -15.066,20.248C-15.194,20.296 -15.338,20.352 -15.498,20.416C-15.658,20.48 -15.818,20.55 -15.978,20.626C-16.138,20.702 -16.29,20.778 -16.434,20.854C-16.578,20.93 -16.698,21 -16.794,21.064C-16.978,21.184 -17.118,21.304 -17.214,21.424C-17.31,21.544 -17.358,21.688 -17.358,21.856C-17.358,22.088 -17.29,22.292 -17.154,22.468C-17.018,22.644 -16.806,22.732 -16.518,22.732C-16.366,22.732 -16.208,22.704 -16.044,22.648C-15.88,22.592 -15.728,22.528 -15.588,22.456C-15.448,22.384 -15.326,22.312 -15.222,22.24C-15.118,22.168 -15.046,22.112 -15.006,22.072C-14.942,22.008 -14.892,21.954 -14.856,21.91C-14.82,21.866 -14.806,21.804 -14.814,21.724ZM-15.162,19.864C-15.21,19.616 -15.266,19.394 -15.33,19.198C-15.394,19.002 -15.474,18.838 -15.57,18.706C-15.666,18.574 -15.782,18.474 -15.918,18.406C-16.054,18.338 -16.222,18.304 -16.422,18.304C-16.598,18.304 -16.76,18.336 -16.908,18.4C-17.056,18.464 -17.184,18.54 -17.292,18.628C-17.4,18.716 -17.484,18.804 -17.544,18.892C-17.604,18.98 -17.638,19.048 -17.646,19.096C-17.654,19.16 -17.69,19.192 -17.754,19.192C-17.866,19.192 -17.97,19.152 -18.066,19.072C-18.162,18.992 -18.21,18.896 -18.21,18.784C-18.21,18.72 -18.202,18.672 -18.186,18.64C-18.002,18.536 -17.778,18.424 -17.514,18.304C-17.25,18.184 -16.976,18.072 -16.692,17.968C-16.408,17.864 -16.126,17.778 -15.846,17.71C-15.566,17.642 -15.314,17.608 -15.09,17.608C-14.754,17.608 -14.496,17.656 -14.316,17.752C-14.136,17.848 -14.002,17.984 -13.914,18.16C-13.826,18.336 -13.772,18.542 -13.752,18.778C-13.732,19.014 -13.714,19.268 -13.698,19.54C-13.674,19.948 -13.642,20.342 -13.602,20.722C-13.562,21.102 -13.502,21.438 -13.422,21.73C-13.342,22.022 -13.24,22.258 -13.116,22.438C-12.992,22.618 -12.838,22.708 -12.654,22.708C-12.566,22.708 -12.47,22.692 -12.366,22.66C-12.262,22.628 -12.162,22.59 -12.066,22.546C-11.97,22.502 -11.884,22.458 -11.808,22.414C-11.732,22.37 -11.682,22.34 -11.658,22.324C-11.586,22.324 -11.542,22.36 -11.526,22.432C-11.526,22.472 -11.534,22.508 -11.55,22.54C-11.566,22.556 -11.626,22.596 -11.73,22.66C-11.834,22.724 -11.962,22.8 -12.114,22.888C-12.266,22.976 -12.434,23.07 -12.618,23.17C-12.802,23.27 -12.984,23.364 -13.164,23.452C-13.344,23.54 -13.51,23.612 -13.662,23.668C-13.814,23.724 -13.934,23.752 -14.022,23.752C-14.126,23.752 -14.216,23.71 -14.292,23.626C-14.368,23.542 -14.434,23.43 -14.49,23.29C-14.546,23.15 -14.594,22.988 -14.634,22.804C-14.674,22.62 -14.71,22.428 -14.742,22.228C-14.886,22.348 -15.07,22.49 -15.294,22.654C-15.518,22.818 -15.762,22.972 -16.026,23.116C-16.29,23.26 -16.56,23.382 -16.836,23.482C-17.112,23.582 -17.378,23.632 -17.634,23.632C-17.85,23.632 -18.038,23.598 -18.198,23.53C-18.358,23.462 -18.492,23.372 -18.6,23.26C-18.708,23.148 -18.788,23.018 -18.84,22.87C-18.892,22.722 -18.918,22.568 -18.918,22.408C-18.918,22.152 -18.84,21.942 -18.684,21.778C-18.528,21.614 -18.286,21.444 -17.958,21.268C-17.806,21.188 -17.594,21.082 -17.322,20.95C-17.05,20.818 -16.772,20.684 -16.488,20.548C-16.204,20.412 -15.94,20.282 -15.696,20.158C-15.452,20.034 -15.274,19.936 -15.162,19.864Z" style="fill-rule:nonzero;"/>
            <path d="M-10.206,20.428C-10.214,20.5 -10.222,20.564 -10.23,20.62C-10.238,20.676 -10.244,20.74 -10.248,20.812C-10.252,20.884 -10.256,20.974 -10.26,21.082C-10.264,21.19 -10.266,21.332 -10.266,21.508C-10.266,21.796 -10.256,22.032 -10.236,22.216C-10.216,22.4 -10.186,22.546 -10.146,22.654C-10.106,22.762 -10.056,22.836 -9.996,22.876C-9.936,22.916 -9.862,22.936 -9.774,22.936C-9.718,22.936 -9.658,22.928 -9.594,22.912C-9.578,22.912 -9.564,22.934 -9.552,22.978C-9.54,23.022 -9.542,23.052 -9.558,23.068C-9.606,23.108 -9.7,23.166 -9.84,23.242C-9.98,23.318 -10.138,23.392 -10.314,23.464C-10.49,23.536 -10.672,23.6 -10.86,23.656C-11.048,23.712 -11.206,23.74 -11.334,23.74C-11.446,23.74 -11.534,23.726 -11.598,23.698C-11.662,23.67 -11.694,23.636 -11.694,23.596C-11.694,23.556 -11.69,23.532 -11.682,23.524C-11.674,23.516 -11.662,23.496 -11.646,23.464C-11.63,23.424 -11.618,23.374 -11.61,23.314C-11.602,23.254 -11.59,23.184 -11.574,23.104C-11.558,22.992 -11.542,22.85 -11.526,22.678C-11.51,22.506 -11.494,22.318 -11.478,22.114C-11.462,21.91 -11.448,21.698 -11.436,21.478C-11.424,21.258 -11.418,21.044 -11.418,20.836C-11.418,20.748 -11.42,20.638 -11.424,20.506C-11.428,20.374 -11.434,20.204 -11.442,19.996C-11.45,19.764 -11.476,19.566 -11.52,19.402C-11.564,19.238 -11.62,19.106 -11.688,19.006C-11.756,18.906 -11.832,18.832 -11.916,18.784C-12,18.736 -12.082,18.712 -12.162,18.712L-12.282,18.712C-12.322,18.712 -12.362,18.716 -12.402,18.724C-12.434,18.724 -12.45,18.688 -12.45,18.616C-12.45,18.6 -12.444,18.586 -12.432,18.574C-12.42,18.562 -12.382,18.536 -12.318,18.496C-12.214,18.424 -12.074,18.336 -11.898,18.232C-11.722,18.128 -11.542,18.032 -11.358,17.944C-11.174,17.856 -11,17.78 -10.836,17.716C-10.672,17.652 -10.546,17.62 -10.458,17.62C-10.226,17.62 -10.11,17.752 -10.11,18.016C-10.11,18.056 -10.114,18.128 -10.122,18.232C-10.13,18.336 -10.136,18.442 -10.14,18.55C-10.144,18.658 -10.15,18.76 -10.158,18.856C-10.166,18.952 -10.17,19.016 -10.17,19.048C-10.002,18.888 -9.822,18.724 -9.63,18.556C-9.438,18.388 -9.23,18.234 -9.006,18.094C-8.782,17.954 -8.546,17.84 -8.298,17.752C-8.05,17.664 -7.794,17.62 -7.53,17.62C-7.05,17.62 -6.656,17.758 -6.348,18.034C-6.04,18.31 -5.886,18.748 -5.886,19.348C-5.886,19.508 -5.896,19.696 -5.916,19.912C-5.936,20.128 -5.958,20.352 -5.982,20.584C-6.006,20.816 -6.028,21.044 -6.048,21.268C-6.068,21.492 -6.078,21.692 -6.078,21.868C-6.078,22.508 -5.87,22.828 -5.454,22.828C-5.374,22.828 -5.284,22.814 -5.184,22.786C-5.084,22.758 -4.988,22.726 -4.896,22.69C-4.804,22.654 -4.722,22.618 -4.65,22.582C-4.578,22.546 -4.53,22.516 -4.506,22.492C-4.498,22.484 -4.488,22.49 -4.476,22.51C-4.464,22.53 -4.454,22.556 -4.446,22.588C-4.438,22.62 -4.436,22.648 -4.44,22.672C-4.444,22.696 -4.45,22.712 -4.458,22.72C-4.522,22.76 -4.66,22.836 -4.872,22.948C-5.084,23.06 -5.32,23.174 -5.58,23.29C-5.84,23.406 -6.098,23.51 -6.354,23.602C-6.61,23.694 -6.814,23.74 -6.966,23.74C-7.15,23.74 -7.276,23.696 -7.344,23.608C-7.412,23.52 -7.446,23.428 -7.446,23.332C-7.446,23.268 -7.436,23.188 -7.416,23.092C-7.396,22.996 -7.37,22.84 -7.338,22.624C-7.306,22.392 -7.276,22.12 -7.248,21.808C-7.22,21.496 -7.206,21.16 -7.206,20.8C-7.206,20.096 -7.336,19.562 -7.596,19.198C-7.856,18.834 -8.182,18.652 -8.574,18.652C-8.822,18.652 -9.042,18.7 -9.234,18.796C-9.426,18.892 -9.59,19.022 -9.726,19.186C-9.862,19.35 -9.97,19.538 -10.05,19.75C-10.13,19.962 -10.182,20.188 -10.206,20.428Z" style="fill-rule:nonzero;"/>
            <path d="M-0.09,22.636C-0.162,22.708 -0.278,22.804 -0.438,22.924C-0.598,23.044 -0.786,23.162 -1.002,23.278C-1.218,23.394 -1.452,23.494 -1.704,23.578C-1.956,23.662 -2.21,23.704 -2.466,23.704C-2.73,23.704 -2.994,23.644 -3.258,23.524C-3.522,23.404 -3.76,23.23 -3.972,23.002C-4.184,22.774 -4.354,22.5 -4.482,22.18C-4.61,21.86 -4.674,21.5 -4.674,21.1C-4.674,20.58 -4.584,20.108 -4.404,19.684C-4.224,19.26 -3.96,18.9 -3.612,18.604C-3.264,18.308 -2.84,18.08 -2.34,17.92C-1.84,17.76 -1.266,17.68 -0.618,17.68L-0.294,17.68C-0.19,17.68 -0.094,17.684 -0.006,17.692L-0.006,17.302C-0.006,17.114 -0.008,16.92 -0.012,16.72C-0.016,16.52 -0.02,16.336 -0.024,16.168C-0.028,16 -0.03,15.896 -0.03,15.856C-0.062,15.536 -0.116,15.312 -0.192,15.184C-0.268,15.056 -0.422,14.992 -0.654,14.992C-0.686,14.992 -0.704,14.956 -0.708,14.884C-0.712,14.812 -0.686,14.756 -0.63,14.716C-0.566,14.676 -0.494,14.646 -0.414,14.626C-0.334,14.606 -0.214,14.596 -0.054,14.596C0.25,14.596 0.504,14.594 0.708,14.59C0.912,14.586 1.08,14.578 1.212,14.566C1.344,14.554 1.45,14.538 1.53,14.518C1.61,14.498 1.678,14.476 1.734,14.452C1.774,14.444 1.808,14.454 1.836,14.482C1.864,14.51 1.884,14.546 1.896,14.59C1.908,14.634 1.91,14.676 1.902,14.716C1.894,14.756 1.87,14.78 1.83,14.788C1.742,14.804 1.676,14.822 1.632,14.842C1.588,14.862 1.546,14.9 1.506,14.956C1.466,15.012 1.43,15.16 1.398,15.4C1.366,15.64 1.334,15.936 1.302,16.288C1.27,16.64 1.242,17.03 1.218,17.458C1.194,17.886 1.174,18.316 1.158,18.748C1.142,19.18 1.128,19.6 1.116,20.008C1.104,20.416 1.098,20.772 1.098,21.076C1.098,21.66 1.162,22.09 1.29,22.366C1.418,22.642 1.614,22.78 1.878,22.78C1.974,22.78 2.08,22.764 2.196,22.732C2.312,22.7 2.42,22.662 2.52,22.618C2.62,22.574 2.712,22.53 2.796,22.486C2.88,22.442 2.942,22.404 2.982,22.372C3.022,22.34 3.058,22.36 3.09,22.432C3.122,22.504 3.118,22.552 3.078,22.576C2.982,22.632 2.832,22.714 2.628,22.822C2.424,22.93 2.198,23.044 1.95,23.164C1.646,23.316 1.338,23.452 1.026,23.572C0.714,23.692 0.462,23.752 0.27,23.752C0.126,23.752 0.028,23.728 -0.024,23.68C-0.076,23.632 -0.102,23.556 -0.102,23.452L-0.102,23.29C-0.102,23.214 -0.1,23.134 -0.096,23.05C-0.092,22.966 -0.09,22.886 -0.09,22.81L-0.09,22.636ZM-0.246,22.228C-0.182,22.14 -0.134,22.038 -0.102,21.922C-0.07,21.806 -0.046,21.648 -0.03,21.448C-0.014,21.28 -0.006,21.074 -0.006,20.83L-0.006,20.188C-0.006,20.004 -0.008,19.808 -0.012,19.6C-0.016,19.392 -0.022,19.248 -0.03,19.168C-0.046,19.032 -0.102,18.904 -0.198,18.784C-0.294,18.664 -0.418,18.56 -0.57,18.472C-0.722,18.384 -0.9,18.314 -1.104,18.262C-1.308,18.21 -1.522,18.184 -1.746,18.184C-1.962,18.184 -2.166,18.22 -2.358,18.292C-2.55,18.364 -2.716,18.48 -2.856,18.64C-2.996,18.8 -3.106,19.006 -3.186,19.258C-3.266,19.51 -3.306,19.82 -3.306,20.188C-3.306,20.564 -3.254,20.906 -3.15,21.214C-3.046,21.522 -2.902,21.788 -2.718,22.012C-2.534,22.236 -2.314,22.41 -2.058,22.534C-1.802,22.658 -1.522,22.72 -1.218,22.72C-1.098,22.72 -0.986,22.702 -0.882,22.666C-0.778,22.63 -0.684,22.586 -0.6,22.534C-0.516,22.482 -0.442,22.428 -0.378,22.372C-0.314,22.316 -0.27,22.268 -0.246,22.228Z" style="fill-rule:nonzero;"/>
            <path d="M7.23,22.636C7.142,22.708 7.022,22.804 6.87,22.924C6.718,23.044 6.542,23.164 6.342,23.284C6.142,23.404 5.922,23.506 5.682,23.59C5.442,23.674 5.19,23.716 4.926,23.716C4.526,23.716 4.17,23.646 3.858,23.506C3.546,23.366 3.284,23.178 3.072,22.942C2.86,22.706 2.7,22.428 2.592,22.108C2.484,21.788 2.43,21.448 2.43,21.088C2.43,20.664 2.494,20.288 2.622,19.96C2.75,19.632 2.908,19.346 3.096,19.102C3.284,18.858 3.486,18.654 3.702,18.49C3.918,18.326 4.114,18.196 4.29,18.1C4.37,18.052 4.472,18 4.596,17.944C4.72,17.888 4.856,17.836 5.004,17.788C5.152,17.74 5.312,17.698 5.484,17.662C5.656,17.626 5.834,17.608 6.018,17.608C6.362,17.608 6.696,17.652 7.02,17.74C7.344,17.828 7.63,17.966 7.878,18.154C8.126,18.342 8.326,18.584 8.478,18.88C8.63,19.176 8.706,19.532 8.706,19.948C8.706,20.284 8.644,20.6 8.52,20.896C8.396,21.192 8.25,21.456 8.082,21.688C7.914,21.92 7.748,22.118 7.584,22.282C7.42,22.446 7.302,22.564 7.23,22.636ZM5.874,22.828C6.33,22.828 6.68,22.656 6.924,22.312C7.168,21.968 7.29,21.44 7.29,20.728C7.29,20.368 7.24,20.034 7.14,19.726C7.04,19.418 6.9,19.148 6.72,18.916C6.54,18.684 6.33,18.502 6.09,18.37C5.85,18.238 5.59,18.172 5.31,18.172C5.11,18.172 4.92,18.224 4.74,18.328C4.56,18.432 4.402,18.582 4.266,18.778C4.13,18.974 4.022,19.212 3.942,19.492C3.862,19.772 3.822,20.088 3.822,20.44C3.822,20.816 3.88,21.152 3.996,21.448C4.112,21.744 4.266,21.994 4.458,22.198C4.65,22.402 4.868,22.558 5.112,22.666C5.356,22.774 5.61,22.828 5.874,22.828Z" style="fill-rule:nonzero;"/>
            <path d="M20.574,22.552C20.598,22.552 20.614,22.566 20.622,22.594C20.63,22.622 20.634,22.656 20.634,22.696C20.634,22.736 20.626,22.762 20.61,22.774C20.594,22.786 20.578,22.8 20.562,22.816C20.506,22.848 20.372,22.916 20.16,23.02C19.948,23.124 19.712,23.23 19.452,23.338C19.192,23.446 18.936,23.542 18.684,23.626C18.432,23.71 18.242,23.752 18.114,23.752C18.002,23.752 17.896,23.728 17.796,23.68C17.696,23.632 17.654,23.556 17.67,23.452C17.686,23.388 17.704,23.292 17.724,23.164C17.744,23.036 17.762,22.88 17.778,22.696C17.794,22.464 17.812,22.196 17.832,21.892C17.852,21.588 17.862,21.252 17.862,20.884C17.862,20.452 17.834,20.094 17.778,19.81C17.722,19.526 17.642,19.3 17.538,19.132C17.434,18.964 17.306,18.846 17.154,18.778C17.002,18.71 16.826,18.676 16.626,18.676C16.442,18.676 16.286,18.706 16.158,18.766C16.03,18.826 15.918,18.892 15.822,18.964C15.646,19.1 15.508,19.274 15.408,19.486C15.308,19.698 15.246,19.976 15.222,20.32C15.214,20.408 15.208,20.496 15.204,20.584C15.2,20.672 15.196,20.768 15.192,20.872C15.188,20.976 15.184,21.092 15.18,21.22C15.176,21.348 15.174,21.5 15.174,21.676C15.174,22.148 15.212,22.476 15.288,22.66C15.364,22.844 15.494,22.936 15.678,22.936C15.742,22.936 15.782,22.934 15.798,22.93C15.814,22.926 15.846,22.92 15.894,22.912C15.91,22.928 15.926,22.948 15.942,22.972C15.966,23.012 15.962,23.056 15.93,23.104C15.89,23.152 15.794,23.214 15.642,23.29C15.49,23.366 15.322,23.436 15.138,23.5C14.954,23.564 14.774,23.62 14.598,23.668C14.422,23.716 14.29,23.74 14.202,23.74C14.09,23.74 13.988,23.726 13.896,23.698C13.804,23.67 13.758,23.636 13.758,23.596C13.758,23.548 13.774,23.492 13.806,23.428C13.83,23.388 13.854,23.292 13.878,23.14C13.902,22.988 13.924,22.792 13.944,22.552C13.964,22.312 13.982,22.034 13.998,21.718C14.014,21.402 14.022,21.06 14.022,20.692C14.022,20.5 14.012,20.288 13.992,20.056C13.972,19.824 13.922,19.606 13.842,19.402C13.762,19.198 13.644,19.026 13.488,18.886C13.332,18.746 13.118,18.676 12.846,18.676C12.686,18.676 12.542,18.698 12.414,18.742C12.286,18.786 12.178,18.84 12.09,18.904C11.914,19.04 11.764,19.208 11.64,19.408C11.516,19.608 11.434,19.892 11.394,20.26C11.378,20.428 11.362,20.602 11.346,20.782C11.33,20.962 11.322,21.168 11.322,21.4C11.322,21.704 11.33,21.956 11.346,22.156C11.362,22.356 11.39,22.514 11.43,22.63C11.47,22.746 11.518,22.826 11.574,22.87C11.63,22.914 11.702,22.936 11.79,22.936C11.878,22.936 11.938,22.928 11.97,22.912C12.01,22.896 12.038,22.92 12.054,22.984C12.07,23.048 12.066,23.088 12.042,23.104C12.01,23.136 11.926,23.186 11.79,23.254C11.654,23.322 11.498,23.392 11.322,23.464C11.146,23.536 10.966,23.6 10.782,23.656C10.598,23.712 10.442,23.74 10.314,23.74C10.178,23.74 10.072,23.724 9.996,23.692C9.92,23.66 9.882,23.624 9.882,23.584C9.882,23.576 9.89,23.55 9.906,23.506C9.922,23.462 9.934,23.424 9.942,23.392C9.974,23.144 10.004,22.914 10.032,22.702C10.06,22.49 10.08,22.26 10.092,22.012C10.104,21.764 10.114,21.48 10.122,21.16C10.13,20.84 10.134,20.452 10.134,19.996C10.134,19.556 10.064,19.232 9.924,19.024C9.784,18.816 9.638,18.712 9.486,18.712C9.422,18.712 9.368,18.718 9.324,18.73C9.28,18.742 9.238,18.752 9.198,18.76C9.15,18.768 9.126,18.744 9.126,18.688L9.126,18.604C9.134,18.596 9.214,18.54 9.366,18.436C9.518,18.332 9.698,18.22 9.906,18.1C10.114,17.98 10.33,17.87 10.554,17.77C10.778,17.67 10.962,17.62 11.106,17.62C11.202,17.62 11.284,17.648 11.352,17.704C11.42,17.76 11.454,17.864 11.454,18.016C11.454,18.088 11.452,18.168 11.448,18.256C11.444,18.344 11.44,18.436 11.436,18.532C11.432,18.628 11.426,18.722 11.418,18.814C11.41,18.906 11.406,18.984 11.406,19.048C11.518,18.944 11.66,18.808 11.832,18.64C12.004,18.472 12.198,18.312 12.414,18.16C12.63,18.008 12.864,17.876 13.116,17.764C13.368,17.652 13.634,17.596 13.914,17.596C14.282,17.596 14.582,17.704 14.814,17.92C15.046,18.136 15.17,18.512 15.186,19.048C15.314,18.928 15.47,18.784 15.654,18.616C15.838,18.448 16.044,18.288 16.272,18.136C16.5,17.984 16.742,17.856 16.998,17.752C17.254,17.648 17.514,17.596 17.778,17.596C18.706,17.596 19.17,18.088 19.17,19.072C19.17,19.232 19.162,19.416 19.146,19.624C19.13,19.832 19.11,20.05 19.086,20.278C19.062,20.506 19.042,20.732 19.026,20.956C19.01,21.18 19.002,21.384 19.002,21.568C19.002,22.4 19.222,22.816 19.662,22.816C19.734,22.816 19.814,22.806 19.902,22.786C19.99,22.766 20.078,22.742 20.166,22.714C20.254,22.686 20.334,22.658 20.406,22.63C20.478,22.602 20.53,22.576 20.562,22.552L20.574,22.552Z" style="fill-rule:nonzero;"/>
            <path d="M-11.778,30.82C-12.026,31.468 -12.276,32.088 -12.528,32.68C-12.78,33.272 -13.022,33.776 -13.254,34.192C-13.35,34.368 -13.442,34.542 -13.53,34.714C-13.618,34.886 -13.7,35.042 -13.776,35.182C-13.852,35.322 -13.92,35.438 -13.98,35.53C-14.04,35.622 -14.094,35.676 -14.142,35.692C-14.182,35.716 -14.228,35.734 -14.28,35.746C-14.332,35.758 -14.378,35.764 -14.418,35.764C-14.434,35.764 -14.458,35.756 -14.49,35.74C-14.522,35.724 -14.55,35.684 -14.574,35.62C-14.686,35.348 -14.808,35.018 -14.94,34.63C-15.072,34.242 -15.21,33.828 -15.354,33.388C-15.498,32.948 -15.648,32.49 -15.804,32.014C-15.96,31.538 -16.114,31.072 -16.266,30.616C-16.378,30.256 -16.484,29.89 -16.584,29.518C-16.684,29.146 -16.78,28.802 -16.872,28.486C-16.964,28.17 -17.046,27.902 -17.118,27.682C-17.19,27.462 -17.254,27.324 -17.31,27.268C-17.414,27.252 -17.498,27.244 -17.562,27.244L-17.79,27.244C-17.814,27.244 -17.834,27.23 -17.85,27.202C-17.866,27.174 -17.874,27.142 -17.874,27.106C-17.874,27.07 -17.87,27.038 -17.862,27.01C-17.854,26.982 -17.842,26.968 -17.826,26.968C-17.794,26.968 -17.728,26.97 -17.628,26.974C-17.528,26.978 -17.408,26.982 -17.268,26.986C-17.128,26.99 -16.976,26.994 -16.812,26.998C-16.648,27.002 -16.494,27.004 -16.35,27.004C-16.022,27.004 -15.728,26.998 -15.468,26.986C-15.208,26.974 -15.038,26.968 -14.958,26.968C-14.87,26.968 -14.82,27.006 -14.808,27.082C-14.796,27.158 -14.858,27.216 -14.994,27.256C-15.05,27.28 -15.14,27.29 -15.264,27.286C-15.388,27.282 -15.506,27.276 -15.618,27.268C-15.61,27.396 -15.57,27.618 -15.498,27.934C-15.426,28.25 -15.334,28.618 -15.222,29.038C-15.11,29.458 -14.984,29.906 -14.844,30.382C-14.704,30.858 -14.56,31.32 -14.412,31.768C-14.264,32.216 -14.122,32.626 -13.986,32.998C-13.85,33.37 -13.726,33.66 -13.614,33.868C-13.558,33.82 -13.47,33.672 -13.35,33.424C-13.23,33.176 -13.096,32.87 -12.948,32.506C-12.8,32.142 -12.646,31.74 -12.486,31.3C-12.326,30.86 -12.178,30.428 -12.042,30.004C-12.138,29.684 -12.228,29.37 -12.312,29.062C-12.396,28.754 -12.474,28.472 -12.546,28.216C-12.618,27.96 -12.684,27.744 -12.744,27.568C-12.804,27.392 -12.858,27.28 -12.906,27.232C-13.01,27.216 -13.092,27.208 -13.152,27.208L-13.362,27.208C-13.394,27.208 -13.416,27.194 -13.428,27.166C-13.44,27.138 -13.448,27.106 -13.452,27.07C-13.456,27.034 -13.456,27 -13.452,26.968C-13.448,26.936 -13.442,26.92 -13.434,26.92C-13.418,26.92 -13.34,26.924 -13.2,26.932C-13.06,26.94 -12.898,26.948 -12.714,26.956C-12.53,26.964 -12.338,26.972 -12.138,26.98C-11.938,26.988 -11.77,26.992 -11.634,26.992C-11.25,26.992 -10.948,26.982 -10.728,26.962C-10.508,26.942 -10.382,26.932 -10.35,26.932C-10.214,26.932 -10.154,26.97 -10.17,27.046C-10.186,27.122 -10.238,27.176 -10.326,27.208C-10.446,27.248 -10.548,27.262 -10.632,27.25C-10.716,27.238 -10.784,27.236 -10.836,27.244C-10.888,27.252 -10.928,27.282 -10.956,27.334C-10.984,27.386 -10.998,27.496 -10.998,27.664C-10.998,27.8 -10.968,28.022 -10.908,28.33C-10.848,28.638 -10.768,28.99 -10.668,29.386C-10.568,29.782 -10.454,30.204 -10.326,30.652C-10.198,31.1 -10.068,31.53 -9.936,31.942C-9.804,32.354 -9.676,32.728 -9.552,33.064C-9.428,33.4 -9.318,33.656 -9.222,33.832C-9.174,33.792 -9.088,33.65 -8.964,33.406C-8.84,33.162 -8.698,32.858 -8.538,32.494C-8.378,32.13 -8.212,31.724 -8.04,31.276C-7.868,30.828 -7.71,30.382 -7.566,29.938C-7.422,29.494 -7.304,29.072 -7.212,28.672C-7.12,28.272 -7.074,27.936 -7.074,27.664C-7.074,27.624 -7.076,27.576 -7.08,27.52C-7.084,27.464 -7.092,27.412 -7.104,27.364C-7.116,27.316 -7.13,27.274 -7.146,27.238C-7.162,27.202 -7.186,27.184 -7.218,27.184C-7.314,27.184 -7.396,27.186 -7.464,27.19C-7.532,27.194 -7.594,27.196 -7.65,27.196C-7.706,27.196 -7.758,27.198 -7.806,27.202C-7.854,27.206 -7.914,27.208 -7.986,27.208C-8.002,27.2 -8.016,27.182 -8.028,27.154C-8.04,27.126 -8.052,27.094 -8.064,27.058C-8.076,27.022 -8.082,26.99 -8.082,26.962C-8.082,26.934 -8.07,26.92 -8.046,26.92C-7.974,26.92 -7.832,26.926 -7.62,26.938C-7.408,26.95 -7.066,26.956 -6.594,26.956C-6.57,26.956 -6.484,26.954 -6.336,26.95C-6.188,26.946 -6.028,26.942 -5.856,26.938C-5.684,26.934 -5.526,26.93 -5.382,26.926C-5.238,26.922 -5.158,26.92 -5.142,26.92C-5.006,26.92 -4.952,26.958 -4.98,27.034C-5.008,27.11 -5.062,27.16 -5.142,27.184C-5.174,27.2 -5.216,27.21 -5.268,27.214C-5.32,27.218 -5.376,27.222 -5.436,27.226C-5.496,27.23 -5.55,27.238 -5.598,27.25C-5.646,27.262 -5.682,27.28 -5.706,27.304C-5.906,27.8 -6.14,28.358 -6.408,28.978C-6.676,29.598 -6.954,30.224 -7.242,30.856C-7.53,31.488 -7.814,32.094 -8.094,32.674C-8.374,33.254 -8.626,33.744 -8.85,34.144C-8.954,34.328 -9.052,34.506 -9.144,34.678C-9.236,34.85 -9.318,35.006 -9.39,35.146C-9.462,35.286 -9.528,35.404 -9.588,35.5C-9.648,35.596 -9.698,35.652 -9.738,35.668C-9.778,35.684 -9.826,35.694 -9.882,35.698C-9.938,35.702 -9.982,35.704 -10.014,35.704C-10.046,35.704 -10.076,35.698 -10.104,35.686C-10.132,35.674 -10.158,35.64 -10.182,35.584C-10.286,35.32 -10.4,35.006 -10.524,34.642C-10.648,34.278 -10.778,33.886 -10.914,33.466C-11.05,33.046 -11.192,32.61 -11.34,32.158C-11.488,31.706 -11.634,31.26 -11.778,30.82Z" style="fill-rule:nonzero;"/>
            <path d="M-2.046,33.724C-2.07,33.588 -2.094,33.44 -2.118,33.28C-2.142,33.12 -2.166,32.968 -2.19,32.824C-2.214,32.68 -2.236,32.556 -2.256,32.452C-2.276,32.348 -2.29,32.28 -2.298,32.248C-2.426,32.296 -2.57,32.352 -2.73,32.416C-2.89,32.48 -3.05,32.55 -3.21,32.626C-3.37,32.702 -3.522,32.778 -3.666,32.854C-3.81,32.93 -3.93,33 -4.026,33.064C-4.21,33.184 -4.35,33.304 -4.446,33.424C-4.542,33.544 -4.59,33.688 -4.59,33.856C-4.59,34.088 -4.522,34.292 -4.386,34.468C-4.25,34.644 -4.038,34.732 -3.75,34.732C-3.598,34.732 -3.44,34.704 -3.276,34.648C-3.112,34.592 -2.96,34.528 -2.82,34.456C-2.68,34.384 -2.558,34.312 -2.454,34.24C-2.35,34.168 -2.278,34.112 -2.238,34.072C-2.174,34.008 -2.124,33.954 -2.088,33.91C-2.052,33.866 -2.038,33.804 -2.046,33.724ZM-2.394,31.864C-2.442,31.616 -2.498,31.394 -2.562,31.198C-2.626,31.002 -2.706,30.838 -2.802,30.706C-2.898,30.574 -3.014,30.474 -3.15,30.406C-3.286,30.338 -3.454,30.304 -3.654,30.304C-3.83,30.304 -3.992,30.336 -4.14,30.4C-4.288,30.464 -4.416,30.54 -4.524,30.628C-4.632,30.716 -4.716,30.804 -4.776,30.892C-4.836,30.98 -4.87,31.048 -4.878,31.096C-4.886,31.16 -4.922,31.192 -4.986,31.192C-5.098,31.192 -5.202,31.152 -5.298,31.072C-5.394,30.992 -5.442,30.896 -5.442,30.784C-5.442,30.72 -5.434,30.672 -5.418,30.64C-5.234,30.536 -5.01,30.424 -4.746,30.304C-4.482,30.184 -4.208,30.072 -3.924,29.968C-3.64,29.864 -3.358,29.778 -3.078,29.71C-2.798,29.642 -2.546,29.608 -2.322,29.608C-1.986,29.608 -1.728,29.656 -1.548,29.752C-1.368,29.848 -1.234,29.984 -1.146,30.16C-1.058,30.336 -1.004,30.542 -0.984,30.778C-0.964,31.014 -0.946,31.268 -0.93,31.54C-0.906,31.948 -0.874,32.342 -0.834,32.722C-0.794,33.102 -0.734,33.438 -0.654,33.73C-0.574,34.022 -0.472,34.258 -0.348,34.438C-0.224,34.618 -0.07,34.708 0.114,34.708C0.202,34.708 0.298,34.692 0.402,34.66C0.506,34.628 0.606,34.59 0.702,34.546C0.798,34.502 0.884,34.458 0.96,34.414C1.036,34.37 1.086,34.34 1.11,34.324C1.182,34.324 1.226,34.36 1.242,34.432C1.242,34.472 1.234,34.508 1.218,34.54C1.202,34.556 1.142,34.596 1.038,34.66C0.934,34.724 0.806,34.8 0.654,34.888C0.502,34.976 0.334,35.07 0.15,35.17C-0.034,35.27 -0.216,35.364 -0.396,35.452C-0.576,35.54 -0.742,35.612 -0.894,35.668C-1.046,35.724 -1.166,35.752 -1.254,35.752C-1.358,35.752 -1.448,35.71 -1.524,35.626C-1.6,35.542 -1.666,35.43 -1.722,35.29C-1.778,35.15 -1.826,34.988 -1.866,34.804C-1.906,34.62 -1.942,34.428 -1.974,34.228C-2.118,34.348 -2.302,34.49 -2.526,34.654C-2.75,34.818 -2.994,34.972 -3.258,35.116C-3.522,35.26 -3.792,35.382 -4.068,35.482C-4.344,35.582 -4.61,35.632 -4.866,35.632C-5.082,35.632 -5.27,35.598 -5.43,35.53C-5.59,35.462 -5.724,35.372 -5.832,35.26C-5.94,35.148 -6.02,35.018 -6.072,34.87C-6.124,34.722 -6.15,34.568 -6.15,34.408C-6.15,34.152 -6.072,33.942 -5.916,33.778C-5.76,33.614 -5.518,33.444 -5.19,33.268C-5.038,33.188 -4.826,33.082 -4.554,32.95C-4.282,32.818 -4.004,32.684 -3.72,32.548C-3.436,32.412 -3.172,32.282 -2.928,32.158C-2.684,32.034 -2.506,31.936 -2.394,31.864Z" style="fill-rule:nonzero;"/>
            <path d="M4.662,34.372C4.71,34.404 4.734,34.444 4.734,34.492C4.734,34.556 4.642,34.64 4.458,34.744C4.266,34.856 4.012,34.988 3.696,35.14C3.38,35.292 3.066,35.424 2.754,35.536C2.602,35.592 2.466,35.64 2.346,35.68C2.226,35.72 2.118,35.74 2.022,35.74C1.91,35.74 1.772,35.714 1.608,35.662C1.444,35.61 1.302,35.548 1.182,35.476C1.086,35.412 1.01,35.362 0.954,35.326C0.898,35.29 0.87,35.252 0.87,35.212C0.87,35.18 0.88,35.15 0.9,35.122C0.92,35.094 0.938,35.06 0.954,35.02C0.962,34.996 0.97,34.964 0.978,34.924C0.986,34.884 0.99,34.844 0.99,34.804C1.014,34.604 1.04,34.314 1.068,33.934C1.096,33.554 1.118,33.134 1.134,32.674C1.15,32.214 1.164,31.738 1.176,31.246C1.188,30.754 1.194,30.296 1.194,29.872C1.194,29.352 1.192,28.932 1.188,28.612C1.184,28.292 1.174,28.036 1.158,27.844C1.134,27.58 1.102,27.406 1.062,27.322C1.022,27.238 0.978,27.176 0.93,27.136C0.874,27.088 0.82,27.058 0.768,27.046C0.716,27.034 0.668,27.026 0.624,27.022C0.58,27.018 0.544,27.016 0.516,27.016C0.488,27.016 0.474,27.008 0.474,26.992C0.474,26.728 0.586,26.596 0.81,26.596C0.978,26.596 1.176,26.598 1.404,26.602C1.632,26.606 1.822,26.608 1.974,26.608C2.07,26.608 2.172,26.602 2.28,26.59C2.388,26.578 2.494,26.566 2.598,26.554C2.702,26.542 2.798,26.528 2.886,26.512C2.974,26.496 3.038,26.48 3.078,26.464C3.11,26.456 3.136,26.468 3.156,26.5C3.176,26.532 3.188,26.572 3.192,26.62C3.196,26.668 3.188,26.712 3.168,26.752C3.148,26.792 3.122,26.816 3.09,26.824C3.042,26.832 3,26.836 2.964,26.836C2.928,26.836 2.866,26.852 2.778,26.884C2.738,26.9 2.702,26.95 2.67,27.034C2.638,27.118 2.61,27.25 2.586,27.43C2.562,27.61 2.538,27.846 2.514,28.138C2.49,28.43 2.466,28.796 2.442,29.236C2.418,29.588 2.4,29.946 2.388,30.31C2.376,30.674 2.364,31.028 2.352,31.372C2.34,31.716 2.332,32.036 2.328,32.332C2.324,32.628 2.322,32.88 2.322,33.088C2.322,33.32 2.324,33.554 2.328,33.79C2.332,34.026 2.354,34.212 2.394,34.348C2.434,34.476 2.538,34.596 2.706,34.708C2.874,34.82 3.05,34.876 3.234,34.876C3.378,34.876 3.526,34.856 3.678,34.816C3.83,34.776 3.97,34.728 4.098,34.672C4.226,34.616 4.34,34.56 4.44,34.504C4.54,34.448 4.614,34.404 4.662,34.372Z" style="fill-rule:nonzero;"/>
            <path d="M5.55,32.824C5.55,32.984 5.546,33.184 5.538,33.424C5.53,33.664 5.526,33.912 5.526,34.168C5.526,34.456 5.57,34.662 5.658,34.786C5.746,34.91 5.862,34.972 6.006,34.972C6.014,34.972 6.034,34.968 6.066,34.96C6.098,34.952 6.132,34.946 6.168,34.942C6.204,34.938 6.238,34.932 6.27,34.924C6.302,34.916 6.322,34.912 6.33,34.912C6.346,34.912 6.364,34.926 6.384,34.954C6.404,34.982 6.41,35.004 6.402,35.02C6.354,35.076 6.244,35.144 6.072,35.224C5.9,35.304 5.708,35.382 5.496,35.458C5.284,35.534 5.08,35.6 4.884,35.656C4.688,35.712 4.542,35.74 4.446,35.74C4.334,35.74 4.246,35.708 4.182,35.644C4.118,35.58 4.086,35.532 4.086,35.5C4.086,35.476 4.088,35.46 4.092,35.452C4.096,35.444 4.1,35.436 4.104,35.428C4.108,35.42 4.114,35.406 4.122,35.386C4.13,35.366 4.138,35.332 4.146,35.284C4.17,35.18 4.194,35.046 4.218,34.882C4.242,34.718 4.264,34.514 4.284,34.27C4.304,34.026 4.322,33.73 4.338,33.382C4.354,33.034 4.37,32.62 4.386,32.14C4.394,31.764 4.4,31.394 4.404,31.03C4.408,30.666 4.412,30.324 4.416,30.004C4.42,29.684 4.422,29.39 4.422,29.122L4.422,28.444C4.422,28.06 4.402,27.76 4.362,27.544C4.322,27.328 4.278,27.188 4.23,27.124C4.174,27.044 4.096,27.002 3.996,26.998C3.896,26.994 3.826,26.988 3.786,26.98C3.778,26.908 3.782,26.844 3.798,26.788C3.814,26.74 3.838,26.696 3.87,26.656C3.902,26.616 3.962,26.596 4.05,26.596C4.194,26.596 4.362,26.594 4.554,26.59C4.746,26.586 4.946,26.578 5.154,26.566C5.362,26.554 5.566,26.538 5.766,26.518C5.966,26.498 6.142,26.472 6.294,26.44C6.342,26.432 6.368,26.446 6.372,26.482C6.376,26.518 6.37,26.58 6.354,26.668C6.346,26.716 6.324,26.746 6.288,26.758C6.252,26.77 6.212,26.776 6.168,26.776C6.124,26.776 6.084,26.778 6.048,26.782C6.012,26.786 5.986,26.804 5.97,26.836C5.954,26.876 5.934,26.928 5.91,26.992C5.886,27.056 5.866,27.148 5.85,27.268C5.826,27.428 5.802,27.642 5.778,27.91C5.754,28.178 5.732,28.476 5.712,28.804C5.692,29.132 5.672,29.476 5.652,29.836C5.632,30.196 5.614,30.544 5.598,30.88C5.582,31.216 5.57,31.528 5.562,31.816C5.554,32.104 5.55,32.34 5.55,32.524C5.782,32.524 6.032,32.468 6.3,32.356C6.568,32.244 6.816,32.092 7.044,31.9C7.272,31.708 7.462,31.482 7.614,31.222C7.766,30.962 7.842,30.684 7.842,30.388C7.842,30.156 7.766,30.04 7.614,30.04C7.486,30.04 7.37,30.058 7.266,30.094C7.162,30.13 7.09,30.148 7.05,30.148C6.93,30.148 6.862,30.116 6.846,30.052C6.846,30.004 6.866,29.95 6.906,29.89C6.946,29.83 6.986,29.792 7.026,29.776C7.194,29.776 7.384,29.768 7.596,29.752C7.808,29.736 8.022,29.714 8.238,29.686C8.454,29.658 8.662,29.628 8.862,29.596C9.062,29.564 9.23,29.536 9.366,29.512C9.406,29.528 9.426,29.552 9.426,29.584C9.426,29.656 9.36,29.812 9.228,30.052C9.096,30.292 8.92,30.556 8.7,30.844C8.48,31.132 8.23,31.412 7.95,31.684C7.67,31.956 7.382,32.16 7.086,32.296C7.174,32.352 7.29,32.456 7.434,32.608C7.578,32.76 7.736,32.936 7.908,33.136C8.08,33.336 8.262,33.544 8.454,33.76C8.646,33.976 8.842,34.174 9.042,34.354C9.242,34.534 9.436,34.682 9.624,34.798C9.812,34.914 9.99,34.972 10.158,34.972C10.278,34.972 10.372,34.96 10.44,34.936C10.508,34.912 10.578,34.88 10.65,34.84C10.69,34.864 10.71,34.892 10.71,34.924C10.71,34.988 10.68,35.05 10.62,35.11C10.56,35.17 10.426,35.232 10.218,35.296C10.082,35.336 9.926,35.39 9.75,35.458C9.574,35.526 9.404,35.59 9.24,35.65C9.076,35.71 8.932,35.76 8.808,35.8C8.684,35.84 8.606,35.856 8.574,35.848C8.51,35.832 8.408,35.754 8.268,35.614C8.128,35.474 7.968,35.302 7.788,35.098C7.608,34.894 7.416,34.67 7.212,34.426C7.008,34.182 6.808,33.952 6.612,33.736C6.416,33.52 6.234,33.328 6.066,33.16C5.898,32.992 5.758,32.88 5.646,32.824L5.55,32.824Z" style="fill-rule:nonzero;"/>
        </g>
        <g transform="matrix(1,0,0,1,62.3138,346.656)">
            <text x="-28.146px" y="23.596px" style="font-family:'Luminari-Regular', 'Luminari';font-size:12px;">Random</text>
            <text x="-17.742px" y="35.596px" style="font-family:'Luminari-Regular', 'Luminari';font-size:12px;">W<tspan x="-6.354px 0.246px " y="35.596px 35.596px ">al</tspan>k</text>
        </g>
        <g transform="matrix(1,0,0,1,58.164,339.27)">
            <g transform="matrix(0.8973,0,0,0.884326,9.28968,12.4373)">
                <circle cx="3.434" cy="5.159" r="2.172" style="stroke:black;stroke-width:0.94px;"/>
            </g>
            <g transform="matrix(0.8973,0,0,0.884326,4.54775,12.4373)">
                <circle cx="3.434" cy="5.159" r="2.172" style="fill:white;stroke:black;stroke-width:0.94px;"/>
            </g>
            <g transform="matrix(0.8973,0,0,0.884326,-0.194181,12.4373)">
                <circle cx="3.434" cy="5.159" r="2.172" style="stroke:black;stroke-width:0.94px;"/>
            </g>
            <g transform="matrix(0.8973,0,0,0.884326,14.0316,12.4373)">
                <circle cx="3.434" cy="5.159" r="2.172" style="stroke:black;stroke-width:0.94px;"/>
            </g>
            <g transform="matrix(0.8973,0,0,0.884326,9.28968,6.70878)">
                <circle cx="3.434" cy="5.159" r="2.172" style="fill:white;stroke:black;stroke-width:0.94px;"/>
            </g>
            <g transform="matrix(0.8973,0,0,0.884326,4.54775,6.70878)">
                <circle cx="3.434" cy="5.159" r="2.172" style="stroke:black;stroke-width:0.94px;"/>
            </g>
            <g transform="matrix(0.8973,0,0,0.884326,-0.194181,6.70878)">
                <circle cx="3.434" cy="5.159" r="2.172" style="stroke:black;stroke-width:0.94px;"/>
            </g>
            <g transform="matrix(0.8973,0,0,0.884326,14.0316,6.70878)">
                <circle cx="3.434" cy="5.159" r="2.172" style="fill:white;stroke:black;stroke-width:0.94px;"/>
            </g>
            <g transform="matrix(0.8973,0,0,0.884326,9.28968,0.980236)">
                <circle cx="3.434" cy="5.159" r="2.172" style="fill:white;stroke:black;stroke-width:0.94px;"/>
            </g>
            <g transform="matrix(0.8973,0,0,0.884326,4.54775,0.980236)">
                <circle cx="3.434" cy="5.159" r="2.172" style="fill:white;stroke:black;stroke-width:0.94px;"/>
            </g>
            <g transform="matrix(0.8973,0,0,0.884326,-0.194181,0.980236)">
                <circle cx="3.434" cy="5.159" r="2.172" style="stroke:black;stroke-width:0.94px;"/>
            </g>
            <g transform="matrix(0.8973,0,0,0.884326,14.0316,0.980236)">
                <circle cx="3.434" cy="5.159" r="2.172" style="stroke:black;stroke-width:0.94px;"/>
            </g>
        </g>
        <g transform="matrix(0.0178906,0,0,0.0202937,37.7207,339.525)">
            <g transform="matrix(55.8954,0,0,49.2765,-878.032,-330.791)">
                <path d="M27.733,13.757C27.957,11.616 28.949,10 30.136,10C31.489,10 32.587,12.095 32.587,14.677C32.587,15.669 32.424,16.59 32.148,17.347C32.432,17.974 32.587,18.65 32.587,19.353C32.587,22.678 29.128,25.378 24.868,25.378C20.609,25.378 17.15,22.678 17.15,19.353C17.15,18.65 17.305,17.974 17.589,17.347C17.313,16.59 17.15,15.669 17.15,14.677C17.15,12.095 18.248,10 19.601,10C20.788,10 21.779,11.616 22.003,13.757L22.04,13.746C22.915,13.476 23.87,13.328 24.868,13.328C25.881,13.328 26.847,13.48 27.733,13.757ZM17.609,17.304L17.606,17.31L17.609,17.304ZM32.128,17.305L32.131,17.31L32.128,17.305ZM17.627,17.265L17.623,17.273L17.627,17.265ZM32.11,17.266L32.113,17.273L32.11,17.266ZM17.645,17.227L17.641,17.236L17.645,17.227ZM32.092,17.228L32.096,17.236L32.092,17.228ZM17.663,17.19L17.659,17.2L17.663,17.19ZM32.074,17.191L32.078,17.199L32.074,17.191ZM17.682,17.153L17.677,17.162L17.682,17.153ZM32.055,17.154L32.059,17.161L32.055,17.154ZM17.7,17.117L17.696,17.125L17.7,17.117ZM32.037,17.117L32.04,17.123L32.037,17.117ZM17.719,17.081L17.717,17.085L17.719,17.081ZM32.018,17.081L32.019,17.082L32.018,17.081ZM17.782,16.964L17.778,16.971L17.782,16.964ZM31.957,16.968L31.958,16.97L31.957,16.968ZM17.804,16.925L17.798,16.935L17.804,16.925ZM31.935,16.928L31.938,16.934L31.935,16.928ZM17.825,16.888L17.818,16.9L17.825,16.888ZM31.914,16.891L31.918,16.899L31.914,16.891ZM17.845,16.852L17.838,16.865L17.845,16.852ZM31.893,16.854L31.898,16.863L31.893,16.854ZM17.866,16.817L17.859,16.829L17.866,16.817ZM31.871,16.819L31.876,16.827L31.871,16.819ZM17.888,16.782L17.88,16.794L17.888,16.782ZM31.85,16.783L31.855,16.791L31.85,16.783ZM17.909,16.747L17.902,16.758L17.909,16.747ZM31.829,16.748L31.832,16.754L31.829,16.748ZM17.931,16.712L17.925,16.72L17.931,16.712ZM31.807,16.713L31.808,16.714L31.807,16.713ZM17.979,16.635L17.975,16.642L17.979,16.635ZM18.005,16.596L17.998,16.608L18.005,16.596ZM31.735,16.602L31.738,16.606L31.735,16.602ZM18.029,16.561L18.02,16.573L18.029,16.561ZM31.711,16.564L31.716,16.572L31.711,16.564ZM18.052,16.526L18.043,16.539L18.052,16.526ZM31.686,16.529L31.692,16.537L31.686,16.529ZM18.076,16.492L18.066,16.505L18.076,16.492ZM31.663,16.494L31.669,16.503L31.663,16.494ZM18.1,16.458L18.09,16.471L18.1,16.458ZM31.639,16.459L31.645,16.469L31.639,16.459ZM18.124,16.424L18.114,16.437L18.124,16.424ZM31.614,16.425L31.62,16.434L31.614,16.425ZM18.148,16.39L18.139,16.403L18.148,16.39ZM31.59,16.392L31.595,16.398L31.59,16.392ZM18.172,16.357L18.164,16.367L18.172,16.357ZM31.566,16.358L31.567,16.36L31.566,16.358ZM18.197,16.324L18.196,16.324L18.197,16.324ZM18.23,16.28L18.222,16.291L18.23,16.28ZM31.513,16.288L31.514,16.289L31.513,16.288ZM18.257,16.245L18.247,16.258L18.257,16.245ZM31.484,16.249L31.489,16.256L31.484,16.249ZM18.283,16.211L18.272,16.225L18.283,16.211ZM31.456,16.214L31.463,16.223L31.456,16.214ZM18.309,16.178L18.298,16.192L18.309,16.178ZM31.43,16.18L31.438,16.19L31.43,16.18ZM18.335,16.145L18.324,16.16L18.335,16.145ZM31.403,16.147L31.411,16.158L31.403,16.147ZM18.362,16.113L18.35,16.127L18.362,16.113ZM31.376,16.114L31.385,16.125L31.376,16.114ZM18.388,16.081L18.377,16.094L18.388,16.081ZM31.35,16.082L31.357,16.091L31.35,16.082ZM18.415,16.049L18.404,16.061L18.415,16.049ZM31.323,16.05L31.329,16.057L31.323,16.05ZM18.442,16.017L18.433,16.027L18.442,16.017ZM31.295,16.018L31.298,16.021L31.295,16.018ZM18.473,15.981L18.469,15.985L18.473,15.981ZM18.507,15.942L18.497,15.954L18.507,15.942ZM31.234,15.947L31.239,15.953L31.234,15.947ZM18.536,15.909L18.525,15.922L18.536,15.909ZM31.203,15.912L31.211,15.921L31.203,15.912ZM18.565,15.877L18.553,15.891L18.565,15.877ZM31.174,15.879L31.183,15.89L31.174,15.879ZM18.594,15.846L18.581,15.86L18.594,15.846ZM31.145,15.847L31.155,15.859L31.145,15.847ZM18.622,15.815L18.61,15.828L18.622,15.815ZM31.115,15.816L31.126,15.827L31.115,15.816ZM18.651,15.784L18.639,15.797L18.651,15.784ZM31.086,15.785L31.097,15.796L31.086,15.785ZM18.68,15.753L18.668,15.766L18.68,15.753ZM31.057,15.754L31.067,15.765L31.057,15.754ZM18.71,15.723L18.698,15.735L18.71,15.723ZM31.027,15.723L31.037,15.733L31.027,15.723ZM18.739,15.692L18.73,15.702L18.739,15.692ZM30.998,15.693L31.003,15.698L30.998,15.693ZM18.775,15.656L18.769,15.662L18.775,15.656ZM30.965,15.659L30.967,15.662L30.965,15.659ZM18.81,15.621L18.799,15.632L18.81,15.621ZM30.928,15.622L30.937,15.632L30.928,15.622ZM18.842,15.59L18.83,15.602L18.842,15.59ZM30.895,15.591L30.907,15.602L30.895,15.591ZM18.873,15.56L18.86,15.572L18.873,15.56ZM30.864,15.56L30.876,15.572L30.864,15.56ZM18.904,15.53L18.891,15.543L18.904,15.53ZM30.832,15.53L30.846,15.543L30.832,15.53ZM30.801,15.5L30.814,15.513L30.801,15.5ZM18.936,15.501L18.923,15.513L18.936,15.501ZM30.769,15.471L30.783,15.484L30.769,15.471ZM18.967,15.471L18.954,15.483L18.967,15.471ZM30.738,15.442L30.751,15.454L30.738,15.442ZM18.999,15.442L18.986,15.454L18.999,15.442ZM30.706,15.413L30.719,15.425L30.706,15.413ZM19.031,15.413L19.019,15.424L19.031,15.413ZM30.674,15.384L30.684,15.394L30.674,15.384ZM19.063,15.385L19.056,15.391L19.063,15.385ZM30.63,15.346L30.642,15.356L30.63,15.346ZM19.101,15.35L19.095,15.356L19.101,15.35ZM30.595,15.315L30.61,15.328L30.595,15.315ZM19.139,15.318L19.128,15.327L19.139,15.318ZM30.561,15.286L30.577,15.3L30.561,15.286ZM19.173,15.288L19.161,15.299L19.173,15.288ZM30.528,15.258L30.544,15.272L30.528,15.258ZM19.207,15.26L19.194,15.271L19.207,15.26ZM30.494,15.23L30.511,15.244L30.494,15.23ZM19.241,15.231L19.227,15.243L19.241,15.231ZM30.461,15.202L30.478,15.216L30.461,15.202ZM19.274,15.204L19.261,15.215L19.274,15.204ZM30.427,15.175L30.444,15.189L30.427,15.175ZM19.308,15.176L19.295,15.187L19.308,15.176ZM30.393,15.147L30.41,15.161L30.393,15.147ZM19.342,15.149L19.33,15.158L19.342,15.149ZM30.359,15.12L30.376,15.134L30.359,15.12ZM19.377,15.121L19.366,15.129L19.377,15.121ZM30.325,15.093L30.343,15.107L30.326,15.094L30.305,15.078L30.325,15.093ZM19.411,15.094L19.409,15.096L19.411,15.094ZM30.273,15.053L30.292,15.068L30.273,15.053ZM19.452,15.062L19.446,15.067L19.452,15.062ZM30.238,15.027L30.257,15.041L30.238,15.027ZM19.492,15.032L19.481,15.04L19.492,15.032ZM30.203,15L30.222,15.015L30.203,15ZM19.529,15.004L19.516,15.013L19.529,15.004ZM30.168,14.974L30.187,14.989L30.168,14.974ZM19.565,14.977L19.552,14.987L19.565,14.977ZM30.132,14.948L30.152,14.963L30.132,14.948ZM19.601,14.951L19.588,14.961L19.601,14.951ZM30.097,14.922L30.117,14.937L30.097,14.922ZM19.637,14.925L19.624,14.934L19.637,14.925ZM30.061,14.897L30.081,14.911L30.061,14.897ZM19.673,14.899L19.661,14.908L19.673,14.899ZM30.025,14.871L30.046,14.886L30.025,14.871ZM19.71,14.873L19.698,14.881L19.71,14.873ZM29.988,14.846L30.011,14.862L29.988,14.846ZM19.746,14.848L19.738,14.853L19.746,14.848ZM29.954,14.822L29.915,14.796C29.928,14.805 29.941,14.813 29.954,14.822ZM19.826,14.793L19.821,14.796L19.826,14.793ZM29.858,14.758L29.881,14.773L29.858,14.758ZM19.868,14.765L19.858,14.771L19.868,14.765ZM29.822,14.734L29.845,14.749L29.822,14.734ZM19.907,14.739L19.896,14.747L19.907,14.739ZM29.785,14.71L29.807,14.724L29.785,14.71ZM19.946,14.714L19.933,14.722L19.946,14.714ZM29.747,14.686L29.77,14.7L29.747,14.686ZM19.984,14.689L19.971,14.697L19.984,14.689ZM29.71,14.662L29.733,14.676L29.71,14.662ZM20.023,14.665L20.01,14.673L20.023,14.665ZM29.672,14.638L29.696,14.653L29.672,14.638ZM20.061,14.641L20.049,14.648L20.061,14.641ZM29.634,14.615L29.659,14.63L29.634,14.615ZM20.099,14.617L20.09,14.623L20.099,14.617ZM29.494,14.531C29.537,14.556 29.58,14.582 29.623,14.608C29.581,14.582 29.538,14.556 29.494,14.531ZM20.138,14.593L20.134,14.596L20.138,14.593ZM20.221,14.543L20.218,14.545L20.221,14.543ZM29.458,14.51L29.483,14.525L29.458,14.51ZM20.266,14.517L20.257,14.522L20.266,14.517ZM29.42,14.488L29.444,14.502L29.42,14.488ZM20.308,14.493L20.297,14.499L20.308,14.493ZM29.381,14.466L29.405,14.48L29.381,14.466ZM20.349,14.47L20.337,14.477L20.349,14.47ZM29.341,14.444L29.366,14.457L29.341,14.444ZM20.389,14.447L20.377,14.454L20.389,14.447ZM29.302,14.422L29.327,14.436L29.302,14.422ZM20.43,14.425L20.418,14.431L20.43,14.425ZM29.262,14.4L29.288,14.414L29.262,14.4ZM20.47,14.403L20.46,14.408L20.47,14.403ZM29.222,14.379L29.249,14.393L29.222,14.379ZM20.51,14.381L20.503,14.385L20.51,14.381ZM29.186,14.359L29.143,14.337C29.157,14.344 29.171,14.352 29.186,14.359ZM29.077,14.303L29.105,14.317L29.077,14.303ZM20.638,14.314L20.636,14.315L20.638,14.314ZM29.038,14.283L29.064,14.296L29.038,14.283ZM20.685,14.29L20.677,14.294L20.685,14.29ZM28.998,14.263L29.023,14.276L28.998,14.263ZM20.729,14.268L20.719,14.273L20.729,14.268ZM28.957,14.243L28.982,14.255L28.957,14.243ZM20.772,14.247L20.761,14.252L20.772,14.247ZM28.916,14.223L28.941,14.235L28.916,14.223ZM20.814,14.226L20.803,14.232L20.814,14.226ZM28.875,14.203L28.899,14.215L28.875,14.203ZM20.857,14.206L20.846,14.211L20.857,14.206ZM28.833,14.184L28.858,14.195L28.833,14.184ZM20.899,14.186L20.891,14.19L20.899,14.186ZM28.791,14.164L28.817,14.176L28.791,14.164ZM20.942,14.166L20.937,14.168L20.942,14.166ZM28.752,14.146L28.707,14.126C28.722,14.133 28.737,14.139 28.752,14.146ZM28.643,14.097L28.667,14.108L28.643,14.097ZM21.075,14.106L21.074,14.106L21.075,14.106ZM28.601,14.079L28.624,14.089L28.601,14.079ZM21.124,14.084L21.117,14.087L21.124,14.084ZM28.558,14.061L28.581,14.071L28.558,14.061ZM21.17,14.065L21.161,14.068L21.17,14.065ZM28.516,14.043L28.538,14.052L28.516,14.043ZM21.215,14.046L21.204,14.05L21.215,14.046ZM28.473,14.025L28.494,14.034L28.473,14.025ZM21.259,14.027L21.249,14.031L21.259,14.027ZM28.429,14.007L28.451,14.016L28.429,14.007ZM21.303,14.009L21.294,14.013L21.303,14.009ZM28.386,13.989L28.406,13.998L28.386,13.989ZM21.347,13.991L21.341,13.994L21.347,13.991ZM28.342,13.972L28.361,13.979L28.342,13.972ZM21.392,13.973L21.391,13.974L21.392,13.973ZM28.298,13.955L28.311,13.96L28.298,13.955ZM28.243,13.934L28.254,13.938L28.243,13.934ZM28.195,13.915L28.21,13.921L28.195,13.915ZM21.531,13.92L21.53,13.92L21.531,13.92ZM28.149,13.898L28.165,13.904L28.149,13.898ZM21.581,13.901L21.575,13.903L21.581,13.901ZM28.103,13.882L28.119,13.888L28.103,13.882ZM21.629,13.884L21.62,13.887L21.629,13.884ZM28.058,13.866L28.074,13.871L28.058,13.866ZM21.675,13.867L21.666,13.87L21.675,13.867ZM28.013,13.85L28.028,13.855L28.013,13.85ZM21.721,13.851L21.713,13.854L21.721,13.851ZM27.968,13.834L27.981,13.839L27.968,13.834ZM21.767,13.835L21.76,13.837L21.767,13.835ZM27.922,13.819L27.932,13.822L27.922,13.819ZM21.813,13.819L21.809,13.821L21.813,13.819ZM27.877,13.803L27.879,13.804L27.877,13.803Z" style="fill:none;stroke:black;stroke-width:1.22px;"/>
            </g>
            <g transform="matrix(55.8954,0,0,49.2765,-878.032,-330.791)">
                <path d="M25.128,19.358C24.963,19.04 24.868,18.67 24.868,18.275C24.868,17.096 25.713,16.138 26.753,16.138C27.793,16.138 28.637,17.096 28.637,18.275C28.637,19.031 28.291,19.696 27.768,20.076C27.128,19.668 26.188,19.396 25.128,19.358ZM21.969,20.076C21.446,19.696 21.099,19.031 21.099,18.275C21.099,17.096 21.944,16.138 22.984,16.138C24.024,16.138 24.868,17.096 24.868,18.275C24.868,18.67 24.774,19.04 24.609,19.358C23.549,19.396 22.609,19.668 21.969,20.076Z" style="fill:none;stroke:black;stroke-width:1.22px;"/>
            </g>
            <g transform="matrix(1,0,0,1,-53.1856,50.0357)">
                <ellipse cx="565.186" cy="671.455" rx="210.672" ry="98.631" style="fill:none;stroke:black;stroke-width:63.81px;"/>
            </g>
            <g transform="matrix(51.2,0,0,45.1371,0.670978,88.9676)">
                <path d="M12.057,13.791C12.057,13.668 11.958,13.568 11.835,13.568L8.139,13.568C8.016,13.568 7.916,13.668 7.916,13.791L7.916,14.236C7.916,14.359 8.016,14.458 8.139,14.458L11.835,14.458C11.958,14.458 12.057,14.359 12.057,14.236L12.057,13.791Z"/>
            </g>
        </g>
    </g>
</svg>
