<?xml version="1.0" encoding="UTF-8" standalone="no"?>
<!DOCTYPE svg PUBLIC "-//W3C//DTD SVG 1.1//EN" "http://www.w3.org/Graphics/SVG/1.1/DTD/svg11.dtd">
<svg width="100%" height="100%" viewBox="0 0 75 380" version="1.1" xmlns="http://www.w3.org/2000/svg" xmlns:xlink="http://www.w3.org/1999/xlink" xml:space="preserve" xmlns:serif="http://www.serif.com/" style="fill-rule:evenodd;clip-rule:evenodd;stroke-linecap:round;stroke-linejoin:round;stroke-miterlimit:1.5;">
    <g transform="matrix(0.360425,0,0,2.01589,-18.9426,-120.797)">
        <rect x="52.556" y="59.922" width="208.087" height="188.503" style="fill:rgb(154,178,191);stroke:rgb(5,5,5);stroke-width:1.38px;"/>
    </g>
    <g transform="matrix(1,0,0,1,1.13687e-13,45.7932)">
        <g transform="matrix(0.75,0,0,1,-44.1572,137.758)">
            <g transform="matrix(0.592666,0,0,72.8139,50.626,-21717.6)">
                <rect x="13.921" y="296.737" width="168.729" height="3.935" style="fill:rgb(191,191,191);"/>
            </g>
            <g transform="matrix(2.75278,0,0,0.695794,-386.957,112.334)">
                <rect x="161.957" y="57.989" width="36.327" height="2.261"/>
            </g>
            <g transform="matrix(2.75278,0,0,0.695794,-386.957,78.6945)">
                <rect x="161.957" y="57.989" width="36.327" height="2.261"/>
            </g>
            <g transform="matrix(2.75278,0,0,0.695794,-386.957,43.3266)">
                <rect x="161.957" y="57.989" width="36.327" height="2.261"/>
            </g>
            <g transform="matrix(2.75278,0,0,0.695794,-386.957,8.01938)">
                <rect x="161.957" y="57.989" width="36.327" height="2.261"/>
            </g>
            <g transform="matrix(2.75278,0,0,0.695794,-386.957,-25.4274)">
                <rect x="161.957" y="57.989" width="36.327" height="2.261"/>
            </g>
            <g transform="matrix(2.75278,0,0,0.695794,-386.957,-60.2029)">
                <rect x="161.957" y="57.989" width="36.327" height="2.261"/>
            </g>
            <g transform="matrix(2.75278,0,0,0.695794,-386.957,-94.5002)">
                <rect x="161.957" y="57.989" width="36.327" height="2.261"/>
            </g>
            <g transform="matrix(2.75278,0,0,0.695794,-386.957,-130.158)">
                <rect x="161.957" y="57.989" width="36.327" height="2.261"/>
            </g>
            <g transform="matrix(1.33333,0,0,1,21.081,-182.392)">
                <g id="Bit8">
                    <circle id="Status1-led" serif:id="Status1#led" cx="42.167" cy="335.861" r="3.82" style="fill:rgb(230,230,230);"/>
                </g>
            </g>
            <g transform="matrix(1.33333,0,0,1,21.0789,-216.032)">
                <g id="Bit7">
                    <circle id="Status1-led1" serif:id="Status1#led" cx="42.167" cy="335.861" r="3.82" style="fill:rgb(230,230,230);"/>
                </g>
            </g>
            <g transform="matrix(1.33333,0,0,1,21.0789,-251.4)">
                <g id="Bit6">
                    <circle id="Status1-led2" serif:id="Status1#led" cx="42.167" cy="335.861" r="3.82" style="fill:rgb(230,230,230);"/>
                </g>
            </g>
            <g transform="matrix(1.33328,0.00917786,-0.0122371,0.999958,25.1934,-287.252)">
                <g id="Bit5">
                    <circle id="Status1-led3" serif:id="Status1#led" cx="42.167" cy="335.861" r="3.82" style="fill:rgb(230,230,230);"/>
                </g>
            </g>
            <g transform="matrix(1.33333,0,0,1,21.081,-320.153)">
                <g id="Bit4">
                    <circle id="Status1-led4" serif:id="Status1#led" cx="42.167" cy="335.861" r="3.82" style="fill:rgb(230,230,230);"/>
                </g>
            </g>
            <g transform="matrix(1.33333,0,0,1,21.081,-354.929)">
                <g id="Bit3">
                    <circle id="Status1-led5" serif:id="Status1#led" cx="42.167" cy="335.861" r="3.82" style="fill:rgb(230,230,230);"/>
                </g>
            </g>
            <g transform="matrix(1.33333,0,0,1,21.081,-389.226)">
                <g id="Bit2">
                    <circle id="Status1-led6" serif:id="Status1#led" cx="42.167" cy="335.861" r="3.82" style="fill:rgb(230,230,230);"/>
                </g>
            </g>
            <g transform="matrix(1.33333,0,0,1,21.081,-424.884)">
                <g id="Bit1">
                    <circle id="Status1-led7" serif:id="Status1#led" cx="42.167" cy="335.861" r="3.82" style="fill:rgb(230,230,230);"/>
                </g>
            </g>
        </g>
        <g transform="matrix(1,0,0,1,-40.578,26.5989)">
            <g transform="matrix(0.237749,0,0,50.0423,62.1533,-14804.5)">
                <rect x="13.921" y="296.737" width="168.729" height="3.935" style="fill:rgb(242,242,242);"/>
            </g>
            <g transform="matrix(1,0,0,1,0.520487,98.7519)">
                <g id="FlipSample-ledbutton" serif:id="FlipSample#ledbutton" transform="matrix(0.174892,0,0,0.175002,61.402,86.7121)">
                    <rect x="53.94" y="106.916" width="161.978" height="161.978" style="fill:rgb(242,242,242);"/>
                </g>
                <g id="GateSample-input-P" serif:id="GateSample#input$P" transform="matrix(0.174892,0,0,0.175002,61.402,50.9114)">
                    <rect x="53.94" y="106.916" width="161.978" height="161.978" style="fill:rgb(217,217,217);"/>
                </g>
                <g transform="matrix(1,0,0,1,87.6198,-82.714)">
                    <path d="M-9.859,139.177L-10.879,139.177L-10.879,138.947C-10.879,138.714 -10.934,138.512 -11.044,138.342C-11.154,138.172 -11.339,138.087 -11.599,138.087C-11.739,138.087 -11.853,138.114 -11.939,138.167C-12.026,138.22 -12.096,138.287 -12.149,138.367C-12.203,138.454 -12.239,138.552 -12.259,138.662C-12.279,138.772 -12.289,138.887 -12.289,139.007C-12.289,139.147 -12.284,139.264 -12.274,139.357C-12.264,139.45 -12.239,139.534 -12.199,139.607C-12.159,139.68 -12.101,139.744 -12.024,139.797C-11.948,139.85 -11.843,139.904 -11.709,139.957L-10.929,140.267C-10.703,140.354 -10.519,140.455 -10.379,140.572C-10.239,140.689 -10.129,140.824 -10.049,140.977C-9.976,141.137 -9.926,141.319 -9.899,141.522C-9.873,141.725 -9.859,141.957 -9.859,142.217C-9.859,142.517 -9.889,142.795 -9.949,143.052C-10.009,143.309 -10.106,143.527 -10.239,143.707C-10.379,143.894 -10.563,144.04 -10.789,144.147C-11.016,144.254 -11.293,144.307 -11.619,144.307C-11.866,144.307 -12.096,144.264 -12.309,144.177C-12.523,144.09 -12.706,143.97 -12.859,143.817C-13.013,143.664 -13.134,143.485 -13.224,143.282C-13.314,143.079 -13.359,142.857 -13.359,142.617L-13.359,142.237L-12.339,142.237L-12.339,142.557C-12.339,142.744 -12.284,142.912 -12.174,143.062C-12.064,143.212 -11.879,143.287 -11.619,143.287C-11.446,143.287 -11.311,143.262 -11.214,143.212C-11.118,143.162 -11.043,143.09 -10.989,142.997C-10.936,142.904 -10.904,142.792 -10.894,142.662C-10.884,142.532 -10.879,142.387 -10.879,142.227C-10.879,142.04 -10.886,141.887 -10.899,141.767C-10.913,141.647 -10.939,141.55 -10.979,141.477C-11.026,141.404 -11.088,141.344 -11.164,141.297C-11.241,141.25 -11.343,141.2 -11.469,141.147L-12.199,140.847C-12.639,140.667 -12.934,140.429 -13.084,140.132C-13.234,139.835 -13.309,139.464 -13.309,139.017C-13.309,138.75 -13.273,138.497 -13.199,138.257C-13.126,138.017 -13.016,137.81 -12.869,137.637C-12.729,137.464 -12.551,137.325 -12.334,137.222C-12.118,137.119 -11.859,137.067 -11.559,137.067C-11.306,137.067 -11.074,137.114 -10.864,137.207C-10.654,137.3 -10.473,137.424 -10.319,137.577C-10.013,137.897 -9.859,138.264 -9.859,138.677L-9.859,139.177Z" style="fill-rule:nonzero;"/>
                    <path d="M-7.229,144.247L-7.229,143.727L-7.249,143.727C-7.383,143.914 -7.518,144.057 -7.654,144.157C-7.791,144.257 -7.983,144.307 -8.229,144.307C-8.349,144.307 -8.471,144.289 -8.594,144.252C-8.718,144.215 -8.836,144.147 -8.949,144.047C-9.063,143.954 -9.154,143.819 -9.224,143.642C-9.294,143.465 -9.329,143.237 -9.329,142.957C-9.329,142.67 -9.306,142.419 -9.259,142.202C-9.213,141.985 -9.126,141.804 -8.999,141.657C-8.879,141.517 -8.716,141.412 -8.509,141.342C-8.303,141.272 -8.039,141.237 -7.719,141.237L-7.609,141.237C-7.569,141.237 -7.533,141.24 -7.499,141.247C-7.466,141.254 -7.426,141.257 -7.379,141.257C-7.333,141.257 -7.283,141.26 -7.229,141.267L-7.229,140.737C-7.229,140.564 -7.266,140.42 -7.339,140.307C-7.413,140.194 -7.546,140.137 -7.739,140.137C-7.873,140.137 -7.994,140.18 -8.104,140.267C-8.214,140.354 -8.286,140.48 -8.319,140.647L-9.309,140.647C-9.283,140.194 -9.129,139.827 -8.849,139.547C-8.716,139.414 -8.556,139.309 -8.369,139.232C-8.183,139.155 -7.973,139.117 -7.739,139.117C-7.526,139.117 -7.326,139.15 -7.139,139.217C-6.953,139.284 -6.789,139.384 -6.649,139.517C-6.516,139.65 -6.409,139.817 -6.329,140.017C-6.249,140.217 -6.209,140.45 -6.209,140.717L-6.209,144.247L-7.229,144.247ZM-7.229,142.067C-7.343,142.047 -7.436,142.037 -7.509,142.037C-7.729,142.037 -7.918,142.089 -8.074,142.192C-8.231,142.295 -8.309,142.484 -8.309,142.757C-8.309,142.95 -8.263,143.107 -8.169,143.227C-8.076,143.347 -7.946,143.407 -7.779,143.407C-7.606,143.407 -7.471,143.35 -7.374,143.237C-7.278,143.124 -7.229,142.964 -7.229,142.757L-7.229,142.067Z" style="fill-rule:nonzero;"/>
                    <path d="M-5.459,144.247L-5.459,139.177L-4.439,139.177L-4.439,139.667L-4.419,139.667C-4.313,139.507 -4.184,139.375 -4.034,139.272C-3.884,139.169 -3.693,139.117 -3.459,139.117C-3.239,139.117 -3.056,139.17 -2.909,139.277C-2.763,139.384 -2.643,139.5 -2.549,139.627C-2.423,139.487 -2.283,139.367 -2.129,139.267C-1.976,139.167 -1.763,139.117 -1.489,139.117C-1.363,139.117 -1.233,139.139 -1.099,139.182C-0.966,139.225 -0.846,139.297 -0.739,139.397C-0.633,139.497 -0.546,139.625 -0.479,139.782C-0.413,139.939 -0.379,140.13 -0.379,140.357L-0.379,144.247L-1.399,144.247L-1.399,140.737C-1.399,140.55 -1.443,140.404 -1.529,140.297C-1.616,140.19 -1.739,140.137 -1.899,140.137C-2.093,140.137 -2.226,140.197 -2.299,140.317C-2.373,140.437 -2.409,140.61 -2.409,140.837L-2.409,144.247L-3.429,144.247L-3.429,140.737C-3.429,140.55 -3.473,140.404 -3.559,140.297C-3.646,140.19 -3.769,140.137 -3.929,140.137C-4.123,140.137 -4.256,140.197 -4.329,140.317C-4.403,140.437 -4.439,140.61 -4.439,140.837L-4.439,144.247L-5.459,144.247Z" style="fill-rule:nonzero;"/>
                    <path d="M0.461,146.297L0.461,139.177L1.481,139.177L1.481,139.637C1.607,139.49 1.737,139.367 1.871,139.267C2.004,139.167 2.197,139.117 2.451,139.117C2.871,139.117 3.167,139.277 3.341,139.597C3.401,139.71 3.444,139.85 3.471,140.017C3.497,140.184 3.511,140.407 3.511,140.687L3.511,142.617C3.511,142.99 3.501,143.26 3.481,143.427C3.441,143.76 3.287,144.01 3.021,144.177C2.887,144.264 2.694,144.307 2.441,144.307C2.241,144.307 2.062,144.262 1.906,144.172C1.749,144.082 1.614,143.954 1.501,143.787L1.481,143.787L1.481,146.297L0.461,146.297ZM2.491,140.827C2.491,140.62 2.451,140.454 2.371,140.327C2.291,140.2 2.164,140.137 1.991,140.137C1.837,140.137 1.714,140.195 1.621,140.312C1.527,140.429 1.481,140.58 1.481,140.767L1.481,142.737C1.481,142.897 1.529,143.029 1.626,143.132C1.722,143.235 1.844,143.287 1.991,143.287C2.184,143.287 2.316,143.227 2.386,143.107C2.456,142.987 2.491,142.847 2.491,142.687L2.491,140.827Z" style="fill-rule:nonzero;"/>
                    <path d="M4.291,137.127L5.311,137.127L5.311,142.817C5.311,143.01 5.346,143.142 5.416,143.212C5.486,143.282 5.617,143.327 5.811,143.347L5.811,144.307C5.577,144.307 5.367,144.289 5.181,144.252C4.994,144.215 4.834,144.144 4.701,144.037C4.567,143.937 4.466,143.795 4.396,143.612C4.326,143.429 4.291,143.187 4.291,142.887L4.291,137.127Z" style="fill-rule:nonzero;"/>
                    <path d="M9.161,142.097L7.141,142.097L7.141,142.787C7.141,142.947 7.186,143.07 7.276,143.157C7.366,143.244 7.487,143.287 7.641,143.287C7.834,143.287 7.962,143.23 8.026,143.117C8.089,143.004 8.127,142.89 8.141,142.777L9.161,142.777C9.161,143.224 9.024,143.584 8.751,143.857C8.617,143.997 8.457,144.107 8.271,144.187C8.084,144.267 7.874,144.307 7.641,144.307C7.321,144.307 7.049,144.24 6.826,144.107C6.602,143.974 6.431,143.797 6.311,143.577C6.237,143.444 6.187,143.29 6.161,143.117C6.134,142.944 6.121,142.754 6.121,142.547L6.121,140.877C6.121,140.67 6.134,140.48 6.161,140.307C6.187,140.134 6.237,139.98 6.311,139.847C6.431,139.627 6.602,139.45 6.826,139.317C7.049,139.184 7.321,139.117 7.641,139.117C7.874,139.117 8.086,139.157 8.276,139.237C8.466,139.317 8.627,139.427 8.761,139.567C9.027,139.867 9.161,140.244 9.161,140.697L9.161,142.097ZM7.141,141.297L8.141,141.297L8.141,140.717C8.141,140.524 8.096,140.379 8.006,140.282C7.916,140.185 7.794,140.137 7.641,140.137C7.487,140.137 7.366,140.185 7.276,140.282C7.186,140.379 7.141,140.524 7.141,140.717L7.141,141.297Z" style="fill-rule:nonzero;"/>
                </g>
                <g transform="matrix(1,0,0,1,87.6198,-82.714)">
                    <text x="-13.639px" y="144.247px" style="font-family:'DINCondensed-Bold', 'DIN Condensed';font-weight:700;font-stretch:condensed;font-size:10px;">Sample</text>
                </g>
            </g>
            <g transform="matrix(1,0,0,1,0.520487,0)">
                <g id="FlipFreeze-ledbutton" serif:id="FlipFreeze#ledbutton" transform="matrix(0.174892,0,0,0.175002,61.402,86.4739)">
                    <rect x="53.94" y="106.916" width="161.978" height="161.978" style="fill:rgb(242,242,242);"/>
                </g>
                <g id="GateFreeze-input-P" serif:id="GateFreeze#input$P" transform="matrix(0.174892,0,0,0.175002,61.402,50.9114)">
                    <rect x="53.94" y="106.916" width="161.978" height="161.978" style="fill:rgb(217,217,217);"/>
                </g>
                <g transform="matrix(1,0,0,1,88.3194,-82.7856)">
                    <path d="M-13.159,144.247L-13.159,137.127L-10.119,137.127L-10.119,138.087L-12.139,138.087L-12.139,140.247L-10.379,140.247L-10.379,141.207L-12.139,141.207L-12.139,144.247L-13.159,144.247Z" style="fill-rule:nonzero;"/>
                    <path d="M-9.699,144.247L-9.699,139.177L-8.679,139.177L-8.679,139.717C-8.473,139.53 -8.269,139.384 -8.069,139.277C-7.869,139.17 -7.623,139.117 -7.329,139.117L-7.329,140.197C-7.429,140.157 -7.533,140.137 -7.639,140.137C-7.746,140.137 -7.861,140.155 -7.984,140.192C-8.108,140.229 -8.219,140.29 -8.319,140.377C-8.426,140.464 -8.513,140.577 -8.579,140.717C-8.646,140.857 -8.679,141.03 -8.679,141.237L-8.679,144.247L-9.699,144.247Z" style="fill-rule:nonzero;"/>
                    <path d="M-3.969,142.097L-5.989,142.097L-5.989,142.787C-5.989,142.947 -5.944,143.07 -5.854,143.157C-5.764,143.244 -5.643,143.287 -5.489,143.287C-5.296,143.287 -5.168,143.23 -5.104,143.117C-5.041,143.004 -5.003,142.89 -4.989,142.777L-3.969,142.777C-3.969,143.224 -4.106,143.584 -4.379,143.857C-4.513,143.997 -4.673,144.107 -4.859,144.187C-5.046,144.267 -5.256,144.307 -5.489,144.307C-5.809,144.307 -6.081,144.24 -6.304,144.107C-6.528,143.974 -6.699,143.797 -6.819,143.577C-6.893,143.444 -6.943,143.29 -6.969,143.117C-6.996,142.944 -7.009,142.754 -7.009,142.547L-7.009,140.877C-7.009,140.67 -6.996,140.48 -6.969,140.307C-6.943,140.134 -6.893,139.98 -6.819,139.847C-6.699,139.627 -6.528,139.45 -6.304,139.317C-6.081,139.184 -5.809,139.117 -5.489,139.117C-5.256,139.117 -5.044,139.157 -4.854,139.237C-4.664,139.317 -4.503,139.427 -4.369,139.567C-4.103,139.867 -3.969,140.244 -3.969,140.697L-3.969,142.097ZM-5.989,141.297L-4.989,141.297L-4.989,140.717C-4.989,140.524 -5.034,140.379 -5.124,140.282C-5.214,140.185 -5.336,140.137 -5.489,140.137C-5.643,140.137 -5.764,140.185 -5.854,140.282C-5.944,140.379 -5.989,140.524 -5.989,140.717L-5.989,141.297Z" style="fill-rule:nonzero;"/>
                    <path d="M-0.269,142.097L-2.289,142.097L-2.289,142.787C-2.289,142.947 -2.244,143.07 -2.154,143.157C-2.064,143.244 -1.943,143.287 -1.789,143.287C-1.596,143.287 -1.468,143.23 -1.404,143.117C-1.341,143.004 -1.303,142.89 -1.289,142.777L-0.269,142.777C-0.269,143.224 -0.406,143.584 -0.679,143.857C-0.813,143.997 -0.973,144.107 -1.159,144.187C-1.346,144.267 -1.556,144.307 -1.789,144.307C-2.109,144.307 -2.381,144.24 -2.604,144.107C-2.828,143.974 -2.999,143.797 -3.119,143.577C-3.193,143.444 -3.243,143.29 -3.269,143.117C-3.296,142.944 -3.309,142.754 -3.309,142.547L-3.309,140.877C-3.309,140.67 -3.296,140.48 -3.269,140.307C-3.243,140.134 -3.193,139.98 -3.119,139.847C-2.999,139.627 -2.828,139.45 -2.604,139.317C-2.381,139.184 -2.109,139.117 -1.789,139.117C-1.556,139.117 -1.344,139.157 -1.154,139.237C-0.964,139.317 -0.803,139.427 -0.669,139.567C-0.403,139.867 -0.269,140.244 -0.269,140.697L-0.269,142.097ZM-2.289,141.297L-1.289,141.297L-1.289,140.717C-1.289,140.524 -1.334,140.379 -1.424,140.282C-1.514,140.185 -1.636,140.137 -1.789,140.137C-1.943,140.137 -2.064,140.185 -2.154,140.282C-2.244,140.379 -2.289,140.524 -2.289,140.717L-2.289,141.297Z" style="fill-rule:nonzero;"/>
                    <path d="M0.231,144.247L0.231,143.437L1.881,140.077L0.361,140.077L0.361,139.177L3.041,139.177L3.041,139.987L1.391,143.287L3.041,143.287L3.041,144.247L0.231,144.247Z" style="fill-rule:nonzero;"/>
                    <path d="M6.521,142.097L4.501,142.097L4.501,142.787C4.501,142.947 4.546,143.07 4.636,143.157C4.726,143.244 4.847,143.287 5.001,143.287C5.194,143.287 5.322,143.23 5.386,143.117C5.449,143.004 5.487,142.89 5.501,142.777L6.521,142.777C6.521,143.224 6.384,143.584 6.111,143.857C5.977,143.997 5.817,144.107 5.631,144.187C5.444,144.267 5.234,144.307 5.001,144.307C4.681,144.307 4.409,144.24 4.186,144.107C3.962,143.974 3.791,143.797 3.671,143.577C3.597,143.444 3.547,143.29 3.521,143.117C3.494,142.944 3.481,142.754 3.481,142.547L3.481,140.877C3.481,140.67 3.494,140.48 3.521,140.307C3.547,140.134 3.597,139.98 3.671,139.847C3.791,139.627 3.962,139.45 4.186,139.317C4.409,139.184 4.681,139.117 5.001,139.117C5.234,139.117 5.446,139.157 5.636,139.237C5.826,139.317 5.987,139.427 6.121,139.567C6.387,139.867 6.521,140.244 6.521,140.697L6.521,142.097ZM4.501,141.297L5.501,141.297L5.501,140.717C5.501,140.524 5.456,140.379 5.366,140.282C5.276,140.185 5.154,140.137 5.001,140.137C4.847,140.137 4.726,140.185 4.636,140.282C4.546,140.379 4.501,140.524 4.501,140.717L4.501,141.297Z" style="fill-rule:nonzero;"/>
                </g>
                <g transform="matrix(1,0,0,1,88.3194,-82.7856)">
                    <text x="-13.639px" y="144.247px" style="font-family:'DINCondensed-Bold', 'DIN Condensed';font-weight:700;font-stretch:condensed;font-size:10px;">F<tspan x="-10.119px -7.339px " y="144.247px 144.247px ">re</tspan>eze</text>
                </g>
            </g>
        </g>
    </g>
    <g transform="matrix(1,0,0,1,-21.1123,-332.812)">
        <g id="BusIn-led" serif:id="BusIn#led" transform="matrix(1,0,0,1,-11.0543,43.7203)">
            <circle cx="42.167" cy="335.861" r="3.82" style="fill:rgb(230,230,230);"/>
        </g>
        <g id="BusOut-led" serif:id="BusOut#led" transform="matrix(1,0,0,1,43.9457,43.7203)">
            <circle cx="42.167" cy="335.861" r="3.82" style="fill:rgb(230,230,230);"/>
        </g>
        <g transform="matrix(1,0,0,1,62.3138,346.656)">
            <path d="M-15.486,21.196C-15.598,21.172 -15.722,21.152 -15.858,21.136C-15.994,21.12 -16.138,21.108 -16.29,21.1C-16.442,21.092 -16.592,21.086 -16.74,21.082C-16.888,21.078 -17.026,21.076 -17.154,21.076L-17.526,21.076C-17.582,21.076 -17.63,21.08 -17.67,21.088C-17.71,21.096 -17.73,21.108 -17.73,21.124C-17.73,21.332 -17.728,21.574 -17.724,21.85C-17.72,22.126 -17.712,22.402 -17.7,22.678C-17.688,22.954 -17.674,23.208 -17.658,23.44C-17.642,23.672 -17.618,23.84 -17.586,23.944C-17.57,24.008 -17.502,24.054 -17.382,24.082C-17.262,24.11 -17.126,24.124 -16.974,24.124C-16.91,24.124 -16.844,24.122 -16.776,24.118C-16.708,24.114 -16.63,24.112 -16.542,24.112C-16.454,24.112 -16.386,24.132 -16.338,24.172C-16.29,24.212 -16.266,24.26 -16.266,24.316C-16.266,24.38 -16.272,24.436 -16.284,24.484C-16.296,24.532 -16.382,24.556 -16.542,24.556C-16.606,24.556 -16.708,24.552 -16.848,24.544C-16.988,24.536 -17.14,24.528 -17.304,24.52C-17.468,24.512 -17.638,24.512 -17.814,24.52C-17.99,24.528 -18.146,24.544 -18.282,24.568C-18.602,24.632 -18.902,24.706 -19.182,24.79C-19.462,24.874 -19.714,24.96 -19.938,25.048C-20.162,25.136 -20.35,25.222 -20.502,25.306C-20.654,25.39 -20.762,25.468 -20.826,25.54C-20.858,25.58 -20.882,25.6 -20.898,25.6L-20.958,25.6C-20.974,25.6 -21.014,25.578 -21.078,25.534C-21.142,25.49 -21.174,25.432 -21.174,25.36C-21.174,25.32 -21.108,25.262 -20.976,25.186C-20.844,25.11 -20.686,25.03 -20.502,24.946C-20.318,24.862 -20.126,24.782 -19.926,24.706C-19.726,24.63 -19.554,24.572 -19.41,24.532C-19.37,24.476 -19.336,24.318 -19.308,24.058C-19.28,23.798 -19.256,23.418 -19.236,22.918C-19.216,22.418 -19.2,21.792 -19.188,21.04C-19.176,20.288 -19.166,19.388 -19.158,18.34C-19.158,18.052 -19.162,17.758 -19.17,17.458C-19.178,17.158 -19.19,16.878 -19.206,16.618C-19.222,16.358 -19.246,16.132 -19.278,15.94C-19.31,15.748 -19.35,15.612 -19.398,15.532C-19.438,15.476 -19.512,15.438 -19.62,15.418C-19.728,15.398 -19.854,15.388 -19.998,15.388L-20.616,15.388C-20.668,15.388 -20.722,15.382 -20.778,15.37C-20.834,15.358 -20.88,15.34 -20.916,15.316C-20.952,15.292 -20.97,15.26 -20.97,15.22C-20.97,15.132 -20.958,15.07 -20.934,15.034C-20.91,14.998 -20.802,14.98 -20.61,14.98C-20.53,14.98 -20.43,14.984 -20.31,14.992C-20.19,15 -20.068,15.006 -19.944,15.01C-19.82,15.014 -19.696,15.02 -19.572,15.028C-19.448,15.036 -19.338,15.04 -19.242,15.04C-18.986,15.04 -18.668,15.016 -18.288,14.968C-17.908,14.92 -17.518,14.888 -17.118,14.872C-16.822,14.864 -16.52,14.858 -16.212,14.854C-15.904,14.85 -15.616,14.846 -15.348,14.842C-15.08,14.838 -14.848,14.834 -14.652,14.83C-14.456,14.826 -14.322,14.816 -14.25,14.8C-14.178,14.576 -14.098,14.382 -14.01,14.218C-13.922,14.054 -13.83,13.968 -13.734,13.96C-13.694,13.96 -13.64,13.974 -13.572,14.002C-13.504,14.03 -13.47,14.068 -13.47,14.116C-13.494,14.14 -13.514,14.164 -13.53,14.188C-13.562,14.236 -13.578,14.272 -13.578,14.296C-13.674,14.464 -13.76,14.68 -13.836,14.944C-13.912,15.208 -13.976,15.48 -14.028,15.76C-14.08,16.04 -14.118,16.312 -14.142,16.576C-14.166,16.84 -14.166,17.06 -14.142,17.236C-14.166,17.356 -14.214,17.416 -14.286,17.416C-14.414,17.416 -14.492,17.394 -14.52,17.35C-14.548,17.306 -14.554,17.26 -14.538,17.212C-14.522,17.148 -14.51,17.066 -14.502,16.966C-14.494,16.866 -14.49,16.784 -14.49,16.72C-14.49,16.528 -14.554,16.362 -14.682,16.222C-14.81,16.082 -14.982,15.966 -15.198,15.874C-15.414,15.782 -15.668,15.712 -15.96,15.664C-16.252,15.616 -16.562,15.592 -16.89,15.592C-16.978,15.592 -17.096,15.594 -17.244,15.598C-17.392,15.602 -17.502,15.636 -17.574,15.7C-17.59,15.764 -17.606,15.9 -17.622,16.108C-17.638,16.316 -17.652,16.562 -17.664,16.846C-17.676,17.13 -17.686,17.434 -17.694,17.758C-17.702,18.082 -17.708,18.396 -17.712,18.7C-17.716,19.004 -17.72,19.28 -17.724,19.528C-17.728,19.776 -17.73,19.96 -17.73,20.08C-17.57,20.088 -17.416,20.092 -17.268,20.092L-16.83,20.092C-16.35,20.1 -15.928,20.09 -15.564,20.062C-15.2,20.034 -14.958,20 -14.838,19.96C-14.766,19.936 -14.708,19.902 -14.664,19.858C-14.62,19.814 -14.584,19.768 -14.556,19.72C-14.528,19.672 -14.5,19.63 -14.472,19.594C-14.444,19.558 -14.414,19.54 -14.382,19.54C-14.342,19.54 -14.302,19.56 -14.262,19.6C-14.222,19.64 -14.21,19.676 -14.226,19.708C-14.274,19.796 -14.318,19.918 -14.358,20.074C-14.398,20.23 -14.432,20.402 -14.46,20.59C-14.488,20.778 -14.512,20.972 -14.532,21.172C-14.552,21.372 -14.562,21.56 -14.562,21.736C-14.562,21.768 -14.56,21.8 -14.556,21.832C-14.552,21.864 -14.55,21.9 -14.55,21.94C-14.55,21.964 -14.568,21.982 -14.604,21.994C-14.64,22.006 -14.676,22.012 -14.712,22.012C-14.748,22.012 -14.782,22.008 -14.814,22C-14.846,21.992 -14.862,21.976 -14.862,21.952C-14.862,21.904 -14.866,21.846 -14.874,21.778C-14.882,21.71 -14.9,21.644 -14.928,21.58C-14.956,21.516 -15,21.454 -15.06,21.394C-15.12,21.334 -15.202,21.284 -15.306,21.244L-15.486,21.196Z" style="fill-rule:nonzero;"/>
            <path d="M-7.758,18.496C-7.846,18.568 -7.95,18.658 -8.07,18.766C-8.19,18.874 -8.316,18.978 -8.448,19.078C-8.58,19.178 -8.714,19.264 -8.85,19.336C-8.986,19.408 -9.118,19.444 -9.246,19.444C-9.358,19.444 -9.458,19.418 -9.546,19.366C-9.634,19.314 -9.716,19.258 -9.792,19.198C-9.868,19.138 -9.942,19.082 -10.014,19.03C-10.086,18.978 -10.162,18.952 -10.242,18.952C-10.458,18.952 -10.64,19.04 -10.788,19.216C-10.936,19.392 -11.056,19.616 -11.148,19.888C-11.24,20.16 -11.308,20.456 -11.352,20.776C-11.396,21.096 -11.418,21.404 -11.418,21.7C-11.418,21.948 -11.408,22.15 -11.388,22.306C-11.368,22.462 -11.338,22.586 -11.298,22.678C-11.258,22.77 -11.204,22.832 -11.136,22.864C-11.068,22.896 -10.986,22.912 -10.89,22.912C-10.786,22.912 -10.674,22.896 -10.554,22.864C-10.53,22.856 -10.512,22.872 -10.5,22.912C-10.488,22.952 -10.482,22.984 -10.482,23.008C-10.482,23.024 -10.494,23.042 -10.518,23.062C-10.542,23.082 -10.558,23.092 -10.566,23.092C-10.742,23.164 -10.922,23.242 -11.106,23.326C-11.29,23.41 -11.442,23.48 -11.562,23.536C-11.674,23.584 -11.808,23.636 -11.964,23.692C-12.12,23.748 -12.254,23.776 -12.366,23.776C-12.494,23.776 -12.6,23.756 -12.684,23.716C-12.768,23.676 -12.81,23.636 -12.81,23.596C-12.81,23.556 -12.8,23.52 -12.78,23.488C-12.76,23.456 -12.742,23.396 -12.726,23.308C-12.71,23.188 -12.692,23.046 -12.672,22.882C-12.652,22.718 -12.632,22.54 -12.612,22.348C-12.592,22.156 -12.576,21.958 -12.564,21.754C-12.552,21.55 -12.546,21.348 -12.546,21.148C-12.546,20.7 -12.56,20.32 -12.588,20.008C-12.616,19.696 -12.666,19.444 -12.738,19.252C-12.81,19.06 -12.908,18.922 -13.032,18.838C-13.156,18.754 -13.314,18.712 -13.506,18.712L-13.614,18.712C-13.646,18.712 -13.678,18.716 -13.71,18.724C-13.758,18.724 -13.782,18.7 -13.782,18.652C-13.782,18.604 -13.758,18.568 -13.71,18.544C-13.622,18.488 -13.486,18.406 -13.302,18.298C-13.118,18.19 -12.928,18.086 -12.732,17.986C-12.536,17.886 -12.346,17.796 -12.162,17.716C-11.978,17.636 -11.842,17.596 -11.754,17.596C-11.65,17.596 -11.562,17.63 -11.49,17.698C-11.418,17.766 -11.364,17.852 -11.328,17.956C-11.292,18.06 -11.266,18.178 -11.25,18.31C-11.234,18.442 -11.226,18.572 -11.226,18.7C-11.226,18.796 -11.228,18.896 -11.232,19C-11.236,19.104 -11.238,19.216 -11.238,19.336C-10.878,18.808 -10.554,18.398 -10.266,18.106C-9.978,17.814 -9.706,17.668 -9.45,17.668C-9.354,17.668 -9.26,17.708 -9.168,17.788C-9.076,17.868 -8.978,17.958 -8.874,18.058C-8.77,18.158 -8.662,18.248 -8.55,18.328C-8.438,18.408 -8.322,18.448 -8.202,18.448C-8.098,18.448 -8.022,18.436 -7.974,18.412C-7.926,18.388 -7.886,18.368 -7.854,18.352C-7.79,18.352 -7.758,18.396 -7.758,18.484L-7.758,18.496Z" style="fill-rule:nonzero;"/>
            <path d="M-2.886,22.192C-2.974,22.288 -3.11,22.42 -3.294,22.588C-3.478,22.756 -3.7,22.924 -3.96,23.092C-4.22,23.26 -4.51,23.404 -4.83,23.524C-5.15,23.644 -5.49,23.704 -5.85,23.704C-6.178,23.704 -6.498,23.654 -6.81,23.554C-7.122,23.454 -7.402,23.302 -7.65,23.098C-7.898,22.894 -8.096,22.634 -8.244,22.318C-8.392,22.002 -8.466,21.624 -8.466,21.184C-8.466,20.824 -8.442,20.514 -8.394,20.254C-8.346,19.994 -8.282,19.766 -8.202,19.57C-8.122,19.374 -8.032,19.206 -7.932,19.066C-7.832,18.926 -7.73,18.8 -7.626,18.688C-7.498,18.544 -7.342,18.408 -7.158,18.28C-6.974,18.152 -6.776,18.036 -6.564,17.932C-6.352,17.828 -6.128,17.746 -5.892,17.686C-5.656,17.626 -5.418,17.596 -5.178,17.596C-4.746,17.596 -4.408,17.668 -4.164,17.812C-3.92,17.956 -3.798,18.156 -3.798,18.412C-3.798,18.572 -3.846,18.72 -3.942,18.856C-3.862,18.832 -3.76,18.792 -3.636,18.736C-3.512,18.68 -3.386,18.622 -3.258,18.562C-3.13,18.502 -3.016,18.448 -2.916,18.4C-2.816,18.352 -2.75,18.316 -2.718,18.292C-2.702,18.276 -2.684,18.27 -2.664,18.274C-2.644,18.278 -2.634,18.292 -2.634,18.316C-2.634,18.42 -2.654,18.506 -2.694,18.574C-2.734,18.642 -2.782,18.696 -2.838,18.736C-2.966,18.816 -3.15,18.916 -3.39,19.036C-3.63,19.156 -3.896,19.282 -4.188,19.414C-4.48,19.546 -4.782,19.678 -5.094,19.81C-5.406,19.942 -5.7,20.068 -5.976,20.188C-6.252,20.308 -6.492,20.414 -6.696,20.506C-6.9,20.598 -7.038,20.664 -7.11,20.704C-7.11,20.976 -7.056,21.23 -6.948,21.466C-6.84,21.702 -6.69,21.908 -6.498,22.084C-6.306,22.26 -6.076,22.398 -5.808,22.498C-5.54,22.598 -5.246,22.648 -4.926,22.648C-4.638,22.648 -4.378,22.618 -4.146,22.558C-3.914,22.498 -3.718,22.43 -3.558,22.354C-3.398,22.278 -3.272,22.21 -3.18,22.15C-3.088,22.09 -3.038,22.06 -3.03,22.06C-2.998,22.06 -2.966,22.074 -2.934,22.102C-2.902,22.13 -2.886,22.16 -2.886,22.192ZM-7.11,20.356C-6.974,20.308 -6.82,20.25 -6.648,20.182C-6.476,20.114 -6.308,20.04 -6.144,19.96C-5.98,19.88 -5.83,19.804 -5.694,19.732C-5.558,19.66 -5.454,19.596 -5.382,19.54C-5.238,19.436 -5.166,19.26 -5.166,19.012C-5.166,18.916 -5.184,18.816 -5.22,18.712C-5.256,18.608 -5.31,18.514 -5.382,18.43C-5.454,18.346 -5.542,18.278 -5.646,18.226C-5.75,18.174 -5.866,18.148 -5.994,18.148C-6.106,18.148 -6.226,18.186 -6.354,18.262C-6.482,18.338 -6.602,18.462 -6.714,18.634C-6.826,18.806 -6.92,19.034 -6.996,19.318C-7.072,19.602 -7.11,19.948 -7.11,20.356Z" style="fill-rule:nonzero;"/>
            <path d="M2.682,22.192C2.594,22.288 2.458,22.42 2.274,22.588C2.09,22.756 1.868,22.924 1.608,23.092C1.348,23.26 1.058,23.404 0.738,23.524C0.418,23.644 0.078,23.704 -0.282,23.704C-0.61,23.704 -0.93,23.654 -1.242,23.554C-1.554,23.454 -1.834,23.302 -2.082,23.098C-2.33,22.894 -2.528,22.634 -2.676,22.318C-2.824,22.002 -2.898,21.624 -2.898,21.184C-2.898,20.824 -2.874,20.514 -2.826,20.254C-2.778,19.994 -2.714,19.766 -2.634,19.57C-2.554,19.374 -2.464,19.206 -2.364,19.066C-2.264,18.926 -2.162,18.8 -2.058,18.688C-1.93,18.544 -1.774,18.408 -1.59,18.28C-1.406,18.152 -1.208,18.036 -0.996,17.932C-0.784,17.828 -0.56,17.746 -0.324,17.686C-0.088,17.626 0.15,17.596 0.39,17.596C0.822,17.596 1.16,17.668 1.404,17.812C1.648,17.956 1.77,18.156 1.77,18.412C1.77,18.572 1.722,18.72 1.626,18.856C1.706,18.832 1.808,18.792 1.932,18.736C2.056,18.68 2.182,18.622 2.31,18.562C2.438,18.502 2.552,18.448 2.652,18.4C2.752,18.352 2.818,18.316 2.85,18.292C2.866,18.276 2.884,18.27 2.904,18.274C2.924,18.278 2.934,18.292 2.934,18.316C2.934,18.42 2.914,18.506 2.874,18.574C2.834,18.642 2.786,18.696 2.73,18.736C2.602,18.816 2.418,18.916 2.178,19.036C1.938,19.156 1.672,19.282 1.38,19.414C1.088,19.546 0.786,19.678 0.474,19.81C0.162,19.942 -0.132,20.068 -0.408,20.188C-0.684,20.308 -0.924,20.414 -1.128,20.506C-1.332,20.598 -1.47,20.664 -1.542,20.704C-1.542,20.976 -1.488,21.23 -1.38,21.466C-1.272,21.702 -1.122,21.908 -0.93,22.084C-0.738,22.26 -0.508,22.398 -0.24,22.498C0.028,22.598 0.322,22.648 0.642,22.648C0.93,22.648 1.19,22.618 1.422,22.558C1.654,22.498 1.85,22.43 2.01,22.354C2.17,22.278 2.296,22.21 2.388,22.15C2.48,22.09 2.53,22.06 2.538,22.06C2.57,22.06 2.602,22.074 2.634,22.102C2.666,22.13 2.682,22.16 2.682,22.192ZM-1.542,20.356C-1.406,20.308 -1.252,20.25 -1.08,20.182C-0.908,20.114 -0.74,20.04 -0.576,19.96C-0.412,19.88 -0.262,19.804 -0.126,19.732C0.01,19.66 0.114,19.596 0.186,19.54C0.33,19.436 0.402,19.26 0.402,19.012C0.402,18.916 0.384,18.816 0.348,18.712C0.312,18.608 0.258,18.514 0.186,18.43C0.114,18.346 0.026,18.278 -0.078,18.226C-0.182,18.174 -0.298,18.148 -0.426,18.148C-0.538,18.148 -0.658,18.186 -0.786,18.262C-0.914,18.338 -1.034,18.462 -1.146,18.634C-1.258,18.806 -1.352,19.034 -1.428,19.318C-1.504,19.602 -1.542,19.948 -1.542,20.356Z" style="fill-rule:nonzero;"/>
            <path d="M1.974,23.44C2.15,23.336 2.326,23.192 2.502,23.008C2.678,22.824 2.854,22.618 3.03,22.39C3.206,22.162 3.384,21.92 3.564,21.664C3.744,21.408 3.922,21.152 4.098,20.896C4.394,20.464 4.672,20.052 4.932,19.66C5.192,19.268 5.398,18.948 5.55,18.7L5.358,18.7C5.062,18.7 4.74,18.688 4.392,18.664C4.044,18.64 3.73,18.628 3.45,18.628C3.194,18.628 3.01,18.648 2.898,18.688C2.786,18.728 2.686,18.792 2.598,18.88C2.574,18.88 2.54,18.87 2.496,18.85C2.452,18.83 2.43,18.8 2.43,18.76C2.43,18.736 2.434,18.72 2.442,18.712C2.538,18.648 2.666,18.54 2.826,18.388C2.986,18.236 3.146,18.084 3.306,17.932C3.466,17.78 3.606,17.646 3.726,17.53C3.846,17.414 3.918,17.356 3.942,17.356C3.998,17.356 4.038,17.366 4.062,17.386C4.086,17.406 4.106,17.428 4.122,17.452C4.138,17.476 4.158,17.502 4.182,17.53C4.206,17.558 4.246,17.584 4.302,17.608C4.398,17.648 4.53,17.688 4.698,17.728C4.866,17.768 5.054,17.802 5.262,17.83C5.47,17.858 5.694,17.882 5.934,17.902C6.174,17.922 6.414,17.932 6.654,17.932C6.806,17.932 6.962,17.922 7.122,17.902C7.282,17.882 7.422,17.856 7.542,17.824C7.55,17.824 7.562,17.84 7.578,17.872C7.594,17.904 7.602,17.932 7.602,17.956C7.602,17.972 7.598,17.986 7.59,17.998C7.582,18.01 7.578,18.02 7.578,18.028C7.354,18.196 7.104,18.476 6.828,18.868C6.552,19.26 6.178,19.752 5.706,20.344C5.666,20.384 5.636,20.424 5.616,20.464C5.596,20.504 5.57,20.544 5.538,20.584C5.186,21.032 4.878,21.414 4.614,21.73C4.35,22.046 4.114,22.316 3.906,22.54C4.026,22.556 4.168,22.584 4.332,22.624C4.496,22.664 4.68,22.704 4.884,22.744C5.088,22.784 5.312,22.82 5.556,22.852C5.8,22.884 6.062,22.9 6.342,22.9C6.638,22.9 6.88,22.874 7.068,22.822C7.256,22.77 7.43,22.668 7.59,22.516C7.646,22.46 7.672,22.436 7.668,22.444C7.664,22.452 7.678,22.456 7.71,22.456C7.75,22.456 7.768,22.478 7.764,22.522C7.76,22.566 7.758,22.596 7.758,22.612C7.758,22.708 7.702,22.824 7.59,22.96C7.478,23.096 7.322,23.226 7.122,23.35C6.922,23.474 6.684,23.58 6.408,23.668C6.132,23.756 5.826,23.8 5.49,23.8C5.282,23.8 5.056,23.788 4.812,23.764C4.568,23.74 4.318,23.712 4.062,23.68C3.806,23.648 3.55,23.62 3.294,23.596C3.038,23.572 2.798,23.56 2.574,23.56C2.438,23.56 2.324,23.574 2.232,23.602C2.14,23.63 2.034,23.66 1.914,23.692C1.874,23.692 1.854,23.668 1.854,23.62C1.854,23.612 1.862,23.576 1.878,23.512L1.974,23.44Z" style="fill-rule:nonzero;"/>
            <path d="M13.326,22.192C13.238,22.288 13.102,22.42 12.918,22.588C12.734,22.756 12.512,22.924 12.252,23.092C11.992,23.26 11.702,23.404 11.382,23.524C11.062,23.644 10.722,23.704 10.362,23.704C10.034,23.704 9.714,23.654 9.402,23.554C9.09,23.454 8.81,23.302 8.562,23.098C8.314,22.894 8.116,22.634 7.968,22.318C7.82,22.002 7.746,21.624 7.746,21.184C7.746,20.824 7.77,20.514 7.818,20.254C7.866,19.994 7.93,19.766 8.01,19.57C8.09,19.374 8.18,19.206 8.28,19.066C8.38,18.926 8.482,18.8 8.586,18.688C8.714,18.544 8.87,18.408 9.054,18.28C9.238,18.152 9.436,18.036 9.648,17.932C9.86,17.828 10.084,17.746 10.32,17.686C10.556,17.626 10.794,17.596 11.034,17.596C11.466,17.596 11.804,17.668 12.048,17.812C12.292,17.956 12.414,18.156 12.414,18.412C12.414,18.572 12.366,18.72 12.27,18.856C12.35,18.832 12.452,18.792 12.576,18.736C12.7,18.68 12.826,18.622 12.954,18.562C13.082,18.502 13.196,18.448 13.296,18.4C13.396,18.352 13.462,18.316 13.494,18.292C13.51,18.276 13.528,18.27 13.548,18.274C13.568,18.278 13.578,18.292 13.578,18.316C13.578,18.42 13.558,18.506 13.518,18.574C13.478,18.642 13.43,18.696 13.374,18.736C13.246,18.816 13.062,18.916 12.822,19.036C12.582,19.156 12.316,19.282 12.024,19.414C11.732,19.546 11.43,19.678 11.118,19.81C10.806,19.942 10.512,20.068 10.236,20.188C9.96,20.308 9.72,20.414 9.516,20.506C9.312,20.598 9.174,20.664 9.102,20.704C9.102,20.976 9.156,21.23 9.264,21.466C9.372,21.702 9.522,21.908 9.714,22.084C9.906,22.26 10.136,22.398 10.404,22.498C10.672,22.598 10.966,22.648 11.286,22.648C11.574,22.648 11.834,22.618 12.066,22.558C12.298,22.498 12.494,22.43 12.654,22.354C12.814,22.278 12.94,22.21 13.032,22.15C13.124,22.09 13.174,22.06 13.182,22.06C13.214,22.06 13.246,22.074 13.278,22.102C13.31,22.13 13.326,22.16 13.326,22.192ZM9.102,20.356C9.238,20.308 9.392,20.25 9.564,20.182C9.736,20.114 9.904,20.04 10.068,19.96C10.232,19.88 10.382,19.804 10.518,19.732C10.654,19.66 10.758,19.596 10.83,19.54C10.974,19.436 11.046,19.26 11.046,19.012C11.046,18.916 11.028,18.816 10.992,18.712C10.956,18.608 10.902,18.514 10.83,18.43C10.758,18.346 10.67,18.278 10.566,18.226C10.462,18.174 10.346,18.148 10.218,18.148C10.106,18.148 9.986,18.186 9.858,18.262C9.73,18.338 9.61,18.462 9.498,18.634C9.386,18.806 9.292,19.034 9.216,19.318C9.14,19.602 9.102,19.948 9.102,20.356Z" style="fill-rule:nonzero;"/>
        </g>
        <g transform="matrix(1,0,0,1,62.3138,346.656)">
            <text x="-20.982px" y="23.596px" style="font-family:'Luminari-Regular', 'Luminari';font-size:12px;">Fr<tspan x="-8.814px -3.246px " y="23.596px 23.596px ">ee</tspan>z</text>
            <text x="7.398px" y="23.596px" style="font-family:'Luminari-Regular', 'Luminari';font-size:12px;">e</text>
        </g>
        <g transform="matrix(1,0,0,1,58.164,339.27)">
            <g transform="matrix(0.8973,0,0,0.884326,9.28968,12.4373)">
                <circle cx="3.434" cy="5.159" r="2.172" style="stroke:black;stroke-width:0.94px;"/>
            </g>
            <g transform="matrix(0.8973,0,0,0.884326,4.54775,12.4373)">
                <circle cx="3.434" cy="5.159" r="2.172" style="fill:white;stroke:black;stroke-width:0.94px;"/>
            </g>
            <g transform="matrix(0.8973,0,0,0.884326,-0.194181,12.4373)">
                <circle cx="3.434" cy="5.159" r="2.172" style="stroke:black;stroke-width:0.94px;"/>
            </g>
            <g transform="matrix(0.8973,0,0,0.884326,14.0316,12.4373)">
                <circle cx="3.434" cy="5.159" r="2.172" style="stroke:black;stroke-width:0.94px;"/>
            </g>
            <g transform="matrix(0.8973,0,0,0.884326,9.28968,6.70878)">
                <circle cx="3.434" cy="5.159" r="2.172" style="fill:white;stroke:black;stroke-width:0.94px;"/>
            </g>
            <g transform="matrix(0.8973,0,0,0.884326,4.54775,6.70878)">
                <circle cx="3.434" cy="5.159" r="2.172" style="stroke:black;stroke-width:0.94px;"/>
            </g>
            <g transform="matrix(0.8973,0,0,0.884326,-0.194181,6.70878)">
                <circle cx="3.434" cy="5.159" r="2.172" style="stroke:black;stroke-width:0.94px;"/>
            </g>
            <g transform="matrix(0.8973,0,0,0.884326,14.0316,6.70878)">
                <circle cx="3.434" cy="5.159" r="2.172" style="fill:white;stroke:black;stroke-width:0.94px;"/>
            </g>
            <g transform="matrix(0.8973,0,0,0.884326,9.28968,0.980236)">
                <circle cx="3.434" cy="5.159" r="2.172" style="fill:white;stroke:black;stroke-width:0.94px;"/>
            </g>
            <g transform="matrix(0.8973,0,0,0.884326,4.54775,0.980236)">
                <circle cx="3.434" cy="5.159" r="2.172" style="fill:white;stroke:black;stroke-width:0.94px;"/>
            </g>
            <g transform="matrix(0.8973,0,0,0.884326,-0.194181,0.980236)">
                <circle cx="3.434" cy="5.159" r="2.172" style="stroke:black;stroke-width:0.94px;"/>
            </g>
            <g transform="matrix(0.8973,0,0,0.884326,14.0316,0.980236)">
                <circle cx="3.434" cy="5.159" r="2.172" style="stroke:black;stroke-width:0.94px;"/>
            </g>
        </g>
        <g id="namespace-BitBus" serif:id="namespace@BitBus" transform="matrix(0.0178906,0,0,0.0202937,37.7207,339.525)">
            <g transform="matrix(55.8954,0,0,49.2765,-878.032,-330.791)">
                <path d="M27.733,13.757C27.957,11.616 28.949,10 30.136,10C31.489,10 32.587,12.095 32.587,14.677C32.587,15.669 32.424,16.59 32.148,17.347C32.432,17.974 32.587,18.65 32.587,19.353C32.587,22.678 29.128,25.378 24.868,25.378C20.609,25.378 17.15,22.678 17.15,19.353C17.15,18.65 17.305,17.974 17.589,17.347C17.313,16.59 17.15,15.669 17.15,14.677C17.15,12.095 18.248,10 19.601,10C20.788,10 21.779,11.616 22.003,13.757L22.04,13.746C22.915,13.476 23.87,13.328 24.868,13.328C25.881,13.328 26.847,13.48 27.733,13.757ZM17.609,17.304L17.606,17.31L17.609,17.304ZM32.128,17.305L32.131,17.31L32.128,17.305ZM17.627,17.265L17.623,17.273L17.627,17.265ZM32.11,17.266L32.113,17.273L32.11,17.266ZM17.645,17.227L17.641,17.236L17.645,17.227ZM32.092,17.228L32.096,17.236L32.092,17.228ZM17.663,17.19L17.659,17.2L17.663,17.19ZM32.074,17.191L32.078,17.199L32.074,17.191ZM17.682,17.153L17.677,17.162L17.682,17.153ZM32.055,17.154L32.059,17.161L32.055,17.154ZM17.7,17.117L17.696,17.125L17.7,17.117ZM32.037,17.117L32.04,17.123L32.037,17.117ZM17.719,17.081L17.717,17.085L17.719,17.081ZM32.018,17.081L32.019,17.082L32.018,17.081ZM17.782,16.964L17.778,16.971L17.782,16.964ZM31.957,16.968L31.958,16.97L31.957,16.968ZM17.804,16.925L17.798,16.935L17.804,16.925ZM31.935,16.928L31.938,16.934L31.935,16.928ZM17.825,16.888L17.818,16.9L17.825,16.888ZM31.914,16.891L31.918,16.899L31.914,16.891ZM17.845,16.852L17.838,16.865L17.845,16.852ZM31.893,16.854L31.898,16.863L31.893,16.854ZM17.866,16.817L17.859,16.829L17.866,16.817ZM31.871,16.819L31.876,16.827L31.871,16.819ZM17.888,16.782L17.88,16.794L17.888,16.782ZM31.85,16.783L31.855,16.791L31.85,16.783ZM17.909,16.747L17.902,16.758L17.909,16.747ZM31.829,16.748L31.832,16.754L31.829,16.748ZM17.931,16.712L17.925,16.72L17.931,16.712ZM31.807,16.713L31.808,16.714L31.807,16.713ZM17.979,16.635L17.975,16.642L17.979,16.635ZM18.005,16.596L17.998,16.608L18.005,16.596ZM31.735,16.602L31.738,16.606L31.735,16.602ZM18.029,16.561L18.02,16.573L18.029,16.561ZM31.711,16.564L31.716,16.572L31.711,16.564ZM18.052,16.526L18.043,16.539L18.052,16.526ZM31.686,16.529L31.692,16.537L31.686,16.529ZM18.076,16.492L18.066,16.505L18.076,16.492ZM31.663,16.494L31.669,16.503L31.663,16.494ZM18.1,16.458L18.09,16.471L18.1,16.458ZM31.639,16.459L31.645,16.469L31.639,16.459ZM18.124,16.424L18.114,16.437L18.124,16.424ZM31.614,16.425L31.62,16.434L31.614,16.425ZM18.148,16.39L18.139,16.403L18.148,16.39ZM31.59,16.392L31.595,16.398L31.59,16.392ZM18.172,16.357L18.164,16.367L18.172,16.357ZM31.566,16.358L31.567,16.36L31.566,16.358ZM18.197,16.324L18.196,16.324L18.197,16.324ZM18.23,16.28L18.222,16.291L18.23,16.28ZM31.513,16.288L31.514,16.289L31.513,16.288ZM18.257,16.245L18.247,16.258L18.257,16.245ZM31.484,16.249L31.489,16.256L31.484,16.249ZM18.283,16.211L18.272,16.225L18.283,16.211ZM31.456,16.214L31.463,16.223L31.456,16.214ZM18.309,16.178L18.298,16.192L18.309,16.178ZM31.43,16.18L31.438,16.19L31.43,16.18ZM18.335,16.145L18.324,16.16L18.335,16.145ZM31.403,16.147L31.411,16.158L31.403,16.147ZM18.362,16.113L18.35,16.127L18.362,16.113ZM31.376,16.114L31.385,16.125L31.376,16.114ZM18.388,16.081L18.377,16.094L18.388,16.081ZM31.35,16.082L31.357,16.091L31.35,16.082ZM18.415,16.049L18.404,16.061L18.415,16.049ZM31.323,16.05L31.329,16.057L31.323,16.05ZM18.442,16.017L18.433,16.027L18.442,16.017ZM31.295,16.018L31.298,16.021L31.295,16.018ZM18.473,15.981L18.469,15.985L18.473,15.981ZM18.507,15.942L18.497,15.954L18.507,15.942ZM31.234,15.947L31.239,15.953L31.234,15.947ZM18.536,15.909L18.525,15.922L18.536,15.909ZM31.203,15.912L31.211,15.921L31.203,15.912ZM18.565,15.877L18.553,15.891L18.565,15.877ZM31.174,15.879L31.183,15.89L31.174,15.879ZM18.594,15.846L18.581,15.86L18.594,15.846ZM31.145,15.847L31.155,15.859L31.145,15.847ZM18.622,15.815L18.61,15.828L18.622,15.815ZM31.115,15.816L31.126,15.827L31.115,15.816ZM18.651,15.784L18.639,15.797L18.651,15.784ZM31.086,15.785L31.097,15.796L31.086,15.785ZM18.68,15.753L18.668,15.766L18.68,15.753ZM31.057,15.754L31.067,15.765L31.057,15.754ZM18.71,15.723L18.698,15.735L18.71,15.723ZM31.027,15.723L31.037,15.733L31.027,15.723ZM18.739,15.692L18.73,15.702L18.739,15.692ZM30.998,15.693L31.003,15.698L30.998,15.693ZM18.775,15.656L18.769,15.662L18.775,15.656ZM30.965,15.659L30.967,15.662L30.965,15.659ZM18.81,15.621L18.799,15.632L18.81,15.621ZM30.928,15.622L30.937,15.632L30.928,15.622ZM18.842,15.59L18.83,15.602L18.842,15.59ZM30.895,15.591L30.907,15.602L30.895,15.591ZM18.873,15.56L18.86,15.572L18.873,15.56ZM30.864,15.56L30.876,15.572L30.864,15.56ZM18.904,15.53L18.891,15.543L18.904,15.53ZM30.832,15.53L30.846,15.543L30.832,15.53ZM30.801,15.5L30.814,15.513L30.801,15.5ZM18.936,15.501L18.923,15.513L18.936,15.501ZM30.769,15.471L30.783,15.484L30.769,15.471ZM18.967,15.471L18.954,15.483L18.967,15.471ZM30.738,15.442L30.751,15.454L30.738,15.442ZM18.999,15.442L18.986,15.454L18.999,15.442ZM30.706,15.413L30.719,15.425L30.706,15.413ZM19.031,15.413L19.019,15.424L19.031,15.413ZM30.674,15.384L30.684,15.394L30.674,15.384ZM19.063,15.385L19.056,15.391L19.063,15.385ZM30.63,15.346L30.642,15.356L30.63,15.346ZM19.101,15.35L19.095,15.356L19.101,15.35ZM30.595,15.315L30.61,15.328L30.595,15.315ZM19.139,15.318L19.128,15.327L19.139,15.318ZM30.561,15.286L30.577,15.3L30.561,15.286ZM19.173,15.288L19.161,15.299L19.173,15.288ZM30.528,15.258L30.544,15.272L30.528,15.258ZM19.207,15.26L19.194,15.271L19.207,15.26ZM30.494,15.23L30.511,15.244L30.494,15.23ZM19.241,15.231L19.227,15.243L19.241,15.231ZM30.461,15.202L30.478,15.216L30.461,15.202ZM19.274,15.204L19.261,15.215L19.274,15.204ZM30.427,15.175L30.444,15.189L30.427,15.175ZM19.308,15.176L19.295,15.187L19.308,15.176ZM30.393,15.147L30.41,15.161L30.393,15.147ZM19.342,15.149L19.33,15.158L19.342,15.149ZM30.359,15.12L30.376,15.134L30.359,15.12ZM19.377,15.121L19.366,15.129L19.377,15.121ZM30.325,15.093L30.343,15.107L30.326,15.094L30.305,15.078L30.325,15.093ZM19.411,15.094L19.409,15.096L19.411,15.094ZM30.273,15.053L30.292,15.068L30.273,15.053ZM19.452,15.062L19.446,15.067L19.452,15.062ZM30.238,15.027L30.257,15.041L30.238,15.027ZM19.492,15.032L19.481,15.04L19.492,15.032ZM30.203,15L30.222,15.015L30.203,15ZM19.529,15.004L19.516,15.013L19.529,15.004ZM30.168,14.974L30.187,14.989L30.168,14.974ZM19.565,14.977L19.552,14.987L19.565,14.977ZM30.132,14.948L30.152,14.963L30.132,14.948ZM19.601,14.951L19.588,14.961L19.601,14.951ZM30.097,14.922L30.117,14.937L30.097,14.922ZM19.637,14.925L19.624,14.934L19.637,14.925ZM30.061,14.897L30.081,14.911L30.061,14.897ZM19.673,14.899L19.661,14.908L19.673,14.899ZM30.025,14.871L30.046,14.886L30.025,14.871ZM19.71,14.873L19.698,14.881L19.71,14.873ZM29.988,14.846L30.011,14.862L29.988,14.846ZM19.746,14.848L19.738,14.853L19.746,14.848ZM29.954,14.822L29.915,14.796C29.928,14.805 29.941,14.813 29.954,14.822ZM19.826,14.793L19.821,14.796L19.826,14.793ZM29.858,14.758L29.881,14.773L29.858,14.758ZM19.868,14.765L19.858,14.771L19.868,14.765ZM29.822,14.734L29.845,14.749L29.822,14.734ZM19.907,14.739L19.896,14.747L19.907,14.739ZM29.785,14.71L29.807,14.724L29.785,14.71ZM19.946,14.714L19.933,14.722L19.946,14.714ZM29.747,14.686L29.77,14.7L29.747,14.686ZM19.984,14.689L19.971,14.697L19.984,14.689ZM29.71,14.662L29.733,14.676L29.71,14.662ZM20.023,14.665L20.01,14.673L20.023,14.665ZM29.672,14.638L29.696,14.653L29.672,14.638ZM20.061,14.641L20.049,14.648L20.061,14.641ZM29.634,14.615L29.659,14.63L29.634,14.615ZM20.099,14.617L20.09,14.623L20.099,14.617ZM29.494,14.531C29.537,14.556 29.58,14.582 29.623,14.608C29.581,14.582 29.538,14.556 29.494,14.531ZM20.138,14.593L20.134,14.596L20.138,14.593ZM20.221,14.543L20.218,14.545L20.221,14.543ZM29.458,14.51L29.483,14.525L29.458,14.51ZM20.266,14.517L20.257,14.522L20.266,14.517ZM29.42,14.488L29.444,14.502L29.42,14.488ZM20.308,14.493L20.297,14.499L20.308,14.493ZM29.381,14.466L29.405,14.48L29.381,14.466ZM20.349,14.47L20.337,14.477L20.349,14.47ZM29.341,14.444L29.366,14.457L29.341,14.444ZM20.389,14.447L20.377,14.454L20.389,14.447ZM29.302,14.422L29.327,14.436L29.302,14.422ZM20.43,14.425L20.418,14.431L20.43,14.425ZM29.262,14.4L29.288,14.414L29.262,14.4ZM20.47,14.403L20.46,14.408L20.47,14.403ZM29.222,14.379L29.249,14.393L29.222,14.379ZM20.51,14.381L20.503,14.385L20.51,14.381ZM29.186,14.359L29.143,14.337C29.157,14.344 29.171,14.352 29.186,14.359ZM29.077,14.303L29.105,14.317L29.077,14.303ZM20.638,14.314L20.636,14.315L20.638,14.314ZM29.038,14.283L29.064,14.296L29.038,14.283ZM20.685,14.29L20.677,14.294L20.685,14.29ZM28.998,14.263L29.023,14.276L28.998,14.263ZM20.729,14.268L20.719,14.273L20.729,14.268ZM28.957,14.243L28.982,14.255L28.957,14.243ZM20.772,14.247L20.761,14.252L20.772,14.247ZM28.916,14.223L28.941,14.235L28.916,14.223ZM20.814,14.226L20.803,14.232L20.814,14.226ZM28.875,14.203L28.899,14.215L28.875,14.203ZM20.857,14.206L20.846,14.211L20.857,14.206ZM28.833,14.184L28.858,14.195L28.833,14.184ZM20.899,14.186L20.891,14.19L20.899,14.186ZM28.791,14.164L28.817,14.176L28.791,14.164ZM20.942,14.166L20.937,14.168L20.942,14.166ZM28.752,14.146L28.707,14.126C28.722,14.133 28.737,14.139 28.752,14.146ZM28.643,14.097L28.667,14.108L28.643,14.097ZM21.075,14.106L21.074,14.106L21.075,14.106ZM28.601,14.079L28.624,14.089L28.601,14.079ZM21.124,14.084L21.117,14.087L21.124,14.084ZM28.558,14.061L28.581,14.071L28.558,14.061ZM21.17,14.065L21.161,14.068L21.17,14.065ZM28.516,14.043L28.538,14.052L28.516,14.043ZM21.215,14.046L21.204,14.05L21.215,14.046ZM28.473,14.025L28.494,14.034L28.473,14.025ZM21.259,14.027L21.249,14.031L21.259,14.027ZM28.429,14.007L28.451,14.016L28.429,14.007ZM21.303,14.009L21.294,14.013L21.303,14.009ZM28.386,13.989L28.406,13.998L28.386,13.989ZM21.347,13.991L21.341,13.994L21.347,13.991ZM28.342,13.972L28.361,13.979L28.342,13.972ZM21.392,13.973L21.391,13.974L21.392,13.973ZM28.298,13.955L28.311,13.96L28.298,13.955ZM28.243,13.934L28.254,13.938L28.243,13.934ZM28.195,13.915L28.21,13.921L28.195,13.915ZM21.531,13.92L21.53,13.92L21.531,13.92ZM28.149,13.898L28.165,13.904L28.149,13.898ZM21.581,13.901L21.575,13.903L21.581,13.901ZM28.103,13.882L28.119,13.888L28.103,13.882ZM21.629,13.884L21.62,13.887L21.629,13.884ZM28.058,13.866L28.074,13.871L28.058,13.866ZM21.675,13.867L21.666,13.87L21.675,13.867ZM28.013,13.85L28.028,13.855L28.013,13.85ZM21.721,13.851L21.713,13.854L21.721,13.851ZM27.968,13.834L27.981,13.839L27.968,13.834ZM21.767,13.835L21.76,13.837L21.767,13.835ZM27.922,13.819L27.932,13.822L27.922,13.819ZM21.813,13.819L21.809,13.821L21.813,13.819ZM27.877,13.803L27.879,13.804L27.877,13.803Z" style="fill:none;stroke:black;stroke-width:1.22px;"/>
            </g>
            <g transform="matrix(55.8954,0,0,49.2765,-878.032,-330.791)">
                <path d="M25.128,19.358C24.963,19.04 24.868,18.67 24.868,18.275C24.868,17.096 25.713,16.138 26.753,16.138C27.793,16.138 28.637,17.096 28.637,18.275C28.637,19.031 28.291,19.696 27.768,20.076C27.128,19.668 26.188,19.396 25.128,19.358ZM21.969,20.076C21.446,19.696 21.099,19.031 21.099,18.275C21.099,17.096 21.944,16.138 22.984,16.138C24.024,16.138 24.868,17.096 24.868,18.275C24.868,18.67 24.774,19.04 24.609,19.358C23.549,19.396 22.609,19.668 21.969,20.076Z" style="fill:none;stroke:black;stroke-width:1.22px;"/>
            </g>
            <g transform="matrix(1,0,0,1,-53.1856,50.0357)">
                <ellipse cx="565.186" cy="671.455" rx="210.672" ry="98.631" style="fill:none;stroke:black;stroke-width:63.81px;"/>
            </g>
            <g transform="matrix(51.2,0,0,45.1371,0.670978,88.9676)">
                <path d="M12.057,13.791C12.057,13.668 11.958,13.568 11.835,13.568L8.139,13.568C8.016,13.568 7.916,13.668 7.916,13.791L7.916,14.236C7.916,14.359 8.016,14.458 8.139,14.458L11.835,14.458C11.958,14.458 12.057,14.359 12.057,14.236L12.057,13.791Z"/>
            </g>
        </g>
    </g>
</svg>
