<?xml version="1.0" encoding="UTF-8" standalone="no"?>
<!DOCTYPE svg PUBLIC "-//W3C//DTD SVG 1.1//EN" "http://www.w3.org/Graphics/SVG/1.1/DTD/svg11.dtd">
<svg width="100%" height="100%" viewBox="0 0 225 380" version="1.1" xmlns="http://www.w3.org/2000/svg" xmlns:xlink="http://www.w3.org/1999/xlink" xml:space="preserve" xmlns:serif="http://www.serif.com/" style="fill-rule:evenodd;clip-rule:evenodd;stroke-linecap:round;stroke-linejoin:round;stroke-miterlimit:1.5;">
    <g transform="matrix(1.08128,0,0,2.01589,-56.8278,-120.797)">
        <rect x="52.556" y="59.922" width="208.087" height="188.503" style="fill:rgb(154,178,191);stroke:rgb(5,5,5);stroke-width:1.24px;"/>
    </g>
    <g id="Seg08" transform="matrix(1,0,0,1,100.77,-10.8954)">
        <g transform="matrix(1,0,0,1,1.24349,262.237)">
            <path d="M93.696,110.396C93.696,110.06 93.754,109.762 93.871,109.5C93.988,109.239 94.144,109.015 94.34,108.828C94.536,108.642 94.762,108.499 95.019,108.401C95.276,108.303 95.544,108.254 95.824,108.254C96.104,108.254 96.372,108.303 96.629,108.401C96.886,108.499 97.112,108.642 97.308,108.828C97.504,109.015 97.66,109.239 97.777,109.5C97.894,109.762 97.952,110.06 97.952,110.396L97.952,116.248C97.952,116.584 97.894,116.883 97.777,117.144C97.66,117.406 97.504,117.63 97.308,117.816C97.112,118.003 96.886,118.145 96.629,118.243C96.372,118.341 96.104,118.39 95.824,118.39C95.544,118.39 95.276,118.341 95.019,118.243C94.762,118.145 94.536,118.003 94.34,117.816C94.144,117.63 93.988,117.406 93.871,117.144C93.754,116.883 93.696,116.584 93.696,116.248L93.696,110.396ZM95.124,116.248C95.124,116.454 95.189,116.624 95.32,116.759C95.451,116.895 95.619,116.962 95.824,116.962C96.029,116.962 96.197,116.895 96.328,116.759C96.459,116.624 96.524,116.454 96.524,116.248L96.524,110.396C96.524,110.191 96.459,110.021 96.328,109.885C96.197,109.75 96.029,109.682 95.824,109.682C95.619,109.682 95.451,109.75 95.32,109.885C95.189,110.021 95.124,110.191 95.124,110.396L95.124,116.248Z" style="fill:rgb(5,5,5);fill-rule:nonzero;"/>
            <path d="M101.732,110.382C101.732,110.186 101.662,110.021 101.522,109.885C101.382,109.75 101.219,109.682 101.032,109.682C100.845,109.682 100.682,109.75 100.542,109.885C100.402,110.021 100.332,110.186 100.332,110.382L100.332,111.838C100.332,112.034 100.402,112.2 100.542,112.335C100.682,112.471 100.845,112.538 101.032,112.538C101.219,112.538 101.382,112.471 101.522,112.335C101.662,112.2 101.732,112.034 101.732,111.838L101.732,110.382ZM98.904,110.942C98.904,110.672 98.913,110.441 98.932,110.249C98.951,110.058 98.983,109.892 99.03,109.752C99.077,109.612 99.13,109.486 99.191,109.374C99.252,109.262 99.329,109.146 99.422,109.024C99.609,108.782 99.842,108.593 100.122,108.457C100.402,108.322 100.705,108.254 101.032,108.254C101.359,108.254 101.662,108.322 101.942,108.457C102.222,108.593 102.455,108.782 102.642,109.024C102.735,109.146 102.815,109.262 102.88,109.374C102.945,109.486 103.001,109.612 103.048,109.752C103.095,109.892 103.125,110.058 103.139,110.249C103.153,110.441 103.16,110.672 103.16,110.942C103.16,111.241 103.155,111.493 103.146,111.698C103.137,111.904 103.109,112.086 103.062,112.244C103.015,112.403 102.943,112.545 102.845,112.671C102.747,112.797 102.614,112.93 102.446,113.07C102.614,113.201 102.747,113.332 102.845,113.462C102.943,113.593 103.015,113.747 103.062,113.924C103.109,114.102 103.137,114.319 103.146,114.575C103.155,114.832 103.16,115.147 103.16,115.52C103.16,115.828 103.153,116.083 103.139,116.283C103.125,116.484 103.104,116.659 103.076,116.808C103.048,116.958 103.008,117.084 102.957,117.186C102.906,117.289 102.843,117.396 102.768,117.508C102.609,117.751 102.385,117.959 102.096,118.131C101.807,118.304 101.452,118.39 101.032,118.39C100.612,118.39 100.257,118.304 99.968,118.131C99.679,117.959 99.455,117.751 99.296,117.508C99.221,117.396 99.158,117.289 99.107,117.186C99.056,117.084 99.016,116.958 98.988,116.808C98.96,116.659 98.939,116.484 98.925,116.283C98.911,116.083 98.904,115.828 98.904,115.52C98.904,115.147 98.909,114.832 98.918,114.575C98.927,114.319 98.955,114.102 99.002,113.924C99.049,113.747 99.121,113.593 99.219,113.462C99.317,113.332 99.45,113.201 99.618,113.07C99.45,112.93 99.317,112.797 99.219,112.671C99.121,112.545 99.049,112.403 99.002,112.244C98.955,112.086 98.927,111.904 98.918,111.698C98.909,111.493 98.904,111.241 98.904,110.942ZM101.732,114.302C101.732,114.106 101.662,113.941 101.522,113.805C101.382,113.67 101.219,113.602 101.032,113.602C100.845,113.602 100.682,113.67 100.542,113.805C100.402,113.941 100.332,114.106 100.332,114.302L100.332,116.262C100.332,116.458 100.402,116.624 100.542,116.759C100.682,116.895 100.845,116.962 101.032,116.962C101.219,116.962 101.382,116.895 101.522,116.759C101.662,116.624 101.732,116.458 101.732,116.262L101.732,114.302Z" style="fill:rgb(5,5,5);fill-rule:nonzero;"/>
        </g>
        <g transform="matrix(1,0,0,1,1.24349,262.237)">
            <text x="93.22px" y="118.306px" style="font-family:'DINCondensed-Bold', 'DIN Condensed';font-weight:700;font-stretch:condensed;font-size:14px;fill:rgb(5,5,5);">08</text>
        </g>
        <g id="Active-ledbutton" serif:id="Active#ledbutton" transform="matrix(1,0,0,1,-1.67651,44.5955)">
            <circle cx="101.308" cy="310.24" r="9.898" style="fill:rgb(115,115,115);"/>
        </g>
        <g id="Length-knob-2" serif:id="Length#knob$2" transform="matrix(0.758898,0,0,0.758898,56.7181,90.1068)">
            <circle cx="55.661" cy="308.513" r="7.929"/>
        </g>
        <g id="Ticks-slider" serif:id="Ticks#slider" transform="matrix(0.0833124,0,0,3.87469,85.8853,-502.23)">
            <rect x="92.975" y="182.872" width="144.036" height="20.647" style="fill:rgb(217,217,217);"/>
        </g>
        <g id="Pitch-slider" serif:id="Pitch#slider" transform="matrix(0.0833124,0,0,3.87469,85.8853,-593.858)">
            <rect x="92.975" y="182.872" width="144.036" height="20.647" style="fill:rgb(217,217,217);"/>
        </g>
        <g id="Chance-knob-1" serif:id="Chance#knob$1" transform="matrix(0.758898,0,0,0.758898,56.7181,-131.893)">
            <circle cx="55.661" cy="308.513" r="7.929"/>
        </g>
        <g id="Current-led" serif:id="Current#led" transform="matrix(1,0,0,1,57.4648,-267.444)">
            <circle cx="42.167" cy="335.861" r="3.82" style="fill:rgb(230,230,230);"/>
        </g>
        <g transform="matrix(1,0,0,1,1.24349,-60.7634)">
            <path d="M93.696,110.396C93.696,110.06 93.754,109.762 93.871,109.5C93.988,109.239 94.144,109.015 94.34,108.828C94.536,108.642 94.762,108.499 95.019,108.401C95.276,108.303 95.544,108.254 95.824,108.254C96.104,108.254 96.372,108.303 96.629,108.401C96.886,108.499 97.112,108.642 97.308,108.828C97.504,109.015 97.66,109.239 97.777,109.5C97.894,109.762 97.952,110.06 97.952,110.396L97.952,116.248C97.952,116.584 97.894,116.883 97.777,117.144C97.66,117.406 97.504,117.63 97.308,117.816C97.112,118.003 96.886,118.145 96.629,118.243C96.372,118.341 96.104,118.39 95.824,118.39C95.544,118.39 95.276,118.341 95.019,118.243C94.762,118.145 94.536,118.003 94.34,117.816C94.144,117.63 93.988,117.406 93.871,117.144C93.754,116.883 93.696,116.584 93.696,116.248L93.696,110.396ZM95.124,116.248C95.124,116.454 95.189,116.624 95.32,116.759C95.451,116.895 95.619,116.962 95.824,116.962C96.029,116.962 96.197,116.895 96.328,116.759C96.459,116.624 96.524,116.454 96.524,116.248L96.524,110.396C96.524,110.191 96.459,110.021 96.328,109.885C96.197,109.75 96.029,109.682 95.824,109.682C95.619,109.682 95.451,109.75 95.32,109.885C95.189,110.021 95.124,110.191 95.124,110.396L95.124,116.248Z" style="fill:rgb(5,5,5);fill-rule:nonzero;"/>
            <path d="M101.732,110.382C101.732,110.186 101.662,110.021 101.522,109.885C101.382,109.75 101.219,109.682 101.032,109.682C100.845,109.682 100.682,109.75 100.542,109.885C100.402,110.021 100.332,110.186 100.332,110.382L100.332,111.838C100.332,112.034 100.402,112.2 100.542,112.335C100.682,112.471 100.845,112.538 101.032,112.538C101.219,112.538 101.382,112.471 101.522,112.335C101.662,112.2 101.732,112.034 101.732,111.838L101.732,110.382ZM98.904,110.942C98.904,110.672 98.913,110.441 98.932,110.249C98.951,110.058 98.983,109.892 99.03,109.752C99.077,109.612 99.13,109.486 99.191,109.374C99.252,109.262 99.329,109.146 99.422,109.024C99.609,108.782 99.842,108.593 100.122,108.457C100.402,108.322 100.705,108.254 101.032,108.254C101.359,108.254 101.662,108.322 101.942,108.457C102.222,108.593 102.455,108.782 102.642,109.024C102.735,109.146 102.815,109.262 102.88,109.374C102.945,109.486 103.001,109.612 103.048,109.752C103.095,109.892 103.125,110.058 103.139,110.249C103.153,110.441 103.16,110.672 103.16,110.942C103.16,111.241 103.155,111.493 103.146,111.698C103.137,111.904 103.109,112.086 103.062,112.244C103.015,112.403 102.943,112.545 102.845,112.671C102.747,112.797 102.614,112.93 102.446,113.07C102.614,113.201 102.747,113.332 102.845,113.462C102.943,113.593 103.015,113.747 103.062,113.924C103.109,114.102 103.137,114.319 103.146,114.575C103.155,114.832 103.16,115.147 103.16,115.52C103.16,115.828 103.153,116.083 103.139,116.283C103.125,116.484 103.104,116.659 103.076,116.808C103.048,116.958 103.008,117.084 102.957,117.186C102.906,117.289 102.843,117.396 102.768,117.508C102.609,117.751 102.385,117.959 102.096,118.131C101.807,118.304 101.452,118.39 101.032,118.39C100.612,118.39 100.257,118.304 99.968,118.131C99.679,117.959 99.455,117.751 99.296,117.508C99.221,117.396 99.158,117.289 99.107,117.186C99.056,117.084 99.016,116.958 98.988,116.808C98.96,116.659 98.939,116.484 98.925,116.283C98.911,116.083 98.904,115.828 98.904,115.52C98.904,115.147 98.909,114.832 98.918,114.575C98.927,114.319 98.955,114.102 99.002,113.924C99.049,113.747 99.121,113.593 99.219,113.462C99.317,113.332 99.45,113.201 99.618,113.07C99.45,112.93 99.317,112.797 99.219,112.671C99.121,112.545 99.049,112.403 99.002,112.244C98.955,112.086 98.927,111.904 98.918,111.698C98.909,111.493 98.904,111.241 98.904,110.942ZM101.732,114.302C101.732,114.106 101.662,113.941 101.522,113.805C101.382,113.67 101.219,113.602 101.032,113.602C100.845,113.602 100.682,113.67 100.542,113.805C100.402,113.941 100.332,114.106 100.332,114.302L100.332,116.262C100.332,116.458 100.402,116.624 100.542,116.759C100.682,116.895 100.845,116.962 101.032,116.962C101.219,116.962 101.382,116.895 101.522,116.759C101.662,116.624 101.732,116.458 101.732,116.262L101.732,114.302Z" style="fill:rgb(5,5,5);fill-rule:nonzero;"/>
        </g>
        <g transform="matrix(1,0,0,1,1.24349,-60.7634)">
            <text x="93.22px" y="118.306px" style="font-family:'DINCondensed-Bold', 'DIN Condensed';font-weight:700;font-stretch:condensed;font-size:14px;fill:rgb(5,5,5);">08</text>
        </g>
    </g>
    <g id="Seg07" transform="matrix(1,0,0,1,74.984,-10.8954)">
        <g transform="matrix(1,0,0,1,1.24349,262.237)">
            <path d="M93.696,110.396C93.696,110.06 93.754,109.762 93.871,109.5C93.988,109.239 94.144,109.015 94.34,108.828C94.536,108.642 94.762,108.499 95.019,108.401C95.276,108.303 95.544,108.254 95.824,108.254C96.104,108.254 96.372,108.303 96.629,108.401C96.886,108.499 97.112,108.642 97.308,108.828C97.504,109.015 97.66,109.239 97.777,109.5C97.894,109.762 97.952,110.06 97.952,110.396L97.952,116.248C97.952,116.584 97.894,116.883 97.777,117.144C97.66,117.406 97.504,117.63 97.308,117.816C97.112,118.003 96.886,118.145 96.629,118.243C96.372,118.341 96.104,118.39 95.824,118.39C95.544,118.39 95.276,118.341 95.019,118.243C94.762,118.145 94.536,118.003 94.34,117.816C94.144,117.63 93.988,117.406 93.871,117.144C93.754,116.883 93.696,116.584 93.696,116.248L93.696,110.396ZM95.124,116.248C95.124,116.454 95.189,116.624 95.32,116.759C95.451,116.895 95.619,116.962 95.824,116.962C96.029,116.962 96.197,116.895 96.328,116.759C96.459,116.624 96.524,116.454 96.524,116.248L96.524,110.396C96.524,110.191 96.459,110.021 96.328,109.885C96.197,109.75 96.029,109.682 95.824,109.682C95.619,109.682 95.451,109.75 95.32,109.885C95.189,110.021 95.124,110.191 95.124,110.396L95.124,116.248Z" style="fill:rgb(5,5,5);fill-rule:nonzero;"/>
            <path d="M99.226,118.306L101.732,109.682L100.164,109.682L100.164,110.83L98.904,110.83L98.904,108.338L103.16,108.338L103.16,109.766L100.738,118.306L99.226,118.306Z" style="fill:rgb(5,5,5);fill-rule:nonzero;"/>
        </g>
        <g transform="matrix(1,0,0,1,1.24349,262.237)">
            <text x="93.22px" y="118.306px" style="font-family:'DINCondensed-Bold', 'DIN Condensed';font-weight:700;font-stretch:condensed;font-size:14px;fill:rgb(5,5,5);">07</text>
        </g>
        <g id="Active-ledbutton1" serif:id="Active#ledbutton" transform="matrix(1,0,0,1,-1.67651,44.5955)">
            <circle cx="101.308" cy="310.24" r="9.898" style="fill:rgb(115,115,115);"/>
        </g>
        <g id="Length-knob-21" serif:id="Length#knob$2" transform="matrix(0.758898,0,0,0.758898,56.7181,73.1068)">
            <circle cx="55.661" cy="308.513" r="7.929"/>
        </g>
        <g id="Ticks-slider1" serif:id="Ticks#slider" transform="matrix(0.0833124,0,0,3.87469,85.8853,-502.23)">
            <rect x="92.975" y="182.872" width="144.036" height="20.647" style="fill:rgb(217,217,217);"/>
        </g>
        <g id="Pitch-slider1" serif:id="Pitch#slider" transform="matrix(0.0833124,0,0,3.87469,85.8853,-593.858)">
            <rect x="92.975" y="182.872" width="144.036" height="20.647" style="fill:rgb(217,217,217);"/>
        </g>
        <g id="Chance-knob-11" serif:id="Chance#knob$1" transform="matrix(0.758898,0,0,0.758898,56.7181,-148.893)">
            <circle cx="55.661" cy="308.513" r="7.929"/>
        </g>
        <g id="Current-led1" serif:id="Current#led" transform="matrix(1,0,0,1,57.4648,-267.444)">
            <circle cx="42.167" cy="335.861" r="3.82" style="fill:rgb(230,230,230);"/>
        </g>
        <g transform="matrix(1,0,0,1,1.24349,-60.7634)">
            <path d="M93.696,110.396C93.696,110.06 93.754,109.762 93.871,109.5C93.988,109.239 94.144,109.015 94.34,108.828C94.536,108.642 94.762,108.499 95.019,108.401C95.276,108.303 95.544,108.254 95.824,108.254C96.104,108.254 96.372,108.303 96.629,108.401C96.886,108.499 97.112,108.642 97.308,108.828C97.504,109.015 97.66,109.239 97.777,109.5C97.894,109.762 97.952,110.06 97.952,110.396L97.952,116.248C97.952,116.584 97.894,116.883 97.777,117.144C97.66,117.406 97.504,117.63 97.308,117.816C97.112,118.003 96.886,118.145 96.629,118.243C96.372,118.341 96.104,118.39 95.824,118.39C95.544,118.39 95.276,118.341 95.019,118.243C94.762,118.145 94.536,118.003 94.34,117.816C94.144,117.63 93.988,117.406 93.871,117.144C93.754,116.883 93.696,116.584 93.696,116.248L93.696,110.396ZM95.124,116.248C95.124,116.454 95.189,116.624 95.32,116.759C95.451,116.895 95.619,116.962 95.824,116.962C96.029,116.962 96.197,116.895 96.328,116.759C96.459,116.624 96.524,116.454 96.524,116.248L96.524,110.396C96.524,110.191 96.459,110.021 96.328,109.885C96.197,109.75 96.029,109.682 95.824,109.682C95.619,109.682 95.451,109.75 95.32,109.885C95.189,110.021 95.124,110.191 95.124,110.396L95.124,116.248Z" style="fill:rgb(5,5,5);fill-rule:nonzero;"/>
            <path d="M99.226,118.306L101.732,109.682L100.164,109.682L100.164,110.83L98.904,110.83L98.904,108.338L103.16,108.338L103.16,109.766L100.738,118.306L99.226,118.306Z" style="fill:rgb(5,5,5);fill-rule:nonzero;"/>
        </g>
        <g transform="matrix(1,0,0,1,1.24349,-60.7634)">
            <text x="93.22px" y="118.306px" style="font-family:'DINCondensed-Bold', 'DIN Condensed';font-weight:700;font-stretch:condensed;font-size:14px;fill:rgb(5,5,5);">07</text>
        </g>
    </g>
    <g id="Seg06" transform="matrix(1,0,0,1,49.1978,-10.8954)">
        <g transform="matrix(1,0,0,1,1.24349,262.237)">
            <path d="M93.696,110.396C93.696,110.06 93.754,109.762 93.871,109.5C93.988,109.239 94.144,109.015 94.34,108.828C94.536,108.642 94.762,108.499 95.019,108.401C95.276,108.303 95.544,108.254 95.824,108.254C96.104,108.254 96.372,108.303 96.629,108.401C96.886,108.499 97.112,108.642 97.308,108.828C97.504,109.015 97.66,109.239 97.777,109.5C97.894,109.762 97.952,110.06 97.952,110.396L97.952,116.248C97.952,116.584 97.894,116.883 97.777,117.144C97.66,117.406 97.504,117.63 97.308,117.816C97.112,118.003 96.886,118.145 96.629,118.243C96.372,118.341 96.104,118.39 95.824,118.39C95.544,118.39 95.276,118.341 95.019,118.243C94.762,118.145 94.536,118.003 94.34,117.816C94.144,117.63 93.988,117.406 93.871,117.144C93.754,116.883 93.696,116.584 93.696,116.248L93.696,110.396ZM95.124,116.248C95.124,116.454 95.189,116.624 95.32,116.759C95.451,116.895 95.619,116.962 95.824,116.962C96.029,116.962 96.197,116.895 96.328,116.759C96.459,116.624 96.524,116.454 96.524,116.248L96.524,110.396C96.524,110.191 96.459,110.021 96.328,109.885C96.197,109.75 96.029,109.682 95.824,109.682C95.619,109.682 95.451,109.75 95.32,109.885C95.189,110.021 95.124,110.191 95.124,110.396L95.124,116.248Z" style="fill:rgb(5,5,5);fill-rule:nonzero;"/>
            <path d="M102.642,108.338L101.018,112.524L101.046,112.552C101.093,112.515 101.165,112.485 101.263,112.461C101.361,112.438 101.489,112.426 101.648,112.426C101.9,112.426 102.133,112.487 102.348,112.608C102.563,112.73 102.731,112.884 102.852,113.07C102.917,113.173 102.969,113.276 103.006,113.378C103.043,113.481 103.076,113.616 103.104,113.784C103.123,113.952 103.137,114.165 103.146,114.421C103.155,114.678 103.16,115.002 103.16,115.394C103.16,115.721 103.155,115.989 103.146,116.199C103.137,116.409 103.123,116.584 103.104,116.724C103.076,116.874 103.041,117 102.999,117.102C102.957,117.205 102.903,117.312 102.838,117.424C102.651,117.732 102.402,117.97 102.089,118.138C101.776,118.306 101.424,118.39 101.032,118.39C100.64,118.39 100.29,118.304 99.982,118.131C99.674,117.959 99.427,117.723 99.24,117.424C99.165,117.312 99.107,117.205 99.065,117.102C99.023,117 98.993,116.874 98.974,116.724C98.946,116.584 98.927,116.409 98.918,116.199C98.909,115.989 98.904,115.721 98.904,115.394C98.904,115.086 98.909,114.832 98.918,114.631C98.927,114.431 98.941,114.256 98.96,114.106C98.979,113.966 99.007,113.838 99.044,113.721C99.081,113.605 99.123,113.481 99.17,113.35L101.046,108.338L102.642,108.338ZM101.732,114.4C101.732,114.186 101.662,114.013 101.522,113.882C101.382,113.752 101.219,113.686 101.032,113.686C100.845,113.686 100.682,113.752 100.542,113.882C100.402,114.013 100.332,114.186 100.332,114.4L100.332,116.248C100.332,116.463 100.402,116.636 100.542,116.766C100.682,116.897 100.845,116.962 101.032,116.962C101.219,116.962 101.382,116.897 101.522,116.766C101.662,116.636 101.732,116.463 101.732,116.248L101.732,114.4Z" style="fill:rgb(5,5,5);fill-rule:nonzero;"/>
        </g>
        <g transform="matrix(1,0,0,1,1.24349,262.237)">
            <text x="93.22px" y="118.306px" style="font-family:'DINCondensed-Bold', 'DIN Condensed';font-weight:700;font-stretch:condensed;font-size:14px;fill:rgb(5,5,5);">06</text>
        </g>
        <g id="Active-ledbutton2" serif:id="Active#ledbutton" transform="matrix(1,0,0,1,-1.67651,44.5955)">
            <circle cx="101.308" cy="310.24" r="9.898" style="fill:rgb(115,115,115);"/>
        </g>
        <g id="Length-knob-22" serif:id="Length#knob$2" transform="matrix(0.758898,0,0,0.758898,56.7181,90.1068)">
            <circle cx="55.661" cy="308.513" r="7.929"/>
        </g>
        <g id="Ticks-slider2" serif:id="Ticks#slider" transform="matrix(0.0833124,0,0,3.87469,85.8853,-502.23)">
            <rect x="92.975" y="182.872" width="144.036" height="20.647" style="fill:rgb(217,217,217);"/>
        </g>
        <g id="Pitch-slider2" serif:id="Pitch#slider" transform="matrix(0.0833124,0,0,3.87469,85.8853,-593.858)">
            <rect x="92.975" y="182.872" width="144.036" height="20.647" style="fill:rgb(217,217,217);"/>
        </g>
        <g id="Chance-knob-12" serif:id="Chance#knob$1" transform="matrix(0.758898,0,0,0.758898,56.7181,-131.893)">
            <circle cx="55.661" cy="308.513" r="7.929"/>
        </g>
        <g id="Current-led2" serif:id="Current#led" transform="matrix(1,0,0,1,57.4648,-267.444)">
            <circle cx="42.167" cy="335.861" r="3.82" style="fill:rgb(230,230,230);"/>
        </g>
        <g transform="matrix(1,0,0,1,1.24349,-60.7634)">
            <path d="M93.696,110.396C93.696,110.06 93.754,109.762 93.871,109.5C93.988,109.239 94.144,109.015 94.34,108.828C94.536,108.642 94.762,108.499 95.019,108.401C95.276,108.303 95.544,108.254 95.824,108.254C96.104,108.254 96.372,108.303 96.629,108.401C96.886,108.499 97.112,108.642 97.308,108.828C97.504,109.015 97.66,109.239 97.777,109.5C97.894,109.762 97.952,110.06 97.952,110.396L97.952,116.248C97.952,116.584 97.894,116.883 97.777,117.144C97.66,117.406 97.504,117.63 97.308,117.816C97.112,118.003 96.886,118.145 96.629,118.243C96.372,118.341 96.104,118.39 95.824,118.39C95.544,118.39 95.276,118.341 95.019,118.243C94.762,118.145 94.536,118.003 94.34,117.816C94.144,117.63 93.988,117.406 93.871,117.144C93.754,116.883 93.696,116.584 93.696,116.248L93.696,110.396ZM95.124,116.248C95.124,116.454 95.189,116.624 95.32,116.759C95.451,116.895 95.619,116.962 95.824,116.962C96.029,116.962 96.197,116.895 96.328,116.759C96.459,116.624 96.524,116.454 96.524,116.248L96.524,110.396C96.524,110.191 96.459,110.021 96.328,109.885C96.197,109.75 96.029,109.682 95.824,109.682C95.619,109.682 95.451,109.75 95.32,109.885C95.189,110.021 95.124,110.191 95.124,110.396L95.124,116.248Z" style="fill:rgb(5,5,5);fill-rule:nonzero;"/>
            <path d="M102.642,108.338L101.018,112.524L101.046,112.552C101.093,112.515 101.165,112.485 101.263,112.461C101.361,112.438 101.489,112.426 101.648,112.426C101.9,112.426 102.133,112.487 102.348,112.608C102.563,112.73 102.731,112.884 102.852,113.07C102.917,113.173 102.969,113.276 103.006,113.378C103.043,113.481 103.076,113.616 103.104,113.784C103.123,113.952 103.137,114.165 103.146,114.421C103.155,114.678 103.16,115.002 103.16,115.394C103.16,115.721 103.155,115.989 103.146,116.199C103.137,116.409 103.123,116.584 103.104,116.724C103.076,116.874 103.041,117 102.999,117.102C102.957,117.205 102.903,117.312 102.838,117.424C102.651,117.732 102.402,117.97 102.089,118.138C101.776,118.306 101.424,118.39 101.032,118.39C100.64,118.39 100.29,118.304 99.982,118.131C99.674,117.959 99.427,117.723 99.24,117.424C99.165,117.312 99.107,117.205 99.065,117.102C99.023,117 98.993,116.874 98.974,116.724C98.946,116.584 98.927,116.409 98.918,116.199C98.909,115.989 98.904,115.721 98.904,115.394C98.904,115.086 98.909,114.832 98.918,114.631C98.927,114.431 98.941,114.256 98.96,114.106C98.979,113.966 99.007,113.838 99.044,113.721C99.081,113.605 99.123,113.481 99.17,113.35L101.046,108.338L102.642,108.338ZM101.732,114.4C101.732,114.186 101.662,114.013 101.522,113.882C101.382,113.752 101.219,113.686 101.032,113.686C100.845,113.686 100.682,113.752 100.542,113.882C100.402,114.013 100.332,114.186 100.332,114.4L100.332,116.248C100.332,116.463 100.402,116.636 100.542,116.766C100.682,116.897 100.845,116.962 101.032,116.962C101.219,116.962 101.382,116.897 101.522,116.766C101.662,116.636 101.732,116.463 101.732,116.248L101.732,114.4Z" style="fill:rgb(5,5,5);fill-rule:nonzero;"/>
        </g>
        <g transform="matrix(1,0,0,1,1.24349,-60.7634)">
            <text x="93.22px" y="118.306px" style="font-family:'DINCondensed-Bold', 'DIN Condensed';font-weight:700;font-stretch:condensed;font-size:14px;fill:rgb(5,5,5);">06</text>
        </g>
    </g>
    <g id="Seg05" transform="matrix(1,0,0,1,23.4116,-10.8954)">
        <g transform="matrix(1,0,0,1,1.24349,262.237)">
            <path d="M93.696,110.396C93.696,110.06 93.754,109.762 93.871,109.5C93.988,109.239 94.144,109.015 94.34,108.828C94.536,108.642 94.762,108.499 95.019,108.401C95.276,108.303 95.544,108.254 95.824,108.254C96.104,108.254 96.372,108.303 96.629,108.401C96.886,108.499 97.112,108.642 97.308,108.828C97.504,109.015 97.66,109.239 97.777,109.5C97.894,109.762 97.952,110.06 97.952,110.396L97.952,116.248C97.952,116.584 97.894,116.883 97.777,117.144C97.66,117.406 97.504,117.63 97.308,117.816C97.112,118.003 96.886,118.145 96.629,118.243C96.372,118.341 96.104,118.39 95.824,118.39C95.544,118.39 95.276,118.341 95.019,118.243C94.762,118.145 94.536,118.003 94.34,117.816C94.144,117.63 93.988,117.406 93.871,117.144C93.754,116.883 93.696,116.584 93.696,116.248L93.696,110.396ZM95.124,116.248C95.124,116.454 95.189,116.624 95.32,116.759C95.451,116.895 95.619,116.962 95.824,116.962C96.029,116.962 96.197,116.895 96.328,116.759C96.459,116.624 96.524,116.454 96.524,116.248L96.524,110.396C96.524,110.191 96.459,110.021 96.328,109.885C96.197,109.75 96.029,109.682 95.824,109.682C95.619,109.682 95.451,109.75 95.32,109.885C95.189,110.021 95.124,110.191 95.124,110.396L95.124,116.248Z" style="fill:rgb(5,5,5);fill-rule:nonzero;"/>
            <path d="M103.16,108.338L103.16,109.682L100.332,109.682L100.332,112.37C100.463,112.24 100.631,112.13 100.836,112.041C101.041,111.953 101.27,111.908 101.522,111.908C102.007,111.908 102.402,112.055 102.705,112.349C103.008,112.643 103.16,113.084 103.16,113.672L103.16,116.248C103.16,116.584 103.102,116.883 102.985,117.144C102.868,117.406 102.712,117.63 102.516,117.816C102.32,118.003 102.094,118.145 101.837,118.243C101.58,118.341 101.312,118.39 101.032,118.39C100.752,118.39 100.484,118.341 100.227,118.243C99.97,118.145 99.744,118.003 99.548,117.816C99.352,117.63 99.196,117.406 99.079,117.144C98.962,116.883 98.904,116.584 98.904,116.248L98.904,115.828L100.332,115.828L100.332,116.192C100.332,116.435 100.4,116.624 100.535,116.759C100.67,116.895 100.845,116.962 101.06,116.962C101.275,116.962 101.44,116.897 101.557,116.766C101.674,116.636 101.732,116.454 101.732,116.22L101.732,113.882C101.732,113.686 101.669,113.518 101.543,113.378C101.417,113.238 101.256,113.168 101.06,113.168C100.939,113.168 100.836,113.189 100.752,113.231C100.668,113.273 100.598,113.322 100.542,113.378C100.486,113.434 100.444,113.495 100.416,113.56C100.369,113.644 100.341,113.696 100.332,113.714L99.072,113.714L99.072,108.338L103.16,108.338Z" style="fill:rgb(5,5,5);fill-rule:nonzero;"/>
        </g>
        <g transform="matrix(1,0,0,1,1.24349,262.237)">
            <text x="93.22px" y="118.306px" style="font-family:'DINCondensed-Bold', 'DIN Condensed';font-weight:700;font-stretch:condensed;font-size:14px;fill:rgb(5,5,5);">05</text>
        </g>
        <g id="Active-ledbutton3" serif:id="Active#ledbutton" transform="matrix(1,0,0,1,-1.67651,44.5955)">
            <circle cx="101.308" cy="310.24" r="9.898" style="fill:rgb(115,115,115);"/>
        </g>
        <g id="Length-knob-23" serif:id="Length#knob$2" transform="matrix(0.758898,0,0,0.758898,56.7181,73.1068)">
            <circle cx="55.661" cy="308.513" r="7.929"/>
        </g>
        <g id="Ticks-slider3" serif:id="Ticks#slider" transform="matrix(0.0833124,0,0,3.87469,85.8853,-502.23)">
            <rect x="92.975" y="182.872" width="144.036" height="20.647" style="fill:rgb(217,217,217);"/>
        </g>
        <g id="Pitch-slider3" serif:id="Pitch#slider" transform="matrix(0.0833124,0,0,3.87469,85.8853,-593.858)">
            <rect x="92.975" y="182.872" width="144.036" height="20.647" style="fill:rgb(217,217,217);"/>
        </g>
        <g id="Chance-knob-13" serif:id="Chance#knob$1" transform="matrix(0.758898,0,0,0.758898,56.7181,-148.893)">
            <circle cx="55.661" cy="308.513" r="7.929"/>
        </g>
        <g id="Current-led3" serif:id="Current#led" transform="matrix(1,0,0,1,57.4648,-267.444)">
            <circle cx="42.167" cy="335.861" r="3.82" style="fill:rgb(230,230,230);"/>
        </g>
        <g transform="matrix(1,0,0,1,1.24349,-60.7634)">
            <path d="M93.696,110.396C93.696,110.06 93.754,109.762 93.871,109.5C93.988,109.239 94.144,109.015 94.34,108.828C94.536,108.642 94.762,108.499 95.019,108.401C95.276,108.303 95.544,108.254 95.824,108.254C96.104,108.254 96.372,108.303 96.629,108.401C96.886,108.499 97.112,108.642 97.308,108.828C97.504,109.015 97.66,109.239 97.777,109.5C97.894,109.762 97.952,110.06 97.952,110.396L97.952,116.248C97.952,116.584 97.894,116.883 97.777,117.144C97.66,117.406 97.504,117.63 97.308,117.816C97.112,118.003 96.886,118.145 96.629,118.243C96.372,118.341 96.104,118.39 95.824,118.39C95.544,118.39 95.276,118.341 95.019,118.243C94.762,118.145 94.536,118.003 94.34,117.816C94.144,117.63 93.988,117.406 93.871,117.144C93.754,116.883 93.696,116.584 93.696,116.248L93.696,110.396ZM95.124,116.248C95.124,116.454 95.189,116.624 95.32,116.759C95.451,116.895 95.619,116.962 95.824,116.962C96.029,116.962 96.197,116.895 96.328,116.759C96.459,116.624 96.524,116.454 96.524,116.248L96.524,110.396C96.524,110.191 96.459,110.021 96.328,109.885C96.197,109.75 96.029,109.682 95.824,109.682C95.619,109.682 95.451,109.75 95.32,109.885C95.189,110.021 95.124,110.191 95.124,110.396L95.124,116.248Z" style="fill:rgb(5,5,5);fill-rule:nonzero;"/>
            <path d="M103.16,108.338L103.16,109.682L100.332,109.682L100.332,112.37C100.463,112.24 100.631,112.13 100.836,112.041C101.041,111.953 101.27,111.908 101.522,111.908C102.007,111.908 102.402,112.055 102.705,112.349C103.008,112.643 103.16,113.084 103.16,113.672L103.16,116.248C103.16,116.584 103.102,116.883 102.985,117.144C102.868,117.406 102.712,117.63 102.516,117.816C102.32,118.003 102.094,118.145 101.837,118.243C101.58,118.341 101.312,118.39 101.032,118.39C100.752,118.39 100.484,118.341 100.227,118.243C99.97,118.145 99.744,118.003 99.548,117.816C99.352,117.63 99.196,117.406 99.079,117.144C98.962,116.883 98.904,116.584 98.904,116.248L98.904,115.828L100.332,115.828L100.332,116.192C100.332,116.435 100.4,116.624 100.535,116.759C100.67,116.895 100.845,116.962 101.06,116.962C101.275,116.962 101.44,116.897 101.557,116.766C101.674,116.636 101.732,116.454 101.732,116.22L101.732,113.882C101.732,113.686 101.669,113.518 101.543,113.378C101.417,113.238 101.256,113.168 101.06,113.168C100.939,113.168 100.836,113.189 100.752,113.231C100.668,113.273 100.598,113.322 100.542,113.378C100.486,113.434 100.444,113.495 100.416,113.56C100.369,113.644 100.341,113.696 100.332,113.714L99.072,113.714L99.072,108.338L103.16,108.338Z" style="fill:rgb(5,5,5);fill-rule:nonzero;"/>
        </g>
        <g transform="matrix(1,0,0,1,1.24349,-60.7634)">
            <text x="93.22px" y="118.306px" style="font-family:'DINCondensed-Bold', 'DIN Condensed';font-weight:700;font-stretch:condensed;font-size:14px;fill:rgb(5,5,5);">05</text>
        </g>
    </g>
    <g id="Seg04" transform="matrix(1,0,0,1,-2.37463,-10.8954)">
        <g transform="matrix(1,0,0,1,1.24349,262.237)">
            <path d="M93.696,110.396C93.696,110.06 93.754,109.762 93.871,109.5C93.988,109.239 94.144,109.015 94.34,108.828C94.536,108.642 94.762,108.499 95.019,108.401C95.276,108.303 95.544,108.254 95.824,108.254C96.104,108.254 96.372,108.303 96.629,108.401C96.886,108.499 97.112,108.642 97.308,108.828C97.504,109.015 97.66,109.239 97.777,109.5C97.894,109.762 97.952,110.06 97.952,110.396L97.952,116.248C97.952,116.584 97.894,116.883 97.777,117.144C97.66,117.406 97.504,117.63 97.308,117.816C97.112,118.003 96.886,118.145 96.629,118.243C96.372,118.341 96.104,118.39 95.824,118.39C95.544,118.39 95.276,118.341 95.019,118.243C94.762,118.145 94.536,118.003 94.34,117.816C94.144,117.63 93.988,117.406 93.871,117.144C93.754,116.883 93.696,116.584 93.696,116.248L93.696,110.396ZM95.124,116.248C95.124,116.454 95.189,116.624 95.32,116.759C95.451,116.895 95.619,116.962 95.824,116.962C96.029,116.962 96.197,116.895 96.328,116.759C96.459,116.624 96.524,116.454 96.524,116.248L96.524,110.396C96.524,110.191 96.459,110.021 96.328,109.885C96.197,109.75 96.029,109.682 95.824,109.682C95.619,109.682 95.451,109.75 95.32,109.885C95.189,110.021 95.124,110.191 95.124,110.396L95.124,116.248Z" style="fill:rgb(5,5,5);fill-rule:nonzero;"/>
            <path d="M101.396,118.306L101.396,116.822L98.554,116.822L98.554,115.478L100.612,108.338L102.124,108.338L99.982,115.478L101.396,115.478L101.396,112.636L102.824,112.636L102.824,115.478L103.51,115.478L103.51,116.822L102.824,116.822L102.824,118.306L101.396,118.306Z" style="fill:rgb(5,5,5);fill-rule:nonzero;"/>
        </g>
        <g transform="matrix(1,0,0,1,1.24349,262.237)">
            <text x="93.22px" y="118.306px" style="font-family:'DINCondensed-Bold', 'DIN Condensed';font-weight:700;font-stretch:condensed;font-size:14px;fill:rgb(5,5,5);">04</text>
        </g>
        <g id="Active-ledbutton4" serif:id="Active#ledbutton" transform="matrix(1,0,0,1,-1.67651,44.5955)">
            <circle cx="101.308" cy="310.24" r="9.898" style="fill:rgb(115,115,115);"/>
        </g>
        <g id="Length-knob-24" serif:id="Length#knob$2" transform="matrix(0.758898,0,0,0.758898,56.7181,90.1068)">
            <circle cx="55.661" cy="308.513" r="7.929"/>
        </g>
        <g id="Ticks-slider4" serif:id="Ticks#slider" transform="matrix(0.0833124,0,0,3.87469,85.8853,-502.23)">
            <rect x="92.975" y="182.872" width="144.036" height="20.647" style="fill:rgb(217,217,217);"/>
        </g>
        <g id="Pitch-slider4" serif:id="Pitch#slider" transform="matrix(0.0833124,0,0,3.87469,85.8853,-593.858)">
            <rect x="92.975" y="182.872" width="144.036" height="20.647" style="fill:rgb(217,217,217);"/>
        </g>
        <g id="Chance-knob-14" serif:id="Chance#knob$1" transform="matrix(0.758898,0,0,0.758898,56.7181,-131.893)">
            <circle cx="55.661" cy="308.513" r="7.929"/>
        </g>
        <g id="Current-led4" serif:id="Current#led" transform="matrix(1,0,0,1,57.4648,-267.444)">
            <circle cx="42.167" cy="335.861" r="3.82" style="fill:rgb(230,230,230);"/>
        </g>
        <g transform="matrix(1,0,0,1,1.24349,-60.7634)">
            <path d="M93.696,110.396C93.696,110.06 93.754,109.762 93.871,109.5C93.988,109.239 94.144,109.015 94.34,108.828C94.536,108.642 94.762,108.499 95.019,108.401C95.276,108.303 95.544,108.254 95.824,108.254C96.104,108.254 96.372,108.303 96.629,108.401C96.886,108.499 97.112,108.642 97.308,108.828C97.504,109.015 97.66,109.239 97.777,109.5C97.894,109.762 97.952,110.06 97.952,110.396L97.952,116.248C97.952,116.584 97.894,116.883 97.777,117.144C97.66,117.406 97.504,117.63 97.308,117.816C97.112,118.003 96.886,118.145 96.629,118.243C96.372,118.341 96.104,118.39 95.824,118.39C95.544,118.39 95.276,118.341 95.019,118.243C94.762,118.145 94.536,118.003 94.34,117.816C94.144,117.63 93.988,117.406 93.871,117.144C93.754,116.883 93.696,116.584 93.696,116.248L93.696,110.396ZM95.124,116.248C95.124,116.454 95.189,116.624 95.32,116.759C95.451,116.895 95.619,116.962 95.824,116.962C96.029,116.962 96.197,116.895 96.328,116.759C96.459,116.624 96.524,116.454 96.524,116.248L96.524,110.396C96.524,110.191 96.459,110.021 96.328,109.885C96.197,109.75 96.029,109.682 95.824,109.682C95.619,109.682 95.451,109.75 95.32,109.885C95.189,110.021 95.124,110.191 95.124,110.396L95.124,116.248Z" style="fill:rgb(5,5,5);fill-rule:nonzero;"/>
            <path d="M101.396,118.306L101.396,116.822L98.554,116.822L98.554,115.478L100.612,108.338L102.124,108.338L99.982,115.478L101.396,115.478L101.396,112.636L102.824,112.636L102.824,115.478L103.51,115.478L103.51,116.822L102.824,116.822L102.824,118.306L101.396,118.306Z" style="fill:rgb(5,5,5);fill-rule:nonzero;"/>
        </g>
        <g transform="matrix(1,0,0,1,1.24349,-60.7634)">
            <text x="93.22px" y="118.306px" style="font-family:'DINCondensed-Bold', 'DIN Condensed';font-weight:700;font-stretch:condensed;font-size:14px;fill:rgb(5,5,5);">04</text>
        </g>
    </g>
    <g id="Seg03" transform="matrix(1,0,0,1,-28.1609,-10.8954)">
        <g transform="matrix(1,0,0,1,1.24349,262.237)">
            <path d="M93.696,110.396C93.696,110.06 93.754,109.762 93.871,109.5C93.988,109.239 94.144,109.015 94.34,108.828C94.536,108.642 94.762,108.499 95.019,108.401C95.276,108.303 95.544,108.254 95.824,108.254C96.104,108.254 96.372,108.303 96.629,108.401C96.886,108.499 97.112,108.642 97.308,108.828C97.504,109.015 97.66,109.239 97.777,109.5C97.894,109.762 97.952,110.06 97.952,110.396L97.952,116.248C97.952,116.584 97.894,116.883 97.777,117.144C97.66,117.406 97.504,117.63 97.308,117.816C97.112,118.003 96.886,118.145 96.629,118.243C96.372,118.341 96.104,118.39 95.824,118.39C95.544,118.39 95.276,118.341 95.019,118.243C94.762,118.145 94.536,118.003 94.34,117.816C94.144,117.63 93.988,117.406 93.871,117.144C93.754,116.883 93.696,116.584 93.696,116.248L93.696,110.396ZM95.124,116.248C95.124,116.454 95.189,116.624 95.32,116.759C95.451,116.895 95.619,116.962 95.824,116.962C96.029,116.962 96.197,116.895 96.328,116.759C96.459,116.624 96.524,116.454 96.524,116.248L96.524,110.396C96.524,110.191 96.459,110.021 96.328,109.885C96.197,109.75 96.029,109.682 95.824,109.682C95.619,109.682 95.451,109.75 95.32,109.885C95.189,110.021 95.124,110.191 95.124,110.396L95.124,116.248Z" style="fill:rgb(5,5,5);fill-rule:nonzero;"/>
            <path d="M100.598,112.538C101.027,112.538 101.324,112.487 101.487,112.384C101.65,112.282 101.732,112.044 101.732,111.67L101.732,110.382C101.732,110.177 101.669,110.009 101.543,109.878C101.417,109.748 101.247,109.682 101.032,109.682C100.78,109.682 100.6,109.762 100.493,109.92C100.386,110.079 100.332,110.233 100.332,110.382L100.332,111.194L98.904,111.194L98.904,110.368C98.904,110.079 98.96,109.804 99.072,109.542C99.184,109.281 99.338,109.057 99.534,108.87C99.73,108.684 99.959,108.534 100.22,108.422C100.481,108.31 100.761,108.254 101.06,108.254C101.452,108.254 101.776,108.331 102.033,108.485C102.29,108.639 102.483,108.796 102.614,108.954C102.707,109.066 102.789,109.178 102.859,109.29C102.929,109.402 102.987,109.538 103.034,109.696C103.118,110.004 103.16,110.462 103.16,111.068C103.16,111.414 103.153,111.694 103.139,111.908C103.125,112.123 103.09,112.3 103.034,112.44C102.969,112.59 102.878,112.716 102.761,112.818C102.644,112.921 102.483,113.033 102.278,113.154C102.502,113.294 102.672,113.425 102.789,113.546C102.906,113.668 102.992,113.808 103.048,113.966C103.104,114.134 103.137,114.333 103.146,114.561C103.155,114.79 103.16,115.082 103.16,115.436C103.16,115.763 103.153,116.034 103.139,116.248C103.125,116.463 103.104,116.64 103.076,116.78C103.048,116.93 103.011,117.056 102.964,117.158C102.917,117.261 102.857,117.368 102.782,117.48C102.605,117.742 102.378,117.959 102.103,118.131C101.828,118.304 101.466,118.39 101.018,118.39C100.794,118.39 100.556,118.353 100.304,118.278C100.052,118.204 99.823,118.082 99.618,117.914C99.413,117.746 99.242,117.527 99.107,117.256C98.972,116.986 98.904,116.654 98.904,116.262L98.904,115.45L100.332,115.45L100.332,116.192C100.332,116.416 100.395,116.601 100.521,116.745C100.647,116.89 100.817,116.962 101.032,116.962C101.247,116.962 101.417,116.89 101.543,116.745C101.669,116.601 101.732,116.407 101.732,116.164L101.732,114.736C101.732,114.344 101.657,114.088 101.508,113.966C101.424,113.892 101.31,113.845 101.165,113.826C101.02,113.808 100.831,113.798 100.598,113.798L100.598,112.538Z" style="fill:rgb(5,5,5);fill-rule:nonzero;"/>
        </g>
        <g transform="matrix(1,0,0,1,1.24349,262.237)">
            <text x="93.22px" y="118.306px" style="font-family:'DINCondensed-Bold', 'DIN Condensed';font-weight:700;font-stretch:condensed;font-size:14px;fill:rgb(5,5,5);">03</text>
        </g>
        <g id="Active-ledbutton5" serif:id="Active#ledbutton" transform="matrix(1,0,0,1,-1.67651,44.5955)">
            <circle cx="101.308" cy="310.24" r="9.898" style="fill:rgb(115,115,115);"/>
        </g>
        <g id="Length-knob-25" serif:id="Length#knob$2" transform="matrix(0.758898,0,0,0.758898,56.7181,73.1068)">
            <circle cx="55.661" cy="308.513" r="7.929"/>
        </g>
        <g id="Ticks-slider5" serif:id="Ticks#slider" transform="matrix(0.0833124,0,0,3.87469,85.8853,-502.23)">
            <rect x="92.975" y="182.872" width="144.036" height="20.647" style="fill:rgb(217,217,217);"/>
        </g>
        <g id="Pitch-slider5" serif:id="Pitch#slider" transform="matrix(0.0833124,0,0,3.87469,85.8853,-593.858)">
            <rect x="92.975" y="182.872" width="144.036" height="20.647" style="fill:rgb(217,217,217);"/>
        </g>
        <g id="Chance-knob-15" serif:id="Chance#knob$1" transform="matrix(0.758898,0,0,0.758898,56.7181,-148.893)">
            <circle cx="55.661" cy="308.513" r="7.929"/>
        </g>
        <g id="Current-led5" serif:id="Current#led" transform="matrix(1,0,0,1,57.4648,-267.444)">
            <circle cx="42.167" cy="335.861" r="3.82" style="fill:rgb(230,230,230);"/>
        </g>
        <g transform="matrix(1,0,0,1,1.24349,-60.7634)">
            <path d="M93.696,110.396C93.696,110.06 93.754,109.762 93.871,109.5C93.988,109.239 94.144,109.015 94.34,108.828C94.536,108.642 94.762,108.499 95.019,108.401C95.276,108.303 95.544,108.254 95.824,108.254C96.104,108.254 96.372,108.303 96.629,108.401C96.886,108.499 97.112,108.642 97.308,108.828C97.504,109.015 97.66,109.239 97.777,109.5C97.894,109.762 97.952,110.06 97.952,110.396L97.952,116.248C97.952,116.584 97.894,116.883 97.777,117.144C97.66,117.406 97.504,117.63 97.308,117.816C97.112,118.003 96.886,118.145 96.629,118.243C96.372,118.341 96.104,118.39 95.824,118.39C95.544,118.39 95.276,118.341 95.019,118.243C94.762,118.145 94.536,118.003 94.34,117.816C94.144,117.63 93.988,117.406 93.871,117.144C93.754,116.883 93.696,116.584 93.696,116.248L93.696,110.396ZM95.124,116.248C95.124,116.454 95.189,116.624 95.32,116.759C95.451,116.895 95.619,116.962 95.824,116.962C96.029,116.962 96.197,116.895 96.328,116.759C96.459,116.624 96.524,116.454 96.524,116.248L96.524,110.396C96.524,110.191 96.459,110.021 96.328,109.885C96.197,109.75 96.029,109.682 95.824,109.682C95.619,109.682 95.451,109.75 95.32,109.885C95.189,110.021 95.124,110.191 95.124,110.396L95.124,116.248Z" style="fill:rgb(5,5,5);fill-rule:nonzero;"/>
            <path d="M100.598,112.538C101.027,112.538 101.324,112.487 101.487,112.384C101.65,112.282 101.732,112.044 101.732,111.67L101.732,110.382C101.732,110.177 101.669,110.009 101.543,109.878C101.417,109.748 101.247,109.682 101.032,109.682C100.78,109.682 100.6,109.762 100.493,109.92C100.386,110.079 100.332,110.233 100.332,110.382L100.332,111.194L98.904,111.194L98.904,110.368C98.904,110.079 98.96,109.804 99.072,109.542C99.184,109.281 99.338,109.057 99.534,108.87C99.73,108.684 99.959,108.534 100.22,108.422C100.481,108.31 100.761,108.254 101.06,108.254C101.452,108.254 101.776,108.331 102.033,108.485C102.29,108.639 102.483,108.796 102.614,108.954C102.707,109.066 102.789,109.178 102.859,109.29C102.929,109.402 102.987,109.538 103.034,109.696C103.118,110.004 103.16,110.462 103.16,111.068C103.16,111.414 103.153,111.694 103.139,111.908C103.125,112.123 103.09,112.3 103.034,112.44C102.969,112.59 102.878,112.716 102.761,112.818C102.644,112.921 102.483,113.033 102.278,113.154C102.502,113.294 102.672,113.425 102.789,113.546C102.906,113.668 102.992,113.808 103.048,113.966C103.104,114.134 103.137,114.333 103.146,114.561C103.155,114.79 103.16,115.082 103.16,115.436C103.16,115.763 103.153,116.034 103.139,116.248C103.125,116.463 103.104,116.64 103.076,116.78C103.048,116.93 103.011,117.056 102.964,117.158C102.917,117.261 102.857,117.368 102.782,117.48C102.605,117.742 102.378,117.959 102.103,118.131C101.828,118.304 101.466,118.39 101.018,118.39C100.794,118.39 100.556,118.353 100.304,118.278C100.052,118.204 99.823,118.082 99.618,117.914C99.413,117.746 99.242,117.527 99.107,117.256C98.972,116.986 98.904,116.654 98.904,116.262L98.904,115.45L100.332,115.45L100.332,116.192C100.332,116.416 100.395,116.601 100.521,116.745C100.647,116.89 100.817,116.962 101.032,116.962C101.247,116.962 101.417,116.89 101.543,116.745C101.669,116.601 101.732,116.407 101.732,116.164L101.732,114.736C101.732,114.344 101.657,114.088 101.508,113.966C101.424,113.892 101.31,113.845 101.165,113.826C101.02,113.808 100.831,113.798 100.598,113.798L100.598,112.538Z" style="fill:rgb(5,5,5);fill-rule:nonzero;"/>
        </g>
        <g transform="matrix(1,0,0,1,1.24349,-60.7634)">
            <text x="93.22px" y="118.306px" style="font-family:'DINCondensed-Bold', 'DIN Condensed';font-weight:700;font-stretch:condensed;font-size:14px;fill:rgb(5,5,5);">03</text>
        </g>
    </g>
    <g id="Seg02" transform="matrix(1,0,0,1,-53.9471,-10.8954)">
        <g transform="matrix(1,0,0,1,1.24349,262.237)">
            <path d="M93.696,110.396C93.696,110.06 93.754,109.762 93.871,109.5C93.988,109.239 94.144,109.015 94.34,108.828C94.536,108.642 94.762,108.499 95.019,108.401C95.276,108.303 95.544,108.254 95.824,108.254C96.104,108.254 96.372,108.303 96.629,108.401C96.886,108.499 97.112,108.642 97.308,108.828C97.504,109.015 97.66,109.239 97.777,109.5C97.894,109.762 97.952,110.06 97.952,110.396L97.952,116.248C97.952,116.584 97.894,116.883 97.777,117.144C97.66,117.406 97.504,117.63 97.308,117.816C97.112,118.003 96.886,118.145 96.629,118.243C96.372,118.341 96.104,118.39 95.824,118.39C95.544,118.39 95.276,118.341 95.019,118.243C94.762,118.145 94.536,118.003 94.34,117.816C94.144,117.63 93.988,117.406 93.871,117.144C93.754,116.883 93.696,116.584 93.696,116.248L93.696,110.396ZM95.124,116.248C95.124,116.454 95.189,116.624 95.32,116.759C95.451,116.895 95.619,116.962 95.824,116.962C96.029,116.962 96.197,116.895 96.328,116.759C96.459,116.624 96.524,116.454 96.524,116.248L96.524,110.396C96.524,110.191 96.459,110.021 96.328,109.885C96.197,109.75 96.029,109.682 95.824,109.682C95.619,109.682 95.451,109.75 95.32,109.885C95.189,110.021 95.124,110.191 95.124,110.396L95.124,116.248Z" style="fill:rgb(5,5,5);fill-rule:nonzero;"/>
            <path d="M98.904,118.306L98.904,116.962L101.48,112.104C101.611,111.862 101.685,111.649 101.704,111.467C101.723,111.285 101.732,111.059 101.732,110.788C101.732,110.667 101.73,110.539 101.725,110.403C101.72,110.268 101.695,110.149 101.648,110.046C101.601,109.944 101.531,109.857 101.438,109.787C101.345,109.717 101.209,109.682 101.032,109.682C100.817,109.682 100.647,109.743 100.521,109.864C100.395,109.986 100.332,110.163 100.332,110.396L100.332,111.208L98.904,111.208L98.904,110.424C98.904,110.126 98.96,109.846 99.072,109.584C99.184,109.323 99.338,109.094 99.534,108.898C99.721,108.702 99.945,108.546 100.206,108.429C100.467,108.313 100.747,108.254 101.046,108.254C101.419,108.254 101.739,108.322 102.005,108.457C102.271,108.593 102.493,108.777 102.67,109.01C102.838,109.244 102.962,109.51 103.041,109.808C103.12,110.107 103.16,110.424 103.16,110.76C103.16,111.003 103.155,111.206 103.146,111.369C103.137,111.533 103.118,111.689 103.09,111.838C103.062,111.988 103.015,112.137 102.95,112.286C102.885,112.436 102.796,112.618 102.684,112.832L100.584,116.878L103.16,116.878L103.16,118.306L98.904,118.306Z" style="fill:rgb(5,5,5);fill-rule:nonzero;"/>
        </g>
        <g transform="matrix(1,0,0,1,1.24349,262.237)">
            <text x="93.22px" y="118.306px" style="font-family:'DINCondensed-Bold', 'DIN Condensed';font-weight:700;font-stretch:condensed;font-size:14px;fill:rgb(5,5,5);">02</text>
        </g>
        <g id="Active-ledbutton6" serif:id="Active#ledbutton" transform="matrix(1,0,0,1,-1.67651,44.5955)">
            <circle cx="101.308" cy="310.24" r="9.898" style="fill:rgb(115,115,115);"/>
        </g>
        <g id="Length-knob-26" serif:id="Length#knob$2" transform="matrix(0.758898,0,0,0.758898,56.7181,90.1068)">
            <circle cx="55.661" cy="308.513" r="7.929"/>
        </g>
        <g id="Ticks-slider6" serif:id="Ticks#slider" transform="matrix(0.0833124,0,0,3.87469,85.8853,-502.23)">
            <rect x="92.975" y="182.872" width="144.036" height="20.647" style="fill:rgb(217,217,217);"/>
        </g>
        <g id="Pitch-slider6" serif:id="Pitch#slider" transform="matrix(0.0833124,0,0,3.87469,85.8853,-593.858)">
            <rect x="92.975" y="182.872" width="144.036" height="20.647" style="fill:rgb(217,217,217);"/>
        </g>
        <g id="Chance-knob-16" serif:id="Chance#knob$1" transform="matrix(0.758898,0,0,0.758898,56.7181,-131.893)">
            <circle cx="55.661" cy="308.513" r="7.929"/>
        </g>
        <g id="Current-led6" serif:id="Current#led" transform="matrix(1,0,0,1,57.4648,-267.444)">
            <circle cx="42.167" cy="335.861" r="3.82" style="fill:rgb(230,230,230);"/>
        </g>
        <g transform="matrix(1,0,0,1,1.24349,-60.7634)">
            <path d="M93.696,110.396C93.696,110.06 93.754,109.762 93.871,109.5C93.988,109.239 94.144,109.015 94.34,108.828C94.536,108.642 94.762,108.499 95.019,108.401C95.276,108.303 95.544,108.254 95.824,108.254C96.104,108.254 96.372,108.303 96.629,108.401C96.886,108.499 97.112,108.642 97.308,108.828C97.504,109.015 97.66,109.239 97.777,109.5C97.894,109.762 97.952,110.06 97.952,110.396L97.952,116.248C97.952,116.584 97.894,116.883 97.777,117.144C97.66,117.406 97.504,117.63 97.308,117.816C97.112,118.003 96.886,118.145 96.629,118.243C96.372,118.341 96.104,118.39 95.824,118.39C95.544,118.39 95.276,118.341 95.019,118.243C94.762,118.145 94.536,118.003 94.34,117.816C94.144,117.63 93.988,117.406 93.871,117.144C93.754,116.883 93.696,116.584 93.696,116.248L93.696,110.396ZM95.124,116.248C95.124,116.454 95.189,116.624 95.32,116.759C95.451,116.895 95.619,116.962 95.824,116.962C96.029,116.962 96.197,116.895 96.328,116.759C96.459,116.624 96.524,116.454 96.524,116.248L96.524,110.396C96.524,110.191 96.459,110.021 96.328,109.885C96.197,109.75 96.029,109.682 95.824,109.682C95.619,109.682 95.451,109.75 95.32,109.885C95.189,110.021 95.124,110.191 95.124,110.396L95.124,116.248Z" style="fill:rgb(5,5,5);fill-rule:nonzero;"/>
            <path d="M98.904,118.306L98.904,116.962L101.48,112.104C101.611,111.862 101.685,111.649 101.704,111.467C101.723,111.285 101.732,111.059 101.732,110.788C101.732,110.667 101.73,110.539 101.725,110.403C101.72,110.268 101.695,110.149 101.648,110.046C101.601,109.944 101.531,109.857 101.438,109.787C101.345,109.717 101.209,109.682 101.032,109.682C100.817,109.682 100.647,109.743 100.521,109.864C100.395,109.986 100.332,110.163 100.332,110.396L100.332,111.208L98.904,111.208L98.904,110.424C98.904,110.126 98.96,109.846 99.072,109.584C99.184,109.323 99.338,109.094 99.534,108.898C99.721,108.702 99.945,108.546 100.206,108.429C100.467,108.313 100.747,108.254 101.046,108.254C101.419,108.254 101.739,108.322 102.005,108.457C102.271,108.593 102.493,108.777 102.67,109.01C102.838,109.244 102.962,109.51 103.041,109.808C103.12,110.107 103.16,110.424 103.16,110.76C103.16,111.003 103.155,111.206 103.146,111.369C103.137,111.533 103.118,111.689 103.09,111.838C103.062,111.988 103.015,112.137 102.95,112.286C102.885,112.436 102.796,112.618 102.684,112.832L100.584,116.878L103.16,116.878L103.16,118.306L98.904,118.306Z" style="fill:rgb(5,5,5);fill-rule:nonzero;"/>
        </g>
        <g transform="matrix(1,0,0,1,1.24349,-60.7634)">
            <text x="93.22px" y="118.306px" style="font-family:'DINCondensed-Bold', 'DIN Condensed';font-weight:700;font-stretch:condensed;font-size:14px;fill:rgb(5,5,5);">02</text>
        </g>
    </g>
    <g id="Seg01" transform="matrix(1,0,0,1,-79.7333,-10.8954)">
        <g transform="matrix(1,0,0,1,1.24349,262.237)">
            <path d="M93.696,110.396C93.696,110.06 93.754,109.762 93.871,109.5C93.988,109.239 94.144,109.015 94.34,108.828C94.536,108.642 94.762,108.499 95.019,108.401C95.276,108.303 95.544,108.254 95.824,108.254C96.104,108.254 96.372,108.303 96.629,108.401C96.886,108.499 97.112,108.642 97.308,108.828C97.504,109.015 97.66,109.239 97.777,109.5C97.894,109.762 97.952,110.06 97.952,110.396L97.952,116.248C97.952,116.584 97.894,116.883 97.777,117.144C97.66,117.406 97.504,117.63 97.308,117.816C97.112,118.003 96.886,118.145 96.629,118.243C96.372,118.341 96.104,118.39 95.824,118.39C95.544,118.39 95.276,118.341 95.019,118.243C94.762,118.145 94.536,118.003 94.34,117.816C94.144,117.63 93.988,117.406 93.871,117.144C93.754,116.883 93.696,116.584 93.696,116.248L93.696,110.396ZM95.124,116.248C95.124,116.454 95.189,116.624 95.32,116.759C95.451,116.895 95.619,116.962 95.824,116.962C96.029,116.962 96.197,116.895 96.328,116.759C96.459,116.624 96.524,116.454 96.524,116.248L96.524,110.396C96.524,110.191 96.459,110.021 96.328,109.885C96.197,109.75 96.029,109.682 95.824,109.682C95.619,109.682 95.451,109.75 95.32,109.885C95.189,110.021 95.124,110.191 95.124,110.396L95.124,116.248Z" style="fill:rgb(5,5,5);fill-rule:nonzero;"/>
            <path d="M100.598,118.306L100.598,109.85L99.17,110.9L99.17,109.388L100.598,108.338L102.026,108.338L102.026,118.306L100.598,118.306Z" style="fill:rgb(5,5,5);fill-rule:nonzero;"/>
        </g>
        <g transform="matrix(1,0,0,1,1.24349,262.237)">
            <text x="93.22px" y="118.306px" style="font-family:'DINCondensed-Bold', 'DIN Condensed';font-weight:700;font-stretch:condensed;font-size:14px;fill:rgb(5,5,5);">01</text>
        </g>
        <g id="Active-ledbutton7" serif:id="Active#ledbutton" transform="matrix(1,0,0,1,-1.67651,44.5955)">
            <circle cx="101.308" cy="310.24" r="9.898" style="fill:rgb(115,115,115);"/>
        </g>
        <g id="Length-knob-27" serif:id="Length#knob$2" transform="matrix(0.758898,0,0,0.758898,56.7181,73.1068)">
            <circle cx="55.661" cy="308.513" r="7.929"/>
        </g>
        <g id="Ticks-slider7" serif:id="Ticks#slider" transform="matrix(0.0833124,0,0,3.87469,85.8853,-502.23)">
            <rect x="92.975" y="182.872" width="144.036" height="20.647" style="fill:rgb(217,217,217);"/>
        </g>
        <g id="Pitch-slider7" serif:id="Pitch#slider" transform="matrix(0.0833124,0,0,3.87469,85.8853,-593.858)">
            <rect x="92.975" y="182.872" width="144.036" height="20.647" style="fill:rgb(217,217,217);"/>
        </g>
        <g id="Chance-knob-17" serif:id="Chance#knob$1" transform="matrix(0.758898,0,0,0.758898,56.7181,-148.893)">
            <circle cx="55.661" cy="308.513" r="7.929"/>
        </g>
        <g id="Current-led7" serif:id="Current#led" transform="matrix(1,0,0,1,57.4648,-267.444)">
            <circle cx="42.167" cy="335.861" r="3.82" style="fill:rgb(230,230,230);"/>
        </g>
        <g transform="matrix(1,0,0,1,1.24349,-60.7634)">
            <path d="M93.696,110.396C93.696,110.06 93.754,109.762 93.871,109.5C93.988,109.239 94.144,109.015 94.34,108.828C94.536,108.642 94.762,108.499 95.019,108.401C95.276,108.303 95.544,108.254 95.824,108.254C96.104,108.254 96.372,108.303 96.629,108.401C96.886,108.499 97.112,108.642 97.308,108.828C97.504,109.015 97.66,109.239 97.777,109.5C97.894,109.762 97.952,110.06 97.952,110.396L97.952,116.248C97.952,116.584 97.894,116.883 97.777,117.144C97.66,117.406 97.504,117.63 97.308,117.816C97.112,118.003 96.886,118.145 96.629,118.243C96.372,118.341 96.104,118.39 95.824,118.39C95.544,118.39 95.276,118.341 95.019,118.243C94.762,118.145 94.536,118.003 94.34,117.816C94.144,117.63 93.988,117.406 93.871,117.144C93.754,116.883 93.696,116.584 93.696,116.248L93.696,110.396ZM95.124,116.248C95.124,116.454 95.189,116.624 95.32,116.759C95.451,116.895 95.619,116.962 95.824,116.962C96.029,116.962 96.197,116.895 96.328,116.759C96.459,116.624 96.524,116.454 96.524,116.248L96.524,110.396C96.524,110.191 96.459,110.021 96.328,109.885C96.197,109.75 96.029,109.682 95.824,109.682C95.619,109.682 95.451,109.75 95.32,109.885C95.189,110.021 95.124,110.191 95.124,110.396L95.124,116.248Z" style="fill:rgb(5,5,5);fill-rule:nonzero;"/>
            <path d="M100.598,118.306L100.598,109.85L99.17,110.9L99.17,109.388L100.598,108.338L102.026,108.338L102.026,118.306L100.598,118.306Z" style="fill:rgb(5,5,5);fill-rule:nonzero;"/>
        </g>
        <g transform="matrix(1,0,0,1,1.24349,-60.7634)">
            <text x="93.22px" y="118.306px" style="font-family:'DINCondensed-Bold', 'DIN Condensed';font-weight:700;font-stretch:condensed;font-size:14px;fill:rgb(5,5,5);">01</text>
        </g>
    </g>
    <g id="Number-lcd-3" serif:id="Number#lcd$3" transform="matrix(0.77953,0,0,0.846667,-121.544,-236.564)">
        <rect x="173.071" y="291.218" width="64.141" height="28.346" style="fill:rgb(13,13,13);"/>
    </g>
    <g transform="matrix(0.816456,0,0,0.816456,101.093,-226.739)">
        <g transform="matrix(1,0,0,1,-65.4614,-49.9274)">
            <path d="M76.629,354.791C76.737,354.791 76.85,354.788 76.967,354.783C77.085,354.778 77.178,354.766 77.247,354.746C77.315,354.727 77.374,354.69 77.423,354.636C77.472,354.582 77.516,354.484 77.555,354.342C77.594,354.2 77.629,353.999 77.658,353.74C77.688,353.48 77.71,353.135 77.724,352.703C77.739,352.272 77.751,351.738 77.761,351.101C77.771,350.465 77.776,349.695 77.776,348.794C77.776,348.059 77.766,347.447 77.746,346.957C77.727,346.467 77.697,346.072 77.658,345.774C77.619,345.475 77.568,345.262 77.504,345.134C77.44,345.007 77.359,344.943 77.261,344.943C77.212,344.943 77.146,344.946 77.063,344.95C76.98,344.955 76.894,344.958 76.806,344.958C76.718,344.958 76.637,344.96 76.563,344.965C76.49,344.97 76.443,344.972 76.424,344.972C76.404,344.972 76.389,344.953 76.379,344.914C76.37,344.875 76.365,344.835 76.365,344.796C76.365,344.757 76.37,344.708 76.379,344.649C76.389,344.59 76.424,344.561 76.482,344.561L77.79,344.561C78.212,344.561 78.56,344.551 78.834,344.532C79.108,344.512 79.368,344.478 79.613,344.429C79.76,344.399 79.824,344.448 79.804,344.576C79.794,344.634 79.784,344.732 79.775,344.87C79.765,345.007 79.753,345.154 79.738,345.311C79.723,345.467 79.711,345.617 79.701,345.759C79.691,345.901 79.686,346.006 79.686,346.075C79.804,345.938 79.998,345.771 80.267,345.575C80.536,345.379 80.852,345.193 81.215,345.017C81.578,344.84 81.974,344.688 82.405,344.561C82.837,344.434 83.273,344.37 83.714,344.37C84.301,344.37 84.845,344.446 85.345,344.598C85.845,344.75 86.273,344.975 86.631,345.274C86.989,345.573 87.268,345.95 87.469,346.406C87.67,346.861 87.77,347.398 87.77,348.015C87.77,348.417 87.731,348.831 87.653,349.257C87.574,349.683 87.476,350.107 87.359,350.528C87.241,350.95 87.114,351.359 86.976,351.755C86.839,352.152 86.712,352.52 86.594,352.858C86.477,353.196 86.379,353.497 86.3,353.762C86.222,354.026 86.183,354.232 86.183,354.379C86.183,354.487 86.234,354.573 86.337,354.636C86.44,354.7 86.619,354.732 86.874,354.732C87.011,354.732 87.126,354.727 87.219,354.717C87.312,354.707 87.393,354.678 87.461,354.629C87.501,354.609 87.54,354.629 87.579,354.688C87.599,354.717 87.608,354.751 87.608,354.791C87.608,354.84 87.582,354.908 87.528,354.996C87.474,355.084 87.412,355.129 87.344,355.129L86.829,355.129C86.565,355.129 86.278,355.131 85.97,355.136C85.661,355.141 85.357,355.143 85.058,355.143L84.375,355.143C84.228,355.143 84.155,355.094 84.155,354.996C84.155,354.938 84.159,354.901 84.169,354.886C84.179,354.871 84.196,354.862 84.221,354.857C84.245,354.852 84.275,354.842 84.309,354.827C84.343,354.813 84.39,354.776 84.448,354.717C84.556,354.55 84.669,354.274 84.787,353.887C84.904,353.5 85.009,353.046 85.103,352.527C85.196,352.008 85.274,351.444 85.338,350.837C85.401,350.229 85.433,349.622 85.433,349.014C85.433,348.377 85.36,347.819 85.213,347.339C85.066,346.859 84.865,346.457 84.61,346.134C84.355,345.81 84.061,345.568 83.728,345.406C83.395,345.244 83.042,345.164 82.67,345.164C82.347,345.164 82.016,345.225 81.678,345.347C81.34,345.47 81.029,345.636 80.745,345.847C80.461,346.058 80.213,346.303 80.002,346.582C79.792,346.861 79.657,347.153 79.598,347.456C79.569,347.594 79.544,347.834 79.525,348.177C79.505,348.52 79.49,348.916 79.481,349.367C79.471,349.818 79.464,350.293 79.459,350.793C79.454,351.292 79.451,351.768 79.451,352.218C79.451,352.503 79.456,352.775 79.466,353.034C79.476,353.294 79.49,353.529 79.51,353.74C79.53,353.95 79.549,354.129 79.569,354.276C79.588,354.423 79.608,354.516 79.628,354.555C79.667,354.644 79.711,354.705 79.76,354.739C79.809,354.773 79.946,354.791 80.171,354.791C80.269,354.791 80.345,354.786 80.399,354.776C80.453,354.766 80.519,354.761 80.598,354.761C80.666,354.761 80.71,354.788 80.73,354.842C80.75,354.896 80.759,354.942 80.759,354.982C80.759,355.001 80.742,355.031 80.708,355.07C80.674,355.109 80.632,355.129 80.583,355.129C80.524,355.129 80.424,355.126 80.282,355.121C80.14,355.116 79.98,355.114 79.804,355.114C79.628,355.114 79.454,355.111 79.282,355.107C79.111,355.102 78.976,355.099 78.878,355.099C78.623,355.099 78.361,355.102 78.092,355.107C77.822,355.111 77.57,355.116 77.335,355.121C77.1,355.126 76.891,355.133 76.71,355.143C76.529,355.153 76.409,355.163 76.35,355.173C76.291,355.173 76.262,355.133 76.262,355.055C76.262,355.006 76.279,354.95 76.313,354.886C76.348,354.822 76.389,354.791 76.438,354.791L76.629,354.791Z" style="fill-rule:nonzero;"/>
            <path d="M94.443,353.923C94.335,354.012 94.188,354.129 94.002,354.276C93.816,354.423 93.6,354.57 93.355,354.717C93.11,354.864 92.841,354.989 92.547,355.092C92.253,355.195 91.944,355.246 91.621,355.246C91.131,355.246 90.695,355.16 90.313,354.989C89.931,354.817 89.61,354.587 89.35,354.298C89.09,354.009 88.895,353.669 88.762,353.277C88.63,352.885 88.564,352.468 88.564,352.027C88.564,351.508 88.642,351.048 88.799,350.646C88.956,350.244 89.149,349.894 89.38,349.595C89.61,349.296 89.857,349.046 90.122,348.845C90.386,348.644 90.626,348.485 90.842,348.368C90.94,348.309 91.065,348.245 91.217,348.177C91.369,348.108 91.535,348.044 91.716,347.986C91.898,347.927 92.094,347.875 92.304,347.831C92.515,347.787 92.733,347.765 92.958,347.765C93.38,347.765 93.789,347.819 94.186,347.927C94.583,348.035 94.933,348.204 95.237,348.434C95.54,348.664 95.785,348.96 95.971,349.323C96.158,349.686 96.251,350.122 96.251,350.631C96.251,351.043 96.175,351.43 96.023,351.792C95.871,352.155 95.692,352.478 95.486,352.762C95.281,353.046 95.077,353.289 94.876,353.49C94.676,353.691 94.531,353.835 94.443,353.923ZM92.782,354.159C93.341,354.159 93.769,353.948 94.068,353.527C94.367,353.105 94.516,352.459 94.516,351.586C94.516,351.146 94.455,350.736 94.333,350.359C94.21,349.982 94.039,349.651 93.818,349.367C93.598,349.083 93.341,348.86 93.047,348.698C92.753,348.537 92.434,348.456 92.091,348.456C91.846,348.456 91.614,348.52 91.393,348.647C91.173,348.774 90.979,348.958 90.813,349.198C90.646,349.438 90.514,349.73 90.416,350.073C90.318,350.416 90.269,350.803 90.269,351.234C90.269,351.694 90.34,352.106 90.482,352.468C90.624,352.831 90.813,353.137 91.048,353.387C91.283,353.637 91.55,353.828 91.849,353.96C92.148,354.092 92.459,354.159 92.782,354.159Z" style="fill-rule:nonzero;"/>
            <path d="M97.103,354.732C97.025,354.781 96.951,354.862 96.883,354.974C96.814,355.087 96.77,355.173 96.75,355.231C96.741,355.251 96.714,355.268 96.67,355.283C96.625,355.298 96.594,355.305 96.574,355.305C96.486,355.305 96.442,355.261 96.442,355.173C96.442,355.143 96.481,355.065 96.559,354.938C96.618,354.84 96.711,354.685 96.839,354.475C96.966,354.264 97.096,354.048 97.228,353.828C97.36,353.607 97.483,353.407 97.596,353.225C97.708,353.044 97.789,352.924 97.838,352.865C97.887,352.816 97.946,352.809 98.014,352.843C98.083,352.877 98.103,352.919 98.073,352.968C98.054,352.988 98.039,353.012 98.029,353.042C98.019,353.071 98.014,353.12 98.014,353.188C98.014,353.277 98.09,353.387 98.242,353.519C98.394,353.651 98.588,353.779 98.823,353.901C99.058,354.024 99.318,354.129 99.602,354.217C99.886,354.306 100.165,354.35 100.44,354.35C100.763,354.35 101.02,354.257 101.211,354.07C101.402,353.884 101.498,353.639 101.498,353.335C101.498,352.993 101.39,352.738 101.174,352.571C100.959,352.405 100.692,352.277 100.373,352.189C100.055,352.101 99.707,352.03 99.33,351.976C98.953,351.922 98.605,351.841 98.286,351.733C97.968,351.626 97.701,351.469 97.485,351.263C97.27,351.057 97.162,350.758 97.162,350.367C97.162,350.063 97.267,349.754 97.478,349.441C97.689,349.127 97.968,348.848 98.316,348.603C98.664,348.358 99.063,348.157 99.514,348C99.964,347.843 100.435,347.765 100.925,347.765C101.072,347.765 101.243,347.78 101.439,347.809C101.635,347.839 101.828,347.875 102.02,347.919C102.211,347.963 102.387,348.008 102.549,348.052C102.71,348.096 102.83,348.132 102.909,348.162C102.928,348.162 102.923,348.201 102.894,348.279C102.865,348.368 102.791,348.502 102.674,348.684C102.556,348.865 102.426,349.044 102.284,349.22C102.142,349.396 102.01,349.553 101.887,349.69C101.765,349.828 101.679,349.896 101.63,349.896L101.542,349.896C101.493,349.896 101.459,349.886 101.439,349.867C101.449,349.818 101.454,349.754 101.454,349.676C101.454,349.333 101.299,349.063 100.991,348.867C100.682,348.671 100.234,348.573 99.646,348.573C99.362,348.573 99.129,348.657 98.948,348.823C98.766,348.99 98.676,349.191 98.676,349.426C98.676,349.808 98.784,350.092 98.999,350.278C99.215,350.465 99.484,350.604 99.808,350.697C100.131,350.79 100.479,350.861 100.851,350.91C101.223,350.959 101.571,351.035 101.895,351.138C102.218,351.241 102.487,351.395 102.703,351.601C102.919,351.807 103.026,352.116 103.026,352.527C103.026,352.713 102.987,352.895 102.909,353.071C102.83,353.247 102.727,353.414 102.6,353.571C102.473,353.727 102.331,353.872 102.174,354.004C102.017,354.136 101.86,354.252 101.704,354.35C101.557,354.448 101.39,354.548 101.204,354.651C101.018,354.754 100.817,354.849 100.601,354.938C100.386,355.026 100.165,355.097 99.94,355.151C99.714,355.205 99.489,355.231 99.264,355.231C99.156,355.231 98.984,355.209 98.749,355.165C98.514,355.121 98.277,355.07 98.036,355.011C97.796,354.952 97.583,354.896 97.397,354.842C97.211,354.788 97.113,354.751 97.103,354.732Z" style="fill-rule:nonzero;"/>
            <path d="M106.319,355.026C106.338,355.026 106.375,355.018 106.429,355.004C106.483,354.989 106.519,354.982 106.539,354.982C106.598,354.982 106.635,355.021 106.649,355.099C106.664,355.178 106.652,355.231 106.613,355.261C106.534,355.32 106.436,355.388 106.319,355.467C106.201,355.545 106.071,355.626 105.929,355.709C105.787,355.792 105.647,355.873 105.51,355.952C105.373,356.03 105.255,356.099 105.157,356.157C105.099,356.187 105.013,356.233 104.9,356.297C104.788,356.361 104.675,356.424 104.562,356.488C104.45,356.552 104.344,356.606 104.246,356.65C104.148,356.694 104.085,356.716 104.055,356.716C104.006,356.716 103.96,356.691 103.916,356.642C103.871,356.593 103.849,356.549 103.849,356.51C103.849,356.461 103.854,356.434 103.864,356.429C103.874,356.424 103.893,356.412 103.923,356.393C103.982,356.353 104.063,356.304 104.165,356.246C104.268,356.187 104.344,356.059 104.393,355.863C104.432,355.697 104.472,355.442 104.511,355.099C104.55,354.756 104.584,354.357 104.614,353.901C104.643,353.446 104.668,352.946 104.687,352.402C104.707,351.858 104.717,351.297 104.717,350.719L104.717,350.095C104.717,349.894 104.712,349.715 104.702,349.558C104.682,349.558 104.606,349.551 104.474,349.536C104.342,349.521 104.202,349.504 104.055,349.485C103.908,349.465 103.773,349.443 103.651,349.419C103.528,349.394 103.467,349.362 103.467,349.323C103.467,349.303 103.465,349.274 103.46,349.235C103.455,349.196 103.492,349.137 103.57,349.058C103.649,348.98 103.744,348.892 103.857,348.794C103.969,348.696 104.08,348.598 104.187,348.5C104.295,348.402 104.396,348.314 104.489,348.235C104.582,348.157 104.653,348.093 104.702,348.044C104.712,347.75 104.719,347.483 104.724,347.243C104.729,347.003 104.741,346.785 104.761,346.589C104.78,346.344 104.819,346.151 104.878,346.009C104.937,345.867 105.02,345.732 105.128,345.604C105.246,345.467 105.476,345.293 105.819,345.083C106.162,344.872 106.568,344.654 107.039,344.429C107.205,344.35 107.35,344.282 107.472,344.223C107.595,344.164 107.715,344.118 107.832,344.083C107.95,344.049 108.073,344.022 108.2,344.002C108.327,343.983 108.474,343.973 108.641,343.973C109.072,343.973 109.442,344.02 109.75,344.113C110.059,344.206 110.297,344.326 110.463,344.473C110.463,344.512 110.4,344.595 110.272,344.723C110.145,344.85 109.998,344.995 109.831,345.156C109.665,345.318 109.498,345.482 109.332,345.649C109.165,345.815 109.043,345.957 108.964,346.075C108.935,346.124 108.891,346.139 108.832,346.119C108.773,346.099 108.754,346.07 108.773,346.031C108.793,345.992 108.81,345.952 108.825,345.913C108.839,345.874 108.847,345.825 108.847,345.766C108.847,345.502 108.714,345.271 108.45,345.075C108.185,344.879 107.847,344.781 107.436,344.781C107.2,344.781 107.004,344.852 106.848,344.995C106.691,345.137 106.568,345.374 106.48,345.707C106.402,346.021 106.346,346.386 106.311,346.802C106.277,347.219 106.25,347.75 106.23,348.397C106.368,348.426 106.546,348.448 106.767,348.463C106.987,348.478 107.225,348.485 107.48,348.485L108.031,348.485C108.232,348.485 108.428,348.48 108.619,348.471C108.81,348.461 108.991,348.448 109.163,348.434C109.334,348.419 109.474,348.397 109.581,348.368C109.621,348.407 109.64,348.451 109.64,348.5C109.503,348.706 109.288,348.875 108.994,349.007C108.7,349.139 108.384,349.247 108.046,349.33C107.708,349.414 107.369,349.47 107.031,349.499C106.693,349.529 106.417,349.543 106.201,349.543C106.201,349.71 106.196,349.943 106.186,350.242C106.177,350.54 106.167,350.861 106.157,351.204C106.147,351.547 106.14,351.893 106.135,352.24C106.13,352.588 106.128,352.899 106.128,353.174C106.128,353.399 106.13,353.62 106.135,353.835C106.14,354.051 106.147,354.242 106.157,354.408C106.167,354.575 106.184,354.715 106.208,354.827C106.233,354.94 106.27,355.006 106.319,355.026Z" style="fill-rule:nonzero;"/>
            <path d="M115.593,353.38C115.485,353.497 115.318,353.659 115.093,353.865C114.868,354.07 114.596,354.276 114.277,354.482C113.959,354.688 113.604,354.864 113.212,355.011C112.82,355.158 112.403,355.231 111.962,355.231C111.561,355.231 111.169,355.17 110.787,355.048C110.405,354.925 110.062,354.739 109.758,354.489C109.454,354.239 109.212,353.921 109.03,353.534C108.849,353.147 108.758,352.684 108.758,352.145C108.758,351.704 108.788,351.324 108.847,351.006C108.905,350.687 108.984,350.408 109.082,350.168C109.18,349.928 109.29,349.722 109.412,349.551C109.535,349.379 109.66,349.225 109.787,349.088C109.944,348.911 110.135,348.745 110.36,348.588C110.586,348.431 110.828,348.289 111.088,348.162C111.348,348.035 111.622,347.934 111.911,347.861C112.2,347.787 112.492,347.75 112.786,347.75C113.315,347.75 113.729,347.839 114.028,348.015C114.326,348.191 114.476,348.436 114.476,348.75C114.476,348.946 114.417,349.127 114.299,349.294C114.397,349.264 114.522,349.215 114.674,349.147C114.826,349.078 114.98,349.007 115.137,348.934C115.294,348.86 115.434,348.794 115.556,348.735C115.679,348.676 115.759,348.632 115.799,348.603C115.818,348.583 115.84,348.576 115.865,348.581C115.889,348.586 115.901,348.603 115.901,348.632C115.901,348.76 115.877,348.865 115.828,348.948C115.779,349.031 115.72,349.098 115.652,349.147C115.495,349.245 115.269,349.367 114.976,349.514C114.682,349.661 114.356,349.815 113.998,349.977C113.64,350.139 113.271,350.3 112.888,350.462C112.506,350.624 112.146,350.778 111.808,350.925C111.47,351.072 111.176,351.202 110.926,351.315C110.676,351.427 110.507,351.508 110.419,351.557C110.419,351.89 110.485,352.201 110.618,352.49C110.75,352.779 110.934,353.032 111.169,353.247C111.404,353.463 111.686,353.632 112.014,353.754C112.342,353.877 112.702,353.938 113.094,353.938C113.447,353.938 113.765,353.901 114.05,353.828C114.334,353.754 114.574,353.671 114.77,353.578C114.966,353.485 115.12,353.402 115.233,353.328C115.345,353.255 115.407,353.218 115.416,353.218C115.456,353.218 115.495,353.235 115.534,353.269C115.573,353.304 115.593,353.34 115.593,353.38ZM110.419,351.131C110.586,351.072 110.774,351.001 110.985,350.918C111.196,350.834 111.402,350.744 111.602,350.646C111.803,350.548 111.987,350.455 112.154,350.367C112.32,350.278 112.448,350.2 112.536,350.131C112.712,350.004 112.8,349.788 112.8,349.485C112.8,349.367 112.778,349.245 112.734,349.117C112.69,348.99 112.624,348.875 112.536,348.772C112.448,348.669 112.34,348.586 112.212,348.522C112.085,348.458 111.943,348.426 111.786,348.426C111.649,348.426 111.502,348.473 111.345,348.566C111.188,348.659 111.041,348.811 110.904,349.022C110.767,349.232 110.652,349.512 110.559,349.859C110.466,350.207 110.419,350.631 110.419,351.131Z" style="fill-rule:nonzero;"/>
            <path d="M122.413,348.853C122.305,348.941 122.177,349.051 122.03,349.183C121.883,349.316 121.729,349.443 121.567,349.566C121.406,349.688 121.242,349.793 121.075,349.882C120.908,349.97 120.747,350.014 120.59,350.014C120.453,350.014 120.33,349.982 120.223,349.918C120.115,349.855 120.014,349.786 119.921,349.712C119.828,349.639 119.738,349.57 119.649,349.507C119.561,349.443 119.468,349.411 119.37,349.411C119.106,349.411 118.883,349.519 118.701,349.735C118.52,349.95 118.373,350.224 118.26,350.558C118.148,350.891 118.064,351.253 118.011,351.645C117.957,352.037 117.93,352.414 117.93,352.777C117.93,353.081 117.942,353.328 117.966,353.519C117.991,353.71 118.028,353.862 118.077,353.975C118.126,354.087 118.192,354.163 118.275,354.203C118.358,354.242 118.459,354.261 118.576,354.261C118.704,354.261 118.841,354.242 118.988,354.203C119.017,354.193 119.039,354.212 119.054,354.261C119.069,354.31 119.076,354.35 119.076,354.379C119.076,354.399 119.061,354.421 119.032,354.445C119.003,354.47 118.983,354.482 118.973,354.482C118.758,354.57 118.537,354.666 118.312,354.768C118.087,354.871 117.9,354.957 117.753,355.026C117.616,355.084 117.452,355.148 117.261,355.217C117.07,355.285 116.906,355.32 116.769,355.32C116.612,355.32 116.482,355.295 116.379,355.246C116.276,355.197 116.225,355.148 116.225,355.099C116.225,355.05 116.237,355.006 116.262,354.967C116.286,354.928 116.308,354.854 116.328,354.746C116.347,354.599 116.369,354.426 116.394,354.225C116.418,354.024 116.443,353.806 116.467,353.571C116.492,353.335 116.511,353.093 116.526,352.843C116.541,352.593 116.548,352.346 116.548,352.101C116.548,351.552 116.531,351.087 116.497,350.705C116.462,350.322 116.401,350.014 116.313,349.779C116.225,349.543 116.105,349.374 115.953,349.272C115.801,349.169 115.608,349.117 115.372,349.117L115.24,349.117C115.201,349.117 115.162,349.122 115.122,349.132C115.064,349.132 115.034,349.103 115.034,349.044C115.034,348.985 115.064,348.941 115.122,348.911C115.23,348.843 115.397,348.742 115.622,348.61C115.848,348.478 116.08,348.351 116.32,348.228C116.56,348.106 116.793,347.995 117.018,347.897C117.244,347.799 117.41,347.75 117.518,347.75C117.646,347.75 117.753,347.792 117.842,347.875C117.93,347.959 117.996,348.064 118.04,348.191C118.084,348.319 118.116,348.463 118.136,348.625C118.155,348.787 118.165,348.946 118.165,349.103C118.165,349.22 118.162,349.343 118.158,349.47C118.153,349.597 118.15,349.735 118.15,349.882C118.591,349.235 118.988,348.733 119.341,348.375C119.693,348.017 120.027,347.839 120.34,347.839C120.458,347.839 120.573,347.888 120.686,347.986C120.798,348.083 120.918,348.194 121.046,348.316C121.173,348.439 121.305,348.549 121.442,348.647C121.58,348.745 121.722,348.794 121.869,348.794C121.996,348.794 122.089,348.779 122.148,348.75C122.207,348.72 122.256,348.696 122.295,348.676C122.373,348.676 122.413,348.73 122.413,348.838L122.413,348.853Z" style="fill-rule:nonzero;"/>
            <path d="M126.513,352.806C126.484,352.64 126.454,352.459 126.425,352.263C126.396,352.067 126.366,351.88 126.337,351.704C126.307,351.528 126.28,351.376 126.256,351.248C126.231,351.121 126.214,351.038 126.205,350.999C126.048,351.057 125.871,351.126 125.675,351.204C125.479,351.283 125.283,351.368 125.088,351.462C124.892,351.555 124.705,351.648 124.529,351.741C124.353,351.834 124.206,351.92 124.088,351.998C123.863,352.145 123.691,352.292 123.574,352.439C123.456,352.586 123.397,352.762 123.397,352.968C123.397,353.252 123.481,353.502 123.647,353.718C123.814,353.933 124.073,354.041 124.426,354.041C124.612,354.041 124.806,354.007 125.007,353.938C125.208,353.869 125.394,353.791 125.565,353.703C125.737,353.615 125.886,353.527 126.013,353.438C126.141,353.35 126.229,353.282 126.278,353.233C126.356,353.154 126.418,353.088 126.462,353.034C126.506,352.98 126.523,352.904 126.513,352.806ZM126.087,350.528C126.028,350.224 125.96,349.953 125.881,349.712C125.803,349.472 125.705,349.272 125.587,349.11C125.47,348.948 125.328,348.826 125.161,348.742C124.994,348.659 124.789,348.618 124.544,348.618C124.328,348.618 124.13,348.657 123.948,348.735C123.767,348.813 123.61,348.907 123.478,349.014C123.346,349.122 123.243,349.23 123.169,349.338C123.096,349.445 123.054,349.529 123.045,349.588C123.035,349.666 122.991,349.705 122.912,349.705C122.775,349.705 122.648,349.656 122.53,349.558C122.413,349.46 122.354,349.343 122.354,349.205C122.354,349.127 122.364,349.068 122.383,349.029C122.609,348.902 122.883,348.764 123.206,348.618C123.53,348.471 123.865,348.333 124.213,348.206C124.561,348.079 124.906,347.973 125.249,347.89C125.592,347.807 125.901,347.765 126.175,347.765C126.587,347.765 126.903,347.824 127.123,347.941C127.344,348.059 127.508,348.226 127.616,348.441C127.723,348.657 127.789,348.909 127.814,349.198C127.838,349.487 127.86,349.798 127.88,350.131C127.909,350.631 127.949,351.114 127.998,351.579C128.047,352.045 128.12,352.456 128.218,352.814C128.316,353.171 128.441,353.46 128.593,353.681C128.745,353.901 128.933,354.012 129.159,354.012C129.267,354.012 129.384,353.992 129.512,353.953C129.639,353.914 129.761,353.867 129.879,353.813C129.997,353.759 130.102,353.705 130.195,353.651C130.288,353.598 130.349,353.561 130.379,353.541C130.467,353.541 130.521,353.585 130.54,353.674C130.54,353.723 130.531,353.767 130.511,353.806C130.491,353.825 130.418,353.874 130.29,353.953C130.163,354.031 130.006,354.124 129.82,354.232C129.634,354.34 129.428,354.455 129.203,354.577C128.977,354.7 128.755,354.815 128.534,354.923C128.314,355.031 128.11,355.119 127.924,355.187C127.738,355.256 127.591,355.29 127.483,355.29C127.356,355.29 127.246,355.239 127.153,355.136C127.059,355.033 126.979,354.896 126.91,354.724C126.841,354.553 126.783,354.355 126.734,354.129C126.685,353.904 126.641,353.669 126.601,353.424C126.425,353.571 126.2,353.745 125.925,353.945C125.651,354.146 125.352,354.335 125.029,354.511C124.705,354.688 124.375,354.837 124.037,354.96C123.699,355.082 123.373,355.143 123.059,355.143C122.795,355.143 122.564,355.102 122.368,355.018C122.172,354.935 122.008,354.825 121.876,354.688C121.744,354.55 121.646,354.391 121.582,354.21C121.518,354.029 121.487,353.84 121.487,353.644C121.487,353.331 121.582,353.073 121.773,352.872C121.964,352.672 122.261,352.463 122.662,352.248C122.849,352.15 123.108,352.02 123.441,351.858C123.775,351.697 124.115,351.533 124.463,351.366C124.811,351.199 125.134,351.04 125.433,350.888C125.732,350.736 125.95,350.616 126.087,350.528Z" style="fill-rule:nonzero;"/>
            <path d="M136.699,353.056C136.718,353.037 136.735,353.039 136.75,353.064C136.765,353.088 136.775,353.122 136.779,353.166C136.784,353.211 136.782,353.257 136.772,353.306C136.762,353.355 136.743,353.394 136.713,353.424C136.517,353.61 136.272,353.806 135.978,354.012C135.685,354.217 135.381,354.408 135.067,354.585C134.979,354.634 134.857,354.697 134.7,354.776C134.543,354.854 134.369,354.93 134.178,355.004C133.987,355.077 133.791,355.141 133.59,355.195C133.389,355.249 133.201,355.276 133.024,355.276C132.672,355.276 132.338,355.207 132.025,355.07C131.711,354.933 131.437,354.744 131.202,354.504C130.967,354.264 130.783,353.977 130.651,353.644C130.518,353.311 130.452,352.948 130.452,352.556C130.452,352.135 130.511,351.738 130.629,351.366C130.746,350.994 130.881,350.66 131.033,350.367C131.185,350.073 131.329,349.825 131.466,349.624C131.603,349.423 131.697,349.274 131.746,349.176C131.559,349.166 131.39,349.159 131.238,349.154C131.087,349.149 130.942,349.147 130.805,349.147C130.491,349.147 130.227,349.149 130.011,349.154C129.796,349.159 129.605,349.181 129.438,349.22C129.36,349.24 129.286,349.279 129.218,349.338C129.149,349.396 129.09,349.441 129.041,349.47C129.022,349.45 128.995,349.423 128.96,349.389C128.926,349.355 128.909,349.318 128.909,349.279C128.909,349.259 128.914,349.245 128.924,349.235C128.924,349.225 128.987,349.169 129.115,349.066C129.242,348.963 129.401,348.84 129.592,348.698C129.783,348.556 129.994,348.399 130.224,348.228C130.455,348.057 130.675,347.897 130.886,347.75C131.096,347.603 131.278,347.478 131.43,347.376C131.581,347.273 131.682,347.211 131.731,347.192C131.79,347.172 131.848,347.182 131.907,347.221C131.966,347.26 131.986,347.29 131.966,347.309C131.937,347.329 131.893,347.366 131.834,347.42C131.775,347.474 131.755,347.52 131.775,347.559C131.883,347.647 132.069,347.726 132.333,347.794C132.598,347.863 132.897,347.919 133.23,347.963C133.563,348.008 133.906,348.042 134.259,348.066C134.612,348.091 134.93,348.103 135.214,348.103C135.636,348.103 135.974,348.091 136.228,348.066C136.483,348.042 136.694,348.01 136.86,347.971C137.017,347.932 137.12,347.902 137.169,347.883C137.179,347.883 137.198,347.897 137.228,347.927C137.257,347.956 137.272,347.99 137.272,348.03C137.272,348.049 137.201,348.098 137.059,348.177C136.917,348.255 136.772,348.338 136.625,348.426C136.537,348.475 136.432,348.539 136.309,348.618C136.187,348.696 136.054,348.772 135.912,348.845C135.77,348.919 135.621,348.985 135.464,349.044C135.307,349.103 135.155,349.137 135.008,349.147C134.861,349.166 134.69,349.181 134.494,349.191C134.298,349.201 134.092,349.208 133.877,349.213C133.661,349.218 133.443,349.223 133.223,349.227C133.002,349.232 132.799,349.235 132.613,349.235C132.583,349.284 132.537,349.365 132.473,349.477C132.409,349.59 132.348,349.735 132.289,349.911C132.231,350.087 132.177,350.288 132.128,350.514C132.079,350.739 132.054,350.984 132.054,351.248C132.054,351.65 132.115,352.02 132.238,352.358C132.36,352.696 132.532,352.988 132.752,353.233C132.973,353.478 133.235,353.669 133.539,353.806C133.842,353.943 134.171,354.012 134.523,354.012C134.729,354.012 134.928,353.987 135.119,353.938C135.31,353.889 135.491,353.825 135.662,353.747C135.834,353.669 135.993,353.583 136.14,353.49C136.287,353.397 136.415,353.306 136.522,353.218L136.699,353.056Z" style="fill-rule:nonzero;"/>
            <path d="M136.493,349.029C136.415,349.009 136.378,348.97 136.383,348.911C136.388,348.853 136.424,348.818 136.493,348.809C136.522,348.799 136.615,348.764 136.772,348.706C136.929,348.647 137.118,348.578 137.338,348.5C137.558,348.422 137.789,348.338 138.029,348.25C138.269,348.162 138.482,348.088 138.668,348.03C138.786,347.99 138.867,347.963 138.911,347.949C138.955,347.934 138.991,347.927 139.021,347.927C139.05,347.927 139.085,347.939 139.124,347.963C139.163,347.988 139.173,348.025 139.153,348.074C139.124,348.152 139.092,348.338 139.058,348.632C139.023,348.926 138.991,349.252 138.962,349.61C138.933,349.967 138.906,350.322 138.881,350.675C138.857,351.028 138.845,351.307 138.845,351.513C138.845,352.297 139.011,352.902 139.344,353.328C139.677,353.754 140.197,353.967 140.902,353.967C141.265,353.967 141.566,353.894 141.806,353.747C142.046,353.6 142.23,353.429 142.357,353.233C142.445,353.105 142.504,352.826 142.534,352.395C142.534,352.316 142.536,352.214 142.541,352.086C142.546,351.959 142.551,351.824 142.556,351.682C142.561,351.54 142.565,351.403 142.57,351.27C142.575,351.138 142.578,351.028 142.578,350.94C142.588,350.489 142.575,350.07 142.541,349.683C142.507,349.296 142.455,349.009 142.387,348.823C142.357,348.706 142.298,348.647 142.21,348.647C142.151,348.647 142.095,348.649 142.041,348.654C141.987,348.659 141.956,348.618 141.946,348.529C141.946,348.5 141.975,348.468 142.034,348.434C142.093,348.399 142.205,348.348 142.372,348.279C142.529,348.221 142.703,348.162 142.894,348.103C143.085,348.044 143.273,347.995 143.46,347.956C143.646,347.917 143.812,347.89 143.959,347.875C144.106,347.861 144.214,347.868 144.283,347.897C144.283,347.907 144.29,347.919 144.305,347.934C144.319,347.949 144.332,347.981 144.341,348.03C144.361,348.088 144.349,348.272 144.305,348.581C144.261,348.889 144.214,349.392 144.165,350.087C144.126,350.567 144.092,351.033 144.062,351.484C144.033,351.934 144.018,352.277 144.018,352.512C144.018,352.973 144.104,353.338 144.275,353.607C144.447,353.877 144.66,354.012 144.915,354.012C145.081,354.012 145.24,353.977 145.392,353.909C145.544,353.84 145.654,353.781 145.723,353.732C145.801,353.732 145.843,353.767 145.848,353.835C145.853,353.904 145.836,353.948 145.797,353.967C145.65,354.065 145.446,354.188 145.187,354.335C144.927,354.482 144.657,354.622 144.378,354.754C144.099,354.886 143.832,354.999 143.577,355.092C143.322,355.185 143.117,355.231 142.96,355.231C142.881,355.231 142.81,355.18 142.747,355.077C142.683,354.974 142.632,354.849 142.592,354.702C142.553,354.555 142.524,354.403 142.504,354.247C142.485,354.09 142.475,353.953 142.475,353.835C142.269,353.982 142.034,354.136 141.769,354.298C141.505,354.46 141.23,354.612 140.946,354.754C140.662,354.896 140.38,355.011 140.101,355.099C139.822,355.187 139.565,355.231 139.33,355.231C138.732,355.231 138.242,355.072 137.86,354.754C137.478,354.435 137.287,354.021 137.287,353.512C137.287,353.404 137.296,353.242 137.316,353.027C137.336,352.811 137.36,352.566 137.389,352.292C137.419,352.018 137.443,351.724 137.463,351.41C137.483,351.097 137.492,350.793 137.492,350.499C137.492,350.048 137.421,349.703 137.279,349.463C137.137,349.223 136.953,349.088 136.728,349.058L136.493,349.029Z" style="fill-rule:nonzero;"/>
        </g>
        <g transform="matrix(1,0,0,1,-65.4614,-49.9274)">
            <text x="76.188px" y="355.099px" style="font-family:'Luminari-Regular', 'Luminari';font-size:14.698px;">Nosfer<tspan x="121.237px " y="355.099px ">a</tspan>tu</text>
        </g>
        <g id="namespace-Nosferatu" serif:id="namespace#Nosferatu" transform="matrix(0.0219124,0,0,0.0248558,-15.6689,285.934)">
            <g transform="matrix(55.8954,0,0,49.2765,-878.032,-330.791)">
                <path d="M27.733,13.757C27.957,11.616 28.949,10 30.136,10C31.489,10 32.587,12.095 32.587,14.677C32.587,15.669 32.424,16.59 32.148,17.347C32.432,17.974 32.587,18.65 32.587,19.353C32.587,22.678 29.128,25.378 24.868,25.378C20.609,25.378 17.15,22.678 17.15,19.353C17.15,18.65 17.305,17.974 17.589,17.347C17.313,16.59 17.15,15.669 17.15,14.677C17.15,12.095 18.248,10 19.601,10C20.788,10 21.779,11.616 22.003,13.757L22.04,13.746C22.915,13.476 23.87,13.328 24.868,13.328C25.881,13.328 26.847,13.48 27.733,13.757ZM17.609,17.304L17.606,17.31L17.609,17.304ZM32.128,17.305L32.131,17.31L32.128,17.305ZM17.627,17.265L17.623,17.273L17.627,17.265ZM32.11,17.266L32.113,17.273L32.11,17.266ZM17.645,17.227L17.641,17.236L17.645,17.227ZM32.092,17.228L32.096,17.236L32.092,17.228ZM17.663,17.19L17.659,17.2L17.663,17.19ZM32.074,17.191L32.078,17.199L32.074,17.191ZM17.682,17.153L17.677,17.162L17.682,17.153ZM32.055,17.154L32.059,17.161L32.055,17.154ZM17.7,17.117L17.696,17.125L17.7,17.117ZM32.037,17.117L32.04,17.123L32.037,17.117ZM17.719,17.081L17.717,17.085L17.719,17.081ZM32.018,17.081L32.019,17.082L32.018,17.081ZM17.782,16.964L17.778,16.971L17.782,16.964ZM31.957,16.968L31.958,16.97L31.957,16.968ZM17.804,16.925L17.798,16.935L17.804,16.925ZM31.935,16.928L31.938,16.934L31.935,16.928ZM17.825,16.888L17.818,16.9L17.825,16.888ZM31.914,16.891L31.918,16.899L31.914,16.891ZM17.845,16.852L17.838,16.865L17.845,16.852ZM31.893,16.854L31.898,16.863L31.893,16.854ZM17.866,16.817L17.859,16.829L17.866,16.817ZM31.871,16.819L31.876,16.827L31.871,16.819ZM17.888,16.782L17.88,16.794L17.888,16.782ZM31.85,16.783L31.855,16.791L31.85,16.783ZM17.909,16.747L17.902,16.758L17.909,16.747ZM31.829,16.748L31.832,16.754L31.829,16.748ZM17.931,16.712L17.925,16.72L17.931,16.712ZM31.807,16.713L31.808,16.714L31.807,16.713ZM17.979,16.635L17.975,16.642L17.979,16.635ZM18.005,16.596L17.998,16.608L18.005,16.596ZM31.735,16.602L31.738,16.606L31.735,16.602ZM18.029,16.561L18.02,16.573L18.029,16.561ZM31.711,16.564L31.716,16.572L31.711,16.564ZM18.052,16.526L18.043,16.539L18.052,16.526ZM31.686,16.529L31.692,16.537L31.686,16.529ZM18.076,16.492L18.066,16.505L18.076,16.492ZM31.663,16.494L31.669,16.503L31.663,16.494ZM18.1,16.458L18.09,16.471L18.1,16.458ZM31.639,16.459L31.645,16.469L31.639,16.459ZM18.124,16.424L18.114,16.437L18.124,16.424ZM31.614,16.425L31.62,16.434L31.614,16.425ZM18.148,16.39L18.139,16.403L18.148,16.39ZM31.59,16.392L31.595,16.398L31.59,16.392ZM18.172,16.357L18.164,16.367L18.172,16.357ZM31.566,16.358L31.567,16.36L31.566,16.358ZM18.197,16.324L18.196,16.324L18.197,16.324ZM18.23,16.28L18.222,16.291L18.23,16.28ZM31.513,16.288L31.514,16.289L31.513,16.288ZM18.257,16.245L18.247,16.258L18.257,16.245ZM31.484,16.249L31.489,16.256L31.484,16.249ZM18.283,16.211L18.272,16.225L18.283,16.211ZM31.456,16.214L31.463,16.223L31.456,16.214ZM18.309,16.178L18.298,16.192L18.309,16.178ZM31.43,16.18L31.438,16.19L31.43,16.18ZM18.335,16.145L18.324,16.16L18.335,16.145ZM31.403,16.147L31.411,16.158L31.403,16.147ZM18.362,16.113L18.35,16.127L18.362,16.113ZM31.376,16.114L31.385,16.125L31.376,16.114ZM18.388,16.081L18.377,16.094L18.388,16.081ZM31.35,16.082L31.357,16.091L31.35,16.082ZM18.415,16.049L18.404,16.061L18.415,16.049ZM31.323,16.05L31.329,16.057L31.323,16.05ZM18.442,16.017L18.433,16.027L18.442,16.017ZM31.295,16.018L31.298,16.021L31.295,16.018ZM18.473,15.981L18.469,15.985L18.473,15.981ZM18.507,15.942L18.497,15.954L18.507,15.942ZM31.234,15.947L31.239,15.953L31.234,15.947ZM18.536,15.909L18.525,15.922L18.536,15.909ZM31.203,15.912L31.211,15.921L31.203,15.912ZM18.565,15.877L18.553,15.891L18.565,15.877ZM31.174,15.879L31.183,15.89L31.174,15.879ZM18.594,15.846L18.581,15.86L18.594,15.846ZM31.145,15.847L31.155,15.859L31.145,15.847ZM18.622,15.815L18.61,15.828L18.622,15.815ZM31.115,15.816L31.126,15.827L31.115,15.816ZM18.651,15.784L18.639,15.797L18.651,15.784ZM31.086,15.785L31.097,15.796L31.086,15.785ZM18.68,15.753L18.668,15.766L18.68,15.753ZM31.057,15.754L31.067,15.765L31.057,15.754ZM18.71,15.723L18.698,15.735L18.71,15.723ZM31.027,15.723L31.037,15.733L31.027,15.723ZM18.739,15.692L18.73,15.702L18.739,15.692ZM30.998,15.693L31.003,15.698L30.998,15.693ZM18.775,15.656L18.769,15.662L18.775,15.656ZM30.965,15.659L30.967,15.662L30.965,15.659ZM18.81,15.621L18.799,15.632L18.81,15.621ZM30.928,15.622L30.937,15.632L30.928,15.622ZM18.842,15.59L18.83,15.602L18.842,15.59ZM30.895,15.591L30.907,15.602L30.895,15.591ZM18.873,15.56L18.86,15.572L18.873,15.56ZM30.864,15.56L30.876,15.572L30.864,15.56ZM18.904,15.53L18.891,15.543L18.904,15.53ZM30.832,15.53L30.846,15.543L30.832,15.53ZM30.801,15.5L30.814,15.513L30.801,15.5ZM18.936,15.501L18.923,15.513L18.936,15.501ZM30.769,15.471L30.783,15.484L30.769,15.471ZM18.967,15.471L18.954,15.483L18.967,15.471ZM30.738,15.442L30.751,15.454L30.738,15.442ZM18.999,15.442L18.986,15.454L18.999,15.442ZM30.706,15.413L30.719,15.425L30.706,15.413ZM19.031,15.413L19.019,15.424L19.031,15.413ZM30.674,15.384L30.684,15.394L30.674,15.384ZM19.063,15.385L19.056,15.391L19.063,15.385ZM30.63,15.346L30.642,15.356L30.63,15.346ZM19.101,15.35L19.095,15.356L19.101,15.35ZM30.595,15.315L30.61,15.328L30.595,15.315ZM19.139,15.318L19.128,15.327L19.139,15.318ZM30.561,15.286L30.577,15.3L30.561,15.286ZM19.173,15.288L19.161,15.299L19.173,15.288ZM30.528,15.258L30.544,15.272L30.528,15.258ZM19.207,15.26L19.194,15.271L19.207,15.26ZM30.494,15.23L30.511,15.244L30.494,15.23ZM19.241,15.231L19.227,15.243L19.241,15.231ZM30.461,15.202L30.478,15.216L30.461,15.202ZM19.274,15.204L19.261,15.215L19.274,15.204ZM30.427,15.175L30.444,15.189L30.427,15.175ZM19.308,15.176L19.295,15.187L19.308,15.176ZM30.393,15.147L30.41,15.161L30.393,15.147ZM19.342,15.149L19.33,15.158L19.342,15.149ZM30.359,15.12L30.376,15.134L30.359,15.12ZM19.377,15.121L19.366,15.129L19.377,15.121ZM30.325,15.093L30.343,15.107L30.326,15.094L30.305,15.078L30.325,15.093ZM19.411,15.094L19.409,15.096L19.411,15.094ZM30.273,15.053L30.292,15.068L30.273,15.053ZM19.452,15.062L19.446,15.067L19.452,15.062ZM30.238,15.027L30.257,15.041L30.238,15.027ZM19.492,15.032L19.481,15.04L19.492,15.032ZM30.203,15L30.222,15.015L30.203,15ZM19.529,15.004L19.516,15.013L19.529,15.004ZM30.168,14.974L30.187,14.989L30.168,14.974ZM19.565,14.977L19.552,14.987L19.565,14.977ZM30.132,14.948L30.152,14.963L30.132,14.948ZM19.601,14.951L19.588,14.961L19.601,14.951ZM30.097,14.922L30.117,14.937L30.097,14.922ZM19.637,14.925L19.624,14.934L19.637,14.925ZM30.061,14.897L30.081,14.911L30.061,14.897ZM19.673,14.899L19.661,14.908L19.673,14.899ZM30.025,14.871L30.046,14.886L30.025,14.871ZM19.71,14.873L19.698,14.881L19.71,14.873ZM29.988,14.846L30.011,14.862L29.988,14.846ZM19.746,14.848L19.738,14.853L19.746,14.848ZM29.954,14.822L29.915,14.796C29.928,14.805 29.941,14.813 29.954,14.822ZM19.826,14.793L19.821,14.796L19.826,14.793ZM29.858,14.758L29.881,14.773L29.858,14.758ZM19.868,14.765L19.858,14.771L19.868,14.765ZM29.822,14.734L29.845,14.749L29.822,14.734ZM19.907,14.739L19.896,14.747L19.907,14.739ZM29.785,14.71L29.807,14.724L29.785,14.71ZM19.946,14.714L19.933,14.722L19.946,14.714ZM29.747,14.686L29.77,14.7L29.747,14.686ZM19.984,14.689L19.971,14.697L19.984,14.689ZM29.71,14.662L29.733,14.676L29.71,14.662ZM20.023,14.665L20.01,14.673L20.023,14.665ZM29.672,14.638L29.696,14.653L29.672,14.638ZM20.061,14.641L20.049,14.648L20.061,14.641ZM29.634,14.615L29.659,14.63L29.634,14.615ZM20.099,14.617L20.09,14.623L20.099,14.617ZM29.494,14.531C29.537,14.556 29.58,14.582 29.623,14.608C29.581,14.582 29.538,14.556 29.494,14.531ZM20.138,14.593L20.134,14.596L20.138,14.593ZM20.221,14.543L20.218,14.545L20.221,14.543ZM29.458,14.51L29.483,14.525L29.458,14.51ZM20.266,14.517L20.257,14.522L20.266,14.517ZM29.42,14.488L29.444,14.502L29.42,14.488ZM20.308,14.493L20.297,14.499L20.308,14.493ZM29.381,14.466L29.405,14.48L29.381,14.466ZM20.349,14.47L20.337,14.477L20.349,14.47ZM29.341,14.444L29.366,14.457L29.341,14.444ZM20.389,14.447L20.377,14.454L20.389,14.447ZM29.302,14.422L29.327,14.436L29.302,14.422ZM20.43,14.425L20.418,14.431L20.43,14.425ZM29.262,14.4L29.288,14.414L29.262,14.4ZM20.47,14.403L20.46,14.408L20.47,14.403ZM29.222,14.379L29.249,14.393L29.222,14.379ZM20.51,14.381L20.503,14.385L20.51,14.381ZM29.186,14.359L29.143,14.337C29.157,14.344 29.171,14.352 29.186,14.359ZM29.077,14.303L29.105,14.317L29.077,14.303ZM20.638,14.314L20.636,14.315L20.638,14.314ZM29.038,14.283L29.064,14.296L29.038,14.283ZM20.685,14.29L20.677,14.294L20.685,14.29ZM28.998,14.263L29.023,14.276L28.998,14.263ZM20.729,14.268L20.719,14.273L20.729,14.268ZM28.957,14.243L28.982,14.255L28.957,14.243ZM20.772,14.247L20.761,14.252L20.772,14.247ZM28.916,14.223L28.941,14.235L28.916,14.223ZM20.814,14.226L20.803,14.232L20.814,14.226ZM28.875,14.203L28.899,14.215L28.875,14.203ZM20.857,14.206L20.846,14.211L20.857,14.206ZM28.833,14.184L28.858,14.195L28.833,14.184ZM20.899,14.186L20.891,14.19L20.899,14.186ZM28.791,14.164L28.817,14.176L28.791,14.164ZM20.942,14.166L20.937,14.168L20.942,14.166ZM28.752,14.146L28.707,14.126C28.722,14.133 28.737,14.139 28.752,14.146ZM28.643,14.097L28.667,14.108L28.643,14.097ZM21.075,14.106L21.074,14.106L21.075,14.106ZM28.601,14.079L28.624,14.089L28.601,14.079ZM21.124,14.084L21.117,14.087L21.124,14.084ZM28.558,14.061L28.581,14.071L28.558,14.061ZM21.17,14.065L21.161,14.068L21.17,14.065ZM28.516,14.043L28.538,14.052L28.516,14.043ZM21.215,14.046L21.204,14.05L21.215,14.046ZM28.473,14.025L28.494,14.034L28.473,14.025ZM21.259,14.027L21.249,14.031L21.259,14.027ZM28.429,14.007L28.451,14.016L28.429,14.007ZM21.303,14.009L21.294,14.013L21.303,14.009ZM28.386,13.989L28.406,13.998L28.386,13.989ZM21.347,13.991L21.341,13.994L21.347,13.991ZM28.342,13.972L28.361,13.979L28.342,13.972ZM21.392,13.973L21.391,13.974L21.392,13.973ZM28.298,13.955L28.311,13.96L28.298,13.955ZM28.243,13.934L28.254,13.938L28.243,13.934ZM28.195,13.915L28.21,13.921L28.195,13.915ZM21.531,13.92L21.53,13.92L21.531,13.92ZM28.149,13.898L28.165,13.904L28.149,13.898ZM21.581,13.901L21.575,13.903L21.581,13.901ZM28.103,13.882L28.119,13.888L28.103,13.882ZM21.629,13.884L21.62,13.887L21.629,13.884ZM28.058,13.866L28.074,13.871L28.058,13.866ZM21.675,13.867L21.666,13.87L21.675,13.867ZM28.013,13.85L28.028,13.855L28.013,13.85ZM21.721,13.851L21.713,13.854L21.721,13.851ZM27.968,13.834L27.981,13.839L27.968,13.834ZM21.767,13.835L21.76,13.837L21.767,13.835ZM27.922,13.819L27.932,13.822L27.922,13.819ZM21.813,13.819L21.809,13.821L21.813,13.819ZM27.877,13.803L27.879,13.804L27.877,13.803Z" style="fill:none;stroke:black;stroke-width:1.22px;"/>
            </g>
            <g transform="matrix(55.8954,0,0,49.2765,-878.032,-330.791)">
                <path d="M25.128,19.358C24.963,19.04 24.868,18.67 24.868,18.275C24.868,17.096 25.713,16.138 26.753,16.138C27.793,16.138 28.637,17.096 28.637,18.275C28.637,19.031 28.291,19.696 27.768,20.076C27.128,19.668 26.188,19.396 25.128,19.358ZM21.969,20.076C21.446,19.696 21.099,19.031 21.099,18.275C21.099,17.096 21.944,16.138 22.984,16.138C24.024,16.138 24.868,17.096 24.868,18.275C24.868,18.67 24.774,19.04 24.609,19.358C23.549,19.396 22.609,19.668 21.969,20.076Z" style="fill:none;stroke:black;stroke-width:1.22px;"/>
            </g>
            <g transform="matrix(1,0,0,1,-53.1856,50.0357)">
                <ellipse cx="565.186" cy="671.455" rx="210.672" ry="98.631" style="fill:none;stroke:black;stroke-width:63.81px;"/>
            </g>
            <g transform="matrix(51.2,0,0,45.1371,0.670978,88.9676)">
                <path d="M12.057,13.791C12.057,13.668 11.958,13.568 11.835,13.568L8.139,13.568C8.016,13.568 7.916,13.668 7.916,13.791L7.916,14.236C7.916,14.359 8.016,14.458 8.139,14.458L11.835,14.458C11.958,14.458 12.057,14.359 12.057,14.236L12.057,13.791Z"/>
            </g>
        </g>
    </g>
</svg>
