<?xml version="1.0" encoding="UTF-8" standalone="no"?>
<!DOCTYPE svg PUBLIC "-//W3C//DTD SVG 1.1//EN" "http://www.w3.org/Graphics/SVG/1.1/DTD/svg11.dtd">
<svg width="100%" height="100%" viewBox="0 0 225 380" version="1.1" xmlns="http://www.w3.org/2000/svg" xmlns:xlink="http://www.w3.org/1999/xlink" xml:space="preserve" xmlns:serif="http://www.serif.com/" style="fill-rule:evenodd;clip-rule:evenodd;stroke-linecap:round;stroke-linejoin:round;stroke-miterlimit:1.5;">
    <g id="Seg08" transform="matrix(1,0,0,1,103.12,-10.6269)">
        <g transform="matrix(1,0,0,1,1.24349,262.237)">
            <g transform="matrix(14,0,0,14,93.2199,118.306)">
                <path d="M0.034,-0.565C0.034,-0.589 0.038,-0.61 0.047,-0.629C0.055,-0.648 0.066,-0.664 0.08,-0.677C0.094,-0.69 0.11,-0.701 0.129,-0.708C0.147,-0.715 0.166,-0.718 0.186,-0.718C0.206,-0.718 0.225,-0.715 0.244,-0.708C0.262,-0.701 0.278,-0.69 0.292,-0.677C0.306,-0.664 0.317,-0.648 0.326,-0.629C0.334,-0.61 0.338,-0.589 0.338,-0.565L0.338,-0.147C0.338,-0.123 0.334,-0.102 0.326,-0.083C0.317,-0.064 0.306,-0.048 0.292,-0.035C0.278,-0.022 0.262,-0.012 0.244,-0.005C0.225,0.003 0.206,0.006 0.186,0.006C0.166,0.006 0.147,0.003 0.129,-0.005C0.11,-0.012 0.094,-0.022 0.08,-0.035C0.066,-0.048 0.055,-0.064 0.047,-0.083C0.038,-0.102 0.034,-0.123 0.034,-0.147L0.034,-0.565ZM0.136,-0.147C0.136,-0.132 0.141,-0.12 0.15,-0.111C0.159,-0.101 0.171,-0.096 0.186,-0.096C0.201,-0.096 0.213,-0.101 0.222,-0.111C0.231,-0.12 0.236,-0.132 0.236,-0.147L0.236,-0.565C0.236,-0.58 0.231,-0.592 0.222,-0.602C0.213,-0.611 0.201,-0.616 0.186,-0.616C0.171,-0.616 0.159,-0.611 0.15,-0.602C0.141,-0.592 0.136,-0.58 0.136,-0.565L0.136,-0.147Z" style="fill:rgb(5,5,5);fill-rule:nonzero;"/>
            </g>
            <g transform="matrix(14,0,0,14,98.4279,118.306)">
                <path d="M0.236,-0.566C0.236,-0.58 0.231,-0.592 0.221,-0.602C0.211,-0.611 0.199,-0.616 0.186,-0.616C0.173,-0.616 0.161,-0.611 0.151,-0.602C0.141,-0.592 0.136,-0.58 0.136,-0.566L0.136,-0.462C0.136,-0.448 0.141,-0.436 0.151,-0.427C0.161,-0.417 0.173,-0.412 0.186,-0.412C0.199,-0.412 0.211,-0.417 0.221,-0.427C0.231,-0.436 0.236,-0.448 0.236,-0.462L0.236,-0.566ZM0.034,-0.526C0.034,-0.545 0.035,-0.562 0.036,-0.576C0.037,-0.589 0.04,-0.601 0.043,-0.611C0.046,-0.621 0.05,-0.63 0.055,-0.638C0.059,-0.646 0.064,-0.654 0.071,-0.663C0.084,-0.68 0.101,-0.694 0.121,-0.704C0.141,-0.713 0.163,-0.718 0.186,-0.718C0.209,-0.718 0.231,-0.713 0.251,-0.704C0.271,-0.694 0.288,-0.68 0.301,-0.663C0.308,-0.654 0.313,-0.646 0.318,-0.638C0.323,-0.63 0.327,-0.621 0.33,-0.611C0.333,-0.601 0.335,-0.589 0.337,-0.576C0.338,-0.562 0.338,-0.545 0.338,-0.526C0.338,-0.505 0.338,-0.487 0.337,-0.472C0.336,-0.457 0.334,-0.444 0.331,-0.433C0.328,-0.422 0.323,-0.412 0.316,-0.403C0.309,-0.394 0.299,-0.384 0.287,-0.374C0.299,-0.365 0.309,-0.355 0.316,-0.346C0.323,-0.337 0.328,-0.326 0.331,-0.313C0.334,-0.3 0.336,-0.285 0.337,-0.267C0.338,-0.248 0.338,-0.226 0.338,-0.199C0.338,-0.177 0.338,-0.159 0.337,-0.145C0.335,-0.13 0.334,-0.118 0.332,-0.107C0.33,-0.096 0.327,-0.087 0.324,-0.08C0.32,-0.073 0.315,-0.065 0.31,-0.057C0.299,-0.04 0.283,-0.025 0.262,-0.013C0.241,-0 0.216,0.006 0.186,0.006C0.156,0.006 0.131,-0 0.11,-0.013C0.089,-0.025 0.073,-0.04 0.062,-0.057C0.057,-0.065 0.052,-0.073 0.049,-0.08C0.045,-0.087 0.042,-0.096 0.04,-0.107C0.038,-0.118 0.037,-0.13 0.036,-0.145C0.035,-0.159 0.034,-0.177 0.034,-0.199C0.034,-0.226 0.034,-0.248 0.035,-0.267C0.036,-0.285 0.038,-0.3 0.041,-0.313C0.044,-0.326 0.049,-0.337 0.057,-0.346C0.064,-0.355 0.073,-0.365 0.085,-0.374C0.073,-0.384 0.064,-0.394 0.057,-0.403C0.049,-0.412 0.044,-0.422 0.041,-0.433C0.038,-0.444 0.036,-0.457 0.035,-0.472C0.034,-0.487 0.034,-0.505 0.034,-0.526ZM0.236,-0.286C0.236,-0.3 0.231,-0.312 0.221,-0.322C0.211,-0.331 0.199,-0.336 0.186,-0.336C0.173,-0.336 0.161,-0.331 0.151,-0.322C0.141,-0.312 0.136,-0.3 0.136,-0.286L0.136,-0.146C0.136,-0.132 0.141,-0.12 0.151,-0.111C0.161,-0.101 0.173,-0.096 0.186,-0.096C0.199,-0.096 0.211,-0.101 0.221,-0.111C0.231,-0.12 0.236,-0.132 0.236,-0.146L0.236,-0.286Z" style="fill:rgb(5,5,5);fill-rule:nonzero;"/>
            </g>
        </g>
        <g id="Active-ledbutton" serif:id="Active#ledbutton" transform="matrix(1,0,0,1,-1.67651,44.5955)">
            <circle cx="101.308" cy="310.24" r="9.898" style="fill:rgb(115,115,115);"/>
        </g>
        <g id="Length-knob-2" serif:id="Length#knob$2" transform="matrix(0.758898,0,0,0.758898,56.7181,90.1068)">
            <circle cx="55.661" cy="308.513" r="7.929"/>
        </g>
        <g id="Ticks-slider" serif:id="Ticks#slider" transform="matrix(0.0833124,0,0,3.87469,85.8853,-502.23)">
            <rect x="92.975" y="182.872" width="144.036" height="20.647" style="fill:rgb(217,217,217);"/>
        </g>
        <g id="Pitch-slider" serif:id="Pitch#slider" transform="matrix(0.0833124,0,0,3.87469,85.8853,-593.858)">
            <rect x="92.975" y="182.872" width="144.036" height="20.647" style="fill:rgb(217,217,217);"/>
        </g>
        <g id="Chance-knob-1" serif:id="Chance#knob$1" transform="matrix(0.758898,0,0,0.758898,56.7181,-131.893)">
            <circle cx="55.661" cy="308.513" r="7.929"/>
        </g>
        <g id="Current-led" serif:id="Current#led" transform="matrix(1,0,0,1,57.4648,-267.444)">
            <circle cx="42.167" cy="335.861" r="3.82" style="fill:rgb(230,230,230);"/>
        </g>
        <g transform="matrix(1,0,0,1,1.24349,-60.7634)">
            <g transform="matrix(14,0,0,14,93.2199,118.306)">
                <path d="M0.034,-0.565C0.034,-0.589 0.038,-0.61 0.047,-0.629C0.055,-0.648 0.066,-0.664 0.08,-0.677C0.094,-0.69 0.11,-0.701 0.129,-0.708C0.147,-0.715 0.166,-0.718 0.186,-0.718C0.206,-0.718 0.225,-0.715 0.244,-0.708C0.262,-0.701 0.278,-0.69 0.292,-0.677C0.306,-0.664 0.317,-0.648 0.326,-0.629C0.334,-0.61 0.338,-0.589 0.338,-0.565L0.338,-0.147C0.338,-0.123 0.334,-0.102 0.326,-0.083C0.317,-0.064 0.306,-0.048 0.292,-0.035C0.278,-0.022 0.262,-0.012 0.244,-0.005C0.225,0.003 0.206,0.006 0.186,0.006C0.166,0.006 0.147,0.003 0.129,-0.005C0.11,-0.012 0.094,-0.022 0.08,-0.035C0.066,-0.048 0.055,-0.064 0.047,-0.083C0.038,-0.102 0.034,-0.123 0.034,-0.147L0.034,-0.565ZM0.136,-0.147C0.136,-0.132 0.141,-0.12 0.15,-0.111C0.159,-0.101 0.171,-0.096 0.186,-0.096C0.201,-0.096 0.213,-0.101 0.222,-0.111C0.231,-0.12 0.236,-0.132 0.236,-0.147L0.236,-0.565C0.236,-0.58 0.231,-0.592 0.222,-0.602C0.213,-0.611 0.201,-0.616 0.186,-0.616C0.171,-0.616 0.159,-0.611 0.15,-0.602C0.141,-0.592 0.136,-0.58 0.136,-0.565L0.136,-0.147Z" style="fill:rgb(5,5,5);fill-rule:nonzero;"/>
            </g>
            <g transform="matrix(14,0,0,14,98.4279,118.306)">
                <path d="M0.236,-0.566C0.236,-0.58 0.231,-0.592 0.221,-0.602C0.211,-0.611 0.199,-0.616 0.186,-0.616C0.173,-0.616 0.161,-0.611 0.151,-0.602C0.141,-0.592 0.136,-0.58 0.136,-0.566L0.136,-0.462C0.136,-0.448 0.141,-0.436 0.151,-0.427C0.161,-0.417 0.173,-0.412 0.186,-0.412C0.199,-0.412 0.211,-0.417 0.221,-0.427C0.231,-0.436 0.236,-0.448 0.236,-0.462L0.236,-0.566ZM0.034,-0.526C0.034,-0.545 0.035,-0.562 0.036,-0.576C0.037,-0.589 0.04,-0.601 0.043,-0.611C0.046,-0.621 0.05,-0.63 0.055,-0.638C0.059,-0.646 0.064,-0.654 0.071,-0.663C0.084,-0.68 0.101,-0.694 0.121,-0.704C0.141,-0.713 0.163,-0.718 0.186,-0.718C0.209,-0.718 0.231,-0.713 0.251,-0.704C0.271,-0.694 0.288,-0.68 0.301,-0.663C0.308,-0.654 0.313,-0.646 0.318,-0.638C0.323,-0.63 0.327,-0.621 0.33,-0.611C0.333,-0.601 0.335,-0.589 0.337,-0.576C0.338,-0.562 0.338,-0.545 0.338,-0.526C0.338,-0.505 0.338,-0.487 0.337,-0.472C0.336,-0.457 0.334,-0.444 0.331,-0.433C0.328,-0.422 0.323,-0.412 0.316,-0.403C0.309,-0.394 0.299,-0.384 0.287,-0.374C0.299,-0.365 0.309,-0.355 0.316,-0.346C0.323,-0.337 0.328,-0.326 0.331,-0.313C0.334,-0.3 0.336,-0.285 0.337,-0.267C0.338,-0.248 0.338,-0.226 0.338,-0.199C0.338,-0.177 0.338,-0.159 0.337,-0.145C0.335,-0.13 0.334,-0.118 0.332,-0.107C0.33,-0.096 0.327,-0.087 0.324,-0.08C0.32,-0.073 0.315,-0.065 0.31,-0.057C0.299,-0.04 0.283,-0.025 0.262,-0.013C0.241,-0 0.216,0.006 0.186,0.006C0.156,0.006 0.131,-0 0.11,-0.013C0.089,-0.025 0.073,-0.04 0.062,-0.057C0.057,-0.065 0.052,-0.073 0.049,-0.08C0.045,-0.087 0.042,-0.096 0.04,-0.107C0.038,-0.118 0.037,-0.13 0.036,-0.145C0.035,-0.159 0.034,-0.177 0.034,-0.199C0.034,-0.226 0.034,-0.248 0.035,-0.267C0.036,-0.285 0.038,-0.3 0.041,-0.313C0.044,-0.326 0.049,-0.337 0.057,-0.346C0.064,-0.355 0.073,-0.365 0.085,-0.374C0.073,-0.384 0.064,-0.394 0.057,-0.403C0.049,-0.412 0.044,-0.422 0.041,-0.433C0.038,-0.444 0.036,-0.457 0.035,-0.472C0.034,-0.487 0.034,-0.505 0.034,-0.526ZM0.236,-0.286C0.236,-0.3 0.231,-0.312 0.221,-0.322C0.211,-0.331 0.199,-0.336 0.186,-0.336C0.173,-0.336 0.161,-0.331 0.151,-0.322C0.141,-0.312 0.136,-0.3 0.136,-0.286L0.136,-0.146C0.136,-0.132 0.141,-0.12 0.151,-0.111C0.161,-0.101 0.173,-0.096 0.186,-0.096C0.199,-0.096 0.211,-0.101 0.221,-0.111C0.231,-0.12 0.236,-0.132 0.236,-0.146L0.236,-0.286Z" style="fill:rgb(5,5,5);fill-rule:nonzero;"/>
            </g>
        </g>
    </g>
    <g id="Seg07" transform="matrix(1,0,0,1,77.3342,-10.6269)">
        <g transform="matrix(1,0,0,1,1.24349,262.237)">
            <g transform="matrix(14,0,0,14,93.2199,118.306)">
                <path d="M0.034,-0.565C0.034,-0.589 0.038,-0.61 0.047,-0.629C0.055,-0.648 0.066,-0.664 0.08,-0.677C0.094,-0.69 0.11,-0.701 0.129,-0.708C0.147,-0.715 0.166,-0.718 0.186,-0.718C0.206,-0.718 0.225,-0.715 0.244,-0.708C0.262,-0.701 0.278,-0.69 0.292,-0.677C0.306,-0.664 0.317,-0.648 0.326,-0.629C0.334,-0.61 0.338,-0.589 0.338,-0.565L0.338,-0.147C0.338,-0.123 0.334,-0.102 0.326,-0.083C0.317,-0.064 0.306,-0.048 0.292,-0.035C0.278,-0.022 0.262,-0.012 0.244,-0.005C0.225,0.003 0.206,0.006 0.186,0.006C0.166,0.006 0.147,0.003 0.129,-0.005C0.11,-0.012 0.094,-0.022 0.08,-0.035C0.066,-0.048 0.055,-0.064 0.047,-0.083C0.038,-0.102 0.034,-0.123 0.034,-0.147L0.034,-0.565ZM0.136,-0.147C0.136,-0.132 0.141,-0.12 0.15,-0.111C0.159,-0.101 0.171,-0.096 0.186,-0.096C0.201,-0.096 0.213,-0.101 0.222,-0.111C0.231,-0.12 0.236,-0.132 0.236,-0.147L0.236,-0.565C0.236,-0.58 0.231,-0.592 0.222,-0.602C0.213,-0.611 0.201,-0.616 0.186,-0.616C0.171,-0.616 0.159,-0.611 0.15,-0.602C0.141,-0.592 0.136,-0.58 0.136,-0.565L0.136,-0.147Z" style="fill:rgb(5,5,5);fill-rule:nonzero;"/>
            </g>
            <g transform="matrix(14,0,0,14,98.4279,118.306)">
                <path d="M0.057,-0L0.236,-0.616L0.124,-0.616L0.124,-0.534L0.034,-0.534L0.034,-0.712L0.338,-0.712L0.338,-0.61L0.165,-0L0.057,-0Z" style="fill:rgb(5,5,5);fill-rule:nonzero;"/>
            </g>
        </g>
        <g id="Active-ledbutton1" serif:id="Active#ledbutton" transform="matrix(1,0,0,1,-1.67651,44.5955)">
            <circle cx="101.308" cy="310.24" r="9.898" style="fill:rgb(115,115,115);"/>
        </g>
        <g id="Length-knob-21" serif:id="Length#knob$2" transform="matrix(0.758898,0,0,0.758898,56.7181,73.1068)">
            <circle cx="55.661" cy="308.513" r="7.929"/>
        </g>
        <g id="Ticks-slider1" serif:id="Ticks#slider" transform="matrix(0.0833124,0,0,3.87469,85.8853,-502.23)">
            <rect x="92.975" y="182.872" width="144.036" height="20.647" style="fill:rgb(217,217,217);"/>
        </g>
        <g id="Pitch-slider1" serif:id="Pitch#slider" transform="matrix(0.0833124,0,0,3.87469,85.8853,-593.858)">
            <rect x="92.975" y="182.872" width="144.036" height="20.647" style="fill:rgb(217,217,217);"/>
        </g>
        <g id="Chance-knob-11" serif:id="Chance#knob$1" transform="matrix(0.758898,0,0,0.758898,56.7181,-148.893)">
            <circle cx="55.661" cy="308.513" r="7.929"/>
        </g>
        <g id="Current-led1" serif:id="Current#led" transform="matrix(1,0,0,1,57.4648,-267.444)">
            <circle cx="42.167" cy="335.861" r="3.82" style="fill:rgb(230,230,230);"/>
        </g>
        <g transform="matrix(1,0,0,1,1.24349,-60.7634)">
            <g transform="matrix(14,0,0,14,93.2199,118.306)">
                <path d="M0.034,-0.565C0.034,-0.589 0.038,-0.61 0.047,-0.629C0.055,-0.648 0.066,-0.664 0.08,-0.677C0.094,-0.69 0.11,-0.701 0.129,-0.708C0.147,-0.715 0.166,-0.718 0.186,-0.718C0.206,-0.718 0.225,-0.715 0.244,-0.708C0.262,-0.701 0.278,-0.69 0.292,-0.677C0.306,-0.664 0.317,-0.648 0.326,-0.629C0.334,-0.61 0.338,-0.589 0.338,-0.565L0.338,-0.147C0.338,-0.123 0.334,-0.102 0.326,-0.083C0.317,-0.064 0.306,-0.048 0.292,-0.035C0.278,-0.022 0.262,-0.012 0.244,-0.005C0.225,0.003 0.206,0.006 0.186,0.006C0.166,0.006 0.147,0.003 0.129,-0.005C0.11,-0.012 0.094,-0.022 0.08,-0.035C0.066,-0.048 0.055,-0.064 0.047,-0.083C0.038,-0.102 0.034,-0.123 0.034,-0.147L0.034,-0.565ZM0.136,-0.147C0.136,-0.132 0.141,-0.12 0.15,-0.111C0.159,-0.101 0.171,-0.096 0.186,-0.096C0.201,-0.096 0.213,-0.101 0.222,-0.111C0.231,-0.12 0.236,-0.132 0.236,-0.147L0.236,-0.565C0.236,-0.58 0.231,-0.592 0.222,-0.602C0.213,-0.611 0.201,-0.616 0.186,-0.616C0.171,-0.616 0.159,-0.611 0.15,-0.602C0.141,-0.592 0.136,-0.58 0.136,-0.565L0.136,-0.147Z" style="fill:rgb(5,5,5);fill-rule:nonzero;"/>
            </g>
            <g transform="matrix(14,0,0,14,98.4279,118.306)">
                <path d="M0.057,-0L0.236,-0.616L0.124,-0.616L0.124,-0.534L0.034,-0.534L0.034,-0.712L0.338,-0.712L0.338,-0.61L0.165,-0L0.057,-0Z" style="fill:rgb(5,5,5);fill-rule:nonzero;"/>
            </g>
        </g>
    </g>
    <g id="Seg06" transform="matrix(1,0,0,1,51.548,-10.6269)">
        <g transform="matrix(1,0,0,1,1.24349,262.237)">
            <g transform="matrix(14,0,0,14,93.2199,118.306)">
                <path d="M0.034,-0.565C0.034,-0.589 0.038,-0.61 0.047,-0.629C0.055,-0.648 0.066,-0.664 0.08,-0.677C0.094,-0.69 0.11,-0.701 0.129,-0.708C0.147,-0.715 0.166,-0.718 0.186,-0.718C0.206,-0.718 0.225,-0.715 0.244,-0.708C0.262,-0.701 0.278,-0.69 0.292,-0.677C0.306,-0.664 0.317,-0.648 0.326,-0.629C0.334,-0.61 0.338,-0.589 0.338,-0.565L0.338,-0.147C0.338,-0.123 0.334,-0.102 0.326,-0.083C0.317,-0.064 0.306,-0.048 0.292,-0.035C0.278,-0.022 0.262,-0.012 0.244,-0.005C0.225,0.003 0.206,0.006 0.186,0.006C0.166,0.006 0.147,0.003 0.129,-0.005C0.11,-0.012 0.094,-0.022 0.08,-0.035C0.066,-0.048 0.055,-0.064 0.047,-0.083C0.038,-0.102 0.034,-0.123 0.034,-0.147L0.034,-0.565ZM0.136,-0.147C0.136,-0.132 0.141,-0.12 0.15,-0.111C0.159,-0.101 0.171,-0.096 0.186,-0.096C0.201,-0.096 0.213,-0.101 0.222,-0.111C0.231,-0.12 0.236,-0.132 0.236,-0.147L0.236,-0.565C0.236,-0.58 0.231,-0.592 0.222,-0.602C0.213,-0.611 0.201,-0.616 0.186,-0.616C0.171,-0.616 0.159,-0.611 0.15,-0.602C0.141,-0.592 0.136,-0.58 0.136,-0.565L0.136,-0.147Z" style="fill:rgb(5,5,5);fill-rule:nonzero;"/>
            </g>
            <g transform="matrix(14,0,0,14,98.4279,118.306)">
                <path d="M0.301,-0.712L0.185,-0.413L0.187,-0.411C0.19,-0.414 0.196,-0.416 0.203,-0.418C0.21,-0.419 0.219,-0.42 0.23,-0.42C0.248,-0.42 0.265,-0.416 0.28,-0.407C0.295,-0.398 0.307,-0.387 0.316,-0.374C0.321,-0.367 0.324,-0.359 0.327,-0.352C0.33,-0.345 0.332,-0.335 0.334,-0.323C0.335,-0.311 0.336,-0.296 0.337,-0.278C0.338,-0.259 0.338,-0.236 0.338,-0.208C0.338,-0.185 0.338,-0.166 0.337,-0.151C0.336,-0.135 0.335,-0.123 0.334,-0.113C0.332,-0.102 0.33,-0.093 0.327,-0.086C0.324,-0.079 0.32,-0.071 0.315,-0.063C0.302,-0.041 0.284,-0.024 0.262,-0.012C0.239,0 0.214,0.006 0.186,0.006C0.158,0.006 0.133,-0 0.111,-0.013C0.089,-0.025 0.071,-0.042 0.058,-0.063C0.053,-0.071 0.049,-0.079 0.046,-0.086C0.043,-0.093 0.04,-0.102 0.039,-0.113C0.037,-0.123 0.036,-0.135 0.035,-0.151C0.034,-0.166 0.034,-0.185 0.034,-0.208C0.034,-0.23 0.034,-0.248 0.035,-0.263C0.036,-0.277 0.037,-0.289 0.038,-0.3C0.039,-0.31 0.041,-0.319 0.044,-0.328C0.047,-0.336 0.05,-0.345 0.053,-0.354L0.187,-0.712L0.301,-0.712ZM0.236,-0.279C0.236,-0.294 0.231,-0.307 0.221,-0.316C0.211,-0.325 0.199,-0.33 0.186,-0.33C0.173,-0.33 0.161,-0.325 0.151,-0.316C0.141,-0.307 0.136,-0.294 0.136,-0.279L0.136,-0.147C0.136,-0.132 0.141,-0.119 0.151,-0.11C0.161,-0.101 0.173,-0.096 0.186,-0.096C0.199,-0.096 0.211,-0.101 0.221,-0.11C0.231,-0.119 0.236,-0.132 0.236,-0.147L0.236,-0.279Z" style="fill:rgb(5,5,5);fill-rule:nonzero;"/>
            </g>
        </g>
        <g id="Active-ledbutton2" serif:id="Active#ledbutton" transform="matrix(1,0,0,1,-1.67651,44.5955)">
            <circle cx="101.308" cy="310.24" r="9.898" style="fill:rgb(115,115,115);"/>
        </g>
        <g id="Length-knob-22" serif:id="Length#knob$2" transform="matrix(0.758898,0,0,0.758898,56.7181,90.1068)">
            <circle cx="55.661" cy="308.513" r="7.929"/>
        </g>
        <g id="Ticks-slider2" serif:id="Ticks#slider" transform="matrix(0.0833124,0,0,3.87469,85.8853,-502.23)">
            <rect x="92.975" y="182.872" width="144.036" height="20.647" style="fill:rgb(217,217,217);"/>
        </g>
        <g id="Pitch-slider2" serif:id="Pitch#slider" transform="matrix(0.0833124,0,0,3.87469,85.8853,-593.858)">
            <rect x="92.975" y="182.872" width="144.036" height="20.647" style="fill:rgb(217,217,217);"/>
        </g>
        <g id="Chance-knob-12" serif:id="Chance#knob$1" transform="matrix(0.758898,0,0,0.758898,56.7181,-131.893)">
            <circle cx="55.661" cy="308.513" r="7.929"/>
        </g>
        <g id="Current-led2" serif:id="Current#led" transform="matrix(1,0,0,1,57.4648,-267.444)">
            <circle cx="42.167" cy="335.861" r="3.82" style="fill:rgb(230,230,230);"/>
        </g>
        <g transform="matrix(1,0,0,1,1.24349,-60.7634)">
            <g transform="matrix(14,0,0,14,93.2199,118.306)">
                <path d="M0.034,-0.565C0.034,-0.589 0.038,-0.61 0.047,-0.629C0.055,-0.648 0.066,-0.664 0.08,-0.677C0.094,-0.69 0.11,-0.701 0.129,-0.708C0.147,-0.715 0.166,-0.718 0.186,-0.718C0.206,-0.718 0.225,-0.715 0.244,-0.708C0.262,-0.701 0.278,-0.69 0.292,-0.677C0.306,-0.664 0.317,-0.648 0.326,-0.629C0.334,-0.61 0.338,-0.589 0.338,-0.565L0.338,-0.147C0.338,-0.123 0.334,-0.102 0.326,-0.083C0.317,-0.064 0.306,-0.048 0.292,-0.035C0.278,-0.022 0.262,-0.012 0.244,-0.005C0.225,0.003 0.206,0.006 0.186,0.006C0.166,0.006 0.147,0.003 0.129,-0.005C0.11,-0.012 0.094,-0.022 0.08,-0.035C0.066,-0.048 0.055,-0.064 0.047,-0.083C0.038,-0.102 0.034,-0.123 0.034,-0.147L0.034,-0.565ZM0.136,-0.147C0.136,-0.132 0.141,-0.12 0.15,-0.111C0.159,-0.101 0.171,-0.096 0.186,-0.096C0.201,-0.096 0.213,-0.101 0.222,-0.111C0.231,-0.12 0.236,-0.132 0.236,-0.147L0.236,-0.565C0.236,-0.58 0.231,-0.592 0.222,-0.602C0.213,-0.611 0.201,-0.616 0.186,-0.616C0.171,-0.616 0.159,-0.611 0.15,-0.602C0.141,-0.592 0.136,-0.58 0.136,-0.565L0.136,-0.147Z" style="fill:rgb(5,5,5);fill-rule:nonzero;"/>
            </g>
            <g transform="matrix(14,0,0,14,98.4279,118.306)">
                <path d="M0.301,-0.712L0.185,-0.413L0.187,-0.411C0.19,-0.414 0.196,-0.416 0.203,-0.418C0.21,-0.419 0.219,-0.42 0.23,-0.42C0.248,-0.42 0.265,-0.416 0.28,-0.407C0.295,-0.398 0.307,-0.387 0.316,-0.374C0.321,-0.367 0.324,-0.359 0.327,-0.352C0.33,-0.345 0.332,-0.335 0.334,-0.323C0.335,-0.311 0.336,-0.296 0.337,-0.278C0.338,-0.259 0.338,-0.236 0.338,-0.208C0.338,-0.185 0.338,-0.166 0.337,-0.151C0.336,-0.135 0.335,-0.123 0.334,-0.113C0.332,-0.102 0.33,-0.093 0.327,-0.086C0.324,-0.079 0.32,-0.071 0.315,-0.063C0.302,-0.041 0.284,-0.024 0.262,-0.012C0.239,0 0.214,0.006 0.186,0.006C0.158,0.006 0.133,-0 0.111,-0.013C0.089,-0.025 0.071,-0.042 0.058,-0.063C0.053,-0.071 0.049,-0.079 0.046,-0.086C0.043,-0.093 0.04,-0.102 0.039,-0.113C0.037,-0.123 0.036,-0.135 0.035,-0.151C0.034,-0.166 0.034,-0.185 0.034,-0.208C0.034,-0.23 0.034,-0.248 0.035,-0.263C0.036,-0.277 0.037,-0.289 0.038,-0.3C0.039,-0.31 0.041,-0.319 0.044,-0.328C0.047,-0.336 0.05,-0.345 0.053,-0.354L0.187,-0.712L0.301,-0.712ZM0.236,-0.279C0.236,-0.294 0.231,-0.307 0.221,-0.316C0.211,-0.325 0.199,-0.33 0.186,-0.33C0.173,-0.33 0.161,-0.325 0.151,-0.316C0.141,-0.307 0.136,-0.294 0.136,-0.279L0.136,-0.147C0.136,-0.132 0.141,-0.119 0.151,-0.11C0.161,-0.101 0.173,-0.096 0.186,-0.096C0.199,-0.096 0.211,-0.101 0.221,-0.11C0.231,-0.119 0.236,-0.132 0.236,-0.147L0.236,-0.279Z" style="fill:rgb(5,5,5);fill-rule:nonzero;"/>
            </g>
        </g>
    </g>
    <g id="Seg05" transform="matrix(1,0,0,1,25.7618,-10.6269)">
        <g transform="matrix(1,0,0,1,1.24349,262.237)">
            <g transform="matrix(14,0,0,14,93.2199,118.306)">
                <path d="M0.034,-0.565C0.034,-0.589 0.038,-0.61 0.047,-0.629C0.055,-0.648 0.066,-0.664 0.08,-0.677C0.094,-0.69 0.11,-0.701 0.129,-0.708C0.147,-0.715 0.166,-0.718 0.186,-0.718C0.206,-0.718 0.225,-0.715 0.244,-0.708C0.262,-0.701 0.278,-0.69 0.292,-0.677C0.306,-0.664 0.317,-0.648 0.326,-0.629C0.334,-0.61 0.338,-0.589 0.338,-0.565L0.338,-0.147C0.338,-0.123 0.334,-0.102 0.326,-0.083C0.317,-0.064 0.306,-0.048 0.292,-0.035C0.278,-0.022 0.262,-0.012 0.244,-0.005C0.225,0.003 0.206,0.006 0.186,0.006C0.166,0.006 0.147,0.003 0.129,-0.005C0.11,-0.012 0.094,-0.022 0.08,-0.035C0.066,-0.048 0.055,-0.064 0.047,-0.083C0.038,-0.102 0.034,-0.123 0.034,-0.147L0.034,-0.565ZM0.136,-0.147C0.136,-0.132 0.141,-0.12 0.15,-0.111C0.159,-0.101 0.171,-0.096 0.186,-0.096C0.201,-0.096 0.213,-0.101 0.222,-0.111C0.231,-0.12 0.236,-0.132 0.236,-0.147L0.236,-0.565C0.236,-0.58 0.231,-0.592 0.222,-0.602C0.213,-0.611 0.201,-0.616 0.186,-0.616C0.171,-0.616 0.159,-0.611 0.15,-0.602C0.141,-0.592 0.136,-0.58 0.136,-0.565L0.136,-0.147Z" style="fill:rgb(5,5,5);fill-rule:nonzero;"/>
            </g>
            <g transform="matrix(14,0,0,14,98.4279,118.306)">
                <path d="M0.338,-0.712L0.338,-0.616L0.136,-0.616L0.136,-0.424C0.145,-0.433 0.157,-0.441 0.172,-0.448C0.187,-0.454 0.203,-0.457 0.221,-0.457C0.256,-0.457 0.284,-0.447 0.306,-0.426C0.327,-0.405 0.338,-0.373 0.338,-0.331L0.338,-0.147C0.338,-0.123 0.334,-0.102 0.326,-0.083C0.317,-0.064 0.306,-0.048 0.292,-0.035C0.278,-0.022 0.262,-0.012 0.244,-0.005C0.225,0.003 0.206,0.006 0.186,0.006C0.166,0.006 0.147,0.003 0.129,-0.005C0.11,-0.012 0.094,-0.022 0.08,-0.035C0.066,-0.048 0.055,-0.064 0.047,-0.083C0.038,-0.102 0.034,-0.123 0.034,-0.147L0.034,-0.177L0.136,-0.177L0.136,-0.151C0.136,-0.134 0.141,-0.12 0.151,-0.111C0.16,-0.101 0.173,-0.096 0.188,-0.096C0.203,-0.096 0.215,-0.101 0.224,-0.11C0.232,-0.119 0.236,-0.132 0.236,-0.149L0.236,-0.316C0.236,-0.33 0.232,-0.342 0.223,-0.352C0.214,-0.362 0.202,-0.367 0.188,-0.367C0.179,-0.367 0.172,-0.366 0.166,-0.363C0.16,-0.36 0.155,-0.356 0.151,-0.352C0.147,-0.348 0.144,-0.344 0.142,-0.339C0.139,-0.333 0.137,-0.329 0.136,-0.328L0.046,-0.328L0.046,-0.712L0.338,-0.712Z" style="fill:rgb(5,5,5);fill-rule:nonzero;"/>
            </g>
        </g>
        <g id="Active-ledbutton3" serif:id="Active#ledbutton" transform="matrix(1,0,0,1,-1.67651,44.5955)">
            <circle cx="101.308" cy="310.24" r="9.898" style="fill:rgb(115,115,115);"/>
        </g>
        <g id="Length-knob-23" serif:id="Length#knob$2" transform="matrix(0.758898,0,0,0.758898,56.7181,73.1068)">
            <circle cx="55.661" cy="308.513" r="7.929"/>
        </g>
        <g id="Ticks-slider3" serif:id="Ticks#slider" transform="matrix(0.0833124,0,0,3.87469,85.8853,-502.23)">
            <rect x="92.975" y="182.872" width="144.036" height="20.647" style="fill:rgb(217,217,217);"/>
        </g>
        <g id="Pitch-slider3" serif:id="Pitch#slider" transform="matrix(0.0833124,0,0,3.87469,85.8853,-593.858)">
            <rect x="92.975" y="182.872" width="144.036" height="20.647" style="fill:rgb(217,217,217);"/>
        </g>
        <g id="Chance-knob-13" serif:id="Chance#knob$1" transform="matrix(0.758898,0,0,0.758898,56.7181,-148.893)">
            <circle cx="55.661" cy="308.513" r="7.929"/>
        </g>
        <g id="Current-led3" serif:id="Current#led" transform="matrix(1,0,0,1,57.4648,-267.444)">
            <circle cx="42.167" cy="335.861" r="3.82" style="fill:rgb(230,230,230);"/>
        </g>
        <g transform="matrix(1,0,0,1,1.24349,-60.7634)">
            <g transform="matrix(14,0,0,14,93.2199,118.306)">
                <path d="M0.034,-0.565C0.034,-0.589 0.038,-0.61 0.047,-0.629C0.055,-0.648 0.066,-0.664 0.08,-0.677C0.094,-0.69 0.11,-0.701 0.129,-0.708C0.147,-0.715 0.166,-0.718 0.186,-0.718C0.206,-0.718 0.225,-0.715 0.244,-0.708C0.262,-0.701 0.278,-0.69 0.292,-0.677C0.306,-0.664 0.317,-0.648 0.326,-0.629C0.334,-0.61 0.338,-0.589 0.338,-0.565L0.338,-0.147C0.338,-0.123 0.334,-0.102 0.326,-0.083C0.317,-0.064 0.306,-0.048 0.292,-0.035C0.278,-0.022 0.262,-0.012 0.244,-0.005C0.225,0.003 0.206,0.006 0.186,0.006C0.166,0.006 0.147,0.003 0.129,-0.005C0.11,-0.012 0.094,-0.022 0.08,-0.035C0.066,-0.048 0.055,-0.064 0.047,-0.083C0.038,-0.102 0.034,-0.123 0.034,-0.147L0.034,-0.565ZM0.136,-0.147C0.136,-0.132 0.141,-0.12 0.15,-0.111C0.159,-0.101 0.171,-0.096 0.186,-0.096C0.201,-0.096 0.213,-0.101 0.222,-0.111C0.231,-0.12 0.236,-0.132 0.236,-0.147L0.236,-0.565C0.236,-0.58 0.231,-0.592 0.222,-0.602C0.213,-0.611 0.201,-0.616 0.186,-0.616C0.171,-0.616 0.159,-0.611 0.15,-0.602C0.141,-0.592 0.136,-0.58 0.136,-0.565L0.136,-0.147Z" style="fill:rgb(5,5,5);fill-rule:nonzero;"/>
            </g>
            <g transform="matrix(14,0,0,14,98.4279,118.306)">
                <path d="M0.338,-0.712L0.338,-0.616L0.136,-0.616L0.136,-0.424C0.145,-0.433 0.157,-0.441 0.172,-0.448C0.187,-0.454 0.203,-0.457 0.221,-0.457C0.256,-0.457 0.284,-0.447 0.306,-0.426C0.327,-0.405 0.338,-0.373 0.338,-0.331L0.338,-0.147C0.338,-0.123 0.334,-0.102 0.326,-0.083C0.317,-0.064 0.306,-0.048 0.292,-0.035C0.278,-0.022 0.262,-0.012 0.244,-0.005C0.225,0.003 0.206,0.006 0.186,0.006C0.166,0.006 0.147,0.003 0.129,-0.005C0.11,-0.012 0.094,-0.022 0.08,-0.035C0.066,-0.048 0.055,-0.064 0.047,-0.083C0.038,-0.102 0.034,-0.123 0.034,-0.147L0.034,-0.177L0.136,-0.177L0.136,-0.151C0.136,-0.134 0.141,-0.12 0.151,-0.111C0.16,-0.101 0.173,-0.096 0.188,-0.096C0.203,-0.096 0.215,-0.101 0.224,-0.11C0.232,-0.119 0.236,-0.132 0.236,-0.149L0.236,-0.316C0.236,-0.33 0.232,-0.342 0.223,-0.352C0.214,-0.362 0.202,-0.367 0.188,-0.367C0.179,-0.367 0.172,-0.366 0.166,-0.363C0.16,-0.36 0.155,-0.356 0.151,-0.352C0.147,-0.348 0.144,-0.344 0.142,-0.339C0.139,-0.333 0.137,-0.329 0.136,-0.328L0.046,-0.328L0.046,-0.712L0.338,-0.712Z" style="fill:rgb(5,5,5);fill-rule:nonzero;"/>
            </g>
        </g>
    </g>
    <g id="Seg04" transform="matrix(1,0,0,1,-0.0244518,-10.6269)">
        <g transform="matrix(1,0,0,1,1.24349,262.237)">
            <g transform="matrix(14,0,0,14,93.2199,118.306)">
                <path d="M0.034,-0.565C0.034,-0.589 0.038,-0.61 0.047,-0.629C0.055,-0.648 0.066,-0.664 0.08,-0.677C0.094,-0.69 0.11,-0.701 0.129,-0.708C0.147,-0.715 0.166,-0.718 0.186,-0.718C0.206,-0.718 0.225,-0.715 0.244,-0.708C0.262,-0.701 0.278,-0.69 0.292,-0.677C0.306,-0.664 0.317,-0.648 0.326,-0.629C0.334,-0.61 0.338,-0.589 0.338,-0.565L0.338,-0.147C0.338,-0.123 0.334,-0.102 0.326,-0.083C0.317,-0.064 0.306,-0.048 0.292,-0.035C0.278,-0.022 0.262,-0.012 0.244,-0.005C0.225,0.003 0.206,0.006 0.186,0.006C0.166,0.006 0.147,0.003 0.129,-0.005C0.11,-0.012 0.094,-0.022 0.08,-0.035C0.066,-0.048 0.055,-0.064 0.047,-0.083C0.038,-0.102 0.034,-0.123 0.034,-0.147L0.034,-0.565ZM0.136,-0.147C0.136,-0.132 0.141,-0.12 0.15,-0.111C0.159,-0.101 0.171,-0.096 0.186,-0.096C0.201,-0.096 0.213,-0.101 0.222,-0.111C0.231,-0.12 0.236,-0.132 0.236,-0.147L0.236,-0.565C0.236,-0.58 0.231,-0.592 0.222,-0.602C0.213,-0.611 0.201,-0.616 0.186,-0.616C0.171,-0.616 0.159,-0.611 0.15,-0.602C0.141,-0.592 0.136,-0.58 0.136,-0.565L0.136,-0.147Z" style="fill:rgb(5,5,5);fill-rule:nonzero;"/>
            </g>
            <g transform="matrix(14,0,0,14,98.4279,118.306)">
                <path d="M0.212,-0L0.212,-0.106L0.009,-0.106L0.009,-0.202L0.156,-0.712L0.264,-0.712L0.111,-0.202L0.212,-0.202L0.212,-0.405L0.314,-0.405L0.314,-0.202L0.363,-0.202L0.363,-0.106L0.314,-0.106L0.314,-0L0.212,-0Z" style="fill:rgb(5,5,5);fill-rule:nonzero;"/>
            </g>
        </g>
        <g id="Active-ledbutton4" serif:id="Active#ledbutton" transform="matrix(1,0,0,1,-1.67651,44.5955)">
            <circle cx="101.308" cy="310.24" r="9.898" style="fill:rgb(115,115,115);"/>
        </g>
        <g id="Length-knob-24" serif:id="Length#knob$2" transform="matrix(0.758898,0,0,0.758898,56.7181,90.1068)">
            <circle cx="55.661" cy="308.513" r="7.929"/>
        </g>
        <g id="Ticks-slider4" serif:id="Ticks#slider" transform="matrix(0.0833124,0,0,3.87469,85.8853,-502.23)">
            <rect x="92.975" y="182.872" width="144.036" height="20.647" style="fill:rgb(217,217,217);"/>
        </g>
        <g id="Pitch-slider4" serif:id="Pitch#slider" transform="matrix(0.0833124,0,0,3.87469,85.8853,-593.858)">
            <rect x="92.975" y="182.872" width="144.036" height="20.647" style="fill:rgb(217,217,217);"/>
        </g>
        <g id="Chance-knob-14" serif:id="Chance#knob$1" transform="matrix(0.758898,0,0,0.758898,56.7181,-131.893)">
            <circle cx="55.661" cy="308.513" r="7.929"/>
        </g>
        <g id="Current-led4" serif:id="Current#led" transform="matrix(1,0,0,1,57.4648,-267.444)">
            <circle cx="42.167" cy="335.861" r="3.82" style="fill:rgb(230,230,230);"/>
        </g>
        <g transform="matrix(1,0,0,1,1.24349,-60.7634)">
            <g transform="matrix(14,0,0,14,93.2199,118.306)">
                <path d="M0.034,-0.565C0.034,-0.589 0.038,-0.61 0.047,-0.629C0.055,-0.648 0.066,-0.664 0.08,-0.677C0.094,-0.69 0.11,-0.701 0.129,-0.708C0.147,-0.715 0.166,-0.718 0.186,-0.718C0.206,-0.718 0.225,-0.715 0.244,-0.708C0.262,-0.701 0.278,-0.69 0.292,-0.677C0.306,-0.664 0.317,-0.648 0.326,-0.629C0.334,-0.61 0.338,-0.589 0.338,-0.565L0.338,-0.147C0.338,-0.123 0.334,-0.102 0.326,-0.083C0.317,-0.064 0.306,-0.048 0.292,-0.035C0.278,-0.022 0.262,-0.012 0.244,-0.005C0.225,0.003 0.206,0.006 0.186,0.006C0.166,0.006 0.147,0.003 0.129,-0.005C0.11,-0.012 0.094,-0.022 0.08,-0.035C0.066,-0.048 0.055,-0.064 0.047,-0.083C0.038,-0.102 0.034,-0.123 0.034,-0.147L0.034,-0.565ZM0.136,-0.147C0.136,-0.132 0.141,-0.12 0.15,-0.111C0.159,-0.101 0.171,-0.096 0.186,-0.096C0.201,-0.096 0.213,-0.101 0.222,-0.111C0.231,-0.12 0.236,-0.132 0.236,-0.147L0.236,-0.565C0.236,-0.58 0.231,-0.592 0.222,-0.602C0.213,-0.611 0.201,-0.616 0.186,-0.616C0.171,-0.616 0.159,-0.611 0.15,-0.602C0.141,-0.592 0.136,-0.58 0.136,-0.565L0.136,-0.147Z" style="fill:rgb(5,5,5);fill-rule:nonzero;"/>
            </g>
            <g transform="matrix(14,0,0,14,98.4279,118.306)">
                <path d="M0.212,-0L0.212,-0.106L0.009,-0.106L0.009,-0.202L0.156,-0.712L0.264,-0.712L0.111,-0.202L0.212,-0.202L0.212,-0.405L0.314,-0.405L0.314,-0.202L0.363,-0.202L0.363,-0.106L0.314,-0.106L0.314,-0L0.212,-0Z" style="fill:rgb(5,5,5);fill-rule:nonzero;"/>
            </g>
        </g>
    </g>
    <g id="Seg03" transform="matrix(1,0,0,1,-25.8107,-10.6269)">
        <g transform="matrix(1,0,0,1,1.24349,262.237)">
            <g transform="matrix(14,0,0,14,93.2199,118.306)">
                <path d="M0.034,-0.565C0.034,-0.589 0.038,-0.61 0.047,-0.629C0.055,-0.648 0.066,-0.664 0.08,-0.677C0.094,-0.69 0.11,-0.701 0.129,-0.708C0.147,-0.715 0.166,-0.718 0.186,-0.718C0.206,-0.718 0.225,-0.715 0.244,-0.708C0.262,-0.701 0.278,-0.69 0.292,-0.677C0.306,-0.664 0.317,-0.648 0.326,-0.629C0.334,-0.61 0.338,-0.589 0.338,-0.565L0.338,-0.147C0.338,-0.123 0.334,-0.102 0.326,-0.083C0.317,-0.064 0.306,-0.048 0.292,-0.035C0.278,-0.022 0.262,-0.012 0.244,-0.005C0.225,0.003 0.206,0.006 0.186,0.006C0.166,0.006 0.147,0.003 0.129,-0.005C0.11,-0.012 0.094,-0.022 0.08,-0.035C0.066,-0.048 0.055,-0.064 0.047,-0.083C0.038,-0.102 0.034,-0.123 0.034,-0.147L0.034,-0.565ZM0.136,-0.147C0.136,-0.132 0.141,-0.12 0.15,-0.111C0.159,-0.101 0.171,-0.096 0.186,-0.096C0.201,-0.096 0.213,-0.101 0.222,-0.111C0.231,-0.12 0.236,-0.132 0.236,-0.147L0.236,-0.565C0.236,-0.58 0.231,-0.592 0.222,-0.602C0.213,-0.611 0.201,-0.616 0.186,-0.616C0.171,-0.616 0.159,-0.611 0.15,-0.602C0.141,-0.592 0.136,-0.58 0.136,-0.565L0.136,-0.147Z" style="fill:rgb(5,5,5);fill-rule:nonzero;"/>
            </g>
            <g transform="matrix(14,0,0,14,98.4279,118.306)">
                <path d="M0.155,-0.412C0.186,-0.412 0.207,-0.416 0.219,-0.423C0.23,-0.43 0.236,-0.447 0.236,-0.474L0.236,-0.566C0.236,-0.581 0.232,-0.593 0.223,-0.602C0.214,-0.611 0.201,-0.616 0.186,-0.616C0.168,-0.616 0.155,-0.61 0.148,-0.599C0.14,-0.588 0.136,-0.577 0.136,-0.566L0.136,-0.508L0.034,-0.508L0.034,-0.567C0.034,-0.588 0.038,-0.607 0.046,-0.626C0.054,-0.645 0.065,-0.661 0.079,-0.674C0.093,-0.687 0.109,-0.698 0.128,-0.706C0.147,-0.714 0.167,-0.718 0.188,-0.718C0.216,-0.718 0.239,-0.713 0.258,-0.702C0.276,-0.691 0.29,-0.679 0.299,-0.668C0.306,-0.66 0.312,-0.652 0.317,-0.644C0.322,-0.636 0.326,-0.626 0.329,-0.615C0.335,-0.593 0.338,-0.56 0.338,-0.517C0.338,-0.492 0.338,-0.472 0.337,-0.457C0.335,-0.442 0.333,-0.429 0.329,-0.419C0.324,-0.408 0.318,-0.399 0.31,-0.392C0.301,-0.385 0.29,-0.377 0.275,-0.368C0.291,-0.358 0.303,-0.349 0.312,-0.34C0.32,-0.331 0.326,-0.321 0.33,-0.31C0.334,-0.298 0.336,-0.284 0.337,-0.268C0.338,-0.251 0.338,-0.23 0.338,-0.205C0.338,-0.182 0.338,-0.162 0.337,-0.147C0.335,-0.132 0.334,-0.119 0.332,-0.109C0.33,-0.098 0.327,-0.089 0.324,-0.082C0.321,-0.075 0.316,-0.067 0.311,-0.059C0.298,-0.04 0.282,-0.025 0.263,-0.013C0.243,-0 0.217,0.006 0.185,0.006C0.169,0.006 0.152,0.003 0.134,-0.002C0.116,-0.007 0.1,-0.016 0.085,-0.028C0.07,-0.04 0.058,-0.056 0.049,-0.075C0.039,-0.094 0.034,-0.118 0.034,-0.146L0.034,-0.204L0.136,-0.204L0.136,-0.151C0.136,-0.135 0.14,-0.122 0.15,-0.112C0.159,-0.101 0.171,-0.096 0.186,-0.096C0.201,-0.096 0.214,-0.101 0.223,-0.112C0.232,-0.122 0.236,-0.136 0.236,-0.153L0.236,-0.255C0.236,-0.283 0.231,-0.301 0.22,-0.31C0.214,-0.315 0.206,-0.319 0.196,-0.32C0.185,-0.321 0.172,-0.322 0.155,-0.322L0.155,-0.412Z" style="fill:rgb(5,5,5);fill-rule:nonzero;"/>
            </g>
        </g>
        <g id="Active-ledbutton5" serif:id="Active#ledbutton" transform="matrix(1,0,0,1,-1.67651,44.5955)">
            <circle cx="101.308" cy="310.24" r="9.898" style="fill:rgb(115,115,115);"/>
        </g>
        <g id="Length-knob-25" serif:id="Length#knob$2" transform="matrix(0.758898,0,0,0.758898,56.7181,73.1068)">
            <circle cx="55.661" cy="308.513" r="7.929"/>
        </g>
        <g id="Ticks-slider5" serif:id="Ticks#slider" transform="matrix(0.0833124,0,0,3.87469,85.8853,-502.23)">
            <rect x="92.975" y="182.872" width="144.036" height="20.647" style="fill:rgb(217,217,217);"/>
        </g>
        <g id="Pitch-slider5" serif:id="Pitch#slider" transform="matrix(0.0833124,0,0,3.87469,85.8853,-593.858)">
            <rect x="92.975" y="182.872" width="144.036" height="20.647" style="fill:rgb(217,217,217);"/>
        </g>
        <g id="Chance-knob-15" serif:id="Chance#knob$1" transform="matrix(0.758898,0,0,0.758898,56.7181,-148.893)">
            <circle cx="55.661" cy="308.513" r="7.929"/>
        </g>
        <g id="Current-led5" serif:id="Current#led" transform="matrix(1,0,0,1,57.4648,-267.444)">
            <circle cx="42.167" cy="335.861" r="3.82" style="fill:rgb(230,230,230);"/>
        </g>
        <g transform="matrix(1,0,0,1,1.24349,-60.7634)">
            <g transform="matrix(14,0,0,14,93.2199,118.306)">
                <path d="M0.034,-0.565C0.034,-0.589 0.038,-0.61 0.047,-0.629C0.055,-0.648 0.066,-0.664 0.08,-0.677C0.094,-0.69 0.11,-0.701 0.129,-0.708C0.147,-0.715 0.166,-0.718 0.186,-0.718C0.206,-0.718 0.225,-0.715 0.244,-0.708C0.262,-0.701 0.278,-0.69 0.292,-0.677C0.306,-0.664 0.317,-0.648 0.326,-0.629C0.334,-0.61 0.338,-0.589 0.338,-0.565L0.338,-0.147C0.338,-0.123 0.334,-0.102 0.326,-0.083C0.317,-0.064 0.306,-0.048 0.292,-0.035C0.278,-0.022 0.262,-0.012 0.244,-0.005C0.225,0.003 0.206,0.006 0.186,0.006C0.166,0.006 0.147,0.003 0.129,-0.005C0.11,-0.012 0.094,-0.022 0.08,-0.035C0.066,-0.048 0.055,-0.064 0.047,-0.083C0.038,-0.102 0.034,-0.123 0.034,-0.147L0.034,-0.565ZM0.136,-0.147C0.136,-0.132 0.141,-0.12 0.15,-0.111C0.159,-0.101 0.171,-0.096 0.186,-0.096C0.201,-0.096 0.213,-0.101 0.222,-0.111C0.231,-0.12 0.236,-0.132 0.236,-0.147L0.236,-0.565C0.236,-0.58 0.231,-0.592 0.222,-0.602C0.213,-0.611 0.201,-0.616 0.186,-0.616C0.171,-0.616 0.159,-0.611 0.15,-0.602C0.141,-0.592 0.136,-0.58 0.136,-0.565L0.136,-0.147Z" style="fill:rgb(5,5,5);fill-rule:nonzero;"/>
            </g>
            <g transform="matrix(14,0,0,14,98.4279,118.306)">
                <path d="M0.155,-0.412C0.186,-0.412 0.207,-0.416 0.219,-0.423C0.23,-0.43 0.236,-0.447 0.236,-0.474L0.236,-0.566C0.236,-0.581 0.232,-0.593 0.223,-0.602C0.214,-0.611 0.201,-0.616 0.186,-0.616C0.168,-0.616 0.155,-0.61 0.148,-0.599C0.14,-0.588 0.136,-0.577 0.136,-0.566L0.136,-0.508L0.034,-0.508L0.034,-0.567C0.034,-0.588 0.038,-0.607 0.046,-0.626C0.054,-0.645 0.065,-0.661 0.079,-0.674C0.093,-0.687 0.109,-0.698 0.128,-0.706C0.147,-0.714 0.167,-0.718 0.188,-0.718C0.216,-0.718 0.239,-0.713 0.258,-0.702C0.276,-0.691 0.29,-0.679 0.299,-0.668C0.306,-0.66 0.312,-0.652 0.317,-0.644C0.322,-0.636 0.326,-0.626 0.329,-0.615C0.335,-0.593 0.338,-0.56 0.338,-0.517C0.338,-0.492 0.338,-0.472 0.337,-0.457C0.335,-0.442 0.333,-0.429 0.329,-0.419C0.324,-0.408 0.318,-0.399 0.31,-0.392C0.301,-0.385 0.29,-0.377 0.275,-0.368C0.291,-0.358 0.303,-0.349 0.312,-0.34C0.32,-0.331 0.326,-0.321 0.33,-0.31C0.334,-0.298 0.336,-0.284 0.337,-0.268C0.338,-0.251 0.338,-0.23 0.338,-0.205C0.338,-0.182 0.338,-0.162 0.337,-0.147C0.335,-0.132 0.334,-0.119 0.332,-0.109C0.33,-0.098 0.327,-0.089 0.324,-0.082C0.321,-0.075 0.316,-0.067 0.311,-0.059C0.298,-0.04 0.282,-0.025 0.263,-0.013C0.243,-0 0.217,0.006 0.185,0.006C0.169,0.006 0.152,0.003 0.134,-0.002C0.116,-0.007 0.1,-0.016 0.085,-0.028C0.07,-0.04 0.058,-0.056 0.049,-0.075C0.039,-0.094 0.034,-0.118 0.034,-0.146L0.034,-0.204L0.136,-0.204L0.136,-0.151C0.136,-0.135 0.14,-0.122 0.15,-0.112C0.159,-0.101 0.171,-0.096 0.186,-0.096C0.201,-0.096 0.214,-0.101 0.223,-0.112C0.232,-0.122 0.236,-0.136 0.236,-0.153L0.236,-0.255C0.236,-0.283 0.231,-0.301 0.22,-0.31C0.214,-0.315 0.206,-0.319 0.196,-0.32C0.185,-0.321 0.172,-0.322 0.155,-0.322L0.155,-0.412Z" style="fill:rgb(5,5,5);fill-rule:nonzero;"/>
            </g>
        </g>
    </g>
    <g id="Seg02" transform="matrix(1,0,0,1,-51.5969,-10.6269)">
        <g transform="matrix(1,0,0,1,1.24349,262.237)">
            <g transform="matrix(14,0,0,14,93.2199,118.306)">
                <path d="M0.034,-0.565C0.034,-0.589 0.038,-0.61 0.047,-0.629C0.055,-0.648 0.066,-0.664 0.08,-0.677C0.094,-0.69 0.11,-0.701 0.129,-0.708C0.147,-0.715 0.166,-0.718 0.186,-0.718C0.206,-0.718 0.225,-0.715 0.244,-0.708C0.262,-0.701 0.278,-0.69 0.292,-0.677C0.306,-0.664 0.317,-0.648 0.326,-0.629C0.334,-0.61 0.338,-0.589 0.338,-0.565L0.338,-0.147C0.338,-0.123 0.334,-0.102 0.326,-0.083C0.317,-0.064 0.306,-0.048 0.292,-0.035C0.278,-0.022 0.262,-0.012 0.244,-0.005C0.225,0.003 0.206,0.006 0.186,0.006C0.166,0.006 0.147,0.003 0.129,-0.005C0.11,-0.012 0.094,-0.022 0.08,-0.035C0.066,-0.048 0.055,-0.064 0.047,-0.083C0.038,-0.102 0.034,-0.123 0.034,-0.147L0.034,-0.565ZM0.136,-0.147C0.136,-0.132 0.141,-0.12 0.15,-0.111C0.159,-0.101 0.171,-0.096 0.186,-0.096C0.201,-0.096 0.213,-0.101 0.222,-0.111C0.231,-0.12 0.236,-0.132 0.236,-0.147L0.236,-0.565C0.236,-0.58 0.231,-0.592 0.222,-0.602C0.213,-0.611 0.201,-0.616 0.186,-0.616C0.171,-0.616 0.159,-0.611 0.15,-0.602C0.141,-0.592 0.136,-0.58 0.136,-0.565L0.136,-0.147Z" style="fill:rgb(5,5,5);fill-rule:nonzero;"/>
            </g>
            <g transform="matrix(14,0,0,14,98.4279,118.306)">
                <path d="M0.034,-0L0.034,-0.096L0.218,-0.443C0.227,-0.46 0.233,-0.476 0.234,-0.489C0.235,-0.501 0.236,-0.518 0.236,-0.537C0.236,-0.546 0.236,-0.555 0.236,-0.565C0.235,-0.574 0.233,-0.583 0.23,-0.59C0.227,-0.597 0.222,-0.604 0.215,-0.609C0.208,-0.614 0.199,-0.616 0.186,-0.616C0.171,-0.616 0.159,-0.612 0.15,-0.603C0.14,-0.594 0.136,-0.582 0.136,-0.565L0.136,-0.507L0.034,-0.507L0.034,-0.563C0.034,-0.584 0.038,-0.604 0.046,-0.623C0.054,-0.642 0.065,-0.658 0.079,-0.672C0.092,-0.686 0.108,-0.697 0.127,-0.706C0.146,-0.714 0.166,-0.718 0.187,-0.718C0.214,-0.718 0.237,-0.713 0.256,-0.704C0.275,-0.694 0.29,-0.681 0.303,-0.664C0.315,-0.647 0.324,-0.628 0.33,-0.607C0.335,-0.586 0.338,-0.563 0.338,-0.539C0.338,-0.522 0.338,-0.507 0.337,-0.496C0.336,-0.484 0.335,-0.473 0.333,-0.462C0.331,-0.451 0.328,-0.441 0.323,-0.43C0.318,-0.419 0.312,-0.406 0.304,-0.391L0.154,-0.102L0.338,-0.102L0.338,-0L0.034,-0Z" style="fill:rgb(5,5,5);fill-rule:nonzero;"/>
            </g>
        </g>
        <g id="Active-ledbutton6" serif:id="Active#ledbutton" transform="matrix(1,0,0,1,-1.67651,44.5955)">
            <circle cx="101.308" cy="310.24" r="9.898" style="fill:rgb(115,115,115);"/>
        </g>
        <g id="Length-knob-26" serif:id="Length#knob$2" transform="matrix(0.758898,0,0,0.758898,56.7181,90.1068)">
            <circle cx="55.661" cy="308.513" r="7.929"/>
        </g>
        <g id="Ticks-slider6" serif:id="Ticks#slider" transform="matrix(0.0833124,0,0,3.87469,85.8853,-502.23)">
            <rect x="92.975" y="182.872" width="144.036" height="20.647" style="fill:rgb(217,217,217);"/>
        </g>
        <g id="Pitch-slider6" serif:id="Pitch#slider" transform="matrix(0.0833124,0,0,3.87469,85.8853,-593.858)">
            <rect x="92.975" y="182.872" width="144.036" height="20.647" style="fill:rgb(217,217,217);"/>
        </g>
        <g id="Chance-knob-16" serif:id="Chance#knob$1" transform="matrix(0.758898,0,0,0.758898,56.7181,-131.893)">
            <circle cx="55.661" cy="308.513" r="7.929"/>
        </g>
        <g id="Current-led6" serif:id="Current#led" transform="matrix(1,0,0,1,57.4648,-267.444)">
            <circle cx="42.167" cy="335.861" r="3.82" style="fill:rgb(230,230,230);"/>
        </g>
        <g transform="matrix(1,0,0,1,1.24349,-60.7634)">
            <g transform="matrix(14,0,0,14,93.2199,118.306)">
                <path d="M0.034,-0.565C0.034,-0.589 0.038,-0.61 0.047,-0.629C0.055,-0.648 0.066,-0.664 0.08,-0.677C0.094,-0.69 0.11,-0.701 0.129,-0.708C0.147,-0.715 0.166,-0.718 0.186,-0.718C0.206,-0.718 0.225,-0.715 0.244,-0.708C0.262,-0.701 0.278,-0.69 0.292,-0.677C0.306,-0.664 0.317,-0.648 0.326,-0.629C0.334,-0.61 0.338,-0.589 0.338,-0.565L0.338,-0.147C0.338,-0.123 0.334,-0.102 0.326,-0.083C0.317,-0.064 0.306,-0.048 0.292,-0.035C0.278,-0.022 0.262,-0.012 0.244,-0.005C0.225,0.003 0.206,0.006 0.186,0.006C0.166,0.006 0.147,0.003 0.129,-0.005C0.11,-0.012 0.094,-0.022 0.08,-0.035C0.066,-0.048 0.055,-0.064 0.047,-0.083C0.038,-0.102 0.034,-0.123 0.034,-0.147L0.034,-0.565ZM0.136,-0.147C0.136,-0.132 0.141,-0.12 0.15,-0.111C0.159,-0.101 0.171,-0.096 0.186,-0.096C0.201,-0.096 0.213,-0.101 0.222,-0.111C0.231,-0.12 0.236,-0.132 0.236,-0.147L0.236,-0.565C0.236,-0.58 0.231,-0.592 0.222,-0.602C0.213,-0.611 0.201,-0.616 0.186,-0.616C0.171,-0.616 0.159,-0.611 0.15,-0.602C0.141,-0.592 0.136,-0.58 0.136,-0.565L0.136,-0.147Z" style="fill:rgb(5,5,5);fill-rule:nonzero;"/>
            </g>
            <g transform="matrix(14,0,0,14,98.4279,118.306)">
                <path d="M0.034,-0L0.034,-0.096L0.218,-0.443C0.227,-0.46 0.233,-0.476 0.234,-0.489C0.235,-0.501 0.236,-0.518 0.236,-0.537C0.236,-0.546 0.236,-0.555 0.236,-0.565C0.235,-0.574 0.233,-0.583 0.23,-0.59C0.227,-0.597 0.222,-0.604 0.215,-0.609C0.208,-0.614 0.199,-0.616 0.186,-0.616C0.171,-0.616 0.159,-0.612 0.15,-0.603C0.14,-0.594 0.136,-0.582 0.136,-0.565L0.136,-0.507L0.034,-0.507L0.034,-0.563C0.034,-0.584 0.038,-0.604 0.046,-0.623C0.054,-0.642 0.065,-0.658 0.079,-0.672C0.092,-0.686 0.108,-0.697 0.127,-0.706C0.146,-0.714 0.166,-0.718 0.187,-0.718C0.214,-0.718 0.237,-0.713 0.256,-0.704C0.275,-0.694 0.29,-0.681 0.303,-0.664C0.315,-0.647 0.324,-0.628 0.33,-0.607C0.335,-0.586 0.338,-0.563 0.338,-0.539C0.338,-0.522 0.338,-0.507 0.337,-0.496C0.336,-0.484 0.335,-0.473 0.333,-0.462C0.331,-0.451 0.328,-0.441 0.323,-0.43C0.318,-0.419 0.312,-0.406 0.304,-0.391L0.154,-0.102L0.338,-0.102L0.338,-0L0.034,-0Z" style="fill:rgb(5,5,5);fill-rule:nonzero;"/>
            </g>
        </g>
    </g>
    <g id="Seg01" transform="matrix(1,0,0,1,-77.3831,-10.6269)">
        <g transform="matrix(1,0,0,1,1.24349,262.237)">
            <g transform="matrix(14,0,0,14,93.2199,118.306)">
                <path d="M0.034,-0.565C0.034,-0.589 0.038,-0.61 0.047,-0.629C0.055,-0.648 0.066,-0.664 0.08,-0.677C0.094,-0.69 0.11,-0.701 0.129,-0.708C0.147,-0.715 0.166,-0.718 0.186,-0.718C0.206,-0.718 0.225,-0.715 0.244,-0.708C0.262,-0.701 0.278,-0.69 0.292,-0.677C0.306,-0.664 0.317,-0.648 0.326,-0.629C0.334,-0.61 0.338,-0.589 0.338,-0.565L0.338,-0.147C0.338,-0.123 0.334,-0.102 0.326,-0.083C0.317,-0.064 0.306,-0.048 0.292,-0.035C0.278,-0.022 0.262,-0.012 0.244,-0.005C0.225,0.003 0.206,0.006 0.186,0.006C0.166,0.006 0.147,0.003 0.129,-0.005C0.11,-0.012 0.094,-0.022 0.08,-0.035C0.066,-0.048 0.055,-0.064 0.047,-0.083C0.038,-0.102 0.034,-0.123 0.034,-0.147L0.034,-0.565ZM0.136,-0.147C0.136,-0.132 0.141,-0.12 0.15,-0.111C0.159,-0.101 0.171,-0.096 0.186,-0.096C0.201,-0.096 0.213,-0.101 0.222,-0.111C0.231,-0.12 0.236,-0.132 0.236,-0.147L0.236,-0.565C0.236,-0.58 0.231,-0.592 0.222,-0.602C0.213,-0.611 0.201,-0.616 0.186,-0.616C0.171,-0.616 0.159,-0.611 0.15,-0.602C0.141,-0.592 0.136,-0.58 0.136,-0.565L0.136,-0.147Z" style="fill:rgb(5,5,5);fill-rule:nonzero;"/>
            </g>
            <g transform="matrix(14,0,0,14,98.4279,118.306)">
                <path d="M0.155,-0L0.155,-0.604L0.053,-0.529L0.053,-0.637L0.155,-0.712L0.257,-0.712L0.257,-0L0.155,-0Z" style="fill:rgb(5,5,5);fill-rule:nonzero;"/>
            </g>
        </g>
        <g id="Active-ledbutton7" serif:id="Active#ledbutton" transform="matrix(1,0,0,1,-1.67651,44.5955)">
            <circle cx="101.308" cy="310.24" r="9.898" style="fill:rgb(115,115,115);"/>
        </g>
        <g id="Length-knob-27" serif:id="Length#knob$2" transform="matrix(0.758898,0,0,0.758898,56.7181,73.1068)">
            <circle cx="55.661" cy="308.513" r="7.929"/>
        </g>
        <g id="Ticks-slider7" serif:id="Ticks#slider" transform="matrix(0.0833124,0,0,3.87469,85.8853,-502.23)">
            <rect x="92.975" y="182.872" width="144.036" height="20.647" style="fill:rgb(217,217,217);"/>
        </g>
        <g id="Pitch-slider7" serif:id="Pitch#slider" transform="matrix(0.0833124,0,0,3.87469,85.8853,-593.858)">
            <rect x="92.975" y="182.872" width="144.036" height="20.647" style="fill:rgb(217,217,217);"/>
        </g>
        <g id="Chance-knob-17" serif:id="Chance#knob$1" transform="matrix(0.758898,0,0,0.758898,56.7181,-148.893)">
            <circle cx="55.661" cy="308.513" r="7.929"/>
        </g>
        <g id="Current-led7" serif:id="Current#led" transform="matrix(1,0,0,1,57.4648,-267.444)">
            <circle cx="42.167" cy="335.861" r="3.82" style="fill:rgb(230,230,230);"/>
        </g>
        <g transform="matrix(1,0,0,1,1.24349,-60.7634)">
            <g transform="matrix(14,0,0,14,93.2199,118.306)">
                <path d="M0.034,-0.565C0.034,-0.589 0.038,-0.61 0.047,-0.629C0.055,-0.648 0.066,-0.664 0.08,-0.677C0.094,-0.69 0.11,-0.701 0.129,-0.708C0.147,-0.715 0.166,-0.718 0.186,-0.718C0.206,-0.718 0.225,-0.715 0.244,-0.708C0.262,-0.701 0.278,-0.69 0.292,-0.677C0.306,-0.664 0.317,-0.648 0.326,-0.629C0.334,-0.61 0.338,-0.589 0.338,-0.565L0.338,-0.147C0.338,-0.123 0.334,-0.102 0.326,-0.083C0.317,-0.064 0.306,-0.048 0.292,-0.035C0.278,-0.022 0.262,-0.012 0.244,-0.005C0.225,0.003 0.206,0.006 0.186,0.006C0.166,0.006 0.147,0.003 0.129,-0.005C0.11,-0.012 0.094,-0.022 0.08,-0.035C0.066,-0.048 0.055,-0.064 0.047,-0.083C0.038,-0.102 0.034,-0.123 0.034,-0.147L0.034,-0.565ZM0.136,-0.147C0.136,-0.132 0.141,-0.12 0.15,-0.111C0.159,-0.101 0.171,-0.096 0.186,-0.096C0.201,-0.096 0.213,-0.101 0.222,-0.111C0.231,-0.12 0.236,-0.132 0.236,-0.147L0.236,-0.565C0.236,-0.58 0.231,-0.592 0.222,-0.602C0.213,-0.611 0.201,-0.616 0.186,-0.616C0.171,-0.616 0.159,-0.611 0.15,-0.602C0.141,-0.592 0.136,-0.58 0.136,-0.565L0.136,-0.147Z" style="fill:rgb(5,5,5);fill-rule:nonzero;"/>
            </g>
            <g transform="matrix(14,0,0,14,98.4279,118.306)">
                <path d="M0.155,-0L0.155,-0.604L0.053,-0.529L0.053,-0.637L0.155,-0.712L0.257,-0.712L0.257,-0L0.155,-0Z" style="fill:rgb(5,5,5);fill-rule:nonzero;"/>
            </g>
        </g>
    </g>
    <g id="Number-lcd-1x10" serif:id="Number#lcd$1x10" transform="matrix(0.187087,0,0,0.564444,-22.3794,-154.376)">
        <rect x="173.071" y="291.218" width="64.141" height="28.346" style="fill:rgb(13,13,13);"/>
    </g>
    <g transform="matrix(0.816456,0,0,0.816456,101.093,-226.739)">
        <g transform="matrix(1,0,0,1,-65.4614,-49.9274)">
            <g transform="matrix(14.6977,0,0,14.6977,76.1884,355.099)">
                <path d="M0.03,-0.021C0.037,-0.021 0.045,-0.021 0.053,-0.022C0.061,-0.022 0.067,-0.023 0.072,-0.024C0.077,-0.025 0.081,-0.028 0.084,-0.032C0.087,-0.035 0.09,-0.042 0.093,-0.052C0.096,-0.061 0.098,-0.075 0.1,-0.093C0.102,-0.11 0.103,-0.134 0.105,-0.163C0.106,-0.192 0.106,-0.229 0.107,-0.272C0.108,-0.315 0.108,-0.368 0.108,-0.429C0.108,-0.479 0.107,-0.521 0.106,-0.554C0.105,-0.587 0.103,-0.614 0.1,-0.635C0.097,-0.655 0.094,-0.669 0.09,-0.678C0.085,-0.687 0.08,-0.691 0.073,-0.691L0.026,-0.69C0.021,-0.689 0.017,-0.689 0.016,-0.689C0.015,-0.689 0.014,-0.69 0.013,-0.693C0.012,-0.696 0.012,-0.698 0.012,-0.701C0.012,-0.704 0.012,-0.707 0.013,-0.711C0.014,-0.715 0.016,-0.717 0.02,-0.717L0.109,-0.717C0.138,-0.717 0.161,-0.718 0.18,-0.719C0.199,-0.72 0.216,-0.723 0.233,-0.726C0.243,-0.728 0.247,-0.725 0.246,-0.716C0.245,-0.712 0.245,-0.705 0.244,-0.696L0.239,-0.636C0.238,-0.626 0.238,-0.619 0.238,-0.614C0.246,-0.623 0.259,-0.635 0.278,-0.648C0.296,-0.661 0.317,-0.674 0.342,-0.686C0.367,-0.698 0.394,-0.708 0.423,-0.717C0.452,-0.726 0.482,-0.73 0.512,-0.73C0.552,-0.73 0.589,-0.725 0.623,-0.715C0.657,-0.704 0.686,-0.689 0.711,-0.669C0.735,-0.648 0.754,-0.623 0.768,-0.592C0.781,-0.561 0.788,-0.524 0.788,-0.482C0.788,-0.455 0.785,-0.427 0.78,-0.398C0.775,-0.369 0.768,-0.34 0.76,-0.311C0.752,-0.282 0.743,-0.255 0.734,-0.228C0.725,-0.201 0.716,-0.175 0.708,-0.153C0.7,-0.13 0.693,-0.109 0.688,-0.091C0.683,-0.073 0.68,-0.059 0.68,-0.049C0.68,-0.042 0.684,-0.036 0.691,-0.032C0.698,-0.027 0.71,-0.025 0.727,-0.025C0.736,-0.025 0.744,-0.025 0.751,-0.026C0.757,-0.027 0.762,-0.029 0.767,-0.032C0.77,-0.033 0.772,-0.032 0.775,-0.028C0.776,-0.026 0.777,-0.024 0.777,-0.021C0.777,-0.018 0.775,-0.013 0.772,-0.007C0.768,-0.001 0.764,0.002 0.759,0.002L0.724,0.002C0.706,0.002 0.687,0.002 0.666,0.003C0.645,0.003 0.624,0.003 0.604,0.003L0.557,0.003C0.547,0.003 0.542,-0 0.542,-0.007C0.542,-0.011 0.542,-0.014 0.543,-0.015C0.544,-0.016 0.545,-0.016 0.547,-0.017C0.548,-0.017 0.55,-0.018 0.553,-0.019C0.555,-0.02 0.558,-0.022 0.562,-0.026C0.569,-0.037 0.577,-0.056 0.585,-0.083C0.593,-0.109 0.6,-0.14 0.607,-0.175C0.613,-0.21 0.618,-0.249 0.623,-0.29C0.627,-0.331 0.629,-0.373 0.629,-0.414C0.629,-0.457 0.624,-0.495 0.614,-0.528C0.604,-0.561 0.59,-0.588 0.573,-0.61C0.556,-0.632 0.536,-0.649 0.513,-0.66C0.49,-0.671 0.466,-0.676 0.441,-0.676C0.419,-0.676 0.397,-0.672 0.374,-0.664C0.351,-0.655 0.329,-0.644 0.31,-0.63C0.291,-0.615 0.274,-0.599 0.26,-0.58C0.245,-0.561 0.236,-0.541 0.232,-0.52C0.23,-0.511 0.228,-0.494 0.227,-0.471C0.226,-0.448 0.225,-0.421 0.224,-0.39C0.223,-0.359 0.223,-0.327 0.223,-0.293C0.222,-0.259 0.222,-0.227 0.222,-0.196C0.222,-0.177 0.222,-0.158 0.223,-0.141C0.224,-0.123 0.225,-0.107 0.226,-0.093C0.227,-0.078 0.229,-0.066 0.23,-0.056C0.231,-0.046 0.233,-0.04 0.234,-0.037C0.237,-0.031 0.24,-0.027 0.243,-0.025C0.246,-0.022 0.256,-0.021 0.271,-0.021C0.278,-0.021 0.283,-0.021 0.287,-0.022C0.29,-0.023 0.295,-0.023 0.3,-0.023C0.305,-0.023 0.308,-0.021 0.309,-0.018C0.31,-0.014 0.311,-0.011 0.311,-0.008C0.311,-0.007 0.31,-0.005 0.308,-0.002C0.305,0.001 0.302,0.002 0.299,0.002C0.295,0.002 0.288,0.002 0.279,0.002L0.211,0.001C0.199,0 0.19,-0 0.183,-0C0.166,-0 0.148,0 0.13,0.001C0.111,0.001 0.094,0.001 0.078,0.002C0.062,0.002 0.048,0.002 0.036,0.003C0.023,0.004 0.015,0.004 0.011,0.005C0.007,0.005 0.005,0.002 0.005,-0.003C0.005,-0.006 0.006,-0.01 0.009,-0.015C0.011,-0.019 0.014,-0.021 0.017,-0.021L0.03,-0.021Z" style="fill-rule:nonzero;"/>
            </g>
            <g transform="matrix(14.6977,0,0,14.6977,88.1376,355.099)">
                <path d="M0.429,-0.08C0.422,-0.074 0.412,-0.066 0.399,-0.056C0.386,-0.046 0.372,-0.036 0.355,-0.026C0.338,-0.016 0.32,-0.008 0.3,-0.001C0.28,0.007 0.259,0.01 0.237,0.01C0.204,0.01 0.174,0.004 0.148,-0.008C0.122,-0.019 0.1,-0.035 0.083,-0.055C0.065,-0.074 0.051,-0.097 0.043,-0.124C0.034,-0.151 0.029,-0.179 0.029,-0.209C0.029,-0.244 0.034,-0.276 0.045,-0.303C0.056,-0.33 0.069,-0.354 0.085,-0.375C0.1,-0.395 0.117,-0.412 0.135,-0.426C0.153,-0.439 0.169,-0.45 0.184,-0.458C0.191,-0.462 0.199,-0.466 0.21,-0.471C0.22,-0.476 0.231,-0.48 0.244,-0.484C0.256,-0.488 0.269,-0.492 0.284,-0.495C0.298,-0.498 0.313,-0.499 0.328,-0.499C0.357,-0.499 0.385,-0.495 0.412,-0.488C0.439,-0.481 0.462,-0.469 0.483,-0.454C0.504,-0.438 0.52,-0.418 0.533,-0.393C0.546,-0.368 0.552,-0.339 0.552,-0.304C0.552,-0.276 0.547,-0.25 0.537,-0.225C0.526,-0.2 0.514,-0.178 0.5,-0.159C0.486,-0.14 0.472,-0.123 0.459,-0.11C0.445,-0.096 0.435,-0.086 0.429,-0.08ZM0.316,-0.064C0.354,-0.064 0.383,-0.078 0.404,-0.107C0.424,-0.136 0.434,-0.18 0.434,-0.239C0.434,-0.269 0.43,-0.297 0.422,-0.323C0.413,-0.348 0.402,-0.371 0.387,-0.39C0.372,-0.409 0.354,-0.424 0.334,-0.436C0.314,-0.447 0.292,-0.452 0.269,-0.452C0.252,-0.452 0.237,-0.448 0.222,-0.439C0.207,-0.43 0.193,-0.418 0.182,-0.402C0.171,-0.385 0.162,-0.365 0.155,-0.342C0.148,-0.319 0.145,-0.292 0.145,-0.263C0.145,-0.232 0.15,-0.204 0.16,-0.179C0.169,-0.154 0.182,-0.134 0.198,-0.117C0.214,-0.099 0.232,-0.087 0.253,-0.078C0.273,-0.069 0.294,-0.064 0.316,-0.064Z" style="fill-rule:nonzero;"/>
            </g>
            <g transform="matrix(14.6977,0,0,14.6977,96.5887,355.099)">
                <path d="M0.035,-0.025C0.03,-0.022 0.025,-0.016 0.02,-0.009C0.015,-0.001 0.012,0.005 0.011,0.009C0.01,0.01 0.009,0.012 0.006,0.013C0.003,0.014 0,0.014 -0.001,0.014C-0.007,0.014 -0.01,0.011 -0.01,0.005C-0.01,0.003 -0.007,-0.002 -0.002,-0.011L0.044,-0.087C0.053,-0.101 0.061,-0.115 0.069,-0.128C0.076,-0.14 0.082,-0.148 0.085,-0.152C0.088,-0.155 0.092,-0.156 0.097,-0.154C0.102,-0.151 0.103,-0.148 0.101,-0.145C0.1,-0.144 0.099,-0.142 0.098,-0.14C0.097,-0.138 0.097,-0.135 0.097,-0.13C0.097,-0.124 0.102,-0.116 0.113,-0.108C0.123,-0.098 0.136,-0.09 0.152,-0.082C0.168,-0.073 0.186,-0.066 0.205,-0.06C0.224,-0.054 0.243,-0.051 0.262,-0.051C0.284,-0.051 0.302,-0.057 0.315,-0.07C0.328,-0.083 0.334,-0.099 0.334,-0.12C0.334,-0.143 0.327,-0.161 0.312,-0.172C0.297,-0.183 0.279,-0.192 0.258,-0.198C0.236,-0.204 0.212,-0.209 0.187,-0.213C0.161,-0.216 0.137,-0.222 0.116,-0.229C0.094,-0.236 0.076,-0.247 0.061,-0.261C0.046,-0.275 0.039,-0.295 0.039,-0.322C0.039,-0.343 0.046,-0.364 0.061,-0.385C0.075,-0.406 0.094,-0.425 0.118,-0.442C0.141,-0.459 0.168,-0.472 0.199,-0.483C0.23,-0.494 0.262,-0.499 0.295,-0.499C0.305,-0.499 0.317,-0.498 0.33,-0.496C0.343,-0.494 0.357,-0.492 0.37,-0.489C0.383,-0.486 0.395,-0.483 0.406,-0.48C0.417,-0.476 0.425,-0.474 0.43,-0.472C0.431,-0.472 0.431,-0.469 0.429,-0.464C0.427,-0.458 0.422,-0.449 0.414,-0.437C0.406,-0.424 0.397,-0.412 0.388,-0.4C0.378,-0.388 0.369,-0.377 0.361,-0.368C0.352,-0.359 0.346,-0.354 0.343,-0.354L0.337,-0.354C0.334,-0.354 0.331,-0.355 0.33,-0.356C0.331,-0.359 0.331,-0.364 0.331,-0.369C0.331,-0.392 0.321,-0.411 0.3,-0.424C0.279,-0.437 0.248,-0.444 0.208,-0.444C0.189,-0.444 0.173,-0.438 0.161,-0.427C0.148,-0.416 0.142,-0.402 0.142,-0.386C0.142,-0.36 0.149,-0.341 0.164,-0.328C0.179,-0.315 0.197,-0.306 0.219,-0.3C0.241,-0.293 0.265,-0.288 0.29,-0.285C0.315,-0.282 0.339,-0.277 0.361,-0.27C0.383,-0.263 0.401,-0.252 0.416,-0.238C0.431,-0.224 0.438,-0.203 0.438,-0.175C0.438,-0.162 0.435,-0.15 0.43,-0.138C0.425,-0.126 0.418,-0.115 0.409,-0.104C0.4,-0.093 0.391,-0.084 0.38,-0.075C0.369,-0.066 0.359,-0.058 0.348,-0.051C0.338,-0.044 0.327,-0.038 0.314,-0.031C0.301,-0.024 0.288,-0.017 0.273,-0.011C0.258,-0.005 0.243,-0 0.228,0.004C0.213,0.007 0.197,0.009 0.182,0.009C0.175,0.009 0.163,0.008 0.147,0.005C0.131,0.002 0.115,-0.002 0.099,-0.006C0.082,-0.01 0.068,-0.014 0.055,-0.018C0.042,-0.021 0.036,-0.024 0.035,-0.025Z" style="fill-rule:nonzero;"/>
            </g>
            <g transform="matrix(14.6977,0,0,14.6977,103.438,355.099)">
                <path d="M0.196,-0.005C0.197,-0.005 0.2,-0.006 0.204,-0.007C0.207,-0.008 0.21,-0.008 0.211,-0.008C0.215,-0.008 0.218,-0.005 0.219,-0C0.22,0.005 0.219,0.009 0.216,0.011C0.211,0.015 0.204,0.02 0.196,0.025C0.188,0.03 0.179,0.036 0.17,0.042C0.16,0.047 0.15,0.053 0.141,0.058C0.132,0.063 0.124,0.068 0.117,0.072C0.113,0.074 0.107,0.077 0.1,0.082C0.092,0.086 0.084,0.09 0.077,0.095C0.069,0.099 0.062,0.102 0.055,0.106C0.048,0.109 0.044,0.11 0.042,0.11C0.039,0.11 0.035,0.108 0.033,0.105C0.029,0.102 0.028,0.099 0.028,0.096C0.028,0.093 0.028,0.091 0.029,0.091L0.05,0.078C0.056,0.074 0.062,0.065 0.065,0.052C0.068,0.041 0.07,0.023 0.073,-0C0.076,-0.023 0.078,-0.051 0.08,-0.082C0.082,-0.113 0.084,-0.147 0.085,-0.184C0.086,-0.221 0.087,-0.259 0.087,-0.298L0.087,-0.341C0.087,-0.354 0.087,-0.366 0.086,-0.377C0.085,-0.377 0.08,-0.378 0.071,-0.379C0.062,-0.38 0.052,-0.381 0.042,-0.382C0.032,-0.383 0.023,-0.385 0.015,-0.387C0.006,-0.388 0.002,-0.39 0.002,-0.393C0.002,-0.394 0.002,-0.396 0.002,-0.399C0.001,-0.402 0.004,-0.406 0.009,-0.411C0.014,-0.416 0.021,-0.422 0.029,-0.429C0.036,-0.436 0.044,-0.442 0.051,-0.449C0.058,-0.456 0.065,-0.462 0.072,-0.467C0.078,-0.472 0.083,-0.477 0.086,-0.48C0.087,-0.5 0.087,-0.518 0.088,-0.535C0.088,-0.551 0.089,-0.566 0.09,-0.579C0.091,-0.596 0.094,-0.609 0.098,-0.619C0.102,-0.628 0.108,-0.637 0.115,-0.646C0.123,-0.655 0.139,-0.667 0.162,-0.682C0.185,-0.696 0.213,-0.711 0.245,-0.726C0.256,-0.731 0.266,-0.736 0.275,-0.74C0.283,-0.744 0.291,-0.747 0.299,-0.75C0.307,-0.752 0.315,-0.754 0.324,-0.755C0.333,-0.756 0.343,-0.757 0.354,-0.757C0.383,-0.757 0.409,-0.754 0.43,-0.748C0.451,-0.741 0.467,-0.733 0.478,-0.723C0.478,-0.72 0.474,-0.715 0.465,-0.706C0.456,-0.697 0.446,-0.688 0.435,-0.677C0.424,-0.666 0.412,-0.654 0.401,-0.643C0.39,-0.632 0.381,-0.622 0.376,-0.614C0.374,-0.611 0.371,-0.61 0.367,-0.611C0.363,-0.612 0.362,-0.614 0.363,-0.617C0.364,-0.62 0.366,-0.622 0.367,-0.625C0.368,-0.628 0.368,-0.631 0.368,-0.635C0.368,-0.653 0.359,-0.669 0.341,-0.682C0.323,-0.695 0.3,-0.702 0.272,-0.702C0.256,-0.702 0.243,-0.697 0.232,-0.688C0.221,-0.678 0.213,-0.662 0.207,-0.639C0.202,-0.618 0.198,-0.593 0.196,-0.565C0.193,-0.536 0.191,-0.5 0.19,-0.456C0.199,-0.454 0.212,-0.452 0.227,-0.452C0.242,-0.451 0.258,-0.45 0.275,-0.45L0.313,-0.45C0.326,-0.45 0.339,-0.45 0.353,-0.451C0.366,-0.452 0.378,-0.452 0.39,-0.454C0.401,-0.455 0.411,-0.456 0.418,-0.458C0.421,-0.455 0.422,-0.452 0.422,-0.449C0.413,-0.435 0.398,-0.424 0.378,-0.415C0.358,-0.406 0.337,-0.398 0.314,-0.393C0.291,-0.387 0.268,-0.383 0.245,-0.381C0.222,-0.379 0.203,-0.378 0.188,-0.378C0.188,-0.367 0.188,-0.351 0.187,-0.331C0.186,-0.31 0.186,-0.288 0.185,-0.265C0.184,-0.242 0.184,-0.218 0.184,-0.195C0.183,-0.171 0.183,-0.15 0.183,-0.131C0.183,-0.116 0.183,-0.101 0.184,-0.086C0.184,-0.071 0.184,-0.058 0.185,-0.047C0.186,-0.036 0.187,-0.026 0.189,-0.019C0.19,-0.011 0.193,-0.006 0.196,-0.005Z" style="fill-rule:nonzero;"/>
            </g>
            <g transform="matrix(14.6977,0,0,14.6977,108.332,355.099)">
                <path d="M0.494,-0.117C0.487,-0.109 0.475,-0.098 0.46,-0.084C0.445,-0.07 0.426,-0.056 0.405,-0.042C0.383,-0.028 0.359,-0.016 0.332,-0.006C0.305,0.004 0.277,0.009 0.247,0.009C0.22,0.009 0.193,0.005 0.167,-0.004C0.141,-0.012 0.118,-0.025 0.097,-0.042C0.076,-0.059 0.06,-0.08 0.048,-0.107C0.035,-0.133 0.029,-0.164 0.029,-0.201C0.029,-0.231 0.031,-0.257 0.035,-0.279C0.039,-0.3 0.044,-0.319 0.051,-0.336C0.058,-0.352 0.065,-0.366 0.074,-0.378C0.082,-0.389 0.09,-0.4 0.099,-0.409C0.11,-0.421 0.123,-0.432 0.138,-0.443C0.153,-0.454 0.17,-0.463 0.188,-0.472C0.205,-0.481 0.224,-0.488 0.244,-0.493C0.263,-0.498 0.283,-0.5 0.303,-0.5C0.339,-0.5 0.367,-0.494 0.388,-0.482C0.408,-0.47 0.418,-0.453 0.418,-0.432C0.418,-0.419 0.414,-0.406 0.406,-0.395C0.413,-0.397 0.421,-0.4 0.432,-0.405C0.442,-0.41 0.452,-0.415 0.463,-0.42C0.474,-0.424 0.483,-0.429 0.492,-0.433C0.5,-0.437 0.505,-0.44 0.508,-0.442C0.509,-0.443 0.511,-0.444 0.513,-0.444C0.514,-0.443 0.515,-0.442 0.515,-0.44C0.515,-0.431 0.513,-0.424 0.51,-0.419C0.507,-0.413 0.503,-0.408 0.498,-0.405C0.487,-0.398 0.472,-0.39 0.452,-0.38C0.432,-0.37 0.41,-0.36 0.386,-0.349C0.361,-0.338 0.336,-0.327 0.31,-0.316C0.284,-0.305 0.26,-0.294 0.237,-0.284C0.214,-0.274 0.194,-0.265 0.177,-0.258C0.16,-0.25 0.148,-0.244 0.142,-0.241C0.142,-0.218 0.147,-0.197 0.156,-0.178C0.165,-0.158 0.177,-0.141 0.193,-0.126C0.209,-0.111 0.228,-0.1 0.251,-0.092C0.273,-0.083 0.297,-0.079 0.324,-0.079C0.348,-0.079 0.37,-0.082 0.389,-0.087C0.408,-0.092 0.425,-0.097 0.438,-0.104C0.451,-0.11 0.462,-0.116 0.47,-0.121C0.477,-0.126 0.481,-0.128 0.482,-0.128C0.485,-0.128 0.487,-0.127 0.49,-0.125C0.493,-0.122 0.494,-0.12 0.494,-0.117ZM0.142,-0.27C0.153,-0.274 0.166,-0.279 0.181,-0.285C0.195,-0.29 0.209,-0.296 0.223,-0.303C0.236,-0.31 0.249,-0.316 0.26,-0.322C0.271,-0.328 0.28,-0.333 0.286,-0.338C0.298,-0.347 0.304,-0.361 0.304,-0.382C0.304,-0.39 0.303,-0.398 0.3,-0.407C0.297,-0.416 0.292,-0.424 0.286,-0.431C0.28,-0.438 0.273,-0.443 0.264,-0.448C0.255,-0.452 0.246,-0.454 0.235,-0.454C0.226,-0.454 0.216,-0.451 0.205,-0.445C0.194,-0.438 0.184,-0.428 0.175,-0.414C0.166,-0.399 0.158,-0.38 0.152,-0.357C0.145,-0.333 0.142,-0.304 0.142,-0.27Z" style="fill-rule:nonzero;"/>
            </g>
            <g transform="matrix(14.6977,0,0,14.6977,115.152,355.099)">
                <path d="M0.494,-0.425C0.487,-0.419 0.478,-0.412 0.468,-0.403C0.458,-0.394 0.448,-0.385 0.437,-0.377C0.426,-0.368 0.414,-0.361 0.403,-0.355C0.392,-0.349 0.381,-0.346 0.37,-0.346C0.361,-0.346 0.352,-0.348 0.345,-0.353C0.338,-0.357 0.331,-0.362 0.325,-0.367C0.318,-0.372 0.312,-0.376 0.306,-0.381C0.3,-0.385 0.294,-0.387 0.287,-0.387C0.269,-0.387 0.254,-0.38 0.242,-0.365C0.229,-0.35 0.219,-0.332 0.212,-0.309C0.204,-0.286 0.198,-0.262 0.195,-0.235C0.191,-0.208 0.189,-0.183 0.189,-0.158C0.189,-0.137 0.19,-0.121 0.192,-0.108C0.193,-0.094 0.196,-0.084 0.199,-0.077C0.202,-0.069 0.207,-0.064 0.213,-0.061C0.218,-0.058 0.225,-0.057 0.233,-0.057C0.242,-0.057 0.251,-0.058 0.261,-0.061C0.263,-0.062 0.265,-0.06 0.266,-0.057C0.267,-0.054 0.267,-0.051 0.267,-0.049C0.267,-0.048 0.266,-0.046 0.264,-0.045C0.262,-0.043 0.261,-0.042 0.26,-0.042C0.245,-0.036 0.23,-0.029 0.215,-0.023C0.2,-0.016 0.187,-0.01 0.177,-0.005C0.168,-0.001 0.157,0.003 0.144,0.008C0.131,0.013 0.119,0.015 0.11,0.015C0.099,0.015 0.091,0.013 0.084,0.01C0.077,0.007 0.073,0.003 0.073,-0C0.073,-0.003 0.074,-0.006 0.076,-0.009C0.077,-0.012 0.079,-0.017 0.08,-0.024C0.081,-0.034 0.083,-0.046 0.085,-0.06C0.086,-0.073 0.088,-0.088 0.09,-0.104C0.091,-0.12 0.092,-0.136 0.094,-0.154C0.094,-0.17 0.095,-0.187 0.095,-0.204C0.095,-0.241 0.094,-0.273 0.092,-0.299C0.089,-0.325 0.085,-0.346 0.079,-0.362C0.073,-0.378 0.065,-0.39 0.055,-0.397C0.044,-0.404 0.031,-0.407 0.015,-0.407L0.006,-0.407C0.003,-0.407 0.001,-0.407 -0.002,-0.406C-0.006,-0.406 -0.008,-0.408 -0.008,-0.412C-0.008,-0.416 -0.006,-0.419 -0.002,-0.421C0.005,-0.426 0.017,-0.432 0.032,-0.442C0.047,-0.451 0.063,-0.459 0.08,-0.468C0.096,-0.476 0.112,-0.483 0.127,-0.49C0.142,-0.497 0.154,-0.5 0.161,-0.5C0.17,-0.5 0.177,-0.497 0.183,-0.492C0.189,-0.486 0.194,-0.479 0.197,-0.47C0.2,-0.461 0.202,-0.452 0.203,-0.441C0.204,-0.43 0.205,-0.419 0.205,-0.408L0.204,-0.355C0.234,-0.399 0.261,-0.433 0.285,-0.458C0.309,-0.482 0.332,-0.494 0.353,-0.494C0.361,-0.494 0.369,-0.491 0.377,-0.484C0.384,-0.477 0.392,-0.47 0.401,-0.462C0.41,-0.453 0.419,-0.446 0.428,-0.439C0.437,-0.432 0.447,-0.429 0.457,-0.429C0.466,-0.429 0.472,-0.43 0.476,-0.432C0.48,-0.434 0.483,-0.436 0.486,-0.437C0.491,-0.437 0.494,-0.433 0.494,-0.426L0.494,-0.425Z" style="fill-rule:nonzero;"/>
            </g>
            <g transform="matrix(14.6977,0,0,14.6977,121.237,355.099)">
                <path d="M0.359,-0.156C0.357,-0.167 0.355,-0.18 0.353,-0.193C0.351,-0.206 0.349,-0.219 0.347,-0.231C0.345,-0.243 0.343,-0.253 0.342,-0.262C0.34,-0.271 0.339,-0.276 0.338,-0.279C0.327,-0.275 0.315,-0.27 0.302,-0.265C0.289,-0.26 0.275,-0.254 0.262,-0.248C0.249,-0.241 0.236,-0.235 0.224,-0.229C0.212,-0.222 0.202,-0.216 0.194,-0.211C0.179,-0.201 0.167,-0.191 0.159,-0.181C0.151,-0.171 0.147,-0.159 0.147,-0.145C0.147,-0.126 0.153,-0.109 0.164,-0.094C0.175,-0.079 0.193,-0.072 0.217,-0.072C0.23,-0.072 0.243,-0.074 0.257,-0.079C0.27,-0.084 0.283,-0.089 0.295,-0.095C0.306,-0.101 0.316,-0.107 0.325,-0.113C0.334,-0.119 0.34,-0.124 0.343,-0.127C0.348,-0.132 0.353,-0.137 0.356,-0.141C0.359,-0.144 0.36,-0.149 0.359,-0.156ZM0.33,-0.311C0.326,-0.332 0.321,-0.35 0.316,-0.367C0.311,-0.383 0.304,-0.397 0.296,-0.408C0.288,-0.419 0.278,-0.427 0.267,-0.433C0.256,-0.438 0.242,-0.441 0.225,-0.441C0.21,-0.441 0.197,-0.438 0.185,-0.433C0.172,-0.428 0.162,-0.421 0.153,-0.414C0.143,-0.407 0.137,-0.399 0.132,-0.392C0.127,-0.385 0.124,-0.379 0.123,-0.375C0.122,-0.37 0.119,-0.367 0.114,-0.367C0.105,-0.367 0.096,-0.37 0.088,-0.377C0.08,-0.384 0.076,-0.392 0.076,-0.401C0.076,-0.406 0.077,-0.41 0.078,-0.413C0.093,-0.422 0.112,-0.431 0.134,-0.441C0.156,-0.451 0.179,-0.46 0.203,-0.469C0.226,-0.478 0.25,-0.485 0.273,-0.491C0.296,-0.496 0.317,-0.499 0.336,-0.499C0.364,-0.499 0.386,-0.495 0.401,-0.487C0.416,-0.479 0.427,-0.468 0.434,-0.453C0.441,-0.438 0.446,-0.421 0.448,-0.402C0.449,-0.382 0.451,-0.361 0.452,-0.338C0.454,-0.304 0.457,-0.271 0.46,-0.24C0.463,-0.208 0.468,-0.18 0.475,-0.156C0.482,-0.131 0.49,-0.112 0.501,-0.097C0.511,-0.082 0.524,-0.074 0.539,-0.074C0.546,-0.074 0.554,-0.075 0.563,-0.078C0.572,-0.081 0.58,-0.084 0.588,-0.088C0.596,-0.091 0.603,-0.095 0.61,-0.099C0.616,-0.102 0.62,-0.105 0.622,-0.106C0.628,-0.106 0.632,-0.103 0.633,-0.097C0.633,-0.094 0.632,-0.091 0.631,-0.088C0.63,-0.087 0.625,-0.083 0.616,-0.078C0.607,-0.073 0.597,-0.066 0.584,-0.059C0.571,-0.052 0.557,-0.044 0.542,-0.036C0.527,-0.027 0.511,-0.019 0.497,-0.012C0.482,-0.005 0.468,0.001 0.455,0.006C0.442,0.011 0.432,0.013 0.425,0.013C0.416,0.013 0.409,0.01 0.403,0.003C0.396,-0.005 0.391,-0.014 0.386,-0.026C0.381,-0.037 0.377,-0.051 0.374,-0.066C0.371,-0.081 0.368,-0.097 0.365,-0.114C0.353,-0.104 0.338,-0.092 0.319,-0.079C0.3,-0.065 0.28,-0.052 0.258,-0.04C0.236,-0.028 0.214,-0.018 0.191,-0.01C0.167,-0.001 0.145,0.003 0.124,0.003C0.106,0.003 0.09,0 0.077,-0.006C0.064,-0.011 0.053,-0.019 0.044,-0.028C0.035,-0.037 0.028,-0.048 0.024,-0.061C0.019,-0.073 0.017,-0.086 0.017,-0.099C0.017,-0.12 0.024,-0.138 0.037,-0.152C0.049,-0.165 0.07,-0.179 0.097,-0.194C0.11,-0.201 0.127,-0.21 0.15,-0.221C0.173,-0.232 0.196,-0.243 0.22,-0.254C0.243,-0.265 0.265,-0.276 0.286,-0.287C0.306,-0.297 0.321,-0.305 0.33,-0.311Z" style="fill-rule:nonzero;"/>
            </g>
            <g transform="matrix(14.6977,0,0,14.6977,129.32,355.099)">
                <path d="M0.502,-0.139C0.503,-0.14 0.505,-0.14 0.506,-0.139C0.507,-0.137 0.507,-0.135 0.508,-0.132C0.508,-0.129 0.508,-0.125 0.507,-0.122C0.506,-0.119 0.505,-0.116 0.503,-0.114C0.49,-0.101 0.473,-0.088 0.453,-0.074C0.433,-0.06 0.412,-0.047 0.391,-0.035C0.385,-0.032 0.377,-0.027 0.366,-0.022C0.355,-0.017 0.343,-0.012 0.331,-0.007C0.318,-0.002 0.304,0.003 0.291,0.007C0.277,0.01 0.264,0.012 0.252,0.012C0.228,0.012 0.205,0.007 0.184,-0.002C0.163,-0.011 0.144,-0.024 0.128,-0.041C0.112,-0.057 0.099,-0.076 0.091,-0.099C0.082,-0.122 0.077,-0.146 0.077,-0.173C0.077,-0.202 0.081,-0.229 0.089,-0.254C0.097,-0.279 0.106,-0.302 0.117,-0.322C0.127,-0.342 0.137,-0.359 0.146,-0.373C0.155,-0.386 0.162,-0.396 0.165,-0.403C0.152,-0.404 0.141,-0.404 0.131,-0.405C0.12,-0.405 0.11,-0.405 0.101,-0.405C0.08,-0.405 0.062,-0.405 0.047,-0.405C0.032,-0.404 0.019,-0.403 0.008,-0.4C0.003,-0.399 -0.002,-0.396 -0.007,-0.392C-0.012,-0.388 -0.016,-0.385 -0.019,-0.383C-0.02,-0.384 -0.022,-0.386 -0.025,-0.389C-0.027,-0.391 -0.028,-0.393 -0.028,-0.396C-0.028,-0.397 -0.028,-0.398 -0.027,-0.399C-0.027,-0.4 -0.023,-0.404 -0.014,-0.411C-0.005,-0.418 0.006,-0.426 0.019,-0.436C0.032,-0.445 0.046,-0.456 0.062,-0.468C0.077,-0.479 0.092,-0.49 0.107,-0.5C0.121,-0.51 0.133,-0.519 0.144,-0.526C0.154,-0.533 0.161,-0.537 0.164,-0.538C0.168,-0.539 0.172,-0.539 0.176,-0.536C0.18,-0.533 0.181,-0.531 0.18,-0.53C0.178,-0.529 0.175,-0.526 0.171,-0.523C0.167,-0.519 0.166,-0.516 0.167,-0.513C0.174,-0.507 0.187,-0.502 0.205,-0.497C0.223,-0.492 0.243,-0.489 0.266,-0.486C0.289,-0.483 0.312,-0.48 0.336,-0.479C0.36,-0.477 0.382,-0.476 0.401,-0.476C0.43,-0.476 0.453,-0.477 0.47,-0.479C0.487,-0.48 0.502,-0.482 0.513,-0.485C0.524,-0.488 0.531,-0.49 0.534,-0.491C0.535,-0.491 0.536,-0.49 0.538,-0.488C0.54,-0.486 0.541,-0.484 0.541,-0.481C0.541,-0.48 0.536,-0.476 0.527,-0.471C0.517,-0.466 0.507,-0.46 0.497,-0.454C0.491,-0.451 0.484,-0.446 0.476,-0.441C0.467,-0.436 0.458,-0.431 0.449,-0.426C0.439,-0.42 0.429,-0.416 0.418,-0.412C0.407,-0.408 0.397,-0.406 0.387,-0.405C0.377,-0.404 0.365,-0.403 0.352,-0.402C0.339,-0.401 0.325,-0.401 0.31,-0.401C0.295,-0.4 0.281,-0.4 0.266,-0.4C0.251,-0.399 0.237,-0.399 0.224,-0.399C0.222,-0.396 0.219,-0.39 0.215,-0.383C0.21,-0.375 0.206,-0.365 0.202,-0.353C0.198,-0.341 0.194,-0.327 0.191,-0.312C0.188,-0.297 0.186,-0.28 0.186,-0.262C0.186,-0.235 0.19,-0.21 0.199,-0.187C0.207,-0.164 0.219,-0.144 0.234,-0.127C0.249,-0.11 0.266,-0.097 0.287,-0.088C0.308,-0.079 0.33,-0.074 0.354,-0.074C0.368,-0.074 0.382,-0.076 0.395,-0.079C0.408,-0.082 0.42,-0.087 0.432,-0.092C0.443,-0.097 0.454,-0.103 0.464,-0.11C0.474,-0.116 0.483,-0.122 0.49,-0.128L0.502,-0.139Z" style="fill-rule:nonzero;"/>
            </g>
            <g transform="matrix(14.6977,0,0,14.6977,136.214,355.099)">
                <path d="M0.019,-0.413C0.014,-0.414 0.011,-0.417 0.012,-0.421C0.012,-0.425 0.014,-0.427 0.019,-0.428C0.021,-0.429 0.027,-0.431 0.038,-0.435C0.049,-0.439 0.062,-0.444 0.077,-0.449C0.092,-0.454 0.107,-0.46 0.124,-0.466C0.14,-0.472 0.154,-0.477 0.167,-0.481C0.175,-0.484 0.181,-0.486 0.184,-0.487C0.187,-0.488 0.189,-0.488 0.191,-0.488C0.193,-0.488 0.195,-0.487 0.198,-0.486C0.201,-0.484 0.201,-0.481 0.2,-0.478C0.198,-0.473 0.196,-0.46 0.194,-0.44C0.191,-0.42 0.189,-0.398 0.187,-0.374C0.185,-0.349 0.183,-0.325 0.182,-0.301C0.18,-0.277 0.179,-0.258 0.179,-0.244C0.179,-0.191 0.19,-0.15 0.213,-0.121C0.236,-0.091 0.271,-0.077 0.319,-0.077C0.344,-0.077 0.364,-0.082 0.381,-0.092C0.397,-0.102 0.409,-0.114 0.418,-0.127C0.424,-0.136 0.428,-0.155 0.43,-0.184C0.43,-0.189 0.43,-0.196 0.431,-0.205L0.433,-0.261C0.433,-0.27 0.433,-0.277 0.433,-0.283C0.434,-0.314 0.433,-0.342 0.431,-0.369C0.428,-0.395 0.425,-0.414 0.42,-0.427C0.418,-0.435 0.414,-0.439 0.408,-0.439C0.404,-0.439 0.4,-0.439 0.397,-0.439C0.393,-0.438 0.391,-0.441 0.39,-0.447C0.39,-0.449 0.392,-0.451 0.396,-0.454C0.4,-0.456 0.408,-0.459 0.419,-0.464C0.43,-0.468 0.442,-0.472 0.455,-0.476C0.468,-0.48 0.48,-0.483 0.493,-0.486C0.506,-0.489 0.517,-0.491 0.527,-0.492C0.537,-0.493 0.544,-0.492 0.549,-0.49C0.549,-0.489 0.55,-0.489 0.551,-0.488C0.552,-0.487 0.552,-0.484 0.553,-0.481C0.554,-0.477 0.554,-0.464 0.551,-0.444C0.548,-0.423 0.544,-0.388 0.541,-0.341C0.538,-0.308 0.536,-0.277 0.534,-0.246C0.532,-0.215 0.531,-0.192 0.531,-0.176C0.531,-0.145 0.537,-0.12 0.549,-0.102C0.56,-0.083 0.575,-0.074 0.592,-0.074C0.603,-0.074 0.614,-0.076 0.625,-0.081C0.635,-0.086 0.642,-0.09 0.647,-0.093C0.652,-0.093 0.655,-0.091 0.656,-0.086C0.656,-0.081 0.655,-0.078 0.652,-0.077C0.642,-0.07 0.628,-0.062 0.611,-0.052C0.593,-0.042 0.575,-0.033 0.556,-0.024C0.537,-0.014 0.518,-0.007 0.501,-0.001C0.484,0.006 0.47,0.009 0.459,0.009C0.454,0.009 0.449,0.006 0.445,-0.002C0.44,-0.009 0.437,-0.017 0.434,-0.027C0.431,-0.037 0.429,-0.047 0.428,-0.058C0.427,-0.069 0.426,-0.078 0.426,-0.086C0.412,-0.076 0.396,-0.066 0.378,-0.055C0.36,-0.044 0.341,-0.033 0.322,-0.024C0.303,-0.014 0.284,-0.006 0.265,-0C0.246,0.006 0.228,0.009 0.212,0.009C0.171,0.009 0.138,-0.002 0.112,-0.024C0.086,-0.045 0.073,-0.073 0.073,-0.108C0.073,-0.115 0.074,-0.126 0.075,-0.141C0.076,-0.156 0.078,-0.172 0.08,-0.191C0.082,-0.21 0.084,-0.23 0.085,-0.251C0.086,-0.272 0.087,-0.293 0.087,-0.313C0.087,-0.344 0.082,-0.367 0.073,-0.384C0.063,-0.4 0.05,-0.409 0.035,-0.411L0.019,-0.413Z" style="fill-rule:nonzero;"/>
            </g>
        </g>
        <g id="namespace-Nosferatu" serif:id="namespace@Nosferatu" transform="matrix(0.0219124,0,0,0.0248558,-15.6689,285.934)">
            <g transform="matrix(55.8954,0,0,49.2765,-878.032,-330.791)">
                <path d="M27.733,13.757C27.957,11.616 28.949,10 30.136,10C31.489,10 32.587,12.095 32.587,14.677C32.587,15.669 32.424,16.59 32.148,17.347C32.432,17.974 32.587,18.65 32.587,19.353C32.587,22.678 29.128,25.378 24.868,25.378C20.609,25.378 17.15,22.678 17.15,19.353C17.15,18.65 17.305,17.974 17.589,17.347C17.313,16.59 17.15,15.669 17.15,14.677C17.15,12.095 18.248,10 19.601,10C20.788,10 21.779,11.616 22.003,13.757L22.04,13.746C22.915,13.476 23.87,13.328 24.868,13.328C25.881,13.328 26.847,13.48 27.733,13.757ZM17.609,17.304L17.606,17.31L17.609,17.304ZM32.128,17.305L32.131,17.31L32.128,17.305ZM17.627,17.265L17.623,17.273L17.627,17.265ZM32.11,17.266L32.113,17.273L32.11,17.266ZM17.645,17.227L17.641,17.236L17.645,17.227ZM32.092,17.228L32.096,17.236L32.092,17.228ZM17.663,17.19L17.659,17.2L17.663,17.19ZM32.074,17.191L32.078,17.199L32.074,17.191ZM17.682,17.153L17.677,17.162L17.682,17.153ZM32.055,17.154L32.059,17.161L32.055,17.154ZM17.7,17.117L17.696,17.125L17.7,17.117ZM32.037,17.117L32.04,17.123L32.037,17.117ZM17.719,17.081L17.717,17.085L17.719,17.081ZM32.018,17.081L32.019,17.082L32.018,17.081ZM17.782,16.964L17.778,16.971L17.782,16.964ZM31.957,16.968L31.958,16.97L31.957,16.968ZM17.804,16.925L17.798,16.935L17.804,16.925ZM31.935,16.928L31.938,16.934L31.935,16.928ZM17.825,16.888L17.818,16.9L17.825,16.888ZM31.914,16.891L31.918,16.899L31.914,16.891ZM17.845,16.852L17.838,16.865L17.845,16.852ZM31.893,16.854L31.898,16.863L31.893,16.854ZM17.866,16.817L17.859,16.829L17.866,16.817ZM31.871,16.819L31.876,16.827L31.871,16.819ZM17.888,16.782L17.88,16.794L17.888,16.782ZM31.85,16.783L31.855,16.791L31.85,16.783ZM17.909,16.747L17.902,16.758L17.909,16.747ZM31.829,16.748L31.832,16.754L31.829,16.748ZM17.931,16.712L17.925,16.72L17.931,16.712ZM31.807,16.713L31.808,16.714L31.807,16.713ZM17.979,16.635L17.975,16.642L17.979,16.635ZM18.005,16.596L17.998,16.608L18.005,16.596ZM31.735,16.602L31.738,16.606L31.735,16.602ZM18.029,16.561L18.02,16.573L18.029,16.561ZM31.711,16.564L31.716,16.572L31.711,16.564ZM18.052,16.526L18.043,16.539L18.052,16.526ZM31.686,16.529L31.692,16.537L31.686,16.529ZM18.076,16.492L18.066,16.505L18.076,16.492ZM31.663,16.494L31.669,16.503L31.663,16.494ZM18.1,16.458L18.09,16.471L18.1,16.458ZM31.639,16.459L31.645,16.469L31.639,16.459ZM18.124,16.424L18.114,16.437L18.124,16.424ZM31.614,16.425L31.62,16.434L31.614,16.425ZM18.148,16.39L18.139,16.403L18.148,16.39ZM31.59,16.392L31.595,16.398L31.59,16.392ZM18.172,16.357L18.164,16.367L18.172,16.357ZM31.566,16.358L31.567,16.36L31.566,16.358ZM18.197,16.324L18.196,16.324L18.197,16.324ZM18.23,16.28L18.222,16.291L18.23,16.28ZM31.513,16.288L31.514,16.289L31.513,16.288ZM18.257,16.245L18.247,16.258L18.257,16.245ZM31.484,16.249L31.489,16.256L31.484,16.249ZM18.283,16.211L18.272,16.225L18.283,16.211ZM31.456,16.214L31.463,16.223L31.456,16.214ZM18.309,16.178L18.298,16.192L18.309,16.178ZM31.43,16.18L31.438,16.19L31.43,16.18ZM18.335,16.145L18.324,16.16L18.335,16.145ZM31.403,16.147L31.411,16.158L31.403,16.147ZM18.362,16.113L18.35,16.127L18.362,16.113ZM31.376,16.114L31.385,16.125L31.376,16.114ZM18.388,16.081L18.377,16.094L18.388,16.081ZM31.35,16.082L31.357,16.091L31.35,16.082ZM18.415,16.049L18.404,16.061L18.415,16.049ZM31.323,16.05L31.329,16.057L31.323,16.05ZM18.442,16.017L18.433,16.027L18.442,16.017ZM31.295,16.018L31.298,16.021L31.295,16.018ZM18.473,15.981L18.469,15.985L18.473,15.981ZM18.507,15.942L18.497,15.954L18.507,15.942ZM31.234,15.947L31.239,15.953L31.234,15.947ZM18.536,15.909L18.525,15.922L18.536,15.909ZM31.203,15.912L31.211,15.921L31.203,15.912ZM18.565,15.877L18.553,15.891L18.565,15.877ZM31.174,15.879L31.183,15.89L31.174,15.879ZM18.594,15.846L18.581,15.86L18.594,15.846ZM31.145,15.847L31.155,15.859L31.145,15.847ZM18.622,15.815L18.61,15.828L18.622,15.815ZM31.115,15.816L31.126,15.827L31.115,15.816ZM18.651,15.784L18.639,15.797L18.651,15.784ZM31.086,15.785L31.097,15.796L31.086,15.785ZM18.68,15.753L18.668,15.766L18.68,15.753ZM31.057,15.754L31.067,15.765L31.057,15.754ZM18.71,15.723L18.698,15.735L18.71,15.723ZM31.027,15.723L31.037,15.733L31.027,15.723ZM18.739,15.692L18.73,15.702L18.739,15.692ZM30.998,15.693L31.003,15.698L30.998,15.693ZM18.775,15.656L18.769,15.662L18.775,15.656ZM30.965,15.659L30.967,15.662L30.965,15.659ZM18.81,15.621L18.799,15.632L18.81,15.621ZM30.928,15.622L30.937,15.632L30.928,15.622ZM18.842,15.59L18.83,15.602L18.842,15.59ZM30.895,15.591L30.907,15.602L30.895,15.591ZM18.873,15.56L18.86,15.572L18.873,15.56ZM30.864,15.56L30.876,15.572L30.864,15.56ZM18.904,15.53L18.891,15.543L18.904,15.53ZM30.832,15.53L30.846,15.543L30.832,15.53ZM30.801,15.5L30.814,15.513L30.801,15.5ZM18.936,15.501L18.923,15.513L18.936,15.501ZM30.769,15.471L30.783,15.484L30.769,15.471ZM18.967,15.471L18.954,15.483L18.967,15.471ZM30.738,15.442L30.751,15.454L30.738,15.442ZM18.999,15.442L18.986,15.454L18.999,15.442ZM30.706,15.413L30.719,15.425L30.706,15.413ZM19.031,15.413L19.019,15.424L19.031,15.413ZM30.674,15.384L30.684,15.394L30.674,15.384ZM19.063,15.385L19.056,15.391L19.063,15.385ZM30.63,15.346L30.642,15.356L30.63,15.346ZM19.101,15.35L19.095,15.356L19.101,15.35ZM30.595,15.315L30.61,15.328L30.595,15.315ZM19.139,15.318L19.128,15.327L19.139,15.318ZM30.561,15.286L30.577,15.3L30.561,15.286ZM19.173,15.288L19.161,15.299L19.173,15.288ZM30.528,15.258L30.544,15.272L30.528,15.258ZM19.207,15.26L19.194,15.271L19.207,15.26ZM30.494,15.23L30.511,15.244L30.494,15.23ZM19.241,15.231L19.227,15.243L19.241,15.231ZM30.461,15.202L30.478,15.216L30.461,15.202ZM19.274,15.204L19.261,15.215L19.274,15.204ZM30.427,15.175L30.444,15.189L30.427,15.175ZM19.308,15.176L19.295,15.187L19.308,15.176ZM30.393,15.147L30.41,15.161L30.393,15.147ZM19.342,15.149L19.33,15.158L19.342,15.149ZM30.359,15.12L30.376,15.134L30.359,15.12ZM19.377,15.121L19.366,15.129L19.377,15.121ZM30.325,15.093L30.343,15.107L30.326,15.094L30.305,15.078L30.325,15.093ZM19.411,15.094L19.409,15.096L19.411,15.094ZM30.273,15.053L30.292,15.068L30.273,15.053ZM19.452,15.062L19.446,15.067L19.452,15.062ZM30.238,15.027L30.257,15.041L30.238,15.027ZM19.492,15.032L19.481,15.04L19.492,15.032ZM30.203,15L30.222,15.015L30.203,15ZM19.529,15.004L19.516,15.013L19.529,15.004ZM30.168,14.974L30.187,14.989L30.168,14.974ZM19.565,14.977L19.552,14.987L19.565,14.977ZM30.132,14.948L30.152,14.963L30.132,14.948ZM19.601,14.951L19.588,14.961L19.601,14.951ZM30.097,14.922L30.117,14.937L30.097,14.922ZM19.637,14.925L19.624,14.934L19.637,14.925ZM30.061,14.897L30.081,14.911L30.061,14.897ZM19.673,14.899L19.661,14.908L19.673,14.899ZM30.025,14.871L30.046,14.886L30.025,14.871ZM19.71,14.873L19.698,14.881L19.71,14.873ZM29.988,14.846L30.011,14.862L29.988,14.846ZM19.746,14.848L19.738,14.853L19.746,14.848ZM29.954,14.822L29.915,14.796C29.928,14.805 29.941,14.813 29.954,14.822ZM19.826,14.793L19.821,14.796L19.826,14.793ZM29.858,14.758L29.881,14.773L29.858,14.758ZM19.868,14.765L19.858,14.771L19.868,14.765ZM29.822,14.734L29.845,14.749L29.822,14.734ZM19.907,14.739L19.896,14.747L19.907,14.739ZM29.785,14.71L29.807,14.724L29.785,14.71ZM19.946,14.714L19.933,14.722L19.946,14.714ZM29.747,14.686L29.77,14.7L29.747,14.686ZM19.984,14.689L19.971,14.697L19.984,14.689ZM29.71,14.662L29.733,14.676L29.71,14.662ZM20.023,14.665L20.01,14.673L20.023,14.665ZM29.672,14.638L29.696,14.653L29.672,14.638ZM20.061,14.641L20.049,14.648L20.061,14.641ZM29.634,14.615L29.659,14.63L29.634,14.615ZM20.099,14.617L20.09,14.623L20.099,14.617ZM29.494,14.531C29.537,14.556 29.58,14.582 29.623,14.608C29.581,14.582 29.538,14.556 29.494,14.531ZM20.138,14.593L20.134,14.596L20.138,14.593ZM20.221,14.543L20.218,14.545L20.221,14.543ZM29.458,14.51L29.483,14.525L29.458,14.51ZM20.266,14.517L20.257,14.522L20.266,14.517ZM29.42,14.488L29.444,14.502L29.42,14.488ZM20.308,14.493L20.297,14.499L20.308,14.493ZM29.381,14.466L29.405,14.48L29.381,14.466ZM20.349,14.47L20.337,14.477L20.349,14.47ZM29.341,14.444L29.366,14.457L29.341,14.444ZM20.389,14.447L20.377,14.454L20.389,14.447ZM29.302,14.422L29.327,14.436L29.302,14.422ZM20.43,14.425L20.418,14.431L20.43,14.425ZM29.262,14.4L29.288,14.414L29.262,14.4ZM20.47,14.403L20.46,14.408L20.47,14.403ZM29.222,14.379L29.249,14.393L29.222,14.379ZM20.51,14.381L20.503,14.385L20.51,14.381ZM29.186,14.359L29.143,14.337C29.157,14.344 29.171,14.352 29.186,14.359ZM29.077,14.303L29.105,14.317L29.077,14.303ZM20.638,14.314L20.636,14.315L20.638,14.314ZM29.038,14.283L29.064,14.296L29.038,14.283ZM20.685,14.29L20.677,14.294L20.685,14.29ZM28.998,14.263L29.023,14.276L28.998,14.263ZM20.729,14.268L20.719,14.273L20.729,14.268ZM28.957,14.243L28.982,14.255L28.957,14.243ZM20.772,14.247L20.761,14.252L20.772,14.247ZM28.916,14.223L28.941,14.235L28.916,14.223ZM20.814,14.226L20.803,14.232L20.814,14.226ZM28.875,14.203L28.899,14.215L28.875,14.203ZM20.857,14.206L20.846,14.211L20.857,14.206ZM28.833,14.184L28.858,14.195L28.833,14.184ZM20.899,14.186L20.891,14.19L20.899,14.186ZM28.791,14.164L28.817,14.176L28.791,14.164ZM20.942,14.166L20.937,14.168L20.942,14.166ZM28.752,14.146L28.707,14.126C28.722,14.133 28.737,14.139 28.752,14.146ZM28.643,14.097L28.667,14.108L28.643,14.097ZM21.075,14.106L21.074,14.106L21.075,14.106ZM28.601,14.079L28.624,14.089L28.601,14.079ZM21.124,14.084L21.117,14.087L21.124,14.084ZM28.558,14.061L28.581,14.071L28.558,14.061ZM21.17,14.065L21.161,14.068L21.17,14.065ZM28.516,14.043L28.538,14.052L28.516,14.043ZM21.215,14.046L21.204,14.05L21.215,14.046ZM28.473,14.025L28.494,14.034L28.473,14.025ZM21.259,14.027L21.249,14.031L21.259,14.027ZM28.429,14.007L28.451,14.016L28.429,14.007ZM21.303,14.009L21.294,14.013L21.303,14.009ZM28.386,13.989L28.406,13.998L28.386,13.989ZM21.347,13.991L21.341,13.994L21.347,13.991ZM28.342,13.972L28.361,13.979L28.342,13.972ZM21.392,13.973L21.391,13.974L21.392,13.973ZM28.298,13.955L28.311,13.96L28.298,13.955ZM28.243,13.934L28.254,13.938L28.243,13.934ZM28.195,13.915L28.21,13.921L28.195,13.915ZM21.531,13.92L21.53,13.92L21.531,13.92ZM28.149,13.898L28.165,13.904L28.149,13.898ZM21.581,13.901L21.575,13.903L21.581,13.901ZM28.103,13.882L28.119,13.888L28.103,13.882ZM21.629,13.884L21.62,13.887L21.629,13.884ZM28.058,13.866L28.074,13.871L28.058,13.866ZM21.675,13.867L21.666,13.87L21.675,13.867ZM28.013,13.85L28.028,13.855L28.013,13.85ZM21.721,13.851L21.713,13.854L21.721,13.851ZM27.968,13.834L27.981,13.839L27.968,13.834ZM21.767,13.835L21.76,13.837L21.767,13.835ZM27.922,13.819L27.932,13.822L27.922,13.819ZM21.813,13.819L21.809,13.821L21.813,13.819ZM27.877,13.803L27.879,13.804L27.877,13.803Z" style="fill:none;stroke:black;stroke-width:1.22px;"/>
            </g>
            <g transform="matrix(55.8954,0,0,49.2765,-878.032,-330.791)">
                <path d="M25.128,19.358C24.963,19.04 24.868,18.67 24.868,18.275C24.868,17.096 25.713,16.138 26.753,16.138C27.793,16.138 28.637,17.096 28.637,18.275C28.637,19.031 28.291,19.696 27.768,20.076C27.128,19.668 26.188,19.396 25.128,19.358ZM21.969,20.076C21.446,19.696 21.099,19.031 21.099,18.275C21.099,17.096 21.944,16.138 22.984,16.138C24.024,16.138 24.868,17.096 24.868,18.275C24.868,18.67 24.774,19.04 24.609,19.358C23.549,19.396 22.609,19.668 21.969,20.076Z" style="fill:none;stroke:black;stroke-width:1.22px;"/>
            </g>
            <g transform="matrix(1,0,0,1,-53.1856,50.0357)">
                <ellipse cx="565.186" cy="671.455" rx="210.672" ry="98.631" style="fill:none;stroke:black;stroke-width:63.81px;"/>
            </g>
            <g transform="matrix(51.2,0,0,45.1371,0.670978,88.9676)">
                <path d="M12.057,13.791C12.057,13.668 11.958,13.568 11.835,13.568L8.139,13.568C8.016,13.568 7.916,13.668 7.916,13.791L7.916,14.236C7.916,14.359 8.016,14.458 8.139,14.458L11.835,14.458C11.958,14.458 12.057,14.359 12.057,14.236L12.057,13.791Z"/>
            </g>
        </g>
    </g>
</svg>
